<svg version="1.1" id="svg" xmlns="http://www.w3.org/2000/svg" xmlns:xlink="http://www.w3.org/1999/xlink" x="0px" y="0px"
	 width="200px" height="200px" viewBox="0 0 200 200" enable-background="new 0 0 200 200" xml:space="preserve">
<path class="stroke" fill="#2a374b"  d="M183.007,94.677c-0.042-1.424-0.276-2.845-0.454-4.264c-0.432-3.454-0.549-6.99-1.402-10.336
	c-1.15-4.508-2.996-8.833-4.315-13.303c-1.363-4.617-3.502-8.825-6.061-12.852c-1.343-2.113-2.677-4.238-4.139-6.268
	c-1.77-2.459-3.598-4.885-5.542-7.206c-1.146-1.368-2.674-2.413-3.838-3.769c-1.701-1.98-3.676-3.586-5.824-5.036
	c-3.49-2.354-6.765-5.089-10.446-7.083c-4.701-2.545-9.593-4.857-14.63-6.623c-4.048-1.418-8.4-2.124-12.678-2.691
	c-5.592-0.742-11.237-1.312-16.871-1.438c-4.521-0.101-9.092,0.33-13.581,0.955c-6.61,0.92-13.184,2.169-19.17,5.393
	c-2.864,1.543-5.915,2.827-8.534,4.71c-3.479,2.502-6.642,5.449-9.903,8.25c-5.089,4.369-9.146,9.682-13.157,14.979
	c-2.526,3.337-4.389,7.174-6.589,10.763c-2.088,3.405-3.826,6.949-4.808,10.85c-0.774,3.071-1.735,6.096-2.498,9.169
	c-0.686,2.763-1.337,5.545-1.773,8.354c-0.348,2.237-0.123,4.572-0.553,6.786c-0.886,4.559-0.065,9.053,0.524,13.484
	c0.645,4.853,2.122,9.594,3.235,14.384c1.067,4.59,2.753,8.937,5.201,12.97c1.835,3.024,3.679,6.045,5.61,9.008
	c1.775,2.722,3.432,5.579,5.573,7.992c3.163,3.564,6.668,6.831,10.104,10.146c3.978,3.838,8.774,6.498,13.738,8.748
	c4.035,1.829,8.287,3.204,12.499,4.609c3.229,1.078,6.515,2.029,9.835,2.772c2.428,0.543,4.985,0.495,7.426,0.998
	c3.766,0.777,7.539,1.242,11.379,1.082c1.309-0.055,2.612-0.221,3.918-0.336c0.009,0.074,0.017,0.148,0.026,0.222
	c2.638-0.345,5.306-0.544,7.906-1.074c3.069-0.625,6.057-1.647,9.123-2.296c6.077-1.287,11.429-4.325,16.96-6.909
	c2.185-1.021,4.059-2.694,6.22-3.781c4.349-2.189,7.705-5.634,11.323-8.723c3.24-2.767,6.069-5.972,8.551-9.473
	c2.231-3.147,4.884-6.032,6.826-9.341c3.564-6.072,6.461-12.486,8.055-19.408c0.675-2.934,1.586-5.837,1.968-8.808
	c0.449-3.503,0.451-7.064,0.624-10.601C182.948,98.013,183.057,96.342,183.007,94.677z"/>
<path fill-rule="evenodd" clip-rule="evenodd" fill="#eef9fc" class="fill" d="M88.24,17.541c-2.333,4.706-4.526,9.129-6.765,13.646
	c-0.281-1.246-0.662-2.412-2.251-2.543c-0.255,0.329-0.516,0.665-0.776,1.001c0.073,0.016,0.146,0.031,0.22,0.046
	c-0.128,1.015-0.256,2.03-0.385,3.045c-0.13,0.009-0.259,0.018-0.389,0.026c0.226,0.438,0.451,0.876,0.726,1.409
	c-2.078,0.691-4.021,1.629-2.914,4.785c-0.617,0.17-1.18,0.48-1.724,0.448c-2.055-0.122-3.499,0.805-4.648,2.401
	c-0.767,1.065-1.559,2.116-2.402,3.121c-0.798,0.95-1.137,1.99-0.911,3.226c1.205,1.77,3.274,1.139,5.192,1.722
	c-2.536,1.182-3.752,3.212-4.885,5.394c-0.501,0.966-1.494,1.686-2.29,2.49c-0.556,0.562-1.133,1.108-1.745,1.606
	c-0.854,0.695-1.705,1.41-2.637,1.987c-1.753,1.087-2.569,2.85-3.234,4.616c-1.075,2.855-2.092,5.76-2.785,8.725
	c-0.697,2.983-0.198,5.846,1.189,8.733c1.853,3.855,5.154,6.102,8.3,8.55c1.538,1.196,3.232,1.862,5.413,0.792
	c1.294-0.635,3.088-0.251,4.95-0.34c0,1.8-0.098,3.385,0.018,4.955c0.343,4.636,0.656,9.279,1.203,13.893
	c0.414,3.498,1.098,6.971,1.788,10.429c0.872,4.365,1.705,8.749,2.855,13.044c2.07,7.73,4.182,15.46,6.637,23.073
	c1.405,4.357,3.52,8.484,5.348,12.791c-3.261-0.047-5.888,1.608-8.156,3.838c-2.045-0.221-3.542-1.252-5.015-2.459
	c-2.49-2.041-5.083-3.957-7.637-5.918c-3.05-2.342-5.705-5.072-8.23-7.972c-3.233-3.713-6.313-7.511-8.463-11.972
	c-2.067-4.289-4.341-8.503-6.05-12.934c-1.938-5.025-3.646-10.182-4.896-15.415c-1-4.181-1.211-8.556-1.685-12.855
	c-0.308-2.805-0.542-5.623-0.65-8.441c-0.079-2.068,0.044-4.15,0.18-6.219c0.18-2.745,0.247-5.522,0.744-8.214
	c0.834-4.518,1.854-9.011,3.015-13.458c1.061-4.063,2.469-8.035,3.621-12.077c1.316-4.618,3.344-8.92,5.572-13.145
	c2.757-5.229,6.354-9.844,10.581-13.93c1.841-1.78,4.021-3.235,6.152-4.683c2.728-1.854,5.511-3.639,8.375-5.271
	c1.016-0.58,2.328-0.67,3.52-0.903C84.24,18.208,86.178,17.9,88.24,17.541z M73.514,26.296c1.854-0.577,2.211-1.535,1.117-2.956
	c-0.373,0-0.764,0-1.102,0C72.042,24.65,72.037,25.197,73.514,26.296z M74.33,33.678c0.406,0.118,0.77,0.224,1.065,0.31
	c0.482-0.545,0.892-1.009,1.373-1.553c-0.257-0.455-0.521-0.921-0.776-1.373C74.122,31.771,73.766,32.321,74.33,33.678z"/>
<path fill-rule="evenodd" clip-rule="evenodd" fill="#F13836" d="M77.298,53.295c3.039-0.911,6.067-1.818,9.169-2.748
	c1.875,2.363,4.626,2.926,7.309,3.67c1.367,0.379,2.666,1.001,4.029,1.399c1.892,0.552,3.538,0.21,4.649-1.604
	c0.142-0.231,0.338-0.43,0.486-0.614c3.095,1.158,6.174,1.997,9.603,1.27c0.388,1.598,0.849,3.071,1.094,4.58
	c1.036,6.389,2.125,12.773,2.961,19.189c0.596,4.572,0.867,9.189,1.199,13.792c0.304,4.21,0.603,8.426,0.71,12.645
	c0.175,6.814,0.201,13.633,0.269,20.45c0.026,2.618,0.05,5.238-0.049,7.853c-0.021,0.562-0.454,1.253-0.909,1.625
	c-0.822,0.673-1.852,1.087-2.706,1.728c-0.945,0.709-1.877,1.475-2.661,2.353c-1.199,1.342-2.437,2.287-4.354,1.558
	c-0.628-0.239-1.306-0.348-2-0.526c-0.501-1.528-1.034-3.059-1.506-4.608c-0.892-2.921-2.42-5.518-4.16-7.983
	c-1.362-1.93-2.632-3.868-3.315-6.167c-0.305-1.029-0.249-1.908,0.471-2.646c0.834-0.856,1.023-1.854,0.921-2.966
	c-0.343-3.732-0.786-7.435-2.792-10.74c-1.148-1.891-2.541-3.524-4.508-4.607c-0.202-0.111-0.374-0.278-0.51-0.382
	c0.218-1.694,0.462-3.307,0.625-4.927c0.224-2.243-1.836-5.271-4.059-5.808c-1.533-0.37-3.124-0.505-4.693-0.715
	c-0.983-0.131-2.01-0.072-2.953-0.332c-1.866-0.514-3.559-0.628-4.956,1.202C75.241,77.209,75.521,65.229,77.298,53.295z"/>
<path fill-rule="evenodd" clip-rule="evenodd" fill="#eef9fc" class="fill" d="M147.245,59.933c1.507-0.396,2.793-0.767,4.096-1.068
	c1.752-0.405,2.931,0.239,3.62,1.891c0.32,0.768,0.546,1.617,1.039,2.258c0.497,0.646,1.198,1.247,1.94,1.563
	c1.022,0.437,1.785,0.906,2.024,2.091c0.119,0.589,0.586,1.099,0.837,1.67c0.969,2.206,1.919,4.42,2.859,6.638
	c0.106,0.251,0.109,0.547,0.154,0.823c0.556,3.4,1.4,4.056,4.961,3.796c1.562-1.652,2.206-3.742,1.629-5.885
	c-0.993-3.694-1.075-7.218,0.845-10.641c0.041,0.049,0.2,0.165,0.255,0.318c1.355,3.734,2.879,7.419,4,11.224
	c1.332,4.521,2.556,9.103,3.367,13.739c0.557,3.185,0.495,6.511,0.41,9.766c-0.099,3.81-0.267,7.652-0.873,11.405
	c-0.683,4.223-1.708,8.414-2.909,12.524c-1.807,6.184-4.577,11.94-8.522,17.088c-2.539,3.313-4.994,6.692-7.566,9.979
	c-2.439,3.118-5.308,5.814-8.394,8.297c-4.165,3.349-8.367,6.631-13.129,9.113c-0.494,0.258-0.995,0.504-1.5,0.737
	c-0.086,0.04-0.215-0.013-0.531-0.042c1.342-1.961,2.75-3.738,3.849-5.689c2.006-3.564,3.864-7.213,5.718-10.86
	c2.479-4.878,4.016-10.111,5.462-15.352c0.779-2.825,1.21-5.757,1.643-8.664c0.778-5.229,1.748-10.457,2.069-15.719
	c0.391-6.393,0.443-12.825-0.508-19.214c-0.866-5.817-1.609-11.655-3.224-17.328c-0.706-2.479-1.517-4.93-2.312-7.383
	c-0.394-1.218-0.762-2.347-0.152-3.677C148.988,62.055,148.738,60.765,147.245,59.933z"/>
<path fill-rule="evenodd" clip-rule="evenodd" fill="#eef9fc" class="fill" d="M130.815,169.438c-0.207-0.094-0.661-0.202-0.987-0.467
	c-2.257-1.829-4.693-1.307-7.153-0.606c-2.167,0.617-4.334,1.235-6.765,1.928c2.28-11.358,2.762-22.743,3.822-34.137
	c1.01-0.938,2.035-1.938,3.11-2.88c1.813-1.59,2.109-3.525,1.5-5.755c-0.98-3.596,0.128-5.983,3.624-7.315
	c2.197-0.837,3.29-2.5,3.907-4.506c0.86-2.795,0.785-5.626-0.127-8.457c-0.755-2.344-0.66-4.843,0.363-6.997
	c0.829-1.747,2.381-3.164,3.677-4.671c1.083-1.26,2.482-2.301,3.348-3.685c1.589-2.542,3.119-5.169,3.664-8.193
	c0.315-1.747,0.519-3.514,0.787-5.371c-2.671-1.675-5.015-0.443-7.471,0.537c-0.66-0.562-1.307-1.113-1.953-1.664
	c0.057-0.104,0.114-0.209,0.171-0.314c4.036-0.206,6.652-2.696,8.989-5.57c1.096-1.348,2.035-2.823,3.058-4.23
	c0.152-0.21,0.38-0.365,0.801-0.76c0.884,2.781,1.886,5.337,2.497,7.983c1.151,4.987,2.261,9.998,3.049,15.051
	c0.94,6.031,1.407,12.135,0.94,18.245c-0.4,5.234-0.797,10.485-1.596,15.667c-0.857,5.556-1.875,11.09-3.553,16.504
	c-1.715,5.535-4.07,10.78-6.64,15.917c-1.736,3.469-4.1,6.624-6.183,9.919c-0.213,0.336-0.436,0.666-0.644,1.005
	C134.118,168.141,132.936,169.313,130.815,169.438z M132.996,129.152c1.895,2.154,4.145,2.085,5.646,0.098
	c0.311-0.411,0.66-0.791,0.975-1.198c1.461-1.887,3.059-3.687,4.343-5.688c2.023-3.154,1.722-6.548,0.484-9.917
	c-0.327-0.889-0.669-1.776-1.875-1.882c-1.551-0.135-2.627,0.584-3.452,2.27c-0.273,0.559-0.749,1.147-1.286,1.428
	c-2.221,1.163-3.423,3.201-3.278,5.76c0.104,1.825,0.109,3.572-0.819,5.325C133.125,126.501,133.194,128.013,132.996,129.152z"/>
<path fill-rule="evenodd" clip-rule="evenodd" fill="#eef9fc" class="fill" d="M75.476,20.147c-3.639,2.612-7.521,5.062-10.989,8
	c-2.527,2.141-4.642,4.821-6.707,7.445c-4.597,5.84-7.814,12.444-10.065,19.499c-1.819,5.703-3.62,11.423-5.093,17.221
	c-1.2,4.72-2.277,9.499-2.362,14.433c-0.064,3.746-0.502,7.494-0.397,11.23c0.118,4.208,0.564,8.415,1.051,12.601
	c0.351,3.021,0.805,6.059,1.56,9c1.689,6.585,3.679,13.092,6.773,19.183c2.124,4.18,4.195,8.408,6.654,12.39
	c3.172,5.138,7.289,9.572,11.753,13.615c2.734,2.476,5.815,4.569,8.733,6.844c0.635,0.495,1.238,1.029,1.855,1.545
	c-0.059,0.104-0.118,0.208-0.177,0.312c-0.946-0.185-1.939-0.243-2.83-0.575c-4.313-1.609-8.674-3.124-12.866-5.011
	c-2.736-1.231-5.244-2.992-7.793-4.61c-2.508-1.592-5.056-3.16-7.371-5.008c-2.083-1.662-4.371-3.334-5.221-6.033
	c-0.954-3.026-1.64-6.136-2.453-9.207c-0.273-1.034-0.502-2.089-0.885-3.083c-0.741-1.923-0.639-3.806,0.097-5.678
	c0.745-1.896,0.675-3.808,0.292-5.759c-0.42-2.139-0.816-4.285-1.146-6.439c-0.087-0.566-0.084-1.301,0.207-1.742
	c1.228-1.86,0.681-3.875,0.602-5.821c-0.047-1.173-0.446-2.34-0.747-3.494c-0.829-3.177-2.838-5.267-5.927-6.345
	c-0.335-0.117-0.665-0.279-0.964-0.471c-1.545-0.992-3.081-2-5.007-3.256c-0.906-3.437-1.221-7.837-5.976-9.671
	c0.175-1.718,0.225-3.349,0.527-4.932c0.641-3.354,1.274-6.719,2.163-10.011c1.695-6.284,3.923-12.391,7.42-17.917
	c1.997-3.157,4.264-6.151,6.538-9.121c1.342-1.753,2.924-3.323,4.416-4.96c1.228-1.348,2.406-2.755,3.742-3.988
	c2.092-1.932,4.314-3.723,6.453-5.606c1.427-1.256,2.889-2.489,4.187-3.873c2.185-2.331,4.898-3.886,7.552-5.564
	c3.719-2.353,7.843-3.703,11.963-5.083C75.216,20.146,75.419,20.154,75.476,20.147z"/>
<path fill-rule="evenodd" clip-rule="evenodd" fill="#eef9fc" class="fill" d="M74.724,92.816c0.785-0.529,1.59-0.961,2.261-1.547
	c1.423-1.246,3.064-1.214,4.747-0.93c1.524,0.258,3.033,0.611,4.662,0.945c1.6,1.595,2.045,3.614,1.5,5.855
	c-0.625,2.571,0.048,4.569,2.296,5.912c3.132,1.871,4.111,4.852,4.62,8.198c0.317,2.085,0.08,4.002-0.766,5.926
	c-0.299,0.681-0.283,1.556-0.221,2.328c0.22,2.733,0.993,5.255,2.597,7.567c1.445,2.083,2.608,4.361,3.878,6.563
	c0.455,0.789,0.94,1.576,1.261,2.42c0.387,1.018,0.82,2.087,0.874,3.151c0.166,3.303,2.215,4.773,5.482,4.493
	c4.085-0.349,6.604-3.033,9.409-5.4c0.213-0.18,0.418-0.369,0.63-0.551c0.029-0.025,0.072-0.035,0.108-0.052
	c0.856,2.221-2.245,30.721-3.756,33.367c-2.344,0-4.847-0.054-7.346,0.013c-3.467,0.093-6.932-0.946-10.415,0.233
	c-1.87,0.633-3.578-0.417-4.517-2.284c-3.928-7.812-6.722-16.029-8.872-24.487c-1.33-5.231-2.873-10.41-4.135-15.657
	c-0.926-3.854-1.59-7.773-2.297-11.676c-0.479-2.651-0.908-5.317-1.218-7.992c-0.344-2.965-0.609-5.944-0.755-8.924
	C74.626,97.784,74.724,95.27,74.724,92.816z"/>
<path fill-rule="evenodd" clip-rule="evenodd" fill="#eef9fc" class="fill" d="M132.446,55.64c1.125,1.56,2.267,3.275,3.542,4.884
	c2.253,2.841,5.046,3.379,8.613,1.523c-0.088,0.895-0.061,1.605-0.24,2.259c-0.809,2.937-3.146,4.699-5.227,6.653
	c-1.056,0.991-2.116,1.978-3.354,3.134c-0.36-0.941-0.706-1.647-0.9-2.393c-0.557-2.142-2.119-3.646-3.446-5.238
	c-2.391-2.868-4.986-5.569-7.56-8.279c-0.555-0.584-1.373-0.924-2.085-1.35c-1.288-0.769-2.694-3.956-2.443-5.399
	c0.399-2.303,0.388-4.575-1.479-6.313c-0.525-0.489-1.361-0.796-2.09-0.881c-1.462-0.17-2.948-0.13-4.424-0.176
	c-1.529-4.666-2.862-9.106-4.445-13.456c-1.574-4.326-3.546-8.485-6.407-12.107c0.938-0.3,1.7-0.544,2.462-0.788
	c-0.019-0.112-0.038-0.225-0.058-0.337c2.025,0.122,4.071,0.111,6.066,0.424c0.948,0.149,1.871,0.818,2.68,1.42
	c3.543,2.637,7.152,5.205,10.518,8.057c2.424,2.054,4.448,4.571,6.746,6.782c2.903,2.793,4.537,6.429,6.644,9.744
	c2.088,3.286,3.996,6.685,5.976,10.039c0.133,0.225,0.204,0.487,0.399,0.968c-1.521-0.925-2.814-1.733-4.128-2.506
	C135.251,50.802,132.479,52.379,132.446,55.64z"/>
<path fill-rule="evenodd" clip-rule="evenodd" fill="#eef9fc" class="fill" d="M112.845,18.236c2.355,0.183,4.346,0.233,6.3,0.527
	c1.254,0.188,2.463,0.708,3.675,1.13c2.495,0.867,4.996,1.72,7.459,2.67c2.621,1.01,5.357,1.859,7.75,3.273
	c2.087,1.232,4.309,2.384,5.805,4.597c0.933,1.382,2.634,2.271,4.054,3.292c5.339,3.843,10.089,8.256,14.132,13.489
	c2.81,3.638,4.916,7.679,7.351,11.53c0.144,0.229,0.205,0.51,0.287,0.723c-0.819,1.141-1.585,2.244-2.389,3.319
	c-0.998,1.335-0.775,2.893-0.657,4.344c0.212,2.608,0.689,5.193,0.994,7.794c0.065,0.553-0.133,1.138-0.21,1.708
	c-0.106,0.017-0.211,0.033-0.317,0.05c-0.264-0.538-0.609-1.051-0.777-1.618c-0.561-1.887-0.833-3.896-1.639-5.665
	c-0.988-2.169-1.557-4.702-4.173-5.85c-0.675-0.296-1.209-1.396-1.403-2.221c-0.71-3.032-4.275-5.141-6.87-5.552
	c-0.754-0.12-1.569,0.184-2.36,0.251c-1.871,0.159-3.743,0.293-5.566,0.434c-0.793-1.541-1.364-2.814-2.074-4.003
	c-3.345-5.598-6.569-11.279-10.167-16.71c-1.695-2.56-4.163-4.602-6.229-6.924c-3.484-3.914-7.939-6.613-12.045-9.752
	C113.537,18.892,113.327,18.672,112.845,18.236z"/>
<path fill-rule="evenodd" clip-rule="evenodd" fill="#F13836" d="M114.021,54.93c0.928,0.044,1.707,0.081,2.695,0.127
	c0.287,1.437,0.472,2.841,0.866,4.184c0.306,1.046,0.644,2.241,1.368,2.972c1.581,1.595,2.762,3.38,3.481,5.467
	c0.688,1.997,2.353,3.168,3.678,4.63c2.292,2.527,4.627,5.015,6.893,7.564c1.165,1.311,2.781,1.7,4.384,0.993
	c0.633-0.279,1.346-0.376,2.022-0.556c0.131,0.086,0.262,0.172,0.393,0.258c-0.433,1.482-0.696,3.041-1.331,4.431
	c-1.543,3.377-3.442,6.538-6.048,9.256c-1.259,1.313-2.51,2.75-3.303,4.358c-0.673,1.362-0.923,3.05-0.933,4.596
	c-0.018,2.844,0.29,5.689,0.435,8.536c0.042,0.831,0.04,1.669-0.025,2.498c-0.114,1.437-0.824,2.476-2.045,3.304
	c-1.536,1.043-3.09,2.133-4.358,3.467c-0.65,0.683-0.733,1.932-1.004,2.943c-0.494,1.841-0.383,3.668,0.12,5.51
	c0.345,1.263-0.091,2.334-1.42,3.244c0-1.588-0.001-3.013,0-4.438c0.007-5.512,0.052-11.024,0.011-16.536
	c-0.024-3.148-0.12-6.301-0.303-9.444c-0.34-5.797-0.598-11.607-1.204-17.379c-0.754-7.182-1.783-14.337-2.783-21.491
	C115.221,60.65,114.586,57.909,114.021,54.93z"/>
<path fill-rule="evenodd" clip-rule="evenodd" fill="#F13836" d="M75.846,53.312c-0.815,12.111-1.628,24.205-2.457,36.521
	c-1.153,0.651-2.577-0.168-3.961-0.051c-1.376,0.116-2.742,0.36-3.862,0.514c-1.845-1.509-3.631-2.771-5.177-4.278
	c-2.627-2.561-4.545-5.81-4.179-9.42c0.357-3.523,1.567-7.075,3.045-10.321c0.744-1.634,2.815-2.767,4.464-3.858
	c1.934-1.281,3.147-3.063,4.361-4.938c0.927-1.432,1.994-2.794,3.154-4.043c0.412-0.443,1.285-0.642,1.941-0.629
	C74.103,52.826,75.024,53.144,75.846,53.312z"/>
<path fill-rule="evenodd" clip-rule="evenodd" fill="#eef9fc" class="fill" d="M37.67,148.304c-12.915-15.619-18.258-33.747-17.977-53.951
	c1.332,0.314,2.05,0.95,2.349,2.021c0.415,1.485,0.834,2.972,1.182,4.473c0.371,1.602,1.572,2.355,2.881,3.051
	c0.859,0.456,1.679,0.985,2.527,1.461c1.024,0.574,2.017,1.237,3.101,1.667c2.875,1.14,3.497,3.631,4.013,6.261
	c0.299,1.523-0.258,2.67-0.994,3.974c-0.563,0.997-0.604,2.441-0.48,3.646c0.385,3.747,0.964,7.475,1.453,11.212
	c0.041,0.309,0.065,0.69-0.075,0.942c-1.603,2.879-0.625,5.695,0.206,8.494c0.661,2.23,1.431,4.428,2.153,6.64
	C37.896,148.231,37.783,148.268,37.67,148.304z"/>
<path fill-rule="evenodd" clip-rule="evenodd" fill="#eef9fc" class="fill" d="M93.996,44.519c-2.222-1.313-4.444-2.626-6.544-3.868
	c-1.37,0.237-2.61,0.438-3.844,0.67c-1.239,0.234-2.471,0.501-3.947,0.803c0.515-2.063,0.76-4.194,1.622-6.038
	c0.475-1.016,1.962-1.585,3.04-2.283c0.657-0.425,1.583-0.546,2.077-1.087c1.749-1.919,3.889-2.181,6.116-1.425
	c2.204,0.748,3.959-0.238,5.805-1.006c0.304-0.126,0.487-0.592,0.679-0.927c0.742-1.295,1.465-2.601,2.403-4.274
	c0.068-1.129-0.812-2.228-3.124-2.847c-3.736-1-3.816,2.165-4.673,4.688c-1.588-0.492-3.037-0.941-4.486-1.391
	c-0.045-0.142-0.089-0.284-0.134-0.426c1.449-0.969,2.791-2.21,4.375-2.837c1.823-0.722,3.442-1.586,4.775-3.002
	c0.133-0.142,0.282-0.272,0.44-0.384c0.095-0.066,0.222-0.086,0.335-0.126c3.408,3.215,11.664,23.146,10.39,25.606
	c-0.618-1.829-1.198-3.584-3.766-3.695c-0.776,0.962-1.73,2.142-2.832,3.506c-1.087-0.209-2.644-0.275-3.205-1.639
	c-0.909-2.209-2.529-3.371-4.586-4.339c-2.435-1.146-3.522-0.98-5.294,1.556c1.572,1.38,3.179,2.79,4.785,4.199
	C94.269,44.142,94.132,44.331,93.996,44.519z"/>
<path fill-rule="evenodd" clip-rule="evenodd" fill="#eef9fc" class="fill" d="M89.324,48.39c-1.877-1.412-3.87-0.917-5.787-0.455
	c-1.839,0.443-3.621,1.124-5.428,1.699c-0.413-1.425,0.442-4.164,1.801-4.918c1.133-0.629,2.472-0.893,3.728-1.29
	c0.258-0.082,0.584,0.038,0.83-0.06c2.124-0.84,3.836,0.139,5.549,1.195c1.729,1.066,3.6,1.698,5.756,1.809
	c0.393-0.457,0.793-0.922,1.218-1.416c-0.964-2.245-3.005-3.438-4.589-5.006c0.09-0.086,0.179-0.173,0.269-0.26
	c0.871,0.342,1.807,0.578,2.59,1.062c0.588,0.363,1.184,0.97,1.42,1.601c1.014,2.717,3.961,4.674,6.809,4.177
	c0.558-0.097,1.041-0.926,1.447-1.498c0.342-0.481,0.521-1.077,1.004-1.707c0.266,3.019,1.98,3.99,4.843,3.653
	c0.458,1.654,0.905,3.271,1.396,5.042c-2.561,0-4.934,0-7.24,0c-1.085-0.354-2.306-1.183-3.264-0.947
	c-1.007,0.248-1.762,1.516-2.898,2.595c-2.653-0.945-5.597-1.994-8.75-3.117C89.847,50,89.594,49.222,89.324,48.39z"/>
<path fill-rule="evenodd" clip-rule="evenodd" fill="#eef9fc" class="fill" d="M82.962,30.979c1.015-2.208,1.804-4.113,2.75-5.936
	c1.188-2.291,2.504-4.516,3.77-6.766c0.472-0.839,1.118-0.96,2.086-0.822c1.348,0.192,2.744,0.048,4.392,0.048
	c-1.08,1.434-2.226,2.338-3.788,2.708c-2.823,0.669-4.977,2.15-6.16,5.266c0.827,0.568,1.585,1.272,2.48,1.661
	c1.412,0.614,2.899,1.072,4.385,1.49c1.224,0.344,2.233-0.216,2.808-1.372c0.37-0.744,0.731-1.494,1.133-2.221
	c0.307-0.553,0.689-0.938,1.167-0.216c-0.759,1.355-1.464,2.672-2.228,3.955c-0.48,0.807-2.03,1.118-3.412,0.688
	c-2.361-0.735-4.614-0.448-6.828,0.563C84.811,30.349,84.059,30.574,82.962,30.979z"/>
<path fill-rule="evenodd" clip-rule="evenodd" fill="#eef9fc" class="fill" d="M68.987,47.375c1.14-1.717,2.064-3.382,3.278-4.798
	c0.461-0.539,1.6-0.735,2.41-0.696c3.025,0.146,4.203-1.093,3.651-4.054c-0.021-0.115-0.002-0.237-0.002-0.446
	c0.361-0.258,0.766-0.546,1.506-1.075c-0.34,1.655-0.611,2.979-0.883,4.302c-0.495,2.412-1.338,4.678-3.325,6.252
	C73.695,48.387,71.523,48.256,68.987,47.375z"/>
<path fill-rule="evenodd" clip-rule="evenodd" fill="#eef9fc" class="fill" d="M97.167,176.438c-0.776-1.107-1.337-1.907-2.068-2.949
	c6.399,0.141,12.529,0.275,18.836,0.415c-0.092,0.44-0.178,0.855-0.291,1.399C108.037,175.688,102.535,176.068,97.167,176.438z"/>
<path fill-rule="evenodd" clip-rule="evenodd" fill="#eef9fc" class="fill" d="M120.127,58.34c1.202,1.108,2.475,2.15,3.591,3.339
	c1.842,1.963,3.69,3.938,5.333,6.064c1.324,1.714,2.36,3.653,3.495,5.51c0.172,0.283,0.183,0.664,0.32,1.197
	c-2.279-1.106-4.008-2.536-5.269-4.508c-1.705-2.666-3.375-5.354-5.099-8.008c-0.295-0.454-0.803-0.765-1.176-1.175
	c-0.577-0.635-1.122-1.298-1.68-1.95C119.802,58.653,119.964,58.497,120.127,58.34z"/>
<path fill-rule="evenodd" clip-rule="evenodd" fill="#eef9fc" class="fill" d="M112.238,47.247c1.026-0.073,1.923-0.119,2.817-0.206
	c1.555-0.152,2.139,0.399,1.968,1.976c-0.097,0.893-0.287,1.776-0.46,2.811c-1.068,0.133-2.023,0.252-3.047,0.379
	C113.064,50.453,112.653,48.856,112.238,47.247z"/>
<path fill-rule="evenodd" clip-rule="evenodd" fill="#eef9fc" class="fill" d="M144.211,59.275c-1.41,0.413-2.529,0.74-3.59,1.05
	c-2.45-0.774-3.346-3.007-5.066-4.877c0.998,0,1.869-0.26,2.434,0.046C140.048,56.608,142.005,57.912,144.211,59.275z"/>
<path fill-rule="evenodd" clip-rule="evenodd" fill="#eef9fc" class="fill" d="M127.093,171.329c-4.126,1.229-7.998,2.381-11.903,3.544
	c-0.091-0.355-0.15-0.468-0.143-0.577c0.016-0.234,0.067-0.466,0.112-0.754c0.673-0.229,1.34-0.463,2.011-0.685
	c2.35-0.778,4.704-1.544,7.051-2.331C125.298,170.166,126.133,170.305,127.093,171.329z"/>
<path fill-rule="evenodd" clip-rule="evenodd" fill="#eef9fc" class="fill" d="M95.535,176.308c-2.875-0.298-5.469-0.567-8.297-0.86
	c1.395-1.593,2.899-2.189,4.761-2.195C93.973,173.248,94.478,174.785,95.535,176.308z"/>
<path fill-rule="evenodd" clip-rule="evenodd" fill="#eef9fc" class="fill" d="M76.55,49.224c-0.043,0.387-0.071,0.641-0.124,1.112
	c-1.033-0.104-2.006-0.203-2.979-0.302c0.004-0.083,0.009-0.167,0.014-0.25C74.434,49.608,75.406,49.432,76.55,49.224z"/>
<path fill-rule="evenodd" clip-rule="evenodd" fill="#F13836" d="M142.514,113.204c0.907,1.514,0.902,2.777,0.403,4.388
	c-1.187,3.826-3.921,6.584-6.067,9.75c-0.194,0.286-0.571,0.447-0.864,0.666c-0.111-0.067-0.223-0.135-0.334-0.203
	c0.3-0.96,0.686-1.903,0.879-2.884c0.239-1.212,0.553-2.483,0.417-3.681c-0.251-2.211,0.28-3.455,2.291-4.356
	c1.385-0.62,2.784-1.239,2.889-3.08C142.137,113.64,142.325,113.487,142.514,113.204z"/>
</svg>
