<svg version="1.1" id="svg" xmlns="http://www.w3.org/2000/svg" xmlns:xlink="http://www.w3.org/1999/xlink" x="0px" y="0px"
	 width="300px" height="200px" viewBox="0 0 300 200" enable-background="new 0 0 300 200" xml:space="preserve">
<path class="stroke" fill="#a70c1e"  d="M276.871,149.949c-0.08-1.412-0.369-2.725-1.33-3.857c-0.932-0.365-1.869-0.734-2.811-1.105
	c0.025-0.436,0.02-0.709,0.057-0.977c0.539-3.814,1.031-7.611,0.996-11.496c-0.035-4.182-0.955-8.07-2.748-11.781
	c-1.086-2.25-2.814-3.877-5.076-4.986c-2.674-1.312-5.432-2.33-8.398-2.729c-4.238-0.572-8.467-1.203-12.715-1.693
	c-2.182-0.252-4.395-0.256-6.605-0.373c-0.967-1.592-1.85-2.979-2.662-4.402c-3.615-6.32-7.846-12.189-12.824-17.505
	c-0.693-0.74-1.541-1.372-2.406-1.908c-3.682-2.276-7.85-3.333-11.936-4.55c-1.695-0.504-3.52-0.559-5.27-0.903
	c-1.398-0.275-2.773-0.679-4.281-1.059c0.27-2.275,0.387-4.345,0.773-6.362c1.203-6.232,2.441-12.462,3.816-18.658
	c0.42-1.887,0.387-3.404-1.381-4.504c0.781-2.544,1.277-5.016,1.109-7.607c-0.141-2.071-1.16-3.333-3.074-3.943
	c-0.656-0.21-1.33-0.408-2.012-0.491c-2.125-0.262-4.252-0.587-6.389-0.666c-3.717-0.138-6.768,0.545-8.85,5.353
	c-0.541,1.25-0.916,2.574-1.357,3.84c-3.363,0.565-4.357,3.348-5.686,5.841c-2.732,0.053-5.422,0.24-8.102,0.133
	c-8.201-0.329-16.406-0.719-24.602-1.193c-3.857-0.223-7.695-0.782-11.553-1.019c-3.027-0.185-6.076-0.02-9.107-0.171
	c-3.654-0.183-7.293-0.667-10.947-0.785c-6.348-0.203-12.703-0.259-19.055-0.311c-5.18-0.043-10.359,0.001-15.539,0.028
	c-1.242,0.005-2.529,0.328-3.711,0.091c-1.881-0.374-3.664-0.099-5.521,0.014c-3.617,0.218-6.441,1.839-9.084,4.057
	c-1.432,1.201-2.75,2.441-3.648,4.166c-1.324,2.541-2.102,5.256-2.82,7.975c-0.902,3.401-1.531,6.874-2.246,10.322
	c-0.742,3.583-1.459,7.173-2.166,10.765c-1.596,8.129-3.18,16.261-4.771,24.394c-0.637,3.25-1.453,6.477-1.891,9.752
	c-0.732,5.48-1.213,10.99-1.83,16.484c-0.246,2.188-0.568,4.367-0.861,6.561c-2.074,1.271-3.957,2.674-6.361,3.092
	c-0.943,0.162-1.855,0.531-2.777,0.824c-1.193,0.373-2.08,1.178-2.553,2.283c-0.623,1.453-1.201,2.951-1.545,4.488
	c-0.789,3.508-0.49,5.482,4.418,5.557c2.07,0.029,4.195-0.277,6.199,0.102c2.039,0.381,3.971,0.121,5.951-0.027
	c0.68-0.055,1.361-0.066,1.996-0.098c2.488,2.824,5.037,0.9,7.725,0.02c-0.141,0.689-0.176,1.098-0.305,1.471
	c-1.078,3.123-1.369,6.348-1.135,9.609c0.076,1.061,0.459,2.135,0.875,3.131c1.578,3.762,4.666,6.043,8.285,7.379
	c3.699,1.367,7.488,0.828,11.033-0.953c7.395-3.711,12.574-9.543,16.139-16.916c0.316-0.658,0.662-1.301,1.092-2.146
	c1.938,1.875,4.248,2.035,6.355,2.502c2.59-0.389,3.301-2.621,4.311-4.062c2.014,0.107,3.791,0.246,5.572,0.287
	c5.311,0.119,10.629,0.098,15.936,0.322c5.938,0.252,11.873,0.613,17.795,1.111c5.721,0.479,11.43,0.92,17.176,0.689
	c2.129-0.086,4.262-0.098,6.391-0.061c3.164,0.057,6.283,0.793,9.49,0.496c2.393-0.221,4.824-0.021,7.236-0.102
	c2.201-0.072,3.838-1.023,4.475-3.291c0.051-0.178,0.242-0.312,0.461-0.578c1.795-0.021,3.652-0.082,5.51-0.049
	c2.418,0.045,4.832,0.184,7.25,0.246c2.205,0.055,4.412,0.01,6.613,0.102c1.852,0.078,3.705,0.156,5.387,1.178
	c0.551,0.338,1.326,0.35,2.008,0.412c1.078,0.104,2.164,0.127,3.359,0.191c-0.213,0.836-0.416,1.633-0.611,2.432
	c-0.867,3.512-1.451,7.008-0.549,10.643c1.244,5.002,4.109,6.557,8.145,6.988c3.396,0.363,6.932,0.211,10.092-1.58
	c1.074-0.607,2.113-1.279,3.193-1.879c3.264-1.82,5.885-4.344,7.967-7.406c1.822-2.68,3.5-5.459,5.254-8.182
	c0.17-0.262,0.447-0.453,0.725-0.725c0.426,0.527,0.758,0.939,1.127,1.396c1.387,0.076,2.752,0.146,4.16,0.219
	c0.752-0.711,1.5-1.416,2.129-2.008c3.873,0.205,7.6,0.295,11.305,0.633c2.459,0.227,4.789-0.145,7.154-0.686
	c1.396-0.32,2.291-1.215,2.584-2.408C276.148,156.258,277.053,153.188,276.871,149.949z"/>
<path class="stroke" fill="#a70c1e"  d="M206.422,29.814c1.133-2.033,2.24-4.007,3.334-5.987c1.363-2.468,2.709-4.945,4.074-7.413
	c0.461-0.836,0.641-1.662-0.105-2.69c-1.084-0.229-2.324-0.489-3.604-0.759c-2.902,5.195-5.672,10.154-8.477,15.174
	C203.195,29.264,204.646,29.896,206.422,29.814z"/>
<path class="stroke" fill="#a70c1e"  d="M192.453,27.339c0.418-0.436,0.838-0.876,1.381-1.443c-1.018-4.887-3.18-9.444-4.428-14.189
	c-2.098-0.629-3.58,0.113-5.15,1.261c0.418,5.152,3.43,9.381,4.859,13.891C190.305,27.875,191.363,27.743,192.453,27.339z"/>
<path class="stroke" fill="#a70c1e"  d="M176.254,33.021c-1.748-4.8-5.172-11.148-6.82-12.526c-1.09,0.538-2.24,1.102-3.584,1.762
	c1.332,5.195,3.736,9.458,6.848,13.231C175.174,35.763,175.725,35.359,176.254,33.021z"/>
<path class="stroke" fill="#a70c1e"  d="M208.494,37.525c0.795,0.561,1.465,1.031,2.113,1.486c5.1-1.784,9.934-3.476,14.678-5.137
	c0.316-2.118-0.99-2.982-2.236-4.16c-5.168,1.291-9.982,3.536-14.816,6.03C208.332,36.427,208.418,37.016,208.494,37.525z"/>
<path class="stroke" fill="#a70c1e"  d="M171.777,45.836c0.246-0.778,0.43-1.364,0.65-2.069c-0.723-1.972-0.951-2.271-2.818-2.094
	c-3.424,0.326-6.834,0.817-10.242,1.291c-0.588,0.082-1.137,0.429-1.746,0.671c-0.162,1.327-0.225,2.529,0.918,3.744
	C162.893,46.872,167.365,46.351,171.777,45.836z"/>
<path class="stroke" fill="#a70c1e"  d="M209.762,51.124c4.273,0.89,8.326,2.496,12.971,2.45c-0.105-1.331-0.197-2.516-0.297-3.804
	c-4.281-1.2-8.148-2.283-12.092-3.388C209.766,47.974,209.426,49.465,209.762,51.124z"/>
<path fill-rule="evenodd" clip-rule="evenodd" fill="#f5f1eb" class="fill" d="M199.004,59.536c-0.156,0.403-0.271,0.702-0.402,1.042
	c-4.703-0.11-9.377-0.993-14.008,0.765c0.475,0.107,0.945,0.282,1.426,0.307c3.035,0.157,6.074,0.267,9.109,0.423
	c0.951,0.049,1.896,0.191,2.795,0.286c0.305,1.484,0.305,1.484-0.568,3.584c-1.791-0.213-3.623-0.49-5.463-0.636
	c-2.686-0.212-5.377-0.346-8.07-0.477c-0.578-0.028-1.287-0.177-1.57,0.832c1.463,0.83,3.154,0.581,4.715,0.873
	c1.625,0.305,3.287,0.425,4.934,0.623c1.629,0.194,3.264,0.382,4.961,0.582c-0.041,0.788-0.07,1.361-0.111,2.124
	c-4.887-0.438-9.633-0.768-14.402-0.166c4.398,1.369,9.027,1.177,13.742,2.07c-0.133,1.073-0.262,2.117-0.418,3.361
	c-4.496-0.193-8.861-0.69-13.338-0.149c1.004,0.879,3.154,1.318,6.287,1.491c2.188,0.12,4.369,0.357,6.791,0.563
	c-0.18,1.366-0.334,2.546-0.516,3.935c-1.436-0.075-2.66-0.178-3.887-0.195c-2.139-0.031-4.279-0.01-6.418-0.009
	c-0.617,0-1.225,0.018-1.65,0.942c3.869,0.412,7.582,0.807,11.465,1.221c-0.312,1.22-0.6,2.327-0.877,3.411
	c-3.34,0.367-6.479-1.102-9.602,0.02c-0.131,0.047-0.174,0.335-0.383,0.776c3.217,0.358,6.305,0.703,9.533,1.062
	c0.094,1.722-0.104,3.286-0.705,4.992c-4.422-0.565-8.693-1.111-12.967-1.658c-0.049,0.147-0.098,0.294-0.148,0.44
	c0.275,0.2,0.521,0.516,0.828,0.582c3.096,0.679,6.199,1.323,9.303,1.963c0.73,0.151,1.469,0.256,2.436,0.421
	c-0.203,1.215-0.383,2.269-0.574,3.397c-1.422-0.074-2.713-0.094-3.994-0.221c-2.129-0.209-4.25-0.508-6.381-0.729
	c-0.662-0.069-1.391-0.089-1.617,1.05c3.785,0.652,7.484,1.291,11.404,1.969c-0.145,0.897-0.27,1.68-0.422,2.629
	c-4.371-0.047-8.518-1.688-12.84-1.088c1.775,1.379,3.971,1.041,5.941,1.566c2.057,0.547,4.15,0.959,6.477,1.488
	c-0.129,0.877-0.252,1.719-0.406,2.775c-4.244-0.107-8.258-1.828-12.797-1.104c1.379,1.295,2.83,1.016,4.086,1.334
	c1.336,0.338,2.699,0.57,4.055,0.828c1.344,0.254,2.691,0.486,4.131,0.74c-0.189,0.84-0.34,1.496-0.482,2.129
	c-1.469-0.078-2.83-0.146-4.193-0.221c-1.863-0.1-3.725-0.248-5.59-0.287c-0.787-0.018-1.578,0.182-2.375,0.508
	c3.727,1.436,7.779,1.008,11.738,2.195c-0.273,1.262-0.529,2.439-0.844,3.893c-1.859-0.242-3.605-0.484-5.354-0.693
	c-1.695-0.205-3.389-0.936-5.137-0.09c3.133,1.422,6.537,1.738,10.025,2.68c-0.229,1.016-0.445,1.975-0.65,2.91
	c-3.738,0.508-7.291-1.363-10.857,0.047c3.291,1.223,6.834,1.09,10.359,2.016c-0.146,1.119-0.281,2.131-0.424,3.223
	c-3.93,0.654-7.717-1.125-11.625-0.484c1.598,1.189,3.484,1.277,5.318,1.562c1.893,0.299,3.779,0.621,5.893,0.967
	c-0.176,0.871-0.33,1.641-0.49,2.416c-4.424,0.307-8.562-1.59-12.844-0.811c-0.043,1.135,0.639,1.088,1.244,1.16
	c3.553,0.42,7.105,0.842,10.656,1.273c0.193,0.021,0.379,0.125,0.762,0.26c-0.125,1.045-0.248,2.102-0.379,3.197
	c-4.072,0.232-7.861-1.344-12.209-0.221c3.992,1.346,7.811,1.1,11.633,1.924c-0.207,1.211-0.387,2.26-0.582,3.404
	c-3.787,0.221-7.438-1.533-11.352-0.068c1.268,1.014,2.541,0.455,3.658,0.701c1.143,0.254,2.305,0.414,3.455,0.627
	c1.213,0.229,2.422,0.475,3.893,0.762c-0.207,1.039-0.4,2.016-0.645,3.242c-4.352-0.229-8.648-0.455-13.217-0.695
	c0.939,0.99,0.941,0.979,4.09,1.381c1.369,0.174,2.725,0.461,4.096,0.6c1.424,0.143,2.863,0.168,4.514,0.254
	c-0.154,1.139-0.268,1.973-0.369,2.717c-3.945,0.025-7.658,0.043-11.367,0.088c-0.131,0.002-0.262,0.252-0.572,0.572
	c3.828,0.879,7.684,0.188,11.543,1.543c-0.352,0.783-0.66,1.475-0.922,2.061c-3.705,0.412-7.256-0.271-10.709,0.338
	c0,0.238,0,0.477,0,0.715c3.156,0.227,6.312,0.455,9.652,0.697c-0.369,1.227-1.055,1.541-1.93,1.541
	c-0.689,0.004-1.377-0.082-2.07-0.111c-4.615-0.184-9.232-0.455-13.85-0.52c-5.863-0.08-11.729,0.115-17.59,0.002
	c-5.449-0.105-10.896-0.441-16.342-0.709c-4.002-0.199-8.002-0.434-12.002-0.697c-2.48-0.164-4.951-0.451-7.43-0.611
	c-1.096-0.072-2.201,0.076-3.301,0.055c-1.289-0.025-2.58-0.125-4.053-0.203c0.064-1.223,0.07-2.242,0.182-3.25
	c0.305-2.771,0.109-5.521-0.375-8.252c-0.947-5.324-3.973-8.969-8.93-11.088c-7.193-3.082-14.627-3.807-22.303-2.428
	c-0.6,0.105-1.23,0.053-1.846,0.047c-2.277-0.025-4.557-0.08-6.834-0.07c-0.48,0.002-0.959,0.236-1.391,0.729
	c1.582,0.164,3.166,0.332,5.07,0.531c-1.08,1.057-2.055,1.176-3.072,1.211c-1.928,0.066-3.857,0.137-5.785,0.238
	c-0.654,0.035-1.307,0.174-1.957,0.262c0.002,0.143,0.004,0.283,0.006,0.424c1.77,0.143,3.539,0.283,5.309,0.428
	c0.055,0.158,0.109,0.314,0.158,0.475c-0.596,0.475-1.193,0.949-1.74,1.385c-3.07-0.021-6.01,0.1-9.012,0.777
	c0.787,0.732,0.785,0.693,3.205,0.578c1.078-0.051,2.17,0.098,3.807,0.182c-1.023,0.85-1.67,1.389-2.248,1.869
	c-3.439,0.045-6.725,0.086-10.244,0.131c0.332-2.609,0.584-4.93,0.932-7.236c0.646-4.299,1.268-8.602,2.041-12.879
	c1.152-6.375,1.359-12.898,3.045-19.188c0.873-3.257,1.885-6.481,2.639-9.763c0.99-4.303,1.705-8.668,2.689-12.972
	c0.766-3.344,1.18-6.771,2.6-9.972c0.975-2.195,1.484-4.59,2.352-6.836c1.637-4.226,4.594-7.073,9.182-7.733
	c3.062-0.44,6.18-0.547,9.273-0.725c2.615-0.15,5.246-0.06,7.844-0.319c1.816-0.181,3.566,0.095,5.346,0.189
	c7.797,0.413,15.59,0.827,23.387,1.177c2.199,0.099,4.41-0.106,6.611-0.011c5.172,0.227,10.338,0.55,15.51,0.838
	c3.033,0.168,6.064,0.357,9.096,0.514c5.031,0.257,10.066,0.487,15.1,0.747c8.625,0.445,17.25,0.867,25.869,1.375
	c4.191,0.248,8.373,0.664,12.559,1.021C198.127,59.25,198.512,59.408,199.004,59.536z M98.83,88.909
	c1.227-5.403,2.893-10.592,3.389-16.216c-0.75-0.196-1.381-0.471-2.027-0.512c-5.502-0.347-11.004-0.652-16.705-0.98
	c-2.076,5.383-3.051,11.253-4.99,16.924c-5.113-0.269-10.045-0.529-14.912-0.785c-1.111,2.418-3.82,14.833-3.58,16.573
	c2.221,0.447,4.553,0.582,6.854,0.924c2.281,0.34,4.656-0.139,7.164,0.715c-1.045,5.479-2.061,10.807-3.127,16.402
	c1.947,0.805,4.117,0.547,6.186,0.727c4.6,0.4,9.217,0.646,13.83-0.773c0.924-3.307,1.826-6.553,2.738-9.797
	c0.463-1.635,0.646-3.4,2.258-4.84c4.434,0.232,9.037,0.475,13.719,0.721c0.361-0.885,0.682-1.559,0.91-2.266
	c0.213-0.652,0.299-1.344,0.484-2.006c0.982-3.523,1.996-7.04,2.965-10.567c0.248-0.907,0.621-1.845-0.061-3.048
	C109.104,89.722,104.166,89.331,98.83,88.909z M135.051,84.166c-2.406,0.23-4.672-0.473-7.164,0.703
	c2.449,0.709,4.824-0.224,6.77,1.397c-0.209,0.525-0.404,1.01-0.533,1.334c-1.746,0.809-3.697-0.46-5.113,1.275
	c1.516,0.181,3.031,0.362,4.736,0.565c-0.119,0.909-0.201,1.553-0.297,2.277c-1.211-0.064-2.242-0.202-3.262-0.147
	c-0.988,0.052-2.135-0.274-3.102,0.899c2.105,0.325,3.979,0.613,5.967,0.921c-0.102,0.567-0.18,1.008-0.268,1.495
	c-2.307,0.356-4.668-0.173-6.777,1.229c2.074,0.167,4.148,0.333,6.424,0.515c-0.16,1.095-0.285,1.943-0.414,2.835
	c-1.439,0.002-2.678-0.001-3.914,0.008c-1.154,0.007-2.363-0.184-3.613,0.849c2.521,0.626,4.891,0.306,7.244,0.985
	c-0.232,0.738-0.389,1.232-0.537,1.703c-2.484,0.336-4.953-0.608-7.709,0.672c2.754,0.715,5.236,0.289,7.629,1.336
	c-0.281,0.551-0.506,0.998-0.709,1.396c-2.277,0.221-4.432-0.895-6.791,0.121c1.15,0.881,2.279,0.697,3.32,0.881
	c1.123,0.199,2.234,0.467,3.512,0.738c-0.287,0.807-0.484,1.357-0.711,1.998c-1.287-0.068-2.455-0.186-3.621-0.174
	c-1.146,0.01-2.422-0.297-3.488,0.988c2.355,0.381,4.6-0.062,6.756,0.814c-0.174,0.713-0.316,1.293-0.453,1.844
	c-1.832,0.379-3.656-0.453-5.621,0.566c1.707,1.223,3.744,0.4,5.305,1.465c-0.172,0.643-0.324,1.209-0.471,1.76
	c-1.523,0.049-2.904,0.006-4.264,0.158c-1.248,0.139-2.658-0.916-3.951,0.596c2.643,0.688,5.35,0.053,7.832,1.197
	c-0.188,0.527-0.344,0.961-0.5,1.4c-2.271,0.238-4.559-0.312-7.104,0.727c2.357,1.172,4.654,0.254,6.75,1.301
	c-0.092,0.705-0.186,1.414-0.279,2.109c-2.053,0.277-4.014-0.453-6.121,0.824c1.982,0.852,3.939,0.141,5.717,1.148
	c-0.221,0.932-0.451,1.893-0.703,2.955c-1.047,0.002-1.938-0.035-2.822,0.016c-0.877,0.049-1.885-0.232-2.74,0.943
	c1.857,0.301,3.455,0.561,5.203,0.84c-0.168,0.857-0.309,1.576-0.473,2.402c-1.234-0.008-2.332-0.068-3.424-0.006
	c-1.062,0.061-2.277-0.303-3.35,1.066c2.291,0.223,4.287,0.416,6.492,0.629c-0.215,0.74-0.354,1.221-0.484,1.672
	c-1.969,0.244-3.824-0.246-5.773,0.305c0.6,1.322,1.711,0.914,2.545,1.092c0.922,0.199,1.869,0.264,3.025,0.414
	c-0.186,0.854-0.324,1.475-0.434,1.979c-1.803,0.529-3.635-0.213-5.166,1.074c0.834,0.805,1.672,0.334,2.447,0.377
	c0.783,0.045,1.561,0.201,2.494,0.332c-0.178,1.049-0.309,1.83-0.43,2.559c-2.154,0.512-4.289-0.057-6.32,1.094
	c1.895,1.203,3.996-0.172,5.83,0.959c-0.197,0.668-0.381,1.293-0.529,1.801c-1.836,0.553-3.6-0.398-5.688,0.672
	c1.186,0.348,1.932,0.611,2.701,0.777c0.871,0.189,1.764,0.285,2.617,0.416c0.299,0.451,0.557,0.842,0.967,1.459
	c13.08,1.002,26.25,2.264,39.674,1.951c0.488-1.121,1.08-2.078,1.328-3.115c0.879-3.693,1.656-7.408,2.445-11.121
	c0.646-3.041,1.09-6.131,1.908-9.123c1.881-6.854,3.848-13.682,5.145-20.684c0.49-2.639,1.148-5.252,1.795-7.859
	c0.516-2.076,1.221-4.106,1.678-6.192c1.184-5.39,2.289-10.797,3.393-16.203c0.143-0.705,0.09-1.45,0.133-2.256
	c-0.895-0.121-1.584-0.147-2.238-0.314c-5.527-1.397-11.18-1.747-16.838-2.045c-6.352-0.335-12.703-0.644-19.047-1.044
	c-1.348-0.085-2.674-0.545-4.219,0.144c-0.424,1.367-1.656,1.497-3.064,1.559c-1.061,0.045-2.105,0.499-3.156,0.771
	c0.016,0.188,0.033,0.375,0.051,0.563c1.643,0.087,3.287,0.173,5.168,0.272c-0.262,0.938-0.432,1.557-0.58,2.089
	c-1.189,0.137-2.145,0.236-3.096,0.361c-0.879,0.115-1.904-0.457-2.789,0.683c1.762,0.931,3.812-0.023,5.494,1.094
	C135.285,82.844,135.18,83.432,135.051,84.166z"/>
<path fill-rule="evenodd" clip-rule="evenodd" fill="#f5f1eb" class="fill" d="M198.639,83.605c2.559,0.376,5.096,0.629,7.58,1.146
	c3.646,0.756,7.209,1.765,10.676,3.244c3.336,1.422,5.775,3.703,7.875,6.481c4.186,5.536,7.562,11.554,10.518,17.819
	c0.262,0.555,0.553,1.094,0.863,1.705c1.367,0.07,2.678,0.061,3.965,0.221c5.959,0.742,11.914,1.494,17.861,2.316
	c3.414,0.471,6.426,2.033,9.342,3.775c0.203,0.121,0.305,0.41,0.703,0.979c-1.029-0.238-1.682-0.361-2.32-0.537
	c-3.025-0.852-6.127-0.91-9.238-0.939c-1.875-0.016-3.186,0.725-3.84,2.521c-0.541,1.484-1.26,2.934-1.602,4.465
	c-0.607,2.701,0.611,4.541,3.295,5.316c0.793,0.232,1.6,0.441,2.416,0.566c4.016,0.611,8.039,1.191,12.053,1.791
	c0.33,0.049,0.65,0.162,1.197,0.305c-0.043,3.148-0.857,6.143-1.174,9.182c-2.229,0.916-4.473-0.148-6.766,0.391
	c0.674,1.08,1.896,0.803,2.883,1.572c-0.338,0.311-0.594,0.746-0.912,0.801c-0.67,0.109-1.377-0.02-2.064,0.018
	c-0.723,0.039-1.439,0.156-2.16,0.238c-0.02,0.162-0.035,0.322-0.053,0.482c1.275,0.295,2.549,0.59,4,0.924
	c-0.158,0.615-0.279,1.094-0.4,1.572c-1.633,0.143-3.111,0.273-4.877,0.432c1.254,1.695,3.113,0.518,4.346,1.533
	c-0.133,0.398-0.273,0.834-0.428,1.305c-1.705-0.09-3.324-0.176-4.939-0.26c-0.076-0.324-0.189-0.531-0.156-0.707
	c0.496-2.709-0.17-5.238-1.305-7.643c-0.547-1.164-1.236-2.342-2.135-3.244c-3.129-3.135-6.84-5.326-11.174-6.416
	c-1.4-0.355-2.746-0.941-4.154-1.246c-1.201-0.256-2.467-0.42-3.686-0.354c-4.547,0.256-9.074,0.898-13.645,0.461
	c-0.236-0.021-0.49,0.123-1.008,0.27c0.602,0.535,1.018,0.908,1.477,1.318c-0.111,0.148-0.207,0.408-0.346,0.434
	c-0.531,0.1-1.076,0.15-1.619,0.176c-2.271,0.107-4.545,0.199-6.814,0.312c-0.084,0.004-0.16,0.172-0.443,0.496
	c1.896,0.32,3.645,0.615,5.859,0.986c-2.102,1.221-4.018,0.717-5.785,0.99c-1.834,0.285-3.695,0.41-5.688,0.617
	c0.545,1.076,1.531,0.896,2.404,0.898c1.311,0.002,2.617-0.062,3.924-0.074c0.256-0.002,0.516,0.104,1.176,0.246
	c-0.871,0.746-1.514,1.299-2.045,1.752c-3.604,0.148-7.025,0.287-10.848,0.443c2.943,1.42,5.803,0.553,8.764,1.314
	c-0.592,0.682-1.057,1.215-1.426,1.639c-3.795,0.223-7.416,0.438-11.037,0.65c1.307,1.166,2.803,0.844,4.24,0.908
	c1.5,0.066,2.994,0.154,4.67,0.242c-0.193,0.406-0.334,0.762-0.531,1.082c-0.176,0.291-0.42,0.545-0.666,0.859
	c-3.322,0.281-6.658,0.568-9.994,0.854c2.533,1.287,5.264,0.541,8.227,1.004c-0.535,0.828-0.918,1.424-1.416,2.191
	c-5.957-0.312-11.936-0.625-18.133-0.951c0.25-1.543,0.453-3.166,0.783-4.762c1.227-5.949,2.396-11.914,3.773-17.832
	c1.988-8.533,4.195-17.016,6.188-25.549c0.752-3.223,1.182-6.521,1.74-9.789c0.557-3.268,1.088-6.54,1.645-9.808
	C198.311,84.414,198.467,84.105,198.639,83.605z M197.328,111.586c4.094,0.316,7.777,0.605,11.463,0.883
	c3.643,0.273,7.297,0.461,10.932,0.816c3.684,0.359,7.281,1.535,11.145,1.256c0.062-0.518,0.117-0.973,0.129-1.064
	c-2.846-4.109-5.561-7.92-8.15-11.816c-1.602-2.408-2.945-4.99-4.527-7.415c-1.41-2.161-3.158-3.871-5.777-4.748
	c-3.453-1.159-6.998-1.457-10.559-1.796c-0.377-0.035-0.775,0.168-1.203,0.271C198.5,95.604,198.289,103.434,197.328,111.586z
	 M249.723,121.332c-1.959-2.258-6.484-3.223-8.975-1.902c-1.137,2.111-2.258,6.199-2.264,8.469c0.312,0.25,0.678,0.725,1.148,0.883
	c1.695,0.568,3.402,1.174,5.154,1.49c1.213,0.217,2.555,0.799,3.934-0.254C249.047,127.193,249.383,124.271,249.723,121.332z"/>
<path fill-rule="evenodd" clip-rule="evenodd" fill="#f5f1eb" class="fill" d="M49.51,157.578c-1.244-0.068-2.18-0.117-3.41-0.182
	c0.67-1.355,1.211-2.523,1.811-3.658c3.857-7.273,9.434-12.936,16.615-16.879c7.139-3.918,14.717-4.965,22.586-2.328
	c1.947,0.652,3.963,1.164,5.646,2.494c2.764,2.182,4.656,4.828,5.242,8.383c0.748,4.559,0.805,9.658-1.203,13.871
	c-1.459,0.174-3.066,0.367-4.766,0.568c-0.514-1.9-0.918-3.605-0.738-5.426c0.186-1.852,0.352-3.717,0.371-5.576
	c0.045-4.594-1.951-8.115-5.871-10.494c-3-1.818-6.291-3.174-9.789-2.723c-4.592,0.592-8.941,2.072-12.852,4.811
	c-4.951,3.473-8.355,8.184-11.432,13.221C50.934,154.953,50.23,156.299,49.51,157.578z"/>
<path fill-rule="evenodd" clip-rule="evenodd" fill="#f5f1eb" class="fill" d="M212.453,156.783c-0.9-0.047-1.973-0.105-3.139-0.166
	c0.264-1.748,1.324-2.988,2.217-4.246c2.074-2.922,4.242-5.785,6.48-8.588c3.277-4.104,7.73-6.57,12.686-7.758
	c8-1.922,15.191,0.273,21.297,5.658c3.699,3.262,4.52,7.615,3.457,12.314c-0.359,1.592-1.02,3.113-1.543,4.664
	c-1.068,0.035-1.959,0.066-2.869,0.098c-0.551-0.781-0.012-1.482,0.16-2.168c0.486-1.957,0.854-3.908,0.52-5.939
	c-0.277-1.678-0.828-3.232-2.051-4.438c-1.668-1.645-3.324-3.322-5.143-4.789c-2.145-1.73-4.686-2.752-7.471-2.635
	c-2.674,0.115-5.369,0.371-7.998,0.867c-3.779,0.711-6.205,3.447-8.426,6.318C217.893,149.516,215.225,153.111,212.453,156.783z"/>
<path fill-rule="evenodd" clip-rule="evenodd" fill="#f5f1eb" class="fill" d="M82.992,164.955c-0.861,2.424-2.535,4.361-4.205,6.268
	c-1.359,1.551-2.766,3.105-4.361,4.395c-4.256,3.441-9.051,4.994-14.451,3.168c-4.023-1.363-6.592-4.072-7.162-8.48
	c-0.289-2.221-0.311-4.381,0.283-6.553c0.266-0.963,0.82-1.535,1.746-1.852c1.877-0.645,2.84-0.701,4.375-0.064
	c-0.248,0.732-0.473,1.496-0.76,2.24c-0.729,1.906-1.031,3.828-0.617,5.873c0.451,2.234,1.646,3.648,3.83,4.381
	c2.967,0.99,5.51,0.328,7.957-1.482c2.982-2.209,5.312-4.992,7.469-7.955C78.859,162.473,81.096,162.479,82.992,164.955z"/>
<path fill-rule="evenodd" clip-rule="evenodd" fill="#f5f1eb" class="fill" d="M252.762,129.322c-0.617-2.959,0.779-5.375,2.385-7.83
	c4.664-1.01,9.037,0.52,13.414,1.221c1.002,1.777,1.926,7.918,1.51,10.012c-1.541,0.27-3.076,0.021-4.635-0.248
	c-2.984-0.516-5.984-0.953-8.98-1.389C255.072,130.885,253.703,130.705,252.762,129.322z"/>
<path fill-rule="evenodd" clip-rule="evenodd" fill="#f5f1eb" class="fill" d="M216.43,176.102c-1.506-4.916-0.932-11.559,1.445-16.457
	c0.734-0.08,1.584-0.172,2.744-0.297c-0.305,0.652-0.43,1.008-0.623,1.32c-1.182,1.9-1.941,3.951-2.365,6.146
	c-0.371,1.92,0.143,3.736,0.82,5.447c0.465,1.168,1.65,1.789,2.904,2.154c3.373,0.982,6.361,0.305,9.146-1.812
	c4.416-3.361,6.369-5.098,10.188-12.039c1.812-0.852,1.812-0.852,3.404-0.24c-0.135,0.488-0.18,1.051-0.436,1.492
	c-0.83,1.43-1.594,2.932-2.643,4.191c-3.084,3.711-6.094,7.508-10.24,10.166c-1.883,1.209-3.865,2.092-6.039,2.6
	C221.357,179.566,218.674,178.361,216.43,176.102z"/>
<path fill-rule="evenodd" clip-rule="evenodd" fill="#f5f1eb" class="fill" d="M200.496,53.708c-0.186,0.811-0.316,1.387-0.461,2.022
	c-6.896,0.074-13.494-1.361-20.451-2.059c0.525-1.337,0.959-2.451,1.404-3.583c1.945,0.103,3.807,0.039,5.611,0.328
	c3.924,0.628,7.822,1.402,11.715,2.201C199.061,52.768,199.725,53.31,200.496,53.708z"/>
<path fill-rule="evenodd" clip-rule="evenodd" fill="#f5f1eb" class="fill" d="M273.676,156.291c-1.861-0.098-3.482-0.182-5.16-0.27
	c-0.689-1.727,0.672-2.904,1.006-4.309c0.328-1.389,0.781-2.75,1.23-4.291c1.197,0.197,2.244,0.369,3.334,0.551
	C274.93,150.852,274.355,153.439,273.676,156.291z"/>
<path fill-rule="evenodd" clip-rule="evenodd" fill="#f5f1eb" class="fill" d="M29.219,153.42c0.021-1.604,0.986-2.076,2.057-2.42
	c1.939-0.623,3.891-1.223,5.836-1.834c0.385,1.541,0.334,2.025-0.414,3.682C34.252,153.031,31.771,153.223,29.219,153.42z"/>
<path fill-rule="evenodd" clip-rule="evenodd" fill="#f5f1eb" class="fill" d="M41.447,144.311c0.051-0.939,0.084-1.588,0.131-2.48
	c2.732,0.482,5.467-0.207,8.432,0.744c-0.672,0.668-1.131,1.127-1.535,1.527C46.131,144.174,43.938,144.236,41.447,144.311z"/>
<path fill-rule="evenodd" clip-rule="evenodd" fill="#f5f1eb" class="fill" d="M45.412,148.016c-1.469,0.004-2.75,0-4.203,0
	c0.047-0.9,0.088-1.648,0.133-2.539c1.781,0.09,3.428,0.18,5.406,0.281C46.236,146.625,45.873,147.234,45.412,148.016z"/>
<path fill-rule="evenodd" clip-rule="evenodd" fill="#f5f1eb" class="fill" d="M44.391,149.398c-0.508,0.98-0.838,1.621-1.191,2.301
	c-0.848,0.008-1.59,0.014-2.492,0.021c0.043-0.787,0.074-1.432,0.123-2.334C41.967,149.391,43.008,149.395,44.391,149.398z"/>
<path fill-rule="evenodd" clip-rule="evenodd" fill="#f5f1eb" class="fill" d="M257.285,154.279c1.529,0.16,3.068-0.246,4.523,0.689
	c-0.17,0.365-0.303,0.65-0.494,1.059c-1.494-0.205-2.943-0.406-4.57-0.631C257,154.869,257.137,154.586,257.285,154.279z"/>
<path fill-rule="evenodd" clip-rule="evenodd" fill="#f5f1eb" class="fill" d="M40.398,153.318c0.711,0.035,1.168,0.061,1.959,0.102
	c-0.436,1.025-0.795,1.867-1.172,2.76c-0.398-0.023-0.717-0.037-1.268-0.068C40.082,155.164,40.227,154.314,40.398,153.318z"/>
<path fill-rule="evenodd" clip-rule="evenodd" fill="#f5f1eb" class="fill" d="M161.25,151.209c-12.201-1.367-24.203-2.738-36.209-2.82
	c-0.096-0.539-0.164-0.678-0.139-0.803c1.324-6.119,2.695-12.229,3.969-18.359c0.561-2.686,0.92-5.418,1.377-8.127
	c0.113-0.682,0.133-1.404,0.387-2.027c1.189-2.928,1.357-6.043,1.857-9.104c0.613-3.742,1.404-7.455,2.107-11.182
	c0.371-1.96,0.672-3.934,1.086-5.884c1.088-5.111,2.217-10.214,3.338-15.319c0.059-0.263,0.193-0.508,0.391-1.013
	c1.633-0.027,3.334-0.156,5.021-0.063c4.133,0.226,8.26,0.566,12.389,0.838c3.994,0.264,7.992,0.46,11.984,0.764
	c2.131,0.162,4.254,0.458,6.371,0.757c0.658,0.092,1.287,0.39,2.086,0.644c-0.223,1.623-0.377,3.12-0.639,4.598
	c-0.721,4.076-1.43,8.154-2.256,12.208c-0.453,2.224-1.158,4.396-1.711,6.599c-0.84,3.344-1.621,6.705-2.479,10.043
	c-1.014,3.938-2.16,7.842-3.105,11.795c-0.996,4.158-1.818,8.359-2.723,12.543c-0.916,4.25-1.838,8.496-2.764,12.742
	C161.52,150.363,161.406,150.68,161.25,151.209z M141.455,80.557c-1.457,9.347-3.387,18.288-4.592,27.16
	c0.717,1.082,1.633,1.15,2.523,1.256c8.16,0.969,16.336,1.74,24.551,2.027c0.607,0.02,1.215-0.014,1.934-0.023
	c0.396-0.807,0.865-1.504,1.094-2.27c1.066-3.568,2.143-7.137,3.072-10.738c1.273-4.932,2.42-9.897,3.68-15.083
	c-0.127-0.229-0.385-0.695-0.635-1.149c-0.596-0.031-1.076-0.068-1.557-0.079c-4.479-0.113-8.965-0.134-13.439-0.358
	c-4.547-0.228-9.08-0.676-13.627-0.978C143.605,80.265,142.734,80.449,141.455,80.557z"/>
<path fill-rule="evenodd" clip-rule="evenodd" fill="#f5f1eb" class="fill" d="M242.309,120.398c2.014-0.037,3.84,0.383,5.658,1.352
	c-0.258,2.451-0.506,4.824-0.748,7.115c-2.004,0.436-2.443,0.334-7.133-1.613C240.801,125.004,240.506,122.43,242.309,120.398z"/>
</svg>
