<svg version="1.1" id="svg" xmlns="http://www.w3.org/2000/svg" xmlns:xlink="http://www.w3.org/1999/xlink" x="0px" y="0px"
	 width="200px" height="200px" viewBox="0 0 200 200" enable-background="new 0 0 200 200" xml:space="preserve">
<path class="stroke" fill="#6a2906"  fill-rule="evenodd" clip-rule="evenodd" d="M170.22,48.632c-2.806-1.04-5.584-1.236-8.415-0.205
	c-2.414,0.879-4.637,2.1-6.649,3.697c-0.303,0.242-0.635,0.447-1.222,0.857c0.098-1.149-0.054-2.08,0.289-2.76
	c0.545-1.078,0.643-2.099,0.361-3.258c0.458-1.162,0.775-2.369,0.133-3.594c0.351-1.311,0.967-2.549,0.698-3.95
	c-0.045-0.237,0.149-0.521,0.231-0.782c0.387-1.225,0.773-2.45,1.289-4.08c0.676-0.817,1.051-2.152,0.756-3.727
	c1.37-0.986,2.227-2.245,1.993-4.004c0.457-0.738,0.782-1.533,1.114-2.324c0.25-0.596,0.475-1.205,0.766-1.779
	c1.887-3.727,3.765-7.455,4.537-11.613c0.16-0.861,0.258-1.737,0.323-2.611c0.12-1.613,0.233-3.229,0.265-4.844
	c0.01-0.523-0.246-1.051-0.36-1.506c-2.192-0.58-3.222,0.871-3.029,3.578c-0.401,1.268-0.688,2.174-0.975,3.081
	c-0.006-0.003-0.015-0.006-0.021-0.009c-0.293,0.846-0.584,1.691-0.941,2.721c-0.837,0.381-1.167,1.318-1.255,2.336
	c-1.647,0.952-1.784,2.549-1.908,4.176c-1.521,0.635-2.402,1.709-2.289,3.42c-1.435,0.475-1.508,1.679-1.619,2.938
	c-0.97,0.359-1.222,1.265-1.584,2.127c-0.261,0.622-0.563,1.344-1.071,1.717c-0.742,0.548-0.945,1.191-0.986,2.014
	c-0.061,1.224-0.318,2.346-1.272,3.268c-0.814,0.788-0.957,1.818-0.763,2.967c0.117,0.688,0.063,1.521-0.234,2.135
	c-0.47,0.974-0.615,1.938-0.494,2.963c0.088,0.738-0.06,1.367-0.521,1.949c-0.199,0.25-0.33,0.554-0.546,0.928
	c0.113,0.617,0.238,1.295,0.383,2.091c-0.422,0.644-0.543,1.406-0.204,2.268c0.134,0.341,0,0.81-0.078,1.207
	c-0.1,0.497-0.262,0.983-0.412,1.47c-0.038,0.121-0.136,0.223-0.253,0.406c-0.341-0.092-0.678-0.183-1.042-0.28
	c-0.187-1.722-0.363-3.362-0.561-5.192c0.402-1.707,0.6-3.572-0.959-5.172c0.294-1.724,0.044-3.334-1.068-4.646
	c0.171-1.945-0.276-2.938-1.782-4.935c0.002-1.691,0.032-3.451-1.532-4.166c-0.925-1.621-1.673-2.932-2.521-4.422
	c0.118-1.506-0.523-2.85-2.101-3.717c-0.044-1.724-0.796-2.938-2.282-3.313c-0.559-0.725-0.982-1.259-1.388-1.807
	c-0.384-0.518-0.772-1.034-1.117-1.577c-0.591-0.93-1.069-1.941-1.735-2.807c-1.509-1.957-2.159-4.184-2.178-6.594
	c-0.005-0.721-0.146-1.255-0.695-1.771c-0.498,0-1.034,0-1.64,0c-0.099,0.425-0.2,0.774-0.261,1.13
	c-0.373,2.18-0.163,4.362,0.12,6.518c0.228,1.729,0.225,3.533,1.113,5.128c0.393,0.704,0.62,1.405,0.401,2.255
	c-0.185,0.718,0.183,1.361,0.688,1.883c0.29,0.299,0.62,0.557,0.911,0.812c0.259,1.605,0.259,1.605,2.282,3.443
	c-0.056,1.827,1.198,2.906,2.661,3.898c-0.041,1.719,0.742,3.102,1.98,4.316c-0.499,1.539,0.354,2.586,1.379,3.637
	c-0.344,1.516-0.118,2.933,1.077,4.035c-0.03,0.442,0.016,0.83-0.092,1.17c-0.327,1.026-0.119,1.877,0.561,2.715
	c0.293,0.361,0.532,0.988,0.431,1.404c-0.377,1.533-0.061,2.941,0.557,4.364c-0.844,1.372-0.348,2.57,0.634,3.773
	c-0.584,0.606-0.257,1.81-1.605,1.927c-1.105-1.449-2.491-2.605-4.029-3.677c-3.093-2.152-6.415-3.229-10.167-3.106
	c-2.397,0.078-4.809,0.393-7.18-0.338c-0.352-0.107-0.813,0.143-1.299,0.244c0.237,0.82,0.379,1.455,0.602,2.057
	c0.975,2.623,2.828,4.582,5.333,5.579c3.13,1.245,6.396,2.2,9.78,2.616c0.815,0.101,1.612,0.348,2.48,0.541
	c0.036,0.561,0.11,1.017,0.086,1.467c-0.076,1.433-0.171,2.865-0.289,4.295c-0.314,3.811-1.071,7.561-2.358,11.133
	c-1.74,4.831-3.747,9.57-5.791,14.283c-0.83,1.916-2.281,3.184-4.562,3.646c-4.43,0.897-8.944,0.859-13.39,1.535
	c-2.379,0.362-4.793,0.521-7.197,0.702c-4.299,0.324-8.602,0.612-12.906,0.885c-2.402,0.153-4.817,0.155-7.211,0.386
	s-4.783,0.586-7.148,1.028c-2.683,0.501-5.354,1.094-8,1.769c-1.79,0.456-3.652,0.887-5.256,1.749
	c-2.311,1.241-4.419,2.86-6.607,4.327c-0.188,0.127-0.333,0.322-0.487,0.496c-1.017,1.14-2.054,2.261-3.035,3.43
	c-0.442,0.528-0.815,1.128-1.137,1.738c-0.538,1.023-1.01,2.082-1.507,3.121c-0.78,0.51-1.577,0.986-2.331,1.527
	c-3.516,2.523-6.148,5.614-7.319,9.96c-0.958,3.553-1.753,7.107-1.929,10.768c-0.073,1.503,0.293,3.03,0.515,4.538
	c0.046,0.318,0.333,0.6,0.6,1.051c0.714-0.628,1.3-1.145,1.864-1.641c0.435,0.75,0.815,1.407,1.146,1.98
	c1.377-0.081,1.042-1.515,1.89-1.842c0.419,0.273,0.827,0.537,1.344,0.875c0.929-1.5,0.405-3.177,1.045-4.752
	c0.557,0.839,1.008,1.524,1.463,2.208c1.519,2.276,3.052,4.542,4.55,6.831c1.45,2.215,1.201,4.369-0.297,6.468
	c-1.777,2.489-3.597,4.952-5.287,7.499c-1.611,2.426-2.963,4.975-2.03,8.067c0.147,0.486,0.277,0.979,0.442,1.461
	c0.571,1.665,1.155,3.327,1.734,4.989c0.837,2.405,1.728,4.793,2.498,7.22c0.729,2.295,1.538,4.596,1.921,6.957
	c0.279,1.716,0.576,3.258,1.94,4.426c0.137,0.118,0.229,0.288,0.339,0.431c0.473,2.162-0.007,4.475,1.13,6.663
	c3.012-0.115,6.028-0.343,9.002-0.879c0.068-0.541,0.118-0.937,0.178-1.424c1.927-0.176,3.792-0.346,5.849-0.532
	c-0.109-0.746-0.069-1.326-0.284-1.789c-0.857-1.843-1.094-3.941-2.327-5.627c-0.106-0.144-0.157-0.338-0.202-0.516
	c-0.551-2.203-1.177-4.392-1.625-6.614c-0.703-3.493-1.286-7.011-1.918-10.517c-0.197-1.093-0.392-2.188-0.583-3.281
	c-0.349-1.999-0.695-3.998-1.046-6.018c0.363-0.379,0.703-0.756,1.066-1.109c0.859-0.84,1.83-1.586,2.573-2.517
	c1.565-1.96,3.245-3.792,5.185-5.384c0.782-0.643,1.621-1.233,2.308-1.966c0.943-1.006,1.768-2.122,2.639-3.194
	c1.139-1.4,2.334-2.761,3.396-4.217c1.299-1.782,2.486-3.646,3.793-5.579c6.499-0.373,13.189,0.266,19.804-0.835
	c0.646,1.503,1.293,2.795,1.757,4.149c0.532,1.553,1.25,2.982,2.176,4.332c0.324,0.473,0.51,1.077,0.626,1.647
	c0.589,2.906,1.095,5.831,1.714,8.731c0.329,1.534,0.913,3.013,1.229,4.548c0.259,1.258,0.521,2.587,0.377,3.837
	c-0.346,2.987-0.889,5.955-1.434,8.915c-0.535,2.91-1.066,5.828-1.793,8.692c-0.68,2.675-1.068,5.354-0.936,8.103
	c0.064,1.324,0.229,2.644,0.36,4.112c2.354,0.188,4.514,0.106,6.763-0.08c0.412,0.826,1.223,0.991,2.069,1.042
	c1.574,0.096,3.149,0.188,4.726,0.245c0.492,0.018,0.99-0.076,1.38-0.11c0.147-0.211,0.225-0.279,0.247-0.363
	c0.048-0.177,0.08-0.361,0.098-0.545c0.186-1.87,0.04-3.684-0.675-5.461c-0.549-1.361-1.217-2.691-1.216-4.242
	c0.001-1.571-0.164-3.144-0.251-4.715c-0.112-2.036-0.433-4.088-0.284-6.104c0.305-4.105,0.708-8.219,1.357-12.282
	c0.646-4.042,0.831-8.104,1.115-12.166c0.048-0.679,0.166-1.387,0.42-2.012c0.891-2.187,1.938-4.312,2.768-6.519
	c0.99-2.636,1.816-5.332,2.715-8.003c0.582-0.429,1.13-0.857,1.703-1.249c1.375-0.939,2.818-1.791,4.129-2.813
	c1.301-1.016,2.428-2.254,3.714-3.29c3.483-2.811,5.686-6.542,7.532-10.5c0.896-1.92,1.528-3.965,2.258-5.961
	c0.269-0.736,0.46-1.501,0.707-2.244c0.686-2.06,1.4-4.109,2.069-6.173c1.36-4.195,2.149-8.525,3.021-12.836
	c0.147-0.725,0.205-1.469,0.297-2.203c0.233-1.873,0.204-3.812,1.445-5.422c0.166-0.215,0.266-0.492,0.352-0.755
	c0.843-2.591,1.741-5.167,2.497-7.782c0.911-3.159,1.729-6.346,2.522-9.537c0.217-0.871,0.198-1.803,0.283-2.669
	c2.498-0.829,5.087-1.678,7.666-2.552c0.569-0.193,1.119-0.451,1.654-0.723c1.929-0.975,3.479-2.431,4.993-3.938
	c0.488-0.486,1.043-0.909,1.6-1.318c0.483-0.355,1.048-0.607,1.506-0.991c0.219-0.183,0.272-0.563,0.419-0.894
	C172.554,49.13,171.326,49.042,170.22,48.632z"/>
<path fill-rule="evenodd" clip-rule="evenodd" fill="#ffe861" class="fill" d="M133.813,71.485c0.079,0.582,0.14,1.167,0.24,1.744
	c0.479,2.734,0.883,5.485,1.494,8.189c0.259,1.146,0.946,2.199,1.47,3.279c0.303,0.623,0.67,1.216,1.008,1.822
	c0.949,1.713,2.314,2.961,4.225,3.748c-0.041,0.27-0.043,0.588-0.14,0.873c-0.476,1.404-0.969,2.804-1.472,4.197
	c-1.24,3.441-2.318,6.955-3.783,10.299c-1.405,3.211-2.576,6.588-4.962,9.289c-0.29,0.328-0.597,0.641-0.896,0.96
	c-0.102-0.034-0.204-0.067-0.306-0.101c0-0.537,0.032-1.077-0.005-1.612c-0.202-2.96-1.041-5.659-3.358-7.687
	c-0.708-0.619-1.465-1.296-2.673-0.886c0.094,0.345,0.135,0.655,0.261,0.929c1.63,3.552,1.986,7.268,0.859,10.964
	c-0.64,2.098-1.758,4.077-3.812,5.313c-0.863,0.52-1.584,1.275-2.379,1.91c-0.253,0.202-0.516,0.449-0.812,0.524
	c-1.698,0.432-2.353,1.802-2.643,3.251c-0.475,2.356-0.812,4.752-1.012,7.146c-0.326,3.927-0.523,7.864-0.718,11.801
	c-0.096,1.942-0.058,3.892-0.093,5.839c-0.034,1.916-0.241,3.776-1.478,5.383c-0.256,0.331-0.361,0.867-0.348,1.303
	c0.034,1.063,0.067,2.149,0.308,3.177c0.345,1.477,0.309,2.933,0.229,4.423c-0.248,4.676-0.736,9.34-0.455,14.042
	c0.174,2.899,0.471,5.727,2.126,8.359c-1.554,0.606-3.022-0.027-4.647,0.318c-0.043-0.732-0.1-1.346-0.113-1.961
	c-0.039-1.713-0.08-3.426-0.087-5.14c-0.009-2.271,0.015-4.542,0.024-6.813c0.013-2.73,0.074-5.461,0.021-8.19
	c-0.029-1.514-0.178-3.033-0.402-4.529c-0.15-0.995-0.434-1.997-0.83-2.921c-0.749-1.748-0.799-3.612-1.025-5.437
	c-0.263-2.112-0.354-4.247-0.475-6.374c-0.047-0.826,0.062-1.66,0.046-2.49c-0.021-0.97-0.097-1.939-0.155-2.907
	c-0.028-0.461-0.08-0.919-0.109-1.38c-0.078-1.248-0.115-2.498-0.232-3.742c-0.144-1.519-0.27-3.047-0.561-4.54
	c-0.184-0.937-0.51-1.914-1.031-2.702c-1.094-1.648-1.824-3.434-2.439-5.286c-0.1-0.299-0.248-0.582-0.457-1.063
	c-0.442,0.243-0.926,0.358-1.158,0.666c-0.523,0.692-0.987,1.45-1.356,2.236c-0.393,0.835-0.65,1.733-0.967,2.606
	c-0.329,0.148-0.611,0.312-0.916,0.408c-4.149,1.292-8.368,2.208-12.725,2.408c-0.692,0.032-1.398,0.109-2.064,0.287
	c-1.256,0.336-2.463,0.164-3.66-0.083c0-1.735-0.02-3.39,0.005-5.043c0.04-2.669-1.215-4.782-2.774-6.807
	c-0.874-1.132-1.893-2.032-3.201-2.595c-0.327-0.14-0.684-0.205-1.22-0.36c0,0.546-0.109,0.974,0.017,1.316
	c1.489,4.061,1.272,8.228,0.673,12.379c-0.55,3.806-1.223,7.612-2.699,11.191c-0.613,1.486-1.419,2.933-2.367,4.231
	c-2.021,2.769-4.135,5.476-6.324,8.114c-0.969,1.168-2.2,2.12-3.336,3.146c-1.445,1.303-2.905,2.591-4.376,3.867
	c-1.224,1.061-2.471,2.093-3.657,3.095c-0.48,1.07-0.37,2.083-0.088,3.074c1.571,5.526,3.159,11.049,4.745,16.57
	c0.331,1.154,0.685,2.303,1.016,3.457c0.236,0.823,0.249,1.641-0.088,2.473c-1.226,0.25-2.442,0.499-3.592,0.734
	c-0.874-1.121-1.764-2.218-2.601-3.354c-0.504-0.684-0.399-1.494-0.313-2.286c0.173-1.617,0.155-3.178-0.299-4.806
	c-1.236-4.432-2.748-8.764-4.655-12.931c-1.8-3.931-0.815-7.188,1.794-10.255c1.293-1.517,2.572-3.046,3.868-4.562
	c1.909-2.232,3.184-4.765,3.673-7.677c0.069-0.41,0.199-0.81,0.301-1.216c-0.212-1.846-1.297-3.218-2.674-4.246
	c-2.55-1.906-4.234-4.542-6.117-6.987c-1.508-1.96-1.557-4.43-1.193-6.822c0.278-1.83,0.573-3.677,1.097-5.445
	c0.992-3.356,2.044-6.66,4.13-9.615c2.465-3.494,5.627-5.706,9.651-7.013c3.815-1.237,7.725-2.105,11.654-2.574
	c3.747-0.445,7.591-0.103,11.393-0.065c1.154,0.011,2.307,0.165,3.462,0.238c1.202,0.077,2.413,0.072,3.606,0.216
	c2.345,0.282,4.64,0.025,6.874-0.641c0.912-0.271,1.708-0.91,2.593-1.296c1.61-0.702,3.234-1.377,4.878-1.995
	c1.257-0.474,2.579-0.775,3.823-1.273c2.012-0.805,4.141-0.913,6.24-1.152c3.023-0.344,5.887-1.221,8.666-2.4
	c0.627-0.265,1.253-0.681,1.7-1.186c1.287-1.451,2.579-2.918,3.694-4.502c1.639-2.329,2.469-5.068,3.518-7.684
	c0.758-1.887,1.359-3.838,1.985-5.776c0.196-0.61,0.254-1.267,0.357-1.906c0.081-0.489,0.137-0.982,0.204-1.475
	C133.545,71.491,133.68,71.488,133.813,71.485z M55.891,144.991c0.875-0.717,0.971-0.729,0.898-1.298
	c-0.122-0.951-0.144-2.036-0.631-2.792c-1.108-1.721-1.842-3.629-2.877-5.354c-1.186-1.978-1.804-4.146-2.574-6.247
	c-1.068-2.91-1.644-5.981-1.704-9.111c-0.03-1.572-0.196-3.186,1.016-4.493c-0.136-0.379-0.253-0.702-0.439-1.219
	c-1.015,0.731-1.846,1.427-2.284,2.464c-0.466,1.104-0.832,2.25-1.26,3.37c-0.821,2.145-0.974,4.423-1.4,6.65
	c-0.41,2.139,0.051,4.003,1.069,5.867c0.777,1.423,2.064,2.38,2.981,3.643c1.529,2.106,3.326,3.858,5.686,4.974
	C54.885,142.646,55.379,143.797,55.891,144.991z M57.814,109.053c-0.025,0.152-0.049,0.306-0.074,0.458
	c0.344,0.121,0.686,0.252,1.034,0.362c1.179,0.369,2.457,0.554,3.521,1.133c2.475,1.348,4.84,2.895,7.264,4.336
	c0.574,0.341,1.198,0.795,1.935,0.038c-0.238-0.771-0.479-1.56-0.726-2.346c-0.763-2.44-2.414-3.973-4.919-4.348
	c-1.821-0.271-3.69-0.315-5.536-0.295C59.476,108.401,58.646,108.819,57.814,109.053z"/>
<path fill-rule="evenodd" clip-rule="evenodd" fill="#ffe861" class="fill" d="M134.282,61.413c-0.187-1.791,0.579-3.322,1.469-4.922
	c1.003-0.439,2.06-0.89,3.104-1.363c0.723-0.328,1.189-0.846,1.25-1.693c0.029-0.43,0.171-0.854,0.407-1.345
	c0.45,1.43,1.565,1.524,2.682,1.589c0.924,0.054,1.862-0.013,2.772,0.118c1.797,0.257,3.865-1.136,4.973-2.491
	c0.398,0.147,0.846,0.312,1.419,0.522c-0.344,0.412-0.568,0.681-0.71,0.849c0.725,1.924,1.477,3.738,2.072,5.602
	c0.209,0.652,0.034,1.426,0.034,2.385c-0.476-0.305-0.8-0.45-1.043-0.681c-1.19-1.126-4.444-0.809-5.337,1.351
	c-0.139,0.336-0.327,0.756-0.239,1.064c0.487,1.719-0.08,3.414-0.031,5.117c0.003,0.092,0.027,0.183-0.133,0.449
	c0.302,0.33,0.604,0.66,0.893,0.975c0.744-0.293,1.204-0.474,1.711-0.673c0.136-0.906,0.263-1.763,0.411-2.759
	c0.782-0.178,1.709-0.391,2.811-0.643c-0.79,4.52-2.49,8.719-3.424,13.253c-1.316,0.312-2.555,0.606-3.998,0.948
	c-0.094-1.088-0.171-1.976-0.256-2.958c-0.353,0.039-0.64,0.071-1.015,0.112c-0.08,0.885-0.154,1.695-0.234,2.578
	c-0.989,0.088-1.903,0.168-2.856,0.252c-0.825-0.824-1.477-1.74-1.897-2.853c-1.064-2.813-2.202-5.601-3.278-8.411
	c-0.359-0.936-0.619-1.91-0.938-2.91c1.175,0.271,2.259,0.52,3.439,0.792c0.127,1.114-0.877,2.749,1.154,3.419
	c0.277-0.215,0.563-0.434,0.876-0.676c0.056-0.804,0.106-1.587,0.163-2.37c0.088-1.196,0.195-2.392,0.262-3.59
	c0.037-0.684,0.006-1.372,0.006-1.908C138.224,58.368,135.84,59.102,134.282,61.413z M147.861,73.499
	c-1.604,0.335-2.145,1.01-2.044,2.443c0.96,0.298,1.237,0.287,1.7-0.295C147.993,75.047,148.563,74.413,147.861,73.499z
	 M143.666,76.306c0.112-1.119-0.362-1.503-1.113-1.74c-0.581-0.184-1.142-0.525-1.607,0.385c0.202,0.408,0.439,0.887,0.724,1.461
	C142.354,76.376,142.973,76.343,143.666,76.306z"/>
<path fill-rule="evenodd" clip-rule="evenodd" fill="#ffe861" class="fill" d="M129.252,51.034c-2.405,0.105-4.484-1.159-7.012-0.291
	c1.322,1.184,2.402,2.151,3.508,3.141c-2.605,0.201-7.954-2.963-8.417-4.946C121.303,49.116,125.347,48.896,129.252,51.034z"/>
<path fill-rule="evenodd" clip-rule="evenodd" fill="#ffe861" class="fill" d="M164.938,51.151c-1.906-0.312-3.547,0.482-5.268,0.304
	c1.599-1.403,5.979-1.858,8.993-0.942c-2.746,2.664-5.519,5.198-9.491,6.602C161.165,55.051,164.065,54.264,164.938,51.151z"/>
<path fill-rule="evenodd" clip-rule="evenodd" fill="#ffe861" class="fill" d="M141.937,80.415c2.295-0.124,4.378-0.236,6.651-0.357
	c-0.229,0.523-0.431,0.994-0.638,1.473c-1.188,0.173-2.277,0.419-3.375,0.465C143.493,82.042,142.68,81.429,141.937,80.415z"/>
<path fill-rule="evenodd" clip-rule="evenodd" fill="#ffe861" class="fill" d="M139.178,61.224c0.051,1.094,0.149,2.1-0.995,2.582
	c-0.986,0.417-1.786,0.158-2.546-0.791c0.18-1.236,0.638-2.264,2.246-2.486C138.255,60.729,138.729,60.983,139.178,61.224z
	 M136.524,62.153c0.54,0.978,1.093,0.908,1.928,0.348c-0.382-0.348-0.646-0.757-0.996-0.852
	C137.216,61.585,136.858,61.959,136.524,62.153z"/>
<path fill-rule="evenodd" clip-rule="evenodd" fill="#ffe861" class="fill" d="M154.375,37.993c-0.518-0.186-0.896-0.32-1.229-0.439
	c-0.486-2.195-0.342-2.633,1.131-3.139c0.271,0.379,0.572,0.799,0.818,1.145C154.842,36.417,154.634,37.118,154.375,37.993z"/>
<path fill-rule="evenodd" clip-rule="evenodd" fill="#ffe861" class="fill" d="M130.905,20.743c-0.307,0.244-0.619,0.495-1.105,0.885
	c-0.514-0.742-0.969-1.399-1.524-2.203c0.544-0.391,1-0.719,1.451-1.043C130.574,18.954,130.964,19.63,130.905,20.743z"/>
<path fill-rule="evenodd" clip-rule="evenodd" fill="#ffe861" class="fill" d="M151.911,61.228c0.601,0.908,0.47,1.614-0.089,2.191
	c-0.643,0.662-1.432,0.762-2.309,0.281c-0.247-0.895-0.327-1.768,0.344-2.759C150.563,61.04,151.305,61.143,151.911,61.228z
	 M149.715,62.726c0.449,0.227,0.814,0.412,1.308,0.66c0.311-0.592,0.545-1.037,0.79-1.504
	C150.527,61.399,150.457,61.427,149.715,62.726z"/>
<path fill-rule="evenodd" clip-rule="evenodd" fill="#ffe861" class="fill" d="M140.254,43.494c0.164,1.173,0.308,2.198,0.447,3.19
	c-1.092,0.361-1.439,0.253-1.706-0.418C138.531,45.097,138.944,44.021,140.254,43.494z"/>
<path fill-rule="evenodd" clip-rule="evenodd" fill="#ffe861" class="fill" d="M136.968,37.688c-0.089-1.281-1.084-2.312,0.021-3.414
	c1.349,0.666,1.595,1.69,1.279,3.088C137.948,37.442,137.574,37.536,136.968,37.688z"/>
<path fill-rule="evenodd" clip-rule="evenodd" fill="#ffe861" class="fill" d="M155.953,29.936c0.596,1.426,0.127,2.534-0.512,3.75
	c-0.385-0.229-0.714-0.425-1.086-0.646C154.457,31.759,154.647,30.636,155.953,29.936z"/>
<path fill-rule="evenodd" clip-rule="evenodd" fill="#ffe861" class="fill" d="M135.485,28.979c-0.329,0.099-0.622,0.186-1.025,0.307
	c-0.394-0.871-0.767-1.697-1.183-2.619c0.194-0.248,0.404-0.517,0.563-0.718C134.852,25.893,135.567,27.235,135.485,28.979z"/>
<path fill-rule="evenodd" clip-rule="evenodd" fill="#ffe861" class="fill" d="M151.342,47.322c0.678,0.188,1.064,0.295,1.624,0.45
	c-0.135,0.872-0.263,1.697-0.416,2.697c-0.639-0.21-1.05-0.345-1.626-0.533C151.062,49.077,151.188,48.292,151.342,47.322z"/>
<path fill-rule="evenodd" clip-rule="evenodd" fill="#ffe861" class="fill" d="M130.608,22.647c0.251-0.223,0.479-0.426,0.703-0.625
	c1.159,0.561,1.893,1.249,2.101,2.515c-0.293,0.23-0.598,0.471-0.971,0.765C131.834,24.423,131.289,23.634,130.608,22.647z"/>
<path fill-rule="evenodd" clip-rule="evenodd" fill="#ffe861" class="fill" d="M139.701,42.164c-0.308,0.108-0.555,0.195-0.908,0.319
	c-0.283-0.707-0.592-1.362-0.809-2.047c-0.208-0.658,0.196-1.105,0.693-1.584C139.536,39.845,139.434,41.024,139.701,42.164z"/>
<path fill-rule="evenodd" clip-rule="evenodd" fill="#ffe861" class="fill" d="M134.965,30.602c0.512-0.117,0.804-0.185,1.09-0.251
	c0.721,0.754,0.744,1.604,0.696,2.531c-0.249,0.15-0.474,0.285-0.864,0.52C135.568,32.435,135.282,31.562,134.965,30.602z"/>
<path fill-rule="evenodd" clip-rule="evenodd" fill="#ffe861" class="fill" d="M141.041,50.608c-0.459,0.096-0.678,0.141-1.036,0.215
	c-0.268-0.67-0.528-1.318-0.857-2.141c0.642-0.203,1.09-0.346,1.744-0.555C140.945,49.038,140.991,49.782,141.041,50.608z"/>
<path fill-rule="evenodd" clip-rule="evenodd" fill="#ffe861" class="fill" d="M126.971,15.278c1.115,0.412,1.195,1.375,1.667,2.16
	c-0.311,0.23-0.591,0.438-0.922,0.682C126.966,17.296,126.454,16.507,126.971,15.278z"/>
<path fill-rule="evenodd" clip-rule="evenodd" fill="#ffe861" class="fill" d="M161.82,19.788c-0.415,0.852-0.83,1.703-1.309,2.684
	c-0.367-0.3-0.626-0.512-0.939-0.766c0.5-0.944,0.838-1.922,1.894-2.217C161.584,19.589,161.702,19.688,161.82,19.788z"/>
<path fill-rule="evenodd" clip-rule="evenodd" fill="#ffe861" class="fill" d="M152.209,42.78c-0.238-1.5-0.19-2.664,0.738-3.686
	C153.59,40.097,153.391,41.252,152.209,42.78z"/>
<path fill-rule="evenodd" clip-rule="evenodd" fill="#ffe861" class="fill" d="M157.132,29.112c-0.455-0.267-0.718-0.42-1.034-0.605
	c0.438-0.791,0.43-1.759,1.407-2.33C158.379,27.294,157.388,28.048,157.132,29.112z"/>
<path fill-rule="evenodd" clip-rule="evenodd" fill="#ffe861" class="fill" d="M162.505,18.448c-0.343-0.092-0.51-0.138-0.827-0.225
	c0.23-0.81,0.448-1.572,0.689-2.414c0.386,0.055,0.668,0.096,1.119,0.16C163.143,16.837,162.847,17.586,162.505,18.448z"/>
<path fill-rule="evenodd" clip-rule="evenodd" fill="#ffe861" class="fill" d="M152.66,46.247c-1.39-0.455-1.465-0.868-0.522-2.225
	c0.282,0.158,0.573,0.323,0.965,0.544C152.951,45.14,152.818,45.645,152.66,46.247z"/>
<path fill-rule="evenodd" clip-rule="evenodd" fill="#ffe861" class="fill" d="M125.97,14.253c-0.262-1.225-0.476-2.223-0.689-3.22
	c0.102-0.042,0.202-0.083,0.303-0.125c0.469,0.817,0.937,1.636,1.48,2.584C126.758,13.705,126.462,13.911,125.97,14.253z"/>
<path fill-rule="evenodd" clip-rule="evenodd" fill="#ffe861" class="fill" d="M159.703,23.669c-0.37,0.67-0.65,1.173-0.969,1.749
	c-0.33-0.206-0.543-0.339-0.864-0.54c0.278-0.662,0.535-1.273,0.854-2.033C159.093,23.155,159.344,23.367,159.703,23.669z"/>
<path fill-rule="evenodd" clip-rule="evenodd" fill="#ffe861" class="fill" d="M165.221,9.228c-0.073,0.664-0.147,1.328-0.225,2.033
	c-0.35,0-0.559,0-0.982,0c0.643-0.678-0.016-1.695,0.861-2.156C164.989,9.146,165.105,9.187,165.221,9.228z"/>
<path fill-rule="evenodd" clip-rule="evenodd" fill="#ffe861" class="fill" d="M163.68,14.884c0-0.912,0-1.449,0-2.053
	c0.242-0.102,0.467-0.195,0.787-0.33C164.587,13.413,164.324,14.062,163.68,14.884z"/>
<path fill-rule="evenodd" clip-rule="evenodd" fill="#ffe861" class="fill" d="M165.51,6.574c-0.018,0.384-0.035,0.767-0.059,1.24
	c-0.408-0.032-0.698-0.056-1.208-0.097c0.356-0.542,0.61-0.926,0.862-1.311C165.24,6.462,165.375,6.519,165.51,6.574z"/>
<path fill-rule="evenodd" clip-rule="evenodd" fill="#ffe861" class="fill" d="M164.914,5.285c0.084-0.565,0.148-0.997,0.249-1.675
	C165.787,4.716,165.778,4.764,164.914,5.285z"/>
<path fill-rule="evenodd" clip-rule="evenodd" fill="#ffe861" class="fill" d="M124.773,8.668c0.056,0.177,0.109,0.354,0.164,0.532
	c-0.071,0.02-0.141,0.039-0.212,0.059c-0.038-0.184-0.076-0.367-0.113-0.55C124.666,8.695,124.72,8.681,124.773,8.668z"/>
</svg>
