<svg version="1.1" id="svg" xmlns="http://www.w3.org/2000/svg" xmlns:xlink="http://www.w3.org/1999/xlink" x="0px" y="0px"
	 width="200px" height="200px" viewBox="0 0 200 200" enable-background="new 0 0 200 200" xml:space="preserve">
<path class="stroke" fill="#064146"  fill-rule="evenodd" clip-rule="evenodd" d="M186.94,65.046c-1.754-1.916-3.722-3.083-6.336-3.097
	c-0.284-0.001-0.568-0.075-0.914-0.124c-0.178-1.111-0.472-2.148-0.104-3.2c0.819-0.294,1.864,0.038,2.212-1.11
	c-0.262-1.452-0.281-3.013-1.095-4.327c-0.924-0.367-4.367-0.428-6.531-0.084c-0.458,0.073-0.88,0.364-1.438,0.605
	c0.088,2.885,0.174,5.7,0.251,8.229c-1.221,1.331-2.446,2.338-3.231,3.616c-0.777,1.265-1.109,2.804-1.723,4.453
	c-1.433-3.021-2.877-5.799-4.086-8.676c-2.428-5.777-4.795-11.571-8.045-16.961c-2.209-3.663-4.312-7.389-6.427-11.107
	c-2.934-5.159-6.742-9.579-11.202-13.466c-3.573-3.114-7.415-5.814-11.588-8.092c-2.438-1.33-4.815-2.763-7.36-3.888
	c-0.771-0.341-1.537-0.704-2.33-0.985c-3.153-1.116-6.457-1.495-9.748-1.905c-1.38-0.172-2.789-0.129-4.166-0.315
	c-3.825-0.517-7.607-0.422-11.391,0.396c-1.499,0.325-3.051,0.502-4.585,0.551c-2.613,0.083-4.957,0.855-7.147,2.248
	c-1.508,0.958-3.052,1.866-4.617,2.728c-2.209,1.216-4.474,2.333-6.676,3.561c-2.214,1.235-4.379,2.558-6.57,3.833
	c-3.049,1.773-6.142,3.477-9.145,5.325c-2.4,1.479-4.664,3.178-7.045,4.69c-2.303,1.462-4.677,2.812-6.941,4.163
	c-0.85-0.171-1.577-0.316-2.508-0.503c-0.75,0.684-1.563,1.423-2.464,2.243c-0.19-0.46-0.348-0.762-0.443-1.082
	c-0.308-1.029-1.088-1.526-2.046-1.749c-2.033-0.472-4.338,1.461-4.208,3.542c0.052,0.833,0.267,1.656,0.417,2.544
	c-3.774,3.314-6.878,7.122-7.82,12.287c-2.207,1.35-2.26,3.476-2.201,5.743c-1.375,1.747-1.6,2.78-1.009,4.843
	c-1.939,1.744-1.692,3.701-0.036,5.081c-0.036,1.864,0.825,3.32,2.146,4.567c1.189,5.008,3.454,9.5,6.672,13.583
	c-0.381,0.695-0.75,1.336-1.088,1.993c-0.409,0.795-0.855,1.58-1.176,2.411c-1.377,3.58-2.385,7.27-3.233,11.007
	c-0.589,2.598-0.488,5.222-0.379,7.849c0.004,0.084,0.101,0.165,0.279,0.44c0.663-0.056,1.456-0.028,2.203-0.201
	c2.464-0.57,4.916-1.18,7.264-2.171c1.052-0.444,2.202-0.619,3.465-0.281c0.379,0.415,0.787,0.916,1.253,1.355
	c0.538,0.511,1.078,1.049,1.704,1.432c1.641,1.003,3.438,0.379,4.16-1.393c0.168-0.41,0.263-0.85,0.39-1.276
	c0.701-2.344,0.553-4.709,0.256-7.097c-0.599-4.813-1.726-9.468-3.957-13.998c2.149-4.674,4.353-9.465,6.716-14.605
	c3.085,5.014,6.202,9.59,8.78,14.482c-0.319,0.5-0.562,0.872-0.795,1.25c-1.461,2.368-2.93,4.731-4.367,7.114
	c-0.208,0.345-0.259,0.786-0.326,1c1.947,1.029,3.697,1.945,5.438,2.877c1.614,0.864,3.218,1.746,5.05,2.741
	c0.13,0.225,0.412,0.693,0.677,1.171c2.127,3.866,4.722,7.366,7.993,10.351c0.911,0.831,1.738,1.754,2.47,2.497
	c-0.078,0.867-0.169,1.503-0.188,2.141c-0.113,3.793,0.343,7.546,0.738,11.309c0.213,2.031,0.125,4.106-0.795,5.992
	c-1.782,3.652-2.09,7.542-1.951,11.497c0.065,1.886,0.426,3.761,0.493,5.647c0.084,2.324,0.651,4.537,1.447,6.676
	c0.587,1.577,0.313,2.898-0.51,4.238c-0.363,0.594-0.771,1.184-0.994,1.831c-0.402,1.163-0.982,2.38-0.459,3.614
	c0.774,1.825,1.615,3.633,2.58,5.362c0.51,0.913,0.768,1.815,0.788,2.824c0.021,0.989,0.014,1.98,0.06,2.97
	c0.062,1.344-0.307,2.385-1.581,3.102c-1.6,0.9-3.141,1.916-4.657,2.955c-1.185,0.812-2.393,1.635-3.411,2.635
	c-1.114,1.096-1.875,2.547-1.747,4.131c0.15,1.874,0.621,3.723,0.978,5.578c0.053,0.273,0.241,0.521,0.363,0.773
	c0.314,0.039,0.562,0.113,0.803,0.093c2.717-0.236,5.434-0.474,8.147-0.743c1.188-0.117,2.362-0.377,3.551-0.459
	c4.125-0.286,8.201-0.88,12.259-1.669c1.333-0.259,2.65-0.839,4.078-0.441c0.208,0.058,0.508-0.214,0.698-0.302
	c0.309-4.413,0.611-8.716,0.91-12.965c0.937-1.079,1.849-2.066,2.687-3.113c0.753-0.941,1.019-2.03,0.691-3.229
	c-0.248-0.912-0.459-1.835-0.723-2.741c-0.755-2.605-0.863-5.132,0.281-7.715c1.145-2.584,1.706-5.287,0.743-8.134
	c-0.256-0.757-0.271-1.7-0.082-2.481c0.355-1.48,1.467-2.342,2.941-2.643c1.944-0.395,3.902-0.724,5.856-1.072
	c0.084-0.014,0.184,0.06,0.38,0.129c0.618,1.595,0.908,3.297,0.433,5.026c-0.403,1.464-0.045,2.714,0.619,4.002
	c1.174,2.278,1.634,4.636,0.81,7.193c-0.438,1.356-0.672,2.807-0.784,4.231c-0.153,1.93,1.145,3.71,2.955,4.359
	c0.368,0.133,0.746,0.236,1.152,0.363c0.701,5.129,1.141,10.201,0.172,15.346c0.65,0.156,1.122,0.301,1.604,0.381
	c4.224,0.703,8.483,1.039,12.751,1.348c2.623,0.19,5.253,0.232,7.864,0.754c1.762,0.352,3.627,0.191,5.418,0.258
	c0.265-0.547,0.374-1.02,0.661-1.326c1.409-1.506,1.734-3.172,0.828-5.197c-1.46-0.96-3.055-1.97-4.607-3.039
	c-1.537-1.059-3.335-1.766-4.586-3.23c0.227-1.004,0.471-1.915,0.627-2.842c0.098-0.578,0.171-1.198,0.064-1.764
	c-0.312-1.662-0.204-3.248,0.434-4.828c0.753-1.866,1.148-3.792,0.701-5.82c-0.277-1.258-0.521-2.524-0.726-3.796
	c-0.253-1.574-1.123-3.148-0.243-4.435c0.08-1.152,0.073-1.99,0.21-2.805c0.386-2.3,0.924-4.578,1.221-6.889
	c0.2-1.561,0.196-3.168,0.102-4.743c-0.161-2.677-0.481-5.344-0.7-8.019c-0.063-0.781-0.01-1.572-0.01-2.412
	c1.298-0.004,2.121,0.81,3.096,1.256c0.499-0.086,0.984-0.17,1.182-0.204c2.045,1.21,3.882,2.282,5.705,3.376
	c3.25,1.949,6.452,1.695,9.561-0.281c4.025-2.561,6.985-6.174,9.593-10.081c0.989-1.482,1.685-3.157,2.593-4.698
	c1.107-1.88,2.326-3.693,3.443-5.566c1.041-1.744,1.965-3.559,3.03-5.285c0.573-0.93,1.094-1.949,2.146-2.642
	c0.234,0.511,0.459,0.898,0.598,1.315c1.402,4.195,2.767,8.404,4.19,12.592c1.279,3.766,2.615,7.512,3.941,11.261
	c0.128,0.362,0.357,0.688,0.553,1.057c2.527,0.155,4.88-0.384,7.348-0.994c0-0.763,0.138-1.478-0.024-2.116
	c-0.622-2.455-1.324-4.893-2.028-7.327c-0.604-2.089-1.256-4.163-1.879-6.246c-0.668-2.233-1.296-4.479-2.003-6.7
	c-0.362-1.135-0.872-2.222-1.283-3.342c-0.112-0.306-0.111-0.653-0.163-0.99c1.259-0.846,2.915-0.721,3.98-2.076
	c0.132-0.412,0.312-0.976,0.519-1.619c-0.558-1.033-1.118-2.07-1.762-3.262c0.092-0.876,0.205-1.951,0.346-3.306
	c-0.465-0.48-0.978-1.008-1.659-1.712c0.399-1.547-0.582-2.822-2.051-3.8c1.04-2.239,1.027-2.344-0.665-5.463
	c0.271-0.242,0.536-0.6,0.891-0.764c0.487-0.227,1.036-0.356,1.573-0.441c2.169-0.346,4.015-1.433,5.822-2.568
	c0.558-0.35,1.013-0.944,1.37-1.517c0.845-1.359,1.307-2.832,1.58-4.447C189.661,70.274,189.209,67.525,186.94,65.046z
	 M164.131,85.417c-1.551,1.936-2.296,4.262-3.18,6.525c-0.887,2.272-1.829,4.512-3.483,6.38c-0.787,0.888-1.396,1.931-2.164,2.837
	c-1.026,1.211-2.109,2.373-3.205,3.521c-0.707,0.739-1.479,1.417-2.244,2.143c-1.827-2.981-4.291-5.088-7.211-6.774
	c-0.556,0.212-1.102,0.421-1.652,0.632c-3.842-7.316-9.26-12.806-17.163-15.579c0.123-1.264-0.222-2.162-1.691-2.349
	c1.822-4.051,3.357-8.073,2.909-12.485c0.578-0.774,1.171-1.452,1.633-2.21c1.751-2.874,1.663-5.823,0.297-8.822
	c-0.273-0.599-0.395-1.267-0.577-1.876c0.464-0.373,0.847-0.566,1.062-0.877c0.357-0.517,0.849-1.108,0.851-1.67
	c0.005-1.259-0.118-2.556-0.441-3.771c-0.447-1.684-2.141-2.67-3.836-2.601c-0.935-0.486-1.714-0.892-2.697-1.403
	c-0.019-0.228-0.078-0.656-0.082-1.084c-0.021-2.334-0.546-4.548-1.702-6.573c-1.528-2.674-3.524-4.839-6.362-6.269
	c-1.696-0.854-3.374-1.686-5.202-2.167c-0.996-0.263-2.048-0.52-3.062-0.477c-2.382,0.103-4.764,0.324-7.13,0.618
	c-2.334,0.29-4.469,1.284-6.674,2.05c-2.958,1.029-4.928,3.076-6.547,5.588c-0.347,0.538-0.68,1.123-0.848,1.733
	c-0.646,2.344-1.558,4.628-1.607,7.113c-0.012,0.585-0.214,1.167-0.344,1.827c-1.15,0.55-2.312,1.103-3.471,1.66
	c-2.638,1.267-4.868,3.082-6.868,5.187c-0.773,0.814-1.229,1.815-1.204,2.968c0.037,1.702,1.211,3.109,3.018,3.643
	c0.562,0.167,1.136,0.291,1.748,0.445c-0.183,1.143-0.481,2.209-0.494,3.279c-0.02,1.532,0.031,3.093,0.313,4.592
	c0.246,1.304,1.078,2.337,2.447,2.781c0.233,0.075,0.451,0.195,0.767,0.334c0.391,2.409,0.816,4.844,2.157,7.246
	c-1.914,0.193-3.632,0.616-5.156-0.56c-1.059-0.816-2.011-1.77-3.054-2.7c0.106-0.373,0.231-0.688,0.283-1.015
	c0.181-1.118,0.1-2.162-0.734-3.064c-1.44-1.557-2.841-3.152-4.438-4.932c0.143,0.049-0.001-0.048-0.138-0.04
	c-1.922,0.125-3.281-0.757-4.4-2.261c-2.107-2.834-4.297-5.606-6.435-8.418c-1.957-2.573-3.899-5.159-5.828-7.753
	c-0.443-0.596-0.849-1.229-1.193-1.886c-0.514-0.975-1.147-1.817-1.929-2.616c-1.234-1.261-2.428-2.556-3.262-4.19
	c-0.827-1.619-2.015-3.056-3.175-4.766c-0.118-1.267-0.26-2.792-0.415-4.461c1.15-0.77,2.377-1.597,3.611-2.414
	c2.389-1.581,4.754-3.201,7.181-4.721c3.616-2.266,7.112-4.732,10.999-6.558c1.383-0.649,2.601-1.642,3.947-2.381
	c3.119-1.714,6.286-3.341,9.403-5.059c1.688-0.932,3.314-1.977,4.624-2.764c2.157-0.358,3.908-0.659,5.662-0.938
	c6.018-0.957,12.055-1.337,18.146-0.827c2.35,0.197,4.643,0.644,6.847,1.382c6.82,2.283,13.019,5.74,18.424,10.494
	c1.665,1.465,2.993,3.317,4.46,5.005c3.698,4.257,6.706,9.015,9.866,13.661c0.555,0.814,0.905,1.764,1.406,2.618
	c2.383,4.071,4.869,8.081,6.886,12.358c0.57,1.209,1.306,2.343,1.981,3.501c2.996,5.131,5.139,10.646,7.301,16.153
	c1.163,2.961,2.389,5.897,3.567,8.853c0.329,0.825,0.593,1.676,0.882,2.499C165.005,84.349,164.562,84.879,164.131,85.417z"/>
<path fill-rule="evenodd" clip-rule="evenodd" fill="#8dece4" class="fill" d="M120.922,126.638c1.202-1.116,2.218-1.4,3.453-4.341
	c0.172,0.529,0.394,0.968,0.448,1.427c0.468,3.897,1.026,7.788,1.312,11.699c0.236,3.222-0.004,6.446-0.585,9.652
	c-0.593,3.271-0.694,6.571-0.259,9.905c0.388,2.963,1.06,5.849,1.795,8.73c0.363,1.424,0.254,2.83-0.046,4.385
	c-1.644-0.594-2.222-1.867-2.559-3.269c-0.256-1.06-0.388-2.149-0.528-3.232c-0.336-2.612-0.882-5.151-1.754-7.661
	c-0.538-1.549-1.161-3.042-1.849-4.516c-0.246-0.527-0.633-1.004-1.022-1.443c-0.35-0.393-0.779-0.403-1.294,0.209
	c0.735,3.893,0.365,7.855-1.198,11.666c-0.31,0.755-0.847,1.416-1.211,2.01c-0.979,0.127-1.418-0.297-1.775-0.886
	c-0.829-1.365-1.09-2.857-1.095-4.433c-0.004-0.933-0.125-1.865-0.183-2.662c-0.907-0.975-1.699-1.798-2.459-2.65
	c-1.992-2.232-2.216-4.811-1.353-7.543c0.342-1.085,0.864-2.113,1.278-3.177c0.249-0.639,0.449-1.297,0.666-1.935
	c-1.189-0.539-1.895-0.385-2.807,0.586c-0.646,0.689-1.236,1.434-1.905,2.1c-2.137,2.127-4.714,3.244-7.744,3.315
	c-1.615,0.038-2.901-0.574-3.893-1.829c-0.585-0.742-1.13-1.518-1.737-2.241c-0.292-0.349-0.688-0.61-1.075-0.944
	c-0.925,0.894-1.014,1.92-1.061,2.865c-0.063,1.282,0.092,2.576,0.177,3.863c0.029,0.439,0.128,0.875,0.211,1.42
	c-2.274,1.562-1.392,3.858-1.239,6.289c-0.505-0.389-0.833-0.568-1.063-0.832c-2.033-2.312-4.038-4.648-6.074-6.957
	c-0.477-0.539-1.04-1.002-1.635-1.568c-0.296,0.329-0.477,0.531-0.655,0.729c0.368,0.775,0.827,1.455,1.017,2.204
	c0.362,1.437,0.622,2.905,0.832,4.374c0.338,2.36,0.584,4.733,0.912,7.095c0.059,0.427,0.293,0.841,0.497,1.234
	c0.865,1.665,1.713,3.343,2.646,4.971c0.337,0.589,0.892,1.056,1.357,1.569c1.209,1.334,1.272,2.02,0.327,3.584
	c-0.461,0.764-0.916,1.529-1.341,2.24c-0.84,0.311-1.578,0.582-2.465,0.91c-1.683-1.189-3.649-2.193-5.105-3.693
	c-2.529-2.606-3.568-5.805-2.347-9.449c0.362-1.08,0.746-2.152,1.088-3.136c-0.814-1.937-1.728-3.718-2.323-5.601
	c-1.658-5.234-1.866-10.542-0.456-15.887c0.535-2.027,0.924-4.084,0.67-6.196c-0.13-1.082-0.338-2.154-0.519-3.285
	c1.265,0,2.531-0.216,3.693,0.041c3.479,0.767,5.845-2.82,5.761-5.314c-0.032-0.974-0.351-1.938-0.547-2.905
	c-0.098-0.478-0.214-0.951-0.373-1.654c0.723,0.1,1.291,0.156,1.852,0.26c4.503,0.83,9.01,0.674,13.521,0.07
	c1.017-0.136,2.046-0.318,3.116-0.08c0,0.257,0.039,0.457-0.006,0.636c-0.621,2.474-0.229,4.927,0.06,7.397
	c0.237,2.021,0.288,4.065,0.415,6.1c0.048,0.744,0.116,1.49,0.111,2.235c-0.005,0.831-0.046,1.666-0.141,2.491
	c-0.082,0.723-0.465,1.42-0.163,2.238c0.302,0.028,0.583,0.055,0.874,0.082c0.875-0.908,1.471-1.91,1.739-3.111
	c0.745-3.344,1.49-6.689,2.264-10.027c0.607-2.625,1.081-5.26,0.969-7.971c-0.007-0.188,0.07-0.377,0.131-0.67
	c0.9,0,1.769,0,2.793,0c0,0.515,0.062,1.043-0.014,1.549c-0.131,0.883-0.263,1.781-0.546,2.622
	c-0.642,1.897,0.106,3.536,0.927,5.122c0.288,0.556,0.995,0.895,1.591,1.273c0.712,1.47,0.519,3.092,0.32,4.639
	c-0.344,2.692-0.177,5.367-0.037,8.045c0.08,1.519,0.787,2.871,1.535,4.168c0.166,0.289,0.572,0.439,0.98,0.735
	c0.182-0.444,0.396-0.71,0.373-0.953c-0.149-1.613,0.41-3.038,1.123-4.419c0.976-1.895,2.098-3.723,2.937-5.676
	c0.539-1.256,0.779-2.669,0.962-4.037C121.32,128.4,121.042,127.561,120.922,126.638z M84.309,138.133
	c0.628,0.607,0.1,1.965,1.382,2.371c0.214-0.148,0.429-0.27,0.612-0.427c0.98-0.837,1.933-1.709,2.934-2.52
	c1.12-0.907,2.286-1.757,3.425-2.64c0.582-0.453,0.982-0.987,0.661-1.83c-0.343-0.127-0.705-0.299-1.086-0.393
	c-1.312-0.32-2.212-1.137-2.7-2.351c-0.367-0.916-0.563-1.901-0.878-2.841c-0.281-0.843-0.581-1.684-0.953-2.488
	c-0.118-0.255-0.494-0.391-1.082-0.822C85.989,129.029,84.274,133.361,84.309,138.133z"/>
<path fill-rule="evenodd" clip-rule="evenodd" fill="#8dece4" class="fill" d="M117.301,82.232c-0.275-0.502-0.409-0.948-0.698-1.237
	c-0.969-0.97-1.258-2.233-1.597-3.472c-0.38-1.386-0.706-2.787-1.019-4.032c-2.043-2.467-5.013-3.905-8.893-3.437
	c-0.34-0.289-0.723-0.679-1.166-0.977c-0.439-0.294-0.941-0.498-1.498-0.783c-0.614,0.907,0.101,1.512,0.393,2.174
	c0.298,0.673,0.621,1.334,0.938,2.01c-0.808,0.785-1.694,0.634-2.641,0.388c-0.074,0.694-0.131,1.217-0.186,1.729
	c-0.896,0.87-1.909,0.679-2.948,0.592c-0.17-0.643-0.307-1.157-0.452-1.704c-0.507-0.076-0.972-0.145-1.622-0.242
	c0.771-1.526,2.366-2.272,2.728-3.946c0.347-1.604,0.231-3.142-0.068-4.636c1.058-1.157,1.233-1.207,2.866-0.819
	c0.345,0.322,0.739,0.69,1.127,1.052c2.285-1.89,3.548-2.019,5.66-0.527c-0.27,0.549-0.547,1.116-0.903,1.845
	c0.376,0.297,0.763,0.652,1.197,0.933c0.456,0.296,0.942,0.557,1.442,0.771c2.717,1.162,5.145,0.716,7.244-1.372
	c0.418-0.417,0.775-0.894,1.252-1.45c-0.26-0.283-0.609-0.665-1.029-1.122c1.141-0.757,2.361-1.154,3.823-1.226
	c0.111,0.429,0.259,0.84,0.32,1.265c0.286,1.968,0.539,3.942,0.821,5.911c0.475,3.324-0.386,6.449-1.646,9.436
	c-1.098,2.603-2.506,5.065-4.176,7.379c-0.886,1.228-1.738,2.516-2.113,4.062c-0.232,0.954-0.737,1.842-1.125,2.757
	c-1.037,2.444-2.981,3.736-5.473,4.391c-4.314,1.133-8.702,1.528-13.146,1.427c-1.557-0.036-3.043-0.288-4.429-1.102
	c-2.222-1.306-3.342-3.395-4.001-5.717c-0.73-2.575-1.146-5.24-1.836-7.829c-0.379-1.425-0.947-2.82-1.59-4.151
	c-1.172-2.429-2.339-4.861-2.423-7.607c-0.053-1.729,0.103-3.466,0.208-5.197c0.048-0.786,0.198-1.565,0.315-2.445
	c1.096,0,2.121,0,3.309,0c-0.336,0.861-0.635,1.628-0.942,2.417c0.9,1.248,2.143,1.969,3.574,2.277
	c1.107,0.238,2.262,0.289,3.4,0.343c1.547,0.073,2.64-0.7,3.389-2.013c0.195-0.344,0.334-0.738,0.591-1.027
	c0.982-1.102,1.795-1.104,3.396-0.067c0.013,2.023-0.497,2.972-2.555,4.67c-3.572,0.069-5.826,2.278-7.484,5.23
	c-0.496,0.881-0.738,1.948-0.904,2.961c-0.193,1.188-0.321,2.356-1.068,3.367c-0.188,0.254-0.207,0.634-0.328,1.038
	c1.748,1.515,3.267,0.347,4.888-0.38c0.06,0.256,0.109,0.421,0.136,0.589c0.028,0.187,0.037,0.376,0.048,0.49
	c0.681,0.733,1.452,0.429,2.303,0.398c0.303,0.363,0.678,0.754,0.984,1.193c0.656,0.942,1.553,1.524,2.63,1.853
	c2.447,0.746,4.914,0.661,7.355,0.024c1.671-0.435,3.049-1.424,4.263-2.637c0.349-0.349,0.672-0.723,1.048-1.131
	c0.444,0.232,0.863,0.453,1.279,0.671c1.49-0.511,1.907-1.814,2.356-3.002C114.139,82.328,115.637,83.255,117.301,82.232z
	 M116.102,68.519c0.591,0.758,1.048,0.436,1.48,0.104c0.574-0.441,1.381-0.758,1.099-1.982
	C117.758,67.312,116.986,67.874,116.102,68.519z M83.281,70.688c0.917,0.869,1.661,0.953,2.476,0.282
	C84.19,70.306,84.19,70.306,83.281,70.688z"/>
<path fill-rule="evenodd" clip-rule="evenodd" fill="#8dece4" class="fill" d="M31.261,84.962c-0.243,0.513-0.6,1.001-0.712,1.541
	c-1.064,5.103-2.18,10.199-2.487,15.424c-0.006,0.093-0.068,0.183-0.172,0.444c-0.935,0.209-1.967,0.439-3.103,0.693
	c-0.184-1.479,0.189-2.73,0.541-3.936c0.499-1.712,1.219-3.359,1.804-5.048c0.371-1.078,0.612-2.202,1.012-3.269
	c0.644-1.717,1.377-3.401,2.056-5.104c0.136-0.341,0.198-0.709,0.289-1.046c-0.687-0.336-0.806,0.093-0.987,0.442
	c-1.313,2.519-2.327,5.156-3.198,7.855c-0.533,1.652-1.198,3.264-1.688,4.928c-0.491,1.664-0.863,3.366-1.238,5.062
	c-0.133,0.595-0.307,1.029-1.104,1.004c-0.017-0.266-0.068-0.502-0.037-0.727c0.264-1.868,0.477-3.747,0.833-5.598
	c0.633-3.288,1.632-6.45,3.475-9.298c0.537-0.831,1.085-1.684,1.43-2.602c0.249-0.662,0.213-1.446,0.223-2.178
	c0.006-0.434-0.144-0.87-0.237-1.379c1.055-0.469,2.505-0.351,2.758-1.975c-0.908-0.707-1.649,0.391-2.778,0.183
	c-0.256-0.144-0.771-0.434-1.435-0.808c-0.669-1.603-1.385-3.319-2.111-5.059c1.123-0.146,2.05-0.215,2.953-0.401
	c0.668-0.138,1.171-0.61,1.333-1.283c0.102-0.423,0.014-0.892,0.008-1.614c-1.121,0.956-1.738,2.186-3.195,1.833
	c-1.151-0.279-1.736-1.187-2.569-2.07c1.36-0.321,2.56-0.527,3.706-0.895c1.261-0.405,1.654-1.617,2.161-2.827
	c1.189,1.046,2.473,1.357,3.903,0.875c0.718-0.884,0.718-0.884,0.631-2.048c-0.884,0.139-1.566,1.203-2.844,0.436
	c-0.057-0.054-0.339-0.324-0.654-0.625c-0.369,0-0.758,0-1.167,0c-0.109-0.251-0.207-0.473-0.29-0.662
	c0.646-1.12,1.261-2.19,1.906-3.312c0.853-0.177,1.799-0.374,2.79-0.579c0-0.546,0-0.916,0-1.278
	c-0.903-0.257-1.684,1.09-2.509,0.048c0-1.025,0-2.046,0-3.18c0.502-0.259,1.01,0.104,1.562,0.252
	c2.857,0.765,5.514,0.425,7.805-1.588c0.309-0.271,0.498-0.678,0.947-1.31c-0.656,0.064-0.988,0.023-1.253,0.138
	c-0.729,0.315-1.412,0.736-2.145,1.043c-1.636,0.686-3.302,0.745-4.922-0.026c-1.153-0.549-2.259-1.201-3.453-1.843
	c0.623-1.059,1.143-1.942,1.603-2.724c-0.289-0.927-0.525-1.683-0.78-2.499c-1.711-1.605-3.69-0.668-5.749-0.384
	c0.049-0.473,0.025-0.86,0.135-1.204c0.775-2.446,1.812-4.723,3.954-6.337c0.667-0.502,1.209-1.179,1.779-1.801
	c0.514-0.562,0.626-1.221,0.348-1.943c-0.124-0.324-0.243-0.653-0.325-0.99c-0.313-1.268,0.097-2.229,1.25-2.906
	c1.063,0.294,0.941,1.155,0.958,1.93c0.017,0.742,0.004,1.485,0.004,2.22c0.354,0.698,0.943,0.842,1.64,0.756
	c0.697-0.086,1.225-0.434,1.494-1.083c0.248-0.594,0.47-1.205,0.641-1.825c0.169-0.614,0.4-1.121,1.158-1.208
	c0.657,0.572,0.797,1.402,0.773,2.159c-0.079,2.551,0.923,4.742,2.082,6.902c0.787,1.467,0.787,1.493,0.81,2.795
	c-0.903,0.25-1.839,0.537-2.788,0.765c-2.727,0.655-4.909,2.06-6.492,4.746c0.179,0.714,0.401,1.609,0.59,2.367
	c0.725,0.738,1.511,0.628,2.232,0.56c2.523-0.237,5.04-0.538,7.56-0.809c0.335-0.036,0.673-0.04,1.129-0.064
	c-0.073,1.25-0.093,2.405-0.869,3.643c-0.351-0.549-0.614-0.963-0.927-1.452c-0.272,0.113-0.523,0.218-0.858,0.356
	c0.079,0.57,0.153,1.099,0.233,1.677c0.48,0.294,0.933,0.571,1.469,0.9c-0.439,2.041-0.698,4.148-1.521,6.332
	c-0.427-0.31-0.73-0.514-1.016-0.741c-0.349-0.278-0.681-0.415-1.06,0.063c0.103,0.979,1.065,1.159,1.803,1.771
	c-0.201,0.645-0.416,1.334-0.634,2.037c-0.683,0.298-1.303,0.569-1.991,0.869c-0.384-0.539-0.69-0.969-1.054-1.479
	c-0.281,0.057-0.594,0.12-0.885,0.179c-0.059,1.683-0.052,1.688,3.02,2.288c-0.929,2.653-1.852,5.287-2.888,8.246
	c-0.665-0.726-1.099-1.2-1.764-1.926c0,0.841,0,1.301,0,1.781c0.478,0.299,0.89,0.559,1.451,0.912
	c-0.519,1.281-1.053,2.597-1.596,3.935c0.122,0.341,0.232,0.666,0.353,0.987c1.065,2.834,2.286,5.622,3.16,8.514
	c1.148,3.801,1.293,7.73,0.756,11.671c-0.071,0.528-0.255,1.041-0.454,1.828c-0.505-0.461-0.839-0.764-0.932-0.85
	c0-1.691,0.048-3.08-0.011-4.464c-0.125-2.977-0.423-5.937-1.019-8.861c-0.337-1.655-0.673-3.311-0.992-4.969
	c-0.092-0.475-0.196-0.885-0.907-0.773c-0.312,0.909-0.094,1.807,0.085,2.711c0.837,4.235,1.739,8.463,1.716,12.812
	c-0.004,0.624-0.09,1.247-0.157,2.141c-0.96-0.623-1.689-1.098-2.315-1.506c0-5.552,0-10.961,0-16.449
	c-0.343-0.042-0.611-0.076-1.034-0.127c0,5.492,0,10.889,0,16.206c-1.126,0.612-1.816,0.751-3.064,0.622
	c0.136-1.412,0.245-2.832,0.417-4.245c0.172-1.429,0.386-2.854,0.621-4.273c0.235-1.421,0.494-2.84,0.787-4.25
	c0.279-1.345,0.705-2.664,0.877-4.021C31.687,85.062,31.474,85.012,31.261,84.962z M31.348,41.772
	c-0.402,0.204-0.993,0.459-1.539,0.788c-0.791,0.478-1.359,1.139-1.514,2.1c-0.137,0.85,0.053,1.363,0.81,1.71
	c1.304,0.599,2.601,0.398,3.892-0.113c1.057-0.417,0.946-1.407,1.171-2.237c0.024-0.09-0.007-0.195,0.005,0.024
	C33.864,42.413,33.005,41.812,31.348,41.772z M31.652,70.017c-0.942,0.668-1,0.902-0.558,1.98c0.64,1.558,1.33,1.873,3.324,1.519
	c1.237-0.997,1.31-1.178,0.875-2.263c-0.843-0.014-1.455,1.161-2.591,0.419C32.42,71.226,32.037,70.622,31.652,70.017z
	 M39.817,58.994c-0.256,0.2-0.478,0.363-0.686,0.541c-1.157,0.985-1.872,0.953-2.895-0.176c-0.308-0.34-0.559-0.721-1.159-0.492
	c-0.36,1.05,0.139,1.828,0.976,2.356c0.837,0.528,1.78,0.969,2.783,0.345C39.75,61.001,40.082,60.135,39.817,58.994z M31.948,75.445
	c-0.833,0.523-1.408,1.352-2.599,0.723c-0.093-0.124-0.352-0.472-0.619-0.832c-0.471,0.14-0.829,0.247-1.208,0.361
	c-0.167,1.168,0.647,1.612,1.379,1.907c1.178,0.474,2.299,0.181,3.335-0.766C32.156,76.45,32.073,76.051,31.948,75.445z
	 M32.353,63.231c1.085,1.782,1.681,2.004,3.833,1.51c0.351-0.5,0.954-0.979,0.229-1.758c-1.143,0.673-2.243,0.685-3.211-0.332
	C32.896,62.861,32.664,63.019,32.353,63.231z"/>
<path fill-rule="evenodd" clip-rule="evenodd" fill="#8dece4" class="fill" d="M167.769,103.523c-0.749,0.877-1.645,1.7-2.269,2.694
	c-2.503,3.984-4.894,8.038-7.385,12.03c-0.782,1.252-1.669,2.461-2.646,3.568c-1.936,2.193-3.896,4.375-5.989,6.416
	c-1.123,1.095-2.477,1.998-3.844,2.785c-1.501,0.863-2.885,0.154-3.249-1.557c-0.663-3.121,0.016-5.962,1.678-8.687
	c1.433-2.347,3.253-4.383,4.816-6.612c1.142-1.627,2.46-3.236,2.613-5.409c0.036-0.514,0.458-1.134,0.889-1.464
	c2.685-2.073,4.555-4.787,6.317-7.625c1.82-2.932,3.231-6.032,4.334-9.295c0.626-1.85,1.475-3.663,3.066-4.848
	c1.485-1.107,2.939-2.413,5.121-2.521c0.62,0.518,1.299,1.506,2.381,1.16c0.842-0.268,1.563-0.908,2.359-1.395
	c0.152,1.203-1.025,1.289-1.648,1.774c-0.631,0.492-1.443,0.751-2.229,1.017c-0.883,0.799-1.856,1.352-3.059,1.709
	c-2.204,0.656-3.485,3.026-2.496,5.55c-0.56,1.564-0.663,3.088,0.007,4.734c0.494,1.217,0.548,2.614,0.806,3.929
	C167.464,102.104,167.602,102.726,167.769,103.523z"/>
<path fill-rule="evenodd" clip-rule="evenodd" fill="#8dece4" class="fill" d="M73.077,60.376c0.112-0.6,0.068-1.367,0.394-1.914
	c0.833-1.398,1.663-2.872,2.811-3.989c1.113-1.083,2.542-1.939,3.972-2.581c3.539-1.588,7.234-2.682,11.089-3.314
	c6.118-1.006,12.271-1.006,18.432-0.945c1.985,0.02,3.973,0.135,5.954,0.277c1.116,0.081,2.223,0.306,3.489,0.488
	c-0.228,0.345-0.346,0.687-0.586,0.861c-1.36,0.989-2.691,2.043-4.146,2.875c-1.678,0.958-3.487,1.683-5.217,2.554
	c-3.887,1.958-8.108,2.946-12.217,4.262c-0.654,0.21-1.365,0.251-2.054,0.343c-3.197,0.426-6.399,0.823-9.594,1.271
	c-1.765,0.248-3.51,0.673-5.28,0.843c-1.474,0.141-2.974,0.047-4.462,0.015C74.749,61.401,73.912,61.117,73.077,60.376z"/>
<path fill-rule="evenodd" clip-rule="evenodd" fill="#8dece4" class="fill" d="M114.156,46.446c-5.197,0.123-10.204,0.205-15.209,0.37
	c-4.962,0.164-9.83,1.072-14.829,2.251c0.312-4.094,0.942-7.754,3.684-10.803c3.08-3.425,7.054-4.906,11.409-5.553
	c2.703-0.401,5.437-0.472,8.147,0.255c1.725,0.463,3.08,1.25,3.881,2.926c1.42,2.972,2.599,6.011,2.912,9.322
	C114.188,45.601,114.156,45.995,114.156,46.446z"/>
<path fill-rule="evenodd" clip-rule="evenodd" fill="#8dece4" class="fill" d="M83.977,99.031c0.5,0.393,1.033,0.751,1.493,1.186
	c1.443,1.364,2.801,2.824,4.297,4.124c3.134,2.722,6.763,3.644,10.831,2.694c1.254-0.293,2.5-0.621,3.756-0.908
	c2.454-0.561,4.396-2.019,6.311-3.539c0.36-0.287,0.768-0.518,1.35-0.904c0,0.625,0,0.963,0,1.3
	c-0.003,0.985,0.029,1.972-0.021,2.954c-0.043,0.835-0.173,1.666-0.28,2.496c-0.253,1.958-0.517,3.915-0.779,5.893
	c-0.044,0.009-0.156,0.071-0.23,0.041c-2.405-0.966-4.652-0.327-6.915,0.577c-0.76,0.304-1.645,0.299-2.475,0.42
	c-4.633,0.673-9.273,1.161-13.955,0.53c-0.835-0.111-1.664-0.268-2.691-0.436c-0.223-0.811-0.536-1.64-0.671-2.497
	c-0.567-3.595-0.729-7.21-0.45-10.845c0.075-0.973,0.065-1.952,0.095-2.929C83.753,99.136,83.865,99.083,83.977,99.031z"/>
<path fill-rule="evenodd" clip-rule="evenodd" fill="#8dece4" class="fill" d="M44.729,64.613c1.566-4.386,1.973-8.976,1.316-13.837
	c-0.688-0.021-1.329-0.143-1.93-0.04c-2.348,0.405-4.678,0.903-7.022,1.321c-0.763,0.136-1.55,0.133-2.409,0.2
	c-0.133-0.511-0.224-0.859-0.352-1.35c0.346,0.036,0.549,0.005,0.697,0.082c1.108,0.574,2.009,0.361,2.709-0.656
	c0.102-0.594,0.2-1.173,0.306-1.786c1.096-0.42,2.157-0.828,3.205-1.23c1.294,0.256,2.554,0.493,3.81,0.757
	c1.143,0.24,1.914,0.947,2.49,1.949c2.534,4.414,5.602,8.413,9.164,12.061c1.445,1.479,2.589,3.258,3.843,4.919
	c0.864,1.146,1.686,2.326,2.599,3.591c-1.404,1.317-2.822,2.479-4.029,3.829c-1.216,1.359-2.224,2.905-3.318,4.365
	C54.453,77.818,45.53,66.378,44.729,64.613z"/>
<path fill-rule="evenodd" clip-rule="evenodd" fill="#8dece4" class="fill" d="M123.638,114.891c-0.692-4.251,1-22.63,2.251-25.401
	c2.821,1.657,5.018,4.015,7.229,6.336c2.248,2.358,3.793,5.205,5.275,8.129c-0.41,0.859-8.16,10.77-9.125,11.634
	C127.506,114.838,125.606,115.014,123.638,114.891z"/>
<path fill-rule="evenodd" clip-rule="evenodd" fill="#8dece4" class="fill" d="M74.476,123.334c-0.274-0.643-0.717-1.332-0.86-2.08
	c-0.392-2.044-0.677-4.109-0.965-6.171c-0.234-1.684-0.075-3.351,0.148-5.038c0.327-2.46,0.444-4.948,0.65-7.426
	c0.136-1.633,0.222-3.271,0.411-4.898c0.448-3.847,0.907-7.693,1.449-11.526c0.157-1.115,0.609-2.188,0.944-3.345
	c1.634,0,3.204,0,4.908,0c0,0.338,0.063,0.587-0.01,0.787c-0.742,2.04-0.837,4.189-1.007,6.311c-0.265,3.315-0.49,6.638-0.568,9.961
	c-0.061,2.523,0.125,5.052,0.217,7.579c0.099,2.684,0.19,5.368,0.332,8.049c0.063,1.189,0.268,2.37,0.365,3.558
	c0.136,1.65-0.203,2.826-1.224,4.406C77.795,124.015,76.293,123.944,74.476,123.334z M77.064,116.412
	c-0.616,0.375-1.274,0.723-1.874,1.152c-0.897,0.644-1.197,1.752-0.822,2.787c0.313,0.866,1.37,1.484,2.4,1.402
	c0.96-0.077,1.627-0.665,1.764-1.707c0.083-0.631,0.015-1.283-0.016-1.925C78.474,117.221,78.008,116.655,77.064,116.412z"/>
<path fill-rule="evenodd" clip-rule="evenodd" fill="#8dece4" class="fill" d="M122.553,84.134c-0.071,0.557-0.091,1.102-0.219,1.621
	c-0.669,2.713-1.091,5.463-1.188,8.252c-0.177,5.018-0.373,10.036-0.419,15.057c-0.032,3.675,0.147,7.354,0.268,11.029
	c0.024,0.735-0.102,1.362-0.572,1.938c-0.651,0.797-1.269,1.624-1.978,2.539c-1.181-0.092-2.311-0.156-3.436-0.273
	c-1.001-0.104-1.661-0.721-1.91-1.648c-0.229-0.85-0.414-1.752-0.385-2.623c0.098-2.979,0.262-5.955,0.472-8.928
	c0.145-2.031,0.399-4.054,0.619-6.079c0.247-2.269,0.503-4.535,0.771-6.801c0.051-0.437,0.094-0.902,0.277-1.291
	c1.628-3.456,3.273-6.904,4.947-10.338c0.368-0.755,0.861-1.448,1.312-2.161C121.405,83.96,121.788,83.703,122.553,84.134z
	 M118.296,118.587c-0.591-0.083-1.03-0.184-1.473-0.2c-1.248-0.047-2.608,1.387-2.511,2.616c0.082,1.036,1.27,1.796,2.593,1.659
	c1.655-0.172,2.285-1.018,2.239-3.105C118.902,119.279,118.612,118.949,118.296,118.587z"/>
<path fill-rule="evenodd" clip-rule="evenodd" fill="#8dece4" class="fill" d="M70.066,106.563c-4.819-3.499-6.801-8.396-8.927-13.261
	c0.82-1.048,1.535-1.998,2.29-2.915c1.265-1.534,2.279-3.215,3.129-5.011c1.013-2.14,2.641-3.806,4.321-5.53
	c1.15,1.074,2.227,2.079,3.424,3.197c-0.207,1.485-0.23,3.055-0.666,4.5c-1.203,3.998-2.035,8.074-2.834,12.16
	c-0.293,1.501-0.353,3.047-0.515,4.574C70.223,104.905,70.167,105.534,70.066,106.563z"/>
<path fill-rule="evenodd" clip-rule="evenodd" fill="#8dece4" class="fill" d="M66.734,70.717c0.436,2.714,2.826,3.524,4.269,5.128
	c0.01,1.081-0.634,1.677-1.324,2.267c-0.523,0.448-1.063,0.9-1.487,1.436c-1.69,2.138-3.316,4.328-5.012,6.462
	c-1.046,1.317-2.191,2.557-3.261,3.856c-0.815,0.991-1.572,2.03-2.381,3.027c-0.212,0.263-0.52,0.449-0.842,0.72
	c-1.784-0.654-3.386-1.568-4.666-2.891c-0.221-1.098,0.061-1.934,0.734-2.702c0.521-0.594,0.979-1.251,1.402-1.919
	c1.592-2.511,3.102-5.075,4.747-7.549c1.851-2.784,4.117-5.21,6.769-7.26C65.908,71.117,66.188,71.012,66.734,70.717z"/>
<path fill-rule="evenodd" clip-rule="evenodd" fill="#8dece4" class="fill" d="M141.994,102.63c2.292,1.683,4.293,3.493,6.066,5.683
	c-0.635,1.926-1.688,3.54-2.747,5.152c-1.342,2.042-3.372,3.357-5.195,4.875c-1.762,1.465-3.293,3.132-4.805,4.832
	c-0.716,0.806-1.404,1.638-2.16,2.521c-0.529-0.268-1.005-0.508-1.518-0.768c-0.187-2.891-0.371-5.742-0.55-8.531
	c2.283-1.997,3.958-4.332,5.657-6.648C138.44,107.435,140.148,105.131,141.994,102.63z"/>
<path fill-rule="evenodd" clip-rule="evenodd" fill="#8dece4" class="fill" d="M125.694,55.904c-0.334,0.084-0.615,0.155-0.924,0.232
	c-0.479,0.847-0.961,1.701-1.361,2.413c-1.353,0.73-1.683-0.361-2.291-1.075c-0.556,0.219-1.087,0.43-1.596,0.631
	c-0.966,0.021-1.114-0.885-1.6-1.392c-0.508,0-0.987,0-1.543,0c-0.249-1.307,0.985-1.764,1.435-2.742
	c-0.115-0.19-0.262-0.429-0.452-0.742c0.168-0.123,0.347-0.253,0.548-0.398c0-0.266,0-0.547,0-0.78
	c1.392-0.856,2.155-2.544,4.022-2.753c0.242,0.347,0.485,0.692,0.781,1.114c0.552-0.087,1.127-0.178,1.696-0.268
	c1.434,0.667,1.541,0.927,1.095,2.799C126.267,53.775,126.104,54.773,125.694,55.904z"/>
<path fill-rule="evenodd" clip-rule="evenodd" fill="#8dece4" class="fill" d="M178.718,91.938c-2.809,2.757-5.979,4.519-9.948,4.483
	c-0.488-1.437-0.487-1.467,0.138-2.623c0.268,0.915,0.722,1.625,1.588,1.809c0.438,0.093,0.933-0.086,1.488-0.152
	c0.264-0.886,0.5-1.673,0.717-2.402c-0.392-0.525-0.684-0.915-1.096-1.468c1.582-0.623,3.084-1.215,4.55-1.792
	C177.176,90.411,178.21,90.815,178.718,91.938z"/>
<path fill-rule="evenodd" clip-rule="evenodd" fill="#8dece4" class="fill" d="M93.571,66.489c-0.315,0.584-0.546,1.211-0.949,1.692
	c-0.335,0.399-0.836,0.729-1.33,0.912c-1.869,0.694-4.881-0.026-6.39-1.457c0.238-1.837,1.653-3.334,3.406-3.605
	C90.591,63.68,92.611,64.575,93.571,66.489z M90.329,67.798c0.544-0.854,0.525-1.614-0.084-2.43
	c-0.518-0.035-1.048-0.071-1.641-0.111c-0.338,0.357-0.662,0.701-0.938,0.992C88.097,67.935,88.529,68.18,90.329,67.798z"/>
<path fill-rule="evenodd" clip-rule="evenodd" fill="#8dece4" class="fill" d="M110.448,82.459c-1.499-0.913-2.332-1.899-2.815-3.309
	c-0.576-1.678-1.402-3.271-2.18-5.037c0.084-0.104,0.262-0.323,0.426-0.526c2.404,0.657,4.933,3.057,4.831,5.115
	C110.651,79.869,110.549,81.032,110.448,82.459z"/>
<path fill-rule="evenodd" clip-rule="evenodd" fill="#8dece4" class="fill" d="M94.592,84.264c1.203,0.163,1.813,0.915,2.49,1.458
	c1.306,0.084,1.496-1.159,2.222-1.826c0.534,0.504,1.028,0.971,1.5,1.416c1.271-0.061,1.69-1.227,2.688-1.841
	c0.478,0.666,0.951,1.324,1.413,1.966C101.98,88.817,96.669,88.283,94.592,84.264z"/>
<path fill-rule="evenodd" clip-rule="evenodd" fill="#8dece4" class="fill" d="M116.832,65.22c-2.015,2.79-4.936,3.229-7.858,0.864
	c0.12-1.289,0.121-1.29,1.157-2.752c1.114-0.354,2.245-0.906,3.615-0.477C115.063,63.268,115.842,64.279,116.832,65.22z
	 M113.237,66.882c1.205-1.688,1.084-2.104-0.714-2.885c-0.402,0.264-0.877,0.575-1.398,0.916c0.058,0.493,0.108,0.914,0.175,1.485
	C111.976,66.567,112.605,66.725,113.237,66.882z"/>
<path fill-rule="evenodd" clip-rule="evenodd" fill="#8dece4" class="fill" d="M173.021,97.036c1.581-0.87,3.045-1.675,4.705-2.588
	c0.653,0.374,1.445,0.828,2.258,1.294c-0.383,1.304-1.079,2.105-2.258,2.499c-1.624,0.543-3.236,1.121-5.021,1.742
	C173.408,98.33,173.413,98.256,173.021,97.036z"/>
<path fill-rule="evenodd" clip-rule="evenodd" fill="#8dece4" class="fill" d="M18.575,57.394c2.158-1.063,4.383-0.636,6.834-0.369
	c-0.418,0.501-0.712,0.854-1.007,1.208c0.049,1.221,0.049,1.221,1.509,1.737c0.536-0.311,1.162-0.673,1.896-1.099
	c-0.02,0.252,0.042,0.564-0.064,0.642c-0.386,0.278-0.814,0.638-1.251,0.675c-1.183,0.1-2.382,0.099-3.569,0.043
	c-0.938-0.043-1.876-0.189-2.801-0.36C18.84,59.636,18.469,59.078,18.575,57.394z"/>
<path fill-rule="evenodd" clip-rule="evenodd" fill="#8dece4" class="fill" d="M114.114,81.61c-0.768-0.562-1.386-1.016-2.062-1.512
	c-0.085-0.486-0.248-1.018-0.26-1.552c-0.038-1.568-0.804-2.742-1.965-3.674c-0.884-0.71-1.837-1.336-2.78-1.968
	c-0.403-0.271-0.921-0.411-0.89-1.136c0.733-0.468,1.502-0.137,2.234,0.038c2.203,0.527,3.666,1.871,4.277,4.078
	c0.212,0.763,0.359,1.544,0.553,2.312C113.481,79.226,113.759,80.252,114.114,81.61z"/>
<path fill-rule="evenodd" clip-rule="evenodd" fill="#8dece4" class="fill" d="M96.896,83.649c-1.886-1.258-2.279-2.15-1.726-4.13
	c0.302-1.077,0.732-2.118,1.144-3.288c0.823,0.449,1.495,0.815,2.215,1.209c0.087,0.673,0.276,1.36,0.233,2.033
	c-0.043,0.665-0.235,1.354-0.518,1.961C97.896,82.184,97.388,82.858,96.896,83.649z"/>
<path fill-rule="evenodd" clip-rule="evenodd" fill="#8dece4" class="fill" d="M177.816,86.543c-0.996,2.519-3.498,2.533-5.329,3.509
	c-0.32-0.784-0.603-1.471-0.951-2.321c1.083-0.918,2.413-1.754,3.854-2.379C176.249,84.979,176.965,85.381,177.816,86.543z"/>
<path fill-rule="evenodd" clip-rule="evenodd" fill="#8dece4" class="fill" d="M103.527,74.878c0.258,0,0.54,0,0.771,0
	c1.499,1.648,2.048,3.655,2.708,5.733c-0.431,0.71-0.876,1.447-1.446,2.391c-0.629-1.067-1.125-1.907-1.62-2.747
	c0.039-0.012,0.078-0.024,0.117-0.036c-0.152-0.665-0.247-1.349-0.474-1.987c-0.212-0.602-0.563-1.154-0.868-1.759
	C102.977,75.96,103.237,75.446,103.527,74.878z"/>
<path fill-rule="evenodd" clip-rule="evenodd" fill="#8dece4" class="fill" d="M101.334,82.777c-1.053-0.844-1.663-1.772-1.62-3.096
	c0.025-0.776-0.099-1.557-0.161-2.406c0.757-0.224,1.411-0.418,2.028-0.601c1.022,1.235,1.33,2.023,1.494,3.812
	C102.529,81.193,102.544,82.424,101.334,82.777z"/>
<path fill-rule="evenodd" clip-rule="evenodd" fill="#8dece4" class="fill" d="M93.938,73.699c0.544,0.686,0.01,0.991-0.34,1.291
	c-1.434,1.226-2.006,2.938-2.614,4.617c-0.182,0.5-0.146,1.077-0.224,1.729c-0.313,0.754-0.969,1.202-1.86,1.389
	C88.939,78.798,89.929,75.448,93.938,73.699z"/>
<path fill-rule="evenodd" clip-rule="evenodd" fill="#8dece4" class="fill" d="M25.736,63.308c-0.415,0.73-1.129,0.528-1.725,0.471
	c-1.569-0.151-3.13-0.392-4.827-0.614c-0.258-0.289-0.568-0.635-0.821-0.919c0.213-0.794,0.704-1.055,1.263-1.062
	c1.667-0.024,3.335,0.018,5.119,0.035c-0.06,0.662-0.103,1.136-0.144,1.588c0.265,0.51,0.527,0.919,1.148,0.521L25.736,63.308z"/>
<path fill-rule="evenodd" clip-rule="evenodd" fill="#8dece4" class="fill" d="M24.563,68.372c-2.376,0.455-4.416-0.836-4.665-2.956
	c0.243-0.103,0.509-0.317,0.77-0.31c1.533,0.043,3.075,0.06,4.594,0.253c0.577,0.074,1.099,0.591,1.535,0.843
	c0.296,1.086-0.151,1.591-1.036,1.978c0.136-0.566,0.254-1.055,0.398-1.652c-0.454-0.246-0.873-0.473-1.201-0.651
	c-1.08,0.145-1.14,0.817-1.094,1.643C24.065,67.764,24.303,68.054,24.563,68.372z"/>
<path fill-rule="evenodd" clip-rule="evenodd" fill="#8dece4" class="fill" d="M92.363,83.504c-1.424-2.688,0.151-4.788,1.106-6.943
	c0.328-0.741,1.084-1.366,2.108-1.422c-0.514,1.495-1.01,2.906-1.478,4.328c-0.121,0.37-0.276,0.797-0.198,1.15
	C94.218,82.044,93.472,82.845,92.363,83.504z"/>
<path fill-rule="evenodd" clip-rule="evenodd" fill="#8dece4" class="fill" d="M178.467,99.075c0.71,0.221,1.318,0.409,1.989,0.618
	c0.184,0.515,0.359,1.006,0.567,1.587c-1.588,1.003-3.325,0.79-4.99,1.286c-0.172-0.811-0.321-1.508-0.5-2.35
	C176.479,99.849,177.433,99.478,178.467,99.075z"/>
<path fill-rule="evenodd" clip-rule="evenodd" fill="#8dece4" class="fill" d="M21.48,53.069c-0.439-0.202-0.748-0.343-1.152-0.528
	c-0.057-0.456-0.116-0.924-0.17-1.351c1.262-1.436,3.031-0.945,4.506-1.701c0.037,0.794,0.065,1.399,0.096,2.056
	C23.799,52.235,22.293,51.796,21.48,53.069z"/>
<path fill-rule="evenodd" clip-rule="evenodd" fill="#8dece4" class="fill" d="M170.342,88.731c0.868,0.608,0.862,1.166,0.479,1.993
	c-0.438-0.123-0.883-0.247-1.527-0.427C169.708,89.678,169.987,89.262,170.342,88.731z"/>
<path fill-rule="evenodd" clip-rule="evenodd" fill="#8dece4" class="fill" d="M27.354,51.348c-0.047-0.823-0.085-1.477-0.125-2.186
	c0.818-0.075,0.952,0.493,1.039,1.002C28.366,50.75,28.185,51.229,27.354,51.348z"/>
<path fill-rule="evenodd" clip-rule="evenodd" fill="#8dece4" class="fill" d="M174.522,101.19c0,0.446,0,0.892,0,1.591
	c-0.551-0.256-0.902-0.418-1.501-0.695c0.493-0.486,0.804-0.791,1.114-1.096C174.265,101.057,174.394,101.123,174.522,101.19z"/>
<path fill-rule="evenodd" clip-rule="evenodd" fill="#8dece4" class="fill" d="M25.75,63.327c1.104-0.104,1.07-1.143,1.547-2.021
	c0.252,0.409,0.427,0.693,0.605,0.983c-0.611,0.778-1.149,1.411-2.166,1.018L25.75,63.327z"/>
<path fill-rule="evenodd" clip-rule="evenodd" fill="#8dece4" class="fill" d="M170.968,94.617c-0.256-0.147-0.351-0.183-0.421-0.247
	c-0.071-0.064-0.117-0.156-0.267-0.361c0.178-0.339,0.386-0.738,0.633-1.211C171.803,93.519,171.277,94.007,170.968,94.617z"/>
<path fill-rule="evenodd" clip-rule="evenodd" fill="#8dece4" class="fill" d="M172.71,82.518c0.43-0.096,0.859-0.191,1.386-0.308
	C173.66,83.308,173.66,83.308,172.71,82.518z"/>
<path fill-rule="evenodd" clip-rule="evenodd" fill="#8dece4" class="fill" d="M36.88,49.253c-0.059,0.342-0.116,0.685-0.191,1.126
	c-0.346-0.068-0.588-0.116-1.057-0.209c0.432-0.452,0.72-0.753,1.007-1.055C36.72,49.161,36.8,49.207,36.88,49.253z"/>
<path fill-rule="evenodd" clip-rule="evenodd" fill="#8dece4" class="fill" d="M25.465,58.362c0.223-0.118,0.444-0.235,0.746-0.394
	c0.083,0.294,0.132,0.464,0.216,0.762c-0.364,0-0.633,0-0.9,0C25.506,58.607,25.485,58.485,25.465,58.362z"/>
<path fill-rule="evenodd" clip-rule="evenodd" fill="#8dece4" class="fill" d="M170.087,98.625c0.056,0.242,0.111,0.484,0.166,0.726
	c-0.094,0.029-0.188,0.059-0.281,0.088c-0.086-0.257-0.172-0.514-0.257-0.771C169.839,98.654,169.964,98.64,170.087,98.625z"/>
<path fill-rule="evenodd" clip-rule="evenodd" fill="#8dece4" class="fill" d="M172.161,98.137c-0.075,0.225-0.15,0.449-0.266,0.792
	C171.384,98.473,171.513,98.242,172.161,98.137z"/>
<path fill-rule="evenodd" clip-rule="evenodd" fill="#8dece4" class="fill" d="M170.726,99.787c0.143,0.038,0.291,0.058,0.421,0.118
	c0.11,0.05,0.2,0.147,0.565,0.427c-0.562-0.09-0.808-0.129-1.057-0.17C170.69,99.976,170.707,99.886,170.726,99.787z"/>
<path fill-rule="evenodd" clip-rule="evenodd" fill="#8dece4" class="fill" d="M32.792,45.156c-1.025,0.611-2.048,0.681-3.286,0.124
	c0.117-0.571,0.229-1.116,0.32-1.564c0.966-0.715,1.858-1.241,2.844-0.542C33.328,43.641,33.301,44.363,32.792,45.156z
	 M30.63,44.302c0.686,0.524,1.037,0.354,1.256-0.418C31.219,43.401,30.906,43.679,30.63,44.302z"/>
<path fill-rule="evenodd" clip-rule="evenodd" fill="#8dece4" class="fill" d="M77.285,117.662c0.64,0.729,0.513,1.529,0.234,2.253
	c-0.146,0.376-0.622,0.622-0.891,0.872c-1.05-0.442-1.214-1.134-1.019-1.918C75.816,118.036,76.484,117.762,77.285,117.662z"/>
<path fill-rule="evenodd" clip-rule="evenodd" fill="#8dece4" class="fill" d="M115.532,120.885c0.137-0.344,0.258-0.651,0.406-1.026
	c0.602-0.138,1.195-0.272,1.814-0.414c0.383,0.834,0.356,1.449-0.268,1.866C116.835,121.745,116.182,121.662,115.532,120.885z"/>
</svg>
