<svg version="1.1" id="svg" xmlns="http://www.w3.org/2000/svg" xmlns:xlink="http://www.w3.org/1999/xlink" x="0px" y="0px"
	 width="200px" height="200px" viewBox="0 0 200 200" enable-background="new 0 0 200 200" xml:space="preserve">
<path class="stroke" fill="#324c2a"  fill-rule="evenodd" clip-rule="evenodd" d="M66.147,175.747c-4.02,0.258-7.864,0.099-11.655-0.93
	c-1.363-0.369-2.777-0.539-4.153-0.864c-5.397-1.272-10.765-2.649-15.864-4.812c-1.029,1.518-1.116,2.115-0.91,5.996
	c0.703,0.562,1.674,0.446,2.513,0.878c0.177,0.315,0.38,0.676,0.604,1.072c-0.293,1.133-0.592,2.288-0.877,3.384
	c-2.601,1.236-8.133,0.457-12.15-1.729c-0.585-3.168-0.213-6.422,0.063-9.704c0.277-3.29,0.772-6.548,1.245-9.705
	c-0.588-0.732-1.515-0.929-1.678-2.144c-0.006,0.105-0.057-0.133,0.029-0.302c1.061-2.094,1.686-4.403,3.104-6.32
	c0.812-1.099,1.773-1.686,3.24-1.208c2.188,0.71,4.427,1.265,6.622,1.953c0.935,0.292,1.856,0.341,2.787,0.173
	c4.499-0.817,9.071-0.94,13.595-1.515c1.744-0.221,3.561-0.221,5.283-1.188c-0.135-2.436,0.161-4.863,0.658-7.344
	c-1.127-1.803-2.529-3.424-3.972-5.014c-1.99-2.19-3.657-4.591-4.804-7.334c-0.703-1.687-0.457-2.688,0.938-3.894
	c1.113-0.965,2.387-1.69,3.635-2.441c0.038-0.681-0.363-1.122-0.678-1.585c-1.68-2.477-3.17-5.071-4.549-7.719
	c-0.848-1.628-1.963-2.664-3.806-2.858c-0.257-0.026-0.511-0.104-0.784-0.163c-2.338-3.342-4.672-6.68-7.023-10.042
	c1.117-1.335,2.596-0.373,3.777-0.836c1.266-0.65,1.373-2.3,2.611-3.099c1.043,0.737,1.502,1.898,1.966,2.941
	c0.919,2.065,2.058,4.005,3.325,5.841c1.172,1.698,1.589,3.271,0.349,5.114c2.247,3.82,4.392,7.626,6.845,11.329
	c1.761-0.748,3.379-1.436,5.135-2.18c-1.971-4.019-3.586-8.043-5.24-12.098c-0.807-0.385-1.572-0.897-2.414-1.116
	c-1.754-0.455-2.799-1.597-3.374-3.2c-0.883-2.464-1.775-4.921-2.835-7.316c-0.126-0.286-0.228-0.593-0.007-1.012
	c0.931-0.529,1.958,0.019,3.001-0.004c1.034-0.415,0.92-1.856,2.137-2.391c1.141,0.945,1.779,2.324,2.34,3.682
	c0.961,2.328,2.158,4.53,3.283,6.829c0.186,1.162-0.421,2.181-0.891,3.333c1.79,4.392,4.104,8.581,6.18,12.743
	c1.121,0.163,1.751-0.34,2.525-0.69c-0.447-1.615-1.33-2.979-1.978-4.443c-1.675-3.785-3.407-7.549-4.396-11.593
	c-0.086-0.355-0.121-0.72-0.336-1.04c-1.904-2.866-2.574-6.293-4.195-9.288c-0.205-0.381-0.289-0.79,0.01-1.208
	c0.613-0.542,1.424-0.02,2.227-0.391c-0.664-2.04-1.396-4.093-1.541-6.277c-2.223-0.556-4.443-0.423-6.61-0.745
	c-4.273-0.639-8.194-2.184-11.669-4.762c-0.764-0.566-1.646-0.914-2.422-1.524c-0.256-0.577-0.326-1.248-0.852-1.766
	c-0.715-0.707-0.648-1.585-0.237-2.477c0.518-1.124,1.321-2.015,2.231-2.807c1.5-1.308,3.037-2.576,4.568-3.847
	c1.262-1.047,2.676-1.814,4.195-2.443c2.719-1.123,5.44-2.202,8.375-2.632c0.552-0.082,1.154-0.089,1.6-0.632
	c-0.619-0.813-1.656-1.282-2.104-2.498c1.916-0.627,3.725-1.401,4.994-3.168c-0.782-0.41-1.555-0.657-2.339-0.9
	c-0.807-0.25-1.479-0.758-2.146-1.384c0.609-1.931,1.754-3.423,3.76-3.807c4.045-0.777,5.871-3.578,6.81-7.171
	c1.231-4.711,3.587-8.695,7.284-11.856c2.746-2.349,5.836-4.058,9.383-4.918c2.6-0.629,5.162-1.414,7.869-1.433
	c3.311-0.021,6.602,0.263,9.828,0.973c1.932,0.426,3.402,1.812,4.982,2.921c1.025,0.718,1.942,1.569,2.945,2.318
	c2.903,2.175,5.056,4.968,6.484,8.285c-0.072,1.074-0.139,2.104-0.211,3.205c0.863,0.061,1.186-0.57,1.619-0.939
	c2.643-2.245,4.93-4.85,7.391-7.282c3.057-3.023,5.91-6.247,9.078-9.156c0.709-0.65,1.223-1.395,1.576-2.304
	c0.645-1.666,1.518-3.216,2.648-4.618c0.65-0.809,1.43-1.135,2.473-1.03c1.568,0.16,2.939,0.801,4.17,1.7
	c0.629,0.458,1.26,0.935,1.854,1.41c0.466,0.785,0.119,1.445-0.276,2.073c-1.226,1.955-2.3,3.988-3.335,6.05
	c-0.5,0.996-0.812,2.028-1.104,2.977c0.365,1.605,1.404,2.459,2.775,2.862c3.715,1.092,7.281,2.604,11.088,3.465
	c2.523,0.57,4.898,1.804,7.34,2.737c0.49,0.188,0.971,0.406,1.473,0.543c2.08,0.562,3.609,1.859,4.812,3.583
	c1.615,2.315,2.596,4.877,3.126,7.656c0.632,3.298,0.27,6.569,0.022,9.852c-0.068,0.933-0.279,1.857-0.123,2.794
	c0.527,0.346,1.062,0.129,1.658,0.206c1.026-0.868,2.15-0.918,3.424-0.27c0.873,0.443,1.879,0.624,2.846,0.927
	c0.424,0.805,0.429,1.505-0.392,2.16c-1.124,0.135-2.284,0.464-3.604,0.423c0.525,1.793-0.117,3.577,0.722,5.435
	c1.302,0.815,1.333,2.249,0.971,3.757c-0.162,0.672-0.27,1.318-0.181,2.012c0.073,0.578-0.035,1.145-0.386,1.649
	c-0.181,0.256-0.397,0.538-0.437,0.83c-0.268,2.018-1.69,3.036-3.294,3.92c-0.271,0.15-0.505,0.366-0.798,0.584
	c-0.049,0.514-0.209,1.05-0.129,1.546c0.376,2.301,0.246,4.612,0.024,6.897c-0.194,2.009-0.227,4.105-1.138,5.963
	c-1.225,2.497-2.686,4.909-4.779,6.745c-1.309,1.149-3.059,1.793-4.573,2.722c-3.194,1.955-6.618,3.396-10.18,4.499
	c-2.401,0.742-4.39,2.158-6.399,3.574c-1.104,0.778-1.541,1.801-1.259,3.136c0.208,0.979,0.495,1.919,0.989,2.804
	c0.914,1.647,1.785,3.32,2.664,4.989c0.121,0.228,0.178,0.487,0.236,0.647c-0.013,0.549-0.572,0.727-0.591,1.199
	c0.092,0.618,0.185,1.236,0.267,1.793c-0.133,0.609-0.549,0.953-0.867,1.367c-0.318,0.412-0.723,0.806-0.896,1.279
	c-0.847,2.315-2.176,4.406-3.028,6.721c-0.468,1.271-1.171,2.442-1.679,3.709c-0.803,1.99-1.42,4.042-2.271,6.019
	c-1.119,2.602-2.479,5.07-3.703,7.612c-0.863,1.789-1.598,3.631-2.138,5.601c0.973,0.729,1.798,1.486,2.936,1.854
	c0.829,0.269,1.663,0.583,2.366,1.193c0.602,0.523,0.902,0.469,2.563,0.202c0.882-0.41,1.218-1.433,2.114-1.91
	c1.024,0.336,2.119,0.541,2.906,1.617c0.193,2.002-0.568,3.881-1.395,5.721c-0.299,0.663-0.699,1.274-0.934,1.98
	c-0.463,1.396-1.432,2.189-2.88,2.612c-3.538,1.034-6.947,0.495-10.342-0.589c-1.59-0.508-3.217-0.896-4.472-2.171
	c-0.57-0.577-1.459-0.466-2.324-0.373c-0.702,0.937-0.02,2.327-1.115,3.339c-4.145,0.491-8.037-1.151-12.213-2.254
	c0.48-1.995,0.74-3.904,1.133-5.778c1.083-5.131,2.395-10.212,4.184-15.146c1.005-2.765,1.811-5.578,2.498-8.431
	c0.158-0.658,0.281-1.324,0.201-1.946c-0.328-0.393-0.719-0.329-1.072-0.336c-3.879-0.098-7.758-0.131-11.635-0.291
	c-2.193-0.091-4.379-0.383-6.568-0.587c-0.623-0.059-1.246-0.183-1.859-0.003c-0.403,0.304-0.647,0.719-0.816,1.153
	c-1.078,2.785-2.125,5.579-2.668,8.534c-0.137,0.739-0.066,1.427,0.133,2.161c0.353,1.302,0.893,2.575,0.699,3.993
	c-0.287,2.094-1.584,3.5-3.199,4.628c-1.537,1.075-3.096,2.148-4.854,2.783c-0.348,0.528-0.661,1.046-0.717,1.61
	c-0.23,2.244-1.727,3.43-3.6,4.159c-2.39,0.93-4.842,1.715-7.291,2.48c-1.256,0.393-2.602,0.269-3.902,0.418
	C67.439,174.511,66.589,174.688,66.147,175.747z M130.139,27.799c-0.682,0.144-1.029,0.63-1.447,1.012
	c-1.391,1.271-2.796,2.529-4.164,3.826c-3.92,3.706-7.818,7.432-11.733,11.142c-0.358,0.342-0.593,0.729-0.665,1.215
	c-0.256,1.751-0.51,3.502-0.752,5.175c0.082,0.235,0.121,0.39,0.188,0.531c0.733,1.619,1.447,3.242,2.305,4.809
	c1.148,2.104,0.291,3.564-2.056,3.803c-0.877,0.09-1.779-0.212-2.67,0.171c-0.396,0.623-0.665,1.281-0.505,2.01
	c0.256,0.51,0.861,0.703,0.938,1.284c0.078,1.485-0.982,2.387-1.962,3.45c2.08,0,3.975,0.146,5.837-0.037
	c2.606-0.261,5.222-0.269,7.829-0.458c4.74-0.348,9.486-0.857,14.26-0.732c2.933,0.078,5.859-0.247,8.797-0.272
	c2.988-0.024,5.967,0.177,8.951,0.134c2.342-0.032,4.689-0.118,6.924-0.702c0.623-1.917,0.484-3.793,0.489-5.68
	c0.012-4.014-1.003-7.765-2.522-11.425c-0.422-1.017-1.128-1.762-2.062-2.286c-0.639-0.358-1.322-0.632-1.982-0.951
	c-1.492-0.724-3.142-0.761-4.723-1.106c-3.541-0.771-6.954-1.921-10.289-3.358c-2.381-1.028-4.574-2.314-6.639-3.858
	c-0.648-0.484-1.219-1.033-1.414-1.828c-0.409-1.659-1.147-3.278-0.686-5.062C130.449,28.359,130.421,28.083,130.139,27.799z
	 M131.977,117.425c0.555-0.244,0.584-0.65,0.757-0.962c0.204-0.367,0.362-0.772,0.628-1.086c3.213-3.808,6.865-7.053,11.613-8.842
	c3.917-1.475,7.721-3.252,11.727-4.49c2.135-0.661,3.084-2.361,3.557-4.226c0.551-2.171,0.803-4.447,0.57-6.708
	c-0.217-2.146-0.268-4.284-0.189-6.435c0.02-0.561,0.15-1.158-0.318-1.702c-0.164-0.017-0.379-0.09-0.566-0.05
	c-0.463,0.095-0.914,0.231-1.361,0.368c-3.5,1.049-6.91,2.481-10.656,2.459c-0.207-0.001-0.41,0.08-0.615,0.124
	c-2.002,0.431-4.039,0.639-6.076,0.718c-3.08,0.119-6.15,0.42-9.287,0.294c-0.455,0.933-0.906,1.812-1.314,2.708
	c-0.289,0.632-0.74,0.978-1.43,1.067c-1.246,0.165-2.479,0.457-3.744,0.39c-2.061-0.11-4.073,0.222-6.081,0.601
	c-1.581,0.297-3.155,0.627-4.651,0.925c-0.926,2.387-1.828,6.306-1.666,7.276C119.037,105.909,125.346,111.899,131.977,117.425z
	 M127.438,116.472c-0.381-0.674-14.85-13.914-15.348-14.189c-1.389,4.223-2.225,8.473-1.646,13.143
	C116.129,115.623,121.834,115.177,127.438,116.472z M134.186,70.513c0.261-0.026,0.569-0.091,0.879-0.086
	c4.392,0.044,8.771-0.435,13.168-0.302c1.828,0.055,3.665-0.146,5.496,0.007c2.437,0.201,3.766-1.274,5.08-3.232
	c-13.973,0.72-27.755,0.432-41.505,1.35c2.704,0.044,5.384,0.377,8.052,0.739c2.746,0.373,5.514,0.048,8.258,0.279
	C133.965,69.673,133.713,70.242,134.186,70.513z"/>
<path class="stroke" fill="#324c2a"  fill-rule="evenodd" clip-rule="evenodd" d="M79.996,49.976c0.031,0.715,0.834,1.018,0.492,1.818
	c-1.037,0.602-1.976,0.305-2.918-0.585c-0.387-1.531,0.281-2.829,1.191-4.001c0.584-0.753,1.053-0.731,2.037-0.192
	C81.021,48.161,79.869,48.984,79.996,49.976z"/>
<path fill-rule="evenodd" clip-rule="evenodd" fill="#d5ee20" class="fill" d="M65.1,102.112c0.568-1.373,0.943-2.748,1.164-4.206
	c0.457-3.004,2.072-5.555,3.615-8.11c1.928-3.199,4.314-6.055,6.846-8.769c1.459-1.564,3.271-2.768,5.266-3.729
	c1.436,1.036,3.067,0.757,4.709,0.653c1.19,0.952,2.059,2.218,3.078,3.33c1.709,1.863,3.616,3.495,5.551,5.103
	c3.43,2.851,6.684,5.896,9.874,9.009c0.935,0.914,2.02,1.673,2.938,2.931c-0.93,4.671-1.531,9.544-1.775,14.507
	c-1.74,0.913-3.516,1.578-5.347,1.942c-2.073,0.412-4.019,1.176-6.026,1.758c-2.711,0.784-9.629,2.524-12.254,1.683
	c-0.723-0.787-0.949-1.91-1.551-2.828c-1.227-1.868-1.887-2.099-3.906-1.154c-1.757,0.821-3.479,1.718-5.33,2.319
	c-0.346,0.112-0.663,0.336-1.281,0.153C69.01,111.923,66.576,107.292,65.1,102.112z"/>
<path fill-rule="evenodd" clip-rule="evenodd" fill="#d5ee20" class="fill" d="M99.537,133.636c-0.256-0.69-0.436-1.179-0.603-1.624
	c-1.348-0.489-2.132-0.359-2.931,0.715c-1.969,2.655-3.716,5.456-4.871,8.569c-0.654,1.757-1.629,3.405-1.777,5.459
	c-0.738-0.305-0.898-0.86-1.084-1.358c-1.426-3.823-2.631-7.719-3.76-11.639c-0.263-0.913-0.363-1.857-0.281-2.802
	c0.209-2.443,0.861-4.846,0.533-7.255c0.253-0.176,0.377-0.338,0.504-0.341c2.436-0.077,4.729-0.905,7.055-1.461
	c3.604-0.86,7.266-1.533,10.781-2.762c2.137-0.746,4.32-1.029,6.594-0.93c2.457,0.107,4.936-0.126,7.378,0.086
	c3.224,0.279,6.472,0.459,9.627,1.329c1.604,0.443,3.301,0.513,4.984,1.07c1.034,4.415,2.855,8.375,7.073,11.098
	c-5.296,1.756-10.676,2.522-15.568,4.984c-1.084-1.344-2.486-1.426-3.916-1.255c-4.893,0.588-9.719-0.295-14.566-0.67
	C102.941,134.713,101.225,134.216,99.537,133.636z"/>
<path fill-rule="evenodd" clip-rule="evenodd" fill="#d5ee20" class="fill" d="M108.506,95.594c-0.795-0.247-1.211-0.723-1.668-1.14
	c-2.791-2.537-5.518-5.155-8.4-7.585c-1.879-1.586-3.705-3.237-5.535-4.867c-1.775-1.581-3.159-3.604-4.748-5.473
	c1.012-1.211,2.806-1.588,2.91-3.225c4.205-0.724,8.432-0.474,12.229-1.685c0.73-1.027,0.875-2.038,1.733-2.704
	c1.398-0.188,2.884-0.041,4.279,0.322c3.616,0.939,7.349,1.072,10.99,1.779c3.269,0.635,6.585,0.415,9.855,0.851
	c0.304,0.04,0.61,0.105,1.118,0.195c-1.082,5.056-1.993,10.067-2.695,15.066c-1.859,0.49-10.924,0.537-12.374,0.045
	c0.137-0.989,0.759-1.929,0.591-3.075c-0.301-0.77-0.945-1.247-1.836-1.514c-1.931,0.429-3.004,1.781-3.586,3.561
	c-0.83,2.537-1.579,5.101-2.356,7.652C108.846,94.347,108.701,94.9,108.506,95.594z"/>
<path fill-rule="evenodd" clip-rule="evenodd" fill="#d5ee20" class="fill" d="M88.283,157.056c-3.84,1.288-7.443,1.3-11.041-0.842
	c-3.608-2.149-6.281-5.135-8.664-8.482c-1.215-1.707-2.408-3.417-3.404-5.271c-0.409-0.761-1.107-1.393-1.756-1.997
	c-4.172-3.884-7.439-8.471-10.438-13.255c0.144-0.768,0.745-1.016,1.311-1.268c1.818-0.809,3.619-1.663,5.475-2.375
	c2.494-0.955,5.001-1.901,7.445-2.95c3.465-1.484,7.109-2.533,10.451-4.307c0.413-0.219,0.834-0.437,1.495-0.423
	c0.798,1.254,1.451,2.655,1.749,4.201c0.543,2.833,0.98,5.677,0.851,8.581c-0.079,1.75,0.298,3.462,0.786,5.107
	c0.789,2.656,1.688,5.283,2.593,7.905c1.362,3.949,2.674,7.937,3.261,12.104C88.543,154.815,88.648,155.866,88.283,157.056z
	 M71.211,124.279c-3.869-0.163-5.973,1.103-7.521,3.524c-0.767,1.2-0.984,2.515-1.314,3.829c-0.967,3.86,0.475,6.856,3.303,9.372
	c0.67,0.596,1.389,1.106,2.265,1.375c4.39,1.35,9.179-1.234,10.191-4.813c0.099-0.349,0.271-0.683,0.448-1
	c0.816-1.462,1.082-3.065,1.083-4.694c0-1.96-0.651-3.664-2.204-4.997C75.369,125.076,72.854,124.517,71.211,124.279z"/>
<path fill-rule="evenodd" clip-rule="evenodd" fill="#d5ee20" class="fill" d="M86.326,68.998c-0.959,0.511-0.752,1.042-0.218,1.533
	c0.617,0.566,1.278,1.084,1.933,1.611c0.363,0.295,0.799,0.512,1.018,1c0.113,0.44-0.036,0.776-0.512,0.992
	c-0.138-0.093-0.297-0.151-0.379-0.266c-0.683-0.948-1.538-1.71-2.5-2.362c-0.453-0.308-0.908-0.546-1.487-0.131
	c-0.298,1.044,0.745,1.205,1.224,1.72c0.496,0.534,1.081,0.99,1.4,1.651c-0.18,1.591-0.369,1.766-1.918,1.763
	c-0.16-0.425,0.068-0.932-0.303-1.415c-1.551-0.32-3.184-0.352-4.809-0.026c-1.144,0.23-2.293,0.332-3.441,0.223
	c-2.658-0.252-5.213,0.401-7.785,0.842c-4.08,0.699-7.986,2.102-12.01,3.046c-3.54,0.831-6.607,0.021-9.291-2.457
	c-2.152-1.986-2.189-1.944-4.981-2.782c-1.171-1.933-0.833-3.854,1.007-4.987c2.804-1.727,5.59-3.498,8.716-4.635
	c1.982-0.724,3.958-0.758,5.992-0.12c-5.107,0.459-9.548,2.428-13.538,5.557c0.701,0.913,1.133,1.035,1.973,0.415
	c2.21-1.632,4.795-2.291,7.381-2.945c3.02-0.764,6.037-0.437,9.035,0.169c1.847,0.374,3.682,0.812,5.525,1.206
	c1.906,0.406,3.75,0.337,5.715-0.014c1.944-0.347,3.33-1.331,4.818-2.379c1.237-0.869,2.603-1.55,4.014-2.11
	c0.762-0.301,1.553-0.237,2.318,0.004c1.705,0.536,3.356,1.217,4.871,2.17c0.885,0.557,1.664,1.253,1.5,2.619
	c-1.291-0.315-2.288-0.912-3.193-1.703c-0.677-0.59-0.684-0.582-1.727-0.213c0.467,1.884,2.555,2.003,3.549,3.289
	c0.074,0.382-0.275,0.611-0.373,1.038C88.451,70.835,87.495,69.843,86.326,68.998z"/>
<path fill-rule="evenodd" clip-rule="evenodd" fill="#d5ee20" class="fill" d="M96.646,39.584c0.014-0.822-0.74-1.359-0.564-2.188
	c1.229-0.061,2.289,1.216,3.393,0.22c0.598,0.312,1.062,0.554,1.472,0.768c0.605,0.068,0.882-0.408,1.39-0.656
	c0.822,0.253,1.718,0.526,2.492,0.765c0.586,0.083,0.889-0.282,1.354-0.433c0.797,0.152,1.668,0.548,2.544-0.098
	c0.619,0.479,1.357,0.534,2.029,0.658c0.67,2.622-0.424,5.333-2.838,7.122c-0.404-0.283,0.023-0.973-0.714-1.215
	c-0.478-0.112-0.69,0.552-1.291,0.794c-1.001-0.131-1.944-0.676-2.87-1.271c-1.717-1.102-3.701-1.397-5.641-1.789
	c-0.566-0.115-1.264-0.165-1.748,0.343c-0.185,0.438,0.008,0.734,0.271,1.007c0.368,0.377,0.953-0.019,1.345,0.396
	c0.288,0.854-0.187,1.599-0.423,2.449c-1.191,0.444-2.402,0.923-3.379,2.1c1.146,0.95,2.104,2.072,3.32,2.668
	c1.679,0.823,3.376,0.139,4.925-0.742c0.474-0.27,0.829-0.853,1.753-0.43c-2.312,2.487-4.675,4.793-6.932,7.199
	c-2.264,2.412-4.756,4.547-7.086,6.719c-1.369-0.115-2.297-0.89-3.382-1.243c-1.056-0.346-2.155-0.418-3.306-0.285
	c-0.463-0.505-0.929-0.979-1.275-1.665c0.92-0.579,1.947-0.371,2.902-0.568c0.518-0.802,0.232-1.429-0.448-1.885
	c-1.571-1.052-2.923-2.374-4.438-3.529c-0.676-0.086-1.294,0.429-2.064,0.223c-0.955-0.454-1.411-1.367-1.374-2.396
	c0.104-2.945,0.546-5.828,2.214-8.371c0.143-0.219,0.314-0.421,0.344-0.459c0.84-0.288,1.457-0.304,2.087-0.121
	c0.696,0.352,1.136,1.092,1.997,1.348c0.985-0.38,1.779-1.163,2.568-1.557c0.565-0.468,0.355-1.043,0.663-1.438
	c0.378-0.364,1.009-0.255,1.335-0.63c0.425-0.381,0.35-0.925,0.656-1.373c0.076-0.044,0.204-0.175,0.338-0.186
	c1.746-0.122,3.439,0.302,5.15,0.526C94.563,40.511,95.734,40.717,96.646,39.584z M79.996,49.976
	c-0.127-0.991,1.025-1.814,0.803-2.96c-0.984-0.539-1.453-0.561-2.037,0.192c-0.91,1.172-1.578,2.47-1.191,4.001
	c0.942,0.89,1.881,1.187,2.918,0.585C80.83,50.993,80.027,50.69,79.996,49.976z"/>
<path fill-rule="evenodd" clip-rule="evenodd" fill="#d5ee20" class="fill" d="M161.586,66.842c1.838,0.188,3.466-0.731,5.232-0.8
	c1.033-0.039,2.11-0.335,3.047,0.703c0.144,0.454,0.33,1.038,0.532,1.674c-0.776,0.4-1.495,0.192-2.204,0.118
	c-2.065-0.215-4.083-0.17-6.006,1.308c-0.373,2.4-1.992,4.64-1.878,7.366c-2.265,1.282-4.636,2.148-7.06,2.702
	c-5.578,1.272-11.059,3.211-17.055,2.89c-1.036-3.405-0.947-6.838-0.506-10.141c0.578-0.427,1.012-0.372,1.423-0.368
	c4.03,0.04,8.062,0.112,12.095,0.131c2.354,0.012,4.705-0.166,7.065-0.104c1.213,0.034,2.146-0.699,2.63-1.895
	C159.461,69.05,160.197,67.796,161.586,66.842z"/>
<path fill-rule="evenodd" clip-rule="evenodd" fill="#d5ee20" class="fill" d="M137.861,17.489c1.215,0.615,2.266,1.06,3.1,1.879
	c-1.131,1.962-2.215,3.869-3.324,5.759c-0.75,1.279-1.293,2.641-1.617,4.077c-0.561,2.485,0.311,4.22,2.654,5.197
	c1.303,0.542,2.651,0.995,4.006,1.384c2.668,0.763,5.391,1.346,7.932,2.519c0.658,0.303,1.391,0.468,2.106,0.61
	c3.163,0.637,6.063,1.91,8.935,3.361c3.578,1.809,5.152,4.765,5.494,8.555c0.295,3.262,0.055,6.491-0.77,9.671
	c-0.196,0.757-0.318,1.533-0.482,2.347c-0.867,0.524-1.873,0.634-2.787,1.025c-0.13-0.14-0.322-0.247-0.324-0.357
	c-0.033-1.618-0.312-3.231-0.123-4.854c0.523-4.536-0.057-8.897-2.207-12.966c-1.395-2.641-3.662-4.241-6.52-5.019
	c-2.576-0.701-5.197-1.268-7.725-2.109c-3.669-1.222-7.367-2.399-10.74-4.37c-0.705-0.413-1.203-0.962-1.549-1.712
	c-0.92-1.988-1.084-4.041-0.543-6.135c0.745-2.865,2.016-5.499,3.703-7.929C137.291,18.124,137.549,17.861,137.861,17.489z"/>
<path fill-rule="evenodd" clip-rule="evenodd" fill="#d5ee20" class="fill" d="M93.585,36.017c0.331,0.9,0.669,1.823,1.03,2.805
	c-0.729,0.438-1.392,0.31-1.984-0.002c-0.918-0.484-1.896-0.612-2.893-0.596c-1.568,0.025-3.14-0.036-4.703,0.165
	c-0.99,0.128-1.967-0.005-2.96-0.085c-4.752-0.378-9.084,0.488-12.219,4.541c-0.729,0.944-1.677,1.703-2.55,2.643
	c0.232-0.917,0.503-1.826,0.689-2.752c0.332-1.646,0.791-3.248,1.346-4.834c0.535-1.533,1.504-2.544,2.953-3.271
	c2.918-1.467,6.059-2.205,9.238-2.24c3.451-0.039,6.887,0.584,9.941,2.454C92.142,35.252,92.84,35.605,93.585,36.017z"/>
<path fill-rule="evenodd" clip-rule="evenodd" fill="#d5ee20" class="fill" d="M139.217,122.623c-2.805-2.517-3.693-3.767-4.076-5.67
	c2.256-2.47,4.803-4.631,7.558-6.542c1.386-0.963,3.045-1.383,4.587-2.033c1.641-0.691,3.299-1.334,4.923-2.058
	c0.636-0.284,1.228-0.584,1.938-0.262c1.298-1.089,2.806-1.683,4.293-2.345c2.188-0.974,3.637-2.681,4.747-4.811
	c1.174-2.252,1.443-4.67,1.746-7.103c0.111-0.892,0.393-1.729,0.545-2.529c0.394-0.419,0.846-0.572,1.269-0.774
	c0.191-0.092,0.392-0.158,0.601-0.043c0.27,0.242,0.232,0.573,0.217,0.875c-0.167,3.091-0.373,6.19-1.25,9.168
	c-0.843,2.854-2.68,5.094-5.037,6.841c-2.028,1.502-4.35,2.461-6.734,3.311c-2.859,1.02-5.75,1.976-8.484,3.321
	c-2.475,1.219-4.492,3.061-6.529,4.866c-1.061,0.941-1.15,2.161-0.871,3.474C138.81,121.018,139.234,121.655,139.217,122.623z"/>
<path fill-rule="evenodd" clip-rule="evenodd" fill="#d5ee20" class="fill" d="M108.537,50.829c0.67,2.333,2.748,3.768,2.982,6.332
	c-1.85,0.403-3.471-0.355-4.992-0.379c-0.525-0.484-0.018-0.954-0.49-1.506c-0.268-0.258-0.738-0.183-1.243,0.154
	c-0.354,0.522-0.517,1.109-0.478,1.75c0.527,1.08,1.557,1.135,2.695,1.221c-0.437,1.042-0.824,1.976-1.254,2.999
	c-3.912,1.529-8.014,1.723-12.251,1.504c0.157-0.697,0.636-1.173,1.132-1.598c2.391-2.048,4.457-4.425,6.715-6.609
	c0.848-0.818,1.75-1.518,2.791-1.945C105.543,52.179,106.932,51.581,108.537,50.829z"/>
<path fill-rule="evenodd" clip-rule="evenodd" fill="#d5ee20" class="fill" d="M62.164,58.277c-0.542,0.361-0.925,0.471-1.314,0.449
	c-0.059-0.116-0.111-0.184-0.098-0.2c1.357-1.799,2.693-3.607,2.797-5.802c1.962-1.897,3.623-3.749,5.012-5.874
	c1.229-1.88,2.746-3.571,4.447-5.061c1.18-1.032,2.631-1.536,4.133-1.811c2.261-0.412,4.538-0.614,6.803,0.051
	c-0.076,0.621-0.73,0.547-0.789,0.876c-0.25,0.51-0.047,0.939-0.117,1.306c-0.24,0.394-0.588,0.481-0.949,0.535
	c-2.705-1.192-4.012-0.858-6.062,1.411c-0.48,0.53-1.115,0.965-1.754,1.299c-2.51,1.312-4.426,3.323-6.416,5.26
	C65.555,52.956,63.465,55.353,62.164,58.277z"/>
<path fill-rule="evenodd" clip-rule="evenodd" fill="#d5ee20" class="fill" d="M69.559,164.938c-0.957,1.42-2.699,1.409-4.143,2.318
	c-2.234-5.084-4.022-10.148-4.597-15.716C62.588,152.475,68.058,160.965,69.559,164.938z"/>
<path fill-rule="evenodd" clip-rule="evenodd" fill="#d5ee20" class="fill" d="M98.26,35.452c-0.198,0.438-0.686,0.428-0.948,0.695
	c-0.751-0.093-1.364-0.343-1.937-0.739c-5.101-3.54-10.664-5.246-16.908-4.243c-0.301,0.048-0.617,0.149-1.112-0.146
	c2.589-1.154,4.575-3.284,7.621-3.15c1.573,0.068,2.998,0.455,4.31,1.276c1.02,0.64,2.012,1.327,2.993,2.028
	c1.702,1.219,3.284,2.606,5.159,3.579C97.748,34.913,98.104,35.078,98.26,35.452z"/>
<path fill-rule="evenodd" clip-rule="evenodd" fill="#d5ee20" class="fill" d="M56.643,153.93c0.156,0.913,0.508,1.745,0.359,2.693
	c-5.343,0.874-10.645,1.238-16.092,0.2c0.781-0.955,1.826-1.243,2.875-1.441c1.23-0.234,2.479-0.467,3.723-0.509
	c2.367-0.075,4.664-0.571,6.986-0.938C55.15,153.831,55.82,153.614,56.643,153.93z"/>
<path fill-rule="evenodd" clip-rule="evenodd" fill="#d5ee20" class="fill" d="M128.838,154.034c1.918-5.152,3.207-10.525,5.186-15.613
	c0.525-0.378,1.056-0.521,1.629-0.672C135.584,139.512,130.521,151.799,128.838,154.034z"/>
<path fill-rule="evenodd" clip-rule="evenodd" fill="#d5ee20" class="fill" d="M57.068,92.039c0.641-0.354,1.148-0.331,1.828-0.243
	c1.25,2.924,2.512,5.878,3.875,9.072c-1.236-0.171-2.048-0.535-2.533-1.302C58.777,97.263,57.729,94.774,57.068,92.039z"/>
<path fill-rule="evenodd" clip-rule="evenodd" fill="#d5ee20" class="fill" d="M103.341,36.221c-1.089,0.169-1.874-0.175-2.544-0.812
	c-0.611-0.581-1.363-0.965-2.053-1.437c-2.715-1.865-5.387-3.799-8.071-5.713c-0.164-0.117-0.352-0.239-0.333-0.58
	c1.338,0.053,2.485,0.62,3.59,1.29c2.565,1.552,4.832,3.502,7.146,5.387C101.836,34.972,102.586,35.599,103.341,36.221z"/>
<path fill-rule="evenodd" clip-rule="evenodd" fill="#d5ee20" class="fill" d="M106.609,36.602c-0.445-0.143-0.889-0.286-1.107-0.355
	c-4.184-3.302-7.754-7.025-12.6-9.56c2.501-0.434,4.321,0.397,5.662,1.998C101,31.592,103.825,34.054,106.609,36.602z"/>
<path fill-rule="evenodd" clip-rule="evenodd" fill="#d5ee20" class="fill" d="M110.281,37.113c-4.046-2.405-7.057-5.508-10.023-8.758
	c0.572-0.438,0.936-0.166,1.253,0.042c0.96,0.628,1.876,1.297,2.675,2.149c1.533,1.639,3.236,3.102,4.916,4.589
	C109.582,35.56,110.227,35.911,110.281,37.113z"/>
<path fill-rule="evenodd" clip-rule="evenodd" fill="#d5ee20" class="fill" d="M74.482,47.055c0.154,0.978-0.146,1.368-0.648,1.638
	c-2.564,1.379-3.891,3.748-4.965,6.288c-0.799,1.891-1.889,3.615-2.895,5.39c-0.119,0.207-0.256,0.464-0.828,0.359
	c1.396-2.827,1.98-5.981,4.092-8.378C70.829,50.546,72.21,48.493,74.482,47.055z"/>
<path fill-rule="evenodd" clip-rule="evenodd" fill="#d5ee20" class="fill" d="M93.148,70.172c-0.189-0.521,0.168-0.824,0.301-1.241
	c2.886-0.545,5.759-0.259,8.738-0.374c-0.204,0.941-0.742,1.261-1.354,1.361C98.278,70.34,95.717,70.799,93.148,70.172z"/>
<path fill-rule="evenodd" clip-rule="evenodd" fill="#d5ee20" class="fill" d="M49.58,96.153c0.484-0.142,0.776-0.049,0.895,0.174
	c1.477,2.808,2.932,5.625,4.529,8.71c-1.399-0.301-2.273-0.694-2.83-1.822c-0.626-1.273-1.163-2.575-1.619-3.909
	C50.207,98.287,49.734,97.297,49.58,96.153z"/>
<path fill-rule="evenodd" clip-rule="evenodd" fill="#d5ee20" class="fill" d="M48.727,108.759c-1.844-2.999-3.642-5.925-5.436-8.842
	c0.045-0.557,0.217-1.014,0.873-1.464c1.482,3.318,3.461,6.265,4.989,9.458C49.26,108.135,49.154,108.425,48.727,108.759z"/>
<path fill-rule="evenodd" clip-rule="evenodd" fill="#d5ee20" class="fill" d="M46.285,109.203c-0.517,0.218-0.856,0.107-1.1-0.206
	c-1.914-2.473-3.514-5.154-5.326-7.749c0.588-0.478,1.027-0.415,1.309,0.049c1.358,2.24,3.462,3.946,4.527,6.393
	C45.902,108.163,46.256,108.576,46.285,109.203z"/>
<path fill-rule="evenodd" clip-rule="evenodd" fill="#d5ee20" class="fill" d="M91.984,65.762c0.494-0.465,0.984-0.43,1.446-0.434
	c2.302-0.02,4.606,0.07,6.899-0.242c0.578-0.078,1.029,0.134,1.271,0.916c-2.926,0.568-5.887,0.437-8.674,0.817
	C92.371,66.584,92.234,66.179,91.984,65.762z"/>
<path fill-rule="evenodd" clip-rule="evenodd" fill="#d5ee20" class="fill" d="M64.119,100.126c-1.266-3.159-3.006-6.036-3.617-9.38
	c0.557-0.091,0.727,0.126,0.793,0.377c0.676,2.539,2.097,4.771,2.967,7.231C64.465,98.93,64.814,99.492,64.119,100.126z"/>
<path fill-rule="evenodd" clip-rule="evenodd" fill="#d5ee20" class="fill" d="M57.078,103.824c-1.896-2.506-2.936-5.419-4.417-8.102
	c-0.116-0.209-0.16-0.502,0.177-0.889c1.345,1.193,1.633,2.921,2.346,4.408C55.904,100.739,56.791,102.164,57.078,103.824z"/>
<path fill-rule="evenodd" clip-rule="evenodd" fill="#d5ee20" class="fill" d="M172.893,74.378c-0.105,1.416-1.383,1.598-2.287,2.177
	c-0.541-0.224-0.774-0.708-1.139-1.049C170.542,74.009,171.697,73.61,172.893,74.378z"/>
<path fill-rule="evenodd" clip-rule="evenodd" fill="#d5ee20" class="fill" d="M104.682,65.587c-0.756-0.51-1.186-1.062-1.48-1.863
	c1.238-0.424,2.392-0.941,3.795-0.304C106.355,64.364,105.418,64.772,104.682,65.587z"/>
<path fill-rule="evenodd" clip-rule="evenodd" fill="#d5ee20" class="fill" d="M98.729,47.857c-0.343,0.805-0.6,1.411-0.868,2.04
	c-0.976-0.061-1.218-0.928-2.051-1.292C96.781,47.83,97.594,47.609,98.729,47.857z"/>
<path fill-rule="evenodd" clip-rule="evenodd" fill="#d5ee20" class="fill" d="M60.523,51.796c1.344-1.2,2.726-1.797,4.074-2.724
	C63.838,50.867,62.398,51.865,60.523,51.796z"/>
<path fill-rule="evenodd" clip-rule="evenodd" fill="#d5ee20" class="fill" d="M169.223,73.527c-0.482-0.161-0.691-0.351-0.623-0.846
	c0.836-0.478,1.68-1.09,2.91-1.493C171.195,72.799,169.949,72.933,169.223,73.527z"/>
<path fill-rule="evenodd" clip-rule="evenodd" fill="#d5ee20" class="fill" d="M169.753,79.818c0.19-0.976,0.192-0.978,2.267-2.138
	C172.095,78.607,171.143,79.507,169.753,79.818z"/>
<path fill-rule="evenodd" clip-rule="evenodd" fill="#d5ee20" class="fill" d="M70.455,55.974c-0.436,1.44-0.686,2.686-1.246,3.916
	C68.973,58.427,69.263,57.469,70.455,55.974z"/>
<path fill-rule="evenodd" clip-rule="evenodd" fill="#d5ee20" class="fill" d="M168.24,78.13c-0.475-0.684-0.475-0.684-0.28-1.411
	c0.514-0.164,0.763,0.105,0.864,0.56C168.936,77.77,168.709,78.039,168.24,78.13z"/>
<path fill-rule="evenodd" clip-rule="evenodd" fill="#d5ee20" class="fill" d="M168.156,80.916c-0.369-0.102-0.509-0.284-0.373-0.564
	c0.097-0.207,0.316-0.254,0.49-0.104C168.512,80.45,168.46,80.674,168.156,80.916z"/>
<path fill-rule="evenodd" clip-rule="evenodd" fill="#d5ee20" class="fill" d="M168.132,82.74c-0.058,0.081-0.103,0.181-0.181,0.239
	c-0.073,0.056-0.182,0.067-0.279,0.101c-0.23-0.183-0.143-0.347,0.058-0.454C167.871,82.55,168.029,82.586,168.132,82.74z"/>
<path fill-rule="evenodd" clip-rule="evenodd" fill="#d5ee20" class="fill" d="M70.432,125.736c1.685,0.046,3.327,0.514,4.711,1.45
	c1.955,1.32,2.879,3.232,2.506,5.684c-0.404,2.653-1.787,4.631-3.975,6.106c-0.98,0.66-2.078,0.757-3.168,0.504
	c-2.685-0.621-4.758-2.178-6.094-4.563c-1.02-1.82-0.354-3.679,0.381-5.429c0.426-1.018,1.182-1.848,1.953-2.637
	C67.758,125.817,69.102,125.863,70.432,125.736z M73.841,131.843c0.044-2.058-1.188-3.257-3.708-3.257
	c-1.734-0.001-3.047,1.673-3.031,3.716c0.014,1.67,1.6,3.145,3.314,3.084C72.328,135.318,73.877,133.714,73.841,131.843z"/>
<path fill-rule="evenodd" clip-rule="evenodd" fill="#d5ee20" class="fill" d="M70.15,132.145c-0.227-0.563-0.205-1.018-0.039-1.562
	c0.545-0.385,1.125-0.601,1.76-0.069C71.955,132.128,71.689,132.386,70.15,132.145z"/>
</svg>
