<svg version="1.1" id="svg" xmlns="http://www.w3.org/2000/svg" xmlns:xlink="http://www.w3.org/1999/xlink" x="0px" y="0px"
	 width="200px" height="200px" viewBox="0 0 200 200" enable-background="new 0 0 200 200" xml:space="preserve">
<path class="stroke" fill="#6a2906"  d="M171.456,188.101c-0.293-1.493-0.402-2.947-1.029-4.234c-0.494-0.48-1.133-0.74-1.484-1.386
	c-0.232-0.598-0.23-1.257-0.184-1.927c0.357-5.148,0.449-10.301,0.297-15.457c-0.045-1.441-0.197-2.874-0.189-4.323
	c0.037-5.491,0.117-10.982-0.109-16.473c-0.104-2.483-0.053-4.969,0.004-7.455c0.141-6.041,0.293-12.085,0.312-18.128
	c0.012-3.049-0.236-6.101-0.406-9.148c-0.133-2.385,0.303-4.764-0.016-7.149c-0.342-2.575-0.453-5.162-0.275-7.761
	c0.996-1.91,2.75-3.054,4.277-4.322c0.418-2.169,0.4-4.195-0.182-6.473c-0.279-0.201-0.732-0.523-1.029-0.735
	c-0.311-2.818-0.592-5.409-0.887-8c-0.27-2.369-0.643-4.729-0.818-7.104c-0.406-5.553-1.143-11.02-3.311-16.212
	c-1.994-4.776-4.354-9.349-7.154-13.708c-2.627-4.088-5.713-7.771-9.332-10.993c-2.145-1.909-4.529-3.557-6.623-5.518
	c-2.881-2.699-6.268-4.51-9.719-6.32c-4.863-2.551-9.961-4.309-15.355-5.222c-3.439-0.584-6.889-1.146-10.354-1.565
	c-2.971-0.358-5.971-0.426-8.959-0.139c-1.986,0.19-3.961,0.547-5.951,0.67c-3.674,0.225-7.256,1.006-10.783,1.932
	c-5.742,1.509-11.338,3.483-16.643,6.227c-5.668,2.931-10.914,6.391-15.074,11.32c-0.932,1.103-1.848,2.229-2.879,3.231
	c-2.17,2.117-3.938,4.556-5.373,7.18c-3.197,5.842-6.016,11.863-8.252,18.162c-1.525,4.303-2.809,8.663-3.75,13.115
	c-0.617,2.918-1.426,5.837-1.09,8.892c0.057,0.514-0.178,1.061-0.277,1.593c-0.74,0.233-1.365,0.431-2.223,0.702
	c-0.182,1.51-0.371,3.068-0.529,4.377c1.561,1.043,3.119,1.705,4.117,2.856c0.875,1.009,1.367,2.355,2.041,3.838
	c-0.053,2-0.098,4.002-0.035,6c0.203,6.273-0.217,12.537-0.219,18.806c-0.002,2.882-0.25,5.767-0.176,8.646
	c0.131,4.994-0.244,9.976-0.178,14.967c0.055,4.209-0.064,8.422-0.076,12.634c-0.008,2.329-0.006,4.655,0.055,6.985
	c0.076,3.05-0.002,6.104-0.086,9.156c-0.098,3.494-0.271,6.985-0.422,10.668c-2.67,1.035-1.732,3.73-2.217,5.683
	c-0.648,0.53-1.297,0.468-1.883,0.608c-1.256,0.302-2.135,1.04-2.377,2.29c-0.312,1.621-0.312,3.267,0.023,4.715
	c0.395,0.363,0.674,0.396,0.949,0.401c2.166,0.05,4.332,0.154,6.496,0.121c3.832-0.054,7.66-0.104,11.482,0.26
	c1.934,0.184,3.875,0.349,5.814,0.413c5.053,0.165,10.107,0.267,15.158,0.403c2.551,0.069,5.096,0.293,7.646-0.083
	c1.105-0.16,2.225-0.498,3.434,0.036c0.365-2.14,0.49-4.092,0.125-5.479c-0.957-2.164-2.613-2.572-4.115-3.285
	c0.5-2.674-0.719-4.598-2.57-6.329c0.025-0.661,0.053-1.321,0.078-1.982c0.266-6.771,0.229-13.547,0.145-20.32
	c-0.041-3.332-0.199-6.662-0.146-9.992c0.08-4.883,0.154-9.762,0.025-14.644c-0.188-7.16-0.27-14.314,0.027-21.479
	c0.213-5.151,0.086-10.317,0.045-15.478c-0.01-1.356,0.125-2.702,0.221-4.037c1.395-2.392,3.076-4.443,5.691-5.683
	c0-1.809,0-3.56,0-5.552c-0.627-0.203-1.379-0.447-2.137-0.692c0-0.273-0.035-0.553,0.012-0.819
	c0.055-0.325,0.168-0.642,0.275-0.956c1.139-3.312,2.449-6.531,4.352-9.507c3.059-4.78,7.033-8.374,12.492-10.18
	c0.422-0.141,0.824-0.337,1.25-0.46c1.369-0.398,2.727-0.915,4.129-1.126c1.857-0.282,3.756-0.324,5.637-0.458
	c0.824-0.058,1.652-0.123,2.477-0.12c2.969,0.015,5.656,1.096,8.25,2.363c2.246,1.098,4.486,2.323,6.154,4.21
	c2.252,2.543,4.08,5.412,5.361,8.578c1.43,3.527,2.074,7.229,2.236,11.141c-1.041,0.273-1.91,0.847-1.811,2.123
	c0.111,1.427,0.303,2.849,0.471,4.364c2.283,0.527,3.535,2.063,4.119,3.746c0.234,0.248,0.438,0.463,0.631,0.669
	c0.473,1.885,0.484,3.927,0.549,5.936c0.139,4.381,0.053,8.771,0.01,13.156c-0.055,5.66-0.314,11.323-0.195,16.978
	c0.119,5.667,0.047,11.327-0.088,16.985c-0.17,7.33-0.057,14.658,0.023,21.986c0.016,1.443,0.014,2.888,0.016,4.332
	c0.002,3.433,0,6.863,0,10.544c-1.225,0.861-2.305,2.117-2.111,3.902c-0.506,0.585-1.199,0.309-1.801,1.077
	c-0.973,1.767-0.773,3.926-0.324,5.939c0.439,0.618,0.902,0.725,1.406,0.753c1.891,0.108,3.781,0.222,5.674,0.067
	c1.775-0.144,3.553-0.388,5.328-0.38c5.355,0.02,10.711,0.089,16.062,0.241c4.818,0.138,9.635,0.125,14.453,0.033
	c1.551-0.029,3.113,0.101,4.787-0.133C173.601,192.509,173.681,190.041,171.456,188.101z"/>
<path fill-rule="evenodd" clip-rule="evenodd" fill="#ffe861" class="fill" d="M161.942,193.169c-0.014-1.053-0.137-1.822,0.271-2.722
	c2.445,0.211,4.945-0.45,7.359,0.188c0.389,0.774,0.355,1.412,0.059,2.301C167.171,193.398,164.634,193.854,161.942,193.169z"/>
<path fill-rule="evenodd" clip-rule="evenodd" fill="#ffe861" class="fill" d="M159.386,187.049c-0.275-0.76-0.307-1.282,0.129-1.926
	c2.693-0.076,5.463-0.002,8.145,0.137c0.473,0.686,0.613,1.242,0.496,2.024C165.21,187.915,162.313,187.558,159.386,187.049z"/>
<path fill-rule="evenodd" clip-rule="evenodd" fill="#ffe861" class="fill" d="M68.841,183.103c0.709,1.48,0.725,1.649,0.262,3.244
	c-3.074,0.169-6.213,0.292-9.385,0.3c-0.311-1.637-0.236-2.995-0.115-4.431c1.072-0.232,2.1,0.046,3.125,0.079
	c1.486,0.051,2.945,0.432,4.451,0.339C67.722,182.602,68.265,182.802,68.841,183.103z"/>
<path fill-rule="evenodd" clip-rule="evenodd" fill="#ffe861" class="fill" d="M72.714,189.456c0.527,1.098,0.547,2.194,0.721,3.534
	c-3.559,0.349-6.986-0.123-10.422,0.308c-0.344-1.469-0.277-2.6-0.143-3.705C64.003,189.261,71.802,189.145,72.714,189.456z"/>
<path fill-rule="evenodd" clip-rule="evenodd" fill="#ffe861" class="fill" d="M51.583,44.214c2.484-4.306,14.629-14.455,18.568-15.38
	c0.389,0.621,0.836,1.249,1.197,1.925c2.367,4.452,4.764,8.882,6.641,13.585c1.105,2.77,2.68,5.35,3.967,8.051
	c0.83,1.736,1.523,3.538,2.238,5.219c-2.133,1.831-4.146,3.562-6.371,5.474c-0.361-0.148-0.963-0.269-1.412-0.596
	c-2.148-1.576-4.268-3.191-6.375-4.823c-3.857-2.989-7.652-6.068-11.57-8.979C56.296,47.075,53.931,45.727,51.583,44.214z"/>
<path fill-rule="evenodd" clip-rule="evenodd" fill="#ffe861" class="fill" d="M71.575,27.914c6.293-3.09,12.855-4.543,19.416-5.967
	c2.777,10.534,4.396,21.073,6.109,31.611c-3.635,0.994-7.293,1.998-10.938,2.995c-2.207-2.09-2.891-5.077-4.225-7.708
	c-1.328-2.615-2.637-5.245-3.912-7.888c-0.906-1.876-1.703-3.807-2.627-5.675c-1.055-2.131-2.195-4.22-3.299-6.327
	C71.952,28.67,71.808,28.379,71.575,27.914z"/>
<path fill-rule="evenodd" clip-rule="evenodd" fill="#ffe861" class="fill" d="M116.954,58.382c-2.836-2.001-5.713-3.51-8.973-4.074
	c2.994-10.626,5.934-21.06,8.861-31.452c3.113-0.4,15.49,4.979,19.123,8.31c-1.346,1.921-2.693,3.87-4.072,5.8
	c-1.584,2.211-3.176,4.418-4.803,6.599c-1.227,1.644-2.615,3.175-3.752,4.877c-1.939,2.902-3.736,5.903-5.6,8.86
	C117.538,57.62,117.294,57.915,116.954,58.382z"/>
<path fill-rule="evenodd" clip-rule="evenodd" fill="#ffe861" class="fill" d="M99.116,53.776c-0.377-1.323-0.799-2.463-1.016-3.64
	c-0.758-4.084-1.449-8.179-2.15-12.272c-0.186-1.09-0.246-2.206-0.482-3.285c-0.594-2.703-1.289-5.386-1.877-8.092
	c-0.326-1.506-0.518-3.042-0.795-4.704c0.533-0.168,0.924-0.378,1.328-0.406c7.576-0.53,16.59-0.657,20.844,0.776
	c0.172,1.458-7.314,28.891-8.635,31.623C104.038,53.776,101.728,53.776,99.116,53.776z"/>
<path fill-rule="evenodd" clip-rule="evenodd" fill="#ffe861" class="fill" d="M137.55,32.055c3.297,2.329,5.926,5.082,8.252,8.142
	c0.703,0.928,1.381,1.88,2.145,2.756c1.078,1.237,1.85,2.622,2.383,4.416c-8.836,5.376-16.617,12.391-25.674,17.606
	c-2.115-1.899-4.168-3.742-6.162-5.532c0-0.23-0.043-0.368,0.006-0.443c2.451-3.821,4.803-7.711,7.398-11.431
	c2.375-3.4,5.027-6.604,7.531-9.919c1.137-1.505,2.199-3.064,3.303-4.594C136.954,32.746,137.214,32.463,137.55,32.055z"/>
<path fill-rule="evenodd" clip-rule="evenodd" fill="#ffe861" class="fill" d="M76.388,64.803c-1.527,2.469-3.008,4.867-4.615,7.464
	c-0.566-0.105-1.281-0.146-1.93-0.377c-4.387-1.565-8.711-3.321-13.15-4.72c-4.598-1.445-9.301-2.557-13.957-3.812
	c-0.314-0.085-0.631-0.162-0.934-0.238c0.09-2.276,6.615-15.709,8.553-17.503c0.463,0.198,1.061,0.346,1.535,0.671
	c3.336,2.293,6.721,4.522,9.947,6.965c4.645,3.515,9.166,7.19,13.736,10.801C75.87,64.287,76.132,64.566,76.388,64.803z"/>
<path fill-rule="evenodd" clip-rule="evenodd" fill="#ffe861" class="fill" d="M40.276,61.187c-0.271-0.139-0.438-0.188-0.561-0.29
	c-0.293-0.249-0.566-0.523-0.891-0.828c0.076-0.328,0.096-0.668,0.232-0.951c1.77-3.703,3.557-7.398,5.34-11.095
	c0.072-0.149,0.127-0.314,0.229-0.443c2.74-3.488,4.67-7.558,7.781-10.779c2.547-2.633,4.965-5.398,7.623-7.915
	c2.715-2.571,5.938-4.426,9.438-5.788c2.373-0.923,4.67-2.051,7.07-2.891c3.506-1.229,7.035-2.425,10.629-3.358
	c2.346-0.61,4.809-0.867,7.236-1.045c4.422-0.325,8.863-0.723,13.287-0.63c4.766,0.1,9.512,0.726,14.006,2.591
	c3.379,1.404,6.844,2.61,10.223,4.019c4.531,1.885,8.893,4.142,12.436,7.595c3.615,3.523,7.186,7.126,10.07,11.3
	c1.129,1.634,2.166,3.393,2.879,5.236c1.578,4.088,2.963,8.253,4.34,12.415c0.414,1.255,0.646,2.595,0.789,3.913
	c0.701,6.513,1.35,13.032,2.002,19.551c0.059,0.581,0.008,1.174,0.008,1.809c-0.561,0.054-0.883,0.11-1.205,0.109
	c-0.383-0.001-0.766-0.051-1.295-0.092c-0.184-1.831-0.416-3.636-0.533-5.447c-0.389-5.996-1.398-11.892-2.766-17.736
	c-0.289-1.234-0.316-2.531-0.623-3.761c-1.146-4.601-2.998-8.93-5.258-13.088c-0.635-1.167-1.225-2.363-1.936-3.484
	c-2.037-3.217-4.654-5.978-7.496-8.437c-2.881-2.497-6.156-4.513-9.455-6.476c-3.027-1.798-6.355-2.869-9.506-4.356
	c-2.926-1.381-6.07-2.144-9.297-2.457c-3.92-0.382-7.842-0.856-11.773-0.999c-6.258-0.226-12.371,0.762-18.4,2.498
	c-5.852,1.686-11.387,4.063-16.736,6.917c-1.857,0.99-3.768,1.978-5.393,3.291c-2.58,2.087-5.012,4.376-7.373,6.714
	c-1.771,1.751-3.443,3.633-4.961,5.607c-1.514,1.97-2.977,4.029-4.121,6.227C44.192,52.703,42.317,56.907,40.276,61.187z"/>
<path fill-rule="evenodd" clip-rule="evenodd" fill="#ffe861" class="fill" d="M71.013,74.045c-0.67,2.439-1.297,4.717-2.006,7.293
	c-0.322,0.047-0.955,0.218-1.588,0.218c-3.547-0.003-7.096-0.069-10.643-0.068c-1.273,0.001-2.555,0.246-3.822,0.18
	c-5.26-0.278-10.514-0.633-15.77-0.965c-0.158-0.011-0.312-0.089-0.5-0.146c0.479-5.612,1.646-11.012,4.264-16.04
	C51.22,67.026,61.167,70.245,71.013,74.045z"/>
<path fill-rule="evenodd" clip-rule="evenodd" fill="#ffe861" class="fill" d="M151.12,48.746c2.543,5.948,3.178,12.04,4.58,17.969
	c-0.393,0.239-0.604,0.438-0.848,0.505c-2.838,0.762-5.686,1.486-8.52,2.255c-2.938,0.797-5.855,1.675-8.803,2.435
	c-2.994,0.771-6.014,1.44-9.041,2.159c-1.016-2.63-1.986-5.142-3.027-7.829c0.445-0.283,0.99-0.631,1.537-0.976
	c1.59-1,3.209-1.957,4.766-3.007c2.113-1.425,4.207-2.881,6.258-4.395c2.09-1.541,4.062-3.248,6.189-4.732
	C146.378,51.617,148.673,50.287,151.12,48.746z"/>
<path fill-rule="evenodd" clip-rule="evenodd" fill="#ffe861" class="fill" d="M129.722,81.712c-0.344-1.8-0.727-3.791-1.121-5.848
	c9.092-2.577,18.029-4.812,27.049-6.933c1.492,4.788,2.152,9.557,1.574,14.546c-1.619,0-3.221,0.041-4.816-0.009
	c-4.881-0.148-9.76-0.342-14.639-0.497c-0.941-0.029-1.887,0.01-2.828,0.06C133.202,83.123,131.489,83.144,129.722,81.712z"/>
<path fill-rule="evenodd" clip-rule="evenodd" fill="#ffe861" class="fill" d="M75.956,18.752c-0.256-0.716-0.438-1.226-0.688-1.928
	c1.605-0.624,3.098-1.334,4.666-1.788c3.787-1.099,7.604-2.091,11.416-3.096c0.527-0.139,1.1-0.128,1.65-0.162
	c3.492-0.213,6.98-0.492,10.477-0.594c1.766-0.052,3.541,0.222,5.311,0.355c4.885,0.373,9.699,1.194,14.432,2.434
	c4.703,1.232,9.02,3.314,13.211,5.798c6.555,3.887,11.947,9.013,16.797,14.78c1.605,1.908,3.045,3.956,4.551,5.949
	c3.064,4.061,4.59,8.854,6.324,13.529c1.988,5.36,2.555,11.006,2.928,16.668c0.246,3.712,0.469,7.425,0.691,11.139
	c0.031,0.547,0.004,1.096,0.004,1.756c-0.496,0.035-0.906,0.062-1.326,0.092c-0.07-0.251-0.137-0.399-0.152-0.554
	c-0.742-6.951-1.406-13.911-2.254-20.849c-0.293-2.401-0.805-4.789-1.732-7.092c-1.182-2.925-2.002-5.994-3.125-8.945
	c-1.287-3.384-3.004-6.537-5.508-9.222c-2.154-2.31-4.201-4.719-6.365-7.02c-2.174-2.315-4.605-4.337-7.371-5.932
	c-4.672-2.692-9.559-4.892-14.682-6.583c-1.736-0.572-3.402-1.354-5.129-1.957c-4.031-1.412-8.238-1.887-12.461-1.864
	c-5.1,0.028-10.203,0.325-15.301,0.608c-2.271,0.126-4.479,0.664-6.65,1.421C82.532,16.792,79.331,17.701,75.956,18.752z"/>
<path fill-rule="evenodd" clip-rule="evenodd" fill="#ffe861" class="fill" d="M134.958,88.968c-2.076-1.58-2.453-2.14-2.758-4.091
	c1.6-0.069,3.182-0.224,4.76-0.19c4.492,0.098,8.984,0.271,13.477,0.419c2.717,0.089,5.432,0.219,8.148,0.272
	c2.385,0.046,4.773-0.025,7.158,0.026c1.592,0.035,3.182,0.193,5.027,0.313c-0.123,1.265-0.229,2.33-0.336,3.408
	c-2.125,0.869-2.824,2.908-4.254,4.445c-1.924,0-3.9,0-5.873,0c-0.115-1.512,0.697-2.471,2.256-2.659
	c0.488-0.06,0.992,0.027,1.49,0.052c0.387,0.02,0.773,0.064,1.158,0.057c0.15-0.005,0.297-0.127,0.438-0.191
	c-0.025-1.226-0.117-1.358-1.225-1.429c-1.938-0.122-3.877-0.228-5.816-0.309c-4.869-0.208-9.738-0.433-14.609-0.574
	c-1.492-0.045-2.99,0.162-4.486,0.24C137.917,88.841,136.319,88.905,134.958,88.968z"/>
<path fill-rule="evenodd" clip-rule="evenodd" fill="#ffe861" class="fill" d="M72.874,82.937c0.039,0.9,0.066,1.499,0.098,2.212
	c-1.854,1.346-4.15,2.21-5.234,4.592c-1.264,0.097-2.506,0.188-3.99,0.3c0.119-0.757,0.199-1.267,0.281-1.793
	c1.264-0.236,2.426-0.454,3.645-0.683c-0.186-1.014-0.732-1.164-1.381-1.152c-1.217,0.023-2.436,0.043-3.652,0.091
	c-6.715,0.271-13.422,0.225-20.125-0.344c-2.094-0.178-4.201-0.209-6.492-0.315c-0.461-1.155-0.92-2.305-1.393-3.487
	c0.369-0.128,0.527-0.238,0.674-0.226C47.747,83.324,60.224,83.199,72.874,82.937z"/>
<path fill="#ffe861" class="fill" d="M66.87,163.666c-0.211-5.049-0.184-10.099-0.168-15.149c0.025-8.27,0.256-16.541-0.016-24.809
	c-0.143-4.327-0.396-8.649-0.061-12.979c0.465-6.028,0.168-12.07,0.268-18.104c-1.576,0.148-3.146,0.296-4.717,0.397
	c-2.424,0.157-4.854,0.294-7.281,0.291c0.027,0.521,0.047,1.043,0.062,1.563c0.109,4.04,0.314,8.075,0.293,12.128
	c-0.025,4.763-0.045,9.536,0.205,14.309c0.164,3.146,0.623,6.296,0.338,9.474c-0.264,2.92-0.412,5.851-0.533,8.781
	c-0.057,1.38,0.123,2.77,0.098,4.152c-0.043,2.219-0.123,4.438-0.27,6.651c-0.072,1.127,0.154,2.213,0.268,3.312
	c0.414,4.062-0.252,8.097-0.219,12.146c0.033,3.876,0.08,7.752,0.135,11.628c0.004,0.379,0.104,0.759,0.182,1.296
	c0.9,0.157,1.668,0.423,2.426,0.402c2.916-0.072,5.83-0.171,8.811,0.297c0.338-2.225,0.369-4.285,0.275-6.307
	C66.817,169.982,67.005,166.821,66.87,163.666z"/>
<path fill="#ffe861" class="fill" d="M165.954,165.514c0.066-5.277,0.109-10.553,0.006-15.83c-0.043-2.159-0.26-4.318-0.221-6.476
	c0.115-6.215,0.105-12.433,0.432-18.645c0.127-2.434-0.111-4.883-0.131-7.324c-0.049-5.943-0.041-11.885-0.113-17.827
	c-0.014-1.112-0.199-2.221-0.289-3.337c-0.129,0.006-0.258,0.017-0.385,0.013c-2.857-0.083-5.713-0.275-8.57-0.376
	c0.113,4.825,0.248,9.647,0.188,14.477c-0.078,6.325,0.295,12.651,0.016,18.975c-0.225,5.041,0.211,10.09-0.041,15.11
	c-0.213,4.271,0.305,8.527-0.113,12.788c-0.238,2.436,0.23,4.876,0.195,7.322c-0.043,2.829-0.008,5.654-0.186,8.486
	c-0.135,2.138-0.182,4.316,0.125,6.465c0.131,0.921-0.312,1.865,0.098,2.872c3.016,0.318,6.012-0.547,9.008,0.059
	c0.127-0.365,0.26-0.567,0.258-0.768c-0.021-3.053-0.051-6.105-0.105-9.157C166.083,170.065,165.927,167.789,165.954,165.514z"/>
</svg>
