<svg version="1.1" id="svg" xmlns="http://www.w3.org/2000/svg" xmlns:xlink="http://www.w3.org/1999/xlink" x="0px" y="0px"
	 width="200px" height="200px" viewBox="0 0 200 200" enable-background="new 0 0 200 200" xml:space="preserve">
<path class="stroke" fill="#2d4809"  d="M172.841,80.782c-0.341-1.812-1.042-3.395-2.125-4.624c0.081-1.948,1.876-3.556,0.486-5.355
	c-2.23-1.074-4.247-0.515-6.208,0.393c-0.55-0.305-1.029-0.588-1.526-0.839c-2.009-1.012-4.115-1.826-6.342-2.078
	c-5.203-0.587-10.274,0.252-15.114,2.136c-4.939,1.923-9.831,3.979-14.808,5.815c-4.715,1.74-9.497,3.297-14.127,5.269
	c-0.257,0.109-0.519,0.209-0.988,0.088c-0.622-0.948-1.392-1.976-1.788-3.208c-1.161-3.607-2.816-7.034-3.812-10.71
	c-0.99-3.654-2.326-7.208-3.074-10.94c-0.416-2.079-0.807-4.161-1.144-6.254c-0.366-2.272-1.204-4.382-2.028-6.522
	c-1.039-2.702-1.731-5.537-2.637-8.294c-1.036-3.158-2.375-6.162-4.902-8.462c-1.033-0.94-2.033-1.944-3.392-2.415
	c-2.934-1.018-5.788-2.191-9.075-1.639c-2.855,0.481-5.8,0.407-8.679,0.784c-3.315,0.434-6.427,1.465-8.877,3.939
	c-0.627,0.634-1.351,1.172-2.014,1.773c-3.687,3.346-6.333,7.325-7.489,12.229c-0.345,1.467-0.738,2.929-1.207,4.359
	c-1.791,5.473-4.089,10.741-6.358,16.026c-1.566,3.646-3.382,7.17-4.945,10.819c-1.051,2.456-2.249,4.862-3.284,7.334
	c-1.446,3.456-2.623,7.006-3.815,10.555c-1.686,5.021-2.698,10.141-2.64,15.437c0.057,5.256,0.391,10.504,1.045,15.717
	c0.424,3.373,0.967,6.747,2.099,9.984c1.46,4.174,3.865,7.777,6.682,11.14c2.646,3.157,5.688,5.81,9.428,7.614
	c1.988,0.961,4.119,1.38,6.264,1.767c4.358,0.783,8.712,1.364,13.153,0.553c1.133-0.207,2.311-0.368,3.548-0.428
	c1.479,0.987,2.538,2.205,3.465,3.546c1.217,1.76,2.626,3.322,4.368,4.591c1.082,0.789,2.06,1.721,3.139,2.516
	c2.568,1.893,5.178,3.73,8.296,4.639c3.351,0.975,6.794,1.319,10.262,1.473c4.215,0.188,8.354-0.669,12.508-1.103
	c4.428-0.462,8.701-1.799,12.76-3.827c5.205-2.6,9.837-5.916,13.974-9.98c1.396-1.371,2.691-2.828,4.02-4.258
	c1.402-1.509,2.821-3.008,4.124-4.601c3.083-3.767,5.438-8.001,7.827-12.225c3.074-5.438,5.208-11.222,6.976-17.186
	c0.84-2.836,1.389-5.754,2.372-8.544c2.211-6.278,4.164-12.63,5.39-19.178C173.11,86.031,173.34,83.427,172.841,80.782z"/>
<path fill-rule="evenodd" clip-rule="evenodd" fill="#e1fe85" class="fill" d="M81.727,84.072c-1.828,0.474-0.805,2.28-1.672,3.284
	c-1.349-1.812-0.179-4.405-1.81-5.938c-0.737-0.253-1.243-0.12-1.722,0.378c-0.416,0.912-0.162,2.037-0.614,3.081
	c-0.549-0.171-0.493-0.632-0.546-0.957c-0.83-5.13-1.786-10.251-1.483-15.485c0.101-1.743-0.169-3.461-0.221-5.194
	c-0.024-0.786-0.082-1.57,0.546-2.294c0.737-0.038,1.387,0.655,2.316,0.431c0.881-0.626,0.789-1.64,0.748-2.646
	c-0.138-3.466-0.455-6.917-0.788-10.368c-0.047-0.491-0.171-0.989,0.26-1.546c1.025,0.419,1.834,1.566,3.174,1.129
	c0.76-0.61,0.934-1.466,0.832-2.394c-0.085-0.777-0.246-1.545-0.369-2.318c-0.125-0.788-0.215-1.569,0.691-2.166
	c0.712,1.301,0.871,3.152,2.931,3.153c0.569-0.21,0.837-0.698,1.07-1.17c0.34-2.592-1.176-4.967-0.896-7.807
	c0.868,0.737,1.01,1.53,1.277,2.218c0.404,1.039,0.723,2.118,1.005,3.198c0.213,0.822,0.63,1.404,1.108,1.601
	c0.946,0.214,1.28-0.458,1.875-0.498c0.593,0.841,0.572,1.823,0.775,2.732c0.182,0.817,0.263,1.657,0.436,2.478
	c0.281,1.329,0.689,1.608,2.216,1.622c0.658-0.243,0.522-1.135,1.272-1.412c0.761,1.016,0.865,2.259,0.983,3.434
	c0.51,5.068,1.572,10.055,2.157,15.109c0.078,0.676,0.309,1.302,0.628,1.909c0.486,0.51,1.065,0.787,1.784,0.689
	c0.595-0.086,0.612-0.773,1.055-1.013c0.872,0.987,3.72,11.485,3.524,12.985c-0.377,0.367-0.835,0.181-1.27,0.175
	c-1.621-0.022-2.065,0.446-2.054,2.103c0.005,0.738,0.129,1.441,0.381,2.135c0.207,0.569,0.491,1.137,0.233,1.981
	c-2.066,1.024-4.252,2.109-6.676,3.312c-0.298-1.681-0.623-3.234-0.84-4.802c-0.323-2.324-0.537-4.663-1.024-6.965
	c-0.175-0.826-0.387-1.632-0.763-2.387c-0.276-0.556-0.573-1.107-1.419-1.184c-0.874,0.266-1.162,1.006-1.091,1.909
	c0.053,0.665,0.214,1.324,0.354,1.98c0.901,4.218,1.313,8.499,1.666,12.788c0.009,0.109-0.015,0.222-0.027,0.387
	c-0.349,0.47-0.793,0.85-1.454,0.922c-0.548-0.486-0.411-1.152-0.506-1.732c-0.334-2.045-0.675-4.089-1.43-6.03
	c-0.416-1.069-1-1.994-2.265-2.093c-0.788,0.443-0.722,1.171-0.77,1.819c-0.123,1.642,0.253,3.229,0.667,4.797
	c0.484,1.833,1.085,3.64,1.117,5.604c-0.584,0.597-1.163,1.185-1.992,1.606c-0.396-0.409-0.423-0.904-0.451-1.383
	c-0.168-2.854-1.109-5.594-1.226-8.462C83.38,85.629,82.905,85.071,81.727,84.072z M84.951,59.81
	c-1.333,0.199-1.575,0.405-1.543,1.655c0.067,2.624,0.194,5.248,0.844,7.808c0.18,0.71,0.271,1.422,0.328,2.146
	c0.155,2.009,0.142,4.019-0.047,6.02c-0.092,0.978,0.039,1.898,0.379,2.792c0.291,0.759,0.789,1.206,1.609,0.863
	c0.426-0.4,0.409-0.854,0.442-1.299c0.135-1.833,0.187-3.662,0.143-5.505c-0.092-3.908-0.3-7.805-0.907-11.669
	C86.036,61.584,85.804,60.535,84.951,59.81z M82.079,75.12c0.6-0.957,0.484-1.989,0.375-2.965c-0.306-2.714-0.694-5.419-1.079-8.122
	c-0.078-0.547-0.222-1.105-0.453-1.604c-0.397-0.857-0.865-0.981-2.116-0.673c-0.32,1.014-0.17,2.067,0,3.102
	c0.426,2.604,0.584,5.216,0.388,7.848c-0.064,0.867,0.07,1.666,0.671,2.325C80.552,75.407,81.231,75.562,82.079,75.12z
	 M86.357,56.686c1.287-3.045-0.136-5.838-0.666-8.682c-0.108-0.583-0.283-1.209-0.847-1.554c-0.523-0.157-0.899,0.003-1.168,0.437
	c-0.632,1.916,0.172,3.761,0.296,5.638c0.07,1.054,0.257,2.107,0.487,3.141C84.649,56.52,85.148,57.066,86.357,56.686z
	 M80.501,58.105c1.535,0.498,2.17,0.04,2.134-1.461c-0.046-1.909-0.701-3.688-1.145-5.475c-1.416-0.337-2.178,0.076-1.98,1.306
	C79.809,54.321,79.758,56.244,80.501,58.105z M75.99,78.042c0.651,0.616,1.254,0.562,1.916-0.271
	c-0.062-2.061-0.333-4.207-0.62-6.349c-0.041-0.309-0.293-0.605-0.684-0.652C75.062,71.755,74.954,73.013,75.99,78.042z"/>
<path fill-rule="evenodd" clip-rule="evenodd" fill="#e1fe85" class="fill" d="M118.422,155.81c-5.584,0.01-11.059-0.796-16.237-2.885
	c-3.415-1.377-6.479-3.426-9.257-5.925c-1.369-1.231-2.539-2.639-3.901-3.863c-0.65-0.584-1.163-1.358-1.61-2.12
	c-1.333-2.278-3.06-4.262-4.655-6.342c-1.771-2.312-3.431-4.708-4.655-7.338c-1.498-3.218-2.158-6.625-2.046-10.235
	c0.1-3.241,1.186-6.133,2.516-8.958c0.606-1.286,1.51-2.532,2.56-3.491c3.527-3.23,6.917-6.595,11.253-8.888
	c3.195-1.689,6.457-3.309,9.468-5.371c1.504-1.029,3.26-1.726,4.966-2.413c1.354-0.547,2.662-1.164,3.915-1.896
	c1.459-0.854,3.033-1.396,4.604-1.993c2.396-0.912,4.718-2.022,7.07-3.05c3.327-1.455,6.624-3.057,10.129-3.976
	c3.032-0.795,6.002-1.754,8.946-2.786c2.795-0.981,5.57-1.998,8.459-2.675c4.151-0.972,8.274-0.59,12.246,0.68
	c3.239,1.035,5.7,3.353,7.245,6.37c0.827,1.614,1.052,3.552,1.079,5.386c0.056,3.804-0.207,7.589-1.208,11.295
	c-2.57,9.514-6.017,18.729-9.624,27.877c-2.964,7.515-7.58,14.034-13.115,19.904c-0.308,0.325-0.656,0.623-0.905,0.988
	c-1.858,2.726-4.639,4.301-7.368,5.944c-3.714,2.235-7.679,3.856-11.898,4.865C123.775,155.54,121.123,155.859,118.422,155.81z
	 M119.658,154.652c2.037,0.018,4.021-0.344,6.021-0.567c4.164-0.465,7.873-2.054,11.232-4.478c2.304-1.662,4.586-3.358,6.698-5.275
	c1.243-1.129,2.44-2.283,3.549-3.55c1.921-2.197,3.509-4.608,5.058-7.072c2.021-3.211,4.111-6.36,5.598-9.885
	c2.781-6.598,4.969-13.411,7.313-20.162c2.131-6.133,3.446-12.501,4.183-18.958c0.423-3.701-0.857-6.925-3.807-9.187
	c-3.236-2.482-6.797-4.358-11.137-3.706c-0.273,0.04-0.56,0.016-0.838,0.001c-1.822-0.094-3.536,0.337-5.24,0.949
	c-4.729,1.702-9.307,3.777-14.003,5.57c-4.855,1.854-9.695,3.718-14.662,5.259c-1.859,0.578-3.604,1.519-5.447,2.153
	c-3.602,1.241-7.07,2.755-10.445,4.525c-2.783,1.461-5.233,3.426-7.955,4.984c-3.191,1.83-6.312,3.786-9.224,6.081
	c-2.219,1.748-3.983,3.915-5.954,5.879c-1.607,1.602-2.524,3.791-3.579,5.821c-0.125,0.242-0.218,0.527-0.229,0.797
	c-0.114,2.803-0.042,5.646,0.908,8.268c2.032,5.609,4.922,10.765,9.007,15.188c0.946,1.025,2.009,2.021,2.658,3.225
	c1.232,2.285,3.066,3.943,4.998,5.556c1.158,0.967,2.302,1.95,3.463,2.914c1.034,0.86,2.149,1.565,3.38,2.147
	C107.068,153.894,113.344,154.365,119.658,154.652z"/>
<path fill-rule="evenodd" clip-rule="evenodd" fill="#e1fe85" class="fill" d="M79.772,156.159c-1.433-1.078-2.524-2.508-3.462-3.987
	c-3.396-5.352-5.332-11.119-4.888-17.582c0.257-3.747,0.8-7.438,1.571-11.103c0.192-0.913,0.172-1.888,0.68-2.736
	c0.528,0.214,0.353,0.667,0.397,1.022c0.231,1.878,0.198,3.772,0.377,5.659c0.245,2.574-0.198,5.132-0.802,7.635
	c-0.56,2.32-0.555,4.506,0.091,6.896c0.96,3.547,2.321,6.876,3.998,10.104c0.691,1.33,1.532,2.583,2.305,3.87
	C79.951,156.011,79.861,156.084,79.772,156.159z"/>
<path fill-rule="evenodd" clip-rule="evenodd" fill="#e1fe85" class="fill" d="M68.351,84.936c-0.969-4.505-1.5-15.896-0.798-17.416
	c0.605,0.777,0.622,1.682,0.785,2.536c0.822,4.296,0.688,8.653,0.828,12.992C69.194,83.918,69.175,83.919,68.351,84.936z"/>
<path fill-rule="evenodd" clip-rule="evenodd" fill="#e1fe85" class="fill" d="M72.132,103.693c-0.533-0.589-0.533-1.217-0.586-1.812
	c-0.109-1.22-0.296-2.45-0.234-3.666c0.104-2.026-0.278-3.997-0.437-5.992c-0.079-0.983-0.228-1.994,0.538-2.771
	c0.654,0.001,0.672,0.461,0.751,0.811c0.348,1.523,0.631,3.065,0.651,4.628c0.029,2.282,0.436,4.553,0.217,6.841
	C72.964,102.439,72.978,103.199,72.132,103.693z"/>
<path fill-rule="evenodd" clip-rule="evenodd" fill="#e1fe85" class="fill" d="M62.574,57.302c0.116,2.14-0.458,4.043-0.714,5.973
	c-0.266,1.992-0.596,3.972-1.087,6.019c-0.349,0.451-0.747,0.977-1.496,1.3c-0.642-0.976-0.374-1.956-0.085-2.883
	c0.91-2.925,1.86-5.834,2.435-8.852C61.721,58.359,61.699,57.729,62.574,57.302z"/>
<path fill-rule="evenodd" clip-rule="evenodd" fill="#e1fe85" class="fill" d="M62.048,88.877c1.292,1.929,0.984,11.873-0.342,14.212
	C60.937,101.613,61.136,91.457,62.048,88.877z"/>
<path fill-rule="evenodd" clip-rule="evenodd" fill="#e1fe85" class="fill" d="M69.745,47.358c1.385,1.737,1.008,3.767,1.247,5.639
	c0.088,0.686,0.11,1.478-0.885,1.989c-0.771-1.894-0.579-3.907-0.971-5.803C69.015,48.6,68.967,47.945,69.745,47.358z"/>
<path fill-rule="evenodd" clip-rule="evenodd" fill="#e1fe85" class="fill" d="M82.124,128.116c0.695,0.306,1.129,0.796,1.584,1.275
	c2.968,3.126,5.607,6.521,8.208,9.951c0.573,0.756,1.185,1.483,1.79,2.216c0.321,0.388,0.678,0.731,1.2,0.655
	c0.415-0.382,0.17-0.689-0.02-0.938c-3.527-4.612-6.752-9.47-10.979-13.513c-0.84-0.804-1.144-1.89-1.519-2.943
	c-0.205-0.576-0.156-1.265-0.6-1.726c-0.406-0.421-0.276-1.095-0.819-1.49c-1.14,0.698-0.487,1.78-0.54,2.728
	c-1.154-1.405-1.745-3-1.682-4.616c0.114-2.909,0.318-5.803,1.354-8.575c0.257-0.688,0.491-1.391,0.97-1.935
	c1.843-2.092,3.563-4.302,5.686-6.135c0.24-0.207,0.488-0.479,0.878-0.301c0.377,0.603-0.754,0.855-0.265,1.571
	c0.745-0.011,1.204-0.637,1.725-1.064c1.988-1.63,4.067-3.057,6.438-4.137c2.313-1.056,4.602-2.272,6.317-4.271
	c0.065-0.076,0.072-0.203,0.107-0.314c-0.271-0.374-0.58-0.159-0.874-0.043c-1.358,0.533-2.648,1.205-3.799,2.104
	c-1.422,1.112-3.004,1.869-4.823,2.19c1.951-1.147,3.9-2.295,5.849-3.444c0.384-0.226,0.792-0.42,1.148-0.685
	c4.438-3.305,9.379-5.65,14.575-7.445c2.328-0.805,4.472-2.025,6.852-2.706c3.06-0.872,6.103-1.809,9.052-3.031
	c4.489-1.86,9.083-3.453,13.566-5.341c2.31-0.974,4.671-1.953,7.104-2.479c5.399-1.17,10.445-0.353,14.699,3.519
	c2.014,1.831,2.865,4.246,2.648,6.809c-0.566,6.703-1.918,13.285-4.217,19.613c-1.337,3.68-2.387,7.448-3.766,11.112
	c-2.108,5.6-4.084,11.254-7.458,16.262c-2.151,3.189-4.088,6.523-6.707,9.396c-1.558,1.709-3.36,3.113-5.067,4.633
	c-2.25,2.002-4.77,3.604-7.389,5.118c-3.989,2.306-8.331,2.631-12.729,3.058c-3.631,0.352-7.104-0.578-10.651-0.948
	c-3.175-0.331-6.091-1.445-8.932-2.739c-1.825-0.833-3.2-2.402-4.778-3.639c-2.705-2.119-4.783-4.725-6.883-7.428
	c-2.187-2.813-4.371-5.652-6.651-8.404C82.289,129.506,82.045,128.923,82.124,128.116z M116.479,138.366
	c1.016,0.163,1.819,0.113,2.562-0.089c3.6-0.979,7.149-1.943,10.355-4.102c3.045-2.048,5.357-4.548,6.73-7.865
	c1.002-2.425,2.148-4.782,3.156-7.204c1.722-4.137,2.554-8.457,2.582-12.894c0.027-4.162-2.287-7.009-5.7-7.967
	c-2.657-0.746-5.407-0.953-8.147-0.521c-3.694,0.58-7.383,1.172-10.988,2.239c-4.15,1.228-8.116,2.779-11.789,5.124
	c-3.422,2.186-6.255,4.847-7.969,8.575c-0.558,1.214-1.119,2.44-1.518,3.712c-0.393,1.257-1.097,2.439-0.877,3.871
	c0.469,3.061,1.579,5.815,3.677,8.119c1.814,1.992,3.833,3.762,6.238,5.004C108.553,136.315,112.23,138.554,116.479,138.366z
	 M164.665,78.299c-0.355-0.508-0.783-0.908-1.18-1.229c-2.74-2.21-5.76-3.652-9.409-2.781c-0.877,0.21-1.76,0.323-2.643,0.44
	c-2.406,0.321-4.681,0.99-6.828,2.16c-2.104,1.146-4.213,2.275-6.652,2.675c-1.188,0.194-2.316,0.795-3.459,1.245
	c-0.349,0.138-0.736,0.326-0.595,1.094c2.445-0.337,4.674-1.696,7.151-1.613c1.414-1.165,3.163-1.521,4.656-2.369
	c1.235-0.701,2.51-1.247,3.879-1.493c2.085-0.374,4.189-0.646,6.293-0.89c1.124-0.131,2.205,0.152,3.279,0.534
	c1.553,0.551,2.817,1.589,4.244,2.349C163.811,78.639,164.171,78.922,164.665,78.299z M148.192,133.775
	c-0.557-0.072-0.799,0.288-0.956,0.621c-0.531,1.127-1.432,1.992-2.072,3.028c-1.477,2.389-3.69,4.033-5.805,5.739
	c-1.218,0.979-2.425,1.949-3.497,3.054c-1.859,0.811-3.852,1.386-5.497,2.479c-1.623,1.079-3.826,0.998-5.183,2.513
	c0.264,0.48,0.531,0.606,0.811,0.544c1.246-0.278,2.575-0.37,3.663-1.1c1.359-0.913,2.859-1.516,4.351-2.143
	c1.404-0.591,2.688-1.376,3.855-2.329c1.812-1.478,3.59-2.999,5.347-4.541c1.951-1.714,3.402-3.832,4.673-6.071
	C148.178,135.05,148.663,134.452,148.192,133.775z M159.007,108.43c-0.555,1.18-0.601,2.43-1.042,3.572
	c-0.806,2.08-1.61,4.175-2.195,6.324c-0.905,3.331-2.423,6.341-4.282,9.217c-0.625,0.966-1.175,1.998-1.236,3.229
	c0.911,0.389,1.181-0.204,1.476-0.732c0.957-1.705,1.905-3.415,2.861-5.12c0.546-0.972,1.134-1.917,1.487-2.991
	c0.836-2.543,1.738-5.063,2.565-7.608c0.499-1.536,1.117-3.047,1.248-4.682C159.934,109.08,160.038,108.474,159.007,108.43z
	 M128.706,83.263c-2.211,0.806-4.159,1.617-6.169,2.229c-5.293,1.611-10.447,3.584-15.54,5.729c-0.745,0.313-1.273,0.769-1.38,1.628
	c0.846,0.265,1.224-0.403,1.791-0.574c2.559-0.775,5.054-1.733,7.525-2.758c1.474-0.609,2.949-1.213,4.521-1.613
	c2.808-0.716,5.497-1.812,8.011-3.284C127.932,84.349,128.489,84.154,128.706,83.263z M159.445,78.415
	c-0.058,0.948,0.692,1.066,1.17,1.346c1.868,1.089,2.329,2.763,2.041,4.737c-0.121,0.826-0.357,1.641-0.609,2.438
	c-1.165,3.688-1.394,7.58-2.464,11.287c-0.153,0.528-0.128,1.009,0.616,1.124c0.697-0.436,0.716-1.224,0.905-1.889
	c0.707-2.474,0.846-5.067,1.598-7.537c0.423-1.388,0.756-2.805,1.094-4.218c0.736-3.076-0.182-5.733-2.436-7.087
	C160.788,78.273,160.203,77.88,159.445,78.415z M165.937,81.337c-0.679,0.223-0.789,0.657-0.787,1.105
	c0.001,1.743-0.424,3.427-0.693,5.13c-0.7,4.4-1.25,8.836-2.975,13.007c-0.274,0.664-0.434,1.385-0.576,2.093
	c-0.104,0.521-0.291,1.107,0.352,1.546c0.871-0.323,0.9-1.196,1.138-1.883c2.112-6.095,3.081-12.428,3.867-18.797
	C166.352,82.812,166.294,82.105,165.937,81.337z M120.06,151.395c-0.163-0.958-0.888-0.951-1.545-1.037
	c-2.11-0.275-4.232-0.301-6.354-0.264c-3.897,0.068-7.513-0.803-10.764-3.036c-0.771-0.529-1.621-0.954-2.626-0.926
	c0.016,0.174-0.008,0.293,0.04,0.368c0.117,0.186,0.239,0.388,0.41,0.519c3.25,2.522,6.863,4.206,11.014,4.397
	c2.786,0.13,5.576,0.211,8.362,0.371C119.076,151.814,119.604,151.988,120.06,151.395z M94.968,138.534
	c-0.021-1.829-1.024-3.187-1.808-4.589c-0.651-1.166-1.707-2.021-2.596-2.921c-0.577,0.081-0.963,0.255-1.087,0.764
	C90.078,133.862,93.313,137.938,94.968,138.534z M96.109,141.147c2.254,2.821,4.771,4.932,8.299,5.579
	c0.353,0.065,0.658-0.072,0.807-0.517c-0.033-0.545-0.396-0.821-0.947-0.908c-0.611-0.096-1.17-0.337-1.729-0.595
	c-1.705-0.789-3.079-1.979-4.244-3.428C97.747,140.597,97.168,140.209,96.109,141.147z M134.22,144.525
	c-1.573,0.603-2.554,1.683-3.966,1.934c-1.422,0.251-2.717,1.017-4.185,1.163c-1.331,0.134-2.689,0.203-3.958,0.798
	c0.422,0.847,1.019,0.712,1.563,0.697c3.31-0.087,6.348-1.159,9.294-2.567C133.668,146.215,134.025,145.635,134.22,144.525z
	 M92.381,103.571c0.197,0,0.343,0.045,0.406-0.008c1.675-1.396,3.53-2.471,5.561-3.273c1.195-0.474,1.891-1.527,2.649-2.515
	c-0.906-0.17-1.516,0.394-2.2,0.662c-1.956,0.767-3.96,1.46-5.564,2.928C92.547,101.994,91.99,102.59,92.381,103.571z
	 M132.959,84.344c0.179,0.376,0.418,0.416,0.628,0.384c3.053-0.474,5.9-1.613,8.747-2.743c0.351-0.141,0.684-0.418,0.419-0.943
	c-0.135-0.037-0.301-0.141-0.442-0.115c-2.801,0.518-5.429,1.661-8.197,2.302C133.499,83.369,133.067,83.786,132.959,84.344z
	 M80.364,116.931c1.043-0.808,1.253-1.789,1.306-2.754c0.094-1.732,0.708-3.237,1.65-4.657c0.347-0.522,0.835-1.047,0.583-1.788
	C81.169,108.018,79.804,113.094,80.364,116.931z M103.012,96.145c0.488,0.751,1.001,0.521,1.512,0.241
	c1.523-0.836,3.117-1.459,4.814-1.88c1.096-0.272,2.051-0.911,2.994-1.806C109.086,92.51,104.378,94.267,103.012,96.145z
	 M119.275,148.209c-1.309,0.351-2.484-0.123-3.685-0.273c-1.22-0.152-2.433-0.411-3.653-0.452c-1.158-0.038-2.229-0.845-3.483-0.49
	c0.208,0.878,0.839,1.007,1.414,1.185c2.36,0.729,4.837,0.831,7.251,1.261C118.027,149.599,118.87,149.305,119.275,148.209z
	 M151.01,122.666c0.999,0.48,1.339-0.116,1.583-0.651c1.132-2.492,1.973-5.095,2.814-7.693c0.131-0.402,0.221-0.901-0.638-1.146
	C153.217,116.197,152.551,119.59,151.01,122.666z M83.415,123.067c-0.195,2.765,2.16,6.811,4.189,6.81
	c0.422-0.483,0.285-0.902-0.162-1.279c-1.443-1.219-2.094-2.837-2.377-4.651c-0.033-0.209-0.167-0.402-0.272-0.644
	C84.377,123.185,84.024,122.856,83.415,123.067z M124.383,87.593c-2.803,0.958-5.309,1.806-7.807,2.68
	c-0.325,0.113-0.543,0.395-0.326,1.003c2.436,0.034,4.57-1.318,6.881-1.716C123.461,88.941,124.075,88.654,124.383,87.593z
	 M155.468,78.109c-0.535-1.208-1.359-1.663-2.67-1.379c-1.404,0.304-2.778,0.748-4.164,1.14c-0.556,0.157-1.014,0.416-0.994,1.193
	c1.055,0.27,1.994-0.016,2.94-0.311C152.149,78.263,153.693,77.599,155.468,78.109z M144.754,133.881
	c0.059,0.041,0.249-0.038,0.343-0.148c1.77-2.069,3.454-4.2,4.477-6.762c0.084-0.213-0.043-0.433-0.493-0.566
	c-1.619,2.131-3.167,4.398-4.661,6.705C144.267,133.346,144.338,133.648,144.754,133.881z M84.328,114.196
	c-0.809,0.183-1.123,0.72-1.181,1.33c-0.125,1.321-0.189,2.652-0.199,3.98c-0.005,0.63,0.369,1.019,1.199,0.907
	c0.603-1.363,0.221-2.943,0.835-4.262C84.749,115.458,84.545,114.847,84.328,114.196z M86.08,111.334
	c0.594-1.028,1.168-1.976,1.694-2.949c0.494-0.917,1.538-1.591,1.375-2.883c-2.062,0.851-4.11,3.659-4.145,5.601
	C85.253,111.508,85.597,111.552,86.08,111.334z M142.926,136.54c-1.552,0.473-1.862,1.792-2.795,2.471
	c-0.9,0.656-1.886,1.278-2.546,2.199c0.579,0.685,1.053,0.418,1.438,0.109C140.582,140.071,142.401,139.023,142.926,136.54z
	 M158.232,103.687c-1.331,1.832-1.228,3.88-1.994,5.602c-0.086,0.193,0.18,0.371,0.408,0.434
	C157.966,108.766,158.931,105.576,158.232,103.687z M129.836,85.674c-1.549-0.482-2.302,0.361-3.093,1.025
	c0.005,0.486,0.187,0.726,0.633,0.793C128.373,87.299,129.094,86.665,129.836,85.674z"/>
<path fill-rule="evenodd" clip-rule="evenodd" fill="#e1fe85" class="fill" d="M103.762,113.534c0.184,0.439,0.414,0.562,0.76,0.569
	c0.115-0.063,0.324-0.106,0.393-0.229c1.465-2.563,3.656-4.504,5.643-6.619c0.301-0.322,0.65-0.608,1.008-0.872
	c1.977-1.462,4.145-2.637,6.254-3.867c3.885-2.264,8.235-3.077,12.703-3.178c1.561-0.036,3.13-0.026,4.673,0.347
	c0.789,0.19,1.425,0.542,2.024,1.092c2.667,2.443,3.214,5.453,2.176,8.739c-1.195,3.781-2.511,7.531-3.944,11.229
	c-2.303,5.946-6.437,9.949-12.711,11.644c-1.727,0.466-3.453,0.932-5.183,1.381c-0.655,0.17-1.313,0.268-2.009,0.146
	c-1.003-0.61-1.88-1.372-2.549-2.4c0-1.539,0.03-3.096-0.007-4.652c-0.062-2.59-0.964-4.967-2.35-7.074
	c-1.495-2.275-4.009-2.89-6.552-3.252c-0.769-0.108-1.565-0.055-2.298-0.491c-0.224-0.505,0.02-0.966,0.193-1.42
	c1.333-3.453,3.276-6.464,6.314-8.676c0.732-0.532,1.187-1.528,2.506-1.403C108.266,107.537,104.655,109.574,103.762,113.534z
	 M133.602,106.832c-0.965,0.388-1.555,1.034-2.12,1.701c-1.379,1.621-2.785,3.222-4.417,4.589c-2.26,1.894-4.219,4.188-7.059,5.316
	c-1.681,0.668-3.041,1.87-4.562,2.806c-0.373,0.229-0.797,0.466-0.605,1.118c0.595,0.442,1.179,0.233,1.81-0.082
	c2.293-1.15,4.531-2.416,6.819-3.574c4.468-2.26,7.603-5.777,10.031-10.038C133.788,108.164,133.967,107.669,133.602,106.832z
	 M115.487,127.405c0.685,0.752,0.685,0.753,1.459,0.659c1.401-0.169,2.678-0.754,4.001-1.191c2.908-0.96,5.323-2.809,7.872-4.396
	c1.851-1.155,3.413-2.694,4.623-4.555c0.386-0.591,0.729-1.119,0.099-1.672c-0.688-0.051-0.985,0.425-1.377,0.71
	c-2.977,2.167-5.661,4.713-8.854,6.607c-2.208,1.311-4.336,2.735-6.917,3.227C116.014,126.865,115.608,126.934,115.487,127.405z
	 M117.828,130.216c0.721,1.019,1.397,0.807,2.048,0.725c2.583-0.326,4.968-1.279,7.197-2.539c1.391-0.785,2.72-1.745,3.812-2.96
	c0.368-0.409,0.809-0.82,0.337-1.44c-0.647-0.162-1.046,0.258-1.482,0.595c-2.399,1.851-4.955,3.356-7.964,4.057
	C120.469,128.955,119.253,129.638,117.828,130.216z"/>
</svg>
