<svg version="1.1" id="svg" xmlns="http://www.w3.org/2000/svg" xmlns:xlink="http://www.w3.org/1999/xlink" x="0px" y="0px"
	 width="200px" height="200px" viewBox="0 0 200 200" enable-background="new 0 0 200 200" xml:space="preserve">
<path class="stroke" fill="#2a374b"  d="M197.033,66.947c-0.781-3.784-2.638-7.121-4.896-10.14c-2.209-2.952-5.507-4.604-9-5.64c-1.985-0.59-4.094-0.77-6.151-1.107
	c-1.03-0.168-2.073-0.408-3.106-0.391c-4.571,0.076-9.184-0.25-13.477,1.985c-1.985,1.032-4.209,1.593-5.753,3.386
	c-0.536,0.622-1.236,1.1-1.788,1.711c-0.864,0.956-1.82,1.878-2.457,2.977c-1.291,2.229-2.439,4.545-3.553,6.871
	c-0.37,0.772-0.459,1.679-0.735,2.761c-0.392,1.413-0.872,3.059-1.295,4.72c-0.146,0.568-0.374,0.907-0.993,1.042
	c-2.794,0.606-5.576,1.261-8.364,1.892c-3.475,0.788-6.949,1.571-10.424,2.352c-3.691,0.833-7.381,1.673-11.079,2.483
	c-2.677,0.588-5.354,1.173-8.047,1.688c-2.749,0.525-5.514,0.973-8.274,1.441c-2.064,0.349-4.135,0.671-6.198,1.023
	c-2.209,0.376-4.422,0.734-6.618,1.174c-2.185,0.439-4.352,0.97-6.64,1.486c-0.254-0.694-0.581-1.304-0.7-1.953
	c-0.417-2.267-1.3-4.355-2.444-6.32c-0.785-1.349-1.787-2.569-2.656-3.869c-1.608-2.406-3.744-4.212-6.249-5.616
	c-2.354-1.32-4.919-2.056-7.518-2.677c-1.455-0.348-2.935-0.786-4.411-0.816c-4.315-0.087-8.627,0.032-12.881,0.953
	c-2.306,0.5-4.667,0.775-6.645,2.247c-2.212,1.644-4.545,3.146-6.242,5.385c-1.04,1.374-2.215,2.672-3.076,4.153
	c-1.717,2.955-2.901,6.157-3.996,9.396c-0.806,2.385-1.269,4.812-1.492,7.309c-0.15,1.68-0.438,3.346-0.67,5.06
	c-0.703,0.231-1.366,0.477-2.045,0.669c-3.909,1.105-7.84,2.137-11.723,3.326c-1.489,0.457-2.735,1.453-3.427,2.921
	c-1.098,2.33-1.429,4.661-0.344,7.176c0.619,1.434,1.574,2.12,2.959,2.433c1.89,0.426,3.747,0.354,5.635-0.175
	c2.09-0.585,4.234-0.977,6.353-1.463c1.156-0.266,2.307-0.552,3.374-0.808c0.47,1.193,0.839,2.234,1.286,3.242
	c1.248,2.815,2.342,5.724,3.853,8.393c1.359,2.399,3.088,4.615,5.248,6.423c1.841,1.54,3.641,3.238,5.972,3.906
	c2.953,0.846,5.973,1.621,9.014,1.932c2.54,0.26,5.169-0.055,7.727-0.373c2.211-0.275,4.417-0.785,6.551-1.437
	c1.361-0.415,2.537-1.405,3.88-1.913c2.438-0.921,4.605-2.29,6.344-4.149c1.562-1.67,2.963-3.57,4.064-5.573
	c1.311-2.387,2.249-4.98,3.307-7.502c1.029-2.453,1.581-5.032,1.909-7.664c0.222-1.769,0.452-3.535,0.684-5.348
	c0.354-0.136,0.576-0.245,0.811-0.309c3.867-1.035,7.735-2.065,11.604-3.097c2.055-0.547,4.109-1.094,6.166-1.638
	c3.357-0.889,6.705-1.814,10.076-2.648c2.569-0.636,5.19-1.075,7.75-1.745c3.237-0.848,6.412-1.943,9.66-2.745
	c3.193-0.788,6.448-1.324,9.669-2.005c2.895-0.613,5.777-1.276,8.667-1.913c0.562-0.124,1.126-0.223,1.638-0.324
	c0.503,1.354,0.898,2.616,1.435,3.815c0.803,1.791,1.738,3.52,2.555,5.304c1.219,2.662,2.877,4.937,5.446,6.442
	c1.01,0.589,2.169,0.989,3.039,1.733c1.777,1.521,3.984,1.946,6.085,2.52c2.39,0.648,4.896,0.862,7.348,1.299
	c3.432,0.61,6.78,0.048,9.978-1.066c2.145-0.748,4.157-1.957,6.098-3.172c1.284-0.804,2.545-1.824,3.446-3.025
	c2.235-2.979,4.085-6.22,5.594-9.64c1.864-4.225,2.192-8.711,2.098-13.234C198.891,75.902,197.956,71.418,197.033,66.947z"/>
<path fill-rule="evenodd" clip-rule="evenodd" fill="#eef9fc" class="fill" d="M79.25,93.79c1.978-0.434,3.84-0.851,5.707-1.251
	c3.647-0.782,7.294-1.567,10.946-2.328c4.431-0.923,8.871-1.809,13.301-2.738c2.711-0.568,5.41-1.2,8.119-1.782
	c2.743-0.588,5.506-1.093,8.234-1.742c2.905-0.691,5.776-1.525,8.67-2.268c4.802-1.233,9.606-2.447,14.415-3.66
	c1.997-0.504,4.015-0.939,6.003-1.484c1.665-0.454,3.293-1.039,4.95-1.526c0.587-0.172,1.206-0.257,1.818-0.324
	c1.437-0.159,2.329,0.617,2.293,2.067c-0.019,0.757-0.221,1.51-0.363,2.418c-1.425,0.477-2.824,0.998-4.253,1.41
	c-2.419,0.698-4.857,1.333-7.291,1.983c-1.16,0.31-2.329,0.579-3.487,0.892c-4.918,1.322-9.832,2.651-14.748,3.982
	c-3.592,0.972-7.167,2.01-10.777,2.912c-4.511,1.125-9.042,2.175-13.579,3.192c-3.995,0.896-8.03,1.619-12.009,2.579
	c-2.891,0.697-5.707,1.696-8.576,2.492c-2.555,0.707-5.135,1.32-7.707,1.967c-0.259,0.066-0.531,0.08-0.823,0.12
	C79.813,98.402,79.542,96.179,79.25,93.79z"/>
<path fill-rule="evenodd" clip-rule="evenodd" fill="#eef9fc" class="fill" d="M62.453,74.146c0.459-0.243,0.823-0.435,1.194-0.632
	c2.532,1.064,4.424,2.852,5.809,5.059c2.792,4.454,4.201,9.41,5.082,14.577c0.576,3.377,0.72,6.732,0.566,10.13
	c-0.048,1.073,0.097,2.157,0,3.222c-0.367,4.024-1.678,7.825-2.965,11.616c-0.78,2.294-1.605,4.604-2.719,6.748
	c-1.029,1.98-2.429,3.767-4.35,5.071c-1.008,0.684-1.896,1.546-2.865,2.35c-0.33-0.251-0.54-0.411-0.782-0.596
	c0.083-0.153,0.125-0.265,0.193-0.355c1.387-1.851,3.026-3.564,4.103-5.579c1.401-2.619,2.396-5.462,3.493-8.237
	c1.363-3.445,1.981-7.103,2.176-10.744c0.221-4.11-0.085-8.251-0.221-12.377c-0.109-3.334-0.991-6.553-2.182-9.605
	c-1.349-3.456-3.051-6.798-5.667-9.55C63.028,74.937,62.792,74.581,62.453,74.146z"/>
<path fill-rule="evenodd" clip-rule="evenodd" fill="#eef9fc" class="fill" d="M183.763,56.824c0.879-0.235,1.667-0.802,2.907-0.247
	c2.539,1.137,3.903,3.117,4.743,5.58c0.623,1.828,1.112,3.702,1.661,5.557c0.139,0.465,0.271,0.935,0.419,1.397
	c1.003,3.101,0.368,6.295,0.566,9.439c0.199,3.185-0.636,6.203-1.313,9.208c-0.609,2.694-1.114,5.517-2.646,7.918
	c-1.085,1.697-2.303,3.31-3.515,4.922c-0.584,0.778-1.292,1.466-1.985,2.242c-0.369-0.192-0.652-0.342-0.901-0.473
	C192.153,87.186,192.827,72.109,183.763,56.824z"/>
<path fill-rule="evenodd" clip-rule="evenodd" fill="#eef9fc" class="fill" d="M51.996,125.457c0.808-1.188,1.591-2.355,2.39-3.512
	c2.032-2.943,3.317-6.206,3.989-9.695c0.575-2.982,0.618-6.021,0.298-9.033c-0.319-3.008-0.654-6.031-1.29-8.981
	c-0.478-2.211-1.489-4.304-2.181-6.475c-0.775-2.434-2.308-4.331-4.22-6.14c0.529-0.339,0.975-0.624,1.483-0.949
	c2.106,1.61,4.214,3.098,5.375,5.538c0.643,1.352,1.518,2.625,1.948,4.038c0.688,2.257,1.288,4.578,1.569,6.915
	c0.401,3.328,0.696,6.697,0.644,10.043c-0.059,3.775-1.115,7.377-2.61,10.886c-1.189,2.795-2.719,5.216-5.154,7.031
	C53.573,125.619,52.838,125.912,51.996,125.457z"/>
<path fill-rule="evenodd" clip-rule="evenodd" fill="#eef9fc" class="fill" d="M13.714,113.685c0.175-2.146,0.191-4.196-1.302-6.184
	c5.757-1.224,11.317-2.405,16.605-3.53c2.738,0.827,3.171,3.133,0.978,5.542c-1.225,0.397-2.55,0.918-3.921,1.255
	C21.994,111.772,17.895,112.704,13.714,113.685z"/>
<path fill-rule="evenodd" clip-rule="evenodd" fill="#eef9fc" class="fill" d="M38.478,92.572c1.075-0.915,1.701-0.886,2.913-0.124
	c2.781,1.748,4.164,4.398,4.848,7.469c0.835,3.749,1.279,7.571,0.708,11.379c-0.361,2.402-0.453,5.031-2.155,6.974
	c-1.093,1.248-2.552,2.195-3.927,3.167c-0.337,0.237-0.984,0.033-1.752,0.033c0.378-0.393,0.537-0.608,0.741-0.765
	c2.438-1.876,3.942-4.397,4.422-7.358c0.367-2.261,0.25-4.606,0.276-6.916c0.026-2.436-0.55-4.808-1.539-6.979
	c-1.036-2.277-2.121-4.601-4.053-6.342C38.781,92.95,38.637,92.751,38.478,92.572z"/>
<path fill-rule="evenodd" clip-rule="evenodd" fill="#eef9fc" class="fill" d="M163.346,82.625c0.779-0.262,1.416-0.486,2.058-0.69
	c4.289-1.355,4.744-5.782,2.634-8.782c-0.562-0.8-1.442-1.012-2.363-1.034c-0.95-0.023-1.899-0.005-2.84-0.15
	c-0.446,0.153-0.893,0.308-1.604,0.553c0.589-1.277,1.484-1.92,2.37-2.401c0.777-0.424,1.756-0.547,2.662-0.651
	c2.267-0.259,3.695,0.773,4.211,2.991c0.29,1.244,0.745,2.511,0.708,3.755c-0.067,2.299-0.589,4.526-2.455,6.167
	C167.481,83.477,164.665,83.674,163.346,82.625z"/>
<path fill-rule="evenodd" clip-rule="evenodd" fill="#eef9fc" class="fill" d="M9.94,113.77c-1.113,1.304-1.641,1.519-2.729,1.111
	c-0.908-0.339-1.659-1.612-1.682-2.851c-0.016-0.836,0.742-1.481,2.441-2.075C9.964,111.03,10.232,111.548,9.94,113.77z"/>
</svg>
