<svg version="1.1" id="svg" xmlns="http://www.w3.org/2000/svg" xmlns:xlink="http://www.w3.org/1999/xlink" x="0px" y="0px"
	 width="200px" height="200px" viewBox="0 0 200 200" enable-background="new 0 0 200 200" xml:space="preserve">
<path class="stroke" fill="#205165"  d="M143.003,97.463c-1.555-1.7-3.158-3.385-4.925-4.855c-2.444-2.035-5.034-3.899-7.607-5.774
	c-4.416-3.218-8.981-6.002-14.79-5.77c-3.641,0.146-6.373,1.579-8.158,4.776c-0.542,0.97-1.178,1.892-1.675,2.883
	c-1.401,2.797-2.838,5.581-4.095,8.442c-0.864,1.968-1.451,4.058-2.163,6.094c-0.146,0.089-0.292,0.178-0.438,0.267
	c-1.021-1.16-1.993-2.366-3.071-3.47c-3.347-3.429-6.782-6.784-9.082-11.062c-0.299-0.557-0.512-1.283-0.44-1.892
	c0.214-1.81,0.729-3.589,0.875-5.401c0.279-3.455,1.499-6.651,2.529-9.895c0.45-1.418,1.172-2.768,1.894-4.081
	c1.225-2.225,2.768-4.347,2.887-6.97c0.059-1.298-0.311-2.646-0.66-3.923c-0.291-1.065-1.428-0.818-2.223-1.085
	c-0.113-0.038-0.215-0.081-0.259-0.101c-0.821,0.314-1.417,0.526-1.999,0.77c-0.357,0.15-0.775,0.272-1.025,0.539
	c-2.646,2.812-5.273,5.64-7.882,8.485c-0.763,0.832-1.452,1.731-2.326,2.781c-0.192-1.237-0.405-2.213-0.483-3.199
	c-0.184-2.339-0.354-4.681-0.437-7.024c-0.085-2.427-0.072-4.858-0.079-7.288c-0.007-2.557,0.056-5.114,0.005-7.669
	c-0.029-1.493-1.514-3.524-2.85-3.844c-1.437-0.344-2.644,0.261-3.66,1.291c-1.77,1.795-2.458,4.151-3.265,6.421
	c-0.57,1.604-0.897,3.294-1.374,5.104c-1.454-3.078-2.804-5.944-4.159-8.808c-1.037-2.19-2.687-3.208-5.002-2.872
	c-3.234,0.469-4.478,1.23-4.33,4.721c0.091,2.156,0.774,4.289,1.229,6.425c0.383,1.803,0.819,3.594,1.257,5.499
	c-0.314-0.076-0.417-0.069-0.459-0.116c-2.333-2.557-4.662-5.118-6.99-7.679c-1.652-1.816-3.762-2.477-6.143-2.369
	c-2.265,0.103-4.273,2.437-3.758,4.958c0.597,2.924,1.804,5.573,3.593,7.973c0.821,1.102,1.517,2.297,2.427,3.691
	c-1.327-0.573-2.393-1.073-3.488-1.498c-1.29-0.501-2.573-1.099-3.917-1.359c-1.622-0.313-3.279-0.25-4.436,1.295
	c-1.234,1.648-1.522,3.452-0.83,5.374c1.075,2.985,3.393,4.843,5.985,6.423c3.501,2.136,7.111,4.138,9.264,7.862
	c0.557,0.963,1.102,1.934,1.688,2.878c1.78,2.87,3.522,5.766,5.391,8.578c0.994,1.495,2.216,2.979,4.057,3.345
	c2.336,0.464,3.326,2.18,4.218,3.983c2.291,4.632,4.515,9.297,6.703,13.979c2.037,4.357,4.083,8.715,5.961,13.141
	c2.188,5.154,4.155,10.401,6.301,15.573c1.974,4.758,4.56,9.177,7.435,13.459c3.131,4.663,6.979,8.47,11.904,11.169
	c0.515,0.283,1.08,0.55,1.651,0.643c4.381,0.717,8.75,1.174,13.104-0.277c3.883-1.294,7.682-2.776,10.562-5.788
	c1.658-1.734,3.163-3.679,4.409-5.729c1.512-2.486,2.631-5.184,1.314-8.201c-0.268-0.613-0.434-1.271-0.661-1.903
	c-1.464-4.092-3.253-8.029-5.503-11.756c-0.276-0.457-0.58-1.038-0.529-1.526c0.205-1.971,0.444-3.948,0.854-5.884
	c0.931-4.393,1.958-8.766,2.977-13.14c0.237-1.018,0.597-2.007,0.974-3.251c0.936,0.658,1.624,1.167,2.336,1.64
	c2.608,1.733,5.319,2.755,8.544,1.76c2.534-0.781,4.15-2.539,5.625-4.555c1.953-2.667,1.795-5.46,0.28-8.177
	C145.255,100.032,144.14,98.707,143.003,97.463z"/>
<path class="stroke" fill="#205165"  d="M91.604,55.646c0.001,0,0.002,0,0.003-0.001C91.567,55.628,91.577,55.633,91.604,55.646z"/>
<path class="stroke" fill="#205165"  d="M150.703,70.027c-0.908-0.641-1.741-1.389-2.618-2.076c-1.285-1.007-2.573-2.012-3.874-2.999
	c-0.66-0.501-1.221-0.548-1.82,0.226c-1.067,1.379-2.242,2.674-3.383,3.995c-0.226,0.261-0.5,0.48-0.589,0.564
	c-1.753-0.842-3.329-1.652-4.95-2.358c-1.141-0.498-2.245,0.418-2.047,1.637c0.347,2.145,0.646,4.3,1.099,6.422
	c0.538,2.517,1.201,5.008,1.844,7.501c0.196,0.762,0.646,1.242,1.562,1.077c1.129-0.204,2.279-0.291,3.404-0.508
	c3.578-0.688,7.158-1.375,10.719-2.145c1.131-0.245,1.278-0.924,0.491-1.822c-0.625-0.715-1.29-1.409-2.016-2.017
	c-0.639-0.535-0.619-0.941-0.143-1.585c0.944-1.277,1.818-2.609,2.673-3.949C151.513,71.274,151.518,70.602,150.703,70.027z"/>
<path fill-rule="evenodd" clip-rule="evenodd" fill="#ffffff" class="fill" d="M121.609,118.1c-1.056,0.346-1.696,1.715-3.108,6.437
	c-1.21-0.774-1.438-1.403-1.025-2.697c0.615-1.925,1.22-3.854,1.808-5.788c0.071-0.237,0.01-0.514-0.146-0.838
	c-1.565,1.715-2.06,4.013-3.219,6.14c-0.584-0.805-1.246-1.417-1.501-2.167c-0.197-0.577,0.021-1.359,0.225-1.996
	c0.532-1.659,1.183-3.279,1.728-4.934c0.11-0.333-0.036-0.75-0.063-1.128c-0.104,0.012-0.208,0.022-0.312,0.034
	c-0.993,2.086-1.985,4.173-3.033,6.377c-0.551-0.646-1.069-1.146-1.441-1.737c-0.167-0.267-0.133-0.739-0.041-1.078
	c0.679-2.488,1.403-4.963,2.09-7.449c0.076-0.273,0.01-0.585,0.01-0.879c-0.156-0.043-0.312-0.086-0.468-0.129
	c-0.979,2.556-1.957,5.111-2.951,7.705c-1.252-0.851-1.547-1.691-0.985-2.962c0.8-1.81,1.414-3.703,2.071-5.574
	c0.217-0.617,0.319-1.275,0.474-1.914c-0.136-0.074-0.271-0.148-0.407-0.223c-0.288,0.39-0.652,0.745-0.849,1.176
	c-1.003,2.193-1.963,4.406-2.945,6.627c-1.151-0.796-1.687-1.583-0.984-3.051c0.779-1.628,1.222-3.423,1.741-5.166
	c0.12-0.404-0.044-0.893-0.078-1.343c-0.142-0.012-0.283-0.024-0.424-0.036c-0.928,2.245-1.855,4.489-2.796,6.765
	c-1.08-0.461-1.344-1.1-0.943-2.119c0.563-1.436,1.042-2.905,1.526-4.371c0.117-0.353,0.11-0.747-0.039-1.213
	c-1.837,1.298-2.134,3.502-3.383,5.35c-0.055-0.343-0.227-0.717-0.146-1.024c1.126-4.285,2.744-8.389,4.837-12.284
	c1.124-2.091,2.445-4.086,3.797-6.042c2.49-3.603,6.397-4.437,10.312-2.632c3.889,1.793,7.547,3.899,10.818,6.715
	c2.343,2.018,4.944,3.732,7.396,5.626c0.781,0.604,1.453,1.351,2.405,2.25c-1.49,0.132-2.647,0.285-3.808,0.328
	c-2.822,0.105-4.947,1.505-6.816,3.479c-2.772,2.929-3.88,6.692-5.3,10.312c-2.031,5.175-2.875,10.637-4.011,16.031
	c-0.024,0.112-0.073,0.219-0.141,0.419c-0.559-0.742-1.135-1.399-1.571-2.139c-0.186-0.313-0.183-0.826-0.088-1.204
	c0.53-2.118,1.126-4.218,1.669-6.332C121.597,119.016,121.571,118.573,121.609,118.1z M117.437,87.006
	c-1.604,0.003-2.58,0.733-3.275,1.743c-0.678,0.984-1.178,2.095-1.681,3.186c-0.061,0.132,0.351,0.483,0.543,0.732
	c0.217-0.17,0.481-0.304,0.642-0.516c1.036-1.375,2.051-2.766,3.07-4.153C116.944,87.716,117.142,87.426,117.437,87.006z
	 M125.561,93.589c-0.533,0.103-1.165,0.049-1.535,0.335c-0.679,0.524-1.237,1.22-1.782,1.896c-0.491,0.608-0.959,1.255-1.303,1.952
	c-0.104,0.211,0.175,0.708,0.41,0.945c0.105,0.106,0.664-0.009,0.792-0.186C123.268,96.967,124.343,95.365,125.561,93.589z
	 M128.491,96.608c-0.06-0.125-0.12-0.249-0.181-0.373c-0.446,0.096-1.034,0.044-1.313,0.313c-1.052,1.011-2.049,2.091-2.956,3.233
	c-0.189,0.239-0.063,1.04,0.193,1.256c0.571,0.483,0.827-0.103,1.148-0.546c0.736-1.016,1.554-1.973,2.341-2.952
	C127.977,97.227,128.235,96.919,128.491,96.608z M122.841,91.192c-0.068-0.103-0.137-0.206-0.206-0.309
	c-0.447,0.162-0.971,0.226-1.328,0.504c-1.298,1.012-2.455,2.177-2.938,3.809c-0.111,0.375,0.077,0.839,0.127,1.262
	c0.345-0.248,0.771-0.434,1.021-0.755c0.922-1.185,1.786-2.417,2.672-3.629C122.405,91.779,122.624,91.486,122.841,91.192z
	 M114.29,86.108c-0.488,0-1.117-0.189-1.339,0.032c-1.074,1.067-2.061,2.227-3.017,3.404c-0.125,0.154,0.1,0.594,0.163,0.902
	c0.353-0.081,0.85-0.04,1.034-0.261C112.152,88.958,113.098,87.666,114.29,86.108z M119.576,89.789
	c-2.006-0.021-4.422,2.272-4.358,4.004c0.009,0.254,0.302,0.499,0.463,0.747c0.228-0.15,0.549-0.249,0.669-0.46
	c0.743-1.317,1.367-2.71,2.804-3.48C119.346,90.497,119.402,90.138,119.576,89.789z M130.82,98.395
	c-0.101-0.095-0.202-0.189-0.303-0.284c-0.423,0.242-0.929,0.404-1.254,0.741c-0.798,0.825-1.555,1.699-2.238,2.619
	c-0.206,0.277-0.115,0.773-0.16,1.168c0.397-0.082,0.94-0.029,1.165-0.271c0.888-0.957,1.695-1.992,2.488-3.032
	C130.705,99.088,130.723,98.711,130.82,98.395z"/>
<path fill-rule="evenodd" clip-rule="evenodd" fill="#ffffff" class="fill" d="M94.936,142.945c0.869-1.03,1.694-2.007,2.519-2.984
	c-0.111-0.122-0.222-0.244-0.333-0.366c-0.928,0.6-1.877,1.169-2.775,1.81c-0.643,0.458-1.285,0.953-1.807,1.54
	c-0.772,0.869-1.264,0.553-1.833-0.413c1.288-1.442,2.62-2.934,3.952-4.426c-0.032-0.09-0.065-0.18-0.097-0.27
	c-0.267,0.053-0.597,0.023-0.79,0.172c-1.256,0.968-2.48,1.977-3.72,2.965c-0.211,0.169-0.45,0.304-0.659,0.443
	c-1.61-1.346-1.507-1.312-0.373-2.939c2.603-3.735,5.907-6.8,9.341-9.692c2.547-2.145,5.349-4.023,8.195-5.76
	c1.347-0.822,3.05-1.098,4.626-1.477c0.329-0.079,0.926,0.394,1.205,0.76c1.953,2.568,3.896,5.146,5.762,7.777
	c1.818,2.564,3.542,5.196,5.301,7.802c0.06,0.088,0.051,0.222,0.147,0.687c-4.912-0.329-9.732-0.156-14.447,0.855
	C104.425,140.443,99.761,141.74,94.936,142.945z"/>
<path fill-rule="evenodd" clip-rule="evenodd" fill="#ffffff" class="fill" d="M110.084,119.959c-5.188,1.039-9.019,4.388-12.917,7.571
	c-3.92,3.203-7.53,6.734-10.323,11c-1.564-1.11-1.627-1.41-0.529-2.752c1.253-1.532,2.543-3.033,3.701-4.684
	c-2.064,1.034-3.719,2.594-5.341,4.189c-1.208-1.213-1.253-1.405-0.301-2.641c0.777-1.009,1.644-1.95,2.429-2.954
	c0.237-0.303,0.333-0.716,0.495-1.079c-0.133-0.11-0.266-0.22-0.399-0.33c-1.397,1.235-2.794,2.47-4.193,3.706
	c-1.29-1.363-1.262-1.339-0.073-2.757c0.932-1.113,1.784-2.292,2.672-3.442c-0.12-0.126-0.239-0.252-0.358-0.379
	c-1.363,1.111-2.727,2.221-4.141,3.374c-0.237-0.369-0.644-0.766-0.748-1.232c-0.101-0.451-0.063-1.118,0.21-1.437
	c1.085-1.267,2.297-2.425,3.434-3.649c0.222-0.239,0.319-0.595,0.474-0.896c-0.089-0.066-0.178-0.134-0.267-0.201
	c-1.648,1.207-3.295,2.413-4.959,3.631c-0.576-0.625-0.464-1.214,0.114-1.753c2.414-2.251,4.708-4.622,7.611-6.314
	c2.193-1.278,4.167-2.93,6.352-4.224c2.284-1.354,4.693-2.498,7.077-3.674c0.25-0.124,0.834,0.04,1.037,0.269
	c2.986,3.373,5.934,6.779,8.886,10.182C110.067,119.532,110.047,119.635,110.084,119.959z"/>
<path fill-rule="evenodd" clip-rule="evenodd" fill="#ffffff" class="fill" d="M73.767,43.794c0,3.193,0.02,6.378-0.005,9.562
	c-0.027,3.352-0.256,6.71-0.095,10.051c0.124,2.556,0.639,5.105,1.157,7.621c0.131,0.636,0.848,1.441,1.458,1.623
	c0.954,0.284,2.042,0.723,2.925-0.634c1.779-2.73,3.698-5.382,5.739-7.923c1.265-1.575,2.846-2.898,4.314-4.305
	c0.243-0.232,0.619-0.399,0.954-0.442c0.35-0.045,0.724,0.096,1.087,0.156c-0.191,0.244-0.386,0.486-0.573,0.733
	c-0.143,0.189-0.298,0.374-0.412,0.58c-1.4,2.536-2.773,5.087-4.202,7.606c-0.368,0.647-0.916,1.191-1.364,1.795
	c-0.843,1.137-1.664,2.29-2.51,3.423c-1.07,1.433-2.109,2.893-3.256,4.263c-0.59,0.705-3.146,0.271-3.661-0.579
	c-1.79-2.956-3.688-5.864-3.926-9.478c-0.056-0.844-0.394-1.601-1.457-1.809c-0.802-0.158-1.363-0.637-1.211-1.651
	c0.223-1.496,0.046-3.129,0.594-4.479c0.645-1.589,0.463-3.217,0.811-4.802c0.368-1.679,0.102-3.487,0.327-5.21
	c0.229-1.748,0.64-3.486,1.131-5.182C71.847,43.832,72.624,43.416,73.767,43.794z"/>
<path fill-rule="evenodd" clip-rule="evenodd" fill="#ffffff" class="fill" d="M77.548,122.149c-0.859-0.904-0.745-1.636,0.191-2.411
	c1.071-0.888,2.054-1.884,3.053-2.856c0.167-0.162,0.222-0.439,0.329-0.663c-0.276-0.019-0.623-0.154-0.817-0.036
	c-1.448,0.879-2.865,1.809-4.291,2.722c-1.013-1.729-1.054-1.775,0.478-3.156c1.261-1.136,2.637-2.146,3.901-3.334
	c-2.173,0.433-4.146,1.288-5.772,2.929c-0.712-0.775-0.883-1.404,0.045-2.085c1.173-0.861,2.289-1.799,3.609-2.847
	c-2.237-0.363-3.666,0.697-4.993,1.945c-1.003-1.05-1.002-1.481,0.18-1.947c1.987-0.782,4.089-1.291,6.033-2.16
	c4.006-1.792,8.293-2.117,12.544-2.661c1.182-0.151,2.394-0.085,3.568-0.27c1.727-0.272,2.791,0.55,3.685,2.015
	C91.349,111.255,83.967,116.005,77.548,122.149z"/>
<path fill-rule="evenodd" clip-rule="evenodd" fill="#ffffff" class="fill" d="M69.145,104.318c0.68-0.541,1.296-1.199,2.049-1.603
	c4.266-2.291,8.548-4.57,13.213-5.968c1.248-0.374,2.57-0.514,3.866-0.706c0.279-0.042,0.688,0.058,0.877,0.25
	c2.257,2.295,4.484,4.62,6.976,7.204c-8.625,0.473-16.55,2.425-24.402,5.759c1.815-1.549,3.431-2.927,5.046-4.305
	c-0.082-0.119-0.164-0.238-0.246-0.356c-2.13,0.371-3.604,2.073-5.629,3.006c-0.226-0.418-0.457-0.846-0.789-1.462
	c1.967-1.451,3.908-2.882,5.85-4.313c-2.488,0.253-4.458,1.676-6.514,2.898C69.343,104.587,69.244,104.453,69.145,104.318z"/>
<path fill-rule="evenodd" clip-rule="evenodd" fill="#ffffff" class="fill" d="M128.588,150.094c-0.84,1.526-1.372,2.983-2.308,4.103
	c-2.799,3.35-5.437,6.984-9.629,8.739c-3.273,1.37-6.614,2.897-10.327,2.143c-1.254-0.255-2.433-0.9-3.629-1.408
	c-0.671-0.285-0.518-0.815-0.216-1.276c1.498-2.29,3.166-4.397,5.764-5.564c3.146-1.414,6.199-3.074,9.429-4.258
	C121.065,151.328,124.555,150.228,128.588,150.094z M112.948,161.42c1.816-0.176,3.043-0.044,4.815-1.697
	c0.932-0.869,1.4-1.827,1.004-2.78c-0.483-1.164-1.427-1.628-2.605-1.421c-2.051,0.359-3.929,1.208-5.455,2.624
	c-0.486,0.451-0.975,1.458-0.782,1.937c0.223,0.556,1.169,0.867,1.851,1.176C112.157,161.431,112.637,161.384,112.948,161.42z"/>
<path fill-rule="evenodd" clip-rule="evenodd" fill="#ffffff" class="fill" d="M87.271,94.22c-5.479,0.961-13.08,4.643-18.877,8.255
	c-0.203-0.302-0.408-0.608-0.591-0.882c1.799-1.538,3.537-3.024,5.275-4.511c-0.092-0.118-0.184-0.237-0.276-0.355
	c-2.492-0.07-3.574,2.467-5.672,3.142c-0.525-0.611-0.297-1.182,0.287-1.695c2.757-2.417,5.982-3.98,9.366-5.323
	c2.15-0.854,4.359-0.949,6.593-1.208C85.202,91.431,86.143,92.293,87.271,94.22z"/>
<path fill-rule="evenodd" clip-rule="evenodd" fill="#ffffff" class="fill" d="M144.893,105.328c0.045,2.943-1.745,4.432-4.249,5.352
	c-2.182,0.802-4.066-0.145-5.588-1.42c-2.239-1.876-1.513-5.849,1.094-7.442c2.404-1.469,5.939-0.634,7.708,0.879
	c0.664,0.568,0.9,1.636,1.331,2.476C145.09,105.224,144.992,105.276,144.893,105.328z M139.216,104.388
	c-1.451-0.062-2.26,0.685-2.294,2.116c-0.023,0.964,0.94,1.903,2.002,1.952c1.315,0.06,2.269-0.901,2.303-2.318
	C141.254,104.983,140.639,104.448,139.216,104.388z"/>
<path fill-rule="evenodd" clip-rule="evenodd" fill="#ffffff" class="fill" d="M61.967,67.449c-0.307-1.386-0.596-2.687-0.884-3.988
	c-0.375-1.69-0.753-3.379-1.123-5.071c-0.397-1.817-0.808-3.632-1.174-5.456c-0.494-2.464-0.954-4.935-1.423-7.403
	c-0.052-0.272-0.15-0.567-0.092-0.821c0.112-0.488,0.32-0.954,0.488-1.43c0.536,0.335,1.347,0.551,1.554,1.028
	c0.561,1.299,0.937,2.691,1.26,4.077c1.083,4.64,2.103,9.294,3.172,13.937c0.071,0.309,0.338,0.582,0.542,0.849
	c1.351,1.766,0.58,3.156-1.03,3.877C62.908,67.205,62.521,67.28,61.967,67.449z"/>
<path fill-rule="evenodd" clip-rule="evenodd" fill="#ffffff" class="fill" d="M43.153,49.613c1.396,1.76,2.786,3.524,4.19,5.277
	c1.712,2.138,3.441,4.262,5.151,6.402c0.869,1.086,1.668,2.232,2.585,3.276c0.495,0.564,1.182,0.956,1.76,1.452
	c0.224,0.191,0.436,0.429,0.565,0.689c0.192,0.387,0.259,0.837,0.46,1.217c0.604,1.139,0.48,1.958-0.451,2.625
	c-0.536,0.383-1.767-0.031-2.331-0.874c-1.676-2.507-3.374-5.002-4.959-7.565c-2.442-3.947-4.8-7.946-7.19-11.926
	c-0.054-0.09-0.069-0.203-0.103-0.305C42.938,49.792,43.045,49.703,43.153,49.613z"/>
<path fill-rule="evenodd" clip-rule="evenodd" fill="#ffffff" class="fill" d="M51.184,73.125c-4.431-0.63-7.714-2.975-10.905-5.493
	c0.063-0.164,0.127-0.329,0.191-0.493c0.99,0.266,2.009,0.458,2.966,0.813c2.27,0.843,4.518,1.749,6.761,2.661
	C51.242,71.038,51.25,71.943,51.184,73.125z"/>
<path fill-rule="evenodd" clip-rule="evenodd" fill="#ffffff" class="fill" d="M148.37,72.318c-1.11,0.937-2.127,1.757-3.102,2.627
	c-1.196,1.067-1.207,1.601-0.092,2.761c0.358,0.373,0.784,0.679,1.172,1.023c0.348,0.31,0.687,0.63,1.022,0.939
	c-3.478,0.555-6.864,1.095-10.293,1.643c-1.571-3.158-2.024-6.566-2.49-10.214c0.909,0.614,1.73,1.101,2.472,1.688
	c1.021,0.809,1.655,0.849,2.534-0.13c1.066-1.187,2.1-2.407,3.069-3.673c0.505-0.66,0.888-0.782,1.536-0.204
	C145.414,69.865,146.681,70.893,148.37,72.318z"/>
<path fill-rule="evenodd" clip-rule="evenodd" fill="#ffffff" class="fill" d="M113.027,159.449c0.887-0.758,1.732-1.578,2.685-2.241
	c0.307-0.213,0.899-0.017,1.36-0.008c-0.263,0.395-0.438,0.946-0.806,1.154c-0.953,0.537-1.991,0.921-2.995,1.366
	C113.189,159.63,113.108,159.539,113.027,159.449z"/>
</svg>
