<svg version="1.1" id="svg" xmlns="http://www.w3.org/2000/svg" xmlns:xlink="http://www.w3.org/1999/xlink" x="0px" y="0px"
	 width="200px" height="200px" viewBox="0 0 200 200" enable-background="new 0 0 200 200" xml:space="preserve">
<path fill="none" d="M26.568,115.598c0.789-0.617,1.732-1.331,2.648-2.076c0.919-0.749,1.812-1.531,2.372-2.006
	c0.306-2.523,0.292-2.67-0.219-3.665C28.655,108.513,26.384,112.375,26.568,115.598z"/>
<path class="stroke" fill="#6e3411"  d="M63.592,160.108c3.317,0.312,6.645,0.507,9.962,0.815c2.126,0.196,4.238,0.547,6.363,0.751
	c3.56,0.344,7.127,0.619,10.691,0.932c3.811,0.336,7.627,0.645,11.433,1.042c1.604,0.168,3.289,0.02,4.853,0.886
	c0.069,0.503,0.188,0.988,0.197,1.475c0.044,2.326,0.102,4.652,0.071,6.979c-0.033,2.481-0.178,4.963-0.23,7.445
	c-0.011,0.553,0.162,1.108,0.277,1.822c1.856,0.125,3.526,0.238,4.934,0.332c0.963-0.716,1.695-1.221,2.379-1.782
	c1.264-1.039,2.59-2.026,3.71-3.207c0.644-0.677,1.249-1.666,1.326-2.561c0.272-3.216,0.468-6.455,0.381-9.677
	c-0.05-1.854,0.606-3.215,1.647-4.593c2.869-3.807,5.683-7.654,8.52-11.485c2.01-2.716,3.992-5.451,6.039-8.138
	c2.555-3.35,5.168-6.659,7.748-9.991c1.064-1.374,2.1-2.771,3.17-4.141c3.244-4.15,6.572-8.239,9.732-12.453
	c4.854-6.474,9.59-13.036,14.391-19.552c0.747-1.014,1.563-1.974,2.521-3.176c0.562,2.476-0.392,4.731,0.349,6.973
	c1.163,0.139,2.291,0.245,3.41,0.417c1.354,0.207,2.438-0.243,3.339-1.23c1.067-1.168,2.138-2.334,3.141-3.43
	c0.179-3.302,0.433-6.429,0.497-9.56c0.141-6.809,0.213-13.619,0.261-20.431c0.032-4.571,0.026-9.144-0.058-13.714
	c-0.078-4.231-0.509-8.407-1.675-12.522c-1.172-4.13-3.006-7.862-5.712-11.154c-3.057-3.718-7.215-5.916-11.545-7.687
	c-2.825-1.155-5.838-1.831-8.909-2.269c-4.396-0.626-8.8-0.538-13.204-0.599c-3.722-0.051-7.447-0.004-11.167,0.104
	c-3.79,0.109-7.503,0.682-11.07,2.078c-2.935,1.148-5.558,2.812-8.17,4.539c-2.04,1.351-3.456,3.228-4.851,5.134
	c-1.173,1.607-1.956,3.412-2.652,5.299c-0.981,2.658-1.516,5.339-1.511,8.149c0.003,2.286,0,4.572,0,6.972
	c-2.767,2.366-5.476,4.697-8.203,7.011c-1.474,1.252-2.97,2.481-4.465,3.709c-2.491,2.046-5.027,4.039-7.476,6.134
	c-3.397,2.905-6.719,5.894-10.094,8.823c-2.207,1.915-4.397,3.857-6.693,5.664c-5.343,4.205-10.74,8.343-16.132,12.482
	c-0.37,0.286-0.874,0.488-1.337,0.542c-1.332,0.155-2.672,0.232-4.012,0.305c-1.938,0.108-3.86,0.291-5.716,0.903
	c-0.566,0.188-1.12,0.436-1.701,0.545c-5.92,1.112-11.135,3.541-15.119,8.191c-1.252,1.463-2.285,3.114-3.497,4.616
	c-3.229,4.006-4.811,8.668-5.342,13.69c-0.387,3.656-0.515,7.338-0.732,11.009c-0.056,0.94,0.028,1.89-0.026,2.83
	c-0.141,2.429-0.381,4.853-0.476,7.282c-0.166,4.312-0.289,8.627-0.361,12.941c-0.035,2.129,0.078,4.261,0.136,6.391
	c0.031,1.141,0.143,2.283,0.123,3.425c-0.045,2.723-0.161,5.445-0.208,8.169c-0.007,0.349,0.222,0.704,0.362,1.111
	c2.307,0,4.486,0,6.843,0c0.298-0.187,0.788-0.438,1.216-0.771c1.303-1.017,2.677-2.067,2.885-3.828
	c0.298-2.513,0.438-5.046,0.569-7.574c0.081-1.571,0.022-3.147,0.027-4.925c0.952,0,1.686-0.023,2.416,0.007
	c1.987,0.079,3.974,0.176,5.959,0.277c4.816,0.249,9.631,0.501,14.446,0.763c1.587,0.086,3.177,0.169,4.758,0.324
	C56.084,159.317,59.834,159.759,63.592,160.108z M31.589,111.516c-0.561,0.475-1.453,1.257-2.372,2.006
	c-0.916,0.745-1.859,1.459-2.648,2.076c-0.185-3.223,2.087-7.085,4.802-7.747C31.881,108.846,31.895,108.992,31.589,111.516z"/>
<path fill-rule="evenodd" clip-rule="evenodd" fill="#ffd624" class="fill" d="M56.062,92.612c1.705-1.347,3.375-2.742,5.121-4.033
	c7.158-5.287,14.028-10.922,20.663-16.854c1.884-1.687,4.023-3.087,5.982-4.694c2.147-1.766,4.198-3.647,6.333-5.429
	c3.05-2.545,6.135-5.049,9.209-7.564c1.074-0.882,2.157-1.751,3.285-2.664c3.515,0.161,7.027,0.303,10.536,0.485
	c4.467,0.233,8.933,0.488,13.398,0.746c2.578,0.148,5.153,0.345,7.732,0.473c3.178,0.158,6.357,0.292,9.536,0.393
	c4.172,0.134,8.347,0.219,12.519,0.339c2.432,0.07,4.865,0.139,7.295,0.271c0.973,0.056,1.936,0.284,2.911,0.417
	c1.27,0.17,2.548,0.288,3.806,0.523c1.353,0.253,2.256,1.181,2.546,2.454c0.451,1.98,0.776,4.004,0.963,6.025
	c0.06,0.651-0.392,1.42-0.78,2.025c-0.987,1.54-2.035,3.048-3.133,4.514c-0.59,0.787-1.37,1.428-1.997,2.192
	c-1.923,2.337-3.796,4.714-5.716,7.054c-2.078,2.531-4.195,5.03-6.279,7.557c-0.916,1.108-1.798,2.249-2.69,3.379
	c-3.104,3.933-6.145,7.92-9.333,11.781c-2.369,2.869-4.912,5.596-7.414,8.35c-1.133,1.247-2.414,2.362-3.531,3.622
	c-2.635,2.975-5.215,5.997-7.812,9.004c-2.589,2.997-5.172,6.001-7.761,8.998c-0.125,0.145-0.277,0.265-0.619,0.589
	c-0.537-1.545-0.014-3.01-0.441-4.321c1.758-2.356,0.773-4.605,0.1-6.89c-0.673-0.039-1.112-0.065-1.578-0.092
	c-0.087-0.103-0.229-0.2-0.264-0.327c-0.694-2.562-2.081-4.815-3.18-7.198c-0.82-1.783-2.174-3.173-3.408-4.655
	c-4.181-5.027-9.919-7.615-15.725-10.109c-4.171-1.792-8.494-3.048-12.989-3.697c-3.824-0.551-7.641-1.163-11.478-1.608
	c-1.961-0.229-3.959-0.133-5.938-0.208c-2.184-0.085-4.365-0.2-6.547-0.296c-1.071-0.048-2.144-0.078-3.215-0.117
	C56.133,92.901,56.098,92.757,56.062,92.612z M127.784,120.862c0.075-0.469,0.198-0.847,0.187-1.217
	c-0.077-2.239-0.418-4.403-1.451-6.451c-0.478-0.947-1.066-1.655-2.001-2.076c-1.372-0.614-2.802-1.015-4.321-0.84
	c-0.426,0.048-0.827,0.297-1.292,0.473c0.928,1.312,0.928,1.312,2.688,1.68c2.424,0.505,3.409,1.497,3.82,3.907
	c0.141,0.83,0.185,1.675,0.309,2.507c0.1,0.669,0.255,1.328,0.39,2.018C126.74,120.862,127.205,120.862,127.784,120.862z
	 M123.294,108.886c0.766,0.339,1.495,0.739,2.272,0.99c1.361,0.44,2.129,1.42,2.57,2.686c0.26,0.742,0.396,1.531,0.551,2.307
	c0.146,0.729,0.174,1.491,0.389,2.196c0.16,0.522,0.536,0.98,0.807,1.45c1.239-0.383,1.172-1.229,1.069-2.01
	c-0.263-1.97-0.655-3.896-1.459-5.751c-0.917-2.111-2.667-2.81-4.691-3.156C124.087,107.474,123.531,107.75,123.294,108.886z
	 M123.626,124.711c0.694-0.694,0.807-1.483,0.66-2.276c-0.276-1.507-0.677-2.99-0.945-4.496c-0.293-1.646-1.266-2.626-2.794-3.141
	c-1.494,0.149-1.494,0.149-1.722,1.303c0.15,0.142,0.308,0.34,0.511,0.466c1.226,0.767,1.846,1.842,1.961,3.3
	c0.095,1.179,0.375,2.341,0.577,3.512C122.059,124.45,122.367,124.692,123.626,124.711z M174.975,65.751
	c1-0.57,0.902-1.394,0.779-2.171c-0.154-0.976-0.336-1.955-0.617-2.898c-0.397-1.33-0.964-2.601-2.018-3.562
	c-1.175-1.065-2.205-1.005-3.201,0.24c0.447,0.299,0.858,0.646,1.328,0.87c0.762,0.362,1.32,0.872,1.514,1.706
	c0.265,1.146,0.534,2.294,0.739,3.451C173.674,64.371,173.796,65.347,174.975,65.751z M167.754,75.595
	c-0.102-3.183-0.617-6.194-2.479-8.7c-1.023-0.449-1.871-0.776-3.019-0.281c0.512,0.652,0.83,1.322,1.361,1.677
	c0.911,0.607,1.353,1.438,1.563,2.426c0.238,1.111,0.359,2.248,0.592,3.363c0.153,0.74,0.074,1.633,1.073,2.031
	C167.102,75.964,167.39,75.801,167.754,75.595z M159.938,69.997c-0.051,1.022,0.17,1.669,0.774,2.088
	c0.993,0.688,1.292,1.691,1.461,2.795c0.173,1.123,0.343,2.246,0.572,3.358c0.134,0.642,0.496,1.089,1.315,0.843
	c0.623-0.803,0.5-1.771,0.357-2.676c-0.209-1.312-0.606-2.593-0.846-3.901c-0.234-1.271-1.152-1.932-2.149-2.478
	C161.072,69.835,160.529,69.997,159.938,69.997z M130.639,105.223c0.227,0.12,0.529,0.299,0.848,0.44
	c1.352,0.606,1.72,1.809,1.949,3.12c0.103,0.578,0.221,1.17,0.449,1.708c0.234,0.552,0.611,1.043,1.551,0.835
	c0.82-1.279,0.165-2.705-0.053-4.027c-0.238-1.451-0.793-2.882-2.404-3.537C132.215,103.972,131.247,103.7,130.639,105.223z
	 M128.492,106.49c-0.314,0.865,0.184,1.28,0.735,1.651c1.333,0.897,1.98,2.165,2.124,3.743c0.072,0.789,0.236,1.568,0.346,2.354
	c0.09,0.636,0.385,1.092,0.972,1.297c0.929-0.464,0.841-1.263,0.728-1.982c-0.287-1.812-0.646-3.605-1.502-5.271
	C131.091,106.721,130.44,106.313,128.492,106.49z M170.42,71.203c0.174-3.053-0.091-5.899-2.496-8.141
	c-0.527,0.231-0.878,0.387-1.357,0.597c0.116,0.41,0.124,0.839,0.334,1.116c0.81,1.071,1.09,2.293,1.267,3.588
	c0.106,0.773,0.376,1.537,0.657,2.271C169.062,71.251,169.521,71.596,170.42,71.203z M137.222,98.367
	c0.501,0.607,0.745,1.125,1.153,1.356c0.957,0.539,1.396,1.353,1.584,2.367c0.09,0.484,0.119,0.984,0.242,1.459
	c0.182,0.708,0.316,1.463,1.164,1.894c0.293-0.147,0.624-0.317,1.036-0.527c-0.203-1.908-0.425-3.77-1.191-5.495
	c-0.45-1.016-1.415-1.519-2.485-1.634C138.336,97.744,137.904,98.088,137.222,98.367z M147.86,90.141
	c0.097,0.027,0.194,0.056,0.29,0.084c0.186,1.21,0.356,2.423,0.559,3.629c0.141,0.84,0.049,1.802,1.182,2.384
	c0.207-0.416,0.431-0.771,0.571-1.155c0.6-1.634,0.037-3.226-0.253-4.812c-0.248-1.355-1.128-2.159-2.5-2.384
	c-0.137-0.022-0.287,0.043-0.526,0.081c-0.149,0.355-0.315,0.745-0.502,1.187C147.115,89.518,147.488,89.828,147.86,90.141z
	 M137.589,109.6c1.079-0.046,1.455-0.605,1.354-1.385c-0.207-1.613-0.396-3.249-0.825-4.81c-0.324-1.17-1.113-2.12-2.548-2.107
	c-0.136,0.001-0.27,0.097-0.538,0.2c-0.033,0.371-0.068,0.785-0.109,1.25c1.371,0.646,1.638,1.855,1.812,3.109
	c0.111,0.782,0.146,1.578,0.307,2.351C137.145,108.703,137.412,109.164,137.589,109.6z M145.447,92.098
	c-0.864,0.845-1.001,1.039-0.58,1.808c0.648,1.187,0.736,2.444,0.824,3.738c0.043,0.628,0.248,1.267,0.505,1.844
	c0.129,0.291,0.538,0.457,1.05,0.855c0.256-0.798,0.591-1.343,0.568-1.872c-0.062-1.479-0.217-2.959-0.439-4.421
	C147.221,93.037,146.541,92.392,145.447,92.098z M152.852,92.288c0.174-0.385,0.487-0.759,0.492-1.136
	c0.026-2.094-0.203-4.158-1.216-6.041c-0.489-0.911-1.03-1.084-2.222-0.876c-0.224,0.822-0.249,0.837,0.195,1.456
	c0.676,0.948,1.111,1.968,1.135,3.157c0.01,0.591,0.092,1.189,0.224,1.766C151.609,91.271,151.678,92.024,152.852,92.288z
	 M154.992,89.075c1.292-0.31,1.605-0.656,1.628-1.655c0.012-0.59-0.052-1.183-0.112-1.77c-0.174-1.702-0.805-3.548-3.561-4.369
	c-0.824,0.715-0.929,1.039-0.168,1.558c1.256,0.854,1.582,2.052,1.713,3.431C154.579,87.181,154.809,88.077,154.992,89.075z
	 M168.855,60.733c1.545,1.62,1.844,3.571,2.119,5.539c0.061,0.428,0.229,0.867,0.449,1.24c0.396,0.67,0.928,0.871,1.648,0.133
	c0.121-1.934-0.537-3.786-1.212-5.636c-0.118-0.322-0.229-0.69-0.458-0.922c-0.496-0.508-1.068-0.942-1.68-1.466
	C169.385,60.056,169.186,60.311,168.855,60.733z M158.65,74.685c-0.082,0.318-0.244,0.579-0.186,0.774
	c0.688,2.298,1.408,4.585,2.117,6.869c1.082-0.03,1.5-0.289,1.367-1.19c-0.243-1.649-0.586-3.297-1.059-4.896
	C160.623,75.336,159.955,74.611,158.65,74.685z M145.512,101.047c-0.307-1.162-0.521-2.447-0.99-3.629
	c-0.576-1.449-1.549-1.771-3.118-1.16c0.159,0.377,0.216,0.874,0.494,1.109c0.927,0.785,1.129,1.812,1.23,2.926
	c0.057,0.623,0.204,1.237,0.304,1.811C144.471,102.453,145.005,102.055,145.512,101.047z M155.833,79.133
	c0.118,0.475,0.122,0.952,0.343,1.285c0.628,0.94,0.908,1.952,1.02,3.067c0.075,0.735,0.35,1.474,1.442,1.688
	c0.161-0.264,0.487-0.56,0.518-0.884c0.167-1.735-0.221-3.359-1.223-4.801C157.478,78.836,156.835,78.7,155.833,79.133z"/>
<path fill-rule="evenodd" clip-rule="evenodd" fill="#ffd624" class="fill" d="M120.286,155.591c0.216-6.079,0.431-12.159,0.655-18.471
	c1.92-2.4,3.91-5,6.017-7.504c4.092-4.859,8.247-9.665,12.382-14.493c0.42-0.489,0.835-0.992,1.314-1.419
	c2.981-2.652,5.486-5.747,8.008-8.806c3.758-4.561,7.309-9.294,11.023-13.89c3.309-4.093,6.727-8.099,10.088-12.148
	c1.646-1.985,3.268-3.992,4.917-5.974c0.591-0.711,1.237-1.378,1.858-2.063c0.111,0.042,0.223,0.083,0.335,0.125
	c-0.148,3.893-0.298,7.785-0.452,11.803c-1.393,1.941-2.838,3.955-4.282,5.972c-1.938,2.709-3.886,5.412-5.809,8.131
	c-2.524,3.572-5.298,6.943-8.124,10.282c-2.79,3.296-5.344,6.776-7.785,10.349c-1.643,2.403-3.562,4.616-5.349,6.923
	c-1.306,1.684-2.575,3.398-3.901,5.066c-0.986,1.242-2.055,2.421-3.062,3.646c-3.394,4.142-6.84,8.24-10.139,12.456
	c-1.896,2.419-3.538,5.038-5.313,7.553c-0.623,0.883-1.301,1.726-1.952,2.587C120.573,155.673,120.43,155.633,120.286,155.591z"/>
<path fill-rule="evenodd" clip-rule="evenodd" fill="#ffd624" class="fill" d="M113.126,177.964c-0.036-1.457-0.114-2.629-0.087-3.8
	c0.105-4.67,0.286-9.338,0.36-14.007c0.089-5.661,0.056-11.325,0.155-16.987c0.057-3.227,0.29-6.45,0.414-9.676
	c0.169-4.43,0.061-8.863-0.932-13.191c-0.718-3.136-1.699-6.233-4.082-8.624c-0.209-0.21-0.391-0.446-0.613-0.638
	c-3.267-2.796-6.822-5.173-10.829-6.732c-3.787-1.473-7.597-2.979-11.597-3.754c-4.04-0.786-8.144-1.218-12.204-1.908
	c-4.728-0.802-9.503-0.766-14.266-0.902c-5.315-0.147-10.641-0.261-15.937,0.32c-2.214,0.243-4.39,0.824-6.593,1.191
	c-2.764,0.459-5.277,1.683-7.924,2.502c-0.229,0.071-0.467,0.107-0.778,0.045c0.51-0.692,1.17-1.181,1.937-1.552
	c2.694-1.304,5.53-2.192,8.426-2.912c3.542-0.881,7.149-1.141,10.79-1.177c4.022-0.039,8.045-0.259,12.065-0.214
	c3.026,0.036,6.047,0.429,9.075,0.548c3.343,0.131,6.587,0.797,9.843,1.485c2.469,0.522,4.987,0.809,7.453,1.342
	c1.934,0.421,3.868,0.933,5.718,1.627c4.951,1.854,9.681,4.213,13.815,7.519c3.523,2.816,6.495,6.225,7.854,10.639
	c1.079,3.5,1.901,7.079,2.191,10.773c0.479,6.115,0.246,12.229,0.243,18.342c-0.002,3.382-0.008,6.763-0.093,10.143
	c-0.091,3.625-0.272,7.247-0.422,10.869c-0.065,1.588-0.153,3.174-0.222,4.763c-0.046,1.02-0.469,1.792-1.362,2.333
	C114.81,176.763,114.137,177.27,113.126,177.964z"/>
<path fill-rule="evenodd" clip-rule="evenodd" fill="#ffd624" class="fill" d="M181.473,93.39c-0.581,0.524-1.227,1.104-2.125,1.912
	c-0.084-1.082-0.199-1.888-0.201-2.692c-0.013-3.572-0.024-7.144,0.02-10.713c0.062-4.816,0.028-9.641,0.307-14.445
	c0.297-5.164-0.168-10.309-0.045-15.464c0.06-2.531,0.108-5.079-0.098-7.597c-0.22-2.661-0.396-5.415-1.227-7.917
	c-1.203-3.631-3.541-6.533-6.938-8.61c-2.306-1.41-4.674-2.608-7.181-3.548c-1.058-0.396-2.188-0.616-3.299-0.841
	c-3.756-0.759-7.57-1.042-11.383-1.35c-1.232-0.1-2.449-0.488-3.677-0.515c-4.261-0.09-8.524-0.077-12.785-0.098
	c-1.39-0.008-2.782-0.057-4.167,0.023c-1.286,0.072-2.562,0.303-3.844,0.438c-1.859,0.197-3.721,0.37-5.658,0.284
	c1.418-0.463,2.814-1.016,4.26-1.375c3.875-0.962,7.832-1.454,11.815-1.435c6.013,0.027,12.034,0.066,18.032,0.417
	c3.654,0.215,7.242,1.146,10.803,2.097c2.48,0.663,4.722,1.812,6.984,2.929c2.235,1.103,3.861,2.978,5.295,4.929
	c3.67,4.995,5.356,10.677,5.504,16.854c0.107,4.411,0.376,8.823,0.399,13.234c0.02,3.865-0.206,7.731-0.316,11.599
	c-0.021,0.745-0.012,1.488-0.016,2.233c-0.028,4.619-0.025,9.241-0.098,13.86C181.806,89.434,181.611,91.264,181.473,93.39z"/>
<path fill-rule="evenodd" clip-rule="evenodd" fill="#ffd624" class="fill" d="M65.244,106.145c1.613,0,2.97,0,4.46,0
	c-0.55,9.881-1.093,19.611-1.648,29.572c-1.474-0.143-2.921-0.284-4.555-0.441C63.729,125.562,65.137,115.974,65.244,106.145z"/>
<path fill-rule="evenodd" clip-rule="evenodd" fill="#ffd624" class="fill" d="M46.242,106.171c1.947-0.328,2.554-0.262,3.894,0.426
	c0.181,9.092,0.05,18.246-0.668,27.488c-1.451,0-2.855,0-4.443,0c0.183-3.205,0.382-6.247,0.521-9.291
	c0.142-3.124,0.261-6.252,0.326-9.38C45.937,112.346,45.64,109.262,46.242,106.171z"/>
<path fill-rule="evenodd" clip-rule="evenodd" fill="#ffd624" class="fill" d="M86.961,136.537c-1.43,0-2.548,0-3.891,0
	c0.552-9.225,1.094-18.307,1.649-27.599c1.05,0.447,2.061,0.878,3.123,1.328C87.547,119.065,87.256,127.734,86.961,136.537z"/>
<path fill-rule="evenodd" clip-rule="evenodd" fill="#ffd624" class="fill" d="M31.487,115.18c-0.103,5.925-0.206,11.853-0.312,17.911
	c-1.805,0.674-3.68-0.243-5.777-0.091c0.206-4.042,0.405-7.984,0.614-12.12c1.679-1.88,3.455-3.867,5.23-5.854
	C31.324,115.076,31.406,115.128,31.487,115.18z"/>
<path fill-rule="evenodd" clip-rule="evenodd" fill="#ffd624" class="fill" d="M42.129,133.728c-0.898,0-1.525,0-2.249,0
	c-0.054-0.355-0.149-0.683-0.149-1.01c0.012-4.605,0.046-9.212,0.055-13.82c0.004-2.771-0.041-5.543-0.037-8.312
	c0.002-1.4,0.42-2.649,1.618-3.49c0.375-0.262,0.844-0.388,1.455-0.658c0.387,3.236-0.182,6.22-0.224,9.209
	c-0.043,2.971-0.18,5.942-0.258,8.913C42.259,127.56,42.2,130.562,42.129,133.728z"/>
<path fill-rule="evenodd" clip-rule="evenodd" fill="#ffd624" class="fill" d="M79.095,107.805c0.896,0.055,1.612,0.099,2.4,0.146
	c-0.224,9.417-0.404,18.708-1.216,28.132c-0.805-0.063-1.516-0.119-2.396-0.188C77.836,126.489,79.07,117.245,79.095,107.805z"/>
<path fill-rule="evenodd" clip-rule="evenodd" fill="#ffd624" class="fill" d="M98.032,137.499c-1.017-0.093-1.924-0.178-2.903-0.269
	c-0.377-1.873-0.208-3.591-0.1-5.305c0.258-4.049,0.521-8.099,0.786-12.146c0.123-1.861,0.256-3.721,0.39-5.676
	c1.249,0.132,1.829,0.979,2.679,1.646C98.451,122.899,99.015,130.129,98.032,137.499z"/>
<path fill-rule="evenodd" clip-rule="evenodd" fill="#ffd624" class="fill" d="M102.1,118.492c0.393,0.653,0.896,1.267,1.161,1.97
	c1.298,3.446,2.193,7.009,2.258,10.7c0.037,2.163-0.289,4.332-0.448,6.441c-1.062,0.315-2.707,0.228-4.205-0.206
	c0.302-6.221,0.605-12.479,0.908-18.738C101.883,118.604,101.991,118.548,102.1,118.492z"/>
<path fill-rule="evenodd" clip-rule="evenodd" fill="#ffd624" class="fill" d="M59.789,105.865c0.906,0,1.476,0,2.203,0
	c-0.252,9.783-0.924,19.442-1.394,29.223c-0.648,0.065-1.154,0.118-1.717,0.174c-0.053-0.358-0.111-0.546-0.105-0.734
	c0.214-5.851,0.443-11.7,0.652-17.554C59.562,113.319,59.668,109.66,59.789,105.865z"/>
<path fill-rule="evenodd" clip-rule="evenodd" fill="#ffd624" class="fill" d="M118.59,28.963c0.205,0.475,0.348,0.647,0.346,0.822
	c-0.049,6.77-0.111,13.541-0.173,20.414c-1.084,0-2.034,0-3.167,0c0.07-1.514,0.2-2.88,0.185-4.243
	c-0.052-4.333,0.594-8.597,1.22-12.861c0.156-1.069,0.524-2.112,0.849-3.148C117.938,29.662,118.223,29.438,118.59,28.963z"/>
<path fill-rule="evenodd" clip-rule="evenodd" fill="#ffd624" class="fill" d="M147.514,51.818c-0.771,0.048-1.381,0.086-2.096,0.131
	c-0.367-1.327-0.217-2.561-0.18-3.765c0.108-3.571,0.279-7.141,0.441-10.709c0.066-1.438,0.205-2.873,0.244-4.311
	c0.028-1.09-0.056-2.183-0.073-3.272c-0.014-0.88-0.002-1.76-0.002-2.84c0.692,0.155,1.28,0.287,1.971,0.443
	C147.718,35.641,147.616,43.657,147.514,51.818z"/>
<path fill-rule="evenodd" clip-rule="evenodd" fill="#ffd624" class="fill" d="M127.298,27.996c0.533-0.07,1.081-0.143,1.756-0.234
	c0.146,7.85-0.7,15.457-0.709,23.132c-0.532,0.054-0.82,0.118-1.103,0.102c-0.239-0.014-0.472-0.124-0.679-0.183
	C126.098,49.228,126.667,30.188,127.298,27.996z"/>
<path fill-rule="evenodd" clip-rule="evenodd" fill="#ffd624" class="fill" d="M154.928,27.776c0.504-0.038,0.848-0.081,1.191-0.084
	c0.135-0.001,0.271,0.089,0.578,0.198c-0.33,7.94-0.663,15.909-0.986,23.667c-0.303,0.268-0.372,0.383-0.45,0.389
	c-0.336,0.02-0.674,0.007-1.19,0.007c-0.074-1.229-0.229-2.402-0.196-3.57c0.118-4.217,0.288-8.432,0.461-12.646
	c0.087-2.129,0.211-4.256,0.34-6.383C154.704,28.865,154.826,28.385,154.928,27.776z"/>
<path fill-rule="evenodd" clip-rule="evenodd" fill="#ffd624" class="fill" d="M169.525,33.671c-0.163,6.256-0.326,12.491-0.494,18.911
	c-0.788-0.08-1.346-0.134-2.025-0.201c-0.482-6.986,0.268-13.84,0.215-20.758C168.479,32.09,168.479,32.09,169.525,33.671z"/>
<path fill-rule="evenodd" clip-rule="evenodd" fill="#ffd624" class="fill" d="M160.26,52.232c-0.867-0.088-1.544-0.156-2.199-0.223
	c-0.311-1.77,0.811-22.414,1.281-23.708c0.908,0.224,0.881,0.967,0.893,1.649c0.057,2.877,0.094,5.756,0.137,8.633
	c0.049,3.224,0.125,6.445,0.132,9.669C160.506,49.525,160.352,50.798,160.26,52.232z"/>
<path fill-rule="evenodd" clip-rule="evenodd" fill="#ffd624" class="fill" d="M131.816,27.643c0.664,0.229,0.965,0.336,1.383,0.48
	c0,7.616,0,15.187,0,22.937c-0.858,0.043-1.561,0.078-2.455,0.125C130.707,43.297,131.764,35.635,131.816,27.643z"/>
<path fill-rule="evenodd" clip-rule="evenodd" fill="#ffd624" class="fill" d="M141.996,27.651c0.341-0.136,0.684-0.271,1.04-0.415
	c0.134,0.203,0.279,0.32,0.278,0.436c-0.017,1.19-0.08,2.38-0.084,3.571c-0.013,3.419,0.045,6.839-0.02,10.256
	c-0.05,2.625-0.25,5.247-0.368,7.868c-0.031,0.737-0.004,1.475-0.004,2.282c-0.509,0-0.88,0-1.168,0
	C140.74,50.701,141.009,33.661,141.996,27.651z"/>
<path fill-rule="evenodd" clip-rule="evenodd" fill="#ffd624" class="fill" d="M112.772,49.895c-0.804,0.055-1.437,0.1-2.187,0.151
	c-0.065-0.544-0.185-0.979-0.16-1.404c0.131-2.329,0.253-4.659,0.466-6.981c0.179-1.927,0.439-3.848,0.737-5.758
	c0.233-1.497,0.895-2.84,1.791-4.057c0.187-0.254,0.477-0.429,0.874-0.581C113.099,37.399,113.504,43.626,112.772,49.895z"/>
<path fill-rule="evenodd" clip-rule="evenodd" fill="#ffd624" class="fill" d="M24.628,113.027c0.323,1.368-0.459,2.554-0.556,3.845
	c-0.1,1.33-0.365,2.647-0.502,3.974c-0.134,1.284-0.23,2.574-0.281,3.864c-0.053,1.339-0.007,2.683-0.046,4.022
	c-0.039,1.331-0.13,2.66-0.203,4.103c-0.602,0.048-1.068,0.086-1.606,0.13c-0.07-0.409-0.175-0.695-0.159-0.973
	c0.263-4.409,0.432-8.828,0.862-13.222C22.343,116.677,23.315,114.749,24.628,113.027z"/>
<path fill-rule="evenodd" clip-rule="evenodd" fill="#ffd624" class="fill" d="M172.037,37.29c2.136,5.117,1.959,10.512,1.936,15.911
	c-0.301,0.051-0.447,0.115-0.578,0.09c-0.531-0.108-1.056-0.246-1.677-0.395c0-5.2,0-10.379,0-15.557
	C171.823,37.323,171.93,37.305,172.037,37.29z"/>
<path fill-rule="evenodd" clip-rule="evenodd" fill="#ffd624" class="fill" d="M20.258,157.506c0.73,0,1.212,0,1.919,0
	c-0.165,4.257-0.328,8.439-0.499,12.807c-0.395,0.354-0.881,0.791-1.367,1.225c-0.098-0.05-0.196-0.101-0.294-0.15
	C20.097,166.815,20.175,162.244,20.258,157.506z"/>
</svg>
