<svg version="1.1" id="svg" xmlns="http://www.w3.org/2000/svg" xmlns:xlink="http://www.w3.org/1999/xlink" x="0px" y="0px"
	 width="200px" height="200px" viewBox="0 0 200 200" enable-background="new 0 0 200 200" xml:space="preserve">
<path class="stroke" fill="#51575c"  fill-rule="evenodd" clip-rule="evenodd" d="M87.188,54.259c-0.168-1.647-0.274-3.316-0.519-4.966
	c-0.846-5.684,3.15-8.608,7.836-8.68c2.2-0.032,4.217,0.522,6.037,2.167c0.871,3.287,0.816,6.714-0.039,10.131
	c1.657,0,3.189-0.004,4.72,0.001c3.702,0.012,7.311,0.612,10.939,1.35c3.428,0.695,6.751,1.663,10.068,2.712
	c0.962,0.304,1.736,0.811,2.254,1.974c-0.411,1.352-0.868,2.857-1.305,4.293c-2.289,0.44-4.254-0.016-6.21-0.362
	c-4.004-0.711-7.982-1.579-11.998-2.211c-2.744-0.433-5.53-0.481-8.331,0.152c2.242,1.867,4.566,3.558,6.59,5.554
	c2.007,1.979,3.712,4.266,5.802,6.714c0.719,0.221,1.891,0.542,3.037,0.94c4.348,1.511,7.612,4.596,10.701,7.785
	c1.955,2.019,3.623,4.379,5.104,6.78c3.119,5.06,6.003,10.25,7.538,16.076c1.11,4.217,1.443,8.497,1.344,12.832
	c-0.028,1.225-0.086,2.45-0.079,3.674c0.051,8.608-2.368,16.435-7.489,23.369c-2.62,3.548-6.143,6.101-9.974,8.155
	c-8.55,4.585-17.675,6.167-27.343,5.201c-6.41-0.641-12.26-2.836-17.559-6.221c-5.022-3.208-9.172-7.433-12.236-12.728
	c-3.577-6.182-5.457-12.774-6.141-19.821c-0.523-5.378-0.33-10.705,0.515-16.028c0.415-2.613,0.757-5.237,1.166-7.852
	c0.652-4.163,2.312-7.958,4.655-11.396c1.484-2.177,3.309-4.156,5.995-5.017c0.667-0.214,1.281-0.591,1.81-0.84
	c0.992-2.409,1.939-4.71,2.974-7.22c-4.188,1.834-8.13,3.842-12.268,5.297c-4.183,1.471-8.56,2.394-12.962,3.587
	c-1.049-1.23-1.111-2.684-1.235-4.075c2.177-1.706,4.717-2.22,7.197-2.78c3.988-0.899,7.763-2.371,11.502-3.961
	c1.722-0.732,3.431-1.49,5.136-2.261c0.511-0.23,0.987-0.542,1.87-1.034c-0.975-0.255-1.553-0.424-2.14-0.553
	c-0.249-0.054-0.518-0.003-0.773-0.033c-5.514-0.671-7.86-4.741-6.022-10.03c1.518-4.367,5.032-5.131,8.864-4.505
	c3.482,0.568,6.741,1.723,9.798,3.474c0.274,0.156,0.565,0.284,0.854,0.413C86.92,54.336,86.996,54.295,87.188,54.259z
	 M83.374,78.326c0.386,0.411,0.672,0.758,1,1.059c1.441,1.321,2.315,2.944,2.521,4.885c0.312,2.951,0.674,5.901,0.822,8.862
	c0.165,3.309,0.336,6.583,1.833,9.631c1.578,3.212,3.817,5.428,7.643,5.687c2.961,0.202,5.855-0.436,8.076-2.08
	c2.708-2.004,4.37-5.062,3.493-8.675c-0.572-2.36-1.588-4.616-2.462-6.897c-0.507-1.323-1.208-2.575-1.675-3.91
	c-0.906-2.589-1.443-5.209-0.364-7.924c0.566-1.427,0.97-2.918,1.544-4.678c-1.641-1.812-3.299-3.779-5.104-5.604
	c-2.478-2.507-5.292-4.362-9.422-3.666C86.98,68.216,84.365,72.76,83.374,78.326z"/>
<path fill-rule="evenodd" clip-rule="evenodd" fill="#f7dad4" class="fill" d="M77.696,78.495c0.489-3.878,2.267-7.303,4.696-10.368
	c1.512-1.906,2.932-3.945,5.145-5.395c0.328,0.413,0.628,0.791,1.054,1.327c-4.979,3.761-7.16,8.979-8.093,14.815
	c2.676,2.311,3.239,5.335,3.612,8.443c0.525,4.359,0.878,8.752,1.663,13.064c0.506,2.768,1.538,5.523,3.931,7.343
	c1.056,0.803,2.327,1.38,3.579,1.859c4.404,1.687,8.74,1.504,12.854-0.89c3.729-2.169,6.003-7.463,5.29-11.716
	c-0.371-2.22-1.355-4.14-2.411-6.07c-1.239-2.268-2.33-4.602-2.66-7.216c-0.328-2.594-0.132-5.022,1.887-6.992
	c1.221-1.19,0.682-2.761-0.123-4.088c-1.384-2.28-3.211-4.191-5.285-5.877c-2.371-1.927-4.985-3.424-7.84-4.528
	c0-0.397,0-0.749,0-1.2c2.167,0.242,3.892,1.238,5.619,2.219c4.261,2.419,7.426,5.965,10.081,9.995
	c0.581,0.88,1.22,1.361,2.26,1.584c3.422,0.734,6.335,2.389,8.903,4.812c2.254,2.125,4.742,4.016,6.443,6.652
	c3.328,5.153,6.626,10.325,8.641,16.186c1.015,2.949,1.556,5.967,1.938,9.064c0.682,5.532,0.26,10.977-0.895,16.369
	c-0.511,2.38-1.334,4.719-2.259,6.977c-1.298,3.172-3.036,6.101-5.284,8.744c-2.003,2.355-4.241,4.392-7.033,5.674
	c-3.685,1.691-7.373,3.304-11.466,4.002c-4.411,0.75-8.823,1.159-13.271,1.361c-5.035,0.228-9.695-1.289-14.206-3.275
	c-4.694-2.067-9.051-4.752-12.492-8.604c-1.788-2.002-3.288-4.304-4.66-6.622c-1.243-2.099-2.288-4.348-3.138-6.636
	c-0.735-1.979-1.209-4.084-1.562-6.174c-1.41-8.316-0.874-16.603,0.479-24.881c0.492-3.017,1.206-5.947,2.395-8.756
	c1.93-4.56,4.904-8.183,9.482-10.301C75.776,79.022,76.666,78.83,77.696,78.495z M64.321,109.774
	c0.483,3.8,0.849,7.589,1.467,11.336c0.964,5.838,2.774,11.369,6.033,16.409c3.34,5.166,7.931,8.802,13.433,11.261
	c2.863,1.28,5.947,2.131,9.002,2.903c2.171,0.549,4.463,0.93,6.69,0.883c5.321-0.11,10.524-1.069,15.497-3.065
	c0.957-0.385,2.027-0.622,2.839-1.211c2.034-1.474,4.004-3.046,5.898-4.696c2.207-1.923,4.065-4.191,5.328-6.833
	c2.517-5.257,4.521-10.661,4.949-16.583c0.347-4.803,0.402-9.535-1.028-14.188c-0.965-3.142-1.742-6.354-2.912-9.416
	c-1.582-4.133-4.124-7.726-6.96-11.116c-1.701-2.033-3.29-4.186-5.581-5.592c-1.362-0.835-2.809-1.667-4.332-2.078
	c-3.667-0.991-6.709,1.82-6.088,5.523c0.188,1.123,0.573,2.25,1.066,3.279c0.978,2.036,1.982,4.073,3.179,5.984
	c1.553,2.476,2.069,5.148,1.825,7.968c-0.217,2.52-0.764,4.998-2.447,7.015c-0.908,1.087-1.946,2.065-2.93,3.089
	c-1.107,1.153-2.457,1.926-4.019,2.186c-2.03,0.336-4.078,0.592-6.13,0.764c-7.044,0.591-14.779-4.856-15.602-12.162
	c-0.396-3.529-0.713-7.068-1.021-10.608c-0.203-2.341-0.685-4.578-1.862-6.651c-1.286-2.262-2.657-2.844-5.134-2.138
	c-2.659,0.758-4.4,2.561-5.734,4.864c-2.002,3.46-3.105,7.227-3.722,11.143C65.416,101.931,64.891,105.832,64.321,109.774z"/>
<path fill-rule="evenodd" clip-rule="evenodd" fill="#f7dad4" class="fill" d="M86.175,57.431c-2.151-0.597-4.274-1.354-6.463-1.734
	c-1.617-0.281-3.337-0.22-4.979-0.039c-1.867,0.205-2.467,1.347-2.012,3.501c3.754,2.379,8.028,2.881,12.849,2.625
	c-0.524,0.484-0.765,0.898-0.997,0.894c-4.433-0.094-8.919,0.461-13.245-1.005c-0.241-0.082-0.459-0.229-0.614-0.309
	c-1.684-1.867-1.583-3.954-0.975-6.075c0.29-1.016,0.922-1.827,1.974-2.25c1.661-0.668,3.352-0.999,5.104-0.476
	c2.594,0.775,5.22,1.486,7.487,3.053c0.724,0.499,1.404,1.058,2.104,1.59C86.33,57.281,86.252,57.356,86.175,57.431z"/>
<path fill-rule="evenodd" clip-rule="evenodd" fill="#f7dad4" class="fill" d="M95.246,47.85c-2.472-1.017-3.299-0.746-4.229,1.375
	c-0.354,0.808-0.498,1.717-0.665,2.594c-0.125,0.662-0.133,1.347-0.208,2.188c-1.271-2.098-1.122-7.698,0.231-9.206
	c0.443-0.493,1.157-0.818,1.81-1.032c1.217-0.398,3.506-0.172,4.974,0.359c1.369,1.455,1.297,3.324,1.116,5.1
	c-0.329,3.253-1.981,5.945-4.038,8.405c-0.055,0.066-0.225,0.035-0.438,0.061C94.611,54.454,96.527,51.375,95.246,47.85z"/>
<path fill-rule="evenodd" clip-rule="evenodd" fill="#f7dad4" class="fill" d="M95.615,58.75c0.47-0.352,0.896-0.791,1.417-1.041
	c2.226-1.072,4.535-1.792,7.061-1.796c6.812-0.01,13.495,0.823,20.005,2.889c0.357,0.113,0.698,0.28,1.165,0.471
	c-0.143,0.533-0.269,0.996-0.439,1.63c-2.748-0.522-5.393-1.027-8.037-1.525c-2.911-0.547-5.804-1.247-8.74-1.584
	c-3.213-0.369-6.446-0.229-9.571,0.85c-0.825,0.284-1.691,0.454-2.539,0.676C95.828,59.13,95.722,58.94,95.615,58.75z"/>
<path fill-rule="evenodd" clip-rule="evenodd" fill="#f7dad4" class="fill" d="M90.725,62.166c-0.929-0.748-0.699-1.62-0.494-2.472
	c1.976-0.751,2.568-0.164,2.402,2.472C91.987,62.166,91.33,62.166,90.725,62.166z"/>
<path fill-rule="evenodd" clip-rule="evenodd" fill="#f7dad4" class="fill" d="M69.569,93.182c4.191-0.053,5.802-1.656,5.333-5.205
	c-0.492-0.567-1.035-1.191-1.565-1.8c1.337-1.848,1.551-1.937,4.15-1.754c2.249,1.851,3.201,4.098,3.099,7.31
	c-3.423,2.037-4.284,4.066-2.793,6.904c1.068,0.266,2.245,0.56,3.375,0.841c0.095,0.169,0.19,0.273,0.216,0.391
	c0.304,1.452,0.598,2.905,0.89,4.339c-2.466,2.889-2.938,4.777-1.637,6.493c1.16,1.533,3.285,1.758,5.92,0.58
	c1.318,0.938,2.677,1.906,4.018,2.86c0.163,0.923,0.318,1.803,0.448,2.532c0.479,0.55,0.857,0.986,1.203,1.385
	c1.876,0.372,3.425,0.136,4.565-1.694c3.576,0.592,7.096-0.194,10.432-1.119c1.205,0.516,2.256,0.966,3.251,1.392
	c0.995-0.338,1.845-0.628,2.809-0.956c0.314-0.824,0.63-1.654,0.914-2.4c-0.295-0.996-0.55-1.856-0.735-2.487
	c1.018-2.275,1.889-4.354,2.866-6.381c2.296-4.763,1.245-9.162-1.36-13.414c-0.202-0.33-0.43-0.643-0.575-0.859
	c0.508-1.205,0.978-2.319,1.377-3.264c-0.708-2.462-1.659-3.104-4.714-3.248c0-0.897,0-1.803,0-2.529
	c1.144-1.3,2.388-1.2,3.569-0.817c2.526,0.819,4.437,2.53,6.157,4.398c-1.267,2.966-1.295,3.484-0.359,5.424
	c1.48,1.249,3.172,0.703,4.918,0.497c2.434,3.452,4.394,7.088,5.141,11.36c-0.724,0.385-1.342,0.714-1.918,1.02
	c-1.714,2.608-1.754,3.559-0.154,5.778c0.494,0.076,1.117,0.192,1.747,0.261c0.571,0.062,1.149,0.071,1.905,0.114
	c1.279,4.876,0.77,9.779,0.277,14.845c-2.597-0.251-4.619,0.358-5.198,3.027c-0.495,2.291,0.973,3.418,3.018,4.155
	c-1.856,5.559-5.644,9.54-9.63,13.489c-1.014-0.577-1.891-1.076-2.663-1.515c-3.258,0.793-3.723,1.332-4.105,4.84
	c-1.335,0.31-2.755,0.64-4.109,0.955c-2.476-3.356-6.565-2.102-7.595,1.297c-2.212,0.551-4.266-0.406-6.438-0.744
	c-0.2-1.699-0.042-3.587-2.115-4.188c-1.939-0.562-3.542,0.109-4.914,1.914c-1.706-0.889-3.388-1.765-5.065-2.638
	c1.213-2.605,1.156-4.292-0.103-5.496c-1.425-1.362-3.224-1.28-6.261,0.387c-2.493-2.741-5.385-5.229-6.521-9.214
	c2.202-0.738,3.179-2.371,3.562-4.416c-0.989-2.684-1.901-3.122-5.605-2.618C66.727,113.105,67.186,103.106,69.569,93.182z
	 M90.184,128.195c-0.127,1.999-0.471,3.747-0.301,5.442c0.523,5.264,3.328,7.76,7.616,9.253c3.227,1.125,6.669,0.703,9.9-0.465
	c3.583-1.295,5.972-3.63,6.555-7.632c0.408-2.806,0.404-5.51-0.616-7.962c0.555-1.357,1.038-2.536,1.426-3.483
	c-0.688-2.761-2.484-3.678-4.771-3.927c-2.896-0.316-4.371,1.376-5.195,3.942c-2.923,0-5.748,0-8.672,0
	c-2.862-2.879-4.846-3.292-6.758-1.333C87.229,124.219,87.455,125.749,90.184,128.195z M118,107.204
	c-0.551,1.814-1.513,3.614,0.277,5.203c1.231,1.092,3.126,1.198,4.477,0.232c1.891-1.353,1.287-3.264,1.087-4.976
	C121.864,105.928,120.556,105.827,118,107.204z M125.191,115.289c-1.805,2.737-1.93,4.267-0.514,5.598
	c1.066,1.004,3.042,1.08,4.311,0.167c1.223-0.878,1.836-3.317,1.15-4.558C129.475,115.294,127.075,114.688,125.191,115.289z
	 M75.18,100.6c-1.601-0.682-3.109-1.178-4.679,0.428c-0.152,0.661-0.472,1.518-0.527,2.393c-0.095,1.446,0.771,2.409,1.981,3.035
	c1.1,0.568,2.891,0.351,3.618-0.444c0.965-1.051,1.062-2.29,0.517-3.575C75.815,101.794,75.471,101.18,75.18,100.6z M121.042,96.102
	c-1.107,2.042-1.003,4.285,0.248,5.283c0.948,0.759,3.147,0.605,4.143-0.287c1.362-1.224,1.442-3.094,0.213-5.021
	C123.312,94.935,123.002,94.937,121.042,96.102z M76.163,114.141c-0.963-3.357-2.106-3.894-5.737-2.596
	c-0.323,0.612-0.706,1.337-1.006,1.906c0.188,1.761,0.29,3.346,2.276,3.894C73.768,117.287,75.521,116.64,76.163,114.141z
	 M117.832,123.415c-1.327,1.125-1.133,2.676-1.004,4.169c1.629,1.683,3.297,2.221,4.649,1.536c1.418-0.719,1.995-2.37,1.575-4.618
	C121.562,123.265,119.879,122.735,117.832,123.415z M78.918,128.385c-0.213,0.274-0.536,0.597-0.748,0.979
	c-0.936,1.69-0.301,3.88,1.322,4.663c1.812,0.876,3.943,0.135,4.749-1.651c0.626-1.386,0.162-2.662-1.12-3.454
	C81.821,128.119,80.469,128.063,78.918,128.385z M81.042,116.01c-3.038,1.937-3.364,2.814-2.085,5.446
	c1.726,1.181,3.021,1.309,4.229,0.417c1.265-0.933,1.786-2.347,1.375-3.729C84.088,116.554,83.485,116.177,81.042,116.01z
	 M118.367,139.62c1.6,0.621,2.993,0.542,4.163-0.708c1.077-1.153,0.988-2.425,0.388-3.696c-1.996-1.427-3.439-1.549-4.562-0.425
	C117.144,136.002,117.125,137.727,118.367,139.62z"/>
<path fill-rule="evenodd" clip-rule="evenodd" fill="#f7dad4" class="fill" d="M95.429,132.172c-1.136-1.367-1.145-2.498-0.081-3.588
	c0.833-0.854,2.122-0.956,2.969-0.238c1.121,0.951,1.088,2.133-0.184,3.812c-0.415,0.032-0.918,0.098-1.422,0.102
	C96.266,132.265,95.82,132.202,95.429,132.172z M97.072,128.988c-0.988,0.543-1.157,1.073-0.721,1.604
	c0.205,0.248,0.699,0.258,1.538,0.529C97.521,130.159,97.325,129.648,97.072,128.988z"/>
<path fill-rule="evenodd" clip-rule="evenodd" fill="#f7dad4" class="fill" d="M106.119,136.736c-0.871,2.007-1.925,2.74-3.514,2.714
	c-1.373-0.022-1.824-0.368-2.396-2.041C102.133,137.189,103.999,136.977,106.119,136.736z"/>
<path fill-rule="evenodd" clip-rule="evenodd" fill="#f7dad4" class="fill" d="M107.872,127.113c0.275,0.751,0.563,1.535,0.895,2.435
	c-0.901,0.477-1.562,0.828-2.128,1.127c-1.862-0.589-2.354-1.104-2.138-2.13C104.73,127.458,105.686,126.984,107.872,127.113z
	 M107.181,129.343c-0.141-1.398-0.415-1.708-1.322-1.31c-0.021,0.353-0.048,0.795-0.083,1.377
	C106.365,129.382,106.771,129.362,107.181,129.343z"/>
<path fill-rule="evenodd" clip-rule="evenodd" fill="#f7dad4" class="fill" d="M101.633,132.292c0.763-0.075,1.526-0.15,2.787-0.274
	c-0.551,0.988-0.882,1.584-1.374,2.47c-0.688-0.664-1.175-1.134-1.661-1.604C101.467,132.686,101.549,132.489,101.633,132.292z"/>
</svg>
