<svg version="1.1" id="svg" xmlns="http://www.w3.org/2000/svg" xmlns:xlink="http://www.w3.org/1999/xlink" x="0px" y="0px"
	 width="200px" height="200px" viewBox="0 0 200 200" enable-background="new 0 0 200 200" xml:space="preserve">
<path class="stroke" fill="#205165"  fill-rule="evenodd" clip-rule="evenodd" d="M189.818,48.805c-0.182-1.062-0.444-2.126-0.817-3.136
	c-0.576-1.556-1.109-3.169-1.965-4.573c-1.418-2.321-3.381-4.187-5.534-5.876c-2.792-2.193-5.832-3.814-9.349-4.616
	c-0.573-1.073,0.416-2.511-0.703-3.479c-1.08-0.937-2.345-0.544-3.703-0.53c-0.101,1.171-0.196,2.277-0.292,3.376
	c-0.307,0.061-0.575,0.119-0.845,0.164c-0.12,0.02-0.244,0.011-0.366,0.02c-3.715,0.262-7.098,1.549-10.152,3.595
	c-2.377,1.593-3.879,3.993-5.355,6.415c-2.467,4.045-3.745,8.332-3.484,13.109c0.173,3.154,0.591,6.166,2.553,8.778
	c1.27,1.69,2.24,3.617,4.041,4.874c0.771,0.537,1.466,1.181,2.221,1.743c2.062,1.534,4.237,2.845,6.801,3.38
	c1.112,0.233,2.215,0.512,3.194,0.738c0.678,25.1,0.042,49.936-0.008,74.796c-1.292-2.421-2.455-4.865-3.634-7.302
	c-1.088-2.25-2.067-4.564-3.317-6.721c-2.255-3.893-4.637-7.714-7.045-11.516c-1.071-1.691-2.318-3.272-3.51-4.887
	c-1.862-2.52-3.653-5.099-5.639-7.517c-2.739-3.339-5.593-6.585-8.466-9.809c-2.584-2.9-5.224-5.753-7.906-8.561
	c-2.036-2.134-4.183-4.16-6.27-6.245c-3.292-3.291-6.612-6.546-10.278-9.432c-2.82-2.219-5.573-4.521-8.387-6.748
	c-4.402-3.481-8.913-6.827-13.835-9.544c-3.336-1.84-6.746-3.56-10.2-5.168c-2.974-1.385-6.046-2.562-9.096-3.778
	c-1.58-0.632-3.201-1.158-4.809-1.716c-2.039-0.707-4.062-1.473-6.132-2.078c-2.572-0.751-5.182-1.369-7.778-2.038
	c-2.624-0.677-5.264-1.3-7.87-2.04c-1.133-0.32-2.258-0.771-3.28-1.35c-1.224-0.694-2.141-1.716-2.211-3.248
	c0.749-1.681,2.416-2.296,3.805-3.034c2.771-1.475,3.31-5.093,0.345-7.119c-2.441-1.67-5.345-2.161-8.032-3.193
	c-1.803-0.691-3.753-1.013-5.65-1.449c-1.888-0.432-3.789-0.803-5.645-0.219c-1.146,1.832-1.116,1.944,0.682,2.707
	c0.167,0.072,0.347,0.115,0.521,0.173c2.81,0.942,5.575,2.038,7.878,3.928c1.869,1.535,1.963,2.935-0.186,4.466
	c-1.502,1.068-3.213,1.674-4.916,2.289c-2.384,0.864-4.475,2.052-6.026,4.176c-1.821,2.496-2.187,5.138-1.259,8.005
	c0.983,3.03,2.842,5.586,4.603,8.182c1.422,2.097,3.005,4.089,4.343,6.235c1.608,2.582,3.114,5.235,4.51,7.937
	c1.284,2.487,2.546,5.014,3.496,7.64c1.624,4.488,2.989,9.071,4.481,13.61c0.75,2.279,1.671,4.51,2.283,6.823
	c1.376,5.199,2.665,10.421,3.874,15.661c0.593,2.569,0.952,5.193,1.37,7.799c0.379,2.37,0.733,4.748,1.026,7.13
	c0.356,2.894,0.646,5.796,0.946,8.696c0.224,2.153,0.427,4.311,0.627,6.467c0.312,3.343,0.683,6.681,0.9,10.029
	c0.208,3.22,0.228,6.453,0.392,9.677c0.028,0.543,0.369,1.069,0.529,1.505c0.897,0,1.541-0.071,2.164,0.013
	c2.751,0.365,5.495,0.773,8.242,1.171c3.345,0.484,6.683,1.021,10.035,1.447c4.687,0.595,9.374,1.217,14.078,1.623
	c3.971,0.343,7.965,0.52,11.951,0.549c4.577,0.035,9.165-0.034,13.732-0.312c4.802-0.289,9.602-0.751,14.373-1.369
	c5.5-0.71,10.98-1.596,16.443-2.551c4.062-0.712,8.103-1.576,12.117-2.521c2.536-0.597,5.021-1.421,7.502-2.225
	c2.349-0.761,4.658-1.643,6.993-2.445c0.849-0.292,1.233-0.812,1.134-1.725c-0.082-0.757-0.12-1.522-0.124-2.285
	c-0.008-2.017,0.044-4.035,0.015-6.053c-0.031-2.088-0.169-4.176-0.19-6.266c-0.019-1.938,0.056-3.879,0.084-5.818
	c0.043-2.855,0.081-5.71,0.121-8.565c0.053-3.778,0.115-7.557,0.157-11.336c0.016-1.395-0.057-2.792-0.014-4.185
	c0.043-1.427,0.234-2.851,0.259-4.277c0.037-2.123-0.056-4.246-0.023-6.368c0.066-4.2,0.21-8.401,0.267-12.601
	c0.048-3.593-0.021-7.188,0.042-10.779c0.036-2.061,0.233-4.117,0.363-6.258c0.353-0.044,0.65-0.06,0.938-0.122
	c1.331-0.286,2.774-0.351,3.964-0.929c2.264-1.1,4.433-2.419,6.542-3.803c1.014-0.663,1.916-1.587,2.668-2.548
	c1.893-2.423,2.96-5.289,4.027-8.132C190.192,54.573,190.313,51.697,189.818,48.805z"/>
<path fill-rule="evenodd" clip-rule="evenodd" fill="#ffffff" class="fill" d="M115.728,145.389c-0.756-1.574-1.452-3.182-2.291-4.711
	c-0.52-0.949-1.192-1.837-1.91-2.652c-1.824-2.071-3.741-4.061-5.565-6.133c-1.346-1.528-2.601-3.136-3.905-4.701
	c-0.445-0.536-0.975-0.896-1.974-0.611c-0.276,1.104-0.6,2.319-0.871,3.547c-0.045,0.203,0.066,0.562,0.227,0.672
	c2.663,1.811,3.719,4.66,4.828,7.459c0.791,1.998,1.509,4.025,2.212,6.055c1.501,4.326,1.25,8.673,0.297,13.086
	c-0.68,3.158-2.871,4.985-5.276,6.654c-0.643,0.444-1.651,0.592-2.46,0.521c-2.167-0.189-4.36-0.406-6.176-1.851
	c-1.066-0.849-2.278-1.539-3.247-2.482c-1.541-1.498-2.541-3.392-3.265-5.404c-1.292-3.596-2.559-7.174-2.889-11.056
	c-0.227-2.668,0.012-5.255,0.637-7.772c0.456-1.84,1.248-3.718,2.354-5.242c1.52-2.095,3.673-3.545,6.427-3.653
	c0.853-0.034,1.712,0.146,2.571,0.205c0.429,0.03,0.862,0.006,1.368,0.006c0.423-1.558,0.807-3.045,1.232-4.521
	c0.277-0.964,0.633-1.904,0.923-2.863c0.8-2.649,1.512-5.329,2.412-7.946c0.333-0.971,1.05-1.828,1.684-2.668
	c0.2-0.266,0.708-0.439,1.061-0.418c0.686,0.042,1.362,0.25,2.099,0.402c-0.03,0.325-0.054,0.586-0.081,0.873
	c-0.651,0.322-1.276,0.63-1.891,0.935c-0.788,2.075-2.763,3.871-1.301,6.487c0.794-0.172,1.492-0.351,2.199-0.469
	c2.782-0.47,5.566-0.936,8.353-1.371c0.868-0.137,1.46-0.707,1.421-1.571c-0.054-1.172,0.04-2.28,0.647-3.345
	c0.349-0.611,0.197-1.255-0.531-1.545c-1.339,0.255-2.637,0.504-4.079,0.78c0.121-1.043,0.834-1.412,1.498-1.622
	c1.588-0.506,3.211-0.912,4.836-1.289c0.703-0.162,1.446-0.202,2.17-0.208c0.759-0.005,1.075,0.396,0.939,1.195
	c-0.413,2.419-0.805,4.843-1.155,7.271c-0.07,0.483,0.083,0.998,0.122,1.386c2.686,1.618,5.221,3.146,7.572,4.562
	c2.646-0.53,5.079-1.033,7.536-0.668c2.874,0.429,5.041,2.103,7.132,4.089c2.397,2.278,4.158,5,5.772,7.759
	c1.933,3.303,3.141,6.984,3.101,10.919c-0.019,1.878-0.055,3.77-0.313,5.623c-0.122,0.88-0.743,1.708-1.208,2.521
	c-1.015,1.78-2.256,3.439-4.224,4.153c-1.331,0.482-2.827,0.527-4.257,0.71c-0.506,0.064-1.035-0.037-1.552-0.078
	c-3.009-0.231-5.319-1.918-7.596-3.667c-0.432-0.33-0.819-0.744-1.292-0.996c-1.794-0.956-2.627-2.761-3.815-4.245
	c-0.491-0.613-0.779-1.407-1.329-1.946c-0.341-0.332-1.008-0.495-1.515-0.468c-1.999,0.104-3.992,0.334-5.991,0.465
	c-0.467,0.029-0.948-0.151-1.423-0.234C115.893,145.34,115.811,145.364,115.728,145.389z M129.458,142.71
	c0.395,0.765,0.651,1.357,0.995,1.896c0.327,0.514,0.713,0.997,1.13,1.44c1.58,1.679,3.195,3.315,5.513,3.982
	c2.149,0.615,4.279,0.327,5.878-1.096c1.657-1.477,2.85-3.394,3.254-5.748c0.294-1.724-0.004-3.352-0.387-4.942
	c-0.396-1.64-1.084-3.234-1.824-4.762c-1.37-2.821-3.158-5.37-5.791-7.164c-2.249-1.534-4.692-2.584-7.465-1.502
	c-1.119,0.438-2.331,0.704-3.134,1.846c-1.557,2.212-2.012,4.631-1.801,7.256c0.048,0.595,0.307,0.908,0.896,0.938
	c2.618,0.126,5.239,0.24,7.857,0.374c0.632,0.032,1.262,0.122,1.937,0.189c0.29,0.666,0.609,1.259,0.808,1.892
	c0.331,1.052-0.089,2.293-1.053,2.765c-1.581,0.774-3.217,1.437-4.846,2.104C130.9,142.394,130.322,142.481,129.458,142.71z
	 M96.491,133.861c-1.108-1.285-3.591-1.632-4.971-0.859c-1.649,0.927-2.751,2.25-3.339,4.033c-1.377,4.183-0.989,8.336,0.493,12.357
	c0.759,2.059,1.905,4.011,3.121,5.852c0.772,1.167,1.531,2.618,3.15,2.869c1.093,0.169,2.229,0.086,3.345,0.096
	c1.925,0.018,4.552-2.254,4.719-4.628c0.151-2.134,0.154-4.262-0.332-6.341c-0.669-2.867-1.424-5.716-2.237-8.548
	c-0.298-1.041-0.861-2.005-1.304-3.007c-0.135-0.009-0.27-0.019-0.403-0.027c-0.293,0.453-0.694,0.874-0.854,1.37
	c-0.257,0.8-0.345,1.654-0.521,2.481c-0.323,1.508-0.614,3.024-1.005,4.515c-0.255,0.97-0.93,1.577-2.001,1.538
	c-0.596-0.021-1.189-0.13-1.967-0.222c0-0.818,0-1.564,0-2.279c0.417-0.377,0.729-0.881,1.144-0.988
	c0.959-0.246,0.992-0.961,1.102-1.687c0.04-0.261,0.033-0.535,0.107-0.783C95.314,137.688,95.904,135.778,96.491,133.861z
	 M101.976,122.48c0.329,0.358,0.688,0.767,1.066,1.158c2.613,2.708,5.535,5.13,7.596,8.343c0.323,0.504,0.797,0.887,1.623,0.23
	c0.144-0.86,0.364-1.876,0.475-2.902c0.298-2.772,0.384-5.572,1.5-8.211c0.189-0.447-0.081-1.202-0.365-1.684
	c-0.13-0.218-0.82-0.193-1.238-0.14c-2.765,0.356-5.521,0.791-8.291,1.116C102.785,120.574,102.29,120.912,101.976,122.48z
	 M116.991,135.138c1.432-0.289,3.017,0.336,4.269-0.445c0-1.952-0.115-3.689,0.031-5.404c0.15-1.759,0.732-3.423,2.102-4.852
	c-1.536-1.357-2.934-2.644-4.4-3.849c-0.29-0.236-0.841-0.152-1.322-0.225c-0.122,0.71-0.261,1.271-0.312,1.842
	c-0.299,3.419-0.604,6.838-0.846,10.261C116.451,133.337,116.197,134.296,116.991,135.138z"/>
<path fill-rule="evenodd" clip-rule="evenodd" fill="#ffffff" class="fill" d="M71.135,99.387c0-1.089,0-2.085,0-3.337
	c-0.048-0.037-0.268-0.256-0.527-0.402c-2.427-1.378-4.076-3.499-4.843-6.069c-0.834-2.797-1.641-5.736-0.055-8.613
	c1.727-3.134,4.946-3.621,7.532-1.149c2.524,2.413,3.926,5.424,3.997,8.843c0.046,2.159-0.168,4.503-2.111,6.081
	c-0.438,0.354-1,0.559-1.502,0.835c-0.436,0.239-0.869,0.482-1.104,0.614c-0.187,2.912-0.206,5.591-0.577,8.223
	c-0.259,1.835-0.986,2.973-2.879,3.264c0.413-0.682,0.986-1.344,1.231-2.111c0.248-0.776,0.171-1.655,0.255-2.725
	c-0.991,0.184-1.753,0.292-2.499,0.469c-1.861,0.44-3.711,0.928-5.573,1.368c-1.381,0.328-1.888,1.141-1.545,2.795
	c1.063-0.134,2.147-0.268,3.275-0.407c0.204,0.78-0.07,1.323-0.675,1.555c-1.817,0.695-3.665,1.311-5.789,2.059
	c0.111-1.121,0.204-2.044,0.26-2.606c-1.567-1.396-2.948-2.627-4.121-3.674c-1.269-0.099-2.332-0.077-3.346-0.284
	c-1.781-0.362-2.893-1.667-3.904-3.069c-1.197-1.662-1.826-3.583-2.38-5.501c-0.803-2.774-0.619-5.497,1.115-7.934
	c0.56-0.785,1.231-1.516,1.95-2.16c0.823-0.732,1.841-0.313,2.724-0.117c2.472,0.548,4.438,1.967,5.941,3.966
	c0.517,0.688,0.761,1.576,1.19,2.503c1.837-0.789,3.612-1.55,5.497-2.359c0.334,1.043,0.532,1.867,0.864,2.633
	c0.255,0.59,0.61,1.17,1.042,1.647c1.691,1.869,3.437,3.689,5.149,5.541C70.173,99.741,70.604,99.862,71.135,99.387z M51.695,95.779
	c-0.162-1.573,1.16-1.601,2.106-2.097c0.101-0.331,0.214-0.702,0.299-0.979c-0.211-0.45-0.335-0.837-0.555-1.157
	c-0.578-0.844-1.076-1.796-1.824-2.458c-2.145-1.9-4.735-0.271-4.985,1.558c-0.155,1.136-0.362,2.357-0.104,3.435
	c0.463,1.938,1.102,3.854,2.413,5.46c1.523,1.867,4.017,2.252,5.598,0.681c0.528-0.524,0.787-1.343,1.101-2.056
	c0.694-1.581,0.659-1.634-0.904-2.354C53.8,96.018,52.778,96.784,51.695,95.779z M73.351,92.884
	c0.359-0.813,0.894-1.568,1.001-2.377c0.16-1.193,0.132-2.441-0.024-3.64c-0.302-2.307-1.284-4.301-3.167-5.766
	c-0.684-0.531-1.772-0.553-2.151,0.007c-0.818,1.205-1.384,2.626-1.135,4.015C68.241,87.17,69,89.146,69.577,91.1
	c0.85-0.034,1.087-0.227,1.088-0.732c0.004-1.198,0.002-2.396,0.002-3.596c0.367-0.241,0.664-0.434,0.918-0.601
	c0.839,0.384,1.257,1.177,0.873,1.969c-0.695,1.433-0.18,2.854-0.251,4.318C72.548,92.585,72.823,92.688,73.351,92.884z
	 M61.081,102.478c0.342,0.612,0.77,0.681,1.399,0.454c0.765-0.276,1.585-0.4,2.378-0.604c1.012-0.264,2.02-0.541,3.03-0.812
	c0.013,0.02,0.024,0.04,0.037,0.06c0.504-0.2,1.009-0.4,1.606-0.638c-2.32-2.196-4.445-4.208-6.561-6.211
	c-0.355,0.152-0.628,0.27-1.002,0.431C61.675,97.573,61.381,99.996,61.081,102.478z M58.821,104.981
	c0.54-3.354,1.059-6.571,1.611-9.998c-0.695,0.258-1.378,0.508-1.992,0.735c-0.097,2.802-0.187,5.401-2.135,7.277
	c0.718,0.811,1.272,1.438,1.872,2.117C58.367,105.075,58.591,105.029,58.821,104.981z"/>
<path fill-rule="evenodd" clip-rule="evenodd" fill="#ffffff" class="fill" d="M170.965,56.57c-0.255-0.614-0.509-1.228-0.758-1.832
	c-0.899-0.056-1.619-0.099-2.104-0.129c-1.616-2.714-3.148-5.289-4.834-8.12c-0.431,0.801-0.744,1.381-1.148,2.128
	c0.579,0.427,1.107,0.912,1.717,1.247c1.235,0.679,2.259,3.044,1.877,4.677c-0.779,3.334-4.242,6.5-8.553,5.232
	c-2.276-0.669-3.32-2.164-3.208-4.533c0.095-2.006,0.98-3.688,2.146-5.212c0.437-0.572,1.222-0.877,1.728-1.22
	c0.964,0,1.776,0,2.656,0c1.178-2.334,1.557-5.054,3.215-7.156c0.856-0.083,1.634-0.158,2.413-0.232
	c0.034,0.09,0.068,0.179,0.102,0.268c-0.519,0.224-1.161,0.33-1.524,0.703c-0.37,0.385-0.466,1.033-0.766,1.773
	c2.475,0,4.679,0,6.969,0c0.021-0.193,0.045-0.409,0.07-0.635c-0.703-0.286-1.864,0.242-1.845-1.094
	c1.185-0.637,4.358-0.752,5.723-0.192c-0.016,0.313-0.033,0.659-0.057,1.134c-0.721,0-1.367,0-2.115,0
	c-0.09,0.352-0.177,0.688-0.274,1.072c0.901,1.347,1.795,2.684,2.549,3.813c1.419,0,2.645,0.022,3.87-0.004
	c2.013-0.048,4.073,1.28,4.606,3.243c0.435,1.601,0.847,3.229,0.411,4.96c-0.701,2.787-2.625,4.419-5.671,4.862
	c-2.505,0.365-4.222-0.912-5.896-2.293c-0.675-0.559-0.952-1.598-1.41-2.419C170.891,56.599,170.928,56.584,170.965,56.57z
	 M177.263,54.863c-1.078-0.512-3.157-0.43-4.458,0.222c0.158,0.502,0.27,1.069,0.506,1.578c1.13,2.446,3.021,3.233,5.249,2.853
	c2.344-0.4,3.888-2.246,4.153-4.847c0.206-2.03-0.757-3.619-2.445-4.786c-1.039-0.717-3.212-0.815-4.198,0.313
	c0.677,0.996,1.387,2.04,2.147,3.159c-0.028,0.3-0.063,0.686-0.101,1.093C177.798,54.604,177.531,54.733,177.263,54.863z
	 M159.555,50.765c-0.765-0.568-2.07-0.26-2.894,0.682c-1.245,1.421-1.535,3.104-1.153,4.888c0.228,1.064,0.913,2.054,1.965,2.232
	c3.37,0.572,5.588-0.611,6.026-4.309c0.244-2.064,0.195-2.741-1.736-3.437c-0.711,1.491-1.43,3-2.124,4.457
	c-0.574-0.073-0.902-0.115-1.368-0.176C158.181,53.498,159.4,52.307,159.555,50.765z M170.256,45.87
	c-0.101-0.094-0.202-0.188-0.303-0.283c-1.802,0-3.605,0-5.613,0c1.206,1.915,2.324,3.692,3.442,5.468
	c0.15-0.021,0.301-0.041,0.449-0.06C168.908,49.286,169.582,47.578,170.256,45.87z M176.422,53.518
	c0.049-0.121,0.098-0.24,0.148-0.36c-0.725-0.948-1.449-1.897-2.159-2.827c-1.474,0.559-2.376,1.99-1.946,3.188
	C173.753,53.518,175.088,53.518,176.422,53.518z M172.018,46.112c-0.648,1.903-1.216,3.497-1.72,5.11
	c-0.116,0.37-0.018,0.811-0.018,1.219c0.089,0.001,0.176,0.003,0.265,0.004c0.988-1.335,1.977-2.668,3.029-4.087
	C173.13,47.719,172.64,47.011,172.018,46.112z"/>
</svg>
