<svg version="1.1" id="svg" xmlns="http://www.w3.org/2000/svg" xmlns:xlink="http://www.w3.org/1999/xlink" x="0px" y="0px"
	 width="300px" height="200px" viewBox="0 0 300 200" enable-background="new 0 0 300 200" xml:space="preserve">
<path class="stroke" fill="#183046"  d="M267.913,122.151c-0.326-3.783-0.511-7.581-0.639-11.376c-0.211-6.299-0.319-12.601-0.488-18.903
	c-0.106-3.996-0.3-7.99-0.345-11.985c-0.031-2.794,0.096-5.591,0.207-8.385c0.072-1.812,0.107-3.645,0.414-5.425
	c0.292-1.698,0.197-2.223-1.213-2.943c-0.674,0-1.21-0.002-1.746,0c-1.563,0.005-3.125,0.02-4.688,0.015
	c-1.06-0.005-2.123-0.019-3.182-0.063c-1.29-0.056-2.581-0.234-3.867-0.203c-2.253,0.054-4.501,0.274-6.754,0.333
	c-1.322,0.034-2.65-0.164-3.974-0.16c-3.189,0.009-6.378,0.08-9.566,0.119c-2.48,0.031-4.962-0.005-7.438,0.094
	c-3.273,0.131-6.54,0.425-9.813,0.543c-3.921,0.142-7.845,0.199-11.769,0.243c-3.418,0.038-6.839,0.007-10.258,0.007
	c0.041,0.149,0.082,0.297,0.123,0.446c-1.019,0.686-2.028,1.387-3.059,2.054c-3.016,1.947-6.04,3.883-9.061,5.821
	c-2.9,1.863-5.802,3.724-8.703,5.585c-0.286,0.185-0.569,0.374-0.853,0.56c0.136,0.069,0.273,0.136,0.409,0.204
	c-0.157,4.003-0.314,8.004-0.481,12.271c-0.854-0.63-1.422-1.059-2-1.477c-2.75-1.989-5.568-3.869-8.842-4.901
	c-3.836-1.211-7.788-1.343-11.773-1.245c-4.509,0.111-8.924,0.623-13.175,2.257c-2.815,1.084-5.684,2.021-7.95,4.147
	c-0.25,0.234-0.612,0.347-1.045,0.584c-0.623-7.915-1.232-15.649-1.859-23.597c-0.483-0.057-1.112-0.199-1.738-0.188
	c-2.535,0.043-5.067,0.186-7.602,0.196c-6.063,0.026-12.127-0.024-18.19,0.006c-1.952,0.01-3.902,0.182-5.854,0.271
	c-4.384,0.199-8.77,0.385-13.154,0.592c-2.937,0.139-5.872,0.362-8.811,0.447c-3.152,0.09-6.309-0.005-9.459,0.106
	c-3.007,0.105-6.009,0.368-9.011,0.576c-0.29,0.021-0.599,0.094-0.855,0.227c-2.879,1.486-5.745,2.999-8.624,4.486
	c-1.428,0.737-2.916,1.366-4.303,2.168c-2.479,1.435-4.864,3.032-7.638,3.899c-0.436,0.137-0.776,0.582-1.031,0.781
	c-0.813,23.468-0.103,46.72-0.553,70.243c0.345,0.134,0.848,0.492,1.356,0.499c1.469,0.017,2.941-0.092,4.41-0.181
	c1.5-0.09,3.005-0.358,4.497-0.297c5.849,0.241,11.691,0.674,17.542,0.845c3.004,0.089,6.019-0.225,9.029-0.347
	c3.182-0.131,6.365-0.225,9.545-0.379c5.644-0.275,11.285-0.595,16.928-0.872c1.329-0.065,2.662-0.068,3.993-0.049
	c2.526,0.038,5.067-0.035,7.574,0.219c1.855,0.188,3.316-0.2,4.64-1.485c0.704-0.684,1.544-1.234,2.358-1.794
	c3.202-2.202,6.437-4.356,9.624-6.579c1.725-1.203,3.379-2.508,4.977-3.701c1.078,0.958,1.867,1.938,2.884,2.514
	c2.94,1.663,5.925,3.263,8.98,4.697c2.69,1.262,5.644,1.617,8.585,1.836c2.589,0.193,5.179,0.352,7.746-0.362
	c1.77-0.494,3.586-0.823,5.381-1.227c3.553-0.801,7.223-1.243,10.25-3.589c0.828-0.642,1.817-1.075,2.945-1.728
	c0,1.968,0.013,3.644-0.003,5.318c-0.013,1.358-0.11,2.718-0.066,4.073c0.02,0.616,0.29,1.223,0.453,1.864
	c0.981-0.054,1.793-0.128,2.606-0.138c1.469-0.017,2.938-0.007,4.407,0.015c3.589,0.053,7.181,0.062,10.768,0.193
	c3.177,0.116,6.348,0.46,9.524,0.536c2.008,0.049,4.026-0.341,6.037-0.307c7.155,0.121,14.307,0.367,21.46,0.508
	c3.068,0.06,6.139,0.021,9.208-0.051c3.252-0.075,6.504-0.218,9.752-0.388c0.792-0.041,1.72-0.083,2.334-0.498
	c2.375-1.603,4.664-3.338,6.958-5.058c2.903-2.177,5.774-4.401,8.679-6.577c1.204-0.903,2.504-1.684,3.674-2.626
	c0.438-0.353,0.834-0.983,0.901-1.531C268.115,130.019,268.253,126.098,267.913,122.151z M103.711,145.267
	c0.366,0.631,0.185,1.058-0.6,1.132c-1.119,0.106-2.245,0.178-3.369,0.208c-5.956,0.152-11.917,0.212-17.871,0.45
	c-5.23,0.208-10.45,0.677-15.681,0.893c-2.137,0.088-4.289-0.179-6.433-0.294c-2.461-0.132-4.919-0.336-7.381-0.398
	c-3.31-0.083-6.624-0.042-9.934-0.083c-2.501-0.033-5.001-0.135-7.502-0.163c-0.777-0.009-1.555,0.117-2.521,0.199
	c-0.065-0.843-0.186-1.644-0.178-2.443c0.039-3.658,0.165-7.317,0.156-10.976c-0.005-2.53-0.24-5.059-0.261-7.589
	c-0.025-2.981,0.125-5.963,0.096-8.945c-0.022-2.463-0.272-4.924-0.276-7.386c-0.004-2.837,0.159-5.673,0.237-8.512
	c0.049-1.8,0.075-3.601,0.11-5.401c0.032-1.629,0.089-3.26,0.084-4.89c-0.005-1.875-0.07-3.749-0.103-5.624
	c-0.012-0.714-0.001-1.429-0.001-2.281c1.255-0.145,2.395-0.356,3.541-0.396c5.336-0.179,10.666-0.578,16.011,0.097
	c2.294,0.29,4.652,0.046,6.979,0.111c3.044,0.085,6.085,0.273,9.129,0.35c4.312,0.108,8.627,0.247,12.939,0.198
	c3.28-0.037,6.556-0.421,9.837-0.511c2.531-0.069,5.068,0.11,7.602,0.113c1.15,0.002,2.3-0.156,3.538-0.248c0,0.421,0,0.614,0,0.881
	c-0.815,0.092-1.598,0.138-2.363,0.281c-0.728,0.134-1.437,0.369-2.316,0.602c1.243,2.363,3.261,0.625,4.69,1.414
	c0,0.416,0,0.845,0,1.274c-1.342,0.705-3.145-0.583-4.34,1.039c1.082,1.857,2.846,0.836,4.383,1.133
	c0.063,0.616,0.131,1.272,0.203,1.965c-1.608,0.342-3.223,0.121-4.512,1.07c0.194,1.055,0.809,1.374,1.985,1.18
	c0.834-0.14,1.678-0.213,2.635-0.329c0,0.887,0,1.618,0,2.351c-1.353,0.707-3.117-0.477-4.389,0.96
	c1.144,1.927,3.003,0.964,4.597,1.156c0,0.448,0,0.843,0,1.246c-1.215,0.762-2.958-0.118-3.997,1.322
	c1.022,1.77,2.7,0.557,4.123,0.938c0.028,0.61,0.057,1.229,0.085,1.849c-1.563,0.439-3.278-0.243-4.48,1.198
	c1.159,1.898,2.878,0.471,4.361,0.913c0,0.659,0,1.377,0,2.093c-1.519,0.732-3.362,0.004-4.796,1.234
	c1.222,2.232,3.157,0.69,4.805,0.972c0.06,0.723,0.117,1.417,0.172,2.091c-1.632,0.802-3.59-0.368-5.048,1.227
	c1.372,1.967,3.475,0.355,5.065,1.151c0.064,0.735,0.132,1.507,0.199,2.265c-1.516,0.719-3.389,0.039-4.737,1.489
	c1.312,1.883,3.169,0.224,4.697,0.865c0.076,0.685,0.161,1.448,0.248,2.239c-1.572,0.679-3.466-0.004-4.94,1.48
	c1.447,1.776,3.376,0.098,4.977,0.854c0.069,0.791,0.146,1.662,0.217,2.473c-1.56,1.03-3.673-0.316-4.999,1.513
	c1.288,1.862,3.239,0.201,4.731,0.959c0.081,0.68,0.168,1.414,0.256,2.148c-1.605,0.574-3.599-0.404-4.778,1.45
	c1.383,1.53,3.178,0.168,4.707,0.907c0,0.668,0,1.437,0,2.246c-1.445,0.66-3.38-0.36-4.749,1.281
	c1.459,1.629,3.368,0.349,4.982,0.943c0.073,0.807,0.151,1.671,0.236,2.605c-1.764,0.499-3.798-0.241-5.247,1.293
	c0.659,1.208,1.58,0.913,2.494,0.801c0.875-0.107,1.764-0.094,2.71-0.136c0.105,0.521,0.188,0.938,0.267,1.327
	c-1.683,0.797-3.829,0.235-5.068,2.143C100.596,146.494,102.114,144.98,103.711,145.267z M116.8,71.293
	c-1.867,1.39-3.712,2.815-5.648,4.104c-1.156,0.771-2.461,1.318-3.706,1.95c-0.67,0.341-1.433,0.553-2.021,0.996
	c-1.574,1.187-3.352,1.35-5.23,1.375c-4.209,0.056-8.417,0.22-12.626,0.298c-1.469,0.027-2.942-0.11-4.412-0.095
	c-4.347,0.047-8.692,0.146-13.039,0.195c-2.663,0.03-5.327-0.021-7.99,0.008c-3.798,0.042-7.6,0.262-11.394,0.157
	c-4.304-0.117-8.602-0.507-12.901-0.783c-0.153-0.01-0.304-0.064-0.709-0.153c1.177-0.712,2.113-1.385,3.135-1.878
	c3.66-1.768,7.31-3.565,11.048-5.155c1.374-0.583,2.975-0.82,4.482-0.867c7.706-0.233,15.415-0.341,23.124-0.513
	c3.28-0.074,6.564-0.13,9.84-0.316c3.139-0.177,6.268-0.527,9.404-0.77c1.024-0.079,2.056-0.047,3.084-0.083
	c2.94-0.098,5.879-0.275,8.82-0.287c2.697-0.01,5.395,0.154,8.092,0.241c0.042,0.096,0.086,0.191,0.128,0.287
	C117.789,70.438,117.323,70.905,116.8,71.293z M246.049,144.892c-0.918-0.041-1.787-0.062-2.653-0.124
	c-0.915-0.066-1.798-0.095-2.41,1.013c1.265,1.374,3.115,0.385,4.621,1.29c-0.308,0.131-0.611,0.369-0.921,0.378
	c-5.549,0.154-11.099,0.358-16.649,0.385c-3.353,0.014-6.708-0.228-10.06-0.41c-2.52-0.136-5.032-0.476-7.551-0.515
	c-2.46-0.039-4.928,0.324-7.387,0.273c-5.37-0.114-10.735-0.445-16.106-0.556c-3.513-0.071-7.031,0.09-10.547,0.143
	c-0.642,0.01-1.285,0.001-1.707,0.001c0-1.682,0.037-3.278-0.009-4.873c-0.066-2.286-0.228-4.568-0.282-6.853
	c-0.043-1.775,0.023-3.553,0.025-5.329c0.002-1.878-0.015-3.755-0.023-5.634c-0.013-2.551-0.017-5.102-0.043-7.652
	c-0.015-1.534-0.151-3.073-0.08-4.602c0.154-3.307,0.497-6.608,0.594-9.916c0.075-2.525-0.162-5.059-0.161-7.589
	c0.002-3.167,0.099-6.336,0.172-9.503c0.024-1.054,0.103-2.108,0.162-3.266c0.384-0.037,0.71-0.103,1.035-0.096
	c3.304,0.07,6.61,0.114,9.911,0.249c1.876,0.077,3.743,0.366,5.62,0.455c1.9,0.09,3.806,0.058,5.709,0.068
	c2.457,0.012,4.915,0.062,7.369,0.008c2.793-0.063,5.584-0.216,8.375-0.348c2.498-0.118,4.992-0.324,7.49-0.375
	c3.348-0.069,6.7,0.024,10.048-0.043c4.17-0.083,8.338-0.276,12.509-0.375c0.541-0.014,1.405-0.397,1.549,0.731
	c-1.496,0.38-3.178-0.412-4.538,1.002c1.18,1.82,3.021,0.433,4.513,1.108c0,0.575,0,1.269,0,2.139c-0.748,0-1.499-0.085-2.22,0.024
	c-0.664,0.101-1.297,0.409-2.169,0.702c1.336,1.832,3.089,0.691,4.498,1.281c0,0.548,0,1.143,0,1.753
	c-1.331,0.555-3.142-0.588-4.231,1.168c1.167,1.764,2.947,0.41,4.463,0.923c0,0.783,0,1.614,0,2.6
	c-0.706-0.036-1.45-0.158-2.175-0.084c-0.694,0.071-1.368,0.347-2.26,0.59c1.241,2.096,3.079,0.866,4.584,1.486
	c0.04,0.687,0.086,1.48,0.126,2.196c-1.485,0.831-3.465-0.547-4.638,1.377c1.433,1.36,3.095,0.468,4.671,0.885
	c0,0.776,0,1.59,0,2.403c-1.614,0.324-3.434-0.815-4.951,0.859c1.381,1.723,3.456,0.474,5.034,1.432c0,0.595,0,1.33-0.001,2.064
	c-1.604,0.706-3.639-0.666-5.167,1.067c1.435,1.745,3.499,0.358,5.21,1.317c-0.058,0.691-0.127,1.51-0.191,2.271
	c-1.666,0.72-3.694-0.547-5.012,1.302c1.461,1.423,3.23,0.434,4.85,0.833c0.05,0.84,0.098,1.671,0.142,2.402
	c-1.647,0.857-3.662-0.718-5.115,1.271c1.56,1.315,3.351,0.529,5.048,0.859c0,0.618,0,1.271,0,1.999
	c-1.855,0.236-3.945-0.218-5.49,1.421c0.768,1.223,1.743,0.726,2.657,0.625c0.914-0.101,1.837-0.147,2.88-0.227
	c0.077,0.75,0.148,1.441,0.237,2.31c-1.275,0-2.425-0.014-3.574,0.004c-1.133,0.018-1.597,0.364-1.775,1.39
	c1.665,1.065,3.608,0.005,5.388,0.57c0.055,0.664,0.111,1.336,0.169,2.039c-1.598,0.818-3.736-0.348-5.136,1.524
	c1.636,1.392,3.456,0.221,5.183,0.637c-0.039,0.676-0.079,1.374-0.115,2.004c-1.548,0.758-3.5-0.303-4.763,1.39
	c1.41,1.548,3.131,0.483,4.698,0.776c0.038,0.457,0.072,0.882,0.1,1.205c-1.344,1.201-3.501-0.538-4.54,1.579
	c1.434,1.617,3.178,0.45,4.842,0.484c0,0.735,0,1.396,0,2.067c-1.676,0.191-3.553-0.622-4.967,1.253
	c1.652,1.197,3.444,0.165,5.137,0.732C246.049,143.41,246.049,144.063,246.049,144.892z M257.419,70.418
	c-1.801,1.234-3.528,2.578-5.345,3.786c-2.074,1.378-4.191,2.697-6.339,3.956c-0.486,0.285-1.18,0.293-1.778,0.294
	c-2.875,0-5.75-0.051-8.625-0.072c-5.476-0.042-10.953-0.117-16.429-0.1c-2.533,0.008-5.064,0.223-7.598,0.297
	c-2.326,0.069-4.656,0.14-6.982,0.09c-3.828-0.083-7.653-0.278-11.481-0.394c-1.743-0.052-3.489,0.011-5.231-0.055
	c-1.399-0.053-2.792-0.241-4.19-0.333c-1.358-0.089-2.719-0.134-4.078-0.198c-0.027-0.083-0.055-0.165-0.082-0.248
	c1.229-0.724,2.49-1.401,3.682-2.183c1.745-1.146,3.418-2.4,5.162-3.548c2.171-1.43,4.366-2.824,6.59-4.17
	c0.404-0.244,0.99-0.222,1.496-0.259c2.695-0.198,5.39-0.457,8.09-0.536c2.429-0.072,4.865,0.038,7.297,0.108
	c4.452,0.128,8.904,0.406,13.355,0.402c5.074-0.005,10.146-0.293,15.219-0.379c6.309-0.107,12.617-0.136,18.926-0.193
	c1.214-0.011,2.427-0.003,3.71,0.194C260.998,68.057,259.188,69.207,257.419,70.418z"/>
<path fill-rule="evenodd" clip-rule="evenodd" fill="#fafd30" class="fill" d="M117.966,113.116c0.01-3.106,0.96-5.984,2.105-8.764
	c2.008-4.873,5.105-8.926,9.557-11.872c3.716-2.46,7.788-4.16,12.058-5.268c3.315-0.857,6.763-1.038,10.198-0.57
	c0.365,0.05,0.756,0.136,1.07,0.318c2.75,1.588,5.563,3.051,7.893,5.304c2.446,2.365,3.663,5.371,4.638,8.467
	c1.142,3.626,1.945,7.363,1.824,11.2c-0.063,2.008-0.243,4.04-0.654,6.002c-0.517,2.462-1.097,4.96-2.076,7.262
	c-0.885,2.083-2.21,4.03-4.368,5.159c-2.361,1.235-4.609,2.785-7.097,3.658c-2.551,0.894-5.316,1.238-8.016,1.634
	c-2.818,0.412-5.674,0.462-8.479-0.167c-3.475-0.776-7.016-1.525-9.903-3.731c-1.521-1.164-2.725-2.757-4.003-4.216
	c-2.566-2.928-3.82-6.414-4.224-10.247C118.341,115.892,118.142,114.505,117.966,113.116z"/>
</svg>
