<svg version="1.1" id="svg" xmlns="http://www.w3.org/2000/svg" xmlns:xlink="http://www.w3.org/1999/xlink" x="0px" y="0px"
	 width="200px" height="200px" viewBox="0 0 200 200" enable-background="new 0 0 200 200" xml:space="preserve">
<path fill-rule="evenodd" clip-rule="evenodd" fill="#010101" d="M132.824,154.767c-5.186,1.189-10.399,2.271-15.551,3.599
	c-6.074,1.565-12.2,2.691-18.48,2.753c-7.467,0.073-14.186-2.273-20.777-5.756c-7.759-4.102-14.141-9.877-20.634-15.532
	c-4.437-3.867-7.967-8.605-10.354-14.026c-1.067-2.42-1.643-5.072-2.292-7.658c-0.617-2.46-1.277-4.95-1.479-7.462
	c-0.226-2.809-0.094-5.667,0.127-8.482c0.389-4.946,1.661-9.716,3.327-14.38c1.41-3.95,3.522-7.492,6.252-10.675
	c0.885-1.033,1.755-2.084,2.56-3.18c3.64-4.964,8.122-8.961,13.457-12.042c2.703-1.562,5.312-3.289,7.954-4.954
	c4.166-2.623,8.801-3.975,13.575-4.841c11.162-2.024,22.457-2.231,33.608-0.635c12.259,1.754,22.538,7.396,29.728,18.011
	c3.327,4.911,5.879,10.066,7.326,15.799c1.12,4.435,2.413,8.831,3.418,13.292c1.518,6.739,0.232,13.3-1.481,19.84
	c-1.764,6.727-5.494,12.396-9.24,18.092c-4.51,6.861-11.136,11.383-17.613,16.062c-1.037,0.75-2.381,1.074-3.582,1.594
	C132.723,154.38,132.774,154.573,132.824,154.767z"/>
</svg>
