<svg version="1.1" id="svg" xmlns="http://www.w3.org/2000/svg" xmlns:xlink="http://www.w3.org/1999/xlink" x="0px" y="0px"
	 width="200px" height="200px" viewBox="0 0 200 200" enable-background="new 0 0 200 200" xml:space="preserve">
<path class="stroke" fill="#2a374b"  d="M178.003,142.794c-0.204-0.451-0.407-0.949-0.418-1.432c-0.047-1.9-0.042-3.805-0.012-5.707
	c0.062-3.993,0.268-7.988,0.202-11.979c-0.122-7.466-0.482-14.93-0.582-22.397c-0.106-7.905-0.027-15.814-0.021-23.721
	c0.002-2.535,0.048-5.07,0.036-7.605c-0.021-4.626-0.165-9.254-0.081-13.878c0.113-6.332,0.183-6.33-2.833-11.861
	c-0.54-0.989-1.072-1.981-1.556-2.878c-0.512-0.113-0.817-0.225-1.125-0.24c-3.927-0.184-7.854-0.382-11.781-0.521
	c-4.561-0.162-9.122-0.277-13.683-0.396c-2.403-0.062-4.808-0.141-7.21-0.117c-3.867,0.04-7.735,0.271-11.601,0.221
	c-6.842-0.088-13.683-0.474-20.523-0.468c-11.413,0.01-22.824,0.227-34.236,0.365c-5.823,0.072-11.648,0.247-17.471,0.224
	c-9.131-0.037-18.262-0.206-27.393-0.31c-1.952-0.022-3.906-0.003-5.658-0.003c-1.143,1.429-1.144,1.453-1.171,2.985
	c-0.047,2.598-0.088,5.197-0.163,7.794c-0.119,4.114-0.302,8.227-0.388,12.341c-0.123,5.822-0.198,11.644-0.258,17.466
	c-0.016,1.452,0.167,2.907,0.156,4.359c-0.024,3.357-0.193,6.715-0.153,10.071c0.077,6.526,0.31,13.052,0.379,19.578
	c0.061,5.771-0.014,11.544-0.023,17.317c-0.006,3.357-0.001,6.715-0.001,9.979c-1.486,1.815-2.895,3.523-4.288,5.243
	c-0.647,0.801-1.23,1.662-1.067,2.756c0.233,1.561,0.432,3.141,0.852,4.655c0.273,0.989,0.914,1.875,1.419,2.864
	c2.67,0,5.131,0,7.243,0c4.951,3.832,9.601,7.431,14.191,10.984c47.7,0.785,95.201,1.062,142.866,0.655
	c2.035-2.308,4.164-4.72,6.293-7.136c-0.454-1.1-0.733-2.012-1.184-2.829C183.774,153.748,180.558,148.447,178.003,142.794z"/>
<path fill-rule="evenodd" clip-rule="evenodd" fill="#eef9fc" class="fill" d="M170.228,44.029c0.966,32.966,0.074,65.759,0.137,98.805
	c-1.772-0.929-2.7-2.278-3.811-3.549c0-4.156-0.002-8.338,0-12.521c0.003-6.144-0.021-12.286,0.025-18.43
	c0.038-5.002,0.222-10.004,0.233-15.007c0.013-6.075-0.112-12.149-0.13-18.223c-0.012-3.793,0.083-7.587,0.087-11.38
	c0.001-1.394-0.136-2.785-0.18-4.18c-0.095-3.041-0.163-6.083-0.258-9.123c-0.02-0.623-0.114-1.243-0.197-2.096
	c-0.84-0.139-1.622-0.367-2.409-0.383c-7.608-0.166-15.217-0.296-22.826-0.433c-6.784-0.123-13.569-0.333-20.353-0.333
	c-8.112,0-16.224,0.206-24.336,0.278c-3.995,0.035-7.991-0.039-11.986-0.047c-10.323-0.021-20.645-0.052-30.968-0.044
	c-5.646,0.002-11.292,0.046-16.938,0.129c-2.957,0.043-5.911,0.212-9.045,0.331c-0.769,15.083-0.058,30.011-0.273,44.928
	c-0.216,14.892,0.239,29.793,0.4,44.64c-1.186,1.258-2.256,2.396-3.543,3.762c-0.141-0.632-0.269-0.957-0.278-1.285
	c-0.084-3.168-0.195-6.337-0.209-9.507c-0.034-7.416,0.015-14.835-0.037-22.251c-0.026-3.795-0.234-7.588-0.289-11.383
	c-0.056-3.865-0.027-7.731-0.033-11.597c-0.002-1.391-0.015-2.782-0.001-4.172c0.047-4.875,0.15-9.75,0.144-14.624
	c-0.006-5.006-0.164-10.011-0.163-15.017c0.001-2.7,0.197-5.401,0.312-8.29c1.165,0,2.158,0.001,3.151,0
	c5.449-0.005,10.897,0.035,16.347-0.028c7.292-0.085,14.583-0.317,21.875-0.363c7.548-0.049,15.094,0.057,22.643,0.082
	c6.915,0.024,13.83-0.007,20.745,0.06c4.755,0.045,9.509,0.274,14.264,0.316c6.725,0.059,13.452-0.056,20.176,0.049
	c6.147,0.096,12.291,0.401,18.438,0.583c2.281,0.068,4.566,0.034,6.848,0.082C168.592,43.824,169.392,43.95,170.228,44.029z"/>
<path fill-rule="evenodd" clip-rule="evenodd" fill="#eef9fc" class="fill" d="M164.689,141.956c2.753,2.115,4.642,5.082,7.285,7.59
	c-0.419,0.2-0.62,0.374-0.83,0.384c-9.367,0.439-18.73,1.029-28.117,0.642c-3.991-0.165-7.982-0.433-11.973-0.442
	c-7.663-0.02-15.332-0.052-22.987,0.226c-7.356,0.266-14.688-0.264-22.033-0.241c-3.804,0.012-7.608,0.066-11.411,0.034
	c-6.778-0.059-13.556-0.145-20.333-0.263c-4.053-0.07-8.104-0.224-12.157-0.334c-5.827-0.158-11.656-0.291-17.482-0.478
	c-1.486-0.049-2.967-0.256-4.789-0.421c2.945-2.906,5.636-5.562,8.267-8.156c3.254,0,6.334,0,9.181,0
	c0.469,1.375,0.781,2.572,1.28,3.685c0.61,1.36,1.749,1.931,3.257,1.757c4.024-0.462,8.048-0.914,12.075-1.354
	c1.063-0.117,2.134-0.177,3.231-0.266c1.034,1.909,2.792,2.078,4.594,2.25c5.711,0.548,11.39,0.253,17.059-0.52
	c2.253-0.307,4.54-0.437,6.762-0.886c1.958-0.395,2.311-1.04,2.437-3.049c0.035-0.552,0.133-1.1,0.21-1.71
	c0.479-0.097,0.837-0.229,1.197-0.236c5.133-0.084,10.267-0.221,15.4-0.204c5.697,0.02,11.394,0.221,17.091,0.266
	c1.885,0.016,3.771-0.207,5.761-0.327c0.148,0.784,0.323,1.446,0.392,2.118c0.172,1.69,1.088,2.935,2.598,3.459
	c3.393,1.179,6.743,2.542,10.403,2.796c1.634,0.113,3.254,0.474,4.874,0.759c3.877,0.683,7.675,0.301,11.469-0.654
	c3.02-0.76,4.744-2.986,6.421-5.312c0.183-0.255,0.295-0.56,0.465-0.825C164.342,142.15,164.474,142.104,164.689,141.956z"/>
<path fill-rule="evenodd" clip-rule="evenodd" fill="#eef9fc" class="fill" d="M171.354,151.865c-0.173,0.935-0.308,1.658-0.475,2.562
	c-1.901,0.101-3.715,0.256-5.531,0.283c-5.454,0.085-10.91,0.127-16.364,0.171c-9.945,0.082-19.891,0.119-29.835,0.244
	c-4.819,0.059-9.636,0.398-14.454,0.387c-7.35-0.017-14.7-0.179-22.049-0.37c-7.402-0.192-14.83-0.195-22.199-0.829
	c-8.23-0.707-16.467-0.68-24.7-0.999c-5.192-0.202-10.389-0.288-15.583-0.431c-0.624-0.018-1.247-0.069-2.021-0.114
	c-0.173-0.794-0.329-1.508-0.48-2.198c2.151,0,4.154-0.042,6.156,0.009c3.862,0.098,7.723,0.261,11.584,0.374
	c6.841,0.202,13.683,0.416,20.526,0.565c2.342,0.051,4.687-0.12,7.03-0.115c1.771,0.003,3.543,0.172,5.315,0.185
	c7.163,0.052,14.329,0.036,21.492,0.117c4.183,0.048,8.366,0.353,12.546,0.328c8.24-0.048,16.478-0.354,24.716-0.345
	c6.273,0.006,12.545,0.397,18.818,0.499c5.128,0.084,10.255,0.231,15.386-0.259c2.958-0.281,5.953-0.185,8.932-0.243
	C170.466,151.679,170.771,151.774,171.354,151.865z"/>
<path fill-rule="evenodd" clip-rule="evenodd" fill="#eef9fc" class="fill" d="M159.915,140.049c-0.03,0.659-0.053,1.164-0.078,1.744
	c-0.848,1.153-1.277,2.668-2.927,3.263c-1.567,0.563-3.119,0.919-4.794,1.038c-5.459,0.39-10.89,0.077-16.312-0.46
	c-1.37-0.137-2.721-0.562-4.052-0.952c-1.192-0.348-1.857-1.237-2.143-2.443c-0.656-2.772-0.584-5.564,0.107-8.282
	c0.539-2.118,2.141-3.545,4.277-3.873c2.556-0.395,5.168-0.425,7.758-0.588c4.857-0.304,9.402,1.154,13.886,2.694
	c2.228,0.764,4.208,2.121,4.456,4.811c-0.55,0.615-1.03,1.153-1.822,2.039C158.927,139.441,159.458,139.769,159.915,140.049z
	 M156.744,143.229c0.053-0.216,0.105-0.433,0.159-0.648c-0.392-0.165-0.8-0.479-1.171-0.44c-0.252,0.024-0.454,0.546-0.926,1.175
	C155.743,143.273,156.244,143.251,156.744,143.229z M137.833,138.823c0.397,0.869,0.846,1.125,1.787,0.562
	C139.148,138.783,138.965,138.003,137.833,138.823z M142.789,132.918c0.088,1.659,0.146,1.684,1.707,0.919
	C143.926,133.531,143.486,133.294,142.789,132.918z M141.4,131.577c-0.5-0.794-0.926-1.131-1.723-0.389
	c0.26,0.378,0.508,0.736,0.829,1.198C140.876,132.051,141.097,131.852,141.4,131.577z M144.603,131.683
	c0.906,0.146,1.41,0.226,1.914,0.307C146.284,130.651,145.766,130.536,144.603,131.683z M146.587,136.045
	c0.212-0.955,0.086-1.465-1.061-1.366C145.107,135.512,145.338,135.926,146.587,136.045z M146.773,139.158
	c0.237,0.917,0.731,0.996,1.396,0.835C148.01,138.702,148.01,138.702,146.773,139.158z M134.532,139.875
	c0.368-1.717,0.368-1.717-1.248-1.438C133.689,138.903,133.978,139.237,134.532,139.875z M140.322,144.232
	c-0.438-1.638-0.454-1.643-1.572-0.616C139.231,143.806,139.625,143.959,140.322,144.232z M136.14,131.131
	c0.341,0.868,0.798,1.019,1.603,0.498c-0.188-0.366-0.369-0.718-0.605-1.178C136.739,130.723,136.458,130.914,136.14,131.131z
	 M139.844,136.314c0.551,0.183,0.951,0.315,1.35,0.447c0.104-0.119,0.208-0.237,0.312-0.355c-0.238-0.37-0.477-0.738-0.836-1.296
	C140.307,135.638,140.141,135.881,139.844,136.314z M145.129,138.947c0.063-0.162,0.126-0.324,0.188-0.486
	c-0.387-0.227-0.775-0.453-1.331-0.778c-0.123,0.557-0.181,0.824-0.279,1.265C144.28,138.947,144.705,138.947,145.129,138.947z
	 M135.765,135.745c0.566,0.136,0.996,0.238,1.427,0.342c0.08-0.143,0.159-0.286,0.239-0.429c-0.296-0.347-0.592-0.694-1.031-1.21
	C136.13,134.998,136.006,135.254,135.765,135.745z M134.026,135.854c-0.295-0.805-0.438-1.195-0.644-1.757
	c-0.453,0.374-0.717,0.594-1.174,0.97C132.815,135.329,133.213,135.502,134.026,135.854z M143.661,140.315
	c-0.306,0.356-0.49,0.572-0.897,1.047c0.698,0.177,1.146,0.291,1.593,0.403c0.071-0.125,0.143-0.249,0.214-0.374
	C144.291,141.061,144.011,140.729,143.661,140.315z M130.614,140.116c-0.252,0.49-0.403,0.784-0.651,1.267
	c0.593,0.107,1.004,0.183,1.415,0.257c0.062-0.112,0.124-0.226,0.185-0.339C131.287,140.957,131.011,140.612,130.614,140.116z
	 M152.407,132.445c-0.261,0.558-0.397,0.849-0.661,1.41c0.72-0.134,1.142-0.213,1.866-0.348
	C153.109,133.064,152.861,132.846,152.407,132.445z M136.868,143.548c0.079-0.161,0.159-0.322,0.237-0.484
	c-0.341-0.291-0.683-0.584-1.279-1.093c-0.04,0.787-0.059,1.173-0.084,1.677C136.213,143.606,136.541,143.577,136.868,143.548z
	 M153.546,134.521c-0.299,0.632-0.459,0.97-0.752,1.589c0.716-0.161,1.135-0.253,1.778-0.398
	C154.195,135.272,153.987,135.032,153.546,134.521z M130.452,135.552c0.099,1.518,0.099,1.518,1.534,0.791
	C131.418,136.049,131.004,135.837,130.452,135.552z M158.394,137.013c0.039-0.109,0.078-0.22,0.116-0.33
	c-0.33-0.272-0.661-0.545-1.09-0.897c-0.261,0.448-0.426,0.731-0.714,1.228C157.439,137.013,157.917,137.013,158.394,137.013z
	 M153.876,142.405c-0.72-0.341-1.1-0.52-1.652-0.782c0,0.631,0,1.016,0,1.685C152.812,142.986,153.181,142.785,153.876,142.405z
	 M153.103,138.854c0.033-0.153,0.064-0.309,0.096-0.464c-0.361-0.193-0.722-0.388-1.298-0.698c-0.031,0.614-0.047,0.936-0.072,1.427
	C152.364,139.008,152.733,138.932,153.103,138.854z M131.839,143.989c0.78,0,1.233,0,1.685,0
	C133.132,143.188,132.745,142.531,131.839,143.989z M132.327,133.139c0.728,0.093,1.125,0.145,1.522,0.195
	c0.038-0.177,0.076-0.354,0.113-0.531C133.591,132.534,133.368,131.698,132.327,133.139z M146.773,143.61
	c-0.348,0.662-0.5,0.955-0.743,1.416c0.6,0.072,0.994,0.119,1.658,0.2C147.368,144.66,147.177,144.323,146.773,143.61z
	 M151.884,145.27c0.098-0.167,0.197-0.334,0.296-0.5c-0.179-0.689-0.611-0.807-1.689-0.328
	C151.136,144.825,151.51,145.049,151.884,145.27z M156.345,140.667c0.708,0,1.145,0,1.583,0c0.098-0.168,0.195-0.335,0.293-0.502
	c-0.274-0.261-0.548-0.522-0.964-0.918C156.862,139.861,156.687,140.135,156.345,140.667z M149.289,137.979
	c0.658-0.092,1.097-0.152,1.534-0.213c0.003-0.132,0.007-0.263,0.01-0.395c-0.365-0.155-0.731-0.31-1.162-0.49
	C149.55,137.227,149.473,137.447,149.289,137.979z M147.354,142.621c-0.027-1.297-0.426-1.57-1.341-0.511
	C146.556,142.316,146.955,142.47,147.354,142.621z M139.56,140.445c-0.19,0.705-0.274,1.015-0.413,1.531
	c0.55-0.088,0.905-0.146,1.472-0.238C140.254,141.293,140.043,141.035,139.56,140.445z M155.738,138.953
	c-0.535-0.986-0.933-1.078-1.412-0.63c-0.07,0.064-0.062,0.212-0.137,0.508C154.629,138.865,155.035,138.897,155.738,138.953z
	 M141.901,143.488c0.584,0.604,1.01,0.854,1.499,0.142C143.011,142.9,142.606,142.774,141.901,143.488z M148.429,133.6
	c0.614,0.289,1.072,0.418,1.356-0.4c-0.305-0.18-0.544-0.319-0.858-0.503C148.732,133.048,148.593,133.302,148.429,133.6z
	 M139.208,134.219c-0.136-0.918-0.316-1.34-1.062-0.936c-0.082,0.045-0.099,0.207-0.242,0.536
	C138.294,133.938,138.657,134.05,139.208,134.219z M155.281,134.97c0.655-0.034,0.998-0.052,1.65-0.086
	c-0.459-0.485-0.713-0.755-1.088-1.152C155.643,134.174,155.523,134.438,155.281,134.97z M149.311,142.182
	c0.312,1.069,0.725,0.945,1.465,0.253C150.1,142.317,149.706,142.249,149.311,142.182z"/>
<path fill-rule="evenodd" clip-rule="evenodd" fill="#eef9fc" class="fill" d="M39.104,142.62c0.292-0.779,0.35-1.582,0.779-1.95
	c1.239-1.061,2.529-2.13,4.271-2.312c2.769-0.29,5.539-0.579,8.304-0.894c3.71-0.422,7.419-0.866,11.128-1.302
	c2.43-0.285,2.815-0.124,4.277,1.926c-0.119,0.581-0.266,1.299-0.444,2.17c-2.411,0.296-4.722,0.627-7.042,0.853
	c-4.594,0.449-9.195,0.822-13.789,1.27c-0.875,0.086-1.733,0.372-2.598,0.565C42.483,143.285,40.996,143.26,39.104,142.62z"/>
<path fill-rule="evenodd" clip-rule="evenodd" fill="#eef9fc" class="fill" d="M81.05,74.797c-2.161,0.229-4.323,0.458-6.666,0.706
	c-0.184-0.676-0.357-1.311-0.604-2.217c3.225-0.657,6.286-1.115,9.557-1.232c0.562,1.356,1.059,2.555,1.566,3.777
	c-0.832,1.137-1.571,2.145-2.459,3.358c0.314,0.252,0.631,0.602,1.022,0.807c2.056,1.082,2.549,2.275,1.812,4.522
	c-0.88,2.685-2.083,3.588-4.858,3.602c-1.138,0.005-2.277-0.034-3.413-0.079c-0.168-0.006-0.331-0.156-0.693-0.34
	c0.142-0.601,0.29-1.226,0.448-1.896c1.688,0.303,3.125,1.751,4.667,0.609c0.742-0.549,1.128-1.578,1.564-2.225
	c-0.988-2.597-1.504-2.872-4.584-2.669c-0.553-1.022-0.28-1.843,0.464-2.717c0.917-1.077,1.682-2.285,2.513-3.435
	C81.274,75.178,81.163,74.988,81.05,74.797z"/>
<path fill-rule="evenodd" clip-rule="evenodd" fill="#eef9fc" class="fill" d="M52.072,94.685c-1.079-1.844-1.267-3.344-0.266-5.155
	c1.273-2.303,2.561-4.663,2.932-7.677c-0.418-0.397-0.97-0.92-1.399-1.327c-2.438,0.37-2.357,2.792-3.898,3.846
	c-0.396-0.175-0.832-0.367-1.234-0.544c-0.038-0.298-0.115-0.492-0.078-0.663c0.603-2.841,2.324-4.485,4.787-4.593
	c2.208-0.096,4.018,1.493,3.884,3.689c-0.086,1.423-0.542,2.839-0.961,4.219c-0.311,1.018-0.831,1.972-1.295,3.04
	c0.282,0.403,0.556,0.793,0.901,1.288c2.175-0.853,4.272-1.674,6.598-2.584c0.301,0.741,0.537,1.323,0.846,2.08
	C59.306,92.046,55.825,93.468,52.072,94.685z"/>
<path fill-rule="evenodd" clip-rule="evenodd" fill="#eef9fc" class="fill" d="M70.223,141.788c0.372-1.158,0.713-2.223,1.029-3.208
	c3.141-0.486,9.771,0.504,12.407,1.87c-0.087,0.624-0.184,1.325-0.286,2.061c-7.163,1.775-14.249,1.43-21.351,1.009
	C64.562,142.271,67.457,142.724,70.223,141.788z"/>
<path fill-rule="evenodd" clip-rule="evenodd" fill="#eef9fc" class="fill" d="M65.637,75.761c0.514,1.062,0.919,1.898,1.388,2.869
	c0.974-0.338,1.89-0.657,3.019-1.049c0.265,0.768,0.498,1.442,0.782,2.268c-0.719,0.363-1.318,0.665-1.941,0.979
	c-0.962,1.367,0.532,2.618,0.233,4.184c-0.74,0.062-1.509,0.129-2.342,0.201c-0.341-1.033-0.631-1.911-1.001-3.035
	c-1.204,0.383-2.307,0.733-3.605,1.146c-0.24-0.582-0.462-1.123-0.751-1.827c1.199-0.657,2.28-1.25,3.503-1.92
	c-0.396-0.94-0.778-1.843-1.237-2.933C64.293,76.368,64.833,76.125,65.637,75.761z"/>
<path fill-rule="evenodd" clip-rule="evenodd" fill="#eef9fc" class="fill" d="M98.527,82.575c-2.573,0.117-4.804,0.219-7.192,0.328
	c0-0.862,0-1.5,0-2.252c2.286-0.443,4.451-0.277,6.818-0.003C98.25,81.148,98.348,81.655,98.527,82.575z"/>
<path fill-rule="evenodd" clip-rule="evenodd" fill="#eef9fc" class="fill" d="M91.114,78.118c-0.101-0.68-0.178-1.198-0.281-1.893
	c2.317-0.331,4.465-0.638,6.806-0.973c0.057,0.863,0.096,1.454,0.147,2.248C95.54,77.923,93.409,78.062,91.114,78.118z"/>
</svg>
