<svg version="1.1" id="svg" xmlns="http://www.w3.org/2000/svg" xmlns:xlink="http://www.w3.org/1999/xlink" x="0px" y="0px"
	 width="200px" height="200px" viewBox="0 0 200 200" enable-background="new 0 0 200 200" xml:space="preserve">
<path class="stroke" fill="#064146"  fill-rule="evenodd" clip-rule="evenodd" d="M101.836,60.118c1.029-1.368,2.396-2.002,3.622-2.838
	c0.151-0.015,0.316-0.031,0.507-0.05c0.098-0.146,0.198-0.296,0.316-0.473c0.929-0.391,1.871-0.823,2.838-1.183
	c0.768-0.285,1.564-0.497,2.354-0.713c1.15-0.315,2.292-0.748,3.462-0.869c1.569-0.163,3.164-0.069,4.747-0.098
	c1.906-0.034,3.713,0.505,5.518,0.999c1.447,0.396,2.922,0.787,4.271,1.422c1.454,0.685,2.917,1.427,4.085,2.604
	c0.349,0.351,0.797,0.602,1.183,0.921c0.322,0.266,0.652,0.534,0.915,0.854c0.454,0.554,0.87,1.142,1.277,1.732
	c0.12,0.171,0.155,0.4,0.191,0.498c0.215,0.316,0.427,0.526,0.52,0.781c0.497,1.359,1.035,2.708,1.416,4.1
	c0.226,0.823,0.198,1.716,0.261,2.58c0.041,0.548,0.032,1.101,0.068,1.65c0.008,0.119,0.082,0.294,0.176,0.339
	c0.494,0.231,0.995,0.458,1.51,0.633c1.062,0.362,2.149,0.649,3.197,1.043c1.217,0.457,2.388,1.035,3.605,1.486
	c1.107,0.41,2.256,0.705,3.376,1.084c0.275,0.092,0.506,0.314,0.8,0.505c-0.034,0.382-0.067,0.759-0.104,1.182
	c-0.532,0.169-1.064,0.287-1.553,0.505c-0.632,0.284-1.228,0.648-1.841,0.976c-0.424,0.228-0.854,0.442-1.274,0.677
	c-0.935,0.525-1.865,1.059-2.853,1.485c-0.886,0.503-1.762,1.024-2.658,1.506c-0.896,0.482-1.813,0.926-2.721,1.386
	c-0.037-0.039-0.075-0.078-0.112-0.117c-0.063,0.304-0.113,0.612-0.19,0.912c-0.246,0.951-0.554,1.89-0.739,2.853
	c-0.224,1.167-0.323,2.357-0.517,3.53c-0.227,1.369-0.457,2.74-0.76,4.093c-0.423,1.892-0.865,3.783-1.393,5.646
	c-0.442,1.561-0.975,3.099-1.549,4.616c-0.487,1.292-1.078,2.546-1.65,3.803c-0.157,0.343-0.434,0.629-0.625,0.96
	c-0.552,0.958-1.035,1.96-1.643,2.881c-1.04,1.571-2.077,3.142-3.552,4.381c-0.752,0.63-1.315,1.478-2.02,2.17
	c-1.003,0.988-2.006,1.986-3.104,2.86c-1.202,0.959-2.464,1.848-3.915,2.438c-0.597,0.243-1.091,0.723-1.666,1.029
	c-0.849,0.452-1.718,0.871-2.602,1.25c-0.592,0.254-1.224,0.414-1.914,0.641c0.165,1.273,0.372,2.581,0.493,3.896
	c0.124,1.349,0.164,2.706,0.237,4.021c0.704,0.572,1.328,1.163,2.032,1.633c1.138,0.762,1.82,1.813,2.074,3.117
	c0.148,0.76,0.137,1.558,0.143,2.339c0.002,0.214-0.192,0.429-0.313,0.679c-0.212-0.064-0.408-0.066-0.51-0.164
	c-1.128-1.078-2.45-1.833-4.006-2.436c-0.775,1.417-1.56,2.854-2.337,4.278c-0.284,0-0.496,0-0.633,0
	c-1.118-1.384-1.013-3.038-1.287-4.629c-0.65,0.535-1.36,1.084-2.03,1.681c-0.676,0.602-1.311,1.249-2.118,2.024
	c-1.286-0.222-2.804-0.412-4.06-1.631c-0.692,1.528-1.84,2.572-2.978,3.437c-0.454,0.03-0.773,0.078-1.091,0.067
	c-0.63-0.022-0.86-0.574-1.09-1c-0.222-0.408-0.254-0.921-0.348-1.394c-0.035-0.174-0.006-0.362-0.006-0.627
	c-0.229,0.069-0.389,0.098-0.53,0.167c-0.97,0.468-1.934,0.947-2.902,1.417c-0.896,0.435-1.608-0.014-1.629-0.996
	c-0.017-0.789,0.11-1.531,0.555-2.198c0.036-0.054,0.056-0.122,0.073-0.187c0.298-1.154,0.802-2.197,1.645-3.061
	c0.091-0.093,0.145-0.225,0.218-0.343c1.008-0.278,1.314-0.807,1.306-1.889c-0.013-1.42-0.042-2.839-0.042-4.259
	c0-0.474,0.07-0.949,0.115-1.502c-4.321-0.373-8.297-1.595-12.152-3.611c-0.755,0.972-1.493,1.925-2.232,2.878
	c0.015,0.005,0.03,0.011,0.046,0.016c-0.506,0.751-0.952,1.554-1.535,2.239c-0.731,0.86-1.516,1.699-2.39,2.409
	c-0.831,0.674-1.769,1.241-2.726,1.724c-1.217,0.614-2.466,1.209-3.763,1.608c-1.63,0.501-3.315,0.599-5.044,0.342
	c-1.448-0.214-2.673-0.885-3.942-1.49c-1.375-0.653-2.571-1.587-3.657-2.64c-0.563-0.545-1.126-1.15-1.256-2.075
	c2.539-2.039,5.283-3.81,7.7-6.041c-2.809,0.662-5.581,0.237-8.413,0.011c-0.685,0.314-1.353-0.062-2.009-0.298
	c-1.318-0.473-2.499-1.214-3.539-2.151c-0.365-0.329-0.671-0.748-0.92-1.173c-0.431-0.74-0.799-1.516-1.186-2.281
	c-0.144-0.283-0.264-0.578-0.459-1.012c0.366-0.227,0.732-0.648,1.089-0.642c1.138,0.023,2.093-0.482,3.102-0.847
	c1.238-0.447,2.476-0.89,3.713-1.337c0.105-0.037,0.202-0.097,0.327-0.158c-0.057-0.081-0.085-0.168-0.132-0.178
	c-1.196-0.28-2.405-0.512-3.587-0.843c-0.546-0.153-1.046-0.482-1.556-0.754c-1.163-0.618-2.102-1.494-2.826-2.586
	c-0.244-0.369-0.424-0.794-0.563-1.218c-0.396-1.2-1.078-2.333-1.031-3.642c0.04-1.134-0.141-2.281,0.229-3.407
	c0.298-0.906,0.722-1.153,1.706-0.922c0.499,0.118,1.03,0.092,1.543,0.155c1.646,0.202,3.292,0.424,4.939,0.617
	c0.979,0.116,1.963,0.2,2.945,0.28c0.348,0.028,0.698,0.005,1.158,0.005c-1.573-1.84-2.954-3.717-3.404-5.949
	c0.118-0.501,0.195-0.87,0.294-1.231c0.104-0.379,0.302-0.671,0.738-0.725c0.096-0.012,0.2-0.049,0.278-0.104
	c0.922-0.65,2.011-0.807,3.073-1.05c1.331-0.304,2.657-0.631,3.984-0.949c1.787-0.428,3.574-0.85,5.356-1.291
	c0.435-0.107,0.849-0.299,1.283-0.417c0.591-0.162,1.199-0.269,1.788-0.438c0.605-0.173,1.191-0.417,1.797-0.585
	c1.801-0.503,3.609-0.979,5.41-1.478c1.326-0.367,2.653-0.735,3.968-1.14c1.194-0.368,2.378-0.772,3.558-1.185
	c0.873-0.305,1.727-0.663,2.598-0.971c1.055-0.372,2.125-0.699,3.179-1.075c0.322-0.116,0.608-0.331,0.786-0.431
	c0.062-0.933,0.092-1.736,0.176-2.535c0.082-0.792,0.206-1.58,0.337-2.364c0.072-0.431,0.206-0.851,0.296-1.278
	c0.159-0.752,0.247-1.525,0.471-2.257c0.331-1.081,0.709-2.153,1.151-3.192c0.48-1.131,1.036-2.232,1.598-3.326
	c0.248-0.479,0.593-0.909,0.956-1.454c0.002-0.986,3.415-6.049,4.395-6.555C100.461,61.312,101.004,60.462,101.836,60.118z
	 M101.721,139.945c0.155-0.222,0.297-0.492,0.503-0.701c0.542-0.554,1.103-1.088,1.67-1.616c0.321-0.297,0.861-0.461,0.759-1.024
	c-0.148-0.813-0.11-1.607,0.02-2.414c0.068-0.426,0.101-0.871,0.052-1.297c-0.104-0.908-0.271-1.808-0.433-2.837
	c-1.573,0.261-3.014,0.922-4.562,0.669c-0.062-0.01-0.147,0.116-0.127,0.099c-0.134,1.282-0.258,2.458-0.38,3.636
	c0.032-0.001,0.063-0.001,0.095-0.001c0,1.199,0,2.398,0,3.51C100.149,138.654,100.902,139.272,101.721,139.945z"/>
<path fill-rule="evenodd" clip-rule="evenodd" fill="#8dece4" class="fill" d="M72.593,118.682c-0.221-0.081-0.466-0.17-0.725-0.263
	c-0.542,0.881-1.255,1.429-2.122,1.808c-1.636,0.713-3.267,1.443-5.009,1.864c-1.804,0.437-3.603,0.9-5.422,1.253
	c-0.633,0.124-1.325-0.035-1.988-0.083c-1.322-0.099-2.654-0.135-3.96-0.34c-1.075-0.167-2.163-0.418-3.097-1.168
	c2.225-0.275,4.459-0.554,6.511-1.435c2.03-0.871,4.048-1.812,5.891-3.065c0.667-0.453,1.336-0.907,2.004-1.36
	c0.055-0.036,0.106-0.093,0.166-0.106c1.181-0.271,1.979-1.177,2.64-2.012c0.707-0.893,1.449-0.682,2.259-0.672
	c0.297,0.257,0.583,0.505,0.985,0.853c-0.504,0.451-0.888,0.866-1.339,1.179c-0.988,0.682-2.008,1.318-3.021,1.962
	c-0.828,0.526-1.627,1.117-2.506,1.539c-1.57,0.755-3.183,1.423-4.793,2.091c-0.77,0.319-1.572,0.562-2.365,0.823
	c-0.502,0.165-1.015,0.292-1.517,0.453c-0.113,0.037-0.204,0.147-0.321,0.236c0.082,0.207,0.146,0.374,0.226,0.576
	c0.512-0.112,1.009-0.224,1.508-0.328c0.95-0.198,1.914-0.341,2.847-0.602c0.893-0.25,1.756-0.609,2.627-0.936
	c1.003-0.378,2.013-0.742,2.993-1.172c0.866-0.378,1.716-0.803,2.535-1.274c0.863-0.497,1.706-1.04,2.509-1.63
	c0.752-0.551,1.44-1.191,2.197-1.826c0.92,0.458,1.894,0.941,2.762,1.374c-0.458,1.444-0.891,2.845-1.354,4.236
	c-0.104,0.312-0.283,0.613-0.481,0.879c-0.98,1.315-1.906,2.681-2.992,3.904c-0.878,0.989-1.875,1.887-2.988,2.644
	c-1.285,0.876-2.525,1.816-3.793,2.718c-0.31,0.22-0.65,0.396-0.967,0.585c0.106,0.284,0.158,0.423,0.259,0.697
	c0.463-0.083,0.961-0.103,1.405-0.271c0.536-0.202,1.02-0.538,1.535-0.799c0.558-0.284,1.104-0.61,1.693-0.81
	c1.269-0.43,2.198-1.333,3.16-2.18c1.43-1.264,2.605-2.762,3.576-4.395c0.641-1.077,1.206-2.226,1.615-3.409
	c0.363-1.048,0.464-2.189,0.696-3.369c0.279,0.02,0.573,0.023,0.862,0.065c1.577,0.229,3.123,0.731,4.74,0.607
	c1.697-0.13,3.391-0.307,5.087-0.462c0.066-0.006,0.132-0.01,0.119,0.112c0.993,0.703,1.978,1.417,2.982,2.1
	c0.257,0.173,0.571,0.323,0.873,0.361c1.544,0.192,3.041,0.053,4.396-0.806c0.586-0.372,1.039-0.92,0.523-1.435
	c-0.152,0.012-0.367-0.019-0.54,0.052c-1.505,0.622-3.029,0.453-4.532,0.06c-0.464-0.121-0.861-0.501-1.288-0.764
	c0.025-0.055,0.049-0.111,0.074-0.167c1.441-0.468,2.884-0.938,4.371-1.421c1.158,0.897,2.532,1.399,4.001,1.643
	c0.278,0.046,0.585-0.075,0.879-0.118c1.457-0.212,2.785-0.763,3.936-1.663c0.445-0.346,0.731-0.89,0.32-1.616
	c-0.15,0.038-0.423,0.02-0.539,0.146c-0.748,0.814-1.752,0.993-2.757,1.181c-0.752,0.14-1.504,0.36-2.261,0.379
	c-0.662,0.018-1.332-0.193-2.141-0.326c0.213-0.234,0.281-0.354,0.384-0.411c1.226-0.679,2.436-1.392,3.693-2.009
	c1.674-0.821,3.107-1.982,4.502-3.172c1.539-1.314,3.018-2.716,4.4-4.195c1.398-1.497,2.564-3.192,3.499-5.027
	c0.85-1.67,1.731-3.333,2.196-5.164c0.255-1.005,0.447-2.026,0.666-3.029c3.019-0.775,4.179-2.396,5.4-5.384
	c-0.247-0.14-0.501-0.372-0.781-0.407c-0.146-0.018-0.339,0.308-0.502,0.487c-0.433,0.478-0.806,1.032-1.304,1.425
	c-0.743,0.584-1.52,1.167-2.631,1.276c-0.205-2.12-0.62-4.185-2.023-5.877c0.061-0.14,0.099-0.228,0.138-0.317
	c0.04-0.09,0.083-0.18,0.109-0.24c0.189-0.107,0.348-0.197,0.455-0.258c0.246-0.7,0.494-1.339,0.694-1.993
	c0.223-0.726-0.088-1.39-0.741-1.608c-0.165-0.055-0.364-0.009-0.573-0.009c-0.019,1.325-0.512,2.341-1.351,3.077
	c-0.884-0.248-1.673-0.468-2.505-0.702c-0.219-0.761,0.221-1.455,0.504-2.191c0.092-0.239,0.147-0.618,0.022-0.774
	c-0.126-0.159-0.521-0.215-0.757-0.156c-0.94,0.239-1.857,1.499-1.917,2.548c-0.013,0.217-0.02,0.436-0.037,0.805
	c-1.782,0.164-3.577,0.329-5.371,0.494c-0.036-0.05-0.071-0.102-0.106-0.152c0.683-1.204,1.348-2.497,2.473-3.295
	c1.126-0.799,2.105-1.914,3.584-2.055c-0.046-0.416-0.08-0.709-0.123-1.099c-0.746-0.079-1.532-0.299-2.278-0.209
	c-1.196,0.145-2.124,0.94-2.908,1.787c-0.863,0.932-1.582,2.014-1.917,3.262c-0.173,0.643-0.138,1.343-0.202,2.083
	c-1.758,0.493-3.633,1.021-5.566,1.564c0-0.369-0.036-0.602,0.006-0.821c0.163-0.847,0.347-1.69,0.528-2.534
	c0.131-0.612,0.219-1.239,0.417-1.828c0.295-0.878,0.744-1.708,0.996-2.596c0.363-1.284,0.791-2.528,1.373-3.73
	c0.29-0.597,0.382-1.289,0.666-1.889c0.212-0.451,0.6-0.814,0.889-1.232c0.151-0.221,0.256-0.473,0.349-0.721
	c0.213-0.274,0.425-0.548,0.637-0.822c-0.026-0.021-0.051-0.041-0.077-0.062c0.971-1.197,1.941-2.395,2.73-3.369
	c1.227-1.058,2.244-1.936,3.11-2.683c1.294-0.76,2.404-1.488,3.581-2.081c1.183-0.598,2.433-1.063,3.906-1.695
	c0.441-0.088,1.154-0.307,1.878-0.359c0.917-0.064,1.848-0.048,2.764,0.032c1.283,0.113,2.569,0.259,3.832,0.499
	c1.224,0.232,2.445,0.532,3.625,0.93c1.202,0.405,2.356,0.956,3.521,1.466c0.245,0.107,0.445,0.316,0.629,0.511
	c0.315,0.303,0.583,0.749,0.958,0.875c0.587,0.198,0.774,0.736,1.163,1.085c0.575,0.519,1.021,1.188,1.481,1.823
	c0.21,0.29,0.31,0.658,0.482,0.978c0.531,0.988,0.938,2.02,1.173,3.121c0.3,1.396,0.653,2.783,0.917,4.186
	c0.124,0.666,0.091,1.36,0.135,2.139c-0.847,0.232-1.668,0.453-2.486,0.681c-0.675,0.188-1.358,0.354-2.012,0.596
	c-0.254,0.094-0.439,0.373-0.751,0.654c0.471,0.375,0.835,0.626,1.153,0.926c0.54,0.51,1.046,1.057,1.578,1.575
	c0.356,0.346,0.772,0.637,1.093,1.011c0.396,0.463,0.719,0.987,1.015,1.402c-0.186,1.31-0.331,2.482-0.526,3.646
	c-0.109,0.654-0.322,1.289-0.446,1.94c-0.15,0.781-0.255,1.57-0.38,2.355c-0.126,0.788-0.262,1.574-0.38,2.363
	c-0.11,0.734-0.204,1.471-0.302,2.205c-0.018,0.132,0,0.275-0.044,0.396c-0.197,0.565-0.401,1.127-0.619,1.683
	c-0.392,0.999-0.823,1.984-1.187,2.994c-0.299,0.828-0.481,1.7-0.792,2.523c-0.472,1.257-1.003,2.493-1.523,3.73
	c-0.284,0.676-0.603,1.336-0.889,2.01c-0.059,0.141-0.039,0.314-0.043,0.355c-0.335,0.628-0.604,1.184-0.918,1.712
	c-0.498,0.834-1.02,1.653-1.542,2.473c-0.411,0.646-0.783,1.327-1.268,1.913c-0.989,1.2-1.802,2.548-3.025,3.557
	c-0.604,0.5-1.085,1.157-1.714,1.615c-0.84,0.612-1.778,1.09-2.663,1.645c-0.832,0.518-1.668,1.035-2.469,1.598
	c-0.74,0.521-1.542,0.846-2.424,1.01c-0.225,0.041-0.435,0.165-0.651,0.251c-0.554,0.222-1.107,0.444-1.661,0.666
	c-0.028-0.062-0.058-0.124-0.086-0.185c0.096-0.076,0.188-0.159,0.29-0.227c1.489-0.998,2.849-2.129,3.839-3.652
	c0.278-0.427,0.438-0.869,0.188-1.429c-0.094-0.059-0.233-0.146-0.456-0.286c-0.152,0.222-0.293,0.427-0.434,0.63
	c-1.172,1.255-2.561,2.232-4.171,2.858c-0.994,0.386-2.008,0.729-3.028,1.032c-0.334,0.099-0.724,0.015-1.237,0.015
	c-0.028,0.181-0.17,0.481-0.079,0.674c0.083,0.173,0.413,0.239,0.643,0.332c0.327,0.13,0.66,0.247,0.993,0.359
	c0.355,0.12,0.715,0.229,1.066,0.34c-0.886,0.718-6.851,1.771-8.044,1.16c0.538-0.442,1.047-0.893,1.59-1.298
	c0.89-0.664,1.181-1.584,1.14-2.629c-0.01-0.26-0.21-0.514-0.436-0.808c-1.089,1.724-2.761,2.614-4.429,3.497
	c-1.72,0.91-3.497,1.57-5.427,0.856c-0.169,0.198-0.264,0.31-0.409,0.479c-1.045-0.113-2.124-0.183-3.187-0.355
	c-1.067-0.174-2.114-0.458-3.173-0.674c-1.272-0.261-2.516-0.617-3.686-1.176c-0.318-0.152-0.537-0.513-0.813-0.789
	c-0.109,0.038-0.266,0.148-0.409,0.134c-1.081-0.11-1.678,0.578-2.249,1.322c-0.26,0.339-0.532,0.669-0.77,1.039
	c-1.586,1.724-2.839,3.781-5.115,4.824c0.358-0.447,0.724-0.887,1.073-1.34c0.618-0.799,1.248-1.59,1.831-2.414
	c0.503-0.71,1.025-1.426,1.402-2.206c0.511-1.06,0.892-2.182,1.328-3.277c0.059-0.15,0.112-0.302,0.188-0.506
	c-0.145-0.176-0.309-0.377-0.522-0.633c-0.151,0.209-0.286,0.339-0.352,0.498c-0.353,0.849-0.587,1.766-1.055,2.544
	c-0.613,1.021-1.366,1.967-2.13,2.886c-0.683,0.822-1.42,1.61-2.209,2.33c-0.977,0.89-1.993,1.748-3.063,2.52
	c-1.167,0.84-2.455,1.515-3.621,2.357c-1.479,1.069-2.961,0.774-4.478,0.202c-0.515-0.194-1.02-0.414-1.517-0.652
	c-0.205-0.097-0.374-0.269-0.661-0.482c0.761-0.518,1.458-0.969,2.129-1.458c0.384-0.28,0.711-0.635,1.087-0.927
	c1.165-0.908,2.35-1.791,3.505-2.711c0.31-0.247,0.542-0.593,0.843-0.932C67.577,125.911,72.469,119.971,72.593,118.682z
	 M111.385,67.552c-0.029,0.188-0.047,0.377-0.09,0.56c-0.362,1.539-0.483,3.053,0.625,4.365c1.067,1.263,2.397,2.071,4.062,2.362
	c0.852,0.147,1.614-0.091,2.417-0.217c1.59-0.25,2.849-1.105,3.858-2.256c1.263-1.441,1.45-3.216,1.154-5.063
	c-0.207-1.288-1.201-1.998-2.108-2.689c-1.019-0.778-2.208-1.259-3.53-1.423c-1.697-0.212-3.117,0.381-4.415,1.342
	C112.359,65.271,111.922,66.439,111.385,67.552z M127.671,71.483c-0.034-0.062-0.067-0.125-0.102-0.187
	c0.057-0.181,0.064-0.409,0.181-0.535c0.373-0.403,0.381-0.885,0.336-1.367c-0.099-1.088-0.119-2.174-0.492-3.238
	c-0.566-1.615-1.341-2.305-3.031-2.263c-0.36,0.009-0.611,0.14-0.779,0.547c-0.251,0.606,0.181,0.97,0.332,1.437
	c0.27,0.832,0.608,1.652,0.773,2.505c0.197,1.013-0.064,2.011-0.444,2.96c-0.14,0.351-0.063,0.532,0.285,0.646
	c0.155,0.051,0.29,0.161,0.44,0.23c0.41,0.191,0.836,0.349,1.266,0.09C126.859,72.052,127.261,71.759,127.671,71.483z
	 M126.886,82.32c0.458,0.856,0.803,1.5,1.147,2.143c-0.038,0.254-0.087,0.583,0.05,0.709c0.777,0.721,1.333,1.524,1.597,2.59
	c0.343,1.388,0.379,2.726-0.088,4.078c-0.067,0.194-0.062,0.411-0.096,0.653c0.377,0,0.639,0,0.827,0
	c1.217-0.875,1.882-2.061,2.104-3.395c0.168-1.012,0.01-2.086-0.066-3.128c-0.017-0.246-0.27-0.483-0.437-0.708
	c-0.651-0.875-1.56-1.45-2.452-2.028c-0.556-0.359-1.171-0.636-1.78-0.901C127.5,82.249,127.241,82.32,126.886,82.32z
	 M111.062,64.829c-0.051-0.139-0.134-0.276-0.148-0.419c-0.058-0.607-0.449-0.781-0.954-0.663c-0.446,0.105-0.87,0.318-1.292,0.505
	c-0.164,0.073-0.286,0.26-0.451,0.307c-0.705,0.194-1.135,0.763-1.373,1.324c-0.556,1.312-1.089,2.676-0.719,4.157
	c0.159,0.637,0.175,1.347,0.723,1.835c0.606,0.541,1.339,0.696,2.069,0.702c0.709-0.657,0.733-1.355,0.378-2.166
	c-0.208-0.476-0.37-1.024-0.356-1.533c0.017-0.592,0.249-1.176,0.419-1.895C109.848,66.361,110.436,65.619,111.062,64.829z
	 M117.973,98.227c1.024-0.631,1.705-4.626,0.892-6.513c-0.159-0.032-0.345-0.07-0.578-0.117c-0.121,0.52-0.304,0.985-0.32,1.457
	c-0.048,1.337-0.735,2.438-1.483,3.396c-1.312,1.682-2.844,3.192-4.288,4.771c-0.477,0.521-0.472,0.677,0.093,1.142
	c0.129-0.026,0.273-0.056,0.425-0.086c0.129,0.079,0.255,0.157,0.279,0.171c0.402-0.033,0.694-0.058,0.996-0.084
	c0.078-0.106,0.139-0.279,0.255-0.333c1.214-0.569,2.073-1.565,2.959-2.51C117.527,99.171,118.038,98.869,117.973,98.227z
	 M98.55,78.084c0.027-0.021,0.144-0.112,0.265-0.206c0.705-2.279,2.622-3.544,4.25-5.042c0.342-0.12,0.699-0.246,1.03-0.362
	c0.136-0.42,0.25-0.776,0.396-1.229c-0.335-0.029-0.607-0.083-0.877-0.07c-0.516,0.025-1.029,0.122-1.542,0.126
	c-0.542,0.004-1.004,0.147-1.455,0.458c-1.405,0.972-2.548,2.134-3.213,3.756c-0.449,1.097-0.44,2.223-0.46,3.356
	c-0.005,0.278,0.155,0.559,0.262,0.915c0.308-0.167,0.547-0.297,0.793-0.431C98.16,78.983,98.324,78.606,98.55,78.084z
	 M102.231,111.984c0.305,0.515,0.825,0.676,1.402,0.482c0.173-0.058,0.359-0.185,0.52-0.159c0.925,0.146,1.53-0.551,2.277-0.854
	c0.716-0.291,1.354-0.764,2.054-1.101c0.602-0.29,1.24-0.501,1.863-0.749c-0.012-0.028-0.024-0.058-0.036-0.087
	c0.28-0.308,0.559-0.617,0.838-0.923c1.195-1.036,1.915-2.311,2.039-4.055c-0.133-0.104-0.365-0.289-0.651-0.515
	c-0.305,0.514-0.534,0.9-0.763,1.285c-0.052-0.056-0.104-0.114-0.158-0.171c-0.326,0.423-0.598,0.904-0.989,1.252
	c-0.505,0.449-1.119,0.771-1.66,1.183c-0.719,0.548-1.418,1.123-2.116,1.698c-1.062,0.878-2.184,1.639-3.514,2.071
	C102.941,111.471,102.599,111.766,102.231,111.984z M117.01,102.263c4.743-0.632,8.351-5.339,7.151-10.595
	c-0.197-0.03-0.42-0.065-0.663-0.103c-0.185,1.52-0.36,2.947-1.225,4.171c-0.574,0.812-1.046,1.709-1.702,2.445
	c-1.09,1.223-2.111,2.545-3.678,3.335C116.935,101.78,116.972,102.023,117.01,102.263z M127.878,95.034
	c-0.057,0.609-0.136,1.133-0.146,1.656c-0.014,0.715,0.111,1.441,0.021,2.142c-0.12,0.939-0.424,1.851-0.585,2.786
	c-0.195,1.126-0.71,2.065-1.462,2.906c-0.17,0.19-0.24,0.472-0.424,0.855c0.381-0.018,0.65,0.051,0.809-0.051
	c0.74-0.477,1.524-0.923,2.148-1.529c0.601-0.583,1.236-1.279,1.488-2.046c0.738-2.252,0.063-4.37-0.993-6.383
	C128.566,95.053,128.256,94.866,127.878,95.034z M109.372,113.956c0.136-0.061,0.309-0.173,0.497-0.217
	c1.702-0.404,3.279-1,4.414-2.45c0.505-0.646,1.129-1.196,1.689-1.8c0.61-0.659,0.984-1.448,1.083-2.332
	c0.059-0.519-0.003-1.057-0.598-1.494c-0.172,0.237-0.327,0.428-0.458,0.635c-0.407,0.642-0.762,1.324-1.221,1.927
	c-0.312,0.411-0.74,0.746-1.155,1.064c-1.297,0.993-2.59,1.993-3.931,2.925c-0.679,0.472-1.457,0.804-2.287,1.251
	c0.188,0.22,0.344,0.403,0.418,0.491C108.409,113.956,108.85,113.956,109.372,113.956z M88.316,119.791
	c0.076,0.378,0.087,0.593,0.163,0.782c0.621,1.561,1.901,2.386,3.413,2.828c1.133,0.331,2.326,0.538,3.504,0.113
	c1.076-0.389,1.99-1.032,2.777-1.855c0.434-0.453,0.819-0.944,0.774-1.789c-0.015-0.017-0.113-0.123-0.221-0.238
	c-0.269,0.156-0.443,0.251-0.612,0.355c-0.792,0.491-1.522,1.102-2.482,1.269c-0.639,0.111-1.284,0.375-1.91,0.333
	c-1.679-0.115-3.284-0.551-4.695-1.538C88.875,119.945,88.672,119.917,88.316,119.791z M121.547,89.292
	c1.19,0.284,1.286,0.273,1.811-0.346c0.229-0.271,0.473-0.553,0.611-0.874c0.464-1.074,1.008-2.138,0.825-3.374
	c-0.044-0.293-0.107-0.586-0.121-0.881c-0.074-1.701-0.936-3.062-1.885-4.383c-0.268-0.374-0.622-0.315-0.881,0.08
	c0.157,0.782,0.334,1.538,0.456,2.301c0.136,0.85,0.331,1.71,0.306,2.56c-0.048,1.583-0.204,3.173-1.327,4.494
	C121.408,89.005,121.478,89.15,121.547,89.292z M123.369,110.581c-2.539,2.882-5.484,5.022-9.293,6.038
	c0.256,0.338,0.446,0.59,0.593,0.783c0.631-0.069,1.145-0.106,1.653-0.184c0.741-0.114,1.522-0.145,2.208-0.412
	c1.224-0.476,2.397-1.049,3.326-2.072c1.005-1.107,1.889-2.221,1.839-3.862C123.614,110.798,123.493,110.691,123.369,110.581z
	 M122.164,102.926c-0.035,0.221-0.054,0.413-0.098,0.599c-0.161,0.664-0.265,1.352-0.514,1.981c-0.318,0.81-0.824,1.547-1.125,2.362
	c-0.319,0.865-0.859,1.569-1.413,2.266c-0.375,0.47-0.851,0.863-1.309,1.259c-0.313,0.271-0.583,0.518-0.233,1.073
	c0.267-0.123,0.546-0.23,0.801-0.377c0.202-0.117,0.367-0.295,0.562-0.425c0.744-0.499,1.497-0.985,2.238-1.489
	c0.228-0.155,0.461-0.326,0.627-0.539c0.382-0.489,0.79-0.976,1.066-1.525c0.304-0.599,0.603-1.254,0.669-1.908
	c0.079-0.779,0.237-1.629-0.305-2.356c-0.037-0.048-0.035-0.127-0.043-0.194C123.026,103.174,122.736,102.962,122.164,102.926z
	 M79.812,117.893c0.206,0.639,0.369,1.12,0.514,1.605c0.362,1.208,1.239,2.006,2.188,2.74c0.407,0.314,0.814,0.67,1.282,0.854
	c0.514,0.201,1.095,0.241,1.651,0.328c0.908,0.141,1.695-0.169,2.464-0.661c-0.017-0.172-0.031-0.314-0.052-0.527
	c-0.922-0.331-1.86-0.618-2.755-1.004c-0.621-0.268-1.251-0.593-1.751-1.035c-0.838-0.742-1.578-1.598-2.385-2.435
	C80.629,117.799,80.294,117.838,79.812,117.893z M100.798,118.527c-0.037,0.075-0.073,0.149-0.111,0.224
	c0.129,0.15,0.248,0.312,0.39,0.45c0.665,0.651,1.516,0.92,2.399,1.015c1.379,0.149,2.769,0.214,4.094-0.349
	c0.23-0.098,0.433-0.295,0.668-0.342c1.226-0.252,1.894-1.219,2.635-2.064c0.273-0.312,0.372-0.78,0.55-1.176
	c-0.054-0.055-0.11-0.111-0.164-0.167c-0.212,0.08-0.442,0.132-0.633,0.247c-0.711,0.423-1.368,0.972-2.123,1.277
	c-0.937,0.378-1.939,0.65-2.938,0.804c-1.015,0.156-2.059,0.131-3.091,0.151C101.917,118.609,101.357,118.552,100.798,118.527z
	 M117.9,80.145c-0.24,1.989-0.504,3.996-2.879,4.846c-0.14,0.192-0.34,0.467-0.559,0.767c0.496,0.431,0.943,0.795,1.572,0.764
	c1.066-0.053,1.753-0.728,2.315-1.528c0.361-0.514,0.623-1.098,0.836-1.485c0.169-1.15,0.062-2.073-0.38-2.958
	C118.624,80.187,118.396,80.051,117.9,80.145z"/>
<path fill-rule="evenodd" clip-rule="evenodd" fill="#8dece4" class="fill" d="M101.316,84.596c0.311-0.03,0.519-0.038,0.722-0.072
	c0.843-0.14,1.68-0.32,2.528-0.423c0.813-0.1,1.636-0.162,2.455-0.169c0.578-0.005,1.156,0.108,1.735,0.169
	c0.376,0.04,0.786,0.004,1.121,0.144c0.429,0.179,0.879,0.431,1.17,0.778c0.271,0.321,0.34,0.811,0.511,1.222
	c0.074,0.178,0.178,0.345,0.198,0.382c0.048,0.762,0.115,1.396,0.125,2.03c0.015,1.13,0.057,2.264-0.027,3.388
	c-0.059,0.789-0.307,1.563-0.476,2.344c-0.031,0.143-0.084,0.282-0.134,0.42c-0.18,0.493-0.363,0.983-0.542,1.466
	c-0.452-0.898-0.93-1.848-1.412-2.805c-0.336,0-0.585,0-0.826,0c0.041,0.697,0.111,1.296,0.104,1.895
	c-0.013,1.214-0.178,2.413-0.4,3.609c-0.239,1.273-0.585,2.496-1.482,3.456c-1.301,1.392-2.358,3.041-4.087,3.995
	c-0.144,0.079-0.317,0.104-0.594,0.192c0.087-0.247,0.112-0.375,0.175-0.482c0.325-0.557,0.66-1.107,0.99-1.661
	c0.052-0.086,0.08-0.195,0.149-0.261c0.99-0.937,1.337-2.211,1.823-3.416c0.235-0.584,0.505-1.154,0.744-1.696
	c-0.061-0.254-0.11-0.458-0.163-0.674c-0.13-0.051-0.267-0.104-0.389-0.15c-0.645,0.697-1.064,1.455-1.353,2.359
	c-0.277,0.87-0.884,1.638-1.368,2.437c-0.884,1.457-2.32,2.389-3.47,3.593c-0.85,0.89-1.705,1.801-2.684,2.535
	c-1.147,0.86-2.168,1.92-3.603,2.395c-0.559,0.184-1.039,0.646-1.518,1.028c-0.894,0.716-1.986,0.914-3.038,1.221
	c-0.464,0.137-0.934,0.259-1.407,0.362c-0.384,0.083-0.776,0.13-1.165,0.192c-0.019-0.054-0.036-0.107-0.054-0.16
	c0.204-0.107,0.407-0.213,0.673-0.35c0.037-0.075,0.103-0.207,0.168-0.338c0.021,0.034,0.044,0.066,0.065,0.099
	c1.457-0.982,2.914-1.964,4.207-2.836c0.501-0.412,0.858-0.7,1.209-0.996c0.396-0.332,0.769-0.7,1.188-1
	c0.508-0.362,1.088-0.628,1.574-1.016c0.503-0.401,0.914-0.918,1.395-1.35c0.668-0.6,1.425-1.115,2.036-1.766
	c0.894-0.954,1.688-2,2.533-2.999c0.205-0.241,0.448-0.448,0.66-0.681c0.612-0.68,1.259-1.334,1.817-2.056
	c0.868-1.125,1.745-2.252,2.483-3.462c0.568-0.93,0.934-1.987,1.38-2.99c0.23-0.517,0.443-1.04,0.687-1.614
	c-0.02-0.042-0.069-0.144-0.131-0.275c0.623-0.815,0.715-1.791,0.786-2.78c0.036-0.511-0.168-0.754-0.77-0.814
	c-0.04,0.185-0.133,0.382-0.112,0.566c0.125,1.079-0.243,2.068-0.633,3.016c-0.675,1.642-1.365,3.294-2.247,4.828
	c-0.761,1.321-1.721,2.552-2.734,3.7c-1.11,1.258-2.377,2.38-3.584,3.551c-0.477,0.461-0.971,0.906-1.47,1.345
	c-1.104,0.974-2.185,1.977-3.333,2.896c-0.806,0.646-1.704,1.174-2.566,1.749c-1.269,0.848-2.625,1.516-4.055,2.047
	c-1.488,0.553-2.935,1.227-4.447,1.702c-1.201,0.377-2.47,0.542-3.712,0.782c-0.491,0.094-0.995,0.13-1.49,0.205
	c-1.14,0.171-2.078-0.299-3.128-0.944c1.24-0.709,2.571-0.747,3.724-1.276c0.01,0.042,0.021,0.085,0.031,0.129
	c0.458-0.102,0.918-0.197,1.375-0.302c0.615-0.144,1.241-0.257,1.84-0.453c0.848-0.278,1.693-0.579,2.509-0.938
	c1.446-0.638,2.885-1.296,4.297-2.003c0.969-0.487,1.883-1.082,2.833-1.607c0.518-0.286,1.092-0.479,1.584-0.801
	c1.603-1.053,3.054-2.293,4.382-3.68c0.458-0.478,0.951-0.921,1.446-1.367c0.393-0.383,0.796-0.755,1.174-1.152
	c0.634-0.669,1.352-1.288,1.854-2.048c0.769-1.165,1.491-2.385,2.037-3.667c0.625-1.467,1.062-3.019,1.526-4.55
	c0.128-0.424,0.063-0.905,0.089-1.403c-0.26-0.053-0.446-0.093-0.705-0.146c-0.332,0.604-0.708,1.164-0.962,1.775
	c-0.555,1.338-1.424,2.463-2.341,3.547c-0.873,1.031-1.797,2.025-2.762,2.97c-0.604,0.59-1.327,1.059-2,1.578
	c-0.844,0.65-1.678,1.312-2.54,1.937c-0.636,0.459-1.312,0.865-1.968,1.297c-0.986,0.648-1.922,1.397-2.969,1.925
	c-1.443,0.727-2.955,1.325-4.464,1.909c-1.839,0.711-3.693,1.39-5.567,2.002c-0.948,0.311-1.958,0.429-2.933,0.664
	c-1.073,0.257-2.141,0.534-3.203,0.829c-1.654,0.461-3.345,0.543-5.038,0.421c-0.594-0.043-1.17-0.367-1.75-0.575
	c-0.249-0.089-0.486-0.207-0.811-0.347c0.644-0.101,1.201-0.2,1.763-0.273c0.639-0.085,1.293-0.093,1.919-0.23
	c0.877-0.193,1.732-0.483,2.602-0.715c0.852-0.226,1.72-0.399,2.563-0.656c0.744-0.226,1.465-0.526,2.192-0.805
	c1.13-0.433,2.255-0.879,3.386-1.309c1.199-0.453,2.412-0.87,3.6-1.349c0.549-0.222,1.052-0.556,1.579-0.835
	c0.687-0.364,1.392-0.698,2.058-1.097c0.556-0.333,1.047-0.773,1.601-1.11c0.767-0.467,1.584-0.854,2.343-1.334
	c0.373-0.236,0.667-0.599,0.986-0.917c0.368-0.369,0.709-0.766,1.087-1.124c0.426-0.404,0.879-0.778,1.267-1.232
	c0.403-0.431,0.848-0.829,1.198-1.3c0.56-0.751,1.034-1.566,1.586-2.324c0.684-0.937,1.429-1.829,2.106-2.769
	c0.184-0.255,0.221-0.616,0.34-0.971c-0.238-0.109-0.395-0.182-0.577-0.266c-0.767,0.689-1.478,1.398-2.263,2.015
	c-0.911,0.715-1.885,1.349-2.833,2.016c-0.19,0.134-0.419,0.231-0.575,0.397c-1.067,1.13-2.412,1.866-3.716,2.662
	c-0.414,0.253-0.82,0.522-1.249,0.746c-0.865,0.45-1.767,0.833-2.611,1.318c-2.595,1.497-5.312,2.704-8.126,3.735
	c-1.429,0.524-2.9,0.65-4.362,0.873c-2.522,0.384-5.061,0.67-7.595,0.975c-1.768,0.211-3.478-0.099-5.2-0.515
	c-0.947-0.229-1.634-0.814-2.432-1.251c-0.131-0.072-0.209-0.242-0.417-0.495c0.207-0.206,0.389-0.386,0.526-0.521
	c2.03,0.86,9.224,0.886,10.363,0.125c4.112-0.136,7.955-1.212,11.713-2.732c0.452-0.185,0.902-0.37,1.352-0.557
	c0.03-0.012,0.05-0.05,0.08-0.061c0.765-0.271,1.541-0.513,2.292-0.817c0.581-0.235,1.137-0.535,1.694-0.824
	c0.66-0.342,1.305-0.713,1.967-1.051c0.292-0.149,0.629-0.217,0.913-0.378c0.64-0.36,1.316-0.66,1.779-1.289
	c0.247-0.337,0.623-0.576,0.925-0.875c0.096-0.092,0.141-0.235,0.208-0.355c-0.062-0.061-0.123-0.122-0.186-0.182
	c-0.853,0.5-1.729,0.966-2.549,1.515c-0.606,0.407-1.217,0.726-1.942,0.875c-0.599,0.123-1.172,0.373-1.752,0.581
	c-0.737,0.266-1.463,0.571-2.208,0.81c-0.632,0.203-1.289,0.328-1.929,0.501c-0.992,0.268-1.98,0.551-2.971,0.823
	c-0.967,0.265-1.961,0.455-2.899,0.8c-1.669,0.616-3.431,0.628-5.153,0.852c-1.23,0.16-2.498,0.031-3.748,0.031
	c-0.013-0.05-0.027-0.1-0.04-0.15c0.466-0.186,0.926-0.387,1.397-0.553c0.6-0.211,1.206-0.407,1.815-0.587
	c0.76-0.224,1.528-0.417,2.288-0.639c1.012-0.296,2.017-0.617,3.03-0.91c1.441-0.417,2.888-0.813,4.331-1.229
	c1.035-0.298,2.065-0.612,3.098-0.92c1.099-0.328,2.208-0.622,3.294-0.989c1.113-0.376,2.197-0.84,3.306-1.232
	c0.54-0.19,1.107-0.297,1.66-0.454c0.469-0.131,0.934-0.272,1.396-0.421c0.855-0.272,1.706-0.562,2.562-0.832
	c1.371-0.43,2.75-0.842,4.12-1.277c0.391-0.124,0.767-0.301,1.147-0.479c0.733-0.235,1.467-0.47,2.245-0.719
	C101.209,84.776,101.286,84.647,101.316,84.596z"/>
<path fill-rule="evenodd" clip-rule="evenodd" fill="#8dece4" class="fill" d="M61.932,110.146c0.24,0.255,0.46,0.488,0.802,0.85
	c-0.708,0.118-1.244,0.226-1.784,0.291c-0.575,0.07-1.155,0.13-1.734,0.141c-1.774,0.033-3.551,0.088-5.323,0.031
	c-0.735-0.023-1.461-0.314-2.194-0.471c-0.333-0.071-0.673-0.113-1.037-0.173c-0.094,0.112-0.187,0.223-0.253,0.305
	c0.077,0.881,0.845,0.766,1.331,0.98c0.475,0.21,1.017,0.292,1.538,0.365c0.895,0.123,1.795,0.214,2.697,0.282
	c1.327,0.102,2.655,0.193,3.984,0.247c0.579,0.023,1.162-0.056,1.743-0.084c0.079-0.003,0.16,0.023,0.282,0.149
	c-0.292,0.126-0.572,0.3-0.876,0.372c-1.6,0.382-3.206,0.8-4.869,0.578c-1.454-0.193-2.936-0.268-4.309-0.879
	c-1.127-0.502-2.272-0.964-3.39-1.486c-0.645-0.299-1.008-0.884-1.326-1.502c-0.158-0.307-0.395-0.572-0.662-0.95
	c-0.021-0.872-0.556-1.93,0.58-2.929c1.36,0.076,2.922,0.119,4.475,0.262c1.677,0.156,3.343,0.422,5.018,0.605
	c0.97,0.105,1.947,0.153,2.921,0.207c0.461,0.027,0.673,0.315,0.879,0.781c-0.497,0.096-0.96,0.218-1.43,0.269
	c-1.032,0.111-2.067,0.203-3.103,0.27c-1.053,0.067-2.114,0.178-3.161,0.106c-0.747-0.051-1.479-0.363-2.211-0.58
	c-0.464-0.139-0.91-0.344-1.376-0.465c-0.211-0.055-0.455,0.018-0.691,0.033c0.132,0.976,0.456,1.295,1.324,1.417
	c0.05,0.006,0.109,0,0.149,0.025c1.273,0.757,2.731,0.741,4.127,0.936c1.686,0.236,3.375,0.555,5.094,0.352
	C60.054,110.372,60.961,110.262,61.932,110.146z"/>
<path fill-rule="evenodd" clip-rule="evenodd" fill="#8dece4" class="fill" d="M95.201,141.687c-0.244-0.282-0.384-0.444-0.576-0.663
	c-0.371,0-0.799,0-1.197,0c-1.068,0.835-2.111,1.651-3.154,2.466c0.271-1.436,2.531-3.757,3.801-4.063
	c0.108-0.206,0.223-0.424,0.317-0.604c0.374,0.019,0.705,0.031,1.036,0.052c0.507,0.033,0.991-0.015,1.436,0.424
	c0.3,0.296,0.851,0.331,1.28,0.505c0.993,0.405,1.618,1.155,1.949,2.156c0.06,0.183,0.04,0.393,0.062,0.654
	c-0.551-0.269-1.037-0.507-1.523-0.742c-0.482-0.233-0.956-0.539-1.676-0.019c-0.501,0.884-1.108,1.956-1.75,3.089
	C94.723,143.794,94.789,142.704,95.201,141.687z"/>
<path fill-rule="evenodd" clip-rule="evenodd" fill="#8dece4" class="fill" d="M108.898,142.646c-0.167-0.83-0.334-1.661-0.493-2.452
	c-0.213-0.166-0.384-0.298-0.554-0.431c-0.02-0.044-0.04-0.088-0.061-0.133c-0.822,0.395-1.691,0.715-2.449,1.208
	c-0.75,0.487-1.388,1.149-2.131,1.683c0.003-0.777,0.381-1.353,0.861-1.858c0.442-0.465,0.908-0.912,1.406-1.314
	c0.359-0.292,0.796-0.485,1.183-0.745c0.232-0.156,0.435-0.354,0.652-0.536c0.774-0.133,1.589-0.274,2.403-0.417
	c0,0.038,0.001,0.076,0.001,0.112c0.258,0.134,0.529,0.249,0.771,0.407c0.991,0.644,2.032,1.23,2.932,1.984
	c0.467,0.39,0.952,0.945,0.952,1.712c-0.581-0.363-1.12-0.715-1.675-1.042c-0.396-0.233-0.812-0.436-1.221-0.647
	c-0.84-0.433-1.394-0.107-1.637,0.826c-0.154,0.594-0.487,1.14-0.74,1.708C109.033,142.691,108.966,142.668,108.898,142.646z"/>
<path fill-rule="evenodd" clip-rule="evenodd" fill="#8dece4" class="fill" d="M140.291,76.133c-0.211,0.038-0.504,0.09-0.906,0.161
	c0.243,0.429,0.416,0.736,0.605,1.07c-1.146-0.091-2.269-0.18-3.393-0.269c-0.016-0.052-0.032-0.103-0.048-0.155
	c1.059-0.604,2.118-1.208,3.261-1.86c1.955,0.56,4.015,1.149,6.075,1.739c-0.004,0.051-0.008,0.102-0.012,0.152
	c-0.618,0.037-1.236,0.064-1.852,0.114c-0.516,0.042-1.029,0.115-1.545,0.162c-0.163,0.014-0.362,0.041-0.488-0.033
	C141.455,76.901,140.944,76.554,140.291,76.133z"/>
<path fill-rule="evenodd" clip-rule="evenodd" fill="#8dece4" class="fill" d="M109.426,135.52c0.091,0.461,0.151,0.767,0.23,1.166
	c-0.806,0.195-1.582,0.383-2.441,0.59c0-0.517,0-0.906,0-1.408C107.902,135.76,108.622,135.646,109.426,135.52z"/>
<path fill-rule="evenodd" clip-rule="evenodd" fill="#8dece4" class="fill" d="M109.365,134.698c-0.751,0.123-1.467,0.24-2.268,0.371
	c-0.031-0.381-0.057-0.7-0.081-1c0.243-0.14,0.428-0.245,0.614-0.354c0.003,0.022,0.006,0.043,0.01,0.063
	c0.479-0.085,0.959-0.17,1.504-0.267C109.508,133.807,109.518,134.236,109.365,134.698z"/>
<path fill-rule="evenodd" clip-rule="evenodd" fill="#8dece4" class="fill" d="M94.411,136.262c0-0.433,0-0.77,0-1.135c0.799,0,1.563,0,2.35,0
	c-0.029,0.391-0.05,0.688-0.075,1.03C95.962,136.191,95.238,136.224,94.411,136.262z"/>
<path fill-rule="evenodd" clip-rule="evenodd" fill="#8dece4" class="fill" d="M94.298,133.098c0.817,0,1.558,0,2.339,0c0,0.332,0,0.653,0,1.048
	c-0.375,0-0.737,0.008-1.096-0.003c-0.364-0.01-0.728-0.041-1.188-0.067C94.338,133.805,94.322,133.505,94.298,133.098z"/>
<path fill-rule="evenodd" clip-rule="evenodd" fill="#8dece4" class="fill" d="M107.006,132.992c0-0.45,0-0.779,0-1.235c0.658,0,1.28,0,1.909,0
	c0.037,0.301,0.075,0.608,0.125,1.018C108.372,132.846,107.724,132.915,107.006,132.992z"/>
<path fill-rule="evenodd" clip-rule="evenodd" fill="#8dece4" class="fill" d="M94.241,131.392c0.826-0.072,1.583-0.137,2.39-0.208
	c0,0.36,0,0.665,0,0.942c-0.812,0-1.576,0-2.39,0C94.241,131.847,94.241,131.626,94.241,131.392z"/>
<path fill-rule="evenodd" clip-rule="evenodd" fill="#8dece4" class="fill" d="M106.737,129.949c0.615-0.125,1.125-0.229,1.748-0.356
	c0.081,0.304,0.178,0.663,0.293,1.098c-0.65,0.081-1.187,0.147-1.813,0.225C106.889,130.594,106.814,130.274,106.737,129.949z"/>
<path fill-rule="evenodd" clip-rule="evenodd" fill="#8dece4" class="fill" d="M94.431,137.989c0-0.319,0-0.529,0-0.834c0.726,0,1.434,0,2.231,0
	c-0.052,0.311-0.09,0.544-0.137,0.834C95.813,137.989,95.145,137.989,94.431,137.989z"/>
<path fill-rule="evenodd" clip-rule="evenodd" fill="#8dece4" class="fill" d="M63.791,112.834c-0.376,0.072-0.752,0.144-1.128,0.216
	c-0.009-0.045-0.019-0.091-0.028-0.136c0.375-0.083,0.752-0.165,1.128-0.247C63.771,112.724,63.781,112.779,63.791,112.834z"/>
<path fill-rule="evenodd" clip-rule="evenodd" fill="#8dece4" class="fill" d="M121.341,68.684c0.11,1.24-1.071,2.75-2.406,3.046
	c-1.178,0.26-2.347,0.415-3.523,0.071c-0.98-0.286-2.231-1.428-1.777-2.914c0.244-0.801,0.407-1.625,1.017-2.23
	c0.93-0.92,2.637-1.657,4.006-0.942c0.688,0.36,1.393,0.721,2.008,1.187C121.228,67.328,121.438,67.985,121.341,68.684z
	 M117.933,69.705c0.188-0.398,0.381-0.804,0.552-1.165c-0.23-0.264-0.359-0.411-0.476-0.544c-0.836-0.049-1.045,0.019-1.407,0.447
	C116.596,69.295,116.694,69.398,117.933,69.705z"/>
</svg>
