<svg version="1.1" id="svg" xmlns="http://www.w3.org/2000/svg" xmlns:xlink="http://www.w3.org/1999/xlink" x="0px" y="0px"
	 width="200px" height="200px" viewBox="0 0 200 200" enable-background="new 0 0 200 200" xml:space="preserve">
<path class="stroke" fill="#205165"  fill-rule="evenodd" clip-rule="evenodd" d="M112.392,145.251c-0.179,0.092-0.339,0.175-0.517,0.266
	c-0.051,0.198-0.107,0.408-0.173,0.657c-0.193,0.044-0.381,0.088-0.727,0.168c-0.19-0.553-0.373-1.083-0.579-1.682
	c-0.361,0.555-0.708,1.088-1.088,1.672c-0.158,0.008-0.35,0.02-0.701,0.039c-0.151-0.851-0.298-1.679-0.444-2.502
	c-0.804,0.076-1.06,1.293-2.136,0.875c-0.145-0.688-0.296-1.405-0.483-2.3c-0.927,0.388-1.778,0.744-2.759,1.154
	c-0.75-0.032-0.812-0.144-1.019-0.958c-0.24-0.948-0.59-1.868-0.908-2.846c-0.661,0.207-1.23,0.378-1.795,0.564
	c-1.286,0.422-1.709,0.195-2.064-1.111c-0.065-0.24-0.159-0.474-0.229-0.677c-1.745,0.325-3.395,0.632-5.1,0.95
	c-0.671-1.304-0.246-2.638-0.537-3.863c-0.904,0.019-1.784,0.05-2.664,0.054c-1.296,0.006-1.388-0.081-1.63-1.321
	c-0.122-0.628-0.265-1.251-0.384-1.811c-1.972-0.338-3.841-0.643-5.7-1.002c-0.208-0.041-0.496-0.386-0.508-0.604
	c-0.055-0.901-0.015-1.809-0.018-2.713c0-0.217-0.031-0.434-0.053-0.7c-0.688-0.057-1.344-0.111-2-0.166
	c-0.299-0.026-0.599-0.059-0.898-0.079c-0.515-0.034-0.665-0.358-0.7-0.814c-0.035-0.434-0.107-0.864-0.146-1.164
	c-1.342,0.006-2.574,0.035-3.804,0.003c-0.371-0.01-0.755-0.148-1.1-0.305c-0.165-0.075-0.324-0.318-0.352-0.505
	c-0.079-0.535-0.094-1.08-0.124-1.622c-0.036-0.698-0.062-1.396-0.086-1.961c-1.045,0.072-2.003,0.199-2.96,0.187
	c-0.951-0.012-1.926,0.442-2.91-0.055c0.021-0.605,0.04-1.157,0.057-1.675c-0.703-0.228-1.334-0.433-1.903-0.617
	c-0.046-0.689-0.081-1.206-0.114-1.697c-0.555-0.123-1.046-0.203-1.52-0.345c-0.455-0.137-0.891-0.337-1.415-0.539
	c0.03-0.816,0.059-1.57,0.09-2.411c-0.483-0.051-0.969-0.056-1.43-0.163c-0.419-0.097-0.968-0.055-1.111-0.67
	c0.362-1.036,0.725-2.075,1.11-3.177c-1.12-0.158-2.331,0.244-3.401-0.486c0.314-1.694,0.551-3.368,1.409-4.821
	c0.739-1.252,1.724-2.288,3.004-3.099c1.706-1.079,3.243-2.421,4.913-3.562c1.576-1.077,3.229-2.041,4.847-3.055
	c1.771-1.109,3.536-2.229,5.315-3.325c1.127-0.695,2.281-1.347,3.412-2.036c0.738-0.45,1.44-0.962,2.185-1.398
	c1.981-1.161,3.984-2.287,5.966-3.447c0.954-0.56,1.885-1.162,2.819-1.754c0.614-0.389,1.208-0.808,1.825-1.189
	c1.733-1.07,3.497-2.09,5.203-3.2c1.888-1.228,3.713-2.554,5.594-3.794c0.788-0.518,1.655-0.916,2.474-1.389
	c0.237-0.136,0.466-0.316,0.639-0.526c1.88-2.264,4.046-4.227,6.436-5.927c1.21-0.86,2.504-1.615,3.813-2.321
	c1.865-1.006,3.926-1.381,6.009-1.362c2.479,0.023,4.874,0.601,7.113,1.708c1.538,0.76,3.02,1.605,4.293,2.783
	c2.113,1.956,3.536,4.303,3.926,7.173c0.121,0.895,0.074,1.875-0.166,2.742c-0.483,1.739-1.024,3.484-1.774,5.12
	c-0.974,2.122-2.328,4.04-3.797,5.863c-1.376,1.707-2.293,3.628-2.804,5.761c-0.262,1.096-0.628,2.166-0.937,3.251
	c-0.418,1.473-0.822,2.949-1.24,4.423c-0.524,1.855-1.073,3.704-1.582,5.562c-0.452,1.649-0.801,3.328-1.315,4.957
	c-0.469,1.485-0.731,3.024-1.426,4.461c-0.604,1.251-0.845,2.674-1.288,4.008c-0.671,2.021-1.398,4.022-2.061,6.045
	c-0.374,1.145-0.639,2.325-1,3.474c-0.535,1.699-1.113,3.384-1.672,5.076c-0.578,1.749-1.139,3.503-1.74,5.244
	c-0.296,0.854-0.698,1.673-0.995,2.526c-0.128,0.367-0.089,0.789-0.169,1.178C112.636,144.71,112.505,144.953,112.392,145.251z
	 M93.25,94.4c-0.823,0.825-1.542,1.582-2.3,2.297c-0.774,0.73-1.579,1.426-2.382,2.125c-0.542,0.472-1.045,0.938-0.927,1.769
	c0.049,0.353-0.02,0.722-0.039,1.083c-0.023,0.442-0.05,0.885-0.075,1.327c0.052,0.023,0.104,0.046,0.157,0.069
	c2.202-2.402,4.403-4.805,6.5-7.093C93.829,95.379,93.574,94.947,93.25,94.4z M96.127,97.875c-1.555,1.812-3.079,3.587-4.603,5.363
	c0.043,0.058,0.086,0.115,0.129,0.173c1.126-0.264,2.253-0.524,3.376-0.799c0.105-0.026,0.2-0.135,0.278-0.224
	c0.49-0.558,0.974-1.12,1.459-1.682c0.348-0.403,0.694-0.807,1.049-1.219C97.234,98.933,96.701,98.423,96.127,97.875z
	 M98.029,104.368c0.243,1.197,0.473,2.33,0.714,3.515c1.136-1.654,2.23-3.248,3.362-4.896c-0.688-0.409-1.334-0.793-2.012-1.197
	C99.386,102.674,98.7,103.531,98.029,104.368z M109.613,114.141c0.925-1.803,1.848-3.601,2.822-5.498
	c-0.554-0.161-0.985-0.285-1.526-0.442c-0.731,2.393-2.614,4.155-3.203,6.653C108.385,114.6,108.967,114.383,109.613,114.141z
	 M104.451,96.313c-0.956,1.197-1.829,2.29-2.737,3.427c0.251,0.081,0.418,0.136,0.479,0.156c0.45,0.456,0.823,0.835,1.21,1.227
	c0.937-1.226,1.818-2.38,2.719-3.56C105.561,97.144,105.036,96.752,104.451,96.313z M107.915,106.75
	c-0.665,1.163-1.151,2.267-1.863,3.198c-0.919,1.203-0.072,2.271,0.009,3.389c1.028-1.93,2.057-3.861,3.106-5.831
	C108.74,107.248,108.374,107.027,107.915,106.75z M104.504,104.758c-1.294,1.934-2.563,3.832-3.834,5.729
	c0.06,0.066,0.119,0.132,0.179,0.198c0.685-0.415,1.448-0.741,2.036-1.264c1.227-1.093,1.969-2.54,2.687-4.044
	C105.21,105.168,104.905,104.991,104.504,104.758z M84.319,96.519c0.974,0.261,1.528-0.143,2.056-0.561
	c0.929-0.733,1.86-1.466,2.743-2.252c0.917-0.817,1.778-1.697,2.692-2.576c-0.236-0.214-0.366-0.332-0.598-0.542
	C88.949,92.535,86.696,94.474,84.319,96.519z M100.176,93.465c-0.775,0.807-1.488,1.549-2.227,2.317
	c0.523,0.572,1.01,1.105,1.514,1.657c0.913-0.945,1.729-1.791,2.628-2.721C101.424,94.282,100.846,93.903,100.176,93.465z
	 M88.259,86.342c-0.124,0.034-0.265,0.041-0.368,0.106c-0.948,0.6-1.886,1.213-2.832,1.816c-1.334,0.852-2.649,1.739-4.018,2.533
	c-1.21,0.702-2.266,1.526-2.977,2.86c0.626-0.18,1.178-0.339,1.729-0.499c-0.033-0.056-0.067-0.111-0.1-0.166
	C82.336,90.519,85.452,88.644,88.259,86.342z M112.764,116.706c0.934-2.255,1.849-4.468,2.788-6.737
	c-0.354-0.061-0.657-0.113-0.966-0.166c-0.663,1.511-1.252,3.055-2.011,4.51C112.106,115.208,112.157,115.924,112.764,116.706z
	 M82.763,94.421c0.657-0.397,1.327-0.8,1.995-1.205c0.29-0.175,0.606-0.319,0.862-0.535c1.46-1.226,2.914-2.461,4.349-3.716
	c0.158-0.139,0.188-0.424,0.278-0.642c-1.341,0.838-2.56,1.682-3.755,2.56c-1.149,0.843-2.276,1.715-3.405,2.586
	C82.729,93.746,82.664,94.121,82.763,94.421z M117.477,110.345c-0.974,2.427-1.929,4.808-2.936,7.317
	c0.466-0.169,0.783-0.284,1.012-0.367c1.129-2.26,1.882-4.558,2.618-6.942C117.864,110.35,117.708,110.348,117.477,110.345z
	 M99.884,81.417c-0.533-0.297-5.759,3.068-6.745,4.415c0.311,0.138,0.601,0.267,0.756,0.336
	C95.975,84.519,97.934,82.965,99.884,81.417z M109.353,90.472c0.493,0.314,0.925,0.589,1.445,0.919
	c0.653-1.009,1.264-1.953,1.899-2.932c-0.422-0.269-0.753-0.481-1.118-0.715C110.837,88.651,110.134,89.514,109.353,90.472z
	 M119.005,118.596c0.741-0.252,2.049-3.604,2.539-6.239c-0.049-0.085-0.1-0.195-0.173-0.29c-0.079-0.103-0.179-0.191-0.424-0.448
	C120.28,114.015,119.653,116.27,119.005,118.596z M102.276,91.319c0.5,0.318,0.952,0.604,1.442,0.916
	c0.643-0.823,1.209-1.548,1.827-2.338c-0.563-0.333-0.98-0.58-1.416-0.838C103.5,89.828,102.931,90.521,102.276,91.319z
	 M107.792,85.086c-0.775,0.792-1.523,1.556-2.342,2.391c0.529,0.329,0.975,0.604,1.431,0.887c0.661-0.849,1.274-1.635,1.917-2.459
	C108.483,85.649,108.194,85.414,107.792,85.086z M108.166,98.997c-0.776,1.262-1.512,2.46-2.284,3.714
	c0.323,0.211,0.617,0.403,1.011,0.661c0.701-1.305,1.372-2.557,2.059-3.84C108.644,99.322,108.406,99.16,108.166,98.997z
	 M100.026,89.724c0.794-0.857,1.53-1.654,2.292-2.476c-0.32-0.295-0.551-0.507-0.804-0.74c-0.924,0.807-1.803,1.574-2.744,2.396
	C99.233,89.207,99.596,89.443,100.026,89.724z M113.359,103.122c-0.42,0.975-0.803,1.861-1.2,2.784
	c0.461,0.261,0.849,0.481,1.291,0.731c0.391-0.885,0.743-1.683,1.116-2.529C114.18,103.792,113.83,103.507,113.359,103.122z
	 M122.675,108.229c0.806-2.914,1.572-5.687,2.339-8.459c-0.06-0.017-0.119-0.034-0.179-0.05c-0.916,2.583-1.831,5.166-2.756,7.776
	C122.257,107.714,122.439,107.939,122.675,108.229z M96.168,93.823c0.602-0.679,1.134-1.28,1.691-1.908
	c-0.486-0.4-0.88-0.724-1.268-1.042c-0.553,0.531-1.052,1.009-1.569,1.506C95.404,92.86,95.737,93.279,96.168,93.823z
	 M106.252,94.074c0.554,0.392,1.005,0.711,1.51,1.07c0.438-0.589,0.825-1.112,1.215-1.637c-0.396-0.421-0.744-0.792-1.113-1.186
	C107.308,92.927,106.802,93.477,106.252,94.074z M115.463,101.169c0.583-1.11,1.127-2.147,1.702-3.242
	c-0.329-0.126-0.555-0.214-0.769-0.297c-0.562,1.008-1.085,1.946-1.635,2.932C114.972,100.743,115.179,100.923,115.463,101.169z
	 M111.483,101.601c-0.708,1.019-1.368,1.97-2.092,3.011c0.483,0.083,0.809,0.139,1.183,0.203c0.429-0.952,0.845-1.877,1.276-2.835
	C111.751,101.876,111.644,101.766,111.483,101.601z M103.011,85.035c0.245,0.296,0.434,0.525,0.685,0.83
	c0.596-0.668,1.158-1.296,1.773-1.986c-0.415-0.181-0.735-0.321-1.041-0.454C103.933,83.988,103.483,84.498,103.011,85.035z
	 M114.616,89.835c-0.687,0.891-1.341,1.74-2.028,2.631c0.197,0.141,0.332,0.237,0.458,0.328
	C113.838,92.026,114.851,90.137,114.616,89.835z M116.355,107.771c0.3-0.46,0.547-0.841,0.811-1.246
	c-0.224-0.225-0.448-0.449-0.73-0.733c-0.293,0.572-0.553,1.078-0.843,1.644C115.892,107.568,116.101,107.659,116.355,107.771z
	 M110.325,97.079c0.485-0.684,0.921-1.299,1.393-1.964c-0.24-0.117-0.412-0.199-0.653-0.315c-0.39,0.652-0.756,1.263-1.136,1.899
	C110.058,96.822,110.167,96.928,110.325,97.079z M118.057,96.138c0.246-0.852,0.479-1.662,0.713-2.471
	c-0.048-0.016-0.095-0.031-0.143-0.047c-0.399,0.723-0.798,1.446-1.207,2.187c0.101,0.074,0.174,0.141,0.258,0.187
	C117.762,96.039,117.855,96.063,118.057,96.138z M113.155,99.099c0.647-0.716,1.198-1.487,1.42-2.441
	C114.119,97.482,113.225,98.06,113.155,99.099z M119.314,104.414c0.323,0.241,0.53,0.396,0.77,0.573
	c0.134-0.417,0.236-0.738,0.35-1.092c-0.103-0.075-0.209-0.154-0.356-0.262C119.832,103.884,119.604,104.116,119.314,104.414z
	 M116.981,92.873c-0.058-0.034-0.117-0.066-0.175-0.1c-0.352,0.617-0.704,1.234-1.055,1.851c0.071,0.042,0.143,0.083,0.213,0.124
	C116.304,94.122,116.643,93.497,116.981,92.873z M93.171,88.694c0.054,0.407,0.092,0.692,0.147,1.104
	c0.288-0.281,0.455-0.445,0.673-0.658C93.722,88.994,93.505,88.876,93.171,88.694z M118.616,116.926
	c-0.236,0.338-0.641,0.645-0.191,1.108C118.489,117.665,118.553,117.296,118.616,116.926z"/>
<path fill-rule="evenodd" clip-rule="evenodd" fill="#ffffff" class="fill" d="M109.918,69.965c2.111-1.926,4.296-3.351,6.715-4.479
	c1.492-0.697,3.025-1.043,4.619-1.149c0.864-0.058,1.749,0.115,2.616,0.24c0.615,0.088,1.211,0.312,1.825,0.406
	c1.54,0.235,2.7,1.2,3.95,1.995c0.034,0.021,0.059,0.061,0.095,0.075c1.247,0.504,1.847,1.471,2.025,2.767
	c0.167,1.212,0.037,2.348-0.539,3.457c-1.465,2.824-3.794,4.441-6.888,4.947c-1.533,0.251-2.834-0.388-4.104-1.237
	c-1.971-1.317-4.064-2.452-6.035-3.771C112.734,72.233,111.381,71.084,109.918,69.965z"/>
<path fill-rule="evenodd" clip-rule="evenodd" fill="#ffffff" class="fill" d="M98.007,117.673c-0.335,0.466-0.669,0.932-0.863,1.202
	c-3.08,1.418-6.267,2.157-8.691,4.434c-0.094,0.089-0.115,0.255-0.065,0.466c1.243-0.706,2.451-1.486,3.739-2.098
	c1.294-0.614,2.669-1.06,4.092-1.611c-0.659,1.219-1.466,2.089-2.711,2.567c-1.105,0.424-2.166,0.972-3.218,1.521
	c-0.838,0.436-1.634,0.949-2.442,1.44c-0.088,0.053-0.131,0.181-0.146,0.354c0.781-0.03,1.313-0.605,1.966-0.9
	c0.679-0.307,1.369-0.584,2.057-0.871c0.702-0.292,1.406-0.579,2.11-0.868c0.044,0.04,0.089,0.079,0.134,0.119
	c-0.27,0.438-0.54,0.876-0.78,1.266c-1.16,0.096-5.104,2.101-5.351,2.883c1.49-0.661,2.979-1.322,4.47-1.983
	c0.035,0.031,0.07,0.062,0.105,0.092c-0.325,0.561-0.65,1.12-0.966,1.662c-1.034-0.14-3.407,1.372-3.255,2.148
	c0.449-0.268,0.863-0.529,1.292-0.765c0.43-0.237,0.875-0.449,1.414-0.564c-0.941,1.451-1.883,2.9-2.859,4.404
	c-0.057-0.107-0.117-0.179-0.134-0.259c-0.343-1.657-0.698-3.312-1.016-4.973c-0.281-1.468,0.244-2.785,0.875-4.062
	c0.632-1.28,1.202-2.607,1.976-3.798c0.682-1.05,1.576-1.972,2.439-2.891c0.685-0.729,1.464-1.37,2.194-2.042
	c0.213,0.037,0.381,0.065,0.572,0.098c0.437-0.897,1.249-1.225,2.12-1.535c1.849-0.659,3.672-1.388,5.688-2.158
	c-0.31,0.476-0.528,0.812-0.751,1.152c-2.018,0.084-3.769,0.947-5.584,1.586c-0.081,0.028-0.136,0.129-0.152,0.352
	c1.646-0.409,3.291-0.817,4.937-1.226c0.045,0.074,0.09,0.148,0.136,0.222c-0.244,0.42-0.487,0.839-0.773,1.332
	c-2.656,0.652-5.189,1.736-7.605,3.09c0.025,0.088,0.052,0.175,0.077,0.262c0.208-0.034,0.427-0.035,0.62-0.107
	c1.862-0.688,3.72-1.39,5.58-2.083c0.141-0.053,0.296-0.068,0.606-0.137c-0.354,0.485-0.618,0.846-0.884,1.211
	c-2.421,0.375-4.732,1.012-6.753,2.457c-0.736,0.527-1.503,1.01-2.256,1.512c0.042,0.081,0.084,0.162,0.127,0.242
	c0.35-0.14,0.716-0.25,1.047-0.426c1.261-0.673,2.474-1.451,3.776-2.027c0.95-0.421,2.013-0.588,3.025-0.867
	C97.951,117.554,97.979,117.613,98.007,117.673z"/>
<path fill-rule="evenodd" clip-rule="evenodd" fill="#ffffff" class="fill" d="M66.556,117.735c0.592-0.635,1.088-1.167,1.646-1.764
	c0.039,0.644,0.071,1.175,0.103,1.706c0.083,0.004,0.165,0.008,0.247,0.012c0.525-0.825,0.458-1.783,0.565-2.834
	c0.42-0.388,0.932-0.859,1.525-1.407c0.229,1.8-0.411,3.436-0.505,5.109c0.073,0.04,0.147,0.08,0.22,0.119
	c0.151-0.173,0.404-0.328,0.438-0.521c0.263-1.517,0.482-3.042,0.718-4.563c0.071-0.455,0.155-0.907,0.235-1.373
	c0.593-0.505,1.215-1.034,2.004-1.706c-0.05,0.641-0.069,1.106-0.126,1.568c-0.241,1.933-0.501,3.863-0.737,5.795
	c-0.059,0.481-0.03,0.484,0.577,0.638c0.415-2.889,0.827-5.758,1.239-8.628c-0.067-0.023-0.133-0.046-0.2-0.07
	c0.413-0.27,0.826-0.54,1.394-0.911c-0.029,3.549-0.507,6.953-0.96,10.381C71.926,119.84,69.355,118.512,66.556,117.735z"/>
<path fill-rule="evenodd" clip-rule="evenodd" fill="#ffffff" class="fill" d="M97.925,129.818c0.114,0.146,0.196,0.25,0.263,0.337
	c1.583-0.974,3.095-1.904,4.605-2.833c0.056,0.062,0.113,0.124,0.168,0.186c-0.27,0.504-0.351,1.055-0.962,1.434
	c-1.385,0.857-2.697,1.83-4.036,2.761c-0.111,0.078-0.195,0.198-0.291,0.297c-0.066-0.032-0.132-0.063-0.197-0.096
	c0.041-0.416,0.08-0.831,0.124-1.247c0.268-2.503,1.07-4.842,2.437-6.936c0.86-1.318,1.841-2.615,2.999-3.667
	c0.923-0.838,2.183-1.316,3.319-1.903c0.618-0.318,1.291-0.53,2.042-0.687c-0.207,0.408-0.413,0.816-0.598,1.181
	c-2.133,0.58-4.041,1.436-5.654,2.86c0.017,0.07,0.034,0.139,0.051,0.208c0.209-0.04,0.439-0.04,0.624-0.128
	c1.049-0.505,2.081-1.045,3.131-1.546c0.352-0.167,0.742-0.254,1.277-0.432c-0.301,0.804-0.606,1.352-1.249,1.668
	c-1.66,0.815-3.317,1.639-4.967,2.474c-0.178,0.09-0.307,0.275-0.459,0.417c0.044,0.067,0.088,0.134,0.133,0.202
	c1.61-0.701,3.22-1.402,4.917-2.141c-0.065,0.854-0.365,1.188-1.049,1.452c-1.099,0.423-2.118,1.068-3.138,1.674
	c-0.637,0.378-1.215,0.854-1.813,1.294c-0.088,0.065-0.143,0.176-0.214,0.266c0.018,0.06,0.036,0.119,0.055,0.179
	c0.205-0.052,0.43-0.066,0.611-0.162c1.367-0.723,2.726-1.463,4.088-2.195c0.029-0.016,0.077,0.004,0.205,0.016
	c-0.195,0.455-0.378,0.884-0.475,1.11C101.735,127.137,99.674,128.136,97.925,129.818z"/>
<path fill-rule="evenodd" clip-rule="evenodd" fill="#ffffff" class="fill" d="M96.59,103.617c-6.04,7.394-12.079,14.787-18.118,22.181
	c-0.043-0.015-0.086-0.03-0.129-0.044c0.046-0.189,0.077-0.384,0.14-0.567c0.516-1.48,1.623-2.572,2.52-3.8
	c1.126-1.541,2.236-3.095,3.406-4.602c1.476-1.901,2.973-3.788,4.526-5.625c0.748-0.884,1.673-1.614,2.467-2.463
	c0.85-0.908,1.631-1.878,2.455-2.81c0.599-0.677,1.203-1.351,1.837-1.994c0.208-0.209,0.518-0.319,0.781-0.474
	C96.513,103.485,96.551,103.552,96.59,103.617z"/>
<path fill-rule="evenodd" clip-rule="evenodd" fill="#ffffff" class="fill" d="M107.442,131.578c1.158-0.895,2.315-1.789,3.56-2.75
	c0.035,0.855-0.412,1.232-0.919,1.626c-1.009,0.787-1.977,1.627-2.957,2.451c-0.101,0.085-0.167,0.214-0.249,0.322
	c0.022,0.06,0.044,0.121,0.066,0.181c0.195-0.056,0.425-0.065,0.578-0.178c0.646-0.478,1.265-0.993,1.906-1.48
	c0.185-0.142,0.408-0.234,0.771-0.437c-0.286,0.719-0.506,1.271-0.728,1.831c-1.299,0.49-1.736,1.847-2.707,2.674
	c-0.619-1.207,0.333-6.395,1.774-9.704c1.422-0.792,2.852-1.587,4.296-2.392c0.125,0.604-0.389,1.349-0.955,1.763
	c-1.202,0.878-2.394,1.769-3.587,2.658c-0.105,0.079-0.191,0.183-0.287,0.276c0.021,0.061,0.042,0.122,0.063,0.183
	c0.231-0.062,0.495-0.075,0.689-0.196c1.005-0.629,1.992-1.287,2.986-1.932c0.098-0.063,0.205-0.114,0.332-0.183
	c-0.011,1.009-0.77,1.366-1.4,1.872c-1.111,0.892-2.164,1.856-3.229,2.804c-0.113,0.101-0.14,0.296-0.207,0.447
	C107.308,131.469,107.375,131.524,107.442,131.578z"/>
<path fill-rule="evenodd" clip-rule="evenodd" fill="#ffffff" class="fill" d="M110.753,115.437c-0.479,1.122-0.951,2.247-1.437,3.367
	c-0.834,1.925-2.037,3.661-2.681,5.699c-0.497,1.575-1.35,3.04-2.083,4.535c-0.778,1.588-1.583,3.164-2.409,4.729
	c-0.638,1.208-1.328,2.388-1.989,3.583c-0.223,0.404-0.431,0.816-0.688,1.304c-0.129,0.037-0.334,0.094-0.709,0.2
	c0.237-0.674,0.383-1.244,0.632-1.766c0.752-1.575,1.563-3.123,2.312-4.7c0.559-1.175,1.009-2.401,1.591-3.563
	c0.847-1.691,1.781-3.337,2.656-5.015c0.814-1.56,1.564-3.154,2.407-4.698c0.696-1.276,1.485-2.5,2.233-3.748
	C110.644,115.39,110.698,115.413,110.753,115.437z"/>
<path fill-rule="evenodd" clip-rule="evenodd" fill="#ffffff" class="fill" d="M68.334,108.274c0.341-0.06,0.712-0.052,1.019-0.189
	c1.411-0.631,2.79-1.336,4.211-1.942c0.608-0.259,1.294-0.337,1.989-0.381c-0.921,0.656-1.393,1.791-2.855,1.806
	c-1.171,0.013-2.343,0.647-3.501,1.046c-0.912,0.315-1.799,0.696-2.703,1.036c-0.171,0.063-0.365,0.063-0.549,0.093
	c0.062,0.138,0.124,0.274,0.186,0.413c0.29,0,0.605,0.074,0.865-0.013c1.257-0.421,2.496-0.897,3.749-1.332
	c0.542-0.188,1.103-0.323,1.654-0.482c0.041,0.081,0.083,0.162,0.124,0.243c-0.385,0.236-0.743,0.546-1.159,0.691
	c-1.349,0.471-2.727,0.856-4.076,1.324c-0.583,0.201-1.124,0.519-1.78,0.83c0.051-0.296,0.04-0.542,0.134-0.735
	c0.57-1.176,1.141-2.353,1.77-3.498c0.139-0.253,0.5-0.408,0.787-0.549c0.322-0.159,0.677-0.25,1.016-0.373
	c1.794-0.646,3.572-1.34,5.387-1.92c0.92-0.293,1.907-0.381,2.864-0.561c0.04,0.074,0.08,0.147,0.12,0.221
	c-0.258,0.274-0.516,0.548-0.796,0.847c-3.351-0.313-5.718,1.961-8.529,3.075C68.285,108.04,68.309,108.157,68.334,108.274z"/>
<path fill-rule="evenodd" clip-rule="evenodd" fill="#ffffff" class="fill" d="M86.841,107.161c-0.202,0.162-0.405,0.325-0.608,0.487
	c0.042,0.087,0.084,0.173,0.126,0.26c0.442-0.155,0.884-0.311,1.326-0.467c1.609-0.573,3.217-1.146,4.827-1.715
	c0.05-0.018,0.113,0.007,0.255,0.02c-0.429,0.528-0.823,1.015-1.221,1.505c-2.74,0.431-5.137,1.7-7.559,2.908
	c0.04,0.109,0.08,0.218,0.12,0.327c2.107-0.751,4.215-1.502,6.322-2.253c0.034,0.067,0.067,0.134,0.101,0.201
	c-0.7,0.622-1.037,1.526-2.224,1.754c-1.402,0.27-2.723,0.962-4.08,1.466c-1.053,0.391-2.108,0.774-3.211,1.178
	c0.412-0.583,0.75-1.237,1.246-1.732c1.32-1.322,2.704-2.58,4.077-3.847c0.105-0.097,0.334-0.062,0.505-0.09H86.841z"/>
<path fill-rule="evenodd" clip-rule="evenodd" fill="#ffffff" class="fill" d="M89.078,132.492c0.431-0.639,0.871-1.272,1.29-1.918
	c0.691-1.063,1.363-2.141,2.055-3.203c1.129-1.732,2.224-3.489,3.416-5.177c1.413-2.002,2.912-3.943,4.374-5.911
	c0.264-0.354,0.509-0.724,0.798-1.056c0.115-0.132,0.325-0.182,0.492-0.269c0.041,0.052,0.083,0.104,0.124,0.157
	c-0.304,0.458-0.596,0.925-0.915,1.374c-0.754,1.063-1.551,2.098-2.277,3.181c-1.142,1.703-2.234,3.44-3.357,5.155
	c-0.769,1.173-1.526,2.354-2.34,3.496c-0.735,1.031-1.529,2.02-2.317,3.012c-0.358,0.451-0.765,0.864-1.149,1.293
	C89.208,132.582,89.143,132.537,89.078,132.492z"/>
<path fill-rule="evenodd" clip-rule="evenodd" fill="#ffffff" class="fill" d="M71.672,104.238c-1.086,0.601-2.172,1.202-3.343,1.85
	c0.211-1.108,2.866-3.36,5.746-5c0.015,0.052,0.03,0.104,0.046,0.156c0.479-0.13,0.953-0.275,1.436-0.388
	c1.637-0.381,3.276-0.759,4.917-1.121c0.64-0.141,1.289-0.237,2.047-0.374c-0.498,0.8-1.156,1.058-1.916,1.106
	c-1.841,0.12-3.525,0.761-5.194,1.493c-0.935,0.41-1.934,0.672-2.892,1.034c-0.486,0.184-0.953,0.427-1.414,0.671
	c-0.134,0.072-0.217,0.239-0.323,0.363c0.022,0.058,0.045,0.116,0.067,0.174c0.26-0.006,0.521-0.012,0.78-0.019
	C71.645,104.202,71.658,104.221,71.672,104.238z"/>
<path fill-rule="evenodd" clip-rule="evenodd" fill="#ffffff" class="fill" d="M94.036,133.559c-1.397,0.099-2.861,0.202-4.533,0.321
	c1.102-1.455,2.081-2.748,3.061-4.041c0.048,0.018,0.097,0.037,0.145,0.055c-0.027,1.011-0.054,2.021-0.08,3.032
	c0.112,0.007,0.224,0.014,0.336,0.021c0.366-1.311,0.375-2.671,0.407-4.093c0.236-0.296,0.505-0.634,0.81-1.017
	C94.887,129.759,94.282,131.57,94.036,133.559z"/>
<path fill-rule="evenodd" clip-rule="evenodd" fill="#ffffff" class="fill" d="M97.701,111.002c-0.853,0.372-1.619,0.706-2.435,1.062
	c-0.226-1.55-0.443-3.045-0.672-4.624c0.191-0.208,0.434-0.467,0.793-0.854c0.278,1.55,0.533,2.975,0.794,4.427
	c0.607-0.101,0.543-0.564,0.502-0.887c-0.168-1.312-0.394-2.617-0.597-3.924c-0.013-0.078-0.024-0.157-0.049-0.323
	c0.266-0.306,0.563-0.647,0.952-1.091C97.681,106.893,97.827,108.938,97.701,111.002z"/>
<path fill-rule="evenodd" clip-rule="evenodd" fill="#ffffff" class="fill" d="M78.941,105.763c0.42-0.346,0.983-0.809,1.667-1.371
	c0.074,0.865,0.193,1.589,0.185,2.312c-0.01,0.942-0.091,1.886-0.205,2.823c-0.041,0.334-0.203,0.694-0.413,0.959
	c-0.404,0.511-0.882,0.964-1.469,1.59C78.786,109.916,78.859,107.953,78.941,105.763z"/>
<path fill-rule="evenodd" clip-rule="evenodd" fill="#ffffff" class="fill" d="M114.933,133.521c-1.079,1.484-2.158,2.969-3.236,4.453
	c-0.049-0.006-0.097-0.013-0.146-0.02c0.063-0.56,0.089-1.128,0.199-1.678c0.202-1.006,0.417-2.013,0.707-2.995
	c0.102-0.351,0.396-0.675,0.671-0.939c0.868-0.833,1.769-1.632,2.656-2.445c0.059,0.024,0.117,0.049,0.176,0.073
	c-0.156,0.4-0.239,0.851-0.48,1.19c-0.869,1.23-1.793,2.422-2.69,3.633c-0.088,0.119-0.125,0.273-0.108,0.48
	c1.002-0.28,1.343-1.312,2.077-1.886C114.816,133.433,114.875,133.477,114.933,133.521z"/>
<path fill-rule="evenodd" clip-rule="evenodd" fill="#ffffff" class="fill" d="M76.21,115.495c0.01-0.231,0.014-0.462,0.031-0.693
	c0.156-2.103,0.347-4.205,0.455-6.309c0.043-0.854,0.731-1.067,1.122-1.574c0.059,0.019,0.118,0.039,0.177,0.058
	c0.024,0.512,0.084,1.026,0.062,1.537c-0.052,1.21-0.161,2.419-0.215,3.629C77.782,113.481,76.996,114.47,76.21,115.495z"/>
<path fill-rule="evenodd" clip-rule="evenodd" fill="#ffffff" class="fill" d="M79.398,115.474c0.401-0.746,0.783-1.456,1.164-2.165
	c0.042,0.077,0.084,0.153,0.127,0.229c0.295-0.034,0.607-0.016,0.881-0.111c0.757-0.262,1.494-0.584,2.248-0.858
	c1.057-0.384,2.121-0.749,3.184-1.116c0.201-0.069,0.412-0.11,0.808-0.214c-0.571,0.645-1.015,1.146-1.305,1.475
	C84.042,113.671,81.767,114.554,79.398,115.474z"/>
<path fill-rule="evenodd" clip-rule="evenodd" fill="#ffffff" class="fill" d="M78.471,105.229c-1.661,1.452-3.34,2.884-4.978,4.36
	c-1.2,1.083-2.357,2.215-3.517,3.343c-0.733,0.714-1.448,1.449-2.15,2.194c-0.545,0.579-1.037,1.208-1.593,1.776
	c-0.347,0.354-0.793,0.526-1.336,0.311c3.944-4.686,8.959-8.131,13.421-12.19C78.369,105.092,78.42,105.161,78.471,105.229z"/>
<path fill-rule="evenodd" clip-rule="evenodd" fill="#ffffff" class="fill" d="M81.514,103.738c0.407-0.326,0.859-0.688,1.481-1.187
	c0.058,1.797,0.11,3.437,0.16,5c-0.581,0.573-1.072,1.057-1.604,1.581C81.539,107.29,81.526,105.565,81.514,103.738z"/>
<path fill-rule="evenodd" clip-rule="evenodd" fill="#ffffff" class="fill" d="M82.261,122.377c0.409,1.404,0.131,2.78,1.021,3.98
	c0.013-0.006-0.115,0.131-0.226,0.12c-1.158-0.121-2.314-0.267-3.47-0.405c-0.045-0.07-0.09-0.142-0.135-0.212
	C80.364,124.729,81.275,123.598,82.261,122.377z"/>
<path fill-rule="evenodd" clip-rule="evenodd" fill="#ffffff" class="fill" d="M105.086,109.713c-0.167-0.197-0.265-0.311-0.447-0.526
	c1.807-2.877,3.615-5.753,5.458-8.687c0.282,0.189,0.436,0.291,0.669,0.446C108.868,103.877,107.004,106.753,105.086,109.713z"/>
<path fill-rule="evenodd" clip-rule="evenodd" fill="#ffffff" class="fill" d="M109.132,125.015c0.272-1.771,2.821-3.83,4.998-4.073
	c0.032,1.054-0.677,1.557-1.477,2.021c-1.089,0.634-2.154,1.309-3.233,1.961C109.341,124.972,109.238,124.982,109.132,125.015z"/>
<path fill-rule="evenodd" clip-rule="evenodd" fill="#ffffff" class="fill" d="M96.579,89.725c0.31-0.248,0.51-0.407,0.765-0.612
	c2.08,1.436,4.142,2.858,6.235,4.303c-0.12,0.176-0.178,0.275-0.25,0.362c-0.075,0.091-0.162,0.17-0.316,0.329
	C100.896,92.666,98.784,91.227,96.579,89.725z"/>
<path fill-rule="evenodd" clip-rule="evenodd" fill="#ffffff" class="fill" d="M112.308,128.327c0.371-2.22,3.749-9.92,4.624-10.435
	c-0.121,0.398-0.199,0.708-0.307,1.008c-0.239,0.656-0.491,1.307-0.742,1.958c-0.461,1.198-1.076,2.361-1.349,3.6
	c-0.312,1.416-1.446,2.303-1.938,3.571C112.564,128.112,112.465,128.168,112.308,128.327z"/>
<path fill-rule="evenodd" clip-rule="evenodd" fill="#ffffff" class="fill" d="M82.602,92.506c-0.347,0.031-0.693,0.061-1.039,0.091
	c-0.017-0.033-0.033-0.064-0.05-0.097c2.642-1.894,5.285-3.788,7.909-5.667c0.147,0.062,0.225,0.083,0.288,0.125
	c0.062,0.042,0.108,0.106,0.243,0.244c-2.432,1.818-4.832,3.613-7.232,5.408C82.681,92.575,82.641,92.541,82.602,92.506z"/>
<path fill-rule="evenodd" clip-rule="evenodd" fill="#ffffff" class="fill" d="M121.367,106.693c-0.26-0.333-0.453-0.579-0.671-0.859
	c1.007-2.57,2.004-5.119,3.043-7.771c0.171,0.207,0.298,0.361,0.458,0.554C123.267,101.271,122.341,103.913,121.367,106.693z"/>
<path fill-rule="evenodd" clip-rule="evenodd" fill="#ffffff" class="fill" d="M115.635,104.944c-0.071,0.288-0.101,0.593-0.218,0.859
	c-0.674,1.52-1.384,3.024-2.053,4.546c-0.493,1.12-0.939,2.26-1.415,3.388c-0.061,0.145-0.169,0.27-0.275,0.434
	c-0.278-0.069-0.542-0.135-0.918-0.229c1.557-3.058,3.085-6.062,4.615-9.066C115.459,104.898,115.547,104.921,115.635,104.944z"/>
<path fill-rule="evenodd" clip-rule="evenodd" fill="#ffffff" class="fill" d="M105.656,93.627c-0.264-0.259-0.417-0.409-0.536-0.526
	c1.703-2.106,3.373-4.171,5.082-6.287c0.197,0.129,0.408,0.268,0.707,0.464C109.158,89.395,107.438,91.474,105.656,93.627z"/>
<path fill-rule="evenodd" clip-rule="evenodd" fill="#ffffff" class="fill" d="M85.343,114.188c-0.275,0.412-0.549,0.824-0.699,1.05
	c-2.05,0.778-3.904,1.482-5.892,2.236c0.138-0.486,0.265-0.937,0.369-1.302c0.388-0.09,0.693-0.129,0.976-0.232
	c1.716-0.626,3.426-1.267,5.139-1.903C85.271,114.088,85.307,114.138,85.343,114.188z"/>
<path fill-rule="evenodd" clip-rule="evenodd" fill="#ffffff" class="fill" d="M84.761,100.632c0.038,0.337,0.083,0.674,0.112,1.013
	c0.118,1.394,0.23,2.788,0.339,4.116c-0.45,0.358-0.783,0.623-1.175,0.935c-0.082-1.716-0.159-3.318-0.235-4.922
	c-0.075-0.016-0.149-0.031-0.225-0.047c0.398-0.36,0.797-0.72,1.195-1.08L84.761,100.632z"/>
<path fill-rule="evenodd" clip-rule="evenodd" fill="#ffffff" class="fill" d="M104.743,112.333c0.154,1.349,0.3,2.633,0.445,3.903
	c-0.552,0.34-1.059,0.651-1.565,0.963c-0.054-0.028-0.108-0.057-0.162-0.085C103.699,115.516,103.069,113.731,104.743,112.333z"/>
<path fill-rule="evenodd" clip-rule="evenodd" fill="#ffffff" class="fill" d="M97.739,103.446c-0.148-0.296-0.218-0.436-0.335-0.67
	c0.577-0.731,1.169-1.482,1.776-2.252c0.159-0.042,0.332-0.089,0.504-0.135c-0.042-0.033-0.083-0.066-0.124-0.099
	c1.185-1.6,2.37-3.2,3.584-4.84c0.201,0.117,0.346,0.202,0.574,0.334C101.729,98.333,99.775,100.837,97.739,103.446z"/>
<path fill-rule="evenodd" clip-rule="evenodd" fill="#ffffff" class="fill" d="M117.547,116.691c-0.273,0.06-0.439,0.097-0.702,0.154
	c0.87-2.531,1.711-4.974,2.59-7.53c0.251,0.263,0.423,0.442,0.683,0.713C119.271,112.224,118.414,114.445,117.547,116.691z"/>
<path fill-rule="evenodd" clip-rule="evenodd" fill="#ffffff" class="fill" d="M92.606,109.667c0.402-0.437,0.8-0.871,1.258-1.369
	c0.248,1.34,0.486,2.629,0.732,3.957c-0.466,0.294-0.878,0.556-1.332,0.841C93.036,111.904,92.823,110.799,92.606,109.667z"/>
<path fill-rule="evenodd" clip-rule="evenodd" fill="#ffffff" class="fill" d="M81.605,94.063c-3.606,1.994-6.556,5.005-10.354,6.699
	C74.45,98.139,77.862,95.843,81.605,94.063z"/>
<path fill-rule="evenodd" clip-rule="evenodd" fill="#ffffff" class="fill" d="M78.476,90.959c-0.459,1.261-2.812,3.898-4.511,4.025
	c0.246-0.67,0.132-1.395,0.915-1.826C76.077,92.498,77.218,91.736,78.476,90.959z"/>
<path fill-rule="evenodd" clip-rule="evenodd" fill="#ffffff" class="fill" d="M83.473,125.616c-0.44-1.205,0.053-2.58-0.523-3.851
	c0.337-0.453,0.739-0.992,1.222-1.64c0.214,0.825,0.4,1.495,0.555,2.17c0.042,0.183,0.04,0.411-0.033,0.58
	C84.305,123.79,83.888,124.691,83.473,125.616z"/>
<path fill-rule="evenodd" clip-rule="evenodd" fill="#ffffff" class="fill" d="M90.852,114.938c-0.136-0.945-0.26-1.809-0.381-2.654
	c0.458-0.54,0.908-1.069,1.509-1.777c0.193,1.131,0.358,2.087,0.52,3.028C91.924,114.024,91.424,114.449,90.852,114.938z"/>
<path fill-rule="evenodd" clip-rule="evenodd" fill="#ffffff" class="fill" d="M100.59,138.438c0.669-1.223,1.337-2.446,2.085-3.813
	c0.252,1.164,0.47,2.173,0.711,3.284c-0.92,0.241-1.8,0.471-2.681,0.701C100.668,138.553,100.629,138.496,100.59,138.438z"/>
<path fill-rule="evenodd" clip-rule="evenodd" fill="#ffffff" class="fill" d="M112.249,98.364c-0.189-0.096-0.342-0.174-0.528-0.27
	c1.125-2.633,3.249-4.555,4.485-7.055c0.09,0.031,0.179,0.061,0.268,0.091c-0.034,0.2-0.016,0.431-0.111,0.594
	c-0.58,0.99-1.183,1.967-1.783,2.945c-0.694,1.133-1.393,2.263-2.092,3.392C112.437,98.146,112.365,98.218,112.249,98.364z"/>
<path fill-rule="evenodd" clip-rule="evenodd" fill="#ffffff" class="fill" d="M71.631,104.185c0.599-0.264,1.183-0.572,1.801-0.782
	c1.444-0.491,2.901-0.948,4.361-1.39c0.702-0.212,1.423-0.357,2.136-0.533c-0.143,0.595-1.081,1.311-1.796,1.422
	c-1.028,0.159-2.057,0.326-3.075,0.538c-1.134,0.237-2.257,0.529-3.385,0.798C71.658,104.221,71.645,104.202,71.631,104.185z"/>
<path fill-rule="evenodd" clip-rule="evenodd" fill="#ffffff" class="fill" d="M101.082,131.579c-1.082,0.702-2.164,1.404-3.306,2.145
	c-0.105-0.283-0.199-0.532-0.34-0.908c1.375-0.917,2.753-1.837,4.132-2.756c0.077,0.06,0.154,0.119,0.231,0.178
	c-0.202,0.483-0.404,0.967-0.605,1.45C101.156,131.651,101.119,131.615,101.082,131.579z"/>
<path fill-rule="evenodd" clip-rule="evenodd" fill="#ffffff" class="fill" d="M84.772,100.647c0.514-0.491,1.028-0.982,1.542-1.474
	c0.072,0.037,0.144,0.074,0.216,0.111c0.019,2.089,0.191,4.193-0.743,6.206c0.042-1.548,0.336-3.106-0.34-4.737
	c-0.124-0.021-0.404-0.069-0.686-0.119C84.761,100.632,84.772,100.647,84.772,100.647z"/>
<path fill-rule="evenodd" clip-rule="evenodd" fill="#ffffff" class="fill" d="M93.228,91.073c0.035,0.01,0.169,0.043,0.443,0.111
	c-2.13,2.06-4.195,4.055-6.284,6.075c-0.219-0.128-0.384-0.225-0.569-0.333C88.944,94.985,91.039,93.072,93.228,91.073z"/>
<path fill-rule="evenodd" clip-rule="evenodd" fill="#ffffff" class="fill" d="M106.791,139.688c-0.07-1.053-0.139-2.104-0.208-3.155
	c1.083-0.163,1.372-1.284,2.323-1.706c-0.637,1.641-1.275,3.282-1.912,4.923C106.926,139.73,106.858,139.709,106.791,139.688z"/>
<path fill-rule="evenodd" clip-rule="evenodd" fill="#ffffff" class="fill" d="M105.195,95.473c0.175-0.218,0.27-0.336,0.428-0.534
	c1.577,1.156,3.127,2.294,4.71,3.456c-0.101,0.171-0.188,0.319-0.33,0.559C108.39,97.785,106.81,96.642,105.195,95.473z"/>
<path fill-rule="evenodd" clip-rule="evenodd" fill="#ffffff" class="fill" d="M105.11,82.487c0.221-0.17,0.391-0.302,0.662-0.511
	c1.434,0.833,2.883,1.675,4.439,2.58c-0.258,0.215-0.428,0.357-0.586,0.49C108.11,84.188,106.639,83.354,105.11,82.487z"/>
<path fill-rule="evenodd" clip-rule="evenodd" fill="#ffffff" class="fill" d="M86.843,107.161c0.284-0.312,0.512-0.729,0.862-0.917
	c2.125-1.141,4.354-2.01,6.747-2.385c0.036,0.073,0.07,0.146,0.106,0.218c-0.362,0.179-0.709,0.4-1.089,0.529
	c-1.023,0.345-2.074,0.615-3.09,0.981c-1.054,0.38-2.082,0.833-3.115,1.267c-0.156,0.066-0.282,0.204-0.422,0.308H86.843z"/>
<path fill-rule="evenodd" clip-rule="evenodd" fill="#ffffff" class="fill" d="M78.261,119.336c0-0.758,0.406-1.132,1.115-1.349
	c1.051-0.322,2.073-0.738,3.11-1.106c0.239-0.085,0.492-0.135,0.88-0.24c-0.28,0.591-0.441,1.056-1.084,1.107
	c-1.266,0.102-2.268,0.867-3.373,1.373c-0.205,0.093-0.434,0.136-0.651,0.202L78.261,119.336z"/>
<path fill-rule="evenodd" clip-rule="evenodd" fill="#ffffff" class="fill" d="M100.332,133.3c-0.59,1.165-1.181,2.33-1.771,3.494
	c-0.064-0.003-0.129-0.007-0.194-0.011c-0.162-0.718-0.323-1.435-0.509-2.264c0.76-0.46,1.517-0.919,2.274-1.378
	C100.199,133.194,100.265,133.247,100.332,133.3z"/>
<path fill-rule="evenodd" clip-rule="evenodd" fill="#ffffff" class="fill" d="M78.257,119.323c-0.006,0.171-0.012,0.342-0.024,0.693
	c1.238-0.457,2.36-0.87,3.482-1.284c0.036,0.042,0.072,0.083,0.109,0.124c-0.309,0.386-0.617,0.772-0.943,1.18
	c-0.887,0.383-1.805,0.78-2.769,1.196c-0.22-0.68-0.076-1.289,0.148-1.895C78.261,119.336,78.257,119.323,78.257,119.323z"/>
<path fill-rule="evenodd" clip-rule="evenodd" fill="#ffffff" class="fill" d="M58.542,108.005c-0.363-0.03-0.851-0.069-1.432-0.116
	c0.316-1.448,0.859-2.671,1.872-3.776C58.831,105.449,58.691,106.683,58.542,108.005z"/>
<path fill-rule="evenodd" clip-rule="evenodd" fill="#ffffff" class="fill" d="M107.11,142.131c0.693-1.924,1.386-3.847,2.08-5.77
	c0.046,0.012,0.092,0.025,0.138,0.038c-0.148,0.866-0.311,1.729-0.441,2.598c-0.074,0.494-0.103,0.995-0.144,1.494
	c-0.05,0.615-0.341,0.967-1.438,1.711C107.239,142.178,107.174,142.154,107.11,142.131z"/>
<path fill-rule="evenodd" clip-rule="evenodd" fill="#ffffff" class="fill" d="M113.402,131.292c0.042-1.284,1.766-3.424,3.253-4.261
	c0.026,0.714-0.3,1.204-0.776,1.672C115.028,129.54,114.226,130.426,113.402,131.292z"/>
<path fill-rule="evenodd" clip-rule="evenodd" fill="#ffffff" class="fill" d="M125.35,95.758c-0.229-0.249-0.373-0.404-0.56-0.607
	c0.646-1.634,1.295-3.274,1.943-4.916c0.07-0.003,0.14-0.007,0.21-0.01c0.041,0.255,0.181,0.544,0.107,0.76
	C126.523,92.541,125.953,94.083,125.35,95.758z"/>
<path fill-rule="evenodd" clip-rule="evenodd" fill="#ffffff" class="fill" d="M84.605,97.567c-0.344,0.814-0.992,0.835-1.601,0.927
	c-1.405,0.213-2.812,0.426-4.219,0.633c-0.21,0.031-0.427,0.025-0.646-0.007C80.142,98.111,82.3,97.78,84.605,97.567z"/>
<path fill-rule="evenodd" clip-rule="evenodd" fill="#ffffff" class="fill" d="M88.364,114.837c0.453-0.537,0.849-1.005,1.244-1.473
	c0.062,0.012,0.124,0.023,0.186,0.035c0.121,0.697,0.24,1.394,0.359,2.08c-0.409,0.445-0.78,0.851-1.263,1.377
	C88.686,116.075,88.528,115.469,88.364,114.837z"/>
<path fill-rule="evenodd" clip-rule="evenodd" fill="#ffffff" class="fill" d="M60.033,103.031c0.453-0.345,0.875-0.666,1.431-1.087
	c-0.285,1.672-0.527,3.173-2.098,4.121C59.593,105.031,59.81,104.048,60.033,103.031z"/>
<path fill-rule="evenodd" clip-rule="evenodd" fill="#ffffff" class="fill" d="M112.785,85.081c-0.303-0.167-0.491-0.27-0.778-0.427
	c0.579-0.661,1.117-1.272,1.65-1.887c0.141-0.162,0.278-0.33,0.396-0.508c0.331-0.505,0.63-0.578,1.279-0.161
	C114.483,83.092,113.649,84.069,112.785,85.081z"/>
<path fill-rule="evenodd" clip-rule="evenodd" fill="#ffffff" class="fill" d="M112.328,86.909c0.133-0.161,0.254-0.307,0.435-0.525
	c1.245,0.818,2.46,1.618,3.734,2.455c-0.166,0.256-0.278,0.429-0.427,0.658C114.811,88.625,113.595,87.785,112.328,86.909z"/>
<path fill-rule="evenodd" clip-rule="evenodd" fill="#ffffff" class="fill" d="M103.886,137.718c-0.155-1.228-0.25-2.468-0.487-3.68
	c-0.133-0.688,0.096-1.153,0.658-1.626c0.048,0.765,0.104,1.529,0.142,2.294c0.04,0.819,0.069,1.639,0.085,2.459
	c0.005,0.19-0.06,0.381-0.093,0.572C104.09,137.731,103.988,137.725,103.886,137.718z"/>
<path fill-rule="evenodd" clip-rule="evenodd" fill="#ffffff" class="fill" d="M96.129,87.277c-0.135-0.075-0.272-0.15-0.366-0.201
	c1.831-1.464,3.657-2.923,5.506-4.402c0.096,0.074,0.202,0.155,0.381,0.292C99.81,84.403,98.003,85.813,96.129,87.277z"/>
<path fill-rule="evenodd" clip-rule="evenodd" fill="#ffffff" class="fill" d="M66.803,103.742c-0.77-0.048-1.314-0.082-1.842-0.114
	c0.293-0.942,1.799-1.683,3.224-1.438C67.652,102.788,67.171,103.328,66.803,103.742z"/>
<path fill-rule="evenodd" clip-rule="evenodd" fill="#ffffff" class="fill" d="M123.145,87.831c0.274,0.146,0.463,0.246,0.731,0.387
	c-0.632,1.337-1.251,2.646-1.909,4.033c-0.182-0.236-0.289-0.375-0.405-0.526C122.083,90.444,122.595,89.184,123.145,87.831z"/>
<path fill-rule="evenodd" clip-rule="evenodd" fill="#ffffff" class="fill" d="M87.79,115.724c0.18,0.743,0.314,1.298,0.449,1.854
	c-0.402,0.509-0.769,0.973-1.248,1.58c-0.144-0.768-0.253-1.354-0.383-2.05C86.905,116.761,87.279,116.322,87.79,115.724z"/>
<path fill-rule="evenodd" clip-rule="evenodd" fill="#ffffff" class="fill" d="M85.357,121.484c-0.068-0.416-0.117-0.756-0.182-1.094
	c-0.061-0.32-0.138-0.638-0.208-0.957c-0.061-0.008-0.123-0.016-0.184-0.023c0.351-0.424,0.702-0.847,1.072-1.295
	C86.58,119.494,86.47,120.278,85.357,121.484z"/>
<path fill-rule="evenodd" clip-rule="evenodd" fill="#ffffff" class="fill" d="M69.077,101.41c-0.731-0.011-1.344-0.02-1.95-0.028
	c0.417-0.894,2.494-1.692,3.611-1.355c-0.055,0.069-0.093,0.138-0.15,0.184C70.073,100.623,69.555,101.031,69.077,101.41z"/>
<path fill-rule="evenodd" clip-rule="evenodd" fill="#ffffff" class="fill" d="M69.823,99.189c0.583-0.575,1.063-1.128,1.941-1.05
	c0.308,0.027,0.634-0.227,0.96-0.325c0.22-0.065,0.453-0.081,0.681-0.12c0.025,0.049,0.05,0.098,0.076,0.145
	c-0.515,0.478-0.958,1.145-1.566,1.377C71.328,99.44,70.569,99.218,69.823,99.189z"/>
<path fill-rule="evenodd" clip-rule="evenodd" fill="#ffffff" class="fill" d="M112.028,100.599c0.146-0.234,0.247-0.395,0.385-0.615
	c1.023,0.875,1.996,1.707,2.982,2.551c-0.055,0.201-0.1,0.368-0.188,0.698C114.112,102.326,113.105,101.491,112.028,100.599z"/>
<path fill-rule="evenodd" clip-rule="evenodd" fill="#ffffff" class="fill" d="M65.961,104.472c-0.595,0.633-1.189,1.267-1.784,1.901
	c-0.305-0.053-0.595-0.103-0.955-0.164c0.229-0.483,0.436-0.92,0.632-1.332c0.72-0.202,1.376-0.386,2.033-0.57
	C65.912,104.362,65.937,104.417,65.961,104.472z"/>
<path fill-rule="evenodd" clip-rule="evenodd" fill="#ffffff" class="fill" d="M117.244,104.106c0.87,0.739,1.626,1.383,2.381,2.025
	c-0.136,0.359-0.234,0.616-0.373,0.983c-0.773-0.818-1.479-1.565-2.23-2.36C117.075,104.6,117.136,104.424,117.244,104.106z"/>
<path fill-rule="evenodd" clip-rule="evenodd" fill="#ffffff" class="fill" d="M101.724,114.604c-0.003-0.181-0.08-0.41,0.003-0.535
	c0.744-1.144,1.515-2.269,2.284-3.396c0.037-0.055,0.128-0.074,0.258-0.064c-0.519,1.487-1.417,2.749-2.347,3.992
	C101.855,114.603,101.789,114.604,101.724,114.604z"/>
<path fill-rule="evenodd" clip-rule="evenodd" fill="#ffffff" class="fill" d="M111.176,119.484c-0.1-0.772-0.185-1.42-0.276-2.132
	c0.104-0.228,0.237-0.516,0.451-0.98c0.338,0.877,0.623,1.617,0.936,2.433C111.939,119.017,111.609,119.218,111.176,119.484z"/>
<path fill-rule="evenodd" clip-rule="evenodd" fill="#ffffff" class="fill" d="M66.209,98.621c-0.065,1.495-1.146,2.026-2.094,2.809
	C63.998,99.819,65.212,99.381,66.209,98.621z"/>
<path fill-rule="evenodd" clip-rule="evenodd" fill="#ffffff" class="fill" d="M69.39,110.858c-0.193,0.151-0.372,0.406-0.582,0.436
	c-1.387,0.198-2.496,0.978-3.731,1.732c0.07-0.412,0.129-0.753,0.165-0.962c1.396-0.511,2.696-0.987,3.996-1.462
	C69.289,110.687,69.339,110.772,69.39,110.858z"/>
<path fill-rule="evenodd" clip-rule="evenodd" fill="#ffffff" class="fill" d="M114.019,136.304c-0.133,0.404-0.178,0.874-0.418,1.198
	c-0.586,0.795-1.264,1.524-1.988,2.376c-0.048-0.396-0.086-0.712-0.125-1.027c0.065,0.027,0.129,0.055,0.192,0.082
	c0.713-0.904,1.426-1.808,2.139-2.712C113.885,136.249,113.952,136.276,114.019,136.304z"/>
<path fill-rule="evenodd" clip-rule="evenodd" fill="#ffffff" class="fill" d="M80.335,89.938c1.843-1.396,3.846-2.546,5.855-3.685
	c0.045,0.069,0.089,0.138,0.134,0.207c-1.948,1.235-3.895,2.47-5.842,3.705C80.433,90.09,80.384,90.014,80.335,89.938z"/>
<path fill-rule="evenodd" clip-rule="evenodd" fill="#ffffff" class="fill" d="M100.534,119.636c-0.042-0.424-0.083-0.847-0.139-1.415
	c0.269-0.344,0.618-0.793,0.969-1.241c0.049,0.016,0.099,0.031,0.148,0.046c0.057,0.503,0.114,1.006,0.18,1.596
	c-0.31,0.336-0.656,0.709-1,1.084C100.639,119.683,100.586,119.659,100.534,119.636z"/>
<path fill-rule="evenodd" clip-rule="evenodd" fill="#ffffff" class="fill" d="M74.413,97.301c-0.325-0.173-0.569-0.302-0.889-0.471
	c1.469-0.675,2.904-1.335,4.338-1.995c0.027,0.042,0.054,0.083,0.081,0.124C76.764,95.74,75.584,96.524,74.413,97.301z"/>
<path fill-rule="evenodd" clip-rule="evenodd" fill="#ffffff" class="fill" d="M119.11,98.251c-0.715,1.392-1.43,2.784-2.145,4.177
	c-0.097-0.045-0.192-0.089-0.289-0.133c0.565-1.27,1.131-2.539,1.701-3.819c0.218-0.108,0.424-0.211,0.632-0.313
	C119.042,98.191,119.076,98.221,119.11,98.251z"/>
<path fill-rule="evenodd" clip-rule="evenodd" fill="#ffffff" class="fill" d="M120.042,85.27c0.038,0.142,0.151,0.327,0.1,0.416
	c-0.611,1.047-1.248,2.078-1.877,3.113c-0.084-0.022-0.168-0.044-0.252-0.067c0.018-0.183-0.021-0.397,0.062-0.543
	c0.564-0.986,1.154-1.957,1.735-2.933C119.888,85.26,119.965,85.265,120.042,85.27z"/>
<path fill-rule="evenodd" clip-rule="evenodd" fill="#ffffff" class="fill" d="M116.099,125.003c0.252,0.043,0.407,0.069,0.586,0.101
	c0.301-0.298,0.609-0.603,0.995-0.984c-0.093,0.373-0.16,0.638-0.204,0.816c-0.791,0.8-1.524,1.544-2.257,2.287
	c-0.042-0.029-0.083-0.058-0.125-0.087C115.426,126.431,115.758,125.727,116.099,125.003z"/>
<path fill-rule="evenodd" clip-rule="evenodd" fill="#ffffff" class="fill" d="M69.328,97.495c0.006-0.926,0.754-1.65,2.035-2.03
	C71.461,96.525,71.166,96.431,69.328,97.495z"/>
<path fill-rule="evenodd" clip-rule="evenodd" fill="#ffffff" class="fill" d="M63.376,100.849c-0.08,1.135-0.488,2.016-1.613,2.669
	C62.178,102.453,61.93,101.205,63.376,100.849z"/>
<path fill-rule="evenodd" clip-rule="evenodd" fill="#ffffff" class="fill" d="M103.694,81.182c-0.197,0.184-0.327,0.305-0.488,0.454
	c-0.81-0.384-1.616-0.766-2.508-1.189c0.253-0.158,0.474-0.296,0.751-0.469C102.192,80.376,102.921,80.767,103.694,81.182z"/>
<path fill-rule="evenodd" clip-rule="evenodd" fill="#ffffff" class="fill" d="M91.966,86.651c1.193,0.257,2.28,0.809,3.476,1.344
	c-0.223,0.208-0.363,0.338-0.564,0.525c-0.993-0.565-1.974-1.124-2.955-1.682C91.938,86.776,91.952,86.714,91.966,86.651z"/>
<path fill-rule="evenodd" clip-rule="evenodd" fill="#ffffff" class="fill" d="M109.096,116.132c-1.061,0.474-1.974,0.881-3.016,1.347
	c0.584-0.803,2.553-2.019,3.398-2.108C109.316,115.691,109.185,115.954,109.096,116.132z"/>
<path fill-rule="evenodd" clip-rule="evenodd" fill="#ffffff" class="fill" d="M119.277,98.029c-0.424-0.615,0.214-2.432,1.082-3.538
	c0.079,0.179,0.214,0.338,0.178,0.431C120.15,95.918,119.737,96.906,119.277,98.029z"/>
<path fill-rule="evenodd" clip-rule="evenodd" fill="#ffffff" class="fill" d="M112.411,120.411c0.885-0.608,1.771-1.218,2.733-1.88
	c-0.021,1-1.226,1.867-2.631,2.049C112.479,120.523,112.445,120.468,112.411,120.411z"/>
<path fill-rule="evenodd" clip-rule="evenodd" fill="#ffffff" class="fill" d="M79.883,121.473c-0.56,0.726-1.12,1.452-1.747,2.266
	c-0.023-0.621-0.041-1.129-0.062-1.747c0.556-0.211,1.146-0.434,1.736-0.657C79.835,121.38,79.859,121.427,79.883,121.473z"/>
<path fill-rule="evenodd" clip-rule="evenodd" fill="#ffffff" class="fill" d="M117.92,90.888c0.148-0.187,0.241-0.303,0.39-0.491
	c0.703,0.577,1.375,1.126,2.069,1.695c-0.136,0.23-0.221,0.375-0.345,0.585C119.319,92.072,118.654,91.51,117.92,90.888z"/>
<path fill-rule="evenodd" clip-rule="evenodd" fill="#ffffff" class="fill" d="M95.156,128.272c-0.502-1.214,0.078-2.148,0.754-3.092
	C96.162,126.252,95.985,126.966,95.156,128.272z"/>
<path fill-rule="evenodd" clip-rule="evenodd" fill="#ffffff" class="fill" d="M102.837,115.128c0.046,0.915,0.086,1.691,0.126,2.486
	c-0.192,0.162-0.371,0.312-0.564,0.475C102.044,117.179,102.209,115.87,102.837,115.128z"/>
<path fill-rule="evenodd" clip-rule="evenodd" fill="#ffffff" class="fill" d="M99.849,119.356c-0.001,0.43-0.002,0.859-0.003,1.264
	c-0.346,0.422-0.681,0.83-1.077,1.312c-0.098-0.341-0.17-0.594-0.242-0.848c0.408-0.6,0.807-1.185,1.206-1.771
	C99.771,119.327,99.81,119.342,99.849,119.356z"/>
<path fill-rule="evenodd" clip-rule="evenodd" fill="#ffffff" class="fill" d="M66.862,99.218c0.021-1.114,0.725-1.625,1.556-2.064
	C68.658,98.011,68.417,98.328,66.862,99.218z"/>
<path fill-rule="evenodd" clip-rule="evenodd" fill="#ffffff" class="fill" d="M81.376,96.406c-0.848,0.208-1.595,0.391-2.343,0.575
	c-0.019-0.047-0.037-0.095-0.056-0.142c0.777-0.47,1.556-0.939,2.467-1.49C81.416,95.792,81.396,96.096,81.376,96.406z"/>
<path fill-rule="evenodd" clip-rule="evenodd" fill="#ffffff" class="fill" d="M116.541,121.634c0.29-0.82,0.58-1.64,0.896-2.534
	C118.146,120.077,117.723,120.65,116.541,121.634z"/>
<path fill-rule="evenodd" clip-rule="evenodd" fill="#ffffff" class="fill" d="M105.246,77.293c-0.666,1.117-2.302,2.227-2.921,1.963
	C103.351,78.566,104.299,77.93,105.246,77.293z"/>
<path fill-rule="evenodd" clip-rule="evenodd" fill="#ffffff" class="fill" d="M96.738,124.809c-0.285-1.124,0.797-1.627,1.109-2.495
	C98.162,123.449,97.17,123.991,96.738,124.809z"/>
<path fill-rule="evenodd" clip-rule="evenodd" fill="#ffffff" class="fill" d="M111.483,141.169c0.397-0.401,0.717-0.723,1.037-1.045
	c0.047,0.021,0.094,0.042,0.141,0.062c-0.301,0.815-0.604,1.629-0.905,2.445c-0.046,0.003-0.092,0.004-0.138,0.007
	C111.569,142.106,111.521,141.575,111.483,141.169z"/>
<path fill-rule="evenodd" clip-rule="evenodd" fill="#ffffff" class="fill" d="M118.821,121.032c-0.348,1.28-1.415,2.073-2.136,3.1
	c-0.044-0.029-0.089-0.059-0.134-0.088c0.682-1.052,1.365-2.103,2.047-3.155C118.672,120.937,118.747,120.984,118.821,121.032z"/>
<path fill-rule="evenodd" clip-rule="evenodd" fill="#ffffff" class="fill" d="M63.464,107.092c-0.712,0.836-1.314,1.543-1.961,2.303
	C61.5,108.462,62.478,107.251,63.464,107.092z"/>
<path fill-rule="evenodd" clip-rule="evenodd" fill="#ffffff" class="fill" d="M105.794,80.613c0.953-0.866,1.906-1.732,2.858-2.597
	c0.067,0.078,0.136,0.157,0.204,0.236c-0.977,0.838-1.954,1.676-2.931,2.514C105.881,80.714,105.838,80.664,105.794,80.613z"/>
<path fill-rule="evenodd" clip-rule="evenodd" fill="#ffffff" class="fill" d="M95.437,82.414c0.969-0.493,1.648-1.418,2.67-1.831
	c0.061,0.092,0.123,0.184,0.184,0.276c-0.907,0.584-1.813,1.169-2.721,1.754C95.526,82.547,95.481,82.48,95.437,82.414z"/>
<path fill-rule="evenodd" clip-rule="evenodd" fill="#ffffff" class="fill" d="M121.8,108.944c0.645,0.525,0.667,0.726,0.22,1.693
	C121.47,110.382,121.387,109.818,121.8,108.944z"/>
<path fill-rule="evenodd" clip-rule="evenodd" fill="#ffffff" class="fill" d="M109.785,120.734c-0.058-0.315-0.09-0.492-0.131-0.713
	c0.173-0.334,0.361-0.699,0.624-1.207c0.164,0.455,0.269,0.749,0.394,1.096C110.394,120.168,110.117,120.426,109.785,120.734z"/>
<path fill-rule="evenodd" clip-rule="evenodd" fill="#ffffff" class="fill" d="M120.363,108.656c-0.147-0.226-0.294-0.452-0.444-0.682
	c0.112-0.289,0.209-0.54,0.339-0.878c0.246,0.236,0.425,0.409,0.677,0.65c-0.123,0.301-0.247,0.61-0.372,0.917
	C120.497,108.662,120.43,108.66,120.363,108.656z"/>
<path fill-rule="evenodd" clip-rule="evenodd" fill="#ffffff" class="fill" d="M72.253,95.746c0.074-0.679,0.262-1.258,0.989-1.513
	C73.282,95.116,72.963,95.608,72.253,95.746z"/>
<path fill-rule="evenodd" clip-rule="evenodd" fill="#ffffff" class="fill" d="M95.104,81.441c-0.114-0.14-0.183-0.224-0.299-0.367
	c0.653-0.393,1.265-0.761,1.876-1.128c0.054,0.08,0.107,0.159,0.161,0.239C96.271,80.598,95.7,81.011,95.104,81.441z"/>
<path fill-rule="evenodd" clip-rule="evenodd" fill="#ffffff" class="fill" d="M123.355,95.895c-0.494-0.535-0.987-1.072-1.479-1.608
	c0.067-0.057,0.135-0.115,0.203-0.173c0.335,0.683,1.394,0.736,1.472,1.643C123.486,95.803,123.421,95.85,123.355,95.895z"/>
<path fill-rule="evenodd" clip-rule="evenodd" fill="#ffffff" class="fill" d="M82.477,101.805c-0.657,0.546-1.315,1.093-1.972,1.639
	c-0.053-0.062-0.105-0.123-0.158-0.184c0.648-0.558,1.296-1.114,1.943-1.672C82.353,101.66,82.414,101.732,82.477,101.805z"/>
<path fill-rule="evenodd" clip-rule="evenodd" fill="#ffffff" class="fill" d="M90.512,83.683c0.603-0.396,1.205-0.793,1.808-1.189
	c0.053,0.082,0.106,0.165,0.16,0.248c-0.611,0.388-1.221,0.777-1.832,1.166C90.602,83.833,90.557,83.758,90.512,83.683z"/>
<path fill-rule="evenodd" clip-rule="evenodd" fill="#ffffff" class="fill" d="M97.122,87.726c0.66-0.568,1.319-1.137,1.979-1.705
	c0.035,0.043,0.071,0.086,0.106,0.129c-0.642,0.589-1.153,1.337-1.965,1.722C97.202,87.824,97.162,87.775,97.122,87.726z"/>
<path fill-rule="evenodd" clip-rule="evenodd" fill="#ffffff" class="fill" d="M106.684,78.64c-0.616,0.532-1.233,1.063-1.85,1.595
	c-0.046-0.052-0.093-0.104-0.138-0.155c0.607-0.545,1.214-1.089,1.821-1.634C106.572,78.511,106.628,78.575,106.684,78.64z"/>
<path fill-rule="evenodd" clip-rule="evenodd" fill="#ffffff" class="fill" d="M111.354,99.907c-0.259-0.133-0.445-0.228-0.699-0.358
	c0.172-0.214,0.291-0.363,0.437-0.545c0.205,0.083,0.382,0.153,0.647,0.261C111.604,99.492,111.499,99.666,111.354,99.907z"/>
<path fill-rule="evenodd" clip-rule="evenodd" fill="#ffffff" class="fill" d="M103.896,94.609c0.158-0.244,0.264-0.406,0.405-0.625
	c0.205,0.116,0.381,0.216,0.593,0.336c-0.13,0.228-0.233,0.408-0.376,0.657C104.31,94.854,104.138,94.752,103.896,94.609z"/>
<path fill-rule="evenodd" clip-rule="evenodd" fill="#ffffff" class="fill" d="M110.927,85.961c0.138-0.188,0.229-0.311,0.351-0.478
	c0.24,0.126,0.461,0.243,0.752,0.396c-0.129,0.192-0.23,0.343-0.367,0.548C111.409,86.267,111.199,86.134,110.927,85.961z"/>
<path fill-rule="evenodd" clip-rule="evenodd" fill="#ffffff" class="fill" d="M99.593,79.241c0.223,0.113,0.379,0.193,0.549,0.279
	c-0.23,0.545-0.576,0.592-1.118,0.281C99.232,79.596,99.414,79.418,99.593,79.241z"/>
<path fill-rule="evenodd" clip-rule="evenodd" fill="#ffffff" class="fill" d="M93.905,90.983c0.055-0.741,0.561-1.205,1.169-1.153
	C94.699,90.2,94.353,90.543,93.905,90.983z"/>
<path fill-rule="evenodd" clip-rule="evenodd" fill="#ffffff" class="fill" d="M66.991,113.014c-0.476,0.244-0.953,0.486-1.429,0.73
	c-0.03-0.051-0.059-0.102-0.089-0.152c0.459-0.27,0.918-0.54,1.376-0.81C66.896,112.859,66.943,112.937,66.991,113.014z"/>
<path fill-rule="evenodd" clip-rule="evenodd" fill="#ffffff" class="fill" d="M117.129,89.424c0.204,0.151,0.336,0.248,0.495,0.364
	c-0.144,0.184-0.251,0.322-0.388,0.497c-0.146-0.071-0.277-0.134-0.448-0.216C116.898,89.859,116.987,89.692,117.129,89.424z"/>
<path fill-rule="evenodd" clip-rule="evenodd" fill="#ffffff" class="fill" d="M105.014,130.504c-0.064,0.374-0.128,0.747-0.192,1.121
	c-0.053-0.004-0.105-0.007-0.157-0.011c0.02-0.382,0.041-0.764,0.061-1.147C104.822,130.479,104.918,130.492,105.014,130.504z"/>
<path fill-rule="evenodd" clip-rule="evenodd" fill="#ffffff" class="fill" d="M124.424,96.351c0.191,0.366,0.31,0.595,0.43,0.824
	c-0.055,0.027-0.11,0.054-0.166,0.082C124.408,97.101,124.087,96.963,124.424,96.351z"/>
</svg>
