<svg version="1.1" id="svg" xmlns="http://www.w3.org/2000/svg" xmlns:xlink="http://www.w3.org/1999/xlink" x="0px" y="0px"
	 width="200px" height="200px" viewBox="0 0 200 200" enable-background="new 0 0 200 200" xml:space="preserve">
<path class="stroke" fill="#a70c1e"  fill-rule="evenodd" clip-rule="evenodd" d="M98.849,64.151c0.806-0.114,1.505-0.214,2.362-0.334
	c0.172,0.677,0.405,1.225,0.438,1.784c0.299,4.912,1.874,9.46,4.21,13.709c2.573,4.675,4.85,9.471,6.801,14.428
	c1.016,2.579,2.096,5.144,2.928,7.783c1.326,4.196,0.711,8.335-0.584,12.468c-0.977,3.113-2.985,5.397-5.43,7.326
	c-1.078,0.852-2.438,1.463-3.765,1.857c-2.893,0.86-5.861,1.313-8.895,0.753c-1.12-0.206-2.253-0.342-3.365-0.575
	c-4.551-0.954-7.753-3.725-9.877-7.72c-0.976-1.834-1.563-3.891-1.647-6.008c-0.093-2.363-0.137-4.741,0.615-7.033
	c0.549-1.681,0.993-3.422,1.771-4.993c1.027-2.069,2.264-4.045,3.538-5.977c2.896-4.388,5.273-9.044,7.13-13.942
	c1.516-3.994,2.698-8.108,3.441-12.332C98.585,64.991,98.709,64.649,98.849,64.151z"/>
<path fill-rule="evenodd" clip-rule="evenodd" fill="#f5f1eb" class="fill" d="M98.216,82.654c0.755,0.654,0.598,1.387,0.495,2.11
	c-0.388,2.736-0.314,5.436,0.538,8.098c0.333,1.036,0.642,2.104,0.76,3.181c0.169,1.525,0.247,3.077,0.183,4.61
	c-0.069,1.641-1.045,2.752-2.518,3.45c-1.801,0.853-3.689,0.971-5.596,0.582c-1.871-0.382-3.161-1.995-3.174-3.93
	c-0.017-2.355,0.643-4.593,1.471-6.764c1.35-3.538,3.188-6.832,5.226-10.018C96.213,83.021,96.971,82.41,98.216,82.654z"/>
<path fill-rule="evenodd" clip-rule="evenodd" fill="#f5f1eb" class="fill" d="M94.986,118.649c0.943-0.199,1.635-0.359,2.331-0.489
	c1.974-0.369,3.678-1.235,5.18-2.583c1.695-1.519,3.493-2.95,4.386-5.125c0.67-1.635,1.355-3.292,1.757-5.003
	c0.492-2.107,0.69-4.284,1.032-6.428c0.041-0.258,0.179-0.499,0.372-1.014c0.388,1.231,0.793,2.188,0.982,3.183
	c1.034,5.459-0.347,10.36-3.578,14.791c-0.883,1.211-2.073,2.056-3.548,2.388c-1.906,0.429-3.815,0.854-5.746,1.147
	C97.154,119.669,96.061,119.725,94.986,118.649z"/>
</svg>
