<svg version="1.1" id="svg" xmlns="http://www.w3.org/2000/svg" xmlns:xlink="http://www.w3.org/1999/xlink" x="0px" y="0px"
	 width="200px" height="200px" viewBox="0 0 200 200" enable-background="new 0 0 200 200" xml:space="preserve">
<path class="stroke" fill="#1d4442"  d="M147.541,125.236c-3.44-0.27-6.886-0.488-10.321-0.815c-2.735-0.261-5.332-1.054-7.229-3.151
	c-1.378-1.522-2.51-3.268-3.731-4.928c-0.122-0.166-0.118-0.435-0.145-0.657c-0.201-1.688-1.574-3.281-3.272-3.492
	c-1.814-0.226-3.543-0.516-4.853-2.05c0.051-0.287,0.114-0.638,0.161-0.894c-1.042-2.682-3.483-3.026-5.813-3.544
	c0.482-2.425-0.218-4.135-2.61-4.91c0.758-1.312,1.155-2.5-0.137-3.574c0.153-0.324,0.274-0.582,0.302-0.643
	c1.13-0.596,2.073-1.096,2.851-1.507c0.39-1.509,0.021-2.521-1.03-3.19c-0.016-1.161,0.128-1.346,1.123-1.559
	c0.189-0.04,0.378-0.104,0.551-0.19c1.877-0.951,2.698-4.081,0.77-5.334c-0.148-0.097-0.224-0.306-0.357-0.498
	c1.225-2.309,2.323-4.639,2.667-7.265c0.458-3.487,1.175-6.913,2.495-10.204c1.227-3.06,2.545-6.032,4.703-8.599
	c1.203-1.432,2.141-3.088,3.156-4.583c-1.071-1.585-9.072-3.728-11.978-3.326c-0.296,0.347-0.61,0.716-0.932,1.092
	c-1.403-0.207-2.75-0.409-4.197-0.623c0.088-0.785,0.151-1.435,0.235-2.079c0.234-1.813-0.719-3.11-2.526-3.428
	c-0.97-0.17-1.947-0.307-2.907-0.521c-4.116-0.922-8.285-1.396-12.499-1.477c-1.897-0.036-3.797-0.06-5.695-0.036
	c-3.574,0.043-7.157-0.015-10.719,0.232c-3.499,0.243-6.976,0.802-10.46,1.238c-0.968,0.122-1.993,0.205-2.18,1.465
	c0.06,0.22,0.172,0.44,0.172,0.658c-0.012,3.257-0.1,6.515-0.045,9.77c0.057,3.352,0.184,6.706,0.399,10.05
	c0.237,3.669,0.765,7.324,0.883,10.995c0.119,3.701,0.325,7.424-0.505,11.111c-0.502,2.231-0.725,4.525-1.083,6.856
	c-0.768,0.077-1.456,0.099-2.125,0.222c-3.386,0.624-6.592,1.828-9.624,3.4c-2.991,1.552-5.777,3.511-7.64,6.385
	c-1.288,1.987-2.21,4.214-3.259,6.354c-0.671,1.37-1.273,2.773-1.844,4.025c0.628,1.309,1.594,1.759,2.64,1.889
	c1.095,0.136,1.59-0.739,1.996-1.603c0.49-1.04,0.972-2.085,1.471-3.12c0.112-0.231,0.243-0.48,0.433-0.645
	c1.034-0.892,2.117-1.729,3.134-2.64c2.823-2.532,6.089-4.342,9.523-5.871c0.806-0.358,1.664-0.603,2.649-0.954
	c-0.09,0.468-0.102,0.669-0.167,0.85c-1.574,4.393-2.11,8.952-2.02,13.578c0.071,3.615,0.378,7.228,0.54,10.842
	c0.169,3.793,0.764,7.515,1.747,11.174c0.101,0.374,0.466,0.86,0.803,0.957c1.596,0.446,3.211,0.863,4.846,1.114
	c1.124,0.173,1.625-0.42,1.642-1.569c0.01-0.574,0.002-1.148,0.002-1.725c0.091-0.011,0.18-0.022,0.27-0.033
	c0.069,0.293,0.173,0.583,0.2,0.88c0.079,0.851,0.079,1.712,0.21,2.554c0.058,0.376,0.268,0.835,0.561,1.048
	c0.81,0.587,3.017,0.225,3.605-0.388c0.193-0.919,0.352-1.679,0.536-2.552c0.414,0.19,0.698,0.231,0.734,0.35
	c0.369,1.208,0.697,2.428,1.081,3.798c0.482,0.108,1.04,0.294,1.611,0.355c2.956,0.322,3.189,0.147,3.849-2.709
	c0.268-1.166,0.856-1.729,1.901-1.533c1.992,0.375,3.976,0.823,5.928,1.366c0.433,0.12,0.87,0.706,1.043,1.174
	c0.34,0.915,0.491,1.9,0.73,2.854c0.285,1.136,1.273,1.861,2.461,1.86c2.005-0.003,3.781-0.422,4.612-2.499
	c1.423,0.291,1.166,1.632,1.708,2.384c3.923,1.605,5.719,1.947,8.895,1.654c0.29-0.659,0.618-1.407,0.96-2.186
	c0.951,0.263,0.947,1.059,1.131,1.658c0.249,0.809,0.705,1.307,1.526,1.479c1.346,0.278,2.683,0.634,4.042,0.812
	c0.797,0.105,1.632-0.062,2.31-0.101c1.024-2.304,1.024-2.304,2.636-1.864c0.101,0.166,0.255,0.35,0.33,0.559
	c0.394,1.104,1.148,1.766,2.324,1.837c1.721,0.105,3.445,0.219,5.168,0.198c0.6-0.008,1.195-0.406,1.668-0.58
	c0.271-1.063-0.054-2.143,1.081-2.571c1.443,0.211,1.534,1.372,1.77,2.539c0.424,0.146,0.875,0.423,1.336,0.439
	c1.664,0.053,3.336,0.092,4.997-0.005c1.902-0.109,2.07-0.352,2.243-2.253c0.006-0.061,0.05-0.118,0.084-0.194
	c0.781-0.793,1.589-0.569,2.218,0.137c0.714,0.808,1.551,1.146,2.542,0.91c1.651-0.393,3.3-0.83,4.901-1.387
	c0.494-0.172,1.012-0.721,1.206-1.219c0.521-1.337,1.079-2.715,1.25-4.122c0.335-2.766,0.587-5.566,0.554-8.348
	c-0.032-2.581-0.798-5.057-2.384-7.178C150.414,126.149,149.153,125.364,147.541,125.236z"/>
<path fill-rule="evenodd" clip-rule="evenodd" fill="#fef158" class="fill" d="M73.722,77.311c-1.322-1.226-1.566-2.608-1.592-3.979
	c-0.032-1.751-0.338-3.392-1.164-4.933c-1.664-3.106-1.878-6.499-1.971-9.92c-0.077-2.861-0.143-5.727-0.322-8.582
	c-0.051-0.818-0.482-1.611-0.83-2.7c1.156-0.305,2.404-0.784,3.692-0.947c2.797-0.354,5.61-0.658,8.425-0.77
	c2.083-0.081,4.18,0.176,6.451,0.292c-0.299,0.664-0.471,1.187-0.752,1.646c-1.06,1.723-0.829,3.405,0.192,5.011
	c1.474,2.314,2.24,4.786,2.065,7.548c-0.078,1.242,0.278,2.392,0.981,3.375c1.412,0.32,2.289-0.032,2.743-1.31
	c0.47-1.317,0.583-2.778,1.145-4.046c0.692-1.562,1.684-2.992,2.556-4.473c0.132-0.225,0.375-0.391,0.479-0.623
	c0.956-2.136,2.89-3.354,4.47-4.822c2.107,0.137,4.16,0.269,6.317,0.408c-0.032,0.333-0.021,0.623-0.093,0.892
	c-1.012,3.715-2.473,7.218-4.395,10.584c-2.095,3.671-4.048,7.496-4.571,11.77c-0.339,2.762-0.257,5.575-0.368,8.502
	c-0.3,0.07-0.797,0.189-1.295,0.308c-0.652-0.994-1.251-1.964-2.565-2.086c-1.171-0.109-2.497,0.767-3.112,2.13
	c-0.54,1.195-0.318,2.726,0.552,3.463c0.983,0.835,2.186,0.545,3.318,0.556c0.583,0.007,1.164-0.07,1.748-0.086
	c0.586-0.017,1.173-0.005,1.819-0.005c0,0.493,0,0.972,0,1.529c-2.666,0.082-5.3,0.084-7.919,0.278
	c-1.18,0.088-2.331,0.553-3.493,0.858c-0.241,0.062-0.47,0.174-0.993,0.371c0.7-2.013,1.308-3.792,1.94-5.562
	c0.718-2.009,1.637-3.908,3.599-4.987c0.772-0.426,1.669-0.722,2.541-0.837c1.388-0.182,2.612-0.975,2.703-1.991
	c0.161-1.797-0.495-2.734-2.296-3.045c-2.423-0.419-4.585,0.544-6.409,1.887c-3.391,2.499-5.637,5.918-6.868,9.971
	c-0.722,2.377-1.261,4.832-2.226,7.104c-1.093,2.569-3.316,3.975-6.042,4.536c-1.497,0.31-3.001,0.585-4.662,0.907
	c0.273-1.125,0.49-2.025,0.727-2.997c0.133-0.097,0.303-0.257,0.502-0.356c2.527-1.263,3.906-3.545,5.406-5.799
	c1.237-1.86,2.779-3.544,4.335-5.16c1.425-1.481,2.627-2.933,2.116-5.173c-0.342-1.501-1.377-2.024-2.692-1.226
	c-0.924,0.563-1.753,1.283-2.669,1.861C74.778,76.977,74.214,77.114,73.722,77.311z M91.542,64.896
	c0.019,1.853,1.002,2.667,2.593,2.06c0.694-0.265,1.358-0.673,1.952-1.125c0.771-0.588,1.051-1.839,0.66-2.466
	c-0.67-1.079-2.052-1.691-3.131-1.388C92.5,62.292,91.528,63.658,91.542,64.896z M94.78,58.1c0.756,1.919,1.545,2.457,3.173,2.162
	c0.872-0.16,2.149-1.705,2.191-2.653c0.034-0.748-0.677-1.581-1.535-1.798C97.021,55.411,95.614,56.254,94.78,58.1z M101.156,50.138
	c-1.469,0.018-2.741,1.033-2.703,2.161c0.04,1.219,1.194,2.41,2.307,2.381c1.415-0.035,3.025-1.463,2.977-2.638
	C103.695,51.022,102.476,50.122,101.156,50.138z"/>
<path fill-rule="evenodd" clip-rule="evenodd" fill="#fef158" class="fill" d="M149.784,132.731c0.516,1.003,0.383,4.694-0.348,8.987
	c-1.595,0.234-3.261,0.543-4.939,0.714c-2.743,0.279-5.491,0.564-8.244,0.671c-2.528,0.097-5.066,0.001-7.598-0.086
	c-2.598-0.088-5.196-0.223-7.788-0.42c-5.375-0.408-10.736-0.943-16.014-2.093c-6.059-1.319-12.149-2.517-18.16-4.03
	c-4.571-1.152-9.099-2.548-13.532-4.149c-3.073-1.113-5.952-2.763-8.918-4.168c-0.354-0.167-0.717-0.317-1.354-0.435
	c-0.294-3.513-0.588-7.024-0.882-10.536c0.115-0.05,0.229-0.101,0.345-0.15c1.1,0.552,2.172,1.177,3.307,1.645
	c3.338,1.377,6.667,2.785,10.062,4.008c4.598,1.656,9.267,3.115,13.882,4.724c4.784,1.67,9.647,2.979,14.661,3.768
	c4.669,0.732,9.306,1.673,13.972,2.42c1.811,0.29,3.663,0.363,5.5,0.438c3.223,0.134,6.452,0.11,9.671,0.301
	c4.53,0.27,8.963-0.302,13.378-1.211C147.771,132.926,148.786,132.859,149.784,132.731z"/>
<path fill-rule="evenodd" clip-rule="evenodd" fill="#fef158" class="fill" d="M97.715,91.342c0.081,1.277,0.142,2.251,0.209,3.304
	c-0.419,0.131-0.845,0.264-1.271,0.397c0.006-0.055,0.011-0.111,0.017-0.167c-1.139-0.251-2.299-0.428-3.411-0.767
	c-2.083-0.635-3.676,0.265-4.685,1.844c-1.642,2.568-4.122,3.747-6.764,4.776c-1.396,0.542-2.23,1.652-2.84,2.885
	c-0.601,1.214,0.38,2.536,1.815,2.747c2.034,0.3,4.001-0.005,5.928-0.612c1.744-0.55,3.478-1.143,5.191-1.782
	c2.171-0.811,4.314-1.696,6.477-2.531c0.183-0.07,0.417-0.01,0.654,0.199c-1.337,0.751-2.675,1.503-4.28,2.401
	c-1.646-0.005-2.842,0.941-2.748,2.448c0.069,1.115,1.079,2.413,2.06,2.646c1.909,0.454,2.975,0.114,3.773-1.231
	c0.251-0.423,0.453-0.875,0.739-1.436c0.439-0.179,0.976-0.399,1.565-0.641c0.884,1.684,2.017,3.052,3.934,3.963
	c-0.839,0.604-1.547,1.272-2.383,1.675c-1.275,0.611-1.938,1.462-1.734,2.625c0.255,1.458,1.29,2.368,2.694,2.374
	c2.038,0.01,2.715-0.492,3.431-2.42c0.16-0.43,0.501-0.793,0.861-1.344c1.342,1.075,2.539,2.037,3.863,3.1
	c-2.495,1.08-4.692,2.059-6.913,2.982c-1.763,0.733-2.846,2.722-2.365,4.633c1.375,0.647,2.778,1.032,4.37,0.354
	c1.227-0.523,2.562-0.79,3.805-1.283c1.467-0.582,2.884-1.286,4.163-1.863c0.241-0.79,0.412-1.348,0.585-1.912
	c2.262,0.96,3.485,2.939,2.972,5.209c-0.482,2.133-1.226,4.207-1.891,6.296c-0.125,0.391-0.424,0.727-0.675,1.142
	c-18.45-2.461-35.685-8.697-52.762-16.035c0.229-1.501,0.427-2.806,0.665-4.373c0.896,0.827,1.534,1.534,2.288,2.078
	c0.641,0.462,1.393,0.982,2.136,1.055c2.295,0.221,4.401,0.898,6.461,1.907c2.607,1.278,5.432,1.686,8.317,1.769
	c2.115,0.061,4.226,0.247,6.341,0.273c0.806,0.012,1.629-0.215,2.423-0.417c1.759-0.445,2.324-2.785,1.11-4.307
	c-2.675-1.033-5.413-0.756-8.124-0.58c-2.796,0.181-5.509,0.04-8.087-1.204c-1.792-0.867-3.782-1.44-5.378-2.573
	c-1.88-1.335-3.445-3.12-5.12-4.739c-0.69-0.668-0.316-1.378-0.073-1.864c2.756-0.589,5.325-1.295,7.941-1.655
	c3.286-0.448,5.911-2.004,8.056-4.375c1.016-1.124,1.695-2.553,2.52-3.849c0.138-0.215,0.235-0.455,0.402-0.787
	c2.277,1.181,4.462-0.39,6.743-0.045c1.273,1.812,2.802,1.956,4.683,0.545C95.962,91.754,96.772,91.667,97.715,91.342z"/>
<path fill-rule="evenodd" clip-rule="evenodd" fill="#fef158" class="fill" d="M107.85,81.857c-1.324-0.388-2.288-0.711-3.272-0.949
	c-0.948-0.229-1.918-0.369-2.991-0.568c0-1.091-0.056-2.205,0.012-3.312c0.145-2.396,0.353-4.784,0.536-7.177
	c0.166-2.17,0.897-4.158,1.943-6.044c1.225-2.21,2.532-4.38,3.653-6.64c0.723-1.459,1.175-3.051,1.803-4.729
	c1.954,0.208,4.006,0.068,5.917,1.24c0.432,2.231-0.064,4.328-1.008,6.35c-1.388,2.97-2.824,5.917-4.198,8.892
	c-1.117,2.418-1.427,5.026-1.698,7.643C108.368,78.275,108.101,79.978,107.85,81.857z"/>
<path fill-rule="evenodd" clip-rule="evenodd" fill="#fef158" class="fill" d="M149.459,130.815c-9.902,2.846-19.893,2-29.986,1.215
	c0.503-1.677,1.046-3.208,1.409-4.782c0.3-1.301,0.481-2.646,0.52-3.977c0.019-0.626-0.297-1.36-0.682-1.884
	c-1.122-1.524-2.354-2.967-3.643-4.565c1.117-0.175,2.251-0.352,3.247-0.506c1.671,1.139,3.254,2.171,4.776,3.289
	c0.4,0.295,0.725,0.813,0.881,1.295c0.342,1.053,0.325,2.286,0.877,3.188c0.68,1.108,1.69,2.085,2.737,2.886
	c1.832,1.403,4.082,1.838,6.312,1.86c1.437,0.013,2.882-0.507,4.315-0.822c1.057-0.233,2.094-0.566,3.155-0.779
	C145.758,126.755,148.881,127.973,149.459,130.815z"/>
<path fill-rule="evenodd" clip-rule="evenodd" fill="#fef158" class="fill" d="M44.274,110.222c-0.483-0.39-0.875-0.706-1.245-1.005
	c2.754-5,6.901-7.949,11.852-9.957c3.765-1.528,7.658-2.16,11.719-2.262c2.401-0.06,4.849-0.503,7.164-1.165
	c3.81-1.09,6.123-3.8,7.049-7.646c0.769-3.188,1.419-6.4,3.296-9.198c1.46-2.176,2.972-4.304,5.397-5.482
	c0.968-0.471,2.076-0.657,3.301-1.027c-0.059,0.643-0.087,0.952-0.115,1.252c-1.222,0.474-2.47,0.808-3.569,1.41
	c-2.216,1.217-3.742,3.081-4.456,5.53c-0.962,3.299-1.683,6.682-2.86,9.9c-1.385,3.786-3.997,6.46-8.079,7.544
	c-2.827,0.751-5.703,0.797-8.576,0.989c-4.96,0.335-9.621,1.618-13.867,4.284c-2.073,1.301-4.002,2.755-5.527,4.688
	C45.276,108.689,44.868,109.358,44.274,110.222z"/>
<path fill-rule="evenodd" clip-rule="evenodd" fill="#fef158" class="fill" d="M113.25,87.194c-0.271,0.418-0.538,0.835-0.882,1.369
	c-0.435-0.326-0.814-0.526-1.084-0.825c-3.265-3.604-7.604-4.529-12.164-4.875c-1.074-0.081-2.163,0.029-3.242-0.009
	c-0.367-0.014-0.728-0.207-1.342-0.396C98.401,80.95,108.878,82.359,113.25,87.194z"/>
<path fill-rule="evenodd" clip-rule="evenodd" fill="#fef158" class="fill" d="M109.917,94.156c-0.356-0.137-0.8-0.181-1.055-0.424
	c-1.305-1.244-2.785-2.186-4.474-2.805c-2.539-0.931-5.154-1.217-7.836-0.938c-0.599,0.063-1.195,0.142-1.847,0.127
	c0.574-0.611,1.071-1.35,2.048-1.354c2.926-0.015,5.848,0.047,8.636,1.099c2.014,0.76,3.374,2.307,4.69,3.895
	C110.025,93.891,109.971,94.022,109.917,94.156z"/>
<path fill-rule="evenodd" clip-rule="evenodd" fill="#fef158" class="fill" d="M106.72,85.991c-0.292,0.88-0.512,1.545-0.749,2.262
	c-1.552-0.377-2.997-0.726-4.499-1.09c0.037-0.74,0.072-1.443,0.12-2.41C103.331,85.173,104.963,85.566,106.72,85.991z"/>
<path fill-rule="evenodd" clip-rule="evenodd" fill="#fef158" class="fill" d="M95.17,97.999c2.665-3.015,10.649-1.775,11.914,0.416
	c-2.007-0.414-3.998-0.961-6.026-1.205C99.071,96.974,97.011,96.758,95.17,97.999z"/>
<path fill-rule="evenodd" clip-rule="evenodd" fill="#fef158" class="fill" d="M109.673,103.806c-0.658-0.043-1.317-0.132-1.974-0.119
	c-2.356,0.045-4.728-0.021-7.061,0.249c-1.218,0.141-2.369,0.881-3.544,1.369c-0.221,0.092-0.405,0.272-0.841,0.576
	c0.542-1.266,1.318-1.847,2.305-2.166c2.371-0.762,4.779-1.155,7.281-0.729c1.157,0.198,2.334,0.27,3.501,0.412
	c0.133,0.017,0.253,0.133,0.378,0.202C109.704,103.668,109.689,103.737,109.673,103.806z"/>
<path fill-rule="evenodd" clip-rule="evenodd" fill="#fef158" class="fill" d="M113.877,108.423c-1.83,0.596-3.74,1.025-5.467,1.84
	c-1.695,0.801-3.205,1.995-4.841,3.045c-0.178-0.833,0.311-1.384,0.887-1.787c2.355-1.658,4.918-2.857,7.789-3.302
	c0.533-0.082,1.089-0.012,1.635-0.012C113.88,108.279,113.878,108.351,113.877,108.423z"/>
<path fill-rule="evenodd" clip-rule="evenodd" fill="#fef158" class="fill" d="M101.674,94.648c0-0.984,0-1.875,0-2.959
	c1.25,0.452,2.362,0.854,3.55,1.283c-0.179,0.773-0.332,1.428-0.511,2.201C103.7,94.999,102.726,94.831,101.674,94.648z"/>
<path fill-rule="evenodd" clip-rule="evenodd" fill="#fef158" class="fill" d="M112.123,117.407c1.15-2.732,8.819-4.444,11.189-2.609
	c-1.968,0.135-3.862,0.2-5.74,0.412C115.643,115.428,113.824,116.035,112.123,117.407z"/>
<path fill-rule="evenodd" clip-rule="evenodd" fill="#fef158" class="fill" d="M108.474,107.57c-0.716,0.276-1.307,0.504-1.898,0.732
	c0.124-0.172,0.247-0.342,0.369-0.513c-0.987-0.729-1.975-1.458-2.963-2.188c0.019-0.09,0.037-0.182,0.057-0.272
	c0.878-0.06,1.756-0.121,2.67-0.186C107.287,105.94,107.837,106.696,108.474,107.57z"/>
<path fill-rule="evenodd" clip-rule="evenodd" fill="#fef158" class="fill" d="M113.621,113.833c-1.098-0.955-2.021-1.757-3.04-2.644
	c0.391-0.178,0.774-0.352,1.33-0.604c1.075,0.8,2.171,1.615,3.476,2.587C114.546,113.486,114.013,113.686,113.621,113.833z"/>
<path fill-rule="evenodd" clip-rule="evenodd" fill="#fef158" class="fill" d="M102.125,98.964c1.022,0.189,1.802,0.331,2.596,0.478
	c0.105,0.598,0.193,1.097,0.298,1.69c-0.872,0-1.66,0-2.519,0C102.384,100.46,102.278,99.845,102.125,98.964z"/>
<path fill-rule="evenodd" clip-rule="evenodd" fill="#fef158" class="fill" d="M40.385,116.013c0.341-1.657,1.267-3.093,1.958-4.697
	c0.327,0.038,0.589,0.067,0.967,0.109c-0.847,1.681-1.627,3.229-2.408,4.779C40.73,116.141,40.557,116.077,40.385,116.013z"/>
<path fill-rule="evenodd" clip-rule="evenodd" fill="#fef158" class="fill" d="M93.505,80.709c-0.319,0.83-0.61,1.586-1.006,2.613
	c-0.229-0.378-0.522-0.641-0.524-0.904C91.966,81.463,92.609,80.759,93.505,80.709z"/>
<path fill-rule="evenodd" clip-rule="evenodd" fill="#fef158" class="fill" d="M93.485,97.205c-0.074,0.602-0.148,1.201-0.234,1.908
	c-0.349-0.219-0.639-0.4-1.134-0.71c0.363-0.496,0.687-0.938,1.011-1.382C93.246,97.084,93.366,97.145,93.485,97.205z"/>
<path fill-rule="evenodd" clip-rule="evenodd" fill="#fef158" class="fill" d="M95.473,107.745c-1.474,0.069-2.067-0.639-1.528-1.719
	C94.434,106.577,94.905,107.106,95.473,107.745z"/>
<path fill-rule="evenodd" clip-rule="evenodd" fill="#fef158" class="fill" d="M111.217,119.777c-0.367,0.11-0.608,0.184-1.11,0.336
	c-0.097-0.673-0.181-1.271-0.267-1.867c0.113-0.04,0.228-0.08,0.341-0.121C110.503,118.639,110.823,119.148,111.217,119.777z"/>
<path fill-rule="evenodd" clip-rule="evenodd" fill="#fef158" class="fill" d="M92.559,91.557c-0.139-0.451-0.383-0.902-0.386-1.354
	c-0.002-0.404,0.263-0.808,0.584-1.124c0,0.771,0,1.544,0,2.316C92.69,91.449,92.625,91.503,92.559,91.557z"/>
<path fill-rule="evenodd" clip-rule="evenodd" fill="#fef158" class="fill" d="M101.38,114.5c0.097-0.49,0.175-0.885,0.308-1.557
	c0.385,0.675,0.61,1.071,0.886,1.557C102.239,114.5,101.943,114.5,101.38,114.5z"/>
<path fill-rule="evenodd" clip-rule="evenodd" fill="#fef158" class="fill" d="M92.766,65.553c0.186-0.583,0.371-1.164,0.645-2.018
	c0.363,0.5,0.541,0.744,0.818,1.127c-0.359,0.404-0.705,0.793-1.05,1.181C93.041,65.746,92.903,65.648,92.766,65.553z"/>
<path fill-rule="evenodd" clip-rule="evenodd" fill="#fef158" class="fill" d="M97.98,58.045c-0.303,0.389-0.605,0.777-0.907,1.165
	c-0.123-0.015-0.246-0.032-0.368-0.05c-0.051-0.31-0.249-0.73-0.118-0.902c0.23-0.306,0.661-0.46,1.007-0.677
	C97.723,57.735,97.852,57.89,97.98,58.045z"/>
<path fill-rule="evenodd" clip-rule="evenodd" fill="#fef158" class="fill" d="M100.03,52.096c0.422-0.14,0.823-0.271,1.415-0.47
	c-0.031,0.62-0.051,1.015-0.066,1.358C100.278,53.465,100.08,53.347,100.03,52.096z"/>
</svg>
