<svg version="1.1" id="svg" xmlns="http://www.w3.org/2000/svg" xmlns:xlink="http://www.w3.org/1999/xlink" x="0px" y="0px"
	 width="200px" height="200px" viewBox="0 0 200 200" enable-background="new 0 0 200 200" xml:space="preserve">
<path class="stroke" fill="#2d4809"  d="M121.914,86.048c-1.344-4.041-3.799-7.225-6.476-10.341c-1.571-1.828-3.192-3.613-5.343-6.037
	c0-1.285,0.01-3.575-0.005-5.863c-0.005-0.979-0.065-1.959-0.101-2.937c-0.069,0.004-0.139,0.008-0.208,0.011
	c0.275-3.612,0.551-7.226,0.829-10.872c0.477-0.412,1.037-0.727,1.342-1.204c0.315-0.496,0.489-1.141,0.539-1.736
	c0.177-2.059,0.329-4.183-1.954-5.304c-0.63-0.308-0.772-0.741-0.895-1.297c-0.139-0.624-0.286-1.244-0.461-1.995
	c-0.69-0.275-1.386-0.73-2.124-0.819c-2.233-0.263-4.483-0.406-6.729-0.553c-0.921-0.06-1.85-0.009-2.772-0.009
	c-0.354,1.144-0.63,2.037-0.894,2.891c-0.193,0.116-0.318,0.228-0.465,0.271c-1.558,0.476-2.28,1.59-2.354,3.151
	c-0.056,1.179,0.108,2.384-0.085,3.535c-0.182,1.081,0.227,1.738,0.967,2.35c0.265,0.221,0.521,0.452,0.927,0.803
	c0,1.474,0.085,2.956-0.017,4.426c-0.312,4.501-0.665,8.998-1.072,13.492c-0.124,1.363-0.621,2.622-1.819,3.479
	c-0.302,0.217-0.572,0.492-0.82,0.771c-2.77,3.136-4.712,6.791-6.433,10.557c-1.271,2.782-2.257,5.666-2.977,8.671
	c-1.157,4.829-1.733,9.696-1.72,14.64c0.014,4.741,0.141,9.479,0.195,14.219c0.053,4.812,0.047,9.624,0.126,14.434
	c0.068,4.126,0.237,8.25,0.327,12.376c0.023,1.12-0.159,2.249-0.093,3.364c0.049,0.822,0.127,1.797,0.584,2.411
	c0.795,1.074,1.815,2.025,2.88,2.849c2.274,1.759,4.971,2.665,7.713,3.379c2.425,0.632,4.864,1.401,7.339,1.612
	c2.951,0.249,5.947-0.047,8.924-0.081c4.248-0.05,8.121-1.4,11.759-3.464c0.936-0.53,1.71-1.336,1.676-2.644
	c-0.031-1.217,0.124-2.437,0.192-3.655c0.179-3.227,0.362-6.45,0.528-9.677c0.099-1.938,0.157-3.878,0.255-5.816
	c0.092-1.831,0.233-3.659,0.312-5.491c0.153-3.647,0.272-7.299,0.417-10.947c0.092-2.343,0.262-4.685,0.289-7.028
	c0.028-2.497-0.126-4.995-0.105-7.491C124.168,98.237,123.92,92.082,121.914,86.048z"/>
<path fill-rule="evenodd" clip-rule="evenodd" fill="#e1fe85" class="fill" d="M94.942,76.105c4.488,0.031,7.352,2.515,10.485,4.734
	c-0.447,0.694-0.889,1.404-1.354,2.097c-1.908,2.835-3.031,6.013-3.707,9.31c-0.782,3.811-1.577,7.654-1.856,11.521
	c-0.391,5.419-0.327,10.87-0.426,16.309c-0.047,2.535-0.044,5.07-0.023,7.605c0.034,3.862,0.121,7.725,0.151,11.586
	c0.026,3.172-0.025,6.343,0.013,9.514c0.022,1.686,0.164,3.372,0.261,5.237c-4.719-0.14-8.92-1.437-13.14-3.672
	c-0.121-1.042-0.331-2.269-0.389-3.5c-0.106-2.251-0.131-4.507-0.172-6.762c-0.034-1.879-0.04-3.761-0.064-5.641
	c-0.055-4.216-0.146-8.435-0.165-12.652c-0.021-4.449-0.05-8.9,0.068-13.347c0.097-3.605,0.273-7.222,0.662-10.807
	c0.361-3.33,1.042-6.651,2.439-9.72c1.596-3.507,3.214-7.026,5.704-10.035C94.008,77.186,94.604,76.503,94.942,76.105z"/>
<path fill-rule="evenodd" clip-rule="evenodd" fill="#e1fe85" class="fill" d="M107.157,92.613c0.324,1.022,0.814,1.898,0.848,2.791
	c0.153,4.055,0.131,8.113,0.263,12.168c0.108,3.357,0.396,6.709,0.505,10.067c0.08,2.45-0.028,4.909,0,7.363
	c0.028,2.567,0.137,5.134,0.174,7.7c0.018,1.253-0.048,2.508-0.08,3.761c-0.077,3.072-0.146,6.142-0.24,9.213
	c-0.062,2.003-0.117,4.006-0.26,6.002c-0.086,1.197-0.601,2.167-2.208,2.397c-0.133-0.378-0.415-0.835-0.438-1.305
	c-0.213-4.271-0.393-8.544-0.558-12.815c-0.179-4.614-0.38-9.227-0.48-13.841c-0.063-2.938,0.072-5.876,0.058-8.815
	c-0.02-4.464-0.173-8.926-0.114-13.389c0.039-3.001,0.305-6.005,0.557-8.999C105.264,93.943,105.856,93.184,107.157,92.613z"/>
<path fill-rule="evenodd" clip-rule="evenodd" fill="#e1fe85" class="fill" d="M98.993,51.949c1.248-0.968,2.771-1.282,4.398-1.515
	c0,1.297,0.029,2.476-0.005,3.651c-0.098,3.293-0.221,6.586-0.338,9.878c-0.041,1.163-0.031,2.332-0.173,3.481
	c-0.044,0.357-0.447,0.834-0.795,0.961c-1.278,0.473-2.603,0.821-4.051,1.259C97.931,63.806,98.454,57.981,98.993,51.949z"/>
<path fill-rule="evenodd" clip-rule="evenodd" fill="#e1fe85" class="fill" d="M96.306,45.572c0.334-0.771,0.675-1.557,0.982-2.265
	c3.185,0.45,6.104,0.952,9.082,0.4c0.754-0.141,1.432,0.1,1.711,0.964c0.345,1.066,0.118,1.701-0.679,2.184
	c-1.866,1.125-3.879,1.093-5.902,0.752C99.051,47.193,97.625,46.607,96.306,45.572z"/>
<path fill-rule="evenodd" clip-rule="evenodd" fill="#e1fe85" class="fill" d="M98.858,39.413c0.173-0.417,0.262-0.631,0.333-0.804
	c2.585,0.166,5.095,0.328,7.67,0.494c0,0.429,0,0.785,0,1.235C104.191,40.029,101.582,39.729,98.858,39.413z"/>
</svg>
