<svg version="1.1" id="svg" xmlns="http://www.w3.org/2000/svg" xmlns:xlink="http://www.w3.org/1999/xlink" x="0px" y="0px"
	 width="200px" height="200px" viewBox="0 0 200 200" enable-background="new 0 0 200 200" xml:space="preserve">
<path class="stroke" fill="#561906"  d="M121.77,5.085c-1.881-0.027-3.459,0.693-4.591,2.302c-1.392,1.978-1.77,4.313-2.229,6.57
	c-0.814,4.012-1.356,8.08-2.056,12.116c-0.614,3.548-1.282,7.088-1.936,10.629c-0.424,2.3-0.911,4.59-1.283,6.899
	c-0.358,2.23-0.607,4.479-0.9,6.719c-0.147,1.127-0.24,2.264-0.438,3.382c-0.239,1.363-0.629,2.702-0.836,4.07
	c-0.552,3.647-0.95,7.319-1.578,10.951c-0.607,3.512-1.447,6.984-2.14,10.481c-0.604,3.044-1.186,6.094-1.705,9.154
	c-0.74,4.374-1.441,8.754-2.106,13.14c-0.523,3.448-0.991,6.906-1.425,10.366c-0.094,0.755-0.436,1.162-1.071,1.474
	c-0.541,0.265-1.024,0.647-1.563,0.916c-0.535,0.268-1.091,0.53-1.668,0.669c-1.756,0.424-3.547,0.713-5.285,1.199
	c-1.109,0.31-2.245,0.729-3.194,1.36c-1.682,1.118-3.119,2.482-4.346,4.176c-2.188,3.017-4.021,6.227-5.316,9.661
	c-1.064,2.822-1.565,5.873-2.146,8.855c-0.451,2.316-0.664,4.681-0.94,7.028c-0.282,2.393-0.613,4.786-0.743,7.188
	c-0.165,3.04-0.146,6.09-0.209,9.135c-0.08,3.795-0.129,7.604,0.607,11.338c0.477,2.416,1.163,4.814,2.022,7.121
	c0.587,1.576,1.635,2.98,2.475,4.463c1.527,2.694,3.814,4.7,6.213,6.534c2.036,1.557,4.267,2.863,6.445,4.227
	c1.011,0.635,2.065,1.235,3.168,1.678c0.643,0.257,1.422,0.174,2.318,0.262c-1.297-1.383-2.485-2.388-3.332-3.627
	c-0.844-1.235-1.345-2.706-1.997-4.073c0.095-0.052,0.189-0.105,0.284-0.157c0.159,0.088,0.318,0.174,0.474,0.267
	c1.505,0.891,2.946,1.927,4.531,2.641c2.176,0.981,4.4,1.906,6.853,2.04c0.98,0.054,1.658-0.119,1.824-0.621
	c-2.005-1.456-3.837-3.028-4.523-5.554c0.689,0.305,1.309,0.678,1.896,1.095c1.487,1.055,2.945,2.151,4.447,3.184
	c0.469,0.323,1.032,0.639,1.596,0.188c-0.523-1.561-1.871-2.825-1.248-4.806c0.586,0.451,1.003,0.763,1.411,1.088
	c1.776,1.415,3.704,2.569,5.855,3.308c0.469,0.161,1.054,0.456,1.468-0.205c-0.958-1.291-2.016-2.515-1.838-4.303
	c0.587,0.181,1.153,0.226,1.559,0.503c1.969,1.355,4.245,1.959,6.457,2.706c0.581,0.196,1.41,0.479,1.807-0.523
	c-0.157-0.1-0.29-0.172-0.41-0.262c-2.867-2.138-5.133-4.836-6.22-8.214c-1.11-3.457-1.62-7.041-0.659-10.729
	c1.275-4.888,2.323-9.834,3.489-14.751c0.737-3.108,1.575-6.194,2.243-9.316c0.362-1.695,0.504-3.442,0.669-5.173
	c0.118-1.245,0.143-2.501,0.151-3.753c0.014-2.311,0.254-4.663-0.095-6.921c-0.438-2.834-1.005-5.71-2.743-8.161
	c-1.15-1.623-2.441-3.095-4.101-4.199c-0.991-0.66-2.048-1.219-3.032-1.799c-0.421-2.999-0.434-3.022-2.844-5.336
	c0.033-0.328,0.052-0.698,0.109-1.061c0.453-2.866,0.951-5.726,1.361-8.598c0.548-3.834,0.958-7.688,1.559-11.513
	c0.842-5.354,1.818-10.687,2.713-16.034c0.732-4.377,1.4-8.766,2.152-13.141c0.605-3.517,1.331-7.013,1.937-10.531
	c0.744-4.311,1.455-8.626,2.112-12.951c0.675-4.446,1.305-8.9,1.89-13.36c0.585-4.46,1.141-8.927,1.61-13.401
	c0.257-2.449,0.146-4.893-1.218-7.263C123.014,5.604,122.396,5.095,121.77,5.085z"/>
<path fill-rule="evenodd" clip-rule="evenodd" fill="#bf7512" class="fill" d="M122.061,9.841c0.094,1.129,0.326,2.207,0.242,3.259
	c-0.222,2.785-0.51,5.568-0.906,8.333c-0.328,2.287-0.869,4.542-1.272,6.818c-0.515,2.905-0.98,5.819-1.481,8.726
	c-0.664,3.851-1.364,7.695-2.003,11.55c-0.355,2.146-0.586,4.312-0.927,6.461c-0.288,1.812-0.682,3.605-0.978,5.415
	c-0.52,3.184-1.004,6.373-1.496,9.561c-0.395,2.547-0.748,5.104-1.181,7.645c-0.252,1.478-0.673,2.926-0.939,4.403
	c-0.688,3.828-1.35,7.663-1.99,11.5c-0.74,4.429-1.464,8.861-2.158,13.298c-0.268,1.709-0.429,3.435-0.656,5.152
	c-0.04,0.308-0.17,0.605-0.281,0.987c-0.673-0.202-1.216-0.365-1.881-0.565c0.223-1.357,0.45-2.621,0.637-3.888
	c0.512-3.501,1.005-7.005,1.509-10.507c0.509-3.534,1.002-7.071,1.542-10.601c0.563-3.682,1.114-7.367,1.781-11.032
	c0.713-3.918,1.627-7.8,2.316-11.723c0.583-3.323,0.94-6.686,1.455-10.022c0.515-3.349,1.107-6.686,1.652-10.029
	c0.441-2.707,0.866-5.415,1.293-8.123c0.355-2.246,0.745-4.489,1.043-6.743c0.436-3.287,0.773-6.586,1.217-9.871
	c0.18-1.335,0.544-2.645,0.793-3.972c0.239-1.274,0.503-2.55,0.633-3.838C120.137,10.908,120.635,10.199,122.061,9.841z"/>
<path fill-rule="evenodd" clip-rule="evenodd" fill="#bf7512" class="fill" d="M78.334,142.492c0.307-0.968,0.56-1.766,0.734-2.318
	c6.884,1.038,13.473,2.142,20.093,3c6.622,0.857,13.3,0.699,20.197,0.389c-0.218,1.167-0.383,2.047-0.555,2.97
	c-2.453,0.409-4.771,0.727-7.06,1.191c-3.879,0.789-7.693,0.153-11.485-0.494c-3.945-0.672-7.861-1.524-11.774-2.369
	c-2.562-0.552-5.096-1.235-7.645-1.848C80.116,142.84,79.383,142.709,78.334,142.492z"/>
<path fill-rule="evenodd" clip-rule="evenodd" fill="#bf7512" class="fill" d="M87.112,185.548c-0.176,0.279-0.382,0.607-0.756,1.202
	c-0.71-3.068-1.565-5.915-1.988-8.825c-0.429-2.953-0.723-5.983-0.553-8.949c0.247-4.306,0.918-8.59,1.496-12.872
	c0.333-2.465,0.839-4.908,1.271-7.36c0.037-0.208,0.105-0.411,0.191-0.735c0.8,0.155,1.566,0.305,2.595,0.504
	c-0.245,1.83-0.48,3.64-0.732,5.449c-0.085,0.607-0.252,1.204-0.318,1.812c-0.287,2.639-0.557,5.279-0.822,7.92
	c-0.181,1.809-0.405,3.617-0.504,5.431c-0.215,3.903-0.439,7.808-0.499,11.714C86.47,182.362,86.881,183.891,87.112,185.548z"/>
<path fill-rule="evenodd" clip-rule="evenodd" fill="#bf7512" class="fill" d="M94.818,149.532c1.042,0.247,1.93,0.458,2.908,0.69
	c-0.134,1.217-0.226,2.432-0.411,3.63c-0.235,1.52-0.58,3.022-0.817,4.542c-0.488,3.134-0.979,6.269-1.388,9.415
	c-0.289,2.224-0.464,4.464-0.65,6.701c-0.112,1.353-0.291,2.722-0.184,4.063c0.148,1.852,0.542,3.683,0.819,5.524
	c0.159,1.05,0.243,2.114,0.453,3.152c0.203,1.002,0.524,1.98,0.679,3.087c-0.445-0.633-0.942-1.236-1.324-1.905
	c-0.766-1.338-1.63-2.652-2.163-4.084c-1.291-3.464-1.228-7.062-0.756-10.683c0.313-2.409,0.442-4.841,0.761-7.249
	c0.32-2.414,0.794-4.807,1.162-7.216c0.177-1.155,0.253-2.325,0.396-3.485c0.128-1.037,0.314-2.067,0.424-3.106
	c0.076-0.717,0.066-1.443,0.09-2.166C94.825,150.181,94.818,149.919,94.818,149.532z"/>
<path fill-rule="evenodd" clip-rule="evenodd" fill="#bf7512" class="fill" d="M78.061,145.96c1.015,0.319,1.943,0.612,2.878,0.906
	c-0.291,1.504-0.591,2.906-0.832,4.32c-0.343,2.023-0.837,4.046-0.924,6.084c-0.191,4.437-0.239,8.885-0.199,13.327
	c0.022,2.431,0.323,4.861,0.544,7.289c0.046,0.509,0.301,0.998,0.447,1.501c0.614,2.126,1.245,4.247,1.812,6.386
	c0.09,0.34-0.116,0.758-0.3,1.137c-0.987-1.511-2.109-2.832-2.491-4.642c-0.508-2.398-1.356-4.723-1.928-7.11
	c-0.313-1.308-0.474-2.678-0.504-4.023c-0.079-3.367-0.118-6.737-0.032-10.104c0.088-3.427,0.27-6.856,0.56-10.271
	C77.225,149.18,77.712,147.632,78.061,145.96z"/>
<path fill-rule="evenodd" clip-rule="evenodd" fill="#bf7512" class="fill" d="M91.117,148.736c0.576,0.136,1.126,0.268,1.691,0.401
	c0.914,1.899,0.041,3.796,0.013,5.639c-0.173,1.526-0.333,3.031-0.52,4.532c-0.047,0.382-0.205,0.751-0.271,1.133
	c-0.287,1.658-0.599,3.312-0.823,4.979c-0.163,1.214-0.175,2.447-0.302,3.667c-0.188,1.812-0.408,3.623-0.634,5.432
	c-0.441,3.542-0.191,7.017,1.166,10.341c0.59,1.447,1.373,2.814,2.065,4.219c0.064,0.131,0.11,0.271,0.25,0.619
	c-0.461-0.117-0.807-0.121-1.048-0.281c-0.824-0.548-1.604-1.159-2.414-1.73c-1.663-1.175-1.526-3.067-1.88-4.751
	c-0.57-2.722-0.379-5.466-0.163-8.207c0.259-3.288,0.466-6.579,0.774-9.861c0.299-3.188,0.662-6.372,1.065-9.548
	C90.36,153.179,90.75,151.054,91.117,148.736z"/>
<path fill-rule="evenodd" clip-rule="evenodd" fill="#bf7512" class="fill" d="M100.195,187.392c-0.881-0.88-1.773-1.747-2.638-2.642
	c-1.766-1.827-1.728-4.201-1.676-6.449c0.073-3.201,0.367-6.405,0.746-9.585c0.366-3.083,0.98-6.135,1.446-9.206
	c0.411-2.709,0.765-5.427,1.152-8.14c0.039-0.274,0.135-0.539,0.242-0.95c0.89,0.086,1.793,0.174,2.978,0.289
	c-0.401,2.137-0.775,4.14-1.152,6.141c-0.494,2.628-0.994,5.256-1.482,7.886c-0.314,1.693-0.732,3.378-0.893,5.086
	c-0.32,3.423-0.673,6.862-0.649,10.292c0.011,1.52,0.912,3.03,1.389,4.552c0.268,0.855,0.493,1.723,0.736,2.584
	C100.328,187.297,100.262,187.345,100.195,187.392z"/>
<path fill-rule="evenodd" clip-rule="evenodd" fill="#bf7512" class="fill" d="M108.238,150.736c0.803,0,1.473,0,2.401,0
	c-0.379,1.597-0.739,3.072-1.077,4.552c-0.458,2.009-0.876,4.027-1.355,6.031c-0.306,1.281-0.588,2.584-1.063,3.806
	c-0.902,2.32-1.336,4.726-1.527,7.18c-0.141,1.807-0.329,3.639-0.18,5.433c0.273,3.3,0.509,6.644,2.164,9.65
	c0.066,0.119,0.046,0.286,0.095,0.659c-1.248-1.025-2.342-1.91-3.413-2.821c-0.143-0.121-0.227-0.368-0.248-0.567
	c-0.134-1.274-0.268-2.552-0.354-3.831c-0.087-1.293-0.191-2.593-0.155-3.887c0.048-1.661,0.19-3.323,0.36-4.978
	c0.183-1.774,0.354-3.558,0.697-5.306c0.449-2.288,1.083-4.539,1.595-6.815c0.391-1.743,0.689-3.505,1.076-5.249
	C107.539,153.311,107.901,152.045,108.238,150.736z"/>
<path fill-rule="evenodd" clip-rule="evenodd" fill="#bf7512" class="fill" d="M116.452,150.012c0.641-0.112,1.256-0.222,2.197-0.388
	c-0.726,2.609-1.377,4.958-2.032,7.306c-0.619,2.22-1.243,4.438-1.862,6.659c-0.454,1.626-0.932,3.248-1.345,4.885
	c-0.786,3.112-1.139,6.247-1.022,9.488c0.062,1.724,0.314,3.349,0.867,4.915c0.678,1.919,1.586,3.757,2.429,5.708
	c-0.586-0.451-1.16-0.911-1.751-1.345c-0.633-0.465-1.358-0.834-1.902-1.382c-0.456-0.459-0.93-1.09-1.009-1.694
	c-0.214-1.646-0.261-3.316-0.301-4.979c-0.034-1.41-0.031-2.829,0.071-4.233c0.1-1.373,0.286-2.745,0.542-4.096
	c0.467-2.46,0.998-4.907,1.532-7.354c0.419-1.91,0.831-3.824,1.343-5.71c0.629-2.317,1.362-4.605,2.046-6.908
	C116.323,150.648,116.364,150.406,116.452,150.012z"/>
<path fill-rule="evenodd" clip-rule="evenodd" fill="#bf7512" class="fill" d="M103.971,150.917c0.888-0.095,1.555-0.167,2.391-0.257
	c-0.095,0.726-0.138,1.386-0.271,2.027c-0.718,3.432-1.455,6.859-2.194,10.286c-0.448,2.077-1.092,4.131-1.33,6.23
	c-0.364,3.201-1.007,6.391-0.547,9.662c0.281,1.993,0.257,4.026,0.417,6.037c0.074,0.926,0.261,1.842,0.396,2.763
	c-0.121,0.032-0.241,0.064-0.362,0.095c-0.665-1.664-1.384-3.308-1.98-4.997c-0.792-2.243-0.851-4.567-0.547-6.912
	c0.518-3.999,0.913-8.018,1.556-11.996c0.566-3.493,1.414-6.94,2.113-10.413C103.779,152.604,103.854,151.745,103.971,150.917z"/>
<path fill-rule="evenodd" clip-rule="evenodd" fill="#bf7512" class="fill" d="M84.945,187.246c-1.418-1.539-1.851-3.323-2.303-5.101
	c-0.182-0.716-0.262-1.501-0.621-2.122c-0.943-1.634-0.971-3.422-1.072-5.202c-0.147-2.61-0.375-5.224-0.33-7.833
	c0.102-5.815,0.058-11.654,1.455-17.363c0.196-0.804,0.479-1.586,0.75-2.473c0.771,0.191,1.474,0.364,2.298,0.569
	c-0.206,1.331-0.388,2.619-0.606,3.9c-0.277,1.626-0.476,3.275-0.895,4.865c-1.043,3.959-1.109,8.029-1.458,12.061
	c-0.292,3.373-0.044,6.744,0.779,10.053c0.672,2.702,1.315,5.414,1.968,8.122C84.938,186.834,84.927,186.954,84.945,187.246z"/>
<path fill-rule="evenodd" clip-rule="evenodd" fill="#bf7512" class="fill" d="M112.314,150.618c0.741-0.112,1.452-0.217,2.389-0.358
	c-0.474,1.494-0.925,2.808-1.306,4.141c-0.37,1.295-0.684,2.609-0.999,3.92c-0.808,3.365-1.605,6.733-2.402,10.1
	c-0.641,2.705-1.069,5.444-1.149,8.22c-0.04,1.37,0.347,2.774,0.162,4.111c-0.211,1.534,0.765,2.999,0.04,4.549
	c-0.219,0.468,0.083,1.18-0.068,1.853c-0.448-1.311-1.009-2.596-1.313-3.938c-0.339-1.496-0.592-3.042-0.617-4.57
	c-0.036-2.142,0.242-4.285,0.261-6.429c0.029-3.31,1.55-6.246,2.241-9.388c0.681-3.096,1.494-6.163,2.22-9.25
	C111.995,152.626,112.128,151.65,112.314,150.618z"/>
<path fill-rule="evenodd" clip-rule="evenodd" fill="#bf7512" class="fill" d="M115.569,141.285c-1.036,0-1.943,0-2.92,0
	c0-2.762-0.033-5.405,0.009-8.047c0.042-2.646-0.367-5.239-1.15-7.732c-0.364-1.161-1.28-2.152-1.965-3.209
	c-0.246-0.38-0.547-0.722-0.823-1.082c0.045-0.075,0.089-0.149,0.134-0.224c0.37,0.142,0.861,0.178,1.089,0.442
	c1.655,1.915,3.77,3.425,4.964,5.752c0.891,1.735,1.053,3.604,1.087,5.472c0.044,2.408-0.088,4.819-0.172,7.228
	C115.806,140.335,115.663,140.781,115.569,141.285z"/>
<path fill-rule="evenodd" clip-rule="evenodd" fill="#bf7512" class="fill" d="M97.258,140.042c-0.752-0.081-1.303-0.122-1.848-0.204
	c-0.545-0.082-1.084-0.204-1.86-0.354c0.386-6.879,2.564-13.278,5.459-19.534c0.207,0.042,0.35,0.062,0.49,0.102
	c0.142,0.039,0.279,0.097,0.664,0.233C98.359,126.709,97.839,133.325,97.258,140.042z"/>
<path fill-rule="evenodd" clip-rule="evenodd" fill="#bf7512" class="fill" d="M106.538,121.089c2.197,2.266,3.979,4.735,4.199,7.979
	c0.191,2.824,0.344,5.656,0.398,8.486c0.021,1.125-0.269,2.255-0.426,3.453c-0.99,0-1.986,0-3.208,0
	C108.153,134.24,108.707,127.591,106.538,121.089z"/>
<path fill-rule="evenodd" clip-rule="evenodd" fill="#bf7512" class="fill" d="M91.905,139.236c-0.991-0.077-1.768-0.138-2.57-0.2
	c0.589-7.369,2.332-14.136,7.066-19.908c0.326,0.139,0.534,0.228,0.768,0.327C95.018,125.952,92.352,132.245,91.905,139.236z"/>
<path fill-rule="evenodd" clip-rule="evenodd" fill="#bf7512" class="fill" d="M94.608,118.82c-4.435,5.824-6.111,12.669-7.158,19.73
	c-1.02-0.215-1.768-0.372-2.537-0.534c-0.072-0.196-0.211-0.377-0.186-0.533c0.531-3.216,1.001-6.446,2.407-9.444
	c1.246-2.655,2.368-5.393,4.53-7.474c0.787-0.758,1.753-1.329,2.638-1.984C94.404,118.661,94.506,118.741,94.608,118.82z"/>
<path fill-rule="evenodd" clip-rule="evenodd" fill="#bf7512" class="fill" d="M101.506,140.602c-0.909-0.117-1.66-0.214-2.411-0.312
	c-0.076-6.779,0.938-13.31,2.771-19.935c0.203,0.616,0.388,1.104,0.526,1.604c0.461,1.665,0.286,3.361,0.228,5.052
	c-0.085,2.522-0.088,5.052-0.28,7.566C102.188,136.56,101.803,138.523,101.506,140.602z"/>
<path fill-rule="evenodd" clip-rule="evenodd" fill="#bf7512" class="fill" d="M104.219,120.714c0.271,0.417,0.661,0.801,0.79,1.258
	c0.433,1.539,0.791,3.1,1.144,4.66c0.72,3.183,0.307,6.38,0.068,9.573c-0.113,1.506-0.24,3.011-0.364,4.56c-0.812,0-1.623,0-2.458,0
	c0.278-6.7,1.292-13.279,0.544-19.91C104.036,120.809,104.128,120.762,104.219,120.714z"/>
<path fill-rule="evenodd" clip-rule="evenodd" fill="#bf7512" class="fill" d="M88.729,121.247c-3.183,4.906-4.88,10.311-5.702,16.078
	c-1.141-0.274-2.141-0.513-3.403-0.816c0.805-2.114,1.539-4.12,2.332-6.102c0.624-1.562,1.114-3.232,2.034-4.606
	C85.209,123.98,86.833,122.448,88.729,121.247z"/>
<path fill-rule="evenodd" clip-rule="evenodd" fill="#bf7512" class="fill" d="M119.471,140.506c-0.669,0.107-1.225,0.197-1.925,0.309
	c0-1.357,0-2.545,0-3.732c0-2.098,0.167-4.212-0.042-6.288c-0.32-3.163-1.782-5.833-4.163-7.973
	c-0.108-0.096-0.174-0.239-0.162-0.482c0.507,0.385,1.037,0.744,1.52,1.158c2.82,2.414,4.474,5.437,4.68,9.178
	c0.124,2.247,0.198,4.495,0.272,6.744C119.661,139.741,119.547,140.066,119.471,140.506z"/>
<path fill-rule="evenodd" clip-rule="evenodd" fill="#bf7512" class="fill" d="M104.222,119.189c0.132-1.454,0.255-2.819,0.38-4.18
	c2.493,0.094,3.112,0.703,3.081,4.453C106.555,119.374,105.438,119.285,104.222,119.189z"/>
</svg>
