<svg version="1.1" id="svg" xmlns="http://www.w3.org/2000/svg" xmlns:xlink="http://www.w3.org/1999/xlink" x="0px" y="0px"
	 width="200px" height="200px" viewBox="0 0 200 200" enable-background="new 0 0 200 200" xml:space="preserve">
<path class="stroke" fill="#492208"  d="M193.541,43.183c-0.044-1.763-1.054-2.368-2.841-2.053c-0.185,0.033-0.377,0.067-0.561,0.051
	c-2.209-0.208-4.412-0.514-6.625-0.619c-4.447-0.212-8.898-0.343-13.348-0.457c-2.683-0.069-5.37,0.003-8.052-0.073
	c-2.448-0.07-4.891-0.309-7.338-0.372c-1.728-0.045-3.464,0.175-5.188,0.098c-2.518-0.112-5.026-0.468-7.545-0.569
	c-3.958-0.159-7.924-0.168-11.885-0.286c-3.64-0.107-7.276-0.301-10.916-0.405c-3.964-0.114-7.931-0.171-11.896-0.247
	c-1.053-0.019-2.109,0.019-3.161-0.026c-2.714-0.118-5.426-0.346-8.139-0.385c-4.296-0.064-8.594-0.025-12.892-0.001
	c-3.819,0.021-7.637,0.098-11.456,0.118c-2,0.009-4-0.109-5.998-0.067c-4.399,0.093-8.797,0.262-13.196,0.378
	c-3.461,0.091-6.924,0.115-10.384,0.233c-2.554,0.087-5.104,0.311-7.657,0.417c-2.171,0.09-4.346,0.076-6.518,0.149
	c-2.601,0.087-5.203,0.179-7.798,0.358c-0.616,0.042-1.332,0.296-1.792,0.695c-1.908,1.656-3.767,3.373-5.57,5.144
	c-0.427,0.419-0.566,1.134-0.785,1.599c1.075,1.364,1.991,2.5,2.877,3.66c0.4,0.524,1.023,1.073,1.063,1.644
	c0.299,4.274,0.574,8.554,0.663,12.836c0.07,3.43-0.142,6.866-0.209,10.299c-0.07,3.618-0.15,7.236-0.163,10.854
	c-0.013,3.843,0.065,7.687,0.07,11.531c0.003,2.339-0.009,4.681-0.1,7.018c-0.12,3.088-0.399,6.17-0.465,9.258
	c-0.059,2.752,0.1,5.507,0.126,8.261c0.02,2.07-0.061,4.14-0.021,6.21c0.074,3.805,0.259,7.608,0.294,11.414
	c0.028,3.175-0.179,6.352-0.129,9.526c0.073,4.591,0.271,9.181,0.443,13.77c0.05,1.344,0.188,2.684,0.303,4.255
	c1.14,0.155,2.234,0.416,3.332,0.428c2.131,0.024,4.263-0.156,6.395-0.137c3.436,0.032,6.872,0.228,10.308,0.223
	c3.459-0.004,6.917-0.206,10.376-0.254c3.464-0.049,6.928-0.016,10.393-0.021c3.867-0.005,7.734,0.015,11.602-0.027
	c4.677-0.051,9.353-0.201,14.03-0.226c5.689-0.03,11.377-0.007,17.065,0.056c3.356,0.038,6.709,0.224,10.065,0.296
	c6.298,0.136,12.595,0.238,18.893,0.355c3.678,0.068,7.354,0.15,11.032,0.207c5.542,0.085,11.086,0.127,16.628,0.237
	c5.997,0.118,11.993,0.296,17.99,0.437c1.206,0.028,2.412,0.003,3.49,0.003c0.572-0.452,1.04-0.822,1.573-1.244
	c0.074-0.377,0.217-0.816,0.239-1.26c0.159-3.168,0.32-6.336,0.429-9.506c0.117-3.393,0.124-6.791,0.277-10.182
	c0.156-3.461,0.441-6.915,0.651-10.373c0.317-5.242,0.575-10.487,0.941-15.725c0.243-3.462,0.639-6.912,0.955-10.368
	c0.364-3.983,0.743-7.965,1.064-11.951c0.219-2.708,0.101-5.467,0.574-8.125c1.065-5.985,0.528-12.055,1.24-18.051
	c0.468-3.95,0.799-7.917,1.188-11.878c0.221-2.248,0.436-4.498,0.652-6.748c0.104-1.076,0.538-1.747,1.772-1.741
	c0.777,0.002,1.556-0.214,2.628-0.377c0.215-0.487,0.642-1.043,0.69-1.632C193.413,47.609,193.596,45.39,193.541,43.183z"/>
<path fill-rule="evenodd" clip-rule="evenodd" fill="#f4751a" class="fill" d="M57.507,105.192c-0.182,6.995-0.358,13.752-0.536,20.592
	c-1.289,0-2.437,0-3.737,0c0-5.024,0-9.954,0-15.088c-0.275-0.062-0.731-0.24-1.191-0.252c-1.664-0.047-3.33-0.059-4.995-0.042
	c-1.104,0.01-1.534,0.538-1.562,1.633c-0.093,3.617-0.234,7.233-0.319,10.851c-0.02,0.819,0.115,1.642,0.197,2.711
	c-2.024,0-3.949,0-5.873,0c0-2.36-0.011-4.88,0.003-7.401c0.013-2.257,0.102-4.516,0.03-6.77c-0.012-0.359-0.678-0.979-1.062-0.997
	c-2.176-0.096-4.358-0.046-6.876-0.046c0,5.22,0,10.171,0,15.29c-2.884,0-5.472,0-8.165,0c-0.158-6.863-0.312-13.556-0.472-20.48
	C34.515,105.192,45.916,105.192,57.507,105.192z"/>
<path fill-rule="evenodd" clip-rule="evenodd" fill="#f4751a" class="fill" d="M32.341,102.846c-3.035,0-6.113,0-9.542,0
	c0.186-5.942,0.374-12.01,0.571-18.375c11.261,0.332,22.347,0.66,33.642,0.994c0.171,5.767,0.345,11.612,0.525,17.652
	c-1.571,0-2.926,0-4.399,0c0-4.429,0-8.718,0-13.204c-2.493-1.115-4.946-0.998-7.471-0.033c0,4.386,0,8.698,0,13.111
	c-1.794,0-3.5,0-5.163,0c0-4.376,0-8.69,0-13.281c-2.374-1.633-5.064-0.019-7.73-0.233C31.508,93.922,32.977,98.257,32.341,102.846z
	"/>
<path fill-rule="evenodd" clip-rule="evenodd" fill="#f4751a" class="fill" d="M57.055,135.406c0,9.25,0,18.409,0,27.704
	c-1.105,0-2.367,0-3.964,0c-0.135-7.755,0.122-15.519,0.157-23.329c-0.233-0.254-0.459-0.501-0.526-0.573
	c-3.955,0.095-7.651,0.232-11.349,0.26c-3.021,0.022-6.042-0.116-9.062-0.117c-0.721,0-1.442,0.264-2.341,0.44
	c0,8.02,0,15.944,0,23.957c-2.188,0-4.167,0-6.43,0c-0.357-9.496-0.331-19-0.153-28.718
	C34.549,135.155,45.662,135.279,57.055,135.406z"/>
<path fill-rule="evenodd" clip-rule="evenodd" fill="#f4751a" class="fill" d="M56.892,67.202c0,5.411,0,10.542,0,15.799
	c-1.315,0-2.534,0-3.672,0c0-4.215,0-8.413,0-12.668c-2.515-0.836-4.913-0.264-7.514-0.47c-0.144,2.304-0.287,4.399-0.4,6.497
	c-0.112,2.074-0.194,4.149-0.295,6.361c-1.212,0-2.427,0-3.716,0c0-4.012,0-8.018,0-12.193c-0.202-0.096-0.526-0.389-0.845-0.384
	c-2.021,0.032-4.047,0.068-6.057,0.261c-0.395,0.038-1.023,0.758-1.035,1.177c-0.087,3.019-0.043,6.041-0.041,9.062
	c0,0.518,0,1.036,0,1.746c-3.326,0-6.539,0-9.937,0c0-5.128,0-10.062,0-15.081c5.734-0.146,11.292-0.383,16.85-0.402
	C45.736,66.89,51.245,67.092,56.892,67.202z"/>
<path fill-rule="evenodd" clip-rule="evenodd" fill="#f4751a" class="fill" d="M56.907,59.931c-1.207,0-2.207,0-3.398,0
	c-0.079-0.454-0.191-0.861-0.212-1.273c-0.1-1.961-0.066-3.937-0.287-5.883c-0.222-1.959-1.263-2.745-3.004-2.594
	c-1.797,0.156-2.98,1.375-3.062,3.128c-0.079,1.698-0.165,3.397-0.273,5.094c-0.025,0.403-0.15,0.799-0.248,1.289
	c-1.708,0-3.349,0-5.127,0c-0.045-0.92-0.055-1.703-0.126-2.48c-0.143-1.54-0.278-3.081-0.494-4.61
	c-0.137-0.969-0.786-1.521-1.767-1.64c-1.438-0.174-2.909-0.589-4.575,0.872c-0.307,2.291-0.664,4.962-1.051,7.845
	c-3.171,0-6.482,0-9.857,0c0-3.606-0.019-7.114,0.011-10.622c0.009-1.081,0.735-1.693,1.728-1.729
	C29,47.191,32.84,47.13,36.678,47.055c4.651-0.09,9.301-0.178,13.953-0.242c2.206-0.032,4.412-0.006,6.753-0.006
	C57.225,51.188,57.068,55.494,56.907,59.931z"/>
<path fill-rule="evenodd" clip-rule="evenodd" fill="#f4751a" class="fill" d="M98.832,113.668c0,4.346,0,8.636,0,12.923
	c-1.831,0-3.303,0-4.951,0c0.354-6.318,0.699-12.457,1.049-18.696c8.184,0.263,16.367,0.526,24.673,0.793
	c-0.298,6.224-0.589,12.298-0.885,18.469c-1.12,0-2.157,0-3.381,0c0.367-4.463,0.733-8.904,1.095-13.314
	c-0.446-0.56-0.79-0.992-1.062-1.336c-2.133,0.657-4.152,0.049-5.962,1.159c-0.321,4.403-0.639,8.762-0.969,13.302
	c-1.193-0.061-2.329-0.119-3.787-0.193c0.145-4.31,0.287-8.535,0.441-13.119C103.336,112.636,101.294,113.276,98.832,113.668z"/>
<path fill-rule="evenodd" clip-rule="evenodd" fill="#f4751a" class="fill" d="M68.441,111.225c-0.057,2.593-0.131,5.024-0.159,7.455
	c-0.026,2.395-0.006,4.789-0.006,7.3c-1.594,0-2.899,0-4.338,0c0-3.336,0-6.703,0-10.069c0-3.371,0-6.742,0-10.436
	c7.938,0.516,15.995,1.04,24.312,1.58c-0.23,6.565-0.454,12.965-0.68,19.429c-1.052,0-1.903,0-2.903,0
	c0.17-4.999,0.338-9.924,0.512-15.015c-2.266-0.676-4.492-0.122-7.019-0.339c-0.113,1.399-0.269,2.691-0.312,3.987
	c-0.1,3.078-0.137,6.159-0.223,9.237c-0.017,0.586-0.141,1.171-0.211,1.718c-1.075,0-1.997,0-3.133,0
	c0.191-4.847,0.378-9.588,0.567-14.374c-0.565-0.193-1.09-0.374-1.379-0.473C71.779,111.225,70.325,111.225,68.441,111.225z"/>
<path fill-rule="evenodd" clip-rule="evenodd" fill="#f4751a" class="fill" d="M118.263,137.036c-0.745,9.01-1.484,17.954-2.224,26.896
	c-1.037,0-1.8,0-2.565,0c-0.071-0.253-0.149-0.397-0.145-0.538c0.069-2.057,0.124-4.114,0.23-6.17
	c0.131-2.518,0.316-5.034,0.46-7.55c0.139-2.445,0.228-4.893,0.393-7.335c0.077-1.141-0.429-2.065-1.586-2.178
	c-1.715-0.167-3.45-0.225-5.174-0.183c-2.201,0.053-4.401,0.23-6.598,0.398c-0.774,0.06-1.54,0.245-2.447,0.396
	c-0.44,7.575-0.878,15.131-1.325,22.844c-1.141,0-2.393,0-3.588,0c-0.689-1.904-0.772-19.086-0.183-26.7
	C94.433,136.333,114.112,136.408,118.263,137.036z"/>
<path fill-rule="evenodd" clip-rule="evenodd" fill="#f4751a" class="fill" d="M101.13,61.038c-1.439,0-2.975,0-4.676,0
	c0.167-4.896,0.334-9.817,0.513-15.07c8.503,0.166,16.95,0.331,25.34,0.494c0,4.943,0,9.868,0,14.866c-1.247,0-2.242,0-3.226,0
	c0-1.257,0.016-2.49-0.004-3.722c-0.021-1.358,0.014-2.725-0.136-4.07c-0.178-1.589-1.408-2.49-3.205-2.542
	c-1.667-0.049-2.571,0.552-2.8,2.282c-0.28,2.108-0.304,4.252-0.439,6.381c-0.026,0.41-0.054,0.82-0.092,1.391
	c-1.547-0.081-3.066-0.159-4.774-0.248c0-1.647-0.014-3.202,0.004-4.757c0.02-1.562-0.111-3.084-0.998-4.521
	c-0.808-0.095-1.623-0.262-2.439-0.273c-1.414-0.021-2.403,0.946-2.541,2.5C101.448,56.114,101.311,58.485,101.13,61.038z"/>
<path fill-rule="evenodd" clip-rule="evenodd" fill="#f4751a" class="fill" d="M117.777,91.8c-2.235-1.24-4.777,0.13-7.439-0.608
	c0,5.154,0,9.999,0,14.858c-1.354,0-2.429,0-3.714,0c0.181-4.76,0.356-9.381,0.54-14.182c-2.081-1.014-4.379-0.166-6.578-0.622
	c-1.003,1.094-0.743,2.446-0.812,3.711c-0.172,3.153-0.32,6.309-0.465,9.463c-0.017,0.364,0.041,0.731,0.062,1.047
	c-1.445,0-2.887,0-4.435,0c0.157-6.427,0.31-12.664,0.465-19.025c8.42-0.169,16.74,1.044,25.244,1.326
	c-0.334,6.217-0.659,12.256-0.99,18.429c-0.65,0.032-1.234,0.062-1.878,0.095C117.777,101.452,117.777,96.713,117.777,91.8z"/>
<path fill-rule="evenodd" clip-rule="evenodd" fill="#f4751a" class="fill" d="M68.322,103.529c-1.542-0.157-2.956-0.299-4.311-0.436
	c-0.67-1.835-0.384-16.852,0.072-17.292c4.333,0.06,8.457,0.079,12.579,0.188c3.716,0.099,7.43,0.291,11.144,0.462
	c0.483,0.022,0.961,0.169,1.596,0.287c-0.468,5.945-0.935,11.868-1.413,17.925c-0.741-0.078-1.509-0.158-2.458-0.257
	c-0.057-4.75,0.906-9.525,0.291-14.394c-2.117,0.171-4.021,0.326-5.999,0.486c-0.894,1.524-0.614,3.217-0.677,4.837
	c-0.093,2.411-0.09,4.826-0.114,7.24c-0.004,0.444,0.056,0.889,0.104,1.608c-1.326-0.078-2.638-0.154-3.969-0.231
	c-0.657-2.441,0.009-4.746,0.093-7.062c0.085-2.294,0.02-4.595,0.02-7.141c-2.117,0-4.199,0-6.437,0
	c-0.778,1.381-0.498,3.024-0.513,4.613C68.303,97.36,68.322,100.36,68.322,103.529z"/>
<path fill-rule="evenodd" clip-rule="evenodd" fill="#f4751a" class="fill" d="M110.455,84.642c-0.869,0-1.727,0-2.754,0
	c0.027-0.624,0.05-1.171,0.077-1.72c0.159-3.401,0.347-6.801,0.452-10.205c0.018-0.572-0.32-1.155-0.489-1.718
	c-1.999,0-3.759,0-5.797,0c-0.127,4.464-0.25,8.799-0.377,13.252c-2.022,0-4.049,0-6.287,0c0.272-5.564,0.538-11.015,0.812-16.624
	c8.47-0.506,16.891,0.589,25.621,0.385c-0.29,5.839-0.572,11.516-0.851,17.115c-1.288,0-2.52,0-3.812,0
	c0.306-4.799,0.599-9.385,0.9-14.112c-2.238,0-4.158,0-6.199,0C110.421,75.497,111.317,80.095,110.455,84.642z"/>
<path fill-rule="evenodd" clip-rule="evenodd" fill="#f4751a" class="fill" d="M130.266,114.763c-0.229,4.481-0.444,8.721-0.665,13.053
	c-1.288-0.071-2.475-0.137-3.882-0.215c0.188-6.261,0.375-12.437,0.56-18.577c1.968-0.634,20.376-0.264,23.131,0.471
	c-0.12,3.033-0.194,6.108-0.371,9.176c-0.179,3.09-0.459,6.174-0.702,9.354c-0.79,0-1.559,0-2.586,0
	c0.288-4.619,0.573-9.185,0.869-13.914c-2.207-0.509-4.181,0.316-6.44,0.309c-0.797,4.491-0.332,9.005-1.123,13.535
	c-0.627,0-1.391,0-2.223,0c0-4.157,0-8.369,0-12.832C134.924,113.997,132.726,115.259,130.266,114.763z"/>
<path fill-rule="evenodd" clip-rule="evenodd" fill="#f4751a" class="fill" d="M82.844,140.157c-1.468-0.694-2.943-0.599-4.372-0.594
	c-2.641,0.006-5.284,0.061-7.919,0.222c-1.196,0.073-2.375,0.446-3.49,0.669c0,7.788,0,15.256,0,22.824c-1.079,0-2.189,0-3.124,0
	c0-1.708-0.024-3.393,0.006-5.078c0.032-1.773,0.186-3.547,0.162-5.318c-0.048-3.497-0.221-6.992-0.262-10.488
	c-0.026-2.238,0.089-4.478,0.145-6.854c7.865,0.267,15.467,0.525,23.115,0.784c-0.155,9.126-0.307,18.031-0.459,27.004
	c-1.225,0-2.385,0-3.803,0C82.844,155.649,82.844,147.987,82.844,140.157z"/>
<path fill-rule="evenodd" clip-rule="evenodd" fill="#f4751a" class="fill" d="M90.647,46.447c0,4.687,0,9.457,0,14.386
	c-1.523-0.115-2.853-0.216-4.185-0.316c0-1.619,0.03-3.156-0.01-4.692c-0.028-1.053-0.145-2.104-0.24-3.154
	c-0.106-1.149-0.975-1.592-1.907-1.805c-1.093-0.25-2.295-0.225-2.999,0.77c-0.491,0.694-0.816,1.633-0.869,2.484
	c-0.122,2.017-0.039,4.046-0.039,6.249c-1.581,0-3.054,0-4.625,0c0-1.572,0.013-3.225-0.005-4.879
	c-0.008-0.755-0.001-1.521-0.128-2.261c-0.476-2.782-2.428-3.725-4.956-2.433c-0.134,0.069-0.257,0.158-0.506,0.313
	c-1.28,2.825-0.706,5.975-1.041,9.115c-1.453,0-2.9,0-4.4,0c0-4.522,0-9.008,0-13.776C73.502,46.447,82.078,46.447,90.647,46.447z"
	/>
<path fill-rule="evenodd" clip-rule="evenodd" fill="#f4751a" class="fill" d="M173.077,138.399c-0.523,8.753-1.044,17.458-1.566,26.181
	c-1,0-2.02,0-2.967,0c0-2.049-0.05-3.96,0.012-5.865c0.122-3.839,0.298-7.677,0.471-11.515c0.044-0.98,0.077-1.974,0.266-2.932
	c0.219-1.104-0.329-1.644-1.242-1.762c-1.475-0.191-2.973-0.291-4.46-0.285c-2.134,0.009-4.269,0.146-6.403,0.231
	c-0.333,0.013-0.666,0.042-1.2,0.077c-0.252,7.327-0.503,14.604-0.754,21.881c-1.285,0-2.294,0-3.606,0
	c0.057-8.916,0.083-17.831,1.01-26.832C159.52,137.855,166.256,138.125,173.077,138.399z"/>
<path fill-rule="evenodd" clip-rule="evenodd" fill="#f4751a" class="fill" d="M126.73,88.094c7.945,0,15.835,0,23.716,0
	c-0.326,6.393-0.637,12.494-0.95,18.658c-0.705,0-1.443,0-2.394,0c-0.093-4.813,0.578-9.555,0.656-14.321c-2.226,0-4.03,0-5.921,0
	c-1.163,4.616-0.353,9.312-0.767,13.952c-1.413,0-2.787,0-4.367,0c0.219-4.646,0.431-9.155,0.651-13.824
	c-2.236-0.949-4.59-0.484-7.12-0.581c-0.837,4.796,0.077,9.539-0.723,14.342c-0.958,0-2.055,0-3.36,0
	C126.343,100.254,126.539,94.124,126.73,88.094z"/>
<path fill-rule="evenodd" clip-rule="evenodd" fill="#f4751a" class="fill" d="M176.395,107.418c-1.454-0.084-2.666-0.154-3.942-0.228
	c0.52-4.689,1.142-9.247,1.279-14.187c-2.196,0.16-4.056,0.296-6.002,0.438c-1.261,4.515-0.636,9.033-0.971,13.644
	c-0.915-0.046-1.788-0.09-2.795-0.14c0.167-4.186,0.331-8.289,0.505-12.632c-1.783-0.268-3.521-0.002-5.485-0.111
	c-0.21,4.264-0.414,8.395-0.623,12.639c-1.079,0-2.149,0-3.357,0c0.461-6.084,0.918-12.102,1.382-18.217c7.073,0,14.181,0,21.317,0
	C177.261,94.974,176.833,101.112,176.395,107.418z"/>
<path fill-rule="evenodd" clip-rule="evenodd" fill="#f4751a" class="fill" d="M132.274,61.14c-1.551,0-3.037,0-4.665,0
	c0.283-4.855,0.563-9.664,0.86-14.759c8.045,0.396,15.951,0.784,24.125,1.186c-0.254,5.017-0.493,9.706-0.733,14.441
	c-1.044,0-1.873,0-2.771,0c0-1.213,0.013-2.295-0.003-3.377c-0.023-1.575,0.007-3.155-0.133-4.721
	c-0.088-0.987-2.075-1.964-3.099-1.651c-2.086,0.637-2.546,2.06-2.688,4.458c-0.096,1.605-0.019,3.223-0.019,5.001
	c-1.387-0.104-2.57-0.194-3.907-0.295c-0.024-0.33-0.075-0.681-0.071-1.03c0.024-2.005,0.089-4.01,0.083-6.014
	c-0.003-1.252-1.311-2.761-2.436-2.923c-1.665-0.242-3.482,0.554-3.808,1.918c-0.352,1.473-0.418,3.017-0.562,4.534
	C132.351,58.95,132.333,60,132.274,61.14z"/>
<path fill-rule="evenodd" clip-rule="evenodd" fill="#f4751a" class="fill" d="M145.642,164.42c-0.875,0-1.838,0-3.034,0
	c0.32-7.786,1.147-15.469,0.754-23.255c-4.994,0-9.666,0-14.582,0c-0.434,7.88-0.853,15.495-1.271,23.101c-1.087,0-2.018,0-2.953,0
	c-0.973-9.141,1.136-18.068,0.923-27.27c7.319,0.154,14.426,0.304,21.834,0.461C146.762,146.355,146.204,155.344,145.642,164.42z"/>
<path fill-rule="evenodd" clip-rule="evenodd" fill="#f4751a" class="fill" d="M74.872,70.13c-1.373,0-2.384-0.025-3.392,0.008
	c-0.978,0.03-1.953,0.12-2.996,0.188c-1.1,1.06-0.636,2.53-0.722,3.8c-0.194,2.862-0.126,5.742-0.169,8.614
	c-0.003,0.217-0.038,0.432-0.056,0.627c-1.2-0.119-2.342-0.232-3.335-0.332c0-5.212,0-10.357,0-15.553c8.745,0,17.216,0,26.039,0
	c-0.268,5.579-0.534,11.125-0.805,16.773c-1.181-0.103-2.252-0.197-3.366-0.295c0-1.936-0.016-3.742,0.004-5.547
	c0.024-2.218,0.111-4.436,0.098-6.653c-0.004-0.822-0.645-1.015-1.374-0.967c-1.655,0.109-3.31,0.208-5.306,0.332
	c-0.116,2.035-0.233,4.145-0.359,6.254c-0.125,2.099-0.259,4.198-0.397,6.416c-1.322,0-2.625,0-4.08,0
	C73.967,79.292,74.729,74.848,74.872,70.13z"/>
<path fill-rule="evenodd" clip-rule="evenodd" fill="#f4751a" class="fill" d="M151.432,69.693c-0.212,5.638-0.41,10.897-0.613,16.275
	c-0.954-0.081-1.726-0.146-2.747-0.23c0.223-4.171,0.444-8.319,0.678-12.683c-2.26,0-4.353,0-6.586,0
	c-0.333,4.211-0.663,8.406-1.001,12.684c-1.107,0-2.186,0-3.315,0c0-4.158,0-8.348,0-12.654c-0.657-0.429-4.65-0.319-6.589,0.355
	c-0.212,3.944-0.427,7.961-0.653,12.179c-1.313-0.126-2.523-0.243-3.908-0.375c0.185-5.621,0.365-11.141,0.553-16.832
	C135.349,68.842,143.274,69.261,151.432,69.693z"/>
<path fill-rule="evenodd" clip-rule="evenodd" fill="#f4751a" class="fill" d="M173.271,113.732c-2.172-0.362-4.331,0.199-6.786,0.276
	c-0.194,4.909-0.386,9.773-0.585,14.813c-1.018-0.061-1.919-0.113-3.049-0.18c0.207-4.593,0.406-8.98,0.611-13.518
	c-2.16-1.321-4.372-0.246-6.755-0.316c-0.184,4.651-0.362,9.146-0.542,13.678c-0.942-0.072-1.908-0.146-3.199-0.246
	c0.607-6.344,1.212-12.647,1.847-19.267c7.166,0.153,14.17,0.304,21.422,0.461c-0.178,6.557-1.248,12.966-1.924,19.482
	c-0.636,0-1.21,0-1.875,0C172.714,123.866,172.987,118.913,173.271,113.732z"/>
<path fill-rule="evenodd" clip-rule="evenodd" fill="#f4751a" class="fill" d="M159.556,62.382c-0.901,0-1.639,0-2.506,0
	c0.403-4.832,0.797-9.557,1.181-14.162c7.162,0,14.176,0,21.425,0c0.305,4.941-0.228,9.803-0.396,14.886
	c-1.052-0.105-1.925-0.193-2.926-0.292c0-1.789-0.088-3.479,0.019-5.157c0.216-3.415,0.252-3.422-2.852-4.356
	c-2.118,0.676-2.708,1.467-2.841,3.75c-0.105,1.803-0.234,3.604-0.358,5.498c-1.481,0-2.963,0-4.681,0
	c0-0.838,0.021-1.577-0.004-2.316c-0.059-1.725-0.163-3.448-0.203-5.172c-0.023-1.011-0.345-1.769-1.381-2.08
	c-1.156-0.346-2.393-0.493-3.241,0.457c-0.607,0.68-1.106,1.672-1.18,2.565C159.439,58.057,159.556,60.136,159.556,62.382z"/>
<path fill-rule="evenodd" clip-rule="evenodd" fill="#f4751a" class="fill" d="M175.396,74.513c-2.164-1.193-4.272-0.135-6.484-0.395
	c-0.827,4.112-0.316,8.211-0.862,12.229c-0.993,0-1.979,0-3.035,0c0.165-3.982,0.324-7.813,0.495-11.938
	c-1.777-1.399-3.836-0.267-6.021-0.247c-0.142,0.677-0.353,1.304-0.394,1.941c-0.192,2.98-0.333,5.964-0.508,8.944
	c-0.022,0.37-0.143,0.734-0.233,1.171c-0.633,0.03-1.227,0.058-2.08,0.099c0.215-5.393,0.426-10.689,0.642-16.076
	c7.283,0.425,14.511,0.847,22.07,1.288c-0.254,4.92-0.507,9.819-0.763,14.773c-1.275,0.084-2.276,0.15-3.586,0.236
	C174.892,82.487,175.14,78.565,175.396,74.513z"/>
<path fill-rule="evenodd" clip-rule="evenodd" fill="#f4751a" class="fill" d="M23.544,130.341c0-0.634,0-1.373,0-2.259
	c11.102,0,22.248,0,33.495,0c0,0.94,0,1.782,0,2.691C45.892,130.63,34.774,130.485,23.544,130.341z"/>
<path fill-rule="evenodd" clip-rule="evenodd" fill="#f4751a" class="fill" d="M118.76,129.518c-0.201,1.168-0.361,2.104-0.529,3.08
	c-8.108-0.261-16.126-0.521-24.188-0.78c0-0.943,0-1.794,0-2.979C102.235,129.063,110.344,129.287,118.76,129.518z"/>
<path fill-rule="evenodd" clip-rule="evenodd" fill="#f4751a" class="fill" d="M148.019,130.444c-0.08,1.189-0.14,2.08-0.217,3.204
	c-7.373-0.222-14.624-0.441-22.041-0.665c0.089-1.08,0.165-1.987,0.249-3C133.418,130.138,140.663,130.291,148.019,130.444z"/>
<path fill-rule="evenodd" clip-rule="evenodd" fill="#f4751a" class="fill" d="M63.855,130.958c-0.069-0.833-0.138-1.66-0.221-2.651
	c8.059-0.01,15.976,0.134,24.018,0.58c-0.111,1.079-0.191,1.85-0.289,2.802C79.612,131.448,71.904,131.208,63.855,130.958z"/>
<path fill-rule="evenodd" clip-rule="evenodd" fill="#f4751a" class="fill" d="M174.166,131.273c-0.176,1.059-0.287,1.725-0.393,2.363
	c-6.94,0-13.853,0-20.911,0c0.05-1.075,0.09-1.949,0.139-3.039C160.121,130.825,167.07,131.046,174.166,131.273z"/>
<path fill-rule="evenodd" clip-rule="evenodd" fill="#f4751a" class="fill" d="M56.861,62.255c0.029,0.62,0.04,0.872,0.054,1.174
	c-11.181,0-22.311,0-33.54,0c0-0.552,0-0.972,0-1.644C34.537,61.942,45.641,62.098,56.861,62.255z"/>
<path fill-rule="evenodd" clip-rule="evenodd" fill="#f4751a" class="fill" d="M179.042,65.168c0.084,0.883,0.137,1.437,0.215,2.255
	c-7.482-0.408-14.883-0.811-22.313-1.216c0-0.642,0-1.047,0-1.714C164.324,64.688,171.674,64.618,179.042,65.168z"/>
<path fill-rule="evenodd" clip-rule="evenodd" fill="#f4751a" class="fill" d="M127.464,64.674c0-0.381,0-0.748,0-1.339
	c8.062-0.25,16.011,0.799,24.081,1.008c0,0.566,0,1.03,0,1.623C143.509,65.534,135.537,65.106,127.464,64.674z"/>
<path fill-rule="evenodd" clip-rule="evenodd" fill="#f4751a" class="fill" d="M122,63.536c-0.022,0.38-0.04,0.672-0.062,1.055
	c-8.502,0-16.955,0-25.474,0c-0.11-0.503-0.177-0.811-0.286-1.312C104.834,62.909,113.346,63.105,122,63.536z"/>
<path fill-rule="evenodd" clip-rule="evenodd" fill="#f4751a" class="fill" d="M90.32,62.748c0,0.635,0,0.962,0,1.562
	c-8.635-0.379-17.202-0.754-25.847-1.134c0-0.241,0-0.473,0-0.831C73.112,62.479,81.704,62.612,90.32,62.748z"/>
</svg>
