<svg version="1.1" id="svg" xmlns="http://www.w3.org/2000/svg" xmlns:xlink="http://www.w3.org/1999/xlink" x="0px" y="0px"
	 width="200px" height="200px" viewBox="0 0 200 200" enable-background="new 0 0 200 200" xml:space="preserve">
<path class="stroke" fill="#6e3411"  d="M80.575,123.998c1.322,0.096,2.645,0.195,3.963,0.321c2.506,0.239,5.008,0.51,7.514,0.748
	c1.417,0.134,2.837,0.225,4.255,0.341c1.707,0.14,3.411,0.32,5.12,0.422c2.223,0.134,4.454,0.157,6.674,0.321
	c2.567,0.189,5.149,0.484,7.669-0.171c2.149-0.559,4.24-1.343,6.35-2.048c1.908-0.638,3.77-1.462,5.72-1.909
	c1.72-0.395,3.08-1.22,4.212-2.464c1.659-1.822,3.241-3.715,4.858-5.575c1.739-1.999,3.492-3.985,5.217-5.995
	c1.349-1.571,2.714-3.134,3.985-4.767c2.067-2.653,4.057-5.368,6.094-8.045c1.121-1.475,2.289-2.913,3.404-4.391
	c1.791-2.375,3.557-4.769,5.331-7.155c1.604-2.158,3.303-4.251,4.775-6.495c1.079-1.646,1.879-3.478,2.766-5.245
	c1.074-2.139,0.521-3.288-0.747-4.676c-1.248-1.368-3.013-1.666-4.63-2.151c-1.821-0.545-3.744-0.766-5.632-1.075
	c-1.938-0.317-3.888-0.555-5.828-0.859c-1.139-0.178-2.268-0.417-3.423-0.633c-0.112-0.874-0.268-1.691-0.313-2.515
	c-0.1-1.799-1.289-4.212-3.497-4.629c-1.651-0.312-3.35-0.414-5.033-0.486c-1.887-0.081-3.786,0.072-5.669-0.051
	c-2.069-0.136-4.126-0.471-6.189-0.717c-1.888-0.226-3.775-0.46-5.665-0.668c-1.236-0.136-2.482-0.187-3.714-0.353
	c-2.387-0.323-4.764-0.727-7.152-1.047c-1.824-0.244-3.66-0.391-5.485-0.623c-0.914-0.116-1.813-0.335-2.723-0.492
	c-1.324-0.228-2.646-0.465-3.975-0.652c-0.646-0.09-1.307-0.075-1.961-0.108c-0.025,0.026-0.05,0.052-0.075,0.078
	c-0.351-0.085-0.696-0.201-1.052-0.251c-1.537-0.218-3.08-0.389-4.613-0.627c-2.126-0.33-4.094,0.128-5.808,1.355
	c-2.125,1.521-4.16,3.168-6.206,4.796c-1.617,1.288-3.218,2.6-4.779,3.956c-1.521,1.321-2.97,2.725-4.473,4.068
	c-2.294,2.051-4.634,4.051-6.902,6.131c-1.836,1.683-3.595,3.451-5.388,5.181c-1.433,1.382-2.898,2.73-4.284,4.158
	c-1.047,1.08-1.949,2.3-2.989,3.388c-1.756,1.837-3.583,3.604-5.351,5.43c-0.864,0.893-1.64,1.87-2.491,2.775
	c-1.444,1.538-3.033,2.956-4.35,4.595c-2.021,2.515-4.623,4.316-7.075,6.326c-1.503,1.232-2.799,2.745-4.061,4.238
	c-0.822,0.974-1.451,2.119-2.106,3.224c-0.966,1.633-2.121,3.184-1.354,5.33c0.517,1.447,0.913,2.828,2.488,3.536
	c2.704,1.216,5.458,2.202,8.429,2.541c2.78,0.317,5.548,0.74,8.327,1.071c2.083,0.248,4.174,0.456,6.266,0.623
	c1.504,0.12,3.019,0.113,4.524,0.216c2.357,0.161,4.709,0.41,7.067,0.541c2.301,0.127,4.611,0.095,6.911,0.237
	C71.863,123.342,76.219,123.682,80.575,123.998z"/>
<path class="stroke" fill="#6e3411"  d="M186.126,99.653c-3.564,1.522-7.133,3.046-10.568,4.514c-0.555-1.417-1.003-2.708-1.564-3.947
	c-0.404-0.895-1.618-1.477-2.341-1.353c-2.815,0.481-4.69,2.392-6.541,4.311c-1.204,1.249-2.335,2.573-3.451,3.903
	c-1.382,1.647-2.679,3.368-4.081,4.998c-0.928,1.08-1.848,2.246-3.003,3.031c-1.498,1.019-3.229,1.69-4.854,2.523
	c-1.567,0.804-3.107,1.662-4.692,2.428c-2.706,1.307-5.424,2.591-8.163,3.827c-3.25,1.467-6.504,2.934-9.804,4.286
	c-2.56,1.05-5.207,1.881-7.787,2.884c-2.193,0.854-4.362,1.774-6.504,2.749c-0.677,0.308-1.273,0.434-2.001,0.282
	c-1.629-0.341-3.226-0.264-4.821,0.336c-3.048,1.147-6.15,2.153-9.192,3.317c-3.016,1.153-5.99,2.417-8.974,3.653
	c-1.147,0.476-2.257,1.04-3.41,1.502c-1.957,0.784-3.944,1.492-5.898,2.285c-1.702,0.691-3.386,1.43-5.059,2.189
	c-2.888,1.311-5.521,2.898-6.379,6.288c0.631,2.525,1.916,4.617,3.542,6.521c0.778,0.911,1.716,1.767,2.905,1.774
	c1.376,0.008,2.825-0.186,4.119-0.643c2.833-1,5.614-2.162,8.368-3.369c4.513-1.979,8.991-4.039,13.475-6.083
	c3.834-1.749,7.675-3.483,11.473-5.308c1.593-0.765,3.311-1.43,4.273-3.101c0.296-0.516,0.624-1.015,0.941-1.527
	c7.75-3.064,15.497-6.129,23.287-9.209c3.278,2.043,6.676,3.65,10.75,2.181c-0.033,0.123-0.067,0.246-0.1,0.369
	c0.605,0.204,1.21,0.407,1.741,0.586c0.451-0.416,0.768-0.684,1.058-0.979c0.74-0.756,1.551-1.144,2.647-0.77
	c0.278,0.095,0.737-0.058,1-0.251c0.686-0.505,1.309-1.095,1.995-1.685c0.556,0.202,1.11,0.403,1.754,0.637
	c0.995-0.907,2-1.824,2.967-2.707c1.082,0.417,2.048,0.806,2.898-0.169c0.291-0.333,0.671-0.633,0.833-1.022
	c0.444-1.066,1.214-1.146,2.177-0.906c0.646,0.161,1.195,0.045,1.661-0.534c0.797-0.99,1.691-1.9,2.497-2.884
	c0.523-0.639,1.067-1.173,1.919-1.346c0.421-0.085,0.814-0.307,1.176-0.45c0.249-0.577,0.372-1.142,0.691-1.555
	c1.519-1.958,3.166-3.822,4.179-6.122c1.145-2.599,2.34-5.179,3.394-7.814c0.658-1.648,1.143-3.372,1.605-5.09
	C186.464,101.442,186.738,100.604,186.126,99.653z"/>
<path fill-rule="evenodd" clip-rule="evenodd" fill="#ffd624" class="fill" d="M56.465,80.601c1.324-1.283,2.547-2.438,3.736-3.628
	c1.947-1.952,3.883-3.916,5.802-5.896c3.329-3.433,6.801-6.688,10.654-9.546c3.066-2.273,6.067-4.651,8.927-7.177
	c1.277-1.127,2.57-1.974,4.198-2.356c0.149-0.035,0.296-0.095,0.43-0.169c0.135-0.075,0.252-0.181,0.343-0.248
	c1.066,0.133,2.093,0.252,3.117,0.391c2.772,0.375,5.542,0.768,8.315,1.138c2.824,0.376,5.648,0.741,8.474,1.096
	c3.627,0.455,7.251,0.926,10.884,1.331c2.471,0.276,4.956,0.427,7.43,0.679c2.089,0.212,4.168,0.509,6.256,0.727
	c0.953,0.099,1.921,0.052,2.875,0.146c2.002,0.199,4,0.446,5.999,0.679c0.099,0.011,0.192,0.068,0.378,0.137
	c-0.104,0.195-0.16,0.393-0.287,0.524c-1.543,1.6-3.103,3.184-4.646,4.784c-0.827,0.858-1.592,1.782-2.457,2.599
	c-1.318,1.246-2.703,2.421-4.051,3.636c-0.307,0.277-0.625,0.563-0.857,0.901c-1.183,1.711-3.109,2.02-4.877,2.628
	c-2.002,0.689-3.997,1.4-6.018,2.032c-1.696,0.531-3.442,0.903-5.129,1.458c-1.223,0.402-2.385,0.99-3.576,1.492
	c-1.043,0.439-2.066,0.935-3.135,1.299c-3.149,1.072-6.303,2.137-9.486,3.105c-1.053,0.32-2.193,0.398-3.302,0.476
	c-1.569,0.11-3.146,0.183-4.718,0.153c-2.745-0.05-5.488-0.171-8.23-0.298c-2.802-0.13-5.603-0.313-8.405-0.456
	c-3.372-0.17-6.746-0.301-10.118-0.492c-0.934-0.053-1.857-0.276-2.791-0.383c-1.672-0.192-3.347-0.351-5.02-0.534
	C57.014,80.812,56.854,80.729,56.465,80.601z"/>
<path fill-rule="evenodd" clip-rule="evenodd" fill="#ffd624" class="fill" d="M56.902,83.337c1.059,0.104,2.032,0.208,3.007,0.294
	c2.92,0.257,5.837,0.55,8.761,0.745c1.909,0.126,3.829,0.076,5.742,0.163c2.982,0.136,5.961,0.342,8.944,0.475
	c1.989,0.088,3.984,0.05,5.972,0.166c1.341,0.078,2.669,0.431,4.009,0.469c2.042,0.059,4.091-0.027,6.135-0.098
	c0.746-0.026,1.489-0.183,2.364-0.296c1.063,0.916,2.153,1.89,3.284,2.814c0.717,0.587,1.445,1.193,2.258,1.621
	c0.883,0.465,1.283,1.212,1.714,2.026c0.698,1.321,1.55,2.562,2.226,3.894c0.628,1.239,1.517,2.206,2.577,3.063
	c0.198,0.16,0.367,0.485,0.371,0.737c0.028,2.115,0.017,4.229,0.017,6.531c-1.961,0-3.686-0.021-5.408,0.011
	c-0.633,0.012-1.264,0.219-1.895,0.214c-1.33-0.011-2.659-0.089-3.988-0.163c-1.589-0.087-3.176-0.226-4.767-0.291
	c-2.679-0.11-5.355-0.145-8.018-0.584c-1.783-0.295-3.608-0.344-5.412-0.517c-2.348-0.225-4.697-0.438-7.04-0.707
	c-2.132-0.244-4.248-0.643-6.384-0.817c-3.025-0.247-6.07-0.256-9.09-0.544c-2.137-0.204-4.256-0.681-6.086-1.935
	c-0.219-0.15-0.435-0.469-0.455-0.725c-0.267-3.533-0.257-7.06,0.26-10.579c0.233-1.585,0.322-3.192,0.515-4.784
	C56.562,84.126,56.763,83.75,56.902,83.337z"/>
<path fill-rule="evenodd" clip-rule="evenodd" fill="#ffd624" class="fill" d="M38.621,107.393c4.459-5.034,8.806-9.941,13.152-14.849
	c0.216,0.899,0.356,1.72-0.259,2.458c-0.696,0.834-1.459,1.636-2.019,2.558c-0.606,0.998-1.012,2.117-1.428,3.016
	c0.113,0.5,0.176,0.775,0.238,1.051c0.806,1.157,2.174,1.31,3.337,1.639c2.77,0.785,5.586,1.455,8.425,1.926
	c2.209,0.367,4.482,0.345,6.723,0.534c2.173,0.183,4.339,0.438,6.512,0.619c2.017,0.169,4.042,0.238,6.056,0.433
	c1.804,0.175,3.595,0.478,5.396,0.695c1.261,0.153,2.525,0.289,3.793,0.378c1.964,0.138,3.932,0.214,5.896,0.343
	c1.734,0.114,3.465,0.268,5.198,0.397c0.466,0.034,0.935,0.057,1.402,0.065c2.937,0.051,5.874,0.094,8.812,0.146
	c2.222,0.039,4.447,0.173,6.667,0.103c1.805-0.058,3.554-0.482,4.901-1.853c2.91-2.962,5.878-5.87,8.708-8.907
	c2.204-2.367,4.178-4.948,6.359-7.337c1.763-1.929,3.7-3.698,5.53-5.566c1.763-1.802,3.528-3.604,5.215-5.477
	c1.029-1.143,1.312-2.575,1.226-4.115c-0.051-0.92,0.083-1.851,0.139-2.885c2.544,0.388,4.952,0.865,7.236,2.205
	c-0.271,0.388-0.521,0.765-0.789,1.13c-0.919,1.254-1.832,2.512-2.769,3.753c-1.4,1.854-2.794,3.715-4.233,5.538
	c-2.116,2.679-4.256,5.34-6.416,7.985c-1.312,1.607-2.653,3.193-4.03,4.744c-2.354,2.651-4.745,5.268-7.122,7.897
	c-1.914,2.117-3.823,4.236-5.747,6.344c-0.646,0.708-1.288,1.184-2.433,1.171c-2.25-0.024-4.502,0.332-6.757,0.459
	c-1.48,0.084-2.968,0.097-4.45,0.046c-2.013-0.069-4.022-0.254-6.036-0.347c-3.528-0.162-7.062-0.232-10.585-0.453
	c-2.782-0.175-5.549-0.565-8.329-0.778c-2.718-0.208-5.445-0.298-8.166-0.467c-1.888-0.117-3.77-0.327-5.658-0.411
	c-1.915-0.084-3.834-0.053-5.75-0.097c-1.472-0.035-2.946-0.074-4.414-0.174c-1.58-0.107-3.158-0.259-4.73-0.447
	c-1.41-0.168-2.812-0.404-4.215-0.622c-1.61-0.25-3.22-0.502-4.827-0.771c-2.819-0.472-5.638-0.943-8.45-1.453
	C39.526,107.944,39.16,107.657,38.621,107.393z"/>
<path fill-rule="evenodd" clip-rule="evenodd" fill="#ffd624" class="fill" d="M145.689,60.924c0.117,0.934,0.283,1.865,0.341,2.802
	c0.117,1.902,0.284,3.81,0.232,5.71c-0.069,2.584,0.455,5.278-0.891,7.688c-0.637,1.141-1.494,2.168-2.316,3.195
	c-1.26,1.574-2.505,3.17-3.889,4.631c-1.053,1.111-2.395,1.946-3.462,3.045c-2.276,2.344-4.436,4.802-6.685,7.172
	c-2.705,2.852-5.392,5.727-8.221,8.452c-0.915,0.882-2.244,1.338-3.399,1.962c-0.21,0.114-0.491,0.1-0.769,0.149
	c-0.058-0.202-0.143-0.349-0.134-0.49c0.199-3.105,0.894-6.105,2.187-8.926c0.368-0.804,1.099-1.562,1.853-2.043
	c1.704-1.086,2.964-2.603,4.229-4.094c0.679-0.799,1.039-1.871,1.528-2.827c0.199-0.387,0.358-0.793,0.543-1.188
	c1.345-2.881,2.662-5.776,4.046-8.637c0.868-1.794,1.73-3.606,2.8-5.278c0.628-0.981,1.653-1.709,2.51-2.541
	c2.009-1.952,4.021-3.902,6.04-5.845c1.042-1.003,2.098-1.99,3.149-2.983C145.484,60.895,145.587,60.909,145.689,60.924z"/>
<path fill-rule="evenodd" clip-rule="evenodd" fill="#ffd624" class="fill" d="M50.909,113.665c-0.655-0.111-1.565-0.299-2.486-0.415
	c-2.96-0.372-5.925-0.699-8.884-1.083c-1.428-0.185-2.853-0.419-4.262-0.711c-0.517-0.107-1.019-0.396-1.461-0.699
	c-0.236-0.162-0.416-0.517-0.469-0.812c-0.249-1.403,0.538-2.471,1.34-3.442c2.827-3.424,5.712-6.801,8.583-10.188
	c1.474-1.738,2.938-3.488,4.462-5.183c1.36-1.513,2.796-2.958,4.275-4.514c0.396,0.987,0.239,1.753-0.36,2.447
	c-1.035,1.2-2.062,2.408-3.117,3.589c-1.922,2.152-3.89,4.265-5.788,6.437c-2.14,2.447-4.237,4.93-6.319,7.425
	c-0.32,0.383-0.46,0.917-0.571,1.389c0.617,1.48,1.894,1.773,3.142,1.997c2.575,0.46,5.161,0.856,7.747,1.242
	c2.331,0.348,4.663,0.706,7.005,0.955c3.795,0.404,7.601,0.709,11.398,1.084c1.705,0.168,3.4,0.439,5.105,0.599
	c2.068,0.194,4.143,0.322,6.215,0.475c3.546,0.262,7.092,0.522,10.638,0.784c1.422,0.105,2.851,0.155,4.265,0.327
	c4.189,0.511,8.397,0.678,12.608,0.751c2.88,0.05,5.763-0.027,8.645-0.049c3.37-0.025,6.74-0.096,10.109-0.058
	c1.693,0.02,2.717-1.033,3.736-2.076c1.993-2.038,3.93-4.13,5.851-6.236c1.68-1.842,3.356-3.691,4.939-5.615
	c2.286-2.777,4.462-5.645,6.732-8.435c1.632-2.007,3.377-3.922,5.008-5.93c1.307-1.609,2.502-3.307,3.777-4.942
	c0.508-0.651,1.07-1.267,1.654-1.853c1.935-1.943,3.442-4.204,4.915-6.448c-0.305-1.168-1.243-1.414-2.146-1.615
	c-2.189-0.489-4.389-0.932-6.59-1.361c-0.617-0.12-1.256-0.127-1.899-0.188c-0.07-1.188-0.133-2.242-0.208-3.513
	c5.194,0.447,10.059,1.811,15.199,2.926c-0.194,0.671-0.217,1.211-0.479,1.583c-1.914,2.708-3.719,5.49-5.851,8.05
	c-1.483,1.781-2.662,3.813-4.026,5.696c-1.062,1.466-2.182,2.891-3.31,4.308c-1.189,1.495-2.532,2.88-3.605,4.453
	c-2.291,3.357-5.139,6.25-7.654,9.419c-1.442,1.817-3.109,3.456-4.681,5.171c-2.41,2.63-4.803,5.275-7.248,7.872
	c-0.87,0.925-2.122,1.04-3.299,1.064c-1.778,0.037-3.562-0.024-5.337-0.129c-2.092-0.124-4.178-0.343-6.268-0.511
	c-0.726-0.058-1.455-0.077-2.182-0.123c-1.659-0.104-3.318-0.207-4.976-0.323c-1.113-0.078-2.223-0.206-3.337-0.259
	c-2.331-0.112-4.663-0.208-6.995-0.276c-1.629-0.048-3.265,0.031-4.889-0.074c-2.174-0.14-4.337-0.453-6.51-0.6
	c-2.433-0.166-4.873-0.198-7.307-0.344c-2.577-0.156-5.149-0.399-7.726-0.563c-2.265-0.145-4.538-0.178-6.798-0.364
	c-1.847-0.153-3.679-0.481-5.523-0.689C54.216,113.925,52.726,113.824,50.909,113.665z"/>
<path fill-rule="evenodd" clip-rule="evenodd" fill="#ffd624" class="fill" d="M167.029,69.87c-0.577,1.146-1.077,2.339-1.748,3.428
	c-1.532,2.485-3.075,4.969-4.749,7.358c-1.873,2.674-3.872,5.261-5.861,7.851c-1.243,1.618-2.601,3.147-3.849,4.761
	c-0.966,1.248-1.807,2.59-2.765,3.844c-0.992,1.299-2.058,2.542-3.092,3.807c-1.424,1.741-2.825,3.502-4.281,5.215
	c-2.077,2.442-4.178,4.865-6.302,7.267c-1.598,1.806-3.25,3.564-4.876,5.346c-0.921,1.011-2.154,1.469-3.429,1.63
	c-2.12,0.268-4.262,0.404-6.398,0.491c-1.123,0.045-2.254-0.165-3.383-0.199c-0.906-0.028-1.818,0.094-2.722,0.047
	c-1.842-0.098-3.68-0.265-5.52-0.401c-0.958-0.071-1.916-0.18-2.875-0.201c-3.018-0.07-6.039-0.058-9.055-0.176
	c-1.725-0.067-3.44-0.347-5.163-0.492c-1.99-0.167-3.984-0.292-5.976-0.438c-1.939-0.142-3.878-0.3-5.819-0.426
	c-1.391-0.091-2.788-0.106-4.178-0.219c-1.62-0.131-3.231-0.364-4.852-0.495c-1.754-0.14-3.514-0.197-5.271-0.316
	c-2.012-0.136-4.022-0.306-6.034-0.45c-0.742-0.053-1.489-0.049-2.229-0.116c-3.376-0.302-6.753-0.597-10.125-0.938
	c-2.823-0.287-5.643-0.608-8.457-0.973c-0.705-0.091-1.384-0.4-2.071-0.62c-0.931-0.298-1.847-0.654-2.792-0.901
	c-3.049-0.796-4.092-3.891-2.112-6.554c1.467-1.975,3.063-3.854,4.623-5.759c1.38-1.685,2.768-3.366,4.195-5.01
	c1.02-1.175,2.119-2.28,3.167-3.43c0.765-0.838,1.507-1.696,2.251-2.552c0.493-0.567,0.935-1.186,1.464-1.716
	c1.574-1.577,3.178-3.124,4.778-4.675c0.237-0.23,0.516-0.418,0.958-0.527c-0.087,0.218-0.121,0.483-0.269,0.647
	c-1.281,1.429-2.593,2.83-3.874,4.259c-0.896,1-1.754,2.037-2.638,3.05c-1.372,1.574-2.776,3.12-4.122,4.716
	c-1.985,2.355-3.933,4.744-5.894,7.121c-0.909,1.102-1.817,2.205-2.714,3.316c-1.077,1.333-1.296,2.943-1.532,4.739
	c0.878,0.459,1.744,0.945,2.639,1.37c1.813,0.862,3.781,1.024,5.742,1.224c2.167,0.221,4.329,0.479,6.494,0.716
	c0.59,0.064,1.184,0.106,1.774,0.169c1.805,0.19,3.61,0.383,5.414,0.581c2.525,0.277,5.047,0.594,7.576,0.829
	c2.035,0.188,4.081,0.27,6.121,0.417c1.811,0.131,3.62,0.295,5.43,0.431c1.58,0.12,3.16,0.236,4.742,0.325
	c2.896,0.163,5.822,0.109,8.685,0.507c3.167,0.441,6.326,0.333,9.491,0.462c3.451,0.141,6.896,0.44,10.344,0.659
	c0.985,0.062,1.975,0.062,2.96,0.132c1.648,0.117,3.292,0.299,4.942,0.395c2.354,0.136,4.709,0.242,7.064,0.316
	c1.466,0.045,2.935,0.008,4.184,0.008c0.647-0.252,1.188-0.332,1.547-0.628c1.071-0.887,2.117-1.814,3.089-2.809
	c1.784-1.826,3.524-3.696,5.255-5.574c1.881-2.041,3.77-4.077,5.58-6.181c1.072-1.246,1.983-2.628,2.995-3.928
	c0.313-0.402,0.754-0.704,1.075-1.101c1.628-2.019,3.257-4.037,4.846-6.087c1.424-1.839,2.791-3.723,4.191-5.58
	c2.128-2.822,4.29-5.621,6.39-8.464c1.521-2.059,2.987-4.159,4.436-6.269c0.953-1.388,0.586-2.902-0.794-3.791
	c-5.105-0.661-9.937-2.46-15.089-2.897c0-0.268,0-0.641,0-1.258c1.096,0.139,2.125,0.263,3.153,0.401
	c0.794,0.107,1.582,0.285,2.378,0.341c2.984,0.211,5.923,0.63,8.755,1.652c0.923,0.333,1.874,0.588,2.809,0.885
	C166.324,68.646,166.814,69.021,167.029,69.87z"/>
<path fill-rule="evenodd" clip-rule="evenodd" fill="#ffd624" class="fill" d="M115.162,97.116c-0.45-0.526-0.978-1.034-1.373-1.63
	c-0.521-0.785-1.037-1.6-1.375-2.471c-0.639-1.642-1.344-3.167-2.734-4.375c-1.692-1.47-3.226-3.124-4.927-4.795
	c0.015-0.084,0.064-0.355,0.129-0.716c0.965-0.082,2.022,0.014,2.953-0.286c2.213-0.714,4.385-1.568,6.536-2.457
	c1.118-0.462,2.118-1.213,3.241-1.663c1.264-0.507,2.616-0.788,3.911-1.227c1.81-0.614,3.591-1.311,5.402-1.917
	c0.945-0.316,1.93-0.515,3.116-0.823c-0.693,1.362-1.302,2.564-1.914,3.763c-0.648,1.269-1.294,2.539-1.959,3.799
	c-0.166,0.315-0.385,0.606-0.608,0.885c-1.188,1.474-1.458,3.344-2.186,5.016c-0.198,0.453-0.504,0.898-0.866,1.234
	c-1.837,1.704-3.757,3.319-5.543,5.073C116.229,95.248,115.759,96.239,115.162,97.116z M108.776,84.793
	c1.14,0.727,2.24,0.483,3.294,0.122c1.905-0.652,3.745-1.521,5.68-2.049c2.801-0.763,5.375-1.991,7.909-3.344
	c0.515-0.275,0.8-0.997,0.533-1.404c-0.12-0.066-0.276-0.158-0.438-0.236c-0.041-0.02-0.102,0.005-0.185,0.013
	c-5.11,3.078-10.814,4.636-16.619,6.291C108.931,84.258,108.861,84.499,108.776,84.793z M119.252,85.108
	c-0.89,0.294-1.516,0.558-2.168,0.705c-1.737,0.391-3.48,0.76-5.23,1.083c-0.874,0.162-1.192,0.733-1.497,1.693
	c3.37,0.311,6.206-1.091,9.384-1.991C119.563,86.056,119.417,85.607,119.252,85.108z"/>
<path fill-rule="evenodd" clip-rule="evenodd" fill="#ffd624" class="fill" d="M171.852,100.552c0.444,0.989,0.92,1.88,1.248,2.823
	c0.378,1.09,0.624,2.227,0.935,3.34c0.679,2.425,1.313,4.862,1.287,7.406c-0.016,1.521-0.029,3.048-0.18,4.558
	c-0.178,1.784-2.341,3.663-4.357,3.927c-2.774,0.362-5.549,0.726-8.324,1.077c-1.792,0.226-5.483-0.781-6.658-1.888
	c0.833-1.67,1.58-3.458,2.572-5.098c1.928-3.191,3.927-6.344,6.035-9.418c0.793-1.157,1.932-2.09,2.977-3.057
	c1.263-1.168,2.592-2.267,3.898-3.388C171.394,100.74,171.55,100.699,171.852,100.552z"/>
<path fill-rule="evenodd" clip-rule="evenodd" fill="#ffd624" class="fill" d="M144.187,132.367c1.357-3.638,2.708-7.259,4.049-10.85
	c1.306-0.552,2.553-1.08,4.035-1.706c-0.902,2.868-1.755,5.531-2.572,8.207c-0.317,1.036-0.531,2.102-0.828,3.145
	c-0.484,1.694-1.935,2.381-3.595,1.717C144.944,132.746,144.628,132.575,144.187,132.367z"/>
<path fill-rule="evenodd" clip-rule="evenodd" fill="#ffd624" class="fill" d="M182.135,103.911c-0.225,0.734-0.411,1.261-0.546,1.801
	c-0.527,2.097-0.954,4.224-1.585,6.289c-0.362,1.185-1.022,2.283-1.592,3.398c-0.324,0.634-0.737,1.223-1.109,1.832
	c-0.083-0.02-0.167-0.04-0.25-0.059c0.137-1.007,0.226-2.024,0.421-3.02c0.501-2.555,1.055-5.1,1.576-7.651
	c0.168-0.829,0.487-1.501,1.37-1.8C180.942,104.522,181.431,104.24,182.135,103.911z"/>
<path fill-rule="evenodd" clip-rule="evenodd" fill="#ffd624" class="fill" d="M154.491,124.47c1.097,0.324,1.953,0.577,2.906,0.858
	c-0.853,2.256-1.686,4.461-2.538,6.716c-0.924-0.376-1.755-0.972-2.518,0.158c-0.056-0.07-0.112-0.14-0.168-0.21
	C152.933,129.528,153.692,127.064,154.491,124.47z"/>
</svg>
