<svg version="1.1" id="svg" xmlns="http://www.w3.org/2000/svg" xmlns:xlink="http://www.w3.org/1999/xlink" x="0px" y="0px"
	 width="200px" height="200px" viewBox="0 0 200 200" enable-background="new 0 0 200 200" xml:space="preserve">
<path class="stroke" fill="#a70c1e"  fill-rule="evenodd" clip-rule="evenodd" d="M196.26,75.465c0.151,10.942,1.165,21.731,1.316,32.642
	c-1.438,0.128-2.513,0.257-3.589,0.311c-1.722,0.086-3.447,0.146-5.171,0.178c-3.606,0.065-7.214,0.125-10.822,0.146
	c-3.055,0.019-6.11-0.055-9.166-0.022c-3.456,0.038-6.914,0.093-10.367,0.245c-4.286,0.19-8.566,0.521-12.851,0.692
	c-0.486,0.02-1.143-0.49-1.472-0.937c-1.017-1.379-1.913-2.848-2.885-4.326c-0.101-5.025-0.158-10.217-0.325-15.404
	c-0.166-5.155-0.445-10.308-0.875-15.543c0.043,3.946-1.515,6.937-5.095,8.85c-0.482,28.273-0.966,56.553-1.448,84.74
	c1.027,1.242,1.327,2.551,0.979,4.391c-2.749,0-5.536-0.039-8.321,0.009c-4.137,0.072-8.271,0.212-12.408,0.309
	c-0.884,0.022-1.77-0.003-2.655-0.018c-7.022-0.122-14.045-0.321-21.067-0.343c-4.5-0.014-9,0.231-13.5,0.36
	c-2.894,0.083-5.786,0.198-8.68,0.238c-2.81,0.041-5.621,0.042-8.43-0.006c-7.56-0.128-15.119-0.277-22.678-0.445
	c-4.96-0.111-9.917-0.301-14.877-0.396c-4.05-0.078-8.102-0.042-12.151-0.111c-1.478-0.024-2.953-0.204-4.623-0.327
	c-1.432-1.154-1.178-3.058-1.252-4.661c-0.143-3.081,0.147-6.179,0.207-9.271c0.094-4.966,0.124-9.935,0.229-14.901
	c0.051-2.412,0.238-4.819,0.317-7.23c0.207-6.386,0.432-12.771,0.56-19.159c0.082-4.092-0.073-8.189,0.021-12.28
	c0.065-2.868,0.404-5.728,0.558-8.594c0.108-1.999,0.07-4.006,0.172-6.006c0.087-1.712,0.28-3.419,0.426-5.134
	c-3.431-1.894-4.233-5.132-4.586-8.629c-0.125-1.232-0.385-2.453-0.639-4.021c3.559-9.15,7.232-18.594,10.954-28.162
	c-0.088-0.182-0.239-0.494-0.436-0.9c0.641-0.521,1.28-1.04,2.064-1.676c0.351,0.249,0.741,0.525,1.083,0.767
	c3.882-0.364,7.748-0.823,11.627-1.058c2.714-0.163,5.447,0.016,8.171-0.018c4.884-0.059,9.767-0.165,14.652-0.244
	c5.98-0.097,11.96-0.199,17.941-0.273c5.017-0.062,10.034-0.164,15.051-0.105c5.253,0.061,10.507,0.24,15.756,0.465
	c6.535,0.281,13.065,0.7,19.6,0.988c4.37,0.192,8.745,0.256,13.254,0.38c0.409,1.4,0.805,2.753,1.173,4.014
	c3.559,0.167,6.917,0.412,10.278,0.454c2.601,0.034,5.206-0.313,7.806-0.269c5.871,0.102,11.741,0.369,17.611,0.51
	c2.813,0.068,5.63,0.028,8.444-0.013c4.477-0.065,8.953-0.237,13.43-0.236c2.567,0.001,5.133,0.257,7.699,0.396
	c0.54,0.029,1.081,0.048,1.811,0.081c0,1.288,0.085,2.521-0.022,3.736c-0.123,1.401-1.258,2.142-2.659,2.047
	c-1.391-0.094-2.792-0.079-4.186-0.06c-1.109,0.015-2.218,0.106-3.427,0.17c0,1.231,0,2.463,0,3.793
	c1.931,0.407,4.236-0.345,5.433,1.965c0.399,0.223,0.854,0.475,1.451,0.809C195.865,64.045,196.062,69.756,196.26,75.465z
	 M180.75,51.958c-9.169,0.142-18.306,0.284-27.588,0.428c0,1.203,0,2.083,0,2.921c9.249,0.169,18.351,0.336,27.588,0.506
	C180.75,54.566,180.75,53.379,180.75,51.958z M140.211,69.574c0.09-0.049,0.18-0.098,0.27-0.148
	c-0.119-3.041-0.192-6.085-0.375-9.123c-0.101-1.688,0.082-3.271,1.032-4.928c0.957,0.1,1.953,0.203,3.073,0.32
	c-0.13-0.965-0.249-1.852-0.388-2.88c-3.139,0-6.125,0-9.353,0c0.525,1.689,1.037,3.331,1.549,4.974
	c0.179,0.507,0.553,0.963,0.713,1.483c0.948,3.079,1.832,6.176,2.775,9.256C139.626,68.912,139.972,69.227,140.211,69.574z"/>
<path fill-rule="evenodd" clip-rule="evenodd" fill="#f5f1eb" class="fill" d="M64.056,83.528c2.781,0.33,4.949-0.772,7.008-1.997
	c2.088-1.243,3.947-2.802,4.431-5.499c0.125,0.032,0.252,0.063,0.378,0.095c0.249,0.552,0.577,1.082,0.732,1.66
	c0.717,2.674,2.679,3.928,5.118,4.8c2.652,0.948,5.288,0.726,7.536-0.665c1.477-0.914,2.507-2.644,3.549-4.139
	c0.837-1.2,1.392-2.597,2.115-3.991c0.166,0.247,0.32,0.391,0.373,0.567c0.827,2.775,2.795,4.62,5.027,6.278
	c2.981,2.215,6.606,1.591,9.028-1.131c1.034-1.161,1.855-2.512,2.844-3.874c0.113,0.369,0.248,0.746,0.345,1.133
	c1.083,4.342,5.061,6.365,8.934,5.651c1.304-0.24,2.47-1.515,3.573-2.463c0.994-0.855,1.815-1.91,2.781-2.951
	c0.771,1.909,1.401,3.903,3.376,4.668c-0.146,14.879-0.292,29.625-0.438,44.638c-7.166,0-14.071,0-21.17,0
	c1.933-3.687,3.294-7.449,3.582-11.619c3.033-1.237,6.048-2.465,9.064-3.694c0.006,0.21,0.013,0.421,0.02,0.631
	c1.125,0.378,2.229,0.975,3.381,1.087c2.014,0.196,3.366-1.475,2.755-3.414c-0.456-1.449-1.294-2.778-1.962-4.162
	c-0.107,0.021-0.214,0.042-0.321,0.062c0.254-0.836,0.509-1.673,0.771-2.537c-0.006-0.05,0.004-0.137-0.026-0.207
	c-0.604-1.418-1.201-3.042-2.98-3.099c-2.025-0.065-3.801,0.896-4.811,2.693c-0.692,1.229-1.466,1.881-2.895,2.142
	c-1.912,0.35-3.75,1.089-5.633,1.617c-1.057,0.297-2.138,0.507-3.149,0.741c-3.363-1.215-6.727-2.504-10.143-3.635
	c-1.735-0.576-3.572-0.838-5.349-1.297c-3.223-0.832-6.41-1.725-9.808-1.641c-3.649,0.09-6.566,1.433-9.009,4.152
	c-1.88,2.094-2.301,4.608-2.642,7.193c-0.538,4.07,0.102,8.068,0.829,12.058c0.077,0.421,0.091,0.854,0.138,1.335
	c-2.224,0.161-4.331,0.313-6.611,0.478C63.949,111.321,64.307,97.495,64.056,83.528z"/>
<path fill-rule="evenodd" clip-rule="evenodd" fill="#f5f1eb" class="fill" d="M53.672,101.527c0,2.104,0.01,3.862-0.001,5.622
	c-0.026,3.926-0.077,7.853-0.094,11.78c-0.017,4.203-0.059,8.406,0.006,12.608c0.065,4.277,0.298,8.552,0.357,12.83
	c0.029,2.079-0.186,4.16-0.27,6.242c-0.167,4.107-0.32,8.215-0.479,12.344c-13.482-0.497-26.982,0.385-40.439-0.598
	c-0.241-21.011-0.479-41.813-0.719-62.689C25.921,100.287,39.698,100.902,53.672,101.527z M49.062,131.845
	c0.147-1.368,0.384-2.56,0.388-3.753c0.015-4.436-0.093-8.872-0.063-13.307c0.02-2.961,0.204-5.92,0.295-8.881
	c0.029-0.922-0.225-1.747-1.301-1.842c-2.041-0.181-4.088-0.312-6.134-0.405c-1.283-0.059-2.57,0.01-3.854-0.016
	c-3.808-0.074-7.615-0.162-11.422-0.253c-2.61-0.063-5.218-0.153-7.828-0.199c-0.828-0.015-1.657,0.077-2.486,0.12
	c-0.232-0.441-0.413-0.785-0.665-1.266c-0.485,0.131-0.952,0.258-1.251,0.339c0,3.021-0.055,5.842,0.012,8.661
	c0.131,5.538,0.308,11.075,0.518,16.61c0.046,1.187,0.321,2.363,0.514,3.707c1.053,0.168,1.985,0.438,2.918,0.442
	c2.046,0.011,4.092-0.118,6.138-0.18c3.081-0.092,6.162-0.249,9.243-0.243c3.802,0.008,7.604,0.144,11.405,0.247
	C46.667,131.659,47.845,131.768,49.062,131.845z M51.783,136.48c-1.341-1.942-3.991-2.156-5.723-0.816
	c-0.968,0.75-1.501,1.681-1.208,2.926c0.297,1.266,1.247,2.064,2.685,2.221c1.214,0.133,2.476,0.217,3.07-1.214
	C51.063,138.497,51.451,137.367,51.783,136.48z"/>
<path fill-rule="evenodd" clip-rule="evenodd" fill="#f5f1eb" class="fill" d="M191.064,101.709c-1.41,0.13-2.596,0.312-3.785,0.339
	c-4.333,0.097-8.669,0.213-13.003,0.193c-5.662-0.026-11.326-0.3-16.986-0.225c-3.395,0.046-6.783,0.572-10.176,0.845
	c-0.916,0.074-1.843,0.011-3.063,0.011c0-0.782-0.009-1.579,0.003-2.375c0.007-0.44,0.093-0.882,0.07-1.319
	c-0.15-2.913-0.352-5.823-0.475-8.737c-0.11-2.605-0.105-5.214-0.225-7.818c-0.046-1.026-0.289-2.042-0.447-3.062
	c-0.036-0.237-0.131-0.472-0.125-0.707c0.117-5.121,0.243-10.243,0.372-15.363c0.03-1.197,0.05-2.396,0.142-3.588
	c0.029-0.372,0.282-0.726,0.412-1.04c15.69-1.173,31.253-0.445,47.087,0.79c0,0.743,0.027,1.723-0.005,2.702
	c-0.151,4.616-0.427,9.232-0.454,13.849c-0.033,5.584,0.105,11.17,0.234,16.753C190.707,95.836,190.914,98.71,191.064,101.709z
	 M172.654,100.353c3.955,0.288,6.977-0.322,9.448-2.708c1.986-1.917,3.716-4.011,4.042-6.863c0.213-1.867,0.28-3.764,0.247-5.644
	c-0.057-3.238-0.097-6.456-1.101-9.629c-1.095-3.462-3.165-6.16-5.996-8.187c-4.198-3.004-8.855-5.185-13.937-6.265
	c-3.638-0.774-7.334-0.948-10.453,1.508c-1.671,1.316-3.023,3.056-4.436,4.677c-0.99,1.136-1.355,2.571-1.229,4.053
	c0.135,1.584,0.262,3.202,0.692,4.72c0.878,3.085,1.818,6.141,1.972,9.375c0.185,3.88,1.567,7.319,4.119,10.212
	c2.95,3.343,6.676,5.213,11.209,5.131C169.26,100.698,171.285,100.454,172.654,100.353z"/>
<path fill-rule="evenodd" clip-rule="evenodd" fill="#f5f1eb" class="fill" d="M130.333,128.504c0,4.238,0,8.36,0,12.854
	c-3.787,0-7.307-0.041-10.825,0.011c-4.21,0.06-8.42,0.287-12.631,0.278c-4.324-0.009-8.647-0.248-12.972-0.324
	c-2.847-0.05-5.696-0.021-8.543,0.024c-3.055,0.049-6.11,0.194-9.165,0.233c-2.936,0.039-5.871,0.02-8.806-0.025
	c-0.91-0.014-1.816-0.195-2.781-0.307c0-4.833,0-9.501,0-14.316c2.533-0.16,4.8-0.304,7.08-0.449c0.655,1.959,1.23,3.78,1.872,5.577
	c1.7,4.754,5.013,7.705,10.033,8.401c1.443,0.2,3.154-0.019,4.465-0.635c5.755-2.707,11.651-5.196,16.646-9.28
	c0.652-0.533,1.329-1.046,2.044-1.489c0.424-0.262,0.944-0.515,1.423-0.519c7.247-0.053,14.495-0.065,21.742-0.083
	C130.075,128.455,130.234,128.492,130.333,128.504z"/>
<path fill-rule="evenodd" clip-rule="evenodd" fill="#f5f1eb" class="fill" d="M18.785,76.87c0.588,1.379,1.095,2.676,1.686,3.933
	c1.37,2.917,4.275,4.363,7.43,3.896c2.542-0.376,4.894-1.179,6.917-2.763c0.677-0.529,1.254-1.249,1.711-1.984
	c0.879-1.42,1.641-2.913,2.486-4.44c0.632,1.682,1.099,3.304,1.835,4.793c1.166,2.356,4.701,3.648,7.172,2.709
	c2.05-0.779,4.063-1.656,6.16-2.517c-0.152,5.133-0.311,10.445-0.464,15.567c-14.021,0.909-27.877-0.307-41.864-2.06
	c0-1.118-0.019-2.105,0.003-3.092c0.042-1.891,0.125-3.782,0.156-5.674c0.016-1.021,0.208-1.879,1.275-2.344
	c2.25-0.979,3.657-2.801,4.77-4.903C18.258,77.615,18.521,77.273,18.785,76.87z"/>
<path fill-rule="evenodd" clip-rule="evenodd" fill="#f5f1eb" class="fill" d="M45.897,41.648c-2.346,9.485-4.643,18.777-6.962,28.159
	c-5.901,0.297-11.642,1.5-17.681,1.109c0.377-1.394,0.657-2.546,1.001-3.677c1.568-5.164,3.155-10.322,4.736-15.481
	c0.035-0.115,0.126-0.229,0.121-0.34c-0.133-3.211,1.958-5.637,2.976-8.442c0.137-0.375,0.285-0.746,0.506-1.327
	C35.512,41.648,40.509,41.648,45.897,41.648z"/>
<path fill-rule="evenodd" clip-rule="evenodd" fill="#f5f1eb" class="fill" d="M64.513,166.729c-1.289-7.945,0.276-15.592-0.198-23.318
	c0.354-0.084,0.614-0.202,0.874-0.201c5.694,0.015,11.389,0.087,17.083,0.047c2.446-0.018,4.893-0.408,7.336-0.376
	c3.006,0.039,6.006,0.413,9.015,0.508c2.603,0.083,5.212-0.015,7.818-0.047c3.136-0.04,6.272-0.11,9.408-0.137
	c3.782-0.033,7.563-0.023,11.344-0.057c0.907-0.008,1.812-0.114,2.887-0.186c0.318,8.067,0.772,15.971,0.179,23.925
	c-4.461-0.154-8.769-0.336-13.077-0.447c-5.374-0.137-10.75-0.18-16.124-0.338c-2.043-0.061-4.079-0.375-6.122-0.485
	c-1.074-0.058-2.16,0.07-3.24,0.12c-7.144,0.33-14.284,0.681-21.428,0.979C68.274,166.799,66.274,166.729,64.513,166.729z
	 M126.319,145.21c-0.6-0.053-1.44-0.181-2.282-0.19c-4.245-0.044-8.49-0.053-12.735-0.083c-1.925-0.014-3.86-0.176-5.774-0.046
	c-3.964,0.269-7.912,0.833-11.877,1.005c-4.287,0.187-8.587,0.024-12.881,0.091c-2.807,0.044-5.611,0.266-8.419,0.333
	c-1.526,0.038-3.055-0.1-4.583-0.118c-0.403-0.004-0.807,0.147-1.261,0.236c-0.133,5.48-0.262,10.809-0.394,16.25
	c0.562,0.248,0.954,0.534,1.377,0.589c1.628,0.21,3.263,0.364,4.898,0.508c6.87,0.604,13.73,0.175,20.59-0.197
	c2.283-0.124,4.564-0.311,6.849-0.363c3.772-0.086,7.548-0.104,11.322-0.121c4.935-0.023,9.869-0.02,14.803-0.018
	c0.543,0,1.085,0.071,1.786,0.121c0.15-0.709,0.399-1.32,0.389-1.927c-0.063-3.574-0.131-7.149-0.315-10.719
	C127.719,148.776,128.441,146.765,126.319,145.21z"/>
<path fill-rule="evenodd" clip-rule="evenodd" fill="#f5f1eb" class="fill" d="M60.558,69.45c0.705-9.482,1.403-18.888,2.113-28.431
	c4.797,0,9.31,0,13.816,0c-0.383,9.666-0.759,19.197-1.141,28.84C70.359,69.746,65.49,70.448,60.558,69.45z"/>
<path fill-rule="evenodd" clip-rule="evenodd" fill="#f5f1eb" class="fill" d="M110.923,69.077c-4.829,0.146-9.344,0.282-13.953,0.42
	c-0.652-9.405-1.29-18.612-1.936-27.93c4.107,0.139,7.903,0.267,11.633,0.392C108.092,51.038,109.503,60.031,110.923,69.077z"/>
<path fill-rule="evenodd" clip-rule="evenodd" fill="#f5f1eb" class="fill" d="M120.078,42.712c3.248,0,6.238,0,9.375,0
	c2.231,9.331,6.414,17.939,8.488,27.265c-3.417,0-6.616,0-10.09,0C125.263,60.896,122.684,51.849,120.078,42.712z"/>
<path fill-rule="evenodd" clip-rule="evenodd" fill="#f5f1eb" class="fill" d="M60.167,81.316c1.591,0.614,2.323,1.493,2.288,3.08
	c-0.123,5.569-0.224,11.141-0.212,16.711c0.012,5.415,0.202,10.829,0.258,16.244c0.074,7.384,0.148,14.767,0.12,22.151
	c-0.018,4.499-0.274,8.995-0.335,13.494c-0.061,4.522-0.013,9.046-0.013,13.844c-0.986,0.058-1.975,0.116-3.247,0.192
	c0-2.816-0.042-5.433,0.009-8.046c0.099-5.039,0.276-10.076,0.371-15.115c0.052-2.749-0.013-5.5-0.002-8.25
	c0.012-3.14,0.084-6.281,0.066-9.421c-0.027-4.527-0.182-9.053-0.152-13.579c0.029-4.741,0.215-9.481,0.331-14.223
	c0.127-5.181,0.252-10.362,0.385-15.544C60.046,82.385,60.113,81.917,60.167,81.316z"/>
<path fill-rule="evenodd" clip-rule="evenodd" fill="#f5f1eb" class="fill" d="M79.434,104.25c2.633-0.071,4.824,0.991,6.836,2.593
	c4.062,3.236,6.625,7.468,8.164,12.344c0.833,2.64,1.19,5.375,0.907,8.162c-0.411,4.066-2.351,7.018-6.134,8.772
	c-2.108,0.978-4.194,1.148-6.428,0.65c-2.022-0.45-3.448-1.671-4.537-3.312c-1.702-2.565-2.798-5.383-3.312-8.434
	c-0.56-3.319-1.337-6.61-1.731-9.946c-0.335-2.835-0.271-5.696,1.551-8.212C76.004,105.131,77.324,104.298,79.434,104.25z
	 M87.048,120.485c2.348,0.039,3.67-0.575,3.685-2.006c0.017-1.71-0.08-3.678-0.903-5.079c-1.153-1.964-2.856-3.709-4.636-5.168
	c-1.311-1.073-3.062-1.757-4.727-2.188c-0.903-0.233-2.205,0.172-3.036,0.726c-3.271,2.179-3.584,9.366-0.91,11.75
	c1.82,1.623,3.699,0.925,4.395-0.714c0.221-0.522,0.597-0.978,0.86-1.398c1.477,0.285,2.729,0.514,3.525,1.726
	C85.861,118.985,86.515,119.773,87.048,120.485z M85.971,127.621c0.195,0.001,0.39,0.002,0.585,0.003
	c0.214,1.132,0.445,2.259,0.634,3.394c0.078,0.469,0.039,0.958,0.102,1.431c0.145,1.095,0.783,1.542,1.905,1.472
	c2.027-0.127,3.143-1.501,3.465-3.179c0.65-3.396,0.949-6.858,1.403-10.369c-0.924-0.39-1.573-0.662-2.544-1.071
	c-0.044,2.995-1.839,3.796-4.165,3.978C86.879,124.777,86.425,126.199,85.971,127.621z M77.803,121.03
	c-0.901,0.226-1.555,0.556-1.602,1.648c-0.181,4.324,1.3,7.929,4.671,10.642c0.757,0.61,1.847,0.948,2.833,1.101
	c1.389,0.215,2.367-0.551,2.614-1.716c0.292-1.381-0.555-3.369-1.592-3.789c-0.919-0.373-1.791-0.915-2.742-1.146
	c-1.911-0.464-2.289-1.837-2.181-3.452C79.91,122.744,79.301,121.707,77.803,121.03z M84.918,125.1
	c0.235-0.521,0.494-0.974,0.643-1.461c0.151-0.494,0.198-1.019,0.279-1.533c0.267-1.686-0.436-2.847-1.938-3.208
	c-1.392-0.335-2.593,0.395-3.151,1.915c-0.379,1.034,0.058,3.181,0.784,3.855C82.34,125.417,83.812,125.623,84.918,125.1z"/>
<path fill-rule="evenodd" clip-rule="evenodd" fill="#f5f1eb" class="fill" d="M93.797,71.779c-1.172,2.211-2.405,4.393-3.498,6.642
	c-0.864,1.776-2.301,2.491-4.133,2.852c-2.847,0.561-6.669-1.411-7.7-4.117c-0.426-1.121-0.845-2.247-1.176-3.398
	c-0.156-0.546-0.095-1.154-0.144-1.903c5.538-0.207,10.898-0.407,16.258-0.607C93.534,71.424,93.666,71.603,93.797,71.779z"/>
<path fill-rule="evenodd" clip-rule="evenodd" fill="#f5f1eb" class="fill" d="M196.305,47.369c0,0.825,0,1.248,0,1.528
	c-19.875,0.31-39.658,0.618-59.705,0.931c-0.226-0.663-0.532-1.562-0.862-2.531c2.239,0,4.2,0.021,6.161-0.006
	c2.275-0.029,4.55-0.132,6.825-0.146c4.057-0.023,8.115-0.06,12.171,0.016c3.403,0.063,6.803,0.318,10.206,0.415
	c2.965,0.085,5.935,0.121,8.901,0.084c3.614-0.045,7.227-0.205,10.841-0.285C192.631,47.336,194.419,47.369,196.305,47.369z"/>
<path fill-rule="evenodd" clip-rule="evenodd" fill="#f5f1eb" class="fill" d="M40.287,71.658c5.264,0,10.286,0,15.294,0
	c0.563,4.288-2.672,7.84-8.685,9.875c-3.448-0.074-4.812-2.043-5.368-4.912C41.228,75.063,40.763,73.538,40.287,71.658z"/>
<path fill-rule="evenodd" clip-rule="evenodd" fill="#f5f1eb" class="fill" d="M3.442,72.338c4.984,0.266,9.81,0.522,14.808,0.789
	c-0.285,0.828-0.595,1.782-0.941,2.725c-1.357,3.702-3.932,5.936-7.922,6.207c-1.763,0.12-3.308-0.603-4.281-2.199
	C3.74,77.618,3.57,75.108,3.442,72.338z"/>
<path fill-rule="evenodd" clip-rule="evenodd" fill="#f5f1eb" class="fill" d="M113.772,72.794c4.668,0,9.016,0,13.397,0
	c-0.312,3.673-2.613,6.106-5.732,7.754c-2.133,1.127-5.857-0.898-6.704-3.474C114.271,75.667,114.074,74.174,113.772,72.794z"/>
<path fill-rule="evenodd" clip-rule="evenodd" fill="#f5f1eb" class="fill" d="M122.178,108.224c-3.145,1.104-6.108,2.144-9.024,3.167
	c-0.576-1.042-1.109-2.008-1.783-3.23c1.302-0.32,2.656-0.66,4.014-0.983c1.171-0.277,2.345-0.546,3.522-0.798
	c1.132-0.242,1.682-1.115,2.308-1.965c0.625-0.85,1.377-1.606,2.053-2.377c1.365,0.869,0.78,1.604,0.273,2.363
	c-0.462,0.694-0.887,1.412-1.481,2.362c0.877,0.207,1.36,0.336,1.85,0.432c1.727,0.336,2.457,1.955,1.32,3.484
	C124.179,109.835,123.127,108.988,122.178,108.224z"/>
<path fill-rule="evenodd" clip-rule="evenodd" fill="#f5f1eb" class="fill" d="M184.136,55.839c0-0.853,0-1.516,0-2.319
	c0.754-0.293,1.52-0.59,2.395-0.93c0.188,1,0.351,1.871,0.557,2.966C186.052,55.656,185.141,55.743,184.136,55.839z"/>
<path fill-rule="evenodd" clip-rule="evenodd" fill="#f5f1eb" class="fill" d="M151.104,55.872c-1.32-0.134-2.527-0.257-3.706-0.376
	c-0.224-1.292,1.442-2.095,3.706-1.833C151.104,54.296,151.104,54.943,151.104,55.872z"/>
<path fill-rule="evenodd" clip-rule="evenodd" fill="#f5f1eb" class="fill" d="M16.513,105.491c10.536-0.001,20.877,0.028,31.397,0.782
	c0,7.928,0,15.685,0,23.605c-10.124-1.091-20.12,0.502-30.431-0.036c-0.124-1.168-0.31-2.332-0.36-3.501
	c-0.224-5.134-0.424-10.268-0.597-15.404C16.463,109.184,16.513,107.426,16.513,105.491z"/>
<path fill-rule="evenodd" clip-rule="evenodd" fill="#f5f1eb" class="fill" d="M50.307,137.81c-0.61,0.471-1.175,1.218-1.844,1.328
	c-0.605,0.101-1.326-0.496-1.975-0.776c0.324-1.256,0.848-1.856,1.785-1.99C49.116,136.252,49.756,136.568,50.307,137.81z"/>
<path fill-rule="evenodd" clip-rule="evenodd" fill="#f5f1eb" class="fill" d="M184.674,85.201c-0.435,2.243-0.767,4.532-1.376,6.743
	c-0.181,0.655-1.056,1.355-1.762,1.59c-3.812,1.273-7.701,2.139-11.779,1.992c-1.909-0.069-3.738-0.443-5.265-1.465
	c-4.266-2.855-7.632-6.339-7.855-11.951c-0.14-3.483-0.674-6.922-2.12-10.171c-0.48-1.08-0.656-2.297-0.933-3.461
	c-0.059-0.255-0.05-0.627,0.095-0.814c1.372-1.765,2.646-3.487,5.105-4.105c5.93-1.494,11.043,0.382,15.997,3.313
	c0.515,0.305,1.048,0.583,1.586,0.845c3.83,1.871,5.806,5.219,6.853,9.104C183.943,79.5,184.19,82.308,184.674,85.201z
	 M164.811,79.696c0.036-0.494,0.063-0.813,0.082-1.133c0.163-2.817,2.726-4.972,5.464-4.596c1.398,0.192,2.359-0.484,2.506-1.761
	c0.343-3.004-1.436-5.662-4.33-6.528c-1.148-0.343-2.267-0.785-3.412-1.139c-2.589-0.802-5.141-0.767-7.45,0.771
	c-0.628,0.418-1.266,1.288-1.323,1.996c-0.106,1.321,0.109,2.696,0.377,4.011c0.323,1.595,0.827,3.154,1.276,4.724
	c0.37,1.292,0.631,2.639,1.193,3.844c0.775,1.665,2.453,2.058,4.034,1.092C163.799,80.628,164.282,80.131,164.811,79.696z
	 M174.873,70.779c0.103,0.039,0.207,0.077,0.309,0.115c-0.521,1.35-0.984,2.726-1.584,4.041c-0.403,0.884-0.83,1.811-0.096,2.57
	c1.262,1.3,1.292,2.977,1.576,4.543c0.312,1.715,1.611,3.478,3.317,3.815c1.245,0.246,3.406-0.121,3.631-1.731
	c0.499-3.575,0.672-7.137-1.364-10.365c-0.913-1.448-1.797-2.98-3.553-3.625C176.214,69.812,175.396,69.779,174.873,70.779z
	 M173.02,84.542c-0.463,0.569-0.898,0.867-0.981,1.244c-0.47,2.139-0.957,4.284-1.216,6.453c-0.101,0.842,0.711,1.379,1.628,1.415
	c0.763,0.029,1.563-0.13,2.285,0.048c2.12,0.522,3.948-0.237,5.738-1.154c1.173-0.6,1.812-2.02,1.553-3.131
	c-0.277-1.186-1.078-1.775-2.739-1.701c-1.547,0.069-2.662-0.664-3.79-1.542C174.761,85.6,173.938,85.14,173.02,84.542z
	 M159.546,85.095c0.941,2.859,2.391,5.006,4.674,6.418c1.837,1.137,3.229,1.422,4.448,0.172c0.093-1.041,0.017-2.085,0.308-3.017
	c0.554-1.781,0.28-3.387-1.139-4.509c-0.684-0.541-1.449-1.017-2.245-1.369c-1.68-0.745-3.22,0.205-4.744,0.668
	C160.282,83.629,159.948,84.56,159.546,85.095z M166.913,79.075c-0.062,0.021-0.125,0.042-0.188,0.064
	c0.25,0.741,0.388,1.549,0.778,2.208c0.62,1.046,1.615,1.687,2.874,1.626c1.082-0.053,1.812-0.686,2.307-1.671
	c0.839-1.667,0.446-3.078-0.706-4.415c-0.813-0.945-1.543-2.141-3.027-1.678c-1.457,0.455-1.83,1.787-2.032,3.142
	C166.883,78.588,166.913,78.834,166.913,79.075z"/>
<path fill-rule="evenodd" clip-rule="evenodd" fill="#f5f1eb" class="fill" d="M68.146,148.093c1.273,0,2.264,0.021,3.253-0.004
	c2.763-0.071,5.525-0.182,8.289-0.237c2.599-0.052,5.202,0.019,7.797-0.091c4.564-0.194,9.137-0.339,13.682-0.774
	c4.739-0.454,9.453-0.413,14.192-0.171c2.279,0.116,4.574-0.123,6.861-0.102c1.216,0.011,2.429,0.233,3.684,0.364
	c0.164,4.783,0.321,9.335,0.479,13.935c-0.503,0.048-0.784,0.132-1.045,0.091c-3.932-0.612-7.848,0.133-11.773,0.132
	c-4.375-0.001-8.749,0.065-13.122,0.149c-2.411,0.045-4.821,0.18-7.231,0.286c-1.72,0.077-3.438,0.219-5.158,0.255
	c-4.166,0.086-8.333,0.206-12.499,0.155c-2.398-0.028-4.795-0.362-7.408-0.576C68.146,157.059,68.146,152.646,68.146,148.093z"/>
</svg>
