<svg version="1.1" id="svg" xmlns="http://www.w3.org/2000/svg" xmlns:xlink="http://www.w3.org/1999/xlink" x="0px" y="0px"
	 width="200px" height="200px" viewBox="0 0 200 200" enable-background="new 0 0 200 200" xml:space="preserve">
<path class="stroke" fill="#283843"  d="M137.4,120.127c-0.084-2.453-0.25-4.904-0.34-7.356c-0.053-1.443,0.006-2.893-0.05-4.336
	c-0.073-1.848-0.217-3.692-0.326-5.538c-0.116-1.96-0.246-3.92-0.335-5.883c-0.047-1.038,0.013-2.081-0.031-3.12
	c-0.131-3.231-0.4-6.464-0.405-9.695c-0.006-4.256-0.435-8.482-0.62-12.724c-0.17-3.93-0.436-7.854-0.705-11.778
	c-0.086-1.265-0.271-2.527-0.494-3.775c-0.203-1.143-0.735-2.176-1.686-2.852c-1.545-1.102-3.213-1.871-5.203-1.883
	c-2.686-0.02-5.368-0.228-8.051-0.288c-2.827-0.067-5.656-0.101-8.482-0.068c-3.493,0.043-6.982,0.15-10.475,0.268
	c-2.857,0.094-5.713,0.244-8.567,0.371c0.001,0.011,0.001,0.021,0.001,0.03c-0.404,0-0.809-0.013-1.213,0.004
	c-3.088,0.129-6.175,0.311-9.266,0.378c-1.607,0.036-3.171,0.239-4.699,0.681c-0.936,0.271-1.929,0.513-2.568,1.341
	c-0.531,0.689-0.951,1.444-1.049,2.343c-0.104,0.945-0.324,1.885-0.347,2.83c-0.062,2.541-0.054,5.085-0.054,7.627
	c-0.002,1.3,0.078,2.601,0.049,3.899c-0.055,2.397-0.194,4.794-0.235,7.191c-0.027,1.704,0.069,3.409,0.074,5.112
	c0.003,1.1-0.085,2.196-0.085,3.295c0,3.032,0.103,6.065,0.021,9.095c-0.113,4.188-0.342,8.372-0.551,12.557
	c-0.059,1.152-0.254,2.297-0.324,3.449c-0.205,3.434-0.375,6.87-0.566,10.306c-0.046,0.834-0.176,1.667-0.17,2.501
	c0.018,2.108,0.082,4.218,0.145,6.325c0.069,2.341,0.594,4.552,1.689,6.652c1.314,2.521,3.378,3.905,6.117,4.312
	c1.223,0.183,2.473,0.187,3.713,0.234c2.971,0.112,5.939,0.235,8.914,0.289c2.482,0.044,4.968-0.007,7.451-0.01
	c1.3-0.002,2.602,0.028,3.9,0.009c2.109-0.03,4.215-0.09,6.322-0.138c0.521-0.013,1.043-0.007,1.561-0.05
	c2.676-0.217,5.35-0.479,8.027-0.66c1.287-0.087,2.598,0.084,3.875-0.054c2.555-0.274,5.098-0.659,7.639-1.038
	c2.307-0.345,4.033-1.625,5.117-3.631c1.412-2.617,2.324-5.44,2.418-8.428C137.619,125.328,137.486,122.726,137.4,120.127z"/>
<path fill-rule="evenodd" clip-rule="evenodd" fill="#7beeef" class="fill" d="M132.365,61.534c0.117,2.174,0.242,4.453,0.365,6.732
	c0,0.028,0.008,0.058,0.01,0.087c0.049,2.542,0.098,5.086,0.146,7.629c0,0.115-0.021,0.23-0.023,0.347
	c-0.043,3.352-0.102,6.704-0.125,10.058c-0.021,3.236,0.023,6.473-0.021,9.708c-0.031,2.107-0.206,4.213-0.258,6.318
	c-0.045,1.788,0.019,3.579-0.008,5.368c-0.047,3.209-0.145,6.416-0.184,9.625c-0.025,2.023,0.041,4.047,0.014,6.069
	c-0.016,1.338-0.332,2.628-0.838,3.869c-0.107,0.269-0.232,0.53-0.334,0.801c-0.406,1.059-1.163,1.776-2.188,2.223
	c-1.236,0.54-2.545,0.767-3.881,0.827c-2.771,0.125-5.541,0.283-8.314,0.328c-4.249,0.069-8.499,0.041-12.749,0.083
	c-2.828,0.028-5.659,0.114-8.49,0.158c-0.81,0.012-1.618-0.047-2.427-0.054c-3.059-0.029-6.121-0.055-9.18-0.069
	c-1.762-0.01-3.524,0.046-5.284-0.018c-0.738-0.025-1.495-0.206-2.198-0.45c-1.117-0.389-1.699-1.362-2.141-2.374
	c-0.598-1.365-0.783-2.839-0.891-4.313c-0.119-1.642-0.232-3.287-0.275-4.931c-0.025-1.035,0.059-2.076,0.133-3.112
	c0.191-2.708,0.408-5.416,0.6-8.125c0.057-0.775,0.07-1.558,0.094-2.335c0.05-1.705,0.081-3.409,0.146-5.113
	c0.047-1.242,0.169-2.48,0.203-3.723c0.066-2.396,0.145-4.794,0.125-7.19c-0.025-3.323-0.168-6.646-0.197-9.968
	c-0.023-2.74,0.043-5.479,0.074-8.221c0.03-2.566,0.158-5.136,0.072-7.698c-0.086-2.559,0.367-5.063,0.504-7.6
	c0.052-0.938,0.649-1.62,1.449-2.026c0.553-0.283,1.197-0.481,1.814-0.525c1.721-0.122,3.449-0.143,5.174-0.207
	c4.071-0.157,8.145-0.274,12.212-0.488c2.858-0.151,5.714-0.246,8.575-0.186c3.21,0.068,6.418,0.027,9.627,0.062
	c1.764,0.021,3.526,0.12,5.289,0.149c2.023,0.033,4.048,0.009,6.073,0.044c1.534,0.027,3.042,0.237,4.521,0.714
	c0.994,0.321,1.618,0.968,2.006,1.889c0.675,1.602,0.848,3.291,0.82,5.012C132.404,61.081,132.385,61.253,132.365,61.534z
	 M94.094,54.295c0,0.032,0,0.062,0,0.094c-0.344,0.016-0.688,0.049-1.033,0.044c-2.021-0.027-4.045-0.119-6.064-0.078
	c-2.078,0.04-4.152,0.247-6.23,0.303c-1.154,0.028-2.144,0.413-3.064,1.048c-0.783,0.54-1.219,1.301-1.314,2.246
	c-0.152,1.491-0.395,2.98-0.215,4.486c0.215,1.806,0.436,3.608,0.664,5.41c0.159,1.276,0.988,1.988,2.111,2.4
	c0.457,0.168,0.951,0.273,1.436,0.307c1.645,0.113,3.291,0.181,4.936,0.264c0.23,0.013,0.465-0.008,0.691,0.031
	c2.094,0.359,4.201,0.22,6.305,0.168c1.938-0.048,3.869-0.142,5.804-0.188c1.097-0.027,2.196,0.016,3.293,0.003
	c5.116-0.061,10.231-0.064,15.345-0.22c3.463-0.106,6.922-0.416,10.377-0.672c1.281-0.095,2.205-0.926,2.474-2.186
	c0.161-0.757,0.245-1.543,0.271-2.316c0.043-1.241,0.072-2.489-0.007-3.726c-0.091-1.436,0.037-2.886-0.386-4.301
	c-0.531-1.783-2.188-3.201-4.033-3.256c-2.279-0.069-4.562-0.112-6.842-0.097c-3.232,0.021-6.465,0.111-9.697,0.165
	c-1.962,0.032-3.924,0.06-5.887,0.067C100.047,54.304,97.071,54.295,94.094,54.295z M130.252,117.304c0.029,0,0.06,0,0.09,0
	c0-0.809-0.016-1.618,0.004-2.427c0.033-1.364-0.078-2.715-0.439-4.029c-0.422-1.543-1.314-2.569-3.023-2.796
	c-1.678-0.223-3.346-0.123-5.016-0.033c-0.452,0.024-0.909,0.176-1.341,0.332c-1.009,0.366-1.673,1.063-2.036,2.095
	c-0.398,1.139-0.551,2.289-0.506,3.491c0.09,2.507,0.117,5.017,0.227,7.525c0.031,0.713,0.199,1.433,0.4,2.121
	c0.4,1.358,1.117,1.873,2.546,1.854c1.647-0.021,3.298-0.038,4.938-0.157c2.613-0.188,4.236-2.5,4.164-4.512
	C130.217,119.615,130.252,118.459,130.252,117.304z M103.191,117.229c-1.035,0.246-1.868,0.476-2.716,0.638
	c-1.344,0.261-2.7,0.224-4.054,0.048c-1.373-0.178-2.746-0.342-4.121-0.483c-0.26-0.026-0.535,0.078-0.767,0.116
	c-0.276,1.607-0.626,8.856-0.455,9.424c4.318-0.158,8.646-0.315,13.031-0.477c0.035-0.707,0.098-1.308,0.089-1.906
	c-0.035-2.138-0.306-4.255-0.609-6.366C103.541,117.879,103.33,117.563,103.191,117.229z M77.996,117.7
	c-0.516,3.18-0.679,6.221-0.795,9.218c0.424,0.472,0.922,0.447,1.414,0.455c0.778,0.009,1.557,0.019,2.336,0.039
	c0.575,0.013,1.156,0.097,1.728,0.058c1.729-0.117,3.454-0.271,5.18-0.43c0.538-0.049,1.069-0.164,1.614-0.249
	c0.445-1.581,0.244-3.15,0.281-4.694c0.037-1.566-0.087-3.137-0.143-4.803c-0.418,0.085-0.775,0.095-1.074,0.232
	c-1.566,0.718-3.238,0.789-4.914,0.852c-1.575,0.057-3.096-0.307-4.626-0.588C78.699,117.735,78.395,117.734,77.996,117.7z
	 M104.734,126.043c0.971,0.249,12.051,0.062,12.737-0.198c-0.314-2.9-0.628-5.808-0.95-8.805c-3.682,0.299-7.26,0.652-10.924,0.306
	c-0.174,0.146-0.387,0.326-0.6,0.507C105.135,120.604,104.516,123.288,104.734,126.043z M77.849,95.536
	c-0.282,3.051-0.735,6.071-0.587,9.239c0.311,0.058,0.604,0.152,0.897,0.16c0.808,0.021,1.616,0.01,2.424,0.003
	c2.626-0.022,5.25-0.04,7.875-0.081c0.388-0.005,0.772-0.129,1.251-0.213c-0.068-3.196-0.135-6.299-0.204-9.504
	c-0.362-0.079-0.655-0.207-0.94-0.19c-0.516,0.03-1.035,0.112-1.534,0.236c-2.302,0.572-4.601,0.732-6.925,0.144
	c-0.391-0.098-0.795-0.14-1.195-0.188C78.524,95.098,78.157,95.143,77.849,95.536z M115.431,83.311
	c-0.376,0.132-0.724,0.265-1.081,0.374c-0.633,0.194-1.259,0.455-1.906,0.541c-1.11,0.15-2.238,0.267-3.357,0.255
	c-1.314-0.016-2.656,0.089-3.926-0.427c-0.127-0.051-0.316,0.05-0.564,0.096c-0.215,3.207-0.475,6.381-0.281,9.653
	c0.73,0,1.381,0.007,2.031,0c1.328-0.013,2.656-0.047,3.982-0.046c1.27,0.002,2.541,0.073,3.81,0.042
	c0.622-0.015,1.239-0.197,1.946-0.318c0.35-3.273-0.087-6.463,0.016-9.648C115.85,83.638,115.652,83.482,115.431,83.311z
	 M78.686,84.58c-0.512,0.478-0.723,0.881-0.753,1.412c-0.074,1.323-0.214,2.642-0.29,3.965c-0.057,1.005-0.082,2.013-0.078,3.021
	c0.002,1.062,0.188,1.224,1.271,1.286c0.085,0.003,0.172,0.016,0.258,0.017c2.363,0.062,4.725,0.133,7.088,0.183
	c1.094,0.022,2.189,0.042,3.314-0.323c0.4-1.017,0.326-2.081,0.297-3.139c-0.029-1.038-0.034-2.077-0.122-3.11
	c-0.087-1.039,0.224-2.114-0.19-3.131c-1.88,0.173-3.678,0.335-5.475,0.503C82.172,85.433,80.432,84.756,78.686,84.58z
	 M102.428,95.073c-0.43,0.021-0.77-0.054-1.018,0.063c-1.303,0.624-2.723,0.602-4.079,0.588c-1.825-0.02-3.704,0.07-5.395-0.71
	c-0.505,0.128-0.614,0.451-0.625,0.867c-0.075,2.771-0.159,5.542-0.235,8.314c-0.008,0.225,0.021,0.451,0.041,0.779
	c0.345,0.068,0.672,0.196,0.994,0.188c0.894-0.024,1.782-0.134,2.674-0.159c2.311-0.067,4.623-0.106,6.932-0.162
	c0.248-0.007,0.496-0.052,0.814-0.085C102.773,101.511,102.428,98.354,102.428,95.073z M103.244,115.645
	c-0.064-0.892-0.152-1.666-0.165-2.439c-0.034-1.991-0.022-3.982-0.054-5.975c-0.004-0.352-0.123-0.704-0.203-1.126
	c-3.682,0.787-7.275,1.24-10.98,0.452c-0.295,3.105-0.581,6.133-0.878,9.275c0.358,0.113,0.667,0.282,0.981,0.297
	c0.748,0.036,1.498-0.015,2.244-0.01c2.422,0.017,4.841-0.234,7.262-0.018c0.199,0.018,0.416,0.025,0.604-0.03
	C102.451,115.954,102.836,115.793,103.244,115.645z M116.558,104.415c-0.098-0.635-0.237-1.17-0.257-1.709
	c-0.061-1.76-0.047-3.521-0.124-5.281c-0.034-0.827-0.21-1.646-0.33-2.538c-0.408-0.088-0.738-0.226-1.06-0.209
	c-0.487,0.023-0.967,0.158-1.449,0.24c-2.453,0.419-4.906,0.82-7.396,0.262c-0.454-0.102-0.928-0.12-1.282,0.281
	c-0.531,1.527-0.964,8.184-0.585,9.417c0.279,0.025,0.588,0.081,0.897,0.08c1.705-0.011,3.411-0.011,5.115-0.062
	c1.962-0.062,3.923-0.166,5.884-0.271C116.176,104.615,116.371,104.485,116.558,104.415z M102.818,93.772
	c0.038-0.694,0.125-1.35,0.104-2c-0.068-2.248-0.166-4.496-0.264-6.745c-0.037-0.814-0.471-1.154-1.266-0.959
	c-0.727,0.18-1.447,0.401-2.156,0.642c-1.189,0.401-2.385,0.632-3.652,0.41c-1.074-0.188-2.166-0.293-3.332-0.446
	c-0.168,0.14-0.383,0.321-0.584,0.487c-0.518,2.856-0.549,5.7-0.557,8.466c0.406,0.415,0.815,0.407,1.219,0.376
	c2.17-0.173,4.32,0.131,6.477,0.263C100.11,94.344,101.393,94.256,102.818,93.772z M88.94,106.398
	c-0.523,0.085-0.907,0.093-1.249,0.215c-1.191,0.425-2.416,0.542-3.668,0.519c-1.56-0.029-3.117-0.036-4.635-0.479
	c-0.305-0.09-0.658-0.014-0.951-0.014c-0.496,1.469-1.101,7.786-0.934,9.63c1.287,0.45,2.627,0.292,3.975,0.23
	c1.326-0.062,2.66,0.011,3.988-0.043c1.336-0.054,2.678-0.065,3.921-0.188c0-0.944-0.003-1.746,0-2.548
	c0.003-0.376,0.04-0.751,0.022-1.125c-0.074-1.73-0.155-3.462-0.254-5.191C89.141,107.104,89.031,106.811,88.94,106.398z
	 M115.789,115.356c0.162-0.843,0.166-1.628,0.017-2.433c-0.144-0.764-0.231-1.544-0.271-2.319c-0.062-1.27-0.07-2.543-0.09-3.812
	c-0.006-0.357,0.009-0.707-0.411-0.842c-0.685,0.16-1.351,0.366-2.032,0.47c-2.432,0.372-4.869,0.696-7.308,0.055
	c-0.422-0.11-0.798-0.052-1.184,0.303c-0.449,2.859-0.402,5.803-0.571,8.712C104.648,115.787,110.547,115.71,115.789,115.356z
	 M84.074,82.333c0.889-0.143,1.83-0.254,2.754-0.451c1.688-0.359,2.73-1.316,2.727-3.155c0-0.03,0.004-0.06,0.012-0.087
	c0.477-1.428-0.25-2.435-1.283-3.199c-2.267-1.684-4.742-1.935-7.345-0.806c-0.45,0.192-0.905,0.38-1.343,0.603
	c-0.547,0.279-0.969,0.671-1.258,1.251c-0.586,1.175-0.656,2.378-0.356,3.619c0.22,0.91,0.894,1.458,1.737,1.622
	C81.131,82.006,82.57,82.133,84.074,82.333z M123.877,99.291c0-0.017,0.001-0.034,0.002-0.051c0.463,0,0.926-0.016,1.385,0.004
	c1.16,0.046,2.213-0.312,3.231-0.819c0.914-0.454,1.358-1.236,1.466-2.201c0.212-1.857-1.027-3.842-3.32-3.911
	c-2.084-0.062-4.141,0.073-6.193,0.432c-1.578,0.276-2.289,0.975-2.619,2.567c-0.403,1.941,1.248,3.805,2.854,3.795
	C121.746,99.103,122.811,99.226,123.877,99.291z M123.305,90.594c1.697-0.133,3.053-0.213,4.4-0.354
	c0.923-0.098,1.633-0.616,2.041-1.431c0.951-1.896,0.018-4.057-2.02-4.58c-0.822-0.211-1.709-0.186-2.569-0.222
	c-1.54-0.062-3.073,0.082-4.528,0.572c-1.407,0.472-2.488,1.297-2.561,3.006c-0.063,1.443,0.642,2.538,2.044,2.878
	c0.333,0.08,0.683,0.116,1.026,0.125C121.975,90.605,122.812,90.594,123.305,90.594z M122.682,81.649
	c1.156-0.12,1.965-0.168,2.762-0.294c0.975-0.153,1.912-0.45,2.728-1.032c0.721-0.512,1.153-1.162,1.11-2.11
	c-0.07-1.545-1.419-3.165-2.959-3.387c-1.08-0.157-2.184-0.164-3.254-0.367c-1.283-0.244-2.467,0.02-3.635,0.47
	c-0.338,0.131-0.668,0.347-0.932,0.598c-0.969,0.927-1.086,2.135-0.937,3.363c0.134,1.108,0.827,1.845,1.898,2.112
	C120.631,81.293,121.826,81.48,122.682,81.649z M96.781,82.113c1.678,0.013,3.117-0.112,4.486-0.607
	c0.465-0.167,0.986-0.451,1.256-0.839c0.828-1.189,0.892-2.539,0.451-3.894c-0.369-1.141-1.324-1.613-2.398-1.902
	c-0.082-0.022-0.162-0.057-0.246-0.077c-1.355-0.313-2.725-0.6-4.088-0.108c-0.975,0.35-1.928,0.764-2.872,1.188
	c-0.935,0.422-1.534,1.145-1.591,2.193c-0.035,0.628,0.032,1.261,0.088,1.89c0.064,0.73,0.453,1.199,1.16,1.46
	C94.314,81.893,95.635,82.147,96.781,82.113z M109.941,81.645c1.209-0.146,2.244-0.224,3.264-0.402
	c1.312-0.232,2.218-0.968,2.709-2.261c0.707-1.859,0.13-3.308-1.728-4.059c-2.347-0.945-4.685-0.832-6.975,0.17
	c-1.857,0.812-2.42,1.818-2.274,3.82c0.088,1.22,0.501,1.812,1.688,2.109C107.763,81.306,108.934,81.46,109.941,81.645z
	 M124.904,100.672c-0.904,0.056-2.205,0.111-3.499,0.222c-1.012,0.086-2.001,0.284-2.895,0.822
	c-0.532,0.318-0.892,0.761-0.968,1.364c-0.068,0.539-0.102,1.103-0.027,1.639c0.182,1.337,0.748,1.846,2.092,2.006
	c0.115,0.014,0.232,0.013,0.348,0.024c2.08,0.22,4.16,0.122,6.233-0.056c0.876-0.075,1.742-0.373,2.591-0.635
	c0.672-0.207,0.996-0.787,1.126-1.433c0.294-1.455-0.608-2.97-1.974-3.575C127.068,100.668,126.193,100.688,124.904,100.672z"/>
<path fill-rule="evenodd" clip-rule="evenodd" fill="#7beeef" class="fill" d="M133.938,135.026c-0.799,1.127-1.502,2.347-3.039,2.697
	c-1.914,0.436-3.817,0.916-5.793,1.005c-1.991,0.09-3.979,0.331-5.966,0.315c-3.155-0.023-6.274,0.445-9.418,0.546
	c-2.973,0.095-5.943,0.298-8.917,0.36c-2.914,0.064-5.832-0.003-8.748,0.016c-2.197,0.016-4.395,0.07-6.59,0.123
	c-2.684,0.062-5.303-0.394-7.884-1.044c-2.042-0.514-3.47-1.883-4.538-3.652c-0.073-0.122-0.121-0.262-0.157-0.4
	c-0.022-0.076,0.001-0.165,0.006-0.254c0.069,0.014,0.14,0.006,0.163,0.036c1.799,2.304,4.322,3.153,7.082,3.559
	c2.035,0.3,4.088,0.329,6.141,0.354c3.783,0.043,7.568,0.117,11.354,0.097c1.787-0.009,3.574-0.229,5.363-0.318
	c1.644-0.082,3.291-0.108,4.938-0.174c2.162-0.087,4.325-0.189,6.486-0.285c2.453-0.109,4.905-0.235,7.357-0.321
	c0.807-0.027,1.619,0.047,2.424,0.069c2.859,0.085,5.569-0.504,8.098-1.84c0.531-0.281,1.004-0.67,1.502-1.01
	C133.847,134.945,133.893,134.985,133.938,135.026z"/>
<path fill-rule="evenodd" clip-rule="evenodd" fill="#7beeef" class="fill" d="M128.205,69.013c-0.431,0.091-0.82,0.226-1.217,0.251
	c-3.688,0.241-7.374,0.498-11.064,0.674c-2.045,0.098-4.098,0.042-6.146,0.07c-3.092,0.041-6.18,0.092-9.269,0.148
	c-3.464,0.064-6.929,0.15-10.394,0.206c-3.031,0.05-6.049-0.321-9.074-0.44c-0.4-0.016-0.799-0.11-1.193-0.185
	c-0.855-0.161-1.55-0.584-1.768-1.461c-0.227-0.919-0.447-1.867-0.461-2.804c-0.031-2.137,0.031-4.275,0.125-6.411
	c0.073-1.617,0.677-2.504,2.688-2.643c4.405-0.302,8.817-0.528,13.231-0.709c1.931-0.08,3.871,0.053,5.808,0.042
	c2.225-0.012,4.449-0.069,6.674-0.114c2.163-0.042,4.327-0.079,6.489-0.144c3.871-0.117,7.73,0.321,11.602,0.186
	c0.43-0.015,0.863,0.054,1.295,0.091c1.902,0.164,3.455,1.479,3.537,3.686c0.078,2.074,0.154,4.149,0.146,6.225
	c-0.002,0.765-0.193,1.544-0.391,2.291C128.728,68.344,128.422,68.66,128.205,69.013z M116.818,57.589
	c0.142-0.424,0.283-0.848,0.426-1.268c-0.766-0.39-4.4-0.303-5.223,0.123c0.091,0.234,0.183,0.472,0.273,0.707
	c-0.289-0.182-0.578-0.363-0.877-0.551c-0.268,0.135-0.492,0.248-0.684,0.346c0,2.048,0,4.03,0,6.062
	c0.258,0.027,0.438,0.047,0.562,0.061c0.404-0.583,0.763-1.103,1.182-1.709c0-1.293,0-2.672,0-4.051
	c0.262,0.103,0.521,0.29,0.783,0.293c1.196,0.015,2.395-0.021,3.592-0.04c-0.322,0.269-0.352,0.629-0.363,1.017
	c-0.025,0.746-0.094,1.492-0.139,2.236c-0.014,0.224-0.002,0.449-0.002,0.694c0.48,0.225,0.904,0.422,1.324,0.62
	c0.363-0.734,0.63-3.334,0.471-4.433c-0.033-0.231-0.184-0.446-0.303-0.721C117.438,57.217,117.129,57.4,116.818,57.589z
	 M117.004,63.329c-0.129,0.185-0.26,0.368-0.344,0.488c0.074,0.852,0.141,1.622,0.213,2.442c0.564,0.11,0.699,0.917,1.528,0.842
	c0.251-1.082,0.094-2.187,0.011-3.278c-0.028-0.362,0.025-0.836-0.521-1.072c-0.258,0.166-0.539,0.351-0.82,0.534
	c-0.119-0.85-0.662-1.392-1.506-1.474c-0.852-0.083-1.703-0.146-2.594-0.222c-0.311,0.414-0.628,0.839-0.965,1.289
	c0.271,0.32,0.528,0.622,0.827,0.974c0.485-0.026,0.972-0.02,1.45-0.086C115.193,63.643,116.098,63.479,117.004,63.329z
	 M98.807,68.414c0.081-0.361,0.186-0.605,0.182-0.848c-0.014-1.466-0.055-2.932-0.09-4.397c-0.002-0.11-0.065-0.229-0.04-0.328
	c0.448-1.715,0.093-3.422,0.029-5.187c-0.255-0.097-0.476-0.181-0.713-0.27c-0.357,0.587-0.67,1.098-0.905,1.485
	c0,1.192,0,2.25,0,3.319c0.396,0.216,0.766,0.421,1.186,0.65c-0.459,0.42-0.873,0.799-1.191,1.09c0,1.341,0,2.515,0,3.744
	C97.756,67.911,98.234,68.14,98.807,68.414z M126.803,56.334c-1.627,0.051-3.049,0.066-4.469,0.149
	c-0.898,0.051-1.792,0.202-2.702,0.312c-0.021,0.24-0.044,0.38-0.038,0.521c0.025,0.95,0.057,1.9,0.088,2.851
	c0.021,0.635,0.042,1.268,0.066,1.902c0.012,0.332,0.137,0.556,0.584,0.51c0.191-0.383,0.373-0.807,0.604-1.199
	c0.744-1.272,0.992-2.549,0.102-3.863c-0.018-0.026,0.022-0.094,0.109-0.397c0.197,0.406,0.335,0.691,0.473,0.975
	c0.057-0.067,0.111-0.135,0.166-0.203c1.006,0,2.014,0.033,3.018-0.014c0.505-0.024,1.002-0.197,1.477-0.299
	C126.449,57.178,126.58,56.865,126.803,56.334z M103.32,62.028c-0.527,0.448-0.906,0.769-1.248,1.06
	c0,1.002,0.018,1.925-0.006,2.847c-0.025,0.905-0.092,1.809-0.139,2.7c1.687,0.663,3.256,0.027,4.82,0.056
	c0.285,0.006,0.576-0.161,0.984-0.282c-0.299-0.412-0.516-0.706-0.709-0.976c-1.105,0-2.159,0-3.275,0
	C103.631,65.673,103.743,63.921,103.32,62.028z M101.658,57.748c-0.029-0.003-0.059-0.006-0.087-0.009
	c0.095,0.687,0.188,1.373,0.278,2.06c0.093,0.696-0.162,1.44,0.228,2.088c0.876,0.019,1.298-0.343,1.295-1.147
	c-0.003-1.018-0.059-2.036-0.092-3.048c1.185-0.107,2.362-0.214,3.579-0.325c0.224-0.323,0.441-0.64,0.679-0.981
	c-0.995-0.313-5.116-0.104-5.701,0.219C101.771,57.016,101.715,57.381,101.658,57.748z M127.174,62.83
	c0.133-1.784,0.19-3.378-0.03-4.969c-0.667-0.123-1.03,0.268-1.423,0.552c0,1.188,0,2.337,0,3.438
	c0.354,0.303,0.646,0.554,1.006,0.863c-0.408,0.125-0.691,0.211-0.883,0.269c0,1.066,0,2.035,0,2.976
	c0.461,0.328,0.844,0.603,1.242,0.887C127.494,65.923,127.488,63.449,127.174,62.83z M107.41,62.44
	c-0.223,1.622-0.193,3.159-0.165,4.691c0.579,0.345,0.741,1.097,1.585,1.209c0.281-2.043,0.074-4.006-0.285-6.05
	C108.152,62.343,107.85,62.384,107.41,62.44z M121.737,67.121c0.19-2.768,0.061-3.223-1.213-4.185
	c-0.218,0.124-0.456,0.261-0.626,0.356c0.074,1.484,0.137,2.864,0.211,4.244c0.018,0.343,0.014,0.714,0.572,0.816
	C121.021,67.955,121.39,67.527,121.737,67.121z M117.805,68.295c-0.158-0.785-0.699-1.076-1.156-1.453
	c-0.793,0-1.572-0.008-2.35,0.001c-1.039,0.011-1.744,0.643-2.002,1.915C114.148,68.616,115.944,68.405,117.805,68.295z
	 M126.965,67.731c0.021-0.098,0.043-0.194,0.064-0.291c-0.48-0.387-0.961-0.771-1.404-1.128c-1.237,0.247-2.387,0.475-3.396,0.676
	c-0.379,0.508-0.64,0.862-1.016,1.368c0.46,0,0.736,0.02,1.01-0.003c1.236-0.098,2.472-0.189,3.703-0.32
	C126.279,67.996,126.618,67.836,126.965,67.731z M112.443,64.103c-0.481-0.312-0.962-0.654-1.61-0.076
	c0.068,1.4,0.138,2.85,0.21,4.325c0.963,0.146,0.996-0.777,1.512-0.978c0.025-0.579,0.02-1.097,0.08-1.608
	C112.699,65.223,112.836,64.686,112.443,64.103z M108.48,56.792c-0.607-0.116-0.824,0.359-1.069,0.659c0,1.414,0,2.74,0,4.127
	c0.312,0.198,0.612,0.388,1.003,0.636c0.15-0.328,0.303-0.542,0.348-0.776C108.916,60.639,108.701,57.316,108.48,56.792z"/>
<path fill-rule="evenodd" clip-rule="evenodd" fill="#7beeef" class="fill" d="M120.312,109.812c1.096-0.28,2.336-0.724,3.611-0.879
	c1.284-0.153,2.602,0.064,3.823,0.537c1.08,0.416,1.413,1.415,1.512,2.441c0.106,1.087,0.093,2.189,0.075,3.285
	c-0.025,1.269-0.119,2.538-0.17,3.807c-0.071,1.811-0.973,2.959-2.715,3.449c-1.52,0.424-3.08,0.503-4.635,0.442
	c-1.162-0.045-1.824-0.715-2.045-1.869c-0.547-2.852-0.617-5.736-0.543-8.628C119.249,111.483,119.539,110.641,120.312,109.812z
	 M126.644,115.894c-1.427,0.082-2.856,0.155-4.284,0.258c-0.155,0.011-0.299,0.189-0.47,0.307c0.527,0.403,1.88,0.415,4.825,0.096
	c0.016-0.052,0.054-0.104,0.047-0.152C126.74,116.264,126.699,116.127,126.644,115.894z M121.963,114.47c1.564,0,3.051,0,4.646,0
	c-0.098-0.278-0.15-0.426-0.191-0.545c-1.258,0-2.465-0.006-3.67,0.005C122.434,113.932,122.107,113.968,121.963,114.47z"/>
<path fill-rule="evenodd" clip-rule="evenodd" fill="#7beeef" class="fill" d="M102.475,118.141c0.067,1.665,0.131,3.215,0.192,4.74
	c-3.204,2.156-7.351,1.84-10.165,0.438c0.066-1.63,0.135-3.29,0.204-5.014c1.737,0.145,3.343,0.268,4.944,0.412
	C99.275,118.865,100.849,118.517,102.475,118.141z M100.701,120.276c-0.496-0.796-1.375-0.402-2.115-0.75
	c-0.328,0.301-0.656,0.602-0.981,0.899c-0.907-1.147-1.514-1.328-2.523-0.744c-0.968,0.562-1.235,1.562-0.739,2.773
	c1.171,0.865,1.857,0.849,3.094-0.069c0.877,0.785,1.761,0.894,2.656,0.326C100.879,122.212,101.049,121.529,100.701,120.276z"/>
<path fill-rule="evenodd" clip-rule="evenodd" fill="#7beeef" class="fill" d="M88.389,123.158c-1.439,0.974-2.851,1.658-4.548,1.708
	c-1.847,0.054-3.527-0.45-5.247-1.196c0-1.685,0-3.397,0-5.242c3.326,0.734,6.595,0.912,9.931-0.089
	C88.69,119.997,88.279,121.584,88.389,123.158z M84.981,121.039c0.006-0.729-0.69-1.459-1.422-1.487
	c-1.192-0.046-2.123,0.642-2.43,1.79c-0.225,0.845,0.13,1.575,0.953,1.875C83.43,123.708,84.83,123.059,84.981,121.039z"/>
<path fill-rule="evenodd" clip-rule="evenodd" fill="#7beeef" class="fill" d="M106.322,118.179c3.078-0.119,6.094-0.238,9.244-0.362
	c0.086,1.404,0.178,2.878,0.268,4.363c-2.381,0.96-4.664,1.809-7.207,1.285c-0.92-0.191-1.766-0.481-2.442-1.293
	C106.228,120.895,106.273,119.556,106.322,118.179z M109.391,120.525c0.349,0.888,0.609,0.96,1.49,0.433
	c0.223-0.417,0.124-0.749-0.26-0.998C110.101,119.904,109.679,119.994,109.391,120.525z"/>
<path fill-rule="evenodd" clip-rule="evenodd" fill="#7beeef" class="fill" d="M88.551,95.621c0.201,1.912-0.047,3.722,0.135,5.544
	c-1.805,0.695-3.561,1.356-5.425,1.541c-0.771,0.075-1.622-0.106-2.362-0.376c-0.824-0.304-1.562-0.84-2.367-1.292
	c0.064-1.724,0.125-3.392,0.191-5.176c1.041-0.092,2.047,0.519,3.129,0.464c1.125-0.056,2.257,0.01,3.375-0.104
	C86.303,96.111,87.363,95.843,88.551,95.621z M85.513,99.945c0-0.286,0-0.528,0-0.761c-0.286-0.058-0.508-0.104-0.753-0.15
	c-0.107-0.636-0.213-1.251-0.312-1.835c-1.18-0.152-3.327,1.434-3.758,2.722c0.846,0.586,1.85,0.085,2.725,0.324
	c0.097,0.283,0.178,0.523,0.275,0.807c0.223,0.035,0.438,0.067,0.682,0.104c0.118-0.345,0.221-0.64,0.328-0.954
	C84.929,100.129,85.171,100.054,85.513,99.945z"/>
<path fill-rule="evenodd" clip-rule="evenodd" fill="#7beeef" class="fill" d="M105.533,84.833c3.133,0.387,6.201,0.74,9.16-0.535
	c0.209,0.614,0.199,4.315-0.02,5.962c-3.035,1.52-6.174,1.242-9.436,0.377C105.336,88.716,105.432,86.851,105.533,84.833z
	 M107.596,87.711c1.064,1.053,2.289,0.884,3.541,0.477c-0.027,0.83-0.1,0.957-0.61,1.271c-0.931,0.573-1.7,0.111-2.425-0.402
	c-0.543,0.172-0.671,0.553-0.715,1.054c0.979,0.474,1.912,1.001,3.046,0.648c0.948-0.295,1.841-0.966,1.854-1.835
	c0.014-0.949-0.095-1.9-0.184-2.848c-0.016-0.177-0.182-0.342-0.27-0.492c-0.41-0.086-0.77-0.202-1.137-0.225
	c-0.371-0.021-0.748,0.042-1.123,0.08C108.338,85.569,107.627,86.358,107.596,87.711z"/>
<path fill-rule="evenodd" clip-rule="evenodd" fill="#7beeef" class="fill" d="M79.049,85.334c1.078,0.193,2.073,0.445,3.084,0.538
	c1.027,0.094,2.07,0.068,3.102,0.034c1.031-0.036,2.061-0.148,3.219-0.235c0.094,1.698,0.189,3.407,0.287,5.136
	c-3.205,1.391-6.315,1.916-9.584,0.372C78.857,89.313,79.023,87.423,79.049,85.334z M83.43,90.974
	c0.252-1.82,1.455-2.789,2.752-3.655c-0.049-0.243-0.084-0.429-0.133-0.684c-1.068,0-2.102-0.014-3.134,0.007
	c-0.39,0.008-0.778,0.09-1.208,0.143c-0.092,0.388-0.165,0.701-0.266,1.132c0.677,0.044,1.225,0.08,1.922,0.125
	c-0.645,0.808-1.015,1.596-0.881,2.596C82.738,90.726,82.998,90.82,83.43,90.974z"/>
<path fill-rule="evenodd" clip-rule="evenodd" fill="#7beeef" class="fill" d="M92.66,101.998c-0.085-2.015-0.168-3.989-0.254-6.011
	c3.054,0.298,5.975,0.625,8.979-0.045c0.23,1.883-0.147,3.701-0.062,5.613C98.45,102.608,95.63,103.109,92.66,101.998z
	 M94.525,100.666c0.886,0.837,1.805,1.113,2.813,1.031c0.839-0.068,1.556-1.027,1.542-1.932c-0.012-0.631-0.5-1.042-1.463-1.203
	c-0.355-0.061-0.717-0.089-1.157-0.141c0.134-0.118,0.187-0.204,0.255-0.218c0.336-0.071,0.675-0.128,1.016-0.179
	c0.641-0.1,0.818-0.274,0.902-1.018c-1.084,0.052-2.156-0.052-3.275,0.255c-0.098,0.743-0.193,1.439-0.303,2.255
	c0.355-0.016,0.568-0.021,0.779-0.037c0.458-0.033,0.914-0.091,1.373-0.102c0.41-0.01,0.73,0.152,0.838,0.672
	c-0.074,0.149-0.172,0.348-0.307,0.622c-0.516-0.044-1.018-0.087-1.424-0.122c-0.217-0.277-0.35-0.449-0.552-0.708
	C95.221,100.116,94.924,100.352,94.525,100.666z"/>
<path fill-rule="evenodd" clip-rule="evenodd" fill="#7beeef" class="fill" d="M92.803,107.442c3.119,0.343,6.095,0.125,9.148-0.341
	c0,1.796,0,3.565,0,5.401c-0.492,0.558-1.25,0.705-1.977,0.822c-1.537,0.248-3.086,0.439-4.636,0.601
	c-1.05,0.11-1.981-0.247-2.853-0.972C92.589,111.147,92.693,109.323,92.803,107.442z M94.902,112.507
	c0.453,0.128,0.705,0.263,0.955,0.259c0.836-0.015,1.67-0.069,2.506-0.126c0.217-0.015,0.43-0.09,0.648-0.139
	c0.213-1.184-0.945-0.65-1.293-1.099c0.291-0.362,0.592-0.676,0.823-1.035c0.421-0.653,0.187-1.428-0.49-1.755
	c-0.895-0.434-2.074-0.115-2.612,0.722c-0.096,0.15-0.113,0.353-0.194,0.619c0.498,0.076,0.911,0.14,1.197,0.184
	c0.458-0.203,0.458-0.906,1.068-0.574c0.157,0.438-0.019,0.791-0.333,1.072c-0.386,0.346-0.811,0.647-1.213,0.975
	C95.661,111.856,95.367,112.113,94.902,112.507z"/>
<path fill-rule="evenodd" clip-rule="evenodd" fill="#7beeef" class="fill" d="M105.255,95.705c3.31,0.702,6.411,0.284,9.578-0.324
	c0.063,2.069,0.122,4.017,0.184,5.964c-1.739,1.682-6.837,2.308-9.929,0.429C105.14,99.859,105.195,97.881,105.255,95.705z
	 M111.684,96.922c-0.654,0-1.15-0.069-1.617,0.017c-0.677,0.125-1.377,0.307-1.821,0.892c-0.564,0.745-0.431,1.941,0.235,2.637
	c0.644,0.673,1.734,0.795,2.545,0.294c0.834-0.516,1.072-1.354,0.178-2.021c-0.135-0.102-0.275-0.199-0.41-0.297
	c-0.547,0.067-1.068,0.132-1.668,0.206c0.443-1.345,1.404-0.871,2.246-0.78C111.469,97.573,111.545,97.34,111.684,96.922z"/>
<path fill-rule="evenodd" clip-rule="evenodd" fill="#7beeef" class="fill" d="M92.418,85.401c1.232,0.172,2.262,0.308,3.287,0.463
	c1.64,0.248,3.142-0.27,4.652-0.781c0.369-0.126,0.76-0.193,1.128-0.283c0.358,0.937,0.515,3.755,0.349,5.963
	c-3.188,1.156-6.395,1.654-9.664,0.052C92.254,88.987,92.334,87.228,92.418,85.401z M94.565,89.661
	c0.356,1.067,1.003,1.552,1.88,1.533c0.672-0.013,1.349-0.237,2.002-0.438c0.211-0.063,0.404-0.324,0.518-0.54
	c0.42-0.811,0.318-1.387-0.322-2.108c0.065-0.248,0.129-0.498,0.225-0.868c-0.248-0.299-0.534-0.64-0.779-0.934
	c-0.246-0.013-0.391-0.02-0.534-0.028c-0.171-0.01-0.347-0.009-0.516-0.035c-0.833-0.13-1.368,0.091-1.671,0.853
	c-0.169,0.422-0.141,0.918-0.211,1.448C94.979,88.88,94.754,89.304,94.565,89.661z"/>
<path fill-rule="evenodd" clip-rule="evenodd" fill="#7beeef" class="fill" d="M78.682,113.222c0.088-1.979,0.173-3.9,0.258-5.789
	c1.611,0.129,3.15,0.278,4.693,0.368c1.554,0.091,3.096-0.046,4.67-0.614c0,2.063,0,3.986,0,5.92
	C85.131,114.394,81.963,115.085,78.682,113.222z M83.979,113.612c0-0.925,0.023-1.665-0.005-2.401
	c-0.028-0.749,0.372-1.512-0.016-2.261c-0.682,0.169-1.317,0.313-1.946,0.488c-0.318,0.091-0.48,0.308-0.293,0.735
	c0.274,0.081,0.596,0.177,0.971,0.288c0,0.894,0,1.8,0,2.789C83.061,113.355,83.4,113.451,83.979,113.612z"/>
<path fill-rule="evenodd" clip-rule="evenodd" fill="#7beeef" class="fill" d="M105.451,112.54c0-1.795,0-3.57,0-5.473
	c3.016,0.749,5.89,0.337,8.836-0.141c0.331,1.725,0.189,3.445,0.207,5.213c-1.309,1.052-2.908,1.144-4.473,1.317
	C108.422,113.634,106.848,113.593,105.451,112.54z M108.285,110.808c-0.463-0.01-0.598,0.21-0.617,0.539
	c-0.058,0.862,0.492,1.505,1.354,1.414c0.674-0.07,1.361-0.269,1.982-0.545c0.741-0.33,0.955-1.076,0.65-1.836
	c-0.073-0.185-0.197-0.348-0.301-0.52c0.023-0.007,0.049-0.012,0.07-0.018c-0.084-0.473-0.17-0.944-0.25-1.38
	c-0.277-0.162-0.465-0.299-0.675-0.389c-0.812-0.351-1.995-0.124-2.485,0.463c-0.357,0.428-0.279,0.663,0.299,0.895
	c1.061-0.86,1.307-0.919,1.971-0.477c0.203,0.729-0.728,0.821-0.812,1.462c0.33,0.112,0.643,0.218,0.998,0.341
	c0,0.249,0,0.485,0,0.837c-0.623,0-1.178,0-1.745,0C108.572,111.324,108.437,111.078,108.285,110.808z"/>
<path fill-rule="evenodd" clip-rule="evenodd" fill="#7beeef" class="fill" d="M79.033,78.683c0.228-2.036,0.81-2.661,2.641-3.146
	c1.682-0.444,3.347-0.524,5.035-0.073c0.732,0.194,1.315,0.581,1.713,1.224c0.634,1.032,0.152,2.346-1.033,2.565
	c-1.268,0.237-2.564,0.332-3.852,0.433c-0.799,0.062-1.611,0.077-2.41,0.01C80.325,79.628,79.549,79.399,79.033,78.683z
	 M80.398,78.448c0.613,0.447,0.826-0.229,1.293-0.359c0.289,0,0.655,0,1.002,0c0.404,0.808,0.404,0.808,1.031,0.78
	c-0.492-0.95-0.304-2.083-1.004-2.975c-0.217,0.106-0.418,0.143-0.514,0.262C81.596,76.904,81.008,77.669,80.398,78.448z
	 M84.98,76.486c0.4-0.118,0.706-0.207,1.014-0.297c0.004-0.067,0.005-0.135,0.008-0.201c-0.19-0.06-0.382-0.168-0.574-0.167
	c-0.709,0.006-1.199,0.474-1.473,1.354c-0.232,0.748-0.084,1.255,0.463,1.59c0.562,0.344,1.404,0.281,1.842-0.166
	c0.109-0.114,0.135-0.313,0.268-0.643c-0.547,0.214-0.912,0.356-1.33,0.519c-0.213-0.161-0.432-0.324-0.717-0.536
	C84.662,77.409,84.826,76.934,84.98,76.486z"/>
<path fill-rule="evenodd" clip-rule="evenodd" fill="#7beeef" class="fill" d="M128.564,93.89c0.603,0.917,0.439,1.737-0.012,2.523
	c-0.115,0.199-0.383,0.409-0.602,0.435c-2.344,0.273-4.692,0.588-7.014-0.141c-0.301-0.094-0.592-0.231-0.865-0.387
	c-0.396-0.228-0.52-0.577-0.418-1.031c0.188-0.844,0.842-1.481,1.764-1.524c1.926-0.089,3.854-0.138,5.781-0.154
	C127.67,93.607,128.146,93.799,128.564,93.89z M123.471,95.434c-0.287,0.219-0.572,0.438-0.934,0.717
	c0.809,0.73,1.193-0.421,1.792-0.25c1.286,0.822,1.286,0.822,1.782,0.537c-0.361-0.332-0.706-0.651-1.021-0.942
	c0.09-0.583,1.191-0.499,0.78-1.341c-0.714-0.073-1.004,0.659-1.649,0.801c-0.398-0.319-0.815-0.657-1.264-1.02
	c-0.175,0.106-0.329,0.201-0.555,0.338C122.776,94.68,123.098,95.028,123.471,95.434z"/>
<path fill-rule="evenodd" clip-rule="evenodd" fill="#7beeef" class="fill" d="M124.691,88.207c0.052-0.202,0.105-0.409,0.168-0.647
	c-0.129-0.077-0.246-0.147-0.469-0.28c-0.193,0.33-0.368,0.627-0.592,1.006c-0.751,0-1.609,0.042-2.461-0.012
	c-0.796-0.051-1.294-0.552-1.607-1.363c0.143-0.346,0.305-0.733,0.439-1.056c2.878-0.913,5.66-1.15,8.402-0.296
	c0.653,1.378,0.357,2.095-0.942,2.485C126.817,88.289,125.556,88.498,124.691,88.207z M126.771,86.366
	c-0.118-0.04-0.199-0.096-0.278-0.094c-1.203,0.031-2.407,0.054-3.61,0.116c-0.234,0.013-0.611-0.051-0.652,0.374
	c0.65,0.271,3.809,0.261,4.605-0.027C126.814,86.614,126.793,86.485,126.771,86.366z M124.779,85.679
	c-0.426-0.517-0.426-0.517-0.705,0.044C124.342,85.707,124.561,85.692,124.779,85.679z"/>
<path fill-rule="evenodd" clip-rule="evenodd" fill="#7beeef" class="fill" d="M118.979,78.038c-0.047-1.003,0.437-1.858,1.26-2.043
	c1.95-0.437,3.933-0.704,5.925-0.266c1.203,0.267,1.669,0.967,1.518,2.127c-0.394,0.606-1.007,0.915-1.676,1.133
	c-2.14,0.694-4.22,0.469-6.245-0.433C119.479,78.433,119.236,78.213,118.979,78.038z M120.928,77.365
	c0.008,0.084,0.016,0.169,0.023,0.253c0.322,0.048,0.656,0.174,0.963,0.126c1.307-0.203,2.666,0,4.073-0.413
	c-0.192-0.227-0.283-0.42-0.366-0.417c-1.436,0.047-2.869,0.112-4.301,0.195C121.185,77.117,121.058,77.275,120.928,77.365z"/>
<path fill-rule="evenodd" clip-rule="evenodd" fill="#7beeef" class="fill" d="M102.381,77.969c-0.176,0.737-0.564,1.015-1.047,1.191
	c-0.982,0.358-1.986,0.642-3.045,0.585c-1.32-0.07-2.664,0.117-3.946-0.365c-0.188-0.07-0.392-0.113-0.567-0.206
	c-0.848-0.446-1.045-1.429-0.373-2.104c0.662-0.667,1.475-1.108,2.422-1.256c1.443-0.225,2.885-0.088,4.324,0.039
	c0.506,0.045,0.956,0.264,1.263,0.682C101.768,77.019,102.086,77.527,102.381,77.969z M97.01,76.633
	c-0.269,0.466-0.561,0.971-0.859,1.489c-0.323-0.276-0.561-0.479-0.823-0.702c-0.166,0.123-0.294,0.218-0.474,0.354
	c0.504,0.477,0.754,1.132,1.533,1.34c0.377-0.692,0.744-1.364,1.08-1.982c0.953-0.22,1.902,0.425,2.811-0.203
	C99.721,76.479,97.982,76.346,97.01,76.633z"/>
<path fill-rule="evenodd" clip-rule="evenodd" fill="#7beeef" class="fill" d="M108.68,79.357c-0.617-0.057-1.27-0.364-1.791-0.863
	c-0.661-0.632-0.486-1.851,0.348-2.222c2.191-0.972,4.439-1.247,6.713-0.256c0.564,0.246,1.147,0.521,1.086,1.286
	c-0.06,0.737-0.381,1.294-1.107,1.618c-1.445,0.646-2.932,0.785-4.525,0.525c0.649-1.291,2.004-1.919,2.774-3.151
	c-0.757-0.173-0.911,0.495-1.304,0.741c-0.434,0.272-0.809,0.655-1.164,1.032C109.361,78.438,109.072,78.861,108.68,79.357z
	 M108.507,76.476c-0.232,0.541-0.085,0.841,0.315,1.029c0.373,0.176,0.938,0.097,1.213-0.188c0.318-0.327,0.375-0.688,0.077-1.085
	c-0.319-0.042-0.628-0.082-0.952-0.124C108.934,76.235,108.713,76.361,108.507,76.476z M111.083,78.727
	c0.735,0.367,1.292,0.239,1.868-0.255c-0.023-0.25-0.047-0.517-0.072-0.769c-0.688-0.271-1.165,0.07-1.714,0.326
	C111.141,78.238,111.115,78.455,111.083,78.727z"/>
<path fill-rule="evenodd" clip-rule="evenodd" fill="#7beeef" class="fill" d="M119.18,102.414c0.264-0.1,0.521-0.254,0.798-0.294
	c1.396-0.205,2.794-0.416,4.199-0.555c1.091-0.108,2.19-0.123,3.273,0.146c1.181,0.291,1.722,1.566,1.028,2.565
	c-0.18,0.258-0.521,0.442-0.826,0.565c-0.286,0.117-0.621,0.135-0.938,0.147c-1.758,0.073-3.516,0.163-5.274,0.174
	c-0.593,0.004-1.198-0.159-1.777-0.324c-0.669-0.191-1.042-1.007-0.823-1.69C118.917,102.904,119.055,102.68,119.18,102.414z
	 M123.477,102.789c-0.711,0.256-1.487-0.081-2.012,0.609c0.65,0.482,1.4-0.051,2.04,0.309c0.036,0.308,0.073,0.615,0.116,0.977
	c0.174,0.042,0.348,0.082,0.6,0.143c0.043-0.43,0.08-0.79,0.126-1.224c0.627-0.05,1.247-0.101,1.917-0.153
	c-0.051-0.253-0.09-0.438-0.137-0.673c-0.623,0.038-1.216,0.073-1.812,0.109c-0.134-0.367-0.248-0.68-0.379-1.034
	c-0.182,0.054-0.307,0.09-0.459,0.133C123.477,102.272,123.477,102.521,123.477,102.789z"/>
<path fill-rule="evenodd" clip-rule="evenodd" fill="#7beeef" class="fill" d="M95.595,120.327c0.31,0.053,0.562,0.094,0.79,0.133
	c0.496,0.825,0.41,1.18-0.385,1.707C95.12,121.898,94.997,121.389,95.595,120.327z"/>
<path fill-rule="evenodd" clip-rule="evenodd" fill="#7beeef" class="fill" d="M99.812,120.627c0.262,0.883-0.139,1.331-0.637,1.733
	c-0.844-0.398-0.881-0.956-0.117-1.922C99.289,120.495,99.553,120.562,99.812,120.627z"/>
<path fill-rule="evenodd" clip-rule="evenodd" fill="#7beeef" class="fill" d="M82.785,120.457c0.301-0.014,0.607-0.03,0.869-0.042
	c0.566,0.655,0.596,1.184,0.146,1.813c-0.326,0.46-0.537,0.498-1.263,0.236C82.047,121.57,82.065,121.339,82.785,120.457z"/>
<path fill-rule="evenodd" clip-rule="evenodd" fill="#7beeef" class="fill" d="M83.421,99.264c-0.304-0.013-0.508-0.023-0.919-0.042
	c0.365-0.34,0.593-0.552,0.82-0.765c0.058,0.018,0.113,0.037,0.171,0.056C83.471,98.747,83.447,98.983,83.421,99.264z"/>
<path fill-rule="evenodd" clip-rule="evenodd" fill="#7beeef" class="fill" d="M110.096,87.547c-0.308-0.087-0.701-0.2-1.078-0.308
	c0.086-0.637,0.34-0.925,0.819-0.991c0.331-0.046,0.657,0.008,0.802,0.349C110.822,87.028,110.576,87.294,110.096,87.547z"/>
<path fill-rule="evenodd" clip-rule="evenodd" fill="#7beeef" class="fill" d="M110.572,99.403c-0.414,0.784-0.547,0.796-1.17,0.163
	C109.854,99.503,110.213,99.453,110.572,99.403z"/>
<path fill-rule="evenodd" clip-rule="evenodd" fill="#7beeef" class="fill" d="M95.801,89.914c0.254-1.065,1.176-0.876,1.819-1.15
	c0.485,0.637,0.479,0.967,0.015,1.364C97.033,90.644,96.427,90.589,95.801,89.914z"/>
<path fill-rule="evenodd" clip-rule="evenodd" fill="#7beeef" class="fill" d="M96.146,87.49c0.459-0.559,0.96-0.724,1.318-0.434
	c0.298,0.24,0.318,0.521-0.035,0.815C97.012,87.85,96.5,88.095,96.146,87.49z"/>
<path fill-rule="evenodd" clip-rule="evenodd" fill="#7beeef" class="fill" d="M82.133,77.491c0.092-0.159,0.164-0.281,0.256-0.442
	C82.565,77.456,82.565,77.456,82.133,77.491z"/>
<path fill-rule="evenodd" clip-rule="evenodd" fill="#7beeef" class="fill" d="M109.706,76.925c-0.15,0.065-0.244,0.137-0.337,0.138
	c-0.095,0.002-0.188-0.066-0.38-0.144c0.186-0.166,0.304-0.275,0.473-0.426C109.561,76.666,109.62,76.773,109.706,76.925z"/>
<path fill-rule="evenodd" clip-rule="evenodd" fill="#7beeef" class="fill" d="M111.721,78.389c0.239-0.161,0.344-0.233,0.451-0.306
	c0.032,0.031,0.064,0.062,0.094,0.095c-0.051,0.07-0.09,0.16-0.158,0.204C112.055,78.416,111.965,78.389,111.721,78.389z"/>
</svg>
