<svg version="1.1" xmlns="http://www.w3.org/2000/svg" xmlns:xlink="http://www.w3.org/1999/xlink" x="0px" y="0px" width="200px"
	 height="200px" viewBox="0 0 200 200" enable-background="new 0 0 200 200" xml:space="preserve">
<g id="svg">
	<path class="stroke" fill="#1d4442"  d="M120.095,123.089c0.03-3.324,0.101-6.646,0.128-9.97c0.02-2.476,0.02-4.954-0.011-7.43
		c-0.023-2.028-0.119-4.056-0.155-6.083c-0.07-3.987-0.124-7.974-0.178-11.961c-0.023-1.778,0.037-3.56-0.055-5.334
		c-0.221-4.257-0.111-8.525-0.549-12.777c-0.191-1.866-0.979-3.189-2.674-3.924c-1.021-0.442-2.081-0.814-3.152-1.117
		c-2.158-0.611-4.354-1.01-6.609-1.073c-1.766-0.049-3.528-0.188-5.42-0.295c0.141-0.646,0.261-1.205,0.365-1.689
		c2.317-0.763,3.568-2.837,3.555-4.854c-0.008-1.226-0.041-2.451-0.051-3.676c-0.009-1.211-0.002-2.422-0.002-3.638
		c-0.485-0.03-0.473-0.016-0.727,0.227c-1.261,1.206-2.519,2.416-3.8,3.6c-0.911,0.843-1.693,1.769-2.097,2.962
		c-0.52,1.539-0.297,3.029,0.425,4.743c0.188,0.15,0.57,0.455,0.938,0.749c-0.092,0.618-0.173,1.156-0.272,1.821
		c-1.528,0-2.964,0.071-4.389-0.016c-2.464-0.151-4.886,0.041-7.242,0.765c-1.363,0.419-2.73,0.89-4.004,1.521
		c-1.04,0.516-1.812,1.438-2.161,2.583c-0.254,0.832-0.405,1.7-0.531,2.563c-0.527,3.602-0.61,7.232-0.656,10.863
		c-0.057,4.375-0.115,8.749-0.173,13.124c-0.023,1.749-0.061,3.499-0.067,5.249c-0.014,3.913-0.033,7.826-0.009,11.739
		c0.013,1.991,0.149,3.981,0.169,5.973c0.018,1.852-0.072,3.705-0.066,5.558c0.011,3.913,0.056,7.826,0.083,11.739
		c0.021,3.144-0.036,6.284,0.571,9.401c0.39,1.999,1.023,3.84,2.352,5.41c0.192,0.228,0.301,0.526,0.451,0.798
		c0.424-0.067,0.429-0.073,0.732,0.16c1.604,1.232,3.358,2.147,5.36,2.53c1.165,0.223,2.327,0.533,3.503,0.604
		c2.754,0.168,5.521,0.359,8.274,0.27c2.575-0.083,5.14-0.506,7.705-0.805c0.518-0.06,1.03-0.208,1.53-0.363
		c0.935-0.29,1.865-0.596,2.785-0.931c1.761-0.64,3.377-1.521,4.591-2.993c0.959-1.164,1.236-2.589,1.299-4.03
		c0.15-3.453,0.253-6.909,0.318-10.364c0.034-1.783-0.067-3.567-0.082-5.351C120.081,127.275,120.074,125.182,120.095,123.089z"/>
</g>
<g id="Layer_2">
	<path fill-rule="evenodd" clip-rule="evenodd" fill="#fef158" class="fill" d="M101.447,67.684c-0.061-1.083-0.109-1.947-0.164-2.909
		c1.387-0.096,2.664-0.125,3.938,0.038c1.94,0.249,3.877,0.534,5.814,0.803c1.796,0.249,3.393,1.041,4.944,1.752
		c1.34,2.102,1.968,4.291,2.028,6.713c0.094,3.704,0.365,7.403,0.534,11.105c0.044,0.973-0.026,1.95-0.02,2.925
		c0.02,2.585,0.072,5.171,0.07,7.756c-0.001,1.223-0.146,2.445-0.138,3.667c0.03,4.233,0.116,8.467,0.146,12.7
		c0.011,1.503-0.102,3.007-0.116,4.511c-0.008,0.768,0.104,1.536,0.108,2.304c0.007,1.25-0.052,2.501-0.048,3.751
		c0.008,2.271,0.078,4.543,0.055,6.814c-0.03,3.038-0.115,6.075-0.197,9.112c-0.048,1.781-0.08,3.565-0.222,5.34
		c-0.083,1.037-0.34,2.064-0.573,3.084c-0.147,0.646-0.594,1.033-1.211,1.342c-2.516,1.258-5.238,1.619-7.963,2.104
		c-3.763,0.67-7.533,0.658-11.305,0.499c-2.928-0.124-5.84-0.504-8.701-1.259c-1.447-0.382-2.312-1.326-2.922-2.498
		c-0.556-1.071-0.924-2.267-1.204-3.448c-0.403-1.707-0.401-3.465-0.435-5.219c-0.047-2.447-0.289-4.891-0.325-7.337
		c-0.04-2.69,0.095-5.383,0.092-8.074c-0.005-4.268-0.069-8.535-0.09-12.803c-0.006-1.365,0.044-2.729,0.078-4.094
		c0.057-2.272,0.187-4.544,0.171-6.816c-0.029-4.06-0.153-8.119-0.223-12.179c-0.053-3.112-0.149-6.226-0.101-9.337
		c0.036-2.305,0.228-4.611,0.437-6.909c0.132-1.462,0.795-2.762,1.717-3.883c0.356-0.433,0.914-0.777,1.448-0.971
		c2.481-0.9,5.037-1.426,7.696-1.375c1.568,0.031,3.138,0.005,4.83,0.005c0.256,0.922,0.53,1.912,0.834,3.002
		C100.83,67.814,101.14,67.749,101.447,67.684z M84.879,70.765c0.347,0.316,0.546,0.574,0.808,0.725
		c1.717,0.992,3.413,2.039,5.415,2.382c0.412,0.07,0.826,0.123,1.239,0.181c1.798,0.252,3.593,0.534,5.394,0.749
		c1.736,0.208,3.476,0.088,5.221,0.04c2.685-0.074,5.269-0.539,7.8-1.37c0.627-0.206,1.257-0.464,1.811-0.816
		c0.599-0.381,1.239-0.812,1.179-1.849c-0.395,0.054-0.754,0.07-1.096,0.159c-0.301,0.078-0.572,0.266-0.873,0.354
		c-3.3,0.973-6.678,1.501-10.111,1.565c-2.198,0.041-4.402-0.09-6.602-0.186c-0.836-0.036-1.688-0.105-2.496-0.304
		c-2.393-0.586-4.881-0.907-7.008-2.48C85.316,70.217,85.133,70.447,84.879,70.765z"/>
	<path fill-rule="evenodd" clip-rule="evenodd" fill="#fef158" class="fill" d="M104.443,51.332c0.021,1.742,0.1,3.485,0.048,5.226
		c-0.044,1.454-0.579,2.731-1.827,3.608c-0.107,0.075-0.234,0.121-0.466,0.237c-0.159-1.483,1.013-2.366,1.424-3.608
		c-0.327-0.182-0.581-0.324-0.81-0.451c-1.674,0.908-1.674,2.736-2.547,4.237c-0.264-0.334-0.541-0.555-0.646-0.839
		c-0.685-1.854-0.515-3.627,0.873-5.086c1.149-1.209,2.451-2.275,3.687-3.404C104.268,51.278,104.355,51.305,104.443,51.332z"/>
</g>
</svg>
