<svg version="1.1" id="svg" xmlns="http://www.w3.org/2000/svg" xmlns:xlink="http://www.w3.org/1999/xlink" x="0px" y="0px"
	 width="200px" height="200px" viewBox="0 0 200 200" enable-background="new 0 0 200 200" xml:space="preserve">
<path class="stroke" fill="#6e3411"  d="M196.22,55.725c-0.511-4.324-1.878-8.37-4.36-11.993c-0.383-0.559-0.873-1.057-1.179-1.652
	c-0.651-1.265-1.194-2.484-2.396-3.477c-2.095-1.732-4.173-3.31-6.954-3.67c-0.697-0.09-1.387-0.25-2.087-0.319
	c-1.577-0.154-3.159-0.263-4.737-0.41c-0.681-0.063-1.37-0.123-2.033-0.278c-0.998-0.234-1.967-0.753-2.964-0.795
	c-2.405-0.1-4.822-0.054-7.23,0.047c-1.853,0.078-3.727,0.188-5.542,0.539c-2.858,0.55-5.666,1.359-8.511,1.976
	c-1.889,0.41-3.684,1.16-5.69,1.159c-2.681-0.001-5.295-0.381-7.894-0.932c-1.838-0.391-3.629-1.123-5.48-1.305
	c-3.511-0.346-7.049-0.52-10.579-0.553c-3.862-0.036-7.731,0.094-11.59,0.29c-3,0.153-6,0.432-8.977,0.823
	c-2.272,0.297-4.503,0.885-6.76,1.299c-3.057,0.562-6.101,0.413-9.135-0.215c-1.014-0.211-2.045-0.343-3.276-0.544
	c0.845-1.377,1.562-2.548,2.274-3.709c-0.169-0.786-0.326-1.521-0.483-2.256c-0.508-0.32-0.828-0.806-1.263-1.146
	c-0.85-0.67-1.682-1.51-2.667-1.827c-2.005-0.645-4.087-1.141-6.174-1.414c-1.749-0.229-3.581-0.269-5.32-0.009
	c-2.496,0.373-4.939,1.095-7.406,1.665c-0.396,0.09-0.796,0.163-1.173,0.24c-1.455-3.029-3.725-4.017-5.786-4.376
	c-1.887-0.329-3.8-0.524-5.672-0.918c-2.137-0.448-4.233-0.792-6.455-0.623c-3.035,0.231-5.757,1.22-8.274,2.808
	c-1.232,0.778-2.307,1.805-3.597,2.833c-1.049-0.219-2.341-0.394-3.574-0.763c-3.007-0.902-6.04-1.055-9.081-0.358
	c-1.571,0.361-3.082,0.978-4.628,1.451c-2.018,0.619-3.913,1.485-5.553,2.825c-0.516,0.421-1.176,0.932-1.309,1.507
	c-0.333,1.447-0.468,2.953-0.534,4.441c-0.017,0.387,0.493,0.814,0.801,1.191c0.16,0.195,0.421,0.305,0.612,0.479
	c1.386,1.271,2.783,2.534,4.146,3.83c1.885,1.791,4.28,2.315,6.712,2.644c3.049,0.414,6.032-0.027,8.776-1.108
	c0.63,0.883,1.202,1.684,1.773,2.485c-0.077,0.018-0.153,0.036-0.231,0.053c0.185,0.895,0.369,1.79,0.563,2.732
	c-1.172,7.4,0.37,14.528,2.764,21.22c-0.326,1.428-0.615,2.541-0.83,3.668c-0.417,2.192-0.791,4.386-0.523,6.641
	c0.243,2.047,1.567,3.826,3.208,4.422c0.798,0.29,1.601,0.743,2.222,1.314c1.51,1.394,3.21,2.315,5.268,2.414
	c1.635,0.079,3.276,0.016,4.999,0.016c0.37,1.427,0.812,2.863,1.105,4.33c0.494,2.476,0.883,4.972,1.335,7.455
	c0.357,1.964,0.697,3.931,1.131,5.878c0.243,1.087,0.841,2.113,0.963,3.203c0.229,2.036,0.18,4.102,0.336,6.147
	c0.194,2.555,0.354,5.121,0.75,7.648c0.66,4.216,1.657,8.384,2.212,12.613c0.676,5.14,1.118,10.315,1.511,15.487
	c0.258,3.403,0.289,6.825,0.344,10.24c0.028,1.745,0.471,3.511-0.353,5.238c-0.475,0.997-0.705,2.113-1.029,3.182
	c-0.197,0.648-0.414,1.297-0.532,1.961c-0.234,1.323-0.405,2.657-0.62,4.101c5.57,0.912,10.975,0.257,16.311,0.475
	c0.74-1.443,0.607-2.759,0.454-4.076c-0.184-1.581-0.613-3.172-0.527-4.738c0.255-4.683,0.646-9.362,1.122-14.028
	c0.189-1.856,0.762-3.674,1.12-5.518c0.482-2.477,0.904-4.966,1.397-7.441c0.344-1.726,0.752-3.438,1.157-5.151
	c0.193-0.818,0.442-1.623,0.699-2.551c2.107,0,4.181,0,6.298,0c0.451,2.299,0.909,4.486,1.305,6.686
	c0.741,4.104,1.167,8.232,0.919,12.414c-0.189,3.211-0.18,6.44-0.502,9.637c-0.404,3.988-1.079,7.948-1.59,11.926
	c-0.178,1.388-0.22,2.793-0.335,4.344c1.97,0,3.719,0,5.468,0c0.459,0.414,0.979,0.847,1.529,0.889
	c1.954,0.149,3.918,0.165,6.622,0.258c3.692,0.718,8.123,1.307,12.68-0.056c0.052-0.268,0.164-0.606,0.183-0.949
	c0.24-4.354,0.399-8.712,0.732-13.057c0.119-1.559,0.523-3.127,1.029-4.612c0.371-1.089,1.212-2.009,1.682-3.076
	c1.191-2.705,2.312-5.442,3.417-8.185c0.42-1.041,0.723-2.131,0.925-2.739c1.542-0.606,2.668-1.066,3.807-1.491
	c0.881-0.329,1.759-0.72,2.674-0.895c1.433-0.271,2.894-0.414,4.349-0.545c0.468-0.041,0.964,0.226,1.43,0.178
	c0.825-0.086,1.635-0.304,2.523-0.481c1.592,1.698,2.923,0.808,3.871-0.456c6.257,1.054,12.201,0.691,18.146-0.074
	c1.75,1.251,3.545,2.494,5.286,3.81c0.327,0.247,0.591,0.764,0.627,1.178c0.436,4.965,0.862,9.929,1.209,14.9
	c0.158,2.266,0.022,4.556,0.224,6.815c0.366,4.104-0.191,8.004-2.036,11.707c-0.139,0.28-0.114,0.643-0.208,1.233
	c1.611,0.014,3.06,0.175,4.468,0.004c2.542-0.31,5.057-0.821,7.586-1.238c0.747-0.123,1.596-0.022,2.231-0.349
	c1.833-0.937,3.69-1.265,5.812-0.747c1.507-1.113,0.185-2.784,0.689-4.231c1.34,0,2.688,0.003,4.037,0
	c1.404-0.004,2.809,0.019,4.211-0.026c1.292-0.042,2.583-0.164,3.875-0.24c1.146-0.068,2.186-0.358,3.031-1.393
	c-0.16-1.033-0.345-2.121-0.497-3.213c-0.195-1.413-0.581-2.841-0.503-4.242c0.201-3.564,0.626-7.117,0.931-10.676
	c0.082-0.957-0.013-1.931,0.085-2.885c0.216-2.076,0.524-4.141,0.755-6.215c0.126-1.135,0.115-2.286,0.264-3.418
	c0.5-3.796,1.057-7.584,1.566-11.378c0.324-2.418,0.566-4.846,0.909-7.26c0.438-3.087,1.065-6.152,1.382-9.25
	c0.378-3.689,0.666-7.4,0.706-11.105c0.032-2.875-0.345-5.755-0.597-8.629c-0.228-2.605-0.748-5.204-0.738-7.804
	c0.009-2.547,0.505-5.096,0.824-7.64c0.386-3.067,0.838-6.125,1.21-9.194c0.326-2.689,0.733-5.384,0.82-8.086
	C196.719,60.37,196.492,58.031,196.22,55.725z M11.398,39.362c1.203-1.962,2.286-4.023,4.327-5.633
	c-1.427,2.244-2.729,4.293-4.188,6.586C11.472,39.923,11.284,39.549,11.398,39.362z M43.709,84.912
	c-2.33,0.497-4.668,0.912-7.075,0.569c-1.446-0.205-2.256-1.268-3.413-2.296c4.453,0,8.656,0,12.84,0
	C45.479,83.895,44.783,84.683,43.709,84.912z M39.51,79.397c-0.302,0.459-0.612,0.93-1.036,1.573
	c-1.411,0.626-2.931-0.008-4.426-0.471c-1.058-0.327-2.072-0.823-3.063-1.325c-1.194-0.605-2.318-2.98-2.104-4.302
	c0.097-0.605,0.218-1.207,0.328-1.811c0.075,0.073,0.15,0.146,0.226,0.219c0.718-0.218,1.603-0.236,2.128-0.682
	c2.672-2.267,5.954-2.521,9.181-2.975c0.786-0.109,1.59-0.088,2.388-0.11c1.795-0.05,3.423,0.474,4.928,1.437
	c0.421,0.27,0.858,0.559,1.33,0.696c2.178,0.634,3.105,2.311,3.655,4.299c0.265,0.957,0.606,1.935-0.014,3.093
	C48.686,80.617,44.23,81.634,39.51,79.397z M30.491,66.927c1.447-0.402,1.799-1.668,2.369-2.69c0.598-1.071,0.939-2.281,1.49-3.382
	c0.438-0.877,1.006-1.691,1.547-2.514c1.873-2.849,3.607-5.798,5.997-8.271c0.176-0.183,0.374-0.345,0.664-0.61
	c2.976,6.637,5.333,13.35,7.072,20.243c-7.142-2.859-13.768-1.903-20.173,2.221C30.067,70.293,31.029,68.766,30.491,66.927z
	 M61.956,145.19c-0.218,1.9-0.165,3.832-0.229,5.75c-0.115,3.473-0.285,6.945-0.315,10.418c-0.016,1.794,0.222,3.59,0.341,5.387
	c0.012,0.17,0.002,0.343,0.002,0.591c-2.363,0.846-4.63,0.535-6.951-0.388c0.08-1.334,0.212-2.651,0.225-3.97
	c0.013-1.528-0.053-3.06-0.135-4.585c-0.076-1.433-0.22-2.86-0.333-4.291c-0.181-2.315-0.397-4.629-0.526-6.946
	c-0.072-1.293,0.033-2.595,0-3.89c-0.019-0.761-0.156-1.519-0.232-2.276c-0.08-0.812-0.181-1.625-0.219-2.44
	c-0.087-1.861-0.143-3.723-0.209-5.584c-0.068-1.958-0.135-3.916-0.198-5.875c-0.002-0.081,0.04-0.164,0.125-0.489
	c0.803,1.403,1.589,2.574,2.168,3.841c1.019,2.227,2.233,4.305,3.83,6.171C61.412,139.081,62.334,141.906,61.956,145.19z
	 M192.334,64.852c-0.31,2.309-0.632,4.619-1.059,6.909c-0.765,4.1-1.748,8.163-2.371,12.283c-0.332,2.192-0.148,4.472-0.104,6.711
	c0.054,2.772,0.311,5.544,0.288,8.314c-0.042,5.255-0.097,10.516-0.379,15.762c-0.29,5.39-0.821,10.768-1.315,16.145
	c-0.322,3.521-0.734,7.035-1.158,10.545c-0.501,4.153-1.071,8.297-1.587,12.449c-0.41,3.302-0.781,6.608-1.184,10.041
	c-0.962,0.111-2.062,0.231-3.161,0.369c-0.938,0.117-1.869,0.279-2.807,0.377c-0.517,0.055-1.054-0.04-1.564,0.042
	c-0.48,0.076-0.935,0.296-1.571,0.51c0.191-1.649,0.366-3.326,0.583-4.998c0.559-4.313,1.348-8.621,1.069-12.987
	c-0.201-3.133-0.657-6.254-1.083-9.37c-0.233-1.698-0.65-3.37-0.961-5.056c-0.057-0.308-0.062-0.651,0.014-0.952
	c0.21-0.82,0.477-1.626,0.836-2.517c0.261,4.53,3.211,7.547,6.136,10.864c0.631,0.105,1.523,0.253,2.346,0.39
	c0.414-0.285,0.797-0.448,1.02-0.734c0.206-0.263,0.42-0.726,0.323-0.986c-0.861-2.269-1.312-4.624-1.582-7.021
	c-0.231-2.057-0.412-4.121-0.661-6.174c-0.32-2.657-0.742-5.303-1.011-7.963c-0.18-1.781-0.149-3.581-0.248-5.371
	c-0.144-2.593-0.651-5.08-2.221-7.238c-0.068-0.094-0.095-0.214-0.148-0.342c1.167-1.325,1.21-3.06,1.661-4.645
	c0.217-0.76,0.39-1.549,0.455-2.335c0.218-2.595,0.407-5.192,0.549-7.792c0.065-1.169,0.087-2.356-0.044-3.517
	c-0.112-0.975-0.46-1.924-0.738-2.874c-0.173-0.593-0.412-1.166-0.601-1.691c-1.077-0.098-1.422,0.563-1.737,1.247
	c-0.999,2.169-1.912,4.381-3.004,6.502c-1.309,2.541-2.681,5.061-4.195,7.483c-0.812,1.298-1.979,2.37-2.903,3.447
	c-1.193-0.309-1.673-0.885-2.147-1.738c-1.097-1.975-2.368-3.865-3.717-5.681c-1.169-1.576-2.53-3.013-3.833-4.487
	c-0.261-0.295-0.643-0.483-0.979-0.73c-0.289,0.185-0.505,0.324-0.747,0.478c0.072,2.128-0.198,4.18-1.142,6.36
	c-0.69-1.271-1.291-2.388-1.901-3.498c-1.396-2.536-2.574-5.26-5.651-6.48c-0.211,0.119-0.509,0.286-0.819,0.46
	c0,3.03,0,6.013,0,8.993c-0.094,0.035-0.188,0.07-0.281,0.104c-0.631-0.72-1.234-1.465-1.898-2.151
	c-0.98-1.014-1.97-2.023-3.018-2.966c-0.807-0.724-1.723-1.329-2.567-2.014c-0.996-0.808-1.365-0.836-2.146-0.03
	c0.278,1.123,0.608,2.278,0.846,3.452c0.232,1.156,0.373,2.332,0.41,3.552c-3.186-2.416-5.034-6.076-8.291-8.396
	c-0.351,0.277-0.599,0.472-0.903,0.712c1.019,2.893,0.556,5.765-0.003,8.827c-0.309-0.273-0.574-0.419-0.708-0.642
	c-0.839-1.386-1.65-2.788-2.469-4.186c-0.979-1.671-1.936-3.355-2.949-5.006c-0.297-0.483-0.753-0.868-1.178-1.345
	c-0.413,0.286-0.689,0.475-1.046,0.722c1.374,4.767,2.471,9.545,1.86,14.802c-1.468-2.377-2.8-4.532-4.206-6.808
	c-0.527,0.171-0.961,0.312-1.341,0.436c0.443,2.376,0.855,4.584,1.279,6.854c-2.16,0-4.09,0-5.982,0
	c0.771-3.012,1.522-5.946,2.236-8.734c-0.347-0.614-0.61-1.081-0.874-1.548c0.023-0.085,0.047-0.171,0.07-0.257
	c-5.107-0.504-10.02,0.166-14.518,2.625c-7.349-4.872-14.962-5.492-22.917-2.026c-1.677-0.705-3.248-1.617-4.938-2.002
	c-1.655-0.38-3.432-0.222-5.481-0.315c-0.29-0.881-0.666-2.029-1.113-3.397c-0.353,0-0.874,0-1.524,0
	c-0.493,1.669-0.951,3.215-1.426,4.821c-1.197,0.914-3.251,1.06-3.278,3.467c-0.247-0.307-0.465-0.455-0.492-0.632
	c-0.182-1.217-0.397-2.437-0.461-3.662c-0.076-1.429-0.026-2.863,0.002-4.293c0.022-1.09,0.117-2.178,0.136-3.267
	c0.005-0.341-0.156-0.68-0.201-1.024c-0.078-0.6-0.165-1.203-0.178-1.806c-0.02-0.974-0.003-1.948,0.034-2.921
	c0.107-2.829,0.157-5.662,0.374-8.482c0.189-2.459,0.574-4.901,0.875-7.352c0.073-0.593,0.159-1.185,0.273-2.036
	c-0.031-0.149-0.118-0.569-0.219-1.059c-1.329,0.064-1.765,1.137-2.24,2.061c-1.656,3.21-2.756,6.637-3.803,10.082
	c-0.219,0.718-0.555,1.4-0.837,2.099c-0.081,0-0.161,0-0.243-0.002c-0.473-1.156-1.011-2.29-1.405-3.471
	c-1.031-3.102-1.92-6.253-3.017-9.329c-0.94-2.635-2.068-5.205-3.16-7.784c-0.327-0.774-0.811-1.481-1.329-2.409
	c-0.731,0.371-1.498,0.538-1.91,1.014c-1.487,1.712-2.889,3.503-4.254,5.314c-0.744,0.986-1.426,2.035-2.006,3.126
	c-1.288,2.416-2.493,4.875-3.734,7.316c-0.105,0.206-0.222,0.407-0.468,0.854c-2.259-5.045-3.164-10.184-3.757-15.676
	c2.133,1.244,3.826,0.928,5.065-1.4c0.227-2.376-1.888-4.38-5.25-4.504c0-0.718,0-1.442,0-2.159
	c0.357-0.114,0.628-0.199,0.934-0.296c0.35-2.658,2.889-3.365,4.607-5.135c-0.271-0.257-0.511-0.485-0.758-0.72
	c-1.465,0.6-2.761,1.131-4.33,1.772c0.494-1.54,0.935-2.91,1.388-4.323c-0.563-0.671-1.044-0.572-1.956,0.486
	c-0.447,1.664-0.893,3.328-1.339,4.992c0.081,0.038,0.162,0.077,0.243,0.117c-0.615,0.432-1.229,0.864-1.846,1.297
	c-0.07-0.041-0.142-0.081-0.212-0.12c0.268-0.711,0.506-1.435,0.812-2.129c0.471-1.075,0.965-2.14,1.494-3.188
	c0.191-0.379,0.506-0.697,0.765-1.043c0.09-0.354,0.179-0.705,0.258-1.015c-0.695-0.591-1.183-0.353-1.638,0.119
	c-1.227,1.272-1.743,2.904-2.288,4.522c-0.43,1.272-0.878,2.538-1.343,3.877c-0.694,0.097-1.38,0.192-2.256,0.315
	c1.422-3.565,3.317-6.651,5.677-9.416c-0.65-0.862-0.792-0.821-2.643,0.665c-0.121-0.254-0.237-0.497-0.354-0.74
	c-1.085-0.298-1.639,0.394-2.191,1.089v0.004c-0.001,0.001-0.004,0.001-0.006,0.002c-1.779,1.735-2.893,3.904-3.964,6.097
	c-0.251,0.514-0.426,1.064-0.711,1.791c0.659,0.113,1.135,0.195,1.66,0.285c0.923-3.297,2.932-5.717,4.931-8.067
	c-1.418,2.743-2.859,5.531-4.368,8.448c-1.104-0.182-2.494,0.216-3.782-0.792c0.31-0.684,0.505-1.382,0.901-1.937
	c1.214-1.699,2.467-3.374,3.793-4.983c0.346-0.418,1.018-0.569,1.541-0.842c0.002-0.001,0.004-0.003,0.006-0.006
	c0-0.314,0-0.63,0-0.904c-0.638-0.496-0.638-0.496-2.584,0.488c-0.576-0.846-1.215-0.491-1.888-0.063
	c-2.042,1.296-3.301,3.244-4.472,5.276c-0.307,0.532-0.658,1.037-1.036,1.626c-0.41-0.277-0.762-0.519-1.346-0.915
	c1.79-1.907,3.498-3.728,5.358-5.71c0.004,0.021-0.043-0.222-0.082-0.426c-0.744-0.368-1.318-0.121-1.767,0.335
	c-1.179,1.195-2.312,2.435-3.465,3.656c-0.334,0.354-0.674,0.705-1.011,1.059c-0.085-0.037-0.171-0.074-0.257-0.111
	c0.054-0.263,0.021-0.601,0.175-0.775c0.911-1.032,1.861-2.031,2.806-3.032c0.193-0.205,0.421-0.375,0.609-0.541
	c-0.353-0.798-0.854-1-1.556-0.483c-0.825,0.608-1.537,1.37-2.277,2.089c-0.314,0.304-0.574,0.665-0.995,1.164
	c-0.504-1.069-0.953-2.021-1.498-3.18c2.041-0.902,3.869-1.773,5.747-2.518c1.145-0.452,2.349-0.839,3.561-1.017
	c1.391-0.203,2.824-0.232,4.233-0.172c2.173,0.091,4.352,0.239,6.505,0.53c1.052,0.142,2.047,0.682,3.08,1.001
	c0.36,0.109,0.759,0.094,1.259,0.148c0.264-0.81,0.488-1.5,0.713-2.19c0.957-1.501,2.533-2.309,4.103-3.12
	c0.254-0.129,0.567-0.211,0.851-0.205c3.739,0.074,7.482,0.088,11.214,0.289c1.81,0.098,3.636,0.427,5.389,0.894
	c1.432,0.381,2.428,1.522,3.235,2.755c0.37,0.565,0.633,1.204,1.016,1.758c0.202,0.293,0.557,0.478,0.979,0.821
	c0.376-2.055,1.954-2.323,3.324-2.697c1.95-0.532,3.948-0.924,5.945-1.247c0.974-0.157,2.019-0.161,2.99,0.004
	c3.34,0.571,6.647,1.3,9.636,3.01c0.274,0.157,0.516,0.371,0.887,0.642c-0.35,0.405-0.641,0.742-0.976,1.131
	c-0.396-0.47-0.709-0.844-1.14-1.355c-0.401,0.187-0.8,0.371-1.365,0.633c0.651,0.792,1.148,1.396,1.699,2.066
	c-0.255,0.324-0.497,0.633-0.802,1.019c-1.147-1.969-1.543-4.295-3.519-5.622c-0.224,0.161-0.352,0.232-0.453,0.332
	c-0.103,0.101-0.179,0.229-0.377,0.489c1.144,1.945,2.314,3.934,3.501,5.951c-0.21,0.339-0.383,0.618-0.595,0.958
	c-1.275-2.483-2.207-5.024-4.437-6.984c-0.331,0.148-0.738,0.332-1.007,0.453c1.513,2.583,2.949,5.035,4.42,7.547
	c-0.532,0.339-0.868,0.552-1.223,0.778c-1.304-2.853-2.502-5.675-4.838-8.067c-0.365,0.167-0.792,0.362-1.346,0.615
	c0.334,0.481,0.513,0.816,0.763,1.084c1.83,1.966,2.786,4.433,3.903,6.805c0.096,0.203-0.01,0.5-0.233,0.737
	c-2.051-3.247-4.102-6.495-6.253-9.9c-0.507,0.252-0.898,0.445-1.412,0.701c1.944,3.546,4.915,6.26,5.974,10.203
	c-0.288,0.148-0.614,0.314-1.176,0.603c-1.293-4.163-4.779-6.714-7.039-10.206c-0.102,0-0.25-0.021-0.389,0.007
	c-0.141,0.028-0.27,0.107-0.408,0.164c-0.434,1.011,0.141,1.703,0.709,2.394c1.237,1.506,2.525,2.971,3.699,4.525
	c0.793,1.053,1.424,2.229,2.188,3.445c-0.393,0.172-0.67,0.294-0.962,0.421c-1.846-4.022-5.079-6.807-8.13-10.018
	c-0.316,0.151-0.699,0.333-1.305,0.622c2.894,3.228,5.931,5.993,8.036,9.635c-0.276,0.043-0.46,0.072-0.63,0.099
	c-0.968-2.115-7.187-7.666-8.509-7.543c-0.1,0.184-0.221,0.406-0.395,0.727c1.476,1.248,2.923,2.471,4.371,3.695
	c-0.053,0.074-0.105,0.149-0.158,0.224c-1.522-0.838-3.044-1.677-4.548-2.505c-0.322,0.171-0.548,0.292-0.87,0.463
	c0.147,0.363,0.223,0.747,0.432,1.031c0.594,0.809,1.354,1.515,1.837,2.38c0.553,0.982,0.945,2.071,1.266,3.156
	c0.126,0.43-0.131,0.972-0.216,1.487c-0.45-0.036-0.707-0.056-0.944-0.075c-2.094,1.143-4.514,1.969-4.309,5
	c1.663,1.255,4.286,1.336,5.521,0.223c1.111-1.002,1.65-3.188,1.011-4.181c0.25-0.513,0.505-1.037,0.728-1.495
	c2.28-0.137,4.49-0.232,6.694-0.408c3.881-0.31,7.134-1.854,9.533-5.007c0.106-0.141,0.204-0.289,0.369-0.167
	c2.211,0.28,4.423,0.803,6.63,0.776c2.874-0.035,5.491,0.692,8.14,1.638c5.611,2.003,10.539,5.251,15.577,8.31
	c0.553,0.336,1.135,0.633,1.731,0.884c0.289,0.121,0.641,0.094,0.963,0.134c0.347-1.008,0.331-1.841-0.301-2.541
	c-1.7-1.883-3.381-3.786-5.165-5.588c-0.875-0.886-1.958-1.564-2.948-2.337c-0.297-0.231-0.594-0.464-1.065-0.832
	c1.152-0.158,2.093-0.304,3.038-0.418c3.652-0.437,7.294-1.083,10.958-1.229c3.224-0.13,6.484,0.172,9.704,0.517
	c4.688,0.501,9.34,1.353,14.032,1.764c1.916,0.167,3.933-0.274,5.841-0.712c2.174-0.499,4.243-1.462,6.419-1.935
	c2.728-0.594,5.514-0.943,8.288-1.301c1.659-0.215,3.342-0.243,4.962-0.352c0.522,0.452,0.933,0.808,1.498,1.297
	c-1.723,1.973-3.373,3.861-4.958,5.679c0.973,2.272,2.886,2.775,4.675,1.421c2.221-1.679,4.631-2.965,7.326-3.755
	c1.769-0.519,3.455-1.32,5.221-1.856c0.593-0.18,1.35-0.045,1.974,0.14c4.577,1.365,7.774,4.353,10.041,8.497
	c2.238,4.091,3.73,8.427,4.323,13.03C192.903,61.827,192.534,63.364,192.334,64.852z"/>
<path class="stroke" fill="#6e3411"  d="M37.471,75.934c-1.402,0.059-2.248-0.608-3.084-1.552c-0.479-0.541-1.12-0.937-1.608-1.334
	c-0.522,0.264-0.819,0.455-1.142,0.569c-1.087,0.381-1.548,1.284-0.952,2.28c0.455,0.761,1.117,1.42,1.774,2.032
	c2.102,1.966,6.376,1.438,7.453-0.066c-0.1-0.373-0.182-0.679-0.325-1.205C38.985,76.436,38.216,75.902,37.471,75.934z"/>
<path class="stroke" fill="#6e3411"  d="M48.933,72.002c-0.325-0.059-0.67-0.121-1.244-0.226c-1.694,2.272-3.876,4.038-6.543,5.075
	c0.162,0.589,0.265,0.987,0.378,1.382c0.211,0.732,0.73,1.068,1.461,1.02c2.393-0.16,4.45-1.102,6.085-2.847
	C50.54,74.834,50.458,73.236,48.933,72.002z"/>
<path class="stroke" fill="#6e3411"  d="M41.171,30.746c0.265,0.844,0.496,1.578,0.747,2.379c0.304,0.036,0.575,0.068,1.104,0.133
	c-0.103-1.013-0.191-1.88-0.292-2.887C42.108,30.521,41.73,30.612,41.171,30.746z"/>
<path class="stroke" fill="#6e3411"  d="M37.929,36.222c0.766,0.68,1.349,1.196,1.99,1.764c0.344-0.311,0.592-0.534,0.925-0.835c-0.556-0.605-1.009-1.1-1.552-1.693
	C38.848,35.706,38.461,35.923,37.929,36.222z"/>
<path class="stroke" fill="#6e3411"  d="M43.361,37.705c0.195,0.117,0.429,0.257,0.746,0.448c0.537-0.771,1.021-1.466,1.553-2.229
	C44.159,35.619,43.484,36.179,43.361,37.705z"/>
<path class="stroke" fill="#6e3411"  d="M38.372,33.161c0.371-0.733-0.708-2.668-1.493-2.583c-0.403,0.043-0.777,0.371-1.225,0.6
	C37.397,33.111,37.531,33.205,38.372,33.161z"/>
<path class="stroke" fill="#6e3411"  d="M40.285,32.897c0.06-1.183-0.485-2.187-1.187-3.339c-0.43,0.232-0.829,0.447-1.29,0.695
	c0.795,1.084,1.444,1.969,2.093,2.854C40.029,33.038,40.157,32.967,40.285,32.897z"/>
<path class="stroke" fill="#6e3411"  d="M35.892,41.277c-1.207-0.43-2.532-0.531-3.56-1.469c-0.224-0.203-0.852,0.037-1.528,0.092
	c1.123,1.765,2.629,2.134,4.19,2.305c0.423,0.046,0.886-0.271,1.331-0.422C36.128,41.426,36.019,41.324,35.892,41.277z"/>
<path class="stroke" fill="#6e3411"  d="M46.963,30.66c-1.329-0.39-2.125,0.157-2.908,1.823c0.129,0.176,0.286,0.392,0.596,0.816
	C45.466,32.369,46.178,31.554,46.963,30.66z"/>
<path class="stroke" fill="#6e3411"  d="M49.252,32.279c-1.716-0.262-2.921,0.831-2.455,2.159C47.59,34.428,49.229,33.017,49.252,32.279z"/>
<path class="stroke" fill="#6e3411"  d="M52.428,55.551c-0.386,0.252-0.724,0.474-1.055,0.689c0.976,1.693,1.631,2.069,2.696,1.495
	C53.958,56.681,53.187,56.18,52.428,55.551z"/>
<path class="stroke" fill="#6e3411"  d="M52.496,54.437c0.831,1.532,2.154,2.076,2.983,1.166C54.135,53.944,53.37,53.178,52.496,54.437z"/>
<path class="stroke" fill="#6e3411"  d="M50.493,58.634c0.104,0.412,0.209,0.822,0.299,1.184c-0.43,0.143-0.875,0.293-1.335,0.445
	c0.058,1.025,0.495,1.717,1.246,2.117c0.309,0.165,0.802-0.013,1.293-0.04c-0.286-0.728-0.472-1.203-0.651-1.657
	c0.631-0.117,1.146-0.214,1.73-0.324C51.814,57.972,51.693,57.888,50.493,58.634z"/>
<path class="stroke" fill="#6e3411"  d="M51.854,40.199c-1.515,0.356-2.772,0.62-4.01,0.959c-0.431,0.118-0.927,0.353-0.595,0.991
	c1.099,0.391,3.727-0.189,4.427-1.021C51.83,40.948,51.785,40.602,51.854,40.199z"/>
<path fill-rule="evenodd" clip-rule="evenodd" fill="#ffd624" class="fill" d="M174.255,110.863c-0.459,0.291-0.922,0.585-1.336,0.848
	c1.352,3.611,1.066,7.056,0.433,10.507c-0.483,2.636-1.021,5.263-1.502,7.898c-0.734,4.034-2.412,7.799-3.327,11.778
	c-0.163,0.705-0.24,1.464-0.178,2.183c0.351,4.062-0.496,7.961-1.368,11.888c-0.987,4.445-1.81,8.931-1.316,13.542
	c0.119,1.103,0.018,2.229,0.018,3.447c-1.803,0-3.666,0-5.754,0c-0.018-0.01-0.251-0.124-0.462-0.228
	c-0.402,0.1-0.768,0.19-1.298,0.322c0.112-1.486,0.108-2.818,0.331-4.109c0.468-2.714,0.7-5.419,0.396-8.169
	c-0.368-3.309-0.668-6.624-0.995-9.938c-0.136-1.378-0.216-2.765-0.415-4.135c-0.278-1.909-1.189-3.413-2.996-4.288
	c-2.848-1.379-5.079-3.498-7.014-5.951c-0.253-0.319-0.333-0.775-0.389-1.245c-0.558-0.766-1.412-0.59-2.237-0.525
	c-1.639,0.126-3.017,0.945-4.384,1.74c-3.778,2.194-7.803,2.467-11.987,1.649c-1.33-0.259-2.649-0.633-3.99-0.74
	c-0.908-0.072-1.948,0.015-2.751,0.401c-2.74,1.314-5.587,1.259-8.562,1.004c-0.076-0.337-0.137-0.676-0.23-1.006
	c-0.373-1.33-0.71-2.669-1.155-3.973c-0.195-0.572-0.729-0.732-1.583-0.358c0,0.725-0.104,1.574,0.02,2.388
	c0.45,2.939-0.089,5.759-0.908,8.549c-0.439,1.498-0.858,3.015-1.458,4.45c-1.327,3.18-2.758,6.316-4.164,9.462
	c-0.115,0.259-0.335,0.483-0.545,0.684c-1.839,1.749-1.495,3.978-1.431,6.177c0.067,2.258,0.016,4.52,0.016,6.799
	c-2.697,0.542-5.279,0.604-7.951-0.11c0.038-0.331,0.056-0.612,0.105-0.889c0.281-1.593,0.7-3.174,0.823-4.779
	c0.125-1.637-0.028-3.295-0.077-4.943c-0.145-4.863-0.52-9.722-0.155-14.596c0.21-2.823-0.539-5.55-1.25-8.25
	c-0.361-1.371-1.345-1.538-2.244-0.602c0,1.71,0,3.316,0,4.887c-0.583,0.142-1.003,0.244-1.375,0.336
	c-1.275-1.524-2.519-3.011-3.798-4.541c3.51-2.709,6.958-5.437,9.606-9.005c0.253-0.312,0.489-0.64,0.761-0.934
	c1.113-1.203,1.274-2.673,1.229-4.212c-0.041-1.396-0.547-2.733-0.113-4.196c1.127-3.801,2.126-7.64,3.125-11.477
	c0.244-0.935,0.297-1.92,0.432-2.883c0.057-0.403,0.092-0.811,0.148-1.31c0.738,0.059,1.403,0.094,2.064,0.171
	c1.786,0.207,3.473,0.053,5.156-0.74c0.721-0.339,1.734-0.109,2.609-0.058c2.617,0.157,5.229,0.456,7.847,0.497
	c1.906,0.03,3.822-0.425,5.726-0.375c4.495,0.121,8.857-0.736,13.236-1.506c0.663-0.116,1.312-0.338,1.951-0.562
	c1.638-0.572,3.334-0.541,5.026-0.506c4.065,0.082,8.134,0.113,12.191,0.338c1.564,0.087,3.09,0.847,4.656,0.943
	c3.404,0.21,5.807,2.026,7.986,4.391c1.297,1.404,1.685,1.415,3.313,0.51c0.98-1.521-0.3-2.442-0.882-3.582
	c1.281,0.332,2.199,1.189,2.898,2.159c1.562,2.17,2.381,4.673,3.208,7.217c0.79,2.432,0.468,4.837,0.677,7.251
	c0.102,1.172,0.331,2.334,0.416,3.507c0.1,1.376,0.156,2.76,0.141,4.141c-0.033,3.022,0.953,5.791,2.038,8.54
	c0.104,0.262,0.213,0.521,0.32,0.781c-0.078,0.048-0.156,0.094-0.235,0.143c-0.473-0.734-1.009-1.436-1.411-2.207
	c-1.915-3.675-2.731-7.656-3.196-11.731c-0.31-2.712-0.526-5.44-0.989-8.128C175.474,114.06,175.479,112.372,174.255,110.863z"/>
<path fill-rule="evenodd" clip-rule="evenodd" fill="#ffd624" class="fill" d="M95.381,120.13c-0.871-1.876-2.36-2.646-4.245-2.583
	c-0.84,0.029-1.824-0.344-2.55,0.425c0.059,0.915,0.746,1,1.285,0.953c2.355-0.205,3.53,1.064,4.143,3.125
	c0.333,1.121,0.792,2.219,0.971,3.363c0.197,1.265-0.168,1.773-1.43,2.012c-1.469,0.278-2.975,0.398-4.47,0.492
	c-1.552,0.094-3.115,0.153-4.664,0.075c-1.072-0.055-2.142-0.321-3.19-0.584c-0.836-0.209-0.824-1.037-0.893-1.672
	c-0.216-1.98-0.084-3.902,1.306-5.521c0.157-0.184,0.195-0.469,0.422-1.047c-0.763,0.108-1.274,0.181-1.817,0.259
	c-3.563-6.107-3.746-10.041-2.786-11.903c2.824,0.544,3.107,0.456,3.911-1.286c-0.742-2.161-2.009-3.843-4.624-4.359
	c0-0.549,0.011-1.11-0.001-1.673c-0.056-2.478,1.387-4.392,2.423-6.458c0.078-0.154,0.27-0.284,0.281-0.436
	c0.156-2.124,1.96-2.541,3.417-2.885c3.721-0.879,7.382-0.062,10.975,0.985c1.086,0.316,1.805,1.069,2.11,2.196
	c0.099,0.365,0.299,0.702,0.467,1.085c-0.134,0.221-0.282,0.462-0.466,0.763c0.207,0.226,0.396,0.432,0.615,0.669
	c-0.083,0.199-0.179,0.425-0.281,0.669c1.539,1.789,1.891,3.94,2.12,5.851c-1.261,0.962-2.343,1.709-3.331,2.564
	c-1.004,0.87-1.123,2.116-1.022,3.337c0.066,0.798,1.242,1.258,2.174,0.909c0.541-0.201,1.048-0.493,1.695-0.804
	C97.815,112.625,96.066,116.221,95.381,120.13z M87.566,124.798c1.773,0.333,3.333,0.083,4.849-0.452
	c0.855-0.302,1.117-0.925,0.915-1.947c-0.501-0.248-1.022-0.505-1.542-0.763c-0.037-0.072-0.073-0.144-0.11-0.216
	c-1.366,0.619-2.732,1.239-4.233,1.919c-0.196-0.109-0.605-0.344-1.021-0.564c-0.417-0.221-0.844-0.42-1.262-0.641
	c-2.021-1.065-2.021-1.066-3.483,0.603c-0.037,0.042-0.045,0.107-0.103,0.253c0.228,0.893,0.898,1.46,1.752,1.854
	C84.768,125.508,86.213,125.949,87.566,124.798z M80.579,94.212c-0.365,0.115-0.845,0.267-1.276,0.403
	c-0.098,1.063,0.067,1.855,0.851,2.357c1.346,0.861,2.582,0.351,3.751-0.449c1.157,0.829,2.273,0.928,3.282,0.004
	c2.584,0.283,3.49-0.176,3.156-1.321c-0.962-0.044-1.859-0.085-2.756-0.127c-0.012-0.09-0.024-0.181-0.037-0.271
	c-0.492,0.301-0.984,0.602-1.583,0.966c-0.572-0.352-1.184-0.729-1.779-1.095c-0.84,0.501-1.637,0.975-2.595,1.546
	C81.211,95.467,80.946,94.94,80.579,94.212z M82.617,116.833c0.815-1.104,2.613-8.51,2.358-9.485
	c-1.191,0.645-3.285,6.162-3.51,9.37C81.869,116.759,82.278,116.8,82.617,116.833z M91.178,116.257
	c0.144-0.088,0.287-0.177,0.431-0.266c-0.051-2.69-1.344-5.083-1.917-7.807c-0.417,0.29-0.623,0.433-0.792,0.551
	c-0.149,1.915,0.552,5.29,1.485,6.971C90.525,115.958,90.907,116.077,91.178,116.257z M94.9,94.587
	c-1.905-0.125-2.814,0.326-2.765,1.396c0.577,0.095,1.183,0.194,1.838,0.301C94.298,95.69,94.568,95.196,94.9,94.587z"/>
<path fill-rule="evenodd" clip-rule="evenodd" fill="#ffd624" class="fill" d="M62.424,94.711c0.425-1.595,1.68-2.171,2.864-2.781
	c-0.653-0.969-0.838-0.914-3.208,0.807c-0.083-0.037-0.167-0.074-0.251-0.11c0.207-0.379,0.34-0.83,0.632-1.124
	c0.916-0.915,2.763-1.15,4.257-0.526c0.101-0.163,0.237-0.383,0.349-0.564c3.445-0.181,8.138,1.124,10.471,2.951
	c-0.136,0.321-0.287,0.676-0.437,1.032c0.043,0.03,0.088,0.061,0.131,0.09c-0.43,0.75-0.945,1.465-1.268,2.259
	c-0.339,0.836-0.439,1.768-0.745,2.621c-0.292,0.814,0.119,1.848-0.695,2.491c-0.116-0.022-0.233-0.045-0.351-0.069
	c0.222-1.205,0.352-2.438,0.691-3.609c0.347-1.199,0.9-2.339,1.415-3.632c-0.37-0.075-0.675-0.138-0.981-0.2
	c-0.01,0.042-0.02,0.085-0.03,0.127c-0.207-0.147-0.415-0.295-0.762-0.543c-0.267,0.289-0.617,0.526-0.766,0.855
	c-0.938,2.086-1.833,4.194-2.809,6.449c-0.193-0.058-0.589-0.174-1.129-0.335c0.287-2.625,1.398-4.739,3.48-6.655
	c-0.263-0.225-0.448-0.383-0.655-0.56c-2.8,1.42-3.282,4.13-4.259,6.617c-0.476-0.202-0.869-0.367-1.259-0.532
	c0.661-2.454,2.393-4.218,3.909-6.2c-0.26-0.221-0.444-0.377-0.81-0.687c-0.842,0.997-1.729,1.865-2.39,2.88
	c-0.668,1.024-1.111,2.194-1.715,3.423c-0.422-0.271-0.821-0.529-1.274-0.821c0.731-1.777,1.389-3.459,3.051-4.494
	c0.465-0.29,1.111-0.542,0.821-1.312c-0.852-0.275-2.067,0.297-2.736,1.335c-0.683,1.059-1.298,2.161-1.983,3.312
	c-0.569-0.346-0.769-0.792-0.388-1.255c0.757-0.921,1.588-1.781,2.41-2.647c0.375-0.395,0.795-0.742,1.403-1.302
	c-0.31-0.267-0.499-0.428-0.695-0.596c-1.652,1.039-3.299,1.794-3.837,3.646c-0.132,0.021-0.219,0.054-0.23,0.035
	C62.549,94.94,62.468,94.787,62.424,94.711z"/>
<path fill-rule="evenodd" clip-rule="evenodd" fill="#ffd624" class="fill" d="M109.221,100.474c-1.086-2.041-0.899-4.444-2.535-6.174
	c-0.274,0.072-0.546,0.143-0.838,0.219c0.733,2.286,1.448,4.509,2.191,6.823c-0.321,0.102-0.612,0.193-0.835,0.263
	c-0.908-2.46-1.786-4.842-2.702-7.328c-0.353,0.138-0.632,0.245-1.091,0.424c0.825,2.332,1.629,4.603,2.48,7.009
	c-0.633,0-1.004,0-1.499,0c-0.637-2.136-1.286-4.311-1.976-6.626c-0.429,0.171-0.777,0.312-1.104,0.442
	c0.351,2.141,1.586,3.926,1.419,6.052c-1.154-2-1.357-4.482-3.208-6.156c-0.114,0.041-0.263,0.065-0.379,0.142
	c-0.144,0.093-0.26,0.227-0.309,0.272c0.792,1.813,1.561,3.569,2.409,5.508c-0.52,0.031-0.786,0.048-1.007,0.062
	c-0.625-1.787-1.222-3.494-1.775-5.078c-0.526-0.168-0.79-0.251-1.274-0.405c4.546-3.048,9.419-4.062,14.706-3.93
	c0,0.583,0,1.107,0,1.631c-0.079,0.053-0.158,0.106-0.237,0.159c-0.219-0.293-0.437-0.586-0.713-0.959
	c-0.306,0.134-0.601,0.264-1.012,0.443c0.63,0.932,1.186,1.753,1.84,2.723c-0.104,0.482-0.243,1.135-0.441,2.057
	c-0.925-1.527-1.724-2.844-2.553-4.213c-0.43,0.253-0.673,0.396-0.949,0.557c0.885,1.71,1.735,3.352,2.614,5.051
	C110.009,99.807,109.66,100.102,109.221,100.474z"/>
<path fill-rule="evenodd" clip-rule="evenodd" fill="#ffd624" class="fill" d="M72.124,101.7c0.482-1.177,0.91-2.22,1.336-3.262
	c0.044,0.014,0.087,0.027,0.131,0.042c-0.095,1.133-0.188,2.266-0.293,3.531C72.91,101.908,72.579,101.82,72.124,101.7z"/>
</svg>
