<svg version="1.1" xmlns="http://www.w3.org/2000/svg" xmlns:xlink="http://www.w3.org/1999/xlink" x="0px" y="0px" width="200px"
	 height="200px" viewBox="0 0 200 200" enable-background="new 0 0 200 200" xml:space="preserve">
<g id="svg">
	<path class="stroke" fill="#672a19"  d="M156.284,37.538c0.307-1.79-0.212-3.17-1.774-4.139c-1.352-0.838-2.834-1.408-4.422-1.572
		c-1.485-0.153-2.982-0.218-4.477-0.254c-3.885-0.092-7.706,0.171-11.362,1.719c-1.905,0.806-3.211,2.451-2.911,4.477
		c0.191,1.291,0.712,2.545,1.182,3.779c0.324,0.849,0.834,1.626,1.225,2.452c0.4,0.844,0.61,1.74,0.322,2.657
		c-0.282,0.9-0.602,1.792-0.979,2.656c-1.281,2.936-0.157,6.547,2.562,8.129c0.672,0.391,1.354,0.768,2.236,1.267
		c0,0.841-0.073,1.831,0.015,2.806c0.246,2.756,0.09,5.478-0.577,8.16c-0.208,0.838-0.512,1.664-0.867,2.452
		c-1.115,2.473-2.865,4.466-4.907,6.205c-1.324,1.128-2.869,1.82-4.626,1.97c-1.902,0.164-3.805,0.349-5.709,0.483
		c-1.812,0.128-3.627,0.202-5.337,0.295c-0.264-0.316-0.408-0.466-0.528-0.634c-1.44-2.015-3.342-3.308-5.798-3.766
		c-1.5-0.281-2.993-0.604-4.562-0.922c-0.684-2.419-0.474-4.938-0.621-7.401c-0.179-2.963-0.134-5.964,0.543-9.044
		c0.295-0.086,0.674-0.263,1.065-0.299c1.884-0.17,3.55-0.907,4.991-2.069c1.389-1.119,2.002-2.651,1.7-4.443
		c-0.122-0.729-0.394-1.44-0.653-2.139c-0.318-0.857-0.738-1.677-1.036-2.54c-0.455-1.32-0.404-2.627,0.361-3.837
		c0.441-0.696,0.998-1.327,1.378-2.052c0.575-1.102,1.062-2.251,1.551-3.396c0.685-1.603,0.223-3.403-1.106-4.502
		c-1.927-1.594-4.256-2.083-6.635-2.188c-3.691-0.163-7.395-0.349-11.039,0.653c-1.646,0.452-3.323,0.755-4.172,1.407
		c-1.602,1.522-2.056,2.836-1.673,4.315c0.267,1.034,0.665,2.049,1.133,3.01c0.359,0.737,0.961,1.353,1.381,2.065
		c0.846,1.434,1.165,2.874,0.235,4.462c-0.816,1.396-1.464,2.886-1.686,4.53c-0.146,1.087,0.043,2.103,0.634,2.98
		c1.166,1.734,2.665,3.071,4.778,3.57c0.387,0.091,0.751,0.277,1.09,0.406c0.387,5.519,0.249,10.879-0.657,16.165
		c-5.773,0.688-6.896,1.462-10.545,4.674c-3.391,0.016-6.836-0.133-10.226-0.793c-1.657-0.323-3.398-0.7-4.847-1.508
		c-2.969-1.654-5.211-4.074-6.398-7.37c-0.964-2.681-1.362-5.473-1.708-8.268c-0.145-1.169-0.132-2.397,0.239-3.625
		c0.975-0.408,1.93-0.808,2.885-1.209c0.571-0.241,1.223-0.379,1.701-0.744c3.043-2.331,3.47-6.025,2.229-8.595
		c-0.416-0.861-0.856-1.712-1.237-2.589c-0.511-1.178-0.694-2.381-0.125-3.612c0.589-1.276,1.174-2.554,1.722-3.848
		c0.631-1.489,0.214-2.951-1.05-4.005c-1.016-0.849-2.147-1.273-3.475-1.509c-3.577-0.635-7.161-0.99-10.787-0.832
		c-2.385,0.104-4.692,0.583-6.824,1.72c-1.537,0.82-2.34,2.081-2.186,3.847c0.103,1.174,0.481,2.246,1.225,3.209
		c1.479,1.918,2.365,4.028,1.662,6.505c-0.226,0.796-0.625,1.542-0.86,2.337c-0.585,1.977-0.665,3.947,0.446,5.788
		c0.8,1.323,2.048,2.152,3.399,2.831c0.658,0.331,1.327,0.64,1.975,0.951c0,0.731,0.029,1.354-0.006,1.973
		c-0.138,2.487-0.459,4.978,0.022,7.458c0.297,1.546,0.614,3.095,1.032,4.611c0.992,3.599,2.644,6.764,5.794,9.021
		c2.221,1.59,4.567,2.864,7.173,3.662c2.918,0.894,5.942,1.174,8.951,1.499c2.845,0.308,5.707,0.463,8.617,0.691
		c0.013,0.01,0.096,0.049,0.141,0.113c0.119,0.169,0.221,0.352,0.33,0.526c1.102,1.754,2.404,3.28,4.444,3.995
		c1.366,0.479,2.724,0.981,4.095,1.477c0.719,1.348,0.952,2.808,0.893,4.242c-0.06,1.444-0.365,2.91-1.805,3.778
		c-0.597,0.361-1.168,0.776-1.703,1.223c-0.696,0.582-1.479,1.125-1.987,1.852c-1.346,1.925-2.161,4.046-1.593,6.458
		c0.246,1.043,0.563,2.07,0.887,3.093c0.312,0.984,1,1.714,1.756,2.375c0.845,0.738,1.743,1.417,2.562,2.181
		c1.771,1.654,1.695,4.544-0.091,6.218c-0.664,0.623-1.237,1.341-1.876,1.992c-1.072,1.092-1.194,2.435-0.993,3.834
		c0.293,2.029,1.346,3.616,2.945,4.878c1.323,1.043,2.131,2.348,1.963,4.19c-1.059,0.097-2.058,0.113-3.024,0.295
		c-1.592,0.298-3.159,0.718-4.742,1.06c-3.551,0.766-6.767,2.21-9.539,4.598c-1.236,1.064-2.036,2.383-2.462,3.941
		c-0.551,2.011-0.356,3.997-0.008,6.034c0.534,3.137,2.181,5.61,4.216,7.908c1.085,1.225,2.585,1.783,4.012,2.452
		c2.933,1.374,5.848,2.733,9.113,3.243c4.305,0.672,8.599,0.902,12.911,0.268c2.38-0.35,4.776-0.693,7.101-1.287
		c3.514-0.898,6.649-2.59,9.269-5.152c1.479-1.446,2.388-3.189,2.553-5.258c0.139-1.739,0.17-3.486,0.262-5.228
		c0.173-3.256-1.269-5.786-3.623-7.853c-1.418-1.245-3.171-1.887-4.906-2.613c-2.835-1.188-5.721-1.969-8.78-2.167
		c-0.778-0.051-1.551-0.198-2.324-0.3c-0.348-1.526-0.197-2.809,1.013-3.821c0.509-0.426,1.02-0.861,1.46-1.354
		c0.518-0.582,1.168-1.163,1.398-1.863c0.858-2.614,1.557-6.18-1.451-8.724c-0.689-0.583-1.258-1.326-1.815-2.046
		c-0.67-0.866-0.607-1.824,0.021-2.662c0.415-0.552,0.989-0.994,1.532-1.438c0.447-0.367,0.991-0.62,1.424-1.002
		c1.375-1.216,2.727-2.468,3.005-4.428c0.075-0.53,0.085-1.07,0.123-1.606c0.166-2.252-0.403-4.244-1.926-5.976
		c-1.178-1.339-2.284-2.746-3.334-4.188c-0.343-0.471-0.538-1.139-0.571-1.73c-0.114-1.957,0.378-3.781,1.465-5.489
		c1.389-0.481,2.778-1.047,4.218-1.436c1.383-0.374,2.351-1.175,3.075-2.354c0.15-0.245,0.311-0.485,0.482-0.751
		c1.779-0.235,3.546-0.512,5.322-0.693c2.812-0.289,5.621-0.583,8.389-1.186c1.378-0.3,2.784-0.496,4.138-0.879
		c2.783-0.789,5.079-2.45,7.177-4.371c0.788-0.722,1.508-1.58,2.047-2.5c1.866-3.19,3.065-6.637,3.466-10.321
		c0.341-3.136,0.579-6.283,0.869-9.424c0.029-0.317,0.102-0.631,0.126-0.779c1.766-0.69,3.451-1.194,4.988-1.985
		c2.497-1.286,3.503-3.205,3.089-5.692c-0.265-1.59-0.618-3.187-1.15-4.704c-0.591-1.689-0.385-3.171,0.548-4.628
		C155.351,40.638,156.004,39.172,156.284,37.538z"/>
</g>
<g id="Layer_2">
	<path fill-rule="evenodd" clip-rule="evenodd" fill="#ffc524" class="fill" d="M96.93,95.563c0.812-0.302,1.638,0.269,2.378-0.621
		c-0.979-0.196-1.823-0.364-2.667-0.532c0.009-0.099,0.017-0.197,0.024-0.295c1.382-0.334,2.793,0.08,4.186,0.018
		c1.436-0.064,2.877-0.014,4.435-0.014c-0.666,0.886-1.779,0.36-2.497,0.949c0.459,1.047,1.386,0.087,2.028,0.568
		c-0.043,0.257-0.093,0.561-0.127,0.759c-0.697,0.646-1.68-0.217-2.264,0.657c0.497,0.79,1.376,0.168,1.986,0.624
		c0,0.399,0,0.84,0,1.229c-0.619,0.596-1.553-0.336-2.091,0.567c0.567,0.739,1.442,0.239,2.204,0.622
		c0.094,0.327,0.21,0.743,0.312,1.102c-0.72,0.627-1.577-0.357-2.214,0.46c0.699,0.975,1.791,0.319,2.772,0.737
		c0.158,0.229,0.405,0.585,0.657,0.948c-0.689,0.438-1.56-0.106-2.127,0.791c0.313,0.106,0.546,0.243,0.783,0.254
		c0.622,0.029,1.245-0.008,1.868,0.002c0.538,0.009,0.956,0.213,1.137,0.769c-0.499,0.376-1.345-0.052-1.657,0.951
		c0.982,0.058,1.904,0.113,2.912,0.172c0.252,0.301,0.536,0.639,0.856,1.022c-0.68,0.531-1.691-0.163-2.191,0.783
		c0.866,0.827,1.974-0.157,2.906,0.518c0.047,0.255,0.112,0.612,0.212,1.146c-0.52-0.053-0.953-0.102-1.389-0.139
		c-0.461-0.041-0.831,0.039-0.787,0.709c0.727,0.146,1.437,0.288,2.215,0.444c-0.021,0.353-0.037,0.622-0.051,0.832
		c-0.804,0.587-1.732-0.458-2.542,0.304c0.588,0.871,1.586,0.38,2.287,0.969c-0.148,0.312-0.312,0.658-0.504,1.064
		c-0.821-0.041-1.581-0.081-2.422-0.123c0.114,0.995,0.929,0.685,1.378,1.021c-0.189,0.687-0.701,0.471-1.171,0.433
		c-0.491-0.04-1.02-0.508-1.602,0.21c0.411,0.231,0.777,0.438,1.168,0.658c-0.695,1.31-1.847-0.008-2.843,0.558
		c0.226,0.313,0.434,0.603,0.712,0.991c-0.563,0.071-1.077,0.135-1.804,0.227c0.401,0.451,0.63,0.708,0.968,1.088
		c-0.489,0.136-0.887,0.247-1.263,0.352c-0.344,0.746,0.756,0.579,0.654,1.259c-0.457,0.073-0.949,0.152-1.481,0.237
		c0.046,1.253,1.776,0.35,1.791,1.59c-0.453,0.08-0.93,0.164-1.503,0.265c0.592,1.344,2.029,0.28,2.638,1.236
		c-0.338,0.55-1.263-0.364-1.405,0.669c0.836,0.874,2.541-0.126,3.188,1.31c-0.574,0.746-1.668-0.412-2.196,0.643
		c0.938,0.793,2.17,0.094,3.168,0.765c0,0.189,0,0.448,0,0.674c-0.729,0.401-1.609-0.427-2.262,0.422
		c0.62,0.839,1.582,0.343,2.357,0.679c0,0.303,0,0.614,0,0.878c-0.804,0.72-1.899-0.522-2.667,0.499
		c0.694,0.825,1.729,0.28,2.582,0.814c-0.07,0.281-0.151,0.608-0.242,0.977c-0.996,0-1.9,0-2.923,0
		c0.285,1.222,1.448,0.583,2.054,1.163c-0.928,1.197-2.224-0.056-3.229,0.497c-0.192,0.971,0.794,0.585,1.158,1.012
		c-0.208,0.319-0.426,0.657-0.602,0.926c-0.567,0.338-1.41-0.094-1.644,0.875c0.342,0.122,0.667,0.237,1.043,0.371
		c-0.036,0.322-0.071,0.641-0.109,0.984c-0.445,0.118-0.855,0.227-1.258,0.334c0.081,0.829,0.775,0.615,1.208,0.925
		c0.026,0.218,0.059,0.491,0.095,0.793c-0.428,0.166-0.8,0.309-1.188,0.459c0.067,1.006,1.409,0.34,1.502,1.32
		c-0.319,0.193-0.675,0.409-1.064,0.645c0.452,0.904,1.609,0.212,2.075,1.091c-0.296,0.257-0.593,0.515-0.929,0.808
		c0.053,0.144,0.105,0.288,0.165,0.453c0.652-0.168,1.266-0.329,1.883-0.474c0.039-0.009,0.108,0.111,0.233,0.246
		c-0.254,0.266-0.514,0.538-0.822,0.862c0.661,0.864,1.183-0.133,1.998-0.005c0.083,0.058,0.374,0.258,0.786,0.542
		c-0.54,0.293-0.943,0.512-1.43,0.777c0.757,0.822,1.462,0.01,2.182,0.135c0.609,0.63,0.458,1.29-0.031,2.069
		c-0.491-0.263-0.953-0.511-1.481-0.794c-0.134,0.191-0.259,0.371-0.483,0.693c0.385,0.254,0.729,0.482,1.235,0.817
		c-0.535,0.245-0.844,0.386-1.053,0.482c-0.753-0.258-0.662-1.322-1.682-1.24c0.145,0.484,0.27,0.899,0.429,1.432
		c-0.271,0.086-0.546,0.172-0.754,0.238c-0.523-0.441-0.301-1.294-1.092-1.379c-0.606,0.424,0.028,0.925-0.135,1.467
		c-0.198,0.047-0.45,0.105-0.688,0.162c-0.282-0.472-0.521-0.871-0.76-1.27c-0.075,0.021-0.15,0.041-0.225,0.062
		c-0.035,0.383-0.07,0.767-0.113,1.229c-0.288,0.051-0.599,0.106-0.845,0.15c-0.591-0.322-0.212-1.239-1.069-1.391
		c-0.066,0.433-0.126,0.822-0.199,1.298c-0.354,0-0.702,0-1.04,0c-0.117-0.432-0.219-0.804-0.373-1.372
		c-0.418,0.467-0.702,0.785-1.049,1.172c-0.395-0.042-0.838-0.088-1.319-0.138c0-0.501,0-0.92,0-1.339
		c-0.078-0.034-0.156-0.068-0.234-0.103c-0.377,0.407-0.754,0.812-1.174,1.264c-0.196-0.046-0.423-0.1-0.804-0.19
		c0.311-0.352,0.535-0.603,0.812-0.916c-0.202-0.155-0.384-0.295-0.591-0.455c-0.398,0.185-0.768,0.356-1.207,0.56
		c-0.115-0.195-0.227-0.385-0.352-0.595c0.458-0.225,0.85-0.417,1.284-0.632c-0.362-0.981-1.146-0.255-1.71-0.588
		c-0.019-0.156-0.045-0.376-0.081-0.688c0.637-0.079,1.197-0.147,1.758-0.216c0.29-0.952-0.708-0.59-0.999-1.055
		c0.717-0.736,1.669,0.081,2.393-0.359c0.219-0.71-0.499-0.578-0.812-0.774c0.275-0.614,0.748-0.348,1.126-0.404
		c0.339-0.051,0.675-0.117,1.172-0.205c-0.266-0.37-0.397-0.552-0.639-0.889c0.29-0.236,0.604-0.492,0.906-0.737
		c0.507,0,0.957,0,1.424,0c0.071-0.171,0.133-0.32,0.184-0.442c-0.035-0.075-0.044-0.129-0.071-0.144
		c-0.319-0.166-0.641-0.325-0.983-0.498c-0.019-1.103,0.819-0.492,1.345-0.699c0.055-0.092,0.153-0.258,0.332-0.558
		c-0.52-0.146-0.939-0.263-1.483-0.415c-0.077-0.368-0.168-0.796-0.269-1.271c0.546-0.143,1.018-0.265,1.526-0.397
		c-0.439-1.012-1.646-0.272-2.065-1.294c0.517-0.103,0.966-0.194,1.598-0.321c-0.68-1.034-1.883-0.394-2.599-1.015
		c0.141-0.593,1.202-0.103,1.07-1.011c-0.788,0-1.595,0-2.421,0c-0.369-0.28-0.72-0.546-1.255-0.953
		c0.673-0.117,1.128-0.196,1.607-0.279c0-0.238,0-0.431,0-0.677c-0.771-0.127-1.501-0.249-2.32-0.384
		c-0.107-0.391-0.213-0.771-0.317-1.149c0.842-0.468,1.779,0.436,2.593-0.334c-0.626-0.912-1.67-0.473-2.441-0.949
		c-0.01-0.139-0.023-0.327-0.045-0.666c0.681,0.041,1.282,0.076,1.937,0.116c0.076-0.21,0.145-0.395,0.258-0.704
		c-0.521-0.161-1.015-0.313-1.626-0.503c0.158-0.3,0.295-0.562,0.397-0.756c0.945-0.217,1.796,0.483,2.656-0.042
		c-0.057-0.8-0.854-0.571-1.224-0.982c0.24-0.665,0.761-0.576,1.297-0.477c0.584,0.109,0.585,0.101,1.141-0.33
		c-0.338-0.251-0.648-0.48-1.009-0.748c0.043-0.204,0.093-0.433,0.154-0.721c0.455,0.039,0.856,0.073,1.308,0.112
		c0.061-0.18,0.122-0.365,0.203-0.61c-0.376-0.222-0.72-0.425-1.107-0.654c0.019-0.363,0.037-0.726,0.06-1.162
		c0.491,0,0.928,0,1.446,0c0.096-0.23,0.192-0.468,0.293-0.712c-1.698-0.57-1.698-0.57-1.941-1.178
		c0.504-0.041,0.977-0.081,1.443-0.119c0-0.828-0.014-0.834-2.172-0.95c-0.206-0.193-0.49-0.458-0.895-0.837
		c0.522-0.118,0.87-0.196,1.277-0.288c0.051-0.2,0.109-0.426,0.21-0.816c-1.005,0.078-1.895,0.146-2.844,0.219
		c-0.301-0.232-0.613-0.473-0.925-0.713c0.016-0.087,0.03-0.172,0.046-0.259c0.498-0.048,0.997-0.095,1.579-0.151
		c0.075-0.115,0.185-0.279,0.324-0.493c-1.083-0.619-2.254-0.154-3.404-0.481c-0.096-0.178-0.223-0.414-0.462-0.861
		c0.817,0.038,1.449,0.066,2.18,0.101c0.042-0.234,0.086-0.481,0.125-0.704c-0.977-0.483-2.238,0.052-3.096-1.241
		c0.792-0.077,1.377-0.132,2.051-0.198c0.04-0.146,0.098-0.363,0.188-0.691c-0.771-0.094-1.451-0.178-2.188-0.269
		c-0.044-0.319-0.08-0.586-0.141-1.016c0.785,0.049,1.471,0.092,2.233,0.139c0.07-0.193,0.148-0.408,0.274-0.752
		c-0.874-0.161-1.665-0.306-2.527-0.464c0.039-0.357,0.069-0.627,0.098-0.874c0.986-0.253,1.97,0.473,2.94-0.125
		c-0.543-0.945-1.626-0.475-2.261-1.072c0.066-0.819,0.646-0.697,1.17-0.614c0.526,0.083,1.045,0.213,1.615,0.333
		c0.083-0.245,0.146-0.429,0.242-0.707c-0.563-0.24-1.081-0.459-1.607-0.684c0.448-0.588,0.445-0.582,1.281-0.333
		c0.468,0.139,0.941,0.253,1.427,0.382c0.063-0.758,0.063-0.758-0.882-1.354c0.472-0.571,0.472-0.571,2.662-0.061
		c0.083-0.155,0.176-0.326,0.25-0.464c-0.046-0.095-0.054-0.152-0.084-0.167c-0.426-0.22-0.856-0.435-1.358-0.687
		c0.225-0.296,0.417-0.55,0.654-0.863c0.69,0.085,1.372,0.169,2.116,0.261c0.03-1.035-0.879-0.87-1.387-1.284
		c0.014-0.212,0.033-0.483,0.055-0.803c0.618-0.051,1.176-0.097,1.828-0.151c-0.268-1-1.136-0.665-1.728-1.063
		c-0.016-0.264-0.035-0.605-0.059-1.035c0.794-0.064,1.476-0.12,2.197-0.178c0.02-0.661-0.329-0.767-0.791-0.758
		c-0.407,0.007-0.813,0.001-1.256,0.001C97.019,96.057,96.977,95.823,96.93,95.563z"/>
	<path fill-rule="evenodd" clip-rule="evenodd" fill="#ffc524" class="fill" d="M107.407,143.51c2.521-0.017,4.771,0.701,6.814,1.902
		c1.969,1.158,3.05,4.609,1.587,7.217c-1.468,2.616-3.886,4.001-6.436,5.047c-3.048,1.249-6.337,1.684-9.647,1.483
		c-2.775-0.168-5.56-0.394-8.192-1.424c-2.057-0.805-4.01-1.718-5.564-3.413c-2.417-2.639-2.307-6.091,0.369-8.484
		c1.38-1.234,2.907-2.034,4.777-2.155c0.524-0.034,1.038-0.205,1.664-0.334c-0.097,0.684-0.568,0.923-0.893,1.249
		c-1.916,1.921-1.345,5.299,1.045,6.581c1.634,0.875,3.404,1.045,5.17,1.245c1.398,0.158,2.82,0.281,4.221,0.209
		c1.938-0.099,3.896-0.228,5.697-1.117c1.932-0.953,2.853-2.591,2.516-4.534c-0.196-1.125-1.051-1.75-1.828-2.431
		C108.29,144.186,107.842,143.855,107.407,143.51z"/>
	<path fill-rule="evenodd" clip-rule="evenodd" fill="#ffc524" class="fill" d="M51.632,56.138c-0.069-0.436-0.108-0.676-0.157-0.987
		c-0.665-0.109-1.241-0.376-1.457-1.171c0.422-0.138,0.793-0.257,1.293-0.42c-0.522-0.856-1.425-0.169-2.093-0.902
		c-0.011-0.056-0.072-0.393-0.158-0.871c0.857,0,1.572,0,2.422,0c-0.488-1.071-1.798-0.315-2.211-1.265
		c0.775-0.855,1.831,0.411,2.698-0.438c-0.739-0.276-1.381-0.516-2.112-0.79c0.728-1.014,1.717-0.146,2.567-0.781
		c-0.698-0.25-1.267-0.453-1.959-0.701c0.702-0.719,1.67,0.081,2.265-0.653c-0.494-0.646-1.29-0.109-1.891-0.567
		c0.012-0.246,0.027-0.552,0.048-0.924c0.698-0.048,1.329-0.091,2.053-0.141c-0.393-1.03-1.99,0.071-1.951-1.417
		c0.595-0.06,1.173-0.119,1.75-0.177c0.009-0.087,0.016-0.175,0.023-0.262c-0.573-0.105-1.146-0.211-1.807-0.332
		c-0.145-0.296-0.303-0.613-0.521-1.06c0.69-0.047,1.258-0.087,1.825-0.126c0.007-0.087,0.015-0.175,0.024-0.262
		c-0.617-0.135-1.233-0.269-1.949-0.425c-0.114-0.234-0.251-0.514-0.403-0.829c0.203-0.06,0.324-0.135,0.433-0.12
		c1.396,0.186,2.789,0.403,4.187,0.574c2.311,0.284,4.623,0.501,6.956,0.304c1.65-0.139,3.303-0.231,4.995-0.347
		c0.037,0.773-0.396,0.992-0.993,1.005c-0.782,0.018-1.565,0.004-2.379,0.004c0.28,0.485,0.28,0.485,2.967,0.802
		c-0.062,0.341-0.122,0.674-0.193,1.071c-0.821,0-1.542,0-2.273,0c0,0.192,0,0.314,0,0.543c0.771,0.11,1.543,0.219,2.41,0.342
		c0.08,0.239,0.178,0.531,0.307,0.912c-0.635,0.07-1.168,0.128-1.884,0.207c0.712,0.944,1.667,0.377,2.342,0.799
		c0.213,0.333,0.425,0.665,0.762,1.192c-0.913,0.049-1.629,0.086-2.427,0.128c0.216,0.726,0.768,0.628,1.214,0.639
		c0.484,0.011,0.971-0.07,1.527-0.117c0.228,0.567,0.426,1.06,0.633,1.575c-0.91,0.764-1.962-0.22-2.874,0.264
		c0.456,0.717,1.219,0.879,3.099,0.654c-0.042,0.213-0.068,0.396-0.118,0.572c-0.053,0.193-0.128,0.379-0.228,0.67
		c-0.853-0.161-1.654-0.312-2.504-0.473c-0.079,0.117-0.164,0.244-0.37,0.55c0.823,0.244,1.548,0.458,2.302,0.681
		c-0.21,0.834-0.768,0.582-1.274,0.487c-0.445-0.083-0.895-0.151-1.488-0.25c0.312,1.074,1.245,0.662,1.757,1.202
		c-0.329,0.296-0.654,0.588-0.975,0.876c-0.509-0.08-0.948-0.148-1.466-0.229c-0.017,0.314-0.029,0.582-0.047,0.923
		C60.12,58.274,55.902,57.268,51.632,56.138z"/>
	<path fill-rule="evenodd" clip-rule="evenodd" fill="#ffc524" class="fill" d="M153.355,40.277c-0.244,0.979-0.852,1.461-1.776,1.553
		c-0.661,0.066-1.322,0.142-1.976,0.256c-0.273,0.048-0.526,0.209-0.759,0.46c1.075,0.833,2.122-0.019,3.344,0.071
		c-0.114,0.47-0.225,0.915-0.361,1.473c-0.919,0-1.772,0-2.698,0c-0.021,0.278-0.039,0.493-0.066,0.845c0.899,0,1.708,0,2.584,0
		c0.044,0.433,0.077,0.744,0.103,0.987c-0.618,0.72-1.728-0.174-2.237,0.833c0.748,0.6,1.581,0.158,2.415,0.354
		c0.056,0.329,0.114,0.674,0.188,1.108c-0.881,0.082-1.659,0.154-2.437,0.226c-0.004,0.112-0.006,0.225-0.01,0.338
		c0.832,0.745,1.935,0.208,3.014,0.487c0.112,0.223,0.268,0.533,0.521,1.034c-0.995,0-1.795,0-2.624,0
		c-0.021,0.999,0.647,0.84,1.124,0.881c0.53,0.045,1.065,0.01,1.729,0.01c-0.046,0.48-0.079,0.821-0.104,1.079
		c-0.915,0.671-1.996-0.356-2.899,0.439c0.705,0.829,1.614,0.34,2.44,0.742c-0.223,0.374-0.438,0.737-0.593,0.997
		c-0.959,0.294-1.847-0.166-2.721,0.216c0.457,0.533,0.457,0.533,1.611,0.778c-0.125,0.182-0.193,0.397-0.335,0.468
		c-1.261,0.632-2.516,1.284-3.975,1.343c-0.456,0.018-0.931,0.037-1.359,0.174c-2.193,0.701-4.305,0.255-6.325-0.564
		c-1.271-0.515-2.42-1.329-3.682-2.041c0.533-0.7,1.465,0.072,1.836-0.838c-0.7-0.587-1.596-0.289-2.466-0.554
		c-0.103-0.204-0.239-0.475-0.475-0.94c0.812-0.049,1.452-0.089,2.168-0.132c0.052-0.145,0.116-0.322,0.242-0.667
		c-0.777-0.084-1.453-0.158-2.194-0.239c0-0.224,0-0.443,0-0.74c0.785,0,1.514,0,2.25,0c-0.103-0.692-0.103-0.692-1.863-1.081
		c0.102-0.331,0.198-0.651,0.266-0.869c0.798-0.428,1.631,0.36,2.237-0.373c-0.044-0.561-0.485-0.489-0.828-0.556
		c-0.316-0.062-0.638-0.107-1.041-0.173c0.073-0.338,0.128-0.597,0.172-0.801c0.636-0.335,1.396,0.181,2.114-0.616
		c-0.76-0.209-1.327-0.366-1.972-0.544c-0.017-0.291-0.033-0.603-0.05-0.911c0.742-0.431,1.683,0.33,2.439-0.587
		c-0.907-0.196-1.69-0.365-2.554-0.552c-0.163-0.29-0.34-0.604-0.543-0.968c0.179-0.045,0.292-0.11,0.391-0.093
		c0.697,0.115,1.39,0.259,2.087,0.367c0.349,0.055,0.68,0.015,0.727-0.572c-1.477-0.292-3.107-0.258-4.229-1.669
		c1.543,0.304,3.075,0.702,4.634,0.885c1.644,0.193,3.312,0.27,4.967,0.234c1.615-0.035,3.227-0.264,4.838-0.432
		C150.246,41.236,151.851,41.054,153.355,40.277z"/>
	<path fill-rule="evenodd" clip-rule="evenodd" fill="#ffc524" class="fill" d="M94.396,55.966c0.262-0.219,0.491-0.411,0.877-0.733
		c-0.452-0.098-0.71-0.176-0.974-0.206c-0.245-0.028-0.496-0.006-0.81-0.006c-0.12-0.249-0.232-0.479-0.37-0.764
		c0.602-0.102,1.102-0.187,1.681-0.285c-0.469-0.995-1.398-0.365-1.973-0.864c0.031-0.189,0.069-0.413,0.117-0.697
		c0.72,0.033,1.366,0.063,2.077,0.095c-0.065-1.165-1.194-0.537-1.628-1.183c0.034-0.093,0.102-0.267,0.212-0.562
		c0.833,0,1.682,0,2.756,0c-0.713-0.898-1.646-0.482-2.397-0.958c0.738-1.077,1.852-0.364,2.77-0.657
		c-0.307-1.074-1.47-0.244-1.965-1.008c0.02-0.21,0.052-0.531,0.097-0.978c0.717-0.058,1.418-0.115,2.317-0.188
		c-0.731-0.751-1.543-0.459-2.278-0.738c0-0.261,0-0.558,0-0.882c0.603-0.1,1.168-0.188,1.729-0.293
		c0.05-0.01,0.078-0.135,0.159-0.286c-0.578-0.526-1.356-0.101-2.094-0.43c-0.087-0.179-0.221-0.452-0.43-0.884
		c0.899-0.079,1.651-0.145,2.499-0.219c-0.197-0.66-0.604-0.595-1.011-0.599c-0.533-0.005-1.071-0.029-1.597-0.116
		c-0.185-0.03-0.335-0.267-0.462-0.509c5.482,0.234,10.926,0.808,16.485-0.024c-0.237,0.193-0.45,0.505-0.715,0.559
		c-0.965,0.194-1.91,0.591-2.938,0.351c-0.151-0.036-0.361,0.181-0.693,0.36c1.192,0.893,2.299,0.1,3.502,0.214
		c-0.107,0.514-0.203,0.967-0.317,1.518c-1.009-0.054-1.924-0.102-2.958-0.156c0.22,0.864,0.848,0.685,1.254,0.807
		c0.419,0.125,0.889,0.084,1.435,0.123c-0.031,0.348-0.056,0.609-0.089,0.978c-0.665,0-1.265,0-1.915,0
		c0.322,0.666,0.322,0.666,2.085,0.854c0.035,0.022,0.092,0.039,0.103,0.069c0.105,0.31,0.205,0.622,0.296,0.904
		c-0.514,0.618-1.542-0.277-1.979,0.835c0.453,0.069,0.799,0.142,1.149,0.17c0.327,0.026,0.658,0.006,1.029,0.006
		c0.138,0.271,0.265,0.518,0.429,0.84c-0.651,0.158-1.231,0.299-1.842,0.446c0.105,0.791,0.643,0.594,1.047,0.597
		c0.407,0.003,0.813-0.046,1.311-0.078c0.081,0.38,0.145,0.676,0.209,0.977c-0.771,0.142-1.444,0.262-2.115,0.398
		c-0.031,0.006-0.037,0.145-0.101,0.411c0.772,0.053,1.521,0.104,2.401,0.164c-0.031,0.351-0.062,0.685-0.1,1.093
		c-0.777,0.051-1.464,0.097-2.181,0.143c0.312,0.621,0.312,0.621,1.614,0.765c-0.391,0.348-0.625,0.688-0.943,0.815
		c-1.33,0.535-2.671,1.055-4.039,1.479c-0.741,0.229-1.541,0.318-2.32,0.355c-1.161,0.058-2.326,0.012-3.489,0.012
		C97.402,58.003,95.768,57.349,94.396,55.966z"/>
	<path fill-rule="evenodd" clip-rule="evenodd" fill="#ffc524" class="fill" d="M57.885,62.436c-0.166-1.163-1.691-0.208-1.719-1.476
		c0.591,0,1.171,0,1.779,0c0.157-0.732-0.375-0.623-0.719-0.731c-0.381-0.12-0.754-0.269-1.203-0.432
		c0.106-0.305,0.169-0.484,0.252-0.726c1.473,0,2.913,0,4.528,0c0.091,0.588,0.237,1.139,0.254,1.691
		c0.093,3.052,0.615,6.016,1.478,8.952c0.521,1.773,1.203,3.43,2.172,4.988c1.51,2.433,3.459,4.273,6.253,5.251
		c2.781,0.973,5.633,1.38,8.536,1.568c1.983,0.128,3.972,0.179,6.064,0.269c-0.133,1.177-0.256,2.268-0.397,3.526
		c-0.385,0.02-0.796,0.041-1.094,0.057c-0.479-0.54,0.038-1.364-0.896-1.598c-0.077,0.501-0.149,0.967-0.232,1.511
		c-0.368,0-0.72,0-1.108,0c-0.076-0.556-0.146-1.049-0.214-1.541c-0.095-0.013-0.189-0.026-0.283-0.038
		c-0.232,0.472-0.465,0.944-0.844,1.713c-0.218-0.792-0.355-1.295-0.57-2.076c-0.301,0.618-0.484,0.994-0.701,1.439
		c-0.331-0.016-0.691-0.032-1.023-0.047c-0.207-0.482,0.287-1.116-0.572-1.374c-0.164,0.334-0.334,0.681-0.548,1.114
		c-0.31,0.019-0.667,0.041-1.114,0.067c0-0.467,0-0.863,0-1.298c-0.827,0.05-0.545,0.855-1.201,1.206
		c-0.159-0.01-0.55-0.034-0.965-0.06c-0.042-0.505-0.073-0.901-0.107-1.317c-0.819-0.064-0.593,0.743-1.161,1.108
		c-0.244-0.028-0.675-0.076-1.14-0.128c0.031-0.554,0.058-1.005,0.086-1.489c-0.876-0.027-0.713,0.741-1.165,1.072
		c-0.199-0.035-0.472-0.083-0.743-0.13c-0.145-0.399-0.276-0.763-0.464-1.28c-0.342,0.374-0.577,0.631-0.884,0.964
		c-0.294-0.102-0.628-0.217-0.886-0.307c-0.29-0.634,0.657-1.143-0.136-1.788c-0.334,0.395-0.658,0.78-1.049,1.243
		c-0.352-0.121-0.729-0.252-1.185-0.41c0.19-0.431,0.351-0.79,0.535-1.204c-0.858-0.524-1.001,0.482-1.61,0.654
		c-0.089-0.045-0.26-0.132-0.369-0.188c-0.312-0.55,0.689-1.038-0.141-1.553c-0.279,0.23-0.583,0.48-0.977,0.804
		c-0.216-0.155-0.454-0.326-0.736-0.529c0.337-0.396,0.601-0.706,0.894-1.049c-0.722-0.852-1.047,0.257-1.57,0.197
		c-0.074,0.099-0.149,0.199-0.225,0.298c-0.217-0.275-0.434-0.55-0.538-0.681c0.018-0.867,1.104-1.007,0.615-1.949
		c-0.414,0.277-0.797,0.533-1.252,0.837c-0.2-0.263-0.386-0.508-0.606-0.798c0.362-0.318,0.664-0.586,0.993-0.876
		c-0.057-0.163-0.107-0.313-0.186-0.544c-0.406,0.131-0.779,0.253-1.232,0.4c-0.178-0.315-0.352-0.626-0.482-0.86
		c0.217-0.834,1.437-0.531,1.418-1.646c-0.359,0.09-0.65,0.173-0.946,0.233c-0.278,0.057-0.561,0.09-0.933,0.147
		c-0.119-0.373-0.224-0.705-0.315-0.992c0.51-0.553,1.583-0.07,1.69-1.274c-0.662,0.055-1.248,0.104-1.96,0.163
		c-0.095-0.357-0.181-0.681-0.255-0.964c0.661-0.425,1.54-0.026,2.043-0.975c-0.788,0-1.417,0-2.104,0
		c-0.061-0.288-0.099-0.47-0.152-0.722c0.598-0.162,1.141-0.309,1.738-0.471c-0.345-1.084-1.289-0.262-1.896-0.846
		c-0.015-0.126-0.051-0.435-0.096-0.818c0.497-0.116,0.932-0.217,1.405-0.327c0.046-0.132,0.099-0.282,0.184-0.524
		c-0.604-0.104-1.154-0.198-1.771-0.304c-0.053-0.34-0.101-0.651-0.14-0.895c0.484-0.605,1.32,0.111,1.765-0.708
		c-0.299-0.105-0.541-0.21-0.794-0.276c-0.278-0.072-0.566-0.11-0.924-0.177c0-0.327,0-0.631,0-0.984
		C56.67,62.5,57.24,62.47,57.885,62.436z"/>
	<path fill-rule="evenodd" clip-rule="evenodd" fill="#ffc524" class="fill" d="M105.542,77.464c0.781,0.101,1.485,0.119,2.149,0.291
		c2.045,0.532,4.106,1.035,5.712,2.579c0.692,0.665,0.83,1.412,0.569,2.269c-0.506,1.664-1.826,2.52-3.285,3.208
		c-2.374,1.119-4.941,1.538-7.508,1.634c-2.858,0.107-5.736-0.054-8.594-0.254c-1.832-0.127-3.618-0.64-5.109-1.805
		c-0.805-0.629-1.528-1.363-2.18-1.951c0.25-4.183,4.353-6.34,8.217-6.074c-0.639,1.698-1.656,3.384-0.164,5.197
		c3.199,2.318,9.084,1.938,11.136-0.948C107.012,80.108,105.854,78.952,105.542,77.464z"/>
	<path fill-rule="evenodd" clip-rule="evenodd" fill="#ffc524" class="fill" d="M125.687,84.583c-0.246,0-0.438,0-0.717,0
		c0.024,0.489,0.047,0.926,0.073,1.446c-0.299,0.103-0.592,0.203-0.985,0.337c-0.156-0.539-0.291-1-0.442-1.525
		c-0.173-0.024-0.361-0.051-0.65-0.091c-0.067,0.585-0.127,1.103-0.196,1.716c-0.358,0.036-0.708,0.072-1.127,0.114
		c-0.123-0.514-0.228-0.944-0.348-1.443c-0.208-0.065-0.424-0.134-0.762-0.24c0,0.631,0,1.143,0,1.722
		c-0.342,0.025-0.611,0.045-0.978,0.073c0-0.547,0-1.022,0-1.574c-0.266-0.036-0.452-0.062-0.673-0.092
		c-0.216,0.586-0.414,1.127-0.613,1.667c-0.095-0.011-0.189-0.022-0.285-0.032c-0.1-0.357-0.2-0.715-0.315-1.126
		c-0.287,0.022-0.557,0.043-0.896,0.071c-0.082-0.857-0.162-1.71-0.257-2.693c0.59-0.061,1.072-0.145,1.557-0.157
		c3.539-0.093,7.056-0.395,10.536-1.074c1.545-0.302,2.868-1.091,4.168-1.916c1.562-0.992,2.869-2.294,3.974-3.752
		c0.639-0.842,1.035-1.886,1.448-2.878c0.946-2.274,1.543-4.647,1.718-7.108c0.126-1.78,0.162-3.566,0.259-5.348
		c0.023-0.444,0.13-0.884,0.185-1.237c1.428-0.079,2.738-0.151,4.199-0.231c0.063,0.259,0.144,0.582,0.241,0.973
		c-0.763,0.165-1.399,0.304-2.089,0.454c0.329,0.975,1.315,0.288,1.817,0.828c-0.231,0.851-1.411,0.248-1.671,1.241
		c0.451,0.098,0.896,0.195,1.404,0.306c0,0.157,0,0.338,0,0.509c-0.502,0.131-0.951,0.248-1.399,0.365
		c-0.009,0.109-0.015,0.218-0.023,0.328c0.441,0.123,0.882,0.246,1.396,0.389c0.012,0.202,0.025,0.43,0.041,0.688
		c-0.613,0.178-1.166,0.339-1.72,0.5c0.007,0.096,0.015,0.192,0.022,0.288c0.536,0.161,1.073,0.322,1.61,0.483
		c-0.002,0.082-0.004,0.164-0.006,0.246c-0.602,0.2-1.202,0.399-1.805,0.599c0.009,0.101,0.02,0.201,0.028,0.302
		c0.535,0.139,1.07,0.278,1.648,0.429c-0.054,0.186-0.095,0.336-0.131,0.461c-0.642,0.091-1.234,0.174-1.923,0.271
		c0.349,0.967,1.204,0.388,1.629,0.842c-0.032,0.565-0.032,0.565-1.854,0.756c0.22,0.698,0.22,0.698,1.711,0.976
		c-0.07,0.262-0.141,0.518-0.222,0.817c-0.583-0.118-1.094-0.221-1.617-0.327c-0.013,0.499,0.043,0.549,1.355,1.283
		c-0.418,0.519-0.418,0.519-1.962,0.462c-0.069,1.1,1.112,0.539,1.573,1.239c-0.834,0.064-1.545,0.12-2.259,0.174
		c-0.012,0.099-0.023,0.197-0.034,0.295c0.513,0.24,1.026,0.48,1.667,0.78c-0.882,0.581-1.684-0.236-2.451,0.23
		c0.201,0.853,1.238,0.533,1.649,1.209c-0.104,0.234-0.234,0.521-0.393,0.87c-0.698-0.225-1.314-0.693-2.174-0.559
		c0.273,0.912,1.177,0.759,1.607,1.341c-0.27,0.414-0.554,0.852-0.793,1.22c-1.02,0.069-1.282-1.268-2.499-0.898
		c0.587,0.647,1.093,1.207,1.65,1.821c-0.252,0.206-0.494,0.404-0.678,0.554c-0.857-0.034-1.112-1.166-2.07-0.898
		c-0.104,0.83,0.9,0.95,0.999,1.718c-0.301,0.185-0.64,0.394-0.868,0.533c-0.93-0.071-0.796-1.437-1.852-1.203
		c-0.183,0.716,0.469,1.06,0.623,1.654c-0.273,0.689-1.048,0.462-1.448,0.815c-0.57-0.382-1.036-0.695-1.761-1.182
		c0.111,0.627,0.171,0.957,0.246,1.382c-0.235,0.114-0.514,0.248-0.851,0.411c-0.231-0.416-0.427-0.767-0.639-1.146
		c-0.206,0-0.4,0-0.696,0c0.059,0.405,0.11,0.752,0.183,1.239c-0.439,0.114-0.892,0.233-1.209,0.316
		c-0.717-0.381-0.48-1.647-1.708-1.326c0.143,0.537,0.257,0.963,0.409,1.532c-0.35,0.047-0.679,0.091-1.05,0.14
		C126.031,85.464,125.883,85.085,125.687,84.583z"/>
	<path fill-rule="evenodd" clip-rule="evenodd" fill="#ffc524" class="fill" d="M99.443,59.814c1.186,0,2.373,0,3.662,0
		c0,0.266,0.007,0.539-0.001,0.812c-0.092,3.159-0.217,6.316-0.271,9.476c-0.059,3.4,0.468,6.706,1.823,9.852
		c0.164,0.38,0.287,0.777,0.449,1.223c-0.632,0.978-1.602,1.476-2.7,1.505c-1.448,0.039-2.914-0.047-4.353-0.234
		c-1.457-0.19-1.943-1.27-1.356-2.673c0.608-1.454,1.235-2.901,1.797-4.374c0.665-1.743,0.591-3.607,0.677-5.421
		c0.151-3.239,0.125-6.485,0.178-9.728C99.349,60.134,99.396,60.016,99.443,59.814z"/>
	<path fill-rule="evenodd" clip-rule="evenodd" fill="#ffc524" class="fill" d="M113.063,35.804c0.067,0.547,0.128,1.041,0.184,1.497
		c-0.358,1.073-1.118,1.685-2.075,2.079c-1.942,0.8-3.977,1.217-6.07,1.183c-2.95-0.047-5.906-0.085-8.844-0.319
		c-1.421-0.113-2.859-0.53-4.191-1.056c-1.416-0.557-1.586-2.001-0.567-3.164c0.703-0.803,1.535-1.34,2.585-1.639
		c3.521-1.002,7.096-1.256,10.723-0.907c1.611,0.155,3.226,0.297,4.82,0.554C110.908,34.237,112.123,34.686,113.063,35.804z
		 M96.775,38.942c2.699,0.489,5.352,0.405,7.996,0.195c0.806-0.064,1.62-0.324,2.377-0.625c0.856-0.341,1.231-1.082,1.134-1.868
		c-0.103-0.832-0.747-1.075-1.407-1.186c-1.186-0.199-2.381-0.381-3.579-0.447c-2.032-0.113-4.063-0.116-6.033,0.564
		c-1.177,0.407-1.611,0.876-1.68,2.037C95.937,38.005,96.322,38.436,96.775,38.942z"/>
	<path fill-rule="evenodd" clip-rule="evenodd" fill="#ffc524" class="fill" d="M133.259,37.726c-0.623-1.664,0.268-2.707,1.878-3.337
		c1.106-0.433,2.323-0.622,3.508-0.812c4.178-0.67,8.355-0.599,12.52,0.159c0.283,0.052,0.562,0.148,0.835,0.245
		c1.271,0.455,2.165,1.221,2.181,2.578c-0.545,2.244-2.413,2.645-4.118,3.049c-1.517,0.36-3.124,0.509-4.687,0.478
		c-2.61-0.054-5.227-0.248-7.823-0.535C135.984,39.377,134.504,38.789,133.259,37.726z M149.802,36.853
		c-0.148-1.04-0.844-1.336-1.513-1.488c-1.001-0.228-2.041-0.276-3.061-0.43c-1.697-0.258-3.387-0.141-5.058,0.17
		c-0.896,0.167-1.764,0.496-2.215,1.627c0.224,0.44,0.496,0.976,0.741,1.458c2.712,0.502,5.324,0.479,7.924,0.25
		C147.83,38.333,149.094,38.065,149.802,36.853z"/>
	<path fill-rule="evenodd" clip-rule="evenodd" fill="#ffc524" class="fill" d="M69.029,36.977c-0.398,0.99-1.076,1.586-1.99,1.861
		c-0.948,0.284-1.912,0.576-2.89,0.691c-3.27,0.386-6.548,0.345-9.799-0.166c-1.753-0.275-3.48-0.722-5.214-1.116
		c-0.316-0.073-0.632-0.222-0.9-0.405c-0.938-0.64-1.015-1.024-0.578-2.457c2.006-1.739,4.497-1.927,6.92-2.039
		c2.852-0.132,5.723-0.009,8.578,0.126c1.231,0.058,2.466,0.355,3.666,0.667C68.638,34.613,68.88,34.983,69.029,36.977z
		 M51.946,37.733c1.48,0.191,2.784,0.407,4.099,0.519c2.293,0.195,4.555-0.203,6.811-0.526c0.828-0.118,1.598-0.493,1.86-1.531
		c-0.149-0.265-0.325-0.579-0.479-0.854c-0.357-0.117-0.629-0.228-0.909-0.294c-3.019-0.71-6.05-0.971-9.126-0.363
		c-0.986,0.194-1.965,0.318-2.635,1.334C51.678,36.521,51.8,37.072,51.946,37.733z"/>
	<path fill-rule="evenodd" clip-rule="evenodd" fill="#ffc524" class="fill" d="M77.326,151.521c1.785-0.548,3.458-0.652,5.205-0.534
		c0.089,0.23,0.173,0.447,0.316,0.816c-1.83,0.625-3.561,1.31-5.521,1.787C77.326,152.834,77.326,152.24,77.326,151.521z"/>
	<path fill-rule="evenodd" clip-rule="evenodd" fill="#ffc524" class="fill" d="M85.006,161.865c-0.535-0.217-1.021-0.413-1.616-0.654
		c0.859-1.57,1.932-2.782,3.279-3.916c0.312,0.188,0.609,0.367,1.015,0.61C86.888,159.343,86.278,160.778,85.006,161.865z"/>
	<path fill-rule="evenodd" clip-rule="evenodd" fill="#ffc524" class="fill" d="M85.863,156.565c-1.193,1.394-2.251,2.63-3.367,3.933
		c-0.575-0.515-1.025-0.918-1.603-1.432c1.339-1.116,2.596-2.163,3.923-3.269C85.192,156.074,85.469,156.276,85.863,156.565z"/>
	<path fill-rule="evenodd" clip-rule="evenodd" fill="#ffc524" class="fill" d="M78.176,156.19c-0.247-0.543-0.442-0.972-0.701-1.541
		c1.793-0.812,3.536-1.397,5.425-1.846c0.178,0.281,0.341,0.537,0.591,0.932C81.715,154.556,80.045,155.326,78.176,156.19z"/>
	<path fill-rule="evenodd" clip-rule="evenodd" fill="#ffc524" class="fill" d="M122.974,151.394c0.104,0.602,0.21,1.214,0.337,1.947
		c-1.762-0.095-3.333-0.006-4.858-0.54c0-0.205-0.022-0.37,0.006-0.526c0.03-0.158,0.11-0.308,0.166-0.453
		C120.044,151.683,121.435,151.545,122.974,151.394z"/>
	<path fill-rule="evenodd" clip-rule="evenodd" fill="#ffc524" class="fill" d="M117.8,154.141c0.024-0.171,0.014-0.264,0.052-0.329
		c0.059-0.104,0.148-0.19,0.197-0.25c1.644,0.16,3.247,0.316,5.043,0.491c-0.171,0.634-0.332,1.234-0.505,1.877
		C120.788,155.558,119.156,155.178,117.8,154.141z"/>
	<path fill-rule="evenodd" clip-rule="evenodd" fill="#ffc524" class="fill" d="M88.048,163.069c-0.788-0.304-1.313-0.507-1.964-0.758
		c0.851-1.284,1.62-2.447,2.454-3.706c0.335,0.125,0.658,0.246,1.111,0.415C89.106,160.392,88.602,161.671,88.048,163.069z"/>
	<path fill-rule="evenodd" clip-rule="evenodd" fill="#ffc524" class="fill" d="M80.129,158.509c-0.488-0.52-0.874-0.932-1.374-1.465
		c1.686-1.155,3.483-1.711,5.249-2.344c0.065,0.099,0.13,0.197,0.195,0.295C82.891,156.125,81.583,157.253,80.129,158.509z"/>
	<path fill-rule="evenodd" clip-rule="evenodd" fill="#ffc524" class="fill" d="M77.648,150.429c0.374-0.717,0.628-1.205,0.869-1.669
		c1.391,0,2.66,0,4.012,0c0,0.43,0,0.781,0,1.225C80.98,150.125,79.445,150.265,77.648,150.429z"/>
	<path fill-rule="evenodd" clip-rule="evenodd" fill="#ffc524" class="fill" d="M116.187,155.836c0.854,0.107,3.192,1.624,4.33,2.85
		c-0.314,0.327-0.635,0.662-0.938,0.978C118.225,158.836,116.419,156.771,116.187,155.836z"/>
	<path fill-rule="evenodd" clip-rule="evenodd" fill="#ffc524" class="fill" d="M107.793,164.559c-0.579,0.069-1.011,0.121-1.606,0.192
		c-0.26-1.323-0.5-2.554-0.757-3.856c0.443-0.154,0.777-0.269,1.233-0.427C107.281,161.781,107.502,163.121,107.793,164.559z"/>
	<path fill-rule="evenodd" clip-rule="evenodd" fill="#ffc524" class="fill" d="M88.901,163.287c0.562-1.345,1.046-2.509,1.557-3.732
		c0.444,0.133,0.737,0.221,1.182,0.354c-0.38,1.286-0.734,2.486-1.124,3.804C89.934,163.559,89.511,163.447,88.901,163.287z"/>
	<path fill-rule="evenodd" clip-rule="evenodd" fill="#ffc524" class="fill" d="M109.31,159.802c0.328-0.146,0.506-0.227,0.801-0.358
		c0.639,1.396,1.249,2.733,1.919,4.201c-0.514,0.159-0.926,0.287-1.402,0.434C109.814,162.745,109.813,161.257,109.31,159.802z"/>
	<path fill-rule="evenodd" clip-rule="evenodd" fill="#ffc524" class="fill" d="M113.191,158.123c0.828,1.302,1.657,2.604,2.543,3.992
		c-0.438,0.22-0.717,0.36-1.035,0.52c-1.036-1.143-1.656-2.438-2.08-3.832c-0.052-0.169,0.141-0.413,0.22-0.622
		C112.956,158.162,113.073,158.142,113.191,158.123z"/>
	<path fill-rule="evenodd" clip-rule="evenodd" fill="#ffc524" class="fill" d="M118.937,151.021c-0.16-0.304-0.27-0.51-0.438-0.833
		c1.086-0.615,2.22-0.719,3.438-1.001c0.249,0.467,0.486,0.913,0.842,1.582C121.354,150.862,120.143,150.941,118.937,151.021z"/>
	<path fill-rule="evenodd" clip-rule="evenodd" fill="#ffc524" class="fill" d="M92.491,160.168c0.453,0.124,0.747,0.205,1.139,0.312
		c-0.232,1.228-0.451,2.381-0.691,3.651c-0.519-0.068-0.937-0.123-1.549-0.203C91.771,162.628,92.12,161.438,92.491,160.168z"/>
	<path fill-rule="evenodd" clip-rule="evenodd" fill="#ffc524" class="fill" d="M121.159,158.021c-1.361-1.123-2.853-1.77-4.066-3.12
		c1.118-0.145,1.682,0.667,2.46,0.871c0.821,0.216,1.631,0.479,2.59,0.765C121.866,156.954,121.565,157.406,121.159,158.021z"/>
	<path fill-rule="evenodd" clip-rule="evenodd" fill="#ffc524" class="fill" d="M103.488,161.141c0.379-0.071,0.608-0.114,0.997-0.187
		c0.291,1.227,0.573,2.414,0.885,3.725c-0.418,0.11-0.746,0.197-1.184,0.313C103.668,163.739,103.647,162.509,103.488,161.141z"/>
	<path fill-rule="evenodd" clip-rule="evenodd" fill="#ffc524" class="fill" d="M100.078,161.286c0.277,0,0.508,0,0.843,0
		c0.341,1.167,0.716,2.317,0.536,3.65c-0.492,0-0.883,0-1.379,0C100.078,163.71,100.078,162.53,100.078,161.286z"/>
	<path fill-rule="evenodd" clip-rule="evenodd" fill="#ffc524" class="fill" d="M114.874,156.883c0.299-0.052,0.522-0.152,0.582-0.092
		c1.12,1.144,2.22,2.306,3.401,3.545c-0.389,0.251-0.646,0.417-1.01,0.652C116.865,159.631,115.929,158.34,114.874,156.883z"/>
	<path fill-rule="evenodd" clip-rule="evenodd" fill="#ffc524" class="fill" d="M113.791,163.062c-0.418,0.077-0.645,0.12-0.899,0.167
		c-0.763-1.313-1.593-2.541-1.819-4.11c0.216-0.077,0.392-0.14,0.599-0.214C112.366,160.269,113.033,161.578,113.791,163.062z"/>
	<path fill-rule="evenodd" clip-rule="evenodd" fill="#ffc524" class="fill" d="M109.526,164.25c-0.31,0.014-0.541,0.024-0.812,0.037
		c-0.468-1.343-0.901-2.635-0.924-4.162c0.352,0.109,0.598,0.11,0.699,0.231C108.845,160.778,109.505,163.295,109.526,164.25z"/>
	<path fill-rule="evenodd" clip-rule="evenodd" fill="#ffc524" class="fill" d="M93.915,91.924c0.104-0.986,0.191-1.828,0.285-2.73
		c0.434,0,0.744,0,1.078,0c0.373,0.931,0.242,1.791-0.045,2.73C94.828,91.924,94.481,91.924,93.915,91.924z"/>
	<path fill-rule="evenodd" clip-rule="evenodd" fill="#ffc524" class="fill" d="M97.914,164.836c0.104-1.284,0.198-2.428,0.295-3.623
		c0.302-0.036,0.49-0.059,0.797-0.096c0.096,1.236,0.187,2.408,0.289,3.719C98.819,164.836,98.455,164.836,97.914,164.836z"/>
	<path fill-rule="evenodd" clip-rule="evenodd" fill="#ffc524" class="fill" d="M97.086,164.741c-0.457-0.051-0.728-0.081-1.03-0.115
		c-0.251-1.198,0.174-2.271,0.325-3.36c0.023-0.165,0.383-0.283,0.731-0.521C97.542,162.179,97.062,163.371,97.086,164.741z"/>
	<path fill-rule="evenodd" clip-rule="evenodd" fill="#ffc524" class="fill" d="M95.475,160.676c-0.161,1.343-0.303,2.515-0.448,3.727
		c-0.399,0-0.701,0-1.198,0c0.215-1.066,0.386-2.024,0.61-2.969C94.562,160.916,94.604,160.926,95.475,160.676z"/>
	<path fill-rule="evenodd" clip-rule="evenodd" fill="#ffc524" class="fill" d="M93.218,88.967c-0.09,0.953-0.167,1.755-0.254,2.667
		c-0.432-0.084-0.729-0.142-1.055-0.205c0-0.916,0-1.752,0-2.699C92.364,88.813,92.711,88.875,93.218,88.967z"/>
	<path fill-rule="evenodd" clip-rule="evenodd" fill="#ffc524" class="fill" d="M109.838,91.234c-0.395,0-0.626,0-1.018,0
		c0-0.76-0.062-1.491,0.02-2.205c0.071-0.62,0.508-0.881,1.303-0.701C110.043,89.271,109.946,90.19,109.838,91.234z"/>
	<path fill-rule="evenodd" clip-rule="evenodd" fill="#ffc524" class="fill" d="M89.634,87.946c0.454,0.138,0.794,0.241,1.177,0.357
		c0,0.852,0,1.66,0,2.679c-0.49-0.223-0.829-0.378-1.177-0.536C89.634,89.586,89.634,88.825,89.634,87.946z"/>
	<path fill-rule="evenodd" clip-rule="evenodd" fill="#ffc524" class="fill" d="M118.42,149.115c-0.083-0.488-0.122-0.716-0.176-1.03
		c0.834-0.205,1.622-0.398,2.53-0.621c0.211,0.274,0.443,0.574,0.793,1.026C120.443,148.714,119.497,148.901,118.42,149.115z"/>
	<path fill-rule="evenodd" clip-rule="evenodd" fill="#ffc524" class="fill" d="M97.501,92.102c-0.337,0.04-0.497,0.083-0.653,0.07
		c-0.155-0.012-0.308-0.078-0.532-0.141c0.061-0.873,0.12-1.718,0.188-2.665c0.316-0.034,0.61-0.065,0.998-0.106
		C97.501,90.243,97.501,91.119,97.501,92.102z"/>
	<path fill-rule="evenodd" clip-rule="evenodd" fill="#ffc524" class="fill" d="M114.053,157.686c0.267,0.09,0.413,0.092,0.471,0.166
		c0.89,1.126,1.77,2.263,2.701,3.46c-0.251,0.177-0.429,0.302-0.665,0.468C115.525,160.533,114.668,159.272,114.053,157.686z"/>
	<path fill-rule="evenodd" clip-rule="evenodd" fill="#ffc524" class="fill" d="M107.855,88.764c0,1.005,0,1.909,0,2.862
		c-0.271,0.099-0.482,0.176-0.814,0.299c0-1.041,0-1.971,0-2.982C107.316,88.881,107.564,88.828,107.855,88.764z"/>
	<path fill-rule="evenodd" clip-rule="evenodd" fill="#ffc524" class="fill" d="M103.711,92.307c-0.314-2.005-0.169-2.705,0.69-3.057
		c0,0.959,0,1.874,0,2.88C104.222,92.177,104.009,92.231,103.711,92.307z"/>
	<path fill-rule="evenodd" clip-rule="evenodd" fill="#ffc524" class="fill" d="M80.432,146.911c0.916,0.095,1.783-0.073,2.567,0.381
		c-0.34,0.802-0.871,0.873-3.15,0.416C80.07,147.404,80.254,147.153,80.432,146.911z"/>
	<path fill-rule="evenodd" clip-rule="evenodd" fill="#ffc524" class="fill" d="M87.682,86.595c0.34,0.221,0.679,0.44,1.055,0.686
		c-0.054,0.712-0.106,1.396-0.162,2.13C87.396,88.575,87.098,87.626,87.682,86.595z"/>
	<path fill-rule="evenodd" clip-rule="evenodd" fill="#ffc524" class="fill" d="M111.03,90.56c-0.158-2.451-0.021-2.795,1.215-3.051
		C111.951,88.55,112.558,89.848,111.03,90.56z"/>
	<path fill-rule="evenodd" clip-rule="evenodd" fill="#ffc524" class="fill" d="M102.867,165.168c-0.283-0.331-0.536-0.489-0.543-0.657
		c-0.044-1.067-0.59-2.122-0.182-3.277C102.826,161.877,103.188,163.722,102.867,165.168z"/>
	<path fill-rule="evenodd" clip-rule="evenodd" fill="#ffc524" class="fill" d="M98.584,89.565c0.364-0.029,0.594-0.047,0.917-0.072
		c-0.043,0.968-0.083,1.849-0.124,2.774c-0.33,0.017-0.521,0.027-0.793,0.042C98.584,91.403,98.584,90.559,98.584,89.565z"/>
	<path fill-rule="evenodd" clip-rule="evenodd" fill="#ffc524" class="fill" d="M119.264,145.919c0.225,0.243,0.436,0.471,0.786,0.85
		c-0.776,0.232-1.408,0.421-2.106,0.63c-0.141-0.261-0.268-0.496-0.445-0.82C118.11,146.351,118.661,146.145,119.264,145.919z"/>
	<path fill-rule="evenodd" clip-rule="evenodd" fill="#ffc524" class="fill" d="M100.488,89.434c0.241,0.02,0.357,0.029,0.569,0.046
		c-0.095,0.944,0.237,1.927-0.302,2.782c-0.089-0.01-0.179-0.02-0.268-0.031C100.488,91.308,100.488,90.384,100.488,89.434z"/>
	<path fill-rule="evenodd" clip-rule="evenodd" fill="#ffc524" class="fill" d="M82.468,145.281c0.478,0.146,0.89,0.271,1.447,0.44
		c-0.754,0.952-1.534,0.341-2.195,0.544c-0.043-0.094-0.088-0.188-0.132-0.283C81.876,145.752,82.164,145.522,82.468,145.281z"/>
	<path fill-rule="evenodd" clip-rule="evenodd" fill="#ffc524" class="fill" d="M102.398,89.44c0.422,0.957,0.245,1.874-0.109,2.781
		C101.78,91.259,101.98,90.343,102.398,89.44z"/>
	<path fill-rule="evenodd" clip-rule="evenodd" fill="#ffc524" class="fill" d="M105.762,89.328c0.392,0.874,0.37,1.73-0.002,2.693
		C105.364,91.143,105.35,90.392,105.762,89.328z"/>
	<path fill-rule="evenodd" clip-rule="evenodd" fill="#ffc524" class="fill" d="M84.44,145.043c-0.275-0.108-0.489-0.193-0.969-0.382
		c0.765-0.354,1.296-0.598,1.984-0.917C85.311,144.47,84.855,144.664,84.44,145.043z"/>
	<path fill-rule="evenodd" clip-rule="evenodd" fill="#ffc524" class="fill" d="M113.18,88.279c0.044-0.839,0.095-1.676,0.773-2.566
		C114.06,86.835,113.791,87.607,113.18,88.279z"/>
	<path fill-rule="evenodd" clip-rule="evenodd" fill="#ffc524" class="fill" d="M116.987,145.737c-0.176-0.145-0.356-0.291-0.653-0.534
		c0.507-0.249,0.781-0.384,1.118-0.549c0.283,0.212,0.559,0.42,0.952,0.715C117.853,145.513,117.467,145.612,116.987,145.737z"/>
	<path fill-rule="evenodd" clip-rule="evenodd" fill="#ffc524" class="fill" d="M115.613,144.358c-0.253-0.144-0.507-0.287-0.76-0.43
		c0.031-0.067,0.063-0.135,0.095-0.203c0.286,0.112,0.574,0.223,0.859,0.334C115.743,144.159,115.679,144.258,115.613,144.358z"/>
</g>
</svg>
