<svg version="1.1" xmlns="http://www.w3.org/2000/svg" xmlns:xlink="http://www.w3.org/1999/xlink" x="0px" y="0px" width="200px"
	 height="200px" viewBox="0 0 200 200" enable-background="new 0 0 200 200" xml:space="preserve">
<g id="svg">
	<path class="stroke" fill="#3b4954"  d="M128.586,120.662c-0.743-4.711-1.776-9.379-2.105-14.15c-0.183-2.655-0.41-5.309-0.507-7.967
		c-0.147-4.028-0.197-8.06-0.292-12.09c-0.062-2.62-0.139-5.239-0.196-7.86c-0.066-3.011-0.235-6.005-0.795-8.979
		c-0.457-2.42-1.107-4.721-2.765-6.62c-0.616-0.704-1.268-1.378-1.875-2.09c-0.909-1.068-1.957-1.872-3.401-2.066
		c-0.884-0.12-1.759-0.306-2.721-0.477c-0.176-2.521-0.352-5.046-0.523-7.506c-0.373-0.354-0.653-0.619-0.901-0.854
		c-0.429,0-0.781-0.007-1.132,0.002c-1.074,0.026-1.673,0.54-1.819,1.585c-0.054,0.387-0.051,0.782-0.062,1.173
		c-0.049,1.796-0.094,3.591-0.146,5.569c-0.525,0.054-0.904,0.107-1.284,0.13c-2.423,0.145-4.848,0.25-7.268,0.434
		c-1.637,0.125-3.262,0.422-4.9,0.519c-2.379,0.142-4.643,0.712-6.785,1.706c-0.833,0.386-1.607,0.979-2.287,1.607
		c-1.841,1.703-2.609,3.999-3.03,6.357c-0.438,2.459-0.769,4.963-0.846,7.456c-0.192,6.263-0.237,12.53-0.294,18.795
		c-0.019,1.996,0.114,3.992,0.177,5.989c0.114,3.641,0.131,7.287,0.365,10.918c0.272,4.219,0.688,8.43,1.126,12.635
		c0.328,3.156,0.89,6.261,2.145,9.224c0.861,2.029,1.946,3.813,3.772,5.111c0.86,0.61,1.614,1.368,2.463,1.995
		c0.527,0.39,1.113,0.741,1.724,0.973c3.732,1.416,7.609,2.098,11.596,2.005c3.488-0.081,6.936-0.589,10.348-1.294
		c1.181-0.244,2.345-0.62,3.477-1.044c1.995-0.75,3.714-1.989,5.388-3.277c1.226-0.942,2.294-2.078,2.791-3.556
		c0.747-2.229,1.214-4.534,1.325-6.895C129.467,125.598,128.976,123.135,128.586,120.662z"/>
</g>
<g id="Layer_2">
	<path fill-rule="evenodd" clip-rule="evenodd" fill="#e5f3a5" class="fill" d="M123.869,82.595c0.078,4.499,0.128,8.999,0.246,13.497
		c0.064,2.461,0.185,4.925,0.382,7.378c0.269,3.347,0.566,6.694,0.982,10.025c0.338,2.713,0.972,5.39,1.289,8.104
		c0.358,3.062,0.929,6.142,0.404,9.235c-0.532,3.138-1.792,5.85-4.527,7.777c-1.907,1.344-3.997,2.156-6.221,2.617
		c-4.03,0.834-8.109,1.371-12.237,1.196c-2.244-0.095-4.438-0.682-6.474-1.563c-1.499-0.648-2.619-1.928-3.499-3.375
		c-2.091-3.436-3.164-7.209-3.848-11.127c-0.933-5.342-1.005-10.746-1.21-16.141c-0.163-4.3-0.367-8.598-0.479-12.899
		c-0.078-3.01-0.024-6.023-0.041-9.036c-0.01-1.955-0.091-3.909-0.051-5.862c0.077-3.669-0.062-7.357,0.979-10.949
		c0.424-1.463,0.631-2.988,1.051-4.453c0.565-1.974,1.754-3.553,3.33-4.866c1.179-0.983,2.633-1.15,4.042-1.428
		c0.722-0.143,1.478-0.121,2.217-0.175c1.13-0.083,2.26-0.163,3.39-0.252c1.937-0.154,3.878-0.167,5.82-0.344
		c2.026-0.186,4.182-0.019,6.146,0.676c3.53,1.249,5.701,3.852,6.799,7.396c0.763,2.459,0.866,5.004,1.039,7.542
		c0.102,1.483,0.273,2.962,0.365,4.446c0.052,0.858,0.009,1.721,0.009,2.582C123.805,82.596,123.837,82.595,123.869,82.595z
		 M106.188,69.144c-0.001,0.027-0.002,0.055-0.004,0.083c-0.744,0-1.488,0.014-2.232-0.003c-2.817-0.064-5.632-0.008-8.396,0.562
		c-1.258,0.26-2.235,1.052-2.8,2.273c-0.622,1.342-0.845,2.78-0.876,4.223c-0.063,2.974-0.072,5.951-0.002,8.925
		c0.034,1.436,0.239,2.877,0.474,4.299c0.23,1.393,1.18,2.229,2.45,2.757c2.353,0.976,4.861,1.209,7.345,1.368
		c3.593,0.229,7.202,0.21,10.764-0.457c1.304-0.244,2.604-0.547,3.87-0.941c2.55-0.791,3.245-1.714,3.375-4.412
		c0.083-1.719,0.075-3.442,0.12-5.165c0.028-1.055,0.195-2.121,0.094-3.162c-0.195-2.018-0.48-4.032-0.831-6.029
		c-0.415-2.368-1.9-3.736-4.324-3.905C112.211,69.352,109.197,69.277,106.188,69.144z M107.964,95.661
		c-1.722,1.529-1.404,3.655,0.71,4.849c2.778,0.064,5.45-0.531,8.045-1.663c1.192-0.52,2.025-1.291,2.623-2.392
		c0.667-1.229,0.533-1.799-0.789-2.814c-0.855,0.118-1.9,0.118-2.849,0.421C113.157,94.878,110.577,95.482,107.964,95.661z
		 M111.306,108.961c-0.074-0.95-0.079-2.05-0.278-3.114c-0.089-0.479-0.479-1.022-0.892-1.29c-0.536-0.347-1.228-0.617-1.856-0.625
		c-1.597-0.02-3.202,0.069-4.793,0.228c-0.775,0.078-1.608,0.393-1.781,1.295c-0.312,1.625-0.498,3.27,0.681,4.895
		c0.354,0.075,0.837,0.249,1.327,0.268c1.37,0.052,2.746,0.107,4.112,0.034C109.121,110.581,110.414,110.361,111.306,108.961z
		 M92.75,95.348c0.551,1.647,1.381,3.131,2.989,3.882c2.544,1.189,5.281,1.313,8.042,1.074c0.613-0.053,1.144-0.288,1.474-0.833
		c0.755-1.249,0.123-3.348-1.205-3.941c-0.311-0.139-0.678-0.18-1.024-0.208c-2.023-0.167-4.053-0.271-5.987-1.002
		c-0.541-0.205-1.132-0.292-1.708-0.395C93.937,93.677,93.553,93.883,92.75,95.348z M123.946,129.233
		c-0.315-0.122-0.665-0.355-1.03-0.382c-2.155-0.159-4.302-0.105-6.417,0.424c-0.606,0.152-1.014,0.53-1.071,1.109
		c-0.121,1.241-0.202,2.5,0.528,3.815c2.596,0.422,5.205-0.064,7.74-0.324C125.012,132.39,124.758,130.917,123.946,129.233z
		 M111.628,113.334c-0.568-0.153-1.258-0.42-1.97-0.505c-0.771-0.092-1.565-0.051-2.344,0c-0.857,0.058-1.713,0.161-2.561,0.303
		c-0.8,0.133-1.276,0.571-1.47,1.441c-0.285,1.279-0.065,2.483,0.193,3.657c0.798,0.779,1.103,1.009,2.081,1.058
		c1.562,0.079,3.131,0.093,4.695,0.042c0.816-0.027,1.639-0.225,2.111-0.894C112.962,116.675,112.622,115.111,111.628,113.334z
		 M93.429,123.402c-0.674,1.335-0.504,2.611-0.282,3.89c0.147,0.848,0.683,1.284,1.5,1.425c1.633,0.282,3.265,0.334,4.91,0.07
		c0.958-0.154,1.89-0.523,2.049-1.484c0.213-1.283,0.315-2.663-0.605-3.807c-0.136-0.169-0.384-0.282-0.603-0.344
		c-0.448-0.127-0.91-0.281-1.368-0.285c-1.328-0.009-2.66,0.01-3.984,0.102C94.482,123.008,93.932,123.261,93.429,123.402z
		 M91.428,119.544c0.721,0.605,1.511,0.762,2.341,0.797c0.702,0.031,1.403,0.088,2.104,0.074c1.362-0.027,2.722-0.095,4.071-0.146
		c0.374-0.448,0.693-0.833,0.993-1.192c0-1.027,0.13-2.021-0.029-2.966c-0.275-1.633-0.862-2.062-2.013-2.199
		c-0.616-0.073-1.241-0.218-1.851-0.171c-1.394,0.105-2.778,0.324-4.17,0.465c-0.916,0.093-1.391,0.624-1.589,1.464
		C90.973,116.993,91.07,118.293,91.428,119.544z M118.236,103.042c-0.946,0.108-1.795,0.21-2.646,0.301
		c-0.805,0.085-1.215,0.592-1.506,1.295c-0.466,1.131-0.49,2.291-0.26,3.455c0.242,1.222,0.845,1.751,2.094,1.826
		c0.817,0.049,1.646,0.024,2.462-0.048c0.855-0.075,1.722-0.171,2.547-0.392c1.24-0.332,1.707-1.091,1.585-2.35
		c-0.063-0.661-0.143-1.319-0.226-1.978c-0.12-0.955-0.627-1.617-1.581-1.803C119.869,103.184,119.01,103.134,118.236,103.042z
		 M123.126,117.459c0.589-2.055,0.487-3.842-0.223-5.21c-2.395-1.205-4.835-0.447-7.243-0.082c-0.095,0.155-0.148,0.261-0.218,0.354
		c-1.068,1.399-0.701,2.899-0.207,4.349c0.138,0.404,0.661,0.778,1.093,0.953c0.523,0.211,1.138,0.266,1.712,0.262
		c1.09-0.007,2.185-0.061,3.269-0.18C121.94,117.836,122.556,117.604,123.126,117.459z M123.576,125.822
		c0.922-0.941,0.627-1.927,0.524-2.889c-0.101-0.94-0.656-1.48-1.527-1.707c-2.047-0.535-4.089-0.372-6.056,0.024
		c-1.189,1.491-1.221,3.157-0.054,4.987C118.839,126.637,121.28,126.475,123.576,125.822z M91.209,110.632
		c1.848,0.856,3.683,0.682,5.501,0.572c0.576-0.035,1.165-0.171,1.705-0.375c1.035-0.388,1.5-1.09,1.362-2.187
		c-0.111-0.879-0.338-1.759-0.637-2.595c-0.285-0.792-0.971-1.274-1.803-1.281c-1.52-0.014-3.039,0.087-4.558,0.144
		c-0.917,0.035-1.422,0.593-1.659,1.404C90.706,107.736,90.781,109.156,91.209,110.632z M105.016,134.947
		c0.913,0.608,1.862,0.912,2.917,0.844c1.326-0.085,2.656-0.145,3.977-0.278c0.568-0.057,1.12-0.27,1.594-0.39
		c0.765-1.857,0.347-4.113-0.962-5.368c-2.406,0.058-4.918-0.481-7.224,0.542C104.613,131.94,104.521,133.485,105.016,134.947z
		 M105.271,121.692c-1.229,1.56-1.258,3.755-0.195,5.474c2.469,0.854,4.93,0.454,7.388,0.062c1.287-1.328,1.054-2.88,0.773-4.43
		c-0.038-0.206-0.215-0.476-0.396-0.55c-0.855-0.35-1.713-0.746-2.61-0.922c-0.75-0.146-1.559-0.055-2.334,0.012
		C106.973,121.418,106.056,121.583,105.271,121.692z M101.756,130.961c-0.464-0.088-0.844-0.191-1.23-0.228
		c-1.672-0.153-3.355-0.286-5.005,0.13c-1.076,0.271-1.459,0.757-1.42,1.84c0.032,0.923,0.223,1.84,0.329,2.646
		c1.868,1.109,5.931,1.23,7.939,0.286c0.659-1.17,0.086-2.46,0.213-3.66C102.285,131.61,102.039,131.309,101.756,130.961z
		 M108.983,139.791c1.447,0.21,2.79,0.438,4.191-0.178c-0.093-0.306-0.176-0.583-0.247-0.824c-2.551-0.296-3.963-0.154-4.135,0.471
		C108.833,139.372,108.897,139.549,108.983,139.791z M101.946,65.561c0.55,1.118,0.55,1.118,1.64,0.953
		c0.508-0.631,0.645-1.275,0.028-1.975c-0.352,0-0.692,0-1.107,0C102.309,64.899,102.111,65.26,101.946,65.561z M98.129,64.813
		c-0.396,0.578-0.921,1.104-0.271,1.802c1.145,0.285,1.208,0.271,1.896-0.436C99.527,65.39,99.083,64.85,98.129,64.813z
		 M106.075,65.812c1.122,0.69,1.122,0.69,1.828-0.087c-0.238-1.189-0.264-1.218-1.427-1.416
		C106.35,64.783,106.219,65.272,106.075,65.812z M111.099,66.438c0.772-0.891,0.759-1.036-0.101-1.884
		c-0.697,0.133-0.944,0.551-0.781,1.314C110.476,66.036,110.761,66.22,111.099,66.438z"/>
	<path fill-rule="evenodd" clip-rule="evenodd" fill="#e5f3a5" class="fill" d="M118.369,81.993c0,1.565,0.024,3.132-0.011,4.697
		c-0.016,0.698-0.15,1.394-0.229,2.092c-0.094,0.821-0.542,1.424-1.302,1.663c-1.375,0.432-2.763,0.868-4.178,1.12
		c-3.364,0.6-6.773,0.713-10.176,0.519c-1.983-0.113-3.958-0.441-5.923-0.756c-1.268-0.203-2.162-0.96-2.348-2.286
		c-0.184-1.313-0.297-2.64-0.358-3.965c-0.09-1.954-0.183-3.913-0.134-5.867c0.043-1.715,0.215-3.436,0.45-5.137
		c0.159-1.152,0.667-2.208,1.826-2.705c0.523-0.224,1.126-0.319,1.701-0.358c1.405-0.096,2.814-0.121,4.221-0.181
		c1.485-0.064,2.971-0.208,4.455-0.189c2.735,0.034,5.477,0.068,8.202,0.281c1.874,0.146,2.863,1.007,3.105,2.779
		c0.19,1.392,0.412,2.784,0.499,4.184c0.086,1.365,0.02,2.74,0.02,4.11C118.249,81.993,118.309,81.993,118.369,81.993z"/>
	<path fill-rule="evenodd" clip-rule="evenodd" fill="#e5f3a5" class="fill" d="M118.399,95.531c-0.195,1.102-0.981,1.794-1.812,2.201
		c-2.386,1.166-4.916,1.751-7.594,1.172c-0.221-0.047-0.425-0.178-0.713-0.304c-0.067-0.47-0.137-0.955-0.231-1.607
		c0.616-0.169,1.15-0.38,1.703-0.455c1.505-0.201,3.029-0.283,4.525-0.536c0.873-0.148,1.694-0.574,2.559-0.798
		C117.333,95.074,117.913,94.857,118.399,95.531z"/>
	<path fill-rule="evenodd" clip-rule="evenodd" fill="#e5f3a5" class="fill" d="M102.677,106.279c2.222-1.12,4.48-1.216,6.79-0.811
		c0.794,0.65,0.786,1.511,0.631,2.373c-0.109,0.609-0.478,1.067-1.132,1.203c-0.419,0.087-0.839,0.209-1.262,0.221
		c-1.17,0.033-2.343,0.031-3.513,0.009c-0.336-0.007-0.671-0.127-0.937-0.181C102.555,108.201,102.516,107.293,102.677,106.279z
		 M107.5,106.586c-1-0.75-1.177-0.758-2.039-0.085c0.433,0.079,0.783,0.143,1.226,0.223c-0.158,0.286-0.27,0.521-0.411,0.735
		c-0.145,0.222-0.318,0.423-0.556,0.735c0.875,0.21,1.529,0.279,2.344,0c-0.334-0.289-0.554-0.479-0.796-0.689
		C107.345,107.202,107.418,106.91,107.5,106.586z"/>
	<path fill-rule="evenodd" clip-rule="evenodd" fill="#e5f3a5" class="fill" d="M103.917,96.771c0.176,0.668,0.327,1.239,0.454,1.724
		c-2.346,2.022-9.621,0.57-10.368-3.209c0.234-0.518,0.691-0.463,1.107-0.379c0.571,0.116,1.164,0.231,1.686,0.476
		c1.812,0.848,3.738,1.052,5.695,1.153C102.909,96.557,103.322,96.669,103.917,96.771z"/>
	<path fill-rule="evenodd" clip-rule="evenodd" fill="#e5f3a5" class="fill" d="M116.749,130.566c1.782-0.933,5.391-0.897,6.56,0.029
		c0.017,0.306,0.051,0.653,0.05,1.001c-0.001,0.344-0.039,0.689-0.057,0.979c-0.862,0.544-0.862,0.544-2.047,0.407
		c-0.272-0.86,0.892-1.458,0.457-2.466c-0.361,0.214-0.665,0.395-1.021,0.605c-0.242-0.283-0.457-0.536-0.765-0.897
		c-0.333,0.336-0.645,0.651-1.037,1.048c-0.037,0.392-0.082,0.866-0.131,1.401c0.653,0.037,1.155,0.064,1.657,0.092
		c-0.894,0.52-2.639,0.488-3.666,0.039C116.749,132.101,116.749,131.345,116.749,130.566z"/>
	<path fill-rule="evenodd" clip-rule="evenodd" fill="#e5f3a5" class="fill" d="M104.367,117.957c-0.064-1.1-0.12-2.055-0.18-3.083
		c0.407-0.252,0.734-0.593,1.114-0.668c1.656-0.329,3.334-0.375,5.015-0.201c0.149,0.015,0.29,0.102,0.452,0.161
		c0.565,1.098,0.364,2.273,0.511,3.457C108.997,118.265,106.827,118.417,104.367,117.957z M108.017,115.212
		c0.267-0.192,0.552-0.398,0.883-0.637c-0.7-0.542-1.27-0.183-1.903-0.074c0,0.388,0,0.725,0,1.045
		c0.292,0.211,0.558,0.404,0.906,0.655c-0.444,0.228-0.789,0.405-1.183,0.607c0.851,0.602,1.189,0.55,2.144-0.336
		C108.591,116.067,108.305,115.643,108.017,115.212z"/>
	<path fill-rule="evenodd" clip-rule="evenodd" fill="#e5f3a5" class="fill" d="M100.094,124.006c0.516,1.111,0.765,2.062,0.245,3.167
		c-0.495,0.177-1.031,0.368-1.528,0.545c-0.929-0.972,0.152-2.154-0.535-3.104c-0.615-0.012-1.23-0.225-1.943,0.343
		c0.499,0.155,0.847,0.263,1.278,0.396c0,0.657,0,1.339,0,2.143c-1.078,0-2.105,0-3.173,0c-0.49-0.858-0.362-1.789-0.328-2.635
		c0.381-0.595,0.886-0.778,1.449-0.82c1.09-0.082,2.18-0.167,3.272-0.203C99.243,123.824,99.66,123.944,100.094,124.006z"/>
	<path fill-rule="evenodd" clip-rule="evenodd" fill="#e5f3a5" class="fill" d="M99.606,115.321c0.074,0.793,0.156,1.604,0.224,2.417
		c0.058,0.693-0.278,1.111-0.941,1.282c-0.34,0.088-0.678,0.237-1.022,0.249c-1.326,0.044-2.656,0.084-3.982,0.048
		c-1.03-0.027-1.389-0.427-1.431-1.458c-0.03-0.74-0.005-1.482-0.005-2.149C93.826,114.78,98.122,114.518,99.606,115.321z
		 M95.379,117.65c0.418,0.046,0.758,0.084,1.099,0.121c0.4,0.157,0.141,1.079,0.971,0.771c-0.152-0.785,0.236-1.667-0.351-2.396
		c-0.522,0.197-0.237,1.019-0.94,0.818c-0.222-1.101-0.222-1.101-0.778-1.278C95.379,116.315,95.379,116.922,95.379,117.65z"/>
	<path fill-rule="evenodd" clip-rule="evenodd" fill="#e5f3a5" class="fill" d="M115.138,108.656c-0.417-1.138-0.354-2.12-0.192-3.078
		c0.055-0.33,0.37-0.709,0.671-0.885c0.94-0.55,3.762-0.564,4.803-0.101c0.96,1.581,1.044,2.038,0.535,3.408
		C119.098,108.307,117.193,108.846,115.138,108.656z M117.009,107.435c1.209,0.654,1.541,0.588,2.324-0.274
		c-0.136-0.349-0.287-0.739-0.433-1.116c0.08-0.296,0.158-0.583,0.247-0.912c-0.754-0.352-1.427-0.521-2.094,0.023
		c-0.04,0.032-0.019,0.14-0.031,0.255c0.239,0.094,0.486,0.191,0.653,0.256c0.283,0.475,0.522,0.876,0.791,1.328
		C117.925,107.158,117.467,107.296,117.009,107.435z"/>
	<path fill-rule="evenodd" clip-rule="evenodd" fill="#e5f3a5" class="fill" d="M116.183,116.459c-0.102-0.973-0.198-1.883-0.284-2.708
		c1.321-0.905,4.706-1.185,6.223-0.541c0,0.974,0,2.002,0,3.104C120.174,116.646,118.321,117.134,116.183,116.459z M120.215,114.065
		c-0.396-0.743-0.67-0.872-1.356-0.674c-0.773,0.222-1.208,0.814-1.144,1.555c0.067,0.77,0.559,1.25,1.375,1.347
		c0.763,0.09,0.979-0.075,1.322-1.138c-0.531-0.265-1.086-0.541-1.884-0.938C119.261,114.15,119.729,114.109,120.215,114.065z"/>
	<path fill-rule="evenodd" clip-rule="evenodd" fill="#e5f3a5" class="fill" d="M123.063,124.895c-1.112,0.178-1.98,0.317-3.018,0.483
		c0.441-1.219,1.017-2.299-0.066-3.479c1.107,0.102,2.028-0.292,2.911,0.611C122.938,123.158,122.995,123.946,123.063,124.895z"/>
	<path fill-rule="evenodd" clip-rule="evenodd" fill="#e5f3a5" class="fill" d="M118.5,125.367c-0.466-0.026-0.954-0.054-1.444-0.081
		c-0.407-1.113-0.628-2.102,0.069-3.137c0.732-0.073,1.456-0.146,2.406-0.242c-0.573,0.503-0.98,0.861-1.57,1.379
		c0.673,0.283,1.141,0.478,1.702,0.714C119.287,124.442,118.955,124.832,118.5,125.367z"/>
	<path fill-rule="evenodd" clip-rule="evenodd" fill="#e5f3a5" class="fill" d="M92.213,109.971c-0.21-1.281-0.666-2.408,0.184-3.602
		c0.543-0.12,1.14-0.314,1.75-0.372c0.852-0.081,1.713-0.075,2.57-0.076c0.304,0,0.626,0.039,0.906,0.147
		c0.892,0.345,1.169,3.18,0.136,3.614C95.978,110.43,94.174,110.575,92.213,109.971z M95.554,107.087
		c-0.954-0.361-1.276-0.185-1.531,0.828c0.262,0,0.511,0,0.737,0c0.235,0.516-0.021,1.137,0.545,1.57
		C95.984,108.685,95.404,107.843,95.554,107.087z"/>
	<path fill-rule="evenodd" clip-rule="evenodd" fill="#e5f3a5" class="fill" d="M112.725,133.483c-1.215,1.214-4.999,1.612-6.871,0.74
		c0-0.899,0-1.852,0-2.914c2.1-0.94,4.208-0.319,6.175-0.458C112.943,131.655,112.609,132.607,112.725,133.483z M110.248,133.956
		c1.049-1.381,0.934-1.977-0.408-2.521c-0.32,0.153-0.668,0.32-1.077,0.516c0,0.505,0,0.995,0,1.605
		C109.299,133.7,109.803,133.835,110.248,133.956z"/>
	<path fill-rule="evenodd" clip-rule="evenodd" fill="#e5f3a5" class="fill" d="M105.849,126.359c-0.654-1.515-0.64-2.656,0.022-3.677
		c1.699-0.515,3.468-0.181,5.193-0.303c0.399,0.25,0.76,0.477,1.084,0.681c0.396,1.595,0.312,2.24-0.427,3.287
		C109.794,126.606,107.842,127.109,105.849,126.359z M109.485,122.845c-0.483,0.199-1.036,0.427-1.753,0.723
		c0.284,0.756,0.533,1.418,0.803,2.135c0.365,0.172,0.735,0.348,1.239,0.586c0.354-0.293,0.667-0.554,1-0.831
		C110.093,124.568,110.641,123.504,109.485,122.845z"/>
	<path fill-rule="evenodd" clip-rule="evenodd" fill="#e5f3a5" class="fill" d="M96.07,134.887c-0.74-0.882-0.449-1.878-0.546-2.879
		c0.303-0.091,0.552-0.227,0.804-0.233c1.319-0.027,2.639-0.027,3.959-0.026c0.581,0.001,1.074,0.177,1.379,0.889
		c-0.036,0.53-0.08,1.18-0.12,1.775C100.396,135.082,97.688,135.308,96.07,134.887z M99.372,133.984
		c0.096-0.39,0.184-0.746,0.281-1.137c-0.423-0.233-0.853-0.472-1.279-0.708c-0.436,0.429-0.84,0.828-1.259,1.243
		c0.431,0.635,0.672,1.289,1.472,1.215C98.877,134.371,99.143,134.163,99.372,133.984z"/>
	<path fill-rule="evenodd" clip-rule="evenodd" fill="#e5f3a5" class="fill" d="M118.904,115.364c0.172-0.035,0.344-0.07,0.516-0.105
		c0.015,0.074,0.031,0.146,0.046,0.22c-0.173,0.03-0.347,0.061-0.52,0.092C118.932,115.502,118.918,115.433,118.904,115.364z"/>
	<path fill-rule="evenodd" clip-rule="evenodd" fill="#e5f3a5" class="fill" d="M109.447,132.802c0.135-0.173,0.27-0.347,0.477-0.611
		C110.188,132.754,110.12,132.976,109.447,132.802z"/>
	<path fill-rule="evenodd" clip-rule="evenodd" fill="#e5f3a5" class="fill" d="M109.439,125.914c-0.225-0.403-0.293-0.527-0.403-0.725
		c0.239-0.11,0.428-0.196,0.617-0.282c0.062,0.045,0.125,0.091,0.187,0.137C109.742,125.256,109.645,125.467,109.439,125.914z"/>
	<path fill-rule="evenodd" clip-rule="evenodd" fill="#e5f3a5" class="fill" d="M109.521,123.911c-0.241,0.11-0.48,0.22-0.721,0.331
		c-0.049-0.092-0.097-0.184-0.146-0.275c0.229-0.131,0.457-0.262,0.685-0.393C109.4,123.686,109.461,123.797,109.521,123.911z"/>
</g>
</svg>
