<svg version="1.1" id="svg" xmlns="http://www.w3.org/2000/svg" xmlns:xlink="http://www.w3.org/1999/xlink" x="0px" y="0px"
	 width="200px" height="200px" viewBox="0 0 200 200" enable-background="new 0 0 200 200" xml:space="preserve">
<path class="stroke" fill="#693c11"  d="M181.772,83.298c-3.249-2.095-6.54-4.127-9.793-6.218c-2.126-1.368-4.185-2.842-6.332-4.176
	c-2.188-1.357-4.472-2.564-6.671-3.904c-3.996-2.434-7.949-4.935-11.941-7.371c-2.973-1.814-5.983-3.568-8.972-5.358
	c-0.368-0.22-0.718-0.473-1.062-0.729c-3.832-2.857-7.793-5.514-11.997-7.8c-1.041-0.565-2.128-0.866-3.303-0.616
	c-3.734,0.794-7.473,1.575-11.194,2.425c-4.513,1.031-9.01,2.131-13.516,3.196c-3.153,0.745-6.314,1.455-9.46,2.227
	c-4.263,1.046-8.5,2.194-12.773,3.191c-3.855,0.897-7.742,1.65-11.616,2.463c-1.259,0.265-2.515,0.563-3.785,0.765
	c-3.58,0.57-7.172,1.069-10.751,1.651c-2.445,0.397-4.882,0.862-7.312,1.349c-1.393,0.278-2.764,0.663-4.204,1.012
	c-0.084,0.594-0.186,1.047-0.207,1.502c-0.123,2.768-0.242,5.534-0.326,8.302c-0.025,0.794-0.1,1.646,0.146,2.372
	c0.363,1.074,0.919,2.102,1.52,3.072c2.436,3.938,4.85,7.89,7.402,11.751c2.948,4.463,5.975,8.877,9.077,13.233
	c2.464,3.456,5.135,6.763,7.636,10.195c3.517,4.822,6.943,9.711,10.445,14.545c1.389,1.918,2.46,4.1,4.529,5.596
	c4.054-0.943,8.201-1.839,12.312-2.878c5.737-1.45,11.463-2.947,17.164-4.534c5.005-1.396,9.975-2.924,14.949-4.43
	c4.612-1.396,9.211-2.834,13.814-4.264c4.461-1.387,8.917-2.795,13.381-4.174c3.645-1.129,7.309-2.195,10.942-3.358
	c2.13-0.681,4.22-1.492,6.323-2.258c0.715-0.261,1.406-0.587,2.124-0.841c2.472-0.88,4.97-1.69,7.421-2.622
	c2.844-1.078,5.651-2.255,8.471-3.399c0.569-0.23,1.119-0.507,1.787-0.813c1.249-4.77,2.588-9.526,2.616-14.539
	C186.296,86.312,184.056,84.772,181.772,83.298z"/>
<path class="stroke" fill="#693c11"  d="M103.616,137.759c0.117-1.021-0.678-2.551-1.619-2.804c-1.643-0.446-3.32-0.765-4.396-1.005
	c-2.587,0.135-4.562,0.182-6.329,1.169c-0.467,0.262-0.983,0.686-1.172,1.156c-0.889,2.205,0.524,5.102,2.825,5.54
	c2.437,0.467,4.924,0.647,7.374-0.11C102.027,141.171,103.415,139.542,103.616,137.759z"/>
<path class="stroke" fill="#693c11"  d="M64.634,133.307c-0.735-0.142-1.757-0.346-2.781-0.535c-1.966-0.361-3.892,0.057-5.815,0.365
	c-1.351,0.216-2.533,0.814-3.414,2.05c0,0.452,0.034,0.833-0.006,1.207c-0.19,1.777,0.368,3.004,1.907,3.75
	c2.958,1.43,6.042,1.268,9.067,0.338c1.559-0.479,2.427-1.834,2.68-3.436C66.494,135.644,66.041,134.411,64.634,133.307z"/>
<path class="stroke" fill="#693c11"  d="M134.212,138.244c-3.049-0.306-6.118-0.564-9.167,0.306c-0.924,0.264-1.654,0.688-2.039,1.512
	c-0.083,0.583-0.177,1.096-0.222,1.612c-0.185,2.091,0.345,2.973,2.339,3.696c2.63,0.953,5.318,0.941,8.007,0.271
	c1.791-0.445,2.899-1.591,3.15-3.443C136.521,140.439,135.689,139.193,134.212,138.244z"/>
<path class="stroke" fill="#693c11"  d="M81.939,145.891c-0.468-1.028-1.105-1.735-2.104-1.965c-0.923-0.213-1.884-0.48-2.809-0.424
	c-2.182,0.139-4.36,0.404-6.525,0.726c-1.036,0.153-1.951,0.804-2.162,1.846c-0.18,0.892-0.011,1.876,0.126,2.801
	c0.054,0.375,0.359,0.815,0.68,1.027c1.075,0.71,2.205,1.352,3.564,1.326c1.526-0.029,3.067,0.047,4.578-0.128
	c2.628-0.306,4.812-1.217,4.652-4.753C81.934,146.204,81.939,146.062,81.939,145.891z"/>
<path class="stroke" fill="#693c11"  d="M110.143,144.905c-2.549-0.513-5.095-0.543-7.665-0.066c-1.95,0.36-3.492,1.036-3.534,3.552
	c0.039,0.211,0.064,0.651,0.211,1.049c0.351,0.948,0.795,1.874,1.812,2.273c3.262,1.285,6.541,1.104,9.796-0.02
	c1.021-0.353,1.668-1.147,1.777-2.23c0.09-0.894,0.019-1.803,0.019-2.658C112.039,145.755,111.241,145.125,110.143,144.905z"/>
<path class="stroke" fill="#693c11"  d="M140.626,128.62c-2.778-0.757-5.556-0.792-8.296,0.2c-1.914,0.693-2.171,1.656-2.344,3.672
	c-0.104,1.226,0.92,2.553,2.3,2.946c1.551,0.44,3.149,0.714,4.21,0.946c2.075-0.175,3.63-0.178,4.974-1.043
	c1.548-0.996,1.987-2.544,1.789-4.237C143.088,129.642,141.924,128.972,140.626,128.62z"/>
<path class="stroke" fill="#693c11"  d="M23.755,70.009c-2.005-0.54-4.06-0.565-6.111-0.322c-0.988,0.116-1.639,0.701-1.911,1.686
	c-0.715,2.573,0.191,3.702,2.413,4.542c0.943,0.357,2.065,0.231,3.105,0.347c1.545,0.171,2.922-0.254,4.389-1.243
	c0.113-0.521,0.277-1.068,0.346-1.629C26.217,71.452,25.622,70.512,23.755,70.009z"/>
<path class="stroke" fill="#693c11"  d="M14.325,58.539c1.559-0.311,2.121-1.036,2.191-2.541c0.077-1.637-0.396-2.292-2.005-2.832
	c-1.471-0.493-2.989-0.439-4.511-0.461c-1.247-0.018-2.332,0.328-3.366,1.029c-0.153,0.717-0.29,1.306-0.401,1.9
	c-0.196,1.052,0.027,1.684,0.842,2.035C9.399,58.668,11.826,59.035,14.325,58.539z"/>
<path class="stroke" fill="#693c11"  d="M119.707,132.802c-1.227-0.092-2.456-0.198-3.685-0.192c-1.887,0.008-3.705,0.289-5.146,2.021
	c0.057,0.621,0.062,1.242,0.182,1.84c0.193,0.955,0.674,1.649,1.769,1.766c1.365,0.146,2.722,0.478,4.086,0.51
	c1.71,0.039,3.417-0.182,5.103-1.203c0.192-0.806,0.411-1.718,0.612-2.564C121.909,133.379,121.303,132.921,119.707,132.802z"/>
<path class="stroke" fill="#693c11"  d="M19.923,66.741c1.021-0.189,1.836-1.086,2.015-2.149c0.219-1.3-0.052-1.877-1.282-2.55c-2.525-1.382-5.116-1.226-7.71-0.231
	c-0.373,0.143-0.659,0.513-1.039,0.821c0,0.536,0.01,0.915-0.002,1.295c-0.03,0.915,0.402,1.52,1.213,1.913
	C15.289,66.895,17.561,67.178,19.923,66.741z"/>
<path class="stroke" fill="#693c11"  d="M24.457,56.002c-0.03,0.179-0.074,0.411-0.108,0.646c-0.236,1.671-0.012,1.985,1.485,2.812
	c1.18,0.649,2.443,0.713,3.722,0.84c2.883,0.286,4.17-0.772,4.389-3.661C32.455,54.011,26.513,53.58,24.457,56.002z"/>
<path fill-rule="evenodd" clip-rule="evenodd" fill="#faf0e5" class="fill" d="M184.72,92.768c-0.07,2.522-0.756,4.938-1.366,7.323
	c-16.874,6.982-34.305,12.146-51.591,17.685c-17.25,5.527-34.722,10.351-52.506,14.98c0.304-2.988,0.586-5.76,0.875-8.599
	c1.806-0.488,3.531-1.04,5.296-1.421c5.183-1.112,10.283-2.483,15.303-4.213c4.324-1.49,8.756-2.666,13.136-3.998
	c3.695-1.124,7.387-2.26,11.073-3.412c3.504-1.095,7.017-2.162,10.493-3.339c3.706-1.256,7.361-2.658,11.059-3.937
	c3.648-1.263,7.294-2.545,10.991-3.651c6.211-1.856,12.457-3.597,18.698-5.354c2.709-0.761,5.441-1.438,8.166-2.147
	C184.424,92.666,184.521,92.721,184.72,92.768z"/>
<path fill-rule="evenodd" clip-rule="evenodd" fill="#faf0e5" class="fill" d="M184.817,89.727c-0.476,0.207-0.8,0.393-1.148,0.489
	c-2.985,0.83-5.979,1.636-8.966,2.462c-5.42,1.499-10.882,2.87-16.245,4.554c-4.816,1.511-9.515,3.398-14.282,5.066
	c-3.287,1.149-6.612,2.191-9.908,3.316c-2.526,0.862-5.023,1.816-7.555,2.666c-3.346,1.12-6.709,2.191-10.072,3.259
	c-2.364,0.75-4.727,1.504-7.111,2.178c-5.049,1.425-10.106,2.812-15.169,4.185c-3.084,0.835-6.173,1.655-9.28,2.396
	c-1.99,0.476-4.018,0.795-6.289,1.234c-0.391-0.43-0.936-0.944-1.38-1.535c-2.869-3.809-5.732-7.624-8.563-11.463
	c-1.811-2.456-3.551-4.965-5.345-7.433c-1.428-1.966-2.907-3.892-4.326-5.863c-0.639-0.885-1.188-1.837-1.822-2.83
	c0.29-0.172,0.517-0.306,0.843-0.501c1.645,2.104,3.32,4.115,4.852,6.232c3.106,4.291,6.114,8.652,9.203,12.955
	c1.921,2.677,3.905,5.306,5.89,7.936c0.267,0.354,0.697,0.583,1.071,0.885c3.416-0.889,6.782-1.615,10.051-2.647
	c7.367-2.328,14.87-4.134,22.336-6.084c1.201-0.313,2.371-0.736,3.566-1.075c3.851-1.097,7.732-2.097,11.554-3.285
	c5.274-1.641,10.499-3.44,15.759-5.132c4.265-1.37,8.557-2.655,12.819-4.032c1.814-0.588,3.559-1.396,5.38-1.957
	c2.637-0.813,5.321-1.474,7.974-2.238c1.085-0.312,2.131-0.763,3.212-1.089c2.052-0.619,4.119-1.187,6.174-1.794
	c0.685-0.201,1.379-0.407,2.02-0.715c0.38-0.182,0.662-0.565,1.142-0.998c-1.017-0.734-1.829-1.373-2.69-1.933
	c-4.315-2.806-8.75-5.444-12.928-8.44c-2.245-1.61-4.562-3.103-6.848-4.642c-1.814-1.223-3.811-2.172-5.709-3.273
	c-1.692-0.982-3.437-1.9-5.017-3.042c-1.568-1.133-3.272-2.043-4.822-3.202c-1.525-1.143-3.145-2.163-4.745-3.203
	c-2.035-1.325-4.092-2.616-6.129-3.916c-0.131-0.54-0.237-0.98-0.414-1.712c2.3,1.438,4.354,2.725,6.411,4.005
	c4.697,2.926,9.334,5.951,14.108,8.746c7.832,4.583,15.437,9.513,22.919,14.636c2.912,1.995,5.782,4.049,8.666,6.085
	C184.255,89.157,184.465,89.401,184.817,89.727z"/>
<path fill-rule="evenodd" clip-rule="evenodd" fill="#faf0e5" class="fill" d="M57.646,105.869c-0.11-3.194-0.211-6.13-0.312-9.067
	c0.109-0.045,0.219-0.091,0.329-0.138c2.275,2.631,4.108,5.613,6.267,8.338c2.159,2.725,4.159,5.577,6.181,8.409
	c2.049,2.872,4.039,5.788,6.053,8.685c0.311,2.103,0.062,6.107-0.563,8.009C69.516,121.89,63.518,113.795,57.646,105.869z"/>
<path fill-rule="evenodd" clip-rule="evenodd" fill="#faf0e5" class="fill" d="M56.143,94.435c0.104,3.019,0.208,5.955,0.31,8.893
	c-0.087,0.045-0.175,0.091-0.263,0.137c-0.327-0.304-0.712-0.563-0.973-0.917c-1.78-2.42-3.593-4.819-5.281-7.303
	c-1.471-2.165-2.796-4.43-4.178-6.653c-2.336-3.761-4.667-7.524-6.989-11.271c0.056-1.913-0.171-3.812,0.27-5.911
	c2.03,1.677,2.968,3.926,4.414,5.773c1.471,1.88,2.934,3.768,4.361,5.68c1.428,1.913,2.814,3.856,4.208,5.794
	C53.413,90.594,54.792,92.54,56.143,94.435z"/>
<path fill-rule="evenodd" clip-rule="evenodd" fill="#faf0e5" class="fill" d="M169.078,92.081c-0.936-0.595-1.936-1.23-2.89-1.837
	c-0.763-1.646-1.86-2.807-3.694-3.118c1.197-0.853,5.923-2.052,10.133-2.583c2.274,1.261,4.575,2.568,6.848,4.521
	C175.88,90.107,172.536,91.077,169.078,92.081z"/>
<path fill-rule="evenodd" clip-rule="evenodd" fill="#faf0e5" class="fill" d="M100.464,112.842c-3.533,1.012-6.768,1.936-10.086,2.887
	c-0.754-0.876-1.461-1.697-1.884-2.187c-0.318-1.579-0.552-2.73-0.813-4.025c0.99-0.714,2.342-0.988,3.649-1.402
	c1.313-0.415,2.583-0.965,3.973-1.493C96.962,108.619,98.602,110.596,100.464,112.842z"/>
<path fill-rule="evenodd" clip-rule="evenodd" fill="#faf0e5" class="fill" d="M156.245,96.144c-3.255,1.063-6.222,2.034-9.282,3.033
	c-1.043-1.041-2.343-1.735-3.142-3.051c-0.305-0.5-1.014-0.778-1.575-1.094c-0.422-0.237-1.087-0.118-1.163-1.008
	c2.892-1.324,6.045-2.008,9.11-3.145C152.144,92.576,154.074,94.256,156.245,96.144z"/>
<path fill-rule="evenodd" clip-rule="evenodd" fill="#faf0e5" class="fill" d="M114.182,101.483c1.945,2.095,3.783,4.076,5.714,6.156
	c-1.254,0.784-2.687,0.652-3.94,1.105c-1.245,0.447-2.531,0.778-3.893,1.188c-1.273-1.353-2.888-2.306-3.507-4.22
	c-0.258-0.797-0.936-1.457-1.507-2.306C109.24,102.612,111.632,101.997,114.182,101.483z"/>
<path fill-rule="evenodd" clip-rule="evenodd" fill="#faf0e5" class="fill" d="M150.372,89.758c-1.926-1.687-3.744-3.278-5.741-5.026
	c2.789-1.191,5.637-1.419,8.187-2.376c2.071,1.498,3.989,2.888,6.143,4.446C155.92,87.849,153.152,88.8,150.372,89.758z"/>
<path fill-rule="evenodd" clip-rule="evenodd" fill="#faf0e5" class="fill" d="M91.102,100.213c2.892-0.863,5.624-1.445,8.56-1.884
	c1.257,1.396,2.553,2.837,4.036,4.485c-2.778,0.938-5.312,1.794-7.86,2.655C94.273,103.735,92.786,102.083,91.102,100.213z"/>
<path fill-rule="evenodd" clip-rule="evenodd" fill="#faf0e5" class="fill" d="M57.524,90.935c-0.392,0.269-0.648,0.442-0.999,0.684
	c-5.636-8.41-11.535-16.53-18.039-24.46c4.024-1.146,7.873-1.684,11.778-1.981c-1.36,0.695-2.859,0.925-4.32,1.267
	c-1.52,0.355-3.046,0.674-4.745,1.049c1.52,2.899,3.673,5.217,5.421,7.803c1.761,2.606,3.747,5.06,5.553,7.64
	C53.976,85.511,55.675,88.161,57.524,90.935z"/>
<path fill-rule="evenodd" clip-rule="evenodd" fill="#faf0e5" class="fill" d="M79.789,104.573c1.092,1.287,2.094,2.469,3.216,3.792
	c-2.518,0.877-5.228,1.029-6.267,3.909c-0.561,0.161-1.144,0.329-1.883,0.542c-1.166-1.629-2.317-3.236-3.572-4.99
	C74.104,106.5,76.877,105.555,79.789,104.573z"/>
<path fill-rule="evenodd" clip-rule="evenodd" fill="#faf0e5" class="fill" d="M130.741,96.854c1.857,1.801,3.695,3.583,5.764,5.588
	c-2.422,0.765-4.56,1.439-6.623,2.091c-1.201-1.007-2.256-1.892-3.378-2.832c0.554-1.365-0.117-2.355-1.345-3.341
	C127.086,97.84,128.811,97.374,130.741,96.854z"/>
<path fill-rule="evenodd" clip-rule="evenodd" fill="#faf0e5" class="fill" d="M132.845,88.444c1.967,1.779,3.726,3.37,5.622,5.085
	c-2.399,1.2-4.986,1.363-7.456,2.101c-0.77-0.651-1.49-1.261-2.177-1.843c-0.088-0.832-0.168-1.582-0.246-2.316
	c-0.479-0.389-0.906-0.738-1.566-1.276C129.132,89.561,131.01,88.996,132.845,88.444z"/>
<path fill-rule="evenodd" clip-rule="evenodd" fill="#faf0e5" class="fill" d="M71.032,92.905c-1.004-1.306-1.955-2.542-3.038-3.949
	c2.958-1.068,5.816-1.856,8.802-2.585c1.172,1.212,2.316,2.396,3.626,3.749C77.241,91.312,74.203,92.169,71.032,92.905z"/>
<path fill-rule="evenodd" clip-rule="evenodd" fill="#faf0e5" class="fill" d="M90.026,88.927c0.317,0.207,0.413,0.245,0.474,0.313
	c0.902,1.012,1.593,2.212,2.991,2.733c0.521,0.192,0.882,0.812,1.534,1.448c-2.917,0.766-5.561,1.461-8.202,2.154
	c-1.377-1.602-2.673-3.107-4.133-4.804C85.318,90.109,87.765,89.494,90.026,88.927z"/>
<path fill-rule="evenodd" clip-rule="evenodd" fill="#faf0e5" class="fill" d="M86.476,96.713c0.921,1.025,1.772,1.975,2.683,2.988
	c-1.391,1.096-3.026,1.272-4.517,1.816c-1.516,0.553-2.994,1.212-4.505,1.83c-1.257-1.143-2.339-2.242-2.514-4.14
	C80.541,98.385,83.492,97.553,86.476,96.713z"/>
<path fill-rule="evenodd" clip-rule="evenodd" fill="#faf0e5" class="fill" d="M114.636,100.44c-1.718-1.6-3.306-3.079-5.138-4.784
	c2.313-0.79,4.351-1.486,6.164-2.106c1.786,1.68,3.438,3.235,5.201,4.893C118.916,99.729,116.672,99.531,114.636,100.44z"/>
<path fill-rule="evenodd" clip-rule="evenodd" fill="#faf0e5" class="fill" d="M104.73,90.835c-1.526-1.593-3.427-2.691-4.57-4.84
	c2.296-0.581,4.438-1.122,6.432-1.626c1.675,1.577,3.219,3.035,4.97,4.685C109.209,89.829,107.039,90.356,104.73,90.835z"/>
<path fill-rule="evenodd" clip-rule="evenodd" fill="#faf0e5" class="fill" d="M121.692,67.701c-2.732,0.804-5.186,1.527-7.808,2.3
	c-1.379-1.215-2.829-2.489-4.353-3.831c2.299-1.651,5.008-1.457,7.357-2.37C118.424,65.046,119.897,66.243,121.692,67.701z"/>
<path fill-rule="evenodd" clip-rule="evenodd" fill="#faf0e5" class="fill" d="M62.448,83.659c1.215,1.53,2.303,2.903,3.561,4.488
	c-2.577,0.792-4.989,1.534-7.408,2.277c-1.424-1.263-1.985-2.981-3.128-4.56C57.824,84.926,60.108,84.256,62.448,83.659z"/>
<path fill-rule="evenodd" clip-rule="evenodd" fill="#faf0e5" class="fill" d="M70.776,94.202c1.125,1.356,2.117,2.551,3.251,3.919
	c-1.211,0.283-2.195,0.599-3.204,0.733c-1.374,0.184-2.436,0.754-3.072,2.034c-0.383,0.09-0.741,0.176-1.205,0.284
	c-1.135-1.537-2.257-3.058-3.5-4.741C65.591,95.271,68.181,94.829,70.776,94.202z"/>
<path fill-rule="evenodd" clip-rule="evenodd" fill="#faf0e5" class="fill" d="M94.987,71.898c-0.154-0.675-0.309-1.35-0.461-2.018
	c1.874-0.521,3.73-1.038,5.714-1.589c1.58,1.384,3.16,2.769,4.936,4.324c-2.73,0.883-5.194,1.434-7.63,1.727
	C96.621,73.459,95.804,72.679,94.987,71.898z"/>
<path fill-rule="evenodd" clip-rule="evenodd" fill="#faf0e5" class="fill" d="M68.226,76.453c0.977,1.228,1.917,2.407,2.986,3.752
	c-2.901,0.76-5.6,1.467-8.393,2.198c-0.994-1.192-1.954-2.343-3.036-3.643C62.666,77.973,65.354,77.238,68.226,76.453z"/>
<path fill-rule="evenodd" clip-rule="evenodd" fill="#faf0e5" class="fill" d="M131.999,76.357c-2.771,0.796-5.54,1.593-8.345,2.398
	c-1.229-1.041-2.375-2.012-3.678-3.114c2.825-1.312,5.708-1.643,8.466-2.575c1.215,0.98,2.421,1.953,3.626,2.926
	C132.045,76.115,132.022,76.236,131.999,76.357z"/>
<path fill-rule="evenodd" clip-rule="evenodd" fill="#faf0e5" class="fill" d="M138.868,80.101c-1.363-1.127-2.672-2.208-4.172-3.448
	c2.672-0.949,5.25-1.601,7.836-2.271c1.284,0.983,2.519,1.929,3.92,3.001C144.074,78.926,141.473,79.295,138.868,80.101z"/>
<path fill-rule="evenodd" clip-rule="evenodd" fill="#faf0e5" class="fill" d="M73.277,80.934c2.855-0.595,5.354-1.115,7.89-1.642
	c1.079,1.207,2.078,2.324,3.255,3.643c-2.584,0.76-4.924,1.447-7.391,2.173C75.849,83.792,74.689,82.504,73.277,80.934z"/>
<path fill-rule="evenodd" clip-rule="evenodd" fill="#faf0e5" class="fill" d="M128.512,71.702c-0.822-0.659-1.488-1.192-2.153-1.727
	c-0.66-0.532-1.317-1.063-2.177-1.757c2.692-0.777,5.183-1.495,7.612-2.197c1.537,1.141,2.905,2.154,4.507,3.344
	C133.517,70.201,130.995,70.957,128.512,71.702z"/>
<path fill-rule="evenodd" clip-rule="evenodd" fill="#faf0e5" class="fill" d="M97.222,85.697c-2.474-0.238-4.388,1.371-6.676,1.936
	c-1.243-1.3-2.445-2.559-3.805-3.981c2.333-0.879,4.499-1.621,6.927-2.05c1.191,1.258,2.389,2.524,3.586,3.791
	C97.243,85.493,97.233,85.595,97.222,85.697z"/>
<path fill-rule="evenodd" clip-rule="evenodd" fill="#faf0e5" class="fill" d="M146.533,67.896c1.578,0.974,2.99,1.842,4.696,2.893
	c-2.874,1.256-5.7,1.534-8.449,2.369c-1.212-1.001-2.411-1.993-3.806-3.144C141.561,68.994,144.069,68.559,146.533,67.896z"/>
<path fill-rule="evenodd" clip-rule="evenodd" fill="#faf0e5" class="fill" d="M84.184,72.442c1.161,1.34,2.37,2.736,3.649,4.214
	c-2.033,0.678-4.286,0.842-6.516,1.522c-1.297-1.376-2.547-2.702-3.952-4.191C79.608,73.182,81.678,72.811,84.184,72.442z"/>
<path fill-rule="evenodd" clip-rule="evenodd" fill="#faf0e5" class="fill" d="M103.234,79.368c0.518-0.19,0.728-0.297,0.952-0.345
	c2.139-0.46,4.279-0.908,6.599-1.398c1.156,1.17,2.341,2.367,3.64,3.683c-0.807,0.245-1.386,0.457-1.98,0.598
	c-1.708,0.404-3.422,0.782-5.256,1.196C105.944,81.928,104.685,80.738,103.234,79.368z"/>
<path fill-rule="evenodd" clip-rule="evenodd" fill="#faf0e5" class="fill" d="M139.033,81.418c0.919,0.803,1.913,1.671,3.147,2.75
	c-3.157,1.062-6.057,2.036-8.999,3.025c-0.986-0.845-1.917-1.643-2.856-2.447C131.119,83.994,137.087,81.713,139.033,81.418z"/>
<path fill-rule="evenodd" clip-rule="evenodd" fill="#faf0e5" class="fill" d="M127.213,61.043c2.437-0.591,4.542-1.102,6.543-1.586
	c1.841,1.192,3.509,2.272,5.375,3.48c-2.505,0.668-4.807,1.281-7.181,1.912C130.484,63.672,129.011,62.487,127.213,61.043z"/>
<path fill-rule="evenodd" clip-rule="evenodd" fill="#faf0e5" class="fill" d="M123.262,79.906c1.446,1.312,2.901,2.634,4.519,4.104
	c-2.331,0.716-4.402,1.352-6.518,2c-0.834-0.479-1.533-1.123-1.785-2.091c-0.25-0.962-0.642-1.781-1.941-2.344
	C119.645,80.96,121.384,80.454,123.262,79.906z"/>
<path fill-rule="evenodd" clip-rule="evenodd" fill="#faf0e5" class="fill" d="M55.763,73.842c-0.519-0.513-1.017-1.006-1.516-1.499
	c0.064-0.067,0.127-0.136,0.189-0.202c-0.109-0.743-0.219-1.486-0.353-2.394c2.241-0.501,4.451-0.997,6.814-1.524
	c0.948,1.057,1.901,2.122,3.05,3.404c-2.311-0.2-4.052,0.371-5.702,1.416C57.633,73.432,56.827,73.514,55.763,73.842z"/>
<path fill-rule="evenodd" clip-rule="evenodd" fill="#faf0e5" class="fill" d="M104.215,92.034c1.156,1.082,2.119,1.984,3.224,3.02
	c-2.59,0.854-5.002,1.778-7.468,1.926c-1.011-0.979-1.892-1.831-2.953-2.86C99.461,93.006,101.997,92.811,104.215,92.034z"/>
<path fill-rule="evenodd" clip-rule="evenodd" fill="#faf0e5" class="fill" d="M107.262,73.19c2.395-0.715,4.388-1.308,6.377-1.9
	c1.152,1.188,2.231,2.303,3.444,3.553c-2.043,0.548-4.063,1.09-6.06,1.625C109.785,75.389,108.657,74.406,107.262,73.19z"/>
<path fill-rule="evenodd" clip-rule="evenodd" fill="#faf0e5" class="fill" d="M51.102,79.991c-0.801-1.128-1.558-2.194-2.453-3.454
	c2.239-0.736,4.325-1.246,6.603-1.721c0.822,0.989,1.652,1.987,2.609,3.139C55.512,78.664,53.4,79.3,51.102,79.991z"/>
<path fill-rule="evenodd" clip-rule="evenodd" fill="#faf0e5" class="fill" d="M113.678,89.479c2.585-0.777,4.98-1.496,7.364-2.211
	c1,0.873,1.891,1.652,2.986,2.61c-2.671,0.952-5.159,1.734-7.218,2.217C115.608,91.091,114.709,90.339,113.678,89.479z"/>
<path fill-rule="evenodd" clip-rule="evenodd" fill="#faf0e5" class="fill" d="M117.167,62.57c-1.027-0.862-2.021-1.696-3.015-2.532
	c0.039-0.096,0.078-0.192,0.117-0.288c0.304-0.037,0.609-0.073,0.913-0.114c1.37-0.187,2.726-0.346,3.771-1.454
	c0.322-0.343,0.924-0.418,1.504-0.661c1.32,0.923,2.629,1.838,4.181,2.923C122.112,61.601,119.581,61.712,117.167,62.57z"/>
<path fill-rule="evenodd" clip-rule="evenodd" fill="#faf0e5" class="fill" d="M97.663,75.541c1.006,0.961,1.929,1.843,3.063,2.929
	c-2.478,0.621-4.708,1.179-7.1,1.778c-0.937-0.897-1.913-1.829-3.119-2.983C93.071,76.646,95.352,76.097,97.663,75.541z"/>
<path fill-rule="evenodd" clip-rule="evenodd" fill="#faf0e5" class="fill" d="M107.052,65.468c-2.34,0.575-4.352,1.07-6.442,1.585
	c-1.117-1.028-2.208-2.034-3.39-3.122c2.357-0.503,4.468-0.954,6.687-1.428C104.839,63.381,105.823,64.309,107.052,65.468z"/>
<path fill-rule="evenodd" clip-rule="evenodd" fill="#faf0e5" class="fill" d="M72.502,70.384c0.969,0.975,1.828,1.839,2.908,2.926
	c-2.503,0.653-4.728,1.235-7.067,1.847c-0.764-0.867-1.532-1.736-2.446-2.771C68.26,71.669,70.369,71.029,72.502,70.384z"/>
<path fill-rule="evenodd" clip-rule="evenodd" fill="#faf0e5" class="fill" d="M91.083,69.404c-2.414,0.754-4.518,1.411-6.636,2.071
	c-0.968-0.987-1.828-1.864-2.768-2.821c0.96-0.694,2.087-0.662,3.074-1.019c0.981-0.355,1.977-0.675,3.138-1.067
	C88.896,67.46,89.938,68.386,91.083,69.404z"/>
<path fill-rule="evenodd" clip-rule="evenodd" fill="#faf0e5" class="fill" d="M104.157,61.173c-0.939-0.793-1.728-1.458-2.682-2.263
	c1.322-0.352,2.455-0.63,3.57-0.959c1.141-0.335,2.264-0.72,3.521-1.124c0.896,0.693,1.816,1.404,3.024,2.34
	C108.888,59.896,106.538,60.529,104.157,61.173z"/>
<path fill-rule="evenodd" clip-rule="evenodd" fill="#faf0e5" class="fill" d="M99.113,107.428c0.167-1.096,0.935-1.617,1.8-1.884
	c1.401-0.432,2.836-0.786,4.281-1.038c1.095-0.191,1.615,0.203,2.061,1.21C105.098,108.44,101.049,109.364,99.113,107.428z"/>
<path fill-rule="evenodd" clip-rule="evenodd" fill="#faf0e5" class="fill" d="M88.152,65.4c-0.456-0.424-0.833-0.775-1.112-1.035
	c-0.241-0.752-0.44-1.374-0.681-2.125c1.896-0.379,3.82-0.764,5.848-1.167c0.804,0.724,1.599,1.439,2.623,2.362
	C92.479,64.128,90.371,64.748,88.152,65.4z"/>
<path fill-rule="evenodd" clip-rule="evenodd" fill="#faf0e5" class="fill" d="M70.302,66.292c1.925-0.429,3.851-0.858,5.89-1.312
	c0.854,0.794,1.708,1.59,2.616,2.436c-2.049,0.675-3.947,1.302-5.942,1.96c-0.928-0.909-1.824-1.79-2.72-2.671
	C70.198,66.567,70.25,66.43,70.302,66.292z"/>
<path fill-rule="evenodd" clip-rule="evenodd" fill="#faf0e5" class="fill" d="M44.958,71.218c-0.683-0.937-1.316-1.805-2.083-2.857
	c1.221-0.32,2.25-0.601,3.283-0.856c1.014-0.251,2.033-0.479,3.214-0.752c0.595,0.765,1.22,1.57,1.929,2.483
	C49.134,69.913,47.153,70.531,44.958,71.218z"/>
<path fill-rule="evenodd" clip-rule="evenodd" fill="#faf0e5" class="fill" d="M86.607,110.772c-2.064,1.829-6.177,2.429-8.586,1.175
	c0.242-0.292,0.409-0.641,0.686-0.807c1.92-1.148,3.976-1.79,6.243-1.474C85.668,109.768,86.315,110.02,86.607,110.772z"/>
<path fill-rule="evenodd" clip-rule="evenodd" fill="#faf0e5" class="fill" d="M110.282,84.862c0.88-1.192,2.144-1.554,3.349-1.916
	c0.898-0.271,1.874-0.304,2.82-0.375c0.761-0.059,1.418,0.16,1.677,1.09c-0.15,0.185-0.283,0.468-0.503,0.597
	c-0.848,0.487-1.731,0.87-2.545,1.465C113.912,86.578,111.685,86.082,110.282,84.862z"/>
<path fill-rule="evenodd" clip-rule="evenodd" fill="#faf0e5" class="fill" d="M144.056,85.693c0.414,0.432,0.731,0.764,1.066,1.114
	c-0.433,1.115-1.291,1.568-2.282,1.805c-1.133,0.268-2.281,0.476-3.886,0.804c-0.856-0.082-0.9-0.098-1.676-0.756
	c0.013-0.73,0.568-1.035,1.101-1.34C140.103,86.333,142.024,86.063,144.056,85.693z"/>
<path fill-rule="evenodd" clip-rule="evenodd" fill="#faf0e5" class="fill" d="M76.263,63.908c-0.644-0.635-1.309-1.29-2.229-2.198
	c1.435-0.328,2.479-0.552,3.514-0.805c1.057-0.258,2.106-0.544,3.298-0.854c0.601,0.59,1.227,1.203,2.057,2.017
	C80.581,62.711,78.516,63.283,76.263,63.908z"/>
<path fill-rule="evenodd" clip-rule="evenodd" fill="#faf0e5" class="fill" d="M160.153,76.951c-1.925,1.602-4.147,2.098-6.579,1.959
	c-0.595-0.033-1.154-0.062-1.298-0.79C153.56,75.881,158.656,75.051,160.153,76.951z"/>
<path fill-rule="evenodd" clip-rule="evenodd" fill="#faf0e5" class="fill" d="M127.785,79.604c1.516-1.173,3.213-1.642,4.984-1.775
	c0.933-0.069,1.919,0.097,2.432,1.342c-0.337,0.272-0.646,0.643-1.042,0.818c-1.682,0.749-3.456,1.054-5.296,0.908
	C128.149,80.841,127.704,80.51,127.785,79.604z"/>
<path fill-rule="evenodd" clip-rule="evenodd" fill="#faf0e5" class="fill" d="M92.387,59.898c-0.656-0.549-1.229-1.029-1.954-1.635
	c2.104-0.885,4.202-1.178,6.304-1.852c0.727,0.596,1.477,1.209,2.493,2.04C96.706,58.985,94.54,59.443,92.387,59.898z"/>
<path fill-rule="evenodd" clip-rule="evenodd" fill="#faf0e5" class="fill" d="M164.183,89.252c-2.071,1.68-4.386,2.107-6.793,2.203
	c-0.4,0.017-0.813-0.282-1.238-0.442c0.283-1.017,0.92-1.44,1.655-1.666c1.321-0.407,2.66-0.761,4.005-1.075
	C162.707,88.061,163.493,88.296,164.183,89.252z"/>
<path fill-rule="evenodd" clip-rule="evenodd" fill="#faf0e5" class="fill" d="M66.046,63.686c0.611,0.668,1.085,1.188,1.689,1.849
	c-2.146,0.604-4.119,1.161-6.17,1.737c-0.671-0.636-1.273-1.207-2.127-2.019C61.809,64.689,63.893,64.195,66.046,63.686z"/>
<path fill-rule="evenodd" clip-rule="evenodd" fill="#faf0e5" class="fill" d="M127.4,92.142c-1.841,1.912-6.192,2.652-7.733,1.312
	C121.297,91.167,125.93,90.38,127.4,92.142z"/>
<path fill-rule="evenodd" clip-rule="evenodd" fill="#faf0e5" class="fill" d="M69.026,101.036c0.971-1.287,4.806-2.073,7.217-1.485
	c0.076,0.27,0.172,0.604,0.235,0.83C75.567,101.966,70.731,102.35,69.026,101.036z"/>
<path fill-rule="evenodd" clip-rule="evenodd" fill="#faf0e5" class="fill" d="M125.356,100.28c-0.374,0.276-0.69,0.661-1.086,0.775
	c-1.632,0.482-3.279,0.912-4.938,1.293c-0.54,0.123-1.146,0.092-1.614-0.63c0.927-1.439,2.515-1.823,4.016-2.211
	C123.744,98.992,124.258,99.164,125.356,100.28z"/>
<path fill-rule="evenodd" clip-rule="evenodd" fill="#faf0e5" class="fill" d="M91.192,102.087c-0.019,0.361-0.035,0.675-0.05,0.948
	c-2.416,1.245-6.045,1.544-7.57,0.654C84.754,102.063,88.788,101.158,91.192,102.087z"/>
<path fill-rule="evenodd" clip-rule="evenodd" fill="#faf0e5" class="fill" d="M120.749,56.362c-0.74-0.547-1.439-1.063-2.405-1.776
	c2.303-0.355,4.644,0.424,5.754-2.196c1.012,0.785,1.855,1.44,2.84,2.204C124.753,55.219,122.764,55.787,120.749,56.362z"/>
<path fill-rule="evenodd" clip-rule="evenodd" fill="#faf0e5" class="fill" d="M99.271,86.966c-0.068,0.58-0.116,0.989-0.161,1.368
	c-2.16,0.876-4.961,1.154-6.877,0.642c0.128-0.29,0.17-0.67,0.375-0.809C94.596,86.826,96.772,86.453,99.271,86.966z"/>
<path fill-rule="evenodd" clip-rule="evenodd" fill="#faf0e5" class="fill" d="M142.844,96.603c-0.588,0.375-0.981,0.737-1.444,0.9
	c-1.242,0.438-2.498,0.862-3.781,1.149c-0.766,0.172-1.631,0.188-2.171-0.634C136.629,96.132,140.607,95.263,142.844,96.603z"/>
<path fill-rule="evenodd" clip-rule="evenodd" fill="#faf0e5" class="fill" d="M107.557,53.854c2.045-0.397,4.081-0.791,6.125-1.187
	c0.449,0.361,0.837,0.676,1.236,0.999c-2.104,0.657-4.081,1.276-6.139,1.921C108.287,55.242,107.453,55.147,107.557,53.854z"/>
<path fill-rule="evenodd" clip-rule="evenodd" fill="#faf0e5" class="fill" d="M77.921,113.507c1.654,0,3.214,0.145,4.735-0.042
	c1.466-0.179,2.892-0.696,4.514-1.112c-0.345,1.099-0.994,1.632-1.784,1.896c-1.966,0.654-3.984,0.89-6.026,0.347
	C78.779,114.441,78.193,114.244,77.921,113.507z"/>
<path fill-rule="evenodd" clip-rule="evenodd" fill="#faf0e5" class="fill" d="M99.734,54.414c-0.678,0.249-1.344,0.537-2.036,0.736
	c-1.542,0.442-3.093,0.854-4.648,1.251c-0.964,0.246-1.938,0.462-2.914,0.655c-0.607,0.119-1.231,0.187-1.834-0.527
	c3.841-0.844,7.578-1.664,11.313-2.485C99.654,54.168,99.694,54.291,99.734,54.414z"/>
<path fill-rule="evenodd" clip-rule="evenodd" fill="#faf0e5" class="fill" d="M117.78,103.558c2.054-0.364,3.953-0.698,5.885-1.04
	c0.426-0.24,0.896-0.507,1.512-0.854c0.146,0.763-0.205,1.089-0.525,1.396c-1.193,1.148-5.01,1.7-6.493,0.944
	C118.044,103.945,117.978,103.795,117.78,103.558z"/>
<path fill-rule="evenodd" clip-rule="evenodd" fill="#faf0e5" class="fill" d="M124.026,50.151c2.477,1.66,4.819,3.229,7.161,4.799
	c-0.04,0.087-0.079,0.173-0.118,0.261c-0.821-0.082-1.644-0.163-2.533-0.25c-0.658-1.273-1.884-1.926-3.027-2.689
	C124.83,51.817,123.977,51.445,124.026,50.151z"/>
<path fill-rule="evenodd" clip-rule="evenodd" fill="#faf0e5" class="fill" d="M116.647,50.542c-0.415,0.23-0.806,0.577-1.25,0.675
	c-2.789,0.608-5.589,1.179-8.394,1.717c-0.404,0.078-0.855-0.096-1.28-0.408c0.211-0.097,0.413-0.241,0.635-0.284
	c3.386-0.668,6.774-1.322,10.163-1.981C116.563,50.354,116.605,50.448,116.647,50.542z"/>
<path fill-rule="evenodd" clip-rule="evenodd" fill="#faf0e5" class="fill" d="M58.883,63.359c2.64-0.525,5.281-1.052,7.941-1.581
	c0.091,0.794-0.429,0.833-0.807,0.946c-2.702,0.812-6.391,1.306-7.104,0.972C58.903,63.584,58.893,63.472,58.883,63.359z"/>
<path fill-rule="evenodd" clip-rule="evenodd" fill="#faf0e5" class="fill" d="M82.826,58.429c-0.173,0.124-0.33,0.318-0.521,0.361
	c-2.734,0.604-5.472,1.193-8.213,1.763c-0.131,0.028-0.303-0.146-0.696-0.353c3.272-0.739,6.295-1.42,9.319-2.103
	C82.753,58.209,82.79,58.319,82.826,58.429z"/>
<path fill-rule="evenodd" clip-rule="evenodd" fill="#faf0e5" class="fill" d="M120.871,95.464c2.13-0.448,4.274-0.9,6.338-1.335
	c-0.456,0.739-0.556,0.824-3.008,1.41C123.079,95.806,121.911,96.047,120.871,95.464z"/>
<path fill-rule="evenodd" clip-rule="evenodd" fill="#faf0e5" class="fill" d="M79.521,72.248c0.562-0.876,1.051-1.639,1.603-2.496
	c0.689,0.312,1.175,1.003,1.74,1.823C81.677,71.814,80.632,72.025,79.521,72.248z"/>
<path fill-rule="evenodd" clip-rule="evenodd" fill="#faf0e5" class="fill" d="M120.365,50.553c-0.577,0.641-1.169,1.297-1.836,2.035
	c-0.463-0.212-0.867-0.395-1.363-0.621c0.192-0.369,0.254-0.683,0.445-0.82C118.084,50.809,119.819,50.49,120.365,50.553z"/>
<path fill-rule="evenodd" clip-rule="evenodd" fill="#faf0e5" class="fill" d="M159.229,92.489c1.688-0.578,3.351-1.146,5.01-1.716
	C163.904,92.077,161.516,92.907,159.229,92.489z"/>
<path fill-rule="evenodd" clip-rule="evenodd" fill="#faf0e5" class="fill" d="M84.349,105.384c2.116-0.251,4.274-0.506,6.434-0.758
	C89.728,105.525,85.822,105.972,84.349,105.384z"/>
<path fill-rule="evenodd" clip-rule="evenodd" fill="#faf0e5" class="fill" d="M151.202,79.638c-0.623-0.506-1.245-1.014-2.116-1.725
	c0.821-0.287,1.403-0.489,2.048-0.717c0.106,0.809,0.201,1.54,0.296,2.272C151.354,79.524,151.278,79.582,151.202,79.638z"/>
<path fill-rule="evenodd" clip-rule="evenodd" fill="#faf0e5" class="fill" d="M140.01,90.593c1.747-0.588,3.411-1.149,5.072-1.708
	C144.496,90.016,142.189,90.814,140.01,90.593z"/>
<path fill-rule="evenodd" clip-rule="evenodd" fill="#faf0e5" class="fill" d="M96.358,61.277c1.028-0.824,2.106-0.852,3.205-0.995
	C98.945,61.625,97.916,61.97,96.358,61.277z"/>
<path fill-rule="evenodd" clip-rule="evenodd" fill="#faf0e5" class="fill" d="M101.87,55.47c-0.468-0.174-0.849-0.314-1.337-0.496
	c0.802-0.935,1.697-1.287,3.084-1.259C102.932,54.402,102.421,54.916,101.87,55.47z"/>
<path fill-rule="evenodd" clip-rule="evenodd" fill="#faf0e5" class="fill" d="M93.718,90.394c1.777-0.207,3.554-0.412,5.331-0.616
	c-1.726,0.633-3.477,1.081-5.312,0.941C93.73,90.61,93.725,90.501,93.718,90.394z"/>
<path fill-rule="evenodd" clip-rule="evenodd" fill="#faf0e5" class="fill" d="M76.346,102.134c-2.125,1.266-4.403,1.167-6.708,0.793
	c1.154,0,2.321,0.103,3.46-0.03C74.196,102.77,75.265,102.398,76.346,102.134z"/>
<path fill-rule="evenodd" clip-rule="evenodd" fill="#faf0e5" class="fill" d="M130.681,82.018c1.299-0.315,2.599-0.632,3.897-0.946
	C133.524,82.264,132.153,82.293,130.681,82.018z"/>
<path fill-rule="evenodd" clip-rule="evenodd" fill="#faf0e5" class="fill" d="M95.551,65.659c-1.097,1.045-1.839,1.171-3.081,0.511
	C93.461,65.562,94.415,65.394,95.551,65.659z"/>
<path fill-rule="evenodd" clip-rule="evenodd" fill="#faf0e5" class="fill" d="M138.299,99.633c1.345-0.44,2.688-0.881,4.033-1.321
	C141.285,99.68,139.81,99.712,138.299,99.633z"/>
<path fill-rule="evenodd" clip-rule="evenodd" fill="#faf0e5" class="fill" d="M161.096,79.306c0.259-0.778,0.406-1.229,0.564-1.677
	c0.029-0.082,0.11-0.146,0.266-0.346c0.476,0.324,0.961,0.656,1.696,1.159C162.709,78.756,162.042,78.982,161.096,79.306z"/>
<path fill-rule="evenodd" clip-rule="evenodd" fill="#faf0e5" class="fill" d="M68.068,61.775c0.938-0.432,1.671-0.768,2.506-1.148
	C70.005,62.164,69.501,62.412,68.068,61.775z"/>
<path fill-rule="evenodd" clip-rule="evenodd" fill="#faf0e5" class="fill" d="M88.453,71.485c0.791-0.839,1.649-0.793,2.545-0.984
	C90.244,71.686,89.989,71.79,88.453,71.485z"/>
<path fill-rule="evenodd" clip-rule="evenodd" fill="#faf0e5" class="fill" d="M55.007,65.886c-0.969,0.982-1.76,0.584-2.507,0.613
	c-0.012-0.121-0.025-0.244-0.037-0.365C53.205,66.062,53.947,65.989,55.007,65.886z"/>
<path fill-rule="evenodd" clip-rule="evenodd" fill="#faf0e5" class="fill" d="M113.063,57.136c0.807-0.226,1.392-0.389,2.152-0.602
	C114.495,57.712,114.352,57.755,113.063,57.136z"/>
<path fill-rule="evenodd" clip-rule="evenodd" fill="#faf0e5" class="fill" d="M110.431,61.385c-0.658,0.668-1.03,1.42-2.066,0.965
	C108.789,61.521,109.517,61.516,110.431,61.385z"/>
<path fill-rule="evenodd" clip-rule="evenodd" fill="#faf0e5" class="fill" d="M108.347,63.686c0.868,0,1.623,0,2.46,0
	C109.756,64.445,109.41,64.448,108.347,63.686z"/>
<path fill-rule="evenodd" clip-rule="evenodd" fill="#faf0e5" class="fill" d="M125.241,57.114c0.646-0.589,1.09-0.959,1.846-0.523
	C126.755,57.479,126.189,57.478,125.241,57.114z"/>
<path fill-rule="evenodd" clip-rule="evenodd" fill="#faf0e5" class="fill" d="M156.234,80.137c0.854-0.715,1.873-0.89,3.194-0.995
	c-1.091,0.867-2.193,0.769-3.196,0.995H156.234z"/>
<path fill-rule="evenodd" clip-rule="evenodd" fill="#faf0e5" class="fill" d="M74.958,69.885c0.455-0.221,0.909-0.443,1.689-0.822
	c-0.324,0.641-0.495,0.979-0.699,1.382c-0.373-0.097-0.677-0.176-0.981-0.253C74.965,70.088,74.961,69.986,74.958,69.885z"/>
<path fill-rule="evenodd" clip-rule="evenodd" fill="#faf0e5" class="fill" d="M81.58,63.77c-0.412,0.551-0.707,1.338-1.711,0.878
	C80.246,63.918,80.883,63.783,81.58,63.77z"/>
<path fill-rule="evenodd" clip-rule="evenodd" fill="#faf0e5" class="fill" d="M59.197,73.644c0.473-0.212,0.945-0.425,1.692-0.761
	c-0.258,0.556-0.369,0.795-0.5,1.079c-0.372,0-0.739,0-1.104,0C59.256,73.855,59.227,73.749,59.197,73.644z"/>
<path fill-rule="evenodd" clip-rule="evenodd" fill="#faf0e5" class="fill" d="M106.408,108.674c-0.634,0.211-1.268,0.422-1.901,0.633
	c-0.03-0.083-0.061-0.166-0.091-0.25c0.6-0.238,1.2-0.476,1.8-0.713C106.28,108.454,106.344,108.564,106.408,108.674z"/>
<path fill-rule="evenodd" clip-rule="evenodd" fill="#faf0e5" class="fill" d="M116.578,86.379c0.424-0.374,0.848-0.749,1.271-1.123
	C117.902,86.191,117.324,86.391,116.578,86.379z"/>
<path fill-rule="evenodd" clip-rule="evenodd" fill="#faf0e5" class="fill" d="M48.896,71.153c0.38-0.067,0.759-0.136,1.228-0.22
	C49.749,71.648,49.749,71.648,48.896,71.153z"/>
<path fill-rule="evenodd" clip-rule="evenodd" fill="#faf0e5" class="fill" d="M65.755,67.633c-0.353,0.234-0.704,0.47-1.196,0.797
	c-0.117-1.114,0.532-0.993,1.018-1.076C65.635,67.446,65.696,67.539,65.755,67.633z"/>
<path fill-rule="evenodd" clip-rule="evenodd" fill="#faf0e5" class="fill" d="M53.835,63.867c-0.453,0.854-0.732,1.386-1.691,0.892
	C52.7,64.466,53.114,64.249,53.835,63.867z"/>
<path fill-rule="evenodd" clip-rule="evenodd" fill="#faf0e5" class="fill" d="M49.677,73.079c-0.344,0-0.688,0-1.121,0
	c0.096-0.188,0.148-0.383,0.202-0.383c0.305-0.002,0.609,0.044,0.914,0.074C49.674,72.874,49.676,72.977,49.677,73.079z"/>
<path fill-rule="evenodd" clip-rule="evenodd" fill="#faf0e5" class="fill" d="M84.134,58.411c0.33-0.204,0.659-0.408,0.988-0.614
	c0.074,0.103,0.147,0.207,0.221,0.31c-0.289,0.248-0.576,0.496-0.864,0.744C84.364,58.704,84.249,58.559,84.134,58.411z"/>
<path fill-rule="evenodd" clip-rule="evenodd" fill="#faf0e5" class="fill" d="M127.258,58.882c-0.238-0.059-0.478-0.118-0.715-0.177
	c0.007-0.061,0.016-0.121,0.023-0.182c0.245,0.012,0.49,0.024,0.736,0.037C127.287,58.667,127.272,58.775,127.258,58.882z"/>
<path fill-rule="evenodd" clip-rule="evenodd" fill="#faf0e5" class="fill" d="M156.232,80.137c-0.361,0-0.723,0-1.083,0
	c0-0.019,0.001-0.037,0.001-0.055c0.362,0.019,0.723,0.036,1.084,0.055H156.232z"/>
<path fill-rule="evenodd" clip-rule="evenodd" fill="#faf0e5" class="fill" d="M60.515,75.381c-0.345,0-0.689,0-1.033,0
	c-0.005-0.083-0.011-0.165-0.017-0.249c0.346-0.021,0.69-0.046,1.036-0.068C60.505,75.169,60.509,75.274,60.515,75.381z"/>
<path fill-rule="evenodd" clip-rule="evenodd" fill="#faf0e5" class="fill" d="M101.191,136.624c-2.675,1.658-5.761,0.668-8.563,1.652
	c-0.465-0.249-0.996-0.535-1.686-0.905c0.296-0.401,0.451-0.758,0.722-0.944c0.424-0.291,0.906-0.538,1.399-0.678
	c2.047-0.583,4.139-0.493,6.223-0.279C99.985,135.539,100.695,135.735,101.191,136.624z"/>
<path fill-rule="evenodd" clip-rule="evenodd" fill="#faf0e5" class="fill" d="M95.104,139.135c1.595-0.164,3.191-0.329,4.958-0.512
	C99.092,139.468,96.832,139.716,95.104,139.135z"/>
<path fill-rule="evenodd" clip-rule="evenodd" fill="#faf0e5" class="fill" d="M54.021,135.593c1.855-1.905,8.479-2.417,10.008-0.871
	c-0.453,0.807-1.288,0.913-2.057,1.008C59.373,136.048,56.755,136.8,54.021,135.593z"/>
<path fill-rule="evenodd" clip-rule="evenodd" fill="#faf0e5" class="fill" d="M54.194,136.973c3.347,1.098,6.566-0.143,10.072-0.387
	c-0.211,0.381-0.287,0.734-0.492,0.845c-0.751,0.398-1.515,0.89-2.329,1.03c-2.286,0.391-4.552,0.007-6.781-0.539
	c-0.231-0.058-0.388-0.416-0.58-0.636C54.121,137.182,54.157,137.077,54.194,136.973z"/>
<path fill-rule="evenodd" clip-rule="evenodd" fill="#faf0e5" class="fill" d="M134.332,140.334c-0.615,0.327-1.058,0.709-1.554,0.798
	c-1.303,0.233-2.628,0.352-3.948,0.493c-0.756,0.08-1.527,0.054-2.272,0.183c-1.154,0.2-1.859-0.343-2.606-1.356
	c0.57-0.28,0.994-0.576,1.462-0.702c2.318-0.627,4.681-0.764,7.068-0.533C133.182,139.284,133.693,139.649,134.332,140.334z"/>
<path fill-rule="evenodd" clip-rule="evenodd" fill="#faf0e5" class="fill" d="M124.615,143.088c3.207,0.604,6.216-0.617,9.411-0.865
	c-0.273,1.142-1.208,1.289-1.944,1.438c-1.964,0.399-3.965,0.379-5.943,0.053C125.61,143.627,125.121,143.303,124.615,143.088z"/>
<path fill-rule="evenodd" clip-rule="evenodd" fill="#faf0e5" class="fill" d="M79.681,145.35c-1.63,1.926-7.411,2.422-10.231,0.956
	c0.491-0.331,0.852-0.734,1.288-0.846c2.511-0.637,5.068-0.872,7.654-0.601C78.781,144.899,79.148,145.141,79.681,145.35z"/>
<path fill-rule="evenodd" clip-rule="evenodd" fill="#faf0e5" class="fill" d="M79.587,147.441c-0.273,1.104-1.059,1.264-1.787,1.44
	c-1.802,0.435-3.608,0.241-5.406-0.061c-0.81-0.136-1.613-0.312-2.404-0.658C73.194,148.66,76.305,148.153,79.587,147.441z"/>
<path fill-rule="evenodd" clip-rule="evenodd" fill="#faf0e5" class="fill" d="M100.385,146.969c1.418-0.975,2.933-1.181,4.457-1.256
	c1.285-0.064,2.578-0.033,3.866,0.016c0.757,0.027,1.518,0.156,1.865,0.999C108.246,148.695,102.051,148.875,100.385,146.969z"/>
<path fill-rule="evenodd" clip-rule="evenodd" fill="#faf0e5" class="fill" d="M100.608,148.93c3.265,0.859,6.473,0.525,9.73-0.341
	c0.187,0.651-0.156,1.019-0.658,1.22c-2.807,1.121-5.639,1.23-8.466,0.079c-0.287-0.116-0.493-0.434-0.737-0.656
	C100.521,149.131,100.565,149.03,100.608,148.93z"/>
<path fill-rule="evenodd" clip-rule="evenodd" fill="#faf0e5" class="fill" d="M141.103,130.113c0.091,0.779-0.528,0.939-1.044,1.141
	c-1.582,0.614-3.234,0.75-4.912,0.632c-0.662-0.047-1.319-0.144-1.979-0.172c-0.646-0.028-1.228-0.143-1.596-0.741
	C132.925,128.994,138.22,128.518,141.103,130.113z"/>
<path fill-rule="evenodd" clip-rule="evenodd" fill="#faf0e5" class="fill" d="M131.658,132.674c3.197,0.736,6.286,0.601,9.397-0.439
	c-0.008,0.938-0.471,1.291-1.083,1.499c-2.517,0.853-5.045,0.853-7.572,0.049C131.974,133.647,131.983,133.616,131.658,132.674z"/>
<path fill-rule="evenodd" clip-rule="evenodd" fill="#faf0e5" class="fill" d="M17.613,71.821c1.154,0,2.273,0.026,3.39-0.009
	c1.129-0.033,2.255-0.128,3.552-0.207c-0.498,0.757-1.075,0.944-1.771,0.979C19.408,72.751,18.462,72.624,17.613,71.821z"/>
<path fill-rule="evenodd" clip-rule="evenodd" fill="#faf0e5" class="fill" d="M20.028,75.08c-0.251-0.28-0.526-0.588-0.821-0.917
	c0.631-0.81,1.413-0.409,2.21-0.468c0.188,0.428,0.371,0.843,0.61,1.385C21.321,75.08,20.766,75.08,20.028,75.08z"/>
<path fill-rule="evenodd" clip-rule="evenodd" fill="#faf0e5" class="fill" d="M13.767,55.455c-1.782,0.104-3.54-0.103-5.279-0.655
	c0.27-0.023,0.542-0.082,0.81-0.062c1.505,0.108,3.009,0.235,4.513,0.355C13.796,55.215,13.781,55.335,13.767,55.455z"/>
<path fill-rule="evenodd" clip-rule="evenodd" fill="#faf0e5" class="fill" d="M10.048,57.386c-0.056-0.338-0.086-0.522-0.132-0.804
	c0.641,0,1.233,0,1.922,0c0.047,0.243,0.098,0.501,0.188,0.973C11.284,57.492,10.663,57.438,10.048,57.386z"/>
<path fill-rule="evenodd" clip-rule="evenodd" fill="#faf0e5" class="fill" d="M111.996,135.295c2.179-1.713,7.382-1.934,9.271-0.594
	c-0.403,0.678-1.083,0.917-1.777,0.973c-1.938,0.155-3.88,0.282-5.823,0.313C113.184,135.995,112.694,135.598,111.996,135.295z"/>
<path fill-rule="evenodd" clip-rule="evenodd" fill="#faf0e5" class="fill" d="M14.214,63.388c2.06,0,4.004,0,5.985,0
	C19.196,64.182,15.731,64.201,14.214,63.388z"/>
<path fill-rule="evenodd" clip-rule="evenodd" fill="#faf0e5" class="fill" d="M15.768,65.48c0.806-0.614,1.652-0.368,2.493-0.271
	C17.516,66.173,16.601,65.518,15.768,65.48z"/>
<path fill-rule="evenodd" clip-rule="evenodd" fill="#faf0e5" class="fill" d="M31.955,56.545c-1.9,0.729-3.812,0.639-5.729,0.323
	c-0.001-0.107-0.003-0.217-0.005-0.323C28.133,56.545,30.045,56.545,31.955,56.545z"/>
<path fill-rule="evenodd" clip-rule="evenodd" fill="#faf0e5" class="fill" d="M27.14,58.307c0.412-0.029,0.824-0.057,1.321-0.092
	c0.108,0.244,0.21,0.477,0.436,0.984c-0.779-0.204-1.31-0.344-1.841-0.483C27.084,58.579,27.111,58.442,27.14,58.307z"/>
</svg>
