<svg version="1.1" id="svg" xmlns="http://www.w3.org/2000/svg" xmlns:xlink="http://www.w3.org/1999/xlink" x="0px" y="0px"
	 width="200px" height="200px" viewBox="0 0 200 200" enable-background="new 0 0 200 200" xml:space="preserve">
<path class="stroke" fill="#531863"  fill-rule="evenodd" clip-rule="evenodd" d="M99.298,97.391c0.071-0.103,0.195-0.315,0.349-0.502
	c1.976-2.433,4.687-3.337,7.665-3.703c0.716-0.088,1.424-0.251,2.135-0.382c0.668-0.123,1.332-0.32,2.005-0.36
	c4.416-0.265,8.833-0.567,13.254-0.717c3.525-0.121,6.981,0.334,10.125,2.021c2.382-0.661,4.689-1.438,7.057-1.925
	c2.798-0.575,5.612-1.116,8.522-0.871c2.171,0.183,4.364,0.201,6.545,0.149c2.322-0.055,4.637,0.217,6.744,1.028
	c3.08,1.186,6.214,2.65,7.306,6.165c0.896,2.885,1.353,5.885,0.457,8.792c-0.663,0.847-1.264,1.607-1.854,2.373
	c-0.979,1.265-2.258,2.198-3.699,2.77c-3.885,1.542-7.801,2.98-12.049,3.274c-2.705,0.188-5.387,0.733-8.092,0.928
	c-3.08,0.224-6.142-0.175-9.067-1.146c-1.452-0.482-2.875-1.218-3.861-2.552c-1.648,0.107-3.305,0.104-4.925,0.344
	c-4.342,0.644-8.712,0.769-13.085,0.96c-2.421,0.104-4.817,0.482-7.263,0.188c-1.976-0.239-3.816-0.679-5.348-2.071
	c-3.352,1.02-6.742,0.973-10.154,0.739c-1.737-0.119-3.488-0.034-5.224-0.158c-1.304-0.093-2.591-0.404-3.892-0.553
	c-1.35-0.154-2.705-0.261-4.062-0.329c-1.015-0.051-2.034-0.011-3.318-0.011c-0.036,0.027-0.324,0.205-0.579,0.424
	c-1.438,1.239-3.03,1.916-4.99,2.071c-4.134,0.327-8.255,0.321-12.388,0.156c-2.377-0.096-4.76-0.084-7.133-0.241
	c-2.744-0.182-5.308-1.128-7.865-2.075c-1.902-0.704-2.754-2.244-3.151-4.04c-0.669-3.017-0.792-6.056-0.085-9.11
	c0.764-3.297,2.512-5.723,5.718-7.032c5.765-2.355,11.747-3.247,17.952-2.905c4.29,0.235,8.349,1.335,12.177,3.199
	c1.319,0.643,2.403,1.77,3.776,2.812C85.509,95.836,92.307,96.603,99.298,97.391z M140.53,99.708
	c0.787,2.652,1.375,5.287,0.286,8.152c0.997,0.296,1.849,0.65,2.734,0.786c1.342,0.206,2.705,0.287,4.062,0.366
	c0.772,0.046,1.565,0.079,2.322-0.045c3.164-0.521,6.324-1.078,9.473-1.683c0.897-0.174,1.8-0.464,2.616-0.868
	c0.573-0.284,1.095-0.789,1.479-1.313c1.045-1.421,0.699-3.057,0.631-4.521c-0.572-1.145-1.394-1.831-2.471-2.104
	c-1.694-0.429-3.397-0.88-5.125-1.101c-3.984-0.505-7.968-0.308-11.898,0.511C143.183,98.192,141.733,98.64,140.53,99.708z
	 M66.335,106.566c-1.796-3.574-0.174-6.427,1.83-9.271c-0.461-0.134-0.771-0.273-1.094-0.31c-2.744-0.297-5.456-0.795-8.263-0.31
	c-2.286,0.396-4.646,0.34-6.958,0.61c-1.872,0.218-3.541,0.962-4.1,2.967c-0.429,1.54-0.495,3.146-0.162,4.776
	c0.479,0.228,0.911,0.438,1.348,0.64c1.72,0.791,3.609,0.709,5.415,1.064C58.323,107.514,62.264,107.019,66.335,106.566z
	 M129.322,105.873c-1.067-2.329-0.922-4.567-0.405-6.762c-3.182-1.794-18.071-0.104-20.775,1.641
	c1.038,0.907,2.306,1.494,2.636,3.086c0.314,1.518-0.371,2.721-0.715,4.283c1.481-0.074,2.826-0.07,4.153-0.223
	c4.286-0.495,8.566-1.041,12.847-1.584C127.763,106.226,128.451,106.047,129.322,105.873z M98.451,105.658
	c-0.017-0.133-0.035-0.268-0.053-0.401c-6.484-0.298-12.917-1.52-19.521-0.972c-0.017,0.376-0.032,0.692-0.054,1.146
	c1.119,0.165,2.159,0.379,3.21,0.46c1.984,0.157,3.976,0.22,5.962,0.353c3.063,0.207,6.122,0.247,9.165-0.234
	C97.599,105.939,98.021,105.777,98.451,105.658z"/>
<path fill-rule="evenodd" clip-rule="evenodd" fill="#faae19" class="fill" d="M75.505,95.315c-2.012,0.205-3.711,0.485-5.441-0.518
	c-1.007-0.582-2.304-0.771-3.496-0.905c-2.652-0.297-5.32-0.601-7.984-0.62c-3.252-0.023-6.491,0.29-9.607,1.403
	c-2.888,1.033-5.239,4.817-3.854,8.662c0.115,0.32,0.303,0.624,0.361,0.953c0.42,2.306,2.135,3.058,4.128,3.489
	c3.729,0.807,7.538,0.778,11.315,0.998c1.923,0.112,3.87-0.261,5.809-0.367c1.834-0.103,3.171-1.073,4.298-2.346
	c2.49-0.411,2.664-0.388,3.926,0.57c-0.096,0.243-0.135,0.567-0.313,0.76c-1.351,1.465-2.721,3.005-4.809,3.292
	c-1.722,0.237-3.484,0.205-5.229,0.226c-1.406,0.016-2.816-0.036-4.221-0.119c-3.445-0.204-6.891-0.4-10.329-0.69
	c-1.637-0.139-3.267-0.356-4.817-1.052c-0.986-0.442-1.72-1.05-2.296-1.925c-1.45-2.2-2.117-4.57-1.663-7.21
	c0.083-0.477,0.111-0.966,0.136-1.452c0.101-1.998,1.058-3.485,2.906-4.166c2.547-0.938,5.125-1.858,7.764-2.458
	c3.08-0.698,6.248-0.78,9.424-0.75c4.151,0.039,8.088,0.967,11.957,2.339C74.326,93.733,74.971,94.273,75.505,95.315z"/>
<path fill-rule="evenodd" clip-rule="evenodd" fill="#faae19" class="fill" d="M68.378,102.117c-0.943-1.666-0.696-2.63,0.979-3.372
	c0.837-0.37,1.738-0.713,2.636-0.8c2.173-0.21,4.365-0.405,6.542-0.349c6.272,0.165,12.473,1.086,18.683,1.919
	c2.898,0.388,5.748,0.915,8.549,1.734c0.457,0.135,0.905,0.296,1.45,0.475c-0.095,0.433-0.172,0.782-0.279,1.273
	c-2.348-0.215-4.63-0.316-6.876-0.657c-3.267-0.495-6.523-0.942-9.836-1.053c-2.807-0.093-5.599-0.538-8.404-0.662
	c-1.834-0.08-3.684,0.103-5.521,0.23c-1.846,0.128-3.629,0.558-5.371,1.205C69.905,102.441,69.434,102.371,68.378,102.117z"/>
<path fill-rule="evenodd" clip-rule="evenodd" fill="#faae19" class="fill" d="M135.266,104.446c1.261-0.458,2.375-1.029,3.681-0.313
	c0.186,1.05,0.013,2.021-0.76,2.896c-0.438,0.498-0.76,1.095-1.221,1.773c-4.274,1.667-8.894,2.088-13.575,2.203
	c-2.475,0.062-4.946,0.361-7.419,0.362c-2.957,0.001-5.92-0.122-8.867-0.351c-1.283-0.101-2.493-0.673-3.307-1.722
	c0.521-1.482,0.732-1.658,2.08-1.786c0.506,0.598,1.035,1.222,1.57,1.855c2.646,0.057,5.242,0.121,7.854-0.274
	c2.056-0.312,4.169-0.222,6.246-0.419c2.656-0.252,5.312-0.555,7.951-0.947C131.862,107.374,134.039,106.583,135.266,104.446z"/>
<path fill-rule="evenodd" clip-rule="evenodd" fill="#faae19" class="fill" d="M139.716,111.692c0.812-0.564,1.625-1.129,2.346-1.631
	c1.042,0.251,1.894,0.437,2.735,0.662c2.066,0.55,4.046-0.107,6.053-0.407c2.544-0.377,5.082-0.83,7.641-1.071
	c2.549-0.242,4.644-1.27,6.425-3.052c0.75-0.75,0.863-1.72,0.918-2.693c0.044-0.775,0.072-1.531,0.632-2.154
	c1.087,1.025,1.436,3.641,0.841,6.414c-1.607,1.77-3.789,2.724-6.092,3.342c-2.477,0.666-5.002,1.181-7.528,1.632
	c-3.522,0.628-7.057,0.575-10.579-0.121c-1.078-0.214-2.179-0.314-3.269-0.466C139.797,111.995,139.757,111.843,139.716,111.692z"/>
<path fill-rule="evenodd" clip-rule="evenodd" fill="#faae19" class="fill" d="M133.216,99.916c-0.18-0.034-0.634-0.122-0.986-0.19
	c-0.736-1.015-0.406-1.883-0.021-3.009c1.083-0.5,2.262-1.203,3.536-1.599c2.545-0.789,5.105-1.693,7.726-2.037
	c5.339-0.703,10.721-1.262,16.118-0.624c2.575,0.304,5.048,1.017,7.156,2.643c0.298,0.229,0.562,0.505,0.924,0.832
	c-0.667,0.638-1.383,0.512-2.146,0.479c-2.105-1.66-4.552-2.39-7.274-2.343c-2.423,0.043-4.855-0.146-7.269,0.005
	c-2.169,0.136-4.346,0.47-6.469,0.942c-2.257,0.502-4.526,1.096-6.655,1.977C136.275,97.646,134.912,98.82,133.216,99.916z"/>
<path fill-rule="evenodd" clip-rule="evenodd" fill="#faae19" class="fill" d="M133.249,94.418c-1.215,0.65-2.203,0.801-3.322,0.631
	c-1.53-0.229-3.087-0.305-4.637-0.387c-2.037-0.108-4.084-0.284-6.116-0.198c-1.931,0.083-3.88,0.326-5.765,0.75
	c-3.121,0.702-6.213,1.562-9.101,3.003c-0.257,0.128-0.548,0.188-0.888,0.3c-0.641-0.225-1.312-0.459-2.021-0.707
	c0.457-0.973,1.176-1.419,2.031-1.708c4.168-1.407,8.418-2.334,12.845-2.385c3.599-0.042,7.195-0.26,10.793-0.244
	c1.786,0.008,3.573,0.356,5.356,0.571C132.642,94.07,132.843,94.229,133.249,94.418z"/>
<path fill-rule="evenodd" clip-rule="evenodd" fill="#faae19" class="fill" d="M99.26,107.778c0.029,0.379,0.05,0.643,0.069,0.89
	c-3.219,0.987-17.648,0.782-21.329-0.301c0.037-0.246,0.077-0.503,0.13-0.847c2.045,0,4.029-0.13,5.989,0.026
	c4.785,0.382,9.561,0.839,14.358,0.234C98.668,107.757,98.862,107.778,99.26,107.778z"/>
</svg>
