<svg version="1.1" id="svg" xmlns="http://www.w3.org/2000/svg" xmlns:xlink="http://www.w3.org/1999/xlink" x="0px" y="0px"
	 width="200px" height="200px" viewBox="0 0 200 200" enable-background="new 0 0 200 200" xml:space="preserve">
<path class="stroke" fill="#580f12"  fill-rule="evenodd" clip-rule="evenodd" d="M98.595,75.052c0.043-0.728,0.055-1.5,0.142-2.265
	c0.149-1.308,0.337-2.61,0.528-3.913c0.079-0.541,0.453-0.79,0.974-0.855c0.124-0.016,0.244-0.061,0.375-0.095
	c-0.243-0.413-0.478-0.812-0.708-1.211c-0.657-1.136-0.666-3.309,0.496-4.563c0.897-0.969,1.941-1.706,3.207-1.906
	c1.276-0.203,2.647-0.278,3.803,0.5c1.292,0.87,2.107,2.059,2.223,3.697c0.102,1.451-0.593,2.515-1.454,3.546
	c0.006,0.012,0.012,0.047,0.028,0.053c0.809,0.324,0.849,1.035,0.93,1.759c0.182,1.636,0.405,3.268,0.615,4.902
	c0.015,0.121,0.054,0.239,0.083,0.366c0.25,0.06,0.473,0.105,0.691,0.166c1.674,0.462,3.316,1.012,4.864,1.812
	c0.9,0.466,1.841,0.865,2.695,1.404c0.766,0.484,1.449,1.104,2.148,1.688c1.146,0.958,2.093,2.097,2.944,3.32
	c0.512,0.737,1.12,1.414,1.57,2.186c0.834,1.432,1.582,2.906,2.163,4.472c0.424,1.145,0.883,2.27,1.101,3.474
	c0.123,0.673,0.2,1.354,0.295,2.033c0.086,0.612,0.202,1.224,0.248,1.84c0.113,1.526-0.017,3.043-0.302,4.541
	c-0.277,1.457-0.572,2.911-0.903,4.356c-0.382,1.665-1.051,3.222-1.917,4.692c-0.707,1.202-1.392,2.419-2.146,3.592
	c-0.484,0.754-1.053,1.456-1.621,2.15c-0.479,0.586-0.945,1.214-1.533,1.674c-1.214,0.95-2.453,1.89-3.78,2.666
	c-1.47,0.861-3.016,1.614-4.592,2.263c-1.13,0.465-2.364,0.683-3.605,0.713c-1.598,0.039-3.197,0.101-4.795,0.073
	c-1.049-0.019-2.097-0.171-3.145-0.273c-0.513-0.05-1.028-0.104-1.535-0.193c-1.866-0.33-3.669-0.854-5.344-1.772
	c-0.949-0.521-1.938-0.969-2.87-1.516c-0.53-0.311-0.98-0.757-1.468-1.141c-0.668-0.525-1.363-1.018-1.999-1.578
	c-1.075-0.945-2.199-1.856-3.141-2.924c-0.914-1.037-1.73-2.194-2.395-3.405c-0.658-1.201-1.153-2.508-1.573-3.815
	c-0.514-1.603-0.916-3.25-0.998-4.942c-0.069-1.416-0.068-2.835-0.083-4.252c-0.018-1.656,0.26-3.276,0.582-4.895
	c0.381-1.916,1.087-3.717,1.913-5.465c0.659-1.398,1.498-2.698,2.484-3.905c1.095-1.34,2.219-2.659,3.553-3.753
	c1.073-0.881,2.259-1.637,3.449-2.359c0.904-0.549,1.881-0.985,2.848-1.424c0.76-0.345,1.539-0.667,2.337-0.909
	C96.809,75.407,97.674,75.261,98.595,75.052z M104.717,67.564c0.22-0.1,0.58-0.204,0.874-0.405c0.942-0.642,1.347-1.585,1.413-2.698
	c0.054-0.896-0.917-1.877-1.749-1.71c-0.757,0.153-1.459,0.426-2.099,0.919c-0.904,0.697-1.083,2.303-0.114,3.104
	C103.5,67.151,103.961,67.497,104.717,67.564z"/>
<path fill-rule="evenodd" clip-rule="evenodd" fill="#de4555" class="fill" d="M107.509,80.007c0.14,0.044,0.285,0.14,0.417,0.124
	c1.127-0.133,2.121,0.327,3.118,0.716c0.908,0.354,1.824,0.727,2.659,1.221c2.027,1.203,3.97,2.526,5.212,4.624
	c0.513,0.865,0.916,1.772,1.098,2.771c0.188,1.03-0.002,1.99-0.496,2.898c-0.663,1.222-1.648,2.134-2.764,2.933
	c-1.433,1.026-2.944,1.904-4.645,2.383c-0.85,0.24-1.736,0.398-2.615,0.469c-0.968,0.079-1.956,0.098-2.919-0.003
	c-1.598-0.168-3.176-0.411-4.623-1.241c-1.564-0.896-3.026-1.897-4.225-3.25c-0.759-0.857-1.264-1.871-1.639-2.94
	c-0.406-1.158-0.569-2.362-0.528-3.593c0.044-1.321,0.498-2.464,1.4-3.442c1.18-1.279,2.612-2.179,4.227-2.769
	c0.994-0.362,2.035-0.602,3.066-0.848c0.346-0.082,0.728-0.012,1.093-0.012c0.711,0,1.421,0,2.131,0
	C107.489,80.034,107.499,80.021,107.509,80.007z"/>
<path fill-rule="evenodd" clip-rule="evenodd" fill="#de4555" class="fill" d="M121.056,102.976c0.925,0.355,1.058,1.159,0.89,1.884
	c-0.199,0.861-0.456,1.732-0.853,2.515c-0.319,0.629-0.85,1.168-1.351,1.685c-0.831,0.856-1.705,1.672-2.575,2.489
	c-1.494,1.403-3.206,2.484-5.037,3.392c-1.289,0.638-2.612,1.171-4.003,1.549c-1.396,0.38-2.815,0.529-4.254,0.457
	c-1.854-0.094-3.686-0.364-5.482-0.836c-1.708-0.449-3.371-1.036-4.924-1.89c-1.727-0.948-3.379-2.018-4.827-3.364
	c-0.971-0.904-1.666-2.021-2.156-3.244c-0.311-0.772-0.522-1.59-0.719-2.401c-0.24-0.988,0.264-2.354,1.07-2.828
	c0.828-0.486,1.709-0.403,2.55,0.007c1.936,0.944,3.632,2.329,5.667,3.087c0.639,0.237,1.303,0.417,1.967,0.579
	c1.514,0.37,3.026,0.752,4.554,1.055c1.605,0.317,3.23,0.573,4.877,0.483c1.924-0.104,3.839-0.247,5.728-0.72
	c1.711-0.429,3.264-1.17,4.802-1.988c1.165-0.62,2.354-1.195,3.538-1.776C120.682,103.028,120.881,103.018,121.056,102.976z"/>
<path fill-rule="evenodd" clip-rule="evenodd" fill="#de4555" class="fill" d="M107.845,68.828c0.385,0.594,0.831,5.161,0.642,6.333
	c-0.236,0.059-0.497,0.124-0.763,0.189c-0.362-0.632-0.294-1.287-0.286-1.926c0.008-0.642,0.067-1.282,0.099-1.923
	c0.018-0.358-0.05-0.71-0.372-0.904c-0.422-0.254-0.873-0.138-1.279,0.061c-0.634,0.31-0.708,0.643-0.471,1.303
	c0.129,0.359,0.176,0.766,0.177,1.15c0,0.685-0.06,1.37-0.104,2.054c-0.008,0.123-0.061,0.242-0.089,0.347
	c-0.851,0.368-1.395,0.635-1.934,0.03c0.11-0.935,0.223-1.94,0.357-2.943c0.016-0.122,0.147-0.229,0.229-0.341
	c0.12-0.164,0.276-0.309,0.355-0.489c0.305-0.691-0.134-1.303-0.911-1.294c-0.189,0.002-0.378,0-0.628,0
	c0.104-0.58,0.208-1.164,0.322-1.802C104.773,68.726,106.333,68.777,107.845,68.828z"/>
<path fill-rule="evenodd" clip-rule="evenodd" fill="#de4555" class="fill" d="M101.62,63.815c-0.163-0.062-0.301-0.113-0.475-0.179
	c0.499-0.945,1.229-1.592,2.201-1.857c1.171-0.322,2.347-0.22,3.516,0.177c0.846,0.287,1.305,0.839,1.385,1.669
	c0.059,0.621-0.028,1.256-0.065,1.885c-0.006,0.094-0.093,0.185-0.23,0.245c-0.006-0.068-0.021-0.137-0.017-0.205
	c0.022-0.448,0.101-0.901,0.06-1.344c-0.092-1.013-0.946-1.963-1.915-2.209c-1.545-0.391-3.412,0.312-4.32,1.628
	C101.725,63.676,101.687,63.726,101.62,63.815z"/>
</svg>
