<svg version="1.1" id="svg" xmlns="http://www.w3.org/2000/svg" xmlns:xlink="http://www.w3.org/1999/xlink" x="0px" y="0px"
	 width="200px" height="200px" viewBox="0 0 200 200" enable-background="new 0 0 200 200" xml:space="preserve">
<path class="stroke" fill="#670431"  d="M175.669,96.944c-0.573-0.789-1.326-0.534-2.044-0.276c-1.355,0.488-2.749,0.757-4.049,0.91
	c-3.28-2.437-6.953-3.638-10.66-4.8c-0.349-0.924-0.986-1.605-1.778-2.18c-1.418-1.027-2.83-2.066-4.208-3.146
	c-1.128-0.884-2.204-1.834-3.282-2.738c-0.373,0.082-0.671,0.146-0.797,0.173c-9.722-6.561-18.643-13.853-27.035-21.927
	c0.732-0.819,0.902-1.917,1.861-2.495c0.295,0.655,0.549,1.223,0.781,1.741c0.713,0.088,0.992-0.262,1.166-0.751
	c0.215-0.601,0.426-1.203,0.641-1.803c0.223-0.622,0.449-1.243,0.755-2.092c0.629,0.868,1.107,1.527,1.562,2.154
	c0.978-0.242,1.083-0.399,1.065-1.309c-0.018-0.859-0.004-1.719-0.004-2.587c0.718-0.043,1.104,0.35,1.49,0.761
	c0.404,0.429,0.83,0.838,1.262,1.27c1.734-0.738,0.912-2.501,1.57-3.642c0.312,0.286,0.563,0.516,0.803,0.736
	c0.766-0.525,0.832-0.514,0.965-1.311c0.178-1.057,0.356-2.138,0.317-3.201c-0.058-1.572-0.101-3.117,0.005-4.705
	c0.211-3.203-0.479-6.334-1.818-9.288c-0.088-0.193-0.137-0.404-0.221-0.661c1.076-0.027,1.862,1.257,2.998,0.419
	c-0.326-2.341-1.937-3.812-3.543-5.374c0.972-0.09,1.779-0.165,2.685-0.248c-0.115-0.383-0.116-0.666-0.257-0.801
	c-0.627-0.602-1.233-1.26-1.961-1.717c-1.928-1.212-4.012-2.105-6.248-2.655c0.426-1.199,1.689-0.726,2.545-1.356
	c-0.139-0.261-0.209-0.626-0.419-0.747c-0.964-0.549-1.926-1.147-2.966-1.502c-1.234-0.421-2.547-0.61-3.793-0.892
	c-0.191-0.257-0.354-0.476-0.572-0.768c-2.459-0.245-4.951-0.491-7.418-0.736c0.133-0.291,0.281-0.612,0.417-0.905
	c-2.232-0.976-4.247-0.307-6.284,0.416c0.24-0.569,0.422-1.001,0.647-1.535c-1.198,0-2.214-0.136-3.171,0.039
	c-0.936,0.17-1.812,0.656-2.775,1.027c0-0.476,0-0.85,0-1.28c-0.998-0.01-1.871,0.11-2.623,0.737
	c-0.668,0.559-1.357,1.094-2.386,1.237c0-0.675,0-1.32,0-1.998c-1.262,0.151-2.257,0.441-2.874,1.59
	c-0.339,0.631-0.958,1.112-1.488,1.701c-2.051-2.328-4.637-2.999-7.516-2.801c-0.68,0.047-1.421,0.109-1.896,0.791
	c0.294,0.36,0.538,0.658,0.831,1.019c-0.234,0.069-0.379,0.137-0.529,0.149c-0.275,0.022-0.556,0.022-0.833,0.01
	c-2.636-0.109-5.249-0.125-7.792,0.797c-1.379,0.499-2.822,0.813-4.179,1.196c-0.204,0.376-0.353,0.65-0.468,0.861
	c-1.658,0.531-3.247,1.047-4.842,1.546c-0.607,0.19-1.255,0.278-1.838,0.523c-1.203,0.506-2.385,1.069-3.554,1.65
	c-0.238,0.119-0.386,0.42-0.733,0.818c1.367,0.281,2.497,0.513,3.627,0.746c0,0.085,0,0.17-0.001,0.255
	c-2.093,0.822-4.294,1.443-6.147,3.004c0.719,0.442,1.281,0.787,1.969,1.208c-1.204,0.916-2.225,1.832-2.936,3.186
	c0.601,0.173,1.111,0.319,1.549,0.445c-0.488,1.367-1.003,2.658-1.411,3.982c-0.417,1.352-0.788,2.729-0.629,4.146
	c1.275,0.558,2.112-0.796,3.173-0.571c-0.306,1.619-0.563,3.182-0.902,4.727c-0.348,1.576-0.487,3.14-0.107,4.771
	c0.251,0.099,0.498,0.197,0.776,0.307c0.474-0.33,0.92-0.64,1.452-1.01c0.045,0.272,0.093,0.451,0.1,0.631
	c0.085,2.244,0.396,4.434,1.345,6.504c0.381,0.829,0.558,1.004,1.548,0.972c0.205-0.446,0.422-0.918,0.729-1.588
	c0.195,0.529,0.271,0.838,0.414,1.112c0.535,1.017,1.066,2.038,1.652,3.024c0.283,0.477,0.729,0.722,1.314,0.361
	c0.225-0.809-0.262-1.732,0.441-2.576c0.284,0.507,0.507,0.92,0.742,1.325c0.422,0.72,0.828,1.45,1.282,2.148
	c0.399,0.616,1.002,0.872,1.894,0.811c0.182-0.719,0.368-1.459,0.594-2.354c0.296,0.352,0.496,0.582,0.687,0.82
	c0.217,0.27,0.426,0.547,0.663,0.854c-4.537,3.859-7.715,8.761-10.978,13.697c-0.833-0.955-1.558-1.788-2.211-2.537
	c0.259-1.485,0.229-1.471-0.753-2.597c-0.886-1.017-1.695-2.099-2.555-3.138c-0.734-0.889-1.49-1.759-2.264-2.67
	c-0.276-0.042-0.583-0.088-0.926-0.14c-0.14-0.294-0.272-0.57-0.396-0.828c1.453-1.951,1.847-4.087,1.514-6.391
	c-0.08-0.552-0.203-1.103-0.236-1.658c-0.135-2.308-0.328-4.613,0.898-6.76c0.647-1.136,0.582-2.295-0.456-3.425
	c-0.358-0.024-0.837-0.149-1.28-0.073c-2.334,0.402-4.344,2.662-4.58,5.022c-0.048,0.469,0.025,1.018-0.43,1.495
	c-0.297-0.371-0.545-0.676-0.787-0.984c-1.557-1.971-3.143-3.92-4.659-5.919c-1.315-1.734-3.902-2.384-5.681-1.506
	c-0.641,0.317-1.266,0.304-1.964,0.117c-1.048-0.28-2.062-0.062-2.952,0.586c-0.844,0.612-1.631,1.28-1.964,2.336
	c-0.26,0.055-0.493,0.097-0.724,0.154c-2.33,0.567-2.979,2.42-1.518,4.346c0.426,0.561,0.869,1.108,1.299,1.657
	c-0.921,0.215-1.762,0.393-2.591,0.612c-0.628,0.166-0.991,0.596-1.181,1.23c-0.451,1.514,0.384,3.418,1.901,4.397
	c1.134,0.732,2.228,1.527,3.329,2.309c2.386,1.695,4.177,3.896,5.55,6.47c0.271,0.508,0.729,0.943,1.179,1.321
	c0.865,0.73,1.948,0.843,3.117,0.864c0.275,0.74,0.55,1.476,0.796,2.139c-1.066,1.092-2.753,0.702-3.84,1.649
	c1.595,2.28,3.103,4.471,4.653,6.631c0.525,0.732,1.002,1.574,2.023,1.624c0.531,0.689,1,1.335,1.507,1.95
	c1.749,2.122,3.514,4.23,5.264,6.352c1.294,1.568,2.578,3.146,3.858,4.726c0.515,0.635,1.104,1.257,1.911,1.357
	c1.343,0.165,2.712,0.161,4.018-0.311c2.81-1.014,5.295-2.568,7.521-4.551c0.278-0.248,0.614-0.429,0.941-0.653
	c1.126,2.321,3.582,11.899,3.45,13.251c-2.498,0.587-4.973,1.177-7.453,1.745c-1.146,0.263-2.303,0.478-3.453,0.723
	c-0.819,0.173-1.633,0.361-2.229,1.034c0,0.252-0.045,0.497,0.007,0.721c0.5,2.173,1.018,4.342,1.528,6.513
	c0.557,2.366,1.125,4.729,1.66,7.101c0.239,1.061,0.288,2.132-0.066,3.191c-0.545,1.624-1.028,3.272-1.634,4.876
	c-1.042,2.763-2.021,5.536-2.652,8.432c-0.871,3.996-0.405,7.839,1.139,11.587c1.141,2.77,2.365,5.486,4.188,7.902
	c0.628,0.833,1.212,1.752,1.237,2.997c-0.384-0.175-0.675-0.287-0.946-0.435c-1.309-0.714-2.684-1.252-4.176-1.371
	c-1.943-0.156-3.894-0.223-5.84-0.354c-2.297-0.155-4.277,0.591-6.155,1.882c-2.795,1.92-3.986,4.999-3.034,8.246
	c0.123,0.42,0.265,0.835,0.396,1.254c0.744,2.392,2.21,4.159,4.586,5.024c2.697,0.982,5.504,1.236,8.356,0.942
	c1.825-0.188,3.644-0.473,5.474-0.574c3.703-0.208,7.41-0.359,11.118-0.459c2.191-0.06,4.388,0.01,6.581,0.047
	c1.994,0.033,3.993,0.206,5.979,0.118c1.337-0.059,2.695-0.343,3.979-0.741c2.098-0.651,3.464-2.664,3.34-4.849
	c-0.062-1.091-0.375-2.169-0.638-3.6c0.228-0.288,0.603-0.8,1.016-1.276c0.734-0.847,0.945-1.83,0.786-2.902
	c-0.088-0.59-0.235-1.173-0.389-1.75c-0.674-2.54-1.424-5.062-2.021-7.621c-0.499-2.138-0.844-4.317-0.373-6.521
	c0.382-1.783,0.749-3.571,1.193-5.339c0.369-1.466,0.836-2.907,1.274-4.354c0.046-0.153,0.194-0.275,0.374-0.518
	c0.305,0.673,0.588,1.2,0.788,1.756c0.731,2.024,1.42,4.063,2.153,6.087c0.532,1.465,0.662,2.981,0.426,4.486
	c-0.408,2.598-0.93,5.178-1.439,7.758c-0.535,2.714-0.803,5.452-0.61,8.21c0.109,1.571,0.783,2.914,2.164,3.812
	c0.224,0.146,0.427,0.324,0.659,0.502c-0.176,0.503-0.34,0.948-0.487,1.4c-0.688,2.126-0.266,3.405,1.599,4.614
	c0.489,0.317,1.062,0.583,1.63,0.686c1.173,0.212,2.365,0.354,3.556,0.426c2.512,0.151,5.016,0.021,7.529-0.145
	c3.26-0.215,6.535-0.205,9.804-0.23c1.434-0.011,2.872,0.087,4.302,0.212c2.144,0.187,4.277,0.49,6.422,0.655
	c3.562,0.273,7.091-0.239,10.615-0.628c1.217-0.135,2.404-0.542,3.602-0.833c0.76-0.186,1.223-0.694,1.523-1.396
	c0.557-1.299,0.859-2.659,0.881-4.063c0.032-2.16-0.846-4.041-2.044-5.753c-0.889-1.269-1.807-2.587-3.229-3.321
	c-2.175-1.124-4.463-1.917-6.958-1.965c-2.674-0.052-5.297,0.303-8.086,0.988c0.084-0.612,0.111-1.151,0.238-1.665
	c0.275-1.121,0.683-2.215,0.887-3.347c0.311-1.724,0.475-3.472,0.736-5.204c0.549-3.634,0.855-7.258,0.572-10.956
	c-0.406-5.293-2.191-10.114-4.604-14.734c-1.318-2.521-2.707-4.958-2.21-7.954c-0.429-1.164,0.058-2.271,0.194-3.405
	c0.176-1.455,0.278-2.918,0.411-4.361c-1.757-1.362-3.753-1.698-5.634-2.273c-1.926-0.591-3.895-1.04-5.881-1.562
	c0.096-6.215,0.027-12.49,0.462-18.824c0.284,0.055,0.449,0.052,0.579,0.118c2.382,1.208,4.757,2.431,7.139,3.639
	c1.741,0.883,3.426,1.93,5.25,2.58c2.616,0.931,4.984,2.318,7.434,3.562c0.341,0.173,0.631,0.446,0.951,0.677
	c-0.744,1.25-1.825,2.173-2.131,3.72c0.436,0.37,0.876,0.826,1.391,1.171c1.489,0.999,3.014,1.946,4.516,2.928
	c1.065,0.696,2.089,1.464,3.189,2.097c0.482,0.277,1.112,0.297,1.512,0.394c0.531-0.325,0.861-0.527,1.191-0.729
	c1.004,2.797,3.308,3.497,5.904,3.849c0.475,1.109,1.024,2.247,2.142,2.894c1.058,0.612,2.187,1.1,3.394,1.697
	c0.033,0.96,0.041,1.994,0.109,3.024c0.352,5.292,0.709,10.584,1.085,15.875c0.161,2.269,0.411,4.53,0.55,6.8
	c0.369,6.012,0.688,12.027,1.047,18.039c0.309,5.176,0.639,10.35,0.979,15.523c0.069,1.065,0.23,2.123,0.767,3.125
	c1.732-0.057,3.433,0.736,5.105-0.271c0-0.728,0.021-1.443-0.004-2.158c-0.047-1.434-0.123-2.865-0.181-4.298
	c-0.108-2.707-0.168-5.417-0.33-8.121c-0.309-5.136-0.657-10.27-1.022-15.402c-0.361-5.09-0.803-10.175-1.139-15.266
	c-0.305-4.612-0.529-9.23-0.755-13.848c-0.065-1.344-0.01-2.692-0.01-3.844c0.934-0.92,1.719-1.694,2.606-2.569
	c0.477-0.067,1.181-0.059,1.797-0.287c0.479-0.178,1.045-0.57,1.222-1.009c0.351-0.873,0.608-1.84,0.638-2.775
	c0.05-1.59-0.074-3.189-0.192-4.779c-0.052-0.695-0.272-1.379-0.414-2.057c0.651-0.326,1.212-0.621,1.784-0.89
	C175.132,99.915,176.169,98.432,175.669,96.944z"/>
<path fill-rule="evenodd" clip-rule="evenodd" fill="#fa57ac" class="fill" d="M108.563,26.064c-0.2-0.052-0.527-0.082-0.8-0.219
	c-1.976-0.993-3.776-0.569-5.482,0.646c-0.384,0.272-0.704,0.706-1.278,0.271c0.151-0.69,0.306-1.398,0.461-2.107
	c-0.974,0.474-1.434,1.182-1.368,2.193c-0.28,0-0.542,0-0.944,0c0.339-0.972,0.645-1.846,0.949-2.721
	c-1.157,0.462-1.268,1.684-2.01,2.524c-0.455-0.081-0.914-0.162-1.419-0.252c0.077-0.792,0.148-1.522,0.241-2.466
	c-0.981,0.75-0.879,1.809-1.541,2.631c-1.631,0.243-3.392,0.505-5.272,0.785c-0.343-0.496-0.733-1.061-1.157-1.675
	c-0.85,0.772,0.016,1.378,0.013,2.077c-0.106,0.098-0.246,0.225-0.416,0.381c-0.841-0.516-1.041-1.709-2.171-1.971
	c-0.184,1.012,0.803,1.484,0.883,2.295c-0.537-0.069-0.537-0.069-1.943-1.913c-0.477,0.437-0.484,0.441-0.094,1.211
	c0.232,0.459,0.492,0.905,0.697,1.278c-2.08,1.763-4.109,3.484-6.286,5.329c-0.899,0.229-2.058,0.391-3.103,1.424
	c0.871,0.271,1.591,0.494,2.375,0.738c-0.182,0.786-0.35,1.513-0.504,2.182c-1.274,1.107-2.451,2.206-3.157,3.63
	c0.572,0.822,1.087,0.212,1.659,0.138c0.199,0.679-0.131,1.242-0.32,1.814c-0.752,2.251-1.055,4.58-1.229,6.933
	c-0.015,0.19,0.034,0.384,0.058,0.622c0.246,0.071,0.461,0.133,0.764,0.22c0.477-0.686,0.943-1.355,1.579-2.27
	c0.195,0.762,0.326,1.271,0.464,1.805c-1.418,2.45-1.408,5.198-1.697,7.883c-0.113,1.053-0.219,2.107-0.349,3.361
	c-0.271-0.313-0.466-0.479-0.583-0.688c-0.35-0.626-0.641-1.286-1.007-1.901c-0.35-0.587-0.772-1.121-1.749-0.975
	c-0.313,1.147-0.635,2.323-0.977,3.572c-0.639-0.475-0.905-1.125-1.139-1.788c-0.33-0.94-0.63-1.892-0.956-2.834
	c-0.226-0.655-0.235-0.652-1.009-1.102c-0.965,0.893-0.584,2.323-1.295,3.417c-1.014-1.501-0.745-3.543-2.208-4.876
	c-0.36,0.463-0.596,0.764-0.978,1.254c-0.1-0.634-0.215-1.078-0.234-1.527c-0.076-1.753-0.12-3.507-0.182-5.26
	c-0.019-0.533-0.082-1.049-0.814-1.311c-0.524,0.455-1.115,0.966-1.822,1.579c-0.058-0.359-0.131-0.605-0.13-0.851
	c0.013-1.928,0.378-3.8,0.907-5.648c0.198-0.69,0.379-1.39,0.479-2.098c0.056-0.388-0.072-0.802-0.118-1.198
	c-1.445-0.063-2.244,0.883-3.348,1.61c0.004-3.166,1.635-5.387,3.461-7.679c-0.283-0.295-0.544-0.569-0.876-0.916
	c0.519-1.011,1.782-1.302,2.704-2.045c-0.047-0.211-0.088-0.396-0.138-0.617c-0.357-0.085-0.69-0.165-1.259-0.301
	c1.9-0.864,3.592-1.632,5.326-2.42c-0.038-0.276-0.068-0.498-0.114-0.837c-1.235-0.259-2.465-0.517-3.694-0.775
	c-0.014-0.067-0.026-0.133-0.04-0.2c0.349-0.143,0.686-0.334,1.047-0.421c2.982-0.716,5.951-1.51,8.962-2.082
	c2.027-0.385,4.117-0.546,6.172,0.037c0.104,0.03,0.229-0.008,0.444-0.02c-0.019-0.233-0.036-0.442-0.052-0.625
	c-0.992-0.418-1.928-0.812-3.121-1.314c0.477-0.224,0.659-0.346,0.858-0.398c1.882-0.491,3.806-0.275,5.716-0.325
	c1.781-0.047,3.564-0.128,5.558-0.202c-0.268-0.455-0.47-0.798-0.673-1.143c1.062-0.119,2.055,0.255,5.25,1.991
	c0.294-0.022,0.646-0.049,1.01-0.076c0.562-0.825,1.011-1.722,1.993-2.275c0.118,0.443,0.217,0.811,0.312,1.167
	c0.576,0.313,1.09,0.253,1.588-0.114c0.545-0.403,1.092-0.804,1.648-1.191c0.348-0.243,0.715-0.458,1.148-0.732
	c0.168,0.533,0.297,0.943,0.43,1.362c0.664,0.333,1.229,0.077,1.785-0.281c0.436-0.28,0.859-0.593,1.328-0.8
	c0.377-0.167,0.815-0.197,1.373-0.321c-0.099,0.572-0.169,0.975-0.24,1.382c0.395,0.354,0.756,0.361,1.235,0.259
	c1.159-0.248,2.341-0.384,3.579-0.577c0.117,0.383,0.191,0.625,0.324,1.058c0.621,0.049,1.317,0.156,2.013,0.148
	c1.155-0.014,2.309-0.133,3.464-0.146c0.632-0.007,1.265,0.112,2.015,0.186c-0.181,0.284-0.317,0.499-0.487,0.768
	c0.386,0.551,1.021,0.49,1.579,0.594c1.331,0.25,2.677,0.434,3.992,0.745c0.713,0.168,1.377,0.542,2.051,1.061
	c-0.633,0.206-1.266,0.412-2.13,0.693c0.615,0.47,1.048,0.801,1.48,1.131c2.45,0.623,4.705,1.776,6.78,3.329
	c-1.204,0.339-2.44-0.208-3.8,0.365c1.548,1.674,3.598,2.539,4.727,4.467c-0.85-0.066-1.586-0.131-2.322-0.168
	c-0.084-0.005-0.176,0.146-0.337,0.292c1.442,3.043,3.038,6.054,3.427,9.465c-0.102,0.046-0.201,0.092-0.302,0.139
	c-0.289-0.538-0.601-1.065-0.86-1.616c-0.252-0.532-0.391-1.132-1.199-1.525c-0.121,0.139-0.264,0.303-0.404,0.465
	c1.506,3.227,2.458,6.447,2.807,10.117c-0.676-0.457-1.141-0.773-1.592-1.078c-0.808,0.189-0.668,0.818-0.694,1.35
	c-0.067,1.344-0.122,2.689-0.187,4.138c-1.293-0.35-1.67-1.571-2.643-2.221c-1.499,0.711-0.863,2.211-1.244,3.499
	c-0.506-0.535-0.945-0.997-1.363-1.438c-0.759,0.055-0.826,0.589-0.96,1.088c-0.243,0.905-0.505,1.805-0.961,2.683
	c-0.269-0.722-0.537-1.443-0.862-2.316c-1.573,0.864-1.223,2.655-2.146,3.844c-0.198-0.449-0.375-0.851-0.544-1.233
	c-0.599,0.021-0.599,0.021-1.905,1.604c-0.193-0.066-0.414-0.134-0.629-0.216c-0.184-0.071-0.359-0.16-0.569-0.256
	c-0.126-0.417-0.249-0.832-0.414-1.385c-0.544-0.12-1.151-0.253-1.668-0.367c-0.819-2.167-1.626-4.296-2.463-6.51
	c1.349,0.113,1.775,1.818,3.26,1.866c0.006-2.33-1.652-3.664-2.905-5.508c0-0.644,0-1.539,0-2.408
	c1.178-0.428,2.186,0.043,3.207,0.318c0.222-1.337,0.169-1.384-3.275-2.92c-0.067-0.872-0.141-1.804-0.215-2.759
	c1.613-0.386,3.131-0.735,3.72-2.411c0.53-1.51,0.421-2.978-0.487-4.454c0.195-0.242,0.393-0.529,0.633-0.776
	c1.179-1.22,1.607-2.754,1.663-4.368c0.069-1.962-2.137-4.159-4.104-4.297C112.901,24.6,110.771,25.188,108.563,26.064z
	 M71.554,51.195c-0.972,0.054-1.031,0.031-1.271,0.642c-0.4,1.027-0.752,2.077-1.058,3.137c-0.126,0.432-0.077,0.915-0.115,1.482
	c0.431,0,0.737,0,1.215,0c-0.503-1.006-0.073-1.81,0.184-2.615C70.78,52.987,71.163,52.168,71.554,51.195z M68.351,45.079
	c0.646,0.268,0.752-0.15,0.896-0.441c0.751-1.513,1.765-2.81,3.091-3.86c0.075-0.059,0.087-0.198,0.143-0.34
	c-0.724-0.324-1.147,0.17-1.582,0.526C69.582,42.046,68.819,43.458,68.351,45.079z M67.158,42.672
	c1.064-0.277,1.329-1.399,2.053-2.04c0.748-0.662,1.468-1.356,2.255-2.089C70.012,38.326,68.085,40.135,67.158,42.672z
	 M72.416,52.003c-0.095-0.057-0.19-0.115-0.287-0.172c-0.273,0.221-0.688,0.389-0.794,0.672c-0.456,1.216-0.818,2.465-0.47,3.843
	c0.224-0.013,0.407-0.023,0.552-0.031C71.76,54.835,72.088,53.419,72.416,52.003z M120.007,49.804
	c0.82,1.218,1.548,2.298,2.26,3.356c0.14-0.021,0.224-0.017,0.292-0.048c0.067-0.031,0.119-0.098,0.231-0.197
	c-0.494-1.388-0.961-2.805-2.365-3.72C120.264,49.43,120.137,49.615,120.007,49.804z M71.003,29.214
	c0.781,0.889,1.494,0.322,2.141,0.35c0.757,0.034,1.516,0.011,2.273,0.019c0.66,0.007,1.344,0.394,2.208-0.192
	C75.365,28.683,73.312,28.925,71.003,29.214z M72.742,27.457c-0.009,0.111-0.015,0.222-0.022,0.333
	c0.76,0.557,1.693,0.23,2.528,0.265c1.642,0.068,2.802-0.257,3.431-0.875C76.605,27.275,74.674,27.366,72.742,27.457z
	 M123.276,48.187c-0.582,0.135-1.021-0.406-1.33,0.062c0.659,1.048,1.247,2.018,1.881,2.956c0.098,0.144,0.408,0.145,0.619,0.212
	c0.07-0.078,0.14-0.156,0.209-0.234C124.218,50.232,123.78,49.281,123.276,48.187z M69.799,46.377
	c0.705-0.427,2.154-2.646,2.271-3.296c-0.767,0.03-0.799,0.007-1.233,0.623C70.308,44.454,69.646,45.175,69.799,46.377z
	 M126.354,44.626c1.135,0.037,1.757,0.641,2.363,1.271c0.32,0.331,0.646,0.583,1.28-0.046c-0.657-0.569-1.25-1.14-1.903-1.631
	C127.459,43.743,127.147,43.825,126.354,44.626z M119.241,51.864c0.896,2.216,1.085,2.418,2.113,2.163
	c-0.479-0.908-0.943-1.787-1.457-2.757C119.606,51.534,119.442,51.681,119.241,51.864z M77.7,26.098
	c0.615,0.533,1.319,0.278,1.942,0.317c0.61,0.038,1.234,0.547,1.931,0.075C80.603,25.633,78.905,25.465,77.7,26.098z
	 M122.517,33.528c0.822,0.378,1.76-0.1,2.323-1.174C123.817,32.329,123.161,32.866,122.517,33.528z M130.132,42.056
	c-0.617-1.178-1.505-1.327-2.196-0.415C128.669,41.78,129.329,41.905,130.132,42.056z M122.422,30.769
	c1.382,0.273,1.981-0.165,1.842-1.271C123.661,29.915,123.106,30.297,122.422,30.769z"/>
<path fill-rule="evenodd" clip-rule="evenodd" fill="#fa57ac" class="fill" d="M111.892,40.841c0.41,0.695,0.477,1.61,0.477,2.593
	c0.002,3.656-1.057,7.072-2.143,10.5c-0.771,2.43-1.414,4.9-2.111,7.354c-0.501,1.761-1.424,3.303-2.604,4.667
	c-1.734,2.003-3.979,3.007-6.634,3.06c-2.111,0.042-4.225,0.164-6.331,0.083c-3.222-0.124-5.765-1.727-7.835-4.081
	c-0.502-0.569-0.771-1.389-1.007-2.138c-0.956-3.019-1.292-6.16-1.706-9.281c-0.295-2.223-0.771-4.396-1.436-6.534
	c-0.343-1.104-0.722-2.204-0.967-3.331c-0.719-3.303-0.222-6.463,1.646-9.265c0.776-1.164,2.005-2.039,3.079-2.987
	c1.517-1.338,3.354-2.15,5.219-2.84c1.223-0.452,2.527-0.714,3.812-0.958c2.259-0.428,4.521-0.333,6.762,0.172
	c0.191,0.043,0.376,0.116,0.564,0.175c0,0.581,0.03,1.125-0.006,1.666c-0.067,1.01,0.257,1.889,0.849,2.677
	c1.688,2.245,3.573,4.316,5.89,5.915C108.745,39.211,110.233,39.909,111.892,40.841z M88.911,56.779
	c-0.85,0.425-1.545,0.727-2.192,1.111c-0.524,0.312-0.895,0.765-0.944,1.438c-0.158,2.12,0.326,4.005,2.145,5.27
	c0.801,0.556,1.74,0.997,2.682,1.247c3.363,0.894,6.58,0.303,9.6-1.321c1.809-0.972,3.671-3.498,3.007-6.249
	c-0.194-0.81-0.583-1.359-1.399-1.62c-0.997-0.318-1.954-0.346-2.897,0.16c-0.491,0.264-0.983,0.53-1.49,0.761
	c-1.823,0.828-3.64,1.373-5.604,0.324C90.917,57.419,89.903,57.153,88.911,56.779z M93.505,56.079
	c3.939,0.093,6.207-2.377,5.724-5.545c-0.318-2.084-2.203-3.61-4.153-3.215c-1.528,0.31-2.937,0.887-3.915,2.28
	c-0.996,1.42-1.082,2.903-0.488,4.412C91.265,55.517,92.585,56.043,93.505,56.079z M92.206,45.442
	c-0.859-1.742-3.068-2.68-5.07-2.155c-1.917,0.504-2.779,2.029-2.613,4.619C86.627,49.977,91.424,49.651,92.206,45.442z
	 M98.681,45.04c0.154,0.409,0.248,0.751,0.402,1.063c1.128,2.283,4.598,2.413,5.96,1.501c0.973-0.651,1.287-1.415,0.99-2.556
	c-0.089-0.345-0.206-0.685-0.339-1.016c-0.84-2.081-3.143-2.701-4.87-1.249C100.044,43.438,99.407,44.264,98.681,45.04z
	 M93.43,40.505c-0.812-1.118-1.806-1.65-3.006-1.792c-2.972-0.348-5.075,0.832-6.364,3.55c-0.026,0.056,0.018,0.145,0.05,0.353
	c0.28,0.04,0.6,0.085,0.96,0.137c0.48-1.304,1.256-2.158,2.491-2.666c1.52-0.625,2.146-0.604,3.319,0.557
	c0.475,0.469,0.895,0.993,1.38,1.537c0.361-0.118,0.686-0.223,1.076-0.351C93.369,41.357,93.399,40.932,93.43,40.505z
	 M105.884,40.877c-0.378-1.337-3.1-2.739-5.076-2.651c-1.633,0.073-3.178,1.149-3.43,2.39c1.001,0.54,1.236,0.55,1.936-0.257
	c0.774-0.893,1.703-1.095,2.801-0.878c0.949,0.188,1.861,0.429,2.529,1.215C104.99,41.103,105.413,41.22,105.884,40.877z"/>
<path fill-rule="evenodd" clip-rule="evenodd" fill="#fa57ac" class="fill" d="M34.658,48.219c0.819-0.851,1.706-1.168,2.666-0.708
	c0.888,0.425,1.79,0.929,2.493,1.601c1.268,1.208,2.424,2.538,3.553,3.878c0.447,0.534,0.7,1.235,1.111,1.985
	c0.182-0.009,0.464-0.021,0.832-0.038c-0.348-1.667-1.223-2.971-1.967-4.303c-0.729-1.306-1.697-2.478-2.596-3.756
	c0.441-0.305,0.807-0.05,1.19,0.121c1.606,0.714,2.872,1.861,3.965,3.197c0.884,1.08,1.722,2.201,2.521,3.345
	c0.43,0.616,0.72,1.328,1.106,1.977c0.23,0.392,0.526,0.745,0.772,1.087c1.048-0.218,1.516-0.864,1.729-1.648
	c0.219-0.8,0.304-1.641,0.406-2.469c0.156-1.264,0.47-2.411,1.65-3.156c0.615-0.389,1.211-0.551,1.946-0.334
	c0.278,0.619,0.069,1.157-0.188,1.707c-0.783,1.669-1.493,3.367-1.387,5.266c0.042,0.751,0.185,1.497,0.246,2.248
	c0.097,1.188,0.24,2.378,0.223,3.565c-0.023,1.399-0.786,2.485-1.811,3.383c-0.945,0.828-2.086,0.591-3.16,0.592
	c-0.381-0.813-0.678-1.601-1.104-2.311c-0.583-0.971-1.433-1.155-2.727-0.605c-0.115,0.49-0.253,1.085-0.34,1.462
	c0.586,1.376,1.484,2.053,2.687,2.435c-0.101,1.154-0.618,2.052-1.56,2.555c-0.973,0.52-2.035,0.918-3.104,1.203
	c-0.982,0.263-1.795-0.237-2.367-1.047c-0.645-0.912-1.219-1.874-1.881-2.774c-0.369-0.502-0.795-0.997-1.293-1.363
	c-1.152-0.849-2.326-1.685-3.562-2.404c-1.778-1.035-3.28-2.403-4.778-3.776c-0.422-0.386-0.696-0.931-1.099-1.486
	c0.435-0.363,0.755-0.631,1.097-0.917c0.402,0.129,0.766,0.186,1.068,0.355c1.629,0.915,3.355,1.661,4.81,2.882
	c1.171,0.985,2.155,1.249,3.426,1.071c0.322-0.724-0.192-1.233-0.571-1.68c-1.264-1.487-2.562-2.949-3.914-4.354
	c-0.827-0.858-1.807-1.566-2.665-2.396c-0.477-0.46-0.976-0.987-0.62-1.836c0.824-0.438,1.696-0.402,2.44,0.148
	c1.823,1.349,3.604,2.759,5.384,4.169c0.717,0.569,1.382,1.205,2.073,1.808c0.314,0.274,0.643,0.493,1.199,0.045
	c-0.283-0.338-0.508-0.759-0.857-0.998c-1.478-1.014-2.509-2.435-3.51-3.858c-0.882-1.253-1.915-2.338-3.052-3.344
	C34.998,48.613,34.877,48.457,34.658,48.219z"/>
<path fill-rule="evenodd" clip-rule="evenodd" fill="#fa57ac" class="fill" d="M71.9,174.163c-3.503,0.563-6.904,1.182-10.329,1.632
	c-1.723,0.228-3.477,0.425-5.229,0.151c-2.021-0.315-3.821-1.122-5.292-2.542c-3.252-3.142-1.32-7.756,1.002-9.422
	c1.246-0.895,2.775-0.936,4.237-1.028c1.919-0.122,3.801,0.115,5.655,0.689c1.627,0.503,3.303,0.847,4.834,1.229
	c0.801,1.749,1.44,3.389,2.281,4.917C69.875,171.27,70.896,172.636,71.9,174.163z"/>
<path fill-rule="evenodd" clip-rule="evenodd" fill="#fa57ac" class="fill" d="M128.563,174.571c1.369-1.935,2.897-3.433,3.537-5.474
	c0.614-1.952,1.876-3.714,1.705-5.924c1.138-0.602,2.375-0.647,3.597-0.69c1.87-0.065,3.735-0.075,5.604,0.203
	c2.594,0.385,6.889,3.329,7.414,6.671c0.32,2.042-0.958,4.976-3.686,5.634c-2.486,0.601-4.988,0.551-7.492,0.378
	c-3.02-0.209-6.03-0.531-9.046-0.793C129.771,174.539,129.341,174.571,128.563,174.571z"/>
<path fill-rule="evenodd" clip-rule="evenodd" fill="#fa57ac" class="fill" d="M115.859,103.154c-1.403-0.275-2.675-0.524-4.057-0.795
	c-0.038-0.65-0.099-1.273-0.11-1.899c-0.113-6.26-0.232-12.521-0.317-18.781c-0.026-1.873,0.063-3.748,0.075-5.622
	c0.021-3.626-0.009-7.254,0.053-10.88c0.023-1.376,0.242-2.75,0.379-4.189c1.51,0,2.848,0,4.352,0
	c0.049,0.98,0.145,1.881,0.128,2.779c-0.026,1.436-0.144,2.87-0.191,4.306c-0.08,2.429-0.171,4.858-0.192,7.288
	c-0.034,3.991-0.02,7.981-0.02,11.972c0,2.155,0.017,4.31,0.023,6.465c0.009,2.59,0.022,5.182,0.016,7.772
	C115.996,102.07,115.912,102.571,115.859,103.154z"/>
<path fill-rule="evenodd" clip-rule="evenodd" fill="#fa57ac" class="fill" d="M159.446,94.717c3.431,0.369,6.234,1.807,8.822,3.742
	c0.158,0.119,0.319,0.249,0.44,0.403c1.485,1.896,2.837,3.854,2.928,6.393c0.027,0.757,0.163,1.515,0.134,2.267
	c-0.037,0.939-0.193,1.874-0.31,2.911c-0.638,0.165-1.144,0.295-1.854,0.479c0-0.671,0.06-1.146-0.012-1.602
	c-0.166-1.056-0.369-2.106-0.605-3.147c-0.154-0.688-0.426-1.35-0.592-2.035c-0.232-0.967-1.061-1.801-2.031-1.941
	c-0.134-0.02-0.287,0.093-0.553,0.188c0.54,1.554,1.248,3.049,1.154,4.701c-0.096,1.673-0.795,3.146-1.659,4.681
	c-0.513,0.114-1.077,0.239-1.778,0.396c0.022-0.407-0.008-0.674,0.057-0.915c0.319-1.188,0.659-2.371,1-3.555
	c0.486-1.688,0.323-3.305-0.508-4.937c-0.277-0.028-0.566-0.058-1.09-0.112c0.655,1.643,1.132,3.182,0.527,4.749
	c-0.295,0.769-0.703,1.526-1.205,2.176c-0.598,0.774-1.352,1.43-2.037,2.136c-0.515-0.126-0.885-0.217-1.413-0.347
	c1.161-2.044,2.706-3.81,2.635-6.187c-1.616-2.331-4.935-2.554-7.255-0.521c-0.277,1.229-0.081,1.567,1.434,2.471
	c0.612,0.981,0.612,0.981,0.534,1.85c-1.331,0.783-2.868,0.314-4.211-1.41c0.41-0.996,0.756-2.148,1.335-3.17
	c1.059-1.866,2.254-3.654,3.394-5.474c0.571-0.911,1.139-1.824,1.722-2.728C158.77,95.678,159.117,95.196,159.446,94.717z"/>
<path fill-rule="evenodd" clip-rule="evenodd" fill="#fa57ac" class="fill" d="M77.097,64.053c0.437-0.323,0.783-0.589,1.143-0.839
	c0.126-0.088,0.28-0.137,0.389-0.188c0.588,0.06,0.812,0.38,0.788,0.895c-0.126,2.643,0.388,5.235,0.632,7.849
	c0.303,3.252,0.673,6.5,0.93,9.756c0.154,1.944,0.143,3.901,0.214,5.851c0.077,2.112,0.22,4.224,0.233,6.336
	c0.021,3.227-0.041,6.454-0.074,9.682c-0.002,0.152-0.057,0.305-0.102,0.53c-1.38,0.122-2.749,0.243-4.227,0.374
	c-0.086-1.29-0.244-2.513-0.234-3.734c0.027-3.546,0.127-7.092,0.188-10.638c0.053-3.142,0.133-6.284,0.121-9.426
	c-0.006-2.024-0.084-4.054-0.26-6.069c-0.254-2.901-0.292-5.798-0.092-8.698C76.782,65.186,76.968,64.648,77.097,64.053z"/>
<path fill-rule="evenodd" clip-rule="evenodd" fill="#fa57ac" class="fill" d="M149.629,94.091c-2.011,3.048-4.308,5.775-7.166,8.167
	c-0.244-0.117-0.544-0.26-0.878-0.418c2.653-2.625,5.473-4.976,6.521-8.697c-0.283,0.354-0.605,0.684-0.842,1.065
	c-1.399,2.256-3.284,4.092-5.141,5.949c-0.359,0.359-0.83,0.618-1.279,0.871c-0.154,0.087-0.398,0.014-0.787,0.014
	c1.359-1.363,2.632-2.534,3.778-3.817c1.131-1.266,2.258-2.56,2.883-4.205c-2.452,2.056-4.001,5.052-6.995,6.581
	c3.172-4.57,6.342-9.141,9.559-13.778c0.191,0.114,0.437,0.227,0.647,0.387c2.215,1.694,4.423,3.397,6.638,5.092
	c0.409,0.314,0.838,0.604,1.266,0.91c-1.609,2.557-3.041,4.834-4.473,7.111c-0.069-0.021-0.138-0.042-0.207-0.064
	c0.148-0.559,0.297-1.119,0.443-1.679c-0.074-0.036-0.15-0.072-0.225-0.107c-0.534,0.971-1.003,1.986-1.619,2.902
	c-0.666,0.989-1.448,1.904-2.22,2.818c-0.738,0.872-1.528,1.701-2.325,2.584c-0.273-0.215-0.421-0.33-0.703-0.552
	c2.211-2.966,4.533-5.829,6.023-9.205c-0.065-0.045-0.131-0.092-0.197-0.137c-2.133,2.897-4.267,5.795-6.447,8.755
	c-0.318-0.238-0.518-0.391-0.843-0.635c2.577-2.795,4.821-5.73,6.371-9.123c-0.084-0.06-0.168-0.121-0.253-0.182
	c-1.076,1.492-2.12,3.007-3.237,4.467c-1.109,1.451-2.293,2.844-3.491,4.323c-0.414-0.22-0.705-0.374-1.157-0.613
	C145.868,100.166,148.688,97.77,149.629,94.091z"/>
<path fill-rule="evenodd" clip-rule="evenodd" fill="#fa57ac" class="fill" d="M164.636,151.082c0-0.826,0-1.569,0-2.309
	c0.641-0.248,1.273-0.492,1.906-0.735c-0.019-0.092-0.037-0.183-0.057-0.274c-0.6,0-1.199,0-1.896,0c0-0.602,0-1.134,0-1.652
	c0.421-0.377,1.188,0.079,1.482-0.789c-0.563-0.072-1.084-0.14-1.668-0.216c-0.016-0.332-0.029-0.634-0.043-0.969
	c0.398-0.172,0.754-0.324,1.391-0.598c-0.635-0.243-1.037-0.397-1.539-0.59c-0.055-0.656-0.111-1.358-0.168-2.05
	c0.577-0.293,1.068-0.542,1.56-0.792c-0.023-0.092-0.048-0.183-0.073-0.275c-0.488-0.035-0.979-0.072-1.594-0.117
	c-0.03-0.63-0.059-1.25-0.089-1.899c0.55-0.196,1.034-0.369,1.519-0.542c-0.009-0.099-0.019-0.197-0.027-0.296
	c-0.474-0.088-0.947-0.175-1.543-0.283c-0.038-0.571-0.076-1.146-0.112-1.679c0.658-0.356,1.22-0.66,1.78-0.965
	c-0.029-0.079-0.061-0.157-0.092-0.236c-0.532,0.024-1.064,0.05-1.688,0.079c-0.022-0.396-0.042-0.735-0.061-1.05
	c0.613-0.32,1.155-0.604,1.696-0.889c-0.021-0.088-0.042-0.177-0.063-0.267c-0.512,0.027-1.024,0.055-1.637,0.086
	c-0.075-0.366-0.142-0.693-0.216-1.059c0.605-0.311,1.141-0.585,1.677-0.86c-0.02-0.071-0.039-0.144-0.06-0.215
	c-0.485,0-0.971,0-1.573,0c-0.079-0.438-0.144-0.802-0.224-1.244c0.617-0.291,1.167-0.551,1.782-0.841
	c-0.557-0.625-1.188-0.234-1.777-0.332c-0.027-0.282-0.054-0.549-0.074-0.761c0.377-0.399,0.702-0.743,1.027-1.088
	c-0.049-0.07-0.098-0.142-0.146-0.212c-0.291,0.044-0.583,0.088-1.061,0.16c0.088-0.361,0.074-0.796,0.234-0.873
	c0.718-0.349,1.414-0.848,2.428-0.721c1.363,17.766,2.891,35.49,3.373,53.465c-0.813-0.184-1.414-0.318-2.068-0.465
	c-0.144-0.367-0.285-0.729-0.447-1.144c0.495-0.304,0.938-0.575,1.619-0.993c-0.738-0.101-1.191-0.163-1.745-0.239
	c-0.122-0.527-0.245-1.053-0.376-1.621c0.481-0.23,0.891-0.426,1.3-0.622c0.003-0.07,0.007-0.141,0.011-0.211
	c-0.462-0.105-0.924-0.211-1.46-0.334c0-0.768,0-1.51,0-2.301c0.51-0.202,1.063-0.423,1.618-0.645
	c-0.009-0.086-0.019-0.172-0.029-0.258c-0.591-0.118-1.183-0.235-1.861-0.371c-0.056-0.521-0.108-1.021-0.164-1.546
	c0.667-0.331,1.525,0.036,2.015-0.697c-0.602-0.599-1.312-0.13-2.073-0.286c-0.043-0.492-0.09-1.025-0.14-1.608
	c0.769-0.204,1.47-0.39,2.279-0.604c-0.667-0.544-0.667-0.544-2.123-0.404c-0.032-0.186-0.092-0.375-0.095-0.565
	c-0.004-0.315,0.028-0.631,0.047-0.986c0.568-0.207,1.112-0.406,1.737-0.635c-0.481-0.623-1.128-0.398-1.766-0.501
	c-0.079-0.676-0.155-1.324-0.233-1.984c0.593-0.211,1.047-0.373,1.502-0.534c-0.003-0.093-0.006-0.185-0.008-0.276
	c-0.465-0.124-0.931-0.248-1.554-0.414c-0.036-0.727-0.073-1.491-0.107-2.193c0.75-0.229,1.329-0.404,2.073-0.632
	c-0.714-0.681-1.476-0.27-2.113-0.633c-0.025-0.427-0.053-0.896-0.084-1.428c0.68-0.257,1.316-0.498,2.053-0.776
	C166.069,150.85,166.069,150.85,164.636,151.082z"/>
<path fill-rule="evenodd" clip-rule="evenodd" fill="#fa57ac" class="fill" d="M119.295,162.37c0.549,2.863,1.071,5.59,1.614,8.414
	c-0.716,0.423-1.602,0.57-2.51,0.524c-2.423-0.122-4.845-0.282-7.268-0.43c-0.389-0.023-0.779-0.056-1.252-0.09
	c-0.521-2.809-0.483-5.559-0.314-8.419C112.865,162.37,116.03,162.37,119.295,162.37z"/>
<path fill-rule="evenodd" clip-rule="evenodd" fill="#fa57ac" class="fill" d="M57.208,77.192c-3.696,1.142-6.895,3.451-10.846,3.396
	c-0.031-0.096-0.062-0.192-0.094-0.288c0.312-0.095,0.617-0.223,0.936-0.28c2.73-0.488,5.111-1.74,7.338-3.333
	c0.583-0.417,1.098-0.878,1.211-1.723c-3.255,2.08-6.576,3.819-10.596,4.488c-0.094-0.091-0.282-0.275-0.555-0.541
	c2.017-0.634,3.848-1.102,5.594-1.786c2.457-0.964,4.228-2.21,4.641-3.156c-1.492,0.664-2.85,1.235-4.178,1.868
	c-2.066,0.984-4.24,1.604-6.483,2.005c-0.047,0.009-0.113-0.086-0.327-0.261c3.682-0.805,6.863-2.325,9.222-5.247
	c-3.092,1.707-6.003,3.824-9.733,4.068c0.719-0.41,1.428-0.835,2.156-1.226c1.788-0.958,3.617-1.847,5.364-2.875
	c0.846-0.498,1.551-1.239,2.307-1.885c0.932-0.795,1.849-1.607,2.896-2.519c1.651,2.176,3.221,4.247,4.847,6.39
	c-0.65,0.98-1.366,1.979-2.445,2.733c-2.158,1.507-4.313,3.014-6.725,4.089c-1.087,0.484-2.234,0.824-3.406,1.247
	c-0.301-0.209-0.581-0.403-1.009-0.702c0.457-0.13,0.735-0.256,1.024-0.285c2.989-0.295,5.536-1.679,7.992-3.265
	C56.681,77.886,56.921,77.501,57.208,77.192z"/>
<path fill-rule="evenodd" clip-rule="evenodd" fill="#fa57ac" class="fill" d="M85.36,144.298c0.393,2.447,0.764,4.759,1.161,7.238
	c-1.765,0.143-3.498,0.229-5.217,0.438c-1.726,0.21-3.437,0.543-5.101,0.813c-1.062-1.842-1.848-5.747-1.586-7.882
	C78.13,144.417,81.683,144.128,85.36,144.298z"/>
<path fill-rule="evenodd" clip-rule="evenodd" fill="#fa57ac" class="fill" d="M95.935,124.313c3.556,0.562,6.994,1.105,10.545,1.667
	c-0.074,2.254-0.184,4.415-0.914,6.608c-3.766-0.429-7.518-0.287-11.402-0.156C94.372,129.65,95.048,127.061,95.935,124.313z"/>
<path fill-rule="evenodd" clip-rule="evenodd" fill="#fa57ac" class="fill" d="M85.339,133.389c-3.1,0.571-6.214,0.475-9.265,0.876
	c-0.231-0.919,0.483-5.778,1.282-8.882c2.829-0.278,5.709-0.562,8.763-0.862C85.853,127.551,85.601,130.42,85.339,133.389z"/>
<path fill-rule="evenodd" clip-rule="evenodd" fill="#fa57ac" class="fill" d="M96.645,114.604c-0.471,2.937-0.934,5.823-1.39,8.677
	c-2.654,0.107-5.135,0.209-7.606,0.31c0-2.932,0-5.729,0-8.562c0.476,0,0.823,0,1.169,0
	C90.128,114.315,94.647,114.02,96.645,114.604z"/>
<path fill-rule="evenodd" clip-rule="evenodd" fill="#fa57ac" class="fill" d="M86.454,113.835c-3.092,0.434-5.951,0.835-8.807,1.236
	c-0.474-2.479-0.934-4.882-1.414-7.384c3.17-0.37,6.355-0.742,9.545-1.115C85.997,108.916,86.221,111.323,86.454,113.835z"/>
<path fill-rule="evenodd" clip-rule="evenodd" fill="#fa57ac" class="fill" d="M97.736,113.611c0-2.559,0-4.926,0-7.408
	c2.705,0.188,5.306,0.369,7.86,0.547c0.582,1.209,1.198,6.012,0.996,7.864C103.746,113.604,100.788,113.64,97.736,113.611z"/>
<path fill-rule="evenodd" clip-rule="evenodd" fill="#fa57ac" class="fill" d="M107.757,125.339c0-3.252,0-6.289,0-9.521
	c2.389,0.326,4.574,0.625,6.73,0.92c0.289,1.462-0.038,7.242-0.517,9.088C111.86,126.192,109.819,125.381,107.757,125.339z"/>
<path fill-rule="evenodd" clip-rule="evenodd" fill="#fa57ac" class="fill" d="M113.388,136.104c-0.256,2.077-0.508,4.121-0.778,6.309
	c-2.633,0.165-5.228,0.327-8.002,0.5c0.591-3.132,1.153-6.116,1.728-9.164C108.938,133.815,111.193,134.649,113.388,136.104z"/>
<path fill-rule="evenodd" clip-rule="evenodd" fill="#fa57ac" class="fill" d="M101.276,160.437c0.404-2.361,0.771-4.503,1.146-6.696
	c2.537-0.778,5.117-0.858,7.831-1.349c-0.465,2.968-0.903,5.771-1.357,8.665C106.327,161.174,103.938,160.666,101.276,160.437z"/>
<path fill-rule="evenodd" clip-rule="evenodd" fill="#fa57ac" class="fill" d="M113.298,143.388c2.361-0.704,4.527,0.003,6.91,0.073
	c-0.401,2.818-0.784,5.5-1.161,8.147c-2.487-0.065-4.86-0.128-7.393-0.194C111.758,148.572,112.944,146.081,113.298,143.388z"/>
<path fill-rule="evenodd" clip-rule="evenodd" fill="#fa57ac" class="fill" d="M86.337,134.161c2.204-0.273,4.283-0.749,6.613-0.656
	c-0.6,3.345-0.87,6.608-0.306,9.991c-2.216-0.071-4.213-0.136-6.308-0.202C86.337,140.217,86.337,137.29,86.337,134.161z"/>
<path fill-rule="evenodd" clip-rule="evenodd" fill="#fa57ac" class="fill" d="M66.416,145.315c0.162-3.259,0.649-6.202,1.917-9.042
	c2.046-0.301,4.064-0.598,6.221-0.913c-0.404,2.94-0.785,5.719-1.181,8.602c-0.447,0.107-0.935,0.233-1.427,0.343
	c-1.279,0.283-2.556,0.574-3.84,0.83C67.613,145.233,67.101,145.245,66.416,145.315z"/>
<path fill-rule="evenodd" clip-rule="evenodd" fill="#fa57ac" class="fill" d="M108.973,77.721c-1.205,2.44-2.807,4.505-4.037,6.805
	c-0.083-0.045-0.165-0.091-0.247-0.137c-0.635-1.845-1.193-3.72-1.924-5.526c-0.72-1.784-1.613-3.498-2.439-5.261
	c1.7,0.878,2.809,2.526,4.404,3.589c-1.319-2.167-2.992-4.004-5.087-5.479c0-0.208-0.013-0.403,0.004-0.596
	c0.017-0.196,0.063-0.389,0.104-0.627c0.998-0.164,1.922,0.07,2.781,0.469C105.524,72.352,107.471,74.759,108.973,77.721z"/>
<path fill-rule="evenodd" clip-rule="evenodd" fill="#fa57ac" class="fill" d="M115.103,127.138c2.482,0,4.779,0,7.187,0
	c0.039,2.771-0.401,5.437-0.573,8.296c-2.422-0.236-4.738-0.644-7.141-1.085C114.755,131.893,114.928,129.529,115.103,127.138z"/>
<path fill-rule="evenodd" clip-rule="evenodd" fill="#fa57ac" class="fill" d="M119.999,153c2.588,0.546,4.902,1.166,7.269,2.095
	c0.14,1.947,0.28,3.915,0.43,5.989c-2.419,0.714-4.839,0.588-7.331,0.38C119.875,158.664,120.202,155.933,119.999,153z"/>
<path fill-rule="evenodd" clip-rule="evenodd" fill="#fa57ac" class="fill" d="M69.323,117.822c2.235-1.118,4.666-1.217,7.186-1.642
	c0.512,2.86-0.039,5.598-0.152,8.473c-1.895,0.261-3.725,0.513-5.685,0.783C70.216,122.868,69.771,120.353,69.323,117.822z"/>
<path fill-rule="evenodd" clip-rule="evenodd" fill="#fa57ac" class="fill" d="M75.5,153.945c1.004,2.417,1.946,4.687,2.97,7.152
	c-2.926,0.459-5.692-0.018-8.375,0.271c-1.014-2.273-1.729-4.784-1.669-5.884C70.647,154.671,73.022,154.461,75.5,153.945z"/>
<path fill-rule="evenodd" clip-rule="evenodd" fill="#fa57ac" class="fill" d="M87.991,75.861c0.438-0.514,0.857-1.046,1.319-1.538
	c0.483-0.516,1.009-0.993,1.638-1.432c0.094,0.965-0.491,1.745-0.659,2.618c-0.188,0.973-0.341,1.956-0.442,2.94
	c-0.098,0.95-0.154,1.909-0.146,2.864c0.01,0.924,0.123,1.849,0.199,2.881c-1.18-0.373-1.983-1.142-2.607-2.036
	c-1.516-2.17-2.628-4.547-3.324-7.109c-0.062-0.229-0.099-0.469-0.113-0.706c-0.02-0.315-0.006-0.633-0.006-0.914
	c1.505-1.196,5.934-2.902,7.533-2.904c0.204,0.635-0.246,0.906-0.66,1.208c-1.145,0.834-2.047,1.887-2.721,3.128
	c-0.137,0.254-0.175,0.562-0.258,0.846C87.825,75.759,87.908,75.81,87.991,75.861z"/>
<path fill-rule="evenodd" clip-rule="evenodd" fill="#fa57ac" class="fill" d="M95.683,95.673c-0.142-3.638,2.563-14.357,4.148-16.406
	c0.396,1.276,0.895,2.407,0.94,3.614c0.632,0.774,1.51,0.171,2.257,0.569c0.224,0.681,0.47,1.426,0.714,2.168
	C101.095,88.921,98.453,92.217,95.683,95.673z"/>
<path fill-rule="evenodd" clip-rule="evenodd" fill="#fa57ac" class="fill" d="M88.96,160.854c0.51,1.51,1.016,3.006,1.567,4.64
	c-2.909,1.48-5.935,2.207-9.267,2.395c-0.469-1.913-0.926-3.78-1.404-5.731C82.921,161.718,85.911,161.291,88.96,160.854z"/>
<path fill-rule="evenodd" clip-rule="evenodd" fill="#fa57ac" class="fill" d="M115.698,116.003c0.171-2.999-0.758-5.831-0.304-8.847
	c1.804-0.193,3.499,0.092,5.332,0.571c0.806,2.752,1.094,5.608,1.229,8.667C119.854,116.263,117.853,116.138,115.698,116.003z"/>
<path fill-rule="evenodd" clip-rule="evenodd" fill="#fa57ac" class="fill" d="M122.842,136.664c2.324,0.247,4.679,0.497,7.195,0.765
	c-0.491,2.55-0.967,5.019-1.462,7.589c-2.454-0.794-4.777-1.547-7.086-2.294C121.44,141.273,122.196,137.855,122.842,136.664z"/>
<path fill-rule="evenodd" clip-rule="evenodd" fill="#fa57ac" class="fill" d="M109.742,96.887c-1.59-0.089-3.132-0.142-4.667-0.273
	c-1.064-0.09-2.115-0.315-3.179-0.429c-1.064-0.115-2.137-0.169-3.205-0.245c-0.378-0.027-0.759-0.039-1.417-0.071
	c1.021-1.17,1.866-2.14,2.732-3.134c3.223,0.027,6.428,0.08,9.735,0.433C109.742,94.437,109.742,95.572,109.742,96.887z"/>
<path fill-rule="evenodd" clip-rule="evenodd" fill="#fa57ac" class="fill" d="M82.709,97.092c0-1.047,0-2.025,0-3.174
	c3.505-0.167,7.048-0.337,10.582-0.506c0.669,0.884,1.038,1.744,1.302,2.736c-0.314,0.081-0.507,0.187-0.684,0.166
	c-1.929-0.229-3.789,0.301-5.681,0.48c-1.5,0.142-3.004,0.246-4.507,0.352C83.417,97.167,83.107,97.116,82.709,97.092z"/>
<path fill-rule="evenodd" clip-rule="evenodd" fill="#fa57ac" class="fill" d="M132.476,155.897c-1.561-0.562-2.854-1.029-4.234-1.526
	c-0.13-2.6,0.132-5.129,0.824-7.693c1.398,0.224,2.506,0.863,3.688,1.676C132.744,150.789,132.641,153.261,132.476,155.897z"/>
<path fill-rule="evenodd" clip-rule="evenodd" fill="#fa57ac" class="fill" d="M87.938,152.733c2.043-0.31,3.793,0.364,5.641,0.724
	c0.318,1.679,0.619,3.264,0.947,4.982c-1.629,0.397-3.148,0.768-4.779,1.166C88.946,157.36,88.448,155.096,87.938,152.733z"/>
<path fill-rule="evenodd" clip-rule="evenodd" fill="#fa57ac" class="fill" d="M54.892,92.948c-1.004-1.172-1.842-2.15-2.742-3.202
	c0.398-0.619,0.723-1.262,1.173-1.801c1.832-2.195,3.65-4.405,5.581-6.512c0.868-0.949,1.987-1.668,3.103-2.392
	c-0.313,1.31-1.485,2.038-2.021,3.186c-0.553,1.186-1.227,2.313-1.838,3.471c-0.593,1.121-1.226,2.226-1.746,3.381
	C55.87,90.259,55.454,91.49,54.892,92.948z"/>
<path fill-rule="evenodd" clip-rule="evenodd" fill="#fa57ac" class="fill" d="M128.034,86.37c-0.646-0.375-1.187-0.69-1.834-1.066
	c1.959-3.765,3.875-7.448,5.882-11.307c0.845,0.693,1.557,1.278,2.216,1.819C132.192,79.388,130.55,83.075,128.034,86.37z"/>
<path fill-rule="evenodd" clip-rule="evenodd" fill="#fa57ac" class="fill" d="M123.257,117.584c0.959,0.107,1.766,0.197,2.668,0.298
	c-0.109,2.204,0.849,3.936,1.836,5.675c0.501,0.881,0.838,1.854,1.324,2.957c-1.965-0.117-3.683-0.22-5.502-0.329
	C123.475,123.32,123.37,120.571,123.257,117.584z"/>
<path fill-rule="evenodd" clip-rule="evenodd" fill="#fa57ac" class="fill" d="M83.123,102.431c0.865-0.197,1.622-0.501,2.388-0.522
	c2.941-0.086,5.887-0.085,8.83-0.109c0.154-0.002,0.311,0.047,0.591,0.094c0.044,0.73,0.087,1.469,0.138,2.334
	c-3.886,0.172-7.708,0.342-11.648,0.517C83.319,103.954,83.229,103.265,83.123,102.431z"/>
<path fill-rule="evenodd" clip-rule="evenodd" fill="#fa57ac" class="fill" d="M80.503,168.998c0.276,1.629,0.529,3.114,0.807,4.743
	c-0.401,0-0.702,0.041-0.99-0.007c-1.879-0.307-3.529-1.204-5.175-2.088c-0.368-0.198-0.715-0.535-0.935-0.894
	c-0.643-1.045-1.216-2.133-1.97-3.479c1.124,0.343,1.949,0.625,2.792,0.843c0.92,0.239,1.85,0.459,2.785,0.61
	C78.704,168.869,79.606,168.912,80.503,168.998z"/>
<path fill-rule="evenodd" clip-rule="evenodd" fill="#fa57ac" class="fill" d="M122.077,83.061c-0.756-0.273-1.267-0.457-1.938-0.7
	c2.307-4.267,4.516-8.433,6.099-13.088c0.796,0.695,1.411,1.233,2.064,1.802C126.218,75.086,124.171,79.029,122.077,83.061z"/>
<path fill-rule="evenodd" clip-rule="evenodd" fill="#fa57ac" class="fill" d="M96.422,104.184c-0.171-0.746-0.337-1.469-0.503-2.188
	c1.031-0.289,12.527,0.816,14.186,1.363c0,0.486,0,1.011,0,1.488C105.528,104.625,101.019,104.407,96.422,104.184z"/>
<path fill-rule="evenodd" clip-rule="evenodd" fill="#fa57ac" class="fill" d="M81.98,65.27c0.97,2.106,2.109,4.091,4.091,5.665
	c-1.201,0.649-2.267,1.226-3.296,1.781c-0.392,2.003,0.363,3.701,1.06,5.379c0.635,1.528,1.424,2.991,2.145,4.482
	c-0.047,0.02-0.153,0.086-0.172,0.068c-1.096-1.145-2.2-2.283-3.262-3.46c-0.195-0.216-0.285-0.582-0.311-0.887
	c-0.176-2.182-0.331-4.367-0.475-6.551c-0.111-1.704-0.215-3.408-0.281-5.114c-0.017-0.43,0.121-0.866,0.188-1.3
	C81.771,65.312,81.876,65.291,81.98,65.27z"/>
<path fill-rule="evenodd" clip-rule="evenodd" fill="#fa57ac" class="fill" d="M66.402,77.534c0.61,0.996,0.757,2.057,0.957,3.098
	c0.6,3.127,1.212,6.251,2.239,9.275c0.051,0.147,0.059,0.308,0.092,0.494c-0.51,0.558-0.996,1.119-1.98,1.244
	c-0.98-4.317-1.954-8.6-2.911-12.812C65.408,78.339,65.88,77.957,66.402,77.534z"/>
<path fill-rule="evenodd" clip-rule="evenodd" fill="#fa57ac" class="fill" d="M125.208,68.842c-0.485,1.323-0.93,2.535-1.418,3.865
	c-1.847-0.13-3.649-0.258-5.544-0.391c0-1.307,0-2.599,0-4.028C120.53,68.237,122.797,68.272,125.208,68.842z"/>
<path fill-rule="evenodd" clip-rule="evenodd" fill="#fa57ac" class="fill" d="M62.745,82.568c0.162,3.901,0.317,7.638,0.478,11.491
	c-1.167,0.393-2.29,0.971-3.706,0.871c0.136-0.804,0.23-1.541,0.387-2.264c0.623-2.871,1.266-5.738,1.899-8.607
	C61.923,83.513,62.16,83.044,62.745,82.568z"/>
<path fill-rule="evenodd" clip-rule="evenodd" fill="#fa57ac" class="fill" d="M140.627,80.598c-1.897,3.185-3.744,6.283-5.679,9.53
	c-0.713-0.359-1.354-0.681-2.033-1.023c1.958-3.366,3.845-6.611,5.782-9.943C139.326,79.63,139.952,80.096,140.627,80.598z"/>
<path fill-rule="evenodd" clip-rule="evenodd" fill="#fa57ac" class="fill" d="M75.393,76.125c0,1.328,0,2.456,0,3.734
	c-2.383,0.407-4.671,0.797-7.133,1.216c-0.168-0.877-0.333-1.747-0.527-2.76C70.221,77.487,72.651,76.712,75.393,76.125z"/>
<path fill-rule="evenodd" clip-rule="evenodd" fill="#fa57ac" class="fill" d="M145.157,83.46c0.969,0.77,1.883,1.496,2.926,2.326
	c-2.474,2.712-4.744,5.403-8.342,6.577c0.925-1.442,1.875-2.869,2.768-4.333C143.392,86.579,144.216,85.09,145.157,83.46z"/>
<path fill-rule="evenodd" clip-rule="evenodd" fill="#fa57ac" class="fill" d="M67.258,128.056c0.48-0.435,1.131-1.012,2.212-1.052
	c0.211,2.999-0.918,5.619-1.92,8.367c-1.119,0-2.215,0-3.422,0C65.142,133.003,66.136,130.679,67.258,128.056z"/>
<path fill-rule="evenodd" clip-rule="evenodd" fill="#fa57ac" class="fill" d="M62.38,147.197c0.978-0.214,1.887-0.414,2.872-0.63
	c0.584,2.854,1.138,5.557,1.698,8.299c-0.452,0.229-0.871,0.44-1.408,0.711C63.958,153.006,62.812,150.315,62.38,147.197z"/>
<path fill-rule="evenodd" clip-rule="evenodd" fill="#fa57ac" class="fill" d="M67.02,109.643c0,1.372-0.098,2.488,0.027,3.578
	c0.12,1.058,0.472,2.088,0.721,3.131c-0.513,0.29-1.022,0.579-1.657,0.938c-0.17-0.016-0.48-0.043-0.938-0.084
	c-0.598-2.063-1.202-4.152-1.858-6.417C64.622,110.385,65.772,110.029,67.02,109.643z"/>
<path fill-rule="evenodd" clip-rule="evenodd" fill="#fa57ac" class="fill" d="M91.302,83.801c0.631,0.21,1.152,0.383,1.65,0.549
	c0.355,2.358,0.702,4.66,1.049,6.961c-2.623-2.272-4.816-4.925-7.154-7.464c1.287,0.269,2.019,1.634,3.602,1.675
	C90.695,85.024,90.979,84.451,91.302,83.801z"/>
<path fill-rule="evenodd" clip-rule="evenodd" fill="#fa57ac" class="fill" d="M115.137,34.213c-0.438,0.28-0.658,0.446-0.899,0.568
	c-0.389,0.197-0.791,0.364-1.258,0.575c-3.08-0.949-5.229-2.986-6.895-5.832c0.544-0.639,1.045-1.227,1.689-1.982
	c0.465,1.901,1.719,3.03,2.793,4.287C111.721,33.177,113.419,33.494,115.137,34.213z"/>
<path fill-rule="evenodd" clip-rule="evenodd" fill="#fa57ac" class="fill" d="M75.231,88.253c-1.526,0.361-3.023,0.716-4.635,1.098
	c-0.526-0.906-0.794-1.954-1.036-3.002c1.992-1.037,3.774-1.501,5.615-1.476C75.49,85.703,75.499,86.08,75.231,88.253z"/>
<path fill-rule="evenodd" clip-rule="evenodd" fill="#fa57ac" class="fill" d="M97.757,73.81c-1.533,0.116-2.88,0.25-4.283-0.346
	c-0.222-1.172-0.245-2.316,0.627-3.399c1.152,0,2.338,0,3.631,0C98.067,71.297,97.79,72.497,97.757,73.81z"/>
<path fill-rule="evenodd" clip-rule="evenodd" fill="#fa57ac" class="fill" d="M107.007,72.849c-0.723-0.623-1.501-1.292-2.311-1.989
	c1.527-1.283,3.029-2.543,4.519-3.793c0.321,0.552,0.267,2.574-0.13,3.877C108.349,71.619,107.687,72.226,107.007,72.849z"/>
<path fill-rule="evenodd" clip-rule="evenodd" fill="#fa57ac" class="fill" d="M53.68,67.322c0.131,0.378,0.23,0.666,0.354,1.024
	c-2.05,1.889-4.674,2.725-7.03,4.223c-0.163-0.356-0.282-0.621-0.417-0.916c1.512-1.175,3.159-2.134,3.965-3.922
	C51.58,67.596,52.556,67.468,53.68,67.322z"/>
<path fill-rule="evenodd" clip-rule="evenodd" fill="#fa57ac" class="fill" d="M93.312,169.76c-0.555-1.329-1.008-2.414-1.512-3.617
	c1.309-0.709,2.582-1.399,3.912-2.122c0.574,1.045,0.396,1.966-0.127,2.772C94.966,167.747,94.203,168.609,93.312,169.76z"/>
<path fill-rule="evenodd" clip-rule="evenodd" fill="#fa57ac" class="fill" d="M93.952,79.886c1.04,0,1.939,0,2.843,0
	c0.087,0.908-0.671,3.606-1.656,5.707C94.594,83.618,94.387,81.768,93.952,79.886z"/>
<path fill-rule="evenodd" clip-rule="evenodd" fill="#fa57ac" class="fill" d="M129.623,166.835c-0.448-1.584-0.731-3.123-0.74-4.808
	c0.89-0.103,1.656-0.19,2.476-0.285C131.28,163.681,130.978,165.434,129.623,166.835z"/>
<path fill-rule="evenodd" clip-rule="evenodd" fill="#fa57ac" class="fill" d="M92.933,83.315c-0.703-0.297-1.199-0.506-1.7-0.718
	c-0.608-2.301,0.644-4.254,1.018-6.362C92.831,78.483,92.764,80.77,92.933,83.315z"/>
<path fill-rule="evenodd" clip-rule="evenodd" fill="#fa57ac" class="fill" d="M118.134,77.575c1.111,0.099,2.009,0.179,3.154,0.281
	c-0.756,1.413-1.419,2.648-2.107,3.935c-0.352-0.033-0.646-0.06-1.047-0.098C118.134,80.338,118.134,79.05,118.134,77.575z"/>
<path fill-rule="evenodd" clip-rule="evenodd" fill="#fa57ac" class="fill" d="M109.719,83.761c0,1.047,0,2.095,0,3.187c-1.194,0-2.286,0-3.634,0
	c1.203-1.228,2.243-2.333,3.307-3.415C109.5,83.609,109.609,83.685,109.719,83.761z"/>
<path fill-rule="evenodd" clip-rule="evenodd" fill="#fa57ac" class="fill" d="M115.919,27.841c-1.537,0.127-3.01,0.249-4.787,0.395
	c0.384-0.463,0.527-0.751,0.761-0.899c0.963-0.614,2.056-0.847,3.177-0.844C115.851,26.496,116.082,26.89,115.919,27.841z"/>
<path fill-rule="evenodd" clip-rule="evenodd" fill="#fa57ac" class="fill" d="M171.772,98.091c1.029-0.283,1.916-0.527,2.812-0.774
	c0.251,1.637-0.498,2.495-2.507,2.868C171.979,99.505,171.88,98.831,171.772,98.091z"/>
<path fill-rule="evenodd" clip-rule="evenodd" fill="#fa57ac" class="fill" d="M85.575,87.713c-0.939,0-1.879,0-2.962,0
	c-0.062-0.727-0.128-1.491-0.216-2.515c1.339,0.708,2.347,1.413,3.271,2.242C85.638,87.531,85.606,87.622,85.575,87.713z"/>
<path fill-rule="evenodd" clip-rule="evenodd" fill="#fa57ac" class="fill" d="M74.964,68.408c0.045,0.766,0.079,1.384,0.118,2.087
	c-1.168,0.258-2.267,0.501-3.418,0.755C71.985,70.571,73.794,69.001,74.964,68.408z"/>
<path fill-rule="evenodd" clip-rule="evenodd" fill="#fa57ac" class="fill" d="M102.781,82.103c-0.359,0.038-0.616,0.066-0.938,0.1
	c-0.41-1.508-0.803-2.958-1.195-4.409C101.748,79.012,102.532,80.346,102.781,82.103z"/>
<path fill-rule="evenodd" clip-rule="evenodd" fill="#fa57ac" class="fill" d="M49.059,85.865c-0.345-0.327-0.5-0.448-0.62-0.596
	c-0.146-0.179-0.264-0.381-0.417-0.609c0.95-0.829,2.09-1.031,3.073-1.266C50.479,84.141,49.806,84.958,49.059,85.865z"/>
<path fill-rule="evenodd" clip-rule="evenodd" fill="#fa57ac" class="fill" d="M132.632,136.758c-0.41-0.057-0.82-0.113-1.389-0.192
	c0.113-1.084,0.221-2.122,0.333-3.195C132.271,133.928,132.778,135.562,132.632,136.758z"/>
<path fill-rule="evenodd" clip-rule="evenodd" fill="#fa57ac" class="fill" d="M74.202,94.503c0.358-0.038,0.512-0.067,0.664-0.066
	c0.114,0.001,0.227,0.042,0.418,0.082c0.139,1.102,0.381,2.199-0.063,3.331C74.61,96.841,74.557,95.687,74.202,94.503z"/>
<path fill-rule="evenodd" clip-rule="evenodd" fill="#fa57ac" class="fill" d="M47.196,63.274c0.984,0.454,1.266,1.224,1.431,2.114
	C47.279,65.286,46.763,64.565,47.196,63.274z"/>
<path fill-rule="evenodd" clip-rule="evenodd" fill="#fa57ac" class="fill" d="M88.006,59.938c0.276-0.418,0.532-0.806,0.789-1.194
	c1.308,0.283,2.487,0.612,3.542,1.283c1.235,0.785,2.43,0.762,3.697,0.003c1.158-0.692,2.385-1.271,3.6-1.858
	c0.445-0.214,0.947-0.311,1.379-0.446c1.008,1.51,0.923,2.724-0.144,3.899c-1.681,1.854-3.931,2.497-6.269,2.887
	c-0.893,0.149-1.833,0.106-2.743,0.039c-2.044-0.153-3.277-1.295-3.669-3.31C88.112,60.85,88.076,60.453,88.006,59.938z"/>
<path fill-rule="evenodd" clip-rule="evenodd" fill="#fa57ac" class="fill" d="M97.87,51.824c-0.49-0.602-0.878-1.241-1.42-1.697
	c-0.523-0.44-1.207-0.69-1.856-1.042c0.919-0.831,1.596-0.911,2.401-0.357C97.995,49.415,98.349,50.57,97.87,51.824z"/>
<path fill-rule="evenodd" clip-rule="evenodd" fill="#fa57ac" class="fill" d="M91.091,45.408c-0.749,2.841-2.873,3.661-5.389,2.142
	c-0.221-1.623,0.289-2.79,1.438-3.304C88.408,43.679,90.045,44.146,91.091,45.408z M87.335,46.556
	c0.863,0.388,1.412,0.277,1.5-0.353c-0.09-0.164-0.197-0.363-0.291-0.531C87.417,45.644,87.417,45.644,87.335,46.556z"/>
<path fill-rule="evenodd" clip-rule="evenodd" fill="#fa57ac" class="fill" d="M99.892,44.815c0.52-0.458,1.05-0.942,1.597-1.406
	c1.041-0.885,2.38-0.636,3.005,0.575c0.199,0.386,0.35,0.808,0.453,1.23c0.242,0.988-0.133,1.633-1.075,1.943
	C102.247,47.692,100.335,46.673,99.892,44.815z M101.702,45.605c0.967,0.403,1.035,0.383,1.493-0.426
	C102.311,44.64,102.103,44.7,101.702,45.605z"/>
</svg>
