<svg version="1.1" id="svg" xmlns="http://www.w3.org/2000/svg" xmlns:xlink="http://www.w3.org/1999/xlink" x="0px" y="0px"
	 width="200px" height="200px" viewBox="0 0 200 200" enable-background="new 0 0 200 200" xml:space="preserve">
<path class="stroke" fill="#531863"  fill-rule="evenodd" clip-rule="evenodd" d="M91.05,125.96c0.096-2.471,0.232-4.852,0.272-7.234
	c0.076-4.447,0.119-8.896,0.132-13.344c0.014-4.509,0.008-9.019-0.049-13.527c-0.098-7.849-0.276-15.696-0.355-23.545
	c-0.04-3.892,0.066-7.785,0.104-11.678c0.006-0.595,0.001-1.189,0.001-2.076c-1.009,0.273-1.744,0.433-2.452,0.67
	c-3.136,1.049-6.306,0.205-8.394-2.334c-1.175-1.429-2.137-2.968-2.395-4.884c-0.083-0.61-0.438-1.292-0.88-1.723
	c-1.155-1.125-1.128-2.363-0.541-3.669c0.385-0.856,0.917-1.647,1.349-2.409c3.14-1.54,7.037-0.271,6.897,3.29
	c-0.366,0.508-0.783,1.086-1.341,1.86c0.578,0.931,1.177,1.894,1.641,2.642c2.196,0.804,3.893,0.337,5.593-0.781
	c0.312-3.589-0.123-7.168-0.357-10.715c-2.874-1.689-5.736-2.165-8.91-1.38c-2.743,0.679-5.566,1.066-8.372,1.453
	c-0.967,0.133-2-0.049-2.98-0.222c-1.036-0.183-2.036-0.564-3.068-0.789c-1.479-0.322-2.706-1.046-3.611-2.238
	c-2.336-3.078-3.785-6.521-4.055-10.405c-0.065-0.932-0.009-1.872-0.009-2.863c-0.333-0.303-0.648-0.609-0.982-0.893
	c-1.638-1.391-1.78-3.456-0.577-5.205c1.673-2.436,6.273-2.901,8.231-1.173c1.746,1.54,2.124,4.107,0.568,5.858
	c-0.589,0.663-1.151,1.348-1.795,2.105c0.299,1.5,0.456,3.065,0.939,4.522c0.677,2.04,2.181,3.463,4.124,4.355
	c0.518,0.238,1.158,0.208,2.056,0.352c-0.447-0.744-0.717-1.209-1.004-1.666c-1.655-2.623-2.479-5.457-2.083-8.569
	c0.273-2.146,0.652-4.279,0.913-6.427c0.076-0.629-0.025-1.303-0.167-1.929c-0.169-0.752-0.469-1.475-0.659-2.049
	c0.362-2.445,1.806-3.959,3.475-5.323c1.429-1.168,4.47-0.561,5.803,0.946c1.409,1.595,2.003,4.081,0.686,6.179
	c-0.527,0.84-1.168,1.482-2.101,1.807c-1.214,0.423-1.612,1.338-1.802,2.544c-0.359,2.267,0.001,4.427,0.64,6.579
	c0.467,1.573,1.396,2.601,3.096,2.886c1.584,0.266,3.155,0.388,4.79,0.244c-0.955-2.34-1.845-4.521-2.815-6.902
	c-2.052-1.104-2.722-2.736-1.886-5.271c0.359-1.088,0.551-2.247,1.489-3.106c1.696-1.554,4.135-1.482,5.612,0.289
	c1.193,1.431,1.514,3.023,0.91,4.837c-1.032,3.094,1.008,6.848,4.345,7.803c-0.17-2.886,0.712-5.721-0.572-8.535
	c-0.642-1.407-0.892-2.967-0.479-4.567c0.297-1.146,0.876-2.042,1.879-2.642c1.443-0.864,3.05-0.995,4.669-0.849
	c0.451,0.041,0.936,0.358,1.292,0.677c1.698,1.514,2.249,3.533,1.734,5.621c-0.394,1.597-0.583,3.148-0.552,4.765
	c0.03,1.641,0.006,3.282,0.006,5.05c2.6-0.97,2.826-3.27,3.363-5.459c-0.124-0.411-0.261-0.892-0.416-1.367
	c-0.505-1.553-0.312-2.956,0.823-4.196c0.333-0.364,0.588-0.803,0.866-1.216c1.089-1.615,2.914-1.978,4.682-1.119
	c1.593,0.774,2.504,2.041,2.928,3.646c0.471,1.778,0.257,3.439-1.446,4.588c-0.271,0.183-0.498,0.433-0.447,0.388
	c-0.668,2.357-1.238,4.366-1.837,6.479c2.826,0.375,5.699,0.961,8.621,0.481c2.859-0.471,4.08-2.211,3.652-5.082
	c-0.147-0.987-0.403-1.959-0.627-2.935c-0.248-1.082-0.514-2.16-0.774-3.24c-0.401-0.282-0.743-0.574-1.127-0.785
	c-2.529-1.382-2.633-4.909-1.393-6.756c0.278-0.413,0.562-0.827,0.79-1.267c0.536-1.035,1.463-1.581,2.521-1.735
	c1.923-0.28,3.866,0.097,5.43,1.146c1.997,1.34,2.577,3.398,1.693,5.854c-0.414,0.374-0.904,0.817-1.47,1.329
	c0.156,0.324,0.308,0.643,0.534,1.115c0.656-0.723,1.236-1.312,1.756-1.948c0.883-1.082,2.021-1.305,3.311-1.061
	c3.036,0.575,4.843,2.546,4.281,5.625c-0.557,3.049,0.274,5.853,0.605,8.74c0.482,4.212-0.437,7.75-3.717,10.67
	c-2.757,2.455-5.909,4.02-9.491,4.394c-3.825,0.399-7.535-0.264-10.743-2.689c-1.975-1.492-4.132-2.639-6.66-2.803
	c-3.537-0.229-6.713,2.527-6.857,6.023c-0.104,2.552-0.021,5.112-0.021,7.688c3.871,2.309,5.804,1.966,7.921-1.042
	c0.028-0.294,0.084-0.678,0.101-1.062c0.068-1.568,0.895-2.547,2.304-3.164c1.431-0.626,2.684-0.472,3.859,0.566
	c1.455,1.285,1.677,3.718,0.12,4.98c-1.527,1.239-2.692,2.772-3.988,4.181c-2.158,2.346-4.809,3.28-7.842,3.521
	c-0.43,0.035-0.856,0.117-1.469,0.203c-0.059,5.947-0.14,11.821-0.167,17.696c-0.027,5.895-0.035,11.79,0.014,17.684
	c0.048,5.888,0.167,11.776,0.269,17.664c0.103,5.893,0.224,11.785,0.334,17.564c0.494,0.792,1.12,1.042,1.883,1.138
	c3.635,0.452,7.038,1.639,10.205,3.453c2.593,1.485,4.289,3.674,4.73,6.706c0.156,1.072-0.18,2.009-0.556,3.035
	c-0.911,2.492-2.829,4.082-4.623,5.801c-1.667,1.599-2.836,3.469-3.898,5.535c-1.51,2.935-1.883,6.016-2.115,9.178
	c-0.153,2.066,0.596,3.972,1.392,5.786c0.73,1.664,1.701,3.27,2.825,4.696c0.835,1.061,2.047,1.85,3.169,2.651
	c0.743,0.53,1.416,1.052,1.771,2.061c-0.572,1.446-1.859,2.362-2.924,3.518c-3.073,0.244-4.678-2.262-7.23-3.868
	c0.296,0.865,0.4,1.397,0.647,1.851c0.93,1.707,1.78,3.477,2.893,5.06c2.589,3.683,5.283,7.293,8.003,10.88
	c0.697,0.918,1.672,1.621,2.474,2.465c0.392,0.411,0.678,0.922,0.982,1.346c-2.121,2.383-4.027,2.986-6.147,1.779
	c-1.033-0.587-1.849-1.577-2.712-2.434c-3.25-3.224-5.958-6.896-8.626-10.596c-2.651-3.675-4.903-7.557-6.103-11.974
	c-0.057-0.211-0.182-0.404-0.294-0.648c-0.194-0.058-0.399-0.141-0.61-0.171c-0.157-0.022-0.325,0.024-0.471,0.039
	c-0.083,0.105-0.191,0.181-0.213,0.277c-0.742,3.419-2.353,6.486-4.096,9.449c-2.027,3.447-4.233,6.798-6.507,10.09
	c-2.411,3.491-5.714,5.512-10.093,5.556c-1.322,0.013-2.38-0.385-3.386-1.396c0.138-0.881,0.281-1.795,0.437-2.79
	c4.863-4.854,8.94-10.357,12.264-16.784c-0.619,0.093-0.967,0.116-1.301,0.2c-0.861,0.218-1.729,0.426-2.57,0.708
	c-1.192,0.398-2.285,0.171-3.39-0.327c-2.104-0.948-2.487-1.921-1.738-3.64c2.867-2.361,5.37-4.475,7.931-6.513
	c1.798-1.43,2.645-3.415,3.328-5.478c0.19-0.572,0.013-1.337-0.183-1.955c-1.631-5.149-3.413-10.248-6.188-14.914
	c-0.67-1.126-1.58-2.162-2.559-3.041c-2.218-1.99-3.763-5.111-2.304-8.57c0.976-2.315,2.824-3.931,5.201-4.926
	c3.113-1.303,6.406-1.815,9.69-2.393C89.147,126.365,89.959,126.182,91.05,125.96z M126.657,18.826
	c0.1,2.87-0.502,5.309-1.593,7.643c-1.161,2.484-3.418,3.75-5.661,4.976c0.122,0.221,0.137,0.294,0.174,0.307
	c0.153,0.055,0.311,0.114,0.471,0.132c1.979,0.229,3.614-0.692,5.027-1.833c2.088-1.684,3.175-4.091,3.785-6.642
	c0.282-1.181,0.7-2.485-0.054-3.783C128.219,19.408,127.611,19.182,126.657,18.826z M99.669,133.837
	c-0.292,1.683-0.23,3.329,0.14,5.086c0.529-0.104,0.886-0.174,1.21-0.237c0.561-1.63,1.091-3.171,1.668-4.849
	C101.598,133.837,100.671,133.837,99.669,133.837z M82.439,137.16c0.885,0.971,1.914,1.464,3.464,1.298
	c-0.666-1.295-1.25-2.435-2.279-3.283C82.746,135.52,82.331,136.089,82.439,137.16z M85.242,144.595
	c-0.07,0.11-0.14,0.221-0.209,0.332c0.824,1.232,1.272,2.704,2.774,3.613c-0.142-1.169-0.284-2.338-0.434-3.58
	C86.585,144.825,85.914,144.709,85.242,144.595z M106.658,138.494c1.31-0.122,1.8-0.673,2.012-1.458
	c0.172-0.64-0.061-1.151-0.929-1.484C107.396,136.487,107.074,137.363,106.658,138.494z"/>
<path fill-rule="evenodd" clip-rule="evenodd" fill="#faae19" class="fill" d="M97.463,139.824c-1.201,0-2.17,0-3.068,0
	c-0.131-0.206-0.243-0.299-0.241-0.39c0.047-3.389,0.099-6.776,0.162-10.165c0.044-2.44,0.146-4.881,0.149-7.321
	c0.006-5.727-0.052-11.454-0.047-17.18c0.005-4.451,0.06-8.902,0.104-13.352c0.077-7.622,0.2-15.245,0.226-22.867
	c0.009-2.72-0.268-5.439-0.311-8.161c-0.065-4.226-0.064-8.452-0.053-12.678c0.009-3.673,0.069-7.346,0.109-11.019
	c0.07-6.234,0.141-12.469,0.219-18.702c0.004-0.324,0.069-0.647,0.116-1.059c0.464-0.059,0.873-0.111,1.244-0.158
	c0.101,0.196,0.193,0.292,0.192,0.387c-0.009,3.061-0.006,6.122-0.055,9.182c-0.028,1.713-0.195,3.424-0.212,5.137
	c-0.051,4.893-0.161,9.789-0.055,14.68c0.148,6.841,0.556,13.676,0.691,20.517c0.1,5.057-0.085,10.119-0.089,15.179
	c-0.002,2.225,0.17,4.45,0.195,6.676c0.085,7.678,0.129,15.358,0.211,23.037c0.033,3.051,0.086,6.104,0.208,9.153
	c0.069,1.716,0.423,3.426,0.424,5.139c0.001,2.642-0.235,5.284-0.285,7.928c-0.03,1.554,0.107,3.112,0.163,4.668
	C97.475,138.833,97.463,139.213,97.463,139.824z"/>
<path fill-rule="evenodd" clip-rule="evenodd" fill="#faae19" class="fill" d="M90.789,129.356c-0.079,0.729-0.125,1.154-0.171,1.572
	c-2.313,0.433-4.539,0.845-6.764,1.27c-0.542,0.104-1.094,0.198-1.609,0.388c-1.954,0.72-2.538,1.492-2.53,3.243
	c0.009,1.988,0.787,3.221,2.625,3.776c1.588,0.481,3.228,0.798,4.854,1.147c4.489,0.964,9.078,0.621,13.614,0.989
	c2.698,0.219,5.311-0.501,7.841-1.366c2.288-0.782,3.46-2.369,3.165-4.14c-0.291-1.746-1.197-3.211-2.92-3.763
	c-1.786-0.572-3.666-0.869-5.52-1.2c-1.199-0.214-2.425-0.271-3.782-0.414c-0.024-0.423-0.046-0.818-0.083-1.471
	c1.019,0.13,1.883,0.188,2.725,0.358c2.775,0.561,5.578,1.061,8.107,2.425c1.694,0.914,3.277,1.983,3.476,4.145
	c0.081,0.88,0.013,1.773,0.013,2.814c-1.58,1.561-3.316,3.169-5.546,3.683c-3.233,0.746-6.507,1.503-9.877,1.405
	c-2.556-0.074-5.156,0.098-7.657-0.317c-3.493-0.578-6.946-1.483-10.344-2.495c-1.209-0.36-2.413-1.257-3.256-2.226
	c-2.259-2.594-1.973-4.745,0.828-6.729c2.485-1.759,5.334-2.428,8.301-2.716C87.699,129.596,89.124,129.494,90.789,129.356z"/>
<path fill-rule="evenodd" clip-rule="evenodd" fill="#faae19" class="fill" d="M115.992,196.77c-1.245,0.408-2.043,0.075-2.746-0.67
	c-4.751-5.035-8.732-10.644-12.386-16.505c-2.956-4.744-3.68-9.906-3.22-15.373c0.399-4.756,2.038-9.076,4.201-13.257
	c0.943-1.822,1.789-3.696,2.75-5.693c1.138-0.269,2.281-0.538,3.426-0.807c0.064,0.109,0.128,0.218,0.193,0.326
	c-0.287,0.455-0.545,0.93-0.865,1.359c-2.846,3.831-4.941,8.04-6.418,12.572c-0.927,2.846-1.18,5.753-1.013,8.73
	c0.161,2.853,0.617,5.661,1.677,8.293c1.303,3.234,2.533,6.538,4.85,9.256c0.18,0.211,0.34,0.441,0.496,0.671
	c2.491,3.689,5.299,7.117,8.447,10.268C115.57,196.129,115.704,196.374,115.992,196.77z"/>
<path fill-rule="evenodd" clip-rule="evenodd" fill="#faae19" class="fill" d="M80.499,143.56c0.909,0.15,1.438,0.237,2.254,0.372
	c1.21,2.012,2.736,4.042,3.722,6.307c1.483,3.407,2.703,6.948,3.134,10.685c0.21,1.822,0.335,3.654,0.513,5.481
	c0.362,3.715-0.881,7.113-1.93,10.584c-1.744,5.775-4.875,10.708-8.787,15.194c-0.907,1.041-2.003,1.928-3.078,2.805
	c-0.633,0.516-1.407,0.822-2.591,0.56c0.774-0.809,1.355-1.462,1.984-2.066c5.234-5.031,9.145-10.901,11.145-17.922
	c1.294-4.542,1.686-9.111,0.602-13.833c-0.851-3.704-1.949-7.305-3.292-10.835c-0.608-1.597-1.594-3.047-2.382-4.577
	C81.377,145.505,81.017,144.667,80.499,143.56z"/>
<path fill-rule="evenodd" clip-rule="evenodd" fill="#faae19" class="fill" d="M120.409,10.629c-2.316-0.172-2.94-0.879-2.848-3.071
	c0.557-1.081,1.355-1.884,2.548-2.253c1.273-0.394,3.06,0.137,3.759,1.134c0.725,1.033,0.646,1.925-0.258,2.825
	c-0.468,0.465-0.95,0.916-1.412,1.386c-0.067,0.069-0.063,0.208-0.107,0.37c2.309,3.562,2.904,7.449,1.966,11.616
	c-1.189,5.282-4.835,7.023-9.832,6.283c-1.976-0.293-3.97-0.505-5.963-0.62c-3.817-0.221-6.668,1.752-9.241,4.271
	c-0.512,0.501-0.979,1.045-1.474,1.564c-0.024,0.024-0.106-0.006-0.271-0.022c-0.116-1.201,0.303-2.284,1.09-3.105
	c2.357-2.456,4.951-4.491,8.668-4.241c2.106,0.142,4.22,0.182,6.329,0.27c1.995,0.083,4.006,0.353,5.928-0.466
	c2.472-1.054,3.98-3.478,3.723-6.121c-0.118-1.208-0.325-2.42-0.62-3.598c-0.444-1.777-0.994-3.528-1.52-5.285
	C120.781,11.256,120.584,10.976,120.409,10.629z"/>
<path fill-rule="evenodd" clip-rule="evenodd" fill="#faae19" class="fill" d="M104.195,30.767c2.635-1.465,5.235-1.424,7.639,0.289
	c2.844,2.027,6.026,3.076,9.424,3.54c0.787,0.107,1.716,0.044,2.423-0.279c3.522-1.611,6.288-3.969,7.239-7.955
	c0.206-0.864,0.492-1.707,0.73-2.563c0.621-2.242,0.129-4.271-1.167-6.148c-1.011-0.489-2.499-0.332-2.696-1.874
	c-0.21-1.632,0.716-2.717,1.954-3.664c0.368-0.017,0.765-0.102,1.138-0.04c1.587,0.262,2.4,1.469,2.019,3.036
	c-0.223,0.916-0.556,1.805-0.773,2.494c0.339,1.777,0.678,3.349,0.933,4.934c0.779,4.841-1.078,8.574-4.876,11.489
	c-3.155,2.422-6.643,2.785-10.394,1.814c-1.909-0.494-3.622-1.387-5.349-2.302c-1.565-0.829-3.194-1.57-4.86-2.163
	C106.513,30.997,105.327,30.958,104.195,30.767z"/>
<path fill-rule="evenodd" clip-rule="evenodd" fill="#faae19" class="fill" d="M72.753,10.999c-0.506-0.662-0.969-1.269-1.37-1.794
	c0.288-2.113,1.755-3.541,3.468-3.502c1.245,0.028,2.303,1.112,2.455,2.515c0.2,1.844-0.567,2.555-3.481,3.149
	c-0.675,2.617-2.16,5.119-1.697,8.009c0.467,2.924,1.66,5.506,4.029,7.421c1.226,0.991,2.755,1.225,4.217,1.428
	c1.352,0.188,2.774,0.125,4.134-0.059c2.406-0.326,4.546,0.156,6.393,1.72c1.393,1.181,2.079,2.786,2.601,4.457
	c-0.093,0.071-0.186,0.142-0.278,0.213c-0.227-0.237-0.522-0.439-0.671-0.719c-1.486-2.779-3.766-4.144-6.935-3.973
	c-1.164,0.063-2.335,0.062-3.492,0.186c-5.35,0.574-10.635-2.555-11.077-8.688c-0.215-2.987-0.044-5.886,1.112-8.681
	C72.392,12.123,72.564,11.539,72.753,10.999z"/>
<path fill-rule="evenodd" clip-rule="evenodd" fill="#faae19" class="fill" d="M93.823,145.974c1.123,0,2.147,0,3.193,0
	c0.593,4.377-0.156,8.635-0.052,12.798c-0.358,3.154-0.708,6.239-1.066,9.389c-0.849,0.672-1.719,0.036-2.562,0.023
	C92.925,166.594,93.328,149.09,93.823,145.974z"/>
<path fill-rule="evenodd" clip-rule="evenodd" fill="#faae19" class="fill" d="M62.855,18.814c-1.074,5.003,0.172,9.314,4.214,12.115
	c3.473,2.406,7.541,2.201,10.954,0.482c1.931-0.084,3.417-0.194,4.903-0.201c1.548-0.009,3.1,0.033,4.644,0.144
	c1.449,0.105,2.362,1.08,3.397,2.383c-0.452-0.087-0.655-0.071-0.789-0.16c-2.763-1.802-5.745-1.832-8.827-1.124
	c-1.949,0.447-3.887,0.972-5.857,1.291c-2.337,0.378-4.653,0.088-6.919-0.63c-3.754-1.19-5.512-4.101-6.599-7.59
	c-0.69-2.215-1.004-4.456-0.154-6.644c-0.36-0.589-0.646-1.056-0.958-1.565c0.046-1.457,0.177-2.912,1.696-3.691
	c0.905-0.465,1.883-0.048,3.048,1.277c-0.144,0.88-0.316,1.938-0.46,2.817C64.173,18.184,63.484,18.514,62.855,18.814z"/>
<path fill-rule="evenodd" clip-rule="evenodd" fill="#faae19" class="fill" d="M105.529,16.45c-1.734-2.849-1.323-4.398,1.248-5.302
	c1.391,0.164,2.178,1,2.39,2.356c0.297,1.9-1.257,2.383-2.547,3.083c-0.12,0.547-0.329,1.083-0.339,1.623
	c-0.036,1.958-0.821,3.648-1.674,5.352c-1.258,2.515-3.499,3.775-5.899,4.858c-0.322,0.146-0.728,0.109-1.178,0.167
	c0-0.757,0-1.406,0-2.236c0.995-0.592,1.998-1.289,3.083-1.816C104.023,22.875,105.173,19.911,105.529,16.45z"/>
<path fill-rule="evenodd" clip-rule="evenodd" fill="#faae19" class="fill" d="M92.88,49.304c0.374,0.915,0.13,1.497-0.546,1.977
	c-2.037,1.444-4.316,1.941-6.772,1.782c-1.112-0.072-2.123-0.515-2.782-1.336c-0.959-1.198-1.862-2.49-2.51-3.873
	c-0.609-1.298-0.917-2.729-2.258-3.494c0.086-1.198,0.733-1.905,1.569-2.49c1.125-0.164,2.011,0.044,2.442,1.339
	c-0.408,0.647-0.843,1.335-1.244,1.973c0.82,3.635,1.703,4.794,5.849,5.267C88.79,50.695,89.907,50.406,92.88,49.304z"/>
<path fill-rule="evenodd" clip-rule="evenodd" fill="#faae19" class="fill" d="M93.66,27.465c-0.42,0.244-0.57,0.406-0.677,0.382
	c-1.403-0.323-2.833-0.575-4.183-1.056c-0.688-0.245-1.321-0.832-1.806-1.409c-0.674-0.803-1.184-1.744-1.767-2.624
	c-1.057-1.598-1.898-3.269-1.958-5.248c-0.015-0.483-0.219-0.959-0.321-1.374c-0.885-0.361-1.686-0.688-2.435-0.993
	c0.319-2.734,0.928-3.48,2.908-3.74c2.056,1.251,2.214,2.242,0.687,4.536c0.148,3.687,1.75,6.698,4.604,9.021
	c0.754,0.614,1.762,0.915,2.654,1.359C92.068,26.671,92.771,27.022,93.66,27.465z"/>
<path fill-rule="evenodd" clip-rule="evenodd" fill="#faae19" class="fill" d="M97.239,51.354c-0.021-0.449-0.041-0.866-0.067-1.432
	c0.382,0.062,0.642,0.065,0.874,0.148c2.952,1.05,5.672,0.655,8.122-1.316c1.195-0.962,2.082-2.119,2.228-3.74
	c0.036-0.399,0.35-0.773,0.614-1.319c0.611,0.187,1.127,0.346,1.523,0.467c0.293,1.331-0.481,1.703-1.205,2.03
	C106.393,52.044,101.991,53.604,97.239,51.354z"/>
<path fill-rule="evenodd" clip-rule="evenodd" fill="#faae19" class="fill" d="M95.617,8.546c1.38,0.368,1.882,1.381,1.906,2.726
	c0.021,1.149-0.648,1.848-1.604,2.305c-1.071,0.514-1.915,0.075-2.624-0.691C92.581,10.262,93.203,9.104,95.617,8.546z"/>
<path fill-rule="evenodd" clip-rule="evenodd" fill="#faae19" class="fill" d="M110.91,175.618c-0.436,0.829-0.988,0.606-1.423,0.25
	c-0.901-0.738-1.816-1.483-2.589-2.347c-1.995-2.228-3.23-4.917-4.431-7.62c-0.473-1.066-0.207-2.052,0.125-3.059
	c0.783-0.035,0.79,0.53,0.909,0.998c0.676,2.659,1.735,5.147,3.12,7.522C107.681,173.181,109.139,174.547,110.91,175.618z"/>
<path fill-rule="evenodd" clip-rule="evenodd" fill="#faae19" class="fill" d="M85.429,169.955c0,0.532,0,1.064,0,1.704
	c-2.045,2.255-4.581,3.564-7.759,3.585C80.479,173.89,83.117,172.32,85.429,169.955z"/>
<path fill-rule="evenodd" clip-rule="evenodd" fill="#faae19" class="fill" d="M90.51,138.801c-0.697,0-1.158,0-1.654,0
	c-0.673-1.61-1.309-3.13-2.012-4.814c0.637-0.133,1.147-0.24,1.854-0.389C89.306,135.345,89.88,136.993,90.51,138.801z"/>
<path fill-rule="evenodd" clip-rule="evenodd" fill="#faae19" class="fill" d="M105.191,134.64c0.576,0.195,0.916,0.31,1.458,0.493
	c-0.493,1.242-0.947,2.387-1.419,3.578c-0.604,0-1.066,0-1.764,0C104.061,137.306,104.588,136.064,105.191,134.64z"/>
<path fill-rule="evenodd" clip-rule="evenodd" fill="#faae19" class="fill" d="M100.479,149.68c0.163-1.369,0.434-2.716,1.226-3.885
	c0.127-0.188,0.55-0.178,1.206-0.364c-0.801,1.687-1.449,3.052-2.098,4.417C100.703,149.792,100.591,149.735,100.479,149.68z"/>
</svg>
