<svg version="1.1" id="svg" xmlns="http://www.w3.org/2000/svg" xmlns:xlink="http://www.w3.org/1999/xlink" x="0px" y="0px"
	 width="200px" height="200px" viewBox="0 0 200 200" enable-background="new 0 0 200 200" xml:space="preserve">
<g>
	<path class="stroke" fill="#1a1a37"  d="M174.641,143.829c-1.28-1.038-2.593-2.036-3.892-3.052c-1.667-1.308-3.33-2.617-4.996-3.925
		c-0.674-0.528-1.341-1.068-2.027-1.579c-1.958-1.458-3.941-2.882-5.881-4.363c-0.738-0.562-1.354-1.284-2.081-1.864
		c-2.074-1.656-4.209-3.24-6.264-4.921c-3.503-2.865-6.956-5.785-10.438-8.676c-2.406-1.998-4.824-3.983-7.233-5.979
		c-0.154-0.129-0.272-0.306-0.407-0.46c1.526,0.785,2.957,1.676,4.424,2.499c2.821,1.582,5.663,3.124,8.494,4.685
		c0.973,0.536,1.96,1.051,2.911,1.622c0.831,0.499,1.616,1.075,2.438,1.592c0.316,0.201,0.669,0.454,1.049,0.083
		c-0.011-0.868-0.723-1.111-1.258-1.494c-4.15-2.971-8.305-5.933-12.454-8.906c-0.188-0.134-0.324-0.339-0.484-0.512
		c1.73,0.798,3.324,1.765,4.931,2.707c3.501,2.055,7.025,4.074,10.515,6.15c4.331,2.575,8.807,4.868,13.289,7.156
		c2.242,1.143,4.432,2.382,6.667,3.538c0.501,0.26,1.08,0.383,1.637,0.518c0.417,0.101,0.793,0.014,0.923-0.646
		c-0.271-0.228-0.563-0.533-0.908-0.756c-1.467-0.95-3.09-1.679-4.237-3.074c-0.108-0.131-0.302-0.19-0.452-0.29
		c-1.645-1.083-3.302-2.153-4.934-3.258c-2.049-1.39-4.06-2.838-6.12-4.21c-1.702-1.132-3.443-2.208-5.186-3.274
		c-1.439-0.881-2.958-1.636-4.354-2.577c-3.866-2.606-7.708-5.25-11.52-7.939c-2.664-1.881-5.262-3.861-7.885-5.803
		c-0.149-0.111-0.257-0.28-0.385-0.423c5.454,1.937,10.801,4.034,16.125,6.203c5.351,2.181,10.421,4.952,15.783,7.275
		c-0.062-0.832-0.057-0.844-0.371-1.049c-0.24-0.156-0.509-0.268-0.759-0.409c-2.655-1.504-5.342-2.958-7.954-4.534
		c-1.903-1.148-3.705-2.461-5.561-3.691c-0.295-0.196-0.615-0.368-0.944-0.502c-0.828-0.336-1.715-0.558-2.491-0.979
		c-2.748-1.488-5.468-3.027-8.185-4.572c-2.498-1.42-4.96-2.908-7.473-4.301c-3.584-1.985-7.042-4.169-10.443-6.445
		c-0.174-0.115-0.302-0.293-0.612-0.604c0.524,0.139,0.81,0.186,1.074,0.288c3.289,1.27,6.578,2.546,9.866,3.824
		c2.716,1.056,5.423,2.135,8.146,3.166c1.113,0.42,2.222,0.823,3.201,1.52c0.31,0.22,0.686,0.344,1.082,0.537
		c0.176-0.326,0.302-0.564,0.414-0.773c0.226-0.051,0.411-0.093,0.734-0.167c-1.348-0.788-2.483-1.656-3.765-2.155
		c-2.408-0.94-4.5-2.393-6.651-3.759c-2.181-1.388-4.248-2.97-6.498-4.23c-3.255-1.823-6.607-3.479-9.96-5.12
		c-2.062-1.009-4.209-1.842-6.305-2.787c-0.952-0.429-1.97-0.772-2.672-1.729c3.479,0.527,6.957,1.055,10.4,1.577
		c0.277-0.69-0.115-0.854-0.481-1.013c-0.526-0.229-1.067-0.426-1.595-0.66c-4.134-1.832-8.271-3.662-12.398-5.509
		c-2.525-1.131-5.084-2.199-7.538-3.469c-2.396-1.242-4.79-2.467-7.294-3.475c-0.215-0.087-0.396-0.257-0.591-0.389
		c0.819,0.127,1.601,0.276,2.339,0.538c3.017,1.073,6.018,2.191,9.031,3.272c1.184,0.425,2.384,0.805,3.58,1.197
		c2.699,0.885,5.398,1.775,8.104,2.638c0.381,0.121,0.838,0.331,1.258-0.256c-0.233-0.189-0.442-0.432-0.705-0.555
		c-0.586-0.274-1.197-0.491-1.801-0.725c-3.181-1.237-6.452-2.231-9.551-3.687c-1.658-0.777-3.394-1.381-5.074-2.109
		c-2.212-0.957-4.407-1.949-6.601-2.944c-1.291-0.587-2.565-1.214-3.848-1.823c0.327-0.123,0.646-0.152,0.938-0.076
		c2.856,0.743,5.709,1.5,8.56,2.261c1.665,0.444,3.328,0.91,4.997,1.346c0.204,0.053,0.441-0.02,0.903-0.049
		c-0.357-0.471-0.58-0.769-0.803-1.064c-0.732-0.203-1.365-0.534-2.01-0.835c-1.104-0.516-2.201-1.058-3.332-1.51
		c-1.636-0.652-3.301-1.227-4.95-1.849c-3.599-1.357-7.192-2.723-10.788-4.084c-0.885-0.333-1.769-0.659-2.649-0.988
		c0.02-0.08,0.037-0.16,0.056-0.239c0.98,0.137,1.958,0.289,2.94,0.408c1.601,0.193,3.203,0.375,4.807,0.533
		c0.229,0.022,0.473-0.117,0.907-0.235c-4.34-1.819-8.548-3.194-12.888-4.184c0.01-0.077,0.02-0.154,0.026-0.231
		c0.34-0.047,0.679-0.128,1.019-0.138c8.654-0.235,17.239,0.288,25.67,2.423c-0.786-0.309-1.565-0.628-2.365-0.887
		c-4.061-1.313-8.245-2.007-12.474-2.468c-4.142-0.453-8.285-0.926-12.437-1.278c-2.176-0.185-4.373-0.12-6.562-0.185
		c-0.993-0.03-1.986-0.103-2.98-0.157c-0.004-0.069-0.009-0.139-0.014-0.208c2.498-0.292,4.999-0.583,7.636-0.892
		c-0.62-0.766-1.341-0.766-1.987-0.848c-2.388-0.303-4.78-0.6-7.179-0.818c-1.719-0.155-3.451-0.166-5.162,0.159
		c-1.696,0.321-3.38,0.706-5.082,0.988c-1.726,0.287-3.354,0.844-4.881,1.667c-6.016,3.241-10.077,8.235-12.792,14.41
		c-0.186,0.418-0.273,0.903-0.299,1.362c-0.062,1.073-0.059,2.15-0.081,3.225c-0.048,2.524,0.021,5.046,0.673,7.499
		c0.584,2.189,1.32,4.335,1.932,6.517c0.612,2.193,1.451,4.291,2.487,6.312c0.248,0.483,0.37,1.112,1.03,1.24
		c0.413-0.254,0.287-0.566,0.18-0.879c-0.375-1.078-0.761-2.153-1.117-3.239c-0.793-2.426-1.585-4.853-2.342-7.291
		c-0.185-0.596-0.225-1.236-0.332-1.856c0.068-0.017,0.137-0.033,0.205-0.049c0.114,0.324,0.216,0.652,0.341,0.972
		c0.416,1.071,0.826,2.146,1.265,3.208c0.439,1.062,0.986,2.085,1.355,3.17c1.761,5.17,4.251,9.984,7.049,14.651
		c0.114,0.192,0.289,0.349,0.524,0.628c0.081-1.263-0.222-2.278-0.7-3.251c-0.507-1.033-1.151-2.018-1.517-3.099
		c-0.837-2.479-1.542-5.003-2.292-7.511c-0.035-0.118,0.011-0.258,0.018-0.388c0.058-0.021,0.116-0.042,0.174-0.062
		c3.548,5.682,7.098,11.365,10.742,17.2c0.266-0.3,0.515-0.454,0.525-0.62c0.016-0.308-0.05-0.653-0.185-0.932
		c-0.517-1.066-1.079-2.11-1.615-3.167c-0.329-0.652-0.637-1.312-0.957-1.97c0.074-0.047,0.15-0.093,0.228-0.14
		c0.469,0.568,0.94,1.13,1.404,1.702c2.047,2.506,4.055,5.046,6.148,7.513c1.697,1.999,3.486,3.922,5.258,5.856
		c1.214,1.324,2.464,2.614,3.703,3.915c0.785,0.826,1.683,1.476,3.008,1.871c-0.895-1.771-2.172-2.959-3.289-4.284
		c-1.131-1.342-2.109-2.812-3.174-4.212s-2.211-2.743-3.211-4.188c-0.972-1.404-2.29-2.565-2.993-4.16
		c1.108,0.984,2.177,1.991,3.207,3.034c2.298,2.325,4.617,4.63,6.849,7.018c2.035,2.178,3.96,4.462,5.947,6.686
		c1.031,1.153,2.067,2.304,3.146,3.411c1.731,1.776,3.494,3.522,5.254,5.271c0.829,0.824,1.42,1.917,2.688,2.367
		c0.151-0.071,0.362-0.169,0.607-0.284c-0.081-0.2-0.106-0.348-0.187-0.453c-0.88-1.141-1.524-2.426-2.29-3.634
		c-1.494-2.362-3.188-4.598-4.8-6.884c-0.496-0.704-1.002-1.4-1.496-2.106c-0.715-1.021-1.422-2.046-2.132-3.07
		c2.946,1.737,4.873,4.52,7.351,6.851c-0.186,0.668,0.211,1.196,0.671,1.667c1.006,1.029,2.022,2.046,3.063,3.04
		c3.328,3.18,6.676,6.339,10,9.524c2.021,1.939,4.01,3.915,6.023,5.863c0.191,0.184,0.454,0.291,0.674,0.428
		c0.889-0.667-0.056-1.299,0.163-1.818c-0.536-0.706-1-1.347-1.494-1.966c-0.47-0.591-0.971-1.158-1.455-1.737
		c-0.507-0.608-1.024-1.209-1.517-1.829c-0.471-0.591-0.912-1.206-1.373-1.805c-0.479-0.628-0.979-1.241-1.447-1.88
		c-0.446-0.609-0.838-1.257-1.284-1.866c-0.97-1.326-0.979-1.321-1.071-1.992c2.637,2.571,5.2,5.14,7.842,7.629
		c2.615,2.465,5.246,4.922,7.984,7.247c2.761,2.342,5.224,5.023,8.109,7.211c0.375-0.188,0.648-0.323,0.896-0.449
		c4.062,4.179,13.47,12.722,14.387,13.059c0.543-0.444,0.285-0.883-0.041-1.292c-1.123-1.399-2.301-2.758-3.379-4.19
		c-1.836-2.438-3.63-4.909-5.416-7.386c-1.028-1.425-1.965-2.919-3.261-4.113c-0.743-0.197-1.408,0.036-1.97,0.414
		c-0.727,0.491-1.476,0.692-2.172,0.591c-1.799-2.26-3.524-4.429-5.252-6.596c0.201-0.027,0.332,0.02,0.437,0.101
		c1.398,1.072,2.769,2.179,4.195,3.209c0.602,0.434,1.315,0.715,1.985,1.05c0.08,0.04,0.206-0.012,0.339-0.024
		c0.044-0.171,0.088-0.338,0.135-0.511c-1.093-1.347-2.173-2.676-3.251-4.005c0.057-0.06,0.113-0.12,0.168-0.18
		c7.479,6.432,15.249,12.494,23.126,18.528c0.228-0.273,0.401-0.48,0.634-0.755c-6.414-6.952-13.11-13.55-19.562-20.395
		c0.626,0.311,1.19,0.685,1.707,1.115c1.302,1.079,2.568,2.199,3.87,3.273c2.221,1.829,4.401,3.713,6.702,5.434
		c3.482,2.605,7.054,5.094,10.588,7.628c3.215,2.306,6.434,4.604,9.646,6.913c1.605,1.152,3.214,2.302,4.803,3.477
		c1.241,0.919,2.446,1.884,3.678,2.817c2.578,1.956,5.149,3.919,7.748,5.849c1.355,1.007,2.758,1.95,4.142,2.917
		c0.084,0.058,0.195,0.077,0.319,0.124c0.281-0.112,0.57-0.227,0.904-0.36c-0.103-0.294-0.126-0.578-0.275-0.747
		c-1.699-1.901-3.307-3.901-5.152-5.649c-3.232-3.06-6.609-5.968-9.938-8.929c-2.229-1.984-4.423-4.012-6.728-5.905
		c-2.442-2.007-5.024-3.843-7.496-5.814c-2.443-1.95-4.828-3.973-7.23-5.972c-0.584-0.485-1.14-1.005-1.708-1.508
		c0.973,0.423,1.849,0.97,2.709,1.539c3.029,2.001,6.043,4.026,9.085,6.012c2.528,1.651,5.074,3.276,7.632,4.882
		c2.77,1.74,5.56,3.443,8.341,5.165c1.344,0.832,2.678,1.679,4.029,2.496c1.195,0.722,2.411,1.411,3.708,2.168
		c-0.148-1.283-0.944-1.902-1.729-2.521c-4.258-3.36-8.542-6.687-12.774-10.081c-3.279-2.63-6.493-5.34-9.731-8.021
		c-0.262-0.215-0.475-0.49-0.708-0.737c0.367-0.024,0.611,0.101,0.839,0.249c2.625,1.701,5.223,3.445,7.875,5.098
		c3.112,1.94,6.268,3.812,9.415,5.693c3.485,2.083,6.981,4.149,10.482,6.208c0.327,0.194,0.717,0.287,1.191,0.471
		c0.178-0.462,0.321-0.835,0.489-1.27c-5.062-3.328-9.814-6.916-14.591-10.472c-4.782-3.56-9.702-6.937-14.322-10.71
		c-4.606-3.762-9.535-7.118-14.009-11.068c0.336,0.026,0.609,0.153,0.854,0.321c0.474,0.326,0.926,0.683,1.396,1.013
		c1.413,0.988,2.85,1.945,4.243,2.96c2.558,1.86,5.067,3.784,7.636,5.628c3.939,2.831,7.913,5.615,11.869,8.424
		c0.674,0.479,1.307,1.017,1.997,1.468c2.431,1.59,4.83,3.225,7.353,4.688c3.6,2.087,7.033,4.46,10.552,6.692
		c0.503,0.318,1.079,0.523,1.612,0.777C175.29,144.476,175.296,144.36,174.641,143.829z"/>
	<path class="stroke" fill="#1a1a37"  d="M130.23,83.433c2.277,0.951,4.589,1.831,7.041,2.283c2.295,0.423,4.62,0.726,6.885,1.281
		c3.158,0.775,6.399,0.856,9.582,1.403c0.24,0.041,0.507-0.074,0.762-0.117c0.026-0.116,0.054-0.232,0.08-0.348
		c-0.305-0.212-0.588-0.471-0.922-0.624c-0.388-0.179-0.815-0.27-1.23-0.389c-3.545-1.022-7.176-1.752-10.631-3.084
		c-2.742-1.059-5.473-2.146-8.215-3.208c-0.468-0.182-0.948-0.348-1.438-0.451c-0.697-0.15-1.332,0.09-1.699,0.672
		C129.955,81.627,129.715,82.488,130.23,83.433z"/>
	<path class="stroke" fill="#1a1a37"  d="M66.441,114.737c-1.036-1.193-2.144-2.327-3.147-3.546c-1.705-2.07-3.38-4.168-5.017-6.294
		c-1.535-1.991-3.018-4.023-4.496-6.056c-0.803-1.103-1.546-2.245-2.323-3.381c-0.364-0.022-0.676-0.039-1.045-0.061
		c-0.198,0.362-0.384,0.698-0.626,1.139c6.522,8.861,13.581,17.192,21.829,24.475c-1.146-1.862-2.901-3.188-4.228-4.891
		C67.094,115.643,66.805,115.157,66.441,114.737z"/>
	<path class="stroke" fill="#1a1a37"  d="M82.573,48.091c-0.164,0.784,0.263,1.268,0.667,1.621c3.842,1.128,7.529,2.224,11.224,3.294
		c3.451,1,6.903,1.994,10.366,2.945c1.051,0.289,2.143,0.428,3.216,0.635c0.022-0.072,0.047-0.145,0.067-0.216
		C106.213,55.198,85.069,48.379,82.573,48.091z"/>
	<path class="stroke" fill="#1a1a37"  d="M100.936,58.249c-0.34-0.121-0.732-0.096-1.111-0.139c-0.02,1.369,0.338,1.879,1.533,2.062
		c1.578,0.242,3.023,0.874,4.513,1.385c1.933,0.665,3.844,1.396,5.784,2.033c1.431,0.47,2.893,0.834,4.338,1.246
		c1.762,0.5,3.521,1.005,5.285,1.5c0.188,0.053,0.393,0.046,0.596,0.067c0.032-0.104,0.067-0.207,0.103-0.312
		c-0.747-0.324-1.48-0.68-2.241-0.966c-2.586-0.971-5.28-1.621-7.8-2.809c-1.684-0.793-3.495-1.31-5.247-1.955
		C104.77,59.656,102.859,58.934,100.936,58.249z"/>
	<path class="stroke" fill="#1a1a37"  d="M76.126,118.379c-1.854-2.047-3.752-4.053-5.627-6.081c-0.362-0.391-0.691-0.813-1.044-1.214
		c-0.578-0.656-1.162-1.307-1.835-2.062c-0.306,0.474-0.507,0.787-0.781,1.211c0.81,0.972,1.544,1.935,2.365,2.819
		c1.438,1.55,2.921,3.058,4.402,4.569c0.701,0.716,1.416,1.426,2.175,2.083c0.307,0.266,0.615,0.762,1.406,0.321
		C76.811,119.431,76.541,118.838,76.126,118.379z"/>
	<path class="stroke" fill="#1a1a37"  d="M117.774,73.638c0.169,0.829,0.903,0.829,1.478,1.036c2.059,0.743,4.113,1.495,6.184,2.201
		c0.983,0.335,1.998,0.582,3.002,0.858c0.824,0.228,1.653,0.439,2.423,0.642c0.208-0.234,0.302-0.34,0.542-0.611
		c-0.352-0.259-0.596-0.533-0.898-0.647c-2.217-0.836-4.433-1.682-6.678-2.441c-1.385-0.469-2.811-0.832-4.238-1.164
		C119.006,73.376,118.341,73.024,117.774,73.638z"/>
	<path class="stroke" fill="#1a1a37"  d="M51.768,36.829c1.161-0.23,2.316-0.491,3.48-0.704c2.115-0.388,4.236-0.759,6.356-1.121
		c2.331-0.396,4.665-0.776,6.997-1.162c0.662-0.109,1.324-0.219,1.986-0.328c-0.012-0.088-0.021-0.176-0.031-0.264
		c-1.208,0.066-2.421,0.071-3.62,0.211c-3.093,0.362-6.186,0.75-9.268,1.194c-1.845,0.265-3.676,0.643-5.507,0.993
		c-0.559,0.107-1.113,0.271-1.471,0.781C51.166,36.939,51.167,36.948,51.768,36.829z"/>
	<path class="stroke" fill="#1a1a37"  d="M30.063,84.709c0.003,0.017,0.003,0.035,0.003,0.053l0.026-0.014C30.082,84.734,30.073,84.722,30.063,84.709z"/>
	<path class="stroke" fill="#1a1a37"  d="M28.435,74.358c-0.274-2.714-0.472-5.437-0.677-8.158c-0.066-0.879-0.05-1.765-0.074-2.766
		c-0.352,0.119-0.528,0.179-0.828,0.279c0.065,2.002,0.039,3.982,0.213,5.943c0.217,2.394,0.594,4.773,0.916,7.156
		c0.328,2.425,0.901,4.796,1.595,7.139c0.08,0.275,0.311,0.508,0.484,0.757c-0.024-0.334-0.014-0.676-0.095-0.996
		C29.197,80.637,28.752,77.506,28.435,74.358z"/>
	<path class="stroke" fill="#1a1a37"  d="M49.869,102.123c-2.021-3.668-4.231-7.237-5.83-11.127c-0.023-0.057-0.105-0.091-0.25-0.209
		c-0.182,0.077-0.415,0.173-0.791,0.331c0.637,1.345,1.117,2.548,1.752,3.665c1.561,2.743,3.191,5.447,4.797,8.167
		c0.798,1.354,1.619,2.695,2.391,4.065c0.251,0.445,0.373,0.965,0.991,1.242c-0.149-0.387-0.235-0.701-0.379-0.983
		C51.667,105.551,50.804,103.816,49.869,102.123z"/>
	<path class="stroke" fill="#1a1a37"  d="M35.229,84.417c-0.065,0.249-0.217,0.509-0.179,0.741c0.091,0.6,0.191,1.217,0.424,1.771
		c0.635,1.526,1.316,3.037,2.026,4.53c1.325,2.784,2.766,5.512,3.755,8.447c0.179,0.535,0.507,1.02,0.766,1.527
		c0.066-0.036,0.133-0.071,0.199-0.107c-1.892-5.759-4.584-11.202-6.641-16.897C35.464,84.424,35.348,84.42,35.229,84.417z"/>
	<path class="stroke" fill="#1a1a37"  d="M82.107,120.355c0.912,1.614,2.202,2.834,3.454,4.034c2.866,2.746,3.247,2.938,4.098,2.962
		c-2.31-2.444-4.612-4.88-6.965-7.367C82.543,120.081,82.349,120.203,82.107,120.355z"/>
	<path class="stroke" fill="#1a1a37"  d="M30.496,85.633c-0.135-0.275-0.272-0.551-0.407-0.826C30.068,85.137,30.093,85.451,30.496,85.633z"/>
	<path class="stroke" fill="#1a1a37"  d="M30.066,84.762c0.009,0.015,0.016,0.029,0.022,0.045c0.003-0.02,0.003-0.039,0.004-0.059L30.066,84.762z"/>
</g>
<path fill-rule="evenodd" clip-rule="evenodd" fill="#e2e6bc" class="fill" d="M152.433,128.813c-1.606-1.085-3.221-2.159-4.817-3.258
	c-1.627-1.121-3.234-2.267-4.852-3.4c-1.939-1.359-3.893-2.698-5.817-4.078c-1.107-0.794-2.164-1.662-3.252-2.484
	c-1.485-1.124-2.961-2.259-4.47-3.348c-2.065-1.488-4.174-2.917-6.234-4.411c-2.148-1.556-4.26-3.163-6.393-4.739
	c-0.606-0.448-1.233-0.867-1.854-1.296c-1.62-1.12-3.233-2.249-4.862-3.354c-1.037-0.704-2.125-1.338-3.15-2.062
	c-1.642-1.161-3.215-2.423-4.883-3.545c-2.381-1.603-4.757-3.229-7.249-4.64c-2.664-1.506-5.147-3.255-7.623-5.027
	c-0.695-0.497-1.42-0.951-2.218-1.481c0.025,0.47,0.308,0.735,0.584,0.964c1.187,0.986,2.388,1.952,3.586,2.921
	c2.291,1.853,4.567,3.723,6.882,5.549c3.465,2.736,6.956,5.443,10.438,8.157c0.963,0.751,1.938,1.487,2.915,2.221
	c2.41,1.815,4.835,3.611,7.233,5.442c1.626,1.243,3.219,2.531,4.828,3.798c0.617,0.488,1.236,0.978,1.863,1.458
	c3.477,2.671,6.943,5.353,10.438,8.002c2.778,2.106,5.59,4.169,8.385,6.251c3.286,2.447,6.586,4.878,9.854,7.35
	c1.254,0.947,2.435,1.989,3.646,2.987c-0.046,0.073-0.091,0.146-0.136,0.22c-0.626-0.351-1.27-0.672-1.87-1.057
	c-2.241-1.425-4.483-2.848-6.694-4.317c-1.732-1.15-3.404-2.393-5.132-3.549c-3.369-2.252-6.755-4.478-10.141-6.705
	c-3.357-2.21-6.724-4.41-10.087-6.612c-1.886-1.235-3.812-2.415-5.656-3.709c-2.646-1.857-5.229-3.808-7.851-5.7
	c-3.294-2.375-6.652-4.661-9.882-7.118c-2.799-2.129-5.689-4.14-8.312-6.506c-1.971-1.774-4.171-3.291-6.279-4.909
	c-2.534-1.947-5.072-3.889-7.623-5.812c-0.888-0.669-1.812-1.291-2.734-1.911c-0.242-0.163-0.546-0.236-0.822-0.351
	c-0.054,0.069-0.107,0.138-0.163,0.207c0.116,0.178,0.192,0.404,0.352,0.525c1.534,1.185,3.093,2.339,4.624,3.528
	c2.808,2.181,5.596,4.387,8.404,6.568c2.383,1.852,4.771,3.698,7.177,5.523c2.971,2.256,5.954,4.497,8.947,6.725
	c3.083,2.295,6.169,4.585,9.282,6.84c2.354,1.707,4.783,3.311,7.121,5.038c2.543,1.878,5.033,3.827,7.521,5.778
	c3.309,2.596,6.55,5.281,9.899,7.824c3.897,2.959,7.68,6.054,11.336,9.306c0.912,0.812,1.906,1.53,2.855,2.302
	c0.243,0.197,0.46,0.429,0.602,0.84c-0.256-0.106-0.535-0.176-0.766-0.323c-1.688-1.09-3.407-2.144-5.042-3.312
	c-1.605-1.148-3.354-2.054-5.009-3.108c-2.295-1.461-4.467-3.112-6.695-4.68c-1.017-0.715-2.03-1.432-3.057-2.132
	c-2.047-1.394-4.118-2.75-6.146-4.172c-1.642-1.154-3.223-2.395-4.848-3.575c-3.429-2.488-6.901-4.917-10.29-7.462
	c-1.973-1.483-3.8-3.162-5.723-4.718c-0.836-0.677-1.758-1.249-2.619-1.899c-2.178-1.646-4.322-3.328-6.516-4.952
	c-1.152-0.854-2.355-1.645-3.572-2.406c-0.619-0.388-1.321-0.648-1.985-0.965c-0.048,0.073-0.097,0.147-0.145,0.221
	c2.574,2.071,5.136,4.154,7.721,6.211c3.681,2.931,7.408,5.807,11.056,8.782c1.473,1.202,2.733,2.661,4.184,3.893
	c2.411,2.047,4.909,3.99,7.344,6.007c2.826,2.34,5.62,4.717,8.435,7.071c2.591,2.169,5.197,4.323,7.786,6.495
	c2.698,2.264,5.399,4.526,8.075,6.818c2.841,2.431,5.651,4.894,8.469,7.349c0.294,0.256,0.55,0.554,0.708,0.989
	c-0.715-0.475-1.445-0.925-2.138-1.428c-3.835-2.79-7.657-5.598-11.493-8.387c-1.655-1.204-3.35-2.353-4.997-3.566
	c-1.385-1.021-2.713-2.119-4.091-3.147c-1.521-1.136-3.11-2.185-4.6-3.36c-1.547-1.222-3.002-2.563-4.514-3.831
	c-3.111-2.606-6.238-5.191-9.35-7.796c-2.508-2.098-4.98-4.239-7.512-6.31c-2.141-1.75-4.344-3.424-6.516-5.135
	c-1.292-1.018-2.668-1.952-3.851-3.087c-1.476-1.416-2.775-3.012-4.179-4.505c-2.437-2.59-4.95-5.097-8.074-6.937
	c0.592,0.668,1.147,1.373,1.783,1.996c1.614,1.584,3.296,3.104,4.891,4.708c0.646,0.65,1.078,1.512,1.716,2.172
	c2.621,2.712,5.278,5.392,7.938,8.066c1.878,1.887,3.757,3.772,5.681,5.612c2.752,2.636,5.606,5.168,8.304,7.859
	c2.49,2.487,4.836,5.122,7.239,7.698c0.514,0.553,1.007,1.127,1.496,1.703c0.168,0.2,0.298,0.434,0.33,0.76
	c-0.677-0.508-1.396-0.971-2.025-1.533c-2.835-2.528-5.642-5.085-8.462-7.632c-1.386-1.252-2.781-2.494-4.163-3.75
	c-3.188-2.897-6.37-5.797-9.552-8.701c-2.175-1.983-4.342-3.976-6.514-5.96c-4.378-4-8.784-7.971-13.127-12.008
	c-1.736-1.614-3.324-3.386-5.003-5.06c-0.811-0.806-1.602-1.625-2.643-2.185c-0.581-0.312-1.016-0.898-1.522-1.353
	c-0.229-0.206-0.477-0.393-0.897-0.735c0.551,1.338,1.509,2.015,2.328,2.776c3.143,2.922,5.986,6.094,8.609,9.498
	c2.506,3.246,5.234,6.317,7.871,9.46c1.572,1.875,3.122,3.771,4.741,5.604c1.765,1.995,3.604,3.921,5.396,5.891
	c0.652,0.718,1.256,1.483,1.9,2.209c1.674,1.879,3.361,3.748,5.039,5.624c0.138,0.155,0.25,0.331,0.245,0.621
	c-0.371-0.357-0.736-0.716-1.108-1.071c-1.635-1.559-3.295-3.093-4.902-4.679c-2.832-2.796-5.617-5.638-8.452-8.432
	c-2.584-2.546-5.188-5.072-7.818-7.568c-1.667-1.582-3.433-3.062-5.103-4.643c-1.197-1.135-2.299-2.372-3.461-3.547
	c-1.591-1.612-3.145-3.266-4.812-4.795c-1.942-1.784-3.577-3.837-5.344-5.774c-0.17-0.187-0.325-0.39-0.515-0.553
	c-1.016-0.875-2.043-1.741-3.122-2.565c2.064,2.819,4.609,5.249,6.694,8.045c2.098,2.811,4.047,5.73,5.984,8.698
	c-0.171-0.101-0.375-0.169-0.507-0.308c-2.429-2.541-4.874-5.068-7.264-7.645c-2.636-2.844-5.221-5.738-7.83-8.608
	c-2.1-2.308-4.192-4.621-6.312-6.91c-0.419-0.452-0.823-1.025-1.76-0.892c0.103,0.331,0.148,0.629,0.278,0.889
	c0.643,1.289,1.313,2.562,1.959,3.848c0.479,0.956,0.937,1.922,1.243,3.008c-0.389-0.427-0.795-0.838-1.163-1.282
	c-1.469-1.772-3.006-3.492-4.364-5.345c-1.892-2.577-3.688-5.227-5.439-7.901c-1.143-1.742-2.159-3.569-3.184-5.385
	c-1.562-2.771-1.399-5.652-0.422-8.554c0.886-2.631,2.562-4.621,4.977-5.991c0.218-0.125,0.453-0.228,0.654-0.379
	c2.984-2.273,6.319-2.049,9.696-1.306c3.634,0.798,7.078,2.176,10.538,3.515c3.291,1.274,6.508,2.702,9.611,4.375
	c2.432,1.312,4.797,2.754,7.199,4.124c2.373,1.354,4.774,2.656,7.126,4.046c1.544,0.913,3.011,1.953,4.526,2.916
	c1.455,0.924,2.927,1.824,4.395,2.729c0.328,0.203,0.668,0.386,0.973,0.642c-0.92-0.019-1.672-0.498-2.45-0.875
	c-1.938-0.943-3.847-1.948-5.782-2.897c-2.062-1.009-4.136-1.996-6.217-2.968c-2.274-1.064-4.58-2.069-6.844-3.157
	c-1.488-0.713-2.919-1.544-4.391-2.291c-1.019-0.517-2.062-0.983-3.102-1.464c-0.088-0.042-0.207-0.017-0.371-0.025
	c-0.074,0.18-0.149,0.364-0.249,0.605c1.398,0.818,2.727,1.677,4.128,2.399c3.228,1.662,6.506,3.224,9.732,4.888
	c3.067,1.581,6.131,3.174,9.129,4.878c2.997,1.704,5.948,3.495,8.85,5.357c2.266,1.457,4.378,3.152,6.643,4.614
	c3.107,2.007,6.296,3.889,9.444,5.834c1.528,0.945,3.034,1.925,4.564,2.866c2.235,1.375,4.453,2.78,6.732,4.079
	c3.87,2.207,7.786,4.339,11.68,6.507c0.427,0.238,0.837,0.509,1.207,0.854c-1.92-0.715-3.959-0.983-5.799-1.979
	c-2.048-1.108-4.235-1.961-6.375-2.895c-2.544-1.108-4.956-2.456-7.275-3.967c-1.687-1.098-3.318-2.273-5.02-3.347
	c-1.546-0.979-3.062-2.093-4.743-2.751c-4.128-1.614-7.572-4.354-11.352-6.533c-2.58-1.488-5.119-3.046-7.696-4.539
	c-2.634-1.526-5.3-2.997-7.937-4.52c-2.238-1.293-4.448-2.634-6.683-3.933c-0.704-0.41-1.45-0.75-2.401-1.237
	c0.07,0.405,0.035,0.696,0.149,0.781c1.145,0.847,2.314,1.657,3.474,2.482c0.584,0.415,1.136,0.881,1.741,1.258
	c3.169,1.973,6.349,3.936,9.537,5.879c3.13,1.907,6.286,3.769,9.405,5.692c0.687,0.423,1.27,1.015,1.902,1.531
	c-1.227-0.59-2.264-1.552-3.602-2.006c-0.365,0.829,0.256,0.991,0.628,1.232c2.555,1.654,5.113,3.307,7.698,4.916
	c1.085,0.675,2.234,1.25,3.367,1.849c0.224,0.12,0.499,0.141,0.752,0.208c-1.523-1.193-3.105-2.216-4.663-3.274
	c-1.419-0.964-2.81-1.968-4.21-2.955c1.291,0.704,2.599,1.377,3.869,2.118c2.171,1.268,4.354,2.521,6.463,3.888
	c2.408,1.562,4.734,3.254,7.113,4.865c1.369,0.927,2.771,1.802,4.156,2.705c2.644,1.722,5.324,3.39,7.918,5.182
	c4.525,3.124,8.967,6.367,13.5,9.479c2.605,1.788,5.329,3.403,7.982,5.123c2.135,1.383,4.242,2.806,6.296,4.361
	c-0.21-0.067-0.437-0.1-0.624-0.206c-3.396-1.938-6.786-3.888-10.182-5.828c-1.18-0.674-2.396-1.291-3.559-1.995
	c-2.605-1.578-5.202-3.178-7.778-4.803c-2.035-1.28-4.044-2.602-6.051-3.922c-1.136-0.746-2.218-1.575-3.376-2.28
	c-1.811-1.103-3.673-2.119-5.496-3.195c-3.059-1.806-6.115-3.614-9.153-5.454c-1.525-0.924-3.015-1.911-4.512-2.884
	c-2.195-1.427-4.367-2.891-6.577-4.294c-2.117-1.345-4.279-2.618-6.402-3.954c-1.271-0.8-2.504-1.665-3.762-2.487
	c-3.366-2.201-6.725-4.413-10.111-6.581c-1.136-0.727-2.346-1.338-3.532-1.982c-0.157-0.084-0.378-0.05-0.671,0.096
	c0.18,0.185,0.336,0.4,0.537,0.547c0.811,0.587,1.64,1.143,2.453,1.724c4.177,2.987,8.323,6.017,12.536,8.956
	c2.827,1.971,5.769,3.78,8.612,5.729c2.164,1.483,4.344,2.93,6.652,4.186c0.657,0.357,1.197,0.917,1.823,1.335
	c2.513,1.671,5.059,3.29,7.549,4.991c2.403,1.641,4.757,3.353,7.123,5.048c1.022,0.732,2.018,1.499,3.021,2.256
	c0.137,0.103,0.245,0.243,0.277,0.51c-0.677-0.347-1.384-0.65-2.032-1.049c-2.087-1.283-4.346-2.207-6.549-3.257
	c-1.027-0.489-1.917-1.258-2.884-1.878c-1.022-0.657-2.068-1.278-3.091-1.933c-1.236-0.792-2.443-1.634-3.697-2.401
	c-1.489-0.912-3.014-1.765-4.641-2.537c0.102,0.136,0.176,0.312,0.311,0.403c2.277,1.565,4.546,3.147,6.851,4.67
	c3.359,2.218,6.716,4.428,9.773,7.069c2.12,1.831,4.342,3.547,6.552,5.271c3.147,2.454,6.324,4.865,9.483,7.303
	c3.526,2.723,7.061,5.44,10.567,8.19c1.216,0.953,2.344,2.017,3.541,2.992c1.004,0.815,2.055,1.569,3.074,2.36
	c0.294,0.226,0.723,0.358,0.676,0.855L152.433,128.813z M91.426,91.033c1.586,1.68,3.297,3.038,5.082,4.307
	c0.38,0.27,0.729,0.58,1.104,0.853c1.425,1.029,2.808,2.124,4.291,3.06c2.209,1.395,4.51,2.65,6.37,4.529
	c0.017,0.016,0.106-0.042,0.185-0.074c-1.084-1.446-2.429-2.611-3.875-3.654c-1.889-1.362-3.871-2.602-5.709-4.028
	c-1.867-1.448-3.916-2.668-5.564-4.4c-0.367-0.386-0.834-0.679-1.265-1.002c-0.073-0.055-0.196-0.045-0.361-0.078
	C91.603,90.695,91.524,90.843,91.426,91.033z M92.596,83.933c0.014-0.15,0.09-0.356,0.029-0.411
	c-0.877-0.784-1.727-1.609-2.672-2.304c-3.556-2.62-7.237-5.044-11.285-7.147c0.216,0.934,0.936,1.06,1.444,1.411
	c1.828,1.261,3.671,2.498,5.504,3.751c0.916,0.626,1.842,1.24,2.729,1.904c0.945,0.706,1.846,1.473,2.778,2.194
	C91.541,83.655,91.953,84.025,92.596,83.933z M85.25,93.533c0.082-0.076,0.165-0.152,0.248-0.228
	c-0.27-0.266-0.524-0.548-0.812-0.793c-0.9-0.77-1.844-1.491-2.717-2.29c-3.019-2.768-6.208-5.326-9.489-7.772
	c-0.287-0.215-0.572-0.443-0.889-0.605c-0.181-0.092-0.425-0.061-0.682-0.088c0.021,0.238-0.01,0.395,0.046,0.44
	C75.717,85.981,80.482,89.757,85.25,93.533z M80.024,101.647c0.038-0.038,0.077-0.077,0.115-0.115
	c-0.152-0.181-0.298-0.368-0.457-0.542c-2.089-2.272-4.175-4.548-6.271-6.813c-1.145-1.236-2.309-2.457-3.463-3.685
	c-0.317-0.337-0.619-0.707-1.232-0.496c0.047,0.153,0.047,0.316,0.129,0.403c2.432,2.587,4.84,5.196,7.32,7.734
	C77.383,99.375,78.734,100.48,80.024,101.647z M80.509,79.792c0.05-0.083,0.099-0.165,0.147-0.248
	c-3.573-2.289-6.527-5.4-10.225-7.555c-0.414,0.32-0.355,0.633-0.045,0.913c0.346,0.311,0.713,0.602,1.092,0.873
	c0.816,0.583,1.684,1.104,2.463,1.733c1.786,1.44,3.695,2.695,5.66,3.869C79.887,79.546,80.206,79.655,80.509,79.792z
	 M69.615,84.623c-2.047-2.536-4.065-5.096-6.611-7.29c-0.178,0.254-0.287,0.412-0.38,0.544
	C63.423,79.154,68.638,84.258,69.615,84.623z M59.673,81.762c1.643,1.728,2.954,3.647,4.772,5.087
	c0.058-0.051,0.116-0.1,0.172-0.151c-1.463-1.883-2.926-3.767-4.47-5.753C59.948,81.288,59.848,81.462,59.673,81.762z
	 M118.05,109.913c-1.645-1.756-4.065-2.386-5.766-4.189c-0.179,0.342-0.271,0.519-0.369,0.707
	C113.704,108.106,116.031,108.732,118.05,109.913z M64.654,72.525c0.755,0.612,1.48,1.176,2.18,1.77
	c1.572,1.333,1.568,1.338,2.562,1.444c-1.649-1.244-2.556-2.982-4.285-3.984C64.938,72.043,64.824,72.239,64.654,72.525z
	 M54.719,79.723c-1.096-1.56-2.193-3.121-3.363-4.783c-0.184,0.329-0.28,0.504-0.4,0.723C52.133,77.098,52.974,78.791,54.719,79.723
	z M67.1,66.072c0.064-0.042,0.129-0.086,0.192-0.129c-0.831-1.551-1.723-3.055-3.284-4.172c-0.173,0.256-0.297,0.438-0.371,0.548
	C64.836,63.619,65.969,64.845,67.1,66.072z M69.438,66.424c1.441,0.771,2.572,2.014,4.379,2.389
	c-0.654-0.858-3.283-2.741-4.143-3.012C69.606,65.979,69.537,66.161,69.438,66.424z M75.926,89.151
	c-0.312-1.059-1.156-1.637-1.926-2.207c-0.775-0.575-1.239-1.547-2.283-1.896c-0.257,0.91,0.447,1.151,0.863,1.51
	c0.921,0.79,1.887,1.526,2.84,2.278C75.574,88.958,75.758,89.046,75.926,89.151z M63.944,74.558
	c0.046-0.846-0.614-1.992-1.718-2.967c-0.177-0.155-0.38-0.28-0.679-0.498c-0.109,0.349-0.186,0.588-0.214,0.677
	C62.278,72.779,63.111,73.669,63.944,74.558z M70.146,63.468c-0.662-1.07-1.638-1.7-2.801-2.34
	c-0.086,0.398-0.139,0.647-0.211,0.985C68.275,62.396,68.977,63.379,70.146,63.468z M95.712,85.865
	c0.587,0.392,1.061,0.705,1.528,1.023c0.872,0.588,0.872,0.589,1.498,0.591c-0.736-0.979-1.669-1.629-2.688-2.329
	C95.904,85.461,95.82,85.639,95.712,85.865z M65.345,68.005c0.826,0.555,1.602,1.077,2.42,1.629
	c-0.042-0.788-0.831-1.712-1.821-2.194c-0.141-0.068-0.328-0.041-0.55-0.062C65.373,67.645,65.356,67.845,65.345,68.005z
	 M65.578,76.552c0.774,0.663,1.459,1.247,2.141,1.831c0.067-0.059,0.132-0.117,0.199-0.176c-0.316-0.934-1.131-1.502-1.795-2.179
	c-0.034-0.034-0.135-0.002-0.26-0.001C65.797,76.15,65.717,76.296,65.578,76.552z M57.673,78.814
	c-0.367-0.9-0.774-1.521-1.418-2.055c-0.156,0.157-0.276,0.276-0.414,0.415C56.211,77.882,56.622,78.483,57.673,78.814z
	 M61.834,51.514c0.448,0.559,1.22,1,1.761,1.043c0.059,0.003,0.13-0.148,0.295-0.353c-0.534-0.333-1.022-0.658-1.536-0.935
	C62.27,51.225,62.068,51.397,61.834,51.514z M59.154,75.567c0.644,0.389,1.198,0.725,1.939,1.173
	c-0.517-1.13-1.326-1.825-1.779-1.612C59.283,75.216,59.236,75.341,59.154,75.567z"/>
<path fill-rule="evenodd" clip-rule="evenodd" fill="#e2e6bc" class="fill" d="M124.922,84.385c-6.975-2.478-13.414-5.962-19.719-9.833
	c0.165-0.184,0.324-0.361,0.565-0.631c0.942,0.479,1.87,0.93,2.78,1.418c1.8,0.97,3.589,1.964,5.386,2.942
	c3.436,1.87,6.875,3.732,10.309,5.606C124.488,84.021,124.696,84.217,124.922,84.385z"/>
<path fill-rule="evenodd" clip-rule="evenodd" fill="#e2e6bc" class="fill" d="M87.877,118.638c-3.204-3.033-5.891-6.222-8.884-9.405
	c0.636-0.189,1.117-0.333,1.542-0.459C81.899,109.815,86.886,116.488,87.877,118.638z"/>
<path fill-rule="evenodd" clip-rule="evenodd" fill="#e2e6bc" class="fill" d="M63.156,98.663c0.575-0.19,0.937-0.309,1.424-0.469
	c2.539,3.208,4.769,6.608,7.155,9.894c-0.074,0.064-0.151,0.127-0.228,0.19c-1.376-1.542-2.77-3.07-4.126-4.631
	C66.003,102.057,64.657,100.437,63.156,98.663z"/>
<path fill-rule="evenodd" clip-rule="evenodd" fill="#e2e6bc" class="fill" d="M113.132,134.103c0.351-0.225,0.7-0.449,1.16-0.745
	c1.896,2.388,3.77,4.752,5.797,7.308C118.809,140.17,114.529,136.054,113.132,134.103z"/>
<path fill-rule="evenodd" clip-rule="evenodd" fill="#e2e6bc" class="fill" d="M149.016,103.608c-1.506-0.712-3.013-1.424-4.585-2.168
	c0.118-0.312,0.214-0.56,0.351-0.916c1.516,0.994,2.952,1.937,4.391,2.88C149.119,103.472,149.068,103.541,149.016,103.608z"/>
<path fill-rule="evenodd" clip-rule="evenodd" fill="#e2e6bc" class="fill" d="M152.404,128.827c0.285,0.102,0.572,0.204,0.855,0.307
	c-0.035,0.068-0.068,0.136-0.103,0.205c-0.237-0.178-0.477-0.355-0.718-0.529C152.433,128.813,152.404,128.827,152.404,128.827z"/>
<path fill-rule="evenodd" clip-rule="evenodd" fill="#e2e6bc" class="fill" d="M131.688,82.574c0.252-0.444,0.369-0.65,0.477-0.842
	c1.11,0.128,4.216,1.358,5.377,2.188C135.491,83.448,133.686,83.034,131.688,82.574z"/>
</svg>
