<svg version="1.1" id="svg" xmlns="http://www.w3.org/2000/svg" xmlns:xlink="http://www.w3.org/1999/xlink" x="0px" y="0px"
	 width="200px" height="200px" viewBox="0 0 200 200" enable-background="new 0 0 200 200" xml:space="preserve">
<path class="stroke" fill="#51575c"  d="M184.695,96.306c-0.894-3.465-1.413-7.026-2.282-10.5c-1.096-4.381-2.376-8.715-3.583-13.067
	c-0.253-0.918-0.505-1.84-0.801-2.745c-0.992-3.03-2.014-6.048-3.005-9.079c-1.218-3.725-2.623-7.338-5.183-10.405
	c-1.011-1.212-1.856-2.566-2.723-3.891c-2.134-3.265-3.983-6.756-6.414-9.78c-3.516-4.376-7.767-8.033-12.731-10.778
	c-2.694-1.489-5.393-2.977-8.054-4.523c-3.224-1.872-6.701-3.13-10.172-4.434c-2.92-1.097-5.767-2.397-8.62-3.666
	c-3.877-1.727-7.714-3.542-11.597-5.254c-3.073-1.356-6.188-2.615-9.329-3.936c-0.871,0.584-1.689,1.023-2.371,1.617
	c-1.329,1.16-2.589,2.403-3.865,3.623c-1.599,1.529-3.158,3.099-4.782,4.6c-2.51,2.323-5.157,4.506-7.566,6.928
	c-2.313,2.325-4.332,4.941-6.596,7.318c-3.889,4.083-7.122,8.61-9.806,13.565c-1.527,2.821-3.435,5.356-5.799,7.605
	c-2.254,2.146-4.285,4.561-6.199,7.025c-2.688,3.464-5.094,7.146-7.771,10.617c-3.106,4.029-5.733,8.288-7.438,13.108
	c-0.436,1.235-1.109,2.427-1.871,3.498c-1.598,2.245-3.482,4.298-4.965,6.609c-2.261,3.524-4.412,7.134-6.353,10.84
	c-1.168,2.232-1.748,4.765-2.77,7.085c-2.178,4.944-5.198,9.388-8.436,13.694c-1.657,2.203-3.225,4.476-4.848,6.737
	c-0.087,0.367-0.18,0.757-0.32,1.348c1.113,2.294,2.132,4.699,3.413,6.957c1.614,2.849,3.283,5.691,5.215,8.326
	c2.481,3.384,5.26,6.538,8.53,9.229c2.102,1.731,4.024,3.679,6.152,5.372c1.373,1.094,2.992,1.872,4.463,2.846
	c2.503,1.658,5.229,2.78,8.043,3.813c2.427,0.893,4.776,2.11,6.979,3.476c3.434,2.131,6.657,4.599,10.075,6.755
	c5.699,3.596,11.96,5.95,18.389,7.849c3.881,1.146,7.827,2.021,11.914,2.077c0.898,0.013,1.833,0.189,2.679,0.493
	c1.345,0.483,2.66,1.079,3.935,1.73c2.814,1.438,5.599,2.931,8.387,4.417c3.005,1.603,6.128,2.865,9.504,3.433
	c3.364,0.566,6.767,0.982,10.092,0.036c3.695-1.051,7.492-1.94,10.802-3.99c1.497-0.928,2.976-2.055,4.088-3.398
	c2.649-3.204,4.998-6.651,7.612-9.883c2.522-3.117,5.258-6.053,7.229-9.593c2.727-4.896,5.361-9.838,7.294-15.104
	c1.365-3.718,3.236-7.11,5.96-9.968c2.893-3.036,5.248-6.435,7.346-10.038c0.592-1.019,1.265-1.99,1.831-3.021
	c0.848-1.547,1.837-3.06,2.4-4.71c0.991-2.911,1.654-5.933,2.549-8.878c0.834-2.747,2.121-5.438,1.961-8.343
	C185.04,105.404,185.861,100.829,184.695,96.306z"/>
<path fill-rule="evenodd" clip-rule="evenodd" fill="#f7dad4" class="fill" d="M36.373,107.756c-3.004,5.947-6.008,11.894-8.982,17.781
	c-0.615,0.05-1.07,0.087-1.574,0.128c-0.047,1.46,1.209,1.524,1.93,2.036c0.603,0.427,1.416,0.546,2.051,0.938
	c3.183,1.97,6.343,3.978,9.498,5.99c0.396,0.253,0.718,0.624,1.149,0.794c1.762,0.971,3.5,1.985,5.288,2.902
	c3.593,1.847,7.18,3.709,10.836,5.423c1.654,0.775,3.535,1.063,5.195,1.827c3.57,1.64,7.107,3.368,10.58,5.207
	c3.74,1.979,7.356,4.197,11.096,6.18c2.624,1.389,5.324,2.659,8.07,3.788c1.752,0.72,3.651,1.084,5.417,1.59
	c0.19,0.612,0.342,1.105,0.603,1.943c1.274-1.851,2.581-1.085,3.976-0.666c1.533,0.463,3.187,0.518,4.718,0.982
	c1.953,0.591,3.894,1.296,5.738,2.165c2.821,1.331,5.561,2.836,8.326,4.283c1.956,1.025,3.867,2.137,5.851,3.103
	c2.665,1.299,5.535,1.933,8.52,2.462c1.465-2.327,2.891-4.612,4.345-6.883c0.269-0.418,0.734-0.721,0.965-1.155
	c0.876-1.645,1.617-3.366,2.551-4.977c1.08-1.863,2.281-3.656,3.479-5.448c1.906-2.852,3.963-5.609,5.733-8.541
	c0.912-1.51,1.254-3.352,2.018-4.967c0.65-1.378,1.539-2.642,2.316-3.96c1.875-3.177,3.946-6.256,5.563-9.561
	c1.503-3.073,2.519-6.384,3.756-9.589c0.104-0.27,0.255-0.522,0.333-0.678c4.433,0.264,8.782,0.521,13.213,0.785
	c-0.005,0.044,0.011,0.294-0.068,0.511c-1.284,3.493-2.853,6.834-4.76,10.052c-2.722,4.594-6.053,8.687-9.467,12.753
	c-1.18,1.403-1.929,3.191-2.75,4.865c-1.668,3.399-3.375,6.788-4.845,10.274c-2.54,6.02-6.275,11.221-10.42,16.205
	c-1.735,2.087-3.109,4.468-4.679,6.696c-1.06,1.503-2.207,2.949-3.245,4.468c-0.336,0.495-0.454,1.139-0.671,1.715
	c0.078,0.146,0.155,0.293,0.232,0.44c-1.175,0.015-2.355,0.104-3.523,0.027c-1.905-0.13-3.799-0.46-5.705-0.544
	c-3.849-0.171-7.495-1.193-10.991-2.675c-5.991-2.537-11.93-5.199-17.854-7.886c-1.738-0.788-3.285-2.022-5.051-2.717
	c-2.377-0.936-4.863-1.627-7.339-2.277c-3.544-0.931-6.885-2.315-10.143-3.979c-3.667-1.871-7.388-3.637-11.111-5.396
	c-2.985-1.41-5.653-3.267-8.228-5.324c-1.865-1.491-3.979-2.667-5.946-4.035c-2.206-1.537-4.306-3.233-6.574-4.667
	c-1.507-0.953-3.16-1.81-4.866-2.29c-5.063-1.425-9.742-3.73-14.398-6.07c-2.623-1.316-5.164-2.828-7.607-4.453
	c-1.029-0.685-1.764-1.848-2.541-2.864c-0.724-0.947-1.326-1.989-2.053-3.102c0.363-0.651,0.698-1.342,1.112-1.979
	c2.526-3.893,5.082-7.766,7.606-11.659c2.373-3.662,3.967-7.706,5.786-11.648c3.352-7.268,6.973-14.402,12.641-20.243
	c2.458-2.534,3.772-5.77,5.374-8.838c1.339-2.566,2.766-5.103,4.346-7.527c1.788-2.742,3.697-5.416,5.718-7.991
	c3.243-4.135,6.325-8.463,10.038-12.142c2.883-2.86,4.371-6.509,6.827-9.544c2.888-3.564,5.875-7.055,8.897-10.51
	c2.18-2.493,4.81-4.657,6.654-7.364c2.102-3.086,5.019-5.109,7.761-7.408c2.25-1.886,4.52-3.747,6.75-5.593
	c2.491,1.291,4.834,2.86,7.413,3.765c4.488,1.573,8.334,4.353,12.638,6.231c1.637,0.714,3.388,1.179,5.109,1.684
	c5.714,1.678,10.998,4.357,16.218,7.124c2.444,1.296,4.594,3.15,6.865,4.77c0.74,0.526,1.441,1.106,2.201,1.692
	c-2.011,2.878-4.197,5.399-7.327,6.771c-1.762-1.276-3.398-2.775-5.299-3.771c-3.044-1.589-6.218-2.966-9.425-4.202
	c-2.658-1.025-5.477-1.632-8.164-2.594c-1.885-0.673-3.7-1.566-5.49-2.475c-3.039-1.542-5.91-3.399-9.168-4.531
	c-1.756-0.609-3.387-1.586-5.038-2.379c-0.478,0.34-0.831,0.591-1.17,0.831c-0.262-0.104-0.497-0.196-0.769-0.305
	c-0.141,0.199-0.237,0.397-0.39,0.538c-1.084,0.999-2.202,1.962-3.268,2.98c-3.295,3.144-5.957,6.781-8.511,10.543
	c-1.534,2.257-3.604,4.146-5.415,6.217c-0.494,0.562-0.936,1.173-1.383,1.774c-0.855,1.149-1.654,2.343-2.553,3.457
	c-2.684,3.326-5.346,6.674-8.136,9.911c-1.579,1.832-3.327,3.535-5.114,5.17c-2.519,2.303-4.314,5.112-5.947,8.05
	c-0.926,1.666-1.707,3.422-2.705,5.045c-0.7,1.136-1.709,2.077-2.488,3.171c-2.629,3.693-5.172,7.448-7.846,11.106
	c-0.902,1.234-2.146,2.213-3.148,3.383c-2.552,2.984-4.503,6.348-6.131,9.91c-0.456,0.999-0.865,2.032-1.448,2.953
	c-0.458,0.722-1.154,1.294-1.744,1.934C36.259,107.701,36.316,107.729,36.373,107.756z"/>
<path fill-rule="evenodd" clip-rule="evenodd" fill="#f7dad4" class="fill" d="M113.946,82.845c1.371-1.755,2.768-3.542,4.165-5.331
	c1.009-1.292,1.978-2.619,3.034-3.872c1.589-1.883,3.322-3.651,4.843-5.586c1.479-1.881,2.871-3.847,4.121-5.885
	c3.127-5.104,6.689-9.73,11.671-13.258c3.928-2.779,7.542-6.006,11.265-9.071c0.961-0.79,1.789-1.736,2.714-2.571
	c0.289-0.26,0.693-0.39,1.324-0.729c1.788,2.832,3.548,5.621,5.386,8.531c-1.575,0.709-2.975,1.338-4.374,1.97
	c-1.973,0.889-3.338,2.503-4.722,4.062c-1.434,1.617-2.77,3.321-4.119,5.01c-0.365,0.457-0.739,0.966-0.908,1.512
	c-0.741,2.397-2.511,3.751-4.553,4.997c-1.418,0.867-2.641,2.083-3.862,3.237c-1.277,1.209-2.502,2.482-3.649,3.814
	c-1.345,1.56-2.564,3.226-3.869,4.82c-0.952,1.163-1.935,2.305-2.942,3.421c-1.204,1.338-2.085,2.831-2.53,4.589
	c-0.114,0.447-0.402,0.853-0.68,1.419c0.387,1.44,1.592,2.398,2.766,3.401c2.932,2.502,6.045,4.786,9.392,6.653
	c4.194,2.341,8.561,4.285,13.361,5.276c3.752,0.774,7.542,1.813,11.014,3.395c5.183,2.362,10.355,4.676,15.833,6.249
	c1.015,0.29,2.08,0.408,3.293,0.637c-0.112,1.83-0.222,3.64-0.336,5.51c-0.418,0.048-0.703,0.126-0.982,0.109
	c-3.013-0.184-6.035-0.279-9.032-0.603c-3.802-0.411-7.362-1.722-10.832-3.296c-1.202-0.545-2.493-0.903-3.675-1.486
	c-1.937-0.955-3.795-2.071-5.729-3.033c-1.471-0.73-2.967-1.461-4.525-1.96c-4.73-1.515-9.437-3.1-13.727-5.641
	c-3.033-1.799-6.053-3.662-8.855-5.792c-2.379-1.81-4.368-4.12-6.663-6.054C116.156,86.107,114.956,84.839,113.946,82.845z"/>
<path fill-rule="evenodd" clip-rule="evenodd" fill="#f7dad4" class="fill" d="M148.745,140.268c-8.931,1.915-17.865,3.929-25.03,10.669
	c-1.579-8.226-3.725-15.922-8.817-22.436c4.852-4.687,18.552-9.581,26.207-8.678C146.361,124.137,149.075,134.771,148.745,140.268z"
	/>
<path fill-rule="evenodd" clip-rule="evenodd" fill="#f7dad4" class="fill" d="M113.242,129.333c5.65,6.128,7.315,13.814,8.625,21.767
	c-8.492,1.023-15.662,4.721-22.763,9.389c0.594-4.422,0.632-8.805-0.866-12.791c-1.477-3.927-3.424-7.764-6.21-11.007
	C95.562,133.105,107.198,129.099,113.242,129.333z"/>
<path fill-rule="evenodd" clip-rule="evenodd" fill="#f7dad4" class="fill" d="M97.945,88.276c4.93,6.256,7.345,13.622,9.406,21.201
	c-8.228,0.694-16.162,1.924-23.352,6.961c-1.324-7.516-3.511-14.423-7.089-20.98C83.218,90.9,90.047,88.196,97.945,88.276z"/>
<path fill-rule="evenodd" clip-rule="evenodd" fill="#f7dad4" class="fill" d="M89.725,63.626c-1.901-5.177-4.962-10.003-8.42-14.86
	c1.287-1.621,2.571-3.259,3.884-4.873c0.195-0.238,0.501-0.43,0.795-0.539c3.733-1.391,7.515-2.603,11.541-2.777
	c2.9-0.125,5.801-0.254,8.703-0.346c0.691-0.021,1.386,0.106,2.013,0.159c3.549,5.501,5.145,11.515,5.297,18.18
	c-0.714,0.148-1.442,0.411-2.176,0.427c-1.542,0.032-3.102-0.227-4.626-0.074c-2.328,0.232-4.698,0.481-6.93,1.137
	C96.434,61.046,93.167,62.389,89.725,63.626z"/>
<path fill-rule="evenodd" clip-rule="evenodd" fill="#f7dad4" class="fill" d="M75.349,93.184c-1.152-6.943-4.334-12.951-7.624-18.84
	c6.208-4.896,12.958-8.033,20.759-8.335c5.972,5.586,7.282,13.086,9.319,20.429c-1.636,0.114-3.063,0.147-4.475,0.323
	c-5.691,0.71-10.838,2.871-15.586,6.023C76.966,93.299,76.245,93.496,75.349,93.184z"/>
<path fill-rule="evenodd" clip-rule="evenodd" fill="#f7dad4" class="fill" d="M130.807,52.888c-4.896,0.954-10.376,2.025-15.739,4.736
	c0.139-6.56-2.02-12.318-5.119-18.007c1.338-0.406,2.491-0.711,3.613-1.105c2.529-0.889,4.995-1.999,7.574-2.691
	c2.758-0.739,5.616-1.111,8.433-1.628c1.834-0.338,3.362,0.532,4.917,1.289c2.18,1.062,4.418,2.019,6.528,3.205
	c1.547,0.869,2.927,2.032,4.476,3.133C140.598,45.506,135.921,49.031,130.807,52.888z"/>
<path fill-rule="evenodd" clip-rule="evenodd" fill="#f7dad4" class="fill" d="M82.185,116.082c-6.998,0.77-13.667,2.665-19.82,6.669
	c-1.17-7.369-2.683-14.354-7.896-19.773c3.074-2.992,15.9-7.806,19.93-7.569C77.438,98.596,81.241,109.678,82.185,116.082z"/>
<path fill-rule="evenodd" clip-rule="evenodd" fill="#f7dad4" class="fill" d="M60.507,123.316c-6.951,1.366-13.436,3.275-18.466,8.762
	c-0.417-1.748-0.717-3.161-1.093-4.557c-0.516-1.911-1.238-3.78-1.599-5.719c-0.582-3.119-2.549-5.406-4.443-7.992
	c0.816-1.331,1.651-2.705,2.496-4.074c2.581-4.181,7.107-4.696,11.239-5.933c0.696-0.208,1.479-0.121,2.181-0.316
	c1.233-0.343,2.065,0.196,2.793,1.067c2.908,3.481,4.847,7.429,5.729,11.889c0.37,1.872,0.788,3.733,1.154,5.606
	C60.57,122.428,60.507,122.833,60.507,123.316z"/>
<path fill-rule="evenodd" clip-rule="evenodd" fill="#f7dad4" class="fill" d="M157.203,71.661c0.548,1.283,1.157,2.443,1.544,3.673
	c0.618,1.958,0.992,3.995,1.653,5.934c0.458,1.34,1.198,2.587,1.864,3.849c1.075,2.036,2.19,4.049,3.435,6.342
	c-0.733,0-1.151-0.016-1.568,0.002c-5.12,0.217-9.959,1.437-14.104,4.539c-1.503,1.124-2.787,0.716-4.087,0.129
	c-2.839-1.281-5.656-2.635-8.383-4.141c-1.446-0.8-2.682-1.979-4.155-3.098c0.921-1.023,1.702-1.992,2.587-2.854
	c2.187-2.133,4.316-4.346,6.662-6.291c3.215-2.669,6.742-4.889,10.856-5.96C155.701,73.214,155.711,73.254,157.203,71.661z"/>
<path fill-rule="evenodd" clip-rule="evenodd" fill="#f7dad4" class="fill" d="M89.734,135.856c-4.127,0.115-7.733,1.32-11.285,2.79
	c-3.494,1.446-6.895,3.031-9.768,5.666c-0.43-3.578-0.235-7.054-1.163-10.449c-0.917-3.366-1.973-6.612-4.501-9.31
	c0.606-0.435,1.081-0.834,1.609-1.144c5.122-3.01,10.667-4.768,16.557-5.38c2.695-0.28,3.559,0.453,4.857,3.173
	c1.758,3.688,2.717,7.602,3.464,11.579C89.684,133.735,89.657,134.727,89.734,135.856z"/>
<path fill-rule="evenodd" clip-rule="evenodd" fill="#f7dad4" class="fill" d="M99.587,85.989c-2.262-7.023-3.592-14.48-8.969-20.332
	c3.521-2.351,7.397-3.275,11.171-4.376c3.861-1.128,7.881-0.452,11.766-0.557c2.111,3.031,4.34,6.107,4.61,9.854
	c-1.996,2.002-3.836,3.922-5.76,5.754c-1.531,1.458-2.111,3.356-2.622,4.956C106.272,82.907,102.958,84.435,99.587,85.989z"/>
<path fill-rule="evenodd" clip-rule="evenodd" fill="#f7dad4" class="fill" d="M133.956,174.691c-0.43-0.062-0.748-0.11-0.962-0.143
	c-0.763-8.123-3.384-15.42-8.572-21.805c6.997-7.096,16.197-8.845,25.577-10.892c0.549,1.138,1.091,2.258,1.522,3.15
	c-0.506,3.179-2.205,5.429-3.814,7.718c-1.773,2.524-3.611,5.005-5.334,7.562c-0.693,1.03-1.227,2.184-1.717,3.33
	C138.952,167.594,136.526,171.123,133.956,174.691z"/>
<path fill-rule="evenodd" clip-rule="evenodd" fill="#f7dad4" class="fill" d="M112.213,127.399c-7.683,0.249-14.179,3.512-20.502,7.063
	c-0.773-2.902-1.553-5.812-2.322-8.727c-0.769-2.916-1.807-5.714-3.671-8.339c6.731-4.41,14.205-5.745,21.783-6.024
	c2.383,2.302,3.298,4.972,3.793,7.787c0.431,2.448,0.678,4.931,0.992,7.398C112.317,126.798,112.246,127.049,112.213,127.399z"/>
<path fill-rule="evenodd" clip-rule="evenodd" fill="#f7dad4" class="fill" d="M167.431,91.456c-1.127-2.138-1.962-4.271-3.265-6.065
	c-2.237-3.081-2.408-6.814-3.684-10.185c-0.647-1.712-1.394-3.387-2.093-5.076c2.192-4.121,9.521-7.29,14.478-6.149
	c0.166,0.616,0.357,1.312,0.541,2.011c1.319,5.037,2.109,10.222,4.215,15.042c0.911,2.086,1.88,4.16,2.568,6.319
	c0.56,1.759,0.74,3.638,0.956,5.639C176.816,90.015,172.219,90.125,167.431,91.456z"/>
<path fill-rule="evenodd" clip-rule="evenodd" fill="#f7dad4" class="fill" d="M97.278,160.884c-1.043-0.278-2.162-0.568-3.276-0.879
	c-3.447-0.966-6.642-2.495-9.739-4.277c-4.937-2.84-9.913-5.606-14.87-8.413c-0.272-0.153-0.504-0.379-0.939-0.71
	c6.438-5.445,13.561-8.669,22.038-8.997C96.139,144.342,99.02,151.838,97.278,160.884z"/>
<path fill-rule="evenodd" clip-rule="evenodd" fill="#f7dad4" class="fill" d="M65.665,74.36c3.542,5.986,6.909,11.984,7.842,19.129
	c-7.362,1.166-13.829,4.269-20.248,7.772c-1.367-3.004-2.268-6.387-4.727-8.578c2.82-4.037,5.49-7.896,8.205-11.723
	c0.745-1.048,1.622-2.001,2.444-2.992c0.115-0.14,0.325-0.224,0.396-0.377C60.75,75.041,63.099,74.686,65.665,74.36z"/>
<path fill-rule="evenodd" clip-rule="evenodd" fill="#f7dad4" class="fill" d="M141.291,118.027c-10.081-0.04-18.856,2.936-27.045,8.392
	c-1.493-4.972-0.603-10.461-4.291-14.775c4.802-3.279,10.017-5.134,15.172-7.027c1.748,0.959,3.344,1.946,5.035,2.732
	c2.229,1.035,4.527,1.926,6.807,2.85c1.282,0.52,2.295,1.248,2.705,2.663C140.162,114.544,140.717,116.207,141.291,118.027z"/>
<path fill-rule="evenodd" clip-rule="evenodd" fill="#f7dad4" class="fill" d="M126.047,192.029c-1.094-0.068-2.197-0.073-3.281-0.22
	c-4.845-0.653-9.397-2.377-13.959-4.002c-3.172-1.13-6.229-2.585-9.335-3.898c-0.202-0.087-0.432-0.171-0.577-0.323
	c-1.915-2.05-4.438-2.244-7.01-2.379c-3.597-0.189-7.066-1.079-10.371-2.437c-4.889-2.009-9.776-4.054-14.511-6.393
	c-3.743-1.85-7.329-4.048-10.85-6.303c-4.173-2.674-8.652-4.657-13.187-6.591c-4.452-1.898-8.516-4.479-12.239-7.606
	c-3.771-3.167-6.903-6.917-10.073-10.641c-0.089-0.104-0.159-0.225-0.238-0.338c0.069-0.105,0.138-0.213,0.206-0.318
	c1.842,1.082,3.743,2.076,5.514,3.266c4.395,2.951,8.578,6.245,13.63,8.093c1.552,0.567,3.041,1.315,4.606,1.838
	c2.24,0.75,3.863,2.351,5.661,3.746c2.234,1.735,4.571,3.34,6.862,5.002c1.543,1.117,3.028,2.328,4.638,3.339
	c3.022,1.9,6.157,3.558,9.571,4.732c2.689,0.925,5.19,2.382,7.825,3.483c2.501,1.045,5.04,2.023,7.617,2.864
	c1.898,0.621,3.964,0.767,5.814,1.488c2.759,1.078,5.371,2.527,8.086,3.729c4.333,1.917,8.65,3.882,13.063,5.598
	c3.589,1.396,7.305,2.465,10.973,3.658c0.506,0.164,1.051,0.205,1.579,0.305C126.056,191.825,126.052,191.926,126.047,192.029z"/>
<path fill-rule="evenodd" clip-rule="evenodd" fill="#f7dad4" class="fill" d="M100.832,161.386c6.53-4.243,13.307-7.872,21.466-8.35
	c5.515,5.854,7.994,13.047,9.032,21.212c-0.955-0.244-1.786-0.328-2.5-0.664c-2.777-1.31-5.524-2.683-8.269-4.059
	c-3.414-1.716-6.824-3.436-10.213-5.197c-2.405-1.249-5.069-1.416-7.646-1.96c-0.617-0.129-1.214-0.356-1.82-0.539
	C100.865,161.681,100.849,161.533,100.832,161.386z"/>
<path fill-rule="evenodd" clip-rule="evenodd" fill="#f7dad4" class="fill" d="M66.876,144.777c0.125,0.355,0.25,0.711,0.39,1.104
	c-8.919-2.958-17.429-6.436-25.249-11.597c3.169-3.311,6.583-6.081,11.09-7.209c1.778-0.447,3.524-1.019,5.297-1.491
	c2.563-0.685,3.299-0.441,4.66,1.807c1.987,3.284,3.155,6.879,3.462,10.695c0.18,2.23,0.033,4.489,0.033,6.733
	C66.665,144.806,66.77,144.792,66.876,144.777z"/>
<path fill-rule="evenodd" clip-rule="evenodd" fill="#f7dad4" class="fill" d="M149.198,59.534c1.846,1.068,3.731,3.819,7.066,10.243
	c-0.719,1.398-1.699,2.332-3.379,2.784c-2.058,0.554-4.078,1.411-5.958,2.427c-3.514,1.896-6.532,4.472-9.309,7.344
	c-1.65,1.707-3.413,3.302-5.132,4.94c-0.18,0.172-0.405,0.296-0.724,0.527c-1.274-1.032-2.534-2.052-3.692-2.99
	c0.521-3.16,1.976-5.456,4.042-7.469c0.742-0.723,1.096-1.828,1.77-2.641c1.428-1.724,2.923-3.393,4.442-5.038
	c1.569-1.699,3.179-3.364,4.816-5c0.488-0.486,1.087-0.904,1.706-1.205C146.684,62.562,148.436,61.6,149.198,59.534z"/>
<path fill-rule="evenodd" clip-rule="evenodd" fill="#f7dad4" class="fill" d="M164.206,120.287c-0.14,0.57-0.223,1.071-0.386,1.546
	c-1.994,5.797-4.422,11.38-8.134,16.32c-0.195,0.26-0.42,0.598-0.695,0.678c-1.365,0.389-2.752,0.703-4.213,1.064
	c-0.902-7.08-2.219-13.864-6.877-19.692c0.945-0.571,1.714-1.112,2.548-1.522c1.182-0.581,2.393-1.122,3.632-1.564
	c0.472-0.168,1.084-0.128,1.585,0.002c3.686,0.951,7.359,1.955,11.041,2.928C163.155,120.164,163.628,120.198,164.206,120.287z"/>
<path fill-rule="evenodd" clip-rule="evenodd" fill="#f7dad4" class="fill" d="M163.049,46.172c2.53,3.014,4.7,5.968,6.173,9.38
	c0.955,2.214,1.919,4.422,2.975,6.854c-5.944-0.545-10.562,1.879-14.569,5.532c-2.421-3.406-4.867-6.849-7.416-10.436
	c1.028-1.27,2.077-2.68,3.245-3.982c1.533-1.713,2.606-3.884,4.74-5.006C159.779,47.682,161.416,46.956,163.049,46.172z"/>
<path fill-rule="evenodd" clip-rule="evenodd" fill="#f7dad4" class="fill" d="M122.908,103.305c-4.639,2.098-9.189,4.153-13.73,6.209
	c-2.266-7.385-4.457-14.889-9.166-21.521c3.179-1.601,5.972-3.645,9.333-4.491C112.329,91.272,115.594,98.699,122.908,103.305z"/>
<path fill-rule="evenodd" clip-rule="evenodd" fill="#f7dad4" class="fill" d="M80.356,50.508c3.172,4.153,5.673,8.668,7.646,13.335
	c-2.765,0.647-5.354,1.28-7.957,1.856c-3.447,0.763-6.379,2.598-9.327,4.403c-0.908,0.555-1.747,1.229-2.66,1.776
	c-0.447,0.269-0.992,0.373-1.657,0.607c-0.375-1.708-0.714-3.248-1.127-5.13C70.086,61.979,75.143,56.332,80.356,50.508z"/>
<path fill-rule="evenodd" clip-rule="evenodd" fill="#f7dad4" class="fill" d="M115.283,87.704c1.333,1.181,2.866,2.201,3.959,3.574
	c2.29,2.872,5.262,4.842,8.349,6.607c3.979,2.275,8.101,4.31,12.209,6.354c1.207,0.599,2.546,1.009,3.87,1.274
	c2.662,0.535,5.045,1.699,7.436,2.902c2.421,1.219,4.829,2.5,7.347,3.485c3.481,1.358,7.035,2.553,10.608,3.656
	c2.998,0.926,6.112,1.139,9.25,0.943c0.65-0.039,1.31,0.104,2.215,0.185c-0.499,0.702-0.885,1.243-1.328,1.867
	c-4.152-0.265-8.302-0.468-12.44-0.82c-2.075-0.178-4.181-0.435-6.18-0.992c-3.676-1.024-7.293-2.132-10.493-4.484
	c-2.147-1.578-4.795-2.49-7.264-3.604c-1.935-0.872-3.949-1.567-5.904-2.397c-4.082-1.729-7.877-3.963-11.409-6.638
	c-3.237-2.451-6.285-5.112-8.73-8.377c-0.733-0.979-1.229-2.138-1.833-3.215C115.057,87.918,115.169,87.811,115.283,87.704z"/>
<path fill-rule="evenodd" clip-rule="evenodd" fill="#f7dad4" class="fill" d="M108.14,38.456c-6.727,0.135-13.408,0.06-19.999,2.242
	c3.14-4.515,6.151-8.841,8.596-12.354c2.382-2.127,4.036-3.603,5.817-5.192C105.696,27.812,107.832,32.692,108.14,38.456z"/>
<path fill-rule="evenodd" clip-rule="evenodd" fill="#f7dad4" class="fill" d="M182.027,107.163c-0.465,0.222-0.882,0.421-1.545,0.739
	c-2.86-0.903-5.924-1.871-9.127-2.881c-0.12-4.376-1.907-8.109-3.413-11.977c2.633-1.074,5.21-1.453,7.854-0.784
	c2.621,0.662,4.896,1.836,5.643,4.858c0.119-0.063,0.24-0.125,0.36-0.188c0.093,3.055,0.188,6.108,0.274,9.163
	C182.084,106.459,182.043,106.827,182.027,107.163z"/>
<path fill-rule="evenodd" clip-rule="evenodd" fill="#f7dad4" class="fill" d="M126.7,32.64c-5.507,1.604-11.104,3.232-16.714,4.865
	c-0.535-5.237-2.556-9.928-5.575-14.63c0.993,0.31,1.686,0.423,2.281,0.728c3.76,1.916,7.616,3.682,11.203,5.881
	c2.554,1.567,5.208,2.453,8.093,2.911C126.29,32.441,126.577,32.598,126.7,32.64z"/>
<path fill-rule="evenodd" clip-rule="evenodd" fill="#f7dad4" class="fill" d="M166.206,92.946c1.056,3.661,3.341,6.973,3.212,11.376
	c-5.99-3.222-11.983-5.744-18.581-6.661C152.428,94.959,160.708,92.565,166.206,92.946z"/>
<path fill-rule="evenodd" clip-rule="evenodd" fill="#f7dad4" class="fill" d="M28.757,126.055c0.11-0.28,0.152-0.418,0.217-0.542
	c1.664-3.226,3.331-6.446,4.998-9.67c2.403,1.455,6.743,13.998,5.923,17.312C35.749,131.415,32.54,128.292,28.757,126.055z"/>
<path fill-rule="evenodd" clip-rule="evenodd" fill="#f7dad4" class="fill" d="M120.142,69.011c-1.492-2.712-2.948-5.317-4.351-7.95
	c-0.242-0.451-0.265-1.02-0.372-1.471c2.608-1.79,10.785-4.488,13.62-4.521c-0.916,1.331-1.887,2.576-2.678,3.926
	c-1.277,2.186-2.367,4.482-3.672,6.651C121.927,66.913,120.901,68.022,120.142,69.011z"/>
<path fill-rule="evenodd" clip-rule="evenodd" fill="#f7dad4" class="fill" d="M40.064,104.69c1.957-3.907,4.06-7.744,7.017-11.11
	c2.388,2.181,3.116,5.135,4.107,7.74C47.454,102.452,43.791,103.562,40.064,104.69z"/>
<path fill-rule="evenodd" clip-rule="evenodd" fill="#f7dad4" class="fill" d="M143.098,118.383c-0.595-2.068-1.127-3.921-1.714-5.958
	c2.272,1.109,4.387,2.146,6.656,3.256C146.314,116.623,144.742,117.483,143.098,118.383z"/>
<path fill-rule="evenodd" clip-rule="evenodd" fill="#f7dad4" class="fill" d="M64.368,69.668c0.149,0.983,0.298,1.969,0.45,2.972
	c-1.092,0.281-1.891,0.486-3.04,0.783c0.834-1.446,1.516-2.631,2.198-3.813C64.106,69.629,64.238,69.649,64.368,69.668z"/>
<path fill-rule="evenodd" clip-rule="evenodd" fill="#f7dad4" class="fill" d="M152.651,143.002c-0.358-0.565-0.598-0.945-0.913-1.443
	c0.646-0.12,1.126-0.21,1.792-0.333C153.215,141.862,152.985,142.326,152.651,143.002z"/>
</svg>
