<svg version="1.1" id="svg" xmlns="http://www.w3.org/2000/svg" xmlns:xlink="http://www.w3.org/1999/xlink" x="0px" y="0px"
	 width="200px" height="200px" viewBox="0 0 200 200" enable-background="new 0 0 200 200" xml:space="preserve">
<path class="stroke" fill="#58281d"  d="M142.973,87.192c-0.198-1.26-0.628-2.501-1.103-3.694c-0.476-1.198-1.055-2.371-1.727-3.472
	c-0.539-0.886-1.289-1.641-1.933-2.464c-0.191-0.246-0.428-0.502-0.496-0.788c-0.211-0.892-0.282-1.819-0.533-2.696
	c-0.411-1.437,0.037-3.158-1.472-4.25c-0.567-0.409-0.934-1.086-1.474-1.544c-1.226-1.04-2.559-1.954-4.207-2.12
	c-1.286-0.13-2.588-0.09-3.882-0.133c-0.163-0.006-0.336-0.031-0.485-0.093c-0.95-0.394-1.885-0.823-2.843-1.197
	c-1.814-0.708-3.621-1.453-5.491-1.523c-0.5-0.395-0.911-0.745-1.35-1.058c-0.511-0.364-1.062-0.673-1.568-1.044
	c-1.642-1.208-3.549-1.505-5.459-1.248c-1.59,0.214-3.098,0.915-4.353,1.995c-0.378,0.326-0.747,0.371-1.216,0.32
	c-0.701-0.075-1.413-0.092-2.12-0.084c-1.295,0.014-2.616,0.245-3.878,0.06c-2.45-0.358-4.724,0.066-7.036,0.836
	c-1.971,0.656-3.581,1.921-5.391,2.84c-1.398,0.709-2.714,1.364-4.335,1.207c-0.678-0.066-1.406-0.04-2.057,0.138
	c-1.028,0.282-2.057,0.328-3.104,0.405c-1.369,0.1-2.723,0.397-3.702,1.507c-1.085,1.23-1.581,2.74-2.009,4.21
	c0.1,0.274,0.17,0.467,0.242,0.664c-0.1,0.115-0.174,0.215-0.265,0.3c-0.076,0.072-0.161,0.145-0.255,0.184
	c-1.573,0.66-2.484,1.995-3.44,3.305c-0.752,1.029-1.551,2.033-2.421,2.962c-0.509,0.542-1.197,0.916-1.807,1.363
	c-2.184,1.602-3.03,3.831-3.104,6.462c-0.035,1.206,0.363,2.303,0.66,3.43c0.229,0.865,0.458,1.723,0.093,2.667
	c0.044,0.118,0.106,0.289,0.168,0.46c-0.053-0.01-0.107-0.02-0.161-0.03c-0.444,1.497-0.934,2.982-1.32,4.494
	c-0.452,1.764-0.971,3.553-0.271,5.371c0.417,1.085,0.83,2.192,1.417,3.188c0.522,0.887,0.93,1.732,0.984,2.791
	c0.067,1.333,0.208,2.682,0.516,3.976c0.213,0.897,0.787,1.703,1.152,2.569c0.665,1.577,1.624,2.938,2.904,4.065
	c0.993,0.876,2.125,1.62,2.999,2.599c1.852,2.073,4.085,3.61,6.467,4.96c1.201,0.681,2.465,1.254,3.72,1.835
	c0.759,0.352,1.535,0.686,2.335,0.924c3.301,0.98,6.62,0.572,9.935,0.061c1.24-0.191,2.481-0.523,3.723-0.531
	c3.269-0.021,6.414-0.595,9.466-1.729c1.079-0.4,1.569-1.287,1.234-2.403c-0.143-0.479-0.495-0.909-0.803-1.322
	c-0.36-0.484-0.813-0.899-1.161-1.39c-0.623-0.881-0.809-1.877-0.804-2.962c0.006-1.292-0.005-2.551,0.834-3.637
	c0.074-0.095,0.113-0.217,0.157-0.305c-0.696-2.145-0.451-2.482-0.271-3.356c0.278-1.341,0.749-1.728,2.129-1.891
	c0.698-0.082,1.395-0.166,2.092-0.25c0.079-0.298,0.143-0.495,0.183-0.697c0.158-0.797,0.254-1.612,0.474-2.392
	c0.447-1.588,1.589-2.325,3.199-2.095c0.64,0.092,1.263,0.301,1.901,0.41c0.348,0.06,0.683-0.026,0.763-0.464
	c0.262-1.438,2.29-2.76,3.51-2.846c1.44-0.102,2.737,0.289,4.056,1.062c0.305-0.133,0.687-0.248,1.015-0.453
	c0.561-0.351,1.042-0.857,1.634-1.122c1.578-0.704,3.161-0.828,4.583,0.401c0.539,0.466,1.053,0.964,1.546,1.478
	c0.612,0.639,1.014,0.636,1.752,0.159c0.527-0.341,1.147-0.578,1.758-0.742c1.191-0.32,2.091,0.441,3.028,0.973
	c1.333,0.755,2.631,0.282,3.269-0.998c0.631-1.269,1.073-2.632,1.582-3.959c0.53-1.386,1.021-2.787,1.57-4.166
	c0.332-0.833,0.434-1.649,0.157-2.516c-0.438-1.375-0.79-2.709-0.172-4.192C143.047,89.142,143.113,88.091,142.973,87.192z"/>
<path fill-rule="evenodd" clip-rule="evenodd" fill="#e3a13b" class="fill" d="M79.61,126.927c0,0.488,0,0.795,0,1.246
	c-0.599-0.172-1.124-0.325-1.694-0.489c0.013-0.289-0.018-0.525,0.042-0.735c0.15-0.514-0.025-0.833-0.526-0.951
	c-0.519-0.123-0.911,0.197-0.995,0.766c-0.012,0.082-0.031,0.162-0.072,0.362c-0.458-0.3-0.86-0.564-1.201-0.788
	c0.115-0.679,0.212-1.248,0.303-1.786c-0.547-0.495-1.013-0.39-1.492-0.062c-0.079,0.312-0.155,0.613-0.257,1.018
	c-0.753-0.512-1.44-0.979-2.188-1.487c0.159-0.417,0.324-0.818,0.466-1.227c0.234-0.677,0.104-1.047-0.395-1.17
	c-0.595-0.147-0.954,0.106-1.109,0.781c-0.051,0.223-0.102,0.446-0.197,0.86c-0.49-0.463-1.056-0.78-1.263-1.254
	c-0.204-0.47-0.044-1.097-0.044-1.743c-0.448-0.574-0.969-0.228-1.546,0.114c-0.257-0.334-0.508-0.661-0.777-1.012
	c0.131-0.292,0.26-0.554,0.367-0.823c0.148-0.376,0.524-0.831,0.078-1.134c-0.289-0.196-0.782-0.092-1.146-0.12
	c-0.156,0.432-0.246,0.682-0.377,1.052c-0.275-0.374-0.492-0.667-0.711-0.965c0.358-0.75,0.701-1.464,1.036-2.164
	c-0.814-0.455-1.091-0.404-1.819,0.21c-0.423-0.417-0.601-1.157-0.303-1.637c0.318-0.513,0.728-0.97,1.094-1.454
	c0.132-0.174,0.252-0.356,0.367-0.519c-0.588-0.642-0.991-0.642-1.873,0.013c-0.157-0.598-0.301-1.15-0.453-1.726
	c0.624-0.379,1.14-0.695,1.718-1.046c-0.017-0.165-0.036-0.36-0.053-0.534c-0.789-0.476-1.412,0.113-2.082,0.207
	c-0.225-0.46-0.441-0.901-0.701-1.43c0.388-0.213,0.745-0.408,1.224-0.67c-0.073-0.182-0.134-0.549-0.237-0.561
	c-0.526-0.06-1.063-0.028-1.737-0.028c0.002,0.003-0.08-0.148-0.18-0.332c0.555-0.311,1.06-0.595,1.63-0.915
	c-0.635-0.732-1.233-0.165-1.875-0.228c-0.091-0.429-0.188-0.885-0.287-1.353c0.502-0.231,0.975-0.451,1.449-0.669
	c-0.018-0.115-0.034-0.23-0.051-0.346c-0.525-0.088-1.049-0.177-1.673-0.283c0-0.496,0-1.042,0-1.513
	c0.524-0.209,0.956-0.381,1.398-0.557c-0.155-0.754-0.797-0.627-1.267-0.886c0.149-0.497,0.296-0.986,0.437-1.453
	c0.645-0.089,1.392,0.334,1.703-0.653c-0.37-0.208-0.744-0.419-1.161-0.654c0.081-0.247,0.168-0.517,0.245-0.754
	c0.4-0.18,0.767-0.345,1.133-0.509c0.022-0.087,0.045-0.176,0.067-0.264c-0.306-0.211-0.611-0.423-1.003-0.693
	c-0.077-0.321-0.181-0.76-0.278-1.17c0.443-0.16,0.822-0.296,1.181-0.425c-0.136-1.01-0.767-0.868-1.387-0.85
	c-0.091-0.514-0.181-1.019-0.266-1.497c0.374-0.19,0.683-0.347,1.119-0.568c-0.387-0.361-0.68-0.635-0.968-0.905
	c0.075-1.507,0.097-1.544,1.278-2.102c0.036-0.136,0.081-0.31,0.128-0.494c-0.198-0.174-0.369-0.323-0.596-0.521
	c0.167-0.32,0.335-0.64,0.467-0.891c0.544,0.032,0.981,0.057,1.417,0.083c0.058-0.076,0.115-0.152,0.173-0.228
	c-0.187-0.324-0.374-0.648-0.626-1.088c0.209-0.22,0.513-0.539,0.732-0.769c0.615,0.307,1.112,0.554,1.627,0.811
	c-0.301,1.086-0.648,2.28-0.957,3.483c-0.155,0.608-0.316,1.232-0.331,1.853c-0.012,0.438,0.218,0.881,0.353,1.367
	c0.302-0.109,0.473-0.169,0.631-0.226c0.184-0.592,0.376-1.146,0.528-1.711c0.303-1.132,0.629-2.261,0.86-3.409
	c0.215-1.077,0.882-1.768,1.713-2.38c0.659-0.486,1.275-1.029,1.941-1.504c0.939-0.669,2.064-0.754,3.158-0.927
	c0.288-0.046,0.565-0.153,0.896-0.244c-0.369-0.754-0.964-0.751-1.52-0.723c-1.75,0.086-3.32,0.631-4.638,1.849
	c-0.675,0.625-1.426,1.168-2.242,1.829c-0.292-0.281-0.604-0.583-0.95-0.915c0.425-0.362,0.806-0.687,1.211-1.033
	c0.593,0.247,1.202,0.475,1.627-0.298c-0.258-0.209-0.511-0.412-0.815-0.658c0.31-0.501,0.589-0.955,0.867-1.405
	c0.58,0.166,1.103,0.81,1.636-0.099c-0.304-0.357-0.622-0.73-1.008-1.185c0.328-0.239,0.65-0.473,0.965-0.701
	c0.563,0.35,1.052,0.845,1.738,0.128c-0.232-0.355-0.462-0.707-0.676-1.035c0.516-0.975,1.458-0.922,2.347-0.776
	c2.063,0.338,4.011-0.121,5.934-0.756c0.689-0.228,1.353-0.558,1.996-0.902c1.596-0.854,2.036-2.367,2.174-4.016
	c0.021-0.25-0.14-0.515-0.234-0.831c0.403-0.296,0.835-0.467,1.408-0.286c0.292,0.093,0.645-0.006,1.011-0.02
	c-0.042-0.35-0.064-0.532-0.092-0.759c0.313-0.188,0.634-0.381,0.941-0.566c0.324,0.143,0.623,0.274,1.076,0.474
	c0.142-0.367,0.262-0.675,0.381-0.984c-0.042-0.026-0.084-0.053-0.127-0.079c0.468-0.307,0.937-0.615,1.418-0.932
	c0.206,0.136,0.397,0.26,0.659,0.433c0.252-0.072,0.552-0.158,0.903-0.259c-0.117-0.318-0.191-0.526-0.305-0.841
	c0.491-0.182,0.966-0.358,1.412-0.524c0.936,1.12,0.938,1.122,1.549,0.646c0.011-0.155,0.03-0.341,0.032-0.527
	c0.001-0.187-0.017-0.374-0.029-0.625c0.324-0.084,0.637-0.167,0.949-0.249c-0.022,0.055-0.045,0.11-0.068,0.166
	c0.331,0.296,0.624,0.704,1.011,0.834c0.154,0.052,0.515-0.508,0.868-0.881c0.282,0,0.75,0,1.272,0
	c-0.119,0.594-0.117,1.122,0.494,1.309c0.415,0.127,0.798,0.002,0.98-0.494c-0.055-0.189-0.118-0.402-0.202-0.689
	c0.497,0,0.935,0,1.309,0c0.234,0.396,0.458,0.776,0.683,1.156c0.101,0.001,0.203,0.003,0.305,0.004
	c0.273-0.413,0.546-0.826,0.886-1.338c0.328,0,0.773,0,1.209,0c-0.288,0.514-0.603,0.958-0.797,1.45
	c-0.422,1.073-0.099,2.237,0.951,2.732c1.142,0.538,2.381,0.913,3.617,1.196c1.218,0.278,2.479,0.416,3.729,0.504
	c1.741,0.124,3.313-0.416,4.735-1.425c1.008-0.715,1.738-1.624,2.134-2.806c0.059-0.175,0.288-0.292,0.439-0.436
	c0.046,0.038,0.092,0.076,0.138,0.114c-0.052,0.322-0.105,0.644-0.168,1.029c0.227,0.138,0.446,0.271,0.682,0.415
	c0.353-0.42,0.668-0.795,0.982-1.168c0.265,0.08,0.461,0.14,0.736,0.222c-0.14,0.304-0.267,0.577-0.422,0.911
	c0.137,0.167,0.291,0.353,0.4,0.485c0.845,0.152,1.011-0.56,1.41-0.989c0.293,0.126,0.556,0.241,0.844,0.364
	c-0.044,0.234-0.082,0.435-0.145,0.766c0.225,0.136,0.488,0.296,0.771,0.469c0.289-0.215,0.519-0.388,0.813-0.608
	c0.19,0.068,0.436,0.156,0.668,0.239c-1.252,1.688-1.783,3.471-1.229,5.504c0.186,0.68,0.623,1.144,1.206,1.47
	c1.872,1.043,3.729,2.116,5.861,2.578c0.463,0.101,0.907,0.338,1.326,0.573c1.338,0.755,2.705,1.002,4.159,0.357
	c0.169-0.075,0.359-0.106,0.594-0.173c0.148,0.26,0.301,0.526,0.46,0.803c-0.326,0.196-0.638,0.384-0.991,0.597
	c0.545,0.761,1.228,0.417,1.874,0.5c0.129,0.149,0.29,0.333,0.455,0.524c-0.343,0.195-0.638,0.363-0.989,0.562
	c0.523,0.784,1.223,0.461,1.932,0.516c0.426,0.667,0.882,1.381,1.427,2.237c-1.12-0.228-2.052-0.394-2.972-0.61
	c-1.437-0.339-2.788-0.091-4.105,0.501c-0.804,0.362-1.592,0.768-2.419,1.069c-1.741,0.633-2.16,2.326-0.966,3.783
	c0.903,1.102,2.135,1.638,3.396,2.07c1.343,0.46,2.751,0.733,4.133,1.08c1.006,0.253,1.952,0.115,2.828-0.459
	c0.173-0.112,0.372-0.183,0.558-0.273c0.059,0.038,0.117,0.076,0.176,0.114c-0.234,0.454-0.469,0.909-0.719,1.394
	c-0.602-0.24-1.078-0.199-1.528,0.466c0.479,0.216,0.911,0.409,1.417,0.637c0.179,0.52,0.382,1.112,0.586,1.705
	c-0.539,0.055-1.035,0.106-1.658,0.171c0.409,0.803,1.069,0.814,1.736,1.025c-0.104,0.574-0.209,1.158-0.302,1.674
	c-0.365,0.189-0.623,0.323-1.094,0.567c0.245,0.143,0.396,0.232,0.599,0.352c-0.226,0.465-0.456,0.94-0.692,1.428
	c-0.474-0.772-0.869-1.48-1.327-2.146c-0.508-0.741-1.226-1.194-2.133-1.316c-1.225-0.165-2.451-0.317-3.671-0.511
	c-0.361-0.057-0.742-0.169-1.048-0.361c-2.656-1.677-5.467-1.845-8.396-0.907c-0.557,0.178-1.099,0.404-1.714,0.634
	c-1.288-0.371-2.665-0.768-4.066-1.171c0.302-0.843,0.103-1.675-0.595-2.451c-0.643-0.716-1.304-1.192-2.34-1.259
	c-0.9-0.059-1.776-0.458-2.666-0.695c-1.399-0.376-2.732-0.299-3.98,0.531c-1.615,1.073-2.032,3.201-0.897,4.75
	c0.52,0.709,1.057,1.405,1.653,2.197c-0.308,0.043-0.617,0.107-0.928,0.125c-1.155,0.065-2.316,0.063-3.464,0.188
	c-1.186,0.128-2.029,0.832-2.805,1.735c-1.483,1.724-1.729,3.818-2.001,5.921c-0.048,0.37-0.007,0.752-0.007,1.214
	c-0.55,0.335-1.175,0.713-1.797,1.097c-3.444,2.124-2.651,6.22-0.735,8.239c0.691,0.728,1.508,1.334,2.351,2.068
	c-1.033,3.083-0.526,5.985,1.53,8.655c-0.304,0.07-0.487,0.093-0.656,0.155c-0.171,0.063-0.327,0.166-0.639,0.33
	c0.441,0.605,0.836,1.148,1.279,1.755c-0.393,0.169-0.796,0.342-1.251,0.538c0-0.261,0-0.441,0-0.476
	c-0.499-0.726-0.921-1.34-1.435-2.088c-0.385-0.241-0.838-0.189-1.284,0.406c0.551,0.791,0.845,1.797,2.083,2.306
	c-0.654,0.21-1.154,0.371-1.65,0.53c-0.153-0.682-0.197-1.285-0.434-1.797c-0.187-0.399-0.564-0.786-0.955-0.984
	c-0.22-0.111-0.64,0.175-0.963,0.279c0.418,0.875,0.765,1.6,1.162,2.429c-0.646,0-1.137,0-1.693,0
	c-0.081-0.363-0.131-0.759-0.262-1.126c-0.108-0.303-0.262-0.752-0.484-0.813c-0.314-0.084-0.708,0.129-1.134,0.23
	c0.14,0.687,0.247,1.215,0.377,1.864c-0.599-0.059-1.144-0.113-1.733-0.17c0-0.508,0-0.943,0-1.381
	c-0.423-0.639-0.78-0.677-1.537-0.132c0,0.41,0,0.843,0,1.333c-0.502,0-0.99,0-1.476,0c-0.326-0.471,0.267-1.307-0.585-1.501
	c-0.296-0.069-0.646,0.095-0.998,0.158c0,0.522,0,0.915,0,1.356c-0.706,0.057-1.364,0.11-2.073,0.168c0-0.774,0-1.479,0-2.375
	c-0.337-0.015-0.721-0.137-0.987-0.011c-0.229,0.108-0.396,0.484-0.462,0.771c-0.1,0.435-0.089,0.895-0.132,1.423
	c-0.461-0.149-0.796-0.257-1.215-0.393c0-0.328,0.056-0.669-0.016-0.982c-0.073-0.318-0.209-0.793-0.428-0.865
	C80.395,126.685,79.971,126.869,79.61,126.927z M107.887,81.295c-0.059,1.031,0.027,2.007,1.167,2.406
	c1.878,0.657,3.75,1.341,5.665,1.871c1.674,0.463,3.193-0.105,4.363-1.326c1.166-1.216,1.451-2.832,1.372-4.441
	c-0.103-2.076-1.495-3.407-3.323-3.854c-0.982-0.24-2.077-0.109-3.111-0.024c-1.376,0.113-2.686,0.491-3.739,1.467
	c-0.257,0.24-0.463,0.552-0.752,0.739C108.368,78.887,107.781,79.915,107.887,81.295z M86.673,97.053
	c-0.122,0.27-0.224,0.552-0.369,0.809c-0.226,0.402-0.51,0.773-0.717,1.185c-0.47,0.935-0.336,1.494,0.389,2.254
	c0.344,0.359,0.686,0.764,0.876,1.213c0.337,0.789,0.801,1.436,1.572,1.806c0.715,0.345,1.441,0.692,2.198,0.919
	c1.584,0.476,3.09,0.184,4.279-0.954c2.525-2.417,1.783-5.742-0.103-7.879c-0.406-0.462-1.23-0.562-1.867-0.813
	C90.908,94.791,88.175,95.387,86.673,97.053z M75.874,115.776c-0.051,0.018-0.102,0.036-0.153,0.054
	c0.22,0.549,0.318,1.205,0.687,1.622c0.528,0.598,1.204,1.111,1.905,1.5c1.476,0.814,3.064,1.354,4.742,1.606
	c2.06,0.309,3.923,0.162,5.154-1.877c0.653-1.083,1.251-2.196,0.871-3.45c-0.205-0.673-0.772-1.278-1.286-1.806
	c-0.854-0.875-1.86-1.53-3.178-1.38c-1.456,0.166-2.912,0.33-4.364,0.522c-1.335,0.178-2.549,0.653-3.634,1.479
	C76.021,114.5,75.705,115.016,75.874,115.776z M77.449,88.439c0.154-1.071-0.286-1.84-1.157-2.406c-1.79-1.16-3.735-1.687-5.864-1.4
	c-1.348,0.183-1.859,0.766-1.949,2.128c-0.011,0.168,0.024,0.349-0.026,0.502c-0.167,0.506-0.338,1.014-0.557,1.498
	c-0.274,0.608-0.708,1.166-0.866,1.797c-0.123,0.49-0.096,1.166,0.16,1.573c0.682,1.085,1.661,1.919,2.945,2.216
	c0.749,0.174,1.556,0.269,2.314,0.188c0.791-0.084,1.684-0.242,2.307-0.687C76.579,92.55,77.298,90.61,77.449,88.439z
	 M95.469,86.656c0.582-0.211,1.18-0.346,1.693-0.631c1.163-0.648,1.545-1.799,1.807-3.021c0.242-1.129-0.373-2.056-0.656-3.061
	c-0.038-0.136-0.213-0.265-0.355-0.339c-2.272-1.174-4.624-1.896-7.2-1.159c-1.186,0.339-2.311,0.683-3.064,1.872
	c-1.276,2.015,0.451,5,2.763,4.921c1.045-0.035,2.057,0.23,3.005,0.785C94.035,86.357,94.756,86.441,95.469,86.656z M99.51,69.213
	c-0.463-0.825-0.816-1.465-1.182-2.098c-0.356-0.616-0.798-1.053-1.568-1.229c-1.229-0.28-2.374,0.081-3.55,0.23
	c-1.68,0.214-2.94,1.217-4.094,2.327c-0.818,0.787-1.024,1.873-0.641,2.924c0.31,0.85,1.167,1.067,2.006,1.2
	c1.092,0.174,2.183,0.362,3.271,0.564c1.104,0.205,2.189,0.686,3.333,0.317c1.756-0.565,2.133-0.612,2.409-2.449
	C99.592,70.352,99.51,69.676,99.51,69.213z M73.266,106.701c0.015-0.046,0.029-0.091,0.044-0.136
	c0.105,0.004,0.21,0.014,0.315,0.013c1.547-0.005,2.995-1.249,3.169-2.751c0.15-1.307-0.326-2.451-1.132-3.417
	c-1.163-1.395-2.521-1.638-4.147-0.907c-0.381,0.171-0.788,0.285-1.188,0.415c-1.265,0.411-2.18,1.179-2.473,2.523
	c-0.186,0.858-0.058,1.66,0.774,2.149c0.881,0.519,1.773,1.028,2.697,1.461C71.938,106.34,72.616,106.489,73.266,106.701z
	 M119.319,72.896c-0.026,0.062-0.053,0.123-0.079,0.185c0.501,0.51,0.964,1.067,1.513,1.52c0.857,0.707,1.746,1.385,2.674,1.993
	c0.745,0.489,1.557,0.88,2.363,1.266c0.445,0.213,0.958,0.283,1.407,0.49c0.739,0.338,1.439,0.761,2.179,1.098
	c0.354,0.162,0.647,0.018,0.739-0.385c-0.291-0.263-0.521-0.559-0.823-0.725c-0.853-0.465-1.731-0.889-2.61-1.304
	c-0.37-0.174-0.812-0.221-1.147-0.438c-1.036-0.671-2.049-1.378-3.046-2.106c-0.647-0.473-1.391-0.871-1.605-1.759
	c-0.214-0.893-0.495-1.771-0.682-2.669c-0.185-0.889-0.795-1.331-1.544-1.667c-0.602-0.27-1.136-0.087-1.317,0.521
	c1.231,0.458,1.482,1.562,1.714,2.595c-0.696,0.104-1.359,0.096-1.94,0.311c-1.292,0.476-2.56,0.732-3.923,0.309
	c-0.292-0.09-0.664,0.079-1.099,0.144c1.095,1.239,2.679,1.25,6.117,0.166C118.55,72.579,118.935,72.737,119.319,72.896z
	 M86.197,69.722c-0.482,0.253-0.974,0.403-1.313,0.718c-0.393,0.363-0.646,0.873-0.966,1.315c-0.664,0.916-1.233,1.929-2.027,2.714
	c-0.77,0.762-1.349,1.566-1.755,2.561c-0.423,1.035-0.714,2.142-1.626,2.947c-0.292,0.257-0.294,0.843-0.445,1.331
	c0.487,0.188,0.814,0.314,1.132,0.438c0.21-0.462,0.369-0.811,0.573-1.255c0.176,0.216,0.274,0.316,0.348,0.431
	c0.692,1.074,1.357,2.166,2.085,3.214c0.179,0.256,0.56,0.372,0.848,0.552c0.101-0.314,0.118-0.5,0.042-0.632
	c-0.747-1.285-1.516-2.557-2.262-3.842c-0.119-0.206-0.286-0.502-0.22-0.678c0.375-1,0.71-2.036,1.256-2.942
	c0.663-1.099,1.526-2.078,2.293-3.114c0.778-1.051,1.546-2.108,2.388-3.257C86.543,70.215,86.428,70.052,86.197,69.722z
	 M63.376,101.138c0.029,0.238,0.005,0.467,0.088,0.645c0.409,0.882,0.524,1.803,0.459,2.764c-0.059,0.849,0.359,1.489,0.976,2.02
	c1.156,0.995,2.259,2.065,3.494,2.951c0.814,0.584,1.792,0.979,2.749,1.312c0.613,0.215,1.319,0.225,1.983,0.22
	c1.053-0.008,2.192,0.127,2.856-1.058c-0.213-0.563-0.638-0.383-1.024-0.251c-0.313,0.106-0.625,0.4-0.912,0.371
	c-1.055-0.109-2.141-0.191-3.135-0.523c-1.358-0.455-2.499-1.324-3.439-2.434c-0.227-0.268-0.54-0.463-0.815-0.688
	c-0.624-0.51-1.263-1.032-1.224-1.935c0.043-0.998-0.232-1.897-0.674-2.769c-0.064-0.127-0.056-0.294-0.131-0.411
	c-0.168-0.259-0.368-0.498-0.573-0.768C63.75,100.832,63.589,100.964,63.376,101.138z M86.565,91.328
	c0.277,0.26,0.384,0.417,0.532,0.488c0.519,0.25,0.904-0.05,1.319-0.326c0.779-0.517,1.542-1.06,2.575-0.981
	c0.536,0.041,1.086-0.094,1.63-0.14c0.684-0.057,1.369-0.104,2.168-0.164c0.212,0.532,0.473,0.989,0.572,1.479
	c0.2,0.989,0.743,1.58,1.689,1.925c1.198,0.438,2.428,0.47,3.667,0.432c0.221-0.008,0.436-0.224,0.653-0.343
	c0.008-0.087,0.016-0.174,0.023-0.262c-0.243-0.12-0.478-0.316-0.73-0.343c-0.521-0.054-1.051-0.002-1.577-0.021
	c-1.157-0.04-2.158-0.805-2.463-1.733c-0.235-0.713-0.604-1.381-0.961-2.179c-1.204,0.065-2.283,0.125-3.361,0.185
	c-0.536,0.03-1.072,0.059-1.608,0.098c-0.33,0.024-0.707-0.028-0.98,0.113C88.699,90.081,87.721,90.67,86.565,91.328z
	 M124.516,85.593c1.656-0.296,3.165-2.078,3.297-3.776c-0.055-0.042-0.114-0.101-0.186-0.138c-0.091-0.046-0.192-0.076-0.302-0.117
	c-1.507,0.403-1.198,2.179-2.217,2.95c-0.149,0-0.294-0.004-0.439,0c-0.643,0.016-1.172,0.137-1.386,0.895
	c-0.19,0.674-0.515,1.312-0.789,1.962c-0.129,0.305-0.278,0.6-0.416,0.895c-0.387-0.034-0.734-0.145-1.044-0.078
	c-1.161,0.249-2.272,0.244-3.368-0.3c-0.478-0.238-0.92-0.084-1.284,0.534c0.494,0.212,0.913,0.432,1.356,0.578
	c1.509,0.495,3.038,0.179,4.558,0.06c0.667-0.051,1.083-0.448,1.306-1.092C123.883,87.158,124.215,86.37,124.516,85.593z
	 M69.859,111.441c0,0.261-0.034,0.398,0.006,0.509c0.519,1.445,0.146,2.776-0.398,4.138c-0.472,1.18-0.523,2.407,0.179,3.574
	c0.271,0.449,0.551,0.835,1.112,0.896c0.299-0.499,0.324-0.816,0.059-1.565c-0.325-0.916-0.246-1.798,0.087-2.695
	c0.354-0.956,0.871-1.896,0.644-2.966c-0.16-0.756,0.103-1.691-0.908-2.211C70.418,111.212,70.144,111.324,69.859,111.441z
	 M82.518,105.467c0.404-0.208,0.796-0.278,0.901-0.491c0.236-0.477,0.527-1.06,0.444-1.538c-0.276-1.572-0.41-3.206-1.494-4.537
	c-0.396-0.486-0.637-1.099-0.949-1.653c-0.875-1.093-1.142-1.201-1.687-0.771c0.209,0.143,0.411,0.28,0.643,0.438
	c-0.384,0.795,0.072,1.384,0.491,1.958c1.255,1.717,1.727,3.65,1.651,5.746C82.512,104.824,82.518,105.029,82.518,105.467z
	 M95.553,121.915c-0.485-0.197-0.628-0.16-0.99,0.206c-0.205,0.206-0.398,0.466-0.651,0.577c-1.426,0.624-2.802,1.449-4.475,1.149
	c-0.63-0.113-1.33-0.013-1.897-0.251c-0.518-0.216-0.849-0.21-1.247,0.138c0.009,0.615,0.445,0.913,0.911,0.962
	c1.283,0.138,2.613,0.392,3.857,0.187c1.287-0.211,2.502-0.887,3.731-1.401C95.442,123.209,95.774,122.707,95.553,121.915z
	 M99.216,75.516c0.588,0.136,1.012,0.304,1.442,0.321c1.342,0.053,1.594,0.358,1.651,1.717c0.047,1.125,0.214,2.251,0.425,3.358
	c0.055,0.288,0.447,0.557,0.744,0.732c0.117,0.07,0.4-0.14,0.5-0.179c-0.103-1.516-0.237-2.874-0.271-4.234
	c-0.021-0.861-0.333-1.484-1.044-1.949C101.782,74.707,100.063,74.719,99.216,75.516z M126.117,88.349
	c0.515,0.826,1.054,1.453,1.317,2.179c0.237,0.658,0.645,0.98,1.219,0.98c1.778,0.001,3.393,0.684,5.069,1.104
	c0.541,0.135,0.897,0.024,1.023-0.684c-0.267-0.119-0.53-0.274-0.813-0.354c-0.907-0.256-1.816-0.505-2.734-0.714
	c-0.522-0.118-1.072-0.111-1.59-0.238c-0.308-0.075-0.666-0.235-0.85-0.475c-0.502-0.645-0.923-1.353-1.396-2.066
	C126.848,88.19,126.49,88.268,126.117,88.349z M77.669,97.475c0.454-0.698,0.772-1.213,1.116-1.71
	c0.297-0.429,0.655-0.816,0.927-1.259c0.755-1.228,1.492-2.474,0.677-4.057c-0.234,0-0.546,0-0.917,0
	c-0.038,0.265-0.117,0.47-0.088,0.658c0.26,1.659-0.779,2.787-1.62,3.993c-0.274,0.394-0.641,0.732-0.862,1.149
	c-0.134,0.252-0.201,0.705-0.062,0.896C76.997,97.36,77.418,97.386,77.669,97.475z M91.182,108.23
	c-0.437-0.028-0.771-0.05-1.104-0.07c-0.329-0.021-0.678,0.022-0.983-0.073c-0.582-0.182-1.06-0.105-1.507,0.312
	c-0.535,0.499-1.163,0.597-1.871,0.417c-0.588-0.151-1.189-0.284-1.792-0.325c-0.324-0.021-0.663,0.168-0.996,0.263
	c-0.005,0.094-0.012,0.188-0.018,0.282c0.248,0.147,0.481,0.356,0.749,0.427c0.442,0.116,0.956,0.038,1.356,0.223
	c1.311,0.604,2.4,0.13,3.482-0.562C90.427,109.321,90.652,109.261,91.182,108.23z M108.792,71.516
	c-0.977-0.717-2.383-0.281-2.67,0.767c-0.309,1.127-0.584,2.262-0.875,3.394c0.177,0.523,0.464,0.83,1.072,0.625
	c0.44-1.431,0.871-2.83,1.286-4.185c0.342-0.043,0.547-0.068,0.781-0.097C108.509,71.866,108.637,71.708,108.792,71.516z
	 M65.389,95.543c0.151,1.153,0.292,2.232,0.434,3.311c-0.056,0.054-0.111,0.108-0.167,0.162c0.331,0.102,0.662,0.274,0.994,0.275
	c0.165,0.001,0.485-0.327,0.47-0.479c-0.096-0.987-0.132-2.013-0.45-2.935C66.39,95.066,65.788,95.042,65.389,95.543z
	 M79.315,124.683c-1.063-0.737-2.061-1.451-3.083-2.128c-0.543-0.36-0.979-0.253-1.381,0.329c0.424,0.339,0.834,0.718,1.292,1.021
	c0.641,0.425,1.299,0.839,1.989,1.173C78.601,125.306,79.079,125.231,79.315,124.683z M104.78,84.45
	c0.156,1.222,1.018,2.28,1.904,2.406c0.871,0.124,1.22,0.01,1.448-0.534c-1.192-0.188-1.742-1.003-1.995-2.11
	C105.6,83.765,105.196,84.079,104.78,84.45z M101.035,87.952c-0.169,0.811,0.935,2.295,1.637,2.259
	c0.241-0.012,0.469-0.255,0.767-0.428c-0.628-0.752-1.141-1.367-1.648-1.974C101.487,87.867,101.268,87.908,101.035,87.952z
	 M92.025,115.596c0.381,0.858,0.881,1.586,1.553,2.158c0.269,0.229,0.679,0.121,0.859-0.277
	C93.784,115.833,93.042,115.209,92.025,115.596z M90.812,75.373c-0.696-0.498-3.115-0.461-3.515,0.028
	C87.861,76.241,90.038,76.247,90.812,75.373z M73.768,114.145c-0.505-0.714-1.077-0.654-1.627,0.117
	c0.275,0.625,0.768,0.598,1.35,0.431C73.576,114.524,73.668,114.341,73.768,114.145z M82.16,93.871
	c0.498-0.265,0.892-0.474,1.265-0.672c-0.282-0.826-0.884-0.898-1.619-0.271C81.895,93.164,81.993,93.426,82.16,93.871z
	 M75.21,77.269c0.014,0.108,0.029,0.217,0.044,0.326c0.299,0.15,0.599,0.301,0.907,0.456c0.279-0.2,0.507-0.364,0.886-0.635
	c-0.328-0.257-0.572-0.604-0.795-0.59C75.896,76.848,75.556,77.109,75.21,77.269z M104.444,94.395
	c-0.555-0.696-1.091-0.646-1.599,0.091c0.286,0.617,0.763,0.594,1.364,0.358C104.27,94.727,104.354,94.566,104.444,94.395z
	 M91.921,93.395c0.001,0.094,0.002,0.189,0.003,0.284c0.323,0.126,0.652,0.362,0.965,0.342c0.241-0.016,0.462-0.352,0.812-0.646
	c-0.403-0.27-0.643-0.43-0.925-0.62C92.459,92.992,92.191,93.193,91.921,93.395z M86.152,87.151
	c-0.146,0.201-0.289,0.396-0.417,0.572c0.479,0.737,1.028,0.725,1.548-0.004C87.185,87.091,86.692,87.163,86.152,87.151z
	 M110.323,75.135c-0.182-0.48-0.395-0.812-0.869-0.745c-0.386,0.055-0.701,0.259-0.658,0.814c0.208,0.129,0.446,0.278,0.705,0.439
	C109.777,75.473,110.017,75.324,110.323,75.135z M85.647,77.828c-0.313-0.143-0.605-0.375-0.91-0.392
	c-0.378-0.021-0.739,0.163-0.703,0.66C84.675,78.709,85.128,78.676,85.647,77.828z M113.399,70.118
	c0.318,0.943,0.922,1.04,1.646,0.318c-0.168-0.19-0.333-0.541-0.52-0.552C114.161,69.861,113.784,70.027,113.399,70.118z
	 M91.292,111.383c-0.702-0.749-1.337-0.61-1.724,0.323c0.328,0.093,0.659,0.286,0.953,0.241
	C90.785,111.907,91.009,111.604,91.292,111.383z M78.375,85.83c0.179,0.495,0.561,0.629,0.964,0.502
	c0.257-0.081,0.45-0.364,0.677-0.56C79.326,85.06,78.84,85.109,78.375,85.83z M74.907,119.744c-0.008-0.085-0.016-0.171-0.025-0.256
	c-0.252-0.12-0.52-0.362-0.754-0.333c-0.316,0.038-0.607,0.284-0.91,0.441c0.011,0.106,0.021,0.213,0.031,0.321
	c0.326,0.107,0.656,0.307,0.977,0.292C74.459,120.199,74.68,119.909,74.907,119.744z M78.342,105.556
	c0.282,0.187,0.535,0.354,0.844,0.559c0.295-0.282,0.536-0.512,0.764-0.729C79.448,104.643,78.916,104.684,78.342,105.556z
	 M80.308,100.965c-0.217-0.281-0.421-0.545-0.683-0.882c-0.384,0.317-0.675,0.557-0.96,0.792
	C79.155,101.529,79.543,101.566,80.308,100.965z M97.83,89.464c0.408,0.483,0.841,0.57,1.27,0.249
	c0.353-0.264,0.29-0.61-0.042-0.923C98.518,88.741,98.026,88.779,97.83,89.464z M122.165,83.781
	c-0.605-0.128-1.05-0.024-1.266,0.574c0.071,0.111,0.107,0.188,0.162,0.248c0.069,0.076,0.152,0.139,0.335,0.3
	c0.321-0.128,0.688-0.275,1.119-0.448C122.343,84.125,122.25,83.946,122.165,83.781z M66.397,113.224
	c0.397,0.078,0.746,0.229,1.062,0.178c0.226-0.036,0.408-0.344,0.608-0.529C67.396,112.148,66.847,112.246,66.397,113.224z
	 M121.241,91.823c0.323-0.07,0.64-0.137,0.987-0.211c0.048-0.242,0.085-0.435,0.12-0.604c-0.756-0.503-1.083-0.43-1.518,0.335
	C120.947,91.48,121.078,91.632,121.241,91.823z M83.491,123.895c-0.357,0.23-1.02,0.055-0.976,0.788
	c0.498,0.43,1.068,0.438,1.356,0.007C84.122,124.313,83.949,124.074,83.491,123.895z M96.055,105.996
	c-0.397-0.062-0.75-0.194-1.07-0.138c-0.214,0.037-0.384,0.339-0.571,0.52C95.098,107.114,95.721,107.003,96.055,105.996z
	 M101.692,83.079c-0.588-0.707-1.183-0.627-1.493,0.168C100.775,83.919,101.247,83.876,101.692,83.079z M97.771,98.989
	c0.989,0.588,1.446,0.419,1.507-0.546c-0.302-0.042-0.645-0.182-0.925-0.102C98.132,98.403,97.987,98.734,97.771,98.989z
	 M98.837,76.993c-0.404,0.116-0.793,0.228-1.182,0.339c-0.023,0.075-0.046,0.149-0.068,0.225c0.182,0.181,0.36,0.506,0.546,0.511
	c0.339,0.007,0.683-0.175,1.085-0.297C99.053,77.434,98.974,77.272,98.837,76.993z M121.794,79.442
	c0.367,0.164,0.66,0.398,0.943,0.388c0.248-0.009,0.484-0.293,0.726-0.457C122.943,78.605,122.484,78.612,121.794,79.442z
	 M73.136,97.146c-0.82-0.676-1.282-0.577-1.717,0.332c0.351,0.092,0.683,0.271,0.982,0.228
	C72.648,97.668,72.859,97.369,73.136,97.146z M124.581,80.756c0.047,0.533,0.359,0.725,0.812,0.652
	c0.474-0.077,0.664-0.385,0.526-0.876C125.428,80.232,124.986,80.214,124.581,80.756z M78.75,109.809
	c-0.722-0.298-0.989-0.212-1.37,0.435c0.167,0.478,0.57,0.502,0.96,0.406C78.728,110.554,78.951,110.287,78.75,109.809z
	 M89.561,120.778c0.462,0.077,0.822,0.225,1.136,0.159c0.223-0.046,0.386-0.381,0.582-0.595
	C90.572,119.786,90.176,119.873,89.561,120.778z M101.258,70.734c0.449,0.585,1.09,0.787,1.344,0.474
	c0.151-0.187,0.09-0.545,0.125-0.827c-0.085-0.059-0.169-0.119-0.254-0.178C102.083,70.374,101.692,70.545,101.258,70.734z
	 M131.544,79.662c-0.324,0.101-0.541,0.167-0.805,0.249c-0.026,0.198-0.053,0.391-0.074,0.551c0.697,0.453,1.021,0.376,1.379-0.335
	C131.891,79.983,131.72,79.825,131.544,79.662z M133.548,80.124c0.721,0.725,1.106,0.677,1.54-0.123
	c-0.213-0.135-0.455-0.415-0.651-0.385C134.143,79.66,133.881,79.92,133.548,80.124z M136.192,94.051
	c-0.065,0.671,0.206,0.898,0.648,0.831c0.547-0.083,0.673-0.468,0.498-1.098C136.938,93.877,136.562,93.964,136.192,94.051z
	 M135.612,92.462c0.556,0.6,0.821,0.585,1.346-0.005c-0.087-0.165-0.187-0.352-0.368-0.692
	C136.223,92.027,135.926,92.239,135.612,92.462z M125.03,90.416c-0.925-0.288-1.288-0.047-1.141,0.787
	c0.345-0.067,0.709-0.093,1.028-0.227C125.018,90.933,124.998,90.601,125.03,90.416z"/>
<path fill-rule="evenodd" clip-rule="evenodd" fill="#e3a13b" class="fill" d="M137.132,98.236c-0.366,0.246-0.586,0.394-0.817,0.55
	c0.24,0.709,0.795,0.403,1.342,0.456c0.589,1.513,0.766,3.042-0.036,4.568c-0.845,0.271-1.241,0.147-1.67-0.563
	c-0.699-0.049-1.453-0.102-2.23-0.157c-0.044-0.216-0.077-0.373-0.135-0.657c-0.4-0.025-0.828-0.051-1.302-0.08
	c0,0.372,0,0.593,0,0.868c-0.447,0.089-0.9,0.179-1.543,0.307c0.248-0.357,0.371-0.534,0.564-0.812
	c-0.252-0.153-0.496-0.302-0.755-0.46c-0.316,0.184-0.585,0.339-0.73,0.423c-1.157-0.533-2.208-1.143-3.34-1.503
	c-1.178-0.375-2.409-0.154-3.626,0.275c0-0.224,0-0.397,0-0.76c-0.417-0.03-0.857-0.06-1.382-0.097c0-0.345-0.022-0.792,0.005-1.236
	c0.037-0.625,0.127-1.245,0.164-1.869c0.03-0.521,0.229-0.82,0.765-0.994c1.267-0.412,2.457-1.105,3.835-1.096
	c0.847,0.005,1.694,0.105,2.542,0.164c-0.071,0.915,0.362,1.08,1.541,0.662c0.069,0.42,0.133,0.814,0.182,1.108
	c-0.58,0.08-1.02,0.141-1.69,0.234c0.256,0.457,0.403,0.717,0.531,0.945c0.393-0.079,0.635-0.127,0.912-0.183
	c0,0.936-0.015,1.834,0.004,2.733c0.017,0.781,0.271,0.954,1.159,0.785c0.812-1.407,0.621-3.029,0.781-4.757
	c0.75-0.083,1.505-0.167,2.412-0.267c-0.179,0.358-0.258,0.516-0.407,0.813c0.374,0.143,0.706,0.27,1.031,0.394
	c0.23-0.297,0.381-0.493,0.619-0.8C136.265,97.555,136.657,97.863,137.132,98.236z M134.227,100.387
	c0.058-0.237,0.111-0.455,0.16-0.653c-0.519-0.555-1.059-0.468-1.36,0.222C133.26,100.439,133.604,100.664,134.227,100.387z
	 M124.151,99.108c0.284,0.874,0.566,0.927,1.504,0.382c-0.148-0.185-0.269-0.479-0.424-0.497
	C124.901,98.954,124.554,99.056,124.151,99.108z M126.472,98.495c-0.253-0.246-0.425-0.555-0.613-0.565
	c-0.312-0.016-0.634,0.159-0.952,0.254c0.004,0.079,0.009,0.158,0.014,0.237c0.199,0.165,0.397,0.33,0.586,0.486
	C125.807,98.778,126.053,98.673,126.472,98.495z M122.725,99.405c0.359-0.15,0.585-0.246,0.949-0.398
	c-0.167-0.228-0.278-0.533-0.427-0.553c-0.352-0.045-0.721,0.045-1.083,0.08c-0.027,0.09-0.054,0.18-0.081,0.27
	C122.298,99.005,122.513,99.206,122.725,99.405z M126.895,99.282c0.384,0.277,0.56,0.403,0.729,0.526
	c0.319-0.116,0.583-0.212,0.979-0.355c-0.274-0.288-0.461-0.483-0.726-0.76C127.578,98.872,127.312,99.031,126.895,99.282z
	 M136.288,100.247c-0.241,0.227-0.448,0.422-0.667,0.63c0.739,0.591,1.264,0.483,1.443-0.269
	C136.844,100.506,136.611,100.397,136.288,100.247z M128.045,100.826c0.362,0.168,0.648,0.401,0.933,0.398
	c0.208-0.003,0.413-0.316,0.629-0.498C129.008,100.128,128.686,100.136,128.045,100.826z M134.968,100.952
	c-0.461-0.079-0.846-0.145-1.241-0.212c-0.07,0.26-0.118,0.437-0.161,0.594C134.132,101.897,134.528,101.831,134.968,100.952z
	 M126.208,96.399c-0.022,0.472,0.289,0.586,0.643,0.551c0.386-0.037,0.657-0.244,0.585-0.716
	C126.963,95.839,126.574,95.984,126.208,96.399z M137.697,102.239c-0.408-0.095-0.77-0.179-1.125-0.261
	c-0.116,0.216-0.182,0.32-0.228,0.432c-0.021,0.053-0.003,0.122-0.003,0.177C136.853,103.031,137.295,102.96,137.697,102.239z
	 M123.242,97.165c0.396,0.053,0.725,0.157,1.031,0.112c0.13-0.02,0.213-0.352,0.318-0.543
	C123.831,96.339,123.541,96.413,123.242,97.165z M134.115,97.71c-0.534-0.375-0.954-0.489-1.416,0.206
	c0.371,0.133,0.68,0.243,0.984,0.352C133.856,98.044,133.965,97.904,134.115,97.71z"/>
<path fill-rule="evenodd" clip-rule="evenodd" fill="#e3a13b" class="fill" d="M101.345,105.946c-0.385-1.763-0.655-3.833,0.971-5.63
	c0.101,0.023,0.2,0.042,0.296,0.071c0.1,0.029,0.198,0.067,0.402,0.138c0.217-0.174,0.475-0.379,0.779-0.622
	c-0.267-0.196-0.43-0.315-0.591-0.434c0.807-1.325,3.402-1.683,4.953-0.739c0.353,1.299,0.696,2.557,1.019,3.743
	c-0.396,0.032-0.836,0.068-1.276,0.104c-0.032,0.09-0.064,0.179-0.096,0.268c0.154,0.179,0.311,0.508,0.463,0.507
	c0.361-0.004,0.72-0.165,1.24-0.305c0.328,0.653,0.75,1.495,1.232,2.457c-0.558-0.067-1.004-0.121-1.232-0.149
	c-0.273-0.351-0.395-0.621-0.603-0.75c-0.384-0.238-0.724-0.099-0.975,0.336c0.051,0.139,0.111,0.305,0.128,0.351
	c-0.715,0.482-1.396,0.941-2.113,1.425c-0.355-0.034-0.793-0.076-1.291-0.124c-0.048,0.336-0.079,0.552-0.11,0.776
	c0.247,0.093,0.44,0.168,0.771,0.293c-0.153,0.532-0.31,1.074-0.475,1.646c-0.239-0.073-0.436-0.134-0.632-0.193
	c0.067-0.07,0.134-0.141,0.202-0.21C103.456,107.986,102.508,107.07,101.345,105.946z M105.507,104.119
	c-0.314,0.238-0.56,0.423-0.808,0.61c0.534,0.657,0.906,0.674,1.548,0.041C106.01,104.562,105.781,104.359,105.507,104.119z
	 M102.65,102.868c0.37-0.118,0.71-0.227,1.18-0.377c-0.294-0.332-0.464-0.521-0.665-0.747c-0.354,0.163-0.664,0.305-1.017,0.467
	C102.347,102.469,102.457,102.614,102.65,102.868z M106.44,100.36c-0.656-0.709-0.985-0.704-1.554-0.081
	c0.177,0.162,0.354,0.323,0.573,0.524C105.778,100.66,106.072,100.527,106.44,100.36z M101.979,104.369
	c0.565,0.686,0.887,0.687,1.387,0.035C102.934,103.746,102.555,103.728,101.979,104.369z M107.705,102.758
	c-0.413-0.177-0.676-0.384-0.927-0.37c-0.246,0.015-0.478,0.255-0.866,0.486c0.451,0.225,0.702,0.35,0.99,0.495
	C107.13,103.194,107.332,103.042,107.705,102.758z M105.812,102.657c-0.489,0-0.858-0.047-1.199,0.03
	c-0.094,0.021-0.103,0.414-0.167,0.702c0.464,0,0.769,0,1.09,0C105.605,103.204,105.669,103.036,105.812,102.657z M108.182,99.823
	c-0.016-0.104-0.031-0.209-0.047-0.313c-0.298-0.096-0.597-0.192-0.915-0.293c-0.183,0.154-0.323,0.271-0.638,0.535
	c0.438,0.202,0.688,0.402,0.94,0.408C107.739,100.163,107.962,99.943,108.182,99.823z M101.934,106.561
	c0.836,0.549,1.108,0.502,1.401-0.143c-0.133-0.141-0.282-0.298-0.5-0.528C102.528,106.119,102.26,106.318,101.934,106.561z"/>
<path fill-rule="evenodd" clip-rule="evenodd" fill="#e3a13b" class="fill" d="M120.341,102.385c0.313-0.182,0.455-0.263,0.58-0.335
	c0.105-0.387,0.202-0.743,0.305-1.115c0.35,0.27,0.647,0.499,0.954,0.736c-0.544,0.418-1.086,0.835-1.652,1.27
	c-0.82-0.221-1.666-0.449-2.55-0.687c-0.021-0.181-0.043-0.378-0.069-0.607c-0.223-0.078-0.435-0.151-0.682-0.237
	c-0.19,0.095-0.392,0.196-0.601,0.302c-0.024,0.226-0.046,0.427-0.07,0.651c-0.364,0.07-0.707,0.137-1.1,0.213
	c0.043-0.208,0.074-0.358,0.122-0.586c-0.294-0.117-0.574-0.229-0.897-0.358c-0.242,0.145-0.483,0.288-0.831,0.496
	c0.329,0.256,0.566,0.439,0.742,0.576c-0.857,0.594-1.767,1.226-2.736,1.899c-0.439-0.898-0.913-1.863-1.373-2.802
	c1.644-0.623,3.455-0.417,4.737-1.499c0.518,0.143,0.958,0.262,1.502,0.412c0.036-0.374,0.059-0.598,0.092-0.934
	c-0.511,0-0.921,0-1.417,0c-0.285-1.476-0.307-2.978,0.978-4.315c0.1-0.006,0.328-0.021,0.529-0.034
	c0.613,0.668,0.823,0.704,1.617,0.279c0.282,0.142,0.583,0.289,0.879,0.443c0.068,0.036,0.122,0.099,0.225,0.187
	c-0.206,0.131-0.374,0.239-0.577,0.37c-0.059,0.658,0.451,0.719,0.974,0.841c-0.085,0.511-0.232,1.021-0.24,1.533
	c-0.015,0.832,0.033,1.669,0.12,2.497C119.93,101.84,120.168,102.081,120.341,102.385z M118.455,98.131
	c-0.806-0.514-1.397-0.34-1.644,0.519c0.45,0.049,0.875,0.149,1.286,0.109C118.231,98.745,118.328,98.366,118.455,98.131z
	 M116.758,98.194c0.125-0.368,0.224-0.654,0.321-0.939c-0.293-0.085-0.6-0.263-0.876-0.225c-0.209,0.029-0.38,0.334-0.666,0.61
	C116.019,97.859,116.296,97.985,116.758,98.194z M113.248,102.515c-0.535-0.739-1.089-0.726-1.585-0.006
	c0.25,0.184,0.501,0.37,0.832,0.614C112.771,102.9,113.012,102.705,113.248,102.515z M118.743,99.963
	c-0.406,0.19-0.777,0.365-1.187,0.558c0.401,0.689,0.878,0.494,1.355,0.431c0.086-0.176,0.166-0.34,0.253-0.52
	C119.037,100.292,118.93,100.171,118.743,99.963z"/>
<path fill-rule="evenodd" clip-rule="evenodd" fill="#e3a13b" class="fill" d="M100.34,107.996c-0.146,0.269-0.213,0.393-0.309,0.568
	c0.195,0.161,0.381,0.314,0.578,0.475c0.208-0.058,0.39-0.101,0.567-0.161c0.156-0.052,0.308-0.123,0.543-0.219
	c0.723,0.573,1.465,1.163,2.347,1.863c-2.141,0.479-3.265,2.062-4.119,3.834c0.223,0.664,0.465,1.386,0.708,2.107
	c-0.095,0.045-0.188,0.089-0.283,0.135c-1.002-1.218-2.162-2.322-2.666-3.943c0.078-0.19,0.167-0.41,0.266-0.649
	c-0.209-0.152-0.373-0.272-0.554-0.404c-0.158-1.01-0.084-1.98,0.532-2.788c0.421,0.079,0.792,0.149,1.17,0.221
	c0.125-0.261,0.205-0.427,0.293-0.609c-0.117-0.163-0.223-0.31-0.33-0.458c0.017-0.062,0.034-0.124,0.051-0.187
	C99.503,107.848,99.871,107.913,100.34,107.996z M100.236,112.644c-0.593-0.571-1.033-0.525-1.387,0.116
	C99.232,113.36,99.821,113.326,100.236,112.644z M101.243,110.724c0.348,0.153,0.627,0.363,0.912,0.371
	c0.169,0.004,0.346-0.311,0.552-0.514C102.14,110.137,101.744,110.096,101.243,110.724z M99.351,109.584
	c-0.217,0.192-0.407,0.361-0.652,0.578c0.226,0.206,0.388,0.353,0.626,0.569c0.271-0.231,0.515-0.441,0.86-0.737
	C99.839,109.825,99.645,109.729,99.351,109.584z"/>
<path fill-rule="evenodd" clip-rule="evenodd" fill="#e3a13b" class="fill" d="M133.518,72.087c-1.766-1.69-3.654-3.083-6.135-3.321
	c-0.052-0.957,0.812-1.549,1.747-1.149c1.017,0.436,1.991,0.984,2.941,1.554c0.642,0.385,1.253,0.847,1.799,1.357
	C134.454,71.073,134.297,71.664,133.518,72.087z"/>
<path fill-rule="evenodd" clip-rule="evenodd" fill="#e3a13b" class="fill" d="M108.607,61.813c0.179-0.117,0.344-0.294,0.539-0.339
	c0.674-0.154,1.354-0.291,2.039-0.375c0.321-0.04,0.713-0.04,0.979,0.109c0.815,0.458,1.658,0.914,2.351,1.527
	c0.789,0.697,0.516,2.035-0.518,2.965c-0.028-0.165-0.066-0.293-0.07-0.423c-0.051-1.386-0.7-2.233-2.277-2.747
	c-0.727-0.236-1.514-0.285-2.274-0.414c-0.236-0.039-0.476-0.06-0.713-0.089C108.644,61.957,108.625,61.885,108.607,61.813z"/>
<path fill-rule="evenodd" clip-rule="evenodd" fill="#e3a13b" class="fill" d="M80.596,68.705c-0.011,0.867-0.14,1.581-0.918,2.046
	c-1.759-1.256-3.727-0.754-5.86-0.641c0.264-0.329,0.369-0.58,0.552-0.667c1.744-0.833,3.597-1.067,5.506-0.917
	C80.098,68.543,80.315,68.633,80.596,68.705z"/>
<path fill-rule="evenodd" clip-rule="evenodd" fill="#e3a13b" class="fill" d="M135.117,83.869c0.266-0.272,0.399-0.483,0.59-0.592
	c0.872-0.494,1.71-0.08,2.551,0.141c0.303,0.081,0.593,0.214,0.896,0.293c1.935,0.5,2.015,1.829,1.833,3.373
	c-0.039,0.331-0.244,0.641-0.372,0.961c-0.098-0.02-0.197-0.039-0.295-0.058c0-0.422,0.041-0.851-0.014-1.266
	c-0.038-0.285-0.162-0.585-0.327-0.823c-0.951-1.378-2.504-1.468-3.941-1.801C135.814,84.045,135.593,83.987,135.117,83.869z"/>
<path fill-rule="evenodd" clip-rule="evenodd" fill="#e3a13b" class="fill" d="M112.027,91.639c0.196-0.355,0.396-0.72,0.581-1.058
	c1.221,0.244,2.516,0.053,2.87,1.571C113.711,92.431,112.698,92.17,112.027,91.639z"/>
<path fill-rule="evenodd" clip-rule="evenodd" fill="#e3a13b" class="fill" d="M118.548,80.364c-0.281-0.086-0.58-0.138-0.837-0.269
	c-0.238-0.122-0.447-0.314-0.642-0.504c-0.944-0.911-2.115-1.219-3.376-1.311c-0.299-0.022-0.595-0.099-0.909-0.153
	c0.242-0.645,0.926-0.953,1.62-0.855c1.182,0.166,2.284,0.598,3.244,1.252c0.498,0.339,0.753,1.034,1.118,1.568
	C118.692,80.184,118.62,80.274,118.548,80.364z"/>
<path fill-rule="evenodd" clip-rule="evenodd" fill="#e3a13b" class="fill" d="M89.164,98.761c-0.261-0.401-0.048-0.83,0.26-1.118
	c1.007-0.947,2.137-0.519,3.223-0.229c0.485,0.9,0.146,1.512-0.803,1.485C90.992,98.875,90.141,98.813,89.164,98.761z"/>
<path fill-rule="evenodd" clip-rule="evenodd" fill="#e3a13b" class="fill" d="M81.661,115.021c0.206-0.567,0.37-1.019,0.541-1.488
	c1.193,0.079,2.285,0.112,3.365,0.234c0.749,0.085,1.473,0.975,1.486,1.724c0.02,1.041-0.022,2.07-1.021,2.945
	c-0.131-0.201-0.35-0.382-0.352-0.564c-0.016-1.523-0.671-2.243-2.203-2.433C82.945,115.374,82.424,115.202,81.661,115.021z"/>
<path fill-rule="evenodd" clip-rule="evenodd" fill="#e3a13b" class="fill" d="M74.523,88.885c-1.16-0.46-2.281-0.905-3.385-1.344
	c0-0.379,0-0.667,0-0.93c0.951-0.81,2.938-0.665,3.962,0.26C75.442,88.05,75.298,88.574,74.523,88.885z"/>
<path fill-rule="evenodd" clip-rule="evenodd" fill="#e3a13b" class="fill" d="M96.755,82.768c-1.483-1.992-3.534-2.428-5.635-2.755
	c-0.011-0.062-0.023-0.124-0.035-0.185c0.65-0.114,1.299-0.313,1.95-0.322c1.092-0.012,2.109,0.358,3.021,0.959
	C96.831,80.977,96.858,81.765,96.755,82.768z"/>
<path fill-rule="evenodd" clip-rule="evenodd" fill="#e3a13b" class="fill" d="M93.286,67.688c3.086-1.305,3.875-0.085,4.093,2.042
	c-0.15,0.066-0.313,0.139-0.542,0.241C95.829,69.011,94.857,67.989,93.286,67.688z"/>
<path fill-rule="evenodd" clip-rule="evenodd" fill="#e3a13b" class="fill" d="M70.582,101.639c0.175-0.631,1.452-1.211,2.465-1.186
	c1.016,0.025,1.55,0.592,1.834,2.014c0.107,0.536,0.398,1.16-0.396,1.513C73.809,102.159,72.362,101.653,70.582,101.639z"/>
</svg>
