<svg version="1.1" id="svg" xmlns="http://www.w3.org/2000/svg" xmlns:xlink="http://www.w3.org/1999/xlink" x="0px" y="0px"
	 width="200px" height="200px" viewBox="0 0 200 200" enable-background="new 0 0 200 200" xml:space="preserve">
<path class="stroke" fill="#561906"  fill-rule="evenodd" clip-rule="evenodd" d="M138.95,180.553c1.834,3.329,4.088,6.352,5.656,9.838
	c-1.092,0.659-2.047,1.419-3.136,1.828c-0.783,0.294-1.768,0.26-2.622,0.119c-1.211-0.202-2.378-0.669-3.576-0.969
	c-2.99-0.748-5.869-1.801-8.717-2.973c-1.887-0.776-3.271-2.138-4.623-3.565c-0.902-0.956-1.749-1.964-2.68-3.015
	c-0.576,0.963-1.11,1.859-1.674,2.804c-2.731-0.147-5.213-1.036-7.909-1.51c0-2.885,0.001-5.604,0.002-8.384
	c-0.996-0.502-1.935-0.975-2.931-1.478c0.184-2.099,0.359-4.111,0.53-6.058c-0.599,0.507-1.158,0.992-1.735,1.457
	c-0.082,0.065-0.24,0.032-0.582,0.066c0.129-0.506,0.155-0.962,0.355-1.323c0.434-0.783,0.916-1.546,1.452-2.261
	c0.526-0.697,0.475-1.393,0.279-2.291c-1.369,0.826-2.171,2.268-3.879,2.552c0.124-0.268,0.182-0.487,0.31-0.655
	c0.903-1.187,1.833-2.355,2.733-3.548c0.333-0.444,0.603-0.937,0.104-1.544c-1.021,0.664-1.345,1.858-2.191,2.697
	c-0.313,0-0.672,0-1.24,0c0.723-1.79,1.828-3.113,3.038-4.466c-0.126-0.338-0.251-0.677-0.402-1.085
	c-0.62,0.583-1.151,1.083-1.707,1.605c-0.811-0.824-0.083-1.296,0.141-1.809c0.252-0.583,0.598-1.127,0.963-1.799
	c-1.803-5.084-1.149-9.933,2.017-14.476c-0.351-1.855-1.268-3.395-2.615-4.704c-1.894-1.841-4.102-2.093-6.526-1.314
	c-0.729,0.234-1.282,0.664-1.673,1.312c-0.729,1.215-1.268,2.504-1.562,3.935c1.052,1.797,1.513,3.761,1.648,5.84
	c0.136,2.083-0.128,4.085-0.809,6.044c-0.389,1.124-0.799,2.243-1.17,3.292c0.402,1.217,1.472,2.121,0.9,3.592
	c-0.436-0.522-0.869-1.044-1.431-1.719c-0.354,0.744-0.668,1.409-1.019,2.144c0.441,1.217,0.887,2.45,1.379,3.81
	c-0.364,0.065-0.657,0.118-0.962,0.172c-0.382-0.658-0.715-1.231-1.153-1.985c-0.26,0.586-0.437,0.988-0.618,1.394
	c0.229,0.671,0.445,1.297,0.697,2.031c-0.559,0.111-0.995,0.198-1.631,0.325c-0.392,1.749-0.77,3.577-1.215,5.387
	c-0.445,1.803-0.001,3.747-0.743,5.433c-0.893,0.317-1.642,0.583-2.481,0.88c0.257,2.043,0.495,3.974,0.726,5.818
	c-0.731,0.834-1.613,0.866-2.448,0.926c-1.53,0.111-3.068,0.142-4.601,0.221c-0.725,0.038-1.447,0.141-2.17,0.159
	c-0.503,0.013-1.01-0.068-1.569-0.112c-0.148-0.706-0.283-1.347-0.459-2.187c-7.655,4.138-15.822,5.146-24.377,5
	c-0.779-1.938-1.141-3.815-0.714-5.692c2.863-1.428,5.728-2.394,7.948-4.618c-0.114-0.843-0.262-1.68-0.332-2.523
	c-0.061-0.721-0.104-1.457-0.036-2.174c0.338-3.486,0.791-6.941,1.99-10.277c0.544-1.511,0.685-3.165,1.05-4.745
	c0.435-1.869,0.883-3.734,1.384-5.586c0.375-1.399,0.796-2.792,1.281-4.157c1.119-3.134,2.165-6.302,3.47-9.358
	c1.842-4.316,3.882-8.547,5.862-12.803c0.323-0.693,0.779-1.321,1.164-1.986c0.23-0.397,0.439-0.807,0.761-1.402
	c-0.628,0.105-1.038,0.154-1.439,0.242c-2.404,0.525-4.745,0.458-6.979-0.706c-0.982-0.513-2.003-0.961-2.947-1.538
	c-1.743-1.067-3.057-2.56-4.161-4.278c-2.502-3.877-4.383-8.034-5.381-12.524c-1.003-4.502-1.668-9.062-1.46-13.714
	c0.174-3.867,0.862-7.612,2.056-11.293c0.561-1.728,1.213-3.377,2.324-4.806c0.698-0.895,1.514-1.699,2.393-2.673
	c-0.048-0.716-0.143-1.647-0.166-2.579c-0.071-3.02,0.562-5.912,1.605-8.732c0.155-0.423,0.261-0.897,0.253-1.344
	C60.909,53.756,62.364,51.6,64.708,50c0.75-0.513,1.729-0.694,2.772-1.091c0.011-0.016,0.138-0.183,0.234-0.366
	c1.127-2.156,2.944-2.869,5.502-2.567c2.316,0.274,4.106,1.589,5.73,3.146c2.011,1.931,3.823,4.015,4.812,6.787
	c1.111-0.352,2.145-0.68,3.146-0.998c-0.52-1.905-1.117-3.675-1.465-5.495c-0.343-1.782-0.432-3.613-0.616-5.274
	c-1.911-0.274-3.685-0.464-5.433-0.792c-4.492-0.844-8.788-2.247-12.413-5.131c-1.899-1.511-3.091-3.596-3.133-6.08
	c-0.024-1.62,0.622-3.098,2.035-4.079c1.298-0.902,2.748-1.441,4.34-1.261c2.075,0.235,4.148,0.524,6.201,0.903
	c2.726,0.502,5.428,1.115,8.141,1.676c0.119,0.024,0.243,0.004,0.548,0.004c0.24-1.635,0.463-3.271,0.725-4.9
	c0.43-2.65,0.781-5.319,1.36-7.936c0.444-1.999,1.266-3.91,2.522-5.559c0.879-1.152,1.901-2.195,3.246-2.837
	c1.409-0.674,2.104-0.571,3.23,0.45c0.316,0.287,0.615,0.596,0.948,0.861c0.851,0.675,1.737,1.038,2.827,0.468
	c0.753-0.394,1.605-0.6,2.352-1.005c4.685-2.535,9.663-0.989,12.931,2.72c0.872,0.99,1.58,2.122,2.393,3.166
	c0.793,1.019,1.054,2.199,1.26,3.44c0.625,3.79,1.313,7.569,1.99,11.35c0.051,0.281,0.21,0.543,0.356,0.915
	c0.817-0.174,1.623-0.273,2.377-0.52c2.634-0.861,5.261-1.744,7.871-2.677c2.206-0.791,4.39-1.649,6.576-2.503
	c1.027-0.4,2.074-0.471,3.146-0.317c1.993,0.286,3.241,2.104,3.207,4.117c-0.034,2.042-1.309,3.172-2.636,4.301
	c-1.524,1.297-3.043,2.633-4.721,3.706c-1.899,1.213-3.892,2.375-5.992,3.156c-2.859,1.062-5.781,2.102-8.917,2.084
	c-0.163-0.001-0.327,0.072-0.654,0.151c-0.22,1.68-0.357,3.413-0.696,5.106c-0.333,1.666-0.872,3.291-1.314,4.913
	c0.727,1.45,1.481,2.952,2.288,4.563c0.531,0.061,1.116,0.143,1.704,0.191c2.127,0.176,4.284,0.17,6.369,0.562
	c1.952,0.367,3.919,0.961,5.701,1.821c1.129,0.543,2.085,1.645,2.851,2.69c1.613,2.201,3.06,4.527,4.56,6.81
	c2.176,3.306,3.592,6.963,4.93,10.658c0.455,1.253,0.481,2.521,0.168,3.777c-0.666,2.687-1.395,5.359-2.115,8.033
	c-0.419,1.553-0.764,3.138-1.341,4.633c-0.81,2.103-1.838,4.12-2.707,6.2c-0.919,2.204-2.498,3.938-3.917,5.798
	c-0.989,1.298-2.229,2.188-3.692,2.875c-1.884,0.885-3.713,1.878-5.642,2.861c0.433,0.941,0.783,1.808,1.217,2.63
	c1.156,2.186,2.4,4.325,3.516,6.531c2.28,4.51,4.06,9.2,5.068,14.178c0.575,2.853,0.886,5.731,1.183,8.619
	c0.205,1.99,0.474,3.975,0.679,5.966c0.326,3.149,0.105,6.302,0.035,9.454c-0.062,2.855-0.104,5.71-0.146,8.565
	c-0.044,3.118-0.235,6.217-0.998,9.259C139.063,179.281,139.039,179.886,138.95,180.553z M66.534,84.437
	c-2.818-2.474-4.508-5.576-5.753-9.235c-0.351,0.528-0.58,0.775-0.702,1.067c-2.261,5.423-3.213,11.049-2.382,16.894
	c0.352,2.485,0.964,4.932,1.442,7.398c0.66,3.403,2.036,6.475,4.044,9.307c1.497,2.112,3.386,3.584,5.886,4.234
	c1.254,0.326,2.56,0.529,3.737-0.179c1.376-0.828,2.271-2.12,3.102-3.421c-0.146-0.211-0.2-0.333-0.291-0.414
	c-2.569-2.279-4.3-5.149-5.783-8.193c-0.747-1.532-1.478-3.071-2.206-4.611c-0.902-1.911-1.521-3.866-1.36-6.041
	C66.435,88.994,66.45,86.73,66.534,84.437z M71.925,62.13c1.339-1.048,2.593-2.027,3.858-3.018c-0.82-1.59-1.874-2.435-3.46-2.624
	C71.812,58.344,71.507,60.207,71.925,62.13z M107.917,157.67c0.074,0.047,0.148,0.095,0.221,0.142
	c0.104-0.218,0.205-0.436,0.307-0.654c-0.055-0.029-0.11-0.059-0.166-0.088C108.159,157.271,108.038,157.47,107.917,157.67z"/>
<path fill-rule="evenodd" clip-rule="evenodd" fill="#bf7512" class="fill" d="M137.513,165.336c0.409,0.292,0.822,0.583,1.249,0.886
	c-0.04,4.298,0.056,8.549-1.06,12.679c-2.166-0.566-4.154-1.202-6.189-1.591c-2.72-0.519-5.47-0.872-8.213-1.249
	c-2.24-0.307-4.526-0.374-6.727-0.856c-2.472-0.543-4.676-1.8-6.734-3.448c-0.068-1.362-0.137-2.759-0.211-4.224
	c1.09-0.253,1.572-1.134,1.991-1.919c1.798-3.362,3.104-6.925,3.951-10.647c0.017-0.076-0.029-0.166-0.058-0.316
	c-0.088-0.071-0.203-0.201-0.35-0.271c-0.146-0.068-0.32-0.078-0.595-0.137c-0.174,0.269-0.414,0.521-0.508,0.818
	c-0.312,0.976-0.496,1.995-0.854,2.952c-1.002,2.675-2.062,5.33-3.11,7.989c-0.056,0.145-0.197,0.255-0.484,0.609
	c-0.166-0.996-0.296-1.765-0.438-2.617c2.24-2.852,3.107-6.364,4.516-9.594c-0.638-0.628-0.638-0.628-1.427-0.306
	c-1.03,2.493-2.063,5.002-3.161,7.664c-0.738-0.797-0.551-1.4-0.208-2.082c0.935-1.864,1.815-3.756,2.653-5.504
	c-0.194-1-0.962-0.547-1.432-0.831c0.086-0.364,0.17-0.729,0.299-1.285c-0.425-0.067-0.827-0.13-1.225-0.193
	c-0.552,1.111-1.038,2.092-1.625,3.272c-0.232-0.463-0.353-0.702-0.469-0.936c0.393-0.801,0.771-1.562,1.121-2.275
	c-0.291-1.087-0.973-0.617-1.638-0.457c-0.594-3.499-0.503-6.863,1.66-9.806c0.976-1.329,2.235-2.459,3.432-3.613
	c1.483-1.434,2.795-2.968,3.602-4.9c0.241-0.581,0.639-1.097,0.914-1.553c2.009-0.8,3.667-1.874,4.946-3.486
	c1.324-1.671,2.686-3.315,3.977-5.011c1.31-1.722,3.059-2.522,5.336-2.678c0.375,0.603,0.847,1.253,1.207,1.961
	c2.884,5.663,5.106,11.556,5.967,17.89c0.396,2.917,0.68,5.848,1.016,8.773c0.102,0.883,0.207,1.765,0.313,2.663
	c-0.471,0.117-0.826,0.206-1.254,0.313c0,0.442-0.049,0.862,0.008,1.268c0.358,2.493,0.753,4.98,1.113,7.473
	c0.168,1.169,0.128,2.341-0.127,3.53c-0.626-1.076-0.679-2.293-0.923-3.451c-0.254-1.21-0.435-2.436-0.658-3.652
	c-0.226-1.215-0.466-2.427-0.73-3.8c-0.296-0.028-0.624-0.06-0.854-0.082C135.012,153.989,136.673,163.381,137.513,165.336z
	 M121.005,168.322c0.583-0.312,0.619-0.839,0.625-1.405c0.012-1.488,0.037-2.977,0.074-4.466c0.065-2.681,0.139-5.361,0.213-8.184
	c-0.411-0.075-0.775-0.142-1.269-0.232c-0.071,0.638-0.156,1.09-0.167,1.545c-0.035,1.493-0.05,2.987-0.058,4.481
	c-0.012,2.219-0.022,4.439-0.009,6.659C120.419,167.292,120.332,167.932,121.005,168.322z M130.459,154.32
	c0.113,2.489,0.541,4.79,1.152,7.035c0.614,2.248,1.179,4.539,2.351,6.707c0.601-0.871,0.643-1.066,0.326-2.002
	c-1.207-3.596-2.161-7.247-2.458-11.045c-0.02-0.241-0.143-0.473-0.257-0.825C131.207,154.232,130.868,154.272,130.459,154.32z
	 M127.351,168.362c0.039-0.499,0.12-0.894,0.091-1.281c-0.199-2.806-0.406-5.612-0.646-8.415c-0.098-1.147-0.226-2.297-0.441-3.426
	c-0.16-0.828-0.369-0.881-1.294-0.608c0,0.195-0.018,0.406,0.002,0.613c0.176,1.742,0.354,3.483,0.537,5.223
	c0.232,2.208,0.465,4.415,0.698,6.622C126.355,167.612,126.441,168.113,127.351,168.362z M116.183,154.434
	c-0.156,0.591-0.263,0.954-0.348,1.323c-0.577,2.482-1.15,4.965-1.714,7.45c-0.243,1.078-0.472,2.16-0.683,3.244
	c-0.027,0.14,0.083,0.306,0.171,0.6c0.384-0.134,0.71-0.247,0.986-0.344c1.118-3.992,2.365-7.825,2.806-11.994
	C116.979,154.616,116.646,154.541,116.183,154.434z M130.045,167.237c0.828-0.232,0.671-0.738,0.607-1.187
	c-0.298-2.063-0.646-4.12-0.903-6.189c-0.209-1.688-0.311-3.389-0.464-5.083c-0.007-0.08-0.059-0.156-0.153-0.387
	c-0.252-0.04-0.588-0.092-1.081-0.167c-0.055,0.559-0.174,0.975-0.119,1.366c0.489,3.505,0.997,7.006,1.54,10.502
	C129.535,166.499,129.854,166.868,130.045,167.237z M118.614,153.896c-0.114,0.489-0.194,0.732-0.226,0.98
	c-0.435,3.424-0.872,6.848-1.277,10.275c-0.063,0.515,0.031,1.048,0.056,1.637c0.932-0.173,1.051-0.749,1.133-1.348
	c0.366-2.572,0.73-5.143,1.091-7.715c0.159-1.133,0.308-2.266,0.484-3.565C119.459,154.074,119.091,153.997,118.614,153.896z
	 M122.884,154.611c-0.074,0.203-0.159,0.321-0.154,0.437c0.112,2.76,0.203,5.521,0.367,8.278c0.058,0.971,0.271,1.937,0.461,2.896
	c0.148,0.758,0.248,0.789,1.099,0.604c-0.247-4.047-0.497-8.093-0.749-12.215C123.481,154.611,123.175,154.611,122.884,154.611z
	 M133.004,153.965c0.048,0.517,0.04,0.816,0.107,1.1c0.648,2.827,1.308,5.652,1.972,8.477c0.163,0.706,0.339,1.413,0.544,2.107
	c0.116,0.389,0.187,0.871,0.976,0.809c0-0.565,0.067-1.149-0.013-1.712c-0.144-1.013-0.339-2.02-0.569-3.016
	c-0.594-2.57-1.223-5.133-1.854-7.765C133.741,153.965,133.438,153.965,133.004,153.965z"/>
<path fill-rule="evenodd" clip-rule="evenodd" fill="#bf7512" class="fill" d="M93.112,151.362c-0.599-0.044-1.05-0.077-1.518-0.11
	c-0.216,1.278,1.242,2.262,0.14,3.48c-0.652-0.751-0.401-1.702-0.718-2.618c-0.293,0-0.631,0-1.005,0
	c-0.257,1.026,0.031,1.928,0.136,2.85c0.099,0.875,0.839,1.685,0.296,2.807c-1.066-1.539-0.754-3.318-1.437-4.952
	c-0.335,0.063-0.664,0.125-1.182,0.223c0.327,1.686,0.606,3.229,0.934,4.761c0.142,0.667,0.403,1.306,0.571,1.967
	c0.211,0.835,0.168,0.931-0.563,1.908c-0.935-2.613-1.255-5.31-1.871-8.074c-0.384,0.022-0.726,0.042-1.043,0.061
	c-0.067,0.254-0.146,0.383-0.123,0.494c0.527,3.028,1.008,6.064,2.137,8.953c0.19,0.485,0.316,1.144,0.143,1.597
	c-1.097,2.868-1.438,5.87-1.701,8.86c-3.991,2.085-19.721,3.087-25.1,1.553c-0.09-0.38-0.257-0.85-0.307-1.332
	c-0.348-3.373-0.213-6.747,0.235-10.093c0.314-2.36,0.783-4.705,1.314-7.025c1.003-4.368,2.501-8.584,3.927-12.83
	c1.312-3.923,2.748-7.795,4.423-11.565c1.538-3.457,3.19-6.879,5.491-9.931c0.381-0.502,0.7-1.052,1.153-1.74
	c0.488,1.169,0.996,2.173,1.333,3.23c0.864,2.702,2.99,3.803,5.481,4.455c1.277,0.334,2.576,0.588,3.95,0.898
	c0.126,0.32,0.27,0.668,0.402,1.021c0.977,2.595,1.972,5.183,2.92,7.788c0.658,1.803,1.349,3.604,1.841,5.454
	C94.078,146.099,93.979,148.767,93.112,151.362z M66.57,149.923c-0.087-0.543-0.315-0.884-1.123-0.619
	c-0.244,0.485-0.613,1.061-0.836,1.688c-0.837,2.376-1.538,4.793-1.888,7.298c-0.122,0.886-0.207,1.778-0.271,2.669
	c-0.038,0.541,0.113,1.008,0.922,1.186c0.104-0.42,0.287-0.805,0.283-1.186c-0.021-2.946,0.907-5.714,1.58-8.528
	c0.156-0.659,0.425-1.3,0.715-1.917c0.121-0.257,0.431-0.426,0.656-0.634c-0.805,2.648-1.591,5.304-1.929,8.06
	c-0.187,1.505-0.269,3.024-0.402,4.625c0.463,0.033,0.729,0.05,1.025,0.071c0.314-2.166,0.552-4.263,0.94-6.332
	c0.397-2.118,0.944-4.206,1.479-6.539C67.233,149.833,66.901,149.878,66.57,149.923z M69.814,150.637
	c-0.984-0.601-1.424-0.45-1.612,0.619c-0.237,1.339-0.411,2.695-0.53,4.051c-0.213,2.416-0.369,4.836-0.534,7.255
	c-0.036,0.5-0.005,1.005-0.005,1.619c0.429,0.123,0.791,0.225,1.147,0.325C69.028,159.819,68.783,155.2,69.814,150.637z
	 M70.895,151.182c-0.915,2.552-1.405,10.454-0.875,13.215c0.142,0.081,0.312,0.205,0.503,0.276c0.104,0.039,0.242-0.013,0.557-0.041
	c0.156-4.486-0.045-9.01,1.163-13.635C71.627,151.082,71.249,151.133,70.895,151.182z M73.733,164.913
	c-0.616-4.58-0.056-8.964,0.292-13.411c-0.501,0-0.813,0-1.253,0c-0.86,4.419-0.657,8.775-0.33,13.236
	C72.918,164.802,73.256,164.847,73.733,164.913z M74.539,152.437c0.074,4.367-0.355,8.544,0.539,12.796
	c0.452-0.023,0.788-0.041,1.074-0.056c-0.087-2.246-0.197-4.328-0.236-6.412c-0.04-2.071-0.009-4.143-0.009-6.328
	C75.378,152.437,75.038,152.437,74.539,152.437z M81.13,165.625c0-0.438,0.013-0.65-0.004-0.86c-0.182-2.63-0.363-5.261-0.557-7.89
	c-0.085-1.145-0.188-2.288-0.31-3.429c-0.021-0.188-0.188-0.36-0.33-0.619c-0.334,0.083-0.636,0.158-0.976,0.243
	c0.427,4.181,0.054,8.339,1.151,12.479C80.411,165.571,80.715,165.594,81.13,165.625z M81.163,153.304
	c0.217,1.716,0.375,3.236,0.609,4.744c0.383,2.482,0.805,4.958,1.24,7.43c0.067,0.382,0.291,0.737,0.447,1.121
	c0.849-0.287,0.691-0.812,0.625-1.312c-0.308-2.32-0.613-4.639-0.909-6.959c-0.215-1.678-0.235-3.391-0.946-5.071
	C81.91,153.271,81.6,153.285,81.163,153.304z M76.657,152.689c-0.196,4.012,0.583,11.696,1.309,12.818
	c0.238-0.066,0.5-0.139,0.728-0.203c-0.295-4.226-0.584-8.365-0.882-12.615C77.414,152.689,77.07,152.689,76.657,152.689z
	 M85.964,165.644c0.693-0.828,0.721-0.835,0.503-1.69c-0.729-2.858-1.199-5.757-1.514-8.687c-0.081-0.75-0.265-1.488-0.411-2.287
	c-0.388,0.021-0.66,0.036-1.068,0.058c0,0.53-0.038,0.991,0.007,1.445c0.081,0.85,0.166,1.705,0.327,2.542
	c0.461,2.387,0.944,4.771,1.463,7.146C85.372,164.627,85.672,165.04,85.964,165.644z"/>
<path fill-rule="evenodd" clip-rule="evenodd" fill="#bf7512" class="fill" d="M123.464,62.345c0.453-0.083,0.779-0.198,1.104-0.192
	c3.732,0.076,7.403,0.437,10.905,1.911c2.354,0.99,4.006,2.528,4.661,5.104c-0.347,0.151-0.706,0.308-1.224,0.534
	c1.265,0.78,3.012,0.591,3.429,2.419c-1.312,0-2.602,0-3.893,0c0.584,1.004,1.582,0.8,2.415,1.015
	c0.862,0.223,1.741,0.384,2.651,0.581c0.127,0.404,0.237,0.75,0.387,1.224c-2.084-0.167-4.057-1.016-6.109,0.163
	c0.299,0.137,0.498,0.312,0.691,0.303c2.227-0.099,4.318,0.351,6.339,1.558c0.059,0.214,0.139,0.524,0.265,0.992
	c-2.142-0.68-4.185-0.799-6.331-0.386c0.212,0.139,0.408,0.338,0.642,0.404c0.449,0.126,0.917,0.208,1.382,0.251
	c1.678,0.156,3.293,0.488,4.807,1.641c0.035,0.29,0.092,0.737,0.177,1.426c-2.348-0.78-4.586-1.176-6.907-0.875
	c1.025,0.743,2.276,0.693,3.408,1.031c1.135,0.34,2.335,0.523,3.275,1.443c-0.104,0.276-0.203,0.54-0.33,0.875
	c-2.121-1.063-4.318-1.374-6.581-1.385c1.886,1.352,4.523,1.018,6.137,3.054c-0.071,0.202-0.163,0.462-0.259,0.733
	c-1.989-0.849-3.969-1.391-6.188-1.228c0.18,0.172,0.333,0.426,0.548,0.501c0.806,0.281,1.617,0.591,2.453,0.723
	c1.089,0.172,1.846,0.808,2.68,1.499c-0.128,0.388-0.244,0.737-0.376,1.14c-1.846-0.431-3.517-1.372-5.423-1.262
	c1.481,1.242,3.498,1.477,4.989,2.768c-0.129,0.474-0.235,0.868-0.357,1.319c-1.078-0.52-2.032-1.049-3.041-1.446
	c-0.945-0.372-1.892-0.98-3.273-0.425c1.927,1.172,4.12,1.515,5.511,3.354c-0.12,0.256-0.271,0.576-0.423,0.902
	c-1.129-0.611-2.145-1.213-3.204-1.72c-0.985-0.473-1.947-1.311-3.237-0.558c1.849,1.314,4.168,1.781,5.575,3.742
	c-0.067,0.188-0.146,0.405-0.274,0.771c-2.159-1.463-4.465-2.368-6.798-3.241c0.748,1.344,2.004,1.944,3.272,2.524
	c1.45,0.663,1.911,1.061,2.59,2.312c-0.179,0.3-0.387,0.652-0.628,1.055c-0.933-0.794-1.769-1.554-2.658-2.246
	c-0.499-0.388-1.059-0.734-1.645-0.967c-0.613-0.245-1.297-0.361-1.839,0.203c1.031,0.669,2.05,1.252,2.978,1.954
	c0.889,0.672,1.812,1.377,2.075,2.921c-2.268-1.171-4.225-2.442-6.361-3.216c-2.14-0.774-4.459-1.052-6.951-1.603
	c-0.425-0.454-0.319-1.302-0.351-2.089c-0.084-2.162,0.309-4.24,1.206-6.217c0.123-0.271,0.24-0.553,0.304-0.843
	c0.606-2.655,1.259-5.303,1.773-7.977c0.277-1.449,0.427-2.951-0.198-4.326c-1.699-0.657-2.605-0.253-2.882,1.402
	c-0.408,2.438-0.119,4.837,0.799,7.514c-0.509,1.733-1.011,3.809-1.735,5.806c-0.72,1.988-0.849,3.987-0.657,6.047
	c0.018,0.21,0.002,0.423,0.002,0.51c-1.913,1.231-3.754,2.418-5.72,3.683c0.186-1.573,0.403-3.058,0.526-4.552
	c0.126-1.507-0.119-2.974-0.733-4.444c-0.36,0-0.715,0-1.091,0c-0.065,0.239-0.133,0.397-0.146,0.559
	c-0.158,2.042-0.241,4.092-0.488,6.123c-0.153,1.261-0.484,2.514-0.878,3.726c-0.212,0.661-0.719,1.228-1.188,1.995
	c-1.371-0.532-2.704-1.048-4.116-1.596c-0.362-2.151-0.821-4.313-0.035-6.639c-0.463-0.054-0.812-0.093-1.195-0.138
	c-1.302,2.369-0.812,4.921-1.213,7.465c-0.779,0.502-2.019,0.542-2.444,1.824c-0.326-0.216-0.655-0.317-0.766-0.531
	c-0.367-0.715-1.019-0.882-1.697-0.976c-1.337-0.185-2.645-0.112-3.864,0.56c-0.331,0.181-0.697,0.295-1.108,0.466
	c-2.123-5.407-5.201-10.17-8.935-14.462c0.275-0.843,0.53-1.626,0.796-2.439c0.13,0.065,0.272,0.094,0.345,0.179
	c2.069,2.441,4.096,4.917,6.207,7.32c0.869,0.986,1.821,1.955,2.907,2.674c1.274,0.845,2.71,0.494,3.835-0.39
	c3.248-2.551,6.49-5.12,9.604-7.834c2.182-1.903,4.153-4.053,5.792-6.469c1.412-2.08,2.889-4.119,4.192-6.264
	c0.604-0.995,0.914-2.185,1.26-3.316c0.433-1.421,0.777-2.871,1.14-4.313c0.375-1.493,0.024-2.972-0.12-4.455
	C123.594,63.192,123.533,62.861,123.464,62.345z"/>
<path fill-rule="evenodd" clip-rule="evenodd" fill="#bf7512" class="fill" d="M97.095,76.208c-0.137,1.359,0.679,1.769,1.461,2.041
	c0.796,0.275,1.663,0.418,2.507,0.463c3.476,0.184,6.613-0.849,9.268-3.055c1.395-1.159,2.186-2.846,2.495-4.655
	c0.342-1.976,0.681-3.966,0.786-5.963c0.075-1.384-0.234-2.791-0.392-4.185c-0.041-0.366-0.15-0.724-0.259-1.213
	c1.441,0.16,2.237,0.956,2.798,2.053c1.177,2.297,1.286,4.755,1.013,7.251c-0.245,2.234-0.88,4.345-2.169,6.226
	c-0.191,0.279-0.332,0.594-0.477,0.901c-0.026,0.052,0.043,0.149,0.089,0.292c0.77,0.006,1.192-0.567,1.599-1.071
	c1.29-1.601,1.91-3.485,2.276-5.486c0.613-3.345,0.034-6.639-0.338-9.943c-0.026-0.252-0.118-0.498-0.148-0.75
	c-0.025-0.21-0.007-0.425-0.007-0.679c1.005-0.388,1.938-0.007,2.901,0.07c0.618,1.985,0.607,3.952,0.552,5.904
	c-0.104,3.666-1.468,6.939-3.051,10.206c-1.628,3.353-4.143,5.936-6.597,8.594c-0.771,0.838-1.767,1.476-2.688,2.17
	c-2.555,1.929-5.121,3.838-7.839,5.871c-3.545-3.757-6.853-7.739-10.082-11.861c0.188,0.083,0.397,0.137,0.562,0.252
	c1.933,1.331,3.836,2.705,5.791,3.999c1.01,0.668,2.143,0.545,3.375,0.302c-1.541-1.184-2.902-2.321-4.36-3.321
	c-1.086-0.746-1.909-1.705-2.661-2.736c-1.905-2.611-3.252-5.478-3.895-8.667c-0.234-1.169-0.596-2.314-0.871-3.476
	c-0.101-0.427-0.113-0.874-0.168-1.312c0.113-0.026,0.228-0.051,0.342-0.077c0.11,0.326,0.229,0.651,0.334,0.979
	c1.383,4.354,4.159,7.382,8.532,8.831c1.869,0.621,3.782,0.95,5.788,0.746c1.771-0.181,2.899-1.017,3.521-2.826
	c-0.328,0.022-0.608-0.046-0.746,0.064c-0.838,0.675-1.848,0.908-2.85,1.007c-3.943,0.387-7.195-1.008-9.817-3.945
	c-0.814-0.914-0.979-2.076-1.195-3.195c-0.164-0.848-0.124-1.735-0.189-2.851c0.839,1.01,1.478,1.776,2.112,2.545
	c1.646,1.989,3.898,2.812,6.322,3.345c1.645,0.362,3.252,0.072,4.798-0.356c0.798-0.22,1.451-0.957,2.092-1.404
	c0.108-0.58,0.186-0.991,0.264-1.401c-0.065-0.045-0.126-0.091-0.19-0.137c-0.471,0.496-0.943,0.992-1.472,1.547
	c-1.809,0.281-3.67,0.42-5.542,0.046c-0.778-0.155-1.443-0.477-1.938-1.31c0.35-0.08,0.608-0.158,0.876-0.198
	c1.557-0.233,3.156-0.309,4.66-0.727c1.568-0.435,2.93-1.344,3.837-2.795c0.277-0.445,0.621-0.847,0.997-1.349
	c1.194,1.361,1.56,2.85,1.83,4.35c0.453,2.474,0.264,4.918-0.393,7.353c-0.294,1.091-0.793,1.94-1.712,2.597
	c-2.467,1.768-5.216,2.469-8.218,2.239c-0.944-0.074-1.835-0.359-2.617-0.936C97.782,76.416,97.493,76.365,97.095,76.208z
	 M100.652,86.576c0.472,0.779,1.033,0.745,1.679,0.435c0.922-0.444,1.887-0.816,2.774-1.323c1.71-0.977,3.292-2.14,4.533-3.697
	c0.738-0.932,1.039-1.827,0.953-2.737c-1.568,1.434-2.963,2.936-4.583,4.126C104.352,84.596,102.474,85.507,100.652,86.576z"/>
<path fill-rule="evenodd" clip-rule="evenodd" fill="#bf7512" class="fill" d="M110.921,48.772c0.179-0.063,0.425-0.116,0.637-0.233
	c1.316-0.73,1.641-2.228,0.553-3.2c-1.616-1.44-3.223-2.972-5.68-3.26c-0.945-1.619-1.007-3.362-0.604-5.236
	c0.486-0.059,0.901-0.11,1.274-0.156c2.809,1.693,8.682,1.983,11.816,0.524c0.051,0.453,0.162,0.854,0.126,1.245
	c-0.282,3.058-0.452,6.137-0.943,9.163c-0.311,1.906-0.87,3.801-1.969,5.495c-1.583,2.433-3.742,3.511-6.78,3.163
	c-0.276,0.3-0.673,0.625-0.941,1.034c-1.341,2.035-3.328,3.216-5.553,3.894c-2.354,0.718-5.925-0.194-7.812-2.666
	c-0.41-0.539-0.802-1.09-1.337-1.438c-1.173-0.461-2.375-0.862-3.513-1.4c-0.798-0.379-1.281-1.148-1.539-1.977
	c-1.491-4.821-1.992-9.762-1.77-14.779c0.176-0.192,0.309-0.358,0.467-0.493c0.159-0.136,0.347-0.241,0.442-0.306
	c1.227,0.163,2.365,0.279,3.495,0.47c2.732,0.462,5.331-0.128,7.912-0.927c1.048-0.325,2.091-0.679,3.161-0.917
	c0.555-0.124,1.158-0.022,1.934-0.022c-0.547,2.204-0.206,4.145,0.547,6.016c-0.563,0.467-0.986,0.816-1.448,1.197
	c-1.551-0.056-3.119,0.117-4.859-0.301c0.371-0.622,0.665-1.111,1.018-1.699c-0.276-0.206-0.562-0.419-0.786-0.584
	c-4.658,1.082-7.707,5.953-7.111,8.395c0.381,0.058,0.79,0.121,1.309,0.2c0.062,1.7-1.327,3.181-0.781,4.902
	c1.519,1.038,2.698,0.811,4.506-0.846c2.191,1.729,6.682,1.503,9.415-0.534c1.153,1.072,2.544,1.113,4.017,0.725
	c1.104-0.29,1.636-0.891,1.492-2.016C111.47,51.075,111.167,49.966,110.921,48.772z"/>
<path fill-rule="evenodd" clip-rule="evenodd" fill="#bf7512" class="fill" d="M80.414,69.403c1.459,5.478,2.696,10.897,3.326,16.906
	c1.431,1.576,2.968,3.648,4.104,6.061c-4.91,2.269-9.386,5.18-13.396,8.849c-2.083-2.885-3.475-5.962-4.07-9.372
	c-0.675-3.845-0.18-7.645,0.585-11.418c0.397-1.962,0.896-3.903,1.32-5.86c0.338-1.559,1.153-2.764,2.598-3.445
	C76.575,70.323,78.326,69.648,80.414,69.403z M75.029,82.599c0.452,0.938,0.907,2.062,2.187,1.934
	c1.396-0.141,2.605,0.224,3.816,0.772c0.511,0.231,0.975,0.291,1.479-0.334c-0.15-0.221-0.293-0.504-0.503-0.721
	c-1.435-1.485-3.144-2.426-5.224-2.694C75.763,81.423,75.572,81.476,75.029,82.599z M75.585,92.061
	c0.616,0.368,1.065,0.106,1.454-0.235c0.316-0.278,0.583-0.618,0.841-0.957c0.874-1.146,1.673-2.353,2.983-3.09
	c0.513-0.287,0.769-0.757,0.484-1.36C78.603,86.428,75.449,89.519,75.585,92.061z M82.138,78.988
	c-0.066-0.804-1.085-1.798-3.569-3.564c-0.321-0.229-0.629-0.473-1.077,0.032c0.277,1.319,1.508,1.903,2.401,2.729
	C80.461,78.709,81.11,79.287,82.138,78.988z"/>
<path fill-rule="evenodd" clip-rule="evenodd" fill="#bf7512" class="fill" d="M87.644,21.512c0.573-4.256,1.445-8.296,4.729-11.347
	c0.631-0.584,1.326-1.054,2.303-1.131c0.317,0.301,0.616,0.677,0.999,0.929c0.775,0.508,1.574,0.994,2.405,1.403
	c0.591,0.292,1.227,0.228,1.856-0.045c1.095-0.477,2.249-0.824,3.316-1.352c4.135-2.05,8.079-0.872,10.815,2.356
	c0.743,0.877,1.388,1.838,2.107,2.736c1.073,1.341,1.354,2.902,1.376,4.537C114.08,21.556,93.89,23.059,87.644,21.512z
	 M89.637,18.019c1.12,0.65,1.677,0.545,2.545-0.312c1.36-1.348,1.922-3.064,2.316-4.867c0.044-0.205,0.07-0.414,0.111-0.654
	c-0.188-0.277-0.376-0.55-0.528-0.772c-0.679-0.187-1.047,0.083-1.323,0.591c-0.283,0.521-0.616,1.014-0.899,1.533
	C91.063,14.975,90.001,16.282,89.637,18.019z M105.533,11.071c0.143,0.174,0.24,0.38,0.402,0.478
	c1.713,1.026,3.413,2.077,5.171,3.019c0.527,0.284,1.223,0.304,1.847,0.351c0.49,0.036,0.912-0.179,1.05-0.772
	c-0.525-1.062-1.635-1.276-2.583-1.681c-1.438-0.609-2.914-1.132-4.376-1.685C106.522,10.583,105.992,10.416,105.533,11.071z"/>
<path fill-rule="evenodd" clip-rule="evenodd" fill="#bf7512" class="fill" d="M108.964,114.692c-0.106-0.26-0.144-0.384-0.207-0.493
	c-0.127-0.219-0.267-0.432-0.388-0.625c-0.648-0.312-0.966,0.121-1.318,0.502c-0.724,0.783-1.458,1.557-2.192,2.329
	c-0.437,0.458-0.945,0.728-1.84,0.531c-0.269-0.329-0.656-0.803-0.939-1.149c0.052-0.88,0.553-1.143,1.002-1.476
	c1.197-0.889,2.349-1.835,3.565-2.695c0.719-0.508,1.077-1.242,1.304-1.994c0.5-1.652,0.604-3.271-0.925-4.562
	c-0.403-0.341-0.666-0.853-1.19-1.546c1.363-0.039,2.412-0.481,3.542-0.143c1.427,0.429,2.863,0.822,4.276,1.29
	c0.43,0.142,0.847,0.425,1.177,0.742c2.005,1.92,3.976,3.849,5.177,6.443c0.64,1.38,1.571,2.623,2.337,3.874
	c-0.989,4.058-3.194,6.941-6.779,8.727c-0.755-0.551-0.592-1.121-0.304-1.675c0.258-0.49,0.608-0.932,0.845-1.43
	c0.373-0.795,0.258-1.078-0.655-1.74c-0.393,0.39-0.825,0.78-1.21,1.212c-1.447,1.617-2.739,3.38-4.548,4.648
	c-0.514,0.36-0.486,0.399-1.309,0.288c-0.193-0.699,0.131-1.191,0.646-1.628c1.339-1.128,2.283-2.517,2.815-4.327
	c-0.14-0.322-0.322-0.735-0.563-1.292c-1.068,0.583-2.015,1.107-2.969,1.619c-0.751,0.402-1.491,0.828-2.267,1.17
	c-0.664,0.293-1.329,0.221-1.911-0.283c0.171-1.21,0.791-2.037,1.839-2.626C107.439,117.558,108.425,116.309,108.964,114.692z"/>
<path fill-rule="evenodd" clip-rule="evenodd" fill="#bf7512" class="fill" d="M101.433,103.628c-0.259,1.109-0.883,1.85-1.705,2.409
	c-1.119,0.761-1.934,1.787-2.721,2.857c-0.826,1.119-0.875,2.264-0.242,3.479c0.569,1.093,1.117,2.197,1.66,3.272
	c-0.311,0.79-0.246,1.751-1.512,1.767c-0.773-0.939-1.575-1.916-2.459-2.994c-0.353,0.225-0.644,0.408-0.922,0.585
	c0.872,2.112,2.983,3.315,3.456,5.57c-0.4,0.475-0.755,0.893-1.13,1.336c-0.434,0-0.849,0-1.135,0
	c-1.119-1.245-2.165-2.409-3.277-3.645c-0.435,0.143-0.799,0.264-1.202,0.396c0.078,0.426,0.13,0.71,0.177,0.956
	c2.147,1.373,2.784,2.729,2.198,4.693c-0.625,0.441-1.32,0.401-2.233,0.114c-0.8-0.993-1.706-2.114-2.712-3.359
	c-0.363,0.145-0.743,0.295-1.035,0.412c0.21,0.907,0.376,1.626,0.59,2.55c-0.612-0.034-1.047-0.057-1.53-0.083
	c-0.788-1.325-1.395-2.644-1.436-4.197c-0.042-1.49-0.212-2.976-0.273-4.465c-0.023-0.588,0.092-1.181,0.15-1.864
	c2.002-1.51,3.98-3.048,6.011-4.517c1.418-1.022,2.868-2.007,4.369-2.898c1.484-0.881,3.039-1.647,4.588-2.413
	C99.788,103.253,100.373,103.315,101.433,103.628z"/>
<path fill-rule="evenodd" clip-rule="evenodd" fill="#bf7512" class="fill" d="M104.855,29.261c-0.547,0.335-0.112,0.676,0.11,0.753
	c0.757,0.262,1.544,0.56,2.328,0.584c2.169,0.07,4.343,0.007,6.516-0.002c0.212-0.001,0.42,0,0.698,0
	c0.06,0.224,0.12,0.446,0.217,0.814c-6.183,0.838-12.221,0.329-18.467-0.294c0.301-0.409,0.481-0.655,0.768-1.044
	c-2.108,0.516-3.651-0.679-5.369-1.284c1.859-0.529,3.752,0.801,5.601-0.299c-1.006-0.215-2.012-0.436-3.019-0.645
	c-0.949-0.198-1.953-0.219-2.814-0.691c0.02-0.12,0.04-0.24,0.059-0.36c0.608,0.03,1.219,0.027,1.821,0.097
	c1.086,0.127,2.134,0.118,3.018-0.646c0.162-0.14,0.236-0.377,0.487-0.798c-1.896,0.496-3.56,0.469-5.205,0.024
	c-0.068-0.018-0.09-0.212-0.175-0.431c1.771-0.199,3.585,0.639,5.49-0.521c-1.854-0.584-3.674-0.16-5.255-0.824
	c0.009-0.115,0.021-0.23,0.031-0.345c2.481,0,4.964,0.064,7.438-0.019c2.475-0.081,4.947-0.263,7.412-0.486
	c2.505-0.226,5-0.556,7.588-0.851c0.039,0.239,0.084,0.507,0.138,0.818c-2.584,0.986-5.431,0.764-7.936,2.064
	c0.99,0.389,4.464-0.048,7.771-0.952c0.055,0.297,0.108,0.585,0.158,0.844c-2.791,1.321-5.717,1.468-8.633,1.668
	c1.108,0.984,4.688,0.76,8.621-0.385c0,0.366,0,0.703,0,1.058c-1.705,0.795-3.493,0.36-5.209,0.567
	c-1.674,0.201-3.349,0.393-5.083,0.595c0.335,0.382,0.61,0.695,0.885,1.009L104.855,29.261z"/>
<path fill-rule="evenodd" clip-rule="evenodd" fill="#bf7512" class="fill" d="M123.491,97.796c3.566,0.041,9.158,2.642,10.878,5.189
	c-1.626-0.414-2.729-1.922-4.556-1.447c1.23,0.879,2.35,1.679,3.565,2.547c-0.325,0.401-0.55,0.68-0.75,0.926
	c-1.725-0.539-2.743-2.33-4.968-2.286c1.036,1.597,2.816,2.063,3.83,3.642c-0.298,0.285-0.594,0.567-0.952,0.913
	c-1.568-1.369-2.591-3.226-4.659-3.498c-0.062,0.079-0.122,0.158-0.186,0.237c1.191,1.297,2.384,2.594,3.654,3.979
	c-0.442,0.373-0.752,0.633-1.099,0.925c-1.442-1.072-2.828-2.101-4.217-3.13c0.577,1.594,2.086,2.456,2.905,4.001
	c-0.427,0.334-0.843,0.657-1.309,1.022c-0.871-1.399-1.673-2.689-2.485-3.996c-0.404-0.137-0.797-0.271-1.323-0.45
	c0.327,1.964,1.852,3.255,2.312,5.132c-0.201-0.141-0.439-0.247-0.595-0.427c-0.664-0.777-1.271-1.603-1.957-2.359
	c-0.601-0.661-1.312-1.135-2.017-0.725c-1.425-1.283-2.749-2.475-4.062-3.657C117.316,102.027,120.806,99.178,123.491,97.796z"/>
<path fill-rule="evenodd" clip-rule="evenodd" fill="#bf7512" class="fill" d="M76.747,101.728c1.495-1.697,3.634-2.401,5.321-3.848
	c-0.407-0.031-0.812-0.062-1.221-0.094c0.765-1.046,4.576-3.224,7.222-4.085c2.82,2.706,4.655,6.094,6.128,9.817
	c-1.765,1.075-3.421,2.083-5.179,3.153c-0.062-0.085-0.163-0.223-0.312-0.429c-2.054-0.08-3.167,1.761-4.906,2.561
	c-0.176-0.16-0.378-0.345-0.699-0.638c1.624-1.152,3.165-2.248,4.84-3.438c-1.39-0.253-1.596-0.148-5.486,2.636
	c-0.116-0.042-0.285-0.076-0.418-0.162c-0.096-0.061-0.143-0.195-0.225-0.312c0.073-0.114,0.116-0.252,0.21-0.315
	c1.099-0.736,2.218-1.441,3.303-2.198c0.464-0.325,0.854-0.752,1.187-1.259c-2.181,0.304-3.638,1.939-5.626,2.806
	c-0.069-0.042-0.237-0.146-0.419-0.257c0.063-0.173,0.07-0.336,0.153-0.391c0.667-0.456,1.345-0.894,2.024-1.332
	c0.609-0.393,1.251-0.742,1.825-1.18c0.35-0.268,0.603-0.665,0.897-1.003c-0.062-0.084-0.127-0.169-0.19-0.254
	c-0.977,0.519-1.918,1.129-2.94,1.53c-1.019,0.399-1.729,1.431-2.938,1.428c1.375-1.518,3.341-2.207,5.099-3.649
	c-2.611,0.018-4.104,1.845-6.23,2.699c-0.154-0.144-0.327-0.305-0.679-0.635c1.646-1.019,3.058-1.891,4.471-2.765
	c-0.044-0.102-0.09-0.203-0.133-0.304c-0.926,0.092-1.753,0.555-2.624,0.856C78.358,100.958,77.696,101.657,76.747,101.728z"/>
<path fill-rule="evenodd" clip-rule="evenodd" fill="#bf7512" class="fill" d="M98.271,53.573c0.034-0.401,0.059-0.724,0.08-0.988
	c0.149-0.098,0.213-0.174,0.283-0.184c1.932-0.248,3.861-0.5,5.796-0.713c0.198-0.022,0.426,0.208,0.64,0.32
	c0.034,1.22-0.861,1.672-1.689,1.784c-1.455,0.195-2.947,0.119-4.424,0.125C98.774,53.918,98.589,53.738,98.271,53.573z"/>
<path fill-rule="evenodd" clip-rule="evenodd" fill="#bf7512" class="fill" d="M104.366,111.738c-0.379-0.082-0.83-0.179-1.427-0.308
	c0.103-1.338,0.2-2.631,0.311-4.062c0.822-0.062,1.515-0.115,2.157-0.164C106.457,109.274,106.184,110.443,104.366,111.738z"/>
<path fill-rule="evenodd" clip-rule="evenodd" fill="#bf7512" class="fill" d="M104.846,29.281c1.164-0.194,2.321-0.468,3.493-0.563
	c1.946-0.157,3.901-0.199,5.949-0.293c0.069,0.222,0.152,0.48,0.27,0.854c-1.652,0.607-3.301,0.555-4.943,0.56
	c-1.605,0.004-3.23,0.121-4.754-0.583C104.855,29.261,104.846,29.281,104.846,29.281z"/>
<path fill-rule="evenodd" clip-rule="evenodd" fill="#bf7512" class="fill" d="M69.544,115.742c0.328,1.153,0.624,2.18,0.953,3.332
	c-0.612-0.055-1.3-0.117-2.038-0.184c-0.573-1.092-0.766-2.155-0.439-3.414C68.645,115.586,69.173,115.678,69.544,115.742z"/>
<path fill-rule="evenodd" clip-rule="evenodd" fill="#bf7512" class="fill" d="M71.783,119.268c-0.121-1.355-1.331-2.138-0.722-3.531
	c0.491-0.105,1.092-0.232,1.692-0.359c0.745,0.976,0.525,2.015,0.583,3.162C72.886,118.75,72.417,118.97,71.783,119.268z"/>
<path fill-rule="evenodd" clip-rule="evenodd" fill="#bf7512" class="fill" d="M66.854,54.204c0.854-0.381,1.606-0.715,2.471-1.1
	c0.048,0.994,0.083,1.788,0.121,2.61c-0.62,0.324-1.205,0.628-1.968,1.026C67.278,55.928,67.092,55.174,66.854,54.204z"/>
<path fill-rule="evenodd" clip-rule="evenodd" fill="#bf7512" class="fill" d="M106.932,46.344c0.669,2.068,0.939,4.165,0.93,6.396
	c-0.985-0.217-1.221-0.9-1.243-1.554c-0.055-1.571,0.011-3.145,0.036-4.717C106.656,46.438,106.777,46.411,106.932,46.344z"/>
<path fill-rule="evenodd" clip-rule="evenodd" fill="#bf7512" class="fill" d="M63.771,116.676c-0.699-0.751-1.265-1.358-1.832-1.969
	c0.244-0.834,0.36-1.634,1.157-2.255c0.437,0.415,0.853,0.813,1.29,1.229C64.195,114.607,64.013,115.501,63.771,116.676z"/>
<path fill-rule="evenodd" clip-rule="evenodd" fill="#bf7512" class="fill" d="M65.271,117.548c-0.18-1.026-0.509-1.961,0.009-3.067
	c0.505,0.224,0.979,0.434,1.527,0.677c0,0.991-0.001,1.948-0.001,3.115C66.25,118.011,65.75,117.775,65.271,117.548z"/>
<path fill-rule="evenodd" clip-rule="evenodd" fill="#bf7512" class="fill" d="M66.677,57.743c-0.272,0.393-0.578,0.832-1.04,1.501
	c-0.465-0.973-0.83-1.741-1.257-2.641c0.499-0.528,0.968-1.029,1.585-1.685C66.234,55.984,66.442,56.818,66.677,57.743z"/>
<path fill-rule="evenodd" clip-rule="evenodd" fill="#bf7512" class="fill" d="M61.255,109.778c-0.6,0.518-1.104,0.951-1.739,1.5
	c-0.367-0.692-0.687-1.295-1.054-1.985c0.521-0.483,0.964-0.897,1.479-1.378C60.411,108.581,60.794,109.125,61.255,109.778z"/>
<path fill-rule="evenodd" clip-rule="evenodd" fill="#bf7512" class="fill" d="M91.393,35.562c0.189,0.76,0.345,1.387,0.52,2.086
	c-1.003-0.224-2.125,0.211-3.067-0.672C89.407,35.924,90.326,35.649,91.393,35.562z"/>
<path fill-rule="evenodd" clip-rule="evenodd" fill="#bf7512" class="fill" d="M72.903,53.013c-0.391,0.808-0.628,1.297-0.921,1.903
	c-0.44,0.12-0.947,0.26-1.613,0.443c0-0.879,0-1.603,0-2.473C71.202,52.929,71.924,52.964,72.903,53.013z"/>
<path fill-rule="evenodd" clip-rule="evenodd" fill="#bf7512" class="fill" d="M61.174,113.688c-0.446-0.574-0.773-0.996-1.105-1.421
	c0.285-0.803,0.722-1.361,1.59-1.632c0.287,0.365,0.565,0.719,0.859,1.093C62.087,112.355,61.689,112.936,61.174,113.688z"/>
<path fill-rule="evenodd" clip-rule="evenodd" fill="#bf7512" class="fill" d="M108.993,53.207c-0.074-1.639-0.143-3.136-0.209-4.599
	c0.808,0.689,1.445,2.721,1.323,4.391c-0.12,0.06-0.256,0.17-0.409,0.198C109.496,53.235,109.285,53.207,108.993,53.207z"/>
<path fill-rule="evenodd" clip-rule="evenodd" fill="#bf7512" class="fill" d="M65.206,60c-0.288,0.362-0.546,0.688-0.917,1.156
	c-0.536-0.499-1.014-0.941-1.525-1.417c0.275-0.655,0.499-1.19,0.795-1.902C64.15,58.614,64.626,59.24,65.206,60z"/>
<path fill-rule="evenodd" clip-rule="evenodd" fill="#bf7512" class="fill" d="M95.256,53.448c0.334-1.964,0.231-3.839,1.408-5.5
	C96.873,50.117,96.299,52.567,95.256,53.448z"/>
<path fill-rule="evenodd" clip-rule="evenodd" fill="#bf7512" class="fill" d="M83.121,74.336c-0.161-0.695-0.254-1.1-0.386-1.666
	c0.562-0.192,1.126-0.383,1.821-0.621c0.203,0.596,0.358,1.054,0.576,1.688C84.45,73.94,83.849,74.119,83.121,74.336z"/>
<path fill-rule="evenodd" clip-rule="evenodd" fill="#bf7512" class="fill" d="M59.736,107.19c-0.562,0.427-0.994,0.756-1.578,1.198
	c-0.247-0.682-0.464-1.283-0.699-1.938c0.429-0.373,0.8-0.695,1.296-1.124C59.113,106.004,59.401,106.554,59.736,107.19z"/>
<path fill-rule="evenodd" clip-rule="evenodd" fill="#bf7512" class="fill" d="M98.617,36.619c-0.898,0.747-2.06,0.659-3.248,0.958
	c0.127-0.584,0.23-1.048,0.369-1.683c0.973,0.114,1.909,0.223,2.847,0.334C98.597,36.358,98.606,36.488,98.617,36.619z"/>
<path fill-rule="evenodd" clip-rule="evenodd" fill="#bf7512" class="fill" d="M75.323,51.739c-0.488,0.323-0.76,0.503-1.088,0.72
	c-0.738-0.272-1.474-0.544-2.284-0.844c0.134-0.394,0.235-0.689,0.342-1.003C73.433,50.585,74.265,51.121,75.323,51.739z"/>
<path fill-rule="evenodd" clip-rule="evenodd" fill="#bf7512" class="fill" d="M76.721,58.014c-0.547-0.573-1.034-1.084-1.597-1.676
	c0.235-0.323,0.441-0.606,0.767-1.053c0.684,0.701,1.273,1.307,1.967,2.019C77.374,57.607,77.074,57.794,76.721,58.014z"/>
<path fill-rule="evenodd" clip-rule="evenodd" fill="#bf7512" class="fill" d="M95.266,48.111c-0.283,1.136-0.538,2.201-0.813,3.259
	c-0.259,0.989-0.007,2.096-0.762,3.206c-0.139-0.43-0.312-0.688-0.286-0.924c0.212-1.956,0.83-3.79,1.734-5.531
	c0.011-0.021,0.087-0.028,0.118-0.013C95.291,48.122,95.309,48.172,95.266,48.111z"/>
<path fill-rule="evenodd" clip-rule="evenodd" fill="#bf7512" class="fill" d="M72.572,47.226c0.604,0.128,1.12,0.239,1.774,0.378
	c-0.433,0.639-0.784,1.153-1.217,1.79c-0.425-0.096-0.892-0.2-1.531-0.344C71.961,48.371,72.247,47.833,72.572,47.226z"/>
<path fill-rule="evenodd" clip-rule="evenodd" fill="#bf7512" class="fill" d="M74.544,55.866c-0.608-0.234-1.115-0.429-1.782-0.686
	c0.252-0.567,0.476-1.07,0.768-1.728c0.655,0.461,1.163,0.818,1.817,1.278C75.059,55.138,74.814,55.485,74.544,55.866z"/>
<path fill-rule="evenodd" clip-rule="evenodd" fill="#bf7512" class="fill" d="M82.008,69.66c-0.225-0.628-0.403-1.128-0.631-1.765
	c0.633-0.103,1.123-0.181,1.747-0.283c0.229,0.471,0.456,0.938,0.758,1.558C83.208,69.346,82.692,69.481,82.008,69.66z"/>
<path fill-rule="evenodd" clip-rule="evenodd" fill="#bf7512" class="fill" d="M86.218,78.545c0.078,0.68,0.141,1.214,0.21,1.833
	c-0.661,0-1.271,0-1.995,0c-0.062-0.333-0.129-0.683-0.199-1.053C84.904,79.06,85.477,78.834,86.218,78.545z"/>
<path fill-rule="evenodd" clip-rule="evenodd" fill="#bf7512" class="fill" d="M99.543,114.511c-0.146-0.344-0.302-0.708-0.504-1.179
	c1.166-0.132,2.193-0.248,3.525-0.398C101.517,113.717,100.932,114.717,99.543,114.511z"/>
<path fill-rule="evenodd" clip-rule="evenodd" fill="#bf7512" class="fill" d="M115.233,37c0.022-0.433,0.042-0.794,0.062-1.203
	c0.9-0.311,1.717-0.455,2.528,0.295C117.131,37.025,116.253,37.062,115.233,37z"/>
<path fill-rule="evenodd" clip-rule="evenodd" fill="#bf7512" class="fill" d="M83.417,60.57c-0.676,0.188-1.146,0.32-1.702,0.476
	c-0.273-0.472-0.517-0.887-0.829-1.421c0.589-0.213,1.045-0.379,1.584-0.575C82.768,59.526,83.026,59.943,83.417,60.57z"/>
<path fill-rule="evenodd" clip-rule="evenodd" fill="#bf7512" class="fill" d="M77.908,53.861c-0.408,0.275-0.645,0.433-0.927,0.625
	c-0.664-0.515-1.295-1.003-2.047-1.585c0.358-0.291,0.625-0.509,0.939-0.765C76.547,52.708,77.158,53.225,77.908,53.861z"/>
<path fill-rule="evenodd" clip-rule="evenodd" fill="#bf7512" class="fill" d="M86.02,78.031c-0.745,0.095-1.27,0.162-1.883,0.24
	c-0.168-0.451-0.306-0.817-0.485-1.3c0.731-0.129,1.333-0.238,2.102-0.374C85.832,77.02,85.908,77.435,86.02,78.031z"/>
<path fill-rule="evenodd" clip-rule="evenodd" fill="#bf7512" class="fill" d="M80.818,65.452c0.514-0.178,0.823-0.287,1.277-0.445
	c0.289,0.558,0.564,1.093,0.903,1.748c-0.629,0.121-1.114,0.214-1.753,0.337C81.105,66.552,80.976,66.051,80.818,65.452z"/>
<path fill-rule="evenodd" clip-rule="evenodd" fill="#bf7512" class="fill" d="M76.451,48.699c-0.503,0.53-0.898,0.95-1.356,1.434
	c-0.389-0.166-0.751-0.323-1.263-0.542c0.419-0.573,0.756-1.031,1.184-1.615C75.494,48.216,75.91,48.427,76.451,48.699z"/>
<path fill-rule="evenodd" clip-rule="evenodd" fill="#bf7512" class="fill" d="M62.489,61.229c0.574,0.34,0.926,0.548,1.311,0.776
	c-0.206,0.622-0.392,1.176-0.622,1.868c-0.349-0.126-0.668-0.24-1.054-0.379C62.247,62.733,62.354,62.082,62.489,61.229z"/>
<path fill-rule="evenodd" clip-rule="evenodd" fill="#bf7512" class="fill" d="M63.167,66.947c-0.485-0.122-0.8-0.2-1.133-0.284
	c-0.001-0.647-0.001-1.228-0.001-1.858c0.367-0.094,0.684-0.175,1.134-0.292C63.167,65.32,63.167,66.046,63.167,66.947z"/>
<path fill-rule="evenodd" clip-rule="evenodd" fill="#bf7512" class="fill" d="M81.925,58.296c-0.514,0.241-0.877,0.411-1.367,0.641
	c-0.35-0.529-0.683-1.032-1.058-1.599c0.334-0.248,0.587-0.438,0.947-0.708C80.938,57.183,81.387,57.691,81.925,58.296z"/>
<path fill-rule="evenodd" clip-rule="evenodd" fill="#bf7512" class="fill" d="M57.255,105.504c-0.196-0.704-0.346-1.25-0.513-1.85
	c0.367-0.235,0.666-0.426,1.084-0.692c0.251,0.586,0.458,1.073,0.718,1.68C58.145,104.91,57.754,105.171,57.255,105.504z"/>
<path fill-rule="evenodd" clip-rule="evenodd" fill="#bf7512" class="fill" d="M83.909,69.923c0.23,0.408,0.432,0.761,0.73,1.283
	c-0.768,0.212-1.388,0.382-2.096,0.578c-0.125-0.485-0.215-0.833-0.325-1.275C82.812,70.303,83.319,70.128,83.909,69.923z"/>
<path fill-rule="evenodd" clip-rule="evenodd" fill="#bf7512" class="fill" d="M55.278,97.868c0.396-0.148,0.652-0.244,1.022-0.382
	c0.196,0.729,0.37,1.373,0.567,2.113c-0.304,0.199-0.604,0.396-1.112,0.729C55.586,99.445,55.446,98.729,55.278,97.868z"/>
<path fill-rule="evenodd" clip-rule="evenodd" fill="#bf7512" class="fill" d="M84.953,82.989c-0.175-0.613-0.275-0.967-0.421-1.472
	c0.633-0.144,1.188-0.269,1.874-0.427c0.092,0.466,0.169,0.852,0.272,1.384C86.092,82.649,85.604,82.795,84.953,82.989z"/>
<path fill-rule="evenodd" clip-rule="evenodd" fill="#bf7512" class="fill" d="M77.545,55.022c0.275-0.233,0.487-0.411,0.811-0.682
	c0.56,0.602,1.086,1.167,1.71,1.839c-0.423,0.201-0.7,0.333-1.056,0.501C78.513,56.118,78.054,55.599,77.545,55.022z"/>
<path fill-rule="evenodd" clip-rule="evenodd" fill="#bf7512" class="fill" d="M69.478,50.173c0.853,0.068,1.423,0.115,2.118,0.171
	c-0.187,0.517-0.323,0.896-0.476,1.314c-0.459,0.043-0.874,0.079-1.471,0.134C69.595,51.284,69.548,50.836,69.478,50.173z"/>
<path fill-rule="evenodd" clip-rule="evenodd" fill="#bf7512" class="fill" d="M100.075,46.69c0.637,1.068-0.095,2.215,0.168,3.368
	c-0.355,0.058-0.583,0.095-1.015,0.166c0.155-1.253,0.296-2.391,0.436-3.528C99.802,46.694,99.938,46.692,100.075,46.69z"/>
<path fill-rule="evenodd" clip-rule="evenodd" fill="#bf7512" class="fill" d="M78.621,60.703c0.328-0.197,0.565-0.341,0.923-0.556
	c0.374,0.67,0.715,1.279,1.125,2.011c-0.467,0.137-0.802,0.236-1.211,0.357C79.176,61.906,78.93,61.374,78.621,60.703z"/>
<path fill-rule="evenodd" clip-rule="evenodd" fill="#bf7512" class="fill" d="M111.4,37.013c-0.984,0.081-1.827-0.06-2.634-0.639
	c0.465-0.691,1.272-0.461,1.863-0.887C110.896,36.01,111.131,36.48,111.4,37.013z"/>
<path fill-rule="evenodd" clip-rule="evenodd" fill="#bf7512" class="fill" d="M84.276,62.355c-0.553,0.186-1.014,0.339-1.562,0.522
	c-0.212-0.355-0.39-0.658-0.625-1.056c0.531-0.319,0.979-0.587,1.507-0.903C83.842,61.436,84.033,61.839,84.276,62.355z"/>
<path fill-rule="evenodd" clip-rule="evenodd" fill="#bf7512" class="fill" d="M98.433,46.588c-0.087,3.26-0.154,3.64-0.831,4.396
	C97.571,49.331,97.792,47.927,98.433,46.588z"/>
<path fill-rule="evenodd" clip-rule="evenodd" fill="#bf7512" class="fill" d="M65.663,53.488c-0.255-0.479-0.426-0.804-0.647-1.225
	c0.392-0.335,0.752-0.644,1.197-1.026c0.232,0.567,0.403,0.987,0.615,1.505C66.48,52.964,66.144,53.18,65.663,53.488z"/>
<path fill-rule="evenodd" clip-rule="evenodd" fill="#bf7512" class="fill" d="M103.804,46.595c0.38,1.242,0.293,2.221,0.027,3.291
	C103.029,49.007,103,47.925,103.804,46.595z"/>
<path fill-rule="evenodd" clip-rule="evenodd" fill="#bf7512" class="fill" d="M83.525,76.096c-0.026-0.406-0.042-0.642-0.064-0.997
	c0.562-0.161,1.108-0.317,1.732-0.497c0.142,0.388,0.246,0.681,0.417,1.151C84.898,75.872,84.302,75.969,83.525,76.096z"/>
<path fill-rule="evenodd" clip-rule="evenodd" fill="#bf7512" class="fill" d="M85.189,64.366c-0.613,0.184-1.002,0.299-1.472,0.439
	c-0.214-0.349-0.4-0.648-0.632-1.023c0.447-0.286,0.823-0.526,1.349-0.863C84.675,63.381,84.889,63.789,85.189,64.366z"/>
<path fill-rule="evenodd" clip-rule="evenodd" fill="#bf7512" class="fill" d="M56.548,102.75c-0.205-0.663-0.361-1.161-0.535-1.719
	c0.374-0.183,0.658-0.321,1.091-0.531c0.167,0.605,0.305,1.106,0.452,1.637C57.245,102.328,57,102.476,56.548,102.75z"/>
<path fill-rule="evenodd" clip-rule="evenodd" fill="#bf7512" class="fill" d="M101.864,47.371c0.594,0.722,0.382,1.565,0.303,2.479
	c-0.322-0.019-0.589-0.034-0.992-0.058c0.12-0.862,0.227-1.628,0.336-2.395C101.628,47.388,101.746,47.38,101.864,47.371z"/>
<path fill-rule="evenodd" clip-rule="evenodd" fill="#bf7512" class="fill" d="M78.117,60.013c-0.327-0.51-0.57-0.89-0.882-1.375
	c0.317-0.229,0.596-0.43,0.973-0.703c0.371,0.57,0.677,1.039,1.039,1.596C78.823,59.712,78.535,59.834,78.117,60.013z"/>
<path fill-rule="evenodd" clip-rule="evenodd" fill="#bf7512" class="fill" d="M90.248,34.232c-0.506-0.088-0.895-0.156-1.274-0.223
	c0.112-1.119,0.166-1.168,1.569-1.473C90.443,33.104,90.356,33.607,90.248,34.232z"/>
<path fill-rule="evenodd" clip-rule="evenodd" fill="#bf7512" class="fill" d="M101.225,111.61c-0.259-1.451-0.216-2.675,0.281-4.128
	C101.86,108.785,101.736,110.58,101.225,111.61z"/>
<path fill-rule="evenodd" clip-rule="evenodd" fill="#bf7512" class="fill" d="M67.102,50.777c0.592-0.188,0.934-0.296,1.416-0.449
	c0,0.626,0,1.136,0,1.744c-0.142,0.061-0.356,0.154-0.72,0.31C67.576,51.867,67.377,51.409,67.102,50.777z"/>
<path fill-rule="evenodd" clip-rule="evenodd" fill="#bf7512" class="fill" d="M120.299,109.452c1.234,0.792,2.046,2.097,2.021,3.159
	C121.244,111.738,121.046,110.425,120.299,109.452z"/>
<path fill-rule="evenodd" clip-rule="evenodd" fill="#bf7512" class="fill" d="M76.976,51.329c-0.417-0.262-0.764-0.477-1.18-0.736
	c0.178-0.275,0.307-0.477,0.421-0.653c1.204-0.128,1.204-0.128,1.838,0.36C77.695,50.643,77.352,50.972,76.976,51.329z"/>
<path fill-rule="evenodd" clip-rule="evenodd" fill="#bf7512" class="fill" d="M70.388,62.565c0.032,0.511,0.052,0.788,0.075,1.155
	c-0.448,0.159-0.866,0.307-1.412,0.5c-0.053-0.438-0.094-0.779-0.151-1.238C69.394,62.844,69.81,62.726,70.388,62.565z"/>
<path fill-rule="evenodd" clip-rule="evenodd" fill="#bf7512" class="fill" d="M81.208,63.206c0.173,0.351,0.352,0.71,0.594,1.195
	c-0.53,0.083-0.922,0.145-1.373,0.216c-0.201-0.424-0.373-0.792-0.563-1.197C80.268,62.958,80.713,63.158,81.208,63.206z"/>
<path fill-rule="evenodd" clip-rule="evenodd" fill="#bf7512" class="fill" d="M93.477,34.568c-0.697-0.696-0.44-1.333-0.295-2.034
	c0.26-0.018,0.488-0.031,0.758-0.049C94.188,33.261,94.065,33.885,93.477,34.568z"/>
<path fill-rule="evenodd" clip-rule="evenodd" fill="#bf7512" class="fill" d="M54.671,89.878c-0.039-0.67-0.078-1.34-0.122-2.107
	c0.368,0.034,0.559,0.051,0.793,0.073c0.124,0.789,0.406,1.538-0.314,2.1C54.909,89.921,54.79,89.899,54.671,89.878z"/>
<path fill-rule="evenodd" clip-rule="evenodd" fill="#bf7512" class="fill" d="M77.494,51.883c0.4-0.398,0.711-0.708,1.072-1.069
	c0.333,0.287,0.571,0.493,0.912,0.788c-0.314,0.345-0.578,0.632-0.9,0.985C78.219,52.354,77.926,52.163,77.494,51.883z"/>
<path fill-rule="evenodd" clip-rule="evenodd" fill="#bf7512" class="fill" d="M85.327,65.101c0.176,0.509,0.296,0.854,0.438,1.271
	c-0.386,0.16-0.721,0.298-1.195,0.494c-0.168-0.413-0.312-0.768-0.48-1.183C84.523,65.48,84.849,65.327,85.327,65.101z"/>
<path fill-rule="evenodd" clip-rule="evenodd" fill="#bf7512" class="fill" d="M63.251,69.634c-0.43-0.036-0.623-0.051-0.902-0.074
	c-0.076-0.56-0.148-1.083-0.231-1.684c0.321-0.054,0.548-0.091,0.917-0.153C63.105,68.351,63.167,68.9,63.251,69.634z"/>
<path fill-rule="evenodd" clip-rule="evenodd" fill="#bf7512" class="fill" d="M105.074,46.164c0.689,1.24,0.422,2.536,0.533,3.876
	c-0.619-0.103-0.529-0.469-0.531-0.773C105.071,48.232,105.074,47.198,105.074,46.164z"/>
<path fill-rule="evenodd" clip-rule="evenodd" fill="#bf7512" class="fill" d="M63.659,72.878c0.127,0.63,0.222,1.1,0.325,1.619
	c-0.241,0.104-0.416,0.179-0.588,0.253C62.793,73.564,62.798,73.484,63.659,72.878z"/>
<path fill-rule="evenodd" clip-rule="evenodd" fill="#bf7512" class="fill" d="M84.751,67.691c0.478-0.197,0.812-0.335,1.217-0.503
	c0.127,0.395,0.225,0.7,0.359,1.117c-0.361,0.17-0.677,0.318-1.067,0.504C85.086,68.426,84.956,68.137,84.751,67.691z"/>
<path fill-rule="evenodd" clip-rule="evenodd" fill="#bf7512" class="fill" d="M55.323,97.042c-0.119-0.563-0.22-1.037-0.339-1.6
	c0.325-0.074,0.579-0.133,0.96-0.219c0.065,0.531,0.121,0.97,0.184,1.463C55.865,96.803,55.655,96.896,55.323,97.042z"/>
<path fill-rule="evenodd" clip-rule="evenodd" fill="#bf7512" class="fill" d="M70.642,65.553c-0.513,0.158-0.941,0.292-1.475,0.456
	c0-0.418,0-0.733,0-1.119c0.395-0.08,0.75-0.152,1.175-0.237C70.445,64.966,70.53,65.217,70.642,65.553z"/>
<path fill-rule="evenodd" clip-rule="evenodd" fill="#bf7512" class="fill" d="M85.378,69.748c0.428-0.245,0.707-0.405,1.069-0.613
	c0.118,0.416,0.219,0.761,0.334,1.162c-0.252,0.183-0.468,0.342-0.778,0.566C85.792,70.486,85.62,70.181,85.378,69.748z"/>
<path fill-rule="evenodd" clip-rule="evenodd" fill="#bf7512" class="fill" d="M64.046,77.389c-0.223-0.824-0.913-1.375-0.171-2.089
	C64.694,76.237,64.721,76.42,64.046,77.389z"/>
<path fill-rule="evenodd" clip-rule="evenodd" fill="#bf7512" class="fill" d="M56.991,78.196c-0.297-0.167-0.529-0.297-0.852-0.479
	c0.195-0.475,0.363-0.887,0.597-1.46C57.293,76.89,57.655,77.366,56.991,78.196z"/>
<path fill-rule="evenodd" clip-rule="evenodd" fill="#bf7512" class="fill" d="M104.634,106.047c-0.718,0.045-1.157,0.074-1.869,0.119
	c0.31-0.61,0.509-1.007,0.812-1.607C103.975,105.118,104.229,105.476,104.634,106.047z"/>
<path fill-rule="evenodd" clip-rule="evenodd" fill="#bf7512" class="fill" d="M71.47,47.616c-0.226,0.514-0.396,0.901-0.591,1.342
	c-0.278,0.032-0.553,0.063-0.811,0.093c-0.055-0.149-0.122-0.242-0.101-0.294C70.234,48.141,70.545,47.575,71.47,47.616z"/>
<path fill-rule="evenodd" clip-rule="evenodd" fill="#bf7512" class="fill" d="M70.493,61.802c-0.561,0.106-0.923,0.172-1.347,0.251
	c-0.109-0.253-0.199-0.465-0.354-0.823c0.485-0.113,0.871-0.201,1.307-0.302C70.227,61.212,70.323,61.425,70.493,61.802z"/>
<path fill-rule="evenodd" clip-rule="evenodd" fill="#bf7512" class="fill" d="M56.253,82.379c-0.444-0.173-0.696-0.271-1.054-0.41
	c0.104-0.385,0.194-0.716,0.306-1.125c0.326,0.092,0.55,0.155,0.856,0.242C56.329,81.469,56.301,81.821,56.253,82.379z"/>
<path fill-rule="evenodd" clip-rule="evenodd" fill="#bf7512" class="fill" d="M96.855,34.621c0.105-0.645,0.175-1.086,0.253-1.561
	c0.253,0.024,0.411,0.039,0.644,0.062c0,0.504,0,0.987,0.001,1.568C97.524,34.673,97.27,34.654,96.855,34.621z"/>
<path fill-rule="evenodd" clip-rule="evenodd" fill="#bf7512" class="fill" d="M64.289,53.253c0.277,0.299,0.43,0.46,0.672,0.723
	c-0.467,0.451-0.884,0.853-1.301,1.255c-0.085-0.06-0.17-0.121-0.257-0.181C63.678,54.495,63.95,53.94,64.289,53.253z"/>
<path fill-rule="evenodd" clip-rule="evenodd" fill="#bf7512" class="fill" d="M54.726,93.159c0.413,0,0.611,0,0.905,0
	c0.051,0.386,0.098,0.744,0.15,1.145c-0.235,0.106-0.419,0.188-0.749,0.336C54.93,94.148,54.843,93.724,54.726,93.159z"/>
<path fill-rule="evenodd" clip-rule="evenodd" fill="#bf7512" class="fill" d="M63.15,70.331c0.141,0.624,0.256,1.133,0.386,1.709
	c-0.296,0.06-0.483,0.097-0.75,0.152c-0.111-0.488-0.211-0.924-0.327-1.43C62.656,70.639,62.844,70.522,63.15,70.331z"/>
<path fill-rule="evenodd" clip-rule="evenodd" fill="#bf7512" class="fill" d="M55.049,83.104c0.955,0.239,0.93,0.725,0.746,1.352
	c-0.284,0.024-0.555,0.049-0.975,0.085C54.902,84.03,54.967,83.613,55.049,83.104z"/>
<path fill-rule="evenodd" clip-rule="evenodd" fill="#bf7512" class="fill" d="M95.855,34.41c-0.35,0.028-0.541,0.043-0.669,0.054
	c-0.431-0.357-0.217-1.088,0.589-1.868C95.804,33.254,95.828,33.755,95.855,34.41z"/>
<path fill-rule="evenodd" clip-rule="evenodd" fill="#bf7512" class="fill" d="M54.772,85.405c0.323,0.039,0.562,0.068,0.941,0.114
	c-0.067,0.443-0.126,0.829-0.194,1.276c-0.294-0.027-0.487-0.044-0.747-0.067C54.772,86.269,54.772,85.87,54.772,85.405z"/>
<path fill-rule="evenodd" clip-rule="evenodd" fill="#bf7512" class="fill" d="M117.935,34.317c-0.148-0.34-0.261-0.596-0.455-1.039
	c0.554-0.054,0.975-0.096,1.435-0.14C119.043,33.946,118.6,34.123,117.935,34.317z"/>
<path fill-rule="evenodd" clip-rule="evenodd" fill="#bf7512" class="fill" d="M99.137,33.376c0.253,0.029,0.442,0.051,0.834,0.096
	c-0.192,0.583-0.353,1.067-0.552,1.667C98.687,34.488,98.906,33.975,99.137,33.376z"/>
<path fill-rule="evenodd" clip-rule="evenodd" fill="#bf7512" class="fill" d="M112.296,36.082c0.591-0.186,0.964-0.303,1.336-0.419
	c0.072,0.083,0.143,0.167,0.215,0.25c-0.164,0.303-0.33,0.607-0.57,1.049C112.921,36.643,112.703,36.448,112.296,36.082z"/>
<path fill-rule="evenodd" clip-rule="evenodd" fill="#bf7512" class="fill" d="M94.066,35.804c-0.089,1.062-0.089,1.062-1.002,0.89
	C93.125,36.133,93.386,35.829,94.066,35.804z"/>
<path fill-rule="evenodd" clip-rule="evenodd" fill="#bf7512" class="fill" d="M66.694,64.397c0.278,0.783,0.162,1.221-0.587,1.421
	C65.654,65.115,66.01,64.775,66.694,64.397z"/>
<path fill-rule="evenodd" clip-rule="evenodd" fill="#bf7512" class="fill" d="M55.491,90.909c0.029,0.413,0.055,0.775,0.09,1.254
	c-0.311-0.014-0.532-0.023-0.813-0.037c-0.032-0.415-0.062-0.777-0.097-1.217C54.965,90.909,55.188,90.909,55.491,90.909z"/>
<path fill-rule="evenodd" clip-rule="evenodd" fill="#bf7512" class="fill" d="M56.041,78.853c0.82,0.226,0.869,0.597,0.457,1.187
	c-0.205-0.058-0.394-0.112-0.718-0.203C55.872,79.494,55.954,79.179,56.041,78.853z"/>
<path fill-rule="evenodd" clip-rule="evenodd" fill="#bf7512" class="fill" d="M69.297,66.694c0.339-0.046,0.494-0.067,0.853-0.116
	c-0.167,0.544-0.295,0.966-0.426,1.39c-0.084-0.01-0.17-0.02-0.256-0.03C69.417,67.56,69.364,67.182,69.297,66.694z"/>
<path fill-rule="evenodd" clip-rule="evenodd" fill="#bf7512" class="fill" d="M112.325,33.445c0.035,0.336,0.065,0.601,0.097,0.892
	c-0.671,0.111-0.788-0.251-0.85-0.779C111.813,33.522,112.034,33.489,112.325,33.445z"/>
<path fill-rule="evenodd" clip-rule="evenodd" fill="#bf7512" class="fill" d="M109.719,34.741c-0.112-0.473-0.177-0.744-0.256-1.072
	c0.631-0.139,0.799,0.22,0.98,0.706C110.241,34.477,110.051,34.574,109.719,34.741z"/>
<path fill-rule="evenodd" clip-rule="evenodd" fill="#bf7512" class="fill" d="M91.396,34.135c0.09-0.461,0.181-0.922,0.271-1.384
	c0.05,0.005,0.102,0.009,0.152,0.015c0,0.46,0,0.92,0,1.38C91.677,34.143,91.537,34.139,91.396,34.135z"/>
<path fill-rule="evenodd" clip-rule="evenodd" fill="#bf7512" class="fill" d="M66.932,66.284c0.239,0.586,0.311,0.989-0.279,1.287
	C66.197,67.039,66.434,66.717,66.932,66.284z"/>
<path fill-rule="evenodd" clip-rule="evenodd" fill="#bf7512" class="fill" d="M115.996,34.511c-0.172-0.284-0.342-0.567-0.575-0.954
	c0.341-0.076,0.524-0.117,0.797-0.178c0.043,0.383,0.077,0.693,0.112,1.002C116.22,34.425,116.106,34.468,115.996,34.511z"/>
<path fill-rule="evenodd" clip-rule="evenodd" fill="#bf7512" class="fill" d="M108.195,35c-0.46-0.204-0.735-0.49-0.476-1.071
	C108.278,34.138,108.324,34.528,108.195,35z"/>
<path fill-rule="evenodd" clip-rule="evenodd" fill="#bf7512" class="fill" d="M106.54,35.751c-0.121-0.097-0.296-0.169-0.35-0.294
	c-0.072-0.168-0.05-0.377-0.068-0.569c0.086-0.036,0.172-0.071,0.258-0.106c0.14,0.258,0.279,0.515,0.42,0.774
	C106.712,35.621,106.627,35.686,106.54,35.751z"/>
<path fill-rule="evenodd" clip-rule="evenodd" fill="#bf7512" class="fill" d="M114.064,34.38c-0.136-0.26-0.271-0.519-0.476-0.906
	c0.846-0.057,0.84,0.316,0.832,0.69C114.303,34.237,114.183,34.308,114.064,34.38z"/>
<path fill-rule="evenodd" clip-rule="evenodd" fill="#bf7512" class="fill" d="M107.917,157.67c0.121-0.2,0.242-0.399,0.361-0.6
	c0.056,0.029,0.111,0.059,0.166,0.088c-0.102,0.218-0.203,0.436-0.307,0.654C108.065,157.765,107.991,157.717,107.917,157.67z"/>
</svg>
