<svg version="1.1" id="svg" xmlns="http://www.w3.org/2000/svg" xmlns:xlink="http://www.w3.org/1999/xlink" x="0px" y="0px"
	 width="200px" height="200px" viewBox="0 0 200 200" enable-background="new 0 0 200 200" xml:space="preserve">
<path class="stroke" fill="#693c11"  d="M194.45,70.051c-1.843-0.211-3.51-0.914-5.098-1.824c-1.084-0.623-2.219-1.007-3.479-1.021
	c-0.248-0.002-0.496-0.084-0.746-0.11c-2.062-0.214-4.13-0.502-6.193-0.028c-1.152,0.265-2.291,0.591-3.446,0.835
	c-0.404,0.085-0.842,0.006-1.479,0.001c0.636-0.719,1.027-1.156,1.414-1.598c1.279-1.467,2.684-2.886,2.881-4.953
	c0.139-1.422,0.116-2.861,0.147-4.292c0.022-0.966-0.374-1.718-1.338-2.28c-0.429,0.027-0.963,0.061-1.585,0.101
	c-0.123,0.474-0.227,0.873-0.328,1.271c-0.367,1.445-1.092,2.582-2.393,3.442c-1.225,0.811-2.505,1.331-3.898,1.746
	c-2.297,0.685-4.573,0.958-6.971,0.655c-2.996-0.377-5.991-0.175-8.93,0.616c-0.632,0.17-1.237,0.132-1.836-0.196
	c-2.316-1.267-4.496-2.698-6.184-4.779c-0.562-0.692-1.231-1.281-2.207-1.503c-0.396,0.135-0.83,0.284-1.331,0.455
	c-0.397-0.263-0.812-0.546-1.237-0.818c-2.139-1.37-4.389-2.558-6.854-3.16c-3.16-0.771-6.341-1.366-9.66-0.898
	c-3.138,0.441-6.322,0.535-9.468,0.914c-1.78,0.217-3.549,0.403-5.307,0.073c-4.021-0.759-8.016-0.299-11.99,0.225
	c-3.265,0.429-6.491,1.116-9.732,1.706c-3.822,0.694-7.64,1.414-11.463,2.108c-0.997,0.182-2.016,0.263-3.005,0.478
	c-2.736,0.595-5.463,0.5-8.189-0.025c-3.315-0.638-6.55-1.688-9.935-2c-2.112-0.194-4.203-0.193-6.3,0.258
	c-2.217,0.478-4.008,1.75-5.864,2.917c-2.081,1.307-4.216,2.471-6.612,3.144c-1.963,0.553-3.799,1.447-5.414,2.725
	c-1.293,1.023-2.585,2.048-3.849,3.109c-1.284,1.078-2.279,2.411-2.951,3.933c-0.647,1.466-1.267,2.969-1.667,4.516
	c-0.701,2.7-1.228,5.428-0.885,8.272c0.225,1.881,0.282,3.797,0.252,5.695c-0.045,2.875-0.432,5.72-0.852,8.571
	c-0.503,3.427-1.558,6.575-3.549,9.396c-1.179,1.668-2.48,3.144-4.499,3.946c-1.97,0.784-3.68,2.061-5.127,3.658
	c-2.555,2.821-2.915,6.069-1.935,9.593c0.078,0.283,0.158,0.607,0.351,0.807c0.227,0.234,0.574,0.353,0.873,0.523
	c0.782-1.028,0.603-2.343,1.548-3.171c0.522,2.981,1.277,4.14,2.663,4.061c0.501-0.943-0.113-2.088,0.406-3.21
	c0.513,1.116,0.937,2.079,1.396,3.025c0.283,0.585,0.645,1.107,1.554,0.801c0.062-1.71,0.125-3.427,0.189-5.144
	c0.723,0.604,1.206,1.233,1.657,1.883c0.542,0.782,1.253,1.173,2.305,1.115c-0.023-0.359-0.014-0.646-0.062-0.924
	c-0.372-2.032-0.816-4.052-1.118-6.093c-0.338-2.26,0.083-4.325,1.646-6.147c1.837-2.144,3.642-4.344,4.729-6.996
	c0.844-2.063,1.727-4.126,2.349-6.26c0.715-2.446,0.59-5.02,0.595-7.546c0.004-2.645-0.196-5.29-0.244-7.937
	c-0.033-1.815-0.036-3.638,0.09-5.447c0.106-1.509,0.334-3.04,1.087-4.385c0.575-1.03,1.227-2.04,1.986-2.937
	c0.618-0.73,1.339-1.458,2.607-1.667c-0.285,1.132-0.539,2.1-0.771,3.076c-0.213,0.901-0.579,1.812-0.566,2.714
	c0.034,2.323,0.262,4.645,0.367,6.968c0.104,2.322,0.271,4.65,0.202,6.969c-0.071,2.445-0.338,4.887-0.608,7.32
	c-0.336,3.022-0.622,6.06-1.191,9.04c-0.571,2.979-1.441,5.901-2.228,8.836c-0.249,0.937-0.677,1.822-0.976,2.748
	c-0.472,1.462-1.1,2.837-2.09,4.027c-0.754,0.905-0.916,1.928-0.805,3.087c0.217,2.281,1.037,4.333,2.081,6.34
	c1.911,3.68,1.989,7.535,0.993,11.481c-0.395,1.556-0.868,3.109-1.063,4.695c-0.258,2.046-0.281,4.122-0.388,6.187
	c-0.062,1.159-0.088,2.322-0.135,3.691c0.164,0.105,0.439,0.414,0.763,0.475c1.989,0.381,3.971,0.796,6.036,0.525
	c2.345-0.308,4.704-0.495,7.059-0.736c0.334-0.034,0.668-0.077,1.15-0.132c0.232-0.227,0.53-0.518,0.84-0.819
	c-0.497-2.518-1.223-4.857-2.1-7.136c-0.407-1.054-0.669-2.08-0.636-3.192c0.079-2.707,0.217-5.412,0.222-8.119
	c0.004-1.315,0.234-2.545,0.877-3.656c1.734-3,3.523-5.969,5.312-8.937c0.225-0.375,0.582-0.669,0.855-0.978
	c1.346,0.897,2.572,1.712,3.782,2.521c0.122,1.422,0.144,2.824,0.382,4.187c0.649,3.706,1.41,7.392,2.089,11.093
	c0.474,2.578,1.043,5.137,1.117,7.782c0.061,2.149,0.306,4.292,0.461,6.318c0.48,0.422,0.828,0.727,1.207,1.061
	c1.003,0,2.032,0.122,3.022-0.025c2.39-0.352,4.784-0.029,7.172-0.2c1.212-0.088,2.433-0.016,3.486-0.016
	c0.525-0.491,0.889-0.828,1.212-1.129c-0.965-2.118-1.898-4.195-2.86-6.261c-0.3-0.647-0.551-1.386-1.035-1.867
	c-1.031-1.019-1.248-2.265-1.344-3.586c-0.033-0.465-0.021-0.933-0.027-1.398c-0.04-3.422-0.086-6.845-0.117-10.267
	c-0.018-1.934-0.003-3.869-0.003-5.936c0.528-0.358,1.169-0.796,1.95-1.328c0.151,0.56,0.244,0.916,0.344,1.271
	c0.256,0.921,0.707,1.728,1.494,2.299c1.476,1.069,3.262,0.684,3.773-0.858c0.803-2.428,1.269-4.9,0.698-7.468
	c-0.054-0.243,0.03-0.515,0.058-0.866c1.465,0.985,2.194,2.877,4.184,2.702c1.123-1.355,1.045-2.692-0.166-4.009
	c-0.767-0.83-1.521-1.667-2.311-2.534c0.454-0.545,0.827-0.994,1.284-1.54c0.948,0.508,1.864,1.023,2.802,1.498
	c2.148,1.091,4.304,2.174,6.469,3.236c2.09,1.025,4.188,2.046,6.486,2.531c1.363,0.289,2.769,0.408,4.11,0.766
	c3.95,1.051,7.874,0.87,11.802-0.073c0.477-0.116,0.963-0.199,1.359-0.28c0,1.935-0.014,3.776,0.004,5.615
	c0.012,1.185,0.208,2.385,0.066,3.546c-0.157,1.262,0.039,2.426,0.333,3.623c0.189,0.77,0.354,1.57,0.357,2.357
	c0.007,0.836-0.178,1.677-0.292,2.513c-0.305,2.218-0.609,4.437-0.927,6.653c-0.304,2.134-0.671,4.259-0.919,6.4
	c-0.112,0.977-0.345,2.011,0.194,2.91c2.471,1.03,11.354,1.019,14.735,0.014c0.47-0.904,0.503-0.917,0.26-1.517
	c-1.009-2.491-1.537-5.102-1.919-7.74c-0.213-1.457-0.421-2.936-0.065-4.411c0.235-0.985,0.537-1.958,0.712-2.954
	c0.302-1.726,0.827-3.373,1.616-4.927c0.562-1.105,0.945-2.337,1.941-3.193c0.959,1.045,1.961,1.974,2.747,3.058
	c0.497,0.686,0.816,1.584,0.956,2.429c0.179,1.073,0.145,2.192,0.108,3.288c-0.04,1.353-0.167,2.703-0.276,4.052
	c-0.056,0.67-0.123,1.343-0.241,2.004c-0.245,1.362-0.266,2.663,0.454,3.935c0.243,0.431,0.269,1.062,0.201,1.576
	c-0.182,1.379-0.466,2.744-0.719,4.166c0.205,0.284,0.421,0.585,0.719,0.999c4.127,0,8.288,0,12.457,0
	c0.344-0.362,0.658-0.691,1.053-1.105c-0.466-1.307-0.997-2.594-1.382-3.924c-0.469-1.617-1.043-3.253-1.167-4.91
	c-0.222-2.984-0.095-5.994-0.212-8.988c-0.062-1.591,0.353-2.971,1.145-4.334c0.584-1.006,1.121-2.113,1.341-3.241
	c0.438-2.247,0.367-4.539,0.173-6.828c-0.104-1.242-0.018-2.5-0.018-3.794c0.373,0,0.711-0.049,1.032,0.008
	c2.677,0.471,5.32,0.093,7.95-0.352c0.538-0.091,1.094-0.451,1.503-0.836c0.631-0.596,1.143-1.319,1.748-2.042
	c2.607,1.494,5.398,1.503,8.207,1.359c2.053-0.104,3.987-0.614,5.294-2.318c1.274-1.663,2.046-3.584,2.342-5.683
	c0.081-0.578,0.172-1.171,0.375-1.714c0.78-2.098,1.616-4.175,2.417-6.265c1.022-2.683,2.29-5.285,2.707-8.168
	c0.174-1.212,0.363-2.423,0.512-3.639c0.298-2.475,0.568-4.954,0.857-7.429c0.033-0.273,0.119-0.539,0.187-0.849
	c2.77,0.524,5.447,0.463,8.138-0.007c2.686-0.468,5.134-1.376,6.981-3.466c1.033-1.17,1.964-2.432,2.917-3.669
	c0.586-0.756,1.131-1.542,1.686-2.302C195.78,70.528,195.204,70.137,194.45,70.051z"/>
<path fill-rule="evenodd" clip-rule="evenodd" fill="#faf0e5" class="fill" d="M145.77,68.531c-0.451,0.739-0.866,1.417-1.36,2.227
	c-1.861-0.495-3.723-0.988-5.58-1.48c-0.428-1.305-0.721-2.552-1.558-3.637c-3.061-3.968-8.864-4.254-12.273-0.72
	c-1.162,1.208-1.837,2.654-1.357,4.398c0.355,1.302,0.753,2.593,1.141,3.916c-0.651,0.906-1.308,1.826-1.988,2.771
	c0.065,0.247,0.066,0.53,0.2,0.719c0.652,0.919,0.891,1.965,1.106,3.048c0.18,0.909,0.032,1.669-0.543,2.371
	c-2.558,3.124-2.431,6.488-0.887,9.977c0.327,0.735,0.658,1.466,0.968,2.207c0.625,1.5,0.643,3.007,0.259,4.596
	c-0.571,2.354,0.011,4.476,1.821,6.13c1.666,1.521,4.529,2.161,6.596,0.847c1.013-0.644,1.797-1.445,2.027-2.638
	c0.42-2.157,0.742-4.334,1.177-6.488c0.317-1.571,0.682-3.139,1.153-4.67c0.433-1.404,1.461-2.265,2.938-2.483
	c0.992-0.146,1.993-0.222,3.074-0.338c0.29,1.483,0.55,2.804,0.805,4.125c0.11,0.58,0.188,1.167,0.321,1.74
	c0.333,1.412,0.202,2.803-0.378,4.097c-0.559,1.25-0.929,2.503-1.11,3.869c-0.184,1.372-0.715,2.694-1.025,4.053
	c-0.66,2.886-1.424,5.76-1.86,8.682c-0.276,1.857-0.207,3.81,0.011,5.685c0.265,2.303-0.006,4.547-0.177,6.819
	c-0.139,1.826-0.68,3.473-1.69,4.979c-0.615,0.913-0.499,1.957-0.487,2.958c0.027,2.578,0.097,5.157,0.214,7.733
	c0.045,1.045,0.248,2.082,0.397,3.246c-1.179,0.298-2.379,0.601-3.568,0.902c-0.234-0.695-0.427-1.266-0.646-1.909
	c-1.12,0.599-0.413,1.559-0.771,2.299c-0.131,0.034-0.317,0.084-0.569,0.151c-0.725-3.848,0.206-7.595,0.347-11.529
	c-0.716,0.328-0.886,0.761-1.007,1.26c-0.615,2.525-0.87,5.082-0.749,7.681c0.044,0.926,0.006,1.855,0.006,2.966
	c-0.718-0.578-0.962-1.276-1.077-1.988c-0.096-0.575-0.051-1.181-0.004-1.769c0.188-2.397,0.474-4.789,0.578-7.19
	c0.082-1.873-0.143-3.739-1.351-5.304c-0.436-0.565-0.938-1.087-1.46-1.575c-1.135-1.058-2.025-2.277-2.579-3.725
	c-0.404-1.052-0.386-2.051,0.61-2.913c-1.061-1.016-0.558-2.249-0.631-3.479c0.541-0.046,0.973-0.083,1.404-0.12
	c0.033-0.085,0.064-0.168,0.096-0.253c-0.424-0.269-0.849-0.538-1.389-0.879c-0.018-0.314-0.045-0.768-0.075-1.309
	c0.87-0.158,1.922,0.131,2.433-0.89c-0.373-0.609-0.83-0.196-1.258-0.176c-0.408,0.019-0.821-0.058-1.295-0.099
	c0-0.617,0-1.147,0-1.774c0.599-0.237,1.476,0.22,2.137-0.69c-0.77-0.167-1.434-0.312-2.196-0.479
	c-0.103-0.223-0.235-0.511-0.376-0.815c0.711-0.643,1.947-0.36,2.371-1.684c-0.902,0.09-1.66,0.166-2.476,0.248
	c-0.09-0.177-0.181-0.354-0.281-0.557c0.711-0.844,2.206-0.224,2.671-1.556c-1.021-0.676-1.904,0.326-2.935,0.225
	c-0.08-0.225-0.175-0.488-0.279-0.781c0.97-0.254,2.054-0.271,2.368-1.704c-0.982,0.232-1.815,0.428-2.646,0.625
	c-0.031-0.055-0.065-0.11-0.1-0.164c0.395-0.432,0.787-0.864,1.184-1.299c-0.644-0.855-1.223-0.021-1.822-0.112
	c-0.846-1.064-1.667-2.183-2.584-3.215c-0.469-0.525-1.063-0.972-1.678-1.32c-0.906-0.514-1.676-0.186-1.957,0.831
	c-0.153,0.555-0.232,1.201-0.105,1.749c0.577,2.461,0.149,4.877-0.152,7.311c-0.155,1.239-0.577,2.486-0.063,3.791
	c-0.751,0.843-1.894,0.829-2.759,1.304c-0.512-0.297-0.967-0.56-1.678-0.972c0.14,0.66,0.218,1.026,0.312,1.476
	c-0.545,0.179-1.095,0.358-1.541,0.505c-0.829-0.271-0.872-1.462-2.031-1.236c0.172,0.493,0.327,0.935,0.52,1.492
	c-0.622,0.164-1.221,0.321-1.762,0.464c-0.852-0.414-0.665-1.815-2.054-1.748c0.224,0.667,0.426,1.266,0.653,1.945
	c-0.491,0.085-0.895,0.156-1.247,0.218c-0.914-0.758-0.711-2.358-2.24-2.665c-0.156,1.2,0.629,1.88,1.216,2.799
	c-0.854,0.125-1.59,0.233-2.318,0.34c-0.632-0.834,0.021-2.331-1.67-2.608c0.095,0.904,0.178,1.708,0.279,2.685
	c-0.641-0.039-1.194-0.073-1.724-0.106c-0.364-1.241,0.1-2.694-1.198-3.38c-0.124,0.029-0.247,0.058-0.372,0.088
	c0.076,0.966,0.153,1.932,0.246,3.121c-0.618-0.186-1.061-0.318-1.373-0.413c-0.6-1.108,0.354-2.68-1.46-3.302
	c0,1.062,0,1.929,0,2.954c-0.683-0.17-1.229-0.305-1.816-0.451c-0.037-0.804-0.069-1.516-0.107-2.318
	c-0.254-0.138-0.528-0.285-0.998-0.538c-0.114,0.882-0.21,1.604-0.32,2.46c-0.577-0.131-1.095-0.249-1.683-0.382
	c0-0.97,0-1.882,0-2.873c-0.235-0.105-0.482-0.22-0.888-0.404c-0.108,0.541-0.214,0.974-0.28,1.412
	c-0.062,0.406-0.08,0.819-0.137,1.414c-0.602-0.224-1.046-0.391-1.539-0.574c0.242-1.07,0.464-2.042,0.695-3.065
	c-0.326-0.16-0.571-0.28-1.006-0.493c-0.309,1.048-0.589,1.99-0.901,3.045c-0.507-0.233-0.987-0.455-1.515-0.696
	c0.105-0.888,0.204-1.715,0.312-2.648c-0.375-0.137-0.701-0.253-1.149-0.416c-0.106,0.85-0.192,1.547-0.304,2.429
	c-0.57-0.28-1.076-0.529-1.604-0.788c0-0.681,0-1.3,0-2.011c-0.283-0.107-0.57-0.216-0.972-0.369
	c-0.145,0.541-0.262,0.972-0.426,1.575c-0.562-0.252-1.103-0.496-1.676-0.751c0.041-0.457,0.073-0.823,0.109-1.248
	c-0.293-0.112-0.548-0.209-0.855-0.325c-0.229,0.363-0.423,0.673-0.657,1.042c-0.304-0.048-0.629-0.1-0.958-0.152
	c-0.368-0.419-0.198-1.444-1.331-1.035c-0.025,0.396-0.054,0.842-0.076,1.176c-0.94,1.554-1.831,3.021-2.788,4.603
	c-0.361-0.416-0.623-0.718-0.948-1.095c-0.326,0.123-0.661,0.249-1.071,0.404c0.213,0.678,0.426,1.271,0.578,1.877
	c0.444,1.759,1,3.503,1.258,5.29c0.228,1.592-0.009,3.203-1.051,4.604c-0.787-0.054-1.108-0.562-1.334-1.187
	c-0.326-0.916-0.578-1.869-1.006-2.734c-0.504-1.017-1.129-1.979-1.775-2.915c-0.199-0.287-0.64-0.405-0.989-0.612
	c-0.636,1.066,0.103,1.967-0.089,2.941c-0.541,0.815-1.473,1.117-2.271,1.439c-1.4-0.007-2.077-0.987-2.832-1.807
	c-0.871,0.248-1.041,0.93-1.077,1.599c-0.079,1.435-0.054,2.875-0.1,4.311c-0.03,0.922-0.11,1.842-0.162,2.639
	c-0.73,0.691-1.442,0.619-2.132,0.569c-0.988-1.209-1.123-2.648-1.348-4.062c-0.229-1.451-0.494-2.896-0.714-4.176
	c-1.144-1.052-2.497-0.275-3.61-0.936c0.015-0.246-0.029-0.55,0.062-0.808c0.627-1.804,1.353-3.556,2.682-4.988
	c2.212-2.39,4.29-4.918,6.901-6.899c1.818-1.379,3.694-2.679,5.829-3.567c1.225-0.509,2.456-0.628,3.728-0.331
	c1.768,0.414,3.517,0.93,5.297,1.272c1.321,0.253,2.682,0.35,4.027,0.422c0.883,0.047,1.012-0.117,1.5-1.063
	c-0.199-0.739-0.902-0.707-1.434-0.828c-1.441-0.332-2.906-0.571-4.359-0.849c-0.203-0.039-0.404-0.092-0.656-0.149
	c-0.078-0.335-0.152-0.65-0.215-0.916c-0.355-0.361-0.84-0.17-1.482,0.551c-0.256-0.06-0.538-0.126-0.855-0.2
	c-0.092-0.338-0.178-0.656-0.281-1.04c-0.238-0.074-0.506-0.155-0.84-0.258c-0.165,0.335-0.306,0.619-0.471,0.96
	c-0.34,0-0.71,0-1.107,0c-0.154-0.424-0.295-0.812-0.451-1.237c-0.307,0-0.589,0-0.936,0c-0.075,0.389-0.145,0.747-0.232,1.2
	c-0.447,0-0.883,0-1.295,0c-0.193-0.662-0.379-1.283-0.595-2.01c-0.462,0.145-0.75,0.234-1.059,0.332
	c0.109,0.625,0.201,1.15,0.323,1.832c-0.529,0.081-0.957,0.146-1.346,0.205c-0.404-0.566-0.743-1.045-1.168-1.644
	c-0.309,0.046-0.67,0.102-1.188,0.18c0.485,0.797,0.85,1.397,1.254,2.058c-0.385,0.359-0.713,0.666-1.032,0.967
	c-0.959-0.467-1.419-1.804-2.993-1.377c0.682,0.846,1.221,1.517,1.88,2.339c-0.428,0.319-0.816,0.611-1.252,0.936
	c-0.718-0.371-0.86-1.566-1.902-1.602c-0.202-0.008-0.415,0.22-0.741,0.407c0.59,0.754,1.127,1.438,1.717,2.191
	c-0.422,0.398-0.809,0.764-1.173,1.107c-0.511-0.627-0.959-1.179-1.478-1.817c-0.384,0.077-0.756,0.151-1.173,0.235
	c0.279,1.119,1.138,1.477,1.944,2.048c-0.557,0.5-1.044,0.939-1.537,1.384c-0.978-0.502-1.187-2.314-2.998-1.44
	c0.73,0.789,1.344,1.454,2.062,2.231c-0.436,0.376-0.855,0.741-1.311,1.134c-0.398-0.438-0.73-0.803-1.104-1.215
	c-0.346,0.143-0.64,0.262-0.96,0.394c0.11,0.827,0.673,1.197,1.386,1.642c-0.532,0.542-1.012,1.028-1.512,1.535
	c-0.381-0.297-0.677-0.527-1.045-0.813c-0.276,0.114-0.564,0.232-0.962,0.396c0.33,0.516,0.591,0.928,0.964,1.507
	c-0.271,0.22-0.558,0.453-0.822,0.667c-0.606-0.026-1.219-0.571-1.684,0.275c0.116,0.242,0.256,0.53,0.394,0.815
	c-0.09,0.131-0.147,0.249-0.235,0.333c-2.002,1.903-3.649,4.079-5.128,6.412c-1.231,1.948-2.048,4.07-2.942,6.166
	c-0.132,0.31-0.252,0.638-0.446,0.907c-1.194,1.653-1.322,3.51-1.16,5.458c0.11,1.301,0.098,2.614,0.128,3.921
	c0.042,1.768,0.074,3.536,0.105,5.304c0.003,0.205-0.027,0.41-0.054,0.765c-2.04,0.328-4.066,0.652-6.228,0.998
	c-0.326-1.464-0.055-2.776,0.228-4.084c0.311-1.441,0.629-2.881,0.981-4.313c0.146-0.602,0.389-1.182,0.589-1.771
	c0.163-0.478,0.331-0.953,0.517-1.489c-1.073-0.805-0.561-2.492-1.913-3.209c-0.318,0.45-0.362,0.874-0.303,1.413
	c0.284,2.51,0.224,5.019-0.872,7.345c-0.997,2.121-1.234,4.371-1.46,6.747c-0.313,0.08-0.661,0.169-1.037,0.266
	c-0.098-0.233-0.216-0.384-0.216-0.533c0.01-1.567,0.168-3.115,0.689-4.607c1.016-2.918,1.625-5.871,0.843-8.963
	c-0.1-0.39-0.015-0.827-0.015-1.328c-0.861-2.278-1.755-4.644-2.656-7.029c0.357-0.304,0.637-0.543,1.015-0.864
	c-0.478-0.212-0.879-0.39-1.395-0.617c-0.058-0.286-0.13-0.635-0.207-1.01c0.832-0.182,1.563-0.342,2.297-0.502
	c0.003-0.089,0.008-0.179,0.012-0.267c-0.332-0.06-0.667-0.112-0.997-0.179c-0.352-0.071-0.698-0.156-1.16-0.26
	c0.19-0.364,0.299-0.57,0.391-0.745c0.761-0.092,1.455-0.177,2.152-0.262c0.01-0.093,0.021-0.186,0.03-0.279
	c-0.438-0.162-0.876-0.323-1.433-0.528c0.129-0.36,0.247-0.689,0.354-0.982c0.742-0.057,1.391-0.106,2.042-0.156
	c0.013-0.084,0.027-0.169,0.041-0.253c-0.464-0.228-0.931-0.456-1.478-0.723c0.193-0.402,0.368-0.767,0.556-1.162
	c0.812,0,1.582,0,2.354,0c0.013-0.061,0.028-0.123,0.042-0.185c-0.619-0.303-1.239-0.605-1.923-0.938
	c0.059-0.243,0.109-0.465,0.188-0.799c0.818,0,1.586,0,2.354,0c0.018-0.099,0.034-0.197,0.052-0.294
	c-0.652-0.199-1.306-0.397-2.024-0.617c0.018-0.286,0.033-0.559,0.055-0.917c0.47-0.05,0.88-0.093,1.29-0.137
	c1.361-0.146,2.482-0.72,3.395-1.766c1.551-1.782,3.188-3.492,4.698-5.306c0.608-0.729,1.1-1.61,1.425-2.501
	c0.499-1.365-0.046-2.643-0.634-3.89c-0.613-1.299-1.19-2.615-1.733-3.945c-0.389-0.952-0.26-1.908,0.182-2.829
	c0.893-1.864,2.715-2.194,4.255-0.786c1.036,0.951,2.191,1.574,3.681,1.233c0.91-0.208,1.651-0.634,2.143-1.445
	c0.98-1.615,1.636-3.333,1.73-5.245c0.059-1.227,0.139-2.454,0.275-3.674c0.23-2.086,1.283-3.82,2.445-5.502
	c0.912-1.32,1.793-2.661,2.695-3.987c0.896-1.321,1.279-2.844,1.704-4.345c0.192-0.683,0.065-1.344-0.505-2.057
	c-1.726-0.619-3.971-0.407-5.492-2.305c0-0.688,0-1.519,0-2.272c0.714-0.823,1.375-1.583,1.956-2.252
	c-0.021-2.612-0.407-3.046-3.414-3.861c0.317-0.169,0.53-0.313,0.764-0.401c2.141-0.807,4.326-0.64,6.51-0.238
	c2.618,0.484,5.231,0.993,7.846,1.503c0.237,0.046,0.462,0.171,0.796,0.3c-0.101,0.597-0.19,1.167-0.293,1.734
	c-0.342,1.897,0.506,3.346,2.299,3.975c1.71,0.601,3.382,0.529,5.047-0.178c2.216-0.941,4.429-1.895,6.67-2.775
	c0.695-0.274,1.471-0.426,2.22-0.469c2.079-0.121,3.077,0.605,3.567,2.475c-0.135,1.436-0.922,2.645-2.066,3.653
	c-1.059,0.934-2.019,1.907-2.353,3.37c-0.343,1.527,0.095,2.756,1.523,3.351c1.963,0.815,2.848,2.521,2.329,4.86
	c-0.813,3.671-1.569,7.361-2.164,11.073c-0.541,3.388-0.857,6.824,0.008,10.219c0.237,0.925,0.657,1.837,1.16,2.65
	c1.254,2.023,2.641,3.959,5.036,4.787c2.557,0.882,5.104,1.787,7.896,1.487c2.269-0.245,4.359-0.905,6.333-2.073
	c1.722-1.019,3.165-2.243,3.998-4.09c0.348-0.771,0.713-1.547,0.927-2.358c0.133-0.5,0.058-1.082-0.029-1.61
	c-0.205-1.25-0.453-2.495-0.722-3.733c-0.252-1.161,0.103-2.106,0.992-2.828c0.618-0.502,1.29-0.952,1.983-1.343
	c1.165-0.658,1.535-1.187,1.228-2.463c-0.367-1.505-0.893-2.972-1.418-4.687c0.119-0.152,0.332-0.625,0.695-0.837
	c1.016-0.593,2.083-1.105,3.152-1.598c0.69-0.318,1.448-0.491,2.121-0.834c0.39-0.198,0.68-0.596,0.994-0.924
	c0.113-0.117,0.145-0.312,0.251-0.438c1.565-1.844,0.993-3.709,0.018-5.544c-0.604-1.135-1.118-2.266-1.101-3.592
	c0.014-1.168,0.455-2.138,1.218-2.981c0.967-1.066,1.939-2.127,2.923-3.179c2.061-2.202,2.962-4.765,2.488-7.779
	c-0.117-0.749-0.176-1.507-0.263-2.254c5.982-2.215,15.407,0.553,19.213,5.233c0.397,1.852,0.573,3.562,1.156,5.118
	C142.774,66.452,144.392,67.319,145.77,68.531z M73.292,79.135c0-0.296-0.007-0.592,0-0.889c0.04-1.893-1.865-4.299-3.711-4.607
	c-2.205-0.369-4.384-0.023-6.551,0.357c-0.319,0.056-0.65,0.231-0.9,0.439c-1.147,0.952-2.23,2.009-2.764,3.413
	c-1.017,2.682-2.008,5.383-2.818,8.131c-0.705,2.388-1.072,4.855-0.82,7.379c0.141,1.393,0.933,2.243,2.117,2.765
	c1.232,0.542,2.408,0.589,3.521-0.441c1.428-1.316,2.909-2.586,4.452-3.761c2.355-1.792,4.282-3.986,5.714-6.515
	C72.599,83.521,73.472,81.44,73.292,79.135z M127.819,130.386c0.605,0.545,1.148,1.079,1.735,1.555
	c1.479,1.195,3.194,1.522,5.01,1.134c0.883-0.19,1.708-0.632,1.991-1.6c-0.407-0.591-0.799-0.42-1.275-0.245
	c-1.449,0.535-2.877,0.51-4.289-0.355c-0.127-1.531,0.452-3.055,0.01-4.688c-1.129,1.136-0.606,2.711-1.53,4.035
	c-0.207-0.532-0.444-0.881-0.461-1.242c-0.032-0.668,0.071-1.342,0.106-2.015c0.021-0.422,0.274-0.89-0.232-1.312
	C127.69,127.1,127.897,128.771,127.819,130.386z M27.754,127.825c-0.46,1.11,0.022,2.559,1.167,3.55
	c1.717,1.488,4.023,1.92,5.513,1.033c-0.554-0.523-1.103-1.047-1.732-1.646c-0.485-0.1-1.245,0.439-1.706-0.425
	c0.299-0.357,0.604-0.724,0.899-1.078c-0.842-0.803-1.742,0.738-2.589-0.223c0.367-0.395,0.692-0.747,1.124-1.211
	C29.421,127.825,28.584,127.825,27.754,127.825z"/>
<path fill-rule="evenodd" clip-rule="evenodd" fill="#faf0e5" class="fill" d="M172.943,86.639c-0.114,2.214-1.115,4.046-2.018,5.885
	c-0.991,2.018-1.048,4.149-1.101,6.306c-0.035,1.445-0.314,2.84-0.928,4.292c-0.322-0.238-0.592-0.41-0.828-0.618
	c-1.099-0.962-2.389-1.35-3.834-1.443c-1.645-0.106-3.278-0.353-4.92-0.512c-2.452-0.236-4.843-0.172-6.868,1.721
	c-1.003-0.814-1.895-1.54-2.239-2.841c-0.377-1.425-0.905-2.818-1.468-4.184c-0.213-0.518-0.614-1.114-1.089-1.342
	c-1.722-0.825-1.92-2.291-1.695-3.857c0.112-0.8,0.561-1.579,0.981-2.295c0.184-0.314,0.663-0.473,1.035-0.65
	c0.177-0.085,0.417-0.038,0.626-0.064c2.283-0.287,3.435-1.335,3.961-3.604c0.027-0.122,0.02-0.256,0.062-0.371
	c0.306-0.853,0.519-1.715,0.009-2.558c-0.684-1.125-1.621-2.034-2.934-2.249c-1.439-0.235-2.929-0.615-4.59,0.266
	c0.184-0.831,0.32-1.456,0.482-2.181c-0.152-0.17-0.369-0.413-0.553-0.621c-0.658,0.048-1.236,0.092-1.699,0.127
	c-2.748-2.299-5.645-4.012-9.107-4.414c-1.892-0.22-3.661,0.511-5.364,1.306c-0.55,0.256-1.115,0.474-1.886,0.796
	c0.167-0.378,0.183-0.525,0.265-0.586c1.89-1.394,3.868-2.604,6.276-2.851c0.375-0.037,0.76,0.01,1.137,0.042
	c2.847,0.233,5.562,1.036,8.289,1.821c0.793,0.228,1.648,0.234,2.596,0.357c0.671-1.113,1.296-2.154,1.977-3.288
	c2.03-0.634,3.213-2.374,4.394-3.92c5.193-1.274,10.318-1.153,15.356-0.858c0.7,1.127,1.267,2.117,1.908,3.053
	c0.693,1.006,1.752,1.43,2.992,1.592c0.418,0.486,0.855,0.996,1.376,1.602c0.313-0.028,0.698,0.003,1.04-0.104
	c1.047-0.328,2.123-0.619,3.109-1.088c2.038-0.972,4.175-0.984,6.342-0.827c2.243,0.161,5.027,1.056,6.786,2.178
	c-0.392,0.056-0.668,0.16-0.923,0.12c-1.291-0.199-2.579-0.434-3.867-0.66c-1.035-0.18-2.067-0.5-3.104-0.516
	c-2.044-0.033-4.037,0.355-5.943,1.139c-1.408,0.579-2.111,1.676-2.227,3.11c-0.175,2.143-1.269,3.812-2.549,5.411
	c-0.098,0.124-0.271,0.19-0.483,0.334c-1.236-0.996-2.771-1.127-4.256-1.4c-0.369-0.067-0.762-0.043-1.141-0.017
	c-1.323,0.095-2.123,0.823-2.27,2.12c-0.137,1.177-0.244,2.359-0.306,3.542c-0.084,1.565,0.687,2.634,2.166,3.202
	c1.938,0.745,3.798,0.644,5.611-0.384C171.966,86.412,172.438,86.139,172.943,86.639z"/>
<path fill-rule="evenodd" clip-rule="evenodd" fill="#faf0e5" class="fill" d="M167.515,110.057c-1.37,0.725-2.906,0.798-4.412,0.868
	c-3.552,0.167-7.092-0.028-10.752-0.573c-0.285-2.108-0.499-4.206,0.959-6.084c0.701-0.905,1.611-1.53,2.714-1.743
	c1.025-0.198,2.089-0.252,3.136-0.292c1.178-0.044,2.358-0.036,3.533,0.02c0.63,0.03,1.26,0.174,1.873,0.327
	c2.02,0.506,3.297,2.371,3.111,4.438C167.591,107.976,167.572,108.94,167.515,110.057z M157.347,108.173
	c-0.883-1.889-2.536-2.989-4.146-2.722c0,0.38,0,0.777,0,1.279c0.328,0.182,0.676,0.52,1.041,0.542
	c0.729,0.046,1.265,0.383,1.793,0.809C156.41,108.382,156.808,108.608,157.347,108.173z M161.852,108.249
	c0.543,0.629,1.106,0.682,1.786,0.31c0.256-0.698,0.522-1.426,0.758-2.068c1.598-0.386,1.598-0.386,1.443-1.234
	C163.932,105.247,162.271,106.471,161.852,108.249z"/>
<path fill-rule="evenodd" clip-rule="evenodd" fill="#faf0e5" class="fill" d="M118.274,147.808c-1.504,0.203-2.869,0.389-4.369,0.591
	c0.135-1.186,0.256-2.175,0.356-3.166c0.102-0.965,0.203-1.931,0.258-2.899c0.011-0.193-0.187-0.396-0.347-0.708
	c-1.561,2.121-0.832,4.708-1.929,6.802c0-0.235-0.031-0.474,0.004-0.704c0.491-3.213,0.983-6.426,1.498-9.636
	c0.065-0.422,0.253-0.829-0.296-1.058c-0.927,1.031-2.482,8.218-2.546,11.803c-0.229,0.084-0.484,0.178-0.769,0.283
	c-0.077-0.174-0.176-0.287-0.164-0.386c0.215-1.759,0.469-3.513,0.66-5.275c0.236-2.172,0.756-4.326,0.481-6.54
	c-0.043-0.364,0.044-0.745,0.082-1.295c2.898-0.071,5.701-0.221,8.017,2.174c-0.219,0.571-0.35,1.213-0.684,1.722
	c-0.625,0.951-0.721,1.953-0.631,3.036C118.041,144.234,118.142,145.919,118.274,147.808z"/>
<path fill-rule="evenodd" clip-rule="evenodd" fill="#faf0e5" class="fill" d="M125.354,76.25c0.253-0.176,0.559-0.387,0.85-0.591
	c0.423,0.062,0.793,0.116,1.196,0.174c0.256-0.103,0.528-0.215,0.8-0.323c1.735-0.692,3.457-1.033,5.249-0.103
	c0.535,0.278,1.199,0.311,1.899,0.478c-0.301,1.648,0.846,2.056,2.089,2.399c0.157,0.385,0.311,0.759,0.482,1.179
	c-1.744,0.989-3.538,1.248-5.411,1.188c-2.281-0.074-4.438-0.493-6.175-2.145C125.712,77.913,125.108,77.327,125.354,76.25z"/>
<path fill-rule="evenodd" clip-rule="evenodd" fill="#faf0e5" class="fill" d="M38.912,154.662c-2.156,0.215-4.165,0.57-6.278,0.642
	c-0.222-1.374-0.42-2.597-0.637-3.93c-0.414,0.129-0.633,0.197-0.924,0.287c0.162,1.149,0.314,2.259,0.466,3.342
	c-0.646,0.445-0.995,0.151-1.13-0.348c-0.184-0.688-0.255-1.407-0.365-2.114c-0.051-0.318-0.075-0.639-0.129-1.114
	c-0.366,0.212-0.592,0.342-0.789,0.457c0.085,1.118,0.165,2.154,0.245,3.204c-0.694,0.137-0.845-0.22-0.865-0.69
	c-0.02-0.464,0.013-0.931-0.023-1.394c-0.024-0.3-0.136-0.593-0.356-0.886c-0.727,0.91-0.035,2.015-0.498,2.992
	c-0.21-0.012-0.443-0.027-0.686-0.041c0-1.288,0-2.494,0-3.616c3.387-1.175,6.75-1.855,10.229-2.131
	C38.053,151.014,38.489,152.749,38.912,154.662z"/>
<path fill-rule="evenodd" clip-rule="evenodd" fill="#faf0e5" class="fill" d="M57.769,152.144c-0.303-0.102-0.418-0.167-0.537-0.174
	c-0.12-0.006-0.241,0.046-0.362,0.072c-0.614,0.739-0.069,1.553-0.182,2.385c-1.144-0.102-0.374-1.223-1.048-1.718
	c-0.146,0.012-0.447,0.038-0.818,0.069c0.025,0.5,0.047,0.9,0.069,1.307c-0.789-0.112-0.842-0.24-0.692-1.716
	c3.506-0.999,6.405-3.459,10.145-4.443c0.971,2.152,1.91,4.244,2.913,6.469c-2.562,0-5.048,0-7.678,0c0-1.089,0-2.119,0-3.295
	c-0.471,0.146-0.769,0.237-1.162,0.359c0.054,1.009,0.106,1.951,0.16,2.957c-0.31,0-0.502,0-0.808,0
	C57.769,153.668,57.769,152.934,57.769,152.144z"/>
<path fill-rule="evenodd" clip-rule="evenodd" fill="#faf0e5" class="fill" d="M182.806,79.638c-0.114-1.138-0.207-2.048-0.297-2.958
	c0.387-0.287,0.686-0.51,1.045-0.778c0.111-0.331,0.245-0.727,0.44-1.303c0.53-0.028,1.099-0.085,1.667-0.081
	c0.887,0.007,1.775,0.093,2.66,0.079c0.944-0.015,1.733-0.436,2.262-1.212c0.645-0.947,1.525-1.562,2.58-2.063
	c0.395,0.171,0.815,0.355,1.372,0.598c-1.939,2.222-3.306,4.833-5.915,6.273C186.858,79.164,184.935,79.549,182.806,79.638z"/>
<path fill-rule="evenodd" clip-rule="evenodd" fill="#faf0e5" class="fill" d="M130.55,153.852c-0.246,0.037-0.409,0.08-0.572,0.081
	c-0.158,0-0.318-0.042-0.57-0.08c0.123-1.073,0.242-2.103,0.385-3.34c2.712-0.522,5.3-1.83,8.227-2.056
	c0.679,1.932,1.327,3.779,2.069,5.895c-1.833-0.123-3.403-0.228-5.003-0.333c-0.17-0.92-0.312-1.697-0.472-2.557
	c-0.312,0.118-0.566,0.215-0.819,0.312c0,0.681,0,1.291,0,2.11c-0.807-0.942,0.092-1.886-0.46-2.702
	c-0.178,0.025-0.409,0.058-0.729,0.104c-0.072,0.787-0.14,1.533-0.216,2.38c-0.209,0.036-0.464,0.079-0.899,0.152
	c0.062-1.014,0.112-1.898,0.166-2.809C130.572,151.185,130.572,151.185,130.55,153.852z"/>
<path fill-rule="evenodd" clip-rule="evenodd" fill="#faf0e5" class="fill" d="M118.446,148.831c0.451,1.532,0.879,2.973,1.358,4.595
	c-1.847,0-3.549,0-5.36,0c0-0.92,0-1.777,0-2.727c-0.348-0.021-0.604-0.036-0.988-0.06c-0.05,0.868-0.094,1.652-0.143,2.516
	c-0.271,0.047-0.532,0.091-0.922,0.159c0-0.913,0-1.73,0-2.623c-0.338-0.016-0.569-0.026-0.917-0.042
	c-0.1,0.869-0.193,1.69-0.296,2.596c-0.295,0-0.553,0-0.891,0c0-0.858,0-1.641,0-2.485c-0.307,0-0.535,0-0.893,0
	c0,0.79,0,1.529,0,2.39c-0.359,0.024-0.65,0.043-1.033,0.068c0-0.904,0-1.688,0-2.577
	C111.615,149.551,114.999,149.264,118.446,148.831z"/>
<path fill-rule="evenodd" clip-rule="evenodd" fill="#faf0e5" class="fill" d="M57.046,144.288c1.674-0.847,3.468-0.746,5.267-1.013
	c0.305,1.281,0.597,2.516,0.896,3.779c-2.018,0.931-4.129,1.906-6.259,2.887C56.586,148.586,56.64,145.714,57.046,144.288z"/>
<path fill-rule="evenodd" clip-rule="evenodd" fill="#faf0e5" class="fill" d="M151.48,64.046c-1.219,1.391-2.206,2.801-3.64,3.815
	c-0.65-0.511-0.348-0.886-0.048-1.253c0.285-0.349,0.579-0.689,0.889-1.055c-0.917-0.442-0.917-0.442-2.462,1.172
	c-0.155-0.112-0.314-0.229-0.561-0.409c0.438-0.664,0.848-1.287,1.255-1.903c-0.674-0.607-0.674-0.607-2.147,1.117
	c-0.279-0.201-0.564-0.408-0.92-0.666c0.248-0.371,0.438-0.689,0.658-0.984c0.22-0.293,0.468-0.565,0.74-0.893
	c-0.987-0.77-1.398,0.215-1.979,0.534c-0.152-0.465-0.152-0.465,1.112-2.144c-0.119-0.14-0.248-0.29-0.403-0.471
	c-0.38,0.125-0.728,0.24-1.097,0.361c-0.457-0.919,0.736-0.921,0.793-1.625c-0.306-0.14-0.628-0.29-0.978-0.452
	c-0.211-0.624-0.383-1.252,0.258-1.897c0.173,0.218,0.371,0.356,0.403,0.527c0.39,2.049,2.026,2.92,3.61,3.817
	C148.394,62.444,149.858,63.184,151.48,64.046z"/>
<path fill-rule="evenodd" clip-rule="evenodd" fill="#faf0e5" class="fill" d="M175.433,62.221c-0.239,0.355-0.442,0.657-0.616,0.916
	c-0.681,0.03-1.149-0.787-1.984-0.168c0.474,0.391,0.898,0.74,1.354,1.115c-0.156,0.289-0.293,0.541-0.417,0.769
	c-0.958,0.104-1.223-1.487-2.396-0.91c0.27,0.878,1.038,1.151,1.668,1.666c-0.254,0.291-0.493,0.563-0.808,0.919
	c-0.488-0.518-0.914-0.971-1.4-1.485c-0.232,0.077-0.487,0.161-0.948,0.313c0.577,0.623,1.047,1.129,1.572,1.695
	c-0.192,0.176-0.359,0.329-0.613,0.562c-1.578-1.415-2.539-3.022-2.605-5.195c1.763-0.451,3.429-0.822,4.906-1.832
	c1.479-1.01,2.604-2.204,3.051-4.106c0.648,1.063,0.667,1.229,0.376,2.702c-0.284,0.172-0.591,0.36-0.942,0.573
	c0.203,0.279,0.37,0.509,0.58,0.798c-0.1,0.193-0.208,0.406-0.293,0.571c-0.582,0.252-1.172-0.708-1.697,0.244
	C174.573,61.617,174.936,61.873,175.433,62.221z"/>
<path fill-rule="evenodd" clip-rule="evenodd" fill="#faf0e5" class="fill" d="M152.444,111.417c5.055,0.372,9.784,0.966,14.558,0.023
	c-0.598,1.885-1.661,2.785-3.351,2.852c-2.619,0.106-5.24,0.088-7.803-0.521c-0.837-0.198-1.629-0.667-2.381-1.114
	C153.118,112.449,152.911,112.001,152.444,111.417z"/>
<path fill-rule="evenodd" clip-rule="evenodd" fill="#faf0e5" class="fill" d="M150.569,80.997c0.122,0.155,0.214,0.246,0.273,0.354
	c0.457,0.827,0.917,1.694,0.278,2.597c-0.669,0.947-1.684,1.243-2.795,1.107c-0.525-0.065-1.028-0.299-1.468-0.434
	C146.285,82.202,147.703,80.86,150.569,80.997z M149.223,83.846c0.37-0.19,0.151-0.93,0.058-1.065
	c-0.158-0.227-0.705,0.066-1.125,0.594C148.388,84.003,148.749,84.093,149.223,83.846z"/>
<path fill-rule="evenodd" clip-rule="evenodd" fill="#faf0e5" class="fill" d="M170.441,84.886c-1.458,0.726-2.831,0.991-4.176-0.279
	c-0.128-2.183,1.736-2.141,2.968-2.744C170.657,82.381,170.965,83.135,170.441,84.886z M167.968,83.5
	c-0.085,0.811,0.295,1.084,1.188,0.969C169.28,83.281,168.624,83.218,167.968,83.5z"/>
<path fill-rule="evenodd" clip-rule="evenodd" fill="#faf0e5" class="fill" d="M54.481,145.856c0.626,1.534,0.523,3.171,0.656,4.8
	c-0.139,0.122-0.245,0.26-0.388,0.329c-0.138,0.07-0.311,0.071-0.462,0.101c-0.108-0.126-0.249-0.215-0.26-0.315
	c-0.121-1.376-0.256-2.753-0.312-4.134c-0.015-0.291,0.268-0.595,0.415-0.892C54.247,145.781,54.364,145.818,54.481,145.856z"/>
</svg>
