<svg version="1.1" id="svg" xmlns="http://www.w3.org/2000/svg" xmlns:xlink="http://www.w3.org/1999/xlink" x="0px" y="0px"
	 width="200px" height="200px" viewBox="0 0 200 200" enable-background="new 0 0 200 200" xml:space="preserve">
<path class="stroke" fill="#324c2a"  d="M143.315,66.9c-0.89-2.066-2.739-2.85-4.784-3.247c-1.104-0.215-2.23-0.329-3.351-0.446
	c-0.412-0.043-0.893-0.086-1.245,0.078c-1.126,0.521-2.28,0.737-3.58,0.556c-0.751,0.702-1.624,0.769-2.521,0.799
	c-0.416,0.014-0.852,0.059-1.238,0.199c-1.26,0.455-2.521,0.913-3.741,1.459c-0.928,0.416-1.862,0.618-2.87,0.573
	c-0.632-0.028-1.266-0.005-1.907-0.005c-0.589,0.485-1.119,1.124-1.799,1.44c-1.371,0.637-2.812,1.126-4.339,1.309
	c-0.434,0.051-0.885,0.235-1.255,0.473c-1.372,0.877-2.741,1.713-4.44,1.79c-0.67,0.031-1.346,0.167-1.811,0.74
	c-0.602,0.743-1.39,1.163-2.287,1.451c-0.602,0.193-1.166,0.499-1.747,0.754c-0.806,0.353-1.583,0.71-2.524,0.667
	c-0.713-0.033-1.461-0.001-2.115,0.506c-1.141,0.884-2.391,1.631-3.504,2.546c-0.707,0.581-1.416,0.808-2.314,0.814
	c-1.521,0.011-2.732,0.632-3.398,2.097c-0.173,0.379-0.41,0.729-0.594,1.048c-0.615,0.094-1.139,0.18-1.664,0.252
	c-0.891,0.123-1.57,0.549-2.096,1.293c-0.254,0.358-0.624,0.659-0.996,0.903c-0.469,0.308-0.992,0.53-1.421,0.752
	c-0.946,0.073-1.937-0.255-2.583,0.539c-0.543,0.667-0.928,1.464-1.362,2.173c-0.46,0.04-0.869,0.075-1.291,0.111
	c-0.083,0.397-0.146,0.7-0.228,1.09c-2.532,1.704-4.389,4.107-6.071,6.655c-1.231,1.863-2.415,3.783-2.795,6.021
	c-0.514,3.034-0.771,6.104-0.768,9.185c0.002,1.212,0.435,2.277,1.411,3.075c0.794,0.649,1.601,1.287,2.346,1.988
	c1.598,1.501,3.53,2.391,5.616,2.813c1.958,0.396,3.95,0.615,5.994,0.401c2.526-0.265,5.04-0.459,7.435-1.417
	c1.307-0.522,2.664-0.918,3.997-1.375c1.099-0.377,2.207-0.732,3.293-1.146c1.085-0.414,2.136-0.913,3.22-1.328
	c1.354-0.519,2.688-1.054,3.9-1.878c0.541-0.367,1.203-0.549,1.792-0.852c0.495-0.255,0.985-0.531,1.439-0.851
	c1.731-1.218,3.409-2.516,5.186-3.662c0.749-0.483,1.479-0.943,2.089-1.597c0.232-0.249,0.518-0.485,0.826-0.618
	c0.774-0.333,1.597-0.559,2.36-0.912c1.257-0.581,2.411-1.323,3.308-2.413c0.422-0.514,0.867-1.009,1.227-1.424
	c0.67-0.153,1.24-0.284,1.811-0.415c0.424-0.837,0.87-1.579,1.479-2.145c2.095-1.945,4.188-3.896,6.616-5.442
	c0.311-0.198,0.517-0.562,0.763-0.856c0.563-0.675,1.103-1.372,1.688-2.028c1.152-1.291,2.383-2.515,3.473-3.855
	c0.565-0.696,1.123-1.365,1.889-1.821c0.779-0.464,1.279-1.144,1.493-1.982c0.22-0.862,0.694-1.533,1.252-2.18
	c0.461-0.536,0.954-1.051,1.356-1.629c0.438-0.633,0.872-1.295,1.158-2.005c0.638-1.587,0.812-3.271,0.871-4.975
	C144.013,69.547,143.863,68.173,143.315,66.9z"/>
<path fill-rule="evenodd" clip-rule="evenodd" fill="#d5ee20" class="fill" d="M130.978,81.341c-1.361,1.827-3.09,3.097-4.883,4.31
	c-0.902,0.609-1.688,1.389-2.536,2.081c-1.073,0.876-2.249,1.56-3.546,2.081c-1.074,0.432-2.073,1.052-3.104,1.594
	c-0.311,0.164-0.611,0.344-1,0.563c-0.938-0.768-1.9-0.601-2.768,0.125c-0.57,0.477-0.896,1.103-0.443,1.914
	c-0.346,0.216-0.627,0.423-0.934,0.579c-2.172,1.1-4.354,2.179-6.521,3.286c-1.164,0.594-2.292,1.259-3.465,1.834
	c-0.457,0.224-0.984,0.361-1.492,0.412c-1.199,0.117-2.215,0.701-3.266,1.194c-0.859,0.403-1.697,0.853-2.508,1.262
	c-0.45-0.486-0.868-0.938-1.225-1.324c-1.576-0.074-2.209,0.49-2.355,1.898c-0.056,0.542-0.228,1.071-0.357,1.651
	c-1.864,0.863-3.646,1.714-5.45,2.513c-1.804,0.798-3.562,1.711-5.531,2.095c-1.023,0.2-1.966,0.242-2.78-0.606
	c-0.145-0.318-0.305-0.669-0.532-1.171c-0.605-0.101-1.278-0.213-2.019-0.336c0.099-0.893,0.104-1.788-0.457-2.649
	c-0.485-0.022-0.965-0.043-1.568-0.071c0.17-0.872,0.327-1.677,0.465-2.385c-0.346-0.542-0.723-0.456-1.105-0.321
	c-1.006,0.354-1.759,1.003-2.323,1.912c-0.343,0.55-0.772,1.047-1.276,1.722c-0.361-1.088-0.346-1.978-0.141-2.808
	c0.773-3.135,1.806-6.159,3.829-8.765c1.927-2.482,4.071-4.661,6.983-6.007c1.564-0.723,3.045-1.628,4.578-2.423
	c0.434-0.225,0.936-0.317,1.38-0.525c1.756-0.821,3.499-1.67,5.253-2.497c2.453-1.157,4.912-2.301,7.367-3.457
	c0.959-0.451,1.903-0.932,2.866-1.373c2.825-1.293,5.664-2.558,8.481-3.868c1.085-0.504,2.096-1.174,3.195-1.637
	c1.198-0.504,2.474-0.819,3.688-1.285c2.074-0.794,4.128-1.638,6.188-2.466c0.688-0.277,1.368-0.574,2.055-0.853
	c2.785-1.132,5.606-2.162,8.631-2.409c1.092-0.089,2.158-0.299,3.232-0.425c0.833-0.097,1.754,0.154,2.57,0.438
	c0.857,0.299,1.638,0.818,2.448,1.248c0.831,0.44,1.333,1.136,1.575,2.105c-0.143,0.66-0.297,1.375-0.473,2.187
	c-1.736-0.582-3.008,0.26-4.212,1.215c-2.601,2.065-5.174,4.165-7.757,6.252c-0.516,0.417-0.908,0.888-0.607,1.765
	c0.362-0.022,0.737,0.016,1.08-0.074c1.521-0.401,2.658-1.421,3.804-2.425c1.673-1.468,3.335-2.949,5.036-4.384
	c0.493-0.416,1.006-0.886,1.865-0.921c-0.235,0.581-0.437,1.08-0.708,1.751c-1.141,0.82-2.393,1.737-3.664,2.628
	c-1.112,0.779-2.063,1.698-2.782,2.863C133.127,80.378,132.295,81.167,130.978,81.341z M92.622,91.503
	c0.266,0.627,0.814,0.624,1.269,0.527c1.376-0.294,2.8-0.512,4.089-1.044c3.453-1.426,6.482-3.58,9.296-6.001
	c1.374-1.182,2.79-2.263,4.348-3.176c0.685-0.401,1.333-0.865,1.982-1.29c-0.313-0.685-0.757-0.502-1.152-0.399
	c-2.131,0.552-4.162,1.354-6.022,2.538c-2.055,1.309-4.049,2.716-6.139,3.963c-1.999,1.193-4.08,2.25-6.141,3.338
	C93.468,90.319,92.97,90.811,92.622,91.503z M135.671,68.819c-1.146-0.773-2.015-0.895-2.9-0.4
	c-1.632,0.913-3.312,1.762-4.853,2.813c-2.589,1.766-5.54,2.793-8.263,4.28c-1.014,0.554-2.082,1.052-2.601,2.122
	c0.046,0.687,0.426,0.936,1.03,1.038c0.23-0.148,0.514-0.295,0.757-0.492c1.251-1.018,2.646-1.729,4.206-2.162
	c0.775-0.214,1.526-0.555,2.249-0.918c1.729-0.868,3.433-1.788,5.151-2.677c1.594-0.824,3.193-1.635,4.77-2.441
	C135.382,69.561,135.519,69.209,135.671,68.819z M78.358,91.578c2.414-1.474,4.822-2.931,7.215-4.414
	c0.609-0.378,1.279-0.731,1.533-1.475c-0.357-0.487-0.771-0.371-1.166-0.195c-1.315,0.586-2.654,1.13-3.926,1.8
	c-1.686,0.887-3.242,1.98-4.544,3.393c-0.243,0.264-0.601,0.509-0.44,1.03C77.485,91.669,77.926,91.624,78.358,91.578z
	 M96.073,85.042c1.822,0.072,3.164-0.699,4.333-1.849c0.389-0.382,0.495-0.838,0.116-1.457c-1.947,0.042-3.387,1.182-4.892,2.335
	C95.788,84.417,95.915,84.695,96.073,85.042z M107.753,90.535c0.634,0.96,1.473,1.099,2.785,0.503
	c1.277-0.58,1.789-1.31,1.551-2.212C110.434,88.098,108.708,88.76,107.753,90.535z M85.858,89.881
	c-1.176,0.187-1.901,0.805-2.414,1.688c-0.221,0.381-0.264,0.88,0.09,1.178c0.26,0.218,0.726,0.39,1.034,0.314
	c0.995-0.244,1.885-0.72,2.582-1.724C86.721,90.852,86.317,90.397,85.858,89.881z M84.239,103.147
	c0.497,0.788,0.549,0.877,1.111,0.791c1.314-0.203,2.57-0.57,3.449-1.651c-0.039-0.838-0.709-0.772-1.172-0.831
	C86.159,101.268,85.225,102.194,84.239,103.147z M97.718,97.197c-0.695-0.855-1.717-0.905-2.975-0.144
	c-0.859,0.52-1.057,0.994-0.723,1.734C95.481,99.041,96.68,98.525,97.718,97.197z M88.981,90.053
	c1.176-0.675,2.761-0.537,3.044-2.194c-1.177-0.94-2.899-0.222-3.903,1.644C88.386,89.672,88.659,89.847,88.981,90.053z
	 M127.868,81.328c-0.474-0.961-0.83-1.095-1.641-0.638c-0.337,0.19-0.666,0.397-0.986,0.614c-0.392,0.267-0.692,0.596-0.645,1.114
	C125.474,82.999,126.907,82.532,127.868,81.328z M105.271,79.064c0.602,1.057,1.844,0.831,3.209-0.587
	C107.708,77.139,106.483,77.363,105.271,79.064z M102.839,96.704c0.043,0.63,0.499,0.755,0.972,0.64
	c0.638-0.156,1.272-0.384,1.855-0.685c0.286-0.147,0.45-0.528,0.693-0.833C105.011,95.206,103.556,95.611,102.839,96.704z
	 M119.551,86.238c-0.749-1.206-1.681-1.02-3.261,0.532c0.104,0.186,0.213,0.386,0.318,0.577c0.508,0.038,0.959,0.071,1.432,0.106
	C118.536,87.054,119.022,86.663,119.551,86.238z M78.96,95.069c-0.309,0.315-0.664,0.678-0.992,1.015
	c0.555,1.039,1.419,0.837,2.277-0.411C79.87,95.153,79.87,95.153,78.96,95.069z M121.921,83.333
	c-0.371,0.227-0.649,0.396-0.902,0.551c0.156,0.687,0.529,0.875,1.036,0.702c0.222-0.076,0.382-0.329,0.625-0.553
	C122.392,83.768,122.196,83.587,121.921,83.333z M74.521,100.187c0.062-0.071,0.125-0.142,0.188-0.213
	c-0.045-0.182-0.089-0.363-0.149-0.609c-0.271,0.116-0.47,0.203-0.89,0.384C74.074,99.957,74.298,100.072,74.521,100.187z"/>
</svg>
