<svg version="1.1" id="svg" xmlns="http://www.w3.org/2000/svg" xmlns:xlink="http://www.w3.org/1999/xlink" x="0px" y="0px"
	 width="200px" height="200px" viewBox="0 0 200 200" enable-background="new 0 0 200 200" xml:space="preserve">
<path class="stroke" fill="#205165"  fill-rule="evenodd" clip-rule="evenodd" d="M87.673,70.552c2.412-0.312,4.898-0.634,7.476-0.969
	c0.366-1.942,1.663-2.716,3.63-2.948c-2.876-3.104-5.891-5.685-8.415-8.972c0.472-0.1,0.755-0.16,1.029-0.217
	c2.516,3.214,5.469,5.892,8.453,8.667c0.104-0.264,0.187-0.383,0.192-0.506c0.012-0.23-0.021-0.462-0.036-0.734
	c-0.321-0.249-0.645-0.499-0.976-0.756c0.107-0.548,0.204-1.045,0.314-1.605c-0.375-0.339-0.747-0.675-1.134-1.025
	c-0.088-1.469,1.36-2.031,1.922-3.194c-0.397-0.268-0.769-0.518-1.209-0.814c0.446-1.402,0.626-2.869,1.653-3.974
	c0.43-0.464,0.979-0.821,1.499-1.193c0.636-0.453,1.44-0.751,1.915-1.329c0.832-1.014,1.797-1.581,3.084-1.48
	c1.014,0.035,2.043,0.199,3.038,0.08c2.044-0.244,3.775,0.39,5.379,1.564c0.187,0.137,0.382,0.264,0.668,0.46
	c1.089-0.156,2.235-0.422,3.391-0.464c2.551-0.094,5.018,0.157,7.119,1.901c1.288,1.067,1.899,2.418,2.03,4.001
	c0.208,2.535-0.17,5.034-0.628,7.519c-0.032,0.173-0.171,0.326-0.351,0.653c-2.004-0.072-4.087,0.333-6.301-0.469
	c0.051-0.662,0.053-1.301,0.154-1.924c0.347-2.136-0.317-3.964-1.615-5.623c-0.431-0.552-0.906-0.774-1.689-0.293
	c0.635,2.272-1.008,4.147-1.189,6.333c-0.026,0.331-0.434,0.705-0.757,0.922c-0.696,0.466-1.449,0.842-2.137,1.23
	c0.872,1.118,1.852,2.165,2.579,3.365c0.773,1.275,0.432,2.726,0.12,4.274c0.442,0.243,0.888,0.602,1.394,0.745
	c3.18,0.896,5.636,2.899,7.888,5.174c1.376,1.392,2.7,2.861,3.872,4.427c1.763,2.354,3.974,3.979,6.837,4.587
	c3.756,0.796,6.926,2.729,9.877,5.024c1.277,0.992,2.341,2.298,3.354,3.577c2.104,2.651,4.827,4.297,7.924,5.566
	c3.363,1.377,6.616,3.026,9.897,4.599c2.797,1.342,5.315,3.11,7.727,5.059c1.343,1.083,2.413,2.324,3.138,3.857
	c1.645,0.168,3.021-1.096,4.663-0.788c0,0.338,0,0.516,0,0.854c-7.218,2.395-14.825,3.083-22.392,4.721
	c0.786,1.021,1.92,1.259,2.917,1.968c7.777-1.527,15.478-3.789,23.459-5.511c-0.026,0.55-0.04,0.851-0.051,1.089
	c-2.679,0.667-5.283,1.316-8.167,2.034c0.517,0.446,0.76,0.712,1.051,0.9c2.243,1.432,4.542,2.78,6.734,4.287
	c2.925,2.011,5.766,4.148,8.652,6.219c0.904,0.648,1.841,1.252,2.854,1.94c-0.136,0.335-0.264,0.651-0.402,0.994
	c-2.18-1.077-3.869-2.632-5.653-4.057c-2.304-1.841-4.755-3.446-7.309-4.932c-2.536-1.476-4.929-3.197-7.632-4.974
	c-8.969,2.157-18.346,3.921-27.783,6.517c0.544,0.565,0.893,0.988,1.301,1.342c1.589,1.376,3.188,2.737,4.797,4.089
	c4.037,3.399,8.08,6.791,12.125,10.182c0.468,0.393,0.994,0.748,0.242,1.573c-6.784-5.502-13.307-11.225-19.907-16.76
	c-2.05,0.569-3.921,1.15-5.824,1.603c-2.72,0.647-5.453,1.243-8.197,1.779c-3.843,0.75-7.7,1.418-11.548,2.139
	c-0.594,0.11-1.17,0.308-1.862,0.496c0.21,0.285,0.33,0.539,0.526,0.701c2.19,1.827,4.398,3.631,6.591,5.458
	c2.042,1.704,4.056,3.446,6.111,5.136c0.61,0.501,1.329,0.868,1.982,1.319c0.452,0.311,0.876,0.66,1.377,1.041
	c-0.21,0.351-0.36,0.603-0.576,0.959c-6.218-4.428-11.706-9.579-17.78-14.452c-7.803,1.615-15.829,3.275-24.07,4.98
	c3.179,2.762,6.777,4.683,9.932,7.204c3.17,2.534,6.383,5.015,9.658,7.583c-0.051,0.28-0.111,0.612-0.222,1.204
	c-0.528-0.415-0.874-0.694-1.229-0.961c-4.776-3.601-9.247-7.604-14.349-10.78c-1.544-0.961-2.989-2.09-4.436-3.2
	c-0.848-0.65-1.688-0.767-2.746-0.614c-1.938,0.28-3.906,0.346-5.861,0.494c-0.373,0.028-0.754-0.009-1.122,0.042
	c-5.923,0.824-11.88,1.467-17.667,3.07c-0.085,0.023-0.158,0.089-0.35,0.201c5.37,5.813,11.2,11.082,17.355,16.156
	c-0.058,0.307-0.117,0.632-0.223,1.194c-6.749-5.396-12.754-11.25-18.7-17.157c-2.023,0.652-3.964,1.277-6.373,2.053
	c-1.088-0.191-1.816-1.729-3.109-2.318c-0.196-0.64-0.37-1.208-0.565-1.844c0.396-0.152,0.73-0.279,1.058-0.405
	c-0.01-0.107,0.013-0.248-0.027-0.27c-2.937-1.551-3.43-4.319-3.323-7.191c0.082-2.224-0.727-3.704-2.642-4.65
	c-1.258-0.62-2.526-1.228-3.829-1.736c-2.914-1.135-4.457-3.279-4.825-6.328c-0.208-1.715-0.388-3.434-0.571-5.066
	c-1.756-2.061-3.75-3.531-6.238-4.3c-0.802-0.248-1.598-0.531-2.365-0.869c-1.412-0.621-2.367-1.666-2.645-3.216
	c-0.321-1.792-0.615-3.59-0.879-5.392c-0.234-1.608-0.963-2.871-2.259-3.885c-2.195-1.718-4.702-2.871-7.148-4.141
	c-0.374-0.194-0.734-0.417-1.121-0.582c-2.032-0.859-2.759-2.53-2.898-4.583c-0.024-0.367-0.087-0.731-0.135-1.12
	c-1.397-0.551-2.634-1.262-3.391-2.349c-0.293-1.189-0.545-2.215-0.847-3.449c1.1-0.972,2.84-0.247,4.137-1.058
	C10.56,74.704,6.038,69.155,1.435,63.505c0.397-0.224,0.65-0.367,0.894-0.503c4.52,5.906,9.182,11.572,14.136,17.052
	c7.365-0.521,14.565-1.766,21.737-3.525c-0.044-0.19-0.031-0.348-0.104-0.424c-2.959-3.056-5.926-6.105-8.895-9.152
	c-1.631-1.674-3.273-3.336-4.898-5.014c-0.344-0.354-0.824-0.696-0.352-1.436c0.252,0.134,0.566,0.214,0.751,0.413
	c1.39,1.507,2.728,3.063,4.139,4.551c1.058,1.117,2.225,2.134,3.306,3.233c1.543,1.565,3.03,3.184,4.583,4.741
	c0.954,0.957,1.986,1.837,3.113,2.871c7.613-1.181,15.278-2.772,23.157-3.441c-4.973-4.517-10.171-8.718-14.726-13.599
	c0.05-0.104,0.101-0.208,0.149-0.311c0.277,0.018,0.579-0.027,0.821,0.074c0.192,0.078,0.302,0.345,0.468,0.508
	c1.939,1.888,3.828,3.828,5.837,5.639c1.903,1.716,3.934,3.292,5.904,4.933c1.109,0.923,2.214,1.853,3.12,2.611
	c2.165,0.066,4.076,0.226,5.977,0.156c2.047-0.075,4.109-0.24,6.125-0.589c2.966-0.514,5.896-1.226,9.025-1.891
	c-5.877-4.424-11.603-8.872-16.289-14.559c0.794-0.663,1.183-0.197,1.59,0.263c1.052,1.185,2.059,2.413,3.183,3.523
	c1.395,1.377,2.863,2.686,4.35,3.964c1.556,1.336,3.143,2.639,4.77,3.886C84.637,68.5,86.048,69.416,87.673,70.552z
	 M112.665,133.656c1.74-0.278,3.403-0.507,5.052-0.816c3.624-0.678,7.234-1.424,10.861-2.089c5.372-0.985,10.718-2.08,15.995-3.516
	c5.357-1.457,10.658-3.145,16.148-4.087c0.479-0.083,0.94-0.28,1.556-0.469c-0.907-0.712-1.66-1.304-2.59-2.035
	c0.009-0.002-0.271,0.027-0.54,0.091c-3.537,0.845-7.082,1.656-10.606,2.553c-5.744,1.464-11.464,3.014-17.21,4.47
	c-2.303,0.583-4.636,1.061-6.971,1.501c-1.876,0.354-3.781,0.55-5.664,0.873c-1.562,0.268-3.111,0.607-4.663,0.932
	c-0.938,0.197-1.875,0.426-3.108,0.709C111.6,132.503,112.086,133.029,112.665,133.656z M109.47,132
	c-1.329,0.283-2.604,0.551-3.879,0.825c-2.005,0.431-4.002,0.909-6.016,1.289c-2.063,0.388-4.145,0.693-6.221,1.013
	c-2.119,0.327-4.24,0.633-6.361,0.938c-3.415,0.49-6.836,0.938-10.245,1.469c-1.887,0.295-3.746,0.764-5.632,1.077
	c-1.611,0.268-3.267,0.307-4.858,0.657c-2.594,0.571-5.149,1.321-7.726,1.976c-0.646,0.165-1.31,0.255-2.334,0.45
	c0.99,0.852,1.714,1.473,2.367,2.035c0.41-0.088,0.639-0.127,0.863-0.186c3.615-0.944,7.193-2.083,10.853-2.788
	c4.769-0.918,9.581-1.788,14.414-2.139c6.186-0.45,12.238-1.524,18.28-2.78c2.104-0.438,4.205-0.898,6.307-1.346
	c0.667-0.142,1.338-0.277,2.342-0.485C110.798,133.236,110.203,132.682,109.47,132z M72.654,80.173
	c0.512-0.724-0.104-1.639,0.886-2.295c0.193,0.738,0.354,1.357,0.558,2.131c0.616-0.193,1.206-0.378,1.76-0.551
	c0.125-0.74,0.225-1.328,0.333-1.973c0.264-0.017,0.476-0.032,0.76-0.051c0.052,0.604,0.099,1.14,0.155,1.796
	c0.576-0.098,1.052-0.179,1.516-0.257c0.083-0.764,0.149-1.387,0.22-2.041c1.414,0.138,0.348,1.354,1.101,1.825
	c0.426-0.101,0.954-0.225,1.44-0.339c0.192-0.771,0.361-1.445,0.549-2.193c1.178,0.541,0.398,1.48,0.843,2.182
	c0.601,0,1.271,0,2.003,0c0-0.497,0-0.905,0-1.313c0-0.374,0-0.747,0-1.362c1.265,0.679,0.715,1.774,1.156,2.567
	c0.434-0.057,0.875-0.115,1.278-0.167c0.242-0.955-0.413-1.979,0.759-2.823c0.158,0.96,0.284,1.734,0.427,2.594
	c0.412-0.134,0.71-0.23,1.106-0.36c-0.045-0.7-0.089-1.363-0.139-2.114c0.277,0.052,0.555,0.033,0.601,0.126
	c0.274,0.567,0.497,1.16,0.763,1.81c0.172-0.021,0.391-0.046,0.662-0.079c0-0.671,0-1.296,0-1.884
	c0.397-0.116,0.646-0.189,0.978-0.286c-0.075-0.584-0.144-1.112-0.218-1.696c-0.423,0.035-0.694,0.041-0.961,0.082
	c-1.846,0.282-3.691,0.562-5.535,0.862c-0.918,0.15-1.832,0.324-2.741,0.517c-0.638,0.137-1.254,0.401-1.895,0.474
	c-2.739,0.311-5.485,0.545-8.223,0.855c-2.358,0.267-4.708,0.596-7.107,0.904c0,1.229,0,2.366,0,3.607
	c0.637-0.029,1.132-0.05,1.686-0.075c0.046-0.462,0.081-0.826,0.12-1.19c0.042-0.383,0.084-0.767,0.145-1.307
	c1.146,0.596,0.516,1.69,1.137,2.41c0.396-0.042,0.869-0.095,1.246-0.136c0.119-0.754,0.209-1.319,0.305-1.928
	c1.217,0.257,0.424,1.331,1.166,1.871C71.815,80.313,72.294,80.233,72.654,80.173z M114.039,84.245c-0.882,0-1.632,0-2.499,0
	c0.436-1.206,1.549-0.686,2.291-1.254c-0.054-0.352-0.117-0.775-0.18-1.184c-0.924-0.133-1.699,0.844-2.566-0.05
	c0.572-0.92,1.698-0.712,2.464-1.293c-0.03-0.179-0.065-0.384-0.092-0.543c-0.914-0.304-1.784,0.565-2.663-0.123
	c0.463-1.201,1.877-0.456,2.553-1.467c-0.031-0.208-0.088-0.581-0.144-0.937c-0.901-0.027-1.667,0.575-2.491-0.055
	c0.447-1.268,1.982-0.396,2.58-1.532c-0.002-0.021-0.019-0.233-0.039-0.468c-0.843-0.147-1.7,0.442-2.509-0.232
	c0.562-1.061,1.811-0.474,2.531-1.232c-0.054-0.275-0.116-0.603-0.175-0.917c-1.021,0.167-1.917,0.313-2.809,0.46
	c-0.308,0.869-0.615,1.741-0.953,2.701c0.068,1.428,0.164,2.965,0.213,4.504c0.028,0.832-0.047,1.667-0.031,2.5
	c0.027,1.429-0.929,3.002-2.332,3.34c-2.859,0.687-5.722,0.939-8.444-0.625c-0.714-0.409-1.511-0.672-2.302-1.017
	c-0.348,0.477-0.608,0.834-0.981,1.347c0.837,0.294,1.512,0.583,2.214,0.77c2.205,0.589,4.457,1.026,6.619,1.741
	c1.898,0.627,3.73,0.77,5.627,0.172c0.307-0.097,0.621-0.173,0.92-0.256c1.473,0.519,2.918,1.529,4.4,0.038
	c-1.347-0.202-2.812,0.039-3.889-0.962c0.021-0.137,0.044-0.274,0.064-0.411c1.184,0.062,2.367,0.125,3.744,0.198
	c-0.254-0.508-0.39-0.784-0.54-1.084c-1.064,0.062-2.127,0.396-3.139-0.332c0.766-1.039,1.979-0.07,2.767-0.828
	c0-0.087,0.021-0.224-0.006-0.351C114.205,84.682,114.131,84.512,114.039,84.245z M64.394,77.21
	c-10.414,0.873-20.568,2.422-30.643,4.416c-0.09,0.738-0.158,1.311-0.248,2.044c0.725-0.113,1.289-0.201,1.845-0.288
	c0.067-0.609,0.116-1.056,0.172-1.582c0.311,0.04,0.519,0.068,0.745,0.098c0.099,0.494,0.187,0.933,0.285,1.424
	c0.365-0.069,0.626-0.119,0.895-0.17c0.08-0.488,0.151-0.916,0.213-1.291c0.989-0.29,0.714,0.771,1.287,0.962
	c0.582-0.056,1.221-0.115,1.893-0.179c0.101-0.539,0.186-0.998,0.271-1.457c0.104-0.024,0.208-0.05,0.312-0.074
	c0.262,0.486,0.523,0.973,0.787,1.462c0.576,0,1.115,0,1.734,0c0.059-0.639,0.11-1.195,0.164-1.776
	c1.17,0.075,0.578,1.216,1.263,1.648c0.437-0.064,0.972-0.142,1.479-0.215c0.127-0.665,0.229-1.191,0.351-1.823
	c0.323,0.115,0.521,0.186,0.712,0.253c0.066,0.519,0.121,0.965,0.195,1.544c0.8-0.126,1.504-0.237,2.169-0.343
	c0.065-0.726,0.117-1.288,0.173-1.877c1.173,0.269,0.509,1.315,1.121,1.827c0.651-0.088,1.368-0.186,2.094-0.285
	c0.055-0.703,0.098-1.285,0.15-1.949c1.249,0.197,0.491,1.344,1.199,1.901c0.569-0.049,1.291-0.111,2.121-0.182
	c0-0.723,0-1.319,0-1.981c1.165,0.241,0.507,1.45,1.338,1.842c0.398-0.052,0.892-0.117,1.389-0.182
	c0.088-0.6,0.166-1.122,0.245-1.657c1.146,0.094,0.564,1.131,1.116,1.56c0.365,0,0.799,0,1.205,0
	c0.171-0.648-0.299-1.419,0.75-1.851c0.13,0.709,0.243,1.314,0.371,2.007c0.275-0.067,0.521-0.129,0.848-0.209
	C64.394,79.661,64.394,78.553,64.394,77.21z M97.584,69.852c0,0.721-0.097,1.292,0.02,1.817c0.271,1.229,0.6,2.451,0.992,3.646
	c0.624,1.898,1.853,2.733,3.848,2.733c0.232,0,0.476,0.098,0.693,0.052c0.62-0.133,1.341-0.16,1.821-0.509
	c2.487-1.803,3.798-4.305,4.021-7.364c0.078-1.077-0.216-2.03-1.289-2.827c-0.512,0.121-1.121,0.266-1.55,0.366
	c-1.349,1.785-1.133,4.099-2.783,5.546c-0.579-0.07-1.125-0.137-1.811-0.221c-0.387-1.139-0.767-2.257-1.158-3.413
	C99.422,69.738,98.597,69.79,97.584,69.852z M96.515,73.081c-0.622,0.719-1.063,1.241-1.518,1.753
	c-0.849,0.957-0.957,2.05-0.363,3.118c1.761,3.162,4.345,5.217,8.051,5.562c1.157,0.107,2.332,0.017,3.633,0.017
	c0.683-0.471,1.663-0.856,1.979-1.883c0.564-1.83,0.334-3.65-0.15-5.792c-1.046,1.06-2.064,1.799-2.674,2.79
	c-0.625,1.016-0.852,2.278-1.271,3.49c-1.473-0.769-0.177-1.888-0.481-2.879c-0.482-0.054-0.994-0.213-1.471-0.144
	c-1.479,0.211-2.687-0.233-3.622-1.361c-0.462-0.559-0.909-1.166-1.202-1.823C97.065,75.125,96.877,74.247,96.515,73.081z
	 M109.111,62.645c0.378-0.314,0.696-0.579,1.099-0.915c-0.73-0.854-1.445-1.691-2.085-2.441c-2.115-0.098-4.063-0.188-6.046-0.281
	c-0.576,0.607-1.167,1.231-1.774,1.873c0.452,0.369,0.808,0.657,1.162,0.945c-0.053,0.552-0.099,1.045-0.157,1.648
	c1.008,0,1.945,0,3.021,0c-0.54,1.265-1.741,0.694-2.451,1.178c-0.698,1.37-0.374,2.478,1.097,3.596
	c1.305-0.14,2.374-0.847,3.442-1.785c0.635,0.058,1.333,0.215,2.014,0.157c0.692-0.059,1.368-0.329,2.233-0.552
	c-0.628-0.519-1.053-0.867-1.554-1.28C109.111,64.079,109.111,63.348,109.111,62.645z M60.942,74.319
	c-3.531-0.147-25.573,3.593-29.07,4.939c0.69,0.461,1.287,0.86,1.854,1.238c4.926-0.86,9.726-1.823,14.565-2.508
	c4.852-0.687,9.737-1.137,14.911-1.91C62.259,75.344,61.603,74.833,60.942,74.319z M64.724,76.1c1.21-0.125,2.367-0.242,3.525-0.366
	c2.175-0.235,4.35-0.476,6.526-0.71c1.807-0.195,3.625-0.301,5.415-0.594c3.076-0.504,6.135-1.124,9.202-1.694
	c0.517-0.096,1.034-0.189,1.851-0.338c-0.686-0.537-1.111-0.871-1.653-1.295c-3.331,0.528-6.729,0.896-10.044,1.64
	c-3.942,0.884-7.87,1.415-11.913,1.133c-1.562-0.108-3.148-0.009-4.842,0.401c0.36,0.394,0.589,0.677,0.854,0.924
	C63.947,75.485,64.282,75.737,64.724,76.1z M115.804,62.723c-3.029-3.884-4.734-8.407-8.478-11.528
	c-1.106,0.145-1.903,0.84-2.719,1.624c3.058,3.541,5.298,7.736,9.164,10.642C114.359,63.247,114.915,63.046,115.804,62.723z
	 M17.551,83.988c1.317,0.147,0.784,1.225,1.223,1.775c0.228-0.039,0.484-0.083,0.721-0.123c0.04-0.475,0.074-0.868,0.113-1.335
	c0.33,0.054,0.545,0.088,0.814,0.133c0.084,0.43,0.162,0.823,0.265,1.354c0.5-0.078,0.929-0.144,1.285-0.199
	c0.205-0.563,0.355-0.981,0.621-1.715c0.427,0.606,0.685,0.972,0.969,1.373c0.384-0.103,0.783-0.21,1.15-0.309
	c0.131-0.481,0.244-0.899,0.454-1.679c0.462,0.651,0.728,1.026,1.051,1.482c0.544-0.104,1.13-0.215,1.664-0.316
	c0.21-0.442,0.381-0.794,0.651-1.361c0.383,0.474,0.643,0.793,0.921,1.139c0.257-0.039,0.53-0.079,0.797-0.119
	c0.158-0.397,0.304-0.763,0.53-1.328c0.428,0.467,0.73,0.797,1.154,1.258c0.531-0.664,0.532-1.324,0.59-2.168
	c-0.622,0.05-1.162,0.068-1.693,0.143c-0.971,0.134-1.932,0.341-2.906,0.45c-3.525,0.395-7.056,0.747-10.58,1.15
	c-0.717,0.082-1.414,0.317-2.176,0.495c0.045,0.663,0.078,1.146,0.113,1.662c0.84,0,1.515,0,2.269,0
	C17.551,85.165,17.551,84.672,17.551,83.988z M94.604,98.713c1.062-1.659,2.034-3.128,2.949-4.632
	c0.26-0.428,0.426-0.943,0.512-1.439c0.114-0.668-0.021-1.338-0.633-1.74c-1.111-0.729-2.299-1.172-3.732-0.738
	c-0.035,0.407-0.086,0.769-0.098,1.13c-0.067,2.091,0.176,4.202-0.501,6.252c-0.107,0.324,0.106,0.754,0.177,1.166
	C93.85,98.713,94.257,98.713,94.604,98.713z M14.915,83.059c5.607-1.132,11.333-1.058,17.161-2.443
	c-0.823-0.524-1.431-0.91-2.026-1.288c-5.549,1.241-11.187,1.462-16.714,2.403c-0.008,0.096-0.015,0.193-0.022,0.289
	C13.851,82.368,14.389,82.717,14.915,83.059z M105.218,92.979c0.902,2.329,1.783,4.6,2.638,6.802
	c0.661,0.142,1.111,0.239,1.593,0.342c0.454-0.223,0.901-0.443,1.428-0.702c-0.656-2.22-1.29-4.371-1.988-6.736
	C107.837,92.288,106.612,92.293,105.218,92.979z M120.803,53.865c3.187,0.851,4.3,2.315,4.264,5.388
	c-0.014,1.116-0.115,2.231-0.153,3.347c-0.009,0.233,0.086,0.469,0.134,0.712c0.21-0.054,0.344-0.049,0.374-0.104
	c0.111-0.195,0.218-0.404,0.273-0.621c0.488-1.91,0.162-3.783-0.279-5.648C124.917,54.839,123.353,53.712,120.803,53.865z
	 M120.14,55.066c-0.057,0.091-0.112,0.182-0.169,0.273c2.96,0.925,3.313,3.452,3.813,5.9c0.294-2.349,0.587-4.687-2.031-6.101
	C121.237,55.117,120.688,55.091,120.14,55.066z M127.039,59.005c0.802-3.785-1.285-6.583-4.581-6.215
	c0.265,0.142,0.412,0.256,0.578,0.301c2.295,0.632,3.473,2.152,3.661,4.506C126.735,58.072,126.922,58.537,127.039,59.005z
	 M94.649,71.935c0.117-0.431,0.225-0.818,0.383-1.4c-1.285,0.283-2.293,0.504-3.585,0.789c0.628,0.406,1.036,0.67,1.413,0.914
	C93.432,72.14,93.931,72.056,94.649,71.935z M110.427,62.839c-0.343,0.955-0.195,1.56,0.436,1.889c0.54,0.28,0.834,0.11,1.3-0.78
	C111.771,63.298,111.417,62.581,110.427,62.839z M100.944,56.423c0.092,0.053,0.184,0.107,0.276,0.161
	c0.359-0.51,0.7-1.037,1.087-1.526c0.42-0.532,0.884-1.03,1.303-1.516c-0.417-0.538-0.771-0.461-1.063-0.169
	C101.685,54.233,101.13,55.248,100.944,56.423z M111.986,54.734c0.194,0.341,0.344,0.602,0.581,1.018
	c0.925-0.938,2.057-1.498,2.494-2.688c-0.074-0.085-0.146-0.171-0.219-0.256C113.942,53.415,113.043,54.022,111.986,54.734z
	 M114.239,58.455c0.101,0.091,0.203,0.181,0.304,0.272c0.446-0.443,0.902-0.876,1.335-1.332c0.786-0.828,0.78-0.833,0.454-1.904
	C115.825,56.74,114.577,57.257,114.239,58.455z M112.979,69.817c-0.958-0.391-1.974-0.126-2.847,0.62
	C111.224,70.573,112.185,70.593,112.979,69.817z M105.856,56.364c-0.167-0.226-0.341-0.462-0.615-0.836
	c-0.491,0.622-0.898,1.137-1.359,1.721C104.866,57.402,104.866,57.402,105.856,56.364z M102.562,56.853
	c1.398-1.105,1.861-1.692,1.978-2.652C103.592,54.965,102.926,55.671,102.562,56.853z M97.953,68.639
	c1.412,0.214,1.839,0.135,2.422-0.397C98.925,67.817,98.617,67.856,97.953,68.639z M115.88,54.158
	c-1.875,1.584-2.273,2.049-2.467,2.787C114.421,56.456,115.031,55.799,115.88,54.158z M111.732,51.523
	c-0.826-0.459-1.581-0.386-2.515-0.107c0.302,0.337,0.47,0.524,0.666,0.742C110.542,51.932,111.138,51.728,111.732,51.523z
	 M110.226,71.692c0.862,0.736,1.534,0.642,2.623-0.292C112.078,71.486,111.31,71.572,110.226,71.692z M117.739,55.088
	c0.109-0.03,0.219-0.06,0.327-0.091c0.351-0.945,0.282-1.119-0.934-1.892C117.381,53.918,117.561,54.503,117.739,55.088z
	 M112.984,68.174c-0.043-0.134-0.088-0.268-0.134-0.402c-0.952,0.238-1.907,0.472-2.854,0.731c-0.058,0.015-0.06,0.232-0.136,0.569
	C110.991,68.747,111.988,68.46,112.984,68.174z M112.665,52.913c-0.062-0.127-0.128-0.254-0.192-0.38
	c-0.561,0.144-1.121,0.288-1.902,0.488c0.438,0.334,0.642,0.49,0.911,0.694C111.893,53.436,112.278,53.175,112.665,52.913z
	 M116.434,59.099c-0.095-0.078-0.19-0.155-0.285-0.232c-0.515,0.246-0.986,0.514-0.562,1.549
	C115.955,59.842,116.194,59.471,116.434,59.099z"/>
<path class="stroke" fill="#205165"  fill-rule="evenodd" clip-rule="evenodd" d="M114.335,61.789c-0.188,1.019-0.188,1.019-1.146,0.382
	C113.415,61.514,113.827,61.551,114.335,61.789z"/>
<path class="stroke" fill="#205165"  fill-rule="evenodd" clip-rule="evenodd" d="M111.594,59.895c0.349-0.067,0.696-0.133,1.165-0.223
	c-0.356,1.037-0.356,1.037-1.125,0.571C111.62,60.127,111.608,60.011,111.594,59.895z"/>
<path class="stroke" fill="#205165"  fill-rule="evenodd" clip-rule="evenodd" d="M108.563,55.209c-0.475-0.078-0.787-0.13-1.23-0.203
	c0.157-0.296,0.199-0.517,0.32-0.576C108.178,54.17,108.514,54.299,108.563,55.209z"/>
<path class="stroke" fill="#205165"  fill-rule="evenodd" clip-rule="evenodd" d="M107.022,52.545c0.25,0.407,0.381,0.623,0.49,0.798
	c-0.252,0.477-0.376,0.475-1.223,0.012C106.5,53.123,106.694,52.908,107.022,52.545z"/>
<path class="stroke" fill="#205165"  fill-rule="evenodd" clip-rule="evenodd" d="M108.866,56.812c0.398-0.639,0.754-0.634,1.222-0.138
	C109.688,57.402,109.323,57.236,108.866,56.812z"/>
<path class="stroke" fill="#205165"  fill-rule="evenodd" clip-rule="evenodd" d="M111.126,59.186c-0.418-0.252-0.66-0.398-0.902-0.544
	c0.004-0.086,0.009-0.172,0.013-0.259c0.331-0.053,0.662-0.107,1.148-0.186C111.282,58.588,111.232,58.783,111.126,59.186z"/>
<path fill-rule="evenodd" clip-rule="evenodd" fill="#ffffff" class="fill" d="M155.438,111.559c3.894,1.699,7.383,4.016,11.078,6.491
	c-0.524,0.196-0.794,0.335-1.08,0.399c-5.66,1.231-11.338,2.379-16.978,3.702c-4.82,1.131-9.597,2.452-14.386,3.707
	c-2.032,0.533-4.044,1.145-6.079,1.661c-1.038,0.264-2.104,0.521-3.164,0.567c-4.332,0.188-8.457,1.511-12.687,2.243
	c-2.07,0.359-4.149,0.718-6.174,1.266c-5.206,1.412-10.542,2.061-15.841,2.933c-0.734,0.121-1.48,0.172-2.104,0.242
	c-2.805-1.975-5.496-3.871-8.262-5.82C104.927,122.438,130.104,116.629,155.438,111.559z"/>
<path fill-rule="evenodd" clip-rule="evenodd" fill="#ffffff" class="fill" d="M144.676,105.241c-0.296,0.192-0.396,0.295-0.518,0.332
	c-2.1,0.626-4.198,1.262-6.306,1.857c-1.213,0.343-2.444,0.623-3.668,0.928c-2.896,0.724-5.786,1.481-8.693,2.161
	c-4.78,1.117-9.564,2.22-14.361,3.256c-2.692,0.582-5.434,0.932-8.119,1.543c-3.005,0.686-5.963,1.576-8.954,2.327
	c-1.629,0.409-3.29,0.685-4.924,1.074c-2.54,0.608-5.093,1.185-7.598,1.917c-2.558,0.748-5.121,1.444-7.763,1.801
	c-0.508,0.069-1.189-0.033-1.572-0.334c-2.67-2.11-5.284-4.293-8.087-6.593c0.513-0.172,0.826-0.307,1.152-0.382
	c1.449-0.336,2.897-0.686,4.357-0.977c4.992-0.998,9.987-1.962,15.077-2.373c1.475-0.119,2.926-0.569,4.386-0.876
	c1.232-0.259,2.465-0.527,3.694-0.8c3.282-0.73,6.57-1.431,9.841-2.205c5.721-1.353,11.438-2.723,17.142-4.146
	c2.127-0.531,4.201-1.276,6.324-1.836c1.804-0.477,3.672-0.724,5.456-1.262c1.788-0.54,3.352-0.555,5.026,0.491
	c1.484,0.927,3.227,1.43,4.815,2.204C142.46,103.871,143.467,104.538,144.676,105.241z"/>
<path fill-rule="evenodd" clip-rule="evenodd" fill="#ffffff" class="fill" d="M42.84,97.444c-2.498-2.705-5.149-5.576-7.864-8.514
	c0.91-0.582,1.969-0.75,2.984-0.891c3.885-0.542,7.757-1.205,11.7-1.23c1.253-0.009,2.501-0.314,3.751-0.472
	c2.132-0.271,4.262-0.562,6.397-0.79c2.831-0.302,5.671-0.534,8.503-0.831c1.203-0.126,2.395-0.358,3.594-0.517
	c1.758-0.235,3.517-0.443,5.274-0.672c2.317-0.301,4.633-0.618,6.95-0.915c2.869-0.367,5.739-0.719,8.609-1.081
	c0.413-0.053,0.824-0.126,1.352-0.208c0.257,0.382,0.531,0.792,0.797,1.186c-0.924,1.326-1.798,2.583-2.785,4
	c0.749,0.358,1.346,0.643,2.053,0.98c-0.227,0.32-0.404,0.571-0.663,0.938C76.751,91.543,60.042,95.227,42.84,97.444z"/>
<path fill-rule="evenodd" clip-rule="evenodd" fill="#ffffff" class="fill" d="M102.546,92.373c0.158-0.172,0.371-0.402,0.682-0.737
	c1.044,2.167,1.955,4.271,2.551,6.624c-1.152,0.135-2.491-0.774-3.127,0.647c-0.3,1.092,0.619,1.446,1.177,2.198
	c-0.599,0.222-1.087,0.529-1.597,0.569c-2.819,0.22-5.451,1.262-8.193,1.808c-2.285,0.456-4.607,0.716-6.9,1.149
	c-2.607,0.493-5.196,1.091-7.797,1.626c-2.875,0.591-5.72,1.309-8.67,1.537c-1.521,0.118-3.015,0.62-4.518,0.958
	c-2.176,0.489-4.351,0.989-6.525,1.475c-0.179,0.04-0.371,0.005-0.792,0.005c-2.303-3.109-5.782-5.101-8.983-7.809
	c1.085-0.23,1.929-0.43,2.78-0.586c2.752-0.505,5.551-0.816,8.248-1.527c5.029-1.326,10.225-1.643,15.284-2.749
	c2.277-0.498,4.545-1.049,6.833-1.495c1.593-0.31,3.212-0.481,4.914-0.729c0.745,2.662,2.621,4.387,4.713,5.907
	c0.753,0.547,1.624,0.938,2.635,0.8c0.753-0.372,1.028-1.033,1.075-1.823c0.092-1.644,0.644-3.031,1.838-4.25
	c0.763-0.779,1.216-1.86,1.854-2.879C100.79,92.873,101.633,92.633,102.546,92.373z"/>
<path fill-rule="evenodd" clip-rule="evenodd" fill="#ffffff" class="fill" d="M126.403,95.227c-4.944,1.272-9.516,2.448-14.085,3.622
	c-0.605-1.708-1.166-3.284-1.796-5.057c0.165-0.88,0.37-1.974,0.562-3.006c1.392,0.114,2.684,0.192,3.968,0.334
	c1.155,0.127,2.127-0.14,2.888-1.06c0.111-0.134,0.308-0.198,0.598-0.376C121.052,91.456,123.588,93.244,126.403,95.227z"/>
<path fill-rule="evenodd" clip-rule="evenodd" fill="#ffffff" class="fill" d="M92.454,93.974c-0.031,0.351-0.049,0.55-0.079,0.874
	c-0.345-0.173-0.579-0.291-1.003-0.504C91.809,94.194,92.065,94.107,92.454,93.974z"/>
</svg>
