<svg version="1.1" xmlns="http://www.w3.org/2000/svg" xmlns:xlink="http://www.w3.org/1999/xlink" x="0px" y="0px" width="200px"
	 height="200px" viewBox="0 0 200 200" enable-background="new 0 0 200 200" xml:space="preserve">
<g id="svg">
	<path class="stroke" fill="#1a1a37"  d="M151.961,26.279c-1.033-0.84-2.088-1.659-3.184-2.415c-3.291-2.27-6.553-4.591-9.928-6.731
		c-3.621-2.295-7.657-3.79-11.699-5.091c-4.676-1.505-9.359-3.106-14.279-3.725c-2.555-0.32-5.105-0.793-7.67-0.893
		c-3.905-0.152-7.821-0.109-11.73-0.015c-2.3,0.055-4.608,0.264-6.885,0.596c-1.703,0.249-3.36,0.8-5.037,1.22
		c-1.076,0.27-2.188,0.445-3.219,0.839c-2.314,0.886-4.591,1.874-6.875,2.837c-0.848,0.356-1.673,0.759-2.487,1.13
		c-2.011-1.624-3.663-0.452-5.521,0.471c-0.273,0.943-0.564,1.948-0.887,3.062c-0.854,0.751-1.858,1.561-2.771,2.461
		c-0.977,0.96-2.011,1.964-2.275,3.355c-0.342,1.788-0.525,3.621-0.123,5.431c0.264,1.193,0.343,2.478,1.209,3.377
		c1.307,0.542,2.241-0.419,3.395-0.699c0.062,0.586,0.164,1.065,0.16,1.544c-0.018,2.353-0.046,4.706-0.098,7.058
		c-0.076,3.464-0.147,6.93-0.273,10.392c-0.168,4.617-0.381,9.232-0.582,13.847c-0.162,3.684-0.344,7.367-0.503,11.051
		c-0.15,3.505-0.284,7.011-0.422,10.518c-0.122,3.055-0.302,6.11-0.346,9.166c-0.077,5.511-0.072,11.022-0.1,16.534
		c-0.005,0.707-0.001,1.414-0.001,2.094c-0.2,0.245-0.334,0.499-0.542,0.649c-1.514,1.082-2.503,2.628-3.603,4.067
		c-1.413,1.847-2.536,3.858-3.101,6.138c-1.022,4.128-1.05,8.254-0.005,12.389c0.707,2.795,1.521,5.561,1.746,8.471
		c0.107,1.405,0.638,2.759,1.634,3.872c0.41,0.458,0.787,0.994,1.013,1.561c0.452,1.138,1.339,1.856,2.223,2.598
		c0.234,0.195,0.462,0.398,0.725,0.625c-0.082,2.855-0.167,5.692-0.246,8.53c-0.099,3.553-0.291,7.107-0.26,10.659
		c0.024,2.794,0.307,5.588,0.524,8.378c0.058,0.733,0.31,1.451,0.447,2.063c1.835,0.804,3.516,0.851,5.434,0.165
		c0.104-0.436,0.331-0.969,0.348-1.51c0.103-3.553,0.188-7.106,0.224-10.661c0.038-3.912,0.02-7.824,0.021-11.736
		c0.003-1.507,0.002-3.015,0.002-4.49c0.485-0.235,0.788-0.416,1.116-0.537c1.505-0.552,2.633-1.542,3.681-2.756
		c1.831-2.123,2.748-4.628,3.51-7.249c0.717-2.473,1.429-4.955,2.309-7.373c1.164-3.192,2.96-6.059,4.969-8.791
		c0.16-0.221,0.365-0.408,0.764-0.842c0,0.839,0.028,1.361-0.008,1.879c-0.074,1.107-0.184,2.211-0.278,3.317
		c-0.137,1.589-0.214,3.187-0.424,4.766c-0.325,2.457-0.794,4.896-1.096,7.355c-0.217,1.761-0.353,3.542-0.36,5.315
		c-0.016,3.016-0.048,6.044,0.196,9.044c0.273,3.333,1.33,6.49,2.621,9.59c1.825,4.382,4.091,8.448,7.428,11.869
		c0.682,0.698,1.205,1.559,1.921,2.213c3.078,2.812,6.105,5.678,9.8,7.731c2.914,1.619,5.815,3.233,9.031,4.178
		c1.484,0.436,2.983,0.821,4.484,1.187c0.26,0.062,0.57-0.083,1.047-0.166c-0.565-1.181-1.749-1.514-2.394-2.356
		c-0.701-0.915-1.427-1.815-2.074-2.767c-0.623-0.917-1.195-1.873-1.723-2.848c-0.549-1.016-1.054-2.059-1.509-3.12
		c-0.437-1.015-0.856-2.047-1.146-3.108c-0.305-1.111-0.476-2.262-0.646-3.405c-0.157-1.04-0.764-2.042-0.417-3.194
		c1.618,1.468,3.148,2.861,4.685,4.246c1.517,1.369,2.938,2.872,4.585,4.065c2.293,1.664,4.7,3.192,7.161,4.597
		c2.502,1.429,5.109,2.68,7.706,3.933c1.759,0.847,3.583,1.554,5.373,2.338c0.421,0.184,0.766,0.227,1.007-0.286
		c-0.032-0.107-0.044-0.251-0.114-0.351c-0.127-0.18-0.287-0.337-0.44-0.498c-2.782-2.88-5.597-5.736-6.968-9.635
		c-0.044-0.124-0.148-0.225-0.2-0.347c-0.388-0.92-0.771-1.842-1.155-2.764c0.078-0.048,0.158-0.096,0.237-0.143
		c0.158,0.118,0.317,0.234,0.473,0.355c2.061,1.608,3.935,3.468,6.299,4.667c2.687,1.363,5.367,2.742,8.089,4.037
		c0.869,0.413,1.845,0.625,2.793,0.837c0.432,0.097,0.913-0.029,1.63-0.068c-0.271-0.518-0.391-0.822-0.572-1.084
		c-0.914-1.308-1.938-2.548-2.749-3.916c-2.834-4.781-4.25-10.036-4.957-15.505c-0.509-3.921-1.04-7.84-1.473-11.77
		c-0.259-2.336-0.346-4.69-0.51-7.043c0.782-1.289,1.465-3.444,1.565-4.616c0.268-3.084,0.575-6.164,0.877-9.245
		c0.021-0.215,0.15-0.416,0.209-0.63c0.342-1.237,0.722-2.465,1.005-3.716c0.284-1.254,0.484-2.528,0.692-3.798
		c0.478-2.913,0.579-5.868,0.209-8.768c-0.25-1.95-0.182-4.01-1.119-5.846c-0.737-4.453-2.671-8.448-4.807-12.353
		c-0.828-1.515-1.907-2.895-2.714-4.421c-1.667-3.154-3.945-5.89-5.857-8.875c-1.029-1.604-2.081-3.195-3.099-4.805
		c-0.548-0.866-0.753-1.852-0.452-2.82c0.605-1.944,1.312-3.856,1.979-5.781c0.505-1.465,1.155-2.897,1.492-4.399
		c0.541-2.422,0.983-4.877,1.265-7.342c0.2-1.752,0.25-3.565,0.038-5.311c-0.258-2.11-0.965-4.142-1.816-6.114
		c-0.773-1.791-1.48-3.614-2.146-5.448c-0.828-2.285-1.033-4.664-1.006-7.086c0.027-2.592-0.541-4.993-2.32-7.041
		c-2.062-2.375-6.327-3.753-9.129-1.738c-0.247,0.179-0.56,0.375-0.841,0.375c-0.961,0.002-1.652,0.595-2.439,0.987
		c-1.07,0.534-2.148,1.052-3.222,1.576c-1.796,0.875-3.662,1.626-5.367,2.648c-2.856,1.711-5.203,4.002-7.011,6.825
		c-1.234,1.924-2.738,3.567-4.623,4.917c-4.689,3.357-7.217,7.985-7.696,13.726c-0.097,1.15-0.153,2.306-0.185,3.46
		c-0.061,2.221-0.124,4.444-0.113,6.666c0.004,0.835,0.322,1.673,0.306,2.505c-0.055,2.829,0.509,5.574,1.226,8.263
		c1.444,5.417,0.006,10.002-3.766,13.941c-1.253,1.31-2.768,2.365-4.099,3.606c-2.599,2.42-5.151,4.892-7.729,7.333
		c-0.301,0.284-0.65,0.513-1.237,0.97c0.084-1.404,0.179-2.455,0.206-3.507c0.116-4.486,0.224-8.973,0.312-13.46
		c0.047-2.312,0.05-4.625,0.071-6.937c0.038-3.909,0.062-7.817,0.119-11.726c0.038-2.711,0.074-5.424,0.193-8.132
		c0.113-2.573,0.379-5.138,0.5-7.71c0.148-3.149,0.218-6.303,0.317-9.455c0.127-4.039,0.253-8.078,0.376-12.117
		c0.084-2.749,0.166-5.499,0.251-8.294c2.218-1.659,4.407-2.965,6.747-3.904c2.796-1.121,5.676-2.075,8.585-2.853
		c3.296-0.88,6.653-1.524,10.071-1.827c1.854-0.164,3.676-0.67,5.529-0.802c3.94-0.28,7.889-0.52,11.836-0.583
		c4.439-0.072,8.869,0.098,13.199,1.348c3.064,0.886,6.167,1.673,9.287,2.338c3.76,0.801,7.354,2.061,10.874,3.556
		c2.411,1.025,4.779,2.157,7.168,3.233c0.504,0.228,1.024,0.606,1.633-0.099C152.956,27.268,152.504,26.719,151.961,26.279z"/>
</g>
<g id="Layer_2">
	<path fill-rule="evenodd" clip-rule="evenodd" fill="#e2e6bc" class="fill" d="M88.373,162.708c0.626,0.933,1.287,1.912,1.938,2.897
		c0.342,0.517,0.735,1.016,0.986,1.576c0.861,1.916,2.408,3.151,4.097,4.257c0.467,0.307,0.937,0.614,1.353,1.028
		c-2.218,0.485-3.632-1.501-5.744-1.856c0.052,0.402-0.002,0.733,0.137,0.941c1.381,2.102,3.307,3.664,5.246,5.21
		c0.584,0.464,1.132,0.973,1.772,1.527c-1.021,0.092-1.021,0.092-3.622-1.351c-0.166,0.134-0.356,0.288-0.599,0.482
		c0.716,1.792,1.416,3.541,2.208,5.519c-0.357-0.283-0.569-0.404-0.721-0.577c-0.967-1.103-1.923-2.213-2.873-3.33
		c-0.229-0.27-0.455-0.554-0.627-0.862c-2.463-4.419-5.149-8.738-6.579-13.648c-0.97-3.333-1.651-6.719-1.683-10.223
		c-0.027-3.074,0.12-6.122,0.557-9.168c0.41-2.857,0.652-5.737,1.022-8.601c0.391-3.022,0.841-6.037,1.284-9.051
		c0.058-0.389,0.303-0.751,0.346-1.139c0.1-0.868,0.345-1.796,0.147-2.608c-0.624-2.572-0.776-5.183-0.928-7.8
		c-0.097-1.685-0.278-3.383-0.161-5.057c0.188-2.653,0.603-5.29,0.912-7.935c0.159-1.362,0.275-2.729,0.454-4.089
		c0.115-0.877,0.305-1.745,0.479-2.712c-0.127-0.094-0.29-0.213-0.544-0.4c-1.883,3.078-2.735,6.387-3.062,9.87
		c-0.101,0.019-0.198,0.036-0.296,0.054c-0.334-0.679-0.621-1.387-1.018-2.029c-0.38-0.616-0.678-1.344-1.508-1.67
		c-0.58,0.877-0.337,1.828-0.395,2.718c-0.063,0.975-0.041,1.955-0.047,2.934c-0.006,0.914-0.002,1.828-0.128,2.815
		c-1.353-1.34-2.474-2.887-4.289-3.76c-0.117,0.395-0.214,0.721-0.302,1.012c1.217,1.813,1.873,3.739,2.035,5.865
		c-1.388-1.218-2.76-2.374-4.466-3.142c-0.503,0.567-0.399,1.077-0.09,1.613c0.531,0.925,1.067,1.848,1.572,2.788
		c0.633,1.178,1.064,2.42,1.146,4.103c-0.517-0.529-0.849-0.847-1.156-1.188c-0.592-0.657-1.147-1.348-1.76-1.983
		c-0.329-0.339-0.711-0.361-1.02,0.274c1.033,1.776,1.703,3.765,1.976,6.082c-1.663-0.992-1.696-3.135-3.317-3.944
		c-0.516,0.547-0.339,1.14-0.236,1.683c0.529,2.834,1.156,5.651,1.619,8.496c0.52,3.199,1.025,6.425,0.894,9.67
		c-0.076,1.93-0.101,3.896-0.761,5.787c-0.406,1.162-0.455,2.445-0.816,3.627c-0.646,2.121-2.615,3.562-5.017,3.774
		c0-0.566,0-1.126,0-1.715c0.458-0.253,0.877-0.497,1.306-0.722c1.705-0.896,2.706-2.297,2.878-4.211
		c0.103-1.141,0.076-2.296,0.065-3.444c-0.02-2.045-0.085-4.09-0.105-6.135c-0.019-1.996-0.012-3.992-0.008-5.989
		c0.004-1.52-0.124-3.016-0.746-4.431c-0.053-0.122-0.124-0.248-0.133-0.375c-0.121-2.143-1.221-3.761-2.804-5.105
		c-0.083-0.877-0.208-1.713-0.229-2.552c-0.023-0.885-0.202-1.661-1.007-2.13c0-0.551,0-1.039,0-1.747
		c0.163-0.23,0.397-0.663,0.726-1.005c1.193-1.248,2.361-2.53,3.648-3.676c1.123-1,2.455-1.765,3.588-2.756
		c2.435-2.128,4.804-4.33,7.189-6.514c0.812-0.742,1.76-1.407,2.355-2.301c2.269-3.393,3.159-7.122,2.189-11.161
		c-0.424-1.766-0.998-3.494-1.472-5.248c-0.236-0.875-0.531-1.758-0.305-2.757c0.188,0.092,0.359,0.118,0.401,0.206
		c0.896,1.858,2.246,3.5,2.677,5.582c0.297,1.435,0.649,2.857,0.909,4.298c0.357,1.99,1.383,3.632,2.561,5.208
		c0.9,1.203,2.172,1.53,3.734,1.712c-0.424-1.345-1.868-1.796-1.938-2.992c1.486,0.407,2.947,0.864,4.434,1.197
		c1.663,0.373,3.282-0.022,4.826-0.617c0.73-0.281,1.406-0.775,1.535-1.658c-0.178-0.448-0.479-0.382-0.863-0.413
		c-1.67-0.131-3.361-0.23-4.987-0.599c-2.242-0.51-3.716-2.066-4.892-4.011c-1.216-2.013-1.539-4.216-1.793-6.471
		c-0.187-1.672-0.369-3.349-0.688-4.998c-0.148-0.763-0.543-1.509-0.951-2.186c-1.66-2.747-2.046-5.733-1.787-8.855
		c0.036-0.443,0.155-0.881,0.16-1.323c0.017-1.935,0.824-3.608,1.655-5.289c0.569-1.148,1.081-2.328,1.563-3.516
		c0.617-1.52,1.141-3.079,1.784-4.587c0.273-0.639,0.729-1.207,1.132-1.785c0.788-1.13,1.611-2.235,2.396-3.367
		c2.085-3.009,4.944-5.07,8.186-6.637c1.616-0.782,3.304-1.421,5.012-2.018c-0.757,1.052-1.78,1.705-2.881,2.279
		c-2.828,1.478-5.362,3.317-7.187,6c-0.117,0.173-0.183,0.382-0.403,0.854c0.791-0.213,1.338-0.361,1.893-0.512
		c-0.798,1.409-1.52,2.858-2.407,4.194c-0.878,1.316-1.924,2.519-2.952,3.842c0.938,0.335,1.82,0.242,2.574-0.198
		c1.375-0.805,2.757-1.637,3.989-2.638c1.485-1.207,3.157-1.98,4.927-2.586c1.345-0.46,2.737-0.784,4.074-1.26
		c2.004-0.714,3.951-0.365,5.889,0.204c0.391,0.115,0.738,0.473,1.045,0.781c1.518,1.525,2.096,3.459,2.355,5.529
		c0.648,5.163,0.484,10.286-0.762,15.354c-0.306,1.25-0.591,2.505-0.912,3.751c-0.375,1.463-0.798,2.889-1.67,4.18
		c-1.092,1.617-1.343,3.559-1.743,5.422c-0.232,1.085-0.386,2.19-0.52,3.292c-0.14,1.142-0.664,2.097-1.259,3.047
		c-2.493,3.986-5.875,6.878-10.388,8.304c-2.364,0.747-4.798,0.888-7.272,0.15c-0.132,0.175-0.257,0.339-0.516,0.681
		c2.062,0.921,4.039,1.803,6.184,2.76c-0.97,0.349-4.496,0.055-6.479-0.462c-0.101,0.117-0.265,0.307-0.491,0.568
		c1.785,2.043,3.855,3.534,6.357,4.452c-0.031,0.11-0.064,0.221-0.096,0.331c-0.852,0.043-1.712,0.186-2.551,0.107
		c-1.454-0.135-2.896-0.394-4.34-0.629c-0.417-0.068-0.797-0.171-1.021,0.41c1.324,2.27,3.805,3.13,6.058,4.654
		c-2.527,0.767-4.679-0.273-6.971-0.66c-0.068,0.109-0.146,0.22-0.209,0.337c-0.062,0.111-0.114,0.229-0.163,0.333
		c1.656,1.883,3.846,2.993,6.184,4.448c-0.639,0.09-0.995,0.198-1.347,0.181c-1.551-0.076-3.101-0.208-4.651-0.276
		c-0.398-0.018-0.806,0.122-1.26,0.199c0.73,1.911,1.945,3.07,3.665,3.834c1.161,0.517,2.207,1.292,3.261,2.101
		c-2.151,0.418-4.13-0.321-6.39-0.904c-0.124,0.132-0.322,0.341-0.51,0.54c2.197,2.569,5.057,3.833,8.042,5.418
		c-2.59,1.038-4.944,1.096-7.324,0.87c-0.2,1.042,0.464,1.163,1.053,1.331c3.005,0.857,6.068,1.345,9.189,1.48
		c0.133,0.005,0.262,0.042,0.408,0.066c-1.757,0.513-3.737,0.516-5.412,0.2c-2.221-0.418-4.46-0.729-6.693-1.072
		c-0.211-0.032-0.437,0.035-0.658,0.056c-0.543,0.637-0.632,1.347-0.56,2.135c0.11,1.189,0.228,2.387,0.206,3.579
		c-0.033,1.75,0.092,3.469,0.645,5.133c0.868,2.612,1.666,5.255,2.697,7.802c0.56,1.379,1.535,2.589,2.33,3.872
		c0.157,0.255,0.344,0.491,0.631,0.899c-2.438-0.513-3.633-2.671-5.84-3.709c-0.018,0.596-0.113,0.979-0.024,1.314
		c0.372,1.414,0.784,2.819,1.216,4.216c0.143,0.463,0.323,0.933,0.585,1.336c1.471,2.271,2.769,4.666,4.73,6.585
		c0.197,0.192,0.319,0.461,0.478,0.695c-0.067,0.074-0.133,0.146-0.2,0.221c-2.081-1.46-4.16-2.92-6.374-4.474
		c-0.168,0.103-0.436,0.265-0.686,0.417c1.035,3.576,3.129,6.249,6.225,8.518c-1.02,0.197-1.729-0.057-2.376-0.283
		c-0.914-0.319-1.777-0.796-2.641-1.245C89.274,162.202,88.857,162.009,88.373,162.708z M118.578,54.867
		c-0.039-0.772-0.031-2.29-0.208-3.786c-0.438-3.731-3.608-6.541-7.768-5.6c-0.478,0.107-0.952,0.222-1.437,0.291
		c-2.088,0.294-3.804,1.238-5.372,2.663c-2.276,2.067-4.796,3.816-7.839,4.614c-0.814,0.214-1.646,0.375-2.478,0.511
		c-1.877,0.309-3.201,1.413-3.868,3.095c-0.498,1.255-0.775,2.661-0.829,4.012c-0.071,1.852,0.09,3.724,0.292,5.572
		c0.178,1.638,0.705,3.158,1.681,4.566c0.719,1.035,1.279,2.279,1.539,3.507c0.467,2.205,0.686,4.466,0.953,6.71
		c0.241,2.029,1.271,3.609,2.83,4.795c1.796,1.363,3.824,2.254,6.159,2.114c2.073-0.124,4.024-0.604,5.686-1.965
		c1.566-1.282,2.782-2.857,3.9-4.517c1.433-2.126,2.43-4.421,2.656-7.013c0.128-1.467,0.484-2.862,1.139-4.213
		c0.695-1.433,1.345-2.923,1.741-4.459C118.209,62.442,118.528,59.035,118.578,54.867z"/>
	<path fill-rule="evenodd" clip-rule="evenodd" fill="#e2e6bc" class="fill" d="M59.824,29.638c-0.181-2.196-0.375-4.181-0.492-6.171
		c-0.058-0.96,0.459-1.698,1.235-2.235c1.313-0.909,2.659-1.77,3.953-2.705c2.387-1.723,5.003-3.045,7.659-4.251
		c2.173-0.986,4.479-1.706,6.766-2.409c2.075-0.637,4.195-1.13,6.312-1.612c1.167-0.266,2.363-0.433,3.555-0.552
		c4.603-0.461,9.215-0.692,13.835-0.37c1.76,0.123,3.519,0.266,5.279,0.505c2.994,0.406,5.948,1.008,8.899,1.587
		c2.82,0.552,5.604,1.369,8.331,2.289c3.235,1.092,6.401,2.394,9.575,3.659c1.316,0.524,2.591,1.161,3.857,1.803
		c0.476,0.243,0.871,0.646,1.305,0.976c-0.048,0.081-0.094,0.161-0.143,0.241c-1.93-0.618-3.858-1.251-5.796-1.848
		c-1.186-0.366-2.37-0.774-3.587-0.997c-3.798-0.697-7.602-1.382-11.424-1.933c-1.701-0.246-3.448-0.201-5.176-0.215
		c-2.131-0.018-4.266,0.094-6.396,0.053c-3.836-0.074-7.624,0.413-11.414,0.896c-1.495,0.191-2.998,0.354-4.486,0.594
		c-1.486,0.24-2.98,0.474-4.431,0.864c-3.556,0.958-7.116,1.907-10.614,3.05c-2.097,0.685-4.054,1.747-5.96,2.92
		c-2.868,1.765-5.865,3.323-8.814,4.958C61.121,29.031,60.559,29.277,59.824,29.638z"/>
	<path fill-rule="evenodd" clip-rule="evenodd" fill="#e2e6bc" class="fill" d="M63.5,123.903c-0.811-0.17-1.564-0.329-2.34-0.491
		c0.126-2.134,0.246-4.15,0.349-5.886c-0.169-1.157-0.41-2.057-0.414-2.956c-0.015-4.667-0.013-9.333,0.067-13.999
		c0.059-3.375,0.255-6.746,0.37-10.12c0.068-1.995,0.062-3.993,0.147-5.987c0.168-3.949,0.385-7.897,0.565-11.846
		c0.188-4.174,0.355-8.349,0.537-12.524c0.054-1.243,0.144-2.484,0.192-3.728c0.125-3.15,0.264-6.3,0.345-9.451
		c0.106-4.219,0.151-8.439,0.251-12.657c0.03-1.286,0.154-2.57,0.24-3.922c0.515-0.334,1.012-0.659,1.638-1.066
		c0.213,1.977,0.308,3.728,0.158,5.506c-0.131,1.585-0.055,3.187-0.101,4.779c-0.082,2.75-0.184,5.5-0.282,8.25
		c-0.198,5.546-0.463,11.091-0.586,16.639c-0.165,7.506-0.21,15.014-0.329,22.521c-0.082,5.152-0.235,10.302-0.293,15.455
		c-0.042,3.641,0.027,7.284,0.035,10.926c0.004,2.347,0.014,4.694-0.035,7.04C63.991,121.52,63.961,122.671,63.5,123.903z"/>
	<path fill-rule="evenodd" clip-rule="evenodd" fill="#e2e6bc" class="fill" d="M135.308,118.576c-0.429,0.989-1.041,1.317-1.7,1.584
		c-1.192,0.483-2.383,0.971-3.585,1.431c-0.414,0.158-0.72,0.338-0.593,0.927c1.115,0.112,2.243,0.293,3.375,0.322
		c1.123,0.029,2.25-0.094,3.409-0.002c-1.499,1.155-3.211,1.661-5.123,1.711c-0.075,0.271-0.142,0.511-0.213,0.767
		c1.228,0.4,2.387,0.779,3.548,1.159c-0.008,0.104-0.015,0.208-0.022,0.312c-0.411,0.044-0.824,0.137-1.235,0.126
		c-1.764-0.049-3.526-0.137-5.291-0.191c-1.107-0.034-2.219-0.001-3.324-0.063c-0.6-0.034-1.191-0.204-1.668-0.291
		c-0.641-1.027-0.593-1.839-0.222-2.804c1.558-4.04,2.583-8.201,2.565-12.572c-0.005-1.064,0.086-2.129,0.162-3.19
		c0.192-2.636-0.186-5.223-0.561-7.818c-0.315-2.184-0.496-4.386-0.76-6.793c0.924,0.468,1.193,1.122,1.454,1.748
		c0.787,1.894,1.413,3.833,1.561,5.901c0.032,0.466,0.181,0.926,0.278,1.402c1.182-0.126,1.132-1.277,1.832-1.82
		c0.973,2.546-0.419,4.805-0.755,7.275c1.705-0.226,2.807-1.292,4.153-2.123c0.336,0.643,0.186,1.203,0.017,1.794
		c-0.551,1.927-1.626,3.534-2.916,5.032c-0.321,0.374-0.535,0.84-0.933,1.479c2.075,0.103,3.772-0.28,5.735-0.861
		c-0.253,0.509-0.35,0.823-0.536,1.065c-1.137,1.47-2.72,2.401-4.206,3.449c-0.319,0.226-0.551,0.576-0.9,0.954
		C131.039,119.408,133.049,118.976,135.308,118.576z"/>
	<path fill-rule="evenodd" clip-rule="evenodd" fill="#e2e6bc" class="fill" d="M61.541,139.599c0.602,0.174,1.062,0.308,1.619,0.469
		c0.084,2.613,0.197,5.093,0.236,7.574c0.068,4.436,0.131,8.874,0.122,13.309c-0.007,3.019-0.171,6.036-0.208,9.054
		c-0.038,2.968-0.005,5.936-0.002,8.903c0,1.056,0,2.111,0,3.256c-0.371,0.023-0.653,0.041-0.945,0.06
		C61.393,168.088,61.296,154.001,61.541,139.599z"/>
	<path fill-rule="evenodd" clip-rule="evenodd" fill="#e2e6bc" class="fill" d="M58.525,119.178c-0.092,1.604-0.434,2.781-1.302,3.988
		c-0.986,1.371-2.089,2.911-1.474,4.882c0.166,0.537,0.131,1.136,0.189,1.727c-0.705,0.894-0.881,1.843-0.348,2.718
		c-0.132,0.866-0.245,1.6-0.359,2.334c0.078-0.008,0.156-0.016,0.234-0.024c0.306,0.864,0.61,1.729,0.918,2.593
		c0.045,0.124,0.071,0.281,0.161,0.36c1.111,0.977,1.156,2.382,1.349,3.663c0.318,2.129,0.959,4.137,1.823,6.09
		c0.423,0.958,0.493,1.622,0.244,2.926c-0.236-0.145-0.473-0.234-0.633-0.398c-0.524-0.543-1.049-1.089-1.519-1.677
		c-0.902-1.125-1.486-2.387-1.747-3.831c-0.433-2.398-0.896-4.796-1.478-7.161c-1.385-5.616-1.094-10.995,1.986-16.046
		C57.046,120.544,57.364,119.644,58.525,119.178z"/>
	<path fill-rule="evenodd" clip-rule="evenodd" fill="#e2e6bc" class="fill" d="M138.084,136.236c-0.565-0.286-1.096-0.555-1.666-0.843
		c-0.683,0.58-1.277,1.085-1.938,1.645c-0.531-0.053-0.49-0.521-0.457-0.968c0.065-0.86-0.161-1.581-0.981-2.077
		c-0.919-0.05-1.886-0.103-2.896-0.158c-0.363-1.17-1.001-2.028-2.052-2.504c-0.587-0.549-1.174-1.098-1.777-1.662
		c0.068-0.511,0.471-0.414,0.8-0.341c1.469,0.324,2.935,0.663,4.398,1.016c2.335,0.564,4.589,1.354,6.695,2.524
		c0.381,0.212,0.743,0.456,1.103,0.678C139.288,134.705,138.967,135.616,138.084,136.236z"/>
	<path fill-rule="evenodd" clip-rule="evenodd" fill="#e2e6bc" class="fill" d="M107.317,126.004c3.936-0.904,7.87-1.809,12.135-2.79
		c-0.278,0.501-0.364,0.848-0.585,1.002c-0.275,0.192-0.657,0.255-1.001,0.324c-2.604,0.529-5.203,1.08-7.817,1.549
		c-0.898,0.161-1.834,0.112-2.752,0.159C107.303,126.168,107.311,126.086,107.317,126.004z"/>
	<path fill-rule="evenodd" clip-rule="evenodd" fill="#e2e6bc" class="fill" d="M125.599,128.99c-0.626,1.094-1.133,1.984-1.579,2.764
		c-1.647,0.172-1.647,0.172-2.268-1.027c0.463-0.645,0.963-1.345,1.514-2.112C124,128.733,124.669,128.841,125.599,128.99z"/>
	<path fill-rule="evenodd" clip-rule="evenodd" fill="#e2e6bc" class="fill" d="M127.896,132.407c0.355,0.324,0.634,0.577,0.855,0.779
		c-0.12,2.255-0.949,3.519-2.443,3.837C126.065,136.085,126.684,134.221,127.896,132.407z"/>
	<path fill-rule="evenodd" clip-rule="evenodd" fill="#e2e6bc" class="fill" d="M61.118,126.994c-0.083,0.543-0.149,0.973-0.209,1.371
		c-0.851,0.441-0.999-0.406-1.698-0.792c-0.66-0.162-1.592-0.393-2.66-0.657c0.095-0.331,0.193-0.674,0.33-1.149
		C58.352,126.158,59.794,126.091,61.118,126.994z"/>
	<path fill-rule="evenodd" clip-rule="evenodd" fill="#e2e6bc" class="fill" d="M130.779,139.044c0.414-1.489,0.801-2.878,1.204-4.325
		c0.754-0.002,1.124,0.4,1.031,1.064c-0.128,0.919-0.341,1.834-0.62,2.72C132.195,139.146,131.669,139.339,130.779,139.044z"/>
	<path fill-rule="evenodd" clip-rule="evenodd" fill="#e2e6bc" class="fill" d="M125.479,137.84c0.504,0.046,0.849,0.078,1.292,0.118
		c-0.225,1.367-0.788,2.505-1.515,3.729c-0.456-0.269-0.811-0.478-1.293-0.761C124.487,139.862,124.965,138.889,125.479,137.84z"/>
	<path fill-rule="evenodd" clip-rule="evenodd" fill="#e2e6bc" class="fill" d="M69.081,130.799c-1.567,0.36-2.841,0.445-4.241,0.02
		c0.167-0.37,0.283-0.627,0.376-0.833c1.144-0.104,2.192-0.199,3.392-0.308C68.736,129.982,68.872,130.305,69.081,130.799z"/>
	<path fill-rule="evenodd" clip-rule="evenodd" fill="#e2e6bc" class="fill" d="M57.701,135.171c-0.334,0.044-0.633,0.084-1.069,0.143
		c-0.12-0.436-0.237-0.854-0.388-1.393c0.877,0.343,1.536,0.683,2.236,0.853c0.718,0.173,1.505,0.112,2.069,1.055
		c-0.2,0.255-0.447,0.572-0.741,0.946C59.041,136.19,58.415,135.714,57.701,135.171z"/>
	<path fill-rule="evenodd" clip-rule="evenodd" fill="#e2e6bc" class="fill" d="M134.267,144.261c0.306-1.183,0.576-2.235,0.867-3.359
		c0.428,0.085,0.707,0.141,0.962,0.193c0.148,1.413,0.045,1.873-0.723,3.166C135.075,144.261,134.723,144.261,134.267,144.261z"/>
	<path fill-rule="evenodd" clip-rule="evenodd" fill="#e2e6bc" class="fill" d="M60.449,131.229c-0.196,0.481-0.292,0.717-0.402,0.99
		c-1.156-0.029-2.207-1.373-3.327-0.132c-0.513-0.955-0.513-0.955,0.292-1.666C58.089,130.674,59.189,130.933,60.449,131.229z"/>
	<path fill-rule="evenodd" clip-rule="evenodd" fill="#e2e6bc" class="fill" d="M62.227,127.101c0.795-0.121,1.35-0.205,1.955-0.297
		c0.275,0.876,0.084,1.561-0.289,2.284c-0.532-0.099-1.042-0.194-1.666-0.31C62.227,128.224,62.227,127.693,62.227,127.101z"/>
	<path fill-rule="evenodd" clip-rule="evenodd" fill="#e2e6bc" class="fill" d="M129.326,142.854c0.363-0.959,0.682-1.799,1.032-2.724
		c0.414,0,0.817,0,1.238,0C131.093,142.488,130.665,143.072,129.326,142.854z"/>
	<path fill-rule="evenodd" clip-rule="evenodd" fill="#e2e6bc" class="fill" d="M135.481,140.015c-0.106-1.187,0.13-2.144,0.459-3.071
		c0.075-0.214,0.407-0.337,0.658-0.53C137.148,138.016,136.782,139.358,135.481,140.015z"/>
	<path fill-rule="evenodd" clip-rule="evenodd" fill="#e2e6bc" class="fill" d="M60.462,129.528c1.054,0.193,2.107,0.387,3.233,0.593
		c-0.04,0.468-0.067,0.803-0.091,1.085C62.98,131.597,61.01,130.703,60.462,129.528z"/>
	<path fill-rule="evenodd" clip-rule="evenodd" fill="#e2e6bc" class="fill" d="M65.155,125.585c1.265-0.984,2.571-0.396,3.892-0.543
		C68.508,126.339,66.784,126.55,65.155,125.585z"/>
	<path fill-rule="evenodd" clip-rule="evenodd" fill="#e2e6bc" class="fill" d="M122.549,144.556c-0.495-1.165-0.275-1.617,1.172-2.561
		c0.164,0.063,0.373,0.121,0.558,0.224c0.145,0.08,0.261,0.214,0.413,0.344C124.175,143.438,123.593,144.171,122.549,144.556z"/>
	<path fill-rule="evenodd" clip-rule="evenodd" fill="#e2e6bc" class="fill" d="M138.687,140.774c-0.107,1.005-0.192,1.814-0.295,2.773
		c-0.526-0.053-0.918-0.093-1.379-0.139c0.081-0.934,0.147-1.706,0.219-2.543C137.68,140.836,138.059,140.813,138.687,140.774z"/>
	<path fill-rule="evenodd" clip-rule="evenodd" fill="#e2e6bc" class="fill" d="M138.029,136.913c0.24,0.016,0.372,0.003,0.489,0.04
		c0.12,0.038,0.226,0.124,0.429,0.242c0,0.396,0.022,0.829-0.005,1.258c-0.026,0.392-0.105,0.781-0.178,1.293
		c-0.365,0.048-0.718,0.094-1.211,0.159C137.731,138.789,137.879,137.857,138.029,136.913z"/>
	<path fill-rule="evenodd" clip-rule="evenodd" fill="#e2e6bc" class="fill" d="M60.48,125.01c0.069-0.139,0.145-0.291,0.228-0.46
		c1.105-0.071,2.054,0.257,3.002,0.818C62.734,126.383,61.89,126.264,60.48,125.01z"/>
	<path fill-rule="evenodd" clip-rule="evenodd" fill="#e2e6bc" class="fill" d="M67.713,134.855c-1.052,0.719-2.166,0.631-3.585,0.527
		c0.336-0.439,0.473-0.802,0.667-0.837C65.773,134.37,66.768,134.28,67.713,134.855z"/>
	<path fill-rule="evenodd" clip-rule="evenodd" fill="#e2e6bc" class="fill" d="M121.204,132.28c0.468,0.262,0.832,0.467,1.313,0.737
		c-0.937,0.639-1.586,1.487-3.014,1.743C120.15,133.817,120.64,133.104,121.204,132.28z"/>
	<path fill-rule="evenodd" clip-rule="evenodd" fill="#e2e6bc" class="fill" d="M59.223,128.554c-0.178,0.571-0.285,0.921-0.448,1.441
		c-0.723-0.295-1.309-0.534-1.942-0.792c0.084-0.409,0.143-0.693,0.237-1.155C57.764,128.212,58.38,128.356,59.223,128.554z"/>
	<path fill-rule="evenodd" clip-rule="evenodd" fill="#e2e6bc" class="fill" d="M58.982,122.769c0.11-0.821,0.113-1.612,0.732-2.206
		c0.894,0.694,0.884,1.323-0.052,2.701C59.432,123.097,59.203,122.931,58.982,122.769z"/>
	<path fill-rule="evenodd" clip-rule="evenodd" fill="#e2e6bc" class="fill" d="M129.423,143.727c0.285,1.7-0.089,2.441-1.354,2.691
		C128.044,145.31,128.533,144.53,129.423,143.727z"/>
	<path fill-rule="evenodd" clip-rule="evenodd" fill="#e2e6bc" class="fill" d="M133.897,147.839c-0.301-1.355,0.05-2.214,0.981-2.399
		C135.225,146.583,134.945,147.267,133.897,147.839z"/>
	<path fill-rule="evenodd" clip-rule="evenodd" fill="#e2e6bc" class="fill" d="M62.937,134.637c-0.702,0.661-1.54,0.483-2.396-0.51
		C61.32,133.379,61.756,133.473,62.937,134.637z"/>
	<path fill-rule="evenodd" clip-rule="evenodd" fill="#e2e6bc" class="fill" d="M59.095,125.41c-0.583-0.264-1.112-0.505-1.656-0.752
		c0.691-1.185,0.899-1.196,2.06-0.205c-0.013,0.132-0.008,0.306-0.055,0.463C59.407,125.032,59.301,125.126,59.095,125.41z"/>
	<path fill-rule="evenodd" clip-rule="evenodd" fill="#e2e6bc" class="fill" d="M63.847,132.175c0,0.625,0,0.921,0,1.17
		c-0.407,0.312-1.547-0.229-2.553-1.169C62.208,131.573,62.929,132.683,63.847,132.175z"/>
	<path fill-rule="evenodd" clip-rule="evenodd" fill="#e2e6bc" class="fill" d="M66.62,138.876c-0.901,0.781-1.825,0.608-2.976,0.086
		C64.743,138.199,65.689,138.688,66.62,138.876z"/>
	<path fill-rule="evenodd" clip-rule="evenodd" fill="#e2e6bc" class="fill" d="M57.416,133.168c0.755-0.792,1.121-0.73,2.199,0.297
		C58.906,134.155,58.668,134.128,57.416,133.168z"/>
	<path fill-rule="evenodd" clip-rule="evenodd" fill="#e2e6bc" class="fill" d="M60.554,137.379c0.586,0.114,1.089,0.212,1.681,0.327
		c-0.033,0.328-0.062,0.605-0.088,0.854C60.595,138.914,60.172,138.631,60.554,137.379z"/>
	<path fill-rule="evenodd" clip-rule="evenodd" fill="#e2e6bc" class="fill" d="M127.745,147.352c0.127,1.345-0.144,1.842-1.289,1.991
		c0.364-0.769,0.678-1.431,0.992-2.093C127.547,147.284,127.646,147.318,127.745,147.352z"/>
	<path fill-rule="evenodd" clip-rule="evenodd" fill="#e2e6bc" class="fill" d="M137.066,149.983c-0.493-1.074-0.434-1.797,0.244-2.631
		C137.738,148.28,137.669,149.006,137.066,149.983z"/>
	<path fill-rule="evenodd" clip-rule="evenodd" fill="#e2e6bc" class="fill" d="M137.567,144.395c0.133,0.142,0.368,0.276,0.379,0.428
		c0.045,0.598,0.148,1.231-0.396,1.799c-0.677-0.708-0.19-1.433-0.239-2.108C137.396,144.474,137.482,144.434,137.567,144.395z"/>
	<path fill-rule="evenodd" clip-rule="evenodd" fill="#e2e6bc" class="fill" d="M117.867,136.993c0.427-0.894,0.759-1.487,1.79-1.384
		C119.362,136.442,118.877,136.814,117.867,136.993z"/>
	<path fill-rule="evenodd" clip-rule="evenodd" fill="#e2e6bc" class="fill" d="M63.094,137.054c-0.397-0.375-1.139-0.091-1.468-0.926
		c0.524,0,0.961,0,1.497,0c0.06,0.236,0.125,0.497,0.192,0.759C63.242,136.942,63.168,136.998,63.094,137.054z"/>
	<path fill-rule="evenodd" clip-rule="evenodd" fill="#e2e6bc" class="fill" d="M59.082,137.692c-0.894,0.092-1.463,0.063-1.595-0.87
		C58.315,136.568,58.545,137.178,59.082,137.692z"/>
	<path fill-rule="evenodd" clip-rule="evenodd" fill="#e2e6bc" class="fill" d="M60.264,119.501c-0.237-0.077-0.391-0.127-0.688-0.224
		c0.188-0.564,0.363-1.079,0.606-1.795C60.712,118.293,60.345,118.856,60.264,119.501z"/>
	<path fill-rule="evenodd" clip-rule="evenodd" fill="#e2e6bc" class="fill" d="M65.579,14.976c0.071,0.708,0.071,0.708-0.658,0.948
		C65,15.299,65,15.299,65.579,14.976z"/>
	<path fill-rule="evenodd" clip-rule="evenodd" fill="#e2e6bc" class="fill" d="M133.907,149.056c-0.181,0.465-0.362,0.929-0.542,1.395
		c-0.126-0.046-0.252-0.091-0.379-0.136c0.162-0.472,0.324-0.943,0.484-1.416C133.616,148.951,133.762,149.003,133.907,149.056z"/>
	<path fill-rule="evenodd" clip-rule="evenodd" fill="#e2e6bc" class="fill" d="M120.79,146.37c0.264-0.335,0.527-0.67,0.95-1.206
		c0.125,0.9-0.266,1.183-0.588,1.506C121.032,146.57,120.912,146.471,120.79,146.37z"/>
	<path fill-rule="evenodd" clip-rule="evenodd" fill="#e2e6bc" class="fill" d="M65.912,118.047c0.036,0.018,0.102,0.048,0.1,0.051
		c-0.025,0.065-0.057,0.128-0.094,0.187c-0.003,0.004-0.065-0.031-0.099-0.048C65.85,118.174,65.881,118.11,65.912,118.047z"/>
	<path fill-rule="evenodd" clip-rule="evenodd" fill="#e2e6bc" class="fill" d="M103.809,126.295
		C103.653,126.261,103.727,126.277,103.809,126.295C103.726,126.305,103.651,126.313,103.809,126.295z"/>
	<path fill-rule="evenodd" clip-rule="evenodd" fill="#e2e6bc" class="fill" d="M94.523,70.712c-0.917-0.976-1.611-1.844-2.438-2.559
		c-1.146-0.993-1.426-2.384-1.607-3.692c-0.247-1.789-0.198-3.633-0.119-5.447c0.062-1.496,1.431-2.909,2.872-3.071
		c3.911-0.44,7.122-2.285,10.057-4.78c2.167-1.841,4.676-3.078,7.477-3.604c1.817-0.341,3.343,0.421,4.501,1.762
		c0.386,0.448,0.506,1.224,0.541,1.862c0.111,2.041,0.137,4.087,0.172,6.131c0.025,1.373,0.123,2.757-0.016,4.114
		c-0.172,1.659-0.749,3.259-1.995,4.412c-1.656,1.534-2.058,3.415-2.085,5.542c-0.023,1.905-0.197,3.812-0.38,5.71
		c-0.251,2.605-1.697,4.428-3.958,5.623c-2.577,1.36-5.309,1.714-8.14,1.011c-1.451-0.36-2.697-1.116-3.649-2.298
		c-0.516-0.641-0.803-1.359-0.834-2.198c-0.096-2.526-0.223-5.052-0.338-7.578C94.568,71.299,94.538,70.947,94.523,70.712z
		 M97.081,74.267c-0.438,1.778-0.007,3.467,0.767,5.105c0.374,0.792,0.996,1.325,1.747,1.771c1.656,0.981,3.316,0.603,5.035,0.216
		c3.844-0.866,5.959-4.703,5.782-8.379c-0.052-1.066-0.196-2.222-1.166-3.188c-0.396,0.141-0.872,0.237-1.269,0.469
		c-0.533,0.312-1.033,0.698-1.495,1.111c-1.457,1.302-3.153,1.938-5.102,1.92c-0.711-0.006-1.423,0.038-2.132,0.013
		C98.385,73.274,97.701,73.607,97.081,74.267z M107.196,67.339c1.497,0.28,2.374-0.278,3.033-1.501
		c1.288-2.4,1.53-5.061,2.055-7.651c0.175-0.862,0.216-1.767,0.191-2.649c-0.017-0.565,0.068-1.264-0.86-1.745
		c-0.139,0.223-0.279,0.503-0.467,0.748c-1.179,1.529-2.606,2.8-4.276,3.746c-0.787,0.445-1.198,1.052-1.356,1.851
		c-0.156,0.779-0.309,1.596-0.24,2.376C105.431,64.286,105.707,66.053,107.196,67.339z M95.186,65.158
		c1.298,0.375,1.807,0.358,2.491-0.06c1.571-0.958,2.53-3.211,2.171-5.085c-1.907-0.176-3.816-0.353-5.785-0.534
		C93.311,60.802,93.746,63.27,95.186,65.158z M104.223,70.832c0.684-1.823-0.477-4.258-2.444-5.195
		c-0.397,1.806-1.102,3.513-1.04,5.448C102.045,72.022,103.116,71.308,104.223,70.832z"/>
	<path fill-rule="evenodd" clip-rule="evenodd" fill="#e2e6bc" class="fill" d="M100.927,74.935c0.423,0,0.814,0,1.256,0
		c0.37,0.883-0.113,1.645-0.167,2.544c-0.547,0-1.002,0-1.505,0C100.232,76.523,100.375,75.705,100.927,74.935z"/>
	<path fill-rule="evenodd" clip-rule="evenodd" fill="#e2e6bc" class="fill" d="M103.312,80.422c-0.151-0.664-0.282-1.245-0.439-1.933
		c0.551-0.256,1.047-0.486,1.729-0.802c0.106,0.89,0.194,1.631,0.295,2.475C104.346,80.252,103.893,80.327,103.312,80.422z"/>
	<path fill-rule="evenodd" clip-rule="evenodd" fill="#e2e6bc" class="fill" d="M105.66,76.441c0-0.964,0-1.637,0-2.33
		c0.377-0.3,0.711-0.565,1.099-0.875c0.559,0.755,0.174,1.473,0.171,2.231C106.594,75.725,106.256,75.984,105.66,76.441z"/>
	<path fill-rule="evenodd" clip-rule="evenodd" fill="#e2e6bc" class="fill" d="M105.545,77.396c0.471-0.27,0.837-0.479,1.405-0.804
		c0.072,0.825,0.128,1.458,0.194,2.213c-0.376,0.289-0.769,0.591-1.365,1.049C105.689,78.909,105.625,78.226,105.545,77.396z"/>
	<path fill-rule="evenodd" clip-rule="evenodd" fill="#e2e6bc" class="fill" d="M104.64,76.678c-0.445,0.185-0.92,0.382-1.614,0.671
		c0.096-0.889,0.172-1.571,0.255-2.344c0.426-0.162,0.818-0.311,1.359-0.517C104.64,75.292,104.64,75.931,104.64,76.678z"/>
	<path fill-rule="evenodd" clip-rule="evenodd" fill="#e2e6bc" class="fill" d="M99.714,74.832c-0.128,1.006-0.226,1.77-0.333,2.624
		c-0.331-0.081-0.53-0.13-0.862-0.212c-0.101-0.702-0.201-1.42-0.329-2.319C98.705,74.893,99.099,74.87,99.714,74.832z"/>
	<path fill-rule="evenodd" clip-rule="evenodd" fill="#e2e6bc" class="fill" d="M101.914,78.535c0.182,0.739,0.313,1.279,0.48,1.946
		c-0.558,0-0.966,0-1.49,0c-0.15-0.579-0.289-1.111-0.469-1.806C100.981,78.624,101.389,78.585,101.914,78.535z"/>
	<path fill-rule="evenodd" clip-rule="evenodd" fill="#e2e6bc" class="fill" d="M108.919,73.46c-0.174,0.217-0.433,0.543-0.692,0.869
		c-0.102-0.063-0.201-0.127-0.301-0.19c0-0.492,0-0.984,0-1.66c0.188-0.216,0.486-0.56,0.993-1.143
		C108.919,72.171,108.919,72.67,108.919,73.46z"/>
	<path fill-rule="evenodd" clip-rule="evenodd" fill="#e2e6bc" class="fill" d="M108.83,75.005c-0.193,0.782-0.325,1.307-0.494,1.992
		C107.769,75.882,107.769,75.882,108.83,75.005z"/>
	<path fill-rule="evenodd" clip-rule="evenodd" fill="#e2e6bc" class="fill" d="M99.16,79.402c-0.094-0.274-0.189-0.548-0.285-0.823
		c0.11-0.045,0.221-0.09,0.33-0.136c0.126,0.277,0.253,0.554,0.379,0.832C99.443,79.317,99.301,79.359,99.16,79.402z"/>
</g>
</svg>
