<svg version="1.1" id="svg" xmlns="http://www.w3.org/2000/svg" xmlns:xlink="http://www.w3.org/1999/xlink" x="0px" y="0px"
	 width="200px" height="200px" viewBox="0 0 200 200" enable-background="new 0 0 200 200" xml:space="preserve">
<path class="stroke" fill="#472664"  d="M140.07,97.078c-0.166-1.062-0.453-2.13-0.854-3.127c-0.856-2.129-2.162-3.978-4.062-5.298
	c-1.432-0.995-2.968-1.84-4.383-2.706c0.333-1.72,0.683-3.532,1.036-5.363c0.531,0.045,0.995,0.085,1.49,0.128
	c0.1-0.274,0.183-0.499,0.288-0.786c-0.557-0.415-1.087-0.81-1.505-1.122c-0.324-1.019-0.61-1.915-0.933-2.927
	c0.335-0.65,0.731-1.417,1.128-2.185c-0.073-0.086-0.145-0.174-0.218-0.261c-0.607,0.243-1.214,0.487-1.77,0.709
	c-1.118-1.47-2.206-2.898-3.397-4.464c-0.055-0.628-0.15-1.485-0.205-2.344c-0.118-1.866-1.583-2.445-2.969-2.993
	c-1.118-0.443-2.328-0.653-3.35-0.927c-1.087-1.091-2.125-2.132-3.306-3.318c0.13-0.707,0.309-1.631,0.469-2.558
	c0.377-2.182,0.458-4.354-0.781-6.312c-0.936-1.479-1.996-2.879-3.01-4.309c-0.675-0.954-1.825-1.671-1.492-3.03
	c-0.357-0.444-0.665-0.827-0.985-1.224c-0.258,0.011-0.503,0.022-0.696,0.031c-1.587,2.825-3.953,4.732-6.672,6.245
	c-1.085,0.604-2.29,1.013-3.328,1.683c-1.492,0.962-2.883,2.078-4.311,3.137c-0.365,0.271-0.705,0.576-1.043,0.855
	c-0.361-0.542-0.654-0.981-1.037-1.557c-0.717,1.33-1.33,2.469-1.971,3.659c-1.152-0.372-2.256-0.727-3.423-1.103
	c-0.074,0.19-0.245,0.412-0.19,0.523c0.5,1.03,1.039,2.042,1.604,3.129c-0.594,1.119-2.127,1.774-2.481,3.409
	c0.435,0,0.657,0,0.771,0c-0.17,1.225-0.336,2.416-0.504,3.625c-2.189,0.056-4.128,0.878-6.047,1.879
	c-1.995,1.039-3.439,2.507-4.18,4.633c-0.412,0.055-0.738,0.098-1.162,0.153c-0.677-0.853-1.347-1.729-2.058-2.57
	c-0.173-0.205-0.482-0.294-0.99-0.586c-0.157,1.605-0.285,2.916-0.414,4.234c-1.384,0.326-2.744,0.645-4.12,0.969
	c-0.025,0.295-0.044,0.509-0.069,0.819c0.542,0.316,1.062,0.686,1.637,0.936c0.559,0.244,1.172,0.364,1.542,0.474
	c-0.689,1.275-1.537,2.388-1.9,3.641c-0.377,1.303-0.211,2.723,1.078,3.766c-0.413,0.313-0.671,0.568-0.979,0.733
	c-2.449,1.316-4.899,2.633-7.367,3.914c-1.975,1.025-3.762,2.292-4.681,4.371c-0.981,2.22-0.856,4.575-0.194,6.859
	c0.6,2.072,1.952,3.592,4.085,4.595c0.5,2.038,1.021,4.164,1.542,6.291c1.057,4.314,2.124,8.626,3.165,12.945
	c0.45,1.861,0.856,3.735,1.265,5.606c0.391,1.789,0.78,3.577,1.133,5.373c0.219,1.118,0.376,2.249,0.547,3.376
	c0.389,2.556,0.779,5.112,1.145,7.671c0.085,0.593,0.408,0.912,0.952,1.013c2.105,0.39,4.201,0.871,6.323,1.111
	c2.321,0.262,4.671,0.249,7.001,0.441c2.522,0.209,5.033,0.61,7.56,0.75c1.833,0.103,3.684-0.039,5.521-0.155
	c1.527-0.095,3.05-0.293,4.569-0.48c2.156-0.265,4.307-0.563,6.46-0.845c3.64-0.477,7.279-0.955,10.92-1.428
	c0.291-0.038,0.585-0.048,1.119-0.091c1.223-0.289,1.392-1.611,1.768-2.755c0.287-0.87,0.438-1.784,0.692-2.665
	c0.592-2.052,1.226-4.091,1.814-6.143c0.804-2.806,1.562-5.625,2.376-8.428c0.966-3.324,1.961-6.64,2.968-9.952
	c0.313-1.032,0.757-2.026,1.047-3.063c0.655-2.353,1.252-4.721,1.783-6.737c1.422-1.069,2.685-1.855,3.75-2.853
	C139.596,102.217,140.5,99.842,140.07,97.078z"/>
<path fill-rule="evenodd" clip-rule="evenodd" fill="#f8bfe9" class="fill" d="M69.499,101.768c-0.747-0.208-1.493-0.415-2.003-0.558
	c-0.534-0.347-0.874-0.568-1.087-0.707c-0.925,0.562-1.674,1.018-2.416,1.469c-0.365-0.203-0.677-0.376-1.113-0.618
	c-0.408,0.305-0.836,0.624-1.35,1.007c-0.25-0.283-0.569-0.642-0.722-0.816c0.075-0.833,0.131-1.442,0.189-2.09
	c-0.523-0.035-0.795-0.055-1.12-0.077c-0.079-0.298-0.155-0.583-0.241-0.907c0.53-0.272,1.01-0.518,1.656-0.849
	c0.023-0.067,0.107-0.312,0.232-0.673c-0.688-0.27-1.295-0.507-1.958-0.766c0-0.25,0-0.575,0-0.864
	c0.424-0.068,0.831-0.134,1.408-0.226c-0.194-0.669-0.344-1.182-0.525-1.808c0.099-0.124,0.279-0.348,0.558-0.696
	c0.046,0.456,0.073,0.726,0.12,1.188c0.53-0.067,1.036-0.132,1.559-0.198c0-0.43,0-0.704,0-1.105
	c-0.375-0.128-0.773-0.264-1.292-0.44c0.419-0.346,0.788-0.651,1.173-0.969c0.286,0.225,0.499,0.393,0.837,0.66
	c0.283-0.218,0.582-0.447,0.88-0.677c-0.135-0.361-0.228-0.611-0.341-0.914c0.451-0.299,0.886-0.588,1.28-0.849
	c0.412,0.066,0.759,0.122,1.105,0.177c-0.037-0.087-0.073-0.174-0.109-0.262c0.776-0.506,1.553-1.012,2.347-1.53
	c0.653,1.021,1.291,0.721,1.886,0.252c0.421,0.688,0.811,1.322,1.212,1.977c-0.168,0.185-0.334,0.368-0.606,0.668
	c0.152,0.254,0.354,0.785,0.479,0.767c0.47-0.064,0.916-0.309,1.393-0.495c1.332,0.251,2.763,0.521,4.233,0.798
	c-0.051,0.33-0.095,0.619-0.137,0.889c0.949,0.742,1.566,0.507,2.243-0.817c1.497-0.264,2.998-0.529,4.189-0.74
	c1.715,0.827,3.182,1.536,4.755,2.294c-0.005,0.035-0.035,0.268-0.064,0.49c0.713,0.672,1.083,0.593,1.846-0.384
	c1.321,0,2.671,0.156,3.966-0.044c1.295-0.2,2.561-0.692,3.789-1.183c0.705-0.282,1.261-0.441,1.922,0.073
	c0.498,0.387,1.098,0.641,1.628,0.94c-0.046,0.397-0.086,0.747-0.13,1.121c0.235,0.159,0.436,0.294,0.738,0.498
	c0.33-0.307,0.64-0.594,1.047-0.973c2.692,0.899,5.376,0.919,7.512-1.231c3.465,1.474,6.852,2.73,10.501,1.529
	c3.471-1.143,6.346-3.215,8.355-6.384c0.124,0.034,0.237,0.044,0.324,0.097c0.086,0.052,0.145,0.148,0.244,0.256
	c-0.277,0.105-0.503,0.19-0.724,0.275c-0.271,0.918-0.1,1.121,0.994,1.066c0.164-0.269,0.357-0.586,0.67-1.101
	c1.654,1.425,3.322,2.861,5.009,4.314c-0.316,0.379-0.492,0.592-0.708,0.851c0,0.335,0,0.715,0,1.234
	c0.555-0.104,1.023-0.193,1.555-0.293c0.742,1.461,1.304,3.004,1.135,4.787c-0.964,0.023-1.193,0.625-1.195,1.437
	c0.223,0.2,0.426,0.383,0.742,0.668c-0.726,0.815-1.45,1.628-2.056,2.31c-0.607-0.159-1.106-0.29-1.605-0.42
	c-0.011,0.044-0.022,0.089-0.033,0.134c-0.391-0.21-0.782-0.42-1.151-0.619c-0.185-0.417-0.361-0.817-0.555-1.253
	c-0.342-0.021-0.638-0.039-1.021-0.062c-0.07,0.388-0.131,0.729-0.205,1.141c-0.914,0.318-1.893,0.658-2.877,0.999
	c-0.304-1.202-0.535-1.321-1.592-0.92c-0.126,0.047-0.254,0.119-0.384,0.125c-1.403,0.069-2.815,0.049-4.204,0.223
	c-0.726,0.09-1.41,0.516-2.26,0.848c-0.689-1.552-2.538-1.595-3.989-2.279c0.078-0.425,0.142-0.77,0.25-1.353
	c-0.619-0.027-1.139-0.05-1.66-0.073c-0.046,0.09-0.093,0.181-0.139,0.271c0.166,0.312,0.331,0.625,0.538,1.016
	c-2.104-0.169-3.997,0.275-5.425,1.867c-3.057-1.836-5.986-2.564-8.73-0.295c-0.993-0.74-1.98-1.5-2.992-2.226
	c-1.715-1.231-3.539-1.117-5.407-0.394c-0.527,0.205-1.067,0.377-1.722,0.606c-0.012,0.088-0.043,0.324-0.075,0.574
	c-0.573,0.506-1.155,1.02-1.784,1.575c-1.202-1.429-2.816-1.87-4.563-1.834c-0.623,0.012-1.258,0.285-1.855,0.523
	c-0.641,0.255-1.237,0.621-1.867,0.91c-0.153,0.071-0.355,0.036-0.677,0.06c0.21-0.283,0.334-0.448,0.591-0.794
	c-0.384-0.219-0.739-0.422-1.214-0.693c-0.104,0.49-0.152,0.716-0.2,0.943c-0.745-0.116-1.48-0.23-2.234-0.348
	c-0.267-0.308-0.562-0.648-0.891-1.029c-0.315,0.213-0.538,0.363-0.792,0.535c0.052,0.268,0.097,0.503,0.15,0.778
	c-0.617,0.228-1.229,0.454-1.853,0.684c-0.122-0.252-0.252-0.522-0.412-0.854c-0.26-0.016-0.524-0.032-0.801-0.049
	c-0.124,0.267-0.223,0.48-0.347,0.748c-0.647-0.328-1.251-0.633-1.854-0.938c0.296-0.018,0.593-0.035,0.947-0.056
	c0-0.402,0-0.745,0-1.177c-0.395,0-0.723,0-1.226,0C69.312,101.008,69.405,101.388,69.499,101.768z M132.021,91.477
	c-0.295,0.724-0.229,1.329,0.476,1.581c0.345,0.124,1.097,0.024,1.158-0.151c0.149-0.43,0.173-1.074-0.061-1.427
	C133.197,90.879,132.578,91.162,132.021,91.477z M99.349,101.213c0.603-0.188,1.239-0.436,1.083-1.192
	c-0.063-0.308-0.616-0.74-0.915-0.716c-0.402,0.032-0.998,0.375-1.111,0.716C98.188,100.676,98.689,101.065,99.349,101.213z
	 M137.529,97.469c-0.297-0.275-0.597-0.746-0.99-0.845c-0.227-0.057-0.729,0.438-0.869,0.782c-0.092,0.227,0.158,0.805,0.396,0.913
	C136.657,98.585,137.109,98.232,137.529,97.469z M121.44,100.097c-0.399,0.555-0.715,1.148-0.043,1.595
	c0.266,0.177,0.932,0.114,1.176-0.106c0.633-0.57-0.055-1-0.312-1.489C121.968,100.097,121.699,100.097,121.44,100.097z
	 M62.81,94.904c-0.293,0.726-0.464,1.149-0.752,1.863c0.738,0,1.232,0.102,1.641-0.044c0.199-0.071,0.42-0.709,0.309-0.896
	C63.807,95.492,63.361,95.304,62.81,94.904z M125.965,94.531c-0.543-0.13-1.102-0.626-1.479,0.122
	c-0.323,0.642-0.058,1.121,0.687,1.377c0.244-0.115,0.516-0.243,0.792-0.374C125.965,95.262,125.965,94.91,125.965,94.531z
	 M128.859,92.208c0.374-0.203,0.588-0.318,0.805-0.436c0-0.328,0-0.625,0-1.045c-0.439-0.092-0.873-0.182-1.336-0.279
	c-0.189,0.306-0.326,0.526-0.528,0.852C128.176,91.624,128.511,91.91,128.859,92.208z M116.708,97.377
	c0.558-0.031,1.043,0.074,1.359-0.11c0.335-0.197,0.829-0.568,0.361-1.187c-0.484,0-0.994,0-1.531,0
	C116.835,96.506,116.796,96.773,116.708,97.377z M129.468,100.904c0.2-0.149,0.392-0.291,0.561-0.417
	c-0.252-1.271-0.496-1.442-1.558-1.078C128.327,100.148,128.581,100.649,129.468,100.904z M66.633,95.724
	c0.163-0.252,0.301-0.465,0.56-0.868c-0.541-0.254-0.969-0.456-1.448-0.68c-0.283,0.467-0.484,0.801-0.794,1.312
	C65.632,95.584,66.109,95.651,66.633,95.724z M134.821,96.266c0.067-0.163,0.134-0.325,0.202-0.487
	c-0.24-0.258-0.456-0.685-0.728-0.725c-0.292-0.042-0.705,0.219-0.928,0.471c-0.112,0.126,0.043,0.744,0.14,0.759
	C133.933,96.354,134.381,96.285,134.821,96.266z M129.243,94.071c0.21,0.516,0.268,1.048,0.505,1.145
	c0.3,0.123,0.818-0.008,1.1-0.22c0.172-0.13,0.072-0.617,0.099-1.004C130.343,94.019,129.959,94.037,129.243,94.071z
	 M110.859,99.292c-0.017-1.029-0.313-1.229-1.381-0.893c-0.048,0.244-0.104,0.529-0.148,0.758
	C109.961,99.86,110.075,99.867,110.859,99.292z M66.957,97.767c-0.825-0.352-1.35-0.231-1.773,0.665
	c0.446,0.191,0.856,0.366,1.428,0.61C66.758,98.501,66.855,98.143,66.957,97.767z M74.019,94.322
	c0.281,0.132,0.545,0.255,0.775,0.362c0.345-0.21,0.622-0.377,0.891-0.54c0.038-0.679-0.392-0.775-0.856-0.769
	C74.318,93.38,73.991,93.621,74.019,94.322z M119.308,101.636c-0.637-0.796-1.112-1.159-2.03-0.48
	c0.355,0.335,0.603,0.725,0.941,0.836C118.473,102.076,118.845,101.802,119.308,101.636z M112.412,95.025
	c-0.316-0.332-0.574-0.603-0.94-0.988c-0.379,0.363-0.665,0.634-0.973,0.929C111.116,95.735,111.646,95.66,112.412,95.025z
	 M80.189,94.188c0.272,0.366,0.446,0.817,0.751,0.94c0.244,0.1,0.649-0.2,1.019-0.335C81.318,93.687,81.203,93.641,80.189,94.188z
	 M67.199,91.716c-0.414-0.221-0.69-0.369-1.118-0.599c-0.217,0.446-0.383,0.787-0.592,1.215c0.498,0.158,0.803,0.254,1.184,0.375
	C66.848,92.378,66.993,92.104,67.199,91.716z M135.787,100.667c-0.529-0.605-0.976-1-1.924-0.468
	c0.37,0.425,0.679,0.779,1.038,1.191C135.277,101.084,135.498,100.904,135.787,100.667z M63.448,100.318
	c-0.02-0.117-0.038-0.234-0.058-0.352c-0.47-0.062-0.938-0.125-1.453-0.193c0,0.491,0,0.735,0,1.055
	c0.322,0.084,0.627,0.164,0.962,0.251C63.106,100.791,63.277,100.554,63.448,100.318z M71.285,96.865c0.492,0,0.898,0,1.514,0
	c-0.245-0.536-0.396-0.871-0.574-1.259c-0.395,0.16-0.639,0.26-0.894,0.363C71.316,96.234,71.306,96.449,71.285,96.865z
	 M106.831,100.893c-0.684-0.864-1.063-0.871-1.84-0.115c0.285,0.205,0.542,0.533,0.814,0.546
	C106.112,101.34,106.434,101.073,106.831,100.893z M84.36,94.197c0.008,0.173,0.015,0.347,0.022,0.521
	c0.328,0.068,0.689,0.254,0.973,0.17c0.245-0.072,0.401-0.448,0.596-0.69c-0.066-0.114-0.134-0.229-0.2-0.343
	C85.287,93.968,84.824,94.083,84.36,94.197z M69.424,92.944c-0.77,0.493-0.81,0.92-0.26,1.512c0.299-0.125,0.592-0.248,1.046-0.438
	C69.892,93.582,69.674,93.285,69.424,92.944z M125.163,98.688c0.545,0.816,0.977,0.883,1.661,0.374
	c-0.111-0.205-0.226-0.416-0.411-0.759C126.001,98.429,125.609,98.551,125.163,98.688z M77.775,98.392
	c0.16,0.518,0.259,0.836,0.383,1.237c0.429-0.137,0.722-0.23,1.072-0.342c-0.071-0.305-0.124-0.531-0.191-0.821
	C78.677,98.445,78.365,98.426,77.775,98.392z M68.986,97.547c0.269,1.008,0.77,1.197,1.459,0.591
	C70.149,97.537,69.777,97.147,68.986,97.547z M132.634,98.151c0.336-0.25,0.572-0.426,0.821-0.611
	c-0.399-0.707-0.813-0.82-1.462-0.271C132.197,97.549,132.386,97.809,132.634,98.151z M82.948,93.497
	c0.408-0.293,0.716-0.514,1.024-0.736c-0.035-0.131-0.068-0.262-0.102-0.394c-0.413-0.049-0.826-0.101-1.46-0.177
	C82.636,92.739,82.747,93.008,82.948,93.497z M74.986,98.857c-0.387-0.133-0.69-0.238-1.051-0.362
	c-0.132,0.335-0.219,0.553-0.356,0.899c0.411,0.148,0.742,0.268,1.118,0.403C74.803,99.452,74.866,99.248,74.986,98.857z
	 M85.252,97.513c0.002,0.943,0.465,1.032,1.257,0.967c-0.082-0.33-0.068-0.74-0.235-0.836C86.01,97.49,85.624,97.547,85.252,97.513z
	 M93.217,96.983c-0.059,0.093-0.117,0.187-0.175,0.28c0.196,0.206,0.358,0.491,0.6,0.593c0.208,0.088,0.503-0.032,0.823-0.067
	c-0.043-0.334-0.074-0.563-0.105-0.807C93.929,96.983,93.573,96.983,93.217,96.983z M69.183,90.048
	c0.113-0.116,0.226-0.231,0.338-0.347c-0.208-0.319-0.416-0.638-0.657-1.008c-0.357,0.248-0.551,0.381-0.954,0.661
	C68.437,89.641,68.81,89.844,69.183,90.048z M92.364,95.01c-0.113-0.01-0.227-0.02-0.339-0.029c-0.243,0.259-0.485,0.52-0.727,0.779
	c0.042,0.099,0.085,0.199,0.128,0.298c0.356,0.033,0.712,0.067,1.312,0.125C92.563,95.632,92.462,95.321,92.364,95.01z
	 M98.112,94.241c-0.188-0.331-0.271-0.67-0.474-0.777c-0.202-0.107-0.526,0.021-0.815,0.048
	C97.021,94.394,97.025,94.396,98.112,94.241z M103.854,96.379c0.004,0.138,0.007,0.277,0.01,0.415
	c0.396,0.08,0.794,0.159,1.19,0.239c0.051-0.103,0.101-0.207,0.151-0.311c-0.23-0.219-0.429-0.514-0.703-0.628
	C104.353,96.031,104.075,96.274,103.854,96.379z"/>
<path fill-rule="evenodd" clip-rule="evenodd" fill="#f8bfe9" class="fill" d="M97.475,147.072c-0.72,0.083-1.346,0.156-1.983,0.23
	c-1.114-1.174-1.722-2.575-2.019-4.029c-0.505-2.467-0.895-4.969-1.151-7.474c-0.435-4.255-0.693-8.529-1.092-12.788
	c-0.25-2.659-0.639-5.305-0.931-7.96c-0.161-1.466-0.247-2.938-0.369-4.409c-0.128-1.523-0.265-3.046-0.38-4.571
	c-0.034-0.438-0.005-0.88-0.005-1.54c1.025-0.604,2.048-1.324,3.165-1.841c2.033-0.941,3.876-0.079,5.212,1.292
	c0.309,0.316,0.463,0.898,0.478,1.365c0.078,2.302,0.083,4.608,0.117,6.912c0.049,3.507,0.142,7.014,0.141,10.521
	c-0.003,4.262-0.074,8.525-0.137,12.787c-0.032,2.17-0.023,4.347-0.201,6.507C98.186,143.703,97.784,145.311,97.475,147.072z"/>
<path fill-rule="evenodd" clip-rule="evenodd" fill="#f8bfe9" class="fill" d="M108.54,145.568c0-1.233-0.03-2.417,0.006-3.598
	c0.051-1.694,0.172-3.386,0.224-5.08c0.073-2.416,0.11-4.832,0.161-7.248c0.063-2.94,0.123-5.881,0.187-8.821
	c0.079-3.682,0.167-7.363,0.237-11.045c0.017-0.913-0.149-1.847-0.008-2.736c0.259-1.633,1.425-2.721,2.884-3.141
	c2.11-0.608,4.932-0.018,6.083,2.514c-0.334,2.161-0.704,4.464-1.043,6.771c-0.334,2.26-0.613,4.527-0.959,6.785
	c-0.626,4.087-0.62,8.267-1.924,12.26c-1.024,3.136-1.782,6.361-2.856,9.478C111,143.252,109.863,144.52,108.54,145.568z"/>
<path fill-rule="evenodd" clip-rule="evenodd" fill="#f8bfe9" class="fill" d="M100.883,147.059c-0.027-0.548-0.078-1.098-0.078-1.646
	c-0.003-3.121,0.005-6.24,0.009-9.361c0.002-2.822-0.018-5.644,0.011-8.465c0.026-2.693,0.176-5.386,0.137-8.077
	c-0.04-2.776-0.272-5.549-0.365-8.326c-0.057-1.701-0.01-3.405-0.01-5.177c2.225-2.438,4.593-3.451,6.708-0.853
	c-0.113,3.076-0.233,6.255-0.345,9.436c-0.074,2.119-0.11,4.241-0.209,6.359c-0.208,4.431-0.347,8.868-0.708,13.287
	c-0.253,3.104-0.856,6.185-1.988,9.106c-0.424,1.095-1.158,2.082-1.83,3.063c-0.241,0.353-0.714,0.546-1.081,0.812
	C101.049,147.164,100.966,147.111,100.883,147.059z"/>
<path fill-rule="evenodd" clip-rule="evenodd" fill="#f8bfe9" class="fill" d="M81.266,104.844c1.239-0.397,2.325-0.909,3.453-1.036
	c0.535-0.06,1.209,0.546,1.717,0.974c0.435,0.367,0.722,0.91,1.054,1.351c2.012,13.335,2.133,26.821,3.393,40.214
	c-0.083,0.062-0.167,0.122-0.25,0.182c-0.509-0.563-1.065-1.092-1.516-1.699c-1.018-1.373-1.806-2.866-2.189-4.554
	c-0.634-2.791-1.336-5.566-1.923-8.366c-0.639-3.047-1.272-6.1-1.737-9.176c-0.562-3.707-0.981-7.438-1.388-11.168
	c-0.194-1.785-0.207-3.588-0.325-5.381C81.53,105.812,81.399,105.447,81.266,104.844z"/>
<path fill-rule="evenodd" clip-rule="evenodd" fill="#f8bfe9" class="fill" d="M72.933,105.348c0.706-0.49,1.285-0.926,1.896-1.312
	c1.312-0.831,3.297-0.257,3.764,1.227c0.456,1.448,0.736,2.97,0.927,4.48c0.56,4.444,0.999,8.904,1.562,13.348
	c0.406,3.202,0.965,6.384,1.397,9.583c0.265,1.96,0.398,3.937,0.626,5.902c0.244,2.104,0.532,4.204,0.795,6.305
	c0.017,0.135-0.013,0.275-0.033,0.608c-0.341-0.341-0.642-0.546-0.814-0.828c-1.723-2.823-3.538-5.618-4.42-8.844
	c-0.747-2.733-1.342-5.511-1.938-8.284c-0.795-3.694-1.569-7.395-2.27-11.108c-0.598-3.168-1.098-6.355-1.595-9.542
	C72.75,106.358,72.898,105.794,72.933,105.348z"/>
<path fill-rule="evenodd" clip-rule="evenodd" fill="#f8bfe9" class="fill" d="M127.279,106.113c-2.825,12.933-6.013,25.669-12.172,37.414
	c-0.133-0.032-0.267-0.062-0.4-0.094c0.136-0.837,0.277-1.674,0.407-2.513c0.611-3.955,1.287-7.9,1.809-11.867
	c0.481-3.662,0.757-7.35,1.199-11.017c0.289-2.392,0.703-4.768,1.076-7.149c0.176-1.123,0.352-2.247,0.588-3.356
	c0.199-0.934,0.794-1.582,1.687-1.931c0.777-0.305,1.542-0.657,2.344-0.872C125.605,104.252,126.362,104.6,127.279,106.113z"/>
<path fill-rule="evenodd" clip-rule="evenodd" fill="#f8bfe9" class="fill" d="M117.928,66.273c0.612-0.232,1.225-0.464,1.972-0.748
	c-0.219,1.658-0.676,3.118-1.566,4.348c-1.236,1.709-2.521,3.417-4.004,4.907c-1.342,1.347-2.936,2.46-4.497,3.564
	c-1.518,1.073-3.131,2.01-4.71,2.995c-2.734,1.706-5.762,2.77-8.729,3.963c-2.109,0.848-4.2,1.777-6.375,2.411
	c-1.746,0.509-3.612,0.596-5.413,0.93c-3.586,0.666-7.13,0.664-10.63-0.484c-1.5-0.492-1.932-1.244-1.574-2.879
	c1.161,0.226,2.317,0.521,3.491,0.66c1.464,0.173,2.945,0.33,4.413,0.289c1.802-0.05,3.627-0.165,5.389-0.519
	c2.006-0.404,3.959-1.084,5.924-1.678c1.649-0.499,3.318-0.956,4.912-1.596c1.748-0.702,3.502-1.456,5.107-2.429
	c3.066-1.86,6.162-3.72,8.995-5.904c2.456-1.895,4.58-4.223,6.812-6.397c0.302-0.294,0.386-0.813,0.571-1.229
	C117.988,66.408,117.958,66.34,117.928,66.273z"/>
<path fill-rule="evenodd" clip-rule="evenodd" fill="#f8bfe9" class="fill" d="M64.41,104.207c1.911-2.257,5.531-0.406,6.059,1.719
	c0.406,1.633,0.602,3.321,0.849,4.991c0.301,2.034,0.572,4.072,0.831,6.112c0.297,2.348,0.554,4.702,0.854,7.05
	c0.193,1.517,0.397,3.034,0.655,4.541c0.628,3.693,1.291,7.38,1.94,11.069c-0.072,0.029-0.144,0.059-0.216,0.088
	c-0.243-0.293-0.566-0.552-0.717-0.887c-0.989-2.198-2.109-4.356-2.864-6.635c-1.116-3.368-2.013-6.812-2.912-10.247
	c-1.45-5.533-2.827-11.085-4.23-16.63C64.562,105,64.497,104.616,64.41,104.207z"/>
<path fill-rule="evenodd" clip-rule="evenodd" fill="#f8bfe9" class="fill" d="M101.661,70.132c0.816,0.28,1.833,0.629,2.859,0.981
	c0.344,0.701,0.099,1.199-0.562,1.583c-2.843,1.657-5.774,3.131-8.899,4.183c-1.659,0.559-3.318,1.153-5.021,1.537
	c-1.815,0.41-3.673,0.681-5.528,0.844c-1.875,0.165-3.773,0.228-5.649,0.125c-0.841-0.047-1.655-0.609-2.48-0.937
	c0.04-0.14,0.08-0.279,0.121-0.418c0.556,0.112,1.108,0.268,1.67,0.322c0.575,0.056,1.162,0.013,1.729,0.013
	c0-0.331,0-0.614,0-1.111c-0.726-0.438-1.568-0.946-2.54-1.532c0.522-0.367,0.978-0.688,1.488-1.047
	c3.878,0.144,7.763-0.366,11.531-1.333C94.114,72.383,97.983,71.792,101.661,70.132z"/>
<path fill-rule="evenodd" clip-rule="evenodd" fill="#f8bfe9" class="fill" d="M104.644,73.476c0.158,0.891,0.289,1.637,0.421,2.382
	c0.1,0.019,0.2,0.036,0.299,0.054c0.907-1.184,0.923-2.819,1.94-4.233c1.162,0.316,2.378,0.646,3.863,1.05
	c-0.918,0.592-1.59,1.021-2.259,1.455c-2.754,1.787-5.465,3.641-8.274,5.333c-1.51,0.909-3.185,1.496-4.949,1.868
	c-2.392,0.503-4.762,1.137-7.102,1.844c-3.035,0.918-6.154,1.003-9.27,1.115c-1.55,0.055-3.108-0.089-4.66-0.194
	c-1.476-0.099-2.541-0.922-3.328-2.114c-0.597-0.905-0.104-2.709,1.227-3.485c0.503,0.951-0.552,2.063,0.389,3.143
	c0.477-0.765,0.901-1.446,1.349-2.164c1.031,1.597,2.712,1.858,4.293,2.119c3.206,0.53,6.388,0.282,9.495-0.753
	c4.039-1.346,7.928-3.052,11.76-4.893C101.437,75.234,102.981,74.354,104.644,73.476z"/>
<path fill-rule="evenodd" clip-rule="evenodd" fill="#f8bfe9" class="fill" d="M102.013,90.813c0.786-0.479,1.473-0.841,2.1-1.289
	c1.97-1.407,3.922-2.84,5.873-4.274c0.847-0.624,1.656-1.3,2.514-1.909c2.003-1.422,3.843-2.989,5.282-5.021
	c0.747-1.055,1.768-1.913,2.563-2.939c1.49-1.92,2.753-3.988,3.59-6.282c0.221-0.605,0.229-1.288,0.336-1.939
	c1.553,1.751,0.67,7.825-1.663,11.482c-0.356,0.122-0.714,0.243-1.043,0.355c0.078,1.947-1.227,3.056-2.366,4.172
	c-3.043,2.983-6.358,5.644-10.287,7.374c-2.05,0.903-4.229,1.484-6.473,0.499C102.343,91,102.255,90.944,102.013,90.813z"/>
<path fill-rule="evenodd" clip-rule="evenodd" fill="#f8bfe9" class="fill" d="M118.416,64.834c-1.162,0.99-2.567,1.361-3.978,1.646
	c-1.957,0.395-3.934,0.694-5.905,1.014c-0.229,0.037-0.52,0.009-0.714-0.104c-0.884-0.513-1.736-1.079-2.619-1.597
	c-0.197-0.116-0.461-0.114-0.879-0.208c0.188,1.169,0.345,2.145,0.524,3.257c-0.516,0.066-1.021,0.25-1.475,0.165
	c-1.26-0.235-2.296,0.402-3.412,0.732c-1.485,0.439-2.962,0.909-4.442,1.366c-0.075-0.071-0.15-0.142-0.226-0.212
	c0.448-0.721,0.823-1.5,1.355-2.151c1.872-2.295,4.154-4.054,6.895-5.243c1.999-0.867,3.975-1.745,6.167-2.011
	c2.047-0.248,4.061-0.221,5.934,0.761c0.579,0.303,1.091,0.761,1.577,1.21C117.642,63.854,117.986,64.333,118.416,64.834z"/>
<path fill-rule="evenodd" clip-rule="evenodd" fill="#f8bfe9" class="fill" d="M121.316,65.302c1.522,0.053,1.803,0.989,1.607,2.453
	c-0.25,1.864-1.196,3.508-2.244,5.061c-2.315,3.433-5.074,6.408-8.621,8.633c-3.043,1.909-5.893,4.154-9.035,5.87
	c-2.641,1.442-5.478,2.667-8.517,3.1c-2.078,0.296-4.189,0.383-6.263-0.125c-0.021-0.08-0.042-0.16-0.062-0.241
	c0.905-0.249,1.797-0.569,2.717-0.732c3.163-0.559,6.187-1.576,9.169-2.727c2.877-1.11,5.277-2.996,7.659-4.881
	c2.383-1.886,4.775-3.777,7.009-5.833c1.423-1.31,2.566-2.923,3.837-4.4C120.099,69.704,121.002,67.646,121.316,65.302z"/>
<path fill-rule="evenodd" clip-rule="evenodd" fill="#f8bfe9" class="fill" d="M113.26,90.957c2.299-1.506,4.539-2.704,6.084-4.744
	c1.514-1.998,2.958-4.047,4.48-6.142c0.743,0.06,1.568,0.127,2.538,0.206c0.418,1.454,0.848,2.946,1.277,4.438
	c0.109-0.004,0.22-0.008,0.329-0.012c0.891-1.307,0.428-2.97,0.97-4.425c0.324,0,0.646,0,1.058,0c0.475,1.82,0.349,3.541-0.98,4.974
	c-1.671,1.803-3.388,3.638-5.664,4.642c-1.525,0.673-3.237,0.943-4.885,1.313C116.806,91.583,115.147,91.37,113.26,90.957z"/>
<path fill-rule="evenodd" clip-rule="evenodd" fill="#f8bfe9" class="fill" d="M119.595,142.907c0.083-0.342,0.139-0.694,0.255-1.025
	c0.981-2.819,1.77-5.675,2.187-8.648c0.19-1.351,0.888-2.623,1.238-3.962c0.521-1.988,0.903-4.013,1.402-6.007
	c0.997-3.988,2.031-7.966,3.051-11.949c0.378-1.478,0.762-2.954,1.138-4.433c0.343-1.349,1.851-2.253,3.144-1.691
	c-1.358,6.471-3.393,12.798-5.181,19.187C125.037,130.781,122.493,136.908,119.595,142.907z"/>
<path fill-rule="evenodd" clip-rule="evenodd" fill="#f8bfe9" class="fill" d="M110.938,47.237c-0.117,1.051-0.233,2.102-0.366,3.309
	c-0.822-0.339-1.469-0.607-2.117-0.875c-0.092,0.075-0.184,0.15-0.275,0.226c0.23,1.021,0.46,2.042,0.722,3.202
	c-1.178,0.399-2.374,0.804-3.613,1.224c-0.027,0.279-0.048,0.511-0.079,0.833c0.908,0.147,1.748,0.282,2.688,0.434
	c-0.89,1.774-1.504,3.521-0.975,5.559c-1.603,0.668-3.18,1.326-4.982,2.078c-0.093-0.749-0.268-1.438-0.247-2.12
	c0.082-2.724,1.049-5.164,2.585-7.376c0.601-0.866,1.287-1.691,2.034-2.436c1.416-1.413,2.904-2.754,4.362-4.125
	C110.763,47.192,110.85,47.214,110.938,47.237z"/>
<path fill-rule="evenodd" clip-rule="evenodd" fill="#f8bfe9" class="fill" d="M95.632,65.373c-0.131-1.154-0.252-2.242-0.398-3.539
	c0.859,0.492,1.556,0.891,2.288,1.31c0.558-0.78,0.188-1.408-0.142-2.043c-0.319-0.614-0.63-1.234-0.967-1.896
	c0.834-0.543,1.66-1.082,2.51-1.636c0.023-0.283,0.046-0.555,0.072-0.859c-0.231-0.117-0.446-0.227-0.67-0.34
	c0.006-0.095-0.013-0.184,0.017-0.252c0.744-1.708,2.132-2.804,3.591-3.86c1.616-1.169,3.201-2.387,4.749-3.646
	c0.576-0.469,1.011-1.113,1.509-1.678c0.095,0.089,0.188,0.178,0.282,0.268c-0.986,0.991-1.841,2.188-2.988,2.931
	c-2.295,1.484-3.748,3.567-5.081,5.86c-1.388,2.386-1.529,4.824-0.849,7.401c0.041,0.157,0.071,0.317,0.13,0.587
	C98.367,64.418,97.356,65.59,95.632,65.373z"/>
<path fill-rule="evenodd" clip-rule="evenodd" fill="#f8bfe9" class="fill" d="M85.976,73.184c2.164-4.467,6.843-7.105,9.46-6.231
	c-1.008,1.57-2.017,3.143-3.231,5.034C90.44,72.326,88.302,72.736,85.976,73.184z"/>
<path fill-rule="evenodd" clip-rule="evenodd" fill="#f8bfe9" class="fill" d="M109.238,60.465c-0.622-1.045-0.136-3.291,0.944-4.311
	c0.625,1.045,1.262,2.108,1.898,3.172c0.134-0.021,0.268-0.042,0.401-0.062c0.241-1.461,0.48-2.922,0.715-4.347
	c0.814-0.145,1.485-0.265,2.242-0.4c0.396,2.116,0.269,4.115-0.436,5.948C113.05,60.465,111.207,60.465,109.238,60.465z"/>
<path fill-rule="evenodd" clip-rule="evenodd" fill="#f8bfe9" class="fill" d="M91.006,61.518c1.043-0.222,1.891-0.955,2.85-0.671
	c0,1.617,0,3.07,0,4.555c-1.202,0.322-2.515,0.674-3.876,1.038C89.535,64.662,90.334,63.13,91.006,61.518z"/>
<path fill-rule="evenodd" clip-rule="evenodd" fill="#f8bfe9" class="fill" d="M80.43,73.604c-0.173-0.463-0.313-0.837-0.442-1.184
	c1.628-2.442,4.987-4.488,7.499-4.473c-1.908,1.475-3.204,3.244-4.039,5.498C82.525,73.494,81.535,73.546,80.43,73.604z"/>
<path fill-rule="evenodd" clip-rule="evenodd" fill="#f8bfe9" class="fill" d="M116.72,67.149c-0.198,0.262-0.369,0.55-0.598,0.78
	c-1.332,1.339-2.677,2.666-3.979,3.957c-1.116-0.811-2.123-1.541-3.148-2.287C111.237,67.805,114.04,67.788,116.72,67.149z"/>
<path fill-rule="evenodd" clip-rule="evenodd" fill="#f8bfe9" class="fill" d="M129.072,74.988c-0.733,0.318-1.225,0.531-1.8,0.78
	c-0.459-0.563-0.871-1.066-1.312-1.606c0.08-0.669,0.161-1.345,0.276-2.303C127.248,72.975,128.097,73.913,129.072,74.988z"/>
<path fill-rule="evenodd" clip-rule="evenodd" fill="#f8bfe9" class="fill" d="M112.03,50.932c0.163-0.833,0.303-1.55,0.442-2.268
	c0.064-0.03,0.128-0.061,0.191-0.092c0.338,0.556,0.676,1.111,1.06,1.742C113.125,50.533,112.647,50.707,112.03,50.932z"/>
<path fill-rule="evenodd" clip-rule="evenodd" fill="#f8bfe9" class="fill" d="M95.335,56.23c0.369-0.518,0.739-1.034,1.108-1.551
	c0.097,0.064,0.193,0.127,0.291,0.192c-0.341,0.531-0.682,1.062-1.024,1.595C95.586,56.386,95.461,56.308,95.335,56.23z"/>
<path fill-rule="evenodd" clip-rule="evenodd" fill="#f8bfe9" class="fill" d="M113.979,52.519c0.233-0.384,0.383-0.631,0.631-1.039
	c0.234,0.453,0.396,0.765,0.659,1.272C114.756,52.659,114.434,52.601,113.979,52.519z"/>
</svg>
