<svg version="1.1" id="svg" xmlns="http://www.w3.org/2000/svg" xmlns:xlink="http://www.w3.org/1999/xlink" x="0px" y="0px"
	 width="200px" height="200px" viewBox="0 0 200 200" enable-background="new 0 0 200 200" xml:space="preserve">
<path class="stroke" fill="#1f4a69"  d="M143.494,114.147c0.757-1.688,2.088-2.804,3.491-3.556c0.555-2.014-0.375-3.462-1.163-4.907
	c-1.067-1.96-2.265-3.849-3.373-5.787c-1.412-2.468-2.782-4.959-4.185-7.433c-3.332-5.873-6.74-11.704-9.983-17.627
	c-2.339-4.27-4.457-8.658-6.684-12.99c-0.556-1.082-1.153-2.142-1.723-3.217c-1.326-2.507-2.646-5.017-3.971-7.526
	c-0.478-0.122-0.718-0.2-0.965-0.243c-2.524-0.434-5.044-0.014-7.557,0.112c-3.444,0.172-6.879,0.534-10.314,0.835
	c-0.96,0.084-1.92,0.201-2.868,0.367c-3.796,0.668-7.575,1.433-11.382,2.027c-5.766,0.899-11.548,1.694-17.326,2.518
	c-2.607,0.371-4.578,1.647-5.856,3.967c-0.76,1.38-1.566,2.733-2.277,4.137c-2.3,4.538-2.991,9.364-2.255,14.361
	c0.488,3.313,1.093,6.619,1.864,9.878c1.191,5.032,2.516,10.036,3.89,15.023c0.768,2.786,1.758,5.512,2.635,8.268
	c1.447,4.546,2.872,9.099,4.328,13.641c0.527,1.643,1.142,3.257,1.676,4.897c1.178,3.615,2.352,7.219,3.88,10.721
	c1.38,3.163,3.412,5.607,6.346,7.33c1.409,0.828,2.927,1.541,4.601,1.316c3.213-0.429,6.432-0.883,9.606-1.527
	c4.574-0.928,9.098-2.102,13.669-3.048c4.816-0.997,9.661-1.855,14.496-2.761c2.141-0.402,4.298-0.722,6.43-1.168
	c2.383-0.501,4.739-1.128,7.118-1.653c1.483-0.327,2.999-0.513,4.477-0.862c0.981-0.232,1.915-0.66,2.881-0.969
	c1.887-0.603,3.769-1.224,5.674-1.76c2.078-0.584,3.31-1.871,3.607-3.878C149.739,126.209,145.636,120.658,143.494,114.147z"/>
<path fill-rule="evenodd" clip-rule="evenodd" fill="#b3d753" class="fill" d="M65.292,59.534c1.036-0.173,1.919-0.34,2.808-0.465
	c3.468-0.487,6.951-0.883,10.402-1.462c4.104-0.688,8.17-1.604,12.274-2.282c3.004-0.496,6.046-0.758,9.068-1.141
	c3.07-0.39,6.135-0.833,9.209-1.183c1.546-0.176,3.109-0.195,4.741-0.29c0.749,1.319,1.457,2.485,2.087,3.691
	c2.112,4.049,4.197,8.112,6.293,12.17c1.442,2.794,2.849,5.608,4.341,8.376c1.421,2.635,2.916,5.229,4.406,7.825
	c2.325,4.049,4.704,8.067,7.005,12.131c1.851,3.266,3.624,6.577,5.424,9.872c0.142,0.258,0.226,0.547,0.365,0.891
	c-2.415,0.987-4.863,1.51-7.351,1.967c-3.491,0.643-6.946,1.476-10.418,2.219c-2.232,0.479-4.467,0.94-6.699,1.415
	c-3.568,0.76-7.131,1.545-10.705,2.278c-2.928,0.601-5.877,1.095-8.8,1.718c-3.918,0.836-7.825,1.725-11.725,2.645
	c-1.628,0.385-3.221,0.916-4.832,1.365c-0.232,0.064-0.488,0.044-0.87,0.075c-0.609-1.731-1.293-3.418-1.799-5.155
	c-1.447-4.97-2.874-9.946-4.205-14.948c-0.769-2.89-1.288-5.846-2.01-8.75c-0.916-3.693-1.923-7.364-2.892-11.044
	c-0.064-0.246-0.154-0.484-0.207-0.732c-1.251-6.022-3.25-11.833-5.02-17.709C65.853,61.911,65.61,60.784,65.292,59.534z
	 M90.619,90.623c1.188,2.186,3.001,3.755,3.793,5.938c-1.217,1.633-1.217,1.633-0.373,2.768c2.242-0.453,4.574-0.896,6.891-1.411
	c0.59-0.131,1.098-0.512,1.094-1.429c-0.439-0.073-0.862-0.187-1.291-0.206c-0.765-0.035-1.379-0.33-1.822-0.943
	c-1.07-1.479-2.126-2.969-3.189-4.452c-1.504-2.101-2.987-4.217-4.522-6.295c-1.747-2.367-3.525-4.712-5.319-7.043
	c-1.112-1.445-2.261-2.862-3.435-4.257c-0.225-0.268-0.643-0.372-1.018-0.576c-0.946,1.375-1.469,2.698-1.478,4.227
	c-0.018,2.893-0.125,5.786-0.096,8.68c0.044,4.154,0.181,8.308,0.27,12.461c0.02,0.901,0.003,1.804,0.003,2.685
	c-0.972,0.444-1.786,0.816-2.754,1.26c0.192,0.482,0.343,0.859,0.515,1.289c2.232-0.133,4.196-0.804,6.155-1.456
	c0.31-0.103,0.508-0.536,0.996-1.087c-1.234-0.162-2.136-0.28-3.096-0.406c-0.126-2.352-0.247-4.608-0.374-7
	C84.618,92.442,87.513,91.565,90.619,90.623z M110.475,93.717c0.164-0.975,0.204-1.887,0.479-2.722
	c1.429-4.338,2.923-8.655,4.384-12.982c1.005-2.979,2.009-5.959,2.984-8.947c0.301-0.923,0.489-1.873-0.479-2.605
	c-2.164,0.506-4.304,0.934-6.401,1.515c-2.979,0.824-5.921,1.779-8.89,2.638c-0.65,0.188-1.095,0.494-1.304,1.3
	c0.986,1.406,0.325,3.777,2.35,4.771c0.834-0.314,0.929-0.9,1.026-1.524c0.322-2.063,1.549-3.332,3.516-3.966
	c1.397-0.449,2.772-0.972,4.16-1.45c0.634-0.219,1.276-0.41,2.208-0.707c-2.549,9.31-6.093,17.966-7.907,27.367
	c0.281,0.084,0.735,0.372,1.137,0.311c1.097-0.165,2.18-0.451,3.254-0.738c1.373-0.368,2.708-0.947,4.102-1.146
	c3.642-0.521,7.086-1.743,10.591-2.756c0.519-0.149,1.012-0.387,1.472-0.565c-0.278-3.15-1.289-6.502-2.226-7.275
	c-0.164,0.316-0.367,0.598-0.462,0.912c-0.25,0.824-0.506,1.654-0.662,2.5c-0.312,1.689-1.451,2.451-2.971,2.892
	c-0.971,0.281-1.934,0.609-2.863,1.001C115.633,92.523,113.274,93.42,110.475,93.717z M97.57,84.716
	c2.469-0.544,4.705-1.038,7.079-1.562c-0.149-0.663-0.315-1.4-0.509-2.26c-2.542,0.339-4.884,0.492-7.206,1.565
	C97.146,83.213,97.33,83.862,97.57,84.716z"/>
<path fill-rule="evenodd" clip-rule="evenodd" fill="#b3d753" class="fill" d="M141.099,112.535c-0.206,0.641-0.372,1.157-0.553,1.721
	c-19.093,3.92-38.113,7.825-57.395,11.784c0.374-0.747,0.595-1.188,0.798-1.595C89.375,122.456,138.213,112.381,141.099,112.535z"/>
<path fill-rule="evenodd" clip-rule="evenodd" fill="#b3d753" class="fill" d="M140.142,115.895c-0.091,0.628-0.146,1.018-0.202,1.402
	c-0.176,0.091-0.299,0.189-0.439,0.223c-3.754,0.86-7.512,1.71-11.267,2.571c-2.96,0.68-5.9,1.462-8.88,2.039
	c-5.076,0.982-10.188,1.784-15.264,2.767c-4.529,0.877-9.031,1.891-13.543,2.855c-2.669,0.57-5.334,1.167-8.004,1.738
	c-0.178,0.037-0.382-0.043-0.752-0.093c0.12-0.534,0.221-0.992,0.347-1.554c3.018-0.699,5.961-1.437,8.93-2.057
	c4.914-1.027,9.843-1.982,14.768-2.962c3.282-0.652,6.571-1.269,9.85-1.944c5.015-1.035,10.023-2.105,15.032-3.167
	c2.53-0.535,5.055-1.095,7.586-1.621C138.834,115.982,139.386,115.973,140.142,115.895z"/>
<path fill-rule="evenodd" clip-rule="evenodd" fill="#b3d753" class="fill" d="M80.491,145.691c0.809,0.381,1.591,0.241,2.428,0.079
	c3.283-0.636,6.587-1.156,9.873-1.777c3.039-0.574,6.102-1.079,9.086-1.87c4.807-1.276,9.682-2.2,14.548-3.186
	c4.918-0.995,9.836-2,14.725-3.13c2.96-0.684,5.864-1.609,8.793-2.43c1.754-0.492,3.513-0.971,5.258-1.493
	c0.575-0.172,1.115-0.463,1.645-0.687c0.361-0.996,0.033-1.662-0.822-2.051c-0.958-0.436-1.445-1.211-1.803-2.146
	c-0.796-2.085-1.73-4.13-1.653-6.436c0.016-0.477,0.064-0.952,0.389-1.468c2.165,4.355,4.329,8.711,6.571,13.219
	c-0.726,0.232-1.229,0.432-1.751,0.554c-6.562,1.543-13.122,3.091-19.692,4.594c-1.623,0.372-3.286,0.563-4.923,0.882
	c-2.579,0.503-5.162,0.998-7.726,1.576c-4.742,1.07-9.472,2.194-14.205,3.303c-2.812,0.658-5.603,1.422-8.435,1.974
	c-3.077,0.602-6.188,1.039-9.292,1.492C82.382,146.856,81.301,146.656,80.491,145.691z"/>
<path fill-rule="evenodd" clip-rule="evenodd" fill="#b3d753" class="fill" d="M81.301,134.653c0.323-0.365,0.646-0.73,1.092-1.232
	c2.365-0.477,4.854-0.958,7.332-1.484c2.327-0.493,4.643-1.038,6.965-1.551c0.842-0.187,1.688-0.352,2.535-0.51
	c4.237-0.791,8.478-1.563,12.712-2.368c2.841-0.541,5.68-1.092,8.507-1.699c4.756-1.021,9.497-2.116,14.256-3.126
	c1.669-0.354,3.371-0.549,5.178-0.836c0.027,0.458,0.046,0.773,0.068,1.135c-19.448,4.598-39.041,8.007-58.497,12.08
	C81.399,134.926,81.35,134.789,81.301,134.653z"/>
<path fill-rule="evenodd" clip-rule="evenodd" fill="#b3d753" class="fill" d="M81.81,138.081c-0.091-0.568-0.158-0.991-0.252-1.577
	c1.825-0.413,3.536-0.839,5.264-1.185c5.073-1.016,10.156-1.983,15.229-3.002c6.013-1.209,12.014-2.465,18.025-3.673
	c1.79-0.359,3.606-0.579,5.394-0.95c1.832-0.38,3.638-0.886,5.463-1.303c2.617-0.598,5.238-1.179,7.866-1.729
	c0.476-0.1,0.989-0.014,1.724-0.014c-0.162,0.394-0.198,0.772-0.396,0.899c-0.327,0.211-0.752,0.29-1.146,0.372
	c-7.244,1.5-14.493,2.974-21.732,4.499c-2.18,0.46-4.319,1.107-6.497,1.582c-3.667,0.8-7.354,1.513-11.025,2.289
	c-5.549,1.173-11.093,2.371-16.64,3.555C82.743,137.919,82.398,137.974,81.81,138.081z"/>
<path fill-rule="evenodd" clip-rule="evenodd" fill="#b3d753" class="fill" d="M83.438,142.036c0.36-0.175,0.702-0.431,1.082-0.511
	c3.622-0.765,7.254-1.488,10.877-2.245c4.066-0.85,8.128-1.715,12.189-2.584c3.521-0.754,7.045-1.498,10.557-2.296
	c2.568-0.585,5.111-1.288,7.681-1.867c1.481-0.334,3.009-0.465,4.49-0.798c3.854-0.865,7.695-1.79,11.613-2.709
	c0.163,0.208,0.339,0.431,0.522,0.664c-0.137,0.167-0.209,0.344-0.326,0.383c-1.248,0.418-2.483,0.895-3.76,1.201
	c-4.58,1.104-9.164,2.202-13.768,3.204c-5.689,1.237-11.395,2.406-17.102,3.553c-7.15,1.437-14.309,2.834-21.471,4.209
	C85.223,142.394,84.372,142.582,83.438,142.036z"/>
<path fill-rule="evenodd" clip-rule="evenodd" fill="#b3d753" class="fill" d="M79.521,122.483c-0.34-0.827-0.76-1.632-1.008-2.485
	c-1.402-4.822-2.784-9.649-4.134-14.486c-1.499-5.368-2.948-10.751-4.436-16.124c-0.703-2.538-1.412-5.076-2.177-7.597
	c-1.453-4.797-2.992-9.567-4.402-14.377c-0.538-1.836-0.82-3.749-1.306-6.033c0.127-0.115,0.401-0.369,0.8-0.735
	c0.294,0.492,0.468,0.683,0.53,0.903c0.986,3.457,1.949,6.921,2.937,10.377c1.307,4.58,2.69,9.139,3.926,13.736
	c1.025,3.814,1.856,7.68,2.823,11.51c0.769,3.042,1.594,6.07,2.426,9.097c1.034,3.761,2.078,7.52,3.163,11.266
	c0.395,1.361,0.935,2.681,1.374,4.029c0.086,0.261,0.013,0.572,0.013,0.86C79.873,122.444,79.697,122.464,79.521,122.483z"/>
<path fill-rule="evenodd" clip-rule="evenodd" fill="#b3d753" class="fill" d="M81.296,132.15c0.305-1.142,1.101-1.186,1.722-1.348
	c1.863-0.485,3.741-0.921,5.624-1.324c4.114-0.881,8.229-1.766,12.356-2.582c3.678-0.729,7.382-1.324,11.059-2.057
	c5.22-1.041,10.434-2.114,15.634-3.248c3.956-0.863,7.888-1.841,11.962-2.799c0.053,0.545,0.094,0.97,0.142,1.467
	C120.366,124.529,100.899,128.183,81.296,132.15z"/>
<path fill-rule="evenodd" clip-rule="evenodd" fill="#b3d753" class="fill" d="M82.037,139.854c1.119-0.79,2.374-0.985,3.599-1.241
	c8.686-1.818,17.38-3.596,26.06-5.444c4.114-0.876,8.192-1.917,12.303-2.812c3.515-0.765,7.055-1.413,10.578-2.137
	c1.686-0.346,3.356-0.765,5.043-1.109c0.489-0.101,1.118-0.45,1.434,0.474c-0.22,0.142-0.435,0.368-0.688,0.429
	c-3.745,0.903-7.461,1.996-11.254,2.616c-4.562,0.745-9.013,1.927-13.516,2.9c-5.242,1.134-10.474,2.319-15.723,3.421
	c-4.911,1.031-9.841,1.976-14.759,2.974c-0.645,0.131-1.267,0.371-1.907,0.521C82.762,140.55,82.28,140.643,82.037,139.854z"/>
<path fill-rule="evenodd" clip-rule="evenodd" fill="#b3d753" class="fill" d="M80.538,144.928c-1.974-1.503-2.371-3.427-2.883-5.276
	c-0.687-2.48-0.46-4.923,0.388-7.336c0.336-0.956,0.551-1.953,0.869-2.915c0.245-0.748,0.564-1.472,1.049-2.164
	C78.378,133.115,78.479,138.911,80.538,144.928z"/>
<path fill-rule="evenodd" clip-rule="evenodd" fill="#b3d753" class="fill" d="M89.262,89.01c-2.701,0.789-5.049,1.476-7.387,2.158
	c-0.444-1.111-0.554-8.775-0.181-11.769C84.88,82.037,86.501,85.696,89.262,89.01z"/>
</svg>
