<svg version="1.1" id="svg" xmlns="http://www.w3.org/2000/svg" xmlns:xlink="http://www.w3.org/1999/xlink" x="0px" y="0px"
	 width="200px" height="200px" viewBox="0 0 200 200" enable-background="new 0 0 200 200" xml:space="preserve">
<path class="stroke" fill="#3b4954"  fill-rule="evenodd" clip-rule="evenodd" d="M59.191,160.77c0.102,1.394,0.868,2.979-0.964,4.094
	c-0.778-0.243-1.588-0.496-2.309-0.721c-1.074,0.201-2.046,0.382-3.19,0.596c-0.392,0.458-0.9,1.05-1.32,1.542
	c-2.024,0.78-3.29-0.345-4.638-1.544c-0.701,0.356-1.457,0.631-2.09,1.08c-3.683,2.613-7.585,1.824-10.476-1.408
	c-0.177-0.198-0.316-0.43-0.284-0.386c-2.404-0.381-4.497-0.65-6.56-1.068c-0.889-0.18-1.765-0.583-2.559-1.038
	c-1.258-0.718-1.84-1.874-1.688-3.338c0.141-1.367,0.318-2.729,0.493-4.212c-1.188,0.249-2.179,0.556-3.19,0.642
	c-1.182,0.101-1.917-0.737-2.605-1.534c-0.667-2.388,0.587-3.962,2.152-5.471c0.605-0.175,1.238-0.359,1.867-0.542
	c1.013-2.141,0.781-5.079-0.679-7.734c-1.82-0.237-3.918-0.138-5.328-1.999c-0.112-0.638-0.236-1.347-0.381-2.171
	c-0.827,0.127-1.576,0.241-2.192,0.335c-3.281-1.37-2.774-3.782-1.282-6.352c0.846-1.457,1.337-2.824,1.366-4.44
	c0.038-2.171,1.036-3.688,3.149-4.3c1.361-0.394,2.129-1.259,2.635-3c-0.257-0.615-0.652-1.562-1.049-2.509
	c-0.38-0.906-0.765-1.811-1.141-2.719c-0.283-0.681-0.556-1.367-1.061-2c-1.528,2.466,0.214,5.026-0.374,7.481
	c-1.016,0.491-1.484-0.261-2.325-0.893c-0.067-2.349-0.15-4.83-0.207-7.312c-0.053-2.31,0.055-4.632-0.147-6.928
	c-0.339-3.865-0.022-7.664,0.743-11.442c0.679-3.353,1.549-4.622,4.14-6.247c-0.409-2.444-0.808-4.848-1.216-7.249
	c-0.327-1.919,0.948-3.111,2.062-4.297c2.354-2.509,4.836-4.897,7.204-7.393c2.244-2.366,3.421-2.596,6.336-0.935
	c0.397-0.166,0.908-0.311,1.346-0.574c2.539-1.527,5.272-1.619,8.082-1.131c3.241,0.563,3.967,0.185,5.656-2.63
	c0.916-1.527,2.01-2.949,3.049-4.398c1.351-1.885,2.771-3.72,4.082-5.631c2.267-3.301,5.148-5.495,9.342-5.498
	c1.495,0,2.762-0.579,3.583-1.81c1.538-2.304,3.606-3.637,6.375-3.895c0.45-0.042,0.887-0.238,1.454-0.398
	c0.58,0.307,1.213,0.641,1.738,0.917c1.017,2.287,0.792,3.201-1.023,4.556c-1.902,1.421-2.771,2.389-3.633,4.15
	c0.932,1.352,1.937,2.811,3.086,4.478c-0.015-0.072,0.08,0.129,0.058,0.315c-0.347,2.87-1.231,5.663-1.056,8.62
	c0.039,0.65-0.629,1.439-1.144,2.01c-1.753,1.945-2.662,4.222-2.954,6.79c-0.299,2.629-0.634,5.237-1.609,7.746
	c-0.542,1.393-0.708,2.93-1.042,4.389c0.434,0.399,0.718,0.662,1.004,0.922c1.317,1.203,1.502,2.18,0.933,3.91
	c-0.283,0.86-0.495,1.788-0.499,2.687c-0.008,1.771,0.715,2.451,2.465,2.203c2.183-0.309,4.35-0.433,6.479,0.133
	c1.265,0.336,2.535,0.805,3.666,1.453c1.577,0.903,2.055,2.635,1.355,4.328c-1.337,3.235-2.715,6.454-4.083,9.677
	c-0.102,0.241-0.263,0.457-0.489,0.844c-1.274,0-2.621,0-4.204,0c-0.344,0.703-0.8,1.636-1.399,2.863
	c-0.737,0.151-1.651,0.337-2.5,0.511c-0.5-0.62-0.829-1.027-1.38-1.71c0.23-1.154,0.423-2.511,0.79-3.819
	c0.254-0.904,0.441-1.66-0.629-2.221c-1.5,0.567-2.451,1.65-2.552,3.202c-0.174,2.633-0.152,5.278-0.209,7.919
	c-0.023,1.054-0.004,2.111-0.059,3.163c-0.08,1.533-1.049,2.463-2.394,2.837c-1.366,0.378-2.795,0.9-4.345,0.286
	c0.189,0.205,0.39,0.4,0.566,0.614c1.482,1.797,1.301,3.608-0.587,4.928c-2.053,1.435-4.297,1.979-6.784,1.229
	c-1.434-0.433-1.449-0.384-2.658,0.312c1.349,0.638,2.613,1.235,3.806,1.799c0.209,0.831,0.367,1.459,0.53,2.108
	c1.649,0.325,3.155-0.151,4.673-0.641c1.757-0.568,3.504-1.23,5.309-1.569c3.352-0.63,5.93,1.533,6.158,4.96
	c0.009,0.125,0.075,0.247,0.174,0.559c0.711-0.893,1.138-1.722,1.13-2.81c-0.008-1.149,0.484-2.043,1.772-2.47
	c3.813,1.563,3.94,4.99,4.073,8.455c0.473,0.604,0.959,1.228,1.509,1.931c0.411,1.681,0.267,3.279-1.008,4.738
	c-1.433,1.64-1.315,3.472-0.354,5.526c0.995-0.869,1.704-2.071,3.396-1.857c0.353,0.233,0.898,0.594,1.371,0.906
	c0.906,1.386,0.736,2.754,0.273,4.099c-0.969,2.817-2,5.613-2.989,8.423c-0.46,1.309-0.881,2.631-1.317,3.948
	c-0.208,0.628-0.342,1.29-0.624,1.883c-1.331,2.803-3.884,3.228-6.09,1.034c-0.279-0.277-0.513-0.598-0.892-1.046
	c0.239-1.013,0.586-2.084,0.721-3.182c0.126-1.024,0.027-2.075-0.104-3.126c0.219-1.423,1.12-2.482,2.212-3.359
	c1.128-0.906,1.738-2.078,2.393-3.728c-0.805,0.343-1.26,0.536-1.715,0.73c-3.985,1.708-7.883,2.114-11.715-0.509
	c-1.02-0.698-2.289-1.026-3.422-1.568c-0.765-0.366-1.493-0.807-2.275-1.236c-0.223-2.924-2.994-3.569-4.392-5.358
	c-0.804,0.995-1.425,2.1-2.349,2.814c-0.942,0.729-2.18,1.074-3.128,1.513c-0.379,3.599-0.03,4.431,2.419,5.561
	c-0.474-0.758-0.791-1.267-1.111-1.777c0.247-2.47,0.804-2.974,4.277-3.701C56.025,154.161,57.02,157.79,59.191,160.77z
	 M41.358,85.476c0.871-1.362,0.313-2.235-0.315-3.103c-0.659-0.91-1.364-1.797-1.924-2.767c-1.125-1.946-0.688-3.718,1.17-4.991
	c0.567-0.388,1.195-0.687,2.111-1.205c-1.252-0.244-2.169-0.629-3.046-0.552c-2.007,0.175-4.024,0.718-5.081,2.599
	c-0.814,1.451-1.874,2.34-3.408,2.787c-1.074,0.312-2.144,0.633-3.348,0.989c-1.647,1.836-0.365,3.903-0.245,6.163
	c1.23-0.48,2.309-0.901,3.267-1.275c0.211-0.688,0.402-1.12,0.473-1.57c0.286-1.797,1.762-2.92,4.294-3.139
	c2.067-0.178,3.585,0.781,4.388,2.699c0.254,0.608,0.34,1.292,0.625,1.881C40.58,84.528,41.005,84.984,41.358,85.476z M45.48,73.358
	c1.71,0.666,3.358,0.643,4.778-0.327c1.415-0.967,2.864-1.803,4.458-2.408c0.05-0.02,0.034-0.216,0.062-0.424
	c-1.198-0.394-2.312,0.004-3.373,0.458C49.485,71.477,47.603,72.384,45.48,73.358z M49.526,145.112
	c0.606,0.392,1.187,0.767,1.995,1.29c-0.068-2.112,0.392-4.021-1.021-5.771C49.33,141.963,49.045,143.34,49.526,145.112z
	 M25.121,87.153c-1.583-0.083-2.727-0.144-4.007-0.211C22.501,88.518,23.093,88.572,25.121,87.153z"/>
<path class="stroke" fill="#3b4954"  d="M170.032,35.722c-0.874-0.276-1.781-0.751-2.719-0.824c-2.835-0.222-5.682-0.291-8.524-0.416
	c-1.789-0.079-3.577-0.146-5.366-0.229c-4.3-0.199-8.605-0.646-12.898-0.549c-6.973,0.158-13.887-0.582-20.83-0.867
	c-5.755-0.236-11.52-0.269-17.281-0.344c-0.676-0.009-1.355,0.284-2.103,0.452c-0.914,15.232-2.344,30.252-0.704,45.349
	c2.368,0.622,4.604,0.192,6.837,0.13c4.634-0.126,9.271-0.28,13.904-0.235c4.304,0.042,8.604,0.396,12.907,0.489
	c6.952,0.15,13.907,0.259,20.86,0.271c4.626,0.008,9.254-0.183,13.98-0.286c0.273-0.81,0.632-1.402,0.653-2.006
	c0.212-6.221,0.329-12.445,0.555-18.666c0.183-5.033,0.515-10.061,0.711-15.094C170.106,40.592,170.032,38.281,170.032,35.722z"/>
<path class="stroke" fill="#3b4954"  fill-rule="evenodd" clip-rule="evenodd" d="M100.917,126.734c2.542-3.401,2.542-3.401,5.982-3.732
	c-0.271-0.76-0.522-1.466-0.753-2.114c-1.148-0.39-2.142-0.727-3.04-1.032c-0.81-1.63-0.802-2.223,0.268-3.301
	c3.336-3.359,7.393-5.439,12.082-5.857c4.338-0.387,7.687,3.303,7.003,7.579c-0.249,1.557-0.545,3.124-1.025,4.621
	c-0.775,2.415-0.232,4.552,0.978,6.645c0.493,0.852,0.953,1.733,1.32,2.645c0.621,1.541,0.336,2.974-0.916,4.526
	c-0.694,0.011-1.605,0.154-2.466,0c-0.889-0.158-1.728-0.604-2.713-0.97c-1.522,1.516-2.879,3.024-3.608,5.248
	c1.052,0.376,1.832,0.712,2.641,0.934c1.824,0.5,2.867,1.685,2.949,3.541c0.135,3.063-0.721,4.942-3.51,5.545
	c-2.042,0.441-3.993,1.327-5.961,2.075c-0.308,0.117-0.495,0.555-0.824,0.946c1.109,0.856,2.136,1.648,3.208,2.475
	c3.183-0.658,5.996,0.194,8.318,4.108c0.118,1.186-0.669,1.755-1.765,2.334c-2.207-0.285-4.089,0.619-5.415,2.603
	c-0.7,0.163-1.338,0.312-2.093,0.488c0.133,2.441-1.786,3.311-3.304,4.266c-0.722,1.103-0.799,2.116-0.576,3.205
	c0.172,0.842,0.25,1.704,0.359,2.558c0.203,1.6-0.434,2.819-1.668,3.211c-1.272,0.405-2.836-0.297-3.501-1.626
	c-0.469-0.936-0.865-1.907-1.298-2.873c-1.204,0-2.276-0.112-3.311,0.034c-0.882,0.125-1.858,0.363-2.554,0.875
	c-1.546,1.14-3.012,1.191-4.598,0.22c-0.845-0.517-1.664-1.096-2.558-1.511c-2.033-0.941-4.112-1.78-6.156-2.695
	c-1.066-0.477-2.098-1.029-2.905-1.428c-0.928-2.79,0.661-4.162,2.182-5.381c0.049-0.445,0.135-0.716,0.098-0.969
	c-0.459-3.103,3.022-4.775,5.307-4.406c2.383,0.384,4.452,1.283,5.646,3.578c0.297,0.573,0.71,1.085,1.154,1.751
	c1.521-0.888,2.948-1.723,4.375-2.557c0.058,0.086,0.115,0.172,0.172,0.257c0.56-0.877,1.12-1.755,1.758-2.756
	c-0.223-0.235-0.446-0.55-0.741-0.766c-0.991-0.727-1.335-1.707-1.444-2.906c-0.248-2.745-1.345-3.454-4.116-3.117
	c-1.963,0.239-3.957,0.298-5.936,0.303c-0.735,0.002-1.472-0.379-2.255-0.599c0-1.336,0-2.451,0-3.73
	c-0.534-0.268-1.022-0.592-1.558-0.765c-2.38-0.766-2.832-1.586-2.095-3.954c0.098-0.314,0.222-0.62,0.384-1.066
	c0.711-0.421,1.495-0.884,2.457-1.454c-0.187-0.681-0.369-1.352-0.516-1.89c-0.652-0.508-1.167-0.909-1.766-1.376
	c-0.047-0.774-0.22-1.574-0.121-2.339c0.383-2.964-0.151-5.56-2.664-7.294c-0.172-2.54,0.555-3.371,2.857-3.304
	c1.12,0.032,2.235,0.234,3.354,0.328c0.973,0.083,1.785-0.205,2.499-0.942c0.864-0.892,1.843-1.673,2.646-2.389
	c0.148-1.736-1.117-2.396-1.833-3.347c-0.205-1.589-0.205-1.589,1.136-3.026c0.569-0.041,1.221-0.087,1.834-0.131
	c0.756,0.42,1.467,0.778,2.139,1.197c1.272,0.794,2.65,1.179,4.143,1.179c1.726-0.001,2.878,0.811,3.5,2.441
	C101.914,122.75,100.176,124.346,100.917,126.734z"/>
<path class="stroke" fill="#3b4954"  fill-rule="evenodd" clip-rule="evenodd" d="M76.089,122.239c-1.25,2.229-1.312,5.244-4.706,5.255
	c-2.096-1.24-2.177-1.618-1.911-3.822c0.203-1.678,0.167-3.398,0.087-5.093c-0.064-1.346-0.149-1.384,1.099-2.591
	C73.858,116.79,74.42,119.881,76.089,122.239z"/>
<path class="stroke" fill="#3b4954"  fill-rule="evenodd" clip-rule="evenodd" d="M62.614,159.773c2.963,1.38,6.264,2.194,7.771,5.464
	c-0.981,2.277-1.855,2.666-5.246,2.348c-1.259-1.385-2.725-2.802-3.948-4.402C60.113,161.773,60.609,160.672,62.614,159.773z"/>
<path class="stroke" fill="#3b4954"  d="M181.442,149.145c-1.339-0.363-2.344-1.139-3.251-2.151c-0.611-0.68-1.319-1.295-2.064-1.827
	c-0.964-0.69-2.062-0.62-2.979,0.043c-1.004,0.726-1.723,1.752-1.309,3.078c0.517,1.656,0.456,3.25-0.219,4.919
	c0.145,0.387,0.263,0.626,0.326,0.88c0.938,3.785,3.74,5.618,7.166,6.703c1.362,0.431,2.756,0.251,3.963-0.669
	c2.161-1.647,2.914-3.927,2.583-6.49C185.348,151.229,183.75,149.771,181.442,149.145z"/>
<path fill-rule="evenodd" clip-rule="evenodd" fill="#e5f3a5" class="fill" d="M50.328,161.343c-0.048,1.006-0.09,1.89-0.133,2.774
	c-0.134,0.043-0.268,0.084-0.401,0.127c-0.276-0.296-0.588-0.566-0.823-0.891c-1.289-1.785-2.614-1.995-4.363-0.612
	c-1.339,1.059-2.467,2.459-4.482,2.547c-1.305-0.147-2.511-0.699-3.57-1.715c-1.594-1.53-3.585-2.173-5.783-2.183
	c-1.738-0.008-3.439-0.182-5.054-1.076c-0.867-0.985-0.618-2.19-0.461-3.362c0.174-1.31,0.48-2.606,0.592-3.92
	c0.104-1.228-0.351-2.205-1.758-2.519c-1.491,0.601-2.067,2.902-4.458,2.369c0.13-0.858,0.254-1.668,0.352-2.304
	c1.168-1.644,3.057-1.23,4.583-2.198c0.765-1.448,0.57-3.208,0.34-4.862c-0.207-1.485-0.868-2.91-1.351-4.354
	c-0.441-1.318-1.374-1.848-2.757-1.761c-0.697,0.044-1.406-0.097-2.33-0.173c-0.184-1.221-0.383-2.308-0.502-3.402
	c-0.207-1.889-0.716-2.465-2.631-2.674c-0.494,0.897-1.018,1.851-1.558,2.832c-1.068-0.253-1.157-0.948-1.205-1.867
	c0.412-0.46,0.822-1.081,1.38-1.509c1.422-1.09,1.743-2.594,1.761-4.233c0.022-2.095,0.644-3.073,2.478-3.819
	c3.404-1.383,4.285-4.171,2.286-7.291c-0.356-0.556-0.781-1.066-1.239-1.684c0.106-1.956-0.525-3.707-2.174-5.142
	c-0.481-0.035-1.056-0.078-1.628-0.12c0-2.135-0.005-4.228,0.002-6.321c0.011-2.983,0.018-5.966,0.053-8.949
	c0.026-2.246,1.061-3.614,3.439-4.454c0.56,0.355,1.227,0.765,1.879,1.196c2.193,1.452,4.515,1.26,6.266-0.637
	c0.791-0.856,1.602-1.527,2.786-1.756c1.29-0.249,1.979-1.19,2.463-2.361c0.869-2.1,1.978-2.81,4.358-2.84
	c1.431,1.896,2.113,4.572,4.874,5.485c0.557-0.284,1.138-0.58,1.695-0.864c1.384-2.685,0.318-4.898-1.15-7.047
	c-0.394-0.576-0.781-1.158-1.177-1.748c1.437-1.762,3.25-2.165,5.123-2.081c2.46,0.111,4.716-0.408,6.906-1.478
	c1.678-0.82,2.947-1.979,3.7-3.91c-0.29-0.551-0.618-1.172-0.912-1.729c-2.028-0.477-3.741-0.056-5.555,0.579
	c-2.541,0.89-5.215,1.411-7.851,2.005c-0.462,0.104-1.055-0.127-1.52-0.348c-1.181-0.56-2.309-0.416-3.462,0.052
	c-0.552,0.223-1.122,0.421-1.7,0.558c-1.624,0.384-2.984,1.202-3.833,2.627c-0.894,1.499-2.287,2.133-3.826,2.614
	c-2.797,0.873-3.421,1.929-2.936,4.865c0.106,0.64,0.077,1.303,0.116,2.106c-0.654,0.34-1.276,0.663-2.01,1.045
	c-0.987-0.581-1.942-1.143-3.145-1.85c-0.306-1.436-0.646-3.032-1.018-4.779c0.375-0.665,0.679-1.507,1.229-2.133
	c2.448-2.786,4.946-5.53,7.478-8.24c0.516-0.552,1.262-0.89,1.857-1.295c0.601,0.287,1.033,0.456,1.429,0.688
	c1.136,0.669,2.258,0.63,3.405,0.028c0.586-0.307,1.214-0.533,1.794-0.852c1.632-0.896,3.287-0.839,4.995-0.242
	c2.973,1.04,6.384-0.112,8.14-2.755c0.623-0.938,1.099-1.976,1.752-2.889c1.155-1.611,2.435-3.134,3.585-4.748
	c0.996-1.397,1.95-2.834,2.808-4.318c1.354-2.34,3.402-3.553,6.018-3.605c2.154-0.044,3.782-0.955,5.33-2.298
	c1.346-1.167,2.775-2.241,4.198-3.317c0.585-0.442,1.25-0.771,2.078,0.043c-0.325,0.393-0.618,0.792-0.957,1.148
	c-0.912,0.956-1.894,1.849-2.755,2.847c-1.818,2.106-1.805,4.025,0.032,6.148c0.426,0.492,1.032,0.828,1.551,1.232
	c-0.312,0.896-0.499,1.52-0.745,2.118c-0.575,1.4-0.708,2.826-0.274,4.279c0.352,1.181,0.138,2.237-0.637,3.167
	c-2.325,2.789-3.327,6.134-3.936,9.604c-0.546,3.117-0.573,6.312-1.488,9.386c-0.251,0.844-0.038,1.827-0.038,2.745
	c0.517,0.571,1.001,1.107,1.619,1.791c-0.638,2.441-1.044,4.997,0.986,7.544c1.524,0.888,3.461,0.95,5.45,0.531
	c1.494-0.314,2.944-0.645,4.484-0.082c2.466,0.902,3.168,2.197,2.125,4.586c-1.108,2.539-2.349,5.021-3.548,7.519
	c-0.106,0.221-0.334,0.384-0.401,0.458c-0.924-0.459-1.75-0.87-2.795-1.39c-0.929,1.439-1.73,2.682-2.533,3.924
	c-0.113-0.039-0.227-0.076-0.339-0.115c0.113-0.429,0.204-0.866,0.344-1.287c0.453-1.365,0.556-2.734-0.029-4.075
	c-0.698-1.599-2.234-2.073-3.547-0.942c-0.876,0.754-1.7,1.732-2.158,2.78c-1.125,2.569-1.705,5.285-1.367,8.132
	c0.184,1.534,0.138,3.061-0.548,4.479c-0.367,0.76-0.864,1.458-1.411,2.364c-1.58-0.602-3.032-1.155-4.395-1.674
	c-1.709,0.846-1.709,0.846-2.236,2.562c0.984,0.822,2.022,1.688,3.021,2.523c-1.022,2.342-3.041,3.31-5.571,2.802
	c-2.522-0.507-3.517-0.112-5.06,2.039c0.342,2.172,2.275,2.021,3.995,2.498c-0.159,2.406-2.994,2.554-3.594,4.43
	c-0.237,1.541-0.417,3.044-1.43,4.435c-0.938,1.288-0.283,3.479,0.957,4.701c0.685,0.676,1.308,1.415,1.82,1.975
	c-0.183,1.554-0.926,2.11-2.066,2.459c-2.555,0.783-2.996,1.608-2.53,4.258c0.068,0.389,0.15,0.78,0.165,1.172
	c0.072,1.959,0.741,3.371,2.838,4.012C48.956,159.72,49.594,160.695,50.328,161.343z"/>
<path fill-rule="evenodd" clip-rule="evenodd" fill="#e5f3a5" class="fill" d="M58.253,150.319c-1.479-1.16-3.523-1.328-4.501-3.494
	c0.425-2.373,0.967-5.144-1.579-6.939c0.024-2.406,0.376-2.969,2.422-4.137c0.13-0.021,0.279-0.094,0.388-0.055
	c2.043,0.757,3.83,0.057,5.658-0.834c2.385-1.162,3.448-1.247,6.529-0.956c0.44,0.528,0.975,1.168,1.389,1.665
	c-0.373,1.278-0.676,2.323-0.961,3.303c1.113,1.139,2.313,1.172,3.49,1.019c1.417-0.184,2.26-1.237,2.4-2.737
	c0.09-0.963,0.191-1.924,0.313-3.141c1.58,0.941,1.76,2.291,1.69,3.521c-0.068,1.184-0.598,2.34-0.896,3.408
	c0.325,0.392,0.471,0.616,0.662,0.79c1.612,1.468,1.872,2.301,0.865,4.139c-1.149,2.097-1.931,4.175-1.278,6.622
	c0.29,1.082-0.4,1.885-1.231,2.526c-1.806,1.394-3.898,1.627-6.027,1.246c-1.998-0.356-3.979-0.766-5.551-2.363
	c-0.732-0.743-1.967-0.992-3.044-1.498C58.762,151.761,58.522,151.083,58.253,150.319z"/>
<path fill-rule="evenodd" clip-rule="evenodd" fill="#e5f3a5" class="fill" d="M73.524,163.372c0.46-0.484,0.748-0.993,1.181-1.205
	c1.69-0.829,2.439-2.33,3.08-3.958c0.508-1.291,1.058-2.566,1.635-3.827c0.252-0.551,0.621-1.048,1.093-1.482
	c0.429,2.458-0.269,4.624-1.535,6.549c-1.407,2.141-2.029,4.568-2.85,6.917c-0.776,2.22-0.698,2.319-2.091,3.413
	c-0.388-0.477-0.778-0.958-1.242-1.53C73.64,166.692,74.503,165.15,73.524,163.372z"/>
<path fill-rule="evenodd" clip-rule="evenodd" fill="#e5f3a5" class="fill" d="M49.816,155.679c0.926-0.424,1.563-0.716,2.395-1.098
	c2.328,2.119,3.688,4.828,5.435,7.55c-1.592,0.148-2.811,0.26-4.016,0.372c-0.29-1.389-0.305-2.854-0.918-3.998
	C52.144,157.446,50.937,156.729,49.816,155.679z"/>
<path fill-rule="evenodd" clip-rule="evenodd" fill="#FF563F" d="M166.073,59.043c0.394,1.51,0.014,14.299-0.505,17.186
	c-0.925,0.109-1.9,0.333-2.872,0.322c-5.225-0.062-10.448-0.196-15.673-0.274c-2.183-0.032-4.368,0.041-6.55,0.017
	c-3.768-0.042-7.535-0.111-11.301-0.199c-0.51-0.012-1.015-0.198-1.743-0.349c0.249-5.558-0.238-11.09,0.867-16.702
	C140.95,59.043,153.447,59.043,166.073,59.043z"/>
<path fill-rule="evenodd" clip-rule="evenodd" fill="#FF563F" d="M167.895,36.868c-0.352,5.336-0.636,10.369-1.048,15.554
	c-13.076-0.221-25.824-0.437-38.835-0.656c0.16-5.289,0.315-10.417,0.475-15.677C141.688,36.351,154.676,36.607,167.895,36.868z"/>
<path fill-rule="evenodd" clip-rule="evenodd" fill="#FEFEFE" d="M166.582,54.129c0,1.083,0,1.921,0,2.962
	c-13.217,0.969-26.362,0.112-39.735,0.405c-1.456,5.892-0.481,11.873-1.035,17.787c-1.214,0.752-2.43,0.096-3.799,0.104
	c-0.444-5.461-0.008-10.865-0.018-16.33c-1.733-0.483-3.299-0.208-4.864-0.175c-4.901,0.102-9.803,0.151-14.705,0.209
	c-0.181,0.002-0.365-0.113-0.818-0.264c0.106-1.632,0.214-3.299,0.328-5.057c6.869,0,13.469,0,20.309,0
	c0.185-6.038,0.366-12.007,0.557-18.252c1.516,0.128,2.787,0.236,4.231,0.358c-0.191,5.953-0.375,11.688-0.565,17.594
	c0.636,0.145,1.131,0.383,1.604,0.346c6.62-0.519,13.237-0.36,19.866-0.105c5.428,0.209,10.866,0.148,16.298,0.222
	C164.953,53.944,165.668,54.05,166.582,54.129z"/>
<path fill-rule="evenodd" clip-rule="evenodd" fill="#FF563F" d="M102.787,35.39c4.332-0.829,15.605-0.697,18.472,0.25
	c-0.125,5.392-0.252,10.847-0.377,16.24c-1.775,0.6-15.307,0.554-18.963-0.057c0.174-2.714,0.375-5.463,0.521-8.215
	C102.582,40.907,102.67,38.203,102.787,35.39z"/>
<path fill-rule="evenodd" clip-rule="evenodd" fill="#FF563F" d="M120.232,75.338c-6.198,0.188-12.109,0.368-18.148,0.552
	c-0.611-5.157-0.571-10.085-0.506-15.079c6.347-0.147,12.478-0.289,18.904-0.438C120.712,65.327,120.11,70.239,120.232,75.338z"/>
<path fill-rule="evenodd" clip-rule="evenodd" fill="#e5f3a5" class="fill" d="M91.596,125.789c0.178-0.079,0.408-0.235,0.66-0.281
	c1.189-0.22,1.909-0.916,2.071-2.1c0.175-1.288-0.304-2.336-1.367-3.101c-0.5-0.36-1.01-0.707-1.511-1.057
	c0.538-0.875,1.022-0.66,1.494-0.364c1.407,0.881,2.949,1.067,4.576,1.03c0.744-0.017,1.495,0.24,2.405,0.401
	c-1.515,2.979-1.517,5.689-0.028,8.31c1.979,0.8,3.008,0.314,3.744-1.603c0.33-0.859,0.246-2.057,1.603-2.291
	c0.88,0.62,0.825,1.438,0.546,2.297c-0.382,1.176-0.408,2.335,0.179,3.713c0.545,0.12,1.213,0.268,1.835,0.405
	c1.712-1.5,2.276-3.262,1.972-5.288c-0.225-1.498-0.521-2.996-0.937-4.451c-0.225-0.787-0.765-1.484-1.069-2.047
	c-1.046-0.212-1.8-0.365-2.67-0.541c0.352-1.358,1.362-1.756,2.239-2.271c0.853-0.501,1.746-0.935,2.588-1.452
	c2.25-1.38,4.78-1.576,7.277-1.466c2.326,0.102,3.68,2.201,2.915,4.363c-1.103,3.117-1.127,6.324-1.221,9.149
	c1.023,1.958,1.871,3.58,2.687,5.141c-0.281,0.811-0.493,1.418-0.776,2.235c-0.657-0.197-1.233-0.285-1.73-0.532
	c-2.207-1.095-3.088-0.859-4.55,1.119c-1.331,1.802-2.951,3.447-2.844,5.978c1.099,2.376,4.248,1.727,5.629,3.798
	c0.195,2.259-0.641,3.408-2.998,4.397c-1.94,0.814-3.826,1.764-5.715,2.696c-0.953,0.471-1.542,1.239-1.527,2.386
	c0.328,1.609,1.824,2.143,2.91,3.017c-0.159,1.637-0.469,2.3-1.612,2.331c-3.011,0.082-5.931-0.297-8.031-2.747
	c-0.056-0.544-0.103-0.937-0.135-1.332c-0.244-3.064-2.215-4.982-5.304-4.986c-1.376-0.002-2.753,0.276-4.132,0.407
	c-0.835,0.08-1.674,0.121-2.626,0.187c-0.228-1.44,0.382-2.894-0.987-4.052c-0.856-0.363-2.408-0.101-2.812-2.002
	c0.766-0.304,1.519-0.603,2.468-0.98c1.121-2.66,0.128-4.856-1.951-6.78c0.49-1.644,1.106-3.271,0.126-4.837
	c-0.869-1.388-1.854-2.702-2.857-4.149c0.818-0.587,1.701-0.567,2.587-0.337C88.753,129.148,89.251,128.992,91.596,125.789z"/>
<path fill-rule="evenodd" clip-rule="evenodd" fill="#e5f3a5" class="fill" d="M95.842,172.684c-0.865,0.451-1.795,0.935-2.698,1.405
	c-0.533-0.149-1.065-0.155-1.401-0.416c-2.449-1.896-5.383-2.767-8.166-3.958c-0.877-0.375-1.652-0.847-1.595-2.086
	c0.607-0.361,1.218-0.725,2.131-1.268c0.046-0.896,0.103-1.973,0.172-3.319c0.976-1.438,1.527-1.563,4.618-0.75
	c1.61,2.731,3.76,4.867,7.25,4.663c0.738-0.823,1.333-1.487,2.023-2.256c0.583,0.524,1.009,0.905,1.295,1.162
	c0.251,2.396,0.482,4.591,0.728,6.93C98.931,173.306,97.522,172.606,95.842,172.684z"/>
<path fill-rule="evenodd" clip-rule="evenodd" fill="#e5f3a5" class="fill" d="M105.648,176.302c-1.475-1.895-2.535-5.749-2.381-7.585
	c0.124-1.472-0.185-2.741-1.383-3.722c-0.348-0.285-0.592-0.693-0.862-1.018c-0.089-1.593,0.992-1.895,1.88-2.097
	c1.734,0.789,3.266,1.508,4.815,2.184c1.655,0.722,2.03,2.332,0.797,3.661c-0.311,0.335-0.735,0.561-1.074,0.874
	c-1.763,1.626-2.772,3.494-1.977,5.987C105.635,175.123,105.592,175.728,105.648,176.302z"/>
<path fill-rule="evenodd" clip-rule="evenodd" fill="#e5f3a5" class="fill" d="M118.685,160.625c-0.489,0.03-0.979,0.062-1.467,0.09
	c-1.6,0.094-3.156,0.207-4.195,1.749c-0.469,0.696-1.193,1.2-2.266,1.043c-0.104-1.829,1.764-1.562,2.609-2.708
	c0.061-0.577,0.148-1.413,0.234-2.231C115.704,157.126,116.079,158.225,118.685,160.625z"/>
<path fill-rule="evenodd" clip-rule="evenodd" fill="#e5f3a5" class="fill" d="M180.493,158.7c-2.692-0.494-4.574-2.081-6.167-3.598
	c-0.151-2.514-0.281-4.682-0.418-6.957c0.365-0.31,0.747-0.633,1.255-1.063c0.684,0.505,1.307,0.968,1.933,1.426
	c1.166,0.853,2.248,1.871,3.518,2.52c3.347,1.707,3.76,4.254,0.968,6.826C181.292,158.121,180.959,158.34,180.493,158.7z"/>
<path fill-rule="evenodd" clip-rule="evenodd" fill="#e5f3a5" class="fill" d="M72.184,119.65c0.666,0.94,1.174,1.658,1.708,2.412
	c-0.745,1.303-1.402,2.453-2.128,3.723c-1.163-1.136-0.419-2.033-0.23-2.924C71.732,121.924,71.915,120.983,72.184,119.65z"/>
<path fill-rule="evenodd" clip-rule="evenodd" fill="#e5f3a5" class="fill" d="M63.151,161.758c2.125,0.902,3.984,1.449,5.086,3.541
	c-0.913,0.051-1.603,0.089-2.362,0.132C65.273,164.083,63.611,163.648,63.151,161.758z"/>
</svg>
