<svg version="1.1" id="svg" xmlns="http://www.w3.org/2000/svg" xmlns:xlink="http://www.w3.org/1999/xlink" x="0px" y="0px"
	 width="200px" height="200px" viewBox="0 0 200 200" enable-background="new 0 0 200 200" xml:space="preserve">
<path class="stroke" fill="#58281d"  d="M197.699,68.081c-0.3,0.131-0.682,0.253-1.016,0.455c-0.611,0.37-1.177,0.811-1.789,1.179
	c-4.79,2.878-10.001,4.512-15.524,5.21c-2.288,0.29-4.576,0.578-6.866,0.853c-0.735,0.088-1.475,0.134-2.509,0.225
	c0.43-0.392,0.614-0.609,0.842-0.762c1.218-0.813,2.485-1.56,3.663-2.427c1.383-1.019,2.652-2.194,4.043-3.201
	c1.388-1.004,2.237-2.375,2.93-3.87c0.339-0.729,0.165-1.201-0.466-1.732c-1.29,0.553-2.667,0.994-3.889,1.703
	c-1.759,1.02-3.596,1.799-5.513,2.446c-4.997,1.684-10.125,2.767-15.357,3.324c-2.88,0.305-5.789,0.345-8.613,1.095
	c-0.252,0.066-0.545-0.025-0.805-0.043c-0.122-1.375-0.119-1.373,0.618-2.27c0.267-0.324,0.536-0.649,0.778-0.992
	c1.088-1.542,1.123-2.978,0.031-4.55c-0.522-0.752-1.161-1.423-1.886-2.298c0.304-1.512,0.632-3.142,0.949-4.715
	c1.621-0.565,2.359-1.815,3.154-3c0.896-1.335,0.359-2.761,0.221-4.176c-0.16-0.275-0.398-0.546-0.485-0.859
	c-0.488-1.771-1.038-3.535-1.38-5.336c-0.563-2.965-3.006-4.814-6.184-4.649c-0.725-0.567-1.513-1.182-1.996-1.56
	c-0.394-1.236-0.581-2.15-0.968-2.97c-0.815-1.722-2.236-2.764-4.259-2.383c-1.269,0.238-2.505,0.648-4.023,1.051
	c-0.666-0.088-1.621-0.216-2.597-0.347c-0.512-0.617-1.018-1.232-1.528-1.844c-1.974-2.369-5.79-2.117-7.543-0.626
	c-0.508,0.432-1.001,0.881-1.502,1.324c-0.011-0.064-0.023-0.129-0.035-0.193c-2.577,0.293-5.154,0.586-7.845,0.894
	c-0.73-0.546-1.596-1.085-2.329-1.767c-0.796-0.739-1.699-0.927-2.68-0.739c-1.803,0.345-3.307,1.185-4.228,2.863
	c-0.302,0.55-0.626,1.087-0.907,1.572c-2.005,0.671-3.952,1.331-5.905,1.969c-0.315,0.103-0.659,0.124-0.993,0.163
	c-0.792,0.09-1.586,0.161-2.379,0.252c-1.559,0.182-2.469,1.073-2.93,2.558c-0.284,0.915-0.153,1.741,0.209,2.567
	c0.184,0.419,0.42,0.815,0.668,1.287c-0.337,0.438-0.69,0.895-0.982,1.274c-1.963,0.129-3.807,0.232-5.647,0.377
	c-2.26,0.176-4.531,0.287-6.773,0.604c-5.885,0.833-11.399,2.878-16.674,5.534c-2.847,1.433-5.536,3.177-8.31,4.757
	c-1.861,1.061-3.783,2.02-5.611,3.134c-2.556,1.556-5.235,2.836-8.016,3.923c-2.157,0.843-4.344,1.689-6.067,3.285
	c-2.965,2.747-5.766,5.647-7.711,9.256c-0.597,1.109-1.271,2.175-1.742,2.974c-1.274,0.82-2.341,1.413-3.299,2.146
	c-1.499,1.147-2.929,2.385-4.38,3.595c-2.454,2.046-4.524,4.442-5.759,7.387c-1.197,2.857-2.108,5.836-3.111,8.774
	c-0.255,0.748-0.338,1.554-0.571,2.312c-0.555,1.804-1.144,3.597-1.735,5.389c-0.197,0.597-0.471,1.168-0.659,1.768
	c-0.206,0.662-0.353,1.343-0.484,1.856c1.044,1.601,1.965,1.842,3.229,0.776c0.781-0.659,1.406-1.543,1.972-2.41
	c1.333-2.035,2.549-4.146,3.883-6.181c1.3-1.986,3.005-3.613,4.821-5.125c0.21-0.175,0.479-0.279,0.833-0.479
	c0.048,0.398,0.126,0.678,0.108,0.951c-0.084,1.299-0.197,2.596-0.296,3.894c-0.224,2.928-0.475,5.853-0.656,8.783
	c-0.08,1.295-0.088,2.604,0.001,3.898c0.075,1.083-0.099,2.062-0.495,3.068c-0.771,1.951-1.515,3.919-2.13,5.923
	c-0.657,2.143-0.794,4.36-0.646,6.607c0.087,1.336,0.126,2.705-0.06,4.024c-0.327,2.327-0.827,4.629-1.283,6.938
	c-0.569,2.895-1.046,5.788-0.662,8.757c0.11,0.858,0.087,1.734,0.122,2.507c-0.519,0.36-0.892,0.621-1.219,0.848
	c-0.532,3.131,3.153,5.57,6.962,4.606c3.108,2.601,6.473,2.681,9.934,0.626c2.07,0.903,4.135,0.87,6.192,0.184
	c0.789-0.264,1.504-0.745,2.291-1.019c1.004-0.35,1.765-0.916,2.203-1.89c-0.277-1.804-1.781-2.203-3.195-2.8
	c-0.117-0.772-0.289-1.553-0.347-2.342c-0.296-4.047,0.421-7.959,1.749-11.76c1.509-4.323,3.048-8.633,3.861-13.16
	c0.128-0.716,0.374-1.41,0.609-2.277c0.29,0.309,0.466,0.435,0.556,0.605c0.688,1.288,1.799,2.077,3.072,2.699
	c1.203,0.587,2.391,1.2,3.521,1.77c0.03,0.208,0.059,0.294,0.05,0.374c-0.029,0.25-0.063,0.502-0.114,0.748
	c-0.422,2.013-0.146,3.928,0.798,5.749c1.509,2.906,3.069,5.787,4.521,8.723c1.324,2.675,2.492,5.427,3.062,8.381
	c0.398,2.062,0.641,4.157,1.115,6.2c0.394,1.694,1.078,3.33,2.788,4.146c0.936,0.447,1.966,0.692,3.413,1.185
	c0.681,0.418,1.755,1.156,2.901,1.76c1.767,0.933,3.581,0.897,5.277-0.176c0.655-0.415,1.162-1.063,1.784-1.652
	c0.245,0.153,0.532,0.262,0.718,0.463c0.67,0.725,1.541,1,2.463,1.163c0.826,0.146,1.66,0.25,2.489,0.384
	c1.338,0.216,2.593,0.046,3.722-0.763c0.237-0.17,0.505-0.298,0.861-0.507c1.608,0.38,3.045-0.153,4.371-1.383
	c0.155-0.409,0.345-0.912,0.559-1.478c-0.461-0.494-0.813-1.077-1.33-1.375c-0.89-0.514-1.883-0.851-2.832-1.262
	c-0.047,0.053-0.094,0.105-0.141,0.159c-0.228-0.475-0.456-0.948-0.668-1.389c0.729-0.537,1.357-1,1.982-1.46
	c0.63,0.046,1.26,0.15,1.883,0.126c1.583-0.062,2.2-0.75,2.237-2.563c-0.809-0.625-1.7-1.311-2.621-2.021
	c-0.039-0.129-0.102-0.286-0.132-0.448c-0.217-1.171-0.404-2.349-0.646-3.515c-0.425-2.043-0.987-4.063-1.296-6.122
	c-0.324-2.148-0.026-4.256,0.893-6.278c0.709-1.565,1.254-3.203,1.898-4.798c0.309-0.769,0.676-1.513,0.989-2.202
	c3.867-0.354,7.614-0.39,11.292-1.401c0.654,0.828,1.34,1.572,1.883,2.409c1.437,2.221,2.85,4.461,4.193,6.74
	c0.571,0.969,0.979,2.041,1.398,3.092c0.43,1.081,0.46,2.198,0.182,3.343c-0.801,3.303-1.456,6.646-2.381,9.912
	c-1.174,4.142-1.775,8.361-2.189,12.624c-0.035,0.369-0.005,0.746-0.005,1.035c0.977,1.118,2.086,1.618,3.437,1.486
	c1.703-0.166,3.401-0.37,5.172-0.565c1.015,0.294,2.154,0.58,3.262,0.956c1.36,0.462,2.562,0.106,3.727-0.574
	c0.251-0.147,0.485-0.323,0.807-0.54c0.738,0.07,1.527,0.176,2.319,0.212c1.413,0.066,2.877,0.336,4.006-0.919
	c0.176-0.196,0.519-0.24,0.785-0.354c0.69-0.296,1.379-0.593,2.152-0.924c0.131-0.615,0.257-1.203,0.408-1.913
	c-0.857-0.358-1.577-0.659-2.42-1.01c-0.31-0.591-0.742-1.271-1.037-2.005c-0.575-1.428-0.938-2.871-0.096-4.362
	c0.39-0.691,0.621-1.469,0.959-2.192c1.216-2.593,2.224-5.257,2.856-8.06c0.44-1.949,1.341-3.691,2.46-5.341
	c0.466-0.688,0.941-1.436,1.141-2.224c0.398-1.581,0.607-3.21,0.901-4.817c0.088-0.479,0.202-0.953,0.304-1.435
	c0.471,0.028,0.805,0.038,1.137,0.067c2.554,0.227,5.024,0.632,6.659,2.951c0.238,0.338,0.571,0.618,0.886,0.895
	c2.963,2.602,6.241,3.539,10.01,1.89c0.224-0.098,0.471-0.146,0.691-0.213c1.143,1.53,1.736,1.641,3.346,0.542
	c0.656-0.448,1.232-1.012,1.841-1.529c4.275-3.63,6.767-8.187,7.073-13.834c0.072-1.33,0.15-2.678-0.362-3.984
	c-0.502-1.28-0.894-2.602-1.356-3.965c0.528-0.585,1.126-1.175,1.642-1.829c2.71-3.433,5.623-6.681,8.781-9.704
	c0.742-0.71,1.108-1.569,1.336-2.516c0.111-0.467,0.104-0.939-0.53-1.156c-0.155,0.069-0.357,0.132-0.53,0.241
	c-1.965,1.23-4.086,1.863-6.42,1.997c-1.836,0.105-3.661,0.471-5.48,0.78c-0.851,0.144-1.679,0.427-2.486,0.638
	c-0.926-1.494-1.571-4.319-1.693-6.093c-0.154-2.239,1.197-3.641,2.638-4.883c1.49-1.284,3.304-2.134,5.139-2.896
	c4.226-1.758,8.468-3.484,12.639-5.366c3.523-1.589,6.936-3.385,9.846-6.031c1.706-1.552,3.638-2.85,5.401-4.342
	c1.938-1.641,3.455-3.658,4.8-5.802C198.015,68.965,198.247,68.586,197.699,68.081z"/>
<path fill-rule="evenodd" clip-rule="evenodd" fill="#e3a13b" class="fill" d="M57.994,137.868c0.051,1.38,0.625,2.331,1.612,2.953
	c0.917,0.578,1.907,1.1,2.933,1.43c2.507,0.809,5.076,1.097,7.712,0.62c1.023-0.185,2.08-0.187,3.228-0.282
	c0.233,0.831,0.454,1.623,0.7,2.506c-2.285,1.581-4.604,2.981-7.435,3.158c-0.909,0.057-1.831-0.086-2.747-0.096
	c-0.333-0.004-0.667,0.114-1.114,0.198c0.532,1.118,1.42,1.25,2.26,1.458c2.04,0.502,4.012,0.121,5.949-0.509
	c0.988-0.321,1.937-0.756,3.058-1.201c0.844,1.982,1.759,3.867,2.45,5.831c0.599,1.702,1.398,3.241,2.669,4.501
	c1.092,1.082,1.596,2.228,0.723,3.761c-0.235-0.127-0.485-0.246-0.719-0.392c-0.534-0.333-1.039-0.718-1.594-1.012
	c-1.134-0.603-2.214-0.45-3.105,0.449c-0.414,0.416-0.742,0.917-1.108,1.38c-0.065-0.064-0.131-0.128-0.197-0.192
	c-0.124,0.02-0.25,0.034-0.372,0.062c-1.498,0.354-2.805,0.195-4.078-0.877c-1.294-1.091-2.912-0.827-4.467-0.458
	c-0.643,0.152-1.323,0.308-1.968,0.25c-1.396-0.125-2.312-0.904-3.002-2.176c-1.968-3.623-3.1-7.515-4.004-11.499
	c-0.562-2.475-1.544-4.788-2.767-7.007c-1.501-2.726-2.294-5.673-2.685-8.742c-0.026-0.197,0.029-0.406,0.059-0.756
	c1.156,0.165,2.251,0.319,3.396,0.482c0.145-0.295,0.259-0.532,0.419-0.861c-1.441-0.232-2.718-0.593-3.667-1.714
	c0.489-2.213,0.976-4.413,1.495-6.753c0.631,0.115,1.199,0.196,1.757,0.321c1.473,0.332,2.938,0.705,4.416,1.017
	c1.19,0.252,2.33-0.026,3.497-0.43c0.065-0.286,0.125-0.553,0.187-0.825c-0.175-0.089-0.277-0.171-0.391-0.195
	c-1.932-0.396-3.876-0.735-5.792-1.195c-1.267-0.304-2.483-0.785-3.397-1.811c-0.186-0.209-0.488-0.315-0.819-0.519
	c-0.391-1.595-1.217-3.141-1.112-4.92c0.014-0.232-0.111-0.492-0.227-0.708c-0.507-0.957-0.58-1.995-0.64-3.044
	c-0.047-0.796-0.183-1.585-0.239-2.38c-0.141-2.032,0.166-4.025,0.569-6.009c0.061-0.299,0.075-0.605,0.137-1.122
	c-0.461,0.235-0.729,0.332-0.948,0.491c-1.978,1.43-2.726,3.485-2.765,5.809c-0.034,2.013,0.118,4.029,0.16,6.044
	c0.04,1.847,0.045,3.695,0.055,5.542c0,0.11-0.085,0.222-0.197,0.495c-0.448-0.257-0.919-0.429-1.261-0.742
	c-2.611-2.388-4.66-5.156-5.774-8.564c-0.39-1.195-0.919-2.344-1.355-3.526c-0.928-2.519-1.871-5.034-2.729-7.577
	c-0.233-0.693-0.181-1.481-0.272-2.335c-0.173-0.075-0.417-0.179-0.812-0.349c-0.441,1.995-0.327,3.917-0.52,5.809
	c-0.194,1.904-0.607,3.786-0.94,5.768c-1.798-1.018-2.847-2.589-3.916-4.114c-1.058-1.51-2.067-3.061-2.994-4.655
	c-0.969-1.667-0.64-3.683-1.234-5.623c-0.382,0.22-0.642,0.369-0.831,0.478c0.137,2.662,0.604,5.125,1.64,7.454
	c1.062,2.387,2.272,4.675,4.103,6.599c0.952,1,1.758,2.138,2.632,3.211c0.264,0.322,0.533,0.637,0.921,1.102
	c0.071,1.283,0.15,2.741,0.24,4.386c-3.451-2.253-7.033-4.087-8.751-7.981c-0.201-0.454-0.318-0.945-0.459-1.423
	c-0.105-0.353-0.188-0.712-0.292-1.108c-0.334,0.037-0.569,0.062-0.938,0.102c0,0.489-0.097,0.958,0.017,1.369
	c0.584,2.129,1.143,4.294,2.604,6.027c0.583,0.692,1.324,1.296,2.096,1.771c1.214,0.747,2.527,1.333,3.777,2.024
	c0.729,0.403,1.417,0.882,2.12,1.325c0.226,3.13,0.905,6.144,0.404,9.293c-2.176,0.431-4.276,0.862-6.419,0.436
	c-1.766-0.353-3.513-0.801-5.256-1.256c-0.554-0.145-0.986-0.222-1.256,0.548c0.928,0.924,1.877,1.884,3.299,2.073
	c1.993,0.266,3.991,0.536,5.996,0.656c0.936,0.056,1.892-0.236,3.035-0.398c-0.435,0.991-0.81,1.849-1.114,2.542
	c-3.17,1.294-5.861,0.214-8.533-1c-0.497-0.226-0.976-0.493-1.479-0.706c-0.442-0.186-0.817-0.109-1.079,0.54
	c0.258,0.254,0.517,0.566,0.832,0.807c2.001,1.539,4.4,2.057,6.799,2.478c0.737,0.128,1.554-0.199,2.474-0.338
	c-0.232,0.652-0.438,1.255-0.661,1.851c-0.756,2.019-1.11,4.129-1.475,6.239c-0.15,0.868-0.397,1.719-0.543,2.587
	c-0.348,2.069-0.646,4.147-0.997,6.216c-0.215,1.279-0.394,2.584-1.429,3.794c-0.539,0.084-1.238,0.314-1.922,0.276
	c-2.012-0.115-4.021-0.305-6.026-0.527c-1.712-0.189-2.748-1.267-2.827-2.993c-0.07-1.551-0.063-3.111,0.008-4.663
	c0.235-5.164,0.505-10.326,0.78-15.487c0.133-2.534,0.636-5,1.423-7.41c0.521-1.597,1.035-3.196,1.567-4.79
	c0.448-1.337,0.541-2.709,0.502-4.107c-0.07-2.56-0.134-5.121-0.147-7.68c-0.011-2.27-0.004-4.542,0.094-6.809
	c0.076-1.756,0.302-3.505,0.463-5.257c0.015-0.168,0.056-0.332,0.071-0.499c0.583-6.102,2.799-11.661,5.782-16.925
	c2.207-3.893,5.218-7.113,9.008-9.538c1.98-1.266,4.023-2.433,6.044-3.632c0.16-0.095,0.376-0.097,0.647-0.161
	c-0.251,1.336-0.487,2.583-0.739,3.921c0.45,0.071,0.711,0.112,1.04,0.163c0.414-2.168,1.414-3.97,2.905-5.67
	c2.004-0.95,3.81-2.595,6.298-3.386c-1.71,3.682-3.441,7.133-3.115,11.233c0.386,0,0.649,0,0.977,0
	c0.102-0.713,0.184-1.371,0.291-2.025c0.5-3.085,1.786-5.849,3.455-8.458c0.294-0.459,0.502-0.979,0.829-1.411
	c0.4-0.525,0.818-1.074,1.339-1.463c3.008-2.247,6.216-4.123,9.772-5.403c2.646-0.952,5.209-2.141,7.864-3.063
	c2.545-0.885,5.199-1.393,7.905-1.456c1.634-0.038,3.273,0.044,4.908,0.103c0.386,0.014,0.768,0.147,1.185,0.348
	c-1.399,0.842-2.492,1.876-2.802,3.46c-0.296,1.508-0.306,3.015,0.65,4.153c-0.356,1.571-0.685,3.023-1.048,4.625
	c-0.613,0.136-1.377,0.346-2.156,0.47c-1.518,0.239-2.013,0.872-1.799,2.394c0.022,0.16,0.053,0.32,0.092,0.561
	c-0.903,0.437-1.786,0.863-2.85,1.378c2.089,2.659,4.226,4.893,7.6,5.551c0.193,0.591,0.371,1.138,0.606,1.859
	c-0.788,0.713-1.554,1.477-2.396,2.147c-0.851,0.678-1.656,1.333-1.419,2.559c-0.792,0.31-1.505,0.589-2.304,0.903
	c0.627,1.104,1.331,1.808,2.339,2.252c2.033,0.897,4.182,1.226,6.366,1.414c0.46,0.04,0.919,0.079,1.472,0.127
	c0.255,0.374,0.528,0.776,0.91,1.336c-2.041,0.55-3.886,1.14-5.9,0.843c-0.991-0.145-2.009-0.22-3.006-0.172
	c-0.529,0.025-1.042,0.384-1.586,0.602c0.114,2.261,1.11,3.88,2.776,5.001c1.735,1.167,3.605,2.132,5.575,3.277
	c0.359,0.914,0.386,2.049,0.473,3.169c0.137,1.757,0.204,3.522,0.377,5.276c0.277,2.831,1.25,5.476,2.328,8.081
	c0.533,1.288,0.938,2.585,1.025,3.995c0.093,1.519-0.785,2.952-2.242,3.366c-0.645,0.183-1.306,0.303-2.008,0.463
	c-1.17-0.481-1.742-1.551-2.227-2.596c-0.615-1.324-1.025-2.743-1.556-4.108c-0.253-0.652-0.58-1.274-0.832-1.823
	c-0.806-0.158-1.069,0.248-1.046,0.742c0.042,0.914,0.186,1.824,0.322,2.73c0.072,0.479,0.215,0.948,0.355,1.54
	c-1.191-0.08-2.066-0.56-2.959-0.986c-0.645-0.307-0.647-0.302-1.392,0.121c0.903,2.107,2.744,2.77,4.907,3.148
	c0.065,0.508,0.133,1.032,0.224,1.731c-0.877,0.261-1.694,0.622-2.54,0.724c-0.956,0.115-1.57,0.688-2.302,1.113
	c0.579,1.183,1.652,1.177,4.741,0.031c-0.025,1.147-0.169,2.221-0.724,3.15c-1.137,1.912-2.247,3.86-3.593,5.622
	c-1.141,1.495-2.053,3.056-2.609,4.691c-0.835,0.889-1.581,1.681-2.438,2.593c-2.81-0.662-5.922-0.096-8.77-1.423
	c-0.589-0.275-1.303-0.312-1.968-0.382c-0.281-0.029-0.583,0.136-0.93,0.228c0.291,1.154,1.003,1.773,1.885,2.039
	c1.439,0.435,2.918,0.814,4.407,0.985c1.408,0.164,2.852,0.035,4.279,0.028c0.327-0.002,0.654-0.027,0.953-0.041
	c-0.104,1.119-0.202,2.173-0.317,3.417c-0.594,0.069-1.331,0.236-2.064,0.227c-2.118-0.027-4.141-0.559-6.156-1.182
	c-1.845-0.569-3.727-1.016-5.598-1.495C58.793,137.81,58.495,137.868,57.994,137.868z M44.68,101.397
	c0.619,0.016,0.781-0.302,0.855-0.695c0.258-1.353,0.521-2.706,0.757-4.063c0.287-1.647,0.108-3.349,0.681-4.971
	c0.485-1.376,0.792-2.816,1.262-4.197c0.444-1.306,0.926-2.608,1.518-3.851c0.992-2.083,2.069-4.125,3.141-6.168
	c0.682-1.299,1.445-2.556,2.125-3.856c0.733-1.403,1.414-2.835,2.111-4.24c-0.253-0.328-0.424-0.548-0.581-0.753
	c-1.068,0.401-1.581,0.905-2.088,2.087c-0.775,1.809-1.487,3.647-2.307,5.437c-0.802,1.752-1.585,3.531-2.589,5.168
	c-2.512,4.096-3.667,8.633-4.423,13.281C44.783,96.779,44.827,99.049,44.68,101.397z M67.93,119.618
	c0.118-0.395,0.265-0.75,0.321-1.118c0.088-0.579,0.119-1.166,0.166-1.748c0.174-2.124,1.002-4.071,1.687-6.045
	c0.659-1.899,1.321-3.831,2.292-5.575c0.919-1.652,1.524-3.346,1.853-5.172c0.087-0.484,0.298-1.001-0.437-1.399
	c-0.275,0.221-0.609,0.45-0.902,0.726c-1.297,1.22-1.998,2.827-2.542,4.445c-0.976,2.903-1.808,5.858-2.609,8.817
	c-0.517,1.909-0.758,3.876-0.662,5.866C67.117,118.859,67.017,119.378,67.93,119.618z M75.407,125.203
	c-0.4,0.18-0.835,0.322-1.216,0.553c-3.412,2.064-7.143,1.909-10.894,1.574c-0.536-0.047-1.051-0.31-1.588-0.382
	c-0.866-0.116-1.742-0.187-2.615-0.205c-0.23-0.005-0.465,0.256-0.717,0.407c0.516,1.421,1.643,1.847,2.851,2.126
	c4.707,1.081,9.168,0.166,13.494-1.725C75.616,127.161,75.917,126.113,75.407,125.203z M62.196,85.68
	c-0.719-0.074-0.983,0.413-1.112,0.96c-0.554,2.367-1.228,4.72-1.571,7.119c-0.356,2.484-0.497,5.015-0.514,7.528
	c-0.014,2.129,0.272,4.261,0.448,6.391c0.043,0.528,0.322,0.846,1.097,0.646c-0.049-0.733-0.119-1.471-0.143-2.21
	c-0.06-1.884-0.166-3.77-0.123-5.651c0.024-1.122,0.276-2.241,0.456-3.356c0.307-1.899,0.605-3.801,0.97-5.689
	c0.264-1.358,0.669-2.69,0.93-4.05C62.744,86.791,62.931,86.096,62.196,85.68z M41.885,100.711c-0.35-0.785-0.635-1.344-0.855-1.928
	c-0.355-0.94-0.791-1.874-0.978-2.851c-0.626-3.264-1.128-6.557-0.758-9.893c0.234-2.116,0.162-4.288,1.035-6.31
	c0.222-0.518,0.255-1.118,0.369-1.652c-0.457-0.292-0.737-0.134-0.882,0.221c-0.68,1.667-1.545,3.28-1.611,5.136
	c-0.023,0.629,0.032,1.261,0.003,1.891c-0.083,1.804-0.269,3.607-0.272,5.41c-0.005,2.526,0.187,5.021,1.29,7.387
	c0.474,1.017,0.68,2.158,1.525,2.98c0.084,0.082,0.216,0.113,0.512,0.259C41.424,101.193,41.618,100.992,41.885,100.711z
	 M29.248,81.592c-1.2,0.202-1.78,0.8-2.023,2.065c-0.527,2.747-0.318,5.52-0.28,8.286c0.003,0.208,0.045,0.423,0.114,0.619
	c0.637,1.817,1.215,3.661,1.957,5.436c0.335,0.798,1.042,1.393,2.13,1.381c0.308-1.011-0.243-1.752-0.718-2.439
	c-1.745-2.523-2.414-5.3-2.254-8.34c0.119-2.272,0.207-4.537,1.133-6.668C29.332,81.87,29.282,81.776,29.248,81.592z M33.979,93.647
	c0-0.388-0.022-0.795,0.003-1.2c0.125-1.967,0.134-3.954,0.429-5.896c0.301-1.983,0.881-3.925,1.349-5.882
	c0.103-0.429,0.418-0.869-0.149-1.238c-0.773,0.192-1.202,0.788-1.453,1.449c-0.61,1.604-1.186,3.224-1.682,4.865
	c-0.403,1.331-0.575,2.705-0.345,4.11c0.143,0.867,0.188,1.749,0.311,2.619C32.595,93.542,32.903,93.789,33.979,93.647z
	 M67.398,75.346c0.098-0.184,0.233-0.393,0.325-0.62c0.535-1.322,0.997-2.678,1.603-3.966c0.981-2.087,1.889-4.275,3.777-5.73
	c1.077-0.831,1.812-1.736,1.918-3.294c-0.432,0.156-0.855,0.207-1.14,0.433c-0.587,0.469-1.19,0.966-1.627,1.567
	c-1.248,1.713-3.036,3.041-3.697,5.175c-0.072,0.232-0.288,0.416-0.4,0.64c-0.501,1.009-1.061,2-1.458,3.051
	c-0.229,0.606-0.257,1.314-0.252,1.975C66.448,75.062,66.702,75.482,67.398,75.346z M69.514,53.487
	c-1.667,0.573-3.368,2.272-4.171,3.48c-1.698,2.553-2.683,5.401-3.507,8.318c-0.062,0.217-0.008,0.468-0.008,0.816
	c0.305-0.104,0.583-0.114,0.65-0.237c0.371-0.683,0.739-1.375,1.016-2.101c0.73-1.923,1.49-3.816,2.857-5.408
	c1.172-1.365,2.291-2.775,3.437-4.168C69.694,53.949,69.621,53.761,69.514,53.487z M17.852,132.523
	c2.056,3.552,8.753,6.019,10.767,3.851c-0.566-0.104-1.026-0.227-1.494-0.266c-1.297-0.112-2.612-0.214-3.746-0.894
	c-1.25-0.749-2.43-1.615-3.638-2.434c-0.404-0.274-0.799-0.559-1.228-0.859C18.253,132.158,18.077,132.318,17.852,132.523z
	 M22.005,117.156c0.67,1.677,1.578,3.103,3.082,4.073c1.665,1.074,3.561,1.577,5.428,2.144c0.06,0.018,0.15-0.059,0.326-0.133
	c0.039-0.248,0.086-0.551,0.15-0.957c-1.066-0.448-2.054-0.895-3.064-1.282c-1.549-0.593-2.994-1.301-3.919-2.78
	c-0.309-0.493-0.706-0.934-1.079-1.385c-0.068-0.083-0.215-0.104-0.367-0.173C22.381,116.822,22.205,116.979,22.005,117.156z
	 M53.354,110.35c0.065-0.486,0.256-0.975,0.168-1.407c-0.459-2.261,0.016-4.397,0.726-6.518c0.095-0.282,0.101-0.595,0.156-0.939
	c-0.875-0.024-1.236,0.434-1.423,1.009c-0.259,0.792-0.489,1.601-0.632,2.421c-0.21,1.192-0.401,2.396-0.471,3.602
	C51.817,109.563,52.252,110.051,53.354,110.35z"/>
<path fill-rule="evenodd" clip-rule="evenodd" fill="#e3a13b" class="fill" d="M129.171,98.659c-0.083-0.227-0.165-0.454-0.254-0.698
	c-0.893-0.021-1.014,0.662-1.276,1.143c0.077,1.799,1.444,2.504,2.613,3.382c1.226,0.922,2.679,0.887,4.142,0.999
	c0.259,0.339,0.559,0.642,0.755,1.002c1.239,2.269,3.197,3.742,5.398,4.96c0.927,0.513,1.885,0.876,2.941,1.066
	c1.227,0.221,2.487,0.436,3.592,1.323c-0.045,0.599-0.113,1.217-0.133,1.838c-0.017,0.541-0.046,1.094,0.047,1.622
	c0.222,1.272,0.962,1.836,2.226,1.579c0.808-0.164,1.565-0.574,2.346-0.87c0.732-0.277,1.467-0.548,2.256-0.843
	c2.347,2.947,4.943,5.353,8.639,6.315c0,0.808,0,1.548,0,2.335c-0.942,0.654-2.046,0.895-3.157,1.105
	c-4.24,0.803-8.459,2.062-13.015,0.526c-1.239-1.69-3.131-2.887-5.166-3.95c-1.96-1.023-2.493-2.933-1.603-5.073
	c0.257-0.616,0.665-1.193,0.294-2.068c-0.181-0.118-0.484-0.315-0.76-0.496c-0.936,0.3-1.527,0.809-1.854,1.668
	c-0.809,2.124-0.011,3.844,1.32,5.431c0.268,0.319,0.595,0.604,0.941,0.837c2.302,1.551,3.894,3.807,5.76,5.789
	c0.369,0.392,0.647,0.88,0.916,1.353c0.7,1.23,1.371,2.476,2.053,3.715c-1.954,0.873-3.661-0.182-5.06-0.626
	c-0.821-0.722-1.427-1.185-1.948-1.729c-1.022-1.065-2.262-1.709-3.665-2.098c-1.821-0.505-3.659-0.976-5.276-2.017
	c-0.171-0.11-0.328-0.244-0.557-0.416c0.53-0.33,0.999-0.622,1.54-0.958c-0.219-0.284-0.339-0.439-0.486-0.631
	c-0.795,0.251-1.549,0.488-2.355,0.742c-0.202-0.185-0.403-0.371-0.585-0.538c0.502-0.729,1.911-0.353,1.801-1.837
	c-1.122,0.328-2.18,0.637-3.277,0.957c-0.441-0.373-0.84-0.71-1.264-1.069c0.769-0.704,2.025-0.47,2.417-1.77
	c-1.318-0.145-2.369,0.855-3.738,0.524c-0.256-0.218-0.629-0.534-1.018-0.866c0.844-0.784,2.255-0.612,2.667-2.069
	c-1.355-0.111-2.266,1.124-3.634,0.856c-0.315-0.272-0.719-0.625-1.229-1.068c1.07-0.611,2.414-0.701,2.787-2.095
	c-1.435,0.245-2.681,1.214-4.468,0.891c-0.504-0.401-1.217-0.969-2.017-1.604c1.067-0.67,2.331-0.834,2.955-1.946
	c-0.436-0.551-0.823-0.255-1.245-0.062c-0.91,0.415-1.838,0.791-2.736,1.173c-0.836-0.451-1.558-0.839-2.376-1.279
	c0.617-0.596,1.62-0.578,1.666-1.654c-1.583,0.066-3.033,1.132-4.732,0.502c0.108-0.497,0.216-1.001,0.337-1.558
	c-1.346-0.387-1.045,0.926-1.619,1.426c-0.16-0.013-0.394-0.034-0.681-0.059c0-0.576,0-1.099,0-1.73
	c-0.322,0.031-0.575,0.053-0.853,0.079c-0.078,0.487-0.143,0.896-0.223,1.392c-0.264,0.019-0.526,0.038-0.845,0.062
	c-0.07-0.603-0.13-1.126-0.191-1.662c-0.81-0.187-0.871,0.332-0.936,0.841c-0.048,0.384,0.132,0.896-0.68,0.938
	c-0.101-0.621-0.205-1.257-0.309-1.892c-0.775,0.125-0.775,0.125-0.98,1.917c-0.264,0-0.537,0-0.921,0
	c-0.171-0.61-0.38-1.197-0.499-1.802c-0.224-1.144-0.086-1.818,1.073-2.203c0.079-0.027,0.176-0.05,0.225-0.108
	c1.013-1.199,2.513-1.597,3.804-2.342c1.568-0.906,1.977-1.906,1.69-3.681c-0.06-0.369-0.085-0.744-0.128-1.131
	c0.953-0.739,2.259-0.89,3.134-1.959c-1.439-0.635-2.277,0.688-3.541,0.726c-0.169-0.415-0.352-0.86-0.561-1.375
	c0.766-0.577,1.489-1.121,2.305-1.734c-1.163-0.738-1.794,0.382-2.816,0.452c-0.432-0.775-0.914-1.639-1.378-2.473
	c0.414-0.734,1.437-0.883,1.497-1.884c-0.969-0.3-1.452,0.605-2.2,0.78c-0.717-0.616-1.381-1.333-2.18-1.836
	c-1.02-0.644-2.151-1.111-3.23-1.663c-0.859-0.44-1.757-0.827-2.547-1.369c-0.453-0.311-0.864-0.831-1.056-1.345
	c-0.729-1.959-1.908-3.519-3.637-4.707c-0.895-0.615-1.687-1.382-2.269-1.867c-0.641-2.049-1.091-3.842-1.77-5.544
	c-0.444-1.114-1.18-2.121-1.853-3.131c-1.047-1.576-1.521-3.215-1.102-5.131c0.521-2.387,0.765-4.835,0.524-7.268
	c-0.176-1.781,0.208-3.361,1.152-4.788c1.013-1.531,1.249-3.274,1.649-4.984c0.132-0.565,0.249-1.135,0.411-1.879
	c0.734,0.46,1.335,0.875,1.971,1.227c0.565,0.312,1.135,0.89,1.964,0.216c-1.014-1.108-2.637-1.383-3.254-2.948
	c0.525-0.499,1.071-1.007,1.606-1.527c0.871-0.847,1.765-1.674,2.597-2.558c1.491-1.586,3.235-2.458,5.471-2.557
	c1.844-0.081,3.363,0.367,4.742,1.574c0.941,0.824,1.994,1.52,3.08,2.334c-0.976,0.646-1.95,0.985-3.008,0.929
	c-1.802-0.096-3.599-0.278-5.399-0.409c-0.516-0.037-1.081-0.328-1.55,0.227c-0.104,0.717,0.458,1.095,0.919,1.353
	c1.458,0.821,2.944,1.612,4.481,2.268c1.113,0.474,2.326,0.712,3.492,1.059c0.355,0.106,0.708,0.222,1.116,0.569
	c-0.389,0.164-0.767,0.375-1.172,0.483c-2.692,0.715-5.399,0.589-8.122,0.154c-0.865-0.138-1.761-0.133-2.641-0.107
	c-0.356,0.01-0.706,0.25-1.324,0.488c2.299,1.903,4.746,2.916,7.189,3.833c2.453,0.921,5.025,1.522,7.795,2.336
	c-0.568,0.263-0.916,0.509-1.299,0.586c-1.851,0.376-3.703,0.754-5.569,1.037c-1.346,0.204-2.679-0.04-3.984-0.418
	c-0.604-0.176-1.226-0.292-1.835-0.456c-0.492-0.13-0.803,0.05-1.072,0.625c1.846,1.882,4.377,2.63,6.676,3.588
	c2.323,0.967,4.929,1.258,7.448,1.854c-0.498,0.599-1.296,0.711-2.033,0.841c-2.74,0.483-5.504,0.686-8.29,0.516
	c-0.87-0.053-0.871-0.039-1.519,0.611c0.49,0.386,0.928,0.827,1.449,1.123c2.09,1.182,4.259,2.192,6.607,2.761
	c1.389,0.338,2.781,0.66,4.168,1c0.361,0.088,0.712,0.218,1.088,0.334c0.727,2.537,1.439,5.022,2.195,7.66
	c-0.351,0.252-0.711,0.609-1.143,0.805c-2.36,1.069-4.785,1.734-7.438,1.495c-2.093-0.189-4.199-0.19-6.177-1.165
	c-0.465,0.312-0.898,0.6-1.483,0.992c0.996,0.62,1.907,0.918,2.852,0.989c2.092,0.156,4.194,0.188,6.288,0.343
	c2.495,0.185,4.943-0.123,7.391-0.526c0.243-0.041,0.499-0.005,0.777-0.005c0.131,0.174,0.278,0.324,0.374,0.502
	c1.247,2.336,3.324,3.181,5.83,3.266c0.628,0.021,1.281-0.048,1.88,0.099c1.067,0.259,1.884-0.113,2.666-0.757
	c0.575-0.474,1.174-0.919,2.027-1.585c-0.068,2.516-0.563,4.871,1.488,6.644c-0.247,0.348-0.451,0.636-0.642,0.905
	c-1.374-0.155-1.886-1.774-3.388-1.77c-0.139,1.261,0.385,2.192,1.144,2.984c1.089,1.135,2.401,1.962,3.89,2.495
	c0.196,0.07,0.394,0.138,0.58,0.231c0.061,0.03,0.083,0.135,0.165,0.276c-1.88-0.104-3.773-0.273-4.865,1.695
	c0.378,0.531,0.708,0.406,1.08,0.237c2.055-0.938,4.091-0.68,6.108,0.142c0.092,0.038,0.148,0.164,0.305,0.344
	c-1.184,0-2.259-0.078-3.317,0.021c-1.157,0.109-1.708,1.116-2.388,1.899L129.171,98.659z M89.766,70.403
	c0.468,0.263,0.789,0.468,1.129,0.627c4.034,1.894,8.312,2.906,12.721,3.331c1.096,0.105,2.24-0.219,3.355-0.391
	c0.487-0.076,0.879-0.32,0.654-1.075c-0.317-0.024-0.676-0.063-1.033-0.077c-3.4-0.134-6.819-0.214-10.124-1.086
	c-2.328-0.615-4.675-1.276-6.688-2.71c-0.038-0.026-0.146,0.047-0.375,0.13C89.521,69.556,89.641,69.972,89.766,70.403z
	 M122.578,101.302c-0.134-0.37-0.278-0.742-0.402-1.119c-0.13-0.393-0.337-0.79-0.345-1.188c-0.038-2.144,0.569-4.03,2.317-5.425
	c0.165-0.131,0.248-0.362,0.394-0.586c-1.521-0.239-1.823-0.189-2.736,0.646c-1.167,1.067-1.61,2.517-1.9,3.997
	c-0.126,0.644-0.091,1.342-0.005,2C120.073,100.93,121.363,101.772,122.578,101.302z M117.628,84.838
	c-0.584-0.565-1.26-0.3-1.887-0.217c-1.497,0.199-2.983,0.563-4.484,0.629c-3.156,0.141-6.297-0.061-9.342-1.03
	c-0.503-0.161-0.903-0.091-1.013,0.514C103.246,86.669,115.544,86.754,117.628,84.838z M88.695,60.979
	c-0.047,0.109-0.095,0.22-0.142,0.331c0.482,1.375,1.211,2.523,2.721,3.005c1.593,0.507,3.168,1.081,4.771,1.555
	c0.614,0.182,1.283,0.172,2.019,0.26c0-0.458,0-0.731,0-1.175c-0.785-0.213-1.568-0.477-2.373-0.635
	c-1.152-0.226-2.27-0.438-3.243-1.202c-0.917-0.717-1.932-1.309-2.925-1.922C89.29,61.052,88.972,61.047,88.695,60.979z
	 M122.346,87.235c-0.975,0.166-1.851,0.262-2.701,0.468c-2.204,0.532-4.412,0.95-6.701,0.768c-0.874-0.069-1.758-0.009-2.636-0.007
	c-0.513,0.001-0.917,0.11-0.787,0.758c2.413,0.894,12.659-0.13,13.123-1.356C122.581,87.733,122.496,87.554,122.346,87.235z
	 M125.949,96.717c-1.907,0.783-2.531,2.799-1.459,4.358c1.214,1.766,3.078,2.333,5.031,2.73c0.072,0.015,0.178-0.146,0.294-0.248
	c-0.264-0.982-1.199-1.095-1.896-1.467c-2.012-1.074-2.569-2.328-1.978-4.546C126.005,97.302,125.949,97.027,125.949,96.717z
	 M91.782,52.736c2.297,1.342,4.632,2.066,7.156,2.485c0.125-0.283,0.229-0.522,0.392-0.893c-2.23-0.834-4.375-1.635-6.354-2.375
	c-0.302-0.535-0.496-0.878-0.689-1.221c-0.095,0.011-0.188,0.022-0.282,0.033C91.933,51.394,91.862,52.021,91.782,52.736z
	 M112.549,106.606c0.657,0.565,0.651,0.535,1.137,0.442c2.166-0.414,3.98-1.508,5.648-2.888c0.361-0.299,0.633-0.65,0.303-1.364
	c-0.779,0.518-1.475,1.026-2.215,1.459c-0.792,0.464-1.611,0.886-2.442,1.273C114.208,105.891,113.244,105.817,112.549,106.606z
	 M124.967,112.249c0.631,0.469,0.624,0.448,1.126,0.262c2.084-0.77,3.58-2.286,4.972-3.924c0.144-0.171,0.152-0.456,0.298-0.932
	c-1.382,0.743-2.142,1.772-3.115,2.534C127.249,110.971,126.092,111.554,124.967,112.249z M151.875,119.903
	c-2.24,0.281-4.423,1.496-4.696,2.771c0.364-0.093,0.67-0.125,0.935-0.247c0.714-0.331,1.409-0.706,2.115-1.053
	c0.41-0.202,0.844-0.36,1.237-0.588C151.781,120.602,152.119,120.372,151.875,119.903z M144.84,115.373
	c-0.101-0.077-0.201-0.154-0.302-0.23c-1.642,0.896-3.138,1.942-3.913,3.749c0.424,0.436,0.704,0.232,0.999-0.06
	c0.829-0.814,1.685-1.601,2.497-2.431C144.41,116.106,144.603,115.719,144.84,115.373z M128.863,113.407
	c0.371,0.528,0.677,0.364,1.018,0.121c1.317-0.939,2.6-3.005,2.482-4.145C131.179,110.745,130.041,112.053,128.863,113.407z
	 M113.824,103.333c1.383,0.384,2.188-0.595,3.148-1.01c0.347-0.15,0.624-0.534,0.312-0.992
	C115.214,101.799,114.364,102.259,113.824,103.333z M143.392,120.138c0.535,0.424,0.836,0.097,1.153-0.184
	c1.574-1.396,1.861-1.8,1.823-2.573C144.964,117.995,144,118.874,143.392,120.138z M95.618,57.972
	c-0.788-0.977-1.858-0.877-2.748-1.159c-0.153-0.049-0.41,0.228-0.782,0.452C93.248,58.075,94.251,58.438,95.618,57.972z
	 M133.024,112.887c-0.636,0.582-1.348,1.083-1.55,2.052c0.307,0.056,0.537,0.097,0.753,0.136
	C132.852,114.445,133.107,113.738,133.024,112.887z"/>
<path fill-rule="evenodd" clip-rule="evenodd" fill="#e3a13b" class="fill" d="M130.41,85.903c0.103-1.645,0.133-2.944,1.483-4.078
	c2.813-2.362,5.858-4.19,9.36-5.304c2.56-0.814,5.058-1.829,7.634-2.586c1.437-0.422,2.973-0.525,4.47-0.728
	c2.161-0.293,4.335-0.498,6.491-0.823c3.614-0.545,7.218-1.156,10.828-1.732c0.109-0.018,0.23,0.032,0.436,0.248
	c-1.176,0.602-2.309,1.32-3.538,1.783c-2.237,0.841-4.523,1.558-6.805,2.275c-2.122,0.667-4.238,1.392-6.407,1.865
	c-2.485,0.543-4.756,1.638-7.143,2.426c-0.357,0.118-0.711,0.269-1.035,0.456c-3.246,1.885-6.756,3.191-10.215,4.592
	C134.246,84.995,132.381,85.347,130.41,85.903z"/>
<path fill-rule="evenodd" clip-rule="evenodd" fill="#e3a13b" class="fill" d="M154.5,85.66c-0.524-1.113,0.299-1.876,0.309-2.779
	c0.273-0.125,0.494-0.243,0.727-0.33c1.962-0.738,3.969-1.373,5.877-2.229c2.397-1.074,4.872-1.782,7.461-2.137
	c3.823-0.525,7.65-1.017,11.465-1.589c1.822-0.273,3.621-0.701,5.432-1.053c0.428-0.083,0.86-0.142,1.312-0.112
	c-2.498,1.918-5.212,3.298-8.195,4.264c-3.626,1.174-7.346,1.669-11.092,2.175c-2.488,0.336-4.932,1.002-7.396,1.518
	c-1.78,0.372-3.435,1.069-5.031,1.921C155.118,85.443,154.838,85.525,154.5,85.66z"/>
<path fill-rule="evenodd" clip-rule="evenodd" fill="#e3a13b" class="fill" d="M157.001,131.009c-0.65,0.481-0.527,1.115-0.614,1.663
	c-0.237,1.491-0.421,2.991-0.69,4.476c-0.143,0.785-0.402,1.558-1.338,1.874c-0.539-1.448-1.071-2.877-1.666-4.478
	c0.166-1.292,0.83-2.754,0.319-4.601c-0.888,1.149-0.553,2.416-1.167,3.369c-0.754-0.2-0.857-0.744-0.807-1.357
	c0.079-0.958,0.181-1.913,0.276-2.896c-0.703,0.277-0.703,0.277-1.372,2.36c-1.044-1.199-1.633-2.549-2.55-3.944
	c5.176-0.141,10.217,0.387,14.921-1.793c0.269,1.476-0.254,3.371-1.589,5.836c-0.281-0.29-0.555-0.572-0.96-0.991
	c-0.157,1.327-0.128,2.466-0.458,3.49c-0.345,1.069-1.267,1.824-2.222,2.556C157.102,134.73,157.738,132.903,157.001,131.009z"/>
<path fill-rule="evenodd" clip-rule="evenodd" fill="#e3a13b" class="fill" d="M145.841,90.421c-0.069,0.41-0.138,0.821-0.208,1.233
	c-0.977-0.107-0.977-0.107-2.349-1.608c2.559-2.493,5.302-4.696,8.938-5.978c-0.678,1.851,0.254,3.995-1.758,5.475
	c-0.268-0.314-0.604-0.612-0.813-0.981c-0.217-0.384-0.309-0.838-0.451-1.248c-0.881-0.046-0.899,0.498-0.86,0.994
	c0.12,1.544,0.24,3.093,0.945,4.518c0.126,0.254,0.218,0.525,0.327,0.792c-0.864,0.254-0.864,0.254-1.872-0.146
	c-0.469-0.994-0.96-2.036-1.452-3.078C146.14,90.403,145.99,90.412,145.841,90.421z"/>
<path fill-rule="evenodd" clip-rule="evenodd" fill="#e3a13b" class="fill" d="M156.667,110.505c-0.143-0.372-0.306-0.797-0.462-1.205
	c0.079-0.153,0.107-0.321,0.196-0.363c1.546-0.738,3.036-1.682,4.664-2.139c2.656-0.747,5.402-1.174,8.112-1.73
	c0.112-0.022,0.239,0.027,0.445,0.053c-0.301,0.772-0.992,1.037-1.572,1.378c-2.058,1.21-4.119,2.418-6.221,3.547
	c-0.875,0.47-1.841,0.792-2.795,1.087C158.18,111.399,157.371,111.213,156.667,110.505z"/>
<path fill-rule="evenodd" clip-rule="evenodd" fill="#e3a13b" class="fill" d="M127.567,33.867c-1.034,1.169-2.358,1.429-3.683,1.517
	c-1.193,0.08-2.469,0.164-3.434-0.801c-0.435-0.434-0.793-0.945-1.213-1.455c0.865-1.518,2.19-2.115,3.762-2.207
	C125.149,30.796,126.473,32.044,127.567,33.867z"/>
<path fill-rule="evenodd" clip-rule="evenodd" fill="#e3a13b" class="fill" d="M19.989,82.386c-0.585,1.477-1.132,2.972-1.776,4.423
	C18.007,87.271,17.6,87.704,17.18,88c-1.062,0.746-2.247,1.326-3.264,2.124c-1.082,0.849-2.028,1.872-3.033,2.819
	c-0.236,0.223-0.473,0.447-0.879,0.586c0.056-0.252,0.042-0.553,0.178-0.751c0.637-0.933,1.264-1.883,1.99-2.745
	c1.675-1.986,3.394-3.935,5.118-5.876c0.716-0.805,1.534-1.5,2.507-1.97C19.859,82.252,19.925,82.318,19.989,82.386z"/>
<path fill-rule="evenodd" clip-rule="evenodd" fill="#e3a13b" class="fill" d="M109.741,34.499c-1.837,2.105-5.497,2.59-7.659,1.122
	c0.506-1.274,0.954-2.58,2.281-3.321c0.807-0.449,1.651-0.519,2.4-0.035C107.776,32.918,108.7,33.708,109.741,34.499z"/>
<path fill-rule="evenodd" clip-rule="evenodd" fill="#e3a13b" class="fill" d="M103.729,113.356c-2.232,0.039-4.266-0.043-6.202-0.811
	c-1.233-0.489-1.929-1.444-2.125-2.836c1.195-0.449,2.326,0.358,3.49,0.251c1.2-0.11,2.405-0.169,3.721-0.258
	C102.969,110.867,103.316,112.005,103.729,113.356z"/>
<path fill-rule="evenodd" clip-rule="evenodd" fill="#e3a13b" class="fill" d="M91.378,84.424c1.195,0.63,2.14,1.472,2.857,2.781
	c-1.198,0.65-2.419,0.984-3.715,0.994c-0.919,0.007-1.844-0.061-2.759-0.166c-1.271-0.145-1.684-0.443-2.349-1.598
	C87.25,85.295,89.402,85.122,91.378,84.424z"/>
<path fill-rule="evenodd" clip-rule="evenodd" fill="#e3a13b" class="fill" d="M87.553,78.089c-2.114-0.28-4.42,0.371-6.067-1.8
	c1.173-1.063,2.243-2.032,3.307-2.995C86.63,73.68,87.887,75.787,87.553,78.089z"/>
<path fill-rule="evenodd" clip-rule="evenodd" fill="#e3a13b" class="fill" d="M133.232,34.465c3.555-1.661,5.596-0.283,5.89,2.708
	C136.231,37.854,133.672,36.707,133.232,34.465z"/>
<path fill-rule="evenodd" clip-rule="evenodd" fill="#e3a13b" class="fill" d="M79.977,62.178c1.299-0.601,2.503-0.719,3.717-0.666
	c0.651,0.029,1.125,0.56,1.129,1.309c0.009,1.077,0.087,2.187-0.505,3.318C82,65.84,81.123,64.005,79.977,62.178z"/>
<path fill-rule="evenodd" clip-rule="evenodd" fill="#e3a13b" class="fill" d="M80.387,165.444c-2.246,1.007-4.886,0.655-6.335-0.906
	c0.328-0.547,0.679-1.135,0.97-1.62C77.233,162.257,79.683,163.44,80.387,165.444z"/>
<path fill-rule="evenodd" clip-rule="evenodd" fill="#e3a13b" class="fill" d="M143.887,40.92c2.61,0.461,3.89,2.05,3.76,4.858
	c-1.194-0.464-2.437-0.697-3.406-1.516C143.372,43.529,143.273,42.098,143.887,40.92z"/>
<path fill-rule="evenodd" clip-rule="evenodd" fill="#e3a13b" class="fill" d="M120.036,62.261c0.265-0.303,0.504-0.578,0.781-0.895
	c1.675,1.927,2.274,3.986,1.581,6.632C120.596,66.299,119.967,64.411,120.036,62.261z"/>
<path fill-rule="evenodd" clip-rule="evenodd" fill="#e3a13b" class="fill" d="M31.753,156.83c0.399,0.644,0.718,1.159,1.027,1.657
	c-1.453,1.247-4.82,1.356-6.224,0.206C28.061,157.522,29.983,157.706,31.753,156.83z"/>
<path fill-rule="evenodd" clip-rule="evenodd" fill="#e3a13b" class="fill" d="M17.353,158.292c1.952-0.732,3.78-0.541,6.372,0.621
	C22.155,160.587,18.713,160.289,17.353,158.292z"/>
<path fill-rule="evenodd" clip-rule="evenodd" fill="#e3a13b" class="fill" d="M93.345,38.112c-0.37,1.683-1.477,3.036-3.169,3.979
	c-0.732-0.929-0.736-1.118-0.07-3.421C91.1,38.122,92.197,38.131,93.345,38.112z"/>
<path fill-rule="evenodd" clip-rule="evenodd" fill="#e3a13b" class="fill" d="M64.479,165.219c1.251-1.784,3.643-2.116,5.267,0.159
	C68.425,166.544,66.287,166.48,64.479,165.219z"/>
<path fill-rule="evenodd" clip-rule="evenodd" fill="#e3a13b" class="fill" d="M115.146,166.165c0.531,0.523,0.96,0.948,1.394,1.378
	c-1.524,1.396-3.272,1.42-5.72-0.302C112.309,166.871,113.661,166.534,115.146,166.165z"/>
<path fill-rule="evenodd" clip-rule="evenodd" fill="#e3a13b" class="fill" d="M147.165,56.422c-0.251-1.784,0.793-4.067,2.258-4.936
	C150.52,53.164,149.186,56.08,147.165,56.422z"/>
<path fill-rule="evenodd" clip-rule="evenodd" fill="#e3a13b" class="fill" d="M146.184,64.249c2.211,1.505,2.152,4.01,0.13,5.401
	C145.482,67.883,145.573,66.162,146.184,64.249z"/>
<path fill-rule="evenodd" clip-rule="evenodd" fill="#e3a13b" class="fill" d="M109.484,167.445c-2.095,0.624-3.897,0.315-5.771-0.398
	C105.199,165.746,108.157,165.903,109.484,167.445z"/>
<path fill-rule="evenodd" clip-rule="evenodd" fill="#e3a13b" class="fill" d="M84.715,50.227c0.429-0.337,0.904-0.71,1.378-1.084
	c0.095,0.043,0.189,0.086,0.285,0.129c-0.027,1.508,0.174,3.036-0.513,4.506C84.531,53.297,84.379,52.845,84.715,50.227z"/>
<path fill-rule="evenodd" clip-rule="evenodd" fill="#e3a13b" class="fill" d="M10.527,155.786c1.937-0.183,3.285,0.668,4.534,1.835
	C13.565,158.733,11.345,157.895,10.527,155.786z"/>
<path fill-rule="evenodd" clip-rule="evenodd" fill="#e3a13b" class="fill" d="M124.021,74.041c1.583,1.249,2.831,2.698,2.991,4.818
	C125.768,77.408,124.449,76.006,124.021,74.041z"/>
<path fill-rule="evenodd" clip-rule="evenodd" fill="#e3a13b" class="fill" d="M117.425,51.604c-0.941-1.233-1.576-4.374-1.106-5.476
	C117.183,46.995,117.786,49.976,117.425,51.604z"/>
<path fill-rule="evenodd" clip-rule="evenodd" fill="#e3a13b" class="fill" d="M122.747,167.121c-1.493,0.759-2.821-0.059-4.206-0.364
	C120,166.178,121.427,165.964,122.747,167.121z"/>
<path fill-rule="evenodd" clip-rule="evenodd" fill="#e3a13b" class="fill" d="M86.561,156.112c-1.563,0.517-2.726,0.272-3.283-0.56
	c0.087-0.726,0.708-0.701,1.324-0.897C85.17,155.077,85.788,155.538,86.561,156.112z"/>
<path fill-rule="evenodd" clip-rule="evenodd" fill="#e3a13b" class="fill" d="M129.138,98.633c-0.044,0.84,0.433,1.421,1.003,1.935
	c0.987,0.89,2.16,1.409,3.465,1.638c0.357,0.063,0.713,0.132,1.058,0.246c-2.21,0.352-3.938-0.563-5.514-2.139
	c-0.069-0.492-0.812-1.049,0.021-1.653L129.138,98.633z"/>
<path fill-rule="evenodd" clip-rule="evenodd" fill="#e3a13b" class="fill" d="M82.632,162.58c0.968,0.305,1.916,0.131,2.583,0.997
	c-0.749,0.617-1.467,0.979-2.5,0.483C82.692,163.621,82.666,163.154,82.632,162.58z"/>
<path fill-rule="evenodd" clip-rule="evenodd" fill="#e3a13b" class="fill" d="M131.208,98.29c0.56-0.084,1.077-0.164,1.625-0.247
	c-0.193,0.822-0.361,1.543-0.529,2.256C131.27,99.865,131.146,99.67,131.208,98.29z"/>
<path fill-rule="evenodd" clip-rule="evenodd" fill="#e3a13b" class="fill" d="M136.138,98.927c0.359,0.555,0.617,0.954,0.844,1.308
	c-0.559,0.995-0.66,1.042-1.843,0.885C135.441,100.455,135.74,99.801,136.138,98.927z"/>
<path fill-rule="evenodd" clip-rule="evenodd" fill="#e3a13b" class="fill" d="M82.036,155.934c-0.036,0.586-0.058,0.943-0.082,1.346
	c-0.308,0.076-0.569,0.141-0.875,0.217c-0.164-0.383-0.304-0.713-0.519-1.215C81.049,156.166,81.458,156.07,82.036,155.934z"/>
<path fill-rule="evenodd" clip-rule="evenodd" fill="#e3a13b" class="fill" d="M134.837,99.055c-0.184,0.521-0.259,0.735-0.398,1.128
	c-0.368-0.211-0.655-0.374-0.942-0.538c0.02-0.119,0.041-0.237,0.061-0.356C133.896,99.228,134.234,99.166,134.837,99.055z"/>
</svg>
