<svg version="1.1" id="svg" xmlns="http://www.w3.org/2000/svg" xmlns:xlink="http://www.w3.org/1999/xlink" x="0px" y="0px"
	 width="200px" height="200px" viewBox="0 0 200 200" enable-background="new 0 0 200 200" xml:space="preserve">
<path class="stroke" fill="#3b4954"  d="M185.537,39.295c-0.317-0.304-0.616-0.587-0.901-0.859c-0.028-0.336-0.059-0.658-0.086-0.985
	c-1.389-0.564-2.207,0.862-3.416,0.822c-0.111-0.383-0.225-0.778-0.354-1.211c-0.488-0.076-0.942-0.147-1.375-0.214
	c-0.168-0.403-0.327-0.787-0.56-1.348c-0.632,0.217-1.2,0.411-1.78,0.611c-0.314-0.173-0.643-0.354-1.045-0.574
	c-0.502,0.413-0.988,0.811-1.479,1.212c-0.35-0.233-0.682-0.456-1.115-0.745c-0.582,0.741-1.123,1.426-1.647,2.092
	c-0.425-0.21-0.755-0.374-1.249-0.619c-0.182,0.298-0.362,0.587-0.496,0.804c-1.73-0.568-1.705,1.216-2.642,1.72
	c-0.192-0.366-0.364-0.686-0.528-1c-1.493-0.125-1.305,1.549-2.228,1.971c-0.194-0.302-0.373-0.581-0.563-0.876
	c-0.293,0.036-0.538,0.067-0.834,0.104c-0.441,1.029-0.879,2.047-1.367,3.178c-0.463-0.441-0.762-0.726-1.065-1.014
	c-1.585,0.351-0.825,1.76-1.216,2.638c-0.742-0.068-1.406-0.944-2.26,0.001c-0.033,0.812-0.074,1.758-0.113,2.714
	c-1.441-0.216-2.008-0.229-2.479,0c0.262,1,0.529,2.029,0.732,2.802c-0.75,0.665-1.51,1.049-1.818,1.661
	c-1,1.983-2.56,3.479-4.037,5.057c-0.34,0.361-0.693,0.708-1.126,1.147c-3.185,0.328-6.4,0.64-9.608,0.994
	c-3.168,0.35-6.365,0.455-9.473,1.291c-2.873,0.773-5.826,1.272-8.666,2.148c-2.098,0.646-4.217,1.471-6.055,2.641
	c-2.02,1.284-4.14,2.354-6.202,3.539c-0.502,0.287-1.116,0.46-1.695,0.515c-1.438,0.133-2.89,0.171-4.333,0.244
	c-2.593,0.13-5.209,0.068-7.764,0.445c-2.036,0.298-4.034,1.024-5.98,1.746c-3.894,1.445-7.755,1.213-11.66,0.129
	c-1.969-0.546-3.942-1.085-5.94-1.49c-4.003-0.81-8.019-1.535-12.036-2.275c-1.964-0.362-3.928-0.83-5.91-0.973
	c-1.859-0.131-3.744,0.094-5.617,0.183c-0.289,0.014-0.6,0.092-0.854,0.229c-1.686,0.901-3.479,1.662-5.006,2.78
	c-2.717,1.982-5.238,4.229-7.898,6.288c-1.746,1.351-3.17,2.943-4.268,4.85c-0.357,0.627-0.742,1.248-1.177,1.824
	c-0.913,1.208-1.534,2.538-1.893,4.006c-0.097,0.396-0.29,0.797-0.533,1.127c-2.694,3.683-3.962,7.878-4.395,12.354
	c-0.183,1.86-0.108,3.746-0.323,5.599c-0.461,3.973-0.876,7.963-1.606,11.889c-0.569,3.041-1.594,5.998-2.413,8.99
	c-0.324,1.183-0.65,2.364-0.982,3.565c0.848,0.879,1.797,1.425,2.784,1.924c3.145,1.587,6.583,1.592,9.971,1.854
	c0.284,0.022,0.573-0.037,1.042-0.072c-0.045-0.505-0.025-0.953-0.136-1.367c-0.733-2.761-1.323-5.52-1.186-8.424
	c0.091-1.903-0.157-3.822-0.251-5.733c-0.123-2.506-0.887-4.916-0.967-7.447c-0.097-2.984-0.109-5.959,0.045-8.938
	c0.028-0.525,0.195-1.044,0.299-1.564c1.066,2.601,1.74,5.233,2.025,7.944c0.362,3.46,1.254,6.773,2.502,10.007
	c0.308,0.794,0.584,1.6,0.854,2.405c0.451,1.319,0.588,2.647,0.17,4.014c-0.422,1.383-0.764,2.79-1.204,4.168
	c-0.791,2.486-1.102,4.993-0.409,7.546c0.805,2.989,0.541,6.001,0.297,9.02c-0.064,0.761-0.064,1.528-0.091,2.292
	c-0.042,1.144-0.085,2.289-0.121,3.434c-0.022,0.833-0.028,1.667-0.039,2.372c1.097,0.915,2.542,0.618,3.398,1.737
	c-0.067,0.413-0.038,0.925-0.241,1.313c-0.521,0.989-0.4,1.969-0.17,2.98c0.121,0.54,0.191,1.09,0.324,1.627
	c0.395,1.598,0.81,3.19,1.251,4.937c0.101,0.072,0.332,0.242,0.337,0.244c1.529-0.076,2.797-0.184,4.066-0.192
	c2.342-0.014,4.685,0.073,7.024,0.03c1.079-0.019,2.155-0.24,3.312-0.38c-0.034-2.328-1.045-4.277-1.32-6.531
	c0.931-0.186,1.827-0.395,2.734-0.539c0.782-0.125,1.332-0.48,1.639-1.338c-0.562-0.829-1.201-1.635-1.682-2.526
	c-0.496-0.914-0.834-1.912-1.424-3.304c-0.762-0.55-1.42-1.724-1.574-3.14c-0.473-4.243-1.468-8.378-2.455-12.519
	c-0.068-0.281-0.072-0.576-0.091-0.734c4.878-5.438,10.166-10.333,14.165-16.292c1.01,0.328,1.865,0.583,2.699,0.885
	c1.92,0.695,3.812,1.453,5.74,2.116c5.437,1.871,11.098,2.559,16.775,3.137c3.641,0.37,7.223-0.318,10.81-0.722
	c2.013-0.227,3.989-0.813,5.981-1.257c1.564-0.349,3.124-0.727,4.861-1.131c0.203,1.213,0.462,2.327,0.557,3.454
	c0.192,2.248,0.315,4.503,0.414,6.759c0.039,0.845,0.082,1.743-0.153,2.536c-0.518,1.744-0.483,3.432,0.013,5.155
	c0.176,0.61,0.282,1.247,0.361,1.878c0.246,1.914,0.208,3.798-0.304,5.694c-0.326,1.213-0.353,2.506-0.525,3.844
	c0.883,0.697,1.651,1.36,2.481,1.94c1.061,0.744,1.632,1.67,1.541,3.014c-0.123,1.825-0.164,3.656-0.241,5.484
	c-0.056,0.001-0.11,0.001-0.164,0.002c0.208,0.408,0.412,0.816,0.661,1.309c2.422,0.501,4.883-0.092,7.336,0.003
	c2.482,0.097,4.974,0.021,7.379-0.16c0.547-2.503-0.684-4.529-1.26-6.757c1.273-0.49,2.448-0.943,3.734-1.437
	c-0.038-0.434,0.004-0.909-0.124-1.339c-1.022-3.533-2.831-6.733-4.31-10.075c-0.083-0.192-0.201-0.384-0.344-0.534
	c-1.016-1.047-1.134-2.313-0.971-3.678c0.564-4.694,1.072-9.395,1.66-14.086c0.342-2.74,0.793-5.467,1.102-7.573
	c1.471-1.867,2.658-3.163,3.596-4.617c1.107-1.712,2.079-3.524,2.967-5.361c0.736-1.528,1.293-3.146,1.879-4.742
	c0.336-0.917,0.605-1.861,0.852-2.807c0.338-1.292,1.169-2.125,2.309-2.742c2.657-1.438,5.299-2.904,7.953-4.351
	c0.178-0.096,0.392-0.124,0.568-0.177c1.059,0.821,2.059,1.609,3.072,2.383c1.039,0.792,1.746,1.78,2.264,3.007
	c0.895,2.112,1.936,4.164,2.995,6.201c1.087,2.097,2.993,2.621,5.183,2.499c0.369-0.021,0.74-0.038,1.062-0.054
	c0.984,1.838,1.896,2.341,3.886,2.111c1.058-0.122,2.113-0.297,3.147-0.543c0.563-0.136,1.108-0.426,1.616-0.722
	c2.771-1.617,4.514-4.067,5.662-7.008c0.843-2.165,1.12-4.363,0.479-6.626c-0.474-1.676-0.929-3.362-1.497-5.007
	c-1.095-3.174-1.804-6.387-1.427-9.773c0.055-0.503,0.021-1.026-0.049-1.529c-0.359-2.656-0.65-5.326-1.145-7.958
	c-0.586-3.138-1.251-6.28-3.395-8.837c-0.043-0.052-0.021-0.161-0.031-0.282c1.476-2.171,3.17-4.186,5.228-5.873
	c1.316-1.08,2.651-2.139,3.982-3.198c3.043-2.416,5.007-5.658,6.845-8.985c0.483-0.873,0.768-1.815,0.149-2.703
	C185.153,40.128,185.329,39.748,185.537,39.295z"/>
<path fill-rule="evenodd" clip-rule="evenodd" fill="#e5f3a5" class="fill" d="M165.528,42.781c-0.191,1.495-0.716,2.85-1.408,4.202
	c-1.003,1.963-1.825,4.027-2.622,6.087c-0.757,1.944-1.366,3.944-2.073,5.907c-0.412,1.146-1.063,2.113-2.223,2.667
	c-0.213,0.102-0.331,0.404-0.535,0.666c0.756,0.458,1.357,0.345,1.867-0.104c0.538-0.476,1.102-0.974,1.477-1.574
	c1.082-1.729,2.076-3.514,3.109-5.275c0.102-0.173,0.238-0.327,0.524-0.718c0.894,1.237,1.719,2.375,2.666,3.69
	c-0.556,0.777-1.563,1.888-1.856,3.38c2.489,0.71,2.489,0.71,3.16,1.945c-0.295,0.085-0.637,0.183-0.975,0.279
	c0.068,0.16,0.141,0.319,0.212,0.479c0.614,0.206,1.228,0.411,2.09,0.702c-0.692,0.266-1.122,0.43-1.552,0.596
	c0.34,1.316,1.934,0.067,2.254,1.363c-0.483,0.218-0.953,0.43-1.447,0.651c0.371,1.085,1.223,0.353,1.867,0.641
	c0.064,0.197,0.146,0.46,0.225,0.7c-0.446,0.439-1.32,0.122-1.434,1.123c0.627,0.076,1.242,0.15,1.859,0.224
	c0.023,0.093,0.049,0.187,0.076,0.281c-0.533,0.305-1.064,0.608-1.635,0.935c0.512,0.802,1.141,0.352,1.768,0.393
	c0.062,0.187,0.133,0.401,0.214,0.656c-0.636,0.188-1.192,0.354-1.786,0.53c0.451,0.977,1.251,0.412,1.862,0.748
	c0.021,0.178,0.046,0.407,0.07,0.611c-0.577,0.387-1.493-0.129-1.815,0.981c0.586,0.103,1.134,0.197,1.748,0.305
	c0.008,0.185,0.018,0.381,0.025,0.589c-0.566,0.212-1.082,0.405-1.595,0.598c0.01,0.115,0.022,0.23,0.033,0.347
	c0.488,0.101,0.977,0.202,1.554,0.321c-0.41,0.661-1.523-0.025-1.64,0.961c0.392,0.73,1.214,0.009,1.757,0.511
	c-0.443,0.759-1.473,0.351-1.958,1.025c0.382,1.063,1.249,0.155,1.891,0.442c0.019,0.165,0.042,0.364,0.073,0.637
	c-0.348,0.091-0.666,0.163-0.979,0.261c-0.268,0.085-0.527,0.2-0.828,0.316c0.337,0.986,1.067,0.518,1.729,0.592
	c0.072,0.266,0.148,0.567,0.227,0.856c-0.467,0.488-1.321,0.006-1.623,0.955c0.537,0.106,1.035,0.205,1.598,0.318
	c0.062,0.182,0.141,0.414,0.227,0.658c-0.493,0.273-0.936,0.521-1.377,0.768c0.02,0.117,0.043,0.234,0.062,0.351
	c0.464,0.046,0.924,0.092,1.481,0.148c0.072,0.195,0.172,0.453,0.275,0.731c-0.396,0.247-0.734,0.459-1.064,0.665
	c0.254,0.783,0.904,0.351,1.365,0.548c0.082,0.28,0.166,0.56,0.268,0.898c-0.307,0.265-0.613,0.53-1.131,0.979
	c0.615,0.16,1.017,0.267,1.504,0.392c0.072,0.213,0.168,0.488,0.25,0.743c-0.174,0.271-0.328,0.507-0.531,0.821
	c0.375,0.217,0.691,0.399,0.996,0.573c1.416,3.533,1.162,6.633-0.734,8.75c-0.402-1.291-0.771-2.579-1.217-3.839
	c-0.117-0.337-0.463-0.595-0.686-0.867c-1.182-0.331-2.085,0.056-2.767,0.925c-0.745,0.951-1.062,2.038-0.636,3.235
	c0.26,0.728,0.967,0.901,1.578,1.192c0.555,0.265,1.1,0.547,1.847,0.919c-1.599,1.46-3.254,2.02-5.12,2.13
	c-1.219,0.073-1.821-0.134-3.171-1.329c0.015-1.946-0.803-3.771-1.55-5.629c-0.214-0.531-0.131-1.271,0.043-1.848
	c0.253-0.841,0.709-1.62,1.102-2.483c-0.616-0.527-1.107-0.166-1.479,0.3c-0.905,1.141-1.666,2.355-1.859,3.86
	c-0.239,1.849,0.056,3.652,0.371,5.457c0.078,0.459,0.158,0.92,0.236,1.366c-0.555,0.688-1.248,0.452-2.001,0.431
	c-0.187-0.351-0.377-0.714-0.587-1.106c0.25-0.288,0.461-0.531,0.791-0.91c-0.525-0.173-0.945-0.31-1.41-0.463
	c-0.149-0.405-0.311-0.841-0.492-1.333c0.449-0.338,0.865-0.654,1.283-0.971c-0.011-0.087-0.021-0.174-0.031-0.261
	c-0.475-0.056-0.947-0.112-1.58-0.186c-0.071-0.377-0.158-0.811-0.259-1.335c0.718-0.373,1.376-0.713,2.034-1.054
	c-0.003-0.091-0.005-0.182-0.012-0.271c-0.498-0.084-0.997-0.169-1.589-0.269c0.01-0.248,0.024-0.555,0.04-0.901
	c0.851-0.481,1.686-0.953,2.586-1.46c-0.673-0.903-1.445,0.13-2.081-0.344c1.017-1.353,2.776-1.953,3.687-3.454
	c-1.548-0.301-2.328,1.167-3.678,1.462c0.016-0.404,0.031-0.763,0.036-0.89c0.968-1.24,2.302-1.836,3.131-3.189
	c-1.468-0.217-2.186,0.798-3.226,1.325c-0.104-0.691-0.192-1.267-0.286-1.89c0.762-0.771,1.517-1.535,2.343-2.368
	c-1.205-0.837-1.672,0.586-2.631,0.49c-0.117-0.478-0.245-0.997-0.375-1.528c0.572-0.562,1.106-1.088,1.67-1.639
	c-0.863-0.411-0.863-0.411-2.148,0.18c-0.254-0.608-0.504-1.214-0.762-1.836c0.172-0.274,0.348-0.516,0.484-0.777
	c0.128-0.247,0.217-0.517,0.316-0.756c-0.65-0.581-1.073-0.022-1.695,0.22c-0.726-1.517-2.342-1.872-3.668-2.495
	c-0.031-0.677-0.055-1.174-0.079-1.705c-0.919-0.124-0.995,0.75-1.52,1.122c-0.212-0.082-0.438-0.169-0.675-0.259
	c-0.201-1.356,1.057-2.469,0.67-3.978c-1.646,0.888-1.488,2.652-2.371,3.963c-0.455-0.94-0.063-1.732-0.012-2.521
	c0.055-0.842,0.072-1.685,0.11-2.539c-0.677-0.288-0.905,0.127-0.999,0.614c-0.215,1.128-0.364,2.269-0.57,3.399
	c-0.095,0.508-0.259,1.002-0.574,1.488c-0.5-0.958-0.316-1.952-0.277-2.92c0.043-1.008,0.17-2.012,0.275-3.181
	c-0.404,0.081-0.693,0.142-0.975,0.198c-0.85,3.087-0.366,6.196-0.878,9.533c-0.518-1.098-0.622-1.995-0.622-2.89
	c0.006-2.127,0.063-4.254,0.092-6.38c0.008-0.401-0.033-0.802-0.049-1.19c-0.829-0.089-0.945,0.346-0.954,0.848
	c-0.044,2.34-0.161,4.684-0.092,7.021c0.05,1.653,0.351,3.299,0.548,5.019c-0.146,0.119-0.333,0.272-0.537,0.438
	c-0.129-0.125-0.27-0.197-0.292-0.296c-0.241-1.078-0.565-2.15-0.669-3.242c-0.24-2.546-0.404-5.099-0.021-7.653
	c0.078-0.52-0.033-1.067-0.061-1.644c-0.874-0.047-0.96,0.458-0.979,0.978c-0.07,1.829-0.25,3.665-0.15,5.483
	c0.145,2.506,0.503,4.997,0.785,7.648c-0.135,0.111-0.37,0.309-0.593,0.495c-0.146-0.12-0.253-0.165-0.263-0.224
	c-0.338-2.481-0.729-4.958-0.973-7.448c-0.159-1.642-0.125-3.305-0.135-4.958c-0.003-0.531-0.154-0.891-0.615-1.102
	c-0.805,0.24-0.645,0.884-0.607,1.39c0.223,3.058,0.477,6.111,0.744,9.164c0.07,0.805,0.168,1.616,0.348,2.402
	c0.141,0.616,0.433,1.197,0.725,1.979c-0.308,0.421-0.751,1.031-1.291,1.771c-0.708-1.332-0.912-2.63-1.031-3.901
	c-0.281-3.007-0.441-6.025-0.633-9.04c-0.041-0.637-0.034-1.278-0.011-1.917c0.021-0.501-0.18-0.799-0.635-0.934
	c-0.698,0.228-0.61,0.787-0.587,1.279c0.092,1.787,0.166,3.577,0.322,5.358c0.203,2.332,0.432,4.664,0.745,6.981
	c0.154,1.123,0.53,2.213,0.878,3.598c-0.237,0.329-0.645,0.896-1.232,1.717c-0.256-0.856-0.429-1.436-0.601-2.017
	c-0.345-1.177-0.646-2.344-0.718-3.599c-0.16-2.925-0.484-5.841-0.732-8.763c-0.038-0.506,0.029-1.025-0.021-1.529
	c-0.042-0.432-0.185-0.855-0.282-1.272c-0.896,0.084-0.897,0.635-0.877,1.137c0.078,1.787,0.09,3.583,0.297,5.355
	c0.379,3.212,0.86,6.412,1.341,9.611c0.111,0.743,0.394,1.462,0.65,2.379c-0.168,0.213-0.47,0.597-0.897,1.141
	c-0.598-1.651-1.02-3.089-1.23-4.598c-0.213-1.517-0.492-3.023-0.746-4.534c-0.253-1.511-0.475-3.03-0.783-4.528
	c-0.303-1.47,0.142-3.025-0.4-4.494c-0.801,0.082-1,0.495-0.957,1.068c0.125,1.652,0.181,3.316,0.418,4.952
	c0.397,2.736,0.875,5.464,1.4,8.178c0.322,1.656,0.803,3.28,1.211,4.918c0.126,0.052,0.252,0.104,0.379,0.156
	c-0.426,0.377-0.854,0.755-1.451,1.285c-2.256-6.673-2.938-13.286-3.398-20.022c-0.338,0.023-0.605,0.041-0.966,0.063
	c-0.312,2.242,0.052,4.376,0.353,6.514c0.311,2.192,0.549,4.397,0.95,6.571c0.392,2.115,0.95,4.198,1.505,6.587
	c-0.729-0.57-1.221-0.952-1.654-1.291c-1.482-4.485-2.35-9.049-3.491-13.539c-0.107,0.013-0.217,0.024-0.327,0.037
	c-0.074,0.22-0.221,0.443-0.207,0.658c0.062,1.017,0.08,2.05,0.283,3.042c0.439,2.17,0.979,4.319,1.479,6.477
	c0.113,0.485,0.219,0.972,0.359,1.592c-0.742-0.275-1.316-0.488-1.824-0.676c-0.76,0.417-0.664,0.917-0.371,1.463
	c0.646,1.2,1.287,2.404,1.934,3.605c1.705,3.173,2.71,6.524,2.398,10.162c-0.117,1.358-0.603,2.568-1.439,3.739
	c-1.845,2.582-4.244,4.528-6.705,6.433c-1.076,0.833-2.172,1.64-3.244,2.478c-2.114,1.653-2.873,3.813-2.402,6.421
	c1.754,1.723,3.859,1.581,6.156,1.161c-0.301,0.652-0.781,0.908-1.193,1.214c-0.715,0.533-1.422,1.083-2.176,1.561
	c-1.125,0.718-1.564,1.743-1.529,3.247c0.504,0.313,1.098,0.68,1.788,1.111c-0.042,0.403-0.054,0.913-0.152,1.408
	c-0.522,2.646-0.151,5.253,0.317,7.859c0.338,1.889,0.592,3.789,0.396,5.716c-0.034,0.343-0.115,0.681-0.173,1.023
	c-0.102-0.008-0.201-0.016-0.304-0.023c-0.06-0.877-0.119-1.754-0.197-2.89c-1.145,1.218-0.593,2.674-1.303,3.902
	c-0.868-1.58,0.234-3.031-0.174-4.65c-0.846,1.423-0.908,2.878-1.453,4.204c-0.42-1.301,0.164-2.634-0.027-4.12
	c-1.097,1.141-0.82,2.596-1.52,3.736c0.037-0.835,0.068-1.671,0.104-2.49c-0.342-0.207-0.584-0.351-0.812-0.49
	c0.008-0.181-0.023-0.322,0.022-0.43c0.512-1.174,0.565-2.407,0.357-3.638c-0.205-1.215-0.342-2.486-0.818-3.598
	c-0.732-1.707-0.512-3.265,0.305-4.783c0.811-1.508,0.891-3.084,0.738-4.717c-0.021-0.253-0.074-0.506-0.129-0.755
	c-0.754-3.359-1.146-6.766-1.465-10.189c-0.118-1.261-0.506-2.5-0.812-3.739c-0.266-1.067-0.285-2.093,0.195-2.991
	c0.549-0.519,1.064-0.453,1.637-0.337c1.414,0.288,2.836,0.593,4.269,0.747c1.845,0.196,3.688,0.004,5.347-0.882
	c2.509-1.34,4.446-3.201,4.604-6.254c0.105-2.038,0.06-4.087-0.006-6.129c-0.014-0.552-0.331-1.093-0.605-1.938
	c-0.443,0.466-0.747,0.675-0.881,0.963c-0.138,0.292-0.099,0.664-0.146,1c-0.318,2.266-0.636,4.532-0.969,6.796
	c-0.026,0.183-0.159,0.349-0.36,0.773c-0.334-2.931,0.52-5.688-0.689-8.247c-0.125,0.025-0.165,0.026-0.203,0.041
	c-0.037,0.014-0.086,0.036-0.094,0.066c-0.037,0.12-0.082,0.244-0.09,0.368c-0.127,2.934-0.245,5.871-0.377,8.998
	c-0.13,0.059-0.456,0.206-0.746,0.338c-0.135-0.125-0.238-0.178-0.238-0.231c0.008-1.825,0.02-3.65,0.048-5.476
	c0.011-0.594,0.132-1.194,0.087-1.781c-0.031-0.417-0.252-0.817-0.508-1.196c-1.052,2.972-0.93,6.02-0.898,9.175
	c-0.51-0.021-0.895-0.037-1.314-0.055c-0.372-2.838,0.526-5.631-0.02-8.4c-0.664-0.036-0.682,0.402-0.715,0.765
	c-0.156,1.695-0.299,3.394-0.427,5.093c-0.06,0.794-0.071,1.593-0.109,2.516c-0.554-0.122-0.907-0.199-1.31-0.287
	c-0.172-3.035,0.752-5.99,0.033-8.954c-0.698,1.264-0.714,2.648-0.859,4.005c-0.15,1.393-0.305,2.786-0.482,4.395
	c-0.566-0.253-1.037-0.463-1.545-0.689c-0.041-3.086,0.656-6.078,0.58-9.262c-0.771,0.731-0.925,1.229-1.291,4.019
	c-0.18,1.345-0.336,2.693-0.514,4.145c-0.354-0.185-0.637-0.333-0.953-0.5c0.098-2.653,0.742-5.252,0.23-8.005
	c-0.674,0.333-0.635,0.818-0.683,1.252c-0.171,1.524-0.331,3.051-0.509,4.574c-0.059,0.496-0.16,0.987-0.261,1.586
	c-0.507-0.148-0.892-0.261-1.327-0.388c-0.086-2.731,0.992-5.328,0.539-8.042c-0.617-0.02-0.607,0.439-0.668,0.778
	c-0.324,1.845-0.627,3.692-0.931,5.541c-0.075,0.453-0.128,0.908-0.21,1.484c-0.32-0.119-0.527-0.199-0.604-0.228
	c0.07-1.677,0.176-3.248,0.189-4.819c0.01-1.493,0.74-2.958,0.159-4.481c-1.698,2.81-1.134,6.075-1.817,9.082
	c-0.708,0.033-0.684-0.451-0.662-0.864c0.078-1.529,0.168-3.06,0.283-4.587c0.107-1.442,0.256-2.881,0.373-4.323
	c0.011-0.153-0.067-0.313-0.137-0.633c-0.253,0.23-0.51,0.351-0.556,0.526c-0.263,0.985-0.577,1.974-0.684,2.98
	c-0.238,2.24-0.36,4.493-0.535,6.841c-0.302,0.065-0.648,0.138-1.173,0.248c-0.223-1.923,0.058-3.732,0.141-5.542
	c0.078-1.736,0.972-3.429,0.248-5.217c-1.533,3.534-1.682,7.27-1.577,11.146c-0.388,0.151-0.757,0.295-1.337,0.521
	c-0.029-2.063-0.078-3.926-0.065-5.788c0.007-1.318,0.104-2.635,0.163-3.952c0.022-0.592,0.062-1.191-0.531-1.63
	c-0.593,0.525-0.6,1.23-0.613,1.887c-0.061,2.64-0.066,5.28-0.1,7.921c-0.01,0.594-0.05,1.187-0.078,1.915
	c-0.518,0.163-1.056,0.331-1.742,0.543c-0.332-3.968,0.48-7.785,0.198-11.583c-0.146-0.019-0.294-0.038-0.44-0.057
	c-0.135,0.415-0.33,0.818-0.396,1.243c-0.514,3.252-0.646,6.527-0.558,9.814c0.011,0.337-0.023,0.675-0.044,1.126
	c-0.399,0.127-0.826,0.262-1.447,0.458c-0.018-0.812-0.088-1.471-0.039-2.123c0.148-1.997,0.365-3.989,0.504-5.985
	c0.082-1.188,0.078-2.383,0.089-3.574c0.003-0.182-0.125-0.365-0.233-0.656c-0.732,0.812-0.811,1.712-0.877,2.584
	c-0.246,3.186-0.451,6.374-0.678,9.562c-0.014,0.206-0.061,0.412-0.104,0.722c-0.407,0.064-0.805,0.128-1.274,0.203
	c-0.293-1.452-0.104-2.795-0.037-4.141c0.11-2.164,0.174-4.329,0.243-6.493c0.007-0.229-0.091-0.461-0.192-0.944
	c-0.295,0.399-0.541,0.589-0.591,0.822c-0.146,0.663-0.267,1.34-0.303,2.015c-0.149,2.767-0.264,5.536-0.396,8.303
	c-0.014,0.292-0.064,0.584-0.106,0.982c-0.608,0.143-1.208,0.283-1.961,0.459c0.008-4.083,0.83-7.967,0.702-12.066
	c-0.914,0.529-0.945,1.337-1.044,2.034c-0.204,1.434-0.321,2.879-0.442,4.323c-0.146,1.784-0.253,3.572-0.385,5.356
	c-0.018,0.25-0.071,0.496-0.126,0.872c-0.611,0.084-1.22,0.169-1.968,0.273c0.024-0.539,0.017-0.91,0.059-1.277
	c0.331-2.922,0.682-5.84,0.998-8.762c0.052-0.477-0.051-0.97-0.087-1.516c-0.827,0.135-0.884,0.652-0.945,1.151
	c-0.248,1.987-0.483,3.974-0.728,5.961c-0.187,1.517-0.381,3.032-0.589,4.687c-0.491,0.027-0.97,0.054-1.608,0.088
	c0.248-4.405,1.016-8.623,1.204-12.975c-0.147,0.203-0.34,0.386-0.434,0.61c-0.864,2.073-1.015,4.299-1.335,6.485
	c-0.273,1.892-0.492,3.793-0.752,5.818c-0.42,0.046-0.807,0.088-1.342,0.146c0.154-3.738,0.305-7.331,0.453-10.922
	c-0.098-0.013-0.197-0.024-0.295-0.039c-0.415,0.802-0.156,1.738-0.318,2.588c-0.17,0.878-0.234,1.774-0.357,2.661
	c-0.125,0.927-0.262,1.853-0.395,2.78c-0.123,0.881-0.246,1.761-0.381,2.717c-0.646-0.027-1.252-0.052-2.033-0.084
	c0.379-3.397,0.743-6.666,1.107-9.936c-0.121-0.024-0.242-0.048-0.359-0.073c-0.496,0.943-0.499,2.038-0.716,3.062
	c-0.232,1.083-0.44,2.172-0.621,3.264c-0.181,1.085-0.313,2.178-0.481,3.353c-0.383-0.049-0.696-0.09-1.139-0.146
	c0.266-4.058,0.923-8.013,1.291-12.017c-0.654,0.587-0.578,1.426-0.809,2.142c-0.232,0.726-0.359,1.488-0.523,2.236
	c-0.172,0.791-0.348,1.58-0.486,2.376c-0.132,0.756-0.207,1.521-0.32,2.279c-0.117,0.792-0.248,1.585-0.399,2.532
	c-0.479-0.145-0.854-0.26-1.186-0.359c0.306-3.778,0.599-7.441,0.894-11.104c-0.092-0.027-0.187-0.054-0.28-0.081
	c-0.106,0.22-0.271,0.43-0.308,0.66c-0.465,2.901-0.906,5.807-1.358,8.711c-0.067,0.447-0.155,0.89-0.253,1.438
	c-0.451-0.135-0.755-0.225-1.204-0.359c0.741-3.436,1.264-6.85,1.413-10.324c-1.244,3.141-1.778,6.464-2.53,9.757
	c-0.75-0.166-0.79-0.575-0.683-1.087c0.201-0.957,0.342-1.931,0.588-2.876c0.762-2.901,0.895-5.886,1.217-8.845
	c0.012-0.105-0.078-0.222-0.193-0.523c-0.602,0.769-0.451,1.619-0.673,2.333c-0.251,0.807-0.312,1.672-0.485,2.505
	c-0.163,0.793-0.365,1.578-0.559,2.363c-0.205,0.827-0.432,1.649-0.631,2.477c-0.188,0.759-0.346,1.523-0.527,2.323
	c-0.772-0.338-0.582-0.865-0.51-1.282c0.197-1.131,0.481-2.249,0.695-3.378c0.396-2.083,0.768-4.171,1.142-6.257
	c0.028-0.155-0.015-0.322-0.036-0.737c-0.304,0.359-0.551,0.53-0.619,0.755c-0.382,1.26-0.742,2.529-1.07,3.805
	c-0.424,1.643-0.809,3.294-1.223,4.997c-0.912-0.352-0.854-1.073-0.73-1.719c0.396-2.046,0.826-4.084,1.295-6.112
	c0.223-0.952,0.59-1.869,0.848-2.812c0.104-0.378,0.098-0.787,0-1.224c-1.236,1.029-1.703,2.442-2.104,3.883
	c-0.409,1.468-0.783,2.947-1.188,4.477c-0.569-0.303-0.371-0.724-0.285-1.111c0.505-2.239,1.021-4.476,1.518-6.717
	c0.088-0.391,0.118-0.794,0.201-1.39c-1.146,0.609-1.262,1.599-1.611,2.407c-0.347,0.796-0.562,1.648-1.045,2.439
	c0.187-1.086,0.33-2.183,0.572-3.255c0.254-1.12,0.564-2.222,0.229-3.391c-0.442-0.248-0.717-0.106-0.857,0.352
	c-0.22,0.692-0.418,1.388-0.646,2.075c-0.123,0.377-0.288,0.739-0.534,1.074c-0.397-1.272-0.522-2.488,0.179-3.667
	c0.457-0.767,0.887-1.553,1.31-2.341c0.209-0.391,0.378-0.806,0.573-1.225c-0.625-0.327-0.826,0.087-1.082,0.321
	c-0.273,0.247-0.523,0.521-0.783,0.782c-0.076-0.04-0.152-0.081-0.225-0.121c0.298-0.914,0.512-1.87,0.925-2.732
	c0.407-0.858,0.561-1.673,0.219-2.652c-0.286-0.117-0.63-0.257-1.017-0.415c-1.094-2.691-2.287-5.366-3.996-7.83
	c-0.33,0.079-0.598,0.142-1.076,0.256c1.389,2.504,2.819,4.854,3.719,7.555c-0.322,0.091-0.589,0.164-0.865,0.243
	c-1.969-2.542-3.612-5.296-6.098-7.45c-0.279,0.203-0.494,0.357-0.84,0.607c2.195,2.271,4.031,4.695,5.713,7.308
	c-0.222,0.188-0.367,0.334-0.536,0.45c-0.171,0.12-0.362,0.212-0.651,0.376c-1.773-2.821-4.145-5.061-6.654-7.327
	c-0.258,0.122-0.535,0.253-0.994,0.474c2.323,2.45,4.84,4.526,6.561,7.461c-0.49,0.245-0.927,0.462-1.287,0.644
	c-1.104-1.231-2.08-2.455-3.199-3.529c-1.128-1.084-2.402-2.02-3.841-3.209c-0.259,0.272-0.447,0.469-0.713,0.746
	c2.36,2.082,4.739,3.824,6.458,6.42c-0.606,0.366-1.133,0.68-1.653,0.993c-1.165-1.074-2.228-2.113-3.356-3.07
	c-1.088-0.92-2.115-1.955-3.566-2.509c-0.166,0.29-0.276,0.488-0.416,0.732c2.125,1.719,4.309,3.285,6.028,5.393
	c-0.055,0.125-0.073,0.271-0.155,0.336c-0.158,0.126-0.352,0.207-0.402,0.236c-1.693-1.32-3.279-2.597-4.912-3.81
	c-0.573-0.424-1.25-0.725-1.91-1.014c-0.434-0.191-0.85-0.12-0.948,0.565c2.321,1.338,4.56,2.842,6.397,4.821
	c-0.086,0.17-0.102,0.274-0.161,0.315c-0.14,0.09-0.298,0.149-0.358,0.179c-2.418-1.475-4.771-2.908-7.163-4.365
	c-0.292,0.333-0.472,0.536-0.718,0.818c2.256,1.406,4.427,2.759,6.6,4.112c-0.025,0.093-0.049,0.186-0.073,0.277
	c-0.601,0.16-1.199,0.318-1.917,0.508c-0.567-0.432-1.17-0.896-1.778-1.349c-0.884-0.659-1.758-1.345-2.685-1.948
	c-0.342-0.223-0.816-0.242-1.203-0.346c-0.302,0.697,0.137,0.813,0.434,1.038c1.117,0.847,2.229,1.703,3.336,2.566
	c0.154,0.122,0.262,0.303,0.457,0.536c-0.449,0.158-0.797,0.278-0.951,0.332c-1.223-0.866-2.308-1.644-3.412-2.387
	c-0.059-0.039-0.306,0.207-0.588,0.407c0.763,0.688,1.46,1.314,2.246,2.021c-1.541,0.256-2.391-0.187-2.871-1.429
	c-0.695-1.802-0.696-3.667-0.365-5.538c0.291-1.657,0.93-3.188,1.839-4.596c0.319-0.493,0.694-0.989,1.149-1.346
	c2.721-2.123,5.437-4.246,8.516-5.858c1.856-0.973,3.805-1.534,5.881-1.454c2.086,0.078,4.164,0.278,6.236,0.518
	c2.492,0.291,4.998,0.562,7.455,1.057c3.459,0.694,6.889,1.554,10.315,2.401c3.578,0.886,7.188,1.459,10.87,0.935
	c1.467-0.209,2.979-0.499,4.315-1.096c2.192-0.983,4.485-1.325,6.81-1.566c2.92-0.304,5.848-0.599,8.778-0.728
	c1.505-0.065,2.97-0.171,4.388-0.67c0.627-0.223,1.26-0.526,1.791-0.922c2.641-1.963,5.319-3.833,8.514-4.819
	c2.637-0.814,5.244-1.723,7.884-2.522c1.708-0.517,3.431-1.046,5.187-1.327c2.344-0.376,4.727-0.517,7.088-0.757
	c0.323,0.526,0.562,0.915,0.855,1.387c-0.275,0.153-0.508,0.282-0.791,0.439c-0.329-0.334-0.619-0.63-0.984-0.997
	c-0.266,0.051-0.571,0.11-1.004,0.192c0.221,0.49,0.386,0.862,0.596,1.329c-0.307,0.166-0.62,0.335-1.006,0.543
	c-0.341-0.65-0.643-1.225-0.979-1.867c-0.367,0.181-0.61,0.303-0.926,0.457c0.201,0.614,0.379,1.172,0.604,1.866
	c-0.557,0.179-1.093,0.352-1.698,0.546c-0.239-0.794-0.442-1.468-0.673-2.232c-0.389,0.075-0.69,0.134-1.068,0.206
	c0.151,0.805,0.281,1.503,0.436,2.316c-0.424,0.12-0.811,0.229-1.254,0.352c-0.203-0.687-0.379-1.275-0.574-1.935
	c-0.389,0.086-0.652,0.145-0.982,0.217c0.024,0.355,0.042,0.642,0.064,0.927c0.027,0.292,0.057,0.583,0.1,1.003
	c-0.43,0.073-0.821,0.138-1.271,0.215c-0.103-0.595-0.192-1.083-0.294-1.679c-0.359,0.056-0.665,0.104-0.988,0.154
	c-0.027,0.646-0.05,1.19-0.076,1.843c-0.527,0.138-1.044,0.274-1.515,0.397c-0.616-0.386-0.22-1.653-1.491-1.383
	c-0.021,0.492-0.039,0.975-0.062,1.505c-0.291,0.11-0.562,0.213-0.891,0.338c-0.164-0.42-0.314-0.793-0.491-1.24
	c-0.317,0.086-0.583,0.159-0.861,0.234c-0.052,0.515-0.097,0.978-0.146,1.518c-0.266,0.143-0.551,0.297-0.897,0.486
	c-0.154-0.502-0.282-0.923-0.439-1.435c-0.301,0.108-0.621,0.121-0.721,0.276c-0.682,1.044-0.548,2.263-0.742,3.485
	c0.479,0.259,0.916,0.496,1.172,0.633c4.32-1.186,8.46-2.315,12.594-3.454c1.764-0.485,3.566-0.874,5.27-1.52
	c1.297-0.492,2.502-1.265,3.672-2.027c0.414-0.267,0.604-0.869,0.961-1.413c0.235-0.041,0.631-0.108,1.141-0.194
	c-0.17-0.521-0.311-0.941-0.479-1.441c0.258-0.078,0.477-0.146,0.754-0.229c0.316,0.612,0.611,1.168,0.939,1.792
	c0.298,0.012,0.606,0.025,1.042,0.044c-0.154-0.686-0.281-1.25-0.436-1.932c0.36-0.072,0.706-0.14,0.898-0.176
	c0.659,0.431,1.167,0.762,1.563,1.018c0.538-0.6,0.955-1.034,1.34-1.498c0.51-0.624,1.061-1.229,1.473-1.916
	c0.875-1.457,1.68-2.961,2.512-4.448c0.652-1.174,0.876-1.414,2-2.104c0.071-0.307,0.145-0.636,0.217-0.945
	c0.033-0.055,0.048-0.102,0.08-0.125c0.445-0.321,0.893-0.639,1.455-1.041c0.067-0.75,0.143-1.575,0.227-2.485
	c0.47,0.019,0.916,0.038,1.395,0.057c0.308-0.21,0.621-0.424,0.945-0.648c0.052-0.395,0.1-0.767,0.161-1.245
	c0.363,0.038,0.719,0.076,1.05,0.109c0.441-0.332,0.869-0.65,1.374-1.029c0.05-0.178,0.128-0.453,0.181-0.638
	c0.482-0.157,0.877-0.285,1.271-0.414L165.528,42.781z M157.383,72.247c0.058,0.483,0.013,0.976,0.181,1.383
	c0.72,1.729,1.733,3.216,3.623,3.862c0.923,0.315,1.834,0.694,2.782,0.907c1.233,0.275,2.496,0.415,3.488,0.571
	c0.878-0.394,1.059-0.971,1.003-1.503c-0.164-1.643-0.283-3.307-1.182-4.78c-0.723-1.18-1.707-1.869-3.129-1.823
	c-1.271,0.041-2.55,0.034-3.811,0.168C159.329,71.141,158.354,71.468,157.383,72.247z M57.388,74.048
	c0.949,2.804,1.855,5.472,2.787,8.228c0.255-0.049,0.51-0.097,0.867-0.164c-0.453-3.032-1.609-5.718-2.756-8.487
	C57.949,73.784,57.732,73.887,57.388,74.048z M63.454,82.372c-0.211-2.439-0.546-4.798-1.592-7.148
	c-0.357,0.174-0.628,0.307-0.803,0.392c0.436,2.133,0.835,4.129,1.252,6.122C62.413,82.222,62.587,82.673,63.454,82.372z
	 M66.188,82.714c0.234-2.099-0.557-5.721-1.455-6.695c-0.22,0.139-0.454,0.285-0.59,0.369c0.457,2.198,0.893,4.287,1.34,6.439
	C65.744,82.786,65.935,82.754,66.188,82.714z M67.007,77.239c0.414,1.922,0.793,3.684,1.193,5.535
	c0.32-0.093,0.568-0.165,0.795-0.23c0.004-2.428-0.703-5.469-1.375-5.642C67.476,76.981,67.271,77.095,67.007,77.239z
	 M157.249,68.413c0.014,0.127,0.029,0.254,0.042,0.38c1.768,0.509,3.567,0.886,5.424,0.958c0.282,0.01,0.572-0.149,0.983-0.265
	c-0.662-0.483-4.941-1.503-5.738-1.409C157.712,68.106,157.485,68.296,157.249,68.413z M71.747,82.485
	c-0.099-1.628-0.062-3.061-0.611-4.517c-0.352,0.128-0.598,0.216-0.999,0.362c0.312,1.376,0.599,2.685,0.927,3.981
	C71.085,82.396,71.408,82.405,71.747,82.485z M163.472,67.444c-0.592-0.689-0.592-0.69-3.572-1.082
	c-0.407-0.053-0.858-0.216-1.161,0.492c0.356,0.163,0.696,0.412,1.069,0.469C160.997,67.509,162.194,67.851,163.472,67.444z
	 M92.071,81.297c-0.043-1.085,0.456-2.201-0.303-3.253c-0.262,0.132-0.469,0.236-0.756,0.382
	C91.386,79.419,90.809,80.643,92.071,81.297z M95.175,81.093c0.126-1.03-0.076-2.007-0.383-2.955
	c-0.115-0.368-0.46-0.458-0.809-0.205C93.791,79.698,94.188,80.805,95.175,81.093z M73.306,79.937c0.6,0.751,0.25,1.742,1.049,2.239
	c0.803-0.643,0.778-1.51-0.111-2.792C73.986,79.536,73.724,79.691,73.306,79.937z M96.504,77.399
	c0.142,1.329,0.528,2.488,0.985,2.87c0.094,0.077,0.3,0.022,0.449,0.029C98.113,78.597,97.589,77.496,96.504,77.399z M104.19,79.655
	c-0.35-0.606-0.56-1.008-0.808-1.387c-0.276-0.422-0.588-0.821-0.874-1.213c-0.22-0.009-0.391-0.044-0.549-0.012
	c-0.107,0.021-0.193,0.138-0.282,0.206C102.451,78.901,102.939,79.423,104.19,79.655z M119.843,70.821
	c0.095-0.931,0.232-1.752-0.355-2.698c-0.273,0.188-0.687,0.326-0.713,0.512c-0.082,0.688-0.041,1.393-0.047,2.19
	C119.185,70.823,119.493,70.822,119.843,70.821z M104.417,77.028c0.494,0.928,1.115,1.706,1.88,2.37
	c0.081,0.07,0.301-0.019,0.466-0.035C106.354,77.734,105.519,76.881,104.417,77.028z M83.784,79.936
	c-0.85-0.359-1.037-0.329-1.287,0.387c-0.184,0.537-0.225,1.129-0.273,1.701c-0.007,0.085,0.297,0.195,0.576,0.37
	C83.142,81.544,83.444,80.782,83.784,79.936z M99.173,77.484c0.553,1.687,0.975,2.214,2.137,2.482
	c-0.446-0.94-0.828-1.746-1.228-2.588C99.72,77.42,99.456,77.451,99.173,77.484z M87.786,81.401c0.352,0.138,0.602,0.236,0.98,0.385
	c0.041-0.986,0.078-1.85,0.117-2.782c-0.313,0.034-0.543,0.058-0.898,0.096C87.918,79.887,87.854,80.625,87.786,81.401z
	 M81.229,80.414c-0.76-0.444-0.959-0.402-1.318,0.217c-0.501,0.864-0.42,1.557,0.293,2.016
	C80.549,81.894,80.891,81.149,81.229,80.414z M163.171,65.062c-1.657-0.874-2.586-0.885-3.209-0.083
	C160.968,65.504,161.931,65.534,163.171,65.062z M85.21,79.569c-0.19,0.717-0.348,1.307-0.517,1.961
	c0.357,0.149,0.595,0.25,0.896,0.375c0.225-0.765,0.418-1.432,0.645-2.195C85.873,79.661,85.647,79.629,85.21,79.569z
	 M160.639,63.388c1.052,0.574,1.627,0.442,2.179-0.481C162.032,62.783,161.311,62.579,160.639,63.388z M116.876,70.444
	c0.09-0.545,0.59-0.916,0.193-1.511c-0.733,0.146-1.172,0.5-1.174,1.29c0.101,0.063,0.197,0.16,0.312,0.186
	C116.366,70.445,116.538,70.43,116.876,70.444z M108.69,78.576c0.064-0.079,0.13-0.158,0.197-0.235
	c-0.306-1.067-0.988-1.476-2.074-1.038C107.507,77.772,108.099,78.175,108.69,78.576z M164.786,59.128
	c-0.16-1.247-0.561-1.688-1.564-1.731C163.575,58.136,163.952,58.788,164.786,59.128z M163.269,59.971
	c0.201-1.055,0.014-1.374-0.938-1.607C162.292,59.121,162.657,59.578,163.269,59.971z M155.602,58.061
	c-0.742-0.779-0.862-0.8-1.81-0.292c0.178,0.216,0.342,0.42,0.516,0.632C154.773,58.281,155.173,58.174,155.602,58.061z
	 M156.842,56.371c-0.515-0.718-0.911-1.118-1.714-0.773C155.324,56.543,155.966,56.418,156.842,56.371z M109.046,75.889
	c0.806,0.968,0.874,0.988,1.603,0.525C110.284,75.866,109.817,75.638,109.046,75.889z M158.37,51.55
	c0.314,0.944,0.314,0.944,1.07,0.55C159.202,51.679,158.947,51.337,158.37,51.55z M156.388,53.876
	c0.483,0.935,0.483,0.935,1.322,0.372C157.233,54.114,156.896,54.018,156.388,53.876z M161.579,59.558
	c-0.013,0.847-0.013,0.847,0.747,0.758C162.031,60.017,161.807,59.786,161.579,59.558z"/>
<path fill-rule="evenodd" clip-rule="evenodd" fill="#e5f3a5" class="fill" d="M41.142,126.856c1.604-0.381,3.07-0.73,4.721-1.122
	c0.946,1.535,1.317,3.509,2.064,5.419c-0.27,0.327-0.528,0.643-0.951,1.153c-0.639-1.669-1.212-3.166-1.81-4.723
	c-0.427,0.114-0.685,0.182-1.097,0.29c0.354,0.911,0.705,1.715,0.979,2.545c0.281,0.844,0.49,1.711,0.777,2.72
	c-0.256,0.304-0.571,0.676-0.981,1.166c-0.376-0.951-0.693-1.751-1.041-2.625c-0.377,0.007-0.68,0.013-1.111,0.021
	c0.352,1.22,0.668,2.308,0.99,3.414c-0.295,0.499-0.553,0.985-0.854,1.44c-0.631,0.952-0.693,1.971-0.49,3.06
	c0.521,2.76,0.967,5.536,1.543,8.283c0.262,1.236,0.665,2.47,1.197,3.617c0.342,0.741,0.98,1.372,1.58,1.963
	c0.68,0.675,1.262,1.361,1.309,2.52c-0.953,0.591-1.939,1.202-2.922,1.813c0.471-1.106,0.838-2.183,0.217-3.208
	c-0.559-0.921-1.355-1.696-2.045-2.536c-0.109,0.052-0.222,0.103-0.334,0.154c-0.196-1.033-0.465-2.058-0.578-3.1
	c-0.203-1.859-0.279-3.733-0.472-5.594c-0.246-2.387-1.155-4.535-2.626-6.414c-0.396-0.505-1.049-0.808-1.582-1.203
	c-0.91,0.319-1.693,0.596-2.541,0.895c0.346,0.476,0.615,0.847,0.949,1.31c-0.521,0.25-0.878,0.422-1.199,0.577
	c0.039,1.016,1.423,0.183,1.414,1.247c-0.525,0.156-1.068,0.317-1.676,0.499c0.424,1.157,1.379,0.365,2.108,0.758
	c0.075,0.223,0.193,0.561,0.354,1.033c-0.895,0.16-1.664,0.298-2.559,0.458c0.136,0.323,0.232,0.562,0.338,0.822
	c0.826-0.061,1.58-0.117,2.414-0.179c0.103,0.361,0.184,0.663,0.32,1.15c-0.965,0.085-1.826,0.161-2.697,0.236
	c0.221,0.568,0.221,0.568,2.684,0.955c0.018,0.373,0.039,0.773,0.066,1.294c-0.932,0.157-1.779,0.3-2.715,0.457
	c0.582,1.343,1.647,0.42,2.443,0.772c-0.016,0.362-0.031,0.754-0.051,1.213c-0.881,0.115-1.684,0.219-2.625,0.341
	c0.697,1.234,1.777,0.476,2.605,0.944c0.016,0.291,0.033,0.646,0.055,1.043c-0.654,0.134-1.221,0.251-1.877,0.385
	c0.404,1.247,1.418,0.482,1.979,0.769c0.725,0.969,1.428,1.902,2.229,2.967c-0.817,0.466-1.768,1.007-2.781,1.585
	c0.35-2.806,0.145-3.069-3.455-4.412c-0.027-0.759-0.206-1.623-0.062-2.426c0.987-5.474,0.608-10.945,0.094-16.42
	c-0.156-1.686,0.135-3.273,0.955-4.786c0.596,1.495-0.074,3.034,0.157,4.549c0.379,0.788,1.017,1.083,2.179,0.894
	c0.537-0.542,1.369-1.178,1.916-2.002c0.395-0.59,0.624-1.456,0.549-2.159C38.982,128.712,39.76,127.83,41.142,126.856z"/>
<path fill-rule="evenodd" clip-rule="evenodd" fill="#e5f3a5" class="fill" d="M177.237,41.36c0.301,0.48,0.569,0.908,0.856,1.369
	c-0.866,2.653-2.392,4.937-4.22,7.028c-1.93,2.208-3.889,4.385-5.842,6.575c-0.361,0.409-0.734,0.812-1.09,1.207
	c-1.052-1.218-2.055-2.382-3.154-3.654c0.583-2.084,1.693-4.127,3.096-6.002c1.582-2.11,3.267-4.142,5.33-5.812
	c0.587-0.476,1.246-0.907,1.939-1.194C175.212,40.442,176.241,40.699,177.237,41.36z M164.929,52.818
	c0.354,1.071,1.641,2.268,2.734,2.54C166.975,53.842,165.752,52.708,164.929,52.818z M167.569,49.148
	c0.491,1.353,1.643,1.73,2.881,1.982C169.851,49.966,168.563,49.76,167.569,49.148z M166.042,50.748
	c0.758,1.364,1.758,2.074,3.152,2.751C168.447,52.064,167.14,50.896,166.042,50.748z M171.507,49.667
	c-0.194-1.31-1.135-2.113-2.25-1.986C169.755,48.664,170.763,49.023,171.507,49.667z M174.381,45.747
	c-0.755-0.9-1.585-1.302-2.466-1.262C172.298,45.378,173.06,45.792,174.381,45.747z M170.575,45.638
	c-0.033,1.128,0.99,1.768,2.527,1.551C172.185,46.625,171.464,46.184,170.575,45.638z M173.968,42.409
	c0.387,0.939,1.066,1.071,1.94,1.203C175.519,42.638,174.819,42.537,173.968,42.409z"/>
<path fill-rule="evenodd" clip-rule="evenodd" fill="#e5f3a5" class="fill" d="M116.678,158.806c0.687,0.73,1.259,0.48,1.823,0.347
	c1.574-0.371,3.146-0.743,4.724-1.097c0.39-0.087,0.862-0.25,0.979,0.493c-2.191,1.007-4.65,1.067-6.934,1.878
	c0.203,0.757,0.676,0.729,1.139,0.633c1.205-0.251,2.408-0.533,3.613-0.796c0.818-0.179,1.643-0.345,2.521-0.528
	c0.094,0.359,0.153,0.582,0.232,0.881c-1.904,0.508-3.883,0.273-5.664,1.141c0.072,0.291,0.129,0.521,0.214,0.862
	c-1.671-0.037-3.306,0.482-5.017-0.222c0.088-2.142,0.176-4.293,0.274-6.62c2.541-0.341,5.03-0.674,7.521-1.008
	c0.021,0.097,0.044,0.194,0.067,0.291c-1.76,0.84-3.81,0.978-5.552,2.064c0.324,0.647,0.708,0.617,1.202,0.438
	c1.159-0.419,2.331-0.81,3.505-1.183c0.561-0.179,1.138-0.296,1.758-0.454c0.161,0.315,0.289,0.562,0.498,0.974
	C121.269,157.489,118.952,157.745,116.678,158.806z"/>
<path fill-rule="evenodd" clip-rule="evenodd" fill="#e5f3a5" class="fill" d="M48.064,165.929c-3.171-0.133-6.112-0.254-9.165-0.382
	c-0.427-0.994-0.907-2.108-1.438-3.333c2.69-0.983,5.301-1.937,7.971-2.912c0.198,0.416,0.331,0.7,0.49,1.03
	c-1.67,0.581-3.259,1.134-4.849,1.688c0.021,0.098,0.041,0.198,0.062,0.296c1.876,0.288,3.601-0.834,5.476-0.725
	c-1.574,0.979-3.576,0.732-5.162,1.652c0.02,0.1,0.043,0.199,0.066,0.299c1.863-0.233,3.73-0.465,5.688-0.709
	c0.089,0.13,0.224,0.323,0.489,0.707c-1.643,0.218-3.121,0.415-4.6,0.611c0.003,0.102,0.004,0.205,0.008,0.307
	c1.515,0.475,3.09,0.175,4.764,0.123C47.924,164.969,47.976,165.317,48.064,165.929z"/>
<path fill-rule="evenodd" clip-rule="evenodd" fill="#e5f3a5" class="fill" d="M24.465,100.068c-0.159,2.756-0.384,5.509-0.458,8.267
	c-0.169,6.242-1.012,12.377-2.592,18.419c-0.334,1.27-0.459,2.594-0.672,3.895c-0.059,0.363-0.094,0.732-0.148,1.169
	c-0.305-0.054-0.494-0.088-0.744-0.131c-0.129-1.708,0.06-3.354,0.357-4.978c0.515-2.846,1.176-5.666,1.669-8.515
	c0.499-2.893,0.911-5.8,1.278-8.713c0.346-2.741,0.572-5.498,0.885-8.244c0.047-0.398,0.278-0.777,0.425-1.165V100.068z"/>
<path fill-rule="evenodd" clip-rule="evenodd" fill="#e5f3a5" class="fill" d="M24.93,132.636c-0.493-0.468-0.985-0.933-1.486-1.406
	c-0.075-2.983,0.513-5.849,1.198-8.715c0.296,1.049,0.051,2.129,0.113,3.19c0.07,1.147,0.1,2.297,0.173,3.444
	c0.07,1.093,0.175,2.181,0.264,3.271C25.104,132.493,25.019,132.564,24.93,132.636z"/>
<path fill-rule="evenodd" clip-rule="evenodd" fill="#e5f3a5" class="fill" d="M96.46,118.367c-0.515,0.225-0.92,0.405-1.504,0.662
	c-0.443-1.884-0.854-3.629-1.285-5.447c0.344-0.184,0.668-0.356,1.11-0.594C95.548,114.717,95.905,116.482,96.46,118.367z"/>
<path fill-rule="evenodd" clip-rule="evenodd" fill="#e5f3a5" class="fill" d="M18.815,131.157c-0.574-0.178-0.932-0.288-1.404-0.433
	c0.034-0.303,0.023-0.637,0.11-0.941c0.86-2.972,1.735-5.939,2.612-8.905c0.022-0.073,0.098-0.129,0.262-0.343
	C19.944,124.148,18.567,127.455,18.815,131.157z"/>
<path fill-rule="evenodd" clip-rule="evenodd" fill="#e5f3a5" class="fill" d="M50.543,121.72c0.434,1.5,0.792,2.736,1.138,3.934
	c-0.38,0.569-0.678,1.018-1.115,1.671c-0.473-1.491-0.879-2.778-1.33-4.199C49.571,122.768,49.953,122.355,50.543,121.72z"/>
<path fill-rule="evenodd" clip-rule="evenodd" fill="#e5f3a5" class="fill" d="M103.177,114.082c-0.422,0.246-0.773,0.451-1.181,0.688
	c-0.827-1.308-1.425-2.586-1.585-4.141c0.332-0.15,0.66-0.298,1.112-0.503C101.837,111.556,103.236,112.397,103.177,114.082z"/>
<path fill-rule="evenodd" clip-rule="evenodd" fill="#e5f3a5" class="fill" d="M98.665,117.337c-0.354,0.204-0.597,0.346-0.784,0.456
	c-0.582-0.152-1.533-3.289-1.669-5.306c0.245-0.118,0.523-0.252,0.969-0.464C97.685,113.829,98.157,115.52,98.665,117.337z"/>
<path fill-rule="evenodd" clip-rule="evenodd" fill="#e5f3a5" class="fill" d="M47.03,125.005c0.373-0.272,0.701-0.51,1.139-0.83
	c0.812,1.487,1.053,3.024,1.311,4.541c0.055,0.33-0.24,0.722-0.373,1.086c-0.105,0.001-0.211,0.003-0.318,0.006
	C48.222,128.259,47.653,126.71,47.03,125.005z"/>
<path fill-rule="evenodd" clip-rule="evenodd" fill="#e5f3a5" class="fill" d="M100.897,115.717c-0.348,0.285-0.686,0.557-1.202,0.975
	c-0.493-1.817-0.93-3.431-1.378-5.093c0.258-0.163,0.455-0.288,0.72-0.458C99.662,112.676,100.259,114.147,100.897,115.717z"/>
<path fill-rule="evenodd" clip-rule="evenodd" fill="#e5f3a5" class="fill" d="M53.713,123.199c-0.323,0.387-0.573,0.691-0.969,1.164
	c-0.503-1.325-0.923-2.438-1.371-3.617c0.351-0.374,0.683-0.729,1.079-1.155C53.376,120.688,53.155,122.009,53.713,123.199z"/>
<path fill-rule="evenodd" clip-rule="evenodd" fill="#e5f3a5" class="fill" d="M91.62,114.509c0.236-0.148,0.405-0.253,0.725-0.452
	c0.744,1.616,0.957,3.271,1.274,4.99c-0.298,0.095-0.558,0.179-0.933,0.298C92.011,117.807,92.007,116.18,91.62,114.509z"/>
<path fill-rule="evenodd" clip-rule="evenodd" fill="#e5f3a5" class="fill" d="M87.372,119.683c-0.106-1.384-0.195-2.543-0.287-3.745
	c0.391-0.108,0.658-0.182,1.068-0.295c0.259,1.239,0.509,2.42,0.794,3.777C88.482,119.5,88.066,119.568,87.372,119.683z"/>
<path fill-rule="evenodd" clip-rule="evenodd" fill="#e5f3a5" class="fill" d="M89.36,115.222c0.464-0.084,0.703-0.126,1.088-0.196
	c0.304,1.474,0.601,2.902,0.925,4.465c-0.429,0.006-0.778,0.009-1.259,0.015C89.861,118.072,89.623,116.719,89.36,115.222z"/>
<path fill-rule="evenodd" clip-rule="evenodd" fill="#e5f3a5" class="fill" d="M22.382,107.379c-0.365-3.503-0.042-6.935,0.767-10.331
	c0.136,0.026,0.181,0.026,0.22,0.042c0.031,0.014,0.086,0.05,0.082,0.071C23.097,100.567,22.739,103.974,22.382,107.379z"/>
<path fill-rule="evenodd" clip-rule="evenodd" fill="#e5f3a5" class="fill" d="M84.517,116.177c0.498-0.056,0.85-0.096,1.363-0.152
	c0.085,1.203,0.158,2.279,0.242,3.454c-0.521-0.021-0.878-0.037-1.333-0.055C84.702,118.387,84.62,117.386,84.517,116.177z"/>
<path fill-rule="evenodd" clip-rule="evenodd" fill="#e5f3a5" class="fill" d="M54.771,117.554c0.293,1.04,0.528,1.876,0.778,2.758
	c-0.28,0.414-0.548,0.813-0.923,1.365c-0.386-1.153-0.704-2.095-1.051-3.125C53.929,118.256,54.267,117.975,54.771,117.554z"/>
<path fill-rule="evenodd" clip-rule="evenodd" fill="#e5f3a5" class="fill" d="M78.458,116.305c0.02,0.954,0.031,1.663,0.051,2.554
	c-0.596-0.093-1.1-0.172-1.677-0.261c0.034-0.84,0.063-1.573,0.103-2.455C77.437,116.196,77.901,116.246,78.458,116.305z"/>
<path fill-rule="evenodd" clip-rule="evenodd" fill="#e5f3a5" class="fill" d="M71.69,115.23c0.566,0.09,1.004,0.16,1.562,0.249
	c0.046,0.781,0.089,1.514,0.144,2.432c-0.688-0.138-1.229-0.245-1.801-0.359C71.626,116.769,71.655,116.108,71.69,115.23z"/>
<path fill-rule="evenodd" clip-rule="evenodd" fill="#e5f3a5" class="fill" d="M81.24,119.181c-0.634-0.026-1.044-0.044-1.552-0.064
	c0.035-0.887,0.07-1.714,0.109-2.641c0.336-0.042,0.693-0.085,1.182-0.145C81.07,117.309,81.149,118.179,81.24,119.181z"/>
<path fill-rule="evenodd" clip-rule="evenodd" fill="#e5f3a5" class="fill" d="M69.129,116.85c-0.047-0.936-0.084-1.715-0.134-2.686
	c0.562,0.226,0.928,0.373,1.312,0.528c0.098,0.812,0.188,1.555,0.305,2.512C70.067,117.074,69.656,116.975,69.129,116.85z"/>
<path fill-rule="evenodd" clip-rule="evenodd" fill="#e5f3a5" class="fill" d="M83.606,119.401c-0.509-0.021-0.779-0.035-1.158-0.049
	c-0.079-0.995-0.152-1.932-0.234-2.965c0.414-0.007,0.68-0.011,1.068-0.02C83.39,117.372,83.493,118.312,83.606,119.401z"/>
<path fill-rule="evenodd" clip-rule="evenodd" fill="#e5f3a5" class="fill" d="M67.886,116.212c-1.056-0.311-1.366-1.178-1.165-3.061
	c0.311,0.115,0.601,0.221,0.94,0.347C67.737,114.425,67.81,115.292,67.886,116.212z"/>
<path fill-rule="evenodd" clip-rule="evenodd" fill="#e5f3a5" class="fill" d="M60.767,108.485c0.262,0.238,0.52,0.36,0.525,0.495
	c0.045,1.146,0.047,2.29,0.062,3.535C60.528,111.738,60.341,110.453,60.767,108.485z"/>
<path fill-rule="evenodd" clip-rule="evenodd" fill="#e5f3a5" class="fill" d="M65.317,115.317c-1.055-0.896-0.66-2.109-0.773-3.312
	C65.374,112.364,65.558,113.145,65.317,115.317z"/>
<path fill-rule="evenodd" clip-rule="evenodd" fill="#e5f3a5" class="fill" d="M56.427,118.518c-0.337-0.793-0.574-1.356-0.85-2.006
	c0.327-0.374,0.646-0.738,1.111-1.269C57.176,116.408,57.082,117.326,56.427,118.518z"/>
<path fill-rule="evenodd" clip-rule="evenodd" fill="#e5f3a5" class="fill" d="M22.909,125.85c-0.248,1.87-0.494,3.739-0.753,5.61
	c-0.002,0.022-0.149,0.024-0.229,0.035C21.649,130.51,22.087,127.735,22.909,125.85z"/>
<path fill-rule="evenodd" clip-rule="evenodd" fill="#e5f3a5" class="fill" d="M62.863,110.492c1.006,1.073,0.061,2.464,0.65,3.604
	c-0.103,0.036-0.2,0.073-0.296,0.109c-0.161-0.103-0.45-0.194-0.461-0.312c-0.11-1.118-0.17-2.241-0.242-3.363
	C62.631,110.517,62.749,110.503,62.863,110.492z"/>
<path fill-rule="evenodd" clip-rule="evenodd" fill="#e5f3a5" class="fill" d="M74.654,115.762c0.38,0.128,0.644,0.217,0.969,0.329
	c-0.028,0.718-0.058,1.388-0.091,2.175c-0.285-0.028-0.586-0.057-0.978-0.097C74.585,117.372,74.616,116.669,74.654,115.762z"/>
<path fill-rule="evenodd" clip-rule="evenodd" fill="#e5f3a5" class="fill" d="M124.904,161.772c-0.019,0.423-0.023,0.579-0.036,0.836
	c-1.289-0.053-2.57-0.107-3.848-0.16c-0.01-0.062-0.019-0.125-0.028-0.186C122.243,162.106,123.493,161.949,124.904,161.772z"/>
<path fill-rule="evenodd" clip-rule="evenodd" fill="#e5f3a5" class="fill" d="M21.094,114.748c0.282-1.644,0.566-3.287,0.851-4.93
	c0.203,1.711-0.402,3.31-0.568,4.97C21.28,114.775,21.187,114.762,21.094,114.748z"/>
<path fill-rule="evenodd" clip-rule="evenodd" fill="#e5f3a5" class="fill" d="M165.468,42.715c0.217-0.386,0.434-0.771,0.752-1.341
	c0.26,0.441,0.408,0.693,0.658,1.114c-0.564,0.121-0.956,0.207-1.35,0.292L165.468,42.715z"/>
<path fill-rule="evenodd" clip-rule="evenodd" fill="#e5f3a5" class="fill" d="M143.569,60.455c0.111,0.439,0.179,0.701,0.25,0.974
	c-0.706,0.318-0.933-0.129-1.225-0.718C142.892,60.632,143.161,60.563,143.569,60.455z"/>
<path fill-rule="evenodd" clip-rule="evenodd" fill="#e5f3a5" class="fill" d="M24.465,100.072c-0.028-0.678-0.056-1.355-0.085-2.032
	c0.61,0.271,0.295,0.615,0.27,0.921c-0.035,0.371-0.123,0.738-0.185,1.107V100.072z"/>
<path fill-rule="evenodd" clip-rule="evenodd" fill="#e5f3a5" class="fill" d="M161.042,75.25c-0.166-0.609-0.289-1.068-0.41-1.518
	c0.574-0.466,1.102-0.739,1.757-0.595C161.969,73.796,161.576,74.411,161.042,75.25z"/>
<path fill-rule="evenodd" clip-rule="evenodd" fill="#e5f3a5" class="fill" d="M163.747,73.92c0.094,0.455,0.188,0.911,0.277,1.346
	c-0.789,0.493-1.126,0.19-1.411-0.554c0.235-0.274,0.491-0.569,0.745-0.865C163.485,73.873,163.616,73.896,163.747,73.92z"/>
<path fill-rule="evenodd" clip-rule="evenodd" fill="#e5f3a5" class="fill" d="M164.953,76.149c0.162-0.607,0.27-0.996,0.39-1.445
	C165.867,75.47,165.878,75.472,164.953,76.149z"/>
</svg>
