<svg version="1.1" id="svg" xmlns="http://www.w3.org/2000/svg" xmlns:xlink="http://www.w3.org/1999/xlink" x="0px" y="0px"
	 width="200px" height="200px" viewBox="0 0 200 200" enable-background="new 0 0 200 200" xml:space="preserve">
<path class="stroke" fill="#252b56"  fill-rule="evenodd" clip-rule="evenodd" d="M20.275,151.397c-0.562-0.493-1.016-0.892-1.453-1.276
	c0.102-3.477,0.219-6.911,0.298-10.344c0.099-4.224,0.175-8.448,0.245-12.672c0.078-4.707,0.08-9.415,0.229-14.12
	c0.143-4.523,0.571-9.042,0.614-13.565c0.048-4.919-0.224-9.841-0.313-14.763c-0.029-1.697,0.115-3.398,0.101-5.097
	c-0.028-3.618-0.144-7.235-0.155-10.852c-0.012-3.137,0.053-6.273,0.117-9.409c0.053-2.345,0.158-4.687,0.242-7.062
	c0.57-0.188,0.968-0.421,1.373-0.438c3.221-0.137,6.445-0.271,9.668-0.331c4.131-0.075,8.268-0.039,12.398-0.13
	c2.215-0.048,4.426-0.324,6.643-0.39c2.9-0.086,5.807-0.069,8.709-0.095c3.131-0.028,6.261-0.036,9.391-0.084
	c2.352-0.037,4.699-0.114,7.049-0.19c1.648-0.053,3.294-0.204,4.941-0.19c5.261,0.042,10.521,0.138,15.783,0.218
	c2.178,0.034,4.355,0.108,6.535,0.118c2.126,0.009,4.252-0.06,6.379-0.061c4.701-0.004,9.4-0.003,14.099,0.032
	c1.564,0.011,3.125,0.187,4.687,0.186c2.123-0.002,4.243-0.084,6.362-0.168c1.86-0.074,3.714-0.214,5.573-0.293
	c0.998-0.043,2-0.009,3-0.032c2.002-0.046,4.003-0.122,6.004-0.159c2.688-0.049,5.378-0.125,8.066-0.096
	c3.691,0.04,7.387,0.103,11.073,0.278c2.476,0.119,4.934,0.506,7.409,0.666c1.16,0.075,2.337-0.117,3.507-0.153
	c0.74-0.023,1.489-0.047,2.216,0.053c0.382,0.053,0.73,0.369,0.934,0.479c0.062,1.205,0.125,2.194,0.159,3.186
	c0.067,1.913,0.151,3.827,0.166,5.741c0.025,3.47,0.006,6.942,0.007,10.413c0.001,1.779,0.039,3.56,0.003,5.339
	c-0.04,2.002-0.17,4.003-0.213,6.005c-0.055,2.604-0.046,5.209-0.095,7.812c-0.039,2.175-0.148,4.349-0.178,6.523
	c-0.014,1.042,0.142,2.086,0.113,3.128c-0.154,5.835-0.307,11.67-0.529,17.504c-0.184,4.83-0.568,9.653-0.674,14.483
	c-0.115,5.311-0.008,10.626-0.008,15.939c0.002,0.832-0.034,1.666-0.666,2.446c-0.6,0.09-1.276,0.22-1.96,0.288
	c-2.422,0.244-4.843,0.533-7.271,0.682c-4.781,0.294-9.568,0.504-14.352,0.753c-1.48,0.077-2.963,0.123-4.439,0.257
	c-2.702,0.247-5.396,0.092-8.096-0.033c-2.176-0.102-4.357,0.022-6.534-0.036c-3.962-0.104-7.922-0.28-11.882-0.4
	c-3.137-0.095-6.274-0.148-9.412-0.228c-3.614-0.09-7.229-0.207-10.844-0.282c-4.305-0.089-8.609-0.144-12.916-0.218
	c-1.307-0.022-2.613-0.092-3.918-0.079c-1.481,0.014-2.961,0.112-4.439,0.149c-3.572,0.086-7.145,0.223-10.717,0.22
	c-4.879-0.004-9.756-0.132-14.636-0.183c-2.134-0.021-4.271,0.024-6.407,0.022c-1.612-0.001-3.225-0.062-4.837-0.039
	c-4.707,0.071-9.413,0.22-14.12,0.244c-2.786,0.014-5.572-0.177-8.36-0.228C23.39,150.84,21.803,150.6,20.275,151.397z
	 M102.863,52.673c0,0.424,0.147,0.904-0.028,1.162c-0.442,0.646-0.356,1.341-0.368,2.021c-0.043,2.484-0.007,4.972-0.074,7.456
	c-0.084,2.962-0.299,5.921-0.363,8.883c-0.079,3.658-0.021,7.319-0.097,10.977c-0.159,8.06-0.339,16.118-0.562,24.176
	c-0.104,3.745-0.323,7.486-0.48,11.229c-0.176,4.138-0.34,8.276-0.511,12.414c-0.138,3.395-0.284,6.789-0.411,10.184
	c-0.072,1.959-0.127,3.917-0.16,5.876c-0.009,0.455,0.104,0.912,0.17,1.47c2.117-0.029,4.086,0.445,6.007,0.084
	c0.256-1.902,0.496-3.688,0.744-5.539c1.929-0.058,3.692-0.111,5.588-0.168c0.033-2.053,0.19-3.937,0.86-5.846
	c1.969-0.13,3.943-0.26,5.724-0.375c0.398-1.907,0.771-3.672,1.146-5.47c2.316-0.542,4.564,0.206,6.713-0.35
	c0.266-2.023,0.514-3.909,0.757-5.765c0.965-0.505,1.897-0.495,2.772-0.297c1.03,0.232,1.963,0.066,3-0.249
	c0.136-1.94,0.223-3.835-0.45-5.641c0.787-0.537,1.239-0.613,2.397-0.571c1.549,0.056,3.107,0.185,4.77-0.328
	c0-2.196,0-4.355,0-6.695c2.156-0.107,4.312,0.31,6.43-0.147c0.26-2.057-0.015-4.086,0.783-6.105c1.91,0,3.76,0,5.745,0
	c0.077-1.621,0.179-3.088,0.203-4.558c0.014-0.789,0.167-1.534,0.817-1.966c0.973-0.647,1.237-1.499,1.104-2.585
	c-0.058-0.475-0.06-0.96-0.032-1.439c0.046-0.759-0.238-1.377-0.788-1.856c-1.33-1.164-1.724-2.702-1.671-4.358
	c0.042-1.211,0.294-2.414,0.427-3.625c0.35-3.198,1.449-6.077,3.699-8.611c-0.145-0.555-0.282-1.187-0.475-1.802
	c-0.418-1.344-0.752-2.725-0.548-4.115c0.18-1.218,0.136-2.419,0.175-3.632c0.051-1.593,0.659-3.062,1.438-4.43
	c0.65-1.14,1.651-1.895,2.967-2.183c1.189-0.262,2.378-0.524,3.564-0.799c1.486-0.345,2.752,0.059,3.837,1.097
	c0.5,0.479,0.997,0.964,1.45,1.404c0.659,0.035,1.223,0.065,1.725,0.091c1.024,0.652,1.67,1.461,1.878,2.625
	c0.136,0.768,0.423,1.506,0.605,2.268c0.157,0.674,0.138,1.419,0.419,2.03c0.513,1.112,0.381,2.104-0.193,3.111
	c-0.525,0.922-1.125,1.768-2.19,2.163c-0.231,0.713-0.458,1.406-0.671,2.059c1.908,2.285,2.431,4.978,2.862,7.702
	c0.463,2.913-0.432,5.498-1.876,7.796c-0.271,1.944-0.521,3.747-0.787,5.659c1.315,0.457,1.985,1.502,2.502,2.792
	c2.111,0,4.182,0,6.399,0c0.071-1.023,0.103-2.017,0.213-3.001c0.563-5.04,0.345-10.1,0.389-15.15
	c0.022-2.525-0.131-5.05-0.207-7.576c-0.112-3.92-0.261-7.84-0.329-11.761c-0.051-3.048-0.003-6.098-0.006-9.147
	c0-0.115-0.093-0.23-0.168-0.408c-0.324-0.038-0.665-0.118-1.002-0.111c-1.781,0.043-3.562,0.12-5.343,0.161
	c-2.133,0.048-4.254-0.045-6.387-0.221c-2.901-0.241-5.835-0.193-8.752-0.173c-5.403,0.035-10.808,0.113-16.212,0.224
	c-5.447,0.111-10.895,0.325-16.342,0.415c-2.876,0.046-5.753-0.052-8.628-0.129c-3.354-0.09-6.71-0.24-10.066-0.337
	C105.621,52.64,104.273,52.673,102.863,52.673z M157.547,71.692c0.174,0.961,0.35,1.641,0.414,2.329
	c0.339,3.559,3.503,5.053,6.505,4.478c2.567-0.492,4.237-2.075,5.259-4.42c0.259-0.593,0.525-1.181,0.771-1.737
	c0.401-0.159,0.725-0.283,1.044-0.413c0.723-0.292,1.074-0.856,1.147-1.608c0.071-0.747-0.332-1.189-0.932-1.576
	c-0.982-0.634-1.963-1.287-2.854-2.039c-0.54-0.456-0.909-1.112-1.292-1.599c-1.654,0.602-3.174,1.268-4.761,1.702
	c-1.563,0.428-3.188,0.622-4.749,0.911c-0.104,0.727-0.183,1.266-0.266,1.854c1.303-0.23,2.582-0.788,3.754,0.147
	c0.296,0.741,0.06,1.288-0.594,1.53c-0.635,0.235-1.327,0.334-2.004,0.429C158.54,71.744,158.074,71.692,157.547,71.692z
	 M156.762,88.553c-0.022,3.336-0.293,6.302,0.304,9.045c1.348,0.668,2.468,1.224,3.75,1.859c0.051-0.761,0.102-1.274,0.117-1.789
	c0.062-1.869,0.112-3.739,0.163-5.608c0.014-0.534,0.018-1.068,0.669-1.158c1.366-0.066,2.729-0.132,4.168-0.203
	c0.076,2.445,0.147,4.801,0.224,7.286c1.033-0.316,1.895-0.58,2.633-0.806c0.96-1.752,1.479-6.5,1.018-8.477
	c-1.952,0.152-3.896,0.251-5.828,0.468C161.641,89.432,159.311,89.879,156.762,88.553z M156.693,87.655
	c2.281,1.135,4.333,1.27,6.634,0.542c-0.087-2.561,0.28-5.101,0.087-7.661c-0.004-0.036-0.135-0.062-0.233-0.105
	c-0.48,0.371-0.511,1.265-1.456,1.235c-1.636-0.584-2.605-2.114-3.893-3.242c-0.013-0.512,0.527-1.041-0.014-1.559
	c-1.339,0.945-1.578,1.125-1.971,2.246c-0.792,2.256-1.553,4.53-1.609,6.959c-0.016,0.675-0.002,1.352-0.002,2.143
	c0.512,0.025,0.959,0.047,1.378,0.068c0.079-0.273,0.134-0.396,0.146-0.523c0.222-2.208,0.435-4.416,0.651-6.625
	c0.042-0.424,0.056-0.876,0.83-0.859C157.055,82.77,156.873,85.218,156.693,87.655z M169.508,76.851
	c-0.629,2.118-1.726,3.616-3.503,4.689c-0.524-0.444-1.023-0.864-1.735-1.467c0,2.876,0,5.453,0,8.019
	c2.062,0.328,4.277,0.008,5.644-0.884c-0.194-2.214-0.396-4.531-0.606-6.929c0.338-0.015,0.566-0.026,0.883-0.04
	c0.243,2.515,0.481,4.954,0.727,7.464c0.471-0.108,0.838-0.191,1.271-0.289c0.049-2.403-0.104-4.737-0.584-7.042
	C171.331,79.066,170.708,77.951,169.508,76.851z M162.254,99.416c0.786,0.104,1.486,0.196,2.301,0.305
	c0.282-2.617,0.225-5.053-0.166-7.581c-0.655,0.038-1.156,0.066-1.809,0.103C162.473,94.619,162.368,96.904,162.254,99.416z
	 M161.758,60.836c-0.03,0.112-0.061,0.223-0.092,0.334c1.329,1.61,2.941,2.328,5.043,1.62c0.318-0.109,0.755-0.326,0.996,0.2
	c-0.912,0.639-1.436,0.72-2.561,0.784c-1.973,0.112-3.188-1.157-4.478-2.387c-0.255,0.149-0.458,0.266-0.658,0.382
	c1.38,2.592,5.866,3.316,8.628,1.56c0.822,0.046,1.523,0.086,2.225,0.126c0.033-0.12,0.066-0.238,0.098-0.357
	c-0.348-0.164-0.703-0.479-1.042-0.461c-0.852,0.043-1.52-0.255-2.138-0.881c-0.693,0.75-1.48,0.687-2.301,0.355
	c-0.725-0.293-1.443-0.601-2.18-0.859C162.797,61.076,162.272,60.972,161.758,60.836z M159.191,62.434
	c-0.279,0.917,0.344,1.938,1.522,2.684c1.03,0.65,2.64,0.656,3.425-0.041C162.295,64.548,160.464,64.052,159.191,62.434z
	 M170.964,99.266c-1.278-1.46-3.48-1.383-4.584,0C167.863,99.266,169.319,99.266,170.964,99.266z M154.041,89.137
	c0.199,1.471,0.608,2.075,1.678,2.48c0-0.827,0-1.622,0-2.454c-0.286-0.038-0.492-0.09-0.702-0.09
	C154.721,89.073,154.424,89.11,154.041,89.137z M154.863,99.185c0.982,0.79,2.293,0.83,3.648,0.182
	c-0.66-0.509-0.66-0.509-2.435-0.792C155.729,98.75,155.317,98.957,154.863,99.185z M159.638,78.719
	c0.554,1.07,1.341,1.562,2.272,2.086c0.206-0.356,0.383-0.664,0.564-0.978C161.666,78.991,160.713,78.976,159.638,78.719z
	 M166.068,80.396c0.832-0.581,1.486-1.167,1.873-2.259c-1.048,0.451-1.877,0.808-2.846,1.226
	C165.486,79.778,165.765,80.074,166.068,80.396z M164.062,60.561c1.506,1.188,2.473,1.366,3.33,0.569
	C166.349,60.661,165.349,60.435,164.062,60.561z M160.685,66.225c-0.856-0.787-1.655-1.521-2.505-2.301
	c-0.425,0.84,0.412,1.101,0.497,1.676C159.382,65.697,159.76,66.622,160.685,66.225z M171.533,64.908
	c-0.814,0.314-1.479,0.572-2.283,0.884c1.309,0.577,1.323,0.574,2.553-0.216C171.732,65.4,171.656,65.214,171.533,64.908z
	 M171.213,64.524c0.003-0.121,0.008-0.241,0.01-0.362c-0.895,0-1.79,0-2.84,0C169.334,65.405,170.307,64.566,171.213,64.524z
	 M172.048,88.229c-0.562,0.128-0.864,0.197-1.157,0.263c0,0.628,0,1.152,0,1.676c0.084,0.022,0.17,0.044,0.256,0.065
	C171.412,89.642,171.68,89.049,172.048,88.229z M158.688,70.383c1.006,0.679,1.412,0.595,2.037-0.348
	C160.025,69.869,159.391,69.867,158.688,70.383z M158.631,66.609c-0.476-0.501-0.773-0.816-1.234-1.301
	c-0.141,0.661-0.229,1.073-0.35,1.651C157.634,66.829,157.992,66.751,158.631,66.609z M170.914,66.947
	c0.406,0.298,0.623,0.457,0.98,0.719c0.052-0.477,0.086-0.782,0.139-1.257C171.613,66.611,171.361,66.732,170.914,66.947z"/>
<path class="stroke" fill="#252b56"  fill-rule="evenodd" clip-rule="evenodd" d="M164.884,70.131c0.726-1.032,1.813-0.811,2.754-0.925
	c0.788-0.096,1.65-0.195,2.361,0.588c-0.026,0.328-0.058,0.699-0.077,0.941C168.667,72.367,165.82,71.998,164.884,70.131z
	 M166.58,70.15c0.965,1.092,1.83,0.97,2.312-0.214C168.059,70.013,167.318,70.081,166.58,70.15z"/>
<path class="stroke" fill="#252b56"  fill-rule="evenodd" clip-rule="evenodd" d="M162.196,73.4c0.871,0,1.589,0,2.35,0c-0.84,1.028-2.13,1.234-3.466,0.504
	c0.058-0.311,0.028-0.726,0.202-1.02c0.839-1.412,1.372-2.9,1.308-4.625c0.269-0.064,0.496-0.119,0.771-0.185
	C163.884,70.066,162.937,71.685,162.196,73.4z"/>
<path class="stroke" fill="#252b56"  fill-rule="evenodd" clip-rule="evenodd" d="M165.568,75.918c-0.902,1.728-1.783,1.912-3.545,0.923
	c-0.098-0.268-0.225-0.62-0.381-1.05c0.312-0.144,0.558-0.258,0.804-0.372c0.44,0.928,0.44,0.928,1.256,1.28
	c0.255-0.153,0.537-0.354,0.844-0.495C164.789,76.092,165.064,76.055,165.568,75.918z"/>
<path fill-rule="evenodd" clip-rule="evenodd" fill="#f6da41" class="fill" d="M32.258,113.867c-0.221,0.359-0.479,0.713-0.666,1.1
	c-0.398,0.814-0.418,1.71,0.242,2.313c1.016,0.926,1.162,2.078,1.27,3.301c-0.986,1.065-1.958,2.11-2.924,3.163
	c-1.143,1.246-1.902,2.69-2.283,4.345c-0.213,0.931-0.513,1.843-0.75,2.768c-0.629,2.446-0.1,4.693,1.403,6.651
	c0.848,1.106,1.223,2.2,1.122,3.597c-0.127,1.729-0.03,3.472-0.03,5.103c-0.75,0.578-1.407,1.143-2.126,1.616
	c-0.418,0.276-0.931,0.55-1.41,0.569c-1.729,0.068-3.464,0.026-5.338,0.026c-0.039-1.145-0.103-2.345-0.107-3.546
	c-0.01-1.567,0.021-3.135,0.043-4.703c0.061-4.833,0.107-9.667,0.191-14.501c0.07-4.092,0.154-8.185,0.287-12.276
	c0.161-4.959,0.408-9.917,0.563-14.876c0.124-4.007,0.219-8.016,0.229-12.025c0.008-3.354-0.172-6.708-0.178-10.063
	c-0.007-3.485,0.092-6.972,0.152-10.457c0.035-2.047,0.055-4.094,0.137-6.139c0.078-1.988,0.227-3.974,0.348-6.015
	c0.363-0.024,0.619-0.083,0.863-0.052c3.572,0.448,7.142,0.063,10.712-0.042c2.176-0.064,4.352-0.258,6.529-0.296
	c2.919-0.051,5.837,0.002,8.757-0.012c1.043-0.005,2.088-0.084,3.132-0.111c1.829-0.048,3.659-0.064,5.488-0.124
	c6.36-0.205,12.718-0.504,19.078-0.61c6.056-0.102,12.117-0.008,18.176-0.001c1.435,0.002,2.868,0.001,4.382,0.001
	c0.365,1.049,0.722,2.06,0.681,3.234c-0.067,1.823,0.075,3.652,0.097,5.479c0.021,1.743,0.021,3.486-0.011,5.229
	c-0.049,2.701-0.129,5.4-0.205,8.1c-0.028,1.045-0.112,2.09-0.118,3.135c-0.027,4.05-0.033,8.1-0.048,12.15
	c-0.008,2.222,0.009,4.444-0.05,6.666c-0.025,1.032-0.198,2.061-0.316,3.18c-2.172,0.169-4.232,0.329-6.387,0.497
	c-0.186,1.824-0.363,3.579-0.562,5.515c-0.911,0.01-1.768-0.001-2.621,0.035c-0.812,0.034-1.623,0.118-2.563,0.191
	c-0.286,2.106-0.551,4.069-0.813,6.008c-1.656,0.197-3.279,0.391-4.955,0.59c-0.639,2.125-0.144,4.196-0.477,6.365
	c-2.058,0.128-4.084,0.254-6.251,0.39c-0.937,2.013-0.176,4.237-0.524,6.375c-1.852,0.716-3.914-0.252-5.795,0.697
	c0,1.692,0,3.321,0,4.995c-1.896,0.125-3.703,0.245-5.522,0.364c-0.743,1.56,0.045,3.091-0.214,4.71
	c-1.583,0.557-3.3,0.13-5.047,0.44c-0.351,0.22-0.791,0.494-1.291,0.805c-0.139,1.62-0.281,3.253-0.434,5.032
	c-1.873,0-3.68,0-5.51,0c-0.697,2.154,0.191,4.277-0.398,6.361c-1.107-0.069-1.103-1.156-1.662-1.667
	c-0.572-0.521-1.048-1.146-1.654-1.822c0-2.062-0.006-4.326,0.008-6.59c0.002-0.294,0.045-0.64,0.201-0.872
	c0.819-1.201,1.242-2.569,1.809-3.883c0.48-1.109,0.836-2.184,0.859-3.365c0.016-0.734,0.027-1.498-0.154-2.198
	c-0.334-1.303-0.69-2.627-1.271-3.832c-0.417-0.866-1.173-1.587-1.85-2.305c-0.465-0.492-1.051-0.866-1.666-1.36
	c0.611-1.109,1.153-2.089,1.69-3.073c0.123-0.229,0.262-0.459,0.332-0.708c0.717-2.547,1.369-5.097,0.618-7.768
	c-0.426-1.518-1.163-2.688-2.814-3.114c-0.528-0.137-1.014-0.493-1.487-0.797c-1.436-0.925-2.977-1.16-4.632-0.801
	c-1.105,0.239-2.231,0.406-3.328,0.686c-2.353,0.601-3.962,2.215-3.997,4.966C31.194,112.479,31.215,112.479,32.258,113.867z"/>
<path fill-rule="evenodd" clip-rule="evenodd" fill="#f6da41" class="fill" d="M31.815,146.298c-0.528-2.007-0.64-7.996-0.173-9.206
	c4.422,0.637,8.887,0.485,13.504-0.09c0.494,3.021,0.287,5.902,0.231,8.886c-1.36,0.358-2.229,1.527-3.664,1.82
	c-0.282-2.583-0.44-5.038-0.05-7.494c-0.809-0.502-1.225,0.304-1.754,0.428c-0.838,0.068-1.617,0.13-2.396,0.193
	c-0.662,0.012-1.092-1.051-1.991-0.346c-0.192,2.153-0.392,4.385-0.605,6.784C33.904,146.955,32.861,146.627,31.815,146.298z"/>
<path fill-rule="evenodd" clip-rule="evenodd" fill="#f6da41" class="fill" d="M33.424,122.976c0.665,1.594,1.904,2.398,3.259,3.19
	c0.432,0.045,0.942,0.099,1.585,0.166c0.199,3.468,0.014,6.878-0.118,10.384c-2.276,0.095-4.433,0.211-6.718-0.514
	c0.066-1.052,0.076-2.085,0.216-3.101c0.14-1.028,0.436-2.033,0.614-3.056c0.17-1,1-1.834,0.801-2.924
	c-0.536-0.155-0.687,0.163-0.795,0.51c-0.502,1.614-1.002,3.229-1.489,4.848c-0.096,0.326-0.125,0.673-0.188,1.029
	c-0.77,0.212-1.408,0.19-1.951-0.583c0.252-1.565,0.389-3.225,0.807-4.812C30.012,125.951,31.233,124.189,33.424,122.976z"/>
<path fill-rule="evenodd" clip-rule="evenodd" fill="#f6da41" class="fill" d="M45.26,136.197c-2.137,0.221-4.025,0.417-6.074,0.63
	c0-3.79,0-7.417,0-11.121c0.32,0.194,0.629,0.382,0.994,0.605c1.395-0.896,2.77-1.781,4.121-2.65
	c-0.043-0.383-0.074-0.656-0.111-0.979c2.719,1.445,4.708,6.58,3.795,9.843c-0.537,0.05-1.121,0.105-1.826,0.171
	c0-1.201,0.019-2.276-0.006-3.35c-0.021-1.021,0.078-2.074-0.537-3.075c-0.258,0.141-0.432,0.236-0.43,0.235
	c0.008,1.44,0.002,2.727,0.027,4.015c0.018,0.957,0.1,1.913,0.111,2.87C45.333,134.291,45.286,135.192,45.26,136.197z"/>
<path fill-rule="evenodd" clip-rule="evenodd" fill="#f6da41" class="fill" d="M42.957,111.321c0.342,0.519,0.653,1.036,1.008,1.52
	c0.254,0.347,0.53,0.693,0.86,0.963c1.552,1.273,1.565,1.28,1.026,3.419c-0.379,0.375-0.902,0.894-1.539,1.523
	c-0.236,0.501-0.543,1.166-0.862,1.825c-0.915,1.891-2.606,2.431-4.517,2.549c-1.336,0.082-2.438-0.436-3.025-1.636
	c-0.603-1.235-1.022-2.559-1.422-3.873c-0.407-0.542-0.814-1.084-1.194-1.588c0.394-1.028,0.731-1.911,1.106-2.889
	C37.32,113.181,40.186,112.625,42.957,111.321z M38.73,115.173c-0.904-0.58-1.855-0.913-2.933-0.453
	c-0.731,0.312-1.136,0.858-1.075,1.46c0.061,0.608,0.543,1.178,1.27,1.308c0.543,0.098,1.135,0.128,1.67,0.02
	C38.91,117.254,39.253,116.443,38.73,115.173z M45.323,116.127c-0.673-1.232-1.726-1.569-3.706-1.206
	c-0.441,0.931-0.408,1.632,0.156,2.108c0.719,0.604,1.559,0.403,2.367,0.271C44.807,117.193,45.221,116.795,45.323,116.127z
	 M36.389,119.604c1.44,2.707,3.899,3.112,6.167,0.95c-0.034-0.289-0.079-0.659-0.124-1.03c-0.084-0.019-0.167-0.037-0.252-0.056
	c-0.516,1.231-1.529,1.679-2.716,1.723c-1.333,0.051-1.806-1.17-2.517-1.937c-0.162,0.042-0.255,0.046-0.324,0.089
	C36.554,119.387,36.508,119.467,36.389,119.604z M41.143,118.05c-0.023-0.878-0.63-2.349-1.354-3.252
	c-0.945,1.094,0.367,1.886,0.309,2.88c-0.35,0.027-0.709,0.055-1.125,0.087c-0.028,0.266-0.055,0.505-0.082,0.775
	C39.736,118.708,40.49,118.792,41.143,118.05z"/>
<path fill-rule="evenodd" clip-rule="evenodd" fill="#f6da41" class="fill" d="M37.039,141.719c0.877,0,1.566,0,2.337,0
	c0.14,0.184,0.315,0.42,0.386,0.514c0,2.288,0,4.405,0,6.561c-1.002,0-1.936,0-3.01,0C36.653,146.4,36.844,144.128,37.039,141.719z"
	/>
<path fill-rule="evenodd" clip-rule="evenodd" fill="#f6da41" class="fill" d="M42.498,106.937c-1.162,1.938-6.604,3.281-9.035,2.737
	c0.089-2.338,4.938-4.428,7.811-3.209c-1.113,0.703-2.162,1.267-3.367,1.433c-1.121,0.154-2.26,0.204-3.381,0.437
	c1.327,0.725,2.704,0.554,4.013,0.17C39.85,108.119,41.094,107.504,42.498,106.937z"/>
<path fill-rule="evenodd" clip-rule="evenodd" fill="#f6da41" class="fill" d="M43.232,108.991c-0.089-0.461-0.134-0.699-0.199-1.048
	c0.28,0.046,0.614,0.026,0.648,0.116c0.514,1.411,1.813,2.054,2.898,2.998c-0.041,0.254-0.087,0.533-0.139,0.841
	c-0.213-0.04-0.377-0.019-0.448-0.091c-0.513-0.525-1.03-1.05-1.501-1.613c-0.35-0.418-0.673-0.811-1.422-0.625
	c-0.654,1.69-2.319,1.891-3.859,2.337c-1.871,0.542-3.795,0.44-5.702,0.53c-0.136,0.006-0.284-0.198-0.384-0.542
	c0.973-0.079,1.943-0.216,2.918-0.226c2.387-0.025,4.533-0.745,6.469-2.119C42.76,109.374,42.992,109.178,43.232,108.991z"/>
<path fill-rule="evenodd" clip-rule="evenodd" fill="#f6da41" class="fill" d="M45.49,146.554c1.572,0.692,1.845,1.022,2.102,2.461
	c-1.951,0.165-3.879,0.154-5.809,0.07c-0.022-0.095-0.047-0.189-0.069-0.284C42.985,148.045,44.256,147.289,45.49,146.554z"/>
<path fill-rule="evenodd" clip-rule="evenodd" fill="#f6da41" class="fill" d="M37.912,124.162c-0.188,0.418-0.373,0.837-0.604,1.352
	c-1.089-0.406-1.92-1.055-2.469-1.995c-0.169-0.287-0.027-0.756-0.027-1.257C35.912,122.936,36.838,123.504,37.912,124.162z"/>
<path fill-rule="evenodd" clip-rule="evenodd" fill="#f6da41" class="fill" d="M34.484,148.435c-0.154,0.025-0.312,0.079-0.465,0.069
	c-1.543-0.094-3.086-0.198-4.76-0.308c0.42-0.805,1.087-1.052,1.865-1.353c1.096,0.403,2.254,0.828,3.413,1.252
	C34.52,148.208,34.502,148.321,34.484,148.435z"/>
<path fill-rule="evenodd" clip-rule="evenodd" fill="#f6da41" class="fill" d="M33.023,110.646c1.541-0.126,3.112-0.106,4.615-0.418
	c1.496-0.311,2.924-0.954,4.342-1.439C40.633,110.406,35.164,111.663,33.023,110.646z"/>
<path fill-rule="evenodd" clip-rule="evenodd" fill="#f6da41" class="fill" d="M43.104,123.256c-0.672,1.054-1.83,1.427-2.941,2.047
	c-0.296-0.354-0.562-0.672-0.968-1.158c1.349-0.421,2.546-0.795,3.743-1.17C42.992,123.069,43.049,123.162,43.104,123.256z"/>
<path fill-rule="evenodd" clip-rule="evenodd" fill="#f6da41" class="fill" d="M30.44,136.99c-0.829-0.812-1.04-1.268-1.221-2.526
	c0.371-0.038,0.737-0.077,1.221-0.127C30.44,135.225,30.44,136.027,30.44,136.99z"/>
<path fill-rule="evenodd" clip-rule="evenodd" fill="#f6da41" class="fill" d="M46.355,136.092c-0.049-0.79-0.095-1.579-0.146-2.409
	c0.338-0.105,0.615-0.192,0.951-0.298c0.195,1.021-0.025,1.892-0.463,2.72C46.583,136.1,46.469,136.096,46.355,136.092z"/>
<path fill-rule="evenodd" clip-rule="evenodd" fill="#f6da41" class="fill" d="M44.52,111.494c0.564,0.379,1.129,0.757,1.758,1.177
	c-0.057,0.263-0.111,0.525-0.178,0.828c-1.127-0.236-1.4-1.088-1.791-1.837C44.379,111.605,44.449,111.55,44.52,111.494z"/>
<path fill-rule="evenodd" clip-rule="evenodd" fill="#f6da41" class="fill" d="M46.216,110.114c-0.516-0.521-1.03-1.043-1.681-1.7
	C46.004,108.413,46.295,108.693,46.216,110.114z"/>
<path fill-rule="evenodd" clip-rule="evenodd" fill="#f6da41" class="fill" d="M35.541,115.593c0.432-0.139,0.865-0.278,1.486-0.477
	c-0.135,0.713-0.225,1.187-0.359,1.886c-0.483-0.413-0.84-0.715-1.194-1.019C35.496,115.853,35.519,115.723,35.541,115.593z"/>
<path fill-rule="evenodd" clip-rule="evenodd" fill="#f6da41" class="fill" d="M37.869,116.533c-0.068-0.127-0.173-0.249-0.189-0.382
	c-0.014-0.101,0.086-0.217,0.332-0.346c0.026,0.221,0.055,0.44,0.082,0.661C38.018,116.488,37.944,116.51,37.869,116.533z"/>
<path fill-rule="evenodd" clip-rule="evenodd" fill="#f6da41" class="fill" d="M41.986,115.609c0.6-0.036,0.917-0.055,1.398-0.084
	c-0.135,0.467-0.23,0.806-0.422,1.477C42.561,116.43,42.338,116.112,41.986,115.609z"/>
</svg>
