<svg version="1.1" id="svg" xmlns="http://www.w3.org/2000/svg" xmlns:xlink="http://www.w3.org/1999/xlink" x="0px" y="0px"
	 width="200px" height="200px" viewBox="0 0 200 200" enable-background="new 0 0 200 200" xml:space="preserve">
<g>
	<path class="stroke" fill="#672a19"  d="M156.312,127.055c-0.171-2.604-0.512-5.196-0.77-7.793c-0.115-1.164-0.131-2.345-0.337-3.493
		c-0.524-2.916-1.083-5.828-1.718-8.722c-0.525-2.399-1.047-4.813-1.807-7.143c-1.15-3.519-2.493-6.976-4.141-10.302
		c-0.74-1.496-1.503-2.982-2.303-4.447c-0.54-0.989-1.119-1.962-1.753-2.894c-1.762-2.598-3.94-4.812-6.259-6.925
		c-3.871-3.528-7.755-7.017-12.323-9.647c-2.262-1.303-4.502-2.643-6.777-3.923c-0.693-0.391-1.469-0.635-2.14-0.917
		c-0.013-0.563-0.021-0.952-0.028-1.332c-0.146-0.235-0.287-0.462-0.4-0.646c0.046-1.387,0.09-2.706,0.136-4.033
		c-1.336-0.817-2.589-1.583-3.726-2.278c-0.054-2.456-0.104-4.753-0.154-7.025c0.717-0.787,1.384-1.519,2.189-2.403
		c-0.679-0.309-1.151-0.521-1.696-0.77c0.127-1.329,0.258-2.665,0.41-4.239c-0.673,0.263-1.105,0.432-1.604,0.626
		c-0.834-2.443-2.286-4.45-3.895-6.316c1.672-2.067,1.685-2.904,0.113-4.515c-0.269-0.066-0.568-0.186-0.874-0.206
		c-0.464-0.029-0.932,0.011-1.487,0.023c-0.905,0.469-1.884,1.024-2.183,2.179c-0.313,1.214,0.689,1.855,1.295,2.487
		c-1.529,2.42-3.002,4.748-4.519,7.149c-0.281-0.197-0.593-0.81-1.304-0.17c0.022,1.083,0.051,2.3,0.076,3.495
		c-0.847,0.383-1.838,0.063-2.332,1.005c0.365,1.081,1.596,1.288,2.276,2.153c-0.134,1.93-0.269,3.898-0.396,5.732
		c-1.939,1.311-3.977,2.113-5.394,3.729c-0.058,1.292-0.112,2.497-0.168,3.714c-0.263,0.135-0.492,0.253-0.719,0.369
		c-0.027,0.508-0.053,0.968-0.079,1.451c-0.637,0.261-1.292,0.433-1.845,0.772c-2.523,1.555-5.105,3.034-7.497,4.775
		c-2.296,1.671-4.4,3.61-6.554,5.472c-1.444,1.25-2.9,2.502-4.225,3.874c-1.676,1.735-3.224,3.597-4.832,5.397
		c-0.416,0.466-0.844,0.922-1.287,1.361c-1.36,1.348-2.681,2.724-3.676,4.381c-0.882,1.472-1.776,2.937-2.712,4.375
		c-2.126,3.27-4.018,6.672-5.908,10.083c-2.34,4.22-3.616,8.784-4.726,13.401c-0.892,3.707-1.73,7.438-1.812,11.292
		c-0.057,2.689-0.257,5.374-0.388,8.061c-0.049,1.013-0.088,2.027-0.127,3.041c-0.061,1.597-0.135,3.194-0.166,4.792
		c-0.009,0.484,0.112,0.97,0.169,1.417c3.03,0.345,3.504,0.789,4.845,3.035c0.595,1.002,1.291,1.947,1.965,2.9
		c0.696,0.986,1.545,1.889,2.093,2.949c0.343,0.664,0.832,1.232,1.118,1.929c0.303,0.736,0.899,1.175,1.705,1.25
		c1.2,0.112,2.417,0.279,3.376-0.403c1.977,0.306,3.815,0.649,5.67,0.862c2.632,0.301,5.276,0.473,7.911,0.758
		c2.442,0.264,4.874,0.633,7.317,0.898c1.66,0.18,3.339,0.216,5.001,0.396c2.404,0.261,4.803,0.581,7.201,0.902
		c0.605,0.081,1.199,0.261,1.802,0.397c0.215,0.683,0.4,1.269,0.605,1.917c2.309,0.741,4.61,1.397,6.388-0.891
		c5.99-0.714,11.894-0.854,17.706-1.89c5.832-1.039,11.683-1.979,17.252-3.776c0.182,0.078,0.267,0.093,0.323,0.141
		c1.9,1.601,5.04,0.492,5.49-2.188c0.076-0.461,0.193-0.914,0.293-1.378c2.498-2.968,6.027-4.87,8.268-8.14
		c0.718-0.174,1.438-0.342,2.152-0.526c1.395-0.358,2.017-1.222,1.965-2.634c-0.04-1.13-0.151-2.274-0.029-3.39
		C156.707,133.436,156.521,130.243,156.312,127.055z"/>
	<path class="stroke" fill="#672a19"  d="M156.147,143.686c0.069-0.001,0.14-0.002,0.209-0.003c0.02-0.154,0.039-0.308,0.059-0.462
		c-0.102-0.008-0.203-0.016-0.305-0.024C156.122,143.36,156.135,143.523,156.147,143.686z"/>
</g>
<path fill-rule="evenodd" clip-rule="evenodd" fill="#ffc524" class="fill" d="M104.107,63.161c1.744,0.944,3.074,2.002,4.314,3.184
	c3.423,3.262,6.083,7.11,8.489,11.144c0.979,1.641,1.859,3.34,2.788,5.012c0.15,0.272,0.296,0.554,0.48,0.803
	c2.792,3.779,4.661,8.002,6.107,12.449c1.58,4.859,3.26,9.686,4.86,14.538c1.113,3.381,1.901,6.844,2.306,10.382
	c0.47,4.108,0.908,8.22,1.292,12.336c0.14,1.512,0.084,3.042,0.119,4.67c-0.561,0.546-1.15,1.088-1.703,1.664
	c-2.739,2.855-6.222,4.155-9.996,4.957c-3.368,0.716-6.745,1.253-10.186,1.426c-1.165,0.059-2.316,0.326-3.479,0.447
	c-1.554,0.163-3.114,0.244-4.664,0.423c-0.96,0.11-1.903,0.338-2.975,0.534c-0.037-0.556-0.122-1.204-0.117-1.851
	c0.01-1.679,0.089-3.357,0.084-5.036c-0.002-1.208-0.147-2.417-0.138-3.625c0.028-3.434,0.143-6.867,0.147-10.3
	c0.005-2.573-0.128-5.146-0.16-7.719c-0.026-2.107,0.028-4.214,0.005-6.322c-0.021-1.833-0.135-3.665-0.144-5.498
	c-0.012-1.909,0.03-3.818,0.092-5.727c0.05-1.595,0.164-3.189,0.249-4.783c0.13-2.453,0.271-4.906,0.383-7.361
	c0.162-3.584,0.266-7.171,0.467-10.753c0.137-2.448,0.409-4.89,0.597-7.335c0.123-1.594,0.176-3.193,0.318-4.785
	C103.725,65.151,103.923,64.278,104.107,63.161z"/>
<path fill-rule="evenodd" clip-rule="evenodd" fill="#ffc524" class="fill" d="M110.524,62.494c0.312,0.077,0.641,0.114,0.934,0.238
	c1.686,0.713,3.375,1.418,5.036,2.187c0.63,0.292,1.198,0.724,1.77,1.128c1.461,1.037,2.832,2.227,4.377,3.116
	c3.957,2.279,7.139,5.432,10.075,8.83c2.113,2.445,4.039,5.061,5.939,7.679c0.91,1.254,1.641,2.656,2.332,4.049
	c1.754,3.538,2.884,7.324,4.281,11.003c1.263,3.324,2.416,6.676,3.089,10.17c0.331,1.72,0.499,3.472,0.732,5.21
	c0.467,3.479,0.95,6.956,1.375,10.439c0.135,1.081,0.157,2.183,0.127,3.273c-0.012,0.43-0.208,0.936-0.487,1.263
	c-1.039,1.207-2.122,2.38-3.238,3.515c-0.956,0.974-1.974,1.887-2.981,2.809c-0.397,0.363-0.84,0.677-1.458,1.171
	c-0.075-0.596-0.146-0.993-0.17-1.392c-0.264-4.285-0.43-8.578-0.804-12.854c-0.379-4.351-0.781-8.713-1.791-12.975
	c-1.222-5.162-2.48-10.331-4.68-15.182c-1.949-4.295-4.035-8.529-6.151-12.744c-0.661-1.314-1.568-2.518-2.456-3.703
	c-2.219-2.963-4.404-5.959-6.778-8.797c-1.29-1.543-2.908-2.819-4.423-4.166c-1.539-1.367-3.13-2.672-4.697-4.004
	C110.492,62.669,110.509,62.582,110.524,62.494z"/>
<path fill-rule="evenodd" clip-rule="evenodd" fill="#ffc524" class="fill" d="M72.897,97.679c0.524-2.047,1.536-3.63,2.452-5.252
	c2.35-4.157,5.334-7.868,8.242-11.631c1.167-1.512,2.283-3.063,3.484-4.548c3.177-3.93,6.834-7.361,10.906-10.353
	c0.186-0.138,0.389-0.255,0.586-0.376c0.024-0.014,0.075,0.016,0.218,0.052c0.005,0.228,0.044,0.489,0.011,0.741
	c-0.267,2.004-0.546,4.006-0.824,6.008c-0.263,1.886-0.476,3.78-0.807,5.653c-0.544,3.065-1.006,6.16-1.799,9.163
	c-0.793,3-1.878,5.932-2.979,8.839c-0.615,1.625-1.725,2.97-3.323,3.796c-1.602,0.83-3.337,0.88-5.014,0.448
	c-3.063-0.789-6.172-1.289-9.283-1.808C74.142,98.308,73.559,97.946,72.897,97.679z"/>
<path fill-rule="evenodd" clip-rule="evenodd" fill="#ffc524" class="fill" d="M100.743,147.544c-0.746,0.21-1.403,0.396-2.252,0.635
	c-0.134-1.304-0.315-2.444-0.352-3.588c-0.05-1.555,0.02-3.113,0.024-4.669c0.002-0.818-0.022-1.638-0.038-2.457
	c-0.077-3.86-0.175-7.72-0.224-11.581c-0.04-3.153-0.004-6.308-0.039-9.461c-0.042-3.823-0.16-7.645-0.174-11.468
	c-0.011-2.729,0.085-5.459,0.154-8.189c0.041-1.636,0.064-3.277,0.205-4.906c0.185-2.092,0.487-4.173,0.726-6.262
	c0.096-0.85,0.14-1.706,0.237-2.556c0.294-2.557,0.604-5.111,0.904-7.667c0.325-2.784,0.624-5.572,0.979-8.353
	c0.128-0.996,0.387-1.976,0.622-3.15c0.526,0.243,0.945,0.437,1.372,0.634c-0.127,1.166-0.277,2.208-0.347,3.254
	c-0.117,1.781-0.158,3.566-0.274,5.347c-0.197,2.991-0.468,5.978-0.638,8.97c-0.166,2.915-0.217,5.835-0.365,8.751
	c-0.187,3.728-0.495,7.451-0.615,11.18c-0.095,3.035,0,6.076,0.031,9.114c0.028,2.575,0.088,5.148,0.127,7.723
	c0.029,1.833,0.087,3.666,0.062,5.499c-0.042,3.196-0.162,6.39-0.198,9.584c-0.019,1.634,0.108,3.269,0.108,4.903
	c0.002,2.223-0.057,4.446-0.08,6.669C100.695,146.122,100.726,146.743,100.743,147.544z"/>
<path fill-rule="evenodd" clip-rule="evenodd" fill="#ffc524" class="fill" d="M60.635,140.409c-0.815-0.07-1.602-0.139-2.475-0.214
	c0.06-0.638,0.116-1.131,0.152-1.627c0.11-1.475,0.183-2.954,0.329-4.427c0.107-1.084,0.285-2.163,0.472-3.238
	c0.492-2.842,0.936-5.695,1.535-8.515c0.483-2.284,1.11-4.542,1.77-6.783c0.76-2.579,1.526-5.163,2.47-7.678
	c1.092-2.914,2.22-5.821,3.766-8.546c1.501-2.644,2.909-5.34,4.38-8.001c1.245-2.251,2.416-4.552,3.812-6.707
	c1.331-2.055,2.886-3.967,4.385-5.91c2.823-3.659,6.084-6.915,9.516-9.99c1.823-1.635,3.81-3.091,5.734-4.613
	c0.615-0.487,1.258-0.544,1.959,0.063c-0.877,0.735-1.722,1.409-2.527,2.123c-2.131,1.883-4.37,3.666-6.334,5.712
	c-1.989,2.075-3.731,4.392-5.523,6.648c-1.528,1.922-3.013,3.882-4.446,5.875c-1.457,2.022-2.939,4.04-4.211,6.178
	c-3.658,6.148-6.565,12.659-8.942,19.402c-1.467,4.162-2.567,8.429-3.412,12.761c-0.36,1.833-0.76,3.661-1.024,5.507
	c-0.354,2.464-0.594,4.943-0.878,7.417C60.972,137.311,60.816,138.777,60.635,140.409z"/>
<path fill-rule="evenodd" clip-rule="evenodd" fill="#ffc524" class="fill" d="M108.017,63.826c0.576-0.255,0.885-0.393,1.322-0.587
	c1.076,0.82,2.19,1.603,3.228,2.477c1.521,1.282,3.024,2.592,4.465,3.963c1.07,1.02,2.093,2.106,3.032,3.248
	c4.859,5.902,8.943,12.272,11.984,19.325c1.59,3.691,3.312,7.32,4.439,11.188c1.16,3.971,2.294,7.959,2.857,12.06
	c0.553,4.015,0.92,8.059,1.257,12.099c0.265,3.188,0.359,6.389,0.527,9.584c0.019,0.35,0.018,0.7-0.124,0.958
	c-0.267,0.418-0.533,0.837-0.924,1.453c-0.18-0.525-0.289-0.723-0.312-0.93c-0.56-5.196-1.075-10.396-1.672-15.588
	c-0.643-5.583-1.534-11.126-3.124-16.531c-2.031-6.902-4.488-13.631-8.173-19.852c-2.104-3.554-4.148-7.148-6.373-10.626
	c-1.171-1.831-2.649-3.467-4.025-5.162c-1.538-1.895-3.518-3.303-5.425-4.785C110.062,65.41,109.146,64.701,108.017,63.826z"/>
<path fill-rule="evenodd" clip-rule="evenodd" fill="#ffc524" class="fill" d="M154.228,128.255c-0.335,0.246-0.67,0.492-1.18,0.865
	c-0.191-1.426-0.331-2.676-0.53-3.917c-0.827-5.195-1.651-10.392-2.521-15.581c-0.504-3.011-1.502-5.887-2.539-8.748
	c-0.903-2.489-1.784-4.986-2.703-7.469c-1.37-3.705-3.064-7.232-5.374-10.471c-1.573-2.207-3.438-4.119-5.333-6.026
	c-1.428-1.436-2.734-2.994-4.205-4.38c-1.099-1.037-2.357-1.908-3.577-2.812c-0.997-0.74-2.024-1.446-3.071-2.116
	c-0.554-0.354-1.181-0.598-1.771-0.896c-0.557-0.282-1.131-0.533-1.655-0.863c-1.241-0.783-2.46-1.605-3.738-2.444
	c1.112,0.195,2.143,0.561,3.111,1.083c3.605,1.944,7.18,3.951,10.49,6.371c1.727,1.263,3.374,2.665,4.906,4.159
	c3.908,3.81,7.303,8.054,9.766,12.937c1.805,3.579,3.628,7.173,4.621,11.105c1.127,4.461,2.333,8.901,3.436,13.368
	c0.314,1.281,0.402,2.62,0.57,3.936c0.426,3.327,0.847,6.655,1.247,9.985C154.25,126.954,154.213,127.58,154.228,128.255z"/>
<path fill-rule="evenodd" clip-rule="evenodd" fill="#ffc524" class="fill" d="M103.112,158.832c-0.062-2.795-0.12-5.478-0.183-8.278
	c2.878-0.647,5.576,0.098,8.295,0.579c-2.201,0.831-4.462,0.93-6.87,0.655c0.028,1.251,0.053,2.356,0.079,3.617
	c0.254,0.124,0.626,0.307,0.863,0.422c1.896-0.218,3.643-0.37,5.374-0.628c2.658-0.396,5.301-0.896,7.959-1.295
	c1.888-0.284,3.804-0.401,5.685-0.728c2.263-0.393,4.498-0.929,6.745-1.407c0.224-0.048,0.443-0.117,0.898-0.239
	c-0.36,1.186-0.521,2.262-1.164,3.42c-1.407,0.304-2.911,0.695-4.437,0.946c-3.227,0.529-6.464,0.992-9.699,1.468
	c-1.73,0.255-3.464,0.498-5.201,0.71c-2.356,0.288-4.716,0.55-7.076,0.801C103.974,158.918,103.557,158.85,103.112,158.832z"/>
<path fill-rule="evenodd" clip-rule="evenodd" fill="#ffc524" class="fill" d="M49.152,130.229c-0.645-0.405-0.788-0.843-0.727-1.399
	c0.204-1.858,0.374-3.722,0.591-5.579c0.187-1.585,0.35-3.181,0.655-4.745c0.351-1.796,0.841-3.565,1.286-5.342
	c0.272-1.092,0.591-2.172,0.864-3.264c0.711-2.828,2.129-5.352,3.379-7.948c1.611-3.34,3.464-6.545,5.533-9.615
	c1.482-2.196,3.108-4.295,4.669-6.438c2.905-3.986,6.371-7.479,9.729-11.065c1.035-1.106,2.088-2.214,3.248-3.183
	c1.523-1.273,3.09-2.526,4.769-3.577c2.01-1.259,4.151-2.309,6.256-3.414c0.353-0.186,0.795-0.627,1.29,0.06
	c-0.583,0.346-1.108,0.763-1.705,0.997c-2.247,0.879-4.153,2.275-5.999,3.784c-0.603,0.493-1.256,0.922-1.889,1.379
	c-4.896,3.54-9.177,7.7-12.959,12.42c-1.66,2.07-3.193,4.218-4.713,6.379c-0.803,1.142-1.403,2.426-2.124,3.629
	c-1.32,2.209-2.714,4.376-3.979,6.617c-0.858,1.521-1.646,3.1-2.287,4.722c-0.843,2.134-1.548,4.325-2.248,6.513
	c-1.316,4.12-2.506,8.267-2.785,12.624c-0.114,1.785-0.391,3.561-0.605,5.338C49.359,129.458,49.253,129.788,49.152,130.229z"/>
<path fill-rule="evenodd" clip-rule="evenodd" fill="#ffc524" class="fill" d="M105.356,154.868c-0.018-0.751-0.031-1.396-0.048-2.153
	c0.954-0.021,1.845,0.022,2.719-0.074c1.468-0.161,2.928-0.404,4.389-0.624c4.392-0.659,8.785-1.302,13.173-1.995
	c1.65-0.262,3.285-0.638,4.925-0.971c1.553-0.314,3.104-0.64,4.77-0.983c0.044,0.535,0.076,0.943,0.115,1.45
	c-0.368,0.181-0.688,0.404-1.044,0.5c-1.763,0.48-3.519,1.012-5.311,1.366c-2.597,0.515-5.22,0.887-7.829,1.333
	c-2.419,0.414-4.825,0.908-7.253,1.252c-2.662,0.377-5.341,0.624-8.013,0.923C105.801,154.909,105.648,154.881,105.356,154.868z"/>
<path fill-rule="evenodd" clip-rule="evenodd" fill="#ffc524" class="fill" d="M110.095,52.648c-0.678-0.108-1.268-0.203-1.894-0.303
	c-0.03-1.382-0.061-2.771-0.091-4.128c-1.552-0.523-2.431,0.073-2.488,1.597c-0.035,0.936-0.082,1.871-0.128,2.909
	c-0.805,0.018-1.597,0.035-2.504,0.055c0.067-1.507,0.138-3.045,0.207-4.57c-1.703-0.416-2.547,0.142-2.709,1.748
	c-0.078,0.775-0.143,1.551-0.231,2.325c-0.042,0.362,0.03,0.804-0.596,0.988c-0.34-1.208,0.115-2.379,0.055-3.542
	c-0.061-1.164-0.06-2.332-0.084-3.438c1.341-0.516,8.87-0.797,10.313-0.407C109.995,48.092,110.044,50.334,110.095,52.648z"/>
<path fill-rule="evenodd" clip-rule="evenodd" fill="#ffc524" class="fill" d="M150.945,139.955c-0.028-1.29-0.057-2.565-0.083-3.805
	c-0.484-0.333-0.824-0.127-1.062,0.203c-1.157,1.605-2.745,2.732-4.264,3.946c-0.728,0.581-1.347,1.295-2.029,1.934
	c-0.192,0.179-0.434,0.305-0.709,0.495c-0.493-0.815-0.156-1.631-0.249-2.416c2.032-1.31,3.734-2.929,5.313-4.72
	c1.022-1.161,2.272-2.125,3.428-3.17c0.075-0.068,0.209-0.075,0.36-0.125c0.063,2.854,0.126,5.672,0.19,8.582
	c-3.066,2.603-5.531,5.907-8.854,8.708c-0.127-2.135-0.241-4.041-0.355-5.946c0.067-0.032,0.135-0.063,0.202-0.095
	c0.109,0.187,0.291,0.364,0.312,0.561c0.045,0.384-0.005,0.778-0.004,1.169c0.001,0.471,0.137,0.849,0.836,0.932
	C146.215,144.199,148.524,142.127,150.945,139.955z"/>
<path fill-rule="evenodd" clip-rule="evenodd" fill="#ffc524" class="fill" d="M63.739,149.16c-0.038-0.434-0.083-0.779-0.086-1.125
	c-0.003-0.186,0.073-0.372,0.144-0.695c4.856,1.247,9.727,2.186,14.671,2.804c4.946,0.619,9.912,0.958,14.927,1.292
	c0.067,0.364,0.111,0.604,0.181,0.983C83.563,151.659,73.677,150.792,63.739,149.16z"/>
<path fill-rule="evenodd" clip-rule="evenodd" fill="#ffc524" class="fill" d="M114.472,60.036c-0.065,0.591-0.109,0.969-0.153,1.373
	c-6.854,0.499-13.682,0.274-20.448,1.133c-0.171,0.022-0.361-0.104-0.607-0.182c-0.038-0.5-0.076-0.991-0.117-1.51
	C100.266,60.578,107.29,60.31,114.472,60.036z"/>
<path fill-rule="evenodd" clip-rule="evenodd" fill="#ffc524" class="fill" d="M58.823,154.083c-0.763-0.203-1.414-0.376-2.167-0.576
	c0.003-4.294,0.344-8.456,0.444-12.793c0.853,0.154,1.48,0.268,2.249,0.407C59.185,145.4,59.474,149.615,58.823,154.083z"/>
<path fill-rule="evenodd" clip-rule="evenodd" fill="#ffc524" class="fill" d="M109.222,39.62c0.467,0.736,0.982,1.376,2.128,0.747
	c-0.053,0.777-0.096,1.408-0.15,2.179c-3.912,0.037-7.741-0.479-11.669,0.294c-0.079-0.737-0.139-1.292-0.216-1.998
	c0.584,0.101,1.053,0.181,1.574,0.27c0.304-0.262,0.643-0.516,0.935-0.815c0.791-0.813,1.723-0.848,2.86-0.149
	c0.318,0.197,0.649,0.378,1.046,0.607C106.658,39.668,107.758,39.229,109.222,39.62z"/>
<path fill-rule="evenodd" clip-rule="evenodd" fill="#ffc524" class="fill" d="M99.591,160.688c-0.102-4.116,0.023-7.977,0.116-11.822
	c0.391-0.169,0.634-0.282,0.88-0.376c0.214-0.08,0.436-0.138,0.771-0.241c0.31,3.847,0.27,7.621,0.06,11.542
	C100.918,160.037,100.352,160.315,99.591,160.688z"/>
<path fill-rule="evenodd" clip-rule="evenodd" fill="#ffc524" class="fill" d="M153.018,130.003c0.496-0.087,0.867-0.153,1.39-0.245
	c0.223,3.365,0.256,6.654,0.124,10.012c-0.409,0.409-0.838,0.837-1.268,1.265c-0.092-0.032-0.183-0.063-0.272-0.096
	C152.612,137.323,152.513,133.705,153.018,130.003z"/>
<path fill-rule="evenodd" clip-rule="evenodd" fill="#ffc524" class="fill" d="M140.387,140.199c0.236-0.122,0.539-0.278,0.926-0.478
	c0.068,0.263,0.146,0.434,0.157,0.607c0.121,2.023,0.267,4.044,0.336,6.069c0.065,1.947,0.061,3.897,0.062,5.845
	c0,0.752-0.169,0.913-1.209,1.286c-0.061-0.434-0.163-0.841-0.165-1.249c-0.014-2.455,0.008-4.91-0.007-7.365
	C140.478,143.401,140.424,141.887,140.387,140.199z"/>
<path fill-rule="evenodd" clip-rule="evenodd" fill="#ffc524" class="fill" d="M48.253,130.842c0.369,0.175,0.635,0.301,0.966,0.458
	c-0.112,3.282-0.223,6.53-0.344,9.778c-0.009,0.223-0.11,0.441-0.197,0.772c-0.368,0.027-0.733,0.055-1.284,0.097
	c-0.014-0.589-0.065-1.079-0.028-1.562c0.236-3.022,0.491-6.043,0.745-9.063C48.118,131.211,48.173,131.106,48.253,130.842z"/>
<path fill-rule="evenodd" clip-rule="evenodd" fill="#ffc524" class="fill" d="M103.355,53.627c0.529-0.012,0.903-0.02,1.435-0.032
	c0.086,1.981,0.104,3.895,0.008,5.909c-0.71,0.016-1.309,0.029-2.038,0.045C102.544,57.562,103.006,55.657,103.355,53.627z"/>
<path fill-rule="evenodd" clip-rule="evenodd" fill="#ffc524" class="fill" d="M98.411,44.2c4.41-1.276,8.897-0.734,13.383-0.524
	c-2.211,0.454-4.448,0.707-6.697,0.718C102.869,44.405,100.64,44.271,98.411,44.2z"/>
<path fill-rule="evenodd" clip-rule="evenodd" fill="#ffc524" class="fill" d="M143.94,143.144c1.973-1.727,3.914-3.427,5.992-5.248
	c0.012,0.559,0.021,0.983,0.032,1.502c-1.804,1.668-3.651,3.377-5.683,5.255C144.146,144.055,144.054,143.64,143.94,143.144z"/>
<path fill-rule="evenodd" clip-rule="evenodd" fill="#ffc524" class="fill" d="M97.754,53.811c-0.078,1.038-0.774,1.263-1.226,1.681
	c-0.48,0.447-0.974,0.881-1.548,1.398c-0.143,0.905-0.299,1.891-0.467,2.95c-0.185-0.016-0.356-0.032-0.646-0.058
	c0.112-1.282,0.218-2.504,0.332-3.832C95.327,55.271,96.456,54.593,97.754,53.811z"/>
<path fill-rule="evenodd" clip-rule="evenodd" fill="#ffc524" class="fill" d="M98.545,59.447c-0.209,0.005-0.43,0.01-0.643,0.015
	c-0.705-2.317-0.099-4.667,1.536-5.448C99.139,55.84,98.854,57.568,98.545,59.447z"/>
<path fill-rule="evenodd" clip-rule="evenodd" fill="#ffc524" class="fill" d="M103.89,29.845c0.702-1.152,1.695-1.418,2.931-1.268
	c0.169,1.021-0.135,1.794-0.817,2.417C104.69,31.229,104.461,31.107,103.89,29.845z"/>
<path fill-rule="evenodd" clip-rule="evenodd" fill="#ffc524" class="fill" d="M109.871,38.783c-0.641-0.099-1.175-0.181-1.726-0.266
	c-0.329-1.443-0.653-2.869-0.98-4.315C108.188,34.739,109.602,37.113,109.871,38.783z"/>
<path fill-rule="evenodd" clip-rule="evenodd" fill="#ffc524" class="fill" d="M106.171,34.228c0.513,1.366,0.974,2.744,0.955,4.339
	c-0.428,0.21-0.862,0.425-1.488,0.733c0.106-1.801,0.203-3.406,0.298-5.01C106.014,34.27,106.093,34.249,106.171,34.228z"/>
<path fill-rule="evenodd" clip-rule="evenodd" fill="#ffc524" class="fill" d="M109.548,53.627c0.448-0.09,0.677,0.208,0.738,0.617
	c0.087,0.572,0.161,1.158,0.134,1.733c-0.053,1.061-0.011,2.146-0.478,3.45c-0.232-0.42-0.418-0.608-0.434-0.81
	c-0.039-0.54-0.01-1.086-0.004-1.63C109.518,55.884,109.534,54.779,109.548,53.627z"/>
<path fill-rule="evenodd" clip-rule="evenodd" fill="#ffc524" class="fill" d="M102.894,38.703c-0.362,0.095-0.62,0.163-1.072,0.281
	c0.305-1.649,1.202-2.812,1.999-4.025c0.091,0.035,0.182,0.07,0.272,0.105C103.699,36.257,103.306,37.45,102.894,38.703z"/>
<path fill-rule="evenodd" clip-rule="evenodd" fill="#ffc524" class="fill" d="M111.45,53.979c0.773,0.532,1.548,1.063,2.329,1.599
	c-0.016,1.221-0.031,2.347-0.216,3.458c-0.119-0.002-0.238-0.003-0.357-0.005c-0.016-0.694-0.108-1.398-0.029-2.082
	c0.144-1.227-0.577-1.853-1.478-2.401c-0.145-0.089-0.298-0.168-0.447-0.251C111.318,54.19,111.385,54.084,111.45,53.979z"/>
<path fill-rule="evenodd" clip-rule="evenodd" fill="#ffc524" class="fill" d="M105.017,39.087c-0.544-0.163-0.83-0.249-1.286-0.385
	c0.351-1.032,0.679-2,1.006-2.969c0.097,0.015,0.193,0.029,0.289,0.043C105.271,36.812,104.86,37.846,105.017,39.087z"/>
<path fill-rule="evenodd" clip-rule="evenodd" fill="#ffc524" class="fill" d="M96.739,59.716c-0.323,0.007-0.5,0.011-0.796,0.018
	c0.038-1.021-0.373-2.06,0.654-2.994C97.077,57.805,96.712,58.718,96.739,59.716z"/>
<path fill-rule="evenodd" clip-rule="evenodd" fill="#ffc524" class="fill" d="M111.588,59.257c-0.553-0.472-0.562-1.221-0.129-3.324
	C112.031,56.385,112.083,57.462,111.588,59.257z"/>
</svg>
