<svg version="1.1" id="svg" xmlns="http://www.w3.org/2000/svg" xmlns:xlink="http://www.w3.org/1999/xlink" x="0px" y="0px"
	 width="200px" height="200px" viewBox="0 0 200 200" enable-background="new 0 0 200 200" xml:space="preserve">
<path class="stroke" fill="#0e0240"  d="M114.141,94.391c-1.234-3.444-3.033-6.593-5.074-9.611c-0.742-1.098-1.517-2.177-2.232-3.29
	c-1.499-2.331-2.674-4.797-3.106-7.571c-0.286-1.843-0.616-3.679-0.944-5.515c-0.064-0.357-0.205-0.701-0.294-0.996
	c-1.321-0.413-2.118,0.034-2.298,1.248c-0.167,1.142-0.25,2.296-0.43,3.435c-0.45,2.817-0.991,5.61-2.219,8.224
	c-1.101,2.341-2.485,4.508-3.9,6.663c-2.014,3.063-4.111,6.083-5.42,9.549c-0.119,0.316-0.293,0.62-0.366,0.946
	c-0.591,2.625-0.619,5.222,0.134,7.848c0.983,3.42,3.047,5.854,6.235,7.369c2.022,0.96,4.129,1.482,6.388,1.479
	c3.239-0.004,6.271-0.741,8.961-2.533c1.049-0.698,2.062-1.644,2.708-2.71c1.478-2.448,2.493-5.087,2.685-8.024
	C115.115,98.653,114.895,96.498,114.141,94.391z"/>
</svg>
