<svg version="1.1" id="svg" xmlns="http://www.w3.org/2000/svg" xmlns:xlink="http://www.w3.org/1999/xlink" x="0px" y="0px"
	 width="200.001px" height="200px" viewBox="0 0 200.001 200" enable-background="new 0 0 200.001 200" xml:space="preserve">
<path class="stroke" fill="#6e3411"  fill-rule="evenodd" clip-rule="evenodd" d="M114.193,98.189c-0.284-0.726-0.477-1.22-0.631-1.607
	c0.374-0.955,0.999-0.896,2.484,0.139c0.341-0.241,0.713-0.506,1.132-0.805c-0.089-0.491-0.168-0.928-0.271-1.511
	c1.07-0.279,2.068-0.542,3.107-0.815c0.079-0.665,0.138-1.175,0.214-1.819c0.702-0.151,1.352-0.294,1.961-0.425
	c2.343-1.705,2.898-4.464,4.045-6.83c2.537-5.236,4.71-10.661,8.543-15.162c0.22-0.26,0.41-0.553,0.566-0.854
	c3.508-6.778,5.678-13.948,5.877-21.6c0.051-1.934-0.492-3.931-1.033-5.82c-0.716-2.498-1.595-4.985-3.534-6.867
	c-0.879-0.856-1.833-1.646-2.82-2.376c-2.864-2.118-5.732-4.301-9.184-5.339c-2.079-0.625-4.284-0.96-6.454-1.117
	c-4.463-0.325-8.893,0.081-13.218,1.288c-2.905,0.812-5.85,1.617-8.244,3.558c-1.533,1.242-2.983,2.626-4.271,4.118
	c-0.63,0.729-0.832,1.839-1.175,2.794c-0.478,1.327-0.497,2.879-1.906,3.736c-1.391,0.433-2.381-0.139-3.154-1.176
	c-0.481-1.742,0.095-3.122,1.042-4.485c1.978-2.847,5.016-4.411,7.654-6.445c6.628-5.106,14.403-6.767,22.538-7.062
	c1.802-0.065,3.649,0.451,5.443,0.85c4.321,0.958,8.218,2.986,12.003,5.175c2.205,1.276,3.964,3.211,5.277,5.387
	c1.192,1.98,2.22,4.105,2.982,6.284c0.527,1.508,0.771,3.24,0.641,4.832c-0.576,6.99-1.844,13.862-4.721,20.312
	c-1.67,3.742-3.618,7.359-5.437,11.037c-1.577,3.191-3.14,6.391-4.725,9.58c-1.493,3.005-2.864,6.11-5.259,8.533
	c-1.922,1.945-4.013,3.722-6.049,5.551c-1.375,1.233-2.955,2.287-4.131,3.683c-1.074,1.277-1.927,2.832-2.523,4.398
	c-1.018,2.676-2.419,4.974-4.485,7.012c-2.2,2.171-4.842,3.247-7.827,4.165c-0.136,0.38-0.308,0.856-0.537,1.49
	c2.126,0.391,3.646,1.258,4.311,3.387c0.608,1.955,0.496,3.745-0.516,5.571c2.144,1.065,3.352,2.715,3.768,4.864
	c0.755,0.693,1.491,1.311,2.154,1.994c2.742,2.829,3.183,6.346,2.582,9.97c-0.99,5.968-4.116,10.358-10.018,12.447
	c-0.962,0.341-1.907,0.735-2.995,1.159c-0.031,0.858-0.063,1.722-0.102,2.773c2.454,0.26,4.814,0.574,5.994,3.021
	c1.025,2.122,1.109,4.341,0.619,6.732c0.613,0.222,1.229,0.445,1.802,0.652c1.326,2.02,1.336,3.233,0.066,4.438
	c-1.148,1.095-2.197,0.953-4.7-0.676c-0.482,0.25-1.013,0.524-1.35,0.699c-0.11,1.243-0.202,2.297-0.28,3.201
	c-3.637,2.196-5.498,1.279-5.842-2.83c-0.623-0.203-1.32-0.43-1.965-0.639c-2.439,2.01-4.832,2.211-6.01,0.566
	c-1.078-1.508-0.285-3.195,2.467-5.073c-1.224-5.092,1.077-8.224,5.955-9.779c-0.041-0.843-0.076-1.57-0.12-2.479
	c-1.212-0.14-2.409-0.298-3.609-0.416c-2.594-0.254-4.919-1.249-7.024-2.704c-3.208-2.213-4.122-5.521-3.972-9.186
	c0.176-4.327,1.768-7.649,5.341-11.448c0.063-3.101,2.779-3.851,5.174-4.867c-0.552-1.029-1.075-1.824-1.426-2.691
	c-1.016-2.514-0.407-4.803,1.797-6.346c1.276-0.894,2.718-1.552,4.189-2.376c0.004-0.464,0.006-0.994,0.012-1.702
	c-4.91-1.511-8.796-4.337-11.285-8.915c-2.1-3.863-2.498-10.989-0.728-14.057c1.911-0.764,3.36-0.121,3.548,1.846
	c0.236,2.444,0.175,4.918,0.222,7.381c0.017,0.891-0.03,1.781-0.04,2.672c-0.039,3.949,2.111,6.341,5.563,7.801
	c0.807,0.342,1.618,0.672,2.568,1.065c0.168-0.559,0.294-0.978,0.453-1.514c-1.613-0.508-3.251-1.071-3.595-2.788
	c-0.242-1.212-0.185-2.637,0.225-3.795c0.861-2.433,4.57-3.462,7.263-2.223c2.454,1.13,2.942,3.665,1.336,7.538
	c1.382-0.26,2.144,1.361,3.728,0.708c-0.748-0.49-1.498-0.981-2.477-1.62c0.537-0.443,0.957-0.791,1.414-1.168
	c0.834,0.459,1.543,0.848,2.41,1.325c0.329-0.333,0.676-0.679,1.07-1.075c-1.142-0.905-2.146-1.702-3.324-2.637
	c0.513-0.442,0.881-0.761,1.344-1.158c0.886,0.622,1.658,1.161,2.6,1.82c0.303-0.504,0.595-0.991,0.973-1.62
	c-1.137-0.991-2.205-1.923-3.424-2.985c0.402-0.398,0.746-0.74,1.129-1.12c0.971,0.643,1.809,1.196,2.764,1.828
	c0.284-0.557,0.521-1.018,0.756-1.479c-0.979-1.076-1.892-2.079-2.921-3.21c0.521-0.403,0.915-0.709,1.433-1.109
	c0.854,0.854,1.62,1.62,2.619,2.619c0.459-0.507,0.805-0.889,1.187-1.31c-0.715-0.915-1.237-1.582-1.789-2.289
	c1.444-1.437,2.146,0.1,3.296,0.594C113.189,99.011,113.727,98.571,114.193,98.189z M98.252,116.552
	c0.959-0.232,1.73-0.419,2.685-0.65c-0.683-0.859-1.137-1.432-1.647-2.075c-0.431,0.23-0.826,0.443-1.327,0.711
	C98.052,115.166,98.135,115.74,98.252,116.552z"/>
<path class="stroke" fill="#6e3411"  fill-rule="evenodd" clip-rule="evenodd" d="M123.946,53.713c2.791-1.112,5.294,0.791,8.091-0.499
	c0.287-0.583,0.775-1.582,1.339-2.731c-2.798-0.577-5.461,0.891-8.073-0.341c0.492-1.128,1.28-0.983,2.004-1.045
	c2.104-0.178,4.207-0.389,6.588-0.612c-0.139-1.015-0.244-1.776-0.368-2.696c-2.751,0.165-5.146,2.118-7.918,1.009
	c2.135-1.636,5.05-1.271,7.316-3.005c-0.365-0.819-0.739-1.663-1.097-2.467c-2.499-0.036-4.279,2.239-6.794,1.623
	c1.423-1.843,4.059-1.707,5.589-3.546c-0.323-0.525-0.632-1.026-0.992-1.61c-1.885,0.947-3.492,2.466-6.176,2.125
	c1.408-1.875,3.611-1.796,4.906-3.408c-0.564-0.408-1.074-0.777-1.576-1.142c-1.247,0.606-2.097,2.028-4.042,1.223
	c0.837-0.743,1.448-1.284,2.171-1.926c-2.034-1.449-4.016-2.416-6.502-1.951c0.316,3.877,1.267,7.307,3.104,10.495
	c0.894,1.549,0.814,1.594,0.232,3.108c-0.292-0.005-0.624,0.01-0.95-0.022c-0.268-0.026-0.528-0.109-0.74-0.156
	c-0.983,0.403-1.664,1.651-3.228,0.722c0.809-0.847,1.526-1.601,2.397-2.516c-0.367-0.492-0.789-1.058-1.29-1.73
	c-1.623,1.156-2.608,2.998-4.89,3.404c0.484-2.097,2.312-2.88,3.187-4.495c-0.311-0.184-0.626-0.371-0.919-0.545
	c-4.451,4.354-4.451,4.354-5.737,4.237c0.345-2.148,2.41-3.055,3.52-4.729c-1.578-0.006-2.922,0.912-5.339,3.566
	c-0.248-0.087-0.541-0.188-1.072-0.374c0.396-0.838,0.732-1.549,1.17-2.479c-0.943,0.414-1.769,0.777-2.596,1.139
	c-0.113-0.124-0.226-0.247-0.339-0.37c0.628-1.123,1.253-2.244,1.966-3.518c-1.824,0.395-3.526,2.005-3.834,3.648
	c-0.336,1.777,0.021,3.431,1.488,4.646c2.245,1.856,4.928,2.678,7.757,2.962c4.181,0.42,5.983,2.05,6.274,6.299
	c0.147,2.173,0.183,4.436-0.26,6.547c-0.881,4.212-2.086,8.358-3.248,12.506c-0.248,0.889-0.721,1.839-1.369,2.469
	c-2.602,2.519-5.146,5.145-8.029,7.308c-2.76,2.068-6.057,2.617-9.578,1.997c-2.95-0.52-5.969-0.652-8.955-0.974
	c-0.738-0.078-1.47-0.226-1.992-0.309c-1.889-1.729-1.664-3.695-0.948-5.495c0.755-1.903,1.946-3.601,3.881-4.642
	c1.015-0.548,1.966-1.248,2.854-1.99c2.156-1.806,2.712-4.182,2.231-6.863c-0.169-0.941-0.421-1.868-0.582-2.812
	c-0.402-2.342,0.753-3.932,3.099-4.074c0.927-0.057,1.902,0.172,2.809,0.433c2.099,0.603,4.17,1.304,5.934,1.864
	c3.116-0.595,1.929-3.369,2.979-4.926c1.998,0.545,4.402,0.013,5.105,3.034c-0.066,0.333-0.182,0.929-0.3,1.544
	c-0.557,0.337-1.09,0.64-1.601,0.974c-2.994,1.965-6.119,2.11-9.394,0.759c-1.921-0.793-3.93-0.977-6.256-0.673
	c0.174,0.844,0.234,1.572,0.476,2.235c1.208,3.32,1.022,6.436-1.155,9.344c-0.612,0.818-1.13,1.724-1.588,2.64
	c-0.453,0.907-0.789,1.882,0.238,2.87c1.756-2.274,1.776-5.303,3.678-7.377c0.148,3.446-0.932,6.512-2.811,9.374
	c0.294,0.334,0.506,0.577,0.797,0.908c0.305-0.254,0.627-0.408,0.786-0.664c1.459-2.341,2.479-4.861,3.151-7.543
	c0.426-1.696,1.025-3.348,1.781-4.968c0.686,2.455,0.18,4.807-0.606,7.058c-0.808,2.311-1.898,4.522-2.976,7.037
	c0.393,0.194,0.943,0.466,1.595,0.787c3.29-4.227,4.175-9.259,6.058-14.002c0.147,0.317,0.403,0.627,0.427,0.954
	c0.188,2.527-0.548,4.876-1.489,7.172c-0.741,1.811-1.522,3.605-2.493,5.898c1.453-0.657,2.468-1.118,3.396-1.537
	c0.529-2.207,0.991-4.25,1.513-6.278c0.509-1.979,0.372-4.148,1.668-5.923c1.14,2.976,0.083,5.859-0.379,8.965
	c0.463-0.276,0.747-0.364,0.911-0.556c3.156-3.659,6.057-7.416,6.478-12.535c0.36-4.364,1.192-8.711-0.175-13.223
	c-1.161-0.986-2.623-1.625-4.211-1.851c-0.965,0.699-1.813,1.383-2.73,1.959c-1.354,0.851-2.869,1.074-4.329,0.448
	c-1.557-0.67-3.24-1.322-4.46-2.431c-1.525-1.391-1.742-3.494-1.598-5.533c0.265-3.723,2.357-6.5,4.833-9.029
	c2.938-3.003,6.931-4.033,10.688-5.47c1.271-0.488,2.623-0.793,3.96-1.075c1.9-0.402,3.794-0.49,5.65,0.329
	c1.751,0.773,3.553,1.425,5.311,2.184c6.681,2.879,10.516,10.876,8.948,18.106c-0.899,4.139-2.179,8.198-3.396,12.26
	c-0.208,0.694-0.851,1.449-1.497,1.776c-1.017,0.518-2.232-0.22-2.413-1.492c-0.186-1.32-0.037-2.688-0.035-4.336
	c-1.619-0.271-3.446-0.575-5.371-0.897c0.32-1.28,1.159-1.199,1.956-1.128c1.421,0.128,2.839,0.29,4.336,0.446
	c0.411-0.753,0.752-1.38,1.198-2.195C128.66,54.868,126.194,55.586,123.946,53.713z"/>
<path class="stroke" fill="#6e3411"  fill-rule="evenodd" clip-rule="evenodd" d="M80.924,77.971c1.5-2.156,2.532-4.234,4.767-5.28
	c0.693,0.703,0.275,1.195-0.094,1.677C83.481,77.137,82.552,77.92,80.924,77.971z"/>
<path class="stroke" fill="#6e3411"  fill-rule="evenodd" clip-rule="evenodd" d="M102.929,98.224c-2.27-0.865-2.075-3.343-3.829-4.783
	c0.791-0.348,1.182-0.519,1.702-0.748C101.686,94.538,103.249,95.956,102.929,98.224z"/>
<path class="stroke" fill="#6e3411"  fill-rule="evenodd" clip-rule="evenodd" d="M101.976,92.239c0.59-0.224,0.942-0.359,1.433-0.547
	c1.071,1.589,2.148,3.071,1.863,5.565C103.197,95.858,103.003,93.891,101.976,92.239z"/>
<path class="stroke" fill="#6e3411"  fill-rule="evenodd" clip-rule="evenodd" d="M108.205,94.394c-1.668-1.058-2.011-2.859-2.937-4.558
	c0.632-0.203,1.03-0.331,1.51-0.485C107.593,91.006,108.863,92.355,108.205,94.394z"/>
<path class="stroke" fill="#6e3411"  fill-rule="evenodd" clip-rule="evenodd" d="M112.001,91.301c-1.3-1.111-2.116-2.398-2.886-3.782
	c0.644-0.729,1.196-0.702,1.81-0.152C112.188,88.496,112.567,89.634,112.001,91.301z"/>
<path class="stroke" fill="#6e3411"  fill-rule="evenodd" clip-rule="evenodd" d="M92.809,54.042c-1.08,2.028-2.514,2.517-4.975,1.854
	C88.315,54.831,88.939,54.592,92.809,54.042z"/>
<path class="stroke" fill="#6e3411"  fill-rule="evenodd" clip-rule="evenodd" d="M89.231,58.225c1.876-1.263,3.688-0.968,5.53-1.456
	C93.777,58.85,92.031,59.325,89.231,58.225z"/>
<path class="stroke" fill="#6e3411"  fill-rule="evenodd" clip-rule="evenodd" d="M113.406,84.488c0.985,1.08,1.824,2.002,2.666,2.923
	c-1.985,0.743-2.777-0.534-3.849-1.798C112.594,85.261,112.923,84.949,113.406,84.488z"/>
<path class="stroke" fill="#6e3411"  fill-rule="evenodd" clip-rule="evenodd" d="M86.441,52.944c1.396-0.884,2.883-1.321,4.562-1.165
	C90.334,53.353,88.4,53.922,86.441,52.944z"/>
<path class="stroke" fill="#6e3411"  fill-rule="evenodd" clip-rule="evenodd" d="M79.867,75.205c0.774-1.682,1.656-2.795,3.438-3.165
	C82.878,73.909,81.615,75.105,79.867,75.205z"/>
<path class="stroke" fill="#6e3411"  fill-rule="evenodd" clip-rule="evenodd" d="M118.398,84.553c-1.076-0.566-2.152-1.135-3.422-1.805
	c0.484-0.5,0.743-0.767,1.034-1.068C117.266,82.197,118.543,82.527,118.398,84.553z"/>
<path class="stroke" fill="#6e3411"  fill-rule="evenodd" clip-rule="evenodd" d="M89.243,49.456c-0.068,0.465-0.112,0.777-0.178,1.232
	c-1.043,0.051-2.019,0.1-3.032,0.148C86.359,49.485,86.396,49.469,89.243,49.456z"/>
<path class="stroke" fill="#6e3411"  fill-rule="evenodd" clip-rule="evenodd" d="M120.81,79.376c-1.698,1.218-1.978,1.164-3.475-0.388
	C118.59,77.708,119.449,79.069,120.81,79.376z"/>
<path class="stroke" fill="#6e3411"  fill-rule="evenodd" clip-rule="evenodd" d="M121.913,75.861c-0.896,0.791-1.685,0.869-2.642,0.176
	C120.134,74.882,120.936,75.102,121.913,75.861z"/>
<path class="stroke" fill="#6e3411"  fill-rule="evenodd" clip-rule="evenodd" d="M121.967,70.813c-0.227,1.135-0.688,1.55-1.841,1.026
	C120.504,70.831,121.075,70.63,121.967,70.813z"/>
<path fill-rule="evenodd" clip-rule="evenodd" fill="#ffd624" class="fill" d="M100.482,151.008c-0.098,3.052-1.881,4.7-4.35,5.456
	c-4.107,1.255-8.008,0.76-11.154-2.476c-1.278-1.314-2.369-2.824-2.232-5.024c1.903,0.726,3.648,1.622,5.5,2.032
	c1.982,0.438,4.065,0.555,6.105,0.553C96.311,151.548,98.271,151.218,100.482,151.008z"/>
<path fill-rule="evenodd" clip-rule="evenodd" fill="#ffd624" class="fill" d="M98.909,164.947c0.098,1.002,0.196,2.01,0.28,2.857
	c-3.411,2.173-3.465,4.112,0.318,5.679c-1.312,2.026-3.782,2.581-6.246,1.405c-2.289-1.093-3.456-3.979-2.562-6.453
	C91.645,165.822,94.16,163.982,98.909,164.947z"/>
<path fill-rule="evenodd" clip-rule="evenodd" fill="#ffd624" class="fill" d="M89.127,138.372c2.502,2.176,3.384,2.18,6.294,0.025
	c1.851,0.761,3.754,0.832,5.392-0.623c3.132,1.103,4.501,3.695,3.506,6.503c-6.599-2.862-13.109-3.971-19.338,0.903
	C84.108,142.762,85.923,139.673,89.127,138.372z"/>
<path fill-rule="evenodd" clip-rule="evenodd" fill="#ffd624" class="fill" d="M92.154,131.85c2.337,0.421,4.695,0.392,6.791-0.857
	c2.85,0.67,3.5,1.259,3.561,3.229c-1.57,0.744-2.475-0.579-3.699-1.276c-0.345,0.175-0.738,0.375-1.194,0.607
	c0.366,0.743,0.68,1.38,1.049,2.131c-1.938,0.648-2.427-0.874-3.218-1.905c-0.438,0.096-0.818,0.176-1.113,0.24
	c-0.449,1.161-0.853,2.202-1.274,3.293c-0.604-0.119-0.946-0.132-1.236-0.262c-0.227-0.1-0.385-0.348-0.606-0.562
	c0.248-0.788,0.48-1.529,0.862-2.743c-1.918,0.673-3.433,1.203-5.111,1.792C87.355,133.655,87.355,133.655,92.154,131.85z"/>
<path fill-rule="evenodd" clip-rule="evenodd" fill="#ffd624" class="fill" d="M96.74,128.789c-1.436,0.286-2.405,0.599-3.387,0.65
	c-2.529,0.133-3.885-1.866-2.94-4.218c1.016-2.529,3.523-3.464,6.408-2.169c-0.824,0.62-1.599,1.103-2.25,1.716
	c-0.795,0.747-0.717,1.703-0.32,2.778C94.874,127.859,95.578,128.21,96.74,128.789z"/>
<path fill-rule="evenodd" clip-rule="evenodd" fill="#ffd624" class="fill" d="M94.328,108.579c1.155-0.652,2.363-0.891,3.659-0.276
	c0.738,0.775,0.972,1.665,0.337,2.571c-0.927,1.324-2.323,1.162-3.649,1.034C93.299,110.487,93.284,110.341,94.328,108.579z"/>
<path fill-rule="evenodd" clip-rule="evenodd" fill="#ffd624" class="fill" d="M87.625,177.063c-0.596-1.859-0.596-1.859,0.869-2.966
	c0.985,0.468,1.406,1.155,0.811,2.438C88.865,176.674,88.312,176.849,87.625,177.063z"/>
<path fill-rule="evenodd" clip-rule="evenodd" fill="#ffd624" class="fill" d="M97.703,179.397c-0.683,0.033-1.237,0.061-1.793,0.088
	c-0.055-1.547-0.058-1.555,1.575-1.565c0.099,0.19,0.257,0.405,0.316,0.647C97.847,178.746,97.762,178.957,97.703,179.397z"/>
<path fill-rule="evenodd" clip-rule="evenodd" fill="#ffd624" class="fill" d="M104.359,173.492c0.498,1.412,0.498,1.412-0.154,2.492
	c-0.321-0.084-0.678-0.176-1.358-0.351C103.375,174.886,103.764,174.338,104.359,173.492z"/>
<path class="stroke" fill="#6e3411"  d="M140.812,140.937c-2.324,0.043-4.483,0.085-6.61,0.124c-0.777-2.167,0.039-4.438-1.288-6.46
	c-4.256,2.747-6.68,6.936-10.446,10.257c2.621,3.693,4.811,7.398,8.849,9.511c2.496-0.893,1.138-3.597,2.364-5.063
	c2.463-0.081,4.914,0.487,7.464-0.187C142.074,146.288,141.903,143.621,140.812,140.937z"/>
<path fill-rule="evenodd" clip-rule="evenodd" fill="#ffd624" class="fill" d="M131.105,138.862c0.096,1.271,0.189,2.542,0.299,3.998
	c2.479-0.032,4.889-0.062,7.499-0.097c-0.011,1.474-0.019,2.734-0.028,4.02c-2.393,0.787-4.833-0.699-7.164,0.855
	c-0.221,0.924-0.486,2.027-0.812,3.384c-2.422-1.523-3.648-3.991-5.855-5.748c1.711-2.443,3.681-4.535,5.592-6.677
	C130.793,138.686,130.948,138.773,131.105,138.862z"/>
</svg>
