<svg version="1.1" xmlns="http://www.w3.org/2000/svg" xmlns:xlink="http://www.w3.org/1999/xlink" x="0px" y="0px" width="200px"
	 height="200px" viewBox="0 0 200 200" enable-background="new 0 0 200 200" xml:space="preserve">
<g id="svg">
	<path class="stroke" fill="#472664"  d="M143.88,109.256c-0.879-1.403-1.65-2.877-2.559-4.26c-1.427-2.172-2.866-4.343-4.424-6.422
		c-1.308-1.747-2.802-3.354-4.193-5.04c-2.31-2.793-4.764-5.45-7.393-7.941c-2.401-2.274-5.186-3.801-8.585-3.747
		c-1.65,0.027-3.305,0.262-4.939,0.518c-1.707,0.269-3.41,0.57-5.047,1.201c-0.933,0.359-1.955,0.487-3.047,0.745
		c-0.396-0.623-0.827-1.151-1.1-1.751c-2.258-4.977-4.484-9.967-6.724-14.952c-1.259-2.803-2.844-5.402-4.885-7.708
		c-0.979-1.104-2.14-1.786-3.688-1.493c-0.294,0.056-0.587,0.125-0.877,0.196c-0.874,0.213-1.758,0.392-2.617,0.653
		c-2.317,0.705-3.455,1.514-3.763,3.683c-0.126,0.885-0.05,1.8-0.062,2.702c-0.01,0.775,0.38,1.321,0.914,1.859
		c1.726,1.741,3.504,3.445,5.07,5.324c1.639,1.967,3.074,4.105,4.565,6.192c1.495,2.091,2.606,4.395,3.696,6.772
		c-0.271,0.151-0.481,0.308-0.717,0.396c-1.446,0.541-2.892,1.085-4.35,1.594c-2.528,0.882-5.072,1.729-7.439,3.001
		c-3.288,1.766-5.493,4.304-5.799,8.197c-0.19,2.41-0.236,4.81-0.003,7.226c0.392,4.053,0.935,8.073,1.771,12.065
		c0.93,4.427,1.921,8.833,3.176,13.181c0.275,0.955,0.846,1.492,1.759,1.696c0.396,0.088,0.835,0.128,1.227,0.049
		c2.476-0.497,4.965-0.948,7.406-1.58c2.369-0.612,4.687-1.427,7.028-2.147c2.45-0.752,4.919-1.449,7.35-2.261
		c3.11-1.038,6.202-2.132,9.279-3.264c4.382-1.612,8.739-3.292,13.114-4.919c2.719-1.012,5.456-1.971,8.179-2.975
		c2.261-0.834,4.554-1.602,6.665-2.792c0.485-0.273,0.931-0.62,1.222-0.817C144.719,111.177,144.481,110.217,143.88,109.256z"/>
</g>
<g id="Layer_2">
	<path fill-rule="evenodd" clip-rule="evenodd" fill="#f8bfe9" class="fill" d="M141.25,111.563c-0.938,0.425-1.767,0.858-2.636,1.187
		c-17.643,6.67-35.259,13.418-53.732,18.031c-0.226-1.017-0.47-1.916-0.62-2.831c-0.638-3.906-1.221-7.821-1.877-11.724
		c-0.368-2.196-0.696-4.387-0.689-6.622c0.005-1.693,0.392-3.318,1.021-4.843c0.636-1.538,1.902-2.653,3.381-3.375
		c1.923-0.938,3.891-1.814,5.905-2.526c3.125-1.104,6.302-2.06,9.465-3.051c1.902-0.596,3.818-1.147,5.731-1.703
		c1.515-0.44,3.071-0.765,4.548-1.309c2.41-0.888,4.848-0.699,7.252-0.249c1.835,0.345,3.604,1,5.051,2.34
		c0.737,0.684,1.65,1.179,2.489,1.752c3.154,2.157,6.02,4.667,8.645,7.424c1.658,1.742,3.072,3.717,4.59,5.594
		C140.245,110.242,140.691,110.842,141.25,111.563z M134.815,112.396c-0.97-1.74-12.576-14.037-14.715-15.593
		c-0.186,0.1-0.401,0.215-0.712,0.381c0.232,0.335,0.384,0.638,0.61,0.866c1.618,1.625,3.269,3.219,4.877,4.854
		c1.633,1.66,3.235,3.349,4.836,5.04c1.496,1.58,2.972,3.178,4.463,4.761c0.062,0.066,0.202,0.061,0.349,0.1
		C134.628,112.658,134.729,112.515,134.815,112.396z M108.344,101.046c-0.543,0.673-0.563,0.682-0.396,1.036
		c0.128,0.271,0.305,0.52,0.476,0.769c3.079,4.477,5.567,9.301,8.258,14.008c0.442,0.775,0.923,1.528,1.435,2.372
		c0.338-0.256,0.562-0.426,0.784-0.596c-0.066-0.177-0.092-0.287-0.146-0.38c-1.341-2.306-2.685-4.611-4.031-6.914
		c-0.569-0.974-1.153-1.94-1.726-2.912c-1.3-2.202-2.589-4.41-3.904-6.602C108.915,101.53,108.604,101.312,108.344,101.046z
		 M114.034,99.246c-0.017,0.1-0.088,0.249-0.043,0.308c4.024,5.202,8.238,10.258,11.982,15.675c0.162,0.234,0.418,0.405,0.643,0.617
		c0.188-0.112,0.328-0.172,0.435-0.267c0.078-0.07,0.112-0.187,0.205-0.354c-0.19-0.29-0.381-0.608-0.599-0.907
		c-0.661-0.912-1.315-1.831-2.005-2.722c-2.232-2.889-4.463-5.78-6.729-8.643c-0.931-1.176-1.95-2.283-2.934-3.418
		C114.744,99.249,114.497,98.927,114.034,99.246z M103.772,123.232c-1.375-3.384-2.695-6.623-4.008-9.866
		c-1.045-2.584-2.074-5.175-3.129-7.754c-0.13-0.319-0.376-0.591-0.54-0.84c-0.648,0.129-0.742,0.476-0.617,0.881
		c0.109,0.356,0.303,0.687,0.459,1.029c0.657,1.436,1.389,2.842,1.959,4.311c1.58,4.067,3.091,8.161,4.643,12.238
		c0.072,0.19,0.265,0.344,0.426,0.487c0.071,0.063,0.204,0.057,0.356,0.093C103.478,123.609,103.635,123.409,103.772,123.232z
		 M110.077,121.526c0.776-0.352,0.896-0.797,0.603-1.37c-1.014-1.972-2.05-3.932-3.045-5.913c-1.029-2.052-2.015-4.127-3.034-6.185
		c-0.686-1.384-1.379-2.764-2.107-4.125c-0.214-0.399-0.42-0.948-1.083-0.707c-0.299,0.398-0.245,0.778,0.012,1.158
		c1.104,1.626,1.884,3.418,2.722,5.188c1.513,3.197,3.13,6.345,4.704,9.513C109.245,119.882,109.648,120.675,110.077,121.526z
		 M89.269,128.163c-0.303-1.339-0.581-2.544-0.848-3.751c-0.349-1.576-0.714-3.148-1.025-4.731
		c-0.284-1.438-0.461-2.899-0.767-4.332c-0.409-1.914-0.898-3.809-1.351-5.713c-0.094-0.396-0.174-0.794-0.248-1.136
		c-0.616-0.315-0.889-0.042-0.958,0.441c-0.04,0.283,0.041,0.599,0.127,0.882c0.884,2.882,1.506,5.824,2.064,8.784
		c0.622,3.288,1.294,6.565,1.961,9.93C88.56,128.416,88.863,128.308,89.269,128.163z M89.146,107.278
		c0.408,1.361,0.767,2.582,1.141,3.798c0.551,1.797,1.174,3.576,1.659,5.391c0.776,2.905,1.459,5.834,2.196,8.75
		c0.116,0.46,0.306,0.901,0.459,1.342c0.952-0.271,1.095-0.484,0.837-1.27c-0.339-1.036-0.776-2.041-1.07-3.088
		c-0.587-2.096-1.07-4.221-1.657-6.317c-0.688-2.461-1.438-4.905-2.174-7.353c-0.148-0.497-0.35-0.978-0.572-1.592
		C89.63,107.078,89.358,107.19,89.146,107.278z"/>
	<path fill-rule="evenodd" clip-rule="evenodd" fill="#f8bfe9" class="fill" d="M142.568,110.748c-0.451-0.559-0.912-1.109-1.351-1.678
		c-1.58-2.053-3.163-4.104-4.725-6.171c-1.428-1.888-2.781-3.835-4.259-5.683c-1.101-1.377-2.354-2.632-3.526-3.953
		c-0.674-0.759-1.33-1.534-1.978-2.315c-1.233-1.485-2.701-2.717-4.254-3.839c-0.597-0.432-1.311-0.73-2.01-0.986
		c-0.982-0.36-1.989-0.666-3.005-0.918c-1.506-0.374-3.001,0.032-4.499,0.158c-0.562,0.048-1.134,0.091-1.68,0.219
		c-1.238,0.289-2.475,0.595-3.692,0.959c-2.085,0.624-4.19,1.203-6.223,1.972c-2.439,0.924-5.061,1.094-7.499,2.009
		c-2.644,0.993-5.397,1.738-7.838,3.19c-1.544,0.919-2.975,2.044-4.388,3.164c-1.374,1.088-1.68,2.741-1.908,4.346
		c-0.148,1.031-0.047,2.096-0.067,3.146c-0.018,0.902-0.146,1.814-0.058,2.705c0.301,3.026,0.619,6.053,1.038,9.064
		c0.416,2.983,0.969,5.947,1.449,8.922c0.287,1.784,0.561,3.571,0.819,5.36c0.039,0.271-0.034,0.557-0.064,0.955
		c-0.8-0.372-1.128-0.963-1.279-1.608c-0.431-1.833-0.806-3.68-1.185-5.524c-0.385-1.878-0.773-3.757-1.117-5.644
		c-0.414-2.263-0.801-4.53-1.165-6.801c-0.586-3.655-1-7.33-0.854-11.038c0.088-2.26,0.564-4.442,2.188-6.149
		c0.664-0.698,1.449-1.338,2.289-1.803c2.515-1.386,5.125-2.544,7.938-3.241c1.307-0.324,2.541-0.938,3.816-1.399
		c0.916-0.331,1.849-0.621,2.768-0.945c0.203-0.072,0.383-0.211,0.691-0.389c-0.228-0.724-0.42-1.441-0.677-2.135
		c-0.378-1.024-0.788-2.037-1.208-3.044c-1.451-3.481-2.989-6.926-4.988-10.129c-1.312-2.106-2.711-4.172-4.229-6.135
		c-0.818-1.057-1.966-1.861-2.975-2.77c-0.138-0.124-0.321-0.196-0.387-0.235c0.12-0.854,0.646-1.136,1.156-1.351
		c1.18-0.497,2.386-0.936,3.588-1.379c0.782-0.289,1.465-0.101,2.093,0.447c1.159,1.013,1.918,2.321,2.703,3.607
		c0.688,1.125,1.355,2.265,1.98,3.426c0.552,1.023,1.024,2.086,1.547,3.125c0.927,1.843,1.919,3.656,2.78,5.527
		c0.754,1.634,1.39,3.324,2.034,5.006c0.523,1.368,0.983,2.76,1.504,4.231c0.53,0.537,1.24,0.566,2.02,0.361
		c2.075-0.548,4.146-1.119,6.235-1.604c1.612-0.374,3.24-0.782,4.881-0.908c3.863-0.299,7.196,0.942,9.802,3.885
		c2.269,2.565,4.529,5.14,6.744,7.751c0.822,0.969,1.495,2.062,2.253,3.086c1.854,2.508,3.718,5.01,5.585,7.51
		c0.131,0.177,0.302,0.327,0.459,0.484c0.158,0.159,0.396,0.281,0.472,0.47c0.6,1.508,1.544,2.813,2.392,4.177
		c0.064,0.104,0.035,0.266,0.049,0.401C142.693,110.675,142.631,110.712,142.568,110.748z M89.21,62.965
		c-0.377-1.182-1.136-1.611-1.976-1.917c-0.923,0.507-1.107,0.797-0.959,1.458c0.218,0.977,1.021,1.585,2.431,1.762
		C88.878,63.826,89.059,63.355,89.21,62.965z"/>
</g>
</svg>
