<svg version="1.1" id="svg" xmlns="http://www.w3.org/2000/svg" xmlns:xlink="http://www.w3.org/1999/xlink" x="0px" y="0px"
	 width="200px" height="200px" viewBox="0 0 200 200" enable-background="new 0 0 200 200" xml:space="preserve">
<path class="stroke" fill="#183046"  fill-rule="evenodd" clip-rule="evenodd" d="M150.497,13.604c1.009,3.334,1.155,6.356,0.292,9.444
	c-0.762,0.101-1.35,0.179-2.093,0.276c-0.062,1.583-0.175,3.157-0.174,4.731c0.003,4.548,0.053,9.096,0.084,13.644
	c0.022,3.08,0.087,6.161,0.056,9.24c-0.04,3.731-0.232,7.461-0.231,11.192c0.003,7.802,0.086,15.603,0.144,23.404
	c0.049,6.653,0.093,13.305,0.167,19.957c0.06,5.496,0.181,10.992,0.235,16.489c0.058,5.884,0.101,11.768,0.089,17.651
	c-0.006,3.078-0.173,6.156-0.211,9.235c-0.033,2.692,0.008,5.385,0.026,8.078c0.007,1.099,0.032,2.197,0.062,3.296
	c0.164,6.103,0.304,12.205,0.509,18.306c0.1,2.964,0.34,5.922,0.472,8.884c0.024,0.56-0.162,1.129-0.274,1.84
	c-1.353,0.134-2.539,0.34-3.726,0.35c-3.791,0.03-7.583,0.017-11.374-0.034c-5.766-0.076-11.531-0.216-17.296-0.295
	c-3.624-0.05-7.248-0.021-10.873-0.056c-4.175-0.038-8.35-0.134-12.526-0.153c-2.744-0.012-5.491,0.136-8.234,0.091
	c-4.395-0.074-8.787-0.249-13.181-0.377c-0.934-0.027-1.867-0.051-2.801-0.052c-5.548-0.012-11.097-0.013-16.645-0.024
	c-0.488-0.002-0.975-0.058-1.688-0.102c-0.211-1.243-0.58-2.46-0.598-3.683c-0.104-6.924-0.123-13.849-0.174-20.773
	c-0.05-6.699-0.107-13.397-0.156-20.097c-0.021-2.968,0.024-5.938-0.059-8.905c-0.135-4.875-0.355-9.749-0.526-14.623
	c-0.02-0.548,0.06-1.098,0.06-1.646c-0.005-2.744-0.057-5.489-0.022-8.232c0.026-1.974,0.128-3.948,0.258-5.919
	c0.255-3.852-0.068-7.678-0.375-11.511c-0.109-1.363,0.009-2.746,0.038-4.12c0.085-3.949,0.213-7.897,0.258-11.848
	c0.061-5.275,0.062-10.552,0.083-15.828c0.016-4.064,0.016-8.129,0.039-12.194c0.017-2.962,0.062-5.924,0.092-8.887
	c0.029-3.017,0.114-6.034,0.063-9.05c-0.044-2.673-0.241-5.342-0.371-8.008c-0.751-0.109-1.474-0.216-2.328-0.341
	c-0.093-3.238-0.27-6.327-0.083-9.591c1.053-0.15,1.958-0.352,2.87-0.396c2.085-0.101,4.175-0.202,6.26-0.164
	c3.407,0.063,6.812,0.236,10.219,0.366c1.258,0.049,2.52,0.064,3.774,0.163c5.596,0.439,11.199,0.457,16.806,0.375
	c2.365-0.034,4.73,0.009,7.095-0.025c5.537-0.081,11.073-0.194,16.609-0.282c2.737-0.043,5.474-0.062,8.21-0.09
	c5.271-0.055,10.542-0.188,15.812-0.141C140.202,13.217,145.243,13.449,150.497,13.604z M72.887,175.688
	c0-5.041-0.016-9.753,0.007-14.466c0.01-1.976,0.137-3.95,0.152-5.927c0.041-5.652,0.059-11.306,0.071-16.959
	c0.008-3.899,0.015-7.799-0.02-11.698c-0.042-4.78-0.185-9.56-0.176-14.339c0.008-4.066,0.241-8.132,0.247-12.197
	c0.011-8.297-0.067-16.594-0.104-24.892c-0.037-8.292-0.065-16.583-0.106-24.876c-0.026-5.379-0.122-10.758-0.082-16.136
	c0.021-2.797,0.288-5.591,0.4-8.388c0.037-0.903,0.312-1.86-0.248-2.642c-3.367,0-6.651,0-9.935,0c-3.262,0-6.524,0-9.887,0
	c-0.102,1.762-0.243,3.452-0.286,5.145c-0.062,2.364-0.052,4.729-0.069,7.095c-0.038,5.271-0.186,10.545-0.087,15.813
	c0.192,10.218,0.524,20.434,0.795,30.65c0.126,4.777,0.286,9.553,0.355,14.332c0.073,4.999,0.23,10.006,0.029,14.997
	c-0.173,4.284-0.179,8.558-0.125,12.839c0.056,4.444,0.054,8.891,0.051,13.337c-0.001,1.255-0.153,2.51-0.14,3.764
	c0.049,4.707,0.164,9.413,0.205,14.118c0.042,4.724,0,9.446,0.046,14.169c0.021,2.123,0.167,4.245,0.265,6.583
	C60.483,175.903,66.601,175.797,72.887,175.688z M105.078,63.232c3.604,0.428,39.18,0.462,40.748,0.023
	c0-0.541,0.011-1.132-0.002-1.72c-0.058-2.694-0.165-5.387-0.175-8.081c-0.02-4.993,0.002-9.987,0.031-14.98
	c0.017-2.966,0.131-5.933,0.104-8.898c-0.019-2.072-0.201-4.143-0.312-6.274c-0.671-0.075-1.154-0.158-1.639-0.18
	c-2.413-0.104-4.826-0.198-7.239-0.285c-1.919-0.069-3.842-0.221-5.759-0.164c-4.998,0.147-9.991,0.439-14.989,0.575
	c-3.073,0.083-6.151-0.021-9.227-0.027c-0.36-0.001-0.721,0.092-1.057,0.138C104.597,36.69,105.082,49.919,105.078,63.232z
	 M146.062,141.742c-0.64-0.046-1.118-0.109-1.597-0.109c-3.461,0-6.924,0.078-10.384,0.004c-4.388-0.093-8.775-0.45-13.161-0.43
	c-5.164,0.023-10.326,0.327-15.488,0.521c-0.312,0.012-0.62,0.132-0.958,0.209c-0.521,11.258-0.5,22.444,0.318,33.785
	c1.396,0.062,2.704,0.127,4.011,0.179c2.466,0.098,4.932,0.187,7.398,0.282c2.25,0.088,4.501,0.258,6.751,0.255
	c5.658-0.009,11.316-0.1,16.974-0.146c2.014-0.017,4.027-0.002,6.137-0.002C146.062,164.708,146.062,153.349,146.062,141.742z
	 M104.566,104.479c-0.393,2.631-0.293,32.158,0.099,33.721c1.17,0.074,2.369,0.214,3.568,0.217
	c3.566,0.009,7.133-0.051,10.699-0.056c3.626-0.007,7.253-0.007,10.879,0.038c4.777,0.058,9.553,0.168,14.331,0.24
	c0.628,0.009,1.258-0.068,1.986-0.111c0-3.995,0.033-7.779-0.009-11.562c-0.042-3.843-0.143-7.686-0.244-11.529
	c-0.1-3.751,0.186-7.512-0.052-11.512C131.935,103.709,118.285,103.903,104.566,104.479z M104.416,100.885
	c1.764,0.115,3.238,0.297,4.711,0.288c2.471-0.015,4.94-0.233,7.41-0.221c7.635,0.041,15.27,0.176,22.906,0.217
	c2.064,0.011,4.129-0.178,6.253-0.278c0.072-0.475,0.184-0.848,0.176-1.219c-0.047-2.251-0.157-4.501-0.178-6.752
	c-0.042-4.548-0.063-9.095-0.051-13.643c0.01-3.515,0.094-7.03,0.117-10.545c0.004-0.574-0.142-1.15-0.239-1.875
	c-13.496,0.052-26.812-0.72-40.308-0.332C104.946,78.026,104.683,89.36,104.416,100.885z M49.777,19.431
	c0.803,0.089,1.393,0.194,1.985,0.212c2.627,0.073,5.254,0.146,7.881,0.174c5.932,0.063,11.863,0.12,17.795,0.141
	c4.935,0.018,9.87,0.021,14.804-0.043c7.188-0.095,14.371,0.34,21.564,0.103c7.561-0.249,15.129-0.271,22.693-0.385
	c2.966-0.045,5.932-0.045,8.897-0.124c1.299-0.034,2.595-0.213,3.874-0.324c0-1.232,0-2.296,0-3.428
	c-0.626-0.062-1.107-0.142-1.592-0.155c-3.789-0.099-7.578-0.232-11.367-0.267c-4.561-0.041-9.123-0.026-13.684,0.022
	c-5.165,0.056-10.33,0.203-15.495,0.262c-6.205,0.07-12.411,0.098-18.616,0.127c-3.404,0.017-6.808,0.039-10.21-0.013
	c-3.627-0.056-7.253-0.221-10.88-0.291c-4.398-0.085-8.798-0.139-13.197-0.167c-1.352-0.009-2.706,0.109-4.196,0.176
	C49.946,16.808,49.87,17.995,49.777,19.431z M142.723,179.367c-0.937,1.207-1.764,2.229-2.54,3.287
	c-0.753,1.029-1.695,1.959-2.009,3.362c0.646,0,1.182,0,1.871,0c1.476-2.13,2.975-4.29,4.683-6.754
	C143.782,179.312,143.26,179.339,142.723,179.367z M113.461,186.024c1.468-2.264,3.192-4.281,4.516-6.825c-0.81,0-1.34,0-1.922,0
	c-1.343,2.24-3.209,4.117-4.505,6.674C112.321,185.935,112.84,185.976,113.461,186.024z M112.499,179.007
	c-1.361,2.343-3.169,4.187-4.39,6.662c0.753,0,1.228,0,1.792,0c1.176-2.283,3.21-3.98,4.365-6.524
	C113.567,179.09,113.099,179.054,112.499,179.007z M115.327,185.636c0.087,0.146,0.174,0.294,0.262,0.44
	c0.475-0.151,1.088-0.164,1.402-0.478c1.664-1.664,3.056-3.545,4.066-5.686c0.061-0.129,0.008-0.311,0.008-0.556
	c-0.439,0-0.847,0-1.214,0C118.304,181.503,116.815,183.569,115.327,185.636z M127.891,179.593
	c-1.322-0.496-1.958,0.103-2.501,0.938c-0.745,1.146-1.499,2.288-2.254,3.428c-0.352,0.531-0.718,1.054-1.186,1.738
	c0.806,0,1.384,0,2.093,0C125.311,183.686,126.579,181.673,127.891,179.593z M134.622,185.762c1.27,0.184,1.677,0.08,2.143-0.563
	c1.126-1.554,2.228-3.126,3.319-4.705c0.189-0.274,0.276-0.62,0.416-0.945c-0.996-0.403-1.488,0.125-1.924,0.711
	c-0.589,0.795-1.137,1.619-1.714,2.423C136.167,183.649,135.46,184.609,134.622,185.762z M129.794,179.468
	c-1.446,2.09-2.829,4.087-4.352,6.288c0.767,0,1.229,0,1.708,0c1.438-2.113,2.837-4.167,4.282-6.288
	C130.895,179.468,130.417,179.468,129.794,179.468z M62.052,185.031c1.019,0.503,1.625,0.015,2.031-0.627
	c0.984-1.561,1.899-3.164,2.796-4.777c0.154-0.278,0.079-0.685,0.121-1.161c-0.411,0.106-0.787,0.087-0.892,0.247
	C64.747,180.783,63.424,182.88,62.052,185.031z M66.723,185.38c1.324-2.258,2.495-4.47,3.625-6.879c-0.554,0-0.855,0-1.129,0
	c-1.355,2.18-2.668,4.291-4.021,6.466c0.315,0.146,0.5,0.263,0.701,0.317C66.103,185.341,66.323,185.337,66.723,185.38z
	 M104.967,185.149c0.089,0.13,0.178,0.26,0.267,0.391c0.259,0,0.588,0.1,0.765-0.021c0.398-0.271,0.776-0.612,1.067-0.997
	c1.264-1.675,2.607-3.306,3.645-5.459c-0.6,0.057-1.051-0.032-1.181,0.132C107.98,181.157,106.479,183.158,104.967,185.149z
	 M64.196,178.909c-0.491,0-0.874-0.103-0.962,0.016c-1.531,2.039-3.026,4.105-4.529,6.166c0.086,0.119,0.172,0.237,0.258,0.356
	c0.375-0.092,0.876-0.06,1.107-0.294C61.807,183.401,63.084,181.343,64.196,178.909z M72.754,178.551
	c-0.161-0.061-0.322-0.121-0.483-0.181c-1.271,2.16-2.542,4.32-3.834,6.519c1.282,0.441,1.401,0.48,1.871-0.405
	c0.842-1.586,1.582-3.228,2.322-4.864C72.77,179.308,72.717,178.909,72.754,178.551z M120.029,185.825
	c1.54-2.104,3.43-3.813,4.252-6.312c-0.858-0.338-1.289,0.051-1.689,0.651c-1.123,1.688-2.28,3.354-3.411,5.035
	c-0.073,0.109-0.038,0.29-0.06,0.508C119.427,185.747,119.689,185.782,120.029,185.825z M55.596,185.335
	c1.444,0.318,1.851-0.526,2.352-1.303c0.53-0.819,1.193-1.555,1.705-2.384c0.469-0.762,0.813-1.6,1.316-2.612
	c-0.523,0.088-0.942,0.029-1.093,0.203C58.278,181.081,57.012,183.148,55.596,185.335z M145.935,179.926
	c-1.482,2.027-3.02,3.819-4.132,6.099c0.58,0,0.947,0,1.391,0c0.932-1.367,1.861-2.723,2.781-4.085
	C146.375,181.347,146.399,180.74,145.935,179.926z M55.988,179.395c-0.646,1.757-2.555,2.882-1.925,5.108
	c1.588-1.072,3.858-4.648,3.255-5.232C56.981,179.303,56.565,179.341,55.988,179.395z M128.963,185.879
	c0.116,0.071,0.233,0.142,0.349,0.213c2.22-1.702,3.546-4.079,4.943-6.512c-0.983-0.409-1.37,0.197-1.729,0.715
	c-1.091,1.575-2.149,3.174-3.205,4.774C129.161,185.312,129.081,185.607,128.963,185.879z M131.888,185.582
	c1.877-0.641,4.604-4.232,5.018-6.134c-0.23,0.029-0.537-0.022-0.622,0.093C134.802,181.542,133.348,183.564,131.888,185.582z
	 M107.376,179.217c-0.994,0-1.663,0-2.369,0c0,1.104,0,2.13,0,3.155c0.113,0.035,0.226,0.068,0.339,0.103
	C105.978,181.461,106.61,180.447,107.376,179.217z M146.392,184.104c-0.155-0.045-0.311-0.092-0.466-0.138
	c-0.402,0.586-0.803,1.172-1.345,1.963c0.739,0,1.174,0,1.719,0C146.335,185.238,146.364,184.672,146.392,184.104z M71.429,184.962
	c0.065,0.117,0.129,0.235,0.194,0.353c0.386-0.064,0.771-0.13,1.23-0.208c-0.029-0.648-0.053-1.162-0.076-1.677
	c-0.104-0.039-0.208-0.078-0.311-0.117C72.12,183.862,71.775,184.412,71.429,184.962z"/>
<path class="stroke" fill="#183046"  fill-rule="evenodd" clip-rule="evenodd" d="M68.87,131.814c-3.594,0.83-7,0.867-10.526,0.603
	c0.193-6.393,0.38-12.591,0.565-18.721c2.482-0.966,7.826-1.363,9.696-0.686C68.692,119.158,68.779,125.381,68.87,131.814z
	 M66.38,129.698c-0.09-2.349-0.178-4.665-0.272-7.131c-0.7,0.113-1.215,0.197-1.812,0.294c-0.201,2.513-0.01,4.868,0.265,7.275
	c0.396,0,0.622,0.046,0.818-0.01C65.683,130.038,65.967,129.88,66.38,129.698z M64.341,115.076c0,2.2,0,4.176,0,6.261
	c0.704-0.064,1.223-0.111,1.854-0.169c0-2.092,0-4.07,0-6.092C65.467,115.076,64.947,115.076,64.341,115.076z M61.304,122.999
	c-0.048,2.443-0.266,4.708,0.138,7.033c0.496,0,0.888,0,1.252,0c0-2.423,0-4.716,0-7.033
	C62.155,122.999,61.844,122.999,61.304,122.999z M61.597,121.337c0.281-0.02,0.625-0.044,1.067-0.075
	c0.021-2.044,0.229-3.975-0.262-6.144c-0.391,0.358-0.772,0.545-0.778,0.742C61.577,117.652,61.597,119.446,61.597,121.337z"/>
<path class="stroke" fill="#183046"  fill-rule="evenodd" clip-rule="evenodd" d="M68.764,36.164c0,6.208,0,12.223,0,18.19c-2.84,0.93-8.756,0.894-10.385-0.089
	c0-5.985,0-12.045,0-18.257c2.963-0.151,5.847-0.327,8.733-0.416C67.611,35.577,68.122,35.932,68.764,36.164z M60.889,45.818
	c-0.06,1.14-0.149,2.171-0.157,3.201c-0.008,1.079,0.065,2.159,0.107,3.389c0.854-0.042,1.525-0.074,2.208-0.106
	c0-2.281,0-4.378,0-6.483C62.244,45.818,61.61,45.818,60.889,45.818z M62.958,44.334c0-2.148,0-4.161,0-6.298
	c-0.789,0.081-1.412,0.146-2.152,0.223c0,2.103,0,4.045,0,6.075C61.492,44.334,62.073,44.334,62.958,44.334z M64.717,45.834
	c-0.184,2.26-0.094,4.461,0.144,6.857c0.667-0.201,1.108-0.334,1.699-0.513c-0.123-2.21-0.241-4.317-0.361-6.483
	C65.615,45.75,65.242,45.785,64.717,45.834z M66.406,44.07c0-2.012,0-3.937,0-5.892c-0.394-0.034-0.662-0.085-0.928-0.071
	c-0.252,0.013-0.5,0.093-0.861,0.165c0,2.008,0,3.935,0,5.938C65.273,44.159,65.8,44.118,66.406,44.07z"/>
<path class="stroke" fill="#183046"  fill-rule="evenodd" clip-rule="evenodd" d="M68.487,168.932c-3.102,0.521-6.188,0.366-9.421,0.314
	c-0.582-6.16-0.319-12.182-0.426-17.892c0.515-1.122,1.26-1.31,2.043-1.39c1.805-0.185,3.609-0.427,5.418-0.476
	c0.753-0.021,1.518,0.394,2.386,0.643C68.487,156.466,68.487,162.595,68.487,168.932z M63.04,159.624
	c-0.669,0.119-1.163,0.208-1.666,0.298c-0.353,2.483,0.15,4.716,0.355,7.136c0.622-0.18,1.009-0.292,1.311-0.38
	C63.04,164.293,63.04,162.062,63.04,159.624z M66.142,166.829c0-2.585,0-4.97,0-7.422c-0.551,0-0.951,0-1.484,0
	c-0.015,2.494-0.33,4.884,0.271,7.324C65.317,166.763,65.627,166.788,66.142,166.829z M62.876,152.164
	c-0.497,0.029-0.894,0.052-1.346,0.078c0,1.997,0,3.866,0,5.84c0.601-0.036,1.062-0.062,1.672-0.099
	C63.179,156.012,63.403,154.13,62.876,152.164z M66.226,157.617c-0.109-2.033-0.208-3.875-0.314-5.847
	c-0.572,0.096-0.912,0.153-1.163,0.195c0,2.025,0,3.916,0,5.921C65.331,157.78,65.691,157.715,66.226,157.617z"/>
<path class="stroke" fill="#183046"  fill-rule="evenodd" clip-rule="evenodd" d="M58.544,76.094c0.371-0.142,0.933-0.476,1.531-0.564
	c1.898-0.283,3.817-0.424,5.713-0.722c1.063-0.167,1.799,0.25,2.603,1.086c0.101,5.765,0.1,11.659-0.249,17.462
	c-1.075,0.49-6.796,0.929-8.978,0.753c-0.635-0.556-0.64-1.325-0.638-2.098c0.007-4.113,0.013-8.228,0.018-12.342
	C58.546,78.581,58.544,77.494,58.544,76.094z M61.162,91.526c0.732-0.064,1.241-0.109,1.731-0.152c0-2.203,0-4.24,0-6.432
	c-0.671,0.051-1.17,0.089-1.731,0.131C61.162,87.251,61.162,89.25,61.162,91.526z M61.315,77.801c0,1.909,0,3.74,0,5.734
	c0.591-0.114,1.033-0.201,1.411-0.274c0-1.984,0-3.813,0-5.789C62.123,77.612,61.721,77.706,61.315,77.801z M64.395,83.357
	c0.637,0,0.995,0,1.475,0c0-1.919,0-3.748,0-5.601c-0.397-0.09-0.657-0.174-0.921-0.199c-0.146-0.014-0.303,0.07-0.554,0.138
	C64.395,79.533,64.395,81.366,64.395,83.357z M65.768,91.27c0-2.078,0-4.128,0-6.265c-0.399-0.034-0.751-0.064-1.33-0.114
	c0.197,2.213-0.192,4.312,0.189,6.463C65.092,91.319,65.357,91.3,65.768,91.27z"/>
<path fill-rule="evenodd" clip-rule="evenodd" fill="#fafd30" class="fill" d="M76.777,41.474c0.956,0,1.809,0,2.866,0
	c0.041,0.818,0.116,1.621,0.116,2.425c0.002,2.914,0.032,5.83-0.047,8.741c-0.157,5.768-0.415,11.531-0.562,17.298
	c-0.078,3.021-0.011,6.046-0.013,9.068c0,0.714-0.008,1.426-0.024,2.14c-0.154,6.923-0.318,13.847-0.464,20.77
	c-0.067,3.184-0.106,6.367-0.135,9.55c-0.005,0.536,0.108,1.072,0.177,1.709c0.819,0.364,1.602,0.711,2.541,1.128
	c0,0.747-0.02,1.664,0.003,2.58c0.153,6.095,0.349,12.189,0.461,18.285c0.046,2.526-0.094,5.055-0.119,7.582
	c-0.059,6.044-0.157,12.088-0.129,18.132c0.024,5.262,0.199,10.523,0.31,15.893c-0.396,0.182-0.822,0.377-1.439,0.662
	c0,2.485,0,5.056,0,7.775c-1.083,0-1.981,0-3.133,0c-0.158-1.596-0.396-3.207-0.462-4.825c-0.175-4.328-0.312-8.658-0.393-12.989
	c-0.042-2.304,0.082-4.61,0.097-6.916c0.022-3.068,0.023-6.137,0.012-9.205c-0.013-3.4-0.111-6.8-0.06-10.198
	c0.066-4.49,0.352-8.98,0.34-13.47c-0.014-5.658-0.241-11.315-0.364-16.974c-0.086-3.992-0.229-7.985-0.212-11.979
	c0.037-8.62,0.148-17.241,0.253-25.861c0.03-2.468,0.197-4.936,0.199-7.403c0.003-2.468-0.183-4.935-0.174-7.401
	c0.012-3.286,0.141-6.572,0.202-9.858c0.03-1.647,0.012-3.296,0.035-4.943C76.665,42.651,76.729,42.117,76.777,41.474z"/>
<path fill-rule="evenodd" clip-rule="evenodd" fill="#fafd30" class="fill" d="M86.545,113.944c2.186,0,4.293,0,6.48,0
	c0.36,20.826,0.96,41.564,0.443,62.5c-2.094-0.03-4.134,0.346-6.159-0.038C86.743,172.682,86.03,116.73,86.545,113.944z"/>
<path fill-rule="evenodd" clip-rule="evenodd" fill="#fafd30" class="fill" d="M99.652,41.197c0.749-0.039,1.427-0.073,2.258-0.116
	c0.035,0.636,0.084,1.111,0.083,1.586c-0.005,4.5-0.029,9-0.026,13.499c0.002,3.897,0.061,7.795,0.045,11.691
	c-0.034,8.687-0.082,17.373-0.157,26.06c-0.039,4.397-0.178,8.794-0.223,13.191c-0.046,4.56-0.049,9.119-0.043,13.679
	c0.009,6.597,0.059,13.193,0.063,19.79c0.004,6.541-0.083,13.083-0.023,19.624c0.055,6.044,0.265,12.087,0.378,18.131
	c0.043,2.303,0.007,4.607,0.007,7.001c-0.637,0.095-1.039,0.154-1.608,0.238c-0.11-2.746-0.213-5.358-0.32-8.047
	c-0.564-0.253-1.099-0.492-1.855-0.832c0-5.587-0.017-11.241,0.004-16.895c0.023-6.309,0.09-12.617,0.12-18.926
	c0.018-3.727,0.061-7.455-0.018-11.181c-0.05-2.357-0.381-4.708-0.45-7.066c-0.083-2.853-0.02-5.708-0.02-8.411
	c0.753-0.625,1.359-1.127,2.061-1.709c0-10.972,0-21.89,0-32.907c-0.42-0.237-0.881-0.496-1.527-0.861
	c0.106-3.364,0.193-6.817,0.328-10.271c0.144-3.675,0.383-7.347,0.486-11.022c0.146-5.165,0.205-10.331,0.306-15.496
	C99.523,41.785,99.574,41.626,99.652,41.197z"/>
<path fill-rule="evenodd" clip-rule="evenodd" fill="#fafd30" class="fill" d="M94.229,41.147c0.201,12.831-0.585,25.375-0.514,38.037
	c-3.144,0-6.172,0-9.15,0c-0.706-2.517,0.229-33.853,1.097-38.037C88.41,41.147,91.177,41.147,94.229,41.147z"/>
<path fill-rule="evenodd" clip-rule="evenodd" fill="#fafd30" class="fill" d="M80.227,36.245c-1.162,0-2.171,0-3.385,0c0-4.426,0-8.678,0-13.188
	c2.65-0.048,5.408-0.15,8.165-0.136c2.744,0.015,5.488,0.132,8.231,0.23c2.784,0.1,5.574-0.528,8.327-0.031
	c0.424,1.629,0.466,12.405,0.049,13.709c-0.818,0-1.666,0-2.343,0c-0.595-2.143-1.09-4.15-1.713-6.118
	c-1.299-4.109-4.635-5.488-8.467-5.978c-0.827-0.105-1.796,0.406-2.613,0.809c-3.226,1.592-4.996,4.317-5.775,7.745
	C80.497,34.193,80.403,35.124,80.227,36.245z"/>
<path fill-rule="evenodd" clip-rule="evenodd" fill="#fafd30" class="fill" d="M81.4,81.753c5.509-0.329,10.587-0.092,15.624-0.053
	c0.897,9.961,0.755,19.698,0.312,29.624c-5.485,0.293-10.926,0.468-16.624,0.565C80.849,101.739,81.467,91.84,81.4,81.753z
	 M95.67,109.91c0.63-2.618,0.604-25.179-0.031-27.022c-1.434-0.424-9.856-0.777-11.799-0.463c-0.351,0.057-0.674,0.284-1.084,0.466
	c-0.058,4.607-0.185,9.157-0.153,13.708c0.032,4.581-0.614,9.155-0.283,13.683C84.103,110.913,92.982,110.625,95.67,109.91z"/>
<path fill-rule="evenodd" clip-rule="evenodd" fill="#fafd30" class="fill" d="M88.897,26.344c3.971,0.323,4.558,2.977,3.654,6.054
	c-0.324,1.102-1.228,1.67-2.332,1.789c-1.405,0.152-2.744-0.041-3.777-1.274C85.419,30.044,86.595,27.159,88.897,26.344z
	 M89.535,28.307c-1.546,0.753-1.593,0.835-1.389,2.529c0.566,0.19,1.203,0.404,1.687,0.566c1.061-0.492,1.18-1.18,0.967-2.072
	c-0.181-0.193-0.386-0.446-0.627-0.658C90.015,28.534,89.804,28.457,89.535,28.307z"/>
<path fill-rule="evenodd" clip-rule="evenodd" fill="#fafd30" class="fill" d="M101.631,38.249c0.076,0.23,0.138,0.42,0.29,0.881
	c-8.452-0.061-16.741,0.228-25.131-0.171c0.038-0.389,0.066-0.684,0.107-1.11C85.185,37.611,93.38,38.226,101.631,38.249z"/>
<path fill-rule="evenodd" clip-rule="evenodd" fill="#fafd30" class="fill" d="M85.101,36.505c0-0.818,0-1.401,0-2.148
	c0.949,0.496,1.742,1.09,2.631,1.324c0.919,0.243,1.948,0.269,2.897,0.146c0.948-0.122,1.857-0.548,2.951-0.894
	c0.092,0.468,0.19,0.96,0.324,1.638C90.858,36.824,88.021,36.374,85.101,36.505z"/>
<path fill-rule="evenodd" clip-rule="evenodd" fill="#fafd30" class="fill" d="M95.954,51.515c0-0.855,0-1.71,0-2.734
	c0.387-0.312,0.864-0.696,1.537-1.24c0,1.121,0,1.959,0,2.95c-0.348,0.367-0.763,0.805-1.177,1.243
	C96.193,51.66,96.073,51.587,95.954,51.515z"/>
<path fill-rule="evenodd" clip-rule="evenodd" fill="#fafd30" class="fill" d="M82.271,72.594c-0.291,0.241-0.619,0.513-0.928,0.768
	c-0.146-0.092-0.286-0.131-0.297-0.193c-0.368-2.029-0.251-2.356,1.226-3.19C82.271,70.819,82.271,71.594,82.271,72.594z"/>
<path fill-rule="evenodd" clip-rule="evenodd" fill="#fafd30" class="fill" d="M84.386,115.338c0.493,1.376,0.257,2.389-0.865,3.148
	C82.868,117.149,83.105,116.184,84.386,115.338z"/>
<path fill-rule="evenodd" clip-rule="evenodd" fill="#fafd30" class="fill" d="M94.908,124.092c0-1.026,0-1.667,0-2.556
	c0.28-0.215,0.698-0.535,1.336-1.023c0.043,0.866,0.079,1.576,0.122,2.419C95.97,123.247,95.553,123.578,94.908,124.092z"/>
<path fill-rule="evenodd" clip-rule="evenodd" fill="#fafd30" class="fill" d="M97.528,43.927c0,0.577,0,1.154,0,1.883
	c-0.312,0.335-0.708,0.761-1.147,1.232c-0.693-0.564-0.339-1.252-0.602-1.958c0.459-0.455,0.902-0.894,1.346-1.331
	C97.259,43.811,97.394,43.869,97.528,43.927z"/>
<path fill-rule="evenodd" clip-rule="evenodd" fill="#fafd30" class="fill" d="M95.763,59.49c-0.073-0.801-0.114-1.26-0.163-1.796
	c0.5-0.518,0.994-1.029,1.626-1.683C97.79,57.693,96.911,58.454,95.763,59.49z"/>
<path fill-rule="evenodd" clip-rule="evenodd" fill="#fafd30" class="fill" d="M94.97,117.745c0.328-0.28,0.692-0.59,1.066-0.91
	c0.814,1.4,0.623,1.907-1.066,2.739C94.97,118.957,94.97,118.395,94.97,117.745z"/>
<path fill-rule="evenodd" clip-rule="evenodd" fill="#fafd30" class="fill" d="M81.432,61.27c-0.345-1.486,0.187-2.369,1.431-3.136
	c0,0.72,0,1.279,0,1.826C82.412,60.372,81.985,60.763,81.432,61.27z"/>
<path fill-rule="evenodd" clip-rule="evenodd" fill="#fafd30" class="fill" d="M97.439,54.231c-0.383,0.52-0.724,0.98-1.064,1.442
	c-0.127-0.079-0.254-0.157-0.381-0.235c0-0.6,0-1.198,0-1.957c0.289-0.246,0.689-0.587,1.147-0.977
	C97.796,53.077,97.472,53.703,97.439,54.231z"/>
<path fill-rule="evenodd" clip-rule="evenodd" fill="#fafd30" class="fill" d="M83.55,132.943c-0.103-1.329-0.491-2.483,1.001-3.23
	C84.81,130.984,85.049,132.072,83.55,132.943z"/>
<path fill-rule="evenodd" clip-rule="evenodd" fill="#fafd30" class="fill" d="M83.604,170.907c-0.314-1.68-0.264-1.8,1.16-2.932
	C85.255,169.36,85.093,169.806,83.604,170.907z"/>
<path fill-rule="evenodd" clip-rule="evenodd" fill="#fafd30" class="fill" d="M96.825,66.584c0,0.793,0,1.262,0,1.556
	c-0.494,0.582-0.895,1.056-1.501,1.771c-0.082-0.834-0.128-1.294-0.182-1.84C95.603,67.663,96.073,67.248,96.825,66.584z"/>
<path fill-rule="evenodd" clip-rule="evenodd" fill="#fafd30" class="fill" d="M82.546,67.972c-0.441,0.421-0.817,0.778-1.473,1.403
	c-0.069-0.949-0.113-1.553-0.179-2.456c0.364-0.248,0.843-0.575,1.48-1.011C82.432,66.589,82.482,67.201,82.546,67.972z"/>
<path fill-rule="evenodd" clip-rule="evenodd" fill="#fafd30" class="fill" d="M95.234,66.461c0.063-0.862,0.098-1.333,0.134-1.82
	c0.516-0.433,1-0.838,1.756-1.472c-0.087,0.81-0.14,1.3-0.195,1.819C96.435,65.419,95.966,65.825,95.234,66.461z"/>
<path fill-rule="evenodd" clip-rule="evenodd" fill="#fafd30" class="fill" d="M96.492,76.819c0,0.725,0,1.416,0,2.229
	c-0.436,0.046-0.833,0.088-1.218,0.128C94.959,77.767,95.15,77.402,96.492,76.819z"/>
<path fill-rule="evenodd" clip-rule="evenodd" fill="#fafd30" class="fill" d="M85.018,173.299c-0.444,0.423-0.858,0.818-1.323,1.26
	c-0.486-1.644-0.409-1.82,1.155-2.844c0.058,0.146,0.152,0.28,0.16,0.42C85.032,172.513,85.018,172.893,85.018,173.299z"/>
<path fill-rule="evenodd" clip-rule="evenodd" fill="#fafd30" class="fill" d="M96.453,124.45c0.085,0.723,0.139,1.179,0.194,1.649
	c-0.252,0.279-0.46,0.528-0.69,0.754c-0.221,0.218-0.466,0.411-0.895,0.784c0-0.757,0-1.262,0-1.882
	C95.429,125.412,95.848,125.019,96.453,124.45z"/>
<path fill-rule="evenodd" clip-rule="evenodd" fill="#fafd30" class="fill" d="M84.527,160.631c0.48,1.817,0.45,1.931-0.761,2.84
	C83.206,162.248,83.453,161.325,84.527,160.631z"/>
<path fill-rule="evenodd" clip-rule="evenodd" fill="#fafd30" class="fill" d="M95.283,73.087c0-0.576,0-1.085,0-1.705
	c0.317-0.368,0.694-0.805,1.113-1.29C96.895,71.75,96.731,72.193,95.283,73.087z"/>
<path fill-rule="evenodd" clip-rule="evenodd" fill="#fafd30" class="fill" d="M81.834,45.928c-0.006-1.427-0.168-2.579,1.29-3.2
	C83.335,44.015,83.259,45.059,81.834,45.928z"/>
<path fill-rule="evenodd" clip-rule="evenodd" fill="#fafd30" class="fill" d="M96.159,156.685c0.521,1.665,0.481,1.801-0.825,2.838
	C95.08,158.402,94.984,157.455,96.159,156.685z"/>
<path fill-rule="evenodd" clip-rule="evenodd" fill="#fafd30" class="fill" d="M84.802,139.625c-0.219,0.239-0.345,0.424-0.515,0.551
	c-0.163,0.121-0.371,0.183-0.508,0.247c-0.765-0.37-0.375-1.696,0.762-2.662c0.073,0.354,0.147,0.646,0.19,0.943
	C84.77,138.973,84.774,139.247,84.802,139.625z"/>
<path fill-rule="evenodd" clip-rule="evenodd" fill="#fafd30" class="fill" d="M81.189,64.798c-0.396-1.327,0.372-1.888,1.174-2.51
	C82.738,63.73,82.731,63.745,81.189,64.798z"/>
<path fill-rule="evenodd" clip-rule="evenodd" fill="#fafd30" class="fill" d="M96.691,176.79c-0.548-0.16-0.792-0.23-1.037-0.303
	c-0.325-1.006-0.07-1.688,1.037-2.211C96.691,175.142,96.691,175.845,96.691,176.79z"/>
<path fill-rule="evenodd" clip-rule="evenodd" fill="#fafd30" class="fill" d="M82.941,54.331c0,0.639,0,1.167,0,1.836
	c-0.279,0.293-0.631,0.664-1.164,1.225C81.752,56.038,81.484,54.922,82.941,54.331z"/>
<path fill-rule="evenodd" clip-rule="evenodd" fill="#fafd30" class="fill" d="M95.326,166.554c-0.066-0.255-0.131-0.405-0.14-0.56
	c-0.018-0.321-0.005-0.644-0.005-0.971c0.191-0.227,0.35-0.442,0.538-0.628c0.145-0.141,0.327-0.244,0.479-0.354
	c0.126,0.105,0.25,0.157,0.261,0.228C96.605,165.214,96.626,166.112,95.326,166.554z"/>
<path fill-rule="evenodd" clip-rule="evenodd" fill="#fafd30" class="fill" d="M96.358,135.57c0.232,1.136,0.423,2.18-0.522,3.194
	C95.18,137.004,95.288,136.352,96.358,135.57z"/>
<path fill-rule="evenodd" clip-rule="evenodd" fill="#fafd30" class="fill" d="M83.698,166.999c-0.506-1.402-0.492-1.438,0.942-2.354
	C85.138,165.92,85.116,165.975,83.698,166.999z"/>
<path fill-rule="evenodd" clip-rule="evenodd" fill="#fafd30" class="fill" d="M97.113,59.668c0.238,1.625,0.238,1.625-1.26,2.929
	c-0.134-0.36-0.251-0.674-0.376-1.011C95.999,60.974,96.482,60.407,97.113,59.668z"/>
<path fill-rule="evenodd" clip-rule="evenodd" fill="#fafd30" class="fill" d="M84.593,151.979c-0.085,1.223,0.606,2.398-0.955,3.313
	C83.822,154.034,83.061,152.841,84.593,151.979z"/>
<path fill-rule="evenodd" clip-rule="evenodd" fill="#fafd30" class="fill" d="M96.435,131.159c0.136,1.326,0.463,2.327-0.818,3.022
	c-0.159-0.535-0.307-1.029-0.493-1.655C95.502,132.132,95.874,131.743,96.435,131.159z"/>
<path fill-rule="evenodd" clip-rule="evenodd" fill="#fafd30" class="fill" d="M83.667,159.31c0.037-0.947-0.428-2.032,0.692-2.784
	C84.935,158.096,84.871,158.399,83.667,159.31z"/>
<path fill-rule="evenodd" clip-rule="evenodd" fill="#fafd30" class="fill" d="M94.999,115.917c-0.047-0.493-0.081-0.815-0.108-1.139
	c-0.018-0.212-0.025-0.425-0.045-0.765c0.423-0.099,0.809-0.188,1.146-0.268c0.137,0.197,0.251,0.285,0.246,0.365
	C96.176,115.239,96.172,115.239,94.999,115.917z"/>
<path fill-rule="evenodd" clip-rule="evenodd" fill="#fafd30" class="fill" d="M95.164,152.245c-0.469-1.193,0.327-1.752,1.121-2.376
	C96.634,151.268,96.462,151.62,95.164,152.245z"/>
<path fill-rule="evenodd" clip-rule="evenodd" fill="#fafd30" class="fill" d="M81.916,53.269c-0.104-0.74-0.174-1.24-0.247-1.763
	c0.394-0.358,0.737-0.669,1.183-1.073C83.33,51.596,83.127,52.405,81.916,53.269z"/>
<path fill-rule="evenodd" clip-rule="evenodd" fill="#fafd30" class="fill" d="M83.361,122.181c-0.098-0.702-0.162-1.161-0.228-1.634
	c0.388-0.337,0.743-0.646,1.108-0.962C84.771,120.762,84.771,120.762,83.361,122.181z"/>
<path fill-rule="evenodd" clip-rule="evenodd" fill="#fafd30" class="fill" d="M82.894,46.951c0.476,1.143,0.159,1.879-0.769,2.418
	C81.558,48.102,81.564,48.079,82.894,46.951z"/>
<path fill-rule="evenodd" clip-rule="evenodd" fill="#fafd30" class="fill" d="M84.58,145.216c0.174,1.062,0.099,1.855-0.873,2.311
	C83.18,146.157,83.233,146.008,84.58,145.216z"/>
<path fill-rule="evenodd" clip-rule="evenodd" fill="#fafd30" class="fill" d="M95.221,130.425c-0.473-1.244,0.397-1.697,0.987-2.302
	C96.866,129.095,96.789,129.284,95.221,130.425z"/>
<path fill-rule="evenodd" clip-rule="evenodd" fill="#fafd30" class="fill" d="M95.343,162.988c-0.483-1.034,0.1-1.694,0.73-2.402
	C96.731,161.833,96.666,162.04,95.343,162.988z"/>
<path fill-rule="evenodd" clip-rule="evenodd" fill="#fafd30" class="fill" d="M95.529,170.075c-0.073-0.689-0.123-1.167-0.184-1.749
	c0.292-0.242,0.601-0.499,1.029-0.854C96.679,168.575,96.845,169.435,95.529,170.075z"/>
<path fill-rule="evenodd" clip-rule="evenodd" fill="#fafd30" class="fill" d="M95.662,173.312c-0.363-1.509-0.351-1.544,0.884-2.372
	c0.08,0.502,0.149,0.938,0.228,1.434C96.396,172.692,96.055,172.98,95.662,173.312z"/>
<path fill-rule="evenodd" clip-rule="evenodd" fill="#fafd30" class="fill" d="M96.129,41.069c0.558,0.111,1.004,0.2,1.882,0.375
	c-0.75,0.714-1.174,1.118-1.882,1.792C96.129,42.334,96.129,41.813,96.129,41.069z"/>
<path fill-rule="evenodd" clip-rule="evenodd" fill="#fafd30" class="fill" d="M84.567,126.097c0.179,0.929,0.426,1.801-0.7,2.31
	C83.238,126.968,83.241,126.959,84.567,126.097z"/>
<path fill-rule="evenodd" clip-rule="evenodd" fill="#fafd30" class="fill" d="M95.343,148.64c-0.318-0.968-0.247-1.757,0.729-2.3
	C96.639,147.488,96.577,147.682,95.343,148.64z"/>
<path fill-rule="evenodd" clip-rule="evenodd" fill="#fafd30" class="fill" d="M96.306,153.298c0.185,1.082-0.182,1.73-0.894,2.247
	C94.89,154.482,94.89,154.482,96.306,153.298z"/>
<path fill-rule="evenodd" clip-rule="evenodd" fill="#fafd30" class="fill" d="M81.162,76.544c-0.308-1.305-0.308-1.305,0.884-2.103
	C82.506,75.82,82.486,75.869,81.162,76.544z"/>
<path fill-rule="evenodd" clip-rule="evenodd" fill="#fafd30" class="fill" d="M84.547,141.51c0.409,1.072,0.382,1.854-0.615,2.358
	C83.449,142.541,83.449,142.541,84.547,141.51z"/>
<path fill-rule="evenodd" clip-rule="evenodd" fill="#fafd30" class="fill" d="M84.001,32.198c-0.517,0.67-1.035,1.341-1.738,2.254
	c-0.065-1.895-0.02-1.962,1.421-2.516C83.79,32.023,83.896,32.11,84.001,32.198z"/>
<path fill-rule="evenodd" clip-rule="evenodd" fill="#fafd30" class="fill" d="M97.072,36.748c-0.547-0.033-0.799-0.049-1.073-0.065
	c-0.387-0.928,0.056-1.461,0.869-2.096C96.94,35.349,96.996,35.946,97.072,36.748z"/>
<path fill-rule="evenodd" clip-rule="evenodd" fill="#fafd30" class="fill" d="M83.827,136.477c-0.509-1.502-0.498-1.534,0.779-2.276
	C84.857,135.154,84.904,135.987,83.827,136.477z"/>
<path fill-rule="evenodd" clip-rule="evenodd" fill="#fafd30" class="fill" d="M83.39,176.164c0.44-0.359,0.879-0.718,1.514-1.237
	c0.123,0.65,0.205,1.083,0.33,1.744c-0.606,0.042-1.07,0.074-1.534,0.106C83.597,176.573,83.494,176.368,83.39,176.164z"/>
<path fill-rule="evenodd" clip-rule="evenodd" fill="#fafd30" class="fill" d="M81.035,79.19c-0.072-1.132,0.479-1.479,1.254-1.854
	c0.033,0.597,0.059,1.062,0.091,1.666C81.937,79.065,81.557,79.117,81.035,79.19z"/>
<path fill-rule="evenodd" clip-rule="evenodd" fill="#fafd30" class="fill" d="M83.725,150.706c-0.359-0.858-0.293-1.525,0.604-1.998
	C84.835,149.956,84.835,149.956,83.725,150.706z"/>
<path fill-rule="evenodd" clip-rule="evenodd" fill="#fafd30" class="fill" d="M96.424,73.947c0.385,1.134-0.454,1.443-0.953,2.038
	C95.243,74.901,95.243,74.901,96.424,73.947z"/>
<path fill-rule="evenodd" clip-rule="evenodd" fill="#fafd30" class="fill" d="M83.49,124.882c-0.499-1.092,0.408-1.352,1.024-2.095
	C84.437,124.167,84.437,124.167,83.49,124.882z"/>
<path fill-rule="evenodd" clip-rule="evenodd" fill="#fafd30" class="fill" d="M83.393,34.712c0,0.72,0,1.11,0,1.591
	c-0.413,0.019-0.757,0.033-1.189,0.053C82.167,35.56,82.729,35.321,83.393,34.712z"/>
<path fill-rule="evenodd" clip-rule="evenodd" fill="#fafd30" class="fill" d="M96.464,32.705c-0.179,0.464-0.359,0.928-0.56,1.448
	C94.955,33.245,94.955,33.245,96.464,32.705z"/>
<path fill-rule="evenodd" clip-rule="evenodd" fill="#fafd30" class="fill" d="M96.472,143.669c-0.259,0.438-0.518,0.874-0.903,1.523
	c-0.263-1.266-0.263-1.266,0.593-1.733C96.266,143.529,96.369,143.599,96.472,143.669z"/>
<path fill-rule="evenodd" clip-rule="evenodd" fill="#fafd30" class="fill" d="M96.402,140.364c-0.132,0.454-0.265,0.908-0.463,1.591
	C95.417,140.891,95.417,140.891,96.402,140.364z"/>
<path fill-rule="evenodd" clip-rule="evenodd" fill="#fafd30" class="fill" d="M94.793,109.06c-3.805,0.168-7.451,0.33-11.235,0.498
	c-0.715-4.486,0.315-8.788,0.129-13.09c-0.185-4.267,0.174-8.52,0.135-12.94c3.802-0.167,7.318,0.12,11.053,0.207
	C94.932,92.189,95.406,100.497,94.793,109.06z"/>
</svg>
