<svg version="1.1" id="svg" xmlns="http://www.w3.org/2000/svg" xmlns:xlink="http://www.w3.org/1999/xlink" x="0px" y="0px"
	 width="200px" height="200px" viewBox="0 0 200 200" enable-background="new 0 0 200 200" xml:space="preserve">
<path class="stroke" fill="#252b56"  fill-rule="evenodd" clip-rule="evenodd" d="M113.292,98.787c-0.481-0.057-0.96-0.081-1.426-0.172
	c-1.447-0.278-2.906-0.524-4.331-0.894c-1.232-0.32-1.975-1.202-2.383-2.419c-1.056-3.139-1.195-6.378-1.143-9.642
	c0.018-1.085,0.152-2.168,0.146-3.25c-0.024-2.958,1.771-4.559,4.185-5.702c2.717-1.287,5.562-1.946,8.572-1.564
	c1.27-5.046,1.977-5.073,5.328-8.004c-0.139-3.066,1.238-5.643,3.166-7.965c1.298-1.562,3.014-2.53,4.993-2.973
	c1.347-0.302,2.713-0.516,4.073-0.75c1.832-0.313,3.627-0.139,5.434,0.595c1.867-3.061,4.75-4.24,8.076-4.604
	c3.38-0.367,6.285,0.851,9.001,2.797c3.519-1.302,7.103-1.627,10.398,0.401c3.339,2.054,4.692,5.317,4.441,9.36
	c2.104,0.067,3.784,0.832,5.191,2.28c1.313,1.354,2.714,2.614,3.081,4.689c0.83,0,1.605-0.028,2.377,0.004
	c2.071,0.087,4.174,0.13,5.863,1.583c0.473,0.406,0.898,0.919,1.193,1.466c1.676,3.104,1.871,6.488,1.829,9.926
	c-0.021,1.74-0.288,3.451-1.535,4.648c-1.789,1.713-3.884,3.04-6.423,3.441c-0.629,0.1-1.26,0.191-2.006,0.303
	c-0.143,1.698-0.275,3.354-0.419,5.007c-0.343,3.934-0.923,7.83-1.896,11.661c-0.437,1.721-1.513,3.098-2.632,4.404
	c-1.857,2.171-3.819,4.251-5.693,6.408c-1.094,1.261-2.562,2.021-3.954,2.767c-3.652,1.956-7.444,3.699-11.54,4.49
	c-2.895,0.561-5.854,0.925-8.798,1.079c-2.599,0.137-5.239,0.048-7.818-0.282c-2.428-0.31-4.81-1.029-7.194-1.634
	c-2.107-0.534-3.797-1.88-5.496-3.131c-2.416-1.779-4.92-3.438-7.01-5.658c-2.277-2.42-3.768-5.181-4.278-8.431
	c-0.474-3.018-0.793-6.059-1.183-9.09C113.44,99.597,113.371,99.262,113.292,98.787z M123.003,117.231
	c2.392,2.693,5.068,4.428,8.031,5.702c1.893,0.815,3.829,1.717,5.834,2.053c4.699,0.785,9.44,0.716,14.128-0.278
	c2.508-0.531,5.087-0.898,7.475-1.768c2.72-0.989,5.302-2.384,7.862-3.753c1.09-0.581,2.278-1.168,3.058-2.348
	c-0.422-0.161-0.762-0.291-1.285-0.492c0.911-0.542,1.664-0.967,2.39-1.432c0.817-0.524,1.404-1.187,1.175-2.393
	c-0.579,0.148-1.039,0.295-1.51,0.38c-0.493,0.091-0.995,0.121-1.494,0.178c-0.032-0.113-0.062-0.227-0.095-0.342
	c1.121-0.539,2.243-1.081,3.409-1.643c0-0.524,0-0.994,0-1.556c-0.93,0.208-1.76,0.393-2.875,0.643
	c0.816-1.397,2.232-1.379,3.108-2.285c0-0.43,0-0.92,0-1.412c-1.134-0.016-1.98,0.878-3.319,0.492c0.48-0.35,0.756-0.597,1.073-0.77
	c0.603-0.327,1.233-0.604,1.847-0.914c0.612-0.311,0.877-0.751,0.533-1.401c-1.021-0.176-1.818,0.807-2.965,0.424
	c0.737-1.388,2.452-1.117,3.285-2.214c0-0.389,0-0.814,0-1.38c-1.744,0.792-2.999,2.318-4.96,2.399
	c1.262-1.79,3.49-2.434,4.816-4.144c-0.677,0.196-1.295,0.476-1.876,0.817c-3.225,1.901-6.694,3.146-10.358,3.846
	c-3.292,0.63-6.581,1.286-9.897,1.771c-3.981,0.582-8.004,0.336-11.965-0.119c-6.013-0.689-11.811-2.262-17.134-5.291
	c-0.251-0.143-0.574-0.162-0.864-0.239c-0.056,0.097-0.111,0.191-0.168,0.286c0.414,0.383,0.79,0.825,1.254,1.133
	c1.026,0.682,2.108,1.281,3.145,1.945c0.322,0.206,0.578,0.515,0.862,0.776c-0.068,0.099-0.138,0.195-0.207,0.293
	c-1.719-0.203-3.072-1.391-4.661-1.95c-0.391,0.822-0.07,1.427,0.496,1.884c0.882,0.709,1.82,1.35,2.735,2.018
	c0.45,0.329,0.993,0.595,0.942,1.399c-1.6-0.112-2.557-1.385-3.9-1.819c-0.09,1.08-0.107,1.13,0.586,1.679
	c0.889,0.703,1.823,1.35,2.737,2.019c0.315,0.232,0.633,0.464,0.322,1.075c-1.122-0.545-2.207-1.072-3.344-1.622
	c-0.29,0.925,0.126,1.512,0.738,1.974c0.864,0.654,1.778,1.243,2.653,1.885c0.238,0.177,0.409,0.447,0.61,0.674
	c-0.051,0.086-0.101,0.171-0.152,0.258c-1.047-0.404-2.095-0.808-3.246-1.252c-0.032,1.116,0.212,1.9,0.836,2.505
	c0.667,0.652,1.411,1.223,2.102,1.852c0.21,0.192,0.354,0.46,0.735,0.972C124.536,117.546,123.936,117.423,123.003,117.231z
	 M150.152,68.369c0.678-0.791,1.363-1.61,2.071-2.413c1.295-1.467,1.407-3.145,0.666-4.829c-0.734-1.67-1.983-2.756-3.956-2.893
	c-1.719-0.118-3.363,0.239-4.961,0.696c-2.679,0.765-4.78,2.4-5.925,4.989c-0.984,2.229-0.567,4.157,1.694,5.023
	c0.412,0.158,0.777,0.44,1.191,0.593c1.913,0.7,3.811,0.818,5.71-0.245c0.696,0.247,1.392,0.187,2.023-0.384
	c0-0.354,0-0.702,0-1.204C149.209,67.945,149.594,68.118,150.152,68.369z M157.378,100.15c0.337-1.028,0.388-1.066-0.169-1.812
	c-1.781-2.393-3.884-4.243-7.052-4.635c-1.616-0.199-3.123-0.095-4.647,0.372c-2.794,0.856-5.054,2.359-6.281,5.065
	c0.53,2.391,4.833,4.887,7.777,4.521c0.122-0.59,0.277-1.251,1.224-0.994c0.064,0.332,0.127,0.646,0.217,1.11
	c2.044-0.229,4.051-0.385,6.028-0.707c0.883-0.145,1.494-0.869,1.955-1.638c-0.254-0.275-0.473-0.513-0.652-0.707
	C156.072,99.739,156.756,100.188,157.378,100.15z M135.853,81.603c0.041-0.394,0.08-0.639,0.091-0.884
	c0.127-2.609-1.922-4.896-4.522-5.006c-3.583-0.152-6.487,1.322-8.989,3.778c-2.012,1.974-1.719,5.423,0.647,6.927
	c1.555,0.988,3.237,1.104,4.979,0.606c0.13-0.037,0.237-0.148,0.338-0.215c-0.078-0.395-0.147-0.752-0.213-1.085
	c1.008-0.404,1.049,0.527,1.448,0.957c0.409-0.198,0.755-0.365,1.117-0.541c-0.141-0.453-0.262-0.846-0.469-1.52
	c0.746,0.229,1.262,0.39,1.789,0.552C133.361,83.953,134.642,82.744,135.853,81.603z M164.466,83.337
	c3.447-1.297,6.271-3.15,8.119-6.339c-0.706-2.195-2.161-3.566-4.197-4.347c-2.323-0.89-4.691-0.542-6.987,0.036
	c-2.012,0.509-4.378,3.108-4.352,6.164c1.024,0.243,2.076,0.477,3.12,0.74c1.387,0.351,2.556,1.006,3.271,2.325
	C163.669,82.343,164.007,82.711,164.466,83.337z M159.281,68.274c0.62,0.435,1.258,0.879,1.736,1.215
	c1.292-0.227,2.392-0.5,3.506-0.595c1.151-0.099,2.316-0.021,3.63-0.021c0-0.708,0.054-1.337-0.011-1.953
	c-0.199-1.917-1.274-3.395-2.637-4.621c-0.664-0.599-1.554-1.124-2.418-1.291c-1.482-0.288-3.026-0.374-4.54-0.343
	c-1.028,0.021-2.13,0.11-3.171,0.825C157.334,63.438,158.391,65.788,159.281,68.274z M157.672,93.937
	c3.72,1.017,6.177,3.177,7.431,6.658c0.974-0.203,1.851-0.417,2.632-1.124c-0.36-0.259-0.621-0.445-0.958-0.686
	c0.233-0.3,0.423-0.546,0.65-0.839c0.433,0.242,0.785,0.44,1.115,0.627c1.772-1.738,2.715-3.387,2.925-5.067
	C167.989,90.831,161.034,90.946,157.672,93.937z M148.498,81.756c-0.909-0.294-1.721-0.747-2.555-0.794
	c-3.037-0.17-5.82,0.825-8.43,2.264c-1.24,0.684-2.213,1.698-2.508,3.37c3.193-0.514,5.979,0.342,8.656,1.688
	c1.053,0.528,2.07,0.53,2.979-0.111C147.244,86.085,147.827,84.07,148.498,81.756z M150.514,75.988
	c0.401,0.533,0.689,0.915,0.971,1.291c0.693,0.374,1.375,0.742,2.029,1.095c0.662-1.124,1.195-2.24,1.923-3.214
	c0.726-0.972,1.645-1.803,2.613-2.838c-0.741-0.709-1.39-1.33-2.059-1.97c-0.595,0.369-0.989,0.669-1.427,0.873
	c-1.064,0.494-2.119,1.042-3.233,1.389c-1.9,0.592-3.811,0.066-5.712-0.162c-0.471-0.058-0.944-0.081-1.436-0.122
	c-1,1.324-1.927,2.546-1.696,4.314c1.019-0.115,1.894-0.212,2.86-0.321c0-0.382,0-0.73,0-1.043c1.021-0.34,0.856,0.659,1.326,1.013
	c0.977,0.09,2.001,0.184,3.014,0.275C149.928,76.4,150.154,76.241,150.514,75.988z M159.688,90.057c0.582,0,1.059,0.05,1.521-0.007
	c2.416-0.297,4.799-0.37,7.16,0.464c0.506,0.18,1.272-0.05,1.799-0.322c1.264-0.654,1.979-1.855,2.739-3.051
	c-1.195-1.206-2.485-2.181-4.018-2.789c-2.157-0.854-4.255-0.293-6.105,0.745C161.012,86.092,160.155,87.928,159.688,90.057z
	 M154.494,89.427c1.225-1.29,2.241-2.584,3.483-3.604c1.215-1.001,2.659-1.725,4.075-2.614c-1.382-1.597-3.044-1.626-4.729-1.437
	c-2.27,0.253-3.938,1.639-5.603,3.057c-1.654,1.408-2.374,3.199-2.478,5.303c-0.007,0.134,0.078,0.273,0.143,0.482
	c0.377-0.038,0.747-0.075,1.084-0.111c0.084-0.402,0.146-0.712,0.223-1.082c1.194,0.18,1.824,1.747,3.146,1.098
	c-0.198-0.389-0.395-0.776-0.723-1.423C153.811,89.261,154.168,89.348,154.494,89.427z M180.477,73.462
	c0.676-0.065,1.201-0.135,1.729-0.165c2.318-0.123,4.056,1.104,4.4,3.359c0.317,2.086,0.424,4.207,0.553,6.317
	c0.124,2.009-0.365,2.734-2.318,3.405c-1.337,0.459-2.723,0.778-4.206,1.194c-0.043,0.174-0.115,0.467-0.234,0.951
	c1.785-0.365,3.396-0.585,4.941-1.035c2.354-0.685,3.997-2.17,4.276-4.733c0.318-2.93,0.095-5.803-1.434-8.429
	c-0.214-0.368-0.536-0.707-0.88-0.961c-2.09-1.534-4.424-1.241-6.828-1.007C180.477,72.753,180.477,72.981,180.477,73.462z
	 M115.71,94.462c0.056-0.145,0.11-0.29,0.166-0.436c-0.401-0.169-0.788-0.429-1.202-0.487c-1.22-0.172-2.451-0.245-3.675-0.389
	c-1.285-0.15-2.095-0.88-2.28-2.159c-0.433-2.967-1.099-5.901-0.669-8.956c0.411-2.932,2.351-4.876,5.354-5.106
	c0.838-0.063,1.665-0.24,2.662-0.39c-0.277-0.26-0.348-0.382-0.412-0.377c-2.583,0.149-5.08,0.637-7.352,1.951
	c-1.574,0.912-2.529,2.13-2.757,4.085c-0.383,3.286,0.458,6.372,1.104,9.499c0.221,1.06,0.898,1.972,2.045,2.114
	C111.023,94.104,113.37,94.253,115.71,94.462z M142.508,92.228c-1.803-3.233-8.796-4.218-10.942-1.342
	c-0.12,2.389,1.483,3.739,4.823,4.004c-0.144-0.351-0.273-0.671-0.511-1.257c0.638,0.108,1.022,0.173,1.424,0.239
	c0,0.473,0,0.79,0,1.1c0.735,0,1.413,0,1.994,0C140.435,94.001,141.475,93.111,142.508,92.228z M126.639,71.916
	c0.399,0.281,0.77,0.54,1.045,0.734c0.934-0.754,1.816-1.538,2.773-2.216c0.939-0.668,1.957-1.228,2.979-1.859
	c-5.634-3.619-10.843-0.435-12.403,4.014c0.58-0.082,1.088-0.153,1.53-0.215c0.165-0.421,0.279-0.716,0.507-1.298
	c0.502,0.568,0.854,0.967,1.224,1.386c0.592,0.119,1.216,0.244,1.913,0.384C126.331,72.581,126.447,72.33,126.639,71.916z
	 M133.538,99.836c-0.493-4.609-5.329-8.253-8.874-6.697c0.169,0.742,0.341,1.491,0.516,2.255c0.623-0.131,1.18-0.977,1.714,0.203
	c-0.468,0.251-0.903,0.481-1.335,0.713C126.576,99.789,130.508,101.565,133.538,99.836z M110.513,91.812
	c0.914,0.128,1.657,0.232,2.487,0.348c-0.684-3.893-0.901-7.575-0.106-11.279c-0.095-0.059-0.188-0.116-0.283-0.175
	c-0.911,0.521-1.824,1.044-2.733,1.563C109.186,85.579,109.605,88.669,110.513,91.812z M137.938,60.685
	c-3.088-2.277-8.12-0.126-9.011,2.747c0.688,0.071,1.35,0.139,2.039,0.209c0.131-0.327,0.23-0.584,0.363-0.92
	c0.324,0.115,0.626,0.224,0.949,0.34c-0.027,0.344-0.048,0.614-0.065,0.844c0.868,0.527,1.695,1.026,2.488,1.507
	C135.801,63.805,136.868,62.248,137.938,60.685z M169.977,65.791c1.006,1.203,1.926,2.303,2.914,3.481
	c-0.072,0.182-0.193,0.487-0.301,0.759c1.045,1.569,3.319,2.669,5.33,2.591c0.334-1.128,0.009-2.167-0.634-3.054
	c-1.17-1.611-2.651-2.915-4.417-3.854C171.96,65.23,171.016,65.265,169.977,65.791z M124.023,74.366
	c-2.144-0.041-3.805,0.515-5.328,1.589c-1.567,1.104-2.365,2.482-1.646,4.471c0.415,0.083,0.871,0.174,1.242,0.247
	c0.604,0.93-0.419,0.816-0.664,1.202c0.219,0.26,0.404,0.481,0.58,0.69c0.543-0.27,1.039-0.515,1.748-0.865
	c0.07-0.962,0.149-2.045,0.231-3.16c0.306,0,0.725,0,1.117,0C122.172,77.207,123.001,75.936,124.023,74.366z M185.471,84.656
	c0.4-2.524,0.066-4.797-0.808-7.137c-0.828-0.209-1.648-0.416-2.448-0.62c0.271,3.005,0.523,5.801,0.793,8.783
	C183.789,85.358,184.616,85.013,185.471,84.656z M154.961,55.46c-2.936-2.547-9.719-1.481-11.086,0.525
	c0.348,0.312,0.702,0.632,1.064,0.959c1.208-0.187,2.372-0.365,3.514-0.542c0.205-0.323,0.408-0.643,0.621-0.979
	c0.658,0.48,1.007,0.734,1.494,1.088c1.126,0,2.396,0,3.748,0C154.525,56.172,154.747,55.809,154.961,55.46z M168.346,57.658
	c-1.043-1.354-2.102-2.49-3.857-2.422c-1.61,0.063-3.233,0.206-4.814,0.504c-1.088,0.204-2.229,0.521-3.134,1.689
	c1.089-0.146,1.947-0.263,2.79-0.377c0.101-0.311,0.185-0.572,0.351-1.091c0.538,0.483,0.941,0.842,1.276,1.143
	c1.183,0.373,2.289,0.776,3.426,1.065C165.682,58.501,166.979,58.526,168.346,57.658z M176.482,83.955
	c2.01-0.608,2.716-2.017,2.998-3.715c-0.913-1.677-2.061-2.31-3.753-2.144C175.971,79.984,176.214,81.872,176.482,83.955z
	 M143.204,56.562c-0.266,0.384-0.473,0.682-0.681,0.979c0.049,0.078,0.1,0.157,0.147,0.235c0.344-0.12,0.688-0.241,1.175-0.411
	C143.562,57.011,143.422,56.835,143.204,56.562z"/>
<path class="stroke" fill="#252b56"  fill-rule="evenodd" clip-rule="evenodd" d="M86.082,69.937c2.118-0.512,4.066-0.387,6.021,0.017
	c2.386,0.492,4.264,1.604,4.977,4.077c0.422,1.46,0.804,2.947,1.006,4.449c0.248,1.851,0.441,3.734,0.391,5.597
	c-0.1,3.611-1.896,6.14-5.321,7.417c-1.513,0.563-3.049,1.063-4.685,1.631c-0.197,1.771-0.398,3.628-0.614,5.483
	c-0.299,2.592-0.318,5.227-1.171,7.737c-1.517,4.466-3.259,8.881-6.713,12.195c-2.436,2.339-4.86,4.77-7.798,6.54
	c-2.132,1.284-4.396,2.236-6.868,2.631c-2.432,0.39-4.867,0.766-7.303,1.14c-3.566,0.546-7.11,0.108-10.602-0.495
	c-5.541-0.957-10.757-2.965-15.523-5.93c-2.286-1.424-4.479-3.153-6.292-5.131c-1.495-1.63-2.537-3.754-3.477-5.798
	c-1.497-3.255-2.128-6.759-2.344-10.336c-0.032-0.531-0.196-1.056-0.323-1.7c-0.477-0.109-0.939-0.234-1.41-0.316
	c-0.484-0.082-0.983-0.087-1.466-0.185c-3.848-0.772-5.287-2.38-5.985-5.827c-0.49-2.412-0.795-4.873-0.999-7.327
	c-0.104-1.255,0.102-2.562,0.324-3.815c0.398-2.234,1.739-3.913,3.688-4.938c2.089-1.099,4.279-2.06,6.722-2.094
	c0.677-0.01,1.355,0.064,2.099,0.104c2.425-3.513,5.673-6.223,9.479-8.198c1.908-0.992,3.998-1.698,6.079-2.282
	c3.459-0.969,6.95-1.857,10.476-2.55c2.749-0.541,5.561-0.862,8.359-1.049c3.344-0.224,6.699-0.22,10.014,0.515
	c1.489,0.33,3.031,0.431,4.515,0.78c3.261,0.77,6.448,1.801,9.545,3.083C83.071,66.267,84.904,67.651,86.082,69.937z M17.689,82.488
	c-1.981,2.699-1.683,5.41-0.689,8.147c0.393,1.078,1.314,1.458,2.596,1.624c0-3.457,0-6.768,0-10.222
	C18.934,82.193,18.244,82.357,17.689,82.488z M89.479,85.566c1.151-0.327,2.028-0.892,2.303-1.978
	c0.477-1.883,0.616-3.811-0.008-5.693c-0.182-0.542-0.533-1.069-0.928-1.485c-0.749-0.787-1.664-0.969-2.913-0.34
	C89.72,78.988,88.777,82.305,89.479,85.566z"/>
<path class="stroke" fill="#252b56"  fill-rule="evenodd" clip-rule="evenodd" d="M140.905,68.185c0.688,0,1.032,0,1.52,0c-0.1,0.411-0.164,0.687-0.308,1.285
	C141.649,68.975,141.377,68.683,140.905,68.185z"/>
<path class="stroke" fill="#252b56"  fill-rule="evenodd" clip-rule="evenodd" d="M144.781,65.562c-0.68,0.378-0.68,0.378-1.094-0.462
	C144.223,64.909,144.575,65.024,144.781,65.562z"/>
<path class="stroke" fill="#252b56"  fill-rule="evenodd" clip-rule="evenodd" d="M144.19,68.418c0.294,0.212,0.589,0.423,0.989,0.711
	C144.201,69.512,144.201,69.512,144.19,68.418z"/>
<path class="stroke" fill="#252b56"  fill-rule="evenodd" clip-rule="evenodd" d="M148.001,65.938c0.373,0.22,0.667,0.393,1.057,0.622
	c-0.214,0.226-0.328,0.45-0.452,0.458C147.889,67.062,147.734,66.705,148.001,65.938z"/>
<path class="stroke" fill="#252b56"  fill-rule="evenodd" clip-rule="evenodd" d="M140.188,66.547c-0.353,0.314-0.488,0.435-0.774,0.689
	c-0.214-0.38-0.384-0.684-0.556-0.988c0.08-0.074,0.16-0.149,0.239-0.223C139.396,66.168,139.695,66.312,140.188,66.547z"/>
<path class="stroke" fill="#252b56"  fill-rule="evenodd" clip-rule="evenodd" d="M152.229,64.908c-0.652,0.356-0.98,0.172-1.156-0.505
	C151.73,64.024,152.053,64.226,152.229,64.908z"/>
<path class="stroke" fill="#252b56"  fill-rule="evenodd" clip-rule="evenodd" d="M139.655,63.074c0.683-0.063,1.052,0.039,0.981,0.785
	C140.021,64.008,139.732,63.787,139.655,63.074z"/>
<path class="stroke" fill="#252b56"  fill-rule="evenodd" clip-rule="evenodd" d="M154.655,98.253c0.346-0.889,0.771-0.939,1.388-0.631
	C155.884,98.472,155.413,98.444,154.655,98.253z"/>
<path class="stroke" fill="#252b56"  fill-rule="evenodd" clip-rule="evenodd" d="M146.098,100.198c0.303-0.576,0.649-0.962,1.489-0.044
	c-0.544,0.194-0.944,0.34-1.346,0.484C146.193,100.492,146.146,100.346,146.098,100.198z"/>
<path class="stroke" fill="#252b56"  fill-rule="evenodd" clip-rule="evenodd" d="M144.482,101.079c-0.046,0.954-0.458,1.077-1.15,0.839
	C143.595,101.196,143.595,101.196,144.482,101.079z"/>
<path class="stroke" fill="#252b56"  fill-rule="evenodd" clip-rule="evenodd" d="M152.922,101.922c0.335-0.813,0.712-0.999,1.334-0.502
	C153.803,102.035,153.803,102.035,152.922,101.922z"/>
<path class="stroke" fill="#252b56"  fill-rule="evenodd" clip-rule="evenodd" d="M149.945,101.996c0.264-0.238,0.525-0.476,0.85-0.767
	c0.219,0.266,0.361,0.438,0.68,0.823c-0.561,0.165-0.945,0.278-1.33,0.391C150.078,102.295,150.012,102.146,149.945,101.996z"/>
<path class="stroke" fill="#252b56"  fill-rule="evenodd" clip-rule="evenodd" d="M141.264,99.611c0.105-0.688,0.531-0.77,1.105-0.651
	C142.33,99.993,142.302,100.012,141.264,99.611z"/>
<path class="stroke" fill="#252b56"  fill-rule="evenodd" clip-rule="evenodd" d="M151.642,99.418c-0.341,0.164-0.683,0.328-1.183,0.568
	c-0.01-1.118,0.452-1.117,0.968-1.028C151.498,99.112,151.569,99.266,151.642,99.418z"/>
<path class="stroke" fill="#252b56"  fill-rule="evenodd" clip-rule="evenodd" d="M124.356,86.285c0.675-0.832,0.675-0.832,1.448-0.041
	C125.324,86.852,124.864,86.683,124.356,86.285z"/>
<path class="stroke" fill="#252b56"  fill-rule="evenodd" clip-rule="evenodd" d="M133.38,82.354c-0.872,0.42-1.136,0.069-1.252-0.624
	C132.897,81.614,132.897,81.614,133.38,82.354z"/>
<path class="stroke" fill="#252b56"  fill-rule="evenodd" clip-rule="evenodd" d="M122.726,84.304c0.522-0.333,0.891-0.179,1.208,0.3
	C123.221,85.019,123.221,85.019,122.726,84.304z"/>
<path class="stroke" fill="#252b56"  fill-rule="evenodd" clip-rule="evenodd" d="M127.217,82.937c0.334,0.079,0.668,0.158,1.132,0.269
	c-0.196,0.356-0.316,0.575-0.519,0.941c-0.33-0.361-0.562-0.614-0.793-0.867C127.098,83.165,127.157,83.051,127.217,82.937z"/>
<path class="stroke" fill="#252b56"  fill-rule="evenodd" clip-rule="evenodd" d="M123.104,80.491c0.572,0.286,0.884,0.441,1.243,0.621
	C123.533,81.767,123.533,81.767,123.104,80.491z"/>
<path class="stroke" fill="#252b56"  fill-rule="evenodd" clip-rule="evenodd" d="M133.948,80.005c-0.66,0.282-1.032,0.244-1.243-0.417
	C133.27,79.164,133.627,79.227,133.948,80.005z"/>
<path class="stroke" fill="#252b56"  fill-rule="evenodd" clip-rule="evenodd" d="M160.604,75.898c0.676,0.306,1.03,0.466,1.442,0.652
	C161.194,77.362,161.188,77.372,160.604,75.898z"/>
<path class="stroke" fill="#252b56"  fill-rule="evenodd" clip-rule="evenodd" d="M162.278,79.421c-0.786,0.391-1.042-0.016-1.266-0.711
	C161.766,78.474,162.188,78.591,162.278,79.421z"/>
<path class="stroke" fill="#252b56"  fill-rule="evenodd" clip-rule="evenodd" d="M164.152,80.438c-0.913,0.829-1.073,0.335-1.307-0.607
	C163.446,80.11,163.799,80.273,164.152,80.438z"/>
<path class="stroke" fill="#252b56"  fill-rule="evenodd" clip-rule="evenodd" d="M166.141,77.565c0.303,0.206,0.605,0.412,0.989,0.676
	C166.301,78.634,166.301,78.634,166.141,77.565z"/>
<path class="stroke" fill="#252b56"  fill-rule="evenodd" clip-rule="evenodd" d="M158.141,77.184c0.437,0.139,0.761,0.243,1.174,0.376
	c-0.129,0.281-0.168,0.544-0.279,0.581C158.311,78.372,158.149,77.964,158.141,77.184z"/>
<path class="stroke" fill="#252b56"  fill-rule="evenodd" clip-rule="evenodd" d="M165.656,81.019c0.271,0.19,0.542,0.38,0.973,0.682
	c-0.825,0.393-1.072,0.15-1.188-0.343C165.512,81.244,165.584,81.132,165.656,81.019z"/>
<path class="stroke" fill="#252b56"  fill-rule="evenodd" clip-rule="evenodd" d="M164.901,67.459c-0.864,0.711-1.036,0.324-1.13-0.611
	C164.274,67.12,164.588,67.289,164.901,67.459z"/>
<path class="stroke" fill="#252b56"  fill-rule="evenodd" clip-rule="evenodd" d="M165.835,66.691c0.284,0.165,0.569,0.329,0.938,0.542
	c-0.747,0.664-0.956,0.26-1.144-0.197C165.698,66.922,165.767,66.807,165.835,66.691z"/>
<path class="stroke" fill="#252b56"  fill-rule="evenodd" clip-rule="evenodd" d="M162.057,68.523c-0.593,0.184-0.927,0.094-0.979-0.641
	C161.66,67.716,162.018,67.767,162.057,68.523z"/>
<path class="stroke" fill="#252b56"  fill-rule="evenodd" clip-rule="evenodd" d="M159.317,64.6c0.266,0.187,0.53,0.372,0.939,0.66
	c-0.746,0.314-1.031,0.143-1.167-0.337C159.166,64.815,159.242,64.708,159.317,64.6z"/>
<path class="stroke" fill="#252b56"  fill-rule="evenodd" clip-rule="evenodd" d="M165.102,99.485c0.236-0.822,0.613-0.991,1.28-0.73
	C166.379,99.644,165.924,99.701,165.102,99.485z"/>
<path class="stroke" fill="#252b56"  fill-rule="evenodd" clip-rule="evenodd" d="M169.955,95.154c0.008,0.746-0.479,0.792-1.037,0.818
	C168.984,95.023,168.984,95.023,169.955,95.154z"/>
<path class="stroke" fill="#252b56"  fill-rule="evenodd" clip-rule="evenodd" d="M166.117,96.65c0.3-0.696,0.623-0.954,1.28-0.552
	C167.217,96.787,166.87,96.988,166.117,96.65z"/>
<path class="stroke" fill="#252b56"  fill-rule="evenodd" clip-rule="evenodd" d="M163.452,96.973c0.419-0.645,0.746-0.943,1.373-0.464
	C164.605,97.224,164.185,97.254,163.452,96.973z"/>
<path class="stroke" fill="#252b56"  fill-rule="evenodd" clip-rule="evenodd" d="M141.955,86.417c0.875-0.376,1.256-0.19,1.332,0.633
	C142.529,87.156,142.529,87.156,141.955,86.417z"/>
<path class="stroke" fill="#252b56"  fill-rule="evenodd" clip-rule="evenodd" d="M145.108,83.825c-1.261,0.418-1.261,0.418-1.358-0.705
	C144.172,83.338,144.492,83.506,145.108,83.825z"/>
<path class="stroke" fill="#252b56"  fill-rule="evenodd" clip-rule="evenodd" d="M139.778,85.621c-0.291-0.22-0.585-0.438-0.982-0.737
	c0.978-0.324,0.978-0.324,1.208,0.48C139.929,85.448,139.854,85.534,139.778,85.621z"/>
<path class="stroke" fill="#252b56"  fill-rule="evenodd" clip-rule="evenodd" d="M144.489,86.213c0.333,0.131,0.665,0.264,1.089,0.431
	c-0.717,0.625-0.717,0.625-1.223-0.109C144.4,86.427,144.445,86.32,144.489,86.213z"/>
<path class="stroke" fill="#252b56"  fill-rule="evenodd" clip-rule="evenodd" d="M144.408,75.128c-0.297-0.251-0.594-0.501-1.076-0.906
	c0.977-0.278,1.388-0.178,1.388,0.548C144.615,74.889,144.512,75.008,144.408,75.128z"/>
<path class="stroke" fill="#252b56"  fill-rule="evenodd" clip-rule="evenodd" d="M147.719,74.771c0.504,0.269,0.781,0.416,1.079,0.574
	C148.104,76.043,148.104,76.043,147.719,74.771z"/>
<path class="stroke" fill="#252b56"  fill-rule="evenodd" clip-rule="evenodd" d="M153.295,73.066c0.216,0.183,0.431,0.367,0.742,0.633
	C153.309,74.039,153.138,73.756,153.295,73.066z"/>
<path class="stroke" fill="#252b56"  fill-rule="evenodd" clip-rule="evenodd" d="M163.079,88.904c-0.327-0.52-0.511-0.813-0.716-1.139
	c0.621-0.436,0.974-0.254,1.313,0.324C163.542,88.274,163.394,88.479,163.079,88.904z"/>
<path class="stroke" fill="#252b56"  fill-rule="evenodd" clip-rule="evenodd" d="M166.062,89.359c-0.796,0.037-1.024-0.258-0.925-0.942
	C165.85,88.308,166.152,88.534,166.062,89.359z"/>
<path class="stroke" fill="#252b56"  fill-rule="evenodd" clip-rule="evenodd" d="M168.536,88.118c0.418,0.401,0.657,0.631,0.949,0.911
	c-0.249,0.166-0.364,0.312-0.473,0.305C168.402,89.295,168.177,89.003,168.536,88.118z"/>
<path class="stroke" fill="#252b56"  fill-rule="evenodd" clip-rule="evenodd" d="M164.658,85.896c0.833-0.011,1.074,0.289,0.903,0.992
	C164.859,86.908,164.629,86.599,164.658,85.896z"/>
<path class="stroke" fill="#252b56"  fill-rule="evenodd" clip-rule="evenodd" d="M154.573,87.097c-0.992,0.494-0.992,0.494-1.041-0.616
	C153.938,86.721,154.254,86.907,154.573,87.097z"/>
<path class="stroke" fill="#252b56"  fill-rule="evenodd" clip-rule="evenodd" d="M149.764,88.09c1.012-0.174,1.331,0.095,1.325,0.875
	C150.203,89.159,150.15,88.601,149.764,88.09z"/>
<path class="stroke" fill="#252b56"  fill-rule="evenodd" clip-rule="evenodd" d="M156.924,84.616c0.812,0.264,0.812,0.264,0.59,0.924
	C156.918,85.479,156.775,85.177,156.924,84.616z"/>
<path class="stroke" fill="#252b56"  fill-rule="evenodd" clip-rule="evenodd" d="M136.096,91.894c-0.422-0.144-0.844-0.285-1.422-0.48
	C135.793,90.737,135.793,90.737,136.096,91.894z"/>
<path class="stroke" fill="#252b56"  fill-rule="evenodd" clip-rule="evenodd" d="M139.8,92.554c-0.824,0.515-1.025,0.106-1.22-0.511
	C139.191,91.732,139.525,91.893,139.8,92.554z"/>
<path class="stroke" fill="#252b56"  fill-rule="evenodd" clip-rule="evenodd" d="M134.988,93.104c-0.707,0.352-1.055,0.226-1.188-0.507
	C134.379,92.231,134.687,92.459,134.988,93.104z"/>
<path class="stroke" fill="#252b56"  fill-rule="evenodd" clip-rule="evenodd" d="M125.406,70.481c0.277,0.265,0.556,0.531,0.963,0.919
	c-1.024,0.353-1.25,0.001-1.353-0.508C125.146,70.756,125.276,70.619,125.406,70.481z"/>
<path class="stroke" fill="#252b56"  fill-rule="evenodd" clip-rule="evenodd" d="M129.502,69.736c-0.725,0.419-0.979,0.191-1.134-0.397
	C128.915,68.874,129.128,69.271,129.502,69.736z"/>
<path class="stroke" fill="#252b56"  fill-rule="evenodd" clip-rule="evenodd" d="M126.889,97.694c0.35-0.205,0.709-0.415,1.069-0.627
	c0.09,0.068,0.181,0.137,0.271,0.204c-0.065,0.277-0.041,0.668-0.216,0.808C127.659,98.359,127.214,98.434,126.889,97.694z"/>
<path class="stroke" fill="#252b56"  fill-rule="evenodd" clip-rule="evenodd" d="M131.45,99.379c0.325-0.689,0.684-0.888,1.343-0.526
	C132.565,99.524,132.268,99.845,131.45,99.379z"/>
<path class="stroke" fill="#252b56"  fill-rule="evenodd" clip-rule="evenodd" d="M130.207,98.843c0.101,1.081-0.458,0.941-1.089,0.824
	C129.149,98.992,129.492,98.812,130.207,98.843z"/>
<path class="stroke" fill="#252b56"  fill-rule="evenodd" clip-rule="evenodd" d="M130.559,97.028c-0.346,0.167-0.69,0.332-1.264,0.608
	c0.172-0.978,0.502-1.175,1.055-1.013C130.419,96.759,130.488,96.895,130.559,97.028z"/>
<path class="stroke" fill="#252b56"  fill-rule="evenodd" clip-rule="evenodd" d="M133.694,64.259c-0.237-0.202-0.475-0.401-0.824-0.697
	c0.741-0.323,0.944-0.031,1.093,0.362C133.874,64.034,133.785,64.146,133.694,64.259z"/>
<path class="stroke" fill="#252b56"  fill-rule="evenodd" clip-rule="evenodd" d="M176.527,71.522c-0.768,0.17-1.001-0.171-1.128-0.705
	C176.208,70.624,176.208,70.624,176.527,71.522z"/>
<path class="stroke" fill="#252b56"  fill-rule="evenodd" clip-rule="evenodd" d="M174.98,69.445c-0.721,0.201-0.986-0.085-1.029-0.797
	C174.664,68.478,174.958,68.726,174.98,69.445z"/>
<path class="stroke" fill="#252b56"  fill-rule="evenodd" clip-rule="evenodd" d="M117.73,77.874c0.328,0.142,0.656,0.283,1.172,0.505
	c-0.408,0.306-0.614,0.459-0.893,0.667c-0.203-0.33-0.361-0.582-0.517-0.835C117.572,78.1,117.652,77.988,117.73,77.874z"/>
<path class="stroke" fill="#252b56"  fill-rule="evenodd" clip-rule="evenodd" d="M147.748,55.577c-0.803,0.176-1.013-0.147-1.035-0.787
	C147.352,54.645,147.788,54.681,147.748,55.577z"/>
<path class="stroke" fill="#252b56"  fill-rule="evenodd" clip-rule="evenodd" d="M163.064,57.506c-0.343-0.475-0.583-0.809-0.824-1.142
	c0.073-0.084,0.146-0.169,0.22-0.253c0.353,0.15,0.704,0.303,1.157,0.497C163.417,56.937,163.303,57.12,163.064,57.506z"/>
<path class="stroke" fill="#252b56"  fill-rule="evenodd" clip-rule="evenodd" d="M177.412,80.267c-0.369-0.099-0.588-0.102-0.725-0.209
	c-0.127-0.102-0.168-0.313-0.277-0.543C177.083,79.246,177.375,79.397,177.412,80.267z"/>
<path class="stroke" fill="#252b56"  fill-rule="evenodd" clip-rule="evenodd" d="M176.797,81.296c0.552,0.179,0.884,0.285,1.326,0.431
	C177.384,82.362,177.384,82.362,176.797,81.296z"/>
<path fill-rule="evenodd" clip-rule="evenodd" fill="#f6da41" class="fill" d="M30.869,118.438c0.189-0.442,0.332-0.772,0.479-1.114
	c-0.88-0.559-1.687-1.07-2.492-1.585c0.032-0.067,0.063-0.135,0.097-0.203c0.558,0.051,1.116,0.102,1.761,0.161
	c-0.135-1.11-1.133-1.084-1.674-1.548c-0.584-0.499-1.235-0.915-1.728-1.596c1.068,0.383,2.137,0.767,3.204,1.151
	c0.059-0.11,0.117-0.218,0.176-0.327c-0.994-1.335-2.599-1.914-3.99-3.033c-0.009-0.115-0.031-0.384-0.065-0.785
	c1.556,0.153,2.96,0.794,4.482,0.582c-1.173-1.569-3.587-1.226-4.762-3.345c1.059,0.296,1.82,0.517,2.586,0.72
	c0.767,0.202,1.53,0.251,2.287-0.023c0.041-0.731-0.444-0.727-0.849-0.873c-1.102-0.402-2.194-0.832-3.278-1.283
	c-0.431-0.182-0.753-0.481-0.421-1.088c1.44,0.388,2.824,1.147,4.448,0.759c-0.027-0.787-0.69-0.802-1.12-1.009
	c-0.976-0.468-1.99-0.854-2.965-1.326c-0.257-0.125-0.422-0.438-0.629-0.664c0.053-0.084,0.106-0.168,0.16-0.251
	c0.333,0.12,0.666,0.24,0.999,0.359c0.97,0.348,1.931,0.723,2.917,1.018c0.232,0.07,0.547-0.126,0.992-0.244
	c-1.596-1.559-3.824-1.857-5.109-3.403c0.086-0.13,0.171-0.263,0.257-0.395c0.157,0.06,0.343,0.085,0.471,0.184
	c3.189,2.425,6.917,3.55,10.751,4.342c6.168,1.273,12.413,1.533,18.699,1.264c3.27-0.14,6.496-0.533,9.668-1.287
	c1.52-0.36,2.972-1.008,4.444-1.555c0.874-0.325,1.737-0.69,2.592-1.067c2.02-0.893,3.964-1.917,5.674-3.539
	c0.106,0.937-1.266,1.057-0.745,2.099c1.475-0.174,2.288-1.53,3.738-2.221c-0.295,1.414-1.352,1.942-2.122,2.651
	c-0.783,0.718-1.686,1.306-2.612,2.009c0.983,0.969,1.707,0.084,2.367-0.259c0.766-0.398,1.405-1.042,2.154-1.622
	c0.398,0.592,0.224,0.989-0.193,1.326c-0.612,0.497-1.249,0.967-1.863,1.464c-0.452,0.368-0.883,0.762-1.371,1.188
	c0.186,0.32,0.321,0.554,0.539,0.931c0.959-0.617,1.847-1.19,3.019-1.945c-0.137,0.546-0.118,0.904-0.289,1.079
	c-0.717,0.743-1.499,1.421-2.239,2.139c-0.355,0.345-0.671,0.729-1.154,1.258c1.682,0.513,2.307-0.923,3.468-1.192
	c0.088,1.089-0.906,1.429-1.405,2.05c-0.543,0.677-1.275,1.202-1.941,1.808c0.806,0.561,0.919,0.532,2.971-0.505
	c-0.438,0.53-0.857,1.079-1.32,1.587c-0.499,0.547-1.026,1.065-1.562,1.573c-0.285,0.271-0.681,0.466-0.294,1.036
	c0.456-0.066,0.952-0.136,1.449-0.208c0.066,0.081,0.132,0.162,0.199,0.243c-0.588,0.816-1.112,1.688-1.772,2.441
	c-3.339,3.804-7.457,6.538-12.328,7.782c-3.996,1.021-8.126,1.707-12.303,1.438c-2.953-0.19-5.861-0.685-8.744-1.417
	c-3.893-0.989-7.663-2.236-11.166-4.228C32.559,119.456,31.723,118.945,30.869,118.438z"/>
<path fill-rule="evenodd" clip-rule="evenodd" fill="#f6da41" class="fill" d="M39.972,70.287c-2.052,0.943-4.169,1.77-6.142,2.858
	c-3.422,1.891-6.621,4.11-9.195,7.121c-0.479,0.561-1.006,1.083-1.521,1.612c-0.055,0.057-0.182,0.044-0.288,0.065
	c-0.33-0.683,0.126-1.164,0.507-1.569c1.548-1.653,3.086-3.321,4.732-4.872c2.537-2.385,5.564-4.075,8.637-5.644
	c1.705-0.869,3.555-1.447,5.337-2.163c0.17-0.068,0.324-0.175,0.427-0.517c-0.781,0.146-1.57,0.261-2.341,0.443
	c-3.779,0.892-6.94,3.026-10.068,5.169c-1.864,1.275-3.573,2.775-5.523,4.309c0.187-1.354,0.841-2.254,1.703-2.922
	c1.436-1.115,2.892-2.252,4.483-3.107c3.602-1.936,7.253-3.778,11.132-5.135c4.388-1.537,8.902-2.181,13.526-2.089
	c3.848,0.076,7.697,0.164,11.537,0.394c3.366,0.202,6.599,1.139,9.777,2.23c0.496,0.17,0.936,0.497,1.337,0.938
	c-0.63-0.037-1.26-0.074-1.891-0.111c-0.011,0.089-0.022,0.178-0.032,0.269c0.68,0.336,1.333,0.761,2.047,0.998
	c2.104,0.698,3.747,2.168,5.61,3.266c0.754,0.443,1.393,1.062,1.517,2.353c-0.57-0.384-0.938-0.655-1.328-0.889
	c-1.518-0.908-3.027-1.838-4.579-2.686c-0.476-0.258-1.078-0.281-1.686-0.261c3.079,1.983,6.325,3.681,8.658,6.656
	c-0.636,0.454-0.879,0.1-1.15-0.168c-1.833-1.809-4.025-2.978-6.503-3.627c-0.277-0.072-0.572-0.077-0.858-0.115
	c-0.088,0.109-0.178,0.222-0.267,0.333c0.207,0.081,0.41,0.176,0.622,0.243c2.549,0.817,4.613,2.41,6.6,4.128
	c0.299,0.258,0.68,0.44,0.919,0.739c0.268,0.336,0.418,0.765,0.499,1.247c-2.748-1.281-4.974-3.398-8.026-4.067
	c0.216,0.197,0.414,0.424,0.653,0.589c1.859,1.299,3.734,2.573,5.587,3.882c1.206,0.853,1.396,1.13,1.697,2.26
	c-0.949-0.098-1.504-0.734-2.135-1.208c-1.746-1.309-3.574-2.454-5.729-2.974c-0.134-0.032-0.28-0.016-0.79-0.039
	c2.719,1.172,4.732,2.782,6.741,4.399c0.346,0.278,0.689,0.563,1.002,0.879c0.419,0.423,0.567,0.896,0.056,1.54
	c-2.276-1.471-4.48-3.047-7.197-3.638c0.65,0.371,1.338,0.689,1.941,1.126c1.517,1.096,2.998,2.242,4.488,3.376
	c0.364,0.278,0.672,0.597,0.279,1.296c-2.33-1.932-4.829-3.51-7.888-4.434c1.435,0.943,2.716,1.754,3.962,2.616
	c1.28,0.886,2.517,1.83,3.309,3.251c-1.255-0.038-2.07-0.915-3.059-1.438c-0.993-0.523-2.027-0.968-3.102-1.355
	c1.789,1.309,3.681,2.469,5.249,4.101c-0.071,0.228-0.11,0.415-0.19,0.586c-0.062,0.129-0.174,0.237-0.24,0.324
	c-0.173-0.05-0.293-0.049-0.354-0.109c-2.707-2.659-6.015-4.475-9.268-6.309c-1.77-0.999-3.816-1.738-5.822-2.042
	c-2.707-0.409-5.51-0.501-8.248-0.337c-3.138,0.187-6.289,0.37-9.402,1.026c-2.902,0.614-5.765,1.308-8.548,2.323
	c-2.271,0.827-4.536,1.672-6.806,2.502c-3.094,1.133-5.823,2.872-8.342,4.97c-0.388,0.322-0.82,0.59-1.285,0.798
	c0.42-1.293,4.159-4.099,8.363-6.474c3.083-1.742,6.283-3.216,9.804-4.321c-1.666-0.35-3.04-0.225-4.345,0.465
	c-3.003,1.59-6.012,3.173-8.963,4.854c-1.147,0.653-2.143,1.569-3.215,2.353c-0.653,0.476-1.328,0.926-2.15,1.207
	c0.135-0.165,0.246-0.358,0.405-0.493c2.071-1.747,4.093-3.562,6.244-5.205c1.714-1.312,3.523-2.533,5.412-3.57
	c1.541-0.846,3.251-1.394,4.909-2.014c1.055-0.395,2.049-0.854,2.808-1.856c-0.646,0.161-1.312,0.269-1.935,0.493
	c-1.896,0.687-3.872,1.24-5.641,2.179c-2.166,1.151-4.223,2.545-6.198,4.007c-2.253,1.668-4.362,3.527-6.575,5.334
	c-0.61-0.5-0.34-0.93,0.082-1.332c1.468-1.392,2.889-2.835,4.42-4.15c3.836-3.287,8.021-6.059,12.568-8.273
	c1.104-0.536,2.199-1.095,3.291-1.658c0.156-0.081,0.27-0.242,0.616-0.565c-0.513,0-0.783-0.065-1.005,0.011
	c-3.284,1.122-6.326,2.73-9.233,4.614c-3.321,2.153-6.422,4.588-9.328,7.271c-0.678,0.628-1.304,1.31-1.995,2.01
	c-0.72-0.768-0.428-1.314,0.07-1.872c1.781-1.985,3.609-3.903,5.687-5.603c2.604-2.128,5.271-4.155,8.229-5.748
	c1.468-0.79,3.063-1.344,4.603-2.002c0.669-0.286,1.341-0.568,1.972-0.951c-3.01,0.295-5.754,1.303-8.353,2.823
	c-4.767,2.791-8.84,6.408-12.71,10.519c-0.301-0.654-0.263-1.173,0.125-1.659c1.775-2.243,3.592-4.456,5.908-6.18
	c1.621-1.206,3.225-2.445,4.929-3.522c1.743-1.103,3.599-2.024,5.403-3.026c0.447-0.25,1.992-1.163,2.233-1.711
	C40.774,69.849,40.373,70.068,39.972,70.287z"/>
<path fill-rule="evenodd" clip-rule="evenodd" fill="#f6da41" class="fill" d="M21.975,76.41c-0.236,0.582-0.397,0.983-0.604,1.497
	c-0.554,0-1.09-0.031-1.623,0.003c-3.074,0.198-5.028,2.108-5.253,5.147c-0.195,2.621-0.082,5.226,0.583,7.784
	c0.503,1.928,1.459,3.445,3.58,3.915c0.337,0.074,0.636,0.312,1.104,0.553c-3.376,1.045-6.352-0.207-6.931-2.997
	c-0.627-3.038-1.235-6.091-1.586-9.168c-0.168-1.473,0.606-2.867,1.743-3.938c2.24-2.11,5.03-2.8,7.977-3.062
	C21.229,76.12,21.511,76.281,21.975,76.41z"/>
<path fill-rule="evenodd" clip-rule="evenodd" fill="#f6da41" class="fill" d="M92.083,72.905c-1.539-0.151-2.952-0.291-4.597-0.453
	c-0.152-0.272-0.395-0.709-0.687-1.237c2.174-0.706,4.142-0.519,6.077,0.137c1.327,0.449,2.207,1.373,2.748,2.699
	c0.756,1.857,0.987,3.802,1.185,5.762c0.045,0.44-0.039,0.909,0.082,1.323c0.657,2.271-0.558,3.907-2.057,5.181
	c-1.892,1.607-4.199,2.54-6.725,2.778c-0.291,0.026-0.585,0.003-0.997,0.003c0.346-1.167,1.094-1.712,2.111-2.077
	c3.24-1.166,4.759-2.61,4.88-6.34c0.062-1.923,0.165-3.862-0.728-5.653C93.013,74.298,92.527,73.628,92.083,72.905z"/>
</svg>
