<svg version="1.1" id="svg" xmlns="http://www.w3.org/2000/svg" xmlns:xlink="http://www.w3.org/1999/xlink" x="0px" y="0px"
	 width="200px" height="200px" viewBox="0 0 200 200" enable-background="new 0 0 200 200" xml:space="preserve">
<g>
	<path class="stroke" fill="#580f12"  d="M117.696,43.464c-0.562-3.341-2.437-5.414-5.683-6.263c-1.056-0.276-2.125-0.576-3.205-0.671
		c-2.859-0.25-5.727-0.47-8.596-0.563c-3.964-0.13-7.934-0.177-11.9-0.176c-2.365,0.002-4.329,0.948-5.99,2.695
		c-2.613,2.75-3.607,6.12-3.729,9.739c-0.152,4.58-0.037,9.169-0.037,13.755c-0.039,0.001-0.078,0.001-0.118,0.002
		c0.161,5.677,0.203,11.36,0.517,17.028c0.299,5.394,0.834,10.775,1.353,16.153c0.473,4.904,1.014,9.803,1.622,14.691
		c0.329,2.645,0.742,5.29,1.333,7.885c0.765,3.363,2.692,5.813,6.198,6.688c4.99,1.246,10.038,1.143,15.083,0.456
		c1.413-0.191,2.855-0.597,3.814-1.805c1.275-1.605,2.589-3.222,3.062-5.277c0.628-2.728,1.311-5.456,1.703-8.223
		c0.809-5.688,1.458-11.399,2.137-17.106c0.396-3.328,0.761-6.66,1.071-9.997c0.323-3.469,0.547-6.946,0.845-10.418
		c0.363-4.218,0.754-8.435,1.143-12.65C118.81,54.065,118.586,48.757,117.696,43.464z"/>
	<path class="stroke" fill="#580f12"  d="M107.166,134.519c-1.546-0.516-3.089-1.176-4.683-1.374c-2.503-0.312-5.048-0.289-7.849-0.421
		c-2.397,0.131-5.059,0.276-7.72,0.419c-2.209,0.119-3.491,1.45-4.211,3.373c-0.379,1.014-0.768,2.12-0.738,3.174
		c0.12,4.436,0.281,8.876,0.656,13.296c0.249,2.93,2.464,5.08,5.378,5.238c4.979,0.271,9.986,0.608,14.953,0.348
		c4.184-0.219,7.247-2.444,7.393-6.97c0.05-1.565,0.072-3.131,0.123-4.695c0.076-2.324,0.233-4.649,0.23-6.974
		C110.697,137.405,109.755,135.383,107.166,134.519z"/>
</g>
<path fill-rule="evenodd" clip-rule="evenodd" fill="#de4555" class="fill" d="M107.795,108.858c-0.086,0.714-0.165,1.375-0.285,2.374
	c-1.021-0.458-1.842-0.826-2.886-1.294c-0.217,0.184-0.591,0.5-0.942,0.798c0.677,1.711,2.359,1.442,3.624,2.214
	c-0.249,0.564-0.48,1.089-0.781,1.77c-1.121-0.685-2.076-1.269-3.314-2.024c-0.352,0.373-0.653,0.693-1.138,1.208
	c1.438,0.945,2.55,1.677,3.883,2.554c-0.573,0.722-1.055,1.329-1.714,2.16c-0.874-1.063-1.63-1.981-2.518-3.06
	c-0.377,0.251-0.769,0.513-1.302,0.867c0.733,1.12,1.357,2.073,2.174,3.32c-0.916,0.119-1.654,0.215-2.496,0.323
	c-0.529-1.165-0.998-2.193-1.549-3.405c-0.58,0.278-1.014,0.486-1.462,0.701c0.289,0.945,0.522,1.71,0.795,2.604
	c-0.682,0-1.209,0-1.919,0c-0.306-1.173-0.617-2.368-0.952-3.654c-2.19,0.744-0.789,2.324-1.216,3.507
	c-0.358-0.03-0.718-0.061-1.138-0.095c-0.216-1.003-0.411-1.91-0.612-2.844c-2.306,0.002-0.81,1.803-1.636,2.837
	c-0.236-0.646-0.426-1.076-0.549-1.524c-0.135-0.492-0.208-1.001-0.308-1.505c-1.552,0.238-0.723,1.531-1.275,2.219
	c-1.059-0.128-1.171-1.059-1.333-1.773c-0.421-1.866-0.808-3.749-1.037-5.646c-0.626-5.165-1.149-10.342-1.739-15.511
	c-0.574-5.029-1.304-10.044-1.738-15.085c-0.482-5.584-0.864-11.186-1.002-16.787c-0.141-5.734,0.065-11.478,0.127-17.216
	c0.012-1.122,0.375-2.078,1.044-3.032c1.573-2.242,3.308-4.196,6.121-4.833c0.398-0.09,0.789-0.271,1.189-0.288
	c3.966-0.173,7.932-0.352,11.899-0.464c3.152-0.09,6.056,0.892,8.842,2.274c0.237,0.117,0.454,0.307,0.629,0.508
	c0.124,0.143,0.162,0.36,0.212,0.482c-0.65,1.383-2.994-0.079-3.338,2.248c1.631-0.137,3.068-0.258,4.73-0.398
	c0.071,0.977,0.126,1.741,0.181,2.484c-1.39,0.695-3.405-0.425-4.208,2.074c1.574-0.135,2.807-0.24,4.21-0.359
	c0.071,0.969,0.135,1.832,0.198,2.699c-1.196,0.75-2.99-0.52-3.67,1.282c0.656,0.802,0.656,0.802,3.632,0.867
	c0.07,0.8,0.143,1.625,0.224,2.551c-1.318,0.088-2.425,0.161-3.826,0.255c0.946,1.677,2.68,0.92,3.767,2.185
	c-0.026,0.552-0.065,1.378-0.097,2.047c-1.864,0.146-3.453,0.264-5.038,0.418c-0.055,0.005-0.075,0.368-0.126,0.639
	c1.631,0.342,3.242,0.68,4.943,1.037c-0.046,0.943-0.077,1.592-0.105,2.184c-1.628,0.396-3.452-1.601-4.81,0.979
	c0.942,0.221,1.72,0.352,2.462,0.591c0.7,0.226,1.364,0.565,2.135,0.894c-0.104,0.63-0.188,1.135-0.284,1.706
	c-1.174-0.129-2.224-0.244-3.283-0.36c-0.24,0.364-0.421,0.64-0.67,1.017c1.223,0.597,2.361,1.152,3.57,1.741
	c-0.044,0.938-0.08,1.733-0.127,2.748c-0.764-0.185-1.332-0.319-1.898-0.46c-0.515-0.129-1.027-0.263-1.63-0.416
	c-0.241,0.437-0.423,0.766-0.662,1.199c1.374,0.642,2.646,1.236,3.972,1.856c-0.104,0.802-0.189,1.462-0.295,2.278
	c-1.055-0.303-2.004-0.575-3.076-0.884c-0.251,0.389-0.482,0.745-0.76,1.173c1.268,0.649,2.398,1.229,3.577,1.832
	c-0.076,0.685-0.134,1.199-0.204,1.828c-1.148-0.345-2.153-0.646-3.304-0.992c-0.362,2.54,2.46,1.825,3.054,3.321
	c-0.086,0.643-0.172,1.285-0.25,1.862c-1.304,0.278-2.439-1.204-3.85,0.25c1.234,0.678,2.318,1.272,3.499,1.92
	c0.026,0.515,0.053,1.034,0.074,1.446c-0.938,0.955-2.487-0.434-3.285,1.312c0.933,0.349,1.778,0.664,2.768,1.034
	c0,0.579,0,1.214,0,1.896c-1.232,0.318-2.563-0.675-3.747,0.72c0.584,0.247,1.09,0.477,1.607,0.673
	c0.51,0.192,1.031,0.351,1.753,0.592c-0.041,0.631-0.082,1.262-0.137,2.097c-1.37,0-2.551,0-3.933,0
	c0.622,2.085,2.745,0.927,3.735,2.477c-0.072,0.562-0.188,1.469-0.329,2.579c-0.853-0.121-1.508-0.199-2.158-0.311
	c-0.564-0.098-1.201-0.572-1.57,0.487c0.734,1.183,2.214,1.08,3.428,1.768c-0.073,0.587-0.154,1.236-0.238,1.91
	c-1.584,0.417-2.478-1.092-3.798-1.247C104.089,106.693,104.089,106.693,107.795,108.858z"/>
<path fill-rule="evenodd" clip-rule="evenodd" fill="#de4555" class="fill" d="M98.347,152.811c-0.284-1.042-0.532-1.948-0.774-2.834
	c-1.368,0.15-1.368,0.15-1.272,2.797c-1.172,0.048-1.172,0.048-2.042-2.994c-0.219-0.036-0.481-0.13-0.732-0.104
	c-0.178,0.019-0.339,0.199-0.668,0.41c0.108,0.862,0.223,1.78,0.356,2.852c-0.762,0-1.478,0-2.372,0
	c-0.137-1.19-0.268-2.339-0.427-3.729c-0.676,0.325-1.062,0.511-1.442,0.694c0,1.017,0,1.909,0,2.802
	c-0.162,0.026-0.323,0.053-0.484,0.079c-0.251-1.052-0.501-2.103-0.822-3.45c-0.491,0.155-0.974,0.309-1.516,0.48
	c0.185,0.941,0.321,1.643,0.459,2.344c-0.117,0.063-0.234,0.128-0.352,0.191c-0.216-0.402-0.58-0.789-0.625-1.21
	c-0.27-2.512-0.52-5.028-0.665-7.55c-0.078-1.361,0.04-2.736,0.113-4.103c0.097-1.772,0.84-2.653,2.536-2.952
	c4.594-0.808,9.228-1.053,13.884-0.873c0.563,0.021,1.118,0.233,1.678,0.356c0,0.164,0.001,0.328,0.002,0.493
	c-1.172,0.22-2.345,0.44-3.59,0.675c0.319,1.41,1.086,1.339,1.941,1.182c0.903-0.165,1.818-0.267,2.814-0.408
	c0.067,0.615,0.102,0.931,0.154,1.413c-1.267,0.125-2.425,0.239-3.724,0.367c0.939,1.557,2.448,1.035,3.676,1.521
	c0,0.455,0,0.896,0,1.299c-1.355,0.839-2.837-0.791-4.224,0.375c0.919,1.646,2.812,1.183,4.215,2.137
	c-0.029,0.448-0.065,1.012-0.091,1.412c-1.773,1.19-3.063-0.936-4.854-0.283c1.09,2.018,2.92,2.195,4.916,2.396
	c-0.052,0.923-0.098,1.743-0.145,2.574c-2.284,0.436-3.295-2.022-5.361-1.785c-0.073,0.387-0.143,0.755-0.217,1.146
	c0.897,0.627,1.724,1.204,2.672,1.867C100.312,153.279,99.348,152.868,98.347,152.811z"/>
</svg>
