<svg version="1.1" id="svg" xmlns="http://www.w3.org/2000/svg" xmlns:xlink="http://www.w3.org/1999/xlink" x="0px" y="0px"
	 width="200px" height="200px" viewBox="0 0 200 200" enable-background="new 0 0 200 200" xml:space="preserve">
<path class="stroke" fill="#183046"  fill-rule="evenodd" clip-rule="evenodd" d="M139.863,94.06c1.154-0.41,2.375-0.517,3.586-0.019
	c0.197,0.081,0.303,0.384,0.606,0.793c-1.228,0.118-2.21,0.213-3.307,0.318c-0.074,0.312-0.158,0.661-0.25,1.05
	c1.371,0.503,2.966,0.16,4.037,1.244c-0.019,0.09-0.038,0.18-0.057,0.271c-1.416-0.076-2.83-0.151-4.303-0.229
	c-0.14,0.495-0.245,0.871-0.342,1.214c1.396,0.411,2.712,0.707,3.957,1.191c1.22,0.476,2.365,1.142,3.598,1.75
	c-0.118,0.179-0.222,0.336-0.37,0.561c-1.147-0.489-2.25-0.983-3.371-1.432c-1.368-0.548-2.774-0.876-4.325-0.561
	c-0.09,0.245-0.179,0.487-0.311,0.841c2.81,0.455,5.579,0.741,8.038,2.261c-0.094,0.148-0.216,0.341-0.368,0.583
	c-2.669-1.008-5.333-1.981-8.281-1.604c-0.195,0.374-0.364,0.698-0.575,1.103c4.943,0.102,9.681,0.773,14.237,2.455
	c0.344,0.127,0.649,0.363,1.09,0.615c-0.291,0.212-0.469,0.343-0.672,0.492c-3.867-1.7-7.964-2.114-12.103-2.23
	c-1.193-0.034-2.393,0.157-3.589,0.245c-0.009,0.104-0.019,0.206-0.028,0.31c0.3,0.056,0.6,0.116,0.9,0.169
	c2.67,0.456,5.341,0.916,7.779,2.18c0.824,0.427,1.589,0.966,2.417,1.477c-0.261,0.421-0.559,0.379-0.852,0.269
	c-0.39-0.146-0.767-0.322-1.151-0.483c-3.043-1.276-6.214-1.643-9.479-1.312c-0.308,0.031-0.612,0.118-0.913,0.201
	c-0.263,0.073-0.517,0.177-0.979,0.338c0.392,0.138,0.588,0.235,0.794,0.275c1.428,0.275,2.886,0.436,4.279,0.832
	c1.695,0.481,3.341,1.145,4.996,1.762c0.251,0.093,0.438,0.358,0.784,0.654c-0.876,0.169-1.51,0.106-2.106-0.18
	c-1.574-0.757-3.227-1.277-4.944-1.559c-1.867-0.306-3.74-0.172-5.591,0.162c-0.405,0.073-0.767,0.391-1.317,0.687
	c0.378,0.214,0.557,0.349,0.758,0.424c1.29,0.481,2.395,1.242,3.378,2.196c1.514,1.47,3.03,2.938,4.538,4.4
	c-0.271,0.233-0.611,0.527-0.961,0.829c-0.046-0.012-0.138-0.008-0.172-0.05c-1.697-2.101-3.84-3.705-6.01-5.256
	c-0.83-0.593-1.848-0.924-2.789-1.358c-0.089-0.041-0.236,0.045-0.512,0.105c1.019,0.578,1.989,0.974,2.763,1.61
	c0.821,0.673,1.538,1.517,2.146,2.393c0.574,0.827,0.947,1.792,1.455,2.786c-0.598,0.072-0.79-0.299-0.998-0.575
	c-0.437-0.582-0.76-1.266-1.266-1.774c-0.928-0.934-1.899-1.839-2.955-2.62c-0.646-0.478-1.483-0.699-2.22-1.029
	c-0.391,0.231-0.681,0.404-1.134,0.672c0.571,0.314,1.005,0.561,1.447,0.791c0.523,0.273,1.068,0.506,1.578,0.8
	c1.046,0.602,1.88,1.414,2.37,2.542c0.355,0.82,0.72,1.636,1.092,2.481c-0.262,0.135-0.556,0.288-0.969,0.501
	c-1.529-2.843-3.6-5.139-6.836-6.082c-0.164-0.048-0.353-0.006-0.684-0.006c1.514,1.023,2.932,1.867,4.215,2.879
	c1.283,1.012,2.229,2.36,3.182,3.816c-0.355,0-0.627,0-0.859,0c-2.392-2.497-4.534-4.138-5.824-4.505
	c1.107,0.975,2.266,1.987,3.413,3.013c0.309,0.276,0.626,0.565,0.85,0.907c0.188,0.288,0.247,0.661,0.265,1.06
	c-1.026-0.32-1.57-1.231-2.425-1.721c-0.869-0.497-1.665-1.122-2.534-1.618c-0.863-0.492-1.778-0.896-2.864-1.435
	c0.103,0.914,0.183,1.614,0.257,2.27c1.03,1.348,2.034,2.66,3.095,4.048c-0.494,0.172-0.828,0.289-1.211,0.422
	c-0.485-0.592-0.655-1.458-1.612-1.868c0.084,0.866,0.157,1.636,0.238,2.484c-0.343-0.043-0.658-0.083-0.978-0.122
	c-0.139-1.218-0.274-2.414-0.409-3.586c-1.277-1.097-2.643-1.912-4.104-2.558c-0.418-0.185-0.933-0.333-1.39,0.061
	c1.146,0.98,2.315,1.929,3.425,2.943c1.155,1.054,1.689,2.491,2.347,3.904c-0.617,0.278-0.832-0.073-1.094-0.404
	c-0.837-1.059-1.629-2.165-2.568-3.127c-0.702-0.719-1.54-1.348-2.615-1.62c0.916,1.674,2.323,3.125,2.176,5.399
	c-0.263-0.224-0.474-0.328-0.567-0.496c-0.353-0.637-0.68-1.288-0.994-1.945c-0.736-1.535-1.963-2.571-3.402-3.397
	c-0.058-0.033-0.131-0.056-0.198-0.054c-0.063,0-0.126,0.038-0.208,0.065c0.498,0.874,1.073,1.71,1.468,2.625
	c0.396,0.917,0.637,1.905,0.901,2.875c0.264,0.968,0.795,1.904,0.472,3.111c-0.75-0.637-1.21-1.305-1.484-2.134
	c-0.529-1.603-1.496-2.954-2.542-4.251c-0.08-0.099-0.219-0.147-0.467-0.308c-0.212,1.8-1.041,3.386-0.706,5.171
	c0.108,0.576,0.123,1.167-0.183,1.759c-0.384-0.126-0.735-0.24-1.147-0.375c0.526-1.226,0.059-2.346-0.428-3.465
	c-0.651-1.497-1.407-2.935-2.438-4.316c-0.556,0.078-1.129,0.16-1.933,0.272c1.17,0.964,1.675,2.077,1.867,3.429
	c0.185,1.287,0.547,2.536,0.166,4.075c-0.307-0.304-0.54-0.428-0.584-0.601c-0.109-0.434-0.151-0.888-0.188-1.337
	c-0.178-2.172-1.273-3.902-2.564-5.557c-0.208,0-0.345-0.016-0.476,0.005c-0.129,0.021-0.251,0.079-0.315,0.101
	c0.705,1.6,1.504,3.129,2.053,4.742c0.538,1.58,1.331,3.125,1.253,4.995c-0.229-0.123-0.423-0.16-0.49-0.273
	c-0.49-0.83-0.992-1.658-1.42-2.521c-0.663-1.333-1.242-2.708-1.917-4.034c-0.305-0.6-0.757-1.124-1.257-1.646
	c-0.35,2.886-0.194,5.751-0.187,8.61c-0.136,0.071-0.273,0.144-0.409,0.214c-0.049-0.16-0.102-0.317-0.144-0.478
	c-0.053-0.2-0.107-0.401-0.144-0.605c-0.352-1.928-0.652-3.865-1.069-5.778c-0.197-0.901-0.564-1.779-0.955-2.621
	c-0.296-0.639-0.463-0.656-1.204-0.662c0.542,1.678,1.087,3.362,1.666,5.153c0,0.426,0,0.976,0,1.523
	c-0.657,0.021-0.974-0.181-1.119-0.76c-0.192-0.771-0.374-1.548-0.506-2.331c-0.146-0.862-0.662-1.442-1.304-1.986
	c-0.316,2.105,0.078,4.165-0.016,6.286c-0.162,0.188-0.357,0.414-0.683,0.792c-0.508-2.438-0.282-4.811-0.862-7.105
	c-0.591,1.062-0.623,2.263-0.821,3.413c-0.197,1.141-0.3,2.298-0.452,3.515c-0.577-0.275-0.651-0.712-0.705-1.154
	c-0.179-1.479-0.352-2.958-0.527-4.437c-0.033-0.273-0.066-0.547-0.101-0.843c-0.885,0.792-1.364,2.796-1.618,6.711
	c-0.596,0.202-0.767-0.134-0.849-0.646c-0.211-1.321-0.137-2.628,0.148-3.929c0.317-1.439,0.901-2.766,1.664-4.019
	c0.119-0.196,0.204-0.412,0.357-0.728c-0.369-0.096-0.646-0.168-0.978-0.255c-0.857,1.773-1.369,3.596-1.851,5.533
	c-0.914-0.671-0.272-1.719-0.858-2.479c-0.495,1.064-0.712,2.078-0.553,3.225c-0.17,0.155-0.356,0.327-0.619,0.568
	c-0.292-1.224-0.489-2.317-0.184-3.474c0.263-0.997,0.404-2.027,0.528-3.07c-1.151,1.208-1.346,2.902-2.087,4.314
	c-0.08-0.006-0.159-0.012-0.239-0.019c-0.092-0.855-0.183-1.712-0.274-2.567c-0.772,0.735-1.11,1.615-1.306,2.562
	c-0.171,0.833-0.311,1.681-1.053,2.428c-0.052-3.058,0.784-5.788,2.055-8.569c-0.43-0.123-0.791-0.226-1.226-0.351
	c-1.234,2.216-2.629,4.257-2.723,6.888c-0.268-0.064-0.46-0.111-0.632-0.152c-0.423-1.93,0.202-3.664,0.764-5.405
	c0.158-0.491,0.333-0.977,0.493-1.442c-0.307-0.369-0.614-0.305-0.852-0.074c-0.618,0.599-1.244,1.198-1.789,1.861
	c-0.434,0.526-0.382,0.569-1.071,0.699c0.128-1.288,0.94-2.284,1.385-3.532c-0.306-0.2-0.612-0.409-0.925-0.606
	c-1.615-1.012-3.212-2.056-4.858-3.018c-1.014-0.594-2.106-1.051-3.155-1.586c-0.592-0.302-1.109-0.198-1.667,0.123
	c-1.231,0.709-2.457,1.441-3.743,2.037c-1.599,0.738-3.277,0.896-4.926,0.12c-1.211-0.57-2.229-1.402-2.968-2.536
	c-0.474-0.729-0.694-1.526-0.425-2.381c0.259-0.821,0.513-1.653,0.874-2.432c1.522-3.287,3.622-6.225,5.595-9.243
	c1.514-2.316,3.466-4.229,5.319-6.24c0.185-0.201,0.356-0.415,0.65-0.758c-0.562-0.186-1.023-0.338-1.484-0.491
	c-0.962,0.641-1.556,1.543-2.223,2.378c-2.148,2.691-3.947,5.612-5.731,8.55c-0.802,1.32-1.811,2.532-2.841,3.691
	c-0.795,0.896-0.986,0.855-2.407,0.623c0.327-1.408,0.613-2.822,1.281-4.114c1.145-2.216,2.25-4.456,3.502-6.608
	c0.85-1.459,1.926-2.785,2.899-4.172c0.357-0.51,0.679-1.048,1.074-1.526c1.389-1.681,2.802-3.341,4.206-5.009
	c0.066,0.026,0.132,0.051,0.198,0.075c-0.061-0.433-0.12-0.866-0.205-1.476c0.238,0.387,0.396,0.643,0.629,1.021
	c0.291-0.221,0.568-0.431,0.771-0.585c-0.17-0.851-0.317-1.583-0.463-2.316c0.061-0.021,0.122-0.041,0.184-0.062
	c0.247,0.583,0.495,1.166,0.815,1.92c1.597-1.223,3.04-2.328,4.474-3.426c-0.149-0.774-0.294-1.531-0.44-2.288
	c0.047-0.01,0.094-0.021,0.141-0.031c0.256,0.576,0.511,1.152,0.797,1.796c1.84-1.111,3.578-2.162,5.32-3.215
	c-0.059-0.707-0.116-1.391-0.173-2.074c0.05-0.014,0.099-0.029,0.149-0.044c0.195,0.555,0.391,1.109,0.62,1.756
	c1.62-0.609,3.195-1.203,4.827-1.817c-0.238-1.754-0.478-3.521-0.719-5.289c0.076-0.014,0.152-0.026,0.228-0.04
	c0.266,1.737,0.584,3.461,1.265,5.193c0.749-0.159,1.447-0.307,2.257-0.479c0.058-1.458,0.116-2.879,0.173-4.3
	c0.049-0.003,0.098-0.005,0.147-0.007c0.125,1.328,0.249,2.656,0.384,4.114c0.623-0.122,1.14-0.223,1.663-0.325
	c0.094-2.121-0.277-4.184,0.573-6.145c-0.133,1.962-0.213,3.919,0.301,5.957c1.113-0.149,2.159-0.289,3.294-0.441
	c-0.083-0.836-0.154-1.566-0.226-2.297c0.071-0.015,0.142-0.029,0.213-0.043c0.236,0.738,0.472,1.476,0.73,2.284
	c0.782-0.096,1.524-0.188,2.32-0.287c0.374-2.148,0.63-4.293,1.716-6.191c-0.374,1.979-1.198,3.88-0.973,6.104
	c0.615-0.098,1.14-0.181,1.708-0.272c0.423-2.005,0.539-4.02,1.36-5.874c-0.271,1.832-0.541,3.665-0.829,5.626
	c1.88,0.07,3.57-0.333,5.335-0.382c0.459-1.859,0.496-3.715,0.581-5.624c0.767,0.165,0.836,0.672,0.828,1.142
	c-0.018,1.074-0.095,2.147-0.16,3.22c-0.021,0.336-0.079,0.67-0.126,1.053c1.614,0.064,3.126,0.125,4.693,0.187
	c1.104-1.4,1.206-3.313,2.273-4.777c0.407,1.711-0.438,3.161-0.987,4.73c0.866,0.363,1.759,0.288,2.751,0.396
	c0.437-1.433,0.864-2.833,1.321-4.328c0.25,0.238,0.46,0.439,0.727,0.691c-0.247,1.233-0.49,2.449-0.759,3.792
	c0.458,0.094,0.877,0.181,1.373,0.283c0.862-1.757,1.619-3.485,1.784-5.443c0.269,0,0.499,0,0.821,0
	c0.117,0.135,0.289,0.336,0.426,0.496c-0.546,1.744-1.07,3.419-1.631,5.213c0.647,0.165,1.329,0.338,2.012,0.513
	c1.715-1.961,3.136-3.99,3.798-6.508c0.318,0.063,0.541,0.108,0.793,0.158c-0.408,2.558-1.906,4.519-3.439,6.628
	c0.631,0.154,1.112,0.272,1.627,0.397c1.568-1.972,3.38-3.669,4.022-6.23c0.596,0.409,0.567,0.887,0.427,1.292
	c-0.224,0.65-0.486,1.309-0.859,1.88c-0.605,0.928-1.313,1.788-1.977,2.678c-0.121,0.163-0.233,0.333-0.446,0.638
	c0.525,0.155,0.96,0.283,1.374,0.406c1.934-1.375,2.956-3.453,4.451-5.113c0.58,0.191,0.44,0.582,0.254,0.919
	c-0.3,0.546-0.62,1.086-0.99,1.586c-0.579,0.779-1.208,1.521-1.812,2.282c-0.125,0.156-0.231,0.325-0.411,0.582
	c0.311,0.105,0.545,0.185,0.845,0.286c2.246-2.386,4.458-4.737,6.671-7.087c0.049,0.021,0.099,0.042,0.149,0.064
	c-0.031,0.211-0.002,0.459-0.105,0.627c-0.47,0.763-0.915,1.555-1.481,2.242c-1.103,1.339-2.285,2.612-3.426,3.92
	c-0.176,0.202-0.31,0.441-0.494,0.707c0.187,0.111,0.328,0.196,0.477,0.283c0.15-0.075,0.292-0.112,0.389-0.2
	c1.524-1.402,3.303-2.53,4.502-4.281c0.558-0.813,1.552-1.526,2.417-1.796c-1.844,2.503-3.445,4.98-6.208,6.72
	c0.692,0.336,1.171,0.567,1.791,0.868c1.606-1.109,3.249-2.242,4.891-3.375c0.404,0.287,0.268,0.56,0.027,0.792
	c-0.721,0.697-1.452,1.387-2.191,2.064c-0.421,0.385-0.868,0.741-1.249,1.184c0.858,0.018,1.313-0.647,1.909-1.06
	c0.595-0.411,1.167-0.856,1.794-1.319c0.399,0.51,0.192,0.872-0.174,1.187c-0.631,0.544-1.279,1.066-1.914,1.604
	c-0.122,0.104-0.219,0.235-0.327,0.353c0.035,0.067,0.071,0.134,0.105,0.199c0.221-0.078,0.477-0.11,0.657-0.243
	c0.5-0.372,0.993-0.762,1.448-1.188c1.391-1.304,2.774-2.619,3.837-4.291c0.343-0.112,0.718-0.236,1.213-0.398
	c-0.163,1.389-1.305,2.016-1.885,3.031c1.088-0.361,3.409-2.265,4.898-4.011c0.298,0.599,0.072,1.096-0.277,1.471
	c-0.799,0.861-1.648,1.675-2.502,2.481c-1.588,1.5-3.194,2.982-4.789,4.475c-0.043,0.041-0.044,0.126-0.084,0.247
	c0.527,0.356,1.066,0.718,1.573,1.06c4.063-1.853,7.175-4.936,10.615-7.516c0.099,0.035,0.195,0.041,0.219,0.083
	c0.095,0.177,0.169,0.366,0.249,0.546c-2.571,3.375-5.979,5.68-9.481,7.964c0.002,0.032-0.023,0.147,0.021,0.225
	c0.065,0.114,0.179,0.201,0.345,0.377c0.722-0.305,1.461-0.588,2.176-0.923c0.826-0.389,1.63-0.822,2.552-1.082
	c-0.259,0.416-0.518,0.831-0.891,1.431c1.06-0.471,1.769-1.1,2.452-1.737c1.038-0.968,2.032-1.983,3.046-2.977
	c0.406-0.397,0.869-0.647,1.638-0.477c-2.562,3.114-5.484,5.647-9.016,7.478c0.038,0.07,0.077,0.14,0.115,0.209
	c0.739-0.301,1.514-0.536,2.21-0.915c3.63-1.974,7.125-4.163,10.366-6.737c0.297-0.236,0.545-0.544,0.863-0.745
	c0.291-0.186,0.644-0.273,0.97-0.404c0.052,0.075,0.105,0.151,0.158,0.226c-0.272,0.341-0.496,0.739-0.826,1.01
	c-1.15,0.945-2.316,1.873-3.513,2.758c-1.562,1.155-3.109,2.341-4.752,3.37c-1.936,1.214-3.969,2.272-5.96,3.398
	c-0.317,0.179-0.635,0.357-0.892,0.731c0.465-0.034,0.95,0.006,1.391-0.116c1.099-0.302,2.209-0.603,3.258-1.042
	c1.65-0.69,3.252-1.492,4.897-2.257c0.333,0.096,0.426,0.334,0.194,0.607c-0.22,0.259-0.492,0.483-0.775,0.675
	c-1.91,1.293-4.043,2.118-6.184,2.928c-0.255,0.097-0.504,0.205-0.742,0.364c2.768-0.269,5.444-0.998,8.23-1.702
	c-0.421,0.787-0.988,1.068-4.567,2.107c-1.614,0.468-3.27,0.795-4.893,1.246c2.559,0.179,5.021-0.158,7.359-1.183
	c0.453-0.053,0.937-0.02,1.351-0.174c2.009-0.748,4.01-1.526,5.784-2.802c-0.412,0.566-0.933,1.005-1.527,1.379
	c-2.502,1.574-5.252,2.502-8.128,3.073c-1.868,0.372-3.751,0.672-5.626,1.006c-0.159,0.028-0.316,0.062-0.476,0.094
	c0.006,0.074,0.013,0.147,0.02,0.221c2.31-0.085,4.647,0.022,6.92-0.312c2.234-0.327,4.403-1.103,6.83-1.741
	c-0.432,0.256-0.67,0.421-0.928,0.545c-2.726,1.312-5.575,2.083-8.626,2.034c-1.212-0.02-2.428,0.101-3.64,0.071
	c-1.067-0.026-2.13-0.173-3.384-0.283c-0.293,0.619-0.697,1.338-0.984,2.102c-0.74,1.98-1.375,4-2.148,5.966
	c-1.448,3.682-2.998,7.306-5.592,10.387c-1.581,1.877-3.545,3.186-5.688,4.287c-0.58,0.297-1.164,0.586-1.679,1.062
	c0.539-0.165,1.12-0.25,1.608-0.51c1.282-0.682,2.586-1.351,3.762-2.19c1.235-0.884,2.361-1.929,3.484-2.959
	c1.831-1.681,2.968-3.847,3.882-6.098c0.958-2.36,2.176-4.558,3.533-6.697C139.443,95.138,139.614,94.608,139.863,94.06z
	 M76.958,82.609c1.445-0.823,2.836-1.614,4.276-2.434c-0.358-0.397-0.624-0.692-0.855-0.949c-1.4,0.528-4.083,2.08-4.561,2.65
	C76.192,82.116,76.555,82.35,76.958,82.609z M99.913,75.362c1.307-0.042,2.668-1.266,2.816-2.6c-1.208,0.148-2.39,0.294-3.653,0.449
	C99.248,74.077,99.291,74.835,99.913,75.362z M72.25,85.811c1.301-0.994,2.465-1.883,3.707-2.832
	c-0.361-0.311-0.663-0.571-0.943-0.811c-1.276,0.671-3.244,2.257-3.857,3.121C71.527,85.466,71.883,85.635,72.25,85.811z
	 M104.281,74.625c1.737,0.572,3.193-0.268,3.652-2.054c-1.083,0.062-2.143,0.125-3.229,0.188
	C104.553,73.427,104.424,73.993,104.281,74.625z M85.622,76.985c-1.574,0.637-3.016,1.22-4.623,1.871
	c0.498,0.384,0.815,0.628,1.139,0.877c1.441-0.625,2.819-1.225,4.417-1.917C86.205,77.504,85.959,77.285,85.622,76.985z
	 M108.512,74.829c1.47,0.087,3.161-1.078,3.627-2.485c-0.857,0.058-1.666,0.112-2.463,0.166
	C109.269,73.32,108.916,74.024,108.512,74.829z M92.078,76.674c0.678-0.095,1.268-0.178,1.947-0.273
	c-0.245-0.753-0.443-1.358-0.66-2.023c-0.828,0.264-1.572,0.5-2.486,0.791C91.306,75.706,91.658,76.147,92.078,76.674z
	 M96.576,76.059c-0.208-0.86-0.374-1.543-0.557-2.301c-0.637,0.137-1.187,0.256-1.866,0.402c0.294,0.752,0.537,1.369,0.796,2.03
	C95.516,76.145,95.981,76.106,96.576,76.059z M108.566,119.72c0.612,1.295,1.143,2.418,1.721,3.642
	c0.236-1.31,0.537-2.512-0.299-3.735C109.549,119.655,109.092,119.685,108.566,119.72z M90.966,76.884
	c-0.374-0.54-0.645-0.931-0.972-1.402c-0.72,0.254-1.415,0.5-2.219,0.784c0.228,0.445,0.389,0.759,0.549,1.072
	C89.22,77.185,90.002,77.05,90.966,76.884z M98.816,75.783c-0.229-0.899-0.41-1.613-0.605-2.383
	c-0.457,0.092-0.845,0.169-1.38,0.277c0.213,0.734,0.397,1.367,0.589,2.027C97.923,75.733,98.318,75.755,98.816,75.783z
	 M68.628,87.313c-0.593,0.521-1.136,0.997-1.844,1.618c0.715,0.156,1.196,0.261,1.66,0.361c0.481-0.43,0.896-0.802,1.376-1.229
	C69.375,87.781,69.06,87.584,68.628,87.313z M130.338,75.996c-0.548-0.188-0.902-0.309-1.311-0.449
	c-0.526,0.45-1.025,0.923-1.571,1.331c-0.516,0.386-1.082,0.705-1.626,1.054c0.037,0.058,0.072,0.118,0.108,0.176
	C127.438,77.624,128.781,76.81,130.338,75.996z M115.178,74.597c0.047,0.059,0.095,0.118,0.143,0.176
	c0.982-0.509,2.022-0.931,2.809-1.998c-0.531-0.084-0.975-0.154-1.368-0.217C116.183,73.303,115.68,73.95,115.178,74.597z
	 M136.156,79.464c-0.999,0.536-1.905,1.024-2.811,1.512c0.022,0.053,0.045,0.106,0.067,0.158c1.117-0.274,2.234-0.55,3.468-0.854
	C136.578,79.939,136.379,79.716,136.156,79.464z M120.045,72.963c-0.589,0.677-1.134,1.304-1.679,1.93
	c0.061,0.068,0.122,0.137,0.182,0.205c0.868-0.563,1.736-1.126,2.604-1.689c-0.017-0.075-0.034-0.15-0.051-0.224
	C120.757,73.112,120.411,73.04,120.045,72.963z M69.232,86.765c0.576,0.26,0.955,0.431,1.353,0.611
	c0.318-0.323,0.564-0.572,0.86-0.871c-0.422-0.276-0.729-0.475-1.078-0.702C70.026,86.092,69.721,86.35,69.232,86.765z
	 M112.758,74.473c0.064,0.066,0.129,0.133,0.193,0.199c0.678-0.686,1.357-1.372,2.208-2.231c-0.575,0-0.867,0-1.216,0
	C113.547,73.121,113.153,73.797,112.758,74.473z M131.205,79.129c1.07-0.19,2.028-0.583,2.677-1.506
	C132.826,77.829,131.997,78.442,131.205,79.129z M122.828,73.537c-0.55,0.633-1.057,1.215-1.563,1.798
	c0.045,0.039,0.092,0.078,0.138,0.118c0.742-0.517,1.483-1.034,2.234-1.557c-0.128-0.149-0.162-0.226-0.213-0.24
	C123.26,73.61,123.092,73.587,122.828,73.537z M137.238,78.697c-0.045,0.066-0.089,0.133-0.135,0.199
	c0.787,1.116,0.813,1.13,1.448,0.665C138.098,79.262,137.668,78.979,137.238,78.697z M132.385,76.781
	c-0.612,0.219-1.172,0.526-1.801,1.068C131.668,77.601,131.899,77.468,132.385,76.781z M139.197,81.296
	c0.694,0.136,0.694,0.136,1.251-0.214C139.946,80.753,139.946,80.753,139.197,81.296z M130.07,78.244
	c-0.042-0.063-0.085-0.127-0.127-0.19c-0.176,0.136-0.352,0.271-0.529,0.408c0.035,0.047,0.07,0.095,0.105,0.143
	C129.703,78.484,129.887,78.364,130.07,78.244z M123.826,115.414c-0.072,0.076-0.144,0.151-0.216,0.227
	c0.096,0.082,0.192,0.163,0.287,0.245c0.052-0.053,0.102-0.107,0.152-0.161C123.975,115.621,123.9,115.518,123.826,115.414z
	 M138.41,81.805c-0.281,0-0.386-0.028-0.46,0.007c-0.082,0.04-0.136,0.139-0.202,0.211c0.031,0.03,0.062,0.06,0.093,0.09
	C137.977,82.039,138.113,81.965,138.41,81.805z"/>
<path fill-rule="evenodd" clip-rule="evenodd" fill="#fafd30" class="fill" d="M69.702,90.297c0.66-0.081,1.258-0.098,1.825-0.241
	c0.527-0.133,1.144-0.277,1.502-0.636c0.776-0.775,1.751-1.234,2.592-1.892c1.165-0.912,2.005-2.082,2.61-3.474
	c0.205,0.042,0.396,0.082,0.641,0.133c-0.042,0.242-0.042,0.452-0.117,0.631c-0.825,1.988-1.084,4.075-1.145,6.206
	c-0.06,2.156,0.36,4.19,1.279,6.151c1.274,2.72,2.934,5.123,5.443,6.832c2.109,1.436,4.433,2.432,6.899,3.093
	c3.067,0.824,6.174,1.27,9.364,1.143c2.175-0.087,4.262-0.477,6.28-1.301c1.312-0.536,2.701-0.903,3.976-1.513
	c3.41-1.626,6.324-3.854,8.257-7.199c0.554-0.958,1.239-1.841,1.763-2.813c0.373-0.692,0.704-1.456,0.827-2.224
	c0.235-1.467,0.298-2.96,0.451-4.44c0.364-3.53-1.079-6.564-2.611-9.576c-0.139-0.272-0.268-0.552-0.396-0.817
	c0.831-0.588,1.453-0.616,2.05,0.071c0.968,1.111,2.198,1.509,3.491,1.582c0.889,0.732,1.635,1.554,2.558,2.046
	c0.888,0.476,1.959,0.611,3.174,0.96c0.893,0.727,2.08,1.536,3.063,2.545c0.699,0.718,1.121,1.706,1.549,2.652
	c0.371,0.311,0.742,0.622,1.194,1.002c-0.041,0.388-0.022,0.847-0.146,1.263c-0.904,3.022-1.639,6.1-2.977,8.979
	c-1.326,2.853-2.956,5.469-5.26,7.677c-1.307,1.254-2.605,2.511-4.119,3.482c-1.306,0.838-2.744,1.477-4.146,2.154
	c-3.112,1.503-6.448,2.124-9.861,2.325c-2.455,0.145-4.917,0.166-7.377,0.202c-2.671,0.04-5.346-0.031-8.014,0.061
	c-2.703,0.092-5.333-0.368-7.926-0.977c-2.591-0.609-5.13-1.452-7.679-2.232c-1.389-0.425-2.773-0.885-4.123-1.421
	c-0.664-0.264-1.288-0.681-1.856-1.125c-2.078-1.622-3.866-3.517-4.771-6.04c-0.852-2.376-1.003-4.838-0.72-7.37
	C67.497,93.971,68.379,92.083,69.702,90.297z"/>
<path fill-rule="evenodd" clip-rule="evenodd" fill="#fafd30" class="fill" d="M98.75,81.495c0.4-0.492,0.801-0.985,1.209-1.486
	c0.345,0.278,0.583,0.471,0.794,0.642c1.111,0.233,1.296-1.104,2.177-1.213c0.222,1.252,0.222,1.252,0.865,1.606
	c0.711-0.747,1.191-1.905,2.591-1.747c0.152,0.763-0.716,1.344-0.304,2.104c0.321,0.275,0.623,0.228,0.893-0.087
	c0.226-0.262,0.417-0.558,0.658-0.804c0.605-0.62,1.303-0.999,2.378-0.733c-0.482,0.792-0.919,1.507-1.354,2.221
	c0.671,0.425,0.671,0.425,3.09-1.303c0.442,0.061,0.971,0.134,1.67,0.229c-0.278,0.318-0.413,0.506-0.58,0.659
	c-0.563,0.515-1.143,1.012-1.705,1.529c-0.34,0.312-0.515,0.662,0.013,1.175c0.572-0.23,1.214-0.456,1.828-0.741
	c0.974-0.452,1.935-0.935,2.893-1.422c0.576-0.292,1.123-0.308,1.78,0.14c-0.072,0.368-0.152,0.782-0.234,1.202
	c-1.715,0.685-3.353,1.34-5.05,2.02c-0.036,0.194-0.077,0.414-0.125,0.683c0.193,0.028,0.329,0.08,0.452,0.06
	c1.607-0.265,3.21-0.551,4.818-0.805c0.36-0.057,0.736-0.008,1.177-0.008c-0.025,0.355-0.043,0.618-0.07,1.007
	c-2.14,0.479-4.26,0.955-6.398,1.434c-0.064,0.208-0.123,0.396-0.214,0.69c2.187,0.485,4.407-0.178,6.438,0.439
	c0.395,0.757,0.125,1.314-0.201,2.005c-2.121-0.14-4.253-0.282-6.447-0.427c-0.082,0.197-0.167,0.402-0.273,0.66
	c2.145,0.729,4.229,1.437,6.301,2.141c0.117,0.982-0.251,1.598-0.892,2.181c-2.149-0.557-4.18-1.59-6.456-1.916
	c-0.084,0.253-0.145,0.438-0.218,0.656c1.672,1.33,3.812,1.916,5.254,3.524c-0.132,0.72-0.485,1.224-1.147,1.465
	c-1.684-1.083-3.335-2.146-5.039-3.242c-0.2,0.305-0.323,0.494-0.451,0.689c1.086,1.483,2.146,2.93,3.206,4.375
	c-0.586,0.973-1.357,1.002-2.325,0.76c-0.936-1.384-1.475-3.144-2.938-4.238c-0.493,0.328-0.361,0.711-0.262,1.129
	c0.383,1.613,0.736,3.233,1.088,4.802c-0.979,0.601-1.396,0.535-1.76-0.294c-0.304-0.693-0.523-1.428-0.729-2.159
	c-0.299-1.059-0.557-2.131-1.202-3.076c-0.575,0.233-0.446,0.685-0.449,1.079c-0.014,1.63-0.021,3.26-0.037,4.891
	c-0.002,0.238-0.037,0.476-0.059,0.732c-0.567,0.317-1.082,0.184-1.702-0.093c-0.567-1.967-0.279-4.076-0.618-6.161
	c-0.25,0-0.472,0-0.726,0c-0.654,2.244-0.987,4.497-1.146,6.767c-0.976,0.028-1.219-0.225-1.173-1.128
	c0.068-1.351,0.135-2.701,0.195-4.053c0.015-0.341,0.002-0.685,0.002-1c-0.617-0.356-0.848,0-0.983,0.415
	c-0.302,0.922-0.568,1.857-0.844,2.788c-0.254,0.858-0.501,1.72-0.77,2.641c-0.632-0.163-0.658-0.608-0.601-1.046
	c0.173-1.339,0.379-2.673,0.568-4.01c0.062-0.435,0.112-0.872,0.166-1.29c-0.533-0.28-0.817-0.081-1.009,0.297
	c-0.234,0.463-0.452,0.937-0.653,1.414c-0.579,1.365-1.145,2.735-1.71,4.088c-0.954-0.29-1.058-0.489-0.911-1.264
	c0.258-1.353,0.943-2.52,1.536-3.731c0.25-0.513,0.439-1.055,0.651-1.573c-0.541-0.301-0.864-0.122-1.122,0.188
	c-0.667,0.796-1.325,1.601-1.966,2.419c-0.529,0.676-1.028,1.376-1.456,1.951c-0.806,0.192-1.267-0.026-1.675-0.613
	c0.817-2.302,2.521-4.044,4.115-5.921c-0.179-0.207-0.321-0.372-0.476-0.551c-1.394,0.569-2.44,1.54-3.578,2.379
	c-0.471,0.347-0.976,0.657-1.495,0.927c-0.512,0.267-1.06,0.313-1.682-0.02c0-0.32,0-0.68,0-1.216
	c1.888-1.194,3.841-2.431,5.798-3.669c0.054-0.551-0.267-0.705-0.702-0.628c-0.509,0.09-1.012,0.231-1.502,0.393
	c-1.248,0.415-2.502,0.816-3.726,1.297c-0.857,0.336-1.541,0.14-2.237-0.434c0.041-0.938,0.738-1.316,1.448-1.543
	c1.284-0.411,2.604-0.711,3.912-1.05c0.83-0.215,1.662-0.417,2.589-0.648c-0.178-0.317-0.288-0.512-0.349-0.622
	c-2.485,0-4.869,0-7.377,0c-0.142-0.101-0.389-0.276-0.793-0.563c2.649-0.389,5.214-0.317,7.676-1.273
	c-0.139-0.338-0.223-0.542-0.288-0.7c-2.013-0.314-3.952-0.617-5.913-0.924c0-0.639,0-1.13,0-1.765
	c0.516,0.073,0.916,0.116,1.31,0.188c1.634,0.298,3.265,0.616,4.903,0.895c0.333,0.056,0.688-0.031,1.295-0.067
	c-0.339-0.376-0.453-0.603-0.635-0.69c-1.184-0.571-2.383-1.112-3.577-1.664c-0.151-0.07-0.297-0.148-0.577-0.289
	c0.536-0.396,1.053-0.39,1.52-0.281c1.281,0.295,2.548,0.651,3.817,0.995c0.329,0.089,0.645,0.223,0.978,0.341
	c0.339-0.183,0.639-0.346,0.945-0.512c0.128-0.296,0.251-0.577,0.423-0.973c-0.323-0.36-0.633-0.77-1.008-1.107
	c-0.382-0.341-0.725-0.654-0.462-1.34c0.836,0.576,1.642,1.131,2.544,1.752c0.521-0.269,1.063-0.548,1.438-0.741
	c0.371-0.708,0.652-1.246,0.987-1.886c0.681,0.688,0.969,1.649,1.99,1.663c-0.697,0.306-1.385,0.629-2.089,0.913
	c-1.629,0.659-2.869,1.722-3.788,3.248c-1.224,2.032-1.6,4.188-1.262,6.493c0.148,1.02,0.592,1.919,1.322,2.659
	c1.998,2.028,4.462,2.892,7.26,2.73c1.764-0.103,3.472-0.485,5.119-1.233c2.63-1.194,4.151-3.229,4.647-5.973
	c0.857-4.745-2.879-9.017-7.617-8.946C101.161,81.389,99.956,81.452,98.75,81.495z"/>
<path fill-rule="evenodd" clip-rule="evenodd" fill="#fafd30" class="fill" d="M63.974,109.834c-0.24,0-0.48,0.002-0.722,0
	c-1.806-0.017-2.771-0.692-3.266-2.422c-0.205-0.719-0.292-1.491-0.308-2.242c-0.018-0.815,0.287-1.556,0.899-2.14
	c0.793-0.755,1.461-1.663,2.656-2.155c0.235,2.709,1.125,5.089,3.131,7.036C65.537,108.578,64.764,109.2,63.974,109.834z"/>
<path fill-rule="evenodd" clip-rule="evenodd" fill="#fafd30" class="fill" d="M62.138,110.834c-1.843,1.463-3.395,1.096-4.888-0.741
	c0.131-0.487,0.286-1.064,0.448-1.665c0.792,0.567,1.438,1.131,2.175,1.528C60.586,110.34,61.391,110.553,62.138,110.834z"/>
</svg>
