<svg version="1.1" id="svg" xmlns="http://www.w3.org/2000/svg" xmlns:xlink="http://www.w3.org/1999/xlink" x="0px" y="0px"
	 width="200px" height="200px" viewBox="0 0 200 200" enable-background="new 0 0 200 200" xml:space="preserve">
<path class="stroke" fill="#2a374b"  d="M161.485,159.047c1.084-0.973,1.76-2.39,2.688-3.551c1.191-1.491,2.615-2.821,3.648-4.409
	c3.116-4.791,6.1-9.669,9.114-14.525c0.585-0.941,1.276-1.884,1.577-2.925c1.67-5.788,3.398-11.568,4.783-17.427
	c1.055-4.462,1.717-9.025,2.384-13.569c0.36-2.451,0.566-4.962,0.474-7.433c-0.105-2.811-0.573-5.613-0.968-8.408
	c-0.506-3.58-0.794-7.229-1.724-10.702c-1.308-4.887-2.906-9.721-5.411-14.18c-1.673-2.978-3.101-6.127-5.06-8.904
	c-3.156-4.472-6.554-8.787-10.062-12.991c-1.609-1.929-3.687-3.479-5.616-5.126c-1.961-1.675-3.981-3.284-6.013-4.874
	c-1.342-1.049-2.833-1.918-4.11-3.036c-2.193-1.919-4.64-3.31-7.417-4.163c-0.752-0.231-1.497-0.524-2.194-0.886
	c-1.703-0.886-3.317-1.97-5.076-2.715c-2.842-1.205-5.708-2.438-8.681-3.223c-3.551-0.938-7.21-1.503-10.847-2.074
	c-7.123-1.117-14.276-1.275-21.45-0.442c-3.611,0.419-7.277,0.332-10.778,1.637c-1.587,0.591-3.397,0.563-5.018,1.091
	c-2.337,0.762-4.66,1.634-6.866,2.711c-3.235,1.58-6.333,3.439-9.541,5.078c-4.503,2.3-8.641,5.157-12.833,7.961
	c-5.456,3.649-9.519,8.66-13.823,13.439c-5.647,6.271-8.861,13.928-11.661,21.72c-1.767,4.917-2.984,10.034-4.394,15.077
	c-1.201,4.295-1.948,8.71-1.843,13.146c0.131,5.498,0.556,11.008,1.218,16.468c0.458,3.776,1.521,7.48,2.347,11.209
	c0.144,0.648,0.501,1.246,0.685,1.889c0.701,2.462,1.425,4.919,2.038,7.404c0.74,3.005,2.611,5.406,4.165,7.962
	c2.005,3.297,4.24,6.453,6.324,9.704c3.28,5.115,7.525,9.382,12.025,13.367c2.394,2.119,5.2,3.778,7.854,5.596
	c1.241,0.849,2.544,1.612,3.852,2.356c1.786,1.015,3.594,1.99,5.408,2.953c1.531,0.813,3.048,1.67,4.637,2.354
	c1.964,0.846,4.028,1.458,5.99,2.308c1.877,0.812,3.637,1.901,5.529,2.671c1.232,0.501,2.604,0.667,3.921,0.947
	c2.556,0.543,5.119,1.061,7.678,1.588c0.021-0.105,0.042-0.211,0.063-0.315c2.312,0.101,4.625,0.259,6.938,0.291
	c4.185,0.06,8.376,0.189,12.553,0.008c2.925-0.128,5.832-0.711,8.743-1.12c1.415-0.199,2.864-0.322,4.222-0.73
	c2.964-0.89,5.918-1.838,8.802-2.955c2.314-0.896,4.568-1.982,6.76-3.151c3.784-2.017,7.572-4.044,11.214-6.3
	c2.32-1.438,4.395-3.277,6.551-4.973C156.714,162.965,159.189,161.105,161.485,159.047z"/>
<path fill-rule="evenodd" clip-rule="evenodd" fill="#eef9fc" class="fill" d="M96.87,57.466c-0.381-0.502-0.786-1.036-1.304-1.718
	c1.661-1.004,3.267-1.974,4.872-2.944c-6.395,12.488-10.46,25.817-14.892,39.347c-0.198-1.637-0.528-2.922-2.112-3.142
	c-1.677-0.233-2.72,0.527-3.681,2.494c-1.995,0.158-4.085,0.009-5.624,1.649c-1.6,1.706-1.217,3.506,0.904,4.482
	c0.425,0.195,0.832,0.433,1.291,0.674c-0.099,0.717-0.201,1.452-0.344,2.493c0.485,0.351,1.062,0.768,1.606,1.16
	c-0.973,1.777-1.269,3.462-0.474,5.244c-1.239-0.061-2.36-0.107-3.479-0.172c-2.094-0.122-3.369,1.054-4.411,2.687
	c-0.616,0.964-1.366,1.84-2.022,2.779c-0.944,1.35-0.974,3.107,0.265,4.175c1.8,1.553,3.456,3.486,6.09,3.664
	c1.133,0.077,2.276,0.013,3.415,0.013c0.059,0.111,0.119,0.222,0.178,0.333c-0.387,0.251-0.754,0.67-1.165,0.72
	c-1.024,0.123-2.183,0.373-3.079,0.028c-1.347-0.517-2.443-1.527-4.103-0.992c-1.801,0.581-3.423,1.354-4.403,3.021
	c-0.663,1.128-1.585,1.358-2.796,1.407c-3.55,0.146-6.396,1.654-8.309,4.72c-0.196,0.313-0.341,0.795-0.25,1.128
	c0.671,2.443-0.315,4.511-1.376,6.578c-0.108,0.21-0.17,0.444-0.177,0.463c0.161,4.484,2.625,7.769,4.743,11.219
	c1.093,1.779,2.089,3.691,4.084,4.538c1.35,0.573,2.901,0.661,4.345,1.03c0.702,0.179,1.457,0.379,2.027,0.792
	c1.237,0.896,2.37,1.936,3.595,2.956c0.204,4.937,0.411,9.956,0.627,15.201c-1.679-0.655-3.392-1.091-4.866-1.941
	c-4.27-2.464-8.531-4.964-12.63-7.697c-3.428-2.285-6.677-4.852-9.892-7.436c-1.223-0.982-2.143-2.348-3.173-3.562
	c-1.562-1.841-3.1-3.703-4.726-5.649c0.364-2.701,0.63-5.435,1.124-8.125c0.529-2.88,1.174-5.747,1.953-8.568
	c0.644-2.328,1.533-4.59,2.357-6.865c0.988-2.725,1.87-5.503,3.075-8.131c1.354-2.952,2.922-5.817,4.57-8.619
	c1.649-2.804,3.485-5.5,5.292-8.207c1.015-1.52,2.107-2.992,3.218-4.444c2.434-3.18,4.838-6.386,7.372-9.486
	c3.348-4.098,6.881-8.036,10.746-11.664c0.522-0.49,0.996-1.033,1.376-1.43c1.596,0.096,3.052,0.244,4.509,0.255
	c1.385,0.011,2.678-0.413,3.201-1.833c0.799-2.17,2.641-3.118,4.501-4.002c2.72-1.292,4.798-3.375,6.965-5.359
	C96.799,59.891,97.209,58.851,96.87,57.466z M80.134,80.127c0.239,0,0.479,0.01,0.718-0.001c1.301-0.062,2.317-0.62,2.824-1.844
	c0.482-1.163-0.134-1.971-1.025-2.658c-0.247-0.19-0.436-0.469-0.612-0.733c-0.987-1.486-2.501-1.565-4.025-1.422
	c-1.51,0.142-2.466,0.883-2.361,1.893C75.899,77.71,76.933,80.318,80.134,80.127z"/>
<path fill-rule="evenodd" clip-rule="evenodd" fill="#eef9fc" class="fill" d="M45.958,70.506c0.727,1.253,1.257,2.167,1.797,3.099
	c2.185,0.276,3.396-1.163,4.536-2.479c2.15-2.483,4.027-5.213,6.275-7.597c0.942-1,2.505-1.467,3.849-2.026
	c4.581-1.908,9.189-3.749,13.789-5.612c0.168-0.068,0.353-0.094,0.81-0.211c-0.72,1.356-1.459,2.278-2.773,2.678
	c-2.503,0.762-5.044,1.472-7.153,3.115c-0.809,0.63-1.583,1.354-2.205,2.165c-0.959,1.249-1.71,2.657-2.668,3.907
	c-1.057,1.377-0.858,2.748-0.176,4.125c0.481,0.972,2.528,1.629,3.818,1.509c1.45-0.134,2.595-0.864,3.793-1.566
	c1.782-1.045,3.666-1.419,5.907-0.499c-1.215,1.261-2.325,2.378-3.395,3.532c-2.055,2.217-4.19,4.371-6.106,6.703
	c-3.589,4.37-7.11,8.799-10.537,13.298c-2.29,3.006-4.583,6.048-6.489,9.3c-2.502,4.271-4.884,8.651-6.835,13.192
	c-1.856,4.32-3.181,8.879-4.569,13.386c-0.898,2.915-1.552,5.91-2.195,8.896c-0.333,1.547-0.395,3.151-0.595,4.729
	c-0.059,0.461-0.169,0.915-0.303,1.617c-0.856-1.237-1.661-2.222-2.271-3.315c-2.027-3.637-4.448-7.063-5.92-10.998
	c-1.042-2.786-2.17-5.544-3.075-8.373c-0.501-1.567-0.582-3.264-0.926-4.887c-0.533-2.514-1.317-4.989-1.654-7.526
	c-0.429-3.229-0.737-6.509-0.653-9.755c0.038-1.471,0.971-3.024,1.8-4.35c3.594-5.745,7.463-11.343,12.269-16.115
	C37.706,76.87,41.889,73.878,45.958,70.506z"/>
<path fill-rule="evenodd" clip-rule="evenodd" fill="#eef9fc" class="fill" d="M101.713,132.187c0.314-0.604,0.506-1.044,0.76-1.446
	c0.806-1.275,1.485-1.457,2.929-0.943c1.977,0.703,3.972,1.355,5.917,2.015c1.191,4.366,2.461,35.447,1,46.423
	c-6.427,1.252-12.913,1.189-19.503,0.552c-0.375-1.225-0.742-2.428-1.118-3.658c1.634-3.564,0.3-5.585-3.982-9.709
	c0.849-1.781,0.225-3.432-0.669-4.923c-1.323-2.206-3.374-2.57-5.972-2.056c-0.431-0.496-0.852-1.133-1.418-1.591
	c-0.648-0.524-1.381-1.145-2.152-1.274c-1.938-0.326-3.917-0.399-6.044-0.59c0.185-1.878,0.363-3.729,0.55-5.581
	c0.836-8.239,2.771-16.249,5.084-24.177c0.398-1.363,0.927-1.692,2.277-1.402c2.817,0.604,5.628,1.237,8.486,1.867
	c0.299,0.547,0.533,1.092,0.871,1.561c0.46,0.638,0.882,1.458,1.529,1.778c2.258,1.116,4.573,2.134,6.93,3.024
	C98.64,132.604,100.207,132.679,101.713,132.187z"/>
<path fill-rule="evenodd" clip-rule="evenodd" fill="#eef9fc" class="fill" d="M123.13,74.25c0.513-0.479,1.208-0.824,1.358-1.33
	c0.355-1.192-0.28-2.182-1.2-2.911c-0.65-0.516-1.413-0.887-2.111-1.344c-0.207-0.135-0.368-0.341-0.55-0.514
	c0.058-0.097,0.116-0.193,0.174-0.29c0.492,0.248,0.988,0.49,1.477,0.744c1.01,0.527,1.951,1.273,3.224,0.797
	c1.281-0.479,1.717-1.651,0.924-2.766c-0.528-0.742-1.159-1.41-1.847-2.236c0.591-0.653,2.262-1.218,1.426-3.134
	c1.801,0.955,3.643,1.841,5.395,2.88c3.012,1.788,5.997,3.625,8.939,5.526c4.299,2.777,8.248,5.99,11.886,9.604
	c2.061,2.047,4.375,3.837,6.492,5.833c3.753,3.539,6.816,7.666,9.809,11.842c1.389,1.938,2.711,3.924,4.096,5.866
	c0.594,0.833,0.376,1.553,0.05,2.439c-1.207,3.269-2.385,6.554-3.398,9.886c-0.856,2.813-0.569,5.748-0.501,8.646
	c0.021,0.89,0.003,1.781,0.003,2.685c-1.311,0.046-1.281-0.79-1.482-1.371c-0.741-2.138-1.454-4.285-2.164-6.434
	c-0.321-0.972-0.973-1.194-1.873-0.866c-1.675,0.611-3.335,1.265-5.022,1.84c-0.501,0.171-1.107,0.289-1.606,0.174
	c-2.753-0.632-4.911,0.203-6.554,2.465c-0.161,0.221-0.336,0.431-0.687,0.878c-3.12-9.026-7.59-17.193-11.923-25.448
	C133.15,89.498,128.188,81.721,123.13,74.25z"/>
<path fill-rule="evenodd" clip-rule="evenodd" fill="#eef9fc" class="fill" d="M148.178,124.159c-0.493,0.082-0.905,0.208-1.318,0.21
	c-2.574,0.014-5.149,0.032-7.723-0.027c-0.689-0.016-1.366-0.395-2.06-0.442c-2.037-0.138-3.372,1.135-3.053,3.141
	c0.304,1.911,0.91,3.758,2.652,5.001c2.041,1.456,5.354,1.173,6.998-0.786c1.002,0.125,2.074,0.26,3.441,0.431
	c-0.468,0.97-0.734,1.803-1.222,2.478c-1.212,1.677-2.485,3.313-3.809,4.904c-1.212,1.457-2.674,2.611-4.493,3.274
	c-0.544,0.199-1.079,0.498-1.534,0.858c-2.285,1.807-3.691,1.341-5.097-0.622c-0.942-1.315-1.693-2.766-2.599-4.108
	c-0.322-0.478-0.81-0.87-1.286-1.212c-1.12-0.804-2.278-1.554-3.31-2.25c-0.245-1.473-0.823-2.676-2.083-2.902
	c-1.811-0.325-3.789-1.02-5.398,0.696c-0.888,0.946-0.632,2.124,0.429,3.379c1.678,1.985,3.233,4.077,4.78,6.169
	c2.497,3.375,5.071,6.652,9.154,8.257c2.15,0.846,4.263,1.277,6.246-0.479c0.55-0.488,1.273-0.782,2.048-1.062
	c-0.348,1.532-1.105,2.798-2.246,3.867c-1.902,1.781-3.808,3.56-5.663,5.389c-1.318,1.3-2.747,2.55-3.779,4.06
	c-1.294,1.893-2.233,4.028-3.343,6.09c0.556,0.495,0.961,0.811,1.313,1.178c1.141,1.189,0.94,2.512-0.509,3.512
	c-0.654,0.451-1.385,0.825-1.935,1.38c-0.551,0.556-0.921,1.291-1.464,2.085c-2.372,0.502-4.876,1.031-7.712,1.631
	c0.906-15.583,0.379-30.947-0.937-46.308c1.671-0.103,3.372-0.208,4.856-0.299c2.321-3.823,2.224-8.264-0.106-9.946
	c-1.909,0.757-3.74,0.301-5.496-0.776c-0.091-0.485-0.184-0.985-0.317-1.699c1.627-0.755,3.322-1.541,4.76-2.208
	c1.635,0.113,3.038,0.399,4.393,0.25c1.335-0.148,2.808-0.453,3.442-1.959c0.849-2.014-0.26-4.171-2.398-4.733
	c-0.342-0.09-0.689-0.156-1.087-0.245c-0.143-1.008-0.285-2.011-0.428-3.02c1.118-0.684,1.601-0.712,4.577-0.237
	c0,0.508,0.064,1.046-0.013,1.564c-0.201,1.358,0.353,2.304,1.601,2.709c1.631,0.53,2.105,1.752,2.293,3.255
	c0.271,2.167,2.643,3.834,4.808,3.287c1.345-0.34,2.667-0.823,3.941-1.378c1.7-0.74,1.854-2.314,0.423-3.85
	c-0.459-0.493-1.015-0.896-1.642-1.441c-0.001-2.519,0.242-5.321-3.29-6.12c-0.1-0.481-0.186-0.944-0.294-1.403
	c-0.216-0.917-0.657-1.508-1.567-2.049c-0.944-0.562-1.505-1.767-2.411-2.916c2.246-1.077,4.198-2.012,6.202-2.972
	C138.27,100.026,147.487,119.571,148.178,124.159z"/>
<path fill-rule="evenodd" clip-rule="evenodd" fill="#eef9fc" class="fill" d="M125.634,54.087c0.074-0.249,0.195-0.658,0.336-1.129
	c-0.342-0.707-0.702-1.453-1.002-2.073c13.281-0.149,25.94,2.84,38.021,8.47c0.569,1.048,1.2,2.245,1.866,3.422
	c0.829,1.466,2.264,2.085,3.768,2.541c1.113,0.337,1.87,1.008,2.645,1.879c2.367,2.66,3.02,5.993,3.797,9.248
	c0.459,1.919,0.417,3.955,0.665,5.93c0.285,2.276,0.641,4.543,0.939,6.629c0.839,0.717,1.573,1.222,2.156,1.865
	c1.448,1.598,1.88,3.472,1.215,5.545c-0.115,0.359-0.319,0.788-0.615,0.973c-1.208,0.755-1.839,1.841-2.031,3.337
	c-1.661-0.633-2.52,0.445-3.463,1.692c-13.036-19.566-30.146-34.23-51.472-44.021c-0.033-0.407-0.048-0.798-0.101-1.186
	c-0.053-0.391-0.145-0.776-0.278-1.474C123.201,55.215,124.353,54.681,125.634,54.087z"/>
<path fill-rule="evenodd" clip-rule="evenodd" fill="#eef9fc" class="fill" d="M152.981,160.79c1.2-6.007,1.399-11.729,0.821-17.612
	c-0.569-5.798-1.579-11.406-3.46-16.823c0.875-1.072,1.634-2.19,2.592-3.099c0.512-0.486,1.349-0.79,2.07-0.862
	c1.334-0.134,2.709,0.098,4.033-0.079c1.072-0.143,2.093-0.663,3.137-1.016c-0.035-0.113-0.071-0.226-0.106-0.338
	c0.354,0,0.708,0,1.267,0c0.441,1.396,0.831,2.834,1.353,4.224c0.592,1.578,1.329,3.088,3.075,3.741
	c1.093,0.409,2.153,0.478,3.106-0.237c0.807-1.721,0.897-3.454,0.745-5.273c-0.28-3.327,0.122-6.544,1.445-9.692
	c0.652-1.55,0.64-3.377,0.951-5.075c0.095-0.522,0.267-1.03,0.403-1.545c0.149-0.023,0.298-0.046,0.447-0.07
	c0.444,1.316,1.033,2.603,1.302,3.953c0.699,3.508,1.27,7.042,1.866,10.57c0.47,2.773-0.478,5.337-1.662,7.685
	c-2.738,5.427-5.451,10.906-8.733,16.005c-2.348,3.647-5.593,6.72-8.456,10.034c-1.038,1.201-2.052,2.439-3.213,3.514
	C155.149,159.548,154.105,160.053,152.981,160.79z"/>
<path fill-rule="evenodd" clip-rule="evenodd" fill="#eef9fc" class="fill" d="M127.496,167.62c0.565-0.809,1.074-1.648,1.691-2.398
	c2.238-2.717,4.504-5.412,6.781-8.097c0.401-0.474,0.829-1.052,1.368-1.256c2.412-0.911,3.298-3.104,4.455-5.074
	c0.3-0.511,0.495-1.086,0.712-1.643c0.653-1.67,0.403-2.482-1.08-3.586c-0.469,0.022-0.938,0.045-1.406,0.07
	c-0.472,0.025-0.944,0.055-1.336,0.078c2.403-2.06,4.913-4.029,7.206-6.226c2.368-2.269,3.631-5.236,4.402-8.42
	c0.122-0.004,0.243-0.007,0.365-0.011c0.271,1.085,0.655,2.156,0.795,3.258c0.602,4.73,1.404,9.458,1.599,14.209
	c0.145,3.528-0.447,7.069-1.118,10.612c-0.569,3.007-2.245,4.376-4.442,5.746c-2.77,1.728-5.388,3.746-8.292,5.201
	c-3.82,1.913-7.852,3.405-11.799,5.06c-0.232,0.098-0.53,0.037-1.152,0.068c1.695-0.801,2.422-1.825,2.689-3.413
	C129.209,170.159,128.319,169.092,127.496,167.62z"/>
<path fill-rule="evenodd" clip-rule="evenodd" fill="#F13836" d="M114.42,78.975c1.532-1.785,4.648-0.73,5.486-3.492
	c1.386,0.919,1.974,2.239,2.577,3.573c0.32,0.707,0.834,1.324,1.215,2.007c0.801,1.44,1.747,2.833,2.31,4.364
	c0.64,1.739,0.963,3.601,1.356,5.424c0.281,1.307,0.94,2.04,2.347,2.031c0.702-0.004,1.405,0.128,2.056,0.193
	c0.395,1.208-0.319,2.416-1.443,2.731c-0.719,0.202-1.453,0.424-2.105,0.774c-1.645,0.883-2.135,2.461-1.375,4.154
	c0.144,0.32,0.287,0.641,0.432,0.964c-0.529,0.602-1.017,1.157-1.445,1.646c-0.042,0.538-0.074,0.965-0.114,1.481
	c-0.901,0-1.759,0.156-2.537-0.026c-3.555-0.833-6.558,0.549-9.477,2.257c-0.439,0.256-0.691,0.832-0.988,1.207
	c-0.619-0.36-1.255-0.729-1.94-1.127c-0.86-7.98-1.73-16.045-2.618-24.276c1.576,0.897,3.031,1.621,4.526,0.651
	C114.287,82.47,114.471,80.739,114.42,78.975z"/>
<path fill-rule="evenodd" clip-rule="evenodd" fill="#eef9fc" class="fill" d="M81.871,35.622c-0.9,0.26-1.84,0.43-2.693,0.798
	c-2.243,0.968-3.921,2.438-3.946,4.91c-1.148,0.866-2.141,1.615-3.54,2.67c-1.453-0.175-3.423-0.367-5.373-0.682
	c-0.444-0.071-0.849-0.534-1.221-0.873c-0.803-0.733-2.319-1.123-3.083-0.436c-1.71,1.538-3.881,1.188-5.835,1.685
	c-4.227,1.075-8.506,1.958-12.701,3.144c-2.041,0.577-3.935,1.671-5.908,2.501c-0.47,0.198-0.99,0.275-1.486,0.409
	c-0.066-0.106-0.133-0.212-0.2-0.317c1.186-1.525,2.245-3.174,3.585-4.549c2.438-2.502,4.904-5.016,7.62-7.2
	c2.653-2.133,5.628-3.868,8.472-5.764c2.875-1.917,5.763-3.816,8.61-5.701c6.621,1.728,12.072,5.615,17.774,9.022
	C81.921,35.366,81.896,35.494,81.871,35.622z"/>
<path fill-rule="evenodd" clip-rule="evenodd" fill="#eef9fc" class="fill" d="M70.408,154.667c-1.172-1.022-2.073-1.73-2.879-2.533
	c-0.786-0.783-1.643-1.215-2.771-1.121c-0.713,0.06-1.449,0.115-2.147,0.001c-0.58-0.096-1.243-0.312-1.656-0.7
	c-3.009-2.839-4.761-6.478-6.337-10.217c-0.076-0.181-0.139-0.38-0.15-0.574c-0.023-0.396-0.007-0.797-0.007-1.179
	c1.255-1.464,1.638-3.151,1.442-5.001c-0.213-2.015,0.247-2.888,2.053-3.873c0.593-0.324,1.161-0.721,1.79-0.943
	c0.468-0.165,1.077-0.267,1.52-0.108c1.986,0.711,4.101-0.033,5.13-1.842c0.431-0.757,0.937-1.49,1.512-2.142
	c0.791-0.896,2.116-1.104,2.858-0.236c1.216,1.422,2.588,1.094,4.039,0.789c0.304-0.064,0.603-0.152,1.205-0.306
	C73.244,134.512,71.103,144.27,70.408,154.667z"/>
<path fill-rule="evenodd" clip-rule="evenodd" fill="#eef9fc" class="fill" d="M29.408,61.495c1.566,1.267,2.805,1.887,4.574,1.319
	c0.615-0.198,1.724,0.577,2.367,1.169c0.793,0.73,1.539,1.184,2.641,1.059c1.067-0.121,1.95-0.154,2.203,1.414
	c0.156,0.967,1.304,1.55,2.48,1.456c1.345-0.107,1.464-1.285,1.893-2.187c0.22-0.462,0.418-0.935,0.626-1.402
	c0.178,0.04,0.356,0.081,0.535,0.121c-0.137,1.542-0.274,3.083-0.441,4.972C35.077,76.351,26.572,86.162,19.643,97.62
	c0.094-1.625,0.14-3.255,0.297-4.875c0.162-1.659,0.417-3.311,0.66-4.961c0.404-2.746,0.864-5.484,1.243-8.234
	c0.729-5.291,2.316-10.303,4.78-15.036c0.367-0.704,0.759-1.423,1.282-2.008C28.311,62.053,28.939,61.798,29.408,61.495z"/>
<path fill-rule="evenodd" clip-rule="evenodd" fill="#F13836" d="M92.498,112.529c1.248,1.744,2.505,3.502,3.81,5.325
	c-0.123,0.379-0.254,0.784-0.51,1.572c-0.349-0.648-0.68-1.001-0.721-1.384c-0.165-1.571-0.864-2.539-2.495-2.905
	c-1.14-0.256-2.125-0.848-2.22-2.285c-0.128-1.927-3.898-3.312-5.904-1.953c-0.583,0.395-1.238,0.692-1.885,0.979
	c-0.651,0.288-1.333,0.506-2.199,0.83c0.83-2.896,1.62-5.652,2.443-8.521c1.297-0.105,2.578-0.18,3.853-0.32
	c1.333-0.147,2.316-0.764,3.104-1.944c1.528-2.287,3.912-2.261,6.317-1.98c2.467,0.288,4.942,0.425,7.065-1.156
	c0.691-0.515,1.267-1.307,1.647-2.093c0.687-1.419,1.451-2.657,3.424-3.076c0.489,4.761,0.974,9.478,1.451,14.116
	c-0.594,0.822-1.12,1.614-1.711,2.354c-1.114,1.393-1.214,2.927-0.831,4.597c0.133,0.583,0.021,1.223,0.021,1.984
	c-2.26,0.014-3.704,1.011-4.398,3.394c-0.205-0.669-0.365-1.042-0.431-1.431c-0.363-2.131-1.85-3.512-3.25-4.96
	c-0.608-0.629-1.129-1.342-1.747-1.96C96.085,110.458,94.222,109.975,92.498,112.529z"/>
<path fill-rule="evenodd" clip-rule="evenodd" fill="#eef9fc" class="fill" d="M124.269,49.345c1.002-1.511,2.746-2.176,2.232-4.153
	c-0.456-1.756-1.922-2.143-3.288-2.797c0.075-0.454,0.138-0.832,0.212-1.28c4.026-1.507,7.989-3.129,12.386-3.583
	c1.57,2.361,2.773,5.029,5.498,6.233c0.715,0.316,1.646,0.144,2.711,0.21c0.694-1.208,1.4-2.435,2.288-3.98
	c0.713,0.479,1.432,0.75,1.831,1.268c1.879,2.436,4.61,3.753,7.04,5.446c2.101,1.464,3.961,2.999,4.485,5.669
	c0.339,1.729,1.205,2.301,3.935,2.651c0.149,0.312,0.317,0.662,0.484,1.009c-0.263,0.617-0.509,1.196-0.817,1.921
	c-2.668-0.99-5.3-1.979-7.941-2.943c-4.588-1.675-9.222-3.209-14.088-3.836c-3.311-0.426-6.641-0.706-9.96-1.061
	C129.041,49.883,126.808,49.627,124.269,49.345z"/>
<path fill-rule="evenodd" clip-rule="evenodd" fill="#eef9fc" class="fill" d="M59.925,54.565c-0.522,0.485-1.034,0.98-1.567,1.452
	c-1.167,1.032-1.848,2.118-1.337,3.845c0.318,1.073-0.029,2.228-1.185,2.971c-1.898,1.221-3.729,2.545-5.591,3.823
	c-0.32,0.219-0.651,0.421-1.106,0.715c-0.115-1.658-0.219-3.159-0.312-4.5c-3.165-1.816-4.258-2.128-5.79,1.015
	c-1.479-2.117-3.452-2.715-5.827-1.882c-1.295-1.558-2.932-2.001-4.814-1.737c-0.79-0.354-1.578-0.708-2.478-1.114
	c0.231-0.572,0.348-1.183,0.682-1.634c1.785-2.407,2.827-5.455,5.974-6.69c2.62-1.028,5.1-2.485,7.782-3.268
	c4.556-1.329,9.223-2.276,13.843-3.383c0.089,0.158,0.178,0.317,0.267,0.475c-0.625,0.719-1.171,1.536-1.898,2.131
	c-0.854,0.7-1.904,1.156-2.799,1.814c-0.886,0.651-1.839,1.304-2.49,2.163c-1.292,1.705-0.533,3.354,1.508,4.076
	c2.034,0.719,3.948,0.68,5.885-0.21c0.339-0.156,0.724-0.209,1.088-0.311C59.815,54.4,59.87,54.483,59.925,54.565z"/>
<path fill-rule="evenodd" clip-rule="evenodd" fill="#eef9fc" class="fill" d="M122.442,19.464c-1.992,2.286-3.964,4.548-5.986,6.869
	c-0.775-0.079-1.672-0.218-2.573-0.25c-0.952-0.034-1.626,0.366-1.636,1.438c-0.013,1.458-0.003,2.917-0.003,4.522
	c-3.05,5.283-6.241,10.81-9.475,16.409c-1.192-5.269-2.379-10.515-3.602-15.915c0.918-0.135,1.828-0.165,2.67-0.418
	c1.204-0.361,2.372-0.854,3.524-1.361c0.289-0.127,0.585-0.493,0.662-0.803c0.446-1.796,1.174-3.617,0.315-5.453
	c-0.319-0.683-0.97-1.209-1.508-1.854c0.166-0.271,0.348-0.565,0.509-0.829c-0.739-2.129-1.384-2.546-3.431-2.599
	c-2.352-0.06-4.542,0.224-6.251,2.467c-0.671-1.593-1.23-2.918-1.792-4.25C97.628,16.166,118.397,17.633,122.442,19.464z"/>
<path fill-rule="evenodd" clip-rule="evenodd" fill="#eef9fc" class="fill" d="M102.156,52.714c1.205,7.294,2.367,14.332,3.568,21.607
	c-0.755-0.263-1.229-0.427-1.423-0.495c-3.543-0.051-4.904,2.532-6.579,4.668c-1.27,1.619-2.457,3.302-3.711,4.933
	c-0.174,0.226-0.503,0.369-0.79,0.466c-2.243,0.757-4.208,2.665-5.002,4.845c0.376,2.042,1.646,3.137,3.536,3.542
	c0.363,1.088,0.708,2.124,1.111,3.333c1.265,1.504,3.852,1.174,5.184-0.429c0.224-0.27,0.495-0.514,0.784-0.712
	c1.22-0.84,1.688-1.702,1.12-3.042c-1.068-2.524,0.176-4.063,2.198-5.69c-0.335,0.9-0.576,1.539-0.81,2.18
	c-1.002,2.742-0.235,4.087,2.575,4.571c-0.723,1.289-1.416,2.608-2.188,3.879c-0.739,1.217-1.979,1.37-3.253,1.322
	c-0.947-0.036-1.89-0.164-2.837-0.2c-0.985-0.038-1.901,0.047-2.744-0.801c-0.782-0.788-3.402-0.143-4.104,0.793
	c-0.792,1.056-1.333,2.398-2.821,2.601c-0.168-3.393,0.239-6.65,1.424-9.892c2.592-7.085,4.905-14.271,7.364-21.405
	c1.802-5.229,4.039-10.27,6.755-15.093C101.663,53.428,101.849,53.18,102.156,52.714z"/>
<path fill-rule="evenodd" clip-rule="evenodd" fill="#eef9fc" class="fill" d="M89.243,172.003c-0.629,0.836-1.21,1.607-1.766,2.346
	c0.483,1.311,0.956,2.594,1.506,4.09c-6.002-0.442-11.238-2.731-16.88-4.648c-0.21-5.005-0.425-10.117-0.643-15.3
	c1.82,0,3.555-0.035,5.285,0.033c0.305,0.013,0.691,0.402,0.873,0.715c1.13,1.949,2.957,2.217,4.948,2.147
	c0.504-0.018,1.01-0.002,1.541-0.002c0.156,0.639,0.286,1.167,0.449,1.833c-0.18,0.287-0.404,0.653-0.639,1.012
	c-1.241,1.896-0.632,2.803,1.146,3.771c1.021,0.556,1.994,1.247,2.861,2.021C88.458,170.498,88.753,171.244,89.243,172.003z"/>
<path fill-rule="evenodd" clip-rule="evenodd" fill="#eef9fc" class="fill" d="M99.548,128.979c-2.163-0.252-3.948-0.545-5.745-0.646
	c-2.016-0.113-2.587-0.542-2.887-2.596c-0.327-2.229-1.937-3.644-4.013-3.299c-1.25,0.208-2.332-0.044-3.48-0.424
	c-1.608-0.531-3.261-0.927-5.148-1.451c1.092-1.748,2.135-3.417,3.282-5.252c1.671-0.829,3.504-1.737,5.515-2.734
	c0.732,1.344,1.469,2.696,2.15,3.947c2.041,0.049,2.589,0.564,3.09,2.33c0.24,0.844,0.548,1.854,1.172,2.371
	c1.82,1.506,4.646,0.005,4.89-2.496c0.028-0.277,0.004-0.559,0.004-0.955c-1.101-1.559-2.253-3.191-3.406-4.824
	c0.034-0.062,0.068-0.125,0.102-0.187c0.707,0.648,1.533,1.207,2.098,1.961c1.431,1.911,2.602,3.937,3.28,6.303
	c0.268,0.934,1.613,1.637,2.597,2.233c0.244,0.148,1.127-0.418,1.468-0.852c0.446-0.567,0.644-1.329,1.107-2.359
	c0.453,3.255,2.098,4.839,5.203,4.774c0.133,1.406,0.263,2.775,0.43,4.541c-1.912-0.628-3.67-0.977-5.205-1.763
	c-2.477-1.268-4.107-1.122-6.016,0.977C99.824,128.807,99.549,128.977,99.548,128.979z"/>
<path fill-rule="evenodd" clip-rule="evenodd" fill="#eef9fc" class="fill" d="M152.784,35.416c-5.011,0-9.794,0-14.902,0
	c-0.469-0.427-1.283-1.167-2.165-1.969c1.338-0.547,2.419-1.246,2.508-2.785c0.075-1.298-1.629-3.007-2.965-3.004
	c-1.493,0.003-2.997-0.133-4.476,0.006c-1.846,0.175-3.668,0.594-5.507,0.856c-0.664,0.094-1.397,0.204-2.015,0.021
	c-1.843-0.544-3.645-1.229-5.778-1.969c2.241-2.469,4.281-4.717,6.222-6.856C128.949,19.513,148.179,29.873,152.784,35.416z"/>
<path fill-rule="evenodd" clip-rule="evenodd" fill="#eef9fc" class="fill" d="M89.516,53.043c0.073,1.659,0.21,3.14,2.461,3.271
	c-4.699,4.136-9.18,8.08-13.762,12.113c-1.441-0.104-3.069-0.028-4.601-0.376c-2.647-0.604-4.925,0.068-7.113,1.458
	c-0.633,0.401-1.29,0.639-2.09-0.177c0.378-0.527,0.746-1.058,1.133-1.576c0.626-0.837,1.328-1.625,1.883-2.505
	c1.068-1.693,2.708-2.613,4.44-3.385c0.934-0.416,1.941-0.708,2.944-0.917c2.561-0.533,4.354-1.968,5.397-4.352
	c0.687-1.568,1.724-2.562,3.562-2.716c1.411-0.119,2.792-0.568,4.196-0.824C88.416,52.974,88.893,53.043,89.516,53.043z"/>
<path fill-rule="evenodd" clip-rule="evenodd" fill="#eef9fc" class="fill" d="M103.83,53.447c4.951,5.641,9.901,11.281,14.789,16.849
	c-0.74,1.277-1.38,2.383-2.021,3.488c0.084,0.053,0.168,0.106,0.252,0.16c-1.447,1.022-2.894,2.044-4.425,3.126
	c-1.21-1.379-3.172-1.973-5.463-2.221c-1.204-7.073-2.408-14.147-3.611-21.221C103.51,53.567,103.67,53.507,103.83,53.447z"/>
<path fill-rule="evenodd" clip-rule="evenodd" fill="#eef9fc" class="fill" d="M175.923,65.276c-1.637-1.228-3.109-2.49-4.734-3.505
	c-1.601-1-3.357-1.75-5.262-2.721c0.23-0.481,0.355-1.026,0.686-1.378c0.954-1.016,1.002-1.937,0.344-3.215
	c-0.855-1.66-1.959-2.603-3.862-2.631c-0.567-0.009-1.13-0.326-1.695-0.502c-0.712-2.813-2.381-4.829-4.61-6.533
	c-1.902-1.455-3.52-3.287-5.444-4.705c-1.808-1.331-3.622-2.863-6.221-2.369c-1.73,0.329-2.092,1.757-2.785,3.086
	c-0.358,0.019-0.739,0.04-1.285,0.07c-0.696-1.212-1.398-2.434-2.222-3.869c0.945-0.121,1.595-0.272,2.245-0.275
	c4.179-0.019,8.357-0.026,12.536,0.021c0.551,0.006,1.246,0.192,1.625,0.555c2.302,2.196,4.604,4.401,6.763,6.736
	c1.669,1.806,3.139,3.798,4.678,5.722c1.327,1.658,2.626,3.338,3.938,5.008c0.049,0.063,0.108,0.121,0.145,0.191
	c1.721,3.238,3.443,6.477,5.152,9.721C175.978,64.802,175.923,64.983,175.923,65.276z"/>
<path fill-rule="evenodd" clip-rule="evenodd" fill="#eef9fc" class="fill" d="M97.099,29.779c-1.333,0.867-2.659,1.161-4.085,1.023
	c-2.623-0.252-5.205-0.223-7.421,1.46c-0.829,0.629-1.511,1.452-2.383,2.308c-5.574-2.991-10.792-7.048-17.099-9.022
	c0-0.121,0.001-0.242,0.001-0.363c0.435,0,0.896-0.095,1.299,0.018c1.259,0.353,2.472,0.99,3.747,1.14
	c2.078,0.243,4.195,0.309,6.288,0.234c4.195-0.15,8.39-0.383,12.575-0.708c1.83-0.142,3.636-0.594,5.679-0.944
	C96.097,26.301,96.596,28.036,97.099,29.779z"/>
<path fill-rule="evenodd" clip-rule="evenodd" fill="#eef9fc" class="fill" d="M98.115,32.724c1.271,5.608,2.482,10.95,3.693,16.292
	c-0.135,0.072-0.27,0.144-0.405,0.216c-0.363-0.25-0.752-0.468-1.085-0.753c-2.633-2.251-5.372-4.397-7.834-6.823
	c-1.355-1.335-3.36-1.936-4.187-3.928c-0.252-0.607-1.405-0.84-2.197-1.273c0.512-1.098,1.491-1.762,2.921-1.924
	c1.44-0.163,2.868-0.458,4.291-0.743C94.815,33.485,96.307,33.126,98.115,32.724z"/>
<path fill-rule="evenodd" clip-rule="evenodd" fill="#eef9fc" class="fill" d="M94.657,22.304c-2.034,0.51-3.907,1.166-5.833,1.414
	c-2.302,0.296-4.65,0.229-6.976,0.347c-0.911,0.046-1.818,0.168-2.727,0.263c-0.551,0.058-1.11,0.231-1.649,0.179
	c-2.007-0.195-4.008-0.447-6.007-0.717c-0.361-0.048-0.698-0.284-1.369-0.572c7.149-3.796,14.579-5.138,22.392-5.974
	C93.165,18.822,93.842,20.402,94.657,22.304z"/>
<path fill-rule="evenodd" clip-rule="evenodd" fill="#eef9fc" class="fill" d="M123.293,39.611c-0.618-2.411-1.968-4.105-4.339-4.886
	c-0.595-2.063-2.555-2.693-4.173-3.935c0.375-0.595,0.762-1.207,1.29-2.042c2.234,0.643,4.517,1.197,6.72,1.977
	c1.15,0.407,2.12,0.798,3.396,0.318c0.983-0.37,2.149-0.313,3.236-0.339c1.997-0.046,3.995-0.013,5.993-0.013
	c0.02,0.107,0.038,0.214,0.058,0.321c-1.524,0.245-3.048,0.489-4.456,0.715c-0.59,2.586-0.352,2.888,3.199,4.428
	C130.627,37.291,127.063,38.418,123.293,39.611z"/>
<path fill-rule="evenodd" clip-rule="evenodd" fill="#eef9fc" class="fill" d="M120.383,40.669c-5.607,2.812-10.94,5.486-16.581,8.314
	c3.231-5.537,5.736-11.254,9.718-16.551c0.553,0.824,1.129,1.452,1.437,2.193c0.524,1.262,1.426,2.042,2.696,2.272
	c1.106,0.201,1.649,0.812,1.973,1.794C119.855,39.388,120.148,40.063,120.383,40.669z"/>
<path fill-rule="evenodd" clip-rule="evenodd" fill="#eef9fc" class="fill" d="M119.698,58.187c0.507,3.882,0.809,4.253,3.41,4.4
	c-0.477,0.492-0.953,0.983-1.584,1.635c-0.042,0.157-0.143,0.537-0.269,1.011c-1.585,0.199-2.676,1.076-3.164,2.688
	c-4.872-5.536-9.678-10.996-14.483-16.455c0.035-0.084,0.071-0.169,0.106-0.253C109.07,53.548,114.424,55.885,119.698,58.187z"/>
<path fill-rule="evenodd" clip-rule="evenodd" fill="#F13836" d="M106.202,77.192c0.515,3.891,0.987,7.454,1.446,10.923
	c-1.418,0.323-2.634,0.6-3.909,0.89c0.224-2.122,1.578-4.35-0.129-6.525c-1.246,0.053-2.082,0.593-2.785,1.491
	c-0.603,0.77-1.303,1.466-1.979,2.176c-1.086,1.14-1.69,2.444-1.629,4.061c0.086,2.268-0.151,2.51-2.459,2.901
	c-0.526-1.979-1.126-2.734-3.093-3.851c0.456-1.362,1.358-2.215,2.806-2.375c1.206-0.133,1.833-0.842,2.44-1.83
	c1.361-2.217,2.804-4.393,4.358-6.477c0.538-0.722,1.436-1.353,2.293-1.605C104.335,76.746,105.278,77.093,106.202,77.192z"/>
<path fill-rule="evenodd" clip-rule="evenodd" fill="#eef9fc" class="fill" d="M183.027,99.528c-0.99,7.121-0.923,14.182-3.95,21.042
	c-1.091-5.453-1.179-10.857-3.979-15.654c0.317-0.51,0.639-1.028,0.942-1.516c3.26,1.011,3.26,1.011,4.666-0.213
	C180.274,101.41,181.451,100.508,183.027,99.528z"/>
<path fill-rule="evenodd" clip-rule="evenodd" fill="#F13836" d="M80.004,109.799c-0.7,2.32-1.227,4.352-1.931,6.32
	c-0.615,1.718-4.34,2.9-5.935,1.959c-0.316-0.187-0.531-0.567-0.756-0.884c-0.51-0.717-0.998-1.451-1.631-2.118
	c-0.593-1.545,0.698-2.443,1.414-3.567c0.188-0.296,0.507-0.507,0.707-0.798c1.223-1.786,1.809-1.884,3.475-0.606
	C76.829,111.242,78.326,111.199,80.004,109.799z"/>
<path fill-rule="evenodd" clip-rule="evenodd" fill="#eef9fc" class="fill" d="M72.188,47.57c-0.888,0.989-1.745,1.945-2.624,2.925
	c-2.156-0.169-4.499-1.112-5.803,1.568c-1.321-1.546-1.651-1.538-3.6-0.78c-1.604,0.624-3.29,1.044-4.953,1.507
	c-0.289,0.08-0.643-0.076-0.967-0.124c-0.043-0.118-0.086-0.236-0.128-0.354c0.833-0.625,1.694-1.215,2.488-1.885
	c0.841-0.71,1.617-1.496,2.422-2.249c1.128-1.057,2.209-2.172,3.41-3.14c0.437-0.353,1.157-0.355,1.433-0.431
	c0.966,1.232,1.743,2.223,2.598,3.313C68.325,46.857,70.102,46.639,72.188,47.57z"/>
<path fill-rule="evenodd" clip-rule="evenodd" fill="#eef9fc" class="fill" d="M123.726,45.742c-0.882,1.167-1.686,2.23-2.567,3.395
	c-4.569,0-9.325,0-14.478,0c4.503-2.759,8.966-4.83,13.528-6.742C121.181,45,121.181,45,123.726,45.742z"/>
<path fill-rule="evenodd" clip-rule="evenodd" fill="#eef9fc" class="fill" d="M121.567,50.352c0.314,0.494,0.59,0.927,0.777,1.221
	c-0.709,0.792-1.552,1.452-2.003,2.317c-0.453,0.869-0.515,1.941-0.757,2.958c-4.686-2.025-9.394-4.059-14.102-6.093
	c0.027-0.134,0.055-0.269,0.083-0.403C110.902,50.352,116.238,50.352,121.567,50.352z"/>
<path fill-rule="evenodd" clip-rule="evenodd" fill="#eef9fc" class="fill" d="M173.706,65.243c2.286,1.646,4.522,3.211,5.06,6.417
	c0.521,3.109,1.538,6.133,2.242,9.215c0.629,2.753,1.134,5.535,1.676,8.307c0.052,0.263-0.02,0.55-0.041,0.981
	c-0.945-0.78-1.772-1.516-2.654-2.177c-1.117-0.838-0.754-2.023-0.767-3.094c-0.04-3.356-0.359-6.653-1.502-9.847
	c-0.398-1.113-0.596-2.305-0.815-3.474c-0.341-1.818-1.203-3.344-2.432-4.696c-0.388-0.427-0.719-0.904-1.077-1.359
	C173.5,65.425,173.603,65.334,173.706,65.243z"/>
<path fill-rule="evenodd" clip-rule="evenodd" fill="#eef9fc" class="fill" d="M111.685,116.332c-0.083-2.177-1.067-4.115-0.207-6.341
	c0.553,0.322,0.945,0.551,1.344,0.783c0.039,0.351,0.073,0.66,0.103,0.925c0.875,0.967,2.544,0.616,2.974-0.554
	c0.332-0.903,0.717-1.787,1.109-2.757c0.514,0.216,0.787,0.331,1.035,0.435c0.087,3.357-0.125,4.334,3.647,3.734
	c0.195,0.484,0.404,1.002,0.581,1.439c-0.86,1.215-1.976,1.506-3.078,1.164c-2.401-0.746-4.614-0.6-6.707,0.84
	C112.333,116.107,112.133,116.15,111.685,116.332z"/>
<path fill-rule="evenodd" clip-rule="evenodd" fill="#eef9fc" class="fill" d="M104.042,28.6c-0.905,1.006-4.232,1.363-5.912,0.552
	c-0.535-1.831-1.066-3.651-1.636-5.604c1.126-1.149,2.584-1.707,4.328-1.841c-0.391,0.844-0.747,1.612-1.299,2.805
	c1.703,0.227,3.036,0.405,4.519,0.602C104.042,26.162,104.042,27.266,104.042,28.6z"/>
<path fill-rule="evenodd" clip-rule="evenodd" fill="#eef9fc" class="fill" d="M135.943,114.352c-1.03,1.186-2.338,0.964-3.625,1.221
	c-0.213-1.185-0.307-2.239-0.602-3.234c-0.566-1.911-1.572-2.716-3.471-2.96c-0.082-0.19-0.17-0.401-0.284-0.667
	c1.461-0.894,0.939-2.39,1.22-3.662c0.112-0.507,0.67-0.916,1.025-1.369c0.17,0.06,0.341,0.119,0.511,0.178c0,1.146,0,2.292,0,3.364
	c0.84,0.36,1.422,0.599,1.995,0.857c0.792,0.357,1.135,0.961,0.914,1.822c-0.345,1.341,0.003,2.386,1.177,3.191
	C135.243,113.393,135.541,113.896,135.943,114.352z"/>
<path fill-rule="evenodd" clip-rule="evenodd" fill="#eef9fc" class="fill" d="M97.795,48.013c-2.147-0.127-9.364-2.705-10.681-3.884
	c0.749-1.061,1.512-2.142,2.449-3.468c2.83,2.352,5.65,4.696,8.47,7.039C97.953,47.804,97.874,47.909,97.795,48.013z"/>
<path fill-rule="evenodd" clip-rule="evenodd" fill="#eef9fc" class="fill" d="M130.998,147.417c-2.852-0.565-4.566-2.091-5.917-4.425
	c-1.26-2.177-3.04-4.053-4.587-6.064c-0.612-0.796-1.212-1.6-2.005-2.647c1.643,0.104,2.411,0.743,3.181,1.722
	c1.209,1.536,2.57,3.008,4.098,4.217c0.839,0.664,1.63,1.27,1.977,2.249c0.607,1.716,1.456,3.236,2.896,4.389
	C130.754,146.948,130.809,147.114,130.998,147.417z"/>
<path fill-rule="evenodd" clip-rule="evenodd" fill="#eef9fc" class="fill" d="M67.183,52.609c1.442,0.382,2.644,0.701,3.728,0.988
	c2.391-2.072,3.345-5.449,6.804-6.014c-1.619,3.663-4.448,6.072-8.084,7.883c-1.932-1.617-3.208,0.554-4.824,1.071
	c-0.084-0.11-0.168-0.221-0.252-0.332C65.405,55.042,66.256,53.877,67.183,52.609z"/>
<path fill-rule="evenodd" clip-rule="evenodd" fill="#eef9fc" class="fill" d="M149.194,126.904c0.135,0.421,0.248,0.757,0.346,1.096
	c0.021,0.071-0.01,0.156-0.027,0.342c-1.666,0.063-3.285,0.948-5.036-0.049c-0.94-0.535-1.886,0.005-2.735,0.641
	c-1.939,1.455-4.669,0.488-5.476-2.097c0.57-0.109,1.144-0.375,1.66-0.291c3.558,0.576,7.096,1.421,10.707,0.363
	C148.777,126.868,148.943,126.904,149.194,126.904z"/>
<path fill-rule="evenodd" clip-rule="evenodd" fill="#eef9fc" class="fill" d="M93.112,56.927c0.4,0.802,0.591,1.185,0.87,1.743
	c-2.734,2.796-5.763,5.133-9.513,6.403c-0.084-0.108-0.168-0.216-0.253-0.324C87.114,62.201,90.012,59.653,93.112,56.927z"/>
<path fill-rule="evenodd" clip-rule="evenodd" fill="#eef9fc" class="fill" d="M75.718,54.608c0.809-0.919,1.562-1.897,2.439-2.745
	c1.632-1.576,2.434-3.318,1.314-5.665c0.469,0,0.78,0,1.15,0c-0.062,2.301,1.563,3.135,3.479,3.958
	c-0.563,0.213-1.009,0.304-1.369,0.532c-1.298,0.822-2.549,1.717-3.852,2.531c-0.978,0.611-2.008,1.138-3.015,1.703
	C75.816,54.818,75.767,54.713,75.718,54.608z"/>
<path fill-rule="evenodd" clip-rule="evenodd" fill="#eef9fc" class="fill" d="M92.417,51.9c2.618-0.276,5.165-0.544,7.713-0.813
	c0.052,0.145,0.104,0.29,0.157,0.435c-2.597,0.86-4.294,3.581-7.632,3.423C92.571,53.878,92.5,52.975,92.417,51.9z"/>
<path fill-rule="evenodd" clip-rule="evenodd" fill="#eef9fc" class="fill" d="M116.05,124.819c0.152,0.617,0.264,1.074,0.402,1.631
	c-0.517,0.777-1.06,1.595-1.602,2.41c-0.775,0.098-1.508,0.19-2.384,0.301c-0.171-1.497-0.333-2.917-0.532-4.661
	C113.435,124.617,114.695,124.715,116.05,124.819z"/>
<path fill-rule="evenodd" clip-rule="evenodd" fill="#eef9fc" class="fill" d="M60.228,61.179c-0.062-1.184-0.178-2.16-0.132-3.128
	c0.019-0.408,0.301-0.873,0.598-1.184c0.462-0.483,1.039-0.856,1.685-1.37c0.346,1.441,0.148,3.189,2.494,3.66
	C63.072,59.941,61.646,60.562,60.228,61.179z"/>
<path fill-rule="evenodd" clip-rule="evenodd" fill="#eef9fc" class="fill" d="M91.298,50.897c0.388-0.951,0.712-1.744,1.176-2.882
	c2.113,0.509,4.305,1.038,6.497,1.566c-0.011,0.149-0.021,0.298-0.032,0.447C96.402,50.316,93.865,50.604,91.298,50.897z"/>
<path fill-rule="evenodd" clip-rule="evenodd" fill="#F13836" d="M79.885,99.224c0.2-0.272,0.308-0.5,0.484-0.646
	c1.896-1.571,2.47-3.605,2.159-5.977c-0.077-0.591-0.084-1.215,0.791-1.169c0.088,1.917,0.179,3.752,0.256,5.589
	c0.041,0.976-0.26,1.833-1.137,2.327C81.647,99.792,80.792,99.943,79.885,99.224z"/>
<path fill-rule="evenodd" clip-rule="evenodd" fill="#eef9fc" class="fill" d="M129.645,90.771c-0.336-1.928-0.643-3.688-0.95-5.447
	c0.123-0.038,0.246-0.076,0.368-0.114c1.08,1.847,2.16,3.693,3.403,5.819C131.387,90.931,130.56,90.855,129.645,90.771z"/>
<path fill-rule="evenodd" clip-rule="evenodd" fill="#eef9fc" class="fill" d="M80.933,42.186c1.411-0.875,2.842-1.812,4.331-2.648
	c0.339-0.19,0.876-0.028,1.382-0.028C85.553,42.055,82.79,43.237,80.933,42.186z"/>
<path fill-rule="evenodd" clip-rule="evenodd" fill="#eef9fc" class="fill" d="M89.485,48.524c-1.609,0.677-4.634-0.366-5.617-1.961
	c1.639,0.237,3.197,0.468,4.756,0.687C89.354,47.353,89.691,47.713,89.485,48.524z"/>
<path fill-rule="evenodd" clip-rule="evenodd" fill="#eef9fc" class="fill" d="M108.953,122.072c-1.037-0.723-1.656-1.417-0.808-2.572
	c0.323-0.135,0.687-0.287,1.107-0.462c0.405,0.132,0.848,0.277,1.37,0.448c0,0.487,0,0.945,0,1.491
	C110.103,121.317,109.549,121.681,108.953,122.072z"/>
<path fill-rule="evenodd" clip-rule="evenodd" fill="#F13836" d="M110.247,78.62c-0.863,0.987-1.548,1.771-2.306,2.637
	c-0.142-1.047-0.281-2.077-0.454-3.353C108.512,78.17,109.279,78.369,110.247,78.62z"/>
<path fill-rule="evenodd" clip-rule="evenodd" fill="#eef9fc" class="fill" d="M82.495,66.128c-0.102,2.175-1.287,3.346-2.693,2.776
	C80.677,68.001,81.541,67.112,82.495,66.128z"/>
<path fill-rule="evenodd" clip-rule="evenodd" fill="#eef9fc" class="fill" d="M52.42,67.004c-0.689,0.522-1.419,1-2.057,1.58
	c-0.628,0.57-1.163,1.243-1.794,1.932c-0.285-1.598,0.729-2.008,3.635-3.766C52.276,66.834,52.348,66.919,52.42,67.004z"/>
<path fill-rule="evenodd" clip-rule="evenodd" fill="#F13836" d="M79.045,94.66c-0.353,0.538-0.705,1.076-1.1,1.678
	c-0.598-0.119-1.127-0.224-1.657-0.33c-0.045-0.12-0.09-0.24-0.136-0.36c0.853-0.461,1.706-0.921,2.559-1.382
	C78.822,94.397,78.934,94.529,79.045,94.66z"/>
<path fill-rule="evenodd" clip-rule="evenodd" fill="#F13836" d="M80.188,105.713c0.242-0.567,0.484-1.134,0.726-1.701
	c0.194,0.145,0.388,0.29,0.582,0.435c-0.285,1.006-0.569,2.012-0.938,3.313c-0.269-0.914-0.449-1.528-0.63-2.141
	C80.015,105.65,80.102,105.682,80.188,105.713z"/>
<path fill-rule="evenodd" clip-rule="evenodd" fill="#eef9fc" class="fill" d="M76.767,43.403c0.492,0.465,0.984,0.93,1.362,1.287
	c-0.489-0.065-1.344-0.178-2.199-0.292c-0.084-0.115-0.168-0.229-0.252-0.344c0.429-0.384,0.858-0.769,1.288-1.153
	C76.898,43.069,76.833,43.236,76.767,43.403z"/>
<path fill-rule="evenodd" clip-rule="evenodd" fill="#F13836" d="M80.172,77.581c-0.658-0.346-1.315-0.691-1.973-1.037
	c0.038-0.122,0.076-0.244,0.114-0.365c0.383-0.145,0.767-0.29,1.244-0.47c0.316,0.482,0.614,0.936,0.911,1.39
	C80.369,77.259,80.27,77.42,80.172,77.581z"/>
</svg>
