<svg version="1.1" id="svg" xmlns="http://www.w3.org/2000/svg" xmlns:xlink="http://www.w3.org/1999/xlink" x="0px" y="0px"
	 width="200px" height="200px" viewBox="0 0 200 200" enable-background="new 0 0 200 200" xml:space="preserve">
<path class="stroke" fill="#2a374b"  fill-rule="evenodd" clip-rule="evenodd" d="M73.205,125.346c-0.502-0.309-0.963-0.59-1.471-0.901
	c-0.496,0.473-0.982,0.939-1.596,1.527c-0.682-0.656-1.32-1.271-2.059-1.98c-0.522,0.594-1.023,1.163-1.602,1.815
	c-0.445-0.366-0.854-0.7-1.311-1.074c-0.463,0.24-0.943,0.49-1.438,0.747c-2.303-0.976-3.81-2.516-3.859-5.15
	c-0.025-1.275-0.033-2.554-0.054-3.831c-0.035-2.151-0.087-4.302-0.104-6.452c-0.014-1.969-0.006-3.936,0.018-5.901
	c0.025-1.834,0.476-3.461,2.402-4.421c0.284,0.116,0.654,0.267,1.111,0.453c0.304-0.2,0.669-0.442,1.068-0.707
	c0.392,0.317,0.735,0.597,1.134,0.922c0.506-0.429,0.984-0.834,1.583-1.341c0.588,0.269,1.192,0.547,1.88,0.859
	c0.358-0.184,0.799-0.41,1.341-0.688c0.439,0.344,0.89,0.696,1.336,1.046c0.474-0.415,0.906-0.793,1.393-1.217
	c0.506,0.424,0.916,0.769,1.348,1.133c0.876-0.259,1.409-1.351,2.575-1.123c0.346,0.609,0.698,1.232,1.011,1.779
	c3.202,0.654,5.761-0.535,6.99-3.358c1.07-2.465,1.523-5.077,1.165-7.779c-0.03-0.223-0.13-0.435-0.248-0.816
	c-0.785-0.253-1.642-0.526-2.59-0.83c-0.661-0.995-0.735-2.169-0.703-3.362c0.036-1.374,0.184-2.749,0.133-4.117
	c-0.05-1.362,0.57-2.269,1.611-2.985c1.469-1.014,2.962-1.993,4.422-3.021c1.124-0.788,2.212-1.626,3.477-2.563
	c0.081-2.3,0.169-4.715,0.245-6.881c-0.863-0.842-1.58-1.54-2.299-2.24c-2.1-1.317-4.191-0.816-6.17,0.52
	c-2.015,1.363-4.202,2.164-6.644,2.368c-2.658,0.221-4.783-0.777-6.74-2.483c-1.444-1.258-2.145-2.81-2.409-4.63
	c-0.496-3.404,2.109-6.135,4.807-6.973c3.496-1.087,6.758-0.58,9.807,1.479c0.939,0.638,1.977,1.147,3.016,1.62
	c0.56,0.257,1.215,0.312,1.745,0.439c0.604-0.343,1.079-0.613,1.572-0.894c0.924-1.849,2.273-3.394,4.227-4.091
	c2.287-0.817,4.697-1.232,7.155-0.679c0.536,0.122,1.066,0.262,1.602,0.393c1.343,0.328,2.412,1.072,3.289,2.125
	c0.518,0.623,1.059,1.229,1.453,1.687c2.804,0.799,4.887-0.435,6.886-1.717c2.102-1.349,4.313-1.86,6.782-1.63
	c2.098,0.196,3.672,1.341,4.766,2.906c2.171,3.108,2.079,6.731-0.096,9.648c-2.211,2.963-6.121,4.696-10.132,2.612
	c-1.576-0.819-3.026-1.88-4.599-2.703c-1.589-0.832-3.279-1.425-5.175-1.175c-0.629,0.575-1.269,1.159-1.933,1.765
	c0,2.465,0,4.932,0,7.549c0.764,0.658,1.473,1.475,2.357,1.991c1.616,0.945,3.317,1.755,5.017,2.546
	c2.535,1.181,4.145,2.953,4.078,5.914c-0.012,0.55,0.04,1.1,0.076,1.648c0.183,2.704-0.392,5.041-3.075,6.274
	c-0.059,0.207-0.136,0.339-0.125,0.465c0.221,2.539,0.885,4.95,2.149,7.173c0.493,0.868,1.362,1.206,2.293,1.342
	c3.495,0.509,7.013,0.702,10.546,0.662c0.728-0.01,1.477,0.006,2.182,0.16c3.617,0.792,7.293,1.369,10.787,2.638
	c0.752,0.272,1.418,0.802,2.088,1.268c0.676,0.469,1.284,1.035,1.96,1.506c2.333,1.628,3.84,3.881,4.979,6.434
	c2.347,5.263,3.005,10.816,2.813,16.501c-0.085,2.562-0.31,5.119-0.493,7.676c-0.022,0.303-0.134,0.646-0.318,0.883
	c-0.868,1.107-1.778,2.184-2.73,3.343c-2.798-0.271-5.478-0.534-8.115-0.791c-1.418,1.396-1.679,3.359-0.865,5.211
	c0.55,1.249,1.021,2.548,1.385,3.863c0.319,1.161,0.15,2.304-0.297,3.482c-0.997,2.624-5.482,3.882-8.192,1.234
	c-0.997-0.974-0.851-2.289-0.504-3.501c0.221-0.783,0.65-1.507,1.009-2.248c0.722-1.488,1.462-2.972,1.271-4.698
	c-0.158-1.43-0.598-2.697-2.229-3.329c-0.548,0-1.229,0-1.897,0c-0.938-1.114-1.849-2.193-2.794-3.316
	c0.047-0.661,0.091-1.342,0.141-2.023c0.199-2.702-0.494-5.288-1.146-7.854c-0.537-2.114-1.97-3.67-4.056-4.335
	c-0.99-0.314-2.194-0.295-3.223-0.065c-1.376,0.309-2.6,1.068-3.674,2.059c-1.381,1.271-2.828,2.472-4.289,3.649
	c-1.274,1.027-2.819,1.506-4.381,1.891c-4.682,1.152-9.354,1.129-13.954-0.35c-2.371-0.763-4.459-2.13-6.519-3.51
	c-1.582-1.06-3.316-1.706-5.233-2.146c-0.683,0.776-1.335,1.518-2.018,2.298c-0.455-0.317-0.821-0.573-1.237-0.863
	c-0.516,0.369-0.659,1.298-1.754,1.057c-0.201-0.124-0.588-0.358-0.986-0.603C73.964,124.822,73.598,125.074,73.205,125.346z
	 M138.377,151.688c1.346-2.164,1.11-4.966-0.464-6.812c-1.775,0.46-2.503,1.872-2.924,3.448c-0.36,1.35,0.093,2.518,1.372,3.48
	C136.964,151.771,137.68,151.729,138.377,151.688z M137.877,138.539c-1.357-0.078-2.64-0.179-3.998,0.114
	c0.454,1.201,0.861,2.284,1.308,3.466c0.717-0.065,1.315-0.12,1.793-0.164C137.295,140.754,137.557,139.752,137.877,138.539z"/>
<path fill-rule="evenodd" clip-rule="evenodd" fill="#eef9fc" class="fill" d="M88.647,107.215c-0.167-1.225,0.282-2.212,0.946-3.104
	c1.527-2.053,3.799-2.76,6.141-3.312c0.969-0.229,1.946-0.416,2.77-0.591c0.93-1.696,2.377-7.242,2.3-8.777
	c-1.204-0.286-2.459-0.585-3.711-0.884c0.009-0.062,0.019-0.122,0.029-0.184c3.459,0,6.916,0,10.562,0
	c0.098,0.697,0.207,1.401,0.291,2.109c0.138,1.137,0.216,2.282,0.399,3.412c0.389,2.412,1.622,4.174,4.074,4.844
	c2.798,0.765,5.662,0.988,8.558,1.047c2.053,0.039,4.114,0.21,6.147,0.503c2.897,0.414,5.792,0.91,8.655,1.523
	c4.367,0.935,7.485,3.448,9.221,7.632c1.115,2.685,1.764,5.492,2.313,8.323c0.719,3.701,1.126,7.423,0.4,11.185
	c-0.138,0.714-0.117,1.456-0.187,2.182c-0.014,0.128-0.114,0.247-0.23,0.481c-1.072,0-2.197,0-3.486,0
	c-0.035-1.049-0.148-2.137-0.096-3.217c0.196-3.909-0.108-7.774-0.916-11.598c-0.783-3.713-2.713-6.778-5.508-9.287
	c-1.385-1.241-3.168-2.197-4.844-2.004c-0.29,0.254-0.691,0.604-1.059,0.922c0.016,1.216,0.637,2.034,1.368,2.71
	c2.997,2.776,4.132,6.349,4.205,10.256c0.062,3.287-0.192,6.583-0.373,9.872c-0.041,0.746-0.351,1.478-0.566,2.329
	c-0.808-0.046-1.464-0.082-2.179-0.124c0-0.551-0.003-0.95,0-1.35c0.043-5.523-0.599-10.966-2.216-16.248
	c-0.957-3.121-3.005-5.326-6.308-6.09c-1.648-0.382-3.316-0.684-4.986-0.968c-2.028-0.343-4.061-0.665-6.102-0.923
	c-1.039-0.133-2.1-0.102-3.152-0.15c-1.644-0.075-3.297-0.3-4.932-0.209c-4.012,0.224-8.055-0.105-12.035,0.709
	c-0.804,0.165-1.637,0.181-2.454,0.284C90.467,108.676,89.613,107.987,88.647,107.215z M99.878,99.431
	c0.565,0.341,0.89,0.689,1.245,0.726c1.49,0.145,2.998,0.344,4.48,0.241c1.459-0.101,2.015-1.031,1.739-2.521
	c-0.272-1.477-0.689-2.929-0.932-4.41c-0.254-1.539-1.075-2.339-2.784-2.414C102.083,93.607,101.337,96.568,99.878,99.431z"/>
<path fill-rule="evenodd" clip-rule="evenodd" fill="#eef9fc" class="fill" d="M108.381,119.618c-0.865,0.388-1.826,0.943-2.859,1.258
	c-3.365,1.022-6.78,1.668-10.255,0.56c-1.215-0.388-2.428-0.852-3.54-1.466c-1.442-0.797-1.45-2.177-0.192-3.214
	c0.813-0.67,1.743-0.97,2.757-1.118c3.518-0.517,7.032-0.394,10.539,0.048c1.104,0.139,2.117,0.573,2.921,1.399
	C108.395,117.745,108.806,118.469,108.381,119.618z"/>
<path fill-rule="evenodd" clip-rule="evenodd" fill="#eef9fc" class="fill" d="M102.523,86.82c1.051,0.436,2.099,0.87,3.144,1.302
	c-1.96,0.479-3.91,0.116-5.855,0.116c-1.968-0.002-3.935,0-5.931-0.152c1.809-1.019,3.949-1.034,5.841-1.967
	c0.445-1.544,0.329-3.074,0.081-4.777c-5.111-2.073-10.339-1.926-15.831-0.792c0.032-0.432,0.067-0.923,0.11-1.525
	c0.729-0.086,1.354-0.203,1.98-0.225c2.289-0.076,4.581-0.104,6.87-0.188c1.592-0.059,3.098,0.294,4.568,0.825
	c1.8,0.649,3.591,0.936,5.511,0.485c2.495-0.586,5.022-1.029,7.542-1.506c0.62-0.115,1.261-0.115,1.928-0.173
	c0.185,0.326,0.331,0.585,0.612,1.083c-3.94-0.188-7.48,0.655-10.836,2.049C101.881,83.138,101.967,84.96,102.523,86.82z"/>
<path fill-rule="evenodd" clip-rule="evenodd" fill="#eef9fc" class="fill" d="M118.974,59.885c-2.512-0.042-4.13-1.124-4.748-3.179
	c-0.599-1.986,0.586-3.727,2.646-3.895c0.504-0.041,1.002-0.12,1.504-0.138c2.1-0.074,3.844,1.311,4.255,3.354
	C123.062,58.181,121.408,59.924,118.974,59.885z"/>
<path fill-rule="evenodd" clip-rule="evenodd" fill="#eef9fc" class="fill" d="M73.411,56.565c0.206-1.393,1.446-2.346,2.917-2.251
	c0.408,0.025,0.814,0.1,1.219,0.1c1.828,0.003,2.984,0.799,3.41,2.373c0.428,1.575-0.16,2.931-1.664,3.821
	c-0.191,0.114-0.409,0.185-0.682,0.304c-0.18-0.22-0.385-0.399-0.51-0.626c-0.678-1.22-1.686-2.013-3.01-2.443
	C74.39,57.615,73.736,57.284,73.411,56.565z"/>
<path fill-rule="evenodd" clip-rule="evenodd" fill="#eef9fc" class="fill" d="M99.858,61.392c0.355-1.075,0.79-2.115,1.038-3.195
	c0.622-2.725-0.394-4.46-3.043-5.392c-0.159-0.056-0.297-0.174-0.474-0.282c1.174-0.724,3.349-0.56,4.503,0.298
	c1.393,1.033,2.539,3.721,2.162,5.068C103.613,59.43,101.545,61.177,99.858,61.392z"/>
<path fill-rule="evenodd" clip-rule="evenodd" fill="#eef9fc" class="fill" d="M66.671,123.213c-1.005-1.515-1.623-2.714-1.761-4.122
	c-0.312-3.18-0.729-6.354-0.936-9.54c-0.146-2.229-0.021-4.474,0.002-6.71c0.001-0.292,0.114-0.584,0.424-0.93
	c0.114,0.238,0.317,0.474,0.326,0.714c0.037,0.959-0.004,1.92,0.014,2.88c0.085,4.818,0.734,9.566,1.831,14.252
	c0.186,0.793,0.557,1.54,0.964,2.638C67.347,122.572,67.068,122.837,66.671,123.213z"/>
<path fill-rule="evenodd" clip-rule="evenodd" fill="#eef9fc" class="fill" d="M70.424,122.738c-1.068-0.849-1.549-1.979-1.78-3.156
	c-0.513-2.6-0.937-5.221-1.317-7.845c-0.334-2.308-0.589-4.63-0.817-6.953c-0.077-0.766-0.01-1.558,0.088-2.324
	c0.053-0.408,0.315-0.79,0.471-1.154c0.927,0.188,0.874,0.785,0.869,1.328c-0.009,1.281-0.163,2.575-0.04,3.843
	c0.348,3.595,0.744,7.188,1.248,10.766c0.216,1.527,0.753,3.009,1.13,4.516C70.355,122.076,70.375,122.409,70.424,122.738z"/>
<path fill-rule="evenodd" clip-rule="evenodd" fill="#eef9fc" class="fill" d="M70.16,101.765c0.181,0.251,0.36,0.502,0.539,0.753
	c-0.07,0.011-0.138,0.021-0.209,0.032c0.166,2.225,0.324,4.449,0.501,6.672c0.124,1.59,0.282,3.177,0.408,4.766
	c0.207,2.62,0.988,5.099,1.8,7.574c0.113,0.343,0.124,0.718,0.202,1.201c-0.905-0.11-1.313-0.469-1.487-1.101
	c-0.097-0.352-0.174-0.711-0.233-1.071c-0.616-3.828-1.257-7.652-1.823-11.488c-0.219-1.486-0.328-2.996-0.367-4.5
	c-0.025-0.927,0.176-1.86,0.276-2.793C69.898,101.795,70.029,101.778,70.16,101.765z"/>
<path fill-rule="evenodd" clip-rule="evenodd" fill="#eef9fc" class="fill" d="M97.72,73.212c3.753-1.042,5.595-0.437,7.52,2.2
	c-1.085,0.728-2.317,0.255-3.437,0.456c-1.113,0.199-2.249,0.273-3.566,0.424C98.053,75.195,97.891,74.236,97.72,73.212z"/>
<path fill-rule="evenodd" clip-rule="evenodd" fill="#eef9fc" class="fill" d="M73.228,101.784c0.094,0.448,0.304,0.907,0.264,1.343
	c-0.35,3.729,0.014,7.41,0.773,11.053c0.531,2.552,1.188,5.077,1.774,7.617c0.034,0.146-0.056,0.318-0.162,0.854
	c-0.416-0.659-0.777-1.019-0.889-1.444c-0.603-2.288-1.234-4.575-1.676-6.896c-0.366-1.921-0.51-3.89-0.707-5.841
	c-0.227-2.229-0.221-4.455,0.179-6.661C72.934,101.8,73.08,101.792,73.228,101.784z"/>
<path fill-rule="evenodd" clip-rule="evenodd" fill="#eef9fc" class="fill" d="M124.627,55.929c0.584,0.811,0.745,1.783,0.551,2.705
	c-1.125,5.341-7.213,7.199-10.554,5.117c-0.067-0.042-0.11-0.127-0.309-0.363c0.452,0,0.786-0.042,1.106,0.006
	c2.203,0.331,4.218-0.353,5.998-1.474c1.629-1.024,2.578-2.673,2.743-4.673c0.037-0.438,0.08-0.873,0.12-1.31
	C124.398,55.935,124.513,55.932,124.627,55.929z"/>
<path fill-rule="evenodd" clip-rule="evenodd" fill="#eef9fc" class="fill" d="M61.783,105.188c0.281,3.874,0.501,7.753,0.877,11.617
	c0.164,1.67,0.619,3.315,1.004,4.958c0.217,0.934,0.27,0.921-0.279,1.576c-0.953-0.511-1.499-1.32-1.586-2.379
	c-0.188-2.273-0.545-4.525-0.364-6.839c0.154-1.995-0.062-4.016-0.062-6.026c0-0.994,0.119-1.986,0.184-2.979
	C61.633,105.141,61.707,105.165,61.783,105.188z"/>
<path fill-rule="evenodd" clip-rule="evenodd" fill="#eef9fc" class="fill" d="M78.142,121.156c-0.212-0.638-0.519-1.261-0.62-1.917
	c-0.604-3.833-1.167-7.672-1.727-11.512c-0.157-1.084-0.318-2.174-0.373-3.266c-0.035-0.687,0.131-1.382,0.207-2.074
	c0.131,0.001,0.262,0.001,0.393,0.001c0.036,0.464,0.106,0.928,0.1,1.39c-0.036,4.156,0.675,8.182,2.092,12.087
	c0.016,0.041,0.066,0.075,0.069,0.116c0.104,1.703,0.207,3.407,0.309,5.11C78.44,121.113,78.291,121.135,78.142,121.156z"/>
<path fill-rule="evenodd" clip-rule="evenodd" fill="#eef9fc" class="fill" d="M98.542,66.741c0.432-0.079,0.865-0.158,1.284-0.235
	c0.403,1.312,0.357,3.251-0.072,4.459c-0.082,0.027-0.182,0.099-0.243,0.073c-0.288-0.11-0.565-0.246-0.969-0.43
	C98.542,69.345,98.542,68.091,98.542,66.741z"/>
<path fill-rule="evenodd" clip-rule="evenodd" fill="#eef9fc" class="fill" d="M78.37,107.396c-0.132-1.251-0.266-2.502-0.409-3.846
	c0.283-0.245,0.568-0.496,1.102-0.961c-0.164,1.813-0.301,3.312-0.437,4.812C78.541,107.4,78.456,107.398,78.37,107.396z"/>
</svg>
