<svg version="1.1" id="svg" xmlns="http://www.w3.org/2000/svg" xmlns:xlink="http://www.w3.org/1999/xlink" x="0px" y="0px"
	 width="200px" height="200px" viewBox="0 0 200 200" enable-background="new 0 0 200 200" xml:space="preserve">
<path class="stroke" fill="#252b56"  fill-rule="evenodd" clip-rule="evenodd" d="M21.818,126.015c-0.596,0.318-0.911,0.488-1.28,0.685
	c0.527,1.463,1.602,2.792,0.921,4.696c-0.655,0.143-1.438,0.312-2.441,0.53c-1.604,1.263-4.842,1.359-6.768,0.051
	c-0.151-0.104-0.287-0.268-0.452-0.31c-2.884-0.715-3.328-3.116-3.563-5.467c-0.135-1.34,0.255-2.737,0.457-4.101
	c0.209-1.415,0.51-2.815,0.702-4.231c0.094-0.68,0.112-1.391,0.029-2.069c-0.675-5.507-0.049-10.904,1.589-16.156
	c0.586-1.878,0.811-3.725,1.009-5.651c0.3-2.933,0.874-5.839,1.966-8.618c0.402-1.025,0.654-2.114,0.926-3.185
	c0.509-2.015,0.873-4.072,1.497-6.049c0.955-3.033,3.178-4.661,6.285-5.111c0.592-0.086,1.199-0.106,1.798-0.082
	c1.691,0.069,3.136-0.612,4.683-1.412c0.159-1.262,0.32-2.529,0.459-3.623c-1.014-0.801-1.938-1.414-2.721-2.175
	c-1.252-1.214-1.671-2.844-1.912-4.507c-0.396-2.74-0.655-5.504-1.157-8.225c-0.323-1.752-0.979-3.445-1.479-5.142
	c-1.764-0.281-2.361-1.434-2.886-2.816c-0.684-1.796-1.137-3.601-1.1-5.518c0.043-2.273,0.282-2.65,2.324-3.755
	c-0.165-0.529-0.323-1.088-0.515-1.635c-1.456-4.146-0.446-7.788,2.209-11.126c1.554-1.953,3.395-3.586,5.693-4.52
	c2.88-1.169,5.883-2.045,9.043-1.242c2.097,0.532,4.163,1.2,6.227,1.855c2.022,0.641,4.03,1.327,6.034,2.021
	c2.325,0.804,3.735,2.349,4.173,4.853c0.381,2.17,0.221,4.202-0.676,6.22c-0.259,0.583-0.209,1.303-0.307,1.996
	c0.444,0.154,0.699,0.236,0.949,0.33c1.154,0.435,1.839,1.283,1.885,2.498c0.088,2.453,0.011,4.913-0.765,7.267
	c-0.247,0.749-0.852,1.38-1.228,1.964c-0.576,0.077-0.943,0.123-1.308,0.176c-0.728,0.108-1.257,0.453-1.636,1.126
	c-1.152,2.05-2.445,4.025-3.501,6.121c-0.634,1.262-0.908,2.702-1.385,4.048c-0.66,1.868-1.247,3.777-2.084,5.566
	c-0.514,1.096-1.381,2.048-2.192,2.975c-0.509,0.579-1.21,0.99-1.824,1.477c-0.291,2.28,0.501,3.454,2.712,3.829
	c1.5,0.253,3.018,0.44,4.535,0.538c2.898,0.183,4.625,1.794,5.646,4.375c1.603,4.052,2.568,8.282,3.547,12.509
	c0.426,1.844,0.918,3.672,1.418,5.496c0.171,0.62,0.349,1.281,0.705,1.799c1.201,1.746,1.521,3.755,1.798,5.762
	c0.514,3.704,0.893,7.426,1.416,11.128c0.317,2.242,0.894,4.431,1.875,6.496c0.711,1.5,0.595,2.998,0.086,4.565
	c-1.402,4.314-4.881,5.85-8.833,6.809c-0.135,0.033-0.289,0.009-0.409,0.066c-1.573,0.733-2.847,0.364-3.899-1.148
	c0-1.758,1.574-2.849,2.275-4.474c-1.348-1.288-0.938-2.791-0.344-4.298c0.487-1.243,0.992-2.48,1.527-3.812
	c-0.478-1.793-0.929-3.68-1.486-5.532c-1.065-3.539-2.142-7.071-2.492-10.772c-0.064-0.687-0.085-1.379-0.145-2.367
	c-0.417-0.521-0.996-1.249-1.576-1.977c-0.106,0.036-0.213,0.072-0.317,0.109c-0.442,8.036,0.182,16.179-2.252,23.723
	c0.454,1.285,0.866,2.306,1.159,3.361c0.113,0.409,0.113,1.002-0.107,1.327c-1.076,1.586-0.848,3.375-0.863,5.102
	c-0.042,4.343,0.002,8.687,0.042,13.03c0.008,0.87,0.194,1.738,0.218,2.609c0.04,1.518,0.021,3.035,0.021,4.554
	c0,0.782-0.052,1.565-0.017,2.345c0.188,4.106,0.395,8.21,0.582,12.044c0.946,1.351,1.816,2.438,2.507,3.625
	c0.595,1.021,1.376,1.685,2.455,2.104c1.089,0.425,2.063,1.051,2.708,2.068c0.189,0.299,0.308,0.644,0.501,1.06
	c-1.396,1.277-2.742,2.507-4.404,4.027c-3.216,1.174-9.837-1.723-11.409-5.322c0.17-1.119,0.524-2.263,0.479-3.392
	c-0.117-2.808-0.323-5.621-0.674-8.41c-0.252-2.007-0.735-3.991-1.226-5.958c-0.437-1.759-0.409-3.457,0.096-5.191
	c0.321-1.101,0.497-2.242,0.735-3.365c0.009-0.044-0.001-0.094-0.01-0.139c-0.746-3.702-1.491-7.405-2.262-11.224
	c-0.662,0.075-1.188,0.134-1.883,0.212c-0.395,1.993-0.806,3.922-1.15,5.865c-0.193,1.09-0.311,2.197-0.399,3.302
	c-0.054,0.681,0.01,1.372,0.028,2.059c0.012,0.46,0.155,0.956,0.031,1.374c-0.319,1.076-0.038,2.097,0.089,3.144
	c0.397,3.273,0.58,6.524-0.735,9.683c-0.44,1.06-0.7,2.196-1.02,3.305c-0.472,1.644-0.396,3.263,0.09,4.911
	c0.415,1.409,0.705,2.862,0.977,4.309c0.233,1.239-0.523,2.123-1.318,2.902c-1.086,1.065-2.188,2.129-3.392,3.055
	c-1.544,1.188-3.421,1.535-5.316,1.736c-0.133,0.016-0.321,0.014-0.403-0.065c-1.21-1.173-2.94-0.888-4.331-1.556
	c-0.851-0.41-1.41-1.004-1.673-1.909c-0.258-0.891-0.076-1.572,0.651-2.22c1.793-1.594,3.564-3.219,5.252-4.922
	c0.7-0.708,1.162-1.65,1.589-2.277c-0.045-2.285-0.153-4.313-0.113-6.339c0.058-2.966,0.595-5.871,1.29-8.755
	c0.209-0.867,0.084-1.816,0.124-2.726c0.039-0.917-0.031-1.863,0.177-2.742c0.228-0.973,0.228-1.896,0.117-2.872
	c-0.49-4.407-0.983-8.814-1.371-13.232c-0.13-1.504,0.064-3.036,0.082-4.555c0.021-1.561,0.006-3.122,0.006-4.635
	c-1.15-2.104-1.671-4.301-1.877-6.637c-0.283-3.218-0.79-6.414-1.183-9.622c-0.102-0.824-0.128-1.656-0.2-2.485
	c-0.038-0.442-0.102-0.884-0.293-1.344c-0.822,1.142-1.432,2.319-1.415,3.757c0.03,2.539,0.062,5.079,0.019,7.618
	c-0.024,1.428-0.194,2.853-0.305,4.278c-0.068,0.878,0.206,1.583,0.809,2.263c1.433,1.612,2.433,3.493,2.88,5.61
	C21.832,124.186,21.77,125.111,21.818,126.015z M49.797,173.215c0.283,0.118,0.451,0.731,1.119,0.021c-0.531,0-0.832,0-1.132,0
	c0.12-0.383,0.24-0.766,0.367-1.166c0.47-0.021,0.826-0.036,1.182-0.053c0.28-0.257,0.548-0.501,0.924-0.845
	c-0.512-0.363-0.915-0.764-1.401-0.974c-1.329-0.572-2.287-1.519-3.052-2.711c-0.248-0.387-0.535-0.752-0.841-1.095
	c-1.751-1.964-2.457-4.261-2.25-6.868c0.059-0.731,0.121-1.472,0.084-2.203c-0.168-3.271-0.375-6.541-0.559-9.812
	c-0.023-0.413-0.137-0.899,0.031-1.229c0.581-1.14,0.288-2.244,0.063-3.376c-0.097-0.494-0.12-1.007-0.142-1.513
	c-0.05-1.106-0.016-2.22-0.129-3.319c-0.3-2.937-0.655-5.868-0.999-8.8c-0.028-0.245-0.141-0.48-0.258-0.867
	c-2.048,1.319-4.014,2.479-5.467,4.284c0.236,0.767,0.489,1.415,0.632,2.087c0.565,2.663,1.06,5.341,1.653,7.998
	c0.302,1.354,0.21,2.585-0.325,3.887c-0.8,1.94-1.174,3.978-0.611,6.087c0.521,1.959,1.067,3.913,1.511,5.893
	c0.279,1.25,0.507,2.536,0.547,3.812c0.082,2.626,0.024,5.255,0.024,7.976c0.093,0.108,0.211,0.333,0.396,0.443
	c2.135,1.275,4.271,2.552,6.435,3.777c0.312,0.176,0.774,0.089,1.12,0.119c0.432-1.095-0.573-1.169-1.087-1.675
	c0.51-0.225,0.871-0.385,1.263-0.559C49.219,172.78,49.505,172.998,49.797,173.215z M15.086,131.572
	c-0.577-1.29-1.136-2.478-1.639-3.688c-0.214-0.518-0.352-1.099,0.536-1.316c0.149,0.213,0.326,0.412,0.44,0.643
	c0.431,0.868,0.818,1.76,1.269,2.62c0.467,0.895,0.931,1.102,2.071,0.96c-1.513-1.448-2.425-3.147-2.771-5.248
	c0.357-0.086,0.635-0.151,0.97-0.232c0.168,0.425,0.282,0.772,0.437,1.099c0.608,1.294,1.14,2.64,2.383,3.506
	c0.417,0.29,0.8,0.647,1.345,0.29c-0.167-0.849-0.164-0.851-1.251-2.249c-1.25-1.604-1.974-3.424-2.265-5.431
	c-0.102-0.702-0.061-1.293,0.867-1.571c0.687,0.492,1.413,1.014,2.307,1.655c-0.269-2.693-1.882-4.291-3.702-5.756
	c-0.062-1.083-0.212-2.143-0.17-3.195c0.118-2.996,0.271-5.993,0.5-8.983c0.108-1.421,0.15-2.941,0.696-4.214
	c0.989-2.305,1.548-4.618,1.393-7.113c-0.006-0.09,0.009-0.184,0.028-0.275c0.539-2.902,1.06-5.807,1.637-8.7
	c0.1-0.496,0.438-0.942,0.652-1.382c0.952,0.198,0.842,0.788,0.845,1.339c0.011,2.263-0.014,4.528,0.076,6.789
	c0.036,0.949,0.361,1.883,0.484,2.833c0.201,1.548,0.345,3.103,0.517,4.69c0.4-0.036,0.746-0.067,1.167-0.105
	c0.74,1.265,2.282,1.782,3.032,3.207c-0.316,0.137-0.542,0.307-0.618,0.256c-1.157-0.785-2.295-1.596-3.597-2.515
	c0.058,0.794,0.118,1.502,0.16,2.211c0.225,3.912,0.396,7.829,0.683,11.738c0.155,2.099,0.399,4.21,1.5,6.158
	c0.764-0.077,1.483-0.149,2.185-0.219c0.164-1.221-0.452-2.467,0.626-3.606c0.942,0.997,1.202,2.209,1.88,3.23
	c2.997-0.277,6.007-0.558,8.955-0.83c1.192-2.613,1.192-2.613,2.071-2.619c-0.053,0.816-0.104,1.63-0.161,2.539
	c0.971,0,1.868,0,2.847,0c0.098-1.081,0.102-2.146,0.301-3.172c0.791-4.043,1.162-8.131,1.463-12.231
	c0.388-5.285-0.177-10.615,0.826-15.875c0.344-1.806,0.419-3.663,0.635-5.493c0.076-0.645,0.365-1.034,1.296-0.671
	c0.018,1.498,0.021,3.044,0.059,4.591c0.039,1.682-0.554,3.379,0.198,5.047c0.701,1.557,1.223,3.2,2.015,4.705
	c0.691,1.316,0.924,2.664,1.062,4.109c0.197,2.062,0.398,4.155,0.924,6.147c0.799,3.03,1.875,5.986,2.841,8.972
	c0.271,0.838,0.244,1.591-0.274,2.367c-0.587,0.879-1.103,1.818-1.547,2.777c-0.286,0.616-0.465,1.308-0.552,1.983
	c-0.081,0.628,0.16,1.163,0.95,1.218c0.504-1.173-0.337-2.809,1.558-3.663c-0.013,1.833,0.069,3.477-0.555,4.991
	c-0.631,1.527-1.49,2.958-2.321,4.568c1.016-0.094,1.364-0.744,1.682-1.312c1.081-1.932,2.19-3.861,2.32-6.161
	c0.038-0.661,0.362-1.018,1.171-0.814c0.016,0.32,0.065,0.632,0.042,0.938c-0.133,1.743-0.865,3.286-1.633,4.817
	c-0.229,0.456-0.68,0.87-0.357,1.485c1.1-0.704,1.313-0.996,1.632-2.295c0.437-1.782,0.858-3.569,1.311-5.455
	c0.328,0,0.646,0,1.154,0c-0.441,1.958-0.849,3.765-1.257,5.571c0.274-0.03,0.4-0.112,0.427-0.217
	c0.373-1.516,0.778-3.026,1.078-4.554c0.188-0.959,0.172-1.029,1.324-1.108c-0.224,1.627-0.444,3.217-0.662,4.805
	c0.502-0.463,0.893-0.987,1.05-1.574c0.555-2.062,0.697-4.087-0.898-5.841c-0.204-0.226-0.335-0.551-0.418-0.852
	c-0.734-2.674-1.327-5.372-1.537-8.152c-0.217-2.854-0.524-5.703-0.819-8.552c-0.114-1.11-0.401-2.166-1.053-3.113
	c-0.743-1.078-1.13-2.3-1.423-3.579c-0.545-2.381-1.194-4.739-1.802-7.105c-0.529-2.057-1.171-4.091-1.564-6.171
	c-0.345-1.833-1.143-3.387-2.219-4.854c-1.149-1.566-2.569-2.641-4.61-2.669c-0.508-0.007-1.014-0.116-1.52-0.113
	c-1.433,0.006-2.723-0.411-3.91-1.198c-0.345-0.229-0.72-0.417-1.089-0.605c-0.112-0.057-0.254-0.056-0.383-0.081
	c-0.107,0.321-0.207,0.616-0.336,1.001c-0.372-0.035-0.705-0.067-1.212-0.117c0-1.2,0-2.316,0-3.673
	c-1.928,1.16-3.604,2.246-5.55,2.132c-0.551,0.774-0.174,1.801-1.141,2.069c-0.761,0.036-1.511,0.109-2.235,0.288
	c-0.533,0.13-1.021,0.438-1.549,0.593c-0.873,0.255-1.662,0.769-2.658,0.635c-2.42-0.321-3.991,1.048-5.295,2.839
	c-0.937,1.285-1.306,2.778-1.183,4.325c0.147,1.84-0.496,3.442-1.184,5.059c-0.144,0.34-0.292,0.68-0.403,1.03
	c-0.98,3.096-1.534,6.268-1.74,9.507c-0.041,0.634-0.12,1.296-0.347,1.884c-1.906,4.986-2.533,10.221-2.589,15.478
	c-0.034,3.276-0.135,6.509-0.644,9.744c-0.177,1.131-0.197,2.312-0.101,3.454c0.097,1.167,0.356,2.341,1.293,3.31
	c-0.063-1.009-0.118-1.906-0.179-2.87c0.438-0.086,0.719-0.14,0.983-0.191c0.287,1.209,0.529,2.327,0.822,3.431
	C13.401,130.617,14.03,131.268,15.086,131.572z M33.991,26.961c-1.594-0.283-3.014,0.104-4.463,0.402
	c-2.606,0.536-4.497,2.042-6.005,4.131c-0.692,0.958-1.085,2.046-1.06,3.23c0.049,2.353,0.071,4.711,0.267,7.053
	c0.125,1.503,0.522,2.956,1.324,4.319c0.81,1.375,1.586,2.795,1.82,4.451c0.422,2.964,0.878,5.926,1.443,8.865
	c0.529,2.746,1.911,4.078,4.649,4.332c2.196,0.203,4.421,0.123,6.633,0.115c0.384-0.003,0.805-0.214,1.145-0.428
	c2.07-1.308,3.188-3.308,3.796-5.588c0.597-2.227,1.045-4.493,1.556-6.743c0.167-0.737,0.509-1.332,1.049-1.898
	c2.437-2.556,4.368-5.369,4.422-9.107c0.032-2.212,0.236-4.423,0.232-6.633c-0.002-0.972-0.105-2.021-0.729-2.649
	c-1.154,0.107-2.12,0.197-3.018,0.28c-1.282-1.481-1.32-3.338-2.017-4.887c-2.105,1.049-4.069,2.026-6.081,3.027
	c-0.711-0.305-1.465-0.625-2.235-0.952c-0.578,0.243-1.124,0.472-1.71,0.718c-0.344-0.157-0.712-0.324-1.098-0.5
	C33.94,27.969,33.963,27.516,33.991,26.961z M22.129,177.188c1.168-0.084,2.16-0.316,2.991-0.928
	c1.331-0.982,2.595-2.056,3.914-3.057c1.317-0.999,1.672-2.161,1.041-3.755c-0.934-2.364-1.68-4.793-1.177-7.405
	c0.218-1.132,0.385-2.273,0.626-3.399c0.203-0.946,0.481-1.876,0.722-2.814c0.668-2.599,0.452-5.202,0.145-7.831
	c-0.277-2.369-0.455-4.752,0.041-7.142c0.572-2.749,1.221-5.494,1.254-8.267c-2.259-1.828-4.479-3.624-6.749-5.461
	c-0.032,0.306-0.099,0.578-0.083,0.848c0.153,2.622,0.233,5.253,0.509,7.863c0.247,2.336,0.738,4.645,1.064,6.976
	c0.078,0.566,0.067,1.223-0.145,1.737c-0.414,0.998-0.377,1.962-0.196,2.979c0.094,0.528,0.17,1.116,0.038,1.619
	c-1.058,4.059-1.274,8.203-1.226,12.357c0.024,2.186,0.113,4.307-1.186,6.227c-0.38,0.563-0.535,1.274-0.855,1.885
	c-0.211,0.401-0.465,0.83-0.814,1.102c-1.197,0.932-2.445,1.796-3.668,2.694c-0.101,0.074-0.15,0.218-0.219,0.324
	c0.331,0.152,0.639,0.294,1.118,0.514c-0.521,0.404-0.896,0.695-1.371,1.065c0.298,0.178,0.535,0.32,0.728,0.435
	c0.683-0.541,1.274-1.01,1.915-1.519c0.205,0.331,0.299,0.483,0.398,0.642c1.753-0.301,2.21-0.23,2.848,0.512
	c-0.708,0.224-1.383,0.437-2.211,0.697C21.8,176.528,21.966,176.861,22.129,177.188z M43.331,119.835
	c-3.022,0.254-6.005,0.583-8.997,0.734c-3.019,0.155-6.048,0.137-9.179,0.195c-0.075,0.824-0.132,1.45-0.18,1.953
	c2.196,2.911,4.581,5.402,7.223,7.668c1.669,1.436,3.013,1.509,4.721,0.048c1.123-0.959,2.329-1.825,3.416-2.825
	c1.045-0.961,2.02-2.008,2.961-3.072C44.557,123.111,44.336,121.591,43.331,119.835z M33.959,17.838
	c-0.055-0.083-0.107-0.165-0.162-0.247c-0.328,0.116-0.676,0.198-0.981,0.357c-0.572,0.297-1.109,0.658-1.68,0.96
	c-2.367,1.253-4.327,2.979-5.866,5.16c-0.876,1.242-1.507,2.6-1.4,4.389c0.736-0.475,1.305-0.842,1.729-1.115
	C27.017,22.826,30.122,20.014,33.959,17.838z M40.769,18.761c-0.902-0.658-1.488-0.144-1.99,0.14
	c-2.111,1.192-4.349,2.206-6.149,3.881c-0.812,0.756-1.57,1.582-2.242,2.692c0.394,0,0.605,0.064,0.738-0.011
	c0.992-0.557,2.008-1.085,2.94-1.734c1.015-0.708,1.924-1.567,2.921-2.306C38.195,20.526,39.448,19.687,40.769,18.761z M28.6,26.201
	c1.791-2.944,3.996-5.22,6.927-6.777c0.766-0.407,1.648-0.716,2.232-1.579c-4.229,0.551-10.512,5.761-10.609,8.746
	C27.642,26.458,28.127,26.328,28.6,26.201z M46.887,20.19c-0.436-0.054-0.83-0.103-1.248-0.154
	c-0.551,0.839-1.058,1.612-1.565,2.384c0.991-0.696,0.991-0.696,1.804-0.64c0.127,1.233,0.132,2.488,0.415,3.679
	c0.267,1.123,0.308,2.39,1.267,3.28C47.616,25.91,47.647,23.115,46.887,20.19z M36.008,25.622c2.337-1.966,4.989-3.625,6.977-6.223
	c-0.411-0.156-0.648-0.246-0.778-0.295c-1.91,1.339-3.718,2.604-5.246,3.675C36.574,23.93,36.291,24.775,36.008,25.622z
	 M28.708,18.867c-4.731,1.323-8.113,8.873-6.259,11.717c0.164-0.481,0.409-0.843,0.38-1.184c-0.236-2.857,0.819-5.229,2.694-7.284
	C26.509,21.036,27.57,20.023,28.708,18.867z M39.019,26.225c2.494-1.584,3.936-3.888,5.129-6.413
	c-1.61,1.582-3.219,3.165-4.964,4.878C39.141,25.088,39.08,25.656,39.019,26.225z M49.936,28.217
	c-0.497-5.08-0.874-6.645-1.889-7.654c0.25,2.713,0.491,5.326,0.742,8.044C49.302,28.434,49.593,28.334,49.936,28.217z
	 M50.029,22.156c0.377,2.395,0.737,4.675,1.097,6.953C52.3,27.692,51.737,23.773,50.029,22.156z M20.675,175.749
	c-0.095-0.069-0.19-0.138-0.286-0.207c-0.132,0.208-0.265,0.417-0.396,0.626c0.068,0.051,0.139,0.102,0.208,0.153
	C20.359,176.131,20.518,175.94,20.675,175.749z"/>
<path class="stroke" fill="#252b56"  fill-rule="evenodd" clip-rule="evenodd" d="M32.458,106.036c0.406-0.028,0.809-0.059,1.313-0.095
	c0.363,1.303,0.938,2.523,0.198,3.899c-0.78,0.782-1.617,0.536-2.448,0.067c-0.632-2.146-0.249-4.701,0.848-5.586
	c0.681,0.533,0.284,1.135,0.121,1.723c0.102,0.924-0.324,1.901,0.328,3.036C32.998,107.844,33.442,106.852,32.458,106.036z"/>
<path class="stroke" fill="#252b56"  fill-rule="evenodd" clip-rule="evenodd" d="M31.162,74.585c0.349-0.423,0.672-0.812,1.088-1.313
	c0.587,0.995,0.418,1.757-0.003,2.722c-0.516-0.036-1.137,0.056-1.649-0.14c-1.768-0.673-3.497-1.446-5.239-2.184
	c-0.128-0.055-0.246-0.134-0.375-0.205c0.344-0.995,0.91-0.853,1.565-0.601C28.091,73.46,29.646,74.022,31.162,74.585z"/>
<path class="stroke" fill="#252b56"  fill-rule="evenodd" clip-rule="evenodd" d="M43.146,72.535c-0.52,0.276-0.77,0.496-1.048,0.542
	c-1.621,0.27-3.048,0.999-4.461,1.779c-1.49,0.823-2.233,0.611-3.17-0.905c0.057-0.107,0.088-0.27,0.186-0.334
	c0.185-0.124,0.406-0.193,0.628-0.29c0.394,0.282,0.762,0.544,1.134,0.812C38.527,73.405,40.301,71.386,43.146,72.535z"/>
<path class="stroke" fill="#252b56"  fill-rule="evenodd" clip-rule="evenodd" d="M32.547,91.35c-0.396-1.061-0.255-4.427,0.29-8.273
	C33.718,84.031,33.565,89.908,32.547,91.35z"/>
<path class="stroke" fill="#252b56"  fill-rule="evenodd" clip-rule="evenodd" d="M41.749,86.343c0.469,0.372,0.82,0.65,1.183,0.94
	c0.214,0.555,0.054,0.988-0.509,1.207c-1.103,0.432-2.117,0.266-3.092-0.528C39.771,86.804,40.872,86.761,41.749,86.343z"/>
<path class="stroke" fill="#252b56"  fill-rule="evenodd" clip-rule="evenodd" d="M27.699,98.96c-1.697,0.528-3.155-0.344-4.673-2.633
	c0.08-0.12,0.155-0.284,0.275-0.402c0.09-0.088,0.237-0.118,0.283-0.14C24.948,96.838,26.266,97.854,27.699,98.96z"/>
<path class="stroke" fill="#252b56"  fill-rule="evenodd" clip-rule="evenodd" d="M27.493,88.129c0.209,1.445,0.065,1.626-1.621,1.951
	c-0.449-0.373-0.99-0.82-1.545-1.279C25.595,87.557,26.145,87.449,27.493,88.129z"/>
<path class="stroke" fill="#252b56"  fill-rule="evenodd" clip-rule="evenodd" d="M39.527,97.731c1.187-1.864,3.518-1.902,4.904-3.667
	c0.374,1.054-0.194,1.328-0.562,1.685C42.665,96.919,41.13,97.389,39.527,97.731z"/>
<path class="stroke" fill="#252b56"  fill-rule="evenodd" clip-rule="evenodd" d="M39.619,100.028c0.279-0.311,0.503-0.727,0.852-0.911
	c1.095-0.583,2.229-1.099,3.366-1.594c0.239-0.104,0.562-0.015,0.886,0.126c-1.231,1.636-3.072,2.068-4.786,2.733
	C39.83,100.265,39.724,100.146,39.619,100.028z"/>
<path class="stroke" fill="#252b56"  fill-rule="evenodd" clip-rule="evenodd" d="M40.564,102.832c1.247-1.105,2.583-2.016,4.299-2.564
	c0.074,1.213-0.795,1.327-1.301,1.632C42.672,102.436,41.864,103.348,40.564,102.832z"/>
<path class="stroke" fill="#252b56"  fill-rule="evenodd" clip-rule="evenodd" d="M26.695,104.401c-1.418,0.065-2.501-0.588-3.541-1.732
	c0.377-0.275,0.644-0.471,0.949-0.693c0.979,0.727,1.882,1.398,2.785,2.068C26.825,104.163,26.761,104.283,26.695,104.401z"/>
<path class="stroke" fill="#252b56"  fill-rule="evenodd" clip-rule="evenodd" d="M34.452,36.93c-0.309,0.47-0.532,0.698-0.625,0.972
	c-0.322,0.949-1.031,1.479-1.951,1.536c-1.415,0.088-2.848,0.09-4.262-0.03c-1.249-0.106-2.245-0.787-2.963-1.955
	c0.132-0.233,0.283-0.504,0.438-0.776c-0.12-0.434-0.239-0.873-0.359-1.313c0.694-0.799,1.563-0.993,2.508-1.025
	c1.891-0.064,3.78-0.132,5.669-0.222c1.573-0.076,2.029,0.232,2.562,1.715c0.652,1.818,0.312,3.666,0.126,5.485
	c-0.228,2.24-0.636,4.463-0.947,6.696c-0.068,0.494-0.053,1-0.081,1.587c0.445-0.021,0.78-0.038,1.101-0.052
	c0.224,0.656-0.111,0.972-0.588,1.106c-0.769,0.217-1.346-0.101-1.861-1.058c0.167-1.122,0.397-2.476,0.564-3.837
	c0.312-2.563,0.597-5.131,0.867-7.698C34.68,37.777,34.553,37.476,34.452,36.93z M30.819,38.408
	c0.815-0.116,1.553-0.069,1.769-0.986c-0.576-0.805-1.286-0.473-2.071-0.369C30.62,37.518,30.706,37.905,30.819,38.408z
	 M26.505,37.503c-0.005,0.13-0.012,0.259-0.017,0.389c0.561,0.221,1.118,0.441,1.847,0.729c-0.141-0.664-0.229-1.086-0.341-1.614
	C27.422,37.198,26.963,37.351,26.505,37.503z"/>
<path class="stroke" fill="#252b56"  fill-rule="evenodd" clip-rule="evenodd" d="M48.312,35.013c0.092,0.438,0.165,0.791,0.237,1.145
	c-0.062-0.007-0.125-0.014-0.188-0.021c-0.18,0.723-0.358,1.444-0.583,2.344c-0.431,0.097-0.947,0.291-1.472,0.312
	c-1.521,0.063-3.043,0.084-4.563,0.066c-1.934-0.024-2.855-0.991-2.91-2.907c-0.013-0.483-0.163-0.964-0.287-1.654
	c0.37-0.077,0.838-0.292,1.275-0.242c1.416,0.166,2.815,0.476,4.231,0.641C45.42,34.855,46.801,34.906,48.312,35.013z
	 M46.966,37.661c-0.522-0.891-1.021-1.178-1.847-0.999c-0.033,0.329-0.064,0.63-0.103,0.999
	C45.646,37.661,46.186,37.661,46.966,37.661z M40.745,37.264c0.048,0.141,0.096,0.279,0.146,0.419c0.511,0,1.021,0,1.623,0
	c-0.072-0.453-0.127-0.784-0.217-1.345C41.67,36.712,41.207,36.988,40.745,37.264z"/>
<path class="stroke" fill="#252b56"  fill-rule="evenodd" clip-rule="evenodd" d="M28.771,54.025c0-0.567,0-1.06,0-1.669c0.342-0.115,0.71-0.239,1.012-0.341
	c0.172,0.138,0.298,0.188,0.306,0.251c0.088,0.691,0.551,1.083,1.146,1.233c1.062,0.27,2.142,0.549,3.229,0.628
	c1.926,0.139,3.865,0.152,5.795-0.396c0.385-0.377,0.165-1.379,1.31-1.199c0.129,0.526,0.273,1.117,0.439,1.798
	c-2.245,0.906-4.456,0.984-6.712,1.071C33.003,55.489,31.01,54.544,28.771,54.025z"/>
<path class="stroke" fill="#252b56"  fill-rule="evenodd" clip-rule="evenodd" d="M37.129,58.94c-0.304,0.111-0.614,0.334-0.909,0.315
	c-1.091-0.069-2.179-0.199-3.263-0.347c-0.411-0.058-0.943-0.04-1-0.874c1.772-0.108,3.472-0.199,5.113,0.424
	C37.089,58.62,37.108,58.78,37.129,58.94z"/>
<path class="stroke" fill="#252b56"  fill-rule="evenodd" clip-rule="evenodd" d="M37.82,32.864c-0.106,0.037-0.229,0.106-0.355,0.115
	c-0.129,0.01-0.261-0.039-0.369-0.058c-0.489-0.519-0.148-1.454,0.738-2.105C38.385,31.632,38.385,31.632,37.82,32.864z"/>
<path class="stroke" fill="#252b56"  fill-rule="evenodd" clip-rule="evenodd" d="M35.593,30.708c0.131,0.794,0.231,1.405,0.344,2.094
	c-0.318,0.085-0.562,0.149-0.784,0.209C34.448,31.789,34.491,31.438,35.593,30.708z"/>
<path class="stroke" fill="#252b56"  fill-rule="evenodd" clip-rule="evenodd" d="M27.942,166.095c0.314,1.928,1.609,3.122,1.387,4.879
	c-0.383,1.044-1.262,1.618-2.335,2.021c-0.481-0.509-0.23-0.921,0.101-1.23c0.884-0.828,0.84-1.753,0.441-2.777
	c-0.232-0.594-0.384-1.221-0.619-1.988C27.165,166.779,27.432,166.544,27.942,166.095z"/>
<path class="stroke" fill="#252b56"  fill-rule="evenodd" clip-rule="evenodd" d="M44.259,170.759c-1.071,0.325-1.071,0.325-2.469-1.343
	c-0.141-1.812,0.163-2.566,1.272-2.936c-0.102,0.782-0.198,1.524-0.281,2.166C43.297,169.383,43.732,170.006,44.259,170.759z"/>
<path class="stroke" fill="#252b56"  d="M190.055,126.368c-0.585-2.389-1.604-4.601-2.84-6.922c0.499-3.692,1.105-7.433,1.494-11.197
	c0.654-6.316,0.688-12.614-0.708-18.88c-1.247-5.601-3.467-10.817-6.113-15.843c-1.694-3.218-3.715-6.281-5.781-9.28
	c-2.184-3.167-4.777-5.998-8.048-8.116c-1.548-1.004-3.105-1.993-4.674-2.962c-2.239-1.382-4.491-2.743-6.979-3.655
	c-0.374-0.137-0.712-0.375-1.08-0.573c0.333-2.186,0.135-4.269-0.396-6.271c-0.624-2.357-0.932-4.697-0.611-7.114
	c0.006-0.047,0.007-0.093,0.008-0.139c0.014-1.042-0.232-1.999-0.814-2.884c-0.888-1.354-1.761-2.708-2.818-3.307
	c-0.676-1.609-1.173-2.835-1.704-4.047c-0.333-0.76-0.795-1.472-1.059-2.253c-0.899-2.652-2.918-4.347-5.251-5.446
	c-3.685-1.733-7.669-1.85-11.664-1.19c-2.269,0.376-4.271,1.472-6.288,2.476c-0.84,0.417-1.583,1.12-2.22,1.83
	c-1.825,2.028-2.597,4.538-3.053,7.167c-0.183,1.041-0.364,2.08-0.552,3.152c-1.706,0.681-2.499,1.999-2.834,3.693
	c-0.179,0.903-0.436,1.8-0.748,2.667c-0.506,1.406-0.626,2.706,0.793,3.723c-1.833,3.225-2.039,6.754-2.546,10.238
	c-3.358,0.988-6.527,2.392-9.446,4.26c-1.973,1.262-3.797,2.775-5.596,4.287c-1.729,1.452-3.27,3.134-5.021,4.557
	c-2.51,2.036-4.538,4.483-6.262,7.162c-1.037,1.613-1.749,3.444-2.536,5.209c-1.092,2.447-2.201,4.889-3.151,7.392
	c-1.644,4.325-2.896,8.769-3.438,13.38c-0.248,2.104-0.541,4.225-0.53,6.337c0.021,4.209,0.725,8.357,1.503,12.487
	c0.343,1.815,0.71,3.625,1.02,5.444c0.331,1.95,0.837,3.888,0.318,5.899c-0.226,0.876-0.567,1.602-1.236,2.248
	c-0.892,0.861-1.71,1.813-2.461,2.802c-1.679,2.209-2.047,4.665-1.241,7.322c0.668,2.206,2.344,3.247,4.519,2.86
	c0.968-0.173,1.4-0.904,1.929-1.627c1.521,3.548,2.311,3.936,6.556,3.528c1.455,0.429,2.59,0.764,3.855,1.139
	c0.383,3.687,1.486,7.067,5.812,8.263c0.92,2.85,1.838,5.688,2.684,8.306c-1.115,1.919-2.153,3.704-3.352,5.768
	c-0.768,0-1.855,0.192-2.836-0.048c-1.293-0.319-2.54-0.401-3.803-0.239c-0.152,0.086-0.28,0.145-0.392,0.224
	c-1.922,1.381-2.389,3.42-0.025,5.046c0.823,0.566,1.521,1.326,2.225,2.048c0.638,0.654,1.372,1.038,2.264,1.238
	c1.409,0.315,2.744,0.03,3.995-0.36c2.073,0.755,2.068,0.741,4.21,0.086c0.385-0.117,0.819-0.101,1.231-0.103
	c2.679-0.005,5.358-0.032,8.037,0.017c2.808,0.051,5.619-0.283,8.43,0.213c1.471,0.259,2.946-0.126,4.336-0.671
	c1.613-0.636,2.851-2.513,2.533-4.028c-0.263-1.257-0.622-2.527-1.177-3.677c-0.388-0.805-0.571-1.579-0.445-2.392
	c0.589-3.792,1.347-7.539,2.922-11.075c1.594-3.576,2.61-7.293,2.594-11.246c-0.001-0.302,0.115-0.604,0.173-0.884
	c1.688-0.085,3.289-0.165,5.063-0.253c0.12,0.823,0.308,1.671,0.36,2.526c0.156,2.491,0.912,4.795,2.028,7.004
	c1.041,2.058,2.1,4.111,3.081,6.198c0.468,0.998,0.883,2.045,1.134,3.114c0.749,3.185,1.597,6.346,1.325,9.698
	c-0.166,2.048,1.149,3.624,3.146,4.187c1.846,0.52,3.728,0.615,5.624,0.291c1.318-0.225,2.631-0.535,3.959-0.641
	c3.695-0.296,7.262,0.512,10.769,1.537c2.035,0.595,4.084,0.731,6.17,0.66c0.95-0.031,1.783-0.364,2.535-0.976
	c0.415-0.338,0.958-0.513,1.427-0.789c1.26-0.746,2.527-1.481,3.752-2.283c0.274-0.179,0.437-0.593,0.556-0.931
	c0.45-1.275,0.395-2.527-0.172-3.774c-0.325-0.719-0.814-1.165-1.539-1.481c-1.091-0.476-2.183-0.267-3.275-0.161
	c-1.276,0.121-2.546,0.312-3.901,0.482c-1.129-1.389-2.227-2.741-3.376-4.157c0.639-2.014,1.247-3.935,1.807-5.697
	c0.575-0.313,0.929-0.532,1.306-0.706c1.693-0.78,2.63-2.181,3.013-3.917c0.225-1.024,0.222-2.107,0.234-3.164
	c0.014-1.104-0.249-2.236-0.091-3.312c0.428-2.914,1.015-5.804,1.521-8.603c0.642-0.265,1.166-0.376,1.561-0.665
	c0.882-0.644,1.897-0.873,2.907-1.183c1.296-0.396,2.471-1.006,3.243-2.223c0.235-0.372,0.639-0.648,0.999-0.925
	c1.607-1.238,2.419-2.991,3.104-4.815C190.152,127.131,190.139,126.71,190.055,126.368z"/>
<path fill-rule="evenodd" clip-rule="evenodd" fill="#f6da41" class="fill" d="M181.37,133.298c-0.607,0.443-1.049,0.777-1.502,1.091
	c-0.103,0.07-0.251,0.073-0.521,0.146c0.103-1.78,0.2-3.496,0.301-5.237c-0.391-0.206-0.704-0.372-1.01-0.533
	c-0.164,0.098-0.349,0.141-0.386,0.239c-0.156,0.422-0.359,0.854-0.381,1.292c-0.085,1.659-0.792,3.113-1.368,4.704
	c-1.338,0.475-2.411,1.638-4.204,1.56c0.29-0.965,0.594-1.769,0.768-2.6c0.233-1.121,0.495-2.263,0.508-3.397
	c0.017-1.46-0.798-2.09-2.251-1.905c-1.085,0.139-2.05,0.488-2.461,1.697c-0.25,0.733-0.654,1.413-1.016,2.172
	c-0.74-0.305-1.005-0.898-1.042-1.624c-0.058-1.146,0.282-2.169,0.919-3.128c0.913-1.376,2.063-2.611,2.492-4.282
	c0.549-2.129,0.643-4.28,0.419-6.457c-0.056-0.548-0.082-1.097-0.121-1.643c0.522-0.652,1.037-1.244,1.496-1.876
	c1.746-2.396,2.049-5.107,1.506-7.912c-0.563-2.91-1.99-5.434-3.804-7.768c-1.28-1.646-2.071-3.433-1.554-5.655
	c0.476-2.046-0.029-4.039-0.879-5.932c-0.994-2.217-2.482-4.08-4.081-5.896c-2.318-2.634-4.531-5.363-6.218-8.624
	c-0.049-0.025-0.206-0.115-0.372-0.184c-0.167-0.07-0.343-0.121-0.599-0.208c-0.145,0.231-0.419,0.466-0.396,0.667
	c0.148,1.229,0.134,2.549,0.608,3.653c0.757,1.768,1.78,3.436,2.825,5.06c0.847,1.316,1.938,2.472,2.834,3.76
	c1.316,1.894,2.131,3.976,2.077,6.337c-0.041,1.897-1.39,3.716-3.264,4.108c-0.93,0.194-1.928,0.199-2.882,0.121
	c-3.126-0.252-5.638-1.807-8.005-3.76c-2.85-2.353-5.809-4.572-8.727-6.838c-0.399-0.31-0.826-0.603-1.278-0.822
	c-0.336-0.162-0.734-0.194-1.184-0.302c-0.087,0.836,0.449,1.029,0.808,1.333c1.618,1.372,3.319,2.657,4.842,4.126
	c2.125,2.048,4.053,4.297,6.18,6.343c4.103,3.941,8.926,4.714,14.245,2.976c0.174-0.058,0.349-0.112,0.525-0.162
	c0.042-0.013,0.091-0.002,0.351-0.002c1.232,1.263,2.146,2.898,3.038,4.562c0.955,1.776,1.061,3.6,0.324,5.832
	c-0.953,1.162-2.572,1.801-4.316,2.105c-1.58,0.275-3.204,0.302-4.78,0.59c-0.686,0.125-1.396,0.522-1.934,0.983
	c-2.293,1.963-4.754,3.661-7.445,5.028c-1.732,0.878-3.46,1.796-5.431,1.979c-1.7,0.158-3.41,0.278-5.117,0.271
	c-2.813-0.01-5.633-0.048-8.438-0.234c-4.133-0.274-8.146-1.107-11.777-3.234c-1.033-0.605-2.01-1.307-3.016-1.959
	c-1.896-1.229-3.796-2.454-5.699-3.684c0-0.392,0-0.775,0-1.184c-0.973-0.423-1.793,0.063-2.616,0.225
	c-1.627,0.317-3.224,0.792-4.854,1.07c-2.213,0.377-3.716-0.6-3.96-2.812c-0.394-3.563,0.05-6.948,3.165-9.379
	c0.461-0.36,0.897-0.753,1.61-1.354c0.187,0.35,0.281,0.628,0.457,0.839c1.699,2.029,3.955,2.846,6.521,2.771
	c2.698-0.078,5.194-0.904,7.296-2.636c0.991-0.816,1.82-1.83,2.721-2.756c1.803-1.851,3.574-3.73,5.42-5.536
	c0.617-0.604,1.427-1.006,2.131-1.524c0.584-0.432,1.139-0.9,1.788-1.417c-0.312-0.435-0.535-0.747-0.785-1.097
	c-2.068,0.727-3.707,1.989-5.256,3.374c-1.756,1.57-3.454,3.201-5.208,4.773c-1.881,1.687-4.18,2.727-6.612,2.896
	c-2.004,0.14-4.194-0.026-5.926-1.427c-0.436-0.352-0.813-0.883-1.005-1.41c-0.435-1.192-0.47-2.451-0.111-3.676
	c0.631-2.158,1.415-4.264,2.217-6.368c1.261-3.309,1.894-6.75,1.398-10.32c-0.019-0.128-0.081-0.251-0.141-0.43
	c-0.735,0.041-0.851,0.585-0.978,1.114c-0.483,2.021-0.903,4.06-1.472,6.057c-0.349,1.229-0.816,2.451-1.425,3.57
	c-0.658,1.212-1.482,2.349-2.344,3.429c-1.553,1.947-2.396,4.12-2.426,6.609c-0.021,1.667-0.757,2.982-1.886,4.173
	c-0.78,0.823-1.412,1.787-2.104,2.693c-0.475,0.623-0.948,1.249-1.405,1.886c-0.893,1.242-1.27,2.605-1.227,4.159
	c0.077,2.865,0.941,5.495,1.919,8.154c0.692,1.886,1.037,3.917,1.364,5.911c0.245,1.496,0.344,3.041,0.276,4.553
	c-0.095,2.108,1.367,3.087,2.685,4.226c0.522,0.449,1.115,0.857,1.5,1.407c0.539,0.764,0.74,1.671,0.621,2.638
	c-0.143,1.142-0.215,2.292-0.354,3.436c-0.042,0.348-0.209,0.679-0.377,1.196c-1.502-0.887-2.154-2.227-2.753-3.579
	c-1.322,0.348-2.026,1.194-1.966,2.598c0.037,0.855,0.285,1.715,0.531,2.545c0.233,0.783,0.588,1.532,0.876,2.259
	c-0.475,0.633-1.066,0.747-1.67,0.596c-1.474-0.369-2.764-1.025-3.493-2.474c-0.622-1.233-0.73-2.564-0.793-3.907
	c-0.019-0.398-0.002-0.798-0.002-1.213c-0.871-0.16-1.198,0.317-1.33,0.848c-0.178,0.708-0.362,1.476-0.27,2.181
	c0.246,1.869,0.476,3.781,2.005,5.171c0.081,0.074,0.07,0.249,0.114,0.422c-0.496,0.436-1.032,0.344-1.547,0.125
	c-1.301-0.551-2.217-1.37-2.435-2.912c-0.221-1.568-0.413-3.095-0.008-4.662c0.088-0.346-0.192-0.785-0.383-1.467
	c-1.536,1.296-1.442,2.88-1.778,4.287c-0.383,1.596,0.246,2.969,1.032,4.282c-1.398,0.627-2.909,0.018-3.247-1.368
	c-0.222-0.912-0.282-1.947-0.091-2.859c0.354-1.685,0.945-3.321,1.441-4.985c-1.225-0.407-1.876,0.074-2.766,2.076
	c-1.224,0.784-2.335,1.497-3.269,2.096c-0.344,1.186-0.001,2.264-0.918,3.082c-0.236-0.201-0.545-0.35-0.674-0.592
	c-0.785-1.476-1.139-2.963-0.339-4.607c1.003-2.061,2.397-3.836,3.809-5.603c0.734-0.918,1.003-1.914,1.017-3.065
	c0.05-4.183-0.777-8.263-1.377-12.371c-0.499-3.422-1.467-6.789-1.368-10.281c0.065-2.353,0.279-4.702,0.446-7.052
	c0.02-0.263,0.163-0.517,0.277-0.861c0.586,0.811,1.024,1.643,1.674,2.247c0.599,0.557,0.879,1.512,1.949,1.767
	c0.037-0.374,0.108-0.63,0.073-0.868c-0.034-0.22-0.164-0.432-0.281-0.628c-1.687-2.858-1.082-5.476,0.81-7.974
	c0.336-0.444,0.943-0.791,0.64-1.759c-0.666,0.472-1.244,0.881-2.03,1.44c0.186-1.142,0.261-2.008,0.476-2.838
	c1.311-5.062,2.741-10.097,5.602-14.544c1.623-2.523,3.328-5.022,5.27-7.298c1.392-1.63,3.198-2.92,4.889-4.274
	c1.947-1.561,4.062-2.876,6.666-4.058c0.524,0.627,1.024,1.435,1.717,2.009c1.837,1.521,3.984,2.493,6.275,3.125
	c1.29,0.356,2.587,0.744,3.906,0.924c2.95,0.403,5.896,0.059,8.831-0.292c0.069-0.007,0.124-0.124,0.227-0.232
	c-0.007-0.517-0.444-0.601-0.826-0.693c-0.895-0.216-1.791-0.446-2.7-0.588c-1.975-0.311-3.396-1.425-4.41-3.06
	c-2.407-3.875-3.102-8.083-2.103-12.518c0.688-3.055,1.567-6.065,2.328-9.104c0.559-2.229,1.44-4.385,1.542-6.721
	c0.013-0.311,0.18-0.617,0.277-0.925c2.985-2.528,6.51-3.523,10.608-3.833c-0.586,0.848-1.025,1.484-1.475,2.136
	c1.066,1.157,2.151,0.41,3.262,0.265c0.038,0.477,0.073,0.913,0.112,1.388c1.548,0.484,1.869-1.135,2.809-1.554
	c0.93,0.447,0.691,2.047,2.11,2.016c1.303-1.662,2.6-3.317,3.967-5.06c1.049,1.457,1.056,3.188,1.669,4.647
	c1.43,0.38,1.459-0.899,2.017-1.578c0.378,0.228,0.729,0.439,1.148,0.691c0.227,0.995,0.451,2.027,0.699,3.054
	c0.656,2.717,2.078,5.129,3.075,7.707c2.104,5.435,2.312,10.896-0.363,16.236c-1.067,2.133-2.695,3.861-4.492,5.393
	c-0.818,0.696-1.564,1.531-2.66,1.898c-0.549,0.186-0.754,0.668-0.173,1.334c3.196-0.258,5.385-2.372,7.627-4.418
	c2.395-2.188,3.045-5.165,3.678-8.192c1.744,0.333,3.051,1.315,4.387,2.191c2.161,1.419,4.299,2.881,6.387,4.405
	c3.602,2.628,6.759,5.697,9.44,9.292c1.926,2.582,3.34,5.423,4.732,8.286c1.859,3.825,3.563,7.718,4.47,11.902
	c0.279,1.297,0.521,2.603,0.842,4.212c-0.716-0.301-1.186-0.499-1.796-0.757c-0.343,0.059-0.812,0.142-1.545,0.271
	c1.403,1.334,2.73,2.362,3.293,3.988c0.577,1.667,0.007,3.272-0.349,5.06c0.543,0.078,1.013,0.146,1.566,0.226
	c0.035,0.265,0.122,0.576,0.108,0.882c-0.169,3.738-0.321,7.479-0.545,11.213c-0.121,2.027-0.333,4.05-0.57,6.067
	c-0.165,1.402,0.211,2.644,0.847,3.856c0.708,1.349,1.388,2.71,1.574,4.259c0.074,0.624,0.054,1.179-0.604,1.626
	c-0.466-1.04-0.379-2.437-1.928-2.768c0.175,2.635,0.298,5.095-2.074,6.637c-0.142-0.037-0.284-0.075-0.425-0.112
	c0.22-1.325,0.438-2.65,0.673-4.069c-0.282-0.245-0.57-0.497-1.014-0.881C182.128,129.775,181.737,131.593,181.37,133.298z
	 M146.946,48.805c-0.076-0.046-0.154-0.135-0.227-0.129c-0.274,0.018-0.545,0.07-0.817,0.103c-1.864,0.229-3.471-1.158-3.499-3.043
	c-0.006-0.412,0.128-0.836,0.073-1.238c-0.049-0.345-0.274-0.663-0.408-0.965c-1.058,0.251-1.28,1.021-1.612,1.652
	c-0.544,1.04,0.271,1.937,0.438,2.862c-2.212,2.944-4.879,3.874-8.281,2.926c-0.221-0.062-0.444-0.138-0.671-0.153
	c-1.565-0.111-2.756-0.924-3.811-1.962c0.515-3.259,0.486-3.612-0.584-5.229c-0.318,0.409-0.588,0.76-0.762,0.982
	c0,0.32,0,0.411,0.001,0.503c0.023,2.729-1.351,4.287-4.041,4.612c-0.292,0.036-0.568,0.197-0.802,0.282
	c-0.099,0.815,0.323,1.103,0.895,1.307c1.738,0.625,3.145-0.118,4.562-1.15c1.396,1.14,2.8,2.321,4.648,2.574
	c1.794,0.245,3.573,0.051,5.345-0.36c1.869-0.433,2.982-1.884,4.212-3.069C144.688,50.582,146.419,50.396,146.946,48.805z
	 M138.504,35.96c0.516,0.197,1.133,0.586,1.785,0.658c1.808,0.198,3.594-0.083,5.332-0.603c0.764-0.228,1.286-0.909,1.185-1.675
	c-0.138-1.03-0.422-2.04-0.671-3.192c-3.04,0.006-6.007-0.437-8.994,0.758C137.601,33.275,137.999,34.459,138.504,35.96z
	 M131.807,31.927c-2.894-0.21-5.557-0.353-8.129-0.054c-0.4,0.583-0.684,0.993-0.95,1.381c0.037,0.286,0.085,0.512,0.091,0.739
	c0.006,0.274-0.028,0.548-0.037,0.821c-0.034,0.948,0.132,1.194,1.015,1.535c1.553,0.6,3.161,0.589,4.758,0.328
	c0.995-0.164,1.76-0.728,2.072-1.789c0.128-0.433,0.429-0.811,0.601-1.233C131.424,33.167,131.565,32.655,131.807,31.927z
	 M136.496,102.483c-1.127,0.146-2.057,0.471-2.412,1.507c-0.297,0.862-0.532,1.781-0.573,2.686c-0.046,0.991-0.05,2.031,0.539,2.938
	c0.646,0.992,1.686,1.186,2.903,0.525c1.115-0.606,1.709-1.889,1.299-2.828c-0.028-0.065-0.149-0.091-0.31-0.18
	c-0.171,0.153-0.375,0.316-0.553,0.506c-0.181,0.191-0.335,0.41-0.488,0.604c-1.041-0.511-1.041-0.511-0.904-1.86
	c0.617-0.59,1.878-0.548,1.945-1.711C138.002,103.652,137.409,102.965,136.496,102.483z M129.913,54.993
	c-0.127,0.103-0.232,0.147-0.264,0.222c-0.159,0.378-0.305,0.763-0.446,1.146c-0.921,2.514,0.477,4.522,3.164,4.59
	c2.149,0.055,4.18-0.434,6.214-1.086c1.389-0.444,2.012-1.352,2.262-2.649c0.105-0.547,0.403-1.163-0.372-1.723
	c-0.405,0.567-0.738,1.154-1.184,1.637c-1.781,1.931-4.064,2.414-6.56,2.083c-1.873-0.247-2.536-1.146-2.403-3.005
	C130.355,55.789,130.63,55.275,129.913,54.993z M132.988,34.551c-0.163,0.694-0.33,1.233-0.409,1.783
	c-0.125,0.864-0.14,1.746-0.29,2.604c-0.342,1.95-0.759,3.888-1.104,5.837c-0.192,1.088,0.148,2.068,1.07,2.667
	c0.979,0.636,2.063,0.756,3.195-0.076c0.104-0.389,0.229-0.85,0.37-1.37c-1.222-0.225-2.28-0.419-3.411-0.627
	c0.336-1.963,0.709-3.709,0.921-5.475C133.825,35.774,133.787,35.573,132.988,34.551z M157.407,87.452
	c-1.167,0.866-1.591,2.235-1.201,3.809c0.302,1.214,1.394,2.064,2.855,2.22c1.757,0.188,2.798-0.482,2.945-2.092
	c0.153-1.691-0.816-3.394-2.75-3.675C158.675,87.628,158.092,87.549,157.407,87.452z M111.312,88.972
	c-0.404,0.125-0.748,0.296-1.104,0.328c-1.474,0.13-2.283,1.01-2.79,2.308c-0.333,0.855-0.28,1.609,0.363,2.296
	c0.63,0.67,1.32,1.064,2.315,0.873c0.95-0.184,1.72-0.603,2.363-1.299C113.789,92.042,113.235,89.717,111.312,88.972z"/>
<path fill-rule="evenodd" clip-rule="evenodd" fill="#f6da41" class="fill" d="M167.878,112.531c0.07,0.633,0.16,1.305,0.216,1.979
	c0.167,2.024,0.306,4.051,0.485,6.074c0.151,1.693-0.265,3.185-1.349,4.52c-0.639,0.784-1.28,1.604-1.712,2.508
	c-0.565,1.179-0.924,2.457-1.442,3.891c-0.606,0.118-1.477,0.223-2.307,0.466c-3.14,0.917-6.313,1.755-9.387,2.865
	c-2.941,1.061-5.774,2.425-8.656,3.652c-3.238,1.379-6.521,2.596-10.116,2.496c-0.817-0.022-1.659-0.141-2.437-0.386
	c-3.561-1.119-7.098-2.313-10.653-3.453c-2.458-0.788-4.913-1.598-7.401-2.276c-2.667-0.727-5.372-1.312-8.059-1.959
	c-0.221-0.054-0.441-0.107-0.764-0.185c-0.118-2.922-2.264-4.221-4.422-5.402c-0.606-1.845-0.483-10.619,0.203-13.338
	c0.801-0.162,1.685-0.367,2.579-0.517c1.045-0.176,2.13-0.191,3.141-0.479c1.438-0.409,2.497,0.047,3.503,1.024
	c1.326,1.287,2.657,2.576,4.08,3.75c3.742,3.091,8.078,4.934,12.795,5.978c4.952,1.098,9.905,0.773,14.873,0.204
	c2.865-0.328,5.624-1.021,8.265-2.186c2.73-1.206,5.098-2.971,7.434-4.783c0.839-0.65,1.642-1.351,2.428-2.064
	C161.194,113.078,165.005,112.107,167.878,112.531z"/>
<path fill-rule="evenodd" clip-rule="evenodd" fill="#f6da41" class="fill" d="M167.701,134.524c0.875,1.074,1.128,2.08,0.858,3.178
	c-0.57,2.329,0.97,3.295,2.828,3.492c1.178,0.124,2.377,0.022,3.771,0.022c-0.142,0.902-0.303,1.605-0.355,2.318
	c-0.148,2.023-0.367,4.05-0.342,6.073c0.026,2.077-0.693,3.678-2.339,4.91c-2.576,0.546-4.808-0.856-7.082-1.397
	c-0.639,0.538-0.645,1.019-0.432,1.606c0.582,1.604,1.61,2.78,3.158,3.498c0.579,0.269,1.165,0.519,1.818,0.81
	c-0.511,1.302-0.994,2.534-1.451,3.697c0.295,2.469,1.388,4.562,2.375,6.682c-0.569,0.429-1.086,0.818-1.624,1.223
	c0.761,0.761,0.761,0.761,3.513,0.114c1.909,0.791,2.244,1.097,2.81,2.593c-0.121,0.654-0.651,0.756-1.188,0.962
	c-3.089,1.182-5.98,0.495-8.829-0.821c-1.948-0.898-4.026-1.266-6.147-1.444c-0.687-0.058-1.367-0.248-2.052-0.25
	c-1.1-0.005-2.202,0.075-3.3,0.16c-1.011,0.078-2.016,0.297-3.024,0.301c-2.01,0.01-3.185-1.256-3.092-3.244
	c0.137-2.94-0.265-5.827-1.116-8.618c-0.41-1.342-1.204-2.581-1.925-3.808c-0.536-0.911-1.172-1.724-1.343-2.839
	c-0.116-0.75-0.573-1.452-0.896-2.166c-0.978-2.155-0.632-4.363-0.142-6.527c0.145-0.643,0.779-1.234,1.307-1.723
	c3.131-2.902,6.784-4.911,10.828-6.253c3.422-1.137,6.882-2.133,10.452-2.656C165.715,134.276,166.739,134.481,167.701,134.524z
	 M153.825,168.301c-0.974-0.782-2.422-0.963-2.931-2.013c-0.398-1.714,1.079-2.942,0.613-4.498c-1.223-0.133-1.823,0.575-2.254,1.4
	c-0.337,0.645-0.513,1.377-0.73,2.08c-0.292,0.951-0.079,1.801,0.516,2.598c0.779,1.046,1.892,1.497,3.097,1.578
	C152.803,169.491,153.644,169.344,153.825,168.301z"/>
<path fill-rule="evenodd" clip-rule="evenodd" fill="#f6da41" class="fill" d="M95.088,146.419c3.889-0.088,6.104-2.001,6.598-5.777
	c0.651-0.214,1.26-0.414,1.841-0.604c1.371-1.362,1.31-3.117,1.408-4.946c0.418,0.034,0.787-0.008,1.102,0.103
	c3.48,1.223,7.028,2.294,10.406,3.756c3.548,1.536,6.941,3.433,10.381,5.216c0.817,0.423,1.504,1.027,1.938,1.914
	c0.454,0.929,0.613,1.847,0.226,2.803c-0.831,2.049-1.605,4.126-2.564,6.115c-1.441,2.989-2.349,6.134-2.698,9.4
	c-0.153,1.427,0.226,2.92,0.433,4.372c0.188,1.313,0.723,2.581,0.529,4.022c-0.808,0.435-1.614,0.873-2.185,1.181
	c-7.325-0.176-14.403-0.354-21.589,0.834c0.066,0.013-0.035,0.016-0.112-0.026c-1.152-0.639-1.761-1.615-1.568-2.502
	c0.201-0.927,1.487-1.924,2.582-1.983c0.4-0.021,0.805-0.003,1.035-0.003c0.647-1.829,1.249-3.458,1.799-5.104
	c0.327-0.983,0.285-1.996,0.068-3.009c-0.356-1.669-0.716-3.339-1.021-5.019c-0.092-0.513-0.014-1.056,0.188-1.6
	c-0.148-0.578-0.296-1.157-0.496-1.941c-0.581-0.147-1.221-0.342-1.874-0.468c-0.676-0.132-1.374-0.152-2.043-0.301
	c-2.354-0.523-3.588-2.11-4.053-4.388C95.299,147.88,95.226,147.285,95.088,146.419z M119.516,168.086
	c-1.092,1.655-2.934,0.669-3.801,2.14c1.4,0.787,2.778,1.041,4.204,0.792c1.837-0.319,2.626-1.17,2.51-3.027
	c-0.113-1.821-0.505-3.632-0.866-5.428c-0.157-0.776-0.397-1.599-1.247-2.033c-0.275,0.411-0.554,0.824-0.849,1.265
	C119.618,164.023,120.192,166.269,119.516,168.086z"/>
<path fill-rule="evenodd" clip-rule="evenodd" fill="#f6da41" class="fill" d="M129.118,25.065c-0.213,0.028-0.601,0.079-1.027,0.136
	c0.782-3.243,5.834-7.388,8.862-7.052c-1.095,0.708-2.043,1.207-2.853,1.873c-0.886,0.728-1.649,1.605-2.457,2.428
	C130.871,23.238,130.11,24.036,129.118,25.065z"/>
<path fill-rule="evenodd" clip-rule="evenodd" fill="#f6da41" class="fill" d="M131.1,24.462c1.403-1.369,2.703-2.873,4.246-4.059
	c1.062-0.815,2.458-1.205,3.719-1.75c0.149-0.063,0.393,0.097,0.846,0.225c-2.899,2.187-5.554,4.3-8.518,5.965
	C131.294,24.717,131.196,24.59,131.1,24.462z"/>
<path fill-rule="evenodd" clip-rule="evenodd" fill="#f6da41" class="fill" d="M126.656,25.749c-0.397,0.106-0.784,0.209-1.179,0.314
	c-0.329-2.675,4.11-7.565,6.855-7.461C129.701,20.472,127.471,22.535,126.656,25.749z"/>
<path fill-rule="evenodd" clip-rule="evenodd" fill="#f6da41" class="fill" d="M140.67,19.7c-0.678,1.739-4.989,5.546-6.468,5.928
	c0.252-0.579,0.48-1.106,0.73-1.682C136.825,22.546,138.747,21.123,140.67,19.7z"/>
<path fill-rule="evenodd" clip-rule="evenodd" fill="#f6da41" class="fill" d="M136.918,25.493c1.328-1.326,2.659-2.649,3.982-3.979
	c0.436-0.438,0.854-0.894,1.369-1.434c-0.011,1.176-1.313,2.966-3.741,5.353c-0.56,0.052-1.038,0.098-1.517,0.143L136.918,25.493z"
	/>
<path fill-rule="evenodd" clip-rule="evenodd" fill="#f6da41" class="fill" d="M143.291,22.933c-0.274-0.085-0.526-0.164-0.911-0.283
	c0.349-0.536,0.661-1.017,1.06-1.63c1.166,1.087,1.333,2.56,1.971,3.659c-0.096,0.753-0.178,1.399-0.278,2.179
	C144.504,25.519,143.926,24.286,143.291,22.933z"/>
<path fill-rule="evenodd" clip-rule="evenodd" fill="#f6da41" class="fill" d="M123.665,26.598c-0.386-2.226,2.128-6.143,4.481-7.284
	c-0.685,0.87-1.177,1.524-1.7,2.153c-1.075,1.289-1.893,2.703-2.264,4.361C124.118,26.11,123.843,26.344,123.665,26.598z"/>
<path fill-rule="evenodd" clip-rule="evenodd" fill="#f6da41" class="fill" d="M178.022,171.254c0,0.483,0,0.938,0,1.479
	c-0.285,0.232-0.595,0.484-1.014,0.827c-0.444-0.854-0.835-1.604-1.279-2.457C176.509,170.736,177.2,170.595,178.022,171.254z"/>
<path fill-rule="evenodd" clip-rule="evenodd" fill="#f6da41" class="fill" d="M96.919,172.172c0.086,0.922,0.157,1.687,0.229,2.456
	c-1.196,0.262-1.48,0.151-2.058-0.862C95.497,173.094,95.891,172.386,96.919,172.172z"/>
<path fill-rule="evenodd" clip-rule="evenodd" fill="#f6da41" class="fill" d="M179.604,172.061c-0.314-0.921-0.539-1.582-0.765-2.241
	c1.183-0.567,1.851-0.14,2.248,1.609C180.61,171.632,180.106,171.846,179.604,172.061z"/>
<path fill-rule="evenodd" clip-rule="evenodd" fill="#f6da41" class="fill" d="M146.018,23.461c1.373,1.07,1.703,2.382,2.452,3.803
	c-1.044-0.328-1.401-0.969-1.916-1.477C146.4,25.122,146.243,24.44,146.018,23.461z"/>
<path fill-rule="evenodd" clip-rule="evenodd" fill="#f6da41" class="fill" d="M94.167,170.706c-0.512,1.036-0.907,1.834-1.315,2.66
	c-0.537-0.107-0.793-0.502-0.672-0.98C92.412,171.469,93.161,171.072,94.167,170.706z"/>
<path fill-rule="evenodd" clip-rule="evenodd" fill="#f6da41" class="fill" d="M122.964,23.317c-0.648,1.296-0.527,2.849-1.373,4.061
	C121.659,25.889,121.826,24.436,122.964,23.317z"/>
<path fill-rule="evenodd" clip-rule="evenodd" fill="#f6da41" class="fill" d="M92.701,170.051c-0.494,0.344-0.986,0.69-1.604,1.123
	C91.306,169.931,91.415,169.846,92.701,170.051z"/>
<path fill-rule="evenodd" clip-rule="evenodd" fill="#f6da41" class="fill" d="M137.012,25.576c-0.178,0.457-0.488,0.762-0.885,0.967
	c-0.081-0.091-0.161-0.184-0.241-0.275c0.344-0.259,0.688-0.517,1.032-0.774L137.012,25.576z"/>
<path fill-rule="evenodd" clip-rule="evenodd" fill="#f6da41" class="fill" d="M140.946,24.861c-0.16,0.183-0.321,0.365-0.482,0.549
	c-0.046-0.034-0.093-0.067-0.139-0.101c0.139-0.21,0.276-0.421,0.415-0.632C140.81,24.739,140.878,24.8,140.946,24.861z"/>
<path fill-rule="evenodd" clip-rule="evenodd" fill="#f6da41" class="fill" d="M143.363,33.104c1.024,0.002,1.879,0.213,2.489,1.051
	c-0.159,1.317-1.231,1.073-2.253,1.396C143.96,34.583,144.099,33.775,143.363,33.104z"/>
<path fill-rule="evenodd" clip-rule="evenodd" fill="#f6da41" class="fill" d="M139.221,34.842c0.269-1.299,1.29-1.299,2.283-1.409
	c-0.22,0.312-0.438,0.627-0.673,0.962c0.028,0.356,0.057,0.717,0.083,1.055C140.534,35.823,140.167,35.692,139.221,34.842z"/>
<path fill-rule="evenodd" clip-rule="evenodd" fill="#f6da41" class="fill" d="M125.869,33.915c0.082,0.739,0.134,1.221,0.211,1.919
	c-0.773-0.192-1.468-0.365-2.22-0.551C124.168,34.067,125.099,34.34,125.869,33.915z"/>
<path fill-rule="evenodd" clip-rule="evenodd" fill="#f6da41" class="fill" d="M129.84,34.761c-0.38,0.299-0.757,0.595-1.207,0.949
	c-0.277-0.72-0.48-1.247-0.7-1.818C128.719,33.702,129.358,33.806,129.84,34.761z"/>
<path fill-rule="evenodd" clip-rule="evenodd" fill="#f6da41" class="fill" d="M160.219,92.36c-2.627,0.179-3.665-1.274-2.659-3.596
	c0.337,0.028,0.688,0.129,1.011,0.071c0.95-0.167,1.616,0.272,2.097,0.988C161.143,90.533,160.933,91.521,160.219,92.36z"/>
<path fill-rule="evenodd" clip-rule="evenodd" fill="#f6da41" class="fill" d="M110.896,89.893c0.252,0.109,0.467,0.188,0.669,0.294
	c0.119,0.063,0.217,0.166,0.369,0.287c0.052,0.537,0.103,1.077,0.147,1.55c-0.425,0.857-0.986,1.437-1.829,1.681
	c-0.61,0.177-1.192,0.094-1.638-0.414c-0.47-0.536-0.353-1.117-0.044-1.665C109.064,90.748,109.802,90.162,110.896,89.893z"/>
</svg>
