<svg version="1.1" id="svg" xmlns="http://www.w3.org/2000/svg" xmlns:xlink="http://www.w3.org/1999/xlink" x="0px" y="0px"
	 width="200px" height="200px" viewBox="0 0 200 200" enable-background="new 0 0 200 200" xml:space="preserve">
<path class="stroke" fill="#183046"  d="M140.477,69.721c-0.931-0.929-1.812-1.907-2.858-3.016c-0.137-2.562-0.196-5.437-1.892-7.822
	c-1.744-2.456-4.539-3.342-7.314-4.25c-0.198-0.666-0.333-1.314-0.585-1.915c-0.486-1.16-0.883-2.402-1.597-3.412
	c-1.377-1.945-3.327-3.338-5.694-3.577c-1.987-0.2-4.056-0.146-6.039,0.523c-1.071,0.361-2.218,0.499-3.398,0.752
	c-0.604-0.741-1.145-1.353-1.629-2.006c-1.94-2.611-4.509-3.9-7.776-3.89c-2.656,0.008-5.211,0.331-7.765,1.188
	c-4.17,1.401-7.968,3.398-11.387,6.142c-0.384,0.308-0.771,0.634-1.077,1.015c-1.811,2.255-3.217,4.709-3.676,7.623
	c-0.135,0.858-0.34,1.705-0.487,2.437c-2.067,0.608-4.019,1.137-5.938,1.764c-1.338,0.437-2.42,1.267-3.183,2.486
	c-1.648,2.636-3.068,5.339-2.894,8.595c0.026,0.482-0.092,0.985-0.212,1.461c-0.47,1.861-1.072,3.695-1.434,5.576
	c-0.777,4.05-0.075,8.054,1.164,11.861c1.166,3.58,2.785,7.043,4.509,10.401c0.92,1.792,1.227,3.455,0.796,5.343
	c-0.16,0.695-0.295,1.397-0.447,2.095c-1.244,5.722-3.504,11.097-5.641,16.512c-1.088,2.758-2.317,5.459-3.438,8.205
	c-0.566,1.39-0.905,2.858-0.48,4.35c0.585,2.057,1.122,4.146,1.934,6.115c1.172,2.845,3.057,5.18,5.658,6.916
	c2.843,1.898,5.763,3.579,9.066,4.606c3.576,1.113,7.079,2.323,10.93,1.997c3.828-0.325,7.675-0.412,11.508-0.681
	c1.578-0.111,3.141-0.421,4.733-0.644c0.221-0.459,0.431-0.841,0.591-1.243c1.015-2.55,1.995-5.114,3.031-7.655
	c1.224-3.001,2.388-6.033,3.762-8.965c2.919-6.231,5.585-12.54,7.084-19.294c0.229-1.038,0.625-2.202,1.331-2.938
	c2.049-2.136,4.215-4.178,6.483-6.08c2.837-2.376,4.859-5.353,6.787-8.435c0.464-0.741,0.879-1.567,1.513-2.139
	c2.228-2.01,3.395-4.542,3.948-7.419c0.209-1.09,0.6-2.068,1.297-2.974c0.45-0.583,0.729-1.362,0.885-2.096
	c0.844-3.977,1.539-7.975,1.892-12.037C142.732,72.96,141.998,71.241,140.477,69.721z M101.412,121.335
	c-2.657,0.112-5.132-0.479-7.332-2.021c-2.844-1.997-5.879-3.648-9.064-5.021c-0.564-0.242-1.214-0.29-1.68-0.396
	c-0.959,0.855-0.895,1.605-0.455,2.397c1.656,0.62,3.336,1.146,4.923,1.875c1.339,0.615,2.665,1.34,3.827,2.236
	c2.828,2.18,5.974,3.442,9.513,3.776c0.151,0.015,0.295,0.114,0.468,0.185c0.009,0.173,0.043,0.332,0.019,0.48
	c-0.016,0.094-0.118,0.173-0.252,0.355c-1.079-0.091-2.218-0.187-3.506-0.296c-0.091,0.407-0.176,0.784-0.306,1.364
	c1.357,0.249,2.56,0.472,4.024,0.741c-0.931,0.863-1.704,0.275-2.42,0.236c-0.812-0.044-1.623-0.136-2.519-0.215
	c-0.112,0.46-0.196,0.803-0.34,1.386c1.58,0.283,3.055,0.549,4.639,0.834c-0.16,0.565-0.272,0.968-0.405,1.436
	c-1.694-0.084-3.319-0.165-5.037-0.249c-0.077,0.461-0.135,0.804-0.23,1.375c1.606,0.207,3.104,0.4,4.733,0.61
	c-0.053,0.508-0.1,0.965-0.149,1.449c-1.812,0.553-3.552-0.033-5.396,0c-0.067,0.477-0.124,0.868-0.202,1.424
	c1.597,0.19,3.051,0.364,4.698,0.562c-0.115,0.506-0.227,0.992-0.342,1.5h-5.983c-0.108,0.374-0.219,0.761-0.358,1.253
	c1.801,0.666,3.592,0.322,5.298,0.561c0.051,1.195,0.051,1.195-0.936,2.6c-1.589-0.153-3.319-0.32-5.222-0.503
	c-0.117,0.266-0.275,0.626-0.456,1.039c1.577,0.965,3.268,0.843,5.065,1.165c-0.291,0.646-0.548,1.216-0.866,1.922
	c-1.77-0.184-3.502-0.362-5.321-0.55c-0.099,0.133-0.293,0.288-0.329,0.473c-0.045,0.248,0.033,0.518,0.072,0.931
	c1.479,0.248,2.925,0.489,4.624,0.774c-0.328,0.672-0.597,1.221-0.906,1.857c-2.016-0.204-3.964-0.401-6.102-0.618
	c-0.143,0.362-0.304,0.769-0.501,1.266c1.848,0.819,3.711,0.459,5.66,0.91c-0.437,0.7-0.794,1.275-1.27,2.037
	c-2.013-0.312-3.997-0.62-6.133-0.951c-0.07,0.346-0.148,0.729-0.267,1.309c1.747,0.441,3.375,0.854,5.069,1.281
	c-0.016,0.85-0.685,0.865-1.347,0.831c-2.372-0.124-4.71-0.501-6.924-1.366c-2.3-0.9-4.556-1.914-6.812-2.918
	c-3.078-1.372-5.576-3.544-7.69-6.094c-0.878-1.058-1.335-2.501-1.831-3.826c-0.412-1.097-0.601-2.277-0.932-3.597
	c1.225,0.21,1.232,1.904,2.584,1.486c0.267-1.456-1.14-2.331-1.252-3.783c0.201-0.355,0.467-0.825,0.83-1.467
	c0.488,0.464,0.9,0.856,1.434,1.363h1.597c-0.834-1.199-1.565-2.251-2.311-3.32c0.383-0.691,0.69-1.246,1.033-1.865
	c0.866,0.521,1.425,1.53,2.546,0.932c-0.575-0.976-1.119-1.897-1.691-2.866c0.209-0.537,0.404-1.038,0.64-1.644
	c0.549,0.292,1.007,0.534,1.56,0.828c0.232-0.318,0.437-0.598,0.642-0.878c-0.493-0.694-0.928-1.309-1.401-1.977
	c0.242-0.641,0.471-1.245,0.704-1.864h2.088c-0.542-0.805-0.984-1.459-1.471-2.18c0.129-0.67,0.263-1.364,0.411-2.13h1.583
	c0.312-1.036-0.714-1.342-0.993-2.207c0.066-0.249,0.175-0.653,0.274-1.027c0.655-0.044,1.208-0.083,1.707-0.118
	c0.372-1.403-1.8-1.594-1.108-2.935c0.561-0.31,1.09-0.602,1.803-0.995c-0.581-0.522-0.93-0.837-1.383-1.244
	c0.055-0.442,0.117-0.963,0.201-1.639c0.542,0.228,0.921,0.416,1.318,0.548c2.131,0.711,3.099,0.922,6.408,2.073
	s6.532,2.583,9.856,3.807c3.021,1.112,5.508,3.087,8.175,4.704c0.885,0.537,1.802,1.021,2.758,1.56
	C102.744,121.201,102.081,121.307,101.412,121.335z"/>
<path fill-rule="evenodd" clip-rule="evenodd" fill="#fafd30" class="fill" d="M68.143,88.776c0.66-0.224,1.141-0.387,1.688-0.574
	c0.29,1.201-0.829,1.535-1.008,2.541c0.069,0.203,0.205,0.593,0.359,1.038c0.879-0.37,1.433-1.605,2.563-0.77
	c-0.614,0.883-1.175,1.687-1.799,2.581c0.272,0.654,0.532,1.276,0.807,1.934c0.964-0.451,1.183-1.966,2.673-1.222
	c-0.655,1.043-1.281,2.038-1.926,3.064c0.332,0.518,0.613,0.957,0.93,1.449c0.707-0.451,0.869-1.697,2.155-1.037
	c-0.401,0.913-0.786,1.792-1.21,2.758c0.297,0.367,0.597,0.736,0.909,1.121c0.677-0.354,1.068-1.39,2.048-0.606
	c-0.193,0.587-0.392,1.192-0.636,1.938c0.64,0.211,1.183,0.392,1.724,0.57c0.564-0.777,0.615-2.021,2.065-1.596
	c-0.163,0.693-0.308,1.309-0.491,2.086c0.52,0.188,0.992,0.357,1.442,0.519c0.451-0.636,0.582-1.498,1.606-0.999
	c0.025,0.537,0.053,1.122,0.08,1.712c0.338,0.154,0.627,0.285,0.994,0.452c0.396-0.616,0.469-1.684,1.667-1.149
	c-0.026,0.575-0.054,1.166-0.079,1.723c0.108,0.188,0.209,0.361,0.31,0.533c1.276,0.506,2.513,1.107,3.746,1.72
	c4.011-3.34,7.298-6.765,9.399-11.407c-0.401,0.08-0.556,0.081-0.684,0.141c-1.54,0.723-3.062,1.486-4.619,2.167
	c-0.644,0.281-1.354,0.447-2.052,0.554c-0.705,0.107-1.29-0.119-1.428-1.017c3.064-1.553,6.289-2.914,7.435-6.724
	c-0.804-0.4-1.428-0.71-1.963-0.976c-1.828,0.858-3.482,1.725-5.207,2.421c-1.896,0.767-3.893,0.009-5.238-1.976
	c1.141-0.352,2.252-0.595,3.277-1.041c1.045-0.455,2.027-1.085,2.473-2.437c-2.573-2.089-3.477-5.126-4.27-8.412
	c-0.34,0.378-0.501,0.519-0.617,0.691c-0.58,0.865-1,1.909-1.754,2.575c-1.76,1.557-3.646,2.981-5.559,4.353
	c-0.478,0.343-1.241,0.371-1.877,0.385c-0.691,0.015-1.048-0.434-1.051-1.273c2.359-0.194,4.294-1.28,5.701-3.012
	c1.376-1.697,2.77-3.473,3.344-5.822c-1.236-0.083-1.783,0.747-2.354,1.289c-1.979,1.88-4.447,2.259-6.974,2.495
	c-0.389,0.037-0.809-0.274-1.403-0.493c0.789-0.946,1.557-1.23,2.423-1.486c0.733-0.217,1.74,0.146,2.327-0.907
	c-1.413,0-2.673,0.038-3.931-0.007c-2.921-0.104-5.072-2.325-5.19-5.423c0.275-0.395,0.601-0.86,1.086-1.555
	c0.215,0.597,0.348,0.877,0.416,1.172c0.309,1.318,1.106,2.333,2.268,2.883c1.91,0.905,3.932,1.362,6.076,0.785
	c1.272-0.342,2.557-0.716,3.859-0.842c2.893-0.28,5.799-0.417,8.7-0.606c2.225-0.146,4.211-1.986,4.641-4.31
	c-3.561,3.505-7.456,4.602-10.374,2.743c-0.929-3.149,0.743-6.07,1.192-9.07c1.313-0.773,2.575-0.776,3.817-0.471
	c1.211,0.298,2.535,0.524,3.534,1.194c0.958,0.643,1.562,1.814,2.237,2.648c-0.021-1.346-0.414-2.176-1.678-3.37
	c-1.649-1.559-3.688-2.382-5.826-2.945c-2.266-0.596-4.563-0.522-6.866-0.093c-3.126,0.582-6.261,1.126-9.398,1.643
	c-1.268,0.208-2.213,0.869-3.077,1.768c-1.568,1.63-1.699,3.763-2.066,5.796c-0.46,2.532-0.896,5.076-1.165,7.632
	c-0.183,1.738-0.251,3.532-0.032,5.257C66.553,85.36,67.344,87.125,68.143,88.776z"/>
<path fill-rule="evenodd" clip-rule="evenodd" fill="#fafd30" class="fill" d="M116.726,99.83c0.257-0.363,0.461-0.651,0.731-1.034
	c-0.383-0.12-0.631-0.241-0.892-0.272c-1.646-0.197-3.214-0.621-4.755-1.264c-0.713-0.298-1.608-0.248-2.416-0.215
	c-2.399,0.097-4.797,0.263-7.424,0.416c-0.928,1.955-2.529,3.754-4.255,5.456c-1.366,1.347-2.823,2.616-4.07,4.064
	c-0.898,1.043-2.019,1.659-3.326,2.35c1.125,0.549,2.63,1.273,4.171,1.972s3.884,2.472,5.463,3.566
	c1.802,1.249,3.534,2.608,5.679,3.301c0.979-0.639,1.386-1.491,1.199-2.584c-1.077-0.73-2.643-0.326-3.353-1.77
	c0.456-0.32,0.87-0.611,1.345-0.946c-0.724-0.579-1.358-1.087-2.079-1.662c0.146-0.412,0.279-0.787,0.478-1.344
	c1.243,0.809,2.333,1.517,3.476,2.26c0.269-0.189,0.52-0.366,0.953-0.672c-1.002-0.7-1.882-1.316-2.855-1.998
	c0.123-0.414,0.235-0.787,0.425-1.418c1.337,0.806,2.487,1.499,3.706,2.234c0.378-0.349,0.729-0.673,1.155-1.065
	c-1.052-0.744-2.013-1.426-3.046-2.159c0.186-0.51,0.322-0.884,0.487-1.339c1.339,0.796,2.54,1.511,3.827,2.275
	c0.362-0.524,0.623-0.9,0.891-1.286c-1.02-0.59-1.909-1.104-2.938-1.697c0.192-0.503,0.345-0.904,0.522-1.37
	c1.263,0.605,2.333,1.117,3.477,1.664c0.37-0.526,0.642-0.91,0.999-1.417c-1.165-0.616-2.212-1.171-3.333-1.765
	c0.185-0.455,0.316-0.777,0.508-1.249c1.291,0.524,2.484,1.009,3.736,1.518c0.24-0.418,0.421-0.731,0.642-1.115
	c-0.968-0.45-1.844-0.855-2.86-1.328c0.249-0.472,0.431-0.817,0.634-1.202C114.729,99.125,115.699,99.467,116.726,99.83z"/>
<path fill-rule="evenodd" clip-rule="evenodd" fill="#fafd30" class="fill" d="M110.713,61.942c0.198,0.636,0.343,1.093,0.516,1.644
	c-0.37,0.314-0.73,0.621-1.17,0.995c-0.312-0.498-0.561-0.897-0.889-1.422c-0.392,0.164-0.756,0.317-1.051,0.44
	c-0.251,0.964,1.217,1.799-0.173,2.711c-0.698-2.078-1.877-3.494-4.464-3.243c0.849,2.253,0.648,4.269-0.457,6.155
	c-0.61,1.042-1.729,1.282-2.981,1.53c-0.621-0.3-1.353-0.655-2.138-1.036c-0.104-1.583,0.328-3.29-0.707-4.643
	c-0.922-1.205-2.052-2.251-3.207-3.494c0.065-0.115,0.171-0.431,0.382-0.644c1.699-1.726,3.441-3.397,5.672-4.455
	c0.894-0.423,1.771-0.889,2.618-1.396c0.514-0.307,1.218-0.646,1.374-1.121c0.261-0.791,0.909-0.827,1.626-1.177
	c-0.258-0.727-0.499-1.405-0.712-2.005c-1.505-0.055-1.035,0.974-1.14,1.588c-1.096,0.233-1.696-0.408-2.348-1.372
	c-0.741,0.955-1.34,1.726-1.877,2.419c-0.738-0.079-1.261-0.134-1.782-0.19c-0.167,0.728-0.312,1.355-0.434,1.882
	c-0.848,0.327-1.534-0.793-2.205,0.276c0.155,0.396,0.343,0.878,0.555,1.418c-0.159,0.211-0.318,0.421-0.698,0.924
	c-0.352-0.542-0.643-0.991-1.021-1.572c-0.47,0.28-0.847,0.504-1.256,0.748c0.376,0.664,0.661,1.17,1.022,1.808
	c-0.969,0.357-1.852,0.299-2.646,0.011c-1.957-0.71-3.973-1.356-5.778-2.361c-1.631-0.907-2.971-2.285-3.069-4.659
	c0.724-0.693,1.46-1.601,2.382-2.241c1.936-1.346,3.963-2.535,6.228-3.31c1.813-0.621,3.554-1.454,5.334-2.178
	c1.969-0.8,3.991-1.141,6.129-0.868c1.565,0.2,2.816,0.841,3.776,2.092c0.634,0.827,1.235,1.697,1.975,2.421
	c1.176,1.149,2.533,1.483,4.23,1.048c2.064-0.528,4.202-0.843,6.329-1.027c2.138-0.186,3.804,0.773,4.953,2.645
	c1.069,1.744,2.082,3.494,2.166,5.693c1.181,0.463,2.306,0.868,3.399,1.343c1.001,0.435,1.976,0.935,2.953,1.424
	c0.94,0.472,1.551,1.244,1.782,2.257c0.402,1.762,0.76,3.535,1.115,5.307c0.117,0.586,0.167,1.187,0.235,1.688
	c1.383,1.296,2.879,2.333,3.697,4.374c-0.666-0.117-1.062-0.254-1.449-0.235c-0.405,0.021-0.802,0.192-1.531,0.385
	c0.864,0.626,1.463,1.06,2.198,1.592c-0.257,0.578-0.511,1.152-0.786,1.774c-1.087-0.2-1.742-1.927-3.168-0.666
	c0.759,0.59,1.482,1.154,2.309,1.796c-0.65,0.86-1.06,1.401-1.496,1.979c-1.062-0.403-1.672-1.958-3.172-0.951
	c0.633,0.736,1.213,1.412,1.898,2.212c-0.506,0.58-0.95,1.087-1.473,1.684c-0.539-0.626-0.959-1.113-1.461-1.696
	c-0.348,0.083-0.74,0.177-1.369,0.328c0.557,0.942,1.019,1.722,1.548,2.618c-0.399,0.351-0.796,0.699-1.368,1.203
	c-0.405-0.714-0.74-1.306-1.146-2.02c-0.353,0.081-0.742,0.171-1.31,0.302c0.221,0.892,0.41,1.662,0.643,2.602
	c-1.527,0.988-3.333,0.924-5.116,0.829c-0.871-0.047-1.726-0.342-2.597-0.453c-0.564-0.072-1.145-0.013-1.713-0.013
	c-0.023,1.977,0.664,2.95,2.324,3.451c0.524,0.159,1.065,0.268,1.594,0.418c0.52,0.149,1.033,0.322,1.799,0.562
	c-0.543,0.632-0.982,1.144-1.336,1.555c-1.289,0.203-2.204-1.591-3.625-0.152c0.643,0.524,1.235,1.009,1.836,1.499
	c-2.137,1.688-5.118,1.757-8.031,0.109c0.234-0.611,0.415-1.292,0.74-1.893c1.857-3.432,3.672-6.902,6.381-9.769
	c1.166-1.234,2.476-2.333,3.714-3.5c2.276-2.146,4.56-4.285,6.812-6.457c0.346-0.333,0.541-0.822,0.876-1.35
	c-0.024-0.439-0.054-0.975-0.08-1.438c-1.729-1.046-2.503-0.946-3.568,0.539c-0.829,1.159-1.552,2.395-2.33,3.61
	c-0.525,0.152-1.034,0.299-1.63,0.471c0.055,0.43,0.099,0.785,0.151,1.209c-0.216,0.183-0.461,0.391-0.708,0.6
	c-0.769-0.098-1.56-0.923-2.277,0.195c0.194,0.312,0.408,0.656,0.65,1.045c-0.26,0.247-0.489,0.462-0.712,0.674
	c-0.845-0.349-1.462-1.652-2.619-0.432c0.457,0.535,0.872,1.019,1.463,1.71c-0.426,0.327-0.812,0.622-1.094,0.837
	c-0.73,0-1.324,0-2.209,0c0.382,0.659,0.607,1.047,0.835,1.437c-0.733,0.727-1.468,1.454-2.23,2.21
	c-0.854,0.12-1.936-1.026-2.747,0.457c0.569,0.285,1.083,0.541,1.682,0.839c-0.168,0.309-0.312,0.575-0.44,0.812
	c-1.28,0.257-2.584-1.172-3.929,0.413c1.03,0.353,1.912,0.653,2.98,1.019c-0.346,0.654-0.64,1.211-0.9,1.705
	c-1.171,0.33-2.432-0.784-3.659,0.645c1.089,0.298,1.947,0.533,2.954,0.809c-0.201,0.385-0.36,0.689-0.558,1.064
	c-0.903-0.246-1.74-0.474-2.8-0.763c-0.162,0.103-0.506,0.321-0.885,0.561c0.615,1.176,1.824,1.096,2.736,1.578
	c-2.016,1.346-3.791,1.314-5.525-0.308c-1.194-1.118-2.333-2.369-3.187-3.751c-0.497-0.803-0.683-2.049-0.482-2.984
	c0.595-2.788,1.455-5.519,2.201-8.275c0.819-3.029,2.716-5.41,4.854-7.547c3.12-3.119,6.794-5.551,10.562-7.825
	c0.788-0.476,1.602-0.91,2.444-1.386c-0.037-0.674-0.064-1.205-0.099-1.825c-2.444-1.245-3.249,1.063-4.701,2.032
	c-0.406,0.058-0.887,0.127-1.426,0.205c0,0.42,0,0.789,0,1.295c-0.378,0.326-0.824,0.712-1.358,1.174
	c-0.392-0.413-0.712-0.75-1.082-1.14C111.467,61.686,111.173,61.785,110.713,61.942z M115.206,79.064
	c-1.282,0.136-2.471,0.253-3.657,0.39c-2.627,0.305-3.933-0.949-3.693-3.586c0.062-0.676,0.131-1.319-0.593-1.67
	c-0.812,0.069-0.993,0.593-1.111,1.241c-0.438,2.394,0.755,4.707,3.157,5.944c1.664,0.858,3.386,0.888,5.074,0.079
	C115.342,81.001,115.469,80.575,115.206,79.064z M94.983,53.034c0.354-1.658-0.3-2.885-1.661-3.588
	c-1.762-0.911-3.678-0.606-4.838,0.777c0.37,0.709,1.062,0.721,1.699,0.677c1.229-0.085,2.216,0.429,3.175,1.088
	C93.832,52.315,94.324,52.612,94.983,53.034z M114.154,70.542c1.064,0.511,1.807,0.916,2.588,1.226
	c0.735,0.292,1.025,1.547,2.163,1.058C118.275,70.782,116.268,69.666,114.154,70.542z"/>
<path fill-rule="evenodd" clip-rule="evenodd" fill="#fafd30" class="fill" d="M88.136,65.175c1.921-0.142,3.632,0.166,5.168,1.064
	c1.422,0.832,1.782,2.762,0.879,4.204c-0.286,0.456-0.655,0.925-1.101,1.202c-1.817,1.127-3.756,1.673-5.959,1.033
	C86.413,70.012,87.609,67.737,88.136,65.175z"/>
</svg>
