<svg version="1.1" id="svg" xmlns="http://www.w3.org/2000/svg" xmlns:xlink="http://www.w3.org/1999/xlink" x="0px" y="0px"
	 width="200px" height="200px" viewBox="0 0 200 200" enable-background="new 0 0 200 200" xml:space="preserve">
<path class="stroke" fill="#51575c"  fill-rule="evenodd" clip-rule="evenodd" d="M196.148,75.34c0.151,10.941,1.165,21.731,1.316,32.643
	c-1.438,0.127-2.513,0.256-3.59,0.311c-1.722,0.086-3.446,0.146-5.171,0.178c-3.606,0.065-7.214,0.125-10.821,0.146
	c-3.056,0.02-6.111-0.055-9.166-0.021c-3.456,0.037-6.914,0.093-10.367,0.245c-4.285,0.19-8.565,0.521-12.851,0.692
	c-0.486,0.02-1.143-0.49-1.472-0.938c-1.017-1.379-1.913-2.848-2.885-4.326c-0.102-5.025-0.158-10.217-0.326-15.403
	c-0.165-5.155-0.444-10.308-0.875-15.543c0.043,3.946-1.515,6.937-5.095,8.851c-0.482,28.272-0.966,56.553-1.448,84.739
	c1.027,1.241,1.326,2.552,0.979,4.391c-2.749,0-5.536-0.039-8.321,0.009c-4.137,0.072-8.271,0.212-12.408,0.309
	c-0.883,0.022-1.77-0.002-2.654-0.018c-7.021-0.121-14.045-0.32-21.067-0.343c-4.5-0.014-9,0.231-13.5,0.36
	c-2.894,0.082-5.786,0.197-8.68,0.238c-2.81,0.04-5.621,0.041-8.431-0.006c-7.56-0.129-15.118-0.277-22.678-0.445
	c-4.959-0.111-9.917-0.301-14.877-0.396c-4.05-0.078-8.102-0.042-12.151-0.111c-1.478-0.024-2.953-0.203-4.623-0.327
	c-1.432-1.154-1.178-3.058-1.252-4.661c-0.143-3.08,0.147-6.179,0.206-9.271c0.095-4.966,0.125-9.934,0.229-14.9
	c0.051-2.412,0.238-4.818,0.317-7.23c0.206-6.386,0.432-12.771,0.56-19.158c0.081-4.092-0.073-8.189,0.021-12.281
	c0.066-2.867,0.404-5.728,0.559-8.594c0.107-1.998,0.07-4.006,0.172-6.006c0.088-1.712,0.28-3.42,0.427-5.135
	c-3.431-1.894-4.233-5.131-4.587-8.629C1.514,73.475,1.254,72.254,1,70.687c3.559-9.149,7.232-18.594,10.953-28.162
	c-0.088-0.183-0.238-0.494-0.436-0.9c0.641-0.521,1.28-1.04,2.064-1.677c0.351,0.25,0.741,0.525,1.082,0.768
	c3.883-0.363,7.748-0.823,11.627-1.058c2.715-0.163,5.447,0.017,8.172-0.018c4.885-0.059,9.768-0.165,14.652-0.244
	c5.979-0.097,11.96-0.199,17.94-0.273c5.017-0.062,10.034-0.164,15.051-0.104c5.253,0.061,10.507,0.239,15.756,0.465
	c6.535,0.281,13.065,0.7,19.6,0.988c4.37,0.191,8.745,0.256,13.254,0.38c0.409,1.4,0.805,2.753,1.173,4.015
	c3.559,0.166,6.917,0.411,10.278,0.453c2.601,0.033,5.206-0.313,7.806-0.269c5.871,0.102,11.74,0.369,17.611,0.51
	c2.813,0.067,5.63,0.028,8.444-0.013c4.477-0.065,8.953-0.237,13.43-0.236c2.567,0.001,5.133,0.257,7.699,0.396
	c0.54,0.029,1.081,0.048,1.812,0.081c0,1.287,0.084,2.52-0.022,3.735c-0.123,1.401-1.258,2.142-2.659,2.048
	c-1.391-0.094-2.791-0.079-4.186-0.061c-1.109,0.015-2.219,0.105-3.428,0.17c0,1.23,0,2.463,0,3.793
	c1.931,0.407,4.236-0.345,5.433,1.965c0.399,0.223,0.854,0.476,1.451,0.81C195.754,63.92,195.951,69.631,196.148,75.34z
	 M180.639,51.833c-9.169,0.142-18.306,0.284-27.588,0.429c0,1.203,0,2.083,0,2.92c9.248,0.17,18.35,0.337,27.588,0.506
	C180.639,54.441,180.639,53.254,180.639,51.833z M140.1,69.449c0.091-0.05,0.181-0.099,0.27-0.148
	c-0.118-3.041-0.191-6.086-0.374-9.123c-0.101-1.689,0.082-3.271,1.032-4.929c0.957,0.1,1.953,0.202,3.073,0.319
	c-0.13-0.965-0.249-1.852-0.388-2.88c-3.139,0-6.125,0-9.353,0c0.525,1.688,1.037,3.331,1.549,4.974
	c0.179,0.508,0.554,0.963,0.713,1.484c0.948,3.078,1.831,6.176,2.775,9.256C139.516,68.787,139.86,69.102,140.1,69.449z"/>
<path fill-rule="evenodd" clip-rule="evenodd" fill="#f7dad4" class="fill" d="M53.561,101.402c0,2.104,0.011,3.862-0.001,5.621
	c-0.026,3.927-0.077,7.854-0.094,11.781c-0.017,4.202-0.059,8.405,0.006,12.607c0.065,4.277,0.298,8.553,0.356,12.83
	c0.029,2.078-0.186,4.16-0.27,6.242c-0.166,4.107-0.319,8.215-0.479,12.344c-13.482-0.496-26.982,0.385-40.439-0.598
	c-0.24-21.012-0.479-41.814-0.719-62.689C25.81,100.162,39.587,100.777,53.561,101.402z M48.951,131.72
	c0.147-1.368,0.384-2.56,0.388-3.753c0.015-4.436-0.093-8.871-0.063-13.307c0.021-2.961,0.204-5.92,0.296-8.881
	c0.029-0.922-0.225-1.747-1.302-1.842c-2.041-0.181-4.088-0.312-6.134-0.405c-1.282-0.06-2.57,0.01-3.854-0.016
	c-3.808-0.073-7.615-0.162-11.422-0.253c-2.609-0.062-5.218-0.153-7.828-0.199c-0.827-0.014-1.656,0.077-2.485,0.121
	c-0.231-0.441-0.413-0.785-0.665-1.267c-0.485,0.131-0.952,0.258-1.251,0.339c0,3.021-0.055,5.842,0.012,8.661
	c0.131,5.538,0.308,11.075,0.518,16.61c0.046,1.186,0.321,2.362,0.514,3.707c1.054,0.168,1.985,0.438,2.918,0.441
	c2.046,0.011,4.092-0.118,6.138-0.18c3.081-0.093,6.162-0.25,9.243-0.244c3.802,0.008,7.604,0.145,11.405,0.248
	C46.557,131.533,47.734,131.643,48.951,131.72z M51.672,136.355c-1.341-1.941-3.99-2.156-5.723-0.816
	c-0.968,0.75-1.502,1.682-1.208,2.926c0.298,1.266,1.247,2.064,2.685,2.221c1.215,0.133,2.477,0.217,3.07-1.215
	C50.952,138.371,51.34,137.242,51.672,136.355z"/>
<path fill-rule="evenodd" clip-rule="evenodd" fill="#f7dad4" class="fill" d="M18.674,76.744c0.588,1.38,1.096,2.677,1.686,3.934
	c1.369,2.918,4.275,4.363,7.43,3.896c2.543-0.376,4.894-1.179,6.918-2.763c0.677-0.529,1.254-1.249,1.711-1.984
	c0.879-1.42,1.641-2.913,2.486-4.44c0.633,1.683,1.099,3.305,1.836,4.793c1.166,2.357,4.701,3.648,7.172,2.71
	c2.05-0.779,4.062-1.655,6.16-2.517c-0.152,5.133-0.311,10.445-0.464,15.566c-14.021,0.91-27.877-0.307-41.864-2.06
	c0-1.118-0.019-2.105,0.004-3.092c0.042-1.892,0.125-3.782,0.155-5.674c0.016-1.021,0.208-1.88,1.275-2.344
	c2.25-0.979,3.657-2.801,4.77-4.903C18.146,77.49,18.41,77.148,18.674,76.744z"/>
<path fill-rule="evenodd" clip-rule="evenodd" fill="#f7dad4" class="fill" d="M45.786,41.523c-2.346,9.484-4.643,18.776-6.962,28.158
	c-5.902,0.297-11.643,1.5-17.682,1.109c0.377-1.395,0.657-2.547,1.002-3.678c1.568-5.164,3.154-10.322,4.735-15.481
	c0.035-0.115,0.126-0.229,0.121-0.34c-0.133-3.211,1.958-5.638,2.976-8.442c0.137-0.375,0.285-0.745,0.506-1.326
	C35.4,41.523,40.398,41.523,45.786,41.523z"/>
<path fill-rule="evenodd" clip-rule="evenodd" fill="#f7dad4" class="fill" d="M64.401,166.604c-1.289-7.944,0.276-15.592-0.198-23.317
	c0.354-0.085,0.613-0.202,0.874-0.201c5.694,0.015,11.389,0.088,17.083,0.047c2.446-0.018,4.893-0.407,7.336-0.375
	c3.006,0.038,6.006,0.412,9.015,0.508c2.603,0.082,5.212-0.016,7.818-0.048c3.136-0.04,6.272-0.11,9.407-0.137
	c3.782-0.033,7.563-0.023,11.345-0.058c0.907-0.008,1.812-0.113,2.887-0.186c0.318,8.067,0.772,15.971,0.179,23.925
	c-4.461-0.154-8.769-0.337-13.077-0.446c-5.374-0.137-10.75-0.181-16.124-0.339c-2.043-0.062-4.078-0.375-6.121-0.485
	c-1.074-0.058-2.16,0.07-3.24,0.12c-7.144,0.33-14.283,0.681-21.428,0.979C68.163,166.674,66.163,166.604,64.401,166.604z
	 M126.208,145.085c-0.6-0.054-1.44-0.181-2.282-0.19c-4.245-0.043-8.49-0.053-12.734-0.083c-1.926-0.014-3.86-0.176-5.775-0.046
	c-3.964,0.269-7.911,0.833-11.877,1.005c-4.287,0.187-8.587,0.024-12.881,0.091c-2.807,0.044-5.611,0.266-8.419,0.334
	c-1.526,0.037-3.056-0.101-4.583-0.119c-0.402-0.004-0.807,0.147-1.261,0.236c-0.133,5.48-0.262,10.81-0.394,16.251
	c0.562,0.248,0.954,0.534,1.377,0.589c1.628,0.211,3.263,0.365,4.898,0.508c6.869,0.604,13.729,0.176,20.59-0.196
	c2.283-0.124,4.564-0.312,6.849-0.363c3.772-0.087,7.548-0.104,11.322-0.12c4.935-0.023,9.868-0.021,14.803-0.019
	c0.543,0,1.085,0.071,1.786,0.121c0.15-0.709,0.399-1.32,0.389-1.927c-0.063-3.574-0.131-7.15-0.315-10.719
	C127.607,148.651,128.33,146.64,126.208,145.085z"/>
<path fill-rule="evenodd" clip-rule="evenodd" fill="#f7dad4" class="fill" d="M60.446,69.324c0.705-9.481,1.403-18.888,2.112-28.43
	c4.798,0,9.311,0,13.816,0c-0.383,9.666-0.759,19.196-1.141,28.84C70.248,69.621,65.379,70.323,60.446,69.324z"/>
<path fill-rule="evenodd" clip-rule="evenodd" fill="#f7dad4" class="fill" d="M110.812,68.951c-4.829,0.146-9.344,0.282-13.953,0.421
	c-0.652-9.405-1.29-18.612-1.937-27.93c4.107,0.139,7.903,0.267,11.634,0.392C107.98,50.912,109.392,59.906,110.812,68.951z"/>
<path fill-rule="evenodd" clip-rule="evenodd" fill="#f7dad4" class="fill" d="M119.967,42.588c3.248,0,6.238,0,9.375,0
	c2.231,9.33,6.414,17.938,8.488,27.264c-3.417,0-6.616,0-10.09,0C125.151,60.771,122.572,51.725,119.967,42.588z"/>
<path fill-rule="evenodd" clip-rule="evenodd" fill="#f7dad4" class="fill" d="M60.057,81.191c1.591,0.614,2.322,1.492,2.287,3.08
	c-0.123,5.568-0.224,11.141-0.212,16.711c0.012,5.415,0.202,10.828,0.258,16.244c0.074,7.383,0.148,14.767,0.12,22.15
	c-0.018,4.499-0.273,8.995-0.336,13.494c-0.061,4.522-0.012,9.046-0.012,13.844c-0.986,0.059-1.976,0.117-3.248,0.192
	c0-2.816-0.042-5.433,0.01-8.046c0.099-5.039,0.275-10.076,0.37-15.115c0.052-2.749-0.013-5.5-0.002-8.25
	c0.012-3.141,0.085-6.281,0.066-9.422c-0.026-4.526-0.183-9.053-0.152-13.578c0.029-4.741,0.215-9.481,0.331-14.223
	c0.127-5.181,0.252-10.362,0.385-15.544C59.935,82.26,60.002,81.792,60.057,81.191z"/>
<path fill-rule="evenodd" clip-rule="evenodd" fill="#f7dad4" class="fill" d="M93.686,71.654c-1.172,2.211-2.404,4.393-3.498,6.642
	c-0.864,1.776-2.301,2.491-4.133,2.852c-2.848,0.561-6.67-1.411-7.7-4.117c-0.426-1.121-0.845-2.247-1.177-3.398
	c-0.155-0.546-0.095-1.153-0.144-1.903c5.538-0.206,10.898-0.406,16.258-0.606C93.423,71.299,93.555,71.478,93.686,71.654z"/>
<path fill-rule="evenodd" clip-rule="evenodd" fill="#f7dad4" class="fill" d="M196.193,47.244c0,0.824,0,1.247,0,1.527
	c-19.874,0.311-39.657,0.618-59.704,0.931c-0.226-0.663-0.532-1.562-0.862-2.531c2.239,0,4.2,0.021,6.161-0.006
	c2.275-0.029,4.55-0.132,6.825-0.146c4.057-0.023,8.115-0.061,12.171,0.016c3.403,0.062,6.803,0.318,10.206,0.415
	c2.965,0.085,5.935,0.121,8.901,0.084c3.614-0.046,7.228-0.205,10.841-0.284C192.52,47.211,194.308,47.244,196.193,47.244z"/>
<path fill-rule="evenodd" clip-rule="evenodd" fill="#f7dad4" class="fill" d="M40.176,71.533c5.264,0,10.286,0,15.295,0
	c0.562,4.287-2.673,7.84-8.686,9.875c-3.448-0.074-4.812-2.043-5.368-4.912C41.116,74.938,40.652,73.412,40.176,71.533z"/>
<path fill-rule="evenodd" clip-rule="evenodd" fill="#f7dad4" class="fill" d="M3.331,72.213c4.983,0.266,9.81,0.522,14.808,0.789
	c-0.285,0.828-0.595,1.782-0.941,2.725c-1.357,3.702-3.932,5.936-7.922,6.207c-1.763,0.12-3.308-0.603-4.281-2.199
	C3.629,77.493,3.459,74.983,3.331,72.213z"/>
<path fill-rule="evenodd" clip-rule="evenodd" fill="#f7dad4" class="fill" d="M113.661,72.669c4.668,0,9.016,0,13.397,0
	c-0.312,3.673-2.613,6.106-5.732,7.755c-2.133,1.127-5.857-0.898-6.703-3.475C114.16,75.543,113.963,74.049,113.661,72.669z"/>
<path fill-rule="evenodd" clip-rule="evenodd" fill="#f7dad4" class="fill" d="M184.025,55.715c0-0.854,0-1.517,0-2.319
	c0.754-0.293,1.52-0.591,2.395-0.93c0.188,0.999,0.351,1.871,0.557,2.966C185.941,55.531,185.029,55.618,184.025,55.715z"/>
<path fill-rule="evenodd" clip-rule="evenodd" fill="#f7dad4" class="fill" d="M150.992,55.747c-1.32-0.134-2.527-0.257-3.706-0.376
	c-0.224-1.292,1.442-2.095,3.706-1.833C150.992,54.171,150.992,54.818,150.992,55.747z"/>
<path fill-rule="evenodd" clip-rule="evenodd" fill="#f7dad4" class="fill" d="M16.401,105.366c10.536-0.001,20.878,0.028,31.397,0.782
	c0,7.928,0,15.686,0,23.605c-10.125-1.091-20.12,0.502-30.432-0.036c-0.124-1.168-0.31-2.331-0.36-3.501
	c-0.224-5.135-0.425-10.269-0.597-15.404C16.352,109.059,16.401,107.301,16.401,105.366z"/>
<path fill-rule="evenodd" clip-rule="evenodd" fill="#f7dad4" class="fill" d="M50.195,137.685c-0.61,0.471-1.175,1.218-1.844,1.328
	c-0.605,0.101-1.326-0.495-1.976-0.776c0.324-1.256,0.849-1.855,1.785-1.989C49.005,136.127,49.645,136.443,50.195,137.685z"/>
<path fill-rule="evenodd" clip-rule="evenodd" fill="#f7dad4" class="fill" d="M68.035,147.968c1.273,0,2.264,0.021,3.254-0.004
	c2.763-0.071,5.524-0.183,8.288-0.237c2.599-0.053,5.202,0.019,7.798-0.092c4.563-0.193,9.137-0.339,13.682-0.773
	c4.738-0.454,9.453-0.414,14.191-0.172c2.279,0.116,4.574-0.123,6.861-0.102c1.216,0.01,2.43,0.232,3.684,0.363
	c0.164,4.783,0.321,9.335,0.479,13.936c-0.503,0.048-0.784,0.131-1.046,0.091c-3.932-0.612-7.848,0.133-11.772,0.132
	c-4.374-0.001-8.749,0.065-13.122,0.148c-2.411,0.045-4.821,0.18-7.231,0.287c-1.72,0.076-3.438,0.219-5.158,0.254
	c-4.166,0.087-8.333,0.206-12.499,0.156c-2.398-0.029-4.795-0.362-7.408-0.576C68.035,156.934,68.035,152.521,68.035,147.968z"/>
<path fill-rule="evenodd" clip-rule="evenodd" fill="#f7dad4" class="fill" d="M127.716,76.877c-0.966,1.041-1.787,2.096-2.781,2.95
	c-1.103,0.948-2.27,2.224-3.573,2.464c-3.873,0.714-7.852-1.309-8.934-5.651c-0.097-0.387-0.231-0.764-0.345-1.133
	c-0.988,1.362-1.81,2.713-2.844,3.874c-2.423,2.722-6.048,3.346-9.028,1.131c-2.231-1.658-4.2-3.502-5.027-6.277
	c-0.052-0.177-0.206-0.321-0.372-0.568c-0.724,1.395-1.278,2.791-2.115,3.992c-1.042,1.495-2.071,3.225-3.549,4.139
	c-2.247,1.391-4.884,1.613-7.536,0.665c-2.438-0.872-4.4-2.126-5.117-4.8c-0.155-0.578-0.483-1.108-0.732-1.66
	c-0.126-0.031-0.253-0.062-0.379-0.095c-0.483,2.696-2.343,4.257-4.431,5.499c-2.059,1.225-4.228,2.326-7.008,1.997
	c0.251,13.966-0.106,27.793,0.743,41.664c1.852-0.134,1.775-0.378,5.371-0.388c0.996-0.003,4.231,0.149,8.48,0.373
	c-0.193-0.568-0.359-1.193-0.503-1.892c-0.121-0.586-0.234-1.173-0.374-1.876c-3.054,1.465-6.22,1.726-9.53,2.404
	c0.392-6.285,3.376-10.713,8.222-14.153c-2.393,0.187-4.696,0.771-7.202,0.146c-0.406-3.078-1.506-6.15,1.344-8.718
	c-0.425-0.884-0.835-1.737-1.253-2.606c2.259-3.513,5.385-5.494,9.469-6.498c0.906,0.949,1.876,1.964,2.938,3.076
	c1.023,0,2.216,0,3.529,0c-1.004-1.263-2.966-1.607-2.882-3.573c0.886-1.03,2.042-0.913,3.134-0.731
	c1.097,0.181,2.159,0.557,3.243,0.848c2.16-2.004,4.123-4.164,7.037-5.367c0.723,1.765,0.001,3.385-0.084,5.006
	c1.822,0.363,3.593,0.717,5.551,1.108c2.205-1.65,4.631-3.054,6.985-0.626c1.641,0.41,2.944,0.734,4.218,1.052
	c0.459,1.071,0.837,1.95,1.219,2.841c3.825-1.314,7.473-3.575,12.058-2.775c0,0.744,0.06,1.342-0.01,1.922
	c-0.36,2.981-1.506,5.558-3.749,7.654c-1.271,1.186-2.46,2.438-4.016,3.264c-0.252,0.135-0.449,0.369-0.908,0.758
	c2.803,0.368,4.819,1.834,6.895,3.17c2.103,1.352,3.964,2.94,5.043,5.264c-2.993,2.155-10.653,1.038-16.295-2.325
	c0.08,0.739,0.61,0.929,1.02,1.243c3.611,2.788,5.287,6.447,4.999,10.986c-1.638,0.586-3.325,0.275-9.269-1.68
	c-0.161,0.839-0.243,1.693-0.506,2.488c-0.143,0.43-0.396,0.857-0.702,1.213c1.275,0.062,2.249,0.105,2.808,0.121
	c4.625,0.125,19.688-0.612,19.688-0.612c0.146-15.013,0.292-29.759,0.438-44.638C129.117,80.779,128.486,78.785,127.716,76.877z"/>
<path fill-rule="evenodd" clip-rule="evenodd" fill="#f7dad4" class="fill" d="M129.805,128.33c-7.122,0.018-15.556,0.363-21.363,0.081
	c-0.926-0.045-1.758-0.077-2.53-0.103c-1.644,0.814-3.481,1.104-5.339,1.244c-3.811,0.287-7.633,0.436-11.454,0.572
	c-1.371,0.049-2.78,0.051-4.118-0.207c-2.977-0.573-4.662-1.504-5.717-3.233c-3.362-0.198-6.189-0.326-7.704-0.327
	c-3.925,0-4.547,0.289-7.08,0.449v14.316c0.965,0.112,1.871,0.293,2.781,0.307c2.935,0.046,5.87,0.064,8.806,0.025
	c3.055-0.039,6.109-0.184,9.164-0.232c2.848-0.045,5.697-0.074,8.544-0.024c4.325,0.076,8.648,0.315,12.972,0.324
	c4.211,0.009,8.421-0.218,12.631-0.278c3.519-0.051,7.038-0.011,10.825-0.011v-12.854
	C130.123,128.367,129.964,128.33,129.805,128.33z"/>
<path fill-rule="evenodd" clip-rule="evenodd" fill="#f7dad4" class="fill" d="M90.171,125.471c0.809-0.191,1.341-0.282,1.849-0.449
	c0.477-0.158,0.926-0.395,1.439-0.619c0.601,0.641,1.179,1.258,1.777,1.898c2.073-0.631,3.219-2.244,4.607-3.689
	c0.409,0.114,0.824,0.23,1.482,0.412c-0.814,1.72-1.565,3.305-2.377,5.016c-4.781,0.242-9.579,0.664-14.198-0.498
	c-1.914-3.395-2.763-8.924-1.773-11.02c1.295,1.256,1.308,1.264,2.612,1.43c0.257-0.367,0.537-0.771,0.871-1.251
	c0.581,0.282,1.12,0.544,1.413,0.687C88.659,120.148,89.378,122.678,90.171,125.471z"/>
<path fill-rule="evenodd" clip-rule="evenodd" fill="#f7dad4" class="fill" d="M88.484,98.787c-0.055-0.01-0.258-0.027-0.449-0.08
	c-0.142-0.039-0.271-0.125-0.434-0.203c-0.095-1.648,1.078-2.654,2.07-3.906c-0.749-0.412-1.413-0.777-2.076-1.143
	c0.028-0.094,0.058-0.188,0.086-0.281c0.899,0.095,1.799,0.189,2.679,0.282c0.949-1.788,1.851-3.417,3.559-4.552
	c-0.212,1.363-0.425,2.725-0.664,4.266c1.587,0.059,3.241-0.854,4.89,0.473c-1.413,0.465-2.7,0.887-4.165,1.369
	c0.864,1.738,2.84,1.953,3.622,3.541c-2.039,0.167-3.016-1.641-4.769-2.246C91.542,97.043,90.138,97.844,88.484,98.787z"/>
<path fill-rule="evenodd" clip-rule="evenodd" fill="#f7dad4" class="fill" d="M115.689,105.286c-0.863-0.437-1.538-0.778-2.438-1.231
	c2.941-3.721,6.044-7.027,10.239-9.241c-0.415,2.103-1.062,4.077-2.189,5.865C119.949,102.826,117.815,104.013,115.689,105.286z"/>
<path fill-rule="evenodd" clip-rule="evenodd" fill="#f7dad4" class="fill" d="M105.166,96.32c0.432,1.506-0.259,2.738-0.706,4.125
	c-2.087,1.154-4.236,1.338-6.499,0.466C98.85,97.107,102.48,94.795,105.166,96.32z"/>
<path fill-rule="evenodd" clip-rule="evenodd" fill="#f7dad4" class="fill" d="M90.404,117.895c2.882,0.324,3.284-1.639,3.618-3.775
	c0.604,0.096,1.123,0.18,1.604,0.257c0.64,3.37-1.312,7.866-3.923,8.923C91.109,121.6,90.201,120.006,90.404,117.895z"/>
<path fill-rule="evenodd" clip-rule="evenodd" fill="#f7dad4" class="fill" d="M70.943,106.108c-0.576-1.379-0.104-2.478,0.382-3.55
	c2.106-0.508,4.139-1.188,6.333-0.223c-0.236,0.905-0.463,1.768-0.712,2.721C75.053,105.633,73.119,106.146,70.943,106.108z"/>
<path fill-rule="evenodd" clip-rule="evenodd" fill="#f7dad4" class="fill" d="M104.532,103.788c-0.918-0.308-1.904-0.386-2.655-1.283
	c1.06-0.413,2.033-0.794,3.166-1.235c0.443-1.037,0.917-2.145,1.38-3.228c1.065,0,2.071,0,3.22,0
	c0.148,0.479,0.291,0.938,0.399,1.284c-0.51,1.174-0.952,2.197-1.417,3.269C107.006,102.086,105.799,103.033,104.532,103.788z"/>
<path fill-rule="evenodd" clip-rule="evenodd" fill="#f7dad4" class="fill" d="M112.47,103.066c-0.898-0.533-1.153-1.311-1.063-2.402
	c2.133-2.873,5.08-4.665,8.801-5.348C117.655,97.873,115.104,100.43,112.47,103.066z"/>
<path fill-rule="evenodd" clip-rule="evenodd" fill="#f7dad4" class="fill" d="M77.309,94.039c0.632,0.666,1.175,1.24,1.863,1.965
	c-2.14,0.946-3.739,2.211-4.628,4.242c-0.479,0-0.927,0-1.462,0c-0.349-0.606-0.698-1.213-1.109-1.926
	C73.025,96.052,74.981,94.982,77.309,94.039z"/>
<path fill-rule="evenodd" clip-rule="evenodd" fill="#f7dad4" class="fill" d="M77.633,115.566c-0.05,0.391-0.1,0.781-0.159,1.258
	c0.292,0.193,0.616,0.408,0.925,0.611c0.452,1.498-4.07,4.066-6.979,3.861c1.813-2.289,3.591-4.42,5.956-5.967
	C77.461,115.408,77.547,115.487,77.633,115.566z"/>
<path fill-rule="evenodd" clip-rule="evenodd" fill="#f7dad4" class="fill" d="M103.197,109.027c-1.507-0.65-1.623-1.207-0.582-2.92
	c0.831,0,1.724,0,2.734,0c-0.029-0.475-0.054-0.845-0.092-1.449c0.537-0.385,1.168-0.836,1.857-1.328
	c0.326,0.368,0.545,0.617,0.815,0.922c0.887,0.011,1.899-0.908,2.815,0.241c0.326,1.044-0.576,1.526-1.274,2.337
	c-0.507-0.418-0.98-0.812-1.659-1.373c-0.781-0.297-1.504,0.137-2.086,1.047C104.246,106.657,103.212,107.342,103.197,109.027z"/>
<path fill-rule="evenodd" clip-rule="evenodd" fill="#f7dad4" class="fill" d="M70.509,120.332c0.737-2.586,1.339-5.162,3.802-6.912
	c0.954,0,2.095,0,3.238,0C75.191,115.734,72.85,118.033,70.509,120.332z"/>
<path fill-rule="evenodd" clip-rule="evenodd" fill="#f7dad4" class="fill" d="M115.49,110.045c2.879,2.059,6.268,2.344,9.548,2.965
	c0.575,0.108,1.076,0.192,1.372,0.923c-0.389,0.056-0.711,0.14-1.034,0.143c-2.887,0.026-5.671-0.429-8.288-1.729
	C116.176,111.891,115.469,111.336,115.49,110.045z"/>
<path fill-rule="evenodd" clip-rule="evenodd" fill="#f7dad4" class="fill" d="M103.218,117.82c1.195-0.061,2.215-0.031,3.204-0.193
	c0.605-0.1,1.162-0.492,1.912-0.832c0.557,0.193,0.788,0.695,0.566,1.523c-0.545,0.094-1.079,0.188-1.655,0.287
	c-0.229,0.379-0.462,0.764-0.737,1.219c-0.622,0.182-1.287,0.375-2.103,0.613c-0.331-0.73-0.61-1.348-0.948-2.092
	c-0.611,0.408-1.21,0.806-1.801,1.199c-0.9-1.133-0.803-1.516,0.613-2.572C102.582,117.253,102.906,117.543,103.218,117.82z"/>
<path fill-rule="evenodd" clip-rule="evenodd" fill="#f7dad4" class="fill" d="M81.197,96.906c1.988-0.312,3.737-0.793,5.394,0.527
	c-0.137,0.406-0.26,0.776-0.356,1.062c-1.421,0.416-2.73,0.799-4.192,1.227C81.778,98.844,81.509,97.945,81.197,96.906z"/>
<path fill-rule="evenodd" clip-rule="evenodd" fill="#f7dad4" class="fill" d="M84.173,110.086c0.187-0.423,0.354-0.807,0.57-1.301
	c-0.502-0.154-0.969-0.299-1.436-0.444c0.005-0.063,0.011-0.128,0.015-0.192c0.401-0.039,0.803-0.08,1.334-0.132
	c-0.197-0.534-0.351-0.946-0.586-1.583c0.39,0.191,0.608,0.298,1.006,0.492c0.838-0.244,1.826-0.533,2.989-0.871
	c-0.306,0.447-0.536,0.783-0.827,1.21c0.354,0.149,0.664,0.282,1.034,0.438c-0.139,0.252-0.272,0.496-0.431,0.782
	c0.189,0.317,0.39,0.653,0.782,1.312c-0.654-0.319-0.999-0.487-1.469-0.717c-0.175,0.491-0.329,0.925-0.54,1.519
	c-0.33-0.49-0.592-0.877-0.818-1.215C85.061,109.254,85.112,110.518,84.173,110.086z"/>
<path fill-rule="evenodd" clip-rule="evenodd" fill="#f7dad4" class="fill" d="M110.164,111.957c-0.987-0.412-1.784-0.746-2.809-1.176
	c0.661-0.194,1.111-0.326,1.389-0.408c1.309-0.684,0.305-1.898,0.882-2.699c1.297-0.393,2.252,0.043,3.004,1.145
	c-0.25,0.97-1.132,1.08-1.91,1.469c0,0.346,0,0.727,0,1.184C110.535,111.633,110.311,111.83,110.164,111.957z"/>
<path fill-rule="evenodd" clip-rule="evenodd" fill="#f7dad4" class="fill" d="M110.058,113.797c0.362,0.191,0.772,0.389,1.159,0.625
	c0.113,0.068,0.157,0.248,0.291,0.477c-0.973,1.449-2.276,0.631-3.569,0.59c0-0.682,0-1.264,0-1.9
	c-0.917-0.248-1.75-0.475-2.804-0.76c1.208-1.055,2.247-0.717,3.356-0.465c0.048,0.537,0.091,1.021,0.142,1.59
	C109.136,113.898,109.57,113.852,110.058,113.797z"/>
<path fill-rule="evenodd" clip-rule="evenodd" fill="#f7dad4" class="fill" d="M109.115,95.01c0,0.627,0,1.23,0,2.084
	c-0.959-0.064-1.726-0.115-2.247-0.15c-0.656-0.936-1.156-1.648-1.653-2.358C106.096,93.863,106.096,93.863,109.115,95.01z"/>
<path fill-rule="evenodd" clip-rule="evenodd" fill="#f7dad4" class="fill" d="M104.121,112.427c-0.633,1.143-1.127,2.034-1.791,3.233
	c-0.501,0.07-1.363,0.193-2.287,0.324c-0.053-1.511,1.099-1.631,1.916-2.138c-0.148-0.991-0.015-1.849,1.364-2.028
	C103.578,112.013,103.924,112.276,104.121,112.427z"/>
<path fill-rule="evenodd" clip-rule="evenodd" fill="#f7dad4" class="fill" d="M110.7,121.176c0.211-0.541,0.404-1.039,0.622-1.6
	c1.904,0.758,2.993,2.256,4.389,3.479C114.302,123.248,112.503,122.582,110.7,121.176z"/>
<path fill-rule="evenodd" clip-rule="evenodd" fill="#f7dad4" class="fill" d="M122.674,111.17c-2.539-0.061-4.664-0.875-6.645-2.479
	C117.427,108.258,120.451,109.348,122.674,111.17z"/>
<path fill-rule="evenodd" clip-rule="evenodd" fill="#f7dad4" class="fill" d="M91.119,114.711c-2.189-0.529-3.383-2.1-3.289-3.779
	c0.634-0.482,1.188-0.236,1.52,0.342C89.991,112.389,90.535,113.562,91.119,114.711z"/>
<path fill-rule="evenodd" clip-rule="evenodd" fill="#f7dad4" class="fill" d="M89.514,109.061c2.244,0.002,3.691,1.416,5.485,2.586
	C92.565,111.899,90.114,110.738,89.514,109.061z"/>
<path fill-rule="evenodd" clip-rule="evenodd" fill="#f7dad4" class="fill" d="M80.497,101.869c1.851,0.51,3.079,1.523,3.96,3.197
	c-0.457,0.178-0.903,0.352-1.337,0.521C81.756,104.707,81.045,103.469,80.497,101.869z"/>
<path fill-rule="evenodd" clip-rule="evenodd" fill="#f7dad4" class="fill" d="M77.511,106.004c1.673,0.201,3.346,0.403,5.06,0.609
	c-0.924,1.773-3.378,1.609-5.127-0.239C77.465,106.25,77.488,106.127,77.511,106.004z"/>
<path fill-rule="evenodd" clip-rule="evenodd" fill="#f7dad4" class="fill" d="M113.917,117.447c1.778,1.811,2.241,2.582,2.611,4.5
	c-1.409-1.236-2.606-2.287-3.922-3.441C113.099,118.108,113.475,117.804,113.917,117.447z"/>
<path fill-rule="evenodd" clip-rule="evenodd" fill="#f7dad4" class="fill" d="M76.471,110.984c1.875-1.592,3.778-1.823,5.764-1.785
	C80.721,110.684,78.893,111.191,76.471,110.984z"/>
<path fill-rule="evenodd" clip-rule="evenodd" fill="#f7dad4" class="fill" d="M95.896,107.863c-2.031,0.211-3.929,0.15-6.106-0.151
	C92.056,106.412,94.373,106.5,95.896,107.863z"/>
<path fill-rule="evenodd" clip-rule="evenodd" fill="#f7dad4" class="fill" d="M103.859,116.797c-0.18-1.732-0.045-2.207,0.834-2.919
	c0.249,0.351,0.496,0.698,0.781,1.103c0.44-0.223,0.812-0.41,1.184-0.598c0.062,0.07,0.123,0.141,0.186,0.212
	c-0.342,0.353-0.685,0.704-1.119,1.151c0.422,0.225,0.773,0.412,1.164,0.621c-0.815,0.889-1.273-0.141-1.964-0.276
	C104.616,116.295,104.258,116.532,103.859,116.797z"/>
<path fill-rule="evenodd" clip-rule="evenodd" fill="#f7dad4" class="fill" d="M108.219,107.729c-0.166,0.322-0.279,0.543-0.431,0.838
	c0.173,0.233,0.366,0.494,0.648,0.873c-1.411-0.31-2.663-0.584-3.956-0.868c0.474-0.958,0.474-0.958,1.856-1.065
	c0.165-0.213,0.35-0.449,0.583-0.748c0.097,0.363,0.18,0.68,0.276,1.038C107.503,107.775,107.797,107.757,108.219,107.729z"/>
<path fill-rule="evenodd" clip-rule="evenodd" fill="#f7dad4" class="fill" d="M79.923,113.57c0.44-0.512,0.853-1.053,1.329-1.529
	c0.461-0.458,0.989-0.85,1.564-1.336c0.287,0.184,0.603,0.386,1.006,0.644c-1.156,1.053-2.186,2.056-3.598,2.505
	C80.125,113.76,80.023,113.665,79.923,113.57z"/>
<path fill-rule="evenodd" clip-rule="evenodd" fill="#f7dad4" class="fill" d="M95.354,103.563c-1.71,1.224-3.707,1.767-5.698,2.327
	C91.365,104.682,93.152,103.65,95.354,103.563z"/>
<path fill-rule="evenodd" clip-rule="evenodd" fill="#f7dad4" class="fill" d="M102.373,94.383c0.566-0.723,1.134-1.447,1.719-2.193
	c0.794,0.142,1.419,0.254,2.043,0.365c-0.923,0.598-2.039,0.802-2.193,2.076c-0.521,0.038-0.907,0.066-1.294,0.094
	C102.556,94.611,102.465,94.497,102.373,94.383z"/>
<path fill-rule="evenodd" clip-rule="evenodd" fill="#f7dad4" class="fill" d="M86.812,104.535c-0.69-1.172-0.51-2.604,0.47-3.723
	C87.854,102.408,87.693,103.675,86.812,104.535z"/>
<path fill-rule="evenodd" clip-rule="evenodd" fill="#f7dad4" class="fill" d="M92.664,101.117c-0.936,1.76-2.522,2.299-3.854,3.398
	C89.426,103.059,90.829,101.801,92.664,101.117z"/>
<path fill-rule="evenodd" clip-rule="evenodd" fill="#f7dad4" class="fill" d="M85.159,115.027c-0.665-1.492-0.325-2.564,0.209-3.75
	c0.253,0.186,0.588,0.311,0.598,0.455C86.032,112.805,85.736,113.803,85.159,115.027z"/>
<path fill-rule="evenodd" clip-rule="evenodd" fill="#f7dad4" class="fill" d="M102.392,110.482c0.511-0.285,1.022-0.571,1.696-0.948
	c0.438,0.474,0.905,0.977,1.441,1.556c-0.843,0.684-1.203-0.257-1.904-0.397c-0.28,0.024-0.717,0.063-1.154,0.104
	C102.444,110.691,102.418,110.587,102.392,110.482z"/>
<path fill-rule="evenodd" clip-rule="evenodd" fill="#f7dad4" class="fill" d="M111.107,95.514c-0.968-0.277-0.925-1.047-1.466-1.654
	C111.047,94.02,111.047,94.02,111.107,95.514z"/>
<path fill-rule="evenodd" clip-rule="evenodd" fill="#f7dad4" class="fill" d="M111.195,98.078c-0.375-0.504-0.637-0.855-0.963-1.293
	C111.413,96.699,111.413,96.699,111.195,98.078z"/>
<path fill-rule="evenodd" clip-rule="evenodd" fill="#f7dad4" class="fill" d="M190.528,92.832c-0.129-5.583-0.268-11.169-0.234-16.754
	c0.027-4.617,0.303-9.232,0.454-13.849c0.032-0.979,0.005-1.959,0.005-2.702c-15.834-1.234-31.396-1.963-47.087-0.789
	c-0.13,0.313-0.383,0.668-0.412,1.039c-0.092,1.193-0.111,2.391-0.142,3.588c-0.129,5.121-0.255,10.243-0.372,15.363
	c-0.005,0.234,0.09,0.47,0.126,0.707c0.158,1.02,0.401,2.036,0.447,3.062c0.119,2.604,0.114,5.213,0.225,7.818
	c0.123,2.914,0.325,5.824,0.476,8.737c0.022,0.437-0.063,0.879-0.07,1.319c-0.013,0.796-0.004,1.593-0.004,2.375
	c1.221,0,2.147,0.062,3.063-0.011c3.394-0.273,6.781-0.799,10.177-0.845c5.66-0.076,11.323,0.198,16.985,0.225
	c4.334,0.02,8.669-0.096,13.003-0.193c1.189-0.027,2.375-0.209,3.785-0.34C190.803,98.586,190.596,95.711,190.528,92.832z
	 M177.354,84.304c-3.158,4.841-6.06,5.673-11.944,3.295c-5.66,6.015-10.113,8.369-14.402,7.691
	c-3.258-4.625-3.436-9.26-0.465-12.176c3.841,1.263,3.896,1.369,4.746,9.483c3.578-1.066,5.818-3.544,8.255-6.576
	c-2.595-0.879-4.902-1.588-5.438-4.355c-0.529-2.732,0.848-4.514,2.782-5.935c-0.952-7.132,2.616-9.88,9.801-7.724
	c8.138-3.992,10.747-2.812,11.288,5.26c1.029,0.703,2.135,1.462,3.18,2.177C186.944,80.801,183.881,84.232,177.354,84.304z"/>
<path fill-rule="evenodd" clip-rule="evenodd" fill="#f7dad4" class="fill" d="M166.771,78.453c-0.067-1.029-0.132-2.014-0.223-3.379
	c1.572-0.917,3.156-1.842,4.389-2.562c2.799,0.623,4.118,1.982,4.295,4.283c0.125,1.602-0.592,2.925-2.054,3.552
	C170.788,81.371,168.84,80.336,166.771,78.453z"/>
<path fill-rule="evenodd" clip-rule="evenodd" fill="#f7dad4" class="fill" d="M178.311,75.929c1.898-0.248,3.681-0.712,4.955,1.354
	c0.023,1.806-0.307,3.591-2.152,4.473c-1.549,0.742-3.043,0.322-4.32-1.135C177.26,79.179,177.732,77.717,178.311,75.929z"/>
<path fill-rule="evenodd" clip-rule="evenodd" fill="#f7dad4" class="fill" d="M178.102,73.899c-1.848-1.406-3.5-2.664-5.59-4.255
	c1.623-0.82,3.043-1.536,4.303-2.172C179.782,69.891,180.01,71.239,178.102,73.899z"/>
<path fill-rule="evenodd" clip-rule="evenodd" fill="#f7dad4" class="fill" d="M168.217,83.121c2.259-0.11,4.038-0.199,5.814-0.287
	c0.274,3.683-1.65,4.649-6.186,2.968C167.951,85.031,168.066,84.207,168.217,83.121z"/>
<path fill-rule="evenodd" clip-rule="evenodd" fill="#f7dad4" class="fill" d="M163.408,77.127c0.811,1.736,1.512,3.241,2.326,4.985
	c-1.195,1.593-2.762,1.509-4.469,0.46C159.961,79.379,160.25,78.643,163.408,77.127z"/>
<path fill-rule="evenodd" clip-rule="evenodd" fill="#f7dad4" class="fill" d="M169.182,70.415c-1.859,1.351-3.463,2.514-5.062,3.677
	c-1.538-1.775-1.607-2.509-0.389-3.895C165.152,68.58,166.787,68.576,169.182,70.415z"/>
<path fill-rule="evenodd" clip-rule="evenodd" fill="#f7dad4" class="fill" d="M151.449,86.779c1.461,1.473,1.162,2.881,0.608,4.675
	C150.73,89.898,150.551,88.55,151.449,86.779z"/>
</svg>
