<svg version="1.1" id="svg" xmlns="http://www.w3.org/2000/svg" xmlns:xlink="http://www.w3.org/1999/xlink" x="0px" y="0px"
	 width="200px" height="200px" viewBox="0 0 200 200" enable-background="new 0 0 200 200" xml:space="preserve">
<path class="stroke" fill="#2a374b"  d="M109.06,69.266c1.797-2.066,2.692-4.565,3.021-7.219c0.375-3.036,0.399-6.091,0.004-9.155
	c-0.312-2.415-0.345-4.865-0.546-7.296c-0.31-3.749-0.652-7.495-0.995-11.241c-0.045-0.49-0.133-0.987-0.28-1.457
	c-0.193-0.615-0.579-1.084-1.249-1.203c-0.781,0.357-0.954,1.062-1.046,1.755c-0.12,0.899-0.228,1.816-0.187,2.72
	c0.248,5.499,0.15,10.996-0.075,16.493c-0.02,0.483-0.071,0.966-0.124,1.666c-0.194-0.316-0.335-0.441-0.344-0.578
	c-0.089-1.232-0.172-2.469-0.224-3.704c-0.079-1.898-0.11-3.799-0.205-5.697c-0.07-1.4-0.242-2.797-0.31-4.198
	c-0.118-2.434-0.193-4.868-0.282-7.304c-0.018-0.501-0.15-0.898-0.756-0.955c-0.711,0.197-0.926,0.763-0.968,1.413
	c-0.095,1.442-0.159,2.887-0.236,4.331c-0.11,2.063-0.202,4.128-0.335,6.189c-0.186,2.887-0.401,5.771-0.612,8.656
	c-0.009,0.126-0.101,0.246-0.155,0.369c-0.067-0.011-0.135-0.021-0.203-0.031c-0.1-6.795-0.2-13.59-0.303-20.487
	c-0.476-0.104-0.839-0.184-1.374-0.301c-1.016,7.14-0.931,14.191-1.755,21.175c-0.173-0.895-0.295-1.791-0.296-2.688
	c-0.003-2.229,0.031-4.458,0.086-6.687c0.063-2.551-0.017-5.104,0.27-7.656c0.165-1.458,0.03-2.951,0.03-4.573
	c-0.455-0.023-0.82-0.042-1.226-0.062c-0.142,0.476-0.294,0.82-0.345,1.18c-0.471,3.312-0.911,6.63-1.39,9.941
	c-0.319,2.206-0.751,4.397-1.021,6.61c-0.476,3.895-1.005,7.791-0.914,11.731c0.043,1.836,0.249,3.653,1.19,5.267
	c0.872,1.495,1.828,2.942,2.812,4.365c0.834,1.205,1.501,2.464,1.841,3.899c0.642,2.704,0.358,5.419,0.138,8.134
	c-0.047,0.573-0.141,1.145-0.15,1.718c-0.03,1.654,0.048,3.312-0.052,4.96c-0.262,4.292-0.577,8.58-0.908,12.868
	c-0.194,2.514-0.473,5.02-0.687,7.53c-0.26,3.048-0.482,6.099-0.739,9.146c-0.205,2.429-0.448,4.856-0.653,7.285
	c-0.228,2.679-0.414,5.359-0.648,8.036c-0.253,2.882-0.565,5.758-0.804,8.64c-0.154,1.854-0.271,3.714-0.322,5.574
	c-0.088,3.139-0.193,6.281-0.133,9.419c0.046,2.356,2.183,4.621,3.94,5.139c1.827,0.541,3.749,0.783,5.647,0.45
	c1.938-0.339,3.691-1.145,4.428-3.152c0.378-1.031,0.644-2.166,0.657-3.258c0.051-4.175,0.045-8.353-0.067-12.525
	c-0.088-3.26-0.367-6.516-0.558-9.772c-0.262-4.457-0.465-8.918-0.797-13.369c-0.351-4.698-0.856-9.385-1.231-14.082
	c-0.211-2.637-0.288-5.284-0.438-7.926c-0.154-2.721-0.326-5.44-0.488-8.16c-0.064-1.074-0.104-2.148-0.188-3.22
	c-0.332-4.253-0.411-8.497,0.058-12.754C106.812,72.949,107.568,70.982,109.06,69.266z"/>
<path fill-rule="evenodd" clip-rule="evenodd" fill="#eef9fc" class="fill" d="M98.271,38.63c-0.09,3.839-0.19,7.705-0.268,11.572
	c-0.031,1.489-0.052,2.979,0.003,4.468c0.022,0.587,0.268,1.166,0.394,1.675c1.393,0.212,1.979-0.201,2.069-1.429
	c0.203-2.764,0.347-5.531,0.528-8.298c0.077-1.178,0.184-2.355,0.298-3.8c0.656,4.688,0.057,9.174,0.679,13.433
	c0.735,0.843,1.375,0.628,2.13,0.193c0.716-2.037,0.471-4.249,0.639-6.414c0.17-2.178,0.335-4.356,0.608-6.548
	c0.027,0.229,0.068,0.457,0.08,0.686c0.188,3.758,0.364,7.518,0.568,11.275c0.026,0.483,0.19,0.959,0.275,1.362
	c1.209,0.737,1.399,0.711,2.526-0.354c0.175-5.621,0.354-11.345,0.536-17.142c0.163,0.119,0.265,0.155,0.269,0.2
	c0.37,5.406,0.814,10.809,1.06,16.22c0.106,2.34,0.093,4.718-0.442,7.041c-0.406,1.767-1.214,3.304-2.356,4.721
	c-0.718,0.889-1.294,1.918-1.804,2.948c-1.126,2.273-1.89,4.625-1.89,7.239c0.001,5.751,0.071,11.492,0.537,17.229
	c0.184,2.265,0.205,4.544,0.304,6.816c0.148,3.345,0.25,6.693,0.461,10.034c0.361,5.731,0.813,11.455,1.183,17.185
	c0.17,2.642,0.227,5.29,0.35,7.935c0.192,4.17,0.435,8.338,0.577,12.509c0.063,1.853-0.006,3.715-0.125,5.566
	c-0.12,1.858-1.032,3.257-2.705,4.171c-1.534,0.839-4.034,0.627-5.347-0.544c-1.83-1.63-2.512-3.678-2.362-6.105
	c0.27-4.332,0.386-8.674,0.695-13.002c0.314-4.408,0.779-8.807,1.188-13.207c0.317-3.412,0.645-6.824,0.978-10.235
	c0.29-2.964,0.607-5.924,0.885-8.889c0.134-1.439,0.192-2.887,0.308-4.329c0.195-2.434,0.459-4.861,0.603-7.298
	c0.148-2.515,0.19-5.037,0.276-7.555c0.013-0.373,0.011-0.745,0.029-1.117c0.147-3.056,0.309-6.111,0.444-9.169
	c0.094-2.146-0.396-4.157-1.266-6.13c-0.749-1.697-1.791-3.156-3.02-4.5c-1.303-1.422-1.772-3.159-1.958-4.989
	c-0.324-3.188,0.003-6.362,0.335-9.531c0.378-3.619,0.749-7.239,1.142-10.855c0.106-0.982,0.285-1.957,0.442-2.933
	C98.135,38.683,98.249,38.646,98.271,38.63z M98.502,64.264c0.244,1.255,0.539,2.312,1.259,3.19c1.009,1.229,2.236,1.937,3.896,1.45
	c0.591-0.173,1.183-0.349,1.778-0.51c1.605-0.436,2.449-1.573,2.841-3.105c0.102-0.395,0.094-0.819,0.151-1.377
	C105.07,64.798,101.878,64.28,98.502,64.264z"/>
</svg>
