<svg version="1.1" id="svg" xmlns="http://www.w3.org/2000/svg" xmlns:xlink="http://www.w3.org/1999/xlink" x="0px" y="0px"
	 width="200px" height="200px" viewBox="0 0 200 200" enable-background="new 0 0 200 200" xml:space="preserve">
<path class="stroke" fill="#064146"  d="M142.72,48.873c-1.703-2.566-3.887-4.363-7.027-4.811c-2.694-0.381-5.156,0.164-7.26,1.918
	c-0.898,0.748-1.774,1.58-2.457,2.522c-2.486,3.43-4.984,6.857-7.292,10.407c-2.583,3.976-4.987,8.067-7.425,12.135
	c-2.74,4.571-5.457,9.157-8.132,13.768c-1.079,1.859-2.129,3.76-2.094,6.024c-1.011,1.647-2.031,3.276-3.019,4.924
	c-2.339,3.9-4.621,7.836-7.005,11.707c-1.891,3.072-3.923,6.056-5.84,9.112c-0.559,0.888-0.949,1.884-1.389,2.844
	c-0.211,0.461-0.376,0.946-0.529,1.431c-0.196,0.621-0.359,1.251-0.536,1.878c-0.536,1.203-1.23,2.341-1.958,3.456
	c-1.522,2.33-3.071,4.642-4.591,6.974c-0.642,0.984-1.145,2.01-0.405,3.087c-0.7,1.749-1.688,3.167-2.904,4.401
	c-1.201,1.219-2.502,2.338-3.847,3.583c0.919,1.82,0.687,3.771,0.137,5.668c-0.466,1.611-1.162,3.157-1.751,4.734
	c-0.074,0.196-0.117,0.405-0.185,0.645c0.847,0.218,1.02-0.446,1.315-0.838c0.997-1.322,2.035-2.607,3.496-3.436
	c1.292-0.731,2.632-1.379,3.962-2.042c0.624-0.311,1.274-0.567,1.758-0.78c1.037-3.396,2.271-6.464,4.355-9.101
	c0.537-0.256,1.132-0.472,1.478-0.892c0.844-1.029,1.602-2.133,2.341-3.243c1.607-2.412,3.179-4.85,4.77-7.272
	c0.506-0.771,1.14-1.382,2.029-1.722c0.312-0.119,0.609-0.365,0.828-0.625c0.68-0.809,1.36-1.624,1.966-2.49
	c1.414-2.021,2.78-4.074,4.173-6.109c1.884-2.751,3.831-5.461,5.646-8.255c1.919-2.956,3.714-5.991,5.566-8.989
	c0.061-0.099,0.153-0.177,0.27-0.307c0.22-0.061,0.479-0.154,0.746-0.2c1.301-0.222,2.315-0.863,3.106-1.934
	c1.002-1.353,2.093-2.638,3.106-3.982c1.794-2.378,3.657-4.712,5.312-7.185c2.157-3.221,4.117-6.569,6.401-9.715
	c1.907-2.626,3.604-5.405,5.394-8.118c1.897-2.876,3.786-5.758,5.693-8.628c1.16-1.745,2.077-3.599,2.458-5.667
	C143.691,52.071,143.744,50.418,142.72,48.873z"/>
<path fill-rule="evenodd" clip-rule="evenodd" fill="#8dece4" class="fill" d="M105.693,83.912c0.486-0.864,0.923-1.696,1.41-2.497
	c2.24-3.687,4.497-7.362,6.742-11.046c3.163-5.193,6.303-10.399,9.796-15.385c1.711-2.443,3.36-4.929,5.458-7.063
	c0.879-0.895,1.833-1.74,3.102-2.044c0.592-0.142,1.215-0.146,2.078-0.24c-0.292,0.563-0.431,0.914-0.638,1.218
	c-3.072,4.5-6.159,8.99-9.229,13.491c-2.098,3.077-4.193,6.153-6.256,9.253c-1.107,1.664-2.126,3.385-3.214,5.062
	c-0.824,1.268-1.362,2.655-1.71,4.105c-0.14,0.587-0.023,1.235-0.023,1.786c0.594,1.108,1.398,1.812,2.57,2.173
	c1.524,0.47,3.02,0.113,4.004-1.13c2.948-3.724,5.544-7.689,8.084-11.696c0.565-0.891,1.274-1.69,1.878-2.56
	c0.985-1.415,1.924-2.862,2.912-4.276c0.966-1.379,1.997-2.713,2.948-4.102c1.439-2.102,2.833-4.235,4.252-6.351
	c0.141-0.209,0.327-0.386,0.716-0.499c-0.046,0.365-0.091,0.73-0.139,1.094c-0.35,2.604-1.595,4.811-3.08,6.91
	c-0.542,0.766-1.111,1.516-1.594,2.318c-2.871,4.773-6.236,9.208-9.415,13.77c-2.308,3.312-4.667,6.59-7.049,9.85
	c-0.807,1.105-1.745,2.116-2.636,3.159c-0.5,0.585-1.151,0.781-1.907,0.668c-1.967-0.297-3.793-0.971-5.337-2.234
	c-1.146-0.938-2.196-1.994-3.275-3.013C105.978,84.479,105.892,84.238,105.693,83.912z"/>
<path fill-rule="evenodd" clip-rule="evenodd" fill="#8dece4" class="fill" d="M136.375,46.211c0.218,0.034,0.34,0.031,0.442,0.076
	c0.177,0.075,0.341,0.182,0.523,0.281c-0.025,0.14-0.014,0.269-0.069,0.354c-2.317,3.588-4.554,7.232-6.985,10.742
	c-3.703,5.349-7.562,10.589-11.306,15.909c-0.716,1.016-1.259,2.166-1.789,3.297c-0.404,0.862-0.362,1.758,0.327,2.61
	c0.291,0.116,0.642,0.256,1.167,0.464c-0.601,0.555-0.869,1.288-1.709,1.377c-1.488-0.784-1.806-1.326-1.193-2.813
	c0.668-1.623,1.486-3.196,2.366-4.718c1.744-3.019,3.522-6.018,5.534-8.874c2.097-2.979,4.103-6.021,6.152-9.033
	c0.967-1.422,1.957-2.831,2.913-4.261c0.978-1.464,1.924-2.947,2.893-4.417C135.874,46.853,136.143,46.523,136.375,46.211z"/>
<path fill-rule="evenodd" clip-rule="evenodd" fill="#8dece4" class="fill" d="M76.626,137.18c1.207,0.681,2.255,1.273,3.312,1.87
	c-1.142,2.567-2.285,5.138-3.426,7.702c-1.383,0.71-2.771,1.422-4.243,2.177c0.008-0.906,0.697-1.4,1.043-2.055
	c0.347-0.653,0.751-1.277,1.145-1.938c0.84-0.169,1.26-0.719,1.375-1.594c-0.138-0.192-0.292-0.406-0.406-0.564
	c-0.614-0.212-1.376,0.171-1.556,0.838c-0.461,1.713-1.663,2.999-2.496,4.495c-0.051,0.092-0.168,0.146-0.375,0.318
	c-0.074-1.388-0.141-2.677-0.22-4.18C72.888,142.217,75.04,139.947,76.626,137.18z"/>
<path fill-rule="evenodd" clip-rule="evenodd" fill="#8dece4" class="fill" d="M103.167,93.67c0.289,0.348,0.454,0.546,0.629,0.758
	c-5.609,9.435-12.398,18.03-18.072,27.462c-0.575-0.817-0.354-1.459,0.038-2.077c1.925-3.045,3.839-6.098,5.79-9.125
	c1.441-2.236,2.907-4.457,4.409-6.654c1.082-1.582,2.266-3.097,3.359-4.671c0.983-1.416,1.902-2.876,2.857-4.312
	C102.457,94.633,102.763,94.231,103.167,93.67z"/>
<path fill-rule="evenodd" clip-rule="evenodd" fill="#8dece4" class="fill" d="M104.792,95.354c0.19,0.084,0.323,0.142,0.564,0.248
	c-0.227,0.45-0.398,0.884-0.646,1.268c-1.417,2.208-2.853,4.403-4.281,6.604c-1.067,1.645-2.113,3.304-3.204,4.933
	c-1.286,1.919-2.632,3.796-3.91,5.719c-1.823,2.743-3.609,5.512-5.41,8.271c-0.34,0.521-0.678,1.045-1.042,1.607
	c-0.23-0.109-0.395-0.188-0.524-0.249c-0.019-0.145-0.062-0.239-0.032-0.293c0.794-1.396,1.527-2.836,2.412-4.174
	c2.118-3.203,4.313-6.355,6.47-9.533c1.718-2.532,3.437-5.063,5.131-7.61c1.215-1.828,2.386-3.685,3.583-5.521
	C104.177,96.199,104.481,95.795,104.792,95.354z"/>
<path fill-rule="evenodd" clip-rule="evenodd" fill="#8dece4" class="fill" d="M78.732,135.747c-0.363-0.221-0.56-0.339-0.734-0.444
	c0.012-0.588,5.292-9.186,6.111-9.949c0.228,0.117,0.486,0.249,0.914,0.468C82.913,129.151,80.854,132.4,78.732,135.747z"/>
<path fill-rule="evenodd" clip-rule="evenodd" fill="#8dece4" class="fill" d="M107.069,88.594c-0.711,1.108-1.468,2.287-2.242,3.495
	c-0.85-0.294-1.244-0.873-1.527-1.784c0.608-1.122,1.271-2.346,2.033-3.751C105.967,87.299,106.464,87.883,107.069,88.594z"/>
<path fill-rule="evenodd" clip-rule="evenodd" fill="#8dece4" class="fill" d="M107.204,94.005c-0.459-0.283-0.779-0.48-1.212-0.748
	c0.835-1.31,1.624-2.548,2.456-3.851c0.421,0.234,0.713,0.397,1.163,0.648C108.811,91.368,108.054,92.61,107.204,94.005z"/>
<path fill-rule="evenodd" clip-rule="evenodd" fill="#8dece4" class="fill" d="M86.237,126.71c0.013,0.188,0.084,0.37,0.023,0.471
	c-1.916,3.117-3.843,6.226-5.884,9.522C80.619,135.46,85.402,127.388,86.237,126.71z"/>
<path fill-rule="evenodd" clip-rule="evenodd" fill="#8dece4" class="fill" d="M109.348,94.997c-0.263-0.09-0.404-0.139-0.71-0.242
	c0.796-1.281,1.555-2.503,2.357-3.793c0.232,0.146,0.383,0.239,0.602,0.378c-0.38,0.636-0.727,1.228-1.086,1.811
	C110.148,93.74,109.773,94.322,109.348,94.997z"/>
</svg>
