<svg version="1.1" id="svg" xmlns="http://www.w3.org/2000/svg" xmlns:xlink="http://www.w3.org/1999/xlink" x="0px" y="0px"
	 width="200px" height="200px" viewBox="0 0 200 200" enable-background="new 0 0 200 200" xml:space="preserve">
<path class="stroke" fill="#580f12"  fill-rule="evenodd" clip-rule="evenodd" d="M136.864,111.985c-0.147-3.525-0.333-7.054-0.648-10.569
	c-0.188-2.086-0.599-4.158-1.018-6.214c-0.275-1.347-1.195-2.192-2.606-2.247c-2.412-0.097-4.828-0.114-7.241-0.152
	c-1.211-0.019-2.421-0.01-3.746-0.014c-0.028-1.819,0.025-3.364-0.091-4.896c-0.427-5.623-0.901-11.244-1.376-16.864
	c-0.391-4.632-0.805-9.264-1.214-13.894c-0.288-3.264-2.036-4.256-4.625-4.649c-0.429-0.065-0.866-0.107-1.298-0.097
	c-4.395,0.094-8.791,0.172-13.187,0.316c-2.835,0.093-5.667,0.29-9.039,0.467c-0.793,0.991-1.873,2.188-2.784,3.503
	c-5.084,7.337-10.157,14.674-16.319,21.188c-1.695,1.793-3.127,3.836-4.658,5.784c-0.573,0.728-1.101,1.495-1.616,2.267
	c-1.781,2.677-3.58,5.344-5.304,8.059c-0.74,1.165-1.032,2.502-1.002,3.903c0.028,1.239-0.049,2.482,0.027,3.718
	c0.244,3.954,0.446,7.914,0.85,11.853c0.215,2.104,1.168,2.976,3.301,3.113c4.702,0.303,9.412,0.515,14.122,0.626
	c3.467,0.083,6.939-0.059,10.409-0.077c0.547-0.004,1.093,0.108,1.84,0.189c0.228,0.893,0.594,1.764,0.654,2.655
	c0.404,6.059,0.729,12.123,1.116,18.184c0.083,1.292,0.305,2.576,0.489,3.862c0.141,0.991,0.766,1.648,1.548,2.218
	c1.396,1.019,2.96,1.121,4.61,1.042c4.58-0.221,9.163-0.354,13.743-0.592c2.458-0.127,4.942-0.169,7.283-0.945
	c0.834-1.437,0.899-2.939,0.877-4.413c-0.079-5.076-0.254-10.15-0.346-15.224c-0.024-1.342,0.118-2.686,0.193-4.166
	c0.808-0.113,1.526-0.262,2.25-0.308c3.462-0.219,6.931-0.369,10.39-0.634c1.083-0.083,2.144-0.446,3.026-0.64
	C136.559,116.362,136.978,114.653,136.864,111.985z M87.934,94.866c2.349-3.174,4.471-6.043,6.594-8.913
	c0.175,0.085,0.351,0.169,0.525,0.253c0.011,2.882,0.021,5.763,0.033,8.781C92.673,95.324,90.471,94.816,87.934,94.866z"/>
<path fill-rule="evenodd" clip-rule="evenodd" fill="#de4555" class="fill" d="M97.026,139.406c-1.486-1.38-0.051-3.15-0.969-4.47
	c-0.98,0.136-0.659,1.193-1.191,1.735c-0.678-0.877-0.713-1.865-0.749-2.842c-0.179-4.826-0.335-9.654-0.526-14.479
	c-0.039-0.987-0.191-1.969-0.292-2.959c0.323-0.453,0.634-0.887,1.105-1.543c-0.844-0.099-1.457-0.172-2.341-0.275
	c0.581-1.002,1.078-1.859,1.575-2.717c-0.071-0.103-0.143-0.204-0.216-0.308c-0.812,0.435-1.625,0.868-2.69,1.437
	c-0.029-1.416-0.057-2.748-0.085-4.08c-0.146-0.028-0.292-0.054-0.439-0.081c-0.458,1.123-0.914,2.244-1.408,3.457
	c-0.287-0.015-0.62-0.032-1.07-0.054c0.067-1.355,0.13-2.625,0.212-4.256c-1.264,1.297-1.551,2.676-1.936,4.082
	c-0.543,0.008-1.003,0.013-1.635,0.022c0.071-1.434,0.136-2.742,0.214-4.333c-1.368,1.227-1.365,2.737-1.953,4.168
	c-0.553,0.006-1.128,0.01-1.925,0.017c0.173-1.671,0.327-3.153,0.52-5.01c-1.486,1.592-1.903,3.235-2.175,5.055
	c-0.678-0.034-1.237-0.062-1.8-0.088c0.082-1.659,0.157-3.183,0.24-4.864c-1.688,1.167-1.353,2.982-1.716,4.572
	c-0.296,0.108-0.568,0.252-0.855,0.295c-0.228,0.035-0.475-0.052-0.986-0.123c0.158-1.474,0.313-2.909,0.502-4.663
	c-1.509,1.335-1.745,2.898-2.085,4.598c-0.497,0.019-1.003,0.039-1.657,0.065c0.075-1.514,0.141-2.84,0.216-4.367
	c-1.464,1.146-1.125,2.871-1.806,4.314c-0.472,0.009-0.999,0.019-1.775,0.034c0.13-1.318,0.243-2.481,0.389-3.97
	c-1.683,1.157-1.229,2.786-1.743,4c-0.864-0.091-0.864-0.091-1.131-2.781c-1.443,0.258-0.512,1.716-1.305,2.449
	c-0.183-0.355-0.429-0.64-0.471-0.953c-0.249-1.83-0.559-3.662-0.641-5.503c-0.102-2.287,0.057-4.585-0.01-6.874
	c-0.046-1.587,0.575-2.914,1.428-4.125c1.353-1.924,2.848-3.749,4.249-5.642c2.464-3.332,4.855-6.718,7.363-10.015
	c2.097-2.756,4.361-5.384,6.471-8.131c2.186-2.847,4.245-5.789,6.417-8.646c1.006-1.321,2.04-2.659,3.256-3.776
	c1.978-1.817,4.574-2.164,7.109-2.329c4.263-0.278,8.538-0.415,12.81-0.51c1.141-0.026,2.29,0.314,3.596,0.51
	c-0.31,0.591-0.496,0.947-0.709,1.357c0.457,0.39,0.868,0.741,1.377,1.174c-0.308,0.414-0.578,0.777-0.92,1.236
	c0.42,0.417,0.834,0.827,1.338,1.327c-0.215,0.239-0.393,0.442-0.578,0.64c-0.151,0.163-0.311,0.317-0.462,0.471
	c1.593,1.796,1.593,1.796,0.759,3.229c1.65,1.743,1.238,1.834,0.468,3.189c0.311,0.38,0.647,0.792,1.067,1.306
	c-0.291,0.398-0.597,0.816-0.899,1.229c0.458,0.544,0.896,1.063,1.441,1.712c-0.611,0.378-1.001,0.619-1.6,0.991
	c0.565,0.419,1.028,0.761,1.483,1.097c0.704,1.025-0.442,1.346-0.885,2.122c0.385,0.349,0.769,0.695,1.229,1.111
	c0.048,0.386,0.11,0.869,0.173,1.365c-0.392,0.28-0.725,0.515-1.165,0.827c0.408,0.404,0.745,0.738,1.168,1.157
	c0.003,0.516,0.009,1.125,0.014,1.718c-0.324,0.335-0.61,0.631-0.958,0.99c0.598,0.704,1.617,1.163,1.128,2.462
	c-0.19,0.158-0.509,0.424-0.947,0.788c0.334,0.303,0.699,0.531,0.909,0.857c0.183,0.284,0.189,0.681,0.29,1.099
	c-0.445,0.244-0.838,0.46-1.629,0.895c0.722,0.43,1.244,0.74,1.948,1.159c-0.84,0.571-1.304,0.886-1.774,1.204
	c0.693,0.844,1.251,1.684,1.974,2.342c0.418,0.382,1.101,0.651,1.667,0.66c2.038,0.028,4.078-0.073,6.116-0.133
	c1.105-0.033,2.21-0.079,3.239-0.117c1.009,1.019,1.509,1.983,0.837,3.277c0.716,0.8,1.027,1.668,0.19,2.642
	c0.663,1.061,1.003,2.131-0.002,3.115c0.267,0.594,0.666,1.118,0.697,1.662c0.026,0.472-0.366,0.968-0.591,1.495
	c0.286,0.578,0.615,1.244,0.964,1.949c-0.564,0.407-0.94,0.677-1.398,1.008c0.525,0.413,0.951,0.747,1.361,1.069
	c-0.031,0.62-0.044,1.176-0.094,1.729c-0.015,0.171-0.126,0.331-0.278,0.705c-0.447-0.586-0.814-1.068-1.241-1.628
	c-1.092,0.872-0.426,1.981-0.527,3.002c-0.268,0.038-0.493,0.069-0.708,0.099c-0.33-0.963-0.642-1.871-0.966-2.818
	c-1.734,0.423-0.312,2.162-1.629,2.905c-0.351-1.103-0.664-2.094-1.017-3.201c-1.512,0.789-0.404,2.428-1.381,3.33
	c-1.436-0.515-0.04-2.478-1.666-3.051c-0.207,1.053-0.402,2.042-0.621,3.147c-0.405,0.034-0.796,0.064-1.25,0.102
	c-0.175-1.032-0.332-1.957-0.518-3.062c-1.458,1.014-0.872,2.467-1.4,3.61c-0.23,0.059-0.509,0.131-0.901,0.23
	c-0.204-0.794-0.382-1.49-0.56-2.181c-0.182,0.04-0.385,0.049-0.394,0.092c-0.444,2.442-1.796,4.686-1.369,7.333
	c0.244,1.514,0.101,3.092,0.117,4.641c0.033,3.345,0.061,6.69,0.077,10.036c0.001,0.278-0.115,0.557-0.258,1.213
	c-0.464-0.784-0.744-1.256-1.006-1.698c-1.202,0.045-0.924,0.89-0.97,1.507c-0.041,0.551,0.003,1.108,0.01,1.663
	c-0.154,0.014-0.307,0.028-0.46,0.042c-0.187-1.029-0.374-2.06-0.604-3.318c-1.756,0.861-1.047,2.306-1.209,3.533
	c-0.292,0.057-0.571,0.112-0.943,0.185c-0.214-1.19-0.413-2.305-0.645-3.596c-1.618,0.891-0.704,2.431-1.458,3.515
	c-0.292,0.014-0.689,0.033-1.272,0.061c-0.088-1.244-0.168-2.384-0.25-3.549c-1.165,0.485-1.261,0.705-1.54,3.469
	c-0.317,0.021-0.652,0.042-1.122,0.072c-0.017-1.314-0.031-2.511-0.05-3.912c-1.994,0.93-1.252,2.854-1.738,4.2
	c-0.165-0.027-0.331-0.051-0.496-0.078c-0.081-1.329-0.16-2.658-0.258-4.266c-1.555,1.286-1.211,3.009-1.792,4.43
	c-1.346-0.087-0.952-1.026-0.972-1.733c-0.021-0.711-0.042-1.422-0.072-2.353C97.388,136.486,98.121,138.245,97.026,139.406z
	 M86.331,89.941c-0.522,0.649-0.983,1.223-1.389,1.728c-0.836,0.023-1.077-1.33-2.106-0.567c0.32,0.703,0.648,1.421,1.032,2.261
	c-0.271,0.389-0.562,0.808-1.002,1.441c-0.312-0.464-0.459-0.742-0.663-0.97c-0.186-0.208-0.431-0.362-0.718-0.596
	c-0.118,1.377-0.074,1.508,1.452,4.542c0.782,0.094,1.692,0.328,2.588,0.289c3.832-0.173,7.66-0.424,11.49-0.656
	c0.542-0.033,1.08-0.115,1.543-0.165c1.068-2.76,0.135-16.426-1.095-18.714c-1.209-0.662-2.196-1.203-3.487-1.911
	c0.32,1.104,0.521,1.796,0.754,2.594c-0.315,0.323-0.633,0.648-0.924,0.945c-0.695-0.458-1.266-0.837-1.839-1.214
	c-0.092,0.096-0.185,0.192-0.277,0.287c0.296,0.768,0.59,1.533,0.904,2.348c-0.435,0.516-0.821,0.975-1.237,1.47
	c-0.618-0.708-1.137-1.305-1.658-1.902c-0.133,0.077-0.266,0.153-0.4,0.229c0.283,1.098,0.565,2.195,0.863,3.355
	c-0.323,0.371-0.632,0.725-1.039,1.192c-0.528-0.755-0.978-1.396-1.539-2.196c-0.598,1.515-0.139,2.57,0.574,3.636
	c-0.401,0.452-0.733,0.826-1.098,1.237c-0.671-0.931-1.214-1.687-1.923-2.669C84.837,87.97,84.903,88.173,86.331,89.941z"/>
</svg>
