<svg version="1.1" id="svg" xmlns="http://www.w3.org/2000/svg" xmlns:xlink="http://www.w3.org/1999/xlink" x="0px" y="0px"
	 width="200px" height="200px" viewBox="0 0 200 200" enable-background="new 0 0 200 200" xml:space="preserve">
<path class="stroke" fill="#672a19"  d="M192.625,70.112c-3.651-1.4-7.293-2.832-10.978-4.143c-2.279-0.812-4.662-1.334-6.939-2.151
	c-6.023-2.159-12.064-4.282-18.005-6.653c-7.673-3.062-15.284-6.291-22.866-9.574c-2.685-1.163-5.394-1.763-8.293-1.638
	c-3.229,0.14-6.459,0.267-9.689,0.395c-4.159,0.165-8.318,0.332-12.477,0.487c-5.781,0.215-11.562,0.48-17.345,0.61
	c-4.475,0.101-8.955-0.04-13.431,0.051c-4.722,0.095-9.444,0.289-14.162,0.527c-5.214,0.263-10.438,0.476-15.631,0.982
	c-5.741,0.561-11.467,1.325-17.17,2.196c-4.439,0.678-8.882,1.066-13.366,1.138c-1.189,0.019-2.342,0.298-3.132,1.201
	c-0.032,0.647-0.062,1.203-0.084,1.758c-0.134,3.351-0.346,6.701-0.382,10.052C8.612,71.012,8.819,76.68,8.628,82.335
	c-0.297,8.773,0.131,17.53,0.262,26.293c0.124,8.335,0.324,16.669,0.415,25.004c0.062,5.655-0.036,11.311-0.007,16.966
	c0.02,4.029,0.13,8.058,0.2,12.079c2.896,1.224,5.726,1.645,8.361,1.11c7.142-3.458,14.396-5.769,21.08-8.201
	c2.157,0.222,3.879,0.561,5.597,0.544c4.592-0.043,8.861-1.102,12.302-4.435c0.795-0.771,1.721-1.405,2.493-2.028
	c7.003,0.143,13.823,0.282,20.643,0.421c-3.513,0.583-7.02,0.979-10.538,1.173c-3.465,0.191-6.941,0.174-10.324,0.994
	c0.01,0.145,0.019,0.288,0.028,0.433c5.673,0,11.347,0,17.281,0c-0.363,0.242-0.457,0.358-0.559,0.365
	c-5.517,0.411-11.032,0.833-16.551,1.204c-2.112,0.141-4.215,0.269-6.244,0.869c0.01,0.155,0.021,0.31,0.031,0.465
	c6.697,0,13.393,0,20.091,0c0.006,0.124,0.012,0.248,0.019,0.372c-0.719,0.138-1.433,0.345-2.158,0.405
	c-6.379,0.525-12.76,1.031-19.142,1.529c-3.652,0.285-7.308,0.539-10.96,0.826c-0.2,0.015-0.387,0.2-0.896,0.48
	c0.563,0.086,0.779,0.147,0.995,0.149c3.234,0.04,6.469,0.111,9.703,0.099c6.775-0.027,13.505-0.994,20.306-0.79
	c5.523,0.166,11.062-0.209,16.594-0.314c8.769-0.167,17.539-0.318,26.309-0.454c2.666-0.041,5.332-0.006,8.071-0.006
	c0.267,0.978,0.523,1.916,0.754,2.76c0.324,0.146,0.487,0.239,0.664,0.293c0.237,0.073,0.482,0.156,0.727,0.165
	c3.674,0.126,7.454,1.16,10.841-1.243c0.145-0.103,0.354-0.11,0.529-0.174c3.442-1.251,6.905-2.453,10.322-3.77
	c5.97-2.3,11.94-4.601,17.856-7.033c6.035-2.48,11.987-5.159,18.008-7.674c3.435-1.435,6.633-3.43,10.301-4.322
	c0.631-0.154,1.183-0.63,1.674-0.904c0-21.799,0-43.425,0-65.167C193.236,70.505,192.957,70.239,192.625,70.112z M31.295,131.087
	c7.776,0.165,15.323,0.562,22.857-0.206c-7.345,1.563-14.686,3.072-22.442,1.954C31.595,132.348,31.477,131.853,31.295,131.087z
	 M112.458,133.288c-0.476,2.747-0.996,5.491-1.67,8.193c-0.149,0.599-0.903,1.204-1.525,1.501c-2.581,1.235-5.214,2.275-8.167,2.351
	c-6.523,0.164-13.043,0.427-19.564,0.682c-4.778,0.188-9.555,0.452-14.333,0.634c-2.11,0.08-4.226,0.011-6.338,0.059
	c-5.653,0.126-11.305,0.326-16.958,0.401c-2.745,0.036-5.455-0.348-8.063-1.297c-1.007-0.367-1.531-1.026-2-2.01
	c-1.365-2.866-1.44-5.953-2.114-9.203c1.099,0.048,1.936,0.085,2.621,0.115c1.445,2.237,2.782,4.324,4.137,6.4
	c1.098,1.683,2.662,2.562,4.672,2.627c5.717,0.187,11.433,0.494,17.149,0.511c4.349,0.013,8.696-0.404,13.047-0.523
	c6.838-0.186,13.68-0.264,20.519-0.434c1.236-0.031,2.472-0.25,3.7-0.438c1.405-0.216,2.806-0.474,4.201-0.751
	c1.385-0.276,2.55-0.828,3.258-2.206c1.332-2.591,2.771-5.127,4.27-7.875c0.845-0.194,1.689-0.387,2.798-0.642
	C112.235,132.057,112.558,132.709,112.458,133.288z M56.522,128.667c10.242-1.502,20.562-1.606,31.073-1.712
	c0,1.979,0,3.739,0,5.515c-0.305,0.116-0.531,0.268-0.763,0.279c-3.104,0.157-6.218,0.527-9.309,0.384
	c-4.668-0.216-9.299,0.125-13.945,0.327c-2.162,0.094-4.333,0.016-6.715,0.016C56.136,131.963,56.201,130.448,56.522,128.667z
	 M115.371,128.22c-2.342,0.522-4.591,1.468-6.873,2.252c-1.759,0.604-3.357,0.096-5.017-0.548c2.787-0.597,5.6-0.847,8.123-1.836
	c2.548-0.999,4.807-2.731,7.277-4.191c0.248,0.414,0.456,0.763,0.673,1.125C118.505,126.641,117.338,127.782,115.371,128.22z
	 M112.527,113.606c-3.112-2.25-6.808-1.594-10.37-1.728c-1.488-0.056-2.98-0.009-4.928-0.009c2.7-1.561,5.083-2.938,7.465-4.316
	c-0.07-0.131-0.14-0.262-0.21-0.393c-4.466,0.917-8.304,3.311-12.164,5.449c-6.486-1.688-12.98-1.951-19.526-1.53
	c-2.543,0.164-5.09,0.291-7.625,0.543c-2.284,0.228-4.551,0.62-6.831,0.903c-0.586,0.073-1.189,0.011-1.822,0.011
	c0.39-2.085,0.749-4.002,1.095-5.848c-0.935-0.476-1.14,0.011-1.308,0.488c-0.473,1.349-0.912,2.709-1.389,4.057
	c-0.204,0.576-0.468,1.13-0.747,1.792c-4.114-0.358-8.126-0.343-12.011,1.009c-0.11,0.784,0.349,0.843,0.9,0.813
	c1.799-0.095,3.599-0.236,5.399-0.261c1.922-0.026,3.846,0.103,5.768,0.076c1.175-0.016,2.371-0.084,3.517-0.324
	c8.095-1.695,16.29-1.907,24.507-1.621c2.348,0.082,4.69,0.519,7.021,0.886c0.834,0.132,1.625,0.542,2.632,0.893
	c3.593-1.032,7.508-0.881,11.463-0.67c-0.95,0.148-1.9,0.294-2.85,0.443c-1.473,0.232-2.947,0.456-4.417,0.708
	c-0.299,0.051-0.65,0.138-0.856,0.334c-2.09,2-4.706,3.521-5.877,6.365c-0.162,0.394-0.268,0.811-0.406,1.236
	c0.926,0.948,2.121,0.862,3.167,0.834c4.414-0.121,8.827-0.312,13.233-0.597c2.817-0.183,4.805-2.8,4.358-5.562
	c-0.137-0.848-0.434-1.669-0.671-2.552c-0.945-0.406-1.821-0.783-2.697-1.16c1.65-0.121,3.259-0.247,4.762,0.849
	c1.326,1.792,1.146,3.827,0.522,5.938c-0.58,1.962-1.081,3.948-1.643,6.021c-2.301,1.085-15.555,1.971-20.446,1.285
	c-0.132-0.747-0.27-1.53-0.405-2.295c-1.08-0.452-10.086-0.464-17.049-0.005c-5.675,0.374-11.348,0.784-17.045,1.179
	c-0.201,0.791-0.366,1.444-0.526,2.078c-2.848,0.851-19.634,1.03-23.423,0.212c-0.046-0.591-0.187-1.253-0.132-1.898
	c0.359-4.217,1.746-7.956,4.952-10.917c2.967-2.74,6.371-4.749,10.06-6.302c3.253-1.369,6.541-2.657,9.821-3.964
	c0.509-0.203,1.05-0.432,1.584-0.45c4.6-0.159,9.202-0.248,13.802-0.405c3.419-0.117,6.841-0.241,10.253-0.474
	c7.696-0.524,15.404-0.655,23.105-0.463c5.826,0.145,11.418,1.64,17.041,3.836C118.448,110.006,115.547,111.771,112.527,113.606z
	 M106.118,115.845c0.537,0.154,0.934,0.267,1.516,0.434c0.149,1.069,0.298,2.136,0.439,3.147c-0.776,0.744-1.157,1.691-2.432,1.587
	C105.795,119.344,105.945,117.716,106.118,115.845z M103.653,121.587c-3.97,0.157-7.999,0.317-12.028,0.477
	c-0.097-0.183-0.194-0.365-0.292-0.549c0.554-0.714,1.082-1.451,1.672-2.135c0.361-0.419,0.865-0.716,1.221-1.139
	c1.061-1.256,2.438-1.867,4.025-2.056c1.891-0.227,3.787-0.417,5.757-0.632C104.663,117.642,104.37,119.478,103.653,121.587z
	 M122.474,97.72c-1.562,0-2.956,0-4.391,0c-0.136-0.66-0.248-1.263-0.385-1.861c-0.391-1.708-1.802-2.935-3.541-2.98
	c-3.488-0.093-6.96,0.083-10.487,0.844c-0.448,0.381-0.964,0.821-1.458,1.242c-0.171,0.816-0.334,1.592-0.505,2.409
	c-2.875,0.287-5.629,0.563-8.458,0.846c-0.207-0.707-0.369-1.228-0.512-1.754c-0.534-1.953-1.685-2.929-3.721-3.03
	c-2.688-0.133-5.334,0.154-7.923,0.926c-2.348,0.701-4.072,2.077-4.905,4.448c-0.101,0.286-0.262,0.552-0.432,0.903
	c-5.523,1.455-11.054,2.913-16.585,4.37c-0.104-0.146-0.206-0.292-0.309-0.438c0.947-1.324,1.855-2.677,2.846-3.967
	c2.854-3.716,6.191-6.967,9.884-9.83c2.102-1.629,4.57-2.448,7.248-2.646c5.08-0.376,10.151-0.881,15.235-1.174
	c2.973-0.172,5.963-0.02,8.946-0.048c3.667-0.036,7.334-0.18,11-0.143c2.922,0.029,5.821,0.369,8.818,1.653
	C122.716,90.935,122.598,94.264,122.474,97.72z"/>
<path class="stroke" fill="#672a19"  d="M61.82,124.258c1.364-0.056,2.723-0.249,4.086-0.351c1.899-0.142,3.802-0.255,5.797-0.387
	c1.024-2.665,0.829-5.297,0.301-8.056c-1.005-0.165-1.794-0.418-2.577-0.4c-3.851,0.089-7.7,0.221-11.547,0.415
	c-0.603,0.03-1.187,0.454-1.917,0.751c1.012,2.234,1.924,4.072,2.679,5.972C59.24,123.708,60.315,124.32,61.82,124.258z
	 M70.292,117.529c0.094,0.002,0.188,0.006,0.283,0.008c0,1.312,0,2.623,0,3.935c-0.094,0.001-0.188,0.003-0.283,0.004
	C70.292,120.161,70.292,118.845,70.292,117.529z M68.032,117.427c0.544,1.198,0.584,2.22,0,3.987
	C68.032,120.082,68.032,118.749,68.032,117.427z M65.639,117.023c0.13-0.005,0.26-0.011,0.391-0.017
	c0.125,1.596,0.25,3.192,0.375,4.789C65.503,120.844,65.292,118.867,65.639,117.023z M63.729,117.256
	c0.078,1.541,0.157,3.082,0.235,4.623c-0.15,0.014-0.299,0.028-0.449,0.042c-0.15-1.55-0.302-3.101-0.453-4.651
	C63.285,117.265,63.507,117.261,63.729,117.256z M61.08,117.296c0.504,1.643,0.607,3.285,0.418,4.949
	C60.686,120.646,60.829,118.963,61.08,117.296z M58.923,117.125c0.066,0.269,0.133,0.537,0.2,0.807
	c-0.1,0.037-0.201,0.074-0.301,0.111c-0.116-0.247-0.233-0.495-0.35-0.743C58.623,117.241,58.772,117.183,58.923,117.125z"/>
<path class="stroke" fill="#672a19"  d="M34.83,120.404c-0.247,1.178-0.766,2.797,0.12,4.717c0.768,0.066,1.507,0.233,2.228,0.174
	c5.389-0.445,10.775-0.923,16.161-1.423c0.652-0.06,1.287-0.309,2.164-0.529c-0.708-2.66-2.172-4.764-2.93-7.006
	c-0.657-0.379-1.139-0.657-1.801-1.039c-2.387,0.111-4.928,0.316-7.471,0.33C39.746,115.646,36.869,116.836,34.83,120.404z
	 M39.803,117.811c3.841-0.546,7.518-0.765,11.337-0.593c0.7,1.667,1.383,3.293,2.165,5.156c-4.825,0.387-9.359,0.75-14.16,1.136
	C39.369,121.569,39.577,119.771,39.803,117.811z"/>
<path class="stroke" fill="#672a19"  d="M84.113,123.689c1.115-0.022,1.895-0.603,2.458-1.454c0.818-1.238,1.573-2.521,2.292-3.821
	c0.349-0.631,0.555-1.342,0.786-1.918c-0.695-1.255-1.724-1.454-2.8-1.498c-3.902-0.163-7.804-0.328-11.708-0.427
	c-0.594-0.015-1.195,0.318-1.492,0.402c0,2.939,0,5.511,0,8.416c1.35,0.201,2.371,0.477,3.391,0.48
	C79.398,123.878,81.755,123.735,84.113,123.689z M84.888,117.462c0-0.027,0.148-0.055,0.378-0.136
	c0.126,1.068,0.244,2.075,0.363,3.082C84.483,119.579,84.896,118.481,84.888,117.462z M82.393,116.341
	c0.858,0.989,1.076,3.135,0.512,5.326C82.417,119.986,82.267,118.299,82.393,116.341z M80.708,121.918
	c-0.154,0.009-0.309,0.019-0.463,0.027c-0.104-1.65-0.207-3.301-0.333-5.322C80.702,117.857,80.951,120.021,80.708,121.918z
	 M77.824,116.759c0.131,0.008,0.262,0.015,0.393,0.023c0,1.664,0,3.329,0,4.857C77.759,120.906,77.564,118.885,77.824,116.759z
	 M75.492,121.909c-0.387-1.724-0.286-3.458-0.104-5.195c0.154-0.007,0.308-0.013,0.462-0.02c0.11,1.726,0.22,3.452,0.33,5.177
	C75.951,121.884,75.722,121.896,75.492,121.909z"/>
<path fill-rule="evenodd" clip-rule="evenodd" fill="#ffc524" class="fill" d="M129.01,49.172c0.103,0.454,0.194,0.688,0.203,0.924
	c0.223,5.836,0.558,11.672,0.618,17.51c0.058,5.597-0.239,11.196-0.259,16.795c-0.036,10.142,0.083,20.285,0.004,30.426
	c-0.035,4.533-0.481,9.061-0.578,13.595c-0.092,4.286-0.114,8.583,0.094,12.863c0.263,5.405,0.223,10.797,0.142,16.235
	c-1.402,0.503-2.646-0.039-4.094,0.077c-0.108-3.029-0.306-5.873-0.292-8.715c0.03-5.84,0.162-11.68,0.273-17.519
	c0.086-4.475,0.244-8.949,0.303-13.424c0.061-4.664,0.063-9.329,0.055-13.993c-0.018-9.579-0.07-19.159-0.089-28.739
	c-0.013-6.652,0.009-13.305,0.005-19.957c-0.001-0.734-0.071-1.469-0.102-2.079c-1.198-1.305-2.711-1.092-3.974-1.059
	c-3.901,0.103-7.795,0.472-11.691,0.743c-2.479,0.173-4.955,0.394-7.435,0.527c-6.639,0.354-13.281,0.656-19.92,1.011
	c-5.213,0.279-10.425,0.565-15.633,0.922c-8.68,0.596-17.396,0.681-26.02,2.075c-2.936,0.475-5.943,0.687-8.918,0.689
	c-4.507,0.004-8.906,0.827-13.344,1.364c-0.695,0.084-1.35,0.511-2.081,0.801c-0.072,2.817-0.196,5.484-0.198,8.151
	c-0.004,5.722,0.133,11.445,0.065,17.166c-0.071,6.09-0.385,12.178-0.458,18.268c-0.082,6.779-0.063,13.562,0.007,20.341
	c0.052,5.032,0.312,10.062,0.375,15.093c0.069,5.348,0.022,10.698,0.014,16.046c-0.001,1.299-0.027,2.6-0.088,3.897
	c-0.023,0.48-0.178,0.955-0.317,1.65c-1.143-0.06-2.21-0.117-3.519-0.186c-0.045-2.253-0.115-4.286-0.123-6.319
	c-0.019-4.846,0.012-9.692-0.016-14.539c-0.032-5.66-0.107-11.319-0.159-16.979c-0.017-1.928,0-3.857-0.033-5.785
	c-0.101-5.72-0.274-11.44-0.308-17.161c-0.019-3.229,0.213-6.459,0.27-9.69c0.052-2.984,0.002-5.97,0.031-8.955
	c0.055-5.718,0.112-11.436,0.21-17.153c0.047-2.787,0.188-5.572,0.292-8.521c1.611-0.257,3.123-0.593,4.651-0.728
	c7.802-0.688,15.605-1.357,23.413-1.965c3.658-0.284,7.332-0.367,10.993-0.629c5.519-0.396,11.03-0.89,16.547-1.299
	c1.921-0.143,3.853-0.138,5.778-0.233c7.145-0.354,14.288-0.727,21.433-1.082c6.274-0.312,12.546-0.756,18.824-0.865
	C118.924,48.687,123.896,49.021,129.01,49.172z"/>
<path fill-rule="evenodd" clip-rule="evenodd" fill="#ffc524" class="fill" d="M122.519,54.594c0.15,1.478,0.278,2.75,0.424,4.195
	c-1.856,0.196-3.503,0.461-5.158,0.526c-4.287,0.169-8.586,0.125-12.866,0.39c-9.861,0.611-19.746,0.908-29.566,2.135
	c-2.399,0.3-4.836,0.28-7.253,0.453c-4.896,0.348-9.792,0.696-14.684,1.104c-4.212,0.351-8.419,0.768-12.626,1.188
	c-2.411,0.241-4.812,0.566-7.222,0.817c-3.457,0.361-6.919,0.669-10.375,1.04c-1.661,0.178-3.312,0.45-4.963,0.678
	c-0.463-1.288-0.537-2.655-0.253-4.996c1.337-0.798,2.935-0.701,4.44-0.883c5.671-0.685,11.348-1.347,17.033-1.902
	c7.236-0.707,14.476-1.412,21.728-1.91c6.2-0.426,12.423-0.523,18.632-0.83c6.333-0.312,12.662-0.729,18.996-1.05
	c5.153-0.261,10.311-0.443,15.467-0.668c1.926-0.084,3.849-0.202,5.775-0.284C120.779,54.569,121.515,54.594,122.519,54.594z"/>
<path fill-rule="evenodd" clip-rule="evenodd" fill="#ffc524" class="fill" d="M17.997,73.368c0-1.676,0-2.968,0-4.371
	c1.468-0.862,3.181-0.864,4.82-1.049c5.682-0.641,11.373-1.219,17.062-1.792c4.513-0.455,9.028-0.902,13.547-1.289
	c3.96-0.338,7.925-0.608,11.892-0.87c2.853-0.189,5.713-0.268,8.564-0.478c6.694-0.492,13.382-1.079,20.078-1.542
	c6.133-0.425,12.271-0.807,18.413-1.073c3.458-0.15,6.927-0.027,10.645-0.027c0.078,1.362,0.156,2.745,0.238,4.186
	c-0.463,0.116-0.75,0.241-1.042,0.253c-3.854,0.154-7.712,0.242-11.562,0.448c-6.395,0.341-12.788,0.729-19.178,1.146
	c-8.871,0.579-17.745,1.125-26.605,1.834c-5.821,0.466-11.618,1.222-17.431,1.798c-4.02,0.399-8.056,0.645-12.071,1.083
	c-4.815,0.527-9.614,1.204-14.424,1.77C20.051,73.5,19.134,73.385,17.997,73.368z"/>
<path fill-rule="evenodd" clip-rule="evenodd" fill="#ffc524" class="fill" d="M147.422,152.168c-1.509,0.539-2.895,1.033-4.488,1.602
	c-0.102-0.616-0.233-1.067-0.242-1.521c-0.061-3.17-0.076-6.342-0.145-9.513c-0.124-5.714-0.314-11.426-0.406-17.14
	c-0.156-9.632-0.276-19.265-0.377-28.897c-0.082-7.77-0.104-15.541-0.167-23.311c-0.034-4.102-0.079-8.206-0.169-12.307
	c-0.028-1.237-0.247-2.469-0.342-3.706c-0.046-0.6-0.008-1.206-0.008-2.105c1.536,0.57,2.794,1.037,4.155,1.542
	c0,0.782,0.042,1.455-0.007,2.121c-0.436,5.91,0.011,11.805,0.252,17.705c0.215,5.28,0.378,10.563,0.603,15.843
	c0.207,4.844,0.511,9.685,0.688,14.53c0.252,6.896,0.489,13.793,0.623,20.692c0.135,7.017,0.145,14.036,0.19,21.054
	C147.588,149.806,147.486,150.858,147.422,152.168z"/>
<path fill-rule="evenodd" clip-rule="evenodd" fill="#ffc524" class="fill" d="M164.999,145.383c-1.354,0.546-2.715,1.096-4.204,1.697
	c-0.153-0.521-0.327-0.854-0.337-1.192c-0.092-3.038-0.225-6.077-0.209-9.115c0.022-4.465,0.241-8.93,0.219-13.395
	c-0.028-5.525-0.267-11.049-0.325-16.575c-0.067-6.46,0.022-12.922-0.069-19.383c-0.073-5.157-0.342-10.311-0.475-15.467
	c-0.077-2.974-0.061-5.95-0.071-8.925c-0.001-0.229,0.111-0.457,0.226-0.896c1.534,0.451,2.994,0.881,4.511,1.327
	c0.118,0.542,0.299,1.013,0.312,1.488c0.148,5.466,0.33,10.933,0.389,16.401c0.101,9.448,0.067,18.898,0.195,28.346
	c0.08,5.904,0.386,11.804,0.517,17.708c0.044,1.985-0.142,3.975-0.219,5.962C165.307,137.275,165.159,141.185,164.999,145.383z"/>
<path fill-rule="evenodd" clip-rule="evenodd" fill="#ffc524" class="fill" d="M146.793,57.465c1.867,0.665,3.295,1.174,4.843,1.726
	c0.077,1.584,0.189,3.062,0.214,4.541c0.098,5.842,0.189,11.685,0.243,17.528c0.041,4.54-0.045,9.082,0.046,13.621
	c0.114,5.657,0.379,11.311,0.525,16.968c0.088,3.419,0.07,6.841,0.111,10.261c0.024,1.989,0.098,3.978,0.105,5.966
	c0.012,3.729-0.007,7.459-0.013,11.188c-0.005,3.229-0.005,6.457-0.021,9.685c-0.002,0.365-0.094,0.729-0.163,1.235
	c-1.04,0.425-2.099,0.857-3.441,1.406c0-2.007,0.001-3.669,0-5.33c-0.003-4.415,0.075-8.831-0.026-13.243
	c-0.2-8.636-0.469-17.271-0.768-25.904c-0.213-6.152-0.507-12.301-0.792-18.451c-0.268-5.771-0.659-11.539-0.836-17.312
	C146.684,66.886,146.793,62.415,146.793,57.465z"/>
<path fill-rule="evenodd" clip-rule="evenodd" fill="#ffc524" class="fill" d="M158.727,147.824c-1.333,0.551-2.573,1.063-4.043,1.672
	c-0.062-0.812-0.136-1.341-0.138-1.871c-0.019-6.531,0.031-13.064-0.055-19.595c-0.085-6.462-0.362-12.922-0.454-19.385
	c-0.128-9.014-0.135-18.029-0.25-27.043c-0.064-5.033-0.256-10.064-0.36-15.096c-0.044-2.098-0.007-4.196-0.007-6.516
	c1.595,0.494,2.938,0.911,4.296,1.332c0.08,0.473,0.189,0.831,0.194,1.189c0.069,4.604,0.123,9.209,0.18,13.813
	c0.13,10.577,0.241,21.154,0.396,31.729c0.072,4.914,0.32,9.826,0.325,14.738c0.005,5.403-0.21,10.807-0.263,16.211
	c-0.023,2.42,0.116,4.843,0.178,7.264C158.736,146.701,158.727,147.134,158.727,147.824z"/>
<path fill-rule="evenodd" clip-rule="evenodd" fill="#ffc524" class="fill" d="M136.206,53.175c1.156,0.519,2.046,0.919,2.997,1.346
	c0.201,2.413,0.522,4.757,0.568,7.106c0.141,7.146,0.161,14.295,0.253,21.442c0.105,8.142,0.255,16.284,0.35,24.426
	c0.063,5.41-0.004,10.82,0.107,16.229c0.148,7.201,0.438,14.399,0.614,21.6c0.073,2.974,0.013,5.952,0.013,9.126
	c-1.313,0.452-2.574,0.886-3.983,1.371c-0.121-0.546-0.286-0.944-0.285-1.342c0.008-4.287,0.056-8.574,0.064-12.861
	c0.007-4.039-0.001-8.078-0.04-12.117c-0.038-3.916-0.187-7.831-0.176-11.746c0.021-8.2,0.156-16.396-0.061-24.6
	c-0.309-11.68-0.298-23.368-0.419-35.053C136.191,56.564,136.206,55.024,136.206,53.175z"/>
<path fill-rule="evenodd" clip-rule="evenodd" fill="#ffc524" class="fill" d="M171.25,142.8c-1.547,0.619-2.787,1.116-4.234,1.695
	c-0.066-0.795-0.148-1.273-0.138-1.75c0.08-3.854,0.264-7.708,0.249-11.562c-0.023-5.845-0.18-11.688-0.282-17.533
	c-0.051-2.92-0.133-5.84-0.158-8.76c-0.055-6.342-0.047-12.684-0.134-19.026c-0.086-6.275-0.259-12.55-0.389-18.825
	c-0.017-0.798-0.002-1.597-0.002-2.747c1.645,0.485,3.027,0.893,4.535,1.338c0,1.909-0.04,3.647,0.008,5.382
	c0.108,3.98,0.348,7.958,0.375,11.939c0.052,7.589-0.062,15.18-0.005,22.769c0.054,7.214,0.294,14.426,0.345,21.64
	C171.457,132.452,171.314,137.543,171.25,142.8z"/>
<path fill-rule="evenodd" clip-rule="evenodd" fill="#ffc524" class="fill" d="M176.763,140.321c-1.266,0.515-2.454,0.999-3.915,1.593
	c0-1.144-0.047-2.051,0.008-2.953c0.33-5.393,0.196-10.781,0.049-16.178c-0.212-7.825-0.265-15.654-0.299-23.482
	c-0.024-5.521,0.181-11.043,0.123-16.564c-0.043-3.973-0.369-7.942-0.532-11.915c-0.059-1.415-0.01-2.833-0.01-4.338
	c1.416-0.132,2.34,0.495,3.436,0.97c0.098,0.787,0.249,1.577,0.286,2.372c0.175,3.725,0.394,7.45,0.458,11.177
	c0.177,10.191,0.311,20.383,0.407,30.576c0.055,5.717-0.018,11.435,0.01,17.152c0.014,2.917,0.146,5.834,0.178,8.752
	C176.975,138.404,176.838,139.326,176.763,140.321z"/>
<path fill-rule="evenodd" clip-rule="evenodd" fill="#ffc524" class="fill" d="M134.921,156.329c-0.79,0.269-1.481,0.503-2.268,0.771
	c-0.106-0.305-0.248-0.523-0.248-0.741c0.015-5.904,0.089-11.81,0.055-17.714c-0.032-5.658-0.267-11.316-0.243-16.975
	c0.023-5.533,0.284-11.065,0.393-16.599c0.04-2.05-0.083-4.104-0.086-6.155c-0.009-4.728-0.142-9.461,0.05-14.182
	c0.372-9.141-0.011-18.263-0.292-27.392c-0.053-1.722,0.086-3.451,0.143-5.388c0.73,0.195,1.225,0.327,1.8,0.48
	c0.084,0.974,0.211,1.831,0.225,2.69c0.11,6.837,0.207,13.675,0.292,20.513c0.085,6.898,0.179,13.797,0.22,20.696
	c0.044,7.461,0.004,14.922,0.053,22.383c0.049,7.401,0.208,14.801,0.234,22.203c0.019,4.909-0.11,9.819-0.18,14.729
	C135.066,155.831,134.992,156.011,134.921,156.329z"/>
<path fill-rule="evenodd" clip-rule="evenodd" fill="#ffc524" class="fill" d="M177.295,67.908c1.53,0.571,2.667,0.996,3.766,1.406
	c0.166,4.555,0.188,8.91,0.509,13.243c0.746,10.073-0.389,20.137-0.004,30.203c0.161,4.222,0.497,8.438,0.605,12.66
	c0.105,4.16,0.023,8.324,0.023,12.715c-1.013,0.437-2.118,0.913-3.417,1.475c-0.104-0.741-0.238-1.265-0.244-1.791
	c-0.07-6.152-0.155-12.305-0.17-18.457c-0.019-7.578,0.132-15.157,0.012-22.732c-0.134-8.449-0.483-16.895-0.757-25.341
	C177.584,70.311,177.435,69.336,177.295,67.908z"/>
<path fill-rule="evenodd" clip-rule="evenodd" fill="#ffc524" class="fill" d="M182.893,69.92c1.189,0.365,2.066,0.635,2.951,0.906
	c0.09,0.311,0.211,0.54,0.216,0.772c0.157,6.397,0.371,12.792,0.434,19.19c0.116,11.811,0.138,23.624,0.211,35.436
	c0.018,2.859,0.087,5.716,0.122,8.575c0.005,0.486-0.05,0.972-0.083,1.567c-0.846,0.269-1.648,0.523-2.678,0.851
	c-0.083-2.653-0.156-5.12-0.24-7.586c-0.134-3.972-0.201-7.948-0.431-11.915c-0.394-6.767-0.255-13.525-0.121-20.297
	c0.14-7.076-0.241-14.163-0.375-21.245C182.861,74.202,182.893,72.229,182.893,69.92z"/>
<path fill-rule="evenodd" clip-rule="evenodd" fill="#ffc524" class="fill" d="M20.781,159.353c-0.54,0.174-1.037,0.333-1.654,0.532
	c-1.2-27.964,0.498-55.71,0.437-83.505c0.476-0.119,0.752-0.189,1.135-0.285c0.123,0.349,0.298,0.621,0.302,0.894
	c0.035,2.612,0.044,5.225,0.053,7.837c0.028,8.147,0.068,16.295,0.067,24.442c0,2.177-0.158,4.353-0.195,6.529
	c-0.117,6.838-0.207,13.678-0.316,20.517c-0.041,2.549-0.182,5.098-0.15,7.646c0.056,4.476,0.211,8.949,0.321,13.424
	C20.794,157.996,20.781,158.608,20.781,159.353z"/>
<path fill-rule="evenodd" clip-rule="evenodd" fill="#ffc524" class="fill" d="M27.48,157.002c-0.536,0.207-0.979,0.378-1.452,0.562
	c-0.138-0.239-0.292-0.385-0.3-0.538c-0.044-0.931-0.054-1.863-0.08-2.795c-0.225-8.018-0.526-16.034-0.645-24.053
	c-0.066-4.473,0.222-8.95,0.252-13.426c0.02-2.983-0.235-5.968-0.191-8.95c0.09-6.092,0.359-12.182,0.438-18.274
	c0.051-3.914-0.107-7.831-0.167-11.747c-0.011-0.672-0.001-1.346-0.001-2.097c0.391-0.077,0.67-0.132,1.034-0.204
	c0.08,0.435,0.184,0.786,0.203,1.143c0.146,2.794,0.367,5.588,0.392,8.383c0.041,4.477-0.044,8.954-0.088,13.43
	c-0.066,6.712-0.2,13.425-0.193,20.137c0.004,4.413,0.216,8.825,0.319,13.238c0.186,7.958,0.36,15.917,0.535,23.875
	C27.545,156.056,27.506,156.426,27.48,157.002z"/>
<path fill-rule="evenodd" clip-rule="evenodd" fill="#ffc524" class="fill" d="M190.055,134.71c-0.379,0.164-0.792,0.342-1.337,0.578
	c-1.396-21.268,0.042-42.367-0.984-63.706c0.99,0.352,1.67,0.595,2.321,0.826C190.055,93.202,190.055,113.881,190.055,134.71z"/>
<path fill-rule="evenodd" clip-rule="evenodd" fill="#ffc524" class="fill" d="M23.983,158.223c-0.51,0.163-0.9,0.288-1.354,0.433
	c-0.116-0.317-0.264-0.538-0.269-0.761c-0.067-3.044-0.143-6.087-0.162-9.132c-0.033-5.209-0.094-10.418-0.021-15.626
	c0.1-7.077,0.354-14.152,0.464-21.229c0.05-3.228-0.133-6.459-0.133-9.689c0-3.414,0.115-6.826,0.139-10.24
	c0.034-4.967,0.028-9.934,0.053-14.901c0.002-0.388,0.11-0.775,0.169-1.163c0.141-0.019,0.282-0.038,0.423-0.057
	c0.116,0.478,0.319,0.951,0.336,1.432c0.132,3.666,0.365,7.334,0.309,10.998c-0.163,10.566-0.555,21.127-0.322,31.7
	c0.117,5.28-0.037,10.565,0.018,15.847c0.072,7.023,0.23,14.045,0.35,21.068C23.989,157.272,23.983,157.642,23.983,158.223z"/>
<path fill-rule="evenodd" clip-rule="evenodd" fill="#ffc524" class="fill" d="M39.608,110.771c-0.443,0.241-1.011,0.549-1.851,1.005
	c-0.617-12.578-0.521-24.846-0.43-37.317c0.726-0.111,1.356-0.208,2.281-0.35C39.608,86.363,39.608,98.396,39.608,110.771z"/>
<path fill-rule="evenodd" clip-rule="evenodd" fill="#ffc524" class="fill" d="M49.903,72.862c0.647-0.047,1.051-0.076,1.423-0.104
	c0.883,2.141,1.383,27.967,0.632,32.275c-0.347,0.14-0.77,0.311-1.458,0.589C50.299,94.585,50.102,83.779,49.903,72.862z"/>
<path fill-rule="evenodd" clip-rule="evenodd" fill="#ffc524" class="fill" d="M28.325,122.211c-0.048-4.524-0.139-9.049-0.131-13.574
	c0.006-3.663,0.117-7.325,0.209-10.987c0.04-1.609,0.234-3.22,0.208-4.828c-0.089-5.274-0.248-10.547-0.376-15.821
	c-0.012-0.486-0.001-0.973-0.001-1.573c0.521-0.06,0.914-0.105,1.318-0.152c0.101,0.252,0.225,0.417,0.224,0.583
	c-0.028,5.03-0.099,10.059-0.097,15.089c0.002,3.726,0.167,7.452,0.136,11.176c-0.049,5.775-0.183,11.549-0.334,17.322
	c-0.024,0.941-0.323,1.875-0.496,2.812C28.765,122.243,28.544,122.227,28.325,122.211z"/>
<path fill-rule="evenodd" clip-rule="evenodd" fill="#ffc524" class="fill" d="M43.847,73.67c0.617-0.055,1.022-0.091,1.688-0.151
	c0.127,11.401,0.253,22.677,0.379,33.989c-0.522,0.237-0.89,0.403-1.46,0.662c-0.128-0.806-0.313-1.456-0.322-2.106
	c-0.078-6.394-0.126-12.787-0.183-19.181c-0.035-3.905-0.068-7.81-0.102-11.715C43.844,74.739,43.847,74.31,43.847,73.67z"/>
<path fill-rule="evenodd" clip-rule="evenodd" fill="#ffc524" class="fill" d="M34.137,74.919c0.548-0.094,0.997-0.17,1.439-0.245
	c0.138,12.778,0.275,25.425,0.415,38.339c-0.146,0.112-0.509,0.391-1.138,0.875C34.16,100.801,34.019,88.002,34.137,74.919z"/>
<path fill-rule="evenodd" clip-rule="evenodd" fill="#ffc524" class="fill" d="M32.271,75.044c0.088,0.626,0.251,1.253,0.254,1.88
	c0.026,7.586-0.015,15.171,0.052,22.756c0.044,4.969,0.236,9.936,0.359,14.903c0.007,0.248,0.001,0.495,0.001,0.847
	c-0.419,0.466-0.866,0.964-1.659,1.847c-0.234-7.395,0.197-14.355,0.039-21.308c-0.214-9.434,0.043-19.953,0.51-20.867
	C31.975,75.083,32.123,75.064,32.271,75.044z"/>
<path fill-rule="evenodd" clip-rule="evenodd" fill="#ffc524" class="fill" d="M53.495,72.433c0.65,0,1.123,0,1.771,0c0,10.223,0,20.392,0,30.788
	c-0.29,0.204-0.704,0.494-1.35,0.947C53.774,93.45,53.636,83.057,53.495,72.433z"/>
<path fill-rule="evenodd" clip-rule="evenodd" fill="#ffc524" class="fill" d="M48.901,106.193c-0.3,0.243-0.471,0.426-0.681,0.537
	c-0.149,0.079-0.351,0.06-0.702,0.11c-0.134-11.176-0.268-22.298-0.403-33.562c0.378-0.054,0.712-0.101,1.244-0.175
	c0.089,5.593,0.175,11.084,0.265,16.576C48.715,95.198,48.81,100.717,48.901,106.193z"/>
<path fill-rule="evenodd" clip-rule="evenodd" fill="#ffc524" class="fill" d="M41.203,73.983c0.356-0.036,0.59-0.06,1.02-0.104
	c0.125,11.653,0.251,23.24,0.355,34.828c0.001,0.185-0.26,0.373-0.388,0.545c-0.903-0.278-0.734-1-0.763-1.568
	c-0.085-1.675-0.128-3.353-0.151-5.03c-0.062-4.472-0.121-8.943-0.15-13.415c-0.03-4.778-0.026-9.556-0.032-14.334
	C41.094,74.662,41.149,74.419,41.203,73.983z"/>
<path fill-rule="evenodd" clip-rule="evenodd" fill="#ffc524" class="fill" d="M59.813,96.991c0-8.426-0.002-16.581,0.019-24.736
	c0-0.174,0.282-0.347,0.412-0.496c0.865,0.24,0.655,0.895,0.668,1.407c0.045,1.737,0.05,3.474,0.068,5.21
	c0.054,5.082,0.11,10.165,0.159,15.248C61.149,94.784,61.328,96.008,59.813,96.991z"/>
<path fill-rule="evenodd" clip-rule="evenodd" fill="#ffc524" class="fill" d="M57.078,100.555c0-9.594,0-18.975,0-28.408
	c0.283-0.047,0.514-0.084,0.879-0.144c0.089,0.465,0.236,0.865,0.231,1.262c-0.039,2.796-0.148,5.591-0.162,8.386
	C58,87.245,58.03,92.837,58.005,98.43C58.001,99.107,58.261,99.944,57.078,100.555z"/>
<path fill-rule="evenodd" clip-rule="evenodd" fill="#ffc524" class="fill" d="M62.749,76.021c1.025,0.548,1.226,1.329,1.221,2.245
	c-0.011,2.17,0.009,4.342,0.012,6.513c0.003,2.542,0.001,5.083,0.001,7.724c-0.341,0.282-0.698,0.577-1.296,1.07
	C62.788,87.558,62.284,81.842,62.749,76.021z"/>
<path fill-rule="evenodd" clip-rule="evenodd" fill="#ffc524" class="fill" d="M63.393,70.283c0.562,0.312,0.962,0.4,1.087,0.636
	c0.228,0.428,0.266,0.951,0.426,1.42c0.601,1.762,1.307,2.338,3.151,2.236c3.41-0.189,6.817-0.457,10.22-0.763
	c0.638-0.057,1.245-0.45,1.923-0.708c0-1.236,0-2.342,0-3.584c0.458-0.138,0.877-0.263,1.688-0.505
	c-0.408,1.858-0.744,3.388-1.123,5.118c-1.41,0.172-2.742,0.384-4.083,0.489c-2.972,0.232-5.953,0.371-8.923,0.627
	c-2.158,0.187-2.723-0.076-3.608-2.078c-0.251-0.567-0.474-1.148-0.671-1.735C63.403,71.213,63.436,70.955,63.393,70.283z"/>
<path fill-rule="evenodd" clip-rule="evenodd" fill="#ffc524" class="fill" d="M31.46,155.605c-0.71,0.235-1.333,0.441-2.186,0.723
	c-0.486-1.852-0.129-3.574-0.227-5.254c-0.095-1.619-0.02-3.248-0.02-5.227C31.456,148.981,31.292,152.278,31.46,155.605z"/>
<path fill-rule="evenodd" clip-rule="evenodd" fill="#ffc524" class="fill" d="M65.896,90.855c-0.15-0.79-0.253-1.08-0.254-1.371
	c-0.011-3.891-0.007-7.782-0.007-11.763c0.369-0.095,0.694-0.178,0.962-0.247c0.167,0.177,0.319,0.263,0.32,0.35
	c0.039,3.761,0.095,7.523,0.053,11.284C66.964,89.572,66.423,90.029,65.896,90.855z"/>
<path fill-rule="evenodd" clip-rule="evenodd" fill="#ffc524" class="fill" d="M68.854,77.355c0.452,0.02,0.792,0.036,1.248,0.057
	c0,3.236,0,6.371,0,9.61c-0.312,0.179-0.658,0.378-1.248,0.717C68.854,84.188,68.854,80.892,68.854,77.355z"/>
<path fill-rule="evenodd" clip-rule="evenodd" fill="#ffc524" class="fill" d="M85.444,69.535c0.939,1.849,1.387,12.253,0.688,14.505
	c-0.227-0.399-0.502-0.663-0.515-0.938c-0.203-4.216-0.375-8.433-0.536-12.651C85.073,70.243,85.242,70.028,85.444,69.535z"/>
<path fill-rule="evenodd" clip-rule="evenodd" fill="#ffc524" class="fill" d="M90.727,69.277c0.098,0.281,0.223,0.556,0.287,0.844
	c0.066,0.301,0.096,0.613,0.104,0.922c0.109,3.779,0.215,7.557,0.312,11.336c0.006,0.229-0.07,0.461-0.121,0.776
	c-0.863-1.401-1.652-11.277-1.125-13.447C90.365,69.565,90.546,69.421,90.727,69.277z"/>
<path fill-rule="evenodd" clip-rule="evenodd" fill="#ffc524" class="fill" d="M78.297,76.933c0.571,2.527,0.663,5.061,0.522,7.661
	c-0.496,0-0.783,0-1.053,0C77.185,82.147,77.37,77.829,78.297,76.933z"/>
<path fill-rule="evenodd" clip-rule="evenodd" fill="#ffc524" class="fill" d="M74.747,77.031c0.379,0.02,0.66,0.035,1.049,0.055
	c0,2.594,0,5.099,0,7.715c-0.263,0.071-0.528,0.143-1.049,0.285C74.747,82.382,74.747,79.827,74.747,77.031z"/>
<path fill-rule="evenodd" clip-rule="evenodd" fill="#ffc524" class="fill" d="M88.088,70.068c0.105,0.435,0.303,0.87,0.3,1.305
	c-0.021,4.024,0.809,8.032,0.362,12.064C88.147,82.074,87.591,72.027,88.088,70.068z"/>
<path fill-rule="evenodd" clip-rule="evenodd" fill="#ffc524" class="fill" d="M71.805,77.333c0.37-0.043,0.6-0.07,1.059-0.124
	c0.023,2.834,0.054,5.593,0.046,8.353c0,0.132-0.341,0.263-0.797,0.591C71.768,83.065,71.67,80.232,71.805,77.333z"/>
<path fill-rule="evenodd" clip-rule="evenodd" fill="#ffc524" class="fill" d="M83.564,74.25c0.328,3.331,0.622,6.468,0.237,9.62
	c-0.142,0.015-0.283,0.029-0.424,0.043c-0.069-1.035-0.124-2.07-0.211-3.104c-0.093-1.107-0.281-2.21-0.31-3.317
	C82.83,76.451,82.372,75.287,83.564,74.25z"/>
<path fill-rule="evenodd" clip-rule="evenodd" fill="#ffc524" class="fill" d="M80.973,84.626c-0.631-2.027-0.863-6.835-0.386-8.354
	c0.27,0.322,0.574,0.528,0.645,0.796C81.75,79.013,81.636,83.438,80.973,84.626z"/>
<path fill-rule="evenodd" clip-rule="evenodd" fill="#ffc524" class="fill" d="M95.248,82.103c-0.014-3.949-0.668-7.891-0.068-11.856
	c0.896,1.185,0.332,2.522,0.438,3.78c0.116,1.353,0.072,2.72,0.083,4.081c0.01,1.351,0.002,2.702,0.002,4.053
	C95.551,82.141,95.399,82.123,95.248,82.103z"/>
<path fill-rule="evenodd" clip-rule="evenodd" fill="#ffc524" class="fill" d="M93.222,82.088c-0.179-3.277-0.341-6.255-0.522-9.564
	C93.385,73.65,93.59,78.769,93.222,82.088z"/>
<path fill-rule="evenodd" clip-rule="evenodd" fill="#ffc524" class="fill" d="M33.234,155.304c-0.125-1.101-0.208-1.828-0.312-2.748
	C33.828,153.415,33.828,153.415,33.234,155.304z"/>
<path fill-rule="evenodd" clip-rule="evenodd" fill="#ffc524" class="fill" d="M92.958,70.341c-0.013,0.188-0.026,0.376-0.039,0.564
	c-0.037-0.002-0.073-0.004-0.11-0.006c0-0.188,0-0.376,0-0.564C92.859,70.336,92.909,70.339,92.958,70.341z"/>
</svg>
