<svg version="1.1" id="svg" xmlns="http://www.w3.org/2000/svg" xmlns:xlink="http://www.w3.org/1999/xlink" x="0px" y="0px"
	 width="200px" height="200px" viewBox="0 0 200 200" enable-background="new 0 0 200 200" xml:space="preserve">
<path class="stroke" fill="#273f03"  fill-rule="evenodd" clip-rule="evenodd" d="M162.912,87.375c-2.823-2.391-5.768-4.62-8.948-6.512
	c-2.312-1.377-4.803-1.562-7.228-0.413c-2.106,0.998-4.094,2.248-6.131,3.39c-3.997,2.24-7.989,4.489-11.989,6.721
	c-1.047,0.584-2.119,1.123-3.139,1.661c-1.795-1.312-3.544-2.372-5.561-2.939c-3.2-0.901-6.435-1.609-9.725-2.109
	c-5.251-0.8-10.443-0.575-15.586,0.704c-2.267,0.563-4.502,1.257-6.764,1.843c-1.445,0.375-2.898,0.767-4.373,0.967
	c-3.239,0.439-6.18-0.608-9.045-1.994c-1.301-0.631-2.649-1.169-4-1.687c-1.511-0.578-3.049-1.086-4.71-1.673
	c0.334-0.267,0.521-0.479,0.755-0.593c2.184-1.067,4.38-2.109,6.565-3.177c0.871-0.427,1.776-0.598,2.726-0.44
	c3.685,0.61,7.376,1.185,11.045,1.879c1.831,0.347,3.609,0.966,5.429,1.388c1.792,0.415,3.41-0.712,3.501-2.504
	c0.083-1.62-0.394-3.125-1.958-3.908c-1.329-0.665-2.733-1.207-4.147-1.667c-4.317-1.405-8.668-2.604-13.255-2.858
	c-3.454-0.191-6.706,0.299-9.75,1.927c-2.141,1.145-4.2,2.443-6.345,3.579c-4.37,2.316-8.511,5.048-13.008,7.135
	c-2.514,1.167-4.778,2.738-7.032,4.72c-0.519,2.398-0.668,4.851,0.491,7.193c0.952,1.924,1.978,3.813,3.018,5.693
	c0.541,0.979,1.224,1.879,1.77,2.856c2.173,3.886,5.08,6.929,9.452,8.29c0.702,0.219,1.479,0.466,2.18,0.375
	c3.19-0.414,6.391-0.73,9.508-1.663c4.69-1.402,8.066-4.19,9.94-8.736c0.356-0.864,0.623-1.767,0.99-2.625
	c0.539-1.256,1.431-2.06,2.889-2.04c0.655,0.008,1.316-0.047,1.965,0.021c4.229,0.448,4.095,0.322,5.931,3.862
	c1.167,2.249,2.454,4.404,3.878,6.498c1.752,2.576,4.132,4.294,6.963,5.44c0.859,0.349,1.768,0.636,2.681,0.78
	c2.519,0.397,5.038,0.156,7.507-0.37c2.947-0.626,5.698-1.763,8.196-3.503c3.441-2.396,6.749-4.93,8.562-8.856
	c0.623-1.347,1.604-2.305,2.707-3.124c3.04-2.258,6.103-4.493,9.264-6.575c3.161-2.083,6.448-3.975,9.686-5.939
	c0.858-0.521,1.766-0.863,2.81-0.539c0.958,0.813,1.922,1.629,2.881,2.448c0.956,0.817,1.87,1.692,2.88,2.434
	c0.417,0.306,1.038,0.461,1.566,0.461c2.296-0.002,4.152-1.007,5.558-2.78c0.372-0.469,0.479-1.148,0.801-1.971
	C163.801,88.054,163.338,87.736,162.912,87.375z M69.414,105.693c-1.829,1.944-4.008,3.326-6.512,4.245
	c-1.618,0.594-3.097,0.363-4.564-0.439c-3.294-1.802-5.352-4.542-6.347-8.145c-0.492-1.782-0.834-3.544-0.195-5.42
	c1.541-0.994,3.116-1.994,4.673-3.021c1.051-0.692,2.101-1.392,3.108-2.146c0.681-0.509,1.348-0.682,2.21-0.548
	c2.359,0.365,4.679,0.797,6.823,1.932c1.855,0.981,3.026,2.432,3.427,4.506C72.708,100.122,71.831,103.125,69.414,105.693z
	 M116.922,102.996c-0.794,2.587-2.272,4.583-4.417,6.128c-1.655,1.191-3.548,1.879-5.529,2.269
	c-1.279,0.252-2.612,0.234-3.885,0.503c-1.529,0.323-2.698-0.314-3.667-1.277c-1.523-1.515-2.935-3.146-3.641-5.251
	c-0.178-0.529-0.433-1.035-0.684-1.535c-1.226-2.435-1.199-4.933-0.473-7.498c0.479-1.691,1.616-2.916,2.75-4.194
	c3.364-0.684,6.747-0.988,10.151-0.312c1.549,0.308,3.122,0.595,4.603,1.123C116.258,94.423,118.215,98.788,116.922,102.996z"/>
<path fill-rule="evenodd" clip-rule="evenodd" fill="#d1402e" class="fill" d="M42.271,91.28c2.096-0.753,4.15-1.511,6.22-2.225
	c0.925-0.319,1.896-0.503,2.819-0.827c5.667-1.994,11.335-2.105,17.059-0.199c2.004,0.668,3.971,1.36,5.788,2.466
	c1.25,0.76,2.638,1.193,4.103,1.354c0.558,0.062,1.134,0.075,1.667,0.23c2.688,0.778,5.271,0.136,7.855-0.521
	c2.717-0.691,5.43-1.402,8.146-2.1c0.271-0.069,0.548-0.143,0.824-0.154c3.316-0.138,6.633-0.363,9.949-0.353
	c1.76,0.005,3.536,0.335,5.274,0.673c2.978,0.577,5.955,1.187,8.885,1.965c1.28,0.34,2.48,1.059,3.646,1.73
	c1.616,0.93,2.033,2.497,1.86,4.233c-0.237,2.378-1.341,4.452-2.398,6.544c-1.912,3.783-5.298,5.957-8.735,8.078
	c-1.242,0.767-2.56,1.333-4.033,1.528c-0.638,0.086-1.253,0.365-1.871,0.578c-3.339,1.149-6.711,1.213-10.033,0.057
	c-2.019-0.703-3.611-2.111-4.985-3.745c-2.126-2.53-3.743-5.396-5.031-8.398c-1.215-2.832-3.471-3.645-6.151-3.789
	c-1.854-0.099-3.721,0.088-5.687,0.151c-0.549,1.014-1.106,1.923-1.544,2.886c-0.58,1.275-1.1,2.581-1.585,3.896
	c-0.646,1.752-1.885,3.004-3.369,4.02c-1.232,0.843-2.535,1.588-3.84,2.317c-0.431,0.24-0.964,0.299-1.453,0.433
	c-0.355,0.097-0.72,0.163-1.071,0.274c-0.704,0.223-1.388,0.605-2.105,0.676c-2.043,0.204-4.098,0.358-6.149,0.392
	c-1.823,0.029-3.321-0.875-4.63-2.071c-2.714-2.478-4.981-5.346-6.923-8.441c-1.368-2.181-2.164-4.651-2.828-7.139
	C41.559,94.355,41.93,92.943,42.271,91.28z M59.957,88.231c-0.702,0-1.407-0.045-2.105,0.008c-2.153,0.164-4.277,0.479-6.248,1.449
	c-0.996,0.492-1.756,1.167-2.207,2.235c-1.405,3.332-1.914,6.748-0.915,10.262c0.418,1.474,0.945,2.972,1.73,4.275
	c1.942,3.224,4.693,5.205,8.658,5.334c2.708,0.089,5.201-0.485,7.583-1.658c0.999-0.492,2.043-1.006,2.854-1.743
	c1.962-1.784,3.406-3.936,4.201-6.519c1.814-5.904-1.57-10.83-5.874-12.365C65.14,88.62,62.622,88.011,59.957,88.231z
	 M104.311,113.549c0.794-0.042,1.593-0.042,2.381-0.136c2.252-0.269,4.381-0.825,6.209-2.319c1.206-0.985,2.251-2.072,3.217-3.291
	c1.93-2.436,2.871-5.138,2.403-8.214c-0.215-1.415-0.719-2.791-1.141-4.168c-0.104-0.341-0.356-0.67-0.618-0.923
	c-2.001-1.935-4.369-3.239-7.107-3.709c-2.207-0.378-4.455-0.504-6.677-0.801c-2.875-0.385-5.528,0.697-8.273,1.171
	c-0.135,0.023-0.263,0.099-0.388,0.163c-3.343,1.711-4.991,5.133-4.147,8.938c0.232,1.048,0.468,2.111,0.86,3.105
	c0.962,2.444,2.328,4.669,3.937,6.745c0.085,0.108,0.209,0.187,0.316,0.277C97.894,112.576,100.842,113.808,104.311,113.549z"/>
<path fill-rule="evenodd" clip-rule="evenodd" fill="#d1402e" class="fill" d="M132.856,95.849c0.186-1.552,0.356-2.973,0.536-4.478
	c1.329-1.098,15.639-8.976,17.486-9.607c1.676,0.026,3.091,0.626,4.401,1.622c1.819,1.385,3.728,2.65,5.544,4.036
	c0.606,0.462,1.05,1.139,1.615,1.771c-0.821,1.283-1.788,2.133-3.136,2.335c-0.53,0.079-1.211-0.171-1.679-0.485
	c-1.121-0.752-2.167-1.617-3.222-2.463c-0.91-0.731-1.771-1.522-2.687-2.247c-0.955-0.755-2.052-0.921-3.171-0.462
	c-0.771,0.317-1.557,0.683-2.211,1.188c-4.148,3.204-8.617,5.918-13.069,8.66C133.153,95.787,133.007,95.802,132.856,95.849z"/>
</svg>
