<svg version="1.1" id="svg" xmlns="http://www.w3.org/2000/svg" xmlns:xlink="http://www.w3.org/1999/xlink" x="0px" y="0px"
	 width="200px" height="200px" viewBox="0 0 200 200" enable-background="new 0 0 200 200" xml:space="preserve">
<path class="stroke" fill="#205165"  d="M165.733,58.405c0.771-0.645,1.687-1.219,2.211-2.035c1.461-2.274,2.764-4.651,4.101-7.005
	c0.202-0.356,0.241-0.805,0.427-1.464c-2.022,0.332-3.831,0.812-5.654,0.88c-1.974,0.073-3.771,0.711-5.685,1.35
	c-0.065-0.487-0.12-0.812-0.15-1.139c-0.162-1.734-0.322-3.468-0.473-5.202c-0.288-3.317-2.032-5.81-4.664-7.627
	c-2.4-1.658-5.232-2.017-8.075-1.701c-1.133,0.126-2.449,0.454-2.701,2.022c0.353,0.808,1.161,1.103,1.81,1.586
	c0.966,0.72,1.951,1.43,2.83,2.249c0.948,0.883,1.436,2.065,1.562,3.435c-1.776-2.895-4.539-4.433-6.907-6.408
	c-0.586-0.489-1.267-0.917-1.973-1.205c-2.547-1.039-5.183-1.563-7.952-1.144c-0.474,0.071-0.968,0.071-1.451,0.044
	c-2.727-0.147-5.253,0.703-7.77,1.571c-0.527,0.181-0.973,0.61-1.441,0.945c-0.106,0.076-0.148,0.241-0.272,0.455
	c0.107,0.344,0.231,0.745,0.415,1.338c0.821,0.041,1.621,0.104,2.422,0.112c0.48,0.005,0.964-0.139,1.44-0.108
	c2.666,0.172,5.282,0.631,7.851,1.37c2.026,0.583,3.773,1.648,4.939,3.378c1.319,1.958,2.414,4.067,3.591,6.12
	c0.062,0.109-0.021,0.303-0.037,0.458c-0.485-0.388-0.749-0.834-0.982-1.294c-0.704-1.385-1.499-2.703-2.659-3.769
	c-0.511-0.47-1.075-1.023-1.78-0.729c-1.193,0.497-2.503,0.959-3.422,1.807c-1.226,1.132-2.259,2.536-3.125,3.975
	c-0.865,1.436-1.675,2.994-1.595,4.76c0.104,2.268,0.316,4.531,0.476,6.797c0.044,0.627,0.059,1.257,0.104,1.884
	c0.056,0.757-0.13,1.439-0.604,2.036c-1.324,1.666-2.645,3.333-3.974,4.995c-1.757,2.196-4.091,3.334-6.845,3.67
	c-1.152,0.141-2.313,0.209-3.461,0.37c-2.722,0.379-5.393,0.208-8.04-0.557c-3.113-0.9-6.229-1.79-9.368-2.591
	c-2.479-0.633-4.991-1.141-7.494-1.675c-3.885-0.827-7.788-1.546-11.787-1.406c-3.348,0.117-6.678,0.459-9.842,1.615
	c-3.864,1.411-7.657,2.996-10.93,5.721c0.032,0.729-0.479,1.15-1.163,1.375c-1.539,0.505-2.229,1.87-3.238,2.857
	c0.276,0.429,0.443,0.688,0.645,1.001c-0.543,0.337-0.964,0.692-1.448,0.88c-1.574,0.611-3.134,1.335-4.77,1.695
	c-2.734,0.6-5.522,0.946-8.285,1.42c-0.324,0.056-0.627,0.24-1.249,0.49c1.698,0.908,3.12,1.482,4.89,1.7
	c-0.735,1.06-1.347,1.941-1.978,2.85c1.101,0.738,2.041,0.248,2.901-0.062c0.875-0.316,1.657-0.894,2.618-1.434
	c0,0.956,0,1.713,0,2.575c1.695,0.395,2.418-1.249,3.76-1.636c0.158,0.531,0.316,1.066,0.458,1.541
	c1.329,0.646,1.375-1.173,2.42-1.143c-0.087,1.217-0.692,2.158-1.286,3.085c-0.59,0.923-1.256,1.796-2.041,2.906
	c1.026,0.275,1.866,0.5,2.688,0.721c-0.438,1.627-1.029,3.135-1.206,4.691c-0.171,1.5-1.155,3.021-0.193,4.705
	c1.471-0.452,1.754-2.257,3.256-2.667c0.302,2.116-1.384,3.329-2.196,5.168c0.865,0.047,1.566,0.085,2.459,0.134
	c-0.837,1.457-1.595,2.775-2.497,4.344c1.018,0,1.777,0,2.794,0c-0.213,0.774-0.346,1.318-0.512,1.848
	c-0.998,3.184-1.357,6.437-1.043,9.756c0.121,1.269,0.38,2.505,1.827,3.029c0,2.396,0.082,4.722-0.035,7.039
	c-0.056,1.134-0.254,2.378-0.796,3.341c-0.778,1.384-0.61,2.536,0.029,3.835c0.311,0.633,0.47,1.36,0.591,2.063
	c0.202,1.179,0.318,2.372,0.458,3.456c2.185,0.938,7.999,1.313,9.557,0.675c0.017-0.315,0.031-0.64,0.058-0.964
	c0.002-0.03,0.076-0.054,0.168-0.115c1.403-0.025,2.826-0.178,4.051-1.356c-0.611-1.067-1.188-2.115-1.805-3.138
	c-0.649-1.074-1.336-2.124-2.058-3.265c-0.666-6.743-0.651-9.461,0.101-11.329c0.388,0.137,0.779,0.275,1.301,0.458
	c0.576-0.678,1.144-1.346,1.796-2.113c0.131,0.315,0.231,0.478,0.265,0.651c0.639,3.201,0.811,6.417,0.487,9.678
	c-0.176,1.775-0.174,3.576-0.151,5.364c0.013,1.032,0.356,1.375,1.218,1.525c1.096,0.19,2.195,0.395,3.302,0.484
	c1.188,0.097,2.399,0.251,3.575-0.152c0.138-0.459,0.257-0.856,0.345-1.151c1.435-0.506,2.93,0.032,4.28-0.785
	c-0.096-0.34-0.151-0.669-0.279-0.967c-0.538-1.243-1.163-2.452-1.632-3.72c-0.739-2.002-1.262-4.056-0.762-6.305
	c-0.49-2.107-0.867-4.287,0.012-6.484c0.7-1.75,1.326-3.529,1.998-5.289c0.115-0.303,0.3-0.58,0.363-0.702
	c1.51,0,2.863,0.058,4.208-0.016c1.351-0.075,2.706-0.226,4.041-0.446c1.301-0.214,2.581-0.56,4.06-0.891
	c-0.456,0.779-0.803,1.375-1.315,2.253c1.525-0.031,2.523-0.755,3.629-1.054c1.166-0.314,2.35-0.573,3.497-0.945
	c1.15-0.371,2.257-0.873,3.396-1.279c1.109-0.394,2.198-0.877,3.45-1.017c0.021,0.292,0.078,0.489,0.041,0.667
	c-0.441,2.117-0.266,4.222-0.04,6.353c0.264,2.491,0.311,5.005,0.453,7.509c0.026,0.463,0.055,0.926,0.09,1.526
	c0.649-0.159,1.122-0.274,1.609-0.392c0.199,0.654,0.375,1.235,0.557,1.831c0.544,0,0.964,0,1.315,0
	c0.284,0.3,0.508,0.535,0.732,0.771c0.251-0.084,0.43-0.153,0.614-0.201c0.168-0.043,0.342-0.062,0.677-0.118
	c-0.019,2.81-0.011,5.481-1.293,8.152c0.678,0.073,1.169,0.126,1.734,0.188c-0.164,1.614-0.988,3.151-0.569,4.87
	c0.322,0.12,0.664,0.248,1.001,0.375c0,2.19,0,4.303,0,6.533c2.171,0.239,4.266,0.47,6.342,0.7c0.252-0.454,0.428-0.771,0.598-1.077
	c0.845,0.271,1.625,0.521,2.503,0.803c1.168-0.796,2.828-0.107,4.03-1.222c-0.188-0.479-0.358-0.915-0.558-1.421
	c1.284-0.363,2.617,0.376,3.772-0.483c0.098-0.342,0.201-0.701,0.335-1.166c1.387,0,2.751,0,4.264,0
	c-0.21-0.562-0.344-0.963-0.508-1.352c-0.488-1.157-1.049-2.288-1.469-3.469c-0.706-1.987-0.701-4.076-0.694-6.156
	c0.008-2.808,0.031-5.615,0.006-8.423c-0.006-0.711,0.174-1.29,0.543-1.902c0.494-0.819,0.934-1.706,1.199-2.621
	c0.588-2.04,1.047-4.117,1.576-6.174c0.082-0.316,0.257-0.609,0.396-0.927c0.518,0.083,0.977,0.156,1.426,0.229
	c0.802-0.836,0.691-1.823,0.744-2.78c0.054-0.96,0.164-1.919,0.269-2.875c0.013-0.118,0.151-0.222,0.211-0.304
	c0.465,0.023,0.884,0.045,1.49,0.076c0.105-0.671,0.332-1.281,0.267-1.858c-0.254-2.255-0.653-4.495-0.9-6.751
	c-0.345-3.151-0.472-6.305,1.071-9.234c0.789-1.498,1.65-2.958,2.517-4.412c1.357-2.281,3.028-4.383,3.913-6.934
	c0.094-0.27,0.368-0.478,0.558-0.713c0.044,2.956,0.324,5.73,1.686,8.356c1.484,2.863,4.208,6.076,5.694,6.153
	c-0.375-1.515-0.734-2.975-1.126-4.563c1.002,0.548,1.23,1.889,2.564,1.725c0.104-0.311,0.2-0.599,0.313-0.938
	c0.867,0.594,1.315,1.828,2.693,1.472c0-0.517,0.038-0.994-0.006-1.464c-0.191-2.023-0.472-4.04-0.597-6.067
	c-0.176-2.86,0.04-3.068,2.919-4.175c0.177-0.068,0.394-0.042,0.565-0.121c0.568-0.26,1.256-0.423,1.658-0.85
	c0.979-1.039,2.103-2.084,2.657-3.35c0.901-2.061,1.193-4.318,0.102-6.472c-0.764-1.506-1.609-2.974-2.469-4.429
	c-0.755-1.279-1.58-2.515-2.171-3.449c0.53-2.117,0.962-3.842,1.428-5.701C164.856,58.997,165.331,58.744,165.733,58.405z"/>
<path fill-rule="evenodd" clip-rule="evenodd" fill="#ffffff" class="fill" d="M137.407,47.03c0.4-0.375,0.798-0.75,1.233-1.158
	c2.389,1.635,3.263,4.085,4.468,6.5c0.419-0.068,0.876-0.14,1.334-0.219c0.428-0.075,0.854-0.157,1.302-0.152
	c3.188-1.489,2.259-1.729,7.158-0.665c0.362-0.183,0.744-0.373,1.188-0.598c0.36,0.215,0.72,0.43,1.138,0.678
	c0.404-0.254,0.805-0.504,1.125-0.705c1.127,0.473,2.204,0.926,3.325,1.398c0.014,0.212,0.033,0.491,0.057,0.841
	c0.348,0.124,0.697,0.247,1.136,0.402c-0.085,0.386-0.175,0.786-0.279,1.257c0.507,0.158,0.955,0.297,1.5,0.466
	c-0.079,0.497-0.159,1.002-0.25,1.579c0.288,0.151,0.576,0.303,0.85,0.446c0.672,1.57,0.837,3.152,0.048,4.895
	c-0.385-0.516-0.708-0.947-1.069-1.43c-0.735,0.013-0.933,0.523-0.876,1.158c0.067,0.769,0.207,1.533,0.336,2.296
	c0.104,0.614,0.238,1.224,0.333,1.706c0.451,0.621,0.859,1.146,1.226,1.697c1.311,1.971,2.606,3.95,3.908,5.927
	c0.08,0.121,0.168,0.239,0.229,0.37c0.593,1.248,0.022,4.676-1.108,5.924c-1.289-0.247-2.696-0.535-4.111-0.784
	c-1.429-0.251-2.859-0.551-4.301-0.666c-1.332-0.106-2.593-1.075-4.195-0.599c0.868,1.396,1.902,2.02,3.177,2.229
	c1.717,0.279,3.445,0.482,5.163,0.757c0.942,0.151,1.871,0.38,2.81,0.72c-1.368,0.983-3.138,0.352-4.622,1.306
	c-1.449,2.043-1.711,4.529-1.75,7.135c-0.648-0.616-0.769-0.964-1.323-3.667c-0.942,0.289-0.942,0.289-1.707,1.616
	c-0.271-1.229-0.508-2.303-0.747-3.382c-0.931,0.077-1.14,0.598-1.159,1.209c-0.053,1.735-0.077,3.469-0.095,5.204
	c-0.004,0.377,0.058,0.754,0.098,1.23c-1.361-1.454-2.474-7.233-1.896-9.613c1.253-0.284,2.618,0.572,3.926-0.175
	c-0.303-0.821-0.932-0.938-1.562-0.914c-1.547,0.056-2.947-0.453-4.341-1.019c-1.479-0.6-3.007-1.098-4.431-1.805
	c-0.929-0.46-1.88-1.076-2.527-1.864c-1.152-1.407-2.172-2.947-2.689-4.73c0.647-0.784,1.222-1.481,1.842-2.231
	c-0.961-0.788-1.295,0.28-1.984,0.513c-0.062-0.37-0.119-0.715-0.179-1.071c0.592-0.454,1.116-0.856,1.652-1.269
	c-0.627-0.506-0.627-0.506-1.709-0.104c-0.111-0.084-0.252-0.203-0.406-0.301c-0.153-0.097-0.32-0.173-0.447-0.239
	c-0.145,0.092-0.28,0.127-0.298,0.195c-1.159,4.328-2.492,8.62-2.8,13.166c0.44,0.203,0.774,0.356,1.229,0.564
	c-0.603,5.938-3.503,11.017-6.357,16.294c0.576,0.142,0.924,0.264,1.282,0.305c0.378,0.043,0.767,0.01,1.354,0.01
	c-0.041,0.824,0.066,1.615-0.141,2.312c-0.759,2.55-1.612,5.071-2.454,7.597c-0.113,0.34-0.354,0.638-0.725,1.285
	c-0.768-2.075-0.083-4.144-1.271-5.857c-0.602,0.283-1.156,0.544-1.814,0.854c-0.253-1.185-0.49-2.298-0.719-3.365
	c-1.322-0.106-1.364-0.077-2.219,1.474c-0.593-1.059-1.015-2.412-2.74-1.643c-0.205,0.301-0.471,0.69-0.762,1.114
	c-0.39-0.139-0.775-0.275-1.305-0.463c-0.08,0.404-0.245,0.729-0.184,1.006c0.436,1.98,0.906,3.952,1.394,5.92
	c0.117,0.476,0.323,0.95,1.164,0.759c0.243-0.552,0.529-1.202,0.828-1.882c1.006,0.278,0.77,1.916,2.169,1.93
	c0.329-0.415,0.705-0.887,1.126-1.418c0.686,0.656,0.491,1.402,0.388,2.062c-0.392,2.531-0.963,5.039-1.247,7.58
	c-0.404,3.613-0.366,7.238,0.335,10.833c0.522,2.68,0.684,5.364,0.134,8.075c-0.288,1.418-0.499,2.864-0.586,4.306
	c-0.1,1.629-0.023,3.27,0.241,4.959c-0.386,0.525-0.773,1.049-1.224,1.66c-0.379-0.418-0.657-0.724-1.029-1.134
	c-0.384,0.369-0.737,0.711-1.162,1.12c-0.256-0.538-0.475-1.002-0.772-1.632c-0.772,0.392-1.508,0.766-2.33,1.183
	c-0.215-0.531-0.388-0.955-0.581-1.43c-0.542,0.133-1.028,0.252-1.688,0.414c0.542-2.342,1.551-4.425,1.457-6.967
	c-0.601,0.23-1.08,0.413-1.718,0.656c0.824-2.731,0.531-5.409,0.402-8.313c-0.684,0.172-1.198,0.302-1.772,0.448
	c-0.105-0.521-0.206-1.028-0.342-1.707c-0.495,0.124-0.931,0.234-1.513,0.379c-0.108-0.8-0.226-1.675-0.365-2.711
	c-0.585,0.119-1.073,0.219-1.755,0.357c-0.083-3.36-0.216-6.684-0.218-10.01c0-0.995,0.329-2,0.577-2.983
	c0.426-1.691,0.35-3.371-0.121-5.017c-0.41-1.434-0.943-2.834-1.45-4.238c-0.197-0.547-0.603-0.85-1.404-0.759
	c-0.057,0.909-0.113,1.819-0.181,2.916c-0.524-0.242-0.841-0.387-1.264-0.582c-0.345,0.288-0.7,0.6-1.07,0.891
	c-0.338,0.268-0.694,0.513-1.006,0.742c-0.433-0.08-0.805-0.149-1.207-0.225c-1.227,1.192-2.722,0.994-4.27,0.902
	c-0.058-1.774,1.078-3.104,1.555-4.557c-0.6-0.546-0.979-0.273-1.182,0.133c-0.497,0.99-0.936,2.01-1.36,3.033
	c-0.182,0.438-0.271,0.916-0.42,1.439c-1.325,0.303-2.569,0.805-3.9,0.799c-0.255-1.199,1.056-1.97,0.531-3.225
	c-1.366,0.712-1.263,2.119-1.748,3.28c-0.909,0-1.803,0-2.896,0c0.392-0.766,0.706-1.378,1.039-2.029
	c-0.735-0.692-1.038-0.111-1.373,0.34c-0.346,0.464-0.691,0.928-1.107,1.489c-1.062-0.076-2.145-0.153-3.464-0.248
	c0.486-0.647,0.816-1.085,1.273-1.691c-0.177-0.183-0.331-0.343-0.575-0.595c-0.922,0.885-1.678,1.611-2.486,2.387
	c-0.945-0.073-1.896-0.146-3.169-0.242c0.889-0.814,1.561-1.429,2.29-2.096c-0.219-0.27-0.357-0.441-0.586-0.725
	c-1.015,0.821-1.981,1.603-3.046,2.465c-0.535-0.207-1.091-0.422-1.794-0.694c1.026-1.247,2.939-1.422,2.937-3.392
	c-0.677,0.477-1.343,0.972-2.034,1.427c-0.684,0.45-1.393,0.861-2.196,1.353c-0.833-0.48-1.66-0.958-2.583-1.491
	c-0.164,0.103-0.388,0.244-0.633,0.398c1.118,2.595,2.997,4.507,5.25,6.289c-1.045,0.78-1.882,1.405-2.767,2.066
	c-0.728-0.501-0.523-1.229-0.59-1.858c-0.076-0.724-0.065-0.725-0.907-1.071c-0.346,1.319-0.139,2.456,0.999,3.5
	c-0.44,0.392-0.848,0.754-1.306,1.161c-0.384-0.836-0.688-1.566-1.065-2.257c-0.068-0.125-0.437-0.085-0.714-0.131
	c-0.279,1.43,0.34,2.604,0.854,3.901c-0.496,1.056-1.186,1.996-2.307,2.734c-0.91-1.459-0.411-2.814,0.103-4.241
	c-0.281-0.128-0.521-0.236-0.782-0.354c-1.574,1.482-1.422,3.1-0.5,4.883c-0.382,0.24-0.729,0.458-1.09,0.684
	c-0.149-0.18-0.276-0.272-0.316-0.393c-0.391-1.166-0.201-2.295,0.262-3.393c0.326-0.774,0.49-1.556,0.285-2.47
	c-0.328-0.073-0.632-0.14-0.946-0.21c-0.098,0.197-0.184,0.312-0.216,0.441c-0.152,0.606-0.202,1.253-0.45,1.814
	c-0.532,1.208-0.56,2.42-0.359,3.695c0.303,1.933,0.224,3.855-0.381,5.762c-0.625,0.445-1.247,0.888-1.846,1.314
	c-1.23-0.614-1.129-2.002-1.848-2.93c-1.179-0.013-1.332,1.294-2.17,1.711c-0.412-0.559-0.8-1.086-1.297-1.76
	c-0.883-4.314-0.186-8.74,0.743-13.243c-0.493-0.036-0.815-0.074-1.139-0.077c-0.279-0.001-0.558,0.039-1.109,0.084
	c0.907-2.174,2.416-3.894,2.746-6.213c-0.506-0.084-0.951-0.158-1.545-0.257c0.162-0.866,0.342-1.702,0.468-2.546
	c0.126-0.844,0.187-1.693-0.281-2.653c-0.754,0.421-1.437,0.801-2.369,1.32c0.119-2.515,1.584-4.633,1.111-7.064
	c-0.612,0-1.076,0-1.823,0c1.979-4.017,2.975-8.162,3.949-12.381c0.564-0.491,1.171-1.017,1.816-1.579
	c-0.302-0.471-0.529-0.824-0.817-1.275c0.467-0.509,0.946-1.03,1.465-1.595c0-0.296,0-0.625,0-0.906
	c0.119-0.111,0.178-0.198,0.26-0.239c2.428-1.199,4.844-2.423,7.294-3.575c1-0.47,2.047-0.937,3.122-1.131
	c2.235-0.403,4.496-0.689,6.758-0.898c2.262-0.208,4.538-0.355,6.809-0.363c3.285-0.011,6.36,1.126,9.488,1.959
	c4.812,1.281,9.6,2.684,14.463,3.731c2.862,0.617,5.846,0.79,8.785,0.898c2.507,0.094,4.809-0.915,7.058-1.989
	c2.689-1.282,4.964-2.957,6.283-5.739c0.453-0.956,1.058-1.845,1.627-2.743c1.018-1.604,1.274-3.269,0.757-5.133
	c-0.452-1.625-0.801-3.299-0.963-4.974c-0.094-0.977,0.148-2.035,0.448-2.99c0.829-2.645,1.771-5.253,4.35-6.793
	c-0.341,0.519-0.664,1.053-1.026,1.556c-1.195,1.66-2.143,3.402-2.481,5.476c-0.251,1.54-0.019,2.815,1.047,3.993
	c0.896,0.993,1.879,1.962,2.177,3.362c0.052,0.247,0.213,0.47,0.456,0.983c0.793-1.105,1.594-1.943,2.062-2.938
	c0.649-1.378,1.435-2.619,2.495-3.695c0.716-0.728,0.818-1.532,0.595-2.524c-0.484-2.156-1.519-4.041-2.668-5.881
	c-0.196-0.314-0.484-0.569-0.733-0.854C138.329,46.772,137.868,46.901,137.407,47.03z M150.228,60.758
	c-0.797-1.999-2.221-3.144-4.423-3.022c-1.764,0.099-3.27,0.735-4.104,2.345c0.104,1.777,1.394,2.426,2.64,3.077
	c2.288,1.197,4.245,0.129,6.319-1.18c0.061,0.985,0.108,1.769,0.159,2.602c0.697-0.075,0.847-0.534,0.885-1.017
	c0.071-0.913,0.113-1.833-0.452-2.664C150.922,60.854,150.598,60.81,150.228,60.758z M164.965,74.443
	c-1.361,0-2.549,0.188-3.642-0.054c-1.071-0.238-2.044-0.915-3.061-1.4c-0.422,0.971-0.317,1.325,0.552,1.967
	c1.859,1.375,4.016,1.268,6.325,1.376C165.078,75.663,165.032,75.168,164.965,74.443z M87.384,107.084
	c0.081,0.063,0.161,0.126,0.241,0.189c2.122-1.177,4.225-2.352,4.854-5.06c0.297-1.283,0.958-2.307,2.462-2.479
	c0.088-0.218,0.176-0.435,0.256-0.628c-0.531-0.631-1.079-0.484-1.597-0.146c-1.086,0.708-1.948,1.612-2.214,2.932
	c-0.273,1.356-1.033,2.375-2.083,3.218c-0.491,0.394-0.999,0.772-1.454,1.205C87.639,106.513,87.536,106.824,87.384,107.084z
	 M75.773,102.823c0.161-0.098,0.357-0.161,0.472-0.293c1.276-1.469,2.875-2.482,4.734-2.924c2.418-0.575,3.151-2.588,3.468-4.485
	c0.03-0.172-0.244-0.396-0.534-0.831c-0.257,0.695-0.459,1.12-0.571,1.567c-0.445,1.78-1.532,2.764-3.355,3.162
	c-1.575,0.344-2.94,1.218-3.981,2.494C75.723,101.86,75.314,102.243,75.773,102.823z M79.344,103.465
	c0.918-0.519,1.622-1.074,2.423-1.337c1.788-0.586,3.064-1.766,4.203-3.178c0.448-0.555,0.961-1.056,1.435-1.59
	c0.053-0.061,0.042-0.177,0.095-0.432c-0.356-0.109-0.728-0.222-1.116-0.341c-0.201,0.245-0.338,0.384-0.444,0.544
	c-1.329,2.021-2.955,3.663-5.308,4.511C79.944,101.891,79.335,102.452,79.344,103.465z M86.596,102.264
	c0.729-0.24,1.476-0.486,2.316-0.762c-1.519-0.802-3.105-0.46-3.612,0.896c-0.506,1.354-1.438,2.233-2.488,3.086
	c-0.228,0.184-0.372,0.472-0.623,0.802C83.922,106.205,85.554,104.705,86.596,102.264z M123.121,85.885
	c-0.773-0.345-1.176,0.24-1.518,0.808c-1.308,2.182-2.181,4.512-2.26,7.087c-0.007,0.238,0.102,0.48,0.211,0.95
	c1.063-1.539,0.78-3.215,1.409-4.595C121.613,88.705,122.382,87.328,123.121,85.885z M118.279,120.183
	c0.267,0.147,0.312,0.193,0.346,0.187c0.135-0.026,0.305-0.029,0.395-0.113c1.511-1.427,2.604-3.063,2.81-5.219
	c0.071-0.744,0.417-1.463,0.646-2.19c0.076-0.244,0.183-0.478,0.275-0.716c-0.072-0.068-0.145-0.137-0.216-0.205
	c-0.294,0.183-0.714,0.299-0.858,0.564c-0.316,0.578-0.643,1.22-0.695,1.857c-0.133,1.651-0.762,3.077-1.678,4.41
	C118.984,119.222,118.648,119.672,118.279,120.183z M59.828,101.191c1.689,0.789,5.015-3.518,4.075-6.18
	c-0.162-0.045-0.376-0.104-0.751-0.209C62.952,97.388,61.927,99.499,59.828,101.191z M58.518,99.763
	c1.467-0.843,2.296-1.909,2.76-3.286c0.365-1.084,0.766-2.156,1.166-3.277c-0.075-0.064-0.167-0.184-0.287-0.233
	c-0.122-0.05-0.272-0.03-0.552-0.05c-1.397,1.811-1.45,4.37-3.075,6.099C58.438,99.113,58.518,99.37,58.518,99.763z M109.364,99.798
	c0.992-2.743,1.249-5.809,4.007-7.929C110.714,92.391,108.761,96.371,109.364,99.798z M65.752,97.419
	c-0.398,1.12-0.752,2.153-1.134,3.176c-0.388,1.036-1.653,1.568-1.774,3.047c1.962-1.104,3.11-2.567,3.523-4.539
	C66.468,98.616,66.891,97.845,65.752,97.419z M116.6,107.398c1.141-0.779,0.778-1.698,0.743-2.501
	c-0.045-1.004-0.185-2.004-0.291-3.004c-0.009-0.088-0.076-0.171-0.185-0.401c-0.269,0.021-0.596,0.047-0.964,0.076
	C115.649,103.629,116.229,105.41,116.6,107.398z M132.235,90.009c-0.543-0.033-0.819-0.121-0.88-0.042
	c-1.237,1.585-2.455,3.185-3.653,4.798c-0.069,0.094,0.061,0.336,0.157,0.787C129.924,94.13,130.844,92.096,132.235,90.009z
	 M61.676,123.802c0.803-0.403,1.233-1.014,1.297-1.812c0.108-1.329,0.156-2.664,0.235-4.094c-0.573-0.297-0.955,0.083-1.105,0.618
	c-0.182,0.643-0.306,1.336-0.269,1.997C61.895,121.605,62.174,122.694,61.676,123.802z M116.257,123.056
	c-0.53,0.144-0.831,0.131-0.925,0.266c-1.016,1.445-1.719,3.025-1.834,4.81c-0.015,0.224,0.266,0.468,0.465,0.795
	C114.738,126.941,115.434,125.162,116.257,123.056z M115.222,129.664c0.147,0.054,0.293,0.107,0.441,0.161
	c0.447-0.894,0.892-1.788,1.342-2.681c0.458-0.907,0.921-1.812,1.379-2.714c-0.728-0.401-0.951,0.02-1.197,0.367
	C116.136,126.278,115.529,127.919,115.222,129.664z M67.281,103.884c1.729-0.666,2.245-1.915,1.732-4.304
	c-0.231-0.074-0.49-0.155-0.651-0.206C67.995,100.907,67.646,102.363,67.281,103.884z M113.732,109.167
	c-0.109,0.71-0.156,1.42-0.339,2.094c-0.189,0.692-0.444,1.383-0.785,2.013c-0.651,1.2-0.686,1.182-0.571,1.909
	c0.389-0.496,0.725-0.955,1.093-1.386c0.86-1.002,1.147-2.217,1.31-3.474C114.499,109.859,114.579,109.324,113.732,109.167z
	 M117.36,130.425c0.108,0.048,0.214,0.095,0.321,0.143c0.989-1.638,1.978-3.274,3.057-5.062c-1.139-0.136-1.443,0.624-1.801,1.168
	C118.179,127.828,117.275,128.956,117.36,130.425z M78.623,94.584c-0.414,0.47-0.75,0.693-0.856,0.998
	c-0.494,1.407-1.571,2.299-2.682,3.164c-0.213,0.165-0.508,0.227-0.764,0.335c0.099,0.1,0.198,0.198,0.298,0.298
	C76.493,99.356,79.013,96.851,78.623,94.584z M121.229,136.416c-1.312,1.064-2.748,4.003-2.625,5.225
	C119.751,140.698,121.399,137.527,121.229,136.416z M94.138,105.688c1.92-0.822,2.64-2.418,3.824-3.718
	c-0.366-0.171-0.61-0.286-0.88-0.412C95.695,102.599,95.057,104.074,94.138,105.688z M73.953,92.959
	c-0.825-0.696-1.465-0.121-2.001,0.36c-0.771,0.692-1.667,1.392-1.393,2.824C71.732,95.044,72.783,94.058,73.953,92.959z
	 M65.14,112.009c0.963-1.44,1.109-2.974,0.517-4.562c-0.163-0.437-0.309-0.919-0.899-0.808
	C64.883,108.394,65.004,110.084,65.14,112.009z M123.732,90.08c-0.88,0.416-0.88,0.416-1.159,1.201
	c-0.452,1.264-0.667,3.455-0.398,4.051C122.918,94.249,123.37,92.755,123.732,90.08z M75.532,95.953
	c-1.06-0.526-1.562,0.01-2.05,0.446c-0.797,0.713-1.488,1.512-1.766,2.552c0.096,0.079,0.191,0.157,0.287,0.236
	C73.136,98.148,74.269,97.11,75.532,95.953z M97.841,98.96c1.026-1.34,2.575-2.258,3.012-4.131c-0.212-0.1-0.405-0.19-0.514-0.241
	c-0.891,1.125-1.725,2.167-2.543,3.221C97.531,98.151,97.272,98.526,97.841,98.96z M130.322,88.268
	c1.39-2.413,1.677-4.681,0.775-5.831c-0.044,0.018-0.127,0.031-0.129,0.054c-0.191,1.838-0.259,3.697-0.903,5.462
	C130.048,87.995,130.17,88.087,130.322,88.268z M102.501,105.667c1.329-1.153,2.02-2.341,2.104-3.651
	c0.017-0.247-0.23-0.51-0.386-0.828C103.482,102.002,102.634,104.25,102.501,105.667z M113.196,95.95
	c-0.06-0.095-0.119-0.19-0.178-0.286c-0.275,0.177-0.659,0.29-0.808,0.542c-0.789,1.341-1.058,2.789-0.547,4.385
	C112.175,99.044,112.686,97.497,113.196,95.95z M144.931,76.153c0.951-1.332,1.573-2.51,2.097-3.798
	c-0.293-0.116-0.418-0.197-0.551-0.21c-0.134-0.015-0.275,0.036-0.39,0.055C144.889,73.901,144.549,74.871,144.931,76.153z
	 M144.85,71.663c-0.799-0.517-1.101-0.022-1.36,0.432c-0.284,0.498-0.539,1.021-0.73,1.562c-0.174,0.488-0.592,1.032,0.099,1.586
	C143.856,74.178,144.271,72.884,144.85,71.663z M69.146,93.944c0.503-0.551,0.94-1.116,1.464-1.583
	c0.54-0.479,1.165-0.862,1.84-1.35c-1.327-0.401-2.347,0.083-3.331,1.447C68.784,92.923,68.43,93.397,69.146,93.944z
	 M102.031,95.882c-0.936,1.262-1.528,2.456-1.86,3.769c-0.042,0.167,0.163,0.397,0.29,0.682c0.45-0.81,0.887-1.488,1.214-2.217
	C101.959,97.481,102.93,96.953,102.031,95.882z M68.523,109.902c-0.442,1.026-0.865,2.005-1.296,3.006
	c1.318,0.184,2.312-1.173,2.085-2.807C69.077,110.041,68.813,109.975,68.523,109.902z M113.463,103.042
	c0.108,1.208,0.133,2.337,0.92,3.47c0.792-1.331,0.451-2.388-0.054-3.47C114.073,103.042,113.851,103.042,113.463,103.042z
	 M125.083,93.706c0.085,0.077,0.17,0.154,0.255,0.232c0.834-0.346,1.543-0.871,1.977-1.697c0.358-0.684,0.211-0.929-0.604-1.279
	C126.167,91.881,125.625,92.793,125.083,93.706z M141.104,73.873c0.11,0.035,0.221,0.071,0.331,0.107
	c0.517-0.923,1.034-1.847,1.609-2.877c-0.377-0.108-0.624-0.18-0.977-0.283C141.617,71.855,140.853,72.695,141.104,73.873z
	 M113.435,122.595c-0.488,1.379-1.579,2.34-0.89,3.933c0.571-1.204,1.053-2.221,1.563-3.297
	C113.948,123.08,113.79,122.929,113.435,122.595z M149.405,73.861c-0.589-0.353-0.954-0.085-1.149,0.317
	c-0.323,0.666-1.084,1.211-0.76,2.149C148.542,75.874,148.542,75.874,149.405,73.861z M117.05,116.679
	c0.107,0.076,0.215,0.153,0.322,0.229c1.149-0.539,1.24-1.644,1.392-2.788c-0.259-0.09-0.429-0.148-0.694-0.239
	C117.718,114.844,117.384,115.761,117.05,116.679z M59.341,117.361c1.169-1.552,1.246-2.746,0.214-3.625
	C59.142,114.931,59.088,116.028,59.341,117.361z M115.347,97.841c0.114,0.044,0.228,0.086,0.341,0.131
	c0.37-0.937,0.741-1.874,1.138-2.877C115.604,95.096,115.037,96.302,115.347,97.841z M104.946,95.238
	c0.057,1.183-0.842,2.081-0.664,3.417c1.175-0.892,1.386-1.972,1.429-3.168C105.492,95.415,105.316,95.358,104.946,95.238z
	 M70.169,105.112c1.038-0.904,1.288-1.861,0.777-2.977C70.276,102.728,69.983,103.848,70.169,105.112z M121.105,143.44
	c0.059-0.982,0.105-1.764,0.158-2.637c-0.373,0.037-0.59,0.058-0.775,0.076C119.932,142.654,119.957,142.808,121.105,143.44z
	 M57.969,94.396c0.112,0.07,0.223,0.14,0.335,0.209c1.012-0.376,1.022-1.337,1.256-2.27c-0.325-0.109-0.568-0.191-0.969-0.326
	C58.366,92.878,58.167,93.637,57.969,94.396z M106.017,103.619c0.5-0.298,0.722-0.817,0.86-1.342c0.124-0.473,0.733-0.97,0.04-1.582
	C106.171,101.553,106.097,102.554,106.017,103.619z M121.868,119.224c-1.151-0.086-1.388,0.962-2.208,1.726
	C121.013,120.907,121.519,120.182,121.868,119.224z M133.147,85.286c0.591-0.626,0.71-1.309,0.333-2.248
	C132.706,83.804,132.839,84.532,133.147,85.286z M62.55,110.566c-0.711,1.078-0.695,1.171,0.216,1.762
	C63.191,111.401,63.191,111.401,62.55,110.566z M121.762,128.614c-1.133,0.18-1.308,0.446-1.12,1.522
	C121.42,129.695,121.42,129.695,121.762,128.614z M114.667,114.033c1.292-0.312,1.292-0.312,0.793-1.329
	C115.21,113.122,115.021,113.44,114.667,114.033z M65.845,90.262c-0.679,0.166-0.683,0.166-0.613,0.81
	c0.002,0.021,0.164,0.026,0.313,0.047c0.085-0.137,0.206-0.287,0.274-0.457C65.865,90.548,65.838,90.404,65.845,90.262z"/>
<path fill-rule="evenodd" clip-rule="evenodd" fill="#ffffff" class="fill" d="M152.197,48.648c-1.369,0.05-2.561,1.374-3.927,0.122
	c0.497-0.194,0.922-0.361,1.395-0.546c-0.32-0.888-0.939-0.588-1.471-0.531c-0.514,0.055-1.028,0.123-1.708,0.207
	c0.475-1.171,1.638-0.614,2.267-1.258c-0.829-1.255-1.9-0.178-2.931-0.299c-0.078-0.19-0.176-0.429-0.298-0.728
	c0.66-0.328,1.241-0.617,1.85-0.92c-0.582-0.729-0.582-0.729-2.468-0.112c-0.132-0.139-0.285-0.3-0.393-0.412
	c0.012-0.148-0.003-0.222,0.022-0.241c0.405-0.305,0.814-0.604,1.252-0.926c-0.32-0.776-0.856-0.542-1.33-0.365
	c-0.465,0.174-0.903,0.428-1.325-0.241c0.148-0.309,0.319-0.667,0.589-1.231c-0.823,0-1.458,0-2.151,0c0-0.557,0-0.981,0-1.555
	c-0.557,0.178-0.954,0.306-1.423,0.455c-0.235-0.135-0.522-0.3-0.812-0.466c-0.092-0.472,0.597-1.074-0.28-1.36
	c-0.759-0.043-1.148,1.339-2.215,0.555c0.137-0.276,0.277-0.557,0.447-0.902c-0.128-0.153-0.274-0.329-0.526-0.628
	c-0.471,0.395-0.893,0.748-1.457,1.221c-0.188-0.036-0.538-0.104-0.829-0.16c-0.254-0.583,0.558-1.278-0.474-1.616
	c-0.155,0.17-0.35,0.362-0.513,0.578c-0.145,0.189-0.251,0.407-0.388,0.634c-0.39,0-0.766,0-1.211,0c0-0.546,0-1.036,0-1.527
	C138.829,35.009,149.396,40.945,152.197,48.648z"/>
<path fill-rule="evenodd" clip-rule="evenodd" fill="#ffffff" class="fill" d="M57.392,142.564c-0.271-0.944-0.47-1.636-0.686-2.388
	c1.474-1.977,1.573-4.28,1.503-6.685c0.546-0.862,0.827-2.06,2.099-2.071c0.745,0.481,1.372,0.886,1.99,1.286
	c0.493-0.328,0.841-0.559,1.404-0.933c0.03,1.591-0.039,3.013,0.111,4.412c0.147,1.381,0.516,2.738,0.815,4.245
	C62.396,141.49,60.013,142.207,57.392,142.564z M59.975,135.229c-0.023,1.023-0.291,1.978,0.635,2.587
	c0.214-0.614,0.246-1.836,0.001-2.216C60.494,135.415,60.193,135.349,59.975,135.229z M61.067,140.933
	c-0.471-1.424-0.471-1.424-1.313-1.461C59.978,140.689,59.981,140.694,61.067,140.933z M61.855,136.638
	c0.43-1.278,0.29-1.468-0.939-1.412C61.274,135.763,61.565,136.201,61.855,136.638z M61.627,138.736
	c0.226,0.704,0.292,1.303,1.197,1.027C62.762,139.113,62.626,138.631,61.627,138.736z"/>
<path fill-rule="evenodd" clip-rule="evenodd" fill="#ffffff" class="fill" d="M152.665,39.9c0.71-0.317,1.355-0.605,2.001-0.893
	c-0.58-1.044-0.727-1.031-2.998,0.206c-0.11-0.072-0.245-0.134-0.342-0.233c-0.133-0.134-0.237-0.297-0.405-0.513
	c0.398-0.303,0.769-0.584,1.135-0.862c-0.433-0.812-0.433-0.812-2.399,0.134c0.021-0.261,0.04-0.452,0.047-0.642
	c0.008-0.18,0.002-0.361,0.002-0.81c-0.649,0.258-1.137,0.451-1.795,0.713c-0.293-0.176-0.729-0.438-1.225-0.737
	c0.511-0.728,1.205-0.701,1.764-0.718c3.875-0.119,7.227,1.002,9.183,4.601c0.672,1.238,0.981,2.728,1.204,4.143
	c0.327,2.079,0.766,4.19,0.137,6.391c-0.407-0.045-0.774-0.085-1.172-0.129c-0.263-0.344-0.521-0.68-0.865-1.13
	c-0.498,0.267-0.991,0.532-1.694,0.908c-0.044-0.477-0.081-0.876-0.128-1.378c1.097-0.067,2.021-0.124,3.088-0.188
	c-0.692-1.448-2.063-0.585-2.92-1.241c0.514-1.36,2.036-0.22,2.688-1.127c0.054-0.516-0.272-0.661-0.704-0.652
	c-0.532,0.01-1.063,0.091-1.593,0.072c-0.215-0.007-0.422-0.197-0.627-0.604c0.486-0.139,0.967-0.289,1.457-0.412
	c0.445-0.111,0.897-0.193,1.488-0.317c-0.986-1.585-2.264-0.118-3.363-0.672c0.45-1.269,1.785-0.663,2.52-1.255
	c0.122-0.584-0.267-0.784-0.734-0.748c-0.522,0.04-1.035,0.22-1.55,0.342c-0.395,0.093-0.78,0.171-1.007-0.523
	c0.742-0.328,1.505-0.664,2.333-1.029c-0.102-0.243-0.188-0.447-0.25-0.593c-1.156-0.406-2.015,0.896-3.101,0.346
	C152.774,40.317,152.768,40.178,152.665,39.9z"/>
<path fill-rule="evenodd" clip-rule="evenodd" fill="#ffffff" class="fill" d="M162.351,51.109c2.343-1.723,5.136-0.819,7.776-1.174
	c-2.387,0.533-3.84,2.399-5.611,3.762c-0.592-0.245-1.151-0.477-1.664-0.688C162.691,52.403,162.54,51.827,162.351,51.109z"/>
<path fill-rule="evenodd" clip-rule="evenodd" fill="#ffffff" class="fill" d="M128.507,37.449c-0.556,0.683-1.155,0.129-1.757-0.183
	c0.563-0.085,1.127-0.169,1.691-0.254C128.464,37.157,128.485,37.303,128.507,37.449z"/>
<path fill-rule="evenodd" clip-rule="evenodd" fill="#ffffff" class="fill" d="M130.896,36.649c-0.199,0.603-0.2,1.147-0.972,1.196
	C129.777,37.148,129.787,36.638,130.896,36.649z"/>
<path fill-rule="evenodd" clip-rule="evenodd" fill="#ffffff" class="fill" d="M136.739,50.18c0.41,0.355,0.764,0.662,1.165,1.01
	c-0.118,0.338-0.224,0.642-0.37,1.059c0.231,0.309,0.503,0.672,0.775,1.036c0.108-0.014,0.218-0.027,0.327-0.041
	c0.071-0.323,0.266-0.676,0.197-0.965c-0.495-2.056-0.521-2.065-1.717-2.707c0.393-0.481,0.77-0.941,1.149-1.404
	c1.309,1.17,2.703,4.104,2.809,5.866c-0.293,0.307-0.614,0.663-0.957,0.995c-0.341,0.329-0.706,0.632-0.964,0.863
	c-0.66-0.749-1.254-1.449-1.894-2.107c-0.07-0.072-0.396,0.104-0.707,0.194c0.584,1.167,1.422,2.082,1.722,3.247
	c-1.487-1.485-1.487-1.485-2.688-1.51C134.762,53.641,135.335,51.868,136.739,50.18z"/>
<path fill-rule="evenodd" clip-rule="evenodd" fill="#ffffff" class="fill" d="M148.858,61.201c-1.757,1.281-3.623,1.072-5.264-0.604
	c-0.186-0.675,0.115-1.052,0.751-1.309C146.141,58.562,147.914,59.3,148.858,61.201z M145.101,60.44
	c0.14,0.531,0.497,0.778,1.042,0.677c0.491-0.091,0.895-0.312,0.836-0.916C145.959,59.419,145.918,59.425,145.101,60.44z"/>
</svg>
