<svg version="1.1" id="svg" xmlns="http://www.w3.org/2000/svg" xmlns:xlink="http://www.w3.org/1999/xlink" x="0px" y="0px"
	 width="200px" height="200px" viewBox="0 0 200 200" enable-background="new 0 0 200 200" xml:space="preserve">
<path class="stroke" fill="#6e3411"  d="M173.524,32.447c-0.219-1.81-0.529-3.611-0.889-5.398c-0.102-0.504-0.457-0.995-0.799-1.406
	c-1.102-1.324-2.593-2.079-4.145-2.751c-3.095-1.342-5.455-3.591-7.002-6.505c-1.173-2.211-2.757-3.379-5.188-3.625
	c-1.199-0.122-2.431-0.317-3.278-1.549c0-0.421,0.033-0.928-0.007-1.429c-0.097-1.212-0.156-2.435-0.363-3.63
	c-0.262-1.51-1.789-2.729-3.158-2.504c-1.561,0.255-2.674,1.134-2.547,3.012c0.038,0.557-0.005,1.123,0.067,1.673
	c0.255,1.956-0.601,3.414-1.925,4.648c-1.711-0.828-3.285-1.841-5.007-2.352c-1.75-0.519-3.645-0.64-5.532-0.375
	c-0.391,3.828,1.42,6.537,4.026,9.01c-1.812,2.733-3.587,5.414-5.363,8.095c0.059,0.038,0.117,0.076,0.176,0.114
	c-0.308,0.262-0.616,0.522-0.887,0.752c-0.143,0.437-0.204,0.855-0.405,1.192c-1.104,1.859-2.242,3.701-3.37,5.548
	c-0.131,0.215-0.232,0.467-0.413,0.63c-2.107,1.896-3.661,4.186-4.904,6.833c-0.46,0.233-0.997,0.506-1.398,0.709
	c-1.107,1.678-1.888,3.472-3.299,4.711c-1.181,1.037-1.816,2.392-2.57,3.636c-0.71,1.172-1.423,2.145-2.563,2.588
	c-2.96,3.855-6.901,6.308-10.719,8.936c-0.177,0.359-0.355,0.719-0.532,1.077c-3.148,2.603-6.328,5.143-10.198,6.982
	c-0.678,1.652-2.592,1.635-4.042,2.362c-0.193,0.434-0.376,0.844-0.477,1.069c-0.718,0.629-1.305,1.108-1.85,1.631
	c-0.836,0.8-1.588,1.697-2.476,2.433c-1.559,1.293-3.164,2.498-4.423,4.139c-2.38,3.101-5.48,4.981-9.444,5.523
	c-4.324,0.591-8.552,1.646-12.645,3.224c-4.803,1.852-9.332,4.04-13.097,7.74c-3.656,3.594-6.52,7.642-8.306,12.4
	c-1.795,4.783-3.845,9.494-4.73,14.579c-0.469,2.695-1.007,5.378-1.502,8.067c-0.284,1.543-0.49,3.102-0.829,4.631
	c-0.393,1.775-0.892,3.527-1.415,5.559c-1.087,1.12-2.135,2.633-2.4,4.504c-0.283,1.998-0.509,4.019-0.559,6.034
	c-0.075,3.079,0.401,6.175-0.369,9.23c-0.121,0.478-0.082,0.996-0.122,1.568c0.326,0.093,0.587,0.168,0.856,0.246
	c0.228-0.489,0.416-0.896,0.605-1.304c0.266,1.821-0.182,3.49-0.676,5.129c-0.732,2.431-1.617,4.804-3.333,6.761
	c-0.251,0.286-0.608,0.624,0.017,1.012c1.689-1.258,2.991-2.886,3.908-4.73c0.93-1.869,1.55-3.893,2.375-6.033
	c0.123,0.448,0.243,0.753,0.287,1.07c0.316,2.258,1.312,4.248,2.457,6.173c0.299,0.502,0.654,1.079,1.529,0.497
	c-0.167-0.475-0.342-0.938-0.492-1.407c-0.464-1.445-1.128-2.864-1.328-4.346c-0.333-2.466-0.286-4.974,0.354-7.413
	c0.498-1.899,1.187-3.756,1.589-5.674c0.619-2.949,0.71-5.937-0.182-8.862c-0.322-1.057-0.399-2.08-0.163-3.139
	c1.025-4.593,2.081-9.18,3.078-13.778c0.755-3.481,1.929-6.83,3.113-10.175c0.449-1.269,1.094-2.468,1.649-3.698
	c0.446,1.105,0.62,2.181,0.775,3.259c0.354,2.456,0.825,4.904,1.022,7.373c0.426,5.327,0.062,10.627-0.811,15.899
	c-0.34,2.055-1.174,3.845-2.426,5.484c-1.513,1.982-2.062,4.18-1.199,6.588c0.391,1.089,0.928,2.125,1.381,3.194
	c0.354,0.838,0.819,1.66,0.996,2.537c0.624,3.092,0.923,6.228,0.632,9.376c-0.275,2.974-0.64,5.942-1.082,8.896
	c-0.434,2.904-1.002,5.79-1.536,8.679c-0.227,1.226-0.178,2.407,0.31,3.592c0.48,0.18,0.944,0.354,1.568,0.59
	c0.209,1.143,0.447,2.326,0.639,3.518c0.204,1.271,1.149,2.452,2.408,2.587c1.908,0.204,3.839,0.337,5.753,0.285
	c0.991-0.026,2.208-0.047,2.775-1.618c-0.433-2.973-1.535-5.797-4.706-7.482c0-1.414-0.042-2.771,0.008-4.125
	c0.109-2.94,0.302-5.877,0.394-8.817c0.151-4.867,0.207-9.737,0.397-14.603c0.054-1.373,0.05-2.808,0.809-4.123
	c0.377,0.837,0.606,1.688,0.819,2.542c1.028,4.129,2.133,8.241,3.048,12.396c0.577,2.618,0.996,5.287,1.248,7.956
	c0.233,2.463,0.396,5.012-0.667,7.344c-0.532,1.167-0.606,2.2-0.17,3.355c0.631,0.333,1.254,0.663,1.931,1.02
	c0.604,1.428,1.216,2.87,1.868,4.41c2.651,1.071,5.328,1.195,7.992,0.192c1.11-2.702,0.713-5.291-1.519-7.07
	c-1.065-0.85-1.765-2.192-2.532-3.375c-1.168-1.802-1.395-3.904-1.631-5.965c-0.617-5.392-1.234-10.786-1.716-16.191
	c-0.316-3.544-0.145-7.106,0.469-10.615c0.55-3.147,1.249-6.269,1.915-9.395c0.868-4.073,1.646-8.158,1.837-12.332
	c0.01-0.226,0.127-0.445,0.196-0.671c2.357,0.781,4.603,1.539,6.857,2.27c5.721,1.854,11.375,1.633,16.975-0.544
	c1.511-0.587,3.062-1.073,4.607-1.568c0.509-0.162,1.056-0.208,1.596-0.31c0.605,2.119,0.87,4.11,0.615,6.141
	c-0.183,1.451-0.228,2.968-0.707,4.324c-0.81,2.289-1.847,4.507-2.916,6.692c-1.021,2.087-1.316,4.214-0.929,6.485
	c0.478,2.799,0.355,5.554-0.771,8.209c-0.158,0.373-0.311,0.756-0.397,1.149c-0.885,4.053-1.752,8.11-2.634,12.164
	c-0.471,2.165-0.805,4.34-2.162,6.246c-1.193,1.678-1.582,3.611-0.741,5.213c0.914,0.875,1.532,1.467,1.897,1.816
	c0.428,1.817,0.192,3.391,1.31,4.596c1.73,0.965,3.625,1.19,5.583,1.012c1.981-0.181,2.531-0.747,2.774-2.741
	c0.043-0.35,0.124-0.697,0.135-1.047c0.052-1.658,0.027-3.263-1.733-4.217c-0.396-0.215-0.646-0.76-0.881-1.197
	c-0.833-1.547-0.473-3.199-0.206-4.773c0.321-1.893,0.874-3.748,1.38-5.605c0.707-2.59,1.444-5.173,2.207-7.748
	c0.691-2.331,1.481-4.634,2.132-6.976c0.296-1.064,0.743-1.946,1.556-2.712c0.974-0.917,1.634-2.02,1.767-3.433
	c0.227-2.421,0.556-4.833,0.857-7.246c0.083-0.675,0.218-1.343,0.328-2.015c0.399,0.237,0.563,0.479,0.634,0.746
	c0.632,2.395,1.145,4.827,1.896,7.183c0.724,2.269,1.029,4.536,0.811,6.895c-0.193,2.093,0.397,3.984,1.381,5.828
	c0.614,1.15,1.068,2.418,1.393,3.685c0.668,2.599,1.218,5.229,1.78,7.854c0.244,1.137,0.376,2.297,0.599,3.438
	c0.54,2.775,1.375,5.518,0.08,8.342c-0.496,1.081,0.12,2.74,1.145,3.171c1.123,0.472,1.755,1.319,2.273,2.205
	c3.01,1.691,6.012,1.2,9.068,0.598c0.532-3.813-0.252-5.555-3.18-7.259c-1-0.582-1.569-1.39-1.809-2.494
	c-0.546-2.521-1.194-5.022-1.642-7.56c-0.449-2.542-0.608-5.135-1.076-7.671c-0.361-1.955-0.3-3.813,0.301-5.696
	c0.46-1.442,0.327-2.927,0.013-4.373c-0.721-3.315-1.534-6.611-2.248-9.929c-0.341-1.581-0.671-3.184-0.775-4.792
	c-0.124-1.916,0.058-3.85,0.002-5.772c-0.062-2.127-0.064-4.281-0.418-6.367c-0.431-2.531-0.749-5.033-0.077-7.53
	c0.629-2.335,1.194-4.678,2.772-6.679c2.381-3.02,4.204-6.307,4.249-10.354c0.035-3.093,0.184-6.167-0.496-9.227
	c-0.986-4.435,0.713-8.184,3.271-11.624c1.51-2.03,3.312-3.848,4.75-5.924c3.378-4.876,6.632-9.837,9.902-14.786
	c2.124-3.214,4.375-6.364,6.229-9.731c2.025-3.678,3.723-7.543,5.44-11.382c1.073-2.399,1.975-4.88,2.848-7.362
	c0.638-1.813,1.19-3.668,1.619-5.542c0.353-1.545,1.648-1.983,3.06-1.422c0.186,0.075,0.344,0.215,0.524,0.309
	c1.471,0.762,2.996,1.207,4.686,0.938c1.048-0.166,2.111-0.273,3.171-0.32c1.075-0.048,2.06,0.125,2.924,0.959
	c1.816,1.753,3.929,2.433,6.381,1.303c0.614,0.215,1.23,0.43,1.751,0.612C173.462,34.579,173.747,34.288,173.524,32.447z"/>
<path fill-rule="evenodd" clip-rule="evenodd" fill="#ffd624" class="fill" d="M142.793,45.702c-1.515,0-2.822,0-4.104,0
	c-1.304,2.134-2.832,4.092-2.351,6.712c0.701,0.611,1.339,1.167,2.083,1.815c-3.43,5.688-6.837,11.241-10.998,16.567
	c-0.719-0.777-1.409-1.521-2.175-2.348c-1.374,0.207-2.72,0.395-4.061,0.624c-0.288,0.049-0.623,0.177-0.815,0.382
	c-1.516,1.613-2.859,3.313-2.425,5.753c0.151,0.849,0.352,1.692,0.437,2.547c0.136,1.362,0.5,2.592,1.719,3.449
	c-0.157,0.334-0.237,0.633-0.413,0.855c-1.349,1.714-2.72,3.411-4.077,5.119c-2.606,3.281-3.919,6.926-3.112,11.161
	c0.027,0.142-0.012,0.296-0.029,0.601c-0.896,0.312-1.833,0.639-2.879,1.003c-0.449,2.191-0.888,4.359-0.4,6.594
	c0.271,1.245,1.271,1.766,2.344,2.158c0.455,0.166,0.943,0.242,1.56,0.395c-0.387,1.295-0.727,2.432-1.024,3.427
	c-1.156,0-2.109,0.014-3.062-0.003c-1.545-0.027-2.653,0.646-3.178,2.097c-0.321,0.886-0.483,1.83-0.706,2.709
	c0.489,0.555,0.862,0.964,1.219,1.385c0.356,0.421,0.696,0.855,1.148,1.414c-2.894,3.303-4.751,7.154-6.182,11.265
	c-0.68-0.133-1.159-0.245-1.644-0.319c-1.123-0.171-2.098,0.189-2.567,1.21c-0.647,1.41-1.107,2.906-1.598,4.231
	c0.758,1.2,1.377,2.182,2.026,3.207c-0.305,1.038-0.59,2.059-0.907,3.071c-0.703,2.242-1.16,4.519-1.012,6.886
	c0.173,2.763-0.797,5.259-2.262,7.446c-1.328,1.98-2.294,4.011-2.846,6.313c-0.661,2.76-1.471,5.484-2.212,8.225
	c-0.872,3.228-1.74,6.456-2.601,9.651c0,0.818,0.002,1.62,0,2.422c-0.004,1.632,0.289,3.109,1.747,4.155
	c1.589,1.14,1.611,2.792,1.367,4.49c-1.561,0.53-4.016,0.382-5.832-0.391c-0.145-0.933-0.305-1.965-0.471-3.034
	c-0.284-0.216-0.576-0.411-0.836-0.642c-1.295-1.145-1.444-2.013-0.763-3.643c1.586-3.797,2.846-7.692,3.599-11.752
	c0.406-2.189,0.979-4.351,1.517-6.513c0.55-2.212,1.333-4.383,1.676-6.624c0.303-1.984,0.142-4.041,0.186-6.066
	c0.023-1.051,0.046-2.102,0.064-2.925c0.982-0.459,1.724-0.805,2.455-1.146c0.103-0.99,0.185-1.788,0.279-2.694
	c-0.299-0.209-0.587-0.412-0.873-0.612c0.823-4.341,2.511-8.452,2.01-12.981c0.585-0.116,1.018-0.215,1.454-0.289
	c1.286-0.219,1.803-0.766,1.791-2.019c-0.005-0.554-0.104-1.112-0.206-1.66c-0.092-0.491-0.248-0.972-0.402-1.56
	c-0.641-0.164-1.256-0.322-2.039-0.523c0.292-1.096,0.586-2.193,0.875-3.278c-1.524-0.646-2.516,0.526-3.096,3.648
	c-0.922,0.238-1.913,0.438-2.865,0.753c-2.259,0.749-4.5,1.553-6.749,2.334c-2.19,0.761-4.43,1.011-6.733,0.683
	c-1.803-0.257-3.619-0.427-5.41-0.745c-3.049-0.541-5.703-2.079-8.357-3.559c-0.731-0.408-1.387-1.064-1.88-1.75
	c-0.312-0.434-0.344-1.129-0.353-1.709c-0.023-1.67,0.097-3.343,0.032-5.009c-0.054-1.355-0.782-2.021-2.37-2.292
	c-0.042,0.681-0.083,1.34-0.133,2.148c-1.122-0.188-2.292-0.484-3.392,0.408c-0.81,1.336-1.118,2.895-1.144,4.561
	c1.165,1.299,2.812,1.058,4.319,1.46c-0.076,3.391-1.811,6.182-3.027,9.207c-0.905,0-1.797,0-2.81,0
	c-0.895,1.229-1.375,2.648-1.322,4.185c0.036,1.028,0.877,1.531,1.756,1.799c-1.644,4.626-3.263,9.181-4.893,13.766
	c-0.4,0.078-0.782,0.151-1.114,0.216c-1.021,1.539-1.14,3.277,0.622,3.903c-0.207,1.47-0.452,2.965-0.618,4.469
	c-0.144,1.309-0.232,2.627-0.286,3.943c-0.206,4.962-0.39,9.926-0.576,14.89c-0.081,2.178-0.149,4.356-0.221,6.535
	c-0.04,1.262,0.428,2.264,1.502,2.972c0.72,0.475,1.452,0.943,2.115,1.491c0.827,0.685,1.48,1.502,1.408,2.655
	c-1.759,0.906-3.305,0.899-7.263-0.023c-0.106-0.693-0.311-1.43-0.312-2.168c-0.002-1.184-0.479-2.099-1.436-2.693
	c-1.071-0.666-1.23-1.522-0.842-2.609c1.507-4.208,1.719-8.639,2.188-13.019c0.313-2.92,0.531-5.859,0.596-8.795
	c0.062-2.818-0.595-5.527-1.924-8.049c-0.355-0.672-0.654-1.374-0.976-2.064c-1.193-2.558-0.986-3.609,1.106-5.644
	c0.695,0.201,1.393,0.403,2.007,0.581c1.069-1.239,1.325-2.011,1.285-3.748c-0.413-0.24-0.883-0.513-1.284-0.746
	c0.481-4.347,0.959-8.662,1.454-13.132c0.517-0.108,1.091-0.263,1.675-0.346c0.791-0.112,1.363-0.497,1.503-1.287
	c0.158-0.896,0.282-1.812,0.271-2.717c-0.006-0.556-0.293-1.108-0.444-1.626c-1.152-0.207-2.092-0.375-3.125-0.561
	c-0.2-1.471-0.397-2.917-0.594-4.366c0.27-0.389,0.525-0.758,0.803-1.158c-0.151-0.999-0.301-1.995-0.448-2.962
	c-0.412-0.336-0.759-0.619-1.314-1.07c0-1.274-0.058-2.687,0.017-4.092c0.07-1.315,0.131-1.312-0.549-2.954
	c-0.327,0.246-0.689,0.406-0.881,0.685c-0.459,0.667-0.886,1.365-1.242,2.092c-2.748,5.611-5.162,11.347-6.487,17.489
	c-0.223,1.032-0.615,2.027-0.932,3.049c-0.399-1.497,1.204-9.11,3.037-14.441c1.376-4.001,4.961-10.879,6.875-13.162
	c1.072,0.355,2.148,0.779,3.26,1.064c1.775,0.454,2.617-0.079,3.183-1.848c0.399-1.25,0.822-2.491,1.298-3.933
	c-0.704-0.576-1.378-1.129-2.205-1.806c0.959-1.01,2.329-1.612,3.661-2.482c0.339,0.642,0.636,1.203,0.98,1.856
	c1.47,0.454,3.007,0.928,4.43,1.367c3.721-1.797,4.475-3.295,3.584-7.241c3.138-0.701,6.277-1.403,9.5-2.123
	c0.373,0.541,0.683,0.99,0.991,1.44c0.563,0.82,1.383,0.995,2.287,0.847c0.976-0.16,3.119-1.721,3.809-2.758
	c-0.21-0.486-0.445-1.031-0.727-1.681c0.759-0.481,1.506-0.954,2.374-1.504c0.244,0.79,0.434,1.403,0.647,2.099
	c1.744-0.062,3.319,1.456,5.403,0.18c0.187-0.357,0.531-0.969,0.831-1.602c0.196-0.411,0.335-0.849,0.487-1.28
	c1.168-3.316,1.168-3.316-0.51-6.221c0.86-1.215,2.099-2.021,3.368-2.743c2.822-1.604,5.686-3.135,8.547-4.703
	c1.92,0.666,3.274,2.503,5.642,2.522c1.029-1.678,2.117-3.376,3.123-5.122c0.668-1.159,0.314-2.359-0.211-3.642
	c3.043-2.554,6.076-5.098,9.109-7.643c0.054,0.046,0.108,0.091,0.163,0.137c-0.357,1.013-0.713,2.026-1.05,2.984
	c0.995,1.13,1.929,1.79,3.415,1.128c0.485-1.379,0.599-2.786,0.106-4.244c-0.479-0.321-0.932-0.625-1.531-1.027
	c1.297-1.389,2.525-2.703,3.831-4.101c1.418,0.497,2.788,0.977,4.094,1.434c1.053-0.84,3.498-5.422,3.77-7.135
	c-0.519-0.472-1.138-1.033-1.785-1.621c2.848-4.219,5.7-8.442,8.657-12.821c0.425,0.406,0.796,0.793,1.202,1.14
	c0.42,0.359,0.872,0.679,1.283,0.994c1.157-0.128,2.347,0.249,3.296-0.914c0.304-2.167,0.626-4.463,0.963-6.87
	c-0.765-0.343-1.491-0.668-2.408-1.079c1.094-1.99,2.2-4.001,3.244-5.9c0.746-0.297,1.301-0.519,1.867-0.744
	c0.15-0.951-0.431-1.252-1.125-1.551c-1.064-0.458-2.135-0.928-3.126-1.521c-1.205-0.724-2.12-2.835-2.008-4.355
	c0.126-0.025,0.283-0.111,0.4-0.073c1.923,0.64,3.854,1.259,5.755,1.959c1.024,0.377,1.48,1.26,1.808,2.471
	c-1.993-0.972-3.294-3.204-5.996-2.164c0.137,0.442,0.165,0.904,0.401,1.196c0.308,0.38,0.754,0.674,1.188,0.918
	c1.051,0.591,2.13,1.13,3.538,1.869c0.659-0.212,1.64-0.529,2.28-0.735c0.958-1.16,0.187-1.973,0.23-3.083
	c0.48-0.781,1.061-1.786,1.704-2.75c0.62-0.931,1.008-1.869,0.572-2.998c-0.107-0.276-0.128-0.6-0.125-0.901
	c0.007-0.998,0.396-1.268,1.766-1.102c0.144,0.771,0.283,1.604,0.458,2.431c0.167,0.792,0.292,1.606,0.576,2.357
	c0.488,1.292,1.447,2.163,2.872,2.089c2.918-0.15,4.724,1.241,6.031,3.738c0.883,1.688,1.792,3.395,3.28,4.718
	c1.197,1.063,2.432,1.934,3.992,2.395c1.055,0.311,2.06,0.827,3.037,1.345c0.402,0.213,0.673,0.672,0.855,1.257
	c-0.511-0.072-1.023-0.145-1.516-0.215c-1.02,1.562,0.08,3.314,2.687,4.174c0.034,0.762,0.071,1.587,0.109,2.437
	c-1.227,0.199-1.7-0.619-2.255-1.226c-1.292-1.413-2.702-2.232-4.629-2.551c-0.105,0.273-0.22,0.567-0.35,0.904
	c1.306,0.75,2.949,0.903,3.548,2.567c-0.991,0.72-1.873,0.165-2.656-0.273c-0.694-0.389-1.301-0.977-1.854-1.563
	c-1.011-1.071-2.194-1.359-3.602-1.077c-0.841,0.169-1.7,0.283-2.557,0.341c-2.079,0.139-3.984-0.369-5.814-1.412
	c-1.898-1.082-3.297-0.588-4.138,1.424c-0.819,1.958-1.508,3.974-2.177,5.99C144.637,39.766,143.751,42.673,142.793,45.702z
	 M89.217,100.659c0.372,0.07,0.577,0.163,0.765,0.137c2.152-0.306,4.314-0.568,6.444-0.996c0.479-0.097,0.942-0.725,1.234-1.215
	c1-1.677,1.09-3.562,1.042-5.451c-0.044-1.724-0.792-3.022-2.438-3.697c-0.744-0.305-1.506-0.562-2.154-0.803
	c-2.331,0.656-4.569,1.092-6.478,2.444C87.446,94.45,87.632,97.633,89.217,100.659z M99.587,100.202
	c-0.736,1.25-1.399,2.271-1.948,3.352c-0.286,0.562-0.584,1.253-0.509,1.84c0.315,2.475,1.135,4.794,2.466,6.996
	c0.568-0.038,1.087,0.012,1.555-0.12c1.264-0.355,2.534-0.718,3.75-1.207c1.831-0.735,2.405-1.898,2.101-3.879
	c-0.184-1.199-0.319-2.405-0.522-3.601c-0.168-0.983-0.405-1.955-0.592-2.842C103.686,99.876,101.612,100.224,99.587,100.202z
	 M78.836,100.378c-0.853,1.302-1.786,2.726-2.746,4.192c0.748,2.367,1.48,4.654,3.113,6.747c1.738-0.477,3.456-0.872,5.109-1.453
	c0.468-0.165,0.943-0.819,1.08-1.338c0.649-2.462,0.211-4.89-0.325-7.295C83.095,100.421,81.289,99.387,78.836,100.378z
	 M104.22,86.737c0.964-2.144,1.904-4.153,2.768-6.196c0.354-0.837,0.542-1.744,0.103-2.854c-0.658-0.561-1.456-1.239-2.34-1.992
	c-1.885,0.78-3.689,1.526-5.382,2.228c-1.405,2.304-2.012,4.669-2.216,7.325C99.329,86.312,101.52,87.188,104.22,86.737z
	 M109.607,66.141c-0.805,0.925-1.622,1.754-2.307,2.681c-0.763,1.031-1.109,2.155-0.244,3.36c0.261,0.362,0.42,0.811,0.567,1.239
	c0.531,1.544,1.693,2.32,3.312,2.777c1.69-1.076,3.425-2.179,5.205-3.312c-0.328-1.67-0.625-3.204-0.932-4.736
	c-0.166-0.831-0.638-1.354-1.512-1.468C112.395,66.514,111.096,66.338,109.607,66.141z M94.499,74.552
	c-2.599,0.521-4.56,2.071-6.562,3.622c0.184,2.097-0.078,4.16,1.31,5.92c1.295,0.088,2.552,0.232,3.81,0.243
	c1.725,0.015,2.333-0.483,2.836-2.144c0.352-1.162,0.722-2.321,0.999-3.502c0.165-0.702,0.164-1.443,0.229-2.078
	C96.174,75.868,95.421,75.276,94.499,74.552z M113.534,77.757c-2.768,0.093-5.321,2.273-5.347,4.581
	c-0.027,2.278,1.638,5.097,4.35,5.545c1.729-0.907,3.04-2.325,4.158-3.988c0.433-0.645,0.665-1.221,0.385-1.925
	C115.86,80.521,114.664,79.1,113.534,77.757z M58.516,108.1c1.75,0.865,3.59,1.583,5.705,1.029c1.047-1.975,1.526-4.017,1.798-6.129
	c-1.415-1.735-3.5-1.816-5.21-2.486c-1.038,0.203-1.954,0.382-2.853,0.557C57.397,103.532,57.297,105.805,58.516,108.1z
	 M110.408,90.471c-1.05-0.423-2.015-0.811-2.854-1.147c-0.878,0.391-1.569,0.698-2.187,0.974c-2.188,2.192-2.964,4.668-1.963,7.704
	c1.489,0,2.951,0.08,4.402-0.019c2.089-0.142,2.86-0.946,2.899-3.085C110.731,93.499,110.526,92.095,110.408,90.471z
	 M82.912,121.374c0.317-3.27-0.466-6.01-2.091-7.419c-0.689,0.032-1.442,0.067-2.305,0.107c-0.684,1.21-2.507,1.229-3.026,2.678
	c0.37,2.083,0.303,4.193,1.365,6.092C79.044,122.894,80.959,122.146,82.912,121.374z M73.989,113.368
	c-0.578-0.542-1.026-1.017-1.528-1.426c-1.649-1.344-4.915-1.414-6.207,1.229c-0.529,1.083-1.031,2.18-1.562,3.305
	c0.959,2.265,3.177,2.085,4.874,2.754c0.702-0.229,1.318-0.43,1.876-0.612C72.292,116.865,73.102,115.197,73.989,113.368z
	 M103.063,121.086c0.779-2.21,1.02-4.493,0.35-6.84c-1.108-0.288-2.071-0.622-3.061-0.758c-0.486-0.067-1.117,0.099-1.522,0.387
	c-1.959,1.392-2.596,5.001-1.375,7.403C99.296,121.695,101.584,121.633,103.063,121.086z M74.853,105.68
	c-1.598-2.006-4.53-3.729-6.314-3.782c-1.247,1.325-2.056,3.95-1.811,5.876c2.294,1.48,4.587,2.246,6.806,2.273
	C74.969,108.887,74.448,107.163,74.853,105.68z M133.289,38.364c-1.046,0.395-1.906,0.599-2.63,1.032
	c-0.516,0.309-1.134,0.885-1.208,1.413c-0.263,1.856-0.088,3.707,0.694,5.412c0.341,0.117,0.577,0.204,0.818,0.278
	c0.286,0.087,0.576,0.164,0.774,0.22c2.375-0.708,2.375-0.708,3.287-1.847c0.138-1.504,0.276-3.009,0.424-4.616
	C134.737,39.635,134.031,39.015,133.289,38.364z M89.422,118.812c4.402-1.694,5.068-4.806,2.02-7.9
	c-0.853,0.242-1.765,0.522-2.688,0.756c-1.588,0.401-2.533,1.387-2.829,2.992C86.693,116.381,88.062,117.563,89.422,118.812z
	 M76.447,93.797c-0.847-0.767-1.712-0.723-2.386-0.251c-1.314,0.921-2.657,1.874-3.725,3.052c-1.283,1.414-0.655,3.196,1.172,3.875
	c1.164,0.433,2.357,0.552,3.709,0.184C76.39,98.548,76.261,96.161,76.447,93.797z M79.175,91.94
	c-0.105,0.986-0.29,2.079-0.319,3.176c-0.029,1.097,0.754,2.025,1.771,2.115c1.05,0.093,2.118,0.104,3.167,0.021
	c0.556-0.045,1.089-0.368,1.543-0.534c0-1.817,0-3.408,0-4.875C83.861,90.894,80.631,90.965,79.175,91.94z M60.624,97.359
	c1.368,0.557,2.701,1.098,3.913,1.59c1.875-1.281,3.289-3.76,3.076-5.346c-0.65-0.48-1.373-1.015-1.975-1.461
	c-1.466,0.178-2.755,0.21-3.775,1.291C60.849,94.509,60.348,95.652,60.624,97.359z M122.386,57.722
	c-1.565,0.731-3.301,0.461-4.242,2.031c0.549,1.408-0.519,3.166,0.968,4.355c1.631,0.169,3.136-0.132,4.957-1.005
	c0.233-1.233,1.031-2.445,0.476-4.074C123.909,58.645,123.151,58.186,122.386,57.722z M89.138,108.958
	c4.462,0.145,6.458-1.619,5.34-4.733c-1.05-0.286-1.591-1.74-2.998-1.394c-1.107,0.272-2.354,0.18-3.205,1.229
	C88.189,105.708,88.083,107.38,89.138,108.958z M128.625,57.961c-1.257,2.11-1.848,4.363-1.842,6.771
	c0.376,0.18,0.559,0.346,0.734,0.338c1.321-0.054,2.635-0.147,3.489-1.392c0.514-0.751,1.056-1.483,1.569-2.235
	c1.078-1.577,0.99-2.127-0.589-3.482C130.994,57.961,129.937,57.961,128.625,57.961z M67.931,125.005
	c1.199,0.655,2.346,1.274,3.488,1.907c1.83,1.014,3.791,0.396,4.563-2.488c-1.356-1.259-2.568-2.813-4.527-3.341
	C69.982,122.11,68.215,122.684,67.931,125.005z M143.614,36.199c-0.48-0.169-0.941-0.39-1.426-0.489
	c-0.903-0.185-1.859-0.005-2.312,0.771c-0.906,1.551-1.613,3.217-2.375,4.781c0.765,1.097,1.43,1.966,2.602,2.184
	C142.229,42.424,144.319,38.266,143.614,36.199z M90.985,122.388c-1.303-0.712-2.603-1.422-3.861-2.109
	c-1.995,1.445-2.861,3.522-2.319,5.688c0.868,0.352,1.832,0.742,2.803,1.136C89.319,125.92,90.732,124.713,90.985,122.388z
	 M54.53,102.124c-1.242-0.567-2.368-0.085-3.49,0.303c-0.946,1.482-2.045,2.885-1.082,4.735c2.001,0.959,3.33,1.427,4.616,0.438
	C55.376,105.805,55.649,103.981,54.53,102.124z M132.698,55.696c0.24-1.851,0.458-3.523,0.649-4.997
	c-0.948-1.411-2.125-1.036-3.194-1.023c-1.011,0.011-1.65,0.589-1.759,1.544c-0.141,1.244-0.137,2.506-0.148,3.76
	c-0.002,0.208,0.236,0.418,0.418,0.716C129.902,55.696,131.141,55.696,132.698,55.696z M43.136,116.845
	c2.056,0.752,3.132,0.024,3.088-2.148c-0.019-0.959-0.115-1.924-0.273-2.869c-0.319-1.904-1.244-2.387-3.117-1.719
	c-0.488,0.597-0.964,1.178-1.387,1.695C41.597,113.691,42.012,115.39,43.136,116.845z M54.77,111.403
	c-1.598-0.88-3.169-0.472-4.751-0.593c-0.932,1.568-0.096,3.034-0.116,4.653c1.808-0.226,3.503,0.137,5.014-1.064
	C54.867,113.386,54.819,112.398,54.77,111.403z M43.845,124.545c1.637,0.055,3.118,0.496,4.548-0.652
	c-0.134-1.289-0.274-2.631-0.404-3.888c-2.137-1.011-3.81-0.485-4.424,1.183C43.66,122.329,43.747,123.373,43.845,124.545z
	 M58.945,111.939c-0.777,1.48-1.37,2.764-0.529,4.28c1.398,0.404,2.575,1.719,4.307,0.917c-0.027-1.51,0.411-3.003-0.218-4.61
	C61.331,112.333,60.165,112.141,58.945,111.939z M157.513,19.71c-1.785-0.947-3.743-0.06-5.629-0.161
	c-0.808-0.045-1.749,0.027-2.172,0.943c-0.086,2.54,2.006,3.741,5.657,2.495c0.275-0.456,0.586-0.97,0.927-1.532
	C156.899,21.146,157.729,20.946,157.513,19.71z M102.998,125.498c-1.175-1.229-2.248-1.973-3.87-1.729
	c-0.742,1.493-1.183,3.036-0.939,4.764c0.994,0.479,1.815,1.248,3.114,0.761C101.844,128.084,102.41,126.814,102.998,125.498z
	 M51.824,126.804c-0.721-0.372-1.449-0.749-2.102-1.087c-1.137,0.779-2.107,1.478-2.029,2.723c0.073,1.167,0.229,2.379,0.888,3.403
	C50.794,131.413,51.864,129.812,51.824,126.804z M141.906,28.983c-0.307,0.566-0.562,0.998-0.778,1.448
	c-0.171,0.356-0.295,0.736-0.426,1.07c1.276,1.838,2.475,2.245,3.88,1.295c0.38-1.054,0.779-2.165,1.157-3.215
	C144.51,28.042,143.225,28.852,141.906,28.983z M59.341,122.661c2.923,1.55,3.724,1.352,5.195-1.322
	c-1.333-1.094-2.583-2.355-4.581-2.034C59.135,120.401,59.265,121.546,59.341,122.661z M145.268,23.706
	c-0.298-0.542-0.52-1.189-0.949-1.638c-0.287-0.298-0.936-0.531-1.309-0.418c-1.908,0.577-3.386,1.499-2.542,4.183
	c0.275,0.263,0.626,0.598,0.921,0.88C143.122,26.187,144.111,24.962,145.268,23.706z M44.979,133.936
	c-1.612,1.114-2.28,2.333-1.722,4.056c0.971,0.555,1.904,1.187,3.165,0.476c0-1.159,0-2.309,0-3.55
	C45.934,134.584,45.453,134.258,44.979,133.936z M96.497,125.527c1.17-2.319,0.726-3.693-1.473-4.532
	c-2.019,0.81-0.741,2.632-1.297,3.787C94.573,125.706,95.356,126.155,96.497,125.527z M94.313,145.423
	c0.657-1.265,0.873-2.45,0.842-3.653c-0.688-0.644-1.362-0.824-2.165-0.543c-0.8,1.078-1.22,2.251-1.282,3.766
	C92.644,145.146,93.453,145.28,94.313,145.423z M45.18,145.904c0.5-1.006,0.979-1.974,1.565-3.154
	c-1.015-0.415-1.811-0.74-2.479-1.013c-1.639,0.886-1.245,2.238-1.339,3.392C43.461,145.938,44.201,145.956,45.18,145.904z
	 M38.515,154.184c0.279,0.631,0.539,1.217,0.871,1.968c0.631,0.06,1.292,0.122,1.836,0.174c0.911-0.94,0.785-1.839,0.372-2.665
	c-0.421-0.842-1.098-1.429-2.243-1.176c-0.083,0.276-0.134,0.571-0.262,0.828C38.938,153.614,38.718,153.881,38.515,154.184z
	 M92.296,149.141c-0.177,2.552-0.058,3.152,0.783,4.058c1.055-0.531,1.355-1.523,1.494-2.575c0.1-0.761,0.116-1.546-0.992-1.917
	C93.243,148.821,92.783,148.976,92.296,149.141z M147.024,26.531c1.122,0.822,2.2,1.532,3.807,1.033
	c0.069-0.406,0.147-0.863,0.223-1.312c-0.965-0.604-1.803-1.128-2.578-1.613C147.367,25.286,147.367,25.286,147.024,26.531z
	 M93.286,134.854c-0.885,1.516-0.969,2.378-0.484,3.944c0.744,0.305,1.424,0.187,2.168-0.46
	C94.742,137.093,94.587,135.804,93.286,134.854z M91.386,153.947c-0.368-0.279-0.592-0.478-0.846-0.63
	c-0.164-0.098-0.369-0.128-0.531-0.181c-1.176,1.071-1.341,2.123-0.501,3.768c0.541-0.151,1.12-0.315,1.739-0.489
	C91.298,155.506,91.34,154.768,91.386,153.947z M162.23,28.759c-0.464-1.805-1.379-2.207-3.375-1.477
	c0.026,0.45,0.055,0.951,0.084,1.459C160.116,29.11,161.119,29.329,162.23,28.759z M154.298,25.437
	c-0.499,0.181-0.855,0.312-1.38,0.502c0.25,0.729,0.464,1.357,0.681,1.991c0.919-0.088,1.801,0.437,2.327-0.725
	C155.419,26.655,154.915,26.107,154.298,25.437z M44.07,148.79c-1.013,0.728-1.442,1.506-1.413,2.523
	c1.287,0.509,2.062-0.025,2.485-1.749C44.829,149.339,44.479,149.086,44.07,148.79z M145.308,20.788
	c0.689,1.398,1.095,1.587,2.516,1.103c-0.245-0.672-0.489-1.342-0.733-2.014C146.172,19.758,145.701,20.206,145.308,20.788z
	 M156.327,24.686c0.088,0.486,0.163,0.899,0.233,1.29c0.832,0.211,1.523,0.441,1.861-0.579
	C157.973,24.717,157.479,24.224,156.327,24.686z"/>
<path fill-rule="evenodd" clip-rule="evenodd" fill="#ffd624" class="fill" d="M116.788,192.743c-2.176,0.729-4.048-0.006-5.706-0.057
	c-0.901-0.774-1.619-1.392-2.476-2.128c0.089-0.433,0.152-1.038,0.342-1.6c0.687-2.031,0.647-4.005,0.12-6.108
	c-0.973-3.883-1.616-7.847-2.543-11.742c-0.537-2.256-1.354-4.445-2.057-6.659c-0.559-1.756-0.901-3.525-0.512-5.35
	c0.572-0.394,1.104-0.76,1.765-1.216c-0.179-0.733-0.353-1.441-0.528-2.155c-0.663-0.17-1.194-0.307-1.886-0.483
	c-0.352-0.942-0.814-1.952-1.107-3.009c-0.919-3.324-1.775-6.664-2.657-9.997c-0.213-0.808-0.18-1.583,0.121-2.38
	c1.536-4.076,2.988-8.185,4.59-12.234c0.547-1.384,1.445-2.628,2.183-3.937c0.116,0.042,0.232,0.083,0.349,0.123
	c-0.386,1.764-0.772,3.526-1.206,5.508c-0.27,0.318-0.691,0.815-1.056,1.246c-0.31,2.86,0.022,3.664,1.949,4.6
	c0.076,1.488,0.155,3.043,0.235,4.604c-0.538,0.288-0.975,0.522-1.603,0.858c0.143,0.789,0.29,1.605,0.433,2.404
	c0.509,0.162,0.883,0.281,1.261,0.402c0.052,0.162,0.127,0.301,0.139,0.445c0.162,1.97,0.293,3.944,0.48,5.913
	c0.077,0.804,0.226,1.608,0.421,2.393c0.613,2.457,1.367,4.883,1.859,7.363c0.271,1.364,0.465,2.908,0.096,4.2
	c-0.671,2.347-0.492,4.627-0.146,6.926c0.473,3.152,1.077,6.286,1.639,9.425c0.375,2.097,0.771,4.19,1.235,6.703
	c1.089,1.021,2.441,2.289,3.923,3.679C116.541,191.1,116.659,191.886,116.788,192.743z M101.876,138.922
	c1.831,0.028,1.831,0.028,2.865-0.706c-0.233-1.06-0.296-2.205-1.119-3.254c-0.48,0.185-0.925,0.354-1.494,0.573
	C102.045,136.665,101.965,137.738,101.876,138.922z M103.029,140.594c-1.744-0.102-1.933,0.001-2.499,1.29
	c0.185,0.586,0.38,1.201,0.582,1.838c1.018,0.455,1.859,0.306,2.731-0.571C103.574,142.301,103.292,141.417,103.029,140.594z
	 M105.599,145.967c-1-0.249-1.76-0.487-2.725,0.144c0.115,0.881,0.24,1.836,0.398,3.047c0.771-0.29,1.331-0.501,1.877-0.707
	C105.311,147.558,105.442,146.834,105.599,145.967z M107.127,152.85c-0.085-0.628-0.172-1.264-0.273-2.004
	c-0.588-0.049-1.068-0.089-1.528-0.126c-0.778,0.979-0.861,1.966-0.677,3.028C105.68,154.03,106.443,153.836,107.127,152.85z
	 M106.451,161.166c0.958,0.507,1.551,0.086,2.222-0.37c-0.042-0.599-0.082-1.17-0.134-1.926c-0.614,0.07-1.064,0.12-1.496,0.168
	C106.829,159.81,106.658,160.425,106.451,161.166z"/>
<path fill-rule="evenodd" clip-rule="evenodd" fill="#ffd624" class="fill" d="M60.389,193.958c-1.632,0.744-3.224,0.297-4.803,0.182
	c-0.475-1.264-0.931-2.479-1.34-3.566c-0.641-0.325-1.085-0.552-1.596-0.812c0.209-1.304,0.513-2.581,0.598-3.873
	c0.116-1.764,0.2-3.549,0.06-5.306c-0.25-3.134-0.816-6.223-1.622-9.272c-0.424-1.606-0.525-3.299-0.967-4.899
	c-0.768-2.78-1.694-5.518-2.541-8.277c-0.371-1.208-0.778-2.412-1.029-3.647c-0.124-0.611-0.067-1.337,0.145-1.926
	c0.771-2.14,1.647-4.241,2.474-6.362c1.45-3.725,2.877-7.457,4.343-11.175c0.754-1.912,1.571-3.799,2.646-5.737
	c0.112,0.496,0.313,0.989,0.323,1.487c0.057,3.037,0.083,6.054-0.791,9.035c-1.039,3.545-1.908,7.143-2.768,10.737
	c-0.665,2.778-0.7,5.628-0.678,8.47c0.041,5.634,0.651,11.227,1.3,16.813c0.239,2.055,0.85,4.07,1.038,6.126
	c0.186,2.03,1.034,3.793,1.787,5.604c0.304,0.732,0.828,1.382,1.298,2.036c0.85,1.187,1.96,2.221,2.12,3.79
	C60.405,193.575,60.389,193.771,60.389,193.958z"/>
<path fill-rule="evenodd" clip-rule="evenodd" fill="#ffd624" class="fill" d="M29.497,137.479c0.092-0.478,0.185-0.956,0.277-1.434
	c0.067,0.019,0.135,0.037,0.203,0.055c-0.121,0.429-0.242,0.857-0.364,1.286c-0.011,0.04-0.029,0.076-0.045,0.113
	C29.544,137.492,29.521,137.485,29.497,137.479z"/>
<path fill-rule="evenodd" clip-rule="evenodd" fill="#ffd624" class="fill" d="M29.463,138.972c-0.134,0.578-0.267,1.155-0.401,1.733
	c-0.102-0.021-0.205-0.044-0.307-0.065c0.138-0.577,0.275-1.154,0.413-1.73C29.268,138.93,29.365,138.951,29.463,138.972z"/>
<path fill-rule="evenodd" clip-rule="evenodd" fill="#ffd624" class="fill" d="M152.943,22.229c-1.498,0.098-1.69-0.038-1.917-1.48
	c0.587-0.032,1.159-0.065,1.827-0.104C152.885,21.21,152.914,21.718,152.943,22.229z"/>
<path fill-rule="evenodd" clip-rule="evenodd" fill="#ffd624" class="fill" d="M154.534,21.781c-0.148-0.297-0.296-0.596-0.493-0.989
	c0.288-0.033,0.506-0.058,0.854-0.098c-0.036,0.408-0.062,0.711-0.089,1.014C154.715,21.733,154.625,21.757,154.534,21.781z"/>
</svg>
