<svg version="1.1" id="svg" xmlns="http://www.w3.org/2000/svg" xmlns:xlink="http://www.w3.org/1999/xlink" x="0px" y="0px"
	 width="200px" height="200px" viewBox="0 0 200 200" enable-background="new 0 0 200 200" xml:space="preserve">
<g>
	<path class="stroke" fill="#6e3411"  d="M154.281,99.302c-0.101-0.376-0.165-1.115-0.486-1.718c-0.584-1.095-1.294-2.126-1.997-3.152
		c-2.741-4.011-5.982-7.549-9.513-10.017c-2.3-3.451-4.229-6.501-6.318-9.437c-1.523-2.14-3.078-4.311-4.939-6.146
		c-3.188-3.147-6.902-5.621-11.061-7.382c-1.595-0.674-3.21-0.903-4.953-0.729c-2.15,0.218-3.586,1.305-4.385,3.213
		c-0.493,1.179-0.766,2.451-1.136,3.682c-0.132,0.354-0.381,0.698-0.718,0.893c-1.76,1.014-2.461,2.597-2.644,4.54
		c-0.054,0.593-0.278,1.256-0.642,1.715c-1.554,1.955-3.249,3.799-4.776,5.772c-1.508,1.949-2.264,3.532-0.569,5.935
		c0.407,0.579,0.711,1.238,1.023,1.879c0.877,1.797,0.607,3.058-1.106,4.119c-1.931,1.193-4.059,1.771-6.372,1.414
		c-2.747-0.425-5.463-0.927-7.7-2.761c-0.62-0.509-1.228-1.031-1.852-1.533c-1.912-1.539-3.825-3.072-5.741-4.605
		c-0.349-0.28-0.686-0.578-1.052-0.828c-3.351-2.292-6.744-4.506-10.522-6.061c-3.545-1.458-7.241-2.196-11.046-2.487
		c-2.445-0.186-4.788,0.396-7.15,0.859c-2.247,0.439-4.434,1.068-6.424,2.213c-1.425,0.818-2.779,1.766-4.163,2.661
		c-3.729,2.412-6.476,5.696-8.492,9.619c-0.204,0.394-0.221,0.884-0.319,1.305c0.753,0.413,1.036,0.116,1.275-0.225
		c0.567-0.811,1.374-1.29,2.287-1.55c1.541-0.439,3.091-0.865,4.66-1.189c2.923-0.603,5.697-0.209,8.473,1.008
		c3.329,1.463,6.39,3.368,9.458,5.26c3.019,1.86,6.084,3.547,9.553,4.399c0.171,0.042,0.308,0.217,0.554,0.396
		c-0.623,0.261-1.113,0.474-1.606,0.674c-1.606,0.648-3.28,1.171-4.814,1.964c-4.032,2.083-7.242,5.035-9.129,9.257
		c-1.301,2.904-2.053,5.977-2.671,9.081c-0.496,2.501-1.048,4.994-2.413,7.177c-1.272,2.036-2.663,4.009-4.103,5.934
		c-0.88,1.18-1.971,2.202-3.321,2.863c-1.48,0.723-2.988,1.388-4.474,2.099c-0.355,0.17-0.672,0.423-1.301,0.828
		c0.679,0.279,1.013,0.522,1.36,0.54c1.643,0.091,3.294,0.208,4.936,0.151c5.088-0.174,10.001-1.216,14.712-3.173
		c1.439-0.599,2.896-1.158,4.339-1.754c0.988-0.408,2.034-0.738,2.936-1.296c2.013-1.242,4.075-2.454,5.894-3.951
		c3.064-2.52,5.973-5.234,8.911-7.906c1.056-0.959,2.058-1.987,2.993-3.063c1.14-1.312,2.155-2.73,3.276-4.062
		c2.485-2.949,5.177-5.669,8.562-7.612c1.851-1.062,3.826-1.597,6.191-1.745c-0.317,0.62-0.516,1.046-0.747,1.45
		c-0.175,0.305-0.384,0.593-0.595,0.875c-1.479,1.979-1.938,4.398-2.72,6.646c-1.575,4.521-4.474,7.967-8.075,10.938
		c-0.236,0.195-0.539,0.316-0.824,0.442c-2.533,1.111-3.774,3.022-3.609,5.809c0.05,0.844,0.168,1.691,0.145,2.534
		c-0.071,2.45-1.52,4.106-3.319,5.532c-0.332,0.262-0.707,0.472-1.075,0.714c0.454,1.028,1.28,0.962,2.001,0.972
		c4.029,0.062,7.782-1.032,11.238-3.024c1.685-0.973,3.18-2.28,4.741-3.423c1.055-0.436,2.187-0.762,3.171-1.339
		c4.599-2.688,7.272-6.863,8.887-11.812c0.097-0.295,0.178-0.612,0.174-0.919c-0.018-1.604-0.08-3.205-0.1-4.809
		c-0.019-1.514-0.054-3.032,0.021-4.546c0.048-0.979,0.496-1.787,1.507-2.116c0.167,0.083,0.303,0.12,0.402,0.204
		c3.508,2.871,7.581,4.453,11.988,5.293c3.521,0.673,7.072,0.984,10.653,1.014c0.457,0.002,0.914,0.055,1.508,0.092
		c-0.258,0.425-0.395,0.648-0.527,0.876c-1.046,1.771-1.621,3.685-1.589,5.737c0.025,1.534,0.242,3.037,1.598,4.084
		c0.342,0.266,0.643,0.487,1.123,0.111c0.012-2.326-0.132-4.751,1.546-6.784c0.208,0.465,0.285,0.926,0.353,1.39
		c0.256,1.74,0.621,3.434,1.907,4.764c0.845,0.875,1.302,0.916,2.571,0.087c-0.069-0.483-0.095-1.058-0.241-1.596
		c-0.449-1.647-0.722-3.32-0.607-5.021c0.117-1.755,0.462-3.46,1.802-4.865c0.36-0.125,0.777-0.28,1.2-0.417
		c1.31-0.423,2.678-0.721,3.919-1.289c1.491-0.684,2.89-1.578,4.309-2.418c2.121-1.253,3.817-2.935,4.924-5.151
		c0.402-0.806,0.588-1.676,0.333-2.414c-0.683-1.003-2.065-0.854-2.432-1.956C151.71,100.478,153.798,101.087,154.281,99.302z"/>
	<path class="stroke" fill="#6e3411"  d="M162.513,95.894c-1.818,0.002-3.048,1.122-3.065,2.782c-0.023,2.226,1.466,2.773,3.108,2.834
		c1.608,0.061,2.666-1.123,2.663-2.838C165.217,96.977,164.158,95.891,162.513,95.894z"/>
	<path class="stroke" fill="#6e3411"  d="M162.074,91.028c0.326-0.778-0.084-1.719-0.972-2.235c-1.104-0.645-2.118-0.557-2.78,0.235
		c-0.812,0.976-0.688,1.801,0.495,3.058C160.521,92.536,161.598,92.17,162.074,91.028z"/>
	<path class="stroke" fill="#6e3411"  d="M164.526,84.834c0.729-0.342,1.061-1.22,0.887-2.526c-0.394-0.266-0.855-0.578-1.25-0.845
		c-0.604,0.119-1.076,0.213-1.598,0.313c-0.812,1.166-0.874,1.741-0.311,2.467C162.743,84.874,163.836,85.158,164.526,84.834z"/>
</g>
<path fill-rule="evenodd" clip-rule="evenodd" fill="#ffd624" class="fill" d="M104.17,106.199c0.468-0.356,0.829-0.563,1.103-0.852
	c1.016-1.057,0.762-2.375-0.56-3.05c-2.334-1.188-4.26-0.87-6.187,1.046c-0.154,0.151-0.211,0.401-0.22,0.418
	c-1.034,0.014-1.31-0.54-1.466-1.085c-0.65-2.252-0.824-5.581,2.05-7.426c0.823-0.528,1.572-1.171,2.408-1.674
	c1.669-1.008,2.921-2.472,4.281-3.816c3.594-3.549,7.496-6.62,12.473-7.97c1.186-0.323,2.461-0.429,3.695-0.44
	c7.186-0.072,13.872,1.74,19.921,5.641c3.373,2.175,6.154,5,8.351,8.38c0.147,0.225,0.291,0.45,0.421,0.683
	c0.04,0.073,0.031,0.173,0.043,0.252c-0.693,0.28-1.408,0.515-2.069,0.848c-2.079,1.049-2.915,3.014-2.288,5.271
	c0.41,1.472,1.218,2.669,2.481,3.546c0.4,0.277,0.812,0.54,1.351,0.899c-0.477,0.485-0.896,0.929-1.331,1.353
	c-2.241,2.176-5.033,3.288-7.939,4.25c-4.51,1.49-9.188,1.816-13.857,2.07c-2.435,0.132-4.854-0.526-7.267-0.978
	c-5.125-0.958-9.557-3.368-13.781-6.27C105.349,106.997,104.911,106.703,104.17,106.199z M133.933,88.184
	c-1.104-0.455-1.236-0.449-1.782,0.312c-1.305,1.816-2.122,3.791-2.039,6.089c0.068,2.012,0.218,3.997,0.928,5.905
	c0.552,1.484,1.579,2.572,2.859,3.428c0.452,0.303,1.009,0.664,1.525-0.055c-0.117-0.25-0.199-0.507-0.344-0.723
	c-1.962-2.907-2.561-6.229-2.834-9.621C132.091,91.601,132.752,89.845,133.933,88.184z M136.834,94.156
	c-0.389,1.767,1.542,3.754,4.216,3.867c2.356,0.1,3.767-1.549,4.022-4.107c0.257-2.573-1.707-4.239-3.905-4.353
	C139.092,89.457,136.94,90.823,136.834,94.156z M121.453,101.006c-1.848,3.054-1.485,5.51,0.885,5.77
	c-0.34-1.815-0.569-3.616,0.519-5.455C122.281,101.193,121.885,101.104,121.453,101.006z M131.252,109.212
	c-0.076-0.927-0.207-1.765-0.192-2.603c0.015-0.815,0.178-1.63,0.277-2.449c-1.092-0.067-1.278-0.026-1.552,0.758
	c-0.348,1.001-0.576,2.044-0.826,2.962C129.5,108.836,129.958,109.611,131.252,109.212z M112.372,95.451
	c-0.283,0.546-0.529,0.967-0.727,1.409c-0.457,1.03-0.459,2.077,0.03,3.087c0.382,0.787,0.844,0.898,1.656,0.496
	c-0.077-0.876-0.259-1.761-0.199-2.628c0.058-0.849,0.365-1.68,0.62-2.764C113.146,95.227,112.717,95.351,112.372,95.451z
	 M107.356,104.197c0.416,0.543,0.845,1.103,1.311,1.711c0.305-0.073,0.576-0.141,0.924-0.224c-0.397-1.815-0.694-3.555-0.067-5.364
	c-0.502,0-0.834,0-1.111,0C107.512,101.592,107.295,102.376,107.356,104.197z M119.696,95.765c-1.451,0.071-2.505,1.495-2.535,3.157
	c-0.02,1.032,0.788,1.896,1.968,1.975c-0.055-0.838-0.219-1.675-0.13-2.484C119.094,97.56,119.43,96.732,119.696,95.765z
	 M114.863,101.271c-0.358,1.009-0.735,1.898-0.988,2.823c-0.255,0.938,0.197,1.953,1.009,2.385c0.217,0.116,0.544,0.018,1.03,0.018
	c-0.568-1.76-0.476-3.399,0.168-5.066C115.621,101.368,115.374,101.335,114.863,101.271z M118.837,106.617
	c-0.072-0.094-0.147-0.186-0.22-0.277c-0.312,0.062-0.687,0.035-0.928,0.201c-0.73,0.507-1.432,2.604-1.068,3.413
	c0.24,0.536,0.692,1.021,1.155,1.402c0.332,0.275,0.773,0.183,0.959-0.379C118.159,109.549,117.995,108.082,118.837,106.617z
	 M128.463,102.787c0-1.674,0-3.242,0-4.869c-0.331,0-0.666,0-1,0c-0.895,1.237-1.105,2.551-0.634,3.949
	C127.114,102.717,127.381,102.837,128.463,102.787z M112.19,109.521c-0.104-1.728-0.2-3.338-0.299-4.97
	c-0.889-0.202-1.273,0.24-1.37,0.923c-0.139,0.955-0.177,1.925-0.25,2.777C110.861,108.942,111.183,109.717,112.19,109.521z
	 M105.11,94.465c-0.896,3.215-0.482,4.68,1.387,4.853c-0.125-0.884-0.336-1.739-0.338-2.593c-0.002-0.838,0.208-1.676,0.362-2.78
	C105.858,94.188,105.473,94.33,105.11,94.465z M109.88,90.092c-0.205,0-0.452,0-0.679,0c-0.262,0.436-0.55,0.791-0.703,1.195
	c-0.246,0.655-0.552,1.346-0.553,2.021c0,0.498,0.369,1.064,0.725,1.468c0.213,0.24,0.718,0.227,1.21,0.359
	C109.88,93.354,109.88,91.799,109.88,90.092z M113.709,86.495c-0.411-0.151-0.799,0.111-1.046,0.569
	c-0.312,0.586-0.616,1.19-0.818,1.818c-0.266,0.827,0.241,2.161,0.964,2.582c0.206,0.12,0.541,0.019,0.9,0.019
	C113.709,89.761,113.709,88.19,113.709,86.495z M136.098,112.038c-0.717-1.407-0.915-2.769-0.083-4.286
	c-0.638-0.072-1.035-0.116-1.453-0.165c-0.502,1.184-0.963,2.225-0.638,3.42C134.201,112.025,134.809,112.365,136.098,112.038z
	 M129.282,88.92c0-1.131-0.076-1.925,0.022-2.698c0.094-0.738,0.37-1.457,0.584-2.249c-1.889,0.135-2.676,1.867-2.035,4.229
	C128.174,88.362,128.578,88.566,129.282,88.92z M128.491,95.257c-0.146-0.758-0.413-1.479-0.391-2.193
	c0.025-0.741,0.329-1.474,0.518-2.24c-1.105-0.562-1.373,0.431-1.998,0.955c0,0.921,0,1.872,0,2.698
	C127.201,95.093,127.618,95.633,128.491,95.257z M126.586,104.378c-0.77-0.094-1.14-0.138-1.468-0.177
	c-0.917,1.032-0.941,2.171-0.882,3.423c0.437,0.374,0.897,0.769,1.38,1.182c0.244-0.133,0.427-0.231,0.65-0.353
	C126.108,107.138,125.363,105.844,126.586,104.378z M123.997,96.239c-0.888,1.662-1.059,2.834-0.506,3.671
	c0.302,0.458,0.644,1.006,1.515,0.612c-0.049-0.696-0.173-1.431-0.132-2.155c0.049-0.748,0.259-1.485,0.438-2.445
	C124.697,96.07,124.337,96.157,123.997,96.239z M122.572,95.507c0.07-1.472,0.137-2.823,0.205-4.27c-0.382,0-0.744,0-1.054,0
	c-0.512,1.1-1.055,2.08-0.849,3.229C121.712,95.603,121.712,95.603,122.572,95.507z M116.282,86.666
	c0.937,1.259,0.937,1.259,1.715,0.906c0.063-1.41,0.124-2.756,0.185-4.099C116.853,83.463,116.271,84.406,116.282,86.666z
	 M117.189,90.176c-0.398-0.177-0.719-0.319-1.097-0.488c-0.293,0.575-0.575,0.989-0.724,1.447c-0.355,1.098-0.445,2.2,0.323,3.189
	c0.341,0.44,0.739,0.645,1.254,0.062C116.376,93.019,116.388,91.638,117.189,90.176z M123.977,89.634
	c0.726,1.892,0.897,2.04,2.027,1.677c-0.648-1.336-0.333-2.703,0.179-4.125c-0.605,0-0.979,0-1.422,0
	C124.485,88.048,124.229,88.847,123.977,89.634z M128.521,109.579c-0.966-0.468-1.269-0.42-1.587,0.29
	c-0.385,0.862-0.512,1.773-0.235,2.707c0.513,0.48,0.944,1.108,1.957,0.599C128.17,112.016,127.827,110.83,128.521,109.579z
	 M101.337,95.452c-0.776,0.709-1.404,2.372-1.242,3.167c0.177,0.873,0.81,1.301,1.602,1.113c0.09-1.199,0.179-2.387,0.279-3.745
	C101.842,95.877,101.586,95.661,101.337,95.452z M120.778,89.907c0.103-1.323,0.196-2.544,0.298-3.84
	c-0.488-0.506-0.953-0.144-1.239,0.312c-0.674,1.072-1.217,2.206,0.227,3.665C120.291,90.001,120.57,89.946,120.778,89.907z
	 M123.084,113.181c-0.112-0.731-0.196-1.469-0.349-2.19c-0.15-0.717,0.762-1.371,0.152-2.111c-1.156,0.257-1.875,1.576-1.623,2.888
	C121.438,112.684,122.192,113.275,123.084,113.181z M125.028,82.604c-0.557-0.046-0.971-0.079-1.372-0.112
	c-0.81,0.819-1.399,1.618-0.884,2.759c0.254,0.56,0.518,1.145,1.474,0.878c0-0.578-0.088-1.163,0.025-1.706
	C124.383,83.879,124.696,83.374,125.028,82.604z"/>
<path fill-rule="evenodd" clip-rule="evenodd" fill="#ffd624" class="fill" d="M37.052,84.756c1.845-1.701,3.727-3.351,6.158-4.227
	c1.093-0.395,2.193-0.756,3.287-1.149c2.259-0.816,4.607-0.998,6.984-0.998c0.355,0,0.72,0.03,1.068-0.022
	c2.595-0.393,5.041,0.342,7.527,0.891c3.629,0.805,6.929,2.372,9.999,4.373c2.539,1.653,4.889,3.592,7.341,5.38
	c2.304,1.682,4.583,3.405,6.964,4.973c2.107,1.386,4.568,1.711,7.039,1.881c0.396,0.028,0.792,0.046,1.178,0.067
	c0.177,0.61-0.207,0.628-0.576,0.646c-3.284,0.161-6.433-0.396-9.273-2.082c-2.181-1.296-4.264-2.759-6.354-4.197
	c-3.049-2.097-6.05-4.262-9.104-6.346c-0.729-0.497-1.577-0.841-2.405-1.164c-2.198-0.855-4.36-1.89-6.636-2.429
	c-2.761-0.655-5.587-1.163-8.479-0.991c-2.715,0.161-5.266,0.892-7.76,1.914c-1.986,0.815-3.912,1.723-5.599,3.082
	c-0.354,0.285-0.806,0.445-1.212,0.665C37.148,84.934,37.1,84.845,37.052,84.756z"/>
<path fill-rule="evenodd" clip-rule="evenodd" fill="#ffd624" class="fill" d="M50.062,118.429c0.883-1.154,1.686-2.384,2.665-3.449
	c2.772-3.017,6.043-5.366,9.684-7.27c5.475-2.856,11.27-3.766,17.357-3.308c4.274,0.322,8.552,0.367,12.826-0.049
	c0.17-0.017,0.344-0.004,0.563,0.236c-2.242,0.531-4.461,1.204-6.731,1.551c-1.833,0.281-3.728,0.243-5.593,0.219
	c-4.942-0.065-9.779,0.54-14.534,1.907c-4.13,1.188-7.914,2.965-11.045,5.987c-1.381,1.332-2.805,2.616-4.218,3.915
	c-0.215,0.198-0.468,0.354-0.704,0.527C50.241,118.607,50.152,118.518,50.062,118.429z"/>
<path fill-rule="evenodd" clip-rule="evenodd" fill="#ffd624" class="fill" d="M52.135,112.92c0.44-0.751,0.829-1.535,1.324-2.247
	c2.312-3.329,5.698-5.165,9.323-6.682c3.011-1.261,6.124-2.121,9.308-2.848c1.582-0.36,3.035-0.354,4.588-0.179
	c3.722,0.419,7.453,0.752,11.182,1.123c1.991,0.199,3.981,0.41,5.983,0.784c-0.413,0.048-0.826,0.1-1.241,0.143
	c-4.319,0.462-8.64,0.422-12.963,0.014c-2.948-0.28-5.865-0.05-8.795,0.433c-5.699,0.938-10.649,3.446-15.17,6.913
	c-1.124,0.86-2.144,1.86-3.21,2.796C52.354,113.087,52.244,113.004,52.135,112.92z"/>
<path fill-rule="evenodd" clip-rule="evenodd" fill="#ffd624" class="fill" d="M85.412,107.673c-0.64,1.032-1.549,1.195-2.395,1.31
	c-1.987,0.267-3.989,0.585-5.986,0.593c-4.513,0.016-8.671,1.354-12.796,2.99c-4.225,1.675-7.726,4.366-10.999,7.431
	c-0.939,0.879-1.977,1.658-2.986,2.459c-0.194,0.156-0.477,0.201-0.963,0.396c0.121-0.677,0.207-1.164,0.267-1.491
	c2.714-2.468,5.23-4.875,7.887-7.116c1.278-1.077,2.78-1.912,4.249-2.735c2.638-1.479,5.591-2.033,8.488-2.759
	c4.026-1.008,8.127-1.035,12.231-1.075C83.341,107.666,84.272,107.673,85.412,107.673z"/>
<path fill-rule="evenodd" clip-rule="evenodd" fill="#ffd624" class="fill" d="M93.975,100.862c-0.206,0.14-0.416,0.403-0.622,0.401
	c-0.753-0.008-1.522-0.02-2.254-0.178c-3.016-0.653-5.946-1.598-8.698-3.007c-1.585-0.811-3.124-1.718-4.647-2.642
	c-3.507-2.122-6.942-4.366-10.503-6.394c-2.819-1.604-5.628-3.313-8.916-3.867c-3.346-0.562-6.69-1.1-10.095-0.449
	c-2.049,0.394-3.867,1.305-5.715,2.375c-0.276-0.039-0.616-0.087-1.108-0.155c0.197-0.271,0.289-0.466,0.441-0.592
	c2.239-1.841,4.82-2.856,7.7-3.086c4.334-0.346,8.505,0.224,12.596,1.826c2.633,1.029,5.155,2.247,7.593,3.627
	c1.818,1.026,3.464,2.359,5.18,3.565c1.167,0.823,2.303,1.696,3.486,2.493c3.014,2.019,6.293,3.532,9.621,4.943
	c1.464,0.621,3.001,0.843,4.586,0.785c0.416-0.015,0.835-0.003,1.253-0.003C93.906,100.625,93.941,100.744,93.975,100.862z"/>
<path fill-rule="evenodd" clip-rule="evenodd" fill="#ffd624" class="fill" d="M94.225,97.955c-0.175,0.544-0.267,0.83-0.369,1.149
	c-1.471,0.365-2.892,0.132-4.254-0.259c-1.191-0.342-2.332-0.883-3.46-1.414c-1.372-0.644-2.754-1.29-4.045-2.075
	c-2.014-1.224-4.009-2.493-5.917-3.871c-2.967-2.142-5.935-4.236-9.271-5.81c-2.593-1.222-5.219-2.293-7.972-3.068
	c-2.299-0.648-4.662-0.727-7.026-0.786c-2.298-0.058-4.532,0.372-6.721,1.02c-0.671,0.199-1.326,0.54-1.905,0.938
	c-1.467,1.009-2.889,2.086-4.472,3.241c-0.461,0.043-1.113,0.102-2.032,0.187c0.338-0.312,0.475-0.465,0.636-0.586
	c4.355-3.287,9.131-5.581,14.66-5.926c1.367-0.085,2.766,0.095,4.133,0.284c2.923,0.407,5.704,1.26,8.479,2.336
	c3.776,1.464,6.93,3.836,10.186,6.091c2.714,1.878,5.327,3.91,8.108,5.683c2.863,1.826,6.017,2.918,9.504,2.733
	C92.997,97.794,93.516,97.896,94.225,97.955z"/>
<path fill-rule="evenodd" clip-rule="evenodd" fill="#ffd624" class="fill" d="M82.379,110.614c-0.624,1.049-1.503,1.399-2.401,1.6
	c-2.045,0.454-4.092,0.823-6.212,0.897c-2.906,0.101-5.714,0.742-8.393,2.014c-4.276,2.033-8.117,4.607-11.408,8.043
	c-1.319,1.378-2.961,2.427-4.757,3.162c-0.189,0.079-0.4,0.107-0.786,0.203c0.109-0.648,0.194-1.156,0.28-1.663
	c0.388-0.239,0.703-0.503,1.066-0.652c2.033-0.84,3.526-2.399,5.085-3.849c3.339-3.105,7-5.659,11.39-7.053
	c0.382-0.122,0.771-0.238,1.132-0.41c2.919-1.394,6.04-1.831,9.226-1.976C78.465,110.846,80.326,110.729,82.379,110.614z"/>
<path fill-rule="evenodd" clip-rule="evenodd" fill="#ffd624" class="fill" d="M46.727,88.295c-0.68-0.255-1.3-0.486-2.042-0.764
	c1.228-1.032,2.623-1.376,3.995-1.52c5.348-0.56,10.507,0.065,15.246,2.833c2.922,1.708,5.807,3.482,8.738,5.178
	c3.695,2.139,7.421,4.224,11.05,6.285c-0.702,0.254-1.973,0.194-3.34-0.426c-1.578-0.716-3.15-1.477-4.627-2.382
	c-3.607-2.205-7.147-4.526-10.737-6.761c-3.803-2.368-8.002-3.346-12.445-3.498C50.569,87.174,48.666,87.47,46.727,88.295z"/>
<path fill-rule="evenodd" clip-rule="evenodd" fill="#ffd624" class="fill" d="M76.426,117.279c-0.214,0.867-0.691,1.181-1.362,1.286
	c-0.837,0.129-1.688,0.211-2.503,0.426c-5.004,1.318-9.359,3.827-13.248,7.218c-0.963,0.839-2.046,1.581-3.17,2.185
	c-2.324,1.25-4.807,2.128-7.383,2.706c-0.81,0.184-1.652,0.218-2.48,0.32c-0.025-0.098-0.05-0.195-0.076-0.292
	c0.962-0.381,1.908-0.799,2.885-1.137c3.718-1.284,6.972-3.29,9.942-5.879c2.626-2.291,5.562-4.208,8.878-5.37
	c1.791-0.63,3.646-1.121,5.609-1.053C74.425,117.72,75.344,117.442,76.426,117.279z"/>
<path fill-rule="evenodd" clip-rule="evenodd" fill="#ffd624" class="fill" d="M130.405,79.842c-0.874-0.104-1.746-0.207-2.796-0.329
	c-1.765-2.695-3.817-5.274-6.59-7.149c-2.728-1.844-5.472-3.679-8.802-4.367c-0.33-0.745-0.139-1.378,0.478-2.097
	c0.438,0.099,0.957,0.158,1.436,0.331c3.389,1.228,6.461,3.018,9.181,5.369c1.683,1.453,3.332,2.958,4.85,4.577
	c0.929,0.992,1.578,2.241,2.353,3.374C130.479,79.647,130.441,79.745,130.405,79.842z"/>
<path fill-rule="evenodd" clip-rule="evenodd" fill="#ffd624" class="fill" d="M79.464,113.986c-0.366,0.322-0.589,0.604-0.879,0.759
	c-1.711,0.918-3.535,1.554-5.483,1.569c-3.756,0.027-7.098,1.37-10.155,3.344c-2.57,1.661-4.95,3.625-7.38,5.499
	c-2.186,1.688-4.721,2.662-7.239,3.681c-0.162,0.064-0.348,0.083-0.523,0.095c-0.066,0.003-0.139-0.073-0.35-0.193
	c0.897-0.44,1.699-0.893,2.543-1.242c2.452-1.012,4.302-2.823,6.216-4.562c4.215-3.831,8.869-6.882,14.541-8.094
	c0.654-0.139,1.312-0.285,1.976-0.342C74.892,114.313,77.058,114.167,79.464,113.986z"/>
<path fill-rule="evenodd" clip-rule="evenodd" fill="#ffd624" class="fill" d="M48.829,88.954c0.905-0.171,1.626-0.393,2.357-0.428
	c2.514-0.122,4.966,0.274,7.401,0.92c2.988,0.794,5.541,2.329,8.049,4.082c2.48,1.733,5.154,3.188,7.744,4.766
	c0.404,0.246,0.803,0.508,1.34,0.846c-0.85,0.33-1.47,0.206-2.07-0.067c-3.283-1.497-6.591-2.935-9.604-4.978
	c-1.316-0.892-2.825-1.512-4.279-2.186c-1.249-0.579-2.526-1.114-3.824-1.569c-1.706-0.599-3.497-0.664-5.285-0.591
	C49.996,89.776,49.443,89.67,48.829,88.954z"/>
<path fill-rule="evenodd" clip-rule="evenodd" fill="#ffd624" class="fill" d="M44.02,134.012c0.285-0.424,0.519-0.772,0.726-1.081
	c4.552-0.012,8.591-1.543,12.458-3.532c1.368-0.704,2.554-1.787,3.756-2.778c2.671-2.202,5.596-3.968,8.812-5.237
	c1.115-0.441,2.27-0.791,3.413-1.159c0.241-0.079,0.512-0.066,0.965-0.119c-0.816,1.289-1.543,2.293-3.088,2.461
	c-2.838,0.311-5.191,1.714-7.374,3.475c-2.178,1.756-4.36,3.514-6.621,5.16c-1.604,1.17-3.461,1.8-5.446,2.085
	c-1.585,0.229-3.146,0.632-4.725,0.905C45.981,134.348,45.051,134.389,44.02,134.012z"/>
<path fill-rule="evenodd" clip-rule="evenodd" fill="#ffd624" class="fill" d="M81.688,132.214c1.805-0.989,3.49-1.903,5.167-2.83
	c3.655-2.021,6.287-4.986,7.831-8.841c0.943-2.358,1.667-4.808,2.436-7.23c0.788-2.48,1.716-4.886,3.262-7.006
	c0.485-0.666,0.945-1.393,2.067-1.657c-0.191,0.369-0.285,0.575-0.399,0.771c-1.091,1.835-2.39,3.58-3.221,5.525
	c-1.098,2.572-1.83,5.3-2.719,7.96c-0.758,2.276-1.138,4.739-2.788,6.604c-1.265,1.429-2.616,2.819-4.104,4.005
	c-2.16,1.719-4.428,3.333-7.301,3.832c-0.042-0.067-0.149-0.168-0.167-0.284C81.707,132.808,81.708,132.543,81.688,132.214z"/>
<path fill-rule="evenodd" clip-rule="evenodd" fill="#ffd624" class="fill" d="M109.813,70.382c0.822-0.437,1.397-0.743,1.782-0.944
	c1.82-0.357,3.052,0.617,4.305,1.307c2.184,1.199,4.362,2.44,6.203,4.166c1.329,1.245,2.631,2.514,3.594,4.297
	c-1.078,0-2.027,0-3.166,0C119.327,75.137,115.006,72.331,109.813,70.382z"/>
<path fill-rule="evenodd" clip-rule="evenodd" fill="#ffd624" class="fill" d="M42.53,136.097c0.241-0.937,0.741-0.799,1.161-0.765
	c0.711,0.058,1.428,0.28,2.124,0.223c4.154-0.347,8.27-0.924,11.903-3.172c2.241-1.386,4.277-3.059,6.188-4.89
	c1.527-1.466,3.378-2.453,5.359-3.18c0.114-0.043,0.257-0.008,0.453-0.008c0.082,0.55-0.318,0.808-0.627,1.068
	c-1.33,1.115-2.68,2.209-4.024,3.307c-3.946,3.22-8.424,5.52-13.133,7.357c-1.476,0.573-3.116,0.724-4.682,1.065
	c-0.087,0.019-0.183,0.048-0.265,0.027C45.525,136.796,44.064,136.454,42.53,136.097z"/>
<path fill-rule="evenodd" clip-rule="evenodd" fill="#ffd624" class="fill" d="M113.463,64.277c0.252-0.053,0.519-0.187,0.75-0.143
	c0.479,0.093,0.943,0.267,1.402,0.432c4.314,1.558,8.232,3.818,11.81,6.68c0.208,0.166,0.409,0.353,0.572,0.562
	c2.095,2.717,4.188,5.434,6.264,8.165c0.259,0.341,0.425,0.754,0.783,1.402c-0.902-0.203-1.526-0.344-2.184-0.491
	C128.536,72.854,121.7,67.839,113.463,64.277z"/>
<path fill-rule="evenodd" clip-rule="evenodd" fill="#ffd624" class="fill" d="M81.857,130.386c0.334-0.845,0.918-1.169,1.505-1.438
	c3.78-1.738,6.283-4.799,8.312-8.257c0.75-1.278,0.988-2.847,1.521-4.26c0.944-2.494,1.608-5.111,3.098-7.372
	c0.525-0.798,1.148-1.533,1.727-2.297c0.077,0.047,0.152,0.094,0.229,0.143c-0.1,0.277-0.166,0.571-0.303,0.83
	c-1.599,3.012-2.469,6.3-3.483,9.521c-1.386,4.401-3.665,8.112-7.626,10.618c-1.353,0.854-2.809,1.545-4.226,2.298
	C82.434,130.267,82.218,130.286,81.857,130.386z"/>
<path fill-rule="evenodd" clip-rule="evenodd" fill="#ffd624" class="fill" d="M115.334,62.585c0.9,0.169,1.85,0.216,2.695,0.532
	c2.839,1.069,5.497,2.446,8.005,4.225c4.591,3.259,7.826,7.61,10.707,12.311c0.553,0.9,1.133,1.782,1.787,2.812
	c-1.103,0.104-1.589-0.455-1.932-1.122c-1.768-3.438-4.295-6.336-6.675-9.327c-1.767-2.216-4.119-3.843-6.571-5.198
	c-2.404-1.329-4.992-2.321-7.496-3.467c-0.222-0.101-0.427-0.242-0.638-0.364C115.256,62.852,115.294,62.718,115.334,62.585z"/>
<path fill-rule="evenodd" clip-rule="evenodd" fill="#ffd624" class="fill" d="M108.604,73.283c0.209-0.669,0.324-1.042,0.433-1.388
	c2.581-0.269,10.432,4.753,11.662,7.526c-0.731,0.082-1.412,0.159-2.218,0.25C115.701,76.864,112.632,74.403,108.604,73.283z"/>
<path fill-rule="evenodd" clip-rule="evenodd" fill="#ffd624" class="fill" d="M69.093,98.637c-2.509-0.247-4.968-0.556-7.141-1.904
	c-2.607-1.619-5.221-3.229-7.828-4.848c-0.174-0.109-0.314-0.268-0.599-0.517c1.349-0.158,2.364,0.357,3.353,0.794
	c2.728,1.203,5.482,2.346,7.941,4.104c1.184,0.845,2.588,1.377,3.89,2.061C68.851,98.402,68.965,98.532,69.093,98.637z"/>
<path fill-rule="evenodd" clip-rule="evenodd" fill="#ffd624" class="fill" d="M107.616,75.409c0.113-0.213,0.273-0.517,0.406-0.767
	c1.359-0.527,6.384,2.554,8.718,5.338c-0.756,0.303-1.46,0.586-1.94,0.778C112.301,78.898,109.999,77.184,107.616,75.409z"/>
<path fill-rule="evenodd" clip-rule="evenodd" fill="#ffd624" class="fill" d="M81.559,136.777c0.091-0.789,0.154-1.347,0.232-2.025
	c4.4-0.726,7.61-3.468,10.809-6.283c-1.047,2.033-2.518,3.72-4.194,5.189C86.531,135.3,84.285,136.264,81.559,136.777z"/>
<path fill-rule="evenodd" clip-rule="evenodd" fill="#ffd624" class="fill" d="M152.936,99.218c-0.508,0.263-0.844,0.469-1.203,0.613
	c-0.995,0.401-1.616,1.098-1.711,2.181c-0.096,1.078,0.752,1.533,1.465,2.05c0.245,0.183,0.546,0.288,0.886,0.461
	c0,0.272,0,0.558,0,0.794c-1.25,0.9-3.56-0.887-4.404-3.307C148.475,99.539,151.026,97.974,152.936,99.218z"/>
<path fill-rule="evenodd" clip-rule="evenodd" fill="#ffd624" class="fill" d="M137.105,116.118c-0.541,2.717-1.623,2.587-0.438,10.144
	c-0.896-0.44-1.157-1.275-1.409-2.028c-0.79-2.358-0.695-4.723,0.155-7.058C135.682,116.436,136.135,115.988,137.105,116.118z"/>
<path fill-rule="evenodd" clip-rule="evenodd" fill="#ffd624" class="fill" d="M92.365,131.685c-1.097,3.067-7.372,8.173-11.894,7.824
	c0.11-0.302,0.197-0.595,0.325-0.87c0.092-0.194,0.239-0.364,0.357-0.537C85.989,137.859,89.367,135.108,92.365,131.685z"/>
<path fill-rule="evenodd" clip-rule="evenodd" fill="#ffd624" class="fill" d="M113.02,81.409c-0.533,0.283-0.879,0.468-1.19,0.633
	c-1.829-1.52-3.602-2.992-5.433-4.514c0.084-0.21,0.177-0.44,0.314-0.78C109.294,77.664,111.203,79.316,113.02,81.409z"/>
<path fill-rule="evenodd" clip-rule="evenodd" fill="#ffd624" class="fill" d="M110.493,82.781c-0.677,0.423-1.155,0.72-1.632,1.018
	c-1.316-1.481-2.576-2.898-4.016-4.518c0.197-0.16,0.423-0.344,0.708-0.574C107.425,79.799,108.982,81.066,110.493,82.781z"/>
<path fill-rule="evenodd" clip-rule="evenodd" fill="#ffd624" class="fill" d="M103.085,81.651c0.277-0.333,0.548-0.659,0.889-1.069
	c1.512,1.111,2.734,2.326,3.599,4.059c-0.495,0.366-0.969,0.717-1.414,1.047C105.127,84.335,104.17,83.075,103.085,81.651z"/>
<path fill-rule="evenodd" clip-rule="evenodd" fill="#ffd624" class="fill" d="M102.188,82.889c1.294,1.102,2.198,2.291,2.652,3.942
	c-0.327,0.472-0.692,0.998-1.099,1.584c-0.649-1.12-1.252-2.092-1.786-3.098C101.441,84.349,101.478,84.182,102.188,82.889z"/>
<path fill-rule="evenodd" clip-rule="evenodd" fill="#ffd624" class="fill" d="M41.194,137.106c0.75,0.224,1.455,0.433,2.276,0.678
	c-1.137,0.655-2.65,0.9-4.009,0.662C40.048,137.993,40.557,137.6,41.194,137.106z"/>
<path fill-rule="evenodd" clip-rule="evenodd" fill="#ffd624" class="fill" d="M141.203,96.494c-1.425,0.066-3.19-1.064-3.11-2.453
	c0.11-1.934,1.139-3.269,2.78-3.27c1.571-0.002,2.902,1.312,2.924,2.885C143.819,95.196,142.656,96.468,141.203,96.494z
	 M139.863,94.882c1.447,0.737,1.764,0.699,2.955-0.354c0.29-1.526,0.29-1.526-0.709-2.53c-0.3-0.037-0.651-0.101-1.004-0.115
	c-0.217-0.01-0.437,0.057-0.616,0.083C139.221,93.299,139.168,93.559,139.863,94.882z"/>
</svg>
