<svg version="1.1" id="svg" xmlns="http://www.w3.org/2000/svg" xmlns:xlink="http://www.w3.org/1999/xlink" x="0px" y="0px"
	 width="200px" height="200px" viewBox="0 0 200 200" enable-background="new 0 0 200 200" xml:space="preserve">
<g>
	<path class="stroke" fill="#1f4a69"  d="M115.96,123.133c1.053-0.691,1.757-1.738,2.334-2.871c-0.618-0.515-1.221-0.637-1.888-0.655
		c-0.729-0.021-1.466-0.069-2.181-0.206c-2.644-0.504-5.207-1.293-7.663-2.388c-0.735-0.328-1.568-0.716-2.026-1.324
		c-0.898-1.193-2.109-1.58-3.438-1.863c-0.375-0.079-0.772-0.119-1.114-0.276c-1.334-0.613-2.644-1.283-3.977-1.899
		c-1.06-0.49-2.141-0.932-3.211-1.398c-2.414-1.053-4.801-2.171-7.247-3.142c-1.56-0.619-3.251-0.911-4.805-1.546
		c-3.279-1.34-6.553-2.723-9.6-4.548c-1.777-1.064-3.458-2.289-5.182-3.443c-3.67-2.457-7.258-5.006-10.568-7.962
		c-1.702-1.52-2.321-3.24-2.248-5.38c0.27-0.304,0.526-0.593,0.764-0.86c0.259-1.116-0.392-1.723-1.326-2.389
		c0.259-1.323,0.513-2.625,0.789-4.032c-0.993-0.436-1.848-0.077-2.771,0.256c0,0.25,0.009,0.462-0.001,0.673
		c-0.064,1.296,0.12,2.675-0.273,3.863c-0.371,1.124-0.237,1.883,0.44,2.574c0.16,2.014,0.194,3.896-0.176,5.796
		c-0.567,2.906-0.308,5.859-0.213,8.792c0.031,0.99,0.122,2.013,0.404,2.954c0.816,2.73,1.599,5.484,2.979,8.004
		c1.076,1.964,1.953,4.064,3.7,5.586c0.324,0.283,0.61,0.607,0.935,0.887c1.408,1.213,2.708,2.603,4.265,3.58
		c2.488,1.561,5.122,2.899,7.748,4.225c1.382,0.696,2.877,1.168,4.324,1.734c1.971,0.773,3.926,1.591,5.925,2.282
		c0.928,0.321,1.937,0.461,2.921,0.559c2.361,0.234,4.73,0.4,7.098,0.583c0.757,0.059,1.516,0.084,2.246,0.124
		c0.371,5.133,2.677,6.077,5.359,6.091c0.938,0.004,1.951-0.449,2.794-0.93c0.634-0.363,1.125-1.056,1.551-1.688
		c0.95-1.408,0.98-2.981,0.447-4.538c1.69-0.364,3.215-0.659,4.723-1.024C110.854,126.591,113.394,124.819,115.96,123.133z"/>
	<path class="stroke" fill="#1f4a69"  d="M163.718,83.671c-3.028-0.821-5.699,0.435-8.461,0.829c-0.326-0.29-0.624-0.539-0.903-0.807
		c-1.163-1.119-2.125-2.307-1.626-4.105c0.065-0.236-0.191-0.562-0.354-0.994c-1.307,1.188-1.254,2.641-1.436,4.175
		c-0.498-0.527-0.831-0.883-1.201-1.274c-0.997,1.095,0.111,1.924,0.185,2.951c-0.696,0.086-1.373,0.178-2.051,0.251
		c-1.248,0.136-2.506,0.203-3.744,0.4c-2.436,0.389-4.86,0.845-7.289,1.277c-1.916,0.342-3.842,0.641-5.745,1.046
		c-2.707,0.576-5.41,1.131-8.041,2.07c-2.599,0.928-5.339,1.449-7.976,2.28c-2.43,0.767-4.857,1.587-7.192,2.598
		c-5.686,2.461-11.509,4.295-17.742,4.678c-1.076,0.066-2.271-0.069-3.194,0.668c-0.243,0.663,0.139,0.963,0.562,1.21
		c1.271,0.742,2.547,1.382,4.097,1.464c1.54,0.083,3.162,0.146,4.518,1c1.891,1.19,3.927,2.039,6.032,2.701
		c1.772,0.558,3.581,1.153,5.412,1.332c3.99,0.39,7.953-0.066,11.889-0.836c2.803-0.549,5.641-0.918,8.462-1.371
		c1.283-0.206,2.62-0.255,3.835-0.664c2.953-0.995,5.892-2.061,8.755-3.288c2.144-0.918,4.189-2.084,5.81-3.852
		c1.26-1.373,2.526-2.743,3.848-4.057c0.718-0.713,1.557-1.304,2.399-1.997c0.686,2.828,0.876,3.106,2.077,3.039
		c-0.028-0.208-0.049-0.411-0.082-0.612c-0.333-2.055-0.324-4.071,0.873-5.885c0.349-0.528,0.774-1.16,1.313-1.382
		c1.677-0.688,3.388-1.345,5.279-1.166c0.724,0.068,1.46,0.011,2.381,0.011C164.143,84.713,163.912,84.146,163.718,83.671z"/>
	<path class="stroke" fill="#1f4a69"  d="M86.852,131.866c-1.893-1.337-4.229-1.958-6.29-0.098c-1.041,0.94-1.807,2.067-2.24,3.429
		c-0.529,1.664-0.241,3.169,0.807,4.517c0.705,0.906,1.688,1.47,2.757,1.861c0.886,0.325,1.747,0.68,2.758,0.442
		c2.478-0.582,4.268-2.856,4.315-5.597C88.987,134.778,88.19,132.812,86.852,131.866z"/>
	<path class="stroke" fill="#1f4a69"  d="M97.632,138.396c-2.89,0.005-4.855,2.043-4.877,5.057c-0.018,2.447,2.5,4.918,5.07,4.977
		c2.457,0.057,4.712-2.75,4.758-5.716C102.617,140.468,99.866,138.133,97.632,138.396z"/>
	<path class="stroke" fill="#1f4a69"  d="M117.416,128.381c-2.48-1.149-4.982-1.342-7.436,0.13c-0.695,0.417-1.16,1.013-1.472,1.757
		c-0.825,1.969-0.618,3.925,0.235,5.786c0.652,1.422,1.793,2.325,3.491,2.269c1.571-0.088,3.042-0.393,4.278-1.539
		c1.703-1.579,2.31-3.605,2.501-5.787C119.116,129.819,118.473,128.87,117.416,128.381z"/>
	<path class="stroke" fill="#1f4a69"  d="M124.618,131.751c-2.711,0.334-4.5,2.479-4.5,5.437c0,2.065,0.912,3.578,2.814,4.374c1.694,0.708,3.258,0.261,4.519-0.995
		c0.723-0.72,1.401-1.56,1.841-2.47c0.712-1.473,0.78-3.144-0.226-4.453C128.013,132.273,126.476,131.521,124.618,131.751z"/>
	<path class="stroke" fill="#1f4a69"  d="M124.814,129.34c2.243-0.048,4.384-1.462,4.426-4.131c0.038-2.438-2.23-3.738-3.982-3.738
		c-2.071-0.001-4.101,2.111-4.093,4.241C121.208,128.269,122.696,129.386,124.814,129.34z"/>
</g>
<path fill-rule="evenodd" clip-rule="evenodd" fill="#b3d753" class="fill" d="M52.769,100.426c-0.056-0.247-0.111-0.49-0.178-0.784
	c0.44-0.22,0.851-0.424,1.221-0.609c0.005-1.29-1.493-0.007-1.577-1.142c0.309-0.256,0.666-0.553,1.201-0.996
	c-0.649-0.194-1.032-0.308-1.351-0.402c-0.409-0.737,0.458-0.77,0.558-1.277c-0.225-0.196-0.467-0.407-0.705-0.616
	c0.188-0.256,0.355-0.483,0.56-0.763c-0.292-0.268-0.538-0.494-0.826-0.759c-0.117-1.112,0.244-2.065,1.184-2.944
	c0.148,0.342,0.292,0.589,0.366,0.855c0.607,2.176,1.306,4.331,2.534,6.233c1.502,2.327,3.047,4.64,4.761,6.811
	c0.947,1.2,2.241,2.143,3.445,3.119c0.974,0.79,2.053,1.449,3.077,2.178c2.312,1.646,4.876,2.795,7.486,3.865
	c2.242,0.919,4.445,1.935,6.695,2.832c1.564,0.624,3.16,1.183,4.776,1.656c2.945,0.862,5.905,1.676,8.876,2.443
	c3.945,1.019,7.923,1.854,12.037,1.706c2.205-0.079,4.411-0.155,6.616-0.229c0.331-0.011,0.662-0.001,1.032,0.116
	c-1.364,1.489-2.967,2.508-5.068,2.92c-0.406,0.21-0.927,0.479-1.489,0.771c-0.321-0.393-0.57-0.696-0.953-1.165
	c-0.157,0.572-0.262,0.959-0.385,1.408c-0.255,0.062-0.54,0.13-0.81,0.194c-0.31-0.371-0.586-0.703-1.001-1.201
	c-0.208,0.599-0.337,0.973-0.475,1.371c-0.816-0.017-0.427-0.874-1.037-1.179c-0.006,0.001-0.198,0.026-0.424,0.057
	c0,0.461,0,0.844,0,1.294c-0.188,0.117-0.399,0.25-0.66,0.413c-1.403-1.156-2.971-1.574-4.813-1.406
	c-1.774,0.161-3.006,1.245-4.366,2.364c-0.272-0.691-0.046-1.447-0.991-1.286c-0.145,0.313-0.313,0.681-0.492,1.067
	c-0.679-0.121-0.277-0.756-0.658-1.159c-0.126-0.039-0.39-0.12-0.755-0.233c-0.033,0.482-0.059,0.854-0.091,1.328
	c-0.296,0.044-0.615,0.093-0.872,0.132c-0.609-0.3-0.137-1.525-1.282-1.236c-0.055,0.361-0.113,0.733-0.179,1.162
	c-0.3,0-0.586,0-0.966,0c-0.07-0.454-0.14-0.905-0.218-1.416c-0.228-0.062-0.458-0.125-0.75-0.204
	c-0.127,0.482-0.235,0.892-0.368,1.399c-0.327-0.049-0.642-0.095-0.981-0.146c-0.056-0.511-0.102-0.931-0.153-1.397
	c-0.249-0.062-0.48-0.12-0.776-0.194c-0.144,0.458-0.265,0.846-0.401,1.279c-0.219-0.057-0.375-0.097-0.474-0.121
	c-0.39-0.513,0.082-1.446-0.969-1.574c-0.158,0.453-0.309,0.885-0.483,1.383c-1.165-0.275-0.349-1.429-0.993-1.973
	c-0.164,0.038-0.392,0.09-0.634,0.146c-0.065,0.429-0.123,0.807-0.185,1.208c-0.684,0.034-0.882-0.333-0.831-0.886
	c0.04-0.428,0.048-0.795-0.62-0.831c-0.19,0.318-0.4,0.671-0.673,1.129c-0.323-0.122-0.658-0.248-1.024-0.387
	c0.109-0.652,0.201-1.198,0.31-1.842c-0.273-0.071-0.527-0.137-0.841-0.218c-0.191,0.515-0.353,0.951-0.547,1.475
	c-0.392-0.199-0.727-0.369-1.098-0.557c0.047-0.519,0.09-0.982,0.139-1.521c-0.249-0.12-0.494-0.239-0.811-0.393
	c-0.17,0.49-0.307,0.887-0.48,1.387c-0.302-0.138-0.584-0.268-0.876-0.401c0.046-0.553,0.085-1.019,0.128-1.545
	c-0.253-0.102-0.471-0.19-0.759-0.307c-0.215,0.442-0.397,0.817-0.629,1.296c-0.282-0.104-0.575-0.21-0.915-0.334
	c0.078-0.529,0.144-0.982,0.22-1.499c-0.275-0.081-0.502-0.148-0.764-0.226c-0.221,0.385-0.41,0.714-0.647,1.128
	c-0.309-0.133-0.602-0.259-0.961-0.413c0.176-0.51,0.327-0.945,0.509-1.474c-0.249-0.112-0.496-0.223-0.779-0.351
	c-0.269,0.362-0.496,0.667-0.788,1.061c-0.231-0.139-0.463-0.279-0.768-0.463c0.24-0.422,0.448-0.786,0.695-1.218
	c-0.086-0.138-0.192-0.305-0.374-0.59c-0.441,0.379-0.815,0.699-1.266,1.086c-0.435-0.328-0.874-0.659-1.383-1.042
	c0.211-0.638,0.408-1.234,0.639-1.933c-0.345-0.075-0.604-0.131-0.892-0.193c-0.212,0.502-0.393,0.931-0.606,1.437
	c-0.299-0.178-0.544-0.323-0.899-0.534c0.232-0.662,0.454-1.296,0.718-2.051c-0.31-0.07-0.605-0.137-0.9-0.203
	c-0.284,0.45-0.51,0.808-0.77,1.22c-0.221-0.131-0.396-0.233-0.674-0.397c0.312-0.61,0.602-1.176,0.892-1.742
	c0.089-0.078,0.178-0.157,0.268-0.236c-0.199-0.184-0.398-0.367-0.715-0.66c-0.526,0.68-0.858,1.11-1.272,1.645
	c-0.276-0.224-0.547-0.443-0.887-0.719c0.378-0.681,0.708-1.273,1.083-1.949c-0.214-0.149-0.436-0.305-0.704-0.491
	c-0.38,0.504-0.71,0.941-1.106,1.469c-0.26-0.311-0.467-0.558-0.725-0.864c0.463-0.487,0.873-0.92,1.282-1.351
	c-0.553-0.636-0.553-0.636-1.964,0.293c-0.329-0.529-0.657-1.057-1.014-1.631c0.533-0.498,0.993-0.929,1.464-1.369
	c-0.691-0.979-1.225-0.074-1.967,0.114c-0.198-0.475-0.4-0.957-0.599-1.433c0.375-0.427,0.678-0.771,1.181-1.344
	c-0.66-0.06-1.083-0.098-1.617-0.146c-0.092-0.213-0.223-0.517-0.379-0.878c0.417-0.291,0.793-0.555,1.166-0.815
	c-0.137-0.977-0.902-0.368-1.38-0.582c-0.044-0.186-0.093-0.388-0.153-0.64c0.413-0.318,0.807-0.623,1.21-0.934
	C53.951,99.969,53.287,100.521,52.769,100.426z"/>
<path fill-rule="evenodd" clip-rule="evenodd" fill="#b3d753" class="fill" d="M95.341,132.942c-0.383-1.083-0.442-2.141-0.278-3.235
	c0.35-2.344,2.745-3.53,5.08-2.743c1.556,0.523,2.087,2.317,1.911,3.621C101.604,133.901,98.169,135.139,95.341,132.942z"/>
<path fill-rule="evenodd" clip-rule="evenodd" fill="#b3d753" class="fill" d="M90.652,118.013c-1.839-0.55-3.768-1.126-5.647-1.688
	c-0.881-1.555-0.484-3.565,0.865-4.406c1.742-1.086,4.155-0.941,5.204,0.457C92.379,114.113,92.472,116.932,90.652,118.013z"/>
<path fill-rule="evenodd" clip-rule="evenodd" fill="#b3d753" class="fill" d="M77.625,113.241c-0.43-0.163-0.838-0.301-1.233-0.47
	c-1.309-0.559-2.614-1.129-3.953-1.708c-0.102-1.141-0.171-2.219,0.627-3.108c1.033-1.151,2.425-1.271,3.89-0.418
	C78.788,108.604,79.639,111.951,77.625,113.241z"/>
<path fill-rule="evenodd" clip-rule="evenodd" fill="#b3d753" class="fill" d="M67.62,108.369c-1.527-1.115-3.021-2.204-4.376-3.193
	c-0.548-2.938,2.216-3.892,3.898-3.093c0.231,0.109,0.462,0.245,0.647,0.418C69.305,103.921,69.297,106.723,67.62,108.369z"/>
<path fill-rule="evenodd" clip-rule="evenodd" fill="#b3d753" class="fill" d="M99.437,115.622c3.733,0.502,4.467,2.832,3.713,4.978
	c-1.983-0.102-3.929-0.555-5.831-0.957C96.952,117.479,97.596,116.292,99.437,115.622z"/>
<path fill-rule="evenodd" clip-rule="evenodd" fill="#b3d753" class="fill" d="M56.582,96.144c1.358-0.375,2.258,0.051,2.913,0.926
	c0.87,1.162,1.085,2.456,0.429,4.142C58.745,99.424,57.714,97.86,56.582,96.144z"/>
<path fill-rule="evenodd" clip-rule="evenodd" fill="#b3d753" class="fill" d="M150.527,90.576c-0.29-0.023-0.541-0.044-0.703-0.057
	c-0.383,0.631-0.725,1.192-1.074,1.767c-0.476-0.269-0.795-0.448-1.122-0.632c-0.768,0.616,0.277,2.003-1.092,2.287
	c-0.554-0.596-0.143-1.755-1.238-2.161c-0.415,1.114,0.518,2.02,0.216,3.32c-0.037,0.046-0.267,0.328-0.48,0.591
	c-0.785-0.318-0.401-1.556-1.469-1.573c-0.41,0.854,0.347,1.466,0.427,2.323c-0.292,0.25-0.631,0.542-0.927,0.796
	c-0.862-0.446-0.191-1.956-1.729-1.848c0.234,0.913,0.452,1.762,0.688,2.686c-0.343,0.118-0.604,0.207-0.872,0.299
	c-0.422-0.6-0.149-1.741-1.443-1.567c0.121,0.712,0.233,1.372,0.365,2.15c-0.448,0.202-0.849,0.384-1.347,0.609
	c-0.111-0.67-0.193-1.17-0.287-1.737c-0.247-0.049-0.481-0.096-0.817-0.163c0,0.762,0,1.438,0,2.231
	c-0.314,0.167-0.626,0.332-1.101,0.584c-0.047-0.95-0.084-1.701-0.125-2.523c-0.325,0.034-0.523,0.055-0.804,0.084
	c-0.1,0.934-0.195,1.827-0.301,2.817c-0.323,0.16-0.647,0.32-1.115,0.553c0-0.845,0-1.519,0-2.234
	c-0.289-0.108-0.509-0.19-0.743-0.278c-0.108,0.173-0.223,0.272-0.23,0.381c-0.039,0.561-0.042,1.125-0.074,1.687
	c-0.041,0.689-0.325,1.141-1.198,1.103c0.026-0.538,0.051-1.034,0.078-1.612c-0.289-0.083-0.547-0.157-0.769-0.221
	c-0.593,0.752,0.142,2.102-1.257,2.364c-0.493-0.592,0.476-1.797-1.022-2.017c-0.122,0.725-0.239,1.422-0.375,2.233
	c-0.245,0.093-0.543,0.205-1.011,0.382c0.031-0.654,0.054-1.145,0.082-1.733c-0.274-0.063-0.534-0.124-0.863-0.2
	c-0.161,0.745-0.304,1.403-0.454,2.097c-0.344,0.065-0.623,0.118-1.025,0.194c0-0.381,0.037-0.676-0.011-0.957
	c-0.044-0.252-0.181-0.487-0.277-0.73c-0.108-0.006-0.217-0.012-0.325-0.018c-0.212,0.563-0.425,1.126-0.688,1.824
	c-0.322,0.07-0.718,0.157-1.086,0.237c-0.43-0.566,0.332-1.505-0.825-1.689c-0.204,0.634-0.413,1.28-0.655,2.029
	c-0.615-0.485-0.037-1.472-1.091-1.501c-0.214,0.478-0.45,1.008-0.724,1.619c-0.422,0.113-0.865,0.233-1.242,0.335
	c-0.631-0.421,0.117-1.49-1.101-1.585c-0.138,0.577-0.28,1.174-0.433,1.812c-0.496,0.079-0.96,0.153-1.417,0.227
	c-0.422-0.271-0.02-1.334-1.06-0.984c-0.405,0.343-0.14,1.429-1.231,1.289c0.058-0.548,0.11-1.042,0.17-1.606
	c-0.323-0.062-0.555-0.105-0.795-0.151c-0.282,0.691-0.541,1.326-0.825,2.022c-0.408,0-0.77,0-1.225,0
	c0.155-0.585,0.285-1.078,0.44-1.664c-0.204-0.137-0.422-0.284-0.788-0.531c-0.298,0.746-0.547,1.37-0.862,2.161
	c-0.437-0.037-0.948-0.08-1.354-0.114c-0.337-0.706,0.427-1.381-0.505-1.935c-0.368,0.582-0.736,1.162-1.139,1.799
	c-0.297-0.061-0.58-0.118-0.947-0.192c0.092-0.449,0.174-0.852,0.268-1.309c-0.203-0.146-0.396-0.285-0.62-0.446
	c-0.418,0.546-0.789,1.031-1.196,1.563c-0.922-0.732-0.262-1.479-0.343-2.237c-0.124-0.11-0.301-0.27-0.628-0.562
	c-0.27,0.628-0.481,1.119-0.706,1.643c-0.222,0-0.455,0-0.637,0c-0.413-0.703,0.436-1.756-0.835-2.179
	c-0.198,0.501-0.375,0.949-0.579,1.468c-0.952-0.376-0.083-1.794-1.328-1.922c-0.152,0.271-0.329,0.585-0.534,0.95
	c-0.201-0.025-0.409-0.052-0.598-0.076c-0.307-0.465-0.596-0.9-0.95-1.436c-0.338,0.396-0.551,0.645-0.765,0.896
	c-0.084,0.011-0.179,0.05-0.254,0.027c-0.814-0.248-1.594-0.498-2.5-0.441c-0.707,0.045-1.549-0.04-2.282-0.786
	c0.843-0.146,1.535-0.318,2.237-0.375c2.348-0.188,4.624-0.704,6.836-1.484c3.551-1.252,7.121-2.461,10.62-3.848
	c3.641-1.442,7.429-2.337,11.192-3.341c1.171-0.312,2.316-0.739,3.501-0.977c2.544-0.51,5.108-0.922,7.661-1.39
	c3.408-0.625,6.809-1.291,10.221-1.889c2.045-0.359,4.106-0.628,6.161-0.925c0.193-0.028,0.398,0.031,0.829,0.07
	c-0.708,0.642-1.371,1.068-1.788,1.666c-0.405,0.579-0.56,1.334-0.852,2.082c0.329,0.173,0.57,0.301,0.846,0.445
	c1.293-1.524,3.052-2.174,4.801-2.904C152.686,88.877,151.735,89.771,150.527,90.576z"/>
<path fill-rule="evenodd" clip-rule="evenodd" fill="#b3d753" class="fill" d="M87.426,136.877c-0.05,3.17-2.835,4-5.208,2.841
	c-1.641-0.8-2.236-2.438-1.733-4.426c0.408-1.611,1.845-2.782,3.494-2.764c1.435,0.016,2.293,0.943,2.846,2.122
	C87.146,135.336,87.234,136.131,87.426,136.877z"/>
<path fill-rule="evenodd" clip-rule="evenodd" fill="#b3d753" class="fill" d="M100.747,143.968c0.012,0.771-0.301,1.553-0.943,2.187
	c-0.208,0.205-0.479,0.389-0.753,0.475c-1.21,0.379-3.371-0.922-3.652-2.169c-0.432-1.922,0.45-3.681,2.093-4.17
	c1.141-0.34,2.165,0.097,2.684,1.165c0.15,0.309,0.279,0.637,0.352,0.97C100.627,142.886,100.664,143.36,100.747,143.968z"/>
<path fill-rule="evenodd" clip-rule="evenodd" fill="#b3d753" class="fill" d="M117.451,132.613c-0.249,3.223-3.138,4.923-5.918,3.384
	c-0.482-0.267-0.899-0.821-1.133-1.34c-0.794-1.759-0.304-3.462,0.746-4.883c1.329-1.797,4.558-1.38,5.611,0.642
	C117.106,131.086,117.226,131.877,117.451,132.613z"/>
<path fill-rule="evenodd" clip-rule="evenodd" fill="#b3d753" class="fill" d="M127.999,136.689c0.023,1.322-0.423,2.284-1.29,3.025
	c-1.162,0.995-3.719,0.354-4.371-1.039c-0.672-1.435-0.423-2.795,0.313-4.096c0.553-0.977,1.483-1.267,2.56-1.158
	c1.167,0.117,2.087,0.613,2.484,1.774C127.875,135.723,127.922,136.294,127.999,136.689z"/>
<path fill-rule="evenodd" clip-rule="evenodd" fill="#b3d753" class="fill" d="M125.643,123.07c1.548,0.039,1.832,0.839,1.906,2.359
	c0.06,1.229-1.26,2.256-2.701,2.22c-1.021-0.025-1.766-0.849-1.797-1.987C123.009,124.147,124.091,123.066,125.643,123.07z"/>
</svg>
