<svg version="1.1" xmlns="http://www.w3.org/2000/svg" xmlns:xlink="http://www.w3.org/1999/xlink" x="0px" y="0px" width="200px"
	 height="200px" viewBox="0 0 200 200" enable-background="new 0 0 200 200" xml:space="preserve">
<g id="svg">
	<path class="stroke" fill="#672a19"  d="M163.643,114.08c-1.802-0.571-3.669-0.559-5.527-0.578c-2.41-0.025-4.82-0.02-7.229-0.027c-0.457-0.002-0.914,0-1.403,0
		c0-0.528,0-0.917,0-1.385c1.993-0.845,4.127-0.862,6.21-1.121c2.086-0.259,4.181-0.444,6.396-0.675
		c-0.171-0.318-0.278-0.518-0.364-0.678c-4.185,0.257-8.281,0.587-12.379,1.365c-0.065-0.167-0.156-0.325-0.188-0.495
		c-0.396-2-0.726-4.017-1.189-6c-0.398-1.701-0.469-3.478-1.229-5.097c-0.618-1.316-1.15-2.673-1.745-3.999
		c-0.275-0.611-0.516-1.209-0.24-2.068c0.448-0.254,1.006-0.58,1.572-0.89c0.607-0.333,1.249-0.609,1.83-0.982
		c0.741-0.477,1.071-1.211,0.91-2.079c-0.155-0.832-0.604-1.509-1.466-1.756c-0.906-0.26-1.822-0.53-2.754-0.648
		c-1.261-0.16-2.54-0.181-4.077-0.279c-0.94-0.976-1.882-2.169-3.035-3.099c-1.992-1.606-4.197-2.921-6.625-3.786
		c-2.634-0.938-5.385-1.25-8.164-1.395c-2.18-0.113-4.369-0.148-6.508-0.683c-1.208-0.303-2.359-0.68-3.394-1.441
		c-2.411-1.773-4.859-3.497-7.321-5.2c-1.351-0.935-2.777-1.744-4.38-2.21c-1.364-0.397-2.727-0.816-4.061-1.304
		c-1.675-0.613-3.392-0.819-5.157-0.786c-0.397,0.008-0.796-0.08-1.195-0.103c-1.674-0.091-3.359-0.331-5.022-0.229
		c-3.902,0.239-7.748,0.894-11.497,2.057c-3.226,1.001-6.319,2.272-8.959,4.438c-0.956,0.785-1.961,1.572-2.703,2.542
		c-1.1,1.434-2.061,2.99-2.941,4.572c-1.132,2.033-2.41,4.003-3.049,6.28c-0.314,1.124-0.67,2.234-0.984,3.358
		c-0.71,2.539-1.219,5.104-1.045,7.767c0.232,3.544,1.063,6.94,2.776,10.05c1.617,2.935,3.199,5.9,5.458,8.441
		c1.175,1.321,2.447,2.485,3.908,3.459c0.24,0.16,0.511,0.279,0.779,0.388c0.912,0.369,1.84,0.701,2.742,1.091
		c1.39,0.602,2.588,1.473,3.546,2.661c0.247,0.307,0.522,0.591,0.722,0.813c1.399,0.211,1.619-0.838,2.037-1.701
		c0.654,0.464,0.975,1.343,1.773,1.252c0.911-0.047,0.934-0.854,1.331-1.258c1.664,0.44,2.651-0.44,2.427-2.134
		c-0.104-0.778-0.362-1.511-1.005-2.007c-0.688-0.532-1.416-1.017-2.146-1.494c-0.324-0.212-0.694-0.353-1.112-0.56
		c0.487-1.041,1.31-1.18,2.207-1.241c0.172,0.179,0.32,0.338,0.473,0.494c0.58,0.59,1.092,1.277,1.755,1.752
		c2.399,1.718,5.112,2.758,7.973,3.406c0.917,0.208,1.868,0.267,2.808,0.354c0.867,0.081,1.74,0.108,2.518,0.154
		c0.407,0.9,0.686,1.789,1.172,2.542c1.931,2.988,4.598,5.149,7.801,6.654c1.938,0.911,4.027,1.247,6.135,1.489
		c1.944,0.225,3.908,0.22,5.797,0.945c1.374,0.528,2.576,1.154,3.388,2.421c0.247,0.385,0.596,0.704,0.788,0.925
		c1.197,0.262,1.816-0.417,2.453-0.964c1.176,0.662,1.635,0.61,2.579-0.284c0.111-0.493,0.229-1.018,0.347-1.541
		c1.013-0.057,1.979-0.094,2.622-1.285c0.375-2.479-1.448-3.84-3.37-5.328c1.878-0.282,3.621-0.545,5.13-0.772
		c2.012,0.727,3.017,2.21,4.03,3.819c0.708-0.186,1.352-0.356,1.971-0.518c0.413,0.366,0.817,0.722,1.135,1.002
		c1.25,0.155,1.556-0.815,2.09-1.465c0.893,0.29,1.748,0.528,2.462-0.312c0.444-1.289-0.198-2.399-0.649-3.619
		c3.954-1.419,6.375-4.259,7.531-8.317c0.747,0,1.404-0.063,2.047,0.012c1.701,0.201,3.397,0.461,5.094,0.7
		c1.876,0.265,3.75,0.542,5.628,0.793c0.333,0.044,0.679-0.015,1.034-0.026c0.004-0.538-0.255-0.577-0.571-0.621
		c-4.254-0.59-8.506-1.191-12.758-1.796c-0.055-0.007-0.099-0.093-0.21-0.203c0.074-0.368,0.158-0.781,0.249-1.226
		c0.452-0.037,0.813-0.091,1.173-0.093c2.74-0.017,5.479-0.052,8.219-0.023c1.599,0.017,3.216-0.037,4.745,0.606
		c0.194,0.083,0.464-0.008,0.745-0.021C164.426,114.286,164.019,114.198,163.643,114.08z"/>
</g>
<g id="Layer_2">
	<path fill-rule="evenodd" clip-rule="evenodd" fill="#ffc524" class="fill" d="M140.565,88.612c0.789-0.229,1.548-0.626,2.31-0.633
		c1.267-0.01,2.544,0.181,3.801,0.381c0.7,0.111,1.008,0.652,0.955,1.402c-0.767,0.762-1.659,1.285-2.731,1.493
		c-0.903,0.177-1.646,0.586-2.045,1.449c-0.222,1.094,0.304,2.021,0.674,2.956c0.37,0.936,0.9,1.808,1.403,2.789
		c-0.805,0.351-1.413,0.718-1.481,1.568c-0.08,1.022,0.138,1.949,0.831,2.896c0.513,0.094,1.108,0.203,1.745,0.32
		c1.42,2.684,2.102,5.589,1.993,8.681c-0.023,0.653,0.011,1.307-0.01,1.959c-0.062,2.065-1.115,3.822-1.827,5.679
		c-0.338,0.885-0.944,1.629-1.901,2.147c-0.387-0.312-0.774-0.624-1.244-1c0.188-0.681,0.244-1.409,0.576-1.975
		c0.498-0.847,0.711-1.724,0.685-2.673c0.907-0.668,1.974-1.114,2.278-2.299c-0.41-0.462-0.884-0.458-1.179-0.101
		c-1.461,1.772-3.065,0.903-4.673,0.338c-0.431-0.151-0.884-0.236-1.415-0.375c-0.173,0.493-0.299,0.853-0.397,1.133
		c0.346,0.814,0.885,1.204,1.622,1.311c0.683,0.099,1.372,0.163,2.141,0.252c0.095,1.125,0.204,2.197-0.318,3.207
		c-0.146,0.279-0.385,0.53-0.633,0.731c-0.876,0.711-1.799,1.37-2.657,2.101c-0.348,0.296-0.579,0.728-0.876,1.114
		c-2.827,0.603-5.695,1.049-8.541,0.349c-2.084-0.514-4.196-1.069-6.282-2.198c2.897-1.674,6.108-1.946,8.998-3.258
		c-0.113-0.293-0.182-0.478-0.282-0.737c-3.294,1.098-6.536,2.179-9.97,3.322c-0.442-0.311-1.025-0.72-1.741-1.223
		c0.408-0.209,0.648-0.348,0.9-0.458c2.49-1.094,5.149-1.565,7.785-2.122c0.599-0.126,1.218-0.239,1.623-0.772
		c-0.071-0.416-0.275-0.476-0.632-0.38c-3.304,0.893-6.722,1.375-9.892,2.75c-0.132,0.057-0.281,0.073-0.476,0.121
		c-0.71-0.584-1.402-1.2-1.851-2.204c2.039-0.936,4.059-1.704,6.255-1.927c2.174-0.22,4.345-0.441,6.605-0.67
		c-0.077-0.252-0.144-0.467-0.227-0.741c-4.537,0.248-9.008,0.487-12.958,2.529c-1.109-0.355-1.334-1.193-1.55-1.933
		c-0.315-1.079-0.781-2.024-1.601-2.798c-0.151-0.144-0.225-0.37-0.373-0.627c0.095-0.418,0.205-0.875,0.303-1.334
		c0.215-0.993-0.048-1.503-0.969-1.918c-0.3-0.134-0.6-0.27-0.886-0.431c-0.706-0.397-1.013-1-0.941-1.817
		c0.139-1.582-0.326-2.208-1.858-2.535c-0.427-0.092-0.857-0.182-1.291-0.237c-0.776-0.1-1.162,0.04-1.927,0.657
		c0.085,0.178,0.175,0.367,0.294,0.615c-0.146,0.167-0.306,0.35-0.499,0.57c0.022,0.175,0.049,0.381,0.081,0.637
		c-0.431,0.284-0.878,0.579-1.366,0.901c0.324,0.919,1.258,0.458,1.898,0.977c-0.689,0.362-1.32,0.695-1.928,1.016
		c0.009,0.829,0.748,0.415,1.116,0.763c-0.457,0.312-0.892,0.612-1.373,0.941c0.106,0.18,0.194,0.329,0.304,0.514
		c0.359,0,0.719,0,1.015,0c0.438,0.324,0.812,0.601,1.28,0.947c0.043,0.275,0.104,0.665,0.183,1.177
		c-0.458,0.411-0.934,0.838-1.466,1.315c0.347,0.704,1.02,0.384,1.526,0.483c0.519,0.101,1.052,0.124,1.715,0.195
		c-0.216,0.23-0.343,0.384-0.487,0.518c-0.127,0.117-0.274,0.212-0.419,0.321c0.481,0.514,0.962,0.537,1.751,0.286
		c0.933-0.295,1.892-0.509,2.843-0.748c0.134-0.034,0.284-0.004,0.494-0.004c0.426,0.804,0.845,1.599,1.334,2.523
		c-2.576,1.268-5.076,2.499-7.644,3.763c0.15,0.265,0.246,0.436,0.385,0.681c2.777-1.167,5.353-2.672,8.094-3.758
		c0.652,0.726,1.225,1.365,1.893,2.109c-0.937,0.573-1.884,0.794-2.798,1.096c-1.521,0.502-3.038,1.009-4.549,1.54
		c-0.319,0.113-0.599,0.34-0.896,0.515c0.195,0.614,0.491,0.647,0.88,0.431c2.52-1.401,5.442-1.587,8.021-2.767
		c0.646,0.488,1.225,0.924,1.881,1.42c-0.243,0.216-0.468,0.416-0.766,0.679c0.139,0.212,0.277,0.424,0.424,0.648
		c0.515-0.25,0.935-0.455,1.37-0.666c1.302,0.655,2.582,1.298,4.046,2.034c-2.411,0.433-4.613,0.827-6.809,1.22
		c-0.162,0.341-0.282,0.594-0.375,0.791c0.19,0.641,0.651,0.753,1.14,0.786c0.763,0.052,1.529,0.059,2.293,0.12
		c1.158,0.092,2.182,0.515,3.041,1.35c0.807-0.079,1.536,0.152,1.932,0.899c0.363,0.684,1.182,1.258,0.725,2.264
		c-1.021-0.076-1.547-1.559-2.799-1.023c0.005,0.965,0.894,1.73,0.295,2.759c-0.389-0.667-0.73-1.253-1.081-1.857
		c-0.391-0.135-0.763-0.263-1.32-0.455c-0.157,0.177-0.343,0.387-0.431,0.486c-0.025,0.846,0.564,1.42,0.183,2.179
		c-0.156-0.092-0.351-0.141-0.426-0.262c-0.828-1.331-1.873-2.423-3.38-3.117c0.23-0.299,0.42-0.543,0.638-0.826
		c-1.005-0.724-1.589,0.86-2.568,0.334c0.253-0.341,0.479-0.649,0.702-0.949c-0.188-0.494-0.467-0.448-0.773-0.197
		c-0.447,0.367-0.883,0.749-1.279,1.085c-0.587,0-1.09,0-1.698,0c0.346-0.804,1.134-0.975,1.624-1.462
		c-0.006-0.508-0.357-0.559-0.672-0.417c-0.426,0.191-0.825,0.464-1.191,0.758c-0.309,0.249-0.554,0.576-0.84,0.881
		c-0.328,0-0.645,0-1.041,0c0.267-1.1,1.22-1.451,1.959-2.083c-0.129-0.179-0.239-0.335-0.357-0.498
		c-1.315,0.354-2.021,1.325-2.665,2.397c-0.329-0.121-0.589-0.216-0.807-0.296c0.09-1.289,1.269-1.666,1.96-2.44
		c-0.461-0.6-0.855-0.237-1.18-0.019c-0.388,0.261-0.749,0.584-1.053,0.939c-0.28,0.327-0.472,0.731-0.742,1.169
		c-0.252-0.038-0.52-0.078-0.757-0.114c-0.257-0.776,0.281-1.165,0.608-1.614c0.335-0.458,0.741-0.864,1.155-1.335
		c-0.463-0.408-0.855-0.336-1.182,0.025c-0.389,0.432-0.732,0.905-1.076,1.375c-0.235,0.321-0.436,0.666-0.698,1.073
		c-0.348-0.127-0.674-0.247-1.062-0.388c0.405-1.156,1.26-1.878,2.158-2.636c-0.173-0.184-0.311-0.327-0.466-0.492
		c-1.332,0.444-1.811,1.685-2.653,2.688c-0.42-0.239-0.808-0.458-1.235-0.701c0.767-1.42,2.108-2.067,3.36-2.846
		c-0.354-0.653-0.732-0.567-1.151-0.325c-0.918,0.533-1.76,1.158-2.449,1.977c-0.184,0.218-0.393,0.416-0.668,0.706
		c-0.387-0.335-0.727-0.63-1.126-0.977c0.993-1.519,2.64-1.909,4.148-2.565c-0.404-0.604-0.798-0.521-1.174-0.406
		c-0.981,0.299-1.922,0.674-2.656,1.445c-0.271,0.284-0.617,0.496-1.022,0.815c-0.269-0.302-0.521-0.587-0.834-0.94
		c1.09-1.241,2.671-1.449,3.995-2.039c0.032-0.486-0.236-0.625-0.545-0.556c-0.6,0.135-1.206,0.29-1.766,0.536
		c-0.731,0.322-1.421,0.741-2.208,1.162c-0.164-0.247-0.334-0.504-0.527-0.794c1.129-1.116,2.646-1.101,4.151-1.435
		c-0.935-0.809-1.098-0.794-4.152,0.173c-0.229-1.491,1.025-3.362,2.768-4.006c-0.229,0.56-0.432,1.049-0.72,1.755
		c0.111,0.11,0.28,0.278,0.432,0.428c1.971-0.997,3.755-1.898,5.663-2.864c-0.059-0.35-0.026-0.82-0.217-1.166
		c-0.473-0.851-0.96-1.724-1.602-2.444c-0.918-1.034-1.49-2.197-1.532-3.54c-0.082-2.528,0.02-5.068,1.18-7.387
		c1.064-2.129,1.88-4.455,4.014-5.864c0.073-0.047,0.081-0.192,0.149-0.37c-0.824-0.619-1.801-0.712-2.753-0.713
		c-1.934-0.001-3.869,0.08-5.803,0.151c-0.881,0.032-1.701,0.27-2.412,0.903c0.35,0.558,0.919,0.216,1.381,0.493
		c-0.7,0.708-1.934,0.537-2.6,1.633c0.901,0.076,1.665,0.14,2.534,0.213c-0.457,0.849-1.56,1.061-1.767,2.22
		c0.956-0.122,1.799-0.23,2.643-0.337c-1.416,0.785-3.01,1.232-4.425,2.215c0.588,0.608,1.189,0.312,1.729,0.356
		c0.532,0.042,1.068,0.074,1.623,0.202c-1.096,0.756-2.167,1.47-2.879,2.779c0.55,0.08,0.979,0.142,1.576,0.228
		c-0.434,0.561-0.777,1.006-1.155,1.495c0.136,0.166,0.265,0.32,0.405,0.489c0.898-0.321,1.627-1.062,2.695-0.854
		c-0.838,0.883-1.646,1.733-2.551,2.684c0.387,0.198,0.654,0.334,1.042,0.533c-0.499,0.677-0.998,1.353-1.529,2.072
		c0.665,0.359,1.177-0.183,1.804-0.121c0.099,0.118,0.231,0.277,0.391,0.469c-0.713,0.797-1.762,1.241-2.215,2.372
		c1.172,0.252,2.216-0.372,3.587-0.287c-1.787,1.211-2.8,2.716-3.315,4.592c-2.309,0.038-4.488-0.223-6.532-1.23
		c-0.295-0.146-0.574-0.321-0.87-0.462c-1.154-0.553-1.853-1.481-2.286-2.805c1.002,0.318,1.638,1.345,2.941,1.146
		c-0.482-1.115-0.92-2.127-1.437-3.321c1.15,0.668,2.175,1.262,3.136,1.82c0.513-0.35,0.352-0.671,0.237-0.972
		c-0.441-1.158-0.894-2.311-1.34-3.467c-0.074-0.19-0.144-0.382-0.055-0.694c0.557,0.432,1.074,0.936,1.684,1.273
		c0.586,0.326,0.781,1.284,1.78,1.097c-0.463-2.286-2.012-4.033-2.792-6.237c1.374,0.15,1.986,1.516,3.159,1.743
		c0.065-0.074,0.131-0.148,0.198-0.222c-1.051-1.481-2.102-2.963-3.221-4.542c0.988-0.131,1.516,0.941,2.486,0.504
		c-0.998-1.73-2.564-2.846-4.264-4.222c0.461,0,0.688-0.04,0.896,0.007c0.782,0.176,1.556,0.392,2.339,0.565
		c0.303,0.067,0.623,0.058,0.979-0.029c-1.4-1.883-3.556-2.598-5.75-3.7c1.651-0.445,3.029-0.042,4.402,0.104
		c0.039-0.09,0.078-0.18,0.117-0.269c-0.167-0.191-0.298-0.451-0.507-0.562c-1.678-0.901-3.408-1.666-5.33-1.881
		c-0.18-0.02-0.355-0.08-0.526-0.142c-0.089-0.032-0.163-0.107-0.309-0.208c1.45-0.805,3.08-0.654,4.607-1.119
		c-0.098-0.562-0.496-0.585-0.877-0.682c-1.476-0.376-2.974-0.253-4.467-0.261c-0.655-0.003-1.31,0-2.112,0
		c0.913-1.299,2.434-1.539,3.526-2.473c-0.133-0.176-0.256-0.339-0.458-0.606c-2.126,0.202-4.279,0.406-6.62,0.628
		c0.76-1.069,2.108-1.341,2.703-2.398c-0.193-0.498-0.521-0.48-0.887-0.29c-0.484,0.252-0.989,0.48-1.435,0.79
		c-1.523,1.062-3.025,2.155-4.534,3.237c-0.145,0.104-0.274,0.226-0.422,0.322c-1.014,0.662-1.401,1.202-1.857,2.634
		c2.983-0.406,5.337,1.397,7.969,2.219c0.458,0.144,0.852,0.557,1.224,0.901c4.102,3.778,4.582,8.927,2.37,13.61
		c-1.166,2.468-3.186,3.911-5.764,4.668c-0.693,0.204-1.389,0.459-2.019,0.808c-1.015,0.56-1.174,1.533-0.36,2.364
		c0.44,0.451,1.032,0.783,1.607,1.07c1.073,0.537,2.223,0.951,2.896,2.042c0.176,0.285,0.285,0.612,0.321,1.028
		c-0.941-0.995-1.88-1.891-3.499-1.737c0.408,0.983,0.76,1.83,1.112,2.677c-0.072,0.052-0.146,0.103-0.216,0.154
		c-0.479-0.482-0.904-1.041-1.451-1.427c-0.54-0.381-1.129-0.802-2.025-0.708c0.071,0.591,0.138,1.141,0.221,1.836
		c-0.221-0.199-0.372-0.308-0.491-0.446c-0.614-0.722-1.435-1.11-2.291-1.444c-1.356-0.529-2.702-1.092-4.076-1.572
		c-1.327-0.464-2.32-1.34-3.22-2.366c-2.029-2.314-3.84-4.793-5.215-7.546c-1.716-3.43-2.727-7.056-2.832-10.931
		c-0.08-2.916,0.276-5.767,1.13-8.527c0.971-3.142,2.36-6.124,4.008-8.978c1.588-2.751,3.721-4.934,6.588-6.36
		c1.403-0.697,2.757-1.509,4.203-2.097c3.412-1.388,6.888-2.555,10.606-2.886c2.3-0.205,4.59-0.294,6.88-0.09
		c1.305,0.117,2.596,0.397,3.882,0.656c0.963,0.193,1.922,0.429,2.858,0.72c0.972,0.302,1.896,0.767,2.876,1.032
		c2.214,0.598,4.174,1.72,6.097,2.897c1.584,0.97,3.046,2.135,4.615,3.129c1.314,0.832,2.505,1.922,4.085,2.262
		c0.92,0.198,1.858,0.396,2.794,0.42c2.668,0.065,5.302,0.315,7.916,0.888c2.842,0.622,5.548,1.586,8.059,3.023
		c1.481,0.849,2.853,1.894,4.244,2.89C138.717,87.123,139.609,87.867,140.565,88.612z M124.768,91.486
		c0.059-0.5,0.197-0.905,0.13-1.271c-0.205-1.11-0.435-2.224-0.758-3.304c-0.545-1.822-1.908-2.747-3.839-2.791
		c-1.937-0.044-3.755,0.269-5.405,1.377c-0.575,0.386-1.064,0.809-1.243,1.459c-0.347,1.264-0.698,2.545-0.033,3.831
		c0.097,0.186,0.104,0.417,0.179,0.736c-1.175-0.009-2.306-0.48-3.628-0.047c0.611,0.568,1.09,1.012,1.67,1.548
		c-0.795,0.238-1.432,0.428-2.141,0.639c0.357,0.412,0.601,0.692,0.867,0.999c-0.433,0.149-0.758,0.261-1.206,0.416
		c0.411,0.434,0.713,0.754,1.036,1.093c-0.369,0.222-0.664,0.4-1.014,0.61c0.243,0.31,0.433,0.553,0.617,0.787
		c-0.175,0.22-0.305,0.386-0.407,0.517c0.062,0.244,0.112,0.437,0.147,0.577c-0.521,0.32-0.962,0.589-1.487,0.911
		c0.407,0.334,0.675,0.554,0.961,0.789c-0.35,0.219-0.642,0.402-1.004,0.63c1.012,0.89,2.163,0.976,3.264,0.991
		c0.569,0.755,1.084,1.437,1.606,2.126c3.21-0.092,4.313-0.329,4.812-1.15c-0.645-0.192-1.256-0.375-1.896-0.567
		c0.319-0.601,1.12-0.227,1.265-0.973c-0.66-0.226-1.316-0.449-2.099-0.716c0.829-0.595,1.715-0.849,2.146-1.561
		c0.046-0.807-1.334-0.365-0.986-1.377c0.335-0.064,0.682-0.13,1.076-0.206c-0.021-0.249-0.038-0.447-0.046-0.543
		c-0.794-0.279-1.493-0.525-2.194-0.772c-0.004-0.083-0.007-0.166-0.011-0.249c0.626-0.331,1.252-0.661,1.925-1.016
		c0.456-0.92,0.292-1.751-0.429-2.547c-1.169-1.29-1.36-2.914-1.536-4.54c1.752-1.587,3.757-1.595,5.826-1.297
		c0.136,0.02,0.283,0.103,0.384,0.2c0.807,0.794,1.58,1.612,1.771,2.798c0.111,0.686,0.259,1.358,0.76,1.894
		C124.114,91.486,124.357,91.486,124.768,91.486z M128.491,101.794c-0.451-1.353-0.458-2.969-2.099-3.514
		c-1.425-0.474-2.855-0.501-4.131,0.366c-0.844,1.524-0.655,2.879,0.579,4c0.523,0.476,1.212,0.771,1.833,1.138
		c1.334,0.791,2.496,0.415,3.559-0.495C128.321,102.777,128.4,102.315,128.491,101.794z M133.706,94.685
		c-0.043,0.191-0.123,0.367-0.112,0.536c0.095,1.306,0.163,2.616,0.324,3.914c0.22,1.764,0.146,3.485-0.484,5.162
		c-0.418,1.112-0.845,2.222-1.296,3.406c0.263,0.021,0.531,0.042,0.815,0.063c1.067-1.717,1.871-3.505,1.906-5.449
		c0.042-2.394-0.213-4.792-0.347-7.188c-0.008-0.135-0.085-0.267-0.144-0.444C134.143,94.685,133.941,94.685,133.706,94.685z
		 M107.892,93.168c-2.782-0.992-5.547-1.241-8.372-0.981c-0.32,0.029-0.564,0.168-0.464,0.666c2.947,0.019,5.901,0.222,8.836,1.204
		C107.892,93.667,107.892,93.466,107.892,93.168z M100.702,90.086c0.469,0.022,0.89,0.042,1.31,0.061
		c1.771,0.079,3.412,0.695,5.081,1.207c0.394,0.122,0.817,0.15,1.314,0.237c0-0.343,0-0.537,0-0.775
		c-1.314-0.396-2.58-0.863-3.887-1.141c-1.018-0.217-2.085-0.215-3.132-0.273C101.077,89.385,100.704,89.422,100.702,90.086z
		 M109.537,89.826c0.156-0.827-0.327-1.006-0.809-1.188c-1.767-0.667-3.546-1.289-5.541-1.404c-0.093,0.161-0.206,0.353-0.354,0.607
		c1.211,0.315,2.319,0.615,3.435,0.89C107.368,89.002,108.363,89.633,109.537,89.826z M83.278,105.163
		c0.087,0.006,0.176,0.012,0.264,0.018c0.083-0.213,0.239-0.425,0.238-0.636c-0.006-1.268,0.079-2.558-0.125-3.796
		c-0.124-0.74-0.676-1.434-1.128-2.085c-0.223-0.322-0.599-0.664-1.1-0.435c-0.25,0.424,0.054,0.611,0.287,0.841
		c0.757,0.745,1.184,1.668,1.312,2.706c0.098,0.793,0.089,1.599,0.138,2.397C83.186,104.503,83.239,104.833,83.278,105.163z
		 M94.096,87.434c0.284,0.11,0.41,0.201,0.539,0.202c1.577,0.019,3.1,0.323,4.602,0.792c0.334,0.105,0.729,0.016,1.198,0.016
		C99.519,87.093,95.632,86.495,94.096,87.434z M68.862,88.828c0.424-1.059,0.678-2.066,1.203-2.905
		c0.541-0.864,1.345-1.564,2.033-2.336c-0.551-0.33-0.555-0.336-1.003-0.04c-1.771,1.173-2.308,2.972-2.484,4.946
		C68.604,88.568,68.728,88.654,68.862,88.828z M91.405,86.926c-1.778-0.934-3.562-1.624-5.484-1.904
		c-0.096-0.014-0.216,0.136-0.513,0.335c2.074,0.807,3.979,1.549,5.871,2.284c0.11-0.214,0.166-0.276,0.169-0.34
		C91.455,87.196,91.427,87.089,91.405,86.926z M110.779,87.3c-1.296-0.932-2.717-1.279-4.13-1.613
		c-0.48-0.113-1.091-0.261-1.497,0.479c0.311,0.099,0.565,0.188,0.826,0.261c0.909,0.256,1.828,0.479,2.726,0.77
		c0.62,0.202,1.21,0.497,1.819,0.74c0.043,0.017,0.119-0.05,0.231-0.101C110.762,87.687,110.77,87.512,110.779,87.3z M85.629,83.682
		c0.438,0.739,0.982,0.446,1.396,0.562c0.455,0.128,0.928,0.197,1.38,0.332c0.489,0.146,0.958,0.359,1.445,0.507
		c0.429,0.131,0.87,0.213,1.295,0.313c0.07-0.212,0.114-0.281,0.109-0.347c-0.006-0.105-0.045-0.208-0.079-0.351
		C89.454,84.017,87.771,83.118,85.629,83.682z M74.332,94.215c-0.08,0.728,0.504,0.818,0.864,1.063
		c1.047,0.715,2.019,1.463,2.113,2.88c0.008,0.129,0.2,0.247,0.333,0.399c0.746-0.724,0.237-1.367-0.023-1.938
		C77.044,95.364,75.414,94.199,74.332,94.215z M79.294,99.379c0.397,0.932,0.804,1.803,1.143,2.698
		c0.324,0.857,0.064,1.9,0.849,2.652c0.116-0.527,0.149-1.049,0.109-1.565c-0.087-1.125-0.245-2.236-0.871-3.221
		C80.236,99.491,79.912,99.168,79.294,99.379z M79.492,107.038c0.102,1.941-0.924,3.446-2.11,5.021c0.301,0,0.471,0.054,0.555-0.008
		c1.445-1.086,2.078-2.654,2.462-4.335C80.513,107.21,80.223,107.042,79.492,107.038z M76.085,107.279
		c0.25,2.077-0.265,3.812-1.453,5.468c0.322,0.018,0.594,0.097,0.643,0.025c0.485-0.715,1.048-1.408,1.367-2.196
		C77.303,108.942,77.129,107.938,76.085,107.279z M74.826,87.714c-0.035-0.091-0.069-0.182-0.105-0.272
		c-0.223,0.03-0.516-0.022-0.656,0.101c-1.039,0.911-2.091,1.832-2.546,3.2c-0.218,0.655-0.375,1.336-0.207,2.187
		c0.52-1.068,0.87-2.05,1.438-2.884C73.331,89.193,74.125,88.485,74.826,87.714z M67.311,88.608
		c0.088-2.056,0.919-3.783,1.883-5.491c-0.294-0.155-0.441-0.233-0.577-0.306C67.171,84.428,66.461,87.416,67.311,88.608z
		 M91.023,82.866c0.067-0.457-0.172-0.674-0.59-0.72c-1.402-0.154-2.807-0.304-4.21-0.433c-0.14-0.012-0.293,0.133-0.475,0.221
		C86.455,82.458,89.904,83.048,91.023,82.866z M72.614,95.615c0.599,0.689,1.122,1.172,1.492,1.752
		c0.383,0.601,0.618,1.297,0.942,2.007c0.168-0.024,0.361-0.052,0.558-0.081C75.166,96.875,74.193,95.55,72.614,95.615z
		 M98.254,89.229c-0.605-0.182-1.149-0.41-1.716-0.497c-0.638-0.099-1.296-0.099-1.942-0.086c-0.411,0.008-0.772,0.167-0.759,0.629
		c1.503,0.224,2.972,0.444,4.552,0.68C98.321,89.592,98.284,89.396,98.254,89.229z M79.096,80.612
		c0.008-0.086,0.014-0.171,0.021-0.258c-0.282-0.041-0.609-0.195-0.842-0.105c-1.193,0.462-2.313,1.064-3.075,2.148
		c-0.079,0.112-0.012,0.328-0.012,0.447C76.542,82.071,77.819,81.342,79.096,80.612z M86.013,79.908
		c1.484,0.153,2.966,0.307,4.478,0.463c0.082-0.656-0.326-0.787-0.712-0.854C88.487,79.295,87.176,78.929,86.013,79.908z
		 M106.618,84.193c0.342,0.768,0.972,0.696,1.425,0.907c0.459,0.213,0.945,0.365,1.413,0.559c0.476,0.197,0.944,0.413,1.538,0.675
		c-0.027-0.39-0.043-0.592-0.057-0.792C109.619,84.76,108.338,84.028,106.618,84.193z M72.529,99.472
		c0.044-1.024-0.078-1.989-0.428-2.912c-0.252-0.666-0.577-0.829-1.436-0.74c0.89,1.144,1.044,2.459,1.18,3.781
		c0.002,0.023,0.054,0.04,0.156,0.113C72.14,99.65,72.319,99.568,72.529,99.472z M73.795,86.573
		c-0.038-0.094-0.076-0.188-0.115-0.282c-0.185-0.067-0.449-0.248-0.541-0.184c-0.526,0.371-1.159,0.709-1.475,1.23
		c-0.435,0.722-0.629,1.592-0.9,2.407c-0.036,0.11,0.074,0.269,0.115,0.405c0.1-0.035,0.199-0.069,0.299-0.104
		C71.62,88.567,72.424,87.359,73.795,86.573z M77.017,77.527c-0.393-0.112-0.551-0.217-0.644-0.174
		c-1.459,0.659-2.887,1.369-3.629,2.915c-0.042,0.085,0.049,0.233,0.06,0.279C74.171,79.566,75.497,78.616,77.017,77.527z
		 M73.589,107.534c-0.322,1.298-0.466,2.576-0.479,3.868c-0.003,0.308,0.146,0.562,0.604,0.445c0.203-1.39,0.408-2.795,0.623-4.257
		C74.023,107.566,73.859,107.554,73.589,107.534z M71.139,111.91c0.145-0.268,0.249-0.382,0.266-0.507
		c0.122-0.935,0.252-1.87,0.325-2.809c0.031-0.38,0.188-0.907-0.541-0.991c-0.543,1.176-0.496,2.411-0.468,3.635
		C70.725,111.427,70.945,111.611,71.139,111.91z M64.826,87.017c0.074-0.021,0.149-0.042,0.224-0.062
		c0-0.42-0.077-0.858,0.016-1.257c0.223-0.947,0.506-1.882,0.805-2.81c0.134-0.413,0.272-0.764-0.355-0.949
		c-0.726,1.392-1.13,2.831-0.995,4.389C64.541,86.565,64.721,86.788,64.826,87.017z M68.611,107.282
		c-1.004,0.504-1.1,0.872-0.793,2.729c0.082,0.505,0.058,1.159,0.793,1.208C68.611,109.917,68.611,108.673,68.611,107.282z
		 M79.252,83.07c-1.95,0.365-3.297,1.416-3.22,2.462c1.179-0.648,2.361-1.301,3.585-1.975C79.49,83.39,79.364,83.222,79.252,83.07z
		 M107.832,82.592c-0.032,0.094-0.062,0.187-0.094,0.28c1.352,0.671,2.702,1.341,4.082,2.025c0.201-0.552-0.021-0.815-0.371-0.99
		C110.292,83.326,109.287,82.278,107.832,82.592z M76.907,100.38c0.238,1.071,0.463,2.082,0.687,3.092
		c0.03,0.142,0.013,0.316,0.09,0.421c0.103,0.138,0.276,0.222,0.463,0.361C78.537,101.924,78.049,100.471,76.907,100.38z
		 M96.916,84.743c0-0.368,0-0.569,0-0.75c-2.08-1.297-3.117-1.601-3.913-1.069C94.284,83.52,95.516,84.092,96.916,84.743z
		 M66.139,111.209c-0.23-1.376-0.451-2.683-0.671-3.989c-1.021,0.9-0.498,1.892-0.327,2.817
		C65.232,110.525,65.351,111.183,66.139,111.209z M85.114,77.298c2.308,0.128,3.375-0.013,4.138-0.517
		c-0.091-0.447-0.426-0.403-0.758-0.383C87.364,76.467,86.228,76.507,85.114,77.298z M121.637,112.115
		c-0.561-0.675-1.126-0.361-1.659-0.183c-1.046,0.35-1.848,1.011-2.095,1.762C119.149,113.162,120.346,112.659,121.637,112.115z
		 M69.617,99.517c0.136-0.028,0.271-0.056,0.405-0.083c-0.052-0.887-0.08-1.775-0.171-2.658c-0.023-0.224-0.204-0.473-0.384-0.629
		c-0.295-0.259-0.594-0.248-0.772,0.252C69.422,97.266,68.954,98.579,69.617,99.517z M62.669,107.034
		c-0.82,0.379-0.595,1.069-0.52,1.55c0.133,0.863,0.131,1.86,1.118,2.463C63.059,109.651,62.868,108.373,62.669,107.034z
		 M97.096,91.137c-1.106-0.045-2.175-0.522-3.285,0.151c0.584,0.52,2.081,0.732,3.285,0.523
		C97.096,91.624,97.096,91.427,97.096,91.137z M96.938,82.107c-0.26-0.427-0.347-0.764-0.558-0.887
		c-0.831-0.479-1.743-0.71-2.71-0.579c-0.151,0.021-0.279,0.217-0.478,0.38C94.412,81.375,95.512,81.694,96.938,82.107z
		 M71.957,117.072c-0.287-0.498-0.582-0.979-0.845-1.478c-0.265-0.503-0.018-1.232-0.697-1.637c-0.75,0.756-0.205,1.439,0.057,2.078
		C70.795,116.827,71.303,117.134,71.957,117.072z M83.825,75.015c1.307-0.394,2.5-0.754,3.751-1.131
		c-0.592-0.516-1.001-0.627-1.929-0.237C84.992,73.923,84.096,73.998,83.825,75.015z M68.527,104.825
		c-0.332-1.275,0.408-2.392,0.014-3.662c-0.856,0.325-0.696,1.02-0.739,1.578C67.689,104.182,67.729,104.263,68.527,104.825z
		 M96.586,79.55c-0.222-0.955-0.774-1.103-1.311-1.144c-0.735-0.057-1.508-0.578-2.396,0.167
		C94.165,78.912,95.295,79.209,96.586,79.55z M61.551,103.73c0.132-1.294,0.244-2.39,0.361-3.548
		c-0.588-0.238-0.873,0.195-0.901,0.66c-0.053,0.822,0.037,1.653,0.094,2.479C61.112,103.417,61.295,103.501,61.551,103.73z
		 M139.227,91.419c0.152-1.361-0.83-2.971-1.872-3.249c-0.119-0.032-0.286,0.113-0.363,0.147
		C137.729,89.339,138.428,90.31,139.227,91.419z M66.863,90.841c-0.134,1.251-0.699,2.382,0.362,3.537
		c0.14-1.217,0.26-2.265,0.389-3.384C67.416,90.954,67.222,90.913,66.863,90.841z M73.45,117.41c0.05-0.061,0.101-0.123,0.151-0.184
		c-0.215-0.855-0.411-1.716-0.656-2.563c-0.093-0.321-0.311-0.593-0.785-0.364c-0.255,0.901,0.287,1.632,0.635,2.392
		C72.924,116.971,73.227,117.172,73.45,117.41z M117.163,111.5c1.164-0.03,2.233-0.361,3.294-0.855
		c-0.21-0.215-0.441-0.392-0.623-0.351C118.875,110.509,117.908,110.732,117.163,111.5z M95.492,76.321
		c-0.685-0.848-1.549-0.575-2.266-0.75c-0.385-0.093-0.832-0.242-1.283,0.358C93.17,76.025,94.152,76.878,95.492,76.321z
		 M65.926,104.542c0.42-2.045,0.418-2.296-0.074-3.23c-0.156,0.24-0.371,0.421-0.381,0.614c-0.043,0.817-0.031,1.638-0.012,2.457
		C65.459,104.428,65.703,104.468,65.926,104.542z M65.005,93.56c0.106-1.097,0.198-2.069,0.293-3.055
		c-0.206-0.014-0.313-0.034-0.416-0.022c-0.065,0.008-0.125,0.065-0.187,0.102C64.124,92.065,64.182,92.878,65.005,93.56z
		 M99.325,82.908c1.441,0.884,2.426,1.285,3.057,1.247C101.845,83.011,100.432,82.435,99.325,82.908z M62.744,90.028
		c-0.883,0.256-1.005,0.552-0.851,1.723c0.107,0.832,0.391,1.177,0.851,1.169C62.744,91.99,62.744,91.066,62.744,90.028z
		 M66.895,99.256c1.116-0.873,1.08-2.186-0.02-3.144C66.585,97.201,67.109,98.146,66.895,99.256z M85.03,71.54
		c-1.169-0.598-2.513-0.258-2.805,0.79C83.069,71.821,84.161,72.299,85.03,71.54z M74.123,101.484
		c0.142,0.945,0.269,1.817,0.417,2.687c0.006,0.039,0.191,0.048,0.289,0.07C75.457,102.81,75.272,101.927,74.123,101.484z
		 M96.902,74.396c1.13-0.196,2.088,0.172,3.139-0.13C99.177,73.353,97.849,73.377,96.902,74.396z M118.615,81.987
		c0.628,0.18,1.12,0.299,1.594,0.464c0.441,0.154,0.863,0.359,1.473,0.618c-0.229-1.034-0.913-1.19-1.506-1.322
		C119.729,81.648,119.164,81.219,118.615,81.987z M70.401,104.482c0.614-1.226,0.496-2.461-0.274-2.913
		c-0.432,0.8-0.041,1.628-0.091,2.426C70.027,104.139,70.257,104.298,70.401,104.482z M112.525,82.062
		c-0.65-0.911-1.435-1.238-2.17-1.603c-0.146-0.073-0.412,0.093-0.815,0.199C110.483,81.365,111.15,82.118,112.525,82.062z
		 M93.894,93.608c1.038,0.199,1.897,0.363,2.921,0.56c-0.115-0.396-0.171-0.585-0.224-0.769c-0.826-0.168-1.599-0.326-2.413-0.492
		C94.103,93.095,94.04,93.247,93.894,93.608z M59.458,99.552c-0.776,1.022-0.721,2.429,0.08,2.907
		C59.551,101.512,59.812,100.621,59.458,99.552z M130.522,92.368c0.476,1.466,0.875,2.69,1.304,4.01
		C132.334,95.411,131.846,93.931,130.522,92.368z M72.534,104.657c0.795-1.347,0.616-2.408-0.321-2.66
		C72.343,102.818,72.055,103.664,72.534,104.657z M70.63,79.312c0.064,0.061,0.129,0.121,0.193,0.182
		c0.748-0.629,1.494-1.258,2.434-2.048c-0.574,0-0.869,0-1.154,0C71.534,78.023,70.812,78.468,70.63,79.312z M113.097,80.498
		c-0.11-0.193-0.139-0.323-0.216-0.365c-0.663-0.359-1.328-0.718-2.011-1.036c-0.117-0.056-0.322,0.079-0.575,0.151
		C111.104,80.084,111.797,80.835,113.097,80.498z M119.6,109.48c0.062-0.508-0.178-0.652-0.501-0.617
		c-0.81,0.085-1.685,0.012-2.294,0.685c0.017,0.087,0.033,0.175,0.052,0.261C117.777,109.698,118.698,109.588,119.6,109.48z
		 M63.955,101.293c-0.103-0.026-0.205-0.051-0.307-0.076c-0.656,0.556-0.791,1.279-0.619,2.144c0.178,0.136,0.369,0.282,0.588,0.448
		C63.738,102.909,63.847,102.101,63.955,101.293z M91.185,73.655c0.011,0.086,0.021,0.173,0.032,0.259
		c1.23,0.568,2.497,0.298,2.533-0.631C92.881,73.409,92.034,73.532,91.185,73.655z M68.393,116.034
		c-0.344-1.799-0.452-2.008-1.166-2.228C66.968,114.989,67.494,115.994,68.393,116.034z M102.14,81.369
		c-0.105-0.633-0.095-0.675-0.327-0.735c-0.694-0.181-1.377-0.654-2.255-0.167C100.391,81.062,101.217,81.301,102.14,81.369z
		 M103.843,80.841c0.587,0.61,1.958,1.15,2.792,1.099C106.299,81.203,104.922,80.661,103.843,80.841z M94.883,72.656
		c1.145,0,2.127,0,3.175,0C97.355,71.79,95.971,71.762,94.883,72.656z M113.866,83.293c0.822,0.064,1.559,0.121,2.41,0.187
		c-0.104-0.28-0.133-0.543-0.226-0.568c-0.548-0.15-1.106-0.296-1.67-0.341C113.993,82.54,113.68,82.738,113.866,83.293z
		 M63.395,82.602c-1.138,0.707-1.57,1.929-0.983,2.677c0.186-0.428,0.371-0.858,0.558-1.286
		C63.158,83.556,63.588,83.187,63.395,82.602z M77.841,74.751c1.227,0.221,1.979-0.021,2.551-0.764
		C79.616,73.74,78.554,74.032,77.841,74.751z M68.166,78.375c0.693-0.585,1.659-0.896,2.062-1.95
		C69.224,76.528,68.252,77.422,68.166,78.375z M116.188,107.946c1.026-0.114,1.834-0.203,2.687-0.298
		c-0.183-0.722-0.667-0.548-1.014-0.546C117.303,107.104,116.664,106.974,116.188,107.946z M137.138,91.272
		c0.201-1.462-0.547-2.255-1.615-1.935C136.023,89.938,136.508,90.518,137.138,91.272z M116.919,81.705
		c-1.723-0.824-1.942-0.847-2.405-0.287c0.753,0.288,1.504,0.574,2.318,0.884C116.864,82.086,116.888,81.922,116.919,81.705z
		 M136.319,93.327c0.025,0.894,0.602,2.146,1.154,2.504C137.618,94.834,137.067,93.639,136.319,93.327z M100.743,75.482
		c-0.769,0.409-1.562-0.355-2.286,0.453c1.019,0.108,1.855,0.597,2.787,0.437c0.058-0.085,0.115-0.17,0.174-0.256
		C101.196,75.908,100.975,75.701,100.743,75.482z M103.837,78.88c-0.024,0.084-0.05,0.168-0.074,0.252
		c0.895,0.315,1.788,0.63,2.878,1.015c-0.116-0.388-0.123-0.638-0.213-0.673C105.592,79.151,104.753,78.799,103.837,78.88z
		 M140.334,93.634c0.027,0.838,0.377,1.537,0.992,2.226C141.48,94.901,141.176,94.151,140.334,93.634z M64.966,96.348
		c-0.712,0.761-0.746,1.675-0.158,2.393C65.192,98.148,65.249,97.468,64.966,96.348z M62.864,96.311
		c-0.568,0.658-0.637,1.626-0.218,2.188C63.248,97.767,63.303,97.32,62.864,96.311z M99.348,78.262
		c0.907,0.199,1.671,0.633,2.512,0.094C101.174,77.792,99.971,77.713,99.348,78.262z M76.146,73.643
		c1.276,0.046,1.889-0.334,2.355-1.383C77.424,72.257,77.01,73.107,76.146,73.643z M132.992,92.425
		c0.18-0.996-0.324-1.968-1.27-2.64C131.808,90.854,132.459,91.469,132.992,92.425z M118.416,106.192
		c-0.675-0.524-1.363-0.37-2.146-0.247C117.065,106.689,117.607,106.745,118.416,106.192z M135.232,95.538
		c0.208,0.721,0.417,1.442,0.668,2.308C136.386,96.955,136.173,96.077,135.232,95.538z M75.29,72.632
		c-0.976-0.062-1.552,0.347-1.863,1.238C74.149,73.764,74.526,73.523,75.29,72.632z M139.185,100.037
		c0.104-0.013,0.206-0.026,0.31-0.038c0.026-0.757,0.062-1.515-0.245-2.286c-0.171,0.014-0.304,0.025-0.55,0.046
		C138.87,98.558,139.027,99.297,139.185,100.037z M137.957,93.37c0.359,0.703,0.379,1.599,1.208,2.01
		C139.085,94.525,138.771,93.801,137.957,93.37z M102.241,74.754c1.304,0.507,1.65,0.534,2.235,0.234
		C103.768,74.305,103.005,74.483,102.241,74.754z M60.55,90.483c-0.861,0.594-0.817,1.503,0,2.204
		C60.55,91.963,60.55,91.302,60.55,90.483z M134.228,89.837c0.315,0.579,0.605,1.113,0.909,1.669
		c0.61-0.346,0.407-0.727,0.188-1.046C135.094,90.13,134.987,89.534,134.228,89.837z M127.425,85.998
		c-0.385-0.574-1.542-0.96-2.188-0.729C125.882,85.814,126.553,86.138,127.425,85.998z M60.686,95.326
		c-0.769,1.067-0.801,1.455-0.262,2.069C60.831,96.803,60.746,96.185,60.686,95.326z M105.868,77.228
		c-1.216-0.742-1.683-0.813-2.262-0.375C104.296,77.102,104.912,77.455,105.868,77.228z M89.934,71.945
		c0.797,0.143,1.475,0.041,2.146-0.423C91.276,71.181,90.52,71.326,89.934,71.945z M132.134,85.76
		c0.319,0.898,0.932,1.335,1.668,1.25C133.459,86.284,132.74,86.09,132.134,85.76z M137.028,99.045
		c0.12,0.343,0.282,0.678,0.348,1.03c0.062,0.337,0.026,0.693,0.034,1.041C137.989,100.179,137.912,99.678,137.028,99.045z
		 M128.152,92.254c-0.092,0.052-0.184,0.104-0.275,0.156c0.403,0.728,0.544,1.593,1.104,2.238c0.093-0.046,0.184-0.092,0.274-0.138
		C128.888,93.758,128.52,93.006,128.152,92.254z M125.604,83.409c0.902,0.549,1.16,0.577,2.059,0.249
		C127.006,83.354,126.432,83.148,125.604,83.409z M126.479,88.72c0.127,1.03,0.495,1.428,1.586,1.673
		C127.476,89.77,127.038,89.309,126.479,88.72z M127.62,88.482c0.563,0.733,0.591,0.749,1.505,0.832
		C128.747,88.674,128.3,88.449,127.62,88.482z M129.535,86.983c-0.126,0.962,0.373,1.074,0.808,1.245
		c0.063-0.059,0.127-0.118,0.19-0.178C130.245,87.743,129.957,87.435,129.535,86.983z M136.488,102.807
		c-0.055-0.008-0.109-0.016-0.164-0.023c0,0.442,0,0.884,0,1.327c0.055-0.005,0.109-0.011,0.164-0.017
		C136.488,103.665,136.488,103.235,136.488,102.807z"/>
	<path fill-rule="evenodd" clip-rule="evenodd" fill="#ffc524" class="fill" d="M140.287,125.729c0.821,0.799,0.889,1.069,0.458,2.089
		c-0.794-0.345-1.077-1.527-2.269-1.367c-0.064,0.696-0.131,1.401-0.208,2.229c-0.69-0.642-1.229-1.142-1.893-1.757
		c-0.298,0.565-0.501,0.954-0.745,1.419c-0.568-0.787-1.088-1.505-1.66-2.299C136.073,125.938,138.117,125.836,140.287,125.729z"/>
	<path fill-rule="evenodd" clip-rule="evenodd" fill="#ffc524" class="fill" d="M139.683,122.981c0.787-0.646,1.573-1.292,2.431-1.995
		c0.467,0.409,0.856,0.752,1.287,1.13c-1.076,1.032-2.318,1.083-3.573,1.09C139.779,123.132,139.73,123.056,139.683,122.981z"/>
	<path fill-rule="evenodd" clip-rule="evenodd" fill="#ffc524" class="fill" d="M144.381,101.179c-0.057-0.638-0.236-1.13,0.267-1.527
		c0.577,0.333,0.569,0.881,0.618,1.487C144.992,101.152,144.729,101.164,144.381,101.179z"/>
	<path fill-rule="evenodd" clip-rule="evenodd" fill="#ffc524" class="fill" d="M126.942,103.059c-1.871,0.452-3.746-0.608-4.151-2.299
		c-0.217-0.909,0.146-1.422,1.062-1.46c0.848-0.035,1.691,0.021,2.403,0.55C127.158,100.518,127.425,101.78,126.942,103.059z
		 M125.97,100.331c-0.696-0.16-1.078,0.095-1.277,0.57c-0.284,0.683-0.076,1.27,0.55,1.804c0.296-0.044,0.638-0.096,1.043-0.157
		c0.107-0.514,0.199-0.96,0.285-1.374C126.333,100.841,126.147,100.58,125.97,100.331z"/>
</g>
</svg>
