<svg version="1.1" id="svg" xmlns="http://www.w3.org/2000/svg" xmlns:xlink="http://www.w3.org/1999/xlink" x="0px" y="0px"
	 width="200px" height="200px" viewBox="0 0 200 200" enable-background="new 0 0 200 200" xml:space="preserve">
<path class="stroke" fill="#693c11"  fill-rule="evenodd" clip-rule="evenodd" d="M158.718,59.191c-0.913-0.361-1.534-0.606-2.386-0.944
	c-3.704,3.806-7.369,7.794-11.28,11.525c-3.94,3.758-8.099,7.288-12.209,10.865c-4.104,3.571-8.266,7.076-12.554,10.74
	c-4.811,0.163-9.753,0.331-14.64,0.498c-1.316,1.522-2.501,2.893-3.716,4.298c-0.71-0.303-1.256-0.535-1.854-0.79
	c-0.868,0.863-0.83,1.954-0.844,3.244c1.306-0.113,2.551-0.279,3.799-0.318c4.463-0.14,8.927-0.29,13.391-0.329
	c2.624-0.023,5.249,0.169,7.874,0.246c6.512,0.189,12.918,1.186,19.287,2.485c0.479,0.099,0.959,0.219,1.444,0.262
	c4.1,0.364,6.578,2.402,7.767,6.33c1.605,5.301,1.916,10.667,1.311,16.172c-0.486,4.42-1.362,8.697-3.039,12.812
	c-1.066,2.617-2.514,4.998-4.102,7.103c-4.901-0.693-9.601-1.438-14.324-1.991c-2.119-0.249-4.288-0.224-6.425-0.127
	c-3.135,0.142-6.238,0.132-9.306-0.634c-0.398-0.099-0.842-0.013-1.043-0.013c-1.891,3.344-3.661,6.607-5.568,9.789
	c-0.969,1.618-2.171,3.099-3.293,4.623c-1.268,1.724-2.599,3.401-3.836,5.146c-1.083,1.527-2.358,2.763-4.049,3.64
	c-0.882,0.457-1.767,1.165-2.3,1.986c-1.247,1.924-3.246,2.945-5.642,1.467c-0.311-0.192-0.643-0.349-0.892-0.483
	c-1.109,0.716-2.164,1.396-3.516,2.269c-1.431,2.555-4.118,3.838-6.761,3.123c-3.276-0.886-4.25-2.211-4.388-6.315
	c-1.428-1.107-1.501-2.824-1.729-4.536c-0.637-4.811,0.184-9.52,0.866-14.239c0.358-2.484,0.797-4.958,1.182-7.439
	c0.064-0.416,0.044-0.844,0.073-1.484c-0.897-0.123-1.754-0.24-2.63-0.36c-1.343,3.792-1.921,7.526-2.548,11.257
	c-0.446,2.65-0.992,5.29-1.652,7.894c-0.475,1.869-1.037,2.461-2.721,3.836c-0.068,0.133-0.177,0.288-0.229,0.46
	c-1.406,4.647-5.067,5.986-9.385,6.026c-2.112,0.02-4.017-1.882-3.944-4.011c0.052-1.507,0.478-3,0.808-4.915
	c-0.683-1.599-0.425-3.597,0.07-5.682c1.046-4.403,1.899-8.852,2.824-13.284c0.059-0.285,0.054-0.582,0.087-0.979
	c-1.513-0.285-2.948-0.544-4.377-0.829c-0.719-0.143-1.437-0.309-2.141-0.512c-2.483-0.712-3.73-2.408-3.912-4.953
	c-0.039-0.545-0.156-1.086-0.246-1.627c-0.396-2.386,0.78-4.577,3.069-5.432c1.486-0.554,3.042-0.923,4.572-1.356
	c2.415-0.683,4.815-1.435,7.259-1.992c1.854-0.424,2.939-1.519,3.777-3.145c1.317-2.554,2.736-5.06,4.201-7.533
	c0.81-1.367,1.791-2.632,2.712-3.931c0.997-1.405,2.433-2.279,3.987-2.836c3.626-1.299,7.3-2.463,10.96-3.665
	c0.813-0.267,1.655-0.447,2.474-0.698c1.287-0.396,1.7-0.893,1.766-2.224c0.036-0.731-0.04-1.468-0.077-2.202
	c-0.135-2.728,0.753-5.025,2.744-6.935c1.144-1.097,2.166-2.321,3.323-3.576c0.112-4.121,0.225-8.277,0.35-12.857
	c2.442-3.924,5.15-8.145,7.72-12.448c1.943-3.255,3.643-6.655,5.57-9.921c2.519-4.27,5.139-8.48,8.314-12.315
	c1.327-1.603,2.602-3.253,3.821-4.939c0.374-0.516,0.514-1.213,0.709-1.844c0.812-2.614,2.767-4.156,4.926-5.66
	c1.733,1.827,3.938,2.294,5.914,3.201c4.065,1.865,8.056,3.811,11.421,6.875c2.077,1.891,4.427,3.479,6.557,5.318
	c3.77,3.253,7.07,6.957,9.966,11.004c1.549,2.164,1.378,3.843-0.545,5.708C160.694,57.88,159.684,58.475,158.718,59.191z
	 M107.848,148.479c0.589-0.575,1.083-0.887,1.337-1.334c1.383-2.444,3.057-4.801,3.956-7.42c1.003-2.917,1.273-6.084,1.881-9.139
	c0.381-1.912,0.767-3.823,1.222-5.717c0.102-0.421,0.505-0.771,0.83-1.24c0.605,0.321,1.07,0.568,1.508,0.8
	c0,0.857,0.143,1.619-0.025,2.304c-0.61,2.483-0.499,4.987-0.331,7.491c0.039,0.58,0.335,1.142,0.601,1.992
	c1.146-1.654,0.464-3.489,1.646-4.817c1.729,1.617-0.018,3.455,0.569,5.211c0.426,0.068,0.926,0.146,1.408,0.223
	c0.78-1.759,0.414-3.624,1.252-5.56c1.94,1.956,0.181,3.968,0.756,5.865c0.722,0.043,1.48,0.09,2.364,0.144
	c0.246-1.702,0.468-3.24,0.725-5.023c0.616,0.356,0.994,0.574,1.275,0.737c-0.122,1.573-0.228,2.954-0.349,4.512
	c0.932,0.076,1.678,0.137,2.584,0.21c0.395-1.762,0.748-3.339,1.146-5.117c0.484,0.327,0.809,0.546,1.246,0.84
	c-0.249,1.444-0.495,2.871-0.776,4.503c0.814,0.05,1.573,0.097,2.216,0.136c1.6-1.237,1.18-3.321,2.603-4.872
	c0.34,0.355,0.616,0.642,0.792,0.825c-0.465,1.61-0.831,2.875-1.237,4.281c1.082,0,1.986,0,2.92,0
	c0.923-1.057,1.232-2.366,1.506-3.69c0.135-0.647,0.225-1.332,1.312-1.358c0.491,1.827-0.533,3.351-0.858,5.064
	c0.896,0,1.708,0,2.521,0c0.559-1.267,1.059-2.4,1.607-3.644c1.577,1.147,0.258,2.367,0.371,3.496
	c1.08,0.042,1.383-0.674,1.583-1.35c0.745-2.518,1.496-5.036,2.125-7.583c1.656-6.721,1.307-13.479,0.199-20.231
	c-0.135-0.823-0.454-1.617-0.671-2.368c-0.471-0.107-0.766-0.182-1.064-0.242c-5.394-1.101-10.84-1.994-16.169-3.351
	c-6.398-1.629-12.881-2.323-19.435-2.603c-2.569-0.109-5.145-0.125-7.716-0.081c-2.25,0.038-4.497,0.221-6.062,0.303
	c-1.727,1.42-2.919,2.36-4.066,3.354c-1.292,1.119-2.553,2.272-3.807,3.435c-1.051,0.974-1.299,2.166-0.871,3.526
	c0.842,0.97,1.951,1.414,3.145,1.775c1.808,0.547,3.589,1.187,5.374,1.81c1.376,0.48,2.066,1.553,2.143,2.928
	c0.083,1.477-0.443,2.75-1.723,3.646c-3.818,2.673-10.639,2.012-13.069-0.101c-2.954-2.566-5.552-5.483-5.379-9.75
	c0.106-2.632,0.542-5.261,2.765-7.136c0.087-0.074,0.066-0.278,0.14-0.641c-2.287,0.606-4.445,1.053-6.513,1.762
	c-1.987,0.682-3.758,1.789-4.853,3.714c-1.358,2.391-2.791,4.741-4.079,7.169c-2.007,3.78-3.859,7.643-5.896,11.406
	c-1.126,2.08-1.776,4.284-2.277,6.555c-1.184,5.37-2.35,10.744-3.516,16.118c-0.095,0.438-0.132,0.889-0.196,1.333
	c0.569-0.341,0.816-0.821,1.165-1.208c1.2-1.336,3.991-1.404,5.355-0.115c1.368,1.294,2.248,2.887,2.679,4.723
	c0.143,0.607,0.282,1.217,0.423,1.824c0.157,0.003,0.314,0.007,0.471,0.009c0.674-2.392,1.405-4.768,2.005-7.178
	c0.562-2.254,0.903-4.562,1.488-6.808c0.815-3.135,1.7-6.256,2.687-9.341c0.594-1.856,1.423-3.64,2.178-5.442
	c0.289-0.691,0.697-1.309,1.603-1.329c0.365,0.297,0.736,0.609,1.119,0.908c1.218,0.947,1.684,2.261,1.6,3.72
	c-0.109,1.892-0.282,3.788-0.585,5.658c-0.657,4.045-1.551,8.057-2.085,12.117c-0.414,3.143-0.436,6.336-0.603,9.509
	c-0.016,0.292,0.181,0.596,0.375,1.182c0.381-0.693,0.572-1.133,0.844-1.518c0.562-0.794,1.092-1.63,1.767-2.321
	c1.902-1.952,3.968-1.988,5.971-0.109c1.695,1.589,2.818,3.524,3.208,5.849c0.133,0.792,0.291,1.581,0.438,2.371
	c0.132-0.005,0.264-0.01,0.396-0.017c0.988-4.026,0.911-8.185,1.27-12.285c0.362-4.144,0.682-8.296,0.853-12.452
	c0.169-4.124,0.13-8.256,0.184-12.481c0.805-0.177,1.43-0.314,2.216-0.487c0.214,0.75,0.51,1.314,0.512,1.878
	c0.008,2.08,0.032,4.171-0.159,6.237c-0.327,3.528-0.848,7.038-1.218,10.562c-0.254,2.42-0.317,4.852-0.071,7.316
	c1.042-0.117,1.948-0.305,2.854-0.305c2.623-0.001,3.951,1.497,3.647,4.082c-0.114,0.97-0.361,1.923-0.52,2.887
	c-0.049,0.296-0.008,0.607-0.008,0.912c0.13,0.022,0.26,0.045,0.389,0.068c1.325-3.319,2.252-6.755,3.013-10.264
	c0.778-3.59,1.845-7.139,1.905-10.831c0.059-3.576-0.148-7.155-0.239-10.701c1.514-0.213,1.514-0.213,2.911,1.12
	c0.109,1.244,0.337,2.7,0.342,4.156c0.01,3.364-0.11,6.728-0.132,10.093C106.771,145.153,107.062,146.701,107.848,148.479z
	 M77.888,168.559c1.136,0.582,2.106,1.268,3.185,1.592c2.211,0.664,4.108-0.642,4.652-2.876c0.634-2.61-0.123-5.1-0.515-7.621
	c-0.246-1.578-1.199-2.625-2.6-3.187c-1.505-0.002-2.329,0.802-2.891,1.999C78.255,161.581,77.939,164.892,77.888,168.559z
	 M55.769,164.645c3.398,1.504,6.028,0.64,6.976-2.26c0.565-1.729,0.9-3.545,1.192-5.346c0.401-2.474-0.729-4.344-2.538-5.905
	c-0.434,0-0.8-0.022-1.162,0.007c-0.354,0.029-0.702,0.112-1.09,0.179C57.579,155.667,55.252,159.772,55.769,164.645z
	 M56.049,124.981c-1.648,0.532-3.305,1.053-4.948,1.613c-0.272,0.092-0.513,0.331-0.723,0.545c-1.974,2.023-2.661,3.857-0.699,7.205
	c0.573,0.131,1.264,0.289,1.834,0.419C54.819,132.5,56.966,127.947,56.049,124.981z M92.644,156.037
	c-0.304,2.73-0.606,5.45-0.931,8.374c0.65,0.179,1.379,0.379,1.971,0.542c2.974-2.238,4.712-7.749,3.337-10.313
	C95.373,154.166,93.948,154.554,92.644,156.037z"/>
<path fill-rule="evenodd" clip-rule="evenodd" fill="#faf0e5" class="fill" d="M151.223,59.943c-3.467,3.414-6.785,6.757-10.188,10.013
	c-4.686,4.483-9.352,8.994-14.19,13.308c-2.409,2.146-5.152,3.929-7.817,5.771c-0.713,0.493-1.692,0.823-2.556,0.835
	c-3.549,0.051-7.1-0.074-10.65-0.074c-0.975,0-1.791-0.267-2.552-0.837c-1.321-0.988-2.656-1.959-4.217-3.108
	c-0.072-2.299,0.097-4.839-0.286-7.292c-0.543-3.469,0.986-6.138,2.69-8.826c3.045-4.801,6.085-9.604,9.165-14.384
	c2.387-3.703,4.702-7.462,7.289-11.023c2.331-3.209,4.986-6.181,7.617-9.401c2.073,1.42,4.067,2.706,5.974,4.109
	c3.893,2.863,7.759,5.765,11.599,8.701c3.4,2.602,6.409,5.533,7.559,9.87C150.845,58.305,150.999,59.012,151.223,59.943z
	 M122.155,49.225c-0.015-0.074-0.03-0.148-0.045-0.223c-1.664,0.274-3.435,0.275-4.97,0.878c-3.319,1.305-5.372,3.9-6.403,7.315
	c-0.764,2.531-1.375,5.091-0.99,7.747c0.628,4.333,3.168,7.396,6.901,9.389c5.878,3.139,11.875,3.013,17.741-0.079
	c2.425-1.278,3.988-3.339,4.523-6.135c0.514-2.68,0.544-5.35,0.107-8.027c-0.43-2.635-1.641-4.853-3.793-6.482
	c-0.973-0.735-2.01-1.387-3.026-2.064c-1.499-0.999-3.125-1.645-4.936-1.807C125.56,49.586,123.857,49.397,122.155,49.225z
	 M147.285,57.389c-0.393-2.225-0.31-2.347-1.426-3.491c-1.787-1.83-3.567-3.725-5.616-5.23c-3.437-2.527-7.067-4.793-10.652-7.115
	c-0.861-0.558-1.828-1.005-2.806-1.32c-1.162-0.374-1.865,0.162-2.091,1.361c-0.219,1.167,0.043,2.208,0.913,3.021
	c0.847,0.789,1.72,1.563,2.653,2.246c3.796,2.777,7.619,5.517,11.433,8.27c1.725,1.245,3.452,2.486,5.188,3.736
	C145.794,58.305,146.547,57.843,147.285,57.389z M100.289,76.641c3.872,5.577,9.645,8.509,15.696,11.48
	c0.33-0.72,0.619-1.354,0.841-1.839c-0.193-1.64-1.136-2.277-2.438-2.57c-0.83-0.188-1.662-0.38-2.474-0.632
	c-3.511-1.088-6.457-3.138-9.206-5.499C102.022,76.991,101.385,76.393,100.289,76.641z"/>
<path fill-rule="evenodd" clip-rule="evenodd" fill="#faf0e5" class="fill" d="M161.065,53.566c-0.943,1.317-1.628,2.276-2.429,3.395
	c-0.884-0.729-1.612-1.363-2.373-1.954c-4.727-3.672-9.459-7.336-14.192-11c-1.45-1.123-2.88-2.271-4.364-3.345
	c-2.52-1.823-5.042-3.646-7.626-5.376c-2.354-1.575-2.39-1.521-4.025-3.918c0.539-1.363,1.569-2.343,2.88-3.384
	c2.102,1.158,4.166,2.323,6.256,3.439c5.081,2.712,9.83,5.944,14.494,9.298c3.25,2.338,5.905,5.301,8.407,8.403
	c0.46,0.571,0.978,1.104,1.376,1.714C160.055,51.738,160.559,52.692,161.065,53.566z"/>
<path fill-rule="evenodd" clip-rule="evenodd" fill="#faf0e5" class="fill" d="M95.013,90.958c1.28,1.089,2.48,2.107,3.68,3.126
	c-0.277,1.389-0.62,2.688-0.778,4.008c-0.23,1.922-1.312,3.212-2.763,4.35c-1.533,1.203-2.992,2.499-4.469,3.771
	c-1.397,1.202-2.091,2.686-1.657,4.729c0.843,1.974,2.863,2.435,4.782,3.06c1.39,0.453,2.784,0.9,4.149,1.421
	c1.129,0.431,1.753,1.284,1.774,2.562c-0.793,2.216-2.678,2.709-4.697,2.769c-5.187,0.154-9.849-3.268-11.229-8.26
	c-0.25-0.902-0.269-2.013,0.021-2.889c0.777-2.349,2.019-4.425,4.221-5.8c1.128-0.705,2.228-1.49,3.219-2.374
	c1.407-1.256,1.987-2.8,1.625-4.777C92.503,94.539,92.819,92.515,95.013,90.958z"/>
<path fill-rule="evenodd" clip-rule="evenodd" fill="#faf0e5" class="fill" d="M103.354,90.555c-0.103,0.326-0.215,0.68-0.367,1.159
	c-1.264-0.314-2.42-0.616-3.584-0.887c-1.173-0.272-2.353-0.514-3.727-0.812c0.333-0.412,0.565-0.7,0.792-0.98
	C98.781,89.546,100.999,90.035,103.354,90.555z"/>
<path fill-rule="evenodd" clip-rule="evenodd" fill="#faf0e5" class="fill" d="M101.978,92.773c-0.364,0.524-0.623,0.896-0.997,1.434
	c-1.008-0.75-1.931-1.436-2.853-2.12c0.058-0.119,0.117-0.237,0.176-0.355C99.476,92.063,100.646,92.396,101.978,92.773z"/>
<path fill-rule="evenodd" clip-rule="evenodd" fill="#faf0e5" class="fill" d="M99.964,88.508c-0.688-0.091-1.378-0.183-2.333-0.31
	c0.359-0.499,0.566-0.786,0.881-1.224c0.594,0.465,1.082,0.847,1.569,1.228C100.043,88.305,100.003,88.406,99.964,88.508z"/>
<path fill-rule="evenodd" clip-rule="evenodd" fill="#faf0e5" class="fill" d="M127.458,60.951c0-1.619-0.021-3.307,0.009-4.993
	c0.014-0.857-0.105-1.596-1.249-2.014c-0.447,0.115-1.083,0.28-1.932,0.5c-0.287,2.302-0.571,4.58-0.855,6.858
	c-0.662-0.93-0.664-1.984-0.771-3.028c-0.107-1.059,0.333-2.235-0.58-3.132c-2.094-0.409-3.261,0.428-3.323,2.44
	c-0.032,1.038,0.085,2.079,0.118,3.119c0.018,0.596,0.003,1.191,0.003,2.092c-0.603-0.379-0.927-0.588-1.258-0.788
	c-0.469-0.283-0.916-0.622-1.417-0.824c-1.123-0.453-2.258-0.206-2.857,0.545c-0.6,0.753-0.561,1.879,0.218,2.878
	c1.016,1.303,2.104,2.55,3.157,3.823c1.112,1.343,1.247,2.83,0.685,4.564c-1.421-0.382-2.489-1.193-3.368-2.164
	c-2.183-2.411-3.497-5.193-2.983-8.546c0.258-1.688,0.597-3.375,1.057-5.019c0.633-2.261,2.105-4.01,3.906-5.434
	c0.57-0.451,1.421-0.615,2.172-0.759c3.106-0.591,6.223-0.333,9.317,0.1c1.007,0.141,2.017,0.488,2.943,0.919
	c1.105,0.514,2.133,1.199,3.173,1.845c2.735,1.698,4.352,4.19,4.554,7.365c0.139,2.174-0.106,4.393-0.38,6.565
	c-0.188,1.481-1.032,2.728-2.162,3.752c-1.723,1.563-3.783,2.426-6.323,3.16c0.226-1.026,0.339-1.836,0.584-2.604
	c0.619-1.942,1.734-3.618,2.902-5.267c0.955-1.348,1.932-2.706,2.092-4.428c0.055-0.583,0.009-1.177,0.009-1.929
	c-0.704-0.08-1.282-0.146-2.296-0.261c-0.358,0.486-0.821,1.116-1.283,1.745c-0.073-0.042-0.146-0.084-0.219-0.126
	c0.332-1.89,0.665-3.781,0.965-5.497c-0.644-1.387-1.549-1.317-2.548-0.93C128.073,57.06,128.279,59.262,127.458,60.951z"/>
<path fill-rule="evenodd" clip-rule="evenodd" fill="#faf0e5" class="fill" d="M120.356,64.525c0-2.576-0.007-5.132,0.012-7.688
	c0.002-0.225,0.176-0.449,0.271-0.675c0.162,0.074,0.324,0.148,0.486,0.221c0.28,2.18,0.561,4.361,0.858,6.672
	c0.841,0.157,1.508,0.282,2.28,0.426c1.096-2.643,0.727-5.395,1.551-7.896c0.644,2.359-0.045,4.678-0.105,6.945
	c1.649,0.958,2.236,0.823,2.891-0.732c0.377-0.897,0.589-1.864,0.886-2.795c0.22-0.687,0.458-1.368,0.876-2.019
	c0.359,1.247-0.259,2.371-0.463,3.543c-0.215,1.24-0.397,2.486-0.569,3.579c1.061,0.935,1.738,0.354,2.315-0.155
	c0.563-0.497,0.988-1.151,1.593-1.881c0.48,1.184,0.1,1.989-0.434,2.618c-2.547,2.997-4.186,6.436-5.035,10.297
	c-3.347,0.637-6.368,0.027-9.372-1.148c0.177-0.761,0.298-1.29,0.423-1.816c0.368-1.544-0.025-2.9-0.995-4.124
	c-0.95-1.198-1.896-2.398-2.828-3.61c-0.453-0.59-0.902-1.206-0.153-2.017c1.303,0.041,2.124,0.891,2.916,1.832
	C118.65,65.162,118.815,65.182,120.356,64.525z"/>
<path fill-rule="evenodd" clip-rule="evenodd" fill="#faf0e5" class="fill" d="M145.938,56.506c-0.76,0.249-1.154,0.378-1.651,0.541
	c-1.517-1.1-3.05-2.201-4.573-3.317c-3.498-2.562-7.003-5.112-10.476-7.708c-0.876-0.655-1.683-1.419-2.437-2.213
	c-0.495-0.521-0.959-1.165-0.228-2.145c0.709,0.301,1.53,0.519,2.209,0.958c3.693,2.389,7.422,4.733,10.991,7.298
	c1.872,1.345,3.472,3.079,5.127,4.705C145.337,55.053,145.525,55.733,145.938,56.506z"/>
</svg>
