<svg version="1.1" id="svg" xmlns="http://www.w3.org/2000/svg" xmlns:xlink="http://www.w3.org/1999/xlink" x="0px" y="0px"
	 width="200px" height="200px" viewBox="0 0 200 200" enable-background="new 0 0 200 200" xml:space="preserve">
<path class="stroke" fill="#492208"  fill-rule="evenodd" clip-rule="evenodd" d="M151.341,78.532c-0.553-4.188-1.807-8.142-3.812-11.838
	c-1.708-3.152-3.521-6.232-5.85-9.013c-2.286-2.731-5.053-4.843-7.971-6.772c-1.541-1.021-3.27-1.765-4.939-2.578
	c-1.389-0.675-2.799-1.314-4.232-1.888c-1.744-0.699-3.513-1.336-5.285-1.956c-1.214-0.425-2.443-0.816-3.686-1.146
	c-0.988-0.263-2.003-0.442-3.016-0.605c-2.186-0.352-4.37-0.869-6.568-0.948c-2.605-0.095-5.232,0.116-7.835,0.357
	c-1.533,0.141-3.085,0.458-4.547,0.941c-2.729,0.904-5.415,1.949-8.09,3.01c-1.007,0.399-1.949,0.979-2.891,1.526
	c-1.049,0.608-2.135,1.186-3.077,1.937c-1.544,1.229-3.058,2.516-4.45,3.91c-1.538,1.54-3.098,3.109-4.337,4.883
	c-1.768,2.529-3.269,5.247-4.847,7.907c-0.421,0.711-0.759,1.485-1.036,2.267c-0.483,1.363-0.973,2.735-1.307,4.139
	c-0.386,1.616-0.717,3.264-0.864,4.915c-0.153,1.728-0.153,3.481-0.055,5.215c0.108,1.888,0.233,3.806,1.343,5.466
	c0.246,0.37,0.436,0.777,0.658,1.181c-1.423,2.179-2.462,4.48-3.185,6.914c-0.738,2.488-0.455,4.991,0.069,7.499
	c-0.512,0.996-1.101,1.98-1.537,3.027c-0.695,1.67-1.027,3.43-1.324,5.222c-0.521,3.141-0.599,6.289-0.469,9.439
	c0.081,1.986,0.359,3.987,0.783,5.932c0.47,2.157,1.023,4.331,1.871,6.357c1.033,2.469,2.478,4.749,4.412,6.662
	c0.918,0.909,1.772,1.892,2.76,2.721c0.728,0.612,1.666,0.967,2.432,1.539c2.15,1.608,4.772,2.08,7.175,3.076
	c0.087,0.035,0.187,0.047,0.28,0.056c1.463,0.136,2.923,0.348,4.387,0.382c1.603,0.039,3.205-0.227,4.633-0.974
	c1.558-0.813,3.033-1.79,4.536-2.708c0.618-0.379,1.216-0.795,1.869-1.225c1.584,3.335,4.212,5.542,7.285,7.527
	c0.009,0.006,0.018,0.006,0.026,0.012c0.019,0.014,0.037,0.028,0.055,0.043c0.006,0.002,0.012,0.006,0.016,0.009v0.002
	c0.598,0.452,1.189,0.926,1.834,1.311c0.641,0.383,1.33,0.572,2.028,0.812c0.059,0.02,0.102,0.051,0.139,0.087
	c0.803,0.187,1.536,0.422,2.28,0.478c1.61,0.118,3.231,0.094,4.847,0.183c2.893,0.161,5.546-0.646,7.978-2.107
	c1.684-1.014,3.254-2.225,4.825-3.414c2.639-1.999,4.681-4.53,6.419-7.333c1.314-2.119,2.413-4.317,3.17-6.71
	c0.728-2.297,1.588-4.558,1.745-6.981c0.095-1.465,0.017-2.94,0.017-4.416c2.188-1.707,3.705-3.806,4.7-6.347
	c0.941-2.405,1.396-4.891,1.66-7.427c0.16-1.537,0.204-3.088,0.3-4.617c0.198-0.174,0.391-0.319,0.555-0.49
	c2.363-2.458,3.985-5.425,5.505-8.416c0.842-1.656,1.39-3.497,1.831-5.312C151.49,86.404,151.864,82.503,151.341,78.532z
	 M65.983,98.51c-0.966-1.27,0.14-5.767,1.707-6.697c0.508,1.611,1.008,3.193,1.52,4.811C68.157,97.238,67.092,97.861,65.983,98.51z
	 M136.822,107.656c-0.41,1.338-0.892,2.657-1.4,3.961c-0.379,0.969-0.847,1.901-1.28,2.863c-0.944-1.337-1.795-2.539-2.679-3.792
	c0.788-1.955,3.687-4.715,5.082-4.739C137.076,106.433,136.997,107.087,136.822,107.656z M137.26,85.903
	c-0.105,2.365-0.106,4.755-0.81,7.061c-0.173,0.564-0.199,1.174-0.366,1.741c-0.539,1.817-1.11,3.624-1.592,5.186
	c-3.436,1.539-5.988,3.681-8.186,6.287c-2.197-1.499-4.533-2.462-6.962-3.165c-1.538-0.444-3.139-0.454-4.747-0.165
	c-1.837,0.33-3.54,1.043-5.296,1.611c-1.911,0.621-3.408,1.853-5.067,2.861c-1.724,1.046-3.155,2.385-4.43,3.904
	c-0.732,0.871-1.335,1.854-1.992,2.787c-0.082,0.116-0.142,0.248-0.212,0.373c-0.069-0.027-0.138-0.055-0.206-0.083
	c-0.151-0.606-0.289-1.217-0.455-1.819c-0.758-2.767-1.328-5.607-2.347-8.274c-1.029-2.699-2.327-5.389-4.511-7.369
	c-1.308-1.188-2.966-2.019-4.543-2.868c-0.698-0.376-1.575-0.47-2.388-0.575c-1.281-0.166-2.584-0.376-3.862-0.304
	c-1.174,0.066-2.331,0.468-3.49,0.746c-0.99,0.236-1.973,0.506-2.96,0.761c-0.9-1.767-1.242-3.599-0.927-5.552
	c0.522-3.231,1.123-6.443,2.546-9.428c1.251-2.622,2.391-5.314,3.854-7.813c1.453-2.483,3.19-4.81,4.907-7.126
	c2.381-3.213,5.526-5.63,8.69-8.01c3.316-2.494,6.952-4.371,10.991-5.351c2.143-0.519,4.345-0.805,6.526-1.149
	c0.916-0.146,1.85-0.214,2.777-0.247c1.917-0.068,3.755,0.407,5.558,0.98c3.194,1.018,6.052,2.632,8.476,4.976
	c0.992,0.959,2.143,1.795,2.958,2.883c1.234,1.648,2.278,3.445,3.323,5.224c0.746,1.267,1.409,2.588,2.019,3.928
	c0.39,0.859,0.653,1.783,0.909,2.694c0.405,1.442,0.864,2.882,1.102,4.354c0.302,1.874,0.456,3.776,0.581,5.673
	C137.244,82.386,137.338,84.151,137.26,85.903z"/>
<path fill-rule="evenodd" clip-rule="evenodd" fill="#f4751a" class="fill" d="M115.201,150.094c-2.193-0.084-4.361-0.29-6.333-1.396
	c-0.143-0.081-0.33-0.155-0.398-0.285c-0.815-1.552-2.083-2.888-2.327-4.715c-0.34-2.524-0.679-5.046-0.109-7.593
	c0.482-2.161,0.723-4.395,1.396-6.49c0.584-1.812,1.537-3.528,2.493-5.191c0.899-1.563,2-3.015,3.046-4.492
	c0.77-1.088,1.548-2.176,2.406-3.193c1.026-1.219,2.067-2.443,3.238-3.518c1.526-1.403,3.497-1.789,5.499-1.952
	c1.274-0.102,2.534-0.444,3.832-0.045c1.218,0.375,2.217,0.96,2.813,2.134c0.579,1.141,1.35,2.21,1.749,3.406
	c0.447,1.335,0.72,2.769,0.802,4.176c0.114,1.911,0.078,3.844-0.076,5.752c-0.206,2.539-0.686,5.028-1.509,7.467
	c-0.729,2.157-2.171,3.838-3.369,5.681c-1.063,1.633-2.257,3.184-3.421,4.749c-1.205,1.621-2.659,3.009-4.352,4.099
	C118.962,149.729,117.125,150.101,115.201,150.094z"/>
<path fill-rule="evenodd" clip-rule="evenodd" fill="#f4751a" class="fill" d="M69.375,117.912c0-1.595-0.047-3.19,0.009-4.784
	c0.121-3.389,0.294-6.773,1.539-9.998c0.634-1.642,1.511-3.145,2.635-4.476c1.172-1.388,2.827-1.992,4.552-2.346
	c2.315-0.478,4.597-0.45,6.87,0.39c3.208,1.184,5.185,3.577,6.722,6.466c1.403,2.636,2.371,5.452,2.991,8.344
	c0.444,2.071,0.53,4.222,0.423,6.385c-0.115,2.351-1.236,4.373-1.724,6.585c-0.339,1.53-0.558,3.095-0.711,4.656
	c-0.23,2.303-0.364,4.615-0.515,6.925c-0.021,0.324,0.152,0.662,0.121,0.983c-0.066,0.691,0.008,1.538-0.36,2.032
	c-0.901,1.206-1.941,2.342-3.075,3.338c-1.675,1.471-3.718,1.501-5.798,1.091c-0.162-0.032-0.33-0.081-0.494-0.075
	c-2.185,0.064-3.824-1.137-5.567-2.233c-3.219-2.025-4.191-5.319-5.115-8.632c-0.723-2.592-1.277-5.232-1.822-7.869
	c-0.217-1.044-0.217-2.135-0.3-3.204c-0.093-1.191-0.168-2.383-0.252-3.573C69.459,117.914,69.417,117.913,69.375,117.912z
	 M83.775,135.681c3.023-0.012,5.072-1.131,6.239-3.611c0.461-0.981,0.717-2.056,1.107-3.072c0.896-2.322,0.951-4.771,1.069-7.201
	c0.13-2.666,0.093-5.325-0.605-7.941c-0.337-1.266-0.367-2.629-0.813-3.846c-0.798-2.173-1.583-4.331-3.381-6.037
	c-1.667-1.583-3.536-1.699-5.548-1.524c-0.664,0.058-1.347,0.354-1.938,0.688c-2.171,1.223-3.431,3.15-4.097,5.514
	c-0.881,3.125-1.527,6.294-1.514,9.549c0.008,1.85,0.086,3.731,0.429,5.544c0.364,1.945,0.933,3.883,1.687,5.712
	c0.509,1.233,1.053,2.549,2.146,3.471c0.438,0.37,0.85,0.772,1.301,1.124C81.103,135.02,82.413,135.838,83.775,135.681z"/>
<path fill-rule="evenodd" clip-rule="evenodd" fill="#f4751a" class="fill" d="M67.146,86.795c-0.307,0.26-0.645,0.546-1.147,0.973
	c-0.2-1.245-0.425-2.307-0.53-3.38c-0.291-2.986,0.162-5.902,0.878-8.798c0.632-2.564,1.648-4.957,2.777-7.341
	c1.22-2.577,2.486-5.105,4.152-7.418c1.593-2.212,3.284-4.348,5.334-6.161c1.517-1.342,3.063-2.648,4.62-3.943
	c1.853-1.541,3.95-2.67,6.222-3.45c2.429-0.835,4.84-1.853,7.347-2.304c2.187-0.393,4.476-0.48,6.753-0.205
	c2.425,0.291,4.888,0.271,7.316,0.546c1.575,0.179,3.108,0.694,4.676,0.968c2.694,0.471,5.119,1.658,7.597,2.721
	c3.162,1.353,5.8,3.449,8.4,5.648c1.717,1.451,2.771,3.344,4.048,5.102c2.356,3.242,3.667,6.931,4.591,10.762
	c0.434,1.795,0.6,3.662,0.794,5.504c0.234,2.23,0.484,4.468,0.522,6.704c0.059,3.573-0.049,7.137-1.02,10.638
	c-0.432,1.552-0.615,3.175-1.332,4.648c-0.302,0.619-0.595,1.243-0.916,1.915c-0.433-0.149-0.849-0.291-1.233-0.424
	c0.402-1.214,0.83-2.35,1.155-3.513c0.722-2.592,0.961-5.257,1.128-7.931c0.06-0.949,0.219-1.893,0.284-2.842
	c0.197-2.823-0.086-5.619-0.479-8.415c-0.459-3.245-1.073-6.444-2.22-9.525c-1.61-4.329-3.896-8.214-7.27-11.435
	c-1.903-1.817-3.729-3.726-6.105-4.936c-1.525-0.775-3.113-1.429-4.674-2.137c-2.937-1.336-6.079-1.943-9.235-2.36
	c-1.867-0.248-3.792-0.039-5.688-0.087c-2.986-0.078-5.889,0.468-8.755,1.2c-1.397,0.358-2.731,0.959-4.109,1.399
	c-3.808,1.219-6.828,3.67-9.692,6.306c-1.99,1.834-3.888,3.788-5.658,5.835c-1.234,1.424-2.267,3.046-3.235,4.671
	c-0.973,1.631-1.917,3.316-2.577,5.088c-0.909,2.447-1.629,4.977-2.256,7.513c-0.401,1.624-0.572,3.319-0.686,4.993
	C66.847,84.429,67.056,85.553,67.146,86.795z"/>
<path fill-rule="evenodd" clip-rule="evenodd" fill="#f4751a" class="fill" d="M67.01,139.526c-3.058-2.981-5.077-6.372-6.116-10.291
	c-0.437-1.645-0.529-3.39-0.669-5.099c-0.149-1.829-0.234-3.667-0.234-5.501c0-3.188,0.599-6.297,1.41-9.371
	c0.548-2.071,1.502-3.946,2.63-5.745c0.076-0.121,0.175-0.228,0.273-0.332c0.078-0.083,0.172-0.151,0.26-0.226
	c0.055,0.042,0.11,0.082,0.167,0.125c-0.236,0.331-0.471,0.663-0.653,0.921c-0.041,0.424-0.041,0.793-0.117,1.146
	c-0.558,2.579-1.392,5.13-1.633,7.738c-0.285,3.075-0.144,6.201-0.04,9.3c0.106,3.178,0.797,6.27,1.58,9.352
	c0.635,2.503,1.724,4.78,2.932,7.024c0.079,0.146,0.153,0.298,0.205,0.454C67.032,139.105,67.01,139.206,67.01,139.526z"/>
<path fill-rule="evenodd" clip-rule="evenodd" fill="#f4751a" class="fill" d="M103.362,112.049c0.263-0.284,0.562-0.609,0.833-0.901
	c3.112,0.207,6.023,0.749,8.675,2.729c-0.38,0.438-0.705,0.811-1.033,1.187C108.984,114.049,106.201,113.059,103.362,112.049z"/>
<path fill-rule="evenodd" clip-rule="evenodd" fill="#f4751a" class="fill" d="M108.991,118.428c-0.242,0.28-0.517,0.596-0.812,0.937
	c-2.727-0.88-5.396-1.741-8.195-2.643c0.273-0.42,0.522-0.803,0.746-1.146C103.672,115.473,108.583,117.14,108.991,118.428z"/>
<path fill-rule="evenodd" clip-rule="evenodd" fill="#f4751a" class="fill" d="M106.408,122.868c-0.264,0.521-0.432,0.851-0.643,1.267
	c-2.83-0.384-5.421-1.346-8.077-2.48c0.093-0.391,0.175-0.74,0.282-1.197C100.828,121.179,103.646,121.715,106.408,122.868z"/>
<path fill-rule="evenodd" clip-rule="evenodd" fill="#f4751a" class="fill" d="M95.355,135.465c0-0.692,0-1.298,0-1.907
	c2.303,1.035,4.539,2.039,6.854,3.079c0,0.374,0,0.867,0,1.496C99.8,137.432,97.47,136.759,95.355,135.465z"/>
<path fill-rule="evenodd" clip-rule="evenodd" fill="#f4751a" class="fill" d="M102.193,139.504c0.038,0.544,0.068,0.969,0.109,1.552
	c-2.488-0.391-4.783-1.179-6.947-2.395c-0.059-0.53-0.111-1.015-0.173-1.574C97.58,137.913,99.883,138.707,102.193,139.504z"/>
<path fill-rule="evenodd" clip-rule="evenodd" fill="#f4751a" class="fill" d="M98.513,119.174c0.215-0.425,0.371-0.731,0.557-1.096
	c2.946,0.394,5.636,1.466,8.484,2.372c-0.259,0.464-0.448,0.806-0.629,1.129C104.119,120.776,101.36,119.989,98.513,119.174z"/>
<path fill-rule="evenodd" clip-rule="evenodd" fill="#f4751a" class="fill" d="M95.527,131.882c0.094-0.373,0.165-0.662,0.259-1.034
	c2.316,0.894,4.55,1.755,6.854,2.645c-0.06,0.533-0.115,1.044-0.192,1.74C99.895,134.535,97.7,133.339,95.527,131.882z"/>
<path fill-rule="evenodd" clip-rule="evenodd" fill="#f4751a" class="fill" d="M105.044,125.44c-0.179,0.532-0.334,1-0.531,1.593
	c-2.524-0.942-5.011-1.869-7.565-2.821c0.092-0.443,0.161-0.779,0.24-1.159C99.827,123.854,102.402,124.638,105.044,125.44z"/>
<path fill-rule="evenodd" clip-rule="evenodd" fill="#f4751a" class="fill" d="M105.551,109.983c0.831-1.268,1.975-1.062,2.92-0.784
	c1.563,0.458,3.062,1.15,4.563,1.803c0.643,0.279,1.221,0.707,1.933,1.127c-0.45,0.393-0.798,0.692-1.11,0.962
	C111.42,111.078,108.566,110.422,105.551,109.983z"/>
<path fill-rule="evenodd" clip-rule="evenodd" fill="#f4751a" class="fill" d="M111.748,106.206c0.889-0.487,1.802-0.788,2.742-0.365
	c1.691,0.759,3.358,1.572,5.026,2.379c0.245,0.118,0.444,0.328,0.742,0.555c-0.65,0.341-1.215,0.637-1.784,0.934
	C116.453,108.056,114.18,107.01,111.748,106.206z"/>
<path fill-rule="evenodd" clip-rule="evenodd" fill="#f4751a" class="fill" d="M108.391,107.854c0.768-0.823,1.644-0.543,2.379-0.451
	c2.274,0.286,4.255,1.325,6.065,2.698c0.094,0.071,0.188,0.143,0.391,0.296c-0.455,0.352-0.832,0.642-1.222,0.941
	C113.547,109.942,111.276,108.327,108.391,107.854z"/>
<path fill-rule="evenodd" clip-rule="evenodd" fill="#f4751a" class="fill" d="M96.672,125.536c2.548,0.872,4.962,1.696,7.438,2.542
	c-0.138,0.471-0.256,0.868-0.413,1.404c-2.625-0.509-4.926-1.675-7.238-2.882C96.539,126.198,96.593,125.928,96.672,125.536z"/>
<path fill-rule="evenodd" clip-rule="evenodd" fill="#f4751a" class="fill" d="M103.336,130.806c-0.141,0.458-0.292,0.947-0.461,1.499
	c-2.31-0.936-4.527-1.832-6.761-2.736c0.029-0.508,0.054-0.925,0.084-1.421C98.588,129.038,100.906,129.9,103.336,130.806z"/>
<path fill-rule="evenodd" clip-rule="evenodd" fill="#f4751a" class="fill" d="M110.93,116.266c-0.273,0.244-0.547,0.488-0.7,0.623
	c-1.557-0.568-2.924-1.127-4.329-1.562c-1.382-0.427-2.802-0.729-4.298-1.11c0.165-0.292,0.285-0.508,0.409-0.729
	c3.182,0.157,5.965,1.438,8.81,2.517C110.857,116.091,110.894,116.178,110.93,116.266z"/>
<path fill-rule="evenodd" clip-rule="evenodd" fill="#f4751a" class="fill" d="M124.078,107.863c-1.095,0.371-2.036,0.69-3.136-0.266
	c-0.936-0.812-2.22-1.224-3.346-1.818c-0.116-0.061-0.208-0.165-0.336-0.272C118.79,105.104,123.264,106.655,124.078,107.863z"/>
<path fill-rule="evenodd" clip-rule="evenodd" fill="#f4751a" class="fill" d="M102.732,144.6c0.132,0.334,0.249,0.631,0.436,1.106
	c-0.673-0.105-1.213-0.124-1.709-0.282c-1.374-0.438-2.744-0.9-4.085-1.432c-0.358-0.141-0.604-0.566-0.9-0.86
	c0.052-0.071,0.105-0.143,0.158-0.215c0.998,0.312,1.99,0.651,2.996,0.928C100.656,144.128,101.699,144.351,102.732,144.6z"/>
<path fill-rule="evenodd" clip-rule="evenodd" fill="#f4751a" class="fill" d="M148.487,81.779c-1.61-0.588-3.052-1.112-4.574-1.667
	c-0.016-0.272-0.032-0.562-0.06-1.049c1.617,0.448,3.1,0.86,4.634,1.287C148.487,80.817,148.487,81.224,148.487,81.779z"/>
<path fill-rule="evenodd" clip-rule="evenodd" fill="#f4751a" class="fill" d="M95.765,140.576c2.186,0.585,4.37,1.168,6.604,1.766
	c0.057,0.249,0.117,0.521,0.18,0.8C100.92,143.307,96.151,141.486,95.765,140.576z"/>
<path fill-rule="evenodd" clip-rule="evenodd" fill="#f4751a" class="fill" d="M98.83,145.956c1.6,0.382,3.065,0.733,4.569,1.093
	c0.174,0.39,0.347,0.775,0.522,1.167C102.609,148.569,99.383,147.18,98.83,145.956z"/>
<path fill-rule="evenodd" clip-rule="evenodd" fill="#f4751a" class="fill" d="M144.018,82.541c-0.031-0.314-0.061-0.615-0.113-1.161
	c1.61,0.648,3.078,1.241,4.549,1.833c0,0.337,0,0.588,0,1.068C146.909,83.676,145.476,83.113,144.018,82.541z"/>
<path fill-rule="evenodd" clip-rule="evenodd" fill="#f4751a" class="fill" d="M143.807,76.691c1.45,0.401,2.897,0.803,4.385,1.215
	c0.05,0.336,0.094,0.62,0.154,1.029c-1.458-0.377-2.797-0.677-4.098-1.096c-0.285-0.091-0.435-0.604-0.646-0.922
	C143.672,76.843,143.738,76.767,143.807,76.691z"/>
<path fill-rule="evenodd" clip-rule="evenodd" fill="#f4751a" class="fill" d="M64.373,119.36c0-0.614,0-1.127,0-1.763
	c0.855-0.254,1.695-0.5,2.646-0.781c0.034,0.679,0.055,1.141,0.077,1.613C66.182,118.742,65.336,119.031,64.373,119.36z"/>
<path fill-rule="evenodd" clip-rule="evenodd" fill="#f4751a" class="fill" d="M147.52,89.437c-0.065,0.336-0.132,0.671-0.228,1.155
	c-1.197-0.59-2.288-1.127-3.394-1.671c0.049-0.329,0.084-0.557,0.137-0.907C145.196,88.487,146.297,88.938,147.52,89.437z"/>
<path fill-rule="evenodd" clip-rule="evenodd" fill="#f4751a" class="fill" d="M67.499,108.135c-0.812,0.184-1.585,0.358-2.364,0.535
	c-0.182-1.366,0.56-1.991,2.523-2.102c-0.017,0.258-0.027,0.506-0.053,0.751C67.584,107.554,67.547,107.785,67.499,108.135z"/>
<path fill-rule="evenodd" clip-rule="evenodd" fill="#f4751a" class="fill" d="M142.16,96.235c0.204-0.525,0.355-0.919,0.559-1.441
	c0.828,0.362,1.633,0.717,2.569,1.126c-0.313,0.423-0.556,0.751-0.832,1.125C143.693,96.774,142.973,96.522,142.16,96.235z"/>
<path fill-rule="evenodd" clip-rule="evenodd" fill="#f4751a" class="fill" d="M147.776,76.438c-1.471-0.405-2.77-0.763-4.116-1.135
	c-0.021-0.212-0.044-0.41-0.079-0.722c1.366,0.269,2.654,0.523,3.997,0.786C147.633,75.658,147.681,75.923,147.776,76.438z"/>
<path fill-rule="evenodd" clip-rule="evenodd" fill="#f4751a" class="fill" d="M65.085,125.475c0.726-0.169,1.383-0.324,2.165-0.508
	c0.081,0.514,0.149,0.939,0.229,1.452c-0.77,0.177-1.472,0.337-2.296,0.525C65.152,126.472,65.123,126.041,65.085,125.475z"/>
<path fill-rule="evenodd" clip-rule="evenodd" fill="#f4751a" class="fill" d="M146.063,70.783c0.05,0.296,0.088,0.522,0.152,0.907
	c-1.13-0.124-2.171-0.24-3.197-0.354c-0.145-0.409-0.253-0.715-0.425-1.201C143.804,70.361,144.891,70.564,146.063,70.783z"/>
<path fill-rule="evenodd" clip-rule="evenodd" fill="#f4751a" class="fill" d="M64.742,113.651c-0.292-1.117,0.817-2.019,2.343-1.9
	c0,0.388,0,0.779,0,1.283C66.318,113.236,65.53,113.443,64.742,113.651z"/>
<path fill-rule="evenodd" clip-rule="evenodd" fill="#f4751a" class="fill" d="M143.486,91.214c0.084-0.348,0.142-0.594,0.22-0.922
	c1.114,0.547,2.148,1.056,3.274,1.608c-0.093,0.215-0.197,0.456-0.362,0.836C145.549,92.216,144.555,91.732,143.486,91.214z"/>
<path fill-rule="evenodd" clip-rule="evenodd" fill="#f4751a" class="fill" d="M67.156,123.602c-0.779,0.216-1.507,0.417-2.279,0.632
	c-0.057-0.437-0.105-0.806-0.176-1.334c0.782-0.188,1.57-0.375,2.455-0.586C67.156,122.798,67.156,123.162,67.156,123.602z"/>
<path fill-rule="evenodd" clip-rule="evenodd" fill="#f4751a" class="fill" d="M146.158,93.99c-0.09,0.201-0.172,0.388-0.314,0.704
	c-0.976-0.366-1.912-0.716-2.905-1.088c0.097-0.383,0.171-0.669,0.271-1.06C144.223,93.043,145.167,93.504,146.158,93.99z"/>
<path fill-rule="evenodd" clip-rule="evenodd" fill="#f4751a" class="fill" d="M140.45,60.175c-0.856-0.133-1.597-0.248-2.344-0.364
	c-0.299-0.399-0.578-0.77-0.931-1.24C138.617,58.471,139.741,58.69,140.45,60.175z"/>
<path fill-rule="evenodd" clip-rule="evenodd" fill="#f4751a" class="fill" d="M65.765,105.553c0.16-0.487,0.283-0.858,0.433-1.309
	c0.665-0.15,1.337-0.305,2.201-0.501c-0.127,0.571-0.204,0.924-0.295,1.331C67.367,105.225,66.657,105.37,65.765,105.553z"/>
<path fill-rule="evenodd" clip-rule="evenodd" fill="#f4751a" class="fill" d="M148.144,86.057c-1.489-0.506-3.065-0.598-4.257-1.803
	C144.623,83.927,148.02,85.394,148.144,86.057z"/>
<path fill-rule="evenodd" clip-rule="evenodd" fill="#f4751a" class="fill" d="M64.376,120.692c0.865-0.271,1.68-0.527,2.554-0.802
	c0.087,0.393,0.143,0.642,0.237,1.063c-0.838,0.21-1.671,0.419-2.568,0.643C64.521,121.284,64.468,121.065,64.376,120.692z"/>
<path fill-rule="evenodd" clip-rule="evenodd" fill="#f4751a" class="fill" d="M64.483,116.133c0.024-0.332,0.045-0.584,0.069-0.913
	c0.805-0.284,1.598-0.562,2.517-0.887c0,0.47,0,0.778,0,1.116C66.236,115.669,65.423,115.885,64.483,116.133z"/>
<path fill-rule="evenodd" clip-rule="evenodd" fill="#f4751a" class="fill" d="M141.445,98.625c0.16-0.472,0.271-0.801,0.403-1.191
	c0.634,0.262,1.198,0.497,1.79,0.744c-0.234,0.44-0.411,0.773-0.643,1.208C142.492,99.139,142.002,98.898,141.445,98.625z"/>
<path fill-rule="evenodd" clip-rule="evenodd" fill="#f4751a" class="fill" d="M147.82,87.897c-1.183,0.015-2.183-0.677-3.257-1.055
	c-0.195-0.068-0.325-0.322-0.484-0.492c0.054-0.07,0.109-0.141,0.164-0.211c1.228,0.459,2.455,0.916,3.682,1.374
	C147.891,87.642,147.854,87.771,147.82,87.897z"/>
<path fill-rule="evenodd" clip-rule="evenodd" fill="#f4751a" class="fill" d="M142.153,62.747c-1.032-0.451-2.479,0.001-3.034-1.467
	C140.204,61.609,141.518,61.42,142.153,62.747z"/>
<path fill-rule="evenodd" clip-rule="evenodd" fill="#f4751a" class="fill" d="M146.842,73.125c0.081,0.245,0.138,0.417,0.187,0.562
	c-0.314,0.365-3.316-0.336-3.863-1.018C144.486,72.834,145.632,72.976,146.842,73.125z"/>
<path fill-rule="evenodd" clip-rule="evenodd" fill="#f4751a" class="fill" d="M142.21,68.275c1.33-0.162,2.999,0.328,3.078,0.903
	C144.277,69.433,142.363,68.871,142.21,68.275z"/>
<path fill-rule="evenodd" clip-rule="evenodd" fill="#f4751a" class="fill" d="M140.391,63.661c0.462,0.141,0.922,0.285,1.385,0.422
	c0.457,0.134,0.917,0.258,1.445,0.406c0.061,0.143,0.139,0.328,0.215,0.509c-0.09,0.053-0.137,0.103-0.17,0.095
	c-0.835-0.186-1.679-0.343-2.495-0.589c-0.219-0.066-0.354-0.405-0.527-0.621C140.293,63.809,140.342,63.734,140.391,63.661z"/>
<path fill-rule="evenodd" clip-rule="evenodd" fill="#f4751a" class="fill" d="M141.459,66.71c-0.02-0.255-0.033-0.429-0.044-0.569
	c0.359-0.281,2.837,0.53,3.081,1.151C143.426,67.087,142.482,66.906,141.459,66.71z"/>
<path fill-rule="evenodd" clip-rule="evenodd" fill="#f4751a" class="fill" d="M68.727,133.156c-0.53,0.127-0.975,0.234-1.474,0.354
	c-0.183-0.384-0.329-0.691-0.517-1.082c0.607-0.154,1.138-0.287,1.749-0.441C68.57,132.398,68.635,132.711,68.727,133.156z"/>
<path fill-rule="evenodd" clip-rule="evenodd" fill="#f4751a" class="fill" d="M67.717,127.788c0,0.402,0,0.562,0,0.774
	c-0.646,0.189-1.277,0.373-1.973,0.576c-0.096-0.274-0.178-0.51-0.322-0.924C66.216,128.067,66.926,127.935,67.717,127.788z"/>
<path fill-rule="evenodd" clip-rule="evenodd" fill="#f4751a" class="fill" d="M142.336,100.4c-0.382,0.556-0.657,0.959-0.968,1.412
	c-0.272-0.294-0.479-0.517-0.722-0.777c0.12-0.355,0.241-0.713,0.414-1.221C141.455,99.996,141.83,100.168,142.336,100.4z"/>
<path fill-rule="evenodd" clip-rule="evenodd" fill="#f4751a" class="fill" d="M69.216,101.605c-0.126,0.324-0.225,0.577-0.367,0.944
	c-0.571,0.041-1.163,0.087-1.783,0.133C67.189,101.824,67.832,101.512,69.216,101.605z"/>
<path fill-rule="evenodd" clip-rule="evenodd" fill="#f4751a" class="fill" d="M66.229,131.17c-0.064-0.293-0.106-0.488-0.179-0.812
	c0.656-0.175,1.269-0.338,1.958-0.522c0.065,0.371,0.109,0.608,0.163,0.912C67.494,130.895,66.89,131.027,66.229,131.17z"/>
<path fill-rule="evenodd" clip-rule="evenodd" fill="#f4751a" class="fill" d="M64.866,110.865c-0.002-0.693,1.351-1.364,2.344-1.223
	C67.324,110.271,66.87,110.511,64.866,110.865z"/>
<path fill-rule="evenodd" clip-rule="evenodd" fill="#f4751a" class="fill" d="M68.979,134.438c0.203,0.354,0.344,0.598,0.541,0.94
	c-0.475,0.177-0.885,0.328-1.373,0.51c-0.173-0.387-0.31-0.696-0.497-1.116C68.134,134.65,68.532,134.551,68.979,134.438z"/>
<path fill-rule="evenodd" clip-rule="evenodd" fill="#f4751a" class="fill" d="M135.815,56.009c1.024-0.287,1.446,0.453,1.993,1.003
	C137.011,57.439,136.097,56.984,135.815,56.009z"/>
<path fill-rule="evenodd" clip-rule="evenodd" fill="#f4751a" class="fill" d="M69.08,137.974c-0.153-0.327-0.28-0.597-0.447-0.954
	c0.434-0.135,0.821-0.254,1.289-0.398c0.174,0.322,0.33,0.614,0.563,1.048C69.935,137.788,69.525,137.877,69.08,137.974z"/>
<path fill-rule="evenodd" clip-rule="evenodd" fill="#f4751a" class="fill" d="M135.028,54.677c-1.09-0.148-1.455-1.29-2.37-1.679
	c0.064-0.089,0.13-0.179,0.194-0.267c0.776,0.578,1.553,1.157,2.329,1.735C135.13,54.537,135.08,54.607,135.028,54.677z"/>
<path fill-rule="evenodd" clip-rule="evenodd" fill="#f4751a" class="fill" d="M70.989,140.773c0.366-0.09,0.594-0.148,0.904-0.226
	c0.176,0.207,0.363,0.427,0.596,0.699C71.751,141.73,71.46,141.2,70.989,140.773z"/>
<path fill-rule="evenodd" clip-rule="evenodd" fill="#f4751a" class="fill" d="M71.206,139.521c-0.536-0.033-1.016,0.455-1.421-0.348
	c0.413-0.123,0.79-0.237,1.279-0.382C71.117,139.06,71.154,139.255,71.206,139.521z"/>
<path fill-rule="evenodd" clip-rule="evenodd" fill="#f4751a" class="fill" d="M73.151,142.447c0.254,0.107,0.509,0.214,0.763,0.32
	c-0.035,0.108-0.07,0.218-0.105,0.326c-0.267-0.088-0.533-0.177-0.799-0.265C73.057,142.702,73.104,142.575,73.151,142.447z"/>
<path fill-rule="evenodd" clip-rule="evenodd" fill="#f4751a" class="fill" d="M76.251,144.728c-0.392-0.182-0.783-0.362-1.175-0.544
	c0.04-0.078,0.08-0.154,0.119-0.232c0.38,0.201,0.76,0.404,1.139,0.605C76.307,144.613,76.279,144.671,76.251,144.728z"/>
</svg>
