<svg version="1.1" id="svg" xmlns="http://www.w3.org/2000/svg" xmlns:xlink="http://www.w3.org/1999/xlink" x="0px" y="0px"
	 width="200px" height="200px" viewBox="0 0 200 200" enable-background="new 0 0 200 200" xml:space="preserve">
<path class="stroke" fill="#183046"  d="M159.575,90.319c-0.24-3.437-1.931-6.411-3.218-9.521c-0.827-1.995-1.51-4.083-1.959-6.192
	c-0.806-3.773,0.228-7.411,1.249-11.01c0.5-1.764,1.173-3.48,1.643-5.251c0.998-3.761,2.252-7.474,2.115-11.457
	c-0.087-2.524-0.815-4.846-2.495-6.667c-1.336-1.449-2.897-2.689-4.735-3.632c-3.528-1.808-7.128-3.431-10.92-4.528
	c-2.527-0.731-5.169-1.148-7.788-1.472c-5.799-0.716-11.615-1.326-17.476-1.051c-3.54,0.167-7.061,0.495-10.515,1.36
	c-3.738,0.937-7.455,1.896-10.869,3.793c-3.234,1.796-4.857,4.555-4.951,8.156c-0.038,1.47,0.32,2.975,0.663,4.424
	c0.621,2.626,1.379,5.219,2.055,7.831c0.556,2.148,1.628,4.191,1.413,6.496c-0.046,0.494-0.191,1.104-0.52,1.424
	c-1.757,1.713-3.605,3.333-5.385,5.023c-1.312,1.246-2.734,2.427-3.811,3.86c-1.655,2.202-3.058,4.593-4.563,6.908
	c-0.97,1.494-1.936,2.992-2.898,4.492c-0.798,1.245-1.645,2.462-2.369,3.748c-0.967,1.717-1.838,3.489-2.749,5.239
	c-0.857,1.649-1.763,3.277-2.551,4.96c-0.802,1.711-1.5,3.472-2.221,5.22c-0.602,1.458-1.41,2.884-1.699,4.405
	c-0.429,2.258-0.607,4.584-0.662,6.888c-0.081,3.454,0.305,6.882,1.153,10.243c0.272,1.079,0.566,2.157,0.942,3.203
	c0.559,1.558,1.179,3.094,1.811,4.624c0.69,1.669,1.324,3.372,2.161,4.967c1.278,2.438,2.679,4.812,4.082,7.181
	c1.149,1.94,2.362,3.843,3.572,5.747c1.446,2.277,2.917,4.538,4.383,6.803c0.136,0.209,0.315,0.389,0.453,0.598
	c1.023,1.552,2.01,3.128,3.067,4.656c1.179,1.705,2.418,3.367,3.631,5.048c-0.033,0.017-0.067,0.035-0.1,0.052
	c0.375,0.318,0.719,0.682,1.129,0.946c0.78,0.503,1.546,1.153,2.413,1.375c1.495,0.384,3.073,0.433,4.598,0.722
	c3.721,0.707,7.463,1.045,11.236,0.635c2.701-0.294,5.421-0.578,7.956-1.667c3.143-1.35,6.267-2.746,9.406-4.105
	c0.234-0.102,0.546-0.137,0.792-0.077c0.701,0.17,1.4,0.367,2.075,0.623c3.524,1.336,7.132,1.475,10.762,0.621
	c2.388-0.562,4.713-1.393,6.753-2.797c1.382-0.952,2.602-2.054,2.564-4.015c-0.017-0.898,0.325-1.803,0.501-2.705
	c0.715-3.65,1.488-7.292,2.125-10.956c0.416-2.399,0.622-4.833,0.944-7.248c0.272-2.038,0.602-4.068,0.857-6.109
	c0.172-1.377,0.258-2.764,0.384-4.146c0.075-0.831,0.125-1.666,0.234-2.492c0.44-3.338,0.899-6.673,1.353-10.008
	c0.251-1.842,0.421-3.699,0.777-5.52c0.459-2.345,1.145-4.646,1.596-6.991c0.502-2.608,1.549-5.106,1.48-7.834
	C159.408,93.535,159.686,91.916,159.575,90.319z"/>
<path fill-rule="evenodd" clip-rule="evenodd" fill="#fafd30" class="fill" d="M113.961,67.371c0.145-0.216,0.328-0.489,0.496-0.738
	c-0.687-1.223-1.304-1.253-2.339-0.482c-0.93,0.693-1.261,1.564-1.576,2.62c-1.147,3.838-2.109,7.739-3.853,11.384
	c-1.159,2.424-2.5,4.72-4.147,6.836c-1.028,1.321-2.512,2.007-3.97,2.716c-0.276,0.134-0.561,0.25-0.839,0.38
	c-1.973,0.919-2.324,1.476-2.105,3.635c0.164,1.61-0.02,3.171-0.438,4.718c-0.036,0.133-0.089,0.262-0.146,0.388
	c-0.021,0.047-0.077,0.077-0.238,0.231c-3.951-1.684-7.588-3.986-11.113-6.706c0.285-1.179,0.44-2.415,0.882-3.538
	c1.284-3.261,2.511-6.565,4.089-9.686c1.425-2.821,3.346-5.388,4.921-8.141c0.623-1.09,1.542-1.509,2.59-1.895
	c1.584-0.583,2.187-2.028,2.757-3.402c1.042-2.512,1.104-5.199,1.133-7.874c0.015-1.415,0.149-2.845-0.01-4.241
	c-0.217-1.902-0.64-3.783-1.014-5.666c-0.734-3.692-1.496-7.379-2.242-11.069c-0.021-0.105-0.002-0.22-0.002-0.447
	c0.239-0.173,0.495-0.479,0.812-0.569c2.167-0.625,4.32-1.334,6.526-1.768c3.603-0.709,7.23-1.332,10.871-1.794
	c2.425-0.309,4.893-0.278,7.341-0.396c3.815-0.185,7.549,0.569,11.303,1.041c1.929,0.242,3.824,0.764,5.728,1.183
	c2.151,0.474,4.321,0.889,6.434,1.497c1.303,0.374,2.572,0.959,3.753,1.63c1.45,0.823,2.81,1.811,4.164,2.788
	c0.221,0.16,0.325,0.64,0.3,0.958c-0.322,4.116-0.531,8.249-1.875,12.214c-0.812,2.398-1.523,4.83-2.325,7.231
	c-0.132,0.396-0.496,0.713-0.753,1.067c-0.071-0.03-0.14-0.061-0.211-0.091c-0.031-0.18-0.094-0.361-0.089-0.541
	c0.085-3.153,0.202-6.306,0.26-9.46c0.025-1.361-0.016-2.728-0.124-4.084c-0.073-0.912-1.154-1.827-2.001-1.857
	c-1.415-0.049-2.278,0.401-2.478,1.575c-0.383,2.248-0.546,4.535-0.942,6.78c-0.356,2.022-0.796,4.043-1.396,6.005
	c-0.681,2.229-1.514,4.42-2.408,6.575c-0.775,1.868-0.696,3.79-0.52,5.693c0.187,2.03,0.092,4.001-0.351,5.98
	c-0.377,1.686-0.702,3.384-1.011,5.084c-0.539,2.961-2.464,4.833-4.89,6.329c-0.995,0.613-2.03,1.173-2.97,1.862
	c-2.847,2.086-6.005,2.754-9.421,2.059c-1.401-0.286-2.918-0.589-4.077-1.349c-1.934-1.268-2.918-3.364-3.323-5.608
	c-0.538-2.98-0.461-5.999-0.158-9.009C113.299,74.09,113.625,70.76,113.961,67.371z M131.73,72.648c0-1.053-0.055-1.83,0.01-2.598
	c0.174-2.018,0.435-4.029,0.596-6.049c0.169-2.114,0.171-4.244,0.415-6.348c0.226-1.956,0.81-3.874,0.983-5.831
	c0.161-1.821,0.074-3.678-0.067-5.507c-0.099-1.282-1.159-2.035-2.097-1.653c-1.126,0.459-1.867,1.307-2.112,2.52
	c-0.4,1.98-0.763,3.968-1.168,5.947c-0.469,2.283-0.976,4.559-1.448,6.841c-0.163,0.787-0.164,1.623-0.43,2.368
	c-0.627,1.755-1.384,3.463-2.06,5.201c-0.693,1.783-1.56,3.532-1.983,5.38c-0.746,3.262-1.101,6.575-0.569,9.955
	c0.206,1.313,0.674,2.338,1.666,3.127c1.526,1.213,3.257,1.551,5.192,1.229c3.026-0.504,4.668-3.319,3.465-6.093
	c-0.374-0.861-0.504-1.713-0.326-2.678c0.228-1.229,0.239-2.498,0.361-3.96c-0.608,0.175-0.93,0.267-1.196,0.344
	c-0.439,1.141-0.428,2.43-1.757,3.021c-0.621-2.096-0.79-4.099,0.274-6.208C130.223,71.985,130.87,72.27,131.73,72.648z
	 M118.554,46.062c-0.465-0.44-1.051-0.592-1.386,0.026c-0.437,0.805-0.705,1.71-0.979,2.594c-0.238,0.767-0.294,1.599-0.587,2.341
	c-0.659,1.666-1.068,3.359-1.25,5.153c-0.137,1.349,0.655,2.143,2.006,1.793C117.064,57.302,118.777,48.047,118.554,46.062z"/>
<path fill-rule="evenodd" clip-rule="evenodd" fill="#fafd30" class="fill" d="M121.357,164.889c-1.346,0.487-2.636,1.107-3.997,1.422
	c-7.225,1.67-14.498,2.425-21.987,0.67c-1.648-3.116-3.376-6.413-5.136-9.692c-0.791-1.473-1.681-2.893-2.467-4.367
	c-1.048-1.967-1.988-3.993-3.071-5.94c-1.122-2.019-2.398-3.951-3.539-5.96c-2.173-3.822-4.343-7.617-5.08-12.089
	c-0.561-3.396-1.055-6.771-0.719-10.202c0.279-2.846,0.722-5.677,1.099-8.565c0.322,0.053,0.493,0.044,0.631,0.108
	c3.432,1.585,6.84,3.226,10.3,4.748c1.518,0.668,3.127,1.149,4.725,1.611c0.873,0.252,1.873,0.126,2.7,0.459
	c1.296,0.52,2.588,1.156,3.711,1.976c1.615,1.179,3.057,2.591,4.607,3.863c2.543,2.086,4.358,4.743,6.083,7.497
	c1.609,2.569,2.751,5.337,3.822,8.153c1.357,3.566,2.823,7.091,4.153,10.667c1.411,3.793,2.424,7.695,3.025,11.71
	C120.405,162.208,120.918,163.411,121.357,164.889z"/>
<path fill-rule="evenodd" clip-rule="evenodd" fill="#fafd30" class="fill" d="M148.741,105.969c-0.203,2.951,0.055,7.798-1.957,11.074
	c-1.15,0.121-2.391,0.222-3.625,0.384c-3.677,0.486-7.313,1.093-10.769,2.576c-2.191,0.941-4.503,1.598-6.748,2.418
	c-0.729,0.267-1.388,0.755-2.13,0.949c-1.31,0.343-2.649,0.652-3.995,0.763c-1.515,0.125-2.699-0.697-3.742-1.747
	c-2.706-2.725-5.89-4.667-9.65-5.5c-1.671-0.37-3.419-0.379-5.124-0.613c-1.899-0.26-3.796-0.553-5.68-0.899
	c-4.011-0.738-7.754-2.239-11.325-4.166c-2.25-1.214-4.435-2.548-6.765-3.895c1.962-4.504,3.852-8.843,5.785-13.279
	c1.336,0.911,2.614,1.896,3.997,2.699c2.188,1.272,4.407,2.508,6.688,3.604c2.384,1.145,4.812,2.229,7.302,3.116
	c3.014,1.072,6.101,1.945,9.177,2.837c2.591,0.752,5.202,1.438,7.821,2.087c0.829,0.205,1.71,0.265,2.569,0.274
	c3.43,0.039,6.864,0.132,10.289,0c2.018-0.078,4.021-0.545,6.031-0.832c2.699-0.385,5.401-0.751,8.098-1.154
	c0.935-0.14,1.857-0.368,2.786-0.549C148.068,106.058,148.367,106.024,148.741,105.969z"/>
<path fill-rule="evenodd" clip-rule="evenodd" fill="#fafd30" class="fill" d="M140.32,163.817c-0.418,0.089-0.745,0.227-1.068,0.219
	c-2.369-0.062-4.737-0.134-7.104-0.242c-1.687-0.078-2.497-1.309-2.966-2.662c-1.131-3.258-2.206-6.542-3.13-9.864
	c-0.398-1.427-0.436-2.969-0.512-4.466c-0.086-1.709-0.005-3.428-0.046-5.142c-0.058-2.428,0.494-4.749,1.066-7.084
	c0.563-2.294,1.391-4.434,2.674-6.435c1.452-2.263,3.272-4.014,5.681-5.263c1.556-0.806,3.082-1.537,4.84-1.682
	c3.521-0.289,5.556,1.143,6.063,4.554c0.419,2.811,0.026,5.567-0.449,8.318c-0.523,3.02-1.057,6.041-1.684,9.04
	c-0.688,3.299-1.577,6.559-2.208,9.867c-0.438,2.292-0.605,4.638-0.857,6.963C140.482,161.206,140.42,162.481,140.32,163.817z"/>
<path fill-rule="evenodd" clip-rule="evenodd" fill="#fafd30" class="fill" d="M148.625,94.268c-0.673-1.129-1.318-2.023-1.772-3.007
	c-1.207-2.611-1.023-5.376-0.701-8.129c0.228-1.952,0.494-3.902,0.825-5.839c0.116-0.675,0.479-1.308,0.729-1.96
	c0.09,0.018,0.181,0.036,0.271,0.053c0.463,1.504,0.951,3.001,1.381,4.514c0.479,1.679,1.193,3.356,1.288,5.062
	c0.156,2.823-0.1,5.67-1.436,8.28C149.077,93.503,148.92,93.752,148.625,94.268z"/>
<path class="stroke" fill="#183046"  d="M51.318,67.784c-0.54,0.95-1.192,1.837-1.781,2.761c-0.862,1.354-1.722,2.711-2.563,4.079
	c-0.428,0.694-0.42,1.249,0.395,1.764c1.452,0.917,2.831,1.948,4.232,2.943c0.277,0.196,0.518,0.445,0.608,0.524
	c-0.656,1.798-1.299,3.418-1.834,5.074c-0.378,1.166,0.624,2.163,1.797,1.855c2.065-0.541,4.146-1.036,6.179-1.679
	c2.41-0.764,4.784-1.647,7.163-2.512c0.726-0.263,1.153-0.75,0.904-1.632c-0.307-1.087-0.502-2.208-0.822-3.291
	c-1.015-3.444-2.029-6.889-3.122-10.309c-0.348-1.086-1.026-1.167-1.83-0.311c-0.64,0.68-1.255,1.396-1.781,2.165
	C58.4,69.893,58,69.912,57.325,69.505c-1.339-0.806-2.727-1.538-4.119-2.25C52.46,66.873,51.802,66.931,51.318,67.784z"/>
<path fill-rule="evenodd" clip-rule="evenodd" fill="#fafd30" class="fill" d="M53.783,69.857c1.021,1,1.922,1.921,2.866,2.795
	c1.158,1.073,1.681,1.034,2.71-0.168c0.33-0.386,0.589-0.833,0.889-1.246c0.271-0.37,0.552-0.732,0.822-1.09
	c0.874,3.358,1.727,6.627,2.59,9.939c-2.939,1.836-6.231,2.6-9.755,3.398c0.514-0.949,0.912-1.799,1.416-2.582
	c0.693-1.078,0.672-1.702-0.37-2.473c-1.263-0.934-2.556-1.833-3.886-2.665c-0.694-0.434-0.851-0.797-0.347-1.487
	C51.665,72.984,52.549,71.646,53.783,69.857z"/>
</svg>
