<svg version="1.1" id="svg" xmlns="http://www.w3.org/2000/svg" xmlns:xlink="http://www.w3.org/1999/xlink" x="0px" y="0px"
	 width="200px" height="200px" viewBox="0 0 200 200" enable-background="new 0 0 200 200" xml:space="preserve">
<path class="stroke" fill="#6e3411"  fill-rule="evenodd" clip-rule="evenodd" d="M54.669,67.946c-0.573,0.412-1.017,0.732-1.536,1.104
	c-1.401,0.143-2.679-0.162-3.458-1.393c-2.556-0.521-5.012-0.517-7.47-0.158c-0.662,0.096-1.319,0.216-1.977,0.338
	c-0.847,0.157-1.535-0.01-2.009-1.08c0.253-0.454,0.505-1.072,0.898-1.582c2.077-2.689,4.188-5.352,6.189-7.896
	c0.235-1.108,0.393-2.069,0.649-3.003c0.511-1.863,1.652-3.062,3.548-3.715c2.536-0.873,5.085-1.623,7.742-1.994
	c0.509-0.071,1.016-0.171,1.527-0.207c2.025-0.141,2.395,0.118,3.05,2.187c0.752,0.21,1.588,0.442,2.422,0.677
	c0.593,0.167,1.259,0.217,1.764,0.528c2.141,1.321,4.342,2.581,6.309,4.134c1.604,1.268,2.921,2.904,4.332,4.409
	c0.454,0.484,0.817,1.058,1.19,1.614c1.896,2.822,3.807,5.633,5.663,8.481c2.255,3.46,5.467,5.465,9.376,6.632
	c4.916,1.468,9.937,1.673,15.001,1.652c0.718-0.003,1.459-0.03,2.152,0.123c2.462,0.543,4.921,0.392,7.39,0.127
	c0.768-0.083,1.546-0.157,2.314-0.126c1.382,0.059,2.451-0.485,3.479-1.378c4.204-3.65,8.435-7.27,12.697-10.853
	c1.631-1.372,3.495-2.45,5.616-2.776c1.237-0.19,2.566-0.056,3.813,0.164c1.183,0.208,1.847,1.238,1.922,2.499
	c0.025,0.404,0.004,0.812,0.004,1.352c0.39-0.035,0.719-0.069,1.048-0.094c0.665-0.049,1.342-0.197,1.992-0.121
	c1.783,0.209,2.732,1.557,2.297,3.295c-0.234,0.938-0.669,1.826-1.083,2.92c0.327,0.142,0.716,0.33,1.12,0.481
	c2.301,0.857,3.136,4.065,1.466,5.851c-0.661,0.706-1.477,1.27-2.241,1.873c-0.198,0.157-0.472,0.221-0.7,0.322
	c1.398,0.833,2.535,1.419,3.57,2.149c1.882,1.326,1.928,3.362,0.071,4.733c-0.751,0.555-1.713,0.823-2.753,1.301
	c0.423,0.365,0.816,0.74,1.244,1.07c3.089,2.385,2.127,5.205-0.778,6.707c-0.852,0.44-1.823,0.652-2.824,0.999
	c0.029,3.513-1.885,5.641-4.958,6.931c-1.584,0.665-2.422,2.081-3.141,3.487c-1.077,2.105-2.021,4.286-2.897,6.484
	c-0.27,0.677-0.132,1.516-0.193,2.479c-0.848,0.99-1.852,2.074-2.747,3.242c-0.479,0.625-0.702,1.369-1.377,1.944
	c-1.02,0.869-1.782,2.041-2.654,3.084c-0.075-0.094-0.15-0.188-0.225-0.284c-1.768,0.959-3.535,1.917-5.388,2.922
	c-0.603,2.398-1.291,4.85-3.923,6.168c-1.298,4.338-3.034,8.589-3.509,13.343c1.995,0.719,3.962,1.396,5.314,3.062
	c0.154,0.19,0.263,0.445,0.313,0.685c0.038,0.185-0.049,0.396-0.084,0.628c-0.747,0.546-1.416,0.396-2.128-0.083
	c-1.229-0.827-2.492-1.604-3.381-2.173c-3.079,0.5-5.708,0.927-8.472,1.375c-0.21,0.485-0.522,1.207-0.886,2.047
	c-0.839-0.088-1.553-0.104-2.24-0.247c-2.132-0.443-4.253-0.712-6.443-0.383c-2.435,0.367-4.946,0.083-7.343,0.854
	c-0.831,0.267-1.688,0.464-2.543,0.633c-0.939,0.186-1.892,0.302-2.878,0.455c-0.177-0.587-0.292-0.969-0.424-1.405
	c1.602-1.565,3.66-2.254,5.637-3.074c-0.022-0.109-0.045-0.219-0.068-0.328c-1.203-0.165-2.407-0.327-3.72-0.506
	c-0.225-0.487-0.45-0.978-0.771-1.677c2.463-1.008,4.921-0.32,7.489-0.701c-0.627-0.641-1.133-1.156-1.723-1.758
	c0.335-0.418,0.64-0.8,0.935-1.168c1.851-0.121,3.298,0.957,5.125,1.36c0.06-3.216,0.948-6.273,0.25-9.48
	c-0.245-0.1-0.515-0.246-0.802-0.323c-1.57-0.421-2.916-1.219-4.2-2.214c-2.07-1.603-4.188-3.153-6.364-4.607
	c-1.234-0.826-2.572-1.556-3.955-2.091c-5.268-2.035-9.571-5.36-13.38-9.469c-1.781-1.921-3.88-3.542-5.78-5.358
	c-1.041-0.994-1.986-2.092-2.941-3.171c-1.82-2.059-2.249-4.708-2.987-7.216c-1.402-4.764-2.039-9.666-2.602-14.584
	c-0.652-5.683-1.395-11.355-2.124-17.029C55.374,70.096,55.204,69.035,54.669,67.946z M116.441,136.767
	c-1.23-1.399-2.29-2.605-3.269-3.718c-2.188,1.436-4.24,2.782-6.262,4.108c-0.242,2.959-0.485,5.946-0.734,8.986
	c0.911,0.056,1.785,0.057,2.643,0.177c0.803,0.112,1.589,0.351,2.381,0.533c0.033-0.097,0.066-0.194,0.101-0.292
	c-0.76-0.544-1.521-1.088-2.597-1.857c0.791-0.245,1.264-0.552,1.672-0.482c0.739,0.126,1.454,0.449,2.155,0.744
	c0.593,0.25,1.153,0.577,1.724,0.867C115.774,142.83,116.167,139.728,116.441,136.767z M106.599,149.863
	c0.631-0.164,1.302,0.071,1.679-0.609c-0.857-0.396-1.663-0.769-2.524-1.167C105.229,149.061,106.023,149.333,106.599,149.863z"/>
<path fill-rule="evenodd" clip-rule="evenodd" fill="#ffd624" class="fill" d="M138.22,84.724c0.635,0.029,1.27,0.088,1.904,0.085
	c1.802-0.006,3.604-0.087,5.402-0.034c0.643,0.019,1.277,0.338,1.741,0.47c1.221,1.256,1.33,2.592,1.158,4.03
	c-1.229,0.849-2.563,0.59-3.803,0.505c-1.792-0.122-3.562-0.509-5.351-0.708c-0.49-0.054-1.01,0.165-1.516,0.258
	c-0.015,0.149-0.03,0.3-0.045,0.45c0.377,0.152,0.745,0.397,1.135,0.443c2.606,0.308,5.216,0.572,7.825,0.849
	c0.304,0.033,0.609,0.053,0.911,0.079c0.955,0.979,0.562,2.143,0.598,3.411c-0.518,0.354-1.08,0.739-1.501,1.027
	c-0.824-1.082-1.472-2.04-2.239-2.892c-0.314-0.349-0.872-0.62-1.343-0.66c-1.111-0.095-2.236-0.031-3.539-0.031
	c-0.075,0.186-0.22,0.539-0.396,0.975c1.258,1.04,3.551,0.464,3.9,2.821c-0.857,1.588-2.544,1.568-4.187,1.888
	c0-1.056,0.059-1.962-0.016-2.857c-0.083-0.982-0.616-1.727-1.494-2.13c-0.39-1.879-0.39-1.879-1.66-2.001
	c-0.073,0.319-0.148,0.651-0.225,0.983c-0.293,1.276-1.111,2.038-2.307,2.149c-1.264,0.116-2.143-0.412-2.624-1.693
	c-0.3-0.799-0.493-1.642-0.701-2.473c-0.328-1.311-0.823-2.514-2.07-3.516c-0.553,1.695,1.046,2.74,0.929,4.148
	c-1.275,1.383-2.309,1.507-5.08,0.583c-0.102,0.151-0.24,0.304-0.316,0.483c-0.076,0.18-0.092,0.386-0.137,0.598
	c1.484,1.776,3.288,1.302,5.206,0.589c-0.225,1.313-0.939,1.952-1.805,2.675c-1.975-0.238-4.02-0.534-5.682-1.881
	c-0.625-0.505-0.996-1.326-1.599-2.165c-0.197,0.258-0.503,0.604-0.746,0.99c-0.27,0.429-0.481,0.895-0.674,1.263
	c-2.396,0.791-3.457,0.286-4.446-2.02c-0.891,0.283-0.891,0.283-1.28,1.708c-0.519,0.073-1.104,0.153-1.678,0.234
	c-0.405-0.454-0.741-0.83-1.201-1.345c-0.964,1.359-1.122,3.5-3.744,3.339c-0.378-0.394-0.962-1-1.51-1.57
	c-0.22-1.385,0.239-2.958-1.51-3.992c-0.424,1.524,0.558,2.803,0.061,4.182c-1.435,2.247-2.324,2.369-4.864,0.511
	c0.386-1.523,0.986-3.115-0.171-4.666c-0.895,0.305-0.724,0.997-0.614,1.55c0.29,1.453-0.226,2.644-1.105,3.714
	c-1.129,1.376-2.884,1.358-3.951-0.044c-0.495-0.65-0.882-1.383-1.422-2.245c-0.192-0.052-0.572-0.156-0.866-0.235
	c-1.346,0.67-0.935,2.483,1.086,4.945c-0.325,0.64-0.681,1.344-1.022,2.018c-1.555-0.461-1.555-0.461-2.953-2.402
	c0.279-0.882,0.55-1.737,0.821-2.592c-0.108-0.069-0.216-0.138-0.324-0.206c-0.62,0.614-1.239,1.228-1.84,1.824
	c-0.85,0.049-1.631,0.155-2.112-0.812c0.589-1.255,1.694-2.497,0.637-4.137c-1.334,0.605-0.318,2.556-1.429,2.843
	c-1.411,0.666-2.184-0.136-3.004-0.509c-1.131,0.699-1.15,0.814-0.287,2.459c0.773,0.156,1.711,0.343,2.93,0.587
	c0.159,0.204,0.5,0.64,0.862,1.106c-0.388,1.168-0.729,2.292-2.252,2.79c-0.788-0.558-1.655-1.171-2.362-1.671
	c-0.259-0.735-0.439-1.247-0.69-1.958c-0.914,1.219-1.437,2.542-2.952,2.904c-1.727-0.545-1.774-0.588-2.223-2.132
	c0.889-0.322,1.804-0.613,2.687-0.98c2.018-0.842,3.447-2.876,2.343-4.864c-0.327,0.077-0.691,0.162-1.022,0.24
	c-0.204,1.061-0.386,2.002-0.542,2.814c-2.661,1.254-4.403,0.629-5.099-1.711c1.015-1.325,1.372-2.902,1.52-4.669
	c-0.494-0.106-0.917-0.197-1.54-0.331c-0.331,0.772-0.672,1.498-0.956,2.246c-0.577,1.519-1.555,2.41-3.355,2.199
	c-1.583-0.924-1.47-2.626-1.757-4.293c1.598-1.082,2.426-2.625,2.2-4.764c-1.082,0.425-0.938,1.472-1.398,2.292
	c-0.743,0.659-1.594,1.298-2.867,0.943c-1.117-0.992-2.131-2.061-1.618-3.842c0.754-0.42,1.511-0.842,2.369-1.32
	c0.375,0.147,0.838,0.358,1.319,0.514c1.435,0.461,2.69,0.306,3.809-0.872c0.499-0.525,1.27-0.819,1.958-1.129
	c0.653-0.296,1.367-0.453,2.039-0.711c1.914-0.734,3.821-1.486,5.728-2.236c0.754-0.297,1.249-0.833,1.659-1.989
	c-0.744,0.43-1.189,0.686-1.661,0.958c-2.167,0.18-3.036-1.264-3.516-3.099c-1.042,0.329-1.239,1.115-1.457,1.825
	c-0.286,0.93-0.792,1.658-1.576,2.225c-0.612,0.441-1.206,0.559-2.064-0.137c-0.146-0.766-0.334-1.753-0.545-2.857
	c-0.789-0.144-0.958,0.485-1.169,1.134c-0.311,0.958-0.677,1.897-0.985,2.748c-2.545,0.137-3.352-0.931-2.733-3.338
	c1.971-0.806,2.962-2.442,3.666-4.579c-1.059,0.249-1.281,1.034-1.731,1.602c-0.437,0.554-0.879,1.159-1.454,1.538
	c-0.839,0.553-1.619,0.307-2.032-0.62c-0.393-0.879-0.61-1.836-0.946-2.89c-0.331,0.098-0.686,0.205-0.993,0.296
	c-0.287,2.29,0.309,3.663,2.033,4.852c-0.732,2.588-1.082,3.105-2.482,3.602c-0.77-0.52-1.361-1.199-1.383-2.215
	c-0.02-0.876-0.202-1.68-0.487-2.522c-0.392-1.157-0.399-2.439-0.709-3.632c-0.296-1.138-0.77-2.23-1.158-3.324
	c0.941-0.128,1.885-0.093,2.702-0.398c2.572-0.961,3.352-3.712,1.779-5.958c-0.372-0.531-0.372-0.531-1.626-0.785
	c0.33,1.221,0.652,2.409,0.934,3.45c-1.413,1.709-2.248,1.799-3.842,0.517c-0.446,0.238-0.929,0.498-1.512,0.81
	c-0.517-0.335-1.07-0.693-1.592-1.032c-1.155-0.359-1.642,0.696-2.342,1.09c-1.564-1.565-3.079-3.077-4.712-4.71
	c2.537-3.997,5.527-7.541,10.839-8.028c0.459-0.042,0.934-0.069,1.387-0.003c1.734,0.251,3.481,0.459,5.189,0.838
	c2.935,0.649,5.204,2.511,7.245,4.55c2.737,2.733,5.081,5.809,7.09,9.137c1.871,3.098,3.931,6.069,6.621,8.531
	c0.831,0.76,1.725,1.51,2.715,2.026c3.115,1.625,6.342,2.957,9.859,3.504c5.319,0.828,10.659,1.239,16.036,0.941
	c2.264-0.125,4.543-0.279,6.767-0.683c1.585-0.289,3.114-0.848,4.382-2.083c1.876-1.831,3.955-3.452,5.941-5.17
	c2.142-1.853,4.245-3.754,6.425-5.56c1.775-1.472,3.846-2.382,6.12-2.816c1.043-0.199,2.043-0.161,3.023,0.415
	c0.483,1.553-0.547,2.621-1.204,3.896c-3.34-0.636-6.289,0.539-9.156,2.006c-0.34,0.174-0.532,0.638-0.793,0.967
	c0.071,0.088,0.143,0.176,0.214,0.263c1.167-0.45,2.314-0.963,3.506-1.332c1.175-0.364,2.389-0.621,3.599-0.849
	c0.733-0.139,1.44,0.012,2.028,0.803c-0.108,0.352-0.149,0.841-0.386,1.203c-1.833,2.791-4.174,4.985-7.47,5.906
	c-1.576,0.44-3.2,0.709-4.803,1.055c-0.593,0.127-1.187,0.252-1.864,0.396c-1.78-1.151-2.95-1.214-4.149-0.002
	c1.173,0.521,2.914,0.136,3.185,1.967c-0.548,2.688-2.586,3.225-5.027,3.254c-0.197-0.533-0.409-1.103-0.647-1.746
	c-1.005-0.603-2.002-1.321-3.353-0.622c0.274,1.172,1.402,0.888,2.19,1.685c0.328,0.501,0.755,1.291,0.341,2.272
	c-0.966,0.532-1.931,0.836-2.997,0.686c-0.619-0.086-1.138-0.021-1.3,0.712c1.838,1.204,4.675,0.251,5.821-2.037
	c1.628,0.43,3.137-0.085,4.372-1.142c1.18-1.008,2.087-2.28,1.993-4.036c1.748-0.334,3.492-0.683,5.242-0.999
	c1.672-0.301,4.835-1.521,7.126-3.604c1.728-0.135,3.615-0.281,5.506-0.429c0.162,3.086-4.017,6.997-7.642,7.313
	c-0.692,0.479-1.388,0.961-2.084,1.444C138.225,84.458,138.223,84.591,138.22,84.724z M77.313,82.859
	c-0.814-0.104-0.967,0.304-1.079,0.797c-0.27,1.179-0.195,2.248,0.812,3.098c1.23,1.04,2.611,1.475,4.156,0.917
	c2.44-0.88,3.685-3.086,3.34-6.232c-0.583,1.05-1.019,1.828-1.447,2.611c-0.447,0.818-1.077,1.46-2.045,1.429
	c-1.179-0.038-2.372-0.184-3.269-1.14C77.626,83.851,77.474,83.37,77.313,82.859z M103.163,86.522
	c0.282,1.617,1.492,2.246,2.37,3.155c1.712,1.776,3.795,2.137,6.099,1.736c1.067-0.186,1.751-0.89,2.02-1.897
	c0.318-1.198,0.186-2.354-0.651-3.585c-0.958,1.408,0.283,3.045-0.927,4.069c-3.13,1.155-6.025-1.238-7.71-4.233
	C103.938,86.034,103.522,86.296,103.163,86.522z M50.407,56.633c-1.083,2.022,0.179,4.02,2.446,3.979
	c1.299-0.022,2.406-0.899,2.537-2.007c0.141-1.195-0.602-2.167-1.958-2.538C52.312,55.761,51.333,56.185,50.407,56.633z
	 M129.956,84.214c1.007,0.315,1.897,0.595,2.745,0.861c1.211,1.678,0.878,2.738-1.01,3.405c-0.291,0.104-0.55,0.301-0.979,0.542
	c1.931,0.376,3.414-0.342,3.996-1.777c0.452-1.114,0.016-2.279-1.144-3.06C132.303,83.335,130.932,83.271,129.956,84.214z
	 M86.377,88.043c-0.085,0.513-0.151,0.91-0.225,1.354c1.531,0.447,2.814,0.135,4.073-0.291c1.557-0.525,2.266-2.131,1.7-3.924
	c-1.289,0.441-0.583,1.998-1.608,2.662C88.409,88.655,88.256,88.67,86.377,88.043z"/>
<path fill-rule="evenodd" clip-rule="evenodd" fill="#ffd624" class="fill" d="M116.125,124.669c-0.023-0.486-0.046-0.972-0.075-1.546
	c-1.383-0.277-1.673,1.342-2.801,1.576c-0.034-0.354-0.07-0.739-0.108-1.123c-0.46-0.646-1.633-0.661-2.957-0.021
	c-0.02-0.159-0.079-0.314-0.048-0.452c0.098-0.447,0.229-0.887,0.34-1.306c0.929-0.619,1.838-0.256,2.749-0.125
	c0.667-0.244,1.34-0.49,2.062-0.754c0.905-0.947,0.939-2.648,2.55-3.045c-0.377-0.965-1.123-0.604-1.603-0.677
	c-2.253-0.995-0.938-2.791-1.238-4.516c0.696,0.125,1.238,0.137,1.712,0.323c2.01,0.792,2.105,0.806,4.203-0.309
	c1.961,1.513,3.907,0.376,5.878-0.329c-0.111-0.1-0.222-0.2-0.333-0.3c0.862-0.56,1.725-1.119,2.579-1.673c0,0.244,0,0.644,0,1.067
	c1.584,0.495,1.381-1.615,2.864-1.53c0.154,0.081,0.601,0.314,1.19,0.622c-0.373,0.354-0.667,0.632-1.065,1.009
	c1.479,0.659,2.84,0.839,4.16,0.347c1.039-0.83,0.266-1.92,0.592-2.922c0.82,0.175,1.591,0.341,2.364,0.507
	c0.399,1.161-0.786,1.348-1.19,2.147c0.024,0.374,0.058,0.874,0.083,1.262c-0.442,1.553-1.891,0.036-2.576,1.072
	c0.513,0.234,0.994,0.454,1.614,0.737c-0.524,1.234-1.038,2.443-1.516,3.567c-0.493,0.25-0.858,0.435-1.272,0.645
	c0.021,0.45,0.042,0.896,0.065,1.413c-0.354,0.142-0.675,0.269-1.055,0.42c0.062,1.852-1.166,1.797-2.615,1.628
	c-0.289-0.668-0.588-1.361-0.936-2.163c-0.397,0.108-0.757,0.208-1.312,0.359c0.348,0.823,0.637,1.505,0.931,2.199
	c0.545,0.054,0.982,0.097,1.485,0.147c0,0.358,0,0.699,0,1.146c-0.539,0.112-1.03,0.215-1.632,0.341
	c-0.159,0.256-0.368,0.595-0.61,0.987c-0.424,0.069-0.877,0.143-1.424,0.232c-0.115,0.2-0.261,0.456-0.37,0.645
	c-0.752,0.297-1.45,0.573-2.472,0.977c-0.045-0.003-0.449-0.028-0.934-0.058c-0.572,1.053-1.579,0.834-2.542,0.8
	c-0.109-0.639-0.21-1.219-0.305-1.771c-1.266-0.334-1.007,0.835-1.511,1.321c-0.945-0.682,0.067-1.483-0.146-2.256
	c-1.129-0.275-1.094,0.998-1.785,1.399c-0.534-0.613-0.079-1.719-1.034-2.049L116.125,124.669z M119.594,120.588
	c0-0.759,0-1.41,0-2.04c-0.733,0-1.371,0-1.987,0c-1.464,1.271-1.644,2.017-0.769,3.481
	C117.762,121.546,118.691,121.06,119.594,120.588z M120.988,121.043c-1.845-0.026-2.803,1.097-2.52,2.906
	C119.955,123.508,120.005,121.866,120.988,121.043z M121.205,125.825c0.416-0.143,0.795-0.274,1.104-0.38
	c0.1-1.028,0.183-1.874,0.267-2.744C121.233,122.864,120.914,123.604,121.205,125.825z M127.441,121.706
	c-0.048-1.08-0.092-2.038-0.138-3.055c-1.091,0.41-1.426,0.826-1.297,1.679C126.105,120.987,126.156,121.797,127.441,121.706z
	 M124.886,122.39c-1.565,0.432-1.624,1.633-0.302,3.168C125.765,124.587,124.727,123.518,124.886,122.39z M126.922,117.046
	c0.155-0.972,0.179-1.846-0.571-2.698c-0.332,0.281-0.625,0.527-0.955,0.808c0.223,0.685,0.422,1.3,0.633,1.945
	C126.389,117.08,126.628,117.064,126.922,117.046z M124.669,116.851c-0.056-0.77-0.104-1.456-0.162-2.25
	c-0.468,0.087-0.754,0.139-1.241,0.229c0.045,0.76,0.088,1.481,0.139,2.354C123.963,117.036,124.277,116.953,124.669,116.851z
	 M132.739,114.913c-0.344,0.281-0.621,0.507-0.902,0.738c1.236,1.375,1.697,1.542,2.783,0.988
	C134.002,116.072,133.412,115.531,132.739,114.913z M134.683,114.051c-2.667-0.914-2.667-0.914-3.555-0.399
	C132.345,114.298,133.437,114.793,134.683,114.051z M130.33,118.952c0.937,1.629,1.093,1.706,2.329,1.199
	c-0.463-0.613-0.912-1.206-1.424-1.883C130.9,118.521,130.644,118.716,130.33,118.952z M124.962,118.943
	c-1.179,0.263-1.83,0.86-1.772,2.136c0.376,0.035,0.733,0.068,1.102,0.102C124.541,120.347,124.752,119.645,124.962,118.943z
	 M129.016,115.918c0.379-0.064,0.742-0.125,1.124-0.19c-0.551-1.695-0.903-1.913-2.083-1.306
	C128.359,114.894,128.657,115.359,129.016,115.918z M121.048,118.883c1.09-0.012,1.453-0.788,1.914-1.721
	C121.641,117.121,121.335,117.998,121.048,118.883z M126.29,123.699c0.333,1.361,0.333,1.361,1.537,1.231
	c-0.17-0.56-0.33-1.089-0.522-1.725C126.875,123.414,126.624,123.536,126.29,123.699z M116.607,114.914
	c0.031,0.157,0.062,0.315,0.092,0.474c0.755,0.28,1.392,0.131,1.818-0.829C117.88,114.677,117.243,114.795,116.607,114.914z"/>
<path fill-rule="evenodd" clip-rule="evenodd" fill="#ffd624" class="fill" d="M137.495,96.883c-0.695-0.174-1.294-0.323-2.054-0.514
	c-0.143,0.376-0.291,0.767-0.472,1.244c0.582,0.431,1.069,0.792,1.694,1.255c0.142,0.427,0.333,1.003,0.506,1.526
	c-0.38,0.785-0.847,1.259-1.765,1.289c-0.432-1.705-0.875-3.389-2.622-4.52c-0.292,0.488-0.537,0.898-0.727,1.218
	c0.264,0.833,0.572,1.5,0.678,2.198c0.254,1.678-0.439,2.419-2.134,2.396c-0.252-0.003-0.503-0.075-0.829-0.126
	c-0.126-0.916-0.121-1.865-0.413-2.712c-0.294-0.858-0.884-1.615-1.411-2.531c-0.485,0.023-0.967,0.046-1.346,0.064
	c-0.573,0.773-0.464,1.382-0.089,2.012c0.532,0.891,0.687,1.82,0.16,2.837c-1.266,0.78-2.528,0.917-3.815-0.134
	c0-0.843,0-1.66,0-2.533c0.495-0.617,1.037-1.293,1.522-1.898c1.777-0.935,3.499-1.842,5.258-2.769
	c2.717,0.93,5.341,1.181,7.535-1.461C137.7,94.668,137.841,95.563,137.495,96.883z"/>
<path fill-rule="evenodd" clip-rule="evenodd" fill="#ffd624" class="fill" d="M62.637,94.537c-0.721-0.269-1.192-0.444-1.773-0.66
	c-0.112-1.658-0.221-3.276-0.345-5.11c0.795,0.101,1.377,0.175,2.002,0.254c0.371,1.471,0.176,3.126,1.489,4.131
	c1.225,0.937,2.688,0.87,4.142,0.586c0.533,1.139,0.839,2.175,0.226,3.3c-0.994,1.824-2.951,2.054-4.28,0.444
	c-0.349-0.421-0.536-0.98-0.783-1.483C63.072,95.5,62.847,94.991,62.637,94.537z"/>
<path fill-rule="evenodd" clip-rule="evenodd" fill="#ffd624" class="fill" d="M110.531,96.284c1.24-0.178,2.144-0.308,3.288-0.472
	c0.125,0.212,0.436,0.554,0.545,0.952c0.777,2.838,3.7,4.513,6.551,3.719c0.089-0.025,0.195,0.011,0.378,0.023
	c0.557,0.811,0.256,1.595-0.139,2.444c-2.042,0.753-3.919,0.133-5.529-0.979c-1.454-1.006-2.688-2.357-3.924-3.646
	C111.201,97.803,110.952,97.039,110.531,96.284z"/>
<path fill-rule="evenodd" clip-rule="evenodd" fill="#ffd624" class="fill" d="M94.477,97.609c0.453-0.478,0.869-0.917,1.351-1.427
	c1.028,1.137,1.624,2.576,3.193,2.17c1.22-0.315,2.373-0.891,3.729-1.417c0.522,0.481,0.16,1.137-0.269,1.692
	c-1.153,1.495-2.8,1.611-4.475,1.367C96.626,99.793,95.565,98.963,94.477,97.609z"/>
<path fill-rule="evenodd" clip-rule="evenodd" fill="#ffd624" class="fill" d="M96.139,102.593c-0.729,1.089-1.441,1.328-2.631,1.173
	c-0.941-1.039-2.031-2.24-3.15-3.474c0.48-0.867,0.873-1.577,1.292-2.334c0.421,0,0.812,0,1.324,0
	C93.195,99.989,93.741,101.841,96.139,102.593z"/>
<path fill-rule="evenodd" clip-rule="evenodd" fill="#ffd624" class="fill" d="M99.452,125.979c-0.301,0.542-0.596,1.073-0.954,1.715
	c-1.425,0.428-2.273-0.542-3.282-1.461c0.465-0.519,0.864-0.965,1.054-1.176c1.421-0.223,2.558-0.402,3.697-0.582
	c-0.006-0.075-0.011-0.148-0.017-0.223c0.47,0.174,0.939,0.347,1.415,0.523C100.934,125.678,100.934,125.678,99.452,125.979z"/>
<path fill-rule="evenodd" clip-rule="evenodd" fill="#ffd624" class="fill" d="M68.571,102.884c0.699,3.814,0.916,4.01,4.396,4.071
	c0.027,0.799-0.288,1.363-1.038,1.658c-0.807,0.318-1.508,0.066-2.147-0.451c-1.085-0.878-2.265-2.991-2.683-4.916
	C67.584,103.126,68.073,103.006,68.571,102.884z"/>
<path fill-rule="evenodd" clip-rule="evenodd" fill="#ffd624" class="fill" d="M109.592,104.694c0.726,2.928,0.002,3.653-3.789,3.887
	c-0.553-0.349-1.392-0.523-1.254-1.713C106.729,107.371,108.183,106.113,109.592,104.694z"/>
<path fill-rule="evenodd" clip-rule="evenodd" fill="#ffd624" class="fill" d="M48.08,62.5c-1.979,0.727-3.785,1.391-5.845,2.147
	c0.438-1.02,1.108-1.542,1.652-2.156c0.543-0.613,1.09-1.22,1.662-1.86C46.677,60.845,47.335,61.588,48.08,62.5z"/>
<path fill-rule="evenodd" clip-rule="evenodd" fill="#ffd624" class="fill" d="M91.953,118.334c-0.998-0.083-1.703-0.674-2.268-1.731
	c1.599-0.28,3.177-0.459,4.403-1.813c0.255,0.53,0.442,0.918,0.564,1.172C94.34,117.564,93.398,118.205,91.953,118.334z"/>
<path fill-rule="evenodd" clip-rule="evenodd" fill="#ffd624" class="fill" d="M89.391,120.532c1.753,0.366,3.367,1.086,4.908-0.375
	c0.35,0.616,0.64,1.128,0.929,1.638C92.875,123.422,89.963,122.856,89.391,120.532z"/>
<path fill-rule="evenodd" clip-rule="evenodd" fill="#ffd624" class="fill" d="M43.479,65.683c1.691-1.194,3.453-1.938,5.515-2.344
	c0.275,0.67,0.509,1.242,0.818,1.998C47.535,65.461,45.507,65.572,43.479,65.683z"/>
<path fill-rule="evenodd" clip-rule="evenodd" fill="#ffd624" class="fill" d="M83.28,101.769c1.245-0.581,1.963,0.486,2.901,0.431
	c0.913-0.054,1.839,0.103,2.976,0.182c-0.28,0.635-0.515,1.168-0.762,1.729C86.203,104.348,84.788,103.221,83.28,101.769z"/>
<path fill-rule="evenodd" clip-rule="evenodd" fill="#ffd624" class="fill" d="M102.292,113.292c0.221,0.594,0.369,0.988,0.487,1.306
	c-1.788,2.246-3.641,2.518-5.602,0.849c0.943-0.104,1.89-0.026,2.672-0.347C100.657,114.77,101.305,114.049,102.292,113.292z"/>
<path fill-rule="evenodd" clip-rule="evenodd" fill="#ffd624" class="fill" d="M100.818,128.748c0.565-0.729,1.059-1.366,1.595-2.058
	c0.731,0.132,1.417,0.255,2.127,0.382c0.381,1.154-0.5,1.638-1.132,2.102C102.554,129.804,101.676,129.522,100.818,128.748z"/>
<path fill-rule="evenodd" clip-rule="evenodd" fill="#ffd624" class="fill" d="M125.381,111.013c-1.835-0.296-1.957-0.407-2.141-1.943
	c1.637,0,3.26,0,4.884,0c0.042,0.062,0.085,0.122,0.127,0.183C127.298,109.838,126.343,110.423,125.381,111.013z"/>
<path fill-rule="evenodd" clip-rule="evenodd" fill="#ffd624" class="fill" d="M121.431,109.185c-0.833,1.139-1.969,1.602-3.297,1.538
	c-0.871-0.042-1.178-0.481-1.499-1.757c0.824,0.072,1.614,0.183,2.405,0.195C119.801,109.171,120.548,108.354,121.431,109.185z"/>
<path fill-rule="evenodd" clip-rule="evenodd" fill="#ffd624" class="fill" d="M79.294,118.771c-0.074,0.344-0.135,0.629-0.186,0.868
	c-1.088,0.32-3.614-3.114-3.667-4.848C77.291,115.52,77.787,117.53,79.294,118.771z"/>
<path fill-rule="evenodd" clip-rule="evenodd" fill="#ffd624" class="fill" d="M75.553,103.255c1.863,0.639,3.708,1.65,5.396-0.335
	c0.211,1.24-0.354,2.188-1.31,2.377C78.544,105.513,76.269,104.483,75.553,103.255z"/>
<path fill-rule="evenodd" clip-rule="evenodd" fill="#ffd624" class="fill" d="M71.283,100.663c1.208,0.458,2.23,0.846,3.329,1.262
	c-0.011,0.643-0.342,1.164-1.079,1.335c-1.38,0.321-1.971-0.746-2.774-1.616C70.949,101.288,71.13,100.947,71.283,100.663z"/>
<path fill-rule="evenodd" clip-rule="evenodd" fill="#ffd624" class="fill" d="M82.105,120.589c1.755,0.9,3.379,1.077,4.983,0.466
	c0.451,0.825,0.12,1.215-0.443,1.5C85.194,123.291,83.091,122.492,82.105,120.589z"/>
<path fill-rule="evenodd" clip-rule="evenodd" fill="#ffd624" class="fill" d="M69.881,96.879c0.472,0.181,0.877,0.336,1.247,0.479
	c-0.016,0.235,0.02,0.389-0.034,0.43c-0.988,0.768-1.956,1.565-2.993,2.262c-0.635,0.427-1.358,0.377-2.146-0.194
	C67.718,99.49,68.749,98.288,69.881,96.879z"/>
<path fill-rule="evenodd" clip-rule="evenodd" fill="#ffd624" class="fill" d="M109.475,100.589c-0.897,0.93-1.813,0.923-2.787,0.595
	c-0.693-0.234-1.303-0.544-1.282-1.474c0.616,0,1.17,0.049,1.711-0.014c0.495-0.058,0.976-0.237,1.583-0.394
	C108.924,99.676,109.175,100.092,109.475,100.589z"/>
<path fill-rule="evenodd" clip-rule="evenodd" fill="#ffd624" class="fill" d="M111.186,116.501c-2.194,1.367-4.134,0.829-5.049-1.33
	C107.782,115.604,109.381,116.025,111.186,116.501z"/>
<path fill-rule="evenodd" clip-rule="evenodd" fill="#ffd624" class="fill" d="M119.071,95.177c0.534,0.502,0.925,0.904,1.353,1.262
	c0.418,0.35,0.873,0.654,1.453,1.083c-1.773,0.497-3.122,0.058-4.448-1.045C118.003,96.022,118.507,95.623,119.071,95.177z"/>
<path fill-rule="evenodd" clip-rule="evenodd" fill="#ffd624" class="fill" d="M99.738,101.977c0.199-0.217,0.33-0.36,0.5-0.546
	c0.521,0.35,1.015,0.681,1.506,1.01c0.535,0,1.043,0,1.627,0c0.308,0.269,0.643,0.562,0.954,0.834
	C103.827,104.637,101.602,104.006,99.738,101.977z"/>
<path fill-rule="evenodd" clip-rule="evenodd" fill="#ffd624" class="fill" d="M70.385,111.018c1.664-0.212,3.009,1.663,4.813,0.311
	c0.025,0.163,0.05,0.327,0.077,0.49c-0.444,0.445-0.887,0.891-1.306,1.311C72.349,113.053,71.328,112.148,70.385,111.018z"/>
<path fill-rule="evenodd" clip-rule="evenodd" fill="#ffd624" class="fill" d="M109.433,113.374c1.433-0.161,2.867-0.322,4.458-0.501
	C112.79,114.75,111.23,114.967,109.433,113.374z"/>
<path fill-rule="evenodd" clip-rule="evenodd" fill="#ffd624" class="fill" d="M81.845,115.395c0.378,0.234,0.755,0.467,1.162,0.719
	c0.783,0.046,1.59,0.093,2.409,0.141c-0.305,1.149-0.868,1.523-1.786,1.078C82.829,116.945,82.057,116.446,81.845,115.395z"/>
<path fill-rule="evenodd" clip-rule="evenodd" fill="#ffd624" class="fill" d="M140.879,106.915c-0.288,0.479-0.502,0.835-0.787,1.31
	c-0.669-0.217-1.242-0.404-2.091-0.68C139.038,106.846,139.786,106.516,140.879,106.915z"/>
<path fill-rule="evenodd" clip-rule="evenodd" fill="#ffd624" class="fill" d="M63.904,104.782c-0.667-1.026-0.893-1.889-0.857-3.072
	c0.614,0.381,1.066,0.659,1.57,0.972C64.386,103.365,64.182,103.966,63.904,104.782z"/>
<path fill-rule="evenodd" clip-rule="evenodd" fill="#ffd624" class="fill" d="M76.222,105.804c0.555,0.332,1.113,0.664,1.669,0.997
	c-0.77,0.558-1.432,0.646-1.981,0.096c-0.162-0.162-0.078-0.569-0.106-0.863C75.943,105.957,76.083,105.881,76.222,105.804z"/>
<path fill-rule="evenodd" clip-rule="evenodd" fill="#ffd624" class="fill" d="M134.441,107.368c-0.562,0.383-1.075,0.731-1.768,1.203
	c0-0.644,0-1.062,0-1.441C133.317,106.562,133.853,106.483,134.441,107.368z"/>
<path fill-rule="evenodd" clip-rule="evenodd" fill="#ffd624" class="fill" d="M116.085,124.642c-0.354,0.4-0.708,0.799-1.17,1.318
	c-0.06-0.368-0.109-0.668-0.184-1.123c0.521-0.066,0.952-0.121,1.39-0.171C116.125,124.669,116.085,124.642,116.085,124.642z"/>
<path fill-rule="evenodd" clip-rule="evenodd" fill="#ffd624" class="fill" d="M141.025,105.222c0.126-0.298,0.254-0.596,0.424-0.998
	c0.286,0.219,0.492,0.378,0.868,0.666c-0.442,0.253-0.734,0.42-1.027,0.588C141.202,105.393,141.113,105.308,141.025,105.222z"/>
<path fill-rule="evenodd" clip-rule="evenodd" fill="#ffd624" class="fill" d="M113.819,119.582c0.385-0.429,0.633-0.704,0.892-0.991
	c0.196,0.23,0.314,0.329,0.299,0.356C114.748,119.431,114.745,119.429,113.819,119.582z"/>
<path fill-rule="evenodd" clip-rule="evenodd" fill="#ffd624" class="fill" d="M52.708,59.788c-0.529-0.242-1.03-0.47-1.642-0.75
	c0.053-0.574,0.101-1.105,0.163-1.776c0.768-0.236,1.474-0.453,2.095-0.643C54.716,57.798,54.53,58.729,52.708,59.788z
	 M53.456,58.179c-0.6-0.503-1.032-1.045-1.658-0.158C52.231,58.735,52.655,59.048,53.456,58.179z"/>
</svg>
