<svg version="1.1" id="svg" xmlns="http://www.w3.org/2000/svg" xmlns:xlink="http://www.w3.org/1999/xlink" x="0px" y="0px"
	 width="200px" height="200px" viewBox="0 0 200 200" enable-background="new 0 0 200 200" xml:space="preserve">
<path class="stroke" fill="#531863"  d="M148.937,110.128c0.42-4.636,1.312-9.206,1.162-13.924c-0.195-6.153-1.526-11.938-4.116-17.487
	c-2.472-5.299-5.668-10.037-10.372-13.617c-2.086-1.588-4.014-3.401-6.572-4.325c-2.794-1.009-5.572-2.019-8.534-2.426
	c-3.369-0.463-6.72-1.216-10.101-1.38c-7.857-0.382-15.536,0.73-23.004,3.325c-5.835,2.028-11.558,4.217-16.396,8.22
	c-2.576,2.131-5.315,4.073-6.81,7.247c-0.576,1.226-1.26,2.528-2.244,3.403c-1.473,1.309-2.128,2.603-1.18,4.397
	c-0.352,0.884-0.674,1.691-1.032,2.592c-2.215-0.029-2.791,1.619-3.304,3.275c-4.082,2.36-8.116,4.693-12.235,7.075
	c-3.595,0.232-4.646,1.357-4.27,4.745c1.272,1.752,3.01,2.939,5.063,3.709c0.719,0.27,1.451,0.518,2.137,0.855
	c2.097,1.031,4.325,1.558,6.621,1.891c2.046,0.296,4.08,0.671,6.13,1.012c0,0.891,0.06,1.604-0.01,2.302
	c-0.263,2.618,0.203,5.173,0.944,7.629c1.198,3.973,3.36,7.33,6.778,9.871c4.044,3.007,9.66,3.679,14.111,0.502
	c2.54-1.813,5.432-2.541,8.429-3.021c0.201-0.032,0.415,0.026,0.708,0.049c0.054,0.475,0.101,0.9,0.152,1.325
	c0.464,3.884,3.75,7.996,7.886,8.705c1.558,0.267,3.186,0.549,4.585,1.227c4.327,2.093,8.703,2.125,13.125,0.6
	c4.429-1.527,8.509-3.799,12.424-6.35c2.807-1.827,5.473-3.878,8.328-5.623c2.904-1.776,5.774-3.59,8.506-5.618
	c0.747-0.554,1.458-1.172,2.109-1.835c2.257-2.3,2.467-4.632,0.68-7.274C148.735,110.862,148.902,110.501,148.937,110.128z"/>
<path fill-rule="evenodd" clip-rule="evenodd" fill="#faae19" class="fill" d="M136.726,116.261c-0.397,0.509-0.715,1.119-1.207,1.51
	c-2.019,1.608-4.055,3.199-6.149,4.706c-3.074,2.212-6.23,4.3-9.678,5.906c-2.348,1.093-4.721,2.018-7.346,2.299
	c-2.113,0.226-3.77-0.465-5.22-1.867c-1.257-1.215-2-2.711-2.428-4.411c-0.683-2.721-0.314-5.454-0.233-8.185
	c0.05-1.7,0.314-3.409,0.213-5.097c-0.254-4.195-2.319-7.492-5.5-10.116c-1.258-1.038-2.466-1.398-5.358-1.969
	c0.396-3.642,0.048-7.108-3.441-9.441c8.129-11.848,18.104-21.024,32.661-24.412c-0.462,1.493-2.635,1.642-2.185,3.697
	c1.354-0.585,2.231-1.583,3.29-2.295c1.091-0.734,2.176-1.477,3.356-2.279c0.627,0.303,1.24,0.599,2.002,0.966
	c-1.744,1.425-3.334,2.725-4.99,4.077c0.31,0.379,0.47,0.575,0.728,0.89c1.9-1.374,3.754-2.713,5.686-4.109
	c0.617,0.322,1.174,0.611,1.98,1.032c-0.943,0.848-1.698,1.53-2.457,2.208c-0.532,0.475-1.089,0.925-1.6,1.422
	c-0.438,0.425-0.652,0.896,0.174,1.472c1.647-1.347,3.324-2.717,5.099-4.167c0.509,0.353,1.024,0.71,1.824,1.265
	c-1.75,1.5-3.325,2.852-4.9,4.204c0.07,0.112,0.141,0.226,0.211,0.339c0.146,0.258,0.293,0.516,0.545,0.96
	c1.725-1.529,3.348-2.971,5.087-4.515c0.473,0.423,0.896,0.802,1.332,1.191c-1.568,2.177-3.938,3.54-4.999,5.994
	c1.434-0.141,2.178-1.172,3.061-1.993c0.916-0.852,1.808-1.73,2.857-2.737c0.459,0.646,0.822,1.159,1.202,1.694
	c-0.831,1.553-1.971,2.731-3.163,3.867c-0.397,0.379-0.867,0.699-1.198,1.126c-0.258,0.336-0.354,0.798-0.364,1.321
	c1.464-0.104,2.075-1.317,2.977-2.066c0.958-0.796,1.757-1.784,2.671-2.734c0.24,0.302,0.472,0.537,0.637,0.812
	c0.336,0.557,0.636,1.135,0.928,1.664c-0.665,1.385-1.801,2.18-2.745,3.162c-0.909,0.947-2.363,1.287-3.084,2.594
	c1.025,0.59,1.672,0.062,2.249-0.374c1.092-0.829,2.119-1.745,3.169-2.63c0.328-0.277,0.64-0.573,1.136-1.019
	c0.441,1.008,0.824,1.883,1.225,2.795c-1.178,1.989-2.97,3.233-4.83,4.405c-0.465,0.293-0.962,0.55-1.373,0.906
	c-0.233,0.203-0.319,0.574-0.328,1.013c2.748-0.67,4.748-2.502,7.024-4.345c0.318,0.983,0.576,1.782,0.857,2.652
	c-2.01,2.73-4.84,4.402-7.712,6.11c0.255,0.453,0.399,0.711,0.582,1.035c2.698-1.321,5.008-3.049,7.39-5.191
	c0.209,1.135,0.363,1.969,0.505,2.734c-2.096,2.434-4.584,4.091-7.334,5.294c0.119,0.877,0.534,1.025,1.063,0.741
	c1.538-0.828,3.068-1.674,4.566-2.571c0.591-0.354,1.09-0.865,1.881-1.507c0,1.222,0,2.124,0,3.016
	c-1.932,2.355-4.795,2.952-7.544,3.932c0.14,0.386,0.225,0.623,0.37,1.026c1.301-0.381,2.578-0.667,3.784-1.134
	c1.156-0.449,2.24-1.087,3.625-1.776c-0.096,0.926-0.176,1.699-0.248,2.402c-2.374,1.8-5.418,1.521-7.905,2.839
	c0.257,1.037,0.827,0.835,1.432,0.67c1.955-0.532,3.917-1.037,5.879-1.544c0.098-0.024,0.214,0.024,0.431,0.054
	c0,0.609,0,1.23,0,1.895c-2.501,0.808-5.092,1.029-7.419,1.98c-0.027,0.795,0.301,0.882,0.839,0.755
	c1.442-0.337,2.888-0.664,4.339-0.962c0.624-0.128,1.264-0.176,2.079-0.285c-0.063,0.716-0.108,1.228-0.147,1.672
	c-0.809,0.394-1.923-0.066-2.111,1.4c0.537,0.08,1.069,0.159,1.754,0.261c-0.166,0.289-0.268,0.708-0.452,0.748
	c-2.738,0.588-4.795,2.366-6.986,3.917c-0.308,0.218-0.689,0.33-1.037,0.492c0.248-0.423,0.494-0.845,0.803-1.374
	c-2.305-0.033-3.754,1.153-3.272,2.66C135.775,116.708,136.25,116.483,136.726,116.261z M117.216,117.53
	c-1.445-0.64-3.873,0.021-4.611,1.169c-0.638,0.991-0.24,2.117,0.919,2.448c1.073,0.308,2.181,0.429,3.095-0.399
	C117.586,119.871,117.604,118.766,117.216,117.53z M122.145,114.031c-2.638,0.58-3.338,1.602-2.557,3.632
	c1.739,0.952,2.729,0.742,4.105-0.932C123.743,115.597,123.598,114.521,122.145,114.031z M124.6,123.681
	c0.403,0.077,0.809,0.292,1,0.169c1.116-0.715,2.301-1.363,3.169-2.463C127.442,120.827,126.106,121.551,124.6,123.681z
	 M106.516,115.831c-1.396,0.762-1.135,2.056-1.388,3.062c-0.134,0.537-0.106,1.338,0.761,1.551
	C106.369,119.605,106.677,117.488,106.516,115.831z M122.409,125.082c-2.083,0.083-3.383,1.034-3.192,2.347
	C120.563,127.062,121.666,126.497,122.409,125.082z M104.681,107.84c0.812-1.377,0.505-2.435-0.881-3.855
	c-0.191,0.135-0.395,0.278-0.635,0.446C103.657,105.538,104.11,106.557,104.681,107.84z M106.239,122.315
	c-0.881,1.189-0.734,1.897,0.638,3.951c0.253-0.071,0.535-0.15,0.937-0.262C107.282,124.758,106.803,123.635,106.239,122.315z
	 M113.684,128.929c1.792,0.224,3.028-0.531,3.211-1.864C115.777,126.96,114.137,127.866,113.684,128.929z M94.675,97.947
	c1.033,0.45,2.038,0.982,3.326,1.01c-0.054-1.491-1.253-1.441-2.07-1.773C95.395,96.967,94.838,97.056,94.675,97.947z
	 M101.682,102.126c0.314-0.174,0.42-0.21,0.495-0.28c0.075-0.071,0.119-0.175,0.175-0.263c-0.975-1.831-1.917-2.331-2.839-1.347
	C100.229,100.86,100.941,101.48,101.682,102.126z M130.415,119.902c1.909-0.403,2.83-1.28,2.951-2.778
	C132.197,117.869,130.878,118.149,130.415,119.902z M139.92,112.905c1.36-0.022,2.234-0.749,3.05-1.732
	C141.321,110.575,140.127,111.243,139.92,112.905z M108.513,127.808c1.133,1.651,2.255,1.851,3.109,0.53
	C110.549,128.354,109.769,127.002,108.513,127.808z M106.123,110.097c-0.184,0.123-0.484,0.221-0.496,0.347
	c-0.096,1.037-0.139,2.081-0.212,3.352C106.627,112.756,106.771,111.73,106.123,110.097z"/>
<path fill-rule="evenodd" clip-rule="evenodd" fill="#faae19" class="fill" d="M92.725,104.674c0.756-1.387,1.454-2.667,2.209-4.051
	c1.348-0.037,2.542,0.638,3.573,1.535c3.984,3.464,5.617,7.798,4.896,13.079c-0.421,3.084-0.717,6.189-0.047,9.315
	c0.517,2.411,1.618,4.419,3.506,5.97c1.671,1.374,3.627,1.658,5.737,1.394c3.564-0.446,6.752-1.899,9.809-3.65
	c5.252-3.007,10.09-6.613,14.804-10.401c1.876-1.508,3.903-2.836,5.92-4.158c0.669-0.439,1.498-0.707,2.292-0.869
	c1.414-0.289,2.318,0.734,1.742,2.039c-0.431,0.976-1.048,1.952-1.822,2.672c-1.157,1.078-2.504,1.958-3.807,2.872
	c-3.277,2.3-6.58,4.566-9.863,6.858c-2.067,1.444-4.075,2.979-6.188,4.353c-3.851,2.505-8.009,4.388-12.578,5.015
	c-2.432,0.333-4.937,0.122-7.293-0.833c-1.75-0.708-3.042-1.971-4.083-3.474c-1.361-1.967-2.071-4.161-2.397-6.567
	c-0.508-3.745,0.118-7.454,0.002-11.177c-0.039-1.203-0.135-2.418-0.355-3.6c-0.375-2.015-1.723-3.398-3.304-4.556
	C94.56,105.768,93.562,105.208,92.725,104.674z"/>
<path fill-rule="evenodd" clip-rule="evenodd" fill="#faae19" class="fill" d="M89.229,89.015c-2.553-1.088-4.961-2.114-7.505-3.199
	c0.348-0.759,0.608-1.474,0.981-2.122c3.515-6.105,7.85-11.471,13.646-15.612c3.588-2.563,7.276-4.89,11.342-6.625
	c1.922-0.82,3.77-1.264,5.889-0.73c2.707,0.681,5.481,1.089,8.226,1.621c0.21,0.041,0.411,0.131,0.816,0.263
	c-0.39,0.217-0.617,0.406-0.877,0.479c-6.673,1.89-12.822,4.874-18.319,9.092c-2.869,2.201-5.557,4.625-7.572,7.722
	c-1.672,2.568-3.536,5.013-5.327,7.502C90.146,87.936,89.709,88.425,89.229,89.015z"/>
<path fill-rule="evenodd" clip-rule="evenodd" fill="#faae19" class="fill" d="M45.068,98.883c3.359-2.935,11.274-7.548,13.449-7.834
	c-2.843,2.259-6.309,3.334-8.744,6.045c0.92,0.577,1.445,0.075,1.974-0.242c2.447-1.465,4.879-2.956,7.325-4.425
	c0.469-0.283,0.947-0.593,1.462-0.741c0.398-0.114,0.863,0.004,1.644,0.032c-2.505,2.536-5.677,3.698-7.653,6.432
	c1.039,0.461,1.443-0.19,1.942-0.549c2.006-1.438,3.999-2.893,6.014-4.317c0.352-0.249,0.786-0.38,1.279-0.611
	c0.398,0.141,0.846,0.3,1.468,0.521c-1.907,1.908-4.451,2.801-5.996,4.837c0.057,0.13,0.114,0.261,0.171,0.392
	c0.365-0.071,0.798-0.041,1.084-0.23c2.099-1.391,4.169-2.827,6.369-4.329c0.554,0.221,1.182,0.47,1.975,0.786
	c-1.521,1.548-3.55,2.139-4.648,3.877c0.653,0.748,1.167,0.21,1.619-0.079c1.521-0.978,3.012-2.005,4.645-3.1
	c0.389,0.154,0.869,0.342,1.408,0.554c-0.798,1.264-2.449,1.476-3.015,2.916c1.202,0.67,1.831-0.243,2.564-0.671
	c0.802-0.468,1.557-1.018,2.381-1.563c0.534,0.166,1.042,0.324,1.675,0.521c-0.415,0.551-0.748,0.996-1.136,1.513
	c1.394,0.958,1.699-0.537,2.798-1.018c3.151,0.981,6.585,2.051,10.302,3.209c-0.504,0.337-0.765,0.554-1.06,0.702
	c-3.578,1.795-7.45,2.325-11.362,2.259c-5.65-0.096-11.302-0.367-16.941-0.743c-2.447-0.163-4.919-0.58-7.278-1.242
	c-1.649-0.462-3.126-1.537-4.678-2.34C45.765,99.268,45.431,99.081,45.068,98.883z"/>
<path fill-rule="evenodd" clip-rule="evenodd" fill="#faae19" class="fill" d="M93.968,62.207c-7.72,5.659-13.17,13.093-17.145,21.886
	c-2.36-0.9-4.576-1.745-6.991-2.666c0.458-0.775,0.785-1.388,1.166-1.966c3.187-4.829,7.426-8.626,11.935-12.16
	c0.73-0.572,1.457-1.16,2.102-1.82c1.433-1.464,3.158-2.302,5.146-2.705c1.203-0.244,2.381-0.608,3.57-0.919
	C93.823,61.974,93.896,62.091,93.968,62.207z"/>
<path fill-rule="evenodd" clip-rule="evenodd" fill="#faae19" class="fill" d="M62.704,80.349c0.814,0.227,1.651,0.394,2.439,0.689
	c4.422,1.657,8.846,3.312,13.243,5.032c2.965,1.16,5.891,2.417,8.828,3.646c0.606,0.254,1.172,0.604,1.777,0.864
	c3.401,1.46,4.235,5.882,3.292,8.434c-0.076,0.206-0.175,0.404-0.242,0.612c-1.185,3.687-4.168,5.265-7.562,6.111
	c-2.325,0.579-4.768,0.687-7.153,1.031c-4.169,0.601-8.359,0.49-12.489-0.095c-4.988-0.706-10.036-1.067-14.919-2.518
	c-2.733-0.812-4.886-2.412-7.018-4.133c-0.281-0.227-0.402-0.65-0.598-0.982c0.107-0.112,0.213-0.223,0.32-0.335
	c0.465,0.303,0.974,0.556,1.387,0.917c2.774,2.435,5.959,3.852,9.669,4.112c6.023,0.422,12.041,0.951,18.066,1.334
	c3.454,0.219,6.927,0.061,10.299-0.735c2.12-0.501,4.18-1.313,6.202-2.146c1.993-0.819,3.381-3.591,3.002-5.742
	c-0.566-3.206-2.267-5.418-5.378-6.477c-2.91-0.988-5.86-1.869-8.731-2.958c-4.409-1.674-8.768-3.477-13.14-5.25
	c-0.527-0.214-0.997-0.57-1.493-0.86C62.571,80.716,62.637,80.532,62.704,80.349z"/>
<path fill-rule="evenodd" clip-rule="evenodd" fill="#faae19" class="fill" d="M88.651,98.619c-0.552-0.16-0.983-0.232-1.369-0.406
	c-3.049-1.37-6.106-2.723-9.127-4.152c-5.006-2.369-9.986-4.792-14.976-7.193c-0.382-0.184-0.759-0.379-1.269-0.636
	c0.329-0.775,0.619-1.458,0.976-2.302c0.696,0.238,1.311,0.409,1.893,0.654c1.666,0.703,3.287,1.52,4.982,2.139
	c3.504,1.279,7.067,2.399,10.561,3.705c1.792,0.67,3.533,1.515,5.213,2.435C87.557,93.969,88.814,96.347,88.651,98.619z"/>
<path fill-rule="evenodd" clip-rule="evenodd" fill="#faae19" class="fill" d="M62.363,109.164c2.058,0.115,3.896,0.217,5.733,0.319
	c0.018,0.118,0.036,0.236,0.052,0.354c-0.361,0.05-0.723,0.133-1.085,0.141c-0.438,0.01-0.877-0.034-1.314-0.07
	c-0.682-0.056-1.211,0.064-1.187,0.94c0.989,0.793,2.232,0.2,3.441,0.619c-0.989,0.934-2.538,0.172-3.329,1.369
	c1.043,1.374,2.56-0.249,3.698,0.674c-0.684,1.547-2.656,0.296-3.5,1.593c1.004,1.628,2.551-0.086,3.757,0.618
	c-0.859,1.187-2.628,0.368-3.465,1.668c1.275,1.126,2.544,0.024,3.904,0.16c0.133,0.296,0.295,0.661,0.432,0.968
	c-0.994,1.191-2.832,0.127-3.745,1.618c1.474,0.883,2.779,0.227,4.134-0.019c0.184,0.304,0.345,0.569,0.516,0.851
	c-0.89,1.116-2.672,0.377-3.515,1.847c1.542,0.938,2.976-0.522,4.485-0.123c-0.351,1.46-2.438,0.778-2.715,2.286
	c1.345,0.732,2.41-0.504,3.667-0.188c-0.439,0.153-0.907,0.255-1.311,0.476c-0.333,0.183-0.589,0.506-1.016,0.889
	c1.117,0.582,1.919,0.296,2.726-0.041c0.533-0.222,1.106-0.6,1.504,0.217c-0.442,0.877-1.854,0.588-2.046,1.865
	c1.484,0.766,2.293-0.64,3.513-1.018c0.217,0.124,0.521,0.298,0.896,0.512c-0.526,0.617-0.977,1.146-1.464,1.716
	c-2.576,0.125-4.611-1.182-6.579-2.593c-0.659-0.473-1.273-1.081-1.729-1.749c-1.967-2.88-3.492-5.968-3.97-9.475
	c-0.207-1.523-0.342-3.056-0.48-4.588C62.323,110.468,62.363,109.928,62.363,109.164z"/>
<path fill-rule="evenodd" clip-rule="evenodd" fill="#faae19" class="fill" d="M104.048,61.066c-1.858,1.04-3.766,2-5.564,3.134
	c-4.252,2.681-7.943,5.992-11.015,9.999c-1.396,1.821-3.007,3.477-4.416,5.288c-1.141,1.465-2.125,3.051-3.182,4.582
	c-0.183,0.265-0.384,0.517-0.609,0.818c-0.329-0.126-0.619-0.236-0.923-0.353c0.037-0.235,0.015-0.421,0.093-0.541
	c1.918-2.931,3.718-5.952,5.808-8.755c2.359-3.165,5.158-5.963,8.215-8.479c2.65-2.182,5.626-3.794,8.841-4.974
	c0.865-0.318,1.749-0.584,2.624-0.874C103.962,60.963,104.006,61.015,104.048,61.066z"/>
<path fill-rule="evenodd" clip-rule="evenodd" fill="#faae19" class="fill" d="M96.263,130.263c-0.589-0.095-1.065-0.173-1.757-0.284
	c-0.201-0.432-0.585-0.934-0.665-1.48c-0.292-2.003-0.667-4.021-0.671-6.033c-0.006-3.343,0.25-6.687,0.402-10.029
	c0.009-0.211,0.081-0.418,0.139-0.705c0.618,0,1.192,0,1.873,0c0.145,0.565,0.273,1.066,0.4,1.562
	c-0.695,0.204-1.226,0.36-2.117,0.624c0.888,0.56,1.438,0.906,2.151,1.356c-0.741,0.305-1.293,0.531-1.847,0.758
	c-0.013,0.135-0.025,0.27-0.039,0.404c0.484,0.226,0.968,0.451,1.485,0.691c0.197,1.009-1.229,0.584-1.294,1.616
	c0.308,0.2,0.728,0.472,1.157,0.751c0.392,1.371-1.337,0.645-1.526,1.723c0.398,0.238,0.873,0.522,1.414,0.845
	c0.016,0.222,0.037,0.491,0.062,0.827c-0.383,0.332-0.777,0.674-1.278,1.109c0.429,0.315,0.76,0.56,1.168,0.86
	c-0.28,0.327-0.571,0.667-0.873,1.019c0.462,0.713,1.774,0.708,1.174,2.226c-0.13,0.071-0.605,0.329-0.809,0.439
	C94.901,129.884,96.406,128.913,96.263,130.263z"/>
<path fill-rule="evenodd" clip-rule="evenodd" fill="#faae19" class="fill" d="M59.463,87.794c5.606,2.55,11.212,5.101,16.818,7.651
	c-0.037,0.114-0.074,0.229-0.111,0.344c-0.723-0.216-1.471-0.371-2.164-0.659c-4.35-1.817-8.699-3.637-13.02-5.525
	c-0.681-0.298-1.563-0.553-1.779-1.462C59.293,88.026,59.378,87.91,59.463,87.794z"/>
<path fill-rule="evenodd" clip-rule="evenodd" fill="#faae19" class="fill" d="M71.988,73.662c-1.562,2.2-3.124,4.4-4.737,6.67
	c-0.377-0.133-0.699-0.247-1.135-0.4c1.45-2.643,3.387-4.664,5.59-6.456C71.801,73.539,71.895,73.601,71.988,73.662z"/>
<path fill-rule="evenodd" clip-rule="evenodd" fill="#faae19" class="fill" d="M78.51,128.987c-0.322-0.022-0.645-0.043-0.968-0.066
	c0-0.123,0-0.246,0-0.369c0.325-0.019,0.65-0.039,0.975-0.058C78.515,128.659,78.512,128.823,78.51,128.987z"/>
<path fill-rule="evenodd" clip-rule="evenodd" fill="#faae19" class="fill" d="M115.37,120.313c-0.525-0.171-1.087-0.355-1.673-0.546
	c0.638-1.389,0.749-1.46,2.176-1.504C116.425,118.942,116.213,119.531,115.37,120.313z"/>
<path fill-rule="evenodd" clip-rule="evenodd" fill="#faae19" class="fill" d="M121.695,114.965c0.295,0.591,0.549,1.098,0.953,1.907
	c-0.842,0.077-1.349,0.123-1.819,0.166C120.412,115.985,120.762,115.484,121.695,114.965z"/>
</svg>
