<svg version="1.1" id="svg" xmlns="http://www.w3.org/2000/svg" xmlns:xlink="http://www.w3.org/1999/xlink" x="0px" y="0px"
	 width="200px" height="200px" viewBox="0 0 200 200" enable-background="new 0 0 200 200" xml:space="preserve">
<path class="stroke" fill="#3b4954"  d="M195.904,96.23c-0.519-0.912-0.087-1.553,0.413-2.178c-1.139-1.245-1.196-2.681-1.003-4.183
	c0.166-1.294,0.286-2.598-0.498-3.764c-0.852-1.267-1.949-2.288-3.401-2.785c-1.859-0.635-3.729-1.319-5.65-1.675
	c-2.618-0.486-5.085-1.399-7.574-2.263c-0.75-0.26-1.44-0.741-2.099-1.204c-1.253-0.877-2.431-1.866-3.704-2.711
	c-1.033-0.688-2.161-1.235-3.244-1.844c-1.19-3.696-2.818-6.996-7.075-8.053c-0.57-0.497-1.182-1.029-1.719-1.497
	c0.289-1.933,0.564-3.772,0.833-5.566c-0.348-0.42-0.582-0.703-0.848-1.022c-2.458,1.928-4.956,3.282-7.907,3.785
	c-0.403-0.295-0.661-0.51-0.942-0.688c-2.366-1.486-4.809-2.819-7.602-3.303c-3.172-0.549-6.334-0.94-9.592-0.601
	c-4.393,0.458-8.818,0.587-13.082,1.922c-1.528,0.479-3.103,0.577-4.704,0.353c-0.658-0.092-1.346-0.072-2.01-0.001
	c-4.562,0.483-9.074,0.295-13.62-0.439c-5.352-0.865-10.76-1.377-16.146-2.023c-1.238-0.148-2.486-0.209-3.729-0.32
	c-2.723-0.243-5.442-0.509-8.167-0.733c-2.25-0.186-4.503-0.449-6.756-0.46c-7.426-0.039-14.735,1.018-22.004,2.469
	c-4.43,0.885-8.815,1.918-13.078,3.405c-2.897,1.01-5.822,2.013-8.57,3.357c-2.969,1.452-5.763,3.271-8.602,4.982
	c-1.894,1.143-3.725,2.4-5.09,4.183c-0.724,0.945-1.292,2.009-1.989,2.978c-2.786,3.872-4.294,8.283-4.942,12.916
	c-0.47,3.359-0.358,6.805-0.426,10.213c-0.028,1.432,0.746,2.086,2.328,2.183c0.773-0.527,1.61-1.069,2.417-1.653
	c0.778-0.563,1.19-1.558,2.119-2.023c0.394,1.589,0.805,3.017,1.091,4.468c0.363,1.839,0.739,3.717,0.303,5.578
	c-0.697,2.975-0.812,5.979-0.811,9.012c0.001,1.273,0.336,2.353,1.103,3.332c0.204,0.261,0.403,0.526,0.68,0.886
	c-0.099,0.654-0.148,1.373-0.324,2.059c-0.417,1.628-0.902,3.237-1.342,4.859c-0.276,1.019-0.596,2.042-0.182,3.104
	c0.574,1.471,1.153,2.94,1.723,4.414c0.881,2.28,1.912,4.519,2.58,6.86c0.501,1.757,1.478,2.752,3.149,3.155
	c2.005,0.483,4.03,0.882,6.04,1.342c2.107,0.481,4.108,0.389,5.898-1.062c0.828,0.105,1.636,0.195,2.44,0.315
	c2.346,0.351,2.854,0.187,3.889-1.931c0.041-0.084,0.122-0.146,0.197-0.234c0.688-0.401,1.362-0.885,2.105-1.207
	c1.806-0.784,2.203-2.237,2.044-3.997c-0.026-0.284-0.077-0.567-0.116-0.848c-1.326-1.477-2.636-2.936-3.844-4.28
	c-0.336-2.455,0.138-4.644,0.521-6.886c2.104,0.81,4.109,1.581,6.4,2.463c0.677,1.5,1.502,3.172,2.185,4.899
	c0.51,1.291,0.863,2.646,1.24,3.986c0.688,2.447,2.295,3.777,4.792,4.141c2.706,0.395,5.402,0.851,8.105,1.265
	c1.466,0.224,2.822-0.03,4.163-0.737c0.667-0.353,1.568-0.477,2.329-0.392c2.04,0.227,4.023,0.147,5.967-0.528
	c1.655-0.575,2.342-1.744,2.051-3.461c-0.063-0.375-0.156-0.748-0.219-1.044c-0.696-0.888-1.476-1.478-2.508-1.726
	c-1.018-0.244-2.021-0.544-3.053-0.825c-0.389-1.063-0.743-2.029-1.188-3.243c4.759,0.164,9.099-0.907,13.46-1.789
	c4.354-0.881,8.686-1.873,13.03-2.817c0.026,0.078,0.095,0.172,0.079,0.249c-0.069,0.328-0.147,0.656-0.25,0.975
	c-1.292,4.018-1.759,8.152-1.823,12.354c-0.03,2.023,0.82,3.494,2.485,4.567c0.522,0.337,1.136,0.635,1.486,1.113
	c0.781,1.068,1.865,1.635,3.064,1.664c2.57,0.061,5.382,0.609,7.022-2.46c1.616-0.149,3.282-0.398,4.953-0.431
	c1.701-0.034,3.13-0.423,4.158-1.819c0.971-0.729,1.942-1.457,2.824-2.118c-0.249-2.373-1.969-3.318-3.499-4.523
	c-0.408-4.895,1.804-8.938,4.152-13.196c0.475,1.063,0.893,1.871,1.198,2.72c0.291,0.811,0.509,1.653,0.679,2.499
	c0.618,3.057,1.215,6.118,1.795,9.182c0.409,2.159,1.472,3.62,3.721,4.269c3.53,1.019,7.111,1.688,10.768,1.741
	c2.225,0.032,4.552,0.182,6.553-1.279c1.198,0,2.397,0,3.648,0c0.594-0.483,1.181-0.961,1.807-1.472
	c-0.117-0.823-0.299-1.57-0.313-2.318c-0.03-1.532-0.645-2.652-1.997-3.41c-1.458-0.819-2.879-1.707-4.39-2.606
	c-0.082-0.844-0.273-1.656-0.214-2.45c0.166-2.244,0.337-4.496,0.688-6.716c0.412-2.602,0.943-5.191,1.568-7.751
	c0.331-1.358,0.622-2.798,1.77-4.024c0.612,0.249,1.22,0.481,1.814,0.742c0.523,0.229,1.01,0.598,1.554,0.72
	c4.174,0.932,8.365,1.901,12.654,1.937c4.077,0.033,8.156-0.272,12.235-0.39c1.137-0.033,2.277,0.07,3.333,0.108
	c0.522,0.622,0.921,1.097,1.469,1.75c0.717,0.066,1.595,0.148,2.496,0.231c0.14,0.444,0.281,0.893,0.46,1.464
	c0.364-0.045,0.696-0.086,1.036-0.128c-0.078-0.745-0.142-1.349-0.213-2.033c0.832-0.402,1.592-0.771,2.402-1.163
	c0.655,1.042,1.253,1.99,1.91,3.035c0.406-0.324,0.643-0.513,0.864-0.689c-0.124-0.509-0.225-0.926-0.325-1.343
	c-0.049,0.027-0.099,0.056-0.147,0.083c-0.386-0.625-0.771-1.249-1.211-1.961c0.607-0.562,1.106-1.023,1.623-1.501
	c0.595,0.645,1.073,1.163,1.586,1.719c0.314-0.224,0.534-0.38,0.881-0.626c-0.492-0.755-0.948-1.456-1.461-2.244
	c0.627-0.587,1.25-1.169,1.818-1.701c0.63-0.039,1.101,0.951,1.744,0.066c-0.239-0.407-0.472-0.806-0.735-1.254
	c0.472-0.583,0.922-1.137,1.333-1.645c0.436-0.099,0.796-0.181,1.232-0.279c-0.126-0.378-0.226-0.678-0.344-1.033
	c1.67-2.507,2.87-5.243,3.647-7.863c0.73-0.882,1.939-0.041,2.467-1.354C197.329,96.412,196.579,96.316,195.904,96.23z"/>
<path fill-rule="evenodd" clip-rule="evenodd" fill="#e5f3a5" class="fill" d="M163.04,77.727c0.574,0,0.847,0,1.211,0
	c0.167-1.355,0.329-2.661,0.521-4.216c1.433,0.62,2.723,1.023,3.846,1.701c1.598,0.964,3.157,2.032,4.577,3.239
	c1.278,1.087,2.688,1.87,4.229,2.403c1.675,0.58,3.41,0.982,5.112,1.485c2.069,0.61,4.173,1.137,6.185,1.901
	c1.874,0.712,3.496,1.856,4.11,3.945c0.147,0.499,0.274,1.032,0.259,1.544c-0.038,1.24-0.306,2.47,0.069,3.715
	c0.095,0.316-0.126,0.727-0.178,0.978c0.286,0.667,0.54,1.258,0.798,1.861c-0.413,0.383-0.715,0.663-1.076,0.998
	c0.247,0.281,0.455,0.518,0.777,0.885c-0.277,1.007-0.58,2.106-0.878,3.193c-0.554,0.161-1.023,0.296-1.618,0.467
	c0.299,0.449,0.502,0.753,0.776,1.165c-0.391,0.599-0.802,1.229-1.206,1.846c-0.491-0.056-0.896-0.102-1.547-0.177
	c0.117,0.563,0.204,0.982,0.322,1.547c-0.286,0.333-0.655,0.764-1.004,1.171c-0.562-0.042-1.055-0.079-1.72-0.129
	c0.13,0.514,0.215,0.854,0.327,1.298c-0.218,0.266-0.485,0.592-0.784,0.956c-0.396,0.073-0.807,0.149-1.29,0.239
	c-0.052,0.394-0.1,0.758-0.175,1.332c-0.513,0.315-1.143,0.703-1.771,1.091c-0.042-0.048-0.083-0.096-0.124-0.144
	c-0.19,0.375-0.381,0.75-0.613,1.207c-0.417,0.185-0.892,0.396-1.418,0.627c-0.235-0.395-0.446-0.751-0.657-1.106
	c-0.16,0-0.32-0.001-0.48-0.001c-0.226,0.348-0.451,0.696-0.668,1.03c-0.633-0.079-1.247-0.156-2.061-0.259
	c-1.785-1.482-3.77-3.002-5.606-4.686c-2.662-2.439-5.447-4.707-8.482-6.658c-2.015-1.295-3.285-2.976-3.496-5.458
	c-0.179-2.102-0.401-4.231-0.938-6.26c-0.56-2.113-1.519-4.121-2.294-6.151c-0.713-0.22-1.242-0.384-1.789-0.553
	c-0.441,0.346-0.811,0.637-1.133,0.889c-0.296,0.97-0.259,1.825,0.407,2.51c2.481,2.557,3.242,5.806,3.767,9.161
	c0.163,1.043,0.372,2.08,0.54,3.123c0.247,1.53,1.11,2.61,2.385,3.436c1.854,1.201,3.686,2.434,5.521,3.663
	c1.886,1.262,3.417,2.914,5.29,4.675c-3.345,0.767-6.465,0.787-9.411,0.971c-0.957-0.583-0.632-2.326-2.324-1.959
	c0.16,0.612,0.301,1.152,0.479,1.829c-0.426,0.039-0.819,0.076-1.141,0.105c-0.667-0.688,0.064-2.156-1.564-2.227
	c0,0.645,0,1.225,0,1.982c-0.619-0.119-1.104-0.213-1.636-0.315c-0.069-0.689-0.129-1.288-0.198-1.981c-0.357,0-0.651,0-1.026,0
	c-0.034,0.58-0.063,1.094-0.102,1.78c-1.728,0.03-3.264-0.686-4.873-0.899c-0.286-0.621,0.583-1.352-0.427-1.774
	c-0.331,0.246-0.702,0.521-1.185,0.88c-0.359-0.149-0.784-0.327-1.224-0.509c-0.044-0.432-0.082-0.796-0.141-1.378
	c-0.623,0.258-1.123,0.464-1.747,0.721c-0.388-0.114-0.888-0.259-1.488-0.434c0.14-0.514,0.271-0.991,0.419-1.536
	c-1.067-0.352-1.271,0.764-2.095,1.025c-0.161-0.039-0.471-0.114-0.8-0.194c0.127-0.629,0.241-1.195,0.365-1.811
	c-1.163-0.236-1.123,1.182-2.384,1c-0.481-0.391-1.23-1.056-2.041-1.638c-0.731-0.524-1.476-1.12-2.31-1.395
	c-1.706-0.564-2.823,0.165-3.347,2.086c0.934,2.274,2.71,3.769,5.083,4.591c1.359,0.472,2.75,0.851,4.129,1.262
	c1.004,0.3,1.057,0.324,1.666,1.058c-0.87-0.132-1.668-0.253-2.606-0.396c0.208,0.437,1.077,1.264,1.558,1.605
	c-0.064,1.049-0.955,0.652-1.609,0.86c0.033,0.35,0.065,0.7,0.105,1.128c-0.329,0.297-0.677,0.613-0.977,0.884
	c-0.706-0.02-1.065-1.141-1.909-0.33c0.185,0.392,0.381,0.811,0.661,1.407c-0.691,0.345-1.343,0.67-2.053,1.025
	c-0.304-0.504-0.52-0.861-0.771-1.278c-0.229,0-0.493,0-0.87,0c0.042,0.584,0.079,1.085,0.127,1.754
	c-0.713,0.142-1.436,0.287-2.245,0.449c-0.081-0.57-0.145-1.013-0.212-1.483c-1.119,0.062-1.048,1.08-1.611,1.745
	c-0.507,0.128-1.137,0.287-1.915,0.483c0.056-0.755,0.1-1.343,0.144-1.935c-0.767-0.014-0.767-0.014-1.81,2.075
	c-0.467,0.039-1.009,0.082-1.7,0.138c0.365-1.144,0.665-2.081,1.021-3.195c-1.91,0.434-1.575,2.311-2.663,3.288
	c-0.272,0-0.678,0-1.21,0c0.36-1.04,0.691-1.994,1.022-2.949c-0.118-0.067-0.236-0.134-0.354-0.201
	c-1.352,0.458-1.272,2.174-2.461,2.952c-0.101,0-0.37,0-0.681,0c0.018-0.207-0.018-0.372,0.049-0.463
	c1.231-1.689,2.117-3.544,2.572-5.584c0.393-1.761,0.491-3.513-0.609-5.188c-0.336,0.058-0.643,0.11-1.072,0.185
	c-1.134,6.473-4.354,12.06-7.476,17.928c-0.859,0-1.853-0.037-2.842,0.008c-1.957,0.088-3.913,0.208-5.867,0.345
	c-0.523,0.037-1.056,0.159-1.223,0.856c0.385,0.554,0.975,0.477,1.537,0.52c2.151,0.167,4.302,0.352,6.419,0.526
	c0.231,0.401,0.394,0.679,0.542,0.935c-0.104,0.126-0.151,0.24-0.217,0.255c-1.173,0.249-2.351,0.47-3.521,0.729
	c-1.406,0.312-2.769,0.013-4.137-0.238c-0.471-0.086-0.943-0.262-1.411-0.247c-0.411,0.014-0.816,0.234-1.417,0.424
	c1.578,1.612,3.447,1.632,5.147,1.742c1.743,0.113,3.518-0.265,5.363-0.436c0.08,1.258,0.164,2.574,0.262,4.107
	c-0.465,0.163-1.077,0.377-1.419,0.497c-3.741-0.362-6.162,1.5-8.451,3.82c-1.132,0.085-2.287,0.203-3.489-0.138
	c-0.635-0.18-1.407,0.037-2.099,0.17c-1.022,0.198-2.028,0.48-3.084,0.738c-0.512-1.366-0.104-2.541-0.074-3.708
	c0.655-0.3,1.271-0.583,1.886-0.865c-0.016-0.121-0.033-0.242-0.049-0.363c-0.481-0.066-0.964-0.132-1.57-0.214
	c0-0.459,0-0.95,0-1.484c0.644-0.151,1.23-0.289,1.817-0.426c0.027-0.101,0.054-0.202,0.081-0.302
	c-0.493-0.261-0.986-0.521-1.568-0.829c0.087-0.382,0.188-0.833,0.263-1.157c0.639-0.623,1.577,0.051,2.121-0.876
	c-0.553-0.231-1.046-0.437-1.628-0.68c0.097-0.425,0.189-0.829,0.295-1.292c0.77-0.135,1.509-0.264,2.268-0.396
	c-0.183-1.044-1.2-0.514-1.688-1.104c0.122-0.333,0.263-0.721,0.464-1.27c0.889,0,1.758,0,2.628,0
	c0.024-0.112,0.048-0.224,0.072-0.336c-0.514-0.277-1.027-0.556-1.68-0.908c0.378-0.338,0.717-0.642,1.02-0.913
	c0.727,0.141,1.36,0.265,2.248,0.438c-0.268-0.567-0.416-0.882-0.602-1.275c0.943-0.604,1.909-1.223,2.914-1.866
	c0.606,0.42,1.186,0.823,1.832,1.272c0.23-0.205,0.42-0.375,0.775-0.691c-0.568-0.357-1.047-0.657-1.687-1.058
	c0.838-0.554,1.345-0.89,1.887-1.249c0.544,0.436,1.024,0.819,1.563,1.251c0.162-0.176,0.309-0.335,0.48-0.521
	c-0.321-0.484-0.609-0.919-0.973-1.466c0.43-0.477,0.869-0.964,1.36-1.509c0.476,0.305,0.9,0.577,1.325,0.849
	c0.451-0.62,0.451-0.62-0.266-1.789c0.303-0.285,0.63-0.591,0.981-0.919c0.503,0.249,0.915,0.451,1.584,0.782
	c-0.079-0.659-0.13-1.088-0.195-1.629c1.726-1.612,4.394-1.736,6.11-3.43c-0.012-1.461-0.295-1.841-1.75-2.413
	c-0.242-0.36-0.478-0.714-0.76-1.136c-0.281,0.094-0.528,0.177-0.852,0.286c0.139,0.468,0.254,0.859,0.371,1.251
	c-0.146,0.12-0.242,0.241-0.366,0.292c-0.398,0.163-0.807,0.299-1.105,0.408c-0.757,0.046-1.124-1.073-1.985-0.336
	c0.11,0.331,0.234,0.71,0.39,1.181c-0.396,0.249-0.792,0.498-1.127,0.709c-0.541-0.103-0.985-0.188-1.546-0.296
	c0,0.506,0,0.86,0,1.303c-0.398,0.325-0.836,0.682-1.25,1.02c-0.604-0.228-0.926-1.122-1.743-0.424
	c0.163,0.415,0.332,0.841,0.541,1.373c-0.388,0.354-0.805,0.736-1.195,1.093c-0.776-0.021-1.189-1.192-2.187-0.479
	c0.347,0.479,0.669,0.924,1.085,1.498c-0.411,0.363-0.822,0.726-1.179,1.041c-0.922-0.167-1.209-1.521-2.306-0.969
	c0.053,0.865,0.053,0.865,0.888,1.735c-2.359,2.262-6.391,4.503-8.814,3.811c0.273-0.509,0.512-0.999,0.79-1.463
	c0.663-1.114,1.384-2.193,2.003-3.33c0.498-0.913,0.753-1.882-0.145-2.812c-0.37,0.129-0.724,0.252-1.072,0.373
	c-0.69-0.121-1.164-1.093-2.186-0.468c0.389,0.479,0.731,0.9,1.222,1.506c-0.411,0.363-0.827,0.73-1.156,1.021
	c-0.729,0.066-1.176-0.859-1.957-0.099c0.262,0.396,0.533,0.809,0.87,1.321c-0.347,0.397-0.716,0.82-1.057,1.21
	c-0.717,0.036-1.2-1.165-2.012-0.172c0.394,0.479,0.779,0.945,1.226,1.489c-0.412,0.528-0.814,1.041-1.177,1.505
	c-0.955-0.146-1.146-1.512-2.284-1.137c-0.145,1.078,0.785,1.355,1.354,1.978c-0.339,0.777-0.898,1.267-1.787,1.333
	c-0.856-0.323-0.911-1.789-2.376-1.529c0.332,0.703,0.603,1.281,0.946,2.011c-0.552,0.221-1.095,0.438-1.698,0.681
	c-0.378-0.645-0.687-1.17-1.033-1.761c-0.27,0.051-0.521,0.099-0.896,0.169c0.207,0.626,0.38,1.153,0.605,1.835
	c-0.692,0.274-1.376,0.545-1.939,0.768c-0.892-0.317-0.679-1.778-1.797-1.564c-0.474,0.737,0.557,1.693-0.473,2.068
	c-1.128-0.09-0.802-1.773-2.254-1.583c0.081,0.604,0.156,1.178,0.247,1.859c-0.354,0.093-0.749,0.195-1.242,0.324
	c-0.399-0.747-0.777-1.454-1.185-2.214c-0.28,0.029-0.543,0.056-0.932,0.096c0.234,0.768,0.438,1.432,0.674,2.206
	c-0.345,0.094-0.634,0.173-1.001,0.272c-0.401-0.921-0.776-1.783-1.176-2.701c-0.297,0.053-0.513,0.091-0.883,0.156
	c0.194,0.835,0.372,1.598,0.579,2.485c-0.644,0.086-1.197,0.159-1.895,0.251c-0.276-1.037-0.534-2.002-0.818-3.072
	c-1.566,0.812-0.358,2.023-0.794,2.98c-0.311,0.035-0.675,0.075-1.188,0.131c-0.233-0.644-0.455-1.251-0.704-1.938
	c-0.174-0.036-0.438-0.09-0.819-0.169c0,0.656,0,1.207,0,1.938c-3.08,0.094-6.07-0.008-9.304-0.371
	c0.688-0.651,1.234-1.144,1.751-1.663c0.568-0.571,0.965-1.203,0.494-2.068c-1.252-0.627-2.621-0.467-3.938-0.502
	c-2.769-0.072-5.361-0.869-7.637-2.305c-2.256-1.422-3.834-3.604-4.906-6.076c-0.438-1.009-0.72-2.085-1.114-3.114
	c-0.427-1.117-0.828-2.269-2.072-2.88c-1.093,0.163-1.55,0.951-1.739,1.524c0.171,1.364,0.306,2.35,0.416,3.338
	c0.239,2.156,0.976,4.099,2.408,5.755c0.754,0.872,1.506,1.746,2.242,2.633c0.173,0.208,0.278,0.475,0.412,0.712
	c-0.409,0.479-0.82,0.354-1.206,0.15c-1.447-0.767-2.908-1.541-3.854-2.945c-0.661-0.983-1.571-1.336-2.768-1.35
	c-0.464,0.414-0.955,0.853-1.45,1.294c0.149,2.335,2.445,2.724,3.595,4.171c-0.171,1.923-0.431,3.878-0.494,5.838
	c-0.063,1.975,0.233,3.917,1.388,5.666c-0.496,0.986-1.005,1.998-1.556,3.092c-1.964-0.73-3.51,0.304-5.089,1.338
	c-1.502-1.116-2.896-0.944-4.164,0.303c-0.444,0.438-0.844,0.92-1.259,1.387c-0.408,0.458-0.81,0.923-1.268,1.446
	c-1.463-0.541-2.851-1.054-4.417-1.634c-0.08-0.98-0.163-2.005-0.244-3.014c0.573-0.232,1.009-0.409,1.464-0.592
	c-0.068-1.296-2.045-0.067-1.928-1.656c0.688-0.142,1.403-0.289,2.125-0.438c-0.315-0.914-0.315-0.914-2.871-0.861
	c-0.227-0.241-0.509-0.542-0.87-0.927c0.791-0.518,1.531-1.005,1.312-2.125c-0.749-0.574-1.972-0.748-2.191-2.084
	c0.396-0.247,0.84-0.524,1.602-1c-0.863-0.269-1.381-0.429-2.055-0.639c0.13-0.354,0.263-0.714,0.425-1.154
	c0.756,0.165,1.395,0.304,2.106,0.458c0.141-1.238-1.133-1.032-1.596-1.774c0.109-0.292,0.25-0.667,0.413-1.1
	c0.799,0.301,1.489,0.561,2.361,0.889c-0.091-1.55-1.814-1.419-2.068-2.675c0.361,0.03,0.676,0.005,0.959,0.088
	c2.547,0.747,5.098,0.754,7.689,0.205c1.167-0.246,2.377-0.284,3.568-0.42c0.419-0.047,0.837-0.105,1.168-0.148
	c0.656-0.735,0.401-1.328,0.009-1.921c-0.425-0.644-1.037-0.977-1.784-1.096c-0.659-0.105-1.317-0.218-2.068-0.342
	c-0.117-0.346-0.249-0.739-0.402-1.191c-0.325,0-0.628,0-1.028,0c0.038,0.46,0.068,0.823,0.11,1.333
	c-0.425,0.054-0.869,0.109-1.317,0.167c-0.282-0.508-0.512-0.922-0.789-1.421c-0.289,0.025-0.583,0.051-0.982,0.087
	c0.129,0.514,0.228,0.91,0.35,1.396c-0.421,0.082-0.777,0.151-1.116,0.216c-0.576-1.384-0.576-1.384-1.514-1.451
	c-0.015,0.272-0.054,0.545-0.037,0.814c0.014,0.221,0.093,0.438,0.164,0.745c-0.325,0.029-0.549,0.049-0.696,0.062
	c-0.401-0.462-0.74-0.853-1.196-1.377c-0.325,0.588-0.52,0.939-0.706,1.274c-2.051-0.234-2.765-0.987-3.395-3.579
	c0.252-0.271,0.531-0.573,0.881-0.948c-0.325-0.229-0.581-0.408-0.871-0.612c0-0.497,0-1.012,0-1.609
	c0.645-0.085,1.241-0.164,1.929-0.254c-0.172-1.024-1.116-0.766-1.736-1.176c0-0.479,0-1.022,0-1.618
	c0.872,0.058,1.651,0.11,2.577,0.173c-0.262-1.452-1.661-0.761-2.269-1.798c0.033-0.277,0.101-0.855,0.179-1.521
	c0.986,0.369,1.81,0.677,2.493,0.933c1.039-0.576,1.135-1.386,0.961-2.128c-0.348-1.486-0.806-2.951-1.294-4.399
	c-1.023-3.036-2.408-5.975-2.303-9.291c0.062-1.938,0.381-3.809,1.225-5.578c0.538-1.126,1.062-2.263,1.502-3.429
	c0.676-1.79,1.713-3.311,3.082-4.638c1.339-1.3,2.617-2.661,3.943-3.975c0.473-0.467,1.015-0.864,1.512-1.308
	c0.95-0.846,1.89-1.7,2.804-2.524c-0.507-1.655-1.038-2.178-2.298-2.245c-0.129,0.352-0.268,0.727-0.405,1.102
	c-0.762,0.156-1.349-1.129-2.143-0.102c0.167,0.333,0.349,0.695,0.545,1.085c-0.198,0.154-0.343,0.267-0.444,0.345
	c-0.969,0.043-1.506-1.627-2.747-0.511c0.479,0.515,0.918,0.987,1.51,1.623c-0.245,0.225-0.443,0.406-0.567,0.52
	c-1.183-0.26-1.307-2.225-3.058-1.355c0.617,0.825,1.146,1.531,1.762,2.354c-0.402,0.341-0.783,0.664-1.159,0.983
	c-0.93-0.431-1.437-1.457-2.593-1.391c-0.457,1.349,1.203,1.452,1.417,2.746c-0.251,0.22-0.668,0.587-1.025,0.901
	c-1.104-0.401-1.34-2.052-2.87-1.52c0.214,1.16,1.243,1.655,1.734,2.608c-0.307,0.34-0.617,0.684-1.015,1.123
	c-0.749-0.542-1.437-1.039-2.216-1.604c-0.156,0.052-0.406,0.134-0.721,0.238c0.259,1.257,1.457,1.542,2.197,2.414
	c-0.236,0.46-0.486,0.945-0.792,1.542c-0.556-0.371-0.978-0.653-1.483-0.991c-0.232,0.111-0.509,0.244-0.923,0.442
	c0.615,0.578,1.132,1.062,1.73,1.624c-0.146,0.385-0.306,0.81-0.454,1.2c-1.007,0.11-1.359-1.491-2.573-0.682
	c0.38,0.936,1.232,1.379,2.1,1.94c-0.216,0.599-0.418,1.163-0.605,1.681c-0.87,0.148-1.601-1.062-2.55,0.06
	c0.385,0.266,0.708,0.507,1.049,0.72c0.323,0.201,0.664,0.373,1.1,0.614c-0.031,0.448-0.062,0.903-0.092,1.315
	c-1.099,0.506-1.799-1.189-2.926-0.299c0.436,1.312,1.861,1.187,2.807,1.961c-0.251,0.335-0.487,0.65-0.585,0.78
	c-1.11,0.413-2.05-1.021-3.056,0.287c0.694,0.348,1.274,0.64,2.067,1.038c-0.602,0.629-1.138,1.191-1.632,1.707
	c-1.394-0.264-1.925-0.837-1.835-2.016c0.31-4.05,1.232-7.925,2.908-11.663c1.135-2.533,2.69-4.752,4.309-6.946
	c0.703-0.953,1.61-1.777,2.517-2.553c1.637-1.398,3.312-2.757,5.035-4.048c0.797-0.599,1.75-0.987,2.619-1.492
	c3.759-2.185,7.73-3.801,11.974-4.817c2.462-0.59,4.821-1.604,7.276-2.233c3.107-0.797,6.251-1.469,9.405-2.058
	c2.306-0.432,4.645-0.767,6.984-0.925c3.254-0.22,6.523-0.313,9.785-0.308c2.249,0.003,4.508,0.171,6.743,0.438
	c1.851,0.222,3.668,0.708,5.505,1.056c3.729,0.704,7.508,1.01,11.269,1.469c2.949,0.36,5.872,0.961,8.793,1.521
	c4.213,0.809,8.461,1.126,12.742,0.974c0.856-0.03,1.702-0.292,2.555-0.422c0.444-0.067,0.897-0.077,1.579-0.131
	c-0.695,1.343-1.261,2.443-1.833,3.539c-0.134,0.255-0.35,0.481-0.428,0.749c-1.126,3.844-3.371,7.404-3.15,11.586
	c0.126,2.389,0.449,4.773,0.802,7.142c0.176,1.183,0.737,1.48,2.051,1.484c0.761-0.427,0.788-1.145,0.692-1.881
	c-0.48-3.722,0.326-7.249,1.582-10.714c0.603-1.666,1.127-3.36,1.74-5.022c1.089-2.954,3.133-4.891,6.053-6.15
	c2.698-1.164,5.508-1.648,8.349-2.101c1.704-0.271,3.426-0.42,5.139-0.634c1.23-0.153,2.463-0.475,3.688-0.445
	c1.523,0.035,3.042,0.343,4.558,0.563c0.269,0.039,0.516,0.223,1.065,0.473c-2.227,0.838-3.788,2.268-5.251,3.73
	c-1.457,1.456-3.487,2.491-4.027,4.748c0.425,2.461,1.776,4.084,4.153,4.85c0.488-0.176,0.937-0.337,1.498-0.541
	c0.294-0.583,0.635-1.21,0.931-1.858c0.857-1.877,1.681-3.771,2.552-5.641c0.251-0.539,0.476-1.188,1.355-1.18
	c0.838,2.016,0.467,4.037,0.124,6.184c-0.382,0.307-0.796,0.711-1.279,1.005c-0.429,0.261-0.933,0.4-1.456,0.614
	c1.491,1.17,3.539,0.179,5.026-2.177c0.841-0.582,1.484-1.078,2.175-1.495c1.396-0.842,2.781-1.713,4.237-2.436
	c1.255-0.624,2.527-0.421,3.672,0.416c1.908,1.394,3.239,3.134,3.368,5.598c0.058,1.102,0.108,2.205,0.18,3.306
	C162.886,76.236,162.966,76.933,163.04,77.727z M125.234,93.96c-0.073-0.318-0.155-0.673-0.223-0.97
	c0.579-0.614,1.741-0.314,1.879-1.5c-0.766,0-1.453,0-2.226,0c-0.067-0.512-0.126-0.961-0.179-1.36
	c0.681-0.447,1.615-0.021,1.96-0.916c-0.419-0.791-1.311-0.066-1.919-0.726c0.09-0.652,0.197-1.426,0.292-2.111
	c0.75-0.255,1.339-0.456,1.928-0.655c-0.009-0.118-0.017-0.236-0.025-0.354c-0.461-0.157-0.922-0.313-1.44-0.49
	c0.134-2.457,2.097-4.616,1.361-7.29c-1.429-0.077-2.391,0.384-3.002,1.633c-0.874,1.782-1.408,3.625-1.651,5.608
	c-0.496,4.037-0.403,8.033,0.449,12.005c0.127,0.591,0.338,1.285,0.752,1.673c1.354,1.271,2.75,2.538,4.773,2.912
	c0.453-0.351,0.91-0.707,1.403-1.09c-0.662-0.846-1.753-1.081-1.847-2.125c0.361-0.439,1.166-0.398,1.155-1.276
	c-0.703,0-1.386,0-2.137,0c-0.258-0.511-0.504-1-0.749-1.483c0.793-0.415,1.443-0.754,2.163-1.131
	C127.062,93.244,126.211,94.357,125.234,93.96z M137.036,85.519c-3.72-3.542-4.631-7.94-4.021-12.892
	c-0.401-0.22-0.794-0.434-1.108-0.605c-1.299,0.756-1.426,0.91-1.6,2.026c-0.674,4.323,0.668,8.135,3.023,11.667
	c0.603,0.902,1.46,1.497,2.731,1.61C136.362,86.769,136.667,86.204,137.036,85.519z M32.379,129.693
	c-0.836-0.047-1.38-0.119-1.921-0.098c-0.86,0.032-1.718,0.187-2.577,0.182c-2.033-0.011-3.988-0.434-5.87-1.22
	c-1.286-0.538-1.937-0.304-2.624,0.944c0.653,0.597,1.374,1.137,2.286,1.315c1.317,0.257,2.648,0.437,3.968,0.676
	c2.034,0.369,4.007,0.083,6.02-0.458C31.835,130.711,32.008,130.387,32.379,129.693z M159.42,70.811
	c-1.515-1.307-3.25-0.925-5.066-0.829c-0.374,0.272-0.88,0.56-1.288,0.951c-1.617,1.551-1.099,4.122,0.985,4.93
	c1.252,0.485,2.579,0.421,3.802,0.056c0.645-0.191,1.267-0.855,1.643-1.465C160.201,73.313,159.993,72.071,159.42,70.811z
	 M32.214,132.404c-1.123-0.427-1.809,0.329-2.598,0.649c-1.19,0.484-2.345,1.072-3.562,1.47c-0.807,0.264-1.702,0.239-2.548,0.401
	c-0.662,0.126-1.295,0.354-1.392,1.161C24.49,138.001,30.63,135.806,32.214,132.404z M191.419,90.349
	c-0.963-2.151-2.622-3.527-4.643-4.447c-0.692-0.315-1.601-0.267-2.234,0.612c0.107,0.458,0.223,0.954,0.353,1.511
	c2.062,0.812,3.6,2.469,5.673,3.317C190.888,90.969,191.124,90.693,191.419,90.349z M109.611,134.703
	c-0.011-0.162-0.023-0.323-0.034-0.484c-0.594-0.04-1.19-0.131-1.782-0.107c-1.328,0.053-2.653,0.201-3.981,0.24
	c-1.146,0.032-2.297-0.062-3.444-0.044c-0.438,0.007-0.872,0.172-1.352,0.274c0.49,1.045,0.49,1.048,1.67,1.254
	C103.797,136.382,106.805,136.225,109.611,134.703z M25.911,132.98c-0.976-1.116-2.226-0.364-3.337-0.612
	c-1.086-0.243-2.205-0.791-3.687-0.236C21.308,133.668,23.565,133.697,25.911,132.98z M149.818,75.196
	c1.001,2.039,3.365,3.328,5.389,2.976c-0.208-0.299-0.326-0.675-0.537-0.737c-1.312-0.389-2.379-1.169-3.469-1.945
	C150.887,75.266,150.384,75.306,149.818,75.196z M183.832,108.202c0.41-0.297,0.629-0.456,0.867-0.629
	c-0.334-1.306-0.653-2.555-1.063-4.154c-0.424,0.523-0.762,0.749-0.757,0.966C182.907,105.657,183.109,106.9,183.832,108.202z
	 M180.771,106.761c0.093,1.288-0.165,2.581,0.477,3.871c0.303-0.082,0.554-0.15,0.783-0.212c0.074-2.003-0.056-3.136-0.484-4.04
	C181.31,106.497,181.073,106.612,180.771,106.761z M182.589,85.717c-0.505-0.594-0.892-0.483-1.259-0.044
	c-0.541,0.648-0.59,1.748-0.12,2.538c0.379,0.637,0.818,1.138,1.777,0.733c-0.323-0.637-0.613-1.21-0.888-1.751
	C182.274,86.664,182.423,86.217,182.589,85.717z M124.449,110.849c-0.501,0.032-0.875,0.057-1.586,0.103
	c0.784,0.948,0.045,2.066,1.107,2.8c0.282-0.209,0.562-0.417,0.857-0.635C124.707,112.396,124.6,111.755,124.449,110.849z
	 M138.716,86.296c-0.663,0.753-1.272,1.446-1.887,2.146c1.11,0.812,1.727,0.415,2.541-1.579
	C139.192,86.708,138.995,86.537,138.716,86.296z M126.006,110.335c0.27,1.01,0.347,1.856,1.26,2.341
	c0.216-0.231,0.397-0.425,0.62-0.664c-0.241-0.594-0.467-1.148-0.715-1.756C126.797,110.281,126.497,110.301,126.006,110.335z
	 M186.602,105.138c0.45-0.323,0.74-0.531,1.059-0.76c-0.589-0.671-1.046-1.191-1.568-1.785c-0.279,0.166-0.527,0.313-0.914,0.542
	C185.642,103.786,186.037,104.342,186.602,105.138z M178.647,107.91c-1.151,0.229-1.42,0.801-1.252,2.535
	c0.337-0.049,0.668-0.098,1.02-0.148C178.499,109.431,178.571,108.691,178.647,107.91z M176.722,103.717
	c0.156-0.468,0.302-0.866,0.42-1.272c0.122-0.42,0.217-0.848,0.354-1.392c-1.188,0.349-1.554,1.012-1.555,2.542
	C176.184,103.633,176.44,103.673,176.722,103.717z M27.945,69.943c-0.276-1.623-0.827-2.034-2.054-1.461
	C26.404,69.188,26.675,70.067,27.945,69.943z M140.323,89.643c0.518-0.732,0.999-1.252,0.734-2.048
	c-1.019-0.208-1.149,0.717-1.635,1.135c-0.085,0.074-0.08,0.252-0.146,0.49C139.61,89.354,139.929,89.483,140.323,89.643z
	 M179.645,102.553c1.033-0.385,1.153-0.934,0.536-2.45C179.162,100.375,179.162,100.375,179.645,102.553z M68.299,109.261
	c1.119-1.332,1.122-1.351,0.491-2.048c-0.463,0.488-0.932,0.98-1.469,1.547C67.564,108.884,67.915,109.063,68.299,109.261z
	 M183.249,98.282c0.55,0.394,1.071,0.765,1.626,1.161c0.374-0.223,0.672-0.401,1.008-0.602
	C184.283,97.553,184.124,97.514,183.249,98.282z M58.844,105.529c0.459-0.422,0.885-0.812,1.345-1.234
	c-1.17-0.759-1.559-0.576-2.096,0.869C58.315,105.272,58.547,105.386,58.844,105.529z M62.118,104.514
	c-0.548,0.56-1.043,1.064-1.591,1.623c1.264,0.537,1.328,0.504,2.155-0.987C62.553,105.003,62.406,104.837,62.118,104.514z
	 M65.235,105.917c-1.22,0.425-1.762,1.039-1.462,1.696c0.249,0.042,0.551,0.094,0.888,0.151
	C64.917,107.15,65.725,106.822,65.235,105.917z M115.776,92.363c-0.985,0.431-1.882,0.324-2.332,1.242
	C114.577,94.332,115.346,94.014,115.776,92.363z M93.503,112.903c0.35,1.016,1.018,1.316,1.949,1.393
	c0.069-0.259,0.125-0.467,0.199-0.744C94.934,113.308,94.579,112.328,93.503,112.903z M77.104,108.602
	c-0.167-0.074-0.335-0.149-0.502-0.223c-0.385,0.517-0.769,1.034-1.288,1.732c0.579,0.117,0.949,0.192,1.485,0.301
	C76.92,109.7,77.012,109.151,77.104,108.602z M116.548,96.029c-0.709-0.772-1.465-0.631-2.195,0.322
	C115.198,96.995,115.271,96.986,116.548,96.029z M141.04,100.658c1.123,0.736,1.95,0.258,2.118-1.169
	C142.221,99.41,141.732,100.051,141.04,100.658z M71.16,109.741c0.439,0.125,0.764,0.219,1.039,0.296
	c1.102-1.357,1.11-1.399,0.347-2.212C72.104,108.437,71.679,109.025,71.16,109.741z M187.314,95.048
	c-1.612-0.258-1.612-0.258-2.206,0.339C186.049,96.164,186.658,96.098,187.314,95.048z M144.766,101.396
	c-0.074-0.121-0.148-0.242-0.223-0.362c-0.889-0.251-1.398,0.303-1.979,0.986c0.265,0.207,0.464,0.361,0.771,0.6
	C143.84,102.188,144.303,101.792,144.766,101.396z M31.957,108.808c1.082,0.492,1.096,0.486,2.099-0.696
	C33.253,107.575,33.128,107.613,31.957,108.808z M20.936,95.189c0.4-0.489,0.761-0.931,1.17-1.432
	c-0.903-0.554-1.295,0.003-1.706,0.403c-0.146,0.141-0.188,0.39-0.257,0.543c0.118,0.159,0.158,0.262,0.231,0.302
	C20.493,95.07,20.634,95.094,20.936,95.189z M33.408,105.876c-1.29-0.43-1.529-0.359-2.14,0.537
	C32.191,106.961,32.191,106.961,33.408,105.876z M39.096,105.553c-0.45,0-0.714,0-1.101,0c-0.123,0.521-0.244,1.033-0.4,1.693
	c0.478-0.037,0.731-0.056,1.013-0.078C38.762,106.657,38.897,106.21,39.096,105.553z M83.726,96.758
	c-0.158-0.693-0.292-1.278-0.44-1.927c-0.388,0.055-0.601,0.085-0.802,0.115C82.496,96.384,82.544,96.463,83.726,96.758z
	 M114.632,90.676c-0.858-0.327-1.538-0.24-2.169,0.435C113.421,91.889,113.924,91.8,114.632,90.676z M29.17,67.978
	c0.372-0.068,0.634-0.117,0.916-0.169c0.091-0.753,0.026-1.344-0.818-1.427c-0.181-0.018-0.383,0.202-0.618,0.337
	C28.822,67.136,28.965,67.481,29.17,67.978z M86.756,95.424c-0.401-0.719-0.69-1.237-1.026-1.839
	c-0.346,0.233-0.56,0.377-0.813,0.548C85.308,94.818,85.412,95.697,86.756,95.424z M188.729,100.06
	c0.814,1.248,1.269,1.278,1.836,0.21C189.722,99.734,189.722,99.734,188.729,100.06z M111.535,87.734
	c1.272,1.016,1.836,0.806,2.091-0.649C112.947,87.296,112.361,87.479,111.535,87.734z M93.015,91.739
	c0.35-0.883,0.123-1.365-0.477-1.558c-0.265-0.084-0.605,0.066-0.911,0.11c-0.016,0.109-0.03,0.218-0.045,0.327
	C92.06,90.993,92.537,91.366,93.015,91.739z M145.418,103.918c1.021,0.556,1.286,0.417,1.707-0.869
	C146.206,102.695,145.784,103.213,145.418,103.918z M117.383,98.863c-1.026-0.307-1.231-0.228-1.657,0.644
	C116.9,99.873,116.9,99.873,117.383,98.863z M88.18,92.43c0.528,0.705,0.984,1.159,1.835,0.829
	C89.325,92.05,89.325,92.05,88.18,92.43z M20.168,92.277c-1.115-0.193-1.276-0.186-1.537,0.296c-0.107,0.199,0.009,0.52,0.022,0.785
	c0.107,0.035,0.214,0.069,0.32,0.104C19.338,93.102,19.701,92.74,20.168,92.277z M173.637,107.609
	c0.774-0.172,1.335-0.537,1.322-1.495C173.807,106.057,173.716,106.824,173.637,107.609z M14.833,101.537
	c0.819,0.325,1.384,0.216,1.83-0.429C15.673,100.523,15.621,100.534,14.833,101.537z M18.383,103.737
	c-0.929-0.371-1.416-0.126-1.854,0.584C17.351,104.783,17.827,104.477,18.383,103.737z M19.682,106.186
	c-0.85-0.533-1.101-0.453-1.859,0.562C18.656,107.194,19.105,106.572,19.682,106.186z M22.744,96.244c0,0.56,0,0.935,0,1.368
	c0.813-0.354,0.813-0.354,1.152-1.264C23.564,96.317,23.257,96.29,22.744,96.244z M23.476,110.461
	c-1.06-0.291-1.503,0.239-2.09,0.952C22.408,111.725,22.971,111.434,23.476,110.461z M41.886,106.493
	c-0.618,0.062-0.944,0.095-1.237,0.125c-0.192,0.763-0.004,1.124,0.795,1.149C41.557,107.441,41.668,107.12,41.886,106.493z
	 M18.86,108.638c1.042,0.485,1.562,0.233,1.919-0.334c0.077-0.121-0.145-0.432-0.268-0.755
	C19.954,107.916,19.516,108.206,18.86,108.638z M118.717,101.778c-0.678,0.246-1.266,0.191-1.115,1.049
	c0.302,0.08,0.635,0.169,1.115,0.296C118.717,102.627,118.717,102.296,118.717,101.778z M97.791,106.07
	c0.618,0.743,0.618,0.743,1.523,0.619C98.898,105.626,98.836,105.602,97.791,106.07z M99.36,103.245
	c0.494,0.668,0.958,1.014,1.809,0.542C100.684,103.053,100.215,102.72,99.36,103.245z M28.574,115.76
	c-0.798-0.363-1.192,0.075-1.586,0.666C27.967,116.834,27.967,116.834,28.574,115.76z M24.287,113.874
	c1.019,0.462,1.019,0.462,1.757-0.636C25.185,112.763,24.797,113.38,24.287,113.874z M80.208,109.83
	c-0.123-0.625-0.203-1.035-0.293-1.489c-0.967,0.199-0.92,0.75-0.928,1.377C79.346,109.751,79.619,109.775,80.208,109.83z
	 M82.262,108.781c0.705,0.396,1.119,0.295,1.23-0.319c0.097-0.534-0.235-0.749-0.853-0.694
	C82.526,108.074,82.403,108.401,82.262,108.781z M190.421,93.491c0.205,0.859,0.628,1.013,1.311,0.682
	C191.45,93.111,191.45,93.111,190.421,93.491z M140.905,90.337c0.808,0.501,1.231,0.617,1.618-0.051
	c-0.09-0.176-0.189-0.371-0.365-0.716C141.771,89.808,141.457,90,140.905,90.337z M95.646,110.458
	c0.332,0.851,0.332,0.851,1.253,0.933C96.901,110.537,96.901,110.537,95.646,110.458z M96.117,89.146
	c-0.584-0.597-1.024-0.985-1.847-0.32C94.795,89.37,95.229,89.664,96.117,89.146z M183.603,94.998
	c0.101-0.082,0.202-0.164,0.303-0.245c-0.101-0.254-0.168-0.696-0.311-0.722c-0.299-0.055-0.643,0.094-0.953,0.203
	c-0.057,0.02-0.04,0.252-0.067,0.473C182.926,94.807,183.264,94.902,183.603,94.998z M178.786,97.093
	c0.123-0.064,0.246-0.129,0.369-0.192c-0.063-0.26-0.041-0.629-0.207-0.759c-0.413-0.328-0.841-0.279-1.196,0.368
	C178.124,96.718,178.455,96.905,178.786,97.093z M170.267,97.604c0.414,0.69,0.819,0.822,1.442,0.428
	C171.48,97.217,171.036,97.21,170.267,97.604z M188.659,98.033c-0.393-0.822-0.776-1.033-1.383-0.385
	C187.797,98.232,187.797,98.232,188.659,98.033z M173.592,99.427c0.583,0.675,0.583,0.675,1.312,0.513
	C174.85,99.017,174.39,99.032,173.592,99.427z M184.574,100.4c-0.475,0.321-0.743,0.504-1.311,0.889
	c0.703,0.181,1.061,0.274,1.618,0.418C184.764,101.203,184.705,100.954,184.574,100.4z M189.383,97.572
	c0.637,0.585,1.107,0.636,1.654,0.118C190.54,97.029,190.075,96.937,189.383,97.572z M178.619,106.078
	c-0.423-0.792-0.81-1.051-1.413-0.287C177.552,106.396,177.942,106.524,178.619,106.078z M136.067,111.758c-0.381,0-0.762,0-1.304,0
	C135.234,112.541,135.591,112.843,136.067,111.758z M175.496,93.579c0.676,0.187,1.042,0.288,1.52,0.419
	C176.734,92.766,176.708,92.755,175.496,93.579z M102.045,100.362c0.612,0.462,1.02,0.676,1.652,0.22
	C103.293,99.958,102.875,99.843,102.045,100.362z M172.043,103.433c-0.143-0.894-0.538-0.966-1.185-0.733
	C170.811,103.543,171.274,103.54,172.043,103.433z M31.743,103.325c0.001-0.123,0.002-0.245,0.003-0.369c-0.422,0-0.844,0-1.477,0
	C30.845,103.827,31.28,103.726,31.743,103.325z M30.249,117.737c0.745,0.501,1.029,0.206,1.261-0.407
	C30.896,116.773,30.596,117.096,30.249,117.737z M97.529,87.344c-0.704-0.938-0.704-0.938-1.199-0.083
	C96.778,87.292,97.154,87.317,97.529,87.344z M45.056,107.548c-0.335-0.021-0.671-0.041-1.244-0.075
	C44.292,108.226,44.588,108.519,45.056,107.548z M171.874,106.501c-0.442-0.956-0.444-0.972-0.947-0.907
	c-0.093,0.012-0.162,0.207-0.336,0.445C170.959,106.171,171.263,106.281,171.874,106.501z M128.86,115.584
	c-0.114-0.813-0.114-0.813-0.94-0.4C128.318,115.353,128.589,115.469,128.86,115.584z M132.36,113.208
	c0.417,0.771,0.697,0.946,1.115,0.529c0.055-0.055,0.054-0.163,0.112-0.366C133.258,113.327,132.946,113.285,132.36,113.208z"/>
<path fill-rule="evenodd" clip-rule="evenodd" fill="#e5f3a5" class="fill" d="M144.115,63.988c-0.499,2.96-1.434,5.367-3.461,7.262
	c-1.295-0.286-1.269-1.428-1.792-2.273C140.547,67.376,142.219,65.788,144.115,63.988z"/>
<path fill-rule="evenodd" clip-rule="evenodd" fill="#e5f3a5" class="fill" d="M21.872,145.221c1.215-1.522,2.116-2.972,3.636-3.769
	c1.636,0.952,1.907,1.524,1.593,3.225C25.618,146.156,23.887,145.642,21.872,145.221z"/>
<path fill-rule="evenodd" clip-rule="evenodd" fill="#e5f3a5" class="fill" d="M111.496,142.403c-1.22,0.64-2.431,0.396-3.559,0.605
	c-0.692-1.152-0.789-2.557-2.131-3.382c0.678-0.345,1.217-0.619,1.746-0.888C109.167,139.67,110.595,140.658,111.496,142.403z"/>
<path fill-rule="evenodd" clip-rule="evenodd" fill="#e5f3a5" class="fill" d="M152.573,65.28c-1.029,0.812-1.872,1.477-2.831,2.233
	c-0.557-1.839-1.06-3.497-1.668-5.508C149.684,63.177,151.035,64.161,152.573,65.28z"/>
<path fill-rule="evenodd" clip-rule="evenodd" fill="#e5f3a5" class="fill" d="M96.415,145.853c0.046-0.828,0.093-1.657,0.147-2.645
	c0.98,0.063,1.771,0.115,2.626,0.171c0.192,1.125,0.368,2.145,0.56,3.264C98.59,146.726,97.593,146.565,96.415,145.853z"/>
<path fill-rule="evenodd" clip-rule="evenodd" fill="#e5f3a5" class="fill" d="M105,140.661c0.872,0.701,1.306,1.507,1.461,2.613
	c-0.801,0.231-1.562,0.452-2.437,0.704c-0.355-0.535-0.686-1.033-0.895-1.347C103.813,141.912,104.389,141.305,105,140.661z"/>
<path fill-rule="evenodd" clip-rule="evenodd" fill="#e5f3a5" class="fill" d="M32.781,141.214c0.074,0.595,0.139,1.113,0.208,1.667
	c-0.248,0.529-0.503,1.074-0.84,1.794c-0.853-1.242-1.57-2.286-2.289-3.333C30.917,140.542,30.917,140.542,32.781,141.214z"/>
<path fill-rule="evenodd" clip-rule="evenodd" fill="#e5f3a5" class="fill" d="M114.249,139.77c-0.37,0.209-0.731,0.412-1.143,0.645
	c-0.72-0.662-1.406-1.29-2.106-1.933C112.14,137.739,112.981,138.081,114.249,139.77z"/>
<path fill-rule="evenodd" clip-rule="evenodd" fill="#e5f3a5" class="fill" d="M35.292,137.684c0.653,0.767,1.074,1.261,1.494,1.755
	c-0.065,0.086-0.131,0.171-0.196,0.258c-0.292-0.063-0.586-0.117-0.875-0.19c-0.316-0.081-0.627-0.18-1.116-0.323
	C34.794,138.763,34.97,138.383,35.292,137.684z"/>
<path fill-rule="evenodd" clip-rule="evenodd" fill="#e5f3a5" class="fill" d="M154.082,71.443c1.5-0.298,2.896-0.913,4.272,0.259
	c0.12,0.332,0.263,0.73,0.393,1.091c-0.259,0.984-0.376,2.054-1.592,2.179c-1.17,0.12-2.458,0.355-3.286-0.834
	C153.245,73.241,153.452,72.331,154.082,71.443z M155.469,73.781c1.261,0.395,1.719,0.219,1.807-0.612
	c0.1-0.356-0.088-0.825-0.456-1.082c-0.82-0.337-1.664-0.149-1.821,0.444C154.938,72.938,155,73.531,155.469,73.781z"/>
</svg>
