<svg version="1.1" id="svg" xmlns="http://www.w3.org/2000/svg" xmlns:xlink="http://www.w3.org/1999/xlink" x="0px" y="0px"
	 width="200px" height="200px" viewBox="0 0 200 200" enable-background="new 0 0 200 200" xml:space="preserve">
<path class="stroke" fill="#561906"  d="M194.642,67.857c-1.094-0.949-2.168-1.923-3.28-2.851c-0.532-0.444-1.088-0.901-1.709-1.192
	c-1.195-0.562-1.911-1.481-2.58-2.592c-2.057-3.42-4.04-6.903-6.794-9.845c-0.639-0.682-1.281-1.363-1.941-2.065
	c1.244-1.767,2.095-3.51,1.604-5.659c-0.471-2.056-1.639-3.593-3.308-4.682c0.319-1.442,1.7-2.466,1.019-4.034
	c-2.085-0.305-3.564,1.299-5.266,1.564c-0.858-0.396-1.57-0.725-2.283-1.052c-0.883-1.631,0.051-3.799-1.521-5.407
	c-1.607,1.103-3.118,2.137-4.692,3.216c-2.9-1.27-5.856-0.9-8.797-0.176c-0.903,0.223-1.857,0.506-2.61,1.022
	c-1.279,0.876-2.577,1.143-4.096,0.952c-1.644-0.208-3.269-0.026-4.792,0.905c0.121,0.405,0.229,0.759,0.342,1.135
	c-1.288,0.529-2.762,0.073-3.955,1.026c0.219,0.38,0.403,0.7,0.669,1.161c-4.917,0.836-8.876,3.295-12.723,6.715
	c0.472,0.235,0.88,0.439,1.551,0.774c-2.231,1.059-4.13,1.925-5.996,2.856c-1.56,0.777-3.2,1.47-4.59,2.493
	c-1.767,1.299-2.731,3.29-3.53,5.298c-0.524,1.316-1.401,2.322-2.613,2.914c-1.201,0.585-2.507,1.012-3.811,1.323
	c-5.003,1.194-10.058,1.638-15.14,0.547c-2.729-0.586-5.441-1.266-8.138-1.991c-2.804-0.756-5.621-1.467-8.531-1.505
	c-2.841-0.038-5.69,0.036-8.526,0.208c-5.273,0.319-10.229,1.732-14.69,4.65c-0.788,0.515-1.53,1.102-2.244,1.621
	c-1.766-0.452-3.423-0.686-5.136-0.259c-3.787,0.945-6.952,2.961-9.776,5.575c-0.283,0.263-0.442,0.659-0.662,0.992
	c-1.603,2.426-2.934,4.984-3.937,7.723c-1.37,3.748-3.386,7.225-4.633,11.029c-0.307,0.936-0.939,1.767-1.241,2.704
	c-1.567,4.857-3.494,9.557-6.09,13.957c-3.445,5.841-8.706,9.048-15.257,10.332c-0.342,0.067-0.661,0.247-1.149,0.437
	c0.324,0.302,0.448,0.522,0.6,0.543c2.693,0.38,5.341,0.235,8.064-1.038c-2.682,4.912-3.42,10.49-2.894,12.57
	c0.343-0.568,0.649-0.937,0.808-1.361c0.614-1.637,1.254-3.27,1.749-4.944c0.773-2.609,2.205-4.796,4.032-6.759
	c0.209-0.225,0.505-0.369,0.982-0.708c-0.435,1.988-1.018,3.609-1.898,5.121c-0.28,0.481-0.65,0.948,0.267,1.478
	c0.904-0.742,1.851-1.518,2.774-2.276c0.355,0.279,0.688,0.542,1.118,0.881c0.709-0.504,1.349-0.958,2.174-1.544
	c-0.464,1.871-0.87,3.502-1.286,5.183c0.393,0.247,0.74,0.465,1.095,0.688c-0.519,1.304-1.024,2.497-2.034,3.387
	c-1.883,1.664-3.879,3.149-6.261,4.045c-0.337,0.127-0.635,0.36-1.024,0.588c0.99,0.599,1.006,0.631,1.719,0.286
	c1.167-0.566,2.302-1.202,3.469-1.769c3.134-1.523,5.648-3.743,7.541-6.661c0.634-0.978,1.205-1.996,1.966-3.262
	c0,2.145,0,4,0,5.861c0.902,0.527,1.301-0.121,1.477-0.704c0.43-1.426,0.773-2.884,1.057-4.348c0.229-1.185,0.313-2.398,1.147-3.58
	c0.088,0.384,0.162,0.572,0.169,0.762c0.062,1.796,0.119,3.591,0.164,5.388c0.014,0.541-0.131,1.146,0.938,1.285
	c1.456-2.851,1.459-6.128,2.253-9.284c0.947,0.675,1.651,1.781,3.104,1.619c-0.054-0.425-0.082-0.763-0.141-1.095
	c-0.446-2.555-1.193-5.078-1.04-7.701c0.298-5.081,0.148-10.184,1.114-15.231c0.905-4.732,1.947-9.394,4.242-13.676
	c0.497-0.927,0.808-1.993,1.797-2.625c-0.319,1.146-0.762,2.238-1.185,3.338c-1.122,2.917-1.481,5.877-0.662,8.955
	c1.231,4.632,2.417,9.278,3.568,13.932c0.225,0.905,0.365,1.888,0.267,2.806c-0.184,1.735-0.478,3.47-0.889,5.166
	c-0.947,3.913-2.578,7.548-4.779,10.918c-1.049,1.605-1.753,3.282-1.211,5.222c1.088,3.895,1.31,7.874,1.268,11.884
	c-0.032,3.023-0.296,5.986-1.899,8.673c-0.352,0.59-0.516,1.297-0.731,1.961c-0.37,1.138-0.213,2.217,0.683,3.031
	c1.268,1.153,1.623,2.614,1.536,4.209c-0.064,1.186-0.296,2.363-0.512,3.989c0.285,0.208,0.803,0.585,1.299,0.945
	c0.305,1.009-0.155,2.131,0.569,3.12c4.897-0.131,9.804-0.262,14.913-0.398c-0.376-2.571-2.09-4.237-3.171-6.33
	c0.737-1.044,0.269-2.032-0.415-2.951c-0.447-0.598-0.963-1.147-1.478-1.69c-0.868-0.916-1.213-1.921-1.177-3.244
	c0.116-4.184,1.047-8.221,1.979-12.26c0.275-1.197,0.716-2.413,1.343-3.463c1.379-2.311,2.924-4.521,4.406-6.77
	c0.664-1.007,1.337-2.006,2.006-3.009c0.276,0.393,0.319,0.674,0.324,0.956c0.081,4.696,0.063,9.393,0.81,14.056
	c0.422,2.636,0.471,5.207-1.073,7.667c-1.029,1.639-0.524,2.914,1.083,4.127c0.996,0.753,2.017,1.475,3.021,2.218
	c0.722,0.535,1.195,1.206,1.104,2.208c-0.395,1.056-1.059,2.108-0.729,3.423c0.694,0.255,1.375,0.505,2.097,0.77
	c0,0.765,0,1.445,0,2.315c5.146,0.536,10.179,0.157,15.439-0.314c-0.892-3.071-2.518-5.459-4.571-7.661
	c0.436-1.405-0.964-2.163-1.147-3.266c-0.133-0.113-0.168-0.154-0.21-0.175c-0.178-0.089-0.358-0.173-0.537-0.258
	c-2.253-1.07-3.678-2.691-4.196-5.257c-0.853-4.217-0.693-8.453-0.664-12.695c0.006-0.847,0.076-1.692,0.119-2.539
	c0.124-2.471,1.907-4.115,3.053-6.072c0.979-1.675,2.162-3.24,3.042-4.962c1.065-2.083,1.983-4.251,2.825-6.437
	c0.857-2.225,1.55-4.513,2.299-6.778c0.18-0.547,0.298-1.113,0.474-1.784c0.658,0.25,1.164,0.447,1.672,0.635
	c3.138,1.153,6.241,2.419,9.428,3.421c2.374,0.748,4.861,1.135,7.29,1.717c6.756,1.616,13.478,1.368,20.18-0.32
	c0.509-0.127,1.029-0.205,1.627-0.321c0,0.489,0.033,0.783-0.006,1.068c-0.292,2.173-0.599,4.344-0.9,6.515
	c-0.26,1.876-0.464,3.763-0.79,5.628c-0.581,3.327-0.649,6.648-0.243,10c0.19,1.581,0.255,3.185,0.267,4.779
	c0.013,1.696-0.066,3.397-0.18,5.091c-0.08,1.19-0.256,2.378-0.442,3.559c-0.34,2.166-0.736,4.323-1.07,6.489
	c-0.082,0.531-0.013,1.085-0.013,1.712c0.853,0.507,1.657,0.987,2.617,1.56c-0.125,1.943-0.256,3.969-0.392,6.08
	c1.715,1.047,3.634,0.524,5.497,0.874c0.104,1.446,1.259,1.848,2.43,2.223c0.092,0.687,0.178,1.312,0.286,2.116
	c0.74,0,1.434,0.108,2.084-0.019c2.77-0.539,5.555-0.631,8.361-0.453c0.896,0.058,1.796,0.085,2.694,0.092
	c0.425,0.003,0.851-0.076,1.539-0.144c-0.703-2.693-2.271-4.707-3.593-7.038c0.701-1.021,0.441-1.992-0.19-2.921
	c-0.28-0.412-0.624-0.782-0.896-1.199c-1.328-2.041-2.959-3.904-3.492-6.397c-0.316-1.482-0.483-2.929-0.264-4.449
	c0.406-2.814,0.601-5.662,1.078-8.462c0.29-1.706,1.074-3.325,1.405-5.028c0.786-4.045,2.072-7.899,3.771-11.651
	c1.151-2.542,2.177-5.162,3-7.827c0.809-2.625,1.064-5.375,0.879-8.055c1.067-1.55,2.173-2.974,3.083-4.515
	c2.448-4.141,4.07-8.566,4.202-13.438c0.029-1.128,0.349-2.134,0.847-3.139c1.29-2.596,2.479-5.24,3.762-7.837
	c0.794-1.61,1.672-3.178,2.545-4.747c0.315-0.567,0.702-1.116,1.676-1.083c2.745,2.704,6.423,3.587,10.197,4.269
	c0.725,0.131,1.425,0.452,2.107,0.756c1.184,0.53,2.344,1.113,3.512,1.676c0.712,0.343,1.42,0.692,2.047,0.998
	c0.278,1.808,0.476,2.272,1.35,2.864c1.583,1.071,3.335,1.588,5.253,1.422c1.32-0.114,2.479-0.486,2.592-2.004
	c0.941-0.179,1.796-0.261,2.596-0.512c1.152-0.36,2.152-1.063,2.283-2.338c0.182-1.759,1.112-3.04,2.178-4.334
	C196.782,71.744,196.529,69.497,194.642,67.857z"/>
<path fill-rule="evenodd" clip-rule="evenodd" fill="#bf7512" class="fill" d="M182.295,73.385c0-0.448,0-1.133,0-1.974c-0.74,0-1.396,0-2.179,0
	c-0.084,0.521-0.159,0.992-0.256,1.586c0.733,0.684,1.407,1.422,2.188,2.021c2.289,1.759,2.532,2.014,3.916,4.834
	c-0.85,0.742-1.842,0.863-2.734,0.708c-1.548-0.597-2.29-1.657-2.593-3.059c-0.625-2.881-2.595-3.914-5.341-4
	c-1.592-0.049-3.194-0.15-4.761-0.412c-2.775-0.464-5.044-2.093-7.396-3.494c-1.595-0.949-2.202-1.08-4.244-0.644
	c-2.046,2.099-4.039,4.383-5.418,7.121c-0.733,0.257-1.435,0.503-2.159,0.757c-1.385,1.931-1.709,4.139-1.882,6.394
	c-0.208,2.689-0.435,5.376-0.619,8.067c-0.155,2.272-1.509,3.853-2.998,5.367c-0.61,0.62-1.376,0.538-2.114,0.375
	c-0.728-0.161-1.383-0.195-1.971,0.534c0.104,1.361,0.301,2.798,0.311,4.237c0.034,5.194,0.176,10.411-1.706,15.391
	c-0.65,1.721-1.466,3.381-2.055,5.12c-0.687,2.027-1.309,4.087-1.775,6.174c-0.851,3.798-1.646,7.614-2.316,11.448
	c-0.576,3.288-0.99,6.612-0.738,9.966c0.059,0.78,0.302,1.562,0.559,2.309c0.584,1.697,1.187,3.392,1.875,5.049
	c0.24,0.578,0.758,1.04,1.147,1.557c0.289,0.385,0.574,0.774,0.957,1.291c-2.17,1.483-4.167,2.968-6.29,4.238
	c-0.89,0.532-2.052,0.609-3.09,0.893c-0.085-0.094-0.169-0.188-0.254-0.282c0.179-0.478,0.33-0.969,0.541-1.432
	c1.091-2.384,0.817-3.468-1.295-5.018c-0.081-0.059-0.166-0.111-0.249-0.168c-1.988-1.349-2.306-2.041-1.442-4.244
	c0.815-2.079,1.295-4.18,1.122-6.296c0.411-0.581,1.551-0.31,1.185-1.451c-0.37-0.059-0.785-0.125-1.315-0.209
	c0.083-0.875,0.162-1.699,0.231-2.438c0.684-0.541,1.868-0.096,2.049-1.42c-0.695,0-1.307,0-2.019,0
	c-0.094-0.358-0.187-0.716-0.301-1.153c0.931-0.329,1.779-0.629,2.771-0.979c-0.898-1.296-1.906-0.16-2.699-0.493
	c-1.454-2.61-1.74-5.343-0.702-8.42c0.06-0.048,0.352-0.286,0.748-0.606c-0.337-0.437-0.623-0.809-0.956-1.241
	c0-0.533,0-1.127,0-1.768c0.433-0.417,1.511,0.208,1.577-0.983c-0.534-0.198-1.078-0.398-1.707-0.633c0-0.708,0-1.381,0-2.104
	c0.497,0,0.932,0,1.459,0c0.129-0.281,0.259-0.567,0.404-0.883c-0.718-0.185-1.332-0.344-2.01-0.52c0-0.604,0-1.131,0-1.775
	c0.638,0,1.209,0,1.857,0c-0.097-1.347-1.381-0.893-2.096-1.808c-0.09-0.814-0.221-1.98-0.346-3.111
	c0.758-0.543,1.867,0.276,2.325-0.802c-0.563-0.456-0.563-0.456-2.31-0.727c-0.036-0.575-0.074-1.188-0.107-1.744
	c0.708-0.6,1.904-0.006,2.235-1.339c-0.955-0.065-1.825-0.125-2.851-0.196c-0.278-0.579-0.592-1.228-0.988-2.05
	c1.118,0,2.046,0.034,2.97-0.009c0.947-0.044,1.86-0.231,2.541-1.047c-0.348-0.875-0.985-0.577-1.521-0.438
	c-1.696,0.44-3.36,0.259-5.109-0.172c-0.312-0.517-0.639-1.057-1.027-1.7c1.217-0.44,2.275,0.16,3.324,0.032
	c1.027-0.126,2.043-0.336,3.047-0.506c0.062-1.075-0.462-1.13-1.149-1.065c-0.99,0.094-1.988,0.201-2.978,0.17
	c-0.99-0.031-1.977-0.225-3.017-0.353c-0.202-0.367-0.409-0.703-0.574-1.056c-0.143-0.307-0.239-0.635-0.433-1.164
	c0.602,0.052,1.018,0.109,1.436,0.121c1.098,0.032,2.197,0.075,3.295,0.052c0.55-0.011,1.114-0.141,0.977-1.034
	c-2.117-0.157-4.228-0.312-6.419-0.474c-0.326-0.799-0.596-1.463-0.975-2.394c2.216,0.269,4.069,1.302,6.183,0.718
	c-0.097-0.341-0.182-0.642-0.232-0.82c-2.133-0.416-4.134-0.807-6.218-1.214c-0.168-0.701-0.31-1.289-0.499-2.073
	c1.532,0.286,2.837,0.617,4.279,0.204c-0.14-0.358-0.241-0.617-0.306-0.784c-1.49-0.286-2.894-0.556-4.332-0.831
	c-0.083-0.598-0.142-1.022-0.206-1.484c0.958-0.415,2.099,0.884,2.907-0.423c-0.81-0.837-1.964-0.429-2.905-1.022
	c-0.951-1.521-2.345-2.496-4.429-2.358c-0.457,0.519-0.914,1.039-1.407,1.601c-0.092,2.493-0.269,4.983-0.239,7.472
	c0.015,1.229,0.435,2.448,0.627,3.679c0.136,0.862,0.07,1.681-1.014,2.166c-1.082-1.722-1.112-3.748-1.872-5.614
	c-0.292-0.035-0.61-0.074-1.125-0.137c0.045,2.13,0.789,3.965,1.45,6.025c-0.771,0.135-1.513,0.266-2.355,0.414
	c-0.895-1.923-1.389-3.811-1.202-5.948c-0.371-0.042-0.685-0.077-1.051-0.119c-1.043,2.08,0.245,3.943,0.408,6.009
	c-0.522,0.027-0.996,0.051-1.523,0.077c-1.014-1.781-1.312-3.696-1.604-5.791c-0.366-0.044-0.756-0.091-1.216-0.146
	c-0.305,2.077,0.595,3.768,0.988,5.649c-0.792,0-1.485,0-2.099,0c-0.955-1.9-0.148-3.98-1.003-5.764
	c-0.98,0.194-0.829,0.815-0.833,1.331c-0.014,1.289-0.004,2.577-0.004,4.029c-0.602-0.099-1.204-0.199-1.683-0.279
	c-1.124-1.524-0.342-3.628-1.637-4.893c-0.173,0.049-0.346,0.098-0.52,0.146c0.126,1.257,0.25,2.514,0.39,3.918
	c-0.476-0.094-0.833-0.166-1.362-0.27c-0.116-1.307-0.229-2.583-0.351-3.957c-0.184-0.053-0.441-0.126-0.908-0.261
	c0,1.174,0,2.192,0,3.523c-0.982-0.532-1.694-0.919-2.384-1.292c0-0.814,0-1.5,0-2.314c-0.398-0.06-0.75-0.113-1.168-0.175
	c-0.119,0.506-0.207,0.879-0.333,1.415c-0.966-0.53-1.856-1.019-2.72-1.493c-0.096-0.7-0.175-1.284-0.266-1.949
	c-0.33-0.081-0.638-0.158-1.031-0.254c-0.12,0.458-0.215,0.824-0.349,1.334c-0.595-0.181-1.189-0.361-1.799-0.546
	c-0.17-0.57-0.324-1.085-0.488-1.634c-0.273-0.043-0.51-0.082-0.821-0.131c-0.195,0.332-0.377,0.64-0.646,1.098
	c-0.397-0.716-0.71-1.315-1.055-1.895c-0.927-1.555-1.545-1.671-3.207-0.56c0,1.626,0,3.311,0,5.113
	c-0.325,0.197-0.733,0.443-1.388,0.838c0.62,0.321,1.063,0.551,1.609,0.833c-0.028,0.379-0.059,0.802-0.083,1.117
	c-0.783,0.556-1.701-0.623-2.303,0.487c0.402,0.837,1.358,0.67,2.188,1.104c-0.118,0.592-0.237,1.191-0.344,1.725
	c-1.036,0.301-1.586-1.404-2.692-0.363c0.349,1.005,1.386,1.211,2.177,1.943c-0.097,0.453-0.212,1-0.324,1.523
	c-1.169-0.007-1.656-1.78-3.154-0.781c0.867,0.79,1.621,1.478,2.477,2.258c-0.175,0.367-0.348,0.733-0.539,1.137
	c-1.136-0.395-1.77-1.971-3.305-1.023c0.931,0.855,1.787,1.641,2.671,2.452c-0.253,0.54-0.435,0.928-0.655,1.399
	c-1.148-0.513-1.707-2.301-3.435-1.491c0.936,0.96,1.749,1.796,2.629,2.699c-0.369,0.471-0.63,0.804-0.957,1.221
	c-0.631-0.562-1.154-1.084-1.735-1.529c-0.513-0.391-1.048-1.064-1.784-0.219c0.863,0.961,1.713,1.906,2.598,2.892
	c-0.292,0.453-0.497,0.769-0.816,1.264c-0.554-0.604-0.976-1.152-1.489-1.597c-0.478-0.414-1.043-0.852-1.75-0.045
	c0.775,0.824,1.538,1.634,2.396,2.546c-0.518,0.48-1.01,0.936-1.529,1.417c-0.585-0.628-1.092-1.172-1.68-1.803
	c-0.332,0.101-0.669,0.203-1.121,0.339c0.632,0.902,1.162,1.659,1.737,2.48c-0.444,0.37-0.773,0.646-1.256,1.049
	c-0.447-0.627-0.852-1.192-1.257-1.76c-0.534,0.256-0.814,0.39-1.197,0.573c0.488,0.698,0.907,1.298,1.392,1.994
	c-0.311,0.26-0.592,0.496-0.854,0.716c-0.775-0.242-1.088-1.629-2.256-0.668c0.251,0.483,0.495,0.951,0.781,1.503
	c-0.143,0.189-0.311,0.413-0.466,0.619c-0.632,0.17-1.209-0.872-1.835,0.091c0.073,0.233,0.172,0.545,0.229,0.73
	c-0.662,1.104-1.252,2.144-1.896,3.148c-1.237,1.932-2.343,3.979-3.806,5.726c-1.417,1.692-2.182,3.533-2.543,5.642
	c-0.506,2.953-1.087,5.892-1.585,8.846c-0.241,1.427-0.384,2.871-0.544,4.31c-0.202,1.823,0.41,3.33,1.79,4.546
	c0.469,0.413,0.868,0.905,1.323,1.388c-1.797,1.003-7.599,2.638-8.922,2.505c0.233-1.584,0.898-3.114,0.454-4.789
	c-0.43-1.617-1.392-2.853-2.544-4.282c0.128-0.523,0.246-1.197,0.46-1.838c0.616-1.837,1.271-3.659,1.7-5.587
	c0.266-0.196,0.532-0.393,0.86-0.636c-0.272-0.352-0.505-0.651-0.778-1.001c0.08-0.814,0.163-1.653,0.242-2.456
	c0.563-0.261,1.035-0.479,1.871-0.864c-0.805-0.344-1.278-0.545-1.874-0.799c-0.02-0.419-0.042-0.895-0.065-1.398
	c0.796-0.239,1.479-0.445,2.214-0.666c-0.524-1.245-1.592-0.53-2.285-0.89c-0.038-0.614-0.038-0.614,1.608-1.562
	c-0.304-1.281-1.882-0.101-2.461-1.223c1.226-0.311,2.304-0.583,3.454-0.875c-0.562-0.738-0.562-0.738-3.554-0.486
	c-0.093-0.222-0.198-0.473-0.315-0.75c0.578-0.465,1.098-0.882,1.617-1.299c-0.032-0.122-0.063-0.245-0.095-0.367
	c-0.493-0.034-0.987-0.067-1.554-0.105c-0.019-0.326-0.038-0.661-0.06-1.058c0.404-0.206,0.783-0.4,1.284-0.655
	c-0.278-0.325-0.484-0.568-0.746-0.874c0.803-1.831,1.704-3.665,2.417-5.568c1.031-2.751,1.993-5.533,2.854-8.342
	c0.493-1.61,0.874-3.285,1.046-4.956c0.382-3.722-0.291-7.362-1.204-10.958c-0.221-0.87-0.461-1.752-0.835-2.563
	c-1.039-2.247-1.32-4.646-1.155-7.033c0.188-2.724,0.451-5.451,1.181-8.128c1.044-3.834,2.827-7.237,5.286-10.321
	c1.265-1.585,2.783-2.841,4.615-3.74c4.118-2.021,8.464-3.21,12.992-3.882c4.997-0.741,9.847-0.221,14.658,1.202
	c3.732,1.104,7.478,2.178,11.259,3.094c2.581,0.625,5.252,0.643,7.905,0.482c4.004-0.243,7.931-0.893,11.784-2.062
	c1.656-0.502,3.409-0.679,5.11-1.042c2.604-0.554,5.138-1.297,7.233-3.085c0.965,0.659,1.014,2.069,2.263,2.424
	c1.125-0.754-0.072-2.161,0.834-2.964c0.992,0.771,1.993,1.547,2.935,2.279c0.802-0.323,0.773-0.721,0.565-1.272
	c-0.634-1.689-0.092-4.062,1.293-5.147c0.545-0.427,1.349-0.69,2.048-0.719c1.604-0.066,2.875-0.688,4-1.781
	c0.643-0.624,1.387-1.14,2.058-1.736c0.618-0.548,1.199-1.14,1.775-1.692c0.637,0,1.184,0,2.03,0
	c0.401-0.471,0.916-1.076,1.464-1.72c0.523,0,1.07,0,1.447,0c1.518-0.901,2.926-1.657,4.243-2.55
	c0.732-0.495,1.312-1.216,2.04-1.912c1.05,0.067,1.932-0.39,2.538-1.367c0.102-0.166,0.252-0.321,0.415-0.428
	c1.197-0.786,2.404-1.559,3.414-2.21c1.359-3.074,3.853-4.589,6.497-6.373c-0.344,2.603-1.756,4.494-2.547,6.73
	c1.129,0.64,2.105,1.191,3.383,1.915c0.493,0.779,1.123,1.92,1.893,2.958c2.067,2.788,4.548,5.2,7.283,7.306
	c3.054,2.353,5.308,5.295,6.839,8.77c0.747,1.694,1.803,2.954,3.451,3.694c2.343,1.053,3.922,3.064,5.868,4.609
	c1.349,1.071,1.302,2.495,0.17,3.79c-0.427,0.489-0.864,0.97-1.296,1.456c-0.398,0.447-0.794,0.896-1.246,1.406
	c-0.053,0.429-0.114,0.921-0.191,1.548c-0.398,0.36-0.873,0.791-1.382,1.253c-0.643,0.039-1.282,0.076-1.79,0.107
	C186.149,76.601,184.36,75.107,182.295,73.385z M137.072,83.379c-1.231,0.787-1.522,1.717-1.354,2.854
	c0.139,0.938,0.223,1.885,0.385,2.816c0.241,1.38,0.535,2.762,1.365,3.924c0.331,0.464,0.788,0.965,1.295,1.149
	c1.165,0.424,2.395,0.699,3.605,0.397c2.733-2.35,2.481-3.472,1.12-5.83c-1.143-1.979-2.95-3.328-4.853-4.529
	C138.144,83.853,137.595,83.639,137.072,83.379z M165.127,67.471c2.656,2.769,7.825,4.081,11.009,2.813
	c-0.049-0.794-0.725-0.714-1.205-0.794c-2.842-0.475-5.458-1.484-7.8-3.183c-0.271-0.196-0.611-0.294-0.837-0.399
	C165.271,66.103,165.301,66.862,165.127,67.471z M157.914,54.666c-0.475,1.574-0.974,3.026-1.34,4.511
	c-0.211,0.859-0.239,1.769-0.291,2.66c-0.043,0.725,0.341,1.236,1,1.52c0.615,0.263,1.239,0.448,1.928-0.408
	c-0.643-2.517,0.651-5.147,0.413-7.978C159.013,54.862,158.552,54.78,157.914,54.666z M192.674,71.147
	c0.089-0.086,0.18-0.171,0.27-0.257c-0.265-0.384-0.454-0.874-0.81-1.135c-1.327-0.971-2.844-1.26-4.396-0.712
	c-1.481,0.524-1.979,1.767-1.486,3.268c0.431,1.312,2.243,2.291,3.741,2.009c0.062-0.011,0.098-0.159,0.172-0.289
	c-0.299-0.478-0.61-0.975-0.984-1.573c0.272-0.696,0.551-1.411,0.89-2.278C191.064,70.549,191.869,70.849,192.674,71.147z
	 M171.676,50.894c-0.583-1.864-1.739-2.909-3.678-3.021c-1.963-0.112-3.741,0.781-4.47,2.276
	C165.22,53.256,169.61,53.713,171.676,50.894z M46.978,89.677c0.319,0.947,1.005,0.825,1.653,0.505
	c1.732-0.854,3.443-1.75,5.15-2.656c0.474-0.251,0.801-0.621,0.344-1.234c-0.17-0.012-0.402-0.102-0.549-0.026
	C51.388,87.38,49.211,88.518,46.978,89.677z M48.557,94.349c4.056-1.883,5.384-2.981,5.5-4.482c-0.828-0.147-0.804-0.114-1.302,0.24
	c-1.086,0.771-2.201,1.501-3.303,2.251c-0.556,0.379-1.108,0.763-1.785,1.229C48.064,93.927,48.304,94.132,48.557,94.349z
	 M43.729,125.077c-0.586,1.02-1.116,1.94-1.586,2.759c0.722,1.338,0.722,1.338,1.73,1.736
	C45.519,128.594,45.579,126.328,43.729,125.077z M53.117,102.926c1.07-0.909,2.073-1.65,2.935-2.53
	c0.735-0.75,0.585-1.261-0.348-1.827c-1.279,1.183-2.567,2.374-3.984,3.686C52.209,102.49,52.583,102.669,53.117,102.926z
	 M46.733,85.61c0.271,0.731,0.739,0.879,1.345,0.736c1.061-0.251,2.118-0.52,3.182-0.761c0.792-0.179,1.259-0.657,1.547-1.418
	C51.669,83.943,47.947,84.838,46.733,85.61z M54.553,92.837c-0.092-0.109-0.184-0.219-0.275-0.329
	c-0.387,0.316-0.782,0.622-1.16,0.95c-0.412,0.358-0.791,0.756-1.213,1.101c-0.462,0.375-0.955,0.711-1.438,1.059
	c-0.416,0.3-0.839,0.592-1.427,1.006c0.535,0.333,0.844,0.524,1.121,0.696C52.175,96.241,53.829,94.986,54.553,92.837z
	 M55.131,95.555c-0.27,0.107-0.59,0.143-0.768,0.32c-1.122,1.12-2.216,2.27-3.308,3.421c-0.085,0.089-0.083,0.262-0.123,0.407
	c0.136,0.108,0.236,0.229,0.364,0.28c0.175,0.07,0.372,0.089,0.509,0.119C54.382,98.361,55.426,96.961,55.131,95.555z
	 M53.986,105.487c1.647-1.304,3.229-2.366,3.58-4.429c-0.494,0.077-0.95,0.194-1.256,0.476c-1.129,1.034-2.21,2.12-3.301,3.194
	c-0.052,0.051-0.025,0.184-0.045,0.395C53.289,105.238,53.638,105.363,53.986,105.487z M161.778,49.217
	c1.38-0.709,2.366-1.242,3.376-1.727c0.551-0.265,1.074-0.486,0.797-1.303c-2.135-0.001-3.718,0.86-4.992,2.678
	C161.401,49.055,161.729,49.196,161.778,49.217z M130.244,155.415c0.907-1.559,0.543-2.829-0.861-3.712
	c-0.94,0.575-1.198,1.46-1.148,2.749C128.835,154.739,129.5,155.058,130.244,155.415z M52.652,81.307
	c-1.45-0.749-3.457-0.43-4.272,0.615C49.405,82.565,51.358,82.321,52.652,81.307z M52.53,77.865c-0.99-0.189-1.79-0.346-2.532,0.253
	C50.783,79.146,51.506,79.102,52.53,77.865z"/>
<path fill-rule="evenodd" clip-rule="evenodd" fill="#bf7512" class="fill" d="M129.603,50.874c-0.887,0.938-1.773,1.875-2.659,2.812
	c-1.294,1.366-2.223,2.932-2.617,4.887c-0.512,0.362-1.065,0.752-1.692,1.194c-0.136-2.825,3.221-7.178,6.835-9.046
	C129.514,50.772,129.558,50.822,129.603,50.874z"/>
<path fill-rule="evenodd" clip-rule="evenodd" fill="#bf7512" class="fill" d="M144.186,40.907c2.529,0.063,4.948,0.523,7.339,2.098
	c-0.427,0.236-0.707,0.529-0.915,0.485C148.335,43.008,146.186,42.177,144.186,40.907z"/>
<path fill-rule="evenodd" clip-rule="evenodd" fill="#bf7512" class="fill" d="M142.312,47.908c-0.48,0.38-0.744,0.588-1.051,0.831
	c-2.407-1.919-4.687-3.958-7.787-4.9c0.26-0.044,0.559-0.192,0.773-0.114c1.348,0.5,2.729,0.951,3.998,1.613
	C139.604,46.047,140.851,46.971,142.312,47.908z"/>
<path fill-rule="evenodd" clip-rule="evenodd" fill="#bf7512" class="fill" d="M138.493,41.111c2.75,1.522,5.654,2.76,8.339,4.716
	c-0.382,0.235-0.655,0.403-0.798,0.491c-2.636-1.687-5.173-3.311-7.709-4.934C138.381,41.293,138.436,41.203,138.493,41.111z"/>
<path fill-rule="evenodd" clip-rule="evenodd" fill="#bf7512" class="fill" d="M117.764,59.246c0.061-1.237-0.047-2.563,1.32-3.353
	C118.644,57.011,118.204,58.129,117.764,59.246z"/>
<path fill-rule="evenodd" clip-rule="evenodd" fill="#bf7512" class="fill" d="M129.469,50.722c1.032-0.479,2.001-1.156,3.283-0.83
	c-1.049,0.328-2.1,0.654-3.149,0.982C129.558,50.822,129.514,50.772,129.469,50.722z"/>
<path fill-rule="evenodd" clip-rule="evenodd" fill="#bf7512" class="fill" d="M165.011,50.232c1.859-1.912,4.165-1.789,5.205,0.203
	C168.938,52.161,166.417,52.1,165.011,50.232z M168.27,50.612c-0.75-0.942-0.928-0.946-1.452-0.039
	C167.292,50.999,167.757,51.293,168.27,50.612z"/>
</svg>
