<svg version="1.1" id="svg" xmlns="http://www.w3.org/2000/svg" xmlns:xlink="http://www.w3.org/1999/xlink" x="0px" y="0px"
	 width="200px" height="200px" viewBox="0 0 200 200" enable-background="new 0 0 200 200" xml:space="preserve">
<path class="stroke" fill="#6a2906"  fill-rule="evenodd" clip-rule="evenodd" d="M72.422,52.329c3.673-0.441,7.289-0.713,10.793-0.315
	c1.201,1.09,0.824,2.478,1.154,3.64c1.897,0.526,37.354-0.167,39.914-0.832c0.288-0.925,0.617-1.983,1.01-3.242
	c3.2-0.473,6.537-0.735,10.074-0.184c0.31,1.172,0.608,2.299,0.899,3.396c0.788,0.226,1.52,0.435,2.321,0.663
	c-0.395,3.021,0.64,5.934-0.624,8.812c-0.439,0.105-0.91,0.221-1.228,0.296c-0.521,1.133-1.003,2.179-1.612,3.5
	c-0.021-0.228-0.053-0.075,0.008,0.005c2.085,2.716,2.185,5.649,0.981,8.736c-0.206,0.525-0.329,1.082-0.531,1.608
	c-0.849,2.225-0.371,4.303,0.651,6.334c0.478,0.948,0.935,1.909,1.425,2.914c-0.353,0.646-0.644,1.269-1.017,1.839
	c-1.883,2.877-1.78,4.591,0.466,7.265c0.118,0.142,0.196,0.314,0.463,0.751c-0.527,0.436-1.201,0.832-1.643,1.406
	c-0.424,0.551-0.607,1.286-0.897,1.943c0.703,0.61,1.211,1.05,1.833,1.59c-0.379,0.666-0.745,1.296-1.102,1.933
	c-1.124,2.013-1.496,4.065-0.598,6.307c1.176,2.934,1.739,6.015,1.989,9.165c0.185,2.337-0.483,4.209-2.552,5.465
	c-0.15,0.092-0.248,0.269-0.476,0.526c1.453,1.265,2.175,2.838,1.669,4.994c1.131,0.116,2.161,0.222,3.357,0.346
	c0.31,1.588-0.429,3.103-0.519,4.667c-0.088,1.561-0.315,3.114-0.474,4.592c-0.426,0.285-0.729,0.488-1.035,0.692
	c-0.061,0.835-0.119,1.639-0.19,2.605c-3.624,1.044-7.204,0.482-10.996,0.144c-0.012-1.383-0.021-2.666-0.033-4.118
	c-7.398-0.456-14.592-0.115-21.774,0.155c-7.144,0.269-14.312-0.422-21.536,0.454c-0.379,1.413-0.73,2.717-1.044,3.888
	c-2.425,0.951-3.119,0.949-11.023,0.016c-0.22-0.409-0.693-0.912-0.756-1.462c-0.364-3.159-0.865-6.305-0.619-9.517
	c0.278-3.635,0.206-3.639,1.193-5.483c-0.584-0.981-1.257-1.875-1.678-2.875c-0.646-1.53-0.231-3.104,0.195-4.622
	c0.475-1.694,1.007-3.371,1.534-5.049c0.665-2.116,1.082-4.259,0.877-6.496c-0.145-1.574-0.178-3.171-1.746-4.193
	c0.92-1.474,2.229-2.708,1.434-4.548c0.113-0.105,0.226-0.213,0.338-0.32c-0.851-0.624-1.703-1.248-2.713-1.986
	c1.344-0.82,2.614-1.376,2.867-3.242c-0.512-0.723-1.181-1.668-1.903-2.688c0.217-0.255,0.443-0.541,0.691-0.808
	c3.11-3.346,3.783-7.695,1.777-11.855c-0.721-1.497-1.237-3.021-1.204-4.702c0.037-1.878,0.565-3.588,1.631-4.912
	c-0.296-1.018-0.549-1.888-0.884-3.034c-0.196-0.165-0.612-0.515-1.001-0.842c-0.15-1.488-0.347-2.91-0.425-4.337
	c-0.078-1.428-0.038-2.861-0.05-4.446c0.411-0.232,0.942-0.531,1.538-0.865C71.477,54.734,71.327,53.461,72.422,52.329z
	 M86.006,131.007c-0.223-0.521-0.289-0.762-0.418-0.961c-3.187-4.946-2.449-13.97,3.188-18.291c1.77-1.354,3.244-3.138,4.685-4.867
	c0.996-1.195,1.689-2.64,2.544-3.956c1.301-2.005,1.344-5.776-0.042-7.702c-0.803-1.115-1.724-2.16-2.683-3.147
	c-2.011-2.07-4.166-4.004-6.102-6.137c-1.949-2.148-3.014-4.721-3.109-7.69c-0.127-3.9,0.798-7.596,1.93-11.268
	c0.118-0.381,0.169-0.783,0.294-1.377c-0.869,0.064-1.524,0.112-1.944,0.144c-0.787,1.343-1.43,2.444-2.116,3.616
	c1.545,3.272,1.604,4.337,0.396,7.958c-0.437,1.31-0.927,2.605-1.297,3.933c-0.841,3.012-0.955,5.935,1.134,8.593
	c0.396,0.503,0.521,1.219,0.774,1.845c-1.107,1.032-1.638,2.239-1.241,3.499c0.352,1.118,1.135,2.1,1.776,3.225
	c-1,1.029-2.456,1.94-2.004,3.896c0.435,0.581,0.91,1.214,1.418,1.893c-0.413,0.478-0.751,0.84-1.055,1.228
	c-0.839,1.074-1.379,2.285-1.209,3.662c0.284,2.299,0.653,4.587,1.002,6.877c0.199,1.301,0.561,2.59,0.618,3.895
	c0.109,2.5-0.592,4.716-2.758,6.256c-0.233,0.165-0.393,0.434-0.38,0.419c0.72,1.604,1.345,2.998,2.018,4.498
	C82.776,131.033,84.261,131.021,86.006,131.007z M126.123,126.125c-0.147-0.222-0.269-0.53-0.492-0.724
	c-1.548-1.345-1.899-3.076-1.519-4.97c0.309-1.532,0.833-3.021,1.18-4.547c1.038-4.566,1.518-9.072-1.808-13.047
	c0.562-1.096,1.101-2.143,1.532-2.985c-0.126-1.733-1.186-2.536-2.218-3.304c2.197-4.354,2.197-4.354,0.599-6.462
	c0.147-0.3,0.274-0.656,0.478-0.96c1.263-1.904,1.617-4.05,1.77-6.271c0.191-2.786-0.08-5.521-0.819-8.206
	c-0.597-2.168-0.485-4.205,0.967-5.987c-0.562-0.442-1.046-0.823-1.291-1.015c-0.008-1.047-0.014-1.663-0.019-2.372
	c-0.787,0.007-1.534,0.012-2.502,0.021c0.529,1.516,1.01,2.796,1.424,4.099c1.135,3.574,1,7.168,0.092,10.763
	c-0.839,3.324-2.78,6-5.006,8.515c-1.993,2.252-4.275,4.268-5.773,6.931c-2.068,3.678-2.41,7.193,0.943,10.431
	c2.809,2.711,4.971,5.986,6.853,9.413c1.787,3.252,2.63,6.654,1.37,10.32c-0.285,0.83-0.626,1.641-0.885,2.479
	c-0.17,0.553-0.241,1.136-0.392,1.878c1.273-0.01,2.258-0.018,3.176-0.024C124.543,128.812,125.267,127.579,126.123,126.125z"/>
<path fill-rule="evenodd" clip-rule="evenodd" fill="#ffe861" class="fill" d="M118.998,65.208c0.542,0.975,1.077,1.748,1.425,2.597
	c1.59,3.863,1.591,7.734,0.49,11.792c-1.325,4.884-4.551,8.301-8.009,11.626c-1.594,1.533-3.15,3.097-4.101,5.125
	c-0.959,2.048-1.267,4.154-0.371,6.348c0.816,2.001,1.852,3.803,3.43,5.344c1.656,1.615,3.294,3.308,4.616,5.194
	c3.139,4.479,4.483,9.377,2.626,14.79c-0.285,0.832-0.561,1.686-1.721,2.068c-0.671-0.589-1.415-1.229-2.141-1.888
	c-0.976-0.887-1.846-1.924-2.923-2.661c-3.188-2.184-5.844-4.89-8.086-7.96c-3.477,1.09-5.879,3.459-8.33,5.768
	c-2.286,2.154-4.597,4.281-6.906,6.411c-0.172,0.158-0.411,0.244-0.857,0.499c-0.483-1.021-0.938-1.953-1.363-2.9
	c-0.101-0.223-0.086-0.494-0.146-0.738c-1.26-5.198,0.273-9.531,4.054-13.182c1.897-1.833,3.837-3.626,5.649-5.538
	c2.998-3.163,4.121-7.01,3.55-11.28c-0.302-2.259-1.636-4.012-3.393-5.481c-2.119-1.771-4.218-3.578-6.199-5.5
	c-2.779-2.697-4.01-6-3.501-9.914c0.359-2.764,1.087-5.418,2.145-7.987c0.692-1.68,1.845-2.498,3.777-2.471
	c5.783,0.081,11.568,0.023,17.353,0.007C113.016,65.271,115.964,65.232,118.998,65.208z M120.422,76.007
	c-1.186-0.813-2.291-0.785-3.257-0.354c-1.649,0.738-3.209,1.676-4.801,2.541c-3.572,1.939-7.187,3.183-11.301,1.54
	c-1.666-0.665-3.519-0.868-5.289-1.268c-0.786-0.177-1.596-0.268-2.368-0.492c-1.846-0.537-3.587-0.031-4.854,1.478
	c0.651,2.682,0.694,2.858,2.167,4.702c1.772,2.222,3.75,4.206,6.363,5.479c1.008,0.491,1.948,1.15,2.848,1.828
	c1.158,0.87,1.796,1.993,1.762,3.546c-0.062,2.866,0.022,5.735,0.047,8.84c0.542-0.042,1.146,0.091,1.418-0.149
	c0.684-0.605,1.402-1.296,1.766-2.105c0.456-1.009,0.657-2.162,0.81-3.273c0.343-2.489,1.287-4.593,3.522-5.919
	c3.023-1.796,5.311-4.392,7.56-7.002C119.103,82.747,120.07,79.539,120.422,76.007z M102.747,104.781
	c-0.569,0.548-0.989,0.954-1.441,1.389c0.352,0.556,0.606,0.959,0.996,1.577c0.786-0.369,1.513-0.712,2.567-1.207
	C104.015,105.832,103.434,105.352,102.747,104.781z M101.023,112.74c0.384,1.055,1.002,1.347,2.123,0.929
	c0.143-0.489,0.315-1.081,0.505-1.734C102.402,111.491,101.629,111.723,101.023,112.74z M101.435,109.884
	c1.586,0.935,2.004,0.741,2.109-0.978C102.074,108.121,101.718,108.286,101.435,109.884z M101.776,114.818
	c-0.479,0.758-0.821,1.298-1.274,2.014c0.747,0.156,1.205,0.251,1.78,0.369c0.367-0.515,0.703-0.987,1.143-1.606
	C102.81,115.306,102.394,115.109,101.776,114.818z"/>
<path fill-rule="evenodd" clip-rule="evenodd" fill="#ffe861" class="fill" d="M77.857,61.783c-1.63-0.712-3.445-0.027-5.319-0.911
	c1.658-0.691,3.42,0.271,4.764-1.063c-1.478-1.033-3.104-0.211-4.597-0.836c-0.047-0.198-0.11-0.469-0.174-0.743
	c2.686-0.527,49.833-0.985,52.611-0.526c-2.194,0.288-4.353,0.57-6.511,0.854c-0.007,0.154-0.014,0.311-0.021,0.467
	c0.596,0.096,1.195,0.283,1.79,0.271c2.637-0.055,5.271-0.218,7.908-0.242c1.501-0.015,3.008,0.133,4.507,0.263
	c0.452,0.039,0.889,0.261,1.281,0.704c-2.576,0.021-5.156-0.057-7.723,0.09c-2.584,0.148-5.22,0.148-7.675,1.302
	c4.918,0.764,9.883-1.028,14.811,0.57c-0.584,0.083-1.168,0.224-1.755,0.237c-6.032,0.116-12.064,0.244-18.097,0.306
	c-9.117,0.093-18.235,0.096-27.352,0.218c-4.082,0.055-8.161,0.307-12.239,0.463c-0.303,0.011-0.608-0.025-0.942-0.224
	C74.601,62.182,76.463,63.006,77.857,61.783z"/>
<path fill-rule="evenodd" clip-rule="evenodd" fill="#ffe861" class="fill" d="M78.778,137.586c0.658-0.222,1.316-0.442,1.975-0.665
	c0.019-0.123,0.037-0.248,0.056-0.373c-0.413-0.119-0.822-0.327-1.238-0.342c-1.318-0.047-2.638-0.005-3.957-0.034
	c-0.521-0.011-1.041-0.116-1.988-0.231c1.192-0.943,2.149-0.529,3.006-0.636c0.882-0.11,1.87,0.21,3.003-0.899
	c-1.998-0.219-3.599-0.393-5.2-0.568c0.006-0.096,0.013-0.191,0.018-0.287c1.695-0.015,3.391-0.05,5.085-0.037
	c3.88,0.028,7.761,0.143,11.641,0.108c5.647-0.049,11.294-0.188,16.941-0.311c4.263-0.093,8.525-0.257,12.79-0.317
	c1.479-0.021,2.963,0.169,4.438,0.53c-0.367,0.173-0.733,0.347-1.439,0.679c1.643,1.036,3.315,0.201,4.824,0.932
	c-1.786,0.521-3.708-0.112-5.231,1.386c0.429,0.064,0.857,0.184,1.286,0.187c2.638,0.013,5.277-0.01,7.916,0.005
	c0.513,0.004,1.027,0.134,1.563,0.209c-0.075,0.315-0.082,0.378-0.106,0.436c-0.021,0.053-0.052,0.134-0.094,0.144
	c-0.297,0.073-0.598,0.189-0.897,0.186C115.054,137.443,96.941,138.612,78.778,137.586z"/>
<path fill-rule="evenodd" clip-rule="evenodd" fill="#ffe861" class="fill" d="M97.782,129.716c-0.272,0.245-0.525,0.675-0.82,0.706
	c-1.522,0.162-3.056,0.223-4.584,0.317c-0.057-0.141-0.113-0.281-0.169-0.422c0.503-0.589,1.006-1.179,1.572-1.842
	c0.407,0.314,0.725,0.56,1.141,0.88c0.285-0.369,0.534-0.689,0.813-1.05c-0.257-0.415-0.475-0.768-0.786-1.273
	c1.179-1.125,2.345-2.242,3.573-3.415c0.436-0.049,0.92-0.104,1.448-0.163c0.603-1.678,1.374-3.171,3.498-3.216
	c0.749,1.107,1.411,2.087,2.185,3.23c0.002,0.36,0.007,0.9,0.013,1.644c0.679-0.043,1.265-0.08,2.056-0.129
	c0.632,0.482,1.414,1.08,2.225,1.699c-0.977,0.688-0.977,0.688-1.167,1.706c0.158,0.078,0.316,0.201,0.489,0.229
	c0.239,0.04,0.491,0.006,0.805,0.004c0.233-0.435,0.453-0.845,0.661-1.231c1.172,0.24,1.291,1.082,1.237,2.025
	c0.487,0.118,0.909,0.22,1.331,0.322c-0.011,0.096-0.022,0.192-0.034,0.289c-1.919,0.015-3.838,0.03-5.952,0.048
	c-0.189-0.298-0.486-0.761-0.866-1.354c-0.736,0.655-1.176,1.045-1.694,1.506c-0.469-0.154-0.987-0.325-1.561-0.515
	c-1.467,0.685-2.979,1.149-4.535,0.061c-0.206-0.144-0.606-0.011-0.917-0.004c-0.631-1.008-0.631-1.008-1.573-0.286
	C96.631,130.17,97.141,130.312,97.782,129.716z M100.384,128.33c0.765,0.937,1.397,0.866,2.206,0.019
	c-0.288-0.389-0.573-0.775-0.982-1.327C101.09,127.574,100.745,127.942,100.384,128.33z M100.375,124.794
	c0.487,0.96,0.978,1.118,1.826,0.508c-0.314-0.438-0.576-0.801-0.903-1.255C100.934,124.342,100.707,124.525,100.375,124.794z
	 M102.821,121.617c-0.159-0.062-0.318-0.125-0.476-0.186c-0.294,0.343-0.588,0.685-1.018,1.186c0.546,0.155,0.774,0.275,0.999,0.269
	c0.222-0.005,0.441-0.135,0.769-0.249C102.99,122.245,102.906,121.931,102.821,121.617z M98.869,125.974
	c-0.985-0.56-1.444-0.406-1.494,0.648C98.313,126.735,98.313,126.735,98.869,125.974z M105.763,126.932
	c-0.417,0.003-0.832,0.006-1.474,0.013C104.891,127.761,105.3,127.965,105.763,126.932z M104.654,124.202
	c-1.012-0.224-1.323-0.064-1.135,0.729c0.251-0.002,0.46,0.058,0.578-0.02C104.263,124.8,104.363,124.587,104.654,124.202z"/>
<path fill-rule="evenodd" clip-rule="evenodd" fill="#ffe861" class="fill" d="M79.208,121.542c-2.542,1.987-5.735,1.837-8.217-0.402
	c0.45-1.493,0.738-3.19,1.456-4.678c1.352-2.794,1.398-5.69,1.194-8.656c-0.021-0.306-0.069-0.611-0.103-0.908
	c1.356-0.35,1.897-0.229,2.484,0.876C78.306,112.065,79.523,116.614,79.208,121.542z"/>
<path fill-rule="evenodd" clip-rule="evenodd" fill="#ffe861" class="fill" d="M74.243,71.931c2.644,0.098,4.667,1.083,6.138,3.212
	c-1.535,5.175-2.583,10.301-0.042,15.557c-2.095,0.601-4.058,1.141-6.356,0.681c0.262-0.724,0.466-1.342,0.707-1.947
	c1.602-4.015,0.859-7.987-0.125-11.983c-0.341-1.388-0.479-2.831-0.633-4.258C73.889,72.803,74.124,72.383,74.243,71.931z"/>
<path fill-rule="evenodd" clip-rule="evenodd" fill="#ffe861" class="fill" d="M127.289,104.267c2.789,0.225,4.112,1.957,4.564,4.228
	c0.672,3.376,1.053,6.814,1.498,10.232c0.085,0.661-0.107,1.357-0.161,1.936c-2.469,1.886-4.613,1.945-7.152,0.159
	c0.188-0.756,0.345-1.604,0.612-2.415C128.229,113.601,128.842,110.41,127.289,104.267z"/>
<path fill-rule="evenodd" clip-rule="evenodd" fill="#ffe861" class="fill" d="M126.89,88.335c1.866-3.894,2.09-7.786,0.968-11.799
	c-0.303-1.083-0.57-2.193-0.684-3.308c-0.083-0.829,0.108-1.685,0.177-2.535c3.581,0.411,6.002,3.324,5.439,6.556
	c-0.534,3.063-0.458,5.982,1.001,8.785c0.113,0.218,0.157,0.476,0.204,0.721c0.023,0.114-0.023,0.241-0.038,0.359
	C132.187,88.144,128.473,88.817,126.89,88.335z"/>
<path fill-rule="evenodd" clip-rule="evenodd" fill="#ffe861" class="fill" d="M134.121,95.66c-2.38,0.02-4.542,0.037-6.781,0.055
	c0.285-1.559,0.538-2.944,0.798-4.37C129.892,90.867,133.147,93.035,134.121,95.66z"/>
<path fill-rule="evenodd" clip-rule="evenodd" fill="#ffe861" class="fill" d="M73.385,98.98c2.718-0.489,4.055,0.596,5.97,4.854
	c-2.009,0.565-3.922-0.524-6.104-0.097c0.289-0.875,0.511-1.546,0.751-2.272C73.804,100.666,73.595,99.826,73.385,98.98z"/>
<path fill-rule="evenodd" clip-rule="evenodd" fill="#ffe861" class="fill" d="M74.03,93.056c2.542,0.258,4.277,1.467,5.463,3.736
	c-1.898,0.754-3.764,0.287-5.43,0.448C74.051,95.767,74.041,94.438,74.03,93.056z"/>
<path fill-rule="evenodd" clip-rule="evenodd" fill="#ffe861" class="fill" d="M132.355,102.724c-1.664-0.089-3.329-0.178-4.842-0.26
	c-0.014-1.734-0.026-3.22-0.042-5.115c1.8,1.823,3.755,3.057,5.151,4.887C132.533,102.397,132.444,102.561,132.355,102.724z"/>
<path fill-rule="evenodd" clip-rule="evenodd" fill="#ffe861" class="fill" d="M71.869,142.015c-0.045-0.29-0.09-0.585-0.146-0.954
	c1.263-0.443,2.512-0.275,3.745-0.279c1.244-0.004,2.487-0.019,3.857-0.03c-0.013,0.352-0.026,0.688-0.047,1.204
	C76.782,141.976,74.364,141.996,71.869,142.015z"/>
<path fill-rule="evenodd" clip-rule="evenodd" fill="#ffe861" class="fill" d="M127.582,141.126c0.161-0.48,0.291-0.866,0.497-1.48
	c2.283,0.305,4.51,0.603,6.959,0.929C133.638,141.903,130.067,142.106,127.582,141.126z"/>
<path fill-rule="evenodd" clip-rule="evenodd" fill="#ffe861" class="fill" d="M74.575,54.739c2.494-0.02,4.9-0.039,7.366-0.059
	c0.107,0.395,0.181,0.667,0.31,1.145c-2.596,0.021-5.054,0.04-7.667,0.061C74.583,55.614,74.579,55.246,74.575,54.739z"/>
<path fill-rule="evenodd" clip-rule="evenodd" fill="#ffe861" class="fill" d="M127.115,127.968c1.861,0.338,3.428,0.448,4.355,2.152
	c-1.773,0.014-3.387,0.026-5.352,0.043C126.524,129.268,126.803,128.657,127.115,127.968z"/>
<path fill-rule="evenodd" clip-rule="evenodd" fill="#ffe861" class="fill" d="M76.041,131.142c-1.034,0.007-1.829,0.028-2.625,0.014
	c-0.423-0.007-0.847-0.073-1.512-0.135c0.197-0.72,0.36-1.327,0.505-1.856C74.665,128.855,75.23,129.138,76.041,131.142z"/>
<path fill-rule="evenodd" clip-rule="evenodd" fill="#ffe861" class="fill" d="M127.839,54.221c2.217-0.379,4.387-0.263,6.77,0.224
	C133.192,55.433,129.169,55.342,127.839,54.221z"/>
<path fill-rule="evenodd" clip-rule="evenodd" fill="#ffe861" class="fill" d="M134.115,58.021c-1.511-0.118-3.022-0.238-4.534-0.356
	c1.513,0.06,3.053-0.565,4.551-0.054C134.126,57.748,134.121,57.885,134.115,58.021z"/>
<path fill-rule="evenodd" clip-rule="evenodd" fill="#ffe861" class="fill" d="M109.864,89.295c-0.845-0.049-1.374-0.079-1.904-0.108
	c-0.213,0.624-0.389,1.141-0.622,1.824c-0.616-0.469-1.038-0.791-1.665-1.267c-0.481,1.319-0.918,2.515-1.396,3.82
	c-1.72-1.833-3.266-3.482-5.068-5.403c-0.032-0.17-0.141-0.778-0.283-1.566c-0.769,0.325-1.255,0.53-1.909,0.806
	c-1.997-2.209-4.735-3.883-5.388-7.333c0.516-0.003,0.923-0.007,1.347-0.01c0.081,0.574,0.153,1.092,0.218,1.55
	c1.119,0.557,1.197-0.436,1.638-0.974c1.163,0.479,2.307,0.949,3.574,1.47c0.045,0.397,0.099,0.869,0.151,1.332
	c1.15,0.866,1.305-0.331,1.72-0.815c1.381-0.011,2.69-0.021,4.03-0.033c0.234,0.416,0.438,0.778,0.755,1.344
	c0.469-0.401,0.858-0.734,1.337-1.143c0.403,0.228,0.88,0.496,1.604,0.903c0.539-0.55,1.096-1.118,1.746-1.783
	c0.428,0.189,0.9,0.396,1.482,0.651c0.219-0.531,0.399-0.968,0.609-1.478c1.214-0.413,2.29-1.47,3.812-1.064
	c0.329-0.269,0.66-0.538,0.959-0.782c0.794,0.299-0.922,4.217-2.874,6.681c-0.503,0.144-1.095,0.313-1.688,0.483
	c0.067,0.07,0.133,0.142,0.2,0.212C111.414,87.554,110.576,88.496,109.864,89.295z M111.924,83.221
	c-1.069,0.544-1.824,1.192-2.168,2.324c0.973,0.761,1.691,0.288,2.292-0.373C112.562,84.606,112.921,83.934,111.924,83.221z
	 M99.677,86.466c0.747,0.978,1.428,1.327,2.579,0.691c-0.329-0.537-0.623-1.018-0.975-1.595
	C100.696,85.892,100.286,86.122,99.677,86.466z M115.23,81.024c-1.208-0.071-1.88,0.157-1.884,1.403
	c0.483,0.024,0.944,0.048,1.476,0.075C114.962,81.998,115.07,81.605,115.23,81.024z M106.436,85.672
	c-1.558-0.333-1.594-0.307-1.792,1.216C105.751,87.374,106.197,86.846,106.436,85.672z M104.065,88.699
	c-0.928,0.187-1.487,0.324-1.356,1.326c0.478-0.003,0.929-0.007,1.496-0.012C104.16,89.588,104.125,89.259,104.065,88.699z
	 M104.052,83.711c-0.792-0.132-1.197-0.199-1.975-0.329c0.344,0.729,0.521,1.103,0.789,1.669
	C103.27,84.596,103.498,84.337,104.052,83.711z M98.138,85.561c-0.022-0.193-0.044-0.384-0.066-0.576
	c-0.42,0.044-0.84,0.088-1.466,0.152C97.252,86.124,97.684,86.165,98.138,85.561z M95.342,82.681
	c-0.436,0.075-0.87,0.15-1.555,0.268C94.572,83.747,95.042,84.046,95.342,82.681z M107.385,86.99
	c0.163,0.145,0.325,0.29,0.488,0.433c0.659-0.123,1.058-0.425,0.583-1.609C108.006,86.308,107.696,86.649,107.385,86.99z"/>
</svg>
