<svg version="1.1" id="svg" xmlns="http://www.w3.org/2000/svg" xmlns:xlink="http://www.w3.org/1999/xlink" x="0px" y="0px"
	 width="200px" height="200px" viewBox="0 0 200 200" enable-background="new 0 0 200 200" xml:space="preserve">
<path class="stroke" fill="#580f12"  d="M53.993,59.955c-0.178-2.066-0.951-3.88-2.987-4.786c-1.054-0.469-2.176-0.933-3.306-1.059
	c-4.104-0.455-8.22-0.836-12.34-1.102c-1.786-0.116-3.605,0.023-5.39,0.222c-1.225,0.137-2.349,0.713-3.05,1.821
	c-1.865,2.946-3.71,5.904-5.554,8.863c-2.274,3.651-4.519,7.32-6.815,10.957c-1.179,1.868-2.484,3.656-3.658,5.527
	c-1.727,2.752-0.684,4.758,2.555,5.016c0.174,0.015,0.348,0.036,0.522,0.033c1.917-0.03,3.835-0.135,5.75-0.08
	c2.311,0.067,4.619,0.27,7.291,0.437c-0.088,3.084-0.15,5.812-0.249,8.541c-0.172,4.758-0.375,9.514-0.549,14.272
	c-0.227,6.218-0.463,12.435-0.651,18.653c-0.13,4.291-0.638,8.576,0.358,12.865c0.492,2.118,1.651,3.456,3.542,4.157
	c1.119,0.414,2.377,0.616,3.574,0.622c2.848,0.014,5.699-0.116,8.546-0.247c2.091-0.096,4.183-0.243,6.268-0.441
	c2.776-0.264,4.508-1.834,4.673-4.289c0.297-4.408,0.785-8.808,0.958-13.219c0.224-5.695,0.235-11.398,0.303-17.098
	c0.06-5.111,0.045-10.223,0.112-15.333c0.064-4.822,0.225-9.643,0.283-14.464c0.056-4.704,0.058-9.408,0.039-14.112
	C54.21,63.791,54.159,61.866,53.993,59.955z"/>
<path class="stroke" fill="#580f12"  fill-rule="evenodd" clip-rule="evenodd" d="M121.991,88.267c-0.535-4.16-1.549-8.23-3.049-12.132
	c-1.697-4.414-3.776-8.647-7.592-11.726c-0.95-0.767-1.874-1.57-2.758-2.41c-2.82-2.681-6.101-4.677-9.647-6.177
	c-1.85-0.782-3.864-1.332-5.853-1.58c-1.818-0.225-3.719-0.021-5.558,0.204c-5.226,0.642-9.53,3.32-13.399,6.646
	c-3.477,2.99-5.948,6.828-7.796,11.007c-2.146,4.85-3.787,9.889-4.618,15.137c-0.656,4.132-1.069,8.301-1.679,13.176
	c0.063,2.316,0.131,5.334,0.235,8.351c0.064,1.856-0.019,3.748,0.312,5.56c0.93,5.112,2.565,10.001,4.93,14.656
	c2.938,5.784,6.833,10.643,12.624,13.804c3.3,1.801,6.644,3.374,10.568,2.949c1.27-0.138,2.553-0.189,3.831-0.21
	c4.05-0.068,7.852-1.177,11.287-3.2c4.715-2.777,8.144-6.887,10.809-11.617c2.114-3.752,4-7.634,5.088-11.814
	c1.095-4.21,2.255-8.438,2.86-12.733C123.426,100.199,122.758,94.21,121.991,88.267z M95.749,117.174
	c-0.385,1.741-1.217,3.242-2.197,4.701c-0.651,0.97-1.512,1.347-2.642,1.38c-3.379,0.099-6.552-1.845-7.943-4.958
	c-0.861-1.928-1.233-3.97-1.483-6.064c-0.546-4.568-1.021-9.133-0.448-13.729c0.2-1.61,0.476-3.215,0.818-4.801
	c0.623-2.891,1.167-5.812,2.028-8.633c0.988-3.237,3.208-5.33,6.678-5.846c2.045-0.304,3.725,0.181,5.001,2.006
	c1.241,1.774,2.023,3.682,2.181,5.799c0.259,3.473,0.386,6.956,0.517,9.44C97.771,104.09,97.187,110.683,95.749,117.174z"/>
<path class="stroke" fill="#580f12"  fill-rule="evenodd" clip-rule="evenodd" d="M188.737,87.493c-0.182-4.381-1.264-8.597-2.471-12.811
	c-0.925-3.232-2.51-5.98-4.63-8.5c-0.262-0.312-0.493-0.651-0.768-0.951c-2.794-3.052-5.617-6.084-9.441-7.892
	c-4.872-2.303-10.009-3.735-15.337-4.5c-2.655-0.38-5.132,0.213-7.329,1.659c-2.132,1.403-4.145,2.994-6.164,4.561
	c-0.771,0.598-1.436,1.34-2.11,2.052c-3.504,3.707-5.446,8.366-7.691,12.822c-1.857,3.687-3.518,7.489-4.115,11.629
	c-0.372,2.587-0.623,5.193-0.881,7.795c-0.799,8.056-0.216,16.017,1.635,23.897c1.262,5.371,3.743,10.105,7.193,14.381
	c4.022,4.982,8.793,8.72,15.272,10.015c6.454,1.29,12.786,1.822,18.905-1.351c3.343-1.734,6.425-3.81,8.678-6.864
	c3.347-4.537,5.693-9.569,7.03-15.063c1.478-6.077,2.357-12.223,2.441-18.491C188.889,95.751,188.908,91.619,188.737,87.493z
	 M165.908,101.523c-0.026,4.93-0.604,9.249-2.34,13.315c-0.606,1.42-1.489,2.779-2.49,3.959c-1.319,1.555-5.231,1.644-6.778,0.169
	c-0.9-0.858-1.673-1.951-2.195-3.081c-1.046-2.269-1.707-4.667-2.167-7.152c-1.286-6.943-0.676-13.79,0.771-20.609
	c0.252-1.185,0.71-2.337,1.183-3.46c0.913-2.169,2.668-3.531,4.775-4.347c2.979-1.153,5.925,0.265,7.182,3.445
	c0.528,1.338,0.879,2.788,1.049,4.217C165.455,92.655,166.299,97.312,165.908,101.523z"/>
<path fill-rule="evenodd" clip-rule="evenodd" fill="#de4555" class="fill" d="M118.069,94.355c0.013,0.787,0.026,1.574,0.04,2.343
	c-0.911,0.093-1.655,0.169-2.399,0.246c-0.029,0.159-0.058,0.316-0.087,0.476c0.789,0.39,1.577,0.779,2.453,1.213
	c-0.027,0.929-0.054,1.894-0.082,2.836c-0.785,0.371-1.716-0.405-2.408,0.607c0.77,0.462,1.494,0.897,2.432,1.461
	c-0.125,1.029-0.259,2.137-0.386,3.192c-0.965,0.157-1.75-0.864-2.563,0.307c0.678,0.564,1.364,1.136,2.2,1.831
	c-0.171,0.794-0.36,1.674-0.537,2.494c-1.078,0.129-1.893-1.213-3.012,0.038c0.817,0.662,1.601,1.296,2.514,2.036
	c-0.17,0.659-0.352,1.367-0.54,2.095c-0.923-0.027-1.716-0.05-2.51-0.072c-0.041,0.115-0.082,0.231-0.123,0.347
	c0.632,0.538,1.263,1.076,1.988,1.694c-0.253,0.841-0.498,1.658-0.782,2.601c-0.629-0.268-1.141-0.486-1.76-0.75
	c-0.202,0.166-0.446,0.367-0.825,0.677c0.68,0.687,1.274,1.289,1.993,2.015c-0.274,0.837-0.553,1.692-0.9,2.753
	c-0.714-0.525-1.246-0.916-1.839-1.353c-0.298,0.163-0.584,0.319-0.987,0.539c0.589,0.949,1.131,1.822,1.74,2.804
	c-0.49,0.748-0.984,1.501-1.505,2.295c-0.683-0.533-1.229-0.959-1.832-1.43c-0.285,0.146-0.568,0.292-0.943,0.484
	c0.57,0.921,1.081,1.749,1.683,2.721c-0.529,0.683-1.043,1.346-1.709,2.206c-0.536-0.679-0.945-1.198-1.354-1.717
	c-0.95,0.344-0.95,0.344-0.08,3.222c-0.46,0.502-0.989,1.081-1.616,1.766c-0.479-0.76-0.862-1.366-1.314-2.083
	c-0.402,0.283-0.703,0.496-0.996,0.702c0.173,0.826,0.326,1.558,0.513,2.451c-1.124,0.563-2.234,1.119-3.557,1.781
	c-0.199-1.276-0.362-2.329-0.578-3.716c-1.489,1.283-0.926,2.854-1.31,4.262c-0.753,0.144-1.524,0.292-2.407,0.46
	c-0.113-1.169-0.21-2.173-0.312-3.209c-0.737,0.222-0.737,0.223-1.545,3.474c-0.804,0.087-1.683,0.183-2.775,0.301
	c0.04-1.371,0.072-2.489,0.11-3.812c-1.815,0.729-1.072,2.457-1.936,3.584c-0.748-0.169-1.563-0.354-2.562-0.581
	c0.327-1.362,0.614-2.559,0.965-4.022c-2.037,0.494-1.488,2.417-2.558,3.457c-0.583-0.249-1.246-0.53-1.997-0.851
	c0.347-1.292,0.665-2.476,1.057-3.932c-1.902,0.541-1.503,2.422-2.775,3.267c-0.644-0.352-1.382-0.752-2.308-1.256
	c0.547-1.312,1.061-2.545,1.647-3.953c-1.711,0.461-2.129,1.859-2.998,3.021c-0.527-0.503-0.969-0.925-1.521-1.451
	c0.602-1.048,1.167-2.034,1.821-3.171c-1.593-0.114-1.951,1.151-2.814,2.081c-0.586-0.585-1.167-1.167-1.827-1.828
	c0.632-0.882,1.188-1.657,1.742-2.432c-0.067-0.093-0.135-0.185-0.203-0.278c-0.768,0.423-1.535,0.845-2.509,1.382
	c-0.52-0.592-1.108-1.261-1.817-2.067c0.727-0.765,1.372-1.441,2.076-2.181c-1.066-0.159-1.066-0.159-2.789,0.803
	c-0.369-0.668-0.738-1.335-1.09-1.973c0.651-0.757,1.196-1.39,1.739-2.022c-0.079-0.113-0.158-0.227-0.237-0.341
	c-0.697,0.303-1.394,0.604-2.216,0.96c-0.226-0.533-0.443-1.049-0.678-1.606c0.375-0.416,0.705-0.781,1.18-1.31
	c-0.695-0.129-1.176-0.219-1.826-0.339c-0.139-0.504-0.303-1.096-0.466-1.686c0.621-0.633,1.158-1.182,1.695-1.73
	c-0.072-0.125-0.145-0.25-0.218-0.375c-0.568,0.156-1.135,0.311-1.876,0.513c-0.159-0.62-0.323-1.262-0.517-2.019
	c0.392-0.428,0.775-0.848,1.161-1.267c0.378-0.409,0.758-0.815,1.138-1.224c-0.077-0.119-0.154-0.237-0.231-0.356
	c-0.672,0.318-1.345,0.637-2.206,1.044c-0.116-0.813-0.219-1.529-0.323-2.257c0.647-0.725,1.238-1.385,2.111-2.363
	c-0.914,0.205-1.394,0.312-2.07,0.463c-0.062-0.626-0.122-1.225-0.177-1.783c0.765-0.684,1.431-1.279,2.096-1.874
	c-0.072-0.125-0.144-0.248-0.215-0.371c-0.6,0.202-1.199,0.405-1.876,0.634c-0.568-2.243,1.458-3.03,2.514-4.396
	c-1.026-0.668-1.513,0.548-2.297,0.439c-0.393-0.837,0.071-1.425,0.597-1.991c0.496-0.534,0.999-1.06,1.5-1.589
	c-0.062-0.106-0.124-0.212-0.185-0.319c-0.599,0.205-1.198,0.409-1.876,0.64c-0.371-1.875,1.56-2.419,2.309-4.065
	c-0.856,0.275-1.403,0.452-2.228,0.717c0.087-0.972,0.166-1.833,0.241-2.674c0.562-0.494,1.035-0.91,1.666-1.467
	c-0.478-0.215-0.844-0.381-1.334-0.603c0.035-0.435,0.075-0.935,0.115-1.442c0.538-0.424,1.028-0.811,1.679-1.323
	c-0.463-0.223-0.777-0.375-1.097-0.53c-0.035-0.098-0.122-0.214-0.103-0.311c0.735-3.821,1.274-7.707,2.85-11.296
	c0.715-1.627,1.814-3.09,2.783-4.602c0.469-0.732,1.064-1.383,1.555-2.104c2.775-4.076,6.459-7.137,10.745-9.475
	c4.01-2.188,8.29-2.388,12.708-1.495c5.32,1.076,9.25,4.251,12.53,8.309c1.709,2.115,3.079,4.503,4.584,6.74
	c-0.197,0.577-0.34,0.995-0.501,1.467c0.437,0.22,0.834,0.419,1.43,0.718c-0.084,0.735-0.171,1.486-0.279,2.435
	c0.367,0.583,1.652,0.815,1.521,2.062c-0.489,0.24-0.968,0.475-1.835,0.9c1.03,0.585,1.738,0.987,2.593,1.473
	c0.072,0.361,0.17,0.859,0.274,1.388c-0.458,0.326-0.859,0.611-1.516,1.079c0.709,0.511,1.271,0.916,2.075,1.494
	c0.098,0.505,0.25,1.286,0.416,2.138c-0.704,0.216-1.304,0.402-1.905,0.587c-0.015,0.133-0.028,0.266-0.042,0.399
	c0.692,0.351,1.384,0.702,2.232,1.132c0.086,0.691,0.185,1.477,0.298,2.392c-0.779,0.023-1.439,0.042-2.18,0.064
	C115.588,93.783,117.478,93.158,118.069,94.355z M96.985,76.771c0.415-0.711,0.798-1.368,1.18-2.025
	c-0.093-0.083-0.186-0.167-0.279-0.25c-0.58,0.302-1.16,0.604-1.798,0.935c-0.408-0.367-0.782-0.703-1.157-1.04
	c0.389-0.566,0.711-1.038,1.061-1.547c-1.258-0.587-1.612,0.719-2.568,0.844c-0.206-0.074-0.519-0.186-0.909-0.325
	c0.182-0.706,0.345-1.342,0.509-1.979c-0.096-0.071-0.192-0.143-0.288-0.215c-0.556,0.509-1.112,1.018-1.875,1.716
	c-0.262,0.027-0.799,0.084-1.361,0.142c0.019-0.673,0.033-1.167,0.05-1.744c-1.51,0.107-1.135,1.494-1.82,2.346
	c-0.293,0.091-0.757,0.236-1.327,0.415c-0.071-0.442-0.103-0.724-0.165-0.998c-0.072-0.319-0.172-0.633-0.284-1.037
	c-1.089,0.562-1.085,1.409-0.953,2.291c0.091,0.605,0.414,1.256-0.409,1.617c-0.504-0.333-0.982-0.646-1.459-0.961
	c-0.131,0.095-0.263,0.192-0.395,0.288c0.226,0.782,0.453,1.563,0.723,2.493c-0.282,0.367-0.618,0.807-0.956,1.249
	c-0.672-0.196-1.271-1.125-1.859,0.098c0.283,0.538,0.6,1.14,0.96,1.826c-0.222,0.539-0.459,1.114-0.682,1.654
	c-0.654,0.154-1.35-0.67-1.834,0.385c0.4,0.528,0.844,1.112,1.322,1.743c-0.101,0.618-0.201,1.236-0.295,1.812
	c-0.585,0.109-1.047,0.194-1.808,0.334c0.509,0.761,0.877,1.313,1.329,1.988c-0.043,0.447-0.096,1.004-0.147,1.536
	c-0.514,0.058-0.895,0.101-1.464,0.165c0.396,0.757,0.711,1.358,1.058,2.021c-0.008,0.287-0.02,0.634-0.028,0.982
	c-0.089,3.649-0.271,7.3-0.233,10.948c0.026,2.49,0.264,4.989,0.587,7.46c0.315,2.412,0.658,4.854,1.35,7.175
	c1.125,3.777,3.626,6.257,7.637,7.052c4.061,0.805,7.127-0.884,8.771-4.76c1.931-4.555,2.881-9.315,3.202-14.217
	c0.253-3.884,0.423-7.774,0.637-11.767c0.222-0.294,0.52-0.689,0.87-1.155c-0.444-0.246-0.773-0.428-1.086-0.601
	c0.021-0.707,0.039-1.334,0.055-1.903c0.489-0.333,0.895-0.611,1.439-0.983c-0.635-0.363-1.118-0.639-1.634-0.933
	c-0.026-0.416-0.051-0.81-0.073-1.149c0.545-0.402,1.009-0.746,1.693-1.25c-0.83-0.257-1.349-0.417-1.867-0.578
	c-0.051-0.368-0.09-0.651-0.124-0.903c0.398-0.438,0.76-0.833,1.279-1.401c-0.71-0.173-1.177-0.286-1.719-0.417
	c-0.101-0.593-0.196-1.151-0.276-1.615c0.453-0.536,0.81-0.957,1.346-1.592c-0.816,0.033-1.347,0.054-1.95,0.078
	c-0.137-0.561-0.258-1.052-0.355-1.454c0.419-0.61,0.756-1.099,1.093-1.59c-0.076-0.11-0.152-0.22-0.228-0.33
	c-0.54,0.19-1.08,0.38-1.68,0.592C97.519,77.744,97.243,77.24,96.985,76.771z"/>
<path fill-rule="evenodd" clip-rule="evenodd" fill="#de4555" class="fill" d="M50.528,115.18c0.188,1.043,0.348,1.931,0.488,2.708
	c-0.485,0.585-0.843,1.016-1.288,1.551c0.395,0.343,0.717,0.625,1.111,0.969c-0.01,0.371-0.023,0.825-0.036,1.231
	c-0.446,0.357-0.841,0.672-1.345,1.074c0.4,0.457,0.726,0.829,1.168,1.333c-0.04,0.419-0.093,0.98-0.131,1.387
	c-0.68,0.226-1.208,0.402-2.136,0.712c0.851,0.689,1.364,1.104,1.98,1.604c-0.025,0.328-0.059,0.778-0.092,1.221
	c-0.471,0.191-0.88,0.356-1.486,0.602c0.446,0.838,0.842,1.581,1.292,2.426c-0.665,0.291-1.116,0.487-1.735,0.757
	c0.269,0.813,0.517,1.566,0.813,2.466c-0.175,0.467-0.393,1.049-0.65,1.736c-1.192-0.567-0.407-2.835-2.578-2.491
	c0.2,1.472,0.393,2.898,0.586,4.324c-0.078,0.018-0.157,0.037-0.235,0.055c-0.528-1.222-1.057-2.444-1.586-3.667
	c-1.21,0.578-1.21,0.578-0.329,4.029c-0.491,0.081-0.968,0.159-1.381,0.227c-0.133-0.155-0.194-0.195-0.205-0.245
	c-0.202-1.005-0.397-2.012-0.629-3.201c-0.548,0.173-0.938,0.296-1.315,0.415c-0.028,0.957-0.051,1.763-0.08,2.772
	c-0.463,0.024-0.921,0.048-1.455,0.075c0.027-0.94,0.048-1.678,0.074-2.585c-0.492-0.042-0.9-0.078-1.244-0.108
	c-0.567,0.996-0.149,2.262-1.388,2.916c-0.363-1.31,0.556-2.576-0.149-3.821c-1.907,0.558-0.812,2.851-2.451,3.758
	c0.196-1.031,0.351-1.849,0.516-2.717c-0.919-0.44-1.399,0.078-1.706,0.715c-0.291,0.605-0.421,1.287-0.699,2.18
	c-0.634-0.414-1.124-0.733-1.655-1.079c0.69-0.624,1.24-1.122,1.78-1.612c-0.767-1.006-1.423-0.167-2.174-0.258
	c-0.072-0.404-0.148-0.828-0.235-1.315c0.738-0.282,1.398-0.535,2.104-0.805c-0.436-1.167-1.377-0.71-2.169-1.061
	c-0.007-0.407-0.016-0.891-0.024-1.322c0.782-0.326,1.432-0.595,2.082-0.865c-0.005-0.139-0.01-0.278-0.015-0.418
	c-0.612-0.208-1.225-0.417-1.942-0.66c0.015-0.519,0.03-1.07,0.045-1.58c0.672-0.302,1.261-0.566,1.85-0.832
	c-0.008-0.142-0.016-0.284-0.023-0.427c-0.497-0.188-0.994-0.376-1.675-0.635c-0.015-0.585-0.033-1.259-0.051-1.956
	c0.626-0.278,1.177-0.524,2.086-0.929c-0.804-0.448-1.313-0.733-1.938-1.082c0.021-0.724,0.043-1.519,0.071-2.457
	c0.319-0.192,0.745-0.448,1.358-0.815c-0.505-0.439-0.908-0.788-1.343-1.165c0.011-0.374,0.022-0.775,0.035-1.188
	c0.465-0.252,0.903-0.491,1.646-0.896c-0.657-0.459-1.124-0.786-1.545-1.081c-0.53-1.152,0.834-1.058,1.127-1.868
	c-0.342-0.269-0.721-0.566-1.23-0.967c0.022-0.79,0.049-1.703,0.074-2.589c0.43-0.296,0.795-0.548,1.282-0.884
	c-0.458-0.415-0.825-0.749-1.317-1.194c-0.016-0.566-0.036-1.25-0.056-1.984c0.534-0.301,1.02-0.573,1.737-0.977
	c-0.638-0.422-1.124-0.743-1.664-1.1c0.025-0.888,0.052-1.806,0.079-2.754c0.641-0.279,1.233-0.538,2.233-0.974
	c-0.991-0.353-1.552-0.553-2.212-0.788c0.022-0.785,0.045-1.577,0.067-2.342c0.603-0.285,1.151-0.544,2.027-0.958
	c-0.897-0.39-1.448-0.629-2.121-0.922c-0.013-0.519-0.026-1.084-0.04-1.69c0.519-0.315,0.989-0.603,1.6-0.976
	c-0.587-0.397-1.051-0.711-1.586-1.073c0.015-0.529,0.032-1.101,0.049-1.719c0.489-0.321,1.005-0.659,1.52-0.997
	c-0.087-0.134-0.174-0.267-0.262-0.399c-0.425-0.097-0.85-0.194-1.374-0.313c-0.077-0.474-0.159-0.976-0.239-1.466
	c0.433-0.459,0.817-0.865,1.331-1.41c-0.497-0.249-0.872-0.437-1.319-0.661c-0.204-0.645-0.429-1.358-0.653-2.072
	c0.333-0.737,0.664-1.473,0.996-2.209c-0.127-0.095-0.253-0.19-0.38-0.285c-0.604,0.471-1.209,0.941-1.88,1.465
	c-0.158-0.017-0.392-0.014-0.607-0.075c-0.217-0.061-0.416-0.186-0.788-0.361c0.372-0.824,0.729-1.611,1.159-2.564
	c-1.208,0.066-1.727,0.717-2.177,1.467c-0.322,0.536-0.543,1.227-1.666,0.818c0.285-0.871,0.573-1.749,0.857-2.617
	c-1.185,0.255-1.185,0.255-2.602,2.754c-0.413,0.017-0.905,0.038-1.557,0.065c0.193-0.938,0.353-1.709,0.53-2.567
	c-1.863,0.035-1.334,2.322-2.709,2.812c-0.757-1.12,0.922-1.92,0.23-3.008c-1.52,0.351-1.597,1.862-2.468,3.036
	c-0.331,0.045-0.844,0.115-1.717,0.235c0.68-1.059,1.139-1.775,1.599-2.491c3.071-4.79,6.151-9.572,9.208-14.371
	c1.062-1.667,2.119-3.341,3.075-5.069c1.118-2.022,2.729-3.053,5.064-3.097c3.193-0.061,6.387-0.373,9.575-0.313
	c2.386,0.044,4.661,0.854,6.897,1.867c0.134,0.635,0.297,1.19,0.36,1.757c0.281,2.484,0.583,4.968,0.78,7.459
	c0.169,2.144,0.304,4.299,0.283,6.447c-0.092,9.66-0.229,19.318-0.386,28.977c-0.058,3.604-0.199,7.208-0.341,10.81
	C50.857,113.747,50.65,114.473,50.528,115.18z"/>
<path fill-rule="evenodd" clip-rule="evenodd" fill="#de4555" class="fill" d="M153.978,133.362c-1.632,0.904-1.371,2.379-2.104,3.513
	c-0.634-0.237-1.259-0.471-1.919-0.718c0.228-1.423,0.438-2.748,0.676-4.236c-1.17,0.29-1.108,1.136-1.414,1.701
	c-0.298,0.55-0.517,1.145-0.845,1.89c-0.843-0.547-1.549-1.007-2.331-1.515c0.518-1.385,1.008-2.7,1.604-4.3
	c-1.856,0.582-1.878,2.239-3.043,3.223c-0.641-0.49-1.34-1.025-2.051-1.569c0.355-1.315,1.607-2.148,1.165-3.711
	c-0.709,0.783-1.419,1.567-2.306,2.546c-0.511-0.635-0.966-1.202-1.465-1.823c0.677-1.216,1.491-2.403,1.654-3.965
	c-1.488,0.267-1.683,1.615-2.535,2.627c-0.437-0.516-0.819-0.969-1.29-1.525c0.513-1.137,1.015-2.251,1.519-3.365
	c-0.125-0.091-0.25-0.182-0.375-0.272c-0.663,0.577-1.325,1.154-2.121,1.847c-0.336-0.516-0.67-1.028-1.015-1.556
	c0.571-1.25,1.112-2.434,1.708-3.736c-1.463-0.11-1.641,1.343-2.693,1.75c-0.294-0.64-0.579-1.26-0.872-1.899
	c0.563-1.088,1.114-2.151,1.708-3.299c-1.223-0.453-1.537,0.683-2.242,1.108c-0.908-0.812-0.376-1.549,0.049-2.282
	c0.411-0.71,0.826-1.418,1.24-2.126c-0.128-0.108-0.255-0.217-0.382-0.324c-0.574,0.414-1.147,0.826-1.939,1.396
	c-0.22-0.869-0.42-1.658-0.627-2.475c0.586-0.804,1.123-1.541,1.66-2.277c-0.047-0.092-0.094-0.185-0.141-0.277
	c-0.553,0.175-1.107,0.351-1.789,0.566c-0.145-0.539-0.288-1.071-0.422-1.57c0.533-0.7,1.014-1.331,1.646-2.159
	c-0.763-0.022-1.286-0.037-1.814-0.052c-0.772-1.267,0.907-1.738,0.898-2.904c-0.326-0.085-0.683-0.18-1.179-0.31
	c-0.045-0.446-0.096-0.943-0.144-1.408c0.43-0.572,0.807-1.076,1.313-1.75c-0.515-0.07-0.857-0.117-1.268-0.172
	c-0.185-1.489-0.444-2.987,0.612-4.287c-1.129-1.228-1.115-2.227,0.072-4.136c-0.168-0.28-0.364-0.607-0.589-0.984
	c0.462-5.572,2.562-10.656,5.09-15.596c0.848-1.657,1.666-3.34,2.664-4.905c3.189-5.009,7.358-8.977,12.758-11.555
	c1.441-0.688,2.994-0.998,4.583-0.83c3.481,0.367,6.892,1.107,10.178,2.323c5.862,2.17,10.369,6.047,14.057,11.043
	c2.957,4.004,4.507,8.498,5.213,13.334c0.426,2.925,0.717,5.863,0.273,8.833c-0.097,0.649,0.322,1.36,0.31,2.04
	c-0.014,0.821-0.233,1.639-0.415,2.773c0.081,0.816,0.197,1.996,0.338,3.434c-0.397,0.177-0.827,0.368-1.301,0.579
	c0.446,0.674,0.723,1.089,1.047,1.579c-0.065,0.797-0.134,1.655-0.194,2.403c-0.678,0.256-1.202,0.454-1.962,0.74
	c0.681,0.682,1.116,1.117,1.617,1.619c-0.106,0.755-0.219,1.553-0.328,2.32c-0.515,0.27-0.963,0.503-1.611,0.842
	c0.4,0.516,0.729,0.941,1.185,1.529c-0.101,0.682-0.226,1.531-0.359,2.438c-0.578,0.128-1.058,0.235-1.838,0.409
	c0.426,0.755,0.771,1.369,1.218,2.158c-0.329,0.994-0.704,2.128-1.119,3.387c-0.549-0.356-0.963-0.625-1.376-0.894
	c-0.779,1.125-0.779,1.125,0.63,2.984c-0.434,0.922-0.912,1.939-1.39,2.957c-0.15,0.048-0.3,0.096-0.45,0.145
	c-0.34-0.593-0.681-1.188-1.004-1.751c-1.233,0.934-1.215,1.077,0.253,3.77c-0.157,0.294-0.328,0.651-0.534,0.988
	c-0.179,0.291-0.397,0.556-0.695,0.965c-0.465-0.538-0.859-0.993-1.25-1.445c-1.343,0.421-1.36,0.685-0.109,3.087
	c-0.689,0.681-1.416,1.399-2.238,2.211c-0.457-0.718-0.812-1.274-1.228-1.926c-1.316,0.898-0.471,2.05-0.574,3.239
	c-0.494,0.329-1.097,0.73-1.792,1.192c-0.39-0.925-0.714-1.693-1.079-2.558c-1.725,0.863-0.769,2.044-0.657,3.135
	c-0.66,0.848-1.689,0.746-2.695,1.016c-0.318-0.952-0.604-1.807-0.931-2.784c-1.36,0.862-0.546,2.247-1.145,3.395
	c-0.522,0.098-1.175,0.219-2.031,0.378c-0.168-1.228-0.312-2.279-0.478-3.497c-1.557,0.938-1.199,2.346-1.261,3.71
	c-0.818-0.023-1.595-0.045-2.479-0.071c-0.023-0.987-0.045-1.944-0.072-3.087c-1.379,0.627-0.932,2.051-1.762,2.974
	c-0.547-0.072-1.212-0.159-2.05-0.27C153.721,136.03,153.834,134.858,153.978,133.362z M147.342,95.008
	c-0.039,1.356-0.058,2.925-0.134,4.491c-0.275,5.627,0.435,11.14,2.058,16.518c0.714,2.367,1.794,4.633,4.317,5.595
	c2.206,0.84,4.516,1.134,6.819,0.292c0.699-0.257,1.452-0.539,1.995-1.018c1.717-1.518,3.141-3.305,3.88-5.501
	c1.114-3.311,1.898-6.699,2.081-10.212c0.043-0.814,0.361-1.614,0.551-2.418c-0.109-0.868-0.226-1.793-0.366-2.904
	c0.42-0.213,0.833-0.423,1.531-0.776c-0.61-0.393-0.891-0.572-1.129-0.726c0.021-0.742,0.04-1.378,0.058-2.003
	c0.44-0.401,0.866-0.79,1.483-1.351c-0.718-0.136-1.099-0.208-1.578-0.298c-0.048-0.646-0.095-1.27-0.135-1.796
	c0.578-0.644,1.062-1.183,1.546-1.723c-0.061-0.088-0.122-0.177-0.183-0.265c-0.448,0.119-0.896,0.239-1.531,0.408
	c-0.042-0.781-0.074-1.391-0.093-1.744c0.513-0.89,1.542-0.976,1.706-1.99c-0.706,0.122-1.243,0.214-1.88,0.324
	c-0.072-0.626-0.129-1.127-0.162-1.409c0.623-0.85,1.109-1.513,1.595-2.176c-0.079-0.071-0.159-0.142-0.238-0.213
	c-0.478,0.245-0.957,0.489-1.569,0.802c-0.15-0.623-0.266-1.104-0.288-1.196c0.305-1.155,1.417-1.346,1.338-2.514
	c-0.647,0.298-1.177,0.542-1.843,0.85c-0.228-0.75-0.424-1.394-0.595-1.954c0.502-0.751,0.91-1.363,1.319-1.975
	c-0.092-0.072-0.185-0.144-0.276-0.215c-0.493,0.256-0.985,0.513-1.617,0.842c-0.303-0.6-0.578-1.144-0.834-1.651
	c0.47-0.756,0.865-1.394,1.261-2.031c-0.103-0.084-0.207-0.168-0.311-0.251c-0.604,0.392-1.208,0.784-1.9,1.234
	c-0.515-0.371-1.058-0.761-1.565-1.125c0.309-0.846,0.556-1.524,0.803-2.202c-0.115-0.078-0.229-0.155-0.345-0.233
	c-0.588,0.642-1.177,1.285-1.882,2.055c-0.501-0.098-1.092-0.213-1.757-0.343c0.021-0.75,0.039-1.348,0.062-2.145
	c-1.124,0.553-0.885,1.792-1.742,2.397c-0.445,0.089-1.004,0.201-1.515,0.304c-0.568-0.748,0.072-1.811-0.9-2.522
	c-0.747,1.03-0.553,2.153-0.657,3.324c-0.462,0.245-0.948,0.501-1.468,0.777c-0.574-0.714-1.061-1.32-1.669-2.079
	c-0.901,1.381,0.38,2.224,0.376,3.367c-0.411,0.61-0.883,1.312-1.37,2.036c-0.542-0.485-0.95-0.851-1.512-1.355
	c-0.894,1.61,0.939,2.369,0.708,3.964c-0.123,0.304-0.396,0.987-0.708,1.767c-0.547-0.493-0.976-0.878-1.498-1.347
	c-0.568,1.619,0.665,2.426,1.09,3.508c-0.195,0.777-0.385,1.538-0.575,2.296c-0.562-0.177-0.958-0.302-1.355-0.427
	c-0.097,0.083-0.195,0.164-0.292,0.247c0.383,0.857,0.767,1.714,1.237,2.765c-0.066,0.288-0.178,0.776-0.271,1.18
	c-0.478-0.013-0.841-0.024-1.53-0.043C146.419,93.245,146.833,94.036,147.342,95.008z"/>
</svg>
