<svg version="1.1" id="svg" xmlns="http://www.w3.org/2000/svg" xmlns:xlink="http://www.w3.org/1999/xlink" x="0px" y="0px"
	 width="200px" height="200px" viewBox="0 0 200 200" enable-background="new 0 0 200 200" xml:space="preserve">
<path class="stroke" fill="#3b4954"  fill-rule="evenodd" clip-rule="evenodd" d="M112.719,177.076c-0.615,0.111-1.158,0.209-1.959,0.354
	c0.306,1.716,0.598,3.343,0.893,4.993c2.315,0.188,4.435,0.361,6.586,0.536c0.431,1.481,0.596,2.788-0.482,4.04
	c-0.557,0.062-1.111,0.156-1.669,0.181c-4.278,0.181-8.555,0.41-12.835,0.506c-5.718,0.128-11.439,0.221-17.158,0.186
	c-2.637-0.016-5.269-0.398-7.906-0.562c-1.164-0.072-2.414,0.388-3.552-0.893c0-0.991,0-2.211,0-3.646
	c1.255-0.529,2.439-1.028,3.742-1.578c0.034-0.489,0.073-1.035,0.108-1.543c-3.036-1.369-2.439-6.473,0.418-7.529
	c2.707-1.001,5.224-2.494,8.103-3.072c2.684-0.539,4.413-2.632,4.343-5.374c-0.505-0.238-1.1-0.52-1.8-0.85
	c-0.461-2.643-0.921-5.362-1.412-8.076c-0.985-5.45-2.051-10.886-2.964-16.348c-0.83-4.969-1.897-9.878-3.16-14.754
	c-0.647-2.497-1.045-5.059-1.717-7.549c-0.368-1.366-1.071-2.64-1.639-3.994c-1.846,0.305-2.905-0.608-4.067-1.529
	c-1.821-1.445-3.811-2.677-5.732-3.995c-1.607-1.103-3.227-2.188-4.825-3.305c-0.357-0.25-0.675-0.571-0.961-0.903
	c-1.807-2.093-3.597-4.2-5.397-6.298c-1.99-2.32-3.124-4.907-3.215-8.055c-0.15-5.186,0.325-10.302,1.06-15.416
	c0.268-1.867,0.511-3.745,0.618-5.627c0.168-2.969-0.988-5.255-3.767-6.572c-0.113-0.054-0.233-0.098-0.343-0.158
	c-2.696-1.467-3.528-3.648-1.311-6.532c0.341-0.444,0.769-0.821,1.146-1.218c-0.293-0.789-0.565-1.522-0.88-2.368
	c1.068-0.669,2.006-1.254,2.833-1.772c-0.433-1.214-0.921-2.284-1.183-3.407c-0.23-0.99,0.307-1.825,1.312-1.964
	c3.695-0.51,6.188-3.245,9.457-4.833c0.901-3.46,2.722-6.313,6.047-7.968c0.333-0.167,0.775-0.116,1.29-0.182
	c0.039,0.742,0.067,1.282,0.103,1.969c4.448-0.661,8.644-2.626,13.733-2.354c1.486-0.655,3.481-1.55,5.492-2.409
	c0.453-0.193,0.953-0.306,1.444-0.374c1.986-0.274,3.971-0.565,5.965-0.75c1.216-0.114,2.073-0.77,2.983-1.473
	c5.196-4.012,10.736-7.486,16.603-10.429c1.813-0.91,2.314-0.917,4.172-0.62c1.351,1.955,1.361,2.415,0.026,4.281
	c0,0.887,0,1.883,0,2.967c1.457,0.843,3.581,0.665,4.486,3.209c-0.164,0.706-0.323,1.952-0.75,3.099
	c-0.523,1.409-1.182,2.786-1.941,4.083c-0.905,1.549-1.008,3.067-0.338,4.694c0.165,0.397,0.245,0.828,0.393,1.344
	c0.706,0,1.366,0,2.268,0c0.074,1.076,0.219,2.059,0.194,3.036c-0.129,5.054,0.35,10.067,0.938,15.075
	c0.059,0.497,0.166,0.99,0.27,1.6c1.629,0.6,1.553,2.043,1.551,3.544c0.823,1.101,1.382,2.342,0.653,3.695
	c0.244,0.577,0.439,1.036,0.658,1.553c-0.385,2.116-0.777,4.269-1.235,6.787c0.008-0.009-0.169,0.392-0.473,0.551
	c-2.131,1.117-2.74,3.519-4.338,5.118c-1.044,1.046-1.336,2.812-2.092,4.185c-2.393,4.35-4.732,8.736-7.308,12.977
	c-2.251,3.705-4.77,7.25-7.219,10.833c-1.1,1.609-1.657,3.358-1.83,5.283c-0.41,4.597-0.154,9.178,0.049,13.776
	c0.409,9.275,2.662,18.146,5.578,26.876c0.77,2.307,2.012,4.46,3.088,6.659c0.368,0.753,0.779,1.449,0.282,2.508
	c-0.783,0.273-1.709,0.598-2.569,0.898c0.44,2.562,0.993,5.008,1.248,7.484C113.071,172.071,113.962,174.509,112.719,177.076z
	 M93.39,43.284c1.207,2.048,2.717,3.748,2.344,6.172c-1.788,0.369-3.389-0.996-5.228-0.098c0.374,0.568,0.711,1,0.962,1.478
	c0.905,1.721,1.805,3.445,2.656,5.193c0.311,0.641,0.457,1.345-0.593,1.878c-0.969-0.517-2.051-1.092-3.358-1.788
	c0.361,2.138,0.678,4.021,1.004,5.958c2.163,0.371,4.188,0.469,6.269,0.006c2.327-0.516,4.698-0.835,7.051-1.231
	c1.402-0.236,2.805-0.455,4.4-0.714c-0.778-4.612-3.388-8.465-3.897-13.048c0.759-0.674,1.536-1.364,2.301-2.045
	c-2.541-1.889-5.036-3.741-7.78-5.78c-0.322,0.121-0.956,0.358-1.59,0.597c-0.499,0.844-1.109,1.539-1.849,2.043
	C95.316,42.428,94.423,42.767,93.39,43.284z M105.341,75.81c-7.326-1.455-14.191,0.021-21.076,0.735
	c-0.484,2.929,0.807,5.669,3.567,7.349c3.339-1.674,7.111-1.059,11.188-1.322C100.952,80.505,103.081,78.228,105.341,75.81z
	 M102.427,173.896c-2.375,1.374-4.457,2.579-6.607,3.822c0.217,1.821,0.414,3.464,0.643,5.384c3.042-0.623,6.007-0.123,8.768-1.11
	c0-1.397,0-2.613,0-3.896c-0.666,0.036-1.14,0.062-1.782,0.097C103.138,176.881,102.84,175.632,102.427,173.896z M83.293,182.312
	c2.728,0.742,5.218,0.012,7.907-0.146c0.064-1.08,0.122-2.031,0.187-3.111c-2.707,0-5.176,0-7.805,0
	C83.478,180.23,83.392,181.197,83.293,182.312z M109.817,25.301c-1.268,0.386-2.39,0.701-3.376,1.774
	c0.73,0.553,1.363,1.032,2.116,1.604c0.774-0.796,1.494-1.536,2.252-2.315C110.415,25.941,110.165,25.672,109.817,25.301z
	 M116.859,21.421c-2.413,0.542-3.251,1.261-3.429,2.792C114.784,23.658,115.649,22.662,116.859,21.421z"/>
<path class="stroke" fill="#3b4954"  fill-rule="evenodd" clip-rule="evenodd" d="M173.084,130.033c0.197,3.393-0.517,6.593-1.824,9.609
	c-3.852,8.894-10.096,15.72-18.377,20.693c-1.278,0.767-2.703,1.291-4.146,1.966c0,2.108,0.118,4.185-0.043,6.24
	c-0.101,1.287-0.441,2.628-0.995,3.792c-0.917,1.925-1.84,3.952-3.228,5.521c-1.556,1.761-3.503,3.269-5.51,4.519
	c-3.693,2.3-7.943,3.085-12.165,3.822c-1.544,0.27-3.116,0.403-4.681,0.514c-0.634,0.045-1.384,0.089-1.841-0.848
	c0.372-0.109,0.64-0.253,0.912-0.257c5.096-0.092,9.962-1.32,14.711-3.049c5.617-2.045,9.361-6.051,11.497-11.537
	c0.998-2.562,0.842-5.297,0.54-8.232c-1.215,0.227-2.301,0.397-3.373,0.634c-2.772,0.612-5.546,1.072-8.411,0.958
	c-2.391-0.096-5.21-1.379-5.448-4.308c1.013-2.512,3.277-3.208,5.711-3.516c1.303-0.166,2.64-0.096,3.961-0.094
	c2.8,0.005,4.885,1.408,6.628,3.449c0.364,0.424,0.688,0.88,1.071,1.373c4.815-1.064,8.292-4.291,11.887-7.161
	c3.714-2.966,6.39-6.926,8.92-10.935C171.418,139.166,172.225,134.582,173.084,130.033z M132.108,160.132
	c0.396,1.775,1.17,2.627,2.833,2.823c1.613,0.191,3.257,0.338,4.874,0.244c2.418-0.141,4.792-0.643,7.25-1.568
	c-1.559-2.502-3.561-4.043-6.405-4.175c-1.619-0.074-3.26,0.029-4.874,0.212C134.238,157.843,132.905,158.518,132.108,160.132z"/>
<path fill-rule="evenodd" clip-rule="evenodd" fill="#e5f3a5" class="fill" d="M88.781,86.223c3.56-1.232,7.24-0.885,10.953-0.521
	c3.181-2.422,5.613-5.519,7.833-8.732c4.939,0.169,7.086,3.784,9.624,7.075c-0.181,0.618-0.344,1.181-0.601,2.06
	c-0.825-1.21-1.444-2.116-2.113-3.099c-0.379,0.225-0.625,0.371-1.046,0.622c0.726,1.34,1.404,2.593,2.215,4.091
	c-0.114,0.256-0.327,0.729-0.64,1.431c-0.953-1.46-1.753-2.688-2.549-3.905c-1.219,0.343-0.954,1.014-0.607,1.638
	c0.671,1.209,1.39,2.393,2.172,3.729c-0.34,0.582-0.706,1.207-1.195,2.045c-0.927-1.302-1.705-2.396-2.536-3.563
	c-0.346,0.104-0.668,0.201-1.166,0.351c0.874,1.65,1.678,3.172,2.475,4.677c-0.385,0.574-0.653,0.976-1.053,1.574
	c-0.921-1.254-1.747-2.375-2.669-3.632c-0.423,0.377-0.708,0.631-1.015,0.906c0.938,1.405,1.801,2.701,2.693,4.039
	c-0.299,0.438-0.53,0.778-0.791,1.16c-0.784-0.838-1.496-1.6-2.213-2.367c-0.547,0.241-0.859,0.378-1.406,0.619
	c0.877,1.094,1.643,2.051,2.452,3.06c-0.266,0.315-0.494,0.586-0.777,0.921c-0.679-0.474-1.282-0.895-1.968-1.374
	c-0.247,0.21-0.463,0.392-0.797,0.676c0.538,0.636,1.014,1.198,1.574,1.858c-0.275,0.349-0.567,0.72-0.818,1.038
	c-0.767,0.014-1.343-1.167-2.122-0.04c0.227,0.466,0.465,0.952,0.706,1.444c-1.152,1.652-2.291,3.289-3.407,4.89
	c0.168,0.756,0.346,1.55,0.51,2.294c-0.595,0.42-0.981,0.691-1.701,1.2c0.602,0.355,1.028,0.607,1.431,0.845
	c0,0.675,0,1.229,0,1.887c-0.486,0.27-1.004,0.557-1.797,0.998c0.722,0.409,1.217,0.688,1.693,0.958
	c0.77,1.187-0.456,1.588-1.026,2.326c0.443,0.375,0.811,0.687,1.277,1.083c0,0.788,0,1.659,0,2.645
	c-0.368,0.252-0.808,0.553-1.413,0.967c0.627,0.362,1.087,0.627,1.648,0.95c0.069,0.543,0.146,1.156,0.224,1.761
	c-0.473,0.365-0.885,0.686-1.492,1.154c0.751,0.316,1.292,0.544,1.909,0.804c0.102,0.378,0.216,0.794,0.396,1.455
	c-0.47,0.259-1.009,0.558-1.546,0.855c0.069,0.158,0.139,0.317,0.209,0.475c0.479,0.183,0.958,0.367,1.623,0.622
	c0.193,0.965,0.41,2.057,0.627,3.144c-0.521,0.459-1.012,0.892-1.758,1.549c0.819,0.192,1.319,0.31,1.973,0.464
	c0.109,0.512,0.235,1.109,0.35,1.646c-0.335,0.68-0.634,1.288-1.027,2.085c0.728,0.11,1.135,0.173,1.731,0.264
	c0.234,1.077,0.484,2.221,0.746,3.42c-0.604,0.294-1.099,0.536-1.706,0.831c0,0.375,0,0.77,0,1.339
	c0.702-0.099,1.29-0.181,2.046-0.287c0.259,0.981,0.522,1.979,0.807,3.062c-0.993,0.287-1.812,0.523-2.734,0.789
	c0.046,0.489,0.083,0.886,0.138,1.486c1.035-0.227,1.927-0.422,3.01-0.659c0.238,0.687,0.453,1.309,0.64,1.843
	c-0.995,1.284-3.119,0.117-3.732,2.065c1.472,0.943,2.842-0.094,4.333-0.039c0.171,0.299,0.376,0.656,0.674,1.177
	c-1.807,1.067-3.802,0.379-5.651,0.986c-0.062,0.286-0.137,0.624-0.235,1.067c2.274,0.77,4.415-0.236,6.69-0.098
	c0.155,0.315,0.34,0.688,0.498,1.007c-0.393,0.796-15.728,2.664-17.989,2.214c-0.181-1.145-0.405-2.361-0.56-3.585
	c-0.424-3.364-0.67-6.757-1.255-10.091c-0.966-5.508-2.111-10.985-3.242-16.463c-0.546-2.646-1.247-5.26-1.85-7.895
	c-0.645-2.817-1.303-5.633-1.852-8.469c-0.133-0.688-0.029-1.526,0.248-2.176c2.109-4.946,3.451-10.122,4.448-15.372
	c0.622-3.268,0.829-6.613,1.229-9.923C88.573,87.183,88.666,86.821,88.781,86.223z"/>
<path fill-rule="evenodd" clip-rule="evenodd" fill="#e5f3a5" class="fill" d="M74.459,107.471c-0.617-0.373-1.172-0.667-1.684-1.024
	c-4.772-3.326-9.147-7.1-12.909-11.554c-0.486-0.575-0.894-1.214-1.346-1.819c-1.317-1.758-1.437-3.635-0.77-5.698
	c1.452-4.494,3.03-8.946,5.261-13.106c1.148-2.142,2.744-4.044,4.165-6.035c0.473-0.663,1.053-1.248,1.547-1.897
	c1.91-2.51,4.343-3.89,7.587-3.815c4.253,0.098,8.373,0.881,12.447,2.045c2.796,0.8,5.605,1.256,8.539,0.526
	c4.584-1.141,9.286-1.52,14.111-1.958c0.933,3.238,0.749,6.479,0.93,9.906c-2.498-0.151-4.737-0.355-6.979-0.411
	c-6.105-0.152-12.196-0.208-18.297,0.475c-3.467,0.389-6.823,0.98-10.129,2.067c-1.413,0.464-2.95,0.548-4.426,0.824
	c-0.79,0.148-1.573,0.341-2.459,0.536c0.091,0.503,0.151,0.837,0.221,1.222c0.971,0,1.832,0,2.904,0
	c-0.986,0.637-1.819,1.174-2.796,1.806c1.749,1.256,3.095-0.784,4.964,0c-1.326,0.73-2.371,1.307-3.509,1.934
	c1.449,1.858,2.617-0.338,4.136-0.04c-0.056,0.319,0.003,0.797-0.2,0.977c-0.509,0.451-1.12,0.797-1.722,1.127
	c-0.533,0.292-1.11,0.504-1.728,0.778c1.083,1.083,1.499,1.004,4.789-0.786c0.272,0.247,0.574,0.521,1.016,0.922
	c-1.102,0.902-2.1,1.72-3.256,2.666c2.041,1.086,2.908-0.851,4.344-1.333c0.164,0.186,0.358,0.402,0.634,0.713
	c-0.952,1.345-1.882,2.656-2.814,3.972c1.204,0.617,1.204,0.617,4.066-2.456c-0.038,0.637,0.04,1.047-0.1,1.364
	c-0.457,1.033-1.009,2.023-1.49,3.045c-0.214,0.455-0.178,0.472,0.348,1.28c1.451-0.583,1.45-2.724,3.16-3.135
	C82.958,92.861,77.18,104.266,74.459,107.471z"/>
<path fill-rule="evenodd" clip-rule="evenodd" fill="#e5f3a5" class="fill" d="M55.179,44.124c3.362-0.161,5.459-3.049,8.524-4.239
	c1.784,0.808,4.072,0.372,5.739,2.111c-0.302,0.515-0.604,1.031-0.961,1.641c0.807,1.538,2.981,1.192,3.921,2.753
	c-0.34,0.521-0.71,1.087-1.21,1.852c0.532,0.591,1.098,1.219,1.741,1.935c-0.051,0.466-0.11,1.007-0.172,1.569
	c1.01,1.151,3.065,0.604,3.717,2.277c-0.831,2.211-2.207,2.69-7.083,2.438c-0.203-0.372-0.432-0.793-0.658-1.209
	c-1.816,0.126-1.971,0.571-1.104,3.328c0.248,0.156,0.556,0.367,0.879,0.551c0.271,0.153,0.559,0.276,0.839,0.413
	c0.453,0.708,0.892,1.396,1.327,2.076c-1.469,1.237-2.921,2.408-4.313,3.646c-3.548,3.154-5.669,7.15-6.878,11.696
	c-0.662,2.491-1.422,4.955-2.161,7.424c-0.095,0.318-0.325,0.596-0.657,0.851c-0.674-4.354-0.008-8.59,0.809-12.825
	c0.838-4.343,3.036-8.011,5.771-11.417c-1.092-0.85-2.002-0.33-2.866-0.076c-2.415,0.707-3.091,0.486-4.757-1.394
	c-0.658-0.742-1.541-1.281-2.303-1.934c-0.505-0.432-0.979-0.903-1.629-1.508c0.561-0.954,1.048-1.783,1.524-2.592
	c1.674,0.186,3.105,1.413,4.841,0.19c-1.274-1.329-3.937-0.562-4.288-3.221c0.495-0.342,1.13-0.782,1.644-1.138
	c1.245,0.218,2.28,0.399,3.431,0.601c0.41-0.622,0.751-1.139,1.092-1.657c-0.087-0.098-0.175-0.195-0.262-0.293
	c-0.507,0.14-1.014,0.28-1.488,0.411C55.313,47.343,54.344,46.025,55.179,44.124z M66.354,48.538
	c1.37-1.267,0.984-2.672,0.444-4.158c-1.986-0.406-3.965-1.713-5.673,0.421c-0.074,1.619,0.008,2.07,0.824,2.546
	C63.238,48.097,64.534,48.933,66.354,48.538z M73.496,55.017c0.048-0.484,0.089-0.898,0.135-1.368
	c-2.435,0.347-2.435,0.347-2.894,1.368C71.639,55.017,72.476,55.017,73.496,55.017z"/>
<path fill-rule="evenodd" clip-rule="evenodd" fill="#e5f3a5" class="fill" d="M117.318,46.625c0.64,1.102,0.64,1.102,5.824-0.16
	c0.099,0.632,0.194,1.245,0.285,1.839c-1.852,0.813-3.944,0.476-5.571,2.231c2.098,0.834,3.707-0.679,5.578-0.474
	c0.055,0.459,0.107,0.906,0.16,1.34c-1.59,0.729-3.378,0.496-4.796,1.802c1.693,1.418,3.271-0.488,4.934,0.078
	c0.071,0.461,0.151,0.988,0.249,1.626c-1.409,0.348-2.7,0.666-4.165,1.028c1.285,2.156,3.012-0.024,4.703,1.059
	c-4.637,0.622-8.533,2.569-12.944,2.946c-1.343-4.277-2.635-8.393-3.977-12.662c4.29-4.014,9.548-5.978,15.209-7.354
	c0.306,0.99-0.315,1.199-0.96,1.51c-1.625,0.783-3.212,1.639-4.809,2.479c-0.091,0.048-0.12,0.21-0.224,0.407
	c1.098,0.92,2.064,0.249,3.034-0.244c0.931-0.473,1.854-0.965,3.087-1.607c0.085,1.01,0.14,1.648,0.208,2.459
	C121.14,45.512,119.246,46.063,117.318,46.625z"/>
<path fill-rule="evenodd" clip-rule="evenodd" fill="#e5f3a5" class="fill" d="M96.467,171.333c0.667-1.062,1.222-1.94,1.914-3.042
	c-1.459-0.796-2.746-1.499-4.069-2.22c3.747-1.683,11.408-0.553,15.383,2.834c0.94,2.855,1.113,4.091,0.798,5.971
	c-1.764,0-3.551,0-5.38,0c-0.224-0.914-0.427-1.745-0.664-2.715c-1.681,0.036-3.2,0.048-4.624,0.92
	c-1.552,0.95-3.102,1.962-4.778,2.632c-1.243,0.498-2.703,0.743-4.038,0.66c-3.214-0.2-6.408-0.432-9.611,0.105
	c-0.534,0.09-1.095,0.013-1.896,0.013c0.129-1.099,0.234-1.993,0.336-2.861c2.212-1.296,4.564-1.454,6.895-2.087
	c0.686,0.722,1.365,1.437,2.144,2.259c0.988-0.352,1.966-0.699,3.197-1.137c-0.503-1.12-0.922-2.051-1.412-3.14
	c0.396,0,0.754-0.093,1.033,0.017c1.05,0.415,2.067,0.917,3.114,1.343C95.256,171.065,95.747,171.142,96.467,171.333z"/>
<path fill-rule="evenodd" clip-rule="evenodd" fill="#e5f3a5" class="fill" d="M123.682,24.895c-0.433,1.097-0.876,2.222-1.334,3.382
	c-1.771-0.203-3.29-0.376-4.982-0.57c-0.167,1.104-0.293,1.942-0.411,2.72c1.036,0.976,2.486-0.22,3.469,0.97
	c-1.89,0.755-3.972,0.236-5.802,1.355c0.234,0.727,0.438,1.358,0.677,2.103c1.574,0,3.052,0,4.788,0
	c-0.171,0.465-0.196,0.992-0.439,1.128c-3.43,1.92-6.303,4.568-9.33,7.018c-0.19,0.153-0.439,0.233-0.769,0.402
	c-2.235-1.18-4.266-2.68-6.172-4.536c5.071-5.645,10.301-10.951,15.835-15.785C121.391,22.994,122.006,23.227,123.682,24.895z"/>
<path fill-rule="evenodd" clip-rule="evenodd" fill="#e5f3a5" class="fill" d="M117.311,75.414c-0.06-4.802-1.205-9.235-2.696-13.678
	c0.531-0.183,0.925-0.366,1.339-0.453c2.827-0.592,5.656-1.185,8.494-1.727c0.595-0.114,1.23-0.017,2.154-0.017
	c-0.281,0.909-0.507,1.633-0.77,2.48c0.42,0.334,0.89,0.708,1.499,1.192c-0.604,0.619-1.179,1.208-1.833,1.879
	c0.475,0.52,0.881,0.962,1.281,1.399c-1.08,1.585-1.629,2.02,0.618,4.713c-1.203,2.308-4.01,1.816-5.838,3.018
	c0.291,0.84,0.54,1.535,0.763,2.239c0.029,0.09-0.083,0.224-0.181,0.459C120.379,77.146,119.059,75.84,117.311,75.414z"/>
<path fill-rule="evenodd" clip-rule="evenodd" fill="#e5f3a5" class="fill" d="M75.746,185.503c0.111-0.827,0.19-1.423,0.269-2.013
	c1.424-0.507,2.709-0.965,3.995-1.423c-0.013-0.079-0.024-0.158-0.036-0.237c0.551,0.068,1.103,0.136,1.682,0.208
	c0.181,0.509,0.342,0.963,0.495,1.393c1.755,0.691,3.45,0.83,5.248,0.496c1.533-0.285,3.112-0.323,4.78-0.48
	c0.219-0.577,0.436-1.145,0.697-1.833c0.509,0.052,1.051,0.108,1.759,0.18c0.204,0.766,0.41,1.533,0.615,2.299
	c2.088,0.611,9.168-0.202,11.472-1.347c0.112-0.558,0.233-1.165,0.398-1.99c0.702,0.104,1.417,0.208,2.228,0.328
	c0.384,0.778,0.767,1.556,1.268,2.571c0.665,0.098,1.445,0.256,2.232,0.317c1.066,0.085,2.14,0.075,3.206,0.148
	c0.682,0.048,1.273,0.245,0.943,1.411c-0.577,0.044-1.233,0.121-1.891,0.14c-5.472,0.153-10.958,0.11-16.414,0.498
	c-4.346,0.309-8.672,0.317-13.009,0.179c-2.827-0.092-5.652-0.279-8.476-0.453C76.796,185.871,76.397,185.684,75.746,185.503z"/>
<path fill-rule="evenodd" clip-rule="evenodd" fill="#e5f3a5" class="fill" d="M85.844,40.15c1.206,1.043,2.468,2.134,4.083,3.532
	c-3.384,0.205-6.241-0.597-9.126-0.527c-2.926,0.07-5.849,0.285-9.222,0.459C76.238,40.901,80.833,39.782,85.844,40.15z"/>
<path fill-rule="evenodd" clip-rule="evenodd" fill="#e5f3a5" class="fill" d="M71.175,41.788c0.567-1.329,1.869-1.909,2.991-2.61
	c1.381-0.862,2.908-1.491,4.3-2.339c1.09-0.663,2.203-0.891,3.422-0.655c1.789,0.345,3.581,0.679,5.349,1.109
	c0.621,0.151,1.178,0.571,1.763,0.867c-0.025,0.167-0.05,0.331-0.075,0.498c-0.562,0.061-1.124,0.144-1.688,0.181
	c-2.693,0.177-5.409,0.188-8.07,0.571c-1.579,0.227-3.079,1.022-4.606,1.584c-1.039,0.383-2.064,0.806-3.096,1.211
	C71.369,42.067,71.272,41.927,71.175,41.788z"/>
<path fill-rule="evenodd" clip-rule="evenodd" fill="#e5f3a5" class="fill" d="M74.187,46.113c-0.032-0.271-0.081-0.451-0.069-0.628
	c0.013-0.182,0.083-0.36,0.189-0.783c1.363-0.104,2.793-0.367,4.206-0.292c3.508,0.187,7.011,0.499,10.51,0.83
	c0.73,0.069,1.465,0.368,2.135,0.692c0.378,0.183,0.628,0.632,1.239,1.285c-0.978-0.05-1.464-0.115-1.946-0.092
	c-4.222,0.199-8.34-0.876-12.533-1.007C76.732,46.082,75.545,46.113,74.187,46.113z"/>
<path fill-rule="evenodd" clip-rule="evenodd" fill="#e5f3a5" class="fill" d="M75.007,50.989c3.311,0.318,7.925,1.426,12.354,4.752
	c0.174,0.453,0.421,1.026,0.614,1.617c0.187,0.575,0.316,1.169,0.354,1.84c-3.022-2.533-6.477-4.199-9.959-5.845
	C77.218,52.809,76.25,51.878,75.007,50.989z"/>
<path fill-rule="evenodd" clip-rule="evenodd" fill="#e5f3a5" class="fill" d="M94.299,28.995c1.739-0.926,7.836-2.159,9.351-1.901
	c0,0.496,0,1.012,0,1.636c-2.085,0.24-4.106,0.322-5.599,1.656c-0.745,0.995-1.49,1.989-2.386,3.185
	C94.896,31.896,93.882,30.69,94.299,28.995z"/>
<path fill-rule="evenodd" clip-rule="evenodd" fill="#e5f3a5" class="fill" d="M89.897,52.42c-2.367-1.779-5.122-2.577-7.919-3.147
	c-2.734-0.559-5.52-0.866-8.428-1.307c2.417-1.066,6.132-0.839,14.202,0.841c0.715,0.957,1.578,2.112,2.44,3.268
	C90.093,52.19,89.996,52.306,89.897,52.42z"/>
<path fill-rule="evenodd" clip-rule="evenodd" fill="#e5f3a5" class="fill" d="M70.14,40.382c0.964-2.401,6.364-6.825,10.171-8.375
	c-0.363,1.065-0.684,2.007-1.032,3.026C76.349,36.748,73.338,38.51,70.14,40.382z"/>
<path fill-rule="evenodd" clip-rule="evenodd" fill="#e5f3a5" class="fill" d="M77.453,55.021c2.263,0.086,7.519,3.152,9.041,5.137
	c-0.444,0.314-0.886,0.626-1.384,0.98c-0.672-0.129-1.341-0.257-1.697-0.325C81.335,58.794,79.483,56.995,77.453,55.021z"/>
<path fill-rule="evenodd" clip-rule="evenodd" fill="#e5f3a5" class="fill" d="M75.461,33.01c-2.275,2.063-4.573,4.148-6.814,6.184
	C68.661,36.241,72.767,31.991,75.461,33.01z"/>
<path fill-rule="evenodd" clip-rule="evenodd" fill="#e5f3a5" class="fill" d="M67.911,34.207c0.396,0.519,0.723,0.946,1.068,1.397
	c-0.629,1.104-1.24,2.174-1.914,3.356c-0.327-0.049-0.718-0.108-1.253-0.189C66.412,37.143,66.691,35.548,67.911,34.207z"/>
<path fill-rule="evenodd" clip-rule="evenodd" fill="#e5f3a5" class="fill" d="M79.528,107.128c-0.347,0.886-0.637,1.625-1.005,2.564
	c-0.79-0.401-1.43-0.725-2.296-1.164c0.413-0.795,0.758-1.461,1.161-2.237C78.191,106.605,78.805,106.845,79.528,107.128z"/>
<path fill-rule="evenodd" clip-rule="evenodd" fill="#e5f3a5" class="fill" d="M74.775,60.571c-0.522-0.87-0.953-1.587-1.498-2.495
	c0.65-0.282,1.114-0.483,1.678-0.728c0.627,0.895,1.184,1.688,1.91,2.725C76.13,60.248,75.579,60.379,74.775,60.571z"/>
<path fill-rule="evenodd" clip-rule="evenodd" fill="#e5f3a5" class="fill" d="M87.886,53.432c-0.429,0-0.922,0.139-1.276-0.023
	c-1.915-0.879-3.795-1.833-5.671-2.84c2.485,0.239,4.779,1.102,6.969,2.294C87.901,53.053,87.894,53.243,87.886,53.432z"/>
<path fill-rule="evenodd" clip-rule="evenodd" fill="#e5f3a5" class="fill" d="M80.861,100.052c0.574,0.034,1.049,0.061,1.72,0.099
	c-0.343,0.988-0.637,1.833-0.991,2.853c-0.693-0.223-1.24-0.399-1.915-0.615C80.104,101.544,80.435,100.891,80.861,100.052z"/>
<path fill-rule="evenodd" clip-rule="evenodd" fill="#e5f3a5" class="fill" d="M78.483,60.125c-0.589-1.031-1.124-1.963-1.657-2.896
	c0.12-0.09,0.239-0.179,0.358-0.269c1.083,0.945,2.167,1.891,3.25,2.836c-0.042,0.109-0.083,0.219-0.125,0.329
	C79.749,60.125,79.188,60.125,78.483,60.125z"/>
<path fill-rule="evenodd" clip-rule="evenodd" fill="#e5f3a5" class="fill" d="M102.659,31.6c0.295,0.406,0.496,0.644,0.652,0.91
	c0.088,0.15,0.103,0.343,0.174,0.604c-0.301,0.189-0.601,0.378-1.042,0.654c-0.682-0.48-1.357-0.956-2.05-1.445
	C100.989,31.035,101.86,31.708,102.659,31.6z"/>
<path fill-rule="evenodd" clip-rule="evenodd" fill="#e5f3a5" class="fill" d="M92.455,167.821c1.718-0.241,2.913,0.142,3.936,1.161
	C95.601,169.886,94.096,169.488,92.455,167.821z"/>
<path fill-rule="evenodd" clip-rule="evenodd" fill="#e5f3a5" class="fill" d="M103.723,30.533c0.577-0.347,0.98-0.591,1.543-0.931
	c0.441,0.546,0.844,1.047,1.329,1.647c-0.492,0.396-0.851,0.685-1.372,1.104C104.706,31.726,104.262,31.187,103.723,30.533z"/>
<path fill-rule="evenodd" clip-rule="evenodd" fill="#e5f3a5" class="fill" d="M78.125,105.103c0.608-1.482,1.501-1.407,2.761-0.946
	c-0.255,0.647-0.489,1.24-0.815,2.065C79.379,105.825,78.825,105.506,78.125,105.103z"/>
<path fill-rule="evenodd" clip-rule="evenodd" fill="#e5f3a5" class="fill" d="M83.812,96.115c-0.244,0.829-0.487,1.66-0.76,2.589
	c-0.475-0.07-0.809-0.119-1.284-0.189c0.595-0.927,0.445-2.138,1.542-2.597C83.478,95.983,83.646,96.049,83.812,96.115z"/>
<path fill-rule="evenodd" clip-rule="evenodd" fill="#e5f3a5" class="fill" d="M101.666,35.458c-1.066,0.135-1.695-0.265-2.123-1.45
	C100.694,34.246,101.283,34.72,101.666,35.458z"/>
<path fill-rule="evenodd" clip-rule="evenodd" fill="#e5f3a5" class="fill" d="M89.548,172.299c-0.33-0.431-0.659-0.86-1.144-1.492
	c1.36-0.157,1.447,0.524,1.702,1.044C89.921,171.999,89.734,172.149,89.548,172.299z"/>
<path fill-rule="evenodd" clip-rule="evenodd" fill="#e5f3a5" class="fill" d="M119.319,33.234c-0.749,0.335-1.483,0.882-2.604,0.273
	C117.696,32.912,118.535,33.208,119.319,33.234z"/>
<path fill-rule="evenodd" clip-rule="evenodd" fill="#e5f3a5" class="fill" d="M84.819,93.132c-0.159,0.441-0.318,0.884-0.486,1.353
	c-0.162-0.116-0.324-0.204-0.314-0.23c0.165-0.452,0.351-0.897,0.532-1.344C84.64,92.984,84.73,93.058,84.819,93.132z"/>
<path fill-rule="evenodd" clip-rule="evenodd" fill="#e5f3a5" class="fill" d="M65.785,47.588c-0.705-0.223-1.424-0.451-2.396-0.76
	c0.574-0.76,0.969-1.282,1.327-1.756C66.422,45.517,66.522,45.749,65.785,47.588z"/>
</svg>
