<svg version="1.1" id="svg" xmlns="http://www.w3.org/2000/svg" xmlns:xlink="http://www.w3.org/1999/xlink" x="0px" y="0px"
	 width="200px" height="200px" viewBox="0 0 200 200" enable-background="new 0 0 200 200" xml:space="preserve">
<path class="stroke" fill="#0e0240"  fill-rule="evenodd" clip-rule="evenodd" d="M100.952,72.015c-0.213-0.351-0.28-0.628-0.427-0.681
	c-1.526-0.541-2.935-1.448-4.658-1.376c-0.681,0.029-1.388-0.099-2.055-0.266c-1.595-0.4-3.133-0.178-4.735,0.074
	c-3.673,0.577-7.33,1.335-11.107,1.053c-1.999-0.149-4.011-0.302-6.044-0.052c-1.408,0.173-2.869-0.072-4.306-0.148
	c-0.552-0.03-1.019-0.219-1.206-0.943c1.14-0.419,2.249-0.171,3.336-0.189c1.058-0.018,2.161,0.383,3.159-0.172
	c0-0.131,0.001-0.263,0.003-0.395c-1.61-0.131-3.218-0.326-4.831-0.381c-3.622-0.126-7.217,0.142-10.807,0.689
	c-1.604,0.245-3.267,0.106-4.902,0.141c-0.159,0.003-0.322-0.013-0.479,0.01c-4.934,0.758-9.877,0.104-14.815,0.099
	c-0.743,0-1.487,0.05-2.345,0.08c-0.336-0.396-0.697-0.821-1.081-1.272c1.429-1.782,2.873-2.998,5.282-2.74
	c1.839,0.197,3.727-0.034,5.592-0.092c2.503-0.079,5.007-0.176,7.439-0.262c0.164-0.091,0.279-0.122,0.344-0.196
	c2.496-2.84,5.917-4.297,9.1-6.117c1.896-1.084,3.735-2.265,5.612-3.381c0.981-0.583,1.584-1.5,1.868-2.514
	c0.688-2.46,2.011-4.581,3.331-6.707c0.811-1.304,1.597-2.65,2.597-3.802c1.458-1.681,2.338-1.566,3.765,0.311
	c2.261,0.196,3.945,1.735,5.699,3.106c0.95,0.744,1.712,1.728,2.658,2.479c0.504,0.399,1.232,0.773,1.837,0.741
	c1.604-0.085,2.974-0.498,3.973-2.135c1.547-2.538,3.487-4.837,5.247-7.248c1.035-1.419,1.979-2.912,3.086-4.272
	c0.682-0.837,1.594-1.487,2.483-2.14c1.955-3.792,3.365-5.397,6.07-6.642c0.51,0.08,1.135,0.181,1.819,0.289
	c2.288,2.262,3.842,5.062,5.471,7.806c0.462,0.778,0.908,1.571,1.296,2.388c0.751,1.582,1.541,3.155,2.159,4.79
	c0.622,1.643,1.568,2.753,3.276,3.422c1.818,0.71,3.514,1.754,5.213,2.737c1.094,0.634,1.795,1.658,2.183,2.865
	c0.274,0.853,0.835,1.398,1.542,1.948c1.675,1.307,3.317,2.677,4.822,4.175c1.809,1.8,3.461,3.758,5.242,5.713
	c4.225,0.73,8.554,1.171,12.938,1.036c2.237-0.069,4.478,0.031,6.716,0.003c1.699-0.021,3.398-0.14,5.098-0.18
	c0.403-0.01,0.81,0.118,1.152,0.173c0.304,0.788-0.002,1.242-0.496,1.634c-1.824,1.449-3.716,2.654-6.225,2.346
	c-4.235-0.521-8.498-0.515-12.755-0.547c-1.251-0.01-2.503,0.08-3.768,0.285c3.227,1.618,6.68,1.534,10.347,1.328
	c0.074,0.534,0.146,1.057,0.239,1.73c-0.764,0.181-1.361,0.415-1.97,0.451c-4.215,0.25-8.414,0.179-12.54-0.881
	c-0.206-0.053-0.428-0.084-0.612-0.182c-3.166-1.672-6.56-0.988-9.89-0.964c-0.153,0.001-0.308,0.064-0.459,0.109
	c-0.045,0.013-0.081,0.058-0.184,0.137c0.206,0.757,0.743,1.107,1.501,1.077c1.168-0.046,2.339-0.122,3.501-0.25
	c1.002-0.11,0.997-0.15,1.971,0.39c-0.643,1.318-2.148,0.59-3.163,1.388c0.446,0.095,0.778,0.22,1.113,0.23
	c3.994,0.119,7.989,0.197,11.982,0.337c2.074,0.074,4.164,0.115,6.212,0.41c3.202,0.461,6.374,0.224,9.56-0.03
	c0.545-0.044,1.101,0.03,1.867,0.057c-0.246,0.525-0.369,0.788-0.455,0.972c-4.5,0.586-8.891,0.61-13.298,0.014
	c-1.888-0.255-3.817-0.203-5.796-0.294c-0.113,0.473-0.191,0.796-0.293,1.219c3.55,0.298,7.047-0.208,10.51,0.679
	c-0.458,1.512-1.582,0.819-2.441,1.107c0.009,0.266-0.019,0.566,0.036,0.851c0.507,2.667,1.03,5.329,1.547,7.993
	c0.163,0.837,0.235,1.704,0.5,2.508c1.022,3.116,0.864,6.318,0.725,9.507c-0.241,5.584-0.517,11.168-0.879,16.746
	c-0.096,1.47-0.518,2.928-0.871,4.371c-0.519,2.12-1.098,4.226-1.672,6.333c-1.132,4.159-2.35,8.296-3.397,12.475
	c-0.859,3.425-2.869,5.615-6.251,6.596c-1.227,0.356-2.411,0.863-3.645,1.186c-1.373,0.359-2.23,1.188-2.676,2.492
	c-1.65,4.831-3.196,9.701-4.979,14.483c-1.07,2.871-1.698,5.977-3.854,8.38c-0.055,0.473-0.109,0.941-0.158,1.362
	c-0.791,1.059-1.789,1.521-3.052,1.573c-4.291,0.176-8.582,0.696-12.87,0.03c-1.838-0.286-3.651-0.76-5.495-0.991
	c-3.699-0.462-7.411-0.823-11.119-1.208c-1.058-0.11-2.124-0.246-3.184-0.225c-4.667,0.094-9.218-0.747-13.776-1.583
	c-2.579-0.472-5.072-1.188-7.516-2.124c-1.939-0.742-3.264-2.045-4.264-3.869c-2.187-3.987-3.766-8.229-5.473-12.423
	c-0.784-1.923-1.603-3.843-2.571-5.677c-1.058-2.002-2.465-3.798-4.605-4.729c-1.91-0.832-3.188-2.231-4.227-3.942
	c-0.109-0.18-0.236-0.348-0.368-0.54c0.171-1.544-0.547-2.625-1.738-3.536c-1.184-0.905-2.297-1.905-3.409-2.901
	c-1.009-0.904-1.772-1.989-2.113-3.325c-0.369-1.445-0.798-2.882-1.056-4.348c-0.449-2.557-1.349-4.826-3.275-6.121
	c-1.503-2.526-0.943-4.854-0.564-7.164c0.533-3.258,1.317-6.492,1.594-9.77c0.333-3.957,1.238-7.776,2.119-11.61
	c0.441-1.917,1.081-3.788,1.632-5.68c0.085-0.293,0.176-0.585,0.338-1.122c-2.064,0.074-3.951,0.141-5.933,0.211
	c-0.04-0.483-0.063-0.766-0.092-1.121c2.215-0.805,4.511-0.255,6.77-0.721c0.109-0.382,0.217-0.76,0.343-1.201
	c-2.057-0.354-4.115,0.245-6.066-0.579c0.412-0.935,1.139-0.919,1.818-0.931c2.183-0.033,4.365-0.038,6.674-0.055
	c0.04-0.234,0.097-0.568,0.191-1.126c-0.849-0.14-1.617-0.404-2.371-0.367c-3.483,0.169-6.903-0.321-10.317-0.882
	c-0.352-0.058-0.667-0.341-1.174-0.613c1.127-0.807,2.074-0.378,2.974-0.293c1.215,0.115,2.419,0.421,3.634,0.46
	c2.659,0.086,5.322,0.048,7.983,0.074c1.436,0.013,2.873,0.074,4.308,0.078c1.167,0.003,2.36,0.109,3.371-0.561
	c2.375,0.098,4.709,0.289,7.137-0.723c2.988,0.958,6.24,0.269,9.465,0.351c3.195,0.081,6.394,0.097,9.591,0.084
	c1.525-0.006,3.122,0.119,4.559-0.278c3.164-0.875,6.32-0.596,9.502-0.458c1.27,0.055,2.544-0.044,3.817-0.042
	C99.314,71.893,99.996,71.961,100.952,72.015z M132.889,71.995c-0.001-0.058-0.001-0.115-0.001-0.173
	c-1.233-0.173-2.461-0.388-3.7-0.508c-1.742-0.17-3.508-0.487-5.232-0.351c-2.728,0.217-5.358-0.18-7.835-1.121
	c-3.384-1.286-6.838-0.618-10.258-0.821c-0.455-0.027-0.988,0.062-0.943,0.996c3.411,0.193,6.831,0.387,10.339,0.587
	c-0.01,0.259-0.021,0.54-0.033,0.846c-2.725,0.741-5.563-0.302-8.113,1.049c1.905-0.076,3.804-0.261,5.706-0.37
	c1.378-0.079,2.825-0.364,4.149,0.816c-1.657,0.901-3.396,0.289-5.031,0.805c-0.009,0.351-0.017,0.688-0.023,0.964
	c4.003,0.292,7.892,0.575,12.127,0.884c-0.573-0.823-0.973-1.398-1.297-1.863c-2.282-0.064-2.282-0.064-2.272-1.299
	C124.604,72.29,128.747,72.143,132.889,71.995z"/>
<path class="stroke" fill="#0e0240"  fill-rule="evenodd" clip-rule="evenodd" d="M40.246,70.654c1.6-0.057,2.933-0.254,4.233-0.123
	c4.271,0.433,8.494-0.169,12.735-0.428c1.749-0.107,3.5-0.197,5.251-0.236c0.479-0.011,0.961,0.192,1.442,0.297
	c0.019,0.143,0.038,0.286,0.058,0.429c-0.33,0.157-0.651,0.428-0.989,0.452c-3.291,0.221-6.605,0.232-9.871,0.641
	c-3.101,0.387-6.159,0.122-9.238,0.03c-0.526-0.016-1.056,0.11-1.585,0.123C41.557,71.858,40.803,71.887,40.246,70.654z"/>
<path class="stroke" fill="#0e0240"  fill-rule="evenodd" clip-rule="evenodd" d="M158.032,70.76c-0.112-0.286-0.219-0.563-0.341-0.876
	c0.159-0.14,0.273-0.33,0.397-0.336c2.808-0.148,5.618-0.303,8.429-0.391c0.852-0.027,0.854,0.063,1.376,1.212
	c-0.469,0.178-0.925,0.495-1.387,0.503c-2.654,0.045-5.311,0.019-7.966,0.013C158.438,70.884,158.335,70.835,158.032,70.76z"/>
<path class="stroke" fill="#0e0240"  fill-rule="evenodd" clip-rule="evenodd" d="M173.614,74.721c0.125,0.302,0.218,0.443,0.237,0.595
	c0.019,0.147-0.039,0.304-0.078,0.554c-3.625,0.129-7.24,0.258-10.922,0.389c-0.041-1.014,0.515-1.191,1.102-1.245
	c0.954-0.088,1.915-0.129,2.874-0.154C169.104,74.802,171.384,74.766,173.614,74.721z"/>
<path class="stroke" fill="#0e0240"  fill-rule="evenodd" clip-rule="evenodd" d="M157.035,82.614c0.145-0.204,0.252-0.529,0.431-0.576
	c1.075-0.281,2.155-0.616,3.253-0.709c1.896-0.162,3.806-0.163,5.71-0.229c0.525-0.018,1.105-0.134,1.247,0.638
	c-0.24,0.766-0.884,0.801-1.531,0.828c-1.593,0.065-3.187,0.109-4.777,0.2c-0.953,0.055-1.902,0.174-2.85,0.28
	C157.894,83.116,157.895,83.128,157.035,82.614z"/>
<path class="stroke" fill="#0e0240"  fill-rule="evenodd" clip-rule="evenodd" d="M38.9,83.695c-1.31,0.714-8.815,0.787-10.041,0.156
	c0.09-0.708,0.673-0.768,1.178-0.794c2.341-0.123,4.685-0.224,7.028-0.284C37.744,82.755,38.444,82.864,38.9,83.695z"/>
<path class="stroke" fill="#0e0240"  fill-rule="evenodd" clip-rule="evenodd" d="M164.266,78.865c-0.521,0.194-1.028,0.491-1.567,0.562
	c-1.466,0.196-2.943,0.321-4.42,0.427c-0.996,0.072-0.999,0.037-1.606-1.128c2.552-0.441,5-1.032,7.513-0.362
	C164.213,78.532,164.239,78.699,164.266,78.865z"/>
<path fill-rule="evenodd" clip-rule="evenodd" fill="#FEFEFE" d="M56.112,64.523c0.192-0.1,0.393-0.185,0.576-0.299
	c2.893-1.8,5.759-3.637,8.934-4.941c2.47-1.016,4.167-2.834,5.286-5.284c1.191-2.609,2.519-5.157,3.851-7.699
	c0.435-0.831,1.073-1.555,1.721-2.476c0.892,1.077,2.105,1.209,3.048,1.753c1.539,0.886,2.822,2.226,4.183,3.41
	c0.52,0.453,0.937,1.02,1.43,1.504c0.968,0.947,2.126,1.36,3.493,1.237c4.147-0.375,3.533,0.128,6.384-3.393
	c1.831-2.261,3.239-4.865,4.827-7.321c0.753-1.163,1.428-2.382,2.25-3.494c0.489-0.664,1.133-1.261,1.821-1.717
	c0.734-0.487,1.315-1.001,1.701-1.824c0.967-2.06,2.462-3.673,4.541-5.071c0.604,0.89,1.189,1.631,1.646,2.444
	c2.059,3.67,4.245,7.281,6.062,11.069c1.322,2.756,3.46,4.393,6.026,5.656c2.406,1.184,4.432,2.75,5.749,5.126
	c1.248,2.251,3.317,3.715,5.125,5.439c1.417,1.352,2.717,2.826,3.958,4.386c-1.115-0.055-1.912-0.719-2.8-1.165
	c-1.93-0.967-3.566-2.17-4.607-4.215c-0.672-1.32-1.886-2.363-2.977-3.45c-0.022,1.065,0.458,1.88,0.995,2.715
	c1.118,1.742,2.167,3.53,3.211,5.318c0.428,0.732,0.298,1.467-0.312,2.044c-0.652,0.616-1.363,1.169-2.198,1.876
	c-1.363-2.999-2.933-5.7-3.658-8.802c-0.832-3.555-2.657-6.591-5.289-9.125c-0.672-0.647-1.028-0.724-2.121-0.588
	c0.238,0.34,0.398,0.643,0.627,0.879c1.82,1.889,3.637,3.814,4.449,6.362c0.913,2.866,1.282,5.821,0.532,8.812
	c-0.049,0.196-0.185,0.369-0.265,0.524c-0.953,0.224-1.318-0.363-1.596-1.032c-0.428-1.033-0.752-2.116-1.251-3.111
	c-0.643-1.279-1.385-2.513-2.146-3.728c-0.388-0.62-0.448-0.583-1.615-0.311c1.577,2.553,2.782,5.176,1.516,8.195
	c-1.233,0.847-2.59,0.835-3.894,0.609c-2.114-0.369-4.119-0.119-6.146,0.497c-1.205,0.367-2.48,0.507-3.802,0.765
	c-1.081-2.277-2.094-4.408-3.174-6.682c-0.833,0.806-0.599,1.566-0.398,2.214c0.267,0.858,0.729,1.653,1.074,2.488
	c0.235,0.567,0.416,1.158,0.629,1.762c-1.297,0.75-2.518,0.818-3.817,0.814c-4.256-0.016-8.512,0.081-12.768,0.129
	c-0.259,0.003-0.517-0.041-0.808-0.066c-0.367-0.905-0.72-1.775-1.084-2.673c-1.663,0.511-1.431,1.965-1.872,3.124
	c-1.312,0.721-2.75,0.644-4.143,0.264c-3.328-0.906-6.696-0.956-10.122-0.971c-4.023-0.02-8.117,0.105-12.004-1.333
	c-0.196-0.073-0.383-0.173-0.574-0.26C56.249,64.782,56.181,64.653,56.112,64.523z M110.062,34.134
	c-0.012,0.569-0.051,1.188-0.034,1.803c0.039,1.276,0.249,2.563,0.132,3.822c-0.189,2.051,0.562,3.611,2.013,4.961
	c0.995,0.925,1.932,1.912,2.999,2.977c0.402-0.454,0.657-0.742,0.877-0.991c-0.149-0.377-0.237-0.627-0.346-0.868
	c-0.064-0.145-0.14-0.293-0.244-0.41c-1.863-2.126-2.558-4.738-3.142-7.411c-0.237-1.084-0.584-2.148-0.936-3.203
	C111.217,34.313,110.955,33.803,110.062,34.134z M113.679,60.789c0.12-0.068,0.24-0.136,0.359-0.204
	c-0.155-0.759-0.278-1.526-0.469-2.275c-0.689-2.709-1.745-5.326-1.946-8.16c-0.033-0.479-0.135-1.151-0.874-1.359
	c-0.917,1.829-0.152,3.527,0.242,5.163c0.531,2.202,1.346,4.336,2.075,6.488C113.123,60.607,113.469,60.675,113.679,60.789z
	 M84.341,58.755c0.319-1.845-0.271-3.194-0.641-4.829c-1.322,1.354-0.659,2.721-0.824,4.067
	C83.299,58.213,83.694,58.418,84.341,58.755z M100.827,53.334c0.046,1.299,0.079,2.216,0.115,3.223
	c0.349,0.012,0.632,0.022,0.908,0.032C102.014,54.722,101.986,54.621,100.827,53.334z"/>
<path fill-rule="evenodd" clip-rule="evenodd" fill="#FEFEFE" d="M124.34,156.217c-2.439-0.014-4.732-0.028-7.109-0.042
	c1.144-4.351,2.312-8.581,2.469-12.918c0.183-5.037,1.369-9.896,1.996-14.847c0.247-1.942,0.196-3.928,0.194-5.895
	c-0.001-1.355-0.708-2.49-1.68-3.331c-0.554-0.479-1.411-0.761-2.16-0.833c-1.742-0.169-3.502-0.153-5.255-0.222
	c-0.689-0.028-1.414,0.042-2.057-0.151c-1.961-0.589-3.763-0.117-5.562,0.601c-0.938,1.387-0.81,2.993-0.871,4.5
	c-0.096,2.391,0.037,4.792,0.093,7.187c0.017,0.692,0.017,1.424,0.858,1.729c1.865-0.478,2.341-1.03,2.579-2.907
	c0.113-0.896,0.28-1.784,0.432-2.728c0.854,0.194,1.653,0.377,2.59,0.59c0.087,2.461,0.177,4.987,0.267,7.499
	c-1.218,0.244-2.347,0.47-3.621,0.726c-0.068,0.792-0.192,1.515-0.181,2.236c0.05,3.199,0.169,6.396,0.204,9.595
	c0.032,2.98-0.009,5.962-0.022,8.942c-0.001,0.434-0.027,0.869-0.866,0.897c-0.031-0.542-0.042-1.085-0.097-1.625
	c-0.267-2.642-0.539-5.282-0.826-7.92c-0.064-0.585-0.377-0.974-1.051-1.001c-0.721,0.497-0.723,1.298-0.801,2.002
	c-0.206,1.851-0.358,3.709-0.462,5.569c-0.18,3.242-0.298,6.487-0.465,9.729c-0.041,0.793-0.2,1.569-1.074,2.281
	c-0.837-5.242-1.057-10.336-0.86-15.438c0.195-5.099,0.584-10.19,0.904-15.548c-0.15-0.205-0.458-0.625-0.768-1.048
	c-1.035,0.104-2.021,0.203-3.139,0.314c-0.391-1.541-0.395-2.957-0.238-4.373c0.279-2.541,0.678-5.069,0.875-7.615
	c0.102-1.31-0.065-2.652-0.222-3.966c-0.109-0.923-0.551-1.712-1.648-2.13c-0.419,0.311-0.875,0.646-1.429,1.058
	c-0.209,3.822-0.454,7.643-0.617,11.467c-0.124,2.876-0.038,5.746,0.335,8.614c0.21,1.62-0.023,3.25-0.626,5.111
	c-0.363-1.609-0.658-2.917-0.942-4.172c-0.527-0.434-0.975-0.8-1.557-1.279c0.167-1.098,0.235-2.274,0.542-3.384
	c0.551-1.986,0.678-3.91,0.246-5.968c-0.321-1.53-0.087-3.172-0.14-4.763c-0.055-1.64-0.05-3.293-0.269-4.913
	c-0.226-1.668,0.162-3.244,0.236-5.006c1.525-0.059,2.842-0.324,4.195,0.603c1.377,0.941,2.967,0.947,4.514,0.104
	c0.129-3.33,0.255-6.567,0.382-9.862c1.283-0.408,1.788-1.34,2.3-2.453c1.178-2.566,1.169-5.266,1.307-7.968
	c0.04-0.781,0.077-1.563,0.11-2.229c2.687-0.096,5.188-0.184,7.741-0.275c0.104,0.491,0.224,0.79,0.223,1.089
	c-0.004,2.129-0.018,4.257-0.06,6.386c-0.032,1.595-0.055,3.195-0.182,4.785c-0.228,2.881-0.58,5.753-0.777,8.637
	c-0.078,1.134,0.116,2.287,0.178,3.283c0.828-0.119,1.453-0.27,2.083-0.285c1.369-0.031,1.736-0.316,2.102-1.667
	c0.471-1.742,1.064-3.457,1.453-5.216c0.306-1.386,0.464-2.817,0.546-4.237c0.213-3.727,0.05-7.45-0.267-11.167
	c-0.017-0.201,0.039-0.409,0.069-0.694c0.767-0.027,1.485-0.053,2.38-0.085c0.205,2.017,0.444,4.008,0.599,6.006
	c0.154,1.973,0.405,3.908,1.301,5.786c1.148,0.271,2.265,0.536,3.357,0.794c0.988-1.226,1.312-2.452,1.184-3.847
	c-0.181-1.963-0.303-3.932-0.443-5.899c-0.03-0.417-0.032-0.838-0.049-1.315c0.782-0.027,1.444-0.051,2.132-0.075
	c0.542,3.397,1.07,6.702,1.596,10.007c0.025,0.157,0.059,0.319,0.047,0.475c-0.158,2.17-0.324,4.338-0.503,6.7
	c-1.094,0.349-2.335,0.745-3.492,1.114c-0.4,6.375-0.794,12.582-1.165,18.79c-0.024,0.408,0.149,0.828,0.251,1.349
	c0.391,0.086,0.779,0.172,1.175,0.259c0.833-1.052,1.396-2.109,1.588-3.353c0.576-3.737,1.157-7.472,1.739-11.208
	c0.099-0.634,0.128-1.327,0.621-1.344c1.57,0.792,2.819,1.423,4.145,2.093c0.153,1.527,0.318,3.161,0.491,4.895
	c-1.157,0.521-1.51,1.585-1.764,2.778c-0.692,3.258-0.583,6.566-0.705,9.859c-0.042,1.117,0.029,2.237,0.022,3.356
	c-0.003,0.629-0.057,1.259-0.087,1.875c-1.04,0.273-1.953,0.559-2.886,0.746c-0.948,0.191-1.495,0.743-1.771,1.63
	c-0.127,0.407-0.282,0.806-0.4,1.215c-1.102,3.835-2.196,7.671-3.296,11.507C124.482,155.933,124.403,156.07,124.34,156.217z
	 M106.344,112.645c1.962-1.154,1.08-3.434,2.087-4.317c0.946-5.748,0.609-11.073-0.183-16.496c-0.339,0.13-0.657,0.252-0.966,0.371
	c-0.106,0.605-0.235,1.124-0.284,1.651c-0.461,5.034-0.919,10.07-1.353,15.107C105.54,110.176,105.595,111.386,106.344,112.645z
	 M124.608,136.064c-1.229,3.879-2.697,15.208-2.134,17.247c1.465-5.647,2.408-11.392,3.237-17.286
	C125.255,136.041,124.966,136.051,124.608,136.064z M122.572,114.409c-0.257-2.739,0.851-5.407,0.437-8.289
	c-0.482,0.128-0.805,0.214-1.091,0.291C121.488,110.298,121.648,112.928,122.572,114.409z"/>
<path fill-rule="evenodd" clip-rule="evenodd" fill="#FEFEFE" d="M62.643,139.199c0.725-0.205,0.961,0.217,1.117,0.695
	c0.79,2.414,1.958,4.663,2.377,7.255c0.397,2.463,0.905,5.063,2.743,7.041c0.369,0.396,0.81,0.728,1.175,1.051
	c0.92-0.542,0.991-1.219,0.815-1.922c-0.449-1.794-0.919-3.585-1.429-5.365c-0.332-1.163-0.98-2.254-0.732-3.679
	c0.471,0.034,0.925,0.056,1.376,0.102c1.606,0.161,2.637-0.4,3.092-1.866c0.626-2.017,0.909-4.058-0.275-6.218
	c0.135-4.116,0.276-8.4,0.432-13.167c-0.857-1.972-0.106-4.416,0.333-6.849c0.188-1.042,0.7-2.036,0.814-3.08
	c0.124-1.132-0.044-2.297-0.254-3.433c0.754-3.202,1.524-6.4,2.259-9.607c0.749-3.272,1.402-6.56,1.46-9.939
	c0.019-1.066,0.285-2.074,1.429-2.886c0.324,1.563,0.351,2.965,0.253,4.376c-0.173,2.496-0.34,4.993-0.544,7.487
	c-0.107,1.319-0.289,2.633-0.437,3.949c-0.012,0.106-0.042,0.211-0.045,0.316c-0.092,4.096-0.419,8.204-0.212,12.284
	c0.262,5.149,0.891,10.285,1.508,15.408c0.206,1.708,0.862,3.36,1.326,5.084c0.699-0.232,1.193-0.397,1.68-0.559
	c1.592-3.092,1.315-6.416,1.246-9.797c0.696-0.073,1.248-0.132,1.826-0.193c0.7,1.723,0.575,3.426,0.345,5.105
	c-0.243,1.774-0.03,3.495,0.25,5.238c0.208,1.297,0.242,2.623,0.344,3.823c0.131,0.195,0.169,0.332,0.251,0.366
	c1.566,0.655,2.033,1.947,2.29,3.514c0.559,3.412,1.263,6.8,1.897,10.2c0.057,0.303,0.028,0.622,0.043,1.032
	c-0.995,0.036-1.93,0.069-2.992,0.106c-1.071-0.493-1.548-1.503-1.752-2.724c-0.606-3.625-1.231-7.246-1.854-10.867
	c-0.125-0.73-0.276-1.456-0.4-2.104c-1.578-0.928-3.006-0.322-4.671,0.1c0.125,1.04,0.212,2.077,0.382,3.101
	c0.795,4.782,1.377,9.616,2.511,14.316c0.705,2.921,0.983,5.861,1.447,8.793c0.089,0.563,0.107,1.138,0.169,1.84
	c-0.425-0.121-0.665-0.189-0.86-0.245c-0.92-3.853-1.819-7.629-2.721-11.405c-0.878-3.673-1.725-7.353-2.657-11.013
	c-0.371-1.456-0.897-2.895-2.825-3.206c-1.042,0.608-1.622,1.576-1.542,2.832c0.104,1.644,0.286,3.285,0.521,4.915
	c0.342,2.371,0.644,4.757,1.181,7.087c0.559,2.427,1.375,4.795,2.083,7.187c0.194,0.655,0.404,1.306,0.675,2.178
	c-1.175-0.417-1.824-1.135-2.208-2.041c-0.725-1.712-1.357-3.464-2.136-5.477c-0.579-0.454-1.291-1.294-2.45-1.181
	c-0.862,0.395-0.908,1.107-0.734,1.796c0.207,0.818,0.517,1.617,0.858,2.392c0.537,1.223,0.619,1.604,0.382,3.01
	c-1.101-0.535-2.049-1.172-2.533-2.3c-0.714-1.662-1.589-3.295-2.012-5.034c-0.998-4.086-2.991-7.733-4.647-11.536
	C61.72,143.438,61.23,141.251,62.643,139.199z M75.438,125.376c-0.049,1.338-0.174,2.504-0.115,3.66
	c0.081,1.587,0.294,3.167,0.466,4.749c0.08,0.737,0.411,1.202,1.24,1.021c1.633-1.649,1.337-8.943-0.403-9.771
	C76.305,125.127,75.908,125.241,75.438,125.376z"/>
<path fill-rule="evenodd" clip-rule="evenodd" fill="#FEFEFE" d="M139.692,110.103c-0.102-2.855-0.19-5.334-0.281-7.904
	c1.514-0.174,2.195-0.974,2.056-2.448c0.108,0.018,0.216,0.035,0.323,0.052c0.104,0.537,0.24,1.068,0.305,1.61
	c0.141,1.175,0.306,2.325,1.229,3.206c0.178,0.171,0.311,0.458,0.337,0.705c0.442,4.113,0.757,8.236,0.483,12.373
	c-0.125,1.883-0.724,3.37-1.839,5.271c-0.375-0.056-0.778-0.116-1.185-0.178c-0.048-0.215-0.122-0.369-0.111-0.516
	c0.179-2.491,0.51-4.981,0.507-7.471C141.515,112.985,140.834,111.267,139.692,110.103z"/>
<path fill-rule="evenodd" clip-rule="evenodd" fill="#FEFEFE" d="M68.346,121.541c-1.269,0.286-2.534,0.57-3.874,0.871
	c-0.083-0.329-0.219-0.552-0.167-0.712c1.426-4.362,2.87-8.717,4.312-13.073c0.119,0.01,0.239,0.02,0.359,0.029
	c0.089,0.32,0.281,0.651,0.25,0.96c-0.175,1.786-0.464,3.563-0.596,5.351C68.477,117.065,68.443,119.174,68.346,121.541z"/>
</svg>
