<svg version="1.1" id="svg" xmlns="http://www.w3.org/2000/svg" xmlns:xlink="http://www.w3.org/1999/xlink" x="0px" y="0px"
	 width="200px" height="200px" viewBox="0 0 200 200" enable-background="new 0 0 200 200" xml:space="preserve">
<path class="stroke" fill="#51575c"  fill-rule="evenodd" clip-rule="evenodd" d="M144.197,40.221c1.207,0.32,2.049,0.545,3.041,0.809
	c1.891-1.258,3.84-2.554,5.695-3.787c0.06-0.434,0.115-0.661,0.118-0.888c0.026-2.098,1.355-3.448,3.452-3.494
	c2.378-0.051,4.434,1.528,4.986,3.832c0.328,1.362-0.171,2.589-1.338,3.363c-1.614,1.069-3.216,2.153-5.051,3.384
	c1.214,0.45,2.219,0.823,3.351,1.244c2.117-1.148,3.869-2.872,5.815-4.199c0.162-0.759,0.265-1.397,0.436-2.019
	c0.335-1.214,1.146-1.862,2.39-1.968c2.045-0.174,4.033,1.138,4.852,3.228c0.167,0.428,0.279,0.883,0.366,1.336
	c0.088,0.449,0.112,0.911,0.17,1.422c-2.095,1.533-4.165,3.046-6.312,4.617c0.227,0.393,0.383,0.778,0.636,1.083
	c1.519,1.826,1.108,3.76-0.334,5.726c-1.599,2.179-3.717,3.869-5.947,5.372c-2.339,1.577-4.708,3.12-7.149,4.529
	c-2.157,1.244-4.437,2.274-6.653,3.417c-4.804,2.477-9.606,4.956-14.4,7.455c-1.514,0.789-2.994,1.646-4.614,2.54
	c-3.008,7.37-6.55,14.591-9.278,22.202c1.507,1.387,2.912,2.797,4.439,4.058c3.206,2.646,6.462,5.234,9.727,7.805
	c2.435,1.917,4.936,3.75,7.374,5.664c1.417,1.114,2.707,2.395,4.157,3.463c4.392,3.238,8.834,6.408,13.259,9.601
	c0.3,0.217,0.602,0.446,0.938,0.59c0.288,0.125,0.625,0.136,0.914,0.192c0.891,0.723,1.75,1.424,2.611,2.121
	c1.001,0.81,1.135,1.902,0.343,2.902c-0.143,0.181-0.299,0.356-0.473,0.508c-0.383,0.334-0.782,0.651-1.12,0.93
	c-0.877,0.315-1.593,0.165-2.299-0.313c-6.049-4.096-12.325-7.851-17.994-12.517c-2.591-2.134-5.135-4.346-8.014-6.169
	c-2.636-1.671-4.919-3.9-7.354-5.889c-0.824-0.673-1.611-1.394-2.456-2.041c-2.085-1.596-4.193-3.163-6.392-4.816
	c-1.836,4.025-3.396,8.24-4.864,12.552c0.254,0.292,0.47,0.588,0.734,0.833c2.133,1.988,4.252,3.99,6.422,5.938
	c0.875,0.785,2.062,1.124,2.89,2.046c0.974,1.085,1.308,3.025,0.391,4.164c-0.335,0.416-0.962,0.687-1.505,0.82
	c-0.566,0.139-1.193,0.031-1.95,0.031c-0.723-0.587-1.536-1.247-2.301-1.869c0-0.566,0-0.973,0-1.611
	c-1.922-1.855-3.974-3.837-6.204-5.992c-0.462,1.082-0.831,1.91-1.174,2.749c-2.538,6.211-5.096,12.414-7.598,18.64
	c-2.206,5.489-4.335,11.008-6.521,16.506c-0.803,2.018-1.602,4.044-2.525,6.007c-1.503,3.196-2.524,6.539-3.358,9.955
	c-0.348,1.427-0.803,2.827-1.18,4.142c-2.72,1.054-5.027,0.511-6.917-1.675c0.4-1.559,0.836-3.249,1.271-4.939
	c2.093-2.332,2.153-5.532,3.5-8.208c1.764-3.505,3.196-7.184,4.665-10.831c1.4-3.473,2.665-7,3.988-10.505
	c1.062-2.813,2.159-5.613,3.17-8.444c0.979-2.742,1.831-5.529,2.808-8.272c0.979-2.744,2.047-5.456,3.07-8.185
	c0.21-0.557,0.399-1.122,0.604-1.704c-7.439-6.896-14.728-13.841-22.775-20.104c-3.655,8.438-7.329,16.857-10.952,25.297
	c-3.627,8.451-7.202,16.924-10.803,25.394c0.188,0.381,0.347,0.704,0.57,1.156c-0.631,1.53-1.295,3.144-1.911,4.636
	c-2.321,1.085-5.42,0.078-6.584-2.159c0.427-1.216,0.802-2.609,1.414-3.888c0.329-0.689,1.066-1.184,1.801-1.616
	c2.513-5.962,5.063-11.911,7.525-17.895c1.16-2.82,2.092-5.734,3.233-8.563c1.538-3.816,3.154-7.603,4.783-11.382
	c1.188-2.758,2.454-5.484,3.675-8.229c0.11-0.248,0.134-0.533,0.203-0.825c-0.153-0.057-0.285-0.16-0.396-0.14
	c-3.143,0.533-6.282,1.084-9.424,1.616c-1.046,0.177-2.102,0.295-3.15,0.46c-2.922,0.462-5.842,0.93-8.76,1.406
	c-2.509,0.409-5.022,0.793-7.521,1.258c-1.92,0.358-3.78,0.01-5.642-0.335c-2.506-0.464-4.989-1.02-7.301-2.153
	c-2.087-1.022-3.685-2.599-4.482-4.734c-0.993-2.659-0.41-5.183,1.399-7.396c2.106-2.578,4.125-5.234,6.341-7.713
	c1.999-2.238,4.194-4.303,6.341-6.406c0.857-0.84,1.831-1.56,2.72-2.368c2.232-2.026,4.889-3.297,7.643-4.427
	c3.849-1.581,7.669-3.228,11.508-4.832c3.54-1.478,7.09-2.931,10.631-4.404c1.152-0.48,2.333-0.916,3.429-1.504
	c3.116-1.673,6.509-2.631,9.778-3.911c4.348-1.704,8.664-3.495,12.958-5.333c7.74-3.312,15.451-6.689,23.518-9.157
	c2.386-0.73,4.769-1.511,7.284-1.645c0.724-0.039,1.489,0.042,2.183,0.248c1.592,0.47,3.01,0.137,4.376-0.687
	c0.872-0.526,1.725-1.087,2.626-1.556c0.885-0.46,1.375-1.162,1.707-2.077c0.726-2.003,1.981-2.894,3.934-2.775
	c1.715,0.104,3.783,1.244,4.414,3.096c0.383,1.126,0.071,2.22-1.032,3.066c-1.099,0.842-2.287,1.563-3.435,2.34
	C145.041,39.615,144.759,39.822,144.197,40.221z M86.723,95.772c6.101,5.882,12.142,11.481,18.372,17.13
	c1.884-4.341,3.676-8.473,5.517-12.715c-3.473-3.249-6.766-6.655-10.104-9.698C95.823,92.285,91.399,93.979,86.723,95.772z
	 M118.375,82.214c-0.105-0.111-0.21-0.223-0.315-0.333c-4.203,2.056-8.407,4.113-12.784,6.254c2.455,2.32,4.989,4.279,7.468,6.345
	c1.004-2.184,1.926-4.185,2.845-6.188C116.518,86.267,117.446,84.24,118.375,82.214z M149.333,41.278
	c0.029,0.117,0.059,0.235,0.087,0.353c1.245,0.428,2.49,0.856,3.683,1.266c0.307-0.132,0.534-0.196,0.725-0.317
	c1.82-1.171,3.65-2.329,5.435-3.551c0.339-0.233,0.61-0.707,0.711-1.119c0.322-1.306-0.719-3.102-2.002-3.593
	c-1.364-0.523-2.383-0.104-3.325,1.365c-0.071,1.985-0.261,2.353-1.736,3.317c-0.385,0.251-0.798,0.46-1.185,0.71
	C150.923,40.224,150.13,40.753,149.333,41.278z M170.75,42.006c-0.092-3.216-1.805-4.927-4.059-3.991
	c-0.115,0.203-0.309,0.428-0.374,0.687c-0.191,0.755-0.331,1.522-0.497,2.314c-1.726,1.354-3.455,2.712-5.372,4.217
	c1.399,0.552,2.541,1.001,3.745,1.476C166.385,45.137,168.518,43.607,170.75,42.006z M142.318,39.778
	c1.768-1.139,3.438-2.192,5.082-3.283c0.807-0.536,1.192-1.325,0.868-2.275c-0.346-1.015-1.01-1.75-2.158-1.896
	c-1.587-0.204-2.47,0.212-3.166,1.829c-0.741,1.724-1.934,2.863-3.654,3.543c-0.557,0.22-1.051,0.6-1.574,0.906
	c0.025,0.096,0.05,0.193,0.075,0.291C139.261,39.18,140.73,39.467,142.318,39.778z"/>
<path fill-rule="evenodd" clip-rule="evenodd" fill="#f7dad4" class="fill" d="M163.243,49.34c-0.597,1.258-1.581,1.906-2.551,2.483
	c-4.097,2.435-8.204,4.853-12.358,7.187c-5.604,3.147-11.214,6.287-16.896,9.291c-5.067,2.679-10.226,5.19-15.363,7.736
	c-4.268,2.116-8.563,4.177-12.85,6.256c-0.457,0.221-0.935,0.401-1.406,0.59c-3.908,1.562-7.821,3.11-11.722,4.689
	c-0.77,0.312-1.51,0.705-2.234,1.113c-2.32,1.307-4.863,2.053-7.385,2.79c-4.259,1.245-8.555,2.388-12.959,3.03
	c-3.389,0.495-6.785,0.928-10.17,1.441c-4.849,0.734-9.681,1.572-14.536,2.261c-2.947,0.418-5.911,0.373-8.817-0.423
	c-3.079-0.843-4.35-3.811-2.69-6.527c0.936-1.533,2.09-2.932,3.164-4.378c0.576-0.776,1.193-1.523,1.787-2.288
	c0.113-0.146,0.177-0.336,0.307-0.462c2.97-2.852,5.237-6.391,8.562-8.882c1.363-1.021,2.85-1.917,4.388-2.648
	c2.876-1.37,5.798-2.662,8.761-3.834c4.556-1.802,9.173-3.448,13.744-5.216c2.544-0.984,5.041-2.093,7.568-3.123
	c2.605-1.06,5.221-2.102,7.837-3.135c3.481-1.375,6.98-2.704,10.449-4.108c4.116-1.666,8.194-3.425,12.315-5.078
	c5.921-2.375,11.858-4.709,17.805-7.021c1.774-0.69,3.645-0.477,5.498-0.361c3.257,0.203,6.338,1.244,9.482,1.978
	c5.86,1.366,11.507,3.439,17.234,5.246C161.244,48.272,162.199,48.854,163.243,49.34z"/>
<path fill-rule="evenodd" clip-rule="evenodd" fill="#f7dad4" class="fill" d="M86.504,174.231c-0.481-0.167-1.052-0.366-1.778-0.62
	c0.304-1.022,0.513-1.913,0.831-2.762c1.345-3.592,2.7-7.179,4.094-10.751c1.729-4.436,3.517-8.848,5.244-13.284
	c0.973-2.499,1.867-5.027,2.809-7.539c0.91-2.423,1.852-4.834,2.751-7.261c1.269-3.422,2.465-6.871,3.775-10.277
	c1.725-4.486,3.458-8.973,5.319-13.403c2.007-4.772,4.166-9.481,6.263-14.215c0.167-0.375,0.371-0.734,0.618-1.218
	c0.812,0.205,1.592,0.402,2.484,0.626C108.721,120.704,98.168,147.583,86.504,174.231z M113.622,100.6
	c0.937,0.738,1.395,0.578,1.831-0.642C114.41,99.305,114.207,99.376,113.622,100.6z"/>
<path fill-rule="evenodd" clip-rule="evenodd" fill="#f7dad4" class="fill" d="M36.631,100.937c2.604,0.178,5.179-0.116,7.738-0.535
	c5.609-0.917,11.226-1.795,16.817-2.812c3.451-0.628,6.857-1.492,10.287-2.229c0.672-0.144,1.365-0.203,2.051-0.281
	c4.808-0.556,9.437-1.796,13.894-3.667c3.872-1.625,7.722-3.301,11.587-4.941c2.084-0.884,4.201-1.691,6.266-2.617
	c2.611-1.172,5.177-2.445,7.773-3.65c4.022-1.867,8.077-3.661,12.069-5.585c2.866-1.383,5.655-2.926,8.474-4.405
	c2.167-1.138,4.336-2.276,6.49-3.44c2.189-1.184,4.348-2.424,6.544-3.596c2.847-1.52,5.74-2.951,8.565-4.508
	c1.496-0.824,2.888-1.835,4.331-2.755c1.364-0.871,2.733-1.735,4.105-2.593c0.104-0.065,0.246-0.068,0.541,0.048
	c-0.329,0.387-0.611,0.833-0.998,1.151c-1.177,0.966-2.379,1.902-3.599,2.813c-1.148,0.858-2.27,1.776-3.51,2.479
	c-3.297,1.871-6.652,3.642-9.985,5.452c-6.552,3.559-13.342,6.625-20.122,9.712c-2.144,0.977-4.196,2.152-6.319,3.177
	c-2.206,1.065-4.454,2.043-6.669,3.088c-5.062,2.387-10.084,4.861-15.184,7.167c-3.958,1.791-7.988,3.425-12.021,5.047
	c-3.375,1.357-6.964,1.819-10.54,2.319c-1.691,0.236-3.36,0.637-5.041,0.949c-3.361,0.624-6.726,1.227-10.085,1.862
	c-0.862,0.162-1.702,0.444-2.563,0.611c-5.172,1.008-10.323,2.192-15.615,2.361c-1.65,0.054-3.312-0.221-4.968-0.365
	c-0.103-0.008-0.189-0.183-0.284-0.279L36.631,100.937z"/>
<path fill-rule="evenodd" clip-rule="evenodd" fill="#f7dad4" class="fill" d="M57.062,148.938c-0.659-0.381-1.041-0.603-1.562-0.903
	c0.497-1.442,0.907-2.855,1.468-4.206c2.077-4.993,4.239-9.952,6.298-14.953c1.16-2.822,2.137-5.717,3.278-8.546
	c1.574-3.899,3.226-7.768,4.849-11.647c0.088-0.209,0.221-0.399,0.428-0.765c0.798,0.089,1.635,0.182,2.729,0.303
	c-2.98,6.969-6.042,13.626-8.927,20.358C62.755,135.27,59.975,142,57.062,148.938z"/>
<path fill-rule="evenodd" clip-rule="evenodd" fill="#f7dad4" class="fill" d="M157.642,132.179c-0.619,0.361-0.954,0.556-1.347,0.785
	c-1.909-1.259-3.759-2.478-5.608-3.698c-0.771-0.511-1.564-0.991-2.304-1.543c-3.03-2.263-6.055-4.533-9.06-6.83
	c-3.089-2.36-6.184-4.717-9.218-7.148c-2.56-2.052-5.024-4.223-7.554-6.315c-1.534-1.268-3.109-2.485-4.667-3.722
	c-0.286-0.228-0.58-0.443-0.926-0.706c0.255-0.629,0.493-1.217,0.756-1.866C130.747,111.768,143.599,122.462,157.642,132.179z"/>
<path fill-rule="evenodd" clip-rule="evenodd" fill="#f7dad4" class="fill" d="M111.476,95.605c0.364,0.255,0.575,0.404,0.864,0.607
	c-0.33,0.726-0.64,1.409-1.039,2.284c-0.531-0.495-0.907-0.844-1.4-1.304C110.453,96.637,110.918,96.167,111.476,95.605z"/>
<path fill-rule="evenodd" clip-rule="evenodd" fill="#f7dad4" class="fill" d="M36.659,100.916c-1.583,0.278-2.765-0.642-4.009-1.374
	c1.324,0.467,2.648,0.935,3.977,1.397C36.631,100.937,36.659,100.916,36.659,100.916z"/>
</svg>
