<svg version="1.1" id="svg" xmlns="http://www.w3.org/2000/svg" xmlns:xlink="http://www.w3.org/1999/xlink" x="0px" y="0px"
	 width="200px" height="200px" viewBox="0 0 200 200" enable-background="new 0 0 200 200" xml:space="preserve">
<path class="stroke" fill="#55061d"  d="M147.727,89.688c0.543-3.893-0.041-7.522-2.66-10.646c-1.043-1.245-2.023-2.543-3.021-3.824
	c-0.276-0.354-0.516-0.735-0.848-1.214c0.762-0.608,1.424-1.163,2.113-1.682c2.722-2.059,3.817-5.907,2.571-9.075
	c-1.396-3.55-5.126-5.287-8.506-3.933c-0.684,0.274-1.317,0.677-2.009,1.04c-0.189-0.286-0.315-0.474-0.439-0.663
	c-0.128-0.194-0.243-0.398-0.381-0.584c-1.706-2.291-3.992-3.157-6.748-2.532c-1.577,0.357-3.127,0.894-4.637,1.484
	c-2.572,1.009-5.136,0.854-5.899-2.812c-0.612-2.945-1.407-5.896-2.53-8.68c-1.473-3.647-4.24-5.789-8.355-6.152
	c-2.729-0.241-5.178,0.526-7.64,1.4c-0.855,0.304-1.636,0.823-2.442,1.261c-2.228,1.208-3.552,3.283-5.074,5.193
	c-1.846,2.316-3.695,4.755-7.268,4.084c-0.381-0.072-0.805,0.081-1.209,0.132c-1.388,0.177-2.355,0.988-2.985,2.163
	c-0.49,0.916-0.896,1.893-1.209,2.884c-0.706,2.244,0.268,4.526,2.371,5.604c2.806,1.438,5.85,1.817,8.817,0.998
	c5.108-1.411,9.56-3.922,12.221-8.83c0.339-0.625,0.876-1.144,1.313-1.703c1.052,0.677,0.814,1.562,0.807,2.332
	c-0.019,2.043,0.466,3.964,1.633,5.607c1.342,1.889,2.876,3.642,4.324,5.457c0.237,0.298,0.46,0.609,0.619,0.819
	c-0.988,1.085-1.873,2.057-2.8,3.075c-6.266-1.723-11.929-0.078-17.154,3.277c-0.73-0.332-1.311-0.598-1.895-0.859
	c-4.672-2.09-9.575-2.852-14.629-2.218c-3.377,0.424-6.624,1.359-8.804,4.151c-2.139,0.141-4.179,0.157-6.186,0.426
	c-7.206,0.965-9.546,4.896-9.122,11.551c0.198,3.128,2.754,5.553,6.107,6.392c1.037,0.259,2.124,0.383,3.425,1.396
	c-0.493,0.23-0.775,0.335-1.031,0.485c-1.579,0.924-2.521,2.402-3.271,3.986c-0.695,1.466-1.262,2.996-1.841,4.514
	c-1.007,2.638-0.371,5.027,1.208,7.233c1.592,2.227,3.686,3.83,6.19,4.731c1.275,4.854,3.203,8.619,9.192,6.521
	c0.237,0.395,0.426,0.684,0.587,0.987c0.08,0.149,0.107,0.326,0.16,0.499c-0.206,0.486-0.407,0.969-0.617,1.448
	c-1.457,3.332-1.463,6.649,0.097,9.951c0.433,0.915,1.038,1.606,1.989,2.093c2.319,1.187,4.796,1.603,7.282,1.167
	c3.38-0.593,6.132,0.431,8.75,2.438c2.417,1.855,5.749,2.982,9.208,0.717c2.947,1.223,3.987,1.488,7.274,1.199
	c2.304-0.203,4.571-0.834,6.875-1.029c2.48-0.209,4.332-2.483,4.202-4.707c-0.042-0.73,0.05-1.467,0.083-2.258
	c0.841-0.059,1.472-0.102,2.067-0.142c2.122,1.704,4.347,2.694,7.123,2.304c2.764-0.388,4.634-1.934,5.981-4.043
	c1.106,0.199,2.007,0.439,2.921,0.502c0.922,0.065,1.868-0.151,2.785-0.06c3.055,0.303,5.927-2.096,6.791-4.937
	c0.319-1.047,0.86-2.03,1.333-3.026c1.075-2.262,1.777-4.54,0.717-7.033c-0.359-0.845-0.545-1.766-0.782-2.555
	c0.47-1.234,0.868-2.385,1.339-3.505c1.75-4.165,0.986-7.071-1.626-9.533c-0.208-0.196-0.499-0.305-0.706-0.427
	c1.172-2.812,2.572-5.242,2.955-8.056C147.053,92.868,147.502,91.293,147.727,89.688z"/>
<path fill-rule="evenodd" clip-rule="evenodd" fill="#f5c4bc" class="fill" d="M114.852,100.153c-2.978,2.262-10.826,3.766-13.398,1.389
	c1.577-5.667,0.997-10.425-1.913-15.858c0.115-1.723,2.141-2.297,2.555-4.268c-0.987,0.237-1.647,0.359-2.283,0.561
	c-0.603,0.189-1.179,0.462-1.737,0.687c-0.478-0.435-0.893-0.812-1.388-1.262c-0.302,0.278-0.539,0.495-0.83,0.762
	c0.417,0.816,0.834,1.572,1.199,2.353c1.61,3.434,2.021,7.138,2.387,10.842c0.269,2.716-1.275,4.366-3.543,5.429
	c-1.645,0.771-3.406,1.208-5.247,1.006c-2.729-0.3-4.745-1.614-6.086-4.084c-1.347-2.482-1.939-5.053-1.762-7.872
	c0.112-1.79-0.009-3.598-0.076-5.396c-0.09-2.479-1.522-4.107-3.594-5.177c-1.072-0.553-2.281-0.852-3.448-1.201
	c-2.437-0.729-4.885-1.416-7.516-2.173c1.497-1.737,3.39-2.572,5.38-2.634c4.845-0.152,9.628,0.433,14.212,2.155
	c0.204,0.076,0.37,0.252,0.561,0.386c-0.069,0.212-0.081,0.408-0.18,0.532c-2.547,3.162-2.226,6.737-1.35,10.309
	c0.51,2.078,1.32,4.088,2.067,6.103s1.866,2.767,3.736,2.668c0.813-1.32,0.738-1.378-0.394-2.602
	c-2.46-2.661-4.212-5.664-4.422-9.415c-0.15-2.686,1.057-4.672,2.93-6.41c1.545-1.434,3.562-1.917,5.396-2.764
	c2.919-1.348,5.991-1.765,9.183-1.454c2.342,0.229,3.524,1.415,3.522,3.628c-2.232,3.205-3.074,6.847-3.312,10.667
	c-0.175,2.784-0.256,5.577-1.304,8.162c0.653,1.519,1.961,2.126,3.178,1.531c1.155-0.565,1.558-1.785,0.791-3.13
	c-1.125-1.974-0.758-4.074-0.704-6.132c0.059-2.298,0.842-4.469,1.879-6.483c0.567-1.102,1.586-1.972,2.352-2.886
	c1.603-0.302,2.87,0.166,4.126,0.965c0.266,1.159,0.209,2.294-0.188,3.413c-0.195,0.548-0.367,1.114-0.646,1.619
	C112.045,89.442,112.433,94.781,114.852,100.153z"/>
<path fill-rule="evenodd" clip-rule="evenodd" fill="#f5c4bc" class="fill" d="M105.201,135.908c2.89,0.143,4.983-0.771,6.943-2.002
	c1.213,1.436,1.349,3.384,0.404,5.707c-1.59,0.964-3.473,1.422-5.358,1.631c-1.888,0.209-3.823,0.161-5.726,0.032
	c-2.628-0.177-4.144-2.299-3.646-4.869c0.221-1.139,0.371-2.297,0.671-3.415c0.221-0.83,0.462-1.749,0.99-2.381
	c1.157-1.385,3.058-1.242,4.608-1.817c0.603-0.223,1.569,0.227,2.246,0.599c0.723,0.397,1.326,0.955,2.296,0.534
	c0.866-1.557-0.757-1.979-1.493-2.909c1.722-1.606,2.186-3.628,2-5.849c-0.743-0.319-0.969,0.244-1.26,0.654
	c-1.326,1.867-2.964,3.425-4.873,4.663c-0.858,0.557-1.85,0.98-2.838,1.247c-1.79,0.48-3.625,0.787-5.436,1.186
	c-1.647,0.363-3.228,0.113-4.79-0.439c-1.472-0.521-2.951-1.018-4.51-1.555c-0.518-1.158-0.7-2.692-2.629-3.024
	c0.175,0.996,0.326,1.855,0.506,2.885c-0.926,0.12-1.765,0.23-2.703,0.351c-0.291,0.359-0.61,0.753-0.96,1.182
	c0.184,0.36,0.336,0.659,0.528,1.036c0.474-0.03,0.956,0.028,1.378-0.102c2.263-0.696,4.283-0.062,6.091,1.231
	c1.506,1.077,3.116,1.732,4.917,2.097c1.175,0.237,2.373,0.595,3.141,1.794c-0.262,0.978-0.513,1.982-0.799,2.978
	c-0.278,0.968-1.046,1.36-1.955,1.494c-2.006,0.295-3.971,0.18-5.664-1.073c-1.883-1.393-3.983-1.788-6.259-1.659
	c-1.217,0.068-2.439,0.016-3.66,0.021c-2.978,0.011-4.272-1.475-5.13-4.501c-0.265-0.933-0.293-1.964-0.255-2.944
	c0.097-2.483,1.147-4.309,3.383-5.686c3.806-2.345,7.88-3.087,12.2-2.611c4.277,0.471,8.149-0.703,11.941-2.446
	c1.317-0.604,2.621-1.275,3.995-1.714c2.66-0.849,5.159-0.107,7.558,1.081c0.465,0.231,0.898,0.536,1.323,0.838
	c1.813,1.294,2.358,2.975,1.863,5.154c-0.765,3.361-2.78,5.974-4.984,8.457c-0.917,1.033-2.062,1.859-3.074,2.811
	C105.878,134.862,105.675,135.256,105.201,135.908z"/>
<path fill-rule="evenodd" clip-rule="evenodd" fill="#f5c4bc" class="fill" d="M115.985,74.602c0.268-0.896,0.492-1.644,0.74-2.473
	c-2.118-0.342-1.764,1.725-2.736,2.564c-1.084-0.834-2.159-1.659-3.405-2.616c1.164-1.553,2.348-3.065,4.426-3.533
	c0.334-0.074,0.696-0.137,1.027-0.087c1.257,0.188,2.502,0.448,3.759,0.637c3.498,0.523,5.057,3.337,5.325,6.061
	c0.195,1.988,0.012,4.081-0.398,6.045c-0.543,2.598-1.466,5.117-2.242,7.666c-0.082,0.271-0.237,0.535-0.412,0.761
	c-0.639,0.823-0.796,1.704-0.202,2.58c0.673,0.994,1.604,0.676,2.448,0.393c0.671-0.54,0.72-1.17,0.629-1.923
	c-0.291-2.415,0.141-4.712,1.186-6.921c1.374-2.905,2.224-5.985,2.594-9.166c0.15-1.294-0.104-2.635-0.181-4.096
	c2.691-3.701,6.9-5.164,11.432-6.354c-0.185-0.739-0.312-1.248-0.488-1.954c-1.154,0.166-2.161,0.31-3.259,0.468
	c-0.477-0.549-0.099-0.962,0.366-1.359c1.343-1.148,3.439-1.305,5.062-0.378c3.155,1.802,4.243,5.602,2.479,8.747
	c-0.223,0.395-0.544,0.764-0.898,1.048c-1.223,0.978-2.429,1.989-3.733,2.849c-3.608,2.377-5.594,5.832-6.619,9.893
	c-0.738,2.927-1.294,5.899-1.945,8.849c-0.075,0.336-0.186,0.679-0.351,0.979c-1.571,2.858-6.121,5.459-10.032,4.122
	c-3.273-1.119-5.423-3.094-5.939-6.568c-0.314-2.113,0.591-3.978,1.502-5.811c0.284-0.57,0.546-1.15,0.821-1.726
	C118.396,80.254,118.292,77.356,115.985,74.602z"/>
<path fill-rule="evenodd" clip-rule="evenodd" fill="#f5c4bc" class="fill" d="M123.774,134.053c0.219-0.479,0.266-0.728,0.411-0.88
	c3.364-3.508,4.69-7.917,5.571-12.529c0.217-1.14,0.43-2.284,0.719-3.407c0.48-1.872,1.129-3.609,2.851-4.818
	c0.862-0.606,1.434-1.626,2.238-2.579c-0.486-0.315-0.787-0.511-1.139-0.74c-0.837,0.896-1.609,1.723-2.637,2.821
	c-0.438-1.402-0.774-2.473-1.178-3.765c-0.349-0.019-0.805-0.043-1.502-0.08c0.136,0.794,0.156,1.364,0.338,1.88
	c0.634,1.795,0.523,3.503-0.312,5.224c-0.427,0.881-0.764,1.836-0.958,2.794c-0.606,2.996-2.068,5.656-3.189,8.449
	c-1.234,3.076-3.894,4.28-6.822,5.055c-0.547,0.145-1.195-0.085-2.047-0.167c0.094-1.051,0.086-1.906,0.265-2.72
	c0.237-1.072,0.786-2.094,0.903-3.17c0.16-1.482,0.04-2.994,0.04-4.594c0.587-0.828,1.227-1.72,1.855-2.621
	c1.91-2.736,2.658-5.886,3.242-9.098c0.452-2.486,0.993-4.977,3.4-6.37c1.028-0.595,2.209-1.122,3.37-1.25
	c3.942-0.44,7.759,0.211,11.397,1.817c0.424,0.188,0.825,0.429,1.228,0.66c3.858,2.217,4.004,5.369,1.685,9.012
	c-1.171,1.839-2.952,3.281-4.237,5.061c-2.446,3.386-4.701,6.91-7.102,10.329c-1.03,1.466-2.148,2.89-3.375,4.193
	C127.527,133.902,125.852,134.254,123.774,134.053z"/>
<path fill-rule="evenodd" clip-rule="evenodd" fill="#f5c4bc" class="fill" d="M82.287,60.887c-1.188-2.847-0.759-4.931,1.504-6.938
	c0.765,0,1.632-0.064,2.485,0.014c1.553,0.143,2.887-0.283,3.955-1.406c2.033-2.14,4.149-4.214,6.021-6.488
	c2.693-3.275,8.486-4.625,12.272-3.49c1.667,0.5,2.784,1.739,3.31,3.353c0.662,2.034,1.24,4.109,1.656,6.207
	c0.375,1.897,0.803,3.741,1.825,5.408c1.652,2.691,4.909,3.811,7.861,2.665c1.623-0.63,3.229-1.3,4.782-1.928
	c2.717,0.549,3.678,1.54,4.322,4.504c-3.149,1.366-6.286,2.842-8.667,5.589c-1.608-0.582-3.209-1.212-4.842-1.735
	c-1.257-0.403-2.55-0.906-3.839-0.947c-1.91-0.061-3.437-0.976-4.623-2.133c-3.292-3.212-4.959-7.231-4.995-11.881
	c-0.015-2.159-0.382-3.246-1.477-4.531c-1.15,0.002-1.96,0.662-2.446,1.62c-0.493,0.974-0.959,2.02-1.134,3.084
	c-0.608,3.708-2.517,6.381-5.82,8.181c-2.182,1.189-4.364,2.143-6.923,1.955c-0.616-0.045-1.249,0.229-1.88,0.266
	c-1.349,0.079-2.726,0.156-3.398-1.411c0.216,0.09,0.425,0.187,0.642,0.263c1.841,0.645,2.725,0.204,3.09-1.751
	c0.218-1.167,0.164-2.386,0.24-3.706c-0.812-0.313-1.47-0.568-2.051-0.793c-1.281,0.894-1.58,2.047-1.691,3.28
	C82.384,59.053,82.345,59.971,82.287,60.887z"/>
<path fill-rule="evenodd" clip-rule="evenodd" fill="#f5c4bc" class="fill" d="M76.493,91.119c-0.771-1.583-1.894-2.847-3.726-3.323
	c-1.79-0.466-3.565-0.993-5.312-1.482c-0.271-1.22-0.53-2.379-0.813-3.651c-0.621,0-1.094,0-1.698,0
	c0.184,0.932,0.343,1.741,0.549,2.791c-1.079-0.153-1.912-0.272-2.84-0.404c-0.279,0.321-0.564,0.65-0.871,1.001
	c0.185,0.199,0.279,0.344,0.413,0.432c0.141,0.092,0.317,0.172,0.482,0.183c4.032,0.273,6.559,2.939,9.032,5.683
	c0.428,0.474,0.792,1.006,1.229,1.47c0.832,0.882,1.833,1.403,3.088,1.375c0.637-0.014,1.276,0.046,1.914,0.073
	c2.173,0.093,3.275,1.552,4.061,3.307c0.579,1.297-0.043,2.746-1.399,3.312c-1.845,0.77-3.751,1.106-5.78,0.758
	c-3.497-0.598-6.25-2.274-8.391-5.125c-2.361-3.141-5.549-5.104-9.435-5.755c-1.994-0.335-3.055-1.455-3.621-3.284
	c-1.293-4.175,1.324-8.605,5.637-9.667c2.208-0.543,4.396-0.292,6.589-0.135c2.955,0.213,5.915,0.437,8.848,0.84
	c1.353,0.186,2.664,0.759,3.953,1.263c0.378,0.148,0.69,0.623,0.898,1.018c1.113,2.115,1.574,4.415,1.281,6.752
	C80.281,90.954,79.411,91.779,76.493,91.119z"/>
<path fill-rule="evenodd" clip-rule="evenodd" fill="#f5c4bc" class="fill" d="M73.627,109.252c-1.747,1.172-3.501,2.398-5.306,3.549
	c-3.57,2.277-6.574,1.893-9.718-1.188c-2.587-2.535-3.237-6.324-1.576-9.566c0.5-0.979,1.068-1.953,1.773-2.786
	c0.958-1.13,2.275-1.578,3.758-1.267c1.425,0.299,2.161,1.303,2.403,2.667c0.11,0.619,0.133,1.277,0.057,1.9
	c-0.223,1.806-1.209,2.531-2.993,2.28c-0.343-0.048-0.683-0.108-1.048-0.167c-0.201,0.132-0.418,0.23-0.574,0.388
	c-0.15,0.154-0.235,0.369-0.387,0.623c1.151,0.907,2.412,0.798,3.628,0.659c1.033,0.808,0.606,3.151,3.061,2.583
	c-0.481-1.204-0.914-2.287-1.377-3.447c0.45-0.635,0.877-1.239,1.254-1.773C70.664,103.388,73.742,105.835,73.627,109.252z"/>
<path fill-rule="evenodd" clip-rule="evenodd" fill="#f5c4bc" class="fill" d="M79.304,105.506c1.859-0.774,3.563-1.483,5.381-2.239
	c2.004,3.229,5.09,2.95,8.204,2.443c1.496,2.429,0.76,7.9-1.63,12.037c-0.891-0.503-1.748-1.099-2.69-1.485
	c-0.895-0.365-1.881-0.51-2.994-0.794c0.105-1.757,0.309-3.735-1.374-5.098c-1.248-1.011-2.677-1.634-4.731-1.313
	c-0.71,0.74-1.641,1.677-2.532,2.65c-0.469,0.513-0.779,1.204-1.312,1.621c-2.401,1.879-4.278,4.247-6.278,6.507
	c-1.163,1.313-2.439,1.492-4.212,0.646c0.333-0.35,0.601-0.685,0.921-0.96c2.075-1.784,4.137-3.566,5.379-6.096
	c0.581-1.184,1.582-2,2.738-2.609C76.475,109.606,77.961,107.62,79.304,105.506z"/>
<path fill-rule="evenodd" clip-rule="evenodd" fill="#f5c4bc" class="fill" d="M142.716,101.343c-2.001-0.761-3.784-1.439-5.661-2.154
	c0.044-0.265,0.025-0.566,0.142-0.801c0.968-1.957,1.348-4.066,1.68-6.194c0.42-2.69-0.343-5.196-1.256-7.648
	c-1.064-2.862,0.138-5.145,3.12-5.62c1.368-0.219,2.52,0.217,3.358,1.353c2.012,2.723,2.621,5.786,2.125,9.088
	c-0.318,2.124-0.666,4.245-1.071,6.352C144.766,97.738,143.759,99.5,142.716,101.343z"/>
<path fill-rule="evenodd" clip-rule="evenodd" fill="#f5c4bc" class="fill" d="M97.798,117.225c-1.646,0.447-2.989,1.467-4.93,1.436
	c1.416-3.898,2.753-7.577,4.204-11.576c1.163-0.594,2.597-1.327,4.151-2.121c1.159,0.25,2.433,0.412,3.628,0.808
	c2.625,0.869,3.733,2.625,3.458,5.428c-0.104,1.066-0.433,2.109-0.639,3.073c-1.811,0.152-3.354,0.281-5.033,0.423
	c-0.345-1.755,0.413-3.361,0.68-4.987c0.783-0.397,1.474-0.746,2.172-1.098c-0.474-1.425-1.463-0.486-2.18-0.774
	c-0.271-0.677-0.561-1.403-0.852-2.13c-0.131-0.016-0.262-0.032-0.394-0.049c-0.154,0.362-0.41,0.713-0.447,1.086
	c-0.265,2.63-1.046,5.112-2.149,7.491C98.984,115.274,98.351,116.245,97.798,117.225z"/>
<path fill-rule="evenodd" clip-rule="evenodd" fill="#f5c4bc" class="fill" d="M112.954,116.659c-1.16-0.653-2.32-1.305-3.648-2.053
	c0.823-3.279,1.65-6.573,2.496-9.936c1.354-0.281,2.751-0.57,4.33-0.896c1.642,3.911,0.775,7.355-1.968,10.854
	c1.795,0.019,2.748-1.148,4.342-0.833c-0.462-0.781-0.661-1.117-0.943-1.594c1.57-3.104,1.737-6.525,1.259-10.355
	c0.957,0.778,1.642,1.335,2.285,1.858c-0.87,3.892-1.724,7.713-2.525,11.293C116.301,116.622,115.44,116.858,112.954,116.659z"/>
<path fill-rule="evenodd" clip-rule="evenodd" fill="#f5c4bc" class="fill" d="M136.558,130.027c-0.203-1.653-0.813-3.297,0.974-4.575
	c0.337,0.53,0.633,0.996,0.958,1.505c0.357-0.056,0.683-0.106,1.204-0.187c-0.073-0.755-0.137-1.417-0.215-2.241
	c1.281-0.809,2.635-1.664,4.037-2.55c0.249,1.662-1.345,5.828-3.349,8.824c-0.679,0.172-1.512,0.384-2.413,0.613
	C137.323,130.918,136.916,130.445,136.558,130.027z"/>
<path fill-rule="evenodd" clip-rule="evenodd" fill="#f5c4bc" class="fill" d="M80.622,113.328c0.151,1.838-0.228,3.432-1.018,5.128
	c-1.552,0-3.135,0-4.714,0C75.808,114.977,77.171,113.71,80.622,113.328z"/>
<path fill-rule="evenodd" clip-rule="evenodd" fill="#f5c4bc" class="fill" d="M133.928,98.746c-0.787-0.096-1.449-0.178-2.114-0.259
	c0.962-2.016,1.862-3.901,2.919-6.117c0.021-0.007,0.436-0.143,1.141-0.373C135.84,94.505,135.087,96.557,133.928,98.746z"/>
<path fill-rule="evenodd" clip-rule="evenodd" fill="#f5c4bc" class="fill" d="M84.73,57.304c-0.093,0.757-0.187,1.515-0.28,2.272
	c-0.152-0.014-0.306-0.026-0.459-0.04c0.057-0.766,0.114-1.531,0.172-2.297C84.353,57.261,84.542,57.282,84.73,57.304z"/>
</svg>
