<svg version="1.1" id="svg" xmlns="http://www.w3.org/2000/svg" xmlns:xlink="http://www.w3.org/1999/xlink" x="0px" y="0px"
	 width="200px" height="200px" viewBox="0 0 200 200" enable-background="new 0 0 200 200" xml:space="preserve">
<path class="stroke" fill="#55061d"  fill-rule="evenodd" clip-rule="evenodd" d="M176.252,78.291c-0.59-2.329-0.963-4.724-2.136-6.896
	c-1.42-2.63-3.16-4.912-5.846-6.359c-3.81-2.052-7.759-3.384-12.203-3.111c-3.38,0.208-6.719,0.46-9.927,1.618
	c-2.319,0.836-4.457,1.989-5.75,4.178c-0.88,1.489-1.627,3.075-2.262,4.685c-1.05,2.662-2.421,5.054-4.752,6.811
	c-0.892,0.673-1.84,1.313-2.586,2.131c-1.928,2.115-4.273,3.423-7.203,4.046c-0.178-0.22-0.36-0.371-0.446-0.564
	c-1.973-4.411-4.625-8.346-8.148-11.67c-1.636-1.544-3.594-2.615-5.798-2.817c-4.131-0.376-8.209,0.365-12.152,1.492
	c-5.504,1.574-10.922,3.45-16.375,5.199c-5.088,1.631-10.141,3.352-14.926,5.774c-1.475,0.747-2.873,1.56-3.817,2.967
	c-1.316,1.959-2.667,3.896-3.914,5.899c-0.558,0.896-0.882,1.935-1.34,2.895c-0.237,0.498-0.487,1.002-0.815,1.442
	c-1.881,2.517-3.964,4.897-5.107,7.895c-0.138,0.361-0.371,0.705-0.627,0.998c-2.48,2.841-4.086,6.192-5.481,9.635
	c-0.69,1.702-1.644,3.171-2.754,4.602c-1.957,2.524-4.161,4.895-5.254,7.993c-0.109,0.309-0.334,0.588-0.548,0.847
	c-1.914,2.316-3.325,4.926-4.479,7.723c-1.193,0.44-2.287,0.998-2.347,2.468c0.322,0.981,1.119,1.29,1.948,1.482
	c0.983,0.229,1.982,0.398,2.982,0.545c5.812,0.848,11.552,0.237,17.277-0.823c2.318-0.431,4.659-0.733,6.987-1.11
	c2.552-0.414,5.162-0.628,7.641-1.312c5.954-1.643,11.933-3.211,17.729-5.4c6.944-2.623,13.919-5.157,20.495-8.644
	c3.869-2.054,7.743-4.103,11.557-6.256c2.115-1.193,2.315-2.748,0.766-4.753c0.005-7.401,3.704-12.518,10.394-15.863
	c-0.34-1.609-0.659-3.116-0.985-4.66c0.3-0.176,0.53-0.332,0.775-0.453c0.554-0.274,1.122-0.52,1.672-0.8
	c3.648-1.859,6.757-4.243,8.123-8.333c0.105-0.312,0.291-0.615,0.5-0.872c1.921-2.358,2.921-5.163,3.956-7.966
	c0.861-2.332,2.245-4.328,4.529-5.458c6.868-3.398,13.782-3.711,20.733-0.182c2.313,1.175,3.961,3.047,5.06,5.266
	c1.443,2.912,1.918,6.143,1.603,9.366c-0.717,7.327-4.268,13.222-9.852,17.837c-3.762,3.11-7.734,5.978-11.724,8.796
	c-5.163,3.646-9.051,8.188-10.903,14.329c-1.128,3.736-0.957,7.314,1.096,10.717c0.923,1.53,1.824,3.073,2.804,4.727
	c-0.809,2.734-0.466,5.441,1.455,7.809c1.78,2.193,3.28,4.845,6.653,4.626c0.998,0.892,1.271,2.697,3.146,2.136
	c0.989-1.227-0.254-2.18-0.493-3.397c0.823-0.535,1.651-1.073,2.533-1.646c0.891,1.081,1.525,2.461,3.261,1.999
	c1.157-1.623-0.308-2.704-0.826-4.009c0.068-0.304,0.084-0.657,0.224-0.951c0.582-1.221,0.292-2.342-0.47-3.314
	c-1.108-1.414-2.341-2.729-3.482-4.118c-2.172-2.642-4.932-3.093-8.067-2.247c-0.472,0.127-0.958,0.207-1.353,0.291
	c-3.226-3.422-3.829-5.299-3.346-9.725c0.314-2.876,1.685-5.318,2.923-7.847c1.027-2.095,2.601-3.703,4.371-5.042
	c4.74-3.586,9.953-6.527,14.254-10.721c2.376-2.317,4.998-4.397,6.684-7.321c2.48-4.3,3.979-8.917,4.278-13.896
	C176.22,80.077,176.463,79.124,176.252,78.291z M96.395,88.022c-3.825-0.748-7.356,0.301-10.825,1.702
	c-0.403,0.163-0.79,0.465-1.079,0.794c-1.041,1.187-2.436,1.75-3.84,2.335c-3.569,1.488-7.124,3.011-10.687,4.517
	c-0.298,0.126-0.612,0.218-0.913,0.324c-1.05-2.5-0.613-4.575,1.216-6.5c1.935-2.035,4.329-3.375,6.781-4.637
	c2.212-1.139,4.564-1.815,7-2.341c2.958-0.636,5.848-1.587,8.788-2.317c2.066-0.513,4.168-0.876,6.251-1.326
	c1.479-0.319,2.944-0.715,4.432-0.989c0.706-0.129,1.462-0.144,2.172-0.047c1.756,0.24,3.226,0.939,3.865,2.781
	c0.38,1.096,0.812,2.174,1.307,3.489C105.636,85.323,101.035,86.847,96.395,88.022z"/>
<path fill-rule="evenodd" clip-rule="evenodd" fill="#f5c4bc" class="fill" d="M122.271,89.012c-1.261,0.926-2.393,1.839-3.604,2.628
	c-2.073,1.351-4.232,2.571-6.29,3.945c-2.463,1.644-5.228,2.626-7.945,3.669c-5.717,2.197-11.495,4.239-17.261,6.307
	c-2.538,0.91-5.103,1.745-7.667,2.582c-1.066,0.348-2.168,0.586-3.241,0.916c-3.486,1.07-6.935,2.281-10.458,3.215
	c-4.788,1.268-9.644,2.224-14.63,2.322c-1.267,0.025-2.532,0.176-4.037,0.287c1.097-2.996,2.865-5.217,4.644-7.41
	c0.956,0.212,1.818,0.442,2.694,0.589c1.136,0.192,2.103-0.197,2.911-1.004c1.467-1.465,2.463-3.22,3.05-5.188
	c0.605-2.027-0.257-3.493-2.088-4.573c1.061-2.134,2.133-4.215,3.136-6.328c1.681-3.542,4.538-5.803,7.978-7.44
	c5.182-2.467,10.57-4.418,16.025-6.165c4.334-1.387,8.697-2.716,13.112-3.808c3.312-0.819,6.702-1.507,10.17-1.081
	c2.684,0.331,4.951,1.481,6.613,3.649c2.33,3.041,4.632,6.109,5.968,9.755C121.714,86.871,121.95,87.907,122.271,89.012z
	 M66.719,95.328c-0.021,3.067,1.004,5.658,2.378,8.144c0.546,0.986,1.377,1.701,2.46,1.904c1.365,0.257,2.784,0.508,4.152,0.403
	c1.783-0.137,3.573-0.507,5.299-0.99c3.728-1.043,7.445-2.141,11.115-3.37c3.723-1.248,7.534-2.319,10.95-4.332
	c2.66-1.568,5.307-3.167,7.855-4.906c1.298-0.885,2.196-2.167,2.519-3.84c0.201-1.044-0.175-1.865-0.455-2.757
	c-0.638-2.035-1.356-3.985-2.57-5.819c-1.571-2.373-4.398-3.199-7.068-2.501c-3.908,1.022-7.901,1.676-11.784,2.864
	c-5.097,1.559-10.309,2.753-15.3,4.654c-3.25,1.237-6.147,3.004-8.17,5.969C67.113,92.197,66.485,93.708,66.719,95.328z"/>
<path fill-rule="evenodd" clip-rule="evenodd" fill="#f5c4bc" class="fill" d="M114.215,106.299c0,2.885,0,5.613,0,8.588
	c-1.891,1.108-3.814,2.369-5.853,3.4c-3.203,1.62-6.47,3.116-9.734,4.608c-3.521,1.612-6.994,3.375-10.63,4.68
	c-4.535,1.626-9.209,2.871-13.835,4.24c-1.722,0.51-3.463,0.979-5.221,1.341c-3.352,0.689-6.723,1.278-10.082,1.931
	c-1.765,0.343-3.511,0.781-5.28,1.089c-5.214,0.91-10.461,1.474-15.765,1.391c-1.382-0.021-2.764-0.003-4.432-0.003
	c1.073-3.488,2.859-6.141,5.189-8.74c2.246,0,4.605,0.099,6.954-0.022c4.165-0.214,8.223-1.158,12.307-1.949
	c6.028-1.167,11.864-3.035,17.753-4.707c5.186-1.473,10.318-3.103,15.167-5.55c2.249-1.135,4.719-1.822,7.029-2.849
	c5.023-2.234,10.008-4.558,15.011-6.841C113.238,106.701,113.694,106.519,114.215,106.299z"/>
<path fill-rule="evenodd" clip-rule="evenodd" fill="#f5c4bc" class="fill" d="M50.617,125.626c-2.437,0.307-4.7,0.592-7.325,0.923
	c1.491-3.447,3.324-6.222,5.11-9.017c1.83-0.13,3.554-0.252,5.597-0.397C52.826,120.078,51.75,122.782,50.617,125.626z"/>
<path fill-rule="evenodd" clip-rule="evenodd" fill="#f5c4bc" class="fill" d="M54.696,124.781c1.061-2.9,1.998-5.463,2.987-8.169
	c0.896-0.168,1.794-0.337,3.065-0.576c-0.667,2.935-1.254,5.52-1.873,8.242C57.518,124.441,56.275,124.591,54.696,124.781z"/>
<path fill-rule="evenodd" clip-rule="evenodd" fill="#f5c4bc" class="fill" d="M58.322,98.717c0,0.901,0.169,1.483-0.029,1.882
	c-0.92,1.84-1.892,3.66-2.955,5.419c-0.398,0.661-1.155,0.896-1.93,0.457c-0.79-0.447-0.881-1.208-0.565-1.905
	c0.957-2.106,2.248-4.008,3.956-5.58C57.074,98.737,57.661,98.823,58.322,98.717z"/>
<path fill-rule="evenodd" clip-rule="evenodd" fill="#f5c4bc" class="fill" d="M125.298,89.479c-0.296-0.716-0.503-1.218-0.773-1.871
	c3.328-1.847,6.738-3.542,9.077-6.703c0.126,0.062,0.252,0.125,0.377,0.187c0,0.316,0.1,0.675-0.015,0.94
	c-0.95,2.177-2.606,3.762-4.522,5.062C128.199,87.936,126.839,88.601,125.298,89.479z"/>
<path fill-rule="evenodd" clip-rule="evenodd" fill="#f5c4bc" class="fill" d="M150.977,147.214c0.109,0.702,0.183,1.178,0.313,2.015
	c-0.468-0.387-0.819-0.529-0.858-0.734c-0.186-0.938,0.053-1.839,0.764-2.463c1.9-1.668,3.836-3.312,6.547-3.461
	c0.111-0.006,0.224,0.014,0.455,0.03c0.618,0.352,1.473,0.637,1.042,1.87c-1.073-0.259-2.092-1.104-3.244-0.103
	c0.089,0.392,0.183,0.803,0.305,1.341c-0.705,0.525-1.453,1.084-2.248,1.677c-0.423-0.306-0.771-0.558-1.296-0.937
	C152.223,146.677,151.605,146.943,150.977,147.214z"/>
<path fill-rule="evenodd" clip-rule="evenodd" fill="#f5c4bc" class="fill" d="M69.846,100.777c3.401-3.077,7.786-4.072,11.734-5.837
	c0.183,0.191,0.308,0.26,0.323,0.346c0.499,2.956,2.483,4.503,5.636,4.085c2.217-0.293,4.406-0.86,6.578-1.42
	c1.183-0.304,2.429-0.656,3.428-1.317c2.944-1.948,3.032-3.183,2.064-6.287c-0.078-0.249-0.226-0.474-0.383-0.798
	c3.636-1.509,7.229-2.248,11.229-1.374c-0.203,0.508-0.273,0.894-0.484,1.174c-1.324,1.764-2.77,3.394-4.794,4.412
	c-0.898,0.453-1.753,0.996-2.596,1.548c-3.185,2.084-6.728,3.375-10.291,4.594c-3.295,1.127-6.63,2.136-9.959,3.162
	c-2.553,0.787-5.208,0.91-7.847,0.938C72.426,104.023,70.776,103.173,69.846,100.777z"/>
<path fill-rule="evenodd" clip-rule="evenodd" fill="#f5c4bc" class="fill" d="M83.33,93.88c2.25-4.105,9.916-6.171,13.854-3.718
	c0.097,0.3,0.254,0.661,0.321,1.039c0.058,0.324,0.012,0.667,0.012,1.031c-0.543,1.333-1.602,2.114-2.993,2.403
	c-3.055,0.635-6.064,1.681-9.271,1.071C84.236,95.513,83.413,95.19,83.33,93.88z"/>
</svg>
