<svg version="1.1" id="svg" xmlns="http://www.w3.org/2000/svg" xmlns:xlink="http://www.w3.org/1999/xlink" x="0px" y="0px"
	 width="200px" height="200px" viewBox="0 0 200 200" enable-background="new 0 0 200 200" xml:space="preserve">
<g>
	<path class="stroke" fill="#472664"  d="M133.493,72.545c1.334-0.048,2.667-0.162,3.995-0.297c0.397-0.041,0.776-0.254,1.158-0.385
		c-0.096-0.883-0.576-1.104-1.205-1.089c-0.826,0.022-1.651,0.089-2.478,0.132c-5.496,0.289-9.876-2.792-10.196-8.397
		c-0.029-0.508-0.07-1.015-0.104-1.523c-0.15-2.344-0.293-4.688-0.456-7.03c-0.024-0.36-0.141-0.715-0.242-1.205
		c-0.487,0.179-0.872,0.32-1.302,0.479c-0.04,0.708-0.158,1.348-0.096,1.969c0.363,3.627-0.515,7.076-1.445,10.52
		c-0.297,1.102-0.748,2.127-1.726,2.847c-1.836-2.365-4.205-3.69-7.039-4.237c-1.435-0.277-2.855-0.66-4.303-0.822
		c-2.773-0.311-5.613-0.958-8.328-0.638c-5.251,0.621-10.283,2.073-14.581,5.541c-4.469,3.606-7.416,8.075-9.036,13.554
		c-0.919,3.105-1.078,6.301-1.066,9.439c0.013,3.528,0.334,7.161,1.243,10.556c1.787,6.673,5.309,12.457,10.18,17.429
		c4.715,4.813,9.291,9.761,13.94,14.639c0.337,0.353,0.779,0.607,1.118,0.866c1.526-0.298,2.258-1.326,2.984-2.386
		c3.981-5.816,7.988-11.615,11.957-17.44c4.07-5.973,7.521-12.266,9.025-19.407c0.599-2.838,1.164-5.827,0.905-8.67
		c-0.36-3.962,0.232-7.581,1.96-11.061C129.385,73.85,131.082,72.633,133.493,72.545z"/>
	<path class="stroke" fill="#472664"  d="M140.867,91.389c-1.777-0.707-2.487-2.071-2.589-3.759c-0.099-1.642-0.042-3.292-0.073-4.938
		c-0.004-0.238-0.108-0.474-0.187-0.797c-0.397,0.027-0.742,0.051-1.07,0.074c-0.133,0.345-0.268,0.572-0.306,0.814
		c-0.217,1.378-0.396,2.762-0.615,4.141c-0.462,2.9-2.007,4.457-4.82,4.953c-0.632,0.111-1.409,0.093-1.657,0.996
		c0.191,0.128,0.333,0.296,0.491,0.315c0.439,0.048,0.885,0.056,1.328,0.042c2.24-0.076,3.515,0.706,4.401,2.816
		c0.317,0.756,0.473,1.578,0.738,2.358c0.238,0.699,0.523,1.383,0.791,2.082c0.483-0.043,0.788-0.071,1.097-0.099
		c0.308-1.671,0.592-3.285,0.903-4.895c0.459-2.368,1.056-2.803,3.5-2.71c0.779,0.03,1.644,0.35,2.436-0.572
		C143.95,90.923,142.39,91.446,140.867,91.389z"/>
	<path class="stroke" fill="#472664"  d="M81.195,125.748c-2.493-0.096-3.455-1.097-3.42-3.549c0.014-1.016,0.043-2.032,0.033-3.048
		c-0.001-0.158-0.175-0.313-0.329-0.569c-0.278,0.043-0.567,0.088-0.914,0.142c-0.326,1.074-0.57,2.124-0.96,3.118
		c-1.231,3.141-2.433,3.863-5.276,3.428c-0.856-0.132-1.614-0.005-2.298,0.684c0.739,0.873,1.719,0.818,2.636,0.902
		c1.616,0.149,2.786,0.858,3.178,2.515c0.231,0.981,0.401,1.979,0.557,2.977c0.085,0.547,0.082,1.108,0.121,1.709
		c0.497,0,0.841,0,1.208,0c0.223-1.02,0.36-1.961,0.644-2.857c0.304-0.959,0.746-1.873,1.128-2.807
		c1.692-1.556,3.962-1.021,6.264-1.892c-0.656-0.399-0.927-0.667-1.241-0.731C82.099,125.682,81.64,125.766,81.195,125.748z"/>
</g>
<path fill-rule="evenodd" clip-rule="evenodd" fill="#f8bfe9" class="fill" d="M101.17,106.558c-3.159-3.931-6.175-7.684-9.325-11.602
	c0.456-2.54,0.839-5.109,1.385-7.644c1.531-7.099,0.401-4.803,5.67-9.577c0.734-0.666,1.567-1.224,2.491-1.938
	c2.327,1.336,4.52,2.594,6.887,3.952c0.346,2.595,0.726,5.161,1.015,7.739c0.178,1.577,0.199,3.17,0.323,4.754
	c0.076,0.973,0.006,1.862-0.57,2.726c-2.327,3.49-4.599,7.016-6.904,10.52C101.938,105.797,101.64,106.045,101.17,106.558z"/>
<path fill-rule="evenodd" clip-rule="evenodd" fill="#f8bfe9" class="fill" d="M123.429,90.981c-0.849,5.297-2.209,10.341-5.486,14.854
	c-0.841,0.136-1.76,0.284-2.63,0.423c-2.971-5.865-0.513-15.394,5.159-19.866C121.427,87.876,122.374,89.345,123.429,90.981z"/>
<path fill-rule="evenodd" clip-rule="evenodd" fill="#f8bfe9" class="fill" d="M103.224,109.296c3.187-0.151,6.41-0.302,9.837-0.464
	c0.172,1.05,0.331,2.02,0.491,2.998c-3.02,4.719-6.605,8.895-10.3,13.056C102.595,123.422,102.588,111.808,103.224,109.296z"/>
<path fill-rule="evenodd" clip-rule="evenodd" fill="#f8bfe9" class="fill" d="M82.46,75.004c3.254-1.093,6.312-1.225,9.604-1.232
	c0.124,2.188,0.24,4.237,0.356,6.292c-2.138,1.464-4.112,2.815-6.271,4.292c-1.438-1.322-2.884-2.534-4.165-3.901
	c-0.403-0.43-0.567-1.308-0.477-1.928C81.678,77.362,82.111,76.234,82.46,75.004z"/>
<path fill-rule="evenodd" clip-rule="evenodd" fill="#f8bfe9" class="fill" d="M130.146,71.917c-3.358,1.881-4.257,5.307-5.454,9.159
	c-1.943-3.944-4.146-7.002-8.438-8.125c1.851-1.277,3.557-2.114,4.706-3.79c1.116-1.627,1.384-3.498,2.123-5.306
	c0.876,1.638,1.482,3.4,2.614,4.706C126.821,69.858,128.475,70.695,130.146,71.917z"/>
<path fill-rule="evenodd" clip-rule="evenodd" fill="#f8bfe9" class="fill" d="M94.266,71.583c0.12-1.299,0.148-2.436,0.349-3.542
	c0.245-1.358,1.321-1.943,2.526-2.302c2.237-0.665,4.518-0.512,6.792-0.269c0.56,0.06,1.106,0.243,1.793,0.4
	c0.387,0.953,0.788,1.941,1.166,2.872c-0.98,2.729-3.668,4.428-6.367,4C98.476,72.42,96.443,71.992,94.266,71.583z"/>
<path fill-rule="evenodd" clip-rule="evenodd" fill="#f8bfe9" class="fill" d="M121.885,79.646c-0.846,1.297-1.661,2.544-2.602,3.988
	c-3.077-1.972-5.934-3.804-8.954-5.742c-0.167-1.138-0.346-2.366-0.552-3.772c3.165-0.199,6.091-0.217,8.807,1.288
	C120.004,76.193,120.987,77.464,121.885,79.646z"/>
<path fill-rule="evenodd" clip-rule="evenodd" fill="#f8bfe9" class="fill" d="M90.592,98.45c1.193,0.548,6.071,6.485,7.42,8.879
	c-1.947,0.927-5.071,1.236-7.792,0.706C90.342,104.891,90.465,101.713,90.592,98.45z"/>
<path fill-rule="evenodd" clip-rule="evenodd" fill="#f8bfe9" class="fill" d="M118.12,85.97c-1.768,2.047-3.359,3.89-5.213,6.035
	c-0.326-0.787-0.611-1.195-0.657-1.628c-0.258-2.393-0.457-4.792-0.708-7.527C113.755,83.9,115.767,84.854,118.12,85.97z"/>
<path fill-rule="evenodd" clip-rule="evenodd" fill="#f8bfe9" class="fill" d="M79.753,81.693c1.133,1.254,2.216,2.454,3.321,3.678
	c-1.874,1.744-3.619,3.369-5.283,4.918C77.326,89.351,78.366,83.913,79.753,81.693z"/>
<path fill-rule="evenodd" clip-rule="evenodd" fill="#f8bfe9" class="fill" d="M134.812,92.331c0.726-0.977,1.358-1.828,2.085-2.807
	c0.765,0.947,1.454,1.803,2.118,2.626c-0.553,1.108-1.072,2.149-1.642,3.293C136.528,94.417,135.711,93.425,134.812,92.331z"/>
<path fill-rule="evenodd" clip-rule="evenodd" fill="#f8bfe9" class="fill" d="M78.13,126.285c-0.937,0.81-1.827,1.579-2.852,2.464
	c-0.491-0.696-1.011-1.431-1.544-2.185c0.893-0.792,1.716-1.522,2.595-2.303C76.931,124.939,77.536,125.618,78.13,126.285z"/>
</svg>
