<svg version="1.1" id="svg" xmlns="http://www.w3.org/2000/svg" xmlns:xlink="http://www.w3.org/1999/xlink" x="0px" y="0px"
	 width="200px" height="200px" viewBox="0 0 200 200" enable-background="new 0 0 200 200" xml:space="preserve">
<path class="stroke" fill="#3b4954"  d="M160.412,39.409c-1.543-1.539-3.541-2.157-5.572-2.658c-0.729-0.18-1.537-0.282-2.268-0.163
	c-2.456,0.399-4.479,1.604-6.04,3.564c-1.451,1.821-2.023,3.846-1.511,6.149c0.084,0.381,0.083,0.781,0.127,1.232
	c-1.781,0.66-3.464,1.398-5.216,1.886c-0.956,0.265-1.498,0.708-1.854,1.58c-0.616,1.507-1.281,2.995-1.95,4.479
	c-1.001,2.219-2.024,4.429-3.012,6.585c0.742,1.205,2.151,1.059,3.021,1.858c-1.04,0.86-2.062,1.616-2.975,2.486
	c-0.915,0.872-1.72,1.859-2.512,2.728c-1.937,0-3.642,0-5.555,0c-5.032,2.399-9.506,3.736-11.53,3.392
	c-1.12-1.253-2.26-2.528-3.504-3.919c0.742-0.13,1.347-0.197,1.931-0.348c0.981-0.254,1.988-0.47,2.91-0.872
	c1-0.436,1.785-1.161,1.825-2.521c-0.674-0.46-1.391-0.929-2.085-1.428c-1.796-1.29-2.769-3.038-3.067-5.238
	c-0.259-1.909,0.292-3.609,0.945-5.346c0.77-2.046,1.716-4.096,2.034-6.227c0.735-4.922-0.465-9.5-3.291-13.625
	c-0.326-0.475-0.623-0.969-1.067-1.664c1.175-0.089,2.049-0.156,3.178-0.242c-0.315-0.685-0.566-1.151-0.75-1.645
	c-0.35-0.942-0.762-1.878-0.965-2.854c-0.392-1.886-0.641-3.801-0.985-5.697c-0.081-0.444-0.267-0.881-0.473-1.287
	c-2.193-4.312-7.869-6.826-11.887-6.349c-1.061,0.126-2.111,0.354-3.158,0.579c-1.36,0.292-2.698,0.411-4.08,0.056
	c-1.602-0.411-3.223-0.397-4.825,0.09c-0.584,0.177-1.213,0.24-1.767,0.482c-1.72,0.754-3.559,1.358-5.084,2.409
	c-2.514,1.731-4.729,3.822-6.486,6.402c-2.924,4.292-5.207,8.85-6.575,13.871c-0.762,2.796-1.417,5.615-2.555,8.316
	c-1.305,3.101-2.184,6.354-2.354,9.762c-0.139,2.796,0.547,5.475,1.137,8.152c0.683,3.099,1.296,6.185,1.054,9.374
	c-0.081,1.059-0.246,2.112-0.364,3.096c0.301,0.396,0.539,0.709,0.804,1.059c-0.17,0.46-0.34,0.882-0.482,1.312
	c-1.024,3.095-2.018,6.234-2.139,9.491c-0.115,3.094,0.199,6.206,0.362,9.307c0.042,0.806,0.494,1.449,1.179,1.875
	c0.907,0.563,1.836,1.094,2.765,1.621c0.828,0.471,1.669,0.919,2.603,1.431c-0.538,0.805-0.994,1.471-1.433,2.147
	c-1.587,2.449-3.046,4.972-3.485,7.909c-0.458,3.069-0.709,6.155-0.422,9.27c0.365,3.954,0.639,7.916,0.996,11.871
	c0.312,3.446,0.712,6.884,1.016,10.331c0.129,1.46-0.09,2.98,1.084,4.19c-0.282,4.831,0.375,9.583,1.106,14.316
	c0.729,4.718,1.633,9.409,2.477,14.208c-3.772,3.147-6.205,7.196-7.255,12.352c0.586,0.068,0.948,0.202,1.264,0.13
	c1.238-0.28,2.558-0.43,3.669-0.985c2.358-1.178,4.604-2.581,6.898-3.887c0.272-0.155,0.564-0.277,1.002-0.49
	c0,1.428,0,2.639,0,3.877c1.181,0.744,2.275,0.161,3.397,0.088c0.598-4.268,2.077-8.306,1.727-12.752
	c-0.517-0.267-1.076-0.557-1.609-0.833c0-2.658-0.033-5.301,0.009-7.943c0.042-2.718,0.582-5.357,1.404-7.945
	c0.323-1.017,0.613-2.049,0.843-3.091c0.58-2.625,1.116-5.26,1.686-7.962c1.365,0,2.701,0,4.029,0
	c0.039,0.297,0.086,0.449,0.075,0.596c-0.45,5.39,0.739,10.548,2.41,15.59c1.015,3.062,1.923,6.119,2.173,9.339
	c0.09,1.165,0.197,2.359,0.041,3.505c-0.253,1.856-0.836,3.669-1.057,5.527c-0.227,1.91-0.202,3.851-0.245,5.78
	c-0.008,0.374,0.179,0.751,0.285,1.16c0.919,0.041,1.718,0.076,2.64,0.117c0.426-1.301,0.815-2.49,1.247-3.809
	c0.383,0.349,0.709,0.586,0.962,0.885c1.346,1.588,3.103,2.649,4.851,3.684c1.874,1.11,3.86,0.952,6.002,0.151
	c-0.555-4.861-2.461-8.839-6.298-11.699c0-0.711-0.058-1.326,0.011-1.927c0.316-2.78,0.683-5.555,1-8.334
	c0.127-1.113,0.128-2.241,0.27-3.353c0.655-5.154,1.337-10.305,2.016-15.457c0.053-0.403,0.133-0.805,0.219-1.203
	c0.201-0.935,0.497-1.858,0.605-2.803c0.322-2.783,0.593-5.572,0.846-8.363c0.438-4.825,0.841-9.648,0.209-14.495
	c-0.566-4.347-1.08-8.7-1.57-13.055c-0.176-1.563-0.215-3.142-0.318-4.733c2.2-1.235,2.193-3.307,2.134-5.361
	c1.423-1.228,2.209-2.624,1.319-4.486c0.382-0.208,0.637-0.347,0.616-0.335c2.617,0.68,4.966,1.291,7.314,1.901
	c1.105-0.702,2.162-1.314,3.153-2.018c1.744-1.237,3.478-2.493,5.158-3.813c1.198-0.941,2.501-1.853,3.396-3.047
	c1.003-1.339,2.321-2.022,4.009-2.968c-0.587,2.353-2.015,4.095-2.198,6.181c0.884,0.966,1.362,1.254,2.468,1.512
	c1.918,0.448,3.046,0.03,4.212-1.586c0.715-0.991,1.354-2.042,2.124-2.987c1.115-1.372,1.813-3.092,3.209-4.003
	c1.268-0.225,2.355-0.418,3.281-0.583c1.488-0.792,1.751-2.092,1.912-3.464c1.275-0.772,1.329-2.071,1.368-3.275
	c0.411-0.442,0.755-0.812,0.943-1.014c0.594-1.552-0.34-2.405-1.024-3.313c0.837-0.952,0.452-2.519,1.869-3.181
	c0.887,0.311,1.839,0.645,2.82,0.989c0.825-0.263,1.646-0.524,2.418-0.77c0.115-0.204,0.199-0.331,0.263-0.467
	c2-4.292,3.999-8.585,5.997-12.878c0.427-0.918,0.313-1.44-0.508-2.144c-0.483-0.414-0.998-0.791-1.582-1.249
	c0.535-0.404,0.871-0.719,1.26-0.94c1.266-0.721,2.071-1.807,2.453-3.175c0.299-1.073,0.523-2.177,0.664-3.283
	C162.407,42.251,161.712,40.704,160.412,39.409z"/>
<path fill-rule="evenodd" clip-rule="evenodd" fill="#e5f3a5" class="fill" d="M71.312,145.265c-0.346-0.58-0.739-1.022-0.896-1.536
	c-1.313-4.292-2.539-8.614-3.043-13.085c-0.422-3.744-0.728-7.503-0.99-11.262c-0.238-3.401,1.36-6.797,6.311-8.448
	c1.663-0.554,3.207-0.338,4.812-0.054c0.401,0.071,0.799,0.16,1.195,0.253c1.296,0.305,2.418,0.022,3.348-0.959
	c0.174-0.183,0.382-0.334,0.599-0.521c1.297-0.035,2.48,0.258,3.599,0.99c1.002,0.656,1.957,1.491,3.486,1.531
	c0.803-1.06,1.654-2.184,2.622-3.462c3.315-1.042,6.067,0.617,8.953,2.238c0.4,3.623,0.792,7.214,1.196,10.805
	c0.097,0.857,0.341,1.711,0.337,2.566c-0.021,4.284-0.34,8.549-1.021,12.781c-0.428,2.658-0.887,5.312-1.355,8.112
	C90.676,144.883,81.067,144.207,71.312,145.265z"/>
<path fill-rule="evenodd" clip-rule="evenodd" fill="#e5f3a5" class="fill" d="M64.316,97.497c-0.692-2.37-0.598-4.77-0.494-7.157
	c0.184-4.238,1.008-8.391,2.022-12.489c0.486-1.963,1.479-3.75,2.786-5.382c1.038-1.296,2.117-2.434,3.76-3.256
	c0.824,0.564,1.714,1.13,2.556,1.761c0.943,0.707,1.872,1.392,3.091,1.573c0.482,0.071,0.937,0.324,1.494,0.528
	c-0.312,1.379-0.601,2.662-0.909,4.027c0.167,0.3,0.357,0.641,0.527,0.947c-0.209,0.63-0.399,1.201-0.646,1.945
	c0.562,0.241,1.044,0.466,1.541,0.659c1.421,0.552,2.835,1.125,4.274,1.628c1.781,0.624,2.912,1.966,4.132,3.54
	c-0.53,0.059-0.906,0.138-1.281,0.137c-2.78-0.016-5.458-0.504-8.009-1.663c-0.733-0.334-1.294-0.769-1.655-1.492
	c-0.772-1.54-1.566-3.07-2.403-4.707c-0.422,0.196-0.759,0.353-1.054,0.491c0.088,4.013,1.86,8.274,9.47,12.524
	c-0.85,2.142-1.832,4.258-2.525,6.464c-0.695,2.215-1.102,4.521-1.627,6.754C76.427,104.209,68.339,101.09,64.316,97.497z"/>
<path fill-rule="evenodd" clip-rule="evenodd" fill="#e5f3a5" class="fill" d="M88.067,35.227c0.021,0.47,0.041,0.92,0.072,1.61
	c0.5,0.297,1.069,0.903,1.677,0.944c1.556,0.104,3.178,0.184,4.683-0.144c2.45-0.533,3.022-2.25,1.729-4.237
	c0.102-1.078,0.263-2.085,0.263-3.092c0-0.471-0.308-0.942-0.458-1.36c-2.079-0.54-3.903,0.155-5.97,0.814
	c1.562-2.105,2.963-3.992,4.419-5.955c0.184,0.08,0.443,0.126,0.613,0.276c1.504,1.327,3.344,1.914,5.238,2.337
	c1.121,0.25,2.034,0.799,3.192,1.67c-0.816,0.079-1.339,0.107-1.854,0.184c-1.15,0.171-1.567,0.592-1.816,1.725
	c-0.306,1.392-0.559,2.76-0.394,4.223c0.211,1.876,0.744,3.566,1.882,5.08c0.565,0.752,1.249,1.491,1.1,2.56
	c-2.107,0.239-4.17,0.468-6.23,0.718c-0.179,0.021-0.341,0.188-0.581,0.329c0.07,0.451,0.137,0.88,0.197,1.266
	c2.768,0.942,6.716,0.328,8.159-1.27c0.111-1.153-0.208-2.253-0.792-3.294c-0.559-0.993-1.447-1.805-1.726-3.006
	c1.184,0.096,2.283,0.185,3.593,0.291c0.098,0.337,0.291,0.797,0.361,1.275c0.499,3.425,0.339,6.835-0.778,10.106
	c-0.592,1.735-1.858,3.116-3.376,4.226c-2.525,1.845-5.419,2.179-8.407,2.134c-2.338-0.035-4.664-0.174-6.835-1.428
	c0.17-0.604,0.344-1.217,0.564-2.002c-0.676-0.077-1.211-0.138-1.747-0.198c-2.021-1.299-2.47-2.44-1.835-4.495
	c0.918-0.568,1.792-1.07,2.617-1.642c0.308-0.214,0.501-0.592,0.752-0.902c-0.717-0.911-1.366-1.734-1.956-2.483
	c0.29-1.261,0.438-2.384,0.82-3.421c0.326-0.887,0.877-1.705,1.412-2.497C86.924,35.172,87.33,34.747,88.067,35.227z M90.663,50.498
	c0.833,0.344,1.582,0.655,2.331,0.961c3.692,1.509,7.817,0.157,9.635-3.212c-0.75-1.792-2.36-2.22-4.07-2.311
	c-2.637-0.139-5.003,0.604-7.024,2.395C90.864,48.926,90.465,49.517,90.663,50.498z"/>
<path fill-rule="evenodd" clip-rule="evenodd" fill="#e5f3a5" class="fill" d="M111.287,83.403c0.257-0.283,0.551-0.607,0.872-0.961
	c-0.22-0.521-0.413-0.98-0.608-1.443c0.335-0.305,0.668-0.608,0.965-0.878c0.299-1.12-0.307-1.663-1.125-2.112
	c-0.5-0.275-0.969-0.605-1.372-1.117c-2.369-0.207-4.738-0.414-7.192-0.628c-0.455-1.222-0.858-2.303-1.297-3.481
	c0.737-0.531,1.428-1.028,2.302-1.658c0.246-0.566,0.582-1.343,0.913-2.107c-0.419-0.934-0.829-1.849-1.342-2.997
	c1.581,0.307,2.416,1.218,3.237,2.154c1.443,1.646,2.899,3.281,4.331,4.936c0.401,0.464,0.738,0.982,1.219,1.373
	c2.409,0.145,4.442-0.72,6.503-1.421c1.92-0.653,3.83-1.333,5.914-2.06c0,3.374,0,6.635,0,10.052
	c-1.892,1.442-3.868,2.955-5.85,4.46c-1.435,1.089-2.999,1.434-4.738,0.828c-0.855-0.298-1.726-0.554-2.551-0.817
	C111.4,84.734,111.345,84.09,111.287,83.403z"/>
<path fill-rule="evenodd" clip-rule="evenodd" fill="#e5f3a5" class="fill" d="M89.678,150.039c3.774,0.065,7.375-0.671,10.92,0.281
	c0.437,2.62-2.289,24.934-3.32,27.381c-1.283,0.118-1.283,0.118-3.813-1.511c-0.256-2.915-0.45-5.746-0.773-8.562
	c-0.167-1.458-0.57-2.89-0.857-4.335c-0.722-3.643-1.458-7.283-2.138-10.933C89.569,151.681,89.678,150.958,89.678,150.039z"/>
<path fill-rule="evenodd" clip-rule="evenodd" fill="#e5f3a5" class="fill" d="M93.166,90.611c0.6,0,1.115,0.112,1.556-0.021
	c1.455-0.438,2.917-0.885,4.314-1.473c2.343-0.985,4.608-2.177,7.153-2.578c0.671-0.105,1.374-0.016,2.228-0.016
	c-0.059,0.656-0.103,1.137-0.133,1.471c-1.142,1.497-3.018,1.157-4.281,2.032c0.188,0.828,0.67,0.876,1.203,0.743
	c0.716-0.179,1.163,0.163,1.535,0.681c0.008,1.572-1.65,1.651-2.313,2.566c0.203,0.67,0.39,1.286,0.59,1.942
	c-0.536,0.366-0.986,0.672-1.285,0.876c-0.247,1.292-0.457,2.428-0.681,3.562c-0.218,1.105-1.026,1.734-2.017,1.827
	c-3.689,0.345-7.394,0.916-11.072-0.121c-0.145-0.041-0.282-0.115-0.559-0.232c0-1.302,0-2.656,0-4.009
	c0-0.102,0.027-0.209,0.004-0.305c-0.963-3.984,1.2-7.158,2.728-10.493c0.102-0.222,0.294-0.413,0.476-0.585
	c0.099-0.096,0.264-0.122,0.555-0.246C93.166,87.677,93.166,89.039,93.166,90.611z"/>
<path fill-rule="evenodd" clip-rule="evenodd" fill="#e5f3a5" class="fill" d="M68.571,150.41c3.497-0.757,6.91-0.162,10.495,0.731
	c-0.669,4.044-1.899,7.845-1.922,11.843c-0.023,3.964-0.217,7.927-0.343,12.151c-0.934,0.729-1.856,1.998-3.381,2.4
	C70.909,174.522,67.331,154.438,68.571,150.41z"/>
<path fill-rule="evenodd" clip-rule="evenodd" fill="#e5f3a5" class="fill" d="M136.135,61.684c1.447-3.505,2.835-6.865,4.226-10.231
	c4.595,1.365,9.055,2.689,13.702,4.069c-1.308,3.698-2.537,7.172-3.791,10.72C145.426,64.919,140.807,63.426,136.135,61.684z"/>
<path fill-rule="evenodd" clip-rule="evenodd" fill="#e5f3a5" class="fill" d="M83.233,61.287c4.421-0.578,8.165-2.659,12.16-4.47
	c-0.493,5.437-0.978,10.77-1.474,16.234c-1.819,1.425-5.446,0.563-6.048-1.751c-0.887-3.41-2.555-6.395-4.431-9.307
	C83.364,61.875,83.355,61.713,83.233,61.287z"/>
<path fill-rule="evenodd" clip-rule="evenodd" fill="#e5f3a5" class="fill" d="M78.076,68.499c-0.571-1.961-1.177-4.041-1.844-6.331
	c2.083,0.613,3.695,1.999,5.754,1.684c2.104,2.774,3.406,5.828,4.197,9.123c0.498,2.072,1.036,4.136,1.541,6.206
	c0.224,0.918,0.41,1.846,0.668,3.021c-2.881-1.861-5.507-3.557-8.108-5.238c0.377-2.254,0.735-4.388,1.122-6.699
	C80.329,69.693,79.317,69.156,78.076,68.499z"/>
<path fill-rule="evenodd" clip-rule="evenodd" fill="#e5f3a5" class="fill" d="M130.973,77.172c0-2.285,0-4.412,0-6.627
	c1.335-1.322,2.704-2.749,4.152-4.089c1.316-1.218,2.842-1.993,4.722-1.568c0.491,0.111,1.079,0.187,1.418,0.5
	c1.253,1.16,2.421,2.412,3.633,3.642c-0.613,0.756-1.246,0.518-1.802,0.407c-0.745-0.15-1.481-0.372-2.195-0.634
	c-1.428-0.525-2.697-0.316-3.668,0.571c-1.384,2.735-2.682,5.3-4.08,8.06C132.482,77.354,131.766,77.267,130.973,77.172z"/>
<path fill-rule="evenodd" clip-rule="evenodd" fill="#e5f3a5" class="fill" d="M96.372,75.457c-0.282-4.444-0.821-8.843,0.421-13.265
	c3.433,0.987,5.468,3.208,6.258,6.9c-0.931,0.646-1.996,1.383-3.126,2.166c-0.326,1.559,0.937,2.821,0.986,4.323
	C99.931,76.022,99.931,76.022,96.372,75.457z"/>
<path fill-rule="evenodd" clip-rule="evenodd" fill="#e5f3a5" class="fill" d="M98.759,86.845c0.794-3.407,1.504-6.454,2.247-9.641
	c2.533,0.252,5.031,0.501,7.748,0.771c-0.464,2.021-0.9,3.926-1.357,5.918C104.157,83.697,101.614,85.217,98.759,86.845z"/>
<path fill-rule="evenodd" clip-rule="evenodd" fill="#e5f3a5" class="fill" d="M90.391,17.332c-1.629,1.021-3.265,2.031-4.884,3.066
	c-2.408,1.54-3.866,3.907-5.195,6.308c-1.726,3.117-2.551,6.515-2.677,10.098c-0.088,2.479,0.31,4.866,0.957,7.233
	c0.131,0.478,0.291,0.948,0.472,1.533c-0.748,0.09-1.342,0.163-1.933,0.234c-0.729,0.693-0.441,1.412-0.056,2.093
	c1.158,2.05,2.97,3.306,5.12,4.135c0.261,0.101,0.525,0.196,1.053,0.392c-2.006,0.87-3.73,0.809-5.284-0.221
	c-1.756-1.165-2.48-2.935-2.247-5.035c0.203-1.818,0.553-3.622,0.703-5.443c0.183-2.225,0.167-4.467,0.341-6.693
	c0.244-3.123,1.064-6.079,2.583-8.861c1.094-2.003,2.54-3.706,4.162-5.236c1.282-1.21,2.76-2.243,4.261-3.178
	c0.729-0.454,1.709-0.503,2.575-0.736C90.358,17.124,90.375,17.228,90.391,17.332z"/>
<path fill-rule="evenodd" clip-rule="evenodd" fill="#e5f3a5" class="fill" d="M87.753,103.021c-1.797-0.37-3.524-0.725-5.349-1.1
	c0.411-3.908,2.222-7.29,3.406-10.884c0.567,0,1.005,0,1.527,0C88.083,95.058,88.477,99.015,87.753,103.021z"/>
<path fill-rule="evenodd" clip-rule="evenodd" fill="#e5f3a5" class="fill" d="M81.808,36.815c0.115-1.195,0.148-2.403,0.36-3.58
	c0.559-3.105,1.654-5.942,4.12-8.113c1.595-1.404,3.067-2.947,4.628-4.393c0.342-0.317,0.825-0.482,1.471-0.846
	c-0.219,1.729-1.032,2.903-1.69,4.114c-1.048,1.93-2.447,3.593-4.046,5.115c-2.152,2.047-3.296,4.724-4.346,7.437
	c-0.035,0.09-0.083,0.175-0.126,0.263C82.055,36.813,81.931,36.814,81.808,36.815z"/>
<path fill-rule="evenodd" clip-rule="evenodd" fill="#e5f3a5" class="fill" d="M65.383,64.318c-0.275-0.24-0.403-0.295-0.416-0.371
	c-0.375-2.093-0.753-4.187-1.091-6.286c-0.054-0.334,0.009-0.722,0.128-1.043c0.794-2.143,1.466-4.342,2.837-6.224
	c1.737-2.384,3.464-4.775,5.187-7.169c0.49-0.681,0.952-1.383,1.582-1.994c-0.078,1.614-0.725,2.998-1.565,4.306
	c-0.742,1.156-1.538,2.278-2.254,3.449c-2.711,4.43-4.097,9.265-4.354,14.438C65.426,63.67,65.408,63.917,65.383,64.318z"/>
<path fill-rule="evenodd" clip-rule="evenodd" fill="#e5f3a5" class="fill" d="M94.901,19.32c0.74,0,1.295,0,1.887,0
	c1.003,2.13,2.742,3.429,4.868,4.301c1.365,0.56,2.699,1.198,4.071,1.741c1.67,0.66,2.959,1.735,3.929,3.344
	c-0.604,0.146-1.153,0.278-1.611,0.389c-0.45,0.949-0.11,1.678,0.191,2.359c0.783,1.768,1.605,3.52,2.468,5.25
	c1.157,2.322,2.32,4.633,2.196,7.386c-0.299-0.763-0.644-1.511-0.89-2.291c-1.092-3.462-2.591-6.732-4.498-9.822
	c-0.691-1.121-1.341-2.272-1.924-3.452c-0.472-0.954-1.146-1.663-2.049-2.191c-1.625-0.949-3.256-1.887-4.86-2.869
	C97.088,22.491,95.902,21.126,94.901,19.32z"/>
<path fill-rule="evenodd" clip-rule="evenodd" fill="#e5f3a5" class="fill" d="M93.418,83.29c-0.626,0.262-1.32,0.553-2.125,0.891
	c-0.915-3.226-1.807-6.371-2.712-9.564c1.884,0.149,3.607,0.286,5.453,0.432C95.086,77.691,94.444,80.458,93.418,83.29z"/>
<path fill-rule="evenodd" clip-rule="evenodd" fill="#e5f3a5" class="fill" d="M73.669,66.677c-1.67-1.227-3.165-2.578-3.217-4.876
	c-0.017-0.726-0.316-1.445-0.485-2.163c-0.729,0.169-0.729,0.169-2.093,2.364c-0.422-1.154-0.1-2.214,0.11-3.177
	c0.987-4.528,2.912-8.667,5.518-12.491c0.049-0.072,0.175-0.092,0.381-0.192c0.098,0.905-0.218,1.663-0.526,2.416
	c-1.103,2.701-1.844,5.477-2.155,8.396c-0.265,2.477,0.354,4.744,1.192,6.992C72.743,64.885,73.239,65.769,73.669,66.677z"/>
<path fill-rule="evenodd" clip-rule="evenodd" fill="#e5f3a5" class="fill" d="M82.375,45.044c-0.66,0.192-1.157,0.337-1.627,0.474
	c-4.077-7.591-0.655-19.556,5.549-23.978c-0.562,0.951-0.965,1.598-1.333,2.265c-0.391,0.708-0.664,1.497-1.135,2.144
	c-2.883,3.958-3.61,8.431-3.25,13.178C80.73,41.117,81.092,43.052,82.375,45.044z"/>
<path fill-rule="evenodd" clip-rule="evenodd" fill="#e5f3a5" class="fill" d="M129.343,70.117c0.488,4.617,0.218,8.777-0.672,13.03
	c-0.474,0.271-0.988,0.566-1.521,0.871c-0.669-0.631-0.615-1.348-0.526-2.04c0.418-3.278,0.855-6.554,1.299-9.829
	c0.055-0.4,0.115-0.834,0.311-1.172C128.394,70.704,128.762,70.552,129.343,70.117z"/>
<path fill-rule="evenodd" clip-rule="evenodd" fill="#e5f3a5" class="fill" d="M68.482,40.229c-0.252-1.666,0.103-3.287,0.501-4.893
	c0.999-4.021,2.68-7.652,6.233-10.325c-0.526,1.017-1.075,1.907-1.463,2.862c-1.107,2.725-2.147,5.476-3.215,8.215
	c-0.55,1.41-1.103,2.819-1.654,4.229C68.75,40.289,68.617,40.259,68.482,40.229z"/>
<path fill-rule="evenodd" clip-rule="evenodd" fill="#e5f3a5" class="fill" d="M108.061,21.577c-0.223-0.106-0.472-0.179-0.666-0.324
	c-2.104-1.564-4.571-2.066-7.073-2.556c-1.15-0.225-2.233-0.797-3.346-1.211c0.003-0.115,0.006-0.229,0.009-0.344
	c0.853-0.108,1.71-0.332,2.559-0.302c1.957,0.068,3.969-0.085,5.776,0.926c1.462,0.817,2.4,2.061,3.014,3.552
	C108.242,21.404,108.151,21.491,108.061,21.577z"/>
<path fill-rule="evenodd" clip-rule="evenodd" fill="#e5f3a5" class="fill" d="M83.977,53.692c-1.58,2.532-4.046,1.729-6.363,1.499
	c-0.111,0.709-0.192,1.229-0.278,1.777c-2.169-1.203-3.158-3.536-2.751-6.593c1.125,1.583,2.225,3.004,4.098,3.528
	C80.474,54.404,82.184,53.877,83.977,53.692z"/>
<path fill-rule="evenodd" clip-rule="evenodd" fill="#e5f3a5" class="fill" d="M98.753,19.763c4.813,0.088,10.009,3.021,10.35,5.868
	c-1.507-0.716-2.994-1.441-4.497-2.132c-1.059-0.487-2.146-0.914-3.208-1.394C100.25,21.586,99.331,20.752,98.753,19.763z"/>
<path fill-rule="evenodd" clip-rule="evenodd" fill="#e5f3a5" class="fill" d="M144.028,79.113c-0.385,0.792-0.662,1.359-1,2.055
	c-2.533-0.845-4.944-1.586-6.995-3.093c0.031-0.171,0.061-0.343,0.091-0.514c1.014-0.169,2.028-0.338,3.214-0.536
	C140.744,77.651,142.264,78.328,144.028,79.113z"/>
<path fill-rule="evenodd" clip-rule="evenodd" fill="#e5f3a5" class="fill" d="M145.045,76.05c0.246,0.57,0.091,1.128-0.717,1.618
	c-2.192-0.897-4.459-1.826-6.634-2.717c-0.172-0.765,0.167-1.051,0.651-1.152c0.798-0.167,1.566-0.185,2.354,0.225
	C142.079,74.74,143.517,75.345,145.045,76.05z"/>
<path fill-rule="evenodd" clip-rule="evenodd" fill="#e5f3a5" class="fill" d="M110.593,42.32c1.962,2.682,2.173,7.743,0.425,10.196
	C111.028,49.051,109.918,45.849,110.593,42.32z"/>
<path fill-rule="evenodd" clip-rule="evenodd" fill="#e5f3a5" class="fill" d="M109.413,61.126c1.67,1.589,3.34,3.179,5.022,4.78
	c-0.598,0.756-0.598,0.756-1.997,0.938c-2.147-1.247-2.953-3.316-3.316-5.637C109.22,61.181,109.316,61.153,109.413,61.126z"/>
<path fill-rule="evenodd" clip-rule="evenodd" fill="#e5f3a5" class="fill" d="M145.52,74.617c-1.983-0.986-4.037-1.323-5.498-2.821
	c0.386-0.796,0.888-0.771,1.48-0.625c1.225,0.302,2.461,0.563,3.871,0.881c0.256,0.349,0.61,0.831,1.054,1.434
	C146.136,73.849,145.876,74.172,145.52,74.617z"/>
<path fill-rule="evenodd" clip-rule="evenodd" fill="#e5f3a5" class="fill" d="M108.774,66.518c-1.106-0.255-1.949-0.449-2.635-0.607
	c-0.915-2.276-0.638-3.799,0.742-4.836C107.471,62.771,108.06,64.464,108.774,66.518z"/>
<path fill-rule="evenodd" clip-rule="evenodd" fill="#e5f3a5" class="fill" d="M74.13,33.387c1.029,3.834-1.344,6.321-3.348,8.956
	C71.898,39.357,73.014,36.373,74.13,33.387z"/>
<path fill-rule="evenodd" clip-rule="evenodd" fill="#e5f3a5" class="fill" d="M109.375,56.384c-1.222-1.678-1.17-4.584,0.148-6.539
	C109.875,52.133,110.12,54.189,109.375,56.384z"/>
<path fill-rule="evenodd" clip-rule="evenodd" fill="#e5f3a5" class="fill" d="M72.987,54.598c0.26,0.425,0.412,0.673,0.571,0.932
	c-1.403,3.129,0.451,5.955,0.882,9.092C72.692,62.463,71.765,57.126,72.987,54.598z"/>
<path fill-rule="evenodd" clip-rule="evenodd" fill="#e5f3a5" class="fill" d="M69.705,44.138c-1.618,2.273-3.236,4.547-4.854,6.82
	c-0.229-1.271,0.178-2.276,0.967-3.146c0.947-1.044,1.889-2.091,2.848-3.124c0.251-0.271,0.556-0.493,0.836-0.736
	C69.569,44.015,69.638,44.076,69.705,44.138z"/>
<path fill-rule="evenodd" clip-rule="evenodd" fill="#e5f3a5" class="fill" d="M89.501,36.168c0.859-0.94,1.804-1.32,3.038-1.392
	c0.094,0.635,0.185,1.25,0.289,1.957C91.657,36.792,90.521,37.141,89.501,36.168z"/>
<path fill-rule="evenodd" clip-rule="evenodd" fill="#e5f3a5" class="fill" d="M97.701,84.434c0.052-1.844,0.502-3.598,1.192-5.299
	C99.005,81.016,98.33,82.72,97.701,84.434z"/>
<path fill-rule="evenodd" clip-rule="evenodd" fill="#e5f3a5" class="fill" d="M93.884,35.285c0.414-0.693,0.779-1.141,1.56-0.741
	c0.368,0.895-0.232,1.359-0.879,2.073C94.271,36.042,94.061,35.631,93.884,35.285z"/>
<path fill-rule="evenodd" clip-rule="evenodd" fill="#e5f3a5" class="fill" d="M137.035,80.27c0.692,0.359,1.172,0.607,1.907,0.988
	c-1.061,0.388-1.829,0.53-2.854,0.08C136.427,80.956,136.688,80.661,137.035,80.27z"/>
<path fill-rule="evenodd" clip-rule="evenodd" fill="#e5f3a5" class="fill" d="M102.764,35.473c-0.765-0.24-1.311-0.412-1.913-0.601
	c0.376-1.064,1.152-0.957,1.913-1.153C102.764,34.272,102.764,34.744,102.764,35.473z"/>
<path fill-rule="evenodd" clip-rule="evenodd" fill="#e5f3a5" class="fill" d="M104.747,33.831c0.325,0.262,0.649,0.525,1.187,0.96
	c-0.609,0.288-0.924,0.437-1.467,0.693c-0.062-0.603-0.102-0.994-0.142-1.385C104.466,34.009,104.607,33.92,104.747,33.831z"/>
<path fill-rule="evenodd" clip-rule="evenodd" fill="#e5f3a5" class="fill" d="M158.547,42.269c-0.328,0.405-0.656,0.812-1.158,1.433
	c-0.163-1.087,0.323-1.398,0.811-1.709C158.315,42.084,158.431,42.176,158.547,42.269z"/>
<path fill-rule="evenodd" clip-rule="evenodd" fill="#e5f3a5" class="fill" d="M109.957,79.138c0.58-0.296,0.965-0.264,1.216,0.43
	C110.545,79.893,110.176,79.817,109.957,79.138z"/>
<path fill-rule="evenodd" clip-rule="evenodd" fill="#e5f3a5" class="fill" d="M108.774,84.317c0.393,0.032,0.785,0.063,1.178,0.096
	c-0.005,0.117-0.011,0.234-0.017,0.351c-0.395,0-0.791,0-1.186,0C108.758,84.615,108.766,84.466,108.774,84.317z"/>
<path fill-rule="evenodd" clip-rule="evenodd" fill="#e5f3a5" class="fill" d="M156.847,41.321c-0.264,0.303-0.527,0.606-0.977,1.122
	C155.724,41.403,156.165,41.256,156.847,41.321z"/>
<path fill-rule="evenodd" clip-rule="evenodd" fill="#e5f3a5" class="fill" d="M96.738,78.528c0.125-0.416,0.248-0.833,0.372-1.249
	c0.083,0.025,0.165,0.05,0.247,0.075c-0.128,0.437-0.258,0.875-0.386,1.312C96.894,78.621,96.816,78.574,96.738,78.528z"/>
<path fill-rule="evenodd" clip-rule="evenodd" fill="#e5f3a5" class="fill" d="M156.514,44.157c0.176,0.748-0.108,1.076-0.688,1.379
	C155.643,44.841,155.907,44.502,156.514,44.157z"/>
<path fill-rule="evenodd" clip-rule="evenodd" fill="#e5f3a5" class="fill" d="M110.41,82.351c-0.339-0.017-0.678-0.035-1.017-0.052
	c-0.003-0.122-0.005-0.244-0.008-0.366c0.332-0.025,0.663-0.05,0.995-0.075C110.391,82.022,110.4,82.187,110.41,82.351z"/>
<path fill-rule="evenodd" clip-rule="evenodd" fill="#e5f3a5" class="fill" d="M99.811,49.201c-1.805,2.024-5.132,2.128-7.368,0.365
	C95.056,49.437,97.434,49.319,99.811,49.201z"/>
</svg>
