<svg version="1.1" xmlns="http://www.w3.org/2000/svg" xmlns:xlink="http://www.w3.org/1999/xlink" x="0px" y="0px" width="200px"
	 height="200px" viewBox="0 0 200 200" enable-background="new 0 0 200 200" xml:space="preserve">
<g id="svg">
	<g>
		<path class="stroke" fill="#531863"  d="M152.813,103.538c-1.105-2.809-2.268-5.597-3.305-8.432c-0.691-1.891-0.914-3.94-1.938-5.731
			c-0.405-0.71-0.687-1.493-1.009-2.25c-0.954-2.241-1.892-4.489-2.852-6.727c-0.637-1.482-1.315-2.945-1.949-4.427
			c-0.78-1.825-1.448-3.705-2.321-5.484c-1.189-2.431-2.508-4.8-3.809-7.175c-0.559-1.02-1.197-1.997-2.217-2.872
			c-1.854,0.319-3.784,0.607-5.695,0.996c-1.542,0.313-3.051,0.794-4.592,1.119c-2.511,0.53-5.031,1.009-7.553,1.479
			c-2.391,0.447-4.801,0.796-7.181,1.296c-3.05,0.641-6.09,1.344-9.112,2.104c-2.548,0.64-5.035,1.501-7.652,1.884
			c-1.381,0.202-2.734,0.593-4.102,0.896c-2.133,0.472-4.269,0.941-6.403,1.412c-1.487,0.328-2.924,0.989-4.513,0.658
			c-0.191-0.04-0.412,0.011-0.61,0.059c-1,0.237-1.983,0.582-2.996,0.713c-2.121,0.276-4.159,0.854-6.199,1.463
			c-2.135,0.638-4.291,1.212-6.448,1.777c-1.149,0.302-2.182,0.77-3.014,1.741c0.017,0.221-0.001,0.5,0.062,0.759
			c0.415,1.699,0.806,3.404,1.283,5.085c0.432,1.517,0.968,3.003,1.449,4.506c0.492,1.534,0.908,3.097,1.481,4.599
			c0.483,1.268,0.746,2.56,0.921,3.894c0.187,1.426,0.362,2.868,0.738,4.25c0.476,1.75,1.109,3.462,1.747,5.163
			c0.626,1.669,1.371,3.288,2.604,4.754c2.07,0.145,4.053-0.582,6.092-0.83c0.122-0.31,0.209-0.53,0.291-0.738
			c-0.276-0.827-0.558-1.531-0.743-2.259c-0.367-1.428,0.474-2.977,1.914-3.502c1.979,1.094,1.921,3.075,1.988,5.216
			c6.01-1.256,11.908-2.448,17.757-4.204c0,0.746-0.067,1.331,0.02,1.893c0.087,0.564,0.31,1.111,0.502,1.655
			c0.762,2.148,3.867,2.872,5.545,1.297c1.425-1.336,1.751-3.335,0.84-5.079c-0.135-0.258-0.235-0.533-0.393-0.896
			c1.392-0.282,2.676-0.5,3.938-0.811c1.247-0.308,2.474-0.709,3.771-1.089c0.141,0.522,0.271,0.945,0.368,1.376
			c0.367,1.605,0.719,3.215,1.086,4.821c0.114,0.5,0.214,1.026,0.945,1.226c0.609-0.245,1.303-0.531,2-0.805
			c0.965-0.38,1.232-0.304,2.033,0.632c-0.037,0.397-0.084,0.89-0.117,1.238c-0.86,0.755-1.729,0.904-2.599,0.912
			c-0.176,0.139-0.314,0.24-0.442,0.353c-0.101,0.09-0.188,0.195-0.262,0.273c-0.05,1.047,0.637,3.674,1.43,5.491
			c2.085,0.157,4.033-0.634,6.047-1.131c0.066,2.641,0.229,3.028,1.577,4.376c1.2,1.198,3.402,1.692,4.968,0.084
			c1.09-1.121,1.598-2.708,0.535-4.197c-0.268-0.373-0.459-0.8-0.71-1.245c0.26-0.107,0.378-0.171,0.505-0.207
			c2.443-0.687,4.878-1.407,7.334-2.043c2.06-0.533,4.147-0.95,6.214-1.45c0.816-0.198,1.703-0.253,2.436-0.966
			c-0.309-0.599-0.573-1.227-0.934-1.792c-0.886-1.391-0.544-2.6,0.463-3.773c0.287-0.076,0.582-0.154,0.944-0.25
			c2.022,1.08,1.617,3.188,2.042,4.935c0.652,0.614,1.308,0.17,1.919-0.024c1.403-0.446,2.806-0.913,4.17-1.467
			c0.964-0.391,2.062-0.589,2.842-1.62C153.579,105.506,153.201,104.521,152.813,103.538z"/>
		<path class="stroke" fill="#531863"  d="M105.511,134.493c-0.493-0.118-0.991-0.215-1.573-0.34c0.146-1.804,0.464-3.56,0.198-5.352
			c-1.751-0.428-3.439-0.882-5.147-1.243c-1.203-0.255-2.43-0.411-3.651-0.558c-0.489-0.059-1.036-0.163-1.534,0.383
			c0.227,1.49,0.058,2.978-1.069,4.183c-1.111,0.103-1.704-0.542-2.382-1.337c0.23-0.986,0.469-2.007,0.711-3.043
			c-0.438-0.625-1.118-0.773-1.789-0.876c-2.338-0.356-4.68-0.688-7.023-1.008c-0.398-0.055-0.812-0.008-1.23-0.008
			c-0.685,0.885-0.526,2.016-1.058,2.986c-0.531,0.052-1.015,0.062-1.48,0.156c-0.469,0.095-0.916,0.287-1.379,0.412
			c-1.932,0.522-2.633,2.562-2.597,4.006c0.009,0.409,0.219,0.861,0.46,1.207c0.733,1.053,1.806,1.539,3.065,1.659
			c0.319,0.031,0.635,0.104,0.993,0.164c-0.411,2.198-0.765,4.273-0.498,6.392c1.11,0.171,2.084,0.397,3.069,0.453
			c1.04,0.059,1.882,0.527,2.786,0.992c-0.207,0.513-0.41,0.983-0.59,1.462c-0.745,1.991-0.22,3.708,1.189,5.198
			c0.214,0.227,0.577,0.354,0.895,0.435c1.031,0.26,1.942-0.104,2.857-0.559c1.424-0.708,2.242-1.762,2.208-3.402
			c-0.011-0.466,0.025-0.933,0.047-1.57c3.187,0.858,6.147,2.03,9.291,2.445c0.811-2.157,1.578-4.199,2.376-6.323
			c0.36,0.082,0.718,0.184,1.083,0.241c0.708,0.111,1.421,0.269,2.133,0.275c0.878,0.009,1.613-0.434,2.072-1.165
			C109.671,138.011,108.427,135.192,105.511,134.493z"/>
		<path class="stroke" fill="#531863"  d="M61.166,133.167c-0.101-0.488,0.065-1.137-0.557-1.475c-0.769,0.189-1.325,0.999-2.288,0.647
			c-0.825-0.301-1.513-0.626-1.655-1.734c1.118-0.883,2.666-0.825,3.88-1.494c0.009-1.858-1.442-7.955-2.153-8.849
			c-1.582,0.343-3.226,0.699-4.942,1.071c0.037-0.338,0.041-0.574,0.09-0.8c0.305-1.384-0.21-2.578-0.924-3.687
			c-0.734-1.141-1.907-1.394-3.167-1.28c-1.086,0.098-1.405,1-1.72,1.836c-0.486,1.292-0.423,2.628-0.204,3.964
			c0.047,0.288,0.074,0.579,0.121,0.969c-0.976,0.158-1.85,0.283-2.717,0.445c-0.865,0.161-1.724,0.359-2.452,0.513
			c-0.66,0.903-0.931,1.605-0.777,2.454c0.108,0.604,0.1,1.228,0.173,1.84c0.574,4.783,1.657,9.454,3.105,14.043
			c0.1,0.319,0.29,0.609,0.462,0.959c1.512,0.355,2.968-0.59,4.511-0.171c-0.192,2.003,0.503,3.617,2.096,4.841
			c1.197-0.036,2.411,0.449,3.503-0.411c1.178-0.927,1.811-2.112,1.884-3.727c-0.342-0.734-0.726-1.557-1.159-2.488
			c2.113-0.308,4.023-0.956,5.798-1.858c0-0.247,0.015-0.352-0.001-0.452C61.779,136.604,61.521,134.876,61.166,133.167z"/>
	</g>
</g>
<g id="Layer_2">
	<path fill-rule="evenodd" clip-rule="evenodd" fill="#faae19" class="fill" d="M81.205,97.548c1.134-0.688,2.351-0.11,3.391-0.757
		c-0.35-2.369-1.418-4.468-2.066-6.68c0.559-0.401,4.66-1.212,7.731-1.528c0.069,0.301,0.158,0.616,0.213,0.937
		c0.166,0.988,0.469,1.914,1.001,2.78c0.772,1.252,3.358,1.888,4.488,0.955c0.908-0.751,1.387-1.821,1.239-3.022
		c-0.127-1.04-0.413-2.061-0.653-3.206c2.163-1.159,4.792-1.066,7.125-2.049c0.765,0.952,0.939,2.06,1.32,3.069
		c0.338,0.895,0.535,1.843,0.834,2.754c0.154,0.473,0.393,0.918,0.551,1.278c0.688,0.223,1.117,0.1,1.601-0.202
		c0.476-0.297,1.071-0.464,1.635-0.542c1.038-0.143,1.792,0.508,1.995,1.62c-0.646,1.48-2.283,1.442-3.552,2.176
		c0.173,1.672,0.344,3.331,0.521,5.043c-1.289,0.543-2.605,0.869-3.941,1.147c-1.374,0.285-2.739,0.611-4.101,0.953
		c-0.269,0.067-0.5,0.285-0.869,0.505c0.459,0.795,0.862,1.494,1.382,2.394c0.136,1.097,0.193,2.385-1.068,3.295
		c-0.93,0.671-1.654,0.672-2.863,0.01c-0.494-0.572-0.478-1.256-0.424-1.948c0.062-0.786,0.139-1.572,0.173-2.359
		c0.013-0.286-0.073-0.576-0.105-0.8c-0.712-0.341-1.271-0.076-1.823,0.056c-2.199,0.523-4.393,1.073-6.59,1.61
		c-0.13,0.032-0.267,0.033-0.491,0.059c-0.118-0.266-0.256-0.53-0.355-0.808c-0.459-1.292-0.899-2.59-1.371-3.878
		c-0.098-0.266-0.304-0.491-0.48-0.769c-1.586,0.476-2.701,1.854-4.387,1.819c-0.882-0.393-1.059-1.146-1.131-2.02
		C80.051,98.476,80.812,98.078,81.205,97.548z"/>
	<path fill-rule="evenodd" clip-rule="evenodd" fill="#faae19" class="fill" d="M122.023,87.737c1.321-0.499,2.616-0.454,3.853,0.084
		c0.539-0.328,0.387-0.752,0.237-1.129c-0.67-1.688-1.363-3.365-2.046-5.047c-0.217-0.536-0.427-1.076-0.671-1.691
		c2.509-1.061,5.142-1.42,7.718-2.33c-0.202-0.559-0.342-1.039-0.546-1.489c-0.193-0.428-0.452-0.825-0.633-1.146
		c0.261-0.91,0.732-1.386,1.541-1.509c1.143-0.174,1.867,0.381,1.964,1.535c0.028,0.341-0.016,0.69,0.032,1.028
		c0.05,0.357,0.169,0.704,0.286,1.169c2.044-0.349,3.935-0.939,5.823-1.387c0.883,1.213,6.143,13.421,6.295,14.629
		c-1.523,0.689-3.071,1.39-4.733,2.142c0.085,0.594,0.165,1.19,0.257,1.784c0.062,0.407,0.177,0.809,0.201,1.217
		c0.043,0.71-0.06,1.381-0.833,1.796c-1.107,0.12-1.841-0.471-2.29-1.459c-0.252-0.559-0.399-1.166-0.593-1.752
		c-0.114-0.35-0.224-0.701-0.364-1.136c-1.497,0.225-2.823,0.777-4.2,1.118c-1.387,0.344-2.769,0.714-4.268,1.101
		c-0.7-1.569-1.434-3.212-2.205-4.94c-1.151,0.218-1.758,1.404-3.151,1.406C121.294,91.263,120.52,89.72,122.023,87.737z"/>
	<path fill-rule="evenodd" clip-rule="evenodd" fill="#faae19" class="fill" d="M98.777,69.4c0.266,1.299,0.504,2.463,0.739,3.611
		c-1.004,0.503-1.959,0.892-2.818,1.433c-1.214,0.763-1.949,1.856-2.108,3.353c-0.152,1.445,0.842,2.395,1.972,2.736
		c0.538,0.162,1.171,0.188,1.723,0.083c1.363-0.261,2.707-0.633,4.126-0.977c0.304,1.245,0.63,2.587,0.969,3.974
		c-3.012,1.028-6.052,1.583-8.984,2.807c0.15,0.351,0.246,0.592,0.355,0.826c0.323,0.68,0.69,1.341,0.966,2.039
		c0.323,0.816-0.41,2.234-1.26,2.544c-0.973,0.355-2.039-0.173-2.348-1.25c-0.196-0.684-0.258-1.408-0.363-2.118
		c-0.064-0.429-0.099-0.863-0.163-1.45c-0.81,0.113-1.512,0.191-2.205,0.314c-0.843,0.15-1.674,0.368-2.518,0.507
		c-1.454,0.24-2.914,0.442-4.372,0.656c-0.164,0.024-0.333,0.018-0.61,0.031c-0.305-1.376-0.605-2.729-0.918-4.138
		c0.753-0.226,1.4-0.401,2.035-0.617c0.515-0.176,1.095-0.298,1.502-0.624c1.328-1.061,1.654-2.083,1.101-3.413
		c-0.196-0.471-0.427-0.928-0.601-1.3c-1.897-1.043-3.613-0.621-5.362,0.303c-0.438-1.631-0.855-3.194-1.3-4.854
		c0.522-0.153,0.997-0.317,1.483-0.432c4.004-0.949,8.01-1.891,12.016-2.832c1.233-0.29,2.461-0.616,3.707-0.841
		C96.547,69.589,97.575,69.533,98.777,69.4z"/>
	<path fill-rule="evenodd" clip-rule="evenodd" fill="#faae19" class="fill" d="M101.575,74.676c-0.543-2.027-1.053-3.931-1.583-5.915
		c5.453-1.257,10.75-2.89,16.299-3.759c0.266,0.695,0.52,1.361,0.774,2.026c0.394,1.022,0.758,2.057,1.19,3.062
		c0.278,0.648,0.563,1.341,1.521,1.551c0.632-0.997,1.542-1.789,2.73-2.064c0.709-0.166,1.488-0.03,2.197-0.03
		c1.23,1.678,0.826,3.089-1.09,3.722c-0.736,0.243-1.546,0.256-2.318,0.395c-0.339,0.061-0.668,0.175-1.053,0.279
		c0.447,1.741,0.855,3.331,1.26,4.902c-0.956,0.852-4.565,1.827-6.528,1.752c-0.026-0.321-0.071-0.654-0.077-0.988
		c-0.026-1.467-0.866-2.469-2.019-3.149c-1.677-0.99-4.693,0.457-5.034,2.378c-0.091,0.508,0.074,1.078,0.194,1.603
		c0.098,0.426,0.303,0.827,0.504,1.351c-1.2,0.458-2.36,0.9-3.67,1.399c-0.328-1.041-0.598-1.982-0.924-2.904
		c-0.328-0.927-0.584-1.896-1.312-2.76c-0.272,0.1-0.561,0.173-0.818,0.306c-0.518,0.266-1.015,0.574-1.527,0.85
		c-1.055,0.565-2.181,0.511-3.312,0.362c-0.959-0.66-1.06-0.939-0.622-1.947c0.598-1.375,1.595-2.197,3.154-2.246
		C100.152,74.832,100.789,74.746,101.575,74.676z"/>
	<path fill-rule="evenodd" clip-rule="evenodd" fill="#faae19" class="fill" d="M123.943,85.85c-2.092-0.149-3.445,0.634-4.025,2.656
		c-0.513,1.787,0.008,3.018,1.473,4.061c1.604,0.422,3.139,0.28,4.718-0.464c0.509,1.153,0.972,2.203,1.46,3.31
		c-0.403,0.193-0.664,0.354-0.948,0.447c-1.893,0.611-3.785,1.217-5.685,1.802c-0.591,0.181-1.082,0.433-1.21,0.951
		c0.364,0.813,0.695,1.52,0.997,2.239c0.117,0.282,0.193,0.589,0.238,0.892c0.105,0.72-0.27,1.406-0.841,1.596
		c-0.518,0.173-1.269-0.095-1.562-0.717c-0.286-0.605-0.47-1.283-0.565-1.948c-0.075-0.532-0.17-1.004-0.659-1.47
		c-2.252,0.541-4.583,1.065-7.108,1.066c-0.321-1.477-0.644-2.96-0.984-4.527c0.774-0.239,1.485-0.461,2.198-0.678
		c1.017-0.31,1.569-1.032,1.852-2.025c0.213-0.747,0.011-1.396-0.516-1.886c-0.837-0.78-1.867-1.147-3.018-0.985
		c-0.739,0.104-1.465,0.312-2.285,0.495c-0.648-2.034-1.301-4.079-1.976-6.197c1.692-0.556,3.31-1.086,4.941-1.621
		c0.218-0.821-0.465-1.268-0.686-1.879c-0.219-0.606-0.455-1.207-0.638-1.688c0.305-1.018,0.868-1.556,1.702-1.858
		c1.107-0.4,1.97-0.039,2.375,1.072c0.263,0.72,0.345,1.469,0.172,2.23c-0.066,0.297-0.123,0.597-0.168,0.818
		c0.181,0.517,0.501,0.65,0.924,0.603c0.545-0.061,1.096-0.092,1.635-0.191c1.75-0.321,3.494-0.672,5.242-1
		c0.331-0.062,0.672-0.076,1.062-0.117C122.932,82.39,123.67,83.946,123.943,85.85z"/>
	<path fill-rule="evenodd" clip-rule="evenodd" fill="#faae19" class="fill" d="M63.189,92.467c-1.855-3.872-4.152-12.099-3.864-14.009
		c0.906-0.287,1.868-0.634,2.853-0.896c2.419-0.643,4.854-1.221,7.27-1.875c1.52-0.413,3.005-0.952,4.527-1.359
		c0.785-0.211,1.613-0.261,2.402-0.38c0.622,0.704,0.589,1.535,0.79,2.277c0.312,1.158,0.537,2.339,0.858,3.494
		c0.1,0.358,0.393,0.663,0.644,1.067c0.601-0.345,1.063-0.626,1.541-0.882c0.45-0.243,0.895-0.535,1.379-0.673
		c0.927-0.262,1.707,0.189,2.218,1.176c-0.022,1.535-0.417,2.109-1.856,2.556c-0.746,0.232-1.519,0.383-2.384,0.597
		c-0.418,1.866,0.281,3.645,0.761,5.499c-1.495,0.901-3.177,0.27-4.79,0.819c-0.185-1.541-0.543-2.848-1.896-3.584
		c-0.881-0.479-1.795-0.407-2.699-0.143c-2.077,0.608-3.012,2.71-2.385,5.491C66.78,91.917,65.01,92.188,63.189,92.467z"/>
	<path fill-rule="evenodd" clip-rule="evenodd" fill="#faae19" class="fill" d="M85.222,101.902c0.697,1.139,0.581,2.36,0.771,3.582
		c-2.35,0.704-4.696,1.123-7.127,1.45c-0.226-0.585-0.457-1.113-0.636-1.659c-0.455-1.401-1.47-2.283-2.726-2.914
		c-0.306-0.153-0.733-0.172-1.08-0.113c-0.735,0.126-1.376,0.529-1.795,1.124c-1.129,1.605-1.832,3.311-0.83,5.269
		c0.061,0.117,0.081,0.254,0.145,0.462c-1.244,0.224-2.446,0.44-3.726,0.67c-0.136-0.206-0.294-0.417-0.426-0.645
		c-1.109-1.921-1.801-4.01-2.261-6.157c-0.589-2.747-1.034-5.525-1.532-8.291c-0.047-0.261-0.031-0.534-0.051-0.907
		c2.233-0.297,4.396-0.703,6.559-1.217c-0.223-0.797-0.454-1.439-0.576-2.101c-0.299-1.614,0.438-2.65,1.596-3.068
		c0.905-0.327,1.653,0.027,1.91,0.965c0.126,0.459,0.13,0.949,0.22,1.419c0.088,0.46,0.215,0.914,0.355,1.496
		c2.277-0.312,4.466-0.613,6.713-0.921c0.823,1.678,1.2,3.45,1.819,5.263c-0.438,0.116-0.817,0.238-1.206,0.315
		c-1.287,0.255-2.451,1.383-2.681,3.149c-0.158,1.207,0.67,2.851,1.83,3.455c0.374,0.195,0.866,0.311,1.276,0.255
		c0.806-0.108,1.591-0.356,2.383-0.559C84.506,102.134,84.856,102.014,85.222,101.902z"/>
	<path fill-rule="evenodd" clip-rule="evenodd" fill="#faae19" class="fill" d="M146.621,91.753c1.151,5.052,3.218,9.584,5.652,14.09
		c-2.007,0.631-3.944,1.241-5.969,1.878c-0.191-0.584-0.361-1.06-0.501-1.544c-0.369-1.283-1.177-2.134-2.451-2.54
		c-1.668-0.533-3.084,0.362-3.588,2.057c-0.398,1.338,0.003,2.478,0.548,3.719c-2.018,0.656-3.981,1.294-6.027,1.959
		c-0.865-1.906-1.256-3.82-1.844-5.606c-0.659-0.29-1.034,0.014-1.433,0.391c-0.952,0.904-2.087,1.422-3.419,1.441
		c-0.27,0.004-0.539-0.044-0.9-0.076c-0.242-0.465-0.489-0.94-0.719-1.381c0.793-3.002,3.086-2.898,5.345-2.744
		c0.435-0.597,0.269-1.18,0.152-1.736c-0.358-1.706-0.743-3.406-1.143-5.222c2.167-0.504,4.145-1.47,6.407-1.777
		c0.102,0.416,0.169,0.779,0.28,1.128c0.462,1.443,1.282,2.586,2.79,3.054c1.723,0.536,3.128-0.298,3.416-2.085
		c0.122-0.761,0.009-1.566-0.042-2.348c-0.023-0.367-0.152-0.727-0.24-1.125c0.172-0.099,0.308-0.198,0.459-0.258
		C144.41,92.622,145.429,92.223,146.621,91.753z"/>
	<path fill-rule="evenodd" clip-rule="evenodd" fill="#faae19" class="fill" d="M112.152,107.329c-0.838-1.795-0.971-3.787-1.473-5.749
		c1.769-0.682,3.594-0.43,5.342-1.014c0.211,0.801,0.387,1.455,0.555,2.111c0.336,1.312,1.244,2.002,2.507,2.295
		c0.232,0.054,0.481,0.029,0.718,0.071c1.725,0.304,2.792-1.137,2.497-2.64c-0.197-1.003-0.519-1.981-0.825-3.123
		c1.156-0.377,2.354-0.748,3.537-1.158c1.162-0.402,2.311-0.844,3.605-1.321c0.476,1.731,0.929,3.385,1.378,5.024
		c-0.971,0.33-1.87,0.614-2.751,0.946c-0.381,0.143-0.729,0.378-1.087,0.582c-2.243,1.276-1.715,4.193-0.056,5.232
		c0.174,0.109,0.357,0.201,0.676,0.378c0.728-0.121,1.586-0.192,2.399-0.421c0.778-0.218,1.509-0.601,2.318-0.935
		c0.841,1.235,1.014,2.641,1.49,4.076c-2.923,1.208-6.023,1.543-8.902,2.43c-0.156,0.603,0.057,0.956,0.337,1.335
		c0.928,1.253,1.238,2.639,0.759,4.25c-0.466,0.312-0.97,0.648-1.396,0.933c-1.612-0.425-2.176-1.031-2.374-2.486
		c-0.074-0.543-0.124-1.091-0.15-1.639c-0.025-0.513-0.005-1.028-0.005-1.799c-0.074-0.072-0.263-0.253-0.45-0.434
		c-2.126,0.612-4.092,1.179-6.199,1.786c-0.348-1.268-0.702-2.561-1.095-3.99c0.449-0.056,0.768-0.11,1.088-0.132
		c1.157-0.081,2.322-0.941,2.57-1.908c0.425-1.66-0.808-3.244-2.529-3.157C113.859,106.91,113.092,107.148,112.152,107.329z"/>
	<path fill-rule="evenodd" clip-rule="evenodd" fill="#faae19" class="fill" d="M132.644,61.688c2.921,3.924,4.785,8.25,6.675,12.703
		c-1.421,0.42-2.698,0.851-4.161,1.053c-0.053-0.529-0.092-0.927-0.138-1.395c-0.171-0.261-0.363-0.585-0.586-0.887
		c-0.32-0.433-0.73-0.713-1.3-0.714c-0.583,0-1.167-0.055-1.749-0.031c-1.718,0.069-2.74,1.416-2.351,3.079
		c0.076,0.326,0.188,0.645,0.314,1.069c-2.178,0.456-4.076,1.648-6.406,1.951c-0.399-1.132-0.779-2.209-1.179-3.339
		c0.696-0.048,1.245-0.03,1.771-0.133c1.119-0.218,2.015-0.869,2.781-1.671c0.598-0.625,0.872-1.392,0.618-2.273
		c-0.327-1.132-0.689-2.281-1.927-2.723c-1.148-0.411-2.348-0.478-3.52-0.007c-0.662,0.267-1.315,0.558-2.022,0.859
		c-0.888-1.373-0.988-2.989-1.673-4.55c0.493-0.121,0.867-0.255,1.252-0.3c3.271-0.381,6.496-1.013,9.695-1.797
		C130.029,62.266,131.329,61.988,132.644,61.688z"/>
	<path fill-rule="evenodd" clip-rule="evenodd" fill="#faae19" class="fill" d="M95.06,128.435c2.717-0.384,5.152,0.306,7.646,1.311
		c0.166,1.861-0.426,3.647-0.539,5.521c0.256,0.487,0.741,0.34,1.159,0.268c1.442-0.249,2.446,0.443,3.285,1.487
		c0.609,0.759,0.639,1.59,0.138,2.393c-0.527,0.845-1.361,1.266-2.28,0.998c-0.782-0.228-1.521-0.607-2.276-0.924
		c-0.187-0.078-0.366-0.168-0.565-0.261c-0.499,0.315-0.614,0.806-0.744,1.306c-0.433,1.66-0.883,3.316-1.334,4.972
		c-0.043,0.161-0.137,0.308-0.267,0.592c-1.02-0.276-2.029-0.548-3.039-0.825c-1.951-0.533-3.901-1.074-5.855-1.601
		c-0.487-0.131-0.882,0.005-1.13,0.578c0.05,0.44,0.088,0.953,0.171,1.458c0.14,0.848-0.03,1.645-0.374,2.406
		c-0.497,1.106-1.28,1.586-2.221,1.489c-1.036-0.107-1.692-1.25-1.853-2.088c-0.236-1.238,0.339-2.2,1.056-3.108
		c0.212-0.268,0.463-0.503,0.771-0.833c-0.205-0.307-0.405-0.604-0.527-0.785c-1.168-0.316-2.186-0.618-3.215-0.864
		c-1.018-0.243-2.049-0.43-3.094-0.646c-0.11-1.38,0.09-2.591,0.318-3.802c0.172-0.91,0.318-1.825,0.483-2.736
		c0.084-0.46-0.022-0.816-0.585-1.037c-1.628,0.949-2.963,0.174-4.229-0.814c0.155-1.852,1.883-3.169,3.539-2.827
		c0.56,0.115,1.123,0.22,1.819,0.356c0.315-1.353,0.614-2.628,0.901-3.864c1.109-0.072,6.082,0.854,6.908,1.278
		c-0.103,0.266-0.206,0.542-0.314,0.816c-0.716,1.813-0.038,3.092,1.381,4.232c0.64,0.513,1.486,0.562,2.261,0.233
		c2.136-0.905,2.741-1.684,2.607-3.882C95.049,129.029,95.06,128.825,95.06,128.435z"/>
	<path fill-rule="evenodd" clip-rule="evenodd" fill="#faae19" class="fill" d="M49.557,123.191c-0.117-0.606-0.207-0.999-0.266-1.395
		c-0.152-1.015-0.336-2.028-0.418-3.049c-0.059-0.718,0.217-1.348,0.884-1.721c1.042,0.081,1.768,0.666,2.001,1.603
		c0.263,1.057,0.234,2.106-0.09,3.148c-0.09,0.291-0.149,0.59-0.255,1.016c0.207,0.191,0.427,0.393,0.617,0.569
		c1.849-0.584,3.598-1.137,5.434-1.717c0.61,2.255,1.207,4.416,1.284,6.668c-0.747,0.228-1.452,0.384-2.106,0.66
		c-0.462,0.195-0.915,0.494-1.27,0.848c-0.831,0.826-0.706,2.067,0.216,2.796c0.84,0.665,1.771,1.041,2.862,0.922
		c0.371-0.041,0.743-0.07,1.237-0.116c0.159,1.493,0.795,2.881,0.802,4.384c-1.986,0.646-3.864,1.256-5.69,1.849
		c-0.156,0.423-0.261,0.704-0.364,0.984c0.062-0.013,0.124-0.025,0.187-0.038c0.347,0.88,0.787,1.736,1.015,2.645
		c0.278,1.108-0.128,1.876-1.051,2.446c-1.018,0.628-2.174,0.297-2.631-0.799c-0.348-0.832-0.526-1.697-0.312-2.616
		c0.093-0.388,0.068-0.804,0.09-1.106c-0.354-0.524-0.773-0.498-1.185-0.421c-0.708,0.132-1.406,0.313-2.116,0.438
		c-0.533,0.094-1.076,0.133-1.749,0.212c-1.513-5.439-2.814-10.837-3.18-16.56C45.563,124.281,47.488,123.755,49.557,123.191z"/>
</g>
</svg>
