<svg version="1.1" id="svg" xmlns="http://www.w3.org/2000/svg" xmlns:xlink="http://www.w3.org/1999/xlink" x="0px" y="0px"
	 width="200px" height="200px" viewBox="0 0 200 200" enable-background="new 0 0 200 200" xml:space="preserve">
<path class="stroke" fill="#51575c"  d="M166.499,83.162c0.047-3.527-2.376-6.632-5.838-7.436c-3.492-0.812-7.049-0.985-10.615-1.044
	c-4.322-0.072-8.645-0.152-12.966-0.202c-3.135-0.038-6.275-0.128-9.407-0.023c-6.169,0.207-12.332,0.642-18.501,0.778
	c-5.412,0.121-10.839,0.152-16.243-0.123c-6.896-0.348-13.771,0.093-20.656,0.104c-4.37,0.008-8.738,0.156-13.108,0.211
	c-5.035,0.063-10.066,0.103-15.038,1.075c-1.863,0.364-3.154,1.5-3.508,3.405c-0.619,3.322-1.007,6.665-0.812,10.056
	c0.04,0.709,0.036,1.426-0.012,2.135c-0.099,1.465-0.297,2.926-0.352,4.393c-0.135,3.608-0.212,7.218-0.312,10.828
	c0.002,0,0.004,0,0.007,0c-0.037,1.33-0.042,2.661-0.118,3.99c-0.248,4.415-0.378,8.825,0.183,13.229
	c0.229,1.792,1.009,3.218,2.537,4.247c1.093,0.737,2.299,1.117,3.565,1.364c3.275,0.638,6.597,0.705,9.917,0.781
	c1.187,0.026,2.376-0.018,3.561,0.027c3.368,0.126,6.733,0.388,10.101,0.402c5.363,0.021,10.726-0.121,16.088-0.18
	c2.564-0.027,5.129,0.022,7.692-0.036c4.414-0.102,8.825-0.284,13.237-0.388c4.702-0.11,9.404-0.178,14.107-0.246
	c2.466-0.036,4.934-0.037,7.4-0.045c3.987-0.013,7.974,0.018,11.961-0.039c5.125-0.072,10.249-0.207,15.374-0.33
	c1.087-0.026,2.173-0.128,3.259-0.185c3.528-0.182,5.904-3.07,6.281-6.133c0.331-2.679,0.634-5.363,0.885-8.051
	c0.203-2.168,0.321-4.343,0.46-6.517c0.231-3.6,0.544-7.198,0.653-10.803C166.436,93.328,166.432,88.244,166.499,83.162z"/>
<path fill-rule="evenodd" clip-rule="evenodd" fill="#f7dad4" class="fill" d="M70.285,78.213c4.79-0.016,9.58,0.02,14.369-0.064
	c3.217-0.056,6.431-0.326,9.648-0.414c1.987-0.054,3.977,0.075,5.965,0.09c4.535,0.034,9.072,0.127,13.605,0.048
	c3.65-0.063,7.293-0.412,10.943-0.504c3.037-0.076,6.079,0.031,9.118,0.068c5.081,0.064,10.163,0.138,15.244,0.208
	c3.273,0.043,6.546,0.081,9.819,0.136c3.009,0.051,4.893,1.707,5.265,4.71c0.146,1.17,0.191,2.368,0.14,3.548
	c-0.186,4.27-0.655,8.54-0.598,12.805c0.071,5.332-0.258,10.64-0.505,15.951c-0.133,2.837-0.667,5.654-1.026,8.479
	c-0.104,0.817-0.551,1.35-1.289,1.748c-1.257,0.676-2.6,0.895-3.983,0.879c-5.404-0.063-10.808-0.218-16.213-0.224
	c-3.84-0.003-7.68,0.178-11.52,0.269c-0.712,0.017-1.425-0.021-2.137-0.007c-3.654,0.078-7.308,0.178-10.962,0.246
	c-4.224,0.078-8.448,0.133-12.672,0.201c-3.04,0.05-6.078,0.117-9.117,0.155c-5.603,0.071-11.205,0.163-16.809,0.18
	c-7.688,0.021-15.373-0.088-23.051-0.498c-3.414-0.182-6.824-0.393-10.235-0.598c-1.93-0.116-3.087-1.114-3.367-3.034
	c-0.155-1.073-0.204-2.173-0.197-3.26c0.025-3.462,0.088-6.924,0.158-10.385c0.024-1.181,0.133-2.359,0.17-3.539
	c0.12-3.785,0.146-7.574,0.363-11.352c0.141-2.453,0.118-4.928,0.712-7.352c0.198-0.808,0.046-1.696,0.129-2.541
	c0.119-1.225,0.238-2.457,0.482-3.661c0.211-1.038,0.847-1.806,1.963-2.015c0.697-0.13,1.401-0.273,2.105-0.309
	c3.269-0.161,6.538-0.403,9.807-0.395c4.558,0.013,9.115,0.224,13.673,0.351C70.285,78.16,70.285,78.186,70.285,78.213z
	 M44.968,123.649c1.705,0.047,3.075,0.102,4.446,0.117c0.853,0.01,1.708-0.034,2.562-0.06c4.167-0.13,8.334-0.274,12.501-0.389
	c2.704-0.073,5.41-0.12,8.116-0.148c3.986-0.043,7.974-0.107,11.96-0.077c3.506,0.026,7.013,0.21,10.521,0.25
	c4.843,0.056,9.689,0.139,14.53,0.031c5.223-0.116,10.439-0.233,15.666-0.109c3.934,0.094,7.872-0.05,11.808-0.042
	c3.512,0.007,7.026,0.063,10.539,0.122c2.658,0.046,5.317,0.134,7.976,0.196c1.05,0.024,2.068-0.078,2.937-0.837
	c-0.116-0.815-0.334-1.603-0.321-2.386c0.051-3.134,0.115-6.268,0.281-9.397c0.448-8.496,0.567-16.991,0.139-25.488
	c-0.083-1.641-0.026-3.332-0.945-4.897c-1.404-0.04-2.817-0.078-4.231-0.118c-3.888-0.109-7.774-0.233-11.663-0.318
	c-1.61-0.036-3.223-0.024-4.832,0.036c-3.271,0.12-6.54,0.382-9.812,0.411c-3.226,0.028-6.454-0.196-9.682-0.241
	c-2.744-0.039-5.49-0.003-8.234,0.036c-1.756,0.024-3.511,0.146-5.267,0.166c-5.84,0.065-11.68,0.06-17.519,0.167
	c-3.89,0.07-7.778,0.299-11.668,0.429c-1.89,0.063-3.782,0.015-5.671,0.096c-2.655,0.112-5.307,0.377-7.962,0.435
	c-3.323,0.07-6.65-0.053-9.974,0.002c-1.656,0.028-3.31,0.244-4.959,0.426c-0.343,0.037-0.661,0.299-1.024,0.474
	c-0.134,2.018-0.319,3.955-0.376,5.897c-0.101,3.464-0.119,6.93-0.183,10.396c-0.022,1.186-0.092,2.371-0.124,3.557
	c-0.078,2.896-0.055,5.797-0.241,8.686c-0.221,3.423-0.233,6.835,0.133,10.243C44.482,122.132,44.786,122.929,44.968,123.649z"/>
<path fill-rule="evenodd" clip-rule="evenodd" fill="#f7dad4" class="fill" d="M78.448,120.15c-0.081-1.671-0.159-3.261-0.237-4.876
	c0.292-0.075,0.47-0.161,0.646-0.159c6.408,0.084,12.815,0.202,19.222,0.259c4.604,0.041,9.208-0.002,13.813,0.002
	c0.846,0,1.693,0.043,2.557,0.067c0.471,1.02,0.559,2.692,0.25,5.131C102.596,120.938,90.494,120.787,78.448,120.15z"/>
<path fill-rule="evenodd" clip-rule="evenodd" fill="#f7dad4" class="fill" d="M62.791,108.753c-0.052,1.876-0.1,3.559-0.151,5.43
	c-5.63-0.238-11.271,0.369-17.003,0.041c-0.256-1.822-0.012-3.425,0.168-5.051C51.539,109.031,57.095,108.894,62.791,108.753z
	 M50.942,112.86c-1.195-0.758-1.83-0.781-2.452-0.008C49.3,112.564,50.059,113.718,50.942,112.86z M46.627,113.362
	c0.874,0.026,0.998-0.344,0.848-0.982C46.729,112.281,46.582,112.651,46.627,113.362z"/>
<path fill-rule="evenodd" clip-rule="evenodd" fill="#f7dad4" class="fill" d="M59.396,101.75c-0.055,1.99-0.104,3.771-0.16,5.754
	c-4.445-0.029-8.848,0.549-13.4,0.18c0.053-1.907,0.103-3.717,0.153-5.517C50.407,102.031,54.781,101.895,59.396,101.75z
	 M49.843,106.667c0.006-0.145,0.012-0.29,0.018-0.435c-0.82-0.632-1.794,0.021-2.67-0.224c-0.138-0.039-0.377,0.285-0.569,0.442
	c0.026,0.09,0.052,0.18,0.079,0.27C47.749,106.702,48.796,106.685,49.843,106.667z"/>
<path fill-rule="evenodd" clip-rule="evenodd" fill="#f7dad4" class="fill" d="M45.997,100.494c0.057-2.086,0.111-4.011,0.167-6.024
	c3.6-0.731,7.116-0.233,10.707-0.41c0.023,2.209,0.044,4.141,0.066,6.19C53.294,100.8,49.726,100.984,45.997,100.494z M48.98,99.03
	c-0.009-0.134-0.019-0.268-0.028-0.403c-0.623,0.041-1.246,0.08-1.869,0.121C47.729,99.539,48.355,99.453,48.98,99.03z"/>
<path fill-rule="evenodd" clip-rule="evenodd" fill="#f7dad4" class="fill" d="M144.552,113.994c0.046-1.634,0.088-3.178,0.131-4.716
	c1.198-0.407,9.887,0.154,12.356,0.792c-0.042,1.48-0.083,2.961-0.127,4.557C152.754,114.415,148.764,114.21,144.552,113.994z
	 M152.958,113.026c1.929,0.432,2.396,0.264,2.292-0.749C153.627,112.277,153.627,112.277,152.958,113.026z"/>
<path fill-rule="evenodd" clip-rule="evenodd" fill="#f7dad4" class="fill" d="M157.276,86.397c0.06,2.216,0.113,4.238,0.172,6.45
	c-3.064,0.048-5.926,0.092-8.917,0.138c0.065-2.343,0.125-4.495,0.187-6.771C151.53,86.146,154.3,85.997,157.276,86.397z
	 M155.86,91.329c-1.441-0.816-3.044-0.75-3.836,0.104C153.279,91.785,154.436,92.115,155.86,91.329z"/>
<path fill-rule="evenodd" clip-rule="evenodd" fill="#f7dad4" class="fill" d="M148.018,102.33c3.152-0.181,6.197-0.399,9.333,0.263
	c-0.051,1.853-0.102,3.678-0.158,5.71c-3.126,0.386-6.155-0.398-9.325-0.556C147.92,105.869,147.967,104.148,148.018,102.33z
	 M153.293,106.657c1.333,0.528,2.089,0.387,2.494-0.463C154.348,105.73,153.928,105.808,153.293,106.657z"/>
<path fill-rule="evenodd" clip-rule="evenodd" fill="#f7dad4" class="fill" d="M54.906,120.932c-3.115,0-5.983,0-8.859,0
	c-0.685-1.767-0.299-3.445-0.6-5.177c3.08-0.061,6.032-0.119,9.092-0.178C54.659,117.334,54.771,118.967,54.906,120.932z
	 M46.524,119.277c1.294,0.651,1.306,0.646,1.353-0.514C47.48,118.914,47.146,119.041,46.524,119.277z"/>
<path fill-rule="evenodd" clip-rule="evenodd" fill="#f7dad4" class="fill" d="M133.696,115.618c-0.042,1.55-0.085,3.055-0.133,4.788
	c-2.997,0.092-6.049,0.185-9.156,0.28c-0.069-1.776-0.134-3.418-0.197-5.025c0.232-0.115,0.353-0.197,0.486-0.233
	c0.135-0.038,0.281-0.049,0.422-0.044C127.9,115.456,130.681,115.534,133.696,115.618z M128.782,118.989
	c0.024,0.159,0.047,0.318,0.07,0.477c1.338-0.135,2.676-0.263,4.011-0.426c0.089-0.01,0.145-0.286,0.282-0.579
	C131.519,118.194,130.094,118.195,128.782,118.989z"/>
<path fill-rule="evenodd" clip-rule="evenodd" fill="#f7dad4" class="fill" d="M157.471,94.538c-0.057,2.071-0.114,4.134-0.176,6.348
	c-2.151-0.059-4.352-0.12-6.731-0.186c-0.545-1.997-0.04-4.073-0.028-6.354C152.914,94.412,155.101,94.473,157.471,94.538z
	 M155.763,100.066c-0.015-0.697-0.028-1.289-0.039-1.832c-1.203-0.367-1.928-0.271-1.998,0.297c0.289,0.207,0.615,0.439,0.872,0.623
	c0.137,0.408,0.247,0.741,0.37,1.111C155.244,100.197,155.418,100.153,155.763,100.066z"/>
<path fill-rule="evenodd" clip-rule="evenodd" fill="#f7dad4" class="fill" d="M65.059,94.06c2.409-0.077,4.526-0.143,6.817-0.216
	c-0.06,2.136-0.116,4.179-0.177,6.384c-2.157,0.26-4.303,0.113-6.625,0.038C65.104,98.165,64.792,96.184,65.059,94.06z
	 M68.654,98.42c0.063-0.739-0.075-1.144-0.712-1.148c-0.169,0-0.34,0.096-0.556,0.161c0.015,0.276,0.026,0.499,0.041,0.767
	C67.84,98.274,68.193,98.339,68.654,98.42z"/>
<path fill-rule="evenodd" clip-rule="evenodd" fill="#f7dad4" class="fill" d="M96.387,93.888c2.26,0.062,4.402,0.122,6.664,0.185
	c-0.058,2.089-0.114,4.143-0.174,6.291c-2.223,0.378-4.385,0.096-6.665-0.186C96.271,98.059,96.327,96.058,96.387,93.888z
	 M99.802,96.958c-1.075,0.36-1.301,0.717-0.954,1.357c0.249,0.006,0.546,0.015,0.978,0.027
	C99.817,97.871,99.811,97.489,99.802,96.958z"/>
<path fill-rule="evenodd" clip-rule="evenodd" fill="#f7dad4" class="fill" d="M80.536,99.901c-0.146-2.001-0.107-3.962,0.123-6.069
	c2.268-0.02,4.464-0.039,6.788-0.06c-0.059,2.11-0.114,4.124-0.176,6.316C85.09,100.026,82.936,99.967,80.536,99.901z
	 M84.355,96.812c-0.998-0.073-1.214,0.373-1.143,1.225c0.352,0.026,0.684,0.051,1.106,0.083
	C84.333,97.635,84.343,97.281,84.355,96.812z"/>
<path fill-rule="evenodd" clip-rule="evenodd" fill="#f7dad4" class="fill" d="M141.358,85.968c-0.036,1.313-0.066,2.393-0.097,3.473
	c-0.03,1.088-0.06,2.174-0.095,3.463c-0.806-0.008-1.724-0.031-2.643-0.026c-0.944,0.004-1.888,0.034-3.003,0.055
	c-0.531-2.309-0.255-4.546-0.156-6.93C137.331,85.813,139.202,85.977,141.358,85.968z M138.688,88.602
	c-0.849,0.55-0.892,0.801-0.37,2.031C138.829,90.003,139.061,89.381,138.688,88.602z"/>
<path fill-rule="evenodd" clip-rule="evenodd" fill="#f7dad4" class="fill" d="M75.652,101.565c-0.06,2.121-0.111,3.99-0.166,5.983
	c-2.197-0.061-4.261-0.117-6.53-0.18c-0.31-1.762-0.024-3.639-0.354-5.623C71.006,101.684,73.215,101.627,75.652,101.565z
	 M73.075,104.889c-0.487-0.014-0.815-0.022-1.243-0.034c-0.042,0.394-0.079,0.732-0.125,1.163c0.395,0.048,0.683,0.082,1.004,0.121
	C72.824,105.75,72.912,105.446,73.075,104.889z"/>
<path fill-rule="evenodd" clip-rule="evenodd" fill="#f7dad4" class="fill" d="M62.282,86.36c2.032,0.057,4.038,0.112,6.067,0.168
	c-0.056,2.011-0.112,4.019-0.169,6.085c-2.055,0.087-3.973,0.168-6.079,0.256C62.162,90.712,62.219,88.655,62.282,86.36z
	 M65.219,89.401c-0.699,0.558-0.864,1.019-0.34,1.689C65.368,90.61,65.575,90.171,65.219,89.401z"/>
<path fill-rule="evenodd" clip-rule="evenodd" fill="#f7dad4" class="fill" d="M83.761,92.443c-2.236-0.061-4.345-0.121-6.498-0.18
	c-0.443-1.058-0.488-4.2-0.004-5.656c2.156,0.06,4.348,0.121,6.658,0.185C83.866,88.639,83.816,90.416,83.761,92.443z M80.213,90.76
	c0.871-0.234,0.836-0.773,0.643-1.466C79.999,89.549,80.053,90.096,80.213,90.76z"/>
<path fill-rule="evenodd" clip-rule="evenodd" fill="#f7dad4" class="fill" d="M133.996,85.872c-0.066,2.384-0.127,4.587-0.195,7.013
	c-1.621,0.171-3.334,0.028-5.223-0.125c-0.307-2.25-0.279-4.426-0.048-6.763C130.366,85.955,132.092,85.915,133.996,85.872z
	 M132.028,89.203c-0.838,0.764-0.838,0.764-0.188,1.772C132.317,90.452,132.432,89.945,132.028,89.203z"/>
<path fill-rule="evenodd" clip-rule="evenodd" fill="#f7dad4" class="fill" d="M106.92,86.54c-0.058,2.096-0.112,4.016-0.168,6.047
	c-2.22-0.062-4.407-0.123-6.717-0.186c0.119-1.868-0.117-3.617,0.422-5.423C102.601,86.832,104.702,86.689,106.92,86.54z
	 M103.355,89.225c-1.11,0.565-1.159,0.803-0.387,1.917C103.114,90.424,103.219,89.904,103.355,89.225z"/>
<path fill-rule="evenodd" clip-rule="evenodd" fill="#f7dad4" class="fill" d="M83.577,107.245c-0.863,0.095-1.609,0.219-2.359,0.25
	c-1.32,0.054-2.642,0.052-4.118,0.076c-0.006-1.105-0.107-2.14,0.009-3.151c0.109-0.958-0.507-1.983,0.315-2.976
	c2.019,0.056,4.092,0.113,6.252,0.173C84.044,103.468,83.85,105.279,83.577,107.245z M80.791,105.797
	c0.119-0.578,0.219-1.067,0.363-1.768c-0.6,0.141-0.936,0.219-1.254,0.293C79.715,105.034,79.688,105.551,80.791,105.797z"/>
<path fill-rule="evenodd" clip-rule="evenodd" fill="#f7dad4" class="fill" d="M137.515,100.804c-2.041,0.088-3.873,0.167-5.896,0.254
	c-0.23-2.263-0.112-4.408,0.057-6.736c1.969,0.055,3.84,0.106,5.927,0.164C137.661,96.498,137.658,98.594,137.515,100.804z
	 M134.197,97.997c-1.058,0.024-1.238,0.559-1.178,1.284c0.92,0.586,1.319,0.542,1.55-0.22
	C134.471,98.781,134.352,98.439,134.197,97.997z"/>
<path fill-rule="evenodd" clip-rule="evenodd" fill="#f7dad4" class="fill" d="M67.295,101.705c0.063,2.019,0.118,3.804,0.18,5.778
	c-2.273-0.062-4.37-0.121-6.617-0.183c-0.048-1.879-0.094-3.687-0.143-5.62C62.979,101.485,65.034,101.678,67.295,101.705z
	 M62.934,105.653c-0.003,0.142-0.006,0.284-0.01,0.425c0.403,0.121,0.807,0.243,1.481,0.446c-0.205-0.595-0.296-0.864-0.425-1.238
	C63.567,105.432,63.25,105.542,62.934,105.653z"/>
<path fill-rule="evenodd" clip-rule="evenodd" fill="#f7dad4" class="fill" d="M108.301,86.462c2.004,0.057,3.825,0.107,5.82,0.163
	c-0.056,2.026-0.115,4.111-0.176,6.323c-1.839-0.051-3.649-0.1-5.565-0.154C108.055,90.725,108.091,88.733,108.301,86.462z
	 M111.388,91.327c0.655-0.815,0.655-0.815,0.458-1.916C110.899,89.795,110.899,89.796,111.388,91.327z"/>
<path fill-rule="evenodd" clip-rule="evenodd" fill="#f7dad4" class="fill" d="M46.135,92.902c0.057-2.049,0.111-4.011,0.167-6.006
	c2.343-0.044,4.601-0.087,7.021-0.133c-0.054,1.967-0.105,3.833-0.162,5.836C50.853,92.698,48.56,92.797,46.135,92.902z
	 M47.932,91.242c1.179,0.539,2.053,0.59,2.854-0.164c0.044-0.04,0.01-0.161,0.015-0.306c-0.301,0.021-0.599,0.043-1.165,0.086
	c0.433-0.644,0.747-1.11,1.093-1.625c-0.293-0.341-0.613-0.717-0.977-1.141c-0.478,0.414-0.896,0.776-1.277,1.105
	c0.218,0.514,0.413,0.973,0.601,1.414C48.658,90.843,48.422,90.972,47.932,91.242z"/>
<path fill-rule="evenodd" clip-rule="evenodd" fill="#f7dad4" class="fill" d="M54.889,92.587c-0.272-2.022-0.463-3.897,0.031-5.948
	c1.873-0.093,3.772-0.188,5.664-0.283c0.053,2.225,0.101,4.235,0.152,6.394C58.707,92.694,56.841,92.642,54.889,92.587z
	 M57.2,91.239c0.678-0.311,0.723-0.685,0.46-1.25C56.977,90.184,56.909,90.569,57.2,91.239z"/>
<path fill-rule="evenodd" clip-rule="evenodd" fill="#f7dad4" class="fill" d="M118.214,100.93c0.06-2.184,0.12-4.343,0.186-6.717
	c1.799-0.125,3.612-0.253,5.381-0.377c-0.069,2.498-0.133,4.795-0.201,7.244C121.787,101.028,120.152,100.983,118.214,100.93z
	 M121.529,99.664c0.114-0.617,0.177-0.957,0.24-1.296c-0.076-0.119-0.153-0.24-0.229-0.359c-0.869,0.996-1.898-0.399-2.869,0.448
	C119.222,99.872,120.467,99.017,121.529,99.664z"/>
<path fill-rule="evenodd" clip-rule="evenodd" fill="#f7dad4" class="fill" d="M69.617,92.532c0.059-2.108,0.11-3.945,0.166-5.971
	c2.008-0.181,3.865-0.181,5.905-0.064c-0.055,1.997-0.106,3.86-0.163,5.916C73.554,92.453,71.589,92.492,69.617,92.532z
	 M71.938,90.791c0.111,0.037,0.221,0.074,0.332,0.111c0.709-0.646,0.709-0.646-0.042-1.368
	C72.113,90.029,72.025,90.41,71.938,90.791z"/>
<path fill-rule="evenodd" clip-rule="evenodd" fill="#f7dad4" class="fill" d="M85.214,107.172c0.053-1.924,0.102-3.69,0.156-5.653
	c2.093,0.058,4.144,0.114,6.319,0.175c-0.047,1.702-0.095,3.424-0.147,5.321C89.492,107.066,87.489,107.116,85.214,107.172z
	 M88.324,105.926c0.143-0.05,0.284-0.101,0.427-0.151c0.012-0.435,0.024-0.869,0.041-1.463c-0.443,0.102-0.765,0.178-1.31,0.304
	C87.836,105.166,88.08,105.546,88.324,105.926z"/>
<path fill-rule="evenodd" clip-rule="evenodd" fill="#f7dad4" class="fill" d="M122.782,115.535c0.073,1.721,0.144,3.364,0.22,5.175
	c-2.063-0.057-4.253-0.117-6.641-0.184c-0.078-1.687-0.156-3.355-0.233-4.996C117.429,115.159,120.76,115.171,122.782,115.535z
	 M121.317,119.074c0.022-0.111,0.044-0.223,0.066-0.334c-0.587-0.464-1.16-0.55-1.944,0.282
	C120.221,119.044,120.769,119.059,121.317,119.074z"/>
<path fill-rule="evenodd" clip-rule="evenodd" fill="#f7dad4" class="fill" d="M88.836,100.071c0.059-2.123,0.112-4.099,0.17-6.163
	c0.883-0.396,1.878-0.099,2.852-0.104c0.942-0.006,1.885,0.045,2.978,0.075c-0.057,2.055-0.113,4.059-0.174,6.249
	C92.75,100.258,90.887,100.07,88.836,100.071z M91.384,98.614c0.782-0.424,0.57-1.138,0.617-1.936
	c-0.438,0.047-0.77,0.084-1.073,0.118C90.786,97.976,90.786,97.976,91.384,98.614z"/>
<path fill-rule="evenodd" clip-rule="evenodd" fill="#f7dad4" class="fill" d="M79.152,94.022c-0.054,1.913-0.108,3.843-0.166,5.956
	c-1.893,0.108-3.706,0.213-5.677,0.325c-0.059-2.206-0.111-4.217-0.17-6.449C75.209,93.912,77.115,93.965,79.152,94.022z
	 M77.339,97.699c-1.496-0.512-1.496-0.512-2.002,0.305C76.346,98.76,76.548,98.736,77.339,97.699z"/>
<path fill-rule="evenodd" clip-rule="evenodd" fill="#f7dad4" class="fill" d="M125.197,94.136c1.731,0.048,3.315,0.092,5.026,0.139
	c-0.065,2.363-0.126,4.557-0.188,6.793c-1.662,0.552-3.287-0.095-5.116,0.13C125.037,98.703,124.845,96.369,125.197,94.136z
	 M126.846,98.027c-0.014,0.51-0.027,0.977-0.042,1.524c0.36-0.031,0.617-0.054,0.94-0.082c0.014-0.514,0.026-0.946,0.039-1.417
	C127.428,98.043,127.203,98.037,126.846,98.027z"/>
<path fill-rule="evenodd" clip-rule="evenodd" fill="#f7dad4" class="fill" d="M142.435,115.387c-0.049,1.771-0.094,3.366-0.142,5.112
	c-2.286-0.064-4.579-0.127-7.022-0.195c-0.09-1.558-0.177-3.09-0.273-4.761C137.515,115.288,139.862,115.287,142.435,115.387z
	 M138.458,118.706c1.284-0.357,1.365-0.501,1.064-1.839c-0.752-0.1-1.308,0.187-1.782,0.907
	C137.997,118.106,138.241,118.423,138.458,118.706z"/>
<path fill-rule="evenodd" clip-rule="evenodd" fill="#f7dad4" class="fill" d="M71.056,109.062c0.039,1.59,0.079,3.126,0.118,4.756
	c-2.35,0.141-4.498,0.27-6.786,0.407c-0.144-1.861-0.465-3.51-0.021-5.349C66.591,108.939,68.741,108.999,71.056,109.062z
	 M68.205,111.99c-0.077-0.09-0.154-0.18-0.23-0.271c-0.345,0.122-0.688,0.241-1.034,0.361c0.007,0.137,0.014,0.274,0.021,0.412
	c0.3,0.072,0.624,0.244,0.89,0.179C68.015,112.631,68.09,112.229,68.205,111.99z"/>
<path fill-rule="evenodd" clip-rule="evenodd" fill="#f7dad4" class="fill" d="M98.529,92.483c-2.066-0.057-4.03-0.112-6.191-0.171
	c-0.118-1.759,0.047-3.56,0.191-5.452c1.965,0.055,3.833,0.106,5.762,0.16C98.862,88.688,98.908,90.456,98.529,92.483z
	 M96.019,89.541c-1.08,0.229-1.08,0.229-0.521,1.247C95.713,90.271,95.866,89.906,96.019,89.541z"/>
<path fill-rule="evenodd" clip-rule="evenodd" fill="#f7dad4" class="fill" d="M104.409,100.586c0.065-2.307,0.121-4.367,0.179-6.462
	c0.983-0.353,1.854,0,2.73,0.054c0.842,0.052,1.687,0.053,2.631,0.079c-0.062,2.21-0.117,4.223-0.177,6.36
	C108.001,101.032,106.292,100.479,104.409,100.586z M106.472,97.738c-0.116,0.716-0.165,1.246,0.758,1.454
	c0.127-0.459,0.249-0.896,0.393-1.422C107.142,97.757,106.877,97.749,106.472,97.738z"/>
<path fill-rule="evenodd" clip-rule="evenodd" fill="#f7dad4" class="fill" d="M111.262,100.708c-0.089-2.152-0.149-4.171,0.263-6.28
	c1.793-0.035,3.481-0.067,5.312-0.102c-0.061,2.197-0.119,4.299-0.181,6.531C114.873,100.808,113.146,100.761,111.262,100.708z
	 M115.6,98.029c-0.455-0.291-0.788-0.504-1.215-0.776c-0.394,0.367-0.727,0.676-1.133,1.056
	C114.18,98.879,114.832,98.88,115.6,98.029z"/>
<path fill-rule="evenodd" clip-rule="evenodd" fill="#f7dad4" class="fill" d="M72.707,108.903c2.234,0.063,4.523,0.126,6.943,0.193
	c-0.042,1.509-0.084,3.042-0.131,4.736c-2.269,0.021-4.521,0.04-6.744,0.061C72.421,112.556,72.371,110.029,72.707,108.903z
	 M74.657,113.153c0.577-0.887,0.588-1.267-0.025-1.523c-0.223,0.095-0.504,0.216-0.746,0.32
	C73.729,112.71,73.92,113.125,74.657,113.153z"/>
<path fill-rule="evenodd" clip-rule="evenodd" fill="#f7dad4" class="fill" d="M116.934,108.575c-0.049,1.784-0.096,3.462-0.146,5.286
	c-2.051,0.059-4.053,0.116-6.202,0.178c0.054-1.959,0.103-3.726,0.156-5.636C112.783,108.46,114.748,108.514,116.934,108.575z
	 M113.491,112.926c0.694-0.712,0.959-1.461,0.557-1.902c-0.247,0.034-0.577,0.079-0.894,0.122
	C112.929,111.886,112.721,112.503,113.491,112.926z"/>
<path fill-rule="evenodd" clip-rule="evenodd" fill="#f7dad4" class="fill" d="M90.926,92.327c-2.031,0.047-3.807,0.088-5.705,0.133
	c0.055-1.968,0.105-3.791,0.162-5.83c1.9-0.034,3.768-0.066,5.703-0.1C91.031,88.524,90.98,90.34,90.926,92.327z M88.285,89.365
	c-1.103,0.519-1.116,0.635-0.183,1.586C88.17,90.358,88.221,89.924,88.285,89.365z"/>
<path fill-rule="evenodd" clip-rule="evenodd" fill="#f7dad4" class="fill" d="M147.036,93.066c-1.506-0.042-2.813-0.078-4.303-0.12
	c-0.22-2.276-0.247-4.544-0.081-6.927c1.574,0.044,3.008,0.083,4.576,0.127C147.163,88.481,147.103,90.67,147.036,93.066z
	 M143.755,90.304c0.067,0.107,0.135,0.215,0.203,0.323c0.443,0.081,0.702-0.072,0.73-0.89
	C144.258,89.998,144.006,90.151,143.755,90.304z"/>
<path fill-rule="evenodd" clip-rule="evenodd" fill="#f7dad4" class="fill" d="M87.55,113.779c-2.229,0.053-4.211,0.1-6.333,0.15
	c-0.208-1.752-0.269-3.324-0.061-5.091c2.078-0.137,4.086-0.268,6.271-0.411C87.47,110.268,87.508,111.904,87.55,113.779z
	 M84.965,110.755c-0.466,0.122-0.79,0.207-1.127,0.295c-0.08,0.814-0.027,1.383,0.976,1.348c0.085-0.329,0.173-0.587,0.21-0.852
	C85.049,111.373,85.001,111.19,84.965,110.755z"/>
<path fill-rule="evenodd" clip-rule="evenodd" fill="#f7dad4" class="fill" d="M115.444,92.998c-0.039-2.286-0.074-4.306-0.113-6.525
	c1.785,0.05,3.461,0.096,5.279,0.146c-0.053,1.946-0.108,3.91-0.168,6.057C118.855,92.779,117.269,92.881,115.444,92.998z
	 M118.484,89.133c-0.978,0.673-1,0.772-0.5,1.828C118.761,90.569,118.617,89.934,118.484,89.133z"/>
<path fill-rule="evenodd" clip-rule="evenodd" fill="#f7dad4" class="fill" d="M63.476,100.238c-1.689,0.032-3.282,0.062-4.971,0.093
	c-0.454-2.069-0.258-3.991-0.228-6.095c1.793,0.05,3.508,0.098,5.36,0.148C63.587,96.237,63.534,98.114,63.476,100.238z
	 M61.298,98.88c0.083-0.397,0.161-0.766,0.259-1.238c-0.475-0.013-0.776-0.021-1.199-0.033c-0.04,0.423-0.077,0.802-0.118,1.242
	C60.65,98.862,60.914,98.87,61.298,98.88z"/>
<path fill-rule="evenodd" clip-rule="evenodd" fill="#f7dad4" class="fill" d="M139.161,94.376c1.68,0.047,3.179,0.089,4.818,0.134
	c-0.059,2.133-0.116,4.197-0.177,6.403c-1.481-0.042-3.018-0.084-4.724-0.132C138.891,98.741,138.924,96.65,139.161,94.376z
	 M140.944,98.163c-0.562-0.016-0.932-0.025-1.304-0.036c-0.182,0.765-0.01,1.18,0.857,1.246
	C140.626,99.025,140.756,98.673,140.944,98.163z"/>
<path fill-rule="evenodd" clip-rule="evenodd" fill="#f7dad4" class="fill" d="M102.441,114.115c-2.026-0.056-3.909-0.108-5.877-0.163
	c-0.297-1.812-0.323-3.529,0.027-5.363c2.05-0.16,4.004-0.199,6.002,0.024C102.542,110.498,102.494,112.245,102.441,114.115z
	 M101.037,110.661c-0.759-0.133-1.229-0.082-1.418,0.547c-0.191,0.63,0.094,0.969,0.92,1.133
	C100.699,111.795,100.854,111.275,101.037,110.661z"/>
<path fill-rule="evenodd" clip-rule="evenodd" fill="#f7dad4" class="fill" d="M122.103,86.451c1.667-0.087,3.301-0.172,5.072-0.265
	c-0.061,2.207-0.118,4.249-0.177,6.369c-1.696-0.046-3.286-0.091-5.06-0.14C121.991,90.451,122.044,88.551,122.103,86.451z
	 M124.243,90.599c0.713-0.675,0.754-1.203,0.412-1.936C123.806,89.122,123.951,89.708,124.243,90.599z"/>
<path fill-rule="evenodd" clip-rule="evenodd" fill="#f7dad4" class="fill" d="M93.256,101.499c2.132,0.164,4.052,0.311,6.026,0.462
	c-0.05,1.782-0.095,3.407-0.144,5.179c-2.084-0.059-4.005-0.111-6.035-0.168C93.152,105.223,93.2,103.5,93.256,101.499z
	 M97.488,104.419c-0.872-0.277-1.266-0.025-1.371,0.579c-0.098,0.567,0.111,1,0.952,1.107
	C97.203,105.568,97.337,105.032,97.488,104.419z"/>
<path fill-rule="evenodd" clip-rule="evenodd" fill="#f7dad4" class="fill" d="M125.165,113.987c0.057-1.931-0.27-3.617,0.227-5.465
	c1.783,0.051,3.543,0.1,5.452,0.152c-0.049,1.786-0.1,3.6-0.151,5.466C128.889,114.091,127.124,114.042,125.165,113.987z
	 M126.823,111.209c-0.177,0.688-0.026,1.119,0.624,1.245c0.153,0.031,0.334-0.088,0.591-0.165c-0.075-0.449-0.14-0.84-0.223-1.331
	C127.386,111.066,127.095,111.14,126.823,111.209z"/>
<path fill-rule="evenodd" clip-rule="evenodd" fill="#f7dad4" class="fill" d="M61.988,115.666c0.104,1.624,0.206,3.208,0.324,5.021
	c-2.005,0.029-3.82,0.055-5.845,0.084c-0.189-1.693-0.382-3.4-0.593-5.275C57.987,115.555,59.935,115.609,61.988,115.666z
	 M58.067,118.635c-0.281,0.165-0.562,0.331-1.094,0.645C57.767,119.45,58.185,119.555,58.067,118.635z"/>
<path fill-rule="evenodd" clip-rule="evenodd" fill="#f7dad4" class="fill" d="M156.735,116.084c-0.05,1.818-0.094,3.403-0.144,5.179
	c-2.047,0.021-3.993,0.253-6.096-0.174c0.048-1.751,0.096-3.468,0.147-5.341C152.661,115.537,154.626,116.116,156.735,116.084z
	 M152.373,119.535c0.994-0.006,1.522-0.469,2.102-1.182c-0.43-0.334-0.807-0.629-1.214-0.945c-0.402,0.227-0.712,0.403-1.082,0.611
	C152.243,118.517,152.3,118.966,152.373,119.535z"/>
<path fill-rule="evenodd" clip-rule="evenodd" fill="#f7dad4" class="fill" d="M94.998,108.655c-0.047,1.712-0.094,3.391-0.143,5.19
	c-1.871-0.051-3.73-0.104-5.694-0.158c-0.358-1.691-0.248-3.366-0.237-5.201C90.982,108.544,92.935,108.599,94.998,108.655z
	 M92.413,110.583c-0.625,0.214-0.98,0.335-1.309,0.447c0.163,1.197,0.163,1.197,1.129,1.209
	C92.279,111.811,92.327,111.372,92.413,110.583z"/>
<path fill-rule="evenodd" clip-rule="evenodd" fill="#f7dad4" class="fill" d="M63.805,120.517c-0.124-1.705-0.236-3.243-0.355-4.891
	c2.133-0.161,4.131-0.312,6.287-0.475c0.049,1.771,0.094,3.396,0.143,5.179C67.826,120.393,65.876,120.453,63.805,120.517z
	 M66.286,119.324c-0.619-1.02-0.619-1.02-1.481-0.123C65.416,119.251,65.85,119.287,66.286,119.324z"/>
<path fill-rule="evenodd" clip-rule="evenodd" fill="#f7dad4" class="fill" d="M96.303,85.564c0.136-1.417,0.243-2.528,0.365-3.8
	c2.5,0.07,4.886,0.136,7.441,0.207c-0.03,1.056-0.06,2.148-0.095,3.43C101.467,85.455,98.984,85.508,96.303,85.564z"/>
<path fill-rule="evenodd" clip-rule="evenodd" fill="#f7dad4" class="fill" d="M134.39,102.313c-0.05,1.8-0.092,3.303-0.137,4.918
	c-2.02-0.056-3.932-0.11-5.985-0.166c-0.148-1.471-0.155-2.904,0.193-4.485C130.435,102.492,132.347,102.405,134.39,102.313z
	 M130.902,104.684c-0.207,0.779,0.012,1.163,0.926,1.298c0.096-0.454,0.185-0.877,0.32-1.512
	C131.553,104.572,131.224,104.629,130.902,104.684z"/>
<path fill-rule="evenodd" clip-rule="evenodd" fill="#f7dad4" class="fill" d="M123.742,108.633c-0.051,1.85-0.099,3.57-0.15,5.394
	c-1.727-0.047-3.345-0.093-5.06-0.14c-0.519-1.73-0.083-3.412-0.177-5.265C120.198,108.454,121.944,108.447,123.742,108.633z
	 M122.305,112.779c-0.036-0.687-0.06-1.163-0.087-1.678c-0.357-0.011-0.573-0.017-0.876-0.024c-0.131,0.437-0.256,0.854-0.427,1.423
	C121.412,112.599,121.771,112.672,122.305,112.779z"/>
<path fill-rule="evenodd" clip-rule="evenodd" fill="#f7dad4" class="fill" d="M104.128,108.533c1.799,0.051,3.347,0.094,5.016,0.14
	c0.262,1.717-0.04,3.479-0.077,5.377c-1.753,0.079-3.423,0.154-5.099,0.23C104.024,112.293,104.073,110.519,104.128,108.533z
	 M107.147,112.871c0.123-0.704,0.204-1.171,0.287-1.644c-1.273-0.176-1.276-0.173-1.277,1.171
	C106.374,112.502,106.615,112.617,107.147,112.871z"/>
<path fill-rule="evenodd" clip-rule="evenodd" fill="#f7dad4" class="fill" d="M71.065,115.109c1.984,0.055,3.718,0.104,5.454,0.151
	c0.487,1.381,0.533,3.418,0.085,5.09c-0.332,0.023-0.699,0.075-1.064,0.072c-0.846-0.006-1.696,0.006-2.536-0.078
	c-0.562-0.056-1.109-0.264-1.627-0.396C71.27,118.275,71.175,116.825,71.065,115.109z M72.529,119.018
	c1.426,0.69,1.943,0.63,2.79-0.442C74.303,118.678,73.445,118.093,72.529,119.018z"/>
<path fill-rule="evenodd" clip-rule="evenodd" fill="#f7dad4" class="fill" d="M106.1,102.09c-0.048,1.734-0.092,3.306-0.14,5.053
	c-1.718-0.048-3.426-0.095-5.233-0.146c0.044-1.615,0.088-3.202,0.135-4.869C102.602,101.57,104.254,102.275,106.1,102.09z
	 M104.309,104.349c-0.609,0.095-0.939,0.148-1.231,0.194c-0.237,1.443-0.237,1.443,0.849,1.843
	C104.039,105.792,104.144,105.226,104.309,104.349z"/>
<path fill-rule="evenodd" clip-rule="evenodd" fill="#f7dad4" class="fill" d="M112.892,102.333c0.147,1.631,0.368,3.082-0.143,4.593
	c-1.661,0.048-3.301,0.095-5.098,0.147c-0.05-1.663-0.096-3.192-0.146-4.889C109.395,102.236,111.075,102.283,112.892,102.333z
	 M109.425,104.404c-0.053,0.795,0.157,1.162,0.999,1.199c0.046-0.46,0.086-0.866,0.14-1.415
	C110.063,104.283,109.77,104.339,109.425,104.404z"/>
<path fill-rule="evenodd" clip-rule="evenodd" fill="#f7dad4" class="fill" d="M114.395,102.488c0.369-0.107,0.591-0.229,0.812-0.227
	c1.557,0.026,3.114,0.077,4.672,0.121c0.576,1.672,0.172,3.126-0.06,4.688c-1.758-0.049-3.439-0.096-5.338-0.147
	C114.453,105.46,114.424,103.983,114.395,102.488z M118.429,104.244c-0.586,0.042-0.894,0.063-1.293,0.092
	c-0.057,0.439-0.107,0.829-0.168,1.298c0.411,0.076,0.7,0.129,1.105,0.203C118.188,105.322,118.283,104.897,118.429,104.244z"/>
<path fill-rule="evenodd" clip-rule="evenodd" fill="#f7dad4" class="fill" d="M132.599,108.746c1.478,0.042,2.935,0.083,4.507,0.125
	c-0.048,1.736-0.093,3.374-0.144,5.176c-1.502-0.042-2.999-0.083-4.504-0.125C132.105,112.582,132.191,109.641,132.599,108.746z
	 M136.048,110.938c-1.401,0-1.48,0.101-1.323,1.452c0.287,0.021,0.591,0.044,0.97,0.073
	C135.813,111.947,135.916,111.507,136.048,110.938z"/>
<path fill-rule="evenodd" clip-rule="evenodd" fill="#f7dad4" class="fill" d="M121.46,107.059c0.045-1.614,0.084-3.043,0.126-4.572
	c1.765,0.049,3.485,0.096,5.283,0.146c-0.041,1.493-0.08,2.884-0.12,4.323C125.003,107.543,123.344,107.272,121.46,107.059z
	 M124.741,105.269c-0.094-0.102-0.188-0.201-0.281-0.301c-0.314,0.183-0.708,0.307-0.908,0.577
	c-0.097,0.129,0.116,0.574,0.295,0.791c0.09,0.111,0.414,0.03,0.702,0.038C124.621,105.958,124.681,105.614,124.741,105.269z"/>
<path fill-rule="evenodd" clip-rule="evenodd" fill="#f7dad4" class="fill" d="M135.793,107.268c0.044-1.587,0.088-3.165,0.136-4.889
	c1.614-0.3,3.171,0.112,4.812-0.029c-0.049,1.741-0.092,3.318-0.14,5.052C138.981,107.356,137.453,107.314,135.793,107.268z
	 M139.214,105.615c0.059-0.441,0.115-0.866,0.168-1.277c-0.74-0.176-1.136,0.024-1.2,0.604
	C138.125,105.456,138.411,105.729,139.214,105.615z"/>
<path fill-rule="evenodd" clip-rule="evenodd" fill="#f7dad4" class="fill" d="M87.339,81.941c-0.03,1.117-0.058,2.085-0.09,3.274
	c-2.336,0.032-4.666,0.063-7.125,0.098c0.029-1.059,0.055-1.976,0.084-3.033C82.54,82.168,84.87,82.058,87.339,81.941z"/>
<path fill-rule="evenodd" clip-rule="evenodd" fill="#f7dad4" class="fill" d="M112.083,84.934c-2.271,0.061-4.382,0.118-6.625,0.177
	c0.03-1.09,0.058-2.107,0.091-3.287c2.173-0.43,4.405-0.116,6.625-0.146C112.141,82.817,112.113,83.857,112.083,84.934z"/>
<path fill-rule="evenodd" clip-rule="evenodd" fill="#f7dad4" class="fill" d="M149.124,94.59c-0.056,2.008-0.113,4.068-0.173,6.232
	c-1.231,0.094-2.34,0.177-3.545,0.27c-0.349-2.236-0.018-4.335-0.012-6.605C146.71,94.522,147.91,94.556,149.124,94.59z
	 M146.463,98.755c0.052,0.96,0.34,1.276,0.959,0.972c0.048-0.246,0.111-0.572,0.207-1.061
	C147.124,98.704,146.792,98.729,146.463,98.755z"/>
<path fill-rule="evenodd" clip-rule="evenodd" fill="#f7dad4" class="fill" d="M88.649,81.928c2.21-0.048,4.364-0.095,6.668-0.146
	c-0.096,1.282-0.179,2.385-0.269,3.58c-2.123-0.059-4.137-0.114-6.181-0.171C88.392,84.12,88.567,83.108,88.649,81.928z"/>
<path fill-rule="evenodd" clip-rule="evenodd" fill="#f7dad4" class="fill" d="M138.512,114.044c0.081-1.807-0.208-3.445,0.215-5.134
	c1.476,0.041,2.837,0.079,4.329,0.121c0.34,1.599-0.018,3.126-0.025,4.655C141.56,114.351,140.12,113.802,138.512,114.044z
	 M141.727,111.05c-0.611,0.087-1.004,0.144-1.388,0.198c-0.029,0.873,0.275,1.142,1.06,1.004
	C141.481,111.955,141.569,111.631,141.727,111.05z"/>
<path fill-rule="evenodd" clip-rule="evenodd" fill="#f7dad4" class="fill" d="M142.478,102.429c1.373,0.039,2.628,0.073,3.961,0.11
	c-0.047,1.711-0.092,3.332-0.141,5.068c-1.451-0.04-2.741-0.075-4.169-0.115C142.129,105.763,141.972,104.098,142.478,102.429z
	 M144.513,105.65c0.89,0.294,0.89,0.294,1.204-0.697C144.749,104.674,144.749,104.674,144.513,105.65z"/>
<path fill-rule="evenodd" clip-rule="evenodd" fill="#f7dad4" class="fill" d="M119.299,85.021c-1.918-0.054-3.784-0.105-5.823-0.162
	c-0.215-1.009-0.213-2.082,0.266-3.241c1.885,0.053,3.709,0.103,5.647,0.157C119.36,82.826,119.332,83.835,119.299,85.021z"/>
<path fill-rule="evenodd" clip-rule="evenodd" fill="#f7dad4" class="fill" d="M126.875,84.837c-2.062,0.07-4.06,0.138-6.236,0.212
	c-0.021-1.186-0.037-2.151-0.056-3.254c2.186,0.061,4.229,0.117,6.371,0.176C126.928,82.901,126.904,83.77,126.875,84.837z"/>
<path fill-rule="evenodd" clip-rule="evenodd" fill="#f7dad4" class="fill" d="M78.854,82.265c-0.03,1.078-0.053,1.91-0.081,2.873
	c-2.259-0.062-4.453-0.124-6.825-0.189c-0.074-0.763-0.147-1.521-0.237-2.451C74.171,82.418,76.421,82.345,78.854,82.265z"/>
<path fill-rule="evenodd" clip-rule="evenodd" fill="#f7dad4" class="fill" d="M70.639,85.14c-2.584-0.071-4.966-0.138-7.528-0.209
	c-0.02-0.655-0.04-1.331-0.064-2.11c2.538-0.308,4.958-0.429,7.513-0.231C70.586,83.441,70.609,84.177,70.639,85.14z"/>
<path fill-rule="evenodd" clip-rule="evenodd" fill="#f7dad4" class="fill" d="M134.514,81.766c-0.024,0.88-0.047,1.696-0.074,2.689
	c-2.035,0.03-4.036,0.06-6.167,0.09c0.026-0.929,0.048-1.706,0.074-2.655C130.363,81.85,132.365,81.809,134.514,81.766z"/>
<path fill-rule="evenodd" clip-rule="evenodd" fill="#f7dad4" class="fill" d="M54.769,82.969c0.808-0.036,1.417-0.095,2.025-0.085
	c1.652,0.028,3.304,0.086,5.096,0.135c0.036,0.63,0.068,1.212,0.111,1.969c-2.483,0.107-4.821,0.208-7.297,0.316
	C54.727,84.471,54.745,83.804,54.769,82.969z"/>
<path fill-rule="evenodd" clip-rule="evenodd" fill="#f7dad4" class="fill" d="M53.696,83.032c-0.112,0.802-0.208,1.479-0.321,2.283
	c-2.3,0.082-4.504,0.161-6.839,0.245c0.022-0.841,0.042-1.508,0.063-2.267C48.962,83.058,51.242,82.814,53.696,83.032z"/>
<path fill-rule="evenodd" clip-rule="evenodd" fill="#f7dad4" class="fill" d="M135.778,84.459c-0.055-0.964-0.102-1.793-0.156-2.741
	c1.82-0.412,3.528-0.326,5.429-0.186c0.045,0.965,0.086,1.833,0.133,2.834c-0.971,0.063-1.804,0.147-2.639,0.162
	C137.699,84.542,136.852,84.489,135.778,84.459z"/>
<path fill-rule="evenodd" clip-rule="evenodd" fill="#f7dad4" class="fill" d="M147.096,81.653c-0.029,1.013-0.052,1.849-0.079,2.829
	c-1.473-0.042-2.955-0.082-4.558-0.126c-0.061-0.845-0.127-1.761-0.205-2.836C143.882,81.564,145.408,81.606,147.096,81.653z"/>
<path fill-rule="evenodd" clip-rule="evenodd" fill="#f7dad4" class="fill" d="M148.388,84.744c-0.057-1.107-0.102-1.987-0.154-3.022
	c1.341,0.036,2.54,0.07,3.879,0.107c-0.024,0.861-0.047,1.73-0.077,2.79C150.9,84.658,149.746,84.698,148.388,84.744z"/>
<path fill-rule="evenodd" clip-rule="evenodd" fill="#f7dad4" class="fill" d="M153.536,81.804c1.045-0.033,2.072-0.066,3.285-0.105
	c0.127,1.045,0.237,1.952,0.366,3.021c-1.33-0.036-2.481-0.068-3.688-0.102C153.145,83.689,153.192,82.791,153.536,81.804z"/>
<path fill-rule="evenodd" clip-rule="evenodd" fill="#f7dad4" class="fill" d="M143.818,115.469c0.716,0.02,1.304,0.036,1.987,0.055
	c-0.009,0.313-0.017,0.61-0.028,1.007c0.322,0.044,0.613,0.084,0.949,0.128c0.164-0.401,0.298-0.73,0.439-1.076
	c0.684,0.019,1.325,0.037,2.099,0.058c-0.067,0.686-0.126,1.281-0.196,1.989c-1.733-0.048-3.405-0.094-5.217-0.145
	C143.841,116.858,143.83,116.224,143.818,115.469z"/>
<path fill-rule="evenodd" clip-rule="evenodd" fill="#f7dad4" class="fill" d="M143.986,120.64c-0.045-0.647-0.081-1.153-0.126-1.814
	c1.715-0.291,3.346-0.053,5.122-0.023c-0.02,0.754-0.039,1.425-0.06,2.161C147.248,121.257,145.689,120.794,143.986,120.64z
	 M146.04,120.44c0.861-0.233,1.093-0.599,0.955-1.364c-0.488,0.029-0.945,0.055-1.697,0.098
	C145.648,119.771,145.836,120.092,146.04,120.44z"/>
</svg>
