<svg version="1.1" id="svg" xmlns="http://www.w3.org/2000/svg" xmlns:xlink="http://www.w3.org/1999/xlink" x="0px" y="0px"
	 width="200px" height="200px" viewBox="0 0 200 200" enable-background="new 0 0 200 200" xml:space="preserve">
<path class="stroke" fill="#58281d"  d="M122.367,93.857c-0.087-0.547-0.168-1.055-0.246-1.543c0.61-0.399,1.117-0.732,1.686-1.104
	c-0.188-0.728-0.368-1.423-0.562-2.172c0.629-0.244,1.184-0.459,1.83-0.71c-0.183-0.604-0.344-1.141-0.521-1.729
	c0.157-0.188,0.334-0.396,0.529-0.629c-0.165-0.559-0.325-1.103-0.493-1.672c0.285-0.364,0.582-0.701,0.831-1.07
	c0.335-0.5,0.741-0.986,0.929-1.542c1.526-4.493,2.143-9.093,1.44-13.82c-0.181-1.216-0.428-2.423-1.425-3.302
	c-1.184-0.009-2.343-0.029-3.394,0.532c-2.35,1.254-4.722,2.476-7.015,3.829c-1.475,0.87-2.825,1.95-4.22,2.927
	c-0.854-0.323-1.616-0.611-2.318-0.876c-0.402-0.433-0.758-0.813-1.165-1.25c-0.495,0.285-0.905,0.52-1.298,0.745
	c-0.544-0.447-1.06-0.87-1.675-1.376c-0.452,0.59-0.789,1.03-1.057,1.379c-1.925,0.127-3.755,0.25-5.688,0.378
	c-0.391-0.425-0.823-0.897-1.302-1.421c-0.275,0.169-0.529,0.288-0.738,0.462c-0.207,0.171-0.37,0.396-0.565,0.611
	c-0.299-0.359-0.549-0.66-0.813-0.978c-1.181,0.431-1.393,1.764-2.431,2.354c-0.28-0.243-0.581-0.455-0.822-0.721
	c-2.085-2.293-4.604-3.936-7.504-4.992c-0.509-0.186-1.086-0.184-1.563-0.258c-0.926,0.941-1.461,1.902-1.711,3
	c-0.272,1.198-0.532,2.407-0.685,3.624c-0.329,2.627-0.328,5.243,0.551,7.79c0.521,1.508,1.045,3.015,1.563,4.516
	c-0.377,1.377-0.764,2.784-1.172,4.273c0.624,0.345,1.107,0.613,1.602,0.887c0,0.915,0,1.844,0,2.727
	c0.319,0.241,0.57,0.433,0.855,0.647c-0.112,0.757-0.22,1.478-0.334,2.254c-1.285,0.303-2.52,0.593-3.753,0.883
	c1.83,0.346,3.535-0.564,5.389-0.304c0.089,0.927,0.169,1.761,0.254,2.644c-0.605,0.104-1.167,0.195-1.728,0.299
	c-0.564,0.104-1.151,0.15-1.682,0.348c-0.458,0.17-1.107,0.064-1.402,0.68c2.131-0.26,4.176-0.508,6.486-0.789
	c-0.66,1.275-1.178,2.277-1.701,3.29c-1.588,0.576-3.16,1.148-4.433,2.288c1.343-0.366,2.529-1.185,3.852-1.358
	c-0.571,2.564-1.252,4.981-1.618,7.445c-0.361,2.426-0.399,4.9-0.594,7.354c-0.057,0.716-0.162,1.43-0.246,2.159
	c-0.938-0.182-1.707-0.301-2.462-0.482c-2.054-0.495-3.978-1.312-5.64-2.626c-1.737-1.373-3.409-2.832-5.106-4.256
	c-0.69-0.581-1.37-1.177-2.065-1.752c-0.465-0.386-0.994-0.641-1.584-0.323c-0.62,0.335-0.969,0.861-0.918,1.609
	c0.027,0.392,0.006,0.785,0.006,1.019c-0.641,0.296-1.088,0.503-1.652,0.764c0.512,0.808,0.919,1.45,1.309,2.063
	c-0.442,0.409-0.85,0.786-1.335,1.235c0.35,0.469,0.632,0.848,0.913,1.224c-0.187,0.428-0.373,0.853-0.606,1.387
	c0.692,0.191,1.225,0.339,1.754,0.485c-0.256,0.644-0.491,1.233-0.778,1.958c0.727,0.438,1.342,0.809,2.012,1.213
	c0.454,1.216,0.551,1.285,2.103,1.508c0.536,0.267,1.13,0.688,1.648,0.607c1.085-0.165,2.045,0.117,2.99,0.479
	c2.37,0.907,4.812,1.335,7.343,1.331c0.811-0.002,1.621,0.085,2.461,0.132c0.21,0.823,0.352,1.547,0.583,2.241
	c0.333,1.006,0.704,2.003,1.109,2.982c0.39,0.94,1.177,1.446,2.12,1.736c0.779,0.239,1.559,0.471,2.363,0.715
	c0.045,0.44,0.087,0.844,0.154,1.497c0.434,0.232,0.865,0.591,1.353,0.699c1.521,0.339,3.057,0.632,4.6,0.845
	c0.676,0.092,1.384-0.046,2.075-0.097c0.406-0.029,0.812-0.145,1.215-0.134c1.133,0.029,2.192-0.246,3.221-0.686
	c0.264-0.112,0.526-0.273,0.802-0.3c1.052-0.104,1.811-0.708,2.515-1.408c0.459-0.457,0.89-0.943,1.308-1.389
	c0.496,0,0.905,0,1.315,0c0.396,0,0.791,0,1.164,0c0.051,0.298,0.082,0.418,0.09,0.54c0.107,1.587,0.697,2.17,2.312,2.209
	c1.312,0.031,2.631-0.054,3.938,0.042c2.834,0.205,5.275-0.879,7.609-2.257c1.486-0.879,2.055-2.235,1.736-3.996
	c-0.4-2.216-0.693-4.451-1.045-6.765c0.711-0.45,0.801-1.245,0.864-2.025c0.107-1.361-0.005-2.705-0.472-4.005
	c-0.498-1.389-0.992-2.778-1.48-4.171c-0.038-0.107-0.016-0.235-0.024-0.37c0.261-0.199,0.515-0.395,0.854-0.656
	c-0.31-3.588-1.199-7.052-2.471-10.574c0.613,0.097,1.09,0.172,1.566,0.247c0.018-0.06,0.035-0.118,0.053-0.177
	c-0.601-0.234-1.201-0.469-1.89-0.736c-0.49-1.062-1.439-1.949-1.8-3.252c0.789-0.063,1.43-0.115,2.021-0.163
	c0.198-0.326,0.342-0.562,0.537-0.884c2.131,0.204,4.268,0.41,6.404,0.617c-2.163-0.825-4.459-1.033-6.721-1.469
	c-0.151-0.441-0.277-0.812-0.396-1.158c0.873-0.359,1.655-0.697,2.451-1.001c0.223-0.085,0.486-0.11,0.727-0.094
	c1.308,0.096,2.612,0.219,3.919,0.318c0.768,0.058,1.54,0.215,2.302,0.094c0.007-0.114,0.013-0.229,0.018-0.343
	C127.268,94.499,124.854,94.183,122.367,93.857z"/>
<path fill-rule="evenodd" clip-rule="evenodd" fill="#e3a13b" class="fill" d="M113.558,115.481c-0.13-0.476-0.267-0.977-0.412-1.512
	c-1.129,0.036-0.739,1.06-1.047,1.565c-0.336,0.557-0.348,1.312-0.521,2.068c-1.177,0-2.304,0-3.351,0
	c-0.43,0.315-0.758,0.556-1.168,0.857c0.038,0.489,0.079,1.009,0.113,1.448c0.664,0.769,1.166,0.155,1.695,0.074
	c0.62,0,1.24,0,2.032,0c-0.007-0.007,0.128,0.136,0.302,0.323c-0.177,0.469-0.349,0.925-0.524,1.39
	c-0.861,0.368-1.701,0.727-2.513,1.073c-0.41-0.271-0.706-0.47-1.049-0.697c-0.693,0.086-1.407,0.172-2.295,0.28
	c0.153,0.544,0.254,0.91,0.354,1.265c0.857,0.274,1.632,0.523,2.498,0.801c0.182-0.041,0.459-0.102,0.546-0.119
	c0.79,0.19,1.402,0.339,2.136,0.517c-0.039,0.552-0.087,1.234-0.142,2.014c-1.179,0.026-2.304-0.516-3.471-0.055
	c0,0.446,0,0.87,0,1.239c1.089,0.815,2.407-0.343,3.454,0.716c0,0.575,0,1.253,0,2.235c-0.336-0.476-0.519-0.736-0.679-0.963
	c-0.962-0.137-0.938,0.872-1.602,1.192c-0.262-0.356-0.539-0.731-0.871-1.183c-0.333,0.158-0.647,0.308-0.937,0.445
	c-0.848-1.243-1.708-2.501-2.628-3.848c0.089-0.191,0.239-0.515,0.377-0.808c-0.709-0.833-1.379-1.607-2.034-2.394
	c-1.32-1.589-1.771-3.304-0.732-5.228c0.036-0.067,0.031-0.158,0.055-0.287c-0.186-0.271-0.389-0.569-0.617-0.905
	c-0.419-0.146-0.868-0.304-1.328-0.464c-0.19,0.174-0.369,0.338-0.547,0.5c-0.667-0.175-1.328-0.347-2.1-0.548
	c-0.128,0.103-0.346,0.276-0.429,0.344c-0.872-0.053-1.618-0.098-2.48-0.149c0,0.577,0,0.995,0,1.385
	c0.626,0.213,5.3,0.477,5.854,0.322c-0.252,0.395-0.464,0.729-0.661,1.037c-0.264,1.665-0.022,3.2,0.752,4.678
	c0.723,1.379,1.375,2.796,2.022,4.21c0.751,1.639,1.462,3.296,2.194,4.943c0.293,0.662,0.429,1.327,0.019,2.171
	c-0.437,0.15-0.989,0.342-1.53,0.528c-0.57-0.893-0.262-2.035-1.291-2.676c-0.599,1.07,0.493,2.071-0.148,3.181
	c-0.552,0.113-1.244,0.257-1.923,0.397c-0.758-1.14,0.016-2.265-0.206-3.335c-0.893,0.3-0.934,0.416-1.163,3.179
	c-0.812,0.729-1.726,0.461-2.725,0.254c-0.512-1.438,0.048-2.78,0.315-4.168c-1.523,0.723-1.266,2.256-1.631,3.564
	c-0.714,0.197-1.413,0.127-2.108-0.239c-0.478-0.832-0.251-1.567,0.248-2.29c0.658-0.952,1.176-1.933,1.257-3.152
	c0.058-0.89-0.041-1.699-0.317-2.529c-0.675-2.023-1.425-4.029-1.94-6.094c-0.586-2.347-0.803-4.763-0.681-7.195
	c0.005-0.104-0.071-0.211-0.147-0.429c-0.198,0.151-0.426,0.234-0.473,0.378c-0.252,0.772-0.571,1.549-0.658,2.347
	c-0.23,2.117-0.369,4.229,0.006,6.372c0.199,1.14-0.029,2.365-0.145,3.544c-0.063,0.664-0.351,1.265-1.082,1.476
	c-1.063-0.7-1.303-0.999-1.807-2.264c0.246-0.175,0.507-0.345,0.748-0.539c0.09-0.073,0.134-0.202,0.272-0.424
	c-1.501-2.954-2.132-6.171-1.974-9.606c0.448,0.041,0.865,0.08,1.49,0.138c-1.748-4.434-0.854-8.631,0.424-12.889
	c1.043-0.306,2.053-0.603,3.057-0.897c0.559,0.611,0.561,1.609,1.596,1.744c0.418-0.21,0.889-0.446,1.451-0.73
	c0.297,0.564,0.576,1.097,0.901,1.717c0.325,0.085,0.716,0.188,1.134,0.296c0.283-0.162,0.555-0.318,0.827-0.475
	c0.515,0.462,0.405,1.449,1.47,1.471c0.419-0.283,0.922-0.621,1.424-0.959c0.864,0.104,0.994,1.563,2.168,1.113
	c0.357-0.438,0.739-0.91,1.173-1.444c0.78,0.557,1.493,1.066,2.251,1.607c0.336-0.365,0.576-0.627,0.902-0.983
	c1.962,0.533,3.836,1.672,6.082,1.732c0-0.454,0-0.801,0-1.279c1.451,0.103,2.851,0.199,4.221,0.296
	c0.265-0.347,0.453-0.595,0.559-0.731c1.562-0.509,2.583,0.565,4.004,1.046c0.152,0.504,0.346,1.146,0.541,1.793
	c-0.245,0.199-0.396,0.424-0.556,0.433c-0.88,0.045-1.77,0.107-2.644,0.028c-1.044-0.094-1.951,0.11-2.895,0.827
	c0.236,0.432,0.446,0.816,0.579,1.06c1.521-0.3,2.834-0.561,4.181-0.826c0.478,0.122,0.992,0.253,1.639,0.418
	c0.156,0.55,0.332,1.166,0.498,1.743c-0.491,0.696-1.218,0.598-1.82,0.771c-0.461,0.133-0.982,0.063-1.431,0.218
	c-0.501,0.173-1.173,0.343-0.798,1.317c1.141-0.111,2.299-0.225,3.521-0.345c0.146,0.408,0.264,0.741,0.43,1.206
	c-0.515,0.113-0.936,0.207-1.428,0.316c-0.38,0.271-0.84,0.559-0.648,1.263c0.771,0.639,1.542-0.043,2.438-0.031
	c0.106,0.432,0.219,0.879,0.353,1.414c-1.04,0.349-1.979,0.664-3.123,1.049c-0.15,0.176-0.437,0.514-0.769,0.903
	c0.163,0.35,0.312,0.668,0.447,0.958c1.435,0.347,2.489-0.488,3.818-0.953c0.13,0.928,0.253,1.794,0.374,2.658
	c-0.508,0.212-0.922,0.384-1.369,0.57c0.195,0.885,0.36,1.636,0.565,2.572c-0.604-0.067-1.098-0.123-1.778-0.2
	c-0.208,0.139-0.572,0.379-0.979,0.647c0.148,0.336,0.26,0.585,0.418,0.944c0.799,0.037,1.602,0.077,2.566,0.123
	c0.207,1.873,0.538,3.806,0.25,5.764c-0.13,0.887-0.701,1.457-1.789,1.558c0-0.93,0-1.841,0-2.862
	c-1.017,0.361-0.718,1.108-0.811,1.695c-0.096,0.594-0.218,1.185-0.339,1.837c-0.733,0-1.333,0-1.969,0
	c-0.841-1.147-0.052-2.37-0.128-3.72c-1.477,1.016-1.018,2.502-1.286,3.862c-0.628,0.066-1.267,0.135-1.933,0.206
	c-0.492-1.185-0.001-2.304,0.002-3.614c-1.441,1.001-0.957,2.446-1.242,3.736c-0.383,0.118-0.795,0.247-1.176,0.365
	c-0.789-0.647-0.675-1.464-0.658-2.219c0.012-0.526,0.081-1.09,0.288-1.566c0.626-1.447,0.564-2.961,0.604-4.48
	c0.03-1.101,0.129-2.205,0.289-3.295c0.358-2.432,0.774-4.853,1.167-7.278C113.349,116.766,113.441,116.199,113.558,115.481z
	 M113.016,129.914c0.242,0.274,0.473,0.535,0.514,0.582c2.298-0.054,4.337-0.102,6.459-0.151c-0.539-0.93-1.021-1.759-1.533-2.641
	c-0.421,0.365-0.739,0.642-1.06,0.919c-0.266-0.344-0.481-0.623-0.762-0.984c-0.498,0.437-0.934,0.818-1.356,1.19
	c-0.327-0.303-0.588-0.544-0.844-0.78C113.492,128.358,113.402,129.201,113.016,129.914z M94.439,108.912
	c0.441-0.23,0.861-0.451,1.35-0.706c-0.133-0.298-0.239-0.54-0.369-0.833c-1.968-0.03-3.821-0.346-5.115-1.903
	c-0.557-0.062-1.025-0.114-1.617-0.181c-0.105,0.643-0.193,1.179-0.301,1.826C90.468,107.733,92.438,108.318,94.439,108.912z
	 M92.021,113.006c1.438,0.391,2.782,0.758,4.139,1.127c1.102-0.338,2.316-0.376,3.298-1.141c-0.289-0.955-1.086-0.601-1.55-0.539
	c-1.238,0.166-2.328-0.177-3.477-0.616c-0.215,0.056-0.481,0.126-0.686,0.178c-0.627-0.353-1.151-0.858-1.868-0.219
	C91.919,112.144,91.962,112.499,92.021,113.006z M100.027,131.645c-0.443-0.744-0.419-1.71-1.225-2.356
	c-0.316,0.292-0.604,0.559-0.888,0.82c-0.3-0.152-0.579-0.294-0.884-0.449c-0.282,0.22-0.532,0.414-0.772,0.6
	c-0.357-0.163-0.681-0.31-1.021-0.465c-0.595,0.656-0.661,1.404-0.699,2.159C95.289,132.177,99.218,131.959,100.027,131.645z
	 M103.48,107.881c-0.043-0.074-0.084-0.149-0.126-0.224c-0.41,0.234-0.819,0.467-1.275,0.728c0.169,0.348,0.286,0.59,0.427,0.882
	c0.832,0.063,1.634,0.125,2.379,0.182c0.366-0.256,0.664-0.461,0.959-0.674c0.027-0.02,0.026-0.076,0.069-0.218
	c-0.112-0.153-0.262-0.358-0.252-0.344C104.77,108.077,104.125,107.979,103.48,107.881z"/>
<path fill-rule="evenodd" clip-rule="evenodd" fill="#e3a13b" class="fill" d="M109.782,97.627c-0.749,0.815-1.659-0.324-2.515,0.61
	c0.567,0.305,1.045,0.562,1.516,0.816c-1.279,1.244-3.982,0.645-4.441-1.153c0.437-1.262,1.801-2.111,1.785-3.602
	c-1.396-0.555-3.934-0.499-5.385,0.086c-0.393,1.729,0.748,2.666,1.9,3.568c-0.803,2.382-2.693,3.164-4.442,1.854
	c0.409-0.416,1.302-0.037,1.485-1.062c-0.49,0.035-0.943,0.06-1.396,0.101c-0.419,0.038-0.866,0.227-1.395-0.43
	c0.639,0,1.057,0.016,1.474-0.004c0.374-0.019,0.746-0.074,1.347-0.138c-0.905-0.912-1.917-0.558-2.754-0.997
	c0.01-0.152,0.021-0.335,0.034-0.513c0.688-0.244,1.418,0.565,2.106-0.337c-0.755-0.27-1.44-0.578-2.158-0.76
	c-1.916-0.486-3.872-0.55-5.842-0.473c-1.342,0.054-2.688,0.01-4.07,0.01c-0.101-0.547-0.19-1.044-0.292-1.603
	c-0.562,0.062-0.993,0.111-1.597,0.18c0.174-0.987,0.332-1.889,0.508-2.88c-0.438-0.16-0.849-0.31-1.351-0.494
	c0.167-0.871,0.337-1.765,0.525-2.748c-0.511-0.06-0.858-0.1-1.381-0.158c0.378-0.982,0.722-1.876,1.142-2.967
	c-1.653-3.535-2.892-7.365-2.869-11.553c1.021-0.432,2.012-0.802,2.956-1.262c0.881-0.429,1.951-0.56,2.532-1.531
	c-1.869,0.403-3.533,1.31-5.416,2.177c0.076-0.574,0.133-0.996,0.204-1.535c1.381-0.399,2.765-0.801,4.149-1.202
	c-0.027-0.106-0.053-0.215-0.079-0.321c-1.272-0.171-2.44,0.515-3.771,0.669c0.043-1.075,0.271-1.966,1.08-2.647
	c1.833,0.504,3.361,1.472,4.877,2.438c1.312,0.836,2.585,1.732,3.646,2.907c0.42,0.464,1.033,0.754,1.606,1.159
	c0.444-0.535,0.803-0.968,1.172-1.414c0.379,0.204,0.724,0.389,1.169,0.627c0.365-0.331,0.716-0.649,1.115-1.012
	c0.301,0.134,0.629,0.277,0.782,0.346c2.384,0,4.59,0,7.011,0c0.088-0.079,0.353-0.316,0.677-0.607
	c0.736,0.458,1.49,1.138,2.297,0.395c1.314,0.476,2.536,0.924,3.764,1.358c0.668,0.236,1.2-0.067,1.681-0.487
	c2.402-2.1,5.238-3.506,8.021-4.986c1.227-0.652,2.47-1.31,3.89-1.475c0.157-0.019,0.32-0.002,0.636-0.002
	c0.155,0.556,0.432,1.126,0.455,1.707c0.132,3.282,0.188,6.562-0.548,9.803c-0.353,1.554-1.098,2.906-1.955,4.251
	c-0.293,0.182-0.604,0.375-1.031,0.641c0.111,0.561,0.226,1.145,0.357,1.814c-0.245,0.213-0.541,0.471-0.896,0.778
	c0.208,0.62,0.411,1.224,0.636,1.893c-0.396,0.133-0.734,0.245-1.063,0.354c-0.35-0.635-0.675-1.226-1.016-1.845
	c-0.84,0.071-1.596,0.137-2.419,0.208c-0.104,0.438-0.183,0.771-0.294,1.245c0.759,0.087,1.396,0.16,1.966,0.225
	c0.418,0.28,0.784,0.526,1.234,0.827c0.205,0.684,0.438,1.457,0.679,2.259c-0.725,0.371-1.355,0.692-2.011,1.028
	c0.173,0.716,0.312,1.293,0.473,1.956c-0.62,0.05-1.153,0.179-1.666,0.119c-2.087-0.239-4.069,0.353-6.081,0.699
	c-1.332,0.229-2.656,0.495-3.987,0.724c-0.747,0.128-0.751,0.108-1.371,0.778c0.87,0.375,1.7-0.149,2.572-0.013
	c0.038,0.138,0.075,0.277,0.16,0.597c-0.562-0.04-1.026-0.07-1.491-0.105c-0.512-0.039-0.996-0.041-1.015,0.786
	C108.214,97.415,108.998,97.521,109.782,97.627z M112.612,91.995c2.931-0.891,3.699-3.103,4.02-5.622
	c-0.731-0.94-2.307-1.933-3.72-2.188c-0.744-0.136-1.577-0.24-2.286-0.051c-2.433,0.653-4.597,4.003-4.389,6.598
	c0.748,0.418,0.748,0.418,1.864,0.213C109.5,91.77,111.053,92.052,112.612,91.995z M100.711,92.366
	c0.525-0.941,0.045-1.625-0.213-2.268c-0.652-1.631-1.395-3.172-3.137-4.053c-2.262-1.145-4.936-0.716-6.689,1.324
	c0.139,0.646,0.242,1.335,0.435,1.998c0.633,2.186,1.821,3.072,4.091,3.157c1.196,0.045,2.241-0.346,3.228-0.974
	c0.091-0.059,0.226-0.047,0.332-0.067c0.181,0.339,0.347,0.651,0.575,1.077C99.836,92.49,100.329,92.42,100.711,92.366z
	 M98.422,78.312c0.483,0.72,1.152,1.286,1.223,1.918c0.131,1.189,0.883,1.838,1.643,2.674c0.441-0.141,0.888-0.284,1.326-0.426
	c0-0.505,0-0.904,0-1.039c-1.197-2.052-2.266-3.881-3.409-5.843c-0.188-0.073-0.519-0.201-0.956-0.371
	c-0.269,0.45-0.507,0.847-0.725,1.214c0.442,0.525,0.814,0.967,1.189,1.412C98.604,78.023,98.496,78.194,98.422,78.312z
	 M106.462,74.884c-1.056,0.372-1.397,1.347-2.071,1.943c-0.834,0.738-0.369,1.87-1.092,2.522c0.106,0.675,0.21,1.336,0.314,1.991
	c0.451,0,0.875,0,1.341,0c0.24-2.315,1.257-4.246,2.522-6.18C106.98,75.025,106.676,74.942,106.462,74.884z M109.617,79.669
	c-0.834,0.729-1.596,1.395-2.341,2.045c0.086,0.48,0.156,0.868,0.231,1.288c0.365,0.113,0.709,0.22,1.096,0.34
	c1.204-0.734,1.27-2.104,2.002-3.157C110.235,79.991,109.994,79.865,109.617,79.669z M117.705,72.393
	c1.111,0.503,2.176,0.989,3.246,1.466c1.086,0.482,1.946,1.397,3.155,1.796c0-0.22,0.032-0.325-0.006-0.373
	c-1.4-1.762-3.308-2.753-5.38-3.473C118.362,71.685,117.982,71.687,117.705,72.393z M116.223,74.071
	c1.74,0.361,3.267,1.036,4.727,1.887c0.51,0.297,1.042,0.623,1.904,0.428c-1.23-0.886-2.208-1.815-3.473-2.308
	c-0.721-0.279-1.477-0.482-2.23-0.659C116.74,73.322,116.316,73.379,116.223,74.071z M121.422,77.625
	c-1.202-1.351-4.631-3.205-5.898-3.242c-0.281-0.01-0.57,0.234-0.855,0.361c0.008,0.104,0.018,0.208,0.027,0.312
	C116.984,75.543,118.925,76.938,121.422,77.625z M82.978,77.127c0.062,0.07,0.125,0.139,0.188,0.207
	c0.297-0.24,0.623-0.452,0.886-0.727c1.483-1.544,3.11-2.906,4.938-4.026c0.174-0.107,0.293-0.302,0.511-0.532
	C87.832,72.078,83.986,75.141,82.978,77.127z M98.455,83.864c-0.91-1.112-0.919-2.645-2.661-2.441
	c-0.178,0.194-0.388,0.425-0.659,0.721c0.396,0.694,0.779,1.363,1.245,2.178C96.937,84.199,97.572,84.059,98.455,83.864z
	 M88.145,87.475c-1.603,0.169-2.109,1.232-2.635,2.314c0.349,0.502,0.755,0.854,1.398,0.674c0.604-0.728,1.192-1.435,1.857-2.237
	C88.556,87.973,88.341,87.712,88.145,87.475z M90.395,73.682c-0.047-0.088-0.095-0.175-0.142-0.263
	c-0.282,0.081-0.606,0.102-0.843,0.255c-1.06,0.693-2.13,1.38-3.132,2.153c-0.841,0.649-1.597,1.411-2.379,2.134
	c-0.278,0.258-0.507,0.552-0.055,0.92C85.801,76.843,88.062,75.219,90.395,73.682z M124.274,73.926
	c-0.936-1.594-2.308-2.616-4.099-3.16c-0.181,0.233-0.319,0.412-0.578,0.747C121.273,72.216,122.596,73.344,124.274,73.926z
	 M90.814,74.856c-1.534,0.246-4.771,3.667-4.987,5.181C87.568,78.229,89.191,76.543,90.814,74.856z M121.099,69.891
	c0.774,0.468,1.44,0.936,2.162,1.288c0.728,0.356,1.248,1.161,2.353,1.125c-0.785-1.842-2.519-2.234-3.889-3.192
	C121.502,69.39,121.338,69.593,121.099,69.891z M82.639,74.165c0.223,0.245,0.336,0.372,0.423,0.468
	c0.695-0.441,1.321-0.827,1.935-1.23c0.615-0.404,1.237-0.801,1.822-1.248c0.547-0.417,1.375-0.484,1.81-1.519
	C86.273,71.432,84.64,72.912,82.639,74.165z M92.49,83.307c-1.553-0.891-1.623-0.891-2.548-0.05
	c0.429,0.508,0.858,1.016,1.349,1.597c0.442-0.169,0.842-0.321,1.27-0.485C92.534,83.978,92.514,83.663,92.49,83.307z
	 M117.954,81.468c-0.295-0.343-0.466-0.539-0.636-0.736c-0.487,0.116-0.912,0.218-1.27,0.305c-0.385,0.622-0.717,1.16-1.066,1.726
	C116.644,83.812,116.92,82.053,117.954,81.468z M89.551,93.447c0.41-0.191,0.757-0.56,0.76-1.222
	c-0.537-0.082-1.006-0.153-1.549-0.236c-0.304,0.247-0.625,0.509-0.983,0.799C88.438,93.033,88.93,93.216,89.551,93.447z
	 M125.105,69.869c0.092-0.08,0.183-0.16,0.275-0.24c0.074-0.893-0.627-1.218-1.279-1.653c-0.201,0.154-0.377,0.289-0.707,0.542
	C124.022,69.015,124.564,69.441,125.105,69.869z M115.369,91.825c0.939,1.133,0.953,1.137,1.899,0.646
	c-0.388-0.416-0.754-0.811-1.164-1.252C115.82,91.453,115.619,91.62,115.369,91.825z M116.437,90.816
	c0.873,1.034,0.877,1.034,1.889,0.597c-0.393-0.353-0.735-0.661-1.087-0.978C116.948,90.572,116.743,90.671,116.437,90.816z
	 M90.719,94.116c0.319-0.017,0.539-0.026,0.82-0.04c0.097-0.415,0.182-0.777,0.287-1.229C90.913,92.847,90.638,93.234,90.719,94.116
	z M119.989,83.509c0.63,0.034,1.327,0.217,1.718-0.649C120.927,82.68,120.373,82.84,119.989,83.509z M120.324,81.325
	c1.176,0.349,1.344,0.216,1.204-0.783C121.099,80.822,120.712,81.073,120.324,81.325z"/>
<path fill-rule="evenodd" clip-rule="evenodd" fill="#e3a13b" class="fill" d="M70.04,123.173c0.163-0.444,0.268-0.729,0.411-1.118
	c-1.377-0.713-3.32-0.402-3.851-2.399c0.315-0.266,0.697-0.587,1.221-1.027c-0.581-0.423-1.026-0.745-1.304-0.948
	c-0.34-0.977-0.622-1.79-0.912-2.627c0.054-0.677,0.111-1.397,0.174-2.19c1.205,0.146,1.86,1.064,2.664,1.706
	c1.697,1.355,3.311,2.818,5.021,4.159c0.764,0.6,1.677,1.01,2.675,1.596c-0.17,0.946-0.348,1.937-0.541,3.016
	C73.71,123.75,71.921,123.74,70.04,123.173z"/>
<path fill-rule="evenodd" clip-rule="evenodd" fill="#e3a13b" class="fill" d="M113.865,100.164c-0.02,0.4-0.031,0.632-0.045,0.917
	c-0.848-0.188-1.615-0.354-2.439-0.535c-0.236,0.59-0.413,1.031-0.631,1.576c-0.766-0.123-1.517-0.242-2.438-0.39
	c-0.318,0.316-0.712,0.708-1.184,1.178c-0.606-0.121-1.314-0.264-2.271-0.455c-0.303,0.397-0.646,0.849-1.023,1.345
	c-0.512-0.188-1.001-0.368-1.592-0.584c-0.479,0.276-0.999,0.575-1.607,0.926c-0.324-0.224-0.686-0.472-1.027-0.707
	c-0.878-0.311-1.495,0.242-2.164,0.711c-0.402-0.622-0.748-1.157-1.137-1.756c-0.592,0.22-1.118,0.415-1.742,0.645
	c-0.429-0.703-0.857-1.407-1.354-2.222c1.006-0.292,2.053-0.597,3.016-0.877c1.796,1.175,2.017,1.744,5.138,0.956
	c1.756,0.623,2.238,0.589,4.021-0.312c1.749,0.146,3.492,0.071,4.938-1.473C111.486,99.454,112.678,99.81,113.865,100.164z"/>
<path fill-rule="evenodd" clip-rule="evenodd" fill="#e3a13b" class="fill" d="M95.898,96.384c-0.019,0.293-0.015,0.454-0.04,0.61
	c-0.024,0.156-0.077,0.308-0.143,0.552c-2.293,0.3-4.576,0.597-6.917,0.902c-0.117-0.664-0.207-1.171-0.313-1.769
	c-0.537,0.063-1.005,0.117-1.538,0.18c-0.032-0.26-0.06-0.48-0.106-0.853C89.885,96.141,92.854,95.585,95.898,96.384z"/>
<path fill-rule="evenodd" clip-rule="evenodd" fill="#e3a13b" class="fill" d="M110.903,96.617c0-0.34,0-0.532,0-0.855
	c2.367-0.604,4.739-1.099,7.142-1.069c0.139,0.767,0.258,1.426,0.396,2.196C115.934,97.155,113.485,96.811,110.903,96.617z"/>
<path fill-rule="evenodd" clip-rule="evenodd" fill="#e3a13b" class="fill" d="M116.398,99.554c-2.087,0.082-3.774-0.701-5.582-1.355
	c0.798-0.779,1.415-0.795,5.384-0.228C116.262,98.461,116.327,98.987,116.398,99.554z"/>
<path fill-rule="evenodd" clip-rule="evenodd" fill="#e3a13b" class="fill" d="M91.142,100.854c-0.182-0.676-0.323-1.208-0.512-1.91
	c1.726-0.191,3.322-0.369,4.954-0.551c0.107,0.252,0.182,0.425,0.312,0.731C94.332,99.694,92.822,100.243,91.142,100.854z"/>
<path fill-rule="evenodd" clip-rule="evenodd" fill="#e3a13b" class="fill" d="M103.356,98.948c0.413,0.449,0.653,0.709,0.94,1.021
	c-0.461,0.576-0.973,0.479-1.683,0.231C102.854,99.798,103.059,99.451,103.356,98.948z"/>
<path fill-rule="evenodd" clip-rule="evenodd" fill="#e3a13b" class="fill" d="M87.27,102.12c0.352-0.669,1.229-1.046,2.193-1.026
	C88.919,101.908,88.059,101.748,87.27,102.12z"/>
<path fill-rule="evenodd" clip-rule="evenodd" fill="#e3a13b" class="fill" d="M115.185,86.583c-0.315,1.147-0.625,2.277-0.889,3.243
	c-1.986,1.922-4.534,1.552-6.395-1.143c0.276-1.104,0.656-2.172,1.741-2.735c0.333,1.344,0.569,2.619,0.977,3.838
	c0.311,0.929,0.734,1.041,1.688,0.762c0.628-1.565-0.057-4.272-1.438-5.256C112.553,84.863,113.826,85.401,115.185,86.583z"/>
<path fill-rule="evenodd" clip-rule="evenodd" fill="#e3a13b" class="fill" d="M93.95,90.766c-1.802-0.341-1.543-1.926-1.827-3.182
	c1.111-0.92,1.822-1.122,2.869-0.896C94.657,87.998,94.32,89.314,93.95,90.766z"/>
<path fill-rule="evenodd" clip-rule="evenodd" fill="#e3a13b" class="fill" d="M98.629,89.949c-0.811,0.639-1.516,1.257-2.492,1.02
	c0.158-1.305,0.311-2.573,0.472-3.912C97.971,87.5,98.275,88.675,98.629,89.949z"/>
</svg>
