<svg version="1.1" id="svg" xmlns="http://www.w3.org/2000/svg" xmlns:xlink="http://www.w3.org/1999/xlink" x="0px" y="0px"
	 width="200px" height="200px" viewBox="0 0 200 200" enable-background="new 0 0 200 200" xml:space="preserve">
<path class="stroke" fill="#580f12"  fill-rule="evenodd" clip-rule="evenodd" d="M110.812,141.668c-0.668,2.349-1.461,4.615-1.939,6.946
	c-0.594,2.896-1.13,5.834-1.329,8.778c-0.312,4.625-0.346,9.27,0.159,13.898c0.322,2.953,0.699,5.903,0.917,8.864
	c0.099,1.337-0.026,2.714-0.241,4.042c-0.182,1.127-0.604,1.331-1.729,1.176c-0.379-0.052-0.786-0.185-1.098-0.399
	c-1.211-0.837-2.39-1.723-3.521-2.546c-0.377,0.508-0.743,1.204-1.295,1.69c-0.68,0.6-1.443,0.504-2.083-0.215
	c-0.779-0.876-1.579-1.733-2.491-2.731c-0.525,1.107-0.999,2.106-1.517,3.198c-0.265,0.129-0.61,0.297-0.997,0.485
	c-0.993-0.869-1.94-1.698-2.911-2.546c-0.371,0.43-0.736,0.916-1.166,1.336c-0.538,0.524-1.095,0.576-1.647-0.046
	c-1.218-1.374-1.979-2.919-2.104-4.788c-0.185-2.751-0.52-5.493-0.659-8.247c-0.172-3.419-0.218-6.845-0.301-10.268
	c-0.059-2.427-0.132-4.855-0.124-7.283c0.016-4.463,0.003-8.929,0.175-13.387c0.077-1.981,0.532-3.955,0.885-5.918
	c0.568-3.162,1.185-6.314,1.802-9.466c0.133-0.68,0.357-1.342,0.529-1.975c-0.697-1.119-1.504-2.137-2.011-3.286
	c-0.985-2.238-1.841-4.536-2.681-6.835c-1.959-5.366-2.273-10.948-2.008-16.583c0.143-3.015,0.272-6.044,0.692-9.027
	c0.455-3.237,1.413-6.363,2.887-9.324c1.631-3.278,3.705-6.216,6.08-8.997c1.422-1.664,2.936-3.042,5.173-3.646
	c-0.219-1.322-0.512-2.56-0.617-3.813c-0.36-4.318-0.824-8.638-0.933-12.964c-0.139-5.546-0.085-11.103,0.103-16.646
	c0.119-3.501,0.395-7.031,1.667-10.368c0.366-0.958,0.82-1.881,1.203-2.751c0.585-0.206,1.065-0.375,1.547-0.545
	c1.527,0.493,2.308,1.66,2.729,3.238c1.186-1.102,2.401-1.857,4.03-2.072c0.554,0.913,1.07,1.764,1.581,2.606
	c1.028-0.593,1.965-1.143,2.912-1.675c0.899-0.504,1.47-0.238,1.744,0.745c0.361,1.298,0.759,2.585,1.181,4.013
	c1.827-0.899,3.263-2.284,5.309-2.173c0.365,0.182,0.729,0.363,0.882,0.439c-0.344,6.195-0.81,12.201-0.977,18.216
	c-0.167,6.026-0.037,12.061-0.037,17.938c1.675,0.625,3.065,1.116,4.435,1.661c3.136,1.245,6.081,2.83,8.886,4.724
	c2.074,1.401,3.563,3.227,4.849,5.32c1.892,3.081,3.254,6.375,3.78,9.932c0.641,4.335,0.373,8.666-1.021,12.852
	c-0.513,1.539-1.361,2.963-1.962,4.477c-0.203,0.512-0.281,1.189-0.128,1.705c1.071,3.616,2.112,7.248,3.374,10.8
	c1.089,3.067,1.203,6.215,0.912,9.337c-0.285,3.058-0.696,6.205-1.725,9.071c-1.983,5.526-5.479,10.004-10.977,12.52
	c-2.798,1.28-5.785,1.844-8.911,1.745c-2.767-0.088-5.5-0.227-8.143-1.138C111.683,141.663,111.36,141.706,110.812,141.668z
	 M103.514,98.053c0.121,0.026,0.243,0.054,0.364,0.081c0.68-0.668,1.359-1.336,2.146-2.109c-0.719-1.43-1.428-2.839-2.137-4.25
	c-0.125,0.032-0.25,0.063-0.373,0.096C103.514,93.931,103.514,95.991,103.514,98.053z"/>
<path fill-rule="evenodd" clip-rule="evenodd" fill="#de4555" class="fill" d="M100.261,73.266c-0.917-4.566-1.818-9.05-2.695-13.418
	c3.448-3.089,5.854-6.702,8.316-10.258c2.463-3.559,4.368-7.397,5.865-11.483c1.477-4.029,2.201-8.242,3.215-12.386
	c0.092,0.023,0.184,0.046,0.274,0.069c0,1.539,0.071,3.083-0.015,4.617c-0.154,2.723-0.47,5.436-0.597,8.158
	c-0.227,4.877-0.333,9.76-0.56,14.637c-0.055,1.188-0.229,2.367-0.852,3.485c-1.666,2.987-2.971,6.204-4.871,9.025
	C106.304,68.737,103.697,71.356,100.261,73.266z"/>
<path fill-rule="evenodd" clip-rule="evenodd" fill="#de4555" class="fill" d="M88.106,178.186c0-1.176,0.042-2.354-0.008-3.527
	c-0.155-3.698-0.249-7.402-0.556-11.089c-0.208-2.506,0.513-4.59,2.097-6.454c2.192-2.58,4.531-5.01,7.065-7.269
	c1.651-1.472,3.382-2.744,5.441-3.54c0.881-0.34,1.798-0.583,2.841-0.916c-1.258,5.303-1.684,10.462-1.385,15.773
	c-3.401,1.86-6.493,4.23-9.313,6.99c-2.896,2.832-4.743,6.244-5.894,10.097C88.3,178.229,88.203,178.207,88.106,178.186z"/>
<path fill-rule="evenodd" clip-rule="evenodd" fill="#de4555" class="fill" d="M111.318,96.235c2.59-3.113,5.108-6.139,7.663-9.21
	c6.903,0.716,13.285-0.748,19.089-4.576c0.812,1.204-0.43,9.124-1.934,12.024c-1.523,0.952-3.163,1.976-4.504,2.814
	c-6.595,0.883-12.825,0.415-19.038-0.471C112.166,96.756,111.774,96.45,111.318,96.235z"/>
<path fill-rule="evenodd" clip-rule="evenodd" fill="#de4555" class="fill" d="M129.369,137.219c-8.316-3.472-12.364-9.685-12.179-18.661
	c0.831-0.522,1.639-1.124,2.532-1.534c0.305-0.141,1.03,0.061,1.225,0.341c1.88,2.723,4.699,3.92,7.698,4.773
	c2.01,0.572,4.072,1.006,6.191,0.756c1.042-0.122,2.073-0.325,3.114-0.493C138.202,127.577,134.555,134.251,129.369,137.219z"/>
<path fill-rule="evenodd" clip-rule="evenodd" fill="#de4555" class="fill" d="M110.562,23.091c0.739,1.63,1.385,3.053,2.302,5.077
	c-0.202,0.986-0.371,2.657-0.897,4.206c-1.022,3.006-2.159,5.98-3.407,8.9c-1.446,3.384-3.417,6.484-5.641,9.413
	c-1.393,1.834-2.854,3.617-4.28,5.426c-0.277,0.351-0.542,0.712-0.812,1.068c-0.119-0.056-0.239-0.112-0.358-0.168
	c-0.117-1-0.278-1.996-0.341-2.999c-0.126-2.02-0.197-4.042-0.295-6.063c-0.082-1.688-0.215-3.375-0.232-5.063
	c-0.005-0.487,0.182-1.088,0.496-1.451c1.596-1.848,3.272-3.625,4.899-5.447c1.362-1.524,2.065-3.403,2.76-5.283
	c0.679-1.839,1.369-3.674,2.053-5.509c1.595,0.574,1.834,0.477,2.837-1.001C109.887,23.838,110.197,23.526,110.562,23.091z"/>
<path fill-rule="evenodd" clip-rule="evenodd" fill="#de4555" class="fill" d="M110.68,136.606c-3.383-6.799-4.647-13.749-2.909-21.275
	c2.592,1.151,5.062,2.249,7.786,3.459c0.086,0.717,0.278,1.79,0.333,2.87c0.225,4.392,1.803,8.192,4.897,11.327
	c1.231,1.247,2.485,2.482,3.832,3.597c0.769,0.636,1.748,1.018,2.8,1.609c-1.313,0.682-2.434,1.052-3.732,0.914
	c-0.771-0.081-1.569,0.129-2.35,0.094c-2.863-0.128-5.652-0.63-8.313-1.751C112.221,137.111,111.381,136.855,110.68,136.606z"/>
<path fill-rule="evenodd" clip-rule="evenodd" fill="#de4555" class="fill" d="M96.078,126.976c-0.825-0.923-1.59-1.651-2.204-2.491
	c-1.585-2.17-3.154-4.356-4.623-6.606c-0.706-1.08-1.221-2.297-1.718-3.496c-0.179-0.433-0.106-0.997-0.06-1.492
	c0.519-5.655,2.068-10.947,5.789-15.375c1.487-1.771,3.039-3.533,5.214-4.741c0.158,1.157,0.293,2.25,0.459,3.337
	c0.332,2.184,0.715,4.359,0.995,6.549c0.062,0.484-0.068,1.123-0.356,1.505c-2.472,3.275-3.505,7.07-4.12,11.03
	c-0.564,3.633,0.015,7.194,0.648,10.753c0.032,0.179,0.063,0.358,0.083,0.538C96.191,126.542,96.162,126.602,96.078,126.976z"/>
<path fill-rule="evenodd" clip-rule="evenodd" fill="#de4555" class="fill" d="M85.997,110.635c-0.275-1.314-0.643-2.617-0.808-3.945
	c-0.339-2.733-0.588-5.479-0.843-8.221c-0.23-2.475,0.429-4.731,1.816-6.775c1.529-2.252,3-4.549,4.641-6.718
	c2.247-2.971,5.177-5.163,8.678-7.032c0.516,1.63,1.091,3.179,1.458,4.774c0.114,0.499-0.376,1.116-0.518,1.696
	c-0.515,2.104-0.999,4.217-1.51,6.391c-3.699,1.846-6.361,4.874-8.633,8.313c-2.304,3.488-3.031,7.522-3.919,11.502
	C86.238,110.625,86.118,110.63,85.997,110.635z"/>
<path fill-rule="evenodd" clip-rule="evenodd" fill="#de4555" class="fill" d="M98.648,129.56c-1.645-4.374-2.568-8.373-2.088-12.492
	c0.472-4.051,1.435-8.009,4.116-11.423c1.205,3.3,3.221,5.969,5.806,8.246c-1.902,7.426-0.857,14.514,1.829,21.523
	C104.565,133.947,101.158,132.042,98.648,129.56z"/>
<path fill-rule="evenodd" clip-rule="evenodd" fill="#de4555" class="fill" d="M105.199,86.95c-1.906-3.414-3.051-7.439-4.253-11.312
	c2.579-2.519,5.208-4.915,7.631-7.503c2.416-2.579,3.576-5.97,5.43-9.285c0.21,1.298,0.356,2.321,0.545,3.336
	c0.499,2.674,0.947,5.361,1.558,8.01c0.312,1.353-0.306,2.37-0.833,3.427c-2.121,4.253-4.681,8.222-7.944,11.698
	C106.727,85.966,105.911,86.416,105.199,86.95z"/>
<path fill-rule="evenodd" clip-rule="evenodd" fill="#de4555" class="fill" d="M104.437,102.364c1.853-1.651,3.602-3.21,5.368-4.785
	c2.238,1.064,4.673,1.436,7.147,1.581c2.778,0.163,5.56,0.31,8.342,0.379c2.844,0.072,5.616-0.327,8.194-1.642
	c0.069-0.035,0.162-0.023,0.398-0.053c-0.956,1.116-1.779,2.181-2.71,3.142c-1.854,1.914-3.664,3.897-5.709,5.589
	c-0.849,0.703-2.245,0.967-3.41,1.017c-2.252,0.095-4.526-0.017-6.776-0.209c-1.801-0.155-3.611-0.441-5.364-0.88
	c-1.901-0.475-3.57-1.491-4.924-2.936C104.728,103.285,104.645,102.83,104.437,102.364z"/>
<path fill-rule="evenodd" clip-rule="evenodd" fill="#de4555" class="fill" d="M98.48,135.089c2.738,1.885,5.411,3.725,8.211,5.653
	c-0.316,1.448-0.748,2.917-2.871,3.444c-4.264,1.059-7.718,3.553-10.698,6.73c-1.689,1.802-3.375,3.607-5.211,5.569
	c-0.062-0.526-0.159-0.919-0.146-1.309c0.107-2.995,0.296-5.989,0.33-8.985c0.015-1.271,0.69-2.167,1.301-3.116
	c1.968-3.058,4.692-5.341,7.698-7.313C97.52,135.483,98.015,135.312,98.48,135.089z"/>
<path fill-rule="evenodd" clip-rule="evenodd" fill="#de4555" class="fill" d="M104.313,180.85c-1.096-0.906-2.053-1.697-3.104-2.567
	c-0.636,0.977-1.202,1.844-1.758,2.697c-1.318-0.288-2.004-1.125-2.6-2.115c-0.321-0.536-0.562-1.271-1.646-1.105
	c-0.547,0.856-1.157,1.808-1.781,2.785c-1.406-0.253-1.682-1.792-2.749-2.514c-0.238,0.256-0.429,0.459-0.619,0.664
	c2.086-7.286,7.222-11.903,13.586-15.72C103.869,168.985,104.086,174.777,104.313,180.85z"/>
<path fill-rule="evenodd" clip-rule="evenodd" fill="#de4555" class="fill" d="M137.972,80.681c-5.264,3.808-11.277,4.91-17.67,4.613
	c0.742-1.883,1.427-3.62,2.228-5.65c4.425-1.977,8.089-5.207,9.562-10.437C134.863,70.38,138.105,76.664,137.972,80.681z"/>
<path fill-rule="evenodd" clip-rule="evenodd" fill="#de4555" class="fill" d="M121.6,116.018c0.853-1.606,1.58-2.977,2.306-4.344
	c4.434,1.464,9.032,2.087,13.884,0.994c0.641,2.567,0.753,5.127,0.325,7.989c-1.259,0.213-2.604,0.452-3.955,0.663
	c-2.046,0.32-3.928-0.445-5.87-0.873c-1.564-0.345-3.029-0.848-4.221-1.926C123.162,117.7,122.344,116.778,121.6,116.018z"/>
<path fill-rule="evenodd" clip-rule="evenodd" fill="#de4555" class="fill" d="M84.513,90.588c0.292-1.652,0.534-3.314,0.887-4.953
	c0.696-3.235,1.548-6.426,3.219-9.328c1.855-3.222,4.22-5.99,7.267-8.151c0.145-0.102,0.307-0.181,0.652-0.384
	c0.829,2.975,1.634,5.86,2.466,8.843c-2.93,1.767-5.877,3.438-8.12,6.08c-2.163,2.547-4.382,5.039-5.875,8.091
	C84.843,90.72,84.678,90.654,84.513,90.588z"/>
<path fill-rule="evenodd" clip-rule="evenodd" fill="#de4555" class="fill" d="M121.849,77.852c-0.26-0.628-0.591-1.138-0.678-1.686
	c-0.615-3.891-1.188-7.788-1.756-11.686c-0.13-0.89-0.194-1.789-0.287-2.666c1.463-0.417,9.802,3.924,11.802,6.061
	C129.836,72.859,126.569,75.85,121.849,77.852z"/>
<path fill-rule="evenodd" clip-rule="evenodd" fill="#de4555" class="fill" d="M108.668,94.228c-0.974-1.814-1.8-3.354-2.695-5.021
	c4.287-4.327,7.884-9.119,10.538-14.592c0.101,0.02,0.201,0.039,0.302,0.058c0.243,0.974,0.501,1.944,0.728,2.922
	c0.272,1.181,0.38,2.42,0.807,3.54c0.582,1.525,0.013,2.633-0.918,3.711c-2.218,2.566-4.418,5.148-6.674,7.681
	C110.213,93.135,109.481,93.575,108.668,94.228z"/>
<path fill-rule="evenodd" clip-rule="evenodd" fill="#de4555" class="fill" d="M96.765,38.887c0.617-5.951,0.66-11.949,2.238-17.788
	c0.937,1.789,1.405,3.79,2.767,5.229c0.211,0,0.308,0.02,0.392-0.004c0.23-0.066,0.456-0.151,0.581-0.193
	c0.656-1.487,1.272-2.884,1.931-4.375c0.771,0.589,0.81,1.216,0.622,1.822c-1.076,3.472-2.072,6.992-4.005,10.112
	C100.085,35.632,98.752,37.509,96.765,38.887z"/>
<path fill-rule="evenodd" clip-rule="evenodd" fill="#de4555" class="fill" d="M134.754,102.097c1.019,2.872,2.176,5.708,2.735,8.812
	c-4.265,1.461-8.311,0.487-12.595-0.27C128.292,107.696,131.472,104.941,134.754,102.097z"/>
<path fill-rule="evenodd" clip-rule="evenodd" fill="#de4555" class="fill" d="M97.235,133.873c-3.2,1.849-6.098,4.223-8.776,7.312
	c-0.111-5.3,0.723-10.157,2.048-14.943c0.119-0.028,0.238-0.057,0.356-0.086c0.402,0.496,0.801,0.995,1.208,1.486
	C93.757,129.679,95.445,131.713,97.235,133.873z"/>
<path fill-rule="evenodd" clip-rule="evenodd" fill="#de4555" class="fill" d="M122.082,109.354c-1.398,1.502-2.928,3.181-4.512,4.806
	c-0.202,0.207-0.692,0.222-1.036,0.19c-2.641-0.249-5.04-1.102-7.21-2.69c-1.472-1.077-2.783-3.158-3.307-4.995
	C111.235,109.41,116.827,109.254,122.082,109.354z"/>
</svg>
