<svg version="1.1" id="svg" xmlns="http://www.w3.org/2000/svg" xmlns:xlink="http://www.w3.org/1999/xlink" x="0px" y="0px"
	 width="200px" height="200px" viewBox="0 0 200 200" enable-background="new 0 0 200 200" xml:space="preserve">
<path class="stroke" fill="#6a2906"  d="M195.667,87.915c-1.175-1.507-2.248-3.094-3.436-4.591c-2.658-3.351-5.324-6.698-8.057-9.989
	c-3.031-3.65-6.108-7.263-9.226-10.838c-1.908-2.187-4.005-4.21-5.885-6.418c-3.116-3.663-6.153-7.396-9.172-11.14
	c-2.192-2.719-4.319-5.49-6.442-8.264c-2.083-2.723-4.125-5.479-6.249-8.307c-1.758-0.057-3.274-0.151-4.79-0.146
	c-3.295,0.01-6.591,0.16-9.885,0.092c-6.466-0.135-12.93-0.374-19.395-0.578c-7.382-0.233-14.755-0.155-22.127,0.396
	c-3.94,0.295-7.895,0.468-11.845,0.55c-4.015,0.083-8.034-0.012-11.951-0.029c-2.217,1.673-4.332,3.248-6.421,4.854
	c-4.655,3.58-9.22,7.286-13.967,10.739c-6.629,4.823-12.949,9.996-18.988,15.541c-4.615,4.237-9.448,8.236-14.173,12.352
	c-1.224,1.065-2.412,2.17-3.331,2.999c0.178,2.15,0.34,3.849,0.45,5.553c0.089,1.381,0.074,2.769,0.182,4.148
	c0.259,3.35,0.606,6.692,0.837,10.044c0.263,3.807,0.45,7.621,0.644,11.433c0.284,5.601,0.574,11.202,0.806,16.804
	c0.181,4.352,0.194,8.709,0.436,13.056c0.196,3.543,0.621,7.073,0.932,10.466c-0.444,0.484-0.707,0.779-0.979,1.066
	c-2.815,2.966-5.633,5.93-8.447,8.898c-0.865,0.912-1.28,1.972-1.007,3.445c0.535,0.207,1.112,0.555,1.728,0.646
	c1.758,0.263,3.528,0.5,5.302,0.606c3.217,0.193,6.441,0.265,9.66,0.426c1.902,0.095,3.811,0.463,5.698,0.365
	c7.059-0.366,14.103-0.186,21.154,0.165c2.301,0.115,4.616-0.024,6.923-0.113c4.08-0.156,8.156-0.405,12.237-0.521
	c1.304-0.037,2.616,0.309,3.927,0.33c6.392,0.106,12.785,0.135,19.177,0.244c4.593,0.078,9.186,0.232,13.779,0.363
	c2.894,0.083,5.788,0.271,8.68,0.26c4.341-0.016,8.682-0.143,13.021-0.264c3.21-0.089,6.417-0.249,9.625-0.369
	c2.498-0.094,4.995-0.229,7.493-0.247c3.617-0.027,7.234,0.083,10.851,0.042c4.025-0.044,8.049-0.22,12.073-0.282
	c3.098-0.049,6.202,0.084,9.296-0.034c4.998-0.193,9.992-0.527,14.824-0.792c0.446-0.488,0.709-0.777,0.974-1.066
	c-0.228-2.632-1.773-4.691-2.79-6.908c0.231-1.028,0.479-1.986,0.657-2.957c0.427-2.332,0.802-4.673,1.235-7.003
	c0.674-3.63,1.446-7.243,2.05-10.885c0.528-3.187,0.917-6.398,1.302-9.607c0.525-4.38,0.97-8.77,1.487-13.152
	c0.264-2.223,0.647-4.432,0.911-6.655c0.452-3.797,0.898-7.594,1.248-11.4C196.812,90.055,196.443,88.91,195.667,87.915z"/>
<path fill-rule="evenodd" clip-rule="evenodd" fill="#ffe861" class="fill" d="M124.149,105.166c1.954-0.115,3.447-0.204,5.106-0.302
	c0.279,1.8,0.536,3.455,0.803,5.184c0.812,0.026,1.441,0.047,2.293,0.076c0.322-5.024-0.242-9.945,0.014-14.895
	c1.66-1.978,0.595-4.378,1.022-6.47c-3.006-2.927-4.846-4.125-6.196-4.024c-0.709,0.956-0.488,2.088-0.508,3.196
	c-0.046,2.491-0.152,4.979-0.241,7.726c-1.567,0.088-3.029,0.17-4.568,0.255c-0.957-3.932-1.854-7.629-2.83-11.641
	c4.968-0.026,9.73-0.052,14.75-0.078c0.836,1.746,1.708,3.504,2.525,5.287c2.5,5.462,4.869,10.987,7.493,16.389
	c4.298,8.846,8.729,17.631,13.161,26.414c2.824,5.596,5.919,11.062,8.567,16.738c1.411,3.025,3.684,3.843,6.603,4.011
	c3.679,0.211,7.355,0.463,11.229,0.709c0.417,0.987,0.922,2.178,1.545,3.652c-0.841,0.07-1.52,0.161-2.199,0.18
	c-4.023,0.115-8.049,0.232-12.073,0.303c-1.048,0.019-2.098-0.164-3.149-0.194c-4.014-0.124-8.028-0.306-12.043-0.304
	c-3.023,0.002-6.046,0.368-9.07,0.372c-7.195,0.01-14.391-0.042-21.586-0.179c-6.471-0.123-12.939-0.519-19.41-0.555
	c-6.006-0.034-12.013,0.291-18.02,0.371c-2.308,0.032-4.617-0.22-6.927-0.261c-1.844-0.032-3.692,0.048-5.538,0.096
	c-1.252,0.032-2.503,0.122-3.756,0.143c-7.851,0.129-15.702,0.281-23.554,0.35c-3.368,0.03-6.738-0.173-10.108-0.179
	c-5.21-0.007-10.422,0.051-15.633,0.106c-2.9,0.03-5.8,0.168-8.699,0.14c-1.161-0.013-2.318-0.341-3.679-0.559
	c1.204-2.13,3.174-3.203,4.586-4.795c1.4-1.578,2.726-3.221,4.154-4.919c4.701-0.046,9.428-0.091,14.413-0.141
	c1.666-1.976,3.503-3.949,5.099-6.102c1.878-2.534,3.522-5.242,5.313-7.843c1.572-2.282,3.164-4.554,4.829-6.769
	c1.343-1.79,2.744-3.544,4.23-5.216c2.953-3.322,5.345-7.017,7.56-10.851c0.821-1.423,1.803-2.757,2.773-4.086
	c2.406-3.294,4.792-6.604,7.296-9.822c1.657-2.128,3.597-4.039,5.242-6.177c1.155-1.503,2.027-3.224,3.029-4.854
	c3.211,0.104,6.29,0.206,9.622,0.313c-2.248,6.075-4.565,11.941-6.586,17.908c-2.008,5.932-3.72,11.963-5.627,18.164
	c-0.884-0.074-1.76-0.147-2.712-0.226c-0.727-1.875-1.148-3.613-0.694-5.5c0.633-2.627,0.199-5.074-1.387-7.577
	c-3.844,1.48-7.463,3.085-9.565,6.878c-0.183,0.331-0.357,0.791-0.274,1.127c0.468,1.896,0.705,3.949,2.927,5.009
	c0.23,2.02,0.4,4.12,0.726,6.198c0.262,1.676,0.827,3.308,1.048,4.986c0.266,2.016,0.333,4.059,0.436,6.092
	c0.043,0.842-0.042,1.69-0.079,2.81c0.832-0.078,1.484-0.138,2.022-0.188c1.589-2.618,1.083-5.544,1.974-8.108
	c0.15,0.001,0.3,0.002,0.451,0.003c0.128,1.616,0.255,3.233,0.396,5.008c0.896-0.193,1.514-0.326,2.277-0.489
	c0.216-1.267,0.424-2.477,0.715-4.188c0.461,1.011,0.735,1.615,1.044,2.294c0.332,0.173,0.718,0.376,1.093,0.571
	c0.205,4.689,0.407,9.296,0.619,14.185c1.409,0.147,2.818,0.292,4.528,0.472c0.253-1.456,0.593-2.774,0.695-4.111
	c0.227-2.963,0.328-5.935,0.499-8.901c0.037-0.651,0.156-1.297,0.272-2.228c10.672-0.714,21.286-1.062,32.002-1.01
	c0.306,5.649,0.597,11.027,0.901,16.654c1.245,0.102,2.528,0.205,4.061,0.329c0.269-1.107,0.621-2.088,0.736-3.097
	c0.488-4.258,0.898-8.524,1.357-12.786c0.041-0.374,0.225-0.732,0.393-1.259c0.851-0.055,1.68-0.109,2.799-0.183
	c0.056,1.882,0.106,3.626,0.162,5.49c0.928,0.355,1.83,0.564,2.745-0.274c0.683-2.749,0.091-5.713,0.959-8.773
	c1.147,1.52,0.232,3.075,0.798,4.518c0.543,0.018,1.092,0.036,1.874,0.061c0.161-1.623,0.312-3.134,0.463-4.645
	c1.136,0.874,0.511,1.929,0.599,2.877c0.09,0.981-0.035,1.98-0.013,2.971c0.022,1.033,0.108,2.065,0.181,3.354
	c0.967-0.243,1.696-0.426,2.5-0.628c0.777-2.879,0.147-5.721,0.271-8.545c0.384-0.296,0.737-0.568,1.197-0.922
	c0.157-4.82,0.315-9.688,0.473-14.498c-2.45-1.534-4.722-2.958-7.25-4.54c-0.269,0.596-0.766,1.245-0.829,1.934
	c-0.149,1.631-0.111,3.283-0.116,4.927c-0.002,1.198,0.408,2.44-0.295,3.553c-0.189-0.024-0.252-0.024-0.31-0.042
	c-0.062-0.02-0.146-0.041-0.173-0.088c-0.095-0.167-0.231-0.343-0.242-0.521C127.307,115.647,125.546,110.575,124.149,105.166z"/>
<path fill-rule="evenodd" clip-rule="evenodd" fill="#ffe861" class="fill" d="M105.388,89.939c0.058-1.761,0.113-3.46,0.176-5.398
	c3.245-0.377,6.444-0.21,9.646-0.392c1.802,2.232,2.055,4.887,2.983,7.454c-3.084,0.271-5.932,0.521-9.1,0.8
	c-0.641,2.849,0.558,5.785,0.605,8.946c3.662,0.408,7.128,1.143,10.604-0.717c2.102,9.323,5.399,18.401,5.771,28.298
	c-1.184-0.039-2.158-0.136-3.125-0.089c-2.567,0.122-5.132,0.405-7.701,0.444c-5.609,0.087-11.22,0.017-16.831,0.103
	c-3.093,0.048-6.184,0.412-9.276,0.4c-4.081-0.015-8.162-0.255-12.243-0.41c-0.25-0.01-0.499-0.119-0.989-0.244
	c1.2-4.271,2.381-8.478,3.565-12.685c0.164,0.024,0.327,0.048,0.49,0.073c0.403,0.89-0.233,1.765-0.334,2.633
	c-0.121,1.045-0.408,2.071-0.626,3.104c-0.203,0.959-0.411,1.919-0.612,2.858c1.95,0.926,8.812,1.216,11.684,0.538
	c2.181-3.893,3.558-7.969,3.234-12.747c-0.625-0.115-1.43-0.342-2.245-0.396c-2.5-0.165-5.002-0.302-7.505-0.362
	c-0.732-0.019-1.473,0.255-2.208,0.395c-0.229-2.045,8.127-23.936,10.623-27.523c2.669-0.117,5.412-0.238,8.317-0.366
	c0.054,1.936,0.106,3.748,0.156,5.513c-1.13,0.937-2.588,1.462-2.592,3.128c2.552,2.039,7.636,1.691,9.832-0.699
	c-0.02-0.211-0.017-0.476-0.073-0.727c-0.071-0.318-0.191-0.625-0.312-1.003C106.683,90.566,106.053,90.261,105.388,89.939z
	 M103.796,119.628c-0.193-3.212-0.403-6.418-0.079-9.738c0.824-0.062,1.474-0.158,2.121-0.151c3.038,0.036,6.076,0.125,9.114,0.136
	c0.818,0.004,1.635-0.202,2.448-0.312c0.515-2.497-0.089-4.364-1.708-5.856c-1.054,0.131-1.966,0.349-2.876,0.34
	c-5.475-0.048-10.951-0.12-16.426-0.243c-3.102-0.069-6.196-0.187-9.162,0.813c-1.069,1.928-1.161,2.604-0.629,4.862
	c3.947,0.916,8.074-0.141,12.247,0.554c0.17,3.541,0.336,6.938,0.494,10.223c-0.999,0.676-1.872,1.167-2.627,1.8
	c-1.308,1.099-1.281,2.158,0.079,3.543c2.337-0.168,4.782-0.235,7.194-0.549c2.043-0.267,2.712-1.343,2.507-3.566
	C105.689,120.932,104.828,120.338,103.796,119.628z M109.919,122.242c3.9-0.23,7.708-0.455,11.516-0.68
	c0.605-3.278-1.003-5.83-1.597-8.871c-3.294,0.25-6.43,0.445-9.555,0.762c-0.543,0.055-1.036,0.616-1.535,0.931
	C109.138,117.005,109.495,119.403,109.919,122.242z"/>
<path fill-rule="evenodd" clip-rule="evenodd" fill="#ffe861" class="fill" d="M19.393,98.901c-1.176-1.647-3.098-0.718-4.341-1.896
	c-0.02-0.221-0.053-0.587-0.104-1.148c1.705-0.241,3.298-0.467,5.235-0.741c-1.617-1.653-3.584-1.154-5.572-1.801
	c0.571-0.374,0.867-0.706,1.208-0.764c1.171-0.198,2.359-0.289,3.537-0.449c0.291-0.039,0.568-0.185,0.908-0.3
	c-0.964-1.112-2.288-1.358-5.415-1.085c-0.057-0.293-0.115-0.598-0.216-1.119c1.649-0.222,3.232-0.435,5.108-0.687
	c-1.63-1.406-3.523-0.801-5.367-1.604c2.052-1.078,3.997-0.882,5.961-1.453c-0.508-0.889-1.187-1.121-2.099-1.047
	c-0.918,0.074-1.846,0.082-2.769,0.073c-0.279-0.003-0.558-0.158-0.996-0.293c1.992-1.455,4.261-0.455,6.449-1.32
	c-2.032-1.224-4.082-0.959-6.006-1.234c-0.007-0.142-0.014-0.284-0.021-0.426c0.928-0.113,1.854-0.275,2.786-0.327
	c0.942-0.053,1.892,0.003,2.852-0.173c-1.525-1.629-3.692-0.947-5.496-1.683c0.011-0.343,0.022-0.654,0.041-1.236
	c4.404-0.126,8.776-0.251,13.222-0.379c0.982,21.968,0.708,43.931,2.402,65.765c-2.204,0.703-9.901,0.387-11.181-0.394
	c1.583-0.441,3.15-0.874,4.712-1.327c0.07-0.021,0.088-0.219,0.226-0.592c-1.809-0.06-3.543-0.116-5.309-0.173
	c-0.142-0.59-0.226-0.944-0.364-1.522c2.027-0.344,3.933-0.667,6.247-1.059c-2.181-1.389-4.445-0.153-6.417-1.149
	c-0.052-0.279-0.118-0.634-0.225-1.204c2.321-0.245,4.518-0.476,6.715-0.707c-2.108-1.288-4.57-0.462-6.877-1.411
	c-0.119-0.451-0.266-1.002-0.44-1.667c1.712-0.392,3.324-0.76,5.285-1.208c-1.934-1.509-3.926,0.012-5.61-1.206
	c-0.042-0.267-0.11-0.7-0.187-1.186c1.662-0.331,3.25-0.649,4.84-0.967c-1.557-1.175-3.461-0.345-5.183-1.369
	c-0.07-0.301-0.183-0.779-0.356-1.514c1.699-0.292,3.262-0.561,4.826-0.83c0.003-0.133,0.006-0.266,0.008-0.398
	c-1.567-0.238-3.136-0.475-4.835-0.733c-0.145-0.418-0.306-0.882-0.574-1.654c2.046-0.286,3.916-0.548,5.785-0.81
	c-0.004-0.18-0.007-0.359-0.01-0.538c-0.944-0.137-1.883-0.313-2.833-0.4c-0.897-0.082-1.803-0.071-2.776-0.102
	c-0.025-0.628-0.041-0.992-0.059-1.444c1.637-0.323,3.18-0.627,4.723-0.931c-0.012-0.195-0.026-0.389-0.04-0.583
	c-1.585-0.052-3.17-0.104-4.825-0.157c-0.058-0.653-0.091-1.023-0.142-1.602c2.104-0.205,4.142-0.405,6.181-0.604
	c0.003-0.143,0.005-0.286,0.008-0.428c-2.091-0.283-4.182-0.566-6.355-0.86c-0.032-0.426-0.06-0.788-0.104-1.367
	c1.672-0.321,3.26-0.626,5.079-0.976c-1.594-1.429-3.51-0.53-5.265-1.139c-0.03-0.565-0.062-1.191-0.108-2.061
	c1.571-0.161,3.021-0.308,4.764-0.486c-1.465-1.283-2.969-0.973-4.596-1.113c-0.041-0.678-0.081-1.351-0.132-2.211
	c1.995-0.238,3.833-0.457,5.672-0.678c-1.661-1.726-3.791-0.678-5.738-1.46c-0.016-0.466-0.036-1.015-0.058-1.679
	C16.602,99.414,17.914,99.173,19.393,98.901z"/>
<path fill-rule="evenodd" clip-rule="evenodd" fill="#ffe861" class="fill" d="M182.287,92.794c3.977,0.13,7.692,0.251,11.675,0.381
	c-0.081,0.846-0.15,1.576-0.221,2.303c-1.571,0.251-3.162-0.515-4.53,0.768c1.219,1.284,2.675,0.347,4.042,0.676
	c-0.012,0.39-0.026,0.799-0.039,1.182c-1.387,0.649-3.168-0.864-4.582,1.157c1.581,0.122,2.798,0.214,4.156,0.318
	c-0.122,0.594-0.233,1.136-0.328,1.601c-1.522,0.537-3.148-0.168-4.565,0.913c1.205,1.282,2.706,0.372,4.031,0.781
	c-0.021,0.643-0.041,1.257-0.058,1.79c-1.533,0.836-3.442-0.344-4.689,0.976c0.015,0.182,0.029,0.363,0.044,0.546
	c1.393,0.116,2.784,0.233,4.32,0.361c-0.151,0.604-0.271,1.083-0.359,1.438c-1.535,0.913-3.479-0.219-4.753,1.337
	c0.612,0.817,1.378,0.538,2.052,0.528c0.707-0.011,1.412-0.113,2.396-0.198c-0.115,1.029-0.205,1.836-0.296,2.663
	c-1.528,0.381-3.269-0.258-4.557,1.489c1.49,0.049,2.7,0.088,4.017,0.132c-0.025,0.774-0.045,1.392-0.06,1.859
	c-1.21,1.299-3.305,0.157-4.432,2.208c1.472-0.035,2.654-0.063,4.017-0.096c-0.077,0.689-0.138,1.235-0.189,1.694
	c-1.646,0.811-3.543,0.042-5.04,1.212c0.832,0.713,0.832,0.713,4.506,0.828c-0.049,0.484-0.096,0.956-0.134,1.329
	c-1.445,0.928-3.48-0.153-4.691,1.976c1.553-0.025,2.813-0.046,4.238-0.07c-0.057,0.685-0.103,1.236-0.143,1.729
	c-1.666,0.542-3.506,0.103-4.956,1.583c1.633,0.925,3.014-0.376,4.618,0.105c-0.053,0.637-0.109,1.32-0.167,2.023
	c-1.566,0.704-3.442-0.036-5.053,1.26c1.566,0.976,3.08,0.154,4.559,0.664c-0.038,0.459-0.076,0.933-0.108,1.333
	c-1.748,0.789-3.833,0.155-5.324,1.815c1.712,1.069,3.196-0.161,4.917,0.019c-0.129,0.818-0.254,1.619-0.348,2.209
	c-1.584,1.102-3.805-0.502-5.107,1.966c1.715-0.049,3.071-0.087,4.701-0.133c-0.071,0.656-0.145,1.318-0.21,1.915
	c-1.632,0.667-3.737-0.289-4.985,2.056c1.754-0.094,3.16-0.168,4.719-0.252c-0.072,0.729-0.134,1.354-0.175,1.778
	c-1.939,0.337-3.718,0.626-5.483,0.988c-0.161,0.034-0.224,0.545-0.387,0.98c1.841,0.059,3.531,0.114,5.35,0.174
	c0.012,0.41,0.022,0.761,0.037,1.261c-4.233,0.282-8.345,0.555-12.581,0.837C175.454,130.296,180.143,111.836,182.287,92.794z"/>
<path fill-rule="evenodd" clip-rule="evenodd" fill="#ffe861" class="fill" d="M30.952,92.654c-0.021-0.844-0.04-1.602-0.06-2.393
	c1.354-1.129,3.276-1.662,3.549-3.778c1.167-0.796,2.341-1.596,4.06-2.768c1-1.227,1.789-3.553,4.06-4.543
	c0.773-0.996,1.536-1.981,2.303-2.969c0.87-0.331,1.723-0.655,2.588-0.983c0.218-0.531,0.413-1.008,0.597-1.455
	c2.686-1.206,4.892-2.876,6.216-5.549c0.482-0.973,1.173-1.684,2.306-1.994c1.465-0.4,2.384-1.485,3.217-2.74
	c0.637-0.96,1.5-1.833,2.425-2.527c1.71-1.283,3.251-2.937,5.779-3.001c0.697-0.943,1.421-1.923,2.261-3.058
	c0.246,0.009,0.74,0.024,1.293,0.042C70.054,57.156,32.873,91.758,30.952,92.654z"/>
<path fill-rule="evenodd" clip-rule="evenodd" fill="#ffe861" class="fill" d="M179.321,101.349c-0.029,0.112-0.108,0.414-0.225,0.854
	c-0.31-0.151-0.587-0.202-0.727-0.368c-1.354-1.618-2.716-3.232-4.016-4.893c-5.326-6.803-10.633-13.622-15.943-20.436
	c-2.631-3.378-5.305-6.724-7.874-10.151c-2.489-3.322-4.872-6.724-7.29-10.099c-1.498-2.089-2.981-4.188-4.458-6.291
	c-0.251-0.36-0.432-0.769-0.739-1.319c0.515-0.104,0.853-0.171,1.259-0.252c1.253,2.086,2.403,4.135,3.69,6.092
	c0.749,1.137,1.767,2.093,2.57,3.198c0.574,0.79,1.083,1.655,1.46,2.554c0.476,1.132,1.192,1.941,2.156,2.724
	c0.979,0.795,1.697,1.967,2.374,3.069c1.446,2.35,2.957,4.576,5.4,6.073c0.777,0.476,1.412,1.417,1.779,2.288
	c1.254,2.965,3.439,5.233,5.407,7.675c0.488,0.605,0.824,1.335,1.001,1.631c1.469,1.041,2.611,1.853,3.756,2.664
	c-0.053,0.042-0.106,0.084-0.159,0.125c1.67,2.148,3.348,4.289,5,6.452c0.228,0.299,0.265,0.739,0.479,1.053
	C175.839,96.352,177.478,98.695,179.321,101.349z"/>
<path fill-rule="evenodd" clip-rule="evenodd" fill="#ffe861" class="fill" d="M136.899,64.435c0.721,1.232,1.438,2.468,2.164,3.697
	c1.511,2.548,3,5.111,4.547,7.637c2.129,3.478,4.207,6.994,6.481,10.377c3.969,5.903,8.102,11.695,12.104,17.576
	c2.447,3.596,4.756,7.286,7.167,10.905c1.717,2.58,3.51,5.109,5.251,7.672c0.235,0.346,0.37,0.76,0.292,1.355
	c-0.295-0.271-0.646-0.5-0.876-0.817c-3.641-5.016-7.241-10.062-10.901-15.063c-5.611-7.668-10.653-15.71-15.755-23.716
	c-3.715-5.828-7.185-11.793-10.434-17.891c-0.252-0.474-0.388-1.009-0.578-1.516C136.539,64.579,136.719,64.507,136.899,64.435z"/>
<path fill-rule="evenodd" clip-rule="evenodd" fill="#ffe861" class="fill" d="M113.777,79.493c0.594,1.14,1.011,1.942,1.581,3.034
	c-0.867,0.132-1.527,0.306-2.191,0.32c-2.767,0.058-5.537,0.01-8.303,0.11c-2.695,0.099-5.384,0.379-8.079,0.484
	c-1.478,0.058-2.964-0.077-4.505-0.128c-0.075-1.627,0.713-2.672,1.428-3.951C100.373,79.405,107.016,79.448,113.777,79.493z"/>
<path fill-rule="evenodd" clip-rule="evenodd" fill="#ffe861" class="fill" d="M77.2,52.771c0.48-0.56,0.678-1.026,0.963-1.087
	c2.753-0.594,5.521-1.122,8.284-1.664c0.127-0.025,0.262-0.013,0.424-0.019c1.432,1.345,3.081,1.44,4.875,0.793
	c1.169-0.421,2.382-0.722,3.543-1.163c1.063-0.403,2.082-0.919,3.075-1.517c1.053-0.428,1.875-0.028,2.464,1.023
	c1.934-0.178,3.819-0.352,5.875-0.542c0.216,0.173,0.565,0.45,0.979,0.779c0.863-0.149,1.767-0.306,2.765-0.479
	c0.277-0.378,0.578-0.79,1.01-1.381c0.717,0.024,1.583-0.06,2.402,0.099c2.713,0.527,5.414,0.538,8.151,0.182
	c1.881-0.245,3.791-0.276,5.686-0.423c1.612-0.124,3.221-0.278,4.849-0.752c0.536,0.342,1.071,0.683,1.936,1.234
	c-0.698,0.101-1.034,0.173-1.372,0.194c-4.074,0.247-8.151,0.46-12.225,0.733c-3.027,0.203-6.052,0.437-9.072,0.735
	c-3.208,0.318-6.408,0.744-9.614,1.095c-2.801,0.307-5.605,0.573-8.408,0.86c-3.209,0.33-6.412,0.708-9.626,0.977
	C82.008,52.63,79.838,52.655,77.2,52.771z"/>
<path fill-rule="evenodd" clip-rule="evenodd" fill="#ffe861" class="fill" d="M76.749,54.749c0.693-0.119,1.383-0.303,2.082-0.345
	c8.952-0.55,17.88-1.281,26.764-2.599c4.363-0.647,8.783-0.967,13.189-1.249c4.931-0.316,9.875-0.438,14.813-0.594
	c0.631-0.02,1.469-0.252,1.994,0.919c-0.774,0.166-1.43,0.352-2.099,0.445c-5.517,0.78-35.413,2.559-36.832,2.203
	C95.078,54.257,80.845,55.34,76.749,54.749z"/>
<path fill-rule="evenodd" clip-rule="evenodd" fill="#ffe861" class="fill" d="M31.674,119.341c-0.069-0.622-0.117-1.057-0.13-1.177
	c10.084-12.748,20.993-24.396,32.204-36.289c0.029,0.924,0.048,1.52,0.065,2.069c-3.434,3.59-6.829,7.097-10.168,10.654
	c-1.353,1.44-2.581,2.996-3.874,4.492c-4.615,5.336-9.229,10.672-13.855,15.998c-1.076,1.238-2.194,2.442-3.313,3.642
	C32.395,118.951,32.083,119.076,31.674,119.341z"/>
<path fill-rule="evenodd" clip-rule="evenodd" fill="#ffe861" class="fill" d="M32.585,139.821c-0.064-1.143-0.127-2.286-0.2-3.595
	c0.961-0.46,1.89-0.904,2.958-1.414c0.185-0.901,0.38-1.853,0.541-2.63c1.672-1.72,3.197-3.417,4.86-4.965
	c1.556-1.45,2.02-3.168,1.777-5.187c-0.141-1.167-0.251-2.337-0.388-3.623c2.317-0.33,4.51-0.642,6.793-0.966
	c0.27-0.583,0.537-1.164,0.799-1.733c0.878-0.466,1.745-0.926,2.61-1.385c-1.605,3.269-4.268,5.707-6.413,8.537
	c-2.151,2.837-4.282,5.689-6.421,8.533c-2.154,2.862-4.308,5.725-6.461,8.588C32.888,139.929,32.737,139.875,32.585,139.821z"/>
<path fill-rule="evenodd" clip-rule="evenodd" fill="#ffe861" class="fill" d="M76.044,133.074c-0.033-0.784-0.056-1.328-0.082-1.932
	c4.665,0.038,9.139,0.095,13.613,0.099c1.448,0.002,2.896-0.188,4.345-0.194c5.215-0.021,10.43,0.028,15.646-0.009
	c2.835-0.021,5.67-0.163,8.505-0.25c1.98-0.062,3.961-0.162,5.941-0.164c0.583-0.002,1.169,0.271,1.725,0.69
	c-5.467,0.819-10.942,0.372-16.392,0.579c-5.467,0.208-10.932,0.447-16.398,0.641C87.416,132.731,81.883,132.89,76.044,133.074z"/>
<path fill-rule="evenodd" clip-rule="evenodd" fill="#ffe861" class="fill" d="M99.349,67.362c1.927-0.242,3.862-0.436,5.779-0.745
	c1.143-0.185,2.257-0.548,3.383-0.832c-0.017-0.158-0.033-0.315-0.049-0.473c3.732,0.122,7.461,0.244,11.193,0.365
	c-0.02-0.123-0.041-0.246-0.062-0.368c0.768-0.428,1.538-0.857,2.559-1.426c0.051-0.12,0.223-0.533,0.419-0.998
	c1.68-0.137,3.358-0.273,5.031-0.41c0.247,0.704,0.452,1.295,0.653,1.873c1.309-0.287,2.494-0.547,3.718-0.814
	c0.687,0.807,1.258,1.476,2.085,2.444c-11.858-0.039-23.223,1.028-34.601,1.807C99.421,67.645,99.385,67.504,99.349,67.362z"/>
<path fill-rule="evenodd" clip-rule="evenodd" fill="#ffe861" class="fill" d="M132.608,68.34c-18.395,1.597-36.843,2.088-55.173,4.139
	c-0.075,0.01-0.187-0.297-0.428-0.707C95.629,70.139,114.04,67.889,132.608,68.34z"/>
<path fill-rule="evenodd" clip-rule="evenodd" fill="#ffe861" class="fill" d="M82.245,113.385c3.43,0.266,6.548,0.507,9.896,0.767
	c-0.156,1.835-0.292,3.422-0.416,4.863c-3.663-0.249-7.042-0.478-10.576-0.719C81.516,116.651,81.855,115.134,82.245,113.385z"/>
<path fill-rule="evenodd" clip-rule="evenodd" fill="#ffe861" class="fill" d="M174.522,126.82c-0.098,0.531-0.25,1.356-0.483,2.628
	c-7.657-10.083-12.879-21.232-20.335-30.809c0.294-0.306,0.331-0.372,0.387-0.395c0.055-0.022,0.157-0.028,0.187,0.005
	c0.214,0.245,0.431,0.49,0.618,0.756C161.388,108.202,167.877,117.399,174.522,126.82z"/>
<path fill-rule="evenodd" clip-rule="evenodd" fill="#ffe861" class="fill" d="M178.6,106.611c-0.602-0.55-0.939-0.761-1.146-1.062
	c-8.269-12.098-18.199-22.921-26.719-34.826c-0.085-0.119,0.001-0.359,0.01-0.656c0.863-0.061,1.131,0.63,1.488,1.092
	c2.752,3.548,5.462,7.128,8.215,10.674c3.319,4.274,6.649,8.54,10.012,12.779c2.338,2.948,4.75,5.839,7.106,8.77
	c0.412,0.51,0.799,1.067,1.056,1.664C178.769,105.385,178.625,105.847,178.6,106.611z"/>
<path fill-rule="evenodd" clip-rule="evenodd" fill="#ffe861" class="fill" d="M79.881,124.046c0.365-1.528,0.648-2.713,0.958-4.011
	c3.497-0.138,6.8-0.055,10.241,0.837c-0.583,1.251-1.124,2.414-1.709,3.669C86.24,124.58,83.2,124.591,79.881,124.046z"/>
<path fill-rule="evenodd" clip-rule="evenodd" fill="#ffe861" class="fill" d="M39.86,113.207c0.322,1.725,0.672,3.443,0.958,5.173
	c0.172,1.042,0.109,2.136,0.385,3.143c0.726,2.636-0.61,4.244-2.748,5.877c-0.537-3.792-1.04-7.348-1.585-11.199
	c0.752-0.92,1.648-2.015,2.545-3.109C39.562,113.13,39.711,113.168,39.86,113.207z"/>
<path fill-rule="evenodd" clip-rule="evenodd" fill="#ffe861" class="fill" d="M62.56,115.631c1.828-2.87,4.646-3.958,7.369-5.393
	c0.906,1.555,1.418,2.978,1.161,4.433c-2.435,1.57-4.728,3.049-7.25,4.676C63.444,118.203,63.015,116.955,62.56,115.631z"/>
<path fill-rule="evenodd" clip-rule="evenodd" fill="#ffe861" class="fill" d="M114.943,53.656c1.342,0.044,2.246,0.074,3.133,0.103
	c0.722,2.351,1.229,8.318,0.845,10.328c-1.11,0.052-2.259,0.104-3.637,0.168C115.168,60.664,115.06,57.286,114.943,53.656z"/>
<path fill-rule="evenodd" clip-rule="evenodd" fill="#ffe861" class="fill" d="M170.183,148.611c-1.803-1.695-2.388-3.1-1.896-5.116
	c0.757-3.103,1.177-6.288,1.75-9.435c0.042-0.238,0.173-0.46,0.354-0.919c0.831,1.05,1.533,1.937,2.418,3.054
	C171.997,140.04,171.135,144.111,170.183,148.611z"/>
<path fill-rule="evenodd" clip-rule="evenodd" fill="#ffe861" class="fill" d="M116.043,138.581c1.241-0.05,2.389-0.097,3.833-0.155
	c-0.397,4.11-0.769,7.942-1.151,11.906c-0.687,0.067-1.248,0.12-1.643,0.158C116.433,150.058,115.776,141.599,116.043,138.581z"/>
<path fill-rule="evenodd" clip-rule="evenodd" fill="#ffe861" class="fill" d="M130.737,36.42c0.029,3.071,0.693,6.103,0.184,9.316
	c-1.142,0.135-2.219,0.263-3.539,0.42c-0.741-3.386,0.043-6.525-0.052-9.848C128.551,36.349,129.547,36.381,130.737,36.42z"/>
<path fill-rule="evenodd" clip-rule="evenodd" fill="#ffe861" class="fill" d="M45.326,97.547c-0.744,0.309-1.396,0.579-2.305,0.956
	c-0.585-3.819-1.143-7.477-1.745-11.403c0.739-0.552,1.568-1.171,2.505-1.87C45.092,89.083,45.576,93.12,45.326,97.547z"/>
<path fill-rule="evenodd" clip-rule="evenodd" fill="#ffe861" class="fill" d="M167.801,125.795c0.401,0.947,0.792,1.452,0.806,1.966
	c0.117,4.715-0.955,9.254-2.03,13.838c-2.07-1.105-2.475-1.916-1.995-3.972c0.821-3.508,1.663-7.011,2.517-10.512
	C167.172,126.812,167.395,126.544,167.801,125.795z"/>
<path fill-rule="evenodd" clip-rule="evenodd" fill="#ffe861" class="fill" d="M70.107,123.256c1.672,0.218,3.079,0.4,4.583,0.595
	c0.197,1.914-0.703,3.48-1.064,5.363c-2.056,0.122-4.05,0.238-6.478,0.383C68.224,127.292,69.118,125.374,70.107,123.256z"/>
<path fill-rule="evenodd" clip-rule="evenodd" fill="#ffe861" class="fill" d="M93.497,66.536c-0.249-3.849-0.477-7.348-0.72-11.082
	c1.201-0.074,2.14-0.131,3.235-0.198c0.601,3.627,0.083,7.083,0.249,10.751C95.443,66.163,94.645,66.316,93.497,66.536z"/>
<path fill-rule="evenodd" clip-rule="evenodd" fill="#ffe861" class="fill" d="M175.726,105.718c0.913,1.188,1.578,2.05,2.29,2.976
	c-0.01,4.138-1.634,7.982-2.181,12.306c-1.32-0.919-1.737-1.866-1.697-3.036c0.02-0.591,0.082-1.181,0.15-1.769
	c0.305-2.605,0.609-5.21,0.939-7.813C175.322,107.624,175.505,106.878,175.726,105.718z"/>
<path fill-rule="evenodd" clip-rule="evenodd" fill="#ffe861" class="fill" d="M127.603,97.119c0.993,1.463,1.89,2.781,2.982,4.39
	c-2.512,0.789-4.688,0.784-7.13,0.816c-0.416-1.565-0.82-3.088-1.289-4.854C124.125,97.346,125.739,97.241,127.603,97.119z"/>
<path fill-rule="evenodd" clip-rule="evenodd" fill="#ffe861" class="fill" d="M32.267,96.939c0.71,4.078,1.819,8.065,1.781,12.335
	c-0.878,0.775-1.748,1.543-2.911,2.57c-0.094-1.045-0.211-1.726-0.208-2.405c0.008-3.552,0.049-7.104,0.075-10.656
	C31.011,97.982,30.985,97.168,32.267,96.939z"/>
<path fill-rule="evenodd" clip-rule="evenodd" fill="#ffe861" class="fill" d="M107.714,63.995c-0.06-3.142-0.12-6.265-0.184-9.629
	c0.984-0.083,1.853-0.156,2.907-0.246c0.658,3.396,0.304,6.617,0.257,9.973C109.603,64.057,108.778,64.03,107.714,63.995z"/>
<path fill-rule="evenodd" clip-rule="evenodd" fill="#ffe861" class="fill" d="M100.689,54.775c0.793-0.012,1.309-0.019,2.005-0.029
	c0.89,3.344,0.368,6.771,0.957,10.386c-1.056,0.207-2.016,0.393-3.187,0.622C100.154,61.949,100.451,58.46,100.689,54.775z"/>
<path fill-rule="evenodd" clip-rule="evenodd" fill="#ffe861" class="fill" d="M32.935,120.667c1.011,2.837,1.765,10.011,1.365,13.142
	c-0.547,0.269-1.177,0.576-1.986,0.974c-0.114-0.711-0.258-1.252-0.28-1.799c-0.141-3.49-0.257-6.979-0.379-10.47
	C31.625,121.659,31.81,120.936,32.935,120.667z"/>
<path fill-rule="evenodd" clip-rule="evenodd" fill="#ffe861" class="fill" d="M31.538,115.51c-0.065-0.279-0.151-0.512-0.169-0.75
	c-0.037-0.518-0.038-1.039-0.053-1.51c1.645-1.187,3.226-2.207,4.175-4.109c0.636-1.274,2.068-2.144,3.11-3.227
	c1.136-1.183,2.361-2.324,2.447-4.038c1.155-1.574,2.679-2.358,4.495-2.745C45.034,100.387,32.736,114.807,31.538,115.51z"/>
<path fill-rule="evenodd" clip-rule="evenodd" fill="#ffe861" class="fill" d="M59.096,81.424c-0.808,0.796-1.439,1.418-2.302,2.269
	c-0.415-3.606-0.784-6.826-1.166-10.157c0.618-0.484,1.229-0.962,1.992-1.558C59.782,74.852,58.937,78.175,59.096,81.424z"/>
<path fill-rule="evenodd" clip-rule="evenodd" fill="#ffe861" class="fill" d="M46.76,97.986c1.492-3.491,11.524-14.481,14.229-15.66
	c0.593-1.012,1.257-2.144,1.989-3.396c0.631-0.356,1.365-0.772,2.183-1.236C64.686,79.168,49.794,95.601,46.76,97.986z"/>
<path fill-rule="evenodd" clip-rule="evenodd" fill="#ffe861" class="fill" d="M77.308,140.383c1.124-0.284,2.051-0.517,3.239-0.815
	c0.131,3.484-0.125,6.705-0.394,9.999c-0.832-0.027-1.462-0.048-2.277-0.074C77.383,146.453,77.754,143.447,77.308,140.383z"/>
<path fill-rule="evenodd" clip-rule="evenodd" fill="#ffe861" class="fill" d="M49.548,101.836c1.388,2.465,2.475,7.591,2.349,10.952
	c-0.121,0.082-0.39,0.274-0.669,0.447c-0.215,0.133-0.444,0.241-0.922,0.498c-0.877-3.381-1.721-6.632-2.555-9.845
	C48.396,103.151,48.907,102.568,49.548,101.836z"/>
<path fill-rule="evenodd" clip-rule="evenodd" fill="#ffe861" class="fill" d="M135.152,121.051c-3.636-1.333-6.478-4.453-4.965-7.32
	c1.748,0.919,3.501,1.841,5.325,2.801C135.746,118.033,135.771,119.486,135.152,121.051z"/>
<path fill-rule="evenodd" clip-rule="evenodd" fill="#ffe861" class="fill" d="M79.814,66.844c-0.194-3.687-0.369-7.019-0.552-10.499
	c0.927-0.1,1.686-0.18,2.717-0.291c0.033,3.577,0.062,6.967,0.093,10.531C81.254,66.678,80.638,66.749,79.814,66.844z"/>
<path fill-rule="evenodd" clip-rule="evenodd" fill="#ffe861" class="fill" d="M62.455,58.99c-0.525-3.469-0.99-6.539-1.461-9.646
	c0.739-0.575,1.342-1.044,2.269-1.764c0.654,3.258,1.244,6.191,1.846,9.196C64.267,57.479,63.534,58.089,62.455,58.99z"/>
<path fill-rule="evenodd" clip-rule="evenodd" fill="#ffe861" class="fill" d="M169.857,112.994c-0.746-1.184-1.261-2.002-1.804-2.864
	c0.661-2.938,1.319-5.868,2.028-9.018c0.81,0.429,1.361,0.722,2.134,1.132c-0.14,1.012-0.252,2.101-0.448,3.174
	c-0.319,1.751-0.665,3.498-1.058,5.233C170.558,111.321,170.244,111.954,169.857,112.994z"/>
<path fill-rule="evenodd" clip-rule="evenodd" fill="#ffe861" class="fill" d="M58.454,63.161c-0.45,0.394-1.003,0.878-1.862,1.629
	c-0.769-3.669-1.419-6.922-1.662-10.438c0.506-0.358,1.066-0.757,1.65-1.172C57.486,55.038,58.335,59.611,58.454,63.161z"/>
<path fill-rule="evenodd" clip-rule="evenodd" fill="#ffe861" class="fill" d="M172.696,116.953c-0.655-0.858-1.31-1.717-1.891-2.479
	c0.782-3.335,1.527-6.512,2.271-9.684c0.371,0.012,0.585-0.037,0.741,0.037c0.224,0.107,0.406,0.304,0.799,0.614
	c-0.474,3.753-0.957,7.575-1.44,11.397C173.016,116.876,172.856,116.915,172.696,116.953z"/>
<path fill-rule="evenodd" clip-rule="evenodd" fill="#ffe861" class="fill" d="M47.067,73.603c-0.643,0.325-1.086,0.55-1.731,0.878
	c-1.206-3.316-0.942-6.646-1.334-9.887c0.594-0.505,1.082-0.918,1.828-1.551C46.825,66.673,47.077,70.11,47.067,73.603z"/>
<path fill-rule="evenodd" clip-rule="evenodd" fill="#ffe861" class="fill" d="M91.913,66.909c0.528,0.428,0.927,0.752,1.257,1.02
	c1.018-0.105,1.913-0.197,3.14-0.324c-1.667,1.03-14.937,2.456-17.829,2.067c0.16-1.277,1.123-1.481,2.132-1.624
	c1.479-0.21,2.978-0.097,4.467-0.217c1.44-0.115,2.828-0.316,4.228-0.616C90.138,67.038,90.999,67.01,91.913,66.909z"/>
<path fill-rule="evenodd" clip-rule="evenodd" fill="#ffe861" class="fill" d="M47.159,81.441c0.6-0.593,1.103-1.094,1.768-1.754
	c0.257,0.613,0.501,1.042,0.62,1.505c0.686,2.671,1.462,5.325,1.365,8.137c-0.032,0.923-0.142,1.705-1.323,2.17
	C48.564,88.25,47.975,84.918,47.159,81.441z"/>
<path fill-rule="evenodd" clip-rule="evenodd" fill="#ffe861" class="fill" d="M66.361,56.312c-0.601-3.45-1.172-6.736-1.808-10.394
	c0.396-0.361,0.86-0.783,1.691-1.537c0.405,1.631,0.735,2.729,0.945,3.849c0.387,2.067,0.779,4.139,1.024,6.226
	C68.397,56.019,67.939,56.392,66.361,56.312z"/>
<path fill-rule="evenodd" clip-rule="evenodd" fill="#ffe861" class="fill" d="M157.936,95.377c-0.442-0.709-0.885-1.419-1.344-2.155
	c0.699-2.952,1.394-5.879,2.122-8.947c1.121,0.382,1.449,1.367,2.188,2.113c-0.824,2.969-1.646,5.93-2.466,8.892
	C158.268,95.312,158.103,95.344,157.936,95.377z"/>
<path fill-rule="evenodd" clip-rule="evenodd" fill="#ffe861" class="fill" d="M53.205,109.414c-0.852-3.293-1.588-6.136-2.398-9.27
	c0.365-0.462,0.917-1.161,1.502-1.899c0.977,1.37,2.292,6,2.665,9.304C54.533,108.015,53.978,108.599,53.205,109.414z"/>
<path fill-rule="evenodd" clip-rule="evenodd" fill="#ffe861" class="fill" d="M31.959,76.458c0.311,1.961,0.633,3.812,0.89,5.671
	c0.162,1.165,0.322,2.346,0.311,3.518c-0.014,1.488-0.458,1.867-2.135,2.197c-0.075-0.166-0.217-0.336-0.223-0.511
	c-0.112-3.078-0.24-6.153-0.284-9.23C30.506,77.425,30.625,76.621,31.959,76.458z"/>
<path fill-rule="evenodd" clip-rule="evenodd" fill="#ffe861" class="fill" d="M103.989,47.509c-0.922,0.085-1.484,0.138-2.002,0.187
	c-0.559-1.297-0.912-8.616-0.51-10.348c0.513-0.059,1.075-0.12,1.816-0.203C103.917,40.58,103.341,43.945,103.989,47.509z"/>
<path fill-rule="evenodd" clip-rule="evenodd" fill="#ffe861" class="fill" d="M90.645,49.585c-0.509,0.099-0.761,0.178-1.016,0.189
	c-0.188,0.008-0.379-0.071-0.818-0.165c-0.788-3.564-0.595-7.309-1.29-11.054c0.479-0.101,0.779-0.2,1.085-0.218
	c0.311-0.02,0.628,0.038,1.1,0.075C90.018,42.126,90.325,45.774,90.645,49.585z"/>
<path fill-rule="evenodd" clip-rule="evenodd" fill="#ffe861" class="fill" d="M88.667,66.129c-0.765,0.032-1.322,0.056-2.082,0.088
	c0.283-3.5-0.797-6.796-0.197-10.24c0.611-0.071,1.102-0.127,1.799-0.208C88.24,59.267,89.31,62.579,88.667,66.129z"/>
<path fill-rule="evenodd" clip-rule="evenodd" fill="#ffe861" class="fill" d="M149.964,95.863c0.44,0.716,0.671,1.092,0.862,1.404
	c-1.021,3.621-1.743,7.227-3.507,10.835c-0.551-0.888-0.918-1.481-1.379-2.224C147.404,102.766,147.88,99.19,149.964,95.863z"/>
<path fill-rule="evenodd" clip-rule="evenodd" fill="#ffe861" class="fill" d="M111.348,36.847c0.678,0.022,1.234,0.04,1.928,0.063
	c0.147,3.093,0.291,6.146,0.442,9.342c-0.962,0.015-1.723,0.027-2.678,0.042C111.143,43.149,111.241,40.138,111.348,36.847z"/>
<path fill-rule="evenodd" clip-rule="evenodd" fill="#ffe861" class="fill" d="M36.421,83.06c-0.519,0.51-0.972,0.954-1.675,1.644
	c-1.085-3.284-0.863-6.446-1.421-9.64c0.573-0.466,1.161-0.942,1.91-1.55C36.439,76.769,35.852,79.967,36.421,83.06z"/>
<path fill-rule="evenodd" clip-rule="evenodd" fill="#ffe861" class="fill" d="M84.577,48.611c-0.862,0.373-1.553,0.672-2.519,1.09
	c-0.243-2.803-0.46-5.324-0.698-8.067c0.906-0.213,1.694-0.398,2.625-0.617C84.713,43.563,84.474,45.994,84.577,48.611z"/>
<path fill-rule="evenodd" clip-rule="evenodd" fill="#ffe861" class="fill" d="M37.033,105.481c-0.454,0.532-0.865,1.013-1.541,1.805
	c-0.65-4.22-1.244-8.075-1.854-12.04c0.341-0.298,0.716-0.625,1.269-1.108C36.355,97.923,36.6,101.703,37.033,105.481z"/>
<path fill-rule="evenodd" clip-rule="evenodd" fill="#ffe861" class="fill" d="M60.608,98.815c-0.457-2.771-0.877-5.333-1.332-8.091
	c0.562-0.564,1.234-1.24,2.13-2.143c0.873,2.838,1.451,5.355,1.18,8.003C62.483,97.586,61.864,98.239,60.608,98.815z"/>
<path fill-rule="evenodd" clip-rule="evenodd" fill="#ffe861" class="fill" d="M108.15,47.819c-0.198-3.599-0.391-7.086-0.591-10.741
	c0.822-0.118,1.429-0.205,2.355-0.338c-0.009,3.764-0.02,7.292-0.029,10.932C109.225,47.728,108.804,47.764,108.15,47.819z"/>
<path fill-rule="evenodd" clip-rule="evenodd" fill="#ffe861" class="fill" d="M50.924,58.227c0.984,3.753,1.661,7.09,1.306,10.998
	c-0.136,0.114-0.522,0.442-1.246,1.055c-0.645-3.769-1.221-7.141-1.809-10.576C49.758,59.212,50.237,58.807,50.924,58.227z"/>
<path fill-rule="evenodd" clip-rule="evenodd" fill="#ffe861" class="fill" d="M125.723,45.841c-0.922-0.03-1.47-0.048-2.254-0.074
	c0.101-3.082,0.197-6.032,0.298-9.16c0.683-0.053,1.298-0.1,2.016-0.154c0.076,0.668,0.193,1.18,0.181,1.688
	C125.904,40.621,125.812,43.098,125.723,45.841z"/>
<path fill-rule="evenodd" clip-rule="evenodd" fill="#ffe861" class="fill" d="M117.75,96.137c-2.476,0.146-4.731,0.28-7.128,0.422
	c-0.171-0.99-0.302-1.744-0.479-2.774c2.23-0.328,4.321-0.635,6.556-0.963C117.064,93.975,117.374,94.948,117.75,96.137z"/>
<path fill-rule="evenodd" clip-rule="evenodd" fill="#ffe861" class="fill" d="M96.526,48.172c-0.799,0.097-1.237,0.15-1.866,0.226
	c-0.616-3.39-0.675-6.714-0.567-10.018c0.267-0.155,0.424-0.289,0.606-0.344c0.247-0.072,0.512-0.084,0.938-0.147
	c0.914,1.584,0.298,3.358,0.555,4.999C96.455,44.564,96.42,46.286,96.526,48.172z"/>
<path fill-rule="evenodd" clip-rule="evenodd" fill="#ffe861" class="fill" d="M55.292,94.755c0.298,0.658,0.503,0.986,0.598,1.344
	c0.556,2.092,1.131,4.181,1.612,6.291c0.395,1.734,0.217,2.132-1.166,3.364c-0.206-0.417-0.457-0.773-0.563-1.168
	c-0.477-1.773-0.898-3.561-1.364-5.337c-0.215-0.816-0.486-1.616-0.797-2.642C54.026,96.149,54.54,95.583,55.292,94.755z"/>
<path fill-rule="evenodd" clip-rule="evenodd" fill="#ffe861" class="fill" d="M111.295,100.313c-0.215-0.803-0.394-1.47-0.604-2.254
	c2.505-0.788,4.934-0.327,7.481-0.679c0.18,0.945,0.333,1.753,0.548,2.875c-1.293,0.066-2.439,0.163-3.585,0.173
	C113.955,100.438,112.774,100.361,111.295,100.313z"/>
<path fill-rule="evenodd" clip-rule="evenodd" fill="#ffe861" class="fill" d="M104.985,65.066c-0.885-3.466-0.455-6.88-0.752-10.081
	c0.262-0.256,0.344-0.411,0.448-0.428c0.445-0.069,0.897-0.098,1.65-0.172c0.082,3.482,0.161,6.862,0.241,10.223
	c-0.348,0.215-0.549,0.388-0.782,0.471C105.623,65.14,105.413,65.08,104.985,65.066z"/>
<path fill-rule="evenodd" clip-rule="evenodd" fill="#ffe861" class="fill" d="M34.248,119.193c0.282-0.314,0.702-0.78,1.383-1.537
	c0.283,1.075,0.557,1.796,0.653,2.542c0.328,2.534,0.589,5.078,0.884,7.618c0.116,0.995-0.005,1.842-1.411,2.164
	C35.261,126.43,34.769,122.913,34.248,119.193z"/>
<path fill-rule="evenodd" clip-rule="evenodd" fill="#ffe861" class="fill" d="M163.008,67.646c-0.435,2.838-0.834,5.449-1.234,8.06
	c-1.355-1.429-2.449-2.866-2.011-4.853c0.349-1.591,0.767-3.167,1.226-5.036C161.747,66.502,162.429,67.12,163.008,67.646z"/>
<path fill-rule="evenodd" clip-rule="evenodd" fill="#ffe861" class="fill" d="M89.38,55.713c0.871-0.062,1.373-0.096,1.794-0.126
	c0.684,0.725,1.034,8.208,0.51,9.859c-0.4,0.036-0.837,0.075-1.514,0.135C89.91,62.318,89.655,59.143,89.38,55.713z"/>
<path fill-rule="evenodd" clip-rule="evenodd" fill="#ffe861" class="fill" d="M114.01,64.103c-0.789-0.025-1.289-0.042-2.047-0.067
	c-0.005-3.299-0.009-6.527-0.015-9.843c0.534-0.111,0.948-0.198,1.548-0.325C113.961,57.281,114.177,60.568,114.01,64.103z"/>
<path fill-rule="evenodd" clip-rule="evenodd" fill="#ffe861" class="fill" d="M144.445,102.648c-0.104-0.524-0.387-1.088-0.282-1.566
	c0.62-2.826,1.322-5.635,2.023-8.443c0.122-0.485,0.373-0.938,0.685-1.701c0.601,0.873,1.036,1.505,1.6,2.323
	c-1.152,3.095-2.331,6.263-3.509,9.43C144.789,102.677,144.617,102.663,144.445,102.648z"/>
<path fill-rule="evenodd" clip-rule="evenodd" fill="#ffe861" class="fill" d="M66.625,83.13c0.876-0.987,1.563-1.76,2.271-2.558
	c0.984,1.292,1.517,3.776,1.334,6.093c-0.562,0.565-1.235,1.242-2.194,2.207C67.509,86.729,67.077,84.972,66.625,83.13z"/>
<path fill-rule="evenodd" clip-rule="evenodd" fill="#ffe861" class="fill" d="M97.448,55.135c0.61-0.072,1.09-0.13,1.842-0.22
	c-0.121,3.675-0.235,7.191-0.357,10.925c-0.245,0.1-0.696,0.283-1.358,0.551C97.19,62.54,97.501,58.888,97.448,55.135z"/>
<path fill-rule="evenodd" clip-rule="evenodd" fill="#ffe861" class="fill" d="M161.886,87.786c0.605,0.74,0.892,1.088,1.268,1.547
	c-0.727,3.207-1.461,6.454-2.278,10.055c-0.673-0.798-1.116-1.321-1.673-1.981C160.053,94.358,160.911,91.282,161.886,87.786z"/>
<path fill-rule="evenodd" clip-rule="evenodd" fill="#ffe861" class="fill" d="M44.042,75.195c-0.576,0.798-1.096,1.518-1.875,2.597
	c-0.46-3.552-0.861-6.648-1.292-9.971c0.416-0.43,0.854-0.882,1.291-1.334c0.188,0.077,0.376,0.155,0.564,0.232
	C43.411,69.487,43.231,72.4,44.042,75.195z"/>
<path fill-rule="evenodd" clip-rule="evenodd" fill="#ffe861" class="fill" d="M95.104,77.78c2.72-1.272,16.309-1.438,18.247-0.335
	c-1.361,1.261-2.905,0.11-4.315,0.393c-1.461,0.292-3.02,0.098-4.537,0.104c-1.516,0.007-3.032,0.018-4.547-0.008
	C98.45,77.908,96.948,77.84,95.104,77.78z"/>
<path fill-rule="evenodd" clip-rule="evenodd" fill="#ffe861" class="fill" d="M117.182,79.363c3.051-0.685,5.755-0.734,8.605,0.02
	c0.385-0.684,0.725-1.287,1.188-2.106c0.564-0.085,1.321-0.197,2.088-0.311c0.844,0.824,1.622,1.583,2.456,2.397
	C127.628,80.238,119.237,80.314,117.182,79.363z"/>
<path fill-rule="evenodd" clip-rule="evenodd" fill="#ffe861" class="fill" d="M164.873,105.354c-0.714-1.014-1.159-1.643-1.589-2.253
	c1.375-2.992,2.599-5.985,3.037-9.646c0.688,0.647,1.069,1.005,1.442,1.355C166.714,98.263,166.375,101.752,164.873,105.354z"/>
<path fill-rule="evenodd" clip-rule="evenodd" fill="#ffe861" class="fill" d="M179.065,98.523c-0.338-0.648-0.921-1.278-0.972-1.949
	c-0.213-2.798,0.256-5.552,0.619-8.308c0.146-0.053,0.292-0.105,0.438-0.157c0.485,0.633,0.97,1.267,1.498,1.956
	c-0.362,2.81-0.718,5.576-1.074,8.344C179.404,98.447,179.235,98.485,179.065,98.523z"/>
<path fill-rule="evenodd" clip-rule="evenodd" fill="#ffe861" class="fill" d="M145.402,88.015c0.101,0.54,0.396,1.131,0.269,1.612
	c-0.799,3.056-1.692,6.089-2.562,9.127c-0.012,0.047-0.102,0.072-0.409,0.275c-0.396-0.784-0.78-1.546-1.208-2.396
	c1.101-2.898,2.189-5.766,3.277-8.633C144.98,88.006,145.191,88.01,145.402,88.015z"/>
<path fill-rule="evenodd" clip-rule="evenodd" fill="#ffe861" class="fill" d="M80.72,49.821c-0.691,0.122-1.228,0.216-1.989,0.351
	c-0.443-3.02-0.763-5.843-0.529-8.869c0.624-0.153,1.15-0.283,1.758-0.433C80.22,43.938,80.463,46.793,80.72,49.821z"/>
<path fill-rule="evenodd" clip-rule="evenodd" fill="#ffe861" class="fill" d="M137.687,87.191c-0.314-0.562-0.628-1.124-0.96-1.721
	c0.696-2.604,1.387-5.188,2.203-8.237c0.667,1.009,1.08,1.633,1.593,2.408c-0.765,2.509-1.541,5.059-2.318,7.609
	C138.031,87.231,137.859,87.211,137.687,87.191z"/>
<path fill-rule="evenodd" clip-rule="evenodd" fill="#ffe861" class="fill" d="M54.298,75.036c0.964,3.086,1.143,6.151,1.183,9.23
	c0.005,0.438-0.151,0.896-0.322,1.309c-0.079,0.19-0.373,0.292-0.669,0.506c-0.161-0.346-0.327-0.558-0.358-0.788
	c-0.364-2.737-0.714-5.475-1.057-8.214C52.97,76.239,53.085,75.488,54.298,75.036z"/>
<path fill-rule="evenodd" clip-rule="evenodd" fill="#ffe861" class="fill" d="M97.313,39.785c0.968-0.013,1.6-0.021,2.17-0.03
	c0.884,2.054,0.997,4.392,0.29,6.465c-0.468,0.169-1.062,0.382-1.967,0.709C97.638,44.482,97.485,42.279,97.313,39.785z"/>
<path fill-rule="evenodd" clip-rule="evenodd" fill="#ffe861" class="fill" d="M155.616,91.736c-0.718-0.933-1.135-1.476-1.585-2.062
	c0.754-2.819,1.498-5.601,2.305-8.623c0.55,0.53,0.952,0.917,1.445,1.393C157.089,85.422,156.406,88.347,155.616,91.736z"/>
<path fill-rule="evenodd" clip-rule="evenodd" fill="#ffe861" class="fill" d="M106.706,47.206c-1.293,0.334-1.576-0.215-1.604-0.842
	c-0.134-3.013-0.215-6.029-0.314-9c0.426-0.158,0.599-0.268,0.775-0.275c0.185-0.007,0.373,0.084,0.832,0.204
	C106.497,40.562,106.602,43.883,106.706,47.206z"/>
<path fill-rule="evenodd" clip-rule="evenodd" fill="#ffe861" class="fill" d="M117.683,46.423c-0.988,0.067-1.687,0.114-2.666,0.18
	c-0.086-2.306-0.168-4.492-0.255-6.77c0.634-0.184,1.179-0.34,1.89-0.546C117.361,41.614,117.526,43.866,117.683,46.423z"/>
<path fill-rule="evenodd" clip-rule="evenodd" fill="#ffe861" class="fill" d="M130.567,52.815c0.172,3.239,0.333,6.244,0.501,9.402
	c-0.631,0.12-1.171,0.224-1.671,0.321c-0.131-0.242-0.241-0.354-0.246-0.471c-0.103-2.371-0.221-4.742-0.274-7.113
	C128.849,53.657,129.016,53.484,130.567,52.815z"/>
<path fill-rule="evenodd" clip-rule="evenodd" fill="#ffe861" class="fill" d="M153.983,77.647c0.45,0.528,0.899,1.054,1.404,1.647
	c-0.663,2.854-1.314,5.655-1.984,8.543c-0.428-0.152-0.618-0.178-0.754-0.279c-0.151-0.113-0.254-0.293-0.467-0.554
	c0.406-3.022,0.822-6.125,1.238-9.228C153.607,77.734,153.796,77.69,153.983,77.647z"/>
<path fill-rule="evenodd" clip-rule="evenodd" fill="#ffe861" class="fill" d="M173.687,81.067c0.572,0.562,0.967,0.952,1.43,1.408
	c-0.277,2.751-0.551,5.469-0.854,8.487c-1.18-0.92-1.829-1.927-1.803-2.979C172.515,85.724,172.825,83.464,173.687,81.067z"/>
<path fill-rule="evenodd" clip-rule="evenodd" fill="#ffe861" class="fill" d="M59.123,105.41c-0.073-0.567-0.146-1.136-0.221-1.706
	c0.569-0.436,1.031-0.792,1.59-1.222c0.134-0.537,0.292-1.165,0.449-1.792c0.067,0.044,0.136,0.087,0.203,0.132
	c2.12-2.962,4.253-5.916,6.347-8.896c0.373-0.529,0.585-1.172,0.901-1.823c0.617-0.454,1.29-0.949,1.963-1.443
	c0.082,0.065,0.164,0.13,0.246,0.196c-0.955,1.352-1.934,2.688-2.861,4.058c-2.211,3.27-4.383,6.563-6.606,9.824
	c-0.625,0.917-1.369,1.754-2.059,2.628L59.123,105.41z"/>
<path fill-rule="evenodd" clip-rule="evenodd" fill="#ffe861" class="fill" d="M132.645,128.004c-1.479-0.048-2.793-0.09-4.34-0.141
	c-0.171-1.425-0.335-2.801-0.517-4.313c0.803-0.092,1.358-0.155,1.936-0.222C131.071,124.601,132.105,125.962,132.645,128.004z"/>
<path fill-rule="evenodd" clip-rule="evenodd" fill="#ffe861" class="fill" d="M167.164,108.565c-0.55-0.665-0.833-1.009-1.229-1.486
	c0.875-3.408,1.764-6.87,2.717-10.58c0.449,0.36,0.712,0.52,0.906,0.742c0.212,0.241,0.359,0.539,0.598,0.915
	c-1.336,1.359-1.232,3.209-1.671,4.885C168.039,104.746,167.661,106.468,167.164,108.565z"/>
<path fill-rule="evenodd" clip-rule="evenodd" fill="#ffe861" class="fill" d="M36.466,92.541c0.23-0.233,0.491-0.5,0.943-0.962
	c0.138,0.293,0.261,0.456,0.293,0.635c0.603,3.294,1.228,6.584,1.748,9.891c0.082,0.517-0.326,1.111-0.507,1.669
	c-0.169-0.018-0.339-0.032-0.509-0.049C37.794,100.085,37.154,96.445,36.466,92.541z"/>
<path fill-rule="evenodd" clip-rule="evenodd" fill="#ffe861" class="fill" d="M62.654,77.171c-0.578-2.641-1.16-5.298-1.757-8.026
	c0.509-0.563,0.971-1.074,1.562-1.728c0.255,0.589,0.494,0.926,0.541,1.287c0.296,2.336,0.559,4.678,0.813,7.02
	C63.89,76.43,63.753,77.042,62.654,77.171z"/>
<path fill-rule="evenodd" clip-rule="evenodd" fill="#ffe861" class="fill" d="M122.157,70.484c-0.081,2.489-0.152,4.684-0.228,6.984
	c-0.68,0.063-1.169,0.108-1.907,0.177c-0.271-2.371-0.02-4.601,0.143-6.976C120.814,70.608,121.364,70.558,122.157,70.484z"/>
<path fill-rule="evenodd" clip-rule="evenodd" fill="#ffe861" class="fill" d="M158.171,110.706c0.655,0.022,1.134,0.037,1.8,0.059
	c-2.995,3.515-2.539,8.332-5.524,11.673c-0.153-0.181-0.427-0.508-0.658-0.783C155.255,117.994,156.68,114.433,158.171,110.706z"/>
<path fill-rule="evenodd" clip-rule="evenodd" fill="#ffe861" class="fill" d="M65.351,65.307c0.993,3.112,0.792,6.224,1.187,9.317
	c-0.448,0.333-0.838,0.622-1.521,1.128c-0.229-2.366-0.432-4.432-0.632-6.499c-0.068-0.713-0.092-1.433-0.208-2.138
	C64.043,66.292,64.247,65.703,65.351,65.307z"/>
<path fill-rule="evenodd" clip-rule="evenodd" fill="#ffe861" class="fill" d="M53.537,66.282c-0.44-3.226-0.856-6.256-1.271-9.295
	c0.36-0.366,0.667-0.679,0.952-0.968c0.215,0.122,0.403,0.167,0.416,0.243c0.449,2.513,0.889,5.028,1.314,7.546
	C55.113,64.789,54.911,65.623,53.537,66.282z"/>
<path fill-rule="evenodd" clip-rule="evenodd" fill="#ffe861" class="fill" d="M176.74,84.581c0.282,0.615,0.83,1.241,0.802,1.842
	c-0.123,2.62-0.41,5.233-0.652,7.848c-0.008,0.085-0.18,0.155-0.451,0.374c-0.374-0.592-0.737-1.168-1.11-1.757
	c0.253-2.754,0.502-5.466,0.752-8.18C176.301,84.666,176.52,84.624,176.74,84.581z"/>
<path fill-rule="evenodd" clip-rule="evenodd" fill="#ffe861" class="fill" d="M59.552,50.826c0.785,3.167,1.704,6.128,1.267,9.273
	c-0.038,0.271-0.518,0.479-1.031,0.924c-0.397-2.194-0.757-4.123-1.093-6.053c-0.135-0.777-0.211-1.564-0.333-2.343
	C58.233,51.803,58.498,51.221,59.552,50.826z"/>
<path fill-rule="evenodd" clip-rule="evenodd" fill="#ffe861" class="fill" d="M91.069,38.302c0.597-0.045,0.908-0.068,1.172-0.089
	c0.132,0.165,0.277,0.26,0.285,0.365c0.222,3.093,0.449,6.188,0.621,9.285c0.025,0.448-0.225,0.911-0.458,1.771
	c-0.467-0.675-0.816-0.95-0.841-1.253C91.565,45.103,91.333,41.821,91.069,38.302z"/>
<path fill-rule="evenodd" clip-rule="evenodd" fill="#ffe861" class="fill" d="M102.151,84.562c0.519-0.031,0.959-0.058,1.616-0.097
	c0.45,2.434,0.331,4.767-0.19,7.307c-0.626-0.172-1.08-0.299-1.541-0.427C101.928,89.005,101.298,86.808,102.151,84.562z"/>
<path fill-rule="evenodd" clip-rule="evenodd" fill="#ffe861" class="fill" d="M164.461,69.726c0.376,0.419,0.754,0.842,1.244,1.389
	c-0.433,2.597-0.87,5.224-1.307,7.85c-0.174,0.025-0.348,0.05-0.523,0.074c-0.27-0.532-0.812-1.09-0.764-1.592
	c0.238-2.477,0.63-4.939,0.98-7.405C164.104,69.954,164.269,69.886,164.461,69.726z"/>
<path fill-rule="evenodd" clip-rule="evenodd" fill="#ffe861" class="fill" d="M162.413,101.52c-0.361-3.611,1.046-6.879,1.701-10.634
	c0.565,0.56,0.893,0.888,1.145,1.137C165.111,95.527,163.891,98.554,162.413,101.52z"/>
<path fill-rule="evenodd" clip-rule="evenodd" fill="#ffe861" class="fill" d="M149.101,71.422c0.684,0.855,1.041,1.304,1.313,1.646
	c-0.633,2.554-1.226,4.938-1.817,7.323c-0.162,0.032-0.324,0.065-0.485,0.097c-0.45-0.728-0.9-1.456-1.259-2.035
	C147.604,76.107,148.292,73.95,149.101,71.422z"/>
<path fill-rule="evenodd" clip-rule="evenodd" fill="#ffe861" class="fill" d="M146.342,68.211c0.719,0.812,1.183,1.336,1.63,1.842
	c-0.634,2.319-1.232,4.506-1.83,6.694c-0.147,0.017-0.294,0.033-0.442,0.05c-0.424-0.777-0.851-1.554-1.217-2.223
	C145.091,72.496,145.653,70.568,146.342,68.211z"/>
<path fill-rule="evenodd" clip-rule="evenodd" fill="#ffe861" class="fill" d="M66.338,119.407c0.908-0.652,1.625-1.167,2.561-1.839
	c0.182,1.831,0.329,3.318,0.462,4.665c-0.622,1.182-1.157,2.203-1.938,3.689C67.02,123.506,66.693,121.541,66.338,119.407z"/>
<path fill-rule="evenodd" clip-rule="evenodd" fill="#ffe861" class="fill" d="M151.476,74.616c0.576,0.721,0.895,1.117,1.245,1.554
	c-1.243,2.578-0.693,5.528-1.901,8.53c-0.617-0.973-1.021-1.611-1.379-2.173C150.111,79.917,150.745,77.458,151.476,74.616z"/>
<path fill-rule="evenodd" clip-rule="evenodd" fill="#ffe861" class="fill" d="M45.167,83.442c0.12-0.078,0.326-0.215,0.552-0.363
	c0.179,0.17,0.407,0.282,0.441,0.437c0.702,3.086,1.388,6.174,2.056,9.268c0.176,0.81-0.19,1.39-1.118,1.942
	C46.454,90.965,45.833,87.333,45.167,83.442z"/>
<path fill-rule="evenodd" clip-rule="evenodd" fill="#ffe861" class="fill" d="M38.388,70.198c0.096-0.082,0.483-0.413,0.822-0.702
	c0.304,0.176,0.497,0.226,0.508,0.303c0.391,2.781,0.795,5.561,1.104,8.351c0.044,0.401-0.378,0.855-0.585,1.284
	c-0.152-0.018-0.305-0.036-0.457-0.055C39.347,76.53,38.916,73.681,38.388,70.198z"/>
<path fill-rule="evenodd" clip-rule="evenodd" fill="#ffe861" class="fill" d="M47.6,61.107c1.84,3.172,2.415,9.302,0.956,10.969
	C48.102,68.403,46.875,65.052,47.6,61.107z"/>
<path fill-rule="evenodd" clip-rule="evenodd" fill="#ffe861" class="fill" d="M120.27,46.483c-0.417,0.134-0.697,0.224-1.185,0.381
	c-0.347-3.322-0.678-6.487-1.028-9.844c0.494-0.117,0.937-0.22,1.602-0.376C119.871,40.055,120.07,43.24,120.27,46.483z"/>
<path fill-rule="evenodd" clip-rule="evenodd" fill="#ffe861" class="fill" d="M153.516,65.758c-2.663-2.802-0.929-5.295,0.129-8.015
	c0.531,0.476,0.951,0.852,1.419,1.272C154.551,61.249,154.049,63.436,153.516,65.758z"/>
<path fill-rule="evenodd" clip-rule="evenodd" fill="#ffe861" class="fill" d="M58.613,101.85c-0.634-2.714-1.269-5.428-1.908-8.159
	c0.386-0.451,0.715-0.835,1.026-1.199c0.205,0.099,0.4,0.135,0.412,0.205c0.488,2.773,0.973,5.548,1.412,8.33
	c0.04,0.251-0.216,0.548-0.334,0.822C59.019,101.849,58.817,101.85,58.613,101.85z"/>
<path fill-rule="evenodd" clip-rule="evenodd" fill="#ffe861" class="fill" d="M145.082,54.385c-2.553-2.468-0.755-4.783-0.416-7.567
	c0.965,1.084,1.63,1.829,2.272,2.55C146.315,51.048,145.753,52.566,145.082,54.385z"/>
<path fill-rule="evenodd" clip-rule="evenodd" fill="#ffe861" class="fill" d="M123.947,53.469c0.013,2.649,0.21,5.165,0.008,7.926
	c-0.661-0.28-1-0.424-1.474-0.625c-0.102-2.349-0.203-4.696-0.31-7.171C122.836,53.55,123.322,53.515,123.947,53.469z"/>
<path fill-rule="evenodd" clip-rule="evenodd" fill="#ffe861" class="fill" d="M48.177,116.099c-2.581-1.518-4.999-2.688-7.024-4.702
	c0.375-0.445,0.691-0.821,1.128-1.342c0.794,0.572,1.55,1.063,2.241,1.63c0.759,0.622,1.468,1.305,2.181,1.98
	C47.313,114.245,48.24,114.636,48.177,116.099z"/>
<path fill-rule="evenodd" clip-rule="evenodd" fill="#ffe861" class="fill" d="M116.61,70.818c0.799-0.013,1.29-0.019,1.9-0.027
	c-0.079,2.413-0.153,4.697-0.229,7.037c-1.486,0.143-1.786-0.834-1.814-1.83C116.423,74.36,116.548,72.72,116.61,70.818z"/>
<path fill-rule="evenodd" clip-rule="evenodd" fill="#ffe861" class="fill" d="M169.937,76.229c-0.285,2.641-0.55,5.099-0.828,7.67
	c-0.967-0.158-1.374-0.685-1.335-1.369c0.139-2.466,0.369-4.928,0.603-7.865C169.153,75.443,169.584,75.876,169.937,76.229z"/>
<path fill-rule="evenodd" clip-rule="evenodd" fill="#ffe861" class="fill" d="M91.195,78.572c-0.855-0.027-1.3-0.042-1.872-0.061
	c0.062-1.914,0.123-3.794,0.19-5.826c0.526-0.119,1.071-0.243,1.77-0.4C91.438,74.43,91.497,76.404,91.195,78.572z"/>
<path fill-rule="evenodd" clip-rule="evenodd" fill="#ffe861" class="fill" d="M80.568,81.398c0.386-0.484,0.481-0.657,0.625-0.769
	c0.15-0.116,0.343-0.236,0.524-0.246c2.724-0.156,5.449-0.295,8.357-0.448c-0.149,0.565-0.256,0.966-0.372,1.403
	C86.702,81.95,83.791,81.531,80.568,81.398z"/>
<path fill-rule="evenodd" clip-rule="evenodd" fill="#ffe861" class="fill" d="M82.898,79.225c0.069-2.148,0.129-3.956,0.193-5.931
	c0.52-0.075,1.134-0.162,2.02-0.288c0.111,2.068-0.134,3.972-0.258,6.058C84.242,79.114,83.704,79.158,82.898,79.225z"/>
<path fill-rule="evenodd" clip-rule="evenodd" fill="#ffe861" class="fill" d="M149.709,53.017c0.158,0.086,0.354,0.138,0.468,0.264
	c0.259,0.287,0.477,0.611,0.708,0.913c-0.167,2.209-0.713,4.255-1.577,6.366C148.048,58.771,148.268,55.59,149.709,53.017z"/>
<path fill-rule="evenodd" clip-rule="evenodd" fill="#ffe861" class="fill" d="M40.741,99.474c-0.613-3.143-1.226-6.286-1.856-9.523
	c0.293-0.292,0.591-0.589,1.145-1.142c0.438,3.755,1.659,7.082,1.323,10.598C41.149,99.429,40.945,99.451,40.741,99.474z"/>
<path fill-rule="evenodd" clip-rule="evenodd" fill="#ffe861" class="fill" d="M63.826,86.378c0.599,2.213,1.104,4.079,1.636,6.047
	c-0.438,0.569-0.846,1.097-1.509,1.955c-0.538-2.571-0.984-4.698-1.458-6.96C62.752,87.218,63.097,86.949,63.826,86.378z"/>
<path fill-rule="evenodd" clip-rule="evenodd" fill="#ffe861" class="fill" d="M156.767,108.868c-1.32,3.332-2.582,6.517-3.841,9.693
	c-0.328-0.114-0.503-0.121-0.55-0.202c-0.223-0.387-0.41-0.793-0.486-0.946c0.645-1.329,1.212-2.417,1.708-3.539
	c0.583-1.322,1.08-2.684,1.664-4.006C155.48,109.376,155.602,108.672,156.767,108.868z"/>
<path fill-rule="evenodd" clip-rule="evenodd" fill="#ffe861" class="fill" d="M125.262,61.27c-0.011-2.703-0.223-5.32,0.286-8.345
	c0.51,0.544,0.913,0.771,0.928,1.021c0.125,2.024,0.199,4.052,0.24,6.08C126.731,60.702,126.58,61.359,125.262,61.27z"/>
<path fill-rule="evenodd" clip-rule="evenodd" fill="#ffe861" class="fill" d="M143.563,84.787c0.102,0.576,0.427,1.224,0.267,1.715
	c-0.833,2.56-1.79,5.079-2.81,7.907c-0.298-0.492-0.558-0.728-0.516-0.883c0.775-2.915,1.586-5.819,2.39-8.727
	C143.118,84.796,143.341,84.791,143.563,84.787z"/>
<path fill-rule="evenodd" clip-rule="evenodd" fill="#ffe861" class="fill" d="M139.566,91.623c-0.47-0.969-0.716-1.478-0.949-1.955
	c0.914-2.61,1.795-5.127,2.771-7.917c0.427,0.503,0.618,0.73,0.763,0.904C141.315,85.555,140.506,88.361,139.566,91.623z"/>
<path fill-rule="evenodd" clip-rule="evenodd" fill="#ffe861" class="fill" d="M50.4,78.369c0.241-0.21,0.573-0.499,0.89-0.774
	c0.183,0.138,0.352,0.201,0.366,0.287c0.455,2.925,0.91,5.85,1.318,8.781c0.061,0.437-0.12,0.906-0.546,1.34
	C51.76,84.832,51.092,81.66,50.4,78.369z"/>
<path fill-rule="evenodd" clip-rule="evenodd" fill="#ffe861" class="fill" d="M136.727,73.489c0.562,0.857,0.875,1.332,1.208,1.839
	c-0.925,2.453-0.819,5.143-2.181,7.432C135.568,79.767,135.796,76.835,136.727,73.489z"/>
<path fill-rule="evenodd" clip-rule="evenodd" fill="#ffe861" class="fill" d="M170.767,86.457c-0.87-2.982,0.134-5.576,0.227-8.681
	c0.75,0.723,1.139,1.099,1.415,1.365C172.561,80.28,171.486,85.167,170.767,86.457z"/>
<path fill-rule="evenodd" clip-rule="evenodd" fill="#ffe861" class="fill" d="M84.387,58.637c0.395,2.577,0.306,4.894,0.01,7.207
	c-0.033,0.259-0.482,0.465-0.789,0.744c-0.543-1.641-0.709-6.289-0.249-7.28C83.463,59.085,83.833,58.986,84.387,58.637z"/>
<path fill-rule="evenodd" clip-rule="evenodd" fill="#ffe861" class="fill" d="M123.891,70.593c0.47,0.015,0.777,0.025,1.254,0.041
	c-0.078,2.407-0.154,4.739-0.237,7.266c-0.537-0.219-0.978-0.397-1.239-0.504C123.747,74.997,123.818,72.815,123.891,70.593z"/>
<path fill-rule="evenodd" clip-rule="evenodd" fill="#ffe861" class="fill" d="M87.637,78.622c-0.371,0.092-0.72,0.179-1.167,0.289
	c-0.438-1.686-0.136-3.215,0.118-4.734c0.071-0.421,0.281-0.832,0.493-1.211c0.058-0.103,0.353-0.073,0.638-0.122
	C88.556,74.781,88.08,76.662,87.637,78.622z"/>
<path fill-rule="evenodd" clip-rule="evenodd" fill="#ffe861" class="fill" d="M86.106,48.845c-0.142-0.522-0.285-0.819-0.295-1.121
	c-0.085-2.479-0.152-4.959-0.2-7.44c-0.003-0.146,0.204-0.297,0.555-0.775c0.427,3.047,1.109,5.733,0.813,8.528
	C86.952,48.286,86.504,48.491,86.106,48.845z"/>
<path fill-rule="evenodd" clip-rule="evenodd" fill="#ffe861" class="fill" d="M120.328,53.553c0.204,0.479,0.507,0.94,0.6,1.44
	c0.578,3.128,0.456,6.57-0.407,8.136c-0.428-3.339-0.63-6.381-0.737-9.429C119.964,53.651,120.146,53.602,120.328,53.553z"/>
<path fill-rule="evenodd" clip-rule="evenodd" fill="#ffe861" class="fill" d="M59.074,105.366c-1.757,2.599-3.514,5.199-5.271,7.798
	c-0.149-0.042-0.297-0.083-0.447-0.124c-0.068-0.589-0.135-1.179-0.189-1.657c1.744-1.875,3.37-3.638,5.022-5.377
	c0.246-0.26,0.617-0.402,0.932-0.597C59.123,105.41,59.074,105.366,59.074,105.366z"/>
<path fill-rule="evenodd" clip-rule="evenodd" fill="#ffe861" class="fill" d="M156.23,125.989c0.256-1.167,0.399-2.375,0.796-3.492
	c0.615-1.732,1.36-3.424,2.144-5.088c0.256-0.543,0.508-1.478,1.757-0.844c-0.9,1.583-1.878,3.045-2.586,4.629
	c-0.703,1.572-1.134,3.266-1.684,4.906C156.515,126.063,156.373,126.025,156.23,125.989z"/>
<path fill-rule="evenodd" clip-rule="evenodd" fill="#ffe861" class="fill" d="M105.082,71.743c0.182,1,0.343,1.887,0.548,3.013
	c-0.837,0.062-1.579,0.117-2.568,0.191c-0.228-1.105-0.431-2.089-0.68-3.292C103.383,71.687,104.122,71.711,105.082,71.743z"/>
<path fill-rule="evenodd" clip-rule="evenodd" fill="#ffe861" class="fill" d="M158.681,130.805c-0.539-0.87-0.836-1.351-1.067-1.724
	c0.917-2.139,1.78-4.152,2.659-6.158c0.009-0.022,0.234,0.048,0.62,0.134C160.2,125.481,159.512,127.894,158.681,130.805z"/>
<path fill-rule="evenodd" clip-rule="evenodd" fill="#ffe861" class="fill" d="M68.008,72.17c-0.11-0.286-0.281-0.558-0.315-0.848
	c-0.304-2.553-0.583-5.109-0.644-7.704c1.5,2.055,1.2,4.531,1.585,6.836C68.731,71.032,69.055,71.798,68.008,72.17z"/>
<path fill-rule="evenodd" clip-rule="evenodd" fill="#ffe861" class="fill" d="M37.647,82.1c-0.588-3.127-0.305-6.312-0.429-9.474
	c0.942,3.091,1.111,6.249,1.225,9.41C38.177,82.058,37.913,82.078,37.647,82.1z"/>
<path fill-rule="evenodd" clip-rule="evenodd" fill="#ffe861" class="fill" d="M59.455,70.602c1.191,3.008,2.221,6.037,1.409,9.326
	c-0.892-1.422-0.508-3.043-0.726-4.569C59.911,73.772,59.683,72.187,59.455,70.602z"/>
<path fill-rule="evenodd" clip-rule="evenodd" fill="#ffe861" class="fill" d="M165.194,127.296c-0.764,2.945-1.472,5.673-2.18,8.401
	c-0.175,0.01-0.35,0.02-0.527,0.03c-0.119-0.424-0.436-0.909-0.326-1.261c0.725-2.312,1.54-4.597,2.339-6.884
	C164.527,127.503,164.725,127.483,165.194,127.296z"/>
<path fill-rule="evenodd" clip-rule="evenodd" fill="#ffe861" class="fill" d="M121.964,46.048c-0.95-3.22-1.032-8.136-0.238-9.286
	C122.443,37.996,122.593,42.493,121.964,46.048z"/>
<path fill-rule="evenodd" clip-rule="evenodd" fill="#ffe861" class="fill" d="M143.143,72.064c-0.75-2.236,0.676-4.215,0.777-6.35
	c0.175-0.072,0.352-0.144,0.527-0.217c0.272,0.346,0.544,0.69,0.74,0.938c-0.506,2.073-0.952,3.892-1.396,5.711
	C143.575,72.12,143.358,72.092,143.143,72.064z"/>
<path fill-rule="evenodd" clip-rule="evenodd" fill="#ffe861" class="fill" d="M115.141,71.021c-0.049,1.492-0.088,2.7-0.13,3.978
	c-0.535-0.017-0.903-0.029-1.522-0.049c-0.069-1.252-0.134-2.444-0.208-3.775C113.923,71.121,114.41,71.082,115.141,71.021z"/>
<path fill-rule="evenodd" clip-rule="evenodd" fill="#ffe861" class="fill" d="M131.347,92.065c-1.617-1.123-3.195-2.168-2.896-4.482
	c0.925,0.771,1.85,1.539,2.836,2.361C131.308,90.669,131.327,91.367,131.347,92.065z"/>
<path fill-rule="evenodd" clip-rule="evenodd" fill="#ffe861" class="fill" d="M126.861,70.397c0.436-0.028,0.729-0.047,1.233-0.08
	c-0.061,1.853-0.116,3.577-0.177,5.438c-0.383,0.006-0.733,0.013-1.231,0.021C126.745,73.947,126.802,72.22,126.861,70.397z"/>
<path fill-rule="evenodd" clip-rule="evenodd" fill="#ffe861" class="fill" d="M131.987,121.407c0.827,0.42,1.454,0.738,2.262,1.148
	c-0.147,1.083-0.291,2.138-0.489,3.59C132.588,124.575,131.344,123.528,131.987,121.407z"/>
<path fill-rule="evenodd" clip-rule="evenodd" fill="#ffe861" class="fill" d="M141.707,69.353c-0.496-0.674-0.751-1.019-0.879-1.194
	c0.358-1.856,0.676-3.508,1.042-5.411c0.483,0.427,0.784,0.693,1.004,0.888C142.491,65.507,142.14,67.226,141.707,69.353z"/>
<path fill-rule="evenodd" clip-rule="evenodd" fill="#ffe861" class="fill" d="M95.265,74.976c-0.9,0.274-1.503,0.458-2.339,0.713
	c0.039-1.184,0.071-2.168,0.108-3.318c0.394-0.06,0.875-0.135,1.583-0.244C94.834,73.078,95.028,73.932,95.265,74.976z"/>
<path fill-rule="evenodd" clip-rule="evenodd" fill="#ffe861" class="fill" d="M108.649,71.527c0.088,1.149,0.163,2.109,0.249,3.223
	c-0.742-0.024-1.29-0.042-1.974-0.063c-0.104-0.994-0.204-1.951-0.329-3.121C107.333,71.552,107.933,71.54,108.649,71.527z"/>
<path fill-rule="evenodd" clip-rule="evenodd" fill="#ffe861" class="fill" d="M167.127,73.312c-0.226,2.736-0.452,5.471-0.709,8.603
	C165.373,80.063,165.702,76.202,167.127,73.312z"/>
<path fill-rule="evenodd" clip-rule="evenodd" fill="#ffe861" class="fill" d="M66.361,91.001c-0.488-2.276-1.551-4.093-1.08-6.232
	c0.892,1.639,1.421,3.383,1.739,5.188C67.059,90.172,66.722,90.453,66.361,91.001z"/>
<path fill-rule="evenodd" clip-rule="evenodd" fill="#ffe861" class="fill" d="M99.392,71.844c0.639,0.021,1.062,0.035,1.527,0.05
	c0.211,0.885,0.419,1.756,0.667,2.793c-0.6,0.136-1.128,0.257-1.886,0.43C99.592,73.965,99.498,72.973,99.392,71.844z"/>
<path fill-rule="evenodd" clip-rule="evenodd" fill="#ffe861" class="fill" d="M111.82,74.872c-0.545-0.019-0.854-0.027-1.46-0.047
	c-0.038-1.159-0.075-2.275-0.117-3.511c0.539,0.018,0.888,0.029,1.392,0.045C111.7,72.577,111.758,73.699,111.82,74.872z"/>
<path fill-rule="evenodd" clip-rule="evenodd" fill="#ffe861" class="fill" d="M72.972,69.703c-0.741,0.843-1.482,1.687-2.223,2.531
	c-0.129-0.06-0.259-0.119-0.388-0.178c-0.028-0.818-0.057-1.636-0.089-2.625c0.923-0.077,1.678-0.142,2.432-0.203
	C72.793,69.385,72.882,69.543,72.972,69.703z"/>
<path fill-rule="evenodd" clip-rule="evenodd" fill="#ffe861" class="fill" d="M156.574,60.48c0.143,2.1-0.267,3.759-0.954,5.641
	C154.88,63.996,155.16,62.227,156.574,60.48z"/>
<path fill-rule="evenodd" clip-rule="evenodd" fill="#ffe861" class="fill" d="M147.226,56.28c-1.071-2.277-0.318-3.835,0.846-5.793
	c0.306,0.46,0.474,0.716,0.52,0.784C148.129,52.964,147.741,54.393,147.226,56.28z"/>
<path fill-rule="evenodd" clip-rule="evenodd" fill="#ffe861" class="fill" d="M158.251,63.006c0.195,1.161-0.503,4.206-1.422,6.208
	C156.448,67.815,157.224,64.423,158.251,63.006z"/>
<path fill-rule="evenodd" clip-rule="evenodd" fill="#ffe861" class="fill" d="M96.594,74.896c-0.1-0.99-0.176-1.755-0.269-2.681
	c0.509-0.095,0.971-0.181,1.563-0.291c0.136,1.029,0.252,1.904,0.383,2.895C97.663,74.847,97.234,74.867,96.594,74.896z"/>
<path fill-rule="evenodd" clip-rule="evenodd" fill="#ffe861" class="fill" d="M140.065,59.891c0.453,0.569,0.68,0.856,0.839,1.058
	c-0.418,1.33-0.797,2.535-1.177,3.742C139.271,63.145,139.451,61.685,140.065,59.891z"/>
<path fill-rule="evenodd" clip-rule="evenodd" fill="#ffe861" class="fill" d="M128.931,92.735c1.201,1.283,1.215,1.385,0.793,4.381
	C128.498,95.82,129.038,94.408,128.931,92.735z"/>
<path fill-rule="evenodd" clip-rule="evenodd" fill="#ffe861" class="fill" d="M140.846,47.153c-0.454-1.755-0.151-3.032,0.119-4.382
	C142.243,43.712,142.239,44.453,140.846,47.153z"/>
<path fill-rule="evenodd" clip-rule="evenodd" fill="#ffe861" class="fill" d="M71.59,84.363c-0.442-1.853-0.886-3.706-1.329-5.558
	c0.158-0.035,0.316-0.069,0.474-0.104c1.014,1.725,0.812,3.72,1.372,5.546C71.935,84.286,71.764,84.324,71.59,84.363z"/>
<path fill-rule="evenodd" clip-rule="evenodd" fill="#ffe861" class="fill" d="M143.646,45.527c-0.298,1.327-0.599,2.655-0.898,3.982
	c-0.141-0.031-0.283-0.062-0.425-0.095c-0.363-1.478,0.185-2.771,0.674-4.078C143.213,45.4,143.429,45.463,143.646,45.527z"/>
<path fill-rule="evenodd" clip-rule="evenodd" fill="#ffe861" class="fill" d="M152.42,56.126c0.168,1.254-0.544,2.245-1.31,3.233
	c0.267-1.116,0.532-2.232,0.796-3.349C152.079,56.049,152.25,56.088,152.42,56.126z"/>
<path fill-rule="evenodd" clip-rule="evenodd" fill="#ffe861" class="fill" d="M31.939,94.166c0.706-0.608,1.411-1.215,2.117-1.822
	c-0.141,1.17-0.969,1.672-1.775,2.193C32.167,94.414,32.053,94.29,31.939,94.166z"/>
<path fill-rule="evenodd" clip-rule="evenodd" fill="#ffe861" class="fill" d="M101.034,93.25c-0.52-0.209-1.04-0.419-1.741-0.704
	c0.338-0.385,0.562-0.639,0.88-1c0.438,0.572,0.784,1.024,1.13,1.476C101.215,93.098,101.125,93.174,101.034,93.25z"/>
<path fill-rule="evenodd" clip-rule="evenodd" fill="#ffe861" class="fill" d="M105.481,91.476c0.333,0.562,0.479,0.808,0.733,1.233
	c-0.617,0.131-1.061,0.224-1.927,0.407C104.78,92.439,105.034,92.091,105.481,91.476z"/>
<path fill-rule="evenodd" clip-rule="evenodd" fill="#ffe861" class="fill" d="M159.146,67.655c-0.183,0.764-0.365,1.529-0.549,2.295
	c-0.128-0.028-0.257-0.057-0.386-0.085c0.166-0.769,0.33-1.538,0.494-2.307C158.853,67.59,159,67.622,159.146,67.655z"/>
<path fill-rule="evenodd" clip-rule="evenodd" fill="#ffe861" class="fill" d="M68.281,74.847c-0.015-0.886-0.015-0.886,1.055-1.243
	C68.889,74.131,68.584,74.489,68.281,74.847z"/>
<path fill-rule="evenodd" clip-rule="evenodd" fill="#ffe861" class="fill" d="M115.293,105.609c0.341,0.763,0.693,1.55,1.058,2.368
	c-1.64,0.508-27.067,0.424-28.756-0.064c-0.006-0.557-0.014-1.176-0.024-1.979c0.882-0.165,1.633-0.418,2.388-0.428
	c3.825-0.06,7.651-0.081,11.476-0.071c4.021,0.013,8.043,0.074,12.065,0.118C114.02,105.557,114.542,105.584,115.293,105.609z"/>
<path fill-rule="evenodd" clip-rule="evenodd" fill="#ffe861" class="fill" d="M102.552,121.835c-0.555,0.161-0.959,0.278-1.604,0.465
	c-0.659-4.154-0.655-8.175-0.774-12.328c0.751-0.036,1.311-0.062,2.032-0.097C102.323,113.924,102.436,117.843,102.552,121.835z"/>
<path fill-rule="evenodd" clip-rule="evenodd" fill="#ffe861" class="fill" d="M97.113,124.112c-0.197-1.727,1.091-1.845,1.922-2.44
	c0.379,0.789,0.708,1.475,1.153,2.403C99.108,124.088,98.138,124.1,97.113,124.112z"/>
<path fill-rule="evenodd" clip-rule="evenodd" fill="#ffe861" class="fill" d="M104.305,121.838c0.337,0.265,0.711,0.559,0.998,0.783
	c-0.011,1.048-1.032,1.351-3.134,1.105C102.801,123.167,103.433,122.609,104.305,121.838z"/>
<path fill-rule="evenodd" clip-rule="evenodd" fill="#ffe861" class="fill" d="M118.658,114.349c0.408,1.388,0.735,2.503,1.156,3.934
	c-3.006,0.086-5.787,0.167-8.826,0.254c-0.235-1.168-0.446-2.219-0.707-3.514C113.116,114.38,115.819,114.364,118.658,114.349z"/>
<path fill-rule="evenodd" clip-rule="evenodd" fill="#ffe861" class="fill" d="M111.339,120.171c0.472,0.016,0.942,0.031,1.413,0.046
	c0.006,0.096,0.011,0.192,0.017,0.288c-0.46,0.032-0.922,0.063-1.382,0.096C111.372,120.457,111.355,120.314,111.339,120.171z"/>
</svg>
