<svg version="1.1" id="svg" xmlns="http://www.w3.org/2000/svg" xmlns:xlink="http://www.w3.org/1999/xlink" x="0px" y="0px"
	 width="200px" height="200px" viewBox="0 0 200 200" enable-background="new 0 0 200 200" xml:space="preserve">
<path class="stroke" fill="#283843"  fill-rule="evenodd" clip-rule="evenodd" d="M180.276,81.018c-0.666-2.492-1.425-4.96-2.244-7.788
	c-0.032,0.08,0.054-0.261,0.229-0.547c1.796-2.945,2.109-6.177,1.811-9.511c-0.166-1.864-1.049-3.347-2.548-4.497
	c-2.75-2.108-5.999-2.522-9.284-2.785c-3.377-0.271-6.133,1.013-8.408,3.479c-0.738,0.802-1.61,1.479-2.404,2.23
	c-4.1,3.875-9.162,3.689-13.788,0.815c-2.104-1.308-3.129-3.259-3.209-5.645c-0.175-5.209,1.269-9.993,4.094-14.359
	c0.25-0.385,0.62-0.799,1.028-0.954c1.205-0.459,2.434-0.974,3.697-1.146c3.877-0.527,7.338,0.562,10.216,3.215
	c1.539,1.418,3.31,2.055,5.331,2.382c2.699,0.437,5.187-0.189,7.563-1.285c4.326-1.993,6.89-5.392,7.146-10.187
	c0.104-1.938-0.444-3.909-0.649-5.503c-0.699-0.731-1.191-1.112-1.51-1.605c-0.739-1.147-1.354-2.376-2.092-3.523
	c-2.121-3.296-4.97-5.89-8.399-7.683c-3.67-1.918-7.781-2.63-11.845-3.062c-5.859-0.623-11.617,0.539-17.243,2.032
	c-4.493,1.192-8.719,3.144-12.124,5.976c-3.039-1.039-5.853-2.08-8.715-2.964c-5.546-1.711-11.088-3.452-16.697-4.933
	c-2.162-0.571-4.561-0.58-6.372,1.229c-1.109,1.107-2.137,2.318-3.067,3.581c-1.576,2.136-3.038,4.356-4.564,6.53
	c-0.59,0.839-1.251,1.628-1.831,2.474c-0.551,0.804-1.038,1.65-1.571,2.508c-0.262-0.245-0.413-0.318-0.45-0.43
	c-1.065-3.252-2.214-6.479-3.151-9.768c-1.058-3.712-3.488-5.951-7.062-7.04c-3.535-1.077-7.175-1.023-10.784-0.569
	c-2.559,0.321-5.246,0.555-7.578,1.536c-4.843,2.04-8.467,5.734-11.443,10.004c-2.775,3.98-5.504,8.001-8.07,12.118
	c-1.545,2.479-2.889,5.112-4.06,7.791c-1.941,4.444-3.623,9.003-5.509,13.473c-1.194,2.829-2.575,5.579-3.837,8.381
	c-0.308,0.682-0.369,1.487-0.73,2.131c-1.571,2.801-1.828,5.871-1.729,8.948c0.072,2.215,0.62,4.562,2.854,5.571
	c1.95,0.883,3.979,1.871,6.283,1.644c0.882-0.087,1.784-0.075,2.668-0.001c1.417,0.12,2.765-0.112,3.95-0.855
	c1.029-0.644,1.973-1.436,2.906-2.219c3.223-2.709,6.105-5.744,7.967-9.552c1.189-2.435,3.028-4.05,5.392-5.105
	c3.945-1.763,8.022-1.324,12.085-0.442c0.645,0.14,1.25,0.46,1.998,0.744c0.425,2.401,0.837,4.728,1.269,7.17
	c-0.638,0.133-1.086,0.26-1.544,0.316c-1.221,0.149-2.475,0.141-3.661,0.424c-3.987,0.955-7.948,2.023-11.925,3.021
	c-2.985,0.749-5.264,2.387-6.219,5.371c-0.641,2.005-1.121,4.105-1.324,6.198c-0.324,3.329-0.412,6.685-0.496,10.032
	c-0.062,2.462-0.055,4.935,0.098,7.392c0.129,2.099,0.508,4.182,0.765,6.172c-2.218,1.014-4.175,1.688-5.896,2.743
	c-3.075,1.887-6.364,3.537-8.607,6.541c-1.024,1.373-2.214,2.64-3.103,4.092c-1.246,2.032-2.447,4.125-3.364,6.318
	c-1.13,2.7-2.033,5.504-2.878,8.311c-0.921,3.06-2.187,6.142-2.373,9.27c-0.361,6.092-0.406,12.144,2.441,18.005
	c2.406,4.95,5.806,8.762,10.188,11.743c2.984,2.031,6.228,3.778,9.554,5.182c2.478,1.045,5.278,1.871,7.927,1.848
	c5.239-0.047,10.502-0.328,15.653-1.71c3.628-0.974,6.581-2.975,9.388-5.256c2.41-1.958,4.267-4.436,5.659-7.221
	c0.793-1.586,1.449-3.24,2.21-4.845c1.86-3.927,3.209-7.985,3.491-12.366c0.24-3.724-1.012-5.813-4.456-7.142
	c-0.128-0.05-0.253-0.11-0.384-0.147c-2.104-0.602-4.206-1.207-6.313-1.797c-1.382-0.386-2.771-0.747-4.523-1.219
	c1.496-0.92,2.72-1.209,4.033-1.273c4.115-0.203,7.878-1.484,11.357-3.682c0.488-0.309,1.156-0.334,1.879-0.528
	c0.095,1.677-0.113,3.134,0.312,4.374c0.758,2.215,0.28,4.464,0.591,6.683c0.379,2.697,0.213,5.47,0.556,8.174
	c0.723,5.695,1.602,11.371,2.46,17.049c0.473,3.126,2.558,5.512,5.657,5.928c3.585,0.48,7.227,0.717,10.826-0.104
	c3.456-0.788,5.563-3.006,6.582-6.314c1.017-3.296,1.245-6.705,1.333-10.13c0.041-1.574,0.051-3.152,0.178-4.721
	c0.161-2.003,1-3.106,2.974-3.385c2.636-0.37,5.317-0.646,7.972-0.585c1.92,0.044,3.862,0.729,4.608,2.851
	c0.521,1.479,0.912,3.02,1.188,4.564c0.553,3.093,0.971,6.209,1.475,9.311c0.557,3.43,2.752,5.15,6.023,5.843
	c2.854,0.604,5.741,0.674,8.582,0.312c2.062-0.263,4.078-0.979,5.584-2.688c1.312-1.489,1.588-3.29,1.908-5.107
	c0.571-3.241,0.733-6.49,0.684-9.796c-0.089-5.947,0.309-11.898-0.142-17.85c-0.083-1.107,0.257-2.246,0.383-3.229
	c0.876-0.498,1.476-0.822,2.061-1.173c1.981-1.189,3.27-2.963,3.748-5.167c0.687-3.159,0.672-6.385,0.419-9.607
	c-0.179-2.273,0.781-3.363,3.03-3.312c4.175,0.096,7.933-1.066,11.435-3.554c0.373-1.223,1.073-2.519,1.107-3.833
	c0.076-2.861-0.017-5.753-0.373-8.591c-0.218-1.731-0.99-3.424-2.678-4.298c-4.719-2.324-9.682-0.924-14.532-0.935
	c-0.807-1.483-1.054-2.784,0.138-4.029c0.934-0.056,1.815-0.164,2.694-0.152c4.498,0.063,8.855-0.735,13.065-2.254
	c2.341-0.845,4.566-2.112,5.778-4.352C180.272,86.376,181.011,83.765,180.276,81.018z M64.478,44.207
	c-0.068,0.562-0.652,1.335-1.175,1.524c-2.441,0.887-4.956,1.811-7.344-0.397c-0.638-1.14-0.593-2.392-0.142-3.671
	c0.498-1.413,0.964-2.837,1.472-4.246c1.039-2.888,2.686-3.518,5.392-2.062c0.417,0.224,0.788,0.533,1.295,0.881
	C64.981,38.911,64.794,41.57,64.478,44.207z M53.136,163.917c-5.441,0.971-11.808-2.778-13.527-8.004
	c-0.702-2.134-0.239-4.324,0.012-6.486c0.467-4.011,2.253-7.577,3.84-11.202c0.3-0.684,0.939-1.219,1.649-2.107
	c1.698,3.9,3.646,7.126,7.848,8.365c-3.139,1.247-3.98,4.002-4.938,6.622c-0.513,1.401-0.874,2.88-1.112,4.354
	c-0.314,1.943,0.867,3.666,3.06,4.816c1.603,0.842,3.198,1.697,5.226,2.774C54.276,163.445,53.729,163.812,53.136,163.917z
	 M79.668,102.801c-0.403,2.889-0.79,5.803-1.985,8.517c-0.859,1.953-1.95,3.729-3.869,5.102c-3.606-3.049-7.717-5.028-12.482-5.532
	c-0.194-0.776-0.415-1.421-0.511-2.083c-0.431-2.964-0.914-5.925-1.189-8.904c-0.114-1.242,0.242-2.528,0.41-4.016
	c1.905-0.377,3.604-0.934,5.326-1.013c4.541-0.209,8.8,0.795,12.629,3.405C79.687,99.429,79.906,101.092,79.668,102.801z
	 M121.562,83.598c3.588,1.959,6.975,3.809,10.74,5.865c0.122,0.837,0.316,2.157,0.56,3.819c-1.705-0.927-3.07-1.782-4.529-2.432
	c-1.738-0.774-3.542-1.41-5.344-2.03c-1.17-0.402-2.326-0.769-3.329-2.12C120.342,85.588,121.001,84.514,121.562,83.598z
	 M95.829,70.226c-0.475-0.014-0.945-0.204-1.419-0.214c-3.785-0.079-4.63-3.852-3.686-6.571c0.865-2.496,0.88-2.491,2.904-4.021
	c2.474,0.768,5.071,1.589,7.356,3.095c1.6,1.055,1.68,2.864,1.799,4.777C101.187,70.081,98.564,70.301,95.829,70.226z
	 M101.815,42.188c-1.024-0.282-1.441-1.267-1.014-2.143c0.925-1.891,1.997-3.723,3.168-5.471c0.312-0.466,1.186-0.707,1.83-0.771
	c2.731-0.275,6.562,2.244,7.628,4.956c-0.999,2.296-2.835,3.47-4.954,4.615C106.291,43.429,104.046,42.804,101.815,42.188z
	 M128.733,109.388c-2.165,0.612-2.891,1.599-2.963,3.823c-0.057,1.768-0.032,3.539-0.064,5.309
	c-0.006,0.314-0.115,0.628-0.179,0.948c-1.441-1.035-2.853-1.921-4.117-2.982c-2.494-2.093-5.67-2.666-8.516-3.966
	c-1.113-0.508-2.354-0.731-3.481-1.212c-0.768-0.327-1.44-0.875-2.261-1.39c0.478-1.212,0.759-2.205,1.243-3.085
	c0.743-1.35,1.929-2.123,3.529-2.024c2.479,0.152,4.824,0.713,7.035,1.955c1.096,0.615,2.407,0.905,3.658,1.163
	c1.131,0.233,2.313,0.301,3.472,0.289c0.717-0.007,1.636-0.072,2.108-0.502c1.646-1.499,3.159-3.081,3.254-5.606
	c0.044-1.202,0.758-2.38,1.169-3.568c0.158,0.021,0.316,0.042,0.474,0.062c0.254,3.208,0.506,6.416,0.762,9.655
	C132.021,108.654,130.352,108.931,128.733,109.388z"/>
<path fill-rule="evenodd" clip-rule="evenodd" fill="#7beeef" class="fill" d="M60.653,160.694c-1.341-1.556-2.899-2.024-4.785-2.248
	c-2.106-0.25-4.215-0.932-6.074-2.226c-0.079-3.013,0.982-5.617,2.367-8.038c0.418-0.729,1.669-1.167,2.617-1.371
	c2.25-0.482,4.505-0.102,6.699,0.493c4.157,1.128,8.3,2.313,12.45,3.467c1.53,0.426,3.017,0.908,3.978,2.445
	c-0.13,6.136-2.708,11.267-6.658,15.837c-1.029,1.19-1.885,2.557-3.027,3.618c-3.314,3.076-7.106,5.335-11.631,6.173
	c-3.021,0.561-5.987,1.479-9.118,1.289c-4.942-0.299-9.542-1.65-13.738-4.326c-3.482-2.22-6.03-5.25-8.182-8.75
	c-1.543-2.509-3.088-4.957-4.158-7.738c-1.944-5.051-2.49-10.247-1.759-15.522c0.648-4.674,1.593-9.363,3.904-13.55
	c2.246-4.066,4.6-8.219,8.553-10.856c3.329-2.221,6.854-4.203,10.965-4.901c4.248-0.722,8.442-1.746,12.79-1.684
	c5.007,0.072,9.876,0.812,14.059,3.77c3.156,2.232,5.706,5.083,7.313,8.683c0.39,0.873,1.008,1.652,1.331,2.543
	c0.483,1.332,1.018,2.706,1.138,4.096c0.222,2.545-1.076,4.244-3.5,5.146c-2.438,0.906-4.913,1.083-7.474,0.626
	c-1.882-0.336-3.028-1.443-3.772-3.109c-0.639-1.432-1.268-2.87-1.962-4.274c-1.252-2.529-3.63-3.59-6.144-3.972
	c-4.417-0.672-8.429,0.662-11.812,3.548c-1.651,1.407-3.124,3.051-4.525,4.717c-1.931,2.293-2.897,5.114-3.544,7.966
	c-1.107,4.885-0.548,9.793,0.278,14.677c0.381,2.256,1.491,4.135,3.018,5.726c3.655,3.809,7.935,5.941,13.435,4.878
	c1.701-0.329,3.341-0.555,4.759-1.664C60.227,164.764,60.994,163.014,60.653,160.694z"/>
<path fill-rule="evenodd" clip-rule="evenodd" fill="#7beeef" class="fill" d="M87.183,78.625c-5.62-3.191-11.618-4.272-17.611-5.814
	c-0.165-1.444-0.317-2.861-0.492-4.275c-0.134-1.087-0.203-2.194-0.466-3.251c-0.515-2.076-1.591-3.675-3.681-4.62
	c-2.418-1.096-4.865-1.659-7.524-1.76c-2.887-0.109-5.735-0.114-8.568,0.478c-2.25,0.471-3.956,1.611-5.226,3.614
	c-2.525,3.982-5.174,7.888-7.849,11.771c-2.271,3.298-5.867,4.571-9.72,3.728c-1.558-0.342-2.389-1.25-2.721-2.706
	c-0.403-1.773-0.335-3.538,0.287-5.259c2.256-6.242,4.621-12.438,7.661-18.356c2.312-4.502,4.509-9.062,6.843-13.553
	c2.208-4.248,4.474-8.468,6.813-12.645c2.048-3.655,5.21-6.326,8.374-8.958c0.615-0.512,1.402-0.894,2.174-1.131
	c5.241-1.614,10.524-2.411,15.959-0.867c2.658,0.755,4.516,2.256,5.17,4.983c0.781,3.262,1.484,6.542,2.188,9.821
	c1.509,7.026,2.952,14.066,4.505,21.083c1.555,7.018,3.488,13.955,4.356,21.111c0.165,1.355,0.224,2.735,0.175,4.099
	C87.804,76.876,87.454,77.622,87.183,78.625z M57.912,30.489c-0.83,1.284-1.728,2.572-2.521,3.921
	c-1.749,2.975-2.947,6.166-3.209,9.623c-0.178,2.337,0.515,3.123,2.645,4.021c2.946,1.24,5.866,0.966,8.82,0.103
	c2.215-0.646,3.352-2.116,3.746-4.379c0.495-2.84,0.122-5.574-0.56-8.317c-1.154-4.646-3.332-6.073-8.066-5.225
	C58.503,30.282,58.249,30.388,57.912,30.489z"/>
<path fill-rule="evenodd" clip-rule="evenodd" fill="#7beeef" class="fill" d="M106.722,133.669c2.212,1.055,4.399,1.129,6.708,0.843
	c2.644-0.327,5.329-0.286,7.983-0.544c1.694-0.165,3.396-0.468,5.031-0.932c0.874-0.248,1.612-0.969,2.503-1.534
	c0.136-1.481,0.344-2.899,0.382-4.322c0.095-3.49,0.115-6.983,0.158-10.475c0.021-1.813,0.758-3.299,2.04-4.607
	c0.726,0,1.455,0,2.311,0c0.132,1.789,0.282,3.479,0.374,5.173c0.159,2.938,0.18,5.887,0.449,8.813
	c0.232,2.514,0.714,5.005,1.121,7.499c0.221,1.348,0.542,2.678,0.774,4.022c0.402,2.323,1.984,3.354,4.112,3.688
	c1.479,0.232,2.986,0.287,4.479,0.431c0.464,0.045,0.924,0.12,1.581,0.207c0.163,2.862,0.34,5.646,0.476,8.432
	c0.192,3.968,0.391,7.935,0.517,11.904c0.104,3.239-0.213,6.428-1.591,9.406c-2.849,2.36-8.093,2.786-11.751,0.74
	c-0.207-0.905-0.595-2.067-0.721-3.257c-0.354-3.334-0.564-6.684-0.899-10.021c-0.205-2.04-0.442-4.086-0.847-6.094
	c-0.195-0.969-0.736-1.897-1.252-2.767c-0.555-0.934-1.434-1.441-2.577-1.393c-2.392,0.103-4.783,0.176-7.174,0.289
	c-2.117,0.1-4.233,0.343-6.349,0.331c-2.877-0.017-5.352,0.939-7.967,3.055c-0.14,0.656-0.566,1.767-0.574,2.879
	c-0.027,3.766,0.119,7.533,0.147,11.3c0.013,1.707-0.022,3.422-0.177,5.121c-0.119,1.303-0.513,2.56-1.947,3.777
	c-2.094,0.32-4.578,0.807-7.088,1.047c-1.729,0.165-3.413-0.239-5.019-1.914c-0.282-2.438-0.615-5.207-0.921-7.98
	c-0.65-5.911-1.343-11.818-1.909-17.738c-0.391-4.074-0.598-8.167-0.877-12.101c0.579-0.536,0.899-0.896,1.28-1.175
	c2.467-1.808,3.919-4.352,4.959-7.117c1.029-2.738,2.033-5.515,2.688-8.357c0.626-2.717,0.788-5.541,1.195-8.634
	c0.565,0,1.193-0.07,1.8,0.012c4.229,0.571,4.496,0.645,4.954,5.276c0.396,4.008,0.399,8.056,0.536,12.087
	C105.697,130.628,105.775,132.188,106.722,133.669z"/>
<path fill-rule="evenodd" clip-rule="evenodd" fill="#7beeef" class="fill" d="M89.069,58.62c-0.391-1.594-0.705-2.749-0.955-3.918
	c-0.672-3.144-1.32-6.292-1.971-9.44c-0.483-2.343-1.031-4.677-1.389-7.039c-0.137-0.898-0.039-1.963,0.328-2.784
	c1.698-3.807,3.442-7.599,5.345-11.307c1.148-2.24,2.626-4.311,3.934-6.471c0.752-1.242,1.837-1.885,3.264-1.672
	c2.43,0.362,4.877,0.696,7.256,1.286c4.709,1.17,9.39,2.46,14.058,3.787c4.096,1.165,6.975,3.936,9.249,7.404
	c0.33,0.504,0.651,1.125,0.671,1.702c0.088,2.728,0.551,5.563-0.021,8.163c-0.899,4.089-2.793,7.92-5.77,10.971
	c-1.699,1.742-3.798,3.096-5.714,4.627c-0.365,0.292-0.72,0.598-1.08,0.897c0.033,0.351-0.027,0.667,0.096,0.877
	c3.312,5.618,3.521,11.719,2.454,17.879c-0.385,2.225-1.577,4.353-2.637,6.403c-0.937,1.813-2.555,2.784-4.584,3.481
	c-3.687,1.266-7.432,1.958-11.269,1.869c-2.773-0.065-5.534-0.661-8.182-1.006c-0.866-1.267-1.555-2.272-2.279-3.332
	c1.573-2.337,2.312-4.844,2.103-7.799c1.144,0.153,2.207,0.22,3.235,0.446c5.119,1.127,10.172-1.954,11.616-7.298
	c0.334-1.236,0.502-2.572,0.436-3.846c-0.083-1.604-0.779-2.904-2.222-3.943c-1.538-1.107-2.737-2.695-4.639-3.292
	c-2.721-0.852-5.396-2.121-8.464-1.021C91.117,55.5,90.259,56.807,89.069,58.62z M99.444,43.655c0.369,0.183,0.66,0.397,0.982,0.475
	c2.061,0.489,4.111,1.044,6.197,1.394c2.576,0.431,4.924-0.196,6.705-2.207c0.991-1.119,1.938-2.317,2.682-3.607
	c1.669-2.897,0.646-7.432-2.16-9.207c-1.531-0.969-3.324-1.521-4.981-2.297c-1.716-0.805-3.369-0.209-4.989,0.26
	c-0.495,0.144-0.907,0.766-1.231,1.253c-0.296,0.444-0.421,1.002-0.622,1.51c-1.324,3.347-2.649,6.693-3.966,10.02
	C98.587,42.163,99.025,42.927,99.444,43.655z"/>
<path fill-rule="evenodd" clip-rule="evenodd" fill="#7beeef" class="fill" d="M132.455,76.695c-0.165,0.965-0.418,2.028-0.51,3.104
	c-0.091,1.072-0.02,2.158-0.02,3.549c-2.991-1.757-5.629-3.679-7.763-6.567c0.769-6.044,1.349-12.237-0.505-18.215
	c3.046-3.222,4.868-6.931,6.584-10.745c1.662-3.694,2.414-7.512,2.545-11.529c0.127-3.916-0.664-7.6-2.368-11.097
	c-0.292-0.599-0.795-1.095-1.299-1.771c1.899-1.353,3.846-2.61,6.018-3.421c1.853-0.691,3.791-1.153,5.688-1.729
	c2.019-0.611,4.022-1.271,6.05-1.85c4.134-1.178,8.268-0.866,12.392,0.085c0.267,0.062,0.529,0.165,0.799,0.183
	c3.801,0.245,6.762,2.121,9.14,4.926c1.72,2.026,3.321,4.17,4.8,6.38c1.758,2.627,1.725,5.609,0.954,8.521
	c-0.456,1.727-1.817,2.864-3.56,3.432c-1.82,0.592-3.646,1.174-5.799,1.866c-1.334-0.964-3.014-1.847-4.264-3.145
	c-2.853-2.961-6.391-4.393-10.282-5.126c-2.552-0.481-4.784,0.252-6.874,1.891c-2.893,2.268-4.203,5.303-4.929,8.731
	c-0.227,1.071-0.41,2.158-0.722,3.205c-0.992,3.338-1.093,6.771-0.867,10.182c0.214,3.246,1.604,6.131,4.045,8.298
	c0.974,0.863,2.383,1.364,3.68,1.71c3.232,0.863,6.508,0.813,9.74-0.109c2.086-0.596,3.518-2.047,4.746-3.746
	c0.802-1.107,1.503-2.315,2.454-3.276c0.741-0.748,1.733-1.501,2.726-1.703c3.711-0.755,7.199-0.032,10.375,2.105
	c2.286,1.538,2.676,3.758,2.047,6.162c-0.406,1.554-1.251,2.992-1.934,4.562c-1.547-0.254-2.876-0.646-4.208-0.657
	c-4.514-0.04-9.038-0.117-13.54,0.142c-5.39,0.311-10.799,0.705-16.125,1.54C138.479,73.084,135.311,74.22,132.455,76.695z"/>
<path fill-rule="evenodd" clip-rule="evenodd" fill="#7beeef" class="fill" d="M174.202,75.01c1.279,1.172,2.376,2.786,2.261,4.93
	c-0.088,1.634-0.35,3.261-0.593,4.882c-0.289,1.926-1.505,3.03-3.35,3.433c-1.535,0.335-3.083,0.718-4.643,0.82
	c-3.137,0.207-6.286,0.353-9.428,0.301c-2.483-0.04-4.748,0.395-6.913,1.972c-1.353,3.26,0.038,6.558,0.329,9.847
	c1.786,1.659,3.85,1.043,5.768,0.963c2.934-0.122,5.857-0.521,8.79-0.595c1.174-0.028,2.36,0.497,3.572,0.777
	c0.862,2.736,1.63,5.276,1.146,7.994c-0.28,1.574-1.012,2.896-2.729,3.229c-2.679,0.519-5.378,0.921-8.063,1.404
	c-1.662,0.3-3.313,0.658-5.192,1.035c-0.076,1.139-0.259,2.072-0.179,2.982c0.304,3.478,0.777,6.941,1.011,10.422
	c0.108,1.611-0.095,3.264-0.333,4.871c-0.215,1.455-1.42,2.197-2.673,2.587c-3.36,1.044-6.802,1.475-10.312,0.868
	c-0.192-0.033-0.364-0.181-0.608-0.308c-1.06-1.523-1.456-3.342-1.729-5.162c-0.954-6.369-1.424-12.781-1.801-19.211
	c-0.347-5.938-1.126-11.851-1.506-17.788c-0.252-3.951-0.151-7.925-0.18-11.889c-0.009-1.3,0.026-2.604,0.13-3.899
	c0.14-1.746,0.787-2.402,2.527-2.676c6.974-1.093,14.001-1.595,21.048-1.77C164.992,74.921,169.438,75.01,174.202,75.01z"/>
<path fill-rule="evenodd" clip-rule="evenodd" fill="#7beeef" class="fill" d="M57.361,110.267c-3.682,0.199-7.283,0.394-11.125,0.602
	c-0.33-2.543-0.785-4.961-0.931-7.396c-0.292-4.918-0.473-9.846-0.58-14.771c-0.036-1.693,0.273-3.396,0.438-5.093
	c0.168-1.735,1.298-2.665,2.812-3.188c5.133-1.773,10.409-2.956,15.839-3.123c6.001-0.185,11.854,0.832,17.504,2.9
	c3.493,1.278,5.919,3.857,7.302,7.124c2.018,4.768,3.928,9.601,4.723,14.804c0.624,4.084,1.048,8.146,0.224,12.214
	c-0.54,2.663-0.99,5.45-2.155,7.855c-1.842,3.803-4.133,7.432-8.132,9.479c-0.11,0.057-0.265,0.027-0.513,0.048
	c-0.735-4.339-3.659-7.644-5.61-11.74c0.653-0.87,1.367-1.931,2.19-2.898c3.321-3.901,4.028-8.544,3.879-13.437
	c-0.081-2.655-0.992-5.066-2.129-7.435c-1.363-2.84-3.719-4.358-6.501-5.613c-4.989-2.252-10.044-2.454-15.225-1.053
	c-2.958,0.801-4.041,2.47-4.021,5.598c0.029,4.419,1.02,8.688,1.908,12.976c0.084,0.401,0.189,0.799,0.241,1.204
	C57.524,109.513,57.448,109.715,57.361,110.267z"/>
<path fill-rule="evenodd" clip-rule="evenodd" fill="#7beeef" class="fill" d="M113.8,89.874c2.941,0.989,5.552,1.792,8.103,2.753
	c1.652,0.624,3.246,1.426,4.813,2.247c1.659,0.869,2.176,2.462,1.486,4.791c-0.342,1.152-1.045,2.198-1.484,3.087
	c-1.629,0.735-2.842,0.093-4.005-0.404c-1.187-0.508-2.275-1.244-3.408-1.88c-2.515-1.41-5.119-2.139-8.06-1.537
	c-2.434,0.498-4.019,1.987-5.197,3.979c-0.828,1.4-1.434,2.933-2.251,4.64c-1.667-0.159-3.466-0.331-5.401-0.516
	c-0.184-1.696-0.33-3.381-0.558-5.055c-0.239-1.762-0.489-3.528-0.856-5.268c-0.345-1.637-0.848-3.241-1.355-5.137
	C102.13,92.555,108.301,92.573,113.8,89.874z"/>
<path fill-rule="evenodd" clip-rule="evenodd" fill="#7beeef" class="fill" d="M109.073,116.435c0.678,0.207,1.259,0.341,1.807,0.558
	c2.03,0.804,4.031,1.688,6.079,2.444c3.228,1.19,5.079,4.566,4.17,7.853c-0.269,0.97-0.705,1.893-1.083,2.884
	c-3.125,0.264-6.112,0.516-9.04,0.762c-1.566-0.51-1.964-1.8-2.021-3.1c-0.146-3.342-0.145-6.69-0.179-10.036
	C108.804,117.411,108.953,117.022,109.073,116.435z"/>
<path fill-rule="evenodd" clip-rule="evenodd" fill="#7beeef" class="fill" d="M49.316,132.123c3.478-1.6,6.598-1.188,9.769,0.326
	c0.985,1.427,2.256,2.769,2.503,4.878c-3.401,1.102-6.688,1.59-9.979,0.107c-0.611-0.275-1.22-0.951-1.453-1.582
	C49.737,134.726,49.606,133.492,49.316,132.123z"/>
</svg>
