<svg version="1.1" id="svg" xmlns="http://www.w3.org/2000/svg" xmlns:xlink="http://www.w3.org/1999/xlink" x="0px" y="0px"
	 width="200px" height="200px" viewBox="0 0 200 200" enable-background="new 0 0 200 200" xml:space="preserve">
<path class="stroke" fill="#183046"  d="M147.063,47.985c-0.73-0.199-1.046,0.104-1.316,0.386c-1.858,1.931-3.737,3.843-5.532,5.832
	c-2.098,2.324-4.064,4.764-6.47,6.8c-0.614,0.52-1.475,1.042-1.06,2.207c0.993,0.554,1.585,1.598,2.365,2.454
	c2.185,2.402,4.75,4.405,6.972,6.764c0.979,1.04,2.083,1.918,3.368,2.558c0.429,0.214,0.847,0.384,1.223-0.091
	c0.242-2.506,1.023-4.925,1.041-7.53c1.025-0.2,1.903-0.338,2.819-0.22c2.477,0.319,4.953,0.249,7.425-0.053
	c0.649-0.08,1.327-0.118,1.905-0.838c0.105-3.362,0.079-6.862-0.196-10.591c-4.246,0.125-8.361,0.161-12.473-0.279
	C147.405,52.804,147.764,50.329,147.063,47.985z"/>
<path fill-rule="evenodd" clip-rule="evenodd" fill="#fafd30" class="fill" d="M135.501,62.26c3.218-3.152,6.121-6.371,9.219-9.641
	c0.402,1.766-0.045,3.381,0.119,4.917c0.978,0.648,2.005,0.686,3.01,0.602c3.038-0.255,6.068,0.059,9.102,0.048
	c0.297-0.002,0.597,0.031,1.079,0.059c-0.053,2.159-0.391,4.207-0.927,6.222c-3.834,0.79-7.669,0.241-11.417,0.775
	c-1.125,2.081-0.499,4.335-0.948,6.749C141.624,68.661,138.763,65.488,135.501,62.26z"/>
<path class="stroke" fill="#183046"  fill-rule="evenodd" clip-rule="evenodd" d="M179.448,121.691c-1.076,0.076-2.169,0.155-3.263,0.228
	c-3.153,0.212-6.307,0.413-9.46,0.638c-2.132,0.152-4.264,0.313-6.393,0.512c-3.423,0.321-6.84,0.704-10.264,1.007
	c-2.03,0.179-4.074,0.211-6.106,0.381c-2.224,0.188-4.441,0.45-6.661,0.695c-2.908,0.321-5.813,0.658-8.719,0.984
	c-2.365,0.267-4.727,0.571-7.096,0.778c-1.907,0.167-3.827,0.203-5.739,0.315c-1.221,0.073-2.439,0.177-3.732,0.271
	c-0.042,1.346-0.095,2.588-0.118,3.832c-0.063,3.639-0.077,7.277-0.182,10.914c-0.081,2.823-0.287,5.644-0.403,8.467
	c-0.048,1.153,0.045,2.312-0.015,3.463c-0.13,2.481-0.323,4.959-0.48,7.439c-0.043,0.686-0.017,1.377-0.078,2.062
	c-0.097,1.102-0.656,1.854-1.672,2.377c-3.711,1.908-7.749,2.816-11.72,3.934c-2.737,0.771-5.45,1.682-8.236,2.213
	c-3.878,0.739-7.814,1.182-11.724,1.752c-2.649,0.387-5.289,0.91-7.952,1.131c-3.77,0.31-7.557,0.458-11.339,0.564
	c-4.821,0.135-9.537-0.973-14.316-1.362c-1.668-0.136-3.351-0.189-4.997-0.466c-1.958-0.33-3.89-0.831-5.821-1.309
	c-2.334-0.577-4.679-1.133-6.979-1.83c-4.668-1.416-8.975-3.512-12.399-7.107c-0.575-0.604-1.214-1.234-1.525-1.976
	c-0.328-0.779-0.433-1.713-0.399-2.571c0.102-2.497,0.351-4.988,0.486-7.486c0.164-3.021,0.285-6.043,0.396-9.066
	c0.088-2.384,0.108-4.77,0.205-7.153c0.089-2.186,0.279-4.368,0.353-6.555c0.118-3.435,0.167-6.872,0.263-10.309
	c0.031-1.127,0.116-2.252,0.177-3.379c0.061-1.099,0.116-2.199,0.19-3.297c0.018-0.256,0.102-0.509,0.132-0.653
	c0.801-0.364,1.469-0.708,2.167-0.977c1.739-0.671,3.47-1.368,5.242-1.941c2.281-0.738,4.578-1.447,6.906-2.016
	c2.494-0.608,5.033-1.031,7.549-1.549c3.234-0.667,6.507-0.923,9.799-1.061c1-0.04,1.991-0.31,2.992-0.367
	c2.545-0.146,5.094-0.228,7.64-0.343c2.013-0.09,4.025-0.188,6.037-0.294c2.037-0.106,4.074-0.32,6.111-0.32
	c3.236,0,6.479,0.043,9.708,0.249c2.758,0.174,5.528,0.453,8.243,0.959c2.551,0.477,5.047,1.268,7.544,1.998
	c2.587,0.757,5.173,1.535,7.71,2.442c1.635,0.585,3.181,1.419,4.768,2.142c1.337,0.61,2.688,1.193,4.009,1.84
	c0.696,0.341,1.435,0.692,1.64,1.627c2.121-0.222,4.211-0.464,6.306-0.654c1.931-0.175,3.869-0.278,5.802-0.443
	c3.176-0.271,6.349-0.58,9.527-0.846c3.274-0.274,6.552-0.507,9.828-0.773c0.808-0.065,1.61-0.206,2.418-0.283
	c2.91-0.276,5.832-0.458,8.729-0.833c3.255-0.419,6.485-1.037,9.734-1.514c2.374-0.349,4.764-0.589,7.142-0.914
	c2.691-0.366,5.375-0.786,8.065-1.151c0.628-0.086,1.277-0.087,1.912-0.051c2.57,0.149,5.145,0.322,7.448,1.656
	c1.356,0.786,2.359,1.944,2.654,3.47c0.325,1.683-0.177,3.171-2.194,4.046c-1.906,0.827-3.916,1.415-5.867,2.144
	c-1.714,0.642-3.342,1.402-3.706,3.496C179.685,121.104,179.574,121.328,179.448,121.691z M77.023,124.967
	c0.349,15.234,0.694,30.291,1.043,45.499c1.458-0.184,2.825-0.302,4.169-0.537c1.786-0.313,3.548-0.76,5.333-1.072
	c3.161-0.552,6.196-1.519,9.061-2.924c1.371-0.673,2.522-1.781,3.82-2.62c1.754-1.134,2.549-2.941,3.189-4.749
	c0.634-1.788,1.038-3.688,1.292-5.573c0.331-2.454,0.506-4.938,0.582-7.416c0.113-3.657,0.037-7.32,0.122-10.98
	c0.048-2.086,0.304-4.168,0.385-6.254c0.11-2.847,0.147-5.696,0.204-8.545c0.011-0.556-0.029-1.113-0.042-1.568
	c-4.801,1.475-9.538,2.989-14.311,4.378C87.045,124.011,82.081,124.675,77.023,124.967z M37.121,164.395
	c-0.09-1.367-0.232-2.615-0.245-3.865c-0.035-3.438-0.12-6.881,0.011-10.314c0.139-3.635,0.542-7.258,0.754-10.89
	c0.168-2.871,0.225-5.747,0.323-8.622c0.09-2.668,0.168-5.337,0.255-8.095c-0.637-0.193-1.323-0.4-2.11-0.639
	c-0.125,0.812-0.266,1.483-0.324,2.162c-0.188,2.204-0.355,4.41-0.51,6.617c-0.15,2.129-0.37,4.258-0.387,6.389
	c-0.022,2.775,0.166,5.551,0.189,8.328c0.023,2.776-0.001,5.554-0.085,8.329c-0.083,2.723-0.267,5.442-0.408,8.225
	c-0.428,0.097-0.725,0.263-0.966,0.204c-1.387-0.341-2.562-1.066-3.271-2.32c-0.605-1.07-0.437-2.29-0.363-3.467
	c0.1-1.595,0.23-3.189,0.293-4.785c0.066-1.687,0.038-3.377,0.106-5.063c0.096-2.354,0.268-4.705,0.36-7.059
	c0.12-3.072,0.195-6.146,0.287-9.218c0.062-2.103,0.121-4.205,0.182-6.307c0.033-1.104,0.068-2.206,0.102-3.267
	c-3.742-1.36-7.384-2.682-11.123-4.04c-0.105,0.939-0.214,1.788-0.292,2.641c-0.233,2.567-0.516,5.131-0.66,7.704
	c-0.086,1.539,0.054,3.09,0.085,4.637c0.079,3.952,0.042,7.912,0.255,11.857c0.26,4.803,0.682,9.6,1.128,14.392
	c0.181,1.935,1.25,3.499,2.719,4.728c1.088,0.91,2.278,1.701,3.428,2.538c0.792,0.576,1.553,1.208,2.398,1.694
	c2.216,1.275,4.678,1.881,7.147,2.427c1.435,0.319,2.896,0.518,4.343,0.788c1.831,0.339,3.649,0.755,5.49,1.023
	c1.087,0.158,2.206,0.091,3.311,0.125c0.007-0.078,0.012-0.157,0.018-0.236C45.506,168.681,41.09,167.007,37.121,164.395z
	 M112.176,123.15c0.343,0.011,0.564,0.04,0.782,0.021c2.32-0.196,4.64-0.394,6.96-0.603c1.491-0.135,2.981-0.294,4.472-0.438
	c2.151-0.205,4.302-0.417,6.454-0.603c3.622-0.312,7.248-0.576,10.865-0.918c2.642-0.251,5.272-0.628,7.913-0.887
	c2.999-0.295,6.003-0.532,9.007-0.773c1.126-0.091,2.263-0.078,3.386-0.195c2.978-0.312,5.953-0.649,8.925-1.015
	c3.362-0.412,6.744-0.753,9.824-2.364c0.726-0.38,1.5-0.667,2.252-0.997c-2.021,0.22-4.014,0.447-5.985,0.803
	c-1.927,0.349-3.829,0.702-5.73-0.093c-0.15-0.063-0.341-0.055-0.509-0.04c-1.518,0.141-3.039,0.251-4.549,0.446
	c-2.193,0.285-4.373,0.661-6.565,0.946c-2.824,0.369-5.655,0.684-8.481,1.026c-3.56,0.43-7.116,0.9-10.681,1.29
	c-4.08,0.444-8.165,0.827-12.249,1.224c-1.906,0.186-3.813,0.361-5.723,0.502c-2.104,0.155-4.213,0.266-6.32,0.397
	c-1.341,0.083-2.683,0.171-4.146,0.264C112.112,121.838,112.143,122.458,112.176,123.15z M111.944,115.744
	c0.002,0.089,0.003,0.177,0.004,0.267c0.593-0.018,1.189-0.009,1.781-0.058c2.957-0.244,5.913-0.506,8.87-0.755
	c2.589-0.219,5.183-0.399,7.771-0.646c3.885-0.368,7.765-0.78,11.648-1.169c3.713-0.372,7.427-0.737,11.141-1.105
	c1.833-0.183,3.671-0.339,5.5-0.555c2.049-0.24,4.089-0.552,6.138-0.801c2.064-0.25,4.137-0.424,6.197-0.701
	c1.452-0.196,2.88-0.572,4.333-0.751c1.658-0.207,3.33-0.364,4.999-0.396c1.537-0.029,3.093,0.027,4.611,0.249
	c1.69,0.248,2.205,1.743,1.2,3.126c-0.163,0.224-0.333,0.443-0.5,0.665c0.043,0.063,0.086,0.126,0.129,0.19
	c0.717-0.344,1.509-0.586,2.133-1.053c0.935-0.699,0.832-2.049-0.15-2.678c-1.688-1.081-3.565-1.558-5.551-1.39
	c-3.327,0.281-6.653,0.602-9.968,0.994c-4.979,0.588-9.944,1.275-14.921,1.875c-3.414,0.412-6.834,0.773-10.257,1.112
	c-3.008,0.298-6.021,0.543-9.033,0.793c-2.865,0.239-5.737,0.398-8.595,0.694c-3.495,0.364-6.978,0.835-10.465,1.257
	C116.62,115.19,114.283,115.465,111.944,115.744z M94.52,119.55c-0.021-0.053-0.042-0.105-0.064-0.159
	c-2.351,0.482-4.697,0.993-7.055,1.438c-1.784,0.336-3.577,0.649-5.378,0.86c-2.093,0.245-4.197,0.429-6.303,0.526
	c-2.646,0.123-5.298,0.173-7.948,0.176c-1.638,0.002-3.277-0.126-4.913-0.227c-2.446-0.15-4.895-0.282-7.334-0.511
	c-1.805-0.169-3.596-0.48-5.394-0.729c-1.239-0.171-2.483-0.312-3.716-0.518c-1.427-0.24-2.835-0.608-4.268-0.792
	c-3.183-0.409-6.264-1.2-9.251-2.346c-1.053-0.404-2.055-0.603-3.215-0.032c0.324,0.128,0.542,0.241,0.774,0.302
	c1.727,0.466,3.45,0.949,5.188,1.372c2.5,0.609,5,1.242,7.524,1.735c2.698,0.527,5.44,0.824,8.134,1.364
	c4.093,0.822,8.239,0.74,12.373,0.901c1.395,0.054,2.792,0.032,4.188,0.053c1.495,0.023,2.999,0.17,4.484,0.062
	c3.037-0.218,6.079-0.459,9.09-0.896c3.858-0.559,7.69-1.306,11.527-2.005C93.498,120.028,94.001,119.747,94.52,119.55z
	 M185.151,111.436c-1.888-0.745-11.603-0.218-12.997,1.078c-0.139,0.547-0.233,0.917-0.341,1.34c1.014,0.619,2.153,0.576,3.295,0.38
	c2.727-0.465,5.452-0.941,8.17-1.449C184.061,112.638,184.791,112.329,185.151,111.436z M74.615,108.477
	c-0.052,1.652-0.101,3.217-0.153,4.867c0.512,0.099,0.893,0.173,1.382,0.268c0.055-1.721,0.104-3.3,0.156-4.957
	C75.551,108.598,75.079,108.536,74.615,108.477z M71.404,108.341c0.215,1.51-0.237,3.036,0.334,4.552
	c1.354-1.13,1.837-2.845,1.287-4.501C72.542,108.376,72.036,108.36,71.404,108.341z M48.086,108.406
	c-0.046,1.47-0.091,2.889-0.136,4.325c0.384,0.207,0.69,0.373,1.07,0.577c0.727-1.668,0.075-3.281,0.34-4.862
	C48.892,108.432,48.535,108.42,48.086,108.406z M63.284,111.928c0.122,0.013,0.243,0.026,0.364,0.04
	c0.572-1.24,1.773-2.23,1.455-3.874c-0.771,0.028-1.48,0.054-2.084,0.076c0.038,0.582,0.065,1.032,0.098,1.482
	C63.17,110.41,63.228,111.168,63.284,111.928z M93.066,115.211c0.05-1.582,0.095-3.024,0.142-4.533
	c-0.464-0.074-0.854-0.135-1.216-0.192c-0.048,1.529-0.093,2.939-0.14,4.444C92.249,115.022,92.581,115.099,93.066,115.211z
	 M50.484,113.105c0.458-0.045,0.777-0.079,1.057-0.106c0.051-1.625,0.098-3.132,0.146-4.69c-0.453,0.014-0.787,0.026-1.272,0.041
	C50.438,109.932,50.459,111.439,50.484,113.105z M77.675,108.89c-0.047,1.503-0.093,2.922-0.135,4.341
	c-0.015,0.477,0.065,0.879,0.808,0.823c0.192-1.707,0.38-3.386,0.575-5.125C78.385,108.912,77.98,108.899,77.675,108.89z
	 M87.714,109.749c-0.053,1.694-0.104,3.283-0.155,4.926c0.393,0.033,0.643,0.055,0.944,0.08c0.052-1.68,0.102-3.271,0.154-4.907
	C88.255,109.808,87.997,109.779,87.714,109.749z M45.62,111.177c0.132,0.854,0.235,1.514,0.347,2.24
	c0.362-0.066,0.59-0.108,0.782-0.143c0.05-1.609,0.098-3.139,0.149-4.771c-0.432,0.056-0.78,0.099-1.199,0.154
	C45.67,109.595,45.642,110.489,45.62,111.177z M83.722,113.819c0.099-1.528,0.849-2.9,0.354-4.417
	c-0.381-0.012-0.739-0.023-1.2-0.038c-0.005,1.481-0.404,2.925,0.156,4.387C83.238,113.771,83.424,113.79,83.722,113.819z
	 M69.129,112.643c1.293-1.326,1.375-2.811,0.97-4.42c-0.349-0.012-0.697-0.022-1.052-0.033
	C68.743,109.704,68.651,111.138,69.129,112.643z M85.493,109.564c-0.05,1.6-0.098,3.155-0.148,4.716
	c0.264,0.138,0.447,0.235,0.742,0.391c0.579-1.721,0.419-3.377,0.301-5.079C86.037,109.581,85.756,109.573,85.493,109.564z
	 M80.163,113.198c0.23,0.11,0.441,0.211,0.725,0.348c0.418-1.464,0.895-2.833,0.605-4.365c-0.405-0.012-0.763-0.023-1.204-0.037
	C80.248,110.487,80.207,111.794,80.163,113.198z M95.075,115.732c0.763-1.608,0.352-3.111,0.385-4.62
	c-0.379-0.069-0.66-0.121-1.049-0.192C94.272,112.562,93.899,114.154,95.075,115.732z M56.876,108.187
	c-0.382,0.006-0.759,0.011-1.307,0.018c0.272,1.442-0.564,2.876,0.367,4.322c0.331-0.421,0.762-0.722,0.805-1.069
	C56.866,110.421,56.838,109.366,56.876,108.187z M66.329,108.058c0.207,1.57-0.361,3.095,0.36,4.473
	c0.125,0.006,0.25,0.013,0.375,0.02c0.27-1.459,0.541-2.919,0.823-4.445C67.267,108.087,66.838,108.073,66.329,108.058z
	 M43.469,113.333c0.527-0.165,0.833-0.261,1.095-0.343c-0.027-1.431-0.051-2.762-0.078-4.209c-0.47,0.102-0.808,0.174-1.201,0.259
	C43.346,110.463,43.403,111.797,43.469,113.333z M36.986,114.267c0.974-0.807,1.187-3.179,0.915-4.915
	c-0.387,0.038-0.777,0.076-1.299,0.125c0.427,1.41,0.458,2.68,0.103,3.962C36.647,113.646,36.864,113.929,36.986,114.267z
	 M60.505,111.799c0.106,0.062,0.212,0.124,0.317,0.187c0.198-0.176,0.515-0.32,0.574-0.534c0.291-1.049,0.513-2.117,0.797-3.344
	c-0.654,0.032-1.211,0.059-1.773,0.085C60.451,109.477,60.479,110.638,60.505,111.799z M89.857,110.168
	c-0.047,1.5-0.119,2.959-0.111,4.417c0.001,0.233,0.355,0.465,0.546,0.697c0.081-0.049,0.162-0.097,0.244-0.146
	c0.011-1.637,0.543-3.263,0.106-4.944C90.335,110.184,90.1,110.176,89.857,110.168z M54.542,108.379
	c-0.588-0.018-1.035-0.032-1.469-0.046c-0.584,1.386-0.075,2.655,0.205,4.031C54.318,111.201,53.905,109.716,54.542,108.379z
	 M35.59,109.737c-0.303,0.022-0.553,0.041-0.893,0.065c-0.041,1.322-0.081,2.568-0.123,3.91c0.102,0.069,0.292,0.202,0.555,0.383
	C35.823,112.671,35.611,111.233,35.59,109.737z M38.932,114.338c0.079,0.067,0.158,0.136,0.237,0.203
	c0.157-0.182,0.356-0.345,0.459-0.555c0.081-0.162-0.024-0.424,0.067-0.57c0.807-1.291,0.339-2.674,0.319-4.022
	c-0.001-0.062-0.071-0.122-0.129-0.213c-0.153,0.032-0.309,0.064-0.361,0.075C39.32,111.004,39.126,112.671,38.932,114.338z
	 M59.58,108.218c-0.639-0.02-0.969-0.031-1.358-0.043c-0.329,1.235-0.315,2.434-0.069,3.63c0.12,0.019,0.239,0.037,0.359,0.056
	C58.853,110.699,59.193,109.537,59.58,108.218z M41.283,114.071c0.125,0.006,0.25,0.012,0.376,0.017
	c0.166-1.646,0.333-3.292,0.502-4.97c-0.184-0.018-0.303-0.044-0.421-0.037c-0.143,0.008-0.285,0.045-0.593,0.096
	C41.193,110.811,41.238,112.441,41.283,114.071z M97.627,111.397c-0.514-0.067-0.805-0.105-1.178-0.154
	c0.101,1.527,0.195,2.941,0.288,4.354c0.129,0.001,0.259,0.003,0.389,0.005C97.287,114.247,97.449,112.892,97.627,111.397z
	 M98.634,111.699c-0.172,2.649-0.125,3.272,0.429,3.687c-0.133-1.272,0.941-2.215,0.443-3.515
	C99.244,111.82,98.965,111.765,98.634,111.699z M32.405,113.592c0.102,0.023,0.204,0.048,0.306,0.071
	c0.247-1.194,0.494-2.39,0.756-3.658c-0.275,0.015-0.576,0.03-0.952,0.05C32.477,111.275,32.44,112.434,32.405,113.592z
	 M30.534,113.849c0.608-1.053,0.401-2.239,0.57-3.406C30.392,110.657,30.392,110.657,30.534,113.849z M101.661,112.491
	c-0.327-0.089-0.674-0.185-1.096-0.3c0.087,0.877,0.158,1.582,0.228,2.287c0.038,0.006,0.075,0.011,0.113,0.017
	C101.14,113.874,101.373,113.254,101.661,112.491z M102.942,112.876c-0.076,0.059-0.152,0.117-0.228,0.176
	c0.144,0.433,0.288,0.865,0.432,1.298c0.101-0.016,0.201-0.033,0.302-0.049c0.107-0.353,0.213-0.705,0.34-1.122
	C103.458,113.061,103.199,112.968,102.942,112.876z"/>
<path class="stroke" fill="#183046"  d="M120.853,58.495c-1.316-2.706-2.891-5.194-4.847-7.465c-1.557-1.807-3.344-3.384-5.339-4.638
	c-2.119-1.332-4.413-2.396-6.669-3.497c-1.634-0.798-3.307-1.531-5.005-2.178c-1.756-0.669-3.62-1.072-5.335-1.819
	c-2.292-0.999-4.68-1.545-7.106-2.011c-0.276-0.053-0.535-0.193-0.803-0.292c0.086-0.031,0.173-0.06,0.259-0.089
	c0.054-0.737,0.238-1.491,0.139-2.207c-0.432-3.103-2.406-5.179-5.005-6.548c-2.518-1.328-5.231-2.246-8.136-2.468
	c-3.639-0.277-7.201-0.05-10.558,1.495c-1.78,0.819-3.208,2.008-3.087,4.307c-0.785,0.075-1.54,0.184-2.298,0.212
	c-2.818,0.102-5.639,0.153-8.456,0.268c-2.364,0.097-4.73,0.195-7.086,0.407s-4.659,0.703-6.92,1.46
	c-1.822,0.611-3.745,0.912-5.597,1.444c-2.786,0.8-5.389,2.045-7.63,3.883c-1.467,1.203-2.767,2.621-4.074,4.006
	c-2.89,3.062-4.842,6.576-5.056,10.894c-0.115,2.308-0.045,4.618,0.648,6.822c0.716,2.272,2.228,4.103,3.839,5.811
	c2.364,2.507,5.205,4.358,8.283,5.881c1.752,0.866,3.434,1.875,5.185,2.744c2.394,1.189,4.762,2.468,7.253,3.413
	c3.084,1.171,6.27,2.086,9.437,3.025c2.262,0.672,4.547,1.287,6.855,1.769c2.088,0.436,4.225,0.638,6.334,0.98
	c2.684,0.437,5.348,1.074,8.047,1.327c2.939,0.275,5.91,0.271,8.868,0.278c4.865,0.011,9.725-0.104,14.541-0.959
	c2.526-0.449,5.093-0.677,7.61-1.17c2.064-0.405,4.164-0.853,6.098-1.646c2.646-1.086,5.167-2.482,7.708-3.81
	c2.831-1.479,4.855-3.849,6.658-6.397c1.054-1.491,1.599-3.239,1.933-5.035C122.059,63.901,122.166,61.194,120.853,58.495z"/>
<path fill-rule="evenodd" clip-rule="evenodd" fill="#fafd30" class="fill" d="M21.18,54.154c-0.068,0.061-0.217,0.194-0.432,0.386
	c-0.108-0.207-0.253-0.367-0.273-0.541c-0.108-0.962-0.3-1.934-0.252-2.892c0.112-2.266,0.783-4.35,2.172-6.206
	c1.13-1.509,2.665-2.363,4.303-3.171c3.434-1.694,7.119-2.623,10.793-3.518c2.936-0.715,5.959-1.089,8.959-1.503
	c1.986-0.274,3.999-0.355,6.001-0.516c1.59-0.127,3.181-0.338,4.771-0.337c1.385,0,2.77,0.245,4,0.367
	c0.359,0.491,0.582,0.795,0.862,1.179c0.367,2.388,1.698,4.824,0.237,7.501c-2.706,0.281-5.484,0.599-8.27,0.853
	c-4.774,0.436-9.52,1.009-14.114,2.469c-3.444,1.094-6.9,2.148-10.334,3.271c-2.345,0.766-4.658,1.629-6.994,2.423
	C22.214,54.055,21.773,54.062,21.18,54.154z"/>
<path fill-rule="evenodd" clip-rule="evenodd" fill="#fafd30" class="fill" d="M113.729,63.538c-10.434-8.392-22.175-14.024-35.366-16.679
	c0.378-2.692,1.794-4.674,3.69-6.541c1.606,0.453,3.247,0.819,4.819,1.378c2.995,1.065,5.948,2.247,8.924,3.367
	c3.918,1.475,7.525,3.523,10.847,6.049c2.331,1.772,4.252,3.978,5.783,6.46c1.024,1.66,1.524,3.552,1.417,5.55
	c-0.005,0.103-0.015,0.204-0.036,0.303C113.799,63.467,113.754,63.502,113.729,63.538z"/>
<path fill-rule="evenodd" clip-rule="evenodd" fill="#fafd30" class="fill" d="M68.651,80.424c0.766-0.022,1.536-0.104,2.298-0.056
	c1.855,0.118,3.706,0.329,5.562,0.439c1.752,0.104,3.516,0.245,5.264,0.158c3.332-0.165,6.668-0.379,9.981-0.761
	c3.256-0.375,6.498-0.914,9.721-1.514c2.193-0.408,4.143-1.506,6.118-2.521c1.909-0.982,3.579-2.244,5.026-3.801
	c2.174-2.34,3.414-5.039,3.348-8.328c-0.044-2.224-0.297-4.385-1.185-6.413c-0.803-1.833-2.072-3.373-3.515-4.757
	c-2.108-2.021-4.309-3.923-6.953-5.237c-0.293-0.146-0.556-0.354-0.943-0.605c0.747-0.42,1.465-0.562,2.139-0.233
	c2.145,1.049,4.352,2.017,6.364,3.288c3.95,2.497,6.115,6.243,7.215,10.751c0.749,3.069,0.055,5.827-1.321,8.461
	c-1.965,3.764-4.761,6.758-8.599,8.728c-2.219,1.139-4.586,1.781-6.979,2.377c-0.837,0.208-1.665,0.48-2.514,0.606
	c-3.673,0.545-7.38,0.902-11.021,1.604c-3.416,0.658-6.854,0.52-10.28,0.671c-1.993,0.087-4.005-0.299-6.009-0.474
	c-0.329-0.028-0.669-0.134-0.984-0.083c-1.028,0.169-1.764-0.402-2.476-0.964c-0.256-0.202-0.33-0.634-0.487-0.961
	C68.498,80.674,68.575,80.549,68.651,80.424z"/>
<path fill-rule="evenodd" clip-rule="evenodd" fill="#fafd30" class="fill" d="M42.735,35.961c-1.07,0.196-2.134,0.437-3.211,0.58
	c-3.738,0.496-7.298,1.691-10.827,2.918c-1.944,0.677-3.873,1.642-5.521,2.863c-2.052,1.519-3.242,3.812-4.232,6.167
	c-0.507,1.207-0.96,2.407-1.002,3.738c-0.016,0.472-0.185,0.939-0.385,1.405c0.222,1.273,0.363,2.568,0.686,3.816
	c0.506,1.961,1.754,3.497,3.178,4.875c0.963,0.933,2.035,1.755,3.007,2.682c0.381,0.362,0.621,0.872,0.921,1.309
	c-0.784,1.093-1.949,0.848-2.823,1.332c-1.359-1.027-2.906-1.83-3.948-3.06c-2.01-2.375-3.648-4.998-3.947-8.275
	c-0.251-2.75,0.002-5.397,1.085-7.918c0.474-1.104,1.13-2.172,1.892-3.101c1.453-1.77,3.055-3.42,5.023-4.638
	c2.754-1.702,5.718-2.897,8.914-3.468c2.582-0.462,5.168-0.893,7.754-1.331c0.828-0.14,1.656-0.288,2.491-0.37
	c0.312-0.031,0.641,0.118,0.962,0.184C42.746,35.767,42.741,35.865,42.735,35.961z"/>
<path fill-rule="evenodd" clip-rule="evenodd" fill="#fafd30" class="fill" d="M109.524,70.673c-0.129,0.263-0.175,0.538-0.337,0.659
	c-1.641,1.226-3.371,2.353-5.351,2.896c-2.893,0.794-5.807,1.571-8.761,2.062c-2.729,0.454-5.519,0.608-8.289,0.739
	c-3.099,0.147-6.211,0.257-9.308,0.138c-4.551-0.176-9.097-0.409-13.573-1.5c-3.255-0.793-6.53-1.466-9.728-2.5
	c-2.562-0.829-5.229-1.326-7.803-2.123c-3.083-0.955-6.137-2.011-9.163-3.134c-3.545-1.316-6.743-3.326-9.956-5.283
	c-0.876-0.534-1.614-1.292-2.515-2.031c0.382-0.249,0.664-0.432,0.748-0.486c2.818,1.686,5.47,3.337,8.188,4.871
	c1.454,0.82,3.002,1.485,4.542,2.137c2.477,1.048,4.954,2.105,7.484,3.01c1.424,0.508,2.961,0.693,4.435,1.07
	c2.241,0.575,4.467,1.21,6.709,1.782c1.4,0.356,2.812,0.669,4.229,0.952c2.767,0.552,5.53,1.142,8.316,1.576
	c2.26,0.353,4.547,0.641,6.831,0.706c3.659,0.104,7.327,0.09,10.985-0.055c2.051-0.08,4.093-0.488,6.128-0.812
	c2.386-0.379,4.79-0.707,7.131-1.281c1.942-0.477,3.814-1.252,5.696-1.948C107.224,71.727,108.244,71.229,109.524,70.673z"/>
<path fill-rule="evenodd" clip-rule="evenodd" fill="#fafd30" class="fill" d="M72.98,47.791c-0.089-0.317-0.143-0.506-0.19-0.674
	c-0.803-0.307-1.576-0.602-2.348-0.896c-0.007-0.075-0.014-0.15-0.021-0.225c1.499-0.143,2.746-0.681,3.701-2.171
	c-1.215-0.362-2.242-0.667-3.27-0.974c0.017-0.055,0.034-0.109,0.052-0.164c0.747-0.254,1.499-0.494,2.239-0.768
	c0.258-0.095,0.514-0.24,0.725-0.416c0.575-0.482,0.474-1.07-0.221-1.357c-0.363-0.149-0.738-0.273-1.243-0.459
	c0.613-0.235,1.068-0.44,1.543-0.584c0.594-0.18,0.807-0.555,0.658-1.172c1.559-0.262,3.084-0.52,4.671-0.788
	c0.401,0.147,0.87,0.319,1.466,0.538c-0.488,0.463-0.888,0.874-1.32,1.247c-1.521,1.314-2.296,3.083-2.989,4.897
	c-0.361,0.945-0.664,1.913-1.028,2.857c-0.072,0.187-0.276,0.381-0.464,0.454C74.328,47.375,73.694,47.559,72.98,47.791z"/>
<path fill-rule="evenodd" clip-rule="evenodd" fill="#fafd30" class="fill" d="M78.975,34.151c-2.536,1.94-10.979,0.925-13.582-2.612
	C69.686,33.994,74.053,35.04,78.975,34.151z"/>
<path fill-rule="evenodd" clip-rule="evenodd" fill="#fafd30" class="fill" d="M65.463,30.087c4.187,1.767,8.424,3.305,13.083,2.951
	C74.797,34.414,67.984,32.567,65.463,30.087z"/>
<path fill-rule="evenodd" clip-rule="evenodd" fill="#fafd30" class="fill" d="M68.349,29.102c2.899,1.153,5.97,1.12,9.02,1.232
	C75.622,31.048,69.962,30.278,68.349,29.102z"/>
<path fill-rule="evenodd" clip-rule="evenodd" fill="#fafd30" class="fill" d="M79.889,31.639c-1.025,0.48-3.995,0.501-6.598-0.139
	C75.478,32.138,77.706,31.104,79.889,31.639z"/>
</svg>
