<svg version="1.1" id="svg" xmlns="http://www.w3.org/2000/svg" xmlns:xlink="http://www.w3.org/1999/xlink" x="0px" y="0px"
	 width="200px" height="200px" viewBox="0 0 200 200" enable-background="new 0 0 200 200" xml:space="preserve">
<path class="stroke" fill="#2a374b"  d="M135.919,81.635c-0.843-4.769-3.045-8.961-6.348-12.347c-2.635-2.701-5.956-4.74-9.494-6.21
	c-5.305-2.207-10.812-2.735-16.42-1.393c-2.602,0.624-5.204,1.327-7.706,2.263c-3.287,1.23-6.586,2.516-9.677,4.159
	c-3.944,2.096-7.152,5.156-9.667,8.879c-2.073,3.067-3.805,6.33-4.769,9.91c-0.65,2.417-1.163,4.905-1.389,7.391
	c-0.435,4.781-0.63,9.584-0.91,14.38c-0.058,1.004,0.034,2.022-0.085,3.017c-0.522,4.361-0.34,8.698,0.373,13.018
	c0.308,1.867,0.682,3.729,1.133,5.566c0.327,1.336,0.83,2.63,1.208,3.798c3.263,0.903,6.932,0.838,15.734-0.202
	c1.044-1.511,2.135-2.998,3.115-4.553c0.335-0.531,0.571-1.241,0.554-1.862c-0.079-3.07-0.191-6.141-0.417-9.203
	c-0.333-4.514-0.696-9.023-0.562-13.554c0.086-2.906,0.389-5.778,0.925-8.646c0.47-2.516,1.384-4.808,2.752-6.938
	c1.282-1.998,3.243-3.242,5.236-4.353c3.075-1.712,6.893-0.836,9.226,1.816c2.571,2.925,3.515,6.479,3.825,10.18
	c0.25,2.99,0.125,6.021,0.035,9.029c-0.189,6.252-0.333,12.503-1.308,18.709c-0.387,2.463-0.329,4.998-0.46,7.277
	c0.971,1.422,2.107,1.299,3.139,1.428c3.437,0.431,6.881,0.811,10.31,1.288c0.85,0.118,1.549,0.024,2.183-0.52
	c1.274-1.09,2.579-2.148,3.796-3.298c1.514-1.429,2.834-3.037,3.193-5.166c0.632-3.748,1.369-7.491,1.728-11.268
	c0.607-6.395,1.044-12.809,1.378-19.224C136.783,90.543,136.701,86.065,135.919,81.635z"/>
<path fill-rule="evenodd" clip-rule="evenodd" fill="#CB2229" d="M133.494,112.21c-4.644-0.279-9.077-0.546-13.675-0.824
	c-0.031-0.49-0.096-1.028-0.094-1.566c0.016-4.36,0.162-8.724,0.023-13.078c-0.081-2.551-0.422-5.13-0.974-7.624
	c-1.205-5.444-5.162-8.076-10.338-8.832c-0.488-0.072-0.974-0.16-1.617-0.267c-0.08-5.192-0.242-10.297,0.16-15.484
	c0.545-0.128,0.968-0.328,1.379-0.308c3.178,0.153,6.37,0.253,9.428,1.284c2.798,0.944,5.087,2.758,7.472,4.407
	c2.287,1.581,4.168,3.543,5.472,6.015c1.549,2.938,2.666,6.045,3.15,9.327c0.44,2.979,0.91,5.99,0.913,8.988
	c0.006,4.07-0.39,8.144-0.671,12.212C133.995,108.29,133.728,110.11,133.494,112.21z"/>
<path fill-rule="evenodd" clip-rule="evenodd" fill="#2587DF" d="M104.823,64.364c0,5.453,0,10.512,0,15.634
	c-0.904,0.219-1.65,0.415-2.404,0.58c-3.709,0.815-6.656,2.725-8.85,5.87c-2.496,3.579-3.813,7.541-4.277,11.841
	c-0.433,4.009-0.764,8.018-0.495,12.056c0.055,0.828,0.008,1.664,0.008,2.684c-4.452,0.5-8.842,0.995-13.475,1.516
	c-0.079-2.087-0.271-4.03-0.199-5.964c0.151-4.069,0.29-8.149,0.722-12.193c0.313-2.93,1.138-5.802,1.645-8.716
	c0.525-3.017,1.677-5.803,3.273-8.352c2.836-4.531,6.096-8.728,11.128-11.051c1.564-0.722,3.238-1.228,4.896-1.715
	C99.406,65.785,102.047,65.115,104.823,64.364z"/>
<path fill-rule="evenodd" clip-rule="evenodd" fill="#eef9fc" class="fill" d="M130.695,127.368c-4.084-0.25-7.999-0.491-12.06-0.74
	c0.309-4.402,0.617-8.778,0.921-13.118c1.555-0.618,11.237-0.257,13.778,0.524C133.032,118.574,131.716,122.931,130.695,127.368z"/>
<path fill-rule="evenodd" clip-rule="evenodd" fill="#eef9fc" class="fill" d="M88.893,114.551c0.538,4.16,0.698,8.204,0.853,12.434
	c-4.132,0.44-8.149,0.87-12.319,1.315c-1.1-3.926-1.58-7.865-1.829-11.987C79.986,115.157,84.414,115.294,88.893,114.551z"/>
<path fill-rule="evenodd" clip-rule="evenodd" fill="#2587DF" d="M73.448,115.71c-0.601,0.754-1.284,1.612-2.21,2.775
	c-0.322-1.481-0.32-2.626-0.267-3.747c0.268-5.579,0.462-11.166,0.923-16.729c0.28-3.377,0.997-6.719,1.52-10.075
	c0.034-0.221,0.065-0.451,0.15-0.652c2.266-5.314,4.698-10.522,9.281-14.337c0.126-0.105,0.276-0.184,0.563-0.178
	c-0.144,0.222-0.266,0.46-0.433,0.661c-4.077,4.922-6.78,10.469-7.737,16.826c-0.424,2.812-0.995,5.605-1.315,8.428
	c-0.289,2.547-0.395,5.121-0.458,7.687C73.391,109.428,73.448,112.491,73.448,115.71z"/>
<path fill-rule="evenodd" clip-rule="evenodd" fill="#CB2229" d="M114.457,115.587c0.134-4.186,0.369-8.031,0.348-11.876
	c-0.021-3.835-0.3-7.668-0.469-11.575c0.252,0.146,0.638,0.26,0.858,0.516c1.508,1.755,2.793,3.598,2.768,6.085
	c-0.045,4.578-0.013,9.157-0.013,13.692C116.931,113.654,115.873,114.629,114.457,115.587z"/>
<path fill-rule="evenodd" clip-rule="evenodd" fill="#eef9fc" class="fill" d="M112.97,129.928c0.413-3.968,0.826-7.935,1.267-12.179
	c0.841-0.837,1.816-1.808,2.84-2.828c0.69,1.421,0.315,7.794-0.652,12.463c-0.947,0.862-1.989,1.812-3.032,2.76
	C113.252,130.072,113.111,130,112.97,129.928z"/>
<path fill-rule="evenodd" clip-rule="evenodd" fill="#eef9fc" class="fill" d="M71.246,120.587c0.649-0.945,1.36-1.979,2.289-3.33
	c0.665,2.267,0.719,4.2,1.017,6.088c0.304,1.928,0.574,3.86,0.891,6.003c-0.528,0.805-1.151,1.753-1.825,2.778
	C72.514,130.314,71.83,126.926,71.246,120.587z"/>
</svg>
