<svg version="1.1" id="svg" xmlns="http://www.w3.org/2000/svg" xmlns:xlink="http://www.w3.org/1999/xlink" x="0px" y="0px"
	 width="200px" height="200px" viewBox="0 0 200 200" enable-background="new 0 0 200 200" xml:space="preserve">
<path class="stroke" fill="#2a374b"  fill-rule="evenodd" clip-rule="evenodd" d="M80.344,136.687c-0.023-0.688-0.046-1.307-0.068-1.911
	c2.855-3.432,11.148-4.614,15.542-1.371c0.1,0.604,0.207,1.268,0.34,2.076c1.226-0.231,2.351-0.444,3.632-0.687
	c0.32-4.737,0.637-9.403,0.974-14.377c-0.662,0.355-1.074,0.546-1.456,0.784c-2.157,1.349-4.422,1.893-7.04,2.015
	c-3.966,0.183-6.936-1.638-9.939-3.635c-4.835-3.214-9.879-6.004-15.343-8.015c-2.131-0.785-4.217-1.694-6.45-2.598
	c-0.105-2.072-0.202-4.006-0.306-6.081c0.626-1.319,2.117-1.488,3.328-2.049c0.812-0.376,1.688-0.619,2.539-0.906
	c3.41-1.151,6.835-2.257,10.227-3.456c2.898-1.024,5.761-2.146,8.634-3.239c1.034-0.395,2.054-0.83,3.131-1.268
	c0.028-1.229,0.054-2.37,0.079-3.475c-1.508,0.634-2.955,1.399-4.493,1.844c-1.551,0.45-3.16,0.09-4.714-0.302
	c-1.716-0.433-2.895-1.488-3.38-3.055c-2.073,0.121-3.962,0.231-5.858,0.342c-0.98-1.923-1.916-3.755-2.795-5.479
	c0.813-3.143,3.486-4.178,5.863-5.535c0.721-0.413,1.447-0.813,2.33-1.308c-0.881-0.55-1.545-0.964-2.221-1.385
	c-0.3-1.716,0.631-2.833,1.896-4.021c1.969,0.141,4.07,0.292,6.197,0.444c-0.1-1.383-0.343-2.736-0.264-4.069
	c0.184-3.125,1.232-5.786,3.893-7.811c2.795-2.126,5.944-2.914,9.284-3.343c0.683-0.088,1.365-0.189,2.192-0.306
	c2.533-2.875,5.131-5.815,7.718-8.764c3.643-4.149,7.238-8.339,10.937-12.44c1.23-1.366,2.708-2.508,3.987-3.674
	c4.871,0.847,9.276,4.835,9.678,8.791c-7.226,8.733-15.817,16.346-23.533,25.021c-0.001,0.011-0.015,0.22,0.016,0.424
	c0.022,0.151,0.106,0.294,0.237,0.637c2.518,0.602,5.142,1.219,7.76,1.856c4.488,1.091,8.908,2.396,13.209,4.107
	c4.354,1.732,8.08,4.414,11.617,7.409c0.975,0.827,1.504,1.885,1.799,3.111c0.6,2.495,0.434,4.991-0.17,7.422
	c-0.932,3.756-1.991,7.485-3.131,11.185c-0.573,1.865-1.461,3.63-2.168,5.456c-0.519,1.331-0.973,2.684-1.524,4.213
	c1.534,0.462,2.958,1.003,4.432,1.308c1.812,0.375,3.477,1.07,4.907,2.178c3.334,2.585,4.707,8.132,2.31,11.586
	c-1.378,1.983-2.954,3.756-5.236,4.759c-0.381,0.168-0.719,0.433-1.351,0.823c-1.695-0.189-3.627-0.406-5.679-0.635
	c-0.016,0.689-0.032,1.397-0.049,2.156c1.83,0.606,3.632,1.201,5.575,1.843c0.087,1.584,0.217,3.108,0.239,4.634
	c0.025,1.526-0.056,3.053-0.091,4.645c2.234,0.791,4.38,1.55,6.525,2.308c0.199,0.07,0.409,0.112,0.609,0.185
	c2.09,0.753,2.418,1.243,2.152,3.426c-0.234,1.938-0.526,3.871-0.775,5.67c-0.585,0.36-0.944,0.581-1.409,0.867
	c-0.061,0.604-0.092,1.29-0.204,1.963c-0.111,0.666-0.307,1.317-0.485,2.061c-0.898,0.035-1.68,0.065-2.597,0.1
	c-0.354-0.199-0.811-0.453-1.327-0.743c-0.201-0.691-0.408-1.395-0.64-2.19c-0.254,0.015-0.514-0.005-0.757,0.048
	c-3.418,0.751-6.858,1.412-10.245,2.293c-6.316,1.644-12.594,3.44-18.903,5.124c-3.996,1.068-8.025,2.018-12.024,3.08
	c-2.041,0.542-4.046,1.218-6.095,1.842c-0.306,1.429-0.573,2.693-0.858,4.024c-1.228-0.027-2.272-0.051-3.543-0.08
	c-0.193-0.553-0.426-1.224-0.668-1.918c-0.059-0.041-0.144-0.147-0.233-0.151c-2.66-0.108-5.017-1.194-7.429-2.181
	c-3.34-1.365-6.754-2.541-10.127-3.824c-1.338-0.508-2.647-1.09-3.973-1.632c-0.425-0.173-0.855-0.323-1.38-0.52
	c-0.198,0.753-0.354,1.354-0.506,1.929c-1.05,0.168-1.61,0.02-3.855-1.018c0.021-0.942,0.044-1.936,0.068-3.036
	c-0.475-0.072-0.855-0.129-1.389-0.21c-0.71-3.026-1.13-6.088-0.364-9.146c1.501-2.257,3.75-3.323,6.084-4.256
	c2.021-0.807,4.063-1.558,6.071-2.395c1.974-0.822,3.851-1.786,4.921-3.811c0.293-0.557,0.762-1.019,1.133-1.538
	c0.938-1.299,2.225-1.918,3.8-2.008C79.523,136.803,79.882,136.742,80.344,136.687z M112.562,82.081
	c-3.469-3.188-7.325-5.836-11.262-8.313c-0.883,0.51-1.599,0.923-2.334,1.348c2.516,1.636,4.943,3.216,7.254,4.72
	c0.352,1.28-0.213,2.116-0.711,3.004c-0.805,1.437-2.386,0.865-3.664,1.478c-0.206,3.437-0.415,6.913-0.616,10.266
	c1.405,1.386,7.849,4.92,9.586,5.283C111.394,93.979,111.971,88.105,112.562,82.081z"/>
<path fill-rule="evenodd" clip-rule="evenodd" fill="#eef9fc" class="fill" d="M102.824,152.569c-2.932,1.695-5.872,3.371-9.121,4.413
	c-0.545,0.175-1.088,0.361-1.617,0.537c0.031,0.723,0.404,0.817,0.875,0.666c1.66-0.534,3.363-0.974,4.959-1.662
	c3.649-1.576,7.214-3.353,10.873-4.905c3.461-1.469,6.996-2.767,10.508-4.115c0.787-0.302,1.614-0.5,2.58-0.795
	c0.266,0.182,0.637,0.437,1.044,0.716c-3.103,1.076-6.101,2.098-9.086,3.157c-1.849,0.655-3.673,1.378-5.517,2.047
	c-2.762,1.002-5.313,2.409-7.76,4.014c-0.401,0.262-0.785,0.547-1.174,0.823c-2.906,2.06-6.175,3.292-9.638,3.943
	c-2.34,0.439-4.652-0.185-6.903-0.779c-3.037-0.802-5.809-2.285-8.627-3.637c-2.392-1.147-4.772-2.33-7.217-3.355
	c-1.457-0.612-3.045-0.908-4.543-1.431c-0.771-0.269-1.479-0.726-2.237-1.11c0.952-1.346,7.744-4.652,10.533-5.234
	c0.18,0.711-0.259,1.626,0.802,2.229c0.917-1.319,1.79-2.678,2.771-3.953c0.977-1.267,1.562-2.866,3.182-3.911
	c-0.029,1.449,0.484,2.506,1.188,3.521c0.746,1.074,1.748,1.661,2.982,1.954c5.229,1.245,10.301,0.692,15.32-1.137
	c2.285-0.833,4.687-1.346,7.019-2.055c1.773-0.539,3.534-1.123,5.272-1.763c0.631-0.231,1.177-0.685,1.826-1.076
	c0.015-0.628,0.139-1.225,0.021-1.77c-0.674-3.163-0.25-6.343-0.22-9.515c0.025-2.546,0.083-5.09,0.115-7.635
	c0.021-1.594-0.01-3.188,0.054-4.78c0.022-0.564,0.256-1.121,0.398-1.705c2.266-1.105,4.482-2.187,7.014-3.421
	c-0.322,4.875-0.621,9.382-0.918,13.875c-4.778,0.881-6.246,4.303-3.635,8.81c0.776,0.264,1.701,0.684,2.671,0.888
	c2.385,0.503,4.792,0.894,7.184,1.356c2.146,0.416,3.924,0.046,4.816-2.196c1.258,0.55,2.419,1.057,3.759,1.643
	c0.517,2.135,0.242,4.414,0.643,6.728c-1.778,0.133-3.352,0.269-4.927,0.363c-3.073,0.183-6.151,0.288-9.217,0.542
	c-1.092,0.09-2.192,0.418-3.219,0.814c-4.505,1.737-8.967,3.584-13.479,5.301c-2.58,0.981-5.25,1.679-8.024,1.892
	c-0.528,0.04-1.052,0.129-1.575,0.214c-4.327,0.704-8.446-0.229-12.473-1.688c-0.676-0.245-1.187-0.944-1.847-1.493
	c-0.673,0.16-0.688,0.708-0.599,1.322c0.245,1.661,1.567,3.048,3.304,3.489c5.397,1.371,10.81,1.405,16.235,0.189
	c0.236-0.052,0.486-0.043,1.108-0.093c-2.535,1.649-5.088,2.053-7.565,2.431c-0.051,0.85,0.398,0.946,0.825,0.877
	c1.457-0.233,2.956-0.367,4.342-0.827c1.854-0.616,3.613-1.516,5.427-2.262c0.482-0.199,1.016-0.276,1.525-0.409L102.824,152.569z"
	/>
<path fill-rule="evenodd" clip-rule="evenodd" fill="#eef9fc" class="fill" d="M122.227,125.232c-0.979-0.257-1.726-0.453-2.655-0.697
	c-0.015-0.526-0.065-1.087-0.043-1.646c0.168-4.135,0.37-8.268,0.517-12.403c0.056-1.586-0.028-3.177-0.004-4.764
	c0.085-5.622,0.154-11.244,0.299-16.863c0.068-2.648,0.297-5.291,0.469-8.212c-0.367-0.325-0.853-0.907-1.464-1.271
	c-2.735-1.626-5.51-3.185-8.262-4.782c-0.686-0.397-1.338-0.853-1.843-1.178c-0.188-1.585-0.352-2.988-0.539-4.562
	c0.509,0.104,1.051,0.189,1.579,0.326c3.13,0.811,6.295,1.508,9.374,2.482c4.125,1.304,7.864,3.425,11.358,5.971
	c0.515,0.375,1.049,0.722,1.581,1.073c2.505,1.653,3.425,3.623,2.713,6.54c-0.629,2.568-1.471,5.088-2.315,7.597
	c-1.591,4.722-3.263,9.417-4.872,14.133c-0.22,0.643-0.269,1.343-0.422,2.146c-2.893,1.419-5.301,3.527-6.652,6.614
	C119.622,118.985,120.492,122.047,122.227,125.232z M126.137,84.618c-2.746,0.919-3.342,1.453-4.356,3.861
	c-0.637,1.515,0.123,3.663,1.629,4.6c1.491,0.928,3.206,0.612,4.43-0.781c1.244-1.416,1.226-3.106,1.075-4.816
	C128.771,85.838,127.488,85.241,126.137,84.618z"/>
<path fill-rule="evenodd" clip-rule="evenodd" fill="#eef9fc" class="fill" d="M88.29,94.435c0.67,0.94,1.247,1.75,1.932,2.71
	c-0.683,0.346-1.276,0.646-1.826,0.925c-0.704-0.158-1.317-0.296-1.771-0.398c-2.23,1.1-4.309,2.122-6.391,3.148
	c-0.061,0.597-0.113,1.117-0.167,1.64c-0.53,0.317-1.056,0.633-1.539,0.924c0.46,2.456,2.308,3.074,5.622,1.892
	c0.764,0.247,1.686,0.492,2.566,0.842c1.125,0.447,2.217,0.979,3.512,1.558c-0.738,0.399-1.291,0.698-2.07,1.119
	c0.604,0.745,1.077,1.33,1.537,1.896c1.77-0.416,3.489,0.431,4.913-0.706c1.075,0.425,2.049,0.811,2.932,1.16
	c2.192-1.307,4.232-2.531,6.282-3.735c0.477-0.279,0.946-0.52,0.752-1.304c-0.46-0.369-0.982-0.787-1.746-1.401
	c0.742-0.452,1.365-0.833,2.187-1.333c-0.634-0.667-0.908-1.119-1.31-1.342c-0.869-0.482-1.826-0.539-2.767-0.159
	c-0.54,0.218-1.036,0.561-1.589,0.723c-0.484,0.143-1.093,0.295-1.521,0.126c-1.814-0.716-3.584-1.55-5.277-2.299
	c0.083-0.927,0.146-1.659,0.226-2.561c1.478,0.104,3.095,0.217,4.8,0.337c0.723-0.553,1.476-1.129,2.176-1.665
	c5.52,3.056,10.854,6.332,16.293,9.887c-1.205,0.632-2.129,1.134-3.068,1.611c-3.876,1.971-7.766,3.918-11.633,5.906
	c-1.554,0.798-3.032,1.748-4.605,2.501c-2.318,1.112-4.666,0.837-6.908-0.247c-3.005-1.454-5.977-2.976-8.944-4.508
	c-2.544-1.313-5.077-2.652-7.584-4.035c-2.456-1.355-4.879-2.772-7.306-4.182c-0.3-0.175-0.531-0.471-0.98-0.88
	c3.848-1.814,7.697-3.074,11.566-4.303C80.461,97.046,84.316,95.743,88.29,94.435z"/>
<path fill-rule="evenodd" clip-rule="evenodd" fill="#eef9fc" class="fill" d="M102.521,63.536c-6.269,0.46-12.536,0.918-18.898,1.385
	c-0.346-0.709-0.069-1.485,0.22-2.19c1.536-3.75,4.104-5.662,7.992-6.163c0.157-0.02,0.322,0.014,0.478-0.015
	c1.746-0.319,3.149,0.172,4.459,1.438c1.859,1.798,3.896,3.412,5.857,5.104C102.592,63.243,102.557,63.39,102.521,63.536z"/>
<path fill-rule="evenodd" clip-rule="evenodd" fill="#eef9fc" class="fill" d="M76.643,73.697c-0.282-0.4-0.584-0.827-0.877-1.243
	c0.387-0.913,1.139-0.893,1.885-0.787c2.623,0.372,5.242,0.77,7.862,1.16c0.416,0.062,0.835,0.105,1.244,0.201
	c1.485,0.343,3.012,0.577,4.439,1.089c2.39,0.859,4.763,1.801,7.05,2.896c1.947,0.933,3.764,2.133,5.867,3.347
	c-0.67,0.544-1.138,0.924-1.712,1.389C93.597,79.821,85.181,76.63,76.643,73.697z"/>
<path fill-rule="evenodd" clip-rule="evenodd" fill="#eef9fc" class="fill" d="M122.263,121.092c-1.083-4.515,2.183-9.08,7.146-9.707
	c0.668-0.084,1.38,0.046,2.054,0.171c1.086,0.203,2.158,0.484,3.615,0.821c-0.674,0.33-1.043,0.58-1.45,0.699
	c-3.341,0.967-5.309,3.226-5.741,6.64c-0.141,1.102-0.276,2.203-0.441,3.539C125.54,122.738,123.869,121.929,122.263,121.092z"/>
<path fill-rule="evenodd" clip-rule="evenodd" fill="#eef9fc" class="fill" d="M117.131,41.977c0.517,0.565,0.863,0.943,1.277,1.396
	c-4.943,6.079-9.996,11.934-15.457,17.71c-0.645-0.62-1.228-1.181-1.827-1.756C106.469,53.534,111.727,47.834,117.131,41.977z"/>
<path fill-rule="evenodd" clip-rule="evenodd" fill="#eef9fc" class="fill" d="M138.82,126.678c-2.198-1.566-2.81-5.604-1.18-8.228
	c0.266-0.431,0.693-0.804,1.125-1.08c1.019-0.651,2.084-1.229,3.115-1.828C144.76,118.389,144.03,124.188,138.82,126.678z"/>
<path fill-rule="evenodd" clip-rule="evenodd" fill="#eef9fc" class="fill" d="M101.11,135.974c2.013,0.929,4.021,1.856,6.375,2.942
	c-3.755,1.771-7.486,2.606-11.31,3.793c0.045-1.999,0.088-3.847,0.131-5.771C97.926,136.613,99.524,136.292,101.11,135.974z"/>
<path fill-rule="evenodd" clip-rule="evenodd" fill="#eef9fc" class="fill" d="M102.603,67.777c-0.448,1.951-2.026,2.659-3.209,3.738
	c-4.896-1.972-9.913-2.162-15.134-1.146c-0.152-0.638-0.267-1.121-0.409-1.712c0.565-0.066,0.977-0.141,1.39-0.158
	C90.984,68.256,96.729,68.02,102.603,67.777z"/>
<path fill-rule="evenodd" clip-rule="evenodd" fill="#eef9fc" class="fill" d="M103.334,64.836c-0.061,0.582-0.098,0.93-0.144,1.386
	c-6.531,0.527-12.994,1.269-19.598,0.981c-0.089-0.271-0.181-0.544-0.342-1.035C89.963,65.724,96.529,65.288,103.334,64.836z"/>
<path fill-rule="evenodd" clip-rule="evenodd" fill="#eef9fc" class="fill" d="M85.73,103.637c1.789-1.038,3.324-1.926,4.854-2.812
	c2.135,0.967,4.18,1.894,6.411,2.905c-1.643,1.18-3.088,2.218-4.586,3.294C90.265,105.936,88.127,104.852,85.73,103.637z
	 M92.504,102.344c-1.33,0.423-2.931-0.544-3.965,0.938c0.396,2.079,2.027,2.247,4.184,2.047
	C93.842,104.09,93.825,103.642,92.504,102.344z"/>
<path fill-rule="evenodd" clip-rule="evenodd" fill="#eef9fc" class="fill" d="M118.937,128.466c-1.186,0.355-1.222,1.524-1.733,2.344
	c-0.58-0.835-0.58-0.835,0.133-3.132c-1.348,0.357-1.244,1.735-1.918,2.529c-0.481-1.377-0.06-2.381,1.438-3.46
	c2.283,0.986,4.597,1.984,6.995,3.021c-0.377,0.742-0.728,1.432-1.243,2.45c0.018-0.774,0.027-1.192,0.036-1.612
	c-0.088-0.046-0.174-0.092-0.261-0.138c-0.388,0.452-0.775,0.903-1.243,1.445c-0.208-0.083-0.471-0.188-0.817-0.326
	c0.212-0.611,0.394-1.136,0.599-1.732c-1.176-0.14-1.09,1.226-1.983,1.463C117.793,130.416,119.162,129.444,118.937,128.466z"/>
<path fill-rule="evenodd" clip-rule="evenodd" fill="#eef9fc" class="fill" d="M118.07,40.924c2.102-2.254,4.138-4.439,6.352-6.814
	c0.379,0.712,0.638,1.196,0.968,1.815c-1.966,2.164-3.91,4.303-5.96,6.561C118.936,41.917,118.571,41.498,118.07,40.924z"/>
<path fill-rule="evenodd" clip-rule="evenodd" fill="#eef9fc" class="fill" d="M94.189,93.376c0.238-1.396,0.438-2.562,0.655-3.84
	c1.232,0.028,2.465,0.056,3.812,0.086c-0.027,1.201-0.052,2.292-0.081,3.581C97.104,93.262,95.654,93.318,94.189,93.376z"/>
<path fill-rule="evenodd" clip-rule="evenodd" fill="#eef9fc" class="fill" d="M72.997,84.381c-0.978,0.897-1.984,0.411-3.039,0.478
	c-0.433-0.743-0.849-1.457-1.321-2.272c0.633-0.856,1.245-1.684,2.017-2.726C71.314,81.569,72.651,82.715,72.997,84.381z"/>
<path fill-rule="evenodd" clip-rule="evenodd" fill="#eef9fc" class="fill" d="M98.846,86.291c-1.315,0.276-2.593,0.242-3.944-0.295
	c0.013-0.562,0.025-1.119,0.042-1.854c1.213-0.067,2.394-0.131,3.573-0.196C99.111,84.706,99.164,85.436,98.846,86.291z"/>
<path fill-rule="evenodd" clip-rule="evenodd" fill="#eef9fc" class="fill" d="M83.325,135.49c2.697-1.507,5.929-1.787,8.767-0.746
	C88.959,135.243,86.219,136.175,83.325,135.49z"/>
<path fill-rule="evenodd" clip-rule="evenodd" fill="#eef9fc" class="fill" d="M85.198,87.353c0.589-2.415,0.108-3.434-2.142-4.033
	c-1.489-0.397-3.084-0.4-4.555-0.57c0.67-1.031,1.728-1.21,4.08-0.562c2.742,0.757,3.622,1.744,3.722,4.319
	C86.029,86.717,85.687,86.98,85.198,87.353z"/>
<path fill-rule="evenodd" clip-rule="evenodd" fill="#eef9fc" class="fill" d="M83.706,86.492c-1.81-0.02-3.446-0.267-4.644-2.117
	c1.793-0.49,3.24-0.164,4.602,0.534C84.285,85.228,84.318,85.82,83.706,86.492z"/>
<path fill-rule="evenodd" clip-rule="evenodd" fill="#eef9fc" class="fill" d="M129.273,119.517c0.153-0.631,0.257-1.061,0.36-1.489
	c1.932,0.497,3.736,0.962,5.591,1.439c-0.006,0.26-0.012,0.507-0.02,0.897C133.192,120.634,131.357,120.049,129.273,119.517z"/>
<path fill-rule="evenodd" clip-rule="evenodd" fill="#eef9fc" class="fill" d="M136.342,117.467c-0.261,0.176-0.529,0.511-0.783,0.5
	c-1.697-0.069-3.361-0.325-5.119-1.26c0.447-0.535,0.823-0.985,1.096-1.311c1.664,0.604,3.166,1.15,4.666,1.696
	C136.249,117.217,136.295,117.342,136.342,117.467z"/>
<path fill-rule="evenodd" clip-rule="evenodd" fill="#eef9fc" class="fill" d="M96.521,96.701c-0.828-0.019-1.552-0.035-2.394-0.055
	c-0.341-0.515-0.705-1.068-1.187-1.8c1.595-0.349,3.021-0.25,4.742-0.142C97.258,95.439,96.932,95.996,96.521,96.701z"/>
<path fill-rule="evenodd" clip-rule="evenodd" fill="#eef9fc" class="fill" d="M79.819,80.414c0.184-0.344,0.345-0.646,0.544-1.021
	c1.768,0.201,3.555,0.059,5.327,0.987c-0.336,0.437-0.573,0.742-0.727,0.941C83.186,81.007,81.558,80.72,79.819,80.414z"/>
<path fill-rule="evenodd" clip-rule="evenodd" fill="#eef9fc" class="fill" d="M101.662,105.619c0.346,0.248,0.677,0.485,1.438,1.031
	c-0.422,0.151-0.685,0.209-0.912,0.333c-1.442,0.782-2.673,2.139-4.908,1.844C98.919,107.627,100.264,106.642,101.662,105.619z"/>
<path fill-rule="evenodd" clip-rule="evenodd" fill="#eef9fc" class="fill" d="M110.321,149.403c3.163-1.513,6.341-2.979,10.077-4
	C119.42,146.255,112.01,149.156,110.321,149.403z"/>
<path fill-rule="evenodd" clip-rule="evenodd" fill="#eef9fc" class="fill" d="M129.178,123.706c2.011-0.56,3.902,0.48,5.979,0.17
	c0.072,0.466,0.132,0.836,0.209,1.326C133.17,124.779,131.069,124.692,129.178,123.706z"/>
<path fill-rule="evenodd" clip-rule="evenodd" fill="#eef9fc" class="fill" d="M134.865,122.642c-1.927,0.09-3.784-0.441-5.729-0.711
	c0.008-0.349,0.013-0.587,0.019-0.85c0.185-0.051,0.337-0.144,0.472-0.122c1.564,0.252,3.13,0.502,4.686,0.802
	c0.263,0.05,0.478,0.337,0.716,0.515C134.974,122.398,134.918,122.521,134.865,122.642z"/>
<path fill-rule="evenodd" clip-rule="evenodd" fill="#eef9fc" class="fill" d="M138.441,115.123c-0.52,0.425-0.795,0.652-1.092,0.894
	c-1.331-0.384-2.634-0.761-3.938-1.137c-0.019-0.106-0.037-0.214-0.057-0.32c0.604-0.199,1.208-0.396,1.733-0.569
	C136.189,114.361,137.174,114.694,138.441,115.123z"/>
<path fill-rule="evenodd" clip-rule="evenodd" fill="#eef9fc" class="fill" d="M75.816,81.042c0.279,0.651,0.459,1.067,0.668,1.552
	c-0.738,0.345-1.393,0.651-2.127,0.994c-0.269-0.373-0.501-0.694-0.871-1.207C74.265,81.934,74.948,81.54,75.816,81.042z"/>
<path fill-rule="evenodd" clip-rule="evenodd" fill="#eef9fc" class="fill" d="M91.436,89.641c0.175,1.229,0.35,2.457,0.546,3.843
	c-0.251,0.052-0.612,0.127-1.162,0.242c0.038-1.498-0.449-2.85,0.175-4.128C91.143,89.612,91.287,89.626,91.436,89.641z"/>
<path fill-rule="evenodd" clip-rule="evenodd" fill="#eef9fc" class="fill" d="M71.846,79.476c0.863-0.42,1.547-0.752,2.294-1.116
	c0.237,0.284,0.425,0.507,0.747,0.889c-0.642,0.327-1.162,0.638-1.719,0.86C72.711,80.293,72.692,80.247,71.846,79.476z"/>
<path fill-rule="evenodd" clip-rule="evenodd" fill="#eef9fc" class="fill" d="M77.693,85.309c1.042,0.777,2.027,1.512,3.012,2.245
	C78.879,87.661,77.808,86.86,77.693,85.309z"/>
<path fill-rule="evenodd" clip-rule="evenodd" fill="#eef9fc" class="fill" d="M91.502,83.818c0.291,0.994,0.499,1.806-0.326,2.512
	C90.416,85.266,90.477,84.602,91.502,83.818z"/>
<path fill-rule="evenodd" clip-rule="evenodd" fill="#eef9fc" class="fill" d="M77.681,77.726c-0.573,0.335-1.046,0.611-1.572,0.919
	c-0.229-0.307-0.402-0.537-0.646-0.865c0.54-0.348,1.006-0.649,1.57-1.011C77.25,77.09,77.425,77.349,77.681,77.726z"/>
<path fill-rule="evenodd" clip-rule="evenodd" fill="#eef9fc" class="fill" d="M95.001,87.58c1.055,0.076,2.108,0.153,3.164,0.229
	c-1.071,0.319-2.136,0.693-3.187,0.219C94.986,87.879,94.993,87.729,95.001,87.58z"/>
<path fill-rule="evenodd" clip-rule="evenodd" fill="#eef9fc" class="fill" d="M102.863,152.611c0.894-0.704,1.905-1.133,3.023-1.317
	c-0.928,0.645-1.875,1.248-3.061,1.275C102.824,152.569,102.863,152.611,102.863,152.611z"/>
<path fill-rule="evenodd" clip-rule="evenodd" fill="#eef9fc" class="fill" d="M77.557,81.3c-0.229-0.34-0.364-0.542-0.606-0.901
	c0.485-0.208,0.859-0.368,1.235-0.528c0.058,0.08,0.117,0.16,0.176,0.241C78.118,80.471,77.875,80.83,77.557,81.3z"/>
<path fill-rule="evenodd" clip-rule="evenodd" fill="#eef9fc" class="fill" d="M139.127,113.584c0.377,0.194,0.754,0.388,1.336,0.688
	C139.592,114.62,139.32,114.164,139.127,113.584z"/>
<path fill-rule="evenodd" clip-rule="evenodd" fill="#eef9fc" class="fill" d="M123.677,89.341c0.074-0.593,0.145-1.158,0.225-1.805
	c0.571-0.424,1.151-0.856,1.684-1.251c1.388,0.623,1.697,1.04,2.032,2.636C126.688,90.554,125.833,90.678,123.677,89.341z"/>
</svg>
