<svg version="1.1" id="svg" xmlns="http://www.w3.org/2000/svg" xmlns:xlink="http://www.w3.org/1999/xlink" x="0px" y="0px"
	 width="200px" height="200px" viewBox="0 0 200 200" enable-background="new 0 0 200 200" xml:space="preserve">
<path class="stroke" fill="#58281d"  d="M138.24,87.732c-0.239-2.637-0.909-5.189-1.819-7.677c-0.777-2.125-1.791-4.128-3.141-5.941
	c-1.425-1.912-2.976-3.724-4.805-5.267c-1.494-1.26-3.007-2.498-4.559-3.685c-0.72-0.55-1.6-0.891-2.318-1.443
	c-0.973-0.749-2.006-1.312-3.204-1.593c-1.014-0.238-2.01-0.549-3.026-0.771c-1.302-0.285-2.596-0.598-3.962-0.303
	c-0.591,0.128-1.239,0.068-1.853,0.008c-2.625-0.255-5.251-0.504-7.868-0.833c-1.655-0.208-3.251-0.015-4.833,0.418
	c-1.915,0.525-3.803,1.159-5.734,1.612c-4.191,0.983-8.355,2.032-12.359,3.65c-2.032,0.822-3.794,2.061-5.365,3.53
	c-2.354,2.202-4.134,4.825-5.551,7.743c-1.941,3.996-2.949,8.208-3.34,12.588c-0.115,1.29-0.101,2.616,0.06,3.9
	c0.352,2.813,1.628,5.285,3.219,7.578c0.487,0.701,1.209,1.276,1.919,1.773c0.604,0.424,1.34,0.712,2.126,0.575
	c2.019-0.352,4.03-0.748,6.05-1.085c1.503-0.251,2.982-0.584,4.55-0.467c2.015,0.152,4.037,0.052,5.994-0.618
	c0.627-0.214,1.322-0.233,2.03-0.349c0.098,0.359,0.212,0.603,0.225,0.851c0.168,3.367,0.037,6.719-0.721,10.016
	c-0.711,3.092-1.977,6.002-3.063,8.969c-0.929,2.537-2.004,5.014-2.46,7.714c-0.474,2.814-0.558,5.601,0.381,8.306
	c0.892,2.568,2.417,4.679,5.05,5.774c0.955,0.397,1.903,0.806,2.983,1.264c-1,0.524-1.855,0.746-2.814,0.359
	c-1.075-0.435-2.751,0.1-3.49,1.116c0.996,0.372,1.737-0.435,2.651-0.516c1.415,0.861,2.857,0.109,4.524-0.174
	c-0.565,0.904-1.005,1.607-1.487,2.379c-0.596-0.059-1.141-0.097-1.681-0.169c-0.79-0.107-1.169,0.046-1.527,0.689
	c0.112,0.055,0.221,0.152,0.333,0.157c0.814,0.034,1.628,0.044,2.442,0.073c0.811,0.028,1.354-0.361,1.729-1.052
	c0.28-0.515,0.572-1.023,0.883-1.52c0.222-0.354,0.488-0.674,0.938-0.582c0,0.55-0.05,1.039,0.011,1.514
	c0.103,0.797-0.224,1.298-0.904,1.667c-0.348,0.188-0.641,0.476-0.959,0.719c0.021,0.078,0.042,0.156,0.063,0.234
	c0.293,0.058,0.586,0.116,0.8,0.159c0.335-0.234,0.562-0.425,0.817-0.565c0.909-0.5,1.269-1.246,1.14-2.277
	c-0.049-0.394,0.045-0.805,0.078-1.264c0.534,0.082,0.945,0.144,1.37,0.208c0.209,0.494,0.398,0.938,0.582,1.37
	c-0.548,0.98-1.066,1.908-1.649,2.95c0.343,0.165,0.569,0.274,0.812,0.392c0.346-0.614,0.575-1.168,0.932-1.622
	c0.684-0.867,1.154-1.74,0.489-2.928c1.239-0.159,2.207,0.281,3.105,0.837c0.271,0.168,0.354,0.644,0.466,0.866
	c-0.285,0.663-0.501,1.164-0.692,1.609c0.543,0.895,0.783,1.077,1.769,1.352c0.116-0.163,0.25-0.351,0.351-0.493
	c-0.402-0.354-0.728-0.641-0.968-0.852c0.187-0.675,0.465-1.202,0.438-1.712c-0.029-0.538-0.351-1.06-0.562-1.636
	c0.692-0.158,1.401-0.486,2.138,0.185c-0.039,0.394-0.08,0.805-0.124,1.256c0.413,0.48,0.724,1.162,1.701,0.83
	c-0.232-0.405-0.436-0.76-0.639-1.115c0.052-0.014,0.104-0.028,0.156-0.042c-0.13-0.603-0.26-1.206-0.398-1.847
	c0.281-0.1,0.582-0.206,0.803-0.285c1.206,0.406,2.313,0.778,3.474,1.168c0.095,0.257,0.223,0.521,0.288,0.799
	c0.066,0.279,0.07,0.572,0.114,0.971c0.292,0.055,0.568,0.106,0.855,0.16c0.211-2.003-0.154-2.573-1.848-3.079
	c-0.488-0.146-0.969-0.318-1.564-0.514c0.22-0.201,0.329-0.307,0.445-0.405c0.817-0.69,1.683-1.332,2.446-2.078
	c1.443-1.411,2.492-3.11,3.135-5.013c0.414-1.227,0.652-2.519,0.91-3.793c0.485-2.396,0.31-4.82,0.083-7.215
	c-0.456-4.801-1.079-9.586-1.572-14.384c-0.286-2.789-0.454-5.589-0.669-8.384c-0.02-0.253-0.002-0.509-0.002-0.935
	c0.484,0.072,0.84,0.099,1.183,0.18c3.152,0.744,6.344,1.08,9.584,1.184c1.738,0.056,3.471,0.432,5.107,1.178
	c1.335,0.609,2.729,0.417,3.874-0.481c2.52-1.977,4.085-4.598,4.871-7.695c0.112-0.441,0.223-0.884,0.36-1.318
	C138.256,92.347,138.45,90.046,138.24,87.732z"/>
<path fill-rule="evenodd" clip-rule="evenodd" fill="#e3a13b" class="fill" d="M92.178,74.337c0.187-0.545,0.432-1.078,0.55-1.638
	c0.52-2.449,1.424-4.732,2.821-6.818c0.704-1.05,1.381-2.119,2.044-3.137c2.05-0.344,4.011-0.449,5.938-0.066
	c1.844,0.367,3.678,0.495,5.542,0.364c0.356-0.025,0.716-0.003,1.237-0.003c1.567,2.383,3.222,4.8,4.774,7.282
	c1.552,2.484,2.49,5.266,3.561,7.98c0.062-0.019,0.125-0.038,0.187-0.057c-0.059-0.334-0.079-0.68-0.183-0.999
	c-0.719-2.195-1.215-4.474-2.336-6.521c-0.532-0.971-1.106-1.922-1.708-2.852c-0.956-1.477-1.951-2.927-2.926-4.391
	c-0.071-0.107-0.118-0.23-0.24-0.476c0.435-0.036,0.802-0.067,1.089-0.091c1.19,1.403,2.345,2.721,3.453,4.076
	c3.212,3.932,5.891,8.194,8.069,12.788c1.223,2.582,2.105,5.255,2.708,8.034c0.027,0.124,0.084,0.245,0.147,0.355
	c0.026,0.045,0.108,0.06,0.225,0.118c0.245-0.311,0.14-0.663,0.08-0.986c-0.396-2.145-0.818-4.289-1.651-6.311
	c-0.507-1.232-1.122-2.428-1.778-3.589c-1.2-2.122-2.369-4.272-3.73-6.29c-1.729-2.561-3.483-5.123-5.693-7.319
	c-0.199-0.198-0.365-0.428-0.557-0.656c0.125-0.071,0.179-0.127,0.231-0.126c0.228,0.003,0.455,0.023,0.496,0.025
	c1.999,0.795,3.148,2.327,4.407,3.726c1.351,1.501,2.754,2.967,3.987,4.562c1.539,1.989,2.765,4.189,3.76,6.503
	c0.553,1.287,1.029,2.606,1.549,3.908c0.087,0.22,0.223,0.42,0.509,0.568c-0.032-0.234-0.032-0.479-0.103-0.701
	c-0.544-1.705-0.944-3.478-1.688-5.092c-1.674-3.634-3.865-6.941-6.806-9.712c-0.729-0.687-1.358-1.482-1.988-2.29
	c0.793,0.137,1.462,0.555,2.008,1.072c1.891,1.793,3.823,3.56,5.554,5.501c1.336,1.499,2.549,3.157,3.545,4.9
	c2.331,4.078,3.398,8.512,3.219,13.229c-0.056,1.465-0.048,2.933-0.087,4.399c-0.009,0.349-0.092,0.696-0.148,1.088
	c-0.258-0.14-0.434-0.234-0.651-0.352c-0.6,1.063-0.239,2.068-0.003,3.155c-0.188,0.226-0.405,0.485-0.623,0.745
	c-0.074-0.013-0.147-0.026-0.221-0.04c-0.203-1.061-0.405-2.122-0.61-3.197c-0.528,0.009-0.619,0.363-0.615,0.725
	c0.005,0.52,0.07,1.039,0.117,1.557c0.034,0.387,0.079,0.773,0.127,1.236c-0.281,0.015-0.521,0.027-0.776,0.041
	c-0.549-1.236-0.311-2.611-0.936-3.867c-0.545,0.576-0.306,1.186-0.344,1.724c-0.041,0.579,0.04,1.166,0.071,1.818
	c-0.296,0.056-0.565,0.106-0.941,0.177c-0.267-0.944-0.345-1.854-0.272-2.795c-0.75,0.19-0.825,0.529-0.719,3.097
	c-0.252,0.082-0.534,0.173-0.921,0.298c-0.121-1.155-0.23-2.203-0.339-3.25c-0.075,0.001-0.15,0.001-0.225,0.003
	c-0.607,1.11-0.37,2.353-0.409,3.588c-0.222,0.08-0.428,0.154-0.734,0.264c-0.479-1.177-0.215-2.42-0.444-3.6
	c-0.807,1.066-0.543,2.328-0.699,3.594c-0.356-0.033-0.66-0.062-1.039-0.097c0-1.337,0-2.609,0-4.033
	c-0.715,0.537-0.645,1.233-0.784,1.813c-0.15,0.625-0.187,1.278-0.288,2.021c-0.379-0.063-0.709-0.118-1.084-0.181
	c-0.026-1.074,0.383-2.062,0.053-3.204c-0.731,0.849-0.757,1.848-1.096,2.765c-0.244-0.029-0.455-0.054-0.661-0.078
	c-0.304-0.761,0.389-1.509-0.063-2.221c-0.547,0.306-0.547,0.306-1.097,1.857c-0.141,0-0.302,0.023-0.451-0.007
	c-0.118-0.024-0.221-0.115-0.368-0.198c0.083-0.664,0.165-1.311,0.265-2.115c-1.086,0.375-0.91,1.337-1.311,1.976
	c-0.154-0.021-0.301-0.042-0.559-0.079c0.106-0.7,0.205-1.351,0.306-2.018c-0.626,0.113-0.626,0.113-1.34,1.884
	c-0.255-0.034-0.529-0.071-0.884-0.119c0.11-0.712,0.208-1.351,0.333-2.164c-0.95,0.478-1.046,1.268-1.355,1.968
	c-0.224-0.018-0.437-0.034-0.705-0.055c0.037-0.501,0.072-0.958,0.111-1.48c-0.821,0.183-0.916,0.836-1.257,1.384
	c-0.284-0.043-0.588-0.089-0.993-0.151c0.063-0.337,0.13-0.61,0.16-0.888c0.024-0.232,0.004-0.468,0.004-0.786
	c-0.814,0.329-0.918,0.98-1.18,1.57c-0.332-0.023-0.647-0.045-1.087-0.076c0.095-0.595,0.18-1.13,0.286-1.795
	c-0.909,0.349-0.97,1.092-1.276,1.731c-0.211-0.041-0.412-0.079-0.632-0.122c0-0.519,0-0.982,0-1.504
	c-0.861,0.191-0.775,1.078-1.308,1.473c-0.498-0.556,0.164-1.146-0.148-1.747c-0.951,0.148-0.756,1.083-1.154,1.654
	c-0.104,0.016-0.253,0.038-0.554,0.083c0.081-0.454,0.146-0.819,0.219-1.233c-0.126-0.092-0.27-0.197-0.497-0.363
	c-0.299,0.539-0.562,1.016-0.827,1.492c-0.086-0.021-0.172-0.042-0.258-0.063c-0.009-0.559-0.018-1.119-0.027-1.753
	c-0.846,0.31-0.797,1.05-1.103,1.566c-0.161-0.026-0.281-0.045-0.504-0.082c0.039-0.6,0.077-1.178,0.121-1.845
	c-1.038,0.227-0.766,1.234-1.314,1.707c-0.627-0.626,0.248-1.508-0.413-2.106c-0.706,0.48-0.492,1.384-1.037,2.099
	c-0.164-0.672-0.295-1.21-0.456-1.871c-0.696,0.56-0.546,1.244-0.77,1.839c-0.184,0.043-0.394,0.092-0.565,0.132
	c-0.59-0.542,0.055-1.424-0.67-1.919c-0.781,0.595-0.229,1.468-0.479,2.195c-0.139,0.025-0.288,0.054-0.477,0.088
	c-0.171-0.359-0.327-0.686-0.492-1.033c-0.716,0.289-0.418,0.875-0.577,1.38c-0.174,0.066-0.397,0.152-0.652,0.249
	c-0.166-0.407-0.306-0.75-0.458-1.123c-0.875,0.238-0.46,0.939-0.662,1.46c-0.29,0.083-0.623,0.177-1.049,0.299
	c-0.197-0.575-0.371-1.083-0.568-1.664c-0.709,0.611-0.255,1.342-0.328,2.131c-0.249,0.167-0.584,0.393-0.971,0.651
	c-0.571-0.957-0.261-2.113-1.043-3.157c-0.368,1.322-0.185,2.405,0.178,3.562c-0.262,0.124-0.503,0.237-0.739,0.348
	c-0.949-1.323-0.986-2.918-1.687-4.272c-0.415,1.453,0.106,2.808,0.503,4.345c-0.781-0.475-0.713-1.154-0.897-1.69
	c-0.186-0.54-0.261-1.118-0.428-1.88c-0.864,1.124-0.289,2.164-0.216,3.242c-0.793-0.262-0.657-0.972-0.893-1.435
	c-0.262-0.512-0.413-1.081-0.622-1.65c-0.5,0.396-0.5,0.396,0.092,3.093c-0.249,0.054-0.497,0.12-0.748,0.158
	c-0.157,0.023-0.319,0.004-0.583,0.004c-0.372-0.888-0.75-1.787-1.127-2.687c-0.085,0.023-0.17,0.046-0.255,0.069
	c-0.302,0.942,0.263,1.833,0.307,2.767c-0.103,0.043-0.188,0.1-0.277,0.11c-0.158,0.017-0.319,0.004-0.556,0.004
	c-0.354-0.965-0.706-1.925-1.062-2.895c-0.467,0.407-0.467,0.407-0.028,2.718c-0.801-0.129-0.786-0.852-1.055-1.338
	c-0.285-0.516-0.178-1.212-0.734-1.728c-0.53,0.884,0.084,1.663-0.021,2.543c-0.801-0.603-0.835-1.627-1.588-2.41
	c-0.309,1.034,0.288,1.725,0.339,2.538c-0.652,0.094-0.767-0.488-1.007-0.838c-0.267-0.389-0.435-0.844-0.665-1.309
	c-0.612,0.375-0.372,0.839-0.232,1.235c0.146,0.413,0.385,0.792,0.457,1.331c-0.198-0.116-0.42-0.204-0.588-0.353
	c-0.783-0.691-1.215-1.594-1.541-2.567c-1.289-3.856-1.726-7.818-1.482-11.862c0.031-0.507,0.221-1.005,0.328-1.508
	c0.12-0.572,0.258-1.143,0.339-1.721c0.166-1.192,0.898-2.15,1.301-3.243c0.249-0.67,0.521-1.337,0.843-1.974
	c1.147-2.261,2.627-4.262,4.657-5.819c0.043-0.033,0.117-0.026,0.387-0.08c-1.634,1.907-3.225,3.651-4.071,5.905
	c-0.838,2.23-1.602,4.47-2.002,6.833c-0.398,2.354-0.459,4.687,0.118,7.037c0.023-0.659,0.027-1.32,0.073-1.977
	c0.311-4.396,1.259-8.649,3.169-12.629c0.568-1.185,1.484-2.213,2.306-3.263c0.982-1.256,2.061-2.438,3.047-3.692
	c0.517-0.658,1.194-0.921,2.054-1.005c-0.434,0.505-0.863,1.014-1.302,1.514c-1.341,1.528-2.507,3.179-3.347,5.033
	c-0.833,1.839-1.746,3.672-2.016,5.695C73.6,81.497,73.615,83,73.537,84.49c-0.028,0.548-0.05,1.097,0.097,1.672
	c0.044-0.223,0.112-0.445,0.128-0.67c0.165-2.247,0.456-4.468,1.188-6.617c1.263-3.71,2.967-7.157,5.728-10.011
	c0.588-0.607,1.086-1.303,1.658-1.927c0.215-0.236,0.523-0.386,0.789-0.576c0.046,0.053,0.091,0.105,0.137,0.158
	c-0.105,0.143-0.187,0.315-0.319,0.426c-1.543,1.286-2.455,3.024-3.354,4.754c-0.524,1.008-0.902,2.092-1.35,3.141
	c-0.712,1.671-1.072,3.398-0.969,5.228c0.04,0.706-0.079,1.42,0.031,2.154c0.112-0.642,0.297-1.28,0.32-1.925
	c0.058-1.565,0.566-3.006,1.152-4.417c0.675-1.623,1.348-3.258,2.191-4.795c0.794-1.447,1.659-2.878,2.988-3.955
	c0.525-0.426,0.935-0.993,1.346-1.439c2.837-0.791,5.588-1.557,8.338-2.324c0.05,0.061,0.1,0.122,0.15,0.183
	c-0.185,0.272-0.364,0.548-0.553,0.816c-1.55,2.207-2.696,4.619-3.493,7.183c-0.695,2.236-1.315,4.499-1.858,6.776
	c-0.343,1.441-0.484,2.931-0.533,4.442c0.056-0.152,0.142-0.301,0.163-0.459c0.474-3.543,1.59-6.902,2.815-10.245
	c0.699-1.908,1.488-3.761,2.534-5.487c0.688-1.134,1.541-2.171,2.369-3.212c0.184-0.23,0.572-0.297,0.866-0.439
	c0.051,0.062,0.102,0.125,0.152,0.187c-0.395,0.65-0.755,1.323-1.19,1.944c-1.417,2.024-2.048,4.345-2.548,6.709
	c-0.18,0.849-0.213,1.728-0.312,2.594c-0.105,0.321-0.212,0.64-0.318,0.959c0.065,0.011,0.131,0.022,0.196,0.033
	C92.11,75.011,92.144,74.674,92.178,74.337z M123.699,90.369c1.006-1.765-0.942-10.664-2.61-12.227
	c-0.135,0.103-0.277,0.209-0.408,0.309C122.338,82.289,123.079,86.302,123.699,90.369z M71.621,91.688
	c0.093-0.256,0.165-0.35,0.149-0.425c-0.485-2.39,0.063-4.73,0.363-7.077c0.164-1.289,0.459-2.56,0.676-3.842
	c0.037-0.22-0.024-0.457-0.039-0.686c-0.083-0.013-0.165-0.027-0.248-0.04c-0.124,0.273-0.291,0.536-0.363,0.822
	c-0.72,2.845-1.201,5.729-1.183,8.67C70.981,89.941,71.115,90.791,71.621,91.688z M129.519,84.993
	c-0.578,0.193-0.467,0.617-0.463,0.991c0.024,2.309,0.047,4.618,0.081,6.926c0.002,0.174,0.084,0.347,0.151,0.604
	C130.09,91.898,130.234,86.304,129.519,84.993z M128.139,76.747c0.099,0.316,0.145,0.54,0.236,0.743
	c0.623,1.399,1.168,2.816,1.333,4.36c0.066,0.611,0.23,1.214,0.379,1.812c0.045,0.178,0.192,0.331,0.41,0.688
	c0-0.471,0.022-0.693-0.004-0.91c-0.094-0.775-0.317-1.553-0.285-2.321c0.072-1.71-0.627-3.153-1.365-4.602
	c-0.023-0.044-0.107-0.058-0.213-0.111C128.502,76.496,128.351,76.601,128.139,76.747z M131.368,85.891
	c-0.135,0.256-0.331,0.455-0.33,0.653c0.012,1.563,0.056,3.127,0.109,4.691c0.007,0.187,0.131,0.37,0.241,0.66
	C132.042,90.05,132.056,86.785,131.368,85.891z M69.667,93.04c-0.252,1.049,0.261,2.572,1.068,2.958
	c-0.207-1.009-0.401-1.959-0.592-2.888c-0.089-0.047-0.144-0.099-0.202-0.103C69.85,93.002,69.755,93.028,69.667,93.04z
	 M126.022,93.494c0.095,0.007,0.19,0.014,0.285,0.021c0.398-0.907,0.155-1.848,0.145-2.896c-0.313,0.122-0.501,0.195-0.767,0.299
	C125.801,91.804,125.912,92.648,126.022,93.494z M71.926,95.024c-0.137-0.643-0.237-1.114-0.353-1.663
	C70.883,94.072,70.974,94.612,71.926,95.024z M73.291,94.547c-0.144-0.53-0.255-0.941-0.397-1.464
	c-0.709,0.52-0.409,0.977-0.258,1.464C72.818,94.547,72.968,94.547,73.291,94.547z"/>
<path fill-rule="evenodd" clip-rule="evenodd" fill="#e3a13b" class="fill" d="M105.149,121.176c0.254-1.387,0.508-2.773,0.779-4.247
	c0.617,0.223,1.127,0.408,1.658,0.6c0.438,4.487-0.203,8.918-0.052,13.362c0.558-1.361,0.557-2.813,0.736-4.225
	c0.181-1.419,0.248-2.857,0.295-4.289c0.047-1.452,0.01-2.906,0.01-4.458c0.39,0.133,0.717,0.244,1.066,0.362
	c1.089,5.879,0.583,11.7-0.405,17.514c0.067,0.021,0.133,0.042,0.2,0.062c0.108-0.159,0.277-0.305,0.315-0.479
	c0.7-3.216,1.497-6.427,1.379-9.752c-0.074-2.082-0.273-4.16-0.415-6.239c-0.008-0.123-0.001-0.247-0.001-0.441
	c0.94,0.258,1.269,0.953,1.503,1.703c0.105,0.338,0.141,0.707,0.151,1.063c0.082,2.803,0.191,5.606,0.204,8.41
	c0.006,1.447-0.447,2.829-1.007,4.16c-0.43,1.021-0.881,2.033-1.339,3.042c-0.4,0.88-0.918,1.683-1.621,2.558
	c-0.121-0.535-0.2-0.886-0.295-1.307c-0.547,0.287-0.407,0.778-0.544,1.134c-0.153,0.393-0.249,0.807-0.382,1.256
	c-0.459,0.263-0.931,0.532-1.577,0.902c0.137-1.072,0.255-1.994,0.373-2.916c-0.077-0.016-0.153-0.032-0.23-0.049
	c-0.634,0.996-0.812,2.194-1.31,3.323c-0.297,0.054-0.6,0.109-1.02,0.186c-0.063-1.098-0.121-2.086-0.18-3.123
	c-0.293,0.279-0.294,0.278-0.503,1.576c-0.092,0.572-0.176,1.145-0.274,1.782c-0.531,0.074-1.003,0.139-1.579,0.218
	c-0.172-1.292-0.078-2.551-0.378-3.948c-0.551,0.738-0.38,1.41-0.457,2.023c-0.08,0.639-0.107,1.285-0.161,1.978
	c-0.427,0-0.772,0-1.189,0c-0.759-1.431-0.616-3.168-1.397-4.623c-0.213,1.57,0.025,3.075,0.553,4.634
	c-0.309,0.015-0.582,0.027-0.86,0.041c-1.165-1.918-1.933-3.939-2.453-6.066c-0.076,0.01-0.152,0.021-0.228,0.031
	c0,0.328-0.076,0.676,0.011,0.979c0.357,1.251,0.758,2.489,1.153,3.729c0.104,0.326,0.248,0.639,0.434,1.112
	c-0.68-0.188-1.17-0.324-1.714-0.475c-1.176-1.396-1.683-3.137-2.183-4.93c-0.337,0.516-0.349,0.754,0.012,2.14
	c0.177,0.677,0.433,1.333,0.72,2.203c-0.537-0.235-0.907-0.397-1.338-0.586c-0.577-1.052-1.168-2.129-1.816-3.31
	c-0.447,0.853,0.359,1.426,0.229,2.107c-0.794-0.2-1.972-1.177-2.503-2.096c-0.634-1.094-0.958-2.284-0.996-3.541
	c-0.038-1.271-0.139-2.555-0.007-3.811c0.165-1.581,0.534-3.141,0.828-4.707c0.026-0.138,0.145-0.259,0.347-0.347
	c-0.047,0.931-0.143,1.863-0.131,2.793c0.022,1.792,0.068,3.586,0.176,5.374c0.077,1.285,0.385,1.927,1.095,2.636
	c0-0.264,0.025-0.436-0.003-0.599c-0.472-2.712-0.507-5.448-0.401-8.186c0.104-2.679,0.496-5.319,1.248-7.895
	c0.262-0.896,0.643-1.745,1.341-2.459c-0.836,4.712-1.064,9.417-0.201,14.163c0.047-0.171,0.134-0.341,0.138-0.513
	c0.038-2.079-0.013-4.162,0.116-6.234c0.113-1.818,0.386-3.629,0.663-5.432c0.163-1.059,0.455-2.099,0.719-3.14
	c0.141-0.555,0.17-0.548,0.746-0.807c0.142,0.549-0.136,1.018-0.25,1.496c-0.47,1.975-0.793,3.963-0.648,6.001
	c0.026,0.365,0.152,0.722,0.349,1.077c0.004-3.021,0.87-5.834,1.678-8.64c0.227-0.054,0.35-0.096,0.475-0.109
	c0.092-0.009,0.188,0.021,0.336,0.042c0.013,0.153,0.057,0.312,0.034,0.458c-0.203,1.288-0.461,2.568-0.619,3.861
	c-0.255,2.087-0.019,4.162,0.279,6.229c0.012,0.079,0.097,0.146,0.254,0.372c0.326-3.74,0.037-7.397,1.178-10.975
	c0.348,0.048,0.652,0.089,0.993,0.135c-0.104,2.411-0.896,4.75,0.13,7.081c0.091-1.167,0.14-2.338,0.286-3.498
	c0.146-1.153,0.389-2.294,0.61-3.562c0.847,0.165,1.595,0.311,2.391,0.466c-0.523,3.071-0.979,6.059-0.937,9.094
	c0,0.069,0.12,0.138,0.285,0.315c0.484-3.094,0.931-6.092,1.494-9.155c0.479,0.085,0.817,0.146,1.183,0.211
	c0.261,1.332,0.09,2.581-0.12,3.831c-0.378,2.25-0.754,4.5-1.117,6.753c-0.059,0.365-0.039,0.742,0.057,1.131
	c0.748-1.8,1.133-3.691,1.493-5.577c0.358-1.878,0.559-3.787,0.839-5.759c0.313,0.049,0.653,0.103,1.037,0.162
	c0.27,1.56-0.115,3.077,0.03,4.579C104.994,121.142,105.072,121.159,105.149,121.176z M106.324,125.786
	c-0.736,0.063-0.71,0.497-0.773,0.866c-0.499,2.917-1.002,5.832-1.498,8.75c-0.143,0.844-0.267,1.692-0.399,2.538
	c0.065,0.032,0.13,0.064,0.196,0.096c0.145-0.138,0.359-0.249,0.423-0.417c0.241-0.637,0.487-1.281,0.631-1.945
	c0.241-1.11,0.417-2.236,0.598-3.359c0.284-1.765,0.559-3.532,0.815-5.301C106.37,126.642,106.324,126.255,106.324,125.786z
	 M102.58,135.236c1.082-2.056,2.39-11.189,1.869-12.631c-0.135,0.008-0.284,0.016-0.454,0.025c-0.043,0.301-0.081,0.555-0.115,0.809
	c-0.306,2.254-0.614,4.507-0.914,6.761c-0.179,1.35-0.353,2.7-0.504,4.053C102.433,134.507,102.52,134.774,102.58,135.236z
	 M97.435,138.098c-0.04-0.285-0.053-0.434-0.083-0.581c-0.441-2.195-0.902-4.386-1.319-6.586c-0.156-0.829-0.186-1.681-0.321-2.515
	c-0.057-0.352-0.112-0.826-0.749-0.64c-0.03,0.152-0.098,0.308-0.085,0.456c0.247,2.919,0.69,5.805,1.595,8.601
	C96.615,137.272,96.731,137.781,97.435,138.098z M98.453,126.721c-0.232-0.032-0.299-0.059-0.357-0.044
	c-0.089,0.021-0.171,0.071-0.3,0.128c-0.261,1.62,0.242,3.157,0.565,4.706c0.315,1.51,0.242,3.138,1.14,4.484
	c0.09-0.019,0.18-0.038,0.27-0.057C99.332,132.87,98.894,129.801,98.453,126.721z M94.208,134.803
	c-0.244-1.291-0.513-2.577-0.728-3.873c-0.216-1.307-0.38-2.622-0.57-3.958c-0.219-0.013-0.372-0.022-0.517-0.031
	C91.988,128.562,92.914,133.048,94.208,134.803z M107.278,132.687c-0.555,1.386-0.828,3.45-0.562,4.129
	c0.437-0.477,0.993-2.243,1.219-3.889c0.007-0.054-0.047-0.116-0.102-0.241C107.66,132.687,107.458,132.687,107.278,132.687z
	 M100.8,136.637c0.065-0.01,0.131-0.02,0.196-0.03c0.098-1.366,0.277-2.728,0.168-4.105c-0.014-0.181-0.203-0.348-0.353-0.589
	c-0.153,0.178-0.299,0.269-0.299,0.36c-0.005,1.302,0.001,2.604,0.033,3.904C100.549,136.332,100.711,136.484,100.8,136.637z
	 M91.825,135.91c0.07-0.017,0.141-0.034,0.211-0.051c-0.153-0.913-0.296-1.826-0.465-2.735c-0.034-0.183-0.127-0.396-0.265-0.507
	c-0.126-0.101-0.348-0.083-0.734-0.156C91.104,133.727,91.022,134.979,91.825,135.91z"/>
</svg>
