<svg version="1.1" xmlns="http://www.w3.org/2000/svg" xmlns:xlink="http://www.w3.org/1999/xlink" x="0px" y="0px" width="200px"
	 height="200px" viewBox="0 0 200 200" enable-background="new 0 0 200 200" xml:space="preserve">
<g id="svg">
	<path class="stroke" fill="#183046"  fill-rule="evenodd" clip-rule="evenodd" d="M157.43,72.715c-1.378-4.267-2.786-8.524-4.82-12.536
		c-2.024-3.993-3.962-8.037-6.167-11.928c-1.976-3.487-4.036-6.931-6.408-10.194c-1.918-2.639-4.075-4.979-6.642-6.946
		c-1.594-1.221-3.316-2.173-5.311-2.74c-2.395-0.68-4.848-0.979-7.252-1.531c-4.293-0.986-8.576-1.877-13.01-1.782
		c-1.91,0.041-3.831-0.064-5.729,0.1c-1.715,0.148-3.381,0.606-4.93,1.461c-1.426,0.789-2.937,1.423-4.396,2.151
		c-1.207,0.602-2.415,1.208-3.588,1.874c-2.365,1.343-4.484,3.003-6.27,5.067c-0.733,0.847-1.395,1.763-2.178,2.56
		c-1.798,1.828-3.524,3.654-4.62,6.059c-1.119,2.453-2.584,4.745-3.835,7.141c-1.582,3.032-2.839,6.184-3.314,9.607
		c-0.062,0.447-0.258,0.908-0.501,1.292c-2.434,3.825-3.566,8.087-4.255,12.502c-0.095,0.6-0.235,1.202-0.238,1.804
		c-0.014,3.036-0.009,6.072,0.033,9.107c0.023,1.719,0.009,3.453,0.238,5.15c0.215,1.606,0.648,3.196,1.133,4.748
		c0.344,1.1,0.796,2.215,1.437,3.163c1.626,2.407,3.88,4.125,6.444,5.465c0.69,0.36,1.295,0.882,1.862,1.277
		c0.563,8.478,1.591,16.728,3.423,24.989c-1.72,2.125-3.343,4.287-5.133,6.3c-2.012,2.264-4.237,4.339-6.249,6.604
		c-1.106,1.246-2.141,2.624-2.893,4.101c-1.274,2.503-1.855,5.26-2.452,8.001c-0.597,2.739-0.604,5.462-0.129,8.204
		c0.146,0.84,0.616,1.446,1.399,1.802c0.591,0.268,1.17,0.562,1.769,0.809c2.371,0.977,4.716,2.025,7.13,2.88
		c1.75,0.62,3.585,1.006,5.396,1.441c2.899,0.696,5.781,1.558,8.723,1.958c3.133,0.427,6.333,0.602,9.494,0.526
		c5.268-0.126,10.55-0.192,15.773-1.081c2.76-0.47,5.543-0.807,8.298-1.301c1.557-0.279,3.087-0.723,4.613-1.149
		c1.347-0.376,2.756-0.663,3.986-1.286c3.021-1.531,6.011-3.093,8.681-5.273c2.19-1.79,3.49-3.985,4.061-6.614
		c0.624-2.868,0.862-5.789,0.817-8.753c-0.05-3.213,0.312-6.435-0.453-9.612c-0.281-1.167-0.259-2.403-1.029-3.448
		c-1.048-1.424-2.492-2.05-4.16-2.329c-3.201-0.534-6.214-1.607-9.114-3.064c-2.881-1.448-5.01-3.532-6.087-6.617
		c-0.476-1.364-0.963-2.724-1.462-4.08c-1.129-3.066-1.541-6.268-1.425-9.49c0.107-2.976,0.453-5.956,0.897-8.902
		c0.296-1.964,0.753-3.935,1.659-5.784c0.24-0.051,0.469-0.155,0.688-0.137c2.461,0.201,4.843-0.389,7.205-0.871
		c2.083-0.425,4.095-1.16,6.01-2.207c2.036-1.114,4.262-1.877,6.381-2.844c3.591-1.638,6.896-3.736,9.801-6.411
		c1.438-1.326,2.795-2.75,4.114-4.195c1.033-1.128,1.953-2.357,2.908-3.523C157.607,73.531,157.559,73.111,157.43,72.715z
		 M71.189,58.066c0.456-0.024,0.796-0.043,1.065-0.057c-0.53,1.277-0.417,2.613-0.104,3.694c-0.192-0.125-0.73-0.309-0.862-0.429
		c-0.168-0.153-0.308-0.338-0.526-0.586C70.896,59.858,71.037,59,71.189,58.066z M122.077,129.864
		c1.909,0.896,3.642,1.788,5.437,2.526c1.719,0.707,3.513,1.231,5.256,1.881c1.264,0.471,2.527,0.956,3.736,1.545
		c0.893,0.435,1.303,1.353,1.538,2.258c0.338,1.303,0.629,2.632,0.781,3.968c0.528,4.613,0.498,9.229-0.254,13.817
		c-0.351,2.131-1.383,3.904-3.015,5.379c-2.886,2.606-6.437,3.899-9.981,5.19c-1.305,0.476-2.706,0.688-4.065,1.01
		c-2.077,0.492-4.217,0.806-6.217,1.518c-1.599,0.569-3.222,0.871-4.852,1.241c-1.739,0.395-3.479,0.649-5.265,0.664
		c-2.286,0.018-4.57,0.142-6.856,0.135c-2.001-0.006-4.002-0.187-6.003-0.189c-3.332-0.006-6.578-0.617-9.838-1.195
		c-4.478-0.794-8.798-2.112-13.046-3.701c-1.266-0.474-2.553-0.892-3.817-1.366c-1.388-0.52-2.012-1.566-2.067-3.027
		c-0.259-6.781,1.779-12.69,6.637-17.526c1.587-1.582,3.276-3.065,4.807-4.698c1.173-1.25,2.164-2.668,3.244-4.007
		c0.301-0.373,0.623-0.729,1.137-1.325c0.215,1.152,0.41,1.954,0.508,2.767c0.243,2.038,0.398,4.086,0.673,6.119
		c0.206,1.518,0.479,3.034,0.845,4.52c0.352,1.438,0.712,2.906,1.328,4.241c1.604,3.465,4.44,5.004,8.23,4.882
		c5.653-0.181,10.639-2.083,15.109-5.552c2.456-1.907,4.607-4.083,6.565-6.463c1.837-2.233,3.687-4.466,5.345-6.829
		c1.034-1.475,1.729-3.189,2.568-4.8C121.056,131.866,121.554,130.881,122.077,129.864z M121.769,87.824
		c-1.016,1.136-2.161,1.32-3.653,0.619c-0.233-0.789-0.462-1.591-0.716-2.385c-0.036-0.111-0.202-0.18-0.297-0.259
		c-0.519-0.005-0.722,0.287-0.617,0.72c0.256,1.067-0.308,1.721-0.983,2.443c-2.038,2.18-3.987,4.441-5.996,6.647
		c-2.238,2.458-4.666,4.733-7.419,6.585c-1.651,1.111-3.504,1.944-5.325,2.768c-1.321,0.597-2.776,0.214-4.162,0.156
		c-1.956-0.083-3.908-0.297-5.857-0.507c-3.312-0.357-6.459-1.422-9.642-2.325c-0.851-0.241-1.675-0.573-2.501-0.89
		c-2.223-0.851-4.125-2.176-5.621-4.023c-0.486-0.6-0.865-1.335-1.121-2.069c-0.947-2.708-1.418-5.524-1.468-8.382
		c-0.064-3.688,0.014-7.379,0.014-11.069c0-2.719,0.962-5.215,1.794-7.734c0.536-1.625,0.98-3.315,2.23-4.726
		c0.312,0.108,0.646,0.237,0.988,0.339c1.604,0.479,3.188,1.083,4.826,1.388c1.66,0.309,3.122-0.455,4.289-1.592
		c0.421-0.41,0.597-1.14,0.73-1.757c0.138-0.628,0.084-1.298,0.116-1.997c-1.492-3.743-4.384-5.539-8.574-5.909
		c0.349-0.228,0.588-0.516,0.783-0.491c2.774,0.367,5.599,0.677,7.862,2.547c1.006,0.83,1.372,2.086,1.543,3.365
		c0.093,0.693,0.165,1.39,0.268,2.275c-0.421,1.487-1.486,2.81-2.576,4.068c-1.312,1.512-2.781,2.886-4.175,4.327
		c-1.435,1.482-1.368,3.18,0.245,4.458c0.777,0.616,1.472,1.45,2.551,1.499c1.238-1.25,1.287-1.697,0.289-2.729
		c-0.184,0.038-0.406,0.087-0.629,0.13c-0.181,0.034-0.361,0.061-0.552,0.092c-0.811-0.818-0.411-1.607,0.096-2.279
		c1.151-1.528,2.367-3.008,3.582-4.487c1.034-1.258,2.13-2.466,3.147-3.736c1.312-1.634,1.284-4.591-0.023-6.263
		c-0.631-0.807-1.239-1.639-1.947-2.374c-1.665-1.73-3.701-2.848-6.07-3.256c-0.668-0.115-1.389,0.074-2.086,0.105
		c-0.178,0.008-0.358-0.05-0.608-0.09c-0.018-1.059,0.725-1.731,1.18-2.497c1.136-1.918,2.306-3.826,3.597-5.643
		c0.635-0.891,1.475-1.708,2.382-2.319c2.414-1.628,5.057-2.827,7.874-3.579c1.381-0.368,2.803-0.604,4.219-0.821
		c0.433-0.067,0.922,0.076,1.358,0.208c1.473,0.444,2.958,0.862,4.393,1.41c2.304,0.878,4.643,1.713,6.833,2.827
		c1.97,1.002,3.493,2.654,4.75,4.474c2.694,3.896,4.846,8.081,6.576,12.492c1.278,3.259,2.459,6.541,3.401,9.922
		c0.676,2.421,1.729,4.734,3.402,6.691c0.2,0.234,0.314,0.54,0.658,1.149c-1.981-0.595-3.296,0.234-4.8,1.06
		c0.122,0.514,0.252,1.064,0.348,1.466c1.059,0.646,1.324-0.502,2.123-0.568c0.183,0.206,0.411,0.464,0.63,0.712
		c-0.571,2.078-2.573,2.735-3.884,4.288c0.104,0.58,0.229,1.275,0.346,1.923c1.371,0.264,2.103-0.472,2.681-1.224
		c1.02-1.323,1.893-2.756,2.829-4.143c0.095-0.139,0.201-0.27,0.453-0.604c0.248,1.133,0.353,2.09-0.014,2.921
		C124.787,83.567,123.528,85.857,121.769,87.824z M74.262,58.057c0.712,0.228,1.483,0.255,2.155,0.47
		c0.446,0.319,0.286,1.154,0.232,1.705c-0.057,0.595-0.319,1.258-1.215,1.599c-1.067,0.407-1.932-0.106-2.047-1.343
		C73.273,59.25,73.75,58.419,74.262,58.057z M76.925,62.919c0.57-0.818,1.196-1.927,1.249-3.451
		c0.436,0.364,0.852,0.712,1.213,1.015C79.125,62.631,78.502,63.179,76.925,62.919z M130.558,89.458
		c-2.057,0.801-4.268,1.213-6.839,1.378c0.362-0.382,0.517-0.568,0.694-0.729c1.072-0.97,2.254-1.845,3.189-2.932
		c0.574-0.667,0.946-1.624,1.111-2.506c0.533-2.879,0.511-5.776-0.527-8.552c-0.483-1.294-1.182-2.521-1.892-3.715
		c-1.37-2.302-2.261-4.805-3.206-7.288c-1.578-4.144-3.101-8.31-4.741-12.428c-0.982-2.467-2.07-4.898-3.254-7.274
		c-0.831-1.668-2.021-3.103-3.416-4.388c-2.413-2.222-5.45-3.203-8.358-4.451c-1.46-0.626-2.936-1.215-4.397-1.836
		c-0.38-0.162-0.735-0.38-1.278-0.665c0.302-0.341,0.481-0.543,0.69-0.779c0.829,0.25,1.65,0.43,2.42,0.739
		c2.08,0.837,4.254,1.39,6.356,2.122c1.536,0.535,2.899,1.675,4.214,2.705c3.095,2.425,5.482,5.487,7.292,8.946
		c1.75,3.345,3.321,6.785,4.475,10.4c0.681,2.134,1.379,4.265,2.165,6.362c1.311,3.494,2.73,6.947,4.035,10.444
		c0.583,1.565,1.06,3.176,1.474,4.795C131.579,82.996,131.456,86.188,130.558,89.458z M132.106,89.186
		c0.037-0.487,0.073-0.881,0.095-1.274c0.096-1.815,0.371-3.644,0.234-5.441c-0.202-2.697-0.824-5.326-1.855-7.866
		c-1.651-4.064-3.21-8.166-4.737-12.278c-0.895-2.406-1.573-4.892-2.49-7.288c-1.468-3.836-3.16-7.568-5.474-10.997
		c-2.194-3.251-4.841-6.069-8.178-8.105c-1.605-0.98-3.515-1.466-5.295-2.155c-1.519-0.587-3.049-1.145-4.824-1.809
		c0.592-0.562,1.03-0.978,1.421-1.348c4.478,1.899,8.901,3.519,12.757,6.34c1.475,1.08,2.572,2.432,3.636,3.846
		c1.263,1.68,2.124,3.613,3.225,5.386c2.136,3.44,3.41,7.255,5.077,10.894c1.393,3.041,2.405,6.255,3.603,9.388
		c0.949,2.485,1.91,4.967,2.887,7.443c1.474,3.739,2.945,7.476,3.395,11.519c0.071,0.637,0.294,1.257,0.478,2.017
		C134.736,88.111,133.662,88.962,132.106,89.186z M137.247,86.937c-0.207-0.916-0.384-1.665-0.546-2.417
		c-0.223-1.044-0.384-2.104-0.663-3.133c-0.377-1.39-0.771-2.783-1.28-4.128c-1.453-3.839-2.969-7.655-4.457-11.481
		c-0.169-0.435-0.376-0.865-0.465-1.318c-0.472-2.412-1.713-4.524-2.618-6.765c-1.118-2.767-2.293-5.513-3.502-8.241
		c-0.677-1.527-1.407-3.039-2.23-4.492c-0.984-1.74-2.174-3.366-3.127-5.121c-1.071-1.973-2.791-3.229-4.535-4.471
		c-1.161-0.826-2.354-1.633-3.619-2.279c-1.654-0.846-3.394-1.528-5.099-2.274c-0.765-0.334-1.535-0.653-2.521-1.071
		c0.647-0.329,1.115-0.567,1.539-0.783c3.769,1.048,7.529,1.854,10.659,4.256c2.344,1.797,4.529,3.683,5.914,6.414
		c2.189,4.325,4.621,8.528,6.826,12.846c2.25,4.407,4.37,8.899,5.701,13.676c0.97,3.485,2.792,6.612,3.835,10.045
		c0.787,2.587,1.462,5.21,2.161,7.824c0.13,0.488,0.14,1.008,0.231,1.734C138.729,86.144,138.088,86.487,137.247,86.937z
		 M140.611,85.09c-0.171-0.972-0.218-1.758-0.45-2.485c-1.078-3.372-2.163-6.742-3.335-10.082c-0.832-2.373-1.898-4.666-2.695-7.049
		c-1.215-3.636-2.597-7.199-4.287-10.636c-1.174-2.384-2.473-4.707-3.694-7.068c-0.9-1.741-1.749-3.508-2.655-5.246
		c-0.862-1.65-1.697-3.321-2.673-4.905c-1.804-2.931-4.488-4.925-7.36-6.72c-1.772-1.107-3.764-1.615-5.681-2.334
		c-0.345-0.129-0.694-0.244-1.19-0.417c0.904-0.661,1.73-0.743,2.574-0.544c1.27,0.298,2.549,0.585,3.782,0.997
		c3.18,1.057,5.786,3.008,8.054,5.421c2.412,2.568,4.051,5.696,6.072,8.548c2.07,2.921,3.404,6.221,4.676,9.518
		c1.308,3.389,2.296,6.898,3.45,10.347c0.339,1.011,0.758,1.996,1.16,2.985c2.307,5.667,4.638,11.324,5.825,17.365
		c0.07,0.359,0.165,0.714,0.264,1.136C141.881,84.282,141.348,84.621,140.611,85.09z M143.923,83.264
		c-0.22-0.576-0.457-1.016-0.558-1.486c-1.145-5.367-3.179-10.432-5.266-15.474c-1.162-2.809-2.033-5.703-2.917-8.604
		c-1.224-4.02-2.741-7.93-4.702-11.666c-1.933-3.687-4.205-7.168-6.598-10.544c-1.931-2.724-4.278-5.17-7.299-6.808
		c-0.16-0.087-0.338-0.145-0.506-0.216c1.617-0.436,2.852,0.015,3.871,0.946c1.51,1.38,2.979,2.81,4.407,4.275
		c1.269,1.301,2.527,2.623,3.657,4.041c0.807,1.014,1.354,2.229,2.084,3.311c1.525,2.265,2.19,4.924,3.422,7.327
		c1.212,2.364,2.3,4.793,3.357,7.231c0.794,1.833,1.407,3.745,2.177,5.589c2.609,6.25,4.468,12.758,6.621,19.166
		c0.163,0.483,0.267,0.986,0.43,1.598C145.424,82.361,144.76,82.761,143.923,83.264z M147.466,81.028
		c-0.216-0.457-0.445-0.843-0.588-1.259c-0.926-2.689-1.846-5.38-2.739-8.079c-0.558-1.683-1.063-3.383-1.605-5.072
		c-0.197-0.62-0.416-1.233-0.648-1.841c-0.863-2.263-1.685-4.543-2.619-6.776c-1.044-2.491-2.187-4.94-3.3-7.401
		c-0.671-1.486-1.466-2.923-2.03-4.448c-1.01-2.729-2.348-5.301-3.846-7.762c-0.977-1.608-2.392-2.959-3.657-4.383
		c-0.99-1.115-2.033-2.184-3.086-3.24c-0.646-0.647-1.354-1.23-2.033-1.842c0.079-0.126,0.158-0.252,0.236-0.377
		c0.92,0.402,1.877,0.738,2.754,1.22c2.778,1.526,4.769,3.886,6.45,6.488c1.515,2.346,2.92,4.769,4.239,7.23
		c0.811,1.512,1.352,3.167,2.042,4.744c1.236,2.818,2.524,5.613,3.735,8.442c1.542,3.601,3.065,7.209,4.529,10.843
		c1.2,2.986,2.312,6.008,3.439,9.023c0.368,0.99,0.661,2.008,0.989,3.013C148.911,80.085,148.257,80.512,147.466,81.028z
		 M150.988,78.323c-0.33-0.516-0.635-0.874-0.811-1.286c-0.588-1.373-1.145-2.759-1.683-4.151
		c-1.363-3.519-2.806-7.011-4.036-10.576c-1.3-3.766-3.201-7.244-4.835-10.851c-0.771-1.698-1.444-3.441-2.124-5.179
		c-1.125-2.877-2.536-5.6-4.102-8.266c-1.3-2.213-2.605-4.399-4.411-6.259c0.067-0.083,0.137-0.167,0.205-0.25
		c0.285,0.123,0.598,0.206,0.853,0.375c2.514,1.673,4.294,3.893,5.486,6.706c1.765,4.163,3.768,8.223,5.627,12.345
		c1.092,2.42,2.105,4.876,3.148,7.317c0.881,2.055,1.629,4.178,2.658,6.156c2.01,3.863,3.443,7.955,5.03,11.989
		c0.065,0.168,0.065,0.364,0.12,0.688C151.806,77.423,151.448,77.817,150.988,78.323z M153.22,75.814
		c-0.254-0.448-0.483-0.73-0.586-1.053c-1.358-4.28-3.255-8.328-5.227-12.351c-0.757-1.544-1.26-3.211-1.967-4.782
		c-1.454-3.232-2.978-6.433-4.454-9.656c-1.105-2.41-2.186-4.83-3.265-7.251c-0.12-0.271-0.162-0.578-0.241-0.868
		c0.074-0.032,0.146-0.064,0.219-0.096c0.683,1.204,1.37,2.405,2.045,3.613c0.361,0.647,0.701,1.308,1.054,1.959
		c2.399,4.427,4.854,8.826,7.179,13.291c1.047,2.01,1.849,4.148,2.747,6.234c1.071,2.482,2.136,4.967,3.182,7.459
		c0.232,0.552,0.375,1.143,0.57,1.752C154.075,74.625,153.701,75.144,153.22,75.814z"/>
	<path class="stroke" fill="#183046"  fill-rule="evenodd" clip-rule="evenodd" d="M104.951,68.417c-0.482,2.151-1.937,2.906-3.768,3.188
		c-0.827,0.127-1.648,0.299-2.479,0.378c-1.807,0.171-3.319-0.778-4.888-1.426c-0.92-0.38-1.869-0.764-2.564-1.615
		c-0.915-1.118-1.242-2.294-0.71-3.624c0.344-0.857,0.774-1.694,1.277-2.467c1.546-2.378,4.38-2.6,6.445-1.573
		c2.158,1.072,4.267,2.253,5.668,4.39C104.755,66.921,104.876,66.863,104.951,68.417z M95.392,69.229
		c0.447,0.192,0.938,0.44,1.599,0.533c0.842-1.232,1.504-1.627,1.471-3.454c-0.509-0.292-1.641-0.81-2.494-1.023
		C94.539,66.713,94.602,68.235,95.392,69.229z M100.466,66.906c-0.086,1.065-0.64,2.323-1.482,3.025
		c1.525-0.161,2.947,0.014,4.044-1.469C102.2,67.961,101.443,67.5,100.466,66.906z M94.433,65.135
		c-0.993,0.241-2.097,0.647-2.508,1.75c0.492,0.487,1.13,1.058,1.739,1.662C93.003,66.862,93.821,65.809,94.433,65.135z"/>
	<path class="stroke" fill="#183046"  fill-rule="evenodd" clip-rule="evenodd" d="M80.865,83.859c2.876-0.382,4.734,1.435,6.481,3.462
		c0.181,0.211,0.318,0.46,0.503,0.668c1.092,1.236,1.125,1.333,0.96,3.189c-0.068,0.09-0.13,0.236-0.239,0.304
		c-2.914,1.823-6.031,3.221-9.495,2.251c-2.476-0.692-5.021-1.597-6.613-3.903c-1.027-1.487-1.545-3.184-1.725-4.968
		c-0.071-0.712,0.072-1.479,0.771-1.837c2.065-1.059,4.219-1.912,6.546-0.921C79.022,82.518,79.865,83.223,80.865,83.859z
		 M73.349,86.182c-0.07,0.083-0.142,0.166-0.213,0.249c0.581,1.854,1.544,3.47,3.265,4.489c2.289,1.356,4.806,1.739,7.39,1.23
		c1.293-0.255,2.594-0.746,3.171-2.379c-0.558-0.149-1.025-0.326-1.509-0.395c-2.119-0.302-4.246-0.554-6.363-0.866
		c-0.634-0.093-1.279-0.252-1.865-0.505C75.914,87.439,74.639,86.795,73.349,86.182z M73.78,84.023
		c3.417,2.767,7.493,3.166,11.554,3.619c-1.318-1.908-3.292-1.906-5.18-1.745C78.32,83.661,75.788,82.916,73.78,84.023z"/>
	<path class="stroke" fill="#183046"  fill-rule="evenodd" clip-rule="evenodd" d="M94.852,58.8c-0.065-1.029,0.402-1.315,0.923-1.582
		c2.029-1.038,4.004-0.609,5.927,0.27c1.185,0.54,2.371,1.117,3.447,1.84c1.659,1.115,3.248,2.351,3.972,4.517
		c-0.3,0.462-0.608,0.938-0.999,1.541c-0.569-0.356-1.121-0.521-1.378-0.891c-2.453-3.524-6.007-4.833-10.084-5.188
		C96.047,59.254,95.453,58.975,94.852,58.8z"/>
	<path class="stroke" fill="#183046"  fill-rule="evenodd" clip-rule="evenodd" d="M86.5,73.502c0.171-0.111,0.358-0.231,0.565-0.366
		c1.517,0.765,1.621,2.054,1.477,3.488c-0.712,0.543-1.101,1.552-2.213,1.412c-0.381-0.498-0.128-0.815,0.159-1.155
		c0.264-0.314,0.481-0.668,0.755-1.054C86.994,75.048,86.757,74.305,86.5,73.502z"/>
	<path class="stroke" fill="#183046"  fill-rule="evenodd" clip-rule="evenodd" d="M84.167,77.581c-0.661-0.143-1.017-0.22-1.534-0.332
		c-0.087-0.378-0.316-0.82-0.25-1.212c0.134-0.79,0.734-1.296,1.474-1.518c0.8-0.241,1.306,0.24,1.773,1.119
		C85.183,76.232,84.682,76.898,84.167,77.581z"/>
	
		<ellipse transform="matrix(-0.9565 -0.2918 0.2918 -0.9565 168.8904 160.0238)" fill-rule="evenodd" clip-rule="evenodd" cx="96.379" cy="67.417" rx="0.843" ry="0.982"/>
	
		<ellipse transform="matrix(-0.9564 -0.2921 0.2921 -0.9564 129.1403 139.359)" fill-rule="evenodd" clip-rule="evenodd" cx="74.973" cy="60.04" rx="0.843" ry="0.983"/>
</g>
<g id="Layer_2">
	<path fill-rule="evenodd" clip-rule="evenodd" fill="#fafd30" class="fill" d="M117.399,94.042c-0.631,2.95-1.267,5.898-1.889,8.849
		c-0.962,4.548-0.866,9.086,0.382,13.554c0.512,1.834,1.344,3.58,2.051,5.357c0.479,1.205,1.048,2.375,1.484,3.595
		c0.568,1.588,0.258,3.151-0.479,4.6c-1.179,2.318-2.321,4.667-3.703,6.863c-1.41,2.246-3.059,4.348-4.663,6.467
		c-1.74,2.301-4.098,3.954-6.361,5.667c-2.153,1.63-4.438,3.09-6.958,4.155c-3.062,1.295-6.139,1.074-9.182,0.135
		c-1.5-0.464-2.353-1.833-2.974-3.204c-1.854-4.089-2.892-8.377-2.953-12.889c-0.032-2.388-0.34-4.716-1.043-7.036
		c-0.917-3.029-1.573-6.14-2.258-9.234c-0.89-4.021-1.445-8.093-1.655-12.207c-0.027-0.527,0.095-1.062,0.158-1.686
		c3.409,1.043,6.793,1.014,10.118,1.406c2.355,0.278,4.763,0.391,7.128,0.249c1.783-0.107,3.582-0.599,5.296-1.16
		c2.946-0.963,4.984-3.324,7.336-5.175c2.634-2.073,5.148-4.299,7.708-6.467c0.774-0.657,1.526-1.342,2.289-2.014
		C117.287,93.925,117.344,93.984,117.399,94.042z"/>
</g>
</svg>
