<svg version="1.1" id="svg" xmlns="http://www.w3.org/2000/svg" xmlns:xlink="http://www.w3.org/1999/xlink" x="0px" y="0px"
	 width="200px" height="200px" viewBox="0 0 200 200" enable-background="new 0 0 200 200" xml:space="preserve">
<path class="stroke" fill="#472664"  fill-rule="evenodd" clip-rule="evenodd" d="M177.13,76.104c-0.878-1.271-1.956-2.432-3.08-3.5
	c-2.297-2.182-4.71-4.242-7.027-6.403c-1.151-1.074-2.363-1.47-3.952-1.161c-5.214,1.015-10.456,1.884-15.672,2.887
	c-5.605,1.079-11.292,1.834-16.546,4.02c-0.714-2.152-1.348-4.254-2.108-6.309c-1.323-3.577-3.633-6.299-7.162-7.892
	c-1.662-0.751-3.327-1.494-4.997-2.224c-2.402-1.05-4.811-2.085-7.378-3.197c0.853-1.396,0.51-3.178,1.756-4.536
	c1.679,0.235,3.375,0.449,5.062,0.714c4.185,0.655,8.348,1.512,12.554,1.95c3.59,0.374,5.691-0.937,6.771-3.907
	c1.215-3.342,2.089-6.76,2.378-10.311c0.068-0.847,0.01-1.703,0.01-2.359c-0.792-1.245-1.763-1.909-2.898-2.304
	c-5.369-1.871-10.718-3.809-16.131-5.542c-5.708-1.829-11.619-2.526-17.601-2.693c-3.751-0.104-6.007,1.379-7.46,4.935
	c-1.191,2.915-1.961,6.007-2.824,9.047c-1.611,5.675-3.157,11.368-4.724,17.057c-0.455,1.651-1.047,3.285-1.3,4.969
	c-0.442,2.945,0.642,6.999,4.105,8.298c2.059,0.772,4.128,1.524,6.221,2.198c3.239,1.042,6.291,2.403,8.993,4.528
	c1.535,1.206,2.308,2.782,2.728,4.602c0.427,1.846-0.177,3.296-1.783,4.276c-0.958,0.585-1.956,1.123-2.98,1.584
	c-2.708,1.218-5.229,0.691-7.35-1.438c-1.689-1.696-2.939-3.689-3.97-5.826c-0.584-1.212-1.436-2.115-2.708-2.674
	c-0.773,0.059-1.566,0.12-2.478,0.19c-0.236-0.545-0.51-1.06-0.688-1.606c-0.514-1.581-1.042-3.159-1.469-4.765
	c-1.693-6.359-4.117-12.443-7.159-18.255c-1.811-3.459-3.807-6.85-6.881-9.444c-2.885-2.436-6.181-4.045-9.761-5.124
	c-3.379-1.02-6.801-0.746-10.221-0.256c-2.646,0.379-5.277,0.667-7.816,1.725c-3.77,1.571-7.233,3.527-10.108,6.44
	c-3.086,3.127-5.146,6.855-6.164,11.119c-0.549,2.296-0.944,4.631-1.323,6.963c-0.161,0.993-0.25,2.042-0.114,3.029
	c0.435,3.135,0.896,6.272,1.528,9.371c0.582,2.846,1.399,5.699,3.158,8.041c2.623,3.492,6.269,5.659,10.384,7.003
	c2.744,0.896,5.611,0.852,8.455,0.808c3.121-0.049,6.201-0.452,9.272-1.051c2.072-0.403,4.078-0.91,5.981-1.824
	c0.318-0.152,0.678-0.22,1.027-0.33c1.846,3.517,2.168,7.121,1.365,10.856c-0.098,0.458-0.323,0.916-0.588,1.307
	c-1.563,2.31-3.901,3.103-6.536,3.115c-2.313,0.011-4.171-1.227-6.017-2.459c-1.29-0.861-2.553-1.86-3.978-2.4
	c-2.455-0.928-4.383-0.68-5.837,1.447c-1.303,1.904-2.731,3.722-4.021,5.635c-2.221,3.292-3.715,6.783-2.589,10.887
	c0.099,0.36,0.091,0.749,0.178,1.113c0.344,1.443,0.923,2.682,2.267,3.552c2.042,1.323,4.166,2.418,6.479,3.182
	c3.156,1.043,6.333,1.959,9.586,2.688c3.934,0.882,7.779,0.823,11.624-0.177c3.744-0.974,7.02-2.895,10.042-5.28
	c0.655-0.517,1.396-0.927,2.133-1.409c1.547,1.41,2.965,2.702,4.567,4.163c-1.904,0.638-3.601,1.125-5.232,1.773
	c-2.091,0.831-4.222,1.631-6.17,2.738c-2.27,1.291-2.646,2.289-1.884,4.656c0.493,1.528,1.068,3.036,1.705,4.512
	c0.651,1.506,1.037,3.045,1.004,4.684c-0.066,3.36-3.36,7.523-6.654,8.064c-4.757,0.782-8.896-1.882-9.97-6.337
	c-0.504-2.09-0.814-4.169-0.694-6.362c0.248-4.54-1.82-5.688-5.818-5.814c-0.053-0.001-0.108-0.002-0.161,0.004
	c-4.844,0.618-9.691,1.212-14.528,1.885c-0.642,0.09-1.275,0.512-1.833,0.896c-2.214,1.523-2.655,3.845-2.5,6.273
	c0.163,2.562,0.451,5.131,0.898,7.659c0.828,4.68,2.02,9.245,5.243,12.974c0.667,0.772,1.266,1.606,1.96,2.353
	c2.701,2.9,5.164,6.056,8.649,8.126c1.153,0.686,2.325,1.355,3.403,2.148c1.722,1.266,3.722,1.898,5.672,2.627
	c3.082,1.152,6.26,1.346,9.501,0.748c3.877-0.714,7.582-1.914,11.096-3.706c3.436-1.753,6.047-4.444,8.365-7.437
	c2.601-3.36,5.091-6.803,6.18-11.02c0.375-1.454,0.816-2.9,1.066-4.377c0.303-1.784,0.434-3.598,0.646-5.453
	c4.929-1.707,9.906-3.431,15.164-5.252c-0.173,1.239-0.219,2.147-0.436,3.013c-0.589,2.365-0.758,4.768-0.816,7.19
	c-0.029,1.234-0.184,2.466-0.202,3.701c-0.047,3.212-0.232,6.398,1.065,9.516c1.723,4.138,4.748,6.296,9.193,6.062
	c0.85-0.044,1.701-0.245,2.532-0.449c1.508-0.369,2.992-0.833,4.501-1.191c3.653-0.869,7.315-1.7,10.973-2.548
	c0.717-0.166,1.431-0.34,2.2-0.523c0.511,1.205,0.924,2.306,1.436,3.358c1.148,2.359,2.342,4.697,3.525,7.039
	c0.683,1.352,2.467,2.343,3.984,2.177c0.583-0.063,1.16-0.221,1.728-0.38c4.564-1.275,8.869-3.212,13.153-5.197
	c1.008-0.467,1.692-1.288,1.579-2.397c-0.151-1.479-0.437-2.96-0.836-4.393c-0.728-2.617-1.581-5.198-2.425-7.933
	c1.535-0.382,2.892-0.68,4.223-1.063c1.078-0.311,2.151-0.665,3.179-1.109c1.078-0.466,1.623-1.437,1.714-2.551
	c0.078-0.95,0.062-1.955-0.161-2.875c-0.836-3.439-1.767-6.856-2.678-10.277c-0.373-1.398-0.757-2.795-1.188-4.177
	c-0.321-1.033-1.027-1.735-2.377-2.184c-2.208,0.706-4.661,1.462-7.094,2.277c-1.259,0.421-2.497,0.437-3.854,0.158
	c-1.385-4.706-2.758-9.374-4.071-13.837c1.798-2.321,3.344-4.452,5.037-6.46c1.692-2.009,3.534-3.892,5.303-5.838
	c0.685-0.754,1.346-1.53,2.021-2.293c3.381-3.818,6.771-7.629,10.143-11.455c2.696-3.06,5.626-5.91,7.972-9.28
	C179.021,82.374,178.956,78.745,177.13,76.104z M57.947,61.661c-0.794,3.28-3.458,5.846-7.024,6.132
	c-0.749,0.06-1.494,0.165-2.147,0.238c-2.345,0.001-6.161-1.837-6.269-5c-0.051-1.487,0.316-2.632,1.422-3.555
	c1.571-1.312,3.444-1.976,5.424-2.287c2.371-0.371,4.705-0.226,6.914,0.875C58.11,58.982,58.426,59.685,57.947,61.661z
	 M121.691,99.724c2.233-2.354,4.017-5.035,5.565-7.855c0.682-1.241,0.999-2.691,1.406-4.07c0.363-1.229,0.677-2.479,0.915-3.738
	c0.446-2.361,0.822-4.735,1.288-7.463c4.025,4.161,8.383,7.661,11.341,12.61c-1.366,1.54-2.643,3.046-3.993,4.482
	c-1.797,1.912-3.623,3.802-5.502,5.633c-0.505,0.492-1.216,0.925-1.896,1.056c-3.466,0.667-6.953,1.226-10.434,1.815
	c-0.149,0.025-0.313-0.037-0.682-0.088C120.414,101.246,121.009,100.443,121.691,99.724z M111.504,107.046
	c-0.312,2.663-0.598,5.113-0.901,7.709c-3.025-2.243-5.824-4.318-8.852-6.562C105.071,107.803,108.103,107.446,111.504,107.046z
	 M127.056,141.354c0.515-2.248,2.042-3.2,3.401-4.688c0.312,1.28,0.553,2.272,0.838,3.447
	C129.936,140.511,128.681,140.879,127.056,141.354z"/>
<path fill-rule="evenodd" clip-rule="evenodd" fill="#f8bfe9" class="fill" d="M83.646,75.761c-0.476,0.299-0.945,0.546-1.361,0.863
	c-1.495,1.136-2.976,2.29-4.454,3.448c-0.887,0.695-1.709,1.485-2.646,2.105c-2.615,1.733-3.472,4.204-2.375,7.618
	c0.08,0.249,0.173,0.494,0.276,0.785c-0.908,1.046-1.746,2.129-1.674,3.57c0.042,0.847,0.115,1.73,0.392,2.521
	c1.417,4.041,4.116,7.107,7.512,9.618c0.561,0.415,1.114,0.841,1.666,1.269c0.082,0.063,0.132,0.166,0.312,0.397
	c-0.983,1.688-2.117,3.356-3.452,4.872c-1.099,1.248-2.296,2.411-3.472,3.591c-3.105,3.119-6.92,4.819-11.228,5.405
	c-5.107,0.695-10.06,0-14.864-1.869c-1.448-0.563-2.991-0.888-4.42-1.491c-1.474-0.623-2.926-1.351-4.272-2.214
	c-2.337-1.497-2.883-3.764-1.734-6.279c1.568-3.432,3.543-6.615,5.948-9.51c1.437-1.729,2.354-1.621,3.729-0.667
	c2.708,1.882,5.655,3.263,8.807,4.25c3.277,1.025,7.328-0.159,9.725-2.614c2.146-2.199,2.086-4.808,1.912-7.498
	c-0.141-2.161-0.762-4.215-1.575-6.219c-0.361-0.893-0.624-1.826-0.949-2.734c-0.318-0.892-0.478-1.87-1.317-2.572
	c-0.253,0.051-0.544,0.038-0.755,0.162c-2.647,1.544-5.628,2.045-8.538,2.779c-4.814,1.213-9.68,1.266-14.532,0.45
	c-1.603-0.269-3.196-0.963-4.64-1.746c-4.633-2.513-7.861-6.044-8.924-11.51c-0.987-5.075-0.847-10.053,0.193-15.021
	c0.811-3.877,2.667-7.282,5.178-10.408c2.333-2.903,5.145-5.005,8.559-6.328c2.298-0.89,4.663-1.608,6.995-2.411
	c2.626-0.904,5.286-0.641,7.972-0.335c3.561,0.404,6.972,1.274,10.119,3.009c3.262,1.797,5.413,4.702,7.351,7.752
	c2.426,3.819,4.386,7.877,5.808,12.184c1.445,4.381,2.904,8.757,4.345,13.14C83.424,74.624,83.505,75.153,83.646,75.761z
	 M49.736,70.292c3.292,0.087,6.101-1.286,8.4-4.065c4.548-5.496,1.866-13.716-5.079-15.102c-2.178-0.435-4.366-0.289-6.417,0.825
	c-2.099,1.139-3.647,2.872-4.822,4.828c-0.773,1.287-0.974,2.93-1.37,4.43c-0.745,2.819,1.101,6.742,4.16,8.137
	C46.154,70.049,47.77,70.351,49.736,70.292z"/>
<path fill-rule="evenodd" clip-rule="evenodd" fill="#f8bfe9" class="fill" d="M74.947,87.369c0.384-2.877,2.41-4.518,4.483-5.909
	c2.031-1.362,4.346-2.307,6.565-3.376c0.505-0.243,1.128-0.242,1.849-0.384c0.765,1.073,1.513,2.107,2.244,3.152
	c0.859,1.23,1.602,2.558,2.573,3.689c2.917,3.396,9.238,5.28,13.824,0.045c2.094-2.39,3.347-4.971,3.243-8.135
	c-0.027-0.829-0.272-1.689-0.59-2.465c-1.712-4.179-5.15-6.265-9.243-7.593c-2.954-0.959-5.868-2.045-8.796-3.084
	c-0.353-0.125-0.695-0.286-1.025-0.462c-2.049-1.09-2.718-2.309-2.176-4.595c0.864-3.65,1.823-7.279,2.843-10.889
	c1.212-4.283,2.496-8.546,3.822-12.795c0.684-2.189,1.255-4.425,2.792-6.275c1.243-1.498,2.556-2.497,4.653-2.236
	c2.706,0.336,5.434,0.482,8.149,0.751c3.474,0.343,6.952,0.791,10.237,1.991c4.581,1.674,9.091,3.542,13.616,5.368
	c0.515,0.208,0.924,0.682,1.37,1.024c-0.179,4.476-0.596,8.717-4.487,11.567c-3.079-0.662-6.066-1.274-9.04-1.951
	c-2.767-0.63-5.52-1.32-8.276-2c-1.242-0.307-2.44-0.343-3.726,0.507c-1.794,3.146-2.487,6.864-3.938,10.486
	c0.699,0.318,1.249,0.611,1.827,0.825c3.47,1.283,6.978,2.469,10.409,3.846c2.592,1.04,4.672,2.858,6.335,5.084
	c0.629,0.843,1.014,1.877,1.458,2.849c2.03,4.439,2.359,9.105,1.742,13.872c-0.798,6.166-3.553,11.524-7.558,16.098
	c-3.894,4.448-8.966,7.06-14.983,7.643c-3.768,0.364-7.503,0.269-11.229-0.341c-4.03-0.66-7.487-2.531-10.593-5.103
	c-2.408-1.993-4.437-4.35-6.373-6.79C75.929,90.499,75.218,89.075,74.947,87.369z"/>
<path fill-rule="evenodd" clip-rule="evenodd" fill="#f8bfe9" class="fill" d="M88.943,124.528c-1.508-2.536-4.241-3.528-5.882-5.832
	c3.35-2.495,6.434-5.293,8.724-8.856c2.723,0.179,5.343,0.352,8.165,0.538c3.28,2.395,6.701,4.893,10.162,7.422
	c0,1.359,0,2.688,0,3.728c-1.082,1.446-2.051,2.654-2.912,3.936c-0.376,0.56-0.649,1.253-0.757,1.919
	c-0.206,1.262-0.772,2.29-1.52,3.305c-1.88,2.551-2.006,3.366-1.275,6.574c-4.733,1.614-9.468,3.257-14.565,4.429
	c-0.733,0.948-0.63,2.27-0.419,3.516c0.588,3.489,0.183,6.859-1.086,10.116c-1.989,5.104-5.034,9.413-9.512,12.708
	c-2.773,2.041-5.821,3.471-9.047,4.465c-3.825,1.179-7.678,0.439-11.404-0.651c-4.53-1.328-8.685-3.578-12.274-6.566
	c-2.733-2.274-5.175-4.95-7.17-8.005c-2.579-3.947-3.668-8.319-4.196-12.881c-0.239-2.069-0.235-4.168-0.284-6.256
	c-0.036-1.521,0.69-2.594,2.194-2.974c1.446-0.366,2.908-0.77,4.386-0.896c2.78-0.237,5.575-0.325,8.366-0.398
	c2.021-0.053,2.586,0.621,2.347,2.658c-0.347,2.96-0.321,5.901,0.505,8.785c0.729,2.546,2.222,4.549,4.658,5.656
	c1.699,0.772,3.462,1.466,5.265,1.935c3.71,0.966,7.057-0.184,9.967-2.421c1.848-1.42,3.122-3.396,3.447-5.819
	c0.542-4.038-0.003-7.915-1.822-11.577c-1.09-2.194-0.444-3.647,1.965-4.341c4.12-1.187,8.238-2.385,12.354-3.59
	C87.811,125.008,88.28,124.786,88.943,124.528z"/>
<path fill-rule="evenodd" clip-rule="evenodd" fill="#f8bfe9" class="fill" d="M164.788,67.424c2.37,2.039,4.62,3.944,6.833,5.892
	c0.965,0.85,1.899,1.744,2.766,2.692c1.263,1.381,1.576,2.278,1.747,4.398c-0.958,1.94-2.457,3.476-3.975,5.001
	c-3.98,4-7.696,8.226-11.306,12.57c-4.045,4.865-8.248,9.604-12.732,14.099c-3.901,3.91-7.439,8.183-11.126,12.306
	c-4.086,4.569-8.419,8.892-13.047,12.909c-1.075,0.933-2.197,1.935-4.022,1.976c-0.556-0.339-1.338-0.711-1.999-1.237
	c-2.351-1.87-4.673-3.778-6.978-5.706c-0.656-0.549-1.261-1.176-1.808-1.834c-1.504-1.811-1.479-3.46,0.144-5.174
	c0.957-1.01,2.073-1.866,3.075-2.836c2.389-2.314,4.787-4.62,7.119-6.991c3.349-3.407,6.65-6.861,9.956-10.31
	c2.707-2.824,5.376-5.683,8.088-8.501c2.344-2.436,4.756-4.807,7.079-7.262c2.23-2.358,2.252-4.38,0.127-6.824
	c-2.461-2.831-4.962-5.629-7.443-8.443c-0.171-0.193-0.326-0.401-0.648-0.8C145.971,70.531,155.402,69.017,164.788,67.424z"/>
<path fill-rule="evenodd" clip-rule="evenodd" fill="#f8bfe9" class="fill" d="M143.422,172.784c-1.638-2.544-2.984-5.012-3.721-7.794
	c-0.409-1.542-0.502-3.198-1.447-4.559c-0.371-0.535-0.891-0.966-1.338-1.438c-3.21,0.87-6.247,1.572-9.204,2.522
	c-3.839,1.235-7.678,2.41-11.694,2.907c-1.226,0.152-2.457,0.398-3.816-0.575c-0.736-2.395-1.801-4.96-2.256-7.63
	c-0.352-2.068,0.021-4.269,0.143-6.407c0.173-3.052,0.412-6.102,0.627-9.153c0.018-0.251,0.068-0.499,0.124-0.892
	c0.352,0.175,0.584,0.268,0.794,0.398c2.323,1.443,4.587,2.995,6.988,4.294c1.091,0.591,2.438,0.869,3.691,0.956
	c1.587,0.108,3.185-0.093,4.75-0.588c2.09-0.661,4.236-1.144,6.353-1.724c0.505-0.138,0.988-0.353,1.435-0.516
	c0.579-1.684-0.352-3.03-0.63-4.438c3.617-3.931,7.196-7.82,10.969-11.921c0.452,1.545,0.835,2.819,1.196,4.1
	c0.393,1.395,0.81,2.785,1.135,4.196c0.394,1.706,1.493,2.653,2.997,3.153c3.649-0.769,6.981-2.331,10.5-2.981
	c1.127,1.728,4.058,12.768,3.872,14.717c-0.523,0.268-1.141,0.695-1.824,0.913c-1.889,0.603-3.809,1.104-5.708,1.675
	c-0.553,0.167-1.077,0.431-1.584,0.638c-0.408,1.438,0.011,2.689,0.418,3.878c0.991,2.892,2.093,5.746,3.177,8.605
	c0.637,1.682,0.526,2.222-1.131,2.896c-2.831,1.153-5.713,2.182-8.583,3.239c-1.156,0.426-2.321,0.85-3.511,1.163
	C145.331,172.634,144.467,172.653,143.422,172.784z"/>
<path fill-rule="evenodd" clip-rule="evenodd" fill="#f8bfe9" class="fill" d="M128.497,103.844c-4.883,4.696-9.766,9.393-14.798,14.232
	c-0.063-0.483-0.172-0.824-0.141-1.153c0.199-2.135,0.225-4.313,0.698-6.389c0.603-2.647,1.845-4.933,4.939-5.486
	c2.582-0.463,5.144-1.036,7.721-1.527c0.458-0.087,0.947-0.012,1.422-0.012C128.391,103.62,128.443,103.732,128.497,103.844z"/>
</svg>
