<svg version="1.1" id="svg" xmlns="http://www.w3.org/2000/svg" xmlns:xlink="http://www.w3.org/1999/xlink" x="0px" y="0px"
	 width="200px" height="200px" viewBox="0 0 200 200" enable-background="new 0 0 200 200" xml:space="preserve">
<path class="stroke" fill="#693c11"  d="M179.962,51.945c-0.349-0.469-0.708-0.953-1.203-1.621c-0.671-0.066-1.474-0.172-2.279-0.219
	c-1.703-0.099-3.411-0.129-5.112-0.255c-3.183-0.236-6.357-0.63-9.544-0.764c-4.951-0.207-9.91-0.369-14.864-0.338
	c-7.541,0.045-15.081,0.232-22.621,0.432c-4.723,0.126-9.441,0.418-14.166,0.577c-6.885,0.23-13.77,0.415-20.656,0.606
	c-3.852,0.107-7.715-0.104-11.544,0.527c-0.755,0.124-1.539,0.083-2.309,0.102c-3.361,0.083-6.723,0.163-10.083,0.239
	c-2.571,0.059-5.143,0.114-7.715,0.166c-0.992,0.02-1.985,0.005-2.977,0.046c-3.355,0.141-6.714,0.275-10.067,0.46
	c-2.85,0.158-5.712,0.255-8.538,0.614c-3.546,0.449-7.075,0.954-10.662,0.925c-1.018-0.008-2.036,0.139-3.152,0.221
	c0,2.578,0.031,4.998-0.007,7.416c-0.057,3.625-0.155,7.25-0.247,10.874c-0.023,0.936-0.119,1.871-0.127,2.807
	c-0.026,3.634,0.02,7.271-0.059,10.906c-0.107,5.013-0.33,10.025-0.447,15.039c-0.043,1.815,0.11,3.635,0.111,5.454
	c0.004,4.683,0.006,9.364-0.055,14.047c-0.055,4.132-0.13,8.266-0.308,12.394c-0.259,6.057-0.646,12.108-0.925,18.163
	c-0.107,2.36-0.098,4.728-0.07,7.09c0.009,0.826,0.23,1.647,1.146,2.204c1.812,0,3.731,0.061,5.646-0.012
	c4.165-0.156,8.319-0.691,12.5-0.254c0.598,0.063,1.21-0.008,1.815,0.01c0.77,0.021,1.554-0.018,2.305,0.118
	c3.326,0.598,6.681,0.606,10.039,0.614c5.841,0.015,11.678,0.033,17.517,0.104c3.851,0.046,7.698,0.269,11.549,0.271
	c9.975,0.005,19.951-0.115,29.926-0.095c9.862,0.019,19.726,0.15,29.589,0.224c3.246,0.023,6.494-0.026,9.741,0.031
	c7.093,0.127,14.185,0.309,21.276,0.438c0.467,0.009,0.938-0.239,1.697-0.45c0.021-1.146,0.014-2.162,0.064-3.175
	c0.246-4.839,0.545-9.673,0.757-14.513c0.306-6.986,0.336-13.983,1.073-20.949c0.324-3.065,0.494-6.145,0.756-9.216
	c0.259-3.012,0.691-6.016,0.791-9.032c0.301-9.196,0.447-18.397,0.711-27.595c0.195-6.828,0.49-13.654,0.721-20.48
	C180.002,54.721,179.962,53.347,179.962,51.945z"/>
<path fill-rule="evenodd" clip-rule="evenodd" fill="#faf0e5" class="fill" d="M26.653,157.252c0.479-0.646,0.958-1.291,1.491-2.01
	c3.291,0,6.592,0.048,9.892-0.017c2.642-0.051,5.282-0.209,7.919-0.398c0.488-0.036,1.025-0.375,1.406-0.721
	c0.482-0.436,0.828-1.021,1.356-1.7c0.947-0.21,1.715-0.943,2.325-1.904c0.29-0.458,0.693-0.849,1.08-1.235
	c1.671-1.675,3.393-3.3,5.008-5.025c0.406-0.434,0.639-1.162,0.688-1.775c0.244-3.16-0.225-6.269-0.995-9.318
	c-0.187-0.739-0.774-1.452-1.348-1.999c-0.578-0.552-1.37-0.879-2.161-1.363c0.578-0.743,1.144-1.533,1.771-2.27
	c1.173-1.37,2.415-2.681,3.563-4.068c0.94-1.139,1.839-2.319,2.65-3.551c0.269-0.411,0.3-1.042,0.275-1.563
	c-0.048-1.031-0.209-2.056-0.349-3.298c1.037-0.09,1.922-0.167,2.916-0.255c0.073,1.504,0.139,2.863,0.21,4.358
	c2.795,0.949,5.61-0.425,8.463,0.254c0.938,1.499,1.928,3.075,3.017,4.809c-0.418,1.445-0.956,3.004-1.301,4.604
	c-0.296,1.377-0.369,2.803-0.571,4.431c1.069,0.258,1.941,0.467,3.033,0.731c0.069,3.93-0.308,7.964-0.384,12.018
	c1.547,0.54,2.858,0.256,4.239-0.209c0.517-1.973-0.174-3.933-0.092-5.894c0.081-1.963,0.208-3.926,0.321-6.021
	c0.689,0,1.248,0,1.947,0c0,2.445,0,4.843,0,7.156c1.203,0.917,2.113,0.03,3.23-0.014c0.207-2.503,0.406-4.894,0.602-7.279
	c2.002,0,3.834,0,5.994,0c-0.809,0.639-1.375,1.04-1.887,1.504c-0.946,0.86-1.938,1.769-1.634,3.216
	c0.31,1.472,1.464,2.116,2.793,2.457c2.667-0.595,3.563-1.847,3.312-4.715c0.969-0.785,1.99-1.613,3.035-2.459
	c3.028,0,6.054,0,9.16,0c0.677,0.554,1.395,1.141,1.953,1.598c-0.311,1.023-0.715,1.871-0.78,2.745
	c-0.038,0.515,0.338,1.185,0.729,1.586c1.002,1.024,3.224,0.884,4.671-0.166c1.546-2.618-0.224-4.071-2.36-5.726
	c3.21,0,5.959,0,8.845,0c0.124,1.555,0.251,3.162,0.382,4.81c1.145,0,2.063,0,3.033,0c0.809-1.681,0.014-3.435,0.434-5.155
	c0.328-0.082,0.679-0.168,1.208-0.301c0.147,3.381,0.29,6.644,0.432,9.869c1.565,0.631,2.892,0.344,4.392,0.033
	c0.058-0.6,0.161-1.178,0.161-1.756c-0.005-2.481-0.047-4.96-0.054-7.44c-0.004-0.54,0.076-1.079,0.111-1.522
	c1.688-0.602,3.229-1.148,5.004-1.78c0.062,1.717,0.119,3.387,0.182,5.125c1.118,0,2.09,0,3.237,0
	c0.337-2.555-0.039-5.071,0.157-7.725c0.352,0.149,0.582,0.176,0.697,0.306c2.426,2.702,4.775,5.473,7.268,8.111
	c4.012,4.244,8.096,8.419,12.186,12.586c2.663,2.715,5.394,5.361,8.084,8.046c0.299,0.297,0.537,0.654,1,1.224
	c-1.723,0.158-3.176,0.004-4.625-0.089c-6.211-0.395-12.416-0.967-18.631-1.166c-8.754-0.281-17.517-0.314-26.275-0.408
	c-4.732-0.051-9.465,0.021-14.197-0.015c-1.871-0.015-3.744-0.26-5.613-0.247c-5.503,0.036-11.003,0.178-16.506,0.217
	c-3.08,0.022-6.162-0.136-9.242-0.102c-2.75,0.031-5.5,0.204-8.249,0.336c-0.823,0.039-1.641,0.2-2.462,0.222
	c-5.119,0.135-10.237,0.252-15.357,0.364c-6.003,0.131-12.008,0.251-18.012,0.369c-0.873,0.019-1.749,0.003-2.623,0.003
	C26.757,157.537,26.706,157.396,26.653,157.252z"/>
<path fill-rule="evenodd" clip-rule="evenodd" fill="#faf0e5" class="fill" d="M27.683,139.872c-1.864,2.46-2.657,4.967-2.218,7.888
	c0.287,1.895,0.276,3.835,0.406,5.829c-0.805,0.684-1.629,1.386-2.695,2.293c-0.021-0.905-0.046-1.585-0.05-2.264
	c-0.027-7.222,0.822-14.402,1.068-21.609c0.199-5.834,0.22-11.676,0.252-17.516c0.012-2.364-0.243-4.731-0.217-7.096
	c0.032-3.027,0.238-6.051,0.343-9.078c0.057-1.649,0.046-3.3,0.088-4.949c0.095-3.63,0.219-7.259,0.301-10.89
	c0.063-2.809,0.082-5.618,0.118-8.427c0.002-0.165-0.022-0.331-0.017-0.496c0.158-5.336,0.319-10.672,0.484-16.009
	c0.005-0.16,0.064-0.317,0.139-0.662c0.845,0.274,1.667,0.521,2.475,0.809c1.295,0.458,2.584,0.936,3.869,1.421
	c1.229,0.463,2.451,0.947,3.676,1.424c6.41,2.493,12.813,5.001,19.233,7.463c0.979,0.376,1.765,0.878,2.386,2.204
	c-0.319,11.595-0.649,23.555-0.984,35.67c-0.512,0-1.074,0.108-1.576-0.021c-2.275-0.58-4.188-0.06-5.861,1.608
	c-3.509,3.497-7.064,6.944-10.59,10.425c-0.229,0.225-0.358,0.551-0.58,0.902c0.108,2.567,0.221,5.191,0.339,8.007
	c-0.856-0.168-1.609-0.245-2.313-0.474c-0.943-0.305-1.691-0.129-2.436,0.513c-0.831,0.717-1.771,1.31-2.61,2.019
	c-0.794,0.672-1.517,1.427-2.269,2.146c-1.243,1.188-1.346,2.698-1.201,4.274C27.382,136.812,27.535,138.344,27.683,139.872z
	 M29.888,108.246c0.866-0.245,1.437-0.343,1.95-0.565c1.11-0.48,2.151-1.153,3.291-1.518c2.565-0.817,5.166-1.53,7.768-2.223
	c1.746-0.465,3.521-0.823,5.451-1.269c0.102-0.939,0.276-1.853,0.285-2.768c0.025-2.973,0.029-5.947-0.037-8.919
	c-0.041-1.857-0.225-3.712-0.35-5.64c-0.599-0.21-1.042-0.476-1.502-0.509c-3.569-0.254-7.123-0.586-10.628-1.361
	c-1.332-0.294-2.708-0.407-4.069-0.553c-0.615-0.066-1.242-0.011-1.92-0.011C29.439,91.373,29.828,99.597,29.888,108.246z"/>
<path fill-rule="evenodd" clip-rule="evenodd" fill="#faf0e5" class="fill" d="M58.639,66.458c-0.931-0.393-1.849-0.822-2.794-1.172
	c-3.101-1.146-6.188-2.322-9.32-3.373c-2.239-0.752-4.535-1.336-6.812-1.971c-3.629-1.01-7.336-2.607-10.103-4.381
	c0.053-0.081,0.096-0.226,0.157-0.234c2.883-0.407,5.76-0.885,8.657-1.173c2.34-0.233,4.703-0.25,7.059-0.335
	c3.079-0.112,6.162-0.187,9.241-0.296c4.61-0.164,9.221-0.378,13.832-0.506c3.854-0.106,7.712-0.045,11.563-0.193
	c3.902-0.149,7.798-0.482,11.699-0.695c1.537-0.084,3.082-0.075,4.623-0.085c3.354-0.022,6.709-0.11,10.061-0.025
	c4.235,0.108,8.466,0.402,12.701,0.534c1.703,0.052,3.412-0.102,5.118-0.182c5.006-0.235,10.009-0.616,15.018-0.682
	c4.294-0.056,8.59,0.287,12.886,0.369c3.078,0.058,6.164-0.109,9.242-0.021c3.461,0.099,6.918,0.374,10.378,0.577
	c0.103,0.006,0.202,0.072,0.644,0.237c-1.139,0.486-2.03,0.915-2.953,1.251c-4.342,1.582-8.66,3.238-13.052,4.67
	c-3.655,1.193-7.394,2.144-11.11,3.137c-1.594,0.426-3.234,0.672-4.848,1.03c-3.691,0.819-7.453,0.609-11.188,0.736
	c-4.131,0.141-8.264,0.155-12.396,0.255c-4.235,0.104-8.472,0.224-12.704,0.384c-1.594,0.061-3.181,0.307-4.773,0.373
	c-2.917,0.121-5.838,0.152-8.756,0.255c-1.43,0.051-2.854,0.215-4.284,0.266c-4.68,0.166-9.362,0.254-14.039,0.471
	c-2.411,0.111-4.812,0.453-7.222,0.647c-2.129,0.172-4.267,0.285-6.399,0.423C58.723,66.652,58.681,66.556,58.639,66.458z"/>
<path fill-rule="evenodd" clip-rule="evenodd" fill="#faf0e5" class="fill" d="M60.658,69.785c0.744-0.161,1.534-0.408,2.341-0.494
	c3.723-0.398,7.449-0.757,11.176-1.118c1.314-0.127,2.631-0.269,3.949-0.32c4.288-0.167,8.576-0.35,12.866-0.426
	c8.037-0.144,16.078-0.099,24.111-0.355c6.271-0.2,12.531-0.735,18.798-1.122c0.925-0.057,1.851-0.115,2.95-0.183
	c0.062,0.606,0.176,1.077,0.153,1.541c-0.224,4.413,0.163,8.8,0.448,13.198c0.506,7.854,1.117,15.709,0.941,23.592
	c-0.061,2.742-0.162,5.486-0.25,8.419c-0.705-0.33-0.814-0.76-0.812-1.24c0.004-2.189,0.029-4.38,0.021-6.57
	c-0.005-1.321-0.041-2.645-0.105-3.965c-0.016-0.312-0.211-0.614-0.34-0.964c-2.877-1.373-5.751-2.745-8.535-4.072
	c-2.688,0.202-5.268,0.421-7.85,0.582c-1.579,0.099-2.605,1.036-3.539,2.21c-1.303-0.309-2.481-1.452-4.094-0.413
	c-0.098,0.277-0.258,0.719-0.472,1.308c1.351,0.967,2.637,1.888,4.101,2.937c0.216,2.215,0.448,4.604,0.666,6.854
	c0.55,0.479,0.918,0.798,1.451,1.263c0,1.203,0,2.548,0,4.055c-1.349,0-2.579,0-3.943,0c0.584-1.506,0.283-2.708-1.438-3.528
	c0-3.265,0-6.59,0-10.048c-1.22-0.387-2.249-0.713-3.306-1.048c-1.308-2.222-2.267-2.636-4.848-2.273
	c-1.522,0.214-3.068,0.385-4.602,0.379c-1.635-0.005-3.069,0.222-4.044,1.7c-0.102,0.154-0.352,0.21-0.797,0.461
	c0-2.636,0.021-5.068-0.007-7.499c-0.026-2.424-0.129-4.847-0.157-7.27c-0.028-2.472-0.007-4.946-0.007-7.459
	c-1.155-0.934-2.54-1.159-4.002-1.082c-2.361,0.125-4.72,0.315-7.081,0.39c-4.349,0.138-8.698,0.217-13.048,0.311
	c-1.268,0.028-2.536,0.032-3.803,0.031c-0.753,0-1.423,0.158-2.068,0.838c-0.235,5.495-0.51,10.987-0.693,16.484
	c-0.184,5.496-0.276,10.994-0.413,16.599c-1.19,0-2.204,0-3.196,0c-0.126-0.226-0.263-0.361-0.271-0.502
	c-0.143-2.964-0.316-5.926-0.394-8.891c-0.069-2.686-0.045-5.376-0.036-8.065c0.023-5.698-0.069-11.396,0.161-17.093
	C60.736,74.649,60.658,72.356,60.658,69.785z M133.65,92.684c0.095-0.995,0.23-1.8,0.238-2.607
	c0.029-3.471,0.029-6.941,0.024-10.413c-0.003-2.202-0.003-4.405-0.069-6.605c-0.02-0.675-0.254-1.345-0.451-2.302
	c-3.667-0.04-7.157,0.228-10.652,0.403c-3.519,0.176-7.05,0.16-10.563,0.412c-3.478,0.249-6.985-0.029-10.486,0.462
	c0,7.092,0,14.006,0,20.883c0.308,0.152,0.495,0.288,0.702,0.338c0.319,0.078,0.654,0.082,0.978,0.142
	c3.337,0.61,6.703,0.314,10.05,0.221c4.294-0.121,8.58-0.442,12.871-0.653C128.647,92.849,131.007,92.783,133.65,92.684z"/>
<path fill-rule="evenodd" clip-rule="evenodd" fill="#faf0e5" class="fill" d="M172.963,156.53c-0.576-0.548-1.013-0.94-1.424-1.357
	c-1.625-1.646-3.223-3.32-4.869-4.944c-1.529-1.507-3.094-2.98-4.674-4.436c-4.414-4.069-8.881-8.08-13.251-12.194
	c-2.759-2.596-5.386-5.334-7.852-7.79c-0.243-2.158-0.46-4.062-0.673-5.965c-0.02-0.164-0.059-0.331-0.041-0.492
	c0.51-4.543,0.383-9.113,0.498-13.669c0.1-3.963-0.078-7.935-0.212-11.901c-0.138-4.071-0.356-8.14-0.568-12.208
	c-0.122-2.308-0.281-4.614-0.46-6.917c-0.226-2.922-0.066-5.825,0.281-8.849c0.553-0.25,1.067-0.566,1.627-0.722
	c3.447-0.96,6.91-1.868,10.359-2.823c4.666-1.292,9.355-2.513,13.973-3.958c2.246-0.702,4.348-1.856,6.526-2.779
	c1.054-0.447,2.136-0.835,3.349-1.307c0.075,0.527,0.18,0.882,0.165,1.232c-0.079,1.869-0.215,3.735-0.277,5.604
	c-0.068,2.027-0.077,4.057-0.116,6.085c-0.021,1.099-0.051,2.198-0.074,3.297c-0.018,0.88-0.076,1.762-0.043,2.64
	c0.228,6.273,0.643,12.546,0.671,18.82c0.031,6.882-0.228,13.768-0.486,20.646c-0.109,2.856-0.592,5.694-0.821,8.547
	c-0.232,2.907-0.427,5.82-0.52,8.735c-0.152,4.782-0.169,9.569-0.315,14.353c-0.114,3.689-0.335,7.377-0.522,11.064
	C173.195,155.601,173.078,155.952,172.963,156.53z M142.96,120.376c0.604,0.463,1.062,0.858,1.562,1.188
	c4.738,3.12,9.482,6.231,14.227,9.344c4.006,2.627,8.01,5.26,12.024,7.873c0.288,0.187,0.667,0.233,1.229,0.421
	c0.086-0.928,0.229-1.672,0.213-2.414c-0.077-3.25-0.208-6.499-0.299-9.748c-0.047-1.651-0.113-3.305-0.061-4.953
	c0.123-3.909,0.413-7.813,0.456-11.722c0.08-7.214,0-14.43,0.05-21.645c0.027-3.743,0.273-7.486,0.271-11.229
	c0-4.791-0.148-9.583-0.244-14.374c-0.004-0.255-0.129-0.506-0.255-0.963c-0.998,0.27-1.923,0.54-2.856,0.77
	c-4.322,1.062-8.733,1.712-13.016,2.974c-3.215,0.946-6.514,1.595-9.76,2.43c-0.994,0.255-1.941,0.688-3.017,1.079
	C143.311,86.452,143.137,103.352,142.96,120.376z"/>
<path fill-rule="evenodd" clip-rule="evenodd" fill="#faf0e5" class="fill" d="M122.674,119.024c-2.576,1.595-5.271,2.969-8.203,4.021
	c0.039,0.71,0.071,1.299,0.111,2.027c2.081,0.851,4.137,1.746,6.24,2.512c0.565,0.206,1.387,0.23,1.903-0.03
	c2.989-1.519,5.925-3.144,8.87-4.746c0.232-0.127,0.4-0.368,0.648-0.604c0.374-3.171,0.752-6.375,1.152-9.759
	c0.752-0.074,1.6-0.157,2.643-0.26c0.443,1.414,0.904,2.697,1.234,4.014c0.229,0.902,0.266,1.851,0.396,2.777
	c0.647,4.594-1.506,7.056-5.455,8.356c-1.662,0.547-3.407,0.963-5.146,1.129c-3.776,0.364-7.569,0.562-11.36,0.763
	c-3.078,0.164-6.161,0.266-9.242,0.337c-3.96,0.09-7.921,0.21-11.88,0.154c-3.628-0.052-7.249-0.372-10.878-0.471
	c-1.699-0.048-3.405,0.155-5.109,0.226c-0.652,0.029-1.307,0.005-2.076,0.005c0.123-1.522,0.644-2.752,1.291-3.943
	c1.26-0.497,2.984,0.643,3.933-1.246c-0.202-0.414-0.434-0.891-0.538-1.104c-0.844-0.605-1.442-1.036-2.09-1.501
	c0.222-0.735,0.391-1.296,0.59-1.953c0.61-0.029,1.146-0.082,1.679-0.076c2.362,0.022,4.726,0.121,7.087,0.08
	c3.297-0.055,6.603-0.087,9.887-0.352c5.506-0.44,11.004-0.08,16.504-0.078c2.356,0.002,4.711-0.408,7.068-0.626
	c0.204-0.02,0.411-0.003,0.617-0.003C122.592,118.79,122.633,118.908,122.674,119.024z M101.444,127.722
	c0.08-2.275,0.517-4.443,0.319-6.651c-2.553-0.065-4.914-0.348-7.061,0.781c-0.79,1.857-0.951,4.277-0.383,5.87
	C96.543,127.722,98.793,127.722,101.444,127.722z M93.186,122.438c-1.436-0.989-2.972-0.859-4.703-0.851
	c-1.115,1.868-1.389,3.997-1.906,6.276c1.893,0.177,3.528,0.669,5.357,0.206C92.354,126.186,92.766,124.325,93.186,122.438z"/>
<path fill-rule="evenodd" clip-rule="evenodd" fill="#faf0e5" class="fill" d="M71.162,116.854c0.131,0.159,0.234,0.232,0.262,0.327
	c0.041,0.152,0.035,0.318,0.062,0.63c-1.849,0.164-3.67,0.324-5.671,0.502c-0.1-1.458-0.271-2.704-0.253-3.946
	c0.071-4.731,0.173-9.464,0.322-14.194c0.156-5.006,0.384-10.011,0.577-15.017c0.079-2.026,0.15-4.053,0.236-6.302
	c1.39-0.052,2.63-0.142,3.869-0.136c5.893,0.023,11.78,0.043,17.656-0.544c1.949-0.195,3.938-0.147,5.9,0.394
	c0.049,0.527,0.111,0.9,0.113,1.274c0.029,3.741,0.056,7.482,0.068,11.223c0.01,2.479,0.03,4.958-0.027,7.436
	c-0.018,0.811-0.182,1.642-0.422,2.419c-0.234,0.753-0.654,1.45-1.234,2.161c0-0.733-0.008-1.467,0.002-2.2
	c0.071-5.56,0.184-11.119,0.195-16.679c0.004-1.398-0.303-2.796-0.496-4.449c-8.225,1.415-16.239,0.015-24.455,0.32
	c0,2.894,0.009,5.688-0.004,8.483c-0.016,3.8-0.021,7.598-0.078,11.397c-0.053,3.411-0.148,6.82-0.273,10.228
	c-0.051,1.371-0.262,2.735-0.344,4.104c-0.04,0.653,0.049,1.313,0.08,1.993C68.449,117.207,69.783,116.896,71.162,116.854z"/>
<path fill-rule="evenodd" clip-rule="evenodd" fill="#faf0e5" class="fill" d="M105.463,117.868c-2.044,0-3.942,0-5.883,0
	c0-3.111,0-6.333,0-9.767c0.413-0.312,0.893-0.674,1.475-1.112c1.383,0.09,2.937-0.433,4.516,0.508
	C105.961,110.864,105.594,114.278,105.463,117.868z"/>
<path fill-rule="evenodd" clip-rule="evenodd" fill="#faf0e5" class="fill" d="M75.573,116.226c-0.452-0.851-0.834-1.565-1.277-2.401
	c1.271-0.906,2.462-1.759,3.565-2.548c4.514-0.198,8.92-0.392,13.443-0.59c-0.041,0.673-0.066,1.091-0.08,1.355
	c-0.707,0.667-1.287,1.214-1.888,1.778c0.252,0.613,0.435,1.058,0.677,1.646c-1.559,0.412-3.122,0.159-4.711,0.26
	c-0.259-0.599-0.493-1.136-0.887-2.04c-0.333,0.861-0.552,1.424-0.818,2.113c-0.452,0-1.032,0-1.688,0
	c-0.181-0.755-0.35-1.461-0.53-2.209c-1.397,0.394-0.625,1.487-1.206,2.346C78.849,116.019,77.293,116.117,75.573,116.226z
	 M77.726,115.202c1.065-0.818,1.065-0.818,0.907-1.924C77.756,113.598,77.313,114.07,77.726,115.202z M86.627,113.243
	c0.39,0.721,0.752,1.071,1.523,0.724C87.99,113.078,87.655,112.699,86.627,113.243z"/>
<path fill-rule="evenodd" clip-rule="evenodd" fill="#faf0e5" class="fill" d="M42.083,138.25c-2.206,0-4.281,0-6.621,0
	c-0.817-1.661-1.679-3.412-2.592-5.272c1.392-1.595,2.741-3.143,4.148-4.755C40.059,130.948,42.378,133.809,42.083,138.25z"/>
<path fill-rule="evenodd" clip-rule="evenodd" fill="#faf0e5" class="fill" d="M139.35,122.789c-0.139,0.609-0.178,1.266-0.437,1.817
	c-0.901,1.918-2.318,3.252-4.353,4.038c-3.001,1.159-6.088,1.781-9.262,2.258c-2.182,0.328-4.354,0.596-6.551,0.695
	c-1.094,0.052-2.195-0.071-3.293-0.061c-4.242,0.044-8.481,0.156-12.723,0.159c-7.049,0.005-14.099-0.076-21.148-0.072
	c-1.804,0.001-3.606,0.18-5.536,0.284c0.019-0.378,0.035-0.675,0.061-1.135c2.47-0.108,4.907-0.51,7.277-0.261
	c5.554,0.586,11.114,0.583,16.674,0.519c4.845-0.056,9.69-0.293,14.53-0.522c4.234-0.199,8.477-0.387,12.693-0.795
	c2.619-0.255,5.197-0.883,7.557-2.212c1.705-0.96,2.98-2.234,3.739-4.037c0.116-0.276,0.31-0.521,0.467-0.78
	C139.147,122.72,139.25,122.755,139.35,122.789z"/>
<path fill-rule="evenodd" clip-rule="evenodd" fill="#faf0e5" class="fill" d="M55.97,108.119c-2.742,3.668-5.359,6.902-8.47,9.65
	c-1.51,0-2.965,0-4.646,0c3.039-3.529,5.915-6.869,8.781-10.197C53.092,107.756,54.381,107.919,55.97,108.119z"/>
<path fill-rule="evenodd" clip-rule="evenodd" fill="#faf0e5" class="fill" d="M124.189,117.828c2.625-1.122,4.979-2.128,7.599-3.245
	c-0.232,1.87-0.449,3.62-0.658,5.309c-2.407,2.088-5.091,3.514-8.224,4.854C123.367,122.26,123.779,120.032,124.189,117.828z"/>
<path fill-rule="evenodd" clip-rule="evenodd" fill="#faf0e5" class="fill" d="M107.604,102.011c0.579-0.074,1.048-0.133,1.51-0.193
	c0.969,1.025,1.109,2.231,1.094,3.43c-0.037,3.027-0.162,6.055-0.234,9.079c-0.026,1.096-0.004,2.19-0.004,3.489
	c-1.018,0.045-1.855,0.082-2.635,0.118c-0.65-0.864-0.431-1.696-0.427-2.505c0.013-2.746,0.005-5.49,0.005-8.228
	C108.082,105.652,107.643,103.92,107.604,102.011z"/>
<path fill-rule="evenodd" clip-rule="evenodd" fill="#faf0e5" class="fill" d="M47.229,151.564c0-0.685-0.012-1.37,0.002-2.055
	c0.025-1.431,0.164-2.87,0.063-4.292c-0.063-0.904-0.396-1.817-0.75-2.668c-0.397-0.944-1.243-1.373-2.257-1.402
	c-3.399-0.095-6.802-0.273-10.201-0.218c-1.73,0.028-3.454,0.493-5.184,0.751c-0.204,0.03-0.417,0.005-1.034,0.005
	c0.714-0.578,1.107-1.04,1.606-1.272c1.664-0.777,3.417-1.216,5.279-1.09c0.822,0.057,1.646,0.099,2.473,0.117
	c2.737,0.064,5.479,0.096,8.217,0.179c1.56,0.048,2.267,1.012,2.696,2.438c0.785,2.601,0.626,5.229,0.488,7.871
	c-0.04,0.771-0.59,1.214-1.019,1.726C47.482,151.624,47.355,151.594,47.229,151.564z"/>
<path fill-rule="evenodd" clip-rule="evenodd" fill="#faf0e5" class="fill" d="M95.557,118.252c0-2.049-0.041-3.846,0.01-5.643
	c0.074-2.687,0.199-5.371,0.328-8.055c0.051-1.063,0.509-1.868,1.669-2.239c0.751,1.588-0.041,3.447,0.859,4.716
	c-0.131,3.783-0.254,7.383-0.382,11.108C97.129,118.181,96.275,118.219,95.557,118.252z"/>
<path fill-rule="evenodd" clip-rule="evenodd" fill="#faf0e5" class="fill" d="M55.543,143.889c-0.225-1.376-0.387-2.609-0.636-3.827
	c-0.287-1.396-0.55-2.811-1.004-4.155c-0.711-2.104-2.083-3.423-4.497-3.372c-1.868,0.04-3.737-0.043-5.606-0.069
	c-0.57-0.011-1.212,0.131-1.51-0.732c0.227-0.112,0.402-0.27,0.585-0.278c2.853-0.143,5.706-0.346,8.561-0.372
	c2.637-0.026,3.648,1.044,4.275,3.592c0.611,2.482,0.894,4.961,0.768,7.507C56.446,142.803,56.516,143.39,55.543,143.889z"/>
<path fill-rule="evenodd" clip-rule="evenodd" fill="#faf0e5" class="fill" d="M99.432,105.924c0-1.492-0.116-2.8,0.035-4.074
	c0.133-1.104,0.737-1.478,1.809-1.519c0.219-0.009,0.438,0.002,0.657,0.021c1.352,0.119,2.704,0.243,4.222,0.38
	c0,1.57,0,3.071,0,4.817C103.947,105.672,101.746,105.795,99.432,105.924z"/>
<path fill-rule="evenodd" clip-rule="evenodd" fill="#faf0e5" class="fill" d="M118.184,99.55c0.527-1.428,1.365-2.002,2.602-2.038
	c0.551-0.016,1.109-0.026,1.65-0.114c1.722-0.282,3.229,0.104,4.646,1.159c0.903,0.67,1.98,1.107,2.98,1.648
	c-0.018,0.122-0.035,0.244-0.053,0.366c-1.705,0.163-3.41,0.326-5.148,0.491c-0.465,0.56-0.915,1.098-1.455,1.745
	C121.658,101.717,119.948,100.65,118.184,99.55z"/>
<path fill-rule="evenodd" clip-rule="evenodd" fill="#faf0e5" class="fill" d="M135.773,101.704c0,0.749,0,1.485,0,2.353
	c-3.416,0.583-6.869,0.147-10.447,0.529c-0.119-0.798-0.23-1.521-0.379-2.514c1.975-0.067,3.755-0.083,5.528-0.204
	C132.201,101.751,133.91,101.143,135.773,101.704z"/>
<path fill-rule="evenodd" clip-rule="evenodd" fill="#faf0e5" class="fill" d="M135.949,108.503c0,0.927,0,1.56,0,2.333
	c-3.484,0.326-6.86,0.851-10.424,0.547c-0.039-0.84-0.071-1.533-0.109-2.354C128.939,108.853,132.359,108.683,135.949,108.503z"/>
<path fill-rule="evenodd" clip-rule="evenodd" fill="#faf0e5" class="fill" d="M91.537,103.141c-1.674,0.862-20.295,1.984-22.639,1.489
	c0.066-0.385,0.134-0.773,0.225-1.299c1.035,0,1.965-0.065,2.884,0.011c4.672,0.385,9.323,0.199,13.976-0.325
	c1.309-0.146,2.636-0.152,3.955-0.171C90.369,102.839,90.802,102.999,91.537,103.141z"/>
<path fill-rule="evenodd" clip-rule="evenodd" fill="#faf0e5" class="fill" d="M91.17,90.169c-0.078,0.42-0.123,0.668-0.196,1.066
	c-7.243,0.301-14.442,0.6-21.597,0.897c-0.066-0.271-0.094-0.326-0.088-0.377c0.005-0.049,0.033-0.12,0.071-0.137
	c0.191-0.085,0.387-0.207,0.587-0.225C76.938,90.79,83.926,90.131,91.17,90.169z"/>
<path fill-rule="evenodd" clip-rule="evenodd" fill="#faf0e5" class="fill" d="M90.686,116.922c-0.055,0.519-0.093,0.887-0.136,1.29
	c-0.356,0.106-0.664,0.278-0.974,0.279c-2.303,0.014-4.605-0.008-6.908-0.015c-0.821-0.003-1.642,0.016-2.463,0.007
	c-0.885-0.013-1.594,0.287-2.084,1.406c-0.597-0.887-1.054-1.565-1.741-2.586C81.336,117.126,85.9,117.003,90.686,116.922z"/>
<path fill-rule="evenodd" clip-rule="evenodd" fill="#faf0e5" class="fill" d="M125.447,107.554c0-0.506,0-1.028,0-1.766
	c3.488-0.216,6.917-0.141,10.443-0.234c0,0.476,0,0.829,0,1.178C134.707,107.341,127.789,107.899,125.447,107.554z"/>
<path fill-rule="evenodd" clip-rule="evenodd" fill="#faf0e5" class="fill" d="M53.708,141.769c0.485,2.176,0.744,3.94-1.099,5.324
	c-0.814,0.61-1.5,1.393-2.479,2.319c0-1.819,0-3.303,0-4.989C51.217,143.618,52.338,142.785,53.708,141.769z"/>
<path fill-rule="evenodd" clip-rule="evenodd" fill="#faf0e5" class="fill" d="M71.885,113.861c0.406,0.262,0.952,0.431,1.199,0.799
	c1.678,2.492,3.292,5.028,5.002,7.665c-0.352,0.277-0.707,0.558-1.182,0.932c-2.025-2.995-4.07-5.797-5.426-9.014
	C71.613,114.116,71.748,113.989,71.885,113.861z"/>
<path fill-rule="evenodd" clip-rule="evenodd" fill="#faf0e5" class="fill" d="M87.697,107.867c0.234,0.602,0.402,1.032,0.656,1.685
	c-2.886,0.443-5.602,0.315-8.374,0.386c-0.312-0.259-0.641-0.532-1.188-0.984C81.812,107.919,84.737,108.105,87.697,107.867z"/>
<path fill-rule="evenodd" clip-rule="evenodd" fill="#faf0e5" class="fill" d="M127.23,135.308c0.86,0.143,1.429,0.237,2.062,0.343
	c0,2.142,0,4.156,0,6.328c-0.467,0.097-0.967,0.198-1.696,0.348C127.205,139.982,127.219,137.785,127.23,135.308z"/>
<path fill-rule="evenodd" clip-rule="evenodd" fill="#faf0e5" class="fill" d="M78.147,136.704c0.509,0,0.862,0,1.328,0
	c0.104,2.739,0.207,5.413,0.314,8.263c-0.585,0.113-1.134,0.218-1.974,0.378C77.93,142.384,78.034,139.66,78.147,136.704z"/>
<path fill-rule="evenodd" clip-rule="evenodd" fill="#faf0e5" class="fill" d="M123.848,107.69c0.098,1.14,0.181,2.103,0.277,3.201
	c-1.421-0.235-2-1.337-2.891-1.979c-0.885-0.638-1.736-1.324-2.732-2.087c-0.014-0.284-0.035-0.69-0.067-1.329
	C120.314,106.26,122.008,106.944,123.848,107.69z"/>
<path fill-rule="evenodd" clip-rule="evenodd" fill="#faf0e5" class="fill" d="M84.027,93.721c0.535-0.241,0.871-0.393,1.281-0.577
	c1.727,1.899,3.127,3.958,4.24,6.399c-0.317,0.293-0.65,0.601-1.081,1.001C86.965,98.234,85.551,96.062,84.027,93.721z"/>
<path fill-rule="evenodd" clip-rule="evenodd" fill="#faf0e5" class="fill" d="M32.035,132.018c-0.977,0-1.664,0-2.516,0
	c0.506-1.231,1.406-1.842,2.275-2.479c0.793-0.581,1.564-1.198,2.397-1.712c0.407-0.253,0.937-0.308,1.411-0.453
	c0.077,0.119,0.154,0.241,0.232,0.361C34.555,129.178,33.274,130.62,32.035,132.018z"/>
<path fill-rule="evenodd" clip-rule="evenodd" fill="#faf0e5" class="fill" d="M70.846,83.417c-0.152,2.295-0.291,4.361-0.434,6.52
	c-0.391,0.075-0.725,0.14-1.213,0.234c0-2.304,0-4.469,0-6.753C69.65,83.417,70.1,83.417,70.846,83.417z"/>
<path fill-rule="evenodd" clip-rule="evenodd" fill="#faf0e5" class="fill" d="M53.29,125.384c-1.104,1.172-2.208,2.344-3.628,3.85
	c-0.242-1.602-0.422-2.787-0.632-4.173c1.486,0,2.759,0,4.032,0C53.138,125.17,53.213,125.276,53.29,125.384z"/>
<path fill-rule="evenodd" clip-rule="evenodd" fill="#faf0e5" class="fill" d="M70.794,95.86c1.076,1.706,1.998,3.167,2.991,4.743
	c-0.524,0.312-0.975,0.58-1.649,0.98c-0.927-1.636-1.8-3.179-2.779-4.909C69.901,96.366,70.328,96.125,70.794,95.86z"/>
<path fill-rule="evenodd" clip-rule="evenodd" fill="#faf0e5" class="fill" d="M126.137,115.757c-0.153-0.991-0.283-1.837-0.443-2.875
	c1.946,0,3.776,0,5.736,0C129.875,114.22,128.104,115.037,126.137,115.757z"/>
<path fill-rule="evenodd" clip-rule="evenodd" fill="#faf0e5" class="fill" d="M48.677,122.166c-0.225-1.098-0.398-1.948-0.576-2.823
	c0.343-0.429,0.644-0.808,1.01-1.268c1.129,0.095,2.243,0.186,3.667,0.304C51.32,119.724,50.129,120.824,48.677,122.166z"/>
<path fill-rule="evenodd" clip-rule="evenodd" fill="#faf0e5" class="fill" d="M80.52,89.14c0-2.337-0.018-4.474,0.014-6.609
	c0.008-0.507,0.337-0.782,1.024-0.625c0.539,2.315-0.132,4.628,0.069,7.008C81.178,89.005,80.881,89.066,80.52,89.14z"/>
<path fill-rule="evenodd" clip-rule="evenodd" fill="#faf0e5" class="fill" d="M48.897,139.736c1.639-0.037,2.98-0.475,4.579-0.238
	c-0.591,1.886-2.055,2.469-3.594,3.306C49.57,141.828,49.284,140.94,48.897,139.736z"/>
<path fill-rule="evenodd" clip-rule="evenodd" fill="#faf0e5" class="fill" d="M123.133,116.781c-1.257,0.805-7.163,1.441-9.18,0.935
	c0.163-0.275,0.295-0.714,0.449-0.722c2.896-0.151,5.796-0.251,8.695-0.355C123.107,116.638,123.121,116.731,123.133,116.781z"/>
<path fill-rule="evenodd" clip-rule="evenodd" fill="#faf0e5" class="fill" d="M80.326,102.024c-0.174-2.873,0.043-5.723,0.144-8.573
	c0.009-0.243,0.188-0.479,0.344-0.854C81.789,94.409,81.433,100.899,80.326,102.024z"/>
<path fill-rule="evenodd" clip-rule="evenodd" fill="#faf0e5" class="fill" d="M76.22,101.957c-0.698-2.27-0.459-4.4-0.435-6.684
	c0.555,0.155,0.894,0.25,1.2,0.335c0.65,1.922,0.17,3.757,0.018,5.583C76.985,101.421,76.58,101.619,76.22,101.957z"/>
<path fill-rule="evenodd" clip-rule="evenodd" fill="#faf0e5" class="fill" d="M55.261,122.437c-0.089-1.021-0.177-2.039-0.279-3.211
	c1.03,0,2.024,0,3.244,0c-0.545,1.501-1.858,2.188-2.607,3.313C55.499,122.505,55.381,122.47,55.261,122.437z"/>
<path fill-rule="evenodd" clip-rule="evenodd" fill="#faf0e5" class="fill" d="M86.438,83.798c0.42,1.638,0.334,3.262,0.054,4.975
	c-0.366,0.063-0.659,0.113-1.097,0.189C85.238,87.075,85.242,85.347,86.438,83.798z"/>
<path fill-rule="evenodd" clip-rule="evenodd" fill="#faf0e5" class="fill" d="M134.348,100.347c-2.895-0.195-4.722-1.965-6.863-3.03
	C128.785,97.22,132.944,99.067,134.348,100.347z"/>
<path fill-rule="evenodd" clip-rule="evenodd" fill="#faf0e5" class="fill" d="M75.5,84.288c0.185,1.709,0.127,3.377-0.188,5.031
	c-0.021,0.109-0.35,0.159-0.539,0.238C74.091,87.684,74.316,85.646,75.5,84.288z"/>
<path fill-rule="evenodd" clip-rule="evenodd" fill="#faf0e5" class="fill" d="M57.384,113.746c-0.869,0.935-1.592,1.712-2.585,2.78
	c-0.139-1.235-0.237-2.111-0.34-3.026C55.488,113.116,56.351,113.202,57.384,113.746z"/>
<path fill-rule="evenodd" clip-rule="evenodd" fill="#faf0e5" class="fill" d="M72.404,89.953c-0.896-1.344-0.272-2.749-0.314-4.184
	c0.337-0.062,0.579-0.106,1.027-0.188C73.008,87.145,73.325,88.614,72.404,89.953z"/>
<path fill-rule="evenodd" clip-rule="evenodd" fill="#faf0e5" class="fill" d="M113.807,98.621c1.801,0.458,4.844,2.543,5.465,3.829
	C117.283,101.203,115.377,100.512,113.807,98.621z"/>
<path fill-rule="evenodd" clip-rule="evenodd" fill="#faf0e5" class="fill" d="M83.086,88.876c0-1.333,0-2.667,0-4.031c0.362,0,0.605,0,0.946,0
	c0.081,1.456,0.173,2.821-0.452,4.088C83.414,88.915,83.25,88.896,83.086,88.876z"/>
<path fill-rule="evenodd" clip-rule="evenodd" fill="#faf0e5" class="fill" d="M93.991,113.194c0.022,0.339,0.042,0.632,0.069,1.051
	c-1.041-0.18-2.033,0.714-3.01-0.283C91.879,113.05,92.888,113.147,93.991,113.194z"/>
<path fill-rule="evenodd" clip-rule="evenodd" fill="#faf0e5" class="fill" d="M111.59,112.395c1.447-0.254,1.447-0.254,2.035,1.075
	c-0.631,0.194-1.236,0.383-2.035,0.631C111.59,113.366,111.59,112.877,111.59,112.395z"/>
<path fill-rule="evenodd" clip-rule="evenodd" fill="#faf0e5" class="fill" d="M122.871,114.478c-0.444,0-0.887,0-1.426,0c0-0.522,0-0.99,0-1.872
	c0.688,0.688,1.136,1.135,1.584,1.582C122.977,114.283,122.923,114.381,122.871,114.478z"/>
<path fill-rule="evenodd" clip-rule="evenodd" fill="#faf0e5" class="fill" d="M80.287,124.319c-0.837,0.038-1.421,0.063-2.084,0.094
	C78.881,123.236,78.886,123.236,80.287,124.319z"/>
<path fill-rule="evenodd" clip-rule="evenodd" fill="#faf0e5" class="fill" d="M74.126,112.25c-0.866,0.749-0.866,0.749-2.103,0.33
	c0.828-0.289,1.414-0.495,2.002-0.701C74.059,112.004,74.093,112.126,74.126,112.25z"/>
<path fill-rule="evenodd" clip-rule="evenodd" fill="#faf0e5" class="fill" d="M80.464,105.693c0.18,0.205,0.493,0.398,0.517,0.619
	c0.051,0.499-0.197,0.841-0.887,0.734c0-0.39,0-0.785,0-1.181C80.218,105.809,80.34,105.75,80.464,105.693z"/>
<path fill-rule="evenodd" clip-rule="evenodd" fill="#faf0e5" class="fill" d="M120.613,102.688c0.432,0.187,0.862,0.373,1.295,0.559
	c-0.045,0.117-0.09,0.233-0.136,0.351c-0.44-0.161-0.882-0.323-1.322-0.484C120.504,102.971,120.559,102.831,120.613,102.688z"/>
<path fill-rule="evenodd" clip-rule="evenodd" fill="#faf0e5" class="fill" d="M120.536,126.181c-0.38-0.134-0.76-0.267-1.141-0.4
	c0.028-0.104,0.06-0.207,0.089-0.312c0.41,0.114,0.818,0.229,1.229,0.342C120.654,125.935,120.596,126.057,120.536,126.181z"/>
<path fill-rule="evenodd" clip-rule="evenodd" fill="#faf0e5" class="fill" d="M116.973,124.391c0.152,0.047,0.303,0.092,0.455,0.139
	c-0.015,0.046-0.029,0.093-0.043,0.14c-0.152-0.042-0.305-0.085-0.455-0.126C116.943,124.491,116.959,124.441,116.973,124.391z"/>
<path fill-rule="evenodd" clip-rule="evenodd" fill="#faf0e5" class="fill" d="M47.313,101.622c-5.417,1.482-10.938,2.129-15.784,4.947
	c-0.605-1.771-0.817-18.819-0.282-22.252c5.19,0.152,10.251,1.638,15.592,1.677c0.175,0.726,0.449,1.351,0.455,1.977
	C47.331,92.472,47.313,96.973,47.313,101.622z M46.347,101.147c-0.11-1.213-0.241-2.13-0.267-3.05
	c-0.053-1.87-0.042-3.74-0.067-5.61c-0.022-1.578,0.116-3.183-0.692-4.774c-0.841-0.079-1.652-0.196-2.466-0.222
	c-1.483-0.046-2.97,0.001-4.453-0.066c-1.315-0.059-2.624-0.265-3.941-0.315c-0.544-0.021-1.097,0.194-1.469,0.267
	c0,5.658,0,11.058,0,16.714c0.709-0.093,1.317-0.044,1.81-0.261c2.751-1.214,5.639-1.774,8.615-2.027
	C44.318,101.728,45.201,101.412,46.347,101.147z"/>
<path fill-rule="evenodd" clip-rule="evenodd" fill="#faf0e5" class="fill" d="M103.018,92.063c0-6.297,0-12.483,0-18.656
	c1.533-0.44,28-1.552,29.262-1.027c0.463,1.747,0.545,17.368,0.064,18.991c-1.318,0.085-2.682,0.187-4.046,0.258
	c-5.11,0.269-10.221,0.577-15.336,0.771c-2.573,0.098-5.155,0.003-7.734-0.046C104.527,92.341,103.828,92.175,103.018,92.063z
	 M125.536,81.049c0.641,0.94,1.147,1.63,1.596,2.357c0.751,1.218,1.435,2.476,2.202,3.681c0.402,0.63,0.946,0.941,1.578,0.141
	c-1.342-2.337-2.671-4.652-4.002-6.971c0.508-0.29,0.885-0.47,1.211-0.717c0.064-0.05-0.066-0.356-0.127-0.634
	c-0.488,0.214-0.873,0.381-1.307,0.571c-0.613-0.767-1.184-1.482-1.672-2.095c-2.301-0.137-2.812,2.465-4.729,2.535
	c-0.158,1.74-1.527,2.411-2.466,3.431c-1.086-0.385-1.733-1.813-3.208-1.08c-0.417,1.111-0.852,2.272-1.332,3.554
	c-1.219-0.416-2.287-0.781-3.653-1.247c-0.89-0.002-1.075,1.279-1.925,1.852c-0.451-0.261-0.908-0.524-1.273-0.735
	c-0.567-1.174-0.336-2.125,0.273-2.851c-1.131-1.859,0.118-3.777-0.615-5.39c0.363-0.458,0.626-0.789,0.869-1.095
	c-0.291-0.891-0.338-1.871-1.678-1.964c-0.455,0.485-0.957,1.021-1.49,1.587c0.473,0.5,0.805,0.852,1.269,1.344
	c-0.181,0.662-0.372,1.371-0.585,2.156c0.746,1.043,0.742,2.199-0.066,3.36c0.652,1.13,0.66,1.351,0.275,2.409
	c0.142,1.955,0.249,3.455,0.352,4.889c7.779,0,15.421,0,23.127,0c0.303,0.25,0.672,0.557,1.031,0.855
	c1.07-0.254,1.953-0.6,2.149-1.923c-0.542-0.265-1.065-0.521-1.493-0.73c-0.617,0.181-1.084,0.318-1.504,0.442
	c-0.379-0.316-0.7-0.583-1.053-0.878c-0.463,0.326-0.852,0.6-1.336,0.942c-0.812-0.124-1.669-0.253-2.672-0.403
	c-1.335,0.49-2.836,0.487-4.354-0.013c-1.602,0.483-3.213,0.56-4.377,0.155c-1.891,0-3.338,0-5.068,0
	c-0.275,0.085-0.853,0.265-1.43,0.444c-0.074-0.116-0.149-0.231-0.223-0.347c0.617-0.922,1.232-1.844,1.828-2.733
	c1.699,0.792,3.238,0.787,4.76,0.693c0.421-1.18,0.781-2.195,1.163-3.267c0.912,0.481,1.673,0.882,2.546,1.343
	c1.059-1.063,2.054-2.061,2.998-3.01c0.582,0.056,1.076,0.772,1.646-0.281c-0.276-0.111-0.627-0.251-0.971-0.389
	c0.896-0.963,1.592-1.71,2.308-2.479C125.078,79.416,125.656,80.235,125.536,81.049z M113.695,81.252
	c0.193,0.056,0.383,0.112,0.651,0.19c0.251-0.492,0.481-0.942,0.759-1.481C114.088,80.103,114.088,80.103,113.695,81.252z
	 M129.648,76.739c0.49,0.683,0.809,0.639,1.062-0.174C130.252,76.641,129.949,76.69,129.648,76.739z M107.269,84.674
	c0.039,0.116,0.08,0.231,0.121,0.347c0.278-0.019,0.558-0.039,0.924-0.064c-0.063-0.302-0.101-0.487-0.173-0.833
	C107.783,84.349,107.525,84.511,107.269,84.674z M128.311,78.078c0.578,0.707,0.848,0.526,1.043-0.265
	C128.91,77.926,128.611,78.002,128.311,78.078z M117.25,77.033c0.039,0.169,0.078,0.339,0.116,0.509
	c0.31-0.098,0.619-0.197,0.929-0.296c-0.043-0.15-0.086-0.301-0.127-0.451C117.861,76.874,117.557,76.954,117.25,77.033z
	 M119.756,78.295c-0.08-0.149-0.16-0.297-0.243-0.445c-0.237,0.151-0.474,0.302-0.712,0.454c0.066,0.113,0.131,0.227,0.199,0.339
	C119.25,78.527,119.504,78.411,119.756,78.295z M109.572,80.612c0.954,0.148,1.465,0.239,1.002-0.705
	C110.312,80.092,110.084,80.251,109.572,80.612z M115.326,78.472c1.051,0.067,1.051,0.067,0.91-0.646
	C116,77.994,115.801,78.135,115.326,78.472z M109.465,82.056c-0.275,0.132-0.553,0.264-0.928,0.442
	C109.146,82.979,109.467,82.94,109.465,82.056z M124.434,82.545c-0.062-0.159-0.123-0.32-0.186-0.479
	c-0.261,0.11-0.522,0.22-0.783,0.331c0.035,0.115,0.07,0.229,0.105,0.343C123.858,82.675,124.146,82.61,124.434,82.545z
	 M111.047,81.709c1.024,0.056,1.024,0.056,0.901-0.628C111.719,81.24,111.527,81.374,111.047,81.709z M113.201,82.783
	c-0.305-0.517-0.305-0.517-0.644,0C112.791,82.783,112.977,82.783,113.201,82.783z"/>
<path fill-rule="evenodd" clip-rule="evenodd" fill="#faf0e5" class="fill" d="M144.455,119.662c0-3.045,0.017-5.902-0.004-8.759
	c-0.03-4.067-0.128-8.136-0.112-12.204c0.009-2.083,0.263-4.164,0.294-6.248c0.047-3.354-0.006-6.709-0.006-10.062
	c0.002-3.635,0.01-7.27,0.037-10.904c0.002-0.425,0.152-0.848,0.273-1.481c8.565-2.076,17.096-4.3,25.882-5.889
	c0.093,0.356,0.211,0.603,0.218,0.853c0.128,5.011,0.292,10.022,0.34,15.035c0.023,2.531-0.234,5.064-0.246,7.597
	c-0.02,5.173,0.129,10.35,0.047,15.521c-0.106,6.665-0.457,13.326-0.535,19.989c-0.051,4.181,0.205,8.363,0.316,12.546
	c0.008,0.317-0.041,0.638-0.075,1.135c-0.437-0.185-0.787-0.277-1.077-0.464c-5.372-3.452-10.742-6.902-16.094-10.378
	c-2.771-1.797-5.512-3.636-8.256-5.47C145.053,120.21,144.699,119.864,144.455,119.662z M169.009,131.382
	c0-1.4,0.056-2.93-0.011-4.455c-0.177-4.178-0.457-8.35-0.596-12.527c-0.116-3.521-0.074-7.048-0.136-10.57
	c-0.082-4.62-0.217-9.239-0.29-13.86c-0.07-4.618-0.123-9.236-0.117-13.854c0.002-2.2,0.158-4.398,0.244-6.597
	c0.023-0.599,0.152-1.24-0.465-1.458c-1.998,0.271-3.848,0.492-5.689,0.777c-2.613,0.405-5.205,0.958-7.828,1.262
	c-2.485,0.288-4.84,0.899-7.213,2.032c-0.605,15.367-0.075,30.778-0.625,46.158c1.598,0.996,3.016,1.935,4.486,2.784
	c2.811,1.625,5.697,3.12,8.465,4.816c2.675,1.637,5.236,3.46,7.85,5.198C167.611,131.439,168.086,132.044,169.009,131.382z"/>
<path fill-rule="evenodd" clip-rule="evenodd" fill="#faf0e5" class="fill" d="M100.21,126.532c-1.657,0.085-3.111,0.158-4.572,0.233
	c-0.651-1.454-0.113-2.688,0.121-4.001c1.513-0.528,3.005-0.593,4.612-0.287C100.795,123.809,100.232,125.05,100.21,126.532z"/>
<path fill-rule="evenodd" clip-rule="evenodd" fill="#faf0e5" class="fill" d="M89.082,122.755c0.951,0.086,1.68,0.15,2.566,0.23
	c-0.326,1.471-0.605,2.729-0.916,4.135c-0.871-0.113-1.604-0.207-2.539-0.329C88.496,125.422,88.761,124.215,89.082,122.755z"/>
<path fill-rule="evenodd" clip-rule="evenodd" fill="#faf0e5" class="fill" d="M45.137,100.333c-2.096,0.292-3.868,0.539-5.863,0.816
	c0.428-1.342,0.785-2.458,1.157-3.621c0.475-0.126,0.941-0.25,1.367-0.363c1.631-1.931,0.154-3.779,0.303-5.577
	c-0.595-0.209-0.929-0.456-1.204-0.402c-1.568,0.303-3.123,0.678-4.639,1.019c-0.17,0.676-0.289,1.149-0.418,1.667
	c0.339,0.372,0.664,0.729,1.016,1.114c-0.025,0.526-0.053,1.071-0.092,1.832c0.724,0.239,1.471,0.484,2.316,0.762
	c0.314,0.983-0.36,1.64-1.019,2.584c-0.67-0.971-1.247-1.809-1.892-2.745c-0.245,0.117-0.513,0.245-0.977,0.467
	c0.328,1.33,0.649,2.628,0.993,4.021c-0.522,0.206-1.013,0.398-1.765,0.691c-0.158-4.759-0.309-9.326-0.463-14.017
	c1.914-0.398,3.579,0.184,5.248,0.139c1.641-0.044,3.281-0.009,4.996-0.009C45.409,92.542,44.141,96.382,45.137,100.333z"/>
<path fill-rule="evenodd" clip-rule="evenodd" fill="#faf0e5" class="fill" d="M36.735,93.02c0.671-0.134,0.973-0.194,1.529-0.305
	c-0.182,0.572-0.29,0.914-0.469,1.477C37.414,93.771,37.198,93.532,36.735,93.02z"/>
<path fill-rule="evenodd" clip-rule="evenodd" fill="#faf0e5" class="fill" d="M40.951,93.412c-0.431-0.214-0.704-0.352-1.044-0.521
	c0.143-0.294,0.251-0.519,0.372-0.771C41.099,92.163,41.161,92.583,40.951,93.412z"/>
<path fill-rule="evenodd" clip-rule="evenodd" fill="#faf0e5" class="fill" d="M39.061,96.759c-0.542-0.404-0.806-0.599-1.203-0.893
	C38.7,95.457,39.018,95.585,39.061,96.759z"/>
<path fill-rule="evenodd" clip-rule="evenodd" fill="#faf0e5" class="fill" d="M41.068,96.359c-0.963-0.815-0.305-0.984,0.347-1.184
	C41.301,95.57,41.185,95.965,41.068,96.359z"/>
<path fill-rule="evenodd" clip-rule="evenodd" fill="#faf0e5" class="fill" d="M40.144,94.063c-0.307,0.445-0.438,0.637-0.663,0.964
	c-0.209-0.367-0.341-0.6-0.549-0.964C39.34,94.063,39.574,94.063,40.144,94.063z"/>
<path fill-rule="evenodd" clip-rule="evenodd" fill="#faf0e5" class="fill" d="M106.318,88.275c-0.052-0.555-0.075-0.803-0.109-1.162
	c0.318-0.031,0.557-0.054,1.124-0.11C106.926,87.515,106.705,87.789,106.318,88.275z"/>
<path fill-rule="evenodd" clip-rule="evenodd" fill="#faf0e5" class="fill" d="M149.711,74.302c5.411-1.486,10.73-2.108,15.973-2.941
	c0.766,2.491,1.177,25.651,0.436,27.188c-0.492-1.878-0.336-3.828-0.475-5.743c-0.137-1.913-0.211-3.831-0.316-5.769
	c-0.449-0.302-0.844-0.565-1.289-0.864c-0.117-3.146-0.235-6.312-0.357-9.613c-0.465,0.123-0.801,0.211-1.202,0.316
	c0.097,3.211,0.188,6.335,0.285,9.583c-0.466,0.292-0.884,0.555-1.204,0.756c0,4.229,0,8.238,0,12.227
	c-0.721,0.291-1.271,0.513-1.954,0.79c0,1.129-0.043,2.269,0.01,3.404c0.11,2.422,0.297,4.84,0.397,7.262
	c0.026,0.625-0.147,1.259-0.407,1.893c-0.974-1.565,0.171-3.529-1.071-5.139c-0.821,0.189-1.647,0.38-2.497,0.576
	c-0.071,1.559-0.134,2.92-0.208,4.531c-0.898-0.755-0.807-1.569-0.801-2.348c0.027-3.581,0.068-7.162,0.077-10.742
	c0.001-0.705-0.118-1.411-0.193-2.246c-1.702-0.339-3.216,0.438-5.004,0.402c-0.565-2.497-0.171-5.131-0.31-7.721
	c-0.143-2.634-0.027-5.282-0.004-7.924C149.619,79.562,149.672,76.946,149.711,74.302z"/>
<path fill-rule="evenodd" clip-rule="evenodd" fill="#faf0e5" class="fill" d="M166.672,114.21c-1.685,0.511-3.389,1.028-5.12,1.554
	c-0.264-5.037-0.513-9.839-0.765-14.672c0.682-0.29,1.275-0.542,1.971-0.837c0.092-4.093,0.184-8.184,0.277-12.368
	c0.328-0.02,0.572-0.035,1.019-0.062c0.181,3.975,0.356,7.848,0.536,11.821c0.656,0.132,1.287,0.258,2.082,0.417
	C166.672,104.708,166.672,109.353,166.672,114.21z M162.414,106.329c-0.395,1.703-0.393,1.71,0.82,2.2c0-0.763,0-1.448,0-2.2
	C162.896,106.329,162.648,106.329,162.414,106.329z M163.104,110.447c-1.239,0.824-1.243,1.432-0.058,2.396
	C163.496,112.084,163.542,111.368,163.104,110.447z M165.232,104.595c0.317-0.641,0.651-1.275-0.012-1.963
	c-0.766,0.021-0.924,0.511-0.922,1.082C164.303,104.244,164.483,104.667,165.232,104.595z M162.207,102.886
	c-1.109,0.765-1.119,1.197-0.029,1.876C162.805,104.138,162.873,103.537,162.207,102.886z M165.604,106.758
	c-0.842,0.018-1.16,0.344-1.049,0.91c0.043,0.225,0.385,0.416,0.627,0.562c0.08,0.049,0.276-0.098,0.518-0.195
	C165.67,107.638,165.641,107.24,165.604,106.758z M165.477,112.291c0.159-0.073,0.318-0.146,0.477-0.22
	c-0.094-0.476-0.189-0.95-0.284-1.425c-0.171-0.079-0.345-0.155-0.517-0.232c-0.236,0.245-0.471,0.491-0.811,0.849
	C164.9,111.77,165.189,112.03,165.477,112.291z"/>
<path fill-rule="evenodd" clip-rule="evenodd" fill="#faf0e5" class="fill" d="M155.633,114.966c1.439,0,2.727,0,4.133,0
	c0.027,0.39,0.055,0.804,0.088,1.274c-0.543,0.219-1.034,0.417-1.646,0.662c-0.078,1.163-0.156,2.336-0.258,3.82
	c-0.896-0.555-1.564-0.968-2.316-1.432C155.633,117.928,155.633,116.578,155.633,114.966z"/>
<path fill-rule="evenodd" clip-rule="evenodd" fill="#faf0e5" class="fill" d="M167.004,115.519c0,1.724,0,3.017,0,4.566
	c-2.078-0.656-4.035-1.401-5.839-2.513c0.004-0.127,0.007-0.254,0.011-0.382C163.008,116.664,164.842,116.139,167.004,115.519z"/>
<path fill-rule="evenodd" clip-rule="evenodd" fill="#faf0e5" class="fill" d="M149.617,109.078c0.125-0.904,0.207-1.509,0.309-2.255
	c1.311-0.109,2.486-0.207,3.82-0.317c0,0.814,0,1.434,0,2.255C152.467,108.858,151.229,108.955,149.617,109.078z"/>
<path fill-rule="evenodd" clip-rule="evenodd" fill="#faf0e5" class="fill" d="M153.722,98.377c0.052,0.86,0.082,1.373,0.12,2.005
	c-1.15,0-2.152,0-3.242,0c-0.033-0.426-0.062-0.783-0.105-1.344C151.513,98.83,152.487,98.63,153.722,98.377z"/>
<path fill-rule="evenodd" clip-rule="evenodd" fill="#faf0e5" class="fill" d="M153.875,105.363c-1.1,0.099-2.061,0.186-3.189,0.286
	c-0.047-0.614-0.08-1.058-0.123-1.659c1.127-0.087,2.088-0.16,3.196-0.246C153.802,104.332,153.834,104.784,153.875,105.363z"/>
<path fill-rule="evenodd" clip-rule="evenodd" fill="#faf0e5" class="fill" d="M153.53,112.438c0.066,0.516,0.11,0.865,0.185,1.438
	c-1.272,0-2.426,0-3.716,0c-0.034-0.224-0.083-0.554-0.155-1.027C151.12,112.707,152.281,112.577,153.53,112.438z"/>
<path fill-rule="evenodd" clip-rule="evenodd" fill="#faf0e5" class="fill" d="M149.998,116.452c-0.039-0.517-0.059-0.771-0.091-1.192
	c1.415,0,2.744,0,4.202,0c0.015,0.285,0.027,0.578,0.045,1.004C152.777,116.327,151.483,116.386,149.998,116.452z"/>
<path fill-rule="evenodd" clip-rule="evenodd" fill="#faf0e5" class="fill" d="M149.869,111.72c0-0.631,0-0.94,0-1.464
	c1.19-0.087,2.341-0.168,3.59-0.259c0.049,0.482,0.078,0.775,0.127,1.269C152.371,111.413,151.221,111.554,149.869,111.72z"/>
<path fill-rule="evenodd" clip-rule="evenodd" fill="#faf0e5" class="fill" d="M153.768,101.711c0,0.329,0,0.63,0,1.02c-1.057,0-2.021,0-3.093,0
	c-0.048-0.246-0.105-0.538-0.198-1.02C151.645,101.711,152.689,101.711,153.768,101.711z"/>
<path fill-rule="evenodd" clip-rule="evenodd" fill="#faf0e5" class="fill" d="M153.199,117.662c0.802,0.011,0.802,0.011,0.993,0.736
	C153.812,118.116,153.582,117.947,153.199,117.662z"/>
</svg>
