<svg version="1.1" id="svg" xmlns="http://www.w3.org/2000/svg" xmlns:xlink="http://www.w3.org/1999/xlink" x="0px" y="0px"
	 width="200px" height="200px" viewBox="0 0 200 200" enable-background="new 0 0 200 200" xml:space="preserve">
<path class="stroke" fill="#58281d"  fill-rule="evenodd" clip-rule="evenodd" d="M176.784,81.299c1.544,0.875,3.087,1.751,4.742,2.689
	c0.465-0.093,1.034-0.206,1.718-0.342c0.215,0.552,0.402,1.032,0.656,1.681c0.957,0.292,2.024,0.618,3.155,0.962
	c0.187-0.805,0.315-1.358,0.487-2.102c0.354,0.198,0.591,0.279,0.756,0.436c0.184,0.175,0.301,0.419,0.507,0.721
	c2.197-0.879,4.336-1.736,6.694-2.68c0.096,0.729,0.16,1.218,0.204,1.547c-1.172,1.604-2.815,1.996-4.341,2.568
	c-4.809,1.801-9.602,3.647-14.45,5.334c-4.488,1.562-9.162,2.276-13.903,2.491c-4.171,0.189-8.35,0.495-12.518,0.398
	c-4.028-0.094-8.042-0.719-12.071-0.935c-1.313-0.07-2.733,0.211-3.974,0.679c-4.418,1.668-8.718,3.668-13.18,5.2
	c-5.564,1.911-11.193,3.688-16.894,5.133c-4.231,1.072-8.613,1.562-12.941,2.225c-1.399,0.215-2.84,0.158-4.464,0.235
	c-0.761,1.89-1.518,3.768-2.389,5.931c0.999-0.059,1.634-0.096,2.392-0.14c0.312,0.225,0.692,0.501,1.046,0.756
	c1.018-0.188,2.079-0.675,2.981-0.467c0.877,0.201,1.589,1.115,2.406,1.741c0.878-0.567,1.871-1.208,2.863-1.848
	c0.707,0.641,1.204,1.092,1.691,1.533c1.001-0.641,1.952-1.25,2.956-1.893c0.725,0.65,1.268,1.136,1.793,1.607
	c0.975-0.464,1.918-0.912,2.842-1.352c0.668,0.596,1.118,0.998,1.665,1.486c1.849-1.578,3.98-1.294,6.145-0.705
	c0.452,0.124,0.936,0.381,1.362,0.312c1.557-0.25,2.635,0.45,3.414,1.484c0.961,0.098,1.801,0.07,2.569,0.288
	c1.064,0.302,2.09,0.509,3.208,0.335c1.083-0.168,2.026,0.2,2.594,1.206c1.115-0.746,2.071-1.524,3.144-2.074
	c2.172-1.112,3.415-0.534,4.193,1.894c0.497-0.049,1.026-0.177,1.539-0.129c0.46,0.043,0.901,0.28,1.363,0.436
	c0.132,0.357,0.272,0.666,0.356,0.989c0.065,0.252,0.061,0.521,0.098,0.9c1.465-0.219,2.774-0.062,3.838,1.309
	c0,0.646,0,1.449,0,2.284c1.414,0.521,2.944,0.659,3.922,2.357c-0.2,1.259-0.443,2.785-0.732,4.598
	c-0.027-0.169-0.051,0.001,0.023,0.094c1.744,2.185,2.123,4.32,0.126,6.648c-0.496,0.579-0.512,1.665-0.546,2.526
	c-0.107,2.694-0.87,3.667-3.57,4.235c-0.359,1.05-0.555,2.249-1.153,3.19c-0.594,0.935-1.594,1.61-2.541,2.52
	c-1.239-0.591-2.325-1.107-3.568-1.699c-0.303,0.245-0.739,0.551-1.122,0.916c-2.586,2.468-4.397,2.629-7.372,0.524
	c-2.446-0.159-4.824,1.86-7.327,0.634c-0.814,0.512-1.449,0.91-1.908,1.199c-1.08,0.081-2.006-0.008-2.824,0.246
	c-1.438,0.447-2.762,0.656-4.126-0.219c-0.355-0.228-0.936-0.168-1.407-0.143c-1.762,0.096-3.521,0.295-5.282,0.324
	c-0.76,0.013-1.524-0.294-2.268-0.566c-4.696,0.213-9.45,1.422-13.881-0.509c-3.043,0-5.911,0.107-8.767-0.044
	c-1.476-0.079-2.978-0.476-4.379-0.975c-2.768-0.986-5.504-2.075-8.196-3.25c-2.308-1.008-4.487-2.158-7.093-2.509
	c-1.812-0.244-3.174-1.884-4.012-3.562c-0.299-0.598,0.109-1.55,0.229-2.659c-0.972-1.239-0.942-2.855-0.022-4.534
	c-0.332-0.593-0.661-1.181-1.003-1.791c0.11-1.976,1.648-3.079,2.794-4.541c-0.248-2.553,0.847-4.418,3.264-5.447
	c0.754-2.199,0.901-2.369,3.175-3.519c-0.663-1.373-1.33-2.753-1.974-4.086c-0.77-0.2-1.419-0.369-1.795-0.467
	c-3.705,0.873-7.137,1.855-10.634,2.46c-4.251,0.736-8.55,1.098-12.893,0.647c-1.551-0.161-3.173-0.06-4.714,0.204
	c-3.021,0.518-6.005,0.158-9.008-0.034c-3.008-0.192-6.023-0.264-9.028-0.479c-1.334-0.095-2.651-0.413-4.244-0.673
	c0.306-0.9,0.509-1.497,0.778-2.292c1.351,0.493,2.53,0.924,4.061,1.483c0.223-0.481,0.484-1.046,0.626-1.354
	c1.589,0.484,2.756,0.84,4.022,1.227c0.52-0.288,1.107-0.614,1.779-0.986c0.386,0.245,0.762,0.483,1.138,0.722
	c0.425-0.187,0.85-0.375,1.259-0.555c0.592,0.362,1.125,0.688,1.761,1.076c0.276-0.631,0.474-1.079,0.757-1.725
	c0.46,0.586,0.773,0.986,1.152,1.467c0.556-0.263,1.093-0.518,1.675-0.793c0.554,0.193,1.122,0.392,1.81,0.632
	c0.272-0.497,0.514-0.938,0.854-1.56c0.368,0.44,0.679,0.811,1.047,1.252c0.907-0.358,1.849-0.729,2.967-1.17
	c0.195,0.248,0.514,0.652,0.904,1.146c0.596,0,1.27,0,2.106,0c0.358-0.281,0.827-0.647,1.274-0.999
	c0.764,0.316,1.468,0.608,2.286,0.947c0.248-0.644,0.412-1.07,0.614-1.597c0.85,0.398,1.695-0.995,2.958,0.092
	c-0.832,0.272-1.354,0.443-2.31,0.756c1.793,0.496,3.085,0.026,4.474-0.271c0.221-0.377,0.453-0.772,0.759-1.293
	c0.438,0.278,0.863,0.549,1.352,0.859c0.556-0.153,1.142-0.314,1.69-0.466c0.161-0.564,0.301-1.055,0.514-1.803
	c0.502,0.565,0.837,0.942,1.267,1.427c0.325-0.268,0.661-0.546,0.823-0.68c1.037-0.124,1.886-0.226,2.753-0.329
	c0.174-0.729,0.307-1.286,0.488-2.048c0.625,0.465,1.067,0.793,1.694,1.259c0.108-0.477,0.322-0.85,0.215-1.028
	c-2.227-3.677-4.57-7.275-7.32-10.783c-0.618,0.47-1.075,0.816-1.708,1.297c-0.717-0.369-1.476-0.76-2.493-1.283
	c-0.219,0.581-0.423,1.176-0.665,1.755c-0.838,2.003-0.811,4.334-2.291,6.086c-0.262,0.31-0.638,0.522-1.006,0.816
	c-0.563-1.172-1.02-2.121-1.633-3.395c-1.664,1.94-1.246,4.427-2.596,6.195c-2.707,0.578-2.547-2.486-4.448-3.385
	c-1.411,1.761-2.903,3.586-4.349,5.448c-0.557,0.716-0.989,1.546-2.338,1.024c-0.942-2.398-1.332-4.956-0.337-7.708
	c-1.963-0.336-3.788,0.894-5.769-0.275c1.958-2.684,4.582-4.457,7.28-6.39c-1.735-0.944-3.32-1.807-5.087-2.769
	c1.965-2.706,4.891-1.577,7.191-2.641c-0.105-0.338-0.239-0.762-0.457-1.458c0.577-0.204,1.15-0.535,1.752-0.597
	c3.332-0.344,6.67-0.62,10.006-0.923c0.464-0.043,0.925-0.11,1.434-0.172c-1.125-1.654-4.039-2.695-5.881-2.135
	c-3.076,0.936-6.109,2.038-9.226,2.807c-4.589,1.132-9.229,1.978-14.021,1.521c-1.692-0.162-3.42,0.058-5.131,0.059
	c-1.894,0.001-2.483-0.434-3.191-2.277c1.228-1.085,2.704-1.097,4.213-0.913c2.587,0.314,5.143,0.395,7.758-0.011
	c3.24-0.503,6.547-0.576,9.804-0.997c2.972-0.384,5.915-0.985,8.872-1.49c0.172-0.872,0.286-1.451,0.41-2.084
	c1.058-0.502,2.097-0.996,3.373-1.602c-2.009-2.038-3.381-4.319-3.163-7.358c0.684-0.195,1.313-0.374,2.035-0.58
	c0.198-2.316-0.674-4.794,0.749-6.972c0.232-0.354,0.693-0.56,1.44-1.137c0.683,1.044,1.31,2.005,2.138,3.273
	c1.008-2.131,0.525-4.146,2.151-5.599c2.659,2.073,3.168,5.084,3.709,8.313c0.475-0.438,0.733-0.715,1.03-0.941
	c0.258-0.197,0.561-0.337,1.002-0.595c1.594,1.987,0.698,4.279,1.059,6.376c0.589,0.375,1.199,0.765,1.73,1.105
	c1.609-2.031,3.169-3.999,4.799-6.056c0.548,0.349,0.921,0.587,1.356,0.865c1.715-0.599,3.152-2.205,4.883-1.79
	c1.976-2.107,3.779-4.03,5.637-6.011c-0.604-0.541-1.222-1.093-2.128-1.905c4.556-1.598,8.623-3.377,13.52-2.933
	c-0.597-1.333-1.08-2.414-1.683-3.761c1.022-0.353,1.936-0.668,2.854-0.984c-0.429-2.174-2.8-3.9-1.735-6.471
	c1.221-0.062,2.214-0.113,3.299-0.167c0.457-2.541-0.443-5.568,3.049-6.83c1.03,1.142,2.069,2.295,3.186,3.532
	c1.336-0.87,1.595-2.927,3.585-3.246c1.243,2.488,1.647,5.215,1.812,8.119c0.674-0.149,1.246-0.275,1.78-0.393
	c1.486,1.903,1.311,4.044,1.141,6.175c2.678,1.415,2.209,3.805,1.829,6.582c0.683-0.685,1.013-1.058,1.386-1.381
	c2.32-2.012,4.633-4.035,6.997-5.996c0.416-0.345,1.06-0.416,2.037-0.774c-0.289,1.73-0.504,3.017-0.759,4.548
	c2.768-1.157,5.328-2.229,8.322-3.48c-0.306,1.345-0.492,2.168-0.704,3.101c1.382,0.347,2.486-0.397,3.661-0.821
	c1.208-0.436,2.402-1.036,3.909-0.489c0,0.769,0.08,1.566-0.022,2.339c-0.1,0.738-0.389,1.45-0.589,2.15
	c1.34,1.457,4.076-0.424,4.951,2.226c-1.722,1.483-3.781,2.306-5.842,3.038c0.56,1.25,1.045,2.335,1.562,3.488
	c-2.094,1.679-4.521,0.534-6.567,1.533c0,0.726,0,1.519,0,2.628c1.258,0.098,2.532,0.37,3.774,0.261
	c3.407-0.299,6.797-0.797,10.2-1.143c4.629-0.472,9.258-1.067,13.9-1.241c3.047-0.114,6.119,0.421,10.021,0.733
	c0.955-0.582,2.629-1.628,4.329-2.628c2.061-1.21,4.046-2.622,6.238-3.519c4.613-1.888,9.391-1.577,14.126-0.355
	c4.896,1.264,9.776,2.592,14.969,3.973c0.083,0.368,0.218,0.968,0.328,1.456c-1.209,1.03-2.295,0.688-3.334,0.378
	c-3.737-1.115-7.512-2.133-11.178-3.45c-3.759-1.351-7.502-1.478-11.312-0.55c-3.73,0.909-6.388,3.52-9.688,6.119
	c2.288,0.652,4.09,1.167,5.739,1.637c0.702-0.294,1.241-0.521,1.927-0.808c0.223,0.657,0.386,1.139,0.668,1.974
	c0.869,0.187,1.938,0.417,3.35,0.72c0.767,1.548,2.843,1.925,4.496,2.925L176.784,81.299z M71.775,101.71l-0.066-0.056
	c0.362,0.177,0.725,0.354,1.006,0.49c0.629-0.273,1.159-0.503,1.74-0.755c0.221,0.446,0.362,0.735,0.523,1.062
	c0.391-0.221,0.779-0.439,1.137-0.641c0.375,0.321,0.66,0.565,0.938,0.804c1.121-0.847,2.174-1.642,3.287-2.483
	c0.9-2.479,1.83-5.042,2.746-7.565c-0.32-0.48-0.589-0.882-0.916-1.372c0.7-0.145,1.212-0.25,1.641-0.339
	c1.022-2.261,1.982-4.387,2.943-6.514c-0.209-0.161-0.418-0.322-0.627-0.482c-0.215,0.4-0.439,0.794-0.645,1.199
	c-0.522,1.037-1.027,2.083-1.558,3.116c-0.349,0.681-0.703,1.388-1.701,1.055c-0.417-0.502-0.832-1.002-1.364-1.643
	c-1.191,2.634-2.301,5.086-3.422,7.563c-0.649-0.054-1.096-0.09-1.65-0.137c-0.312-1.787-0.609-3.495-0.933-5.346
	c-1.915,0.973-3.6,1.829-5.383,2.735c0.734,1.386,2.358,2.416,1.778,4.26c-2.053,0.718-3.792-0.119-5.695-0.896
	c-0.254,1.934-0.478,3.717-1.998,4.806c-1.537,0.142-2.234-0.673-2.645-1.896c-0.177-0.525-0.186-1.301-1.328-0.912
	c0.637,1.456,1.252,2.86,1.865,4.262c0.535,0.122,1.037,0.236,1.54,0.351c0.108,0.156,0.218,0.312,0.327,0.467
	c-0.529,0.15-1.06,0.299-1.589,0.45c0.106,0.153,0.213,0.306,0.319,0.459c0.412,0.751,0.823,1.503,1.283,2.344
	c0.539-0.32,0.878-0.522,1.146-0.683c0.218-0.726-0.879-1.534,0.437-2.069c0.321,0.437,0.654,0.889,1.044,1.419
	c1.162-0.754,2.241-1.454,3.256-2.111c0.338-0.702-1.018-1.694,0.467-2.035C70.71,101.689,70.71,101.689,71.775,101.71z
	 M153.946,90.85l-0.002-0.002c0.086,0.382,0.172,0.764,0.271,1.202c0.702,0.087,1.299,0.161,1.666,0.206
	c0.797-0.441,1.378-0.763,2.126-1.176c0.723,1.026,1.56,1.708,2.771,1.045c0.174-0.502,0.347-1.005,0.616-1.785
	c0.977,0.508,1.835,0.954,2.96,1.539c0.201-0.033,0.729-0.12,1.156-0.191c0.315-0.625,0.571-1.132,0.955-1.893
	c0.434,0.749,0.711,1.227,1.252,2.16c0.383-0.835,0.638-1.39,0.811-1.765c1.104,0.358,1.783,0.578,2.516,0.815
	c0.395-0.606,0.705-1.084,1.002-1.541c0.596,0.345,1.085,0.627,1.624,0.938c0.415-0.77-0.954-1.787,0.687-2.094
	c0.291,0.461,0.6,0.952,0.952,1.51c0.687-0.169,1.4-0.346,1.925-0.475c0.205-0.676,0.356-1.173,0.639-2.1
	c0.546,0.895,0.812,1.331,1.153,1.89c0.632-0.312,1.188-0.588,2.026-1.002c-0.921-0.443-1.483-0.714-2.261-1.088
	c0.478-0.357,0.764-0.572,1.204-0.902c0.686,1.109,1.661,1.283,2.773,1.056c-0.709-0.538-1.475-0.934-2.253-1.305
	c-3.969-1.889-8.166-3.133-12.311-4.557c-4.476-1.538-8.972-2.9-13.544-4.116c-5.31-1.411-10.641-1.987-16.066-1.38
	c-4.278,0.479-8.522,1.197-12.836,1.469c-2.628,0.166-5.201,0.167-7.754-0.385c-2.997-0.65-5.965-1.438-8.95-2.146
	c-0.312-0.074-0.657-0.01-1.239-0.01c1.426,1.058,3.179,0.987,4.053,2.461c-0.365,0.583-0.703,1.123-1.025,1.637
	c1.651,1.424,4.262,1.163,5.273,3.479c-1.391,1.429-3.201,1.88-5.056,2.632c1.495,2.154,3.027,4.181,2.774,6.958
	c-2.393,0.671-4.426-0.52-6.559-1.032c-0.366,1.497,0.398,3.033-0.68,4.272c-1.88,0.217-2.424-1.346-3.272-2.415
	c-0.91-1.146-1.695-2.39-2.511-3.557c-1.14,0.507-0.896,2.326-2.383,2.082c-2.033-0.9-1.895-3.132-2.975-4.68
	c-1.004,3.709-3.304,6.865-3.577,10.711c-1.502,1.541-2.998,5.856-2.161,6.438c0.216,0,0.483,0,0.783,0
	c0.194-0.457,0.383-0.898,0.77-1.805c0.432,0.807,0.69,1.29,0.877,1.638c1.796-0.177,3.277-0.324,4.725-0.466
	c0.047-0.816-0.629-1.571,0.535-1.993c0.239,0.499,0.48,1.001,0.758,1.578c1.502-0.242,2.979-0.48,4.48-0.723
	c0.303-0.465,0.591-0.906,0.959-1.47c0.751,0.61,1.465,1.25,2.299,0.529c0.235-0.553,0.45-1.058,0.889-2.09
	c0.521,0.859,0.801,1.319,1.17,1.925c1.505-0.551,2.882-1.055,4.584-1.678c2.32,0.486,9.022-1.491,15.938-4.91
	c0.088-0.622-0.706-1.417,0.438-2.004c0.34,0.555,0.669,1.092,1.14,1.861c4.201-1.962,8.563-3.506,13.16-2.668
	c0.951-1.021,0.317-2.454,1.668-3.508c0.099,1.454,0.177,2.593,0.258,3.783c2.487,0.109,4.771,0.209,7.084,0.31
	c0.291-0.488,0.558-0.936,0.819-1.375C153.42,90.756,153.683,90.803,153.946,90.85z M71.113,104.74
	c-2.131,1.477-4.242,2.938-6.435,4.458c0.794,2.082,1.537,4.027,2.29,5.999c1.911-0.626,3.626-1.864,5.289-0.496
	c1.399-1.272,2.677-2.433,4.445-4.041c0.339-0.996,0.902-2.649,1.546-4.54C75.771,105.641,73.586,105.218,71.113,104.74z
	 M65.16,86.441c0.513-1.559,1.148-2.79,2.438-3.712c1.398-1,2.619-2.249,4.161-3.604c-2.109,0-3.877,0-5.712,0
	c-0.128,0.755-0.226,1.332-0.329,1.944c-1.766,0.698-3.519,1.39-5.215,2.06c0,0.965,0,1.684,0,2.419
	C62.085,85.851,63.551,86.132,65.16,86.441z M66.312,86.594c0.901,0.366,1.686,0.685,2.566,1.042
	c0.447-0.835,0.814-1.519,1.264-2.357c-1.238-0.087-2.229-0.157-3.233-0.227C66.699,85.592,66.534,86.018,66.312,86.594z
	 M66.303,89.918c0.639,0.372,0.969,0.564,1.424,0.829c0.061-0.439,0.094-0.669,0.146-1.049
	C67.375,89.768,67.023,89.817,66.303,89.918z"/>
<path class="stroke" fill="#58281d"  fill-rule="evenodd" clip-rule="evenodd" d="M32.793,132.743c-0.715-0.577-1.066-0.86-1.644-1.326
	c0.758-0.531,1.289-0.903,1.82-1.275c0.117,0.095,0.234,0.19,0.352,0.285C33.185,131.027,33.047,131.628,32.793,132.743z"/>
<path class="stroke" fill="#58281d"  fill-rule="evenodd" clip-rule="evenodd" d="M21.754,123.025c0.267,0.665,0.473,1.18,0.651,1.626
	c-0.549,0.684-1.074,0.705-1.424,0.138C20.529,124.057,20.98,123.567,21.754,123.025z"/>
<path class="stroke" fill="#58281d"  fill-rule="evenodd" clip-rule="evenodd" d="M40.896,147.448c0.916,0.551,1.208,1.055,0.526,1.961
	c-0.404-0.228-0.815-0.46-1.338-0.755C40.406,148.176,40.619,147.86,40.896,147.448z"/>
<path class="stroke" fill="#58281d"  fill-rule="evenodd" clip-rule="evenodd" d="M23.749,142.146c0.559,0.665,0.899,1.07,1.391,1.653
	c-0.563,0.225-0.965,0.544-1.194,0.448C23.139,143.913,23.231,143.269,23.749,142.146z"/>
<path class="stroke" fill="#58281d"  fill-rule="evenodd" clip-rule="evenodd" d="M29.899,121.396c-0.203,0.445-0.405,0.891-0.713,1.566
	c-0.543-0.476-0.908-0.795-1.559-1.365c0.862-0.276,1.388-0.444,1.913-0.613C29.66,121.122,29.78,121.259,29.899,121.396z"/>
<path class="stroke" fill="#58281d"  fill-rule="evenodd" clip-rule="evenodd" d="M98.953,160.149c-0.244,0.431-0.489,0.861-0.869,1.53
	c-0.488-0.485-0.814-0.811-1.409-1.401c0.883-0.252,1.41-0.403,1.938-0.554C98.726,159.866,98.84,160.008,98.953,160.149z"/>
<path class="stroke" fill="#58281d"  fill-rule="evenodd" clip-rule="evenodd" d="M115.379,161.03c-0.362,0.79-0.533,1.162-0.803,1.749
	c-0.516-0.385-0.884-0.659-1.252-0.934c0.023-0.158,0.047-0.316,0.069-0.475C113.929,161.279,114.464,161.188,115.379,161.03z"/>
<path class="stroke" fill="#58281d"  fill-rule="evenodd" clip-rule="evenodd" d="M21.737,132.03c0.104,0.489,0.209,0.979,0.4,1.877
	c-0.788-0.213-1.261-0.341-2.045-0.554c0.558-0.689,0.869-1.074,1.18-1.458C21.428,131.94,21.582,131.985,21.737,132.03z"/>
<path class="stroke" fill="#58281d"  fill-rule="evenodd" clip-rule="evenodd" d="M10.17,121.754c-0.713,1.748-0.713,1.748-1.764,0.357
	C9.082,121.974,9.626,121.864,10.17,121.754z"/>
<path class="stroke" fill="#58281d"  fill-rule="evenodd" clip-rule="evenodd" d="M83.81,159.531c-0.473-0.594-0.705-0.886-1.173-1.475
	c0.823-0.18,1.389-0.304,2.441-0.534C84.523,158.4,84.258,158.822,83.81,159.531z"/>
<path class="stroke" fill="#58281d"  fill-rule="evenodd" clip-rule="evenodd" d="M67.785,155.627c0.875,0.273,1.379,0.431,1.974,0.617
	C68.596,157.543,68.41,157.504,67.785,155.627z"/>
<path class="stroke" fill="#58281d"  fill-rule="evenodd" clip-rule="evenodd" d="M170.591,105.58c-0.199,0.311-0.399,0.622-0.718,1.118
	c-0.438-0.386-0.777-0.684-1.115-0.981c0.04-0.144,0.081-0.287,0.121-0.431c0.514-0.065,1.027-0.131,1.541-0.197
	C170.477,105.253,170.534,105.417,170.591,105.58z"/>
<path class="stroke" fill="#58281d"  fill-rule="evenodd" clip-rule="evenodd" d="M141.053,146.201c0.471-0.124,0.991-0.26,1.552-0.408
	c0.36,0.913,0.054,1.388-0.607,1.536C141.352,147.474,141.012,147.082,141.053,146.201z"/>
<path class="stroke" fill="#58281d"  fill-rule="evenodd" clip-rule="evenodd" d="M163.404,138.956c-0.602-0.52-0.913-0.789-1.535-1.325
	c0.811-0.218,1.29-0.347,2.097-0.563C163.743,137.817,163.629,138.201,163.404,138.956z"/>
<path class="stroke" fill="#58281d"  fill-rule="evenodd" clip-rule="evenodd" d="M45.044,137.507c-0.075,0.741-0.114,1.135-0.183,1.812
	c-0.699-0.357-1.18-0.603-1.661-0.849c0-0.14,0-0.28,0-0.42C43.726,137.895,44.252,137.74,45.044,137.507z"/>
<path class="stroke" fill="#58281d"  fill-rule="evenodd" clip-rule="evenodd" d="M50.623,154.001c-1.413,1.291-1.511,1.253-1.919-0.473
	C49.316,153.679,49.803,153.799,50.623,154.001z"/>
<path class="stroke" fill="#58281d"  fill-rule="evenodd" clip-rule="evenodd" d="M108.281,156.896c-0.341-0.32-0.682-0.641-1.268-1.19
	c0.748-0.18,1.151-0.276,1.75-0.42c0,0.591,0,1,0,1.409C108.604,156.761,108.441,156.828,108.281,156.896z"/>
<path class="stroke" fill="#58281d"  fill-rule="evenodd" clip-rule="evenodd" d="M33.829,140.11c-1.468,0.874-1.468,0.874-2.046-1.012
	C32.58,139.493,33.116,139.758,33.829,140.11z"/>
<path class="stroke" fill="#58281d"  fill-rule="evenodd" clip-rule="evenodd" d="M151.977,110.343c0.692-0.538,1.189-0.383,1.596,0.356
	C152.536,111.67,152.536,111.67,151.977,110.343z"/>
<path class="stroke" fill="#58281d"  fill-rule="evenodd" clip-rule="evenodd" d="M122.005,107.247c0.497-0.188,0.995-0.377,1.901-0.722
	c-0.26,0.829-0.394,1.256-0.573,1.829c-0.555-0.256-0.934-0.432-1.312-0.606C122.016,107.581,122.01,107.414,122.005,107.247z"/>
<path class="stroke" fill="#58281d"  fill-rule="evenodd" clip-rule="evenodd" d="M177.182,100.329c0.553,0.224,1.106,0.447,1.898,0.768
	c-1.428,0.704-1.428,0.704-2.091-0.301C177.054,100.64,177.117,100.484,177.182,100.329z"/>
<path class="stroke" fill="#58281d"  fill-rule="evenodd" clip-rule="evenodd" d="M46.693,119.767c1.121-0.433,1.654-0.259,1.677,0.872
	C47.385,121.191,46.979,120.811,46.693,119.767z"/>
<path class="stroke" fill="#58281d"  fill-rule="evenodd" clip-rule="evenodd" d="M172.162,98.425c-1.036,0.924-1.036,0.924-1.69-0.35
	C171.109,97.425,171.61,97.637,172.162,98.425z"/>
<path class="stroke" fill="#58281d"  fill-rule="evenodd" clip-rule="evenodd" d="M160.411,120.284c-0.224,0.68-0.335,1.02-0.529,1.608
	c-0.535-0.38-0.905-0.644-1.275-0.907c0.028-0.161,0.058-0.323,0.087-0.484C159.175,120.44,159.656,120.379,160.411,120.284z"/>
<path class="stroke" fill="#58281d"  fill-rule="evenodd" clip-rule="evenodd" d="M48.657,144.63c0.793-0.642,1.309-0.62,1.742,0.147
	C49.628,145.64,49.628,145.64,48.657,144.63z"/>
<path class="stroke" fill="#58281d"  fill-rule="evenodd" clip-rule="evenodd" d="M102.197,108.084c0.493,0.065,0.986,0.129,1.613,0.212
	c-0.758,1.109-0.758,1.109-1.709,0.27C102.134,108.405,102.165,108.245,102.197,108.084z"/>
<path class="stroke" fill="#58281d"  fill-rule="evenodd" clip-rule="evenodd" d="M149.003,99.828c0.473,0.116,0.946,0.233,1.578,0.389
	c-0.979,1.066-0.979,1.066-1.731,0.086C148.9,100.145,148.952,99.986,149.003,99.828z"/>
<path class="stroke" fill="#58281d"  fill-rule="evenodd" clip-rule="evenodd" d="M121.973,155.794c-1.027,0.776-1.027,0.776-1.396-0.543
	C121.406,155.093,121.406,155.093,121.973,155.794z"/>
<path class="stroke" fill="#58281d"  fill-rule="evenodd" clip-rule="evenodd" d="M176.941,122.975c-0.832,1.072-1.331,0.896-1.786-0.067
	C176.039,122.487,176.039,122.487,176.941,122.975z"/>
<path class="stroke" fill="#58281d"  fill-rule="evenodd" clip-rule="evenodd" d="M40.502,124.022c0.414-0.352,0.691-0.588,1.08-0.919
	c0.316,0.434,0.555,0.76,0.828,1.134C41.691,124.912,41.175,124.851,40.502,124.022z"/>
<path class="stroke" fill="#58281d"  fill-rule="evenodd" clip-rule="evenodd" d="M113.617,110.048c-0.779,1.019-1.229,0.62-1.721-0.035
	C112.684,109.515,112.684,109.515,113.617,110.048z"/>
<path class="stroke" fill="#58281d"  fill-rule="evenodd" clip-rule="evenodd" d="M161.188,109.464c-0.43,0.655-0.6,0.916-0.878,1.341
	c-0.42-0.371-0.757-0.668-1.094-0.966c0.043-0.125,0.085-0.25,0.128-0.375C159.818,109.464,160.295,109.464,161.188,109.464z"/>
<path class="stroke" fill="#58281d"  fill-rule="evenodd" clip-rule="evenodd" d="M182.987,116.706c0.4,0.262,0.802,0.523,1.405,0.917
	c-1.2,0.747-1.564,0.36-1.809-0.282C182.719,117.13,182.853,116.918,182.987,116.706z"/>
<path class="stroke" fill="#58281d"  fill-rule="evenodd" clip-rule="evenodd" d="M168.018,119.165c-1.098,0.353-1.098,0.353-1.799-0.353
	C166.896,118.021,167.4,118.172,168.018,119.165z"/>
<path class="stroke" fill="#58281d"  fill-rule="evenodd" clip-rule="evenodd" d="M51.763,122.869c0.487,0.075,0.974,0.15,1.694,0.261
	c-0.965,0.877-0.965,0.877-1.801,0.224C51.692,123.192,51.728,123.03,51.763,122.869z"/>
<path class="stroke" fill="#58281d"  fill-rule="evenodd" clip-rule="evenodd" d="M167.086,127.794c0.92-0.693,1.326-0.355,1.653,0.438
	C167.96,129.089,167.505,128.782,167.086,127.794z"/>
<path class="stroke" fill="#58281d"  fill-rule="evenodd" clip-rule="evenodd" d="M49.808,133.074c-0.479-0.134-0.956-0.267-1.664-0.465
	c0.958-1.082,1.451-0.925,1.867-0.271C49.943,132.583,49.875,132.828,49.808,133.074z"/>
<path class="stroke" fill="#58281d"  fill-rule="evenodd" clip-rule="evenodd" d="M43.11,132.453c-0.346,0.668-0.482,1.214-0.669,1.231
	c-0.353,0.033-0.733-0.237-1.103-0.382c0.017-0.15,0.033-0.3,0.05-0.451C41.832,132.749,42.275,132.646,43.11,132.453z"/>
<path class="stroke" fill="#58281d"  fill-rule="evenodd" clip-rule="evenodd" d="M150.413,138.411c0.766-0.413,1.23-0.148,1.553,0.596
	C150.778,139.763,150.778,139.763,150.413,138.411z"/>
<path class="stroke" fill="#58281d"  fill-rule="evenodd" clip-rule="evenodd" d="M131.019,152.917c-0.512,1.496-1.01,1.145-1.505,0.727
	c0.002-0.213,0.004-0.427,0.006-0.64C130.02,152.975,130.519,152.945,131.019,152.917z"/>
<path class="stroke" fill="#58281d"  fill-rule="evenodd" clip-rule="evenodd" d="M163.164,101.5c1.002-0.511,1.387-0.17,1.659,0.668
	C163.927,102.706,163.436,102.58,163.164,101.5z"/>
<path class="stroke" fill="#58281d"  fill-rule="evenodd" clip-rule="evenodd" d="M15.387,99.767c-0.527,0.597-0.695,0.788-1.035,1.172
	c-0.327-0.44-0.585-0.787-0.843-1.134c0.081-0.131,0.163-0.261,0.245-0.392C14.176,99.504,14.597,99.596,15.387,99.767z"/>
<path class="stroke" fill="#58281d"  fill-rule="evenodd" clip-rule="evenodd" d="M186.587,100.881c-0.738-0.045-1.085,0.011-1.353-0.109
	c-0.191-0.086-0.278-0.408-0.467-0.714C185.627,99.507,186.112,99.603,186.587,100.881z"/>
<path class="stroke" fill="#58281d"  fill-rule="evenodd" clip-rule="evenodd" d="M131.12,100.708c0.979-0.446,1.554-0.494,1.595,0.624
	C131.809,101.516,131.809,101.516,131.12,100.708z"/>
<path class="stroke" fill="#58281d"  fill-rule="evenodd" clip-rule="evenodd" d="M176.836,81.364c-0.036-0.584-0.073-1.168-0.109-1.752
	c0.145-0.038,0.289-0.076,0.433-0.114c0.221,0.269,0.441,0.539,0.743,0.908c-0.437,0.344-0.78,0.615-1.121,0.89
	C176.784,81.299,176.836,81.364,176.836,81.364z"/>
<path class="stroke" fill="#58281d"  fill-rule="evenodd" clip-rule="evenodd" d="M170.711,75.881c0.515-0.466,0.952-0.347,1.525,0.555c-0.652,0-1.101,0-1.549,0
	C170.695,76.251,170.703,76.066,170.711,75.881z"/>
<path class="stroke" fill="#58281d"  fill-rule="evenodd" clip-rule="evenodd" d="M18.988,110.052c0.857,0.084,1.154,0.113,1.616,0.158
	c-0.164,0.488-0.278,0.829-0.497,1.477C19.721,111.122,19.503,110.804,18.988,110.052z"/>
<path class="stroke" fill="#58281d"  fill-rule="evenodd" clip-rule="evenodd" d="M140.246,99.237c-0.17,0.615-0.251,0.911-0.398,1.445
	c-0.525-0.275-0.922-0.483-1.317-0.69c0.018-0.161,0.036-0.321,0.055-0.481C139.064,99.431,139.544,99.352,140.246,99.237z"/>
<path class="stroke" fill="#58281d"  fill-rule="evenodd" clip-rule="evenodd" d="M90.724,110.318c-0.033,0.708-0.048,1.009-0.076,1.605
	c-0.612-0.298-1.017-0.494-1.785-0.868C89.632,110.75,90.011,110.601,90.724,110.318z"/>
<path class="stroke" fill="#58281d"  fill-rule="evenodd" clip-rule="evenodd" d="M165.404,111.562c-0.888,0.856-1.271,0.377-1.745-0.306
	C164.359,110.624,164.84,110.75,165.404,111.562z"/>
<path class="stroke" fill="#58281d"  fill-rule="evenodd" clip-rule="evenodd" d="M97.496,112.787c-0.846,0.827-1.278,0.549-1.711-0.285
	C96.435,111.979,96.936,111.851,97.496,112.787z"/>
<path class="stroke" fill="#58281d"  fill-rule="evenodd" clip-rule="evenodd" d="M123.305,113.665c-0.824,0.687-1.303,0.588-1.719-0.296
	C122.247,112.729,122.738,112.769,123.305,113.665z"/>
<path class="stroke" fill="#58281d"  fill-rule="evenodd" clip-rule="evenodd" d="M156.332,101.577c-0.856,0.45-1.24,0.172-1.459-0.745
	C155.936,100.784,155.936,100.784,156.332,101.577z"/>
<path class="stroke" fill="#58281d"  fill-rule="evenodd" clip-rule="evenodd" d="M174.903,114.322c-0.75,0.329-1.271,0.25-1.344-1.152
	c0.646,0.261,1.084,0.437,1.521,0.613C175.021,113.963,174.963,114.143,174.903,114.322z"/>
<path class="stroke" fill="#58281d"  fill-rule="evenodd" clip-rule="evenodd" d="M134.798,115.145c-0.631,0.771-1.102,0.652-1.636-0.168
	C133.783,114.386,134.262,114.374,134.798,115.145z"/>
<path class="stroke" fill="#58281d"  fill-rule="evenodd" clip-rule="evenodd" d="M145.841,115.315c0.391,0.18,0.782,0.36,1.195,0.551
	c-0.184,0.308-0.224,0.475-0.319,0.519c-0.734,0.334-1.062,0.011-1.188-0.605C145.632,115.625,145.736,115.47,145.841,115.315z"/>
<path class="stroke" fill="#58281d"  fill-rule="evenodd" clip-rule="evenodd" d="M45.66,107.687c0.219-0.3,0.438-0.601,0.927-1.27
	c0.17,0.713,0.423,1.165,0.291,1.386c-0.144,0.239-0.646,0.262-0.993,0.379C45.811,108.016,45.735,107.851,45.66,107.687z"/>
<path class="stroke" fill="#58281d"  fill-rule="evenodd" clip-rule="evenodd" d="M152.71,124.776c-0.36,1.537-0.865,1.156-1.743,0.247
	C151.756,124.911,152.232,124.844,152.71,124.776z"/>
<path class="stroke" fill="#58281d"  fill-rule="evenodd" clip-rule="evenodd" d="M56.318,150.887c0.795-0.386,1.357-0.41,1.619,0.624
	C56.975,151.68,56.975,151.68,56.318,150.887z"/>
<path class="stroke" fill="#58281d"  fill-rule="evenodd" clip-rule="evenodd" d="M113.966,105.673c-0.456-0.141-0.912-0.282-1.604-0.496
	c0.893-0.935,1.378-0.867,1.786-0.148C114.088,105.243,114.027,105.458,113.966,105.673z"/>
<path class="stroke" fill="#58281d"  fill-rule="evenodd" clip-rule="evenodd" d="M156.475,133.922c-0.598-0.216-1.023-0.371-1.559-0.565
	c0.267-0.347,0.355-0.587,0.504-0.635C156.101,132.508,156.658,132.541,156.475,133.922z"/>
<path class="stroke" fill="#58281d"  fill-rule="evenodd" clip-rule="evenodd" d="M142.576,107.57c-0.357,0.654-0.521,0.952-0.763,1.395
	c-0.446-0.342-0.77-0.589-1.531-1.174C141.261,107.697,141.746,107.65,142.576,107.57z"/>
<path class="stroke" fill="#58281d"  fill-rule="evenodd" clip-rule="evenodd" d="M183.233,109.531c-0.78,0.684-1.2,0.439-1.505-0.26
	C182.455,108.66,182.455,108.66,183.233,109.531z"/>
<path class="stroke" fill="#58281d"  fill-rule="evenodd" clip-rule="evenodd" d="M48.871,106.8c0.797,0.485,0.871,0.93,0.28,1.56
	C48.309,108.007,48.251,107.561,48.871,106.8z"/>
<path class="stroke" fill="#58281d"  fill-rule="evenodd" clip-rule="evenodd" d="M21.521,106.828c0.691-0.304,1.007-0.442,1.48-0.649
	c0.09,0.513,0.148,0.852,0.28,1.601C22.583,107.401,22.214,107.202,21.521,106.828z"/>
<path class="stroke" fill="#58281d"  fill-rule="evenodd" clip-rule="evenodd" d="M48.948,104.478c-0.569,0.049-0.862,0.075-1.354,0.117
	c0.137-0.552,0.229-0.929,0.322-1.306c0.125-0.027,0.25-0.055,0.375-0.082C48.479,103.571,48.667,103.935,48.948,104.478z"/>
<path class="stroke" fill="#58281d"  fill-rule="evenodd" clip-rule="evenodd" d="M177.76,74.158c-0.654-0.33-0.71-0.758,0.147-1.572
	c0.178,0.594,0.297,0.993,0.415,1.391C178.135,74.038,177.947,74.098,177.76,74.158z"/>
<path class="stroke" fill="#58281d"  fill-rule="evenodd" clip-rule="evenodd" d="M9.124,110.893c0.536-0.591,0.969-0.666,1.444,0.143
	C10.017,111.65,9.592,111.597,9.124,110.893z"/>
<path class="stroke" fill="#58281d"  fill-rule="evenodd" clip-rule="evenodd" d="M178.738,77.039c0.423,0.086,0.846,0.172,1.464,0.297
	C179.482,78.387,179.056,78.245,178.738,77.039z"/>
<path class="stroke" fill="#58281d"  fill-rule="evenodd" clip-rule="evenodd" d="M130.857,109.471c0.336-0.113,0.672-0.226,1.148-0.386
	c0.097,0.472,0.165,0.803,0.309,1.5c-0.73-0.297-1.145-0.465-1.558-0.632C130.791,109.792,130.824,109.632,130.857,109.471z"/>
<path class="stroke" fill="#58281d"  fill-rule="evenodd" clip-rule="evenodd" d="M189.478,93.729c-0.851,0.413-1.091-0.066-1.282-1.396
	c0.769,0.388,1.179,0.595,1.589,0.802C189.682,93.332,189.58,93.53,189.478,93.729z"/>
<path class="stroke" fill="#58281d"  fill-rule="evenodd" clip-rule="evenodd" d="M15.827,112.346c-0.656,0-1.022,0-1.373,0c-0.038-0.23-0.121-0.397-0.069-0.476
	C14.901,111.083,15.299,111.267,15.827,112.346z"/>
<path class="stroke" fill="#58281d"  fill-rule="evenodd" clip-rule="evenodd" d="M46.535,100.341c-0.542,0.736-0.957,0.573-1.464-0.073
	C45.649,99.606,46.068,99.702,46.535,100.341z"/>
<path class="stroke" fill="#58281d"  fill-rule="evenodd" clip-rule="evenodd" d="M35.571,111.479c0.116,0.385,0.232,0.771,0.396,1.312
	c-1.248-0.051-1.166-0.552-0.971-1.11C35.188,111.613,35.38,111.546,35.571,111.479z"/>
<path class="stroke" fill="#58281d"  fill-rule="evenodd" clip-rule="evenodd" d="M189.264,82.278c0.955,0.887,1.066,1.366-0.294,1.991
	C189.084,83.496,189.151,83.038,189.264,82.278z"/>
<path class="stroke" fill="#58281d"  fill-rule="evenodd" clip-rule="evenodd" d="M13.313,110.479c-0.709,0.069-1.103,0.108-1.483,0.146
	c-0.051-0.296-0.137-0.467-0.085-0.544C12.203,109.401,12.649,109.36,13.313,110.479z"/>
<path class="stroke" fill="#58281d"  fill-rule="evenodd" clip-rule="evenodd" d="M18.591,110.135c-0.482,1.094-0.902,1.029-1.849,0.105
	c0.367-0.12,0.617-0.251,0.875-0.271C17.863,109.95,18.118,110.047,18.591,110.135z"/>
<path class="stroke" fill="#58281d"  fill-rule="evenodd" clip-rule="evenodd" d="M16.057,107.134c0.076,0.428,0.151,0.855,0.228,1.282
	c-0.194,0.051-0.388,0.103-0.581,0.154c-0.14-0.415-0.279-0.83-0.42-1.245C15.541,107.262,15.799,107.198,16.057,107.134z"/>
<path class="stroke" fill="#58281d"  fill-rule="evenodd" clip-rule="evenodd" d="M193.194,81.362c0,0.756,0,1.176,0,1.799
	C192.227,82.566,192.378,82.141,193.194,81.362z"/>
<path class="stroke" fill="#58281d"  fill-rule="evenodd" clip-rule="evenodd" d="M42.708,109.885c1.289-0.266,1.38,0.176,0.862,1.235
	C43.193,110.58,42.95,110.232,42.708,109.885z"/>
<path class="stroke" fill="#58281d"  fill-rule="evenodd" clip-rule="evenodd" d="M105.062,111.956c0.819-0.458,1.301-0.441,1.496,0.547
	C105.782,112.97,105.41,112.68,105.062,111.956z"/>
<path class="stroke" fill="#58281d"  fill-rule="evenodd" clip-rule="evenodd" d="M183.77,82.193c-1.108-0.341-1.111-0.799-0.258-1.546
	C183.622,81.308,183.695,81.75,183.77,82.193z"/>
<path class="stroke" fill="#58281d"  fill-rule="evenodd" clip-rule="evenodd" d="M191.371,80.15c-0.05-0.539-0.086-0.928-0.129-1.391
	c0.336,0.021,0.596-0.041,0.686,0.055C192.495,79.428,192.26,79.804,191.371,80.15z"/>
<path class="stroke" fill="#58281d"  fill-rule="evenodd" clip-rule="evenodd" d="M48.407,100.54c0.371-0.084,0.742-0.168,1.113-0.252
	c0.057,0.128,0.114,0.256,0.171,0.383c-0.21,0.172-0.399,0.428-0.638,0.488c-0.182,0.046-0.426-0.157-0.643-0.249
	C48.41,100.787,48.408,100.663,48.407,100.54z"/>
<path class="stroke" fill="#58281d"  fill-rule="evenodd" clip-rule="evenodd" d="M169.228,73.265c-1.186-0.217-1.106-0.625-0.321-1.275
	C169.04,72.52,169.134,72.893,169.228,73.265z"/>
<path class="stroke" fill="#58281d"  fill-rule="evenodd" clip-rule="evenodd" d="M10.444,103.059c-0.43,0-0.859,0-1.289,0c-0.018-0.166-0.034-0.332-0.052-0.499
	c0.426-0.07,0.852-0.142,1.278-0.212C10.402,102.585,10.424,102.822,10.444,103.059z"/>
<path class="stroke" fill="#58281d"  fill-rule="evenodd" clip-rule="evenodd" d="M46.563,103.602c-0.392-0.068-0.782-0.137-1.174-0.206
	c0.013-0.16,0.025-0.32,0.038-0.48c0.394,0,0.787,0,1.181,0C46.594,103.145,46.578,103.373,46.563,103.602z"/>
<path class="stroke" fill="#58281d"  fill-rule="evenodd" clip-rule="evenodd" d="M184.945,78.677c0.857,0.458,0.73,0.912,0.295,1.53
	C184.374,79.764,184.547,79.304,184.945,78.677z"/>
<path class="stroke" fill="#58281d"  fill-rule="evenodd" clip-rule="evenodd" d="M31.85,108.953c0.301,0.534,0.42,0.744,0.652,1.156
	c-0.542,0.085-0.926,0.146-1.646,0.26C31.254,109.799,31.457,109.512,31.85,108.953z"/>
<path class="stroke" fill="#58281d"  fill-rule="evenodd" clip-rule="evenodd" d="M39.862,108.445c0.099,0.432,0.197,0.865,0.296,1.297
	c-0.167,0.053-0.334,0.107-0.501,0.16c-0.161-0.425-0.321-0.851-0.482-1.276C39.403,108.565,39.633,108.505,39.862,108.445z"/>
<path class="stroke" fill="#58281d"  fill-rule="evenodd" clip-rule="evenodd" d="M9.138,108.671c-0.397,0.019-0.795,0.038-1.191,0.057
	c-0.01-0.183-0.02-0.367-0.029-0.55c0.397-0.021,0.794-0.042,1.191-0.062C9.118,108.301,9.128,108.486,9.138,108.671z"/>
<path class="stroke" fill="#58281d"  fill-rule="evenodd" clip-rule="evenodd" d="M19.354,94.466c0.122,0.724,0.185,1.093,0.27,1.597
	C18.511,95.873,18.36,95.513,19.354,94.466z"/>
<path class="stroke" fill="#58281d"  fill-rule="evenodd" clip-rule="evenodd" d="M52.198,105.148c0.117,0.566,0.205,0.992,0.304,1.471
	c-0.337-0.018-0.509,0.026-0.587-0.04C51.395,106.139,51.419,105.713,52.198,105.148z"/>
<path class="stroke" fill="#58281d"  fill-rule="evenodd" clip-rule="evenodd" d="M43.259,106.423c0.789,0.773,1.104,1.169-0.074,1.659
	C43.211,107.513,43.227,107.141,43.259,106.423z"/>
<path class="stroke" fill="#58281d"  fill-rule="evenodd" clip-rule="evenodd" d="M15.771,101.928c0.385,0,0.77,0,1.154,0c0.016,0.134,0.031,0.269,0.047,0.403
	c-0.384,0.049-0.768,0.097-1.152,0.146C15.805,102.294,15.788,102.111,15.771,101.928z"/>
<path class="stroke" fill="#58281d"  fill-rule="evenodd" clip-rule="evenodd" d="M181.57,76.327c0.401,0.034,0.804,0.067,1.205,0.101
	c0.015,0.129,0.029,0.259,0.044,0.388c-0.253,0.083-0.513,0.245-0.757,0.225c-0.203-0.016-0.39-0.245-0.583-0.38
	C181.51,76.549,181.54,76.438,181.57,76.327z"/>
<path class="stroke" fill="#58281d"  fill-rule="evenodd" clip-rule="evenodd" d="M185.677,83.675c0,0.388,0,0.777,0,1.265
	C184.839,84.366,184.839,84.366,185.677,83.675z"/>
<path class="stroke" fill="#58281d"  fill-rule="evenodd" clip-rule="evenodd" d="M188.451,81.091c-0.329-0.155-0.658-0.31-0.988-0.464
	c0.052-0.146,0.103-0.292,0.154-0.437c0.347,0.085,0.693,0.171,1.041,0.256C188.589,80.661,188.52,80.876,188.451,81.091z"/>
<path class="stroke" fill="#58281d"  fill-rule="evenodd" clip-rule="evenodd" d="M190.54,76.142c-0.052-0.368-0.104-0.736-0.155-1.104
	c0.152-0.038,0.305-0.077,0.457-0.115c0.092,0.362,0.184,0.725,0.276,1.086C190.925,76.053,190.732,76.097,190.54,76.142z"/>
<path class="stroke" fill="#58281d"  fill-rule="evenodd" clip-rule="evenodd" d="M174.168,76.707c0.63,0.144,0.989,0.226,1.527,0.349
	C174.934,77.935,174.609,77.695,174.168,76.707z"/>
<path class="stroke" fill="#58281d"  fill-rule="evenodd" clip-rule="evenodd" d="M50.524,109.21c0-0.522,0-0.874,0-1.277c0.291,0.041,0.552-0.002,0.647,0.104
	C51.646,108.562,51.535,108.94,50.524,109.21z"/>
<path class="stroke" fill="#58281d"  fill-rule="evenodd" clip-rule="evenodd" d="M22.274,110.225c0.557-0.093,0.93-0.155,1.419-0.237
	C23.225,110.891,23.225,110.891,22.274,110.225z"/>
<path class="stroke" fill="#58281d"  fill-rule="evenodd" clip-rule="evenodd" d="M36.709,110.473c0.609-0.2,0.96-0.315,1.475-0.484
	C37.981,111.079,37.608,111.129,36.709,110.473z"/>
<path class="stroke" fill="#58281d"  fill-rule="evenodd" clip-rule="evenodd" d="M180.178,82.726c0-0.381,0-0.762,0-1.143c0.143-0.016,0.285-0.031,0.428-0.047
	c0.05,0.379,0.1,0.758,0.15,1.137C180.562,82.69,180.37,82.708,180.178,82.726z"/>
<path class="stroke" fill="#58281d"  fill-rule="evenodd" clip-rule="evenodd" d="M187.285,81.327c0,0.33,0,0.66,0,0.99c-0.142,0.015-0.282,0.029-0.423,0.044
	c-0.042-0.335-0.083-0.67-0.124-1.004C186.92,81.347,187.103,81.337,187.285,81.327z"/>
<path class="stroke" fill="#58281d"  fill-rule="evenodd" clip-rule="evenodd" d="M185.715,74.709c0,0.343,0,0.687,0,1.03c-0.134,0.016-0.268,0.031-0.4,0.046
	c-0.052-0.339-0.104-0.678-0.154-1.018C185.345,74.748,185.529,74.729,185.715,74.709z"/>
<path class="stroke" fill="#58281d"  fill-rule="evenodd" clip-rule="evenodd" d="M10.279,104.792c0.354,0.016,0.708,0.031,1.062,0.047
	c-0.012,0.155-0.022,0.31-0.033,0.465c-0.353-0.031-0.705-0.061-1.058-0.091C10.26,105.073,10.27,104.933,10.279,104.792z"/>
<path class="stroke" fill="#58281d"  fill-rule="evenodd" clip-rule="evenodd" d="M180.572,79.652c0.396-0.026,0.674-0.045,1.036-0.069
	C181.231,80.238,181.231,80.238,180.572,79.652z"/>
<path class="stroke" fill="#58281d"  fill-rule="evenodd" clip-rule="evenodd" d="M121.768,93.993c1.251,1.38,1.251,1.38,0.283,2.365
	C121.241,95.658,121.778,94.958,121.768,93.993z"/>
<path class="stroke" fill="#58281d"  fill-rule="evenodd" clip-rule="evenodd" d="M155.219,84.413c-0.555,0.96-1.108,0.978-1.955,0.512
	C153.812,84.04,154.394,84.147,155.219,84.413z"/>
<path class="stroke" fill="#58281d"  fill-rule="evenodd" clip-rule="evenodd" d="M114.144,94.669c0.77,0.479,0.94,0.948,0.177,1.647
	C113.49,95.855,113.263,95.395,114.144,94.669z"/>
<path class="stroke" fill="#58281d"  fill-rule="evenodd" clip-rule="evenodd" d="M150.327,89.701c0.735,0.602,1.044,1.059,0.262,1.766
	C149.691,91,149.714,90.495,150.327,89.701z"/>
<path class="stroke" fill="#58281d"  fill-rule="evenodd" clip-rule="evenodd" d="M139.797,90.491c-0.944-0.617-0.805-1.061-0.023-1.555
	C140.526,89.392,140.598,89.83,139.797,90.491z"/>
<path class="stroke" fill="#58281d"  fill-rule="evenodd" clip-rule="evenodd" d="M158.12,89.98c0.083-0.478,0.166-0.956,0.288-1.661
	C159.412,89.452,159.412,89.452,158.12,89.98z"/>
<path class="stroke" fill="#58281d"  fill-rule="evenodd" clip-rule="evenodd" d="M152.439,87.996c-0.664,1.1-1.07,0.899-1.621-0.093
	C151.541,87.945,151.99,87.971,152.439,87.996z"/>
<path class="stroke" fill="#58281d"  fill-rule="evenodd" clip-rule="evenodd" d="M128.073,85.838c1.118,0.392,1.077,0.893,0.64,1.625
	C127.707,87.253,127.75,86.724,128.073,85.838z"/>
<path class="stroke" fill="#58281d"  fill-rule="evenodd" clip-rule="evenodd" d="M148.566,87.396c0.687,0.507,0.631,0.996-0.477,1.769
	c-0.077-0.748-0.126-1.222-0.175-1.695C148.132,87.444,148.35,87.42,148.566,87.396z"/>
<path class="stroke" fill="#58281d"  fill-rule="evenodd" clip-rule="evenodd" d="M161.024,86.211c0.74,0.154,1.168,0.243,1.606,0.334
	c-0.085,0.339-0.076,0.524-0.152,0.572C161.918,87.469,161.47,87.4,161.024,86.211z"/>
<path class="stroke" fill="#58281d"  fill-rule="evenodd" clip-rule="evenodd" d="M124.728,95.498c-0.753-0.786-0.766-1.254,0.03-1.651
	C125.588,94.368,125.424,94.85,124.728,95.498z"/>
<path class="stroke" fill="#58281d"  fill-rule="evenodd" clip-rule="evenodd" d="M95.647,90.698c0.153,0.413,0.308,0.825,0.452,1.214
	c-0.305,0.156-0.43,0.28-0.529,0.262c-1.141-0.203-0.681-0.792-0.438-1.327C95.304,90.798,95.476,90.748,95.647,90.698z"/>
<path class="stroke" fill="#58281d"  fill-rule="evenodd" clip-rule="evenodd" d="M134.977,80.234c0.934,0.833,0.59,1.26-0.15,1.715
	C134.093,81.422,134.313,80.958,134.977,80.234z"/>
<path class="stroke" fill="#58281d"  fill-rule="evenodd" clip-rule="evenodd" d="M167.733,87.463c0.072,0.431,0.145,0.861,0.216,1.283
	c-0.357,0.08-0.521,0.173-0.606,0.126c-0.786-0.434-0.433-0.906-0.167-1.37C167.361,87.489,167.548,87.477,167.733,87.463z"/>
<path class="stroke" fill="#58281d"  fill-rule="evenodd" clip-rule="evenodd" d="M113.159,96.702c0.888,0.634,1.009,1.058,0.282,1.68
	c-0.199-0.278-0.42-0.462-0.463-0.682C112.933,97.47,113.058,97.206,113.159,96.702z"/>
<path class="stroke" fill="#58281d"  fill-rule="evenodd" clip-rule="evenodd" d="M104.359,96.539c1.122,0.401,1.331,0.844,0.178,1.458
	C104.463,97.391,104.411,96.965,104.359,96.539z"/>
<path class="stroke" fill="#58281d"  fill-rule="evenodd" clip-rule="evenodd" d="M154.001,86.835c0.825,0.986,0.846,1.453-0.489,1.901
	C153.704,87.99,153.814,87.557,154.001,86.835z"/>
<path class="stroke" fill="#58281d"  fill-rule="evenodd" clip-rule="evenodd" d="M98.357,96.444c0.194,0.31,0.389,0.621,0.654,1.047
	c-0.351,0.196-0.606,0.34-1.234,0.692c0.079-0.803,0.124-1.257,0.169-1.711C98.083,96.463,98.221,96.454,98.357,96.444z"/>
<path class="stroke" fill="#58281d"  fill-rule="evenodd" clip-rule="evenodd" d="M118.117,97.701c-0.458-0.513-0.711-0.677-0.772-0.895
	c-0.084-0.296-0.021-0.634-0.021-1.064C118.609,96.031,118.516,96.586,118.117,97.701z"/>
<path class="stroke" fill="#58281d"  fill-rule="evenodd" clip-rule="evenodd" d="M114.834,86.142c0.441,0.082,0.882,0.164,1.512,0.281
	C115.626,87.486,115.184,87.272,114.834,86.142z"/>
<path class="stroke" fill="#58281d"  fill-rule="evenodd" clip-rule="evenodd" d="M174.935,85.495c0.859-1.13,1.312-1.004,1.679,0.158
	C176.154,85.609,175.695,85.566,174.935,85.495z"/>
<path class="stroke" fill="#58281d"  fill-rule="evenodd" clip-rule="evenodd" d="M172.525,85.768c0,0.477,0,0.893,0,1.406
	C171.396,86.429,171.396,86.429,172.525,85.768z"/>
<path class="stroke" fill="#58281d"  fill-rule="evenodd" clip-rule="evenodd" d="M124.727,86.366c-0.819,0-1.22,0-1.713,0
	C123.652,85.319,123.652,85.319,124.727,86.366z"/>
<path class="stroke" fill="#58281d"  fill-rule="evenodd" clip-rule="evenodd" d="M101.821,93.532c-0.731,0.105-1.145,0.165-1.58,0.229
	c-0.016-0.343-0.073-0.501-0.019-0.579C100.608,92.636,101.026,92.617,101.821,93.532z"/>
<path class="stroke" fill="#58281d"  fill-rule="evenodd" clip-rule="evenodd" d="M101.896,100.097c-0.112-0.484-0.224-0.968-0.389-1.684
	c1.187,0.37,1.438,0.812,0.972,1.533C102.284,99.996,102.09,100.046,101.896,100.097z"/>
<path class="stroke" fill="#58281d"  fill-rule="evenodd" clip-rule="evenodd" d="M165.581,88.879c-0.796,1.082-1.1,0.666-1.56-0.317
	C164.744,88.709,165.162,88.794,165.581,88.879z"/>
<path class="stroke" fill="#58281d"  fill-rule="evenodd" clip-rule="evenodd" d="M119.913,91.826c-0.428-0.091-0.856-0.182-1.483-0.314
	c0.764-1.014,1.203-0.874,1.609-0.32C119.997,91.403,119.955,91.615,119.913,91.826z"/>
<path class="stroke" fill="#58281d"  fill-rule="evenodd" clip-rule="evenodd" d="M131.587,91.238c1.193,0.349,1.242,0.818,0.272,1.649
	C131.737,92.151,131.662,91.694,131.587,91.238z"/>
<path class="stroke" fill="#58281d"  fill-rule="evenodd" clip-rule="evenodd" d="M140.145,85.65c-0.062-0.394-0.126-0.787-0.189-1.181
	c0.206-0.142,0.413-0.285,0.619-0.427c0.063,0.256,0.183,0.515,0.176,0.769c-0.008,0.285-0.129,0.567-0.201,0.85
	C140.414,85.657,140.279,85.654,140.145,85.65z"/>
<path class="stroke" fill="#58281d"  fill-rule="evenodd" clip-rule="evenodd" d="M145.756,89.966c0.73,0.032,1.167,0.051,1.604,0.07
	c-0.017,0.355,0.028,0.527-0.037,0.601C146.754,91.276,146.314,91.113,145.756,89.966z"/>
<path class="stroke" fill="#58281d"  fill-rule="evenodd" clip-rule="evenodd" d="M124.668,91.507c-0.033-0.642-0.055-1.044-0.077-1.478
	c0.28,0.041,0.445,0.015,0.532,0.085C125.661,90.549,125.736,90.963,124.668,91.507z"/>
<path class="stroke" fill="#58281d"  fill-rule="evenodd" clip-rule="evenodd" d="M94.94,102.32c-1.17,0.008-1.239-0.406-0.61-1.352
	C94.605,101.578,94.772,101.949,94.94,102.32z"/>
<path class="stroke" fill="#58281d"  fill-rule="evenodd" clip-rule="evenodd" d="M134.885,86.849c0.789,0.596,0.847,1.026,0.151,1.529
	C134.215,88.011,134.315,87.56,134.885,86.849z"/>
<path class="stroke" fill="#58281d"  fill-rule="evenodd" clip-rule="evenodd" d="M123.328,82.636c-1.291-0.588-1.154-0.971-0.373-1.598
	C123.078,81.564,123.162,81.924,123.328,82.636z"/>
<path class="stroke" fill="#58281d"  fill-rule="evenodd" clip-rule="evenodd" d="M117.606,81.297c0.371,0.033,0.743,0.066,1.271,0.114
	C118.375,82.446,117.971,82.15,117.606,81.297z"/>
<path class="stroke" fill="#58281d"  fill-rule="evenodd" clip-rule="evenodd" d="M94.745,96.196c-0.357-0.096-0.714-0.192-1.275-0.343
	C94.14,95.075,94.518,95.13,94.745,96.196z"/>
<path class="stroke" fill="#58281d"  fill-rule="evenodd" clip-rule="evenodd" d="M119.46,87.792c-1.151-0.239-0.901-0.764-0.077-1.746
	c0.053,0.258,0.138,0.514,0.148,0.774C119.545,87.114,119.491,87.411,119.46,87.792z"/>
<path class="stroke" fill="#58281d"  fill-rule="evenodd" clip-rule="evenodd" d="M162.166,82.96c0.725,0.207,1.068,0.304,1.411,0.402
	c-0.005,0.118-0.011,0.236-0.016,0.354c-0.276,0.06-0.568,0.2-0.823,0.149C162.588,83.836,162.496,83.506,162.166,82.96z"/>
<path class="stroke" fill="#58281d"  fill-rule="evenodd" clip-rule="evenodd" d="M145.72,77.964c0.021,0.363,0.044,0.727,0.075,1.264
	c-1.048-0.342-0.87-0.769-0.601-1.217C145.369,77.995,145.545,77.979,145.72,77.964z"/>
<path class="stroke" fill="#58281d"  fill-rule="evenodd" clip-rule="evenodd" d="M91.443,101.094c-0.104-0.524-0.177-0.899-0.278-1.415
	C92.133,100.247,92.133,100.247,91.443,101.094z"/>
<path class="stroke" fill="#58281d"  fill-rule="evenodd" clip-rule="evenodd" d="M110.312,99.158c-0.638,0.086-0.886,0.12-1.366,0.185
	c0.142-0.487,0.235-0.806,0.4-1.371C109.706,98.415,109.893,98.645,110.312,99.158z"/>
<path class="stroke" fill="#58281d"  fill-rule="evenodd" clip-rule="evenodd" d="M108.385,95.257c1.344,0.097,1.294,0.447,0.597,1.167
	C108.785,96.041,108.653,95.782,108.385,95.257z"/>
<path class="stroke" fill="#58281d"  fill-rule="evenodd" clip-rule="evenodd" d="M153.946,90.85c0.572-0.047,1.144-0.094,1.981-0.163
	c-0.942,1.423-1.41,0.277-1.983,0.161L153.946,90.85z"/>
<path class="stroke" fill="#58281d"  fill-rule="evenodd" clip-rule="evenodd" d="M96.428,98.383c0.015,0.253,0.029,0.507,0.044,0.76
	c-0.127,0.008-0.254,0.016-0.381,0.023c-0.023-0.253-0.046-0.506-0.069-0.759C96.156,98.399,96.292,98.391,96.428,98.383z"/>
<path class="stroke" fill="#58281d"  fill-rule="evenodd" clip-rule="evenodd" d="M66.176,101.659c-0.448-0.102-0.896-0.205-1.583-0.361
	c0.832-0.976,1.308-1.062,1.713-0.281C66.263,101.231,66.219,101.445,66.176,101.659z"/>
<path class="stroke" fill="#58281d"  fill-rule="evenodd" clip-rule="evenodd" d="M75.244,99.752c0.033-0.466,0.066-0.933,0.119-1.671
	c1.148,0.718,1.203,1.202,0.668,1.729C75.769,99.79,75.506,99.771,75.244,99.752z"/>
<path class="stroke" fill="#58281d"  fill-rule="evenodd" clip-rule="evenodd" d="M67.297,98.345c-0.708-0.186-1.17-0.308-2.064-0.542
	C66.759,97.281,66.759,97.281,67.297,98.345z"/>
<path class="stroke" fill="#58281d"  fill-rule="evenodd" clip-rule="evenodd" d="M71.775,101.71c0-0.314,0-0.628,0-1.072c0.427,0.02,0.786,0.037,1.195,0.057
	c-0.028,1.063-0.62,1.047-1.26,0.961C71.709,101.655,71.775,101.71,71.775,101.71z"/>
<path class="stroke" fill="#58281d"  fill-rule="evenodd" clip-rule="evenodd" d="M67.834,103.368c-0.761-0.354-1.129-0.526-1.8-0.838
	c0.657-0.309,1.021-0.479,1.514-0.71C67.635,102.289,67.691,102.594,67.834,103.368z"/>
<path class="stroke" fill="#58281d"  fill-rule="evenodd" clip-rule="evenodd" d="M72.737,98.947c-0.647-0.164-0.986-0.25-1.753-0.443
	c0.673-0.45,1.021-0.684,1.547-1.036C72.61,98.038,72.65,98.327,72.737,98.947z"/>
<path class="stroke" fill="#58281d"  fill-rule="evenodd" clip-rule="evenodd" d="M73.733,93.775c-0.377-0.124-0.754-0.247-1.131-0.371
	c0.041-0.171,0.081-0.343,0.121-0.514c0.396,0.063,0.79,0.125,1.185,0.188C73.85,93.311,73.791,93.543,73.733,93.775z"/>
<path class="stroke" fill="#58281d"  fill-rule="evenodd" clip-rule="evenodd" d="M78.593,96.416c1.073-0.922,1.404-0.64,1.829,0.353
	C79.73,96.636,79.328,96.558,78.593,96.416z"/>
<path class="stroke" fill="#58281d"  fill-rule="evenodd" clip-rule="evenodd" d="M73.936,96.188c0.728,0,1.084,0,1.441,0c0.023,0.113,0.047,0.226,0.07,0.339
	c-0.248,0.108-0.495,0.292-0.745,0.297C74.541,96.828,74.374,96.568,73.936,96.188z"/>
<path class="stroke" fill="#58281d"  fill-rule="evenodd" clip-rule="evenodd" d="M78.089,98.271c0.337,0,0.674,0,1.011,0c0.011,0.124,0.021,0.248,0.032,0.373
	c-0.339,0.045-0.677,0.091-1.016,0.137C78.107,98.61,78.099,98.44,78.089,98.271z"/>
<path class="stroke" fill="#58281d"  fill-rule="evenodd" clip-rule="evenodd" d="M75.39,110.293c-0.667-0.133-1.072-0.214-1.506-0.301
	c0.106-0.319,0.108-0.486,0.189-0.544C74.607,109.063,75.033,109.093,75.39,110.293z"/>
<path class="stroke" fill="#58281d"  fill-rule="evenodd" clip-rule="evenodd" d="M69.065,112.351c-0.425-0.063-0.768-0.114-1.186-0.176
	C68.658,111.243,68.658,111.243,69.065,112.351z"/>
<path class="stroke" fill="#58281d"  fill-rule="evenodd" clip-rule="evenodd" d="M72.385,107.942c-0.643-0.124-1.012-0.195-1.698-0.328
	C71.549,106.851,71.932,106.85,72.385,107.942z"/>
<path class="stroke" fill="#58281d"  fill-rule="evenodd" clip-rule="evenodd" d="M61.515,83.824c0.8-0.064,1.215-0.098,1.701-0.138
	C62.756,84.922,62.756,84.922,61.515,83.824z"/>
<path class="stroke" fill="#58281d"  fill-rule="evenodd" clip-rule="evenodd" d="M65.406,82.128c0.332,0.038,0.664,0.076,0.996,0.114
	c-0.019,0.146-0.038,0.291-0.057,0.437c-0.331-0.045-0.662-0.09-0.992-0.136C65.371,82.404,65.389,82.266,65.406,82.128z"/>
<path fill-rule="evenodd" clip-rule="evenodd" fill="#e3a13b" class="fill" d="M137.344,128.327c-1.055,0.44-1.529,0.638-2.004,0.836
	c-0.019,0.129-0.037,0.259-0.056,0.388c0.762,0.239,1.524,0.479,2.372,0.745c-0.633,1.972-2.577,1.495-3.889,2.168
	c0.293,1.351,1.55,0.534,2.396,1.255c-0.559,0.462-1.024,1.138-1.619,1.282c-1.572,0.382-2.629,1.404-3.679,2.484
	c-0.989,1.018-1.96,2.055-3.022,3.17c-0.919-0.884-1.619-1.865-3.123-1.305c-0.548,0.459-1.271,1.066-2.068,1.733
	c-1.52-1.396-3.097-1.33-4.66-0.153c-0.725-0.431-1.365-0.812-2.138-1.272c-1.967,0.157-3.923,0.502-5.516,2.062
	c-0.611,0.599-1.46,0.957-1.818,1.183c-3.979-0.464-7.465-0.347-11.499,0.31c-1.483-0.046-2.042-2.268-3.71-3.083
	c0.833-0.08,1.665-0.16,2.525-0.242c-1.001-1.305-2.423-1.429-4.731-0.393c0.114,0.356,0.232,0.724,0.389,1.21
	c-0.6,0.353-1.223,0.72-1.954,1.15c-0.536-0.62-1.008-1.166-1.677-1.94c-1.189,0.183-2.508,0.385-4.002,0.615
	c-0.312-0.21-0.819-0.552-1.543-1.039c-1.239,0.222-2.63,0.47-4.014,0.717c-2.175-2.313-3.806-2.58-6.945-1.132
	c-0.768-0.404-1.547-0.812-2.591-1.36c-1.077,0.537-2.272,1.132-3.505,1.747c-1.192-0.601-2.455-1.235-4.069-2.047
	c-2.253-2.402-1.366-6.615,2.429-9.357c4.412,0.989,8.721,0.691,12.229-2.336c3.883,0.328,6.234-2.244,9.347-3.878
	c0.147,0.013,0.636-0.022,1.08,0.103c4.144,1.169,8.397,1.204,12.625,0.997c2.716-0.133,5.399-0.844,8.106-1.237
	c2.303-0.334,4.623-0.852,6.925-0.799c2.297,0.052,4.643,0.499,6.856,1.15c4.58,1.348,9.1,2.91,13.614,4.473
	C135.322,126.847,136.104,127.553,137.344,128.327z M93.344,127.423c-3.091-2.156-6.035-2.561-9.098-0.234
	c0.706,0.86,1.354,0.608,2.066,0.255c1.579-0.781,3.251-0.934,4.678,0.166c1.797,1.385,3.382,1.144,5.114-0.199
	c0.154-0.484,0.33-1.04,0.625-1.967C95.421,126.209,94.457,126.772,93.344,127.423z M112.669,138.722
	c-0.47-0.109-0.704-0.248-0.853-0.185c-1.605,0.679-3.071,0.199-4.547-0.449c-0.748-0.328-1.533-0.684-2.328-0.764
	c-1.817-0.183-3.714-0.494-5.188,1.062c-0.121,0.128-0.134,0.359-0.234,0.649c0.287,0.17,0.556,0.329,0.78,0.462
	c0.617-0.404,1.128-0.739,1.527-1.001c1.873-0.294,3.497-0.153,5.078,0.784c0.856,0.507,1.923,0.722,2.924,0.906
	C110.967,140.394,111.949,140.046,112.669,138.722z M123.509,133.932c-0.464,0-0.95-0.153-1.216,0.024
	c-1.78,1.191-3.273,0.532-4.908-0.43c-1.931-1.137-3.939-0.738-5.779,0.402c-0.314,0.194-0.424,0.718-0.61,1.057
	c0.94,0.798,1.395,0.034,1.918-0.294c1.352-0.848,2.687-0.802,4.036-0.023c0.53,0.305,1.031,0.678,1.59,0.913
	C120.463,136.391,122.042,135.874,123.509,133.932z M74.281,135.536c-2.195,1.328-4.388,0.958-6.615,0.402
	c-1.06-0.264-2.152-0.417-3.239-0.55c-1.247-0.153-1.449,0.005-2.083,1.447c2.357-0.448,4.492,0.173,6.668,0.721
	c1.079,0.271,2.308,0.104,3.443-0.05C73.436,137.374,74.174,136.766,74.281,135.536z M61.385,133.249
	c0.271,0.192,0.547,0.513,0.681,0.462c2.079-0.793,3.956-0.229,5.896,0.594c0.73,0.31,1.735,0.07,2.593-0.065
	c0.355-0.056,0.652-0.492,1.104-0.86c-0.435-0.174-0.643-0.346-0.789-0.304c-1.482,0.423-2.811-0.01-4.162-0.587
	c-0.676-0.289-1.463-0.466-2.193-0.447C63.407,132.071,62.181,132.002,61.385,133.249z M94.166,131.175
	c1.052,0.444,2.068,1.058,3.164,1.285c1.099,0.228,2.226-0.041,2.993-1.361c-0.998,0-1.793,0-2.55,0
	c-2.759-1.573-5.256-1.411-6.473,0.422C92.242,132.491,93.037,131.37,94.166,131.175z M131.17,131.638
	c-2.091-1.148-4.217-1.886-6.535-0.599C126.799,131.418,128.905,132.239,131.17,131.638z M127.208,124.638
	c-1.508-0.343-2.812-0.637-4.116-0.938c-1.165-0.269-2.214-0.161-3.173,0.897c0.344,0.217,0.597,0.504,0.761,0.46
	c1.319-0.354,2.506,0.116,3.755,0.411C125.355,125.686,126.453,125.803,127.208,124.638z M130.24,136.267
	c-2.501-1.605-4.714-1.478-6.652,0.278c0.204,0.171,0.416,0.494,0.591,0.474C126.136,136.807,128.086,136.543,130.24,136.267z
	 M75.783,134.774c1.36,1.02,2.437,0.164,3.491,0.07c1.057-0.094,2.097-0.359,3.145-0.549
	C80.186,133.233,78.146,133.609,75.783,134.774z M100.842,128.254c1.6,1.412,3.062,1.273,3.709,0
	C103.301,128.254,102.071,128.254,100.842,128.254z M133.095,128.302c-2.155-0.473-2.766-0.443-3.719,0.125
	C130.677,129.62,131.567,129.627,133.095,128.302z M63.76,129.681c1.544,1.512,1.923,1.564,3.537,0.516
	C66.122,129.928,65.214,129.1,63.76,129.681z M106.318,124.456c1.641,1.39,1.933,1.361,2.613,0
	C108.16,124.456,107.436,124.456,106.318,124.456z M98.625,136.825c-1.623-1.349-1.623-1.349-2.554-0.217
	C96.884,136.677,97.529,136.731,98.625,136.825z"/>
<path fill-rule="evenodd" clip-rule="evenodd" fill="#e3a13b" class="fill" d="M92.117,55.89c1.799,1.14,2.114-0.846,3.299-1.294
	c0.498,2.484-0.547,4.64-1.271,6.931c0.365,0.219,0.698,0.419,1.118,0.67c0.636-0.525,1.246-1.029,2.078-1.716
	c0.448,2.671-2.155,4.164-1.866,6.633c0.571,0.164,1.199,0.344,1.957,0.562c0.162,1.65-0.829,2.87-1.602,4.273
	c-0.961-0.502-1.232-1.278-1.443-2.165c-0.981-4.116-2.015-8.221-3.015-12.333c-0.268-1.104-0.483-2.219-1.124-3.391
	c-0.174,0.364-0.534,0.754-0.49,1.09c0.203,1.549,0.427,3.107,0.814,4.619c1.097,4.285,2.277,8.548,3.201,13.069
	c-0.852-0.77-1.69-1.554-2.559-2.306c-1.021-0.885-2.028-1.794-3.113-2.596c-0.988-0.731-2.105-1.288-3.102-2.009
	c-0.58-0.42-1.033-1.014-1.743-1.732c2.167-0.512,3.569,1.325,5.327,0.906c0.634-0.629,0.361-1.095-0.17-1.566
	c-1.177-1.043-2.354-2.086-3.49-3.173c-0.469-0.45-0.831-1.012-1.023-1.855c1.361,0.446,2.722,0.893,4.083,1.34
	c0.102-0.13,0.203-0.261,0.305-0.392c-1.178-2.939-4.132-4.878-4.826-8.208c1.927-0.444,3.036,2.251,5.228,1.473
	c-0.334-2.612-2.729-4.501-2.479-7.542c0.423,0.423,0.72,0.629,0.894,0.912c0.72,1.163,1.354,2.382,2.119,3.512
	c0.344,0.508,0.923,0.857,1.662,1.516c0.544-1.454,0.957-2.558,1.516-4.049C93.641,50.306,91.888,53.022,92.117,55.89z"/>
<path fill-rule="evenodd" clip-rule="evenodd" fill="#e3a13b" class="fill" d="M122.658,60.156c-0.286,0.485-0.461,1.125-0.88,1.428
	c-1.259,0.912-2.478,1.918-4.104,2.203c-1.602,0.28-2.952,1.119-4.581,2.104c1.102,0.644,1.806,0.613,2.59,0.2
	c1.262-0.665,2.559-1.264,3.554-1.75c1.704,0.192,3.043,0.343,4.727,0.533c-1.993,1.38-4.448,0.312-6.267,1.993
	c1.345,0.988,2.514,1.847,4.029,2.96c-1.383,0.428-2.341,0.386-3.314,0.123c-1.123-0.304-2.234-0.668-3.374-0.889
	c-0.514-0.1-1.081,0.083-1.898,0.164c0.871,1.308,1.528,2.293,2.185,3.279c-0.1,0.138-0.198,0.275-0.297,0.412
	c-1.211-0.5-2.393-1.098-3.642-1.471c-1.155-0.346-2.258-1.75-3.797-0.392c0.4,0.505,0.719,0.905,1.249,1.573
	c-2.484-0.306-4.727-0.582-6.968-0.858c2.908-2.53,6.357-3.637,9.953-4.464c-2.386-0.859-4.568-0.036-6.705,0.739
	c-2.091,0.759-4.104,1.729-6.643,2.816c0.493-1.282,0.656-2.177,1.13-2.854c1.643-2.349,3.36-4.646,5.119-6.909
	c0.61-0.785,1.428-1.41,2.149-2.108c0.145,0.091,0.288,0.181,0.432,0.272c-0.618,1.606-1.237,3.213-1.861,4.833
	c0.812,0.783,1.324,0.362,1.982-0.145c1.723-1.327,3.51-2.572,5.304-3.805c0.354-0.243,0.851-0.281,1.526-0.489
	c-0.335,1.833-1.673,2.828-2.371,4.229c1.146,0.97,1.984,0.199,2.662-0.486c2.14-2.16,4.984-2.687,7.648-3.644
	C122.35,59.887,122.504,60.021,122.658,60.156z"/>
<path fill-rule="evenodd" clip-rule="evenodd" fill="#e3a13b" class="fill" d="M44.952,91.501c-2.974,2.957-7.19,4.047-9.67,7.522
	c3.701-2.259,7.402-4.518,11.366-6.937c0.255,1.352,0.47,2.493,0.684,3.634c-0.141,0.093-0.28,0.187-0.421,0.28
	c-0.718-0.534-1.436-1.067-2.213-1.646c-1.418,0.209-1.438,1.399-1.602,2.455c-0.263,1.685-0.396,3.403-1.615,5.082
	c-0.55-1.151-1.029-2.153-1.531-3.202c-1.835,0.439-1.933,2.089-2.5,3.31c-0.562,1.209-0.896,2.526-1.359,3.885
	c-2.04-0.835-1.687-2.969-3.021-4.238c-1.973,1.696-2.688,4.434-4.983,5.979c-0.416-1.652,0.551-2.649,1.116-3.765
	c0.452-0.894,1.182-1.743,0.304-2.88c-1.402,0.392-2.825,0.79-4.249,1.188c-0.062-0.133-0.126-0.266-0.188-0.399
	c2.06-1.287,4.119-2.574,6.301-3.938c0.035-0.188,0.094-0.508,0.176-0.951c-1.36-0.336-2.654-0.656-3.949-0.976
	c0.004-0.157,0.006-0.314,0.01-0.471c2.96-0.564,5.974-0.722,9.099-0.812c0.107-0.374,0.208-0.725,0.349-1.212
	c-0.931-0.302-1.75-0.567-2.568-0.832C37.906,91.561,41.438,91.847,44.952,91.501z"/>
<path fill-rule="evenodd" clip-rule="evenodd" fill="#e3a13b" class="fill" d="M104.755,86.574c0.221,1.952,0.387,3.419,0.599,5.297
	c-3.057-2.165-2.443-5.491-3.571-8.108c-2.439,0.372-1,3.234-2.902,3.889c-1.19-2.538-0.127-5.478-1.116-7.978
	c-1.296-0.113-1.351,0.73-1.638,1.413c-0.253,0.603-0.637,1.15-1.073,1.917c-0.131-1.282,1.385-7.007,2.267-8.757
	c0.399,0.669,0.765,1.283,1.131,1.897c0.2-0.124,0.399-0.247,0.6-0.37c0.107-0.386,0.214-0.772,0.361-1.304
	c0.504,0.039,1.082,0.082,1.805,0.137c-0.188,0.556-0.329,0.971-0.485,1.433c2.285,1.414,5.217,0.322,7.675,2.121
	c-0.99,0.712-1.762,1.268-2.856,2.055c2.268,1.034,4.677,0.814,6.557,2.247c-1.526,1.467-3.766,0.428-5.381,1.651
	c1.403,1.919,3.819,2.745,4.466,5.265C108.59,89.54,107.302,86.915,104.755,86.574z"/>
<path fill-rule="evenodd" clip-rule="evenodd" fill="#e3a13b" class="fill" d="M86.374,75.979c0.241,1.215,1.149,0.677,1.769,0.585
	c1.199-0.177,2.376-0.51,4.05-0.888c-1.479,2.284-2.692,4.159-3.906,6.033c-0.118-0.056-0.237-0.111-0.355-0.167
	c0-0.854,0-1.709,0-2.621c-0.957-0.451-1.425,0.095-1.764,0.809c-0.499,1.05-0.925,2.134-1.428,3.182
	c-0.345,0.72-0.767,1.402-1.089,1.983c-2.08,0.228-1.644-1.723-2.744-2.586c-2.643,1.368-2.187,4.369-3.438,7.03
	c-0.227-1.654-0.388-2.828-0.604-4.406c-2.233,1.308-3.287,3.638-5.681,4.01c0.363-2.027,0.866-2.535,4.584-4.657
	c-0.15-0.32-0.308-0.652-0.464-0.984c-0.909,0-1.728,0-2.545,0c-0.733,0-1.467,0-2.696,0c0.681-0.614,0.949-1.03,1.318-1.16
	c2.116-0.746,4.258-1.417,6.387-2.128c0.747-0.25,1.481-0.536,2.33-0.846c-1.049-1.971-3.161-0.499-4.316-1.807
	c1.121-1.049,2.465-1.075,3.813-1.156c2.18-0.13,4.355-0.317,6.533-0.479C86.211,75.811,86.293,75.895,86.374,75.979z"/>
<path fill-rule="evenodd" clip-rule="evenodd" fill="#e3a13b" class="fill" d="M46.994,88.825c-2.387-1.142-4.397-2.104-6.768-3.238
	c-0.107-0.147-0.458-0.63-0.928-1.277c1.879-0.647,3.198,0.801,4.733,0.88c0.774-0.965,0.122-1.498-0.488-2.089
	c-1.272-1.231-2.522-2.487-3.757-3.757c-0.218-0.224-0.314-0.564-0.645-1.183c1.068,0.231,1.817,0.395,2.61,0.566
	c0.742-0.87,0.332-1.643-0.039-2.458c-0.723-1.585-1.642-3.112-1.859-5.42c1.507,1.783,2.7,3.195,4.049,4.79
	c0.45-0.75,0.74-1.232,1.27-2.115c0.239,1.122,0.395,1.854,0.56,2.628c1.275,0.792,1.742-0.527,2.828-1.165
	c-0.213,1.957-0.403,3.723-0.63,5.81c0.923-0.06,1.66-0.107,2.513-0.162c-0.083,2.002-1.1,3.828-1.579,5.923
	c0.231,0.302,0.513,0.668,0.904,1.177c-0.244,0.431-0.522,0.923-0.801,1.414c-0.136-0.009-0.271-0.018-0.405-0.027
	c-0.289-1.148-0.541-2.307-0.877-3.44c-0.329-1.11-0.761-2.189-1.114-3.292c-0.34-1.061-0.084-2.406-1.188-3.088
	c-0.189,0.067-0.379,0.134-0.567,0.201C45.518,82.503,46.219,85.505,46.994,88.825z"/>
<path fill-rule="evenodd" clip-rule="evenodd" fill="#e3a13b" class="fill" d="M60.695,93.094c-1.982-0.106-1.296,1.595-2.157,2.238
	c-1.43-1.061-1.289-3.3-3.21-4.274c-0.422,0.54-0.847,1.084-1.373,1.758c-1.132-0.638-2.283-1.288-3.603-2.031
	c2.106-1.521,4.273-0.208,6.285-1.051c-1.205-0.3-2.41-0.6-3.878-0.965c1.521-1.964,3.406-2.932,5.706-3.377
	c-0.396,0.574-0.789,1.148-1.403,2.043c2.678,0.445,5.349-0.771,7.588,0.843c-1.041,0.57-2.022,1.108-2.995,1.641
	c0.528,1.339,1.589,1.187,2.37,1.316c2.312,0.382,3.666,1.904,5.154,3.812c-2.303,0.195-3.919-2.053-6.098-1.183
	c-0.187,1.167,1.232,2.222-0.195,3.236C62.145,95.742,61.405,94.392,60.695,93.094z"/>
<path fill-rule="evenodd" clip-rule="evenodd" fill="#e3a13b" class="fill" d="M77.287,69.997c-2.255,0.783-4.372,1.519-6.64,2.306
	c0.075-2.056,2.704-2.021,3.284-4.012c-1.277-0.082-2.423-0.155-3.982-0.255c2.297-1.57,4.731-1.77,6.839-2.773
	c0.351-1.781-1.697-1.022-2.092-2.142c1.879-0.251,3.705-0.78,5.661-0.011c0.086,0.638,0.175,1.303,0.259,1.931
	c0.381,0.612,0.736,1.185,1.149,1.85c-1.804,1.114-3.922-0.673-5.881,0.778c1.958,1.26,4.043,0.627,5.966,1.306
	c-0.179,0.485-0.354,0.964-0.531,1.441c-0.978,0.323-1.881,0.621-2.915,0.962C78.105,71.008,77.787,70.615,77.287,69.997z"/>
<path fill-rule="evenodd" clip-rule="evenodd" fill="#e3a13b" class="fill" d="M59.265,77.05c-0.343-0.263-0.55-0.422-0.848-0.65
	c0.476-1.292,1.317-2.247,2.972-3.074c-0.582,1.25-0.995,2.137-1.41,3.026c1.492,1.486,2.865-0.397,4.396,0.007
	c0.183,0.655-0.145,1.12-0.651,1.486c-1.254,0.907-2.478,1.87-3.802,2.663c-1.272,0.763-2.656,1.342-4.131,2.071
	c-0.002-1.154,0.819-1.92,1.368-2.768C57.749,78.899,58.473,78.075,59.265,77.05z"/>
<path fill-rule="evenodd" clip-rule="evenodd" fill="#e3a13b" class="fill" d="M87.877,88.412c1.432,0.271,2.541,0.48,3.949,0.746
	c-0.723,1.555-1.359,2.925-2.065,4.445c-1.214-0.543-2.226-0.995-3.436-1.536C86.89,90.737,87.352,89.649,87.877,88.412z"/>
<path fill-rule="evenodd" clip-rule="evenodd" fill="#e3a13b" class="fill" d="M86.416,102.486c-1.302-0.421-2.435-0.787-3.833-1.238
	c0.362-1.124,0.681-2.107,1.069-3.311c1.396,0.457,2.585,0.846,3.98,1.303C87.206,100.378,86.84,101.355,86.416,102.486z"/>
<path fill-rule="evenodd" clip-rule="evenodd" fill="#e3a13b" class="fill" d="M86.129,75.726c-0.305-0.387-0.533-0.916-0.931-1.132
	c-0.947-0.517-1.974-0.885-3.401-1.5c2.026-0.985,3.528,0.15,5.047,0.156c1.571,0.006,3.141,0.472,4.668,1.045
	c-1.713,0.561-3.425,1.123-5.138,1.684C86.293,75.895,86.211,75.811,86.129,75.726z"/>
<path fill-rule="evenodd" clip-rule="evenodd" fill="#e3a13b" class="fill" d="M89.224,94.917c-0.349,0.953-0.665,1.818-1.083,2.962
	c-1.279-0.476-2.436-0.907-3.8-1.415c0.501-1.051,0.893-1.875,1.34-2.814C86.902,94.087,87.97,94.469,89.224,94.917z"/>
<path fill-rule="evenodd" clip-rule="evenodd" fill="#e3a13b" class="fill" d="M79.529,110.519c0.361-1.269,0.63-2.212,0.916-3.219
	c1.277,0.196,2.396,0.368,3.664,0.562c-0.204,1.155-0.385,2.248-1.722,2.856C81.631,110.665,80.77,110.605,79.529,110.519z"/>
<path fill-rule="evenodd" clip-rule="evenodd" fill="#e3a13b" class="fill" d="M55.829,76.559c0.628,0.456,1.067,0.773,1.591,1.153
	c-1.42,2.132-2.83,4.248-4.24,6.365C53.168,81.252,54.271,78.912,55.829,76.559z"/>
<path fill-rule="evenodd" clip-rule="evenodd" fill="#e3a13b" class="fill" d="M81.924,102.693c1.43,0.398,2.521,0.701,3.837,1.067
	c-0.312,0.914-0.562,1.646-0.816,2.388c-1.38,0.163-2.659,0.457-3.804-0.822C81.371,104.552,81.613,103.737,81.924,102.693z"/>
<path fill-rule="evenodd" clip-rule="evenodd" fill="#e3a13b" class="fill" d="M55.507,102.71c-0.444-0.806-0.828-1.501-1.361-2.47
	c1.068-0.269,1.933-0.486,2.951-0.742c0.436,0.825,0.803,1.521,1.32,2.5C57.352,102.259,56.484,102.471,55.507,102.71z"/>
<path fill-rule="evenodd" clip-rule="evenodd" fill="#e3a13b" class="fill" d="M62.001,109.09c0.469,1.045,0.794,1.769,1.188,2.647
	c-0.591,0.298-1.094,0.551-1.791,0.903c-0.446-0.779-0.829-1.448-1.342-2.343C60.692,109.902,61.213,109.579,62.001,109.09z"/>
<path fill-rule="evenodd" clip-rule="evenodd" fill="#e3a13b" class="fill" d="M62.197,114.004c0.381-0.287,0.788-0.593,1.41-1.062
	c0.408,1.046,0.756,1.94,1.115,2.862C63.059,116.184,63.059,116.184,62.197,114.004z"/>
<path fill-rule="evenodd" clip-rule="evenodd" fill="#e3a13b" class="fill" d="M59.359,108.959c-0.346-0.831-0.565-1.358-0.842-2.02
	c0.684-0.34,1.248-0.622,1.92-0.957c0.337,0.682,0.593,1.201,0.939,1.904C60.732,108.229,60.18,108.523,59.359,108.959z"/>
<path fill-rule="evenodd" clip-rule="evenodd" fill="#e3a13b" class="fill" d="M58.891,103.147c0.381,0.635,0.653,1.089,1.055,1.758
	c-0.82,0.236-1.5,0.432-2.33,0.671c-0.367-0.482-0.715-0.939-1.219-1.601C57.314,103.671,57.999,103.444,58.891,103.147z"/>
<path fill-rule="evenodd" clip-rule="evenodd" fill="#e3a13b" class="fill" d="M79.152,113.394c0-0.644,0-0.897,0-1.286c0.6,0,1.157,0,1.714,0
	c0.042,0.099,0.083,0.197,0.124,0.296C80.471,112.683,79.952,112.963,79.152,113.394z"/>
</svg>
