<svg version="1.1" id="svg" xmlns="http://www.w3.org/2000/svg" xmlns:xlink="http://www.w3.org/1999/xlink" x="0px" y="0px"
	 width="200px" height="200px" viewBox="0 0 200 200" enable-background="new 0 0 200 200" xml:space="preserve">
<path class="stroke" fill="#205165"  d="M129.457,105.181c0.362-4.203,0.931-8.377,0.593-12.609c-0.035-0.448,0.068-0.908,0.103-1.287
	c0.739-0.459,1.371-0.852,2.077-1.291c-0.126-0.613-0.216-1.121-0.333-1.623c-1.046-4.471-2.751-8.711-4.599-12.891
	c-0.708-1.601-1.507-3.201-2.52-4.62c-2.855-4.007-6.679-6.656-11.547-7.705c-0.615-0.132-1.204-0.384-1.896-0.608
	c0.062-1.88-1.51-3.739,0.396-5.524c4.052,1.3,8.166,1.582,12.646,1.831c-0.186-0.793-0.18-1.374-0.441-1.784
	c-0.96-1.502-1.232-3.159-1.221-4.876c0.013-1.929,0.143-3.858,0.174-5.787c0.104-6.187,0.902-12.465-2.414-18.253
	c0.405-0.614,0.752-1.228,1.184-1.776c1.411-1.798,2.857-3.568,4.281-5.356c0.507-0.635,1.102-1.243,0.93-2.115
	c-0.837-0.981-1.598-1.944-2.433-2.84c-2.456-2.635-5.157-4.958-8.56-6.3c-1.961-0.774-3.934-1.529-5.936-2.182
	c-4.361-1.423-8.812-2.154-13.266-0.562c-3.064,1.095-6.373,1.541-9.176,3.355c-0.194,0.125-0.422,0.207-0.643,0.285
	c-2.151,0.765-3.906,2.063-5.383,3.808c-1.158,1.368-1.773,2.74-0.781,4.462c0.32,0.555,0.537,1.17,0.79,1.763
	c1.146,2.686,2.288,5.375,3.357,7.888c-0.588,1.181-1.16,2.14-1.558,3.167c-1.536,3.974-2.294,8.106-2.351,12.365
	c-0.058,4.407-0.627,8.757-1.387,13.09c-0.208,1.188-0.319,2.395-0.517,3.907c0.962-0.053,1.666,0.046,2.274-0.154
	c1.327-0.438,2.606-1.023,3.903-1.556c1.669-0.687,3.335-1.381,5.18-2.146c1.448,2.26,0.289,4.366,0.184,6.435
	c-1.642,0.658-3.234,1.121-4.654,1.899c-3.785,2.078-7.254,4.601-10.418,7.576c-4.135,3.89-7.477,8.379-10.418,13.189
	c-0.854,1.394-1.521,2.904-2.221,4.385c-0.318,0.674-0.592,1.405-0.038,2.329c0.971-0.196,1.956-0.395,3.08-0.622
	c-0.251,1.539-0.423,2.92-0.708,4.279c-0.654,3.131,1.468,6.251,4.29,7.183c1.938,0.64,3.873,0.864,5.886,0.517
	c0.6-0.104,1.219-0.102,1.971-0.158c0,2.67,0.133,5.124-0.031,7.557c-0.229,3.387-0.586,6.772-1.061,10.135
	c-0.571,4.057-1.334,8.085-1.984,12.131c-0.127,0.782-0.121,1.586-0.19,2.606c1.449,0,2.688,0,3.976,0
	c-0.145,1.966-0.349,3.709-0.389,5.456c-0.145,6.212-0.257,12.424-0.34,18.637c-0.086,6.505-0.102,13.011-0.197,19.516
	c-0.032,2.214-0.217,4.427-0.33,6.596c-3.012,1.579-6.335,2.755-5.694,6.913c0.933,1.18,1.98,1.551,3.243,1.341
	c1.73-0.287,3.454-0.63,5.193-0.865c2.473-0.333,4.792-1.071,6.934-2.358c0.948-0.57,1.906-1.124,2.708-1.595
	c1.176,0.19,2.139,0.346,2.981,0.482c1.906-2.264,2.237-3.047,2.313-5.546c0.098-3.222,0.134-6.445,0.258-9.666
	c0.151-3.981,0.231-7.972,0.587-11.937c0.435-4.841,1.131-9.657,1.04-14.535c-0.011-0.611,0.13-1.224,0.198-1.817
	c1.763,0,3.317,0,4.941,0c0.053,0.379,0.127,0.66,0.123,0.94c-0.016,2.345-0.059,4.69-0.07,7.035
	c-0.031,6.153-0.041,12.307-0.076,18.46c-0.023,4.1-0.095,8.2-0.1,12.301c0,0.905,0.192,1.812,0.316,2.898
	c1.474-0.193,2.717-0.357,3.868-0.508c0.924,1.707,1.766,3.242,2.589,4.786c1.027,1.926,2.606,3.098,4.718,3.639
	c2.533,0.648,5.45-1.115,5.851-3.683c0.298-1.904,0.564-3.82,0.148-5.762c-0.169-0.788-0.151-1.615-0.218-2.417
	c1.179-0.63,2.246-1.2,3.349-1.789c-0.082-0.894-0.15-1.646-0.221-2.397c-0.148-1.575-0.439-3.151-0.423-4.724
	c0.053-5.561,0.22-11.121,0.326-16.682c0.104-5.386,0.237-10.771,0.254-16.158c0.011-3.024-0.188-6.048-0.293-9.146
	c0.583-0.031,1.159-0.062,1.733-0.094c0.756-0.466,1.549-0.807,2.374-1.004c1.772-0.423,3.165-1.281,3.639-3.14
	c0.387-1.517,0.863-3.06,0.907-4.604c0.053-1.853-0.126-3.758-0.533-5.567C128.672,114.87,129.041,110.01,129.457,105.181z"/>
<path fill-rule="evenodd" clip-rule="evenodd" fill="#ffffff" class="fill" d="M115.519,113.273c0.695,1.006,0.695,1.006,4.707,0.315
	c0.035,0.57,0.07,1.122,0.117,1.883c-1.671,0.493-3.277,0.966-4.994,1.473c0.07,0.29,0.142,0.59,0.271,1.135
	c1.553-0.4,2.998-0.772,4.558-1.173c0.063,0.438,0.127,0.872,0.212,1.461c-1.731,0.627-3.407,1.236-5.159,1.871
	c0.091,0.394,0.162,0.702,0.297,1.285c1.596-0.556,3.059-1.065,4.694-1.635c0.034,0.661,0.063,1.212,0.103,1.955
	c-1.873,0.543-3.686,1.069-5.441,1.578c-0.129,0.745,0.144,1.115,0.72,1.016c1.032-0.178,2.051-0.453,3.064-0.724
	c0.542-0.145,1.062-0.368,1.808-0.632c0.054,0.863,0.091,1.479,0.142,2.283c-1.103,0.358-2.14,0.706-3.185,1.03
	c-0.669,0.208-1.376,0.322-2.013,0.599c-0.261,0.112-0.38,0.544-0.711,1.059c2.285,0.307,3.933-0.716,5.823-1.258
	c0.131,0.41,0.258,0.815,0.417,1.32c-1.612,0.929-3.271,1.449-4.95,1.922c-5.197,1.465-10.592,1.928-15.843,3.108
	c-3.703,0.832-7.436,0.764-11.188,0.765c-3.562,0.001-7.124,0.252-10.943,0.405c0-0.429-0.051-0.981,0.009-1.521
	c0.685-6.284,1.433-12.561,2.057-18.85c0.212-2.145,0.121-4.32,0.169-6.517c1.035-1.243,2.031-2.438,3.301-3.962
	c0.404,1.439,0.695,2.477,1.034,3.686c0.729,0.06,1.468,0.178,2.206,0.172c3.449-0.029,6.9-0.073,10.351-0.152
	c2.226-0.05,4.454-0.115,6.673-0.282c0.971-0.073,2.031-0.253,2.312-1.482c-1.294-4.391-2.674-8.735-3.265-13.355
	c0.916-0.793,1.795-1.553,2.747-2.375c-0.249-1.117-0.457-2.058-0.667-2.997c0.035-0.004,0.069-0.009,0.104-0.013
	c-0.238-1.289-0.477-2.579-0.714-3.869c-0.123-0.02-0.248-0.039-0.373-0.059c2.172-5.729,5.014-11.177,7.163-17.051
	c0.855,0.149,1.52,0.266,2.229,0.39c0.107,0.654,0.198,1.204,0.344,2.084c0.385-0.588,0.611-0.934,0.927-1.418
	c0.54,0.219,1.106,0.45,1.633,0.664c-0.062,1.074-1.45,1.596-0.794,2.949c0.695-0.83,1.311-1.566,1.985-2.374
	c0.979,0.572,1.706,0.996,2.616,1.528c-1.113,0.84-2.029,1.531-2.945,2.222c0.212,0.945,0.7,0.932,1.292,0.508
	c0.851-0.61,1.681-1.25,2.632-1.959c0.534,0.446,0.999,0.834,1.671,1.394c-1.403,0.851-2.587,1.569-3.875,2.351
	c0.013,0.18,0.032,0.443,0.058,0.812c1.797-0.067,2.895-1.337,4.415-2.15c0.315,0.539,0.616,1.055,1.01,1.726
	c-1.304,0.723-2.467,1.366-3.736,2.069c0.056,0.267,0.12,0.572,0.237,1.125c1.367-0.7,2.596-1.329,3.969-2.031
	c0.265,0.479,0.501,0.904,0.688,1.243c-0.724,1.654-2.825,1.628-3.774,3.261c2.037,0.462,2.83-1.085,4.31-1.628
	c0.22,0.727,0.425,1.406,0.686,2.268c-0.989,0.475-1.902,0.913-2.89,1.387c0.088,0.367,0.15,0.628,0.199,0.838
	c0.146,0.054,0.211,0.104,0.253,0.089c0.859-0.296,1.718-0.6,2.779-0.975c0.131,0.72,0.236,1.307,0.355,1.96
	c-1.05,0.406-1.944,0.751-2.918,1.128c0.201,0.388,0.301,0.58,0.433,0.832c0.88-0.163,1.727-0.318,2.687-0.495
	c0.044,0.474,0.081,0.855,0.109,1.152c-0.715,0.844-2.386,0.43-2.337,2.258c0.867-0.188,1.628-0.351,2.521-0.544
	c0.095,0.633,0.179,1.189,0.289,1.922c-1.199,0.647-2.361,1.275-3.672,1.982c-0.2-0.491-0.397-0.83-0.478-1.194
	c-0.42-1.944-0.917-3.882-1.176-5.85c-0.189-1.444-0.85-2.507-1.846-3.465c-1.004,0.034-1.105,0.697-1.103,1.452
	c0.006,1.574,0.002,3.147,0.002,4.906c-0.656,0.234-1.499,0.535-2.414,0.861c0.661,1.46,1.679,0.519,2.581,0.622
	c0,0.364,0,0.737,0,1.21c-1.366,0.353-2.702,0.698-3.992,1.03c-0.173,0.88,0.215,1.159,0.84,1.083
	c1.038-0.126,2.067-0.333,3.26-0.531c0,0.716,0,1.427,0,2.196c-1.382,0.322-2.78,0.647-4.204,0.98c0.044,0.401,0.068,0.62,0.1,0.895
	c1.394,0.321,2.669-0.172,4.183-0.478c0.084,0.828,0.161,1.587,0.249,2.43c-1.534,0.29-2.89,0.547-4.369,0.827
	c0.105,0.392,0.174,0.65,0.293,1.098c1.293-0.176,2.54-0.346,4.001-0.544c-0.042,0.721-0.076,1.328-0.117,2.049
	c-1.521,0.274-2.944,0.532-4.425,0.799c-0.083,1.058,0.505,1.259,1.29,1.178c0.973-0.099,1.939-0.249,3.024-0.392
	c0.041,0.68,0.072,1.187,0.118,1.934c-1.596,0.189-3.126,0.371-4.785,0.567c0.104,0.429,0.176,0.737,0.271,1.131
	c1.446-0.106,2.828-0.208,4.354-0.321c0,0.743,0,1.344,0,2.113c-1.555,0.298-3.078,0.59-4.651,0.892
	c0.034,1.084,0.68,1.155,1.442,1.033c0.973-0.155,1.941-0.326,3.117-0.524c0.046,0.688,0.081,1.228,0.126,1.872
	C118.604,112.509,117.147,112.87,115.519,113.273z M118.12,79.819c-3.631,0.478-7.308,0.963-10.83,1.428
	c-1.016,1.897-1.444,4.924-0.973,6.868c3.952-0.146,7.955-0.294,11.891-0.44C118.987,85.854,118.952,82.192,118.12,79.819z"/>
<path fill-rule="evenodd" clip-rule="evenodd" fill="#ffffff" class="fill" d="M108.153,142.371c-1.178,0.511-2.083,0.758-2.824,1.252
	c-2.4,1.598-4.975,1.474-7.622,0.984c-1.718-0.318-3.44-0.62-5.165-0.898c-0.699-0.113-1.281,0.09-1.599,1.082
	c0.379,0.604,0.711,1.473,1.323,2.039c1.069,0.989,1.316,2.185,1.256,3.499c-0.074,1.58-0.23,3.157-0.373,4.733
	c-0.462,5.016-0.953,10.03-1.396,15.048c-0.486,5.48-0.93,10.966-1.399,16.448c-0.014,0.167-0.101,0.329-0.173,0.553
	c-3.224-0.791-6.432-1.577-9.749-2.39c0.014-0.183,0.033-0.448,0.065-0.895c1.045,0.299,1.969,0.564,2.925,0.838
	c-0.118-1.018-0.118-1.018-2.913-2.323c0-0.289,0-0.616,0-1.148c0.988,0.289,1.896,0.554,2.826,0.826
	c0.054-0.97,0.054-0.97-2.863-2.443c-0.037-0.183-0.117-0.406-0.115-0.629c0.005-0.218,0.094-0.435,0.168-0.744
	c0.957,0.231,1.843,0.445,2.733,0.661c0.155-0.995,0.155-0.995-2.927-2.071c-0.038-0.393-0.082-0.869-0.128-1.349
	c1.159-0.45,2.259,0.842,3.303-0.207c-0.669-1.232-2.141-0.546-3.04-1.512c0-0.604,0-1.387,0-2.162
	c1.05-0.276,2.084,0.913,3.065-0.159c-0.65-1.4-2.252-0.502-3.209-1.59c-0.028-0.325-0.076-0.88-0.146-1.697
	c1.281,0.283,2.376,0.524,3.581,0.79c0.257-1.223-0.53-1.387-1.232-1.583c-0.673-0.186-1.358-0.322-2.18-0.513
	c-0.039-0.591-0.074-1.134-0.107-1.633c1.356-0.54,2.43,1.252,3.77,0.124c-0.951-1.24-2.57-0.924-3.654-1.899
	c0-0.352,0-0.788,0-1.258c1.129,0.142,2.15,0.27,3.214,0.404c0.441-1.243-0.423-1.187-1.051-1.341
	c-0.62-0.153-1.236-0.314-1.942-0.495c0-0.551,0-1.025,0-1.586c0.939,0.072,1.733,0.132,2.531,0.194
	c-0.014-0.898-0.014-0.898-2.24-1.611c0-0.63,0-1.292,0-2.111c0.599,0.132,1.035,0.262,1.48,0.316
	c0.388,0.047,0.785,0.01,1.304,0.01c-0.248-1.629-1.944-0.909-2.624-1.967c0.025-0.252,0.07-0.685,0.114-1.116
	c2.087,0.219,2.087,0.219,2.917-0.561c-0.999-0.332-1.885-0.624-2.912-0.965c0.045-0.53,0.085-1.005,0.132-1.548
	c1.224,0.243,2.265,0.451,3.307,0.658c0.053-0.152,0.106-0.304,0.159-0.456c-0.688-1.279-2.345-0.846-3.447-1.698
	c0-0.509,0-1.109,0-1.838c0.952,0.213,1.771,0.396,2.619,0.586c0.012-0.942,0.012-0.942-2.429-2.077
	c-0.015-0.259-0.033-0.578-0.06-1.03c1.215,0.181,2.317,0.346,3.793,0.565c-0.891-1.831-2.683-1.13-3.648-2.181
	c0.021-0.158,0.054-0.419,0.087-0.679c3.238,0.375,3.238,0.375,3.669-0.502c-1.125-0.306-2.232-0.606-3.409-0.926
	c0-0.596,0-1.143,0-1.885c1.152,0.391,2.132,0.725,3.192,1.085c0.497-0.742,0.074-1.164-0.547-1.461
	c-0.827-0.396-1.682-0.736-2.659-1.159c0.755-0.763,1.562-0.493,2.239-0.479c4.453,0.087,8.907,0.158,13.353,0.393
	c5.245,0.276,10.4-0.399,15.556-1.18c1.619-0.245,3.242-0.458,5.039-0.711c0.059,0.564,0.11,1.047,0.161,1.521
	c-1.349,0.53-2.574,1.013-3.831,1.507c0.314,1.325,1.034,0.868,1.664,0.688c0.613-0.175,1.227-0.349,1.934-0.551
	c0.083,0.379,0.142,0.643,0.225,1.019c-1.328,0.347-2.595,0.678-3.963,1.036c0.098,0.449,0.153,0.708,0.23,1.062
	c1.153-0.187,2.228-0.36,3.469-0.562c0.051,0.502,0.092,0.907,0.139,1.372c-1.223,0.31-2.527-0.045-3.484,1.174
	c0.893,1.393,2.236,0.049,3.404,0.566c0.037,0.291,0.091,0.708,0.154,1.208c-1.249,0.285-2.371,0.541-3.649,0.832
	c0.187,0.428,0.327,0.752,0.463,1.064c1.036-0.146,1.942-0.274,2.988-0.422c0,0.731,0,1.281,0,1.965
	c-1.013,0.268-2.004,0.53-3.093,0.818c0.051,0.346,0.089,0.61,0.143,0.987c0.983-0.096,1.887-0.183,2.922-0.283
	c0,0.601,0,1.085,0,1.608c-1.115,0.27-2.15,0.519-3.282,0.791c0.746,1.812,2.146,0.423,3.12,1.175c0,0.255,0,0.685,0,1.091
	c-0.874,0.173-1.652,0.327-2.556,0.507c0.178,0.486,0.289,0.787,0.404,1.102c0.718,0,1.352,0,2.12,0c0,0.591,0,1.136,0,1.661
	c-0.85,0.202-1.61,0.384-2.409,0.574c0.295,1.624,1.628,0.779,2.402,1.381c-0.019,0.289-0.042,0.661-0.068,1.07
	c-0.966,0.227-1.843,0.434-2.842,0.669c0.177,0.555,0.293,0.916,0.43,1.346c0.82-0.045,1.563-0.084,2.418-0.131
	c0,0.368,0,0.677,0,1.034c-0.967,0.212-1.864,0.408-2.997,0.656c0.257,0.561,0.455,0.993,0.623,1.358
	c0.867,0.121,1.6,0.222,2.329,0.324c0.021,0.125,0.039,0.251,0.057,0.376c-1.117,0.268-2.234,0.536-3.518,0.844
	c0.296,0.58,0.494,0.966,0.746,1.461c0.958-0.125,1.855-0.243,2.841-0.372c0,0.389,0,0.653,0,1.021
	c-0.933,0.306-1.859,0.61-2.979,0.977c0.254,0.572,0.449,1.009,0.657,1.479c0.826-0.196,1.501-0.357,2.307-0.548
	c0.106,0.391,0.201,0.744,0.339,1.251c-1.249,0.333-2.402,0.641-3.786,1.01c0.363,0.57,0.621,0.975,0.853,1.339
	c1.049-0.088,1.942-0.162,2.837-0.237c-0.761,1.714-2.73,0.759-3.698,2.156c0.174,0.312,0.384,0.685,0.596,1.061
	c1.106-0.178,2.093-0.336,3.08-0.495c-0.761,1.714-2.599,1.138-3.628,2.115c0.451,1.276,0.451,1.276,2.469,1.225
	c-1.003,0.327-1.804,0.587-2.704,0.88c0.157,0.416,0.271,0.719,0.417,1.104c1.193-0.154,2.322-0.299,3.681-0.474
	c-1.62,1.675-9.92,4.196-12.907,3.976c-0.036-0.86-0.121-1.761-0.107-2.661c0.077-4.92,0.187-9.839,0.271-14.76
	c0.09-5.208,0.013-10.426,0.302-15.623c0.182-3.235,0.314-6.589,2.357-9.415C108.267,143.52,108.153,143.163,108.153,142.371z"/>
<path fill-rule="evenodd" clip-rule="evenodd" fill="#ffffff" class="fill" d="M116.87,31.808c0.004,4.583,0.064,9.103-1.516,13.422
	c-0.962,2.632-1.919,5.282-3.12,7.808c-1.784,3.753-5.135,5.797-8.78,7.421c-0.16,0.071-0.336,0.162-0.5,0.154
	c-1.152-0.057-2.418,0.147-3.438-0.258c-5.675-2.254-9.377-6.267-10.329-12.448c-0.514-3.346-0.919-6.713-1.219-10.084
	c-0.172-1.906-0.031-3.84-0.031-5.922c6.256-0.206,10.766-2.996,13.908-8.313c1.008-0.068,2.078-0.141,3.131-0.212
	C107.389,28.629,111.102,31.701,116.87,31.808z M99.303,44.367c0.177-0.52,0.357-0.893,0.427-1.286
	c0.285-1.602,0.564-3.206,0.786-4.817c0.08-0.582-0.148-1.036-0.85-0.888c-0.712,2.829-1.413,5.612-2.114,8.401
	c3.456,2.49,5.913,2.486,8.256-0.126c-0.057-0.515-0.122-1.125-0.192-1.79c-0.562,0-0.946,0-1.339,0
	c-0.273,0.507-0.511,0.95-0.759,1.41C102.073,45.12,100.64,45.411,99.303,44.367z M98.301,36.329
	c-2.198-1.636-6.926-1.248-9.024,0.812c0.027,0.507,0.061,1.124,0.099,1.823c0.685,0.25,1.287,0.675,1.863,0.644
	c1.972-0.108,3.968-0.263,5.763-1.211C97.809,37.971,98.347,37.299,98.301,36.329z M113.828,38.661
	c-0.176-1.784-1.085-2.61-2.292-2.753c-1.598-0.189-3.26-0.177-4.854,0.044c-1.312,0.183-1.514,0.773-1.34,2.443
	c2.07,1.301,4.412,1.605,6.832,1.282C112.774,39.597,113.306,38.997,113.828,38.661z M96.41,51.101
	c0.806,2.159,2.224,3.332,4.217,3.537c1.884,0.194,3.052-0.912,4.074-2.271c0.354-0.469,0.548-0.925-0.328-1.407
	c-0.349,0.346-0.767,0.705-1.122,1.118c-1.533,1.782-3.126,1.764-4.684-0.074c-0.405-0.479-0.814-0.955-1.271-1.49
	C96.93,50.758,96.661,50.936,96.41,51.101z M89.409,34.469c1.064,0.776,1.596,0.056,2.228-0.26c1.193-0.599,2.374-1.253,3.628-1.687
	c0.731-0.254,1.597-0.127,2.54-0.18c-0.095-0.504-0.161-0.861-0.223-1.189C94.2,30.67,91.703,32.037,89.409,34.469z M113.025,33.698
	c-3.532-1.713-5.849-2.011-6.919-0.794c2.332,0.665,4.589,1.308,6.998,1.995C113.065,34.32,113.048,34.04,113.025,33.698z"/>
<path fill-rule="evenodd" clip-rule="evenodd" fill="#ffffff" class="fill" d="M116.011,25.746c-3.511-2.321-7.306-3.075-11.119-3.662
	c-1.168-0.18-2.473,0.016-3.625,0.35c-4.043,1.168-8.084,2.37-11.85,4.308c-0.249,0.128-0.539,0.177-0.843,0.274
	c-1.968-3.852-3.554-7.772-4.772-11.888c1.6-1.544,3.151-3.021,5.237-3.818c3.712-1.418,7.383-2.863,11.402-3.349
	c2.718-0.329,5.275-0.055,7.761,0.864c3.007,1.113,6.134,2.083,8.562,4.325c1.534,1.415,2.937,2.972,4.445,4.513
	C119.438,20.419,117.771,23.008,116.011,25.746z M106.196,21.1c0-0.758-0.009-1.218,0.003-1.677
	c0.014-0.483,0.049-0.966,0.074-1.433c1.253-0.136,2.28-0.249,3.438-0.375c0-1.523,0-2.898,0-4.542
	c-1.377-0.127-2.721-0.251-3.996-0.369c-0.263-0.951-0.489-1.771-0.753-2.725c-1.589,0.142-3.025,0.271-4.679,0.418
	c-0.229,1.065-0.441,2.053-0.685,3.192c-1.388,0.354-2.841,0.725-4.257,1.085c-0.704,1.487-0.382,2.696,0.493,3.954
	c1.159-0.058,2.306-0.114,3.484-0.173c0.399,1.131,0.762,2.151,1.169,3.303C102.406,21.537,104.181,21.332,106.196,21.1z"/>
<path fill-rule="evenodd" clip-rule="evenodd" fill="#ffffff" class="fill" d="M68.753,100.71c-0.231-1.515-0.61-3.005-0.625-4.499
	c-0.007-0.786,0.441-1.753,0.998-2.334c1.227-1.273,2.729-2.199,4.776-2.391c0.181,0.333,0.401,0.745,0.499,0.926
	c0.521,0.041,0.707,0.103,0.865,0.061c1.695-0.457,3.37-1.006,5.084-1.376c1.484-0.319,3.014-0.63,4.519-0.608
	c2.216,0.032,3.591-1.201,4.881-2.688c1.265-1.46,2.448-2.996,3.758-4.415c1.259-1.364,2.978-2.016,4.766-2.848
	c0.112,0.617,0.196,1.083,0.313,1.728c0.711-0.106,1.379-0.206,2.338-0.35c-0.155,0.828-0.294,1.561-0.458,2.434
	c0.704,0.094,1.399,0.187,2.337,0.312c-0.546,0.879-0.988,1.591-1.521,2.449c0.601,0.175,1.073,0.312,1.671,0.487
	c0.033,0.484,0.066,0.986,0.106,1.596c-0.943,0.468-1.809,0.948-2.714,1.336c-1.766,0.757-3.555,1.461-5.333,2.19
	c-1.677,0.688-3.396,1.29-5.017,2.093c-1.668,0.827-3.294,1.767-4.836,2.81c-2.645,1.79-5.463,3.137-8.535,4.019
	C73.904,102.423,71.453,101.522,68.753,100.71z"/>
<path fill-rule="evenodd" clip-rule="evenodd" fill="#ffffff" class="fill" d="M78.468,73.374c2.965,0.105,5.632,0.258,8.299,0.278
	c2.678,0.019,5.355-0.097,8.107-0.156c0.93,1.401,1.416,3.171,1.357,5.351c-0.885,0.442-1.857,0.93-2.83,1.416
	c-0.035-0.055-0.07-0.109-0.105-0.165c-0.276,0.3-0.61,0.566-0.82,0.907c-1.426,2.312-3.549,3.979-5.405,5.891
	c-1.232,1.269-2.751,1.661-4.656,1.469C81.118,83.444,79.819,78.506,78.468,73.374z"/>
<path fill-rule="evenodd" clip-rule="evenodd" fill="#ffffff" class="fill" d="M96.632,71.086c-0.631,0-1.082,0-1.64,0
	c-0.851-1.429-1.712-2.878-2.62-4.402c0.24-0.577,0.479-1.15,0.752-1.81c5.353,1.068,10.071-0.215,14.424-3.53
	c0.466,1.223,0.852,2.235,1.213,3.183c-1.905,5.219-3.788,10.378-5.701,15.622c-0.792-0.125-1.408-0.223-1.854-0.294
	c-0.968-0.712-1.801-1.325-2.849-2.096C97.827,75.715,97.232,73.41,96.632,71.086z"/>
<path fill-rule="evenodd" clip-rule="evenodd" fill="#ffffff" class="fill" d="M126.146,129.691c0.364-2.094,0.829-3.97,0.144-5.985
	c-0.394,0.111-0.694,0.197-1.037,0.294c-0.031,2.118,0.235,4.239-1.192,6.107c-0.995-0.786-0.426-1.864-0.828-2.605
	c0.294-1.018,0.57-1.969,0.875-3.022c-0.336-0.202-0.66-0.396-1.113-0.668c-0.514-4.003-1.254-8.074-0.753-12.257
	c0.276-2.318,0.303-4.666,0.475-6.997c0.238-3.232,2.185-5.498,4.407-7.918c0,2.082,0.006,3.859,0,5.636
	c-0.023,5.548-0.671,11.11,0.305,16.636c0.274,1.552,0.706,3.078,1.066,4.615c0.33,1.399,0.351,2.803-0.181,4.146
	C127.959,128.567,127.557,129.516,126.146,129.691z"/>
<path fill-rule="evenodd" clip-rule="evenodd" fill="#ffffff" class="fill" d="M101.068,95.926c0.634,2.759,1.254,5.47,1.925,8.389
	c-5.391,0.418-10.596,1.592-16.099,0.899c-0.39-1.44-0.794-2.94-1.25-4.629C90.54,98.332,95.12,95.52,101.068,95.926z"/>
<path fill-rule="evenodd" clip-rule="evenodd" fill="#ffffff" class="fill" d="M67.485,87.693c0.332-0.726,0.571-1.245,0.894-1.947
	c2.043-0.091,4.1-0.181,6.155-0.271c0.006-0.146,0.008-0.292,0.013-0.439c-1.573-0.97-3.427-0.289-5.364-0.633
	c0.377-0.739,0.703-1.378,0.922-1.809c2.115-1.06,3.765,0.695,5.977,0.442c-1.383-1.295-2.771-1.778-4.489-2.102
	c0.459-0.604,0.791-1.042,1.13-1.488c1.418,0.254,2.742,0.492,4.068,0.729c0.052-0.163,0.106-0.326,0.16-0.489
	c-0.937-0.447-1.872-0.896-3.132-1.497c0.688-0.494,1.193-0.856,1.923-1.378c0.316,0.037,0.939,0.111,1.635,0.192
	c0.898,3.894,1.778,7.704,2.675,11.585c-1.107,0.687-2.245,0.965-3.481,0.459c-0.958-0.392-1.9-0.339-2.905-0.17
	c-2.399,0.405-4.816,0.707-7.379,0.847c0.257-0.212,0.483-0.54,0.776-0.619c1.924-0.523,3.859-0.982,5.887-0.792
	c0.401,0.038,0.818-0.125,1.213-0.356C72.081,86.382,69.923,87.532,67.485,87.693z"/>
<path fill-rule="evenodd" clip-rule="evenodd" fill="#ffffff" class="fill" d="M117.206,186.769c0.489,2.415,0.509,4.719-0.229,6.986
	c-0.328,1.007-1.103,1.451-2.747,1.929c-2.438-0.165-3.946-1.562-4.892-3.702C110.364,188.496,112.302,187.166,117.206,186.769z"/>
<path fill-rule="evenodd" clip-rule="evenodd" fill="#ffffff" class="fill" d="M73.267,192.421c0.269-0.609,0.429-1.173,0.74-1.632
	c0.926-1.366,2.355-2.136,3.814-2.703c0.899-0.349,2.016-0.233,2.814,0.513c0.885,0.827,1.688,1.742,2.562,2.659
	C80.431,192.836,75.971,193.382,73.267,192.421z"/>
<path fill-rule="evenodd" clip-rule="evenodd" fill="#ffffff" class="fill" d="M84.558,57.148c-0.465,0.198-0.933,0.398-1.66,0.709
	c0-0.674-0.111-1.187,0.018-1.629c0.755-2.568,0.569-5.212,0.665-7.827c0.083-2.277,0.017-4.559,0.021-6.838
	c0.008-3.031,0.866-5.881,1.881-8.693c0.09-0.25,0.279-0.464,0.609-0.655C83.876,40.41,84.255,48.731,84.558,57.148z"/>
<path fill-rule="evenodd" clip-rule="evenodd" fill="#ffffff" class="fill" d="M120.886,56.024c-0.425,0-0.641,0-0.778,0
	c-1.258-7.56-1.101-15.129-0.644-22.787c0.131,0.31,0.365,0.616,0.379,0.932c0.123,2.803,0.255,5.606,0.292,8.411
	c0.038,2.924-0.11,5.852-0.008,8.772C120.18,52.856,120.599,54.346,120.886,56.024z"/>
<path fill-rule="evenodd" clip-rule="evenodd" fill="#ffffff" class="fill" d="M86.187,41.89c0.164,2.447,1.073,4.802,0.573,7.369
	c-0.362,1.863-0.174,3.835-0.224,5.758c-0.014,0.54-0.003,1.081-0.003,1.62c-0.127,0.018-0.255,0.035-0.384,0.053
	c-0.112-0.225-0.287-0.44-0.329-0.678C85.417,53.626,85.56,43.788,86.187,41.89z"/>
<path fill-rule="evenodd" clip-rule="evenodd" fill="#ffffff" class="fill" d="M116.938,55.632c-0.1-2.974-0.237-5.625-0.244-8.276
	c-0.004-0.69,0.4-1.38,0.837-2.044c0.155,3.471,1.266,6.823,0.854,10.559C117.743,55.765,117.21,55.677,116.938,55.632z"/>
<path fill-rule="evenodd" clip-rule="evenodd" fill="#ffffff" class="fill" d="M99.181,24.776c-1.049,2.036-2.697,3.168-4.438,4.102
	c-1.27,0.68-2.692,1.101-4.082,1.526c-0.975,0.298-1.939,0.114-3.07-0.769c0.674,0,1.037-0.056,1.376,0.009
	c2.79,0.528,4.74-0.771,6.304-2.888C96.313,25.344,96.874,25.02,99.181,24.776z"/>
<path fill-rule="evenodd" clip-rule="evenodd" fill="#ffffff" class="fill" d="M110.81,24.97c2.317,0.603,3.85,1.785,5.442,3.057
	c-0.64,0.651-1.334,0.693-1.971,0.403C112.843,27.777,111.538,26.934,110.81,24.97z"/>
<path fill-rule="evenodd" clip-rule="evenodd" fill="#ffffff" class="fill" d="M107.154,23.893c0.888,0.221,1.427,0.355,1.966,0.49
	c-0.073,0.08-0.148,0.161-0.222,0.24c0.803,1.363,1.604,2.726,2.558,4.342C109.722,27.467,107.787,26.516,107.154,23.893z"/>
<path fill-rule="evenodd" clip-rule="evenodd" fill="#ffffff" class="fill" d="M115.243,55.329c-0.463-0.154-0.787-0.261-1.13-0.376
	c-0.649-1.755,0.401-2.959,1.327-4.609C115.849,52.201,115.62,53.65,115.243,55.329z"/>
<path fill-rule="evenodd" clip-rule="evenodd" fill="#ffffff" class="fill" d="M87.269,67.869c0.858,0.174,1.418,0.288,2.165,0.439
	c-0.093-0.565-0.159-0.972-0.241-1.471c0.267-0.138,0.56-0.29,1.001-0.518c0.452,0.714,0.87,1.375,1.374,2.171
	c-1.854,0.721-3.586,0.144-5.371,0.195C86.569,68.4,86.944,68.115,87.269,67.869z"/>
<path fill-rule="evenodd" clip-rule="evenodd" fill="#ffffff" class="fill" d="M89.296,55.4c-0.508,0.2-0.811,0.32-1.339,0.528
	c-0.112-1.565-0.213-2.97-0.315-4.375C88.794,52.577,88.728,53.988,89.296,55.4z"/>
<path fill-rule="evenodd" clip-rule="evenodd" fill="#ffffff" class="fill" d="M90.137,28.074c1.163-0.535,2.124-0.978,3.263-1.502
	C92.604,28.137,91.897,28.467,90.137,28.074z"/>
<path fill-rule="evenodd" clip-rule="evenodd" fill="#ffffff" class="fill" d="M115.882,30.013c0.252-0.092,0.503-0.186,0.754-0.278
	c0.051,0.066,0.103,0.131,0.153,0.198c-0.119,0.13-0.218,0.314-0.365,0.374c-0.138,0.055-0.329-0.024-0.497-0.044
	C115.911,30.18,115.897,30.097,115.882,30.013z"/>
<path fill-rule="evenodd" clip-rule="evenodd" fill="#ffffff" class="fill" d="M92.653,70.321c0.053,0.174,0.107,0.349,0.162,0.523
	c-0.074,0.036-0.146,0.073-0.22,0.11c-0.106-0.167-0.214-0.333-0.32-0.498C92.4,70.411,92.526,70.366,92.653,70.321z"/>
<path fill-rule="evenodd" clip-rule="evenodd" fill="#ffffff" class="fill" d="M117.122,81.2c0.122,1.872,0.217,3.363,0.311,4.794
	c-1.435,0.521-8.41,0.824-9.876,0.415c0.119-1.19,0.243-2.422,0.381-3.809C111.017,82.13,113.927,81.687,117.122,81.2z"/>
<path fill-rule="evenodd" clip-rule="evenodd" fill="#ffffff" class="fill" d="M92.61,36.425c0.145,0.783,0.215,1.163,0.291,1.581
	c-0.773,0.354-1.446,0.648-2.26-0.315C91.264,37.292,91.797,36.949,92.61,36.425z"/>
<path fill-rule="evenodd" clip-rule="evenodd" fill="#ffffff" class="fill" d="M94.472,38.168c0-0.765,0-1.09,0-1.428c0.707,0,1.351,0,1.993,0
	c0.037,0.117,0.073,0.234,0.11,0.352C95.974,37.4,95.369,37.708,94.472,38.168z"/>
<path fill-rule="evenodd" clip-rule="evenodd" fill="#ffffff" class="fill" d="M110.427,38.6c0-0.703,0-1.088,0-1.788
	c0.709,0.382,1.248,0.671,1.785,0.961c-0.016,0.153-0.034,0.306-0.051,0.459C111.656,38.34,111.15,38.446,110.427,38.6z"/>
<path fill-rule="evenodd" clip-rule="evenodd" fill="#ffffff" class="fill" d="M108.433,36.947c0,0.518,0,0.738,0,1.055
	c-0.709,0.187-1.201,0.006-1.729-0.837C107.347,37.083,107.802,37.026,108.433,36.947z"/>
<path fill-rule="evenodd" clip-rule="evenodd" fill="#ffffff" class="fill" d="M103.772,11.384c0.135,0.956,0.245,1.743,0.381,2.721
	c1.305,0,2.609,0,4.052,0c0,0.855,0,1.52,0,2.335c-1.097,0.145-2.165,0.287-3.388,0.447c-0.074,1.035-0.137,1.94-0.218,3.071
	c-0.903,0.102-1.851,0.209-3,0.338c-0.25-1.002-0.479-1.928-0.742-2.983c-1.312,0-2.632,0-4.064,0
	c-0.094-0.542-0.168-0.964-0.247-1.411c1.603-0.486,3.085-0.936,4.511-1.368c0.178-1.067,0.319-1.918,0.478-2.867
	C102.272,11.575,102.939,11.49,103.772,11.384z"/>
</svg>
