<svg version="1.1" id="svg" xmlns="http://www.w3.org/2000/svg" xmlns:xlink="http://www.w3.org/1999/xlink" x="0px" y="0px"
	 width="200px" height="200px" viewBox="0 0 200 200" enable-background="new 0 0 200 200" xml:space="preserve">
<path class="stroke" fill="#693c11"  d="M158.543,26.293c-1.201-0.211-2.416-0.361-3.631-0.478c-0.837-0.08-1.562-0.379-2.142-0.959
	c-0.456-0.455-0.795-1.024-1.236-1.495c-0.567-0.605-1.092-1.338-1.797-1.709c-2.687-1.419-5.47-1.255-8.163-0.03
	c-1.951,0.888-3.222,2.633-4.261,4.376c-1.637,2.744-3.029,5.636-3.67,8.831c-0.525,2.62-0.582,5.22-0.095,7.841
	c0.738,3.99,2.435,7.613,4.204,11.22c1.359,2.771,2.607,5.596,3.87,8.413c1.495,3.341,1.569,6.889,1.377,10.449
	c-0.134,2.461-1.24,4.516-2.806,6.389c-0.704,0.844-1.492,1.42-2.552,1.581c-1.013,0.154-2.13,0.438-3.008-0.203
	c-1.254-0.919-2.491-1.916-3.105-3.445c-1.295-3.228-2.449-6.501-3.244-9.892c-0.558-2.38-1.668-4.407-3.736-5.827
	c-1.869-1.28-3.797-2.441-6.062-2.863c-1.308-0.243-2.646-0.341-3.939-0.64c-2.933-0.677-5.844-0.229-8.773-0.019
	c-2.777,0.199-5.371,1.148-8.008,1.875c-4.521,1.246-8.992,2.682-13.463,4.101c-1.522,0.484-3.005,1.111-4.465,1.764
	c-1.394,0.621-2.743,1.341-4.095,2.05c-2.733,1.433-5.612,2.619-7.96,4.709c-0.447,0.398-0.986,0.694-1.563,1.094
	c-0.604-0.585-1.176-1.085-1.686-1.64c-1.036-1.134-2.12-2.204-3.465-2.974c-1.062-0.607-2.071-1.335-3.19-1.799
	c-1.185-0.491-2.451-0.918-3.716-1.053c-3.423-0.364-6.784,0.128-10.055,1.188c-1.562,0.506-3.103,1.073-4.336,2.236
	c-0.785,0.741-1.121,1.623-0.896,2.685c0.164,0.771,0.549,1.097,1.348,1.159c0.424,0.032,0.853,0.005,1.454,0.005
	c-0.451,0.385-0.741,0.623-1.021,0.874c-1.555,1.391-2.862,2.958-3.633,4.932c-0.313,0.803-0.351,1.55,0.155,2.236
	c1.314,0.768,2.349-0.002,3.459-0.53c-1.372,2.159-2.512,4.371-2.809,6.879c0.743,1.729,1.853,2.104,3.362,1.185
	c0.309-0.188,0.632-0.354,1.065-0.594c-0.114,0.645-0.232,1.12-0.278,1.604c-0.15,1.578,0.705,2.396,2.265,2.13
	c0.433-0.073,0.878-0.275,1.237-0.531c0.549-0.389,1.029-0.873,1.747-1.503c-0.121,0.656-0.188,1.086-0.282,1.509
	c-0.254,1.142-0.262,2.268,0.126,3.386c0.449,1.297,1.716,2.042,2.99,1.565c0.759-0.284,1.513-0.768,2.075-1.35
	c0.952-0.984,1.768-2.104,2.607-3.192c1.253-1.629,2.913-2.69,4.795-3.401c0.995-0.376,2.057-0.346,2.933,0.372
	c0.735,0.603,1.451,1.246,2.082,1.955c1.192,1.339,2.355,2.674,3.884,3.682c1.313,0.866,2.598,1.743,4.104,2.242
	c0.154,0.05,0.278,0.191,0.543,0.384c-0.535,0.25-0.931,0.468-1.351,0.623c-2.254,0.833-4.532,1.603-6.759,2.5
	c-0.714,0.288-1.385,0.817-1.915,1.387c-0.823,0.881-0.756,1.489,0.015,2.426c1.104,1.346,2.597,1.653,4.229,1.582
	c0.386-0.017,0.772-0.054,1.157-0.081c-0.265,0.487-0.582,0.751-0.871,1.044c-0.295,0.298-0.576,0.609-0.835,0.938
	c-0.841,1.062-0.662,2.168,0.452,2.953c0.721,0.508,1.517,0.694,2.387,0.605c0.409-0.042,0.818-0.074,1.184-0.105
	c1.09,1.874,2.191,2.264,4.163,1.526c0.641-0.239,1.269-0.514,2.026-0.822c1.026,1.104,2.354,0.931,3.754,0.561
	c0.674,1.25,1.866,1.193,3.081,1.245c-0.093,0.212-0.129,0.36-0.214,0.473c-0.969,1.273-1.92,2.562-2.928,3.805
	c-0.694,0.858-1.533,1.605-2.192,2.488c-1.509,2.021-2.125,4.311-1.606,6.806c0.541,2.614-0.128,5.071-0.827,7.53
	c-0.666,2.347-1.404,4.673-2.065,7.022c-0.517,1.836-0.979,3.688-1.436,5.538c-0.474,1.926-0.979,3.848-1.342,5.795
	c-0.33,1.765-0.795,3.365-2.292,4.568c-1.302,1.044-1.753,2.608-1.714,4.207c0.042,1.7,0.367,3.372,2.129,4.271
	c0.133,0.066,0.226,0.205,0.349,0.296c1.57,1.148,1.948,2.719,1.653,4.556c-0.185,1.149,0.05,2.258,0.854,3.099
	c0.953,0.996,2.053,1.86,3.461,2.131c2.447,0.472,4.921,0.627,7.409,0.459c0.377-0.023,0.771-0.097,1.114-0.248
	c0.996-0.432,1.703-1.146,1.898-2.256c0.092-0.519,0.119-1.049,0.181-1.628c-0.173-0.564-0.657-0.836-1.229-1.01
	c-2.111-0.642-4.211-1.277-6.207-2.271c-1.426-0.71-2.348-1.769-2.736-3.188c-0.702-2.569-0.794-5.188-0.123-7.813
	c0.984-3.851,2.155-7.641,3.486-11.385c1.089-3.057,2.093-6.143,3.099-9.228c0.533-1.63,0.935-3.304,1.495-4.923
	c0.704-2.033,1.955-3.779,3.06-5.607c0.982-1.624,2.312-2.825,3.808-3.906c0.309-0.225,0.622-0.442,0.944-0.649
	c2.263-1.446,4.33-3.131,6.203-5.057c0.934-0.958,1.858-1.924,2.818-2.856c1.06-1.032,2.153-2.03,3.365-3.167
	c0.131,0.482,0.25,0.761,0.276,1.047c0.152,1.709,0.332,3.418,0.411,5.132c0.09,1.945,0.076,3.88-0.314,5.818
	c-0.284,1.41-0.337,2.883-0.335,4.326c0.002,2.335,1.051,4.356,2.225,6.286c0.68,1.117,1.271,2.24,1.65,3.502
	c0.875,2.923,1.825,5.825,2.757,8.73c0.293,0.908,0.562,1.832,0.952,2.7c1.128,2.503,2.256,5.012,3.489,7.464
	c1.599,3.176,2.91,6.462,4.017,9.833c0.142,0.433,0.276,0.885,0.303,1.333c0.109,1.938,0.179,3.878,0.265,5.817
	c0.009,0.188,0.001,0.394,0.069,0.564c0.765,1.935,2.092,3.256,4.172,3.703c0.667,0.144,1.351,0.24,2.031,0.287
	c2.475,0.176,4.95,0.433,7.426,0.446c2.131,0.011,4.264-0.245,6.392-0.428c1.033-0.087,2.035-0.346,2.906-0.952
	c0.729-0.509,0.952-1.271,0.639-2.106c-0.33-0.877-1.025-1.343-1.889-1.483c-1.317-0.214-2.646-0.385-3.979-0.473
	c-3.139-0.209-6.126-0.854-8.706-2.786c-0.849-0.637-1.846-1.173-2.474-1.988c-0.849-1.104-1.536-2.379-2.062-3.674
	c-0.932-2.295-1.701-4.655-2.513-6.998c-0.801-2.309-1.581-4.622-2.347-6.942c-0.718-2.174-1.363-4.373-2.115-6.533
	c-1.526-4.388-2.561-8.881-2.882-13.516c-0.326-4.723,0.197-9.38,1.33-13.974c0.456-1.851,0.899-3.707,1.306-5.568
	c0.34-1.556,0.615-3.126,0.94-4.796c0.892,0,1.768,0.057,2.633-0.012c1.627-0.128,3.315,0.061,4.841-0.67
	c1.725-0.827,3.346-1.812,4.744-3.165c1.504-1.454,2.627-3.159,3.674-4.945c1.232-2.108,2.545-4.168,3.797-6.266
	c0.606-1.016,1.455-1.592,2.611-1.865c1.072-0.253,2.134-0.607,3.141-1.05c0.827-0.362,1.617-0.857,2.336-1.409
	c1.027-0.788,1.977-1.677,2.95-2.532c0.312-0.277,0.638-0.555,0.889-0.885c2.34-3.061,3.396-6.546,3.321-10.374
	c-0.028-1.486-0.147-2.974-0.273-4.456c-0.09-1.062-0.203-2.129-0.402-3.175c-0.824-4.295-2.727-8.178-4.828-11.948
	c-1.137-2.038-2.331-4.03-3.122-6.235c-0.193-0.539-0.401-1.071-0.621-1.601c-1.037-2.494-1.638-5.092-1.673-7.793
	c-0.022-1.662,0.466-3.156,1.873-4.232c0.727-0.555,1.38-1.207,2.107-1.76c3.129-2.378,6.483-4.15,10.589-3.908
	c0.525,0.031,1.071-0.055,1.589-0.166c0.533-0.116,1.047-0.327,1.59-0.504C159.651,26.295,159.017,26.376,158.543,26.293z"/>
<path fill-rule="evenodd" clip-rule="evenodd" fill="#faf0e5" class="fill" d="M107.178,105.556c-0.244,0.365-0.364,0.604-0.54,0.793
	c-1.24,1.341-2.482,2.681-3.744,4.001c-2.46,2.571-5.144,4.891-7.94,7.087c-2.371,1.862-4.715,3.759-7.048,5.668
	c-1.355,1.109-2.216,2.591-3.022,4.124c-2.16,4.113-3.663,8.47-5.004,12.899c-0.705,2.331-1.629,4.597-2.334,6.927
	c-1.174,3.868-2.258,7.764-3.367,11.649c-0.86,3.012-0.265,5.874,0.832,8.717c0.748,1.935,1.926,3.449,3.727,4.467
	c1.337,0.754,2.773,1.235,4.306,1.422c0.507,0.061,1.004,0.191,1.788,0.346c-0.507,0.457-0.799,0.721-1.064,0.961
	c-2.625,0.146-5.183,0.267-7.676-0.513c-0.652-0.203-1.322-0.422-1.898-0.773c-0.494-0.302-0.866-0.804-1.226-1.152
	c0-1.398,0.05-2.621-0.013-3.84c-0.075-1.407-0.627-2.55-1.971-3.242c-0.566-0.292-1.061-0.751-1.53-1.194
	c-0.461-0.432-0.697-1.008-0.652-1.655c0.094-1.294,0.416-2.43,1.627-3.218c1.12-0.727,1.808-1.827,2.095-3.169
	c0.535-2.499,1.103-4.991,1.666-7.483c1.046-4.62,2.633-9.084,3.931-13.63c0.398-1.394,0.854-2.803,0.984-4.23
	c0.124-1.346-0.084-2.736-0.258-4.093c-0.277-2.189,0.209-4.124,1.822-5.649c1.994-1.884,3.596-4.074,4.962-6.412
	c1.097-1.877,2.495-3.33,4.374-4.387c2.059-1.157,3.987-2.55,6.274-3.278c3.235-1.031,6.547-1.455,9.937-1.297
	C106.471,105.412,106.725,105.479,107.178,105.556z"/>
<path fill-rule="evenodd" clip-rule="evenodd" fill="#faf0e5" class="fill" d="M75.755,100.917c-0.188-0.232-0.325-0.4-0.479-0.592
	c-0.182,0.074-0.341,0.1-0.448,0.188c-2.487,2.07-5.44,2.85-8.58,3.098c-0.917,0.072-0.938,0.024-1.506-0.768
	c0.457-0.755,1.205-1.117,2.008-1.379c1.088-0.354,2.172-0.741,3.283-1.006c3.346-0.797,6.009-2.753,8.561-4.921
	c1.516-1.287,2.981-2.648,4.6-3.789c3.572-2.515,7.441-3.508,11.678-1.757c1.857,0.768,3.15,2.132,3.886,3.991
	c1.047,2.65,1.121,5.262-0.349,7.824c-0.839,1.464-2.084,2.411-3.575,3.089c-1.215,0.553-2.486,0.999-3.651,1.64
	c-1.063,0.583-2.006,1.381-3.021,2.058c-1.619,1.078-3.25,2.136-4.884,3.189c-0.105,0.068-0.279,0.028-0.692,0.058
	c0.322-0.443,0.482-0.769,0.735-0.991c1.224-1.088,2.496-2.124,3.703-3.23c0.407-0.373,0.723-0.874,0.984-1.369
	c0.134-0.252,0.054-0.616,0.07-0.947c-0.827-0.08-1.29,0.269-1.732,0.716c-1.562,1.577-3.191,3.071-5.129,4.188
	c-0.929,0.534-1.235,0.598-2.451,0.391c0.348-0.358,0.599-0.665,0.897-0.918c0.962-0.816,1.936-1.617,2.913-2.415
	c0.68-0.555,0.974-1.23,0.766-2.123c-0.729-0.11-1.15,0.345-1.607,0.737c-1.299,1.122-2.545,2.317-3.928,3.329
	c-1.002,0.733-2.17,1.253-3.299,1.796c-0.383,0.185-0.87,0.151-1.582,0.258c0.606-1,1.166-1.667,1.903-2.197
	c1.053-0.757,2.103-1.523,3.135-2.309c0.46-0.351,0.873-0.759,0.747-1.494c-0.535-0.447-1.031-0.235-1.493,0.164
	c-1.99,1.725-4.256,2.959-6.75,3.763c-0.694,0.225-1.436,0.517-2.302,0.085c0.112-0.295,0.15-0.617,0.328-0.812
	c0.513-0.561,1.039-1.121,1.634-1.59c1.595-1.256,3.167-2.533,4.435-4.131C75.006,102.18,75.352,101.54,75.755,100.917z"/>
<path fill-rule="evenodd" clip-rule="evenodd" fill="#faf0e5" class="fill" d="M141.267,175.136c-0.155,0.787-0.706,0.934-1.299,0.976
	c-1.18,0.082-2.361,0.198-3.542,0.192c-3.166-0.016-6.336-0.013-9.495-0.179c-1.19-0.062-2.396-0.468-3.526-0.899
	c-1.12-0.429-1.67-1.436-1.791-2.609c-0.158-1.517-0.322-3.037-0.341-4.56c-0.021-1.771-0.627-3.366-1.268-4.96
	c-1.325-3.29-2.676-6.569-4.024-9.85c-0.391-0.953-0.756-1.922-1.229-2.834c-1.296-2.499-1.836-5.252-2.737-7.882
	c-0.942-2.741-1.921-5.472-2.943-8.185c-0.236-0.627-0.684-1.188-1.093-1.737c-1.513-2.032-2.147-4.298-1.707-6.791
	c0.903-5.114,0.375-10.199-0.164-15.292c-0.036-0.338-0.052-0.679-0.076-1.026c1.136-1.275,2.248-2.525,3.385-3.803
	c2.21,0.108,4.411,0.215,6.762,0.33c-0.318,1.606-0.608,3.094-0.911,4.579c-0.513,2.505-1.057,5.005-1.543,7.515
	c-0.426,2.204-0.838,4.412-1.17,6.632c-0.428,2.854-0.313,5.689,0.335,8.52c0.836,3.649,1.826,7.25,3.032,10.795
	c0.698,2.057,1.237,4.167,1.913,6.231c1.198,3.661,2.44,7.308,3.674,10.957c0.452,1.336,0.989,2.646,1.392,3.996
	c0.876,2.932,2.817,5.065,5.246,6.714c1.164,0.79,2.622,1.226,4.006,1.602c2.435,0.66,4.948,0.86,7.471,0.922
	C140.213,174.505,140.864,174.428,141.267,175.136z"/>
<path fill-rule="evenodd" clip-rule="evenodd" fill="#faf0e5" class="fill" d="M151.688,25.546c-1.097-0.105-1.959-0.188-2.816-0.27
	c-1.083-2.025-2.324-2.598-4.476-2.066c-1.293,0.318-1.946,1.315-1.693,2.655c0.189,0.999,0.59,2.206,1.514,2.983
	c0.48,0.186,0.938,0.362,1.576,0.61c-0.531,0.354-0.91,0.643-1.318,0.876c-2.418,1.385-3.549,3.597-3.962,6.235
	c-0.413,2.643,0.433,5.121,1.038,7.643c0.769,3.201,2.423,6.001,3.806,8.925c1.679,3.555,3.518,7.036,4.788,10.77
	c1.331,3.906,1.717,7.878,0.755,11.929c-0.212,0.888-0.416,1.778-0.695,2.646c-0.376,1.165-1.217,1.739-2.438,1.946
	c-1.406,0.237-2.657,0.067-3.754-0.88c-0.778-0.673-0.897-1.16-0.525-2.119c1.108-2.857,1.388-5.802,1.264-8.865
	c-0.124-3.081-1.312-5.799-2.439-8.534c-1.453-3.523-3.227-6.914-4.69-10.434c-1.976-4.752-3.062-9.694-2.192-14.865
	c0.258-1.525,0.871-2.993,1.366-4.473c0.241-0.719,0.503-1.459,0.909-2.091c0.925-1.443,1.866-2.889,2.953-4.208
	c0.706-0.857,1.768-1.396,2.9-1.484c1.519-0.118,3.051-0.12,4.575-0.086c0.791,0.019,1.423,0.437,1.897,1.122
	C150.477,24.158,151.022,24.737,151.688,25.546z"/>
<path fill-rule="evenodd" clip-rule="evenodd" fill="#faf0e5" class="fill" d="M39.942,87.797c-0.379-1.185-0.087-2.11,0.3-2.968
	c1.361-3.026,3.608-5.171,6.681-6.425c1.533-0.624,2.088-0.959,2.735-1.782c-0.086-0.532-0.453-0.776-0.953-0.793
	c-1.141-0.038-2.279-0.119-3.396,0.294c-2.057,0.762-4.023,1.651-5.586,3.262c-0.271,0.278-0.633,0.47-0.952,0.702
	c-0.083-0.059-0.165-0.117-0.248-0.177c0.157-0.392,0.262-0.819,0.483-1.172c1.076-1.709,2.512-3.071,4.201-4.163
	c1.575-1.019,3.235-1.871,5.042-2.415c0.776-0.232,1.506-0.545,2.041-1.424c-0.405-0.219-0.763-0.502-1.167-0.604
	c-0.509-0.129-1.066-0.196-1.586-0.14c-2.044,0.228-4.092,0.461-5.96,1.449c-0.307,0.162-0.688,0.185-1.144,0.299
	c0.006-0.957,0.485-1.458,1.098-1.754c1.302-0.63,2.602-1.354,3.986-1.702c2.477-0.624,5.008-1.052,7.592-0.959
	c1.101,0.04,2.178,0.149,3.278,0.638c-0.41,0.356-0.742,0.644-1.095,0.948c0.18,1.768,1.938,2.271,2.77,3.48
	c-1.447,0.226-2.818,0.438-4.141,0.644c-0.162,0.582,0.046,0.854,0.449,1.013c0.673,0.267,1.348,0.526,2.021,0.791
	c0.597,0.233,1.192,0.468,1.803,0.822c-2.057,0.396-3.951,1.055-5.529,2.573c0.056,0.175,0.12,0.378,0.229,0.72
	c1.688-0.062,3.372-0.125,5.055-0.188c0.02,0.067,0.037,0.138,0.056,0.205c-0.276,0.159-0.553,0.318-0.831,0.477
	c-0.827,0.474-1.696,0.89-2.471,1.438c-0.48,0.342-0.854,0.858-1.201,1.348c-0.138,0.195-0.073,0.534-0.112,0.913
	c2.456-0.658,4.746-1.397,7.344-0.411c-0.481,0.22-0.793,0.328-1.073,0.496c-1.043,0.624-2.116,1.208-3.101,1.916
	c-1.18,0.85-1.938,2.067-2.394,3.429c-0.596,1.773-1.681,3.23-2.839,4.642c-0.448,0.546-1.045,0.975-1.591,1.438
	c-0.105,0.088-0.284,0.09-0.41,0.126c-0.722-0.343-0.939-0.969-0.861-1.636c0.342-2.891,0.669-5.799,2.988-7.955
	c0.218-0.204,0.372-0.474,0.588-0.755c-0.185-0.218-0.346-0.408-0.576-0.68c-1.497,1.116-3.16,1.92-4.402,3.291
	c-0.717,0.791-1.357,1.649-2.068,2.446c-0.248,0.278-0.601,0.462-1.054,0.8c-0.099-1.012,0.257-1.638,0.595-2.269
	c0.829-1.542,2.107-2.704,3.333-3.911c0.272-0.268,0.56-0.525,0.797-0.823c0.455-0.574,0.424-0.868-0.134-1.644
	c-1.008,0.069-1.877,0.607-2.642,1.184c-1.208,0.912-2.29,1.992-3.416,3.012c-0.594,0.538-1.155,1.111-1.761,1.638
	C40.542,87.631,40.272,87.668,39.942,87.797z"/>
<path fill-rule="evenodd" clip-rule="evenodd" fill="#faf0e5" class="fill" d="M145.778,26.116c-0.587,0.118-1.009,0.203-1.586,0.32
	c0-0.692,0-1.225,0-1.729c1.706-0.901,2.667-0.823,3.551,0.361c-0.233,0.179-0.468,0.358-0.743,0.572
	c-0.412-0.513-0.473-1.224-1.371-1.227c-0.133,0.226-0.31,0.528-0.501,0.854C145.323,25.523,145.479,25.727,145.778,26.116z"/>
</svg>
