<svg version="1.1" id="svg" xmlns="http://www.w3.org/2000/svg" xmlns:xlink="http://www.w3.org/1999/xlink" x="0px" y="0px"
	 width="200px" height="200px" viewBox="0 0 200 200" enable-background="new 0 0 200 200" xml:space="preserve">
<path class="stroke" fill="#531863"  d="M192.037,163.201c-1.789-3.224-5.385-3.77-8.389-5.396c0.77-0.505,1.348-0.887,1.959-1.29
	c-0.896-1.469-2.956-1.288-3.44-3.046c0.942-0.197,1.792-0.374,2.675-0.558c0.355-0.53,0.698-1.038,0.996-1.48
	c-2.189-5.99-5.512-11.272-8.301-16.818c-0.469-0.935-1.075-1.806-1.033-3.009c1.717-0.08,3.414,0.467,5.185-0.387
	c-0.336-0.684-0.586-1.239-0.874-1.774c-0.977-1.818-1.979-3.622-2.949-5.443c-1.15-2.157-2.27-4.33-3.419-6.487
	c-0.397-0.746-0.843-1.465-1.229-2.135c1.412-0.968,3.261,0.748,4.226-1.154c-0.438-1.023-1.054-1.964-1.244-2.984
	c-0.638-3.398-2.136-6.386-3.883-9.322c-1.667-2.802-3.274-5.663-4.62-8.628c-1.793-3.954-2.854-8.153-3.359-12.481
	c-0.6-5.113-1.366-10.21-1.802-15.337c-0.591-6.948-1.061-13.901-2.718-20.705c-1.066-4.378-2.703-8.491-5.541-12.063
	c-1.723-2.17-3.818-3.76-6.448-4.712c-5.029-1.82-10.085-1.86-15.192-0.449c-1.626,0.45-3.24,0.945-4.914,1.435
	c-0.297-0.282-0.465-0.388-0.56-0.541c-2.249-3.597-5.233-6.584-8.069-9.688c-2.144-2.346-4.584-4.381-7.673-5.288
	c-3.366-0.989-6.776-1.633-10.382-1.356c-6.478,0.497-12.271,2.47-17.156,6.84c-1.265,1.13-2.551,2.236-3.783,3.4
	c-4.229,3.993-7.156,8.719-8.068,14.553c-0.223,1.42-0.396,2.849-0.59,4.25c-0.182,0.144-0.312,0.297-0.479,0.372
	c-4.717,2.104-8.575,5.425-12.33,8.85c-2.285,2.086-4.058,4.624-5.352,7.46c-0.121,0.265-0.106,0.592-0.161,0.938
	c0.471,0.345,0.896,0.657,1.38,1.013c-0.848,1.086-1.581,2.103-2.394,3.053c-2.774,3.239-5.592,6.441-8.364,9.682
	c-1.715,2.004-3.539,3.941-5.031,6.104c-2.991,4.335-5.758,8.823-7.623,13.792c-0.684,1.818-1.209,3.704-2.005,5.468
	c-2.149,4.76-3.202,9.765-3.569,14.794c-1.571,1.745-2.736,3.612-3.646,5.599c-1.173,2.561-2.125,5.223-3.226,7.819
	c-2.088,4.926-2.756,10.154-3.195,15.407c-0.219,2.614,0.179,5.218,1.312,7.624c-0.099,0.133-0.158,0.247-0.247,0.332
	c-0.274,0.259-0.542,0.529-0.842,0.756c-3.66,2.769-5.468,6.642-6.396,10.977c-0.241,1.123-0.12,2.358,0.018,3.52
	c0.14,1.161,0.572,2.284,0.76,3.442c0.386,2.384,1.208,4.403,3.875,4.954c0.913,0.188,1.862,0.287,2.793,0.279
	c0.932-0.008,1.86-0.202,2.792-0.314c3.229,1.396,6.45,2.377,9.547-0.375c3.487,2.796,6.75,1.999,9.793-0.362
	c3.714,0.788,7.302,1.633,10.219-1.674c-0.089-1.128-0.168-2.122-0.255-3.24c0.324-0.478,0.705-1.037,0.989-1.456
	c6.716-0.948,13.188-2.081,18.837-5.22c1.291,0.168,2.328,0.303,3.107,0.405c2.555,2.6,4.98,5.071,7.445,7.579
	c-2.281,0.902-2.281,0.902-2.912,1.818c1.716,1.525,3.676,2.509,5.979,2.819c0.63,0.084,1.248,0.25,1.917,0.389
	c-0.646,1.271-1.169,2.299-1.704,3.352c1.555,0.51,1.776,0.408,3.433-0.123c2.795-0.896,5.627-1.672,8.496-2.514
	c0.4,0.702,0.68,1.258,1.02,1.774c1.432,2.18,3.138,3.928,6.029,3.86c0.551-0.013,1.112,0.147,1.656,0.28
	c1.948,0.476,3.865,1.165,5.84,1.428c5.416,0.724,10.378-0.45,14.566-4.123c1.125-0.986,2.087-2.157,2.939-3.051
	c6.541-1.63,12.616-4.289,19.045-5.138c0.18,0.19,0.239,0.229,0.263,0.283c0.049,0.112,0.094,0.231,0.116,0.351
	c0.492,2.828,2.141,4.614,4.905,5.327c2.128,0.548,4.307,0.913,6.407,1.544c6.172,1.854,11.581,0.084,17.132-3.386
	c2.582-0.144,5.55-0.261,8.195,1.748c1.351,1.025,2.849,0.785,4.159-0.316c1.297-1.091,2.304-2.345,1.929-4.228
	c1.825-1.552,2.668-3.487,2.41-5.801C191.349,164.422,191.654,163.879,192.037,163.201z"/>
<path fill-rule="evenodd" clip-rule="evenodd" fill="#faae19" class="fill" d="M138.427,160.852c-0.062-0.353-0.124-0.705-0.181-1.031
	c-1.385-0.366-1.438,0.833-1.984,1.458c-0.582,0.075-1.188,0.153-2.045,0.264c0.97-2.577,1.896-5.036,2.836-7.535
	c-1.211-0.723-1.693-0.207-2.018,0.662c-0.41,1.107-0.805,2.222-1.31,3.621c-0.731-1.569-0.962-2.799-0.529-4.215
	c0.638-2.083,1.094-4.221,1.63-6.342c-1.334-0.18-1.598-0.002-2.03,1.485c-0.28,0.96-0.479,1.943-0.748,3.048
	c-0.577-0.034-1.098-0.065-1.789-0.106c0.213-2.21-1.183-4.269-0.066-6.77c0.309,1.03,0.512,1.711,0.841,2.813
	c0.523-0.664,0.928-0.972,1.055-1.369c1.202-3.772,3.594-6.885,5.676-10.154c0.865-1.357,2.142-2.451,3.226-3.669
	c0.198-0.222,0.371-0.466,0.559-0.702c-1.198-0.918-1.639-0.929-2.767,0.07c-2.037,1.808-3.755,3.886-5.088,6.269
	c-0.642,1.147-1.258,2.31-1.911,3.511c-0.504-0.051-0.979-0.098-1.438-0.144c-1.411,1.1-1.27,3.231-2.968,4.458
	c-0.28-4.217-0.335-8.003,2.495-11.636c-0.389,1.088-0.687,1.774-0.873,2.489c-0.196,0.747-0.807,1.491-0.147,2.316
	c1.046,0.229,1.422-0.542,1.853-1.239c1.055-1.708,2.188-3.372,3.15-5.13c1.11-2.029,2.744-3.552,4.436-5.048
	c0.371-0.328,0.734-0.667,1.208-1.099c-0.358-0.47-0.676-0.888-1.074-1.412c-2.593,1.288-4.269,3.44-6.483,5.097
	c0.785-1.302,1.57-2.604,2.479-4.112c-1.492-0.068-2.046,0.74-2.529,1.49c-1.328,2.058-2.582,4.163-3.856,6.254
	c-0.259,0.424-0.481,0.87-0.865,1.567c-0.67-1.883,0.036-3.341,0.713-4.653c1.149-2.225,2.532-4.33,3.841-6.47
	c0.811-1.326,1.666-2.624,2.533-3.984c-0.678-0.521-1.18-0.233-1.543,0.183c-0.616,0.707-1.179,1.468-1.707,2.246
	c-1.262,1.863-2.489,3.749-3.865,5.826c-0.782-1.285-0.334-2.381-0.302-3.431c0.034-1.13,0.2-2.26,0.179-3.388
	c-0.021-1.117-0.201-2.231-0.318-3.406c-0.717-0.335-1.324-0.618-1.849-0.862c0.983-3.808,1.966-7.611,2.974-11.51
	c-0.549-0.414-0.967-0.73-1.395-1.053c-0.701,0.396-1.27,0.716-1.838,1.036c-0.104-0.063-0.209-0.127-0.314-0.19
	c2.244-4.766,5.322-9.225,5.748-14.789c-0.984-0.25-1.318,0.314-1.545,1.097c-0.31,1.066-0.654,2.124-1.139,3.14
	c-0.088-1.625,0.262-3.12,0.939-4.594c0.865-1.878,1.57-3.831,2.311-5.763c0.148-0.387,0.15-0.83,0.23-1.309
	c-1.218-0.386-1.497,0.459-1.805,1.179c-0.319,0.744-0.565,1.52-0.88,2.385c-0.712-0.08-1.374-0.154-2.2-0.246
	c0.609-2.636,2.955-4.382,3.401-7.103c-1.193-0.279-1.586,0.504-1.993,1.16c-1.023,1.644-2.002,3.315-3.278,4.943
	c0-0.309-0.059-0.631,0.011-0.923c0.47-2.018,0.771-4.103,1.5-6.025c1.06-2.793,2.433-5.467,3.673-8.192
	c1.114-2.452,2.23-4.904,3.403-7.482c0.205,0.451,0.393,0.882,0.598,1.305c1.717,3.558,3.327,7.173,5.195,10.65
	c1.412,2.628,3.892,4.301,6.424,5.896c-0.186-0.277-0.335-0.587-0.561-0.826c-4.682-4.938-7.536-10.921-9.732-17.246
	c-0.505-1.456-0.467-3.095-0.738-4.639c-0.429-2.431-0.364-4.864-0.232-7.314c0.277-5.156-1.767-9.541-4.696-13.604
	c-0.183-0.255-0.403-0.481-0.605-0.722c-0.158-0.188-0.313-0.378-0.569-0.687c0.422-0.321,0.769-0.659,1.177-0.883
	c3.396-1.865,6.964-3.107,10.891-3.348c2.141-0.132,4.231-0.382,6.332,0.307c3.718,1.22,6.496,3.618,8.314,6.983
	c3.121,5.776,4.685,12.027,5.077,18.574c0.006,0.118-0.063,0.239-0.176,0.64c-1.701-1.474-2.098-3.57-3.288-5.437
	c-0.484,0.159-1.025,0.336-1.568,0.514c0.017,1.913,0.932,3.274,1.755,4.674c0.952,1.617,2.012,3.187,2.787,4.886
	c0.652,1.429,0.969,3.014,1.227,4.611c-3.114-3.028-5.244-6.653-6.927-10.536c-1.516,0.487-1.872,0.87-1.36,2.125
	c0.752,1.848,1.673,3.644,2.688,5.364c1.881,3.189,3.896,6.298,5.817,9.463c0.333,0.548,0.483,1.207,0.555,1.896
	c-5.092-3.641-8.729-8.42-11.508-14.269c-0.692,0.58-1.196,1.003-1.682,1.411c1.619,4.25,4.138,7.587,7.027,10.682
	c2.186,2.34,4.413,4.627,6.124,7.385c1.305,2.101,1.736,4.378,2.188,7.002c-3.313-1.466-5.479-3.977-7.98-6.38
	c-0.576,0.452-1.07,0.842-1.57,1.234c0.625,1.723,1.806,2.796,2.943,3.843c2.217,2.039,4.586,3.914,6.782,5.972
	c0.993,0.931,1.94,2.033,2.538,3.241c1.98,3.995,3.804,8.068,5.657,12.125c0.383,0.836,0.796,1.71,0.33,2.939
	c-0.287-0.507-0.524-0.833-0.669-1.195c-1.365-3.405-3.376-6.444-5.406-9.467c-0.978-1.455-1.955-2.918-3.049-4.286
	c-1.818-2.276-4.097-4.047-6.514-5.66c-0.987-0.659-1.888-1.46-2.774-2.257c-1.631-1.465-3.221-2.975-4.919-4.553
	c-0.336,0.165-0.693,0.34-1.137,0.558c0.178,0.38,0.238,0.721,0.441,0.91c2.346,2.178,4.518,4.611,7.119,6.428
	c3.947,2.756,7.246,6.043,9.71,10.119c2.011,3.326,3.762,6.81,5.591,10.243c0.191,0.359,0.135,0.85,0.195,1.279
	c-0.15,0.068-0.303,0.136-0.453,0.205c-0.672-0.778-1.307-1.591-2.021-2.327c-1.878-1.938-3.654-4.008-5.731-5.71
	c-1.877-1.539-4.088-2.673-6.166-3.963c-4.103-2.549-8.232-5.054-12.317-7.63c-3.526-2.224-5.656-5.639-7.582-9.193
	c-1.047-1.93-1.994-3.913-3.009-5.86c-0.312-0.6-0.694-1.163-1.158-1.931c-0.613,0.424-1.081,0.749-1.585,1.099
	c1.938,4.514,3.764,8.852,6.521,12.713c2.131,2.984,5.105,4.973,8.186,6.844c4.778,2.902,9.586,5.763,14.27,8.812
	c3.713,2.416,6.477,5.913,9.65,8.946c2.895,2.767,4.11,6.359,5.648,9.823c0.318,0.715,0.352,1.557,0.522,2.379
	c-0.905,0.422-1.671,0.779-2.534,1.182c0.408,2.021,0.786,3.902,1.217,6.042c-2.967-1.832-5.67-3.5-8.43-5.202
	c-0.431,0.345-0.74,0.592-1.129,0.904c0.239,0.271,0.365,0.494,0.555,0.613c1.964,1.24,3.969,2.417,5.902,3.702
	c4.069,2.705,7.421,7.367,8.612,12.035c-0.749-0.507-1.395-0.829-1.899-1.301c-4.637-4.336-10.167-7.105-16.088-9.163
	c-3.923-1.364-7.983-2.097-12.206-2.391c-0.159,0.406-0.282,0.718-0.423,1.072c3.9,0.897,7.775,1.449,11.398,2.719
	c3.586,1.256,7.308,2.414,10.452,4.695c3.14,2.278,6.209,4.653,9.567,7.18c-1.302,0.546-2.229,0.934-3.217,1.35
	c-5.811-1.976-11.688-3.974-17.683-6.012c-0.345,0.414-0.63,0.757-1.024,1.231c0.568,0.273,0.931,0.497,1.325,0.63
	c4.519,1.539,9.062,3.005,13.552,4.619c2.002,0.719,3.918,1.696,5.84,2.623c0.712,0.344,1.332,0.882,2.06,1.377
	c-0.618,0.959-1.139,1.77-1.72,2.672c-1.055-0.427-1.99-0.771-2.896-1.18c-0.946-0.426-1.696-0.369-2.29,0.9
	c0.855,0.531,1.725,1.071,2.77,1.72c-1.604,1.155-3.37,1.657-5.166,2.159c-0.654-0.282-1.283-0.552-1.972-0.849
	c-0.507,0.125-1.046,0.256-1.669,0.409c-2.01-1.154-4.068-2.334-6.348-3.643c-0.357,0.245-0.821,0.561-1.402,0.959
	c1.687,2.333,4.391,2.783,6.519,4.606c-0.872,0.359-1.567,0.645-1.979,0.815c-2.483-1.497-4.713-2.839-7.022-4.23
	c-0.468,0.217-0.972,0.45-1.478,0.685c-1.013-0.518-2.011-1.029-3.16-1.617c-0.476,0.307-0.953,0.617-1.462,0.946
	c1.45,1.633,2.847,2.089,4.972,1.736c1.182,0.793,2.371,1.592,3.883,2.605c-2.43,0.646-4.61,0.785-6.887,0.937
	c-0.4-0.906-0.77-1.74-1.181-2.673c-0.659,0.234-1.226,0.437-1.794,0.639l0.036,0.027c-0.031-0.481-0.062-0.962-0.1-1.546
	c-2.626-0.001-2.476,2.319-3.5,3.917c-3.248,0.641-6.681,0.852-10.23,0.625c-0.464-2.257,0.56-3.982,1.466-5.733
	c-0.036,0.475-0.07,0.948-0.103,1.41c1.221,0.345,1.782-0.332,2.267-1.077c1.28-1.971,2.954-3.538,4.846-4.903
	c0.32-0.232,0.516-0.636,0.746-0.931c-0.57-0.998-1.248-0.621-1.852-0.336c-2.1,0.989-3.686,2.53-4.852,4.534
	C139.243,159.979,138.801,160.396,138.427,160.852z M166.562,108.812c0.188-0.117,0.375-0.234,0.561-0.352
	c-0.242-0.52-0.437-1.068-0.737-1.551c-0.594-0.957-1.294-1.851-1.869-2.819c-1.009-1.697-2.256-3.15-3.896-4.274
	c-5.324-3.651-10.646-7.308-15.949-10.99c-2.944-2.045-5.172-4.748-6.771-7.931c-0.871-1.733-1.522-3.576-2.259-5.376
	c-0.757-1.847-1.496-3.701-2.341-5.795c-0.809,0.494-1.396,0.852-2.153,1.315c1.185,3.1,2.287,6.03,3.426,8.946
	c1.569,4.023,4.104,7.359,7.573,9.891c3.854,2.813,7.773,5.551,11.784,8.136c3.716,2.395,7.283,4.908,10.145,8.33
	C164.822,107.235,165.73,107.993,166.562,108.812z M138.944,101.183c0.94,1.046,1.695,1.872,2.437,2.709
	c1.988,2.25,4.335,3.971,7.177,5.02c3.181,1.174,6.366,2.346,9.489,3.66c5.55,2.332,9.951,6.016,12.842,11.375
	c0.426,0.792,0.818,1.603,1.299,2.548c0.949-2.446,0.891-4.207-0.593-6.172c-2.437-3.23-5.39-6.027-8.951-7.925
	c-2.909-1.549-6.085-2.622-9.197-3.76c-4.231-1.548-8.225-3.41-11.158-7.011c-0.38-0.467-0.925-0.8-1.393-1.195
	C140.254,100.678,139.74,100.876,138.944,101.183z M144.069,121.072c1.541,0.168,2.761,0.354,3.986,0.424
	c2.638,0.149,5.249,0.425,7.736,1.388c4.54,1.757,8.783,3.999,12.258,7.5c0.546,0.55,1.124,1.071,1.908,0.392
	c0.401-0.91-0.173-1.537-0.702-2.003c-1.78-1.569-3.506-3.261-5.498-4.517c-5.621-3.546-11.856-4.935-18.71-4.583
	C144.859,119.943,144.563,120.366,144.069,121.072z M146.557,141.352c1.205,0.853,2.005,0.704,2.839,0.311
	c1.577-0.74,3.258-0.937,4.963-0.72c5.785,0.734,11.286,2.348,16.219,5.555c1.243,0.809,2.337,1.851,3.512,2.769
	c0.26,0.203,0.577,0.335,1.086,0.623c0.072-0.833,0.123-1.422,0.196-2.265c-1.273-0.95-2.514-1.985-3.86-2.853
	c-2.808-1.809-5.882-3.066-9.09-3.96c-3.449-0.961-6.947-1.668-10.563-1.409C150.02,139.534,148.438,140.334,146.557,141.352z
	 M141.918,115.929c1.109,0.112,1.967,0.32,2.806,0.26c2.671-0.189,5.273,0.177,7.755,1.089c3.522,1.294,6.978,2.77,10.468,4.153
	c0.542,0.214,1.113,0.347,1.687,0.522c0.463-1.048-0.092-1.437-0.656-1.869c-2.887-2.209-6.245-3.406-9.636-4.533
	c-3.235-1.076-6.526-1.721-9.972-1.355C143.352,114.305,142.579,114.584,141.918,115.929z M172.137,158.304
	c-0.786-0.601-1.408-1.235-2.159-1.623c-2.562-1.32-5.2-2.504-8.079-2.921c-1.789-0.26-3.623-0.209-5.412-0.458
	c-2.564-0.358-4.975,0.375-7.418,0.863c-0.736,0.146-1.415,0.584-1.006,1.838c0.817-0.097,1.674-0.127,2.499-0.307
	c5.109-1.111,10.081-0.73,14.896,1.335c1.494,0.641,2.959,1.349,4.429,2.045C170.719,159.471,171.431,159.495,172.137,158.304z
	 M146.34,128.244c0.883,0.54,1.351,0.93,1.889,1.129c0.701,0.26,1.455,0.383,2.192,0.543c4.633,1.012,9.089,2.554,13.179,4.951
	c2.268,1.327,4.324,3.014,6.472,4.543c0.524,0.373,0.954,1.13,1.816,0.325c-0.32-1.074-0.962-1.924-1.825-2.684
	c-4.1-3.609-9.003-5.678-14.103-7.332c-2.49-0.807-5.056-1.378-7.588-2.057c0.001-0.099,0.001-0.198,0.002-0.297
	C147.837,127.598,147.299,127.83,146.34,128.244z M173.155,153.721c0.042-0.141,0.083-0.282,0.125-0.424
	c-0.536-0.331-1.046-0.729-1.619-0.974c-0.509-0.218-1.085-0.3-1.642-0.382c-2.861-0.417-5.612-1.213-8.316-2.235
	c-2.631-0.994-5.264-2.045-8.119-2.218c-1.434-0.086-2.875-0.157-4.31-0.101c-0.683,0.027-1.507,0.151-1.768,1.348
	c0.716,0.038,1.304,0.079,1.891,0.096c2.772,0.083,5.56,0.318,8.099,1.434c4.642,2.04,9.444,3.303,14.492,3.652
	C172.371,153.943,172.766,153.791,173.155,153.721z M148,77.043c-0.104-0.501-0.084-0.923-0.271-1.211
	c-0.678-1.048-1.439-2.043-2.146-3.075c-2.44-3.559-4.882-7.115-6.078-11.346c-0.34-1.2-0.819-2.36-1.264-3.528
	c-0.055-0.139-0.291-0.209-0.541-0.377c-0.378,0.239-0.773,0.49-1.106,0.701C136.889,64.44,143.515,75.506,148,77.043z
	 M136.725,96.407c-0.843,0.043-1.263,0.065-1.692,0.088c-0.161,0.346-0.31,0.62-0.422,0.91c-0.111,0.291-0.25,0.593-0.271,0.897
	c-0.224,3.346-1.612,6.286-3.122,9.201c-1.18,2.28-2.256,4.616-2.577,7.267c0.215,0.138,0.412,0.264,0.804,0.516
	c1.635-2.726,3.235-5.393,4.938-8.23c-0.109-1.602,1.296-3.049,1.579-4.806C136.257,100.41,136.448,98.554,136.725,96.407z
	 M133.324,110.755c-0.288,0.981-0.398,1.651-0.674,2.245c-0.996,2.151-2.152,4.235-3.046,6.427c-0.61,1.5-1.163,3.105-0.646,5.112
	c0.502-0.549,0.929-0.843,1.116-1.248c2.55-5.476,5.067-10.966,7.586-16.445c-1.076-0.643-1.577-0.203-2.04,0.512
	C134.838,108.569,134.007,109.75,133.324,110.755z M131.186,90.764c0.468,5.278-1.893,9.761-3.074,14.692
	c3.496-1.627,6.371-10.156,5.115-14.692C132.686,90.764,132.102,90.764,131.186,90.764z M142.157,140.479
	c-1.133-0.639-1.886-0.21-2.579,0.518c-1.899,1.992-3.135,4.405-3.962,6.965c-0.408,1.262-0.663,2.784,0.453,4.328
	c1.451-1.885,1.569-4.174,2.674-5.991C139.877,144.436,140.953,142.539,142.157,140.479z M139.753,158.287
	c0.464-3.947,3.601-6.18,5.724-9.053c-1.202-0.744-1.717-0.702-2.542,0.144c-0.698,0.714-1.429,1.412-2.026,2.208
	c-1.381,1.844-2.92,3.635-2.884,6.15c0.002,0.172,0.099,0.344,0.192,0.651C138.683,158.357,139.141,158.327,139.753,158.287z
	 M148.741,159.424c-3.409,0.833-6.429,2.054-8.384,5.075c0.729,0.738,1.402,0.42,1.82,0.061c1.775-1.522,3.82-2.55,5.924-3.503
	C148.665,160.801,149.18,160.395,148.741,159.424z"/>
<path fill-rule="evenodd" clip-rule="evenodd" fill="#faae19" class="fill" d="M104.543,104.499c-0.322,0.475-0.598,0.879-0.89,1.309
	c0.891,5.421,1.264,10.834-0.725,16.295c-0.457-1.14-0.915-2.28-1.397-3.483c-2.874,0.92-3.719,3.942-6.37,5.227
	c-0.636-1.479-1.26-2.929-1.957-4.556c-1.928,0.668-2.104,2.777-3.545,3.91c-0.21-0.484-0.411-0.954-0.727-1.684
	c-0.538,0.395-0.991,0.665-1.37,1.016c-2.286,2.118-4.86,3.731-7.924,4.718c-0.513-1.54,0.943-3.114-0.3-4.701
	c-1.528,0.607-3.071,1.222-4.812,1.913c-1.884-3.057-4.967-4.489-8.072-6.217c-0.89,0.896-1.744,1.755-2.503,2.52
	c0.443,1.812,3.003,1.966,2.55,4.193c-2.006-0.618-3.358-2.045-4.939-3.229c-0.328,0.192-0.631,0.37-1.179,0.69
	c0.565,0.641,1.007,1.204,1.515,1.697c0.532,0.516,1.128,0.965,1.943,1.652c-0.983,0.307-1.722,0.538-2.385,0.745
	c-1.617-0.35-2.662-1.932-4.299-1.954c-0.117,0.151-0.236,0.302-0.355,0.453c0.429,0.672,0.858,1.344,1.365,2.137
	c-1.156,0.484-2.183,0.372-3.128-0.392c-1.553-1.254-3.089-2.528-4.828-3.955c-0.11,0.04-0.477,0.173-0.912,0.331
	c0.556,1.86,2.092,2.748,3.23,3.973c-1.944,0.561-5.279-0.374-6.902-1.887c-1.534-1.43-2.782-3.063-3.713-4.948
	c-0.253-0.511-0.631-0.96-0.943-1.424c-1.031,0.542-0.833,1.199-0.555,1.747c0.592,1.173,1.255,2.312,1.932,3.439
	c0.316,0.526,0.731,0.992,1.338,1.801c-3.876-0.308-5.023-3.104-6.496-5.685c-0.187,0-0.445-0.058-0.66,0.016
	c-0.216,0.075-0.388,0.28-0.638,0.474c0.154,0.621,0.301,1.213,0.502,2.021c-0.529-0.16-0.959-0.29-1.635-0.494
	c-0.363,0.476-0.778,1.023-1.229,1.611c-1.26-0.644-2.222-1.657-2.959-2.943c-1.527-2.666-2.401-5.585-2.652-8.576
	c-0.174-2.083,0.122-4.319,0.725-6.332c1.866-6.248,3.985-12.423,6.98-18.243c2.339-4.543,5.344-8.639,8.657-12.515
	c0.937-1.095,1.816-2.24,2.735-3.352c3.241-3.923,7.238-6.92,11.592-9.491c1.35-0.797,2.612-1.737,3.947-2.561
	c0.944-0.584,1.941-1.084,3.301-1.834c-0.275,1.372-0.471,2.316-0.654,3.262c-0.515,2.645-1.019,5.292-1.538,7.935
	c-0.379,1.928-1.501,3.395-2.824,4.792c-1.246,1.314-2.351,2.768-3.479,4.189c-1.391,1.751-1.711,3.85-1.953,6.004
	c1.037,0.493,1.977,0.412,2.974,0.134c5.381-1.5,10.909-2.062,16.415-1.389c4.141,0.505,8.324,1.24,12.229,2.929
	c0.39,0.168,0.764,0.375,1.288,0.635c-0.53,0.481-0.958,0.869-1.493,1.354c0.3,0.266,0.48,0.534,0.729,0.631
	c3.521,1.372,6.289,3.872,9.224,6.123c0.449,0.344,0.866,0.729,1.326,1.056C101.259,97.825,102.842,101.176,104.543,104.499z
	 M52.104,91.048c-0.86-0.203-1.364,0.31-1.823,0.955c-1.565,2.195-3.252,4.313-4.68,6.595c-1.119,1.792-2.28,3.689-2.805,5.702
	c-1.646,6.321-1.111,12.426,2.746,17.959c0.474,0.682,0.907,1.436,2.215,1.847c-0.3-0.941-0.437-1.587-0.706-2.171
	c-1.24-2.685-2.265-5.396-2.508-8.411c-0.251-3.11,0.088-6.137,0.826-9.115c0.622-2.515,2.029-4.705,3.45-6.849
	c1.006-1.517,2.1-2.975,3.101-4.494C52.307,92.481,52.95,91.84,52.104,91.048z M54.623,122.819
	c-0.305-0.607-0.582-1.088-0.794-1.595c-0.794-1.899-1.837-3.745-2.294-5.725c-1.048-4.521-0.277-9.022,1.092-13.35
	c0.861-2.727,2.295-5.273,3.445-7.911c0.385-0.885,0.692-1.803,1.035-2.706c-0.133-0.117-0.266-0.234-0.396-0.351
	c-0.435,0.244-1.061,0.376-1.27,0.746c-1.508,2.665-3.078,5.312-4.348,8.093c-1.578,3.456-1.999,7.215-2.335,10.975
	c-0.395,4.407,1.042,8.129,4.028,11.312C53.204,122.753,53.625,123.278,54.623,122.819z M46.443,90.188
	c-0.475,0.28-0.885,0.436-1.184,0.713c-3.586,3.345-7.031,6.847-9.416,11.166c-2.431,4.403-4.031,9.048-2.237,14.156
	c0.154,0.443,0.601,0.783,0.946,1.217c0.24-0.335,0.367-0.431,0.37-0.53c0.017-0.5-0.003-1-0.005-1.5
	c-0.045-6.653,2.17-12.49,6.397-17.583c1.558-1.877,3.173-3.707,4.771-5.55C46.556,91.738,46.963,91.204,46.443,90.188z
	 M73.866,90.979c-1.71,0.048-2.144,0.223-3.085,1.454c-1.221,1.593-2.422,3.21-3.505,4.897c-2.57,4.009-4.343,8.351-4.925,13.102
	c-0.197,1.609-0.175,3.261-0.091,4.884c0.069,1.351,0.512,1.727,1.937,1.973c-0.544-4.847,0.953-9.32,2.365-13.789
	C68.009,98.925,71.088,95.225,73.866,90.979z M86.442,93.528c-1.172-0.308-1.717,0.215-2.133,0.856
	c-1.026,1.575-2.071,3.142-2.991,4.779c-2.769,4.931-5.668,9.754-9.576,13.907c-0.645,0.685-0.917,1.727-1.325,2.62
	c-0.051,0.113,0.124,0.329,0.204,0.523c0.317,0,0.617,0,0.65,0c1.086-1.163,2.034-2.143,2.944-3.158
	c1.21-1.353,2.573-2.615,3.547-4.125c2.746-4.264,5.354-8.619,7.949-12.977C86.128,95.256,86.204,94.355,86.442,93.528z
	 M58.327,123.228c0.762-1.093,0.797-1.105,0.531-1.862c-0.519-1.474-1.2-2.9-1.597-4.403c-0.891-3.38-0.834-6.813-0.25-10.246
	c0.14-0.824,0.262-1.651,0.393-2.477c-0.156-0.084-0.313-0.17-0.471-0.254c-0.421,0.366-0.957,0.663-1.237,1.117
	c-0.353,0.571-0.641,1.257-0.705,1.918c-0.252,2.607-0.587,5.226-0.549,7.835c0.04,2.682,1.124,5.113,2.746,7.265
	C57.469,122.494,57.863,122.783,58.327,123.228z M58.066,74.787c-0.705,0.097-1.048,0.045-1.255,0.189
	c-2.985,2.067-5.925,4.199-8.931,6.236c-3.255,2.207-6.015,4.935-8.537,7.915c-1.02,1.203-1.534,2.607-1.141,4.635
	c1.344-2.647,3.091-4.457,4.893-6.292c3.414-3.475,7.412-6.141,11.316-8.959C55.71,77.574,57.071,76.677,58.066,74.787z
	 M87.936,98.747c-0.906-0.744-1.521-0.342-2.051,0.086c-0.43,0.348-0.817,0.795-1.103,1.271c-1.651,2.743-3.342,5.466-4.868,8.278
	c-1.011,1.864-1.838,3.839-2.61,5.817c-0.309,0.79-0.244,1.726-0.351,2.594c0.098,0.007,0.196,0.014,0.295,0.021
	C80.814,110.786,84.382,104.756,87.936,98.747z M69.346,90.921c-1.265-0.034-1.978,0.348-2.505,1.14
	c-1.245,1.867-2.37,3.834-3.782,5.566c-2.646,3.245-2.617,6.975-2.266,10.837c0.436-0.796,0.717-1.647,1.025-2.488
	c0.431-1.174,0.757-2.41,1.348-3.5c1.869-3.455,3.412-7.102,5.897-10.208C69.297,91.976,69.244,91.452,69.346,90.921z
	 M93.943,97.928c-0.568,0.237-1.035,0.432-1.541,0.642c0.658,3.598,0.502,7.042,0.218,10.488c-0.103,1.25-0.149,2.506-0.248,3.758
	c-0.061,0.777-0.021,1.487,0.964,2.072c0.293-0.49,0.729-0.906,0.795-1.375C94.853,108.39,96.009,103.251,93.943,97.928z
	 M60.108,68.379c-0.603,0.176-1.024,0.223-1.369,0.412c-1.812,0.994-3.676,1.918-5.388,3.067c-2.335,1.567-4.6,3.251-6.791,5.014
	c-1.038,0.836-1.917,1.917-2.461,3.23c1.291,0.398,1.302,0.408,1.76-0.089c0.334-0.362,0.595-0.801,0.96-1.125
	c3.424-3.045,7.128-5.701,11.089-8.008C58.812,70.352,59.666,69.729,60.108,68.379z M83.446,116.15
	c1.489-0.074,1.711-1.032,1.956-1.925c0.445-1.618,0.875-3.242,1.258-4.877c0.176-0.75,0.222-1.53,0.339-2.375
	c-1.699,0.005-2.163,1.05-2.431,2.157c-0.471,1.938-0.845,3.901-1.223,5.861C83.281,115.322,83.4,115.688,83.446,116.15z
	 M39.774,106.975c-1.12-0.147-1.609,0.551-1.896,1.276c-0.947,2.407-0.801,4.893-0.208,7.344c0.146,0.601,0.691,1.104,1.176,1.837
	c0-1.957-0.12-3.658,0.032-5.335C39.033,110.398,39.455,108.725,39.774,106.975z M57.427,66.979
	c1.189-0.934,2.311-1.731,3.332-2.641c1.016-0.905,2.511-1.275,3.228-2.611c-0.279-0.165-0.402-0.299-0.486-0.278
	c-2.359,0.583-4.395,1.771-6.114,3.459C56.832,65.453,56.618,66.207,57.427,66.979z M78.416,92.039
	c-0.823-0.525-1.494-0.184-1.994,0.419c-0.916,1.101-1.815,2.227-2.586,3.43c-0.398,0.622-0.507,1.43-0.876,2.544
	c0.712-0.375,1.055-0.452,1.233-0.666c1.425-1.713,2.824-3.448,4.212-5.191C78.492,92.465,78.416,92.226,78.416,92.039z"/>
<path fill-rule="evenodd" clip-rule="evenodd" fill="#faae19" class="fill" d="M86.039,24.975c0.38-0.317,0.699-0.584,1.215-1.014
	c0.742,0.965,1.43,1.83,2.085,2.718c0.651,0.884,0.639,0.894,2.062,0.722c-0.965-1.494-1.861-2.883-2.871-4.447
	c0.937-0.435,1.817-0.842,2.628-1.218c1.021,0.69,0.761,2.519,2.684,2.331c-0.272-1.07-0.509-1.99-0.805-3.149
	c1.02-0.247,1.896-0.458,2.72-0.658c0.859,0.989-0.228,2.46,1.161,3.185c1.306-0.934,0.28-2.56,1.327-3.772
	c1.141-0.501,2.586-0.634,4.277-0.352c-0.31,0.832-0.579,1.553-0.92,2.475c0.578,0.063,1.012,0.11,1.464,0.16
	c0.417-0.924,0.772-1.709,1.174-2.597c0.829,0.3,1.578,0.57,2.338,0.846c-0.503,1.061-0.948,2-1.463,3.086
	c0.583,0.103,0.926,0.164,1.29,0.228c0.587-0.896,1.133-1.729,1.754-2.675c0.551,0.203,1.05,0.386,1.749,0.644
	c-0.608,1.071-1.146,2.018-1.771,3.118c0.509,0.178,0.873,0.306,1.22,0.428c0.692-1.02,1.314-1.936,1.918-2.822
	c1.479,0.125,2.367,0.778,2.957,1.833c-0.787,0.921-1.507,1.761-2.311,2.7c0.427,0.277,0.669,0.433,0.917,0.594
	c0.896-0.779,1.728-1.501,2.705-2.35c0.675,0.845,1.245,1.558,1.857,2.323c-0.886,0.746-1.666,1.404-2.507,2.112
	c0.926,0.506,0.926,0.506,3.371-0.641c0.416,0.81,0.838,1.628,1.345,2.613c-0.76,0.662-1.484,1.294-2.269,1.978
	c0.783,1.158,1.681,0.161,2.601,0.161c0.259,1.77,1.108,3.175,2.818,3.98c-0.113,0.608-0.209,1.115-0.347,1.856
	c0.768-0.112,1.345-0.195,2.052-0.298c0.175,0.148,0.408,0.345,0.699,0.59c-0.367,0.608-0.639,1.057-1.065,1.764
	c0.856,0,1.475,0,2.396,0c-0.172,0.748-0.299,1.292-0.449,1.938c0.455,0.207,0.942,0.429,1.496,0.68
	c-0.02,0.419-0.039,0.84-0.057,1.217c0.398,0.435,0.771,0.841,1.167,1.273c-0.152,0.539-0.283,1.002-0.407,1.445
	c1.172,1.28,1.486,1.238,0.519,2.847c1.214,1.6,1.214,1.6,0.464,3.374c0.768,0.635,0.938,1.37,0.696,2.45
	c-0.289,1.293-0.048,2.695-0.179,4.036c-0.111,1.143-0.673,2.091-1.96,2.787c0.052-0.625-0.015-1.077,0.138-1.438
	c0.861-2.055,0.78-4.208,0.562-6.325c-0.391-3.819-1.393-7.517-2.613-11.152c-0.035-0.105-0.162-0.181-0.442-0.48
	c-0.489,0.216-1.066,0.471-1.87,0.825c0.173,0.856,0.239,1.654,0.494,2.387c1.537,4.418,1.783,8.963,1.411,13.574
	c-0.035,0.431-0.198,0.852-0.324,1.369c-0.667,0.215-1.356,0.437-2.194,0.707c-1.117-1.355-2.232-2.776-3.421-4.133
	c-1.277-1.458-2.513-2.985-3.972-4.242c-1.417-1.22-2.68-0.855-3.83,0.893c2.572,1.974,4.238,4.683,5.423,7.667
	c1.167,2.947,2.96,5.715,2.928,9.076c-0.771,0.583-1.513,1.145-2.171,1.643c-0.302,1.335-0.574,2.54-0.889,3.931
	c-0.729-0.4-1.248-0.687-1.744-0.959c-1.546,0.545-1.162,2.18-2.007,3.215c-1.132-0.217-1.75-1.894-3.338-1.292
	c-1.536,1.522-0.798,3.843-1.661,6.03c-0.544-0.959-0.948-1.674-1.438-2.539c-1.861,0.781-0.777,2.626-1.611,3.817
	c-1.28-0.964-1.45-3.055-3.224-3.497c-1.465,0.583-0.428,2.136-1.399,3.167c-1.221-1.633-2.391-3.198-3.568-4.772
	c-1.668,0.577-1.005,2.606-2.461,3.404c-0.995-1.475-2.001-2.965-3.059-4.531c-0.525,0.087-1.054,0.176-1.604,0.268
	c-0.517-1.267-1.029-2.522-1.562-3.828c-0.753,0.146-1.345,0.26-2.05,0.396c-0.438-1.983-0.341-3.913-0.334-5.841
	c0.009-2.011,0.776-3.724,1.749-5.444c1.14-2.018,2.055-4.163,3.032-6.269c0.23-0.496,0.326-1.054,0.452-1.476
	c-0.618-0.99-1.34-0.854-2.084-0.558c-1.363,0.542-2.201,1.607-2.864,2.864c-1.669,3.169-3.343,6.335-5.046,9.486
	c-0.582,1.077-1.052,2.268-2.311,2.971c-1.501-2.661-2.585-5.386-2.826-8.372c-0.213-2.628-0.208-5.257,0.199-7.887
	c0.207-1.329,0.437-2.744-0.412-3.977c-1.422-0.014-1.875,0.177-2.223,1.467c-0.489,1.811-0.975,3.661-1.113,5.521
	c-0.233,3.128-0.213,6.259,0.621,9.358c0.534,1.987,1.443,3.74,2.539,5.423c1.353,2.076,2.243,4.314,2.709,6.755
	c-2.09,0.044-3.821-0.758-4.897-2.293c0.339-0.513,0.701-1.057,1.055-1.588c-0.723-0.83-1.351,0.066-2.153-0.119
	c-0.156-0.228-0.389-0.567-0.618-0.905c0.431-0.651,0.817-1.232,1.39-2.096c-0.918,0.054-1.445,0.084-2.186,0.127
	c-0.314-0.786-0.651-1.626-0.952-2.379c0.513-0.671,0.909-1.19,1.441-1.886c-0.675-0.196-1.112-0.323-1.666-0.483
	c-0.058-0.523-0.12-1.065-0.177-1.579c0.567-0.435,1.047-0.803,1.728-1.325c-0.669-0.284-1.142-0.483-1.719-0.728
	c0-0.62,0-1.292,0-2.028c0.411-0.377,0.851-0.779,1.439-1.32c-0.496-0.271-0.836-0.456-1.276-0.695
	c0.206-1.352,0.024-2.834,1.19-3.879c-0.338-1.77,0.026-3.186,1.335-3.925c0.227-1.12,0.401-1.989,0.566-2.799
	c0.636-0.372,1.113-0.65,1.666-0.974c-0.329-1.578,0.459-2.586,1.241-2.979c1.307-1.958,2.521-3.357,3.239-4.977
	c0.69-1.557,0.866-3.341,1.264-5.009c0.96-0.266,1.757,0.9,2.803,0.159c-0.469-1.069-1.605-0.973-2.48-1.69
	c0.1-0.505,0.225-1.132,0.347-1.749c1.075-0.012,1.573,1.445,2.9,0.542c-0.726-0.765-1.42-1.498-2.225-2.346
	c0.159-0.632,0.339-1.346,0.514-2.037c1.435-0.067,1.722,2.15,3.707,1.443c-0.986-1.155-1.809-2.118-2.745-3.215
	c0.516-0.581,0.987-1.11,1.415-1.592c1.568,0.581,1.823,2.606,3.704,2.704C88.229,27.263,86.48,26.578,86.039,24.975z
	 M103.855,45.895c1.742,1.619,4.166,2.301,6.188,1.683c0.548-0.167,1.043-0.643,1.456-1.077c0.507-0.532,0.881-1.187,1.347-1.76
	c1.209-1.489,1.385-3.088,0.302-4.488c-1.106-1.428-2.492-2.447-4.433-2.511c-2.968-0.099-5.791,0.211-8.023,2.515
	c-0.808-0.086-1.548-0.193-2.291-0.239c-1.628-0.102-3.257-0.24-4.886-0.244c-2.796-0.006-4.268,1.799-5.278,4.11
	c-0.37,0.844-0.37,1.719,0.364,2.586c0.494,0.275,1.095,0.611,1.758,0.98c0.295,0.462,0.627,0.98,0.948,1.481
	c3.384,0.985,5.767-0.277,7.604-3.519c0.844,2.566-0.582,4.44-0.89,6.543c0.541,0,0.876,0,1.129,0
	c0.438-0.787,0.812-1.454,1.173-2.1c1.096,0.541,1.387,2.002,3.028,1.475c-0.434-0.729-0.736-1.403-1.185-1.96
	c-0.905-1.123-1.191-2.318-0.635-3.944c0.611-0.256,1.369-0.575,2.254-0.945C103.818,45.115,103.834,45.476,103.855,45.895z
	 M91.758,74.999c0.614,0.368,1.207,0.852,1.884,1.1c1.228,0.45,2.494,0.813,3.769,1.117c3.408,0.814,6.8,1.119,10.121-0.44
	c2.129-1,4.137-2.136,5.369-4.243c0.4-0.684,0.909-1.396,0.233-2.465c-0.694,0.487-1.367,0.957-2.081,1.457
	c-0.545-0.571-1.047-1.096-1.589-1.66c-1.608,0.876-3.124,1.701-4.638,2.524c-0.078,0.799-0.152,1.529-0.244,2.451
	c-1.058,0.062-2.049,0.214-3.025,0.157c-2.707-0.158-5.334-0.755-7.857-1.752c-0.647-0.256-1.249-0.659-1.941,0.006
	C91.758,73.75,91.758,74.298,91.758,74.999z M109.033,28.816c-0.828,0-1.689-0.009-2.55,0.001
	c-3.731,0.047-7.298,1.114-10.909,1.859c-1.5,0.31-2.904,1.113-4.324,1.755c-0.332,0.15-0.549,0.556-0.818,0.843
	c0.076,0.157,0.152,0.312,0.229,0.469c2.047-0.271,3.757-1.714,5.8-2.03c2.104-0.326,4.176-0.873,6.287-1.138
	c2.096-0.263,4.219-0.297,6.359-0.433c0.043-0.193,0.112-0.367,0.109-0.539C109.215,29.428,109.141,29.253,109.033,28.816z
	 M93.903,57.844c0.572,1.298,0.978,1.818,1.832,2.105c1.417,0.476,2.856,0.886,4.279,1.321c0.806-0.551,0.747-1.282,0.411-2.005
	C99.42,57.098,95.975,56.314,93.903,57.844z M103.013,60.094c1.277,1.137,2.432,1.026,3.101-0.276
	c0.734-1.435,1.375-2.917,2.044-4.385c0.04-0.09-0.045-0.237-0.075-0.371c-0.831-0.583-1.574-0.328-2.145,0.365
	C104.786,56.824,103.593,58.208,103.013,60.094z M95.251,33.318c-0.015,0.205-0.028,0.41-0.043,0.615
	c1.813,0.48,3.626,0.96,5.317,1.407c1.459-1.203,3.125-1.809,3.802-3.987c-1.633,0.932-2.951,1.684-4.188,2.389
	C98.438,33.519,96.886,32.501,95.251,33.318z M103.438,23.997c-1.335,0.088-1.553,0.701-1.59,1.424
	c-0.018,0.341,0.061,0.688,0.104,1.115c0.447-0.049,0.785-0.086,1.258-0.138C103.286,25.589,103.354,24.865,103.438,23.997z
	 M97.121,25.093c-1.307,0.184-1.414,0.826-1.285,1.567c0.125,0.701,0.479,1.126,1.479,0.792
	C97.254,26.718,97.193,25.966,97.121,25.093z M104.615,27.094c0.499,0.06,0.885,0.105,1.27,0.151
	c0.396-0.822,0.799-1.518,0.232-2.368C104.96,25.092,104.768,25.908,104.615,27.094z M99.936,26.776
	c0.909-0.752,0.755-1.567,0.562-2.434C98.87,25.002,98.691,25.702,99.936,26.776z M94.168,26.472
	c-1.116,0.145-1.114,0.723-0.948,1.279c0.112,0.374,0.409,0.693,0.677,1.124c0.352-0.25,0.586-0.415,0.92-0.651
	C94.593,27.621,94.388,27.07,94.168,26.472z M115.955,48.006c-0.585,0.517-1.173,1.033-1.879,1.656
	C115.744,50.243,116.045,50.002,115.955,48.006z M85.476,53.523c-0.545,0.463-0.798,0.679-1.075,0.914
	c0.397,0.829,0.797,1.431,2.042,1.313C86.107,54.979,85.857,54.403,85.476,53.523z M119.998,49.794
	c0.523,0.628,0.973,0.592,1.371,0.167c0.432-0.46,0.443-0.962-0.168-1.7C120.738,48.851,120.363,49.329,119.998,49.794z
	 M78.914,56.976c0.73,0.184,1.153,0.29,1.576,0.395c0.092-0.106,0.185-0.213,0.277-0.321c-0.269-0.435-0.537-0.871-0.939-1.521
	C79.463,56.107,79.286,56.385,78.914,56.976z M81.041,53.352c-0.674-1.453-0.688-1.458-1.813-0.635
	C79.68,53.381,80.182,53.807,81.041,53.352z M94.666,65.668c0.16-0.919,0.251-1.451,0.344-1.983
	c-0.15-0.074-0.299-0.147-0.447-0.221c-0.367,0.394-0.734,0.788-1.182,1.269C93.81,65.045,94.04,65.212,94.666,65.668z
	 M82.893,61.892c-0.839-0.646-1.379-0.625-1.879,0.232C81.656,62.798,82.184,62.764,82.893,61.892z M116.805,51.696
	c1.369,0.042,1.369,0.042,1.271-1.348C117.154,50.35,116.795,50.815,116.805,51.696z M80.007,65.214
	c-0.425,0.487-0.668,0.765-0.937,1.07c0.618,0.648,1.121,0.977,1.848,0.2C80.658,66.12,80.426,65.799,80.007,65.214z
	 M122.793,57.866c-0.68,0.591-1.041,0.904-1.502,1.305C122.664,59.599,122.664,59.599,122.793,57.866z M109.531,60.052
	c0.429,0.839,0.924,0.935,1.676,0.527C110.93,59.443,110.318,59.715,109.531,60.052z M79.325,62.758
	c-0.736-1.333-0.736-1.333-1.66-0.314C78.322,62.568,78.824,62.664,79.325,62.758z M89.002,52.694
	c0.842,0.763,0.842,0.763,1.741,0.478c-0.179-0.322-0.349-0.626-0.572-1.032C89.747,52.34,89.4,52.505,89.002,52.694z
	 M106.878,61.903c-0.058,0.194-0.114,0.388-0.171,0.582c0.488,0.487,0.981,0.937,1.984-0.071
	C107.94,62.202,107.41,62.053,106.878,61.903z M117.581,44.834c1.391,0.457,1.391,0.457,1.307-1.151
	C118.391,44.121,118.037,44.432,117.581,44.834z M84.161,58.79c-0.206-1.535-0.206-1.535-1.383-0.681
	C83.314,58.373,83.737,58.582,84.161,58.79z M122.439,52.384c0.934,0.251,1.516,0.249,1.493-0.798
	C123.079,51.481,123.079,51.481,122.439,52.384z M83.852,49.406c-0.826-0.564-1.359-0.732-1.955,0.047
	C82.479,49.97,83,50.099,83.852,49.406z M80.208,48.143c-0.386-1.366-0.386-1.366-1.604-0.548
	C79.201,47.798,79.631,47.946,80.208,48.143z M117.42,39.23c0.019,0.165,0.035,0.329,0.053,0.494
	c0.437-0.034,0.872-0.067,1.496-0.114C118.354,38.399,117.889,38.757,117.42,39.23z M120.223,42.092
	c0.546,0.401,0.982,0.569,1.492-0.149C121.181,41.192,120.746,41.259,120.223,42.092z M100.464,65.74
	c0.388-0.077,0.775-0.153,1.505-0.298C101.132,64.643,100.723,64.572,100.464,65.74z M97.356,65.611
	c-0.243-0.758-0.345-1.075-0.526-1.641c-0.378,0.478-0.572,0.723-0.864,1.092C96.387,65.228,96.639,65.328,97.356,65.611z
	 M119.311,54.221c0.043,0.14,0.086,0.279,0.128,0.418c0.336-0.021,0.674-0.043,1.212-0.078c-0.229-0.444-0.352-0.683-0.542-1.057
	C119.774,53.803,119.543,54.012,119.311,54.221z M105.568,64.946c-0.086-1.09-0.442-1.232-1.028-0.96
	c-0.091,0.042-0.132,0.192-0.284,0.428C104.62,64.562,104.957,64.698,105.568,64.946z"/>
<path fill-rule="evenodd" clip-rule="evenodd" fill="#faae19" class="fill" d="M39.388,129.587c0.697,2.848-0.946,5.316-0.977,7.947
	c0.592,0.248,1.043,0.438,1.661,0.697c1.021-1.452,2.049-2.915,3.078-4.377c-0.289,1.716-0.646,3.385-1.638,4.829
	c-1.245,1.813-1.661,3.849-1.738,5.984c0.987,0.459,1.21-0.239,1.447-0.789c1.432-3.334,3.643-6.146,5.925-8.911
	c0.159-0.193,0.299-0.403,0.477-0.646c1.854,0.697,3.59,1.352,5.29,1.992c-1.577,5.542-6.427,8.837-8.87,13.685
	c0.731,0.673,1.197,0.282,1.645-0.21c1.942-2.14,3.976-4.205,5.79-6.447c1.094-1.351,1.869-2.964,2.743-4.485
	c0.716-1.247,1.367-2.531,2.073-3.847c0.433,0.106,0.772,0.189,1.139,0.278c-0.022,0.279,0.022,0.494-0.061,0.63
	c-1.595,2.622-3.2,5.238-4.818,7.845c-0.364,0.585-0.88,1.09-1.163,1.708c-0.512,1.116-0.899,2.289-1.102,3.69
	c0.484-0.318,1.114-0.533,1.432-0.973c2.244-3.097,4.432-6.236,6.619-9.374c0.437-0.625,0.797-1.302,1.498-1.8
	c-0.622,1.946-1.243,3.892-1.875,5.869c-2.839,0.511-3.244,3.077-4.347,5.047c-0.15,0.269-0.228,0.589-0.286,0.896
	c-0.749,3.871-3.643,5.665-6.887,7.115c-0.096,0.043-0.241-0.021-0.434-0.044c-0.15-1.131-0.304-2.28-0.453-3.397
	c-2.253-0.854-2.686,1.802-4.594,1.883c0.569-2.782-0.011-5.622,1.215-8.332c-1.512-0.438-1.574,0.756-2.052,1.346
	c-0.551,0.678-1.025,1.417-1.554,2.159c-1.392,0-2.753,0-4.286,0c0.378-3.317,2.119-6.06,2.92-9.091
	c-2.212,0.915-4.415,5.056-4.938,9.394c-0.356,0.179-0.778,0.392-1.39,0.7c-0.592-1.21-1.129-2.309-1.684-3.443
	c0.335-1.377,0.671-2.756,1.094-4.496c-1.939,0.724-2.615,2.079-2.964,3.483c-0.374,1.511-1.145,2.605-2.407,3.53
	c-1.223-1.034-1.104-3.006-2.84-3.87c-0.633,0.445-1.324,0.934-2.125,1.499c-0.949-1.084-0.768-2.492-0.655-3.677
	c0.562-5.87,1.098-11.756,3.209-17.349c0.665-1.761,1.164-3.583,1.756-5.372c0.13-0.392,0.331-0.76,0.7-1.586
	c0.32,1.034,0.507,1.64,0.719,2.321c-2.207,5.085-3.977,10.286-3.171,15.973c0.035,0.24,0.307,0.445,0.724,1.018
	c0.52-4.983,1.377-9.477,3.561-13.64c0.422,1.045,0.564,2.081,0.123,3.156c-0.381,0.93-0.732,1.872-1.113,2.801
	c-1.227,3.006-1.646,6.164-1.771,9.376c-0.007,0.225,0.086,0.455,0.205,1.038c0.514-0.621,0.834-1.007,1.243-1.501
	c0.114,0.262,0.237,0.547,0.323,0.748c0.436-0.168,0.688-0.184,0.765-0.307c0.421-0.686,0.864-1.37,1.18-2.106
	c1.008-2.356,1.964-4.735,2.987-7.222c0.661,0.183,1.1,0.304,1.601,0.443c-0.414,2.708-1.309,5.227-0.998,7.909
	c1.229,0.274,1.581-0.614,1.979-1.374c0.845-1.612,1.591-3.279,2.499-4.854C36.655,131.606,37.664,130.263,39.388,129.587z"/>
<path fill-rule="evenodd" clip-rule="evenodd" fill="#faae19" class="fill" d="M91.796,131.794c-1.453,0.326-2.145,1.307-2.75,2.312
	c-1.84,3.047-4.228,5.609-6.861,7.965c-1.241,1.11-2.61,1.987-4.312,2.125c-0.662,0.054-1.337-0.073-1.929-0.112
	c-1.098-1.684-0.474-3.104,0.326-4.375c1.201-1.912,2.581-3.713,3.874-5.568c0.882-1.262,1.019-1.722,1.13-3.542
	c-0.713-0.591-1.221-0.285-1.672,0.385c-1.257,1.866-2.477,3.76-3.798,5.579c-1.319,1.818-1.992,1.903-4.149,0.798
	c-0.609-0.741-0.449-1.562-0.135-2.323c0.912-2.2,1.756-4.443,2.885-6.529c0.495-0.914,1.619-1.486,2.624-2.36
	c0.691,1.79-1.19,2.843-0.511,4.512c1.252,0.414,2.494-0.392,3.659-0.91c2.452-1.09,4.799-2.418,7.321-3.717
	c0.171,0.574,0.377,1.269,0.635,2.137c0.349,0.104,0.79,0.237,1.43,0.43c0.806-1.629,1.563-3.163,2.439-4.937
	c0.809,1.89,1.484,3.473,2.075,4.854c1.04,0.518,1.584,0.234,1.985-0.46c0.629-1.087,1.224-2.195,1.891-3.258
	c0.586-0.933,1.251-1.815,2.029-2.932c1.353,2.46,0.344,5.177,1.89,7.267c0.198,2.673-0.043,5.352-0.685,7.994
	c-0.556,2.292-1.532,3.109-4.312,3.458c0.704-3.285,1.389-6.482,2.074-9.687c-0.386-0.121-0.564-0.234-0.727-0.215
	c-0.302,0.034-0.594,0.145-0.965,0.245c-0.236,0.656-0.479,1.297-0.698,1.946c-1.25,3.707-2.844,7.265-5.067,10.479
	c-0.754,1.088-1.946,1.942-3.084,2.676c-1.164,0.749-2.492,0.762-3.9-0.182c0.523-0.89,1.008-1.806,1.578-2.664
	c1.522-2.297,3.111-4.551,4.615-6.859C91.554,135.018,91.794,133.831,91.796,131.794z"/>
<path fill-rule="evenodd" clip-rule="evenodd" fill="#faae19" class="fill" d="M80.18,151.397c-0.067-0.548-0.094-0.794-0.128-1.039
	c-0.025-0.186-0.059-0.369-0.126-0.776c0.759-0.489,1.58-1.019,2.302-1.484c5.79,2.049,9.613,0.718,13.558-4.715
	c0.475-0.049,1.087-0.115,1.698-0.179c0.562-0.058,1.132-0.075,1.686-0.177c3.875-0.718,5.337-2.238,6.001-6.19
	c0.052-0.303,0.146-0.598,0.281-1.139c2.156-0.361,4.354-0.729,6.747-1.13c-0.101,0.678-0.166,1.118-0.267,1.786
	c0.683,0.061,1.273,0.18,1.856,0.156c4.464-0.186,7.746,2.147,10.741,5.049c0.311,0.301,0.315,0.918,0.463,1.389
	c-0.125,0.078-0.249,0.156-0.372,0.234c-1.32-0.902-2.671-1.762-3.952-2.715c-2.523-1.878-5.343-3.02-8.43-3.535
	c-0.921-0.154-1.885-0.4-2.627,0.938c0.576,0.258,1.076,0.638,1.615,0.701c4.751,0.556,8.404,3.199,11.764,6.284
	c1.479,1.357,2.374,2.379,1.274,4.506c-0.903-0.971-1.788-1.911-2.663-2.861c-2.882-3.135-6.521-5.038-10.471-6.438
	c-0.709-0.251-1.426-0.489-2.124-0.772c-0.778-0.316-1.462-0.308-2.111,0.545c0.058,0.247,0.136,0.588,0.223,0.967
	c-0.232,0.295-0.494,0.629-0.771,0.982c1.36,1.241,2.671,2.436,3.98,3.629c-0.098,0.146-0.192,0.292-0.289,0.438
	c-0.828-0.355-1.655-0.71-2.567-1.101c-2.156,1.036-4.985,0.431-6.609,2.612c-2.805-1.167-2.805-1.167-4.045-0.57
	c0.556,0.626,1.068,1.201,1.73,1.946c-0.691,0.59-1.379,1.173-2.168,1.847c-1.388-0.591-2.754-1.173-4.101-1.748
	c-0.836,1.321-0.836,1.321,2.605,3.438c-0.293,0.822-0.596,1.673-0.969,2.718c-3.274-1.036-6.353-2.159-9.464-3.578
	c0,0.541,0,0.946,0,1.438c2.525,2.479,6.203,2.516,9.235,4.209c0.134,0.461,0.285,0.986,0.503,1.745
	c-4.396-0.384-8.362-1.559-12.044-3.488c-0.718,0.263-0.86,0.751-0.478,1.211c0.47,0.564,1.023,1.113,1.65,1.483
	c2.773,1.636,5.914,1.996,9.02,2.463c1.526,0.229,3.047,0.495,4.925,0.801c-0.522,0.437-0.744,0.777-1.021,0.83
	c-4.641,0.885-9.304,1.491-14.025,0.679c-0.538-0.093-1.023-0.466-1.559-0.614c-0.613-0.17-1.257-0.235-1.937-0.354
	c-0.045,0.622-0.07,0.962-0.128,1.776c-1.104-1.31-1.946-2.31-2.908-3.451c1.316-0.371,2.312-0.651,3.207-0.903
	c0.479-1.214-0.251-1.793-0.836-2.443c-0.869-0.963-1.994-1.764-2.131-3.236C77.332,152.844,78.714,152.141,80.18,151.397z"/>
<path fill-rule="evenodd" clip-rule="evenodd" fill="#faae19" class="fill" d="M87.474,77.974c0.495,1.472,0.984,2.925,1.53,4.547
	c0.677-0.184,1.249-0.34,2.01-0.547c0.994,1.361,2.048,2.807,3.017,4.134c2.099,0.341,2.032-1.566,2.994-2.447
	c1.652,1.229,2.194,3.522,4.405,4.509c0.382-1.025,0.735-1.973,1.141-3.06c1.054,0.93,1.355,2.086,1.861,3.136
	c0.475,0.988,0.41,2.356,1.792,2.925c1.067-1.341,0.398-2.888,0.812-4.339c0.608,0.444,1.089,0.795,1.776,1.297
	c1.646-2.331,0.777-5.22,2.009-7.665c0.951,0.624,1.853,1.215,2.681,1.759c1.488-0.619,1.188-2.154,2.009-3.076
	c0.534,0.292,1.065,0.585,1.623,0.891c1.484-0.894,1.448-2.453,1.768-3.807c0.205-0.87,0.258-1.754,1.262-2.116
	c1.781,1.939,2.233,8.126,0.873,12.385c-0.314-0.016-0.656-0.034-1.035-0.053c-0.314-1.365-0.605-2.628-0.938-4.067
	c-0.553,0.25-0.905,0.411-1.294,0.587c0.159,0.792,0.286,1.466,0.431,2.136c0.44,2.042,0.69,4.051,0.014,6.129
	c-0.357,1.094-0.33,2.313-0.506,3.711c-1.427-1.104-1.431-2.521-1.602-3.813c-0.23-1.74-0.313-3.5-0.477-5.25
	c-0.033-0.36-0.145-0.712-0.223-1.086c-0.984-0.287-1.188,0.264-1.16,0.968c0.054,1.378,0.161,2.756,0.251,4.134
	c0.048,0.727,0.105,1.453,0.159,2.179c-0.137,0.024-0.273,0.048-0.41,0.073c-0.549-2.204-1.1-4.407-1.662-6.663
	c-0.494,0-0.834,0-1.417,0c0.504,2.543,0.983,4.965,1.477,7.458c-0.693-0.041-1.214-0.072-1.933-0.114
	c-0.301,1.201-0.582,2.332-0.883,3.537c-1.11-0.468-0.521-1.811-1.235-2.537c-0.962-0.248-1.3,0.355-1.474,1.175
	c-0.244,1.15-0.485,2.301-0.961,3.459c-1.562-2.915-1.398-6.235-2.384-9.364c-0.403,0.06-0.739,0.109-1.237,0.182
	c0.392,2.65,0.768,5.213,1.158,7.864c-1.311-0.349-1.311-0.349-2.643-2.284c-0.167-1.795-0.342-3.695-0.525-5.676
	c-0.497,0.075-0.73,0.11-1.124,0.169c0,0.948,0,1.864,0,2.779c-0.121,0.071-0.242,0.141-0.362,0.21
	c-0.594-0.566-1.188-1.133-1.846-1.759c0-0.802,0-1.596,0-2.821c-0.705,0.621-1.127,0.991-1.615,1.419
	c-0.893-0.511-1.808-1.035-2.768-1.585c0-0.594,0-1.187,0-2.028c-3.67-1.302-7.304-2.592-11.088-3.935
	c-0.062-2.952,1.049-5.631,2.581-8.288c0.185,1.679,0.37,3.357,0.552,5.012C85.885,78.715,85.885,78.715,87.474,77.974z"/>
<path fill-rule="evenodd" clip-rule="evenodd" fill="#faae19" class="fill" d="M23.104,153.907c-2.022,0.392-3.029,1.805-4.01,3.24
	c-0.567,0.829-1.052,1.719-1.672,2.503c-0.342,0.431-0.886,0.7-1.533,0.884c0.185-2.062,1.413-3.537,2.454-5.239
	c-0.312,0.185-0.669,0.322-0.928,0.563c-1.667,1.552-2.967,3.367-3.974,5.417c-0.36,0.735-0.987,1.339-1.604,2.151
	c-1.088-3.319,2.995-10.961,6.655-13.107c0.515-0.065,1.068-0.136,1.622-0.206c0.107,0.092,0.215,0.184,0.322,0.276
	c0.414-0.612,0.828-1.224,1.363-2.017c0.512,1.261,0.925,2.279,1.36,3.356c2.379,0.621,4.708,1.266,7.059,1.812
	c0.505,0.117,1.1-0.102,1.644-0.211c1.587-0.318,3.171-0.65,4.831-0.326c-0.397,1.715-0.774,3.343-1.169,5.043
	c2.262,1.505,4.072-0.309,6.122-0.46c0,0.663,0,1.314,0,1.991c0.938,0.943,1.99,0.429,3.228,0.222
	c0.316,0.386,0.706,0.863,1.221,1.493c-0.084,0.399-0.192,0.921-0.36,1.714c-2.799-0.583-5.457-1.137-8.116-1.691
	c0.01-0.121,0.02-0.242,0.028-0.363c-1.629,0.39-3.257,0.78-4.964,1.188c-0.253-0.709-0.456-1.281-0.653-1.833
	c-0.722-0.73-1.451-0.62-2.227-0.125c-1.575,1.005-3.165,1.987-4.747,2.977c-0.52-0.753-1.007-1.46-1.519-2.203
	c0.27-1.966,1.484-3.504,2.728-5.184c-1.553-0.357-2.242,0.626-2.79,1.516c-0.88,1.43-1.569,2.977-2.436,4.661
	c-0.524,0.268-1.214,0.621-2.053,1.049C18.309,158.859,21.204,156.686,23.104,153.907z"/>
<path fill-rule="evenodd" clip-rule="evenodd" fill="#faae19" class="fill" d="M122.873,155.32c-1.967,0.56-3.716,1.058-5.894,1.677
	c0.759-1.245,1.262-2.073,1.926-3.162c-1.866,0.37-2.78,1.757-4.285,2.531c-0.347-0.422-0.719-0.877-1.095-1.336
	c0.268-0.588,0.492-1.079,0.854-1.871c-0.832,0.124-1.396,0.208-1.837,0.273c-1.481-0.748-2.844-1.499-4.26-2.134
	c-1.574-0.706-4.657,0.182-5.849,1.61c-0.32,0.384-0.58,0.818-0.901,1.202c-1.1,1.318-2.532,1.749-4.19,1.562
	c-0.562-2.405,0.2-4.041,2.278-5.068c1.451-0.718,2.911-1.435,4.289-2.278c1.824-1.115,3.559-0.655,5.147,0.302
	c2.399,1.445,4.965,2.359,7.657,3.03c1.211,0.301,2.389,0.758,3.551,1.217C121.34,153.3,122.185,154.031,122.873,155.32z"/>
<path fill-rule="evenodd" clip-rule="evenodd" fill="#faae19" class="fill" d="M171.966,170.37c0.058,0.393,0.137,0.935,0.249,1.696
	c-1.141,0.431-2.202,0.971-3.328,1.234c-4.371,1.023-8.793,1.271-13.232,0.488c-1.875-0.331-3.56-1.098-4.916-2.521
	c0.395-1.297,1.343-1.792,2.477-2.1c2.736-0.74,5.475-0.56,8.167,0.106c2.655,0.656,5.312,0.802,8,0.45
	C170.284,169.604,171.128,169.518,171.966,170.37z"/>
<path fill-rule="evenodd" clip-rule="evenodd" fill="#faae19" class="fill" d="M71.559,43.3c0.381,0.345,0.559,0.507,0.744,0.675
	c-0.053,0.221-0.055,0.421-0.145,0.566c-0.594,0.958-1.205,1.905-1.789,2.82c-1.233,0.418-2.783,0.124-3.316,1.696
	c0.594,0.938,1.307,0.001,2.094,0.314c-0.226,0.587-0.455,1.185-0.663,1.722c-2.926,0.932-5.463,2.416-7.946,3.987
	c-0.547,0.346-0.94,0.936-1.394,1.403c0.51,0.73,0.894,0.521,1.38,0.238c2.005-1.167,4.033-2.295,6.062-3.419
	c0.246-0.136,0.551-0.164,1.191-0.344c-0.396,1.091-0.685,1.885-0.991,2.729c-3.386,1.987-6.758,3.967-10.404,6.106
	c0.738-1.487,1.318-2.629,1.864-3.788c0.062-0.136-0.061-0.361-0.121-0.663c-0.459-0.156-0.965-0.327-1.659-0.563
	C60.023,50.604,65.811,47.103,71.559,43.3z"/>
<path fill-rule="evenodd" clip-rule="evenodd" fill="#faae19" class="fill" d="M101.172,159.575c0.474-0.222,1.067-0.501,1.728-0.812
	c2.393,3.205,4.511,6.535,8.668,7.479c-0.061,1.571-1.19,2.049-2.104,2.652C105.516,168.439,100.056,163.414,101.172,159.575z"/>
<path fill-rule="evenodd" clip-rule="evenodd" fill="#faae19" class="fill" d="M109.99,163.046c-1.6-0.837-2.318-2.384-3.447-3.521
	c-1.158-1.167-1.51-2.659-1.552-4.325c0.569-0.644,1.427-0.785,1.926-0.164c1.858,2.317,4.499,3.001,7.267,3.602
	C113.857,161.189,112,162.063,109.99,163.046z"/>
<path fill-rule="evenodd" clip-rule="evenodd" fill="#faae19" class="fill" d="M99.38,168.663c0.21-0.67,0.478-1.517,0.86-2.734
	c2.491,2.55,5.204,4.018,8.284,5.085c-0.562,1.605-1.059,3.049-2.739,3.878C102.869,173.796,100.938,171.619,99.38,168.663z"/>
<path fill-rule="evenodd" clip-rule="evenodd" fill="#faae19" class="fill" d="M97.148,163.792c0.242,0.514,0.394,0.836,0.517,1.094
	c-0.481,1.047-1.305,1.232-2.214,1.331c-2.118,0.231-4.244,0.43-6.342,0.785c-1.406,0.238-2.77,0.725-4.273,1.132
	c-0.979-1.812-3.724-1.35-4.612-3.724C85.93,165.779,91.462,164.742,97.148,163.792z"/>
<path fill-rule="evenodd" clip-rule="evenodd" fill="#faae19" class="fill" d="M34.191,166.076c0.613,1.87,1.15,3.503,1.686,5.136
	c-3.973,0.886-6.498-0.327-7.398-4.063C30.749,165.112,32.191,164.856,34.191,166.076z"/>
<path fill-rule="evenodd" clip-rule="evenodd" fill="#faae19" class="fill" d="M57.877,143.899c0.506-0.209,0.96-0.398,1.461-0.605
	c0.885-2.007,1.768-4.005,2.702-6.123c0.438,0.151,0.806,0.277,1.156,0.398c-0.815,4.5-4.509,15.156-5.776,16.534
	c-0.375-1.251,0.418-2.184,0.634-3.2c0.22-1.033,0.6-2.04,0.988-3.027c0.406-1.031,0.907-2.024,1.401-3.109
	c-1.047-0.458-1.595-0.036-2.119,0.547c-1.169,1.3-1.652,2.923-2.19,4.527c-0.221,0.657-0.515,1.289-1.019,1.833
	C55.396,148.902,56.367,146.39,57.877,143.899z"/>
<path fill-rule="evenodd" clip-rule="evenodd" fill="#faae19" class="fill" d="M186.346,172.052c-0.852,0.551-1.766,0.62-2.515,0.111
	c-1.928-1.307-4.08-1.89-6.202-2.143c-1.144-1.415-2.179-2.699-3.365-4.167c2.396,0.127,4.268,1.046,6.165,1.814
	c1.452,0.587,2.833,1.351,4.226,2.074C185.574,170.218,186.281,170.889,186.346,172.052z"/>
<path fill-rule="evenodd" clip-rule="evenodd" fill="#faae19" class="fill" d="M123.839,30.22c-0.267,0.2-0.491,0.368-0.728,0.546
	c-0.216-0.177-0.424-0.263-0.484-0.409c-2.029-4.881-5.603-8.359-10.009-11.1c-1.155-0.719-2.269-1.506-3.687-2.452
	c0.655-0.052,1.057-0.172,1.417-0.098c2.522,0.521,4.773,1.315,6.673,3.382c2.496,2.714,4.414,5.74,6.225,8.886
	C123.46,29.347,123.617,29.751,123.839,30.22z"/>
<path fill-rule="evenodd" clip-rule="evenodd" fill="#faae19" class="fill" d="M88.972,170.825c-0.808-0.149-1.412-0.288-2.026-0.368
	c-0.546-0.071-1.1-0.079-1.672-0.309c2.967-1.397,6.199-1.303,9.438-1.955c0,1.104,0,1.953,0,3.066
	c-2.112,0.732-4.26,1.476-6.833,2.367C88.329,172.473,88.605,171.763,88.972,170.825z"/>
<path fill-rule="evenodd" clip-rule="evenodd" fill="#faae19" class="fill" d="M40.229,170.155c-0.307-0.354-0.644-0.648-0.864-1.013
	c-0.611-1.009-0.393-2.021,0.7-2.49c0.754-0.323,1.685-0.492,2.488-0.382c1.212,0.166,2.384,0.637,3.54,0.968
	C46.152,169.567,43.724,170.783,40.229,170.155z"/>
<path fill-rule="evenodd" clip-rule="evenodd" fill="#faae19" class="fill" d="M74.708,40.635c-0.867-5.127,3.33-13.076,8.646-16.621
	C79.054,28.667,77.054,34.511,74.708,40.635z"/>
<path fill-rule="evenodd" clip-rule="evenodd" fill="#faae19" class="fill" d="M109.768,141.539c3.963,1.123,7.359,3.223,10.023,6.649
	c-1.835-0.475-3.671-0.949-5.506-1.423c0.193-0.205,0.387-0.408,0.58-0.612C113.172,144.62,111.479,143.088,109.768,141.539z"/>
<path fill-rule="evenodd" clip-rule="evenodd" fill="#faae19" class="fill" d="M25.568,170.583c-2.403,0.414-4.191-0.61-5.957-1.786
	c1.312-2.444,2.042-2.841,4.594-2.49C24.633,167.65,25.078,169.046,25.568,170.583z"/>
<path fill-rule="evenodd" clip-rule="evenodd" fill="#faae19" class="fill" d="M107.46,177.685c-0.576,0.881-0.576,0.881-2.121,1.345
	c-4.712-1.834-6.59-3.607-6.548-6.403c1.4,1.173,2.585,2.453,4.026,3.292C104.233,176.743,105.911,177.118,107.46,177.685z"/>
<path fill-rule="evenodd" clip-rule="evenodd" fill="#faae19" class="fill" d="M183.98,165.281c-1.236-0.856-2.473-1.713-3.709-2.569
	c0.073-0.123,0.146-0.246,0.219-0.37c2.623,0.211,4.653,1.708,6.629,3.285c0.676,0.54,1.323,1.17,0.996,2.328
	C186.399,167.571,185.374,166.325,183.98,165.281z"/>
<path fill-rule="evenodd" clip-rule="evenodd" fill="#faae19" class="fill" d="M16.139,170.393c-0.809,0-1.411,0-2.131,0
	c-0.604-0.987-1.197-1.957-1.866-3.046c0.787-0.628,1.394-1.113,2.271-1.814C15.025,167.257,15.545,168.721,16.139,170.393z"/>
<path fill-rule="evenodd" clip-rule="evenodd" fill="#faae19" class="fill" d="M183.161,160.586c2.385,0.278,4.519,1.044,6.047,2.936
	c-1.154-0.248-2.038-1-3.034-1.549C185.208,161.442,184.169,161.043,183.161,160.586z"/>
<path fill-rule="evenodd" clip-rule="evenodd" fill="#faae19" class="fill" d="M27.607,133.267c-0.426,1.382-0.852,2.765-1.277,4.147
	c-0.142-0.05-0.281-0.099-0.423-0.148c0.226-1.459,0.545-2.884,1.699-3.996L27.607,133.267z"/>
<path fill-rule="evenodd" clip-rule="evenodd" fill="#faae19" class="fill" d="M150.812,163.491c0.052,0.606,0.103,1.213,0.159,1.893
	c-0.296,0.062-0.515,0.108-1.146,0.241c0.429-0.883,0.726-1.495,1.022-2.106L150.812,163.491z"/>
<path fill-rule="evenodd" clip-rule="evenodd" fill="#faae19" class="fill" d="M28.096,130.986c0.18-0.553,0.36-1.105,0.54-1.658
	c0.56,0.81,0.096,1.311-0.363,1.812C28.213,131.089,28.154,131.037,28.096,130.986z"/>
<path fill-rule="evenodd" clip-rule="evenodd" fill="#faae19" class="fill" d="M27.606,133.269c-0.049-0.807-0.198-1.634,0.489-2.283
	c0.059,0.051,0.117,0.103,0.177,0.154c-0.222,0.709-0.442,1.418-0.665,2.126L27.606,133.269z"/>
<path fill-rule="evenodd" clip-rule="evenodd" fill="#faae19" class="fill" d="M130.541,133.293c0.031-0.157,0.062-0.313,0.095-0.47
	c0.063,0.016,0.126,0.031,0.188,0.045c-0.039,0.149-0.08,0.298-0.119,0.447C130.65,133.309,130.595,133.301,130.541,133.293z"/>
<path fill-rule="evenodd" clip-rule="evenodd" fill="#faae19" class="fill" d="M96.811,45.601c-1.16,2.211-2.432,2.761-4.465,1.937
	c-0.178-1.085,0.205-1.923,1.226-2.435C94.922,44.427,95.688,44.544,96.811,45.601z M95.452,46.774
	c-0.887-1.14-0.887-1.14-1.604,0.116C94.472,46.844,94.962,46.809,95.452,46.774z"/>
<path fill-rule="evenodd" clip-rule="evenodd" fill="#faae19" class="fill" d="M105.623,45.203c1.143-1.858,3.088-1.959,4.794-0.277
	c-0.049,0.854-0.472,1.49-1.347,1.496C107.803,46.431,106.392,46.645,105.623,45.203z M110.027,45.401
	c-1.322-1.313-1.469-1.277-2.259,0.337C108.525,45.625,109.092,45.541,110.027,45.401z"/>
<path fill-rule="evenodd" clip-rule="evenodd" fill="#faae19" class="fill" d="M109.904,72.762c-0.359,0.299-0.532,0.444-0.705,0.587
	c-0.573-0.664-0.573-0.664-0.369-1.563C109.17,72.093,109.455,72.353,109.904,72.762z"/>
</svg>
