<svg version="1.1" id="svg" xmlns="http://www.w3.org/2000/svg" xmlns:xlink="http://www.w3.org/1999/xlink" x="0px" y="0px"
	 width="200px" height="200px" viewBox="0 0 200 200" enable-background="new 0 0 200 200" xml:space="preserve">
<path class="stroke" fill="#183046"  fill-rule="evenodd" clip-rule="evenodd" d="M91.554,91.94c0.171-1.002,0.325-1.926,0.487-2.848
	c0.229-1.302-0.174-2.394-1.109-3.297c-0.386-0.373-0.788-0.733-1.209-1.066c-1.428-1.131-2.491-2.459-2.44-4.425
	c-0.517-0.376-1.016-0.741-1.459-1.065c-0.822-5.372,3.203-15.52,6.675-16.981c1.271-1.916,1.583-4.182,2.325-6.287
	c0.461-1.308,0.802-2.66,1.239-3.977c0.242-0.726,0.238-1.379-0.145-2.065c-0.186-0.333-0.201-0.763-0.293-1.146
	c0.278-0.423,0.521-0.793,0.779-1.187c0.518-0.154,1.027-0.305,1.593-0.472c0.104-0.256,0.215-0.533,0.345-0.852
	c-0.514-0.368-0.981-0.702-1.43-1.024c-0.33-1.594-0.276-1.694,1.603-3.011c0.262-0.724,0.51-1.489,0.816-2.229
	c0.318-0.771,0.879-1.34,1.621-1.734c2.899-1.539,5.816-3.02,9.191-3.194c0.398-0.021,0.794-0.127,1.272-0.208
	c0.141-0.293,0.344-0.594,0.436-0.926c0.461-1.685,1.053-3.354,1.307-5.072c0.663-4.49,2.089-8.731,4.086-12.762
	c1.723-3.478,4.263-6.273,7.691-8.241c1.484-0.852,4.098,0.352,4.551,2.105c0.301,1.165,0.552,2.374,0.588,3.57
	c0.103,3.479-0.506,6.867-1.48,10.208c-1.124,3.856-2.587,7.549-4.73,10.96c-0.377,0.601-0.659,1.262-0.981,1.887
	c1.913,2.592,4.399,4.788,4.551,8.281c1.302,1.604,1.412,2.348,0.608,4.478c0.392,0.773,0.743,1.609-0.018,2.54
	c-0.381,0.108-0.847,0.241-1.432,0.408c-0.091,0.38-0.192,0.797-0.309,1.283c1.151,0.542,1.126,1.543,1.134,2.732
	c-0.612,0.306-1.275,0.636-2.07,1.032c-1.058,3.662-2.152,7.446-3.288,11.376c0.428,1.854,0.998,3.86,0.73,5.948
	c-0.323,2.529-0.676,5.043-1.377,7.52c-0.499,1.766-1.101,3.418-2.347,4.748c-0.594,0.635-1.394,1.091-2.145,1.559
	c-0.449,0.28-1.032,0.353-1.465,0.648c-0.431,0.293-0.75,0.75-1.129,1.147c-0.325,1.119,0.396,2.463-0.894,3.575
	c0.859,0.218,1.562,0.442,2.281,0.57c4.198,0.747,7.876,2.606,11.254,5.146c1.368,1.029,2.689,2.063,3.586,3.585
	c0.858,1.455,1.162,2.956,1.022,4.625c-0.127,1.515-0.057,3.045-0.129,4.567c-0.125,2.644-0.363,5.284-0.427,7.929
	c-0.089,3.723-0.077,7.449-0.083,11.173c-0.015,9.605,0.027,19.21-0.048,28.814c-0.025,3.18-0.354,6.357-0.512,9.537
	c-0.053,1.072-0.008,2.15-0.008,3.24c1.15,1.82,0.819,3.718-0.993,5.449c-2.499,2.388-5.394,4.156-8.623,5.367
	c-3.277,1.23-6.601,2.293-10.033,3.042c-3.66,0.798-7.366,1.018-11.08,1.282c-5.379,0.382-10.638-0.588-15.931-1.26
	c-6.123-0.777-11.461-3.452-16.619-6.615c-0.039-0.023-0.081-0.042-0.115-0.07c-1.387-1.104-2.467-2.09-0.375-3.67
	c0.137-0.104,0.225-0.274,0.323-0.398c0.095-2.897,0.205-5.766,0.278-8.634c0.103-3.99,0.152-7.981,0.272-11.971
	c0.117-3.897,0.333-7.792,0.432-11.69c0.091-3.634,0.06-7.271,0.128-10.905c0.079-4.217,0.217-8.433,0.311-12.649
	c0.082-3.675,0.142-7.351,0.204-11.027c0.042-2.455,0.55-4.792,1.678-6.988c0.983-1.913,2.575-3.213,4.37-4.266
	c1.271-0.746,2.608-1.399,3.967-1.973c2.31-0.975,4.626-1.961,7.005-2.741c1.689-0.554,3.488-0.774,5.236-1.15
	C91.023,92.146,91.228,92.052,91.554,91.94z M104.846,61.271c-0.36,0.809-0.72,1.618-1.08,2.426c0.109,0.04,0.219,0.081,0.329,0.121
	c0.241-0.857,0.483-1.713,0.724-2.57c0.181-0.269,0.362-0.538,0.543-0.808c-0.102-0.04-0.205-0.08-0.307-0.12
	C104.984,60.638,104.916,60.954,104.846,61.271z M72.513,114.21c-0.09,0.059-0.18,0.118-0.271,0.177
	c-0.037,0.76-0.089,1.519-0.106,2.278c-0.072,3.27-0.129,6.539-0.201,9.809c-0.019,0.852-0.103,1.702-0.099,2.553
	c0.026,4.307,0.103,8.613,0.099,12.92c-0.003,3.096-0.15,6.191-0.154,9.287c-0.006,5.111,0.058,10.222,0.076,15.333
	c0.003,0.985-0.066,1.972-0.096,2.958c-0.077,2.423-0.113,4.848,0.424,7.231c0.481,2.132,1.596,3.888,3.7,4.642
	c3.326,1.19,6.611,2.589,10.185,2.921c2.235,0.208,4.47,0.35,6.695-0.189c1.647-0.398,2.599-1.356,2.696-3.065
	c0.174-3.042,0.367-6.085,0.468-9.131c0.107-3.225,0.116-6.453,0.17-9.68c0.049-2.958,0.104-5.917,0.147-8.875
	c0.039-2.692-0.003-5.388,0.111-8.077c0.213-5.021,0.526-10.038,0.767-15.058c0.049-1.027,0.018-2.066-0.079-3.09
	c-0.117-1.236-0.618-2.297-1.576-3.16c-1.377-1.241-3.012-1.967-4.759-2.403c-2.649-0.662-5.338-1.165-7.997-1.792
	c-3.369-0.795-6.411-2.272-9.046-4.543C73.276,114.914,72.898,114.559,72.513,114.21z M91.219,94.132
	c-0.728,0.045-1.222,0.013-1.686,0.118c-1.306,0.295-2.592,0.681-3.899,0.97c-3.269,0.721-6.295,2.086-9.255,3.576
	c-1.267,0.638-2.457,1.505-3.526,2.445c-1.751,1.54-2.504,3.552-1.754,5.824c0.711,2.153,1.89,4.044,3.87,5.347
	c1.485,0.976,3.139,1.497,4.787,2.086c5.072,1.814,10.323,2.616,15.671,2.825c5.842,0.228,11.662-0.331,17.448-0.981
	c3.022-0.34,6.041-0.995,8.962-2.086c2.564-0.958,4.726-2.319,6.462-4.374c1.507-1.783,1.501-3.808,0.097-5.668
	c-1.738-2.305-3.959-4.048-6.542-5.267c-2.346-1.108-4.782-2.029-7.193-2.997c-2.942-1.182-5.957-1.917-9.2-1.246
	c-0.144,0.547-0.299,1.142-0.471,1.796c0.206,0.066,0.41,0.175,0.622,0.191c0.612,0.047,1.233,0.013,1.84,0.092
	c0.974,0.126,1.954,0.262,2.907,0.492c1.649,0.398,3.312,0.777,4.91,1.333c3.183,1.108,5.723,3.316,8.43,5.212
	c1.688,1.181,2.504,3.787,0.694,5.934c-1.457,1.729-3.267,2.95-5.486,3.421c-2.231,0.474-4.49,0.821-6.739,1.205
	c-4.122,0.704-8.264,1.06-12.451,0.799c-2.282-0.143-4.568-0.202-6.853-0.307c-3.793-0.174-7.499-0.8-10.954-2.446
	c-2.365-1.126-4.525-2.562-6.146-4.691c-0.83-1.091-1.013-2.251-0.539-3.544c0.744-2.034,2.113-3.515,3.959-4.583
	c2.128-1.232,4.47-1.812,6.861-2.248c1.573-0.287,3.14-0.606,4.7-0.909C90.906,95.66,91.039,95.012,91.219,94.132z M120.262,37.284
	c0.41-2.053,1.525-3.607,2.374-5.275c2-3.932,3.799-7.93,4.484-12.332c0.364-2.345,0.879-4.676,0.697-7.08
	c-0.088-1.169-0.422-2.179-1.497-2.889c-1.628,0.676-2.877,1.797-3.993,3.099c-3.48,4.061-5.319,8.87-6.428,14.019
	c-0.5,2.32-0.997,4.644-1.575,6.946c-0.57,2.27-1.952,3.586-4.414,3.811c-1.726,0.157-3.426,0.628-5.126,1.008
	c-0.436,0.098-0.831,0.38-1.244,0.578c0.016,0.097,0.032,0.193,0.047,0.29c7.232,1.785,14.464,3.571,21.768,5.374
	c0.041-0.994-0.419-1.658-0.921-2.277c-1.129-1.394-2.3-2.755-3.436-4.145C120.72,38.072,120.513,37.674,120.262,37.284z
	 M113.141,183.22c0.025-0.572,0.061-0.97,0.058-1.369c-0.065-9.691-0.14-19.382-0.201-29.073c-0.03-4.711-0.066-9.422-0.044-14.134
	c0.022-4.797,0.124-9.595,0.166-14.392c0.008-0.922-0.101-1.845-0.157-2.794c-0.882-0.139-1.613-0.255-2.403-0.38
	c-0.059,0.37-0.118,0.583-0.124,0.798c-0.087,3.272-0.147,6.546-0.254,9.817c-0.157,4.841-0.353,9.679-0.516,14.519
	c-0.123,3.631-0.222,7.262-0.328,10.894c-0.088,3.046-0.234,6.093-0.24,9.141c-0.008,4.478,0.076,8.956,0.144,13.434
	c0.022,1.465,0.117,2.929,0.185,4.545C110.726,183.874,111.881,183.561,113.141,183.22z M124.705,55.056
	c-9.014-1.861-17.785-4.102-26.861-5.646c0.977,1.368-0.363,2.541,0.019,3.745c1.131,0.655,13.608,3.584,14.697,3.447
	c0.332-0.942,0.669-1.898,1.032-2.927c0.586,0.05,1.039,0.089,1.682,0.143c-0.388,1.238-0.715,2.279-1.079,3.442
	c0.664,0.175,1.238,0.326,1.854,0.488c0.426-1.032,0.8-1.937,1.205-2.918c1.766-0.481,3.372,0.105,5.146,0.658
	c-0.286,1.158-0.538,2.176-0.813,3.293c0.524,0.066,0.989,0.125,1.431,0.182C123.667,57.657,123.249,56.055,124.705,55.056z
	 M126.012,50.262c-0.266-0.161-0.368-0.265-0.485-0.287c-1.799-0.349-3.605-0.662-5.399-1.034c-2.628-0.545-5.239-1.172-7.873-1.688
	c-3.997-0.783-8.017-1.454-11.916-2.67c-0.438-0.137-0.86-0.21-1.212,0.279c0.363,0.306,0.693,0.585,1.057,0.892
	c-0.178,0.884-0.35,1.741-0.549,2.732c4.861,0.966,9.583,1.905,14.379,2.859c0.325-0.858,0.618-1.634,0.945-2.499
	c0.508,0.075,0.917,0.136,1.433,0.212c-0.165,1.014-0.305,1.873-0.467,2.86c0.591,0.101,1.09,0.187,1.62,0.277
	c0.284-0.788,0.521-1.445,0.732-2.03c1.188-0.247,3.742,0.18,4.867,0.795c-0.106,0.738-0.218,1.514-0.339,2.354
	c0.556,0.139,1.02,0.255,1.654,0.415c0.256-1.043,0.497-2.021,0.74-3.008C125.433,50.588,125.662,50.459,126.012,50.262z
	 M100.622,43.452c4.903,1.395,9.815,2.047,14.663,3.218c0.31-0.763,0.573-1.412,0.882-2.171c0.545,0.093,1.033,0.177,1.59,0.273
	c-0.217,0.846-0.39,1.519-0.604,2.351c0.66,0.091,1.162,0.161,1.644,0.228c0.314-0.627,0.568-1.134,0.878-1.751
	c1.445,0.314,2.814,0.612,4.18,0.909c0,0.725,0,1.252,0,1.929c0.657,0.077,1.29,0.151,1.958,0.229
	c0.226-0.659,0.408-1.191,0.597-1.742c-0.314-0.198-0.486-0.359-0.689-0.424c-2.089-0.672-4.156-1.435-6.281-1.971
	c-4.953-1.251-9.933-2.398-14.905-3.571c-1.029-0.243-2.074-0.417-3.212-0.643C101.074,41.432,100.863,42.374,100.622,43.452z
	 M102.613,92.128c0-0.914,0-1.752,0-2.633c-0.44-0.542-0.885-1.09-1.243-1.53c-1.668-0.408-3.095-0.126-4.547,0.298
	c-0.424,1.129-0.801,2.213-0.636,3.588C98.285,91.942,100.362,92.031,102.613,92.128z M105.46,92.809
	c2.25,0.236,4.427,0.462,6.724,0.702c-0.176-0.784-0.312-1.386-0.447-1.989c-0.519-0.331-0.931-0.744-1.278-1.206
	c-0.946-1.259-2.12-1.673-3.638-1.141c-0.396,0.14-0.862,0.087-1.322,0.125C105.049,90.542,105.267,91.711,105.46,92.809z
	 M96.427,93.958c0.306,0.813,0.562,1.494,0.836,2.226c1.615,0,3.1,0,4.647,0c0-0.706,0-1.312,0-2.021
	C100.103,94.191,98.379,93.618,96.427,93.958z M117.44,60.972c-0.686-0.17-0.772,0.26-0.882,0.652
	c-0.483,1.724-0.97,3.447-1.436,5.176c-0.033,0.121,0.09,0.283,0.158,0.474C116.121,66.407,117.453,62.464,117.44,60.972z
	 M115.427,60.68c-0.953,0.364-0.802,1.275-1.059,1.96c-0.282,0.753-0.512,1.536-0.661,2.326c-0.133,0.701-0.693,1.395-0.122,2.406
	C114.546,65.07,115.005,62.885,115.427,60.68z M113.649,60.605c-1.114,1.362-2.337,5.198-2.058,6.678
	C112.78,65.021,113.123,62.784,113.649,60.605z M101.393,66.15c0.289-0.086,0.422-0.09,0.439-0.136
	c0.874-2.438,1.741-4.878,2.598-7.323c0.035-0.1-0.036-0.237-0.113-0.671c-0.297,0.493-0.518,0.738-0.605,1.024
	C102.999,61.389,101.966,63.638,101.393,66.15z M104.458,66.829c0.91-0.547,0.769-1.57,1.106-2.379
	c0.378-0.907,0.655-1.858,0.948-2.799c0.261-0.836,0.88-1.568,0.729-2.531C105.98,61.561,105.182,64.169,104.458,66.829z
	 M120.717,61.371c-0.121-0.035-0.242-0.07-0.363-0.104c-0.142,0.482-0.298,0.96-0.422,1.446c-0.186,0.729-0.331,1.468-0.528,2.193
	c-0.222,0.814-0.503,1.613-0.712,2.43c-0.046,0.185,0.102,0.418,0.161,0.629C119.812,65.804,120.292,63.594,120.717,61.371z
	 M111.97,59.917c-1.201,2.278-1.876,4.526-2.369,7.076C110.289,66.052,112.021,60.89,111.97,59.917z M110.263,60.069
	c-1.073,2.131-1.905,4.351-2.294,6.722C109.009,64.648,109.574,62.339,110.263,60.069z M118.797,61.707
	c-0.682,1.911-1.514,3.755-1.721,5.775C118.176,65.705,118.773,63.779,118.797,61.707z M108.589,60.548
	c-1.149,1.432-2.301,4.852-2.143,6.297C107.197,64.637,107.894,62.592,108.589,60.548z M100.462,57.458
	c-1.403,1.975-2.49,4.769-2.451,6.189C98.9,61.401,99.681,59.429,100.462,57.458z M98.117,58.839
	c-0.093-0.033-0.187-0.067-0.279-0.101c-0.802,1.526-1.511,3.085-1.737,4.82c0.086,0.032,0.173,0.063,0.26,0.095
	C96.945,62.048,97.531,60.443,98.117,58.839z"/>
<path class="stroke" fill="#183046"  fill-rule="evenodd" clip-rule="evenodd" d="M126.587,14.09c0.081,1.449-0.301,2.16-1.469,2.701
	c-0.844,0.391-1.652,0.346-2.38-0.272c-0.554-0.47-0.848-1.07-0.605-1.789c0.305-0.904,0.915-1.557,1.898-1.682
	C125.054,12.917,126.002,13.089,126.587,14.09z"/>
<path fill-rule="evenodd" clip-rule="evenodd" fill="#fafd30" class="fill" d="M120.485,69.398c0.701,0.892,0.896,1.841,0.905,2.85
	c0.041,4.38-0.895,8.54-2.841,12.462c-0.857,1.726-2.149,2.969-4.103,3.398c-0.81,0.177-1.209,0.695-1.262,1.523
	c-0.021,0.327-0.141,0.648-0.266,1.19c-0.656-1.222-0.506-2.542-1.545-3.339c-1.352-0.078-2.736-0.201-4.121-0.225
	c-1.431-0.025-2.637,0.443-3.297,2.226c-0.16-0.682-0.216-1.015-0.316-1.334c-0.355-1.132-1.093-1.912-2.303-1.935
	c-1.43-0.027-2.874,0.032-4.291,0.214c-1.282,0.166-2.015,1.063-2.161,2.397c-0.294,2.694-0.3,5.338,0.743,7.943
	c0.433,1.083,0.436,2.36,0.507,3.557c0.048,0.823-0.296,1.578-0.957,2.123c-1.98,0.107-2.969-0.779-2.783-2.648
	c0.227-2.275,0.618-4.532,0.862-6.806c0.2-1.869,0.328-3.749,0.412-5.627c0.047-1.052-0.303-2.008-0.96-2.874
	c-1.219-1.607-2.363-3.271-3.566-4.889c-1.732-2.329-1.771-4.785-0.676-7.376c0.768-1.816,1.454-3.665,2.205-5.487
	c0.324-0.786,0.691-1.558,1.103-2.301c0.204-0.368,0.552-0.656,0.899-1.054c1.205,0.645,2.325,1.201,3.403,1.829
	c2.837,1.652,5.869,2.653,9.161,2.765c2.107,0.071,4.218,0.044,6.326,0.102c2.379,0.063,4.735,0.32,7.046,0.927
	C119.212,69.167,119.832,69.264,120.485,69.398z M113.52,83.219c0.077,0.048,0.154,0.097,0.231,0.145
	c0.278-0.282,0.658-0.517,0.814-0.855c0.393-0.846,0.803-1.714,0.994-2.618c0.569-2.705,1.039-5.431,1.534-8.151
	c0.02-0.108-0.097-0.24-0.144-0.35c-0.498-0.262-0.799-0.031-0.961,0.393c-0.143,0.372-0.245,0.77-0.297,1.165
	c-0.426,3.281-1.089,6.508-2.163,9.645C113.463,82.781,113.52,83.01,113.52,83.219z M98.66,70.608
	c-0.803,0.517-0.864,0.604-0.994,1.226c-0.189,0.916-0.367,1.835-0.584,2.745c-0.32,1.347-0.694,2.68-0.998,4.03
	c-0.127,0.565-0.303,1.18,0.189,1.746C97.675,78.208,99.019,72.765,98.66,70.608z M93.641,66.817
	c-0.925,0.271-1.125,1.078-1.327,1.728c-0.775,2.496-2,4.944-1.123,7.692c0.328-0.728,0.48-1.491,0.676-2.244
	c0.201-0.779,0.442-1.548,0.668-2.32c0.24-0.815,0.51-1.622,0.716-2.444C93.439,68.48,93.933,67.773,93.641,66.817z M112.544,76.43
	c-0.752-0.134-0.997,0.372-1.114,0.816c-0.31,1.167-0.71,2.356-0.195,3.648C111.881,80.218,112.562,77.83,112.544,76.43z"/>
<path fill-rule="evenodd" clip-rule="evenodd" fill="#fafd30" class="fill" d="M77.876,106.775c4.22-1.872,8.25-3.377,12.518-3.96
	c2.222,2.063,4.796,2.032,7.565-0.641c8.396-0.42,16.105,1.875,23.377,6.733c-2.327,1.416-4.4,2.651-6.865,3.123
	c-4.335,0.828-8.708,1.018-13.11,1.071c-4.916,0.059-9.75-0.586-14.55-1.469c-2.554-0.47-5.011-1.425-7.124-3.025
	C79.071,108.14,78.585,107.502,77.876,106.775z"/>
<path fill-rule="evenodd" clip-rule="evenodd" fill="#fafd30" class="fill" d="M103.934,92.587c0.108,1.067,0.572,2.182-0.426,3.356
	C102.819,94.534,103.759,93.614,103.934,92.587z"/>
<path class="stroke" fill="#183046"  d="M137.729,70.901c-0.569-0.162-0.819,0.072-1.032,0.29c-1.468,1.49-2.952,2.968-4.371,4.504
	c-1.658,1.795-3.214,3.683-5.11,5.251c-0.483,0.4-1.162,0.802-0.848,1.714c0.772,0.44,1.226,1.261,1.826,1.937
	c1.688,1.894,3.673,3.479,5.39,5.341c0.755,0.821,1.609,1.516,2.608,2.026c0.333,0.171,0.658,0.307,0.956-0.061
	c0.21-1.953,0.84-3.836,0.876-5.868c0.803-0.147,1.489-0.248,2.204-0.147c1.932,0.271,3.866,0.237,5.8,0.023
	c0.509-0.057,1.038-0.08,1.496-0.638c0.11-2.624,0.118-5.357-0.063-8.27c-3.317,0.061-6.532,0.053-9.74-0.327
	C137.954,74.665,138.255,72.737,137.729,70.901z"/>
<path fill-rule="evenodd" clip-rule="evenodd" fill="#fafd30" class="fill" d="M128.576,81.944c2.54-2.433,4.836-4.92,7.283-7.445
	c0.298,1.381-0.063,2.639,0.051,3.839c0.759,0.515,1.561,0.553,2.346,0.496c2.375-0.172,4.74,0.099,7.109,0.117
	c0.232,0.001,0.465,0.03,0.842,0.056c-0.06,1.685-0.341,3.28-0.776,4.849c-3.001,0.584-5.993,0.122-8.925,0.506
	c-0.896,1.615-0.425,3.38-0.797,5.26C133.304,86.994,131.096,84.491,128.576,81.944z"/>
</svg>
