<svg version="1.1" id="svg" xmlns="http://www.w3.org/2000/svg" xmlns:xlink="http://www.w3.org/1999/xlink" x="0px" y="0px"
	 width="200px" height="200px" viewBox="0 0 200 200" enable-background="new 0 0 200 200" xml:space="preserve">
<path class="stroke" fill="#561906"  d="M188.484,100.746c-0.503-2.911-0.994-5.834-1.736-8.688c-0.649-2.497-1.542-4.945-2.502-7.345
	c-0.843-2.103-1.619-4.346-2.971-6.107c-2.986-3.892-6.026-7.807-10.285-10.485c-0.358-0.225-0.688-0.493-1.027-0.746
	c-4.928-3.697-10.064-7.017-16.024-8.838c-1.111-0.339-2.247-0.598-3.354-0.947c-6.569-2.075-13.177-3.918-20.152-3.946
	c-3.125-0.012-6.224-0.025-9.308,0.68c-3.111,0.712-6.052,1.885-9.018,2.996c-3.347,1.253-6.467,2.872-9.003,5.486
	c-0.689,0.71-1.591,1.224-2.423,1.786c-1.534,1.035-3.047,2.115-4.648,3.037c-1.825,1.052-3.642,2.352-5.633,2.821
	c-2.854,0.675-5.858,0.738-8.806,0.972c-0.987,0.078-1.998-0.196-2.996-0.184c-2.575,0.033-5.061-0.545-7.48-1.266
	c-3.544-1.056-7.013-2.365-10.517-3.559c-1.001-0.341-2.09-0.51-3.004-1.005c-2.161-1.173-4.379-2.108-6.829-2.315
	c-1.105-1.438-2.354-2.542-4.396-2.66c-0.825,0.259-1.822,0.571-2.797,0.876c-2.61-2.448-6.981-2.059-8.7,1.487
	c-3.606,0.614-6.915,2.333-10.086,4.329c-0.27-0.329-0.413-0.481-0.532-0.651c-1.996-2.861-3.943-5.758-6.001-8.572
	c-0.962-1.316-2.122-2.491-3.222-3.7c-0.355-0.391-0.801-0.737-1.592-0.171c0.72,1.737,2.212,2.962,3.285,4.46
	c1.075,1.5,2.335,2.87,3.371,4.393c1.055,1.55,1.937,3.217,2.901,4.845c-0.317,0.212-0.436,0.32-0.575,0.377
	c-0.14,0.058-0.302,0.063-0.532,0.107c-3.138-4.091-6.045-8.395-9.863-12.047c-0.314,0.084-0.635,0.17-1.264,0.339
	c3.295,4.107,6.9,7.693,9.534,12.126c-0.312,0.215-0.551,0.381-0.784,0.539c-0.257-0.128-0.477-0.187-0.626-0.321
	c-1.801-1.636-3.609-3.264-5.374-4.938c-0.487-0.463-0.88-0.923-1.724-0.396c0.121,0.307,0.169,0.693,0.385,0.92
	c0.544,0.573,1.164,1.074,1.754,1.604c1.603,1.444,3.203,2.888,4.509,4.065c0.352,1.847,0.466,3.297,0.923,4.628
	c0.528,1.541,1.292,3.014,2.081,4.447c0.602,1.095,1.272,2.18,2.53,2.729c1.057,0.462,2.064,1.033,3.143,1.581
	c0.084,0.201,0.224,0.436,0.28,0.688c0.896,4.08,1.722,8.178,2.697,12.237c0.517,2.15,1.287,4.241,1.962,6.352
	c0.058,0.181,0.254,0.316,0.441,0.537c0.337-0.159,0.645-0.305,0.928-0.438c-0.64-3.231-1.224-6.23-1.829-9.226
	c-0.611-3.025-1.592-5.978-2.018-9.113c1.642-0.037,2.285,0.843,2.666,2.039c1.776,5.589,3.549,11.179,5.337,16.766
	c0.165,0.514,0.429,0.996,0.71,1.639c0.662-0.396,1.125-0.672,1.554-0.929c-1.752-5.943-4.074-11.493-5.765-17.247
	c0.094-0.081,0.186-0.164,0.279-0.246c1.023,0.458,2.046,0.915,2.921,1.308c0.178,0.327,0.268,0.461,0.326,0.605
	c1.211,3.042,2.391,6.095,3.639,9.12c0.582,1.413,1.289,2.774,1.956,4.151c0.061,0.125,0.242,0.19,0.45,0.343
	c0.385-0.172,0.8-0.356,1.325-0.591c-1.164-4.054-2.638-7.907-4.323-12.037c3.202,2.014,6.125,3.714,8.896,5.635
	c2.835,1.964,6.287,2.595,9.241,4.308c-0.572,1.546-1.369,2.71-2.48,3.65c-1.17,0.988-2.355,1.959-3.536,2.936
	c-2.541,2.103-3.209,4.692-2.185,7.823c0.399,1.222,1.075,1.893,2.342,1.992c0.733,0.058,1.465,0.136,2.18,0.202
	c0.389,0.312,0.758,0.606,1.072,0.857c2.761,0.17,3.623-0.759,3.141-3.285c-0.02-0.104-0.032-0.209-0.048-0.313
	c-0.265-1.648,0.042-2.375,1.623-2.976c1.624-0.618,3.293-1.213,4.997-1.499c3.057-0.513,5.993-1.244,8.591-3.015
	c0.255-0.174,0.566-0.267,0.76-0.355c3.25,0.924,6.404,1.812,9.55,2.721c0.894,0.258,1.528,0.811,2.048,1.63
	c1.619,2.553,1.915,5.414,2.263,8.298c-0.889,0.73-1.812,1.021-2.828,1.169c-1.194,0.175-2.402,0.363-3.546,0.729
	c-0.464,0.147-0.935,0.717-1.124,1.201c-0.772,1.994,0.56,4.069,2.797,4.654c2.254,0.587,4.513,0.501,6.76,0.132
	c2.898-0.477,5.168-1.784,5.938-4.914c1.033-4.206,2.116-8.399,3.185-12.597c0.086-0.34,0.225-0.668,0.382-1.129
	c4.189,1.1,8.335,1.819,12.603,1.747c4.345-0.073,8.359-1.627,12.448-2.707c0.793,1.419,1.488,2.716,2.235,3.983
	c1.263,2.139,2.562,4.256,3.839,6.386c0.381,0.636,0.811,1.268,0.372,2.129c-0.248,0.093-0.531,0.236-0.831,0.305
	c-2.881,0.661-5.76,1.33-8.65,1.95c-1.351,0.29-2.447,1.006-3.372,1.955c-0.958,0.982-1.186,2.258-0.798,3.546
	c0.37,1.227,1.254,1.929,2.597,1.954c0.206,0.005,0.41,0.094,0.614,0.145c-0.023,0.05-0.046,0.098-0.069,0.148
	c0.827,0.408,1.654,0.818,2.376,1.175c0.725-0.346,1.249-0.597,1.635-0.78c1.093,0,2.039,0,3.104,0
	c0.323-0.276,0.768-0.577,1.111-0.965c0.979-1.111,2.161-1.596,3.657-1.534c2.271,0.092,4.55-0.007,6.819,0.111
	c3.661,0.19,6.563-1.283,9.036-3.836c0.705-0.726,0.938-1.603,1.008-2.592c0.108-1.535-0.729-2.707-1.333-3.988
	c-0.442-0.939-0.952-1.917-1.079-2.922c-0.39-3.074,1.053-5.433,4.374-7.046c0.697,0.5,1.486,0.956,2.141,1.559
	c0.688,0.635,1.506,1.312,1.813,2.141c0.711,1.918,1.196,3.931,1.159,6.06c-0.835,0.625-1.633,1.224-2.353,1.763
	c-0.455,0.987-0.415,1.827,0.188,2.599c2.022,0.587,4.001,0.393,5.991-0.035c1.044-0.224,1.688-0.812,2.047-1.778
	c0.348-0.94,0.653-1.899,1.059-2.814c0.712-1.607,1.26-3.234,1.306-5.024c0.017-0.676,0.328-1.343,0.591-2.344
	c0.261,0.608,0.46,0.876,0.481,1.156c0.164,2.153,0.583,4.334,0.38,6.455c-0.607,6.354-2.462,12.304-6.268,17.567
	c-3.248,4.49-7.123,8.253-12.168,10.597c-5.082,2.358-10.245,4.552-15.429,6.679c-2.242,0.919-4.634,1.474-6.946,2.228
	c-2.763,0.901-5.52,1.82-8.264,2.771c-0.669,0.231-1.284,0.618-2.035,0.988c0.954,0.978,2.007,0.865,2.959,0.857
	c2.696-0.022,5.392-0.15,8.087-0.231c4.289-0.129,8.527-0.688,12.778-1.255c5.256-0.7,10.439-1.684,15.542-3.082
	c2.39-0.655,4.779-1.365,7.074-2.286c1.903-0.765,3.747-1.753,5.475-2.862c2.072-1.331,4.13-2.747,5.95-4.396
	c2.54-2.299,4.563-5.072,6.477-7.927c2.075-3.096,3.574-6.454,4.851-9.929c0.328-0.891,0.589-1.807,0.867-2.716
	c0.525-1.713,1.191-3.399,1.524-5.149c0.452-2.377,0.689-4.798,0.935-7.21c0.187-1.834,0.338-3.683,0.332-5.524
	C188.909,103.794,188.745,102.252,188.484,100.746z"/>
<path fill-rule="evenodd" clip-rule="evenodd" fill="#bf7512" class="fill" d="M182.203,125.962c-0.619-0.365-1.09-0.644-1.619-0.956
	c-0.711,1.429,1.644,2.153,0.581,3.575c-0.546-0.369-1.094-0.74-1.641-1.111c-0.117,0.098-0.234,0.193-0.351,0.289
	c0.392,0.819,0.782,1.638,1.223,2.559c-0.16,0.347-0.351,0.76-0.616,1.334c-0.31-0.398-0.47-0.748-0.741-0.912
	c-0.27-0.164-0.652-0.143-1.298-0.257c0.619,1.55,1.68,2.889,0.309,4.309c-0.396-0.447-0.795-0.897-1.195-1.349
	c-0.118,0.051-0.235,0.101-0.353,0.15c0,1.216,0,2.433,0,3.716c-0.163,0.189-0.365,0.424-0.635,0.736
	c-0.116-0.16-0.25-0.259-0.25-0.36c-0.001-0.462-0.062-0.854-0.859-0.861c-0.136,0.929-0.276,1.89-0.432,2.953
	c-0.48,0.446-0.994,0.98-1.566,1.441c-3.129,2.521-6.135,5.215-9.723,7.105c-0.603,0.317-1.249,0.555-1.878,0.822
	c-5.019,2.138-10.403,2.728-15.689,3.77c-4.217,0.832-8.469,1.241-12.732,1.641c-0.203,0.019-0.408,0.003-0.974,0.003
	c0.543-0.335,0.792-0.549,1.08-0.655c2.526-0.94,5.142-1.685,7.568-2.833c3.196-1.512,6.562-2.715,9.482-4.779
	c2.979-2.105,5.924-4.26,8.934-6.321c2.302-1.577,4.388-3.478,7.043-4.543c1.58-0.634,1.996-1.192,2.733-2.593
	c-0.146-0.762-0.304-1.582-0.455-2.37c1.732-1.894,4.434-2.808,5.333-5.59c-1.06-0.486-2.003-0.919-3.136-1.439
	c0.401-0.354,0.699-0.609,0.989-0.874c1.21-1.103,2.487-2.142,3.596-3.339c0.615-0.665,0.946-1.594,1.329-2.269
	c-0.628-1.77-2.032-1.397-3.255-1.615c1.081-2.628,2.524-5.113,1.712-8.271c-0.565,0.1-1.102,0.176-1.629,0.292
	c-0.498,0.109-0.986,0.262-1.728,0.462c0.377-1.822,0.841-3.429,1.011-5.066c0.168-1.606,0.037-3.246,0.037-5.001
	c-1.294-0.45-2.073,1.302-3.447,0.888c-0.634-2.576-1.296-5.26-2.003-8.134c-0.819,0.273-1.392,0.467-1.96,0.655
	c-1.335-2.17-2.699-4.388-4.042-6.57c-0.96,0.218-0.95,0.748-0.868,1.375c0.176,1.348,0.554,2.697,0.091,4.196
	c-0.708,0.055-1.425,0.11-2.1,0.163c-1.396,1.112-0.785,2.917-1.529,4.253c-1.839-1.855-1.839-1.855-2.472-1.793
	c-0.225,0.792,0.409,1.23,0.745,1.792c0.322,0.537,0.645,1.075,0.915,1.638c0.223,0.465,0.009,0.79-0.535,1.013
	c-0.434-0.697-0.867-1.391-1.351-2.165c-0.423,0.202-0.722,0.345-1.091,0.521c0.592,1.101,1.137,2.11,1.71,3.176
	c-0.282,0.387-0.51,0.701-0.814,1.118c-0.455-0.62-0.822-1.119-1.243-1.691c-0.315,0.044-0.654,0.09-1.027,0.142
	c0.024,0.243-0.005,0.417,0.062,0.535c0.236,0.412,0.524,0.794,0.758,1.207c0.491,0.867,0.396,1.169-0.629,1.972
	c-0.312-0.48-0.62-0.953-0.992-1.524c-0.282,0.028-0.613,0.062-1.156,0.118c0.38,0.948,0.7,1.748,1.036,2.588
	c-0.236,0.197-0.426,0.355-0.692,0.578c-0.335-0.5-0.619-0.923-0.939-1.399c-0.222,0.014-0.468,0.028-0.859,0.055
	c0.188,1.013,0.358,1.933,0.528,2.853c-0.727-0.118-0.84-1.13-1.728-0.533c0,0.766,0,1.602,0,2.117
	c-0.653,1.55-1.203,2.802-1.712,4.068c-0.583,1.453-0.174,2.927-0.007,4.387c0.032,0.281,0.292,0.539,0.456,0.802
	c0.637,1.021,1.278,2.039,1.755,2.8c-0.035,2.282-1.21,3.362-2.863,3.943c-3.012,1.057-6.053,1.818-9.321,1.181
	c-1.329-0.259-2.765-0.194-4.115-0.008c-0.827,0.113-1.607,0.697-2.359,1.151c-0.428,0.26-0.757,0.682-1.195,1.09
	c-0.356-0.432-0.611-0.739-0.854-1.033c-1.186,0.145-1.332,1.86-2.892,1.692c0.361-0.609,0.637-1.072,0.958-1.611
	c-0.213-0.242-0.44-0.501-0.753-0.856c-0.501,0.282-0.954,0.526-1.397,0.788c-0.42,0.249-0.673,0.86-1.446,0.594
	c-0.077-1.157,0.694-1.78,1.512-2.32c1.449-0.956,3.113-1.254,4.795-1.545c2.333-0.403,4.645-0.932,6.923-1.396
	c0.487-0.678,0.884-1.23,1.243-1.729c0.238-1.682-0.368-2.938-1.469-4.08c-0.761-0.79-1.403-1.71-2.01-2.63
	c-0.786-1.189-1.525-2.414-2.21-3.664c-1.588-2.893-1.813-6.032-1.491-9.23c0.17-1.684,0.624-3.272,1.484-4.799
	c1.663-2.954,4.396-4.315,7.358-5.434c1.386-0.522,2.753-1.101,4.155-1.575c0.986-0.333,2.017-0.535,3.14-0.823
	c-0.138-0.401-0.248-0.722-0.361-1.054c-2.316-0.301-4.398,0.495-6.783,1.251c1.257-2.372,2.198-4.512,4.52-5.515
	c-0.065-0.27-0.072-0.428-0.14-0.552c-0.072-0.13-0.202-0.229-0.368-0.408c-3.348,0.633-6.306,2.129-8.925,4.371
	c-0.081-0.097-0.162-0.191-0.244-0.287c0.489-0.71,0.978-1.419,1.548-2.248c-0.096-0.293-0.219-0.662-0.38-1.146
	c-2.216,0.268-3.759,1.459-5.201,2.897c-1.426,1.426-2.88,2.81-3.351,4.917c-0.122-0.033-0.244-0.065-0.368-0.099
	c0.044-0.667,0.042-1.343,0.145-2.001c0.094-0.6,0.982-1.145-0.056-1.894c-2.492,2.101-4.741,4.406-5.939,7.876
	c-0.517-0.474-0.907-0.831-1.216-1.115c-0.103-0.745-0.185-1.342-0.299-2.176c-2.311,0.73-3.428,2.237-3.987,4.456
	c-1.073-0.99-1.533-2.124-1.799-3.297c-1.719,0.013-2.102,0.517-2.625,3.368c-1.688-0.518-2.503-1.994-3.671-3.217
	c-0.283,0.099-0.608,0.21-0.968,0.333c-0.053,0.683-0.1,1.303-0.166,2.15c-1.883-0.856-3.54-1.751-4.479-3.708
	c-2.664,0.706-1.243,2.654-1.27,4.417c-1.175-0.667-2.154-1.213-3.121-1.778c-0.887-0.519-1.148-1.896-2.458-1.942
	c-0.319,1.946-0.319,1.946,0.726,4.147c-1.864,0.039-3.451-0.59-4.972-1.458c-0.562-0.321-1.119-0.692-1.687,0.128
	c0.723,1.997,1.881,3.688,3.569,5.044c2.141,1.721,4.211,3.53,6.363,5.238c1.322,1.051,1.74,2.376,1.401,3.943
	c-0.612,2.841-1.285,5.668-1.954,8.495c-0.341,1.44-0.735,2.869-1.096,4.305c-0.645,2.565-2.471,4.098-5.104,4.119
	c-1.467,0.011-2.938-0.157-4.403-0.281c-0.229-0.019-0.44-0.232-0.925-0.507c0.562-0.331,0.918-0.698,1.311-0.742
	c1.602-0.183,2.814-1.169,4.154-1.887c0.636-0.341,1.104-0.885,1.084-1.643c-0.057-2.107-0.051-4.227-0.3-6.313
	c-0.133-1.116-0.739-2.177-1.231-3.539c-1.41-2.422-4.156-3.326-6.815-4.388c-2.108-0.841-4.284-1.591-6.242-2.71
	c-2.026-1.159-3.783-2.731-4.024-5.359c-0.066-0.725-0.326-1.431-0.518-2.232c-0.257-0.059-0.546-0.123-0.843-0.189
	c-1.032,1.62-0.178,3.228-0.115,4.824c-0.836-0.4-0.971-0.524-1.087-1.402c-0.138-1.049-0.229-2.104-0.296-3.16
	c-0.038-0.58-0.129-1.057-0.882-1.116c-0.985,0.974-0.011,2.306-0.52,3.51c-1.394-1.438-0.736-3.194-1.053-4.776
	c-0.292-0.026-0.541-0.049-1.031-0.094c-0.112,0.901-0.218,1.75-0.342,2.748c-0.383-0.144-0.836-0.312-1.45-0.541
	c-0.093-1.031-0.187-2.064-0.289-3.2c-0.282-0.086-0.607-0.185-1.112-0.338c-0.049,1.011-0.092,1.882-0.142,2.912
	c-0.604-0.047-1.144-0.089-1.795-0.14c-0.046-0.808-0.083-1.478-0.131-2.345c-0.309-0.115-0.688-0.256-1.274-0.472
	c-0.091,0.977-0.159,1.692-0.235,2.514c-0.96-0.05-1.572-0.506-1.775-1.417c-0.172-0.769-0.241-1.56-0.366-2.418
	c-0.337-0.113-0.658-0.219-1.099-0.364c-0.102,0.599-0.182,1.079-0.281,1.669c-0.449-0.248-0.804-0.444-1.16-0.641
	c-0.119-0.622-0.229-1.187-0.361-1.878c-0.347-0.092-0.713-0.188-1.184-0.312c-0.04,0.675-0.07,1.189-0.108,1.815
	c-0.236,0.1-0.51,0.215-0.928,0.391c-0.252-0.677-0.482-1.297-0.747-2.011c-0.293-0.039-0.628-0.084-1.182-0.16
	c0.12,0.845,0.217,1.535,0.329,2.337c-2.298-0.546-1.821-3.152-3.27-4.175c-1.358,0.394-0.192,1.263-0.462,1.946
	c-0.435,0-0.869,0-1.324,0c-0.188-0.563-0.352-1.055-0.537-1.615c-0.323-0.019-0.616-0.035-0.987-0.056
	c-0.077,0.525-0.144,0.978-0.236,1.599c-1.625-0.238-2.793-1.441-4.33-1.908c-0.303-0.663-0.58-1.35-0.921-2.002
	c-1.152-2.197-2.302-4.395-3.503-6.565c-0.559-1.011-1.338-1.338-2.61-1.17c0.926,2.693,2.491,5.06,3.572,7.64
	c-0.195,0.065-0.305,0.147-0.374,0.121c-0.688-0.263-1.371-0.545-2.151-0.86c-0.543-1.608-1.09-3.254-1.656-4.895
	c-0.401-1.163-0.688-1.297-2.077-0.989c-0.219,1.437,0.777,2.674,0.812,4.279c-0.605-0.161-1.126-0.3-1.792-0.478
	c-0.406-1.674-0.814-3.357-1.255-5.173c-0.427-0.033-0.859-0.066-1.499-0.115c0.201,1.448,0.375,2.707,0.565,4.088
	c-2.484-1.446-4.624-5.456-4.147-7.681c0.372-0.162,0.787-0.398,1.232-0.527c1.854-0.532,2.148-0.962,1.903-3.086
	c2.704-1.118,5.047-3.146,8.211-3.37c2.933-0.209,5.856-0.562,9.091-0.883c2.557-1.842,3.287-1.929,5.564-0.425
	c-0.367,1.542-2.333,1.777-2.76,3.26c0.612,1.759,1.329,2.027,2.74,0.957c0.713-0.541,1.353-1.181,2.181-1.915
	c0.351,0.049,0.867,0.082,1.365,0.194c5.479,1.252,10.699,3.317,15.918,5.325c6.936,2.668,14.022,3.504,21.358,2.577
	c4.484-0.567,8.64-1.979,12.301-4.703c2.419-1.8,4.853-3.583,7.278-5.374c3.082-2.275,6.47-3.965,9.971-5.502
	c3.044-1.338,6.216-2.078,9.465-2.484c2.031-0.253,4.124-0.28,6.168-0.125c6.262,0.473,12.352,1.857,18.18,4.178
	c3.677,1.465,7.276,3.156,10.806,4.951c2.695,1.37,5.026,3.299,7.06,5.58c2.358,2.646,4.825,5.194,7.189,7.836
	c2.735,3.055,4.432,6.683,5.574,10.583c1.376,4.702,2.656,9.445,3.056,14.336c0.209,2.562-0.134,5.173-0.265,7.76
	c-0.138,2.715-0.842,5.313-1.638,7.898c-0.467,1.513-0.79,3.07-1.214,4.597C182.745,124.635,182.467,125.249,182.203,125.962z
	 M32.301,66.775c-1.405,1.584-1.302,3.217,0.129,4.401c1.457,1.206,3.16,1.43,4.935,1.147c1.208-0.193,1.811-0.991,1.873-2.218
	c0.021-0.42-0.042-0.842-0.069-1.296C37.45,66.161,34.801,66.773,32.301,66.775z M83.686,89.196
	c-0.702,0.25-1.079,0.383-1.346,0.479c-0.218,2.047,0.668,3.497,1.619,4.905c0.513,0.758,0.874,0.773,1.936,0.221
	C84.806,93.159,83.276,91.699,83.686,89.196z M172.714,78.041c1.446,1.628,2.722,3.062,4.058,4.565
	c0.288-0.329,0.515-0.588,0.786-0.897c-1.131-1.844-2.422-3.423-4.258-4.738C173.019,77.484,172.859,77.776,172.714,78.041z
	 M153.493,74.012c0.156-0.072,0.312-0.145,0.467-0.218c-0.073-0.415-0.025-0.911-0.238-1.235c-1.026-1.561-2.427-2.693-4.197-3.516
	c-0.262,0.371-0.454,0.645-0.614,0.871C150.497,71.333,151.995,72.672,153.493,74.012z M171.887,80.274
	c-0.494,0.142-0.852,0.245-1.324,0.38c1.288,1.814,2.466,3.473,3.645,5.132c0.162-0.09,0.325-0.179,0.487-0.269
	C175.039,83.253,172.98,82.118,171.887,80.274z M175.97,100.554c0.589-0.376,0.905-0.578,1.257-0.803
	c-0.73-1.677-0.75-3.478-1.733-5.082c-0.414,0.263-0.698,0.442-1.046,0.662C174.937,97.008,175.403,98.609,175.97,100.554z
	 M146.112,93.502c-0.191-1.146-0.803-1.203-1.436-0.895c-0.898,0.437-1.775,0.94-2.588,1.518c-0.857,0.607-0.921,1.185-0.373,2.133
	c0.656-0.505,1.272-1.059,1.965-1.49C144.431,94.299,145.254,93.941,146.112,93.502z M176.46,86.884
	c0.673,1.658,1.212,3.075,1.83,4.457c0.292,0.652,0.822,0.723,1.572,0.133c-0.679-1.548-1.363-3.109-2.075-4.733
	C177.372,86.785,177.036,86.822,176.46,86.884z M150.192,66.518c1.7,0.8,3.275,1.542,5.039,2.373c0.126-0.303,0.28-0.674,0.483-1.16
	c-1.643-0.82-3.126-1.561-4.65-2.322C150.73,65.835,150.521,66.1,150.192,66.518z M79.56,94.104
	c0.925-0.402,0.926-0.938,0.703-1.533c-0.421-1.122-0.856-2.237-1.359-3.551c-0.307,0.02-0.712,0.046-1.161,0.076
	C77.747,91.111,78.735,92.521,79.56,94.104z M91.446,105.288c0.461-0.277,0.867-0.522,1.395-0.842
	c-0.917-1.222-1.721-2.29-2.595-3.453c-0.362,0.1-0.719,0.199-1.295,0.357C89.801,102.692,90.542,103.861,91.446,105.288z
	 M138.53,94.875c1.437-1.182,2.675-2.203,4.07-3.35c-0.38-0.281-0.712-0.526-1.038-0.768c-1.384,0.966-2.818,1.639-3.279,3.267
	C138.219,94.251,138.43,94.555,138.53,94.875z M84.059,97.363c0.527,1.649,0.608,3.174,1.864,4.395
	c0.387-0.315,0.68-0.553,0.966-0.785c-0.527-1.271-1.005-2.422-1.497-3.609C85.049,97.363,84.711,97.363,84.059,97.363z
	 M156.805,66.039c0.145-0.479,0.251-0.833,0.354-1.176c-1.409-0.643-2.683-1.235-3.967-1.803c-0.465-0.203-0.922-0.226-1.249,0.484
	C153.153,65.03,155.133,65.063,156.805,66.039z M181.061,99.603c-0.209-1.485-0.395-2.808-0.592-4.217
	c-0.544,0.06-0.875,0.096-1.333,0.146c0.203,1.576,0.39,3.034,0.595,4.63C180.265,99.938,180.582,99.804,181.061,99.603z
	 M147.413,78.922c-0.32-2.443-2.571-2.12-3.711-3.33c-0.353,0.356-0.612,0.62-1.027,1.041
	C144.299,77.447,145.476,78.659,147.413,78.922z M91.613,76.725c0.557,0.201,0.976,0.519,1.273,0.43
	c1.343-0.398,2.711-0.785,3.893-1.728c-0.116-0.334-0.211-0.606-0.387-1.112C94.923,75.353,93.024,75.172,91.613,76.725z
	 M158.774,69.174c-0.366,0.316-0.618,0.534-1.196,1.034c1.213,0.908,2.309,1.728,3.405,2.548c-0.071,0.097-0.141,0.193-0.212,0.29
	c0.344-0.052,0.688-0.104,1.317-0.199C161.4,71.159,159.956,70.418,158.774,69.174z M99.235,76.632
	c0.952,0.599,0.967,0.627,1.507,0.324c1.097-0.614,2.175-1.263,3.312-1.928c-0.055-0.316-0.104-0.603-0.202-1.162
	C102.19,74.674,100.618,75.281,99.235,76.632z M143.745,109.664c0.608-1.61,1.1-2.913,1.619-4.285
	c-0.033-0.043-0.104-0.194-0.224-0.279c-0.119-0.086-0.286-0.104-0.416-0.145c-1.509,1.187-2.126,2.986-1.615,4.783
	C143.395,109.704,143.692,109.67,143.745,109.664z M146.378,73.67c1.472,1.029,2.986,1.257,4.463,2.055
	c0.123-0.593,0.199-0.957,0.289-1.388c-1.342-0.521-2.563-0.994-3.851-1.493C147.063,73.042,146.846,73.242,146.378,73.67z
	 M167.209,85.839c0.481,0.633,0.945,1.188,1.347,1.786c0.428,0.638,0.795,1.317,1.189,1.979c0.826-0.542,0.889-0.587,0.685-1.179
	c-0.451-1.312-1.209-2.412-2.389-3.314C167.755,85.361,167.539,85.55,167.209,85.839z M165.585,139.402
	c-1.111,1.072-2.608,1.557-3.341,3.1c0.453,0.199,0.725,0.318,1.032,0.453c1.045-0.877,2.042-1.713,3.097-2.599
	C166.074,139.996,165.892,139.773,165.585,139.402z M92.558,78.571c0.938,1.104,1.671,1.008,4.185-0.472
	c-0.03-0.327-0.066-0.712-0.13-1.408C95.254,77.638,93.675,77.519,92.558,78.571z M172.198,87.804
	c0.792,1.485,1.441,2.701,2.176,4.079c0.396-0.118,0.793-0.236,1.396-0.417c-0.824-1.376-1.531-2.562-2.262-3.784
	C173.171,87.712,172.881,87.739,172.198,87.804z M159.432,75.626c-0.194-1.908-1.686-2.478-2.621-3.626
	c-0.386,0.357-0.633,0.588-1.036,0.963C157.212,73.584,157.236,75.693,159.432,75.626z M80.879,97.242
	c0.792,2.916,0.896,3.097,2.197,3.799c0.123-0.331,0.411-0.705,0.323-0.938c-0.402-1.074-0.909-2.107-1.416-3.24
	C81.59,96.998,81.274,97.106,80.879,97.242z M139.887,111.159c0.469-0.035,0.793-0.061,0.993-0.075
	c0.143-1.337,0.269-2.525,0.408-3.818c-0.261-0.139-0.554-0.295-0.909-0.484C139.46,108.161,139.586,109.535,139.887,111.159z
	 M166.732,142.104c-0.979,1.289-2.688,1.61-3.243,3.159c0.819,0.563,1.302,0.212,1.794-0.259c0.744-0.711,1.522-1.389,2.356-2.145
	C167.305,142.581,167.114,142.423,166.732,142.104z M73.99,97.818c0.006,0.148,0.013,0.296,0.019,0.443
	c1.159,0.917,1.953,2.291,3.527,2.89c0.095-0.337,0.257-0.625,0.187-0.704c-0.873-0.965-1.752-1.928-2.705-2.811
	C74.863,97.494,74.342,97.748,73.99,97.818z M178.492,121.513c0.153,0.042,0.305,0.085,0.458,0.127
	c1.097-1.126,1.052-2.638,1.323-4.224c-0.5-0.034-0.865-0.061-1.348-0.094C178.77,118.818,178.631,120.164,178.492,121.513z
	 M137.481,92.599c-1.172-0.794-1.225-0.848-1.634-0.446c-0.592,0.582-1.157,1.214-1.618,1.901c-0.214,0.322-0.159,0.826-0.279,1.582
	C135.778,95.003,135.98,93.267,137.481,92.599z M152.563,149.606c1.128-0.624,2.224-1.23,3.417-1.89
	c-0.317-0.359-0.516-0.584-0.757-0.855c-1.227,0.597-2.602,0.831-3.557,2.06C152.048,149.211,152.285,149.394,152.563,149.606z
	 M179.801,85.383c-0.34,0.237-0.656,0.459-0.88,0.614c0.529,1.042,0.936,1.88,1.377,2.7c0.288,0.536,0.678,0.805,1.307,0.201
	C181.454,87.604,180.838,86.51,179.801,85.383z M95.153,84.967c-1.495-0.14-2.756,0.178-4.056,0.734
	c0.156,0.295,0.235,0.486,0.352,0.652c0.086,0.122,0.221,0.21,0.315,0.298C94.637,86.478,94.976,86.324,95.153,84.967z
	 M152.198,86.316c-0.322-1.162-0.458-2.419-1.493-3.409c-0.321,0.245-0.587,0.447-0.933,0.711c0.787,1.038,0.508,2.536,1.722,3.258
	c0.172-0.074,0.284-0.097,0.359-0.161C151.969,86.612,152.058,86.481,152.198,86.316z M105.523,77.659
	c-2.145,0.195-4.245,1.312-4.083,2.234c0.202,0.112,0.458,0.254,0.669,0.372c1.207-0.608,2.324-1.172,3.513-1.771
	C105.59,78.222,105.557,77.938,105.523,77.659z M182.719,103.712c-0.121,1.474-0.18,2.821,0.1,4.396
	c0.499-0.289,0.82-0.477,1.036-0.602c0-1.293,0-2.424,0-3.621C183.472,103.827,183.194,103.784,182.719,103.712z M76.016,92.988
	c-0.469,0.195-0.821,0.342-1.176,0.49c1.166,2.578,1.79,3.187,2.965,2.869C77.583,95.114,76.727,94.229,76.016,92.988z
	 M88.748,105.244c0.02-0.148,0.039-0.295,0.058-0.443c-1.172-0.517-2.335-1.058-3.527-1.524c-0.181-0.071-0.496,0.203-1.062,0.458
	c0.809,0.484,1.353,0.839,1.926,1.142c0.595,0.315,1.217,0.579,1.861,0.881C88.258,105.581,88.503,105.412,88.748,105.244z
	 M82.342,82.583c0.076,1.233,0.895,1.383,1.57,1.5c0.744,0.127,1.528,0.028,2.369,0.028c-0.043-0.443-0.073-0.739-0.114-1.164
	C84.871,82.823,83.653,82.707,82.342,82.583z M163.868,68.872c-0.999-0.682-1.849-1.262-2.816-1.921
	c-0.291,0.252-0.566,0.49-1.02,0.884c1.176,0.785,2.173,1.452,3.259,2.178C163.53,69.54,163.662,69.278,163.868,68.872z
	 M91.441,82.321c-1.25,0.226-2.693-0.595-3.52,1.012c0.976,0.609,3.173,0.6,3.675,0.025c0.02-0.111,0.077-0.266,0.064-0.414
	C91.647,82.799,91.564,82.659,91.441,82.321z M99.314,74.374c2.661-1.613,2.661-1.613,2.084-2.838
	c-1.053,0.643-2.09,1.273-3.412,2.078C98.666,74.004,99.031,74.212,99.314,74.374z M88.233,81.092
	c1.229-0.329,2.159-0.578,3.181-0.852c-0.153-0.489-0.24-0.766-0.382-1.22c-1.048,0.183-2.044,0.357-3.261,0.569
	C87.943,80.147,88.062,80.533,88.233,81.092z M172.297,137.209c-2.721,1.844-2.721,1.844-3.008,2.716
	c1.168,0.155,3.763-1.438,3.622-2.313C172.748,137.504,172.538,137.366,172.297,137.209z M150.396,79.077
	c1.193,0.753,1.096,2.42,2.571,2.903c0.021-1.671-0.654-3.279-1.563-3.629C151.161,78.526,150.853,78.748,150.396,79.077z
	 M75.73,75.61c-1.537-1.05-2.538-1.21-3.603-0.604c0.788,1.106,1.968,1.281,3.213,1.54C75.478,76.218,75.591,75.947,75.73,75.61z
	 M94.083,82.247c2.747-0.679,2.747-0.679,2.692-1.887c-1.223,0.183-2.468,0.124-3.642,1.039
	C93.552,81.772,93.812,82.006,94.083,82.247z M76.713,80.647c0.545,1.403,1.179,1.678,3.312,1.521c0-0.319,0-0.646,0-1.029
	C78.898,80.982,77.991,80.113,76.713,80.647z M84.989,86.657c-0.013,0.186-0.026,0.371-0.038,0.558
	c0.955,0.771,2.111,0.727,3.41,0.684c0.035-0.428,0.066-0.802,0.119-1.437C87.199,86.533,86.094,86.596,84.989,86.657z
	 M85.366,78.503c-0.985-1.058-2.196-0.544-3.219-0.959c-0.222,0.352-0.402,0.638-0.577,0.915c0.681,0.548,2.202,0.934,2.984,0.712
	C84.84,79.09,85.059,78.767,85.366,78.503z M68.943,78.708c-1.516-1.047-2.331-1.127-3.494-0.337
	c0.759,1.112,2.04,0.886,3.146,1.355C68.734,79.32,68.843,79.002,68.943,78.708z M160.771,142.555
	c-0.299-0.382-0.479-0.609-0.708-0.902c-1.178,0.423-2.231,0.864-2.63,2.363C159.008,144.501,159.546,143.067,160.771,142.555z
	 M90.243,90.543c0.032-0.515,0.05-0.805,0.074-1.185c-1.175-0.332-2.244-0.872-3.593-0.009C87.706,90.66,88.97,90.29,90.243,90.543z
	 M74.808,90.596c-0.655-0.976-1.604-1.269-2.565-1.506c-0.178-0.044-0.421,0.172-0.721,0.307c0.758,1.107,1.684,1.759,2.949,2.159
	C74.604,91.175,74.714,90.861,74.808,90.596z M93.041,110.763c-1.398-2.715-1.398-2.715-2.578-2.299
	c0.691,0.999,0.748,2.343,1.825,3.129c0.253-0.176,0.402-0.243,0.5-0.355C92.887,111.122,92.937,110.964,93.041,110.763z
	 M105.063,73.369c0.801,1.28,0.964,1.266,3.147-0.178c-0.023-0.299-0.049-0.642-0.095-1.235
	C106.999,72.474,106.041,72.917,105.063,73.369z M144.722,80.917c0.916,0.716,1.756,1.373,2.73,2.133
	c0.216-0.472,0.373-0.812,0.567-1.239c-0.823-0.643-1.552-1.213-2.315-1.808C145.335,80.347,145.077,80.587,144.722,80.917z
	 M161.108,146.192c-0.535-0.286-0.868-0.618-1.084-0.554c-0.996,0.296-1.839,0.841-2.381,1.992
	C159.208,148.205,159.905,147.101,161.108,146.192z M86.563,76.638c0.323,1.416,0.898,1.569,3.092,0.921
	c0.023-0.325,0.051-0.698,0.091-1.255C88.626,76.421,87.667,76.522,86.563,76.638z M69.687,75.413
	c-0.245-1.684-1.612-2.282-3.377-1.703C67.084,74.955,68.324,75.015,69.687,75.413z M83.126,81.002
	c0.346,0.382,0.609,0.672,0.894,0.985c0.771-0.123,1.48-0.236,2.321-0.371c-0.038-0.439-0.07-0.807-0.104-1.21
	C85.134,80.433,84.125,80.069,83.126,81.002z M136.608,108.44c-0.387,2.468-0.155,3.13,1.218,3.26
	c-0.044-0.999-0.086-1.979-0.133-3.037C137.263,108.574,136.938,108.508,136.608,108.44z M83.107,86.875
	c-1.235-0.169-1.612-1.903-3.085-1.211c0.738,1.505,2.019,2.547,2.799,2.198C82.884,87.648,82.964,87.371,83.107,86.875z
	 M170.462,93.027c0.492,0.953,0.511,2.147,1.785,2.54c0.307-1.514,0.109-2.097-1.029-3.061
	C170.996,92.659,170.757,92.824,170.462,93.027z M71.965,77.983c0.586,1.22,1.53,1.698,2.898,1.552
	C74.878,78.265,73.902,77.713,71.965,77.983z M143.241,83.494c0.675,0.847,1.209,1.516,1.806,2.264
	c0.423-0.317,0.683-0.512,0.975-0.731c-0.58-0.802-1.089-1.506-1.638-2.266C143.999,83.007,143.754,83.165,143.241,83.494z
	 M76.863,77.471c0.608,1.104,1.572,1.097,2.729,1.021c0.047-0.392,0.091-0.757,0.175-1.461
	C78.703,77.556,77.765,76.289,76.863,77.471z M62.99,81.539c0.594,1.225,1.708,1.238,2.881,1.447
	c0.055-0.398,0.098-0.709,0.161-1.161C64.93,81.921,64.149,80.629,62.99,81.539z M78.607,75.184c0.86,1.474,2.258,2.127,2.976,1.597
	c0.017-0.12,0.095-0.325,0.057-0.506c-0.04-0.19-0.189-0.357-0.328-0.598C80.531,75.535,79.737,75.39,78.607,75.184z
	 M139.25,113.708c0,1.091,0,1.931,0,2.908c0.508-0.043,0.886-0.074,1.323-0.111C140.432,115.446,140.751,114.363,139.25,113.708z
	 M73.898,86.657c0.888,0.823,1.466,1.605,2.599,1.84c0.089-0.429,0.156-0.751,0.229-1.101c-0.566-0.47-1.077-0.896-1.615-1.342
	C74.728,86.244,74.42,86.397,73.898,86.657z M155.025,79.377c0.512,1.09,0.871,1.855,1.296,2.761
	c0.771-1.396,0.411-3.151-0.791-3.257C155.463,78.947,155.254,79.153,155.025,79.377z M75.594,84.716
	c-0.397-1.382-1.559-1.468-2.314-2.099c-0.254,0.235-0.432,0.401-0.697,0.647C73.319,84.198,74.064,84.887,75.594,84.716z
	 M108.951,68.418c-0.333-0.393-0.563-0.666-0.837-0.989c-0.684,0.486-1.23,0.877-1.892,1.347c0.193,0.398,0.351,0.722,0.575,1.183
	C107.577,69.399,108.197,68.956,108.951,68.418z M95.632,107.334c-0.474,0.082-0.784,0.137-1.221,0.214
	c0.364,0.81-0.071,1.794,0.986,2.204C96.537,109.091,95.673,108.298,95.632,107.334z M77.238,86.024
	c0.558,0.593,1.087,1.156,1.746,1.855c0.234-0.524,0.353-0.788,0.453-1.011C78.477,85.364,78.387,85.324,77.238,86.024z
	 M156.221,87.271c-0.047-1.018-0.085-1.862-0.133-2.911c-0.529,0.271-0.781,0.4-1.055,0.54c0.089,0.854,0.169,1.62,0.255,2.445
	C155.599,87.32,155.792,87.305,156.221,87.271z M134.321,110.6c-0.33-1.052-0.285-2.104-1.451-2.496
	C132.422,109.5,132.866,110.35,134.321,110.6z M77.397,84.147c0.413,1.085,1.278,1.02,2.057,1.341
	c0.138-0.346,0.243-0.609,0.337-0.846C79.13,83.75,78.389,83.733,77.397,84.147z"/>
<path fill-rule="evenodd" clip-rule="evenodd" fill="#bf7512" class="fill" d="M32.971,68.244c2.341-0.59,3.581-0.055,4.293,1.942
	c-0.529,0.194-1.06,0.39-1.616,0.595c-0.137-0.845-0.239-1.472-0.325-2c-1.31-0.444-1.39,0.677-1.892,1.173
	C32.872,69.31,32.872,69.31,32.971,68.244z"/>
</svg>
