<svg version="1.1" id="svg" xmlns="http://www.w3.org/2000/svg" xmlns:xlink="http://www.w3.org/1999/xlink" x="0px" y="0px"
	 width="200px" height="200px" viewBox="0 0 200 200" enable-background="new 0 0 200 200" xml:space="preserve">
<path class="stroke" fill="#183046"  d="M136.207,61.551c-1.647-1.227-2.008-1.293-3.53-0.238c-0.706,0.488-1.396,1.116-1.841,1.837
	c-0.8,1.295-1.422,2.703-2.093,4.075c-0.911,1.864-1.076,4.048-2.47,5.71c-0.476,0.566-0.893,1.185-1.315,1.795
	c-1.661,2.398-3.317,4.801-4.967,7.208c-0.429,0.626-0.83,1.272-1.243,1.91c-0.097-0.03-0.194-0.059-0.291-0.089
	c-0.027-0.391-0.072-0.781-0.077-1.171c-0.012-1.067-0.022-2.133-0.004-3.2c0.067-3.981,0.079-7.966,0.254-11.943
	c0.074-1.649,0.541-3.278,0.777-4.923c0.349-2.427,0.614-4.867,0.987-7.29c0.393-2.56-0.187-4.871-1.565-7.025
	c-0.441-0.688-1.054-0.997-1.856-1.024c-1.662-0.057-2.992,0.767-3.532,2.358c-0.371,1.093-0.65,2.227-0.857,3.363
	c-0.549,3.007-1.001,6.033-1.559,9.039c-0.564,3.048-1.172,6.091-1.829,9.121c-0.547,2.525-1.192,5.03-1.805,7.542
	c-0.011,0.043-0.156,0.055-0.42,0.14c-0.542-2.101-1.181-4.171-1.586-6.288c-0.277-1.443-0.24-2.949-0.324-4.428
	c-0.111-1.99-0.171-3.982-0.314-5.97c-0.186-2.584-0.297-5.186-0.692-7.741c-0.338-2.188-0.996-4.332-1.584-6.475
	c-0.229-0.837-0.657-1.619-0.938-2.289c-1.566-0.968-3.076-1.266-4.694-0.9c-1.303,0.293-2.145,1.062-2.349,2.422
	c-0.082,0.548-0.134,1.104-0.165,1.658c-0.078,1.387-0.125,2.776-0.204,4.164c-0.127,2.221-0.404,4.442-0.379,6.66
	c0.045,3.845,0.247,7.688,0.432,11.529c0.126,2.635,0.343,5.266,0.502,7.899c0.053,0.869,0.226,1.762-0.331,2.691
	c-0.325,0.032-0.715,0.071-1.177,0.118c-0.231-0.646-0.458-1.197-0.627-1.766c-1.164-3.905-2.35-7.804-3.461-11.724
	c-0.821-2.893-1.536-5.816-2.308-8.722c-0.535-2.014-1.098-4.02-1.628-6.034c-0.284-1.078-0.981-1.611-2.061-1.777
	c-2.377-0.366-4.371,0.958-4.779,3.333c-0.202,1.179-0.297,2.402-0.231,3.595c0.18,3.238,0.47,6.471,0.722,9.706
	c0.09,1.149,0.113,2.312,0.313,3.443c0.289,1.637,0.697,3.253,1.08,4.872c0.564,2.389,1.199,4.761,1.715,7.159
	c0.544,2.534,1.218,5.071,1.411,7.639c0.227,3.028-0.847,5.934-1.613,8.84c-0.164,0.626-0.596,1.182-0.941,1.84
	c-0.304-0.251-0.457-0.354-0.582-0.485c-1.852-1.933-4.082-3.151-6.71-3.699c-1.62-0.338-3.202-0.856-4.818-1.212
	c-2.495-0.548-5.01-0.938-7.584-0.84c-2.253,0.086-4.03,1.22-5.735,2.517c-0.322,0.244-0.581,0.606-0.785,0.962
	c-0.623,1.089-0.445,2.24,0.38,3.195c0.79,0.915,1.909,1.058,2.963,1.394c1.229,0.392,2.526,0.708,3.622,1.352
	c2.233,1.312,4.375,2.787,6.511,4.259c2.723,1.876,5.261,3.945,6.987,6.863c2.42,4.091,5.784,7.333,9.467,10.269
	c1.413,1.126,2.84,2.239,4.294,3.313c1.185,0.876,1.691,2.114,1.769,3.48c0.17,2.955,0.207,5.917,0.31,8.877
	c0.061,1.752,0.144,3.502,0.197,4.799c0.927,1.83,2.246,2.417,3.617,2.888c4,1.375,8.08,2.007,12.306,1.264
	c1.642-0.289,3.292-0.547,4.949-0.732c3.519-0.392,6.466-2.164,9.464-3.825c0.194-0.108,0.34-0.307,0.691-0.632
	c-0.288-1.551-0.643-3.085-0.847-4.638c-0.635-4.822-1.225-9.649-1.796-14.479c-0.075-0.626-0.043-1.306,0.12-1.913
	c0.514-1.921,1.117-3.818,1.679-5.726c0.483-1.641,1.123-3.257,1.401-4.932c0.532-3.194,0.924-6.417,1.244-9.641
	c0.246-2.483,0.319-4.984,0.419-7.479c0.062-1.548,0.369-2.997,1.031-4.421c2.382-5.127,4.766-10.256,6.997-15.45
	c1.72-4.003,3.191-8.112,3.743-12.478C136.21,63.867,136.484,62.678,136.207,61.551z"/>
<path fill-rule="evenodd" clip-rule="evenodd" fill="#fafd30" class="fill" d="M80.883,53.652c1.242-0.424,1.242-0.424,2.3,0.221
	c0.664,3.054,1.821,6.055,1.948,9.323c-1.18,0.458-2.56,0.611-3.061,2.304c1.192-0.445,2.199-0.82,3.314-1.235
	c0.777,2.816,1.512,5.474,2.283,8.266c-1.563,0.629-3.184,1.136-4.097,2.723c0.467,0.593,0.897,0.221,1.284-0.069
	c0.896-0.672,1.833-1.239,3.074-1.475c0.518,1.352,1.04,2.678,1.532,4.015c0.607,1.651,1.138,3.333,1.805,4.959
	c0.328,0.8,0.805,1.575,1.362,2.237c0.742,0.884,1.467,0.89,2.457,0.307c0.596-0.351,1.235-0.628,1.852-0.943
	c0.355-0.182,0.705-0.375,1.175-0.625c-0.301-0.359-0.483-0.603-0.694-0.819c-0.225-0.23-0.477-0.434-0.626-0.568
	c0-2.858,0-5.613,0-8.388c2.722-0.617,2.722-0.617,3.118-1.777c-1.157-0.138-2.37,0.241-3.759-0.405
	c1.576-1.258,3.521-0.997,4.967-1.988c-0.958-0.588-1.655-0.541-4.662,0.252c-0.422-0.957-0.812-8.397-0.511-9.862
	c1.952-0.153,4.114,0.492,5.688-1.405c-1.992,0.022-3.968,0.145-5.691-0.999c0-3.168,0-6.26,0-9.102
	c0.974-1.597,2.195-2.043,3.912-1.879c0.42,1.357,0.891,2.749,1.28,4.164c1.065,3.864,1.456,7.825,1.645,11.813
	c0.162,3.379,0.258,6.764,0.525,10.136c0.157,1.978,0.489,3.958,0.939,5.891c0.302,1.299,0.331,2.452-0.363,3.606
	c-0.183,0.303-0.269,0.663-0.396,0.988c0.961,0.468,3.953,0.386,5.223-0.132c0-0.233-0.029-0.502,0.005-0.764
	c0.121-0.956,0.159-1.937,0.418-2.854c0.541-1.915,1.238-3.784,1.797-5.693c0.255-0.875,0.336-1.801,0.486-2.649
	c1.455-0.749,3.509,0.411,4.582-1.84c-1.436,0-2.646,0-4.019,0c-0.057-3.047,0.893-5.713,1.309-8.387
	c1.274-0.478,2.531-0.674,3.511-1.91c-1.066-0.166-1.939-0.302-2.962-0.461c0.109-0.745,0.193-1.417,0.31-2.083
	c0.264-1.502,0.544-3.002,0.819-4.503c0.075-0.41,0.167-0.817,0.233-1.229c0.093-0.576,0.268-1.107,0.879-1.309
	c0.676-0.221,1.167,0.176,1.593,0.614c0.718,0.734,1.034,1.637,0.964,2.662c-0.281,4.161-0.397,8.334-1.234,12.445
	c-0.248,1.219-0.282,2.484-0.387,3.731c-0.269,3.183-0.533,6.366-0.778,9.551c-0.11,1.432-0.159,2.868-0.26,4.301
	c-0.061,0.863-0.167,1.723-0.278,2.826c1.035,0.572,2.295,0.96,3.636,0.669c0.452-0.099,0.889-0.647,1.163-1.095
	c0.532-0.866,0.917-1.821,1.408-2.714c0.463-0.842,0.983-1.653,1.401-2.351c1.19-0.265,2.189,0.915,3.224-0.066
	c-0.653-0.614-1.271-1.194-1.93-1.813c1.072-2.737,3.05-4.705,4.636-6.753c1.248,0,2.34,0,3.655,0
	c-0.222,0.549-0.359,1.012-0.583,1.427c-1.479,2.727-2.99,5.437-4.459,8.169c-0.481,0.896-0.891,1.833-1.296,2.768
	c-1.712,3.951-3.417,7.904-5.107,11.864c-0.36,0.843-0.648,1.717-1.055,2.806c0,1.043,0.098,2.349-0.022,3.634
	c-0.193,2.07-0.421,4.149-0.832,6.185c-0.815,4.04-1.747,8.057-2.666,12.074c-0.666,2.91-2.357,5.097-4.903,6.62
	c-0.75,0.449-1.565,0.785-2.333,1.205c-0.419,0.229-0.801,0.526-1.158,0.764c0.218,0.82,0.736,0.878,1.252,0.862
	c1.58-0.05,3.139-0.19,4.578-0.961c0.626-0.335,1.318-0.547,2.034-0.838c0.374,1.002,0.126,1.759-0.146,2.484
	c-1.165,3.098-1.406,6.299-1.253,9.578c0.104,2.217,0.02,4.443,0.02,6.618c-1.473,0.953-2.926,1.441-4.408,1.764
	c-3.13,0.682-6.289,1.114-9.505,0.614c-1.306-0.203-2.518-0.587-3.657-1.606c0-0.68-0.002-1.455,0-2.231
	c0.004-1.109,0.032-2.218,0.014-3.327c-0.034-2.081-0.088-4.162-0.143-6.242c-0.034-1.284,0.303-2.488,0.878-3.607
	c0.593-1.152,0.801-2.351,0.741-3.583c-0.975-1.763-2.627-2.558-4.385-3.004c-3.249-0.826-6.182-2.2-8.776-4.326
	c-0.676-0.554-1.445-0.997-2.176-1.484c-2.401-1.602-3.36-3.961-3.594-6.729c-0.082-0.966-0.212-1.941-0.451-2.879
	c-0.46-1.806-1.077-2.217-2.961-2.172c-0.278,0.007-0.555,0-0.81,0c-3.158-1.95-5.512-5.125-9.769-5.662
	c1.174-1.45,2.248-2.466,3.587-3.25c2.283,0.771,4.303,1.983,6.257,3.321c0.841,0.576,1.66,1.185,2.492,1.774
	c2.056,1.456,3.806,1.044,4.874-1.195c0.695-1.458,1.287-2.967,1.986-4.424c0.276-0.576,0.709-1.079,1.092-1.599
	c0.578-0.784,1.218-1.523,1.741-2.34c0.271-0.423,0.348-0.971,0.512-1.463c-0.092-0.085-0.185-0.17-0.277-0.256
	c-0.584,0.261-1.169,0.521-1.887,0.841c-0.066-1.265-0.128-2.446-0.191-3.652c0.682-1.326,2.152-2.167,2.486-3.898
	c-0.411-0.079-0.75-0.153-1.093-0.208c-1.636-0.257-2.769-1.056-3.375-2.688c-1.507-4.055-2.522-8.241-3.298-12.477
	c-0.365-1.993-0.417-4.058-0.451-6.093c-0.047-2.862,0.028-5.729,0.108-8.591C80.538,55.274,80.755,54.462,80.883,53.652z
	 M91.342,97c2.348,0.876,4.552,1.708,6.763,2.523c4.777,1.761,9.722,2.25,14.769,1.88c0.575-0.042,1.137-0.251,1.704-0.383
	c0-0.452,0-0.751,0-1.13c-0.707-0.098-1.34-0.195-1.976-0.271c-1.333-0.161-2.672-0.276-4-0.471
	c-3.618-0.53-7.228-1.125-10.85-1.625c-1.996-0.277-3.901-0.729-5.592-1.891c-0.25-0.172-0.621-0.165-1.189-0.303
	C91.127,96.035,91.222,96.459,91.342,97z M102.165,113.71c0.114-0.552,0.374-1.13,0.322-1.679c-0.206-2.217-1.018-4.284-2.429-5.952
	c-2.63-3.111-6.224-4.199-10.186-4.229c-1.292-0.009-1.931,0.737-1.937,2.145c0.629,0.409,1.317,0.21,1.989,0.119
	c2.864-0.39,5.319,0.461,7.331,2.505c1.674,1.702,2.885,3.721,3.751,5.948C101.197,113.055,101.235,113.702,102.165,113.71z
	 M108.615,108.87c-0.108-0.01-0.217-0.02-0.324-0.03c-0.159,0.294-0.385,0.572-0.464,0.886c-0.563,2.237-1.063,4.489-1.65,6.719
	c-0.433,1.646-0.841,3.318-1.499,4.877c-0.534,1.266-1.361,2.417-2.979,2.621c-0.453,0.057-0.953,0.389-0.806,1.052
	c3.148,0.713,6.698-1.512,7.149-4.696c0.471-3.332,0.656-6.706,0.916-10.065C108.993,109.791,108.736,109.326,108.615,108.87z
	 M95.858,90.181c1.383,0.963,2.864,1.581,4.424,1.999c3.78,1.014,7.62,1.559,11.544,1.305c1.524-0.099,3.055-0.177,4.564-0.398
	c0.933-0.136,1.89-0.428,2.453-1.599c-1.133,0.229-2.1,0.519-3.083,0.606c-6.386,0.566-12.691,0.456-18.628-2.444
	C96.685,89.432,96.232,89.372,95.858,90.181z"/>
<path fill-rule="evenodd" clip-rule="evenodd" fill="#fafd30" class="fill" d="M129.547,70.076c0.557-2.697,1.357-5.057,3.151-6.945
	c0.808-0.309,1.386-0.06,1.885,0.683c0.15,2.322-0.518,4.567-1.262,6.977C132.062,70.552,130.865,70.326,129.547,70.076z"/>
<path fill-rule="evenodd" clip-rule="evenodd" fill="#fafd30" class="fill" d="M56.756,100.189c1.427-1.25,2.575-2.409,4.438-2.377
	c1.712,0.028,3.422,0.021,5.171,0.499c-0.135,1.33-1.049,2.254-1.496,3.432C62.216,101.235,59.654,100.745,56.756,100.189z"/>
</svg>
