<svg version="1.1" id="svg" xmlns="http://www.w3.org/2000/svg" xmlns:xlink="http://www.w3.org/1999/xlink" x="0px" y="0px"
	 width="200px" height="200px" viewBox="0 0 200 200" enable-background="new 0 0 200 200" xml:space="preserve">
<path class="stroke" fill="#064146"  fill-rule="evenodd" clip-rule="evenodd" d="M58.394,195.569c-0.539-0.493-1.037-0.95-1.51-1.382
	c-0.512-2.543,0.895-3.938,2.761-5.18c2.259-1.502,4.437-3.122,6.642-4.705c0.553-0.397,1.072-0.837,1.388-1.083
	c0.18-2.208,0.343-4.008,0.471-5.812c0.317-4.463,0.585-8.931,0.934-13.392c0.28-3.598-0.011-7.135-0.976-10.606
	c-0.924-3.33-0.683-6.592,0.249-9.879c0.318-1.122,0.513-2.352,0.411-3.5c-0.37-4.146,0.236-8.268,0.181-12.4
	c-0.028-1.98-0.044-3.971-0.257-5.937c-0.576-5.317-0.294-10.56,1.636-15.562c1.195-3.103,2.806-6.05,4.284-9.038
	c0.386-0.775,0.709-1.493,0.678-2.396c-0.055-1.518-0.186-3.077,0.845-4.407c0.124-0.161,0.151-0.426,0.161-0.646
	c0.109-2.386-0.127-4.74-0.627-7.149c-1.699-0.164-3.295-0.453-4.66-1.483c-0.745-0.563-1.283-1.19-1.635-2.09
	c-0.96-2.459-1.385-4.987-1.511-7.616c-0.31-6.404,0.827-12.537,3.48-18.345c1.056-2.309,2.454-4.434,4.762-5.834
	c2.223-1.35,4.496-1.309,6.872-0.725c0.427,0.104,0.85,0.222,1.438,0.377c0.226-1.572,0.499-3.009,0.602-4.459
	c0.034-0.508-0.314-1.065-0.559-1.566c-0.362-0.75-0.787-1.469-1.26-2.337c-0.941,1.08-1.729,2.112-2.645,3.012
	c-3.043,2.99-7.646,3.004-10.391,0.258c-0.071-0.072-0.084-0.205-0.219-0.55c0.535-0.038,0.998-0.13,1.448-0.084
	c0.385,0.038,0.746,0.262,1.13,0.355c2.374,0.584,3.829-0.023,5.293-2.009c1.5-2.039,2.174-4.291,2.151-6.916
	c-2.603,0.796-5.111,1.067-7.749,0.367c1.84-1.631,3.689-3.129,5.078-5.382c-2.148-0.059-3.992-0.55-5.662-2.206
	c1.27-0.532,2.375-0.994,3.784-1.584c-0.942-0.579-1.806-0.902-2.36-1.51c-0.529-0.58-0.737-1.454-1.033-2.085
	c0.639-0.95,1.366-0.579,2.006-0.592c0.672-0.014,1.342-0.003,2.219-0.003c-0.797-1.063-1.512-2.014-2.316-3.085
	c0.647-0.301,1.09-0.508,1.587-0.74c-0.25-0.727-0.515-1.492-0.764-2.22c0.737-0.794,1.506-0.446,2.182-0.344
	c2.075,0.312,3.698-0.24,5.083-1.927c1.436-1.744,3.013-3.409,4.727-4.879c2.678-2.298,5.856-3.631,9.391-3.96
	c1.456-0.136,2.79,0.378,3.957,1.267c0.539,0.41,1.059,0.847,1.591,1.273c0.304,0,0.591,0.046,0.86-0.007
	c2.986-0.574,5.119,0.864,6.938,2.974c1.107,1.282,2.277,2.524,2.769,4.228c0.827,2.866,0.681,5.697-0.113,8.54
	c-0.893,3.205-1.687,6.438-2.62,9.631c-1.351,4.617-2.672,9.246-5.354,13.345c-0.455,0.693-0.478,1.671-0.778,2.827
	c1.334-0.313,2.364-0.492,3.355-0.799c4.424-1.369,6.864,1.508,7.823,4.482c0.604,1.878,1.24,3.748,1.779,5.646
	c1.171,4.113,0.901,8.297,0.517,12.483c-0.201,2.194-0.197,4.425-1.135,6.491c-0.21,0.463-0.402,0.937-0.655,1.377
	c-0.688,1.198-1.628,2-3.113,2.013c-0.843,0.006-1.684,0.133-2.689,0.22c-0.112,0.348-0.336,0.751-0.362,1.167
	c-0.158,2.431-0.275,4.863-0.395,7.298c-0.017,0.338-0.075,0.718,0.047,1.012c0.67,1.604,1.288,3.241,2.114,4.762
	c1.242,2.285,2.772,4.419,3.946,6.735c2.164,4.266,3.476,8.841,4.361,13.529c0.917,4.859,1.063,9.777,1.051,14.705
	c-0.018,5.91-0.728,11.739-2.021,17.51c-0.257,1.139-0.259,2.354-0.241,3.53c0.017,1.071,0.265,2.137,0.334,3.209
	c0.386,5.834,0.008,11.659-0.266,17.483c-0.184,3.899-0.54,7.79-0.812,11.601c2.005,2.24,3.938,4.309,5.758,6.469
	c1.236,1.47,2.409,3.011,3.441,4.628c1.334,2.087,0.764,3.288-1.648,3.987c-0.809,0.234-1.61,0.537-2.373,0.899
	c-1.703,0.812-3.412,0.865-5.064-0.015c-2.798-1.491-5.554-3.059-8.324-4.601c-1.582-0.882-2.306-2.169-2.238-4.044
	c0.086-2.333-0.306-4.609-1.232-6.801c-0.362-0.851-0.542-1.902-0.424-2.813c0.54-4.151-0.623-7.953-2.055-11.753
	c-1.176-3.122-2.322-6.263-3.277-9.458c-0.973-3.268-1.171-6.59,0.363-9.8c0.633-1.321,0.482-2.55-0.052-3.907
	c-1.829-4.643-3.293-9.397-3.889-14.382c-0.048-0.393-0.103-0.785-0.191-1.171c-0.05-0.214-0.173-0.41-0.289-0.679
	c-1.729,0-3.457,0-5.244,0c-0.124,1.758-0.243,3.437-0.359,5.114c-0.258,3.753-1.323,7.343-2.207,10.969
	c-0.631,2.581-1.319,5.154-1.797,7.765c-0.227,1.253-0.321,2.677,0.039,3.868c1.539,5.088,0.458,9.854-1.397,14.586
	c-0.824,2.104-1.828,4.178-2.325,6.362c-0.729,3.189-1.19,6.454-1.549,9.711c-0.343,3.102-1.602,5.384-4.642,6.472
	c-0.265,0.095-0.523,0.24-0.795,0.268c-3.853,0.399-7.548,1.426-11.177,2.741C62.271,195.936,60.405,195.928,58.394,195.569z
	 M103.864,14.075c-0.502-0.221-1.024-0.405-1.5-0.672c-0.588-0.327-1.101-0.809-1.711-1.074c-1.935-0.846-3.919-0.908-5.915-0.263
	c2.72,0.27,5.396,0.603,7.648,2.489c0.503-0.186,0.969-0.357,1.435-0.531c2.29-0.23,4.04,1.19,6.215,2.168
	c-0.094-0.859-0.164-1.494-0.223-2.037c-1.469-0.676-3.491-1.126-4.581-0.953C104.689,13.29,103.891,13.121,103.864,14.075z
	 M101.303,49.059c-0.679,0.239-1.212,0.388-1.709,0.611c-3.143,1.406-6.457,1.612-9.821,1.347c-1.664-0.131-3.212-0.705-4.504-1.804
	c-3.061-2.6-7.93-1.914-10.045,1.466c-0.509,0.815-0.906,1.7-1.323,2.565c-1.7,3.512-2.397,7.305-3.046,11.1
	c-0.671,3.948-0.52,7.897,0.262,11.816c0.65,3.254,2.453,4.796,5.743,4.46c2.109-0.214,4.266-0.729,6.213-1.554
	c4.112-1.738,8.128-3.705,11.961-6.037c1.928-1.174,3.942-2.312,6.067-3.021c2.279-0.76,4.418-1.735,6.479-2.906
	c0.725-0.411,1.351-1.019,1.961-1.604c0.468-0.449,0.712-1.023,0.329-1.662c-0.556-0.262-1.088-0.511-1.626-0.763
	c0.503-0.972,0.932-1.799,1.437-2.771c-1.031-0.224-1.843-0.399-2.699-0.585c0.352-0.885,0.607-1.532,0.946-2.382
	c-1.184,0-2.075,0-2.927,0c-0.173-0.832-0.307-1.474-0.465-2.234c-2.209,0.139-3.549,1.586-5.061,2.767
	c-0.536-0.114-1.062-0.226-1.684-0.358c-0.416,1.601-0.805,3.111-1.117,4.314c-1.896,1.062-3.562,1.815-5.025,2.856
	c-1.971,1.405-4.158,2.29-6.382,3.126c-1.429,0.535-2.891,0.991-4.356,1.413c-1.014,0.292-2.062,0.464-3.089,0.69
	c-0.63-1.098-2.069-1.462-1.687-3.059c0.422-0.382,0.918-0.831,1.435-1.296c-0.679-1.83,0.691-2.513,1.849-3.258
	c-0.066-0.716-0.127-1.375-0.169-1.829c0.751-1.332,2.037-0.54,2.817-1.079c0-0.79,0-1.507,0-2.229
	c1.37-0.941,2.682-1.076,3.993-0.122c0.821,0.598,1.63,1.226,2.374,1.915c1.272,1.184,2.49,2.426,3.753,3.661
	c1.095-0.493,2.064-0.929,3.103-1.396c0.142-0.566,0.266-1.108,0.413-1.645c0.256-0.927,0.468-1.872,0.805-2.769
	c0.421-1.107,1.179-2.029,2.38-2.233c2.152-0.366,4.332-0.575,6.546-0.855c0.478,0.848,0.856,1.517,1.263,2.239
	c1.043-0.114,1.979,0.144,2.68,1.118c-0.022,0.471-0.045,0.962-0.068,1.479c0.523,0.277,1.016,0.538,1.697,0.9
	c-0.083,0.889-0.169,1.819-0.267,2.895c-0.004-0.006,0.081,0.139,0.185,0.267c1.451,1.762,1.388,3.421-0.299,4.89
	c-0.627,0.546-1.388,0.974-2.147,1.321c-0.977,0.443-2.006,0.771-3.023,1.113c-1.457,0.489-2.565,1.409-3.432,2.654
	c-0.462,0.662-0.864,1.334-0.503,2.31c3.559,1.013,7.231,1.434,10.961,1.348c1.022-1.035,1.357-2.307,1.553-3.583
	c0.368-2.405,0.73-4.816,0.916-7.239c0.335-4.375,0.09-8.72-1.158-12.961c-0.521-1.769-1.397-3.32-2.826-4.555
	c-1.047-0.904-2.285-1.246-3.479-0.799c-1.57,0.59-3.01,1.521-4.311,2.205c-0.293,0.657-0.471,1.06-0.703,1.583
	c-0.445-0.093-0.846-0.177-1.277-0.266C101.232,50.075,101.261,49.654,101.303,49.059z M84.429,27.01
	c-0.148,0.033-0.295,0.066-0.443,0.099c-0.082,0.878-0.294,1.767-0.223,2.633c0.327,3.86,1.23,7.582,2.85,11.124
	c1.988,4.348,5.16,6.013,9.666,5.491c2.946-0.341,5.549-1.483,6.905-4.294c1.968-4.077,3.865-8.211,4.548-12.75
	c0.335-2.229,0.764-4.515-1.061-6.483c-2.723-0.196-5.535,0.29-8.447-0.375c0.922-1.59,2.392-1.315,3.586-1.495
	c1.237-0.187,2.524-0.041,3.918-0.041c-0.461-0.843-1.113-1.162-1.922-1.345c-0.855-0.193-1.685-0.504-2.526-0.764
	c-2.593,0.059-5.23,0.278-7.498,1.786c0.156,0.481,0.287,0.882,0.495,1.514c-1.09-0.061-1.969-0.107-2.985-0.165
	c-0.402,0.373-0.885,0.816-1.427,1.317c1.012,0.699,1.704,1.426,1.752,2.546c0.07,1.622-1.123,2.854-2.964,3.137
	C86.841,29.221,85.49,28.461,84.429,27.01z M95.026,77.304c-2.036,2.149-4.654,3.048-7.073,4.249
	c-2.42,1.201-4.942,2.194-7.45,3.291c-0.194,1.765-0.385,3.476-0.59,5.334c8.577,0.142,16.9-0.944,25.189-1.928
	c0.258-2.717,0.491-5.167,0.71-7.479C102.101,79.577,98.614,78.456,95.026,77.304z M83.351,57.876
	c0.529,1.194,1.052,2.372,1.589,3.587c-1.583,0.788-2.678-1.065-4.31-0.446c0.586,0.645,1.06,1.167,1.571,1.734
	c-0.066,0.274-0.14,0.581-0.222,0.915c-1.097-0.067-2.229-0.576-2.926,0.552c0.026,1.035,1.65,1.106,1.19,2.32
	c-0.843,0.135-1.679,0.271-2.514,0.404c-0.096,0.19-0.194,0.385-0.292,0.577c0.402,0.342,0.806,0.684,1.184,1.005
	c4.424-1.369,8.764-2.198,12.494-5.239c-2.008-1.816-3.826-3.503-5.699-5.126C84.935,57.742,84.314,57.335,83.351,57.876z
	 M100.03,17.051c0.031-0.14,0.061-0.28,0.092-0.421c-1.374-1.137-2.987-1.499-4.72-1.156c-4.277,0.847-7.847,2.881-10.964,6.008
	c-2.962,2.973-4.521,6.888-7.297,9.944c-0.028,0.031-0.002,0.11-0.002,0.166c1.759,0.059,3.19-0.735,4.063-2.416
	c1.751-3.37,4.188-6.174,7.013-8.662c2.752-2.422,5.953-3.639,9.646-3.468C98.585,17.081,99.31,17.051,100.03,17.051z
	 M76.767,25.491c1.666,0.102,3.015-0.443,3.957-1.455c1.541-1.653,3.133-3.26,4.641-4.944c1.088-1.214,2.443-2,3.875-2.684
	c1.018-0.485,2.047-0.981,3.118-1.313c3.365-1.042,6.672-1.435,9.427,1.331c3.559-0.88,5.634,1.67,8.155,3.452
	c0.253-0.814,0.286-1.537-0.275-1.98c-1.805-1.43-3.582-3.084-6.172-2.539c-1.089,0.229-1.924-0.038-2.866-0.559
	c-3.521-1.941-7.205-2.005-10.693-0.108c-2.054,1.118-3.883,2.71-5.652,4.27c-2.324,2.048-4.344,4.444-7.085,6.002
	C77.065,25.036,76.993,25.207,76.767,25.491z M100.812,10.779c-2.311-1.062-4.681-1.977-7.214-1.478
	c-2.152,0.425-4.325,1.007-6.32,1.9c-2.66,1.188-5.156,2.746-7.824,4.2c1.203,0.642,2.327,1.075,3.618,0.208
	c0.985-0.662,2.059-1.192,3.058-1.837C90.638,10.858,95.474,9.624,100.812,10.779z M78.216,21.971
	c0.733,0.425,1.18,0.209,1.574-0.307c0.273-0.356,0.562-0.714,0.892-1.016c1.961-1.783,3.937-3.551,5.9-5.332
	c0.023-0.021-0.047-0.146-0.089-0.271c-1.35,0.709-2.637,1.556-4.046,2.082c-1.354,0.505-2.833,0.679-4.495,1.054
	c0.854,0.64,1.47,1.102,2.087,1.564c-0.056,0.451-0.103,0.832-0.142,1.137C79.29,21.275,78.784,21.603,78.216,21.971z
	 M101.864,9.445C99.94,5.751,94.72,4.16,91.694,6.164c2.669,0.101,5.169,0.557,7.362,2.215
	C99.769,8.918,100.786,9.053,101.864,9.445z M86.139,25.01c-0.051,0.484-0.108,0.759-0.106,1.033
	c0.013,0.895,0.406,1.537,1.327,1.687c0.911,0.15,1.897,0.176,2.413-0.731c0.262-0.462,0.29-1.186,0.151-1.72
	c-0.189-0.732-0.894-1.021-1.616-0.897C87.601,24.502,86.921,24.776,86.139,25.01z M102.068,17.055
	c-0.094,0.114-0.188,0.229-0.281,0.345c0.512,0.252,1.013,0.687,1.542,0.725c2.076,0.154,3.415,1.241,4.318,3.033
	c0.415,0.824,0.908,1.612,1.42,2.513c0.75-1.283,0.82-1.767,0.082-2.583C107.239,18.968,105.085,17.229,102.068,17.055z
	 M85.858,9.969c2.694-0.804,5.24-1.564,7.852-2.345c-0.134-0.119-0.26-0.321-0.357-0.309c-1.956,0.253-3.919,0.485-5.861,0.825
	C86.604,8.296,86.13,8.992,85.858,9.969z M109.219,10.828c-1.819-0.316-3.435-0.648-4.731,0.919
	c1.697,0.071,3.295,0.853,5.174,0.634C109.486,11.77,109.37,11.359,109.219,10.828z M104.16,9.783
	c1.427-0.2,2.724-0.382,4.202-0.588c-0.357-0.501-0.658-0.924-0.928-1.299c-0.814,0.247-1.453,0.468-2.106,0.634
	C104.695,8.692,103.902,8.656,104.16,9.783z M103.569,7.739c0.797-0.203,1.531-0.39,2.511-0.639
	c-1.568-0.851-2.563-0.934-2.913-0.264C103.259,7.042,103.384,7.322,103.569,7.739z"/>
<path class="stroke" fill="#064146"  fill-rule="evenodd" clip-rule="evenodd" d="M142.307,124.289c-2.375,0.267-4.476-0.067-6.447,0.425
	c-0.704,1.542-0.37,3.359-1.864,4.656c-0.539-0.468-1.061-0.857-1.504-1.318c-1.549-1.612-3.061-3.258-4.609-4.869
	c-0.509-0.532-0.966-1.06-0.864-2.194c1.074-1.264,2.265-2.802,3.603-4.199c1.213-1.266,2.571-2.394,3.9-3.541
	c0.354-0.305,0.84-0.454,1.536-0.816c0.082,1.847,0.151,3.383,0.227,5.084c2.257-0.196,4.46-0.591,6.769,0.013
	C142.8,119.834,142.553,122.064,142.307,124.289z"/>
<path class="stroke" fill="#064146"  fill-rule="evenodd" clip-rule="evenodd" d="M102.067,29.314c-0.736-0.257-1.664-0.49-2.51-0.898
	c-1.936-0.935-1.537-3.568,0.067-4.432c1.474-0.794,3.102-1.042,4.725-0.281c1.221,0.569,1.985,1.823,1.827,2.974
	c-0.145,1.053-1.142,2.022-2.398,2.309C103.284,29.099,102.786,29.178,102.067,29.314z M102.422,28.132
	c0.341-0.043,0.759,0.025,0.992-0.15c0.51-0.384,1.097-0.816,1.338-1.367c0.308-0.695-0.248-1.271-0.806-1.689
	c-0.91-0.682-1.922-0.52-2.892-0.198c-0.95,0.314-1.465,1.111-1.306,1.909c0.179,0.895,0.821,1.285,1.674,1.393
	C101.756,28.07,102.091,28.099,102.422,28.132z"/>
<path class="stroke" fill="#064146"  fill-rule="evenodd" clip-rule="evenodd" d="M92.294,31.21c0.071,0.53,0.143,1.063,0.222,1.657
	c2.005,0.78,3.813-0.082,5.765-0.888c0,0.772,0,1.359,0,1.872c-2.692,2.354-5.219,1.15-7.756,0.106
	C90.685,31.562,90.83,31.33,92.294,31.21z"/>
<path class="stroke" fill="#064146"  fill-rule="evenodd" clip-rule="evenodd" d="M91.619,38.665c1.334,0.265,1.365,2.312,3.163,1.932
	c0.488-0.461,1.108-1.046,1.827-1.722c0.271,1.407-0.24,2.475-1.248,2.964c-1.019,0.495-2.573,0.141-3.359-0.874
	c-0.368-0.473-0.589-1.077-0.78-1.654C91.171,39.156,91.476,38.884,91.619,38.665z"/>
<path class="stroke" fill="#064146"  fill-rule="evenodd" clip-rule="evenodd" d="M95.26,88.938c-0.505-0.585-1.013-1.171-1.669-1.932
	c-0.359,0.753-0.66,1.382-1.033,2.162c-0.34-0.032-0.73-0.069-1.266-0.119c0.234-0.801,0.354-1.465,0.621-2.062
	c0.473-1.047,1.87-1.609,2.658-1.008c0.551,0.421,0.977,1.071,1.295,1.7c0.143,0.277-0.117,0.759-0.195,1.147
	C95.534,88.866,95.397,88.902,95.26,88.938z"/>
<path class="stroke" fill="#064146"  fill-rule="evenodd" clip-rule="evenodd" d="M88.573,25.789c-0.195,0.441-0.321,0.726-0.507,1.143
	c-0.438-0.261-0.786-0.471-1.192-0.714C87.289,25.455,87.786,25.517,88.573,25.789z"/>
<path class="stroke" fill="#064146"  fill-rule="evenodd" clip-rule="evenodd" d="M102.575,27.378c-0.516-0.409-0.804-0.637-1.141-0.906
	c0.503-0.749,1.006-0.701,1.697-0.252C102.969,26.558,102.82,26.867,102.575,27.378z"/>
<path fill-rule="evenodd" clip-rule="evenodd" fill="#8dece4" class="fill" d="M109.848,189.241c-0.101-0.807-0.198-1.613-0.307-2.419
	c-0.153-1.118-0.212-2.266-0.511-3.345c-0.215-0.784-0.641-1.579-1.174-2.194c-1.021-1.175-1.386-2.421-0.986-3.922
	c0.131-0.489,0.211-1,0.242-1.507c0.163-2.646,0.346-5.293,0.439-7.943c0.089-2.536,0.051-5.076,0.117-7.616
	c0.229-8.546,0.373-17.091,0.105-25.64c-0.065-2.145,0.145-4.297,0.204-6.446c0.075-2.828,0.253-5.66,0.165-8.486
	c-0.165-5.424-0.414-10.852-0.775-16.269c-0.198-2.981-0.701-5.943-1.055-8.915c-0.03-0.258,0.047-0.53,0.117-1.188
	c0.414,0.523,0.737,0.756,0.806,1.045c0.255,1.104,0.479,2.219,0.62,3.341c0.489,3.874,0.947,7.753,1.402,11.631
	c0.999,8.518,0.615,17.083,0.831,25.628c0.142,5.549,0.169,11.1,0.188,16.65c0.012,2.887-0.131,5.775-0.154,8.663
	c-0.066,8.037-0.129,16.075-0.14,24.113c-0.001,1.57,0.237,3.141,0.365,4.71C110.183,189.169,110.016,189.205,109.848,189.241z"/>
<path fill-rule="evenodd" clip-rule="evenodd" fill="#8dece4" class="fill" d="M81.739,95.695c0.613-0.109,1.037-0.186,1.553-0.278
	c0.068,0.412,0.203,0.744,0.162,1.049c-0.23,1.682-0.517,3.354-0.76,5.034c-0.453,3.152-0.513,6.296-0.052,9.469
	c0.638,4.384,0.661,8.81,0.411,13.225c-0.304,5.363-0.621,10.73-1.14,16.077c-0.503,5.181-1.306,10.331-1.906,15.501
	c-0.484,4.153-0.807,8.325-1.308,12.477c-0.378,3.149-0.423,6.295-0.521,9.456c-0.095,3.129,0.134,6.208,0.326,9.302
	c0.108,1.767-1.158,2.229-2.512,3.067c-0.065-0.739-0.15-1.275-0.152-1.812c-0.002-2.434-0.094-4.874,0.057-7.301
	c0.291-4.74,0.698-9.474,1.104-14.207c0.26-3.045,0.533-6.089,0.928-9.118c0.291-2.233,0.852-4.435,1.179-6.666
	c0.752-5.147,1.438-10.291,1.7-15.508c0.351-6.971,0.078-13.919-0.154-20.88c-0.139-4.174-0.108-8.359,0.065-12.532
	C80.807,99.933,81.381,97.834,81.739,95.695z"/>
<path fill-rule="evenodd" clip-rule="evenodd" fill="#8dece4" class="fill" d="M78.44,95.784c0.723-0.078,1.257-0.136,1.896-0.204
	c0,0.471,0.071,0.812-0.012,1.108c-1.163,4.153-1.119,8.418-1.063,12.657c0.08,6.06,0.413,12.119,0.55,18.179
	c0.054,2.318-0.153,4.642-0.2,6.963c-0.114,5.507-0.979,10.936-1.66,16.384c-0.268,2.131-0.788,4.23-1.083,6.359
	c-0.364,2.633-0.652,5.276-0.904,7.923c-0.448,4.733-0.899,9.468-1.241,14.209c-0.154,2.141-0.051,4.301-0.057,6.449
	c-0.005,1.635-0.001,3.267-0.001,5.021c-0.807,0.176-1.5,0.325-2.24,0.487c-0.604-1.145-0.604-2.264-0.498-3.388
	c0.304-3.154,0.599-6.311,0.945-9.461c0.396-3.599,0.772-7.203,1.3-10.783c0.402-2.735,1.172-5.418,1.522-8.156
	c0.625-4.876,1.084-9.775,1.561-14.669c0.255-2.589,0.504-5.186,0.575-7.782c0.08-2.879-0.026-5.764-0.085-8.645
	c-0.062-3.104-0.15-6.207-0.25-9.309c-0.06-1.811-0.188-3.617-0.237-5.428c-0.143-5.212-0.112-10.417,0.667-15.59
	C78.032,97.39,78.238,96.686,78.44,95.784z"/>
<path fill-rule="evenodd" clip-rule="evenodd" fill="#8dece4" class="fill" d="M109.393,96.308c0.216,0.594,0.524,1.172,0.635,1.785
	c0.443,2.508,0.933,5.015,1.209,7.544c0.446,4.043,0.761,8.103,1.089,12.157c0.229,2.821,0.461,5.646,0.558,8.474
	c0.135,4.02,0.139,8.044,0.218,12.067c0.038,1.922,0.188,3.843,0.165,5.764c-0.064,5.837-0.237,11.672-0.269,17.508
	c-0.019,3.567,0.172,7.135,0.224,10.706c0.023,1.695-0.103,3.394-0.084,5.092c0.03,2.938,0.102,5.877,0.202,8.812
	c0.02,0.543,0.26,1.078,0.419,1.691c-0.491,0.688-1.015,1.418-1.745,2.439c-0.182-0.777-0.375-1.326-0.433-1.887
	c-0.32-3.038-0.675-6.053-0.445-9.142c0.229-3.095,0.034-6.22,0.054-9.331c0.023-3.679,0.099-7.356,0.115-11.035
	c0.019-4.523,0.008-9.048-0.008-13.572c-0.017-5.38-0.009-10.761-0.099-16.141c-0.079-4.808-0.112-9.626-0.463-14.421
	c-0.424-5.803-1.16-11.584-1.756-17.374c-0.031-0.33-0.004-0.665-0.004-0.997C109.114,96.4,109.253,96.354,109.393,96.308z"/>
<path fill-rule="evenodd" clip-rule="evenodd" fill="#8dece4" class="fill" d="M106.125,167.502c-0.581-1.458-1.18-2.91-1.733-4.38
	c-0.138-0.358-0.193-0.776-0.174-1.162c0.182-3.675,0.427-7.348,0.58-11.022c0.162-3.847,0.214-7.699,0.374-11.545
	c0.073-1.753,0.292-3.499,0.431-5.249c0.032-0.416,0.004-0.835-0.127-1.266c-0.848,2.104-1.111,4.314-1.198,6.54
	c-0.097,2.426-0.043,4.858-0.142,7.284c-0.165,4.129-0.396,8.253-0.606,12.38c-0.008,0.151-0.098,0.299-0.225,0.665
	c-0.267-0.461-0.491-0.753-0.618-1.083c-1.095-2.841-1.075-5.762-0.497-8.693c0.293-1.496,0.826-2.948,1.07-4.451
	c0.271-1.667,0.351-3.364,0.485-5.052c0.452-5.639,0.795-11.288,1.363-16.913c0.518-5.143,0.349-10.284,0.41-15.429
	c0.054-4.614-0.494-9.144-1.274-13.667c-0.022-0.141,0.078-0.301,0.148-0.542c0.736,0.312,0.769,0.952,0.863,1.522
	c0.882,5.359,1.574,10.741,1.706,16.179c0.103,4.304,0.197,8.607,0.206,12.911c0.005,2.377-0.226,4.751-0.256,7.129
	c-0.06,5.15-0.026,10.302-0.093,15.452c-0.073,5.605-0.223,11.209-0.33,16.812c-0.022,1.167-0.003,2.336-0.003,3.504
	C106.367,167.451,106.247,167.477,106.125,167.502z"/>
<path fill-rule="evenodd" clip-rule="evenodd" fill="#8dece4" class="fill" d="M82.262,153.083c0.808,0.948,0.569,2.092,0.437,3.213
	c-0.466,3.987-0.95,7.976-1.424,11.964c-0.06,0.504-0.144,1.018-0.119,1.522c0.129,2.698-0.949,5.212-1.179,7.854
	c-0.012,0.141-0.163,0.269-0.417,0.66c-0.078-0.584-0.144-0.928-0.169-1.275c-0.265-3.691,0.172-7.325,0.747-10.968
	c0.389-2.454,0.49-4.953,0.771-7.428c0.474-4.151,1.019-8.296,1.473-12.45c0.383-3.483,0.679-6.978,1.012-10.468
	c0.248-2.591,0.587-5.178,0.713-7.776c0.171-3.557,0.303-7.123,0.214-10.681c-0.071-2.88-0.485-5.75-0.759-8.625
	c-0.408-4.287,0.381-8.46,1.239-12.623c0.048-0.228,0.317-0.41,0.627-0.79c0.145,0.481,0.303,0.769,0.306,1.057
	c0.043,4.249,0.021,8.497,0.106,12.744c0.074,3.561,0.296,7.118,0.398,10.677c0.045,1.573-0.04,3.149-0.065,4.723
	c-0.004,0.284-0.047,0.573-0.004,0.85c0.889,5.846-0.324,11.501-1.557,17.151C83.851,145.896,83.078,149.376,82.262,153.083z"/>
<path fill-rule="evenodd" clip-rule="evenodd" fill="#8dece4" class="fill" d="M76.186,100.279c0,2.104,0.091,3.916-0.022,5.717
	c-0.182,2.94-0.156,5.862-0.021,8.812c0.306,6.671,0.527,13.357,0.412,20.033c-0.093,5.425-0.667,10.848-1.141,16.261
	c-0.312,3.552-0.745,7.098-1.274,10.625c-0.437,2.906-1.199,5.765-1.627,8.675c-0.436,2.965-0.629,5.967-0.947,8.952
	c-0.383,3.582-0.785,7.162-1.217,11.076c-0.913-1.655-1.685-3.058-2.545-4.62c0.754-0.616,1.482-1.212,2.422-1.98
	c0.179-2.454,0.483-5.098,0.54-7.747c0.099-4.867,0.151-9.727,0.933-14.554c0.22-1.353,0.482-2.644,1.009-3.913
	c1.369-3.301,1.659-6.82,1.751-10.331c0.153-5.828,0.177-11.66,0.201-17.491c0.016-3.563-0.177-7.129-0.085-10.689
	c0.141-5.426,0.435-10.847,0.696-16.269C75.308,102.015,75.377,101.158,76.186,100.279z"/>
<path fill-rule="evenodd" clip-rule="evenodd" fill="#8dece4" class="fill" d="M111.954,101.57c1.236,1.577,1.634,3.062,1.76,4.652
	c0.266,3.383,0.594,6.762,0.787,10.147c0.141,2.48,0.011,4.977,0.163,7.455c0.217,3.5,0.559,6.994,0.903,10.483
	c0.058,0.581,0.412,1.131,0.697,1.875c-0.338,2.661-0.795,5.516-1.029,8.391c-0.119,1.438,0.035,2.937,0.308,4.362
	c0.276,1.455,0.62,2.853,0.321,4.356c-0.175,0.879-0.172,1.809-0.15,2.712c0.125,5.33-0.089,10.644-0.592,15.952
	c-0.161,1.688-0.18,3.395-0.212,5.091c-0.042,2.433,0.273,4.752,2.184,6.551c0.358,0.339,0.587,0.812,0.889,1.242
	c-1.09,0.591-2.103,1.141-3.368,1.825c-0.092-0.65-0.221-1.165-0.23-1.681c-0.055-3.337-0.073-6.675-0.128-10.013
	c-0.06-3.837-0.204-7.671-0.204-11.507c-0.003-3.221,0.178-6.441,0.229-9.663c0.06-3.852,0.139-7.705,0.079-11.555
	c-0.097-6.328-0.192-12.659-0.485-18.979c-0.247-5.362-0.748-10.715-1.188-16.065c-0.103-1.232-0.434-2.442-0.62-3.668
	C111.984,103.003,111.999,102.455,111.954,101.57z"/>
<path fill-rule="evenodd" clip-rule="evenodd" fill="#8dece4" class="fill" d="M73.551,110.886c0,2.187-0.003,4.372,0,6.558
	c0,4.696,0.087,9.394-0.017,14.09c-0.146,6.682-0.415,13.361-0.672,20.039c-0.039,1.044-0.294,2.078-0.49,3.393
	c-1.791-2.072-2.403-4.275-2.155-6.609c0.214-2.011,0.89-3.97,1.258-5.971c0.286-1.547,0.488-3.117,0.587-4.686
	c0.139-2.203,0.153-4.414,0.207-6.622c0.104-4.247,0.16-8.498,0.308-12.744c0.087-2.474,0.312-4.943,0.478-7.415
	C73.218,110.908,73.384,110.897,73.551,110.886z"/>
<path fill-rule="evenodd" clip-rule="evenodd" fill="#8dece4" class="fill" d="M102.403,141.187c-0.836-1.5-0.944-2.727-0.777-3.96
	c0.879-6.459,0.991-12.961,1.17-19.462c0.096-3.502,0.279-7.008,0.214-10.508c-0.073-3.893-0.39-7.782-0.592-11.673
	c-0.021-0.388-0.002-0.776-0.002-1.484c0.823,0.836,0.939,1.64,1.095,2.438c1.124,5.763,1.189,11.591,0.969,17.42
	c-0.202,5.36-0.554,10.719-0.948,16.071C103.267,133.631,102.812,137.218,102.403,141.187z"/>
<path fill-rule="evenodd" clip-rule="evenodd" fill="#8dece4" class="fill" d="M92.097,95.053c0.521-0.044,0.9-0.075,1.457-0.123
	c0.256,1.119,0.655,2.195,0.731,3.294c0.398,5.7,0.977,11.396,0.575,17.129c-0.193,2.76-0.91,5.346-2.244,7.763
	c-0.161,0.295-0.362,0.572-0.566,0.84c-0.059,0.076-0.193,0.096-0.414,0.197c0-0.393-0.082-0.76,0.012-1.076
	c1.272-4.34,1.539-8.769,1.265-13.259C92.616,104.965,92.374,100.106,92.097,95.053z"/>
<path fill-rule="evenodd" clip-rule="evenodd" fill="#8dece4" class="fill" d="M100.798,133.657c-0.81-3.175-1.318-6.312-0.329-9.62
	c-0.159-0.256-0.395-0.634-0.611-0.981c0.564-9.562,1.466-19.085-0.169-28.666c0.438-0.122,0.722-0.2,1.208-0.336
	c0.218,1.589,0.468,3.02,0.606,4.462c0.53,5.523,0.781,11.047,0.342,16.6c-0.265,3.378-0.244,6.778-0.385,10.17
	c-0.093,2.261-0.226,4.52-0.372,6.778C101.054,132.6,100.898,133.127,100.798,133.657z"/>
<path fill-rule="evenodd" clip-rule="evenodd" fill="#8dece4" class="fill" d="M89.652,95.327c0.319-0.095,0.573-0.172,1.052-0.314
	c0.15,0.874,0.354,1.616,0.395,2.368c0.302,5.3,0.622,10.599,0.834,15.902c0.132,3.36-0.648,6.622-1.41,9.871
	c-0.102,0.438-0.168,0.932-0.937,0.791c0-0.239-0.036-0.497,0.005-0.742c1.017-6.201,0.043-12.403,0.027-18.604
	c-0.003-1.07,0.029-2.14,0.032-3.209C89.657,99.424,89.652,97.459,89.652,95.327z"/>
<path fill-rule="evenodd" clip-rule="evenodd" fill="#8dece4" class="fill" d="M98.616,123.52c-1.018,0.185-1.722,0.312-2.67,0.485
	c0.309-1.016,0.55-1.845,0.811-2.667c1.068-3.365,1.405-6.789,1.375-10.336c-0.038-4.023-0.387-7.999-0.808-11.983
	c-0.096-0.893-0.341-1.77-0.503-2.656c-0.098-0.54-0.17-1.084-0.271-1.746c0.671-0.133,1.199-0.237,1.922-0.381
	C100.544,104.064,99.406,113.741,98.616,123.52z"/>
<path fill-rule="evenodd" clip-rule="evenodd" fill="#8dece4" class="fill" d="M87.795,123.978c-0.071-0.152-0.2-0.302-0.206-0.456
	c-0.354-9.32-1.068-18.634-0.535-28.054c0.395-0.054,0.696-0.094,0.977-0.132C89.101,98.334,89.127,118.802,87.795,123.978z"/>
<path fill-rule="evenodd" clip-rule="evenodd" fill="#8dece4" class="fill" d="M116.559,132.578c-0.104-0.635-0.169-0.997-0.223-1.36
	c-0.948-6.381-0.333-12.83-0.975-19.539C117.045,115.034,117.714,127.268,116.559,132.578z"/>
<path fill-rule="evenodd" clip-rule="evenodd" fill="#8dece4" class="fill" d="M60.693,190.432c1.011-0.799,1.882-1.488,2.962-2.342
	c1.158,1.455,2.222,2.792,3.49,4.386c-1.141,0.305-1.93,0.517-2.71,0.724C63.2,192.286,62.03,191.421,60.693,190.432z"/>
<path fill-rule="evenodd" clip-rule="evenodd" fill="#8dece4" class="fill" d="M117.161,194.279c-0.043-0.025-0.275-0.163-0.626-0.37
	c1.698-1.567,2.834-3.631,5.474-4.265c0.47,0.615,0.99,1.297,1.546,2.023C121.354,192.567,119.345,193.389,117.161,194.279z"/>
<path fill-rule="evenodd" clip-rule="evenodd" fill="#8dece4" class="fill" d="M118.729,185.853c0.211,0.182,0.313,0.239,0.374,0.329
	c0.095,0.138,0.159,0.293,0.303,0.566c-1.931,1.539-4.297,2.688-5.27,5.374c-0.478-0.294-0.82-0.503-1.261-0.771
	C114.021,188.546,115.792,186.633,118.729,185.853z"/>
<path fill-rule="evenodd" clip-rule="evenodd" fill="#8dece4" class="fill" d="M82.733,167.96c-0.42-1.896,0.504-9.429,1.287-11.037
	C84.983,160.897,84.169,164.466,82.733,167.96z"/>
<path fill-rule="evenodd" clip-rule="evenodd" fill="#8dece4" class="fill" d="M121.103,188.402c-2.037,1.849-3.724,3.377-5.648,5.122
	c-0.091-0.581-0.255-0.937-0.175-1.225c0.669-2.407,2.849-3.314,4.859-4.896C120.511,187.788,120.844,188.132,121.103,188.402z"/>
<path fill-rule="evenodd" clip-rule="evenodd" fill="#8dece4" class="fill" d="M64.9,187.526c0.657-0.379,1.173-0.675,1.917-1.102
	c0.912,1.818,1.759,3.507,2.659,5.304c-0.463,0.218-0.743,0.347-1.106,0.518C67.233,190.699,66.139,189.213,64.9,187.526z"/>
<path fill-rule="evenodd" clip-rule="evenodd" fill="#8dece4" class="fill" d="M107.364,92.312c-0.54,0.076-0.903,0.127-1.475,0.207
	c-0.037-0.672-0.066-1.243-0.105-1.957c0.562-0.059,1.016-0.108,1.58-0.169C107.364,91.083,107.364,91.61,107.364,92.312z"/>
<path fill-rule="evenodd" clip-rule="evenodd" fill="#8dece4" class="fill" d="M95.766,93.236c-0.4,0.114-0.7,0.199-1.101,0.314
	c-0.155-0.423-0.279-0.755-0.447-1.211c0.467-0.123,0.815-0.215,1.264-0.333C95.584,92.451,95.666,92.805,95.766,93.236z"/>
<path fill-rule="evenodd" clip-rule="evenodd" fill="#8dece4" class="fill" d="M86.559,92.67c1.184-0.194,1.197,0.436,1.238,1.188
	c-0.367,0.027-0.711,0.053-1.162,0.088C86.608,93.479,86.587,93.126,86.559,92.67z"/>
<path fill-rule="evenodd" clip-rule="evenodd" fill="#8dece4" class="fill" d="M93.001,93.575c-0.493,0.055-0.759,0.083-1.141,0.124
	c-0.133-0.433-0.25-0.815-0.407-1.328c0.517-0.037,0.875-0.063,1.329-0.099C92.854,92.701,92.913,93.055,93.001,93.575z"/>
<path fill-rule="evenodd" clip-rule="evenodd" fill="#8dece4" class="fill" d="M98.301,92.917c-0.489,0.091-0.745,0.14-0.934,0.176
	c-0.575-0.453-0.406-0.942,0.521-1.536C98.016,91.973,98.128,92.349,98.301,92.917z"/>
<path fill-rule="evenodd" clip-rule="evenodd" fill="#8dece4" class="fill" d="M102.484,92.914c-1.232-0.982-1.233-1.005-0.184-1.972
	C102.362,91.587,102.407,92.076,102.484,92.914z"/>
<path fill-rule="evenodd" clip-rule="evenodd" fill="#8dece4" class="fill" d="M82.249,92.7c0.18,0.396,0.355,0.791,0.575,1.278
	c-0.42,0.092-0.628,0.137-1.054,0.229c-0.032-0.526-0.06-0.958-0.085-1.387C81.873,92.78,82.062,92.74,82.249,92.7z"/>
<path fill-rule="evenodd" clip-rule="evenodd" fill="#8dece4" class="fill" d="M89.083,92.47c0.961,0.316,0.961,0.316,1.182,1.169
	c-0.271,0.092-0.552,0.185-0.98,0.328C89.217,93.463,89.165,93.07,89.083,92.47z"/>
<path fill-rule="evenodd" clip-rule="evenodd" fill="#8dece4" class="fill" d="M78.051,94.619c-1.333-0.485-0.858-1.133-0.831-1.677
	c0.136-0.031,0.273-0.063,0.41-0.096C77.75,93.355,77.87,93.861,78.051,94.619z"/>
<path fill-rule="evenodd" clip-rule="evenodd" fill="#8dece4" class="fill" d="M79.892,92.623c0.135,0.483,0.27,0.967,0.43,1.543
	c-0.39,0.058-0.643,0.096-0.952,0.142c0-0.589,0-1.093,0-1.598C79.542,92.682,79.718,92.652,79.892,92.623z"/>
<path fill-rule="evenodd" clip-rule="evenodd" fill="#8dece4" class="fill" d="M84.184,92.6c1.038,0.197,1.001,0.719,0.951,1.381
	c-0.33,0.017-0.585,0.028-0.951,0.048C84.184,93.54,84.184,93.136,84.184,92.6z"/>
<path fill-rule="evenodd" clip-rule="evenodd" fill="#8dece4" class="fill" d="M103.968,92.599c-0.071-0.568-0.145-1.134-0.253-1.997
	c1.02,0.676,0.711,1.33,0.817,1.887C104.344,92.524,104.156,92.562,103.968,92.599z"/>
<path fill-rule="evenodd" clip-rule="evenodd" fill="#8dece4" class="fill" d="M99.739,92.661c-0.047-0.306-0.094-0.609-0.141-0.914
	c0.109-0.029,0.221-0.058,0.331-0.086c0.079,0.303,0.155,0.607,0.234,0.911C100.022,92.602,99.881,92.631,99.739,92.661z"/>
<path fill-rule="evenodd" clip-rule="evenodd" fill="#8dece4" class="fill" d="M134.686,116.279c-0.073,1.024-0.147,2.048-0.235,3.263
	c1.97,0.337,3.987-0.188,6.101,0.108c0.019,0.906,0.035,1.781,0.054,2.693c-2.378,0.293-4.7-0.084-6.913,0.856
	c-0.177,1.011-0.344,1.977-0.566,3.258c-1.486-1.656-2.798-3.12-4.214-4.698c1.869-1.975,3.604-3.814,5.343-5.652
	C134.397,116.163,134.541,116.222,134.686,116.279z"/>
</svg>
