<svg version="1.1" id="svg" xmlns="http://www.w3.org/2000/svg" xmlns:xlink="http://www.w3.org/1999/xlink" x="0px" y="0px"
	 width="200px" height="200px" viewBox="0 0 200 200" enable-background="new 0 0 200 200" xml:space="preserve">
<path class="stroke" fill="#472664"  d="M139.541,101.652c-0.1-0.732-0.076-1.483-0.103-2.225c-0.121-3.416-0.312-6.82-0.79-10.217
	c-0.56-3.966-0.871-7.966-1.293-11.951c-0.163-1.526-0.322-3.054-0.504-4.579c-0.369-3.095-0.766-6.188-1.125-9.285
	c-0.201-1.722-0.297-3.456-0.534-5.172c-0.316-2.299-0.812-4.576-1.07-6.881c-0.385-3.443-0.634-6.903-0.932-10.356
	c-0.179-2.069-0.352-4.139-0.507-6.21c-0.117-1.577-0.227-3.155-0.29-4.734c-0.047-1.133,0.034-2.271-0.025-3.401
	c-0.104-1.996-0.655-2.846-3.35-3.096c-1.27-0.118-2.559-0.021-3.94-0.021c-0.928-1.086-2.26-1.243-3.767-1.113
	c-0.339,0.446-0.691,0.909-1.083,1.424c-2.213-0.095-4.436-0.176-6.656-0.286c-1.682-0.084-3.364-0.175-5.042-0.311
	c-3.639-0.295-7.273-0.627-10.911-0.933c-0.984-0.082-1.972-0.159-2.959-0.174c-1.976-0.026-3.952-0.008-5.899-0.008
	c-0.29-0.513-0.531-0.939-0.794-1.403c-0.973-0.188-1.938-0.383-2.907-0.562c-0.809-0.149-1.468,0.089-1.927,0.796
	c-0.157,0.243-0.309,0.491-0.479,0.766c-2.774-0.25-5.515-0.424-8.128,0.122c-0.684,1.297-1.143,2.458-1.045,3.728
	c0.178,2.304-0.373,4.494-0.921,6.689c-0.265,1.054-0.706,2.085-0.821,3.152c-0.46,4.272-0.854,8.555-1.208,12.838
	c-0.121,1.476-0.042,2.969-0.075,4.453c-0.078,3.532-0.952,6.952-1.479,10.422c-0.438,2.884-1.057,5.772-1.137,8.672
	c-0.103,3.689-0.669,7.29-1.262,10.904c-0.473,2.878-0.962,5.756-1.364,8.645c-0.312,2.251-0.418,4.533-0.76,6.779
	c-0.674,4.391-0.318,8.676,1.041,12.891c0.228,0.707,0.49,1.405,0.654,2.126c1.131,4.938,1.631,9.952,1.723,15.01
	c0.042,2.277-0.108,4.567,0.074,6.83c0.349,4.296,0.287,8.597,0.376,12.895c0.078,3.761,0.038,7.528,0.248,11.281
	c0.161,2.858,0.634,5.699,0.969,8.548c0.091,0.782,0.121,1.579,0.301,2.341c0.173,0.734,0.501,1.433,0.762,2.146
	c-0.072,0.076-0.146,0.153-0.217,0.229c0.935,0.424,1.831,1.072,2.809,1.229c2.976,0.476,5.975,0.847,8.978,1.1
	c2.755,0.229,5.528,0.289,8.295,0.352c1.68,0.038,3.355-0.062,4.927-0.807c0.752-0.354,1.189-0.844,1.179-1.703
	c-0.048-3.713,0.065-7.445-0.816-11.088c-0.972-4.015-0.779-8.064-0.539-12.118c0.206-3.457,0.511-6.908,0.729-10.365
	c0.126-1.977,0.183-3.957,0.246-5.937c0.105-3.214,0.321-6.434,0.256-9.646c-0.124-6.044-0.474-12.084-1.641-18.031
	c-0.352-1.79-0.04-3.423,0.394-5.11c0.662-2.582,1.35-5.164,1.868-7.777c0.771-3.881,1.415-7.789,2.083-11.688
	c0.176-1.022,0.2-2.071,0.365-3.096c0.416-2.59,0.866-5.175,1.317-7.759c0.065-0.376,0.214-0.737,0.314-1.077
	c2.481,0.127,4.872,0.249,7.533,0.387c0.139,1.641,0.356,3.26,0.397,4.882c0.124,4.9,0.283,9.796,1.055,14.647
	c0.381,2.389,0.846,4.765,1.201,7.157c0.398,2.691,0.719,5.396,1.062,8.095c0.043,0.338,0.094,0.694,0.029,1.021
	c-0.33,1.646-0.583,3.319-1.072,4.919c-1.182,3.873-1.611,7.844-1.797,11.857c-0.18,3.906-0.343,7.812-0.514,11.72
	c-0.142,3.262-0.464,6.528-0.388,9.784c0.137,5.867-0.446,11.666-1.208,17.459c-0.361,2.747-0.745,5.491-1.187,8.225
	c-0.259,1.604,0.233,2.853,1.574,3.695c0.954,0.599,1.96,1.282,3.029,1.497c2.803,0.562,5.641,1.051,8.487,1.262
	c2.752,0.202,5.533,0.034,8.301,0.004c1.251-0.015,2.43-0.292,3.566-0.889c1.094-0.574,1.611-1.469,1.708-2.6
	c0.239-2.857,0.409-5.725,0.601-8.587c0.153-2.274,0.236-4.554,0.456-6.821c0.282-2.902,0.727-5.79,1.001-8.693
	c0.295-3.104,0.492-6.219,0.695-9.33c0.083-1.28,0.047-2.568,0.116-3.85c0.11-2.025,0.241-4.05,0.403-6.071
	c0.283-3.5,0.449-7.02,0.943-10.491c0.41-2.881,1.278-5.693,1.841-8.557C139.5,106.997,139.905,104.351,139.541,101.652z"/>
<path fill-rule="evenodd" clip-rule="evenodd" fill="#f8bfe9" class="fill" d="M130.598,169.803c-2.322-0.291-4.334-0.514-6.335-0.805
	c-1.562-0.228-3.121-0.494-4.662-0.832c-0.895-0.197-1.751-0.568-2.372-0.777c-0.162-1.859-0.428-3.42-0.383-4.975
	c0.028-0.992,0.429-2.008,0.816-2.949c0.844-2.056,1.865-4.04,2.654-6.115c0.431-1.129,0.334-2.344-0.488-3.384
	c-0.948-1.201-1.875-2.42-2.942-3.802c-0.187-0.774,0.391-1.236,1.201-1.557c1.272-0.504,2.156-1.337,2.479-2.732
	c0.147-0.633,0.169-1.217-0.288-1.668c-1.959-1.935-2.103-4.623-2.948-7.016c-0.126-0.354,0.054-0.816,0.093-1.231
	c2.037-0.309,4.16,0.533,5.733-1.1c0.153-1.019-0.264-1.724-0.924-2.298c-1.819-1.584-2.968-3.691-4.373-5.597
	c-0.452-0.613-0.59-1.347-0.327-2.131c0.933-0.594,1.946-0.421,2.888-0.249c2.192,0.399,4.344-0.043,6.504-0.201
	c0.9-0.066,1.685-0.561,2.247-1.506c-0.026-0.426-0.057-0.961-0.084-1.438c-0.597-0.74-1.372-0.855-2.155-1.02
	c-1.69-0.355-3.374-0.745-5.046-1.177c-1.4-0.361-2.09-1.428-2.426-2.742c-0.307-1.196-0.546-2.41-0.812-3.617
	c-0.356-1.619-0.119-3.206,0.649-4.614c0.817-1.497,0.691-2.73-0.202-4.147c-0.859-1.36-1.438-2.896-2.186-4.45
	c1.567-0.439,3.193-0.11,4.336-1.399c0.46-1.438,0.304-2.873-0.812-3.951c-2.056-1.987-2.751-4.657-3.824-7.136
	c-0.198-0.458-0.102-1.044-0.142-1.585c1.178-0.502,2.552-0.339,3.321-1.548c0.063-0.526,0.128-1.051,0.192-1.573
	c-1.162-0.723-2.296-1.312-3.29-2.083c-1.006-0.781-1.874-1.742-2.857-2.678c0.491-2.171-0.935-3.784-1.553-5.629
	c-0.376-1.122-1.313-1.855-2.523-2.082c-0.776-0.146-1.57-0.205-2.355-0.303c-1.709-0.212-3.431-0.353-5.125-0.655
	c-2.513-0.451-3.853,0.278-4.635,2.694c-0.106,0.331-0.204,0.664-0.278,1.002c-0.55,2.509-1.02,5.038-1.666,7.522
	c-0.318,1.224-0.955,2.363-1.404,3.436c-2.052,0.973-2.757,2.468-2.604,4.544c0.113,1.529,0.242,3.03,0.529,4.55
	c0.649,3.425,0.655,6.885-0.198,10.307c-0.191,0.769-0.317,1.555-0.535,2.315c-0.215,0.749-0.529,1.47-0.762,2.216
	c-0.38,1.223-0.765,2.444-1.076,3.685c-0.204,0.812,0.25,1.459,0.827,1.956c0.861,0.741,1.109,1.67,1.189,2.763
	c0.213,2.908,0.596,5.806,0.755,8.716c0.103,1.865-0.085,3.744-0.119,5.618c-0.019,0.987,0.024,1.975,0.02,2.963
	c-0.009,1.979,0.014,3.962-0.062,5.938s-0.204,3.955-0.404,5.922c-0.189,1.866-0.549,3.715-0.744,5.578
	c-0.123,1.17-0.145,2.357-0.102,3.533c0.094,2.567,0.267,5.13,0.392,7.696c0.073,1.509,0.558,2.894,1.099,4.289
	c0.426,1.097,0.754,2.252,0.945,3.412c0.172,1.034-0.062,2.066-0.896,3.114c-1.51-0.132-3.125-0.285-4.742-0.408
	c-1.282-0.098-2.567-0.23-3.85-0.22c-2.104,0.02-3.431-1.006-4.316-2.938c0.253-0.505,0.461-1.063,0.789-1.542
	c1.667-2.438,1.497-3.785-0.331-5.487c-0.121-0.114-0.147-0.331-0.271-0.628c1.464-0.23,2.999,0.209,4.142-0.927
	c0.639-1.565,0.445-2.073-0.746-3.223c-1.133-1.093-2.29-2.227-3.126-3.538c-0.716-1.123-0.992-2.525-1.556-4.052
	c0.688,0.04,1.055,0.062,1.421,0.081c0.887,0.047,1.777,0.172,2.659,0.121c1.144-0.064,1.675-0.51,2.257-1.613
	c-0.125-0.907-0.862-1.314-1.526-1.706c-2.439-1.442-3.9-3.727-5.359-5.963c0.414-1.293,0.514-1.317,1.635-1.271
	c1.328,0.054,2.663,0.069,3.987-0.021c0.548-0.037,1.076-0.388,1.462-0.537c0.378-0.808,0.396-1.462-0.115-1.855
	c-2.021-1.562-3.52-3.771-6.059-4.9c-0.447-0.651-1.161-1.326-0.809-2.505c1.848-0.166,3.892,0.979,5.571-0.575
	c-0.152-1.116-0.781-1.715-1.609-2.126c-1.919-0.952-3.689-2.102-5.166-3.761c-0.139-1.129,0.019-2.213,0.953-3.179
	c0.312-0.08,0.688-0.192,1.07-0.271c2.131-0.44,4.273-0.833,6.394-1.319c1.786-0.411,1.871-0.522,3.128-2.099
	c0.253-1.342-0.66-2.149-1.444-3.092c-1.799,0.094-3.563,0.188-5.329,0.274c-0.296,0.016-0.607,0.055-0.889-0.014
	c-2.219-0.541-4.154-1.572-5.565-3.419c-0.862-1.129-1.15-2.392-0.675-3.775c0.565-1.637,0.473-3.286,0.276-4.984
	c-0.164-1.411-0.052-2.857-0.02-4.288c0.069-3.118,0.199-6.236,0.232-9.355c0.013-1.151,0.368-2.047,1.36-2.616
	c2.223-1.274,2.78-3.169,2.217-5.559c-0.229-0.976-0.26-1.973,0.481-3.011c0.66-0.378,1.47-0.84,2.298-1.312
	c0.324-1.169,0.256-2.266-0.338-3.316c-1.345-2.371-1.436-4.996-1.597-7.783c0.708-0.35,1.43-0.705,2.206-1.088
	c0.08-0.481,0.159-0.958,0.242-1.452c-0.716-1.052-1.396-2.082-2.107-3.09c-0.976-1.382-1.025-2.83-0.413-4.376
	c2.077-0.718,4.136,1.011,6.299,0.062c-0.495-1.372-1.61-2.004-2.575-2.712c-0.777-0.572-1.2-1.259-1.451-2.242
	c0.297-0.111,0.547-0.225,0.809-0.301c2.78-0.819,4.648-2.607,5.477-5.371c0.711-2.367,1.276-4.779,1.913-7.171
	c0.151-0.565,0.334-1.122,0.495-1.655c2.533,0,4.951,0,7.227,0c0.568,0.651,1.021,1.171,1.475,1.689
	c0.092-0.036,0.184-0.073,0.273-0.109c0,1.377,0.034,2.756-0.006,4.131c-0.111,3.804-0.452,7.617,0.117,11.399
	c0.191,1.276,0.843,2.481,1.336,3.864c0.641-0.193,1.067-0.322,1.481-0.447c-0.501-6.529,0.018-12.882,0.133-19.463
	c4.649-0.256,9.22,0.399,13.939-0.054c0.079,0.869,0.171,1.689,0.227,2.512c0.163,2.425,0.343,4.854,1.315,7.117
	c0.972,2.267,2.314,4.208,4.603,5.423c2.427,1.288,4.929,2.272,7.77,2.593c0.757,3.104,1.853,6.102,1.79,9.406
	c-0.047,2.457,0.312,4.934,0.627,7.384c0.342,2.646,0.893,5.266,1.253,7.912c0.132,0.963,0.137,2.001-0.076,2.942
	c-0.542,2.401-0.343,4.745,0.36,7.043c0.962,3.148,1.328,6.402,1.646,9.639c0.26,2.638,0.007,5.326,0.006,7.992
	c-0.001,1.531,0.002,3.064,0.086,4.592c0.111,2.035-0.442,3.929-1.13,5.793c-0.402,1.088-0.908,1.399-2.667,1.941
	c-1.002,1.013-1.007,2.248-0.6,3.548c0.118,0.375,0.25,0.774,0.483,1.08c1.197,1.562,1.013,3.316,0.844,5.108
	c-0.146,1.525-0.084,3.071-0.229,4.596c-0.229,2.41-0.55,4.812-0.84,7.217c-0.284,2.354-0.466,4.729-0.896,7.058
	c-0.518,2.785-0.673,5.591-0.879,8.399c-0.087,1.183-0.307,2.364-0.268,3.541c0.081,2.47,0.29,4.936,0.454,7.4
	c0.016,0.247,0.02,0.519,0.126,0.729C131.444,164.952,130.366,167.242,130.598,169.803z"/>
<path fill-rule="evenodd" clip-rule="evenodd" fill="#f8bfe9" class="fill" d="M129.883,46.905c-5.674,0.104-11.553-6.775-10.024-13.314
	c1.836,0.369,3.713,0.827,5.138-1.222c1.396,0,2.867,0,4.515,0c0.323,1.493,0.267,3.112,0.241,4.719
	c-0.024,1.632-0.233,3.264-0.215,4.894C129.555,43.591,129.755,45.198,129.883,46.905z"/>
<path fill-rule="evenodd" clip-rule="evenodd" fill="#f8bfe9" class="fill" d="M119.92,25.665c-0.098,1.117-0.187,2.133-0.288,3.295
	c-1.813,0.2-3.562,0.429-5.318,0.577c-2.31,0.194-4.623,0.353-6.938,0.476c-1.967,0.104-3.938,0.139-5.908,0.202
	c-0.722,0.023-1.226-0.324-1.54-0.948c-0.542-1.078-0.255-3.644,0.604-4.457c0.354-0.334,0.966-0.548,1.46-0.548
	c1.078-0.002,2.157,0.176,3.236,0.27c2.995,0.259,5.991,0.524,8.99,0.762C116.032,25.436,117.851,25.531,119.92,25.665z
	 M101.804,25.741c-1.401,1.476-1.152,2.615,0.681,3.412c1.427-0.458,2.117-1.251,1.923-2.208
	C104.223,26.039,103.375,25.632,101.804,25.741z"/>
<path fill-rule="evenodd" clip-rule="evenodd" fill="#f8bfe9" class="fill" d="M97.883,25.093c-0.204,1.073-0.376,1.981-0.561,2.96
	c-3.004,0-5.904,0-8.873,0c0-1.275,0-2.427,0-3.719C91.63,24.59,94.666,24.834,97.883,25.093z"/>
<path fill-rule="evenodd" clip-rule="evenodd" fill="#f8bfe9" class="fill" d="M73.953,43.793c0.447-0.108,0.897-0.207,1.342-0.326
	c1.998-0.536,4.034-0.971,5.975-1.669c0.816-0.293,1.432-1.15,2.133-1.758c0.071-0.061,0.096-0.176,0.162-0.246
	c1.97-2.08,2.758-4.63,2.954-7.415c0.047-0.665,0.252-1.177,1.228-1.064c0,0.4,0.093,0.842-0.016,1.226
	c-0.578,2.043-1.116,4.105-1.844,6.097c-1.008,2.758-3.355,4.074-5.949,4.947c-1.686,0.568-3.453,0.858-5.256,0.755
	c-0.226-0.015-0.447-0.079-0.67-0.121C73.991,44.077,73.973,43.936,73.953,43.793z"/>
<path fill-rule="evenodd" clip-rule="evenodd" fill="#f8bfe9" class="fill" d="M125.063,25.339c1.899,0.188,3.637,0.36,5.562,0.551
	c-0.078,1.164-0.146,2.171-0.209,3.112c-1.803,0.955-3.532,0.355-5.354,0.438C125.063,28.118,125.063,26.869,125.063,25.339z"/>
<path fill-rule="evenodd" clip-rule="evenodd" fill="#f8bfe9" class="fill" d="M86.123,29.996c-0.539-0.117-0.936-0.204-1.37-0.298
	c-0.481-2.71-0.518-5.282,0.186-8.06c0.583,0.203,1.062,0.369,1.61,0.561C86.655,24.765,86.819,27.264,86.123,29.996z"/>
<path fill-rule="evenodd" clip-rule="evenodd" fill="#f8bfe9" class="fill" d="M121.557,31.898c0.146-2.319,0.281-4.522,0.435-6.725
	c0.015-0.231,0.143-0.455,0.246-0.769c0.302,0.029,0.566,0.056,0.893,0.088c0.602,2.569-0.066,5.016-0.148,7.485
	c-0.341,0.089-0.525,0.18-0.706,0.171C122.096,32.141,121.922,32.032,121.557,31.898z"/>
</svg>
