<svg version="1.1" id="svg" xmlns="http://www.w3.org/2000/svg" xmlns:xlink="http://www.w3.org/1999/xlink" x="0px" y="0px"
	 width="200px" height="200px" viewBox="0 0 200 200" enable-background="new 0 0 200 200" xml:space="preserve">
<path fill="#d5ee20" class="fill" d="M81.88,168.264c0,0,12.501,2.232,18.155,2.083c5.655-0.148,15.329-1.488,15.329-1.488
	s4.464-12.798,5.952-17.859c1.488-5.06,6.4-19.793,3.87-23.96c-2.53-4.167-9.822-6.696-8.186-16.221s3.721-15.775,1.935-17.858
	c-1.785-2.083-5.06-1.489-5.06-1.489s-1.042,6.399-2.828,8.93c-1.786,2.53-7.738,9.524-7.738,12.947s4.019,10.715,2.977,16.222
	s-5.21,15.18-9.524,19.049C92.445,152.489,81.88,168.264,81.88,168.264z"/>
<path class="stroke" fill="#324c2a"  fill-rule="evenodd" clip-rule="evenodd" d="M141.558,27.786c0.933-0.171,1.472-0.273,2.013-0.367
	c0.299-0.052,0.68-0.228,0.891-0.11c2.167,1.207,5.04,1.04,6.561,3.547c1.003,1.652,2.023,1.854,3.934,1.244
	c1.569-0.501,3.134-1.022,4.722-1.461c2.761-0.764,5.359-0.702,7.872,1.054c2.196,1.534,4.652,2.675,6.502,4.715
	c1.545,1.705,2.906,3.501,3.383,5.787c0.522,2.508,2.115,4.13,4.281,5.167c2.293,1.098,3.231,3.267,4.432,5.202
	c0.595,0.959,0.382,2.149-0.58,3.002c-3.378,0.555-6.749,1.164-10.102-0.141c-0.331-0.129-0.729-0.199-1.077-0.153
	c-1.812,0.236-3.616,0.518-5.546,0.802c-0.634,1.669-1.336,3.358-1.92,5.087c-0.977,2.894-1.948,5.794-2.783,8.731
	c-0.397,1.399-0.648,2.886-0.665,4.336c-0.052,4.67-0.753,9.255-1.539,13.838c-0.164,0.957-0.206,1.935-0.288,2.754
	c1.727,2.14,3.392,4.094,4.932,6.143c1.438,1.915,2.44,4.065,3.29,6.322c0.691,1.839,1.344,3.616,1.534,5.611
	c0.213,2.242-0.004,4.39-0.519,6.542c-0.528,2.207-0.792,4.395-0.617,6.706c0.145,1.916-0.378,3.879-0.574,5.824
	c-0.067,0.663-0.204,1.382-0.028,1.995c0.64,2.229,0.41,4.487,0.441,6.743c0.014,1.023,0.141,2.074,0.41,3.059
	c1.169,4.255,1.519,8.514,0.493,12.857c-0.233,0.99-0.274,2.077-0.157,3.09c0.379,3.272-0.374,6.331-1.679,9.262
	c-1.388,3.122-3.997,5.07-7.032,6.333c-1.722,0.717-3.665,0.895-5.504,1.34c-1.182,0.286-2.423,0.464-3.518,0.959
	c-2.791,1.262-5.596,1.099-8.436,0.356c-1.003-0.263-1.955-0.728-2.961-0.968c-1.059-0.253-2.164-0.534-3.229-0.47
	c-1.73,0.105-3.403,0.051-5.078-0.424c-2.303-0.654-4.58-0.61-6.79,0.44c-1.607,0.764-3.219,0.507-4.819-0.063
	c-0.516-0.184-1.035-0.36-1.449-0.504c-1.057,0.292-1.99,0.57-2.936,0.806c-3.338,0.835-6.101-1.632-6.088-5.042
	c0.008-1.998,0.789-4.085,2.789-5.374c-1.002-3.377,0.085-5.684,3.441-6.716c0.064-0.242,0.201-0.458,0.143-0.583
	c-0.727-1.582-0.085-2.828,0.661-4.26c1.031-1.979,1.769-4.142,2.383-6.297c0.473-1.662,0.994-3.237,1.925-4.712
	c0.607-0.959,1.09-2.079,1.287-3.186c0.146-0.827-0.021-1.896-0.462-2.601c-0.925-1.482-0.999-2.817-0.073-4.267
	c0.153-0.24,0.158-0.577,0.204-0.758c-0.265-1.558-1.62-1.848-2.712-2.654c-0.053-0.618-0.111-1.326-0.173-2.047
	c-1.101-0.603-2.24-1.181-3.333-1.835c-1.598-0.958-2.546-2.439-3.123-4.168c-0.152-0.456-0.342-1.005-0.222-1.429
	c0.528-1.856-0.095-3.611-0.388-5.543c0.33-0.604,0.707-1.293,1.137-2.08c-0.121-1.359,0.104-2.632,1.387-3.657
	c0.434-0.346,0.609-1.408,0.449-2.025c-0.438-1.679,0.07-2.991,1.101-4.235c0.269-0.324,0.469-0.705,0.757-1.145
	c-0.221-0.546-0.445-1.102-0.734-1.819c0.24-1.254,0.255-2.618-1.36-3.702c-0.413,1.447-0.804,2.75-1.153,4.066
	c-0.354,1.333-0.771,2.606-2.322,3.069c0.172,2.114-1.375,2.898-2.867,3.792c-0.132,0.957-0.264,1.91-0.415,3.004
	c-1.032,0.669-2.099,1.36-3.161,2.049c-0.51,2.102-1.014,4.185-1.586,6.543c0.591,0.466,1.241,0.854,1.719,1.396
	c0.465,0.526,0.751,1.208,1.058,1.724c-0.251,0.786-0.436,1.366-0.667,2.09c1.32,1.295,2.376,2.834,2.744,4.767
	c0.487,2.555,0.627,5.093-0.25,7.593c-0.573,1.631-1.711,2.79-3.31,3.551c0.101,2.112-0.413,3.858-2.584,4.595
	c0,0.956,0,1.803,0,2.799c-1.604,1.133-2.144,2.933-2.772,4.732c-0.693,1.985-2.573,2.833-4.223,3.852
	c-0.354,0.218-0.776,0.325-1.239,0.513c0.264,2.367-0.189,4.415-2.251,5.455c-0.619,1.154-1.121,2.089-1.622,3.025
	c-0.085-0.04-0.171-0.079-0.257-0.118c-0.138,0.656-0.293,1.31-0.411,1.97c-0.614,3.422-2.909,5.648-6.324,6.236
	c-1.564,0.269-3.089,0.767-4.656,1.009c-1.308,0.202-2.664,0.33-3.975,0.217c-1.323-0.115-2.374,0.447-3.467,0.935
	c-1.281,0.571-2.524,1.235-3.763,1.896c-2.169,1.159-4.417,0.937-6.588,0.198c-1.941-0.661-3.795-1.095-5.897-0.777
	c-1.113,0.168-2.409-0.311-3.509-0.769c-1.331-0.554-2.535-0.767-3.856-0.056c-0.749,0.403-1.617,0.587-2.356,1.002
	c-3.689,2.071-7.615,2.137-11.574,1.235c-2.005-0.457-3.919-1.33-5.853-2.073c-0.432-0.166-0.933-0.5-1.121-0.891
	c-0.755-1.574-2.079-2.884-2.218-4.753c-0.031-0.419-0.174-0.847-0.348-1.233c-1.152-2.548-0.685-4.996,0.382-7.432
	c0.265-0.604,0.449-1.256,0.578-1.905c0.385-1.931,0.851-3.812,2.101-5.415c0.363-0.465,0.551-1.069,0.762-1.492
	c-0.071-0.286-0.061-0.442-0.135-0.515c-2.522-2.511-1.461-5.329-0.582-8.047c0.462-1.431,1.266-2.76,1.988-4.096
	c0.521-0.964,0.68-1.877,0.404-2.978c-0.741-2.96-0.045-5.807,0.924-8.605c0.236-0.683,0.493-1.359,0.737-2.04
	c0.347-0.964,0.692-1.928,1.152-3.208c-0.522-2.656-0.55-5.688-0.123-8.738c0.194-1.386,0.338-2.786,0.369-4.183
	c0.021-0.838-0.085-1.73-0.366-2.514c-1.154-3.202-1.151-6.236,1.213-9.207c0.111-4.48,0.019-9.141,0.401-13.762
	c0.354-4.286-0.163-8.421-1.094-12.551c-0.483-2.146-1.009-4.286-1.624-6.397c-0.252-0.862-0.771-1.652-1.205-2.455
	c-0.55-1.018-1.136-2.015-1.803-3.191c-1.709,0-3.537,0.112-5.346-0.029c-2.16-0.168-2.568-0.792-2.647-2.927
	c-0.072-1.972,0.667-3.427,2.067-4.845c5.166-5.234,11.611-6.985,18.67-7.241c3.238-0.118,6.477-0.23,9.713-0.376
	c2.279-0.103,4.285-0.845,5.902-2.549c1.797-1.896,3.953-3.035,6.654-3.004c0.783,0.009,1.586-0.156,2.351-0.352
	c1.946-0.5,3.751-0.076,5.534,0.682c2.043,0.868,4.098,0.833,5.979-0.344c2.777-1.736,5.679-2.768,9.021-2.511
	c0.996,0.077,2.056-0.293,3.045-0.593c2.257-0.685,4.545-0.956,6.889-0.726c3.853,0.378,7.691,0.143,11.521-0.27
	c1.026-0.11,2.044-0.398,3.032-0.709c1.713-0.538,3.408-0.523,5.022,0.205c1.831,0.826,3.669,0.742,5.573,0.452
	c0.824-0.125,1.688-0.076,2.525-0.008C130.918,31.9,136.854,32.17,141.558,27.786z M153.723,106.539
	c-0.178,0.453-0.433,0.891-0.523,1.36c-0.875,4.557-1.855,9.1-2.541,13.686c-0.621,4.16-0.915,8.369-1.344,12.557
	c-0.016,0.164,0.082,0.339,0.178,0.708c1.031-0.154,2.041-0.305,3.051-0.456c0.027-0.168,0.055-0.336,0.082-0.504
	c-0.601-0.282-1.201-0.565-1.812-0.853c0.064-1.318,1.311-0.475,1.994-1.161c-0.047-0.397-0.109-0.945-0.181-1.571
	c-0.729,0-1.255,0-1.842,0c0.004-1.673,1.53-0.884,2.207-1.53c0-0.724,0-1.492,0-2.237c-0.735-0.197-1.358-0.364-1.997-0.535
	c0.372-1.418,1.47-0.613,2.294-0.91c0-0.876,0-1.76,0-2.64c-0.728,0.035-1.392,0.067-2.055,0.1
	c-0.028-0.175-0.059-0.351-0.087-0.526c0.734-0.244,1.471-0.487,2.314-0.767c0.059-0.708,0.121-1.457,0.183-2.209
	c-0.83-0.11-1.402-0.186-1.988-0.263c0.146-1.459,1.334-0.875,2.116-1.271c0.033-0.613,0.066-1.256,0.096-1.816
	c-0.62-0.328-1.068-0.564-1.796-0.95c0.827-0.343,1.356-0.563,1.979-0.822c0.087-0.795,0.177-1.633,0.264-2.439
	c-0.442-0.215-0.793-0.386-1.335-0.649c0.64-0.546,1.125-0.961,1.654-1.412c0.053-0.46,0.107-0.939,0.125-1.097
	c-0.458-0.779-0.766-1.302-1.074-1.825c0.567-0.168,1.136-0.336,1.705-0.505c0.162-0.695,0.3-1.28,0.465-1.985
	c-0.614,0-1.124,0-1.869,0C153.893,104.91,153.808,105.725,153.723,106.539z M70.113,132.888c0.368-0.326,0.769-0.68,1.057-0.936
	c1.676-0.19,3.18-0.361,4.784-0.543c0.65-1.788,1.267-3.48,1.988-5.467c-2.076,0-3.849,0.09-5.607-0.021
	c-2.497-0.159-5.006-0.395-7.108-2.041c0-0.376,0-0.719,0-1.198c4.434,0.065,8.757,1.546,13.348,0.49
	c0.202-1.227,0.404-2.457,0.578-3.519c-1.671-0.334-3.163-0.542-4.602-0.941c-3.021-0.839-6.041-1.496-9.203-0.977
	c-0.408,0.066-0.863,0.02-1.268-0.085c-1.332-0.346-1.577-1.068-0.911-2.365c5.462-1.333,10.838-0.022,16.341,0.44
	c0.106-0.686,0.186-1.197,0.264-1.704c-2.844-0.792-5.518-1.648-8.247-2.245c-1.21-0.265-2.535-0.03-3.806,0.025
	c-0.598,0.026-1.19,0.165-1.604,0.225c-2.508-1.231-1.642-3.238-1.409-5.127c-1.026,0-1.908,0-2.89,0c0,1.43,0,2.745,0,4.177
	c0.88,0.116,1.653,0.336,1.704,1.245c-0.019,1.176-0.938,1.21-1.666,1.409c-0.787,5.074-0.213,10.057-0.223,15.018
	c1.256,0.476,2.332,0.884,3.444,1.306c0,0.433,0,0.778,0,1.383c-1.095,0.093-2.147,0.183-3.392,0.289
	c0.074,1.097,0.149,2.223,0.227,3.37c0.506,0.191,0.892,0.371,1.295,0.484c1.763,0.495,3.535,0.953,5.294,1.461
	c1.286,0.373,2.57,0.767,3.831,1.217c0.893,0.319,1.745,0.748,2.616,1.128c1.095,0.307,2.248,0.467,3.405,0.524
	c1.178,0.057,2.36,0.013,3.914,0.013c-0.422,0.676-0.605,1.329-1.021,1.557c-0.723,0.396-1.595,0.751-2.394,0.73
	c-1.887-0.049-3.789-0.21-5.646-0.548c-2.399-0.436-4.748-1.136-7.139-1.625c-1.047-0.214-2.142-0.189-3.466-0.293
	c0.198,0.997,0.335,1.681,0.495,2.48c3.05,0.028,5.823,0.62,8.333,2.333c-1.136,1.199-1.292,1.243-2.653,0.858
	c-1.627-0.46-3.261-0.867-5.002-0.762c0.038,0.297,0.017,0.494,0.074,0.52c2.027,0.938,4.063,1.859,6.086,2.777
	c1.05,1.448,1.05,1.448,2.654,2.111c0.176-0.274,0.375-0.753,0.715-1.086c1.5-1.463,3.291-1.583,5.15-0.548
	c0.61,0.34,1.375,0.435,2.083,0.562c0.7,0.125,1.419,0.151,2.061,0.213c0.399,1.26-0.287,1.757-1.1,1.877
	c-1.066,0.159-2.19,0.196-3.256,0.046c-1.771-0.249-3.356-0.26-4.767,1.143c-0.551,0.548-1.508,0.69-2.407,1.071
	c-0.955-0.653-1.9-1.202-2.731-1.888c-2.147-1.772-4.731-2.058-7.379-2.495c-0.48,0.543-0.92,0.974-1.28,1.463
	c-0.934,1.267-2.213,1.693-3.705,1.539c-1.032-0.106-2.058-0.292-3.077-0.481c-1.807-0.336-3.582-0.746-5.397,0.099
	c-0.488,0.228-1.209,0.074-1.793-0.052c-0.894-0.193-1.758-0.52-2.64-0.777c-1.615-0.474-3.222-0.681-4.845,0.036
	c-0.345,0.152-0.792,0.07-1.341,0.106c-0.055-0.833-0.099-1.527-0.15-2.331c2.187-0.67,4.209-1.29,6.352-1.946
	c0.131-1.461,0.268-2.998,0.424-4.739c-4.405,0.914-8.674,1.023-12.535,3.156c0.243,1.657,0.703,3.274,0.651,4.875
	c-0.051,1.593-0.614,3.17-0.974,4.853c0.265,0.086,0.594,0.23,0.937,0.299c2.039,0.406,4.09,0.755,6.119,1.201
	c1.868,0.411,3.736,0.638,5.64,0.361c0.831-0.122,1.57-0.046,2.1,0.658c-0.058,0.886-0.507,1.414-1.308,1.598
	c-2.989,0.691-5.974,1.201-9.075,0.654c-2.429-0.429-4.855-0.395-7.076,1.17c0.139,0.582,0.267,1.107,0.387,1.634
	c0.938,4.09,3.406,5.743,7.489,4.978c1.114-0.208,2.167-0.175,3.236,0.261c0.544,0.222,1.221,0.426,1.759,0.3
	c1.832-0.429,3.749-0.765,5.41-1.586c2.473-1.222,4.686-0.929,6.953,0.308c1.063,0.581,2.134,1.148,3.019,1.624
	c2.954-0.879,5.639-1.679,8.21-2.445c1.222,0.633,2.246,1.163,3.404,1.763c1.842-0.753,3.783-1.362,5.541-2.312
	c2.25-1.216,4.377-1.437,6.567,0.014c1.847-0.794,3.63-1.561,5.483-2.358c0.082-0.893,0.15-1.631,0.242-2.616
	c-1.116,0.188-1.953,0.279-2.766,0.476c-3.488,0.844-6.92,0.624-10.283-0.56c-4.6-1.62-9.245-2.231-14.047-0.953
	c-1.554,0.413-3.14,0.431-4.662-0.329c-0.227-1.053-1.495-1.99-0.064-3.272c1.991-0.06,4.154,0.087,6.244-0.231
	c4.635-0.707,9.113-0.386,13.574,1.076c2.516,0.824,5.152,1.098,7.778,0.36c2.407-0.676,4.827-1.319,7.199-2.105
	c1.187-0.393,2.277-1.073,3.35-1.593c0.058-0.911,0.1-1.564,0.146-2.305c-1.421-0.087-2.729-0.167-3.987-0.244
	c-0.393-0.917-0.822-1.625-0.018-2.426c1.223,0,2.502,0,3.786,0c1-1.311,2.333-1.975,3.865-2.298
	c0.537-0.114,1.082-0.211,1.605-0.375c1.907-0.596,2.726-1.909,2.534-4.197c-3.649-0.466-7.319-0.96-11.27-0.325
	c-0.126-0.731-0.226-1.309-0.366-2.129c2.089-0.334,3.96-0.455,5.828-0.414c1.879,0.041,3.755,0.24,5.587,0.367
	c0.959-1.245,1.844-2.392,2.627-3.409c-0.056-0.357-0.044-0.493-0.098-0.594c-0.84-1.596-1.023-3.096,0.397-4.533
	c0.307-0.31,0.272-0.957,0.48-1.784c-3.355,0.557-6.159-1.169-9.256-1.038c0,1.656,0,3.099,0,4.534
	c0.772,0.318,1.438,0.593,2.084,0.859c0.282,0.683,0.534,1.297,0.773,1.877c-0.186,1.047-0.835,1.355-1.737,1.271
	c-2.665-0.249-5.216,0.261-7.777,0.96c-1.065,0.291-2.34,0.316-3.399,0.025c-2.213-0.608-4.406-0.968-6.698-0.759
	c-0.911,0.083-1.889,0.24-2.738,0.006c-1.377-0.378-2.673-1.051-3.875-1.547c-0.164-0.546-0.264-0.834-0.334-1.129
	C70.129,133.358,70.137,133.173,70.113,132.888z M147.819,165.849c5.32,1.107,10.205,0.308,15.179-1.634
	c1.092-0.944,2.366-2.046,3.643-3.149c-0.203-1.275-0.373-2.345-0.54-3.387c-1.655-0.685-3.237-0.566-4.813-0.331
	c-1.996,0.297-3.997,0.584-5.972,0.992c-3.628,0.75-6.927,0.138-9.962-2.269c-1.252,0-2.585,0-4.07,0
	c-0.396-0.767-0.773-1.495-1.162-2.246c0.42-0.517,0.751-0.926,1.076-1.326c0.558,0.364,1.003,0.655,1.406,0.918
	c2.424-1.212,3.604-1.108,5.646,0.458c0.34,0.26,0.664,0.542,0.988,0.821c0.995,0.858,2.183,1.028,3.43,0.937
	c1.575-0.115,2.946-0.801,4.213-1.676c2.9-2.002,6.104-2.67,9.568-2.309c0.28,0.029,0.575-0.068,0.993-0.125
	c0.088-0.931,0.17-1.803,0.273-2.903c-1.804,0-3.386,0.039-4.964-0.011c-1.357-0.043-1.492-0.212-1.879-1.69
	c0.979-1.099,0.984-1.066,2.823-1.344c1.673-0.253,3.334-0.59,5.225-0.931c-0.501-1.835-0.859-3.435-1.383-4.98
	c-0.527-1.56-1.243-3.057-0.978-4.774c0.012-0.074-0.152-0.174-0.305-0.34c-3.381,0.7-6.66-0.701-10.205-0.91
	c0.045,0.655,0.08,1.162,0.113,1.661c2.086,0.602,3.93,1.292,4.183,3.692c1.104,0.535,2.138,1.034,3.164,1.532
	c-0.579,1.333-0.839,1.482-2.181,1.421c-1.341-0.06-2.684-0.065-4.023-0.136c-0.509-0.027-1.014-0.169-1.551-0.264
	c0.999-3.003,0.104-4.348-2.883-4.818c-1.526-0.24-2.934,0.104-4.278,0.703c-1.677,0.747-3.311,1.358-5.025-0.003
	c-2.835,3.245-5.444,1.687-7.85-0.106c-2.032-0.08-3.858,1.797-5.916-0.103c1.562-1.852,3.11-3.541,5.862-3.445
	c0.039-0.22,0.08-0.448,0.183-1.012c-2.404,0.916-4.802-0.408-7.048,0.673c-0.22,3.471-0.22,3.471-1.719,6.392
	c1.249,0.607,2.494,0.827,4.595,0.82c0.973-0.003,1.978-0.098,2.784,0.974c-0.207,0.457-0.445,0.981-0.676,1.489
	c-2.802,0.619-5.461-0.351-8.123-0.149c-1.488,2.178-0.982,4.517-0.915,6.865c0.372,0.318,0.704,0.838,1.116,0.911
	c1.906,0.337,3.834,0.551,5.971,0.837c0.063,0.565,0.141,1.252,0.22,1.969c1.205,0.437,2.503,0.813,3.715,1.373
	c1.212,0.56,2.339,1.303,3.487,1.957c0.17,0.858,0.317,1.631-0.647,2.169c-0.433-0.219-0.858-0.44-1.289-0.651
	c-3.064-1.502-6.221-2.041-9.606-1.188c-1.586,0.399-3.247,0.512-4.883,0.687c-0.776,0.083-1.558,0.037-2.252,1.018
	c2.098,0.479,4.01,0.915,6.021,1.374c-0.186,0.66-0.313,1.11-0.442,1.566c-1.106,0.231-2.114,0.49-3.138,0.644
	c-1.008,0.151-2.031,0.195-3.038,0.285c-0.087,1.814,0.687,2.54,3.491,3.29c2.07-0.542,4.096-0.517,6.032,0.885
	c0.666,0.483,1.733,0.444,2.628,0.571c0.597,0.085,1.224-0.03,1.817,0.067c2.675,0.436,5.22,0.19,7.58-1.251
	c0.573-0.35,1.173-0.657,1.765-0.976C145.275,164.293,146.208,164.406,147.819,165.849z M54.523,147.857
	c0.93-0.742,0.872-1.687,0.799-2.6c-0.277-3.535-0.594-7.067-0.887-10.601c-0.272-3.29-0.591-6.577-0.771-9.872
	c-0.073-1.352-0.083-2.766,0.719-4.247c0.245,0.417,0.511,0.658,0.51,0.899c-0.03,9.103,2.069,18.084,1.612,27.329
	c0.437,0.108,0.948,0.235,1.521,0.377c0.473-0.813,0.958-1.519,1.31-2.286c0.331-0.723,1.776-0.591,1.411-1.827
	c-0.606-0.116-1.175-0.224-2.008-0.383c0.711-0.679,1.142-1.09,1.627-1.554c-0.127-0.669-0.251-1.319-0.359-1.897
	c-0.47-0.281-0.852-0.511-1.302-0.781c0.423-0.46,0.739-0.809,1.048-1.146c-0.09-0.918-0.175-1.762-0.256-2.577
	c-0.56-0.267-1.012-0.483-1.614-0.771c0.593-0.526,1.024-0.908,1.472-1.304c-0.096-0.902-0.188-1.743-0.274-2.558
	c-0.729-0.191-1.329-0.35-1.929-0.508c-0.019-0.125-0.035-0.251-0.054-0.377c0.656-0.339,1.312-0.679,2.102-1.087
	c-0.078-1.257-0.158-2.568-0.23-3.755c-0.863-0.191-1.462-0.323-2.059-0.455c-0.008-0.155-0.015-0.311-0.022-0.467
	c0.624-0.271,1.247-0.542,2.043-0.887c-0.051-0.908-0.103-1.849-0.15-2.715c-0.738-0.239-1.281-0.414-2.254-0.729
	c1.014-0.506,1.631-0.814,2.185-1.091c0-1.167,0-2.253,0-3.354c-0.601-0.175-1.089-0.317-1.895-0.552
	c0.885-0.533,1.479-0.893,2.05-1.236c0-0.956,0-1.836,0-2.654c-0.705-0.168-1.244-0.296-1.783-0.425
	c-0.004-0.133-0.008-0.268-0.012-0.401c0.637-0.266,1.273-0.531,2.042-0.851c0-0.918,0-1.868,0-2.755
	c-0.513-0.503-1.478-0.052-1.687-1.049c0.534-0.267,1.06-0.53,1.6-0.799c0-0.636,0-1.232,0-1.79
	c-0.572-0.247-1.055-0.456-1.74-0.752c0.665-0.507,1.174-0.894,1.875-1.427c-0.233-0.819-0.48-1.694-0.787-2.771
	c0.098-0.135,0.372-0.519,0.642-0.895c-0.067-1.21-0.132-2.361-0.19-3.404c-0.447-0.362-0.762-0.618-1.146-0.929
	c0.368-0.412,0.681-0.761,1.035-1.157c-0.026-0.567-0.054-1.153-0.081-1.707c-0.612-0.068-1.06-0.119-1.441-0.162
	c-0.399-1.35,0.982-1.13,1.265-1.699c0-0.997,0-1.901,0-2.761c-0.44-0.218-0.796-0.394-1.282-0.634
	c0.496-0.556,0.891-0.997,1.3-1.456c0.106-0.877,0.215-1.763,0.319-2.61c-0.541-0.2-0.946-0.35-1.611-0.596
	c0.82-0.585,1.4-1,2.059-1.469c0.113-0.587,0.236-1.223,0.357-1.849c-0.568-0.144-0.996-0.251-1.902-0.48
	c0.998-0.697,1.644-1.148,2.389-1.667c0.042-0.214,0.11-0.566,0.182-0.929c-0.428-0.274-0.805-0.518-1.411-0.908
	c0.788-0.377,1.356-0.648,2.011-0.961c0.143-0.581,0.299-1.208,0.439-1.772c-0.511-0.294-0.879-0.507-1.535-0.886
	c0.935-0.323,1.536-0.531,2.228-0.77c0.161-0.679,0.323-1.359,0.481-2.026c-0.623-0.18-1.064-0.308-1.504-0.435
	c0.141-1.46,1.381-0.744,2.165-1.271c0.078-0.451,0.18-1.022,0.266-1.515c-0.494-0.361-0.85-0.619-1.432-1.043
	c0.825-0.249,1.377-0.415,2.006-0.604c0.308-0.967,0.618-1.945,0.974-3.058c-0.541-0.576-1.055-1.125-1.458-1.554
	c-1.878,0.193-2.9,1.163-3.661,2.509c-0.781,1.385-1.586,2.756-2.385,4.131c-1.07,1.847-2.201,3.647-3.919,5.226
	c-0.554-0.345-1.2-0.545-1.52-0.984c-1.288-1.776-2.477-3.626-3.753-5.525c0.147-1.694,0.299-3.446,0.453-5.215
	c-0.584-0.362-1.038-0.643-1.586-0.982c-0.656,0.36-1.273,0.699-1.828,1.002c-0.146,1.503-0.223,2.866-1.696,3.933
	c-1.729-0.746-3.669-1.365-5.374-2.377c-1.756-1.042-3.285-2.465-5.093-3.86c-0.294,0.096-0.775,0.253-1.214,0.396
	c2.728,5.755,7.378,8.638,13.342,9.618c1.617,2.696,3.176,5.321,4.761,7.931c0.82,1.352,1.105,2.812,1.116,4.375
	c0.014,1.895,0.166,3.789,0.184,5.683c0.012,1.46,0.04,2.941-0.17,4.38c-0.43,2.969-0.861,5.927-0.722,8.941
	c0.031,0.668-0.061,1.345-0.14,2.013c-0.572,4.913-1.235,9.816-1.709,14.737c-0.356,3.711-0.467,7.445-0.701,11.169
	c-0.096,1.522-0.293,3.042-0.326,4.566c-0.063,2.928,0.028,5.86-0.076,8.785c-0.111,3.149-0.375,6.293-0.592,9.742
	c0.89-0.28,1.639-0.516,2.468-0.777c0-1.016-0.011-1.864,0.002-2.712c0.044-2.933,0.067-5.866,0.151-8.797
	c0.103-3.538,0.277-7.074,0.386-10.612c0.115-3.725-0.002-7.467,0.323-11.172c0.583-6.63,1.416-13.237,2.163-19.853
	c0.042-0.369,0.243-0.719,0.37-1.078c0.365,0.941,0.574,1.844,0.568,2.747c-0.01,1.339-0.147,2.678-0.273,4.014
	c-0.37,3.955-0.846,7.902-1.121,11.863c-0.31,4.447-0.486,8.905-0.645,13.361c-0.127,3.538-0.098,7.082-0.214,10.62
	c-0.086,2.626-0.335,5.246-0.428,7.872c-0.042,1.191,0.119,2.39,0.183,3.474C52.178,147.384,53.308,147.612,54.523,147.857z
	 M155.811,90.559c-0.137-0.713-0.268-1.091-0.271-1.471c-0.009-1.102,0.108-2.208,0.041-3.304c-0.186-3.026,0.152-5.983,0.956-8.9
	c1.332-4.831,2.647-9.666,3.965-14.501c0.443-1.628,0.87-3.261,1.359-5.093c-1.062,0.341-1.843,0.593-2.723,0.876
	c-0.778,1.896-1.641,3.79-2.332,5.742c-0.674,1.899-1.174,3.859-1.768,5.847c-3.387-1.117-2.546-3.877-2.704-6.17
	c-2.858-2.062-5.677-4.096-8.778-6.333c-0.154,0.016-0.66,0.067-1.547,0.156c1.678,2.036,2.969,3.946,4.993,5.184
	c0.72,0.44,1.398,0.885,1.456,1.992c-3.418-0.763-5.296-3.28-7.347-5.752c-0.554,0.978-0.177,1.559,0.278,2.019
	c1.37,1.384,2.666,2.89,4.225,4.03c2.248,1.644,4.295,3.448,5.879,5.728c0.613,0.885,1.143,1.89,1.451,2.917
	c0.967,3.222,1.097,6.575,0.418,9.814c-1.061,5.07-2.477,10.066-3.765,15.088c-1.109,4.321-2.315,8.618-3.355,12.955
	c-0.929,3.873-2.052,7.658-3.728,11.285c-0.79,1.711-1.449,3.499-1.986,5.307c-0.69,2.322-1.198,4.7-1.757,6.938
	c1.23,0.958,1.23,0.958,2.242,1.045c1.37-7.299,2.923-12.024,4.256-12.855c0.112,3.87-2.056,7.259-2.337,11.196
	c1.688-0.073,2.701,1.875,4.646,1.079c1.282-5.934,0.977-12.112,2.284-18.085c1.295-5.912,2.063-11.946,4.03-17.695
	c0.141,0.009,0.28,0.018,0.42,0.026c0.061,0.984,0.122,1.969,0.185,2.991c0.621-0.061,1.153-0.113,1.749-0.171
	c0.171-0.722,0.322-1.355,0.472-1.986c-0.563-0.286-1.002-0.508-1.804-0.914c0.941-0.394,1.525-0.637,2.215-0.925
	c0.08-0.395,0.174-0.859,0.285-1.408c-0.4-0.157-0.773-0.304-1.433-0.563c1.495-0.83,2.192-1.473,2.028-2.684
	c-0.328-0.227-0.694-0.481-1.195-0.828c0.63-0.426,1.115-0.753,1.674-1.131c0.035-0.634,0.072-1.29,0.105-1.872
	c-0.459-0.272-0.795-0.472-1.268-0.753c0.598-0.401,1.042-0.7,1.515-1.016c0.06-0.413,0.119-0.828,0.179-1.229
	c-0.361-0.309-0.663-0.567-0.971-0.831c1.174-1.138,1.174-1.138,1.227-2.234c-0.295-0.264-0.583-0.521-0.935-0.836
	c0.497-0.389,0.873-0.682,1.392-1.086c-0.143-8.362,2.521-16.251,5-24.314c-0.559-0.139-0.981-0.244-1.394-0.347
	c-0.142,0.311-0.243,0.469-0.289,0.641c-1.575,5.839-3.188,11.669-4.694,17.526c-0.744,2.896-1.461,5.802-1.433,8.848
	c0.016,1.698-0.279,3.4-0.475,5.095C156.424,89.834,156.164,90.043,155.811,90.559z M74.994,57.142
	c-0.754,1.874,0.354,2.93,0.899,4.108c1.721,3.713,3.434,7.431,6.351,10.435c2.114,2.177,3.044,4.807,2.682,7.871
	c-0.122,1.028-0.091,2.073-0.142,3.109c-0.187,3.786-0.364,7.571-0.573,11.355c-0.206,3.721-0.383,7.445-0.69,11.158
	c-0.439,5.29-1.029,10.567-1.473,15.856c-0.222,2.652-0.936,5.151-1.812,7.642c-0.422,1.195-0.577,2.485-0.824,3.738
	c-0.029,0.145,0.121,0.325,0.227,0.582c0.459-0.029,0.919-0.059,1.278-0.082c1.021-1.278,0.444-3.112,1.884-4.199
	c0.828,1.545-0.35,2.963-0.014,4.441c0.866,0.516,1.728,1.041,2.752,0.911c0.376-1.416,0.9-2.678,1.016-3.978
	c0.212-2.369,0.393-4.776,0.209-7.138c-0.454-5.855-0.879-11.698-0.308-17.567c0.174-1.794,0.565-3.522,1.244-5.212
	c0.271,1.034,0.555,2.076,0.413,3.058c-0.717,4.992-0.581,9.991-0.336,15c0.154,3.175,0.333,6.351,0.383,9.527
	c0.025,1.568-0.214,3.141-0.341,4.798c1.098-0.188,2.028-0.347,2.938-0.502c0.131-1.508-1.385-0.438-1.715-1.449
	c0.491-0.357,1.039-0.756,1.662-1.209c-0.021-0.304-0.046-0.657-0.068-0.967c-0.496-0.272-0.924-0.508-1.517-0.833
	c0.673-0.474,1.156-0.814,1.718-1.21c-0.027-0.591-0.054-1.186-0.078-1.731c-0.623-0.249-1.135-0.453-1.859-0.742
	c0.698-0.521,1.168-0.873,1.676-1.251c-0.026-0.292-0.051-0.585-0.074-0.853c-0.529-0.212-0.983-0.395-1.615-0.648
	c0.6-0.541,1.03-0.93,1.441-1.301c-0.07-0.806-0.134-1.529-0.193-2.214c-0.463-0.163-0.837-0.293-1.756-0.615
	c0.793-0.56,1.274-0.899,1.678-1.184c0-0.915,0-1.751,0-2.535c-0.555-0.201-0.982-0.355-1.629-0.59
	c0.652-0.58,1.129-1.002,1.554-1.38c0-0.753,0-1.418,0-2.07c-0.545-0.211-1.032-0.4-1.751-0.678c0.621-0.49,1.07-0.846,1.584-1.25
	c0-0.917,0-1.883,0-2.8c-0.359-0.228-0.643-0.409-1.02-0.649c1.228-1.083,1.313-2.401,1.311-3.748
	c-0.393-0.285-0.741-0.539-1.211-0.88c0.635-0.458,1.109-0.801,1.34-0.967c0.717-1.229-0.295-1.574-0.745-2.163
	c0.501-0.422,0.909-0.766,1.313-1.106c0.03-0.545,0.05-1.032,0.086-1.519c0.535-7.116,0.264-14.304,1.85-21.327
	c0.269-1.187,0.567-2.376,0.976-3.521c0.737-2.066,1.569-4.099,2.285-5.949c-0.252-1.175-0.643-1.863-1.901-1.727
	c-1.971,2.345-2.943,5.361-4.521,7.947c-0.796,0.276-1.485,0.516-2.092,0.726c-0.945-0.341-1.797-0.648-2.986-1.077
	c-0.865-1.081-2.031-2.342-2.969-3.754c-1.721-2.591-3.305-5.273-4.959-7.909c-0.084-0.134-0.299-0.188-0.555-0.339
	C75.641,56.787,75.234,57.01,74.994,57.142z M131.819,123.689c2.409,0,4.699,0,7.065,0c0.349-0.82,0.666-1.564,1.043-2.455
	c-4.848,0.06-9.48,1.149-13.866-0.632c-0.248-1.786-0.248-1.786,1.167-2.867c1.992,0,3.943,0,5.895,0c1.955,0,3.909,0,5.885,0
	c0.607-0.822,1.766-1.04,1.726-2.259c-1.125-0.26-2.177-0.503-3.206-0.741c-0.348-0.938-0.486-1.67,0.459-2.297
	c0.773,0.07,1.622,0.229,2.465,0.199c0.746-0.027,1.627,0.499,2.336-0.352c-1.757-0.29-3.407-0.561-5.466-0.9
	c-0.376,0.309-1.13,0.738-1.612,1.374c-0.777,1.023-1.746,1.679-2.876,2.118c-2.133-0.355-4.224-0.705-6.313-1.053
	c-0.074,0.126-0.146,0.252-0.221,0.378c-0.463-0.553-0.927-1.104-1.64-1.953c1.922-0.728,3.482-1.319,5.208-1.973
	c0.435-1.542,0.906-3.217,1.39-4.931c-2.669-0.93-4.904-0.284-6.908,1.377c-0.844-0.18-1.611-0.345-2.644-0.565
	c-0.33,0.291-0.769,0.678-1.296,1.143c1.331,0.964,2.547,0.767,3.664,0.892c1.172,0.131,2.37,0.029,3.853,0.029
	c-0.354,0.811-0.668,1.534-0.968,2.221c-1.997,0.357-3.787,0.679-5.577,0.999c-0.41,0.869-0.789,1.669-1.3,2.75
	c1.876,0.293,3.514,0.55,5.38,0.842c-0.168,0.749-0.326,1.457-0.459,2.052c-0.844,0.223-1.406,0.372-2.053,0.542
	c0.352,1.036,0.561,2.007,1.006,2.852c0.407,0.774,1.01,1.477,1.641,2.093c0.634,0.619,1.409,1.093,2.456,1.882
	c0.591,0.24,1.84,0.302,2.034,1.684c0.18,1.78-1.979,1.396-2.436,2.599c2.043,1.278,5.483,1.591,9.071,0.804
	c0.086-0.493,0.183-1.047,0.278-1.6C132.743,127.191,131.706,126.369,131.819,123.689z M119.524,59.219
	c-0.073,1.582-0.307,3.176-0.189,4.744c0.38,5.117,0.882,10.224,1.35,15.334c0.328,3.591,0.615,7.187,1.044,10.767
	c0.264,2.203,0.797,4.366,1.684,6.429c0.491-1.531-0.345-3.119,0.431-4.961c1.354,1.691,0.657,3.612,1.36,5.163
	c0.58,0.555,1.185,1.081,2.013,0.351c1.997-5.896,5.057-31.509,4.525-38.032c-0.619-0.085-1.26-0.172-2.084-0.285
	c-0.142,10.583-1.192,20.922-3.664,31.193c-0.501-0.042-0.885-0.073-1.155-0.095C122.582,79.603,120.43,69.513,119.524,59.219z
	 M70.297,58.131c-0.199-0.045-0.396-0.09-0.595-0.135c-0.173,0.522-0.472,1.039-0.495,1.569c-0.139,3.054-0.228,6.112-0.298,9.168
	c-0.022,0.977,0.205,1.975,0.073,2.93c-0.518,3.749-0.098,7.448,0.352,11.162c0.242,1.999,0.556,4.04,0.396,6.026
	c-0.406,5.055-1.066,10.089-1.608,15.134c-0.136,1.251-0.212,2.51-0.323,3.853c1.793,0,3.403,0,5.238,0
	c-0.154-1.736-0.359-3.305-0.424-4.879c-0.292-7.027-0.567-14.056-0.799-21.086c-0.095-2.869,0.203-5.754-0.481-8.594
	c-0.201-0.828-0.327-1.685-0.376-2.535c-0.173-2.993-0.292-5.989-0.44-8.983C70.455,60.55,70.37,59.34,70.297,58.131z
	 M132.027,111.49c1.373-0.648,1.484-1.458,1.66-2.316c0.76-3.706,1.58-7.399,2.405-11.091c0.108-0.487,0.372-0.94,0.565-1.41
	c0.136,0.039,0.272,0.077,0.408,0.117c-0.091,4.014-1.671,7.823-2.078,11.862c1.562-0.151,1.582-1.247,1.781-2.172
	c0.515-2.385,0.963-4.784,1.496-7.165c0.961-4.292,2.066-8.555,2.93-12.867c1.291-6.447,2.425-12.925,3.65-19.529
	c-0.766-0.516-1.589-1.071-2.626-1.77c-0.235,1.023-0.421,1.718-0.554,2.422c-0.657,3.478-1.348,6.951-1.938,10.44
	c-1.081,6.392-2.622,12.674-4.336,18.92c-0.306,1.116-0.555,2.249-0.804,3.38c-0.566,2.558-1.107,5.123-1.68,7.68
	C132.674,109.041,132.385,110.077,132.027,111.49z M44.358,50.7c0.342,0.923,0.919,0.847,1.458,0.812
	c1.769-0.115,3.537-0.261,5.306-0.366c5.378-0.317,10.675-1.035,15.923-2.358c3.993-1.007,8.1-1.125,12.14,0.18
	c1.679,0.543,3.399,0.999,5.134,1.313c3.629,0.656,7.18-0.217,10.74-0.758c0.338-0.051,0.636-0.371,0.953-0.566
	c-0.016-0.139-0.032-0.277-0.048-0.416c-0.669-0.156-1.337-0.433-2.008-0.444c-1.894-0.032-3.792,0.006-5.686,0.086
	c-4.312,0.184-8.356-0.69-12.092-2.894c-0.821-0.484-1.69-0.666-2.64-0.402c-1.178,0.328-2.353,0.689-3.553,0.907
	c-3.662,0.667-7.349,1.204-11,1.92c-2.935,0.575-5.823,1.381-8.751,1.999C48.341,50.116,46.414,50.362,44.358,50.7z M36.713,66.706
	c0.408,3.309,0.84,6.309,1.133,9.322c0.289,2.981,0.373,5.966,0.113,8.97c-0.261,3.025-0.629,6.062-0.345,9.232
	c1.008,0.208,1.925,0.396,3.085,0.635c0.071-1.202,0.186-2.158,0.176-3.112c-0.056-5.347,0.26-10.634,2.081-15.737
	c0.513-1.437,0.846-2.938,1.255-4.411c0.251-0.904,0.089-1.628-0.943-2.124c-0.57,1.383-1.096,2.657-1.654,4.012
	c-0.543-0.171-0.922-0.29-1.299-0.409c-0.429-1.929-0.838-3.771-1.267-5.708C38.35,67.176,37.681,66.984,36.713,66.706z
	 M44.133,131.503c-3.664,0-7.053,0-10.664,0c0.215,1.141,0.376,1.997,0.502,2.671c2.686,0,5.127,0,7.742,0
	c-0.565,1.391-1.416,1.926-2.609,2.021c-1.097,0.088-2.199,0.153-3.284,0.326c-2.349,0.373-3.591,1.895-3.638,4.251
	c3.819-0.523,7.65-1.047,11.526-1.578C43.858,136.466,43.999,133.927,44.133,131.503z M93.644,109.324
	c1.815,0.658,3.8,0.76,5.374,2.304c-0.104,0.529-0.223,1.135-0.372,1.902c-1.835,0-3.507,0-5.235,0
	c-0.086,1.39-0.16,2.58-0.237,3.792c2.791,0.869,5.438,0.554,8.315,0.557c-0.9-2.147-1.335-4.076,0.275-5.854
	c-1.172-0.822-2.867-0.94-2.941-2.776c1.182-0.724,2.302,0.084,3.518,0.003c0.096-0.374,0.189-0.736,0.306-1.192
	c-3.036-0.677-5.913-1.437-9.002-0.827C93.644,107.976,93.644,108.621,93.644,109.324z M159.154,102.657
	c-0.387,1.107-0.784,2.246-1.197,3.426c1.766,2.714,4.836,2.325,7.354,3.344c0,0.535,0,1.101,0,1.695
	c-2.826,0.937-5.556,0.404-8.42,0.208c-0.067,0.628-0.129,1.19-0.216,1.986c3.902-0.238,7.602,0.283,11.341-0.625
	c0-1.928,0-3.674,0-5.579c-0.956-0.118-1.786-0.231-2.618-0.32c-1.032-0.111-2.078-0.132-3.094-0.322
	c-0.832-0.156-1.678-0.453-1.688-1.772c2.135-1.567,4.593,0.069,6.935-0.509c-0.162-0.484-0.307-0.915-0.514-1.531
	C164.466,102.657,161.93,102.657,159.154,102.657z M155.643,129.539c2.287,0.563,4.22,1.122,6.188,1.499
	c1.698,0.324,3.438,0.55,5.012,0.143c0-1.92,0-3.65,0-5.463c-3.68-0.872-7.269-0.357-11.019,0.389
	C155.762,127.287,155.702,128.414,155.643,129.539z M156.123,120.285c3.766,0.29,7.314,0.563,10.988,0.847
	c0.175-1.838,0.354-3.727,0.543-5.733c-3.863,0.767-7.57-0.26-11.312,0.668C156.266,117.562,156.194,118.935,156.123,120.285z
	 M158.237,45.519c-0.004-0.136-0.006-0.272-0.01-0.407c-0.534,0.027-1.08-0.005-1.602,0.092c-2.823,0.523-5.655,1.014-8.458,1.635
	c-5.348,1.185-10.745,1.539-16.211,1.336c-3.655-0.135-7.308-0.647-10.981-0.1c-2.033,0.303-4.098,0.395-6.147,0.582
	c1.988,0.416,3.96,0.698,5.932,0.989c0.301,0.045,0.593,0.155,0.895,0.193c1.316,0.167,2.638,0.458,3.953,0.441
	c1.52-0.018,3.033-0.337,4.554-0.48c4.316-0.407,8.633-1.08,12.953-1.11C148.43,48.651,153.256,46.835,158.237,45.519z
	 M63.655,76.002c-0.144,0.025-0.286,0.05-0.43,0.075c-0.838,1.771-1.313,3.587-0.966,5.608c0.382,2.22,0.683,4.458,0.914,6.701
	c0.193,1.876,0.241,3.768,0.333,5.654c0.008,0.154-0.146,0.315-0.24,0.5c-0.45,0.049-0.89,0.097-1.413,0.154
	c0.671,0.895,1.514,1,4.834,0.696c-0.029-0.401-0.01-0.816-0.097-1.208c-1.107-4.944-1.935-9.928-2.315-14.986
	C64.194,78.121,63.868,77.066,63.655,76.002z M44.222,128.047c0-1.434,0-2.616,0-3.97c-2.839-0.431-5.577-0.847-8.362-1.269
	c-0.531,1.878-1.01,3.571-1.482,5.239C37.65,128.047,40.803,128.047,44.222,128.047z M102.793,121.193c-3.242,0-6.355,0-9.697,0
	c0.132,1.217,0.246,2.267,0.372,3.43c3.251,0.277,6.198,1.6,9.536,1.372C102.931,124.319,102.864,122.828,102.793,121.193z
	 M45.92,106.572c-2.781-0.934-6.633-0.701-8.776,0.553c-0.446,1.405-0.937,2.947-1.427,4.49c3.115,1.759,6.25,1.631,9.452,1.456
	c0-0.346,0-0.618,0-0.96c-1.849-0.286-3.69-0.432-5.207-1.746c-0.084-0.694-0.169-1.397-0.273-2.266c2.064,0,3.928,0,5.93,0
	C45.729,107.537,45.826,107.043,45.92,106.572z M44.991,116.578c-3.255-0.475-6.114-1.379-9.305-1.115
	c0.192,1.587,0.358,2.946,0.513,4.22c2.897,0.264,5.547,0.504,8.391,0.763C44.721,119.187,44.849,117.953,44.991,116.578z
	 M78.153,92.752c0.267-4.164,0.519-8.118,0.772-12.072c0.035-1.379,2.48-1.757,1.653-3.605c-1.521,0.346-1.521,0.346-2.562-0.129
	c-0.638-1.824,0.874-4.046-1.017-6.034c0,7.539,0,14.728,0,22.028C77.503,92.857,77.789,92.811,78.153,92.752z M136.967,58.94
	c-0.233,2.803-0.393,5.217-0.646,7.622c-0.256,2.428-0.657,4.841-0.897,7.271c-0.231,2.338-0.803,4.647-0.735,7.014
	c0.772-2.213,0.848-4.611,2.176-7.066c0.18,0.887,0.278,1.376,0.377,1.865c0.688-4.05,1.163-8.096,1.322-12.154
	C138.617,62.076,138.48,60.434,136.967,58.94z M105.678,94.258c-0.11-3.921-0.134-7.821-0.353-11.71
	c-0.206-3.652-0.669-7.289-0.917-10.94c-0.124-1.818-0.022-3.651-0.022-5.46c-0.461-0.38-0.874-0.72-1.101-0.908
	c-0.963-1.827-0.781-3.792-1.859-5.352c-0.08,0.621-0.023,1.21,0.087,1.79c0.52,2.753,1.09,5.497,1.577,8.256
	c1.162,6.574,1.78,13.186,1.316,19.872c-0.098,1.397-0.055,2.806-0.052,4.208c0,0.157,0.155,0.312,0.271,0.528
	C104.917,94.463,105.195,94.388,105.678,94.258z M147.677,91.783c0.368-3.081,0.728-5.98,1.056-8.883
	c0.356-3.151,0.689-6.305,1.017-9.459c0.09-0.863,0.041-1.686-1.024-2.014c-0.795,3.304-2.756,19.248-2.487,20.356
	C146.632,91.783,147.041,91.783,147.677,91.783z M103.834,104.154c-0.817,0-1.473,0.041-2.123-0.007
	c-2.189-0.162-4.377-0.373-6.568-0.523c-0.468-0.032-1.087-0.327-1.48,0.556c3.181,0.441,6.255,0.868,9.197,1.276
	c0.938-0.552,1.793-1.056,2.639-1.555c-0.224-0.473-0.448-0.948-0.557-1.176c0.235-1.432,2.148-0.491,2.19-2.215
	c-4.465,0-8.847,0-13.229,0c3.162,1.209,6.678,0.656,9.931,1.886C103.834,102.956,103.834,103.446,103.834,104.154z
	 M144.349,106.676c-0.935-0.189-1.627-0.33-2.257-0.458c-0.426-1.102-0.061-1.766,0.867-2.272c0.665,0.083,1.375,0.172,2.229,0.279
	c0.235-0.792,0.469-1.573,0.774-2.601c-1.848,0.221-3.436,0.41-5.239,0.625c-0.314,1.817-0.641,3.702-0.979,5.66
	c1.437,0.695,2.741,0.407,4.133,0.334C144.028,107.741,144.16,107.3,144.349,106.676z M107.322,59.825
	c0.307,0.968,0.709,1.737,0.777,2.535c0.401,4.62,0.761,9.244,1.055,13.871c0.133,2.071,0.063,4.153,0.126,6.229
	c0.012,0.392,0.212,0.778,0.325,1.167c0.162-0.031,0.324-0.063,0.486-0.095c0.123-7.728-0.237-15.438-0.887-23.161
	C108.551,60.182,107.997,60.021,107.322,59.825z M122.273,38.464c-0.982-0.8-1.975-0.616-2.93-0.638
	c-0.97-0.022-1.979,0.074-2.9-0.162c-1.475-0.376-2.908-0.937-4.326-1.503c-2.903-1.16-5.748-0.828-8.576,0.232
	c-0.577,0.216-0.562,0.257-0.972,1.157c4.356-0.756,8.789-1.969,12.321,1.612C117.434,38.922,119.758,38.703,122.273,38.464z
	 M46.589,101.445c-3.46-0.226-6.822,0.167-10.316,1.048c0.163,0.662,0.281,1.143,0.353,1.431c3.359,0,6.476,0,9.592,0
	c0.164-0.715,0.297-1.242,0.4-1.775C46.65,101.98,46.606,101.796,46.589,101.445z M116.654,59.979
	c-0.137-0.066-0.272-0.132-0.409-0.199c-0.076,0.166-0.187,0.325-0.221,0.5c-1.667,8.375-2.821,16.824-3.687,25.408
	c0.254,0.105,0.509,0.211,1.056,0.438c0.281-3.071,0.515-5.969,0.819-8.86c0.305-2.914,0.63-5.827,1.041-8.728
	C115.659,65.677,116.183,62.832,116.654,59.979z M97.404,69.722c-0.129-0.003-0.259-0.007-0.388-0.009
	c-0.057,0.54-0.332,1.183-0.135,1.604c1.247,2.681,1.274,5.568,1.593,8.411c0.299,2.67,0.611,5.339,0.949,8.003
	c0.059,0.467,0.275,0.915,0.414,1.361c0.27,0,0.461,0.038,0.627-0.01c0.216-0.062,0.413-0.194,0.708-0.341
	C99.835,82.377,99.238,75.927,97.404,69.722z M80.274,102.926c-0.485-0.549-0.9-1.019-1.279-1.448
	c-1.122,0.089-2.14,0.169-3.278,0.26c-0.211,2.018-0.429,3.905-0.03,5.741c1.513,0,2.817,0,4.241,0
	c-0.079-0.445-0.128-0.72-0.17-0.955c-0.79-0.201-1.484-0.378-2.286-0.583c-0.067-0.747-0.124-1.384-0.193-2.162
	C78.314,103.484,79.216,103.228,80.274,102.926z M45.23,93.94c0.146,0.029,0.293,0.059,0.438,0.088
	c0.137-0.238,0.352-0.46,0.4-0.715c0.826-4.311,1.683-8.617,2.405-12.946c0.162-0.973-0.154-2.027-0.252-3.044
	c-0.166,0.003-0.333,0.005-0.5,0.008c-0.892,5.084-1.792,10.167-2.655,15.256C44.995,93.017,45.171,93.488,45.23,93.94z
	 M132.256,100.344c-1.223,0.079-2.235,0.144-3.249,0.21c-1.319,0.086-2.601,0.278-3.937-0.241c-1.099-0.427-2.307-0.322-3.021,1.021
	c0.143,0.475,0.297,0.987,0.458,1.522c1.299,0.257,2.456,0.078,3.587-0.484c1.425-0.708,2.91-0.782,4.429-0.3
	c0.391,0.124,0.797,0.199,1.378,0.34C132.023,101.688,132.131,101.073,132.256,100.344z M37.002,99.413
	c1.307,0.66,2.428,0.461,3.576,0.2c1.13-0.258,2.282-0.422,3.426-0.616c1.054-0.178,2.221,0.218,3.188-0.688
	c-2.486-0.15-4.894-0.485-6.888-1.818C38.788,97.154,37.668,97.933,37.002,99.413z M102.357,97.033
	c-0.506-0.388-0.923-0.707-1.333-1.021c-2.464,0.281-4.927-0.213-7.319,0.558c0.024,0.427,0.038,0.659,0.051,0.895
	c2.279,1.215,4.719,0.365,7.021,0.773C101.296,97.842,101.768,97.482,102.357,97.033z M93.717,93.777c2.953,0,5.789,0,8.744,0
	c0.023-0.094,0.118-0.315,0.123-0.539c0.007-0.229-0.075-0.459-0.154-0.872c-2.983,0.343-6.017-0.931-9.008,0.624
	C93.551,93.335,93.648,93.595,93.717,93.777z M65.637,101.167c-1.25,0-2.368,0-3.694,0c-0.054,1.057-0.104,2.04-0.156,3.041
	c1.238,0,2.237,0,3.253,0C65.25,103.138,65.434,102.2,65.637,101.167z M147.315,96.938c-2.026,0-3.882,0-5.812,0
	c0,0.508,0,0.966,0,1.653c1.801,0.144,3.527,0.283,5.349,0.428C147.029,98.225,147.156,97.654,147.315,96.938z M159.541,99.36
	c2.171,1.098,5.626,1.137,5.958,0.118c-0.247-0.328-0.557-0.737-0.978-1.292C163.147,99.458,161.315,98.328,159.541,99.36z
	 M124.077,69.925c1.238-3.148,1.372-6.415,1.428-9.693C124.504,63.396,124.246,66.67,124.077,69.925z M81.114,93.821
	c-1.982,1.771-4.279,0.285-6.341,1.182c0.145,0.362,0.264,0.662,0.389,0.979c2.034-0.114,3.951-0.223,5.952-0.335
	C81.114,95.121,81.114,94.62,81.114,93.821z M80.874,98.061c-1.929,0.252-3.686,0.141-5.359,0.856
	c0.823,0.275,1.652,0.225,2.448,0.364c0.857,0.151,1.682,0.48,2.643,0.769C80.686,99.455,80.764,98.88,80.874,98.061z
	 M54.408,58.465c0.161,1.119,0.32,2.215,0.541,3.74c0.778-0.977,1.293-1.621,1.788-2.242c-0.118-0.416-0.184-0.713-0.29-0.995
	c-0.104-0.274-0.25-0.532-0.375-0.792c-0.265,0-0.45-0.028-0.623,0.006C55.152,58.242,54.864,58.339,54.408,58.465z M108.747,97.753
	c1.585,0.25,1.585,0.25,3.581-1.641c-0.911-0.231-1.684-0.427-2.583-0.655C109.408,96.233,109.114,96.909,108.747,97.753z
	 M118,79.986c-0.74,1.239-1.52,5.696-1.205,6.917C117.559,84.76,118.188,82.594,118,79.986z M133.939,90.848
	c-2.176-0.003-2.598,0.328-2.484,1.845c0.677,0.08,1.367,0.161,2.203,0.259C133.765,92.158,133.842,91.582,133.939,90.848z
	 M110.207,92.735c-0.965-1.093-0.965-1.093-2.882-0.262c0.056,0.636,0.083,1.345,0.213,2.036c0.022,0.12,0.479,0.159,0.802,0.254
	c0.128-0.596,0.226-1.053,0.334-1.554C109.165,93.057,109.613,92.919,110.207,92.735z M66.334,98.246
	c-1.398-0.869-3.532-0.859-4.413,0.026C63.408,98.677,64.812,98.866,66.334,98.246z M132.812,97.306c0-0.485,0-0.928,0-1.465
	c-0.81,0.173-1.501,0.32-2.277,0.486c-0.093,0.473-0.174,0.888-0.277,1.41C131.152,97.586,131.852,97.468,132.812,97.306z
	 M135.877,82.27c0.129,0.022,0.257,0.044,0.386,0.067c0.713-1.542,0.928-3.167,0.56-4.887
	C136.506,79.057,136.192,80.663,135.877,82.27z M162.157,96.263c0.049-0.123,0.097-0.246,0.145-0.368
	c-0.362-0.328-0.724-0.656-1.249-1.132c-0.148,0.569-0.24,0.921-0.366,1.4C161.271,96.203,161.714,96.233,162.157,96.263z
	 M46.909,96.217c-0.769-0.412-1.479-0.625-2.061-0.167c0.026,0.158,0.052,0.316,0.078,0.474
	C45.588,96.422,46.249,96.32,46.909,96.217z M142.652,93.271c-0.129,0.185-0.26,0.371-0.389,0.555
	c0.199,0.604,0.678,0.711,1.674,0.387C143.393,93.815,143.023,93.543,142.652,93.271z"/>
<path class="stroke" fill="#324c2a"  fill-rule="evenodd" clip-rule="evenodd" d="M151.882,146.395c1.346-0.883,2.653-0.388,3.933,0.305
	c0.552-0.139,1.066-0.268,1.528-0.384c0.77,0.612,0.526,1.247,0.239,1.876c-0.342,0.75-0.804,1.4-1.678,1.555
	c-1.942,0.344-3.841,0.549-5.703-0.514c-3.139-1.793-6.465-1.818-9.952-1.069c-2.188,0.47-4.484,0.489-6.737,0.587
	c-0.896,0.039-1.836-0.161-2.707-0.417c-1.629-0.478-2.227-1.706-1.694-3.613c0.651,0.114,1.378,0.119,2.001,0.375
	c2.181,0.892,4.4,0.901,6.677,0.558c0.835-0.126,1.714,0.014,2.536-0.15c1.248-0.248,2.533-0.505,3.675-1.036
	c1.351-0.627,2.573-0.631,3.866-0.003C149.124,145.076,150.389,145.678,151.882,146.395z"/>
</svg>
