<svg version="1.1" id="svg" xmlns="http://www.w3.org/2000/svg" xmlns:xlink="http://www.w3.org/1999/xlink" x="0px" y="0px"
	 width="200px" height="200px" viewBox="0 0 200 200" enable-background="new 0 0 200 200" xml:space="preserve">
<path class="stroke" fill="#580f12"  fill-rule="evenodd" clip-rule="evenodd" d="M149.592,59.013c-0.1,1.466-0.231,2.87-0.279,4.276
	c-0.097,2.818-0.146,5.637-0.216,8.456c-0.074,3.113-0.144,6.226-0.224,9.339c-0.152,5.991-0.262,11.984-0.482,17.975
	c-0.17,4.631-0.541,9.254-0.717,13.886c-0.137,3.574-0.041,7.157-0.171,10.731c-0.182,5.034-0.474,10.066-0.725,15.098
	c-0.194,3.871-0.489,7.74-0.567,11.612c-0.048,2.356,0.229,4.72,0.362,7.121c0.91,0.265,1.723,0.487,2.528,0.735
	c1.659,0.511,2.467,1.63,2.844,3.352c0.582,2.668-0.57,4.934-1.344,7.622c0.892,2.646,1.867,5.546,2.88,8.554
	c-0.324,0.298-0.638,0.588-1.056,0.975c-2.047-1.294-2.319-3.851-4.146-5.341c-0.344,0.124-0.738,0.267-1.221,0.442
	c0.182,2.443,1.594,4.554,1.449,7.139c-0.623,0.049-1.182,0.093-1.878,0.147c-0.689-1.606-1.338-3.121-1.987-4.636
	c-0.039-0.093-0.078-0.186-0.104-0.284c-0.849-3.146-3.137-5.191-5.544-7.103c-1.566-1.244-1.745-2.851-1.548-4.618
	c0.071-0.642,0.26-1.271,0.419-2.009c-0.901-0.848-1.762-1.775-2.739-2.554c-5.128-4.082-10.4-7.965-15.834-11.636
	c-3.213-2.168-6.276-4.556-9.448-6.789c-2.555-1.796-5.192-3.474-7.751-5.267c-3.423-2.398-6.791-4.874-10.203-7.286
	c-3.818-2.7-7.634-5.405-11.498-8.037c-4.369-2.977-8.801-5.859-13.187-8.813c-2.088-1.405-4.028-3.065-6.224-4.266
	c-2.548-1.395-4.778-3.306-7.538-4.372c-1.513-0.585-2.827-1.679-4.24-2.527c-0.9-0.541-1.819-1.052-2.729-1.58
	c-0.429-0.248-0.883-0.469-1.276-0.766c-0.803-0.607-1.521-1.335-2.362-1.876c-1.989-1.282-2.878-3.293-3.779-5.332
	c-1.632-3.694-1.933-7.697-2.737-11.581c-0.973-4.686-0.916-9.414-0.421-14.147c0.375-3.57,1.228-7.032,2.422-10.411
	c0.554-1.562,1.157-3.108,1.749-4.655c2.008-5.244,5.227-9.734,8.706-14.071c3.129-3.901,6.957-6.954,11.218-9.522
	c3.63-2.19,7.395-4.16,11.408-5.461c6.129-1.985,12.353-3.677,18.918-3.444c2.008,0.071,4.028-0.217,6.038-0.18
	c4.183,0.078,8.308,0.794,12.458,1.239c3.489,0.373,6.746,1.656,10.142,2.355c4.943,1.018,9.323,3.449,13.946,5.273
	c4.414,1.742,8.017,4.628,11.356,7.832c1.569,1.509,2.7,3.492,3.948,5.317c1.786,2.616,2.847,5.558,3.455,8.642
	c0.3,1.519,0.412,3.097,0.412,4.648C152.074,55.445,150.659,57.128,149.592,59.013z M109.77,86.109c0,0.396-0.044,0.563,0.007,0.69
	c0.883,2.189,1.7,4.408,2.692,6.548c0.905,1.951,2.051,3.792,3.003,5.723c1.62,3.288,3.107,6.642,4.766,9.908
	c1.799,3.542,3.765,6.994,5.591,10.522c1.503,2.902,2.906,5.857,4.357,8.787c0.446,0.901,0.938,1.781,1.357,2.693
	c0.777,1.688,1.477,3.411,2.284,5.085c1.394,2.893,2.841,5.759,4.271,8.633c0.202,0.407,0.439,0.795,0.649,1.196
	c0.173,0.331,0.33,0.669,0.494,1.004c-0.481-2.628-1.151-5.145-1.873-7.646c-1.113-3.856-2.264-7.701-3.397-11.553
	c-1.289-4.385-2.568-8.772-3.873-13.153c-0.314-1.056-0.718-2.084-1.066-3.128c-0.607-1.814-1.211-3.63-1.803-5.448
	c-0.854-2.629-1.727-5.249-2.532-7.892c-0.613-2.017-1.125-4.062-1.698-6.092c-0.425-1.5-0.907-2.986-1.305-4.494
	c-0.369-1.393-0.657-2.809-0.995-4.273C116.451,82.502,113.068,84.242,109.77,86.109z M144.355,149.022
	c0.078-0.001,0.155-0.002,0.232-0.004c0.118-2.403,0.285-4.808,0.346-7.212c0.222-8.815,0.431-17.631,0.601-26.448
	c0.142-7.354,0.208-14.711,0.333-22.066c0.061-3.526,0.173-7.051,0.271-10.577c0.047-1.712,0.104-3.425,0.169-5.137
	c0.156-4.075,0.345-8.15,0.466-12.229c0.036-1.219-0.107-2.442-0.171-3.711c-2.878,0.845-6.327,4.356-8.484,8.548
	c0.096,1.644,0.229,3.45,0.301,5.258c0.078,1.96,0.096,3.921,0.144,5.881c0.012,0.454,0.014,0.908,0.054,1.359
	c0.175,1.906,0.353,3.812,0.545,5.718c0.355,3.507,0.709,7.015,1.082,10.52c0.443,4.159,0.925,8.313,1.355,12.475
	c0.271,2.607,0.479,5.22,0.716,7.829c0.442,4.92,0.972,9.834,1.304,14.761c0.286,4.265,0.342,8.546,0.517,12.819
	C144.164,147.548,144.279,148.284,144.355,149.022z M88.244,94.415c0.158,0.257,0.243,0.442,0.369,0.593
	c1.999,2.392,4.005,4.775,6.004,7.166c1.61,1.925,3.191,3.874,4.826,5.779c2.195,2.56,4.436,5.081,6.648,7.626
	c2.472,2.846,4.939,5.693,7.398,8.549c2.163,2.513,4.338,5.017,6.456,7.567c1.64,1.972,3.201,4.008,4.793,6.021
	c2.497,3.159,4.991,6.321,7.486,9.481c0.654,0.831,1.311,1.661,1.966,2.491c0.085-0.062,0.17-0.128,0.255-0.19
	c-0.081-0.162-0.149-0.33-0.242-0.485c-1.058-1.774-2.146-3.531-3.173-5.323c-2.397-4.19-4.725-8.42-7.154-12.59
	c-2.127-3.652-4.333-7.258-6.542-10.86c-2.394-3.903-4.78-7.812-7.263-11.657c-2.452-3.795-5.042-7.501-7.526-11.274
	c-0.854-1.296-1.573-2.68-2.324-3.973C97.614,92.866,90.09,93.522,88.244,94.415z M101.385,93.218
	c0.603,1.105,1.135,2.249,1.812,3.296c2.433,3.767,4.928,7.493,7.373,11.252c2.256,3.463,4.533,6.913,6.701,10.43
	c2.407,3.902,4.715,7.865,7.042,11.814c1.946,3.3,3.924,6.581,5.77,9.936c3.522,6.402,7.178,12.717,11.401,18.689
	c0.462,0.653,0.85,1.358,1.304,2.092c0.46-0.021,0.896-0.042,1.554-0.072c-0.957-1.896-1.81-3.657-2.725-5.383
	c-1.157-2.182-2.4-4.318-3.545-6.506c-2.759-5.266-5.5-10.54-8.211-15.829c-4.18-8.156-8.34-16.323-12.481-24.5
	c-1.248-2.467-2.341-5.017-3.618-7.47c-1.86-3.573-3.817-7.096-5.75-10.63c-0.396-0.725-0.868-1.405-1.35-2.175
	C104.528,89.608,102.556,90.898,101.385,93.218z M129.086,75.659c0.048,0.629,0.047,1.238,0.146,1.829
	c0.451,2.681,0.868,5.37,1.416,8.032c1.462,7.096,2.965,14.183,4.488,21.265c1.313,6.104,2.732,12.186,4.001,18.3
	c0.788,3.793,1.372,7.629,2.073,11.442c0.408,2.224,0.857,4.441,1.309,6.656c0.065,0.324,0.24,0.625,0.365,0.938
	c0.204-0.814,0.159-1.586,0.123-2.356c-0.26-5.325-0.565-10.645-1.125-15.951c-0.84-7.969-1.572-15.949-2.373-23.923
	c-0.369-3.658-0.872-7.304-1.165-10.967c-0.323-4.018-0.462-8.049-0.709-12.072c-0.133-2.164-0.316-4.324-0.497-6.484
	c-0.02-0.223-0.178-0.435-0.264-0.632C134.696,72.022,131.668,73.543,129.086,75.659z M121.517,82.289
	c0.786,3.001,1.553,6.174,2.452,9.31c1.541,5.371,3.132,10.729,4.769,16.07c0.929,3.028,2.056,5.996,2.973,9.028
	c1.138,3.757,2.133,7.559,3.218,11.332c1.947,6.772,3.917,13.538,5.882,20.307c0.164,0.566,0.365,1.122,0.55,1.683
	c0.174-0.25,0.207-0.454,0.168-0.643c-1.227-6.221-2.466-12.438-3.695-18.658c-1.443-7.308-2.846-14.624-4.327-21.924
	c-1.362-6.709-2.786-13.405-4.219-20.099c-0.789-3.688-1.645-7.363-2.488-11.04c-0.106-0.465-0.325-0.903-0.532-1.466
	C123.812,77.595,122.544,79.714,121.517,82.289z M50.778,98.722c-0.076,0.152-0.153,0.305-0.229,0.458
	c0.471,0.418,0.904,0.896,1.421,1.248c3.202,2.192,6.421,4.36,9.639,6.527c3.468,2.337,6.938,4.668,10.414,6.993
	c2.597,1.738,5.203,3.464,7.806,5.193c3.148,2.093,6.346,4.118,9.435,6.294c3.214,2.264,6.281,4.737,9.49,7.007
	c4.362,3.086,8.828,6.022,13.196,9.1c5.81,4.094,11.565,8.263,17.349,12.394c0.169,0.12,0.385,0.173,0.58,0.257
	c-0.657-0.837-1.449-1.445-2.229-2.067c-4.72-3.769-9.42-7.56-14.157-11.307c-4.223-3.34-8.492-6.622-12.728-9.95
	c-3.365-2.643-6.684-5.343-10.068-7.962c-3.583-2.775-7.199-5.507-10.835-8.212c-5.739-4.271-11.499-8.511-17.273-12.734
	c-0.459-0.336-1.077-0.497-1.645-0.631c-2.049-0.49-4.136-0.76-6.108-1.625C53.581,99.153,52.138,99.034,50.778,98.722z
	 M128.556,151.321c0.088-0.088,0.177-0.176,0.265-0.262c-1.371-1.312-2.715-2.654-4.117-3.933
	c-4.839-4.412-9.499-9.018-14.571-13.176c-3.155-2.585-6.101-5.423-9.2-8.076c-5.243-4.49-10.547-8.912-15.802-13.391
	c-1.878-1.602-3.669-3.304-5.531-4.926c-2.471-2.151-4.954-4.288-7.466-6.391c-1.268-1.062-2.611-2.033-3.925-3.048
	c-1.902,0.502-3.791,0.742-5.074,2.494c0.968,0.761,1.772,1.442,2.626,2.056c2.623,1.878,5.312,3.666,7.888,5.606
	c4.065,3.062,8.082,6.19,12.079,9.341c8.112,6.392,16.196,12.821,24.296,19.229c4.463,3.532,8.93,7.058,13.405,10.569
	C125.119,148.74,126.846,150.02,128.556,151.321z M136.737,155.884c-1.13-2.714-48.649-58.456-51.278-60.287
	c-1.319,1.04-2.639,2.088-2.945,3.977C100.724,118.234,119.285,136.524,136.737,155.884z M123.57,143.438
	c0.086-0.088,0.172-0.175,0.259-0.262c-0.056-0.133-0.079-0.294-0.17-0.395c-1.753-1.936-3.477-3.899-5.281-5.785
	c-1.907-1.991-3.89-3.91-5.845-5.856c-2.71-2.698-5.447-5.37-8.132-8.094c-3.735-3.789-7.41-7.64-11.157-11.419
	c-3.36-3.389-6.615-6.88-10.207-10.045c-1.131-0.999-2.292-1.556-3.67-1.874c-1.177-0.273-2.353-0.576-3.547-0.75
	c-0.521-0.078-1.139-0.427-1.785,0.172C90.396,114.155,107.521,128.193,123.57,143.438z M147.576,164.392
	c1.467-0.92,1.781-1.961,1.536-3.271c-0.554-0.653-1.147-1.08-2.109-0.54C147.182,161.77,147.357,162.933,147.576,164.392z
	 M139.653,166.463c1.905,1.013,1.905,1.013,2.727,0.125c-0.805-0.752-1.61-1.508-2.417-2.262c-0.104,0.05-0.206,0.101-0.31,0.151
	C139.653,165.124,139.653,165.771,139.653,166.463z"/>
<path fill-rule="evenodd" clip-rule="evenodd" fill="#de4555" class="fill" d="M92.812,49.243c-0.15-0.307-0.234-0.552-0.376-0.76
	c-1.399-2.035-2.882-4.017-4.2-6.102c-4.057-6.42-8.958-12.026-15.327-16.259c-0.167-0.11-0.335-0.224-0.489-0.35
	c-0.072-0.062-0.117-0.156-0.174-0.235c0.545-0.452,0.545-0.452,1.434-0.517c0.184,0.288,0.383,0.602,0.688,1.079
	c0.295-0.602,0.504-1.026,0.808-1.646c0.43,0.118,0.89,0.247,1.408,0.39c0.18-0.194,0.459-0.495,0.901-0.972
	c0.197,0.722,0.327,1.202,0.466,1.706c0.91-0.191,0.585-1.05,1.09-1.548c0.318-0.04,0.75-0.094,1.273-0.16
	c0.091,0.546,0.167,1.001,0.244,1.466c1.057-0.035,0.573-0.979,1.055-1.415c0.088-0.006,0.273-0.019,0.528-0.036
	c0.039,0.515,0.072,0.97,0.106,1.424c0.989,0.034,0.69-0.95,1.304-1.302c0.135,0.02,0.37,0.054,0.588,0.084
	c0.102,0.54,0.192,1.024,0.282,1.508c0.102,0.006,0.202,0.012,0.305,0.016c0.256-0.458,0.511-0.917,0.806-1.446
	c0.39,0.105,0.756,0.205,1.098,0.299c0.026,0.698-0.835,1.315,0.068,2.034c0.352-0.562,0.661-1.059,1.034-1.657
	c0.306-0.04,0.677-0.09,1.201-0.159c-0.094,0.687-0.168,1.235-0.254,1.864c1.024-0.078,0.899-1.108,1.692-1.547
	c0.423,0.071,1.045,0.175,1.614,0.271c0.336,0.767-0.991,1.273,0.049,2.082c0.384-0.562,0.76-1.109,1.176-1.718
	c0.241,0.079,0.458,0.151,0.715,0.236c-0.158,0.62-0.296,1.168-0.434,1.716c0.093,0.06,0.187,0.118,0.279,0.178
	c0.453-0.488,0.905-0.976,1.498-1.611c0.385,0.143,0.837,0.312,1.347,0.501c-0.29,0.673-0.491,1.139-0.763,1.767
	c1.128-0.161,1.304-1.136,2.036-1.594c0.251,0.102,0.558,0.228,0.936,0.383c-0.172,0.72-1.251,1.082-0.62,2.157
	c0.585-0.549,1.137-1.065,1.756-1.648c0.342,0.059,0.711,0.121,1.227,0.211c-0.354,0.654-0.642,1.187-1.021,1.887
	c1.177,0.104,1.4-0.994,2.346-1.221c0.22,0.124,0.578,0.327,0.972,0.551c-0.354,0.562-0.627,1.003-0.964,1.542
	c1.021,0.257,1.26-0.759,2.171-0.893c0.138,0.057,0.478,0.196,0.938,0.388c-0.442,0.545-0.786,0.971-1.22,1.506
	c1.19,0.321,1.852-1.2,3.036-0.444c-0.458,0.583-0.87,1.108-1.364,1.739c1.221,0.434,1.94-1.223,3.179-0.516
	c-0.543,0.473-1.021,0.888-1.498,1.302c0.07,0.131,0.141,0.261,0.209,0.392c0.769-0.252,1.537-0.503,2.506-0.82
	c0.163,0.094,0.483,0.278,0.998,0.573c-0.731,0.383-1.266,0.663-1.798,0.942c0.003,0.098,0.007,0.195,0.011,0.293
	c0.348,0.046,0.704,0.166,1.041,0.124c0.494-0.063,0.968-0.304,1.462-0.349c0.317-0.029,0.657,0.156,1.254,0.32
	c-0.708,0.502-1.13,0.799-1.655,1.172c1.063,0.863,2.482-0.651,3.388,0.766c-0.578,0.298-1.111,0.574-1.645,0.849
	c0.019,0.084,0.035,0.167,0.053,0.25c0.965,0,1.929,0,2.935,0c0.229,0.312,0.42,0.575,0.597,0.815
	c-0.416,0.74-1.55-0.151-1.734,0.991c1.129,0.442,2.74-0.211,3.641,1.495c-0.978,0-1.726,0-2.773,0
	c1.235,1.326,3.074,0.464,4.047,1.758c-0.622,0.468-1.109,0.07-1.584-0.103c-3.259-1.182-6.634-1.771-10.068-1.428
	c-3.867,0.387-7.686,1.189-11.077,3.215c-1.277,0.764-2.348,1.878-3.489,2.858C93.701,48.209,93.395,48.612,92.812,49.243z"/>
<path fill-rule="evenodd" clip-rule="evenodd" fill="#de4555" class="fill" d="M84.275,43.384c0.935,0.054,1.528,0.089,2.374,0.137
	c-0.41,0.615-0.66,0.989-0.952,1.427c0.568,0.077,1.038,0.141,1.668,0.225c-0.355,0.451-0.611,0.777-0.858,1.093
	c0.528,0.78,1.767-0.306,2.056,1.044c-0.52,0.199-1.051,0.401-1.684,0.643c0.648,0.676,1.447,0.228,2.273,0.473
	c0.105,0.206,0.268,0.523,0.467,0.912c-10.548-0.505-18.35,3.866-23.878,12.707c-1.001-1.695-1.455-3.489-1.967-5.252
	c-1.351-4.651-1.588-9.409-1.213-14.208c0.161-2.054,0.17-4.155,0.657-6.138c0.805-3.277,2.222-6.354,4.023-9.229
	c0.18-0.285,0.465-0.502,0.537-0.577c1.325,0.407,2.478,0.763,3.678,1.132c-0.102,0.487-0.185,0.895-0.305,1.477
	c0.655-0.231,1.146-0.404,1.918-0.675c-0.206,0.755-0.321,1.18-0.496,1.818c0.632-0.273,1.064-0.461,1.551-0.671
	c0.276,0.19,0.556,0.384,0.838,0.577c-0.283,0.441-0.534,0.832-0.784,1.221c0.067,0.089,0.133,0.179,0.198,0.268
	c0.322-0.143,0.636-0.316,0.969-0.416c0.271-0.081,0.571-0.069,0.886-0.104c0.037,0.882-1.162,0.935-0.782,1.827
	c0.757,0.231,1.477-1.099,2.359-0.044c-0.232,0.406-0.465,0.811-0.771,1.341c0.704-0.09,1.317-0.169,2.172-0.279
	c-0.273,0.711-0.433,1.126-0.655,1.708c0.541-0.056,0.913-0.095,1.535-0.16c0.115,0.149,0.325,0.424,0.541,0.704
	c-0.176,0.43-0.332,0.816-0.553,1.361c0.549-0.062,0.931-0.105,1.39-0.157c0.225,0.259,0.482,0.556,0.797,0.92
	c-0.189,0.327-0.37,0.641-0.608,1.053c0.902,0.05,1.754,0.008,2.18,1.027c-0.146,0.265-0.327,0.589-0.569,1.023
	c0.708,0.108,1.299,0.198,2.121,0.324C84.975,42.46,84.733,42.779,84.275,43.384z"/>
<path fill-rule="evenodd" clip-rule="evenodd" fill="#de4555" class="fill" d="M112.822,22.555c0.18,0.029,0.641,0.107,1.191,0.2
	c-0.369,0.695-0.652,1.228-1.037,1.955c1.365-0.097,1.819-1.417,3.021-1.461c-0.183,0.599-0.331,1.085-0.479,1.57
	c0.082,0.079,0.162,0.157,0.244,0.237c0.651-0.466,1.304-0.932,2.037-1.456c0.386,0.067,0.815,0.144,1.506,0.264
	c-0.486,0.54-0.828,0.92-1.231,1.367c0.094,0.177,0.202,0.38,0.333,0.623c1.213-0.345,1.96-1.979,3.509-1.194
	c-0.065,0.766-1.5,0.554-0.924,1.796c0.979-0.375,1.964-0.753,2.948-1.129c0.069,0.067,0.14,0.137,0.21,0.204
	c-0.393,0.511-0.786,1.02-1.367,1.775c0.52,0,0.842,0.088,1.078-0.019c0.502-0.226,0.951-0.566,1.435-0.834
	c0.477-0.262,0.948-0.347,1.341,0.198c-0.439,0.485-0.866,0.955-1.356,1.496c0.766,0.509,1.221,0.019,1.719-0.236
	c0.646-0.33,1.274-0.869,2.078-0.265c-0.21,0.811-1.729,0.705-1.292,1.957c1.28,0.189,2.037-1.54,3.556-0.899
	c-0.476,0.497-0.87,0.91-1.287,1.347c0.089,0.202,0.163,0.377,0.244,0.561c1.196,0.024,2.024-1.502,3.428-0.712
	c-0.296,0.731-1.675,0.881-1.049,2.085c0.937-0.409,1.845-0.806,2.767-1.208c0.383,0.215,0.725,0.407,1.218,0.684
	c-0.661,0.492-1.225,0.912-1.981,1.476c1.493,0.587,2.599-0.779,3.971-0.109c-0.595,0.431-1.128,0.814-1.794,1.295
	c0.864,0.563,1.467,0.158,2.077,0.084c0.873-0.107,1.83-0.428,2.351,0.718c-0.713,0.112-1.4,0.222-2.088,0.329
	c-0.003,0.152-0.007,0.305-0.009,0.455c1.192,0.196,2.386,0.391,3.631,0.595c0.431,0.401,0.892,0.832,1.355,1.263
	c-0.044,0.075-0.088,0.151-0.132,0.228c-0.312-0.062-0.638-0.091-0.935-0.195c-2.063-0.727-4.171-1.259-6.37-0.973
	c-1.844,0.239-3.686,0.562-5.498,0.979c-3.34,0.77-6.437,2.054-8.917,4.851c-0.422-0.557-0.81-0.992-1.115-1.481
	c-1.585-2.545-3.503-4.816-5.77-6.765c-5.651-4.859-11.884-8.616-19.306-10.152c-4.741-0.982-9.51-1.719-14.344-2.008
	c-1.034-0.063-2.075-0.01-3.151-0.259c0.312-0.12,0.617-0.264,0.938-0.355c0.989-0.28,2.067,0.003,3.045-0.517
	c0.235-0.126,0.711,0.2,1.185,0.354c0.14-0.101,0.375-0.271,0.689-0.498c0.215,0.107,0.47,0.235,0.733,0.368
	c0.353-0.247,0.729-0.511,1.191-0.838c0.239,0.426,0.402,0.712,0.637,1.129c0.271-0.399,0.509-0.744,0.787-1.151
	c0.24-0.029,0.533-0.065,0.913-0.112c0.106,0.425,0.207,0.819,0.361,1.428c0.46-0.618,0.784-1.053,1.23-1.653
	c0.302,0.582,0.492,0.952,0.74,1.433c0.391-0.447,0.728-0.831,1.183-1.355c0.254,0.54,0.444,0.943,0.7,1.486
	c0.456-0.55,0.833-1.003,1.369-1.65c0.229,0.632,0.367,1.015,0.553,1.528c0.483-0.49,0.926-0.94,1.546-1.57
	c0.18,0.71,0.287,1.133,0.395,1.555c0.897-0.037,0.707-1.566,1.826-1.086c0.064,0.428,0.131,0.883,0.214,1.432
	c0.876-0.196,0.845-1.658,2.034-1.137c-0.036,0.419-0.075,0.874-0.117,1.354c1.145,0.062,1.285-1.959,2.758-1.121
	c-0.106,0.434-0.209,0.855-0.326,1.333c1.246,0.428,1.41-1.998,2.833-0.93c-0.051,0.433-0.108,0.932-0.17,1.471
	c1.2,0.2,1.261-1.695,2.581-1.057c-0.203,0.551-0.41,1.107-0.666,1.8c1.411-0.016,1.754-2.056,3.283-1.291
	c-0.176,0.503-0.346,0.989-0.576,1.646C111.556,23.748,111.843,22.84,112.822,22.555z"/>
<path fill-rule="evenodd" clip-rule="evenodd" fill="#de4555" class="fill" d="M61.793,30.35c0.128,0.157,0.302,0.373,0.549,0.682
	c-0.586,0.284-1.093,0.531-1.765,0.857c0.405,0.265,0.674,0.442,1.007,0.659c-0.086,0.255-0.178,0.524-0.266,0.781
	c-0.561,0.162-1.069,0.308-1.578,0.454c-0.016,0.096-0.03,0.191-0.045,0.286c0.398,0.183,0.796,0.367,1.202,0.553
	c0.119,0.717-0.271,0.99-0.911,1.078c-0.519,0.071-0.961,0.245-0.978,1.001c0.524,0,0.988,0,1.497,0c0,0.467,0,0.852,0,1.228
	c-0.669,0.18-1.269,0.34-1.875,0.503c0.219,1.195,1.167,0.433,1.657,0.864c0.415,1.502-1.771,0.698-1.728,1.969
	c0.514,0.059,1.021,0.114,1.515,0.169c0.089,0.768-0.407,0.747-0.845,0.872c-0.338,0.099-0.635,0.343-0.949,0.522
	c0.024,0.106,0.051,0.212,0.076,0.318c0.459,0.053,0.92,0.105,1.479,0.171c0.023,0.301,0.049,0.627,0.076,0.954
	c-0.658,0.229-1.245,0.434-1.836,0.639c0.355,1.099,1.341,0.319,2.011,0.975c-0.739,0.351-1.375,0.651-2.067,0.979
	c0.016,0.26,0.029,0.488,0.05,0.823c0.699-0.152,1.301-0.285,2.022-0.442c0.025,0.422,0.042,0.699,0.056,0.916
	c-0.599,0.57-1.738,0.128-1.979,1.348c0.75,0.033,1.42,0.062,2.139,0.094c-0.008,1.332-2.108,0.408-1.868,1.895
	c0.665,0.436,1.662-0.777,2.266,0.477c-0.759,0.327-1.479,0.637-2.2,0.946c0.032,0.138,0.064,0.273,0.097,0.41
	c0.346,0,0.694,0.016,1.041-0.005c0.392-0.022,0.782-0.078,1.293-0.133c0.097,0.493,0.177,0.907,0.247,1.271
	c-0.794,0.614-2.083-0.231-2.54,1.15c0.937,0,1.777,0,2.702,0c0.113,0.323,0.219,0.628,0.35,1.001
	c-1.029,0.271-2.224-0.002-2.955,1.458c1.146-0.257,2.025-0.453,3.022-0.676c0.126,0.356,0.246,0.695,0.381,1.076
	c-1.087,0.434-2.335,0.055-3.383,1.259c1.368-0.074,2.459-0.133,3.662-0.198c0.095,0.419,0.172,0.769,0.27,1.205
	c-1.171,0.155-2.306,0.089-3.093,1.151c1.097-0.093,2.193-0.187,3.368-0.286c0.122,0.48,0.211,0.835,0.309,1.22
	c-1.305,0.338-2.657,0.083-3.708,1.071c1.307-0.096,2.613-0.189,3.953-0.287c0.152,0.362,0.263,0.626,0.381,0.907
	c-0.173,0.109-0.285,0.211-0.416,0.257c-1.937,0.693-3.983,1.021-5.829,2.048c-2.682,1.493-4.757,3.514-6.185,6.219
	c-0.248,0.472-0.518,0.933-0.963,1.732c-0.627-2.15-1.13-3.917-1.297-5.779c-0.534-6.012-0.069-11.99,0.621-17.956
	c0.374-3.221,1.369-6.294,2.637-9.271c1.35-3.167,3.028-6.154,5.169-8.852c1.484-1.868,3.374-3.307,5.366-4.604
	c0.144-0.094,0.344-0.1,0.519-0.146c0.063,0.086,0.127,0.173,0.189,0.259C63.111,29.027,62.509,29.632,61.793,30.35z"/>
<path fill-rule="evenodd" clip-rule="evenodd" fill="#de4555" class="fill" d="M41.085,63.467c-0.558-0.088-1.114-0.176-1.759-0.279
	c-0.121-1.586,1.741-0.85,2.104-1.804c-0.369-0.981-1.157-0.058-1.785-0.411c0.075-0.286,0.153-0.595,0.215-0.829
	c0.727-0.313,1.355-0.583,1.979-0.853c-0.416-1.038-1.12-0.198-1.703-0.487c0.109-0.418,0.216-0.839,0.335-1.303
	c0.671-0.217,1.312-0.424,1.955-0.633c0.007-0.104,0.014-0.211,0.021-0.315c-0.424-0.121-0.849-0.241-1.412-0.401
	c0.104-0.381,0.213-0.782,0.303-1.111c0.679-0.253,1.229-0.456,2.065-0.769c-0.616-0.3-0.946-0.461-1.387-0.676
	c0.118-0.377,0.245-0.779,0.352-1.121c0.647-0.242,1.193-0.445,1.945-0.727c-0.455-0.377-0.734-0.608-1.033-0.857
	c0.219-1.07,1.424-0.554,1.993-1.276c-0.317-0.244-0.636-0.487-1.172-0.9c0.806-0.27,1.446-0.486,2.268-0.765
	c-0.484-0.375-0.814-0.631-1.216-0.939c1.772-2.937,3.438-5.854,5.772-8.38c-0.052,0.203-0.06,0.433-0.163,0.605
	c-1.851,3.083-2.761,6.462-3.159,10.002c-0.53,4.7-1.256,9.38-1.034,14.142c0.16,3.44,0.759,6.799,1.55,10.135
	c0.429,1.803,0.896,3.596,1.373,5.51c-3.851,3.383-6.553,7.629-7.832,12.925c-0.268-0.698-0.536-1.396-0.803-2.086
	c0.511-1.288,0.991-2.498,1.475-3.717c-0.772-0.054-0.772-0.054-1.729,1.857c-0.214-0.652-0.366-1.119-0.553-1.689
	c0.625-0.678,1.227-1.33,1.935-2.098c-0.154-0.157-0.288-0.292-0.453-0.458c-0.575,0.371-1.021,0.658-1.684,1.086
	c-0.058-1.764,1.364-2.278,2.111-3.21c-0.507-0.408-0.507-0.408-2.307,0.718c-0.398-0.723-0.272-1.339,0.341-1.842
	c0.483-0.397,1.008-0.742,1.602-1.176c-1.019-0.883-1.456,0.441-2.316,0.178c-0.036-0.341-0.081-0.749-0.124-1.15
	c0.738-0.505,1.383-0.945,2.119-1.448c-0.867-0.742-1.388,0.223-2.147,0.159c-0.079-0.403-0.161-0.816-0.253-1.278
	c0.838-0.492,1.597-0.94,2.436-1.432c-0.852-1.08-1.505,0.247-2.369-0.116c-0.024-0.407-0.057-0.929-0.096-1.553
	c0.85-0.396,1.651-0.771,2.459-1.147c-0.427-0.602-0.427-0.602-2.39-0.198c0-0.43,0-0.836,0-1.26
	c0.818-0.337,1.576-0.649,2.491-1.028c-0.749-0.353-0.749-0.353-2.488-0.175c0-0.538,0-1.069,0-1.604
	c0.758-0.265,1.435-0.503,2.199-0.77c-0.62-0.953-1.343-0.214-2.109-0.543c0.023-0.371,0.051-0.818,0.08-1.252
	c0.757-0.309,1.388-0.565,2.02-0.823C41.097,63.751,41.091,63.608,41.085,63.467z"/>
<path fill-rule="evenodd" clip-rule="evenodd" fill="#de4555" class="fill" d="M107.804,85.443c-0.237,0.21-0.479,0.424-0.825,0.729
	c-0.29-0.544-0.548-0.961-0.747-1.406c-1.378-3.07-2.731-6.151-4.114-9.22c-1.694-3.756-3.469-7.479-5.095-11.263
	c-0.912-2.12-1.582-4.344-2.391-6.511c-0.49-1.314-1.055-2.602-1.554-3.914c-0.245-0.646-0.417-1.322-0.642-2.049
	c0.327-0.199,0.56-0.341,0.879-0.535C98.157,62.695,102.965,74.031,107.804,85.443z"/>
<path fill-rule="evenodd" clip-rule="evenodd" fill="#de4555" class="fill" d="M127.945,74.342c-0.438,0-0.712,0-1.068,0
	c-2.812-9.401-3.588-19.144-5.637-28.648c0.457-0.229,0.709-0.353,1.113-0.555C124.221,54.892,126.064,64.52,127.945,74.342z"/>
<path fill-rule="evenodd" clip-rule="evenodd" fill="#de4555" class="fill" d="M70.384,97.337c-0.95,0.361-1.65,0.11-2.263-0.378
	c-1.058-0.85-2.122-1.697-3.113-2.622c-3.749-3.496-7.492-7.002-11.189-10.552c-1.148-1.103-2.149-2.357-3.353-3.691
	c0.174-0.173,0.414-0.412,0.709-0.708C57.641,85.427,63.966,91.339,70.384,97.337z"/>
<path fill-rule="evenodd" clip-rule="evenodd" fill="#de4555" class="fill" d="M64.93,67.083c0.595-0.21,0.815-0.287,1.222-0.43
	c5.875,9.618,13.147,18.199,20.026,27.074c-0.076,0.096-0.151,0.192-0.227,0.288c-0.341-0.204-0.77-0.335-1.006-0.624
	c-2.067-2.533-4.142-5.062-6.135-7.654c-3.37-4.383-6.696-8.8-10.013-13.223C67.52,70.807,66.32,69.04,64.93,67.083z"/>
<path fill-rule="evenodd" clip-rule="evenodd" fill="#de4555" class="fill" d="M147.532,59.658c-0.26-5.618-0.519-11.234-0.776-16.852
	c0.148-0.079,0.296-0.157,0.445-0.235c0.07,0.185,0.147,0.367,0.211,0.553c0.668,1.951,1.345,3.872,1.21,6.018
	c-0.151,2.361-0.069,4.737-0.098,7.106c-0.011,0.854-0.005,1.712-0.095,2.559c-0.035,0.34-0.305,0.656-0.469,0.983
	C147.818,59.746,147.674,59.701,147.532,59.658z"/>
</svg>
