<svg version="1.1" id="svg" xmlns="http://www.w3.org/2000/svg" xmlns:xlink="http://www.w3.org/1999/xlink" x="0px" y="0px"
	 width="200px" height="200px" viewBox="0 0 200 200" enable-background="new 0 0 200 200" xml:space="preserve">
<path class="stroke" fill="#531863"  d="M136.626,36.269c-0.447-2.176-1.016-3.343-1.997-4.303c-2.151-2.105-4.804-3.467-7.634-4.111
	c-3.484-0.792-7.089-1.095-10.657-1.458c-3.632-0.368-7.28-0.555-11.476-0.86c-0.031,0.034-0.346,0.371-0.488,0.524
	c0.264,1.149,0.435,1.894,0.641,2.787c-3.894,1.006-7.741,1.743-10.816,4.573c1.074,1.166,2.438,1.228,4.018,1.55
	c-3.317,1.72-5.771,3.89-7.023,7.485c1.026,0.291,1.805,0.511,2.57,0.729c-0.295,1.445-0.596,1.957-1.717,2.968
	c-0.587,0.531-1.209,1.031-1.759,1.599c-0.254,0.263-0.37,0.655-0.608,1.098c0.749,0.202,1.283,0.35,2.114,0.576
	c-1.743,1.652-3.262,3.09-5.108,4.838c1.186,0.187,1.973,0.311,2.837,0.446c-1.357,2.159-2.645,4.21-3.933,6.26
	c-0.778,1.238-1.547,2.483-2.334,3.718c-0.947,1.488-2.025,2.907-2.834,4.468c-1.15,2.215-2.182,4.496-3.125,6.806
	c-1.496,3.662-3.116,7.301-4.247,11.079c-1.372,4.604-2.278,9.35-3.423,14.023c-0.154,0.629-0.415,1.287-0.804,1.793
	c-2.3,2.996-4.707,5.912-6.966,8.939c-1.004,1.344-1.9,2.816-2.137,4.636c0.633,0.54,1.217,1.037,1.858,1.583
	c-1.444,2.246-2.54,4.538-2.45,7.11c1.033,2.078,2.9,1.076,4.367,1.277c-0.039,0.905-0.076,1.688-0.122,2.71
	c0.688,0.333,1.343,0.782,2.064,0.97c1.351,0.35,2.669,0.05,3.887-0.604c1.383-0.745,2.745-1.529,4.107-2.292
	c0.377,0.853,0.714,1.617,1.131,2.561c-0.03,0.292-0.05,0.781-0.139,1.259c-0.822,4.434-1.655,8.864-2.489,13.298
	c-0.273,1.437-0.644,2.862-0.822,4.311c-0.395,3.205-0.703,6.424-1.039,9.639c-0.278,2.664-0.561,5.329-0.812,7.995
	c-0.133,1.39-0.199,2.784-0.305,4.176c-0.088,1.208,0.533,1.944,1.564,2.435c0.65,0.31,1.289,0.647,1.894,0.952
	c0.084,0.801,0.14,1.469,0.226,2.133c0.226,1.753,0.43,3.514,0.719,5.257c0.199,1.215,0.865,2.244,2.058,2.604
	c2.663,0.802,5.357,1.313,7.615-0.396c1.479-1.949,2.06-3.894,2.066-6.038c0-0.536,0.089-1.148,0.356-1.591
	c1.325-2.175,1.796-4.646,2.487-7.029c0.914-3.152,1.681-6.347,2.505-9.525c1.314-5.064,2.67-10.121,3.912-15.204
	c0.664-2.721,1.245-5.475,1.638-8.246c0.39-2.745,1.376-5.324,1.913-8.032c0.946-4.766,2.208-9.47,3.366-14.32
	c0.699-0.562,1.552-1.161,2.296-1.874c0.742-0.708,1.375-1.53,2.098-2.354c2.219,0.254,4.419,0.108,6.321,1.069
	c0.851,1.825,0.104,3.365-0.362,4.866c2.24,2.221,4.849,1.666,5.883-1.166c0.356-0.973,0.807-1.923,1.053-2.923
	c0.228-0.93,0.412-1.931,0.312-2.866c-0.316-2.932-2.311-4.581-4.771-5.788c-0.567-0.279-1.174-0.469-1.867-0.74
	c0.293-0.431,0.447-0.683,0.629-0.915c3.22-4.106,5.971-8.473,7.531-13.508c0.688-2.213,1.402-4.42,2.113-6.625
	c1.427-4.428,2.525-8.923,2.699-13.594c0.156-4.252,0.283-8.507-1.179-12.734c1.242-0.254,2.341-0.477,3.521-0.715
	c0.455,1.854-1.148,3.062-1.043,4.636c0.58,0.676,1.243,0.522,1.833,0.165c1.132-0.695,2.321-1.356,3.307-2.233
	c2.826-2.52,4.666-5.562,4.676-9.512c0.007-2.406-0.333-4.727-1.249-6.673C135.685,38.498,136.201,37.279,136.626,36.269z"/>
<path fill-rule="evenodd" clip-rule="evenodd" fill="#faae19" class="fill" d="M122.678,69.558c-0.073,0.413-0.133,0.757-0.198,1.124
	c-0.999,0.187-2.19-0.245-2.794,1.215c0.729,0.111,1.342,0.203,2.091,0.318c-0.336,1.328-1.891,0.722-2.469,1.742
	c0.327,0.294,0.689,0.621,1.192,1.075c-1.175,1.547-2.34,3.093-3.519,4.629c-0.221,0.288-0.472,0.563-0.749,0.795
	c-1.929,1.604-3.591,1.066-4.2-1.349c-0.437-1.736-0.4-2.914,0.18-4.6c1.797-0.436,3.607-1.031,4.191-3.414
	c-0.161-0.243-0.41-0.628-0.729-1.114c-0.867,0.841-1.631,1.586-2.333,2.264c-1.64-0.512-1.911-0.826-2.012-2.323
	c-0.078-1.141-0.11-2.286-0.163-3.378c-0.854-0.37-1.258,0.035-1.296,0.628c-0.077,1.261-0.109,2.539,0.016,3.794
	c0.105,1.07,0.453,2.117,0.692,3.163c-1.234,1.467-2.072,3.142-4,3.936c-1.854-1.925,0.25-3.818-0.01-5.608
	c-1.008-0.652-1.524,0.032-2.045,0.62c-0.85,0.957-1.66,1.947-2.517,2.897c-0.255,0.285-0.612,0.483-1.077,0.843
	c-0.512-2.021,0.744-3.551,0.799-5.538c-2.258,1.49-3.499,4.087-6.533,4.805c0.595-2.702,1.069-4.974,2.532-6.93
	c1.387-1.858,2.72-3.755,4.157-5.748c-1.212-0.337-1.796,0.307-2.309,0.964c-1.69,2.163-3.279,4.411-5.035,6.518
	c-1.361,1.629-2.88,3.135-4.404,4.613c-0.495,0.481-1.239,0.705-1.795,1.006c-1.12-0.694-0.85-1.593-0.644-2.389
	c0.444-1.713,0.931-3.418,1.496-5.094c0.974-2.881,2.009-5.744,3.043-8.604c0.206-0.568,0.528-1.093,0.803-1.653
	c1.697-0.386,3.375-0.748,4.2-2.62c-0.848-0.431-1.271,0.273-1.821,0.505c-0.532,0.225-1.074,0.428-1.673,0.665
	c-0.566-1.134-1.046-2.089-1.646-3.285c0.334-0.529,0.779-1.227,1.303-2.052c-0.049-0.25-0.131-0.651-0.22-1.08
	c0.675-0.722,1.331-1.427,1.97-2.109c2.484,1.409,3.261,1.381,4.884-0.27c-0.807,0-1.472,0-2.372,0
	c0.527-0.925,0.933-1.625,1.439-2.514c-1.674-0.114-1.999,1.492-3.102,1.854c-0.512-0.426-1.032-0.859-1.681-1.4
	c0.972-1.479,1.958-2.977,3.026-4.602c-0.777-0.35-1.307-0.586-2.06-0.924c1.767-2.467,4.172-4.145,6.195-6.192
	c-0.704-1.579-2.399-0.818-3.334-1.659C98.034,32.336,98.644,32.15,99.13,32c0.987-0.303,2.006-0.506,3.011-0.743
	c1.947-0.458,3.894-0.913,5.885-1.379c0-0.733,0-1.306,0-1.78c4.261,0.315,8.463,0.451,12.615,0.993
	c2.824,0.367,5.604,1.194,8.345,2.015c2.166,0.649,3.798,2.15,5.1,4.072c0,0.496,0,1.031,0,1.562
	c-0.695,0.066-1.329,0.127-2.163,0.209c-0.097-0.202-0.306-0.643-0.697-1.466c-0.544,1.243-0.948,2.165-1.351,3.088
	c-0.086-0.035-0.174-0.07-0.26-0.104c0-1.055,0-2.106,0-3.283c-1.6,0.496-0.829,2.245-1.938,3.091
	c-0.232-0.266-0.54-0.511-0.703-0.829c-0.471-0.918-0.778-1.935-1.342-2.783c-1.085-1.634-2.596-2.544-4.661-2.197
	c-0.956,0.16-1.92,0.284-2.744,0.406c-1.001-0.698-1.911-1.381-2.879-1.976c-0.239-0.148-0.654-0.021-1.417-0.021
	c1.208,0.947,2.096,1.643,3.097,2.429c-0.3,0.232-0.511,0.398-0.501,0.392c-1.873-0.87-3.549-1.668-5.252-2.408
	c-0.164-0.072-0.487,0.217-0.989,0.463c1.804,0.862,3.374,1.613,5.145,2.459c-3.612,2.975-5.731,6.44-4.937,11.296
	c-1.014,0.791-2.133,1.668-3.475,2.718c1.939,0.461,2.587-1.175,3.938-1.509c0.112,0.138,0.287,0.351,0.495,0.604
	c-0.813,0.743-1.55,1.418-2.388,2.182c1.393,0.667,1.922-0.779,2.981-0.873c0.14,0.231,0.283,0.479,0.476,0.806
	c-0.604,0.558-1.168,1.076-1.735,1.6c1.11,1.143,1.872-0.909,3.012-0.212c-0.412,1.146-1.587,1.244-2.174,1.814
	c-1.314-0.46-2.501-0.875-3.712-1.299c-0.329,0.421-0.535,0.688-0.794,1.018c0.665,0.693,1.275,1.329,1.986,2.068
	c-1.487,0.605-2.904-0.827-4.37,0.418c1.189,1.062,2.565,1.526,3.958,1.494c1.495-0.035,3.033-0.327,4.46-0.79
	c2.074-0.676,4.095-1.096,6.279-0.616c1.046,0.229,1.795,0.672,2.293,1.714c-0.342,0.361-0.695,0.732-1.307,1.376
	c0.861,0.226,1.443,0.381,2.155,0.567c0.071,0.217,0.184,0.553,0.31,0.937c-0.639,0.359-1.238,0.692-1.93,1.077
	c0.953,0.571,0.953,0.571,2.062,0.58c0.064,0.37,0.134,0.762,0.217,1.232c-0.552,0.194-1.037,0.364-1.502,0.527
	c-0.106,1.101,0.984,0.818,1.357,1.423c0,0.211,0,0.506,0,0.816c-0.598,0.3-1.191,0.593-2.185,1.09
	c1.018,0.299,1.56,0.458,2.177,0.64c-0.087,0.346-0.157,0.623-0.213,0.851c-0.792,0.25-1.493,0.472-2.194,0.69
	c0.005,0.149,0.012,0.299,0.02,0.447C121.338,69.11,121.983,69.325,122.678,69.558z M97.083,63.767
	c-1.239-0.14-1.769,1.485-3.113,0.974c-0.057-0.98-0.114-1.946-0.173-2.979c-1.131,0.618-1.569,1.94-1.211,3.253
	c0.299,1.097,1.179,1.655,2.205,1.21C95.824,65.775,96.689,65.055,97.083,63.767z M101.761,40.983
	c-1.569-0.229-2.697,0.408-3.811,1.431c1.196,0.85,2.316,1.264,3.6,0.658c0.193-0.092,0.251-0.473,0.385-0.744
	c-0.425-0.156-0.721-0.264-1.047-0.385C101.221,41.579,101.491,41.28,101.761,40.983z M104.137,48.978
	c-1.207,0.328-1.829,1.153-2.095,2.343c1.606,0.657,1.852,0.607,3.037-0.564C104.774,50.18,104.472,49.608,104.137,48.978z
	 M96.445,51.203c-1.106,0.616-1.509,1.402-1.602,2.399c1.724,0.5,3.587-0.114,3.463-1.195c-0.45,0-0.909,0-1.359,0
	C96.778,52.004,96.647,51.689,96.445,51.203z M106.37,38.535c-1.82,0.08-2.186,1.178-2.56,2.354
	c0.907,0.696,1.748,0.908,2.769,0.143c-0.35-0.332-0.637-0.604-0.955-0.905C105.827,39.691,106.025,39.268,106.37,38.535z
	 M106.781,59.793c-1.195,0.472-0.813,1.383-0.83,2.254c0.399,0.33,0.808,0.663,1.344,1.102c0.544-0.388,1.032-0.732,1.751-1.243
	c-0.791-0.144-1.231-0.225-1.682-0.307C107.16,60.966,106.979,60.407,106.781,59.793z M118.988,68.771
	c0.952-0.768,1.218-1.716,1.134-3.193c-0.527,0.793-0.867,1.307-1.258,1.894c-0.547-0.384-1.008-0.707-1.498-1.05
	C116.948,67.762,117.113,68.007,118.988,68.771z M112.97,58.927c-0.351,1.286,0.295,1.704,1.076,1.899
	c0.689,0.17,1.308,0,1.384-0.934c-0.433-0.107-0.84-0.166-1.212-0.312C113.825,59.427,113.463,59.191,112.97,58.927z M98.463,57.887
	c-0.76,0.522-0.774,1.002-0.208,1.522c0.678,0.62,1.223,0.561,2.021-0.19C99.714,58.806,99.149,58.392,98.463,57.887z
	 M119.507,31.854c0.072-0.175,0.145-0.353,0.214-0.529c-0.411-0.636-0.858-1.138-1.975-0.259
	C118.468,31.39,118.988,31.623,119.507,31.854z"/>
<path fill-rule="evenodd" clip-rule="evenodd" fill="#faae19" class="fill" d="M83.934,146.35c0.917,0.152,1.835,0.307,2.856,0.479
	c0,0.624,0,1.195,0,1.658c-0.874,0.855-2.187-0.38-3.037,1.097c0.978,0.212,1.807,0.393,2.765,0.599
	c-0.067,0.549-0.129,1.066-0.173,1.439c-0.818,0.714-2.012-0.408-2.598,0.984c0.768,0.262,1.481,0.5,2.314,0.783
	c-0.07,0.371-0.143,0.752-0.208,1.096c-0.929,0.097-1.735,0.18-2.808,0.291c0.725,1.129,1.739,0.705,2.625,1.203
	c-0.035,0.448-0.082,1.008-0.124,1.548c-1.097,0.089-2.015,0.163-2.936,0.239c-0.021,0.172-0.04,0.347-0.061,0.521
	c0.827,0.217,1.652,0.434,2.634,0.69c0,0.441,0,0.936,0,1.317c-0.904,0.858-2.123-0.754-2.995,0.788
	c0.921,0.288,1.745,0.546,2.779,0.871c-0.06,0.558-0.122,1.172-0.182,1.739c-1.071,0.401-2.191-0.88-3.095,0.625
	c0.93,0.291,1.766,0.555,2.722,0.855c0,0.465,0,0.967,0,1.403c-1.079,0.528-2.284-0.924-3.223,0.643
	c0.962,0.249,1.865,0.48,2.868,0.738c-0.029,0.351-0.055,0.678-0.076,0.928c-0.922,0.493-2.058-0.413-2.885,0.83
	c0.599,0.148,1.043,0.248,1.477,0.374c0.403,0.117,0.798,0.264,1.322,0.44c-0.075,0.554-0.14,1.058-0.201,1.514
	c-0.956,0.345-1.99-0.648-2.732,0.657c0.793,0.298,1.547,0.585,2.378,0.898c0,0.512,0,1.016,0,1.687c-1.003,0-1.865,0-2.969,0
	c0.603,1.289,1.938,0.788,2.636,1.687c-0.068,0.378-0.154,0.883-0.242,1.382c-0.938,0.192-1.894-0.89-2.674,0.408
	c0.763,0.363,1.494,0.713,2.221,1.06c-0.968,2.49-2.799,2.815-5.555,1.006c-0.805-1.704-0.83-3.642-0.803-5.489
	c0.072-4.875,0.337-9.748,0.619-14.616c0.291-5.038,0.68-10.071,1.059-15.104c0.225-2.978,0.513-5.948,0.74-8.58
	c3.23-3.819,6.248-7.387,9.232-10.917c0.875,0.156,1.58,0.282,2.373,0.423c0.04,0.292,0.08,0.568,0.134,0.953
	c-1.06,0.059-2.027,0.109-3.203,0.176c0.724,1.389,2.019,0.555,2.811,1.362c-0.107,0.489-0.23,1.064-0.37,1.71
	c-0.92,0.072-1.787,0.142-2.822,0.223c0.562,1.269,1.605,0.73,2.499,1.184c-0.087,0.535-0.184,1.143-0.28,1.744
	c-1.076,0.326-2.273-0.627-3.32,0.76c1.137,0.276,2.043,0.493,3.072,0.743c-0.029,0.299-0.057,0.615-0.08,0.863
	c-0.934,0.462-2.11-0.32-2.889,1.059c0.939,0.17,1.727,0.312,2.665,0.484c-0.091,0.581-0.184,1.154-0.255,1.608
	c-0.982,0.715-2.191-0.436-3.041,0.655c0.644,1.136,1.863,0.317,2.732,0.952c-0.036,0.378-0.08,0.828-0.11,1.149
	c-0.929,0.807-2.24-0.278-3.107,1.136c0.994,0.204,1.833,0.375,2.732,0.559c0,0.513,0,1.021,0,1.5
	c-1.085,0.495-2.285-0.377-3.185,0.452C83.952,145.994,83.943,146.172,83.934,146.35z"/>
<path fill-rule="evenodd" clip-rule="evenodd" fill="#faae19" class="fill" d="M65.675,127.379c1.531-3.947,3.771-6.965,6.275-9.791
	c2.622-2.961,5.329-5.844,8.257-9.046c1.826-0.646,3.778-1.733,4.413-4.578c-1.975,0.258-2.449,2.81-4.543,2.562
	c-0.585-1.347,0.19-2.534,0.502-3.895c3.395-0.066,5.646-2.529,8.578-4.215c-0.055,1.287-0.229,2.295-0.836,3.209
	c-0.271,0.405-0.552,0.806-0.785,1.231c-1.6,2.936-3.122,5.919-4.807,8.806c-1.226,2.1-2.682,4.065-3.999,6.113
	c-0.856,1.333-1.729,2.663-2.447,4.069c-0.554,1.085-1.302,1.947-2.349,2.461c-2.013,0.987-4.068,1.887-6.135,2.753
	C67.271,127.28,66.636,127.243,65.675,127.379z"/>
<path fill-rule="evenodd" clip-rule="evenodd" fill="#faae19" class="fill" d="M95.688,112.035c-3.277,6.115-15.176,14.926-18.985,15.832
	c-0.506-0.676-0.096-1.302,0.216-1.838c2.521-4.317,5.065-8.621,7.639-12.906c0.627-1.043,1.391-2.003,2.16-3.098
	c2.422-0.016,4.711-0.727,7.027-2.411c-0.14,1.21-0.244,2.111-0.368,3.165C94.125,111.186,94.854,111.582,95.688,112.035z"/>
<path fill-rule="evenodd" clip-rule="evenodd" fill="#faae19" class="fill" d="M109.931,89.504c0.898-0.583,1.509-0.979,2.121-1.376
	c-0.051-0.122-0.101-0.242-0.15-0.365c-0.551,0-1.104,0-1.671,0c-0.937-1.267,0.015-2.5-0.037-3.785
	c-1.13-0.332-1.595,0.521-2.008,1.159c-1.05,1.624-2.562,2.532-4.462,3.281c-1.336-2.762,0.609-4.939,0.945-7.568
	c2.393,0.683,3.909-0.65,5.369-2.255c0.213,0.418,0.361,0.614,0.416,0.834c0.762,3.092,3.22,3.756,6.601,2.673
	c0.789-0.253,1.486-0.794,2.269-1.226c0.455,1.535-1.071,1.322-1.756,1.979c0.279,0.398,0.538,0.771,0.939,1.343
	c-0.604,0.439-1.19,0.867-1.853,1.353c0.131,0.706,1.311,1.364-0.009,2.358c-0.245,0.068-0.807,0.224-1.546,0.429
	c0.337,0.55,0.595,0.973,0.982,1.611c-0.64,0.289-1.245,0.565-1.943,0.883c0.149,0.505,0.298,1.004,0.433,1.465
	c-0.527,0.946-1.224,0.189-1.889,0.256c-1.245,1.138-2.33,2.652-4.33,2.626C108.153,93.88,108.825,91.555,109.931,89.504z"/>
<path fill-rule="evenodd" clip-rule="evenodd" fill="#faae19" class="fill" d="M88.759,86.344c3.017,0.825,5.074-0.258,6.053-3.181
	c-1.554-0.879-2.639,1.009-4.049,0.721c-0.68-1.622-0.336-3.51,1.189-6.292c1.139,1.208,2.535,1.765,4.326,1.51
	c-0.301,2.334-1.377,4.43-0.893,6.826c0.289,0.326,0.646,0.736,1.158,1.319c-3.354,5.247-8.249,8.895-13.271,12.601
	C82.979,97.719,86.103,90.167,88.759,86.344z"/>
<path fill-rule="evenodd" clip-rule="evenodd" fill="#faae19" class="fill" d="M123.154,36.089c-0.469-0.654-1.048-1.457-1.589-2.212
	c2.404-0.326,4.271,2.978,3.17,5.918c0.35,0.196,0.709,0.396,1.12,0.626c-0.185,0.173-0.29,0.317-0.431,0.397
	c-1.85,1.039-3.725,2.033-5.551,3.114c-2.195,1.303-3.825,3.158-4.928,5.48c-4.051-3.906-4.256-9.806,0.878-13.526
	c0.174,0.593,0.335,1.14,0.494,1.686C118.689,40.059,122.032,39.472,123.154,36.089z M115.257,39.776
	c1.365,1.816,2.646,2.131,4.094,0.986c-0.665-0.122-1.252-0.229-1.84-0.336C116.783,40.24,116.453,38.854,115.257,39.776z
	 M117.052,43.078c-0.826-0.179-1.527-0.33-2.444-0.53C115.565,43.89,115.735,43.921,117.052,43.078z"/>
<path fill-rule="evenodd" clip-rule="evenodd" fill="#faae19" class="fill" d="M105.97,95.563c0.374,0.465,0.629,0.777,1.02,1.263
	c1.238-0.192,2.541-0.395,3.959-0.614c0.234,0.392,0.537,0.902,0.862,1.45c-0.153,0.33-0.308,0.655-0.45,0.958
	c-0.591,0.1-1.132,0.191-1.689,0.285c0.142,0.812,0.25,1.439,0.389,2.226c-0.942,0-1.585,0-2.638,0
	c0.649,0.684,0.993,1.046,1.369,1.444c-0.12,0.197-0.242,0.397-0.42,0.689c-0.713-0.261-1.424-1.208-2.504,0.235
	c0.533,0.297,1.103,0.615,1.733,0.967c-0.38,0.544-0.645,0.922-0.875,1.253c-0.862,0.082-1.65-1.091-2.468,0.203
	c0.43,0.403,0.884,0.829,1.384,1.295c-0.29,0.345-0.562,0.667-0.809,0.956c-0.718,0.059-1.383,0.114-2.291,0.188
	c0.388,0.701,0.604,1.095,0.851,1.539c-0.254,0.174-0.44,0.304-0.801,0.555c-0.867-3.723,0.863-6.717,2.159-9.778
	c-0.764-0.472-1.17-0.061-1.625,0.407c-1.753,1.808-2.745,4.008-3.388,6.396c-0.128,0.468-0.256,0.934-0.423,1.543
	c-0.75,0.278-1.523,0.567-2.465,0.918c-0.973-2.233,0.498-3.858,0.806-5.695C101.45,102.38,103.549,98.97,105.97,95.563z"/>
<path fill-rule="evenodd" clip-rule="evenodd" fill="#faae19" class="fill" d="M131.365,53.043c-0.458-0.122-0.913-0.244-1.341-0.358
	c-0.101-0.232-0.177-0.397-0.244-0.562c-0.331-0.829-0.627-1.673-0.994-2.485c-1.146-2.54-1.641-5.13-0.975-7.708
	c1.906-1.194,3.707-1.131,5.472-0.938C135.452,43.355,134.239,50.588,131.365,53.043z"/>
<path fill-rule="evenodd" clip-rule="evenodd" fill="#faae19" class="fill" d="M102.485,90.679c2.029-0.938,3.537-1.635,5.246-2.424
	c0.098,0.073,0.409,0.31,0.945,0.711c-3.535,4.482-5.82,9.854-10.936,13.093C97.337,100.132,99.176,95.934,102.485,90.679z"/>
<path fill-rule="evenodd" clip-rule="evenodd" fill="#faae19" class="fill" d="M76.582,105.444c0.302,0.754,0.479,1.188,0.646,1.606
	c-2.312,2.614-4.6,5.132-6.803,7.72c-2.209,2.597-4.236,5.336-5.694,8.468c-0.981,0.546-1.937,1.084-3.15,0.01
	C65.297,116.354,70.979,111.143,76.582,105.444z"/>
<path fill-rule="evenodd" clip-rule="evenodd" fill="#faae19" class="fill" d="M91.864,98.446c2.005-3.584,4.011-7.171,5.904-10.556
	c1.266-0.49,2.218-0.86,3.269-1.267c0.078,1.104,0.147,2.1,0.233,3.264c-1.532,2.615-3.76,4.882-5.924,7.172
	c-0.781,0.829-2.006,1.239-3.031,1.839C92.166,98.747,92.013,98.598,91.864,98.446z"/>
<path fill-rule="evenodd" clip-rule="evenodd" fill="#faae19" class="fill" d="M85.854,80.551c0.742,0.128,1.391,0.238,2.003,0.344
	c0.901,4.145-3.06,10.305-5.841,11.562C81.293,90.306,82.991,84.974,85.854,80.551z"/>
<path fill-rule="evenodd" clip-rule="evenodd" fill="#faae19" class="fill" d="M79.424,96.423c-0.35,2.271-1.274,3.548-2.708,4.661
	c-3.766,2.92-6.941,6.464-10.062,10.044c-0.954,1.095-1.727,2.351-2.605,3.518c-0.305,0.406-0.672,0.765-1.152,1.02
	C66.646,107.899,72.362,101.839,79.424,96.423z"/>
<path fill-rule="evenodd" clip-rule="evenodd" fill="#faae19" class="fill" d="M95.415,104.548c-2.196,1.551-4.063,3.207-6.891,3.342
	c0.186-2.543,1.229-4.501,2.379-6.478c1.268-0.43,2.512-0.853,3.945-1.34C94.637,101.678,94.086,103.146,95.415,104.548z"/>
<path fill-rule="evenodd" clip-rule="evenodd" fill="#faae19" class="fill" d="M98.007,85.631c-0.393-1.933,0.312-3.601,0.8-5.229
	c1.007-0.241,1.943-0.32,2.736-0.696c0.71-0.339,1.267-1.005,2.134-1.727c0.146,2.586-1.043,4.436-1.847,6.436
	C100.562,84.758,99.566,85.845,98.007,85.631z"/>
<path fill-rule="evenodd" clip-rule="evenodd" fill="#faae19" class="fill" d="M91.512,56.231c0.144,0.518,0.289,1.033,0.321,1.148
	c-1.959,5.449-3.799,10.556-5.638,15.664c0.015-6.14,2.812-11.4,4.889-16.884C91.226,56.183,91.368,56.207,91.512,56.231z"/>
<path fill-rule="evenodd" clip-rule="evenodd" fill="#faae19" class="fill" d="M121.747,45.569c0.329-0.466,0.609-0.86,1.045-1.478
	c1.276,2.035,2.4,3.831,3.633,5.794c-1.257-0.244-1.257-0.244-2.391-1.194c-0.186-0.63-0.388-1.321-0.58-1.981
	C122.901,46.342,122.41,46.013,121.747,45.569z"/>
<path fill-rule="evenodd" clip-rule="evenodd" fill="#faae19" class="fill" d="M118.688,35.56c0.655-0.186,1.31-0.371,2.182-0.621
	c0.251,0.716,0.715,1.368,0.546,1.712c-0.243,0.497-0.9,0.888-1.464,1.1c-0.472,0.179-1.062,0.035-1.587,0.035
	c-1.099-1.312-1.046-1.621,0.393-2.292c-0.267,0.648-0.442,1.312,0.36,1.687c0.278,0.132,0.669,0.022,1.207,0.022
	c-0.076-0.6-0.137-1.086-0.206-1.643C119.523,35.56,119.106,35.56,118.688,35.56z"/>
<path fill-rule="evenodd" clip-rule="evenodd" fill="#faae19" class="fill" d="M114.05,104.241c-1.235,1.19-1.975,2.218-3.269,3.271
	c-0.036-1.657,0.504-2.597,1.23-3.679C112.545,103.94,113.099,104.051,114.05,104.241z"/>
<path fill-rule="evenodd" clip-rule="evenodd" fill="#faae19" class="fill" d="M90.969,140.25c0.601,0.176,0.925,0.27,1.434,0.419
	c-0.202,0.918-0.386,1.77-0.589,2.697c-0.464-0.059-0.793-0.102-1.32-0.169C90.649,142.221,90.79,141.365,90.969,140.25z"/>
<path fill-rule="evenodd" clip-rule="evenodd" fill="#faae19" class="fill" d="M115.921,106.373c-0.969,0.607-1.844,1.156-2.715,1.703
	c0.069-1.442,0.854-2.228,2.035-2.842C115.47,105.62,115.669,105.952,115.921,106.373z"/>
<path fill-rule="evenodd" clip-rule="evenodd" fill="#faae19" class="fill" d="M93.423,126.632c0.803,0.192,1.301,0.313,1.921,0.461
	c-0.145,0.589-0.253,1.027-0.373,1.517c-0.571,0.029-1.04,0.055-1.722,0.089C93.306,128.038,93.353,127.483,93.423,126.632z"/>
<path fill-rule="evenodd" clip-rule="evenodd" fill="#faae19" class="fill" d="M116.428,112.384c-0.69-0.145-1.091-0.228-1.431-0.298
	c-0.542-0.906,0.125-1.515,1.813-1.557C116.689,111.114,116.579,111.647,116.428,112.384z"/>
<path fill-rule="evenodd" clip-rule="evenodd" fill="#faae19" class="fill" d="M91.394,138.721c0.125-0.651,0.236-1.229,0.371-1.938
	c0.478,0.072,0.842,0.129,1.369,0.211c-0.174,0.817-0.318,1.501-0.502,2.361C92.141,139.103,91.806,138.932,91.394,138.721z"/>
<path fill-rule="evenodd" clip-rule="evenodd" fill="#faae19" class="fill" d="M92.744,132.979c0.37,0.034,0.646,0.061,1.146,0.106
	c-0.197,0.887-0.369,1.653-0.547,2.443C92.085,135.069,92.085,135.069,92.744,132.979z"/>
<path fill-rule="evenodd" clip-rule="evenodd" fill="#faae19" class="fill" d="M94.112,131.948c-0.544-0.177-0.822-0.266-1.25-0.403
	c0.059-0.527,0.115-1.027,0.179-1.584c0.507-0.056,0.901-0.099,1.589-0.176C94.444,130.563,94.303,131.154,94.112,131.948z"/>
<path fill-rule="evenodd" clip-rule="evenodd" fill="#faae19" class="fill" d="M96.04,124.533c-0.194,0.592-0.3,0.914-0.441,1.343
	c-0.615-0.122-1.17-0.233-1.81-0.359c0.075-0.44,0.13-0.762,0.206-1.219C94.66,124.375,95.221,124.438,96.04,124.533z"/>
<path fill-rule="evenodd" clip-rule="evenodd" fill="#faae19" class="fill" d="M88.55,125.216c0.773-0.851,1.229-1.354,1.922-2.118
	c0,0.881,0,1.43,0,2.213C89.938,125.284,89.481,125.262,88.55,125.216z"/>
<path fill-rule="evenodd" clip-rule="evenodd" fill="#faae19" class="fill" d="M90.182,144.439c0.468,0.061,0.693,0.091,1.106,0.144
	c-0.049,0.619-0.094,1.184-0.149,1.882c-0.45-0.088-0.726-0.141-1.113-0.215C90.073,145.665,90.121,145.145,90.182,144.439z"/>
<path fill-rule="evenodd" clip-rule="evenodd" fill="#faae19" class="fill" d="M116.823,109.177c-0.9,0-1.521,0-2.598,0
	c0.926-0.649,1.514-1.061,2.291-1.605C116.637,108.208,116.71,108.579,116.823,109.177z"/>
<path fill-rule="evenodd" clip-rule="evenodd" fill="#faae19" class="fill" d="M112.915,94.154c0.16,1.604,0.16,1.604-1.281,1.706
	C112.123,95.205,112.521,94.681,112.915,94.154z"/>
<path fill-rule="evenodd" clip-rule="evenodd" fill="#faae19" class="fill" d="M88.903,156.272c-0.168,0.735-0.335,1.473-0.582,2.558
	c-0.461-1.567-0.461-1.567,0.135-2.635C88.604,156.223,88.755,156.247,88.903,156.272z"/>
<path fill-rule="evenodd" clip-rule="evenodd" fill="#faae19" class="fill" d="M89.649,151.965c-0.818-1.032-0.816-1.047,0.298-1.789
	C90.43,150.888,90.321,151.45,89.649,151.965z"/>
<path fill-rule="evenodd" clip-rule="evenodd" fill="#faae19" class="fill" d="M88.954,155.131c-0.555-0.934-0.491-1.475,0.26-2.052
	C89.711,153.853,89.497,154.371,88.954,155.131z"/>
<path fill-rule="evenodd" clip-rule="evenodd" fill="#faae19" class="fill" d="M89.92,148.992c-0.079-0.394-0.157-0.787-0.271-1.356
	c0.494,0.091,0.765,0.139,1.242,0.228c-0.233,0.474-0.407,0.83-0.583,1.186C90.179,149.03,90.05,149.01,89.92,148.992z"/>
<path fill-rule="evenodd" clip-rule="evenodd" fill="#faae19" class="fill" d="M114.799,51.622c0.31,0.208,0.544,0.365,1.014,0.682
	c-0.754,0.22-1.269,0.373-1.786,0.525c-0.044-0.084-0.09-0.167-0.135-0.25C114.183,52.271,114.477,51.962,114.799,51.622z"/>
</svg>
