<svg version="1.1" id="svg" xmlns="http://www.w3.org/2000/svg" xmlns:xlink="http://www.w3.org/1999/xlink" x="0px" y="0px"
	 width="200px" height="200px" viewBox="0 0 200 200" enable-background="new 0 0 200 200" xml:space="preserve">
<path class="stroke" fill="#58281d"  d="M152.382,79.492c0.04-0.959-0.2-1.932-0.335-2.896c-0.124-0.893-0.659-1.432-1.486-1.779
	c-1.65-0.695-3.252-1.514-4.92-2.159c-5.617-2.176-11.252-4.305-16.885-6.439c-2.842-1.077-5.69-2.139-8.543-3.189
	c-2.697-0.995-5.431-1.9-8.1-2.967c-2.823-1.127-5.561-2.475-8.391-3.581c-2.219-0.868-4.523-1.515-6.789-2.263
	c-0.774-0.255-1.559-0.485-2.318-0.78c-1.871-0.725-3.73-1.48-5.665-2.252c-0.855,0.398-1.706,0.883-2.614,1.197
	c-4.258,1.475-8.58,2.772-12.787,4.378c-6.447,2.461-12.82,5.119-19.22,7.704c-0.45,0.182-0.871,0.44-1.296,0.681
	c-1.398,0.794-2.051,1.951-2.031,3.608c0.059,5.385,0.09,10.772,0.028,16.157c-0.06,5.058-0.2,10.114-0.403,15.167
	c-0.181,4.512-0.504,9.017-0.744,13.524c-0.025,0.477,0.083,0.961,0.148,1.628c1.967,1.182,3.905,2.494,5.973,3.556
	c2.992,1.535,6.08,2.884,9.121,4.322c5.109,2.414,10.149,4.964,15.478,6.912c4.181,1.528,8.251,3.363,12.349,5.112
	c4.939,2.105,9.856,4.265,14.744,6.383c2.096-0.783,4.112-1.601,6.174-2.284c1.698-0.563,3.482-0.871,5.168-1.466
	c2.508-0.884,4.944-1.968,7.442-2.881c3.469-1.268,6.968-2.453,10.45-3.683c4.765-1.681,9.418-3.617,14.016-6.248
	c0.064-0.24,0.271-0.701,0.293-1.17c0.141-3.095,0.299-6.191,0.335-9.289c0.026-2.332-0.196-4.667-0.177-6.998
	c0.037-4.617,0.102-9.235,0.271-13.85C151.842,88.928,152.182,84.212,152.382,79.492z"/>
<path fill-rule="evenodd" clip-rule="evenodd" fill="#e3a13b" class="fill" d="M105.28,125.357c0,0.554,0,1.132,0,1.764
	c-0.851,0.198-1.814-0.949-2.51,0.284c0.622,0.918,1.618,0.998,2.587,1.171c0,0.586,0,1.103,0,1.627
	c-1.688-0.135-1.688-0.135-2.354,0.795c0.823,0.319,1.604,0.623,2.464,0.957c0,0.604,0,1.24,0,2.188
	c-0.741-0.42-1.313-0.745-1.99-1.129c-0.254,0.15-0.548,0.325-0.91,0.54c0.664,1.221,1.823,1.608,2.956,2.219
	c-0.02,0.365-0.04,0.76-0.073,1.386c-6.451-2.802-12.713-5.521-18.991-8.248c-0.189-0.427-0.36-0.812-0.532-1.196
	c-0.861,0-1.722,0-2.615,0c-0.141-0.669-0.234-1.117-0.354-1.687c-0.479,0.274-0.846,0.484-1.326,0.76
	c-0.626-0.21-1.338-0.447-2.078-0.695c-0.145-0.436-0.271-0.826-0.441-1.342c-0.497,0.203-0.923,0.378-1.438,0.59
	c-0.482-0.153-1.049-0.331-1.703-0.538c-0.073-0.564-0.147-1.139-0.22-1.709c-0.969-0.255-0.945,0.73-1.525,1.199
	c-0.691-0.258-1.432-0.534-2.253-0.84c0-0.758,0-1.445,0-2.114c-1.181-0.242-0.919,0.955-1.603,1.328
	c-0.471-0.132-1.031-0.289-1.692-0.475c0-0.83,0-1.622,0-2.434c-1.544-0.357-1.022,1.114-1.744,1.72
	c-0.628-0.229-1.36-0.496-2.093-0.763c0.064-1.019,0.119-1.904,0.182-2.866c-1.335,0.165-1.369,1.185-1.608,2.166
	c-0.36-0.148-0.632-0.262-1.033-0.428c0-0.888,0-1.781,0-2.814c-0.454,0.157-0.739,0.256-1.032,0.358
	c-0.133,0.488-0.256,0.941-0.429,1.577c-0.856-0.451-1.602-0.844-2.44-1.286c0.17-0.744,0.32-1.401,0.485-2.118
	c-1.274-0.275-1.149,0.972-1.702,1.405c-1.271-0.169-0.406-1.29-0.93-1.915c-0.432,0.213-0.895,0.441-1.524,0.751
	c-0.677-0.443-1.434-0.938-2.235-1.464c0.05-0.662,0.092-1.233,0.137-1.832c2.145,0.62,2.145,0.62,2.829-0.467
	c-1.079-0.419-2.38-0.595-2.825-2.053c0.967-0.375,2.119,0.825,2.746-0.675c-0.823-0.369-1.601-0.718-2.549-1.143
	c0.054-0.886,0.111-1.833,0.164-2.708c0.862-0.48,1.939,0.264,2.573-0.99c-0.769-0.238-1.462-0.456-2.288-0.713
	c0-0.716,0-1.499,0-2.311c0.649-0.222,1.246-0.424,1.898-0.645c-0.267-1.086-1.236-0.551-1.91-1.062
	c-0.033-0.543-0.073-1.23-0.117-1.963c0.478-0.287,0.916-0.551,1.563-0.938c-0.556-0.396-0.968-0.691-1.502-1.074
	c-0.02-0.408-0.044-0.938-0.068-1.46c0.396-0.298,0.731-0.548,1.426-1.069c-0.54-0.309-0.95-0.541-1.498-0.854
	c0.218-0.791,0.42-1.53,0.663-2.411c-0.163-0.48-0.567-1.155-0.597-1.846c-0.147-3.47-0.237-6.942-0.265-10.415
	c-0.018-2.229,0.097-4.457,0.173-6.686c0.017-0.47,0.124-0.936,0.207-1.542c0.48,0.211,0.823,0.339,1.146,0.507
	c3.469,1.805,6.934,3.618,10.401,5.425c1.204,0.626,2.444,1.189,3.622,1.864c4.688,2.686,9.848,4.323,14.687,6.672
	c1.517,0.735,3.013,1.521,4.561,2.182c4.248,1.809,8.538,3.521,12.773,5.357c2.132,0.924,4.183,2.031,6.24,3.041
	c-0.745,6.495-1.47,12.793-2.222,19.352c-0.166,0.152-0.542,0.499-1.031,0.95c0.441,0.286,0.773,0.501,1.158,0.75
	c0,0.608,0,1.252,0,2.021c-0.271,0.245-0.613,0.555-1.072,0.969c0.471,0.313,0.852,0.566,1.293,0.859
	c0.018,0.324,0.038,0.689,0.057,1.006c-0.631,0.235-1.176,0.437-1.719,0.638c0.003,0.144,0.006,0.285,0.008,0.427
	c0.567,0.231,1.135,0.463,1.87,0.763c0.041,0.479,0.089,1.034,0.13,1.509c-0.776,0.511-1.804-0.603-2.303,0.841
	C103.699,124.686,104.457,125.008,105.28,125.357z M75.752,100.83c0.281-0.915,0.652-1.659,0.725-2.43
	c0.381-4.106,0.728-8.217,1.006-12.331c0.175-2.586-0.368-3.228-2.82-3.993c-5.487-1.712-10.955-3.477-16.143-6.005
	c-0.867-0.422-1.873-0.562-3.061-0.903c0,6.345,0,12.406,0,18.633c0.631,0.303,1.328,0.735,2.087,0.981
	c1.548,0.502,3.13,0.895,4.692,1.351c2.811,0.82,5.662,1.479,8.322,2.796C72.099,99.69,73.798,100.129,75.752,100.83z
	 M90.973,103.995c-0.436,0.043-0.816,0.042-1.18,0.123c-2.376,0.534-4.762,1.034-7.118,1.65c-1.658,0.434-3.418,0.751-4.633,2.42
	c0.161,1.004,0.336,2.103,0.551,3.443c4.644-1.188,9.069-2.322,13.492-3.454C92.396,106.986,92.046,105.605,90.973,103.995z"/>
<path fill-rule="evenodd" clip-rule="evenodd" fill="#e3a13b" class="fill" d="M149.434,86.322c0,0.514,0,0.891,0,1.324
	c-0.432,0.364-0.873,0.737-1.441,1.219c0.488,0.298,0.869,0.53,1.348,0.821c-0.08,0.697-0.168,1.44-0.252,2.157
	c-0.616,0.388-1.18,0.742-1.743,1.098c0.02,0.123,0.039,0.245,0.059,0.368c0.481,0.11,0.962,0.222,1.553,0.358
	c0,0.749,0,1.538,0,2.288c-0.789,0.377-1.482,0.708-2.177,1.039c0.016,0.147,0.031,0.295,0.047,0.442
	c0.627,0.114,1.254,0.229,2.036,0.371c-0.042,0.736-0.088,1.531-0.137,2.396c-0.779,0.359-1.524,0.703-2.31,1.064
	c0.463,0.998,1.248,0.521,1.904,0.781c0,0.463,0,0.975,0,1.465c-0.599,0.949-1.975,0.026-2.594,1.115
	c0.611,0.908,1.666,0.289,2.514,0.841c-0.059,0.482-0.129,1.047-0.18,1.466c-0.758,0.826-2.089,0.12-2.664,1.487
	c0.93,0.082,1.704,0.151,2.619,0.231c0,0.6,0,1.215,0,1.888c-0.65,0.291-1.307,0.584-1.961,0.877c0.018,0.14,0.033,0.279,0.051,0.42
	c0.641,0.106,1.28,0.214,2.01,0.334c0,0.674,0,1.365,0,2.111c-0.406,0.313-0.855,0.663-1.521,1.18
	c0.676,0.196,1.102,0.321,1.669,0.486c0.033,0.531,0.072,1.109,0.105,1.633c-0.588,0.412-1.086,0.762-1.583,1.11
	c0.028,0.116,0.056,0.232,0.083,0.35c0.486,0.063,0.973,0.128,1.501,0.198c0.495,1.252-1.339,0.746-1.218,1.818
	c0.347,0.141,0.804,0.327,1.225,0.498c0.276,0.894-0.283,1.294-0.858,1.606c-1.812,0.988-3.582,2.091-5.485,2.862
	c-3.669,1.488-7.425,2.762-11.129,4.167c-1.007,0.382-1.954,0.916-2.935,1.383c-0.472-0.286-0.86-0.521-1.345-0.816
	c-0.255,0.441-0.459,0.794-0.701,1.212c-0.396,0.14-0.852,0.302-1.317,0.468c-0.398-0.24-0.782-0.472-1.288-0.777
	c-0.236,0.527-0.421,0.942-0.637,1.426c-0.465,0.149-0.978,0.313-1.575,0.505c-0.271-0.487-0.519-0.934-0.753-1.356
	c-1.256,0.137-0.516,1.158-0.932,1.811c-0.394,0.11-0.895,0.25-1.438,0.402c-0.261-0.526-0.471-0.946-0.707-1.422
	c-0.313,0.089-0.557,0.159-0.86,0.246c0.049,0.475,0.091,0.889,0.148,1.459c-0.717,0.223-1.466,0.455-2.312,0.717
	c-0.146-0.728-0.264-1.298-0.379-1.869c-0.938,0.123-0.938,0.123-1.113,2.34c-0.289,0.105-0.617,0.227-1.15,0.422
	c-0.127-0.806-0.232-1.468-0.359-2.258c-0.335,0.098-0.651,0.191-1.076,0.316c0.072,0.819,0.136,1.556,0.213,2.429
	c-0.524,0.198-1.107,0.419-1.902,0.719c-0.176-3.686-0.34-7.146-0.502-10.53c0.483-0.406,0.866-0.729,1.414-1.189
	c-0.6-0.221-0.977-0.359-1.449-0.533c-0.055-0.905-0.11-1.817-0.185-3.044c0.317-0.165,0.794-0.411,1.271-0.658
	c-0.062-0.122-0.123-0.245-0.185-0.368c-0.319-0.123-0.638-0.246-1.083-0.417c-0.051-0.623-0.104-1.303-0.152-1.89
	c0.691-0.589,1.812-0.306,1.998-1.508c-0.579-0.029-1.102-0.057-1.822-0.093c-0.072-0.74-0.147-1.511-0.219-2.241
	c0.922-0.449,1.705-0.83,2.557-1.244c-0.783-1.082-1.573-0.173-2.432-0.474c0.03-0.443,0.063-0.943,0.096-1.431
	c0.686-0.642,1.945-0.58,2.193-2.034c-0.818,0.195-1.409,0.337-2.156,0.516c0-0.721,0-1.384,0-2.009
	c0.677-0.508,1.869-0.208,2.016-1.574c-0.679,0-1.275,0-1.961,0c0-0.58,0-1.152,0-1.651c0.857-0.686,2.259-0.569,2.41-2.161
	c-0.726,0.186-1.322,0.337-2.062,0.527c0-0.603,0-1.104,0-1.611c0.89-0.482,2.012-0.485,2.697-1.419
	c-0.777-0.78-1.527,0.004-2.358-0.217c0-0.563,0-1.169,0-1.861c0.901-0.256,1.774-0.504,2.726-0.773
	c-0.473-0.979-1.373-0.565-2.119-0.84c-0.152-0.846,0.322-1.182,1.092-1.404c2.922-0.845,5.848-1.681,8.74-2.615
	c1.282-0.413,2.49-1.057,3.734-1.59c0.285-0.122,0.584-0.216,1.094-0.403c0.006,2.971,0.734,5.728,0.301,8.554
	c-0.184,1.191-0.162,2.368,0.407,3.534c1.854,0.179,1.653-1.779,2.714-2.513c0.357,0.314,0.738,0.648,1.244,1.094
	c0.493-0.351,0.959-0.683,1.436-1.022c0.482,0.299,1.012,0.625,1.643,1.016c0.357-0.704,0.596-1.174,0.812-1.604
	c0.708-0.078,1.387-0.151,2.24-0.244c0.067-0.906,0.188-1.7,0.174-2.492c-0.068-3.859-0.173-7.718-0.267-11.688
	c4.834-2.74,9.963-4.627,15.118-6.937c0.011,1.657,0.385,3.105-0.597,4.354c0.229,0.521,0.435,0.986,0.649,1.474
	c-0.411,0.44-0.734,0.787-1.371,1.468C148.711,85.979,149.037,86.134,149.434,86.322z M133.491,114.537
	c1.603,1.659,9.93,5.93,11.747,5.972c0.334-1.077,0.68-2.196,1.102-3.561c-3.24-2.127-6.927-3.308-10.148-5.227
	C134.664,112.224,134.135,113.437,133.491,114.537z"/>
<path fill-rule="evenodd" clip-rule="evenodd" fill="#e3a13b" class="fill" d="M121.627,89.422c-0.213,0.238-0.27,0.354-0.359,0.394
	c-0.691,0.312-1.389,0.609-1.924,0.841c-0.858-0.461-1.56-0.909-2.321-1.203c-0.228-0.089-0.62,0.249-1.073,0.452
	c0.606,0.453,1.058,0.791,1.694,1.267c-0.72,0.2-1.228,0.34-1.668,0.462c-1.161-0.504-2.232-0.986-3.323-1.421
	c-0.1-0.039-0.318,0.222-0.607,0.436c0.531,0.465,0.991,0.868,1.647,1.442c-0.698,0.085-1.103,0.133-1.46,0.176
	c-0.992-0.712-1.916-1.376-2.92-2.097c-0.296,0.203-0.569,0.391-0.964,0.662c0.692,0.556,1.267,1.016,1.939,1.557
	c-1.209,0.457-2.179,0.367-3.223-0.126c-5.404-2.55-10.857-4.998-16.251-7.569c-3.184-1.518-6.289-3.197-9.431-4.803
	c-2.662-1.361-5.324-2.72-7.987-4.079c-0.871-0.443-1.742-0.887-2.672-1.358c-0.028-0.341-0.057-0.691-0.098-1.194
	c-0.653,0.132-1.219,0.246-1.921,0.389c-0.49-0.17-1.099-0.383-1.8-0.628c0.111-0.406,0.2-0.729,0.363-1.32
	c-0.706,0.127-1.213,0.194-1.708,0.313c-0.572,0.137-1.077,0.145-1.417-0.508c0.37-0.343,0.735-0.683,1.185-1.101
	c-1.015-0.6-1.63,0.268-2.737,0.337c-0.211-0.085-0.738-0.299-1.65-0.667c0.9-0.558,1.488-0.922,2.185-1.352
	c-1.33-0.804-2.303-0.142-3.366,0.604c-0.313-0.176-0.666-0.373-1.301-0.729c0.91-0.527,1.606-0.929,2.422-1.4
	c-1.378-1.1-2.331,0.017-3.46,0.521c-0.425-0.21-0.893-0.442-1.674-0.829c2.041-1.139,4.063-1.511,5.911-2.291
	c1.896-0.8,3.855-1.448,5.703-2.132c3.967,1.786,7.848,3.483,11.686,5.272c4.53,2.114,8.948,4.484,13.551,6.419
	c5.072,2.133,10.021,4.495,14.849,7.108c4.495,2.433,8.904,5.026,13.349,7.555C121.07,88.979,121.312,89.193,121.627,89.422z"/>
<path fill-rule="evenodd" clip-rule="evenodd" fill="#e3a13b" class="fill" d="M148.486,77.221c-5.667,2.517-10.842,5.38-16.744,7.079
	c-2.647-1.482-5.383-3.038-8.141-4.556c-2.998-1.648-5.995-3.307-9.034-4.88c-3.377-1.749-6.791-3.429-10.207-5.101
	c-4.339-2.121-8.677-4.234-13.174-6.021c-3.785-1.502-7.477-3.239-11.205-4.882c-0.285-0.125-0.54-0.317-1.06-0.628
	c3.437-1.568,6.676-2.941,10.368-3.236c-0.462,0.435-0.924,0.867-1.369,1.284c0.263,0.622,0.62,0.667,1.077,0.399
	c0.514-0.303,1-0.677,1.551-0.882c0.504-0.187,1.078-0.189,1.621-0.274c0.037,0.113,0.074,0.227,0.112,0.339
	c-0.403,0.368-0.807,0.736-1.224,1.118c0.868,0.648,0.868,0.648,2.977-0.566c0.574,0.167,1.28,0.374,2.095,0.612
	c-0.418,0.463-0.724,0.803-1.089,1.206c1.291,1.075,2.021-0.268,3.103-0.527c0.376,0.138,0.874,0.32,1.448,0.531
	c-0.262,0.447-0.467,0.798-0.73,1.248c0.301,0.135,0.587,0.378,0.74,0.312c0.586-0.253,1.129-0.606,1.792-0.979
	c0.629,0.226,1.338,0.479,2.04,0.731c0.099,0.369,0.188,0.708,0.317,1.191c0.653-0.21,1.206-0.388,1.914-0.615
	c0.741,0.234,1.614,0.511,2.606,0.825c-0.102,0.389-0.187,0.72-0.272,1.052c0.794,0.345,0.794,0.345,2.057-0.218
	C122.82,66.604,135.683,71.275,148.486,77.221z M135.13,82.047c2.354-1.5,4.608-2.936,6.915-4.405
	c-0.234-0.389-0.297-0.646-0.453-0.729c-2.156-1.135-4.293-2.314-6.5-3.343c-2.256-1.051-4.602-1.911-6.873-2.933
	c-0.807-0.364-1.443-0.271-2.121,0.204c-1.201,0.841-2.431,1.642-3.614,2.507c-0.45,0.328-0.806,0.788-1.419,1.403
	C125.83,77.224,130.346,79.566,135.13,82.047z"/>
<path fill-rule="evenodd" clip-rule="evenodd" fill="#e3a13b" class="fill" d="M130.299,85.125c-2.459,1.274-4.662,2.417-6.834,3.544
	c-4.02-2.251-7.934-4.494-11.896-6.644c-3.102-1.685-6.259-3.267-9.402-4.87c-1.886-0.962-3.771-1.932-5.698-2.805
	c-4.896-2.222-9.905-4.212-14.691-6.643c-3.349-1.7-6.819-3.079-10.205-4.667c-0.626-0.293-1.205-0.689-2.012-1.157
	c2.486-1.466,5.104-1.991,7.122-2.933c6.456,2.79,12.604,5.406,18.714,8.104c2.782,1.229,5.505,2.6,8.239,3.938
	c3.808,1.865,7.627,3.71,11.391,5.66c2.751,1.424,5.42,3.005,8.128,4.512c1.805,1.003,3.616,1.997,5.423,2.997
	C129.09,84.446,129.601,84.733,130.299,85.125z"/>
<path fill-rule="evenodd" clip-rule="evenodd" fill="#e3a13b" class="fill" d="M125.65,100.044c-0.123-3.39-0.243-6.685-0.364-10.037
	c2.546-1.229,5.012-2.42,7.77-3.751c0.146,4.066,0.277,7.779,0.406,11.388c-0.782,0.254-1.451,0.471-2.119,0.688
	c0.013,0.053,0.025,0.105,0.039,0.158c-0.425-0.032-0.851-0.066-1.288-0.101c-0.38,0.347-0.738,0.673-1.21,1.104
	c-0.365-0.551-0.706-1.064-1.069-1.613C126.359,97.883,126.707,99.646,125.65,100.044z"/>
<path fill-rule="evenodd" clip-rule="evenodd" fill="#e3a13b" class="fill" d="M63.495,95.325c-2.475-0.677-4.765-1.066-6.835-2.335
	c0-5.351,0-10.639,0-16.029c6.568,2.334,12.965,4.605,19.309,6.859c0.46,1.702-0.376,13.589-1.085,15.327
	c-1.4-0.441-2.903-0.619-4.296-1.716c1.879-0.995,2.521-2.43,1.691-4.502c0.879,0.23,1.532,0.403,2.285,0.604
	c0.118-0.336,0.215-0.607,0.379-1.067c-5.46-1.918-10.82-3.782-16.417-4.872c-0.377-0.074-0.791,0.042-1.476,0.091
	c1.086,1.241,2.344,1.086,3.426,1.392c1.14,0.321,2.271,0.671,3.541,1.048C63.846,91.84,63.685,93.441,63.495,95.325z
	 M57.611,81.636c-0.036,0.137-0.072,0.274-0.109,0.411c0.344,0.229,0.659,0.532,1.035,0.677c1.468,0.563,2.92,1.221,4.44,1.576
	c2.609,0.61,5.077,1.538,7.497,2.665c1.172,0.547,2.424,0.925,3.656,1.331c0.457,0.151,0.985,0.233,1.256-0.565
	c-5.322-2.75-11.277-3.827-16.754-6.174C58.355,81.438,57.955,81.603,57.611,81.636z M64.487,86.836
	c0.587,0.277,1.062,0.544,1.564,0.732c2.523,0.938,5.276,1.103,7.736,2.284c0.237,0.113,0.637-0.112,1.259-0.245
	c-0.529-0.438-0.77-0.776-1.085-0.872c-1.598-0.489-3.214-0.919-4.826-1.361c-1.752-0.482-3.507-0.957-5.524-1.507
	c-0.156,0.117-0.535,0.402-0.912,0.688c0.051,0.094,0.102,0.188,0.152,0.281C63.43,86.836,64.009,86.836,64.487,86.836z
	 M60.034,92.435c1.224,1.03,1.224,1.03,2.108,0.168c-0.364-0.441-0.73-0.885-1.123-1.362c-0.387-0.021-0.791-0.041-1.16-0.06
	c-0.112-0.339-0.193-0.581-0.23-0.698c-0.759-0.138-1.371-0.25-2.086-0.381c-0.362,0.788-0.962,1.604,0.019,2.534
	C58.373,92.57,59.171,92.505,60.034,92.435z M58.371,79.457c-0.541,1.479,0.829,1.309,1.316,1.707
	c0.654,0.535,1.631,0.586,2.738-0.005C61.158,79.989,59.819,79.619,58.371,79.457z M58.474,84.291
	c-0.068,0.725-0.122,1.295-0.194,2.052c1.271-0.293,2.29,0.822,3.618-0.176C60.74,85.533,59.733,84.981,58.474,84.291z
	 M71.353,83.733c-1.055-1.343-2.53-0.909-3.503-1.613c-0.145-0.104-0.533,0.132-1.093,0.293c0.754,0.509,1.269,0.856,1.674,1.129
	C69.404,83.605,70.223,83.659,71.353,83.733z M64.561,82.229c0.499-0.335,1.395-0.136,1.426-1.223
	c-0.636-0.145-1.239-0.281-1.958-0.443c-0.29,0.256-0.614,0.542-1.036,0.914C63.621,81.778,64.047,81.981,64.561,82.229z
	 M73.432,96.84c0.071,0.157,0.143,0.314,0.214,0.472c0.256-0.144,0.513-0.285,0.769-0.428c-0.051-0.11-0.101-0.222-0.151-0.331
	C73.986,96.648,73.709,96.744,73.432,96.84z"/>
<path fill-rule="evenodd" clip-rule="evenodd" fill="#e3a13b" class="fill" d="M66.797,96.18c-0.674-0.179-1.232-0.327-1.781-0.472
	c0-0.893,0-1.681,0-2.712c0.688,0.209,1.213,0.369,1.656,0.504C66.715,94.408,66.75,95.188,66.797,96.18z"/>
<path fill-rule="evenodd" clip-rule="evenodd" fill="#e3a13b" class="fill" d="M65.416,90.576c0.428,0.116,0.684,0.182,0.937,0.257
	s0.503,0.162,0.829,0.268c-0.072,0.42-0.141,0.812-0.225,1.297c-0.572-0.1-1.125-0.194-1.869-0.322
	C65.201,91.56,65.305,91.091,65.416,90.576z"/>
<path fill-rule="evenodd" clip-rule="evenodd" fill="#e3a13b" class="fill" d="M70.439,96.438c-1.433-0.288-2.26-0.774-2.517-2.011
	C68.939,94.374,69.24,94.604,70.439,96.438z"/>
<path fill-rule="evenodd" clip-rule="evenodd" fill="#e3a13b" class="fill" d="M71.25,93.552c0.117,0.581,0.221,1.097,0.361,1.797
	c-1.204-0.226-1.387-1.003-1.842-1.797C70.336,93.552,70.725,93.552,71.25,93.552z"/>
<path fill-rule="evenodd" clip-rule="evenodd" fill="#e3a13b" class="fill" d="M70.006,91.921c-0.533,0.263-1.096,0.675-1.592-0.413
	C69.107,91.688,69.557,91.805,70.006,91.921z"/>
<path fill-rule="evenodd" clip-rule="evenodd" fill="#e3a13b" class="fill" d="M79.605,110.188c-0.148-0.637-0.267-1.147-0.43-1.848
	c1.159-0.486,2.251-1.109,3.425-1.405c2.455-0.617,4.952-1.063,7.657-1.626c0.19,0.49,0.431,1.106,0.715,1.836
	C87.128,108.174,83.422,109.166,79.605,110.188z"/>
<path fill-rule="evenodd" clip-rule="evenodd" fill="#e3a13b" class="fill" d="M144.349,119.021c-1.718-0.379-7.666-3.547-9.213-4.863
	c0.181-0.301,0.368-0.611,0.657-1.091c3.014,1.505,6.117,2.718,9.116,4.368C144.689,118.057,144.533,118.495,144.349,119.021z"/>
<path fill-rule="evenodd" clip-rule="evenodd" fill="#e3a13b" class="fill" d="M132.182,73.711c1.363,0.559,2.549,1.044,3.818,1.563
	c-1.157,1.807-3.321,1.883-4.714,3.392c-1.134-0.578-2.256-1.152-3.645-1.862C129.312,75.666,130.714,74.711,132.182,73.711z"/>
<path fill-rule="evenodd" clip-rule="evenodd" fill="#e3a13b" class="fill" d="M126.748,76.271c-1.15-0.642-2.309-1.288-3.7-2.065
	c1.366-1.029,2.544-1.917,3.883-2.924c1.218,0.594,2.499,1.219,4.089,1.995C129.463,74.368,128.139,75.297,126.748,76.271z"/>
<path fill-rule="evenodd" clip-rule="evenodd" fill="#e3a13b" class="fill" d="M135.265,80.598c-0.956-0.508-1.848-0.982-2.877-1.528
	c1.664-1.056,3.152-1.999,4.729-2.999c0.88,0.421,1.746,0.835,2.896,1.385C138.449,78.695,137.035,79.702,135.265,80.598z"/>
</svg>
