<svg version="1.1" id="svg" xmlns="http://www.w3.org/2000/svg" xmlns:xlink="http://www.w3.org/1999/xlink" x="0px" y="0px"
	 width="200px" height="200px" viewBox="0 0 200 200" enable-background="new 0 0 200 200" xml:space="preserve">
<path class="stroke" fill="#58281d"  d="M139.934,97.731c-0.592-0.347-1.167-0.772-1.63-1.272c-1.71-1.853-3.591-3.475-5.765-4.776
	c-3.76-2.252-7.648-4.219-11.842-5.524c-3.18-0.989-6.399-1.247-9.574-0.047c-1.688,0.638-3.312,1.45-4.93,2.26
	c-1.16,0.581-2.329,1.153-3.639,1.061c-2.071-0.144-4.125-0.355-6.068-1.26c-4.219-1.964-8.617-3.203-13.323-2.439
	c-3.152,0.512-6.254,1.214-9.042,2.953c-2.479,1.547-4.467,3.593-6.408,5.719c-1.903,2.084-2.627,4.583-2.678,7.333
	c-0.017,0.852-0.004,1.704-0.004,2.443c0.634,1.089,1.04,2.191,1.776,2.988c4.185,4.528,8.635,8.688,14.685,10.717
	c3.311,1.111,6.667,1.447,10.065,0.969c1.659-0.233,3.259-0.968,4.854-1.561c1.247-0.463,2.428-1.102,3.67-1.583
	c3.212-1.245,6.396-1.504,9.57,0.226c1.114,0.607,2.323,1.091,3.546,1.437c4.25,1.203,8.524,1.5,12.686-0.313
	c2.879-1.255,5.745-2.569,8.506-4.063c4.555-2.466,6.582-6.655,7.257-11.577C141.848,99.95,141.377,98.577,139.934,97.731z"/>
<path fill-rule="evenodd" clip-rule="evenodd" fill="#e3a13b" class="fill" d="M88.652,110.4c-1.675,0.333-3.239,0.643-4.82,0.957
	c0.355,0.995,0.649,1.819,1.027,2.883c-0.855-0.056-1.457-0.097-2.117-0.14c-0.131-1.099-0.244-2.062-0.369-3.116
	c-2.166-0.098-4.08-0.188-5.92,1.158c-0.717-0.561-1.548-1.206-2.471-1.925c0.359-0.428,0.651-0.773,0.991-1.177
	c-0.303-1.238-0.608-2.492-0.949-3.89c-1.442,0.433-2.692,0.807-4.052,1.214c-2.369-1.662-2.976-3.84-1.905-7.685
	c0.199,0.572,0.344,0.984,0.52,1.487c1.953,0.677,2.482-1.549,3.948-1.799c0.047-0.727,0.086-1.35,0.126-1.946
	c-1.036-0.547-1.036-0.547-4.077,1.023c-0.246-1.045,0.482-1.674,0.938-2.533c1.424,0.769,2.584,0.117,3.787-0.598
	c0.3-1.16,0.602-2.332,0.903-3.504c0.118,0.01,0.237,0.02,0.355,0.03c0.107,0.533,0.214,1.066,0.353,1.771
	c1.542,0.353,2.902-0.504,4.382-0.697c0.295-1.076,0.56-2.043,0.846-3.089c2.98-0.973,5.94-1.53,9.108-0.632
	c-0.354,1.027-0.66,1.912-1.049,3.04c2.086,0.488,4.013,0.938,5.957,1.393c0.423-0.774,0.771-1.409,1.182-2.158
	c0.725,0.362,1.33,0.664,2.008,1.002c-0.071,0.543-0.138,1.045-0.214,1.611c1.964,1.13,3.89,1.831,6.017,0.222
	c0.111-0.381,0.242-0.833,0.299-1.032c2.459-0.981,4.698-1.973,7.004-2.767c2.558-0.88,5.104-1.917,7.915-1.648
	c1.447,0.139,2.812,0.52,4.1,1.241c0.148,1.017,0.294,2.003,0.445,3.041c1.964,0.668,3.761-0.369,5.65-0.322
	c0.871,0.498,1.743,0.997,2.539,1.453c0.181,1.105,0.341,2.086,0.523,3.199c1.279,0,2.428,0,3.704,0
	c0.638,0.711,1.287,1.438,1.937,2.165c-0.062,0.09-0.125,0.18-0.189,0.27c-0.899-0.204-1.798-0.408-2.836-0.643
	c-0.439,0.275-0.977,0.611-1.646,1.03c0.134,1.902,0.271,3.854,0.414,5.89c1.305,0.959,2.806-0.65,4.24,0.34
	c-0.156,0.365-0.329,0.769-0.514,1.198c-1.329,0.075-2.575,0.146-3.936,0.223c-0.27,1.083-0.496,1.994-0.794,3.189
	c-0.239,0.13-0.715,0.391-1.258,0.687c-0.462-1.227,0.493-1.952,0.6-2.899c-0.628-0.713-1.467-0.843-2.312-0.804
	c-0.848,0.04-1.722,0.112-2.522,0.365c-0.499,0.158-1.076,0.59-1.279,1.049c-0.374,0.847-0.501,1.805-0.713,2.643
	c1.131,1.044,2.351-0.097,3.344,0.54c-2.862,1.7-9.745,1.393-13.114-0.474c0.065-0.61,0.144-1.234,0.19-1.861
	c0.01-0.144-0.089-0.295-0.205-0.643c-3.35-0.224-6.749-0.714-9.947,1.198c-0.293-0.428-0.521-0.763-0.766-1.119
	c-1.846-0.162-3.461,0.499-5.154,1.04c0,0.568,0,1.025,0,1.562c-0.518,0.197-1.002,0.381-1.605,0.61
	c-0.443-0.783-0.853-1.504-1.341-2.363c-1.014,0.236-2.034,0.439-3.035,0.717c-0.918,0.256-2.038-0.646-2.849,0.538
	c0.234,0.726,0.473,1.47,0.754,2.343c-0.481,0.135-0.854,0.239-1.173,0.329C88.904,112.74,88.904,112.74,88.652,110.4z
	 M116.906,106.042c2.367,0.351,4.526,0.95,6.945,0.574c-0.24-1.935-0.464-3.74-0.708-5.713c-2.039-0.059-4.068-0.044-5.966,0.625
	C116.273,103.055,116.49,104.488,116.906,106.042z M125.76,100.628c-0.644,2.611-0.662,3.42-0.079,5.139c1.861,0,3.758,0,5.592,0
	c0.651-2.41,0.234-5.41-0.844-6.554C128.996,99.959,127.152,99.33,125.76,100.628z M108.118,101.872
	c2.838,0.047,4.726-1.822,7.214-2.564c-0.955-1.329-1.798-2.503-2.497-3.477c-1.298,0.311-2.352,0.727-3.422,0.775
	c-1.157,0.053-2.044,0.386-2.745,1.265c0,1.131,0,2.234,0,3.283c0.168,0.115,0.248,0.189,0.343,0.233
	C107.443,101.582,107.881,101.768,108.118,101.872z M105.458,104.511c0.077,0.417,0.149,0.832,0.233,1.243
	c0.318,1.568,0.753,1.792,2.318,1.473c1.24-0.252,2.511-0.387,3.774-0.493c0.884-0.074,1.78-0.014,2.895-0.014
	c0.128-1.679,0.241-3.164,0.354-4.651c-1.115-0.731-1.307,0.462-2.076,1.064c-1.098,0.062-2.429,0.043-3.727,0.239
	C107.952,103.564,106.549,103.473,105.458,104.511z M115.625,94.619c-0.664,2.995,1.397,5.309,4.079,4.99
	c0.719-0.086,1.456-0.013,2.296-0.013c0.319-0.279,0.699-0.612,0.955-0.834c-0.698-1.641-1.327-3.111-2.035-4.772
	C119.237,94.189,117.434,94.404,115.625,94.619z M93.977,103.802c-1.981,0.385-4.107,0.004-5.91,1.39
	c0.701,1.126,1.316,2.117,1.936,3.105c0.359,0.574,0.846,1.036,1.555,0.946c1.463-0.185,2.915-0.453,4.616-0.726
	C95.699,106.77,95.516,105.15,93.977,103.802z M104.276,98.796c-2.239-0.239-4.417-0.493-6.6-0.685
	c-0.493-0.044-1.007,0.127-1.431,0.188c-0.49,1.659-0.476,1.908,0.239,3.741c2.556,0.392,5.083-0.498,7.791-0.586
	C104.276,100.474,104.276,99.71,104.276,98.796z M112.596,94.19c0.418,0.039,0.754,0.169,1.018,0.08
	c1.797-0.618,3.582-1.271,5.362-1.938c0.473-0.177,0.915-0.442,1.412-0.688c-0.22-0.904-0.401-1.66-0.614-2.545
	c-2.757,0.11-5.404,0.285-7.861,1.951C112.146,92.122,112.367,93.138,112.596,94.19z M88.458,108.778
	c-0.347-2.173-1.134-3.826-2.195-5.51c-1.493,0.289-3.158-0.059-4.26,1.215c0.626,1.579,1.185,2.99,1.829,4.615
	C85.199,109.274,86.719,108.901,88.458,108.778z M122.116,112.34c1.173-2.877,1.173-2.877,0.976-3.938
	c-1.605-0.458-3.193-1.171-4.94-0.8c-0.484,0.103-1.106,0.318-1.339,0.687c-0.521,0.827-1.048,1.733-0.706,3.024
	C118.076,111.65,120.079,111.992,122.116,112.34z M97.484,104.217c-0.343,1.612,0.06,2.893,0.593,4.243
	c1.929,0.385,3.645-0.598,5.503-0.485c0-1.463,0-2.747,0-4.171C101.436,103.949,99.475,104.082,97.484,104.217z M79.877,98.661
	c-2.685-0.599-4.662,0.358-6.462,1.851c0.407,1.535,0.922,2.163,2.408,2.966c1.406-0.37,2.873-0.756,4.515-1.188
	C80.188,101.105,80.035,99.918,79.877,98.661z M89.07,102.041c1.743,0,3.287,0,4.951,0c-0.027-1.466,0.59-2.738-0.036-4.14
	c-1.642-0.212-3.253-0.825-4.915-0.126C89.07,99.233,89.07,100.54,89.07,102.041z M82.209,108.921
	c-1.102-1.709-1.389-3.527-2.42-4.956c-1.646,0.292-3.076,0.546-4.507,0.8c0.696,1.448,1.304,2.709,1.999,4.156
	C78.653,108.921,80.21,108.921,82.209,108.921z M128.853,94.218c-1.633,0.086-3.214,0.17-5.074,0.269
	c0.365,1.418,0.662,2.567,0.968,3.75c2.105,0.492,3.938,0.243,5.877-0.443C129.982,96.498,129.445,95.413,128.853,94.218z
	 M86.907,101.178c-0.039-2.016-0.149-2.539-0.81-3.74c-1.281,0.79-2.986-0.323-4.401,1.095c0.098,0.998,0.204,2.071,0.318,3.235
	C83.837,102.041,85.396,102.063,86.907,101.178z M111.164,95.154c-0.178-1.13-0.033-2.277-1.164-3.153
	c-0.541,0.321-1.067,0.634-1.592,0.947c-0.681,0.052-1.357,0.104-2.25,0.173c-0.178,0.994-0.348,1.948-0.511,2.87
	C106.838,96.405,109.233,96.023,111.164,95.154z M103.329,95.281c-0.313-0.087-0.493-0.206-0.61-0.16
	c-1.167,0.456-2.259,0.142-3.414-0.14c-0.863-0.21-1.829-0.665-2.827,0.027c0.058,0.548,0.115,1.099,0.173,1.654
	c2.31,0.735,4.509,1.129,6.921,0.601C103.487,96.577,103.411,95.962,103.329,95.281z M73.865,97.878
	c2.013-0.214,3.404-1.015,4.923-1.661c-0.043-0.711-0.08-1.333-0.12-2.005c-1.58-0.468-2.951-0.192-4.399,0.851
	C74.163,95.797,74.04,96.656,73.865,97.878z M80.77,93.903c0.173,0.55,0.325,1.039,0.46,1.476c1.461,0.276,3.281,0.13,5.138-0.399
	c0-0.434,0-0.89,0-1.306C84.902,92.36,82.686,92.428,80.77,93.903z M86.409,88.497c-1.613-0.069-3.131-0.138-4.555,0.774
	c-0.22,0.661-0.45,1.349-0.741,2.22c2.061,0.689,3.609-0.49,5.296-0.873C86.409,89.795,86.409,89.181,86.409,88.497z M88.387,95.714
	c1.922,0.158,3.674,0.302,5.574,0.458c0.084-0.659,0.154-1.202,0.234-1.826c-1.854-0.641-3.594-1.081-5.449-0.994
	c-0.117,0.39-0.227,0.634-0.26,0.889C88.432,94.651,88.428,95.069,88.387,95.714z M72.557,101.102
	c-1.823-0.011-2.384,0.244-3.424,1.485c0.063,0.84,0.527,1.329,1.463,1.533c0.75-0.35,1.833-0.147,2.498-1.286
	C72.946,102.358,72.763,101.771,72.557,101.102z"/>
</svg>
