<svg version="1.1" id="svg" xmlns="http://www.w3.org/2000/svg" xmlns:xlink="http://www.w3.org/1999/xlink" x="0px" y="0px"
	 width="200px" height="200px" viewBox="0 0 200 200" enable-background="new 0 0 200 200" xml:space="preserve">
<path class="stroke" fill="#58281d"  fill-rule="evenodd" clip-rule="evenodd" d="M129.274,32.819c6.791,1.457,13.271,2.846,19.689,4.222
	c1.367,1.026,1.471,2.507,1.566,3.93c0.208,3.077,0.315,6.16,0.473,9.24c0.08,1.572,0.061,3.163,0.315,4.708
	c0.148,0.899,0.631,1.809,1.171,2.565c1.311,1.833,2.742,3.58,4.105,5.335c1.315,0.419,2.533,0.89,3.792,1.194
	c4.96,1.201,7.339,4.606,7.763,9.416c0.238,2.702-0.053,5.45-0.105,8.177c-0.137,0.018-0.273,0.035-0.411,0.053
	c0.296,0.532,0.611,1.053,0.882,1.597c1.562,3.141,1.816,6.327-0.011,9.423c-1.146,1.941-2.499,3.762-3.799,5.608
	c-1.288,1.828-2.052,3.813-2.177,6.257c1.232,0.484,2.398,0.942,3.633,1.427c-0.118,0.751-0.223,1.407-0.361,2.291
	c0.917,0.339,1.84,0.68,2.818,1.042c0,2.217,0,4.459,0,7.006c-1.433,0.933-3.07,2-5.056,3.292c-1.571-0.394-3.429-0.801-5.251-1.33
	c-4.134-1.199-8.25-2.459-11.916-3.557c-7.393,4.117-14.363,8-21.543,11.999c0.665,0.699,1.106,1.162,1.548,1.626
	c0.762,3.323-0.614,5.209-3.97,5.321c-1.211,0.041-2.429-0.121-3.76-0.197c-0.02,0.263-0.109,0.532-0.047,0.758
	c0.537,1.94-0.254,3.346-1.803,4.397c-1.65,1.12-3.953,1.145-5.382-0.073c-0.862-0.735-1.476-1.761-2.222-2.638
	c-0.242-0.285-0.548-0.514-0.824-0.769c-0.123,0.088-0.244,0.176-0.367,0.265c0.119,0.423,0.23,0.847,0.355,1.268
	c1.081,3.636-0.43,7.037-5.055,7.144c-2.132,0.049-3.011-1.058-2.588-3.112c0.064-0.314,0.124-0.629,0.282-1.441
	c-3.862,2.009-6.685,4.844-10.132,6.686c-3.439,1.837-6.855,3.717-10.336,5.607c-0.515,2.639-1.036,5.313-1.602,8.211
	c1.984,1.673,4.477,2.619,7.158,4.139c0.143,0.698,0.388,1.734,0.561,2.782c0.179,1.076,0.287,2.163,0.443,3.383
	c-0.97,1.328-2.51,1.928-3.963,2.648c-1.404,0.695-2.848,1.318-4.216,2.079c-0.971,0.54-1.831,0.337-2.745-0.04
	c-2.912-1.201-5.812-2.435-8.747-3.577c-4.784-1.862-9.634-3.564-14.381-5.517c-4.431-1.821-8.767-3.873-13.136-5.841
	c-0.615-0.278-1.186-0.657-1.658-0.923c-0.811-2.293-0.508-4.422-0.354-6.618c0.383-5.46,0.545-10.941,0.628-16.417
	c0.103-6.78,0.073-13.562,0.028-20.343c-0.025-3.905-0.23-7.81-0.288-11.715c-0.112-7.604-0.209-15.21-0.236-22.815
	c-0.006-1.702,0.337-3.402,0.451-5.107c0.142-2.117,0.186-4.239,0.325-6.356c0.061-0.931,0.254-1.854,0.369-2.662
	C68.938,54.18,98.841,42.613,129.274,32.819z M154.798,104.845c0.154-0.938,0.186-1.626,0.386-2.26
	c0.695-2.208,1.339-4.442,2.212-6.581c0.869-2.127,1.255-4.318,1.41-6.57c0.068-1.005-0.023-2.018-0.898-2.876
	c-1.119,0.606-2.195,1.182-3.264,1.771c-1.132,0.624-2.257,1.262-3.299,1.846c-0.958,2.13-0.946,11.082-0.001,13.862
	C152.413,104.288,153.532,104.549,154.798,104.845z"/>
<path fill-rule="evenodd" clip-rule="evenodd" fill="#e3a13b" class="fill" d="M42.368,69.523c5.262,1.738,10.12,3.343,14.88,4.915
	c0,3.886,0,7.746,0,12.336c0.804,1.665-0.082,4.153,0.057,6.594c0.128,2.247,0.027,4.506,0.027,6.631
	c1.587,1.757,3.491,2.562,5.359,3.375c2.233,0.972,4.561,1.73,6.783,2.724c3.297,1.473,5.405,3.95,5.748,7.65
	c0.227,2.434,0.309,4.881,0.477,7.674c-2.602-0.768-4.705-1.82-6.799-2.897c-2.921-1.503-5.828-3.035-8.771-4.495
	c-0.609-0.302-1.35-0.342-2.334-0.576c0.086,1.43,0.217,2.495,0.201,3.557c-0.064,4.519-0.191,9.036-0.26,13.554
	c-0.072,4.79-0.093,9.579-0.157,14.369c-0.05,3.697-0.145,7.394-0.191,11.091c-0.009,0.742,0.106,1.486,0.176,2.368
	c5.841,3.409,12.476,4.892,18.737,7.973c0.127,1.875,0.266,3.893,0.42,6.155c-0.758-0.128-1.295-0.124-1.754-0.31
	c-5.389-2.191-10.814-4.3-16.132-6.654c-4.812-2.13-9.504-4.53-14.241-6.828c-0.55-0.267-1.05-0.637-1.709-1.043
	c-0.112-1.781-0.273-3.612-0.334-5.446c-0.13-3.969-0.204-7.939-0.308-11.909c-0.153-5.889-0.323-11.777-0.463-17.667
	c-0.034-1.431,0.089-2.868,0.025-4.296c-0.541-12.268,0.94-24.49,0.816-36.747c-0.032-3.287-0.17-6.573-0.253-9.859
	C42.354,71.091,42.368,70.417,42.368,69.523z"/>
<path fill-rule="evenodd" clip-rule="evenodd" fill="#e3a13b" class="fill" d="M133.385,37.391c0.429,0.138,0.933,0.301,1.896,0.611
	c-2.472,1.447-4.606,2.696-6.808,3.985c0.248,0.413,0.414,0.691,0.695,1.159c1.517-0.773,2.927-1.588,4.414-2.223
	c1.424-0.608,2.4-2.275,4.719-1.953c-0.628,0.547-0.912,0.877-1.266,1.091C127.5,45.826,117.225,49.998,106.874,54
	c-6.384,2.468-12.764,4.958-19.217,7.232c-5.548,1.954-11.195,3.627-16.805,5.4c-3,0.948-6.014,1.846-9.023,2.761
	c-0.261,0.08-0.537,0.167-0.803,0.16c-3.434-0.096-6.713-0.891-10.283-2.101c0.672-0.479,1-0.802,1.394-0.979
	c3.496-1.573,7.044-3.039,10.501-4.694c6.248-2.991,12.706-5.444,19.203-7.819c8.161-2.984,16.297-6.038,24.451-9.045
	c7.188-2.65,14.379-5.287,21.58-7.899c0.867-0.315,1.805-0.438,3.012-0.72c-0.815,2.217-3.856,2.106-3.951,5.011
	C129.431,40.151,131.232,38.586,133.385,37.391z"/>
<path fill-rule="evenodd" clip-rule="evenodd" fill="#e3a13b" class="fill" d="M64.585,99.302c-1.166-1.91-1.507-4.055-2.207-6.183
	c0.674-0.334,1.198-0.638,1.754-0.863c6.025-2.433,12.073-4.81,18.077-7.294c3.54-1.465,6.984-3.162,10.521-4.633
	c4.549-1.892,9.146-3.667,13.728-5.483c2.35-0.932,4.709-1.84,7.062-2.763c4.395-1.723,8.846-3.317,13.168-5.207
	c5.577-2.438,11.046-5.123,16.571-7.68c1.665-0.771,3.363-1.471,5.177-2.26c1.566,2.068,3.035,4.008,4.598,6.072
	c-1.915,1.483-4.166,2.297-6.39,3.049c-15,5.073-29.561,11.191-43.872,17.959c-5.992,2.833-12.232,5.144-18.366,7.676
	c-4.111,1.698-8.229,3.38-12.354,5.046c-2.029,0.819-4.077,1.596-6.127,2.362C65.562,99.237,65.142,99.224,64.585,99.302z"/>
<path fill-rule="evenodd" clip-rule="evenodd" fill="#e3a13b" class="fill" d="M148.189,41.144c-0.529,1.91-3.212,1.768-2.293,4.035
	c0.857-0.409,1.661-0.792,2.745-1.31c-0.336,1.654-1.546,1.88-2.443,2.561c0.045,0.35,0.093,0.719,0.165,1.281
	c0.81-0.236,1.479-0.432,2.356-0.688c-0.701,0.878-1.267,1.588-1.967,2.465c-1.188-1.049-2.523-0.566-3.852,0.086
	c-2.028,0.996-4.012,2.1-6.094,2.969c-4.164,1.738-8.377,3.361-12.58,5.005c-1.784,0.697-3.59,1.341-5.395,1.984
	c-2.445,0.871-4.941,1.616-7.34,2.599c-4.366,1.788-8.68,3.705-13.009,5.581c-1.569,0.68-3.113,1.42-4.686,2.094
	c-5.474,2.343-10.938,4.707-16.438,6.989c-4.735,1.966-9.51,3.84-14.276,5.733c-0.744,0.295-1.533,0.477-2.6,0.803
	c-0.14-3.208-0.48-6.148-0.192-9.271c1.772-0.718,3.448-1.476,5.178-2.081c3.55-1.242,7.122-2.422,10.699-3.587
	c1.428-0.465,2.875-0.892,4.34-1.219c6.251-1.397,11.986-4.25,17.994-6.332c2.196-0.761,4.392-1.533,6.555-2.384
	c1.396-0.549,2.709-1.312,4.103-1.872c4.883-1.96,9.795-3.847,14.675-5.813c4.316-1.739,8.604-3.549,12.904-5.324
	c3.036-1.253,6.068-2.516,9.118-3.734C146.494,41.461,147.2,41.38,148.189,41.144z"/>
<path fill-rule="evenodd" clip-rule="evenodd" fill="#e3a13b" class="fill" d="M62.042,91.523c-0.994-1.702-1.874-3.279-1.53-5.454
	c5.696-2.365,11.427-4.763,17.171-7.124c4.234-1.74,8.487-3.435,12.732-5.146c6.789-2.737,13.561-5.517,20.373-8.195
	c8.022-3.155,16.07-6.246,24.128-9.312c2.941-1.119,5.938-2.095,8.915-3.114c0.57-0.195,1.175-0.293,1.844-0.455
	c0.472,0.91,0.896,1.73,1.378,2.661c-1.707,0.888-3.302,1.793-4.957,2.567c-6.131,2.864-12.218,5.837-18.444,8.481
	c-6.853,2.909-13.765,5.716-20.79,8.167c-6.55,2.285-12.667,5.497-19.046,8.132c-3.351,1.384-6.76,2.626-10.12,3.985
	c-3.233,1.308-6.437,2.687-9.655,4.028C63.419,91.003,62.787,91.234,62.042,91.523z"/>
<path fill-rule="evenodd" clip-rule="evenodd" fill="#e3a13b" class="fill" d="M79.453,120.661c-0.101-2.305-0.189-4.33-0.288-6.581
	c1.603-0.659,3.234-1.318,4.856-1.999c5.17-2.168,10.339-4.336,15.503-6.519c3.592-1.519,7.181-3.047,10.758-4.599
	c5.636-2.444,11.253-4.928,16.892-7.364c7.477-3.229,14.974-6.41,22.447-9.647c4.011-1.737,7.988-3.553,11.987-5.318
	c0.489-0.216,1.021-0.333,1.763-0.57c0,1.268,0,2.369,0,3.593c-0.214,0.148-0.474,0.367-0.766,0.522
	c-5.501,2.916-10.953,5.932-16.526,8.704c-5.329,2.65-10.742,5.144-16.196,7.526c-7.268,3.174-14.423,6.604-21.864,9.39
	c-5.314,1.989-10.554,4.201-15.733,6.521c-3.616,1.62-7.071,3.597-10.607,5.396C81.028,120.047,80.334,120.29,79.453,120.661z"/>
<path fill-rule="evenodd" clip-rule="evenodd" fill="#e3a13b" class="fill" d="M73,158.048c0.623-2.504,1.294-4.997,1.856-7.514
	c0.635-2.834,0.566-5.699,0.281-8.582c-0.331-3.335-0.528-6.684-0.746-10.029c-0.047-0.735,0.062-1.479,0.106-2.34
	c1.961,0.267,3.271,1.28,4.644,2.756c-0.105,2.197-0.224,4.58-0.334,6.962c-0.146,3.205-0.196,6.417-0.469,9.611
	c-0.15,1.761-0.436,3.583-1.082,5.209c-0.746,1.876-2.301,3.208-3.987,4.272C73.18,158.278,73.09,158.163,73,158.048z"/>
<path fill-rule="evenodd" clip-rule="evenodd" fill="#e3a13b" class="fill" d="M69.653,127.933c1.266,0.521,2.061,0.847,2.937,1.207
	c0,1.253-0.073,2.411,0.015,3.557c0.26,3.402,0.522,6.807,0.896,10.198c0.514,4.667-0.442,9.104-1.913,13.476
	c-0.06,0.176-0.248,0.308-0.361,0.443c-0.169-0.014-0.334,0.022-0.419-0.044c-0.371-0.289-0.72-0.607-1.079-0.917
	c0.046-0.254,0.048-0.463,0.122-0.642c2.111-5.048,2.328-10.17,0.866-15.446c-0.689-2.49-1.128-5.067-1.452-7.634
	C69.108,130.899,69.479,129.601,69.653,127.933z"/>
<path fill-rule="evenodd" clip-rule="evenodd" fill="#e3a13b" class="fill" d="M162.468,114.406c0,0.992,0,2.051,0,3.323
	c-3.211-0.23-5.876-2.102-8.908-2.72c-2.998-0.611-5.944-1.479-9.005-2.258c-0.143-1.175-0.27-2.224-0.397-3.282
	C146.952,109.281,156.916,111.986,162.468,114.406z"/>
<path fill-rule="evenodd" clip-rule="evenodd" fill="#e3a13b" class="fill" d="M104.212,97.768c-2.682-2.024-5.179-3.909-7.918-5.978
	c0.613-0.441,1.05-0.753,1.472-1.056c3.139,1.98,6.124,3.863,9.277,5.852C106.106,96.977,105.254,97.333,104.212,97.768z"/>
<path fill-rule="evenodd" clip-rule="evenodd" fill="#e3a13b" class="fill" d="M90.535,103.712c-3.41-0.789-4.579-4.217-7.581-5.594
	c0.479-0.391,0.808-0.659,1.25-1.019c2.516,2.15,5.816,3.051,8.113,5.78C91.603,103.214,91.017,103.487,90.535,103.712z"/>
<path fill-rule="evenodd" clip-rule="evenodd" fill="#e3a13b" class="fill" d="M116.2,91.865c-0.788,0.417-1.193,0.632-1.845,0.978
	c-2.307-1.902-4.636-3.823-6.969-5.747c0.856-1.174,1.771-0.803,2.461-0.287C111.909,88.352,113.887,90.009,116.2,91.865z"/>
<path fill-rule="evenodd" clip-rule="evenodd" fill="#e3a13b" class="fill" d="M113.878,137.62c-1.3-2.065-2.477-3.935-3.824-6.075
	c1.877,0.791,3.711,1.361,5.312,2.321c0.856,0.513,1.437,1.664,0.728,3.104C115.552,137.128,114.87,137.328,113.878,137.62z"/>
<path fill-rule="evenodd" clip-rule="evenodd" fill="#e3a13b" class="fill" d="M134.148,74.741c2.872,1.907,5.744,3.813,8.886,5.899
	c-0.818,0.455-1.368,0.761-2.059,1.145c-2.348-1.939-4.662-3.836-6.947-5.769c-0.202-0.17-0.21-0.571-0.308-0.864
	C133.863,75.015,134.006,74.877,134.148,74.741z"/>
<path fill-rule="evenodd" clip-rule="evenodd" fill="#e3a13b" class="fill" d="M120.16,90.074c-0.744,0.428-1.081,0.657-1.446,0.823
	c-0.365,0.165-0.76,0.267-1.293,0.448c-0.598-0.481-1.229-0.979-1.849-1.489c-1.149-0.947-2.312-1.878-3.428-2.865
	c-0.531-0.47-0.965-1.05-1.307-1.751c1.99-0.057,2.897,1.751,4.421,2.453C116.776,88.393,118.266,89.15,120.16,90.074z"/>
<path fill-rule="evenodd" clip-rule="evenodd" fill="#e3a13b" class="fill" d="M134.287,84.413c-2.078,1.281-3.957,1.008-5.791-0.578
	c-1.075-0.931-2.327-1.655-3.477-2.504c-0.686-0.506-1.327-1.074-2.039-1.655c0.834-0.79,1.337-0.402,1.909,0.04
	c1.131,0.873,2.217,1.885,3.49,2.473c1.811,0.835,3.774,1.34,5.673,1.986C134.131,84.253,134.209,84.333,134.287,84.413z"/>
<path fill-rule="evenodd" clip-rule="evenodd" fill="#e3a13b" class="fill" d="M107.074,92.8c1.342,0.618,2.391,1.102,3.743,1.725
	c-0.686,0.39-1.27,0.722-1.643,0.934c-2.244,0.08-3.727-0.941-5.21-2.085c-1.076-0.83-2.325-1.433-3.468-2.18
	c-0.348-0.227-0.598-0.601-0.78-1.049c1.343,0.194,2.331,0.981,3.345,1.744C104.292,92.814,105.574,93.617,107.074,92.8z"/>
<path fill-rule="evenodd" clip-rule="evenodd" fill="#e3a13b" class="fill" d="M130.397,76.454c0.672-0.313,1.148-0.534,1.38-0.643
	c2.652,2.196,5.149,4.264,7.788,6.449c-0.438,0.28-0.754,0.482-1.199,0.767C135.775,80.89,133.184,78.752,130.397,76.454z"/>
<path fill-rule="evenodd" clip-rule="evenodd" fill="#e3a13b" class="fill" d="M75.131,101.883c1.548-0.937,2.087,0.132,2.8,0.433
	c0.742,0.312,1.357,0.914,2.07,1.313c0.77,0.432,1.557,0.887,2.395,1.129c0.776,0.224,1.657,0.125,2.131,1.198
	c-0.453,0.313-0.929,0.643-1.574,1.091C80.427,105.381,77.946,103.742,75.131,101.883z"/>
<path fill-rule="evenodd" clip-rule="evenodd" fill="#e3a13b" class="fill" d="M99.334,99.995c-1.246,1.082-2.11,0.857-3.092,0.278
	c-2.066-1.221-3.883-2.673-5.198-5.051C93.864,96.846,96.495,98.361,99.334,99.995z"/>
<path fill-rule="evenodd" clip-rule="evenodd" fill="#e3a13b" class="fill" d="M79.271,99.746c0.932-0.563,1.317,0.005,1.783,0.371
	c1.7,1.335,3.336,2.748,5.658,2.974c0.564,0.055,1.07,0.706,1.809,1.228c-0.907,0.472-1.554,0.809-2.238,1.165
	C83.942,103.568,81.671,101.71,79.271,99.746z"/>
<path fill-rule="evenodd" clip-rule="evenodd" fill="#e3a13b" class="fill" d="M129.771,86.198c-1.768,0.957-2.884-0.143-3.882-0.979
	c-1.614-1.595-3.229-3.19-4.979-4.92c1.513-0.116,2.019,1.188,2.971,1.686c1.024,0.536,1.971,1.231,2.914,1.909
	C127.733,84.567,128.624,85.305,129.771,86.198z"/>
<path fill-rule="evenodd" clip-rule="evenodd" fill="#e3a13b" class="fill" d="M129.355,79.229c1.411,0.608,2.867,1.132,4.22,1.852
	c1.119,0.596,2.116,1.424,3.507,2.384c-1.109,0.376-1.952,0.662-2.795,0.948c-0.078-0.08-0.156-0.159-0.234-0.238
	c-0.143-0.292-0.217-0.76-0.438-0.847c-1.962-0.759-3.18-2.352-4.475-3.863C129.212,79.386,129.283,79.308,129.355,79.229z"/>
<path fill-rule="evenodd" clip-rule="evenodd" fill="#e3a13b" class="fill" d="M103.405,88.301c0.462,0.057,0.989-0.007,1.373,0.197
	c0.717,0.382,1.317,0.981,2.027,1.38c1.119,0.628,2.24,1.322,3.451,1.695c1.126,0.348,1.854,0.989,2.555,1.763
	c-0.064,0.146-0.128,0.291-0.191,0.437c-1.116-0.334-2.347-0.472-3.324-1.044c-2.041-1.195-3.949-2.619-5.912-3.948
	C103.392,88.621,103.398,88.46,103.405,88.301z"/>
<path fill-rule="evenodd" clip-rule="evenodd" fill="#e3a13b" class="fill" d="M104.599,136.952c-0.721-0.771-1.309-1.4-2.021-2.163
	c2.525,0.763,3.398,1.76,4.025,4.48c-0.389,1.053-0.537,2.403-2.434,2.233C104.312,139.993,104.45,138.532,104.599,136.952z"/>
<path fill-rule="evenodd" clip-rule="evenodd" fill="#e3a13b" class="fill" d="M102.931,98.453c-0.673,0.34-1.254,0.635-1.748,0.885
	c-2.634-0.655-3.725-1.613-4.256-3.835C98.837,96.691,101.282,96.248,102.931,98.453z"/>
<path fill-rule="evenodd" clip-rule="evenodd" fill="#e3a13b" class="fill" d="M86.269,96.371c2.57,0.222,3.815,3.418,6.334,3.109
	c0.991,0.818,1.787,1.476,2.78,2.296c-0.51,0.107-0.906,0.247-1.305,0.253c-0.249,0.004-0.524-0.157-0.747-0.305
	c-2.427-1.611-4.846-3.234-7.267-4.854C86.133,96.704,86.2,96.538,86.269,96.371z"/>
<path fill-rule="evenodd" clip-rule="evenodd" fill="#e3a13b" class="fill" d="M123.596,129.662c-0.254,1.25-1.005,1.34-1.771,1.175
	c-1.913-0.412-4.005-0.493-5.143-2.655C118.978,128.673,121.272,129.165,123.596,129.662z"/>
<path fill-rule="evenodd" clip-rule="evenodd" fill="#e3a13b" class="fill" d="M117.071,85.566c2.212,1.125,4.109,2.091,6.359,3.235
	c-0.866,0.455-1.306,0.686-1.656,0.869C119.726,88.893,118.187,87.739,117.071,85.566z"/>
<path fill-rule="evenodd" clip-rule="evenodd" fill="#e3a13b" class="fill" d="M127.171,87.266c-1.112,0.466-1.715,0.718-2.244,0.94
	c-1.726-0.596-3.021-1.467-3.8-3.54C123.195,85.556,124.962,86.316,127.171,87.266z"/>
<path fill-rule="evenodd" clip-rule="evenodd" fill="#e3a13b" class="fill" d="M151.945,70.212c2.168,1.066,4.498,1.833,6.663,3.442
	c-0.605,0.345-0.983,0.56-1.364,0.776c-2.144-1.004-3.86-2.438-5.444-4.055C151.849,70.321,151.896,70.267,151.945,70.212z"/>
<path fill-rule="evenodd" clip-rule="evenodd" fill="#e3a13b" class="fill" d="M145.78,79.598c-0.551,0.268-0.837,0.407-1.251,0.609
	c-1.917-1.62-3.821-3.23-6.059-5.122C141.715,75.749,143.259,78.188,145.78,79.598z"/>
<path fill-rule="evenodd" clip-rule="evenodd" fill="#e3a13b" class="fill" d="M86.833,109.213c0-0.955,0-1.479,0-2.201
	c0.91-0.411,1.86-0.84,3.031-1.368c0.119,0.871,0.197,1.442,0.297,2.165C89.1,108.256,88.126,108.667,86.833,109.213z"/>
<path fill-rule="evenodd" clip-rule="evenodd" fill="#e3a13b" class="fill" d="M125.293,89.657c0.883-0.264,1.638-0.49,2.634-0.788
	c0.044,0.959,0.077,1.674,0.114,2.494c-0.835,0.331-1.56,0.618-2.546,1.009C125.417,91.317,125.358,90.542,125.293,89.657z"/>
<path fill-rule="evenodd" clip-rule="evenodd" fill="#e3a13b" class="fill" d="M151.432,77.232c-1.244,0.947-2.11,0.344-2.763-0.256
	c-1.114-1.025-2.07-2.221-2.901-3.562C147.585,74.639,149.401,75.864,151.432,77.232z"/>
<path fill-rule="evenodd" clip-rule="evenodd" fill="#e3a13b" class="fill" d="M77.18,104.961c1.384,0.769,2.767,1.538,4.15,2.307
	c-0.005,0.14-0.01,0.281-0.015,0.421c-0.721,0.216-1.441,0.431-2.221,0.665c-0.755-1.151-1.434-2.185-2.111-3.218
	C77.049,105.078,77.114,105.02,77.18,104.961z"/>
<path fill-rule="evenodd" clip-rule="evenodd" fill="#e3a13b" class="fill" d="M108.393,100.068c-0.829,0.307-1.509,0.558-2.392,0.885
	c-0.163-0.663-0.295-1.2-0.46-1.872c0.79-0.389,1.481-0.729,2.443-1.203C108.146,98.744,108.259,99.347,108.393,100.068z"/>
<path fill-rule="evenodd" clip-rule="evenodd" fill="#e3a13b" class="fill" d="M91.687,107.063c-0.068-0.782-0.117-1.338-0.174-1.994
	c0.798-0.308,1.469-0.566,2.34-0.903c0.158,0.727,0.277,1.275,0.435,2.003C93.402,106.474,92.667,106.727,91.687,107.063z"/>
<path fill-rule="evenodd" clip-rule="evenodd" fill="#e3a13b" class="fill" d="M121.849,94.048c0-1.07,0-1.792,0-2.609
	c0.565-0.229,1.107-0.449,1.891-0.767c0.13,0.88,0.232,1.577,0.35,2.37C123.385,93.358,122.788,93.626,121.849,94.048z"/>
<path fill-rule="evenodd" clip-rule="evenodd" fill="#e3a13b" class="fill" d="M129.553,90.576c0-0.976,0-1.624,0-2.411
	c0.667-0.262,1.261-0.496,2.007-0.789c0.116,0.817,0.199,1.402,0.309,2.174C131.145,89.871,130.455,90.176,129.553,90.576z"/>
<path fill-rule="evenodd" clip-rule="evenodd" fill="#e3a13b" class="fill" d="M111.649,98.62c-0.647,0.235-1.18,0.427-1.996,0.723
	c-0.088-0.849-0.151-1.463-0.223-2.152c0.576-0.333,1.08-0.624,1.906-1.101C111.454,97.043,111.544,97.767,111.649,98.62z"/>
<path fill-rule="evenodd" clip-rule="evenodd" fill="#e3a13b" class="fill" d="M117.642,96.024c-0.627,0.222-0.998,0.354-1.621,0.575
	c-0.126-0.884-0.234-1.646-0.352-2.458c0.522-0.271,0.928-0.482,1.522-0.791C117.349,94.282,117.479,95.062,117.642,96.024z"/>
<path fill-rule="evenodd" clip-rule="evenodd" fill="#e3a13b" class="fill" d="M149.961,73.241c1.227,0.841,2.452,1.682,3.943,2.704
	c-1.428,0.714-2.091-0.213-2.846-0.346c-0.484-0.775-0.9-1.441-1.317-2.108C149.814,73.407,149.888,73.324,149.961,73.241z"/>
<path fill-rule="evenodd" clip-rule="evenodd" fill="#e3a13b" class="fill" d="M82.905,110.503c0.057-0.784,0.085-1.178,0.122-1.699
	c0.596-0.261,1.196-0.524,2.065-0.905c0.054,0.772,0.092,1.314,0.139,1.994C84.457,110.096,83.831,110.26,82.905,110.503z"/>
<path fill-rule="evenodd" clip-rule="evenodd" fill="#e3a13b" class="fill" d="M101.967,100.74c0.755-0.35,1.295-0.601,2.054-0.953
	c0.158,0.639,0.288,1.164,0.457,1.845c-0.787,0.327-1.44,0.599-2.275,0.945C102.112,101.879,102.05,101.387,101.967,100.74z"/>
<path fill-rule="evenodd" clip-rule="evenodd" fill="#e3a13b" class="fill" d="M114.575,97.303c-0.615,0.236-0.975,0.375-1.255,0.482
	c-0.892-0.618-0.526-1.989,0.859-2.929C114.317,95.709,114.435,96.433,114.575,97.303z"/>
<path fill-rule="evenodd" clip-rule="evenodd" fill="#e3a13b" class="fill" d="M79.349,109.929c0.822-0.134,1.319-0.216,1.723-0.282
	c0.74,0.717,0.184,1.591-1.335,2.172C79.62,111.251,79.511,110.715,79.349,109.929z"/>
<path fill-rule="evenodd" clip-rule="evenodd" fill="#e3a13b" class="fill" d="M145.881,76.423c0.882,0.729,1.606,1.328,2.347,1.94
	c-1.079,0.872-1.079,0.872-2.922-0.493c0.046-0.217,0.078-0.479,0.162-0.723C145.531,76.963,145.661,76.801,145.881,76.423z"/>
<path fill-rule="evenodd" clip-rule="evenodd" fill="#e3a13b" class="fill" d="M118.908,94.86c-0.075-0.656-0.149-1.312-0.232-2.036
	c0.456-0.269,0.833-0.49,1.441-0.848c0,1.071,0,1.891,0,2.753c-0.169,0.083-0.337,0.215-0.521,0.24
	C119.412,94.994,119.212,94.914,118.908,94.86z"/>
<path fill-rule="evenodd" clip-rule="evenodd" fill="#e3a13b" class="fill" d="M139.003,86.519c-0.256-1.238-0.28-2.104,1.222-2.312
	c0.146,0.453,0.294,0.914,0.489,1.524C140.1,86.014,139.604,86.243,139.003,86.519z"/>
<path fill-rule="evenodd" clip-rule="evenodd" fill="#e3a13b" class="fill" d="M135.843,87.937c0-0.853,0-1.498,0-2.25
	c0.479-0.073,0.854-0.13,1.352-0.206c0.085,0.607,0.157,1.118,0.243,1.73C136.907,87.453,136.451,87.66,135.843,87.937z"/>
<path fill-rule="evenodd" clip-rule="evenodd" fill="#e3a13b" class="fill" d="M141.895,83.34c0.489-0.236,0.831-0.4,1.366-0.658
	c0.185,0.675,0.332,1.214,0.502,1.839c-0.49,0.222-0.835,0.378-1.379,0.625C142.204,84.482,142.06,83.949,141.895,83.34z"/>
<path fill-rule="evenodd" clip-rule="evenodd" fill="#e3a13b" class="fill" d="M100.391,101.587c0.02,1.687,0.02,1.687-1.512,2.16
	c-0.09-0.431-0.177-0.849-0.294-1.414C99.178,102.089,99.698,101.874,100.391,101.587z"/>
<path fill-rule="evenodd" clip-rule="evenodd" fill="#e3a13b" class="fill" d="M96.817,103.308c0.421,1.32,0.421,1.32-0.797,1.901
	C95.455,103.649,95.455,103.649,96.817,103.308z"/>
<path fill-rule="evenodd" clip-rule="evenodd" fill="#e3a13b" class="fill" d="M146.561,83.256c-0.507,0.255-0.801,0.402-1.051,0.527
	c-0.951-0.451-0.79-1.281,0.445-2.183C146.145,82.117,146.319,82.597,146.561,83.256z"/>
<path fill-rule="evenodd" clip-rule="evenodd" fill="#e3a13b" class="fill" d="M149.689,70.765c0.91,0.64,1.82,1.28,2.729,1.92
	c-1.385,0.108-2.135-0.792-3.029-1.458C149.489,71.073,149.59,70.919,149.689,70.765z"/>
<path fill-rule="evenodd" clip-rule="evenodd" fill="#e3a13b" class="fill" d="M151.604,79.254c0.354,1.13,0.313,1.801-0.801,2.1
	C150.468,80.499,150.466,79.834,151.604,79.254z"/>
<path fill-rule="evenodd" clip-rule="evenodd" fill="#e3a13b" class="fill" d="M148.903,80.615c0.256,0.904,0.321,1.607-0.83,1.917
	C147.509,81.511,147.735,80.928,148.903,80.615z"/>
<path fill-rule="evenodd" clip-rule="evenodd" fill="#e3a13b" class="fill" d="M133.288,89.083c0.047-0.985,0.078-1.656,0.128-2.719
	C134.535,87.951,134.535,87.951,133.288,89.083z"/>
<path fill-rule="evenodd" clip-rule="evenodd" fill="#e3a13b" class="fill" d="M153.394,80.304c0-0.921,0-1.442,0-2.137
	C154.409,79.098,154.409,79.098,153.394,80.304z"/>
<path fill-rule="evenodd" clip-rule="evenodd" fill="#e3a13b" class="fill" d="M148.996,49.429c0,0.914,0,1.419,0,2.282
	c-0.612-0.521-1.005-0.854-1.521-1.292C148.019,50.064,148.382,49.829,148.996,49.429z"/>
<path fill-rule="evenodd" clip-rule="evenodd" fill="#e3a13b" class="fill" d="M95.39,94.693c-0.578-0.451-1.157-0.903-1.736-1.354
	c0.118-0.157,0.236-0.314,0.354-0.471c0.576,0.444,1.151,0.889,1.727,1.333C95.619,94.365,95.505,94.529,95.39,94.693z"/>
<path fill-rule="evenodd" clip-rule="evenodd" fill="#e3a13b" class="fill" d="M129.14,79.465c-0.718-0.431-1.436-0.863-2.153-1.294
	c0.084-0.143,0.169-0.286,0.253-0.429c0.963,0.025,1.442,0.934,2.116,1.487C129.283,79.308,129.212,79.386,129.14,79.465z"/>
<path fill-rule="evenodd" clip-rule="evenodd" fill="#e3a13b" class="fill" d="M151.8,70.376c-0.652-0.303-1.306-0.607-1.959-0.911
	c1.047-0.487,1.482,0.33,2.104,0.747C151.896,70.267,151.849,70.321,151.8,70.376z"/>
<path fill-rule="evenodd" clip-rule="evenodd" fill="#e3a13b" class="fill" d="M159.414,76.361c0-0.229,0-0.458,0-0.687
	c0.079,0.003,0.159,0.006,0.238,0.008c-0.011,0.229-0.022,0.458-0.033,0.687C159.551,76.366,159.482,76.364,159.414,76.361z"/>
</svg>
