<svg version="1.1" id="svg" xmlns="http://www.w3.org/2000/svg" xmlns:xlink="http://www.w3.org/1999/xlink" x="0px" y="0px"
	 width="200px" height="200px" viewBox="0 0 200 200" enable-background="new 0 0 200 200" xml:space="preserve">
<path class="stroke" fill="#472664"  d="M146.305,65.594c-0.289-0.638-0.586-1.33-1.062-1.818c-1.977-2.025-4.281-3.409-7.257-3.043
	c-1.51,0.187-2.84,0.848-3.805,2.062c-0.274,0.347-0.352,0.851-0.529,1.305c0.312,0.169,0.498,0.272,0.724,0.395
	c0.436-0.315,0.845-0.613,1.195-0.868c1.396-0.285,2.53,0.202,3.639,0.84c0.832,0.478,1.335,1.179,1.583,2.093
	c0.44,1.629,0.103,3.19-0.415,4.73c-0.074,0.221-0.293,0.393-0.436,0.575c-1.465-1.155-2.904-2.232-4.279-3.387
	c-2.572-2.157-5.305-4.07-8.361-5.471c-1.63-0.746-3.305-1.421-5.006-1.985c-3.537-1.173-7.117-2.145-10.877-2.373
	c-4.192-0.255-8.35-0.088-12.492,0.562c-3.002,0.471-5.85,1.478-8.656,2.588c-1.521,0.602-3.009,1.3-4.477,2.022
	c-1.787,0.879-3.615,1.709-5.285,2.779c-2.105,1.347-4.111,2.864-6.085,4.403c-1.44,1.123-2.816,2.344-4.122,3.623
	c-1.304,1.276-2.483,2.679-3.754,4.066c-0.186-0.138-0.253-0.165-0.285-0.215c-1.026-1.638-2.534-2.705-4.217-3.561
	c-1.402-0.713-3.104-0.349-3.708,0.895c-0.343,0.703-0.605,1.525-0.614,2.298c-0.035,3.287,0.343,6.542,1.076,9.751
	c0.199,0.876,0.422,1.747,0.631,2.615c-1.157,1.915-1.73,4.028-2.279,6.129c-0.502,1.922-0.801,3.897-1.197,5.848
	c-0.207,1.018-0.54,1.991-1.208,2.806c-0.936,1.141-1.897,2.26-2.846,3.389c-0.144,0.173-0.289,0.348-0.412,0.535
	c-0.739,1.128-1.549,2.22-2.188,3.403c-0.789,1.457-1.26,3.056-1.013,4.729c0.313,2.124,1.085,4.073,2.421,5.808
	c1.799,2.338,4.233,3.738,6.912,4.707c1.794,0.649,3.736,0.577,5.635,0.48c0.509-0.025,1.02-0.148,1.516-0.274
	c1.834-0.464,3.652-1.001,5.5-1.4c0.785-0.17,1.613-0.463,2.504-0.14c0.037,0.322,0.094,0.637,0.106,0.953
	c0.061,1.495,0.509,2.904,0.949,4.314c0.237,0.76,0.784,1.203,1.524,1.492c1.137,0.443,2.293,0.586,3.498,0.466
	c0.882-0.088,1.335-0.438,1.545-1.315c0.118-0.499,0.164-1.016,0.252-1.522c0.105-0.59,0.221-1.178,0.34-1.806
	c1.871,0.677,3.627,1.289,5.363,1.949c1.135,0.433,1.813,1.225,1.947,2.505c0.134,1.272,0.373,2.537,0.632,3.792
	c0.219,1.061,0.758,1.811,1.905,2.187c2.189,0.719,4.431,0.772,6.678,0.736c0.889-0.014,1.716-0.399,2.432-1.028
	c0.877-0.771,1.636-1.591,2.146-2.662c0.634-1.331,1.388-2.604,2.034-3.928c0.533-1.089,0.984-2.216,1.468-3.316
	c2.6-0.361,4.972-1.272,7.364-2.094c2.368-0.812,4.741-1.629,7.051-2.59c2.313-0.962,4.553-2.104,6.855-3.182
	c0.119,0.88,0.19,1.611,0.322,2.331c0.256,1.403,0.928,2.157,2.32,2.289c1.531,0.144,3.081,0.153,4.619,0.097
	c0.719-0.028,1.436-0.323,2.134-0.553c0.29-0.095,0.607-0.28,0.784-0.52c0.572-0.771,1.177-1.541,1.595-2.396
	c0.675-1.383,1.272-2.812,1.794-4.261c1.078-2.992,2.126-5.999,2.678-9.146c0.483-2.752,1.03-5.497,1.375-8.268
	c0.253-2.036,0.156-4.113,0.334-6.161c0.359-4.169-0.105-8.275-0.771-12.374c-0.103-0.631-0.186-1.266-0.269-1.836
	c0.458-0.633,0.924-1.173,1.272-1.779c1.059-1.845,1.889-3.773,2.162-5.916C147.539,70.414,147.373,67.947,146.305,65.594z"/>
<path fill-rule="evenodd" clip-rule="evenodd" fill="#f8bfe9" class="fill" d="M80.443,117.331c0.146,0.317,0.182,0.567,0.323,0.67
	c0.462,0.335,0.941,0.665,1.456,0.906c0.784,0.367,1.603,0.66,2.408,0.981c3.232,1.286,6.556,2.245,9.991,2.835
	c2.126,0.364,4.244,0.744,6.403,0.842c0.154,0.007,0.305,0.07,0.491,0.116c0.364,1.136,0.139,2.24-0.089,3.335
	c-0.074,0.358-0.302,0.662-0.887,0.421c0.063-0.987,0.131-2.021,0.202-3.128c-0.305,0.026-0.476,0.041-0.669,0.058
	c-0.1,1-0.195,1.95-0.297,2.961c-0.498,0-0.924,0-1.377,0c0.065-0.971,0.492-1.874,0.04-2.755c-0.132-0.006-0.202-0.028-0.253-0.008
	c-0.086,0.037-0.16,0.103-0.266,0.173c-0.115,0.825,0.105,1.738-0.566,2.568c-0.344-0.022-0.742-0.047-1.203-0.076
	c0.079-0.95,0.59-1.787,0.266-2.679c-0.541-0.138-0.62,0.215-0.69,0.583c-0.124,0.649-0.253,1.299-0.396,2.021
	c-0.518-0.056-0.915-0.1-1.381-0.149c0.049-0.717,0.092-1.348,0.139-2.031c-0.225-0.06-0.395-0.105-0.686-0.183
	c-0.08,0.678-0.152,1.299-0.232,1.978c-0.438,0-0.859,0-1.298,0c0.056-0.735,0.104-1.39,0.157-2.084c-0.27,0-0.422,0-0.623,0
	c-0.128,0.622-0.254,1.236-0.399,1.935c-0.461-0.034-0.856-0.063-1.288-0.097c0.07-0.661,0.131-1.224,0.196-1.846
	c-0.252-0.028-0.423-0.049-0.63-0.071c-0.129,0.535-0.246,1.024-0.385,1.601c-0.264-0.083-0.481-0.151-0.709-0.222
	c0.026-0.446,0.049-0.818,0.073-1.245c-0.241-0.027-0.415-0.047-0.625-0.071c-0.108,0.344-0.203,0.642-0.329,1.039
	c-0.295-0.099-0.577-0.193-0.89-0.298c0.021-0.366,0.04-0.677,0.058-0.966c-0.629-0.466-0.646,0.312-0.824,0.379
	c-1.923-0.687-3.254-2.01-4.65-3.297c-0.213,0.055-0.416,0.106-0.739,0.191c0.729,1.792,1.814,3.276,2.96,4.795
	c-0.178,0.024-0.287,0.075-0.349,0.041c-2.247-1.247-4.547-2.416-6.433-4.22c-0.254-0.243-0.536-0.468-0.84-0.642
	c-0.163-0.095-0.397-0.065-0.637-0.097c-0.274,1.144,0.506,1.938,0.594,3.002c-0.58-0.367-1.173-0.715-1.735-1.108
	c-0.474-0.331-0.899-0.73-1.366-1.072c-0.314-0.23-0.662-0.443-1.051-0.052c-0.215,0.799,0.29,1.465,0.508,2.279
	c-1.269,0.112-2.5,0.224-3.84,0.343c1.104-4.343,0.297-8.252-2.649-11.65c-2.952-3.402-6.772-4.598-11.264-4.306
	c0.493-0.983,1.339-1.09,2.138-1.132c0.788-0.04,1.584,0.087,2.439,0.145c-0.141-0.807-0.771-0.655-1.202-0.738
	c-0.485-0.092-0.995-0.056-1.687-0.082c0.284-0.449,0.461-0.731,0.676-1.071c0.702,0.04,1.391,0.078,2.184,0.123
	c-0.105-0.309-0.17-0.501-0.234-0.688c-0.486-0.077-0.921-0.146-1.441-0.23c0.137-0.366,0.242-0.652,0.381-1.021
	c0.626,0.053,1.211,0.102,1.803,0.152c-0.086-0.675-0.086-0.675-1.434-0.955c0.031-0.292,0.062-0.594,0.107-1.042
	c0.674,0.103,1.278,0.192,1.9,0.287c-0.141-0.757-0.141-0.757-1.551-1.021c0-0.311,0-0.639,0-1.113
	c0.648,0.093,1.254,0.179,1.912,0.273c-0.209-1.083-1.146-0.703-1.797-1.048c0.043-0.458,0.086-0.952,0.143-1.575
	c0.822,0.084,1.533,0.156,2.255,0.23c-0.194-0.816-0.292-0.864-2.021-0.982c0.038-0.352,0.076-0.699,0.127-1.187
	c0.724,0.166,1.329,0.304,1.941,0.443c0-0.672,0-0.672-1.652-1.277c0.12-0.375,0.242-0.752,0.397-1.234
	c0.647,0.228,1.198,0.42,1.78,0.624c-0.045-0.76-0.045-0.76-1.477-1.327c0.064-0.212,0.132-0.43,0.212-0.691
	c0.666,0.221,1.263,0.417,1.876,0.62c0.028-0.545,0.028-0.545-1.459-1.421c0.047-0.16,0.087-0.338,0.152-0.508
	c0.057-0.146,0.143-0.279,0.268-0.519c0.564,0.247,1.099,0.48,1.695,0.741c0.157-1.026-0.895-0.939-1.201-1.567
	c0.086-0.15,0.206-0.357,0.371-0.643c0.547,0.24,1.043,0.458,1.624,0.714c0.04-0.961-0.782-0.977-1.188-1.441
	c0.123-0.244,0.246-0.489,0.365-0.728c0.723,0.006,1.202,0.749,1.959,0.515c-0.112-0.873-0.946-0.826-1.466-1.287
	c0.211-0.358,0.429-0.732,0.661-1.131c0.659,0.194,1.252,0.369,1.933,0.57c0.012-1.123-1.01-0.837-1.445-1.367
	c0.23-0.37,0.475-0.766,0.746-1.201c0.654,0.279,1.231,0.525,1.875,0.801c0.026-0.263,0.043-0.44,0.062-0.636
	c-0.467-0.276-0.902-0.536-1.45-0.86c0.335-0.433,0.636-0.818,0.979-1.261c0.706,0.291,1.314,0.543,1.982,0.817
	c0.03-0.238,0.054-0.416,0.078-0.607c-0.474-0.265-0.916-0.512-1.428-0.798c0.128-0.213,0.232-0.384,0.381-0.627
	c0.696,0.268,1.357,0.522,2.125,0.817c-0.089-1.045-0.967-1.046-1.513-1.498c0.204-0.263,0.392-0.501,0.614-0.788
	c0.333,0.175,0.609,0.326,0.891,0.467c0.276,0.138,0.559,0.265,0.906,0.43c0.059-0.262,0.092-0.406,0.132-0.589
	c-0.466-0.312-0.913-0.61-1.435-0.957c0.374-0.438,0.718-0.84,1.102-1.288c0.681,0.392,1.297,0.745,2.039,1.172
	c0.035-1.114-0.96-1.188-1.396-1.951c0.146-0.127,0.329-0.285,0.592-0.511c0.801,0.482,1.521,0.918,2.418,1.461
	c-0.104-1.261-1.203-1.395-1.78-2.081c0.256-0.22,0.486-0.416,0.673-0.577c1.112,0.125,1.721,0.965,2.514,1.439
	c0.346-0.232,0.298-0.459,0.07-0.657c-0.574-0.498-1.163-0.981-1.811-1.525c0.343-0.279,0.703-0.574,1.164-0.951
	c0.646,0.507,1.254,0.985,1.932,1.517c0.15-1.064-0.76-1.345-1.221-2.033c0.256-0.191,0.517-0.386,0.805-0.602
	c0.551,0.438,1.047,0.829,1.561,1.238c0.502-0.456,0.164-0.7-0.137-0.944c-0.273-0.223-0.551-0.439-0.933-0.743
	c0.495-0.387,0.834-0.651,1.251-0.975c0.648,0.525,1.258,1.019,1.904,1.542c0.356-0.552-0.016-0.793-0.312-1.064
	c-0.303-0.279-0.598-0.566-0.978-0.927c0.35-0.251,0.619-0.445,0.857-0.616c0.76,0.25,1.15,1.033,1.975,1.089
	c-0.103-0.542-0.103-0.542-1.21-1.584c0.511-0.342,0.999-0.668,1.501-1.004c0.453,0.295,0.85,0.552,1.275,0.829
	c0.559-0.61-0.234-0.817-0.335-1.267c0.26-0.112,0.51-0.223,0.794-0.346c0.411,0.266,0.809,0.524,1.21,0.784
	c0.216-0.486,0.216-0.486-0.388-1.264c0.369-0.188,0.721-0.369,1.109-0.567c0.453,0.297,0.869,0.569,1.293,0.848
	c0.229-0.551,0.229-0.551-0.476-1.249c0.489-0.258,0.945-0.498,1.37-0.722c0.559,0.429,1.028,0.789,1.545,1.186
	c0.43-0.812-0.495-0.97-0.498-1.558c0.175-0.101,0.385-0.224,0.609-0.354c0.566,0.355,1.103,0.692,1.667,1.048
	c0.468-0.764-0.414-0.899-0.576-1.436c0.375-0.153,0.743-0.304,1.188-0.486c0.376,0.428,0.745,0.847,1.164,1.323
	c0.451-0.755-0.294-1.081-0.448-1.719c0.38-0.061,0.749-0.119,0.947-0.15c0.544,0.247,0.675,0.803,1.322,0.652
	c-0.125-0.328-0.237-0.621-0.388-1.019c0.336-0.15,0.673-0.302,1.037-0.465c0.438,0.4,0.853,0.779,1.307,1.194
	c0.438-0.633-0.26-0.833-0.298-1.326c0.193-0.085,0.433-0.188,0.715-0.312c0.396,0.368,0.758,0.707,1.138,1.06
	c0.447-0.427,0.007-0.738-0.05-1.183c0.272-0.077,0.562-0.158,0.835-0.235c0.402,0.376,0.764,0.714,1.125,1.053
	c0.07-0.038,0.139-0.076,0.208-0.113c-0.062-0.309-0.126-0.618-0.2-0.98c0.779-0.25,1.053,0.559,1.596,0.759
	c0.217-0.396,0.217-0.396,0.025-0.989c0.883-0.589,1.169,0.657,2.01,0.688c-0.084-0.358-0.144-0.611-0.225-0.957
	c0.257-0.074,0.543-0.156,0.779-0.225c0.4,0.375,0.73,0.687,1.062,0.997c0.055-0.036,0.109-0.073,0.164-0.11
	c-0.025-0.271-0.051-0.545-0.082-0.871c0.27-0.019,0.551-0.036,0.842-0.057c0.247,0.225,0.478,0.435,0.779,0.707
	c0.125-0.267,0.221-0.474,0.339-0.727c0.164-0.01,0.351-0.021,0.554-0.034c0.269,0.222,0.533,0.44,0.881,0.727
	c0.105-0.253,0.183-0.436,0.277-0.659c0.232,0,0.482,0,0.769,0c0.221,0.179,0.469,0.38,0.701,0.568
	c0.297-0.177,0.565-0.338,0.839-0.501c0.299,0.359,0.516,0.619,0.797,0.957c0.172-0.285,0.291-0.485,0.438-0.726
	c0.272,0.036,0.553,0.074,0.83,0.111c0.283,0.218,0.046,0.877,0.725,0.759c0.081-0.156,0.18-0.346,0.271-0.521
	c0.085-0.013,0.151-0.041,0.207-0.027c3.524,0.919,6.86,2.304,9.955,4.218c1.028,0.636,1.911,1.511,2.852,2.287
	c2.403,1.984,4.343,4.379,6.027,6.979c1.491,2.301,2.342,4.853,2.738,7.556c0.164,1.112,0.347,2.228,0.405,3.347
	c0.116,2.267-0.275,4.488-0.793,6.684c-0.114,0.487-0.42,0.933-0.653,1.389c-0.616,1.201-1.18,2.433-1.874,3.588
	c-1.188,1.974-2.79,3.607-4.516,5.112c-1.477,1.289-2.938,2.603-4.501,3.778c-1.563,1.175-3.24,2.203-4.88,3.275
	c-1.077,0.703-2.165,1.39-3.271,2.045c-2.22,1.314-4.604,2.277-7.042,3.086c-2.252,0.747-4.54,1.405-6.843,1.978
	c-1.396,0.347-2.849,0.49-4.282,0.664c-4.385,0.537-8.787,0.528-13.189,0.31c-1.085-0.054-2.159-0.293-3.24-0.431
	C81.145,117.303,80.867,117.331,80.443,117.331z M76.317,90.416c0.251,0.333,0.407,0.662,0.663,0.857
	c0.662,0.502,1.363,0.954,2.061,1.408c0.545,0.354,1.157,0.408,1.766,0.234c0.703-0.202,1.406-0.428,2.081-0.711
	c1.247-0.525,2.48-1.093,3.868-1.085c1.315,0.007,1.87,0.592,2.163,1.535c0.341,1.099,0.458,2.223,0.078,3.321
	c-0.597,1.728-1.229,3.444-1.916,5.138c-0.321,0.793-0.501,2.186,0.378,2.848c0.821,0.619,1.734,1.087,2.838,1.023
	c0.771-0.045,1.343-0.318,1.732-1.013c1.109-1.974,1.804-4.106,2.404-6.268c0.334-1.203,0.561-2.441,0.767-3.675
	c0.347-2.075,0.456-4.13-0.298-6.18c-0.716-1.944-1.993-3.323-3.883-4.031c-1.669-0.625-3.432-0.546-5.096,0.102
	c-1.82,0.708-3.608,1.509-5.386,2.322C78.688,87.091,77.464,88.596,76.317,90.416z M110.76,66.101
	c-0.359-1.278-0.952-1.706-2.115-1.616c-0.384,0.03-0.767,0.086-1.15,0.092c-1.832,0.028-3.649,0.165-5.44,0.589
	c-3.011,0.711-5.97,1.534-8.474,3.483c-1.254,0.976-2.314,2.102-3.136,3.633c0.534,0.43,1.036,0.833,1.562,1.256
	c1.695-2.165,3.795-3.617,6.174-4.657c3-1.309,6.162-1.994,9.424-2.201c0.863-0.056,1.732-0.009,2.624-0.009
	C110.406,66.479,110.576,66.298,110.76,66.101z M66.51,91.861c-1.266-0.03-2.184,0.695-2.154,1.671
	c0.026,0.907,0.948,1.467,2.14,1.298C67.7,93.621,67.714,92.912,66.51,91.861z M76.943,99.979c0.656,0.478,1.336,0.458,2.014-0.002
	c0.643-0.435,0.631-1.05,0.46-1.687c-0.833-0.829-1.253-0.966-1.826-0.608C76.811,98.171,76.611,98.852,76.943,99.979z"/>
<path fill-rule="evenodd" clip-rule="evenodd" fill="#f8bfe9" class="fill" d="M56.363,112.004c3.643,0.046,6.077,1.505,7.951,4.018
	c0.308,0.412,0.629,0.818,0.889,1.26c1.365,2.318,1.348,4.64-0.063,6.93c-0.816,1.326-2.05,1.993-3.588,2.131
	c-1.726,0.155-3.297-0.224-4.774-1.161c-1.552-0.983-3.156-1.901-4.325-3.353c-1.603-1.992-2.226-4.258-1.479-6.762
	c0.34-1.136,1.236-1.86,2.273-2.374C54.363,112.139,55.555,111.915,56.363,112.004z M59.071,120.908
	c1.173-0.015,1.801-0.529,1.859-1.552c0.08-1.393-0.516-2.157-1.792-2.321c-0.891,0.221-0.965,0.971-1.076,1.662
	C57.91,119.626,58.146,120.416,59.071,120.908z M53.102,115.406c-1.193,0.527-1.064,1.522-0.973,2.479
	c0.07,0.718,0.592,1.294,1.152,1.362c0.542,0.066,1.271-0.489,1.486-1.148c0.318-0.973,0.177-1.824-0.732-2.513
	C53.748,115.532,53.406,115.466,53.102,115.406z"/>
<path fill-rule="evenodd" clip-rule="evenodd" fill="#f8bfe9" class="fill" d="M107.111,123.567c0.453,1.213,0.551,2.292,0.139,3.477
	c-0.428,0.113-0.875,0.232-1.453,0.386c0.055-0.716,0.116-1.303,0.138-1.891c0.022-0.601,0.005-1.203,0.005-1.864
	C106.384,123.635,106.723,123.603,107.111,123.567z"/>
<path fill-rule="evenodd" clip-rule="evenodd" fill="#f8bfe9" class="fill" d="M102.41,123.706c0.379,0,0.715,0,1.156,0
	c0.141,1.353,0.197,2.634-0.365,3.903c-0.432,0-0.818,0-1.227,0c0.158-0.71,0.35-1.322,0.422-1.949
	C102.465,125.061,102.41,124.446,102.41,123.706z"/>
<path fill-rule="evenodd" clip-rule="evenodd" fill="#f8bfe9" class="fill" d="M112.762,122.648c0.141,0.99,0.3,1.82-0.105,2.704
	c-0.322,0.09-0.646,0.182-1.053,0.296c0-0.955,0-1.803,0-2.702C111.933,122.861,112.263,122.777,112.762,122.648z"/>
<path fill-rule="evenodd" clip-rule="evenodd" fill="#f8bfe9" class="fill" d="M108.052,123.486c0.364-0.032,0.666-0.06,0.968-0.086
	c0.49,1.015,0.301,1.988,0.186,3.044c-0.276,0.095-0.562,0.192-0.912,0.312C108.209,125.63,108.133,124.595,108.052,123.486z"/>
<path fill-rule="evenodd" clip-rule="evenodd" fill="#f8bfe9" class="fill" d="M104.561,123.788c0.084-0.021,0.256-0.067,0.552-0.146
	c0.2,1.409,0.183,2.709-0.396,4.036c-0.213,0.026-0.452,0.055-0.637,0.076c-0.088-0.07-0.137-0.095-0.135-0.109
	C104.139,126.416,104.336,125.188,104.561,123.788z"/>
<path fill-rule="evenodd" clip-rule="evenodd" fill="#f8bfe9" class="fill" d="M114.847,124.408c-0.441,0.14-0.769,0.244-1.181,0.376
	c0-0.774,0-1.462,0-2.249c0.296-0.109,0.639-0.235,1.003-0.369C115.146,122.919,114.852,123.63,114.847,124.408z"/>
<path fill-rule="evenodd" clip-rule="evenodd" fill="#f8bfe9" class="fill" d="M117.164,121.619c0.387-0.122,0.708-0.224,1.152-0.364
	c0.106,0.614,0.195,1.129,0.297,1.712c-0.396,0.186-0.723,0.339-1.167,0.547C117.346,122.843,117.264,122.295,117.164,121.619z"/>
<path fill-rule="evenodd" clip-rule="evenodd" fill="#f8bfe9" class="fill" d="M110.108,126.153c-0.044-0.953-0.087-1.871-0.13-2.832
	c0.173-0.077,0.332-0.147,0.528-0.233c0.425,0.652,0.305,1.334,0.302,1.992C110.808,125.564,110.79,126.051,110.108,126.153z"/>
<path fill-rule="evenodd" clip-rule="evenodd" fill="#f8bfe9" class="fill" d="M127.298,118.547c0.061-1.719-0.002-2.406,1.194-2.518
	C128.356,116.963,128.398,117.932,127.298,118.547z"/>
<path fill-rule="evenodd" clip-rule="evenodd" fill="#f8bfe9" class="fill" d="M116.521,123.86c-0.264,0.075-0.504,0.144-0.848,0.243
	c0-0.728,0-1.377,0-2.093c0.179-0.041,0.383-0.09,0.546-0.129C116.563,122.131,116.643,122.679,116.521,123.86z"/>
<path fill-rule="evenodd" clip-rule="evenodd" fill="#f8bfe9" class="fill" d="M120.13,120.689c0.061,0.539,0.104,0.94,0.155,1.402
	c-0.272,0.187-0.517,0.354-0.919,0.631c-0.076-0.654-0.132-1.138-0.198-1.717C119.484,120.901,119.757,120.812,120.13,120.689z"/>
<path fill-rule="evenodd" clip-rule="evenodd" fill="#f8bfe9" class="fill" d="M125.834,117.735c0.235-0.129,0.469-0.256,0.73-0.398
	c0.153,1.369-0.036,1.867-0.885,2.254C125.732,118.963,125.781,118.379,125.834,117.735z"/>
<path fill-rule="evenodd" clip-rule="evenodd" fill="#f8bfe9" class="fill" d="M124.227,120.357c0-0.629,0-1.117,0-1.705
	c0.217-0.075,0.461-0.161,0.783-0.273c0,0.332,0.023,0.545-0.005,0.751C124.896,119.939,124.89,119.938,124.227,120.357z"/>
<path fill-rule="evenodd" clip-rule="evenodd" fill="#f8bfe9" class="fill" d="M120.934,120.349c0.314-0.145,0.536-0.245,0.908-0.416
	c0.1,0.521,0.183,0.95,0.27,1.41c-0.401,0.177-0.68,0.3-1.088,0.48C120.99,121.284,120.965,120.857,120.934,120.349z"/>
<path fill-rule="evenodd" clip-rule="evenodd" fill="#f8bfe9" class="fill" d="M122.918,120.935c-0.087-0.104-0.154-0.146-0.161-0.198
	c-0.05-0.371-0.088-0.743-0.136-1.178c0.198-0.11,0.4-0.222,0.655-0.362c0.059,0.191,0.12,0.303,0.124,0.416
	C123.426,120.503,123.422,120.503,122.918,120.935z"/>
</svg>
