<svg version="1.1" id="svg" xmlns="http://www.w3.org/2000/svg" xmlns:xlink="http://www.w3.org/1999/xlink" x="0px" y="0px"
	 width="200px" height="200px" viewBox="0 0 200 200" enable-background="new 0 0 200 200" xml:space="preserve">
<path class="stroke" fill="#6a2906"  fill-rule="evenodd" clip-rule="evenodd" d="M170.286,117.213c-1.554-6.081-2.68-12.282-4.471-18.289
	c-2.992-10.04-5.792-20.087-7.349-30.483c-0.795-5.309-3.204-10.023-7.765-13.322c-3.47-2.512-7.136-4.608-11.271-5.503
	c-1.029-2.583-2.038-5.047-2.996-7.531c-0.819-2.127-2.018-3.68-4.602-3.416c-0.275,0.028-0.575-0.057-0.849-0.137
	c-2.503-0.735-4.988-0.637-7.572,0.147c-1.2,1.441-2.771,1.579-4.626,1.213c-2.896-0.57-5.839-1.262-8.763-1.269
	c-6.812-0.017-13.555,0.659-19.758,3.918c-1.656,0.871-3.508,1.252-5.176,0.286c-2.015-1.168-4.049-0.894-6.07-0.487
	c-3.438,0.692-6.479,2.033-7.522,5.866c-0.054,0.198-0.213,0.367-0.163,0.284c-3.21,1.192-6.176,2.293-9.142,3.396
	c-1.474,0.547-2.642,1.49-3.478,2.812c-2.58,4.083-5.219,8.131-7.691,12.28C46.956,73.81,43.603,81,40.606,88.361
	c-3.601,8.842-6.465,17.921-8.656,27.202c-1.309,5.54-2.443,11.124-3.529,16.713c-0.549,2.828-1.063,5.702-1.153,8.569
	c-0.171,5.47-0.057,10.95,0,16.426c0.025,2.498,1.293,4.176,3.626,5.126c3.955,1.611,8.029,1.632,12.139,0.939
	c0.879-0.146,1.783-0.621,2.5-1.173c2.338-1.8,4.591-3.708,6.885-5.563c0.421-0.341,0.882-0.631,1.472-1.048
	c0.357,1.886,0.673,3.555,0.96,5.064c2.295,1.428,4.598,1.526,6.918,1.419c8.873-0.415,17.727-0.96,26.521-2.369
	c3.389-0.542,6.92-0.555,10.358-0.349c6.409,0.384,12.796,1.143,19.198,1.674c4.415,0.364,8.798-0.103,13.169-0.726
	c4.852-0.69,9.706-1.37,14.564-2.017c1.581-0.21,2.684-0.962,3.27-2.48c0-0.823,0-1.665,0-2.875c0.731,0.468,1.108,0.667,1.44,0.926
	c3.6,2.801,7.646,3.648,12.045,2.602c1.739-0.414,3.394-1.172,5.108-1.701c3.247-1.001,4.806-3.25,4.993-6.562
	c0.018-0.288,0.05-0.575,0.076-0.862C173.425,137.146,172.818,127.117,170.286,117.213z M121.647,47.333
	c-0.036-0.704-0.066-1.275-0.102-1.955c1.038-1.649,2.108-3.351,3.188-5.068c2.692-0.22,5.261-0.307,7.912,0.528
	c3.507,5.564,5.097,11.819,6.753,18.561c-1.82-0.363-3.248-0.675-4.685-0.93c-2.198-0.389-4.399-0.773-6.61-1.076
	c-0.488-0.067-1.026,0.218-1.734,0.387c1.23,4.426,3.54,8.129,5.105,12.39c-3.877,3.317-8.236,6.003-12.281,9.101
	c-4.04,3.094-7.923,6.396-12.131,9.815c-0.245-2.687,0.164-4.935,0.916-7.088c1.806-5.173,3.869-10.26,5.558-15.47
	C115.68,59.919,118.289,53.53,121.647,47.333z M70.387,58.809c0.83-3.138,1.755-6.252,2.571-9.394
	c0.861-3.318,3.258-4.789,6.366-5.346c1.044-0.188,2.149-0.029,3.519-0.029c2.311,4.104,4.606,8.18,6.898,12.258
	c1.236,2.201,2.438,4.423,3.707,6.607c2.405,4.141,4.129,8.563,5.447,13.15c1.115,3.88,2.185,7.774,3.249,11.669
	c0.185,0.678,0.249,1.389,0.456,2.596c-8.871-6.538-15.998-14.482-24.982-20.196c0.342-2.002,1.546-3.476,2.465-5.071
	c0.501-0.872,1.141-1.667,1.748-2.476c0.614-0.82,0.824-1.655,0.128-2.749c-3.756,0.38-7.603,0.769-11.778,1.19
	C70.256,60.134,70.219,59.444,70.387,58.809z M99.453,156.286c-13.368-0.429-26.808-0.392-40.386,1.119
	c-0.172-1.63-0.334-2.973-0.453-4.32c-0.388-4.448-0.853-8.891-1.095-13.347c-0.108-2.001,0.253-4.025,0.385-6.041
	c0.364-5.616,0.941-11.229,1.027-16.848c0.127-8.154-0.073-16.313-0.206-24.47c-0.026-1.634-0.083-3.345-1.341-4.811
	c-0.71,0-1.484,0-2.278,0c-0.447,0.5-0.874,0.979-1.328,1.486c0,1.893-0.194,3.792,0.034,5.638
	c0.992,8.037-0.116,15.823-2.43,23.516c-0.851,2.831-1.249,5.803-2.176,8.604c-2.411,7.282-2.757,14.86-3.485,22.389
	c-0.182,1.864-0.125,3.75-0.25,5.621c-0.144,2.181-1.098,3.97-2.633,5.544c-1.225,1.255-2.631,1.84-4.282,1.529
	c-1.69-0.319-3.416-0.707-4.978-1.398c-2.461-1.091-3.336-3.32-3.282-5.873c0.065-3.028,0.162-6.066,0.46-9.078
	c0.595-6.03,1.317-12.047,2.021-18.064c0.453-3.866,0.748-7.771,1.513-11.579c0.836-4.161,2.031-8.259,3.255-12.329
	c1.288-4.283,2.695-8.537,4.245-12.731c1.069-2.898,2.474-5.672,3.722-8.504c0.873-1.978,1.625-4.019,2.63-5.927
	c1.975-3.75,4.058-7.447,6.153-11.133c2.827-4.975,7.195-8.191,12.279-10.551c0.509-0.236,1.062-0.371,1.987-0.686
	c-0.266,3.574-1.501,6.667-1.949,9.808c0.487,1.036,1.3,0.81,2.097,0.8c2.877-0.033,5.755-0.013,8.905-0.013
	c-0.833,3.174-3.781,5.301-4.193,8.752c0.841,1.657,2.262,3.003,4.079,3.792c2.693,1.17,4.903,2.974,7.193,4.749
	c4.962,3.843,10.076,7.491,15.127,11.22c0.402,0.297,0.797,0.603,0.952,0.722C102.405,114.828,101.635,135.496,99.453,156.286z
	 M102.873,155.96c-0.688-1.011-0.64-1.997-0.548-2.975c0.441-4.661,1.059-9.312,1.311-13.983c0.354-6.558,0.552-13.128,0.602-19.694
	c0.039-5.126-0.287-10.252-0.38-15.379c-0.052-2.886,0.037-5.773,0.078-8.66c0.004-0.264,0.118-0.527,0.218-0.938
	C106.211,99.047,105.396,146.691,102.873,155.96z M104.472,44.935c-0.175-0.013-0.35-0.025-0.524-0.038
	c-0.216,1.099-0.6,2.196-0.612,3.298c-0.042,3.392,0.037,6.785,0.113,10.178c0.044,1.949,0.209,3.897,0.238,5.846
	c0.008,0.563-0.268,1.13-0.717,1.668c-0.974-3.248-0.611-6.543-0.723-9.805c-0.109-3.232-0.249-6.463-0.392-10.121
	c-1.181,1.262-1.285,2.425-1.296,3.579c-0.037,3.321-0.025,6.643-0.03,9.963c-0.003,1.699-0.001,3.397-0.001,5.192
	c-1.203-0.457-1.058-1.24-1.092-2.041c-0.209-4.688-0.463-9.375-0.731-14.06c-0.031-0.533-0.245-1.055-0.576-1.567
	c-1.662,4.092-0.419,8.338-0.647,12.543c-0.992-0.204-0.845-0.923-0.886-1.519c-0.247-3.602-0.48-7.206-0.731-10.808
	c-0.013-0.2-0.137-0.394-0.359-0.997c-0.433,0.642-0.896,1.028-0.947,1.464c-0.16,1.35-0.206,2.717-0.217,4.079
	c-0.008,0.99,0.11,1.979-0.008,2.991c-1.514-2.146-0.739-4.816-1.487-7.123c-0.171-0.012-0.343-0.023-0.514-0.035
	c-0.292,1.046-0.584,2.09-0.97,3.471c-1.166-1.544-2.144-2.835-3.236-4.283c0.593-0.385,1.073-0.836,1.644-1.047
	c5.831-2.161,11.714-4.168,18.005-4.399c3.566-0.131,7.01,0.55,10.223,2.044c0.189,1.68-1.451,1.44-2.077,2.202
	c-0.321,2.81-0.321,2.81-1.18,3.846c-0.96-2.009,0.324-4.39-1.304-6.409c-0.811,2.124-0.354,4.169-0.714,6.09
	c-0.342,1.828,1.122,3.747-0.349,5.772c-1.361-2.814,0.229-5.937-1.543-8.723c-1,1.641-0.83,3.099-0.806,4.492
	c0.037,2.166,0.225,4.328,0.345,6.492c0.059,1.088,0.1,2.172-1.367,2.964c-0.585-2.824-0.376-5.554-0.505-8.248
	c-0.126-2.63-0.183-5.264-0.282-8.297c-1.342,1.746-1.496,3.459-1.485,5.117c0.028,3.895,0.214,7.789,0.348,11.682
	c0.03,0.856,0.108,1.71,0.168,2.62c-0.526,0.148-0.925,0.261-1.601,0.451C105.248,57.19,104.86,51.062,104.472,44.935z
	 M169.099,141.012c-0.754,1.055-1.428,2.167-2.138,3.252c-1.194,1.824-3.078,2.496-5.364,3.105c-0.542-0.633-1.371-1.28-1.778-2.129
	c-1.043-2.17-2.105-4.338-3.1-6.532c3.013-0.044,5.935,0.118,8.747-1.355c0.059-3.552,0.236-7.021-0.285-10.683
	c-3.51,0.432-6.768,0.831-10.304,1.267c-0.548-2.408-0.188-4.819-1.532-7.053c-0.118,0.056-0.238,0.104-0.358,0.152
	c-0.614-6.792-1.179-13.589-1.863-20.375c-0.331-3.284-0.667-6.572-1.824-9.756c-0.501-1.382-0.087-3.123,0.024-4.693
	c0.108-1.528,0.02-2.886-1.698-3.592c-1.57,0.811-1.959,2.269-2.025,3.795c-0.08,1.873,0.072,3.754,0.036,5.63
	c-0.105,5.34-0.342,10.679-0.364,16.02c-0.022,5.41,0.163,10.821,0.23,16.231c0.02,1.556,0.036,3.111,0.041,4.667
	c-1.054,1.382-2.098,2.772-3.145,4.158c-0.285,0.377-0.501,0.809-0.763,1.242c0.594,0.511,1.074,0.938,1.57,1.349
	c0.738,0.612,1.476,1.226,2.213,1.839c-0.082,3.52-0.179,7.04-0.302,10.559c-0.076,2.155-0.299,4.307-0.462,6.558
	c-12.799,1.605-25.562,0.482-38.214,1.356c0.52-10.624,1.292-20.919,1.453-31.225c0.16-10.237,0.067-20.499-1.523-30.808
	c2.827-0.84,4.123-3.464,6.245-5.13c3.685-2.895,7.148-6.109,11.02-8.72c4.109-2.771,8.587-4.995,12.9-7.461
	c0.12-0.068,0.216-0.18,0.585-0.497c-0.624-2.659-2.604-4.884-3.616-7.727c2.918-0.261,5.677-0.509,8.449-0.757
	c0.609-3.112-0.921-5.722-1.003-8.721c4.71,2.019,8.918,4.202,10.631,9.352c0.979,2.944,1.847,5.879,2.375,8.961
	c0.458,2.674,1.54,5.255,2.472,7.832c1.224,3.392,2.729,6.689,3.825,10.119c1.47,4.602,2.729,9.275,3.957,13.949
	c1.045,3.978,1.966,7.988,2.853,12.005c0.935,4.227,1.795,8.472,2.627,12.722c0.318,1.624,0.443,3.286,0.711,4.922
	C170.767,137.074,170.441,139.135,169.099,141.012z"/>
<path class="stroke" fill="#6a2906"  fill-rule="evenodd" clip-rule="evenodd" d="M93.74,116.605c1.146,3.2,1.085,6.355,1.144,9.518
	c-0.792,0.555-1.489,1.043-2.191,1.534c0,1.329-0.025,2.617,0.005,3.901c0.09,3.76,0.11,7.504-1.21,11.112
	c-1.721,4.704-5.288,7.286-9.963,8.38c-2.299,0.539-4.705,0.747-7.072,0.832c-3.425,0.125-6.354-1.121-8.559-3.834
	c-0.359-0.442-0.738-0.916-0.932-1.439c-1.254-3.393-2.314-6.811-2.184-10.517c0.076-2.146-0.185-4.304-0.291-6.402
	c-0.643-0.375-1.127-0.658-1.664-0.972c0.296-3.41,0.423-6.797,2.082-9.984c0.983-1.165,2.295-1.613,3.95-1.53
	c3.084,0.154,6.179,0.225,9.265,0.158c2.516-0.055,5.023-0.368,7.535-0.553c2.588-0.192,5.174-0.402,7.766-0.524
	C92.178,116.249,92.947,116.488,93.74,116.605z M66.271,127.313c-0.189,0.774-0.428,1.257-0.403,1.728
	c0.194,3.738,0.312,7.49,0.73,11.205c0.172,1.526,0.891,3.045,1.605,4.443c1.128,2.208,3.039,3.382,5.545,3.602
	c3.232,0.281,6.376-0.097,9.294-1.492c2.981-1.426,5.152-3.624,5.858-7.044c0.851-4.119,1.047-8.293,1.187-12.475
	c0.013-0.395-0.133-0.794-0.229-1.325c-0.692,0.16-1.27,0.214-1.779,0.428c-2.059,0.86-4.291,1.491-6.098,2.734
	c-2.4,1.651-4.71,1.336-7.175,0.632c-0.901-0.259-1.785-0.577-2.687-0.832C70.255,128.393,68.382,127.89,66.271,127.313z
	 M91.966,118.497c-9.024,1.295-17.646,2.349-26.531,1.369c-0.232,1.88-0.43,3.492-0.621,5.038c0.354,0.234,0.514,0.402,0.706,0.456
	c3.461,0.973,6.939,1.893,10.387,2.911c1.915,0.565,3.567,0.285,5.331-0.69c3.151-1.744,6.449-3.219,10.067-3.786
	c0.261-0.041,0.497-0.242,0.661-0.325C91.966,121.814,91.966,120.276,91.966,118.497z"/>
<path class="stroke" fill="#6a2906"  fill-rule="evenodd" clip-rule="evenodd" d="M112.314,126.697c-0.915-0.837-1.704-1.562-2.707-2.479
	c0.251-2.533,0.52-5.237,0.812-8.181c1.159-0.261,2.171-0.633,3.203-0.697c5.828-0.361,11.663-0.627,17.492-0.975
	c1.654-0.099,3.313-0.274,4.939-0.578c1.493-0.279,2.857-0.084,4.444,0.647c0.547,2.98,0.72,6.106,0.688,9.407
	c-0.688,0.231-1.342,0.45-2.238,0.751c0.041,0.622,0.016,1.322,0.145,1.995c0.846,4.435,0.938,8.886,0.304,13.348
	c-0.161,1.139-0.374,2.289-0.741,3.373c-0.541,1.596-1.408,3.021-2.955,3.867c-2.082,1.137-4.104,2.437-6.297,3.307
	c-3.259,1.294-6.65,1.255-9.904-0.156c-3.415-1.482-5.759-3.792-6.537-7.714c-0.658-3.312-0.613-6.595-0.645-9.907
	C112.299,130.76,112.314,128.814,112.314,126.697z"/>
<path fill-rule="evenodd" clip-rule="evenodd" fill="#ffe861" class="fill" d="M161.95,129.85c-0.065,1.445-0.116,2.566-0.172,3.78
	c-2.947,1.29-6.23,0.484-9.326,1.336c-0.137,0.927-0.261,1.76-0.426,2.869c-2.545-1.226-4.598-2.91-6.951-4.699
	c2.113-2.584,4.089-4.997,6.4-7.821c0.304,1.812,0.531,3.164,0.809,4.819c0.68,0.093,1.413,0.315,2.13,0.269
	c1.502-0.097,2.993-0.368,4.494-0.5C159.825,129.821,160.754,129.866,161.95,129.85z"/>
<path fill-rule="evenodd" clip-rule="evenodd" fill="#ffe861" class="fill" d="M114.577,126.151c3.861,1.662,7.466,3.214,11.204,4.822
	c2.849-2.713,6.11-4.595,9.997-6.357c0.07,3.327,0.279,6.266,0.146,9.187c-0.098,2.146-0.634,4.271-1.001,6.401
	c-0.085,0.492-0.173,1.036-0.44,1.436c-2.28,3.404-5.463,5.507-9.515,6.061c-0.961,0.132-2.063-0.438-3.046-0.827
	c-4.466-1.771-6.359-5.465-7.003-9.895c-0.413-2.849-0.488-5.747-0.66-8.625C114.224,127.746,114.429,127.124,114.577,126.151z"/>
<path fill-rule="evenodd" clip-rule="evenodd" fill="#ffe861" class="fill" d="M137.241,116.269c0.124,2.002,0.225,3.643,0.315,5.091
	c-4.203,2.455-8.222,4.803-12.521,7.315c-3.752-1.577-7.847-3.299-12.119-5.094c0-1.637,0-3.338,0-5.331
	c3.981-0.829,8.108-0.266,12.13-0.873C128.992,116.781,132.925,115.849,137.241,116.269z"/>
</svg>
