<svg version="1.1" id="svg" xmlns="http://www.w3.org/2000/svg" xmlns:xlink="http://www.w3.org/1999/xlink" x="0px" y="0px"
	 width="200px" height="200px" viewBox="0 0 200 200" enable-background="new 0 0 200 200" xml:space="preserve">
<path class="stroke" fill="#58281d"  d="M152.327,122.412c-0.962-0.453-1.991-0.768-2.946-1.234c-1.689-0.825-3.479-1.241-5.325-1.49
	c-0.342-0.046-0.678-0.138-1.129-0.232c0.282-0.547,0.544-0.97,0.726-1.425c0.66-1.649,1.531-3.263,1.876-4.979
	c0.445-2.218,0.535-4.519,0.634-6.789c0.052-1.194-0.192-2.403-0.32-3.603c-0.134-1.247-0.415-2.452-1.037-3.562
	c-0.348-0.62-0.675-1.254-0.974-1.898c-1.074-2.316-2.577-4.35-4.273-6.225c-1.312-1.45-2.794-2.73-4.434-3.836
	c-2.967-2.002-6.054-3.786-9.478-4.838c-2.237-0.688-4.569-1.069-6.865-1.556c-1.644-0.349-3.313-0.482-4.992-0.365
	c-2.771,0.194-5.54,0.414-8.309,0.628c-2.391,0.184-4.763,0.54-6.947,1.556c-2.129,0.989-4.193,2.123-6.258,3.244
	c-1.939,1.053-3.795,2.267-5.773,3.233c-1.884,0.92-3.889,1.59-5.823,2.411c-1.637,0.696-3.282,1.388-4.862,2.199
	c-1.264,0.649-2.453,1.452-3.645,2.232c-1.694,1.11-3.445,2.129-4.779,3.733c-1.635,1.967-3.04,4.051-3.792,6.509
	c-0.363,1.188-0.565,2.425-0.861,3.635c-0.406,1.658-0.365,3.315-0.028,4.975c0.369,1.814,0.874,3.582,1.528,5.324
	c0.811,2.162,1.72,4.199,3.524,5.749c2.728,2.345,5.646,4.288,9.183,5.248c3.108,0.844,6.285,1.225,9.452,1.686
	c2.898,0.421,5.822,0.416,8.747,0.427c1.952,0.007,3.943-0.255,5.847,0.283c1.353,0.383,2.708,0.54,4.089,0.625
	c0.036,0.002,0.071,0.007,0.106,0.016c1.92,0.469,3.866,0.511,5.829,0.419c1.886-0.09,3.777-0.061,5.662-0.171
	c2.059-0.12,4.11-0.444,6.168-0.491c2.059-0.048,4.121,0.18,6.184,0.207c1.487,0.019,2.985-0.005,4.462-0.167
	c2.368-0.26,4.715-0.71,7.083-0.966c2.138-0.23,4.208-0.729,6.232-1.395c2.15-0.706,4.075-1.855,5.798-3.34
	c0.804-0.692,1.219-1.59,1.337-2.587C154.107,124.222,153.668,123.045,152.327,122.412z"/>
<path fill-rule="evenodd" clip-rule="evenodd" fill="#e3a13b" class="fill" d="M105.76,129.207c-0.323,0.022-0.626,0.043-0.917,0.062
	c-0.287-1.181-0.092-2.471,0.893-6.054c-0.192-0.099-0.396-0.204-0.651-0.335c-0.762,0.961-0.772,2.098-0.979,3.157
	c-0.204,1.043-0.312,2.104-0.471,3.21c-0.235,0.041-0.468,0.081-0.841,0.146c-0.115-2.011,0.302-3.921,0.422-5.888
	c-0.212-0.075-0.398-0.142-0.702-0.25c-0.679,2.042-0.321,4.146-0.827,6.282c-0.297,0.062-0.693,0.145-1.206,0.253
	c-0.227-1.178-0.071-2.268,0.021-3.348c0.072-0.851,0.247-1.69,0.355-2.537c0.035-0.273,0.005-0.554,0.005-0.883
	c-0.25-0.06-0.438-0.104-0.687-0.163c-0.749,2.286-0.595,4.617-0.766,6.914c-0.109,0.058-0.198,0.143-0.29,0.146
	c-0.206,0.008-0.413-0.026-0.701-0.05c-0.271-1.146-0.101-2.281-0.062-3.406c0.04-1.134,0.16-2.266,0.247-3.432
	c-0.293-0.132-0.494-0.223-0.794-0.357c-0.419,2.417-0.437,4.746-0.293,7.189c-0.373,0.022-0.66,0.039-0.911,0.054
	c-0.492-1.116-0.5-3.218-0.063-6.048c-0.101-0.057-0.213-0.137-0.339-0.181c-0.094-0.033-0.204-0.021-0.36-0.034
	c-0.65,0.953-0.46,2.045-0.461,3.086c-0.002,1.02,0.103,2.039,0.167,3.152c-0.388-0.053-0.687-0.095-1.007-0.139
	c-0.438-1.956-0.45-3.862-0.141-5.802c-0.059-0.068-0.115-0.163-0.197-0.218c-0.083-0.056-0.193-0.073-0.349-0.128
	c-0.118,0.16-0.329,0.313-0.345,0.485c-0.095,1.022-0.199,2.05-0.194,3.075c0.003,0.775,0.165,1.55,0.271,2.439
	c-0.408,0-0.761,0-1.148,0c-0.786-2.073-0.703-4.151-0.348-6.181c-0.188-0.131-0.267-0.214-0.363-0.244
	c-0.096-0.03-0.208-0.006-0.411-0.006c-0.662,2.059-0.525,4.105,0.151,6.25c-0.508,0-0.934,0-1.396,0
	c-0.653-2.107-0.693-4.229-0.62-6.305c-0.21-0.111-0.297-0.188-0.393-0.2c-0.133-0.018-0.273,0.013-0.456,0.024
	c-0.394,2.135,0.084,4.189,0.411,6.331c-0.446,0-0.816,0-1.271,0c-0.621-2.409-0.812-4.829-0.558-7.31
	c-0.156-0.076-0.273-0.157-0.402-0.188c-0.094-0.022-0.204,0.02-0.415,0.049c-0.614,2.477,0.078,4.895,0.493,7.402
	c-0.323,0.016-0.552,0.026-0.89,0.041c-0.891-2.619-1.044-5.293-0.896-7.996c-0.103-0.081-0.177-0.167-0.27-0.206
	c-0.093-0.038-0.206-0.03-0.452-0.06c-0.573,2.726,0.052,5.346,0.637,8.046c-0.354,0-0.652,0-1.006,0
	c-0.603-1.208-0.737-2.529-0.921-3.82c-0.183-1.294-0.213-2.609-0.316-3.987c-0.203-0.013-0.428-0.025-0.761-0.045
	c-0.338,2.657,0.41,5.12,0.937,7.677c-0.336,0-0.604,0-0.97,0c-0.719-2.499-1.181-5.031-0.994-7.71
	c-0.264-0.067-0.479-0.123-0.844-0.217c-0.451,2.641,0.402,5.058,0.798,7.571c-0.206,0-0.342,0.019-0.472-0.004
	c-0.208-0.036-0.411-0.099-0.694-0.169c-0.614-2.145-0.981-4.334-0.911-6.644c-0.29,0-0.484,0-0.762,0
	c-0.398,1.042-0.095,2.11,0.011,3.145c0.108,1.05,0.422,2.077,0.671,3.231c-0.393-0.025-0.687-0.045-1.027-0.067
	c-0.511-1.899-0.622-3.772-0.586-5.757c-0.298,0-0.542,0-0.81,0c-0.281,1.818,0.225,3.523,0.283,5.394
	c-0.429-0.13-0.78-0.236-1.153-0.35c-0.36-1.561-0.343-3.075-0.091-4.726c-0.274-0.076-0.534-0.15-0.84-0.236
	c-0.44,1.563-0.127,3.021-0.163,4.578c-0.513-0.171-0.907-0.301-1.33-0.441c-0.32-1.229-0.221-2.428-0.095-3.69
	c-0.213-0.087-0.422-0.173-0.665-0.272c-0.676,1.112-0.281,2.264-0.28,3.564c-0.476-0.221-0.829-0.384-1.2-0.556
	c0-0.986,0-1.903,0-2.876c-0.026-0.022-0.098-0.13-0.188-0.147c-0.16-0.031-0.33-0.009-0.588-0.009
	c-0.083,0.644-0.158,1.226-0.258,2.005c-0.525-0.467-0.956-0.851-1.364-1.214c0.111-0.719,0.207-1.34,0.314-2.032
	c-0.273-0.028-0.471-0.049-0.723-0.075c-0.132,0.298-0.254,0.571-0.414,0.93c-0.865-0.893-1.655-1.731-1.989-2.91
	c-0.31-1.096-0.699-2.169-0.994-3.268c-0.442-1.649-0.337-3.325-0.083-4.988c0.247-1.615,0.466-3.243,0.863-4.825
	c0.201-0.8,0.705-1.549,1.177-2.251c1.995-2.963,4.489-5.46,7.504-7.357c1.738-1.094,3.628-1.972,5.512-2.807
	c3.711-1.645,7.499-3.116,11.186-4.81c1.737-0.798,3.316-1.941,4.966-2.931c1.62-0.973,3.255-1.916,5.084-2.449
	c0.476-0.139,0.973-0.207,1.465-0.282c1.617-0.248,3.25-0.417,4.851-0.745c1.434-0.293,2.839-0.595,4.325-0.492
	c1.168,0.081,2.352,0.006,3.525-0.057c2.528-0.133,4.95,0.455,7.353,1.094c1.608,0.428,3.175,1.014,4.758,1.536
	c0.165,0.056,0.312,0.162,0.492,0.258c-0.601,1.241,0.217,2.142,0.611,3.217c0.792-0.22,0.705-0.699,0.585-1.193
	c-0.106-0.438-0.214-0.874-0.375-1.538c0.656,0.261,1.174,0.381,1.6,0.649c2.682,1.688,5.368,3.388,7.638,5.623
	c1.648,1.623,3.297,3.283,4.472,5.292c0.6,1.026,0.95,2.215,1.292,3.366c0.094,0.317-0.185,0.806-0.408,1.14
	c-0.209,0.312-0.571,0.524-0.881,0.796c-0.208,0.636-0.444,1.278,0.086,2.004c0.253,0.147,0.588,0.343,0.931,0.543
	c0.537,1.68,0.242,3.327-0.159,5.058c-0.432-0.4-0.788-0.731-1.143-1.062c-0.086,0.045-0.173,0.09-0.26,0.136
	c0.028,0.249,0.014,0.512,0.094,0.743c0.15,0.436,0.35,0.855,0.536,1.278c0.539,1.223,0.012,2.26-0.536,3.467
	c-0.532-1.216-0.298-2.531-1.236-3.396c-0.096-0.089-0.318-0.042-0.687-0.078c0.724,1.747,0.924,3.449,0.948,5.241
	c-0.268,0.278-0.545,0.567-0.986,1.026c-0.12-1.838-0.126-3.438-0.832-4.898c-0.051-0.105-0.296-0.118-0.415-0.161
	c-0.447,0.331-0.253,0.69-0.195,1.024c0.24,1.365,0.645,2.708,0.5,4.122c-0.072,0.7-0.143,1.391-0.867,2.127
	c0-1.202,0.092-2.181-0.025-3.134c-0.117-0.941-0.444-1.856-0.69-2.826c-0.319-0.068-0.569-0.123-0.788-0.17
	c-0.087,0.146-0.144,0.201-0.151,0.264c-0.013,0.104-0.022,0.223,0.017,0.314c0.828,1.938,0.668,3.971,0.635,6.004
	c-0.019,1.134-0.669,1.791-1.489,2.579c0.123-1.414,0.356-2.678,0.308-3.931c-0.049-1.266-0.376-2.521-0.578-3.758
	c-0.312-0.103-0.504-0.167-0.705-0.233c-0.08,0.133-0.188,0.228-0.176,0.306c0.069,0.49,0.155,0.979,0.253,1.464
	c0.417,2.061,0.254,4.109-0.05,6.166c-0.154,1.044-0.77,1.509-1.842,1.761c0.106-0.619,0.174-1.142,0.287-1.654
	c0.379-1.733,0.335-3.468,0.056-5.207c-0.064-0.398-0.126-0.799-0.833-0.682c0.102,2.718,0.321,5.467-0.748,8.193
	c-0.235,0.1-0.551,0.233-1.045,0.443c0.425-2.425,0.678-4.705,0.424-7.03c-0.111-0.091-0.206-0.206-0.328-0.256
	c-0.117-0.048-0.263-0.026-0.397-0.035c-0.061,0.137-0.147,0.234-0.139,0.323c0.182,1.931,0.075,3.846-0.309,5.743
	c-0.099,0.485-0.274,0.957-0.437,1.427c-0.078,0.226-0.208,0.434-0.314,0.649c-0.114-0.08-0.228-0.159-0.342-0.239
	c0.042-0.296,0.096-0.591,0.125-0.889c0.157-1.593,0.326-3.183,0.449-4.777c0.032-0.418-0.035-0.863-0.154-1.267
	c-0.071-0.24-0.333-0.423-0.509-0.632c-0.097,0.034-0.193,0.068-0.291,0.103c0,1.33,0.073,2.664-0.02,3.986
	c-0.095,1.342-0.353,2.673-0.537,3.987c-0.346,0.174-0.591,0.297-0.871,0.438c-0.037-0.158-0.089-0.259-0.077-0.35
	c0.236-1.728,0.5-3.452,0.71-5.183c0.055-0.45-0.008-0.929-0.098-1.378c-0.044-0.224-0.274-0.41-0.419-0.613
	c-0.091,0.021-0.183,0.042-0.273,0.063c-0.054,0.358-0.129,0.715-0.159,1.075c-0.127,1.56-0.202,3.125-0.377,4.679
	c-0.082,0.732-0.347,1.444-0.543,2.224c-0.46,0.201-0.888,0.387-1.41,0.615c0.323-1.834,0.627-3.501,0.906-5.173
	c0.123-0.736,0.22-1.479,0.276-2.223c0.039-0.518-0.001-0.521-0.731-0.837c-0.088,0.498-0.208,0.962-0.248,1.432
	c-0.184,2.171-0.513,4.314-1.092,6.416c-0.056,0.204-0.141,0.4-0.24,0.677c-0.36,0.121-0.75,0.254-1.353,0.457
	c0.327-0.995,0.638-1.807,0.855-2.641c0.222-0.858,0.398-1.735,0.509-2.614s0.118-1.77,0.173-2.713
	c-0.22-0.1-0.428-0.194-0.763-0.347c-0.08,0.621-0.175,1.138-0.207,1.659c-0.115,1.859-0.407,3.683-1.077,5.43
	c-0.151,0.395-0.331,0.796-0.584,1.129c-0.182,0.237-0.508,0.365-0.872,0.464c0.611-2.57,1.246-5.073,1.142-7.724
	c-0.174-0.09-0.346-0.178-0.665-0.342c-0.105,0.784-0.177,1.443-0.285,2.096c-0.26,1.576-0.528,3.15-0.815,4.722
	c-0.057,0.311-0.208,0.605-0.334,0.9c-0.159,0.37-0.412,0.578-0.938,0.381c0.136-0.909,0.312-1.839,0.407-2.776
	c0.132-1.309,0.209-2.624,0.297-3.938c0.027-0.41-0.025-0.795-0.712-0.852c-0.048,0.361-0.105,0.726-0.145,1.091
	c-0.189,1.769-0.359,3.539-0.57,5.305c-0.045,0.379-0.191,0.763-0.371,1.102c-0.09,0.171-0.358,0.247-0.546,0.367
	c-0.074-0.039-0.148-0.077-0.223-0.116c0.053-0.359,0.08-0.726,0.165-1.077c0.439-1.811,0.636-3.647,0.647-5.507
	c0.003-0.453,0-0.945-0.792-1.008c-0.169,2.506-0.05,5.014-1.019,7.436c-0.407,0-0.847,0-1.291,0
	c0.319-2.096,0.627-4.119,0.939-6.16c-0.301-0.154-0.473-0.243-0.651-0.335c-0.106,0.123-0.221,0.194-0.233,0.28
	c-0.092,0.633-0.2,1.267-0.232,1.903c-0.076,1.474-0.425,2.877-1,4.31c-0.408,0.025-0.816,0.051-1.315,0.081
	c0.244-1.403,0.474-2.688,0.688-3.975c0.111-0.667,0.196-1.338,0.29-2.007c0.053-0.378,0.045-0.725-0.581-0.825
	c-0.806,2.175-0.568,4.616-1.583,6.86c-0.322-0.032-0.65-0.064-1.074-0.107c0.342-2.058,0.667-4.016,1.005-6.046
	c-0.156-0.11-0.34-0.241-0.676-0.479c-0.083,0.166-0.177,0.289-0.206,0.424c-0.167,0.802-0.344,1.602-0.469,2.41
	c-0.186,1.192-0.33,2.391-0.502,3.663c-0.424,0-0.782,0-1.323,0c0.412-2.049,0.793-3.996,1.198-5.939
	c0.147-0.708,0.17-0.704-0.502-1.125C106.238,124.291,106.285,126.784,105.76,129.207z M115.721,104.203
	c0.202-1.103,0.534-2.155,0.312-3.282c-0.177-0.897-0.313-1.059-1.381-1.236c-0.357,0.812-0.724,1.646-1.11,2.523
	c0.518,0.715,1.011,1.394,1.531,2.112C115.285,104.282,115.483,104.246,115.721,104.203z M104.358,111.8
	c0.083,0.07,0.168,0.142,0.252,0.213c0.203-0.138,0.515-0.23,0.591-0.419c0.829-2.044,1.084-4.15,0.647-6.492
	c-0.432,0.104-0.759,0.183-0.992,0.238c0,1.229,0.064,2.298-0.019,3.354C104.756,109.735,104.524,110.766,104.358,111.8z
	 M137.271,102.178c-0.583,0.564-0.675,1.201-0.621,1.892c0.055,0.692,0.098,1.386,0.162,2.312c0.04,0.036,0.259,0.238,0.469,0.433
	c0.939-0.362,1.229-1.057,1.22-1.88C138.49,103.896,138.656,102.752,137.271,102.178z M127.3,109.42
	c-0.083,0.045-0.167,0.088-0.25,0.132c0,0.305-0.017,0.61,0.003,0.913c0.048,0.741,0.164,1.482,0.159,2.223
	c-0.009,1.273-0.105,2.548-0.128,3.822c-0.006,0.344,0.118,0.691,0.181,1.037c0.079-0.003,0.158-0.006,0.237-0.008
	c0.084-0.213,0.23-0.422,0.241-0.639c0.109-2.051,0.206-4.103,0.278-6.155c0.01-0.308-0.077-0.644-0.209-0.923
	C127.729,109.646,127.476,109.552,127.3,109.42z M128.747,107.917c0.154,1.557,0.326,2.968,0.422,4.384
	c0.064,0.954,0.018,1.916,0.031,2.873c0.004,0.28-0.008,0.6,0.535,0.541c0.506-2.607,0.273-5.193-0.257-7.83
	C129.209,107.896,129.015,107.906,128.747,107.917z M84.529,111.329c-0.261-0.056-0.475-0.1-0.823-0.173
	c-0.482,2.722,0.16,5.113,1.309,7.425c0.218-0.021,0.326-0.013,0.42-0.046c0.095-0.032,0.177-0.105,0.282-0.171
	C84.734,116.125,84.024,113.908,84.529,111.329z M113.047,113.903c-0.716,0.194-0.756,0.194-0.963,0.729
	c-0.45,1.156-0.488,2.327-0.133,3.479c0.623,0.205,0.958-0.057,1.106-0.493c0.192-0.566,0.342-1.158,0.414-1.751
	C113.552,115.208,113.646,114.509,113.047,113.903z M72.677,109.182c1.015-0.229,1.52-0.984,1.669-2.497
	c0.09-0.916,0.09-0.916-0.701-1.261C72.359,106.297,71.904,108.065,72.677,109.182z M95.976,115.371
	c-0.721,1.183-0.745,2.805-0.114,4.03c0.729,0.005,0.97-0.552,1.079-1.096c0.188-0.935,0.193-1.886-0.204-2.83
	C96.472,115.439,96.239,115.408,95.976,115.371z M124.642,118.104c0.561,0.098,0.774-0.127,0.81-0.483
	c0.184-1.834,0.363-3.669,0.196-5.566c-0.24-0.061-0.458-0.116-0.777-0.196C124.793,113.989,124.718,116.026,124.642,118.104z
	 M115.32,83.553c0.914,1.891,1.739,3.604,2.575,5.312c0.069,0.142,0.215,0.245,0.413,0.463c0.559-1.037-0.063-1.802-0.352-2.562
	C117.255,84.917,116.376,83.819,115.32,83.553z M131.133,95.324c0.091-1.186-0.197-2.122-0.808-2.922
	c-0.179-0.235-0.654-0.244-1.056-0.378c-0.559,1.447,0.317,2.343,0.773,3.42C130.416,95.403,130.715,95.37,131.133,95.324z
	 M121.601,90.067c0.346-0.396,0.208-0.731,0.096-1.064c-0.331-0.979-0.621-1.974-1.015-2.926c-0.213-0.516-0.58-0.977-0.925-1.426
	c-0.207-0.269-0.474-0.548-0.879-0.377c-0.049,0.089-0.129,0.179-0.111,0.208c1.052,1.693,1.871,3.494,2.514,5.378
	C121.306,89.938,121.45,89.974,121.601,90.067z M121.032,84.244c0.844,1.862,1.652,3.649,2.465,5.435
	c0.072,0.157,0.166,0.309,0.268,0.449c0.029,0.041,0.124,0.034,0.337,0.085c-0.038-2.024-1.041-3.625-1.982-5.242
	C121.908,84.608,121.773,84.068,121.032,84.244z M78.977,106.846c-0.682-0.457-0.992-0.453-1.347,0.082
	c-0.594,0.896-0.779,1.854-0.275,3.002c0.425-0.178,0.796-0.333,1.234-0.516C78.718,108.562,78.842,107.737,78.977,106.846z
	 M81.691,111.98c-0.088,0.236-0.194,0.375-0.177,0.497c0.229,1.646,0.467,3.293,0.736,4.934c0.021,0.127,0.289,0.214,0.688,0.49
	c-0.256-2.094-0.48-3.93-0.713-5.837C82.095,112.044,81.932,112.019,81.691,111.98z M122.134,118.716
	c0.891-0.141,0.891-0.69,0.952-1.157c0.155-1.191,0.276-2.388,0.428-3.73c-0.249-0.091-0.528-0.191-0.937-0.34
	C122.423,115.314,122.284,116.947,122.134,118.716z M69.486,104.907c-0.33,0.945-0.647,1.755-0.892,2.587
	c-0.249,0.842-0.808,1.591-0.925,2.674c0.366-0.182,0.616-0.221,0.708-0.363c0.889-1.374,1.366-2.922,1.918-4.504
	C70.069,105.189,69.891,105.104,69.486,104.907z M113.629,84.066c0.703,1.563,1.375,3.06,2.125,4.73
	c0.175-0.305,0.387-0.499,0.366-0.663c-0.181-1.432-0.66-2.754-1.56-3.901C114.318,83.923,114.026,83.765,113.629,84.066z
	 M104.25,95.345c0.207-0.115,0.486-0.177,0.586-0.345c0.46-0.772-0.282-2.699-1.163-3.089c-0.049-0.021-0.132,0.032-0.238,0.062
	c-0.479,0.752-0.225,1.54-0.075,2.288C103.658,94.623,103.923,94.947,104.25,95.345z M67.789,104.976
	c-1.375,1.27-2.07,3.515-1.318,4.423c0.599-1.375,1.176-2.701,1.784-4.098C68.148,105.227,67.986,105.113,67.789,104.976z
	 M120.843,115.445c-0.333,1.453-0.693,2.773-0.748,4.294c0.311-0.135,0.547-0.161,0.595-0.27c0.548-1.239,0.708-2.567,1.002-3.96
	C121.346,115.484,121.151,115.469,120.843,115.445z M122.658,96.121c0.773,0.021,0.822-0.502,0.817-1.002
	c-0.012-1.224-0.433-1.849-1.321-2.045C121.813,93.786,121.949,94.648,122.658,96.121z M82.033,98.08
	c-0.937,0.179-1.215,0.367-1.374,1.062c-0.095,0.419-0.054,0.868-0.074,1.32c0.34,0.065,0.538,0.104,0.846,0.163
	c0.414-0.586,0.828-1.172,1.242-1.758C82.398,98.529,82.225,98.315,82.033,98.08z M124.772,103.56
	c-0.522,0.614-0.72,1.893-0.31,2.523c0.15,0.065,0.394,0.17,0.617,0.267C126.004,105.242,125.85,104.051,124.772,103.56z
	 M102.114,104.612c-0.248-0.196-0.509-0.404-0.767-0.608c-0.856,1.012-0.883,1.995-0.151,2.791
	C102.149,106.449,102.212,106.311,102.114,104.612z M110.74,84.068c0.694,1.231,1.335,2.369,2.005,3.556
	c0.421-0.561,0.443-0.568,0.363-0.799c-0.403-1.16-0.761-2.354-1.935-3.05C111.022,83.878,110.911,83.952,110.74,84.068z
	 M66.608,116.294c-0.186-1.467-0.357-2.815-0.532-4.187c-0.085-0.034-0.177-0.091-0.274-0.103c-0.099-0.013-0.204,0.02-0.301,0.031
	C65.148,113.574,65.628,115.627,66.608,116.294z M96.38,93.793c-0.264,0.047-0.514,0.092-0.803,0.143
	C95.57,95,95.49,95.979,96.24,96.782C97.115,96.146,97.16,95.366,96.38,93.793z M80.086,114.127
	c-0.177-0.027-0.371-0.058-0.67-0.104c-0.188,1.29,0.204,2.369,0.719,3.413c0.069,0.14,0.357,0.171,0.683,0.314
	C80.558,116.459,80.336,115.364,80.086,114.127z M87.809,96.093c0.931-1.617,0.944-1.763,0.239-2.27
	c-1.115,0.579-1.412,1.176-1.094,2.311C87.243,96.119,87.547,96.104,87.809,96.093z M69.377,113.305
	c0.311-0.278,0.685-0.452,0.753-0.707c0.162-0.6,0.177-1.237,0.259-1.92c-0.305-0.06-0.524-0.103-0.75-0.147
	C69.151,111.398,68.706,112.197,69.377,113.305z M72.61,101.842c0.333,0.123,0.58,0.213,0.949,0.35
	c0.385-0.587,0.742-1.13,1.141-1.737c-0.336-0.278-0.564-0.468-0.766-0.635C73.088,100.244,72.898,100.972,72.61,101.842z
	 M117.637,118.924c0.622,0.349,0.814-0.023,0.922-0.343c0.241-0.717,0.679-1.396,0.563-2.271c-0.267,0-0.489,0-0.765,0
	C118.112,117.202,117.878,118.047,117.637,118.924z M78.802,117.574c0.067-0.067,0.135-0.135,0.203-0.201
	c-0.25-0.898-0.5-1.797-0.766-2.751c-0.191-0.011-0.381-0.021-0.607-0.034c-0.208,1.021,0.252,1.831,0.626,2.646
	C78.332,117.396,78.615,117.463,78.802,117.574z M109.008,84.229c0.419,0.832,0.832,1.65,1.281,2.541
	c0.204-0.121,0.392-0.232,0.554-0.328C110.559,84.605,110.092,84.03,109.008,84.229z M134.192,94.461
	c0.715-0.237,0.859-0.585,0.644-1.454c-0.17-0.689-0.384-0.824-1.133-0.661C133.865,93.05,134.028,93.753,134.192,94.461z
	 M90.691,110.038c0.318,0.04,0.606,0.076,1.027,0.129c0-0.599,0-1.06,0-1.512C90.728,108.561,90.641,108.671,90.691,110.038z
	 M131.999,105.806c0.767-0.16,1.143-0.506,1.08-0.989c-0.059-0.451-0.254-0.823-0.853-0.656
	C131.79,104.631,131.877,105.169,131.999,105.806z M75.958,116.097c0.102,1.428,0.278,1.708,1.208,1.917
	c-0.191-0.674-0.371-1.305-0.556-1.957C76.372,116.071,76.204,116.082,75.958,116.097z M107.351,85.115
	c0.386,0.581,0.723,1.087,1.081,1.625c0.519-0.582,0.515-0.826,0.099-1.438C108.268,84.916,107.982,84.657,107.351,85.115z
	 M105.406,84.929c-0.072,0.931,0.505,1.386,0.891,2.014c0.214-0.142,0.374-0.247,0.562-0.374
	C106.546,85.882,106.473,85.075,105.406,84.929z M71.981,116.9c0.164-0.611,0.309-1.156,0.477-1.785
	c-0.352-0.044-0.572-0.071-0.773-0.096C71.243,116.135,71.256,116.244,71.981,116.9z M103.89,85.951
	c0.06,0.699,0.21,1.184,0.864,1.375C105,86.415,104.888,86.224,103.89,85.951z"/>
</svg>
