<svg version="1.1" xmlns="http://www.w3.org/2000/svg" xmlns:xlink="http://www.w3.org/1999/xlink" x="0px" y="0px" width="200px"
	 height="200px" viewBox="0 0 200 200" enable-background="new 0 0 200 200" xml:space="preserve">
<g id="svg">
	<path class="stroke" fill="#580f12"  d="M167.47,147.934c-1.026-2.547-2.382-4.889-4.238-6.954c-2.773-3.083-5.584-6.114-8.95-8.569
		c-3.424-2.498-6.867-4.968-10.291-7.466c-1.572-1.147-3.067-2.409-4.688-3.482c-1.824-1.209-3.778-2.221-5.627-3.396
		c-3.177-2.019-6.499-3.782-10.021-5.065c-3.287-1.199-6.705-2.042-10.066-3.036c-0.545-0.161-1.096-0.298-1.604-0.435
		c0.016-4.463-1.686-7.97-5.034-10.902c0.312-0.882,0.734-1.726,0.905-2.617c0.805-4.205,1.697-8.402,2.256-12.642
		c0.528-4.005,0.756-8.056,0.971-12.095c0.15-2.816,0.26-5.664,0.021-8.466c-0.36-4.218-0.922-8.429-1.618-12.606
		c-0.884-5.294-2.317-10.465-4.281-15.465c-0.488-1.244-1.266-2.416-2.102-3.471c-0.783-0.991-1.996-1.31-3.177-0.764
		c-0.857,0.396-1.706,0.96-2.351,1.645c-2.759,2.934-3.985,6.648-5.064,10.415c-1.363,4.76-1.729,9.688-2.117,14.577
		c-0.361,4.554-0.336,9.151-0.242,13.724c0.062,3.108,0.448,6.219,0.85,9.308c0.66,5.09,2.176,9.979,3.752,14.847
		c0.342,1.06,0.672,2.125,1.013,3.206c-3.086,2.823-6.022,5.648-5.751,10.286c-1.211,0.328-2.29,0.608-3.363,0.914
		c-2.574,0.734-5.213,1.306-7.703,2.262c-4.219,1.622-8.377,3.415-12.5,5.273c-6.361,2.867-12.475,6.149-18.046,10.433
		c-3.792,2.916-7.534,5.863-10.913,9.252c-1.903,1.908-3.576,3.98-4.589,6.586c0.046,0.283,0.089,0.621,0.155,0.954
		c0.479,2.373,2,3.417,3.995,3.585c1.733,0.145,3.415,0.002,5.067-0.417c2.113-0.536,4.232-1.096,6.283-1.831
		c2.702-0.969,5.352-2.09,8.003-3.197c1.973-0.824,3.947-1.657,5.854-2.617c2.477-1.246,4.864-2.667,7.334-3.926
		c2.045-1.042,4.062-2.103,5.85-3.568c1.204-0.987,2.483-1.881,3.728-2.819c2.217-1.67,4.452-3.317,6.643-5.021
		c2.726-2.122,5.412-4.292,8.233-6.534c3.735,2.651,7.891,2.209,12.157,1.116c0.884,1.162,1.657,2.345,2.598,3.377
		c1.901,2.088,3.854,4.13,5.855,6.122c1.969,1.959,3.947,3.919,6.053,5.725c4.297,3.687,9.151,6.599,13.94,9.572
		c4.346,2.699,8.992,4.881,13.75,6.758c2.885,1.138,5.929,1.873,8.886,2.836c1.922,0.627,3.878,0.84,5.888,0.771
		c2.027-0.069,3.283-1.374,4.369-2.814C168.327,150.257,167.909,149.026,167.47,147.934z"/>
</g>
<g id="Layer_2">
	<path fill-rule="evenodd" clip-rule="evenodd" fill="#de4555" class="fill" d="M149.854,148.237c-2.124-0.898-4.125-1.656-6.048-2.579
		c-3.115-1.494-6.244-2.98-9.246-4.682c-3.259-1.846-6.453-3.826-9.532-5.955c-1.993-1.377-3.771-3.081-5.569-4.721
		c-2.157-1.967-4.311-3.951-6.322-6.062c-1.54-1.616-2.876-3.428-4.26-5.187c-0.315-0.401-0.454-0.941-0.555-1.158
		c1.159-2.135,2.192-4.039,3.303-6.083c1.226,0.262,2.562,0.473,3.854,0.839c4.176,1.181,8.266,2.649,12.122,4.622
		c3.196,1.635,6.286,3.511,9.291,5.482c5.042,3.311,10.007,6.744,14.941,10.213c1.261,0.887,2.308,2.086,3.417,3.177
		c0.788,0.775,1.52,1.609,2.33,2.477C155.705,142.424,152.55,145.021,149.854,148.237z"/>
	<path fill-rule="evenodd" clip-rule="evenodd" fill="#de4555" class="fill" d="M94.386,46.004c4.058-0.632,8.062-0.638,12.206-0.197
		c0.237,0.641,0.533,1.201,0.649,1.796c0.382,1.957,0.716,3.924,1.037,5.892c0.653,3.995,1.259,8.004,1.112,12.062
		c-0.188,5.208-0.291,10.426-0.999,15.603c-0.369,2.7-0.667,5.411-1.091,8.102c-0.457,2.901-1.645,5.582-2.62,8.366
		c-2.064-0.123-4.042-0.241-6.13-0.366c-1.047-1.332-1.532-3.036-2.088-4.677c-0.844-2.491-1.706-4.998-2.245-7.564
		c-1.01-4.813-2.089-9.636-1.978-14.606c0.109-4.822,0.121-9.651,0.396-14.464c0.155-2.708,0.742-5.393,1.174-8.082
		C93.91,47.256,94.176,46.67,94.386,46.004z"/>
	<path fill-rule="evenodd" clip-rule="evenodd" fill="#de4555" class="fill" d="M89.963,110.64c0.661,1.888,1.313,3.746,2.048,5.841
		c-0.678,0.598-1.499,1.409-2.408,2.106c-4.938,3.789-9.838,7.632-14.872,11.288c-2.902,2.107-6.036,3.894-9.064,5.827
		c-2.92,1.864-6,3.427-9.188,4.764c-2.282,0.957-4.62,1.78-6.827,2.623c-2.582-1.378-5.293-6.906-5.084-10.299
		c1.721-1.648,3.669-3.188,5.754-4.523c3.194-2.047,6.424-4.051,9.723-5.923c2.027-1.15,4.189-2.073,6.333-3.004
		c3.66-1.592,7.323-3.186,11.04-4.64C81.529,113.09,85.699,111.624,89.963,110.64z"/>
	<path fill-rule="evenodd" clip-rule="evenodd" fill="#de4555" class="fill" d="M109.155,104.491c0.715,2.011,0.707,4.033,0.356,6.079
		c-0.291,1.695-0.961,3.147-2.455,4.13c-0.923,0.606-1.637,1.472-2.813,1.755c-3.947,0.948-7.388,0.084-10.339-2.687
		c-0.381-0.358-0.776-0.808-0.928-1.29c-1.09-3.461-0.979-6.972,1.865-10.078c2.492-2.721,5.553-3.201,8.942-2.37
		c1.612,0.395,2.831,1.462,3.902,2.688C108.199,103.305,108.682,103.917,109.155,104.491z"/>
</g>
</svg>
