<svg version="1.1" id="svg" xmlns="http://www.w3.org/2000/svg" xmlns:xlink="http://www.w3.org/1999/xlink" x="0px" y="0px"
	 width="200px" height="200px" viewBox="0 0 200 200" enable-background="new 0 0 200 200" xml:space="preserve">
<path class="stroke" fill="#2a374b"  fill-rule="evenodd" clip-rule="evenodd" d="M123.962,35.688c1.646,0.728,2.819,1.782,3.147,3.425
	c0.204,1.024,0.194,2.153-0.006,3.181c-0.353,1.792-0.758,3.578-1.55,5.271c-0.668,1.426-1.693,2.288-3.133,2.729
	c-0.683,0.21-1.394,0.327-2.159,0.502c-0.906,2.713-1.811,5.424-2.744,8.221c0.764,0.406,1.405,0.702,2.001,1.073
	c1.822,1.133,3.639,2.276,5.431,3.456c1.008,0.662,1.987,1.374,2.939,2.116c2.401,1.868,4.26,4.165,5.669,6.883
	c1.466,2.829,2.537,5.769,2.822,8.929c0.181,1.997,0.089,4.021,0.082,6.033c-0.005,1.528-0.034,3.058-0.113,4.583
	c-0.197,3.772-0.662,7.461-2.32,10.964c-1.103,2.331-2.356,4.527-3.904,6.573c-0.262,0.347-0.411,0.778-0.509,0.969
	c0.517,1.995,0.972,3.771,1.439,5.546c0.729,2.77,0.615,5.615,0.73,8.436c0.092,2.28,0.076,4.575-0.082,6.851
	c-0.165,2.366-0.629,4.709-0.826,7.073c-0.183,2.185-0.272,4.388-0.248,6.581c0.04,3.5,0.356,7,0.275,10.492
	c-0.065,2.87-0.616,5.721-1.784,8.388c-0.303,0.689-0.78,1.307-1.203,1.939c-0.845,1.266-1.708,2.52-2.566,3.781
	c0.081,0.39,0.111,0.751,0.231,1.079c0.572,1.582-0.083,3.018-0.62,4.412c-0.412,1.071-1.509,1.472-2.553,1.81
	c-0.761,0.246-1.589,0.376-2.122,1.298c0.225,0.531,0.453,1.154,0.747,1.744c0.677,1.368,1.419,2.704,2.078,4.08
	c1.002,2.101,0.858,4.206-0.261,6.199c-0.754,1.343-2.102,1.946-3.548,2.216c-1.848,0.345-3.682,0.176-5.403-0.619
	c-2.533-1.169-4.953-2.485-6.905-4.588c-1.022-1.103-2.293-2.008-3.551-2.854c-3.16-2.121-4.221-5.074-3.699-8.729
	c0.018-0.122-0.039-0.255-0.076-0.464c-1.03,0.322-2.007,0.745-3.026,0.915c-1.052,0.175-2.153,0.198-3.218,0.114
	c-1.06-0.085-2.102-0.385-3.355-0.633c0,0.606,0.006,1.076-0.002,1.549c-0.031,1.976-0.508,3.813-1.708,5.422
	c-0.081,0.107-0.158,0.22-0.252,0.315c-1.647,1.648-3.23,3.367-4.961,4.924c-2.527,2.272-5.542,3.705-8.896,4.157
	c-1.308,0.176-2.708-0.323-3.853-0.486c-1.249-1.559-1.138-3.051-0.744-4.568c0.719-2.776,1.46-5.545,2.179-8.319
	c0.098-0.382,0.117-0.783,0.17-1.151c-4.327-1.685-5.081-4.286-3.813-6.709c-1.58-1.524-2.24-3.567-2.671-5.6
	c-0.701-3.309-0.766-6.664-0.112-10.034c0.629-3.242,0.614-6.522-0.003-9.782c-0.422-2.227-0.405-4.477-0.214-6.711
	c0.501-5.86,1.041-11.719,1.654-17.568c0.327-3.117,0.839-6.216,1.259-9.325c0.053-0.396,0.052-0.803,0.08-1.275
	c-0.586-0.813-1.197-1.642-1.786-2.483c-2.221-3.177-3.955-6.58-5.279-10.243c-1.136-3.144-1.808-6.306-1.568-9.62
	c0.132-1.826,0.453-3.651,0.831-5.448c0.667-3.177,1.743-6.236,3.264-9.098c0.9-1.691,2.095-3.229,3.2-4.806
	c0.565-0.807,1.239-1.534,1.839-2.317c1.771-2.312,4.169-3.937,6.387-5.743c1.384-1.128,2.955-2.025,4.431-3.041
	c0.359-0.248,0.679-0.554,1.074-0.882c-0.259-0.519-0.435-0.978-0.696-1.38c-1.374-2.125-1.955-4.522-2.336-6.97
	c-0.142-0.912-0.6-1.439-1.373-1.835c-0.671-0.344-1.398-0.663-1.938-1.165c-1.539-1.436-2.127-3.236-1.449-5.269
	c0.522-1.566,1.173-3.098,1.875-4.595c0.481-1.025,1.392-1.36,2.487-1.122c0.297,0.064,0.584,0.175,0.923,0.278
	c0.297-1.456,0.558-2.851,0.875-4.232c0.27-1.179,0.623-2.338,0.907-3.513c0.525-2.179,1.117-4.348,1.512-6.551
	c0.353-1.972,1.058-3.794,1.854-5.603c0.361-0.822,0.734-1.64,1.068-2.472c0.526-1.318,1.659-1.954,2.827-2.535
	c1.735-0.864,3.627-1.034,5.507-0.957c3.174,0.129,6.351,0.326,9.511,0.651c1.996,0.206,3.963,0.695,5.942,1.06
	c1.712,0.317,3.413,0.73,5.138,0.93c2.903,0.333,5.26,1.616,6.801,4.047c0.77,1.216,1.176,2.72,1.502,4.148
	c0.697,3.058,1.301,6.139,1.811,9.234c0.26,1.582,0.217,3.213,0.346,4.818C123.723,34.445,123.869,35.096,123.962,35.688z
	 M100.183,168.544c-0.956-1.462-1.133-3.017-0.974-4.595c0.215-2.143,0.495-4.28,0.831-6.406c0.655-4.151,0.518-8.328,0.506-12.504
	c0-0.243-0.101-0.485-0.16-0.749c-1.09,0.16-2.104,0.568-3.06-0.033c-0.982-1.266-0.61-2.469,0.057-3.663
	c0.696-1.243,1.399-2.484,2.19-3.889c-1.225-0.21-2.262-0.387-2.978-0.51c-1.232,0.659-2.201,1.178-3.316,1.773
	c-0.007,0.107-0.016,0.413-0.045,0.716c-0.097,1.025-0.189,2.052-0.306,3.073c-0.167,1.468-0.45,2.929-0.511,4.4
	c-0.159,3.825,0.193,7.623,0.71,11.414c0.199,1.463,0.273,2.953,0.278,4.432c0.01,2.798-0.513,5.452-2.465,7.633
	c-0.108,0.121-0.146,0.306-0.215,0.455C92.685,171.218,98.351,170.297,100.183,168.544z"/>
<path fill-rule="evenodd" clip-rule="evenodd" fill="#eef9fc" class="fill" d="M79.407,39.526c0.32-0.02,0.614-0.039,0.993-0.062
	c0.069-2.201-0.075-4.374,0.262-6.469c0.332-2.06,1.15-4.039,1.787-6.158c1.471-0.176,2.884-0.404,4.305-0.498
	c1.299-0.085,2.613-0.112,3.908-0.011c3.893,0.306,7.782,0.665,11.669,1.042c3.395,0.329,6.794,0.633,10.169,1.107
	c1.449,0.204,2.844,0.794,4.254,1.24c1.021,0.325,2.024,0.703,3.137,1.093c0.182,1.772,0.422,3.501,0.519,5.238
	c0.091,1.663-0.547,3.3-0.449,5.056c1.3-0.17,1.227-1.386,1.976-1.979c0.876-0.384,1.642-0.114,2.313,0.735
	c0.23,1.559,0.118,3.091-0.756,4.503c-0.425,0.688-0.821,1.396-1.299,2.046c-0.658,0.893-1.435,1.604-2.699,1.396
	c-0.289-0.049-0.611,0.115-0.98,0.195c-1.137,1.152-1.701,2.68-2.276,4.18c-0.609,1.592-1.153,3.21-1.659,4.837
	c-0.717,2.308-2.13,3.89-4.452,4.671c-1.357,0.457-2.682,1.017-4.008,1.561c-2.484,1.018-5.087,1.567-7.747,1.571
	c-1.945,0.004-3.958,0.039-5.765-1.001c-0.538-0.311-1.148-0.539-1.754-0.678c-1.873-0.435-3.455-1.482-5.119-2.354
	c-0.504-0.263-1.02-0.647-1.332-1.109c-1.353-2.01-2.699-4.031-3.917-6.123c-0.879-1.511-0.932-3.262-1.007-4.973
	c-0.021-0.487-0.048-0.976-0.073-1.498c-1.207-0.985-2.364-1.974-3.572-2.897c-0.777-0.593-1.172-1.356-1.238-2.29
	c-0.146-2.078,0.577-3.854,1.873-5.402C77.821,36.861,77.906,36.95,79.407,39.526z M111.417,34.683
	c0.117-1.027,0.095-1.281-0.613-1.655c-0.942-0.5-1.955-0.872-2.953-1.255c-1.051-0.403-1.961,0.011-2.73,0.678
	c-2.358,2.035-3.811,4.485-3.426,7.758c0.099,0.828,0.277,1.58,0.838,2.174c1.281,0.239,1.345,0.212,1.965-0.828
	c-0.801-2.471-0.168-4.652,1.263-6.452C107.7,33.794,109.608,34.818,111.417,34.683z M96.701,35.105
	c-0.505-0.964-1.117-1.873-1.476-2.873c-0.686-1.916-4.505-3.555-6.811-3.071c-0.688,0.143-1.5,0.442-1.613,1.4
	c0.133,0.712,0.582,1.043,1.274,1.193c0.829,0.178,1.666,0.378,2.451,0.69c1.419,0.562,2.427,1.654,3.32,2.85
	c0.584,0.782,1.272,1.243,2.335,0.909C96.348,35.853,96.518,35.494,96.701,35.105z M85.24,37.603
	c0.861,1.011,1.491,1.896,2.265,2.628c1.425,1.352,2.86,1.17,4.537,0.139c0.837-0.516,1.563-1.209,2.378-1.851
	c-0.853-1.996-2.29-3.417-4.722-3.305C87.786,35.302,86.227,36.154,85.24,37.603z M104.236,54.66c-0.814,0-1.575,0.005-2.336-0.003
	c-0.44-0.005-0.959-0.191-1.308-0.02c-1.579,0.774-3.154,0.786-4.81,0.31c-0.448-0.129-0.984-0.028-1.466,0.052
	c-0.573,0.097-1.111,0.311-1.383,0.938c0.439,0.764,1.139,0.931,1.86,0.741c0.886-0.235,1.662-0.067,2.482,0.244
	c0.967,0.368,2.011,0.717,2.95-0.018c0.941-0.736,1.961-0.725,3.055-0.609c0.582,0.061,1.18-0.032,2.089-0.069
	C104.866,55.528,104.569,55.118,104.236,54.66z M104.731,39.089c1.043,0.789,1.911,1.569,2.894,2.155
	c0.861,0.512,1.936,0.704,2.857,0.283c1.246-0.571,2.386-1.371,3.584-2.08c-0.399-1.341-1.178-2.129-2.352-2.54
	C108.985,35.952,106.859,37.046,104.731,39.089z M119.625,45.467c1.048,0.652,1.759-0.05,2.394-0.6
	c0.923-0.801,0.821-1.882,0.624-2.916C120.767,41.291,119.752,42.477,119.625,45.467z M79.089,44.523
	c0.131-1.287-0.154-2.421-0.664-3.501c-0.379-0.804-1.037-1.203-1.964-1.115c-0.571,0.587-0.569,1.156-0.075,1.796
	c0.324,0.418,0.522,0.935,0.846,1.352C77.672,43.624,77.83,44.525,79.089,44.523z M103.236,49.521
	c0.917,0.462,0.954,0.491,1.354,0.123c1.008-0.926,1.277-2.099,1.05-3.416c-0.192-1.104-1.023-1.345-2.023-1.502
	c-0.204,0.255-0.412,0.516-0.621,0.777C104.605,46.793,104.457,47.743,103.236,49.521z M102.956,47.338
	c-0.702-0.769-1.18-0.896-1.857-0.537c-1.084,0.575-1.526,1.642-1.199,2.893C101.257,49.545,102.596,48.541,102.956,47.338z
	 M97.419,49.417c0.424-1.424,0.112-2.181-0.964-2.8c-0.886-0.511-1.356-0.444-2.106,0.349
	C95.095,48.068,96.036,48.904,97.419,49.417z M88.684,49.895c0.044,1.08-0.221,1.995,0.415,2.881
	c0.296-0.117,0.563-0.224,0.862-0.343c-0.137-0.849-0.263-1.623-0.395-2.442C89.307,49.963,89.106,49.94,88.684,49.895z
	 M86.921,51.699c0-0.974,0-1.759,0-2.617c-0.303,0-0.584,0-0.984,0c0,0.852,0,1.62,0,2.469
	C86.228,51.596,86.468,51.631,86.921,51.699z M85.926,53.631c-0.715,1.146-0.814,2.22-0.2,2.62c0.221-0.107,0.48-0.233,0.703-0.342
	c0.065-0.71,0.12-1.321,0.182-1.994C86.367,53.814,86.142,53.72,85.926,53.631z M83.671,49c0.156-0.041,0.312-0.083,0.467-0.123
	c-0.051-0.849-0.102-1.695-0.159-2.674c-0.433,0.133-0.698,0.214-1.021,0.313C83.128,47.433,82.613,48.491,83.671,49z
	 M82.669,54.174c0.94-0.704,0.573-1.567,0.782-2.373c-0.307-0.121-0.56-0.222-0.875-0.349
	C82.221,52.399,81.896,53.229,82.669,54.174z M93.712,58.697c-1.129,0.509-1.203,0.948-0.605,2.379c0.266,0,0.547,0,1.004,0
	C93.972,60.255,93.855,59.545,93.712,58.697z M89.833,54.426c-0.432,0.035-0.717,0.059-1.134,0.092
	c0.04,0.685,0.075,1.278,0.119,2.019c0.485-0.097,0.796-0.157,1.179-0.234C89.941,55.662,89.895,55.138,89.833,54.426z
	 M80.975,47.469c-0.106,0.858-0.414,1.596,0.091,2.423c0.281-0.094,0.509-0.171,0.769-0.258c0.075-0.729,0.144-1.409,0.221-2.165
	C81.67,47.469,81.428,47.469,80.975,47.469z M90.895,60.437c-0.083-0.78-0.143-1.349-0.213-2.015
	c-0.369-0.059-0.68-0.107-1.168-0.186c0.071,0.771,0.127,1.367,0.187,2.012C90.099,60.311,90.384,60.354,90.895,60.437z
	 M85.901,57.923c0.182,0.821,0.314,1.409,0.464,2.08c0.402-0.022,0.725-0.04,1.207-0.065c-0.192-0.706-0.351-1.285-0.523-1.922
	C86.712,57.988,86.433,57.967,85.901,57.923z M110.293,51.424c0.352,0.14,0.64,0.253,1.06,0.418c0.317-0.686,0.586-1.266,0.903-1.95
	c-0.438-0.145-0.703-0.231-1.04-0.343C110.905,50.179,110.633,50.735,110.293,51.424z M110.114,60.367
	c0.981,0.321,1.441-0.098,1.583-1.438C110.635,58.75,110.374,58.987,110.114,60.367z M109.617,57.695
	c0.281-0.543,0.55-1.064,0.852-1.646c-0.38-0.221-0.624-0.362-0.975-0.566c-0.325,0.664-0.603,1.232-0.923,1.884
	C108.987,57.498,109.227,57.573,109.617,57.695z M115.205,51.199c0.192-0.691,0.354-1.276,0.522-1.883
	c-0.222-0.148-0.351-0.273-0.505-0.324c-0.109-0.038-0.252,0.028-0.499,0.065c-0.188,0.622-0.383,1.273-0.612,2.033
	C114.534,51.135,114.786,51.158,115.205,51.199z M101.517,61.224c-1.283,0.162-1.437,0.397-1.432,1.851
	c0.263,0.044,0.539,0.089,0.894,0.146C101.158,62.559,101.312,61.983,101.517,61.224z M107.983,55.156
	c0.338-0.77,0.592-1.35,0.878-2.006c-0.321-0.195-0.553-0.338-0.892-0.545c-0.28,0.681-0.514,1.244-0.758,1.836
	C107.42,54.635,107.575,54.776,107.983,55.156z M104.489,59.131c-0.279-0.175-0.476-0.298-0.784-0.492
	c-0.327,0.66-0.608,1.228-0.921,1.859c0.375,0.166,0.635,0.279,0.989,0.435C104.012,60.33,104.219,59.809,104.489,59.131z
	 M107.413,58.935c-0.488,0.709-1.232,1.12-0.932,2.111c0.263,0,0.509,0,0.797,0c0.261-0.477,0.513-0.939,0.851-1.559
	C107.929,59.333,107.759,59.203,107.413,58.935z M97.164,61.033c-0.474,0-0.749,0-1.002,0c-0.507,1.586-0.477,1.682,0.67,1.894
	C96.929,62.372,97.027,61.816,97.164,61.033z M112.06,52.109c-0.216,0.76-0.372,1.311-0.559,1.973c0.507,0,0.789,0,1.093,0
	c0.194-0.512,0.363-0.955,0.561-1.478C112.809,52.448,112.553,52.333,112.06,52.109z M113.591,56.824
	c0.15-0.676,0.266-1.197,0.397-1.785c-1.08,0.122-1.717,0.91-1.426,1.661C112.808,56.73,113.096,56.764,113.591,56.824z
	 M99.372,58.537c-0.651,0.859-0.629,1.116,0.14,1.694C100.206,59.228,100.195,59.101,99.372,58.537z"/>
<path fill-rule="evenodd" clip-rule="evenodd" fill="#eef9fc" class="fill" d="M122.969,66.894c-0.559,0.319-0.974,0.574-1.405,0.797
	c-2.744,1.427-5.483,2.86-8.244,4.257c-0.551,0.277-1.174,0.428-1.778,0.577c-3.125,0.759-6.277,0.991-9.481,0.574
	c-1.467-0.191-2.953-0.227-4.43-0.338c-0.403-0.031-0.81-0.056-1.204-0.137c-3.248-0.662-6.495-1.336-9.74-2.009
	c-4.521-0.94-9.077-1.735-13.433-3.34c-0.606-0.225-1.236-0.384-2.168-0.667c2.282-1.845,4.322-3.493,6.471-5.229
	c1.326,0.802,2.632,1.493,3.827,2.339c1.404,0.996,2.865,1.816,4.492,2.399c1.432,0.513,2.844,1.123,4.189,1.834
	c1.627,0.86,3.394,1.167,5.151,1.473c4.703,0.817,9.319,0.204,13.833-1.171c1.358-0.414,2.639-1.129,3.896-1.814
	c1.532-0.833,3.002-1.781,4.505-2.684C119.46,64.455,121.44,65.03,122.969,66.894z"/>
<path fill-rule="evenodd" clip-rule="evenodd" fill="#eef9fc" class="fill" d="M112.886,78.667c0.493,2.592,0.168,4.997,0.076,7.551
	c-0.59,0.062-1.154,0.209-1.706,0.167c-3.77-0.282-7.53-0.095-11.298,0.083c-2.234,0.106-4.481,0.058-6.718-0.035
	c-2.366-0.098-4.727-0.327-7.089-0.506c-0.306-0.022-0.608-0.087-1.04-0.151c0.015-2.871-0.599-5.693-0.199-8.695
	c1.698-0.142,3.3-0.381,4.901-0.381c2.054-0.001,4.107,0.21,6.163,0.298c4.928,0.209,9.746,1.534,14.707,1.423
	C111.388,78.405,112.095,78.574,112.886,78.667z M108.289,79.594c-1.081,0.157-2.063,0.148-2.622,1.226
	c0.143,0.171,0.295,0.355,0.497,0.596c0.64-0.546,1.277-0.884,2.083-0.414c-0.31,1.491-2.199,1.903-2.324,3.446
	c2.252,0.821,4.253,0.877,5.075,0.129c-0.84-1.037-2.212-0.304-3.253-0.943c0.692-0.996,1.815-1.773,1.328-3.326
	C108.89,80.14,108.599,79.875,108.289,79.594z M90.637,78.742c-1.396-0.907-2.672-0.572-4.074-0.604
	c0.128,0.444,0.205,0.708,0.271,0.936c0.702,0.032,1.299,0.062,1.958,0.094c-0.237,0.538-0.407,0.924-0.604,1.376
	c0.486,0.297,0.893,0.545,1.42,0.866c-0.044,0.381-0.092,0.791-0.162,1.404c-1.006-0.103-1.872-0.192-2.812-0.289
	c0.55,1.666,2.345,1.807,3.88,0.412c0-0.547,0-1.164,0-1.743c-0.305-0.396-0.571-0.738-0.819-1.06
	C90.009,79.672,90.273,79.28,90.637,78.742z M92.92,82.357c1.169,0.057,2.042,0.101,2.808,0.138c0.527,0.886-0.417,1.909,0.593,2.67
	c0.205-0.246,0.479-0.424,0.501-0.629c0.142-1.335,0.259-2.676,0.308-4.017c0.009-0.234-0.337-0.483-0.671-0.927
	c-0.204,0.762-0.326,1.218-0.467,1.741c-0.638,0-1.232,0-1.952,0c0.048-0.892,0.091-1.681,0.139-2.568
	c-0.267-0.039-0.531-0.078-0.899-0.133C93.159,79.882,93.049,81.02,92.92,82.357z M99.028,80.956c1.3,0.682,1.985-0.792,3.107-0.437
	c-0.083,1.285-0.168,2.607-0.263,4.064c0.396,0.019,0.704,0.032,1.156,0.053c-0.392-1.977,0.68-3.884-0.362-5.822
	C101.363,79.422,100.114,79.749,99.028,80.956z"/>
<path fill-rule="evenodd" clip-rule="evenodd" fill="#eef9fc" class="fill" d="M108.307,131.854c-0.854,0.06-1.001,0.51-1.086,1.098
	c-0.264,1.861-0.53,3.723-0.875,5.567c-0.271,1.456-1.019,2.541-2.912,2.869c1.599-2.978,2.406-5.953,2.734-9.117
	c-0.342-0.219-0.629-0.401-1.044-0.666c-0.212,0.357-0.474,0.627-0.535,0.936c-0.218,1.1-0.413,2.21-0.536,3.325
	c-0.278,2.512-1.535,4.455-3.406,6.063c-0.493,0.424-1.023,0.727-1.721,0.597c-0.378-0.442-0.146-0.859,0.102-1.218
	c0.432-0.627,0.886-1.245,1.39-1.813c1.235-1.39,1.655-3.044,1.698-4.847c0.02-0.852,0.066-1.704,0.117-2.555
	c0.074-1.222-0.178-2.345-1.088-3.209c-0.318-0.301-0.784-0.447-1.136-0.639c-1.048,0.885-1.106,1.896-1.125,2.951
	c-0.015,0.879-0.127,1.755-0.202,2.689c-0.521,0.053-0.856,0.088-1.11,0.114c-1.463-1.216-1.152-8.285,1.572-11.187
	c2.614-0.877,5.34-1.1,8.013,0.148c1.091,0.51,1.933,1.335,1.812,2.726c-0.016,0.179,0.021,0.364-0.01,0.538
	c-0.386,2.101,0.184,4.077,0.651,6.095c0.431,1.86,0.365,3.764-0.614,5.503c-0.222,0.395-0.583,0.713-1,1.004
	C108.134,136.479,108.93,134.205,108.307,131.854z"/>
<path fill-rule="evenodd" clip-rule="evenodd" fill="#eef9fc" class="fill" d="M80.705,138.691c-0.757-2.387,0.234-4.516,0.842-6.784
	c-0.306-0.217-0.615-0.435-0.952-0.671c0.035-0.112,0.059-0.237,0.112-0.353c0.62-1.339,1.417-2.626,1.833-4.025
	c0.73-2.467,2.325-3.771,4.784-4.069c1.778-0.213,3.574-0.291,5.364-0.412c0.258-0.019,0.523,0.065,0.966,0.128
	c0.125,0.622,0.373,1.268,0.36,1.906c-0.024,1.295-0.142,2.594-0.309,3.879c-0.233,1.785-0.474,3.553,0.095,5.329
	c0.137,0.428,0.069,0.923,0.096,1.381c-1.065,0.109-1.46-0.1-1.671-0.998c-0.173-0.736-0.183-1.512-0.262-2.268
	c-0.07-0.681-0.13-1.363-0.879-1.685c-1.467,0.349-1.885,0.819-2.141,2.177c-0.296,1.575-0.009,3.007,0.773,4.396
	c0.414,0.735,0.702,1.552,0.959,2.358c0.102,0.316-0.036,0.711-0.066,1.091c-1.429,0.089-2.186-0.656-2.508-1.658
	c-0.45-1.396-0.666-2.869-0.958-4.314c-0.079-0.393-0.066-0.806-0.099-1.208c-0.046-0.569-0.331-0.909-1.02-0.962
	c-1.299,0.774-1.991,2.008-1.912,3.535c0.087,1.648,0.372,3.289,0.63,4.924c0.111,0.704,0.358,1.385,0.067,2.073
	c-1.002,0.179-1.329,0.064-1.795-0.723c-0.663-1.117-0.958-2.35-0.713-3.624c0.296-1.539,0.715-3.055,1.09-4.579
	c0.095-0.383,0.225-0.758,0.362-1.214c-0.342-0.136-0.611-0.242-0.952-0.379C81.354,134.008,81.2,136.404,80.705,138.691z"/>
<path fill-rule="evenodd" clip-rule="evenodd" fill="#eef9fc" class="fill" d="M79.169,91.49c-0.188-0.957-0.359-1.823-0.552-2.804
	c1.075,0,2.038-0.054,2.993,0.01c3.136,0.215,6.266,0.594,9.405,0.682c3.943,0.111,7.892,0.503,11.844,0.03
	c0.972-0.116,1.971,0.008,2.956-0.023c2.686-0.084,5.371-0.192,8.056-0.286c0.478-0.016,0.957-0.002,1.613-0.002
	c-0.356,1.111-0.649,2.029-0.981,3.07c-2.121,0.133-4.173,0.356-6.227,0.372c-3.052,0.022-6.105-0.071-9.157-0.17
	c-1.882-0.06-3.76-0.224-5.64-0.339c-0.314-0.02-0.627-0.034-0.941-0.045c-4.083-0.129-8.167-0.255-12.25-0.385
	C79.977,91.589,79.668,91.541,79.169,91.49z"/>
<path fill-rule="evenodd" clip-rule="evenodd" fill="#eef9fc" class="fill" d="M127.163,150.997c0,1.284,0,2.472,0,3.767
	c-1.166,0.172-2.215,0.392-3.275,0.472c-2.769,0.209-5.551,0.589-8.309,0.468c-2.982-0.13-5.95-0.71-8.912-1.17
	c-1.361-0.213-2.693-0.609-4.02-0.918c-0.163-0.883-0.106-1.277,0.361-2.596C111.01,151.902,119.012,152.394,127.163,150.997z"/>
<path fill-rule="evenodd" clip-rule="evenodd" fill="#eef9fc" class="fill" d="M67.711,145.765c-0.173-1.007-0.374-2.169-0.604-3.509
	c2.553-0.04,4.841,0.404,7.142,0.453c2.318,0.049,4.643-0.14,7.215-0.232c0.17,0.162,0.519,0.496,0.868,0.831
	c1.776,1.7,4.12,1.032,4.737-1.351c0.065-0.249,0.133-0.499,0.204-0.767c0.803,0.422,1.536,0.806,2.378,1.247
	c0,1.047,0,2.188,0,3.412c-0.394,0.11-0.722,0.259-1.061,0.288C81.725,146.758,74.854,147.644,67.711,145.765z"/>
<path fill-rule="evenodd" clip-rule="evenodd" fill="#eef9fc" class="fill" d="M111.726,97.824c-0.701,1.026-1.292,1.893-1.987,2.91
	c-3.929-0.127-7.916-0.247-11.901-0.386c-2.062-0.071-4.123-0.262-6.182-0.237c-2.994,0.034-5.986,0.215-9.154,0.341
	c-0.485-1.011-1.033-2.152-1.707-3.556c0.915,0,1.523-0.038,2.126,0.007c4.43,0.319,8.855,0.686,13.286,0.975
	c1.384,0.09,2.781-0.006,4.173-0.031c3.365-0.06,6.729-0.134,10.094-0.188C110.814,97.653,111.156,97.746,111.726,97.824z"/>
<path fill-rule="evenodd" clip-rule="evenodd" fill="#eef9fc" class="fill" d="M103.536,145.544c-0.048-0.841-0.089-1.541-0.125-2.16
	c2.33-1.28,4.713-1.143,7.138-0.956c2.903,0.224,5.816,0.352,8.728,0.398c2.15,0.035,4.304-0.129,6.457-0.193
	c0.216-0.008,0.434,0.059,0.779,0.107c0.071,0.882,0.141,1.751,0.209,2.592C118.953,147.246,111.332,146.351,103.536,145.544z"/>
<path fill-rule="evenodd" clip-rule="evenodd" fill="#eef9fc" class="fill" d="M67.258,156.128c0.22-1.28,0.401-2.332,0.612-3.562
	c7.297,1.074,14.529,1.067,21.854,0.2c0,1.033,0,1.911,0,2.974c-1.178,0.305-2.406,0.783-3.67,0.917
	c-4.747,0.505-9.504,0.405-14.255-0.045c-1.028-0.098-2.059-0.162-3.087-0.26C68.281,156.311,67.854,156.221,67.258,156.128z"/>
<path fill-rule="evenodd" clip-rule="evenodd" fill="#eef9fc" class="fill" d="M106.328,106.829c-0.622,0.997-1.185,1.898-1.786,2.864
	c-2.812,0.342-5.608-0.312-8.414-0.245c-2.817,0.066-5.631,0.245-8.458,0.377c-0.76-1.312-1.488-2.567-2.317-3.996
	c3.64-0.716,7.123-0.697,10.577-0.394C99.355,105.735,102.755,106.338,106.328,106.829z"/>
<path fill-rule="evenodd" clip-rule="evenodd" fill="#eef9fc" class="fill" d="M122.861,171.604c-0.236,0.819-0.464,1.613-0.735,2.551
	c-1.415,0.301-2.795,0.646-4.195,0.876c-1.28,0.212-2.582,0.29-3.872,0.44c-3.637,0.422-7.242,0.415-10.787-0.684
	c-1.097-0.339-2.033-0.907-2.916-1.647c-0.205-1.023-0.095-1.938,0.69-2.808c0.355,0.101,0.71,0.151,1.017,0.298
	c1.726,0.836,3.561,1.2,5.456,1.34c2.95,0.218,5.893,0.716,8.854,0.504C118.461,172.325,120.531,171.927,122.861,171.604z"/>
<path fill-rule="evenodd" clip-rule="evenodd" fill="#eef9fc" class="fill" d="M101.726,161.731c-0.042-0.433-0.112-0.744-0.09-1.05
	c0.037-0.486,0.135-0.968,0.22-1.542c0.352,0,0.66-0.037,0.955,0.007c3.05,0.459,6.084,1.095,9.15,1.359
	c3.568,0.308,7.162,0.325,10.747,0.401c0.92,0.02,1.845-0.213,3.055-0.365c-0.278,0.815-0.481,1.411-0.739,2.169
	c-2.809,0.474-5.643,0.772-8.491,1.025C111.471,164.188,106.671,162.874,101.726,161.731z"/>
<path fill-rule="evenodd" clip-rule="evenodd" fill="#eef9fc" class="fill" d="M61.858,88.883c0.277-1.874,0.524-3.548,0.794-5.377
	c0.517,0.084,0.909,0.096,1.266,0.213c2.344,0.771,4.759,0.75,7.186,0.737c1.239-0.008,2.48,0.154,3.773,0.243
	c0.076,1.455,0.146,2.77,0.221,4.208C70.691,89.263,66.396,89.68,61.858,88.883z"/>
<path fill-rule="evenodd" clip-rule="evenodd" fill="#eef9fc" class="fill" d="M114.705,125.969c1.1-1.596,0.042-2.906-0.13-4.285
	c4.213-0.168,8.373-0.334,12.666-0.505c0.538,1.448,0.615,2.979,0.572,4.637C123.468,127.066,119.187,126.473,114.705,125.969z"/>
<path fill-rule="evenodd" clip-rule="evenodd" fill="#eef9fc" class="fill" d="M104.774,112.852c1.138-1.46,2.065-2.651,3.043-3.906
	c0.46,0.168,0.838,0.274,1.189,0.438c2.268,1.054,4.515,2.155,6.803,3.164c0.807,0.355,1.708,0.503,2.568,0.73
	c0.551,0.147,1.108,0.268,1.894,0.454c-1.727,1.676-3.28,3.183-4.833,4.689c-1.146-0.868-2.185-1.625-3.188-2.425
	c-1.658-1.323-3.63-1.91-5.618-2.478C106.098,113.365,105.582,113.145,104.774,112.852z"/>
<path fill-rule="evenodd" clip-rule="evenodd" fill="#eef9fc" class="fill" d="M70.052,174.533c-0.187-0.334-0.4-0.718-0.625-1.124
	c0.147-0.405,0.282-0.774,0.445-1.223c1.147,0.07,2.255,0.142,3.364,0.204c3.132,0.175,6.263,0.431,9.397,0.479
	c1.223,0.02,2.454-0.421,3.68-0.665c0.908-0.18,1.812-0.385,2.575-0.548c1.146,1.037,1.169,1.226,0.398,2.887
	c-1.467,0.245-3.042,0.555-4.629,0.76c-1.953,0.253-3.913,0.475-5.877,0.607c-2.462,0.167-4.921,0.162-7.255-0.852
	C71.075,174.863,70.599,174.727,70.052,174.533z"/>
<path fill-rule="evenodd" clip-rule="evenodd" fill="#eef9fc" class="fill" d="M120.295,88.539c0-1.356,0-2.461,0-3.651
	c2.176-0.233,4.284-0.318,6.332-0.715c2.007-0.39,3.951-1.096,6.12-1.72c0.353,1.765,0.398,3.46,0.415,5.36
	C128.826,88.299,124.616,88.994,120.295,88.539z"/>
<path fill-rule="evenodd" clip-rule="evenodd" fill="#eef9fc" class="fill" d="M127.619,132.321c-0.113,1.147-0.205,2.069-0.3,3.02
	c-5.119,1.453-10.199,1.12-15.442,0.7c0-1.215,0-2.399,0-3.673c0.743,0,1.583-0.044,2.419,0.007
	c2.328,0.141,4.653,0.402,6.982,0.451c1.419,0.028,2.845-0.259,4.271-0.387C126.164,132.384,126.782,132.369,127.619,132.321z"/>
<path fill-rule="evenodd" clip-rule="evenodd" fill="#eef9fc" class="fill" d="M90.229,161.832c-0.117,0.597-0.226,1.156-0.363,1.863
	c-1.023,0.267-2.036,0.633-3.081,0.782c-2.308,0.329-4.629,0.575-6.949,0.797c-0.613,0.059-1.247-0.093-1.871-0.151
	c-1.069-0.101-2.138-0.226-3.21-0.306c-2.323-0.171-4.647-0.32-7.055-0.484c-0.195-0.946-0.364-1.767-0.567-2.753
	c2.637,0.365,5.125,0.764,7.625,1.041c2.549,0.283,5.109,0.136,7.659-0.07C84.952,162.346,87.484,162.087,90.229,161.832z"/>
<path fill-rule="evenodd" clip-rule="evenodd" fill="#eef9fc" class="fill" d="M128.776,105.105c-0.875,1.001-1.602,1.834-2.302,2.634
	c-5.17-0.299-9.828-1.927-14.585-4.021c0.589-0.79,1.107-1.486,1.683-2.26C118.669,102.29,123.557,103.829,128.776,105.105z"/>
<path fill-rule="evenodd" clip-rule="evenodd" fill="#eef9fc" class="fill" d="M131.902,98.804c-1.804-0.156-3.454-0.259-5.093-0.452
	c-1.689-0.202-3.378-0.438-5.048-0.764c-1.605-0.312-3.185-0.76-4.907-1.18c0.567-1.038,1.094-2.002,1.534-2.808
	c2.559,0.349,4.904,0.69,7.254,0.981c2.303,0.286,4.612,0.522,7.076,0.799C132.479,96.384,132.225,97.45,131.902,98.804z"/>
<path fill-rule="evenodd" clip-rule="evenodd" fill="#eef9fc" class="fill" d="M110.675,12.97c0.831,0.12,1.605,0.231,2.448,0.353
	c1.617,4.41,1.998,8.912,2.005,13.562c-1.405-0.27-2.658-0.511-3.939-0.758C111.018,21.742,110.849,17.432,110.675,12.97z"/>
<path fill-rule="evenodd" clip-rule="evenodd" fill="#eef9fc" class="fill" d="M78.186,131.358c-0.419,0.753-0.936,1.489-1.252,2.303
	c-0.318,0.815-0.436,1.708-0.653,2.611c-2.895,0.572-5.699-0.253-8.671-0.18c0.207-1.779,0.393-3.402,0.59-5.122
	C71.511,131.101,74.785,131.227,78.186,131.358z"/>
<path fill-rule="evenodd" clip-rule="evenodd" fill="#eef9fc" class="fill" d="M101.976,11.84c0.851,0.105,1.636,0.202,2.573,0.317
	c0.198,4.355,0.149,8.623-0.105,13.039c-1.177-0.08-2.189-0.149-3.179-0.216C100.68,23.298,101.154,14.137,101.976,11.84z"/>
<path fill-rule="evenodd" clip-rule="evenodd" fill="#eef9fc" class="fill" d="M62.494,95.483c2.557,0.649,4.77,0.737,7.014,0.406
	c2.214-0.325,4.445-0.527,6.884-0.81c0.331,0.713,0.733,1.58,1.205,2.598c-4.567,0.892-9.115,0.985-13.553,2.403
	C63.254,98.73,63.037,97.243,62.494,95.483z"/>
<path fill-rule="evenodd" clip-rule="evenodd" fill="#eef9fc" class="fill" d="M128.616,72.48c0.93,1.026,1.743,2.107,2.24,3.38
	c-3.736,1.561-7.349,3.067-11.08,4.624c-0.294-0.951-0.564-1.826-0.847-2.74C122.284,76.098,124.717,73.171,128.616,72.48z"/>
<path fill-rule="evenodd" clip-rule="evenodd" fill="#eef9fc" class="fill" d="M79.972,118.053c-0.922-1.037-1.954-2.199-3.074-3.46
	c2.097-1.845,4.641-2.312,7.114-2.89c1.692,1.019,2.939,2.31,3.791,4.017C85.22,116.49,82.687,117.244,79.972,118.053z"/>
<path fill-rule="evenodd" clip-rule="evenodd" fill="#eef9fc" class="fill" d="M68.528,108.32c-0.677-1.093-1.325-2.14-2.055-3.316
	c4.299-1.812,8.549-2.963,12.961-3.673c0.225,0.352,0.429,0.644,0.601,0.953c0.148,0.269,0.258,0.559,0.426,0.932
	c-2.042,0.765-4.058,1.439-6.006,2.271C72.524,106.312,70.661,107.295,68.528,108.32z"/>
<path fill-rule="evenodd" clip-rule="evenodd" fill="#eef9fc" class="fill" d="M76.576,79.092c-4.108-0.086-7.759-1.605-11.726-2.661
	c0.579-1.149,1.075-2.131,1.62-3.212c3.727,1.241,7.355,2.447,11.113,3.699C77.2,77.743,76.889,78.415,76.576,79.092z"/>
<path fill-rule="evenodd" clip-rule="evenodd" fill="#eef9fc" class="fill" d="M94.22,11.162c0.567,0.029,1.178,0.059,1.808,0.09
	c-0.409,4.467-0.81,8.842-1.218,13.305c-0.883,0.373-1.824,0.156-2.761-0.173C91.45,22.098,92.917,13.016,94.22,11.162z"/>
<path fill-rule="evenodd" clip-rule="evenodd" fill="#eef9fc" class="fill" d="M102.556,166.512c0.852,0.095,1.642,0.16,2.425,0.274
	c1.949,0.286,3.892,0.618,5.843,0.886c1.065,0.146,2.143,0.19,3.213,0.295c2.373,0.23,4.74,0.224,7.097-0.177
	c0.253-0.044,0.511-0.054,0.969-0.099c-0.402,0.721-0.862,1.058-1.479,1.203c-3.354,0.791-6.703,1.799-10.193,1.322
	c-2.384-0.328-4.794-0.712-6.86-2.154C103.039,167.689,102.54,167.381,102.556,166.512z"/>
<path fill-rule="evenodd" clip-rule="evenodd" fill="#eef9fc" class="fill" d="M92.692,118.812c0.1,0.496,0.208,1.036,0.348,1.729
	c-1.012,0-1.865,0.09-2.693-0.016c-2.405-0.309-4.608,0.453-6.794,1.237c-1.026,0.368-1.523,1.332-1.953,2.293
	c-0.233,0.522-0.432,1.125-1.198,1.058c-1.109-1.282-0.995-3.119,0.299-4.441c1.131-1.155,2.495-1.866,4.112-2.081
	c1.064-0.142,2.128-0.29,3.186-0.477C89.553,117.84,91.027,118.091,92.692,118.812z"/>
<path fill-rule="evenodd" clip-rule="evenodd" fill="#eef9fc" class="fill" d="M70.987,170.122c-0.396-0.575-0.815-1.185-1.416-2.057
	c1.207,0.113,2.117,0.188,3.024,0.286c0.399,0.043,0.792,0.179,1.19,0.193c2.862,0.099,5.726,0.228,8.589,0.24
	c1.152,0.005,2.305-0.244,3.454-0.408c0.569-0.081,1.129-0.229,1.835-0.377c-0.17,1.052-0.664,1.584-1.512,1.942
	c-2.466,1.038-5.074,1.216-7.672,1.122c-2.362-0.086-4.714-0.497-7.068-0.771C71.284,170.278,71.163,170.195,70.987,170.122z"/>
<path fill-rule="evenodd" clip-rule="evenodd" fill="#eef9fc" class="fill" d="M113.132,124.666c-0.78,1.117-1.141,1.356-2.249,1.441
	c0.049-0.484,0.097-0.963,0.159-1.572c-2.024-2.796-4.755-4.259-8.308-4.104c-1.5,0.065-2.998,0.162-4.754,0.259
	c0.562-0.882,1.027-1.61,1.465-2.298c0.557,0,0.972-0.074,1.349,0.013c2.615,0.594,5.333,0.681,7.875,1.621
	c0.795,0.297,1.656,0.48,2.371,0.904C112.749,121.95,112.982,122.469,113.132,124.666z"/>
<path fill-rule="evenodd" clip-rule="evenodd" fill="#eef9fc" class="fill" d="M77.657,121.666c0.077,1.304,0.139,2.358,0.208,3.534
	c-2.864,0.337-5.742-0.123-8.661-0.528c0-1.019,0-1.929,0-2.872C72.121,121.345,74.912,121.641,77.657,121.666z"/>
<path fill-rule="evenodd" clip-rule="evenodd" fill="#eef9fc" class="fill" d="M85.904,24.285c-1.093,0.152-2.08,0.292-3.245,0.456
	c0.153-0.769,0.217-1.386,0.399-1.964c0.737-2.349,1.473-4.701,2.284-7.023c0.424-1.218,1.047-2.349,2.375-3.062
	C87.116,16.532,86.516,20.373,85.904,24.285z"/>
<path fill-rule="evenodd" clip-rule="evenodd" fill="#eef9fc" class="fill" d="M73.525,114.405c-0.459-0.549-0.965-1.156-1.465-1.758
	c1.322-1.317,6.341-3.726,10.369-5.003c0.23,0.271,0.484,0.572,0.742,0.867c0.227,0.262,0.461,0.518,0.698,0.784
	c-1.86,0.672-3.713,1.172-5.403,2.001C76.798,112.116,75.295,113.273,73.525,114.405z"/>
<path fill-rule="evenodd" clip-rule="evenodd" fill="#eef9fc" class="fill" d="M89.803,114.901c3.512-0.274,7.016-0.349,10.624,0.384
	c-0.177,0.431-0.322,0.78-0.464,1.126c-0.855,0.381-1.67,0.743-2.409,1.072c-1.28-0.143-2.485-0.2-3.656-0.429
	c-1.049-0.204-2.08-0.548-3.081-0.93c-0.448-0.172-0.805-0.585-1.203-0.889C89.677,115.125,89.74,115.013,89.803,114.901z"/>
<path fill-rule="evenodd" clip-rule="evenodd" fill="#eef9fc" class="fill" d="M117.439,188.011c-0.413,0.342-0.676,0.559-1.007,0.831
	c-0.469-0.229-0.972-0.36-1.322-0.665c-2.362-2.071-4.708-4.163-7.025-6.283c-0.936-0.856-0.949-1.272-0.342-2.474
	c1.364-0.239,1.882,0.025,2.35,1.314c0.354,0.968,0.582,2.002,1.466,2.66c0.641,0.479,1.322,0.903,1.982,1.356
	c0.96,0.657,1.94,1.288,2.862,1.996C116.777,187.033,117.021,187.487,117.439,188.011z"/>
<path fill-rule="evenodd" clip-rule="evenodd" fill="#eef9fc" class="fill" d="M112.372,117.764c-0.261,0.438-0.415,0.699-0.55,0.927
	c-0.147,0.028-0.253,0.086-0.316,0.054c-2.957-1.481-6.25-1.465-9.696-1.96c0.688-0.813,1.168-1.38,1.67-1.975
	C106.741,114.833,109.578,115.973,112.372,117.764z"/>
<path fill-rule="evenodd" clip-rule="evenodd" fill="#eef9fc" class="fill" d="M75.721,179.959c0.502,0.075,0.938,0.141,1.322,0.197
	c-0.689,2.802-1.331,5.438-2,8.065c-0.059,0.232-0.308,0.416-0.466,0.616c-0.784-0.057-1.067-0.568-1.138-1.164
	c-0.074-0.612-0.109-1.265,0.021-1.861C73.9,183.79,74.787,181.933,75.721,179.959z"/>
<path fill-rule="evenodd" clip-rule="evenodd" fill="#eef9fc" class="fill" d="M82.652,82.532c-1.167-0.066-2.13-0.121-3.294-0.189
	c0.607-1.811,1.155-3.442,1.739-5.185c0.542-0.128,1.13-0.267,1.868-0.44C82.86,78.68,82.762,80.483,82.652,82.532z"/>
<path fill-rule="evenodd" clip-rule="evenodd" fill="#eef9fc" class="fill" d="M98.144,172.408c0.106,0.402,0.194,0.734,0.276,1.042
	c-1.649,1.191-4.032,1.542-6.214,0.93c0-0.627,0-1.266,0-2.035C94.218,173.044,96.111,172.646,98.144,172.408z"/>
<path fill-rule="evenodd" clip-rule="evenodd" fill="#eef9fc" class="fill" d="M121.976,115.955c1.163-1.262,2.088-2.265,3.218-3.491
	c0.426,1.13,0.753,1.998,1.142,3.027C124.833,115.65,123.535,115.788,121.976,115.955z"/>
<path fill-rule="evenodd" clip-rule="evenodd" fill="#eef9fc" class="fill" d="M73.343,116.509c-1.078,0.108-2.156,0.216-3.463,0.347
	c0.151-1.176,0.273-2.115,0.425-3.299c1.151,0.991,2.128,1.833,3.105,2.674C73.388,116.322,73.365,116.416,73.343,116.509z"/>
<path fill-rule="evenodd" clip-rule="evenodd" fill="#eef9fc" class="fill" d="M115.267,78.658c0.425-0.027,0.755-0.049,1.195-0.076
	c0,1.595,0,3.097,0,4.65c-0.426,0.142-0.742,0.248-1.195,0.399C115.267,81.906,115.267,80.323,115.267,78.658z"/>
<path fill-rule="evenodd" clip-rule="evenodd" fill="#eef9fc" class="fill" d="M78.806,136.961c-0.841-1.381-0.614-2.455,0.967-4.107
	C79.426,134.326,79.117,135.638,78.806,136.961z"/>
<path fill-rule="evenodd" clip-rule="evenodd" fill="#eef9fc" class="fill" d="M95.232,120.699c0-0.486,0-0.976,0-1.52c0.346,0,0.589,0,1.049,0
	c-0.273,0.623-0.489,1.111-0.704,1.6C95.463,120.754,95.347,120.726,95.232,120.699z"/>
<path fill-rule="evenodd" clip-rule="evenodd" fill="#eef9fc" class="fill" d="M86.788,37.841c2.074-2.034,4.324-2.096,5.984-0.161
	C90.655,40.768,88.537,40.733,86.788,37.841z M88.832,38.444c1.196,0.727,1.37,0.708,2.229-0.324
	c-0.373-0.412-0.762-0.843-1.123-1.238C89.119,37.184,88.821,37.667,88.832,38.444z"/>
<path fill-rule="evenodd" clip-rule="evenodd" fill="#eef9fc" class="fill" d="M112.765,38.742c-1.018,0.636-1.886,1.265-2.829,1.745
	c-0.967,0.494-2.226-0.045-3.224-1.234C108.245,37.134,110.924,36.842,112.765,38.742z M109.029,39.314
	c1.106,0.243,1.106,0.243,1.71-0.202c-0.471-1.083-1.138-1.406-1.811-0.752C108.955,38.618,108.99,38.95,109.029,39.314z"/>
</svg>
