<svg version="1.1" id="svg" xmlns="http://www.w3.org/2000/svg" xmlns:xlink="http://www.w3.org/1999/xlink" x="0px" y="0px"
	 width="200px" height="200px" viewBox="0 0 200 200" enable-background="new 0 0 200 200" xml:space="preserve">
<path class="stroke" fill="#183046"  fill-rule="evenodd" clip-rule="evenodd" d="M95.559,81.495c1.206-0.043,2.411-0.106,3.616-0.124
	c4.738-0.07,8.475,4.201,7.617,8.946c-0.496,2.745-2.017,4.779-4.648,5.973c-1.646,0.748-3.354,1.13-5.118,1.233
	c-2.797,0.161-5.261-0.702-7.26-2.73c-0.729-0.74-1.173-1.639-1.322-2.659c-0.337-2.306,0.039-4.461,1.263-6.493
	c0.919-1.526,2.159-2.589,3.788-3.248c0.704-0.284,1.393-0.607,2.089-0.913C95.585,81.479,95.559,81.495,95.559,81.495z"/>
<g>
	<path class="stroke" fill="#183046"  d="M95.585,81.479c-0.004,0-0.007-0.001-0.012-0.001c-0.005,0.006-0.01,0.012-0.015,0.018L95.585,81.479z"/>
	<path class="stroke" fill="#183046"  d="M147.216,87.13c-2.339,1.024-4.801,1.361-7.359,1.183c1.623-0.451,3.278-0.778,4.893-1.246
		c3.579-1.039,4.146-1.32,4.567-2.107c-2.787,0.705-5.463,1.433-8.23,1.702c0.236-0.159,0.486-0.267,0.741-0.364
		c2.141-0.81,4.273-1.635,6.184-2.928c0.283-0.191,0.556-0.416,0.774-0.675c0.232-0.273,0.139-0.512-0.193-0.607
		c-1.646,0.765-3.247,1.567-4.897,2.257c-1.049,0.438-2.159,0.739-3.259,1.042c-0.441,0.122-0.926,0.082-1.391,0.116
		c0.258-0.374,0.576-0.553,0.893-0.731c1.991-1.126,4.024-2.185,5.96-3.398c1.645-1.029,3.19-2.215,4.752-3.37
		c1.196-0.885,2.363-1.812,3.514-2.758c0.329-0.271,0.554-0.669,0.826-1.01c-0.054-0.075-0.105-0.15-0.159-0.226
		c-0.325,0.131-0.679,0.219-0.97,0.404c-0.317,0.201-0.564,0.509-0.863,0.745c-3.241,2.574-6.736,4.763-10.365,6.737
		c-0.697,0.379-1.473,0.614-2.211,0.915c-0.039-0.07-0.076-0.139-0.114-0.209c3.531-1.83,6.454-4.364,9.016-7.478
		c-0.77-0.171-1.231,0.079-1.638,0.477c-1.016,0.993-2.008,2.008-3.047,2.977c-0.684,0.638-1.393,1.266-2.452,1.737
		c0.373-0.6,0.633-1.015,0.891-1.431c-0.922,0.26-1.726,0.693-2.551,1.082c-0.715,0.334-1.454,0.618-2.176,0.923
		c-0.167-0.177-0.281-0.264-0.345-0.377c-0.045-0.078-0.02-0.193-0.021-0.225c3.501-2.284,6.909-4.589,9.48-7.964
		c-0.08-0.181-0.154-0.369-0.249-0.546c-0.023-0.042-0.119-0.048-0.218-0.083c-3.44,2.58-6.552,5.663-10.615,7.516
		c-0.507-0.341-1.046-0.704-1.573-1.06c0.039-0.121,0.041-0.206,0.084-0.247c1.596-1.493,3.201-2.974,4.789-4.475
		c0.854-0.807,1.703-1.621,2.502-2.481c0.349-0.375,0.574-0.872,0.277-1.471c-1.49,1.746-3.812,3.649-4.898,4.011
		c0.58-1.016,1.722-1.643,1.885-3.031c-0.495,0.162-0.87,0.286-1.213,0.398c-1.062,1.671-2.445,2.987-3.837,4.291
		c-0.455,0.426-0.946,0.815-1.447,1.188c-0.181,0.133-0.436,0.165-0.657,0.243c-0.035-0.065-0.07-0.132-0.104-0.199
		c0.107-0.118,0.204-0.249,0.326-0.353c0.636-0.537,1.284-1.06,1.915-1.604c0.365-0.314,0.572-0.676,0.173-1.187
		c-0.628,0.463-1.199,0.908-1.794,1.319c-0.597,0.412-1.051,1.078-1.909,1.06c0.38-0.442,0.828-0.798,1.249-1.184
		c0.74-0.678,1.47-1.367,2.19-2.064c0.241-0.232,0.377-0.505-0.026-0.792c-1.643,1.133-3.284,2.266-4.892,3.375
		c-0.619-0.3-1.099-0.532-1.79-0.868c2.762-1.74,4.363-4.217,6.207-6.72c-0.864,0.27-1.859,0.983-2.416,1.796
		c-1.199,1.751-2.979,2.879-4.503,4.281c-0.096,0.088-0.238,0.125-0.389,0.2c-0.147-0.087-0.29-0.172-0.477-0.283
		c0.185-0.266,0.318-0.505,0.495-0.707c1.141-1.308,2.322-2.581,3.426-3.92c0.566-0.688,1.012-1.479,1.48-2.242
		c0.104-0.168,0.073-0.416,0.105-0.627c-0.05-0.022-0.101-0.043-0.149-0.064c-2.213,2.35-4.426,4.701-6.672,7.087
		c-0.299-0.101-0.534-0.181-0.845-0.286c0.18-0.256,0.287-0.425,0.411-0.582c0.604-0.761,1.234-1.503,1.812-2.282
		c0.37-0.5,0.69-1.04,0.991-1.586c0.186-0.337,0.326-0.728-0.254-0.919c-1.496,1.66-2.518,3.737-4.452,5.113
		c-0.413-0.123-0.848-0.25-1.373-0.406c0.213-0.305,0.324-0.475,0.446-0.638c0.662-0.89,1.372-1.75,1.977-2.678
		c0.372-0.572,0.635-1.23,0.859-1.88c0.14-0.405,0.169-0.883-0.427-1.292c-0.643,2.562-2.456,4.258-4.023,6.23
		c-0.515-0.125-0.995-0.243-1.627-0.397c1.532-2.109,3.032-4.07,3.438-6.628c-0.252-0.05-0.475-0.095-0.793-0.158
		c-0.661,2.518-2.082,4.546-3.798,6.508c-0.684-0.175-1.364-0.348-2.012-0.513c0.562-1.794,1.085-3.469,1.631-5.213
		c-0.138-0.16-0.31-0.361-0.427-0.496c-0.321,0-0.552,0-0.821,0c-0.165,1.958-0.921,3.686-1.782,5.443
		c-0.496-0.103-0.915-0.189-1.372-0.283c0.267-1.343,0.511-2.559,0.758-3.792c-0.267-0.252-0.478-0.453-0.728-0.691
		c-0.456,1.495-0.884,2.896-1.321,4.328c-0.992-0.108-1.885-0.033-2.751-0.396c0.549-1.57,1.394-3.02,0.987-4.73
		c-1.066,1.464-1.169,3.377-2.272,4.777c-1.567-0.062-3.08-0.123-4.693-0.187c0.048-0.382,0.105-0.717,0.126-1.053
		c0.065-1.072,0.143-2.146,0.161-3.22c0.008-0.47-0.062-0.977-0.828-1.142c-0.085,1.908-0.121,3.765-0.581,5.624
		c-1.766,0.049-3.454,0.452-5.336,0.382c0.289-1.961,0.559-3.794,0.829-5.626c-0.82,1.854-0.936,3.869-1.359,5.874
		c-0.567,0.091-1.093,0.174-1.708,0.272c-0.226-2.224,0.6-4.125,0.974-6.104c-1.086,1.898-1.343,4.042-1.717,6.191
		c-0.796,0.099-1.538,0.19-2.32,0.287c-0.258-0.809-0.493-1.546-0.729-2.284c-0.071,0.015-0.143,0.029-0.214,0.043
		c0.072,0.73,0.145,1.461,0.227,2.297c-1.136,0.152-2.182,0.292-3.294,0.441c-0.515-2.038-0.434-3.995-0.301-5.957
		c-0.85,1.961-0.479,4.023-0.573,6.145c-0.522,0.103-1.039,0.203-1.662,0.325c-0.136-1.458-0.26-2.786-0.384-4.114
		c-0.05,0.002-0.099,0.004-0.148,0.007c-0.057,1.421-0.114,2.842-0.172,4.3c-0.812,0.172-1.509,0.32-2.258,0.479
		c-0.681-1.731-0.998-3.456-1.265-5.193c-0.076,0.013-0.151,0.026-0.228,0.04c0.24,1.768,0.479,3.535,0.719,5.289
		c-1.632,0.614-3.207,1.208-4.827,1.817c-0.229-0.647-0.425-1.201-0.62-1.756c-0.049,0.015-0.1,0.03-0.148,0.044
		c0.057,0.683,0.114,1.367,0.172,2.074c-1.741,1.053-3.479,2.104-5.319,3.215c-0.286-0.644-0.541-1.22-0.797-1.796
		c-0.047,0.01-0.094,0.021-0.141,0.031c0.145,0.757,0.291,1.514,0.439,2.288c-1.434,1.098-2.877,2.203-4.474,3.426
		c-0.319-0.754-0.567-1.337-0.815-1.92c-0.062,0.021-0.122,0.041-0.183,0.062c0.146,0.732,0.292,1.465,0.463,2.316
		c-0.203,0.154-0.479,0.365-0.771,0.585c-0.232-0.378-0.391-0.634-0.629-1.021c0.085,0.61,0.145,1.043,0.205,1.476
		c-0.066-0.024-0.133-0.049-0.198-0.075c-1.404,1.668-2.817,3.328-4.206,5.009c-0.396,0.479-0.717,1.017-1.075,1.526
		c-0.973,1.387-2.049,2.713-2.898,4.172c-1.254,2.152-2.357,4.392-3.503,6.608c-0.668,1.292-0.954,2.706-1.28,4.114
		c1.42,0.232,1.611,0.272,2.406-0.623c1.03-1.159,2.039-2.371,2.841-3.691c1.785-2.938,3.583-5.859,5.731-8.55
		c0.666-0.834,1.261-1.737,2.223-2.378c0.462,0.153,0.924,0.306,1.484,0.491c-0.294,0.344-0.465,0.557-0.65,0.758
		c-1.853,2.011-3.806,3.923-5.319,6.24c-1.973,3.019-4.072,5.956-5.595,9.243c-0.36,0.779-0.615,1.61-0.873,2.432
		c-0.27,0.854-0.05,1.652,0.425,2.381c0.738,1.134,1.756,1.966,2.968,2.536c1.647,0.776,3.328,0.618,4.926-0.12
		c1.287-0.595,2.513-1.327,3.742-2.037c0.559-0.321,1.076-0.424,1.667-0.123c1.05,0.535,2.142,0.992,3.155,1.586
		c1.646,0.962,3.243,2.006,4.858,3.018c0.313,0.197,0.619,0.406,0.925,0.606c-0.444,1.248-1.256,2.244-1.385,3.532
		c0.688-0.13,0.637-0.173,1.07-0.699c0.546-0.663,1.172-1.262,1.789-1.861c0.237-0.23,0.545-0.295,0.851,0.074
		c-0.159,0.466-0.334,0.951-0.492,1.442c-0.562,1.741-1.188,3.476-0.764,5.405c0.172,0.041,0.364,0.088,0.632,0.152
		c0.094-2.631,1.489-4.671,2.724-6.888c0.435,0.125,0.796,0.228,1.225,0.351c-1.271,2.782-2.106,5.512-2.055,8.569
		c0.742-0.747,0.882-1.594,1.053-2.428c0.196-0.946,0.535-1.826,1.307-2.562c0.092,0.855,0.183,1.712,0.273,2.567
		c0.081,0.006,0.16,0.012,0.24,0.019c0.741-1.412,0.936-3.105,2.087-4.314c-0.125,1.042-0.266,2.073-0.529,3.07
		c-0.305,1.157-0.107,2.25,0.185,3.474c0.263-0.241,0.449-0.413,0.619-0.568c-0.159-1.147,0.058-2.16,0.553-3.225
		c0.586,0.761-0.055,1.809,0.858,2.479c0.482-1.937,0.994-3.76,1.852-5.533c0.332,0.087,0.608,0.159,0.978,0.255
		c-0.153,0.315-0.238,0.531-0.357,0.728c-0.763,1.253-1.348,2.58-1.663,4.019c-0.286,1.301-0.359,2.608-0.148,3.929
		c0.082,0.513,0.253,0.849,0.849,0.646c0.253-3.915,0.733-5.92,1.618-6.711c0.035,0.296,0.067,0.57,0.101,0.843
		c0.175,1.479,0.349,2.958,0.527,4.437c0.054,0.442,0.127,0.879,0.704,1.154c0.152-1.216,0.256-2.374,0.453-3.515
		c0.197-1.15,0.229-2.351,0.82-3.413c0.58,2.294,0.354,4.667,0.862,7.105c0.327-0.378,0.521-0.604,0.683-0.792
		c0.095-2.121-0.301-4.18,0.017-6.286c0.642,0.544,1.156,1.124,1.303,1.986c0.133,0.783,0.314,1.559,0.506,2.331
		c0.146,0.579,0.462,0.78,1.119,0.76c0-0.547,0-1.097,0-1.523c-0.579-1.791-1.124-3.475-1.666-5.153
		c0.741,0.006,0.908,0.023,1.204,0.662c0.391,0.842,0.758,1.72,0.955,2.621c0.417,1.913,0.718,3.851,1.069,5.778
		c0.037,0.204,0.091,0.405,0.145,0.605c0.042,0.161,0.095,0.318,0.144,0.478c0.136-0.071,0.272-0.143,0.408-0.214
		c-0.007-2.859-0.162-5.725,0.188-8.61c0.5,0.523,0.952,1.047,1.256,1.646c0.677,1.326,1.255,2.701,1.918,4.034
		c0.429,0.863,0.93,1.691,1.421,2.521c0.067,0.113,0.261,0.151,0.488,0.273c0.079-1.871-0.714-3.416-1.252-4.995
		c-0.55-1.613-1.348-3.142-2.053-4.742c0.063-0.021,0.187-0.079,0.314-0.101c0.131-0.021,0.268-0.005,0.477-0.005
		c1.29,1.655,2.385,3.385,2.563,5.557c0.036,0.45,0.078,0.903,0.187,1.337c0.044,0.172,0.277,0.296,0.585,0.601
		c0.382-1.539,0.019-2.788-0.165-4.075c-0.193-1.352-0.698-2.465-1.868-3.429c0.805-0.112,1.377-0.194,1.935-0.272
		c1.029,1.381,1.784,2.819,2.436,4.316c0.487,1.119,0.955,2.24,0.429,3.465c0.412,0.135,0.763,0.25,1.146,0.375
		c0.308-0.592,0.293-1.183,0.185-1.759c-0.336-1.785,0.493-3.372,0.705-5.171c0.248,0.16,0.388,0.209,0.467,0.308
		c1.046,1.297,2.013,2.648,2.542,4.251c0.274,0.83,0.734,1.498,1.484,2.134c0.322-1.207-0.208-2.143-0.472-3.111
		c-0.264-0.97-0.506-1.957-0.901-2.875c-0.396-0.915-0.971-1.75-1.469-2.625c0.082-0.027,0.146-0.065,0.209-0.065
		c0.066-0.002,0.14,0.021,0.197,0.054c1.439,0.826,2.667,1.862,3.402,3.397c0.314,0.657,0.641,1.309,0.993,1.945
		c0.094,0.168,0.305,0.272,0.568,0.496c0.146-2.274-1.262-3.726-2.177-5.399c1.075,0.272,1.913,0.901,2.615,1.62
		c0.939,0.962,1.73,2.068,2.568,3.127c0.263,0.331,0.478,0.683,1.094,0.404c-0.658-1.413-1.191-2.851-2.346-3.904
		c-1.11-1.014-2.28-1.963-3.426-2.943c0.457-0.393,0.972-0.246,1.39-0.061c1.461,0.646,2.827,1.461,4.104,2.558
		c0.134,1.172,0.27,2.368,0.408,3.586c0.319,0.039,0.636,0.079,0.978,0.122c-0.081-0.849-0.154-1.618-0.237-2.484
		c0.957,0.41,1.126,1.276,1.612,1.868c0.382-0.134,0.716-0.25,1.211-0.422c-1.062-1.388-2.065-2.701-3.096-4.048
		c-0.075-0.655-0.153-1.355-0.257-2.27c1.087,0.539,2.001,0.942,2.864,1.435c0.869,0.496,1.666,1.121,2.534,1.618
		c0.854,0.49,1.398,1.401,2.425,1.721c-0.019-0.399-0.077-0.772-0.265-1.06c-0.225-0.342-0.542-0.63-0.851-0.907
		c-1.147-1.026-2.306-2.038-3.413-3.013c1.291,0.368,3.433,2.008,5.824,4.505c0.231,0,0.504,0,0.859,0
		c-0.954-1.456-1.898-2.804-3.182-3.816c-1.283-1.012-2.701-1.856-4.216-2.879c0.331,0,0.521-0.042,0.685,0.006
		c3.236,0.943,5.307,3.239,6.836,6.082c0.413-0.213,0.706-0.366,0.969-0.501c-0.372-0.846-0.736-1.661-1.092-2.481
		c-0.49-1.128-1.324-1.94-2.371-2.542c-0.51-0.294-1.055-0.527-1.577-0.8c-0.442-0.229-0.875-0.477-1.447-0.791
		c0.454-0.268,0.744-0.441,1.134-0.672c0.738,0.331,1.574,0.552,2.221,1.029c1.056,0.78,2.027,1.686,2.955,2.62
		c0.505,0.508,0.829,1.192,1.267,1.774c0.207,0.276,0.398,0.647,0.997,0.575c-0.507-0.994-0.881-1.959-1.454-2.786
		c-0.609-0.876-1.326-1.72-2.146-2.393c-0.774-0.636-1.745-1.032-2.763-1.61c0.274-0.061,0.422-0.146,0.512-0.105
		c0.939,0.434,1.958,0.765,2.787,1.358c2.17,1.551,4.312,3.155,6.011,5.256c0.034,0.042,0.126,0.038,0.172,0.05
		c0.351-0.302,0.69-0.596,0.962-0.829c-1.509-1.462-3.024-2.93-4.539-4.4c-0.981-0.954-2.087-1.715-3.378-2.196
		c-0.201-0.075-0.38-0.21-0.757-0.424c0.55-0.296,0.911-0.614,1.316-0.687c1.851-0.333,3.724-0.467,5.591-0.162
		c1.717,0.281,3.37,0.801,4.943,1.559c0.598,0.286,1.23,0.349,2.106,0.18c-0.346-0.296-0.532-0.562-0.783-0.654
		c-1.655-0.617-3.3-1.28-4.996-1.762c-1.393-0.396-2.852-0.557-4.278-0.832c-0.207-0.04-0.402-0.138-0.795-0.275
		c0.462-0.161,0.717-0.265,0.979-0.338c0.3-0.083,0.604-0.17,0.913-0.201c3.265-0.33,6.436,0.036,9.479,1.312
		c0.384,0.161,0.762,0.337,1.151,0.483c0.292,0.11,0.59,0.152,0.852-0.269c-0.828-0.511-1.594-1.05-2.418-1.477
		c-2.438-1.264-5.109-1.725-7.778-2.18c-0.301-0.053-0.6-0.113-0.9-0.169c0.009-0.104,0.019-0.206,0.027-0.31
		c1.196-0.088,2.396-0.279,3.59-0.245c4.14,0.116,8.236,0.53,12.104,2.23c0.203-0.148,0.382-0.279,0.672-0.492
		c-0.441-0.252-0.746-0.488-1.09-0.615c-4.557-1.681-9.294-2.353-14.237-2.455c0.211-0.404,0.381-0.729,0.576-1.103
		c2.948-0.377,5.611,0.596,8.279,1.604c0.153-0.242,0.275-0.435,0.368-0.583c-2.459-1.521-5.228-1.807-8.036-2.261
		c0.13-0.354,0.22-0.596,0.311-0.841c1.551-0.315,2.957,0.013,4.325,0.561c1.121,0.449,2.224,0.942,3.371,1.432
		c0.147-0.225,0.252-0.382,0.369-0.561c-1.232-0.609-2.377-1.275-3.598-1.75c-1.244-0.484-2.562-0.78-3.956-1.191
		c0.097-0.343,0.203-0.719,0.343-1.214c1.472,0.078,2.887,0.153,4.303,0.229c0.019-0.09,0.037-0.181,0.056-0.271
		c-1.07-1.084-2.666-0.741-4.037-1.244c0.093-0.389,0.176-0.737,0.251-1.05c1.097-0.105,2.079-0.2,3.306-0.318
		c-0.303-0.409-0.408-0.712-0.605-0.793c-1.212-0.499-2.433-0.391-3.587,0.019c-0.249,0.549-0.42,1.078-0.709,1.533
		c-1.357,2.14-2.575,4.337-3.533,6.697c-0.914,2.25-2.051,4.417-3.882,6.098c-1.123,1.03-2.248,2.075-3.483,2.959
		c-1.176,0.84-2.48,1.509-3.763,2.19c-0.488,0.259-1.069,0.345-1.608,0.51c0.516-0.477,1.101-0.765,1.679-1.062
		c2.143-1.102,4.107-2.41,5.688-4.287c2.594-3.081,4.144-6.706,5.592-10.387c0.773-1.966,1.408-3.986,2.148-5.966
		c0.286-0.764,0.691-1.483,0.984-2.102c1.253,0.11,2.316,0.257,3.384,0.283c1.212,0.029,2.427-0.091,3.64-0.071
		c3.052,0.049,5.9-0.723,8.626-2.034c0.258-0.124,0.496-0.289,0.929-0.545c-2.428,0.638-4.597,1.414-6.829,1.741
		c-2.273,0.334-4.611,0.227-6.921,0.312c-0.007-0.074-0.013-0.147-0.019-0.221c0.158-0.031,0.316-0.066,0.475-0.094
		c1.876-0.334,3.759-0.634,5.627-1.006c2.876-0.571,5.625-1.499,8.128-3.073c0.595-0.374,1.115-0.812,1.527-1.379
		c-1.775,1.276-3.775,2.055-5.784,2.802C148.152,87.11,147.668,87.077,147.216,87.13z M54.059,110.093
		c0.131-0.487,0.286-1.064,0.448-1.665c0.792,0.567,1.438,1.131,2.174,1.528c0.714,0.384,1.519,0.597,2.266,0.878
		C57.104,112.297,55.552,111.93,54.059,110.093z M60.781,109.834c-0.238,0-0.48,0.002-0.722,0c-1.806-0.017-2.771-0.692-3.265-2.422
		c-0.206-0.719-0.293-1.491-0.309-2.242c-0.018-0.815,0.287-1.556,0.898-2.14c0.793-0.755,1.461-1.663,2.656-2.155
		c0.234,2.709,1.124,5.089,3.132,7.036C62.346,108.578,61.572,109.2,60.781,109.834z M120.634,115.414
		c0.074,0.104,0.149,0.207,0.224,0.311c-0.051,0.054-0.102,0.108-0.151,0.161c-0.096-0.082-0.191-0.164-0.288-0.245
		C120.49,115.565,120.562,115.49,120.634,115.414z M130.69,77.624c-0.649,0.923-1.607,1.316-2.678,1.506
		C128.805,78.442,129.634,77.829,130.69,77.624z M129.192,76.781c-0.485,0.687-0.716,0.819-1.801,1.068
		C128.021,77.308,128.581,77,129.192,76.781z M124.265,76.878c0.547-0.408,1.044-0.881,1.571-1.331
		c0.409,0.141,0.762,0.262,1.312,0.449c-1.558,0.813-2.901,1.628-4.401,2.112c-0.036-0.059-0.071-0.118-0.107-0.176
		C123.183,77.583,123.749,77.264,124.265,76.878z M126.879,78.244c-0.184,0.121-0.367,0.241-0.552,0.361
		c-0.034-0.048-0.069-0.096-0.104-0.143c0.176-0.136,0.353-0.272,0.528-0.408C126.794,78.117,126.837,78.18,126.879,78.244z
		 M119.636,73.537c0.265,0.05,0.434,0.073,0.596,0.119c0.052,0.014,0.085,0.091,0.214,0.24c-0.752,0.523-1.493,1.04-2.235,1.557
		c-0.046-0.04-0.092-0.079-0.138-0.118C118.579,74.752,119.085,74.17,119.636,73.537z M116.854,72.963
		c0.366,0.077,0.711,0.149,1.057,0.222c0.017,0.074,0.033,0.148,0.051,0.224c-0.869,0.563-1.736,1.126-2.604,1.689
		c-0.061-0.068-0.121-0.137-0.182-0.205C115.72,74.267,116.265,73.641,116.854,72.963z M108.476,84.532
		c0.014-0.156,0.027-0.311,0.042-0.465c0.417-0.161,0.845-0.326,1.267-0.522c0.974-0.452,1.934-0.935,2.892-1.422
		c0.576-0.292,1.123-0.308,1.78,0.14c-0.072,0.368-0.152,0.782-0.234,1.202c-1.033,0.413-2.039,0.815-3.045,1.217
		C110.275,84.655,109.375,84.614,108.476,84.532z M109.647,81.582c-0.334,0.305-0.672,0.606-1.011,0.906
		c0.03-0.607,0.028-1.203-0.032-1.788c0.433,0.059,0.947,0.13,1.621,0.223C109.948,81.241,109.813,81.429,109.647,81.582z
		 M108.777,95.386c1.259,0.703,2.561,1.326,3.541,2.42c-0.132,0.72-0.484,1.224-1.146,1.465c-0.909-0.585-1.811-1.165-2.715-1.746
		C108.549,96.812,108.665,96.101,108.777,95.386z M108.944,93.982c0.027-0.336,0.057-0.672,0.053-1.016
		c0.715-0.153,1.327-0.262,1.971-0.188c0.75,0.085,1.498,0.11,2.246,0.101c0.472,0.16,0.946,0.322,1.416,0.481
		c0.116,0.982-0.251,1.598-0.893,2.181C112.125,95.123,110.578,94.437,108.944,93.982z M113.57,72.558
		c0.393,0.063,0.835,0.133,1.367,0.217c-0.787,1.066-1.826,1.488-2.809,1.998c-0.048-0.058-0.096-0.118-0.143-0.176
		C112.488,73.95,112.991,73.303,113.57,72.558z M110.752,72.44c0.349,0,0.642,0,1.216,0c-0.851,0.859-1.53,1.545-2.208,2.231
		c-0.064-0.066-0.129-0.132-0.193-0.199C109.961,73.797,110.355,73.121,110.752,72.44z M106.483,72.51
		c0.798-0.054,1.607-0.108,2.464-0.166c-0.467,1.407-2.157,2.572-3.627,2.485C105.725,74.024,106.078,73.32,106.483,72.51z
		 M101.513,72.76c1.086-0.063,2.146-0.126,3.229-0.188c-0.46,1.786-1.916,2.626-3.653,2.054
		C101.232,73.993,101.361,73.427,101.513,72.76z M99.538,72.762c-0.148,1.334-1.511,2.558-2.816,2.6
		c-0.623-0.527-0.666-1.285-0.837-2.151C97.147,73.056,98.33,72.91,99.538,72.762z M95.02,73.4c0.195,0.77,0.377,1.483,0.605,2.383
		c-0.498-0.028-0.894-0.05-1.397-0.079c-0.191-0.66-0.375-1.293-0.589-2.027C94.175,73.57,94.562,73.492,95.02,73.4z M92.828,73.758
		c0.183,0.758,0.348,1.441,0.557,2.301c-0.595,0.047-1.06,0.085-1.627,0.131c-0.26-0.661-0.503-1.278-0.797-2.03
		C91.642,74.014,92.19,73.895,92.828,73.758z M90.173,74.377c0.217,0.665,0.414,1.27,0.66,2.023
		c-0.679,0.096-1.268,0.179-1.947,0.273c-0.419-0.527-0.771-0.968-1.199-1.505C88.601,74.878,89.344,74.641,90.173,74.377z
		 M86.803,75.481c0.327,0.472,0.598,0.862,0.972,1.402c-0.964,0.166-1.746,0.301-2.641,0.454c-0.161-0.313-0.321-0.627-0.55-1.072
		C85.388,75.981,86.082,75.736,86.803,75.481z M83.931,83.286c1.281,0.295,2.548,0.651,3.817,0.995
		c0.328,0.089,0.645,0.223,0.979,0.341c0.338-0.183,0.639-0.346,0.944-0.512c0.129-0.296,0.252-0.577,0.423-0.973
		c-0.322-0.36-0.632-0.77-1.008-1.107c-0.383-0.341-0.726-0.654-0.462-1.34c0.837,0.576,1.643,1.131,2.544,1.752
		c0.521-0.269,1.064-0.548,1.438-0.741c0.371-0.708,0.652-1.246,0.987-1.886c0.679,0.686,0.967,1.64,1.979,1.661
		c0.396-0.486,0.791-0.973,1.195-1.468c0.345,0.278,0.583,0.471,0.793,0.642c1.112,0.233,1.298-1.104,2.179-1.213
		c0.221,1.252,0.221,1.252,0.864,1.606c0.712-0.747,1.191-1.905,2.591-1.747c0.152,0.763-0.716,1.344-0.304,2.104
		c0.32,0.275,0.623,0.228,0.893-0.087c0.227-0.262,0.416-0.558,0.657-0.804c0.605-0.62,1.303-0.999,2.379-0.733
		c-0.3,0.492-0.58,0.951-0.855,1.401c-0.793,0.859-1.583,1.721-2.347,2.605c-1.438,1.661-2.781,3.401-4.441,4.862
		c-0.421,0.374-1.017,0.751-0.711,1.567c0.701,0.378,1.13,1.106,1.687,1.701c1.56,1.666,3.382,3.047,4.969,4.683
		c0.393,0.406,0.817,0.771,1.272,1.094c0.837,1.143,1.67,2.279,2.494,3.403c-0.587,0.973-1.357,1.002-2.325,0.76
		c-0.936-1.384-1.475-3.144-2.938-4.238c-0.493,0.328-0.362,0.711-0.262,1.129c0.383,1.613,0.736,3.233,1.089,4.802
		c-0.98,0.601-1.396,0.535-1.76-0.294c-0.305-0.693-0.523-1.428-0.729-2.159c-0.301-1.059-0.558-2.131-1.201-3.076
		c-0.575,0.233-0.445,0.685-0.45,1.079c-0.014,1.63-0.021,3.26-0.037,4.891c-0.002,0.238-0.036,0.476-0.058,0.732
		c-0.568,0.317-1.082,0.184-1.702-0.093c-0.567-1.967-0.279-4.076-0.618-6.161c-0.25,0-0.471,0-0.726,0
		c-0.654,2.244-0.986,4.497-1.146,6.767c-0.975,0.028-1.218-0.225-1.173-1.128c0.068-1.351,0.136-2.701,0.194-4.053
		c0.016-0.341,0.003-0.685,0.003-1c-0.617-0.356-0.848,0-0.983,0.415c-0.303,0.922-0.568,1.857-0.844,2.788
		c-0.254,0.858-0.501,1.72-0.771,2.641c-0.632-0.163-0.657-0.608-0.6-1.046c0.173-1.339,0.379-2.673,0.568-4.01
		c0.062-0.435,0.112-0.872,0.165-1.29c-0.532-0.28-0.817-0.081-1.009,0.297c-0.234,0.463-0.451,0.937-0.653,1.414
		c-0.578,1.365-1.145,2.735-1.71,4.088c-0.955-0.29-1.059-0.489-0.911-1.264c0.258-1.353,0.943-2.52,1.536-3.731
		c0.25-0.513,0.439-1.055,0.651-1.573c-0.541-0.301-0.864-0.122-1.122,0.188c-0.666,0.796-1.325,1.601-1.965,2.419
		c-0.529,0.676-1.029,1.376-1.457,1.951c-0.806,0.192-1.268-0.026-1.675-0.613c0.817-2.302,2.521-4.044,4.116-5.921
		c-0.18-0.207-0.322-0.372-0.477-0.551c-1.394,0.569-2.44,1.54-3.578,2.379c-0.47,0.347-0.976,0.657-1.495,0.927
		c-0.511,0.267-1.06,0.313-1.681-0.02c0-0.32,0-0.68,0-1.216c1.888-1.194,3.841-2.431,5.798-3.669
		c0.054-0.551-0.268-0.705-0.702-0.628c-0.509,0.09-1.012,0.231-1.502,0.393c-1.248,0.415-2.503,0.816-3.727,1.297
		c-0.856,0.336-1.541,0.14-2.236-0.434c0.04-0.938,0.737-1.316,1.448-1.543c1.284-0.411,2.604-0.711,3.911-1.05
		c0.829-0.215,1.662-0.417,2.589-0.648c-0.178-0.317-0.287-0.512-0.349-0.622c-2.485,0-4.868,0-7.376,0
		c-0.142-0.101-0.39-0.276-0.794-0.563c2.65-0.389,5.215-0.317,7.677-1.273c-0.139-0.338-0.223-0.542-0.288-0.7
		c-2.013-0.314-3.951-0.617-5.914-0.924c0-0.639,0-1.13,0-1.765c0.518,0.073,0.917,0.116,1.311,0.188
		c1.635,0.298,3.265,0.616,4.903,0.895c0.333,0.056,0.689-0.031,1.296-0.067c-0.339-0.376-0.453-0.603-0.635-0.69
		c-1.185-0.571-2.384-1.112-3.577-1.664c-0.151-0.07-0.298-0.148-0.577-0.289C82.947,83.171,83.464,83.178,83.931,83.286z
		 M82.431,76.985c0.337,0.3,0.582,0.519,0.933,0.831c-1.598,0.692-2.976,1.292-4.417,1.917c-0.323-0.25-0.641-0.494-1.139-0.877
		C79.415,78.206,80.856,77.623,82.431,76.985z M77.188,79.227c0.23,0.257,0.496,0.552,0.855,0.949
		c-1.44,0.819-2.832,1.61-4.277,2.434c-0.403-0.259-0.766-0.493-1.138-0.732C73.105,81.307,75.788,79.755,77.188,79.227z
		 M71.822,82.168c0.279,0.24,0.582,0.5,0.943,0.811c-1.242,0.948-2.406,1.837-3.707,2.832c-0.367-0.175-0.723-0.345-1.093-0.521
		C68.578,84.425,70.547,82.839,71.822,82.168z M67.176,85.803c0.35,0.227,0.655,0.426,1.078,0.702
		c-0.297,0.299-0.543,0.548-0.861,0.871c-0.397-0.18-0.776-0.351-1.352-0.611C66.529,86.35,66.834,86.092,67.176,85.803z
		 M63.593,88.931c0.708-0.621,1.251-1.097,1.844-1.618c0.432,0.271,0.746,0.468,1.192,0.75c-0.479,0.428-0.895,0.8-1.376,1.229
		C64.789,89.192,64.308,89.087,63.593,88.931z M107.096,123.361c-0.578-1.223-1.109-2.347-1.721-3.642
		c0.525-0.035,0.982-0.064,1.422-0.094C107.632,120.849,107.331,122.052,107.096,123.361z M132.885,90.482
		c-0.902,3.022-1.638,6.1-2.977,8.979c-1.325,2.853-2.956,5.469-5.259,7.677c-1.308,1.254-2.606,2.511-4.119,3.482
		c-1.305,0.838-2.744,1.477-4.146,2.154c-3.111,1.503-6.447,2.124-9.86,2.325c-2.455,0.145-4.918,0.166-7.379,0.202
		c-2.67,0.04-5.344-0.031-8.014,0.061c-2.702,0.092-5.333-0.368-7.925-0.977c-2.593-0.609-5.131-1.452-7.681-2.232
		c-1.389-0.425-2.771-0.885-4.122-1.421c-0.664-0.264-1.288-0.681-1.855-1.125c-2.078-1.622-3.867-3.517-4.771-6.04
		c-0.851-2.376-1.003-4.838-0.72-7.37c0.249-2.227,1.132-4.115,2.453-5.901c0.661-0.081,1.259-0.098,1.826-0.241
		c0.526-0.133,1.143-0.277,1.502-0.636c0.775-0.775,1.751-1.234,2.592-1.892c1.165-0.912,2.005-2.082,2.611-3.474
		c0.204,0.042,0.396,0.082,0.64,0.133c-0.042,0.242-0.042,0.452-0.115,0.631c-0.824,1.988-1.085,4.075-1.145,6.206
		c-0.061,2.156,0.359,4.19,1.278,6.151c1.273,2.72,2.934,5.123,5.442,6.832c2.109,1.436,4.434,2.432,6.899,3.093
		c3.066,0.824,6.174,1.27,9.364,1.143c2.175-0.087,4.262-0.477,6.279-1.301c1.312-0.536,2.7-0.903,3.977-1.513
		c3.408-1.626,6.324-3.854,8.257-7.199c0.553-0.958,1.239-1.841,1.763-2.813c0.373-0.692,0.704-1.456,0.827-2.224
		c0.235-1.467,0.298-2.96,0.45-4.44c0.364-3.53-1.079-6.564-2.611-9.576c-0.139-0.272-0.267-0.552-0.395-0.817
		c0.83-0.588,1.453-0.616,2.051,0.071c0.967,1.111,2.197,1.509,3.49,1.582c0.89,0.732,1.636,1.554,2.558,2.046
		c0.89,0.476,1.96,0.611,3.174,0.96c0.894,0.727,2.082,1.536,3.063,2.545c0.699,0.718,1.121,1.706,1.55,2.652
		c0.37,0.311,0.741,0.622,1.193,1.002C132.989,89.606,133.01,90.065,132.885,90.482z M130.222,81.134
		c-0.023-0.052-0.046-0.104-0.068-0.158c0.906-0.488,1.812-0.976,2.811-1.512c0.224,0.252,0.423,0.476,0.726,0.816
		C132.454,80.584,131.338,80.859,130.222,81.134z M134.649,82.112c-0.031-0.03-0.062-0.06-0.093-0.09
		c0.065-0.072,0.119-0.171,0.202-0.211c0.073-0.035,0.178-0.007,0.459-0.007C134.922,81.965,134.785,82.039,134.649,82.112z
		 M133.912,78.896c0.045-0.066,0.09-0.132,0.134-0.199c0.431,0.282,0.86,0.565,1.313,0.863
		C134.726,80.026,134.698,80.012,133.912,78.896z M136.006,81.296c0.748-0.543,0.748-0.543,1.25-0.214
		C136.699,81.432,136.699,81.432,136.006,81.296z"/>
</g>
<path fill-rule="evenodd" clip-rule="evenodd" fill="#fafd30" class="fill" d="M100.426,89.509c2.21-2.255,4.2-4.557,6.326-6.896
	c0.303,1.239,0.012,2.382,0.146,3.462c0.694,0.445,1.413,0.46,2.115,0.389c2.123-0.215,4.247-0.028,6.372-0.07
	c0.208-0.007,0.417,0.015,0.755,0.027c-0.01,1.521-0.219,2.969-0.568,4.394c-2.673,0.601-5.364,0.258-7.98,0.677
	c-0.76,1.479-0.292,3.058-0.575,4.766C104.794,93.947,102.75,91.746,100.426,89.509z"/>
</svg>
