<svg version="1.1" xmlns="http://www.w3.org/2000/svg" xmlns:xlink="http://www.w3.org/1999/xlink" x="0px" y="0px" width="200px"
	 height="200px" viewBox="0 0 200 200" enable-background="new 0 0 200 200" xml:space="preserve">
<g id="svg">
	<path class="stroke" fill="#2a374b"  d="M161.104,118.016c-0.309-4.205-1.852-8.132-3.762-12.057c0.64,0.043,1.212,0.209,1.484-0.716
		c-0.6-1.281-1.179-2.782-1.979-4.154c-0.79-1.355-1.804-2.581-2.718-3.859c0.506-0.125,0.911-0.224,1.346-0.331
		c-0.298-1.43-1.041-2.454-1.865-3.417c-1.487-1.736-3.454-2.863-5.435-3.873c-1.436-0.732-2.114-1.776-2.363-3.25
		c-0.01-0.055,0.062-0.125,0.099-0.191c0.316,0.034,0.637,0.069,0.979,0.105c0.117-0.239,0.211-0.431,0.304-0.621
		c-0.401-0.748-0.782-1.457-1.175-2.19c0.229-0.127,0.37-0.181,0.479-0.272c0.137-0.113,0.249-0.258,0.404-0.423
		c-0.341-1.625-1.423-2.862-2.182-4.24c0.21-0.328,0.402-0.628,0.614-0.96c-0.418-0.627-0.808-1.212-1.195-1.793
		c0.122-0.33,0.236-0.638,0.386-1.039c-0.819-1.37-1.655-2.769-2.726-4.56c-0.206-1.165-1.472-2.173-2.449-3.328
		c0.086-0.365,0.16-0.682,0.233-0.993c-1.4-1.939-3.339-3.196-5.24-4.585c0.48-0.348,1.033-0.591,0.608-1.434
		c-1.681-0.755-3.5-1.572-5.226-2.348c0.12-0.29,0.274-0.658,0.468-1.121c-2.241-0.832-4.412-1.265-6.549-1.666
		c0.132-0.426,0.232-0.752,0.341-1.101c-1.849-0.739-3.719-0.57-5.477-0.96c-0.056-0.4-0.104-0.749-0.158-1.144
		c-1.961-0.247-3.851-0.054-5.8,0.105c0-0.385,0-0.699,0-1.146c-0.425-0.061-0.816-0.193-1.19-0.157
		c-1.818,0.176-3.633,0.399-5.448,0.599c-0.181,0.02-0.365,0.003-0.527,0.003c-0.192-0.308-0.362-0.582-0.533-0.855
		c-1.324-0.243-2.565,0.061-3.795,0.328c-1.118,0.243-2.211,0.596-3.24,0.879c-0.14-0.458-0.251-0.821-0.41-1.345
		c-1.888,0.534-3.654,1.033-5.491,1.552c0.217-0.529,0.331-1.005-0.172-1.142c-2.543,0.214-3.747,2.224-5.421,3.52
		c-0.593-0.69,0.347-1.795-0.867-2.24c-0.519,0.34-1.079,0.7-1.633,1.072c-1.139,0.767-2.215,1.651-3.426,2.279
		c-1.441,0.747-2.771,1.592-3.87,2.79c-0.069,0.076-0.188,0.109-0.279,0.159c-0.183-0.146-0.351-0.281-0.505-0.404
		c-2.064,0.465-3.307,2.082-4.85,3.396c-0.266-0.601-0.479-1.082-0.781-1.762c-1.247,1.389-2.368,2.638-3.508,3.907
		c-0.22-0.518-0.381-0.9-0.626-1.481c-1.395,1.265-2.625,2.379-3.845,3.485c-0.308-0.322-0.579-0.608-0.829-0.87
		c-1.731,0.779-2.696,2.448-4.351,3.204c-0.357-0.52-0.084-1.382-1.057-1.39c-1.152,1.161-1.531,2.797-2.297,4.293
		c-0.502-0.458-0.904-0.902-1.379-1.243c-1.608-1.152-3.248-2.259-4.865-3.4c-0.821-0.58-1.741-0.835-2.72-0.927
		c-0.929-0.087-1.707,0.14-2.219,1.327c0.134,1.248,0.19,2.746,0.479,4.197c0.298,1.496,0.595,2.975,0.599,4.492
		c-0.954,0.599-2.073,0.856-2.675,1.893c0.02,0.392,0.04,0.796,0.06,1.2c-0.049-0.039-0.1-0.077-0.148-0.116
		c-0.43,0.513-0.858,1.026-1.312,1.568c-0.361,1.019-0.594,2.057,0.46,2.875c-0.245,1.704-0.188,3.319,0.774,4.75
		c-1.044,1.411-1.901,2.789-1.536,4.543c0.931,0.34,1.371-0.637,2.149-0.623c-0.049,0.615-0.096,1.208-0.155,1.964
		c0.989-0.208,1.776-0.374,2.586-0.544c0.381,0.566,0.744,1.104,1.178,1.748c-0.686,0.168-1.257,0.312-1.83,0.447
		c-2.285,0.539-4.577,1.054-6.854,1.627c-0.589,0.148-1.132,0.476-1.748,0.744c0.144,0.51,0.249,0.883,0.408,1.444
		c3.646-1.311,7.151-2.672,10.952-3.206c0.283,0.239,0.555,0.469,0.996,0.841c-3.602,1.263-6.896,2.499-9.984,4.464
		c0.215,0.502,0.369,0.863,0.565,1.322c3.276-2.287,6.815-3.521,10.37-4.666c0.443,0.41,0.794,0.734,1.252,1.159
		c-3.268,1.319-6.488,2.479-9.371,4.486c0.158,0.285,0.274,0.491,0.436,0.778c3.301-1.708,6.555-3.364,10.05-4.429
		c1.121,0.453,2.218,0.896,3.293,1.33c0.196,0.921,0.409,1.715,0.529,2.522c0.369,2.471,0.679,4.951,1.058,7.42
		c0.585,3.817,0.883,7.619,0.09,11.459c-0.231,1.12-0.665,2.054-1.405,2.841c-0.476,0.508-1.114,0.866-1.692,1.273
		c-0.789,0.556-1.662,1.016-2.364,1.664c-0.897,0.827-0.907,2.077-0.174,3.022c0.544,0.111,0.881-0.247,1.229-0.588
		c0.4-0.391,0.775-0.814,1.219-1.15c0.256-0.193,0.621-0.241,1.06-0.398c-0.253,1.058-0.672,1.889-0.344,2.777
		c0.923,0.37,1.3,0.255,1.788-0.52c0.338-0.537,0.631-1.109,1.021-1.603c0.594-0.747,1.262-0.887,2.229-0.537
		c0.184,0.67,0.378,1.38,0.555,2.028c1.202,0.59,1.926,0.172,1.908-1.037c-0.007-0.367-0.104-0.734-0.179-1.098
		c-0.196-0.961-0.064-1.821,0.546-2.644c1.448-1.948,2.81-3.96,4.268-5.901c1.249-1.663,2.207-3.448,2.775-5.456
		c0.248-0.873,0.633-1.707,1.028-2.748c0.13,0.453,0.241,0.692,0.263,0.939c0.18,2.043,0.443,4.086,0.488,6.133
		c0.106,4.852,0.24,9.708-0.195,14.553c-0.096,1.063-0.032,2.173-0.523,3.068c-1.245,0.751-2.405,1.422-3.536,2.142
		c-1.291,0.822-1.46,1.804-0.517,3.197c0.806,0,1.677,0,2.502,0c0.217,0.662,0.443,1.345,0.638,1.933
		c1.274,0.339,1.987-0.477,2.896-0.918c0.492,1.009,1.322,0.81,2.116,0.542c0.414-0.14,0.804-0.4,1.15-0.674
		c1.386-1.096,2.21-2.586,2.829-4.191c1.391,0.135,2.007-0.282,2.383-1.619c0.149-0.536,0.257-1.083,0.398-1.692
		c2.078-0.186,1.926-2.038,2.428-3.361c0.398,0.06,0.72,0.108,1.072,0.161c0.24-0.279,0.537-0.497,0.658-0.788
		c0.498-1.194,0.943-2.41,1.424-3.658c0.479,0.351,1.07,0.647,1.747,0.28c0.64-0.513,0.858-1.212,0.925-1.979
		c0.126-1.45,0.305-2.9-0.178-4.327c-0.039-0.117,0.038-0.272,0.074-0.486c0.496,0.229,0.93,0.431,1.341,0.622
		c1.072-0.249,1.315-0.434,1.217-1.394c-0.144-1.405-0.432-2.795-0.663-4.191c-0.045-0.274-0.116-0.544-0.156-0.726
		c0.796-0.255,1.561-0.365,2.174-0.73c0.764-0.455,0.338-1.425,0.572-2.197c0.659,0.441,1.241,0.831,1.85,1.237
		c0.579,0,1.166,0,1.836,0c0.123,2.086,0.422,4.08,2.588,5.012c0.863,1.858,0.752,3.825,0.951,5.748
		c0.195,1.881-0.554,3.225-2.067,4.278c-0.433,0.302-0.742,0.83-1.005,1.31c-0.253,0.462-0.285,0.992,0.032,1.464
		c0.984,0.258,1.688-0.763,2.642-0.564c-0.056,0.536-0.104,0.998-0.149,1.442c1.222,0.637,1.93-0.149,2.72-0.739
		c0.152,0.23,0.282,0.426,0.406,0.616c1.34,0.067,2.229-0.576,2.684-1.691c0.332-0.813,0.455-1.72,0.601-2.598
		c0.204-1.237,0.343-2.484,0.504-3.682c0.805,0.13,1.491,0.241,2.32,0.375c0.773,1.533,1.601,3.278,4.112,2.397
		c-0.061,0.429-0.07,0.722-0.146,0.995c-0.359,1.294-0.764,2.576-1.1,3.876c-0.327,1.266-1.127,2.056-2.297,2.557
		c-0.823,0.352-1.642,0.723-2.426,1.153c-0.914,0.502-1.843,1.019-2.424,1.937c-0.669,1.059-0.337,1.819,0.887,2.118
		c0.103,0.025,0.195,0.096,0.281,0.14c0.393,2.198,0.682,2.454,2.515,2.198c0.423-0.368,0.867-0.756,1.39-1.21
		c0.379,0.4,0.649,0.707,0.942,0.991c0.658,0.636,1.3,0.711,1.98,0.105c0.435-0.386,0.795-0.893,1.073-1.409
		c0.477-0.879,1.124-1.578,1.92-2.154c0.664-0.481,1.329-0.961,2.008-1.422c2.014-1.372,3.2-3.299,3.786-5.625
		c0.488-1.938,0.634-3.894,0.232-5.835c0.289-0.294,0.61-0.519,0.784-0.827c0.193-0.343,0.252-0.762,0.36-1.12
		c0.468-0.122,0.896-0.234,1.48-0.388c0.235-0.769,0.482-1.569,0.734-2.389c0.5-0.072,1.009-0.145,1.358-0.195
		c1.242-0.967,1.276-2.298,1.543-3.678c0.382,0.293,0.629,0.502,0.895,0.684c0.984,0.676,1.996,0.399,2.464-0.701
		c0.188-0.442,0.359-0.916,0.411-1.389c0.105-0.97,0.126-1.949,0.177-2.855c0.456,0.449,0.869,1.129,1.461,1.369
		c0.749,0.303,1.409-0.245,1.938-0.891c0.409-1.853-0.29-3.81,0.354-5.766c1.902,1.928,3.191,4.103,3.559,6.74
		c0.084,0.599-0.019,1.279-0.229,1.85c-0.423,1.153-0.99,2.252-1.475,3.383c-0.147,0.346-0.216,0.725-0.364,1.242
		c0.77,0.066,1.354,0.188,1.929,0.147c0.598-0.042,1.184-0.241,1.924-0.405c-0.582,1.3-1.109,2.411-1.964,3.314
		c-0.874,0.92-1.8,1.79-2.692,2.692c-0.311,0.312-0.678,0.62-0.453,1.202c1.276,0.498,2.645,0.188,4.203,0.152
		c-0.318,0.64-0.465,1.106-0.747,1.47c-1.12,1.448-2.27,2.871-3.858,3.857c-0.411,0.255-0.805,0.553-1.152,0.888
		c-0.182,0.176-0.247,0.475-0.413,0.822c1.176,0.486,2.217,0.917,3.272,1.353c-0.08,0.236-0.104,0.388-0.178,0.51
		c-0.115,0.19-0.264,0.359-0.399,0.536c-2.002,2.584-4.798,3.945-7.765,5.05c-0.57,0.213-1.121,0.486-1.767,0.769
		c0.461,1.452,2.063,1.32,2.721,2.395c-0.212,0.177-0.404,0.426-0.655,0.531c-2.642,1.098-5.133,2.58-8.01,3.084
		c-0.545,0.096-1.172,0.249-1.49,0.976c0.67,0.645,1.344,1.295,2.017,1.944c-0.774,0.891-1.642,1.412-2.625,1.672
		c-1.438,0.381-2.904,0.662-4.356,0.994c-0.642,0.147-1.278,0.314-1.939,0.478c0.037,0.311,0.057,0.485,0.077,0.658
		c0.624,0.2,1.206,0.386,1.788,0.572c0.011,0.086,0.023,0.172,0.033,0.259c-0.719,0.447-1.426,0.916-2.159,1.336
		c-0.712,0.408-1.445,0.784-2.183,1.141c-0.749,0.363-1.518,0.688-2.301,1.04c0.218,0.564,0.561,0.696,1.009,0.705
		c1.338,0.024,2.677,0.099,4.014,0.093c1.985-0.01,3.945-0.232,5.868-0.763c0.934-0.258,1.885-0.452,2.794-0.667
		c0.278,0.205,0.515,0.378,0.761,0.56c1.521-0.269,2.934-0.965,4.599-1.141c-0.347,0.859-0.617,1.529-0.882,2.189
		c0.742,0.508,1.35,0.25,1.92,0.002c1.027-0.446,2.029-0.949,3.045-1.42c0.972-0.451,1.947-0.893,3.012-1.38
		c0.05,0.533,0.088,0.93,0.131,1.409c0.242,0.089,0.501,0.186,0.773,0.286c0.714-0.514,1.444-0.922,2.025-1.484
		c1.287-1.245,2.494-2.573,3.744-3.855c0.565-0.58,1.158-1.131,1.74-1.696c0.063,0.036,0.129,0.071,0.192,0.107
		c-0.132,0.701-0.265,1.403-0.427,2.26c0.405,0,0.689,0.037,0.961-0.007c0.9-0.147,1.59-0.717,2.112-1.382
		c1.865-2.376,3.716-4.771,4.97-7.553c0.093-0.203,0.24-0.38,0.453-0.711c0.166,0.943,0.298,1.695,0.459,2.613
		c0.4-0.185,0.706-0.243,0.882-0.425c0.307-0.319,0.59-0.688,0.789-1.083c1.38-2.727,2.869-5.405,3.742-8.36
		c0.057-0.195,0.182-0.371,0.35-0.704c0.278,0.6,0.49,1.059,0.728,1.57c0.268-0.049,0.506-0.092,0.779-0.142
		c1.005-3.179,0.788-6.507,1.449-9.748c0.329,0.187,0.581,0.33,0.786,0.446c0.591-0.173,0.762-0.592,0.743-1.061
		c-0.092-2.233-0.162-4.469-0.34-6.696c-0.099-1.246-0.392-2.478-0.609-3.791C160.173,118.081,160.56,118.716,161.104,118.016z"/>
</g>
<g id="Layer_2">
	<path fill-rule="evenodd" clip-rule="evenodd" fill="#eef9fc" class="fill" d="M102.464,118.659c-0.219-0.966-0.471-1.927-0.645-2.901
		c-0.184-1.027-0.332-2.063-0.429-3.102c-0.225-2.389-0.209-2.391-0.611-2.798c-0.628,0.159-0.536,0.746-0.64,1.175
		c-0.271,1.123-0.448,2.269-0.729,3.388c-0.131,0.523-0.413,1.009-0.707,1.697c-0.23-0.359-0.387-0.509-0.432-0.687
		c-0.375-1.494-0.537-3.005-0.368-4.549c0.048-0.437-0.009-0.891-0.065-1.331c-0.09-0.699-0.221-1.394-0.355-2.219
		c-0.104-0.062-0.31-0.187-0.637-0.386c-0.682,1.473-0.495,3.21-1.777,4.636c-1.011-2.927-1.351-5.879-3.154-8.293
		c-0.378,0-0.76,0-1.282,0c0.415,1.73,1.581,3.15,1.41,5.057c-1.673-0.892-2.718-2.524-4.49-2.92c-0.438,0.552-0.079,0.88,0.134,1.2
		c1.096,1.648,1.688,3.482,2.053,5.405c0.027,0.146,0.027,0.297,0.025,0.446c-0.002,0.07-0.04,0.14-0.107,0.356
		c-1.59-0.472-2.602-2.081-4.258-2.325c-0.436,0.443-0.275,0.825,0.007,1.14c1.774,1.992,2.284,4.483,2.784,6.979
		c0.021,0.103-0.017,0.217-0.045,0.515c-0.392-0.285-0.705-0.502-1.006-0.735c-0.798-0.617-1.581-1.252-2.39-1.854
		c-0.248-0.185-0.559-0.285-0.837-0.422c-0.389,0.642-0.009,1.021,0.213,1.438c0.577,1.083,1.319,2.117,1.678,3.27
		c0.402,1.291,0.456,2.691,0.661,4.043c-0.086,0.042-0.173,0.085-0.259,0.128c-0.182-0.184-0.394-0.347-0.541-0.555
		c-0.694-0.972-1.362-1.963-2.059-2.934c-0.336-0.469-0.785-0.781-1.438-0.818c-0.406,0.522-0.185,1.039-0.01,1.567
		c0.352,1.06,0.752,2.11,1.006,3.194c0.296,1.256,0.12,2.505-0.428,3.904c-0.2-0.403-0.321-0.645-0.44-0.888
		c-0.492-1.002-0.956-2.021-1.492-3c-0.177-0.321-0.54-0.54-0.818-0.806c-0.091,0.034-0.181,0.068-0.272,0.102
		c0,0.379-0.047,0.766,0.009,1.137c0.163,1.07,0.363,2.134,0.557,3.199c0.178,0.979-0.003,1.901-0.395,2.894
		c-0.879-0.933-0.985-2.398-2.263-2.929c-0.471,0.72-0.384,1.355-0.298,1.983c0.139,0.998,0.328,1.989,0.437,2.99
		c0.051,0.459-0.038,0.934-0.067,1.483c-0.874-0.657-0.661-1.963-1.907-2.386c-0.059,0.422-0.148,0.73-0.139,1.036
		c0.077,2.245-0.473,4.279-1.909,6.052c-0.341,0.421-0.556,0.944-0.992,1.397c0-0.445,0-0.891,0-1.36
		c-0.333-0.153-0.592-0.271-0.775-0.356c-1.275,0.35-1.993,1.269-2.837,2.274c-0.111-0.752,0.364-0.992,0.641-1.342
		c0.264-0.335,0.495-0.696,0.816-1.153c-2.047-1.098-3.377,0.328-4.805,1.185c-0.351-0.657-0.04-1.019,0.263-1.222
		c0.733-0.493,1.511-0.931,2.308-1.315c0.692-0.334,1.437-0.565,2.262-0.881c0.342-2.316,0.674-4.558,1.035-7.005
		c0.228,0.493,0.383,0.833,0.56,1.217c0.508,0.073,0.806-0.161,0.96-0.656c0.311-0.99,0.634-1.976,0.963-2.999
		c0.25,0.145,0.519,0.302,0.793,0.461c0.869-0.558,0.211-1.251,0.235-1.853c0.025-0.619-0.052-1.243-0.096-2.093
		c0.605,0.578,1.068,1.019,1.495,1.426c0.735-0.258,0.672-0.757,0.555-1.243c-0.218-0.908-0.471-1.806-0.699-2.71
		c-0.07-0.276-0.107-0.561,0.014-0.961c0.616,0.511,1.231,1.022,1.882,1.563c0.204-0.09,0.4-0.176,0.667-0.292
		c0.084-2.071-1.26-3.706-1.727-5.723c0.855,0.169,1.332,0.824,1.945,1.233c0.585,0.391,0.57,0.415,1.364,0.035
		c-0.621-1.833-1.527-3.563-2.36-5.531c1.016,0.182,1.576,0.768,2.175,1.286c0.618,0.535,1.235,1.073,1.893,1.644
		c0.19-0.164,0.348-0.299,0.597-0.514c-3.175-6.485-7.524-11.557-14.961-13.186c-0.144-0.405-0.276-0.781-0.416-1.175
		c0.159-0.124,0.263-0.238,0.392-0.298c0.943-0.445,1.892-0.878,2.891-1.339c3.896,2.271,6.969,5.587,10.554,8.279
		c0.189-0.163,0.312-0.244,0.398-0.352c0.065-0.081,0.086-0.197,0.133-0.312c-2.807-3.167-6.279-5.543-9.84-8.237
		c0.829-0.222,1.389-0.372,2.102-0.562c3.621,2.167,7.346,4.344,10.91,6.903c0.09-0.035,0.242-0.06,0.35-0.145
		c0.108-0.088,0.172-0.234,0.34-0.478c-0.423-0.451-0.79-0.982-1.28-1.341c-1.293-0.945-2.618-1.851-3.971-2.708
		c-1.448-0.918-2.944-1.764-4.417-2.646c-0.054-0.033-0.076-0.119-0.169-0.271c0.655-0.183,1.283-0.358,2.017-0.562
		c2.838,1.357,5.722,2.735,8.687,4.153c0.112-0.13,0.269-0.31,0.459-0.53c-1-1.212-2.436-1.651-3.673-2.367
		c-1.206-0.698-2.51-1.23-3.988-1.939c1.669-0.677,3.145-1.227,3.426-2.94c1.211-0.384,2.354,0.424,3.468-0.062
		c0.343-1.859-0.445-3.517-0.608-5.377c0.447,0.157,0.768,0.271,1.104,0.389c0.766-0.421,0.537-1.081,0.371-1.666
		c-0.492-1.744-1.312-3.331-2.467-4.732c-0.758-0.921-1.545-1.818-2.356-2.769c0.41-1.096,0.854-2.198,1.233-3.322
		c0.53-1.559,0.926-3.163,0.844-4.818c-0.133-2.668-2.432-4.009-4.833-2.832c-1.405,0.688-2.772,1.455-4.138,2.221
		c-1.559,0.874-3.097,1.787-4.645,2.681c-0.146,0.084-0.297,0.16-0.673,0.36c0.545-1.277,1.69-1.585,2.362-2.377
		c-0.014-0.112-0.007-0.228-0.043-0.326c-0.053-0.139-0.137-0.265-0.196-0.375c-1.026,0.326-1.905,0.604-2.783,0.882
		c-0.035-0.036-0.069-0.072-0.104-0.109c0.594-0.618,1.188-1.235,1.819-1.894c-0.153-0.253-0.277-0.453-0.442-0.726
		c-1.75,0.861-3.403,1.745-5.048,2.837c0.234-0.465,0.469-0.93,0.716-1.42c-0.213-0.542-0.662-0.593-1.084-0.354
		c-0.477,0.269-0.909,0.635-1.308,1.015c-0.362,0.345-0.655,0.765-1.074,1.093c-0.253-2.419,0.538-4.41,2.259-6.072
		c0.856,0.312,0.4,1.784,1.662,1.642c1.119-1.087,1.279-2.898,2.75-3.932c0.211,0.672,0.396,1.263,0.588,1.877
		c0.291,0,0.542,0,0.838,0c0.899-1.627,1.689-3.34,3.487-4.451c0.114,0.708,0.214,1.312,0.324,1.995c0.256,0,0.525,0,0.813,0
		c1.053-1.918,1.906-3.945,4.047-5.198c-0.082,0.938-0.152,1.753-0.229,2.621c0.317,0.046,0.526,0.077,0.83,0.122
		c1.195-1.724,2.293-3.546,3.934-5.009c0.576,0.823,0.135,1.706,0.306,2.616c0.247,0.041,0.512,0.083,0.827,0.135
		c0.867-1.836,2.054-3.31,3.951-4.483c-0.082,0.928-0.145,1.639-0.213,2.417c0.309,0.017,0.518,0.028,0.771,0.041
		c1.381-1.951,3.592-2.465,5.574-3.382c0.062,0.057,0.121,0.114,0.183,0.171c-0.3,0.739-0.602,1.478-0.905,2.225
		c0.4,0.585,0.819,0.46,1.209,0.055c1.403-1.455,3.29-2.001,5.082-2.719c0.365-0.146,0.781-0.162,1.403-0.281
		c-0.546,0.843-0.962,1.486-1.416,2.188c0.116,0.159,0.238,0.326,0.42,0.574c2.386-1.489,4.816-2.783,7.911-2.469
		c-0.578,0.782-1.048,1.417-1.524,2.06c0.607,0.582,1.071,0.24,1.558,0.113c1.547-0.402,3.102-0.777,4.655-1.146
		c0.21-0.05,0.442-0.007,0.856-0.007c-0.34,0.464-0.604,0.823-0.857,1.17c0.262,0.583,0.684,0.349,1.074,0.315
		c1.41-0.123,2.819-0.23,4.229-0.327c0.172-0.012,0.351,0.079,0.708,0.168c-0.5,0.399-0.881,0.703-1.273,1.016
		c0.113,0.795,0.719,0.655,1.205,0.694c1.263,0.1,2.531,0.143,3.788,0.287c1.171,0.135,2.328,0.371,3.491,0.562
		c0.01,0.075,0.021,0.151,0.031,0.227c-0.662,0.35-1.323,0.7-2.016,1.065c0,0.243,0,0.486,0,0.812
		c2.377-0.192,4.524,0.463,6.896,1.461c-0.622,0.258-1.022,0.453-1.44,0.59c-0.417,0.136-0.853,0.215-1.332,0.332
		c0.065,0.258,0.108,0.428,0.177,0.693c2.811-0.012,4.873,1.515,6.755,3.478c-0.657-0.128-1.313-0.256-2.047-0.398
		c-0.027,0.276-0.049,0.481-0.077,0.758c1.995,0.494,3.672,1.442,4.755,3.338c-0.559-0.219-1.117-0.438-1.758-0.689
		c-0.104,0.16-0.229,0.349-0.402,0.615c1.751,1.077,3.195,2.378,4.328,4.122c-0.307-0.048-0.613-0.092-0.916-0.146
		c-0.312-0.055-0.622-0.12-0.91-0.175c-0.312,0.596,0.061,0.75,0.356,0.976c0.792,0.606,1.566,1.237,2.348,1.857
		c-0.049,0.094-0.097,0.187-0.145,0.28c-0.351-0.113-0.7-0.227-1.111-0.359c-0.097,0.177-0.196,0.361-0.328,0.604
		c0.605,0.686,1.22,1.333,1.776,2.026c0.525,0.652,0.991,1.352,1.55,2.122c-0.737,0.198-1.19-0.893-1.899-0.076
		c0.933,1.446,2.415,2.568,2.936,4.275c-0.062,0.059-0.124,0.118-0.188,0.177c-0.439-0.29-0.879-0.58-1.307-0.862
		c-0.481,0.292-0.354,0.642-0.199,0.998c0.225,0.513,0.484,1.014,0.662,1.543c0.386,1.156,0.731,2.327,1.121,3.579
		c2.391,1.097,4.792,2.425,6.854,4.292c0.287,0.259,0.496,0.604,0.915,1.125c-0.985,0-1.69,0-2.444,0
		c-0.034,0.831,0.473,1.184,0.923,1.54c1.84,1.459,3.257,3.271,4.423,5.288c0.333,0.576,0.581,1.2,0.905,1.88
		c-0.894,0.175-1.504-0.294-2.146-0.585c-0.367-0.167-0.658-0.502-1.023-0.674c-0.391-0.184-0.857-0.423-1.243-0.356
		c-0.792,0.139-1.279-0.197-1.744-0.731c-0.401-0.461-0.86-0.825-1.597-0.691c-0.068,0.427-0.134,0.839-0.208,1.302
		c-0.784-0.419-1.49-0.797-2.338-1.25c-0.285,0.743-0.516,1.344-0.759,1.977c-0.912-0.255-1.462-1.244-2.6-1.125
		c-0.131,0.713-0.263,1.428-0.433,2.355c-0.72-0.539-1.326-0.994-2.041-1.53c-0.257,0.151-0.56,0.327-0.856,0.501
		c-1.848-2.742-4.152-5.109-6.706-7.242c-0.943-0.787-1.87-1.615-2.905-2.265c-1.034-0.65-2.186-1.12-3.305-1.628
		c-0.281-0.127-0.632-0.1-0.962-0.146c-0.21,0.613,0.113,0.942,0.377,1.292c1.377,1.822,2.364,3.863,3.502,6.14
		c-1.727-0.958-3.229-1.791-4.747-2.632c-0.227,0.136-0.408,0.245-0.689,0.414c1.126,1.774,2.503,3.366,3.08,5.451
		c-1.07-0.3-2.046-0.624-3.047-0.841c-0.993-0.215-1.895-0.894-2.991-0.669c-0.263,0.671,0.169,1.099,0.401,1.589
		c0.495,1.04,0.975,2.086,1.429,3.145c0.106,0.251,0.087,0.559,0.128,0.871c-1.288-0.164-2.028-1.417-3.278-1.39
		c-0.409,0.507-0.114,0.888,0.092,1.277c0.667,1.265,1.041,2.623,1.33,4.048c-0.468,0.246-0.808-0.044-1.159-0.205
		c-0.679-0.311-1.347-0.643-2.025-0.952c-0.41-0.187-0.834-0.354-1.346,0.073c0.44,1.544,1.636,2.873,1.681,4.662
		c-1.2,0.028-2.321-0.632-3.55-0.343c-0.041,0.957,0.848,1.24,1.17,1.883c0.312,0.623,0.766,1.172,0.732,2.004
		c-1.409-0.251-2.554-1.272-4.142-0.971c-0.116,1.925,0.86,3.755,0.544,5.846c-0.493,0.851-0.84,2.053-2.253,2.422
		c-0.664-2.235-0.681-4.464-0.771-6.765c-0.311-0.024-0.578-0.046-0.871-0.07c-0.293,1.671-0.369,3.336-1.727,4.639
		c-0.161-0.232-0.311-0.358-0.346-0.51c-0.512-2.253-1.014-4.509-1.505-6.766c-0.118-0.545-0.19-1.099-0.296-1.715
		c-0.189-0.076-0.416-0.168-0.753-0.304c-0.618,1.753-0.775,3.607-1.749,5.153C102.68,118.644,102.573,118.651,102.464,118.659z
		 M94.648,93.302c1.545,1.306,3.117,2.482,4.353,4.274c-1.99-0.273-3.758-1.25-5.822-0.233c0.338,0.3,0.531,0.529,0.773,0.677
		c1.049,0.641,2.173,1.176,3.156,1.902c1.646,1.217,3.191,2.57,4.809,3.827c1.312,1.02,2.352,2.29,3.334,3.599
		c1.451,1.93,3.019,3.793,3.871,6.292c0.379-0.221,0.662-0.386,0.898-0.524c-0.059-1.208-0.066-2.292-0.179-3.365
		c-0.117-1.111-0.269-2.229-0.533-3.312c-0.246-1.01-0.661-1.98-1.002-2.968c0.071-0.05,0.142-0.101,0.212-0.151
		c1.268,1.284,2.537,2.568,3.848,3.896c0.199-0.159,0.389-0.309,0.539-0.427c-0.788-4.374-1.904-8.552-4.263-12.328
		c1.972,0.989,3.321,2.698,4.939,4.012c0.214-0.137,0.326-0.178,0.395-0.259c0.091-0.108,0.146-0.245,0.179-0.306
		c-1.311-4.007-2.547-7.964-5.275-11.274c1.074,0.436,2.09,0.905,2.98,1.547c0.895,0.644,1.666,1.461,2.561,2.267
		c0.255-0.211,0.458-0.38,0.608-0.506c-0.019-0.16-0.015-0.2-0.028-0.233c-0.13-0.309-0.243-0.627-0.398-0.923
		c-1.375-2.602-2.62-5.307-5.484-6.699c-0.326-0.159-0.572-0.482-0.854-0.729c1.979-0.146,3.575,0.852,5.245,1.318
		c0.223-0.15,0.356-0.221,0.463-0.32c0.078-0.072,0.119-0.183,0.205-0.322c-0.068-0.148-0.125-0.328-0.227-0.475
		c-1.566-2.235-3.464-4.095-5.961-5.284c-0.442-0.21-0.861-0.474-1.291-0.713c0.031-0.08,0.063-0.161,0.096-0.241
		c0.691,0.075,1.385,0.154,2.076,0.225c0.479,0.049,0.908,0.002,1.01-0.689c-0.743-1.078-1.739-1.975-2.904-2.654
		c-1.738-1.014-3.497-2-5.291-2.913c-1.158-0.589-2.366-1.115-3.605-1.496c-0.877-0.27-1.841-0.266-2.771-0.346
		c-0.18-0.016-0.374,0.146-0.753,0.307c0.428,0.393,0.691,0.792,1.059,0.945c2.182,0.911,3.748,2.538,5.164,4.341
		c0.354,0.451,0.611,0.978,0.912,1.47c-0.873-0.062-1.588-0.361-2.332-0.482c-0.789-0.128-1.618-0.281-2.389,0.079
		c-0.229,0.522,0.137,0.673,0.429,0.915c1.06,0.881,2.111,1.773,3.131,2.701c0.438,0.399,0.848,0.864,0.889,1.611
		c-1.469-0.68-2.847-1.216-4.329-0.104c0.876,0.809,1.738,1.502,2.473,2.312c0.748,0.826,1.541,1.657,2.039,2.974
		c-0.761-0.295-1.281-0.477-1.786-0.697c-0.843-0.369-1.726-0.473-2.628-0.385c-0.22,0.022-0.424,0.196-0.688,0.327
		c0.943,0.896,1.851,1.659,2.639,2.532c0.763,0.846,1.759,1.574,1.962,2.884c-1.847-0.341-3.393-1.747-5.605-1.047
		c0.396,0.386,0.622,0.604,0.846,0.823c1.117,1.095,2.246,2.178,3.34,3.296c0.228,0.233,0.541,0.522,0.379,0.962
		C96.53,92.178,95.579,92.181,94.648,93.302z"/>
	<path fill-rule="evenodd" clip-rule="evenodd" fill="#eef9fc" class="fill" d="M138.902,135.091c1.321,0.495,2.012-0.753,3.134-1.065
		c0.039,1.222-0.625,2.127-1.14,3.027c0.394,0.574,0.786,0.463,1.21,0.197c0.948-0.596,1.899-1.188,2.855-1.771
		c0.208-0.126,0.443-0.207,0.753-0.349c0.09,1.628-0.928,2.723-1.512,4.021c0.147,0.169,0.282,0.325,0.425,0.488
		c1.508-0.58,2.521-1.767,3.906-2.86c-0.124,0.651-0.207,1.086-0.297,1.558c0.334,0.409,0.676,0.326,1.039,0.021
		c0.683-0.573,1.37-1.139,2.164-1.798c0,0.617,0,1.142,0,1.716c0.202,0.099,0.392,0.192,0.615,0.302
		c0.411-0.349,0.798-0.679,1.197-1.018c0.502,1.325-0.42,4.257-1.915,6.092c-0.657-0.814-0.204-2.197-1.478-2.805
		c-0.241,0.508-0.54,0.947-0.666,1.431c-0.547,2.093-1.576,3.938-2.783,5.707c-0.566,0.831-1.088,1.695-1.653,2.529
		c-0.286,0.421-0.625,0.807-1.007,1.293c-0.521-0.809-0.584-1.538-0.505-2.334c0.058-0.594,0.378-1.25-0.261-1.909
		c-0.645,0.318-1.314,0.647-2.002,0.984c-0.398-0.965,0.402-1.911-0.373-2.812c-0.678,0.214-1.396,0.441-2.178,0.687
		c-0.175-0.96,0.513-1.508,0.827-2.265c-0.096-0.18-0.212-0.397-0.354-0.664c-0.653,0.074-1.269,0.145-2.139,0.243
		c0.413-0.548,0.688-0.913,1.001-1.329c-0.054-0.161-0.12-0.361-0.211-0.634c-0.748,0.048-1.472,0.095-2.487,0.16
		c0.545-0.704,0.918-1.184,1.328-1.713c-0.112-0.269-0.233-0.565-0.362-0.875c1.089-1.202,2.376-2.292,2.453-4.037
		c-0.622-1.026-1.882-0.342-2.516-1.148c0.758-1.445,2.286-1.443,3.524-2.009C139.964,133.309,139.018,134.056,138.902,135.091z"/>
	<path fill-rule="evenodd" clip-rule="evenodd" fill="#eef9fc" class="fill" d="M156.769,123.6c0.565,3.465,0.604,6.867-0.136,10.279
		c-0.354-0.704-0.647-1.414-0.768-2.21c-0.149-0.992-0.36-1.976-0.588-2.954c-0.102-0.438-0.146-0.428-0.856-0.667
		c-0.266,0.875-0.531,1.748-0.796,2.621c-0.073,0.015-0.146,0.03-0.219,0.045c-0.19-0.535-0.39-1.066-0.569-1.604
		c-0.166-0.501,0.047-1.169-0.698-1.458c-0.916,0.415-1.071,1.512-1.845,2.29c-0.507-1.368-0.976-2.63-1.457-3.925
		c-1.168,0.344-0.926,1.601-1.721,2.106c-0.648-0.901-0.017-2.195-0.931-2.991c-1.007,0.366-1.014,1.523-1.857,2.004
		c-0.491-1.052,0.644-2.348-0.51-3.415c-1.022,0.998-1.993,1.946-2.913,2.843c-0.99-0.053-1.844-0.099-2.809-0.151
		c0.125-0.226,0.185-0.438,0.322-0.562c1.494-1.334,2.737-2.852,3.516-4.719c0.023-0.057,0.115-0.084,0.223-0.159
		c0.161,0.375,0.317,0.742,0.482,1.128c0.502,0.288,0.831,0.037,1.086-0.391c0.373-0.627,0.733-1.263,1.215-2.092
		c0.472,0.945,0.863,1.728,1.273,2.549c0.197,0,0.41,0,0.674,0c0.424-0.694,0.846-1.387,1.283-2.104
		c0.963,0.147,0.98,1.174,1.654,1.669c0.184-0.01,0.436-0.022,0.692-0.036c0.317-0.485,0.62-0.946,1.013-1.546
		c0.47,0.558,0.864,1.023,1.28,1.516c1.024,0.118,0.803-0.966,1.305-1.444c0.38,0.315,0.753,0.626,1.343,1.115
		c0.297-0.471,0.535-0.848,0.801-1.271c0.824,0.687,1.521,1.267,2.342,1.951c0,0.76,0,1.681,0,2.665
		C157.927,124.44,157.86,123.354,156.769,123.6z"/>
	<path fill-rule="evenodd" clip-rule="evenodd" fill="#eef9fc" class="fill" d="M151.197,112.437c-0.162,1.028-0.299,1.896-0.48,3.047
		c-0.921-1.343-1.514-2.666-2.608-3.587c-1.056,0.437-0.509,1.651-1.202,2.184c-0.808-0.547-0.589-1.818-1.739-2.248
		c-0.469,0.699-0.936,1.394-1.488,2.218c-0.348-0.688-0.446-1.36-0.563-2.027c-0.104-0.6-0.109-0.599-0.786-0.976
		c-0.277,0.187-0.572,0.386-0.962,0.647c-0.071-0.902-0.133-1.697-0.198-2.521c0.351,0,0.668,0,1.062,0
		c0.304-0.494,0.609-0.992,0.961-1.565c0.407,0.211,0.753,0.796,1.414,0.34c0.112-0.25,0.261-0.58,0.438-0.977
		c0.41,0.331,0.772,0.623,1.104,0.889c0.873-0.203,0.859-0.955,1.206-1.624c0.473,0.473,0.901,0.901,1.351,1.349
		c1.17,0.02,0.618-1.164,1.133-1.656c1.024,0.346,1.697,1.559,3.045,1.396c0.083-0.473,0.151-0.863,0.229-1.304
		c0.14-0.009,0.3-0.066,0.414-0.019c1.524,0.638,2.981,1.28,3.46,3.155c0.431,1.691,1.101,3.321,1.654,4.981
		c0.057,0.167,0.052,0.353,0.109,0.79c-0.646-0.466-1.112-0.802-1.669-1.204c-0.225-0.014-0.557-0.035-0.893-0.055
		c-0.355-0.239-0.717-0.481-1.057-0.709c-0.949,0.389-0.824,1.364-1.312,1.977C152.698,114.474,152.681,112.862,151.197,112.437z"/>
	<path fill-rule="evenodd" clip-rule="evenodd" fill="#eef9fc" class="fill" d="M66.424,82.778c0.342-0.548,0.685-1.095,1.095-1.752
		c-1.385-0.247-2.217,0.732-3.273,0.938c-0.179-2.19,1.096-3.957,3.107-4.397c1.411-0.309,2.766-0.257,4.188,0.142
		c2.112,0.595,4.285,0.98,6.438,1.422c3.192,0.655,5.505,2.539,6.743,5.628c-0.381-0.125-0.669-0.256-0.971-0.309
		c-0.27-0.047-0.555-0.01-1.021-0.01c0.176,0.563,0.294,0.972,0.431,1.374c0.324,0.949,0.694,1.885,0.971,2.848
		c0.125,0.438,0.067,0.927,0.104,1.594c-0.929-0.589-1.67-1.059-2.55-1.617c-1.062-2.521-3.698-3.495-5.832-5.146
		c0.327-0.2,0.708-0.434,1.136-0.695c-0.375-0.729-1.086-0.785-1.637-0.853c-1.176-0.146-2.374-0.123-3.564-0.137
		c-1.831-0.022-3.624,0.176-5.244,1.214C66.504,82.94,66.464,82.858,66.424,82.778z"/>
	<path fill-rule="evenodd" clip-rule="evenodd" fill="#eef9fc" class="fill" d="M126.841,155.417c0.309-0.623,0.617-1.247,0.961-1.941
		c-0.135-0.214-0.282-0.448-0.455-0.72c-0.908,0.39-1.749,0.751-2.75,1.181c0.211-1.086,1.347-1.95,0.394-3.086
		c-0.744,0.274-1.434,0.528-2.266,0.835c-0.386-0.32-0.817-0.677-1.369-1.135c2.985-1.796,6.303-2.342,9.021-4.199
		c0.062,0.077,0.124,0.153,0.187,0.23c-0.491,0.611-0.983,1.222-1.498,1.861c0.07,0.51,0.42,0.551,0.889,0.495
		c0.88-0.105,1.765-0.162,2.73-0.245c-0.086,1.032-0.971,1.304-1.473,1.956c0.741,0.897,1.846,0.176,2.627,0.701
		c-0.133,0.305-0.258,0.592-0.46,1.054c0.438,0.063,0.777,0.18,1.1,0.144c0.814-0.091,1.62-0.259,2.433-0.378
		c0.312-0.045,0.631-0.042,0.953-0.061c-0.003,2.13-0.961,4.323-2.844,5.04c-0.049-0.551-0.096-1.074-0.152-1.715
		c-0.378,0-0.767-0.105-1.051,0.022c-0.535,0.241-1.03,0.587-1.503,0.942c-1.28,0.962-2.551,1.935-4.316,2.357
		c0.2-1.436,1.68-2.103,1.733-3.675c-0.149-0.425-0.58-0.352-1.076-0.125c-0.529,0.242-1.066,0.465-1.601,0.697
		C126.983,155.574,126.911,155.495,126.841,155.417z"/>
	<path fill-rule="evenodd" clip-rule="evenodd" fill="#eef9fc" class="fill" d="M43.454,78.166c-0.432-0.252-0.706-0.412-1.069-0.625
		c0.82-0.594,1.59-0.871,2.532-0.845c0.881,0.024,1.791-0.056,2.647-0.26c2.678-0.639,5.396-0.735,8.122-0.708
		c1.028,0.011,1.922,0.424,2.645,1.249c0.767,0.875,1.637,1.656,1.729,2.915c0.014,0.171-0.031,0.348-0.065,0.669
		c-0.702-0.561-1.309-1.047-1.995-1.597c-0.217,0.424-0.355,0.696-0.51,0.998c-1.247-0.708-2.54-1.104-3.943-1.316
		c-0.152,0.302-0.28,0.558-0.428,0.848c-0.537,0-1.087,0.013-1.636-0.004c-0.558-0.017-1.115-0.109-1.668-0.08
		c-0.283,0.015-0.557,0.225-0.835,0.347c-0.027,0.098-0.057,0.195-0.086,0.292c0.394,0.258,0.786,0.516,1.264,0.83
		c-1.628,0.506-3.03,0.961-4.445,1.377c-1.438,0.423-2.487,1.455-3.697,2.429c-0.604-1.229-0.182-2.234,0.35-3.3
		c-0.601-0.206-1.111-0.38-1.656-0.567C40.89,79.232,42.536,79.185,43.454,78.166z"/>
	<path fill-rule="evenodd" clip-rule="evenodd" fill="#eef9fc" class="fill" d="M68.563,89.188c1.377,0.229,2.801,0.251,4.051,0.729
		c1.538,0.589,2.938,1.545,4.38,2.375c0.305,0.176,0.532,0.489,0.888,0.828c-0.399,0.423-0.74,0.783-1.129,1.193
		c-1.187-0.428-2.316-0.788-3.408-1.242c-1.642-0.682-3.301-0.803-4.996-0.41c-0.235,0.612,0.174,0.766,0.537,0.745
		c1.779-0.108,3.331,0.72,4.98,1.146c0.281,0.073,0.545,0.215,1.094,0.438c-0.736,0.304-1.243,0.514-1.691,0.699
		c-1.54-0.651-2.971-1.323-4.726-0.844c0.558,1.137,1.772,0.702,2.449,1.542c-0.487,0.123-0.889,0.224-1.272,0.32
		c-0.791-0.467-1.524-0.898-2.389-1.408c-0.164,0.092-0.428,0.242-0.863,0.489c0.593,0.51,1.053,0.906,1.643,1.414
		c-0.79,0.266-1.495,0.504-2.193,0.739c-0.068-0.088-0.154-0.153-0.146-0.197c0.244-1.087,0.001-2.077-0.315-3.143
		c-0.563-1.892-0.357-3.559,1.914-4.808C67.759,89.58,68.161,89.392,68.563,89.188z"/>
	<path fill-rule="evenodd" clip-rule="evenodd" fill="#eef9fc" class="fill" d="M52.477,95.983c1.493-0.694,3.028-0.437,4.58-0.769
		c-0.192-0.401-0.343-0.72-0.517-1.083c-1.808,0.129-3.538,0.311-5.242,0.736c-0.825,0.207-0.831,0.181-1.498-0.579
		c1.466-0.276,2.858-0.539,4.387-0.827c-0.179-0.456-0.292-0.744-0.438-1.115c-1.766,0.296-3.449,0.577-5.178,0.866
		c-0.77-0.433-1.086-1.244-1.509-1.965c2.17-2.217,9.67-1.686,12.671,0.919c0.021,0.458,0.043,0.975,0.068,1.528
		c-1.544,1.339-1.903,2.949-0.812,5.031c-1.352-0.558-2.429-1.002-3.726-1.537c0.688-0.292,1.185-0.501,1.727-0.73
		c-0.048-0.233-0.089-0.435-0.129-0.631c-0.884-0.268-1.589,0.134-2.329,0.355C53.873,96.382,53.187,96.749,52.477,95.983z"/>
	<path fill-rule="evenodd" clip-rule="evenodd" fill="#eef9fc" class="fill" d="M81.424,71.791c-0.439-0.66-0.993-0.811-1.674-0.529
		c-0.376,0.156-0.81,0.246-1.113,0.494c-1.15,0.939-2.259,1.931-3.383,2.902c-0.081,0.069-0.169,0.128-0.313,0.237
		c-0.186-0.291-0.354-0.557-0.513-0.806c0.036-0.105,0.04-0.197,0.088-0.241c1.664-1.544,3.296-3.128,5.017-4.609
		c1.001-0.861,1.28-0.826,2.715-0.513c0.588,0.523,0.873,1.169,0.703,1.982c-0.504,2.409-1.69,4.501-2.993,6.637
		c-0.478-0.295-0.878-0.542-1.383-0.853c0.555-0.792,1.088-1.54,1.606-2.298C80.679,73.466,81.36,72.832,81.424,71.791z"/>
	<path fill-rule="evenodd" clip-rule="evenodd" fill="#eef9fc" class="fill" d="M45.177,68.568c-0.288,1.106,0.143,2.096,0.812,3.041
		c0.578,0.818,1.129,1.655,1.753,2.574c-0.37,0.229-0.667,0.413-0.962,0.596c-0.769-0.52-1.347-1.071-1.539-1.929
		c-0.353-1.561-0.736-3.116-1.028-4.688c-0.112-0.599-0.153-1.272,0.426-1.84c3.183,0.789,5.451,3.025,8.043,5.118
		c-0.663,0.351-1.198,0.635-1.945,1.03c-0.19-0.277-0.38-0.552-0.567-0.827c-0.906-1.325-2.227-2.178-3.521-3.055
		C46.218,68.295,45.752,67.975,45.177,68.568z"/>
	<path fill-rule="evenodd" clip-rule="evenodd" fill="#eef9fc" class="fill" d="M51.252,84.36c1.867-1.826,3.861-1.791,5.779-0.303
		c-0.505,1.047-1.265,1.859-2.473,1.876C53.277,85.951,52.165,85.401,51.252,84.36z M55.586,84.443
		c-0.544-1.117-1.49-1.067-2.454-0.935c-0.622,1.019-0.412,1.396,1.109,2.067C54.835,85.444,55.405,85.277,55.586,84.443z"/>
	<path fill-rule="evenodd" clip-rule="evenodd" fill="#eef9fc" class="fill" d="M69.058,84.722c-0.059,0.392-0.117,0.783-0.186,1.247
		c0.357,0.193,0.676,0.365,0.947,0.512c0.729-0.108,1.312-0.296,1.483-1.153c-0.192-0.289-0.409-0.617-0.665-1.003
		c0.918-0.064,1.619,0.263,2.237,0.795c-0.51,1.843-1.594,2.324-4.098,1.815c-0.267-0.252-0.587-0.555-1.015-0.961
		c0.392-0.494,0.742-0.938,1.093-1.38C68.923,84.637,68.99,84.68,69.058,84.722z"/>
	<path fill-rule="evenodd" clip-rule="evenodd" fill="#eef9fc" class="fill" d="M60.61,95.998c1.039-0.352,1.906-0.962,3.035-0.642
		c-0.25,0.706-0.823,0.942-1.442,1.023c-0.849,0.111-1.672,0.222-2.151,1.139c-0.07-0.077-0.139-0.153-0.208-0.23
		C60.095,96.866,60.346,96.443,60.61,95.998z"/>
</g>
</svg>
