<svg version="1.1" id="svg" xmlns="http://www.w3.org/2000/svg" xmlns:xlink="http://www.w3.org/1999/xlink" x="0px" y="0px"
	 width="200px" height="200px" viewBox="0 0 200 200" enable-background="new 0 0 200 200" xml:space="preserve">
<g>
	<path class="stroke" fill="#0e0240"  d="M174.043,74.895c-1.382-2.606-3.351-4.873-5.999-6.188c-4.622-2.296-9.474-3.834-14.772-2.857
		c-0.538,0.099-1.1,0.069-1.83,0.109c0.309-1.13,0.554-2.055,0.816-2.974c0.98-3.426,0.158-6.609-1.704-9.439
		c-1.174-1.784-2.817-3.282-4.37-4.784c-1.398-1.353-3.18-1.937-5.138-2c-2.995-0.097-5.862,0.561-8.792,1.425
		c-0.179-0.402-0.368-0.807-0.541-1.217c-2.045-4.865-6.147-6.285-10.917-5.468c-3.884,0.665-6.971,2.713-9.164,6.04
		c-0.363,0.551-0.803,1.052-1.262,1.646c-1.27-1.742-2.409-3.361-3.607-4.936c-1.375-1.805-3.11-3.147-5.229-4.016
		c-6.262-2.567-12.565-2.486-18.878-0.282c-1.106,0.386-2.337,0.924-3.073,1.772c-2.196,2.534-4.311,5.16-5.088,8.582
		c-0.475,2.091-0.576,4.17-0.338,6.286c0.092,0.83,0.12,1.667,0.191,2.709c-1.217,0-2.236,0.011-3.256-0.002
		c-2.927-0.038-5.66,0.744-8.188,2.142c-2.775,1.536-4.985,3.638-5.76,6.871c-0.364,1.516-0.611,3.06-0.94,4.735
		c-0.004,0-0.219,0.058-0.434,0.059c-3.64,0.005-7.131,0.769-10.496,2.113c-0.677,0.271-1.341,0.663-1.896,1.134
		c-2.275,1.934-3.17,4.627-4.08,7.357c-0.75,2.251-0.329,4.229,0.669,6.251c1.468,2.974,4.007,4.616,6.971,5.703
		c4.506,1.652,9.199,2.195,13.968,2.006c2.276-0.09,4.546-0.373,6.813-0.621c3.626-0.395,7.258-0.756,10.866-1.28
		c2.908-0.422,5.76-0.736,8.567,0.483c0.617,0.269,1.315,0.407,1.989,0.478c4.755,0.499,9.509,1.006,14.271,1.424
		c2.896,0.253,5.804,0.354,8.706,0.519c3.82,0.216,7.658,0.485,11.441-0.21c3.358-0.618,6.694-1.398,9.989-2.291
		c2.295-0.623,4.613-0.929,6.937-0.759c4.055,0.296,8.093,0.333,12.131-0.1c2.766-0.296,5.6-0.206,8.24-1.296
		c2-0.825,4.042-1.568,5.973-2.534c3.089-1.545,5.537-3.81,6.97-7.026C175.205,81.308,175.726,78.066,174.043,74.895z"/>
	<path class="stroke" fill="#0e0240"  d="M149.201,124.59c-0.218-2.705-0.591-5.398-0.922-8.094c-0.107-0.88-0.4-1.665-1.601-1.905
		c-0.298,0.301-0.674,0.627-0.987,1.006c-0.651,0.789-1.302,1.581-1.893,2.414c-1.714,2.416-3.415,4.851-4.243,7.747
		c-0.613,2.147,0.142,3.792,2.126,4.814c1.897,0.977,4.507,0.462,5.956-1.108C148.925,128.069,149.345,126.381,149.201,124.59z"/>
	<path class="stroke" fill="#0e0240"  d="M155.93,132.179c-1.271,0.113-1.287,0.099-1.998,0.845c-2.661,2.792-4.547,6.087-6.127,9.568
		c-0.277,0.609-0.428,1.301-0.506,1.97c-0.245,2.1,1.412,4.119,3.516,4.212c0.893,0.039,1.809-0.139,2.691-0.328
		c1.531-0.327,2.552-1.31,2.854-2.829c0.263-1.327,0.378-2.696,0.416-4.051c0.064-2.318,0.018-4.638,0.018-6.685
		C156.462,133.848,156.212,133.065,155.93,132.179z"/>
	<path class="stroke" fill="#0e0240"  d="M135.021,152.195c-0.481,0.021-1.098,0.049-1.701,0.076c-1.516,2.236-2.983,4.398-4.449,6.562
		c-0.127,0.188-0.276,0.369-0.37,0.573c-0.447,0.982-0.95,1.947-1.299,2.964c-0.509,1.488-0.123,2.857,1.031,3.885
		c1.174,1.046,2.583,1.651,4.211,1.552c1.506-0.092,2.684-0.79,3.127-2.232c0.395-1.282,0.651-2.651,0.694-3.99
		c0.077-2.439-0.059-4.884-0.082-7.327C136.176,153.404,135.984,152.68,135.021,152.195z"/>
	<path class="stroke" fill="#0e0240"  d="M135.662,102.949c-0.936,0.726-1.946,1.245-2.538,2.183c-1.485,2.354-2.976,4.715-4.257,7.18
		c-0.582,1.119-0.782,2.48-0.938,3.758c-0.074,0.602,0.198,1.404,0.595,1.881c1.723,2.066,6.057,2.014,7.365-0.603
		c1.005-2.012,1.075-4.124,0.829-6.273C136.422,108.493,136.051,105.919,135.662,102.949z"/>
	<path class="stroke" fill="#0e0240"  d="M117.271,120.616c-0.147-0.526-0.522-0.989-0.754-1.413c-1.015-0.285-1.661,0.014-2.134,0.806
		c-1.223,2.049-2.525,4.053-3.678,6.141c-0.856,1.549-1.366,3.239-1.442,5.044c-0.044,1.034,0.365,1.806,1.228,2.261
		c0.796,0.42,1.651,0.832,2.526,0.978c1.701,0.283,3.462,0.054,4.464-1.456c0.682-1.026,1.057-2.404,1.136-3.652
		C118.805,126.352,118.068,123.464,117.271,120.616z"/>
	<path class="stroke" fill="#0e0240"  d="M86.329,120.749c-2.226,2.218-4.276,4.502-5.782,7.193c-0.878,1.569-1.768,3.214-1.363,5.341
		c0.255,0.303,0.477,0.645,0.772,0.903c1.568,1.377,3.387,1.902,5.383,1.224c1.806-0.615,2.313-2.248,2.558-3.917
		c0.289-1.964,0.538-3.944,0.635-5.925c0.072-1.452-0.126-2.918-0.211-4.503C87.569,120.946,86.985,120.853,86.329,120.749z"/>
	<path class="stroke" fill="#0e0240"  d="M74.533,151.194c-0.709,1.034-1.524,1.995-2.271,3.003c-1.5,2.026-2.819,4.144-3.482,6.619
		c-0.342,1.273-0.538,2.54,0.571,3.493c1.316,1.13,2.722,2.02,4.657,1.395c1.831-0.591,2.75-1.805,2.858-3.627
		c0.203-3.414,0.335-6.832,0.457-10.249c0.017-0.477-0.193-0.962-0.3-1.452C75.793,150.096,75.095,150.375,74.533,151.194z"/>
	<path class="stroke" fill="#0e0240"  d="M127.018,138.093c0.011-0.503-0.34-1.014-0.494-1.438c-0.576-0.13-0.961-0.233-1.353-0.297
		c-0.161-0.026-0.335,0.032-0.55,0.058c-1.34,1.92-2.672,3.692-3.853,5.561c-1.095,1.731-1.999,3.566-2.469,5.603
		c-0.233,1.009-0.027,1.821,0.635,2.517c1.58,1.664,3.527,1.693,5.544,1.065c1.691-0.527,2.192-1.921,2.53-3.518
		C127.685,144.45,126.95,141.275,127.018,138.093z"/>
	<path class="stroke" fill="#0e0240"  d="M107.153,109.384c-0.239-1.781-0.545-3.568-1.527-5.09c-0.603,0-1.109,0-1.797,0c-2.707,2.753-4.463,5.958-5.382,9.607
		c-0.165,0.656,0.035,1.462,0.243,2.144c0.749,2.447,4.987,3.161,6.95,2.15c0.333-0.171,0.635-0.511,0.817-0.846
		c0.597-1.103,1.125-2.232,1.014-3.552C107.347,112.327,107.35,110.842,107.153,109.384z"/>
	<path class="stroke" fill="#0e0240"  d="M55.624,112.147c0.35-2.419,0.841-4.818,1.173-7.238c0.199-1.449,0.214-2.924,0.323-4.558
		c-0.75-0.047-1.346-0.085-1.969-0.124c-1.964,2.237-4.047,4.297-5.738,6.639c-1.344,1.861-2.443,3.997-2.088,6.537
		c0.388,0.353,0.742,0.725,1.146,1.032C50.582,116.049,55.135,115.541,55.624,112.147z"/>
	<path class="stroke" fill="#0e0240"  d="M63.793,136.598c-2.033,2.826-4.108,5.659-6.112,8.541c-0.374,0.537-0.531,1.258-0.667,1.92
		c-0.349,1.706,0.508,3.454,2.127,4.025c2.589,0.912,6.146,0.297,6.554-3.488c0.291-2.708,0.461-5.432,0.594-8.153
		c0.045-0.931-0.188-1.875-0.298-2.844C65.263,136.598,64.701,136.598,63.793,136.598z"/>
	<path class="stroke" fill="#0e0240"  d="M44.136,151.324c-1.433,1.989-2.822,3.796-4.074,5.693c-1.253,1.897-2.393,3.875-2.396,6.181
		c0.559,1.395,1.712,1.93,2.875,2.396c2.776,1.11,5.677-0.804,5.845-3.803c0.074-1.307,0.164-2.615,0.292-3.918
		c0.22-2.211-0.082-4.378-0.335-6.688C45.461,151.24,44.748,151.285,44.136,151.324z"/>
	<path class="stroke" fill="#0e0240"  d="M79.723,102.228c-0.926,0-1.741,0-2.573,0c-1.521,2.018-2.965,3.789-4.237,5.676c-0.782,1.162-1.371,2.473-1.899,3.776
		c-0.215,0.53-0.208,1.281-0.009,1.824c0.574,1.564,1.82,2.452,3.426,2.764c1.589,0.308,2.982-0.081,3.837-1.562
		c0.477-0.827,0.993-1.706,1.166-2.623C80.038,108.878,79.896,105.637,79.723,102.228z"/>
	<path class="stroke" fill="#0e0240"  d="M60.142,130.807c1.825-1.354,2.671-3.256,2.78-5.444c0.129-2.618,0.088-5.244,0.108-7.866
		c0.001-0.217-0.092-0.435-0.163-0.749c-2.049,0.376-2.101,0.402-3.094,1.496c-0.575,0.634-1.174,1.247-1.72,1.904
		c-1.645,1.982-3.16,4.044-3.878,6.575c-0.525,1.848-0.148,3.176,1.17,4.105C56.809,131.861,58.729,131.856,60.142,130.807z"/>
	<path class="stroke" fill="#0e0240"  d="M96.893,145.752c-0.051-2.389-0.213-4.781-0.47-7.156c-0.104-0.97-0.145-2.071-1.031-2.763
		c-1.53,0.107-1.606,0.062-2.269,1.193c-1.293,2.209-2.562,4.438-3.701,6.729c-0.631,1.27-0.954,2.684-0.666,4.211
		c0.813,1.232,2.11,1.837,3.495,2.18c1.708,0.422,3.213-0.243,4.011-1.802C96.659,147.568,96.911,146.617,96.893,145.752z"/>
	<path class="stroke" fill="#0e0240"  d="M104.231,155.084c-0.002-0.948-0.193-1.791-0.976-2.378c-3.661,0.886-7.898,8.002-7.291,12.369
		c1.507,1.625,3.285,2.286,5.414,1.618c2.063-0.648,2.522-2.445,2.88-4.275c0.042-0.22,0.026-0.453,0.024-0.679
		C104.266,159.52,104.236,157.302,104.231,155.084z"/>
	<path class="stroke" fill="#0e0240"  d="M42.485,143.025c0.477-1.135,0.814-2.361,1.004-3.578c0.27-1.734,0.371-3.496,0.494-5.25
		c0.05-0.708,0.272-1.499-0.672-2.16c-0.604,0.148-1.349,0.33-1.755,0.43c-1.338,1.57-2.463,2.843-3.532,4.161
		c-0.679,0.837-1.35,1.698-1.889,2.626c-0.814,1.404-1.301,2.909-0.658,4.739c0.355,0.276,0.691,0.587,1.073,0.826
		C38.783,146.213,41.472,145.441,42.485,143.025z"/>
</g>
<path fill-rule="evenodd" clip-rule="evenodd" fill="#5146ce" class="fill" d="M80.405,53.867c-0.243-2.747,2.157-7.653,4.492-8.931
	c6.472-3.542,14.055-1.223,17.556,4.21c0.842,1.306,1.211,2.931,1.706,4.439c0.264,0.804,0.33,1.673,0.497,2.577
	c-0.177,1.173-0.893,2.066-1.768,2.95c-0.864,0.872-1.494,1.977-2.3,3.082c-0.303-0.145-0.654-0.297-0.992-0.475
	c-4.382-2.303-8.889-2.777-13.189-0.1c-3.012,1.875-5.389,4.454-4.952,8.329c-1.592,1.033-3.099,2.011-4.747,3.081
	c-3.804-2.516-8.072-3.804-12.903-3.001c0.475-2.1,1.655-3.355,3.41-4.189c2.706-1.286,5.477-1.476,8.238-0.66
	c0.767-0.143,1.433-0.267,2.141-0.399c3.769-5.433,8.765-8.675,15.649-8.257c0.366-1.439-0.226-2.212-1.295-2.749
	c-3.382-1.696-6.816-1.527-10.279-0.285c-0.369,0.133-0.731,0.287-1.1,0.422C80.525,53.926,80.46,53.883,80.405,53.867z"/>
<path fill-rule="evenodd" clip-rule="evenodd" fill="#5146ce" class="fill" d="M146.508,63.932c-1.428-0.272-2.812-0.537-4.336-0.827
	c-1.58-2.359-3.954-3.501-6.849-3.701c-2.871-0.2-5.393,0.654-7.716,2.695c-2.596-5.405-7.417-7.831-12.551-10.086
	c1.308-2.741,3.096-4.648,6.179-5.12c1.9-0.291,3.599,0.366,5.338,0.877c1.872,0.55,3.098,1.834,3.791,3.782
	c0.896-0.087,1.684-0.102,2.446-0.248c5.26-0.999,9.293,0.821,12.17,5.206c0.957,1.458,1.607,3.01,1.862,4.731
	C146.976,62.142,147.073,63.041,146.508,63.932z"/>
<path fill-rule="evenodd" clip-rule="evenodd" fill="#5146ce" class="fill" d="M126.903,89.301c-3.413-8.671-9.511-13.266-18.857-13.624
	c0.722-1.568,1.887-2.673,3.311-3.302c4.484-1.981,9.014-2.105,13.207,0.691c3.523,2.351,5.241,5.719,4.675,10.082
	C128.955,85.329,128.299,87.338,126.903,89.301z"/>
<path fill-rule="evenodd" clip-rule="evenodd" fill="#5146ce" class="fill" d="M87.984,70.79c0.361-2.398,1.876-3.935,3.996-4.276
	c3.756-0.605,6.596,1.066,9.046,3.66c0.62,0.657,1.136,1.413,1.71,2.138c-0.059,1.228-0.12,2.467-0.185,3.805
	c-2.459,0.892-4.122,2.82-5.849,5.068C94.875,76.685,92.326,72.972,87.984,70.79z"/>
<path fill-rule="evenodd" clip-rule="evenodd" fill="#5146ce" class="fill" d="M132.031,69.289c0.614-1.152,1.601-1.465,2.617-1.643
	c1.72-0.3,3.101,0.721,3.476,2.455c0.184,0.851,0.021,1.916,1.259,2.197c4.213-0.821,7.223,0.976,8.953,5.4
	c-0.481,0.921-0.975,1.866-1.515,2.9c-1.722-0.394-3.403-0.931-5.124-1.129c-1.681-0.193-3.401-0.042-5.271-0.042
	C136.149,75.425,134.55,72.105,132.031,69.289z"/>
<path fill-rule="evenodd" clip-rule="evenodd" fill="#5146ce" class="fill" d="M105.415,69.028c-0.557-1.153-1.067-2.209-1.57-3.252
	c4.8-8.318,16.382-7.847,22.032-1.631c-0.125,0.268-0.262,0.562-0.472,1.015c-0.681-0.17-1.334-0.3-1.967-0.497
	c-4.018-1.245-8.02-0.94-11.888,0.452c-1.618,0.582-3.008,1.802-4.49,2.75C106.498,68.225,105.967,68.635,105.415,69.028z"/>
<path fill-rule="evenodd" clip-rule="evenodd" fill="#5146ce" class="fill" d="M163.458,75.53c-3.585-2.153-7.136-2.4-10.852-1.067
	c-0.364-1.653-0.725-3.294-1.088-4.947C155.512,67.564,162.189,70.798,163.458,75.53z"/>
<path fill-rule="evenodd" clip-rule="evenodd" fill="#5146ce" class="fill" d="M146.285,118.211c0.798,2.541,1.281,5.034,1.012,7.619
	c-0.124,1.199-0.713,2.167-1.543,2.978c-0.957,0.934-2.246,1.059-3.303,0.41c-1.065-0.652-1.387-1.538-0.934-2.982
	C142.465,123.211,144.101,120.578,146.285,118.211z"/>
<path fill-rule="evenodd" clip-rule="evenodd" fill="#5146ce" class="fill" d="M154.814,135.525c0.114,2.711,0.385,5.427,0.301,8.132
	c-0.089,2.836-1.852,4.038-4.783,3.572c-1.099-0.879-1.319-2.015-0.88-3.333c0.126-0.377,0.171-0.795,0.361-1.133
	c1.223-2.17,2.477-4.322,3.72-6.48c0.223-0.387,0.445-0.774,0.667-1.161C154.405,135.256,154.61,135.391,154.814,135.525z"/>
<path fill-rule="evenodd" clip-rule="evenodd" fill="#5146ce" class="fill" d="M134.211,154.83c0.09,2.54,0.218,5.079,0.254,7.618
	c0.018,1.278-0.366,2.471-1.269,3.439c-0.115,0.124-0.253,0.228-0.587,0.524c-0.598-0.129-1.395-0.185-2.093-0.478
	c-1.384-0.58-1.865-1.579-1.474-3.032c0.233-0.868,0.56-1.748,1.028-2.51c1.184-1.922,2.472-3.78,3.718-5.664
	C133.93,154.762,134.07,154.795,134.211,154.83z"/>
<path fill-rule="evenodd" clip-rule="evenodd" fill="#5146ce" class="fill" d="M134.219,107.124c0.623,2.563,1.067,5.056,0.628,7.627
	c-0.076,0.444-0.255,0.877-0.433,1.295c-0.881,2.067-2.191,2.447-4.218,1.24C129.467,114.903,131.307,110.191,134.219,107.124z"/>
<path fill-rule="evenodd" clip-rule="evenodd" fill="#5146ce" class="fill" d="M115.912,121.77c0.315,2.07,0.697,4.133,0.914,6.212
	c0.092,0.883-0.054,1.831-0.279,2.7c-0.583,2.247-2.245,2.981-4.319,1.979c-0.3-0.145-0.555-0.384-0.982-0.687
	c-0.061-3.993,2.182-7.067,4.05-10.292C115.501,121.712,115.707,121.74,115.912,121.77z"/>
<path fill-rule="evenodd" clip-rule="evenodd" fill="#5146ce" class="fill" d="M84.016,134.325c-1.734-0.211-1.742-0.214-2.968-1.434
	c0.137-3.911,2.714-6.548,5.287-9.499c0.146,0.543,0.314,0.848,0.291,1.136c-0.2,2.484-0.378,4.973-0.686,7.444
	C85.801,133.087,85.128,133.952,84.016,134.325z"/>
<path fill-rule="evenodd" clip-rule="evenodd" fill="#5146ce" class="fill" d="M75.238,153.497c0.07,3.032,0.402,6.031-0.245,8.991
	c-0.249,1.137-0.807,1.539-2.293,1.972c-2.168-0.717-2.55-1.371-1.948-3.527C71.547,158.077,73.23,155.727,75.238,153.497z"/>
<path fill-rule="evenodd" clip-rule="evenodd" fill="#5146ce" class="fill" d="M120.19,148.875c0.035-2.602,1.903-6.275,4.845-9.452
	c0.569,1.148,0.441,2.348,0.414,3.49c-0.042,1.701-0.161,3.411-0.415,5.091c-0.149,0.988-0.785,1.744-1.893,1.961
	C121.845,150.219,121.109,149.972,120.19,148.875z"/>
<path fill-rule="evenodd" clip-rule="evenodd" fill="#5146ce" class="fill" d="M104.365,116.984c-0.394,0.048-0.73,0.138-1.063,0.124
	c-2.51-0.103-3.371-1.283-2.708-3.697c0.643-2.338,1.817-4.417,3.169-6.404c0.145-0.212,0.395-0.354,0.802-0.706
	c0.25,0.996,0.545,1.79,0.636,2.605c0.162,1.471,0.174,2.958,0.3,4.434C105.615,114.663,105.223,115.804,104.365,116.984z"/>
<path fill-rule="evenodd" clip-rule="evenodd" fill="#5146ce" class="fill" d="M49.363,113.041c-0.771-2.634,2.695-7.824,5.823-9.805
	c-0.136,1.452-0.214,2.717-0.384,3.969c-0.199,1.459-0.359,2.939-0.748,4.353C53.356,114.096,51.689,114.595,49.363,113.041z"/>
<path fill-rule="evenodd" clip-rule="evenodd" fill="#5146ce" class="fill" d="M64.49,139.495c-0.128,2.473-0.293,4.943-0.369,7.417
	c-0.036,1.165-0.46,2.077-1.476,2.982c-0.78,0-1.719,0-2.527,0c-1.286-0.925-1.394-2.057-0.989-3.285
	c0.229-0.696,0.479-1.424,0.892-2.017c1.258-1.802,2.6-3.545,3.908-5.312C64.116,139.353,64.303,139.424,64.49,139.495z"/>
<path fill-rule="evenodd" clip-rule="evenodd" fill="#5146ce" class="fill" d="M45.048,153.867c-0.165,2.795-0.245,5.468-0.507,8.123
	c-0.156,1.582-0.575,1.899-2.421,2.591c-0.71-0.373-1.584-0.832-2.333-1.224C39.62,160.702,42.843,154.85,45.048,153.867z"/>
<path fill-rule="evenodd" clip-rule="evenodd" fill="#5146ce" class="fill" d="M77.788,104.831c0,2.37,0.065,4.743-0.041,7.108
	c-0.03,0.683-0.472,1.397-0.869,2.002c-0.661,1.01-1.39,1.247-2.312,0.932c-1.105-0.377-1.818-1.16-1.694-2.267
	c0.11-0.991,0.354-2.061,0.866-2.894c1.086-1.769,2.386-3.406,3.599-5.097C77.487,104.687,77.638,104.759,77.788,104.831z"/>
<path fill-rule="evenodd" clip-rule="evenodd" fill="#5146ce" class="fill" d="M60.947,119.582c0.451,2.626,0.766,5.169-0.054,7.635
	c-0.288,0.868-0.972,1.651-1.615,2.344c-0.587,0.632-1.439,0.642-2.224,0.305c-0.846-0.363-1.156-1.115-1.035-1.958
	c0.119-0.832,0.339-1.667,0.645-2.45C57.566,123.15,59.273,121.408,60.947,119.582z"/>
<path fill-rule="evenodd" clip-rule="evenodd" fill="#5146ce" class="fill" d="M90.644,147.671c-0.063-3.589,2.246-6.024,3.53-8.888
	c0.154,0.021,0.31,0.042,0.464,0.064c0.167,2.402,0.349,4.803,0.485,7.207c0.021,0.382-0.114,0.789-0.248,1.16
	c-0.535,1.483-1.521,1.912-2.939,1.267C91.529,148.296,91.172,148.006,90.644,147.671z"/>
<path fill-rule="evenodd" clip-rule="evenodd" fill="#5146ce" class="fill" d="M102.113,155.535c-0.001,2.572,0.693,5.096,0.063,7.626
	c-0.591,2.371-2.018,2.91-4.395,1.451c0-0.385-0.097-0.944,0.017-1.457C98.446,160.217,99.818,157.658,102.113,155.535z"/>
<path fill-rule="evenodd" clip-rule="evenodd" fill="#5146ce" class="fill" d="M40.379,143.533c-0.37,0.153-0.722,0.36-1.1,0.444
	c-1.304,0.286-2.185-0.361-2.068-1.702c0.081-0.931,0.332-1.959,0.844-2.715c1.096-1.617,2.41-3.085,3.825-4.521
	C42.083,138.028,42.138,140.926,40.379,143.533z"/>
</svg>
