<svg version="1.1" id="svg" xmlns="http://www.w3.org/2000/svg" xmlns:xlink="http://www.w3.org/1999/xlink" x="0px" y="0px"
	 width="200px" height="200px" viewBox="0 0 200 200" enable-background="new 0 0 200 200" xml:space="preserve">
<path class="stroke" fill="#492208"  d="M146.64,13.354c-2.108,0.196-4.022,0.907-5.246,2.802c-1.263,1.957-2.586,3.882-3.719,5.913
	c-2.436,4.368-4.682,8.843-7.158,13.187c-4.646,8.152-9.44,16.219-14.097,24.365c-3.059,5.351-5.995,10.773-8.968,16.172
	c-2.84,5.158-5.675,10.32-8.483,15.496c-3.104,5.72-6.168,11.461-9.26,17.188c-4.719,8.739-9.444,17.473-14.17,26.208
	c-0.386,0.713-0.791,1.417-1.131,2.027c-0.831,0.237-1.48,0.423-2.138,0.611c-1.938,2.693-3.854,5.356-5.869,8.157
	c-0.971-0.323-1.917-0.675-2.885-0.953c-6.327-1.817-12.409-4.3-18.536-6.675c-2.274-0.881-4.7-1.592-7.113-1.848
	c-4.891-0.518-6.906,1.641-7.999,4.868c-1.896,5.601-1.319,11.247,0.574,16.715c0.953,2.752,3.872,3.383,6.53,1.733
	c1.251-3.26-0.751-6.688,0.246-10.183c0.713,0.227,1.328,0.422,2.021,0.642c-0.18,0.637-0.329,1.083-0.431,1.539
	c-0.804,3.603-0.146,6.967,1.876,10.009c1.517,2.281,3.585,2.805,6.151,1.726c0.245-0.439,0.541-0.97,0.826-1.483
	c-0.783-3.125-1.191-6.175,0.242-9.311c0.791,0.385,1.384,0.673,2.04,0.992c-0.258,0.708-0.493,1.271-0.67,1.852
	c-0.738,2.421-0.861,4.865-0.039,7.279c1.167,3.426,4.18,5.359,7.558,4.771c0.266-0.558,0.769-1.2,0.862-1.896
	c0.199-1.483,0.168-2.997,0.266-4.496c0.061-0.944,0.169-1.887,0.295-2.826c0.022-0.169,0.235-0.313,0.407-0.528
	c0.255,0.065,0.528,0.09,0.755,0.206c0.226,0.115,0.405,0.322,0.631,0.512c-0.226,0.851-0.42,1.643-0.647,2.426
	c-0.515,1.77-0.499,3.583,0.099,5.271c1.09,3.081,1.982,6.421,6.347,6.405c1.6-0.006,2.538-0.462,2.679-2.05
	c0.06-0.663-0.025-1.383-0.23-2.017c-0.551-1.705-0.399-3.399-0.015-5.077c0.151-0.661,0.593-1.255,0.935-1.945
	c1,0.453,1.736,0.787,2.664,1.208c-1.177,1.996-1.882,4.072-1.615,6.302c0.22,1.828,0.634,3.635,1.016,5.44
	c0.421,1.99,1.858,2.955,3.694,3.439c1.819,0.48,2.988-0.495,4.093-1.917c-0.061-2.894-1.195-6.104,1.63-8.604
	c0.833,0.389,1.626,0.759,2.431,1.135c-0.071,0.283-0.087,0.493-0.173,0.669c-1.925,3.945-1.321,7.736,0.815,11.359
	c2.048,3.473,5.721,3.348,7.794-0.266c-0.051-2.749-2.561-5.684,0.416-8.536c0.573,0.176,1.175,0.361,1.915,0.588
	c-1.094,2.392-1.223,4.672-1.118,7.028c0.122,2.731,1.391,4.724,3.613,6.081c1.729,1.056,3.638,1.64,5.644,0.558
	c1.865-1.005,2.328-2.696,1.178-4.471c-0.517-0.798-1.118-1.542-1.797-2.47c0.378-1.092,0.767-2.217,1.217-3.52
	c0.986,0.307,1.722,0.536,2.554,0.795c-0.643,2.643-0.75,5.071-0.145,7.523c0.76,3.078,2.547,5.05,5.679,5.825
	c2.803,0.693,4.237-0.13,4.937-3.069c-0.249-0.853-0.549-1.765-0.778-2.693c-0.596-2.421-0.886-4.866-0.092-7.292
	c0.595-1.82,1.318-3.598,1.968-5.401c0.247-0.687,0.448-1.39,0.75-2.337c-2.805-1.433-5.407-2.947-8.152-4.13
	c-8.356-3.6-16.784-7.036-25.147-10.62c-2.039-0.874-3.939-2.07-6.022-3.182c2.402-2.837,4.337-5.631,5.635-8.879
	c-0.255-0.659-0.499-1.289-0.807-2.085c0.16-0.371,0.265-0.7,0.433-0.992c2.838-4.921,5.684-9.838,8.528-14.755
	c2.88-4.979,5.793-9.94,8.63-14.945c1.858-3.277,3.606-6.616,5.404-9.926c2.286-4.209,4.604-8.4,6.85-12.63
	c2.531-4.768,4.93-9.605,7.503-14.349c4.735-8.728,9.578-17.397,14.333-26.114c2.164-3.966,4.432-7.895,6.28-12.007
	c2.11-4.696,4.553-9.189,7.097-13.647c0.637-1.115,1.163-2.337,1.485-3.576C150.063,14.568,148.822,13.151,146.64,13.354z"/>
<path fill-rule="evenodd" clip-rule="evenodd" fill="#f4751a" class="fill" d="M88.514,179.85c-1.645-0.185-2.125-1.046-2.343-1.974
	c-0.849-3.602-1.295-7.168,1.424-10.304c0.278-0.321,0.313-0.852,0.502-1.404c-3.172-1.536-6.314-2.758-9.84-3.266
	c-2.778,3.246-4.241,6.709-2.93,11.09c-1.321-0.094-1.695-1.071-2.267-1.569c-1.312-4.469,1.338-7.719,3.32-11.366
	c-3.514-1.36-6.691-3.183-10.599-2.068c-1.177,1.511-2.077,3.305-1.908,5.225c0.154,1.759,0.971,3.46,1.49,5.165
	c-1.9-0.498-3.652-2.763-3.545-4.722c0.115-2.104,0.892-3.994,2.049-5.733c0.459-0.689,0.995-1.344,0.44-2.455
	c-2.775-1.025-5.417-3.206-8.952-2.091c-1.995,3.305-2.083,6.714-0.57,10.497c-1.424-0.287-1.799-1.075-1.999-1.893
	c-0.642-2.632-0.845-5.266,0.158-7.882c0.383-1,0.648-2.044,1.054-3.348c-2.382-0.576-4.536-1.097-7.12-1.723
	c-0.298,0.062-1.026,0.212-1.656,0.343c-3.074,3.647-2.079,7.436-0.32,11.568c-2.235-0.891-2.407-2.547-2.711-3.99
	c-0.32-1.522-0.598-3.134-0.431-4.655c0.166-1.508,0.909-2.953,1.429-4.52c-1.789-0.851-3.565-1.696-5.533-2.631
	c-0.784-0.063-1.792-0.145-3.046-0.246c-1.705,1.641-1.847,3.836-1.487,6.111c0.158,1,0.653,1.943,0.922,2.932
	c0.239,0.881,0.375,1.79,0.558,2.686c-0.139,0.057-0.277,0.114-0.416,0.171c-0.278-0.327-0.64-0.612-0.821-0.985
	c-1.062-2.195-1.545-4.51-1.432-6.961c0.137-2.976,0.778-5.827,1.882-8.587c0.813-2.034,1.719-2.49,3.824-1.784
	c6.231,2.087,12.466,4.114,18.889,5.605c3.365,0.781,6.541,2.396,9.776,3.698c0.842,0.339,1.587,0.888,2.554-0.02
	c1.104-3.292,3.209-6.136,5.543-8.885c2.144-0.41,3.628,0.767,5.059,2.222c-0.648-0.156-1.295-0.312-2.093-0.505
	c-0.157,0.422-0.303,0.814-0.439,1.18c0.721,0.548,1.327,1.008,1.933,1.468c-0.068,0.141-0.137,0.281-0.205,0.422
	c-0.733-0.178-1.467-0.356-2.322-0.564c-0.184,0.337-0.358,0.658-0.558,1.024c0.618,0.426,1.14,0.786,1.817,1.253
	c-1.196,0.817-2.06-0.622-3.159,0.011c-0.06,0.214-0.16,0.575-0.256,0.92c0.689,0.447,1.288,0.834,1.977,1.281
	c-0.974,0.967-2.322-0.757-3.091,0.904c0.475,0.337,0.994,0.706,1.728,1.227c-0.118,1.367,1.01,1.963,2.213,2.572
	c5.497,2.778,10.91,5.732,16.477,8.359c5.135,2.423,10.429,4.51,15.652,6.748c1.547,0.663,3.089,1.335,4.873,2.107
	c-3.203,5.346-5.073,10.589-1.571,16.198c-1.187,0.584-1.811,0.004-2.359-0.611c-0.972-1.091-1.691-2.328-1.872-3.816
	c-0.274-2.261-0.338-4.5,0.463-6.696c0.171-0.468,0.079-1.032,0.112-1.616c-2.024-0.624-3.898-1.259-5.805-1.773
	c-1.71-0.462-2.361-0.144-3.256,1.315c-2.201,3.592-2.061,6.247,0.518,9.817c-1.347,0.223-2.742-0.46-3.34-1.789
	c-0.3-0.666-0.471-1.438-0.499-2.17c-0.098-2.575,0.366-5.044,1.617-7.335c0.221-0.405,0.364-0.852,0.532-1.253
	c-2.592-1.935-5.493-3.239-7.72-3.371C87.214,170.77,86.896,174.994,88.514,179.85z"/>
<path fill-rule="evenodd" clip-rule="evenodd" fill="#f4751a" class="fill" d="M79.358,137.266c-0.74-0.146-1.315-0.26-2.181-0.432
	c0.627-1.408,1.104-2.666,1.728-3.846c2.56-4.839,5.098-9.692,7.772-14.468c2.407-4.298,5.075-8.451,7.458-12.762
	c2.979-5.39,5.761-10.888,8.671-16.316c2.196-4.095,4.474-8.146,6.684-12.234c0.812-1.502,1.489-3.077,2.305-4.576
	c1.142-2.098,2.271-4.21,3.557-6.219c2.696-4.212,4.98-8.643,7.332-13.049c2.253-4.221,4.917-8.22,7.35-12.347
	c1.771-3.004,3.426-6.077,5.192-9.085c2.113-3.599,4.322-7.142,6.422-10.749c0.854-1.467,1.507-3.058,3.139-4.029
	c0.627,0.693,0.303,1.31-0.011,1.9c-0.676,1.269-1.4,2.513-2.064,3.789c-2.18,4.188-4.234,8.447-6.54,12.564
	c-2.911,5.198-6.078,10.251-9.033,15.425c-4.753,8.321-9.708,16.544-14.046,25.079c-4.311,8.479-8.942,16.784-13.235,25.27
	c-2.036,4.023-4.519,7.818-6.723,11.759c-3.844,6.872-7.617,13.783-11.449,20.661C80.993,134.843,80.162,136.008,79.358,137.266z"/>
</svg>
