<svg version="1.1" id="svg" xmlns="http://www.w3.org/2000/svg" xmlns:xlink="http://www.w3.org/1999/xlink" x="0px" y="0px"
	 width="200px" height="200px" viewBox="0 0 200 200" enable-background="new 0 0 200 200" xml:space="preserve">
<path class="stroke" fill="#561906"  fill-rule="evenodd" clip-rule="evenodd" d="M170.458,21.97c0.916-0.578,1.844-1.144,2.748-1.742
	c0.307-0.203,0.55-0.498,0.83-0.739c2.353-2.015,4.904-1.594,6.247,1.164c0.924,1.9,1.44,3.957,1.243,6.112
	c-0.179,1.97-1.044,3.055-3.018,3.446c-2.843,0.564-5.713,0.985-8.574,1.458c-1.398,0.229-2.818,0.361-4.2,0.666
	c-5.993,1.32-11.785,3.195-17.228,6.108c-2.403,1.287-4.739,2.613-6.878,4.335c-3.477,2.799-5.465,6.478-6.752,10.623
	c-0.47,1.512-0.841,3.056-0.993,4.753c0.238-0.194,0.564-0.34,0.699-0.59c0.471-0.867,0.856-1.78,1.313-2.656
	c0.368-0.709,0.706-1.459,1.208-2.067c1.251-1.521,2.748-1.737,4.661-0.797c1.373,0.675,1.944,1.96,1.638,3.749
	c-0.08,0.462-0.24,0.911-0.452,1.697c0.856-0.265,1.474-0.439,2.08-0.646c1.226-0.417,2.419-0.977,3.675-1.251
	c2.171-0.475,3.466,0.654,3.291,2.706c-0.021,0.237-0.063,0.472-0.127,0.94c0.74-0.069,1.393-0.095,2.03-0.199
	c1.285-0.212,2.332,0.107,3.018,1.271c0.646,1.1,0.446,2.211-0.57,3.374c-0.218,0.249-0.431,0.504-0.446,1.02
	c0.311-0.207,0.715-0.348,0.915-0.634c0.528-0.757,0.987-1.566,1.446-2.37c1.347-2.352,3.657-2.389,5.041-0.073
	c0.092,0.153,0.188,0.307,0.354,0.581c1.537-1.031,3.046-2.043,4.38-2.937c3.022,0.68,3.584,1.676,3.002,4.815
	c0.178,0.553,0.395,1.071,0.512,1.611c0.456,2.112-0.448,4.305-2.275,5.458c-1.815,1.146-3.905,1.638-5.965,1.678
	c-3.885,0.072-7.779-0.127-11.664-0.33c-1.468-0.076-2.934-0.404-4.371-0.745c-4.444-1.053-8.871-2.172-13.311-3.247
	c-0.261-0.062-0.561,0.037-0.842,0.061c-0.124,0.162-0.248,0.326-0.37,0.488c0.328,0.141,0.646,0.348,0.988,0.414
	c1.743,0.333,2.585,1.685,3.241,3.07c0.94,1.991,2.374,3.4,4.233,4.516c1.105,0.663,2.11,1.513,3.087,2.365
	c2.273,1.987,4.976,2.905,7.98,3.322c1.685,1.663,2.095,3.728,1.9,6.073c-0.236,2.846-2.5,3.402-4.347,4.208
	c-1.108,1.384-1.992,2.752-3.133,3.854c-2.597,2.514-5.981,2.733-8.98,0.753c-0.308-0.204-0.6-0.432-0.973-0.699
	c-4.119,0.383-8.274,0.767-13.002,1.204c-0.417,0.479-1.362,1.314-1.997,2.34c-1.992,3.209-3.71,6.555-4.793,10.209
	c-0.45,1.521-1.184,2.959-1.774,4.403c-0.733,0.121-1.271,0.208-1.863,0.305c-0.528,0.623-1.084,1.278-1.649,1.947
	c-0.631,0.115-1.234,0.226-1.959,0.358c-0.388,0.328-0.856,0.723-1.388,1.171c-0.488,0-1.039,0-1.497,0
	c-1.303,0.752-2.523,1.456-3.809,2.198c-0.096,1.449-0.077,2.879-0.301,4.27c-0.676,4.205-1.401,8.401-2.193,12.585
	c-0.67,3.53-1.137,7.058-1.093,10.669c0.021,1.763-0.26,3.576-0.716,5.282c-0.95,3.561-1.416,7.108-1.035,10.805
	c0.264,2.552,1.033,4.805,2.645,6.788c1.713,2.107,3.41,4.229,5.107,6.351c0.948,1.187,1.073,2.159,0.542,4.349
	c-2.153,0.973-4.467,0.776-6.97,0.362c0.166,1.696,0.825,3.316-0.033,5.009c-0.599,0.26-1.266,0.572-1.95,0.839
	c-2.29,0.893-4.212,0.266-5.909-1.409c-2.787-2.75-4.203-6.209-5.154-9.904c-0.133-0.521-0.113-1.113-0.027-1.651
	c0.422-2.616,1.035-5.208,1.313-7.837c0.422-3.989,0.638-8,0.903-12.004c0.041-0.606-0.057-1.241-0.204-1.836
	c-0.726-2.908-0.929-5.824-0.573-8.822c0.209-1.755,0.171-3.572-0.011-5.336c-0.38-3.675-0.928-7.332-1.429-11.157
	c-1.404,0.55-2.93,1.148-4.658,1.826c-0.104,3.026-0.188,6.102-0.317,9.177c-0.171,4.136-0.377,8.271-0.567,12.406
	c-0.032,0.679-0.073,1.356-0.091,2.036c-0.054,2.105-0.181,4.177-0.991,6.185c-0.382,0.94-0.535,2.065-0.459,3.082
	c0.479,6.534,1.068,13.066,2.876,19.396c0.521,1.823,1.395,3.562,2.241,5.272c1.27,2.562,1.103,3.696-1.102,5.668
	c-1.582,0.184-2.822-0.76-4.122-1.413c-1.307-0.655-2.514-1.507-3.888-2.349c-0.472,1.189-0.873,2.281-1.332,3.349
	c-0.956,2.229-2.777,3.219-5.036,2.75c-0.943-0.852-1.377-1.991-1.627-3.218c-0.619-3.038-1.044-6.112-0.681-9.198
	c0.236-2.011,0.882-3.973,1.28-5.97c0.314-1.57,0.611-3.151,0.775-4.743c0.309-3.01,0.559-6.029,0.735-9.05
	c0.045-0.759-0.096-1.643-0.465-2.29c-1.099-1.917-1.592-3.988-2.054-6.116c-0.613-2.827-1.293-5.654-2.167-8.411
	c-1.128-3.559-1.957-7.147-2.088-10.885c-0.014-0.358-0.074-0.716-0.123-1.187c-0.91-0.228-1.779-0.442-2.88-0.717
	c-0.271,1.842-0.614,3.466-0.723,5.107c-0.173,2.588-0.177,5.187-0.267,7.781c-0.047,1.294-0.189,2.586-0.18,3.878
	c0.032,4.602,0.554,9.126,2.291,13.443c0.622,1.547,1.203,3.112,1.766,4.683c0.489,1.369,0.524,2.766,0.102,4.308
	c-2.433,0.591-4.443-0.407-6.512-1.721c-0.857,0.91-1.69,1.793-2.615,2.772c-2.008,0.25-2.672-1.807-4.322-2.794
	c0.342,1.745,0.65,3.235,0.922,4.73c0.404,2.239-0.71,3.445-2.988,3.198c-1.849-0.201-3.149-1.346-4.29-2.688
	c-0.554-0.651-1.023-1.376-1.72-2.327c-0.225,0.713-0.368,1.201-0.531,1.683c-0.674,1.984-1.674,3.726-3.679,4.642
	c-0.47,0.215-1.02,0.255-1.492,0.364c-1.256-1.613-1.888-3.201-1.808-5.105c0.045-1.092-0.115-2.223-0.368-3.291
	c-0.749-3.157-0.426-6.271,0.244-9.372c0.808-3.743,1.534-7.497,1.652-11.333c0.045-1.479-0.036-2.97-0.173-4.445
	c-0.24-2.593-0.304-5.122,0.312-7.725c0.348-1.47-0.128-3.172-0.396-4.743c-0.622-3.661-1.267-7.314-1.148-11.048
	c0.081-2.471,0.223-4.941,0.274-7.413c0.014-0.656-0.073-1.38-0.345-1.966c-1.04-2.24-1.39-4.627-1.453-7.034
	c-0.094-3.512-0.484-7.046,0.305-10.538c0.067-0.297,0.075-0.62,0.042-0.924c-0.484-4.515,0.933-8.669,2.415-12.812
	c0.788-2.204,2.3-3.839,4.31-4.914c3.266-1.746,6.574-3.425,9.941-4.969c2.392-1.099,4.963-1.579,7.588-0.89
	c2.5,0.655,4.973,1.416,7.455,2.144c0.707,0.207,1.401,0.456,2.256,0.737c2.21-0.943,4.586-1.722,6.718-2.929
	c2.751-1.559,5.474-1.827,8.35-0.687c2.582,1.025,5.169,2.055,7.671,3.257c2.096,1.007,4.105,1.129,6.263,0.298
	c3.048-1.178,6.128-2.269,9.134-3.375c1.393-4.037,4.811-3.97,8.153-4.347c0.213-0.788,0.433-1.602,0.717-2.645
	c-1.466-0.699-2.873-1.437-4.331-2.049c-1.479-0.621-3.007-1.129-4.519-1.672c-3.017-1.086-5.344-3.098-7.229-5.601
	C93.04,50.459,90.155,44.688,88.7,38.27c-0.922-4.06-0.918-8.198-0.9-12.351c0.014-3.319-0.399-6.641-0.629-9.962
	c-0.021-0.307-0.126-0.608-0.138-0.913c-0.126-3.166,0.517-5.094,3.972-5.836c2.008,0.063,3.194,1.204,3.957,2.884
	c0.431,1.908-0.155,3.674-0.712,5.448c-1.167,3.719,0.212,5.238,4.029,4.309c1.291-0.313,2.595-0.851,3.706-1.572
	c1.087-0.706,1.725-1.874,1.989-3.229c0.224-1.145,0.571-2.277,0.984-3.37c0.591-1.566,1.835-2.316,3.462-2.188
	c0.612,0.049,1.216,0.188,1.784,0.278c0.894,1.25,0.894,1.25,0.888,5.184c1.006,0.494,2.06,0.669,3.177,0.315
	c0.766-0.242,1.517-0.535,2.293-0.733c2.145-0.55,3.51,0.198,4.085,2.288c0.245,0.888,0.378,1.816,0.474,2.735
	c0.165,1.573-0.408,2.804-1.915,3.445c-2.38,1.017-4.715,2.218-7.188,2.918c-3.108,0.881-5.087,2.884-6.681,5.476
	c-2.12,3.447-3.003,7.292-3.471,11.241c-0.182,1.55,0.093,3.089,0.869,4.491c0.3,0.541,0.626,1.071,0.873,1.635
	c1.22,2.796,3.438,4.124,6.335,4.854c2.871,0.725,5.568,2.012,7.897,3.938c0.521,0.433,1.093,0.802,1.706,1.248
	c0.761-0.092,1.55-0.187,2.512-0.303c0.201-0.597,0.404-1.195,0.669-1.979c-0.899-0.238-1.622-0.358-2.29-0.622
	c-1.77-0.7-3.554-1.389-5.252-2.241c-0.604-0.303-1.118-0.993-1.433-1.626c-1.178-2.376,0.241-4.87,2.885-4.857
	c1.766,0.008,3.532,0.477,5.292,0.776c0.646,0.111,1.272,0.333,1.98,0.523c1.146-3.95,3.364-7.016,6.04-9.818
	c2.401-2.519,5.356-4.135,8.481-5.527c1.353-0.603,2.707-1.218,3.998-1.941c1.647-0.923,2.588-2.36,2.99-4.246
	c0.6-2.81,0.929-5.582,0.378-8.456c-0.27-1.406-0.786-2.604-1.754-3.591c-1.299-1.324-2.639-2.611-4.022-3.846
	c-1.109-0.991-1.848-2.14-2.045-3.648c0.263-1.197,1.109-1.669,2.258-1.805c1.324-0.155,2.594-0.061,3.76,0.654
	c2.053,1.261,4.109,2.508,5.688,4.399c0.454,0.544,1.096,0.934,1.482,1.256c2.493,0.039,4.016-2.372,6.392-1.701
	c2.506,1.846,2.718,3.427,0.644,5.407c-0.61,0.584-1.395,0.988-2.11,1.457c-0.306,0.199-0.643,0.352-1.084,0.588
	c-0.084,1.617-0.352,3.248,0.35,4.955c1.129-0.275,2.24-0.416,3.229-0.837c0.629-0.268,1.177-0.887,1.59-1.469
	c1.75-2.467,3.415-4.997,5.156-7.471c0.709-1.008,1.463-2.005,2.321-2.886c1.424-1.462,3.193-1.689,4.7-0.749
	c1.309,0.815,1.804,2.05,1.163,3.486c-0.902,2.022-1.953,3.979-2.944,5.963c-0.157,0.315-0.323,0.626-0.487,0.937
	C170.208,21.714,170.333,21.842,170.458,21.97z M46.261,129.986c-0.119,0.71-0.233,1.188-0.275,1.672
	c-0.221,2.518-0.46,5.036-0.615,7.557c-0.052,0.848-0.058,1.774,0.23,2.547c0.65,1.741,0.475,3.339-0.209,5.021
	c-0.383,0.94-0.711,2.046-0.598,3.024c0.39,3.369,0.461,6.715,0.195,10.1c-0.234,2.98,0.988,5.562,2.682,8.197
	c0.375-2.284,0.678-4.271,1.028-6.252c0.666-3.755,1.579-7.464,1.634-11.318c0.07-4.964-0.697-9.841-1.379-14.727
	c-0.244-1.755-0.69-3.479-1.018-5.084C47.278,130.434,46.896,130.266,46.261,129.986z"/>
<path fill-rule="evenodd" clip-rule="evenodd" fill="#bf7512" class="fill" d="M97.415,103.514c-0.091,0.824-0.18,1.64-0.303,2.782
	c2.576-0.361,4.555-1.48,6.508-2.471c1.957-0.991,3.71-2.393,5.646-3.676c0.345,0.405,0.731,0.861,1.216,1.43
	c0.425-0.165,0.846-0.326,1.502-0.58c0.159,0.051,0.598,0.19,1.443,0.46c-0.369-1.251-0.646-2.188-0.952-3.227
	c1.247-0.006,0.96,1.308,2.006,1.664c0.022-0.003,0.355-0.034,0.811-0.076c-0.209-0.815-0.378-1.479-0.571-2.233
	c1.118-0.12,1.354,1.905,2.633,0.723c-0.062-0.346-0.133-0.74-0.218-1.212c0.312-0.045,0.64-0.196,0.768-0.094
	c0.712,0.569,1.375,1.198,1.938,2.074c-0.629-0.103-1.258-0.205-1.894-0.309c-0.276,1.327,0.963,1.073,1.438,1.847
	c-0.39,0.484-0.832,1.032-1.241,1.539c-0.99-0.035-1.233-1.623-2.625-0.871c0.562,0.88,1.101,1.723,1.677,2.625
	c-0.288,0.675-0.569,1.33-0.967,2.262c-0.784-1.475-1.407-2.649-2.065-3.889c-1.058,0.444-0.854,1.069-0.559,1.705
	c0.652,1.398,1.314,2.791,2.021,4.29c-0.201,0.452-0.412,0.922-0.724,1.623c-1.45-2.067-1.462-4.419-2.564-6.471
	c-0.396,0.172-0.745,0.324-1.226,0.532c0.793,2.387,1.551,4.664,2.348,7.061c-0.188,0.168-0.443,0.393-0.746,0.658
	c-1.656-1.869-1.381-4.57-2.951-6.579c-0.82,1.794-0.611,2.679,1.618,7.638c-0.183,0.204-0.403,0.455-0.708,0.801
	c-0.861-0.708-0.922-1.648-1.166-2.51c-0.248-0.878-0.55-1.742-0.871-2.742c-0.463,0.156-0.772,0.262-1.225,0.415
	c0.552,1.911,1.08,3.736,1.647,5.697c-0.155,0.084-0.398,0.215-0.684,0.37c-0.638-1.601-1.24-3.112-1.867-4.685
	c-0.56,0.114-0.887,0.182-1.303,0.268c0.669,1.86,1.303,3.622,1.943,5.401c-0.444,0.344-0.718,0.558-1.221,0.947
	c-0.493-1.787-0.937-3.399-1.421-5.157c-0.543,0.19-0.855,0.301-1.294,0.455c0.504,1.959,0.989,3.847,1.493,5.802
	c-0.412,0.213-0.711,0.365-1.231,0.635c-0.4-1.951-0.768-3.731-1.15-5.597c-0.404-0.055-0.729-0.098-1.361-0.182
	c0.44,2.206,0.841,4.224,1.266,6.363c-0.519,0.217-0.927,0.387-1.446,0.603c-0.179-1.636-0.337-3.086-0.493-4.521
	c-0.898-0.139-1.071,0.361-1.056,0.969c0.021,0.927,0.127,1.853,0.131,2.778c0.003,0.408-0.153,0.819-0.303,1.549
	c-0.822-0.987-0.493-1.743-0.529-2.436c-0.035-0.661-0.008-1.325-0.008-2.438c-0.594,0.513-1.022,0.7-1.102,0.987
	c-0.181,0.646-0.19,1.338-0.265,2.012c-0.065,0.59-0.127,1.18-0.202,1.898c-1.227-0.416-0.752-1.325-0.931-1.935
	c-0.188-0.637-0.216-1.32-0.326-2.076c-0.472,0.05-0.803,0.086-1.098,0.116c-0.579,1.312,0.893,2.906-0.774,3.985
	c-1.341-1.597,0.51-3.435-0.537-5.04c-1.146,0.077-1.671,0.988-2.324,1.666c-2.266,2.349-4.98,4.009-8.137,5.515
	c-0.203-1.029-0.374-1.892-0.543-2.742c-1.115-0.486-1.627,0.364-2.342,0.851c-0.807,2.67-1.337,5.396-1.321,8.192
	c0.02,3.646,0.28,7.293,0.194,10.935c-0.088,3.699-0.46,7.391-0.74,11.084c-0.037,0.471-0.277,0.927-0.431,1.411
	c-0.846,0.132-1.614,0.253-2.364,0.371c-0.741-0.151-1.461-0.297-2.164-0.44c-1.195,0.822-2.586,1.25-3.48,2.853
	c2.913,0.561,5.092-0.85,7.439-1.429c0.508,1.362-0.069,3.396-1.846,6.227c-1.33,0.536-2.842,0.966-3.831,2.417
	c1.181,1.154,2.525,0.638,3.973,0.486c0.608,8.033,2.567,15.738,5.683,23.058c-1.492,0.801-2.93,1.572-4.534,2.432
	c-0.058-0.982-0.112-1.925-0.174-2.968c-0.503-0.153-0.945-0.288-1.355-0.415c-1.528,1.102-0.87,3.01-1.856,4.278
	c-1.38,0-2.776,0-4.229,0c-0.545-1.417-0.713-2.834-0.335-4.336c0.666-2.632,1.414-5.257,1.848-7.929
	c0.443-2.734,0.639-5.517,0.772-8.288c0.079-1.65-0.127-3.321-0.282-4.976c-0.167-1.78-0.417-3.528-1.243-5.189
	c-0.512-1.026-0.844-2.228-0.925-3.373c-0.335-4.697-1.015-9.334-2.079-13.92c-1.03-4.446-1.326-8.934-0.433-13.428
	c0.347-1.749,1.021-3.431,1.535-5.146c0.247-0.819,0.469-1.647,0.688-2.416c-1.434-1.176-2.438-1.07-3.183,0.385
	c-0.559,1.094-0.915,2.292-1.358,3.443c-0.168,0.435-0.326,0.872-0.586,1.568c-0.93-1.815-1.265-3.498-1.143-5.219
	c0.162-2.275,0.51-4.539,0.771-6.808c0.453-3.937,0.438-7.873,0.095-11.779c-2.102-0.438-3.016,0.322-2.758,2.199
	c0.107,0.795,0.289,1.582,0.47,2.364c0.787,3.401,0.313,6.749-0.262,9.943c-0.769,0.578-1.382,1.041-2.288,1.725
	c0.846,0.141,1.284,0.213,1.81,0.302c-0.091,1.393-0.179,2.735-0.261,3.991c-1.399,1.141-2.834,0.113-4.119,0.453
	c-0.231-0.329-0.402-0.568-0.618-0.877c-0.294,0.138-0.579,0.234-0.825,0.396c-0.868,0.569-1.635,0.509-2.546-0.049
	c-0.905-0.555-1.974-0.841-2.935-1.232c-0.051-0.728-0.091-1.313-0.156-2.273c-0.715,0.719-1.201,1.207-1.684,1.693
	c-1.066-0.179-2.115-0.354-3.413-0.569c-0.403,0.354-0.99,0.872-1.631,1.436c1.033,1.902,2.172,3.525,3.826,4.769
	c-3.004-1.207-4.868-3.747-7.146-5.843c0.691-0.591,1.27-1.087,1.965-1.68c-1.195-0.721-1.768,0.543-2.789,0.479
	c-0.315-0.542-0.683-1.17-1.087-1.863c0.303-1.066,0.61-2.146,0.917-3.226c-0.108-0.062-0.215-0.121-0.322-0.182
	c-0.438,0.279-0.879,0.559-1.498,0.951c-0.285-0.787-0.564-1.557-0.848-2.334c0.781-0.993,1.514-1.922,2.358-2.995
	c-1.388-0.43-1.778,0.956-2.908,0.886c-0.185-0.905-0.374-1.843-0.525-2.595c0.729-1.151,1.333-2.104,2.175-3.434
	c-0.955,0.173-1.438,0.261-2.012,0.365c0-0.753,0-1.467,0-2.101c0.727-0.637,1.363-1.191,2.337-2.046
	c-0.88-0.143-1.359-0.219-1.927-0.312c-0.018-0.174-0.127-0.438-0.055-0.632c0.815-2.194,1.629-4.39,2.509-6.56
	c0.438-1.083,0.966-2.142,1.538-3.162c0.72-1.282,1.537-2.509,2.292-3.772c0.359-0.604,0.671-1.234,1.021-1.888
	c-1.904-1.251-2.886,0.33-4.4,1.103c0.237-0.564,0.307-0.887,0.483-1.13c2.229-3.053,5.19-5.033,8.809-6.11
	c1.654-0.492,3.257-1.16,4.886-1.742c1.913-0.685,3.81-0.887,5.788-0.135c1.078,0.409,2.263,0.549,3.629,0.862
	c-0.883,0.592-1.589,1.067-2.297,1.543c0.441,1.047,1.129,1.493,1.979,1.388c1.264-0.157,2.53-0.269,3.688-1.034
	c1.01-0.667,2.224-1.028,3.351-1.516c1.585-0.682,3.211-1.281,4.751-2.054c2.794-1.398,5.605-1.808,8.57-0.588
	c2.567,1.058,5.189,1.988,7.721,3.122c1.393,0.623,2.689,0.734,4.122,0.279c2.942-0.934,5.903-1.806,8.856-2.705
	c0.645-0.196,1.289-0.392,2.135-0.648c0,0.769-0.058,1.418,0.012,2.056c0.14,1.283,0.217,2.593,0.56,3.826
	c0.544,1.964,1.566,2.3,3.34,1.286c0.213-0.121,0.41-0.272,0.67-0.447c2.448,1.85,3.7-0.396,5.255-1.492
	c0.771-2.22,1.517-4.361,2.261-6.504c0.11,0.017,0.222,0.034,0.332,0.051c-0.155-0.562-0.31-1.122-0.571-2.069
	c-1.695,1.829-3.247,3.38-4.648,5.058c-1.098,1.317-2.035,2.761-3.93,3.656c-0.301-0.819-0.683-1.456-0.756-2.126
	c-0.218-1.998,0.115-3.968,0.847-5.818c0.243-0.614,0.897-1.225,1.514-1.502c1.17-0.528,2.429-0.918,3.688-1.177
	c1.549-0.317,2.715-0.937,3.42-2.463c0.665-1.439,2.013-2.224,3.31-3.116c2.842-1.954,5.997-2.033,9.219-2.06
	c3.962-0.035,7.003-1.7,9.063-5.14c0.749-1.254,1.447-2.642,3.4-2.89c0.219,0.521,0.451,1.075,0.7,1.672
	c-0.837,0.243-1.444,0.419-2.411,0.697c0.797,0.488,1.268,0.776,2.086,1.278c-1.049,0.11-1.734,0.183-2.422,0.256
	c-0.049,0.147-0.098,0.294-0.146,0.439c0.938,0.539,1.878,1.08,2.973,1.71c2.81-0.086,5.463-1.22,8.063-2.398
	c1.1,1.472-1.772,2.687,0.456,4.192c0.622-0.062,1.65-0.115,2.658-0.283c0.812-0.136,1.581-0.342,2.086,0.769
	c-2.549,1.796-5.092,0.738-7.675,0.263c-0.185-0.479-0.358-0.926-0.631-1.627c-0.521,0.4-0.966,0.742-1.43,1.098
	c-0.981-0.237-0.981-0.237-1.657-1.475c-0.445,0.294-0.881,0.58-1.416,0.933c-0.24-0.225-0.538-0.502-1.018-0.947
	c-0.348,0.244-0.735,0.519-1.187,0.835c-0.312-0.234-0.266-1.348-1.403-0.824c-0.232,0.588-0.499,1.256-0.883,2.223
	c-0.517-0.77-0.807-1.204-1.058-1.579c-1.483-0.205-0.885,1.112-1.321,1.617c-0.894-0.111-0.894-0.111-1.75-0.951
	c-1.232-0.128-0.84,0.911-0.997,1.812c-0.583-0.254-0.987-0.428-1.387-0.606c-0.356-0.159-0.71-0.324-1.23-0.562
	c-0.058,0.692-0.097,1.148-0.136,1.622c-1.145,0.196-1.626-1.901-3.131-0.823c0.336,0.576,0.628,1.081,0.98,1.688
	c-1.419,0.688-1.604-0.949-2.621-1.299c-0.225,0.091-0.591,0.24-1.057,0.428c0.346,0.693,0.635,1.277,1.137,2.283
	c-0.961-0.489-1.562-0.797-2.258-1.152c-0.24,0.169-0.518,0.363-0.908,0.636c0.413,0.448,0.737,0.799,1.086,1.176
	c-0.037,0.384-0.078,0.794-0.125,1.263c0.304,0.075,0.537,0.198,0.759,0.18c2.032-0.171,3.745,0.433,5.23,1.869
	c0.44,0.427,1.185,0.578,1.817,0.757c0.646,0.182,1.341,0.194,1.993,0.361c1.489,0.381,2.524,1.244,2.878,2.816
	c0.122,0.539,0.344,1.055,0.649,1.967c3.457,2.272,7.136,4.765,10.903,7.115c0.841,0.525,1.979,0.63,3,0.799
	c1.602,0.264,2.267,0.857,2.484,2.477c0.057,0.429,0.074,0.863,0.073,1.296c-0.007,2.133-0.568,2.748-2.714,2.896
	c-0.824,0.058-1.656,0.01-2.578,0.01c0.326-0.879,0.554-1.484,0.793-2.132c-1.424-0.534-2.402,0.178-3.46,0.406
	c-1.315,0.285-2.641,0.579-3.977,0.686c-1.694,0.135-2.99-0.607-3.749-2.187c-0.104-0.214-0.28-0.394-0.465-0.649
	c-0.936,0.144-1.994-0.131-2.552,1.128c1.508,1.635,1.63,4.369,4.648,5.212c0.661-0.301,1.638-0.745,2.616-1.19
	c-0.027-0.068-0.053-0.138-0.08-0.206c0.983-0.072,1.965-0.145,2.959-0.217c0.976,0.504,1.956,1.01,2.936,1.516
	c-0.86,2.931-4.275,4.08-7.018,2.34c-0.882-0.56-1.715-1.197-2.599-1.821c-5.413,1.066-10.678,1.189-15.7-2.118
	c-0.433,0.091-1.1,0.197-1.744,0.38c-2.848,0.807-5.696,1.617-8.53,2.477c-0.63,0.19-1.295,0.484-1.776,0.919
	c-2.865,2.581-6.122,4.585-9.42,6.534C99.21,102.415,98.375,102.934,97.415,103.514z M123.271,71.154
	c-1.304,0.09-2.918,0.431-4.207,1.63c-1.366,1.271-1.702,3.651-0.569,4.636c1.955,1.697,4.27,2.49,6.852,2.01
	c2.367-0.44,3.678-2.734,3.031-5.044C127.732,72.074,126.471,71.21,123.271,71.154z M83.521,117.916
	c1.578,0.516,2.653,0.192,3.578-0.656c1.173-1.078,2.364-2.143,3.458-3.297c1.39-1.468,2.794-2.942,3.998-4.559
	c1.072-1.441,0.613-3.192-0.967-4.383c-1.498,0.601-2.596,1.749-3.354,3.162c-1.62,3.016-3.491,5.786-6.489,7.619
	c-0.148,0.091-0.244,0.269-0.495,0.549C83.329,116.812,83.428,117.378,83.521,117.916z M61.454,87.519
	c-2.221-0.078-3.476,1.16-4.484,2.844c-1.422,2.375-2.182,4.98-2.449,7.69c-0.17,1.729-0.58,3.604,0.969,5.294
	c0.516,0,1.182,0,1.969,0c-1.239-5.843,0.341-10.677,4.357-14.679C61.661,88.175,61.556,87.839,61.454,87.519z M94.87,94.856
	c0.998-0.826,1.834-1.383,2.498-2.1c1.443-1.558,3.115-2.738,5.035-3.646c1.098-0.52,2.128-1.229,3.093-1.978
	c1.04-0.806,1.05-1.467,0.276-2.605c-1.503,0.014-2.334,0.172-3.59,1.148c-1.942,1.51-3.854,3.075-5.649,4.755
	c-1.099,1.03-1.957,2.316-3.053,3.648C94.079,94.415,94.462,94.629,94.87,94.856z M125.272,86.075
	c-1.287,0.277-2.293,0.466-3.285,0.71c-2.477,0.613-4.868,0.648-7.118-0.807c-0.544-0.353-1.193-0.542-1.796-0.807
	c-0.142-0.065-0.285-0.13-0.427-0.192c-0.547,0.522-1.095,1.049-1.591,1.523c1.252,1.607,2.417,2.345,3.849,2.688
	c3.721,0.897,7.317,0.081,11.204-0.628C125.825,87.719,125.608,87.073,125.272,86.075z M150.538,88.028
	c-0.155-0.598-0.142-1.121-0.342-1.223c-1.363-0.699-2.74-1.392-4.176-1.909c-0.644-0.232-1.168,0.182-0.992,1.157
	C146.815,86.558,148.276,88.037,150.538,88.028z M38.671,110.912c0.513,0.086,0.853,0.143,1.45,0.242
	c-0.166-1.3,1.454-2.018,0.833-3.633C39.737,108.39,39.046,109.374,38.671,110.912z M39.667,115.181
	c1.329-0.479,1.85-1.651,1.535-3.193C40.087,112.719,39.368,113.593,39.667,115.181z M53.284,117.493
	c-0.805,1.186-1.385,2.037-2.072,3.05c0.579,0.099,0.91,0.155,1.312,0.225C52.841,119.792,54.108,119.213,53.284,117.493z
	 M44.89,119.005c2.197,0.219,3.295-0.922,2.83-2.567C46.845,117.23,46.007,117.992,44.89,119.005z M45.641,116.445
	c0.231-1.016,0.413-1.806,0.636-2.775c-1.598,0.29-1.518,1.43-1.941,2.402C44.794,116.203,45.115,116.295,45.641,116.445z
	 M39.553,105.273c0.394-0.911,0.708-1.638,1.021-2.363c-0.146-0.087-0.292-0.174-0.438-0.261c-0.946,0.36-1.464,1.095-1.697,2.237
	C38.786,105.009,39.05,105.099,39.553,105.273z M52.714,115.379c-1.352,0.155-1.939,0.871-2.299,1.935
	C51.8,117.446,52.415,116.958,52.714,115.379z M44.135,111.788c1.298-0.315,1.523-0.699,1.342-2.094
	C44.082,110.18,44.082,110.18,44.135,111.788z M45.589,105.206c-1.399-0.162-1.438-0.134-1.932,1.318
	C44.938,106.713,44.938,106.713,45.589,105.206z M42.984,116.471c-0.59,0-0.935,0-1.413,0c-0.213,0.525-0.426,1.049-0.674,1.66
	c0.488,0.105,0.767,0.166,1.097,0.236C42.309,117.766,42.582,117.243,42.984,116.471z M43.948,101.521
	c1.236,0.6,1.671-0.081,2.109-0.956C44.931,100.07,44.45,100.656,43.948,101.521z M58.657,110.72
	c-1.973-0.265-2.092-0.191-2.492,1.248C57.238,112.275,57.64,111.339,58.657,110.72z M57.617,107.02
	c-1.12-0.437-1.58,0.235-2.224,0.952C56.577,108.434,57.16,108.027,57.617,107.02z M59.224,113.428
	c-1.285-0.111-1.931,0.231-2.322,1.323C58.085,115.041,58.52,114.331,59.224,113.428z M49.093,110.226
	c1.222,0.145,1.75-0.31,2.14-1.198C50.023,109.027,50.023,109.027,49.093,110.226z M40.253,98.445
	c0.908,0.421,1.909,0.307,2.043-0.295c-0.222-0.18-0.487-0.395-0.81-0.656C41.051,97.83,40.672,98.123,40.253,98.445z
	 M51.488,112.507c-0.997,0.206-0.997,0.206-1.56,1.083C51.231,113.714,51.231,113.714,51.488,112.507z"/>
<path fill-rule="evenodd" clip-rule="evenodd" fill="#bf7512" class="fill" d="M152.054,20.78c-0.53,0.902-0.944,1.604-1.391,2.36
	c0.266,0.19,0.604,0.435,0.966,0.694c0.037,0.438,0.074,0.864,0.114,1.346c-0.397,0.257-0.792,0.512-1.279,0.826
	c0.715,0.72,2.149,0.514,2.086,1.933c-0.638,0.073-1.284,0.147-2.033,0.233c0.162,1.129,0.973,1.055,1.756,1.263
	c0.334-0.416,0.664-0.827,0.996-1.239c3.92,0.525,6.777-1.431,9.034-4.275c1.72-2.168,3.022-4.66,4.585-6.958
	c0.723-1.062,1.592-2.03,2.456-2.985c0.252-0.278,0.718-0.364,1.15-0.569c1.013,1.526,0.161,2.654-0.436,3.834
	c-0.503,0.066-0.967,0.126-1.658,0.216c0.257,0.499,0.481,0.827,0.595,1.19c0.094,0.301,0.059,0.643,0.077,0.913
	c-0.768,0.379-1.583-0.688-2.286,0.648c0.424,0.245,0.945,0.546,1.467,0.847c-0.295,0.461-0.455,0.712-0.6,0.937
	c-0.747,0.122-1.203-1.208-1.99-0.3c0.537,1.64,2.825,2.763,4.592,2.112c1.2-0.441,2.333-1.092,3.455-1.719
	c1.01-0.565,1.966-1.227,2.989-1.874c1.941,1.317,1.862,3.219,2.096,5.021c-0.321,0.269-0.593,0.495-0.885,0.738
	c0.27,0.479,0.536,0.952,0.828,1.473c-0.276,0.242-0.494,0.433-0.873,0.763c-0.336-0.831-0.62-1.533-0.935-2.313
	c-0.352,0.035-0.689,0.068-1.213,0.121c0.123,0.949,0.23,1.775,0.339,2.618c-0.218,0.066-0.383,0.117-0.677,0.206
	c-0.194-0.829-0.383-1.626-0.592-2.519c-0.428,0.039-0.76,0.07-1.351,0.126c0.222,0.933,0.41,1.729,0.638,2.688
	c-0.371,0.089-0.876,0.206-1.546,0.362c-0.099-1.008-0.181-1.845-0.278-2.814c-0.412-0.028-0.788-0.053-1.258-0.085
	c0,0.987,0,1.831,0,2.798c-0.327,0.041-0.652,0.082-1,0.126c-0.201-0.807-0.374-1.508-0.578-2.329
	c-0.488,0.102-0.87,0.181-1.289,0.269c0.094,0.827,0.174,1.54,0.265,2.354c-0.38,0.062-0.664,0.106-1.044,0.166
	c-0.241-0.52-0.467-1.006-0.711-1.533c-0.335,0-0.685,0-1.144,0c0,0.654,0,1.229,0,1.804c-1.66,0.541-0.843-2.159-2.646-1.542
	c-0.031,0.568-0.069,1.263-0.111,2.073c-0.282,0.078-0.617,0.174-1.031,0.288c-0.238-0.535-0.456-1.022-0.695-1.561
	c-0.354,0.045-0.645,0.081-1.027,0.13c-0.064,0.643-0.125,1.24-0.196,1.957c-0.212,0.088-0.477,0.195-0.85,0.349
	c-0.238-0.554-0.444-1.033-0.694-1.618c-0.321,0.048-0.657,0.098-1.069,0.159c0,0.681,0,1.278,0,2.005
	c-0.332,0.132-0.695,0.275-1.169,0.464c-0.282-0.781-0.523-1.446-0.811-2.24c-0.444,0.164-0.804,0.297-1.217,0.449
	c0.134,0.824,0.251,1.538,0.379,2.325c-0.378,0.168-0.696,0.311-1.101,0.491c-0.312-0.608-0.584-1.141-0.885-1.731
	c-0.33,0-0.665,0-1.181,0c0.153,0.757,0.279,1.386,0.433,2.15c-0.393,0.197-0.801,0.402-1.271,0.641
	c-0.321-0.643-0.59-1.178-0.901-1.8c-0.383,0.153-0.707,0.283-1.121,0.449c0.116,0.638,0.226,1.229,0.357,1.943
	c-0.41,0.265-0.863,0.558-1.279,0.825c-0.8-0.181-1.056-1.737-2.235-0.67c0.148,0.421,0.307,0.868,0.508,1.442
	c-0.429,0.274-0.874,0.562-1.388,0.89c-0.4-0.369-0.746-0.688-1.146-1.059c-0.279,0.116-0.544,0.228-0.92,0.382
	c0.176,0.522,0.325,0.97,0.504,1.504c-0.255,0.191-0.533,0.401-0.853,0.641c-0.515-0.303-0.981-0.575-1.488-0.873
	c-0.276,0.159-0.528,0.304-0.828,0.477c0.237,0.494,0.438,0.909,0.659,1.374c-0.437,0.364-0.81,0.675-1.153,0.96
	c-0.771,0.136-1.492-1.096-2.258,0.118c0.229,0.332,0.489,0.709,0.729,1.058c-0.103,1.57-1.636,0.729-2.392,1.489
	c0.105,0.279,0.225,0.591,0.385,1.019c-0.188,0.27-0.425,0.613-0.588,0.85c-0.803,0.081-1.476,0.15-2.527,0.258
	c0.672,0.715,1.054,1.121,1.574,1.675c-0.909,0.307-1.64,0.554-2.645,0.893c0.65,0.548,1.035,0.87,1.498,1.26
	c-0.81,0.662-2.066-0.38-2.546,1.052c0.45,0.248,0.933,0.515,1.436,0.793c-0.692,0.224-1.368,0.442-2.435,0.787
	c0.88,0.54,1.365,0.837,1.851,1.135c-0.017,1.536-1.989,0.168-2.142,1.632c0.356,0.244,0.786,0.539,1.344,0.922
	c-0.718,0.386-1.37,0.737-2.157,1.16c0.388,0.316,0.637,0.521,1.005,0.82c-0.619,0-1.089,0-1.649,0
	c-0.048-0.919-0.091-1.759-0.136-2.637c-1.363-0.472-2.646-0.917-4.069-1.41c-0.257,0.341-0.571,0.758-1.074,1.426
	c-0.393-0.611-0.718-1.116-1.136-1.764c-0.44,0.242-0.943,0.52-1.629,0.898c-0.349-0.482-0.707-0.984-1.119-1.562
	c-0.424,0.283-0.812,0.545-1.308,0.875c-0.401-0.307-0.823-0.629-1.206-0.922c0.545-1.68,1.133-2.059,2.762-1.693
	c1.864,0.419,3.708,0.93,5.562,1.396c1.246,0.311,2.443,0.241,3.682-0.542c0.131-0.449,0.292-0.972,0.433-1.499
	c1.647-6.184,5.302-10.618,11.246-13.161c2.038-0.871,3.992-1.954,5.915-3.062c2.658-1.53,3.766-3.986,3.748-6.976
	c-0.014-2.1-0.107-4.198-0.188-6.296c-0.115-2.987-1.601-5.235-3.799-7.139c-1.478-1.28-2.858-2.675-4.361-4.092
	c0.77-0.716,1.486-0.654,2.045-0.33c1.165,0.677,2.276,1.46,3.355,2.271c1.178,0.885,2.218,1.976,3.46,2.749
	c1.38,0.859,2.896,1.003,4.353-0.047c0.895-0.645,1.855-1.183,3.115-0.976c0.299,1.419-0.888,1.828-1.482,2.607
	c-0.465,0.021-0.887,0.04-1.383,0.063c-0.272,0.353-0.564,0.732-0.837,1.086c-0.638-0.035-1.216-0.068-2.078-0.116
	c0.4,0.655,0.636,1.041,0.94,1.541c-0.463,0.246-0.924,0.489-1.755,0.93C151.154,20.337,151.532,20.523,152.054,20.78z
	 M166.139,25.274c-0.597-1.715-0.658-1.755-1.979-1.305C164.435,24.877,164.963,25.354,166.139,25.274z M162.609,25.796
	c0.71,0.796,1.253,1.007,2.018,0.397C164.181,25.157,163.569,25.3,162.609,25.796z"/>
<path fill-rule="evenodd" clip-rule="evenodd" fill="#bf7512" class="fill" d="M42.764,142.363c0.91,0.926,0.858,2.011,0.729,3.153
	c-0.225,1.957-0.343,3.926-0.554,5.885c-0.059,0.545-0.288,1.069-0.52,1.893c0.259,0.358,1.516,0.901,0.328,1.791
	c0.156,0.643,0.365,1.19,0.408,1.753c0.081,1.045,0.125,2.101,0.075,3.147c-0.158,3.396,0.246,6.616,2.247,9.535
	c0.631,0.92,0.814,2.147,1.24,3.336c-0.703,0.275-1.198,0.471-1.73,0.679c-0.973-1.247-1.409-2.894-3.25-3.435
	c-2.184,0.706-3.874,2.051-4.439,4.512c-0.428,0-0.723,0-1.152,0c-0.152-0.532-0.34-1.042-0.441-1.568
	c-0.937-4.868-0.803-9.676,0.679-14.444c1.237-3.985,1.354-8.137,1.654-12.259c0.075-1.016,0.286-2.021,0.429-2.98
	c-1.039-0.859-1.394,0.448-2.377,0.678c0.137-1.382,0.255-2.563,0.373-3.746c0.891-0.225,1.648-0.418,2.242-0.567
	c0.857-0.952,0.463-1.716,0.133-2.544c-0.845-2.117-1.633-4.259-2.405-6.402c-0.156-0.433-0.151-0.921-0.25-1.568
	c2.937,1.033,5.455,2.313,6.4,5.271c0.437,1.362,0.368,2.907,0.407,4.372C43.019,139.958,42.855,141.066,42.764,142.363z"/>
<path fill-rule="evenodd" clip-rule="evenodd" fill="#bf7512" class="fill" d="M147.518,68.758c0.08-0.494,0.161-0.994,0.252-1.552
	c-1.241-0.406-1.552,0.585-2.172,1.274c-0.47-0.073-0.991-0.154-1.655-0.258c0.174-0.621,0.307-1.103,0.451-1.622
	c-1.368-0.595-1.58,0.751-2.372,1.202c-0.209-0.105-0.459-0.23-0.776-0.391c0.557-1.651,1.696-2.454,3.181-2.852
	c1.284,0.355,2.511,0.803,3.778,1.018c2.184,0.372,4.387,0.71,6.594,0.848c1.949,0.123,3.658-0.551,4.74-2.57
	c0.94,1.094,2.125,1.464,3.4,1.214c1.451-0.286,2.905-0.658,3.801-2.054c0.521-0.814,1.059-1.658,2.281-1.692
	c0.435,1.281-0.547,2.134-0.752,3.165c-0.588,0.244-1.135,0.47-1.718,0.711c0.138,1.703,1.693,1.67,2.683,2.442
	c0.289,0.813,0.248,1.58-0.883,2.207c-0.483-0.668-0.968-1.337-1.529-2.112c-0.344,0.124-0.703,0.254-1.156,0.416
	c0.246,0.68,0.447,1.233,0.691,1.909c-0.425,0.052-0.759,0.093-1.148,0.14c-0.365-0.688-0.704-1.324-1.042-1.963
	c-1.55-0.021-0.819,1.243-1.125,1.87c-0.868-0.296-0.868-0.296-1.415-1.536c-1.166-0.343-1.034,0.705-1.243,1.238
	c-0.892,0.334-1.265-0.063-1.45-0.758c-0.139-0.521-0.122-1.161-1.165-1.066c-0.133,0.482-0.283,1.033-0.462,1.682
	c-0.309,0-0.646,0-1.021,0c-0.199-0.621-0.376-1.178-0.532-1.668c-1.615-0.424-0.817,1.294-1.756,1.663
	c-0.279-0.5-0.552-0.987-0.823-1.472c-1.103-0.277-1.059,0.759-1.485,1.373c-0.465-0.073-0.932-0.147-1.482-0.235
	c0-0.546,0-1.008,0-1.394C148.806,66.886,148.854,69.512,147.518,68.758z"/>
<path fill-rule="evenodd" clip-rule="evenodd" fill="#bf7512" class="fill" d="M116.664,62.241c-0.593,0.358-0.949,0.573-1.127,0.681
	c-3.304-1.621-6.392-3.297-9.604-4.677c-5.309-2.278-8.447-8.611-7.695-14.326c0.201-1.53,0.334-3.072,0.615-4.587
	c0.529-2.845,2.128-5.098,4.153-7.079c0.154-0.151,0.374-0.232,0.839-0.165c-0.329,0.698-0.597,1.435-0.998,2.09
	c-1.805,2.943-2.928,6.14-3.389,9.538c-0.169,1.251-0.219,2.664,0.192,3.821c1.83,5.133,4.808,9.301,10.24,11.203
	C112.214,59.552,114.462,60.541,116.664,62.241z"/>
<path fill-rule="evenodd" clip-rule="evenodd" fill="#bf7512" class="fill" d="M120.452,96.653c0.344,0.233,0.688,0.468,1.16,0.791
	c-0.994,0.558-1.09-0.173-1.415-0.476C120.281,96.863,120.368,96.759,120.452,96.653z"/>
<path fill-rule="evenodd" clip-rule="evenodd" fill="#bf7512" class="fill" d="M120.212,75.938c0.253-0.787,0.41-1.277,0.561-1.75
	c0.938-0.173,1.714-0.354,2.5-0.453c0.798-0.1,1.661-0.188,2.128,0.676c0.421,0.776,0.009,1.411-0.601,2.077
	c-0.546,0.159-1.188,0.347-2.023,0.591C122.075,76.768,121.259,76.404,120.212,75.938z M121.836,75.105
	c0.002,0.173,0.004,0.346,0.005,0.519c0.343,0.18,0.685,0.36,1.226,0.645c0.163-0.545,0.278-0.936,0.511-1.715
	C122.744,74.818,122.291,74.961,121.836,75.105z"/>
</svg>
