<svg version="1.1" id="svg" xmlns="http://www.w3.org/2000/svg" xmlns:xlink="http://www.w3.org/1999/xlink" x="0px" y="0px"
	 width="200.001px" height="200px" viewBox="0 0 200.001 200" enable-background="new 0 0 200.001 200" xml:space="preserve">
<path class="stroke" fill="#2e2e2e"  d="M134.782,68.854c-0.876-1.311-1.86-2.579-2.966-3.701c-2.918-2.963-6.323-5.321-10.092-7.03
	c-1.943-0.881-4.133-1.547-6.244-1.656c-3.28-0.167-6.261,1.106-8.586,3.495c-2.336,2.402-4.555,4.92-6.779,7.429
	c-1.953,2.201-3.844,4.458-5.763,6.69c-3.681,4.284-7.383,8.551-11.037,12.858c-2.893,3.409-5.702,6.888-8.593,10.299
	c-2.777,3.277-5.67,6.458-8.406,9.768c-2.851,3.445-5.593,6.98-8.349,10.503c-1.819,2.328-3.508,4.747-4.128,7.717
	c-0.373,1.779-0.221,3.473,0.854,5.035c3.406,4.957,7.788,8.757,13.184,11.434c2.622,1.301,5.309,2.218,8.329,2.245
	c2.848,0.134,4.073-0.179,6.555-1.879c6.111-4.186,11.39-9.335,16.297-14.814c4.155-4.638,7.853-9.683,11.825-14.487
	c3.861-4.667,7.695-9.366,11.767-13.845c3.097-3.406,6.075-6.871,8.56-10.746c2.332-3.634,4.429-7.353,4.729-11.82
	C136.111,73.744,136.313,71.146,134.782,68.854z"/>
<path fill-rule="evenodd" clip-rule="evenodd" fill="#b8b8b8" class="fill" d="M56.902,123.054c0.783-1.092,1.464-2.12,2.223-3.086
	c3.705-4.719,7.405-9.442,11.165-14.117c0.952-1.184,2.188-2.137,3.165-3.304c4.342-5.187,8.617-10.43,12.959-15.617
	c1.812-2.164,3.858-4.14,5.573-6.373c2.554-3.326,5.571-6.201,8.422-9.243c2.05-2.188,3.983-4.484,5.994-6.708
	c1.104-1.221,2.254-2.4,3.393-3.588c1.607-1.677,6.503-2.607,8.938-1.012c3.437,2.252,6.99,4.326,10.463,6.527
	c0.875,0.555,1.627,1.303,2.447,1.971c-0.17,3.019-0.771,5.766-2.257,8.217c-2.316,3.823-4.896,7.467-7.584,11.049
	c-4.208,5.604-8.455,11.164-13.117,16.396c-2.073,2.327-4.227,4.582-6.28,6.925c-4.303,4.909-8.55,9.866-12.848,14.779
	c-1.937,2.213-3.909,4.395-5.916,6.543c-2.877,3.077-4.904,3.395-8.863,2.037c-3.866-1.327-7.52-3.024-10.925-5.264
	c-2.252-1.481-4.584-2.877-6.26-5.074C57.385,123.837,57.213,123.533,56.902,123.054z M83.629,121.379
	c0.63-0.228,1.789-0.482,2.781-1.037c3.092-1.726,4.711-4.688,6.057-7.78c0.717-1.647-0.199-3.598-1.799-4.012
	c-1.76-0.456-3.674-0.354-5.004,0.869c-2.059,1.898-3.85,4.095-5.692,6.218c-0.935,1.078-1.045,2.406-0.367,3.631
	C80.331,120.584,81.581,121.223,83.629,121.379z M69.396,112.863c0.719,0.493,1.502,0.987,2.236,1.546
	c1.07,0.815,2.219,0.917,3.273,0.158c1.89-1.36,3.916-2.638,5.47-4.331c1.757-1.915,2.768-4.291,0.892-7.137
	c-0.799-0.297-1.831-0.682-2.893-1.078c-0.513,0.249-1.077,0.377-1.434,0.721c-2.11,2.036-4.195,4.1-6.24,6.202
	C69.711,109.962,69.454,111.289,69.396,112.863z M95.085,99.808c0.215,1.231,0.423,2.425,0.635,3.645
	c0.521,0.421,1.01,0.82,1.439,1.168c3.198-0.132,5.089-1.966,6.337-4.495c0.938-1.899,1.6-3.942-0.222-6.042
	c-1.39,0.438-2.81,0.887-4.08,1.287C98.163,98.015,98.163,98.015,95.085,99.808z M91.743,87.765
	c-4.561-0.173-7.023,3.385-7.852,6.042c-0.339,1.085-0.102,2.091,1.032,2.821c0.955,0.086,1.99,0.18,3.176,0.287
	c0.438-2.785,2.808-3.807,4.585-5.32c0-0.307,0.052-0.553-0.009-0.767C92.39,89.823,92.07,88.828,91.743,87.765z M84.142,98.875
	c1.065,3.747,6.365,7.351,9.612,6.668c0.281-1.021,0.584-2.128,0.775-2.822c-1.03-2.707-3.643-2.839-5.205-4.701
	C87.697,98.288,85.995,98.569,84.142,98.875z M94.236,91.121c0.955,0.443,1.988,0.841,2.937,1.384
	c1.002,0.574,1.926,1.286,2.854,1.919c1.269-0.39,2.553-0.344,3.405-1.305c-0.138-3.371-4.631-6.203-8.851-5.08
	C94.482,88.929,94.379,89.848,94.236,91.121z M97.492,94.695c-1.527-3.004-5.391-2.539-7.112-0.432
	c-0.887,1.084-0.688,2.495,0.413,3.425c1.254,1.062,2.739,1.246,4.295,1.069c1.357-0.153,2.222-1.021,2.393-2.387
	C97.547,95.854,97.492,95.323,97.492,94.695z M121.725,74.085c-0.599,0.143-1.318,0.218-1.957,0.484
	c-1.785,0.744-2.663,3.006-1.751,4.352c1.144,1.688,3.47,2.316,5.324,1.44c1.313-0.621,2.327-2.388,2.051-3.575
	C125.094,75.507,123.16,74.046,121.725,74.085z M116.128,80.861c-2.253,0.829-3.026,1.421-3.208,2.542
	c-0.309,1.914,1.29,2.588,2.395,3.645c1.712,0.143,3.443,0.273,4.619-1.356c1.194-1.653,0.197-2.961-0.854-4.362
	C118.119,81.178,117.09,81.014,116.128,80.861z M111.348,70.474c-0.192-0.74-0.369-1.421-0.545-2.102
	c-0.257-0.993-0.894-1.481-1.924-1.438c-0.586,0.025-1.191-0.023-1.756,0.105c-1.516,0.343-2.42,1.374-2.842,2.827
	c-0.401,1.385,0.624,2.016,1.519,2.687c0.37,0.279,0.779,0.506,1.083,0.701C109.924,73.229,110.389,72.941,111.348,70.474z
	 M110.311,86.802c-0.948,0.074-1.873,0.426-2.429,1.508c-0.528,1.029-0.386,1.998,0.324,2.786c0.786,0.874,1.776,1.537,3.015,1.665
	c1.438,0.149,2.726-0.51,3.4-1.734c0.795-1.444-0.002-3.498-1.553-3.855C112.221,86.975,111.338,86.934,110.311,86.802z
	 M83.118,129.595c0.92-1.443,0.95-2.965,0.192-3.911c-1.444-1.799-3.371-2.319-5.854-1.55c-0.836,0.889-0.79,1.923-0.122,2.853
	C78.733,128.935,80.652,129.84,83.118,129.595z M117.994,73.707c-0.222-0.674-0.49-1.491-0.808-2.457
	c-1.112-0.231-2.169-0.539-3.245-0.652c-1.233-0.131-2.689,0.921-3.156,2.111c-0.374,0.956,0.074,2.364,1.113,3.077
	C114.673,77.689,117.458,76.554,117.994,73.707z M107.431,83.129c-2.491-1.296-4.132-1.17-5.352,0.411
	c-0.882,1.142-0.863,2.402,0.047,3.33c1.608,1.642,3.521,2.132,4.845,1.242C108.486,87.092,108.624,85.606,107.431,83.129z
	 M94.166,82.021c0.658,0.553,1.361,1.167,2.09,1.75c0.271,0.217,0.592,0.382,0.904,0.54c1.064,0.535,2.086,0.401,2.936-0.392
	c0.796-0.741,1.358-1.642,0.991-2.822c-0.173-0.556-0.372-1.104-0.537-1.592c-1.431-0.948-3.328-1.159-4.539-0.488
	C94.894,79.636,93.945,80.399,94.166,82.021z M109.503,82.761c0.525-0.148,0.882-0.207,1.2-0.347
	c1.495-0.651,1.951-1.481,1.718-3.071c-0.287-1.963-1.034-2.862-2.624-3.031c-1.371-0.145-2.336,0.592-3.164,1.589
	c-1.037,1.247-0.952,2.566,0.364,3.493C107.76,81.931,108.64,82.298,109.503,82.761z M106.384,75.264
	c-0.863-2.297-2.512-2.82-4.481-2.583c-2.13,0.256-2.899,2.195-1.524,3.857c0.783,0.949,1.757,1.721,2.956,1.997
	C106.001,77.81,106.34,77.43,106.384,75.264z M129.013,70.827c-0.747-0.616-1.395-1.208-2.1-1.719
	c-0.998-0.724-2.169-0.88-3.352-0.719c-1.512,0.206-2.237,1.838-1.218,2.843c1.407,1.388,2.91,2.706,5.102,3.188
	c0.518-0.447,1.078-0.93,1.567-1.351C129.013,72.278,129.013,71.64,129.013,70.827z M69.944,122.587
	c1.013,1.148,2.119,1.969,3.585,2.174c1.332,0.186,2.424-0.504,2.712-1.677c0.334-1.365-0.159-2.611-1.43-3.01
	c-1.141-0.357-2.37-0.432-3.499-0.621c-0.599,0.635-1.031,1.094-1.461,1.549C69.887,121.606,69.917,122.123,69.944,122.587z
	 M69.73,119.075c-0.184-2.279-1.683-3.192-3.941-3.612c-0.694,0.353-1.561,0.793-2.338,1.188c-0.031,2.017,1.399,3.845,3.178,4.283
	C68.001,121.271,69.004,120.671,69.73,119.075z M116.271,67.075c0.455-0.459,0.895-0.901,1.286-1.295
	c-0.191-1.001-0.33-1.734-0.459-2.411c-0.924-0.552-1.695-1.108-2.541-1.5c-1.782-0.824-3.369-0.083-3.776,1.796
	C112.142,65.191,114,66.038,116.271,67.075z"/>
<path fill-rule="evenodd" clip-rule="evenodd" fill="#b8b8b8" class="fill" d="M58.34,128.114c1.249,0.745,2.504,1.477,3.742,2.236
	c2.857,1.75,5.666,3.583,8.568,5.254c3.134,1.804,6.539,2.139,10.075,1.51c1.75-0.311,3.259-1.154,4.468-2.349
	c2.17-2.145,4.228-4.412,6.244-6.706c4.076-4.641,8.126-9.31,12.128-14.016c3.05-3.583,6.012-7.24,9.007-10.869
	c3.221-3.901,6.403-7.836,9.662-11.706c3.964-4.704,7.409-9.739,10.133-15.261c0.142-0.289,0.362-0.539,0.88-0.764
	c0.026,0.606,0.211,1.258,0.05,1.809c-0.379,1.288-0.729,2.646-1.432,3.762c-3.479,5.532-7.061,10.995-11.374,15.941
	c-3.324,3.814-6.598,7.675-9.849,11.552c-3.82,4.555-7.521,9.21-11.404,13.709c-3.61,4.184-6.909,8.649-11.009,12.404
	c-2.394,2.194-4.934,4.188-7.796,5.734c-1.604,0.866-3.317,1.082-5.133,0.783c-3.09-0.509-5.774-1.946-8.418-3.499
	c-0.761-0.447-1.506-0.92-2.252-1.39C61.6,134.339,59.479,131.68,58.34,128.114z"/>
<path fill-rule="evenodd" clip-rule="evenodd" fill="#b8b8b8" class="fill" d="M81.36,117.593c0.778-1.046,1.604-2.157,2.524-3.39
	c1.143,0.738,2.185,1.413,3.333,2.155c-1.067,1.637-2.51,2.407-4.197,2.742C82.166,119.27,81.84,118.921,81.36,117.593z
	 M84.23,117.988c0.11-0.083,0.221-0.167,0.33-0.25c-0.099-0.409-0.197-0.818-0.347-1.438c-0.528,0.376-0.812,0.578-1.351,0.962
	C83.473,117.584,83.852,117.786,84.23,117.988z"/>
<path fill-rule="evenodd" clip-rule="evenodd" fill="#b8b8b8" class="fill" d="M88.293,115.339c-1.176-0.7-2.158-1.284-3.189-1.899
	c0.656-1.694,2.043-2.399,3.143-3.346c1.909,0.509,2.363,1.368,1.53,3.015C89.415,113.827,88.885,114.461,88.293,115.339z
	 M88.346,111.614c-0.861,0.051-1.413,0.161-1.323,1.104C87.992,113.081,88.424,112.844,88.346,111.614z"/>
<path fill-rule="evenodd" clip-rule="evenodd" fill="#b8b8b8" class="fill" d="M73.984,107.494c1.193,0.827,2.148,1.487,3.23,2.237
	c-0.775,1.21-1.946,2.082-3.287,2.845c-0.996-0.404-2.127-0.484-2.572-2.012C72.161,109.624,73.053,108.582,73.984,107.494z
	 M74.247,109.852c-0.646-0.066-1.202-0.108-1.462,0.703C74.008,110.774,74.008,110.774,74.247,109.852z"/>
<path fill-rule="evenodd" clip-rule="evenodd" fill="#b8b8b8" class="fill" d="M78.578,108.823c-1.268-0.715-2.37-1.337-3.467-1.956
	c1.15-2.256,2.995-3.308,4.885-2.76C80.756,105.91,79.731,107.246,78.578,108.823z M78.767,106.251c0-0.472,0-0.722,0-1.178
	c-0.492,0.152-0.854,0.264-1.217,0.376c0,0.114-0.001,0.227-0.003,0.341C77.908,105.926,78.27,106.063,78.767,106.251z"/>
<path fill-rule="evenodd" clip-rule="evenodd" fill="#b8b8b8" class="fill" d="M100.324,96.487c0.748-0.221,1.352-0.399,1.966-0.581
	c0.507,2.905-1.525,5.667-4.967,6.703c-0.235-0.679-0.474-1.366-0.734-2.117C98.398,99.633,99.842,98.574,100.324,96.487z"/>
<path fill-rule="evenodd" clip-rule="evenodd" fill="#b8b8b8" class="fill" d="M86.381,95.254c-0.277-0.103-0.63-0.233-0.956-0.354
	c0.35-2.848,2.326-5.059,5.021-5.597c0.173,0.36,0.361,0.751,0.426,0.884C89.334,91.921,87.951,93.482,86.381,95.254z"/>
<path fill-rule="evenodd" clip-rule="evenodd" fill="#b8b8b8" class="fill" d="M91.793,103.071c-2.73,0.198-4.231-1.122-5.621-3.234
	c0.859-0.208,1.541-0.372,2.098-0.506c1.309,0.804,2.451,1.507,3.734,2.296C91.94,102.062,91.87,102.542,91.793,103.071z"/>
<path fill-rule="evenodd" clip-rule="evenodd" fill="#b8b8b8" class="fill" d="M95.949,89.315c2.812-0.11,4.059,0.475,5.316,2.419
	c-0.539,0.224-1.048,0.437-1.684,0.702C98.596,91.223,96.574,91.308,95.949,89.315z"/>
<path fill-rule="evenodd" clip-rule="evenodd" fill="#b8b8b8" class="fill" d="M95.568,94.478c0.037,0.467,0.072,0.917,0.107,1.345
	c-1.182,1.377-2.578,0.905-3.933,0.729c-0.708-0.941-0.158-1.549,0.446-2.148C93.24,93.364,94.304,93.698,95.568,94.478z"/>
<path fill-rule="evenodd" clip-rule="evenodd" fill="#b8b8b8" class="fill" d="M121.209,79.401c-0.699-0.426-1.409-0.858-2.363-1.438
	c0.731-1.007,1.289-1.777,1.749-2.412c1.733-0.177,2.512,0.113,2.782,0.918C123.688,77.398,122.995,78.414,121.209,79.401z"/>
<path fill-rule="evenodd" clip-rule="evenodd" fill="#b8b8b8" class="fill" d="M116.102,85.641c-0.534-0.414-1.098-0.852-1.596-1.237
	c0.48-1.837,1.396-2.421,3.241-2.246C118.826,83.634,118.44,84.609,116.102,85.641z"/>
<path fill-rule="evenodd" clip-rule="evenodd" fill="#b8b8b8" class="fill" d="M105.801,70.591c0.758-2.147,1.49-2.662,3.24-2.352
	c0.514,1.411,0.345,2.344-0.531,2.934C107.711,71.712,107.044,71.581,105.801,70.591z"/>
<path fill-rule="evenodd" clip-rule="evenodd" fill="#b8b8b8" class="fill" d="M112.881,88.642c-0.101,1.634-0.45,2.19-1.413,2.338
	c-0.913,0.14-1.825-0.241-2.113-0.913c-0.295-0.687-0.062-1.252,0.47-1.723C110.66,87.605,111.486,87.672,112.881,88.642z"/>
<path fill-rule="evenodd" clip-rule="evenodd" fill="#b8b8b8" class="fill" d="M78.666,125.215c1.811-0.583,2.851,0.287,2.599,2.17
	C79.408,127.443,78.607,126.775,78.666,125.215z"/>
<path fill-rule="evenodd" clip-rule="evenodd" fill="#b8b8b8" class="fill" d="M115.855,72.528c0.486,1.08,0.084,1.804-0.619,2.436
	c-1.825,0.409-2.246,0.207-2.989-1.424C113.252,71.632,114.059,71.395,115.855,72.528z"/>
<path fill-rule="evenodd" clip-rule="evenodd" fill="#b8b8b8" class="fill" d="M102.84,85.279c0.435-0.625,0.821-1.184,1.3-1.872
	c0.772,0.18,1.476,0.346,2.096,0.491c0.308,1.506,0.024,2.308-0.844,2.712C104.562,86.996,103.936,86.698,102.84,85.279z"/>
<path fill-rule="evenodd" clip-rule="evenodd" fill="#b8b8b8" class="fill" d="M99.365,80.549c-0.518,1.815-0.646,1.912-2.656,1.891
	c-0.275-0.305-0.617-0.681-1.142-1.261c0.642-0.521,1.139-1.121,1.772-1.386C98.124,79.467,98.973,79.55,99.365,80.549z"/>
<path fill-rule="evenodd" clip-rule="evenodd" fill="#b8b8b8" class="fill" d="M107.494,79.357c0.715-0.811,1.067-1.972,2.572-1.677
	c0.242,0.624,0.488,1.259,0.717,1.852C109.533,81.295,108.465,81.264,107.494,79.357z"/>
<path fill-rule="evenodd" clip-rule="evenodd" fill="#b8b8b8" class="fill" d="M102.333,76.586c-0.393-0.491-0.835-1.044-1.396-1.747
	c0.642-0.514,1.11-0.889,1.606-1.287c0.644,0.281,1.165,0.509,1.639,0.715C104.193,75.891,104.095,76.019,102.333,76.586z"/>
<path fill-rule="evenodd" clip-rule="evenodd" fill="#b8b8b8" class="fill" d="M127.534,71.553c-0.312,0.348-0.56,0.624-0.948,1.059
	c-1.085-0.772-2.102-1.496-3.129-2.226C124.556,69.116,125.64,69.419,127.534,71.553z"/>
<path fill-rule="evenodd" clip-rule="evenodd" fill="#b8b8b8" class="fill" d="M71.356,121.692c1.283-1.292,2.081-1.227,3.369,0.107
	c-0.06,0.178-0.118,0.396-0.202,0.604c-0.089,0.223-0.201,0.438-0.384,0.824C73.054,122.628,72.239,122.179,71.356,121.692z"/>
<path fill-rule="evenodd" clip-rule="evenodd" fill="#b8b8b8" class="fill" d="M65.191,117.039c2.278-0.248,2.911,0.259,2.402,1.788
	C65.669,118.8,65.182,118.454,65.191,117.039z"/>
<path fill-rule="evenodd" clip-rule="evenodd" fill="#b8b8b8" class="fill" d="M115.784,63.905c-0.137,0.371-0.212,0.577-0.36,0.977
	c-1.023-0.462-1.978-0.893-3.176-1.434C113.748,62.444,114.631,63.371,115.784,63.905z"/>
</svg>
