<svg version="1.1" xmlns="http://www.w3.org/2000/svg" xmlns:xlink="http://www.w3.org/1999/xlink" x="0px" y="0px" width="200px"
	 height="200px" viewBox="0 0 200 200" enable-background="new 0 0 200 200" xml:space="preserve">
<g id="svg">
	<path class="stroke" fill="#531863"  d="M170.578,25.696c-0.451-0.238-0.929-0.487-1.328-0.696c-1.396,0.056-2.21,0.747-2.75,1.899
		c0.07,0.465,0.14,0.941,0.208,1.401c-3.21,3.441-6.381,6.836-9.556,10.236c-2.961-1.059-5.898-1.041-8.836-0.292
		c-1.196,0.304-2.345,0.784-3.53,1.132c-6.697,1.967-12.894,5.057-18.965,8.425c-2.769,1.538-5.503,3.141-8.23,4.753
		c-2.516,1.49-5.082,2.914-7.479,4.577c-4.352,3.018-8.624,6.156-12.867,9.325c-1.38,1.032-2.605,2.285-3.836,3.503
		c-1.192,1.181-2.298,2.446-3.401,3.631c-7.619,0.226-14.931,1.555-22.095,4.083c-0.1-0.479-0.188-0.895-0.263-1.248
		c2.224-2.599,4.377-5.113,6.654-7.774c-0.145-0.409-0.334-0.934-0.565-1.582c-0.446,0.169-0.815,0.209-1.033,0.411
		c-0.685,0.641-1.337,1.321-1.959,2.022c-1.65,1.859-3.46,3.529-5.436,4.865c-2.634-0.068-3.209,0.071-4.965,1.701
		c-3.159,2.93-6.27,5.911-9.378,8.896c-1.072,1.029-2.076,2.128-3.104,3.203c-2.018,2.108-4.047,4.207-6.043,6.337
		c-1.389,1.481-2.749,2.989-4.074,4.528c-0.476,0.552-0.899,1.188-1.181,1.854c-0.817,1.931,0.096,3.665,2.164,3.756
		c2.285,0.101,4.555-0.26,6.402-1.861c1.855-1.608,3.98-2.768,6.238-3.685c1.697-0.69,3.462-1.226,5.129-1.98
		c2.827-1.276,5.795-1.595,8.839-1.622c2.51-0.022,4.89,0.644,7.277,1.294c0.801,0.218,1.617,0.37,2.497,0.568
		c0.136,1.746-0.621,3.142-1.073,4.528c-2.858,0.94-3.373,2.081-2.142,4.351c0.556,0.368,1.068,0.707,1.782,1.18
		c-0.71,0.427-1.184,0.774-1.707,1.016c-2.428,1.115-4.874,2.193-7.305,3.303c-0.737,0.337-1.594,0.533-2.004,1.321
		c0.295,0.493,0.538,0.903,0.828,1.386c-1.011,1.026-2.105,1.753-3.41,2.132c-4.458,1.294-8.071,3.691-10.31,7.877
		c-0.302,0.563-0.866,1.15-0.245,1.961c1.53,0.025,2.649-1.48,4.489-1.276c-0.162,0.474-0.181,0.957-0.434,1.195
		c-1.358,1.282-2.624,2.668-4.508,3.295c-1.779,0.592-3.503,1.36-5.222,2.121c-1.142,0.507-1.958,1.394-2.628,2.641
		c0.476,0.142,0.799,0.344,1.088,0.303c0.828-0.115,1.65-0.294,2.458-0.512c1.1-0.296,2.185-0.661,3.667-0.685
		c-0.708,0.705-1.152,1.159-1.608,1.601c-2.551,2.465-4.275,5.416-5.244,8.826c-0.137,0.487-0.216,0.856,0.344,1.16
		c1.497,0.002,2.348-1.545,3.955-1.783c-1.246,5.756-4.661,9.632-9.59,12.493c1.689,0.944,3.409,0.135,5.169,0.292
		c-0.205,0.382-0.366,0.673-0.521,0.968c-1.236,2.384-2.376,4.797-2.461,7.56c-0.032,0.991-0.072,1.989-0.227,2.964
		c-0.262,1.658-0.006,3.265,0.345,4.865c0.07,0.322,0.347,0.597,0.536,0.906c1.096-0.523,1.068-1.499,1.351-2.236
		c0.947-2.465,1.841-4.933,4.194-6.479c0.159-0.105,0.246-0.315,0.396-0.441c1.163-0.976,2.256-2.049,3.744-2.795
		c-0.244,2.593-1.773,4.529-2.764,6.796c0.447,0.043,0.679,0.142,0.817,0.067c1.738-0.935,3.491-1.846,5.182-2.862
		c3.003-1.803,5.006-4.527,6.654-7.781c0.69,2.448-0.637,4.321-1.021,6.282c0.734,0.54,1.161,0.124,1.581-0.199
		c1.102-0.843,2.234-1.653,3.271-2.571c1.8-1.597,3.855-2.99,4.705-5.418c0.063-0.182,0.136-0.361,0.206-0.542
		c0.475,1.758,0.628,3.229,0.831,4.695c0.166,1.209,0.688,2.264,1.529,3.16c0.365,0.388,0.732,0.661,1.375,0.264
		c-0.149-4.746,2.092-8.648,4.595-12.59c1.236,2.07-0.108,3.878-0.262,5.76c1.064,0.372,1.645-0.098,2.069-0.824
		c1.356-2.313,2.619-4.667,3.045-7.369c0.057-0.362,0.211-0.707,0.357-1.178c0.894,0.826,1.673,1.543,2.465,2.272
		c0.375-0.284,0.603-0.457,0.809-0.613c0.061-4.961,2.651-8.531,6.083-11.718c0.451,0.204,0.877,0.398,1.449,0.655
		c2.157-3.512,3.132-7.506,5.097-11.042c0.579,0.296,1.042,0.579,1.538,0.776c2.093,0.831,3.598,0.053,4.161-2.142
		c0.109-0.429,0.131-0.881,0.206-1.32c0.055-0.319,0.13-0.636,0.203-0.98c1.803,0.881,2.155,1.256,2.837,2.742
		c1.02,2.218,1.263,4.557,1.206,6.964c-0.113,4.675-1.394,9.092-2.973,13.432c-0.875,2.403-1.674,4.872-3.749,6.628
		c-0.391,0.331-0.614,0.898-0.823,1.394c-0.512,1.219-0.132,2.734,1.013,3.398c1.834,1.064,4.287,1.996,6.443-0.41
		c2.342-2.615,4.561-5.357,7.234-7.665c0.147-0.127,0.243-0.312,0.377-0.457c1.375-1.495,2.736-3.002,4.133-4.475
		c1.909-2.011,3.86-3.982,5.765-5.995c1.157-1.222,2.29-2.469,3.385-3.748c0.997-1.163,1.949-2.366,2.882-3.582
		c1.145-1.492,1.703-3.057,0.204-4.759c0.532-0.577,0.984-1.09,1.463-1.579c1.04-1.06,2.104-2.098,3.134-3.17
		c0.253-0.264,0.407-0.622,0.678-1.048c-0.569-0.275-0.995-0.481-1.515-0.733c-2.194,1.559-3.748,3.701-5.591,5.475
		c-0.52-0.017-0.964-0.031-1.408-0.048c-0.429-0.017-0.857-0.037-1.344-0.059c0.975-5.525,2.28-10.914,0.447-16.331
		c0.293-0.315,0.486-0.535,0.691-0.744c2.566-2.619,5.222-5.156,7.675-7.875c2.188-2.424,4.229-4.991,6.191-7.604
		c1.571-2.094,2.931-4.345,4.369-6.535c0.542-0.824,1.105-1.643,1.546-2.521c1.224-2.432,2.397-4.889,3.575-7.344
		c3.263-6.798,6.362-13.677,7.949-21.086c0.618-2.883,0.799-5.889,0.889-8.847c0.069-2.299-0.312-4.612-0.52-7.25
		c2.893-3.193,6.013-6.635,9.091-10.029c0.548-0.014,0.987-0.025,1.449-0.035C170.726,28.136,171.189,27.102,170.578,25.696z"/>
	<path fill-rule="evenodd" clip-rule="evenodd" fill="#faae19" class="fill" d="M104.252,110.002c-3.721-4.327-7.68-8.183-12.25-11.496
		c4.199-8.509,10.169-15.611,16.404-22.928c0.068,0.619,0.136,0.923,0.129,1.224c-0.106,4.513,1.902,7.79,5.83,9.922
		c4.546,2.468,9.299,2.893,14.216,1.307c2.154-0.695,3.808-2.202,5.152-3.89c2.521-3.166,4.001-6.801,4.077-10.936
		c0.115-6.284-3.001-10.157-9.336-11.766c-1.051-0.267-2.115-0.478-3.409-0.768c0.374-0.367,0.587-0.693,0.888-0.853
		c3.714-1.977,7.422-3.96,11.168-5.873c1.582-0.806,3.247-1.449,4.879-2.158c0.314-0.137,0.645-0.234,1.068-0.385
		c4.239,2.558,7.671,5.984,10.677,10.041c-1.389,3.605-2.693,7.183-4.145,10.702c-1.907,4.626-3.89,9.233-6.627,13.44
		c-1.941,2.983-4.096,5.827-6.173,8.723c-0.948,1.32-1.856,2.682-2.927,3.896c-1.438,1.63-2.999,3.151-4.537,4.689
		c-0.98,0.979-2.087,1.841-3.013,2.867c-2.621,2.907-5.749,5.153-9.062,7.174c-1.776,1.084-3.564,2.152-5.36,3.201
		c-0.548,0.322-1.144,0.56-1.848,0.898c-0.51-0.648-0.986-1.251-1.576-2.001c0.625-0.405,1.141-0.75,1.669-1.078
		c5.55-3.459,11.081-6.948,15.829-11.51c5.268-5.062,10.038-10.519,13.827-16.815c1.938-3.224,4.113-6.3,5.643-9.766
		c1.864-4.229,3.238-8.618,4.381-13.084c0.125-0.489,0.039-1.033,0.055-1.777c-0.89,0.059-1.588,0.106-2.21,0.147
		C139.372,82.994,125.25,99.388,104.252,110.002z"/>
	<path fill-rule="evenodd" clip-rule="evenodd" fill="#faae19" class="fill" d="M39.886,168.534c-0.922-3.131,2.107-10.338,6.037-14.271
		c0.034-0.353,0.066-0.68,0.118-1.223c-2.154,0.741-4.097,1.7-6.268,1.918c4.774-3.428,7.689-8.021,9.059-13.765
		c-1.773-0.788-3.191,0.567-4.823,0.552c1.238-3.324,3.33-5.841,6.256-7.703c0.588-0.374,1.412-0.623,1.41-1.701
		c-1.445-0.681-3.018-0.583-4.672-0.744c0.304-0.115,0.598-0.271,0.912-0.339c3.736-0.826,6.184-3.382,8.385-6.253
		c0.473-0.617,0.415-0.804,0.044-1.809c-1.253-0.472-2.362,0.246-3.6,0.47c0.574-0.774,1.155-1.527,2.058-1.896
		c1.875-0.763,3.747-1.543,5.661-2.198c1.947-0.667,3.782-1.459,5.154-3.069c0.089-0.105,0.246-0.152,0.469-0.283
		c1.152,0.953,2.317,1.917,3.544,2.932c-2.302,2.981-5.425,4.287-8.75,5.35c0.498,1.354,1.794,1.093,2.708,1.747
		c-0.856,0.951-1.719,1.881-2.553,2.835c-1.385,1.581-2.321,3.358-2.949,5.408c-0.861,2.812-2.212,5.424-4.986,6.938
		c-0.191,0.105-0.325,0.315-0.543,0.534c1.258,1.146,2.497,0.08,3.912,0.149c-0.353,0.474-0.589,0.87-0.898,1.196
		c-0.97,1.018-1.704,2.144-2.196,3.485c-0.561,1.527-1.376,2.958-1.989,4.468c-0.352,0.865-0.565,1.796-0.749,2.715
		c-0.088,0.438,0.037,0.918,0.071,1.45c0.425-0.063,0.662-0.098,1.037-0.154c1.427-4.262,4.774-7.043,8.065-9.81
		c1.206-1.014,2.467-2.163,4.159-2.487c0.245,1.757,0.018,2.539-2.025,6.951c0.335,0.069,0.665,0.236,0.927,0.165
		c0.417-0.115,0.84-0.33,1.173-0.607c1.478-1.239,3.156-2.334,4.321-3.826c1.381-1.764,2.813-3.589,3.456-5.837
		c0.099-0.35,0.298-0.673,0.588-0.979c0.279,1.302,0.39,2.572-0.052,3.902c0.263,0.211,0.513,0.411,0.715,0.574
		c1.004-0.254,1.131-1.056,1.318-1.749c0.399-1.478,0.667-2.994,1.099-4.463c0.271-0.934,0.738-1.811,1.215-2.947
		c0.661,1.421,0.552,2.836,1.398,3.847c0.917-0.056,0.886-0.722,0.991-1.286c0.292-1.567,0.603-3.136,1.799-4.312
		c0.657-0.646,1.393-1.213,2.161-1.875c1.852,1.573,3.579,3.04,5.408,4.593c-0.377,0.256-0.638,0.45-0.916,0.617
		c-1.999,1.2-2.965,3.145-3.709,5.22c-0.4,1.114-0.632,2.29-0.955,3.435c-0.129,0.456-0.299,0.901-0.449,1.351
		c-0.103-0.019-0.206-0.036-0.31-0.055c0.08-0.832,0.16-1.666,0.238-2.48c-1.381-0.227-2.021,0.019-2.394,1.069
		c-0.611,1.723-1.103,3.489-1.648,5.235c-0.144,0.459-0.309,0.913-0.464,1.37c-0.106,0.011-0.213,0.022-0.32,0.034
		c-0.513-1.434-1.026-2.869-1.553-4.334c-0.449,0.031-0.775,0.053-1.258,0.086c-0.381,1.233-0.685,2.482-1.155,3.666
		c-0.656,1.65-1.469,3.239-2.153,4.879c-0.599,1.437-1.112,2.908-1.687,4.427c-0.941-2.159-0.062-4.822-1.554-6.743
		c-0.92-0.236-1.11,0.297-1.334,0.812c-0.414,0.952-0.711,1.99-1.297,2.824c-1.341,1.906-3.159,3.336-5.3,4.931
		c0.92-3.386,1.466-6.417-0.88-9.258c-0.25,0.283-0.54,0.459-0.585,0.686c-0.322,1.598-1.139,2.961-2.043,4.261
		c-1.386,1.992-2.759,4.008-4.323,5.856c-0.967,1.143-2.277,1.997-3.434,2.981c-0.096-0.062-0.194-0.123-0.29-0.184
		c0.371-1.015,0.795-2.015,1.096-3.049c0.298-1.023,0.61-2.075,0.22-3.255c-2.562,0.335-4.447,1.792-6.021,3.554
		C42.461,164.765,41.222,166.724,39.886,168.534z"/>
	<path fill-rule="evenodd" clip-rule="evenodd" fill="#faae19" class="fill" d="M53.649,149.459c1.005-4.209,4.136-6.709,6.818-9.808
		c-1.877-0.617-2.794,1.367-4.411,1.04c0.548-0.82,1.118-1.549,1.55-2.353c0.604-1.127,1.284-2.263,1.616-3.481
		c0.765-2.787,2.311-5.018,4.4-6.924c0.727-0.663,1.534-1.234,2.276-1.88c0.195-0.169,0.284-0.46,0.504-0.84
		c-0.979-0.093-1.79-0.171-2.599-0.25c2.31-1.538,4.858-2.62,6.636-4.946c4.096,3.011,7.681,6.468,11.392,9.599
		c-1.093,1.143-2.138,2.234-3.199,3.343c-0.006-0.427-0.01-0.89-0.017-1.429c-0.347-0.102-0.652-0.194-0.937-0.277
		c-1.949,1.781-2.92,4.04-3.751,6.535c-0.676-0.905-0.313-2.291-1.816-2.625c-0.138,0.417-0.311,0.8-0.393,1.202
		c-0.635,3.127-2.054,5.888-4.052,8.331c-0.767,0.939-1.805,1.656-2.876,2.403c0.177-1.996,0.683-3.888,1.436-6.031
		c-0.696,0.095-1.175,0.068-1.579,0.229c-2.742,1.097-5.147,2.729-7.312,4.727C56.151,147.117,54.975,148.222,53.649,149.459z"/>
	<path fill-rule="evenodd" clip-rule="evenodd" fill="#faae19" class="fill" d="M80.581,92.477c1.222,0.734,2.186,1.315,3.229,1.942
		c-0.193,0.568-0.333,1.029-0.506,1.48c-0.916,2.402-1.82,4.811-2.778,7.196c-0.191,0.476-0.598,0.864-0.905,1.294
		c-0.163,0.23-0.323,0.462-0.54,0.771c2.648,1.725,4.796,4.025,7.823,5.369c1.485-3.618,2.647-7.232,4.535-10.734
		c4.176,3.218,8.032,6.496,11.261,10.814c-3.374,1.404-6.594,2.745-10,4.163c0.4,0.603,0.707,1.144,1.086,1.626
		c2.226,2.816,4.717,3.383,7.96,1.834c1.736-0.83,3.474-1.662,5.325-2.548c0.495,0.67,0.953,1.29,1.464,1.98
		c-2.933,1.435-5.758,2.815-8.63,4.221c0.253,1.236,0.823,2.422,0.075,3.575c-0.781,0.287-1.267-0.121-1.757-0.568
		c-1.312-1.2-2.6-2.431-3.963-3.573c-4.666-3.912-9.342-7.81-14.047-11.674c-1.796-1.474-3.684-2.837-5.521-4.259
		c-0.3-0.232-0.565-0.508-1.019-0.92c0.941-0.537,1.733-0.988,2.593-1.479C77.406,99.479,78.847,96.03,80.581,92.477z"/>
	<path fill-rule="evenodd" clip-rule="evenodd" fill="#faae19" class="fill" d="M73.895,93.972c-5.768-1.448-11.47-1.031-17.406,0.32
		c1.389-1.947,2.5-3.757,3.86-5.355c2.111-2.482,4.417-4.795,6.586-7.227c0.816-0.915,1.913-1.241,2.966-1.599
		c3.368-1.14,6.734-2.333,10.309-2.671c1.557-0.146,3.119-0.208,5.076-0.334c-1.419,1.954-2.599,3.629-3.831,5.262
		c-1.46,1.934-3.037,3.784-4.422,5.769c-0.87,1.247-1.485,2.671-2.208,4.02C74.526,92.716,74.245,93.284,73.895,93.972z"/>
	<path fill-rule="evenodd" clip-rule="evenodd" fill="#faae19" class="fill" d="M133.901,46.229c1.16,0.567,2.168,1.06,3.49,1.707
		c-1.428,0.68-2.531,1.271-3.686,1.74c-7.829,3.185-15.169,7.31-22.313,11.776c-4.421,2.764-8.401,6.14-11.894,10.019
		c-4.946,5.489-9.542,11.25-12.976,17.852c-0.655,1.26-1.441,2.453-2.232,3.789c-1.038-0.585-2.052-1.157-3.131-1.766
		c0.205-0.489,0.32-0.859,0.505-1.192c1.469-2.637,2.909-5.291,4.439-7.893c1.927-3.28,4.702-5.868,7.288-8.595
		c3.206-3.383,6.787-6.355,10.35-9.358c4.272-3.603,8.974-6.504,13.827-9.204c4.975-2.769,9.953-5.53,14.936-8.283
		C132.933,46.585,133.407,46.436,133.901,46.229z"/>
	<path fill-rule="evenodd" clip-rule="evenodd" fill="#faae19" class="fill" d="M138.699,47.231c-1.01-0.527-2.048-1.069-3.211-1.677
		c0.365-0.251,0.579-0.469,0.836-0.565c2.221-0.835,4.435-1.692,6.68-2.455c2.059-0.701,4.161-1.271,6.231-1.938
		c1.621-0.521,3.273-0.768,4.968-0.705c2.329,0.086,3.844,1.64,3.616,3.952c-0.246,2.508-0.582,5.022-1.125,7.479
		c-0.564,2.55-1.423,5.036-2.158,7.549c-0.052,0.178-0.145,0.345-0.304,0.717c-1.571-1.654-2.974-3.292-4.546-4.743
		c-1.582-1.461-3.335-2.736-5.175-4.223c2.184-0.923,4.223-1.922,6.713-2.128c0.002,0.723,0.003,1.245,0.006,1.804
		c0.318,0.683,0.73,1.263,1.806,1.141c0.197-0.532,0.449-1.112,0.626-1.713c0.265-0.901,0.504-1.812,0.707-2.73
		c0.343-1.555-0.214-2.693-1.748-3.083c-1.124-0.287-2.368-0.437-3.503-0.271c-2.299,0.333-4.526,1.01-6.638,2.048
		C141.287,46.278,140.017,46.702,138.699,47.231z"/>
	<path fill-rule="evenodd" clip-rule="evenodd" fill="#faae19" class="fill" d="M103.237,154.501c-0.143-0.614-0.242-1.037-0.371-1.593
		c0.679-0.961,1.305-2.038,2.111-2.955c4.246-4.831,8.452-9.702,12.843-14.396c2.393-2.558,5.121-4.802,7.712-7.173
		c0.325-0.297,0.702-0.557,1.097-0.749c0.83-0.403,1.482-0.296,1.875,0.26c0.44,0.625,0.28,1.207-0.168,1.763
		c-0.867,1.077-1.672,2.208-2.6,3.23c-3.193,3.519-6.448,6.981-9.636,10.503c-1.825,2.019-3.53,4.143-5.361,6.156
		c-1.163,1.28-2.457,2.441-3.688,3.659C106.024,154.223,104.725,154.374,103.237,154.501z"/>
	<path fill-rule="evenodd" clip-rule="evenodd" fill="#faae19" class="fill" d="M123.873,122.366c-0.121,1.255-0.108,2.26-0.344,3.202
		c-0.171,0.682-0.561,1.383-1.038,1.904c-3.643,3.975-7.322,7.917-11.012,11.848c-1.041,1.11-2.157,2.148-3.373,3.158
		c1.224-4.94,2.369-9.847,1.691-15.04C114.363,125.451,118.875,123.498,123.873,122.366z"/>
	<path fill-rule="evenodd" clip-rule="evenodd" fill="#faae19" class="fill" d="M40.089,101.746c-0.543-1-0.246-1.517,0.19-2.053
		c1.589-1.956,3.117-3.962,4.738-5.891c1.239-1.475,2.572-2.87,3.884-4.283c1.508-1.623,3.017-3.246,4.57-4.822
		c0.69-0.703,1.478-1.312,2.241-1.938c2.378-1.943,4.759-3.88,7.153-5.801c0.506-0.407,1.072-0.744,1.888-0.388
		c0.202,0.453,0.44,0.987,0.754,1.692c-0.458,0.648-0.844,1.407-1.417,1.976c-2.532,2.512-5.111,4.975-7.682,7.443
		c-3.215,3.085-6.411,6.189-9.672,9.225c-1.48,1.38-3.065,2.652-4.665,3.895C41.522,101.229,40.789,101.423,40.089,101.746z"/>
	<path fill-rule="evenodd" clip-rule="evenodd" fill="#faae19" class="fill" d="M110.464,73.913c0.634-4.048,2.084-7.625,5.692-9.969
		c1.69-1.1,3.561-1.667,5.553-1.906c3.396-0.408,6.625,0.261,9.653,1.711c3.499,1.674,5.211,4.665,5.306,8.464
		c0.15,5.956-2.72,10.29-7.682,13.32c-1.478,0.903-3.236,0.96-4.91,0.871c-4.801-0.262-8.896-2.111-12.128-5.733
		c-1.188-1.332-1.482-2.985-1.577-4.684C110.331,75.3,110.429,74.604,110.464,73.913z M122.079,84.365
		c1.969,0.392,3.934,0.135,5.86-0.37c0.695-0.183,1.404-0.525,1.965-0.973c3.52-2.805,4.814-6.676,4.937-10.989
		c0.063-2.202-0.671-4.232-2.506-5.635c-4.482-3.425-9.4-3.823-14.604-1.96c-0.228,0.082-0.451,0.225-0.627,0.389
		c-3.157,2.963-5.262,6.378-5.016,10.943c0.146,2.672,1.219,4.764,3.335,6.321C117.385,83.536,119.586,84.361,122.079,84.365z"/>
	<path fill-rule="evenodd" clip-rule="evenodd" fill="#faae19" class="fill" d="M73.596,113.825c0.564-0.229,0.87-0.352,1.154-0.466
		c5.172,3.911,10.292,7.783,15.52,11.737c-0.244,0.651-0.454,1.21-0.756,2.018C84.315,122.445,78.525,118.873,73.596,113.825z"/>
	<path fill-rule="evenodd" clip-rule="evenodd" fill="#faae19" class="fill" d="M68.271,116.319c0.397-0.179,0.569-0.27,0.748-0.334
		c0.182-0.066,0.373-0.105,0.506-0.142c6.057,4.977,12.06,9.907,18.108,14.875c-0.144,0.482-0.264,0.88-0.463,1.546
		C80.821,126.908,74.629,121.684,68.271,116.319z"/>
	<path fill-rule="evenodd" clip-rule="evenodd" fill="#faae19" class="fill" d="M71.051,115.211c0.454-0.284,0.775-0.485,0.986-0.62
		c5.677,4.608,11.27,9.146,16.925,13.736c-0.175,0.393-0.328,0.73-0.554,1.236C82.573,124.768,76.655,120.28,71.051,115.211z"/>
	<path fill-rule="evenodd" clip-rule="evenodd" fill="#faae19" class="fill" d="M76.502,112.902c0.796-0.155,1.253-0.244,1.778-0.346
		c4.098,3,8.201,6.001,11.941,9.465c0.421,0.392,0.758,0.804,0.192,1.541C85.983,119.913,81.161,116.793,76.502,112.902z"/>
	<path fill-rule="evenodd" clip-rule="evenodd" fill="#faae19" class="fill" d="M169.907,26.624c-0.206,0.479-0.37,0.86-0.586,1.363
		c-0.547-0.137-1.029-0.257-1.514-0.378C168.197,26.165,168.457,26.04,169.907,26.624z"/>
	<path fill-rule="evenodd" clip-rule="evenodd" fill="#faae19" class="fill" d="M126.93,68.851c-3.427-1.288-6.473-0.922-9.14,2.063
		c0.197-1.345,0.817-2.138,1.502-2.881c1.643-1.781,4.882-2.293,6.974-1.121C127.146,67.404,127.261,67.671,126.93,68.851z"/>
</g>
<g id="Layer_2" display="none">
</g>
</svg>
