<svg version="1.1" id="svg" xmlns="http://www.w3.org/2000/svg" xmlns:xlink="http://www.w3.org/1999/xlink" x="0px" y="0px"
	 width="200px" height="200px" viewBox="0 0 200 200" enable-background="new 0 0 200 200" xml:space="preserve">
<path class="stroke" fill="#1d4442"  d="M148.216,75.377c-5.176-3.929-10.21-8.369-14.394-13.402c-1.64-0.342-2.646,0.178-3.489,0.914
	c-2.407,2.095-5.042,3.851-7.7,5.606c-5.615,3.71-11.065,7.671-16.706,11.344c-8.041,5.236-15.993,10.594-23.812,16.159
	c-3.886,2.766-7.871,5.393-11.823,8.066c-2.369,1.604-4.771,3.159-7.138,4.768c-2.146,1.458-4.308,2.898-6.371,4.467
	c-1.095,0.832-2.477,1.41-3.06,2.751c0.692,2.138,12.684,15.476,15.159,16.89c0.162-0.062,0.38-0.101,0.548-0.213
	c5.421-3.621,10.81-7.291,16.263-10.861c3.857-2.526,7.805-4.913,11.703-7.375c1.166-0.736,2.312-1.5,3.447-2.282
	c2.443-1.683,4.858-3.405,7.31-5.074c2.894-1.97,5.835-3.868,8.716-5.856c3.049-2.105,5.986-4.376,9.088-6.395
	c2.891-1.881,5.799-3.708,8.485-5.887c1.807-1.466,3.787-2.718,5.695-4.057c2.385-1.673,4.839-3.255,7.144-5.032
	C149.07,78.529,149.129,77.826,148.216,75.377z"/>
<path fill-rule="evenodd" clip-rule="evenodd" fill="#fef158" class="fill" d="M147.26,76.476c-1.788,1.344-3.279,2.512-4.819,3.613
	c-3.452,2.468-6.928,4.899-10.39,7.35c-2.639,1.868-5.27,3.748-7.908,5.614c-4.455,3.149-8.926,6.274-13.367,9.441
	c-3.838,2.738-7.872,5.156-11.894,7.612c-5.465,3.338-10.771,6.938-16.125,10.455c-2.389,1.568-4.74,3.194-7.088,4.822
	c-0.825,0.572-1.574,1.252-2.388,1.844c-1.271,0.926-2.566,1.819-3.938,2.788c-4.729-4.536-8.444-9.708-12.806-14.572
	c0.981-0.699,1.907-1.359,2.899-2.066c1.456,1.364,2.802,2.625,4.258,3.989c0.298-0.118,0.643-0.255,1.311-0.52
	c-1.527-1.502-2.854-2.808-4.327-4.258c1.784-1.219,3.372-2.304,5.249-3.587c0.539,0.695,1.02,1.312,1.556,2.003
	c0.277-0.086,0.546-0.17,1.035-0.322c-0.548-0.803-1.01-1.479-1.534-2.246c1.49-1.583,3.268-2.755,5.261-3.678
	c1.71,1.312,2.95,3.077,4.867,4.323c0.169-0.548,0.269-0.872,0.39-1.263c-1.28-1.228-2.536-2.434-3.955-3.794
	c1.752-1.166,3.365-2.239,4.848-3.227c1.331-0.001,1.612,2.135,3.393,1.172c-0.638-0.705-1.187-1.311-1.898-2.096
	c1.655-1.177,3.258-2.315,4.942-3.513c1.722,1.547,3.329,2.992,5.036,4.525c0.314-0.132,0.669-0.281,1.31-0.549
	c-1.751-1.616-3.325-3.069-4.972-4.589c1.623-1.9,3.665-3.149,5.735-4.505c0.871,0.765,1.659,1.456,2.548,2.237
	c0.23-0.341,0.412-0.611,0.743-1.099c-0.793-0.589-1.552-1.154-2.553-1.9c2.157-1.51,3.985-2.792,5.79-4.056
	c2.076,1.361,3.451,3.293,5.404,4.529c0.753-0.924,0.232-1.428-0.277-1.895c-1.17-1.071-2.362-2.117-3.672-3.288
	c1.603-1.069,3.118-2.082,4.813-3.214c0.582,0.531,1.173,1.109,1.808,1.637c0.555,0.463,1.149,0.994,1.906,0.128
	c-0.796-0.837-1.544-1.624-2.404-2.528c2.352-1.615,4.532-3.112,6.68-4.587c2.393,1.146,3.512,3.705,5.774,4.886
	c0.751-0.835,0.29-1.239-0.197-1.709c-1.256-1.213-2.475-2.463-3.702-3.706c-0.066-0.066-0.066-0.196-0.122-0.379
	c1.771-1.196,3.562-2.406,5.336-3.604c1.065,0.68,2.104,1.348,3.156,1.992c0.04,0.025,0.222-0.181,0.508-0.422
	c-0.78-0.812-1.53-1.593-2.41-2.509c1.902-1.516,3.813-2.96,5.917-4.174c1.75,1.521,3.425,2.979,5.171,4.497
	c0.309-0.17,0.599-0.329,1.077-0.592c-1.508-1.813-3.422-3-5.01-4.825c1.458-1.291,2.938-2.418,4.756-3.387
	c2.248,2.295,4.384,4.647,6.705,6.797C142.016,72.229,144.531,74.185,147.26,76.476z M110.037,94.679
	c-0.683-1.228-1.809-1.219-2.685-1.314c-0.705-0.813,0.424-2.037-0.872-2.47c-1.431,0.64-2.375,1.718-2.666,3.214
	c0.654-0.318,1.184-0.576,1.78-0.867c0.117,0.607,0.223,1.155,0.37,1.919c0.717-0.27,1.323-0.497,1.939-0.729
	c0.652,0.13,1.08,0.476,0.952,1.2c-0.116,0.649-0.571,0.999-1.225,1.053c-0.568,0.046-1.161,0.029-1.333,0.787
	C108.683,98.017,110.162,96.873,110.037,94.679z M69.9,122.178c1.045-1.501,0.907-3.081-0.352-4.043
	c-1.23-0.939-2.667-0.567-4.23,1.093C65.045,121.956,67.069,123.259,69.9,122.178z M137.365,74.525
	c-1.501-0.64-2.535,0.075-3.631,0.411c-0.887-1.494,1.176-1.56,1.121-2.582c-1.124-0.064-1.757,0.374-3.033,2.132
	c0.561,0.643,1.138,1.304,1.611,1.848c1.232,0.017,1.592-1.453,2.896-1.009c0.138,0.234,0.337,0.578,0.397,0.682
	c-0.026,1.355-1.764,0.943-1.737,2.199c1.821-0.157,2.2-0.405,3.115-2.077C137.873,75.627,137.596,75.025,137.365,74.525z
	 M92.33,106.788c1.615-0.271,2.852-1.023,3.879-2.361c-0.267-0.313-0.476-0.557-0.667-0.783c-0.747,0.427-0.935,1.478-1.975,1.289
	c-0.288-1.079,0.296-2.314-0.74-3.225c-1.1-0.326-2.065-0.085-2.73,0.93c-0.45,0.688-0.655,1.435,0.062,2.096
	c1.359-0.17,0.23-2.107,1.761-2.179C92.688,103.835,91.972,105.318,92.33,106.788z M121.664,85.938
	c0.516,0.569,1.001,1.104,1.515,1.67c0.367-0.195,0.625-0.332,1.099-0.584c-1.355-0.713-0.978-2.833-2.822-2.891
	c-0.443,0.461-0.804,0.836-1.303,1.355c-0.262-1.032-0.447-1.769-0.648-2.563c-1.071,0.677-1.129,1.832-0.267,3.826
	C119.989,86.5,120.758,86.242,121.664,85.938z M82.55,113.306c-1.591-1.107-1.746-3.143-3.808-3.516
	c-0.424,1.083-0.812,2.07-1.199,3.057c0.544,0.033,0.88-0.085,1.122-0.307c0.28-0.257,0.479-0.604,0.739-0.946
	c0.653,0.804,1.215,1.492,1.789,2.2C81.575,113.657,81.854,113.558,82.55,113.306z"/>
<path fill-rule="evenodd" clip-rule="evenodd" fill="#fef158" class="fill" d="M67.338,118.409c1.854,0.843,2.046,1.192,1.896,2.85
	c-1.536,0.545-2.048,0.272-2.937-1.94C66.555,119.093,66.966,118.734,67.338,118.409z"/>
</svg>
