<svg version="1.1" id="svg" xmlns="http://www.w3.org/2000/svg" xmlns:xlink="http://www.w3.org/1999/xlink" x="0px" y="0px"
	 width="200px" height="200px" viewBox="0 0 200 200" enable-background="new 0 0 200 200" xml:space="preserve">
<path class="stroke" fill="#205165"  fill-rule="evenodd" clip-rule="evenodd" d="M150.543,137.431c0.04-0.406,0.126-0.731,0.094-1.044
	c-0.161-1.544-0.335-3.087-0.54-4.626c-0.139-1.037-0.406-2.059-0.498-3.098c-0.201-2.267-0.197-4.559-0.51-6.808
	c-0.623-4.482-1.385-8.945-2.126-13.41c-0.439-2.642-0.899-5.281-1.438-7.904c-0.78-3.797-1.649-7.576-2.449-11.37
	c-0.087-0.41,0.039-0.865,0.067-1.332c-0.012-0.002-0.208-0.03-0.215-0.031c-0.731-2.306-1.428-4.472-2.105-6.645
	c-1.187-3.805-2.339-7.619-3.553-11.415c-0.429-1.343-1-2.64-1.497-3.96c-1.119-2.97-2.179-5.964-3.367-8.907
	c-0.674-1.671-1.576-3.249-2.336-4.886c-1.05-2.259-1.947-4.596-3.117-6.789c-2.26-4.242-4.658-8.411-7.015-12.602
	c-0.567-1.009-1.235-1.962-1.79-2.977c-0.543-0.993-1.332-1.85-1.198-3.177c0.191-1.886-0.747-2.454-2.701-1.679
	c-0.136,0.339-0.366,0.668-0.387,1.01c-0.085,1.397-0.787,2.449-1.712,3.421c-0.345,0.363-0.593,0.823-0.861,1.254
	c-1.036,1.664-2.03,3.355-3.099,4.998c-2.634,4.049-5.34,8.051-7.942,12.12c-2.181,3.412-4.252,6.895-6.38,10.342
	c-0.744,1.205-1.547,2.373-2.255,3.597c-2.605,4.503-5.18,9.023-7.772,13.534c-1.426,2.482-2.939,4.919-4.275,7.449
	c-1.661,3.144-3.203,6.353-4.755,9.554c-1.575,3.247-3.179,6.484-4.629,9.788c-2.344,5.338-4.517,10.75-6.882,16.079
	c-0.687,1.548-0.62,2.875,0.331,4.149c0.796,1.064,2.001,1.345,3.291,1.256c1.122-0.078,2.24-0.187,3.362-0.247
	c3.605-0.193,7.211-0.42,10.819-0.539c3.317-0.111,6.639-0.09,9.958-0.145c4.749-0.079,9.497-0.233,14.246-0.236
	c2.388-0.001,4.778,0.249,7.165,0.414c0.489,0.034,0.97,0.195,1.379,0.282c0,1.816,0,3.504,0,5.151
	c-0.552,0.189-0.993,0.339-1.144,0.39c-3.901-0.204-7.542-0.731-11.131-0.494c-4.479,0.296-8.995-0.31-13.453,0.689
	c-1.977,0.443-3.763,1.067-5.156,2.525c-1.351,1.414-2.6,2.924-3.926,4.428c-0.384,0-0.781,0.001-1.178,0
	c-7.195-0.021-14.39-0.039-21.584-0.065c-2.716-0.011-5.436-0.14-8.146-0.027c-1.337,0.056-2.783,0.264-3.603,1.642
	c-0.312,2.536,0.196,4.949,1.021,7.335c1.512,4.376,4.121,8.139,6.606,11.973c1.024,1.58,2.545,2.553,4.298,2.896
	c3.075,0.602,6.189,1.046,9.307,1.379c4.024,0.43,8.064,0.751,12.104,0.998c3.578,0.218,7.165,0.315,10.75,0.381
	c4.53,0.083,9.062,0.116,13.593,0.105c3.116-0.008,6.233-0.105,9.349-0.2c3.479-0.107,6.961-0.215,10.436-0.404
	c1.873-0.102,3.738-0.354,5.602-0.577c1.749-0.208,3.489-0.629,5.239-0.661c1.968-0.035,3.792-0.399,5.277-1.66
	c1.249-1.061,2.379-2.288,3.416-3.561c1.207-1.48,2.353-3.032,3.35-4.66c1.737-2.838,3.386-5.735,4.979-8.659
	C150.597,140.419,152.037,139.08,150.543,137.431z M50.259,139.815c-1.335,0-2.572,0-4.119,0c0.072-0.716,0.144-1.436,0.238-2.375
	c1.34-0.119,2.557-0.227,3.881-0.344C50.259,138.132,50.259,138.944,50.259,139.815z M55.443,140.218c-1.097,0-2.128,0-3.332,0
	c-0.086-1.001-0.165-1.904-0.254-2.931c1.35,0,2.389,0,3.586,0C55.443,138.308,55.443,139.257,55.443,140.218z M59.555,140.84
	c-0.823-0.072-1.563-0.137-2.359-0.207c-0.065-1.144-0.123-2.175-0.188-3.314c0.975,0,1.828,0,2.885,0
	C59.78,138.494,59.673,139.612,59.555,140.84z M64.384,140.986c-1.028,0-2.008,0-3.137,0c0.067-1.241,0.128-2.337,0.198-3.635
	c1.047,0.072,1.955,0.135,2.938,0.202C64.384,138.75,64.384,139.82,64.384,140.986z M69.014,141.391c-0.982,0-1.904,0-2.952,0
	c0-1.269,0-2.465,0-3.76c1.117,0,2.107,0,3.34,0C69.267,138.942,69.143,140.144,69.014,141.391z M74.115,141.582
	c-1.191,0-2.217,0-3.469,0c0.078-1.351,0.15-2.578,0.228-3.908c1.186-0.089,2.237-0.168,3.469-0.259
	C74.256,138.99,74.187,140.274,74.115,141.582z M75.961,139.427c-0.093-0.027-0.187-0.056-0.279-0.084
	c0.023-0.527,0.048-1.055,0.079-1.729c0.597-0.064,1.005-0.108,1.413-0.151c0.059,0.076,0.118,0.152,0.178,0.229
	C76.888,138.27,76.425,138.849,75.961,139.427z M114.346,96.219c-1.204-15.152-1.189-30.3,0.102-45.468
	C115.157,65.896,114.861,81.058,114.346,96.219z M117.458,105.033c0.061-3.469,0.26-6.936,0.35-10.404
	c0.083-3.218,0.106-6.437,0.141-9.655c0.057-5.243,0.173-10.487,0.128-15.729c-0.038-4.463-0.286-8.923-0.403-13.386
	c-0.052-1.986-0.009-3.975-0.009-6.019c0.292,1.996,0.601,3.958,0.859,5.928c0.407,3.098,0.866,6.194,1.146,9.304
	c0.311,3.465,0.261,6.969,0.7,10.414c0.656,5.158,0.123,10.298,0.097,15.442c-0.015,2.894-0.363,5.787-0.594,8.679
	c-0.207,2.59-0.42,5.18-0.705,7.762c-0.233,2.107-0.569,4.204-0.877,6.304c-0.032,0.224-0.176,0.431-0.381,0.911
	c-0.111-1.331-0.232-2.373-0.277-3.418C117.547,109.121,117.422,107.075,117.458,105.033z M132.575,139.217
	c-1.312-1.195-2.657-2.5-4.086-3.706c-1.877-1.583-3.707-3.271-5.779-4.555c-1.089-0.676-2.649-0.59-3.998-0.848
	c-0.14-0.026-0.282-0.049-0.453-0.079c-0.119-1.577-0.236-3.133-0.373-4.944c4.631,3.164,9.191,5.749,14.028,7.991
	c4.928,2.284,10.09,3.217,15.471,4.37C142.433,138.609,137.604,139.199,132.575,139.217z"/>
<path fill-rule="evenodd" clip-rule="evenodd" fill="#ffffff" class="fill" d="M148.43,134.849c-6.344,0.75-23.014-6.341-29.74-12.676
	c0.335-1.132,0.778-2.318,1.029-3.544c0.377-1.844,0.671-3.71,0.911-5.578c0.429-3.339,0.864-6.679,1.162-10.03
	c0.325-3.645,0.526-7.301,0.724-10.955c0.157-2.895,0.299-5.793,0.317-8.689c0.014-2.086-0.211-4.173-0.285-6.261
	c-0.062-1.765,0.047-3.541-0.113-5.294c-0.235-2.585-0.665-5.153-0.971-7.732c-0.233-1.965-0.333-3.949-0.614-5.907
	c-0.508-3.538-1.109-7.063-1.666-10.594c-0.216-1.371-0.375-2.751-0.637-4.113c-0.42-2.185-0.972-4.345-1.334-6.538
	c-0.214-1.295-0.173-2.633-0.247-3.952c0.126-0.048,0.253-0.097,0.379-0.146c0.339,0.465,0.727,0.903,1.01,1.399
	c1.753,3.064,3.548,6.109,5.201,9.229c1.324,2.497,2.476,5.084,3.685,7.641c0.885,1.871,1.796,3.731,2.594,5.64
	c1.129,2.703,2.2,5.432,3.23,8.173c1.363,3.624,2.785,7.233,3.959,10.919c1.341,4.211,2.576,8.467,3.603,12.764
	c1.111,4.651,1.905,9.377,2.88,14.062c0.715,3.438,1.627,6.838,2.215,10.295c0.691,4.064,1.135,8.171,1.669,12.262
	c0.388,2.971,0.751,5.944,1.111,8.917C148.532,134.376,148.456,134.623,148.43,134.849z"/>
<path fill-rule="evenodd" clip-rule="evenodd" fill="#ffffff" class="fill" d="M145.913,141.239c-0.674,0.987-1.232,1.779-1.767,2.587
	c-1.755,2.66-3.422,5.381-5.277,7.97c-1.474,2.056-3.002,4.279-5.578,4.982c-2.215,0.604-4.564,0.81-6.869,0.985
	c-4.013,0.304-8.036,0.509-12.058,0.644c-3.552,0.118-7.109,0.073-10.664,0.117c-3.442,0.042-6.885,0.182-10.327,0.139
	c-4.281-0.054-8.568-0.128-12.836-0.421c-4.495-0.309-8.976-0.843-13.453-1.362c-3.017-0.351-6.02-0.821-9.022-1.286
	c-1.516-0.235-2.497-1.356-3.276-2.501c-1.629-2.39-3.106-4.884-4.607-7.359c-0.52-0.855-0.922-1.782-1.488-2.891
	c1.789,0.214,3.344,0.431,4.907,0.58c2.379,0.225,4.766,0.368,7.143,0.613c1.363,0.141,2.706,0.543,4.069,0.607
	c5.398,0.258,10.799,0.517,16.203,0.608c4.848,0.083,9.701-0.017,14.549-0.114c1.408-0.028,2.807-0.395,4.217-0.486
	c2.749-0.177,5.503-0.322,8.257-0.375c1.546-0.031,3.104,0.28,4.644,0.2c3.29-0.17,6.578-0.44,9.856-0.77
	c4.212-0.423,8.414-0.934,12.618-1.426c3.292-0.386,6.581-0.803,9.873-1.195C145.221,141.061,145.428,141.149,145.913,141.239z"/>
<path fill-rule="evenodd" clip-rule="evenodd" fill="#ffffff" class="fill" d="M111.882,96.693c0.744,7.288,1.456,14.25,2.189,21.435
	c-1.293,0.055-2.504,0.126-3.717,0.154c-1.228,0.028-2.456,0.027-3.683,0.013c-5.769-0.067-11.538-0.147-17.306-0.215
	c-6.788-0.081-13.576-0.164-20.364-0.215c-1.022-0.008-2.046,0.146-3.253,0.24c3.371-7.78,6.134-15.5,9.724-22.701
	C87.815,95.841,99.883,96.269,111.882,96.693z"/>
<path fill-rule="evenodd" clip-rule="evenodd" fill="#ffffff" class="fill" d="M111.694,95.812c-1.451-0.141-2.991-0.383-4.537-0.422
	c-4.375-0.112-8.755-0.055-13.127-0.225c-5.399-0.21-10.793-0.578-16.189-0.888c-0.529-0.031-1.055-0.123-1.714-0.203
	c3.232-6.048,6.381-11.943,9.658-18.078c4.307,0.23,8.558,0.463,12.808,0.683c4.155,0.215,8.27,1.092,12.437,1.085
	c0.04-0.195,0.079-0.39,0.117-0.584c-0.452-0.166-0.893-0.434-1.357-0.482c-3.862-0.4-7.724-0.813-11.594-1.116
	c-3.253-0.255-6.517-0.36-9.775-0.548c-0.508-0.03-1.012-0.149-1.695-0.254c3.231-5.617,6.337-11.016,9.532-16.569
	c5.128,0.462,10.194,0.919,15.146,1.366C111.501,71.618,111.598,83.701,111.694,95.812z"/>
<path fill-rule="evenodd" clip-rule="evenodd" fill="#ffffff" class="fill" d="M128.05,139.934c-16.086,0.896-32.151,2.353-48.614,1.74
	c0.668-0.88,1.164-1.6,1.728-2.261c1.221-1.436,2.532-2.798,3.706-4.271c1.639-2.056,3.602-3.452,6.315-3.54
	c3.511-0.114,7.021-0.29,10.531-0.303c3.327-0.012,6.667-0.004,9.979,0.27c5.029,0.416,9.755,1.784,13.609,5.306
	c0.972,0.888,1.973,1.746,2.96,2.618C128.192,139.639,128.121,139.786,128.05,139.934z M91.437,137.718
	c2.083,0,3.89,0.053,5.692-0.011c3.185-0.114,6.367-0.28,9.548-0.467c0.825-0.048,1.662-0.186,2.457-0.409
	c0.938-0.264,1.176-1.021,0.548-1.738c-0.337-0.385-0.834-0.765-1.316-0.861c-1.415-0.283-2.854-0.487-4.293-0.606
	c-3.646-0.304-7.297-0.542-10.946-0.811c-1.365-0.101-1.956,0.389-2.026,1.774c-0.044,0.854-0.009,1.714-0.009,2.819
	C91.145,137.456,91.405,137.69,91.437,137.718z"/>
<path fill-rule="evenodd" clip-rule="evenodd" fill="#ffffff" class="fill" d="M113.715,30.957c0,2.611,0.154,4.947-0.033,7.255
	c-0.354,4.337-0.922,8.655-1.366,12.985c-0.255,2.486-0.442,4.979-0.653,7.4c-4.791-0.507-9.562-1.012-14.693-1.555
	C102.58,48.302,108.067,39.755,113.715,30.957z"/>
</svg>
