<svg version="1.1" id="svg" xmlns="http://www.w3.org/2000/svg" xmlns:xlink="http://www.w3.org/1999/xlink" x="0px" y="0px"
	 width="200px" height="200px" viewBox="0 0 200 200" enable-background="new 0 0 200 200" xml:space="preserve">
<path class="stroke" fill="#205165"  fill-rule="evenodd" clip-rule="evenodd" d="M105.197,79.8c-0.896-2.008,0.053-3.439,1.285-4.728
	c1.94-2.03,3.857-4.093,5.934-5.977c2.343-2.124,4.867-4.06,7.853-5.226c2.981-1.164,6.077-1.677,9.276-1.16
	c2.144,0.346,3.847,1.625,5.538,2.849c1.206,0.873,2.458,1.798,3.354,2.959c1.393,1.807,2.206,3.863,2.249,6.287
	c0.085,4.827-2.213,8.712-4.654,12.519c-1.665,2.596-3.542,5.087-5.568,7.413c-2.992,3.437-6.134,6.752-9.336,9.996
	c-3.665,3.713-7.396,7.367-11.225,10.909c-3.744,3.462-7.624,6.778-11.488,10.107c-3.414,2.942-6.823,5.897-10.361,8.687
	c-2.22,1.752-4.546,3.466-7.061,4.724c-2.367,1.183-4.987,2.039-7.785,1.467c-1.215-0.249-2.37-0.607-3.235-1.547
	c-2.243-2.437-3.307-5.109-2.49-8.563c1.042-4.402,2.794-8.478,5.04-12.333c1.441-2.473,3.205-4.776,4.98-7.033
	c3.049-3.877,6.186-7.688,9.351-11.472c2.44-2.92,4.958-5.776,7.483-8.623c1.366-1.542,2.833-2.993,4.231-4.507
	c1.271-1.375,2.478-2.812,3.777-4.16C103.209,81.494,104.187,80.708,105.197,79.8z M124.812,75.662
	c0.102,0.272,0.168,0.579,0.322,0.833c0.576,0.951,0.585,1.688-0.208,2.423c-0.472,0.437-1.117,0.706-1.714,0.984
	c-1.354,0.632-2.674,1.472-4.104,1.778c-2.731,0.584-5.521,0.931-8.304,1.212c-0.872,0.088-1.429,0.38-2.005,0.961
	c-1.541,1.555-3.149,3.042-4.704,4.583c-2.378,2.356-4.777,4.694-7.086,7.117c-2.222,2.331-4.374,4.729-6.494,7.153
	c-1.851,2.115-3.675,4.259-5.396,6.479c-1.734,2.239-3.342,4.578-4.979,6.891c-0.942,1.332-1.833,2.699-2.774,4.092
	c1.748-0.111,3.39-0.309,5.03-0.299c2.802,0.017,5.346,0.915,6.349,4.075c0.357,1.127,0.61,2.287,0.954,3.6
	c0.479-0.354,1.017-0.735,1.536-1.141c0.244-0.191,0.433-0.452,0.677-0.643c2.45-1.936,5.001-3.756,7.34-5.818
	c3.183-2.807,6.265-5.72,8.994-9.011c2.454-2.96,5.164-5.71,7.81-8.507c1.801-1.903,3.724-3.692,5.523-5.598
	c1.345-1.423,2.58-2.95,3.874-4.442c-0.359-0.482-0.634-0.82-0.875-1.18c-1.111-1.655-1.456-3.482-0.473-5.227
	c1.222-2.17,2.74-4.172,4.062-6.289c0.747-1.197,1.737-2.314,1.755-3.807C128.713,74.143,126.167,73.991,124.812,75.662z
	 M71.398,130.826c-0.116,1.582-0.312,2.92,0.936,3.945c1.762,1.448,5.139,1.756,7.152,0.445c2.285-1.489,4.166-3.395,5.299-5.939
	c0.679-1.523,0.417-3.318-0.815-4.045c-1.026-0.606-2.199-1.193-3.356-1.308c-2.97-0.295-5.324,1.117-7.187,3.313
	C72.487,128.345,71.299,129.385,71.398,130.826z"/>
<path fill-rule="evenodd" clip-rule="evenodd" fill="#ffffff" class="fill" d="M72.882,137.738c-0.479,0.408-0.825,0.703-1.178,1.004
	c-2.481-1.502-4.023-4.628-3.029-8.256c1.035-3.78,2.38-7.458,4.385-10.823c1.53-2.567,3.265-5.032,5.093-7.4
	c3.205-4.15,6.476-8.255,9.861-12.259c2.681-3.17,5.59-6.147,8.368-9.236c1.543-1.718,2.999-3.515,4.547-5.228
	c0.964-1.067,2.008-2.062,3.052-3.053c0.609-0.578,1.288-1.084,2.007-1.683c0.316,0.265,0.638,0.535,1.089,0.914
	c-1.886,1.778-3.739,3.451-5.507,5.209c-2.063,2.052-4.111,4.126-6.062,6.285c-3.122,3.456-6.206,6.949-9.215,10.503
	c-2.583,3.052-5.075,6.183-7.536,9.335c-1.477,1.892-3.062,3.763-4.159,5.873c-1.793,3.443-3.346,7.027-4.771,10.642
	c-0.989,2.508,0.115,5.453,2.241,7.151C72.399,136.979,72.61,137.39,72.882,137.738z"/>
<path fill-rule="evenodd" clip-rule="evenodd" fill="#ffffff" class="fill" d="M128.367,93.273c-0.648-0.527-1.171-0.953-1.769-1.44
	c0.315-0.462,0.58-0.873,0.867-1.267c2.511-3.452,5.193-6.795,7.484-10.388c1.583-2.482,2.065-5.356,0.809-8.263
	c-0.158-0.366-0.234-0.768-0.391-1.294c0.397-0.199,0.76-0.38,1.111-0.556c0.594,0.317,1.114,0.595,1.703,0.91
	c0.872,1.814,0.935,3.695,0.424,5.738c-0.611,2.444-1.585,4.718-2.755,6.904c-0.775,1.447-1.791,2.783-2.813,4.079
	C131.573,89.555,130.005,91.329,128.367,93.273z"/>
<path fill-rule="evenodd" clip-rule="evenodd" fill="#ffffff" class="fill" d="M126.528,93.271c0.28,0.225,0.537,0.432,0.853,0.685
	c-11.207,13.705-23.563,26.067-38.199,36.011c-0.071-0.07-0.142-0.142-0.212-0.213c0.379-0.351,0.74-0.728,1.144-1.049
	c1.119-0.891,2.25-1.768,3.389-2.633c0.82-0.624,1.697-1.177,2.489-1.834c1.974-1.637,4.003-3.222,5.845-5
	c2.402-2.316,4.654-4.789,6.95-7.214c1.7-1.795,3.345-3.642,5.054-5.428c2.741-2.865,5.529-5.686,8.271-8.549
	C123.575,96.519,124.988,94.94,126.528,93.271z"/>
<path fill-rule="evenodd" clip-rule="evenodd" fill="#ffffff" class="fill" d="M125.394,65.157c-6.773,4.087-12.733,9.187-18.847,14.262
	c-0.14-0.303-0.284-0.616-0.488-1.06c1.213-1.25,2.322-2.569,3.609-3.682c2.902-2.507,5.814-5.016,8.876-7.318
	C120.514,65.878,122.848,65.044,125.394,65.157z"/>
<path fill-rule="evenodd" clip-rule="evenodd" fill="#ffffff" class="fill" d="M85.803,131.104c2.713-4.533,0.707-7.35-3.467-9.436
	c1.989-0.266,3.987,0.192,5.525,3.062C88.84,126.557,87.692,129.654,85.803,131.104z"/>
<path fill-rule="evenodd" clip-rule="evenodd" fill="#ffffff" class="fill" d="M113.119,78.424c1.639-1.782,3.354-3.335,5.768-3.808
	c0.394-0.078,0.842,0.129,1.327,0.216C119.309,76.978,115.898,78.629,113.119,78.424z"/>
<path fill-rule="evenodd" clip-rule="evenodd" fill="#ffffff" class="fill" d="M129.561,69.076c-0.089,1.295-0.93,2.106-1.997,2.11
	c-0.155,0-0.323,0.007-0.462-0.047c-0.544-0.212-1.424-0.342-1.534-0.7c-0.156-0.507,0.259-1.19,0.43-1.798
	c0.089,0.025,0.178,0.05,0.267,0.076c0.481-0.084,0.963-0.169,1.717-0.302C128.37,68.578,128.996,68.839,129.561,69.076z"/>
</svg>
