<svg version="1.1" id="svg" xmlns="http://www.w3.org/2000/svg" xmlns:xlink="http://www.w3.org/1999/xlink" x="0px" y="0px"
	 width="200px" height="200px" viewBox="0 0 200 200" enable-background="new 0 0 200 200" xml:space="preserve">
<path class="stroke" fill="#6a2906"  fill-rule="evenodd" clip-rule="evenodd" d="M117.697,79.024c1.328-0.337,2.418-0.562,3.475-0.896
	c1.494-0.472,2.926-0.354,4.428,0.036c0.926,0.241,1.951,0.115,2.932,0.117c1.301,0.001,2.602-0.063,3.903-0.045
	c1.297,0.018,2.659,0.392,3.876,0.106c3.923-0.921,7.062-0.044,9.268,3.532c3.633-1.055,6.741-0.2,9.298,2.325
	c2.135-0.903,4.087-1.917,6.155-2.551c2.121-0.65,4.334-0.357,6.586,0.294c4.34-4.396,7.447-9.679,11.039-14.682
	c-0.499-0.586-0.844-1.123-1.311-1.515c-1.179-0.992-1.371-2.254-0.898-3.569c0.371-1.034,0.941-2.025,1.574-2.93
	c1.143-1.639,2.408-3.192,3.602-4.796c1.774-2.384,5.281-3.155,8.17-2.134c2.556,0.903,4.791,2.354,6.639,4.437
	c1.377,1.553,1.518,3.189,0.665,4.846c-1.109,2.155-1.766,4.563-3.453,6.414c-1.008,1.106-1.948,2.275-2.956,3.38
	c-0.884,0.967-1.938,1.315-3.221,0.762c-0.442-0.191-0.953-0.226-1.561-0.36c-3.343,4.686-6.902,9.172-9.986,13.979
	c1.26,2.847,3.37,5.1,3.608,8.176c0.223,2.881,0.439,5.751-0.67,8.703c3.096,4.777,3.239,10.464,4.182,15.908
	c0.831,4.798,1.335,9.694,0.439,14.56c-0.535,2.905-1.533,5.71-3.466,8.007c-1.458,1.731-3.217,3.153-5.493,3.759
	c-3.263,0.868-6.501,1.846-9.793,2.582c-1.63,0.364-3.356,0.371-5.042,0.401c-3.246,0.058-6.494,0.017-10.103,0.017
	c-0.933,1.027-2.026,2.141-3.01,3.343c-0.812,0.993-1.796,1.5-3.052,1.611c-5.356,0.479-10.712,0.891-16.101,0.467
	c-2.181-0.171-4.38-0.164-6.57-0.16c-2.269,0.005-4.488-0.188-6.666-0.901c-1.268-0.415-2.585-0.423-3.859,0.137
	c-0.857,0.376-1.806,0.595-2.592,1.081c-3.157,1.954-6.598,2.272-10.151,1.819c-4.84-0.617-9.65-1.512-14.502-1.958
	c-6.469-0.595-12.905-1.949-19.445-1.279c-2.412,0.247-4.797,0.812-7.176,1.322c-1.892,0.406-3.744,0.993-5.632,1.42
	c-3.144,0.712-6.047-0.129-8.922-1.375c-2.465-1.067-4.99-2.005-7.526-2.889c-2.224-0.775-4.538-0.781-6.873-0.561
	c-1.616,0.153-3.248,0.167-4.874,0.179c-0.616,0.004-1.278-0.06-1.844-0.282c-3.163-1.242-6.254-2.665-8.564-5.251
	c-2.964-3.317-5.711-6.787-7.581-10.898c-1.494-3.285-1.915-6.714-1.891-10.246c0.008-1.122,0.083-2.248,0.201-3.364
	c0.303-2.851,1.378-5.438,2.784-7.906c0.497-0.87,1.011-1.731,1.474-2.619c1.228-2.357,2.708-4.515,4.908-6.072
	c1.811-1.283,3.115-2.777,2.391-5.136c2.427-3.305,5.934-4.691,9.445-6.182c-0.822-2.19-1.604-4.27-2.418-6.435
	c1.828-2.386,3.562-4.652,5.468-7.142c-0.635-2.737-1.778-5.737-1.941-8.739c2.208-3.145,5.441-4.337,8.547-5.606
	c4.451-1.819,8.925-3.616,13.716-4.447c1.403-0.243,2.739-0.869,4.119-1.271c3.534-1.027,7.202-0.811,10.814-1.077
	c0.897-0.066,1.852,0.264,2.74,0.539c1.942,0.602,3.023,1.878,3.019,4.009c-0.002,0.738,0.194,1.489,0.378,2.213
	c0.735,2.901,1.502,5.793,2.315,8.908c0.31-0.37,0.552-0.551,0.649-0.791c1.804-4.402,3.555-8.826,5.392-13.213
	c1.111-2.652,2.091-5.41,3.589-7.837c2.455-3.977,5.758-7.002,10.896-6.78c2.805,0.121,5.616,0.317,8.399,0.678
	c3.225,0.418,6.417,1.087,9.634,1.582c1.976,0.304,3.693,1.185,5.321,2.245c1.967,1.282,2.926,3.315,3.257,5.506
	c0.363,2.399,0.491,4.86,0.443,7.289c-0.105,5.318-0.387,10.632-0.594,15.948C117.687,78.07,117.697,78.375,117.697,79.024z
	 M158.94,100.176c0.578,0.071,1.372,0.169,1.951,0.24c2.666-1.539,3.759-4.484,6.593-6.097c0.12,3.439-1.338,5.965-2.902,8.8
	c0.952,0.075,1.683,0.292,2.337,0.154c1.766-0.375,3.471-0.231,5.188,0.215c0.594,0.154,1.215,0.208,1.96,0.329
	c0.694-1.138,1.422-2.223,2.035-3.37c0.594-1.11,0.598-2.327,0.02-3.429c-0.485-0.929-1.07-1.851-1.79-2.606
	c-2.378-2.493-5.527-3.839-8.539-5.304c-2.136-1.039-4.45-0.772-6.387,0.729c-1.36,1.055-2.554,2.325-3.667,3.356
	c0.086,1.913,0.159,3.519,0.225,4.98C157.004,98.875,157.88,99.462,158.94,100.176z M53.546,68.115
	c-8.204,2.155-16.484,3.511-25.081,3.537c0.318,3.691,1.687,6.934,2.741,10.254c0.14,0.438,0.511,0.801,0.82,1.267
	c4.15-1.089,7.915-2.623,11.315-5.103C47.223,75.242,49.717,71.029,53.546,68.115z M50.312,75.028
	c-1.068,0.718-2.089,1.301-2.985,2.034c-1.111,0.909-2.047,2.039-3.188,2.904c-4.768,3.619-9.913,6.322-16.113,6.358
	c-0.893,0.005-1.784,0.225-3.063,0.397c0.96,1.738,1.731,3.133,2.403,4.351c2.262,0.964,4.238,0.386,6.151-0.093
	c5.381-1.349,10.459-3.438,14.931-6.79c1.387-1.04,2.627-2.277,3.809-3.313C52.32,78.633,51.82,76.886,50.312,75.028z
	 M182.032,66.272c-4.795,5.114-8.363,10.838-11.431,16.932c1.26,0.338,1.384,0.319,2.278-0.692
	c3.523-3.985,6.862-8.113,9.747-12.595c0.393-0.611,0.944-1.121,1.488-1.755c1.556,0.207,3.02,0.402,4.529,0.603
	c2.394-1.215,5.996-7.963,5.565-10.761c-1.729-1.193-3.516-2.571-5.44-3.717c-2.261-1.345-4.151-0.879-5.775,1.167
	c-0.388,0.489-0.746,1.007-1.166,1.467c-1.702,1.861-2.321,4.202-3.151,6.532C179.751,64.354,180.692,65.146,182.032,66.272z
	 M64.188,63.286c-2.773,1.289-5.303,2.466-8.091,3.762c0.752,0.187,1.328,0.217,1.783,0.467c0.797,0.437,1.846,0.844,2.204,1.557
	c0.678,1.355,1.117,2.892,1.331,4.4c0.219,1.539,0.049,3.133,0.049,4.484c1.926-0.76,3.845-1.519,5.978-2.361
	C66.396,71.643,65.316,67.557,64.188,63.286z M53.101,64.364c0.188-0.049,0.376-0.098,0.563-0.146c0-1.127,0-2.254,0-3.405
	c-6.604,0.198-12.606,2.027-18.684,5.093c1.25,0.57,0.959,2.512,2.727,2.166c0.705-0.984-0.299-2.341,0.773-3.077
	c1.468,0.325,0.25,2.257,1.812,2.566c0.225-0.955-0.28-2.107,0.99-2.809c0.309,0.87,0.584,1.644,0.875,2.462
	c0.335-0.034,0.568-0.057,0.799-0.08c0.668-1.157-0.188-2.64,1.052-3.951c0.393,1.344,0.717,2.452,1.102,3.769
	c1.479-1.294,0.353-3.051,1.39-4.179c1.369,0.681,0.328,2.318,1.315,3.13c1.131-0.046,1.022-0.87,1.087-1.594
	c0.059-0.672-0.211-1.482,0.739-1.982c0.316,0.995,0.6,1.883,0.928,2.915c1.512-1.024,0.127-2.804,1.6-3.712
	C52.496,62.526,52.798,63.445,53.101,64.364z M51.681,71.84c3.258,3.161,4.376,3.946,6.188,4.352
	c0.265-0.349,0.584-0.722,0.847-1.13c0.304-0.472,0.611-0.953,0.825-1.468c0.558-1.349,0.089-3.193-0.997-4.115
	c-0.876-0.744-2.755-0.865-3.879-0.094C53.649,70.082,52.752,70.948,51.681,71.84z M57.879,62.423
	c0.124,0.013,0.248,0.026,0.372,0.039c0.141-0.688,0.279-1.377,0.429-2.111c-1.437-0.575-2.592-0.156-3.83,0.179
	c0.157,1.096-0.018,2.221,1.068,3.086c0.249-1.054,0.465-1.963,0.681-2.874c0.131-0.004,0.262-0.008,0.393-0.012
	C57.287,61.295,57.582,61.859,57.879,62.423z"/>
<path class="stroke" fill="#6a2906"  fill-rule="evenodd" clip-rule="evenodd" d="M181.01,61.521c1.216-1.817,2.417-3.612,3.587-5.362
	c3.273-1.231,4.048-0.968,6.908,2.336c0.397,1.28,0.205,2.538-0.509,3.712c-0.582,0.956-1.179,1.906-1.831,2.815
	c-0.5,0.697-1.263,1.226-2.096,0.883C184.785,64.966,182.505,63.96,181.01,61.521z M184.562,62.805
	c0.896,0.555,1.824,1.13,2.913,1.803c1.104-1.811,2.661-3.237,2.376-5.505C187.582,58.747,185.402,60.285,184.562,62.805z"/>
<path fill-rule="evenodd" clip-rule="evenodd" fill="#ffe861" class="fill" d="M150.458,88.229c-0.506,0.927-1.011,1.853-1.548,2.835
	c-1.455,0.186-2.865,0.365-4.265,0.543c-0.282-0.537-0.518-0.983-0.791-1.504c-0.905,0.558-0.428,1.145-0.261,1.65
	c-0.65,0.718-2.168,0.247-2.22,1.866c1.735,0.257,3.423,0.354,5.138-0.069c1.771-0.437,3.48-0.44,5.038,1.176
	c-0.49,3.372,1.152,5.611,4.337,6.89c0.62,0.064,1.24,0.127,1.861,0.191c-0.032,0.072-0.064,0.144-0.096,0.215
	c2.091,1.098,4.147,2.271,6.293,3.252c0.749,0.342,1.716,0.269,2.584,0.272c0.872,0.003,1.752-0.098,2.619-0.217
	c4.012-0.553,6.873,1.277,8.093,5.158c0.317,1.012,0.759,1.984,1.121,2.983c0.858,2.372,1.271,4.831,1.458,7.342
	c0.187,2.493,0.434,4.981,0.683,7.468c0.056,0.555,0.108,1.174,0.384,1.631c1.096,1.826,0.611,3.62-0.011,5.405
	c-0.592,1.697-1.648,3.017-3.141,4.093c-4.45,3.208-9.387,4.905-14.849,5.185c-4.436,0.227-8.872,0.452-13.299,0.805
	c-1.001,0.08-2.067,0.521-2.911,1.083c-1.026,0.682-1.845,1.674-2.761,2.522c-0.585,0.541-1.185,1.064-1.913,1.715
	c-0.318-0.566-0.53-0.943-0.813-1.446c-0.439,0.183-0.808,0.336-1.253,0.521c0.189,0.411,0.331,0.721,0.533,1.16
	c-3.548,0.902-7.006,0.203-10.519,0.117c0.056-0.557,0.096-0.952,0.141-1.387c-1.223-0.416-1.283,0.411-1.445,1.202
	c-1.985,0-3.989,0.152-5.961-0.037c-2.723-0.261-5.464-0.268-8.154-1.117c-1.811-0.571-3.805-0.342-5.718,0.335
	c-2.821,1-5.724,1.766-8.57,2.698c-2.176,0.713-4.353,0.416-6.509,0.077c-4.815-0.757-9.628-1.544-14.417-2.454
	c-4.465-0.848-8.953-1.106-13.451-0.659c-5.479,0.544-10.931,1.334-16.403,1.941c-1.867,0.207-3.755,0.154-5.548-0.584
	c-1.505-0.619-3.068-1.119-4.512-1.856c-2.625-1.34-5.459-1.874-8.312-2.188c-1.781-0.196-3.626,0.051-5.431,0.218
	c-4.846,0.449-8.415-1.929-11.503-5.233c-1.357-1.453-2.437-3.166-3.641-4.762c-0.679-0.899-1.317-1.831-2.037-2.696
	c-2.291-2.754-3.01-5.938-2.691-9.433c0.107-1.18,0.12-2.369,0.232-3.549c0.28-2.937,0.812-5.801,2.285-8.428
	c1.663-2.965,3.59-5.718,6.011-8.12c1.262-1.252,2.175-2.648,2.412-4.535c0.291-2.319,1.822-3.718,4.029-4.482
	c1.711-0.591,3.359-1.358,5.294-2.153c2.056,0.528,4.289,0.017,6.53-0.656c1.434-0.431,2.908-0.795,4.392-0.989
	c3.255-0.424,6.052-1.955,8.85-3.484c1.536-0.839,3.007-1.796,4.504-2.707c1.01-0.614,2.042-0.744,3.23-0.508
	c3.006,0.597,5.558-0.104,7.355-2.824c0.892-1.348,2.269-2.176,3.772-2.664c0.944-0.306,1.979-0.284,3.016,0.614
	c-0.548,0.999-1.104,2.014-1.667,3.042c-0.463,0.021-0.837,0.086-1.2,0.047c-3.104-0.33-5.372,0.837-6.688,3.71
	c-0.513,1.119-1.168,2.076-2.554,2.475c-1.4-0.237-2.894-0.357-3.786,1.507c0.397,0.143,0.794,0.442,1.028,0.345
	c2.247-0.929,4.962,0.476,7.126-1.471c0.482-2.117,1.077-4.305,4.292-4.142c1.219,0.527,2.69,1.164,3.99,1.726
	c0.554,1.56,1.012,2.851,1.502,4.229c0.946,0.337,1.875,0.669,2.801,1c1.271-0.522,2.476-1.018,3.834-1.577
	c0.55,0.617,1.11,1.184,1.602,1.806c1.703,2.159,2.878,2.438,5.33,1.236c0.444-0.218,0.913-0.384,1.501-0.628
	c0.529,0.417,1.053,0.829,1.49,1.174c0.192,0.812,0.35,1.478,0.522,2.209c1.549,1.155,3.137,0.214,4.676,0.043
	c0.703-0.078,1.253-0.557,1.203-1.596c-0.733,0.052-1.446,0.102-2.244,0.158c-0.977-0.783-2.035-1.562-3.014-2.432
	c-1.512-1.345-3.131-1.385-4.875-0.573c-0.447,0.208-0.9,0.403-1.296,0.579c-0.883-1.039-1.529-2.305-2.561-2.869
	c-0.998-0.545-2.393-0.368-3.882-0.54c-0.004-0.008-0.161-0.328-0.362-0.738c-0.31,0.024-0.652,0.05-1.121,0.086
	c0.185,0.507,0.323,0.889,0.517,1.418c-0.487,0.136-0.926,0.257-1.627,0.453c-0.147-2.65-0.061-5.271-2.572-6.664
	c0.581-1.266,1.15-2.363,1.594-3.509c0.44-1.139,0.756-2.327,1.166-3.618c0.755,0.701,1.279,1.187,1.862,1.727
	c0.46-0.358,0.781-0.609,1.073-0.836c-0.174-1.478-1.417-1.266-2.407-1.567c0.602-1.116,1.131-2.1,1.595-2.961
	c0.685-0.458,1.261-0.842,1.939-1.295c-0.453-0.579-0.746-0.953-1.065-1.36c0.238-0.843,0.474-1.679,0.729-2.578
	c0.56-0.108,1.091-0.21,1.651-0.319c0.121-0.335,0.222-0.615,0.349-0.965c-0.467-0.279-0.881-0.526-1.494-0.893
	c0.31-0.992,0.637-2.037,0.938-3.001c0.968-0.354,2.163,0.293,2.568-1.193c-0.54-0.203-1.084-0.408-1.833-0.689
	c0.276-0.724,0.555-1.448,0.819-2.139c0.888-0.223,1.965,0.311,2.354-1.048c-0.365-0.199-0.76-0.416-1.317-0.72
	c0.712-1.522,1.417-3.031,2.138-4.576c0.7,0,1.368,0,2.046,0c0.144-0.263,0.259-0.474,0.418-0.766
	c-0.441-0.296-0.84-0.562-1.252-0.838c0.076-0.206,0.115-0.388,0.206-0.54c1.191-2.025,3.188-2.956,5.26-3.691
	c0.65-0.23,1.493-0.115,2.202,0.046c2.256,0.513,4.489,1.123,6.732,1.693c3.443,0.875,6.958,0.893,10.453,0.624
	c2.279-0.175,3.772,1.061,5.301,2.341c0.346,0.29,0.601,0.842,0.653,1.302c0.309,2.666,0.544,5.34,0.803,7.998
	c-0.529,0.384-0.909,0.66-1.481,1.076c0.486,0.607,0.929,1.16,1.464,1.831c0,0.534,0,1.214,0,1.941
	c-0.515,0.164-1.006,0.32-1.819,0.578c0.649,0.757,1.144,1.333,1.906,2.22c-0.212,1.339-0.349,3.021-0.762,4.631
	c-0.621,2.422-0.856,4.791-0.027,7.206c0.197,0.574,0.205,1.211,0.316,1.926c-0.694,0.162-1.27,0.296-1.863,0.435
	c-0.317,1.483,0.881,1.638,1.694,2.111c0,1.3,0,2.599,0,4.076c-1.415,0.78-2.813,1.552-4.222,2.329
	c-1.02-0.647-1.692-2.032-3.282-1.01c0.282,0.68,0.557,1.34,0.879,2.116c-1.067,0.936-2.403,1.461-3.774,1.752
	c-0.562,0.12-1.318-0.269-1.875-0.607c-0.88-0.535-1.722-1.036-2.808-0.768c-0.1-0.108-0.198-0.216-0.298-0.325
	c-0.505,0.511-1.011,1.022-1.721,1.74c1.869,1.016,3.251,2.01,4.792,2.517c0.976,0.321,2.245,0.101,3.288-0.203
	c2.458-0.718,4.881-1.572,7.275-2.484c1.883-0.718,3.749-1.347,5.744-0.958c1.062-1.48,1.044-1.694-0.25-3.652
	c0.164-0.397,0.326-0.789,0.473-1.143c-0.252-0.645-1.592-0.331-1.026-1.612c1.528-0.462,3.165-1.078,4.855-1.431
	c1.411-0.295,2.728,0.131,3.776,1.445c-0.174,2.649-0.496,5.449,1.684,7.622c0.921,0.234,1.762,0.449,2.552,0.65
	c0.468,0.673,0.88,1.266,1.291,1.857c0.985-0.264,1.225-0.877,1.04-1.612c-0.288-1.146-0.616-2.219-1.871-2.855
	c-1.27-0.644-2.484-1.526-2.512-3.196c1.813-2.967,3.478-3.643,6.59-2.542c2.472,0.875,4.783,0.699,7.029-0.658
	c1.396-0.844,2.829-1.58,4.52-1.716c2.085-0.169,3.687,0.457,4.725,2.624c-0.315,0.325-0.681,0.702-1.049,1.078
	c-0.085-0.491-0.169-0.979-0.277-1.612C149.266,87.654,149.266,87.654,150.458,88.229z M46.484,100.591
	c0.107,0.733,0.181,1.414,0.311,2.083c0.385,1.978,1.843,2.803,3.76,2.118c0.646-0.231,1.258-0.555,1.896-0.812
	c0.224-0.09,0.478-0.105,0.754-0.163c0.266,0.354,0.516,0.689,0.884,1.181c0.78-0.328,1.535-0.645,2.288-0.961
	c-1.141-2.781-2.065-3.208-4.525-2.257c-0.407,0.158-0.794,0.388-1.214,0.5c-0.446,0.12-0.919,0.139-1.493,0.216
	c0.018-1.318,0.057-2.525-1.066-3.187c-0.85-0.5-1.763-0.958-2.708-1.215c-3.035-0.826-5.774,0.003-8.436,1.535
	c-1.71,0.984-2.747,2.316-3.093,4.222c-0.029,0.165,0.057,0.35,0.107,0.622c0.295,0.035,0.582,0.069,0.815,0.097
	C38.062,100.033,41.266,98.793,46.484,100.591z M32.357,111.252c-0.817-0.159-1.442-0.234-2.039-0.406
	c-2.378-0.683-4.559-0.225-6.622,1.053c-1.645,1.017-3.326,1.976-4.94,3.037c-0.583,0.383-1.02,0.99-1.472,1.443
	c0.864,1.566,0.864,1.566,2.37,1.957c1.807-1.18,3.131-3.229,5.48-3.656c2.202-0.402,4.42-0.72,6.723-1.088
	c0.278-0.306,0.607-0.668,0.973-1.069C32.67,112.091,32.523,111.7,32.357,111.252z M153.393,110.311
	c0.042,1.699,0.194,1.948,1.666,2.262c2.16,0.459,4.18,1.233,6.111,2.314c1.243,0.695,1.942,1.699,2.347,3.005
	c0.215,0.693,0.507,1.362,0.84,2.243c0.821-0.212,1.473-0.38,2.086-0.538C165.861,113.408,158.191,108.021,153.393,110.311z
	 M63.142,111.764c5.146-0.705,7.351-1.957,7.796-4.685c-0.731,0.22-1.375,0.343-1.956,0.601c-3.054,1.351-6.043,1.34-8.97-0.343
	c-0.799-0.46-1.58-0.515-2.486-0.165C58.299,110.214,60.936,110.71,63.142,111.764z M125.464,118.169
	c-2.653-0.41-4.419-1.62-6.095-3.017c-1.55-1.292-3.325-1.387-4.976-0.298c-0.64,0.422-1.2,0.953-0.383,1.867
	c1.388-0.563,2.765-0.492,4.029,0.361c0.511,0.345,0.976,0.768,1.43,1.189C121.104,119.79,123.053,119.875,125.464,118.169z
	 M18.225,108.969c-0.554-0.757-0.984-1.345-1.366-1.867c-2.523,0.699-4.422,1.845-5.676,3.875c0.961,1.49,1.104,1.556,2.806,1.3
	C14.467,110.372,16.305,109.965,18.225,108.969z M83.693,101.113c3.148,2.833,6.615,2.475,7.552-0.842
	c-0.854,0.103-1.604,0.193-2.608,0.314c-1.084-0.43-2.392-0.949-3.856-1.531C84.395,99.784,84.06,100.417,83.693,101.113z
	 M167.297,126.993c-3.729,0.641-3.729,0.641-4.079,1.869c1.48,0.934,2.909,0.764,4.519-0.287
	C167.6,128.082,167.456,127.565,167.297,126.993z M98.235,82.833c0,1.147,0,1.949,0,2.808c1.877-0.514,1.998-0.704,1.77-2.693
	C99.528,82.917,99.02,82.884,98.235,82.833z M86.888,57.739c-0.699-1.12-1.503-1.281-2.456-1.021c-0.309,1.597-0.3,1.61,1.549,2.262
	C86.267,58.588,86.59,58.145,86.888,57.739z M139.396,118.677c-2.16-0.764-2.923-0.519-3.571,0.97
	C137.188,119.823,138.436,119.798,139.396,118.677z M160.351,140.991c-0.349,1.243,0.27,1.748,1.233,2.054
	c0.76-0.347,0.92-0.914,0.644-1.541C161.89,140.74,161.219,140.718,160.351,140.991z M99.054,99.405
	c-0.997,0.703-1.022,1.381-0.515,2.059c0.222,0.296,0.656,0.433,1.093,0.703c0.283-0.491,0.482-0.838,0.733-1.275
	C99.929,100.396,99.535,99.951,99.054,99.405z M158,121.067c0.854,1.774,1.15,1.878,2.352,0.93
	C159.549,120.411,159.473,120.377,158,121.067z M95.375,77.721c-0.395-0.683-0.926-0.943-1.548-0.55
	c-0.718,0.456-0.821,1.146-0.427,1.919C94.587,79.314,95.137,78.763,95.375,77.721z M148.94,139.436
	c-0.396,1.616-0.328,1.741,1.155,2.282C151.008,140.497,150.808,140.062,148.94,139.436z M21.818,105.234
	c-0.597,0.775-0.489,1.481,0.217,2.104c0.52,0.458,1.021,0.417,1.383-0.269C23.335,106.134,22.995,105.406,21.818,105.234z
	 M110.781,72.898c-1.793,0.591-1.989,1.112-0.944,2.271C111.456,74.414,111.466,74.392,110.781,72.898z M46.927,93.319
	c0.253-1.626,0.249-1.633-1.152-2.273C44.916,92.396,45.21,93.042,46.927,93.319z M135.404,105.677
	c0.271,1.83,0.743,2.125,2.094,1.42C137.246,105.586,137.147,105.514,135.404,105.677z M147.983,110.459
	c-0.515-1.658-0.838-1.815-2.266-1.19C146.232,111.009,146.431,111.125,147.983,110.459z M36.973,111.77
	c-1.077,0.951-0.798,1.679-0.193,2.274c0.521,0.514,1.101,0.437,1.61-0.496C37.986,113.042,37.53,112.469,36.973,111.77z
	 M121.366,96.014c0.46-0.042,0.956-0.086,1.555-0.14c-0.087-1.279-0.608-1.855-1.694-2.005
	C120.487,94.608,120.871,95.227,121.366,96.014z M110.103,66.468c1.74-0.074,1.981-0.384,1.579-1.893
	C110.08,64.64,109.976,64.755,110.103,66.468z M96.261,118.276c-1.183-1.393-1.341-1.442-2.479-0.935
	c0.295,1.178,0.55,1.635,1.143,1.586C95.366,118.891,95.78,118.523,96.261,118.276z M136.019,101.155
	c-0.259-1.744-0.556-1.917-2.115-1.362C134.283,101.455,134.356,101.505,136.019,101.155z M161.142,132.771
	c0.384,1.987,0.873,2.214,2.335,1.052C162.935,132.93,162.342,132.245,161.142,132.771z M13.124,134.642
	c-0.862,1.166-0.688,1.598,0.873,2.157C14.685,135.526,14.607,135.334,13.124,134.642z M110.475,80.58
	c1.104-0.009,1.527-0.688,1.925-1.747c-0.5-0.239-0.949-0.454-1.368-0.654C110.142,78.946,109.823,79.635,110.475,80.58z
	 M141.83,146.609c-0.08-1.593-0.08-1.593-1.613-1.862C139.699,146.406,140,146.785,141.83,146.609z M106.428,72.652
	c1.733-0.209,1.842-0.347,1.592-1.89C106.451,70.613,106.158,70.935,106.428,72.652z M48.832,90.951
	c-0.608,1.484-0.438,1.816,1.121,2.182C50.621,91.654,50.509,91.436,48.832,90.951z M25.263,98.869
	c0.243-1.545,0.173-1.64-1.431-1.944C23.312,98.568,23.636,99.009,25.263,98.869z M72.659,104.244c0,0.911,0,1.531,0,2.353
	c0.57,0.028,1.055,0.053,1.564,0.078C74.139,105.136,74.139,105.136,72.659,104.244z M32.597,107.722
	c0.588-0.718,0.473-1.33-0.106-1.868c-0.548-0.509-1.095-0.467-1.65,0.096C31.077,106.957,31.376,107.781,32.597,107.722z
	 M82.491,108.471c-0.663,1.54-0.599,1.705,0.817,2.37C84.201,109.526,84.096,109.177,82.491,108.471z M106.48,84.323
	c0.414,0.24,0.904,0.523,1.686,0.976c0.176-0.962,0.297-1.617,0.419-2.289C107.301,82.655,106.634,82.927,106.48,84.323z
	 M42.01,113.553c-0.132-2.026-0.132-2.026-1.602-2.313c-0.552,0.612-0.467,1.301,0.042,1.805
	C40.754,113.345,41.346,113.353,42.01,113.553z M130.84,112.795c-0.439-1.548-0.815-1.739-2.155-1.097
	C129.042,113.441,129.452,113.65,130.84,112.795z M172.928,134.877c-0.594,0.958-0.26,1.616,0.574,2.209
	c0.243-0.065,0.523-0.066,0.688-0.205c0.219-0.186,0.348-0.478,0.5-0.704C174.418,135.252,173.947,134.723,172.928,134.877z
	 M91.747,136.522c-0.563,1.099-0.49,1.824,0.387,2.246c0.628,0.301,1.212,0.195,1.308-0.957
	C92.976,137.457,92.406,137.024,91.747,136.522z M152.658,125.682c-0.834,1.058-0.486,1.633,0.161,1.988
	c0.621,0.341,1.302,0.39,1.718-0.712C153.931,126.546,153.325,126.135,152.658,125.682z M100.358,121.13
	c-0.381,1.578-0.381,1.578,1.327,2.245c0.209-0.345,0.434-0.716,0.774-1.278C101.647,121.723,101.021,121.436,100.358,121.13z
	 M155.402,140.586c-0.266,1.021,0.09,1.674,1.104,2.154c0.308-0.274,0.604-0.537,0.912-0.81
	C157.029,140.959,156.611,140.262,155.402,140.586z M114.883,143.928c-0.158,1.921,0.225,2.281,1.726,1.776
	C116.574,144.255,116.569,144.249,114.883,143.928z M31.488,119.381c-0.649-1.669-0.649-1.669-2.013-1.274
	c-0.133,0.961,0.202,1.619,1.263,1.933C30.998,119.812,31.257,119.585,31.488,119.381z M88.509,78.41
	c-0.781,0.63-1.152,1.238-0.681,2.104c1.42-0.076,2.012-0.537,1.844-1.562C89.335,78.794,88.92,78.602,88.509,78.41z
	 M77.453,146.417c-0.031-1.544-0.031-1.544-1.559-1.998C75.341,146.049,75.623,146.447,77.453,146.417z M89.889,93.039
	c1.077-0.118,1.621-0.643,1.784-1.645c-0.464-0.601-1.015-0.75-1.593-0.281C89.493,91.59,89.308,92.208,89.889,93.039z
	 M25.273,135.758c0.328-1.661,0.09-1.974-1.423-1.869C23.69,135.568,23.778,135.683,25.273,135.758z M30.299,95.369
	c-0.289,1.981,0.043,2.372,1.517,1.937C31.828,95.728,31.828,95.728,30.299,95.369z M167.431,139.442
	c0.023,1.818,0.137,1.941,1.615,1.903C169.409,139.789,169.174,139.488,167.431,139.442z M144.934,130.487
	c-0.145,0.942,0.266,1.458,1.072,1.675c0.609,0.164,1.078-0.009,1.264-0.866C146.599,130.808,146.055,130.02,144.934,130.487z
	 M99.182,54.481c0.156-1.951,0.06-2.059-1.659-2.217c-0.061,0.33-0.124,0.669-0.21,1.131C97.879,53.724,98.417,54.037,99.182,54.481
	z M101.705,101.494c-0.747,0.089-0.952,0.563-0.808,1.18c0.163,0.699,0.556,1.202,1.437,1.154
	C102.901,102.793,102.591,102.069,101.705,101.494z M149.754,103.434c-0.531-0.929-1.153-1.362-2.256-1.179
	c-0.299,1.14,0.328,1.618,1.205,1.971c0.184-0.078,0.371-0.126,0.52-0.23C149.367,103.895,149.474,103.738,149.754,103.434z
	 M159.07,128.551c0.081,1.81,0.551,2.07,2.277,1.217C160.853,128.904,160.35,128.23,159.07,128.551z M100.303,57.011
	c-0.896,0.536-1.419,1.104-0.877,2.095c1.339-0.118,1.979-0.632,1.828-1.583C100.979,57.375,100.631,57.188,100.303,57.011z
	 M173.408,119.291c-0.597-1.384-0.597-1.384-2.072-1.168C171.561,119.877,172.009,120.13,173.408,119.291z M83.081,148.465
	c-0.12-0.952-0.521-1.603-1.487-1.801c-0.881,0.412-0.686,0.988-0.319,1.56C81.724,148.923,82.292,149.049,83.081,148.465z
	 M88.623,107.742c-0.811,1.518-0.525,2.075,1.09,2.123C90.006,108.386,89.958,108.292,88.623,107.742z M13.867,122.478
	c-0.652,0.779-0.556,1.434-0.045,1.989c0.434,0.474,0.967,0.535,1.482-0.119C15.278,123.46,14.978,122.749,13.867,122.478z
	 M119.837,147.227c-0.328-1.226-0.961-1.591-2.004-1.458c-0.336,1.033,0.018,1.684,0.973,2.206
	C119.129,147.741,119.447,147.509,119.837,147.227z M57.696,113.043c-0.569,1.591-0.512,1.707,1.034,2.278
	C59.369,113.816,59.341,113.75,57.696,113.043z M86.629,86.269c-0.749,0-1.352-0.181-1.687,0.04c-0.59,0.39-0.859,1.049-0.294,1.782
	C85.81,88.342,86.147,87.578,86.629,86.269z M110.93,88.311c1.53,0.155,1.646,0.043,1.689-1.606
	C111.067,86.16,110.692,86.516,110.93,88.311z M92.812,85.688c-0.602-0.056-1.128-0.105-1.796-0.167c0,0.793,0,1.408,0,2.163
	C92.131,87.417,92.938,87.186,92.812,85.688z M111.794,72.191c1.658-0.189,1.762-0.311,1.666-1.857
	C111.887,70.136,111.654,70.372,111.794,72.191z M101.382,70.541c-1.723-0.236-1.786-0.184-1.96,1.523
	C100.934,72.431,101.025,72.365,101.382,70.541z M103.279,78.635c1.534,0.223,1.684,0.089,1.721-1.548
	C103.489,76.828,103.325,76.974,103.279,78.635z M53.514,98.717c0.691-0.48,1.322-0.841,1.849-1.318
	c0.219-0.198,0.304-0.654,0.269-0.973c-0.016-0.155-0.445-0.266-0.539-0.317c-0.718,0.627-1.301,1.136-1.962,1.712
	C53.242,98.083,53.373,98.389,53.514,98.717z M116.874,96.869c-0.478,0.915-0.33,1.636,0.382,2.049
	c0.342,0.198,0.927-0.024,1.561-0.067C118.391,97.734,118.066,96.977,116.874,96.869z M122.034,146.533
	c-0.518,1.073-0.272,1.762,0.54,2.189c0.707,0.37,1.157,0.045,1.354-0.928C123.349,147.408,122.729,146.995,122.034,146.533z
	 M90.107,146.229c-0.418,1.864-0.079,2.242,1.59,1.792C91.729,146.919,91.264,146.289,90.107,146.229z M126.217,144.759
	c-0.724-1.673-0.724-1.673-1.984-1.343C124.47,145.139,124.801,145.385,126.217,144.759z M39.583,143.076
	c-0.905,0.45-0.818,1.032-0.487,1.613c0.344,0.603,0.844,0.858,1.574,0.409C40.961,144.114,40.512,143.515,39.583,143.076z
	 M104.372,144.366c-0.071-1.557-0.071-1.557-1.498-1.838C102.453,144.305,102.749,144.668,104.372,144.366z M94.644,102.791
	c1.104-1.238,0.846-1.92-0.89-2.352C93.437,101.413,93.37,102.245,94.644,102.791z M140.697,141.845
	c0.801-0.55,0.548-1.156,0.184-1.663c-0.386-0.538-0.92-0.851-1.594-0.22C139.165,141.052,139.706,141.619,140.697,141.845z
	 M170.484,124.864c-0.37,1.199-0.145,1.804,0.708,2.105c0.732,0.259,1.196-0.01,1.36-1.018
	C171.966,125.643,171.348,125.318,170.484,124.864z M44.008,139.888c0.422-1.736,0.309-1.915-1.201-2.087
	C42.426,139.266,42.426,139.266,44.008,139.888z M33.441,141.871c0.749-1.31,0.548-1.688-0.983-2.046
	C31.969,141.01,31.969,141.01,33.441,141.871z M65.341,96.031c-0.13-1.284-0.392-2.071-1.821-2.112
	c0.035,0.691,0.066,1.303,0.104,2.032C64.248,95.98,64.694,96.001,65.341,96.031z M95.229,93.64
	c-1.624-0.133-1.952,0.341-1.307,1.888C95.436,95.012,95.436,95.012,95.229,93.64z M16.125,118.26
	c-0.61,1.921-0.312,2.312,1.433,2.024C17.591,119.322,17.206,118.66,16.125,118.26z M113.373,58.853
	c-1.659,0.182-1.689,0.215-1.691,1.727C113.258,60.784,113.348,60.699,113.373,58.853z M137.017,95.936
	c0.046,1.93,0.495,2.218,2.077,1.461C138.916,96.285,138.211,95.924,137.017,95.936z M93.694,54.946
	c-0.726-0.361-1.366-0.681-2.046-1.019c-0.465,0.969-0.143,1.473,0.453,1.779C92.633,55.98,93.192,55.975,93.694,54.946z
	 M137.28,92.565c0.479,0.668,0.717,1.242,1.146,1.532c0.522,0.354,1.07,0.137,1.366-0.586
	C139.443,92.61,138.827,92.195,137.28,92.565z M118.993,107.203c-0.231,1.257-0.073,1.866,0.674,2.197
	c0.611,0.271,1.083,0.119,1.396-0.803C120.48,108.205,119.869,107.792,118.993,107.203z M125.527,98.081
	c-0.169-1.647-0.169-1.647-1.674-1.855C123.626,97.939,123.867,98.229,125.527,98.081z M74.65,112.276
	c-0.779,0.587-0.757,1.229-0.338,1.716c0.276,0.322,0.857,0.383,1.392,0.598C76.006,113.296,75.652,112.659,74.65,112.276z
	 M105.131,146.962c-0.574,0.634-0.377,1.236,0.14,1.759c0.453,0.458,0.949,0.475,1.375-0.061
	C106.211,147.31,106.211,147.31,105.131,146.962z M27.53,104.402c-0.301,1.778,0.029,2.181,1.57,1.91
	C28.92,105.445,28.986,104.471,27.53,104.402z M55.787,112.234c0.612-1.712,0.357-2.105-1.27-2.161
	C54.03,111.251,54.73,111.75,55.787,112.234z M76.154,79.793c-0.019,1.915,0.408,2.196,2.11,1.588
	c-0.015-0.257-0.032-0.541-0.056-0.916C77.562,80.254,76.949,80.053,76.154,79.793z M21.286,101.22
	c-0.027-1.796-0.027-1.796-1.776-2.065c0.137,0.742,0.257,1.393,0.382,2.065C20.457,101.22,20.806,101.22,21.286,101.22z
	 M78.685,68.118c0.206,1.031,0.65,1.59,1.509,1.548c0.367-0.017,0.716-0.405,1.181-0.691C80.521,68.074,79.8,67.792,78.685,68.118z
	 M61.633,104.917c0.855-1.454,0.642-1.902-0.945-2.28C60.122,103.696,60.566,104.344,61.633,104.917z M93.676,64.15
	c-0.36-0.779-0.731-1.527-1.851-1.369c-0.627,0.739-0.204,1.229,0.28,1.629C92.573,64.796,93.103,64.874,93.676,64.15z
	 M103.977,63.923c-1.651,0.562-1.682,0.61-1.326,1.947C104.184,65.575,104.197,65.557,103.977,63.923z M10.833,121.306
	c0.048-1.129-0.362-1.694-1.362-1.827C8.843,121.027,9.155,121.463,10.833,121.306z M78.004,111.103
	c0.965-1.471,0.824-1.844-0.868-2.306C76.485,109.838,77.097,110.426,78.004,111.103z M83.877,63.049
	c-0.129,1.132,0.292,1.595,1.063,1.706c0.613,0.088,1.126-0.096,1.058-1.138C85.363,63.447,84.668,63.26,83.877,63.049z
	 M75.206,86.426c-0.795-1.167-0.795-1.167-2.137-0.981C73.397,87.169,73.97,87.432,75.206,86.426z M60.861,137.829
	c-0.465,1.732-0.324,1.93,1.236,1.915C62.325,138.338,62.325,138.338,60.861,137.829z M80.861,74.903
	c0.828,1.775,1.209,1.889,2.24,0.718C82.595,74.822,81.957,74.452,80.861,74.903z M107.513,58.633
	c-1.026-0.396-1.46,0.151-1.69,0.792c-0.122,0.338,0.083,0.794,0.148,1.255C107.266,60.353,107.58,59.672,107.513,58.633z
	 M26.175,122.206c0.071-0.164,0.143-0.328,0.214-0.492c-0.484-0.514-0.969-1.028-1.454-1.542c-0.164,0.072-0.328,0.144-0.492,0.215
	c0.057,0.627,0.114,1.255,0.186,2.051C25.309,122.336,25.742,122.271,26.175,122.206z M97.438,90.25
	c1.405,1.197,1.649,1.159,2.426-0.389C98.92,89.23,98.17,89.519,97.438,90.25z M18.253,136.333
	c-0.239,1.811,0.112,2.146,1.593,1.622C19.812,137.007,19.473,136.367,18.253,136.333z M106.22,102.907
	c0.292-1.804,0.292-1.804-1.005-2.193C104.693,102.176,104.724,102.252,106.22,102.907z M24.287,143.418
	c0.649-1.5,0.486-1.779-1.135-2.113C22.71,142.388,23.07,143.039,24.287,143.418z M107.463,56.249
	c1.188-0.014,1.41-0.771,1.509-1.731C107.291,54.408,107.143,54.58,107.463,56.249z M112.767,54.444
	c-1.42,0.838-1.42,0.838-0.806,2.043C113.274,55.988,113.274,55.988,112.767,54.444z M116.602,127.167
	c-0.444-1.09-1.1-1.51-2.155-1.391C114.927,127.525,115.05,127.611,116.602,127.167z M112.133,110.533
	c-0.874-0.421-1.474-0.71-2.251-1.085C110.271,111.343,110.647,111.55,112.133,110.533z M126.183,118.847
	c-0.429,1.642-0.334,1.802,1.121,2.229C127.711,120.017,126.991,119.551,126.183,118.847z M104.217,91.084
	c1.51-0.219,1.51-0.219,1.219-1.738C104.277,89.422,104.015,90.053,104.217,91.084z M129.299,118.459
	c-0.227,1.868-0.085,2.02,1.607,1.757C130.348,119.605,129.897,119.112,129.299,118.459z M74.987,135.654
	c0.798-0.378,1.314-0.623,1.832-0.867c-0.028-0.143-0.056-0.287-0.083-0.429c-0.492-0.107-0.984-0.213-1.626-0.353
	C75.069,134.553,75.042,134.922,74.987,135.654z M126.643,114.632c0.32,1.018,0.32,1.018,1.287,1.375
	C128.378,114.862,127.829,114.598,126.643,114.632z M98.858,108.02c0.737-0.774,0.979-1.322-0.093-1.721
	C97.884,106.89,98.135,107.387,98.858,108.02z M92.859,150.248c-0.608,0.669-0.881,1.183-0.026,1.73
	C93.766,151.481,93.786,150.971,92.859,150.248z M79.393,117.687c-1.256,0.712-1.256,0.712-0.289,1.629
	c0.172-0.264,0.397-0.496,0.478-0.771C79.637,118.352,79.492,118.101,79.393,117.687z M149.603,138.952
	c0.743-0.173,1.238-0.288,1.921-0.447C150.458,137.547,150.458,137.547,149.603,138.952z M95.308,104.825
	c-0.144-0.059-0.288-0.117-0.432-0.175c-0.213,0.236-0.635,0.514-0.597,0.701c0.074,0.375,0.398,0.699,0.619,1.045
	c0.136-0.053,0.272-0.106,0.409-0.16C95.308,105.765,95.308,105.295,95.308,104.825z M37.627,106.217
	c0.238-0.272,0.449-0.513,0.74-0.845c-0.408-0.314-0.709-0.546-1.049-0.807C36.719,105.312,36.872,105.765,37.627,106.217z
	 M90.093,123.375c-1.088,1.112-1.088,1.112,0.308,1.505C90.28,124.293,90.187,123.834,90.093,123.375z M44.942,118.029
	c-0.098-0.989-0.324-1.547-1.426-1.114C43.603,117.701,43.664,118.386,44.942,118.029z M36.063,125.106
	c-0.371-0.394-0.654-0.694-0.937-0.995c-0.142,0.057-0.282,0.114-0.424,0.171c0.039,0.438,0.078,0.877,0.137,1.554
	C35.394,125.506,35.641,125.359,36.063,125.106z M89.434,67.797c-1.044-0.59-1.044-0.59-1.499,0.228
	C88.442,68.544,88.917,68.675,89.434,67.797z M147.599,126.274c0.646-1.736,0.646-1.736-0.886-1.705
	C146.979,125.08,147.198,125.505,147.599,126.274z M48.031,148.917c-0.523,1.284-0.523,1.284,0.745,1.232
	C48.479,149.657,48.256,149.288,48.031,148.917z M100.24,148.652c0.557-0.91,0.301-1.304-0.462-1.657
	c-0.182,0.404-0.325,0.72-0.504,1.119C99.602,148.297,99.852,148.436,100.24,148.652z M148.831,145.062
	c0.245-0.586,0.384-0.915,0.523-1.245c-0.087-0.104-0.173-0.208-0.259-0.311c-0.405,0.178-0.811,0.355-1.43,0.627
	C148.141,144.513,148.361,144.688,148.831,145.062z M42.86,106.915c0.441,0.184,0.773,0.322,1.105,0.46
	c0.102-0.08,0.204-0.16,0.307-0.24c-0.157-0.409-0.314-0.817-0.59-1.532C43.296,106.22,43.12,106.5,42.86,106.915z M146.696,96.665
	c0.71,0.424,1.035,0.618,1.581,0.943c0.077-0.664,0.125-1.084,0.211-1.833C147.815,96.109,147.435,96.299,146.696,96.665z
	 M100.672,130.583c-0.282,0.617-0.436,0.955-0.674,1.478c0.604,0,0.994,0,1.694,0C101.311,131.506,101.072,131.161,100.672,130.583z
	 M177.16,124.084c0.91,0.47,1.353,0.37,1.512-0.54C177.939,122.95,177.584,123.292,177.16,124.084z M77.627,123.622
	c-0.164,0.011-0.326,0.022-0.488,0.034c-0.084,0.409-0.167,0.817-0.295,1.445c0.583-0.131,0.895-0.202,1.357-0.307
	C77.964,124.31,77.795,123.966,77.627,123.622z M28.436,130.172c-0.475,1.041-0.475,1.041,0.573,1.364
	C29.364,130.839,29.204,130.403,28.436,130.172z M20.632,131.307c0.28-0.863-0.022-1.219-0.93-1.386c0,0.527,0,0.946,0,1.462
	C20.082,131.353,20.356,131.329,20.632,131.307z M166.589,130.456c0.08,0.182,0.16,0.364,0.241,0.545
	c0.403-0.185,0.806-0.369,1.421-0.649C167.241,129.501,166.848,129.76,166.589,130.456z M15.802,131.05
	c0.763-0.808,0.483-1.203-0.304-1.549C14.905,130.109,14.981,130.549,15.802,131.05z M93.101,50.611
	c-0.452-0.075-0.905-0.15-1.714-0.285C92.007,51.405,92.399,51.793,93.101,50.611z M94.982,111.058
	c-1.004,0.697-1.004,0.697-0.062,1.476C95.328,112.045,95.713,111.597,94.982,111.058z M25.615,108.143
	c-0.156,0.044-0.313,0.089-0.47,0.134c0.026,0.398-0.028,0.832,0.118,1.179c0.059,0.138,0.564,0.086,1.282,0.169
	C26.1,108.915,25.857,108.529,25.615,108.143z M37.083,108.138c-0.188,0.064-0.375,0.128-0.562,0.193
	c0.142,0.412,0.281,0.825,0.489,1.434C37.937,108.874,37.799,108.447,37.083,108.138z M36.235,95.256
	c-1.016,0.525-1.05,1.024-0.316,1.726C36.526,96.518,36.853,96.095,36.235,95.256z M9.456,125.803
	c-1.066,1.083-1.066,1.083,0.343,1.409C9.666,126.666,9.561,126.234,9.456,125.803z M44.633,96.333
	c0.157-0.41,0.312-0.82,0.604-1.582C43.932,95.036,43.562,95.352,44.633,96.333z M26.631,94.622c0.115,0.882,0.174,1.336,0.232,1.79
	c0.129,0.024,0.258,0.049,0.386,0.073c0.268-0.332,0.535-0.664,0.901-1.121C27.688,95.137,27.397,94.996,26.631,94.622z
	 M70.177,94.871c0.442,0.564,0.668,0.852,1.142,1.455c0.143-0.79,0.216-1.195,0.328-1.817C71.09,94.646,70.817,94.713,70.177,94.871
	z M22.248,110.606c-0.514-0.3-0.832-0.486-1.198-0.699c-0.199,1.142-0.09,1.391,0.581,1.349
	C21.745,111.135,21.901,110.971,22.248,110.606z M101.914,124.591c-0.735,0.697-0.827,1.192,0.181,1.642
	C102.706,125.598,102.518,125.135,101.914,124.591z M56.647,118.493c-0.92,0.946-0.92,0.946,0.332,1.52
	C56.84,119.374,56.743,118.933,56.647,118.493z M64.744,88.321c-1.156-0.107-1.549,0.158-1.262,0.984
	c0.062,0.179,0.33,0.286,0.679,0.569C64.366,89.327,64.513,88.938,64.744,88.321z M39.607,102.42
	c-0.711,1.436-0.711,1.436,0.709,1.734C40.063,103.536,39.884,103.097,39.607,102.42z M61.298,142.416
	c-0.851,1.27-0.851,1.27,0.603,1.751C61.675,143.511,61.521,143.064,61.298,142.416z M65.616,99.867
	c-0.079,0.328-0.187,0.562-0.176,0.791c0.01,0.214,0.146,0.422,0.355,0.976c0.452-0.583,0.73-0.943,1.16-1.496
	C66.328,100.011,66.003,99.945,65.616,99.867z M76.305,138.876c-0.542,0.512-0.579,0.984-0.008,1.497
	C77.326,139.665,77.326,139.665,76.305,138.876z M102.009,74.836c0.298,0.633,0.702,0.904,1.392,0.531
	C102.984,74.148,102.984,74.148,102.009,74.836z M142.896,100.247c-0.986,0.632-0.669,1.085-0.052,1.634
	C143.52,101.33,143.715,100.872,142.896,100.247z M50.952,144.343c-0.472-0.534-0.737-0.833-1.068-1.207
	C49.328,144.54,49.328,144.54,50.952,144.343z M109.433,144.906c-0.077-0.666-0.138-1.188-0.224-1.92
	C108.017,144.212,108.017,144.212,109.433,144.906z M63.669,145.529c-0.859,0.807-0.859,0.807,0.081,1.453
	C64.433,146.456,64.238,145.986,63.669,145.529z M169.924,133.569c0.062,0.152,0.125,0.305,0.188,0.458
	c0.429-0.108,0.857-0.215,1.617-0.406c-0.586-0.501-0.865-0.739-1.226-1.047C170.26,132.99,170.091,133.28,169.924,133.569z
	 M32.714,101.263c-0.106-0.099-0.214-0.198-0.319-0.296c-0.371,0.149-0.742,0.298-1.269,0.51c0.353,0.455,0.556,0.718,0.982,1.269
	C32.381,102.079,32.548,101.671,32.714,101.263z M86.608,148.857c0.437-0.748,0.437-0.748-0.248-1.33
	C85.908,148.333,85.908,148.333,86.608,148.857z M115.249,132.558c0.145,0.046,0.289,0.091,0.434,0.136
	c0.829-0.609,0.829-0.609-0.166-1.544C115.406,131.731,115.327,132.145,115.249,132.558z M65.992,105.399
	c-1.622,0.431-1.622,0.431-0.809,1.703C65.438,106.565,65.629,106.166,65.992,105.399z M171.359,112.53
	c-0.833,0.724-0.704,1.183,0.012,1.669C171.876,113.388,171.876,113.388,171.359,112.53z M85.635,116.273
	c-0.727,0.745-0.617,1.192,0.178,1.596C86.38,117.312,86.584,116.85,85.635,116.273z M62.454,123.545
	c0.526-0.764,0.484-1.218-0.407-1.561C61.604,122.63,61.417,123.112,62.454,123.545z M150.08,118.845
	c0.155,0.388,0.311,0.776,0.554,1.382C151.347,119.355,151.545,118.876,150.08,118.845z M121.642,125.631
	c1.024-0.776,1.024-0.776,0-1.42C121.642,124.763,121.642,125.197,121.642,125.631z M21.21,125.64
	c-0.038-0.811-0.207-1.281-1.012-1.2C20.078,125.596,20.078,125.596,21.21,125.64z M48.985,123.215
	c-0.155,0.028-0.31,0.056-0.463,0.083c-0.041,0.412-0.083,0.823-0.146,1.448c0.548-0.182,0.848-0.282,1.293-0.431
	C49.385,123.858,49.185,123.537,48.985,123.215z M113.764,119.166c-0.128,0.001-0.255,0.003-0.383,0.004
	c-0.118,0.364-0.234,0.728-0.402,1.249c0.517,0,0.87,0,1.411,0C114.114,119.87,113.939,119.518,113.764,119.166z M163.383,123.775
	c0.653,0.445,0.653,0.445,1.51-0.005C164.341,122.95,163.885,123.058,163.383,123.775z M50.232,117.934
	c-0.164-0.019-0.328-0.037-0.492-0.055c-0.155,0.427-0.312,0.854-0.561,1.539c0.649-0.105,0.959-0.155,1.379-0.223
	C50.429,118.689,50.33,118.312,50.232,117.934z M92.522,70.513c-0.525-0.748-0.988-0.748-1.6-0.075
	C91.48,71.083,91.93,71.389,92.522,70.513z M88.841,51.045c0.041-0.141,0.083-0.283,0.124-0.424
	c-0.703-0.704-0.703-0.704-1.598,0.016C87.978,50.807,88.408,50.926,88.841,51.045z M77.914,147.045
	c-1.044,1.26-1.044,1.26,0.29,1.89C78.102,148.266,78.026,147.782,77.914,147.045z M55.301,146.387
	c-0.148,0.015-0.296,0.03-0.443,0.044c-0.506,0.923-0.506,0.923,0.755,1.413C55.484,147.242,55.393,146.815,55.301,146.387z
	 M131.754,143.345c-0.475,0.232-0.753,0.326-0.977,0.494c-0.116,0.087-0.133,0.305-0.195,0.466
	C131.697,144.678,131.697,144.678,131.754,143.345z M28.739,144.548c1.101-0.439,1.323-0.846,0.747-1.474
	c-0.128-0.14-0.406-0.141-0.826-0.272C28.688,143.402,28.706,143.82,28.739,144.548z M80.794,140.465
	c-0.146,0.021-0.291,0.042-0.437,0.064c-0.096,0.402-0.192,0.804-0.315,1.316c0.48,0,0.755,0,1.348,0
	C81.138,141.262,80.965,140.864,80.794,140.465z M159.483,137.6c-0.984-0.65-1.437-0.572-1.82,0.38
	c0.408,0.089,0.697,0.215,0.971,0.189C158.834,138.15,159.014,137.928,159.483,137.6z M56.029,136.859
	c-0.179-0.438-0.357-0.876-0.628-1.542C54.565,136.322,54.498,136.831,56.029,136.859z M64.976,135.384
	c0.885-1.149,0.885-1.149-0.333-1.761C64.762,134.252,64.846,134.696,64.976,135.384z M151.754,133.184
	c-0.56-0.946-1.081-0.697-1.803-0.22C150.521,133.55,150.963,133.86,151.754,133.184z M36.565,131.19
	c-0.475-0.421-0.752-0.667-1.216-1.079c-0.089,0.543-0.201,0.833-0.158,1.098c0.033,0.197,0.27,0.359,0.656,0.831
	C36.114,131.724,36.294,131.511,36.565,131.19z M120.827,129.774c-0.615,0.734-0.711,1.191,0.033,1.653
	C121.596,130.955,121.496,130.501,120.827,129.774z M126.809,128.695c-0.673,0.695-0.912,1.18-0.021,1.693
	C127.559,129.893,127.504,129.414,126.809,128.695z M42.009,128.057c-0.779,0.729-0.753,1.198,0.001,1.7
	c0.238-0.204,0.452-0.389,0.729-0.627C42.493,128.769,42.3,128.483,42.009,128.057z M54.596,127.65
	c-0.773,0.534-0.839,0.946-0.175,1.385c0.188-0.049,0.325-0.047,0.409-0.114c0.131-0.105,0.226-0.257,0.322-0.374
	c-0.04-0.153-0.043-0.285-0.104-0.379C54.954,128.023,54.82,127.902,54.596,127.65z M47.34,112.427
	c0.937-0.743,0.937-0.743-0.054-1.535C46.784,111.438,46.784,111.924,47.34,112.427z M163.837,111.286
	c0.391,0.47,0.593,0.712,0.995,1.195c0.201-0.666,0.317-1.048,0.524-1.733C164.721,110.973,164.422,111.078,163.837,111.286z
	 M103.468,112.381c-0.593-0.134-0.897-0.203-1.599-0.361c0.261,0.703,0.406,1.097,0.664,1.79
	C102.935,113.195,103.116,112.917,103.468,112.381z M122.324,112.333c-0.423,0.645-0.255,1.058,0.447,1.336
	C123.302,112.629,123.302,112.629,122.324,112.333z M125.08,104.057c-0.792,0.756-0.521,1.143,0.217,1.473
	C125.966,104.944,126.059,104.493,125.08,104.057z M101.545,99.484c0.154-0.005,0.31-0.011,0.464-0.016
	c0.467-0.897,0.467-0.897-0.577-1.483C101.479,98.611,101.512,99.048,101.545,99.484z M18.156,105.112
	c0.351-0.952,0.017-1.302-0.804-1.408C17.04,104.463,17.053,104.974,18.156,105.112z M107.728,98.035
	c-0.458,0.694-0.722,1.185,0.245,1.486C108.557,98.983,108.666,98.546,107.728,98.035z M89.895,114.797
	c0.193,0.054,0.388,0.108,0.582,0.163c0.854-0.339,0.828-0.783-0.246-1.611C90.084,113.979,89.989,114.388,89.895,114.797z
	 M109.002,113.948c-0.668,0-1.022,0-1.706,0c0.379,0.608,0.596,0.955,0.941,1.509C108.528,114.881,108.683,114.577,109.002,113.948z
	 M176.279,115.381c0.774-0.546,0.894-1.001,0.184-1.662C175.593,114.149,175.452,114.604,176.279,115.381z M146.32,117.267
	c0.674-0.736,0.567-1.167-0.125-1.552C145.403,116.268,145.577,116.7,146.32,117.267z M24.173,102.057
	c-0.136,0.064-0.271,0.129-0.406,0.193c-0.173,1.088-0.173,1.088,1.146,1.135C24.616,102.853,24.394,102.455,24.173,102.057z
	 M12.942,115.247c-0.127,0.98-0.127,0.98,0.79,1.464C13.91,115.919,14.062,115.308,12.942,115.247z M112.728,99.539
	c0.586-0.719,0.563-1.153-0.255-1.512C111.884,98.602,111.86,99.041,112.728,99.539z M50.543,107.525
	c-0.734,0.507-0.764,0.997-0.094,1.62C51.514,108.624,51.271,108.119,50.543,107.525z M51.202,88.094
	c0.214,0.044,0.429,0.088,0.643,0.133c0.429-0.425,0.749-0.859-0.341-1.662C51.375,87.216,51.289,87.655,51.202,88.094z
	 M77.085,95.551c-1.149-0.273-1.414,0.096-1.333,0.796c0.028,0.237,0.171,0.461,0.261,0.69c0.148-0.065,0.298-0.13,0.446-0.195
	C76.642,96.465,76.824,96.089,77.085,95.551z M136.249,115.08c-0.188,0.051-0.377,0.102-0.565,0.153
	c0.105,0.419,0.211,0.838,0.373,1.479C136.995,115.881,136.961,115.438,136.249,115.08z M83.725,104.25
	c0.207,0.711,0.313,1.084,0.544,1.882c0.349-0.767,0.501-1.102,0.686-1.508C84.597,104.515,84.379,104.449,83.725,104.25z
	 M41.186,94.316c0.163,0.032,0.326,0.063,0.489,0.096c0.153-0.4,0.307-0.799,0.519-1.349c-0.513,0-0.792,0-1.203,0
	C41.065,93.55,41.126,93.933,41.186,94.316z M74.909,129.966c-0.185,0.012-0.368,0.023-0.552,0.034
	c0.019,0.432,0.037,0.863,0.067,1.554C75.51,130.88,75.521,130.439,74.909,129.966z M83.238,132.225
	c-0.157-0.003-0.314-0.004-0.472-0.007c-0.131,0.35-0.261,0.699-0.443,1.186c0.473,0.07,0.785,0.118,1.38,0.207
	C83.497,132.997,83.368,132.61,83.238,132.225z M136.167,148.929c-1.015-0.972-1.015-0.972-1.871,0
	C134.907,148.929,135.347,148.929,136.167,148.929z M59.511,132.657c-0.2-0.387-0.4-0.773-0.724-1.401
	C58.151,132.289,58.008,132.823,59.511,132.657z M114.848,107.604c0.989-0.803,0.989-0.803-0.098-1.326
	C114.787,106.789,114.817,107.196,114.848,107.604z M82.027,97.395c-0.34,1.029-0.34,1.029,0.471,1.307
	C82.877,98.158,82.954,97.703,82.027,97.395z M9.408,132.15c0.189-0.069,0.378-0.137,0.566-0.205c0.28-0.669,0.184-1.126-1.113-1.22
	C9.1,131.346,9.254,131.749,9.408,132.15z M173.246,131.004c-0.427-1.265-0.83-0.982-1.443-0.104
	C172.436,130.946,172.84,130.975,173.246,131.004z M78.448,76.063c-0.852-0.439-1.346-0.726-1.91-0.026
	C77.059,76.722,77.552,76.699,78.448,76.063z M158.928,106.79c-0.677-0.074-0.952-0.104-1.4-0.152
	c0.067,0.528,0.115,0.897,0.209,1.623C158.196,107.692,158.433,107.4,158.928,106.79z M99.372,77.533
	c0.023-0.185,0.046-0.37,0.069-0.554c-0.437-0.362-0.873-0.691-1.544,0.309C98.515,77.39,98.943,77.461,99.372,77.533z
	 M125.181,138.756c0.597,0,0.941,0,1.498,0c-0.247-0.528-0.401-0.859-0.666-1.423C125.691,137.883,125.502,138.206,125.181,138.756z
	 M101.144,140.659c0.216-0.851,0.216-0.851-0.531-1.492C100.395,139.893,100.089,140.442,101.144,140.659z M38.863,97.29
	c0.919-0.365,1.149-0.769,0.743-1.502C38.469,95.771,38.668,96.413,38.863,97.29z M29.646,138.62
	c0.537-0.812,0.329-1.201-0.429-1.504C28.826,137.761,28.654,138.242,29.646,138.62z M53.844,94.286
	c-1.235-0.004-1.342,0.396-1.057,1.026c0.04,0.089,0.184,0.131,0.448,0.308C53.408,95.241,53.567,94.892,53.844,94.286z
	 M145.254,137.478c1.087,0.353,1.087,0.353,1.351-0.498c-0.235-0.038-0.492-0.16-0.667-0.087
	C145.695,136.994,145.516,137.242,145.254,137.478z M119.391,137.123c0.824-0.595,0.716-1.051,0.103-1.583
	C118.747,135.974,118.635,136.406,119.391,137.123z M102.062,135.653c-0.18-0.011-0.358-0.021-0.538-0.032
	c-0.033,0.437-0.066,0.874-0.116,1.545C102.659,136.659,102.562,136.19,102.062,135.653z M80.187,104.19
	c-0.494-0.187-0.814-0.307-1.446-0.545c0.151,0.715,0.236,1.112,0.392,1.846C79.598,104.917,79.829,104.631,80.187,104.19z
	 M49.312,97.807c1.159-0.757,1.159-0.757,0.099-1.377C49.372,96.953,49.342,97.38,49.312,97.807z M133.955,136.008
	c0.547-0.224,1.023-0.301,1.05-0.455c0.05-0.291-0.15-0.629-0.273-0.937c-0.013-0.031-0.21,0.012-0.438,0.03
	C134.211,134.975,134.12,135.339,133.955,136.008z M89.633,61.899c-0.561-1.188-0.561-1.188-1.787-0.416
	C88.525,61.642,88.979,61.747,89.633,61.899z M155.84,134.868c-0.628-0.753-0.628-0.753-1.442,0.038
	C154.91,135.455,155.369,135.522,155.84,134.868z M140.165,133.332c-0.606,0.618-0.606,0.618-0.333,1.468
	C140.646,134.431,140.721,134,140.165,133.332z M50.816,134.454c0.498-0.786,0.245-1.155-0.424-1.483
	C49.9,133.646,49.853,134.097,50.816,134.454z M146.224,113.635c0.507-0.533,0.617-0.942-0.092-1.395
	C145.418,112.77,145.498,113.169,146.224,113.635z M69.57,122.548c-0.15,0.013-0.301,0.025-0.451,0.039
	c-0.041,0.395-0.083,0.79-0.15,1.441c0.584-0.239,0.876-0.359,1.285-0.526C69.963,123.096,69.767,122.822,69.57,122.548z
	 M147.927,87.914c-0.863,0.515-0.88,0.522-0.646,1.132c0.041,0.108,0.299,0.132,0.646,0.272
	C147.927,88.793,147.927,88.389,147.927,87.914z M94.416,73.501c0.496,0.551,0.894,0.907,1.516,0.157
	C95.518,72.855,95.069,72.878,94.416,73.501z M77.371,99.016c-0.187-0.023-0.374-0.048-0.561-0.072
	c-0.697,0.479-0.597,0.922,0.388,1.615C77.275,99.877,77.323,99.446,77.371,99.016z M60.011,99.124c0.872-0.77,0.872-0.77,0-1.391
	C60.011,98.288,60.011,98.706,60.011,99.124z M81.583,113.161c0.069,0.43,0.139,0.86,0.25,1.54
	C82.704,113.93,82.976,113.473,81.583,113.161z M35.574,145.549c1.076-0.441,0.935-0.873,0-1.508
	C35.574,144.709,35.574,145.129,35.574,145.549z M156.436,120.038c0.657-1.505,0.657-1.505-0.574-1.646
	C156.026,118.863,156.158,119.244,156.436,120.038z M9.834,115.571c-0.263-0.365-0.525-0.73-0.915-1.273
	C8.468,115.355,8.42,115.905,9.834,115.571z M111.458,147.644c-0.243-0.731-0.37-1.116-0.498-1.501
	c-0.121-0.006-0.243-0.013-0.363-0.019c-0.176,0.375-0.351,0.751-0.587,1.254C110.479,147.464,110.749,147.514,111.458,147.644z
	 M96.881,144.679c-1.085,0.873-1.085,0.873,0.066,1.365C96.922,145.53,96.901,145.104,96.881,144.679z M66.749,116.906
	c-0.728,1.668-0.728,1.668,0.605,1.608C67.187,118.068,67.039,117.676,66.749,116.906z M166.623,117.053
	c0.732,0.467,1.245,0.654,1.599-0.355C167.593,116.216,167.128,116.221,166.623,117.053z M81.86,83.796
	c-0.015-1.225-0.385-1.423-1.066-1.113c-0.09,0.04-0.127,0.193-0.298,0.474C80.88,83.337,81.243,83.507,81.86,83.796z
	 M104.465,108.473c0.212-0.059,0.424-0.118,0.636-0.177c0.209-0.56,0.379-1.105-0.972-1.306
	C104.268,107.601,104.365,108.037,104.465,108.473z M28.38,101.487c0.144,0.031,0.287,0.062,0.43,0.094
	c0.163-0.346,0.327-0.692,0.554-1.171c-0.432-0.072-0.698-0.116-1.144-0.19C28.286,100.747,28.334,101.117,28.38,101.487z
	 M91.104,130.705c0.756-0.757,0.68-1.221-0.186-1.628C90.369,129.667,90.191,130.143,91.104,130.705z M153.046,107.362
	c-0.594,0.101-0.901,0.153-1.371,0.232c0.198,0.502,0.334,0.847,0.611,1.548C152.604,108.397,152.772,108.004,153.046,107.362z
	 M67.117,129.016c-0.176-0.041-0.351-0.082-0.526-0.123c-0.142,0.404-0.284,0.809-0.512,1.455c0.622-0.091,0.895-0.131,1.239-0.183
	C67.238,129.713,67.178,129.364,67.117,129.016z M49.916,129.82c0.182-0.049,0.361-0.099,0.542-0.148
	c0.413-0.654,0.277-1.101-0.928-1.451C49.699,128.919,49.808,129.37,49.916,129.82z M133.582,127.559
	c-0.974,0.794-0.974,0.794,0,1.441C133.582,128.438,133.582,127.999,133.582,127.559z M84.824,144.105
	c0.821-0.309,1.027-0.681,0.547-1.264c-0.085-0.104-0.328-0.079-0.574-0.129c-0.081,0.257-0.191,0.477-0.207,0.703
	C84.578,143.577,84.696,143.748,84.824,144.105z M82.888,127.852c0.907-0.352,1.322-0.769,0.453-1.271
	c-0.082-0.047-0.229,0.021-0.453,0.049C82.888,127.03,82.888,127.441,82.888,127.852z M69.648,147.868
	c-0.337-0.406-0.572-0.688-1.052-1.266c-0.117,0.78-0.18,1.192-0.285,1.896C68.906,148.218,69.199,148.08,69.648,147.868z
	 M87.631,73.992c0.524,1.019,0.998,1.171,1.549,0C88.529,73.992,88.08,73.992,87.631,73.992z M43.188,146.951
	c-0.15,0.044-0.301,0.09-0.452,0.135c-0.055,0.357-0.11,0.714-0.188,1.207c0.49-0.034,0.811-0.057,1.414-0.099
	C43.619,147.642,43.404,147.296,43.188,146.951z M58.354,124.723c-0.521,1.702-0.521,1.702,0.746,1.565
	C58.893,125.854,58.711,125.471,58.354,124.723z M121.288,88.994c-0.499,0.594-0.499,0.594-0.141,1.309
	C121.68,89.651,121.68,89.651,121.288,88.994z M130.638,88.814c-0.503,0.783-0.503,0.783,0.159,1.465
	C131.086,89.724,131.512,89.23,130.638,88.814z M108.052,124.03c-0.626,0.577-0.766,1.022-0.119,1.603
	C108.741,125.262,108.731,124.815,108.052,124.03z M133.759,90.779c-0.2,0.047-0.399,0.093-0.6,0.14c0.11,0.4,0.222,0.8,0.408,1.481
	C134.294,91.56,134.435,91.121,133.759,90.779z M84.026,70.583c0.03,0.704,0.42,0.911,0.946,0.788
	c0.162-0.038,0.246-0.411,0.451-0.788C84.832,70.583,84.44,70.583,84.026,70.583z M145.195,87.788
	c0.074-0.576,0.125-0.961,0.197-1.513C144.448,86.854,144.448,86.854,145.195,87.788z M96.911,67.773
	c0.103-0.153,0.204-0.305,0.307-0.457c-0.111-0.602-0.52-0.734-1.13-0.503c-0.084,0.032-0.125,0.181-0.294,0.444
	C96.184,67.437,96.547,67.605,96.911,67.773z M92.339,58.084c0.228,0.991,0.614,1.201,1.348,0.358
	C93.123,58.293,92.731,58.189,92.339,58.084z M105.078,55.048c0.019-0.199,0.037-0.397,0.055-0.596
	c-0.447-0.375-0.894-0.665-1.518,0.432C104.223,54.952,104.65,55,105.078,55.048z M175.934,133.358
	c0.779,0.451,1.215,0.359,1.511-0.486C176.768,132.487,176.315,132.46,175.934,133.358z M43.016,134.363
	c0.088-0.124,0.177-0.247,0.265-0.37c-0.235-0.298-0.472-0.597-0.924-1.171c-0.122,0.712-0.177,1.029-0.249,1.455
	C42.479,134.312,42.748,134.338,43.016,134.363z M150.482,124.326c0.31-0.618,0.473-0.945,0.723-1.442
	c-0.521-0.028-0.837-0.044-1.36-0.071C150.066,123.339,150.21,123.682,150.482,124.326z M166.318,134.301
	c0.754,0.902,1.231,0.931,1.35-0.373C167.109,134.082,166.714,134.192,166.318,134.301z M65.803,81.218
	c-0.187-0.04-0.372-0.081-0.559-0.122c-0.06,0.42-0.118,0.838-0.217,1.534C66.007,82.169,66.243,81.801,65.803,81.218z
	 M110.183,137.5c-0.064-0.652-0.105-1.069-0.177-1.79C109.225,136.796,109.225,136.796,110.183,137.5z M133.222,138.351
	c0.123-0.082,0.245-0.164,0.368-0.246c-0.111-0.38-0.222-0.76-0.443-1.516c-0.391,0.672-0.573,0.984-0.816,1.402
	C132.721,138.149,132.972,138.25,133.222,138.351z M168.747,122.462c-0.031-0.193-0.062-0.385-0.094-0.578
	c-0.573-0.46-0.963-0.261-1.494,0.789C167.903,122.574,168.325,122.518,168.747,122.462z M119.44,104.44
	c0.02-0.458,0.112-0.733,0.02-0.911c-0.113-0.216-0.382-0.351-0.649-0.577C118.273,103.761,118.373,104.173,119.44,104.44z
	 M153.173,123.017c0.997-0.348,1.013-0.763,0.61-1.235c-0.138-0.161-0.391-0.223-0.826-0.455
	C153.041,121.984,153.096,122.416,153.173,123.017z M110.776,104.23c0.875-0.648,0.88-1.086-0.227-1.382
	C110.643,103.42,110.709,103.825,110.776,104.23z M40.347,120.974c-0.147,0.022-0.296,0.045-0.443,0.067
	c-0.019,0.411-0.036,0.821-0.062,1.379c0.456-0.129,0.714-0.201,1.118-0.315C40.711,121.645,40.528,121.31,40.347,120.974z
	 M166.393,138.159c-0.965-0.929-1.35-0.721-1.818,0.423C165.288,138.416,165.699,138.32,166.393,138.159z M176.769,138.865
	c-0.128-1.087-0.462-1.285-1.093-0.797c-0.104,0.081-0.078,0.329-0.138,0.628C175.908,138.746,176.227,138.791,176.769,138.865z
	 M99.683,128.316c-0.28-0.537-0.444-0.851-0.673-1.29c-0.234,0.32-0.405,0.453-0.427,0.606c-0.031,0.219,0.047,0.454,0.079,0.684
	C98.943,128.316,99.119,128.316,99.683,128.316z M28.389,125.733c-0.158,0.102-0.316,0.203-0.475,0.305
	c-0.127,0.648-0.09,1.152,1.174,0.811C28.805,126.398,28.598,126.065,28.389,125.733z M140.467,124.312
	c-0.434,0.9-1.049,1.328-0.089,1.796c0.125,0.061,0.333-0.048,0.689-0.111C140.897,125.519,140.755,125.121,140.467,124.312z
	 M143.355,106.584c0.846-0.185,0.789-0.635,0.396-1.323C143.036,105.54,142.794,105.879,143.355,106.584z M96.551,133.643
	c-0.059-0.571-0.098-0.951-0.136-1.332c-0.109-0.017-0.221-0.033-0.33-0.05c-0.171,0.308-0.34,0.614-0.555,1
	C95.883,133.394,96.089,133.47,96.551,133.643z M139.166,110.139c-0.938,0.427-0.966,0.814-0.357,1.268
	c0.074,0.055,0.225,0.007,0.556,0.007C139.299,110.995,139.241,110.622,139.166,110.139z M70.859,82.776
	c0.676,1.343,0.676,1.343,1.694,0.553C72.035,83.159,71.65,83.033,70.859,82.776z M130.678,133.512
	c0.655-0.133,1.055-0.213,1.785-0.361c-0.594-0.459-0.899-0.695-1.35-1.043C130.963,132.592,130.867,132.9,130.678,133.512z
	 M45.564,142.395c-0.146,0.035-0.29,0.07-0.435,0.104c0.039,0.403,0.079,0.806,0.143,1.453c0.449-0.328,0.664-0.486,0.961-0.702
	C45.97,142.913,45.768,142.654,45.564,142.395z M145.127,142.235c-0.607,0.22-1.002,0.362-1.684,0.609
	C144.72,143.392,144.72,143.392,145.127,142.235z M150.371,100.131c-0.4-0.124-0.657-0.203-1.201-0.371
	c0.118,0.642,0.197,1.071,0.275,1.5c0.117,0,0.234,0,0.351,0C149.969,100.922,150.14,100.585,150.371,100.131z M71.07,142.688
	c-0.528,0.585-0.607,1.028,0.101,1.5C71.961,143.63,71.863,143.199,71.07,142.688z M176.594,118.497
	c0.562,0.679,1.006,0.706,1.624,0.098C177.783,117.873,177.368,117.742,176.594,118.497z M157.744,114.617
	c-0.201-0.028-0.402-0.056-0.604-0.084c-0.527,0.429-0.52,0.85,0.428,1.491C157.643,115.424,157.693,115.021,157.744,114.617z
	 M104.777,117.433c-0.875,0.632-0.997,1.016-0.49,1.449c0.072,0.062,0.23,0.021,0.49,0.036
	C104.777,118.52,104.777,118.13,104.777,117.433z M16.996,141.334c-0.209-0.364-0.418-0.727-0.628-1.09
	c-0.16,0.078-0.321,0.156-0.482,0.234C15.725,141.009,15.569,141.538,16.996,141.334z M151.67,114.455
	c-1.078,0.519-1.007,0.942-0.489,1.399c0.069,0.061,0.225,0.022,0.489,0.04C151.67,115.496,151.67,115.109,151.67,114.455z
	 M170.793,140.104c0.821,0.73,1.208,0.677,1.576-0.168c-0.307-0.103-0.516-0.236-0.715-0.222
	C171.45,139.728,171.257,139.884,170.793,140.104z M141.053,114.674c-0.091-0.773-0.141-1.194-0.218-1.842
	C139.706,113.631,139.996,114.021,141.053,114.674z M153.628,103.08c0.188,0.031,0.377,0.062,0.565,0.093
	c0.432-0.422,0.656-0.848-0.342-1.537C153.757,102.252,153.692,102.666,153.628,103.08z M145.474,119.686
	c0.164,0.637,0.271,1.05,0.466,1.806C146.648,120.506,146.814,120.024,145.474,119.686z M98.419,66.23
	c0.552,0.811,0.97,0.976,1.464,0.285c0.047-0.065-0.025-0.216-0.062-0.47C99.41,66.1,99.001,66.154,98.419,66.23z M56.039,88.043
	c0.146,0.056,0.293,0.112,0.439,0.168c0.2-0.302,0.398-0.604,0.652-0.986c-0.359-0.164-0.566-0.257-0.948-0.43
	C56.125,87.304,56.082,87.673,56.039,88.043z M93.411,81.746c-0.032,0.214-0.064,0.428-0.098,0.643
	c0.411,0.044,0.823,0.089,1.234,0.134c0.027-0.186,0.055-0.372,0.082-0.558C94.224,81.891,93.816,81.818,93.411,81.746z
	 M104.688,68.479c-0.014,0.172-0.028,0.345-0.043,0.517c0.42,0.401,0.838,0.521,1.592-0.326
	C105.515,68.581,105.101,68.53,104.688,68.479z M78.264,87.39c0.127-0.08,0.254-0.159,0.381-0.238
	c-0.07-0.305-0.142-0.61-0.237-1.031c-0.399,0.155-0.653,0.254-1.121,0.437C77.715,86.923,77.989,87.157,78.264,87.39z
	 M134.402,87.535c-0.731,0.428-0.6,0.832-0.12,1.345C134.885,88.424,135.058,88.036,134.402,87.535z M124.949,88.997
	c0.175,0.007,0.349,0.014,0.522,0.021c0.027-0.389,0.054-0.777,0.095-1.378C124.493,88.091,124.544,88.51,124.949,88.997z
	 M142.793,119.27c-0.394,0.157-0.644,0.256-1.06,0.423c0.349,0.423,0.581,0.706,1.06,1.285
	C142.793,120.192,142.793,119.809,142.793,119.27z M81.626,88.302c-0.042,0.121-0.083,0.241-0.124,0.361
	c0.322,0.161,0.633,0.36,0.974,0.447c0.061,0.016,0.241-0.43,0.492-0.9C82.346,88.253,81.985,88.277,81.626,88.302z M143.44,97.262
	c0.146-0.37,0.292-0.74,0.487-1.234C142.918,96.271,142.918,96.271,143.44,97.262z M179.001,132.563
	c0.645,0.585,1.034,0.545,1.29-0.489C179.7,132.298,179.35,132.431,179.001,132.563z M82.09,55.029
	c-0.018,0.164-0.036,0.328-0.054,0.491c0.402,0.325,0.802,0.75,1.43-0.24C82.905,55.177,82.498,55.103,82.09,55.029z M87.476,55.063
	c0.677,0.965,0.677,0.965,1.527,0.268C88.45,55.234,88.054,55.165,87.476,55.063z M83.032,61.837
	c0.545-1.195,0.137-1.318-0.942-0.996C82.502,61.278,82.768,61.558,83.032,61.837z M70.147,101.762
	c-0.671,0.504-0.855,0.907-0.256,1.474C70.592,102.903,70.838,102.539,70.147,101.762z M158.789,103.26
	c-0.9-0.091-1.146,0.201-0.848,0.892c0.051,0.117,0.278,0.158,0.555,0.303C158.6,104.03,158.685,103.685,158.789,103.26z
	 M36.216,138.836c1.06-0.371,1.108-0.778,0.55-1.28c-0.101-0.09-0.329-0.039-0.64-0.064
	C36.154,137.922,36.179,138.29,36.216,138.836z M177.254,128.249c-0.56-0.957-0.975-0.898-1.385,0.125
	C176.448,128.321,176.851,128.285,177.254,128.249z M163.443,108.194c-0.871,0.199-0.882,0.2-0.869,0.729
	c0.001,0.063,0.185,0.123,0.41,0.263C163.143,108.844,163.293,108.519,163.443,108.194z M95.928,61.887
	c0.576,0.745,0.796,1.259,1.454,0.721c0.066-0.053,0.044-0.216,0.093-0.515C97.081,62.041,96.694,61.989,95.928,61.887z
	 M172.58,107.285c-0.832,0.651-0.849,1.059,0,1.787C172.58,108.354,172.58,107.946,172.58,107.285z M129.698,107.153
	c-0.472,0.729-0.296,1.076,0.397,1.325C130.534,107.893,130.609,107.481,129.698,107.153z M108.373,129.958
	c-0.414,0.619-0.612,0.915-0.902,1.349c0.448,0.107,0.706,0.169,1.162,0.279C108.547,131.045,108.491,130.694,108.373,129.958z
	 M126.649,102.988c0.684-1.238,0.684-1.238-0.291-1.534C126.438,101.875,126.504,102.222,126.649,102.988z M98.493,151.735
	c-0.048-0.388-0.095-0.777-0.142-1.165C97.494,150.981,97.169,151.375,98.493,151.735z M83.811,78.744
	c-0.029,0.143-0.059,0.287-0.089,0.431c0.198,0.099,0.404,0.291,0.593,0.275c0.219-0.018,0.421-0.218,0.63-0.339
	c-0.023-0.093-0.047-0.186-0.07-0.279C84.52,78.802,84.165,78.773,83.811,78.744z M175.904,122.874
	c-1.054-0.645-1.054-0.645-1.417,0.242C174.876,123.048,175.189,122.995,175.904,122.874z M139.243,90.318
	c0.053-0.646,0.081-1,0.126-1.555C138.299,89.23,138.528,89.606,139.243,90.318z M168.07,109.914
	c0.181,0.021,0.359,0.042,0.54,0.063c0.018-0.34,0.036-0.68,0.055-1.02c-0.141-0.013-0.28-0.027-0.421-0.04
	C168.187,109.25,168.128,109.582,168.07,109.914z M102.948,61.48c-0.007-0.209-0.015-0.418-0.021-0.628
	c-0.358,0.025-0.717,0.049-1.075,0.073c0.002,0.157,0.004,0.314,0.006,0.472C102.221,61.424,102.584,61.453,102.948,61.48z
	 M80.487,65.282c0.444,0.754,0.805,0.804,1.462,0.083C81.346,65.331,80.984,65.31,80.487,65.282z M123.879,92.199
	c0.168-0.009,0.334-0.018,0.501-0.027c-0.046-0.321-0.094-0.641-0.14-0.96c-0.121,0.012-0.241,0.023-0.361,0.036
	C123.879,91.564,123.879,91.881,123.879,92.199z"/>
<path fill-rule="evenodd" clip-rule="evenodd" fill="#ffe861" class="fill" d="M128.429,84.288c-0.959-0.619-1.684-1.087-2.41-1.554
	c0.164-1.712,0.496-1.909,3.833-2.214c0.36,0.156,0.838,0.312,1.266,0.557c1.192,0.681,2.267,0.65,3.502-0.074
	c2.562-1.503,6.001-0.438,7.608,2.314c-0.321,0.207-0.649,0.417-1.012,0.651c-0.186-0.528-0.334-0.954-0.483-1.378
	c-0.128,0.006-0.257,0.013-0.385,0.019c-0.045,0.535-0.09,1.069-0.141,1.683c-2.342,0.726-4.637,1.269-6.913-0.396
	c-0.453-0.331-1.315-0.203-1.971-0.133C130.339,83.868,129.371,84.11,128.429,84.288z M138.066,82.52
	c-1.103,0.742-1.103,0.742-0.083,1.686C138.015,83.569,138.035,83.149,138.066,82.52z M129.445,83.247
	c1.119-0.581,1.119-0.581,0.172-1.453C129.553,82.338,129.507,82.731,129.445,83.247z M134.705,83.746
	c0.951-0.327,1.053-0.71,0.188-1.309C134.812,83,134.759,83.373,134.705,83.746z M136.137,82.197
	c0.147,0.012,0.294,0.023,0.439,0.034c0.083-0.149,0.229-0.297,0.23-0.447c0.002-0.198-0.109-0.397-0.172-0.597
	c-0.114-0.001-0.229-0.002-0.343-0.003C136.24,81.521,136.188,81.859,136.137,82.197z"/>
</svg>
