<svg version="1.1" xmlns="http://www.w3.org/2000/svg" xmlns:xlink="http://www.w3.org/1999/xlink" x="0px" y="0px" width="200px"
	 height="200px" viewBox="0 0 200 200" enable-background="new 0 0 200 200" xml:space="preserve">
<g id="svg">
	<path class="stroke" fill="#a70c1e"  d="M175.787,164.524c-0.142-3.548-1.391-6.749-3.291-9.653c-1.777-2.716-4.062-5.039-6.546-7.137
		c-2.082-1.756-4.417-3.109-6.899-4.227c-2.127-0.959-4.235-1.965-6.331-2.991c-0.46-0.225-0.833-0.626-1.278-0.971
		c0.524-1.081,0.991-2.079,1.489-3.062c1.009-1.993,1.547-4.052,0.999-6.294c-0.155-0.637-0.224-1.294-0.371-1.933
		c-0.441-1.898-1.192-3.671-2.342-5.245c-0.768-1.054-1.637-2.035-2.469-3.06c0.039-0.495,0.091-0.938,0.104-1.383
		c0.017-0.654,0.074-1.316-0.004-1.961c-0.305-2.505-1.233-4.838-2.15-7.159c-0.497-1.259-1.319-2.281-2.882-2.293
		c-0.146-0.001-0.29-0.125-0.501-0.223c-0.048-1.999-0.798-3.818-1.548-5.62c-0.724-1.735-1.539-3.437-2.403-5.106
		c-1.355-2.617-2.736-5.225-4.205-7.781c-0.751-1.307-1.717-2.491-2.581-3.734c-1.235-1.781-2.404-3.615-3.717-5.337
		c-1.393-1.824-2.855-3.57-3.699-5.761c-0.374-0.971-1.016-1.827-1.888-2.521c-1.184-0.941-2.262-2.017-3.35-3.072
		c-0.492-0.477-0.889-1.047-0.712-1.84c0.543-0.042,1.036-0.045,1.517-0.127c0.521-0.089,1.047-0.21,1.543-0.391
		c1.283-0.468,1.619-1.491,0.889-2.64c-0.152-0.24-0.322-0.495-0.544-0.659c-1.374-1.015-2.279-2.451-3.412-3.682
		c-1.55-1.686-1.802-3.791-2.368-5.777c0.787-1.202,1.521-2.323,2.39-3.646c-0.597-0.137-1.008-0.231-1.456-0.333
		c0.105-0.431,0.164-0.881,0.321-1.296c0.719-1.905,0.942-3.908,1.028-5.908c0.149-3.397-0.359-6.741-1.632-9.885
		c-1.631-4.025-3.37-8.013-5.252-11.925c-2.349-4.884-6.131-7.798-11.657-8.749c-4.486-0.772-9.002-1.235-13.496-1.892
		c-3.701-0.541-7.457-0.461-11.178-0.245c-2.646,0.154-5.273,0.667-7.902,1.066c-2.053,0.311-3.996,0.958-5.569,2.376
		c-1.027,0.926-1.978,1.941-2.925,2.952c-2.502,2.671-4.367,5.743-5.449,9.239c-0.725,2.341-1.307,4.731-1.863,7.12
		c-0.705,3.03-1.405,6.065-1.951,9.126c-0.598,3.34-1.022,6.711-1.508,10.071c-0.145,0.995-0.242,1.997-0.361,3.007
		c-1.603,0.185-2.79,0.856-3.804,1.875c-1.704,1.713-2.62,3.843-2.616,6.182c0.007,3.597,3.109,6.454,5.741,6.543
		c0.281,0.01,0.569,0.099,0.834,0.201c2.812,1.076,6.29-1.161,7.531-2.96c1.726-2.503,1.89-5.165,0.513-7.905
		c-0.143-0.281-0.244-0.628-0.225-0.935c0.037-0.609,0.123-1.225,0.273-1.816c0.961-3.774,2.068-7.503,3.644-11.075
		c0.144-0.322,0.376-0.604,0.568-0.905c0.083,0.033,0.165,0.065,0.248,0.098c0.222,4.098,0.798,8.117,2.577,11.728
		c-0.712,2.341-0.611,4.545,0.098,6.844c-1.48-0.113-2.984-0.417-3.814,1.086c-0.809,1.467-0.052,2.74,0.866,4.005
		c-1.481,0.4-2.93,0.627-3.878,1.846c-1.006,1.293-0.84,2.749-0.508,4.059c-2.113,1.886-4.15,3.603-6.068,5.445
		c-1.564,1.504-3.134,3.045-4.438,4.768c-2.711,3.579-4.769,7.558-6.463,11.709c-0.851,2.082-1.553,4.225-2.338,6.334
		c-0.585,1.575-1.223,3.132-1.787,4.714c-0.313,0.879-0.525,1.794-0.777,2.673c-1.214,0.5-1.993,1.343-2.453,2.426
		c-0.511,1.2-1.059,2.416-1.324,3.681c-0.464,2.212-0.811,4.475,0.648,6.481c-0.511,2.002-0.832,3.973-0.841,5.993
		c-0.006,1.596-0.153,3.195-0.087,4.788c0.125,3,1.103,5.771,2.534,8.391c0.058,0.106,0.153,0.192,0.23,0.288
		c2.871,3.549,6.599,5.396,11.145,5.684c1.5,0.094,2.829-0.307,4.093-1.048c0.17-0.1,0.348-0.189,0.671-0.365
		c1.185,2.261,3.356,3.25,5.394,4.238c0.19,2.271,0.367,4.432,0.553,6.59c0.199,2.314,0.738,4.532,1.949,6.542
		c0.973,1.617,2.404,2.652,4.201,3.201c0.42,0.128,0.829,0.287,1.186,0.412c0.174,4.87,0.341,9.606,0.514,14.433
		c-0.826,0.285-1.519,0.51-2.201,0.761c-1.268,0.467-2.568,0.867-3.782,1.446c-1.26,0.602-2.433,1.384-3.014,2.953
		c0.212,0.397,0.472,0.886,0.753,1.415c1.117,0.172,2.158,0.42,3.208,0.478c4.813,0.261,9.577-0.302,14.329-0.979
		c1.048-0.149,2.08-0.432,3.113-0.676c0.804-0.189,1.446-0.648,1.761-1.413c0.419-1.018,0.87-2.047,1.09-3.115
		c0.246-1.191,0.267-2.43,0.359-3.651c0.215-2.819,0.405-5.641,0.622-8.459c0.059-0.76,0.184-1.515,0.275-2.245
		c0.643-0.139,1.134-0.202,1.597-0.354c2.108-0.694,3.848-1.904,4.722-3.995c0.935-2.235,1.547-4.574,1.572-7.031
		c0.004-0.342,0.141-0.683,0.225-1.063c1.575-0.04,3.031-0.251,4.497,0.127c0.073,0.395,0.179,0.714,0.183,1.034
		c0.021,1.48,0.137,2.938,0.563,4.369c0.495,1.665,1.354,3.042,2.797,4.054c1.315,0.922,2.821,1.278,4.423,1.546
		c0,0.643-0.012,1.243,0.002,1.843c0.041,1.84,0.071,3.681,0.143,5.521c0.085,2.17,0.195,4.338,0.32,6.506
		c0.045,0.777,0.109,1.561,0.26,2.322c0.266,1.328,0.716,2.566,2.256,2.917c0.957,0.218,1.918,0.457,2.892,0.568
		c2.033,0.234,4.073,0.437,6.115,0.567c2.864,0.182,5.733,0.283,8.599,0.427c0.789,0.04,1.441-0.289,2.04-0.736
		c0.49-0.367,0.603-0.879,0.322-1.422c-0.146-0.286-0.375-0.532-0.587-0.779c-0.877-1.029-2.114-1.526-3.244-2.185
		c-1.373-0.801-2.847-1.454-3.938-2.61c-0.167-2.266,0.703-12.225,1.227-13.841c0.442-0.211,0.949-0.472,1.473-0.697
		c1.567-0.675,2.932-1.62,4.056-2.916c1.695-1.951,2.433-4.333,3.039-6.764c0.444-1.782,0.798-3.586,1.2-5.412
		c1.435-0.779,2.862-1.588,3.836-2.983c0.962-1.376,1.955-2.732,2.91-4.113c0.346-0.5,0.754-0.711,1.438-0.53
		c0,0.279,0.028,0.56-0.005,0.832c-0.21,1.709-0.394,3.423-0.672,5.122c-0.107,0.667-0.354,1.341-0.676,1.937
		c-0.602,1.115-1.325,2.165-1.959,3.263c-0.983,1.703-1.951,3.416-2.893,5.142c-0.567,1.043-1.166,2.084-1.586,3.188
		c-0.946,2.489-1.814,5.01-2.659,7.536c-0.284,0.849-0.493,1.748-0.562,2.637c-0.099,1.26,0.006,2.534-0.05,3.8
		c-0.085,1.917,0.28,3.744,0.873,5.555c0.726,2.218,2.007,4.142,3.305,6.018c0.846,1.22,1.954,2.419,3.22,3.157
		c3.805,2.22,7.947,3.491,12.409,3.445c1.721-0.018,3.44-0.188,5.16-0.208c3.156-0.036,6.209-0.75,9.179-1.651
		c4.713-1.432,8.984-3.685,12.44-7.376c2.429-2.592,4.085-5.514,4.884-8.941c0.474-2.033,0.877-4.083,1.268-5.928
		C175.977,167.116,175.84,165.822,175.787,164.524z"/>
</g>
<g id="Layer_2">
	<path fill-rule="evenodd" clip-rule="evenodd" fill="#f5f1eb" class="fill" d="M105.18,59.587c2.011,0.13,3.832,0.159,5.618-0.795
		c1.657-0.884,3.054-2.014,4.364-3.408c0.729,1.639,1.219,3.317,2.158,4.688c0.947,1.383,2.339,2.461,3.618,3.757
		c-0.522,0.57-1.204,0.638-1.954,0.593c-0.642-0.037-1.287-0.007-1.824-0.007c-0.577,0.628-0.409,1.189-0.25,1.744
		c0.301,1.053,0.876,1.967,1.668,2.69c1.086,0.99,2.257,1.883,3.387,2.823c0.15,0.125,0.271,0.285,0.417,0.44
		c-0.365,0.635-0.893,0.951-1.542,0.906c-1.136-0.077-2.274-0.184-3.393-0.384c-0.784-0.141-0.77-0.22-1.668,0.254
		c-0.344,1.388,0.436,2.483,1.131,3.571c0.373,0.582,0.896,1.065,1.332,1.609c0.22,0.275,0.396,0.585,0.63,0.935
		c-1.302,1.46-2.605,0.581-3.832,0.208c-1.081,0.516-1.341,1.367-0.757,2.271c1.63,2.527,3.48,4.856,5.932,6.653
		c0.438,0.322,0.845,0.674,0.646,1.408c-0.207,0.083-0.457,0.257-0.719,0.275c-1.482,0.101-2.951,0.117-4.205-0.908
		c-0.465-0.38-1.017-0.532-1.672-0.215c-0.653,0.726-0.674,1.619-0.271,2.475c0.414,0.883,0.939,1.723,1.493,2.529
		c0.74,1.079,1.571,2.096,2.329,3.164c0.274,0.385,0.45,0.841,0.644,1.213c-0.521,0.813-1.198,0.921-1.907,0.722
		c-0.627-0.175-1.22-0.471-1.822-0.727c-0.738-0.313-1.473-0.64-2.125-0.924c-0.95,0.806-1.141,1.328-0.674,2.246
		c0.557,1.091,1.217,2.133,1.883,3.162c0.529,0.818,1.139,1.586,1.684,2.335c-0.185,0.734-0.66,0.961-1.225,0.938
		c-0.565-0.023-1.163-0.077-1.683-0.28c-1.366-0.535-2.773-1.031-3.736-2.25c-0.067-0.086-0.209-0.115-0.304-0.165
		c-0.988,0.49-1.23,1.212-0.763,2.309c0.29,0.677,0.672,1.321,0.905,2.016c0.244,0.73,0.443,1.513-0.231,2.177
		c-2.634,0.402-4.309-1.129-5.729-2.884c-0.781,0.085-1.08,0.466-1.276,1.015c-0.327,0.92-0.324,1.84-0.152,2.787
		c0.256,1.412,0.502,2.826,0.698,4.246c0.078,0.55,0.014,1.121,0.014,1.625c-0.919,0.599-1.656,0.548-2.413,0.032
		c-1.033-0.706-1.682-1.646-1.935-2.88c-0.114-0.558-0.266-1.125-0.512-1.633c-0.176-0.367-0.537-0.643-0.951-1.112
		c-0.512,0.523-0.92,0.891-1.264,1.311c-0.202,0.248-0.314,0.574-0.448,0.874c-0.628,1.403-1.763,1.858-3.211,1.726
		c-1.489-0.135-2.388-1.071-2.85-2.37c-0.325-0.913-0.337-1.934-0.577-2.883c-0.211-0.84-0.122-1.839-1.066-2.41
		c-0.783,0.213-1.153,0.867-1.543,1.479c-0.871,1.369-1.989,1.471-3.297,0.896c-0.707-0.31-1.094-0.868-1.221-1.585
		c-0.15-0.845-0.242-1.702-0.316-2.558c-0.046-0.532-0.038-1.062-0.486-1.467c-0.819-0.008-1.246,0.635-1.769,1.042
		c-1.413,1.101-2.487,1.185-4.172,0.076c-0.017-0.404-0.091-0.924-0.048-1.435c0.089-1.062,0.27-2.117,0.354-3.179
		c0.047-0.581,0.27-1.225-0.408-1.863c-0.617,0.213-1.303,0.428-1.972,0.688c-1.39,0.538-2.263,0.348-3.183-0.76
		c-0.08-0.73,0.172-1.377,0.548-2.049c0.634-1.132,1.153-2.329,1.648-3.35c-0.349-0.896-0.88-0.822-1.427-0.725
		c-0.645,0.115-1.29,0.298-1.938,0.309c-0.601,0.01-1.225-0.105-1.798-0.292c-0.306-0.1-0.711-0.437-0.751-0.714
		c-0.168-1.116-0.531-2.268,0.105-3.36c0.371-0.637,0.791-1.245,1.156-1.885c0.396-0.698,0.756-1.418,1.197-2.251
		c-0.442-0.206-0.711-0.422-0.999-0.448c-0.895-0.082-1.796-0.115-2.695-0.125c-0.865-0.008-1.526-0.356-1.8-1.009
		c-0.309-0.736,0.079-1.289,0.531-1.769c0.362-0.384,0.841-0.653,1.239-1.006c0.568-0.503,1.283-0.905,1.41-1.911
		c-0.48-0.199-0.955-0.396-1.419-0.588c-0.457,0.146-0.885,0.284-1.43,0.459c-0.386-0.189-0.839-0.409-1.315-0.642
		c0.509-1.279,2.27-1.353,2.329-2.886c-0.818-0.914-1.99-1.082-3.058-1.435c-1.325-0.439-1.631-0.813-1.7-2.377
		c0.695-1.02,1.836-1.083,2.926-1.152c1.153-0.075,2.158-0.458,3.069-1.13c0.186-0.137,0.32-0.343,0.479-0.517
		c-0.329-0.729-1.007-0.884-1.567-1.187c-1.305-0.706-1.587-1.254-1.373-2.95c0.459,0.075,0.91,0.171,1.367,0.218
		c0.972,0.099,1.944,0.219,2.917,0.231c0.35,0.005,0.703-0.276,1.018-0.409c0.023-1.045-0.668-1.429-1.258-1.825
		c-1.296-0.872-1.596-2.125-1.447-3.551c0.048-0.47,0.251-0.924,0.438-1.574c0.697,0.469,1.311,0.785,1.808,1.231
		c2.433,2.192,5.411,2.983,8.541,3.397c0.892,0.118,1.791,0.174,2.686,0.273c0.273,0.031,0.54,0.112,0.875,0.185
		c-0.265,1.623,0.008,3.15,0.421,4.642c0.619,2.241,2.295,3.654,4.161,4.811c2.429,1.507,5.13,1.674,7.851,1.112
		c1.76-0.363,3.522-0.841,5.185-1.514c1.712-0.694,3.232-1.784,4.362-3.309c1.471-1.987,2.713-4.101,3.526-6.451
		C104.692,60.467,104.936,60.083,105.18,59.587z M81.361,99.065c0.234-1.22,0.438-2.288,0.65-3.407
		c-0.306-0.097-0.513-0.163-0.82-0.259c-0.265,1.257-0.509,2.42-0.771,3.666C80.845,99.065,81.062,99.065,81.361,99.065z
		 M87.99,81.418c0.023-1.158,0.058-2.114,0.042-3.069c-0.002-0.116-0.267-0.228-0.535-0.441c-0.414,1.112-0.509,2.123-0.499,3.212
		C87.283,81.206,87.5,81.271,87.99,81.418z M76.236,81.119c-0.115-0.003-0.229-0.005-0.345-0.008
		c-0.449,1.102-0.9,2.204-1.373,3.363c0.299,0.122,0.473,0.192,0.82,0.334c0.411-1.115,0.812-2.165,1.171-3.23
		C76.546,81.468,76.334,81.274,76.236,81.119z M111.582,102.529c-0.842-1.08-1.002-2.549-2.616-3.292
		c0.188,1.646,1.261,2.469,1.958,3.542C111.122,102.705,111.265,102.65,111.582,102.529z M97.668,78.107
		c-0.818,0.345-0.855,0.351-0.803,0.741c0.115,0.851,0.27,1.696,0.418,2.541c0.012,0.065,0.103,0.115,0.201,0.218
		c0.19-0.056,0.408-0.119,0.676-0.197C97.996,80.308,97.842,79.268,97.668,78.107z M88.337,88.549
		c0.375-1.209,1.05-2.319,0.879-3.829c-0.361,0.21-0.715,0.293-0.761,0.461C88.153,86.288,87.921,87.413,88.337,88.549z
		 M73.396,80.163c-0.521,0.989-0.988,1.878-1.472,2.793c0.991,0.135,1.004,0.141,1.568-0.97c0.265-0.521,0.729-1.007,0.469-1.713
		C73.777,80.237,73.626,80.207,73.396,80.163z M103.106,80.795c0.352-0.107,0.56-0.171,0.771-0.235
		c-0.088-0.884-0.144-1.698-0.255-2.503c-0.07-0.492-0.385-0.659-0.868-0.508c0,0.59-0.04,1.121,0.012,1.643
		C102.814,79.67,102.961,80.139,103.106,80.795z M85.149,84.005c-0.932,0.282-1.028,0.872-1.117,1.409
		c-0.11,0.665-0.131,1.344-0.196,2.085c0.336-0.018,0.527-0.028,0.809-0.042C84.806,86.352,84.963,85.286,85.149,84.005z
		 M105.05,103.66c-0.152,0.062-0.377,0.152-0.783,0.317c0.533,0.999,1.012,1.898,1.521,2.852c0.36-0.181,0.556-0.279,0.801-0.403
		C106.088,105.525,105.625,104.693,105.05,103.66z M99.687,77.634c0.103,1.098,0.144,2.021,0.29,2.925
		c0.078,0.476,0.446,0.628,0.902,0.381C100.641,78.021,100.641,78.021,99.687,77.634z M93.686,88.304
		c0.48-1.43-0.242-2.49-0.178-3.547c-0.214-0.081-0.29-0.135-0.363-0.132c-0.115,0.004-0.229,0.047-0.331,0.071
		C92.619,85.898,92.881,87.172,93.686,88.304z M79.211,92.218c0.419-0.096,0.768-0.088,0.812-0.199
		c0.374-0.95,0.919-1.859,0.8-2.978C79.564,89.63,79.559,90.861,79.211,92.218z M107.344,78.551c0.348,1.154,0.544,2.186,1.399,2.99
		c0.181-0.141,0.331-0.257,0.519-0.401c-0.382-0.929-0.747-1.819-1.129-2.751C107.852,78.446,107.669,78.484,107.344,78.551z
		 M72.993,75.415c0.906,0.134,1.148-0.007,2.304-1.131c0.369-0.359,0.641-0.714,0.28-1.407
		C74.626,73.662,73.732,74.386,72.993,75.415z M105.313,76.961c-0.264-1.097-0.513-2.13-0.794-3.296
		c-0.357,0.214-0.576,0.345-0.768,0.46C104.179,76.435,104.312,76.688,105.313,76.961z M95.536,82.547
		c-0.128-1.049-0.245-2.001-0.366-3.005c-0.292,0-0.504,0-0.768,0c-0.15,1.168,0.064,2.195,0.426,3.252
		C95.106,82.698,95.254,82.646,95.536,82.547z M81.426,82.663c-0.437-0.061-0.644-0.088-0.866-0.12
		c-0.317,1.072-0.61,2.062-0.95,3.204c0.428-0.096,0.68-0.154,0.965-0.219C80.847,84.612,81.106,83.733,81.426,82.663z
		 M91.119,90.008c0.082,1.208-0.293,2.299,0.062,3.545c0.341-0.204,0.529-0.317,0.654-0.392c0.071-1.028,0.136-1.952,0.203-2.917
		C91.724,90.164,91.507,90.108,91.119,90.008z M88.015,90.422c-0.192,0.999-0.395,1.791-0.482,2.596
		c-0.052,0.462,0.022,1,0.772,0.869c0.16-1.058,0.312-2.058,0.475-3.119C88.555,90.666,88.357,90.577,88.015,90.422z
		 M83.566,103.274c-0.072,1.253-0.823,2.206-0.333,3.557c1.018-0.988,0.993-2.082,1.175-3.147
		C84.183,103.575,84.01,103.491,83.566,103.274z M94.599,91.546c-0.277,1.109-0.298,2.145,0.446,3.323
		c0.236-0.433,0.511-0.72,0.449-0.86C95.141,93.206,95.528,92.137,94.599,91.546z M68.701,85.437
		c1.342-0.557,1.697-1.665,2.389-2.587c-0.268-0.181-0.427-0.288-0.576-0.387C69.546,83.36,68.883,84.381,68.701,85.437z
		 M79.365,70.136c-1.242,0.442-1.035,1.782-1.854,2.697c0.476,0.083,0.723,0.126,0.999,0.175
		C78.94,72.062,79.461,71.236,79.365,70.136z M91.8,81.82c0.063-0.97,0.122-1.881,0.188-2.877c-0.349,0.041-0.534,0.062-0.828,0.097
		c-0.09,0.945-0.178,1.852-0.273,2.861C91.315,81.863,91.541,81.843,91.8,81.82z M73.907,65.658c0.34,0,0.667,0.093,0.76-0.015
		c0.607-0.713,1.271-1.397,1.771-2.281C75.354,63.183,74.545,63.938,73.907,65.658z M100.764,91.899
		c-0.708-2.96-0.708-2.96-1.514-2.971c0.008,1.087,0.253,2.019,0.751,2.608C100.125,91.684,100.377,91.723,100.764,91.899z
		 M106.385,89.1c0.312,1.004,0.236,2.03,1.028,2.767c0.212-0.101,0.386-0.183,0.546-0.259
		C107.391,89.139,107.391,89.139,106.385,89.1z M90.99,101.837c-0.172-0.029-0.345-0.06-0.519-0.088
		c-0.637,0.871-0.169,1.928-0.307,2.89c0.595,0.203,0.873-0.056,0.888-0.537C91.076,103.349,91.017,102.593,90.99,101.837z
		 M72.984,87.009c-0.513,1.021-1.531,1.473-1.924,2.577c0.341,0.039,0.577,0.145,0.697,0.067c0.795-0.516,1.395-1.212,1.834-2.12
		C73.417,87.383,73.275,87.262,72.984,87.009z M115.726,87.281c-0.581-0.699-0.979-1.209-1.413-1.686
		c-0.42-0.461-0.637-1.244-1.539-1.107C113.094,85.676,114.457,87.067,115.726,87.281z M99.221,75.497
		c-0.306-0.938-0.598-1.833-0.92-2.82c-0.293,0.141-0.486,0.233-0.658,0.315C98.068,75.406,98.108,75.477,99.221,75.497z
		 M101.527,97.573c-0.253-0.939-0.487-1.813-0.746-2.776c-0.29,0.049-0.532,0.091-0.761,0.129
		C100.061,96.69,100.447,97.428,101.527,97.573z M108.508,70.538c0.031-1.059-0.38-1.966-0.643-2.918
		c-0.196,0.013-0.317,0.004-0.428,0.034c-0.07,0.02-0.124,0.096-0.186,0.147C107.178,69.294,107.558,70.174,108.508,70.538z
		 M77.5,75.471c-0.315,0.095-0.639,0.091-0.75,0.242c-0.543,0.746-1.432,1.321-1.423,2.476C76.334,77.786,77.204,76.709,77.5,75.471
		z M84.033,76.684c-1.062,1.128-0.748,2.322-1.109,3.471C83.986,79.805,84.346,78.631,84.033,76.684z M78.294,88.161
		c-0.308-0.105-0.53-0.182-0.916-0.313c-0.141,1.088-1.278,1.837-0.653,2.957c0.113,0.038,0.227,0.076,0.339,0.114
		C77.459,90.032,77.854,89.145,78.294,88.161z M104.362,88.236c0.109-0.051,0.218-0.102,0.328-0.152
		c-0.242-0.994-0.485-1.989-0.748-3.069c-0.334,0.1-0.541,0.161-0.884,0.264C103.498,86.327,103.349,87.544,104.362,88.236z
		 M96.413,102.461c-0.288,1.249,0.241,2.666,1.055,2.967C97.656,104.328,97.199,102.941,96.413,102.461z M78.369,93.699
		c-1.224,0.548-1.819,1.991-1.281,2.909C77.787,95.894,78.413,94.527,78.369,93.699z M93.521,99.469
		c-0.274,1.295-0.034,2.896,0.437,3.452c0.379-0.616,0.512-1.982,0.203-2.75C94.065,99.934,93.798,99.764,93.521,99.469z
		 M104.335,64.987c0.151,0.934,0.277,1.719,0.414,2.566c0.276,0,0.491,0,0.879,0c-0.151-0.932-0.288-1.776-0.436-2.682
		C104.879,64.913,104.694,64.938,104.335,64.987z M76.41,66.799c-0.638,0.777-1.192,1.52-1.258,2.593c0.313,0,0.54,0,0.812,0
		c0.346-0.745,0.682-1.463,1.04-2.231C76.771,67.018,76.613,66.923,76.41,66.799z M104.894,70.522
		c-0.459-0.894-0.53-1.879-1.545-2.372c-0.416,1.048,0.292,1.7,0.589,2.452c0.059,0.15,0.144,0.289,0.229,0.457
		C104.484,70.824,104.641,70.709,104.894,70.522z M110.315,70.888c0.451,1.001,0.53,1.967,1.396,2.494
		c0.582-0.147,0.67-0.49,0.423-0.92c-0.319-0.554-0.683-1.083-1.052-1.661C110.891,70.823,110.707,70.844,110.315,70.888z
		 M90.167,73.583c0.104,0.87,0.202,1.684,0.313,2.612c0.342-0.124,0.55-0.199,0.772-0.28c-0.069-0.84,0.152-1.67-0.403-2.446
		C90.659,73.501,90.477,73.532,90.167,73.583z M107.869,63.462c0.467,0.909,0.812,1.818,1.646,2.391
		c0.105,0.072,0.353-0.06,0.709-0.133c-0.595-0.938-1.12-1.765-1.672-2.632C108.259,63.25,108.094,63.339,107.869,63.462z
		 M106.654,96.539c-0.402-0.87-0.738-1.598-1.096-2.37c-0.262,0.035-0.482,0.065-0.771,0.103c0.198,0.991,0.477,1.842,1.162,2.55
		C106.185,96.728,106.36,96.657,106.654,96.539z M89.539,99.105c0-0.962,0-1.762,0-2.581c-0.254-0.115-0.459-0.207-0.671-0.302
		C88.413,97.598,88.604,98.585,89.539,99.105z M100.362,114.351c-0.48-0.967-0.06-2.083-1.238-2.742
		c-0.288,1.031-0.021,1.821,0.295,2.666C99.656,114.293,99.874,114.312,100.362,114.351z M83.475,89.68
		c-0.475,1.146-1.022,1.992-0.977,3.134C83.589,92.332,84.14,90.81,83.475,89.68z M98.479,92.366
		c-0.399-1.077-0.103-2.224-1.145-2.926c-0.252,0.647-0.027,2.33,0.382,2.759C97.833,92.321,98.108,92.292,98.479,92.366z
		 M112.248,69.01c0.646,0.781,1.195,1.447,1.857,2.249c0.157-0.382,0.324-0.583,0.279-0.715c-0.275-0.826-0.826-1.45-1.554-1.999
		C112.644,68.694,112.495,68.813,112.248,69.01z M70.175,66.017c1.221,0.156,2.051-0.528,2.44-2.105
		C71.437,64.343,70.879,65.158,70.175,66.017z M74.479,90.714c-0.271,0.96-0.881,1.69-0.494,2.713
		c0.989-0.618,1.051-1.559,1.288-2.5C75.008,90.856,74.795,90.799,74.479,90.714z M84.673,96.054
		c0.719-1.783,0.716-2.127-0.062-2.585c-0.461,0.826-0.665,1.685-0.566,2.681C84.317,96.109,84.51,96.079,84.673,96.054z
		 M116.088,62.376c-0.712-0.815-1.322-1.513-1.976-2.263c-0.255,0.208-0.423,0.346-0.586,0.479
		C114.67,62.282,115.128,62.627,116.088,62.376z M99.534,84.017c0.596,2.181,0.596,2.181,1.348,2.327
		C100.948,84.551,100.503,83.783,99.534,84.017z M73.797,70.617c-0.97-0.087-1.165,0.106-2.254,2.108
		C72.351,72.881,72.801,72.47,73.797,70.617z M112.327,93.329c0.377,1.534,1.221,2.35,2.134,2.041
		c-0.499-0.668-0.959-1.317-1.463-1.93C112.91,93.333,112.644,93.375,112.327,93.329z M71.849,97.836
		c1.177,0.017,1.232-0.991,1.671-1.582c0.22-0.295,0.149-0.617-0.252-0.768C72.365,96.164,72.028,96.699,71.849,97.836z
		 M100.441,72.198c0.422,0.981,0.167,2.18,1.561,2.893c-0.266-1.151-0.479-2.073-0.709-3.069
		C100.957,72.091,100.743,72.136,100.441,72.198z M64.529,70.686c-0.262-0.242-0.442-0.407-0.621-0.573
		c-0.826,0.535-1.574,1.02-2.323,1.503c0.046,0.088,0.092,0.176,0.138,0.264C62.74,71.927,63.559,71.419,64.529,70.686z
		 M93.758,74.416c0.168,0.833,0.308,1.536,0.441,2.2c0.238,0.057,0.354,0.1,0.475,0.106c0.072,0.005,0.148-0.045,0.391-0.128
		c-0.117-0.746-0.242-1.52-0.377-2.365C94.352,74.297,94.166,74.334,93.758,74.416z M103.796,91.699
		c0.021-1.438-0.452-2.126-1.572-2.16c0.331,0.772,0.641,1.496,0.972,2.272C103.436,91.767,103.621,91.731,103.796,91.699z
		 M100.595,101.595c-0.673,0.477-0.728,0.914-0.272,1.886c0.193,0.414,0.399,0.936,1.124,0.472
		C101.162,103.167,100.885,102.397,100.595,101.595z M114.15,64.848c-0.09,0.043-0.181,0.086-0.271,0.13
		c-0.16,0.909,0.101,1.792,0.655,2.156c0.346,0.226,0.677,0.292,0.897-0.223C115.009,66.229,114.58,65.538,114.15,64.848z
		 M107.807,73.291c0.174,1.026,0.391,1.94,1.526,2.37c0.541-0.93-0.444-1.326-0.582-1.972
		C108.675,73.332,108.424,73.017,107.807,73.291z M68.615,70.941c0.927-0.426,1.716-1.003,2.376-1.933
		C69.914,68.952,68.678,69.94,68.615,70.941z M110.905,79.779c0.49,1.835,0.648,2.061,1.562,2.137
		c-0.198-0.881-0.298-1.738-0.979-2.453C111.285,79.574,111.119,79.664,110.905,79.779z M79.465,76.935
		c0.063,0.902-0.87,1.366-0.57,2.336c0.227-0.028,0.545,0.026,0.633-0.091c0.455-0.614,0.746-1.307,0.766-2.167
		C80.051,76.99,79.865,76.972,79.465,76.935z M110.067,85.212c0.23,1.067,0.755,1.727,1.549,2.227
		c0.167-0.065,0.323-0.111,0.461-0.189c0.05-0.029,0.056-0.136,0.108-0.28C111.396,86.588,111.395,85.238,110.067,85.212z
		 M111.149,61.122c-0.341,0.102-0.605,0.181-0.895,0.268c0.948,1.816,1.056,1.926,2.05,2.001
		C111.928,62.648,111.586,61.976,111.149,61.122z M107.115,82.821c-0.26,0.075-0.498,0.143-0.778,0.224
		c0.28,0.955,0.709,1.654,1.64,2.188C108.101,84.149,107.56,83.544,107.115,82.821z M110.721,91.396
		c-0.334-1.976-0.482-2.198-1.451-2.184c0.027,0.203,0.021,0.41,0.088,0.589c0.197,0.534,0.423,1.057,0.643,1.595
		C110.235,91.396,110.424,91.396,110.721,91.396z M110.504,95.762c-0.206-1.401-0.742-2.03-1.594-1.958
		C109.078,94.904,109.596,95.578,110.504,95.762z M86.418,75.877c0.288,0.057,0.407,0.105,0.522,0.096
		c0.11-0.01,0.216-0.08,0.312-0.119c0.473-1.991,0.469-2.011-0.51-2.156C86.639,74.396,86.535,75.093,86.418,75.877z M68.465,87.419
		c-0.076-0.095-0.152-0.19-0.23-0.285c-0.885-0.076-1.216,0.713-1.679,1.247c-0.215,0.248-0.199,0.618,0.356,0.839
		C67.412,88.641,67.938,88.03,68.465,87.419z M82.736,73.028c-0.416-0.133-0.623-0.201-0.959-0.309
		c-0.164,0.768-0.312,1.451-0.482,2.25C82.778,74.885,82.201,73.732,82.736,73.028z M66.853,76.034
		c1.184,0.118,1.714-0.291,2.145-1.675C68.04,74.455,67.584,75.264,66.853,76.034z M97.82,98.251
		c0.35,1.947,0.374,1.983,1.339,2.091c-0.219-0.816-0.427-1.597-0.659-2.47C98.184,98.049,98.02,98.141,97.82,98.251z
		 M69.922,78.988c1.193,0.245,1.49-0.588,2.003-1.308c-0.214-0.191-0.396-0.355-0.685-0.613
		C70.758,77.77,70.342,78.379,69.922,78.988z M92.224,109.703c-0.911,0.269-0.8,0.814-0.782,1.275
		c0.016,0.385,0.129,0.767,0.209,1.21c0.313-0.072,0.496-0.113,0.743-0.17C92.337,111.246,92.286,110.542,92.224,109.703z
		 M68.882,79.938c-0.119-0.109-0.252-0.232-0.458-0.424c-0.513,0.635-0.978,1.211-1.468,1.82
		C67.945,81.594,68.113,81.467,68.882,79.938z M67.883,91.051c0.882-0.448,1.316-1.045,1.508-2.052
		c-0.354,0.054-0.729,0.006-0.812,0.141C68.242,89.673,67.484,90.061,67.883,91.051z M87.4,102.745
		c-0.164,0.006-0.329,0.013-0.494,0.02c-0.084,0.716-0.166,1.433-0.261,2.246c0.394-0.037,0.579-0.055,0.819-0.076
		C87.476,104.163,87.9,103.412,87.4,102.745z M76.695,99.052c-1.09,1.188-1.245,1.68-0.858,2.531
		c0.698-0.473,0.854-1.252,1.131-1.946C77.013,99.525,76.828,99.324,76.695,99.052z M77.731,103.245
		c0.896-0.495,1.132-1.228,1.364-1.993C78.136,101.019,77.559,101.827,77.731,103.245z M113.141,76
		c0.409,1.485,0.63,1.708,1.695,1.542c-0.381-0.664-0.729-1.267-1.112-1.935C113.433,75.802,113.278,75.907,113.141,76z
		 M94.281,108.402c-0.043-0.933-0.072-1.59-0.103-2.279c-0.317-0.03-0.51-0.049-0.696-0.067
		C93.203,107.338,93.264,107.579,94.281,108.402z M85.088,100.791c0.901-0.973,1-1.804,0.265-2.358
		c-0.201,0.485-0.396,0.959-0.618,1.493C84.841,100.185,84.959,100.475,85.088,100.791z M66.44,72.023
		c-1.175-0.201-1.304,0.796-1.909,1.276C65.698,73.57,65.938,73.414,66.44,72.023z M104.135,99.83
		c-0.19-0.87,0.016-1.741-1.234-2.162c0.14,0.828,0.246,1.459,0.356,2.106C103.574,99.794,103.766,99.807,104.135,99.83z
		 M96.855,87.042c0.288-1.512,0.08-2.06-0.887-2.167C96.004,85.707,95.994,86.5,96.855,87.042z M98.567,109.861
		c-0.044-0.769-0.081-1.396-0.119-2.062c-0.297,0-0.483,0-0.828,0c0.038,0.745,0.073,1.437,0.113,2.217
		C98.073,109.952,98.254,109.919,98.567,109.861z M65.215,79.611c-0.375,0.557-0.734,1.089-1.168,1.729
		c0.943,0.166,1.314-0.323,1.608-0.837C65.826,80.204,65.938,79.788,65.215,79.611z M117.883,70.323
		c-0.691-0.926-0.691-0.926-1.538-1.115c-0.216,0.884,0.472,1.139,1.022,1.574C117.561,70.61,117.724,70.464,117.883,70.323z
		 M71.594,62.018c-0.79-0.394-1.162-0.234-1.908,0.79C70.573,63.088,71.119,62.692,71.594,62.018z M107.221,100.9
		c-0.149-0.671-0.02-1.419-1.16-1.639c0.151,0.692,0.272,1.242,0.407,1.862C106.799,101.025,106.98,100.972,107.221,100.9z
		 M67.435,60.763c0.711,0.359,1.284,0.537,1.878,0.014C68.563,60.112,68.467,60.108,67.435,60.763z M93.19,97.731
		c0-0.601,0-1.035,0-1.502c-0.304-0.026-0.489-0.042-0.73-0.062C92.354,96.797,92.195,97.368,93.19,97.731z M66.323,66.681
		c1.248,0.312,1.528,0.179,1.983-0.76C67.502,65.647,67.094,66.289,66.323,66.681z"/>
	<path fill-rule="evenodd" clip-rule="evenodd" fill="#f5f1eb" class="fill" d="M115.208,50.102c-0.055-1.273-0.075-2.438-0.163-3.597
		c-0.127-1.703-0.25-3.411-0.473-5.104c-0.206-1.568-0.98-2.945-1.755-4.294c-0.258-0.453-0.613-0.935-1.05-1.185
		c-1.432-0.821-2.704-1.95-4.371-2.364c-0.869-1.812-0.813-2.584-3.537-2.464c-0.862-1.21-1.979-0.98-3.096-0.408
		c-1.928-0.841-2.172-0.797-2.99,0.336c-0.818,0.232-1.455,0.414-2.094,0.595c0.014,0.064,0.027,0.128,0.041,0.192
		c-1.339-0.127-2.677-0.296-4.02-0.375c-2.871-0.17-5.734-0.15-8.549,0.581c-0.269,0.07-0.566,0.054-0.85,0.043
		c-0.685-0.026-1.369-0.073-2.06-0.014c-0.376-0.155-0.753-0.312-1.178-0.488c-0.367,0.117-0.752,0.24-1.219,0.389
		c-0.357-0.12-0.779-0.262-1.188-0.397c-0.97,0.181-1.443,0.88-1.763,1.616c-0.92,0.052-1.805-0.05-2.588,0.186
		c-0.828,0.249-1.248,1.022-1.225,1.881c-0.625,0.291-1.174,0.545-1.816,0.844c-0.061,0.799-0.117,1.564-0.178,2.366
		c-1.642,2.238-2.096,4.872-2.386,7.586c-0.261,2.413-0.457,4.813-0.113,7.229c0.08,0.563,0.171,1.126,0.26,1.711
		c-0.694-0.386-1.582-1.429-1.856-2.402c-0.978-3.469-1.951-6.937-1.581-10.623c0.478-4.77,2.038-9.125,5.086-12.823
		c1.634-1.983,3.61-3.665,5.796-5.096c2.326-1.524,4.955-2.078,7.562-2.774c2.802-0.748,5.668-0.836,8.531-0.906
		c1.466-0.036,2.939,0.221,4.41,0.284c4.912,0.208,9.258,2.103,13.553,4.304c2.035,1.042,3.334,2.741,4.756,4.342
		c1.158,1.304,2.076,2.792,2.776,4.448c0.867,2.048,1.278,4.154,1.343,6.32c0.049,1.668-0.141,3.352-0.318,5.017
		c-0.13,1.217-0.408,2.417-0.638,3.622C116.165,49.238,116.027,49.791,115.208,50.102z"/>
	<path fill-rule="evenodd" clip-rule="evenodd" fill="#f5f1eb" class="fill" d="M54.473,121.331c0.239-2.174,0.458-4.165,0.688-6.25
		c0.334-0.061,0.646-0.178,0.949-0.164c4.227,0.196,8.382,0.862,12.502,1.822c1.95,0.454,3.947,0.715,5.931,1.022
		c2.306,0.358,4.63,0.612,6.927,1.016c6.178,1.086,12.411,1.023,18.643,0.926c1.673-0.026,3.351-0.279,5.01-0.526
		c2.023-0.301,4.027-0.73,6.047-1.059c2.179-0.355,4.38-0.59,6.544-1.012c1.481-0.289,2.917-0.81,4.372-1.228
		c0.299-0.086,0.598-0.174,1.018-0.297c-0.326,2.747-0.869,5.377,0.05,7.946c-0.188,0.14-0.273,0.244-0.381,0.279
		c-3.849,1.282-7.675,2.576-11.803,2.763c-2.653,0.121-5.282,0.701-7.937,0.913c-3.017,0.24-6.049,0.398-9.076,0.408
		c-2.656,0.008-5.317-0.173-7.967-0.398c-1.502-0.128-2.98-0.528-4.475-0.778c-1.775-0.297-3.558-0.55-5.333-0.849
		c-2.343-0.393-4.694-0.757-7.021-1.23c-3.33-0.677-6.641-1.442-9.961-2.166c-0.961-0.21-1.928-0.39-2.885-0.612
		C55.724,121.717,55.145,121.525,54.473,121.331z"/>
	<path fill-rule="evenodd" clip-rule="evenodd" fill="#f5f1eb" class="fill" d="M127.796,135.154c0.255,2.005,1.297,3.342,2.606,4.481
		c-0.368,2.115-1.463,3.703-2.949,5.047c-2.062,1.863-4.591,2.682-7.275,2.982c-3.619,0.407-7.249,0.763-10.883,0.979
		c-3.15,0.188-6.296,0.053-9.396-0.756c-1.824-0.476-3.683-0.809-5.269-1.898c-2.294-1.574-3.91-3.657-4.23-6.478
		c-0.347-3.055-0.27-6.122,0.245-9.33c1.253,0.067,2.496,0.135,3.692,0.2c0.409,1.579,0.699,3.105,1.213,4.553
		c0.338,0.946,0.893,1.864,1.541,2.634c0.796,0.943,2.027,1.203,3.194,1.444c4.568,0.943,9.144,0.644,13.687-0.134
		c3.309-0.567,6.634-1.109,9.803-2.299C125.034,136.105,126.312,135.678,127.796,135.154z"/>
	<path fill-rule="evenodd" clip-rule="evenodd" fill="#f5f1eb" class="fill" d="M60.76,106.803c0.961,2.021,2.678,2.725,4.191,3.659
		c-0.026,0.082-0.055,0.164-0.08,0.247c-0.76-0.127-1.519-0.261-2.28-0.378c-0.731-0.113-1.441-0.571-2.36-0.207
		c0.615,1.888,2.529,2.14,3.735,3.167c-0.034,0.079-0.068,0.159-0.104,0.238c-3.042-0.491-6.083-0.981-9.238-1.491
		c0.06-0.517,0.108-0.868,0.139-1.221c0.214-2.506,0.84-4.924,1.618-7.304c0.561-1.71,1.049-3.461,1.793-5.091
		c0.83-1.816,1.905-3.521,2.896-5.26c0.306-0.534,0.715-1.016,0.428-1.828c-0.521-0.406-1.154-0.853-1.73-1.366
		c-0.539-0.48-1.018-1.028-1.523-1.546c-0.606,0.628-0.606,0.628-0.28,3.149c-0.829-0.058-1.632-0.114-2.642-0.184
		c0.087,1.017,0.159,1.851,0.238,2.784c-0.449,0.032-0.95,0.068-1.464,0.106c-0.535,0.959,0.271,1.662,0.415,2.51
		c-0.625,0.397-1.55-0.149-2.033,0.704c-0.152,1.007,0.586,1.781,0.948,2.689c-0.718,0.864-1.893-0.016-2.655,0.766
		c-0.061,1.314,0.697,2.351,1.457,3.589c-0.905,0-1.645,0-2.344,0c-0.222,0.904-0.222,0.904,0.781,2.844
		c-0.373,0.184-0.748,0.369-1.255,0.618c0.184,0.565,0.354,1.085,0.562,1.731c-1.633-0.287-3.246-0.469-4.802-0.871
		c-1.491-0.386-3.169-0.137-4.502-1.084c0.018-0.11,0.035-0.219,0.054-0.328c1.056,0.103,2.111,0.207,3.116,0.306
		c0.363-0.656-0.104-0.827-0.411-1.06c-0.78-0.592-1.542-1.198-2.077-2.344c1.267,0.102,2.379,0.192,3.49,0.281
		c0.043-0.088,0.087-0.176,0.131-0.264c-0.681-1.015-1.882-1.701-2.181-3.221c1.082,0.172,2.05,0.325,3.259,0.517
		c-0.158-0.46-0.221-0.747-0.35-0.999c-0.354-0.69-0.783-1.346-1.088-2.055c-0.166-0.387-0.141-0.856-0.213-1.362
		c1.4-0.121,2.592,1.135,4.061,0.311c-1.015-1.622-2.231-3.051-2.426-5.16c1.502,0.922,2.747,2.02,4.629,2.446
		c-0.476-1.431-1.431-2.293-1.862-3.408c-0.416-1.072-1.111-2.108-0.802-3.53c1.508,0.847,2.912,1.634,4.32,2.425
		c0.524-0.529,0.285-0.917,0.104-1.325c-0.367-0.822-0.72-1.65-1.051-2.487c-0.079-0.2-0.051-0.443-0.089-0.848
		c1.356,0.837,2.421,1.88,4.159,2.271c-0.622-2.024-1.795-3.704-1.401-5.799c1.408,0.762,2.321,2.024,3.728,2.409
		c0.521-0.442,0.242-0.809,0.121-1.188c-0.39-1.207-0.773-2.416-1.126-3.634c-0.082-0.279-0.038-0.595-0.056-0.976
		c1.125,0.423,2.101,0.791,3.16,1.189c0.249-0.388,0.436-0.68,0.696-1.089c0.346,0.062,0.762,0.137,1.46,0.262
		c-0.56,0.654-0.965,1.126-1.406,1.642c-0.127,0.551-0.266,1.149-0.38,1.651c0.521,2.203,1.907,3.064,4.259,2.805
		c-0.306,0.617-0.5,1.036-0.718,1.44c-0.866,1.599-1.351,3.247-0.749,5.067c0.291,0.882,0.833,1.49,1.725,1.769
		c0.899,0.282,1.791,0.585,2.764,0.445c0.221-0.032,0.459,0.055,0.78,0.1c-0.309,0.798-0.892,1.017-1.55,1.11
		c-0.888,0.127-1.779,0.221-2.664,0.365c-0.168,0.028-0.307,0.224-0.54,0.406c1.023,1.689,2.741,2.583,4.052,3.946
		c-0.609,0.439-1.266,0.207-1.894,0.16c-0.589-0.043-1.173-0.135-1.839-0.215c0.03,1.189,0.777,1.672,1.399,2.221
		c0.631,0.56,1.298,1.08,2.062,1.711c-1.716,0.29-3.04-1.036-4.785-0.691c0.731,2.322,2.808,3.1,4.442,4.473
		c-0.55,0.026-1.113,0.148-1.643,0.059c-1.209-0.203-2.398-0.518-3.6-0.766C61.498,106.76,61.235,106.803,60.76,106.803z"/>
	<path fill-rule="evenodd" clip-rule="evenodd" fill="#f5f1eb" class="fill" d="M129.581,96.556c1.495,0.856,3.117,0.321,4.711,0.647
		c-0.204,1.79-2.086,2.504-2.574,4.131c1.542,0.601,3-0.395,4.541-0.121c-0.227,1.471-1.773,2.057-2.197,3.579
		c1.379-0.214,2.62-0.407,3.966-0.616c-0.217,1.43-1.543,1.761-2.095,2.842c0.862,0.271,1.681,0.528,2.5,0.785
		c-2.622,1.189-5.283,2.04-8.177,2.237c-0.552-0.485-1.1-0.967-1.765-1.552c0.335-0.512,0.628-0.958,1.016-1.549
		c-0.518-0.322-1.038-0.645-1.566-0.974c0.29-0.578,0.568-1.128,0.882-1.75c-0.5-0.325-0.867-0.563-1.28-0.83
		c0.263-0.637,0.53-1.288,0.83-2.017c-0.698-0.329-1.272-0.6-1.842-0.868c-0.095-0.842,0.879-1.556,0.09-2.44
		c-0.393-0.168-0.875-0.374-1.352-0.579c-0.121-0.681,0.653-1.287-0.043-1.984c-0.851-0.249-1.735-0.074-2.723,0.268
		c0.113,0.516,0.187,0.953,0.306,1.377c0.888,3.158,1.546,6.361,2.037,9.605c0.308,2.034-0.006,3.919-1.018,5.685
		c-0.231,0.404-0.581,0.882-0.984,1.024c-2.156,0.766-4.348,1.439-6.529,2.136c-0.104,0.034-0.234-0.016-0.658-0.055
		c1.213-0.736,2.211-1.343,3.469-2.107c-1.918-0.542-3.696-0.198-5.358-1.119c2.335-1.019,4.774-1.405,7.013-3.031
		c-1.868-0.246-3.53,0.17-5.159-0.346c1.534-0.838,3.091-1.583,4.411-2.885c-0.938-0.713-1.986-0.501-2.894-0.811
		c-1.003-1.665-2.005-3.325-3.153-5.229c0.619,0.083,0.922,0.12,1.224,0.165c0.728,0.107,1.455,0.313,2.183,0.309
		c1.767-0.01,2.217-0.419,2.741-2.119c-0.244-1.29-0.93-2.386-1.896-3.312c-0.9-0.864-1.619-1.851-2.146-2.976
		c-0.163-0.347-0.271-0.72-0.475-1.273c2.504,0.478,4.854,1.442,6.869-0.475c0.332-0.959-0.076-1.562-0.686-2.138
		c-1.161-1.097-2.352-2.175-3.406-3.371c-0.808-0.913-1.434-1.988-2.116-3.006c-0.1-0.147-0.069-0.381-0.105-0.618
		c1.528-0.386,3.169-0.337,4.311-1.471c0.363-0.758-0.025-1.224-0.412-1.73c-0.761-0.997-1.478-2.028-2.402-3.306
		c1.534,0,2.729,0,4.027,0c0.084,0.851-0.866,1.435-0.915,2.411c0.646,1.031,1.768-0.088,2.577,0.527
		c0.163,0.874-0.688,1.468-0.858,2.365c0.471,1.213,1.592,1.293,2.763,1.373c-0.063,1.339-1.266,2.006-1.698,3.18
		c1.214,1.018,2.589,0.316,3.926,0.356c0.123,1.672-1.497,2.4-1.93,3.772c1.357,0.893,2.865,0.55,4.331,0.625
		c-0.066,1.262-1.228,1.764-1.732,2.812c1.19,0.879,2.566,0.392,3.892,0.689C131.669,94.334,130.088,95.029,129.581,96.556z"/>
	<path fill-rule="evenodd" clip-rule="evenodd" fill="#f5f1eb" class="fill" d="M92.468,50.314c-1.804,0.275-3.632-0.208-5.378,0.413
		c-1.643,0.584-3.313,1.09-5.045,1.654c-0.13-1.229-0.376-2.296-1.049-3.295c-1.423-2.113-4.521-2.449-6.406-1.68
		c-2.316,0.947-3.813,2.563-4.068,5.094c-0.109,1.116,0.076,2.261,0.134,3.53c-0.4,0.023-0.911,0.054-1.357,0.081
		c-0.609-0.498-0.666-1.115-0.729-1.726c-0.387-3.727-0.375-7.454,0.154-11.163c0.164-1.158,0.471-2.319,1.347-3.27
		c1.589,0.762,2.779,0.158,3.903-0.919c1.251-1.202,2.779-1.866,4.521-1.997c1.267-0.096,2.533-0.194,3.8-0.273
		c1.67-0.105,2.091-0.596,1.895-2.253c-0.024-0.198-0.067-0.393-0.099-0.567c1.855-1.03,7.157-1.264,10.505-0.502
		c-0.148,1.42-0.302,2.835-0.443,4.252c-0.157,1.587-0.363,3.175-0.426,4.767c-0.026,0.667,0.259,1.346,0.405,2.029
		c1.095,0.845,2.632,0.818,3.529,1.886c0.167,1.647-0.102,2.074-1.544,2.659c-0.815,0.331-1.607,0.721-2.407,1.084
		c-0.217-0.726-0.097-1.087,0.657-1.502c0.558-0.308,1.173-0.511,1.72-0.742c0.008-0.702-0.326-0.908-0.838-0.973
		c-1.645-0.207-3.038,1.194-2.838,2.866C92.428,49.925,92.444,50.084,92.468,50.314z M72.324,43.575
		c1.654,0.533,3.015,1.357,4.641,1.048c1.083-0.207,2.162-0.448,3.228-0.732c1.101-0.293,1.975-0.988,2.745-1.796
		c1.086-1.14,1.023-2.144-0.3-3.229c-0.53-0.435-1.33-0.739-2.013-0.747c-1.252-0.015-2.519,0.169-3.754,0.4
		c-0.571,0.107-1.102,0.492-1.623,0.797C73.684,40.233,73.227,41.898,72.324,43.575z M85.221,44.399
		c-2.213,1.583-2.402,2.48-1.202,5.125c1.292,1.003,1.589,1.078,2.407,0.605c-1.693-2.634-1.715-2.79-0.633-4.945
		C85.631,44.961,85.447,44.71,85.221,44.399z M89.859,49.36c-0.182-1.036-0.349-1.881-1.322-2.209
		c-0.455-0.153-0.895-0.148-1.145,0.561c0.439,0.574,0.923,1.205,1.453,1.898C89.158,49.533,89.454,49.46,89.859,49.36z"/>
	<path fill-rule="evenodd" clip-rule="evenodd" fill="#f5f1eb" class="fill" d="M50.121,137.89c1.145-0.281,2.128-0.522,3.202-0.786
		c0.312,0.267,0.698,0.566,1.051,0.903c2.14,2.043,4.833,2.906,7.634,3.384c4.754,0.81,9.557,0.653,14.339,0.32
		c2.419-0.169,4.649-1.042,6.279-2.964c0.572-0.676,1.105-1.464,1.392-2.292c0.625-1.812,1.368-3.609,1.408-5.579
		c0.006-0.312,0.141-0.623,0.212-0.922c0.917,0,1.761,0,2.521,0c0,1.647-0.003,3.187,0.002,4.728
		c0.002,1.024,0.062,2.05,0.017,3.072c-0.13,3.005-1.443,5.406-3.816,7.231c-0.842,0.647-1.688,1.296-2.586,1.859
		c-0.505,0.316-1.102,0.542-1.688,0.663c-4.022,0.834-8.094,1.257-12.201,1.137c-2.857-0.083-5.733-0.157-8.561-0.539
		c-2.408-0.325-4.865-0.755-6.811-2.514c-1.693-1.531-2.867-3.235-2.51-5.662C50.099,139.29,50.082,138.635,50.121,137.89z"/>
	<path fill-rule="evenodd" clip-rule="evenodd" fill="#f5f1eb" class="fill" d="M33.088,122.402c5.146,2.711,10.734,3.156,16.422,3.557
		c-0.647,2.511,0.552,4.491,1.528,6.5c0.401,0.824,0.6,1.592,0.294,2.658c-0.542,0.318-1.195,0.703-1.838,1.079
		c-1.961-0.725-2.812-2.307-3.631-3.971c-0.458,0-0.893,0-1.341,0c-0.581,0.796-0.733,1.6-0.54,2.562
		c0.419,2.074,1.377,3.819,2.836,5.334c0.643,0.668,1.316,1.375,1.156,2.637c-0.306,0.202-0.666,0.556-1.098,0.708
		c-3.69,1.291-7.13,0.799-10.149-1.716c-2.028-1.689-3.087-3.991-3.601-6.554c-0.583-2.907-0.807-5.833-0.575-8.799
		C32.653,125.099,32.635,123.795,33.088,122.402z"/>
	<path fill-rule="evenodd" clip-rule="evenodd" fill="#f5f1eb" class="fill" d="M32.764,119.841c-0.605-1.65-0.481-3.079-0.177-4.49
		c0.224-1.039,0.6-2.045,0.867-3.076c0.368-1.409,1.376-2.205,2.695-2.356c1.488-0.171,3.043-0.213,4.514,0.03
		c2.131,0.352,4.212,1.013,6.316,1.531c0.596,0.146,1.21,0.216,1.798,0.382c1.02,0.288,2.051,0.564,3.026,0.969
		c0.357,0.148,0.647,0.611,0.831,0.996c0.456,0.964,0.404,2.013,0.242,3.027c-0.219,1.373-0.488,2.743-0.822,4.093
		c-0.449,1.818-1.83,3.149-3.436,3.228c-1.139,0.054-2.313,0.017-3.43-0.2c-1.921-0.375-3.814-0.898-5.709-1.405
		c-1.263-0.338-2.539-0.674-3.749-1.16C34.679,120.985,33.711,120.352,32.764,119.841z"/>
	<path fill-rule="evenodd" clip-rule="evenodd" fill="#f5f1eb" class="fill" d="M115.091,52.554c-2.067,4.053-5.231,6.143-9.618,5.372
		c-1.874-0.33-3.661-0.829-5.385-1.644c-1.459-0.69-3.056-0.936-4.662-1.007c-1.139-0.05-2.314-0.313-3.41,0.104
		c-1.831,0.699-3.67,1.411-5.415,2.295c-2.621,1.327-5.293,2.482-8.266,2.434c-1.66-0.026-3.336-0.367-4.96-0.756
		c-1.22-0.292-2.375-0.87-3.542-1.357c-0.317-0.132-0.577-0.398-1.022-0.718c0.451-0.072,0.691-0.166,0.92-0.139
		c2.747,0.318,5.248-0.669,7.772-1.478c2.419-0.774,4.762-1.724,7.011-2.941c1.978-1.07,4.209-1.302,6.449-1.246
		c0.779,0.019,1.557,0.092,2.337,0.107c1.201,0.023,2.362-0.111,3.437-0.751c0.445-0.266,0.98-0.381,1.322-0.509
		c1.613,0.726,3.04,1.447,4.525,2.019c2.497,0.963,5.101,1.089,7.74,0.76C111.862,52.907,113.404,52.746,115.091,52.554z"/>
	<path fill-rule="evenodd" clip-rule="evenodd" fill="#f5f1eb" class="fill" d="M140.178,123.026c-0.19-2.275,0.191-4.459-0.355-6.511
		c-1.372-1.123-3.562-1.111-5.65,0.1c-0.188,1.039-0.405,2.226-0.655,3.591c-0.733-0.612-1.366-1.14-2.045-1.707
		c-2.377,0.871-4.422,2.157-6.29,4.048c-0.157-0.436-0.341-0.788-0.41-1.161c-0.564-3.046,0.26-5.767,2.069-8.204
		c0.34-0.458,0.928-0.788,1.467-1.029c1.665-0.744,3.478-0.913,5.253-1.228c2.257-0.401,4.512-0.826,6.756-1.293
		c0.836-0.173,1.629-0.538,2.461-0.737c1.29-0.311,1.855-0.079,2.351,1.104c0.6,1.435,1.08,2.921,1.601,4.389
		c0.123,0.345,0.188,0.709,0.299,1.06c0.701,2.238,0.068,4.171-1.855,5.468C143.703,121.906,142.053,122.48,140.178,123.026z"/>
	<path fill-rule="evenodd" clip-rule="evenodd" fill="#f5f1eb" class="fill" d="M140.816,124.769c2.445-1.055,5.098-1.63,7.174-3.606
		c1.053,1.835,2.127,3.518,3.011,5.296c0.931,1.875,1.562,3.841,1.43,6.018c-0.187,3.073-1.559,5.464-3.905,7.347
		c-1.592,1.277-3.469,1.596-5.447,1.448c-0.732-0.055-1.148-0.563-1.55-1.339c0.103-0.417,0.114-1.035,0.39-1.496
		c1.446-2.408,1.158-4.793,0.239-7.303c-0.615-1.681-0.919-3.478-1.329-5.231C140.748,125.558,140.816,125.178,140.816,124.769z"/>
	<path fill-rule="evenodd" clip-rule="evenodd" fill="#f5f1eb" class="fill" d="M111.907,51.095c-0.858-4.384-2.179-5.834-5.366-5.795
		c-1.334,0.017-2.49,0.574-3.453,1.625c-0.955,1.041-1.284,2.244-1.423,3.677c-1.17-0.329-2.145-0.821-2.938-1.576
		c0.016-0.176-0.007-0.29,0.034-0.328c1.823-1.609,0.099-3.906-1.719-4.547c-0.343-0.121-0.708-0.173-1.133-0.273
		c-0.617-2.433-0.518-4.759,0.715-7.067c2.704-0.433,5.365-0.859,8.048-0.041c0.235,0.072,0.469,0.153,0.701,0.235
		c1.628,0.57,3.209,0.713,4.577-0.583c0.722,0.308,1.127,0.803,1.402,1.417c1.116,2.484,1.96,5.033,2.009,7.802
		c0.019,1.062,0.216,2.12,0.315,3.182c0.053,0.566,0.072,1.136,0.112,1.8C113.148,50.783,112.569,50.928,111.907,51.095z
		 M96.781,41.414c1.051,1.226,2.312,1.885,3.873,1.959c0.448,0.021,0.9,0.042,1.348,0.089c2.262,0.241,4.575-1.354,5.266-3.791
		c-0.404-0.277-0.832-0.648-1.323-0.891c-2.365-1.173-4.774-1.511-7.161-0.085C97.795,39.285,96.916,40.027,96.781,41.414z"/>
	<path fill-rule="evenodd" clip-rule="evenodd" fill="#f5f1eb" class="fill" d="M49.239,55.931c1.841,0.056,3.452,0.491,4.842,1.678
		c1.494,1.279,2.077,3.004,1.417,4.833c-0.798,2.213-2.258,3.797-4.621,4.33c-1.422,0.321-2.863,0.089-4.244-0.293
		c-1.135-0.314-1.674-1.393-2.049-2.331c-1.352-3.39-0.595-4.841,1.774-7.257C47.121,56.111,48.185,55.813,49.239,55.931z"/>
	<path fill-rule="evenodd" clip-rule="evenodd" fill="#f5f1eb" class="fill" d="M98.5,57.628c1.564,0.458,3.129,0.917,4.66,1.365
		c-0.078,2.653-1.579,4.551-3.161,6.383c-0.8,0.927-1.734,1.74-2.615,2.598c-0.145,0.141-0.312,0.278-0.493,0.362
		c-2.49,1.146-4.947,2.43-7.835,2.06c-1.337-0.171-2.691-0.269-4.005-0.555c-2.308-0.502-3.748-1.934-4.101-4.322
		c-0.13-0.889-0.217-1.79-0.228-2.687c-0.007-0.511,0.176-1.023,0.277-1.561c0.613-0.147,1.143-0.223,1.636-0.404
		c2.268-0.833,4.534-1.664,6.778-2.553c2.354-0.933,4.756-1.571,7.305-1.294c0.619,0.067,1.208,0.403,1.814,0.618
		c-0.31,0.066-0.626,0.114-0.934,0.196c-0.827,0.221-1.72,0.323-2.463,0.709c-1.865,0.968-3.834,1.424-5.904,1.514
		c-1.325,0.058-2.607,0.288-3.807,0.853c-1.085,0.51-1.729,1.351-1.724,2.606c0.004,1.612,0.792,2.78,2.044,3.71
		c1.382,1.026,3.027,0.882,4.594,1.03c1.663,0.157,3.22-0.494,4.825-0.803c1.867-0.36,3.312-1.344,4.646-2.594
		c1.411-1.323,1.748-3.28,0.95-5.052C100.286,58.754,99.391,58.21,98.5,57.628z"/>
	<path fill-rule="evenodd" clip-rule="evenodd" fill="#f5f1eb" class="fill" d="M58.806,125.229c-0.507,0.071-1.014,0.144-1.785,0.252
		c0.397,0.485,0.607,0.876,0.933,1.114c0.955,0.701,1.959,1.338,2.94,2.004c0.387,0.262,0.767,0.536,1.095,0.917
		c-1.711,0.123-3.312-0.311-4.961-0.675c0.184,1.065,0.608,1.517,2.276,2.408c0.961,0.513,1.95,0.97,3.073,1.525
		c-1.676,0.571-3.216-0.239-4.779,0.071c-0.104,0.739,0.416,1.058,0.884,1.315c0.968,0.531,1.978,0.986,2.971,1.47
		c0.21,0.104,0.425,0.201,0.782,0.369c-1.535,0.733-2.916-0.021-4.35-0.056c0.03,1.42,1.389,1.594,2.005,2.443
		c-0.17,0.063-0.292,0.159-0.367,0.13c-1.762-0.676-3.388-1.455-4.646-3.024c-1.605-2.002-2.573-4.269-3.305-6.647
		c-0.272-0.884-0.044-1.921-0.044-2.506c0.996-1.048,1.714-1.805,2.59-2.728c1.391,0.614,3.182,0.652,4.668,1.644L58.806,125.229z"
		/>
	<path fill-rule="evenodd" clip-rule="evenodd" fill="#f5f1eb" class="fill" d="M114.82,134.59c1.635-1.076,3.548-1.736,4.985-3.203
		c-1.665-0.32-3.334,0.514-5.136-0.138c0.904-0.418,1.718-0.682,2.404-1.137c0.906-0.601,1.72-1.347,2.561-2.044
		c0.249-0.206,0.418-0.562,0.693-0.671c1.199-0.476,2.423-0.885,3.86-1.399c-0.308,1.009-0.539,1.768-0.753,2.468
		c0.925,1.824,2.618,2.621,4.284,3.571c0.019,0.344,0.038,0.69,0.056,1.014c-2.428,1.271-4.972,1.917-7.529,2.425
		c-0.996,0.198-2.105-0.148-3.16-0.274c-0.742-0.088-1.479-0.223-2.22-0.336C114.851,134.774,114.836,134.682,114.82,134.59z"/>
	<path fill-rule="evenodd" clip-rule="evenodd" fill="#f5f1eb" class="fill" d="M105.091,32.268c0.345,0.411,0.622,0.744,0.925,1.106
		c-0.212,0.501-0.397,0.937-0.654,1.544c1.093,0.131,2.098,0.251,3.227,0.386c-0.355,0.771-0.846,0.985-1.449,0.95
		c-0.363-0.021-0.736-0.092-1.078-0.214c-2.513-0.89-5.11-1.004-7.737-0.897c-0.687,0.028-1.376,0.004-2.092,0.004
		c-0.412-1.121-0.157-2.056,0.852-2.797c0.38,0.092,0.806,0.194,1.266,0.307c0.288-0.354,0.56-0.689,0.964-1.188
		c0.326,0.506,0.587,0.913,0.885,1.374c1.027,0.313,1.037-1.338,2.202-1.096c0.115,0.318,0.271,0.748,0.486,1.342
		C103.572,32.833,104.263,32.576,105.091,32.268z"/>
	<path fill-rule="evenodd" clip-rule="evenodd" fill="#f5f1eb" class="fill" d="M72.778,150.661c0.532,0,0.933,0,1.403,0
		c0.196,4.735,0.391,9.458,0.594,14.343c-0.499,0.036-0.985,0.072-1.627,0.119C72.829,160.254,72.489,155.535,72.778,150.661z"/>
	<path fill-rule="evenodd" clip-rule="evenodd" fill="#f5f1eb" class="fill" d="M70.853,39.028c-0.541-0.76-0.687-1.521-0.157-2.455
		c0.617-0.039,1.254-0.078,1.945-0.122c0.043-0.479,0.083-0.915,0.137-1.501c0.477-0.177,0.984-0.368,1.398-0.522
		c0.5,0.34,0.856,0.582,1.222,0.831c0.678-0.559,0.575-1.723,1.685-1.754c0.336,0.234,0.688,0.479,1.104,0.77
		c0.312-0.401,0.572-0.739,0.876-1.13c0.414,0.25,0.781,0.471,1.197,0.721c0.332-0.261,0.644-0.506,0.993-0.781
		c1.418,0.063,1.201,1.402,1.926,2.356c-0.559-0.11-0.861-0.142-1.144-0.231c-1.478-0.466-2.934-0.281-4.325,0.263
		c-2.279,0.892-4.603,1.727-6.463,3.426C71.167,38.97,71.026,38.973,70.853,39.028z"/>
	<path fill-rule="evenodd" clip-rule="evenodd" fill="#f5f1eb" class="fill" d="M67.911,150.938c0.604,0,0.989,0,1.451,0c0,4.681,0,9.309,0,13.99
		c-0.423,0-0.813,0-1.28,0C67.212,160.285,67.976,155.692,67.911,150.938z"/>
	<path fill-rule="evenodd" clip-rule="evenodd" fill="#f5f1eb" class="fill" d="M80.316,149.569c0.351-0.124,0.769-0.27,1.374-0.483
		c0.108,0.66,0.29,1.238,0.282,1.813c-0.034,2.952,0.051,5.909-0.432,8.842c-0.165,1.008-0.222,2.034-0.336,3.128
		c-0.343,0.241-0.689,0.487-1.109,0.783C80.172,158.885,80.243,154.277,80.316,149.569z"/>
	<path fill-rule="evenodd" clip-rule="evenodd" fill="#f5f1eb" class="fill" d="M66.664,164.913c-0.428-0.056-0.782-0.102-1.096-0.143
		c-0.607-1.603-0.553-11.319,0.071-14.049c0.394,0,0.806,0,1.268,0C66.826,155.459,66.746,160.1,66.664,164.913z"/>
	<path fill-rule="evenodd" clip-rule="evenodd" fill="#f5f1eb" class="fill" d="M70.622,150.822c0.328,0,0.599,0,0.972,0
		c0.131,4.744,0.26,9.434,0.392,14.255c-0.366,0.026-0.749,0.053-1.091,0.078C70.187,163.618,70.005,153.507,70.622,150.822z"/>
	<path fill-rule="evenodd" clip-rule="evenodd" fill="#f5f1eb" class="fill" d="M75.442,150.574c0.235-0.085,0.42-0.18,0.614-0.214
		c0.193-0.034,0.398-0.007,0.772-0.007c0.329,4.743-0.091,9.438-0.124,14.115c-0.163,0.104-0.254,0.185-0.36,0.224
		c-0.066,0.023-0.156-0.016-0.233-0.028C75.585,164.265,75.018,152.769,75.442,150.574z"/>
	<path fill-rule="evenodd" clip-rule="evenodd" fill="#f5f1eb" class="fill" d="M63.09,150.62c0.476,0,0.831,0,1.266,0
		c-0.079,4.653-0.157,9.244-0.236,13.897c-0.24-0.047-0.505-0.099-0.875-0.171C62.623,159.809,62.627,155.288,63.09,150.62z"/>
	<path fill-rule="evenodd" clip-rule="evenodd" fill="#f5f1eb" class="fill" d="M77.828,164.559c-0.269-4.916,0.291-9.592,0.055-14.333
		c0.438-0.086,0.734-0.146,1.135-0.225c0.088,0.38,0.215,0.684,0.217,0.989c0.018,2.58,0.014,5.16,0.016,7.74
		c0,0.734,0.068,1.477-0.023,2.2c-0.131,1.045-0.355,2.082-0.602,3.107C78.582,164.212,78.224,164.311,77.828,164.559z"/>
	<path fill-rule="evenodd" clip-rule="evenodd" fill="#f5f1eb" class="fill" d="M60.762,162.528c-0.516-4.029-0.462-10.37,0.099-12.04
		c0.327,0.031,0.674,0.065,1.022,0.1c0,4.272,0,8.467,0,12.833C61.44,163.068,61.077,162.778,60.762,162.528z"/>
	<path fill-rule="evenodd" clip-rule="evenodd" fill="#f5f1eb" class="fill" d="M97.356,161.499c-0.807-0.06-1.028-0.599-1.062-1.181
		c-0.176-2.974-0.601-5.942-0.266-8.93c0.061-0.552,0.227-1.092,0.357-1.702c0.48,0.091,0.826,0.157,1.311,0.249
		c-0.115,1.938-0.271,3.831-0.328,5.728C97.312,157.577,97.356,159.491,97.356,161.499z"/>
	<path fill-rule="evenodd" clip-rule="evenodd" fill="#f5f1eb" class="fill" d="M107.131,150.87c0.453,0.03,0.767,0.051,1.081,0.072
		c0,4.065,0,8.058,0,12.169c-0.375,0.039-0.757,0.079-1.268,0.131C106.646,159.082,106.786,155.054,107.131,150.87z"/>
	<path fill-rule="evenodd" clip-rule="evenodd" fill="#f5f1eb" class="fill" d="M100.168,150.445c-0.84,4.15-0.506,8.208-0.492,12.372
		c-0.418-0.114-0.707-0.193-1.143-0.312c-0.002-4.113-0.442-8.191,0.299-12.41C99.318,150.223,99.715,150.327,100.168,150.445z"/>
	<path fill-rule="evenodd" clip-rule="evenodd" fill="#f5f1eb" class="fill" d="M110.225,162.922c-0.242,0.014-0.438,0.025-0.784,0.046
		c-0.583-4.039-0.461-8.018,0.029-12.07c0.438,0,0.824,0,1.168,0C110.5,154.891,110.364,158.839,110.225,162.922z"/>
	<path fill-rule="evenodd" clip-rule="evenodd" fill="#f5f1eb" class="fill" d="M82.945,148.651c0.313-0.189,0.649-0.392,1.204-0.727
		c0.053,0.613,0.132,1.032,0.116,1.448c-0.067,1.756-0.196,3.511-0.239,5.267c-0.043,1.758-0.009,3.518-0.009,5.295
		c-0.457,0.587-0.89,1.144-1.322,1.7c-0.066-0.035-0.133-0.069-0.199-0.104c0.15-2.139,0.357-4.276,0.434-6.417
		C83.004,152.991,82.945,150.865,82.945,148.651z"/>
	<path fill-rule="evenodd" clip-rule="evenodd" fill="#f5f1eb" class="fill" d="M106.016,150.935c-0.059,2.111-0.138,4.095-0.165,6.079
		c-0.028,2-0.007,4-0.007,6.057c-0.176,0.075-0.345,0.146-0.513,0.217c-0.858-1.886-1.052-9.244-0.333-12.353
		C105.248,150.935,105.513,150.935,106.016,150.935z"/>
	<path fill-rule="evenodd" clip-rule="evenodd" fill="#f5f1eb" class="fill" d="M112.467,162.606c-0.368,0-0.598,0-0.92,0
		c-0.492-3.921-0.276-7.761,0.371-11.646c0.332-0.042,0.596-0.076,0.955-0.123C112.737,154.774,112.604,158.631,112.467,162.606z"/>
	<path fill-rule="evenodd" clip-rule="evenodd" fill="#f5f1eb" class="fill" d="M103.99,163.343c-0.49-0.029-0.787-0.046-1.175-0.069
		c-0.469-4.23-0.146-8.379-0.184-12.619c0.467,0.024,0.771,0.04,1.249,0.063C103.498,154.941,103.49,159.09,103.99,163.343z"/>
	<path fill-rule="evenodd" clip-rule="evenodd" fill="#f5f1eb" class="fill" d="M114.564,162.481c-0.442-0.087-0.633-0.125-0.922-0.182
		c-0.225-3.829-0.011-7.61,0.402-11.473c0.297-0.016,0.55-0.029,0.852-0.046C114.786,154.689,114.678,158.505,114.564,162.481z"/>
	<path fill-rule="evenodd" clip-rule="evenodd" fill="#f5f1eb" class="fill" d="M58.453,150.118c0.336,0.059,0.678,0.118,1.02,0.177
		c0,3.712,0,7.335,0,11.065c-0.729-0.363-0.939-0.962-1.003-1.607c-0.143-1.427-0.313-2.858-0.339-4.29
		c-0.027-1.637,0.089-3.277,0.152-4.916C58.287,150.435,58.369,150.325,58.453,150.118z"/>
	<path fill-rule="evenodd" clip-rule="evenodd" fill="#f5f1eb" class="fill" d="M116.06,150.875c0.248-0.067,0.471-0.126,0.755-0.202
		c0.083,0.236,0.203,0.417,0.202,0.596c-0.016,1.759-0.021,3.52-0.089,5.277c-0.065,1.753-0.199,3.504-0.307,5.325
		c-0.232,0.07-0.486,0.147-0.748,0.226C115.569,160.346,115.674,153.956,116.06,150.875z"/>
	<path fill-rule="evenodd" clip-rule="evenodd" fill="#f5f1eb" class="fill" d="M118.715,161.013c-0.337,0.165-0.545,0.266-0.699,0.341
		c-0.459-0.178-0.262-7.798,0.203-10.633c0.239-0.036,0.506-0.076,0.778-0.117c0.092,0.126,0.22,0.22,0.218,0.312
		c-0.027,1.428-0.046,2.856-0.12,4.282C118.994,157.112,118.848,159.023,118.715,161.013z"/>
	<path fill-rule="evenodd" clip-rule="evenodd" fill="#f5f1eb" class="fill" d="M120.347,150.456c0.477-0.034,0.823-0.059,1.307-0.094
		c0,0.537,0.025,0.979-0.005,1.418c-0.141,1.994-0.287,3.987-0.451,5.979c-0.064,0.791-0.403,1.451-1.236,2.119
		C119.91,156.639,120.304,153.632,120.347,150.456z"/>
	<path fill-rule="evenodd" clip-rule="evenodd" fill="#f5f1eb" class="fill" d="M101.652,163.331c-0.798,0.083-0.906-0.397-0.913-0.77
		c-0.083-3.966-0.45-7.947,0.701-11.927c0.065,0.263,0.189,0.526,0.187,0.789c-0.022,2.333-0.098,4.667-0.098,7.001
		c0,1.311,0.119,2.621,0.171,3.933C101.713,162.673,101.671,162.992,101.652,163.331z"/>
	<path fill-rule="evenodd" clip-rule="evenodd" fill="#f5f1eb" class="fill" d="M88.321,152.042c-0.374,0-0.695,0-1.067,0
		c0-2.106,0-4.197,0-6.288c0.119,0.073,0.238,0.146,0.357,0.22c0.304-0.467,0.607-0.933,0.975-1.496
		C88.947,145.864,88.792,149.633,88.321,152.042z"/>
	<path fill-rule="evenodd" clip-rule="evenodd" fill="#f5f1eb" class="fill" d="M129.818,133.98c1.626,1.373,3.293,2.413,4.465,4.068
		c-0.397,0.528-0.882,0.636-1.339,0.403C131.16,137.544,129.929,136.607,129.818,133.98z"/>
	<path fill-rule="evenodd" clip-rule="evenodd" fill="#f5f1eb" class="fill" d="M90.536,151.741c-0.319,0.055-0.548,0.094-0.903,0.154
		c-0.279-2.325,0.242-4.546,0.215-7.064c0.537,0.617,0.87,0.998,1.309,1.502C90.969,147.97,90.76,149.788,90.536,151.741z"/>
	<path fill-rule="evenodd" clip-rule="evenodd" fill="#f5f1eb" class="fill" d="M92.951,151.963c-0.595-0.048-0.914-0.073-1.389-0.111
		c0.146-1.563,0.29-3.078,0.455-4.836c0.583,0.427,0.935,0.686,1.436,1.052C93.293,149.307,93.128,150.585,92.951,151.963z"/>
	<path fill-rule="evenodd" clip-rule="evenodd" fill="#f5f1eb" class="fill" d="M86.131,146.995c0,1.739,0,3.432,0,5.196
		c-0.216,0.233-0.453,0.489-0.737,0.795c-0.106-0.17-0.213-0.26-0.21-0.35c0.021-1.543,0.049-3.085,0.091-4.629
		C85.288,147.501,85.402,147.042,86.131,146.995z"/>
	<path fill-rule="evenodd" clip-rule="evenodd" fill="#f5f1eb" class="fill" d="M94.828,152.622c-0.361-0.186-0.563-0.291-0.858-0.442
		c0.093-1.009,0.185-2.005,0.289-3.144c0.454,0.133,0.73,0.214,1.09,0.32C95.176,150.438,95.018,151.432,94.828,152.622z"/>
	<path fill-rule="evenodd" clip-rule="evenodd" fill="#f5f1eb" class="fill" d="M122.658,153.76c0-1.164,0-2.329,0-3.615
		c0.357-0.115,0.695-0.224,1.289-0.415c-0.361,1.54-0.659,2.806-0.957,4.072C122.879,153.789,122.768,153.774,122.658,153.76z"/>
	<path fill-rule="evenodd" clip-rule="evenodd" fill="#f5f1eb" class="fill" d="M56.758,153.362c-0.071-1.18-0.143-2.359-0.224-3.697
		c0.806,0.614,0.96,2.439,0.49,3.7C56.936,153.365,56.848,153.364,56.758,153.362z"/>
	<path fill-rule="evenodd" clip-rule="evenodd" fill="#f5f1eb" class="fill" d="M58.785,125.255c0.374,0,0.747,0,1.119,0
		c-0.017,0.111-0.035,0.223-0.053,0.335c-0.35-0.12-0.697-0.241-1.046-0.361C58.806,125.229,58.785,125.255,58.785,125.255z"/>
	<path fill-rule="evenodd" clip-rule="evenodd" fill="#f5f1eb" class="fill" d="M74.049,43.163c0.437-2.05,2.011-3.474,4.146-3.636
		c1.052-0.079,2.124,0.042,3.183,0.144c0.669,0.064,0.664,0.122,1.225,0.858C81.666,43.023,76.499,44.65,74.049,43.163z
		 M77.247,41.569c0.552,0.725,1.062,1.07,1.703,0.727c0.257-0.137,0.519-0.573,0.499-0.853c-0.052-0.716-0.676-0.796-1.408-0.887
		C77.808,40.854,77.533,41.203,77.247,41.569z"/>
	<path fill-rule="evenodd" clip-rule="evenodd" fill="#f5f1eb" class="fill" d="M98.141,41.16c1.48-2.582,5.497-3.178,7.847-1.108
		C104.475,42.851,100.231,43.481,98.141,41.16z M101.283,41.26c1.332,0.574,1.668,0.424,2.057-0.805
		c-0.708-0.879-0.766-0.889-1.811-0.259C101.459,40.501,101.379,40.85,101.283,41.26z"/>
	<path fill-rule="evenodd" clip-rule="evenodd" fill="#f5f1eb" class="fill" d="M84.955,64.793c0.174-1.93,1.161-2.97,3.059-2.774
		c2.771,0.285,5.131-0.733,7.514-1.855c0.661-0.312,1.378-0.502,1.954-0.707c0.931,0.175,1.774,0.371,1.976,1.245
		c0.254,1.103,0.494,2.267-0.407,3.268c-0.634,0.706-1.288,1.341-2.197,1.727c-2.614,1.108-5.335,1.575-8.156,1.417
		C86.964,67.016,86.056,66.409,84.955,64.793z M86.801,64.429c3.575,1.549,7.621,0.553,10.984-2.388
		c-0.119-0.313-0.256-0.674-0.405-1.067c-0.276,0.142-0.399,0.179-0.487,0.255c-1.496,1.292-3.229,2.056-5.191,2.256
		c-1.336,0.135-2.68,0.202-4.021,0.271C87.25,63.777,86.838,63.744,86.801,64.429z"/>
</g>
</svg>
