<svg version="1.1" xmlns="http://www.w3.org/2000/svg" xmlns:xlink="http://www.w3.org/1999/xlink" x="0px" y="0px" width="200px"
	 height="200px" viewBox="0 0 200 200" enable-background="new 0 0 200 200" xml:space="preserve">
<g id="svg">
	<path class="stroke" fill="#492208"  d="M171.301,66.795c-0.226-1.74-0.649-3.457-1.047-5.171c-0.63-2.713-1.464-5.377-2.912-7.766
		c-1.115-1.84-2.342-3.629-3.965-5.102c-0.646-0.586-1.214-1.261-1.818-1.896c-0.12-0.218-0.328-0.351-0.512-0.515
		c-1.917-1.721-4.098-3.021-6.463-4.017c-0.664-0.28-1.355-0.498-2.045-0.709c-1.298-0.399-2.607-0.765-3.906-1.163
		c-1.511-0.465-2.99-1.088-4.531-1.391c-1.903-0.374-3.846-0.64-5.811-0.49c-1.895,0.144-3.794,0.249-5.686,0.435
		c-0.957,0.094-1.905,0.312-2.853,0.506c-1.244,0.256-2.496,0.489-3.717,0.833c-1.384,0.39-2.729,0.912-4.104,1.342
		c-2.103,0.66-4.029,1.693-5.908,2.812c-0.988,0.59-1.858,1.383-2.857,1.954c-2.126,1.213-3.754,3.009-5.559,4.597
		c-0.583,0.511-0.997,1.223-1.601,1.699c-1.359,1.07-2.254,2.494-3.146,3.916c-1.378,2.191-2.453,4.544-3.31,6.976
		c-0.502,1.424-0.729,2.946-1.08,4.424c-0.477,2.002-0.905,4.019-1.446,6.003c-0.519,1.9-1.037,3.815-1.781,5.632
		c-0.646,1.575-1.491,3.1-2.458,4.502c-0.967,1.4-2.187,2.626-3.31,3.917c-1.051,1.209-2.28,2.207-3.745,2.869
		c-0.767,0.347-1.619,0.513-2.371,0.886c-1.916,0.946-3.978,1.382-6.054,1.625c-2.254,0.264-4.544,0.452-6.805,0.357
		c-2.271-0.094-4.531-0.548-6.787-0.899c-1.438-0.225-2.839-0.756-4.332-0.389c-0.206,0.051-0.457-0.017-0.673-0.076
		c-2.627-0.708-5.243-1.43-7.963-1.752c-3.033-0.36-6.036-0.959-9.07-1.305c-2.297-0.262-4.62-0.301-6.933-0.409
		c-0.348-0.016-0.701,0.13-1.059,0.204c0,0.439,0,0.766,0,0.986c0.457,0.769,1.094,0.885,1.821,0.808
		c0.307-0.032,0.624-0.016,0.932,0.022c2.027,0.251,4.054,0.509,6.081,0.773c2.701,0.352,5.404,0.691,8.101,1.073
		c2.57,0.363,5.15,0.682,7.436,1.508c0.463,0.555,0.826,0.99,1.264,1.515c-0.017,0.033-0.104,0.2-0.174,0.331
		c-0.616-0.197-1.153-0.409-1.708-0.536c-0.589-0.134-1.217-0.113-1.788-0.289c-2.819-0.861-5.72-1.23-8.639-1.496
		c-1.295-0.119-2.595-0.197-3.891-0.315c-2.42-0.221-4.839-0.465-7.259-0.685c-0.846-0.076-1.693-0.115-2.544-0.154
		c-0.283-0.014-0.569,0.024-0.883,0.041c0,0.327,0,0.527,0,0.903c3.13,0.299,6.253,0.589,9.374,0.898
		c3.126,0.31,6.269,0.473,9.363,1.061c-0.272,0.063-0.539,0.077-0.805,0.061c-1.607-0.094-3.215-0.197-4.823-0.289
		c-0.784-0.044-1.57-0.057-2.355-0.103c-1.356-0.079-2.711-0.212-4.068-0.245c-0.86-0.02-1.724,0.131-2.585,0.15
		c-1.25,0.028-2.501,0.008-3.848,0.008c-0.035,0.274-0.078,0.622-0.122,0.971c0.188,0.072,0.28,0.133,0.378,0.141
		c1.971,0.155,3.94,0.327,5.914,0.445c1.856,0.111,3.719,0.119,5.572,0.255c1.587,0.117,3.162,0.385,4.747,0.53
		c2.239,0.205,4.485,0.357,6.688,0.529c0.246,0.436,0.464,0.823,0.637,1.13c0.425,0.128,0.733,0.22,1.116,0.334
		c-0.177,0.403-0.321,0.73-0.514,1.173c-1.049-0.203-2.045-0.436-3.053-0.583c-2.646-0.385-5.293-0.791-7.952-1.08
		c-2.158-0.234-4.332-0.384-6.502-0.44c-1.979-0.051-3.963,0.045-5.94,0.139c-0.825,0.04-1.643,0.243-2.595,0.394
		c0.164,0.676,0.291,1.196,0.423,1.734c0.237,0.021,0.419,0.051,0.601,0.051c1.488,0,2.978-0.01,4.465-0.006
		c1.508,0.001,3.018-0.011,4.527,0.03c2.066,0.056,4.136,0.105,6.199,0.253c1.508,0.108,3.003,0.372,4.503,0.566
		c-0.002,0.062-0.005,0.125-0.007,0.188c-0.174,0.03-0.35,0.095-0.522,0.087c-2.093-0.105-4.188-0.219-6.279-0.335
		c-0.331-0.019-0.659-0.095-0.987-0.09c-1.916,0.026-3.828,0.094-5.745,0.097c-1.19,0.001-2.379-0.076-3.567-0.143
		c-1.179-0.067-2.355-0.166-3.497-0.249c-0.231,0.518-0.387,0.866-0.612,1.367c0.483,0.205,0.943,0.502,1.436,0.583
		c0.853,0.142,1.728,0.18,2.595,0.205c1.417,0.041,2.838,0.024,4.256,0.055c1.157,0.025,2.312,0.103,3.47,0.125
		c0.906,0.017,1.814-0.035,2.721-0.026c1.953,0.016,3.907,0.058,5.861,0.077c1.189,0.012,2.38,0.002,3.615,0.002
		c0.067,0.16,0.175,0.416,0.252,0.6c0.416,0.141,0.738,0.251,1.062,0.362c-0.11,0.442-0.197,0.798-0.288,1.161
		c-0.954,0.156-1.728,0.719-2.812,0.396c-1.57-0.469-3.229-0.667-4.862-0.885c-1.762-0.234-3.534-0.368-5.304-0.525
		c-0.535-0.047-1.077-0.037-1.615-0.032c-2.146,0.024-4.291,0.047-6.436,0.093c-1.115,0.023-2.229,0.078-3.343,0.154
		c-0.317,0.023-0.758,0.079-0.903,0.286c-0.145,0.205,0.014,0.622,0.041,0.975c1.488-0.083,2.829-0.167,4.169-0.229
		c1.343-0.063,2.684-0.138,4.026-0.147c1.343-0.008,2.688,0.077,4.029,0.091c1.321,0.012,2.646-0.043,3.929,0.425
		c-2.8-0.059-5.569,0.064-8.326,0.602c-2.749,0.537-5.532,0.906-8.244,1.339c-0.199,1.282,0.375,1.849,1.45,1.658
		c0.387-0.069,0.779-0.103,1.169-0.147c2.333-0.268,4.664-0.539,6.994-0.802c1.354-0.153,2.707-0.394,4.063-0.417
		c2.276-0.039,4.554,0.039,6.829,0.125c0.918,0.035,1.832,0.221,2.749,0.339c-0.032,0.049-0.064,0.098-0.096,0.146
		c0.206,0.288,0.361,0.64,0.63,0.844c0.282,0.213,0.673,0.283,1.055,0.431c-0.032,0.326-0.062,0.625-0.092,0.908
		c-0.392,0.112-0.727,0.207-1.046,0.297c-1.707-1.287-13.318-0.537-21.576,1.376c-0.203-0.057-0.416-0.192-0.592-0.154
		c-0.865,0.184-1.722,0.41-2.578,0.629c-0.67,0.172-0.98,0.667-1.06,1.301c-0.077,0.631,0.482,0.795,0.883,1.09
		c3.401-1.146,6.895-1.846,10.43-2.369c3.54-0.523,7.083-0.946,10.668-0.574c-1.079,0.206-2.166,0.285-3.251,0.385
		c-1.46,0.135-2.926,0.239-4.377,0.444c-1.26,0.177-2.506,0.458-3.751,0.726c-1.713,0.365-3.428,0.733-5.128,1.15
		c-1.26,0.31-2.504,0.687-3.744,1.064c-0.449,0.137-0.87,0.363-1.406,0.592c0.264,0.359,0.412,0.564,0.537,0.733
		c4.065-0.981,8.015-2.167,12.049-2.842c4.062-0.679,8.211-0.848,12.321-1.24c-0.005,0.079-0.008,0.158-0.011,0.237
		c0.492,0.233,0.986,0.466,1.546,0.731c0.014,0.203,0.032,0.485,0.06,0.885c-0.472,0.076-0.903,0.204-1.337,0.204
		c-0.989-0.003-1.98-0.151-2.964-0.091c-1.855,0.112-3.708,0.294-5.557,0.511c-2.312,0.271-4.636,0.506-6.919,0.943
		c-2.336,0.448-4.667,1.009-6.818,2.083c-0.45,0.225-0.925,0.573-1.175,0.992c-0.28,0.471-0.32,1.087-0.475,1.678
		c0.238,0.199,0.443,0.371,0.771,0.643c0.276-0.069,0.72-0.076,1.04-0.276c1.723-1.081,3.65-1.623,5.567-2.194
		c0.187-0.056,0.394-0.037,0.59-0.053c0.015,0.052,0.029,0.104,0.044,0.156c-2.17,0.881-4.379,1.692-6.256,3.385
		c-0.01,0.178-0.026,0.496-0.045,0.824c0.189,0.136,0.354,0.254,0.516,0.369c0.242-0.096,0.451-0.184,0.662-0.265
		c2.715-1.032,5.396-2.158,8.152-3.069c3.189-1.055,6.442-1.911,9.789-2.351c0.857-0.113,1.725-0.302,2.577-0.267
		c0.776,0.032,1.543,0.322,2.429,0.525c0.035,0.159,0.104,0.468,0.161,0.729c-0.345,0.185-0.615,0.328-0.771,0.411
		c-1.803,0.161-3.504,0.217-5.167,0.482c-2.382,0.378-4.739,0.908-7.104,1.375c-0.844,0.167-1.701,0.283-2.523,0.525
		c-0.87,0.256-1.709,0.62-2.551,0.961c-1.591,0.642-3.178,1.288-4.749,1.969c-0.308,0.134-0.544,0.432-0.847,0.682
		c0.265,0.235,0.416,0.371,0.565,0.505c1.829-0.711,3.651-1.408,5.466-2.128c1.808-0.717,3.639-1.324,5.572-1.63
		c1.908-0.3,3.798-0.717,5.694-1.083c0.015,0.068,0.031,0.136,0.046,0.204c-0.384,0.113-0.775,0.206-1.148,0.341
		c-1.491,0.539-2.976,1.09-4.464,1.636c-0.881,0.324-1.773,0.618-2.64,0.977c-0.736,0.305-1.43,0.718-2.167,1.022
		c-1.518,0.631-3.06,1.214-4.583,1.833c-0.66,0.269-1.232,0.663-1.568,1.323c0.229,0.496,0.624,0.625,1.09,0.496
		c1.142-0.317,2.304-0.59,3.406-1.015c2.179-0.836,4.309-1.799,6.488-2.638c1.519-0.584,3.078-1.067,4.631-1.56
		c1.578-0.499,3.171-0.955,4.756-1.427c1.396-0.416,2.624,0.054,3.77,0.788c0.865,0.555,1.814,0.809,2.806,0.867
		c1.689,0.098,3.385,0.102,5.075,0.159c1.637,0.055,3.271,0.179,4.904,0.175c1.653-0.003,3.309-0.104,4.961-0.204
		c1.111-0.067,2.22-0.201,3.327-0.318c1.233-0.131,2.47-0.254,3.698-0.424c1.901-0.263,3.821-0.464,5.691-0.876
		c1.848-0.406,3.653-1.016,5.461-1.585c0.982-0.31,1.99-0.619,2.887-1.111c1.556-0.852,3.045-1.827,4.539-2.786
		c1.916-1.229,3.733-2.584,5.294-4.26c0.733-0.789,1.477-1.571,2.271-2.298c1.24-1.139,2.389-2.335,3.227-3.817
		c1.107-1.958,2.401-3.822,3.362-5.848c1.236-2.603,2.268-5.307,3.304-8.001c0.626-1.628,1.172-3.295,1.615-4.98
		c0.553-2.094,0.968-4.223,1.43-6.34c0.221-1.006,0.427-2.015,0.619-3.025c0.309-1.622,0.557-3.257,0.913-4.867
		c0.501-2.271,1.003-4.547,1.649-6.779c0.514-1.773,1.369-3.416,2.654-4.784c0.75-0.797,1.426-1.711,2.312-2.313
		c1.182-0.802,2.499-1.435,3.822-1.989c1.503-0.63,3.128-0.717,4.746-0.607c0.813,0.056,1.618,0.215,2.431,0.265
		c1.367,0.084,2.541,0.688,3.668,1.363c0.661,0.394,1.287,0.879,1.58,1.682c0.395,1.083,0.893,2.128,1.286,3.212
		c0.37,1.023,0.82,2.055,0.956,3.118c0.25,1.975,0.276,3.978,0.429,5.966c0.162,2.11-0.642,4.05-1.091,6.04
		c-0.317,1.399-0.972,2.732-1.566,4.054c-0.448,0.993-0.929,2.007-1.59,2.861c-1.164,1.5-2.42,2.941-3.742,4.305
		c-1.393,1.435-2.91,2.748-4.37,4.118c-1.158,1.085-2.337,2.152-3.467,3.267c-1.169,1.156-2.259,2.391-3.436,3.538
		c-1.907,1.854-3.867,3.654-5.78,5.501c-0.828,0.8-1.614,1.646-2.388,2.499c-0.756,0.834-1.517,1.671-2.198,2.565
		c-1.298,1.701-2.588,3.412-3.786,5.184c-0.628,0.927-1.114,1.965-1.554,3c-0.521,1.225-0.938,2.494-1.374,3.754
		c-0.4,1.162-0.833,2.319-1.129,3.511c-0.452,1.806-0.823,3.633-1.179,5.46c-0.291,1.491-0.441,3-0.346,4.525
		c0.021,0.367,0.111,0.751,0.039,1.099c-0.212,0.997-0.326,1.965,0.287,2.862c-0.221,0.85-0.467,1.669-0.642,2.503
		c-0.343,1.631-0.689,3.264-0.954,4.909c-0.26,1.615-0.39,3.25-0.631,4.868c-0.268,1.787-0.638,3.558-0.886,5.346
		c-0.176,1.259-0.224,2.535-0.328,3.804c-0.061,0.764-0.119,1.53-0.186,2.367c0.558,0.142,0.989,0.252,1.515,0.386
		c0.144-1.006,0.27-1.855,0.384-2.706c0.41-3.05,0.774-6.108,1.238-9.15c0.356-2.348,0.794-4.687,1.28-7.011
		c0.314-1.506,0.779-2.98,1.152-4.379c0.342-0.154,0.549-0.247,0.802-0.359c0.155-0.392,0.321-0.807,0.512-1.283
		c0.208,0.129,0.387,0.241,0.603,0.374c-0.205,0.445-0.384,0.835-0.567,1.236c0.079,0.302,0.157,0.601,0.232,0.89
		c-1.978,7.368-3.026,14.9-4.263,22.396c0.264,0.135,0.445,0.228,0.623,0.32c0.235-0.091,0.441-0.171,0.537-0.208
		c1.025-5.925,2.033-11.753,3.042-17.582c0.054,0.006,0.107,0.013,0.161,0.019c0,0.197,0.027,0.399-0.005,0.591
		c-0.226,1.401-0.466,2.802-0.695,4.202c-0.534,3.254-1.077,6.506-1.582,9.765c-0.121,0.793-0.108,1.605-0.164,2.527
		c0.509-0.032,0.825-0.052,0.997-0.062c1.151-7.161,2.279-14.163,3.41-21.189c0.646-0.386,0.791-0.627,1.21-2.009
		c0.44,0.1,0.886,0.2,1.464,0.331c-0.432,1.332-0.855,2.571-1.236,3.822c-0.553,1.805-1.143,3.602-1.584,5.434
		c-0.331,1.368-0.466,2.785-0.67,4.183c-0.244,1.682-0.498,3.363-0.693,5.051c-0.188,1.64-0.307,3.287-0.449,4.932
		c-0.037,0.425,0.125,0.783,0.584,0.783c0.5-0.001,0.604-0.408,0.613-0.834c0.009-0.39,0.001-0.782,0.041-1.169
		c0.168-1.726,0.337-3.452,0.537-5.175c0.126-1.086,0.307-2.165,0.463-3.248c0.014,0.005,0.027,0.011,0.043,0.016
		c-0.183,3.377-0.366,6.755-0.56,10.314c0.469,0.034,0.833,0.06,1.38,0.099c-0.272-6.279,0.661-12.318,1.673-18.35
		c0.09,0.272,0.082,0.535,0.062,0.798c-0.146,1.795-0.307,3.589-0.435,5.386c-0.072,1.03-0.091,2.064-0.135,3.097
		c-0.087,2.068-0.197,4.135-0.248,6.204c-0.015,0.605,0.131,1.215,0.215,1.925c0.555-0.093,1.003-0.168,1.417-0.239
		c0.049-0.196,0.083-0.275,0.087-0.355c0.16-2.365,0.306-4.732,0.479-7.098c0.209-2.865,0.36-5.736,0.695-8.587
		c0.18-1.542,0.658-3.052,1.059-4.562c0.148-0.56,0.461-1.076,0.711-1.641c0.35,0.083,0.682,0.163,1.013,0.242
		c0,0.256,0.012,0.454-0.003,0.65c-0.052,0.714-0.042,1.441-0.183,2.139c-0.396,1.99-0.918,3.958-1.269,5.955
		c-0.27,1.53-0.362,3.092-0.515,4.641c-0.29,2.922-0.574,5.844-0.837,8.77c-0.029,0.341,0.089,0.695,0.139,1.039
		c0.466,0,0.797,0.012,1.127-0.003c0.438-0.021,0.668-0.251,0.699-0.703c0.161-2.29,0.264-4.586,0.519-6.865
		c0.212-1.875,0.612-3.729,0.925-5.592c0.27-1.609,0.524-3.22,0.804-4.828c0.106-0.61,0.26-1.213,0.392-1.82
		c0.072,0.007,0.145,0.015,0.215,0.022c0.015,0.211,0.055,0.423,0.041,0.633c-0.092,1.402-0.202,2.803-0.293,4.206
		c-0.123,1.894-0.222,3.789-0.346,5.684c-0.179,2.714-0.373,5.427-0.551,8.141c-0.026,0.425,0.021,0.849,0.596,0.969
		c0.172-0.098,0.363-0.208,0.539-0.309c0.484-7.464,0.965-14.877,1.448-22.363c0.688,0.053,1.193,0.093,1.85,0.144
		c-0.101,1.014-0.151,1.949-0.292,2.871c-0.153,0.994-0.453,1.967-0.576,2.962c-0.159,1.267-0.206,2.548-0.295,3.824
		c-0.12,1.69-0.285,3.38-0.34,5.073c-0.063,1.914-0.027,3.832-0.032,5.748c-0.003,0.903-0.001,1.805-0.001,2.655
		c0.825,0.333,1.098,0.203,1.351-0.534c-0.705-1.509-0.001-16.303,0.892-18.352c0.035,0.323,0.104,0.604,0.094,0.883
		c-0.143,4.36-0.299,8.721-0.445,13.08c-0.046,1.38-0.091,2.76-0.104,4.14c-0.004,0.474,0.091,0.949,0.141,1.417
		c0.307,0.028,0.489,0.045,0.654,0.06c0.455,0.766,0.825,0.803,1.388,0.153c0.088-1.873,0.214-3.752,0.252-5.633
		c0.028-1.489-0.097-2.979-0.075-4.468c0.037-2.624,0.232-5.25,0.174-7.87c-0.045-1.966,0.189-3.866,0.652-5.718
		c0.354,0,0.723,0,1.062,0c0,1.229,0.063,2.418-0.018,3.597c-0.08,1.167-0.385,2.321-0.449,3.488c-0.124,2.23-0.131,4.467-0.217,6.7
		c-0.062,1.579-0.182,3.156-0.262,4.735c-0.07,1.395-0.135,2.791-0.16,4.187c-0.006,0.246,0.131,0.625,0.313,0.71
		c0.235,0.112,0.581-0.006,0.873-0.025c0.017-0.28,0.026-0.403,0.028-0.526c0.031-1.677,0.023-3.355,0.096-5.03
		c0.128-2.887,0.299-5.771,0.463-8.656c0.09-1.56,0.181-3.12,0.316-4.676c0.042-0.495,0.229-0.976,0.35-1.463
		c0.09,0.356,0.002,0.688,0.006,1.019c0.019,1.364,0.089,2.728,0.094,4.091c0.005,1.412-0.041,2.823-0.072,4.234
		c-0.051,2.25-0.121,4.499-0.155,6.748c-0.016,1.101,0.032,2.201,0.057,3.539c0.728-0.246,1.238-0.418,1.877-0.634
		c-0.161-6.667,0.753-13.275,0.195-19.932c0.117-0.332,0.303-0.704,0.368-1.096c0.068-0.394,0.016-0.807,0.016-1.281
		c0.683-0.122,1.316-0.235,2.096-0.375c0,0.734,0.054,1.389-0.01,2.034c-0.22,2.234-0.537,4.46-0.708,6.698
		c-0.192,2.498-0.274,5.006-0.388,7.51c-0.071,1.608-0.125,3.217-0.162,4.826c-0.017,0.771,0.03,1.543,0.047,2.304
		c0.396,0.048,0.634,0.078,0.853,0.104c0.526-0.412,0.263-0.912,0.267-1.392c0.016-1.964,0.057-3.929,0.135-5.892
		c0.113-2.771,0.245-5.541,0.414-8.31c0.084-1.342,0.271-2.679,0.41-4.018c0.087,0.002,0.173,0.006,0.26,0.009
		c0,0.287,0.005,0.573,0,0.861c-0.025,1.045-0.068,2.089-0.074,3.135c-0.007,1.184,0.025,2.369,0.029,3.553
		c0.001,0.699-0.037,1.399-0.035,2.098c0.01,1.439,0.066,2.879,0.041,4.317c-0.024,1.504-0.147,3.007-0.174,4.511
		c-0.006,0.401,0.186,0.805,0.307,1.291c0.393-0.133,0.654-0.221,0.952-0.323c0-4.521,0-8.988,0-13.456
		c0.071-0.002,0.143-0.005,0.214-0.008c0.29,4.233,0.578,8.466,0.868,12.699c-0.034,0.005-0.067,0.01-0.101,0.016
		c0.117,0.192,0.235,0.384,0.427,0.696c0.552-0.075,1.136-0.156,1.736-0.238c0.021-0.42,0.056-0.708,0.045-0.993
		c-0.026-0.652-0.087-1.303-0.11-1.954c-0.079-2.056-0.101-4.114-0.233-6.166c-0.116-1.771-0.336-3.534-0.543-5.297
		c-0.269-2.293-0.575-4.583-0.852-6.875c-0.026-0.211,0.009-0.448,0.079-0.651c0.405-1.163,0.83-2.318,1.246-3.478
		c0.025-0.076,0.019-0.165,0.035-0.245c0.411-2.104,0.789-4.214,1.248-6.307c0.194-0.883,0.527-1.741,0.848-2.591
		c0.697-1.851,1.324-3.736,2.168-5.52c1.057-2.239,2.261-4.412,3.474-6.574c0.937-1.671,1.954-3.299,2.984-4.917
		c0.952-1.498,1.978-2.949,2.953-4.432c0.847-1.288,1.661-2.597,2.507-3.885c0.566-0.863,1.198-1.686,1.74-2.565
		c1.028-1.669,2.015-3.364,3.01-5.054c1.014-1.721,2.102-3.406,2.999-5.185c0.771-1.523,1.305-3.165,1.974-4.742
		c1.01-2.38,1.748-4.839,2.309-7.362c0.676-3.024,0.953-6.086,0.893-9.167C171.788,71.187,171.586,68.98,171.301,66.795z"/>
</g>
<g id="Layer_2">
	<path fill-rule="evenodd" clip-rule="evenodd" fill="#f4751a" class="fill" d="M69.215,95.357c2.58,0,5.057,0,7.684,0
		c0.33,0.959,0.788,2.023,1.059,3.135c0.614,2.524,1.201,5.059,1.675,7.612c0.29,1.567,0.355,3.176,0.516,4.766
		c0.062,0.612,0.119,1.224,0.159,1.837c0.037,0.574,0.079,1.149,0.066,1.723c-0.033,1.557,0.016,3.127-0.173,4.667
		c-0.176,1.443-0.614,2.854-0.946,4.317c-3.419,0.169-6.74,0.334-10.012,0.496C70.461,114.354,71.054,104.907,69.215,95.357z"/>
	<path fill-rule="evenodd" clip-rule="evenodd" fill="#f4751a" class="fill" d="M116.96,117.842c1.655-3.428,4.144-6.033,6.735-8.489
		c1.147,0.816,2.215,1.655,3.359,2.371c1.875,1.169,3.824,2.187,5.949,2.86c1.314,0.417,2.565,1.025,3.869,1.484
		c1.629,0.575,3.271,1.117,4.928,1.613c1.437,0.431,2.897,0.794,4.355,1.156c0.658,0.163,1.333,0.247,2.039,0.374
		c-1.004,1.986-1.996,3.949-3.045,6.021c-1.25-0.061-2.536-0.048-3.803-0.203c-2.129-0.263-4.258-0.578-6.364-0.98
		c-1.516-0.289-3-0.746-4.492-1.148c-1.769-0.476-3.561-0.892-5.292-1.483c-2.299-0.784-4.56-1.69-6.815-2.598
		C117.869,118.612,117.445,118.183,116.96,117.842z"/>
	<path fill-rule="evenodd" clip-rule="evenodd" fill="#f4751a" class="fill" d="M91.994,120.496c0.168-1.002,0.312-1.826,0.445-2.652
		c0.352-2.184,0.195-4.357-0.154-6.523c-0.287-1.787-0.479-3.599-0.928-5.344c-0.517-2.009-1.154-4.007-1.948-5.923
		c-1.021-2.464-2.253-4.841-3.422-7.317c1.254-0.753,2.572-1.543,4.005-2.403c0.653,0.771,1.336,1.462,1.886,2.247
		c0.874,1.251,1.731,2.526,2.459,3.865c0.815,1.5,1.508,3.071,2.196,4.636c0.853,1.945,1.732,3.888,2.438,5.889
		c0.461,1.31,0.699,2.71,0.911,4.09c0.187,1.211,0.172,2.452,0.294,3.675c0.082,0.818-0.395,1.286-0.973,1.656
		c-1.512,0.97-3.036,1.919-4.585,2.824C93.826,119.677,92.968,120.026,91.994,120.496z"/>
	<path fill-rule="evenodd" clip-rule="evenodd" fill="#f4751a" class="fill" d="M110.62,136.786c0.354-1.839,0.681-3.535,1.03-5.354
		c0.602,0.274,1.111,0.562,1.656,0.746c1.576,0.531,3.145,1.103,4.756,1.5c1.373,0.339,2.8,0.45,4.199,0.68
		c0.955,0.158,1.9,0.423,2.86,0.506c3.169,0.273,6.34,0.521,9.513,0.706c1.292,0.075,2.596-0.042,3.893-0.059
		c0.883-0.011,1.766-0.002,2.709-0.002c-0.338,1.513-0.68,3.043-1.063,4.764c-0.664,0.165-1.508,0.421-2.369,0.582
		c-3.326,0.621-6.69,0.91-10.063,0.74c-2.531-0.127-5.048-0.538-7.572-0.807c-1.996-0.212-3.889-0.799-5.662-1.696
		C113.174,138.419,111.932,137.572,110.62,136.786z"/>
	<path fill-rule="evenodd" clip-rule="evenodd" fill="#f4751a" class="fill" d="M130.377,102.55c2.062-1.867,3.959-3.585,5.941-5.38
		c3.269,1.91,6.699,3.357,10.244,4.481c3.547,1.125,7.16,2.046,10.823,3.08c-1.27,1.949-2.608,3.998-3.965,6.076
		C145.361,109.053,137.822,106.201,130.377,102.55z"/>
	<path fill-rule="evenodd" clip-rule="evenodd" fill="#f4751a" class="fill" d="M96.093,83.157c0.581-1.512,1.167-3.035,1.782-4.629
		c0.381,0.136,0.738,0.229,1.062,0.386c2.074,1.004,4.018,2.228,5.788,3.691c1.648,1.361,3.278,2.762,4.767,4.291
		c1.116,1.147,2.002,2.519,2.977,3.801c1.123,1.476,1.528,3.3,2.452,4.878c-1.294,2.735-2.554,5.398-3.877,8.197
		C104.502,90.619,104.86,91.55,96.093,83.157z"/>
	<path fill-rule="evenodd" clip-rule="evenodd" fill="#f4751a" class="fill" d="M117.939,84.403c-5.007-6.064-10.416-11.345-18.062-13.77
		c0.558-1.621,0.246-3.384,1.205-4.883c1.172-0.374,2.351-0.18,3.508,0.159c2.537,0.744,5.036,1.595,7.262,3.073
		c1.066,0.708,2.094,1.476,3.142,2.213c0.705,0.497,1.493,0.909,2.104,1.504c0.804,0.785,1.474,1.708,2.188,2.582
		c0.142,0.173,0.224,0.394,0.36,0.641C119.09,78.687,118.525,81.494,117.939,84.403z"/>
	<path fill-rule="evenodd" clip-rule="evenodd" fill="#f4751a" class="fill" d="M169.296,69.773c0.436,2.933,0.494,5.759,0.106,8.709
		c-6.751,1.736-13.539,1.82-20.547,1.089c0.332-1.643,0.663-3.277,0.998-4.928C156.533,73.875,162.891,71.942,169.296,69.773z"/>
	<path fill-rule="evenodd" clip-rule="evenodd" fill="#f4751a" class="fill" d="M105.781,56.759c1.867-2.685,4.009-4.947,6.523-6.847
		c4.309,1.647,11.314,7.441,12.83,11.33c-0.994,1.749-1.961,3.452-2.926,5.15c-0.663-0.59-1.312-1.182-1.979-1.755
		c-0.42-0.36-0.848-0.717-1.302-1.029c-1.822-1.245-3.644-2.488-5.484-3.702c-2.104-1.388-4.495-2.107-6.869-2.859
		C106.326,56.968,106.084,56.869,105.781,56.759z"/>
	<path fill-rule="evenodd" clip-rule="evenodd" fill="#f4751a" class="fill" d="M145.64,86.943c6.854,2.186,13.858,2.246,20.91,2.084
		c-0.331,0.781-0.614,1.646-1.048,2.424c-0.823,1.475-1.743,2.896-2.602,4.352c-0.293,0.498-0.667,0.674-1.237,0.573
		c-2.29-0.408-4.584-0.801-6.879-1.182c-0.792-0.131-1.605-0.16-2.391-0.324c-0.883-0.184-1.747-0.463-2.616-0.71
		c-1.879-0.533-3.764-1.049-5.632-1.619c-0.731-0.225-1.425-0.577-2.103-0.855C143.271,90.066,144.477,88.479,145.64,86.943z"/>
	<path fill-rule="evenodd" clip-rule="evenodd" fill="#f4751a" class="fill" d="M149.341,67.187c-0.536-1.598-1.001-2.981-1.485-4.423
		c0.89-0.72,1.807-1.444,2.704-2.194c1.122-0.937,2.286-1.832,3.32-2.857c1.226-1.216,2.413-2.488,3.462-3.855
		c0.68-0.889,1.07-1.998,1.616-2.994c0.291-0.529,0.639-1.026,1.031-1.654c2.572,2.493,4.498,5.338,6.13,8.487
		C161.127,62.04,155.39,64.839,149.341,67.187z"/>
	<path fill-rule="evenodd" clip-rule="evenodd" fill="#f4751a" class="fill" d="M132.064,41.866c1.924,4.536,2.008,9.342,2.234,14.09
		c-1.427,0.512-2.774,0.997-4.114,1.479c-2.36-4.643-4.694-9.264-8.496-12.922C123.155,43.505,130.304,41.691,132.064,41.866z"/>
	<path fill-rule="evenodd" clip-rule="evenodd" fill="#f4751a" class="fill" d="M143.313,42.105c2.259,0.56,4.365,1.081,6.461,1.6
		c0.225,1.236-0.196,2.317-0.512,3.395c-0.913,3.129-2.141,6.135-3.74,8.979c-0.36,0.641-0.841,1.215-1.204,1.73
		c-1.104-0.533-2.125-1.026-3.195-1.542C142.245,51.713,143.447,47.108,143.313,42.105z"/>
</g>
</svg>
