<svg version="1.1" id="svg" xmlns="http://www.w3.org/2000/svg" xmlns:xlink="http://www.w3.org/1999/xlink" x="0px" y="0px"
	 width="200px" height="200px" viewBox="0 0 200 200" enable-background="new 0 0 200 200" xml:space="preserve">
<path class="stroke" fill="#6a2906"  fill-rule="evenodd" clip-rule="evenodd" d="M135.459,130.156c-0.484,0.039-0.916,0.196-1.256,0.082
	c-1.275-0.435-2.523-0.953-3.777-1.453c-0.309-0.122-0.596-0.295-1.071-0.535c-0.284,1.31-0.546,2.515-0.788,3.628
	c-0.949,0.518-1.783,0.387-2.613,0.181c-1.328-0.33-2.538-0.923-3.695-1.642c-0.316-0.197-0.654-0.36-1.131-0.62
	c-0.352,1.393-0.677,2.683-1.02,4.039c-1.314,0.376-2.275-0.408-3.275-0.968c-0.981-0.55-1.918-1.179-2.878-1.775
	c-1.044,1.17-1.184,2.727-2.38,3.622c-1.911-0.385-3.288-1.646-4.627-2.817c-0.812,0.149-0.773,0.706-0.773,1.201
	c0,1.144,0.041,2.288,0.056,3.433c0.04,3.304,0.056,6.608,0.12,9.912c0.048,2.542,0.234,5.083,0.216,7.623
	c-0.021,2.748-0.205,5.494-0.325,8.24c-0.036,0.842-0.093,1.683-0.139,2.484c-0.916,0.497-1.68,0.561-4.387,0.367
	c-0.408-1.148-0.566-2.397-0.637-3.645c-0.221-3.975-0.408-7.953-0.589-11.931c-0.084-1.864-0.104-3.73-0.187-5.594
	c-0.08-1.86-0.211-3.719-0.296-5.579c-0.034-0.713-0.006-1.428-0.006-1.952c-1.114-0.81-2.087-1.515-3.055-2.217
	c-0.87,0.972-1.71,1.909-2.569,2.867c-0.521-0.03-0.977-0.056-1.586-0.091c-0.973-1.058-1.998-2.17-3.141-3.409
	c-1.073,1.362-1.744,3.191-3.786,3.878c-0.972-1.25-1.97-2.538-3.015-3.887c-1.045,0.688-1.701,1.68-2.578,2.618
	c-0.328,0.019-0.737,0.04-1.148,0.062c-0.209-0.236-0.404-0.403-0.534-0.612c-1.317-2.125-2.607-4.274-2.884-6.827
	c-0.295-2.733-0.666-5.472-0.723-8.216c-0.059-2.784,0.187-5.577,0.365-8.362c0.283-4.438,0.646-8.871,0.918-13.311
	c0.068-1.092-0.146-2.199-0.131-3.297c0.045-3.261,0.147-6.521,0.207-9.782c0.008-0.456-0.096-0.915-0.162-1.513
	c-1.963-0.107-3.68,0.599-5.4,1.105c-1.021,1.581-1.172,3.556-2.667,4.87c-0.783-0.071-1.57-0.145-2.478-0.227
	c-0.485,1.669-0.985,3.28-1.418,4.908c-0.697,2.623-1.392,5.238-2.539,7.719c-0.559,1.205-1.404,1.675-2.688,1.704
	c-1.286,0.029-2.421-0.302-3.507-1.013c-0.924-1.546-0.918-3.296-0.969-5.026c-0.086-2.966-0.139-5.931-0.212-8.896
	c-0.009-0.331-0.065-0.66-0.104-1.04c-2.379,0.149-4.471,1.707-7.102,1.222c0.095-0.722,0.073-1.322,0.263-1.846
	c0.507-1.391,1.057-2.771,1.68-4.115c0.82-1.764,1.688-3.507,2.604-5.224c0.957-1.792,1.994-3.541,2.993-5.311
	c0.167-0.295,0.335-0.59,0.48-0.896c1.534-3.205,4.148-4.967,7.591-5.482c3.181-0.475,6.36-0.875,9.473-1.762
	c1.559-0.444,3.252-0.396,4.879-0.622c1.081-0.15,2.15-0.392,3.226-0.595c0.703-0.133,1.405-0.271,2.107-0.404
	c0.315-0.059,0.634-0.107,1.099-0.186c-1.103-1.816-2.708-3.107-3.396-5.012c-0.656-1.823-1.35-3.633-2.109-5.674
	c-0.199-0.066-0.65-0.172-1.065-0.36c-1.037-0.472-2.06-0.975-3.083-1.474c-1.213-0.591-2.424-1.185-3.63-1.788
	c-2.43-1.215-4.086-3.057-4.793-5.736c-0.291-1.105-0.758-2.154-0.507-3.34c0.473-2.233,1.94-3.388,4.053-3.556
	c2-0.16,3.977,0.142,5.928,0.563c1.779,0.385,3.539,0.848,5.316,1.244c0.434,0.097,0.892,0.069,1.338,0.099
	c0.338-1.61,0.643-3.095,0.959-4.578c0.881-4.141,1.762-8.28,2.654-12.419c0.106-0.495,0.268-0.981,0.424-1.466
	c0.764-2.365,0.892-2.512,3.338-3.052c2.233-0.493,4.473-0.974,6.727-1.361c2.292-0.396,4.595-0.762,6.908-0.975
	c2.443-0.226,3.18,0.552,3.837,2.307c0.178,0.474,0.331,0.967,0.421,1.464c0.552,3.032,1.701,5.823,3.077,8.575
	c1.421,2.844,2.321,5.909,2.95,9.037c0.092,0.454,0.171,0.911,0.286,1.526c0.954,0.019,1.917,0.01,2.876,0.061
	c2.196,0.116,4.416,0.115,6.58,0.449c1.346,0.209,2.65,0.862,3.896,1.474c0.88,0.432,1.238,1.408,1.443,2.313
	c0.416,1.844,0.201,4.104-2.101,5.149c-2.772,1.257-5.439,2.749-8.254,4.192c-0.973,3.537-1.97,7.154-4.349,10.424
	c2.129-0.135,3.938-0.297,5.748-0.354c3.77-0.118,7.541-0.194,11.312-0.261c2.712-0.049,5.426-0.068,8.138-0.073
	c2.635-0.004,5.253,0.349,7.806,0.89c1.618,0.344,3.164,1.193,4.64,2.004c1.177,0.648,2.257,1.514,3.268,2.408
	c0.748,0.662,1.506,1.438,1.93,2.321c1.631,3.401,3.135,6.868,3.888,10.595c0.319,1.578,0.597,3.164,0.832,4.757
	c0.067,0.46-0.08,0.954-0.146,1.6c-1.779-0.686-2.979-1.777-4.095-3.148c-0.507,0.896-0.052,1.737-0.188,2.529
	c-0.135,0.781-0.229,1.569-0.334,2.292c-1.131,0.408-1.774-0.257-2.439-0.729c-1.27-0.903-2.492-1.871-3.764-2.833
	c-0.338,0.409-0.652,0.793-0.988,1.2c-1.451,0.099-2.35-0.849-3.4-1.662c-0.316,0.209-0.662,0.435-1.021,0.671
	c-1.263,0.176-2.196-0.327-2.882-1.402c-0.269-0.421-0.625-0.788-0.95-1.192c-3.969,0.623-7.965,0.597-11.856,1.628
	c-0.039,2.882,0.191,5.699,0.705,8.483c0.663,3.581,1.447,7.14,2.13,10.718c0.365,1.914,0.604,3.852,0.942,5.771
	c0.658,3.75,1.428,7.482,1.994,11.246c0.483,3.225,0.754,6.482,1.093,9.729C135.623,128.973,135.515,129.442,135.459,130.156z"/>
<path fill-rule="evenodd" clip-rule="evenodd" fill="#ffe861" class="fill" d="M100.936,93.07c0.348-0.167,0.596-0.286,0.877-0.421
	c-0.109-1.862-0.21-3.678-0.32-5.491c-0.135-2.232-0.264-4.466-0.416-6.696c-0.171-2.537-0.398-5.07-0.532-7.61
	c-0.077-1.469-0.015-2.944-0.015-4.55c4.24-0.153,7.539-2.279,10.757-4.584c1.939-0.145,3.868-0.289,5.799-0.421
	c0.042-0.004,0.093,0.128,0.234,0.335c-1.203,0.8-2.894,0.603-3.955,1.835c0.181,0.229,0.347,0.439,0.468,0.592
	c1.315-0.34,2.532-0.657,3.881-1.006c0.201,0.515,0.359,0.926,0.521,1.346c-0.977,0.929-2.488,0.806-3.311,1.955
	c0.36,0.329,0.665,0.606,0.979,0.891c1.017-0.333,2.012-0.659,3.058-1.002c0.394,0.789,0.747,1.498,1.111,2.228
	c0.787,0,1.536,0,2.409,0c0.402,1.085,0.811,2.185,1.271,3.429c0.473-0.152,0.914-0.295,1.384-0.446
	c-0.21-1.156-0.394-2.177-0.599-3.298c0.512-0.07,0.869-0.119,1.299-0.177c0.479,0.993,0.93,1.929,1.443,2.997
	c0.401-0.22,0.699-0.383,1.027-0.563c-0.271-0.961-0.51-1.8-0.772-2.724c0.974-0.244,1.813-0.453,2.72-0.679
	c-0.051-0.703-0.092-1.282-0.146-2.022c0.688-0.115,1.368-0.229,2.05-0.345c-0.207-0.705-0.207-0.705-2.205-0.936
	c-0.082-0.265-0.176-0.568-0.328-1.056c1.073,0,2.018,0,2.938,0c0.146-0.754-0.218-0.913-0.693-0.937
	c-0.593-0.027-1.186-0.019-1.777-0.04c-0.322-0.013-0.713,0.058-0.755-0.602c0.28-0.055,0.577-0.153,0.875-0.164
	c2.668-0.104,5.338-0.279,8.006-0.271c4.061,0.015,7.963,0.708,11.706,2.482c2.741,1.299,4.263,3.548,5.61,6.001
	c0.854,1.551,1.497,3.222,2.141,4.877c0.69,1.769,1.044,3.63,1.385,5.67c-1.182-0.363-1.532-1.394-2.312-1.9
	c-0.808-0.523-1.605-1.062-2.381-1.577c-0.716,0.566-0.67,1.184-0.513,1.819c0.213,0.863,0.467,1.718,0.643,2.588
	c0.114,0.564,0.12,1.149,0.197,1.973c-0.502-0.271-0.824-0.372-1.047-0.578c-0.837-0.776-1.618-1.615-2.469-2.375
	c-0.562-0.502-1.205-0.911-1.808-1.357c-1.007,0.533-0.697,1.673-1.348,2.44c-0.962-0.828-1.873-1.613-2.835-2.44
	c-0.432,0.392-0.797,0.724-1.184,1.074c-1.503-0.169-1.854-1.429-2.402-2.616c-0.588,0.056-1.168,0.107-1.746,0.168
	c-1.303,0.136-2.607,0.272-3.909,0.416c-1.766,0.195-3.529,0.399-5.294,0.593c-0.504,0.056-1.011,0.101-1.517,0.133
	c-1.028,0.067-1.964,0.334-2.882,0.863c-1.385,0.801-2.852,1.462-4.307,2.139c-1.33,0.621-2.688,1.183-4.189,1.838
	c0.723,1.221,1.967,1.72,3.055,2.312c1.082,0.592,2.311,0.919,3.547,1.39c-1.297,1.824-3.562,1.474-5.124,2.626
	c1.149,2.103,3.521,2.33,5.196,3.613c-0.346,1.729-2.083,2.224-2.878,3.488c0.839,1.318,2.389,1.612,3.466,2.547
	c-0.311,2.505-2.827,2.846-4.136,4.205c-0.015,0.83,0.481,1.21,0.947,1.548c0.616,0.445,1.29,0.813,1.95,1.191
	c0.914,0.525,1.841,1.03,2.723,1.522c0.357,1.896-0.605,3.26-1.531,4.544c0.186,1.155,1.248,1.425,1.822,2.107
	c-0.998,0.924-2.553,0.793-3.398,1.979c1.164,1.468,2.901,1.938,4.641,2.695c-0.912,0.671-2.04,0.108-2.605,1.045
	c0.713,1.371,1.432,2.751,2.086,4.007c-0.072,0.916-0.111,1.677-0.197,2.433c-0.079,0.708-0.207,1.412-0.315,2.126
	c-0.704,0.278-1.31,0.199-1.882-0.138c-1.13-0.667-2.251-1.351-3.376-2.024c-0.536-0.321-1.075-0.637-1.803-1.066
	c-0.438,1.599-0.832,3.028-1.272,4.631c-2.026-1.071-3.877-2.048-5.72-3.022c-1.214,1.104-0.974,2.749-1.94,3.883
	c-0.857-0.082-1.384-0.676-1.916-1.275c-1.18-1.327-1.391-1.454-2.592-1.658c-0.858,0.184-1.327,0.846-1.777,1.518
	c-0.473,0.704-0.863,1.469-1.389,2.13c-1.022,1.286-1.787,1.409-3.168,0.518c-0.626-0.405-1.206-0.903-1.734-1.433
	c-0.914-0.916-2.472-0.817-3.192,0.273c-0.21,0.316-0.331,0.692-0.548,1.003c-0.328,0.47-0.704,0.906-1.115,1.428
	c-1.547-1.859-2.982-3.587-4.434-5.331c1.849-0.481,3.881-0.114,6.04-0.844c-0.39-0.343-0.582-0.65-0.827-0.701
	c-2.238-0.462-4.15-1.662-6.164-2.639c-0.795-0.386-1.613-0.708-2.119-1.626c1.254-0.464,2.513-0.34,3.752-0.42
	c1.688-0.108,3.377-0.257,5.055-0.47c0.596-0.077,1.161-0.397,1.766-0.614c-0.184-0.738-0.623-0.924-1.114-1.106
	c-2.3-0.854-4.595-1.724-6.885-2.607c-0.378-0.146-0.72-0.381-1.286-0.688c1.182-0.49,2.178-0.42,3.16-0.437
	c2.158-0.034,4.324,0.04,6.469-0.148c1.188-0.104,2.338-0.648,3.519-0.999c-0.126-0.729-0.492-0.895-0.991-1.009
	c-3.173-0.736-6.344-1.482-9.504-2.273c-0.634-0.158-1.219-0.52-1.827-0.787c0.011-0.09,0.022-0.181,0.033-0.27
	c2.499-0.421,5.045-0.658,7.481-1.312c2.432-0.655,4.912-1.301,7.182-2.584c-0.174-0.637-0.632-0.74-1.09-0.745
	c-3.098-0.029-6.008-0.946-8.93-1.824c-0.932-0.278-1.903-0.419-2.847-0.665c-0.576-0.15-1.133-0.38-1.687-0.743
	c3.221-0.405,6.4-0.741,9.469-2.519c-0.516-0.328-0.852-0.629-1.244-0.772c-0.794-0.291-1.631-0.463-2.429-0.743
	c-2.075-0.729-4.142-1.479-6.203-2.245c-0.375-0.14-0.707-0.393-1.041-0.731c2.188-0.628,4.582-0.048,6.669-1.324
	c-0.322-0.867-1.077-1.146-1.779-1.255c-2.551-0.396-4.609-1.869-6.838-2.975c-0.088-0.044-0.114-0.211-0.219-0.415
	c0.299-0.097,0.556-0.214,0.826-0.261c2.043-0.357,4.092-0.685,6.133-1.059c0.711-0.13,1.354-0.445,1.85-1.155
	c-2.094-1.54-4.696-1.279-7.07-2.104c0.386-0.563,0.701-1.024,1.018-1.487c-0.474-0.738-1.16-0.581-1.764-0.628
	c-0.928-0.071-1.867-0.048-2.784-0.183c-0.823-0.122-1.638-0.287-2.241-1.035c-0.508-0.627-1.311-0.75-2.103-0.656
	c-2.14,0.253-4.29,0.456-6.415,0.805c-2.832,0.466-2.814,0.521-4.006,3.176c-0.256,0.569-0.596,1.1-0.977,1.793
	c-0.921-0.268-1.753-0.511-2.673-0.778c-0.147,0.253-0.37,0.515-0.466,0.817c-0.545,1.735-1.025,3.491-1.594,5.22
	c-0.794,2.41-1.613,4.814-2.496,7.193c-0.229,0.618-0.398,1.413-1.287,1.604c-0.664-0.871-0.786-1.899-0.854-2.896
	c-0.214-3.208-0.348-6.424-0.523-9.636c-0.094-1.691-0.19-3.384-0.333-5.07c-0.053-0.635-0.288-1.219-0.799-1.68
	c-0.29-0.263-0.481-0.634-0.716-0.956c0.047-0.093,0.094-0.185,0.142-0.276c1.563,0.146,3.129,0.293,4.675,0.437
	c0.318-0.583,0.039-0.822-0.309-1.134c-0.721-0.646-1.393-1.348-2.053-2.058c-0.428-0.46-0.604-1.007-0.277-1.701
	c2.143,0.287,4.299,0.597,6.646,0.199c-0.858-1.632-2.312-2.392-3.737-3.585c1.929,0.303,3.564,0.629,5.363,0.446
	c-0.488-1.801-2.512-2.139-3.078-3.743c0.119-0.103,0.223-0.261,0.361-0.302c1.212-0.357,2.441-0.661,3.646-1.047
	c2.227-0.709,4.453-0.291,6.681-0.068c0.423,0.043,0.845,0.131,1.267,0.126c2.149-0.021,4.299-0.12,6.447-0.088
	c1.773,0.025,3.549,0.161,5.316,0.311c1.728,0.146,3.456,0.311,5.166,0.587c0.985,0.159,1.933,0.556,2.864,0.836
	c0.608,1.978,0.734,3.88,0.958,5.763c0.159,1.344,0.202,2.702,0.393,4.04c0.236,1.669,1.101,3.092,1.903,4.54
	c0.384,0.692,0.783,1.469,0.837,2.231C98.796,89.743,99.853,91.306,100.936,93.07z M117.76,121.641
	c0.695-0.45,1.465,0.515,2.07-0.258c-0.283-0.983-1.385-0.518-1.952-1.198c0.1-0.273,0.222-0.605,0.318-0.87
	c0.783-0.188,1.507,0.492,2.159-0.176c-0.329-0.983-1.449-0.386-1.982-1.122c0.146-0.723,0.314-1.531,0.514-2.509
	c-0.896-0.17-1.687-0.318-2.461-0.464c0.063-0.843,0.118-1.586,0.176-2.368c-0.365,0-0.598,0-0.885,0
	c-0.168,0.777-0.323,1.505-0.494,2.303c-0.396-0.064-0.705-0.115-1.061-0.172c0.117-0.747,0.219-1.402,0.332-2.134
	c-0.323-0.067-0.58-0.121-0.926-0.193c-0.219,0.758-0.414,1.43-0.635,2.189c-0.469-0.042-0.879-0.093-1.293-0.11
	c-0.406-0.02-0.812-0.005-1.266-0.005c-0.296,0.911-0.566,1.746-0.801,2.464c-0.755,0.56-1.827-0.195-2.416,0.975
	c0.765,0.143,1.43,0.266,2.169,0.404c-0.085,0.394-0.144,0.661-0.182,0.838c-0.625,0.503-1.587-0.128-2.019,0.956
	c0.654,0.156,1.236,0.296,1.887,0.452c0,0.588,0,1.16,0,1.8c1.027,0.187,1.99,0.361,2.927,0.531
	c-0.07,0.871-0.124,1.555-0.186,2.335c0.424-0.073,0.653-0.112,0.849-0.146c0.183-0.647,0.34-1.207,0.51-1.801
	c1.366,0,2.652,0,4.01,0C117.352,122.745,117.553,122.203,117.76,121.641z"/>
<path fill-rule="evenodd" clip-rule="evenodd" fill="#ffe861" class="fill" d="M79.523,45.589c3.461,0.265,6.724,0.514,10.144,0.775
	c-0.723,1.342-0.73,2.465,0.237,3.436c0.691,0.693,1.596,0.905,2.469,0.555c1.37-0.553,1.7-1.768,1.562-3.297
	c2.931,0.091,5.638,0.927,8.437,1.369c0.29,1.632,1.306,2.49,2.819,2.744c1.292,0.217,2.199-0.396,2.758-1.642
	c2.352,0.674,4.65,1.334,7.031,2.018c-0.148,0.676-0.217,1.264-0.409,1.81c-1.146,3.254-2.681,6.312-4.837,9.018
	c-1.058,1.326-2.572,2.063-4.112,2.672c-1.855,0.733-3.767,1.251-5.805,1.207c-1.981-0.042-3.987,0.2-5.944-0.014
	c-3.347-0.366-6.401-1.607-8.849-4.005c-1.519-1.489-2.649-3.214-3.376-5.291c-1.029-2.94-1.695-5.938-2.111-9.003
	C79.443,47.247,79.523,46.531,79.523,45.589z M102.588,61.638c-1.102,0.582-2.361,0.196-3.326,1.253
	c1.486,0.953,2.604-0.021,3.967-0.211C102.984,62.283,102.828,62.029,102.588,61.638z M88.27,58.195
	c-0.113,0.057-0.227,0.112-0.339,0.169c0,0.394,0,0.787,0,1.156c1.794,1.68,1.794,1.68,2.722,1.223
	C90.043,59.68,89.029,59.06,88.27,58.195z M96.945,62.729c-0.393-0.359-0.589-0.693-0.798-0.702
	c-0.899-0.039-1.808-0.42-2.791-0.019c0.085,0.311,0.159,0.575,0.245,0.883C94.655,62.839,95.676,63.415,96.945,62.729z
	 M106.877,58.282c-0.583,0.887-1.48,1.397-1.875,2.47c0.397,0.11,0.691,0.191,1.023,0.284c0.58-0.671,1.12-1.294,1.724-1.99
	C107.438,58.773,107.208,58.572,106.877,58.282z M109,56.748c1.045-2.16,1.048-2.238,0.082-2.688
	c-0.389,0.844-1.078,1.59-0.792,2.688C108.553,56.748,108.754,56.748,109,56.748z M87.083,55.145
	c-0.411-1.066-0.388-2.129-1.504-2.812c-0.421,1.151,0.286,1.896,0.43,2.812C86.331,55.145,86.599,55.145,87.083,55.145z"/>
<path fill-rule="evenodd" clip-rule="evenodd" fill="#ffe861" class="fill" d="M109.595,31.984c-1.606,0.085-3.034,0.157-4.461,0.236
	c-3.762,0.211-7.524,0.412-11.284,0.645c-1.23,0.075-2.277-0.473-3.404-0.894c2.074-0.533,4.296-0.429,6.225-1.467
	c-0.201-0.712-0.683-0.529-1.081-0.572c-1.05-0.113-2.099-0.229-3.142-0.38c-0.275-0.041-0.529-0.223-1.082-0.468
	c2.571-0.401,4.844-0.756,7.12-1.111c-0.032-0.674-0.46-0.638-0.824-0.688c-2.062-0.292-4.095-0.698-6.025-1.509
	c-0.259-0.109-0.502-0.261-1.048-0.548c2.991-0.474,5.82-0.272,8.324-1.521c0-0.113,0.002-0.229,0.004-0.344
	c-2.111-0.46-4.223-0.92-6.334-1.38c1.66-0.906,3.527-0.983,5.134-2.022c-0.554-0.828-1.277-0.306-1.878-0.392
	c-0.653-0.095-1.301-0.226-2.02-0.353c0.52-0.479,0.916-0.843,1.312-1.207c-0.046-0.089-0.092-0.176-0.139-0.264
	c2.946-0.18,5.747-1.394,8.646-1.171c1.099,0.873,1.233,2.091,1.535,3.154c1.078,3.795,2.4,7.49,4.06,11.068
	C109.372,31.099,109.431,31.437,109.595,31.984z"/>
<path fill-rule="evenodd" clip-rule="evenodd" fill="#ffe861" class="fill" d="M124.879,41.558c-0.996-0.076-1.991-0.151-2.985-0.229
	c-0.884-0.068-1.772-0.244-2.649-0.193c-6.057,0.358-12.097-0.059-18.145-0.251c-3.975-0.126-7.963,0.196-11.946,0.274
	c-2.243,0.044-4.486-0.02-6.729,0.001c-1.775,0.017-3.549,0.114-5.323,0.127c-2.663,0.021-5.169-0.808-7.696-1.511
	c-0.52-0.146-1.021-0.358-1.561-0.551c-0.01-0.766,0.333-1.144,1.008-1.282c1.195-0.246,2.359-0.062,3.518,0.224
	c1.52,0.375,3.038,0.745,4.55,1.147c3.856,1.025,7.767,1.165,11.719,0.783c0.796-0.077,1.611,0.045,2.41-0.007
	c3.336-0.221,6.667-0.478,10.001-0.709c1.014-0.07,2.029-0.126,3.043-0.145c2.758-0.048,5.519-0.187,8.27-0.08
	c3.631,0.142,7.29-0.183,10.886,0.575c0.484,0.103,0.993,0.281,1.386,0.569c0.268,0.197,0.354,0.645,0.521,0.98
	C125.062,41.374,124.97,41.466,124.879,41.558z"/>
</svg>
