<svg version="1.1" id="svg" xmlns="http://www.w3.org/2000/svg" xmlns:xlink="http://www.w3.org/1999/xlink" x="0px" y="0px"
	 width="200px" height="200px" viewBox="0 0 200 200" enable-background="new 0 0 200 200" xml:space="preserve">
<path fill-rule="evenodd" clip-rule="evenodd" fill="#8dece4" class="fill" d="M4.472,79.86c0,0,9.805,0.226,19.763,0.45
	c9.957,0.225,55.434-1.376,66.768-1.164c11.336,0.212,106.459,1.267,106.459,1.267s-1.986,18.856-1.738,30.493
	c0.248,11.638,2.218,27.551-6.818,27.779c-9.033,0.228-34.275,3.805-48.533,2.238c-14.258-1.567-34.944-2.775-58.676-1.66
	c-23.729,1.115-45.957-1.153-61.269-0.72c-15.314,0.432-18.538-0.46-18.164-11.031c0.372-10.571,2.804-22.921,2.213-33.676
	C3.886,83.082,4.472,79.86,4.472,79.86z"/>
<path class="stroke" fill="#064146"  fill-rule="evenodd" clip-rule="evenodd" d="M196.586,78.396c1.505,0.471,2.125,1.522,2.205,3.048
	c-0.364,0.127-0.645,0.307-0.928,0.313c-5.083,0.126-10.167,0.643-15.238-0.389c-1.691-0.344-3.477-0.234-5.289,0.016
	c0.174,0.064,0.344,0.175,0.521,0.189c4.193,0.349,8.39,0.686,12.583,1.03c0.875,0.071,0.875,0.079,1.526,1.292
	c-0.517,0.086-0.966,0.211-1.419,0.228c-3.162,0.123-6.262-0.468-9.387-0.806c-4.18-0.452-8.378-0.698-12.58,0.09
	c-2.346,0.44-4.742,0.602-7.121,0.87c-0.369,0.042-0.756,0.013-1.127-0.035c-3.74-0.472-7.49-0.892-11.217-1.454
	c-3.01-0.453-5.877,0.377-8.805,0.705c-1.927,0.216-3.883,0.244-5.823,0.225c-0.61-0.006-1.218-0.438-1.741-1.026
	c3.569-0.375,7.137-0.75,10.703-1.125c0.006-0.141,0.013-0.282,0.017-0.424c-0.37-0.064-0.749-0.208-1.116-0.183
	c-3.453,0.235-6.9,0.584-10.357,0.728c-2.887,0.121-5.783-0.004-8.676,0.011c-1.824,0.01-3.65,0.136-5.471,0.106
	c-2.893-0.048-5.783-0.162-8.674-0.286c-3.582-0.155-7.162-0.398-10.744-0.514c-6.035-0.194-12.07-0.365-18.107-0.453
	c-3.145-0.046-6.29,0.127-9.434,0.164c-4.722,0.054-9.442,0.136-14.161,0.092c-4.856-0.046-9.67,0.28-14.488,0.913
	c-2.536,0.333-5.148,0.126-7.726,0.103c-3.461-0.031-6.921-0.186-10.382-0.169c-5.227,0.027-10.451,0.206-15.678,0.212
	c-1.67,0.003-3.341-0.335-5.056-0.522c-0.006-0.825-0.012-1.373-0.016-1.922c0.901-0.839,1.977-0.836,3.045-0.796
	c5.156,0.193,10.313,0.406,15.467,0.602c7.049,0.269,14.092,0.256,21.144-0.097c5.657-0.282,11.329-0.258,16.995-0.415
	c7.676-0.212,15.349-0.539,23.027-0.682c5.537-0.104,11.076,0.022,16.615,0.027c6.107,0.004,12.218-0.167,18.32,0.016
	c7.371,0.222,14.709-0.434,22.066-0.457c3.395-0.01,6.792,0.227,10.188,0.363c7.051,0.281,14.08,0.182,21.119-0.52
	c3.229-0.322,6.529-0.016,9.793,0.143c4.083,0.198,8.158,0.552,12.24,0.803C194.459,78.476,195.523,78.405,196.586,78.396z
	 M146.247,80.634c0.021,0.135,0.042,0.27,0.063,0.405c0.928,0.123,1.855,0.266,2.785,0.366c3.311,0.356,6.624,0.686,9.934,1.049
	c3.23,0.354,6.38-0.264,9.539-0.766c0.097-0.015,0.176-0.152,0.438-0.396c-1.076,0.01-1.986-0.012-2.892,0.03
	c-2.13,0.099-4.261,0.362-6.386,0.309c-2.443-0.061-4.881-0.405-7.324-0.595C150.354,80.878,148.299,80.767,146.247,80.634z"/>
<path class="stroke" fill="#064146"  fill-rule="evenodd" clip-rule="evenodd" d="M80.72,68.275c0.19,0.417,0.388,0.842,0.597,1.295
	c-0.262,0.089-0.482,0.247-0.601,0.192c-2.886-1.363-6.048-0.763-9.062-1.231c-2.074-0.323-4.264-0.171-6.373,0.038
	c-2.264,0.222-4.229-0.242-6.127-1.707c0.186-0.878,0.377-1.778,0.615-2.91c1.331-0.508,2.72-1.037,4.22-1.61
	c-0.149-0.995-0.294-1.952-0.448-2.971c-2.732,0.12-5.423,0.208-8.111,0.37c-1.378,0.084-2.513-0.152-3.105-1.725
	c0.148-0.497,0.324-1.089,0.466-1.562c1.798-1.774,3.797-2.38,6.149-1.884c1.289,0.272,2.612,0.397,3.895,0.696
	c0.708,0.165,1.365,0.554,1.9,0.78c0.637,1.792,0.637,1.792-0.082,3.188c0.166,0.786,0.335,1.578,0.502,2.371
	c2.818-0.413,5.582-0.818,8.453-1.239c-0.551-1.209-1.108-2.388-1.629-3.583c-1.395-3.204-0.93-5.997,1.402-8.728
	c2.072-2.428,4.227-4.651,7.093-6.099c0.78-0.394,1.581-0.827,2.423-1.009c3.9-0.844,7.82-1.072,11.807-0.512
	c3.22,0.452,6.012,1.804,8.628,3.591c2.808,1.919,4.192,5.845,3.359,9.196c-0.226,0.907-0.47,1.809-0.718,2.763
	c1.219,0.706,2.431,1.346,3.574,2.091c0.728,0.475,1.305,1.188,2.043,1.642c0.781,0.48,1.647,1.006,2.525,1.113
	c2.332,0.284,3.848,1.409,4.361,3.593c4.245,2.123,4.377,2.242,4.607,4.126c-1.223,1.66-2.938,2.431-4.986,2.566
	c-2.323,0.152-4.648,0.302-7.059,0.458c-1.38,1.515-3.093,2.641-5.314,3.555c0.223-2.002,2.297-1.746,2.762-3.148
	c-1.01,0.008-1.99,0.017-2.934,0.024c-2.418,1.432-4.506,3.445-7.656,3.734c0.621-2.078,3.13-1.382,3.959-3.13
	c-3.193-0.216-5.809,2.19-8.955,1.464c1.002-1.291,2.934-0.579,4.088-2.027c-4.276-0.45-8.417-0.822-12.65-0.769
	c-0.334-0.702-0.626-1.316-0.934-1.962c0.287-0.538,0.546-1.026,0.807-1.514C83.946,66.905,82.848,67.042,80.72,68.275z
	 M84.344,66.19c0.814-0.006,1.541,0.157,2.144-0.046c3.03-1.018,5.813-2.39,7.411-5.425c0.905-1.726,2.499-2.576,4.354-3.019
	c0.724-0.173,1.433-0.442,2.122-0.724c1.315-0.537,2.61-1.116,4.262-1.827c0.211-0.684,0.693-1.741,0.84-2.843
	c0.364-2.733-0.412-5.168-2.627-6.89c-1.227-0.955-2.657-1.693-4.08-2.344c-4.09-1.869-8.428-1.914-12.774-1.379
	c-1.602,0.197-3.278,0.544-4.703,1.257c-3.198,1.6-5.792,3.994-7.744,7.021c-0.735,1.139-1.122,2.391-0.914,3.772
	c0.653,4.362,3.835,8.399,8.08,9.558C82.385,63.755,83.566,64.486,84.344,66.19z M116.066,65.453
	c-0.438-1.365-1.419-1.775-2.36-2.044c-2.661-0.759-4.913-2.188-7.058-3.88c-1.535-1.21-3.238-1.165-4.971-0.302
	c-0.832,0.414-1.704,0.839-2.604,0.999c-0.969,0.171-1.519,0.616-2.051,1.42c-0.825,1.246-1.85,2.358-2.793,3.524
	c-0.254,0.313-0.518,0.616-0.932,1.106c1.074-0.009,1.873-0.016,2.646-0.022c0.379-0.497,0.734-0.959,1.104-1.444
	c0.578,0.593,1.033,1.06,1.605,1.646c0.426-0.79,0.695-1.291,1.053-1.957c0.457,0.597,0.779,1.018,1.11,1.453
	c0.553-0.004,1.048-0.009,1.435-0.012c0.286-0.432,0.517-0.778,0.817-1.229c0.616,0.772,0.953,1.194,1.159,1.449
	c2.324,0.707,3.523-1.032,5.164-1.963C111.312,66.039,113.578,65.874,116.066,65.453z M66.008,64.258
	c0.422,0.32,0.795,0.603,1.204,0.913c0.874-0.27,1.701-0.525,2.556-0.79c2.703,0.833,7.151,0.639,8.771-0.397
	c-4.463-2.875-12.254-2.542-15.896,0.826c0.783,0.148,1.436,0.27,2.062,0.389C65.17,64.864,65.561,64.58,66.008,64.258z
	 M62.731,56.738c-1.829-0.892-5.348-1.387-6.687-0.928c-0.385,0.131-0.689,0.489-1.031,0.742c0.058,0.143,0.115,0.284,0.17,0.427
	c1.424-0.012,2.85-0.002,4.273-0.042C60.497,56.907,61.537,56.813,62.731,56.738z"/>
<path class="stroke" fill="#064146"  fill-rule="evenodd" clip-rule="evenodd" d="M165.016,69.195c-3.018,0.025-6.039-0.04-9.051,0.096
	c-4.142,0.189-8.275,0.623-12.418,0.783c-4.021,0.154-8.055,0.049-12.006-0.786c-1.057-0.224-2.066-0.873-2.975-1.503
	c-0.377-0.264-0.436-0.989-0.767-1.83c1.5-0.246,2.646-0.539,3.802-0.604c3.387-0.191,6.777-0.24,10.16-0.47
	c0.738-0.05,1.535-0.503,2.141-0.979c2.097-1.648,4.325-2.806,7.095-2.489c0.188,0.022,0.38,0.012,0.563,0.048
	c2.456,0.48,4.91,0.965,7.173,1.411c1.976-0.562,3.274-1.613,4.438-3.04c1.951-2.397,4.523-3.595,7.682-2.927
	c3.723,0.787,7.4,1.176,11.209,0.325c2.674-0.598,5.387-0.157,7.917,1.034c0.683,0.32,1.353,0.682,2.06,0.937
	c1.632,0.587,2.609,1.722,2.911,3.407c0.225,1.258,0.796,2.232,2.132,2.811c0.008,0.917,0.016,1.827,0.021,2.737
	c-1.854,1.204-3.867,0.628-5.762,0.844c-3.912,3.1-8.385,4.071-13.268,3.485c-3.246-0.388-6.51-0.66-9.721-1.229
	c-1.156-0.205-2.182-1.129-3.266-1.725C165.062,69.417,165.039,69.307,165.016,69.195z M193.599,63.747
	c0.111-1.572-0.519-2.413-1.664-2.926c-0.862-0.384-1.734-0.75-2.595-1.139c-2.917-1.323-5.896-1.531-9.031-0.805
	c-1.438,0.333-3,0.334-4.487,0.223c-1.81-0.135-3.614-0.484-5.396-0.854c-3.606-0.75-6.754,1.488-7.934,5.872
	c0.793-0.078,1.518-0.15,2.086-0.206c0.645-0.532,0.136-1.655,1.282-1.634c0.483,0.395-0.034,1.682,1.193,1.502
	c0.32-0.48,0.642-0.962,1.101-1.651c0.41,0.734,0.67,1.2,0.958,1.71c0.432,0.039,0.856,0.076,1.367,0.121
	c0.2-0.383,0.401-0.765,0.663-1.265c0.642,0.73,0.994,1.13,1.352,1.54c0.492-0.067,0.914-0.124,1.218-0.165
	c0.53-0.543,0.071-1.635,1.191-1.567c0.241,0.505,0.476,1.001,0.739,1.561c0.457-0.027,0.864-0.052,1.154-0.069
	c0.51-0.585-0.1-1.667,1.106-1.664c0.3,0.495,0.61,1.005,0.918,1.514c0.337-0.04,0.58-0.068,0.749-0.088
	c0.615-0.516,0.111-1.648,1.266-1.817c0.223,0.549,0.445,1.093,0.701,1.722c0.613-0.106,1.148-0.2,1.544-0.268
	c0.302-0.561,0.524-0.975,0.979-1.824c0.389,0.755,0.645,1.252,0.896,1.741c0.99-0.369,1.679-0.625,2.161-0.806
	C189.328,62.928,191.378,63.321,193.599,63.747z M188.914,67.328c-0.586-1.095-1.558-1.024-2.483-0.998
	c-4.515,0.123-9.031,0.227-13.544,0.418c-1.662,0.071-3.317,0.363-4.975,0.555c-0.025,0.21-0.054,0.419-0.081,0.629
	c1.079,1.569,2.9,0.632,4.279,0.956c0.464-0.442,0.839-0.8,1.249-1.19c0.396,0.571,0.695,0.999,1.018,1.464
	c0.489-0.388,0.863-0.684,1.303-1.033c0.33,0.47,0.599,0.856,0.982,1.403c0.693-0.33,1.325-0.63,2.059-0.978
	c0.995,1.347,1.904,0.255,2.768-0.258c1.37,0.996,1.7,1.171,3.58-0.282C186.438,68.619,187.756,68.538,188.914,67.328z
	 M156.695,64.061c-2.038-0.424-3.854-0.901-5.701-1.148c-1.025-0.136-2.185-0.11-3.135,0.244c-1.197,0.444-2.359,1.165-3.324,2.011
	c-1.1,0.967-2.238,1.183-3.627,1.115c-1.521-0.074-3.056,0.085-4.585,0.143c0.014,0.132,0.025,0.263,0.037,0.395
	c3.761,0.359,7.521,0.741,11.037-1.667c0.385,0.051,0.915,0.123,1.391,0.186c0.246-0.512,0.438-0.908,0.688-1.421
	c0.522,0.426,0.89,0.726,1.29,1.051c1.827-0.116,3.635-0.225,5.441-0.364C156.334,64.595,156.441,64.352,156.695,64.061z"/>
<path class="stroke" fill="#064146"  fill-rule="evenodd" clip-rule="evenodd" d="M2.771,68.918c0.381-2.011,1.859-2.953,3.431-3.567
	c1.376-0.538,2.907-0.82,4.389-0.909c1.618-0.097,3.266,0.101,4.889,0.273c1.603,0.17,3.129,0.046,4.621-0.596
	c1.579-0.678,3.218-1.071,4.961-0.941c1.343,0.1,2.415-0.426,3.342-1.412c2.047-2.181,3.315-2.557,6.03-1.216
	c2.169,1.073,4.016,0.709,5.858-0.483c1.886-1.223,3.911-1.883,6.153-2.14c1.918-0.219,3.459,0.344,4.887,1.493
	c0.439,0.352,0.836,0.774,1.316,1.056c3.247,1.899,3.984,5.78,1.902,8.914c-1.765,2.657-4.209,3.393-7.154,3.226
	c-0.688-0.039-1.379-0.113-2.068-0.12c-2.895-0.023-5.75-0.221-8.639-0.627c-4.48-0.629-9.03-0.72-13.567-0.177
	c-3.124,0.374-6.258,0.722-9.397,0.861c-1.604,0.071-3.238-0.289-4.84-0.561c-0.986-0.167-1.924-0.608-2.909-0.793
	C4.58,70.935,3.541,70.245,2.771,68.918z M53.275,65.898c-0.501-1.81-1.195-3.476-2.371-4.916c-0.874-1.067-1.951-1.751-3.372-1.833
	c-2.076-0.118-3.953,0.451-5.761,1.456c-1.524,0.846-3.134,1.538-4.652,2.271c-1.387-0.487-2.585-0.858-3.74-1.33
	c-1.373-0.56-2.62-0.516-3.589,0.683c-1.044,1.29-2.419,1.946-4.057,2.394c-1.706-0.432-3.42-0.005-5.052,0.681
	c-1.86,0.78-3.722,0.899-5.717,0.699c-2.111-0.212-4.268-0.251-6.381-0.074c-1.386,0.116-2.764,0.69-3.717,2.208
	c0.771,0.34,1.42,0.626,1.994,0.879c0.433-0.528,0.722-0.882,1.135-1.387c0.497,0.684,0.602,1.731,1.67,1.308
	c0.265-0.417,0.54-0.854,0.927-1.467c0.379,0.644,0.643,1.095,0.933,1.588c0.613-0.084,1.165-0.161,1.604-0.221
	c0.602-0.483,0.171-1.582,1.293-1.567c0.247,0.445,0.509,0.914,0.773,1.39c0.591-0.056,1.088-0.102,1.527-0.144
	c0.399-0.456,0.747-0.854,1.177-1.345c0.408,0.44,0.729,0.785,1.048,1.127c0.632-0.056,1.187-0.105,1.617-0.143
	c0.395-0.575,0.713-1.041,1.143-1.664c0.348,0.771,0.565,1.251,0.804,1.776c0.765-0.059,1.439-0.111,1.926-0.149
	c0.417-0.754,0.726-1.311,1.235-2.234c0.234,1.128,0.366,1.771,0.529,2.549c1.084-0.077,2.057-0.146,2.988-0.212
	C29.5,66.12,29.5,66.12,30.83,65.899c0.006,0.761,0.013,1.522,0.021,2.393c0.803-0.116,1.415-0.204,1.957-0.283
	c0.33-0.654,0.608-1.205,0.983-1.951c0.407,0.743,0.639,1.17,0.835,1.529c1.41,0.134,2.713,0.257,3.994,0.379
	c0.582-0.575,0.009-1.941,1.486-1.935c0.057,0.865,0.11,1.713,0.175,2.702c0.691,0.131,1.322,0.25,1.937,0.367
	c0.254-0.983,0.453-1.759,0.654-2.535c0.141,0.002,0.282,0.004,0.423,0.007c0.276,0.785,0.553,1.571,0.867,2.462
	c0.708-0.048,1.346-0.092,2.004-0.137c0.042-0.975-0.802-1.999,0.774-2.423c0.251,0.875,0.486,1.693,0.753,2.628
	c0.486,0.062,1.021,0.13,1.599,0.203c0.097-0.709,0.175-1.292,0.25-1.833c1.29-0.545,0.909,1.081,1.757,1.088
	C52.629,68.317,52.774,67.089,53.275,65.898z"/>
<path class="stroke" fill="#064146"  fill-rule="evenodd" clip-rule="evenodd" d="M153.096,132.186c2.967,1.41,6.008,2.282,9.421,2.105
	c-0.334,1.436-1.389,1.749-2.296,1.819c-1.737,0.132-3.498,0.001-5.246-0.033c-0.248-0.005-0.494-0.083-0.862-0.15
	c-0.37,0.332-0.772,0.718-1.202,1.072c-5.976,4.939-9.574,4.691-15.609,1.829c-1.529-0.725-3.004-1.604-4.398-2.565
	c-1.387-0.958-2.641-2.108-4.072-3.271c-1.762,0.659-3.587,1.521-5.511,2.02c-2.542,0.659-5.14,1.175-7.746,1.493
	c-2.952,0.36-5.511-0.941-7.937-2.47c-0.08-0.051-0.086-0.223-0.211-0.579c0.467-0.101,0.928-0.337,1.333-0.266
	c5.195,0.913,10.108-0.637,15.088-1.649c1.597-0.325,3.212-0.565,4.827-0.771c1.24-0.158,2.356,0.263,3.367,0.981
	c0.974,0.693,1.938,1.406,2.941,2.055c5.503,3.558,11.069,3.848,16.424-0.361C151.947,133.022,152.506,132.625,153.096,132.186z"/>
<path class="stroke" fill="#064146"  fill-rule="evenodd" clip-rule="evenodd" d="M143.414,102.545c-0.213-0.086-0.771-0.311-1.31-0.528
	c0.079-1.256,0.974-1.198,1.669-1.223c2.197-0.08,4.414-0.265,6.594-0.066c5.887,0.536,11.762,1.203,17.633,1.909
	c3.135,0.376,6.217,0.438,9.371-0.002c2.512-0.35,4.899-1.112,7.355-1.557c3.943-0.713,7.908-0.668,11.521,1.472
	c1.035,0.614,2.469,0.751,2.956,2.287c-0.245,0.208-0.483,0.583-0.779,0.635c-2.97,0.521-5.935,1.158-8.931,1.412
	c-1.926,0.162-3.965,0.421-5.992-0.409c0.585-1.776,2.007-2.258,3.459-2.605c1.453-0.347,2.94-0.556,4.406-0.995
	c-1.547-0.409-3.095-0.369-4.646-0.046c-3.631,0.755-7.26,1.522-10.887,2.286c-5.049,1.062-10.027,0.681-14.917-0.85
	c-4.55-1.424-9.208-1.981-13.948-1.994C145.908,102.265,144.848,102.428,143.414,102.545z"/>
<path class="stroke" fill="#064146"  fill-rule="evenodd" clip-rule="evenodd" d="M122.507,110.56c0.151-1.021,0.651-1.13,1.28-1.128
	c2.818,0.008,5.64,0.009,8.461-0.017c3.024-0.026,5.984,0.399,8.94,1.026c1.71,0.362,3.483,0.521,5.231,0.591
	c1.947,0.077,3.904,0.02,5.848-0.111c1.178-0.08,2.367-0.308,3.496-0.651c2.102-0.641,4.201-1.323,6.232-2.155
	c2.42-0.993,4.746-0.909,7.154,0c1.936,0.732,3.926,1.333,5.902,1.952c2.307,0.72,4.678,0.923,7.09,0.784
	c1.586-0.091,2.045,0.143,3.258,1.508c-0.221,0.128-0.416,0.319-0.633,0.35c-1.666,0.237-3.357,0.346-5.004,0.675
	c-3.996,0.802-7.758,0.506-11.156-1.981c-0.352-0.258-0.812-0.373-1.148-0.645c-2.74-2.218-5.326-1.194-8.022,0.193
	c-2.165,1.114-4.429,2.095-6.741,2.853c-1.263,0.414-2.766,0.511-4.076,0.276c-2.962-0.528-5.896-1.268-8.797-2.077
	c-3.351-0.934-6.645-1.705-10.192-1.022c-1.759,0.337-3.638,0.091-5.462,0.036C123.638,111,123.111,110.734,122.507,110.56z"/>
<path class="stroke" fill="#064146"  fill-rule="evenodd" clip-rule="evenodd" d="M55.439,123.68c3.936,0.688,7.387,1.363,10.866,1.858
	c1.188,0.169,2.128,0.599,3.099,1.386c-0.906,0.71-1.82,0.792-2.85,0.629c-2.543-0.404-5.089-0.826-7.65-1.06
	c-0.942-0.086-2,0.176-2.887,0.555c-2.193,0.935-4.33,2.008-6.471,3.065c-6.665,3.295-13.31,2.374-19.92-0.134
	c-1.877-0.711-3.668-1.64-5.562-2.498c-1.755,0.477-3.568,0.969-5.442,1.478c-0.438-0.351-0.859-0.688-1.303-1.045
	c0.144-0.238,0.211-0.501,0.332-0.527c3.316-0.732,6.504-2.167,10.081-0.712c2.474,1.005,5.166,1.63,7.818,2.008
	c4.257,0.607,8.376-0.224,12.315-1.963c2.184-0.964,4.404-1.846,6.615-2.749C54.887,123.806,55.323,123.715,55.439,123.68z"/>
<path class="stroke" fill="#064146"  fill-rule="evenodd" clip-rule="evenodd" d="M158.758,114.88c3.35,0.672,6.42,1.312,9.5,1.901
	c3.512,0.672,7.023,1.361,10.554,1.93c3.142,0.507,6.259,0.018,9.342-0.598c0.97-0.194,1.899-0.406,3.324-0.136
	c-0.695,0.514-1.022,0.91-1.433,1.032c-2.223,0.663-4.437,1.423-6.713,1.825c-1.769,0.313-3.622,0.201-5.438,0.19
	c-2.576-0.017-5.157-0.017-7.725-0.203c-2.558-0.185-5.104-0.565-7.647-0.911c-1.811-0.245-3.363-1.019-4.559-2.714
	c-1.281,0.61-2.52,1.177-3.74,1.783c-2.566,1.276-5.248,2.203-8.139,2.068c-1.812-0.085-3.637-0.356-5.4-0.779
	c-1.74-0.418-3.409-1.13-5.159-1.731c0.155-1.001,0.83-1.104,1.532-0.972c0.984,0.185,1.988,0.381,2.914,0.75
	c3.461,1.375,6.949,1.065,10.365,0.061c2.15-0.632,4.17-1.703,6.248-2.579C157.387,115.46,158.193,115.118,158.758,114.88z"/>
<path class="stroke" fill="#064146"  fill-rule="evenodd" clip-rule="evenodd" d="M150.864,107.834c-0.743,0.229-1.47,0.538-2.228,0.672
	c-4.795,0.85-9.54,0.328-14.223-0.772c-4.615-1.085-9.219-2.008-13.996-1.205c-0.988,0.166-2.012,0.106-3.012,0.212
	c-0.549,0.058-1.139,0.14-1.616,0.389c-2.681,1.394-5.472,1.511-8.241,0.525c-2.916-1.039-5.77-2.201-8.854-1.518
	c-0.443-0.845-0.091-1.097,0.444-1.317c1.832-0.751,3.749-0.727,5.575-0.261c5.061,1.291,10.071,0.926,15.141,0.067
	c4.659-0.791,9.368-1.161,14.072-0.323c2.039,0.362,4.069,0.816,6.063,1.37c2.98,0.827,5.936,1.616,9.086,1.156
	c0.561-0.083,1.193,0.322,1.792,0.502C150.867,107.5,150.864,107.667,150.864,107.834z"/>
<path class="stroke" fill="#064146"  fill-rule="evenodd" clip-rule="evenodd" d="M70.314,106.897c-1.064,1.92-2.596,1.973-3.988,1.96
	c-1.494-0.013-2.994-0.314-4.471-0.596c-1.665-0.317-3.304-0.754-4.842-1.112c-1.977,0.748-3.803,1.625-5.73,2.132
	c-4.133,1.089-8.312,1.297-12.459-0.053c-1.518-0.494-2.991-0.587-4.604-0.21c-3.391,0.795-6.856,0.36-10.292,0.227
	c-0.815-0.031-1.581-0.359-1.921-1.384c1.07-0.744,2.268-1.095,3.486-1.227c3-0.323,6.007-0.645,9.019-0.757
	c1.341-0.051,2.794,0.174,4.04,0.668c4.633,1.837,9.231,1.555,13.86,0.115c1.32-0.41,2.636-0.84,3.93-1.325
	c1.474-0.555,2.926-0.462,4.444-0.169c2.584,0.5,5.193,0.854,7.79,1.288C69.081,106.54,69.57,106.705,70.314,106.897z"/>
<path class="stroke" fill="#064146"  fill-rule="evenodd" clip-rule="evenodd" d="M53.426,97.901c-3.09,0.928-6.181,0.621-9.299,0.056
	c-4.219-0.764-8.319-0.509-12.424,1.009c-6.949,2.57-13.99,2.827-20.986-0.003c-0.523-0.211-1.067-0.375-1.607-0.535
	c-0.463-0.136-0.936-0.235-1.393-0.348c-0.08-0.911,0.443-1.129,1.031-1.098c1.688,0.088,3.417,0.049,5.049,0.419
	c3.679,0.834,7.389,0.655,11.084,0.511c1.595-0.061,3.268-0.517,4.728-1.18c5.271-2.393,10.676-2.542,16.226-1.403
	c1.842,0.378,3.714,0.612,5.544,1.043c0.788,0.186,1.501,0.704,2.247,1.07C53.561,97.596,53.494,97.749,53.426,97.901z"/>
<path class="stroke" fill="#064146"  fill-rule="evenodd" clip-rule="evenodd" d="M144.906,123.605c-0.908,1.007-1.723,0.955-2.539,0.907
	c-1.63-0.094-3.259-0.156-4.885-0.268c-3.639-0.25-7.13,0.496-10.599,1.482c-2.173,0.619-4.366,1.175-6.562,1.701
	c-3.438,0.822-6.787,0.122-10.039-0.889c-2.271-0.705-4.431-1.778-6.627-2.721c-0.494-0.212-0.926-0.568-1.497-0.926
	c0.359-0.402,0.593-0.661,0.853-0.949c3.313,1.242,6.625,2.188,10.111,2.43c3.124,0.216,6.118-0.34,9.11-1.172
	c2.112-0.587,4.272-1.084,6.442-1.362c3.303-0.422,6.635-0.61,9.952-0.083C140.724,122.09,142.773,122.613,144.906,123.605z"/>
<path class="stroke" fill="#064146"  fill-rule="evenodd" clip-rule="evenodd" d="M9.607,120.975c-2.355,1.888-4.791,1.415-7.394,0.233
	c-0.028-0.539-0.058-1.069-0.088-1.647c2.675-0.313,5.306,0.2,7.703-0.947c3.338,1.126,6.79,1.474,10.233,1.201
	c3.355-0.267,6.677-0.983,10.082-1.512c2.54,3.981,6.441,5.165,10.855,5.267c0.871,0.02,0.933,0.043,2.144,1.09
	c-0.372,0.335-0.734,0.662-1.054,0.95c-3.21,0.298-6.301,0.419-9.421-0.46c-2.351-0.662-4.344-1.607-5.634-3.849
	C21.234,123.438,15.521,122.9,9.607,120.975z"/>
<path class="stroke" fill="#064146"  fill-rule="evenodd" clip-rule="evenodd" d="M152.925,128.944c-5.98,4.176-11.106,5.211-14.903,3.102
	c0.061-1,0.807-0.856,1.484-0.933c1.43-0.161,2.873-0.299,4.273-0.618c2.645-0.603,4.878-1.966,6.705-3.984
	c0.372-0.412,0.801-0.773,1.215-1.167c0.447,0.121,0.838,0.152,1.154,0.322c3.764,2.011,7.555,3.977,11.264,6.083
	c5.464,3.103,11.145,4.098,17.229,2.189c1.186-0.372,2.401-0.642,3.712-0.989c0.245,0.926-0.294,1.283-0.892,1.653
	c-4.547,2.809-9.416,3.498-14.471,1.845c-2.431-0.794-4.699-2.088-7.021-3.197c-2.55-1.217-5.066-2.507-7.624-3.708
	C154.385,129.231,153.622,129.134,152.925,128.944z"/>
<path class="stroke" fill="#064146"  fill-rule="evenodd" clip-rule="evenodd" d="M135.539,114.609c-1.445,1.446-7.885,2.871-11.949,2.581
	c-4.127-0.294-7.996-1.563-11.582-4.075c-5.529,2.235-10.893,1.805-16.288-1.749c0.616-0.309,0.948-0.607,1.285-0.612
	c0.487-0.006,1.004,0.137,1.46,0.326c3.199,1.317,6.41,0.831,9.623,0.098c0.857-0.196,1.711-0.407,2.562-0.634
	c2.178-0.582,3.973-0.096,6.01,1.064c4.415,2.512,9.215,3.952,14.458,3.07C132.451,114.454,133.852,114.624,135.539,114.609z"/>
<path class="stroke" fill="#064146"  fill-rule="evenodd" clip-rule="evenodd" d="M66.736,114.122c2.107,0.952,3.887,1.876,5.752,2.561
	c1.519,0.558,3.134,0.868,4.721,1.218c1.209,0.266,2.396,0.527,3.441,1.437c-1.002,0.682-2.038,0.837-3.102,0.901
	c-3.191,0.19-6.266-0.438-9.238-1.499c-1.202-0.428-2.273-0.507-3.459-0.056c-1.525,0.58-3.091,1.052-4.633,1.582
	c-2.831,0.974-5.711,1.441-8.709,1.008c-2.355-0.341-4.729-0.567-7.077-0.95c-0.896-0.146-1.742-0.588-2.573-0.881
	c-0.018-0.849,0.422-1.075,0.954-1.04c1.31,0.087,2.628,0.178,3.926,0.387c3.163,0.511,6.291,0.987,9.544,0.629
	c3.287-0.361,5.937-1.883,8.479-3.771C65.505,115.097,66.225,114.518,66.736,114.122z"/>
<path class="stroke" fill="#064146"  fill-rule="evenodd" clip-rule="evenodd" d="M146.947,84.76c2.492-0.764,4.768-0.909,7.189-0.51
	c2.652,0.436,5.368,0.525,8.062,0.618c1.812,0.062,3.641-0.035,5.445-0.231c4.275-0.468,8.541-0.042,12.812-0.009
	c1.5,0.012,2.996,0.355,4.5,0.447c1.688,0.102,3.387,0.179,5.074,0.109c1.941-0.08,3.875-0.361,5.814-0.49
	c0.535-0.036,1.082,0.157,1.691,0.256c-0.158,1.14-0.926,1.285-1.655,1.359c-3.933,0.404-7.858,0.888-11.831,0.353
	c-6.135-0.828-12.289-0.8-18.447-0.272c-0.563,0.049-1.136,0.15-1.692,0.097c-3.276-0.309-6.505,0.076-9.765,0.317
	c-2.203,0.164-4.496-0.854-6.742-1.37C147.275,85.405,147.198,85.143,146.947,84.76z"/>
<path class="stroke" fill="#064146"  fill-rule="evenodd" clip-rule="evenodd" d="M29.803,112.68c0.255-1.19,1.018-1.224,1.687-1.122
	c1.482,0.227,2.983,0.456,4.413,0.891c5.188,1.58,10.283,1.271,15.338-0.545c0.652-0.234,1.346-0.376,1.953-0.687
	c3.203-1.639,6.314-1.255,9.627,0.52c0.114,0.314,0.311,0.865,0.596,1.656c-0.75,0.006-1.256,0.125-1.689-0.005
	c-2.184-0.654-4.199-0.113-6.24,0.657c-1.87,0.705-3.766,1.438-5.716,1.792c-1.696,0.308-3.496,0.242-5.23,0.099
	C39.518,115.521,34.741,113.959,29.803,112.68z"/>
<path class="stroke" fill="#064146"  fill-rule="evenodd" clip-rule="evenodd" d="M2.84,85.282c0.186-1.152,0.666-1.179,1.189-1
	c4.029,1.374,8.189,0.991,12.333,1.032c5.144,0.051,10.284,0.391,15.426,0.421c3.574,0.021,7.149-0.284,10.728-0.417
	c4.709-0.176,9.42-0.337,14.133-0.473c0.526-0.016,1.061,0.175,1.734,0.296c-0.49,1.108-1.301,1.198-2.094,1.223
	c-3.646,0.112-7.293,0.167-10.936,0.302c-1.755,0.065-3.502,0.321-5.258,0.382c-2.951,0.103-5.904,0.18-8.857,0.158
	c-3.895-0.028-7.801-0.013-11.683-0.291c-4.321-0.309-8.686,0.489-12.967-0.528C5.331,86.088,4.106,85.658,2.84,85.282z"/>
<path class="stroke" fill="#064146"  fill-rule="evenodd" clip-rule="evenodd" d="M130.997,97.247c-0.536,0.097-0.858,0.263-1.104,0.184
	c-3.029-0.98-5.948-0.316-8.892,0.464c-2.361,0.626-4.766,1.098-7.154,1.62c-2.746,0.599-5.393,0.131-7.93-0.923
	c-3.499-1.452-7.045-1.743-10.696-0.731c-0.735,0.204-1.454,0.333-2.337-0.307c0.338-0.351,0.557-0.79,0.865-0.865
	c1.704-0.417,3.416-0.924,5.152-1.052c1.539-0.114,3.205-0.06,4.65,0.42c4.553,1.517,9.015,1.177,13.533-0.046
	c3.678-0.995,7.428-1.201,11.211-0.704C129.415,95.454,130.287,95.949,130.997,97.247z"/>
<path class="stroke" fill="#064146"  fill-rule="evenodd" clip-rule="evenodd" d="M95.243,89.369c0.455-0.229,0.89-0.589,1.369-0.662
	c2.046-0.312,4.101-0.613,6.161-0.777c2.627-0.209,5.265-0.385,7.898-0.39c4.208-0.008,8.432-0.06,12.619,0.279
	c3.257,0.264,6.492,0.646,9.77,0.504c0.646-0.028,1.301,0.139,2.139,0.238c-0.521,1.028-1.256,0.824-1.882,0.926
	c-4.127,0.675-8.27,0.237-12.409,0.251c-2.571,0.008-5.156,0.119-7.711,0.391c-2.959,0.316-5.908,0.479-8.826-0.098
	c-2.518-0.498-5.004-0.248-7.506-0.083c-0.468,0.031-0.938,0.011-1.409,0.015C95.386,89.765,95.314,89.566,95.243,89.369z"/>
<path class="stroke" fill="#064146"  fill-rule="evenodd" clip-rule="evenodd" d="M68.479,101.88c-0.597,0.363-1.022,0.623-1.675,1.02
	c0.135-0.001-0.059,0.032-0.238-0.003c-1.842-0.354-3.678-0.739-5.521-1.075c-1.396-0.255-2.752-0.099-4.039,0.545
	c-4.476,2.245-9.085,2.201-13.745,0.716c-2.212-0.704-4.386-1.524-6.567-2.313c-0.216-0.079-0.379-0.303-0.573-0.466
	c0.146-1.036,0.911-0.975,1.565-0.911c1.247,0.124,2.492,0.303,3.726,0.527c1.849,0.338,3.71,0.659,5.529,1.122
	c3.052,0.777,6.026,0.519,8.842-0.749c3.288-1.479,6.394-0.601,9.53,0.367C66.244,100.948,67.139,101.359,68.479,101.88z"/>
<path class="stroke" fill="#064146"  fill-rule="evenodd" clip-rule="evenodd" d="M42.636,136.949c-2.222,0.681-8.441,0.031-12.612-1.146
	c-1.832,0.294-3.563,0.578-5.295,0.849c-2.357,0.369-4.635,0.029-6.83-0.848c-1.743-0.696-3.465-1.447-5.181-2.208
	c-0.724-0.319-1.073-0.854-0.601-1.775c0.32,0.077,0.688,0.098,0.985,0.25c1.997,1.027,4.145,1.417,6.353,1.53
	c2.826,0.144,5.646,0.223,8.323-0.963c0.987-0.438,1.88-0.237,2.862,0.259c2.688,1.359,5.477,2.448,8.515,2.843
	C40.241,135.882,41.271,136.459,42.636,136.949z"/>
<path class="stroke" fill="#064146"  fill-rule="evenodd" clip-rule="evenodd" d="M122.053,120.069c-1.473,1.359-3.418,1.719-5.2,1.915
	c-1.944,0.213-4.011-0.106-5.946-0.542c-1.869-0.422-3.638-1.287-6.287-2.267c-1.459,0.312-3.77,0.842-6.098,1.288
	c-1.413,0.271-2.848,0.441-4.275,0.597c-0.781,0.086-1.5-0.097-2.018-1.172c0.487-0.263,0.95-0.669,1.467-0.761
	c2.962-0.527,5.938-0.99,8.91-1.454c3.387-0.53,6.691-0.575,10.016,0.674C115.602,119.469,118.788,119.9,122.053,120.069z"/>
<path class="stroke" fill="#064146"  fill-rule="evenodd" clip-rule="evenodd" d="M164.221,96.729c0.602-0.403,0.948-0.782,1.363-0.89
	c5.608-1.456,11.225-1.84,16.932-0.406c3.277,0.824,6.649,1.27,9.953,2.003c0.86,0.191,1.631,0.812,2.422,1.272
	c0.105,0.061,0.085,0.333,0.175,0.736c-0.783,0.006-1.504,0.102-2.199,0.003c-5.345-0.754-10.671-1.669-16.03-2.271
	c-2.344-0.262-4.755,0.058-7.133,0.18C167.982,97.445,166.231,98.105,164.221,96.729z"/>
<path class="stroke" fill="#064146"  fill-rule="evenodd" clip-rule="evenodd" d="M156.086,123.506c0.588-1.149,1.432-0.751,2.279-0.538
	c2.188,0.555,4.363,1.362,6.587,1.534c5.728,0.445,11.444,1.436,17.228,0.786c0.985-0.111,1.969-0.243,3.31-0.409
	c-0.872,1.25-1.946,1.777-2.966,1.835c-2.051,0.116-3.926,0.808-5.869,1.301c-3.314,0.84-6.633,0.53-9.904-0.258
	C163.02,126.857,159.48,125.444,156.086,123.506z"/>
<path class="stroke" fill="#064146"  fill-rule="evenodd" clip-rule="evenodd" d="M36.04,102.25c0.281,0.566,0.547,1.099,0.956,1.925
	c-0.943,0.007-1.603,0.119-2.222,0.001c-4.446-0.846-8.834-0.848-13.259,0.313c-3.357,0.881-6.744,0.407-10.048-0.576
	c-1.538-0.458-3.067-0.946-4.615-1.426c0.135-1.204,0.745-1.393,1.492-1.284c0.87,0.126,1.73,0.319,2.591,0.504
	c1.718,0.367,3.425,0.792,5.152,1.104c0.664,0.12,1.385,0.082,2.056-0.033c1.793-0.309,3.592-0.63,5.356-1.07
	c3.246-0.81,6.464-0.797,9.698,0.023C34.044,101.945,34.918,102.048,36.04,102.25z"/>
<path class="stroke" fill="#064146"  fill-rule="evenodd" clip-rule="evenodd" d="M1.776,82.419c0.353-0.169,0.722-0.511,1.057-0.48
	c1.864,0.178,3.737,0.352,5.571,0.71c1.852,0.361,3.636,0.708,5.578,0.516c3.056-0.299,6.147-0.236,9.225-0.318
	c3.143-0.082,6.283-0.198,9.426-0.218c2.7-0.017,5.401,0.07,8.099,0.137c0.602,0.015,1.118,0.237,1.152,1.145
	c-0.343,0.108-0.721,0.318-1.108,0.335c-0.816,0.036-1.647,0.053-2.452-0.065c-3.347-0.493-6.647,0.076-9.965,0.337
	c-1.127,0.088-2.276,0.178-3.395,0.057c-4.093-0.44-8.163-0.182-12.245,0.129c-1.17,0.089-2.383-0.136-3.558-0.334
	c-2.158-0.363-4.303-0.808-6.453-1.23c-0.296-0.059-0.577-0.19-0.864-0.288C1.821,82.708,1.798,82.564,1.776,82.419z"/>
<path class="stroke" fill="#064146"  fill-rule="evenodd" clip-rule="evenodd" d="M1.788,111.196c0.673-0.136,1.106-0.315,1.529-0.293
	c1.757,0.089,3.512,0.365,5.262,0.318c1.076-0.029,2.14-0.517,3.604-0.904c5.607,1.081,6.423,1.298,13.438,0.328
	c0.217,1.049-0.569,1.449-1.239,1.776c-3.822,1.878-7.726,2.641-11.776,0.666c-0.109-0.053-0.242-0.055-0.365-0.079
	C7.446,114.414,3.494,113.868,1.788,111.196z"/>
<path class="stroke" fill="#064146"  fill-rule="evenodd" clip-rule="evenodd" d="M128.645,92.358c0.381-0.248,0.732-0.629,1.148-0.722
	c2.018-0.444,4.003-0.922,6.141-0.701c4.746,0.491,9.511,0.837,14.274,1.125c1.358,0.082,2.738-0.255,4.109-0.363
	c0.669-0.054,1.347-0.02,2.138-0.026c-0.121,1.002-0.672,1.291-1.385,1.432c-2.402,0.473-4.789,1.107-7.216,1.373
	c-1.592,0.175-3.303,0.054-4.856-0.339c-4.384-1.112-8.791-1.571-13.291-1.168c-0.284,0.025-0.582-0.092-0.872-0.144
	C128.771,92.669,128.706,92.513,128.645,92.358z"/>
<path class="stroke" fill="#064146"  fill-rule="evenodd" clip-rule="evenodd" d="M133.552,96.117c-0.048-1.006,0.772-1.042,1.403-1.002
	c2,0.125,4.02,0.211,5.981,0.576c5.847,1.085,11.71,1.276,17.614,0.653c0.434-0.045,0.871-0.069,1.434-0.113
	c0.558,0.354,1.18,0.75,2.098,1.333c-0.539,0.325-0.891,0.715-1.147,0.662c-2.729-0.561-5.368,0.062-8.021,0.514
	c-3.268,0.558-6.471,0.407-9.695-0.47C140.094,97.421,136.893,96.849,133.552,96.117z"/>
<path class="stroke" fill="#064146"  fill-rule="evenodd" clip-rule="evenodd" d="M4.382,117.5c-0.062-0.565-0.108-0.96-0.145-1.296
	c0.229-0.136,0.33-0.205,0.44-0.257c0.053-0.027,0.121-0.022,0.182-0.041c3.496-1.077,6.926-0.412,10.363,0.362
	c2.766,0.622,5.524,0.186,8.243-0.314c2.034-0.375,4.021-1.013,6.217-1.583c2.462,0.966,5.078,1.991,7.741,3.036
	c-1.038,0.883-1.957,0.933-4.003,0.209c-1.363-0.48-2.706-1.015-4.065-1.527c-3.506,1.154-7.042,2.163-10.728,2.065
	c-2.434-0.065-4.884-0.402-7.273-0.891c-1.466-0.3-2.842-0.309-4.277-0.063C6.225,117.344,5.356,117.395,4.382,117.5z"/>
<path class="stroke" fill="#064146"  fill-rule="evenodd" clip-rule="evenodd" d="M150.633,56.967c-0.281,1.923-1.322,2.629-2.711,2.894
	c-1.045,0.198-2.11,0.34-3.17,0.379c-2.125,0.079-4.255,0.085-6.383,0.093c-1.354,0.005-1.439-0.057-2.529-1.239
	c1.072-1.659,1.965-3.498,4.299-3.881c2.874-0.472,5.729-0.645,8.479,0.57C149.328,56.097,149.97,56.572,150.633,56.967z
	 M141.912,56.649c0.967-0.334,1.312,0.405,1.613,1.003c3.395,0.088,3.395,0.088,4.454-0.668c-0.935-0.266-1.761-0.632-2.608-0.708
	c-1.145-0.101-2.383-0.534-3.418,0.418c-0.778-0.39-1.478-0.303-2.373,0.45c0.812,0.208,1.37,0.351,2.018,0.517
	C141.734,57.22,141.822,56.935,141.912,56.649z"/>
<path class="stroke" fill="#064146"  fill-rule="evenodd" clip-rule="evenodd" d="M170.137,93.28c0.396-1.241,1.193-1.272,1.918-1.433
	c4.21-0.932,8.493-0.823,12.761-0.858c1.245-0.01,2.491,0.299,3.741,0.397c1.465,0.114,2.865-0.129,4.212-0.789
	c0.634-0.311,1.384-0.386,2.298-0.625c0.045,0.81,0.072,1.338,0.095,1.743c-3.739,1.877-7.507,2.669-11.491,2.215
	c-1.746-0.199-3.523-0.339-5.209-0.794c-1.282-0.346-2.469-0.261-3.71-0.068C173.278,93.297,171.807,93.442,170.137,93.28z"/>
<path class="stroke" fill="#064146"  fill-rule="evenodd" clip-rule="evenodd" d="M94.062,94.165c0.547-1.396,1.541-1.897,2.677-1.999
	c2.43-0.215,4.925-0.691,7.299-0.362c4.882,0.678,9.62,0.254,14.388-0.726c0.939-0.194,1.97,0.002,2.949,0.099
	c0.234,0.023,0.433,0.373,0.803,0.711c-0.424,0.176-0.674,0.33-0.945,0.386c-1.841,0.382-3.729,0.599-5.518,1.142
	c-4.029,1.225-8.084,0.99-12.136,0.391c-2.956-0.436-5.854-0.699-8.71,0.459C94.725,94.326,94.518,94.228,94.062,94.165z"/>
<path class="stroke" fill="#064146"  fill-rule="evenodd" clip-rule="evenodd" d="M116.965,84.886c0.791-0.114,1.213-0.26,1.61-0.217
	c4.588,0.49,9.146-0.169,13.715-0.318c1.505-0.049,3.013,0.009,4.521,0.004c1.878-0.007,3.755-0.04,5.632-0.036
	c0.555,0.002,1.143-0.011,1.65,0.169c0.301,0.106,0.473,0.575,0.957,1.219c-2.525,0.119-4.639,0.197-6.749,0.326
	c-1.625,0.098-3.308,0.031-4.859,0.436c-5.189,1.354-10.233,0.39-15.288-0.676C117.816,85.722,117.545,85.34,116.965,84.886z"/>
<path class="stroke" fill="#064146"  fill-rule="evenodd" clip-rule="evenodd" d="M82.037,81.962c-0.225,0.345-0.451,0.689-0.739,1.13
	c-3.462-0.664-6.86,0.268-10.295,0.383c-4.46,0.15-8.933-0.002-13.396,0.11c-3.327,0.083-6.647,0.39-9.974,0.575
	c-0.753,0.042-1.62,0.34-2.315-0.865c1.183-0.22,2.187-0.538,3.201-0.576c5.719-0.221,11.441-0.343,17.161-0.564
	c3.577-0.139,7.147-0.419,10.724-0.582c1.803-0.082,3.61-0.041,5.416-0.056C81.892,81.667,81.965,81.814,82.037,81.962z"/>
<path class="stroke" fill="#064146"  fill-rule="evenodd" clip-rule="evenodd" d="M4.02,95.112c0.229-0.638,0.364-1.014,0.456-1.275
	c1.52-0.195,2.88-0.397,4.248-0.539c2.909-0.302,5.765,0.123,8.604,0.712c0.49,0.102,0.982,0.262,1.475,0.262
	c3.139-0.001,6.276-0.039,9.66-0.067c0.304,0.236,0.782,0.606,1.351,1.047c-0.922,1.083-2.146,1.224-3.263,1.428
	c-2.494,0.458-5.005,0.439-7.468-0.281c-4.076-1.192-8.204-1.858-12.467-1.321C5.832,95.176,5.027,95.103,4.02,95.112z"/>
<path class="stroke" fill="#064146"  fill-rule="evenodd" clip-rule="evenodd" d="M40.276,91.885c-0.784,0.894-1.55,0.942-2.256,0.99
	c-1.191,0.083-2.392,0.095-3.586,0.068c-4.341-0.099-8.682-0.186-13.02-0.359c-1.815-0.072-3.617-0.419-5.434-0.512
	C13.983,91.97,11.977,92.007,9.973,92c-1.372-0.005-2.745,0.019-4.146,0.03c-0.216-0.911,0.34-1.275,0.869-1.253
	c3.075,0.125,6.118-0.817,9.201-0.256c0.864,0.157,1.734,0.358,2.607,0.393c3.328,0.129,6.66,0.19,9.988,0.293
	c3.271,0.101,6.54,0.211,9.81,0.345C38.881,91.577,39.45,91.742,40.276,91.885z"/>
<path class="stroke" fill="#064146"  fill-rule="evenodd" clip-rule="evenodd" d="M167.211,89.3c-1.56,0.792-3.295,0.447-4.939,0.587
	c-1.557,0.133-3.145-0.12-4.714-0.071c-1.872,0.058-3.739,0.294-5.612,0.378c-0.992,0.044-2.037,0.101-2.984-0.143
	c-3.014-0.779-6.076-0.946-9.165-0.973c-0.569-0.005-1.139-0.191-1.706-0.293c-0.003-0.129-0.005-0.258-0.008-0.387
	c0.313-0.134,0.615-0.35,0.938-0.393c3.014-0.406,6.058-0.439,9.006,0.246c2.984,0.693,5.871,0.182,8.805-0.094
	c1.804-0.169,3.621-0.279,5.432-0.277c1.188,0.002,2.379,0.214,3.557,0.408c0.517,0.084,1.001,0.356,1.502,0.543
	C167.283,88.987,167.249,89.144,167.211,89.3z"/>
<path class="stroke" fill="#064146"  fill-rule="evenodd" clip-rule="evenodd" d="M95.521,83.294c1.335-1.024,2.83-1.137,4.329-1.111
	c6.399,0.108,12.799,0.265,19.199,0.375c1.687,0.028,3.376-0.063,5.064-0.058c0.81,0.003,1.627,0.054,2.429,0.175
	c0.55,0.083,1.08,0.322,1.107,1.288c-2.396,0.021-4.752,0.066-7.107,0.053c-4.707-0.026-9.414-0.079-14.121-0.135
	c-1.129-0.013-2.269,0.003-3.383-0.142c-1.953-0.253-3.883-0.244-5.807,0.174C96.618,84.048,95.988,84.288,95.521,83.294z"/>
<path class="stroke" fill="#064146"  fill-rule="evenodd" clip-rule="evenodd" d="M102.361,128.479c0.06-0.351,0.107-0.641,0.154-0.917
	c0.264-0.08,0.449-0.197,0.615-0.174c0.496,0.07,0.995,0.159,1.473,0.305c8.006,2.448,15.904,1.82,23.734-0.799
	c0.668-0.223,1.319-0.565,1.84,0.323c-0.081,0.94-0.92,1.126-1.59,1.309c-2.482,0.674-4.96,1.441-7.49,1.838
	c-6.123,0.96-12.164,0.417-18.072-1.478C102.852,128.831,102.705,128.694,102.361,128.479z"/>
<path class="stroke" fill="#064146"  fill-rule="evenodd" clip-rule="evenodd" d="M56.101,129.16c0.659,0.216,1.247,0.381,1.815,0.6
	c3.753,1.45,7.609,1.499,11.481,0.728c1.607-0.321,3.165-0.671,4.79-0.182c-1.982,3.119-6.121,4.235-11.706,2.974
	c-1.626-0.367-3.187-1.103-4.7-1.831c-0.739-0.355-1.3-1.079-1.926-1.652C55.822,129.767,55.936,129.58,56.101,129.16z"/>
<path class="stroke" fill="#064146"  fill-rule="evenodd" clip-rule="evenodd" d="M116.648,101.691c-1.916,0.729-3.562,1.463-5.277,1.962
	c-0.797,0.232-1.736,0.094-2.591-0.026c-2.241-0.315-4.468-0.722-6.705-1.074c-2.013-0.316-3.997-0.224-5.942,0.448
	c-0.156,0.055-0.359-0.026-0.592-0.05c-0.298-0.674,0.025-1.044,0.578-1.334c3.799-1.997,7.607-2.345,11.562-0.348
	c0.887,0.447,2.051,0.475,3.084,0.46c0.857-0.011,1.705-0.414,2.57-0.559C114.348,101.001,115.404,100.681,116.648,101.691z"/>
<path class="stroke" fill="#064146"  fill-rule="evenodd" clip-rule="evenodd" d="M76.423,92.985c-0.599,0.081-1.06,0.163-1.528,0.203
	c-2.686,0.235-5.371,0.521-8.064,0.676c-3.637,0.208-7.277,0.353-10.922,0.432c-0.708,0.016-1.461-0.314-2.129-0.625
	c-0.563-0.263-0.793-0.784-0.278-1.523c2.31-0.019,4.714-0.294,7.042,0.005c3.035,0.389,5.971,0.396,8.973-0.222
	c1.701-0.35,3.494-0.274,5.25-0.343C75.495,91.561,76.129,91.808,76.423,92.985z"/>
<path class="stroke" fill="#064146"  fill-rule="evenodd" clip-rule="evenodd" d="M57.626,88.848c-0.223,0.284-0.28,0.41-0.378,0.47
	c-0.316,0.198-0.65,0.374-1.239,0.704c-2.692-0.09-5.629-0.202-8.564-0.286c-3.01-0.086-6.02-0.182-9.031-0.206
	c-2.927-0.024-5.855,0.038-8.784,0.062c-0.053-0.144-0.105-0.288-0.157-0.432c0.277-0.218,0.526-0.559,0.837-0.63
	c0.729-0.166,1.484-0.257,2.234-0.281c2.244-0.072,4.491-0.103,6.737-0.138c3.247-0.049,6.493-0.145,9.739-0.114
	c2.568,0.025,5.138,0.2,7.704,0.345C56.988,88.357,57.24,88.624,57.626,88.848z"/>
<path class="stroke" fill="#064146"  fill-rule="evenodd" clip-rule="evenodd" d="M197.133,133.772c-1.044,0.941-2.008,0.706-2.916,0.223
	c-2.584-1.375-5.393-2.036-8.229-2.521c-1.516-0.26-3.1-0.134-4.651-0.163c-0.792-0.016-1.583,0.009-2.501,0.016
	c0.049-0.542,0.086-0.945,0.123-1.36C185.879,127.061,191.58,129.53,197.133,133.772z"/>
<path class="stroke" fill="#064146"  fill-rule="evenodd" clip-rule="evenodd" d="M79.588,89.534c-1.543,0.013-3.127,0.25-4.624-0.013
	c-2.438-0.429-4.754,0.017-7.099,0.451c-1.356,0.252-2.705,0.566-4.064,0.809c-1.361,0.244-2.731,0.434-4.289,0.677
	c-0.334-0.191-0.811-0.465-1.293-0.742c0.061-0.269,0.049-0.558,0.148-0.603c1.012-0.469,2.004-1.113,3.072-1.297
	c3.152-0.543,6.325-1.109,9.51-1.265c2.486-0.122,5.008,0.32,7.504,0.602c0.465,0.053,0.881,0.537,1.319,0.822
	C79.711,89.161,79.65,89.348,79.588,89.534z"/>
<path class="stroke" fill="#064146"  fill-rule="evenodd" clip-rule="evenodd" d="M13.467,124.715c0.231,0.545,0.44,1.04,0.683,1.612
	c-3.62,2.36-7.351,3.501-11.488,2.2c-0.771-1.968-0.037-3.182,1.704-2.894c2.865,0.475,5.625,0.362,8.285-0.903
	C12.803,124.659,13.016,124.719,13.467,124.715z"/>
<path class="stroke" fill="#064146"  fill-rule="evenodd" clip-rule="evenodd" d="M19.098,108.072c-1.198,0.927-2.599,0.612-3.94,0.275
	c-1.334-0.334-2.63-0.826-3.964-1.256c-2.595,1.247-5.194,1.812-7.879,0.36c0.055-1.022,0.625-1.222,1.363-1.381
	c1.654-0.355,3.285-0.805,5.271-1.302c2.812,0.87,5.95,1.841,9.093,2.813C19.061,107.745,19.079,107.908,19.098,108.072z"/>
<path class="stroke" fill="#064146"  fill-rule="evenodd" clip-rule="evenodd" d="M191.28,89.171c-0.437,0.989-1.329,1.121-2.209,1.057
	c-1.503-0.108-2.993-0.372-4.493-0.509c-1.678-0.152-3.361-0.319-5.043-0.329c-3.141-0.02-6.28,0.075-9.422,0.107
	c-0.281,0.002-0.565-0.097-0.963-0.17C171.492,87.425,187.539,87.396,191.28,89.171z"/>
<path class="stroke" fill="#064146"  fill-rule="evenodd" clip-rule="evenodd" d="M3.021,89.889c0.09-0.964,0.657-1.098,1.303-1.224
	c4.778-0.939,9.576-1.113,14.415-0.522c1.991,0.243,4.003,0.307,6.005,0.466c0.28,0.023,0.553,0.125,1.174,0.27
	c-0.553,0.376-0.794,0.646-1.086,0.724c-2.314,0.617-4.618,0.016-6.926-0.126c-3.813-0.235-7.624-0.698-11.415,0.323
	C5.39,90.097,4.199,90.318,3.021,89.889z"/>
<path class="stroke" fill="#064146"  fill-rule="evenodd" clip-rule="evenodd" d="M122.758,100.229c0.194-0.904,0.777-0.815,1.349-0.764
	c1.308,0.117,2.616,0.344,3.92,0.316c1.935-0.04,3.866-0.251,5.796-0.412c1.354-0.113,1.353-0.13,2.695,0.912
	c-1.236,0.62-2.368,1.241-3.542,1.761c-1.284,0.57-2.625,0.809-4.025,0.389c-1.794-0.538-3.6-1.04-5.388-1.602
	C123.248,100.73,123,100.417,122.758,100.229z"/>
<path class="stroke" fill="#064146"  fill-rule="evenodd" clip-rule="evenodd" d="M133.6,126.979c0.878-0.007,1.488-0.026,2.1-0.015
	c1.068,0.02,2.139,0.029,3.205,0.09c3.02,0.175,5.701-0.697,8.104-2.518c0.837-0.634,1.74-1.172,2.708-1.365
	c0.624,0.665,0.355,1.064-0.083,1.404c-3.016,2.345-6.109,4.483-10.227,4.107c-1.377-0.125-2.766-0.111-4.139-0.256
	C134.388,128.333,134.395,128.254,133.6,126.979z"/>
<path class="stroke" fill="#064146"  fill-rule="evenodd" clip-rule="evenodd" d="M181.118,116.174c-0.313,0.068-0.599,0.177-0.888,0.187
	c-3.639,0.124-7.262,0.153-10.804-0.931c-1.675-0.513-3.401-0.856-5.097-1.303c-0.871-0.23-1.613-0.63-1.742-1.642
	c0.176-0.107,0.296-0.241,0.377-0.22c2.533,0.671,5.047,1.424,7.598,2.013c1.393,0.322,2.842,0.429,4.273,0.529
	c1.623,0.114,3.255,0.104,4.882,0.162C180.582,114.999,180.582,115.013,181.118,116.174z"/>
<path class="stroke" fill="#064146"  fill-rule="evenodd" clip-rule="evenodd" d="M61.736,85.177c0.357-0.164,0.714-0.468,1.071-0.471
	c5.702-0.052,11.403-0.066,17.104-0.081c0.244,0,0.49,0.087,0.771,0.141c0.118,0.347,0.234,0.692,0.335,0.987
	c-0.156,0.169-0.238,0.332-0.317,0.331c-6.276-0.025-12.575,0.665-18.821-0.383C61.83,85.527,61.784,85.352,61.736,85.177z"/>
<path class="stroke" fill="#064146"  fill-rule="evenodd" clip-rule="evenodd" d="M164.253,99.754c0.165-0.397,0.278-0.667,0.435-1.042
	c1.701,0.116,3.379,0.289,5.061,0.331c2.311,0.057,4.629,0.095,6.938-0.019c1.436-0.07,2.736,0.113,4.177,0.992
	c-0.432,0.265-0.745,0.617-1.071,0.635c-4.764,0.257-9.534,0.626-14.252-0.468C165.133,100.091,164.749,99.922,164.253,99.754z"/>
<path class="stroke" fill="#064146"  fill-rule="evenodd" clip-rule="evenodd" d="M69.737,96.272c-2.505,2.89-9.71,2.952-11.511,0.255
	C59.521,95.601,63.578,95.501,69.737,96.272z"/>
<path class="stroke" fill="#064146"  fill-rule="evenodd" clip-rule="evenodd" d="M98.172,85.498c2.881-0.531,5.469-0.714,8.082-0.573
	c2,0.108,4.001,0.242,6.002,0.306c0.838,0.027,1.604,0.112,2.189,0.783c-0.334,0.917-1.085,0.818-1.75,0.782
	c-2.064-0.113-4.125-0.328-6.191-0.395c-1.75-0.057-3.508,0.042-5.261,0.063C100.258,86.477,99.232,86.624,98.172,85.498z"/>
<path class="stroke" fill="#064146"  fill-rule="evenodd" clip-rule="evenodd" d="M75.602,104.568c-0.371,0.279-0.705,0.716-1.118,0.812
	c-3.55,0.814-7.108,0.771-10.655-0.054c-0.108-0.026-0.194-0.151-0.417-0.334c0.024-0.299,0.058-0.688,0.085-1.009
	c0.248-0.113,0.365-0.218,0.471-0.207c3.438,0.367,6.873,0.699,10.316,0.002c0.363-0.074,0.795,0.194,1.195,0.304
	C75.519,104.245,75.561,104.406,75.602,104.568z"/>
<path class="stroke" fill="#064146"  fill-rule="evenodd" clip-rule="evenodd" d="M65.828,120.426c4.23,0.877,8.401,1.744,12.965,2.69
	c-0.59,0.404-0.833,0.64-1.123,0.748c-0.283,0.105-0.617,0.126-0.926,0.106c-3.383-0.215-6.711-0.728-9.932-1.821
	C66.05,121.89,65.468,121.504,65.828,120.426z"/>
<path class="stroke" fill="#064146"  fill-rule="evenodd" clip-rule="evenodd" d="M66.684,111.343c0.223-0.385,0.4-0.692,0.612-1.059
	c0.477,0.075,0.909,0.1,1.315,0.215c2.199,0.625,4.434,0.829,6.711,0.691c0.924-0.056,1.863-0.11,2.551,0.71
	C75.768,113.636,69.59,113.4,66.684,111.343z"/>
<path class="stroke" fill="#064146"  fill-rule="evenodd" clip-rule="evenodd" d="M176.768,131.151c-2.479,1.766-11.566,0.311-13.55-1.906
	c0.95-0.455,1.866-0.275,2.71-0.01c2.954,0.932,5.937,1.611,9.062,1.542C175.579,130.765,176.176,131.02,176.768,131.151z"/>
<path class="stroke" fill="#064146"  fill-rule="evenodd" clip-rule="evenodd" d="M178.463,139.542c-1.012,1.065-2.031,1.272-2.967,1.152
	c-2.913-0.374-5.81-0.883-8.701-1.393c-0.4-0.07-0.748-0.441-1.117-0.673c0.041-0.155,0.082-0.311,0.123-0.466
	c0.639-0.005,1.283-0.086,1.907-0.001c1.736,0.236,3.459,0.582,5.194,0.81C174.62,139.194,176.35,139.328,178.463,139.542z"/>
<path class="stroke" fill="#064146"  fill-rule="evenodd" clip-rule="evenodd" d="M186.628,109.944c0.265-1.148,1.007-1.164,1.79-1.114
	c1.801,0.113,3.602,0.222,5.496,0.339c0.037,1.256-0.75,1.891-1.818,2.161C190.074,111.841,188.121,111.881,186.628,109.944z"/>
<path class="stroke" fill="#064146"  fill-rule="evenodd" clip-rule="evenodd" d="M196.025,113.22c-1.684,1.689-9.051,3.554-11.406,3.048
	c0.391-0.433,0.618-0.904,0.971-1.034c0.756-0.277,1.574-0.379,2.367-0.545c2.207-0.462,4.41-0.931,6.621-1.369
	C195.049,113.226,195.543,113.25,196.025,113.22z"/>
<path class="stroke" fill="#064146"  fill-rule="evenodd" clip-rule="evenodd" d="M38.265,121.764c-0.003-0.372-0.005-0.653-0.009-1.115
	c3.586,0.494,7.079,0.975,10.721,1.477c-0.529,1.125-1.448,1.09-2.173,1.015c-2.36-0.244-4.71-0.618-7.061-0.964
	C39.316,122.113,38.904,121.946,38.265,121.764z"/>
<path class="stroke" fill="#064146"  fill-rule="evenodd" clip-rule="evenodd" d="M90.426,36.995c0.117-0.935,0.635-1.073,1.242-1.027
	c2.055,0.157,4.127,0.208,6.152,0.541c1.571,0.256,3.08,0.872,4.563,1.601c-2.043,0.354-3.942-0.317-5.897-0.602
	C94.529,37.223,92.537,37.165,90.426,36.995z"/>
<path class="stroke" fill="#064146"  fill-rule="evenodd" clip-rule="evenodd" d="M43.495,92.363c2.176-1.91,4.312-1.531,6.622-0.595
	c0.047,0.356,0.098,0.753,0.182,1.392C47.991,93.315,45.771,94.368,43.495,92.363z"/>
<path class="stroke" fill="#064146"  fill-rule="evenodd" clip-rule="evenodd" d="M117.881,56.259c-0.237-3.937-1.175-7.697-2.623-11.654
	C117.672,46.027,119.449,54.208,117.881,56.259z"/>
<path class="stroke" fill="#064146"  fill-rule="evenodd" clip-rule="evenodd" d="M44.061,134.662c-0.071-0.264-0.142-0.438-0.158-0.617
	c-0.01-0.115,0.06-0.237,0.085-0.327c2.656-0.805,5.29-1.604,8.129-2.464C50.818,133.675,47.299,135.104,44.061,134.662z"/>
<path class="stroke" fill="#064146"  fill-rule="evenodd" clip-rule="evenodd" d="M107.189,45.344c2.618,2.162,2.564,5.105,2.418,8.038
	c-0.078,1.552-0.322,1.784-1.667,2.264C109.099,52.047,108.453,48.689,107.189,45.344z"/>
<path class="stroke" fill="#064146"  fill-rule="evenodd" clip-rule="evenodd" d="M93.845,131.885c0.587,0.056,1.176,0.104,1.763,0.169
	c1.797,0.199,3.578,0.596,5.407,0.208c0.709-0.15,1.4-0.026,1.506,0.923c-1.979,1.297-6.522,0.829-8.735-0.886
	C93.805,132.162,93.824,132.023,93.845,131.885z"/>
<path class="stroke" fill="#064146"  fill-rule="evenodd" clip-rule="evenodd" d="M52.195,117.135c2.679-0.663,5.095-1.261,7.512-1.859
	c0.057,0.132,0.115,0.265,0.17,0.396c-1.27,1.545-3.074,2.182-5.005,2.522C53.471,118.442,53.199,118.303,52.195,117.135z"/>
<path class="stroke" fill="#064146"  fill-rule="evenodd" clip-rule="evenodd" d="M98.672,115.254c-0.158,0.188-0.317,0.523-0.451,0.513
	c-2.123-0.147-4.244-0.313-6.359-0.537c-0.669-0.071-1.466-0.18-1.21-1.233C92.025,113.729,97.527,114.563,98.672,115.254z"/>
<path class="stroke" fill="#064146"  fill-rule="evenodd" clip-rule="evenodd" d="M139.166,114.364c2.441-0.044,4.779,0.545,7.143,0.912
	c0.354,0.055,0.684,0.263,0.912,0.513C144.92,116.996,140.311,116.117,139.166,114.364z"/>
<path class="stroke" fill="#064146"  fill-rule="evenodd" clip-rule="evenodd" d="M75.864,75.782c-3.604-0.543-6.686-1.262-8.657-4.86
	c0.688-0.005,1.23-0.161,1.37,0.012c1.78,2.201,4.362,3.082,6.778,4.24C75.453,75.22,75.508,75.35,75.864,75.782z"/>
<path class="stroke" fill="#064146"  fill-rule="evenodd" clip-rule="evenodd" d="M39.368,103.558c2.334,1.225,4.97,0.623,7.098,1.837
	c-0.017,0.154-0.034,0.31-0.05,0.465c-0.331,0.096-0.668,0.292-0.993,0.271c-1.545-0.101-3.097-0.189-4.626-0.421
	C39.658,105.539,39.307,104.98,39.368,103.558z"/>
<path class="stroke" fill="#064146"  fill-rule="evenodd" clip-rule="evenodd" d="M84.25,126.796c-2.354,1.261-4.869,0.957-7.387,0.525
	c-0.552-0.095-0.544-0.141-0.959-1.078c2.76-0.022,5.519-0.046,8.279-0.068C84.207,126.382,84.229,126.589,84.25,126.796z"/>
<path class="stroke" fill="#064146"  fill-rule="evenodd" clip-rule="evenodd" d="M81.604,37.403c-1.56,1.461-7.257,4.577-8.949,4.833
	c1.479-1.367,2.71-2.375,4.264-3.004C78.367,38.644,79.506,37.282,81.604,37.403z"/>
<path class="stroke" fill="#064146"  fill-rule="evenodd" clip-rule="evenodd" d="M88.892,106.863c1.977-0.986,3.922-0.774,5.849-0.148
	c0.611,0.199,1.104,0.604,0.803,1.659C93.386,107.607,91.062,107.633,88.892,106.863z"/>
<path class="stroke" fill="#064146"  fill-rule="evenodd" clip-rule="evenodd" d="M195.584,124.589c-0.525,2.291-3.64,2.961-6.606,1.477
	c0.153-1.081,0.946-0.98,1.681-0.852C192.348,125.509,193.982,125.413,195.584,124.589z"/>
<path class="stroke" fill="#064146"  fill-rule="evenodd" clip-rule="evenodd" d="M117.616,109.46c2.08,0.979,4.122,1.941,6.163,2.903
	c-0.019,0.152-0.034,0.306-0.053,0.458c-0.417,0.049-0.885,0.247-1.241,0.122c-1.462-0.507-2.909-1.068-4.321-1.703
	C117.529,110.953,117.053,110.424,117.616,109.46z"/>
<path class="stroke" fill="#064146"  fill-rule="evenodd" clip-rule="evenodd" d="M106.02,38.028c-2.764-1.258-5.188-2.361-7.993-3.638
	c0.705-0.299,1.075-0.606,1.281-0.52C101.658,34.862,104.483,35.085,106.02,38.028z"/>
<path class="stroke" fill="#064146"  fill-rule="evenodd" clip-rule="evenodd" d="M113.215,43.68c1.127,2.99,2.076,5.624,1.365,8.789
	c-0.34-0.364-0.543-0.479-0.572-0.627c-0.453-2.457-0.887-4.917-1.304-7.381C112.684,44.337,112.883,44.176,113.215,43.68z"/>
<path class="stroke" fill="#064146"  fill-rule="evenodd" clip-rule="evenodd" d="M70.148,69.634c2.462,1.317,4.736,2.533,6.98,3.733
	C74.666,74.157,70.8,72.231,70.148,69.634z"/>
<path class="stroke" fill="#064146"  fill-rule="evenodd" clip-rule="evenodd" d="M73.079,69.935c0.649-0.123,1.06-0.342,1.305-0.224
	c1.981,0.955,4.356,1.052,6.153,2.722C78.499,72.722,75.115,71.621,73.079,69.935z"/>
<path class="stroke" fill="#064146"  fill-rule="evenodd" clip-rule="evenodd" d="M125.176,119.688c1.77-1.102,4.42-1.185,5.777-0.313
	c-1.412,1.125-3.105,0.754-4.629,1.025C126.048,120.449,125.686,120.019,125.176,119.688z"/>
<path class="stroke" fill="#064146"  fill-rule="evenodd" clip-rule="evenodd" d="M66.6,52.327c-0.104-3.048,1.498-5.249,3.751-7.125
	c-0.146,1.396-1.144,2.362-1.747,3.529c-0.621,1.195-1.062,2.485-1.58,3.733C66.882,52.419,66.741,52.372,66.6,52.327z"/>
<path class="stroke" fill="#064146"  fill-rule="evenodd" clip-rule="evenodd" d="M72.438,45.389c0.997-2.382,3.178-3.388,5.396-4.37
	c-0.224,1.39-1.494,1.805-2.378,2.575c-0.868,0.754-1.723,1.524-2.581,2.288C72.729,45.717,72.582,45.553,72.438,45.389z"/>
<path class="stroke" fill="#064146"  fill-rule="evenodd" clip-rule="evenodd" d="M100.492,108.193c1.762,0.424,3.636-0.129,5.474,0.671
	C104.084,110.34,101.557,110.085,100.492,108.193z"/>
<path class="stroke" fill="#064146"  fill-rule="evenodd" clip-rule="evenodd" d="M79.479,114.173c0.174,0.486,0.308,0.86,0.463,1.294
	c-1.951,0.552-3.524-0.1-5.072-1.069C76.369,113.744,77.906,114.447,79.479,114.173z"/>
<path class="stroke" fill="#064146"  fill-rule="evenodd" clip-rule="evenodd" d="M86.026,76.232c0.939-1.126,2.085-0.459,3.124-0.448
	c1.034,0.01,2.068-0.014,3.219-0.023C90.744,77.03,87.545,77.268,86.026,76.232z"/>
<path class="stroke" fill="#064146"  fill-rule="evenodd" clip-rule="evenodd" d="M65.201,45.193c0.461-2.371,2.236-3.609,4.01-4.852
	C68.293,42.305,66.856,43.844,65.201,45.193z"/>
<path class="stroke" fill="#064146"  fill-rule="evenodd" clip-rule="evenodd" d="M76.429,107.658c1.369-0.348,2.731-0.735,4.118-1.006
	c0.258-0.05,0.607,0.361,0.987,0.607C80.035,108.395,78.203,108.622,76.429,107.658z"/>
<path class="stroke" fill="#064146"  fill-rule="evenodd" clip-rule="evenodd" d="M88.581,102.168c1.294-0.01,2.589-0.022,3.937-0.033
	c0.139,0.249,0.287,0.511,0.411,0.729C92.445,103.9,90.451,103.678,88.581,102.168z"/>
<path class="stroke" fill="#064146"  fill-rule="evenodd" clip-rule="evenodd" d="M83.717,39.017c1.658-0.938,3.375-1.48,5.268-0.999
	C87.361,39.057,85.586,39.301,83.717,39.017z"/>
<path class="stroke" fill="#064146"  fill-rule="evenodd" clip-rule="evenodd" d="M115.73,54.719c0.532,1.604,0.025,3.133-0.531,4.629
	c-0.105,0.28-0.594,0.417-1.238,0.836c0.506-2.141,0.905-3.84,1.305-5.54C115.421,54.669,115.575,54.694,115.73,54.719z"/>
<path class="stroke" fill="#064146"  fill-rule="evenodd" clip-rule="evenodd" d="M70.456,100.666c0.892-1.486,2.251-1.461,3.981-0.038
	c-0.459,0.321-0.881,0.617-1.176,0.823c-0.326-0.025-0.455-0.012-0.568-0.048C72.002,101.182,71.312,100.95,70.456,100.666z"/>
<path class="stroke" fill="#064146"  fill-rule="evenodd" clip-rule="evenodd" d="M141.703,103.681c-1.709,0.5-3.736-0.081-4.725-1.235
	C137.945,101.831,139.268,102.158,141.703,103.681z"/>
<path class="stroke" fill="#064146"  fill-rule="evenodd" clip-rule="evenodd" d="M69.566,58.984c-0.572-1.705-1.371-2.966-0.57-4.536
	C70.135,55.427,70.402,57.138,69.566,58.984z"/>
<path class="stroke" fill="#064146"  fill-rule="evenodd" clip-rule="evenodd" d="M72.557,97.428c-0.096-0.479-0.165-0.815-0.245-1.211
	c1.457-0.59,2.511,0.021,3.808,0.698C74.906,97.947,73.816,97.474,72.557,97.428z"/>
<path class="stroke" fill="#064146"  fill-rule="evenodd" clip-rule="evenodd" d="M160.607,93.354c0.901-1.589,2.209-1.847,3.729-0.927
	C163.427,93.903,162.043,93.182,160.607,93.354z"/>
<path class="stroke" fill="#064146"  fill-rule="evenodd" clip-rule="evenodd" d="M108.977,44.087c-1.007-1.086-2.576-1.684-2.949-3.396
	C107.768,40.998,108.956,42.312,108.977,44.087z"/>
<path class="stroke" fill="#064146"  fill-rule="evenodd" clip-rule="evenodd" d="M85.975,73.437c1.701-1.518,3.166-0.525,4.854-0.305
	C89.706,73.809,87.837,73.918,85.975,73.437z"/>
<path class="stroke" fill="#064146"  fill-rule="evenodd" clip-rule="evenodd" d="M93.676,128.435c1.554-0.912,2.706-0.728,3.995,0.646
	C96.219,129.258,95.068,129.146,93.676,128.435z"/>
<path class="stroke" fill="#064146"  fill-rule="evenodd" clip-rule="evenodd" d="M110.764,47.249c1.327,1.211,0.984,2.54,1.127,4.054
	C110.797,50.436,110.373,48.762,110.764,47.249z"/>
<path class="stroke" fill="#064146"  fill-rule="evenodd" clip-rule="evenodd" d="M89.672,94.417c-0.121-1.042,0.481-1.276,1.121-1.362
	c0.759-0.101,1.461,0.044,1.94,1.041C91.604,94.399,90.678,94.791,89.672,94.417z"/>
<path class="stroke" fill="#064146"  fill-rule="evenodd" clip-rule="evenodd" d="M68.341,59.588c-1.496-1.509-1.667-2.448-0.743-3.721
	C68.318,56.971,68.597,58.079,68.341,59.588z"/>
<path class="stroke" fill="#064146"  fill-rule="evenodd" clip-rule="evenodd" d="M80.076,93.064c1.905-0.351,2.643-0.191,3.402,0.67
	C81.87,94.387,81.068,94.259,80.076,93.064z"/>
<path class="stroke" fill="#064146"  fill-rule="evenodd" clip-rule="evenodd" d="M104.617,42.824c-1.297-0.139-2.062-1.062-3.045-1.639
	C102.619,40.237,104.064,41.003,104.617,42.824z"/>
<path class="stroke" fill="#064146"  fill-rule="evenodd" clip-rule="evenodd" d="M86.922,123.005c-1.248-0.108-2.482,0.186-3.408-0.999
	C85.186,121.322,86.255,121.615,86.922,123.005z"/>
<path class="stroke" fill="#064146"  fill-rule="evenodd" clip-rule="evenodd" d="M88.652,88.821c1.29-0.104,2.349-0.45,3.378,0.31
	C90.752,90.288,89.474,90.241,88.652,88.821z"/>
<path class="stroke" fill="#064146"  fill-rule="evenodd" clip-rule="evenodd" d="M82.041,131.97c1.52-1.246,2.373-1.125,3.328,0.297
	C84.125,132.156,83.082,132.062,82.041,131.97z"/>
<path class="stroke" fill="#064146"  fill-rule="evenodd" clip-rule="evenodd" d="M81.533,33.589c1.046-1.069,2.352-0.59,3.652-0.925
	C84.064,33.936,83.022,34.185,81.533,33.589z"/>
<path class="stroke" fill="#064146"  fill-rule="evenodd" clip-rule="evenodd" d="M99.269,123.648c0.006,0.712,0.008,0.999,0.011,1.326
	c-0.99,0.386-1.889,0.568-3.018-0.476C97.353,124.191,98.18,123.958,99.269,123.648z"/>
<path class="stroke" fill="#064146"  fill-rule="evenodd" clip-rule="evenodd" d="M97.631,39.278c-2.382,0.39-2.668,0.333-3.799-0.722
	C95.143,38.333,96.285,38.275,97.631,39.278z"/>
<path class="stroke" fill="#064146"  fill-rule="evenodd" clip-rule="evenodd" d="M76.571,36.147c-0.739,1.104-1.632,1.974-3.242,1.961
	C74.084,36.712,75.35,36.464,76.571,36.147z"/>
<path class="stroke" fill="#064146"  fill-rule="evenodd" clip-rule="evenodd" d="M95.275,84.996c0.172,0.504,0.279,0.825,0.502,1.473
	c-1.102-0.134-1.949-0.237-2.795-0.339c-0.015-0.183-0.03-0.366-0.044-0.549C93.691,85.393,94.444,85.205,95.275,84.996z"/>
<path class="stroke" fill="#064146"  fill-rule="evenodd" clip-rule="evenodd" d="M155.863,108.151c-0.264-0.901,0.004-1.435,0.613-1.479
	c0.501-0.037,1.027,0.318,1.54,0.499c-0.014,0.161-0.026,0.322-0.04,0.483C157.277,107.818,156.578,107.982,155.863,108.151z"/>
<path class="stroke" fill="#064146"  fill-rule="evenodd" clip-rule="evenodd" d="M84.076,89.905c-1.266,0.229-2.119,0.15-3.066-0.992
	c1.031-0.097,1.771-0.167,2.582-0.243C83.76,89.098,83.883,89.413,84.076,89.905z"/>
<path class="stroke" fill="#064146"  fill-rule="evenodd" clip-rule="evenodd" d="M80.207,98.931c1.43-0.635,2.264-0.612,3.002,0.551
	C82.113,99.894,81.274,99.91,80.207,98.931z"/>
<path class="stroke" fill="#064146"  fill-rule="evenodd" clip-rule="evenodd" d="M83.95,74.843c-1.448,0.508-2.476,0.73-3.562,0.024
	C81.357,74.104,81.632,74.096,83.95,74.843z"/>
<path class="stroke" fill="#064146"  fill-rule="evenodd" clip-rule="evenodd" d="M111.906,57.04c-0.576-1.08-0.656-2.123,0.162-3.458
	C112.621,54.987,112.369,56.022,111.906,57.04z"/>
<path class="stroke" fill="#064146"  fill-rule="evenodd" clip-rule="evenodd" d="M69.713,50.916c-0.352-1.405-0.152-2.283,1.077-2.971
	C71.034,49.169,70.916,50.06,69.713,50.916z"/>
<path class="stroke" fill="#064146"  fill-rule="evenodd" clip-rule="evenodd" d="M112.445,40.724c-1.426-0.281-1.755-1.141-2-2.157
	C111.655,38.591,111.84,38.781,112.445,40.724z"/>
<path class="stroke" fill="#064146"  fill-rule="evenodd" clip-rule="evenodd" d="M63.03,52.256c-0.825-1.487-0.815-1.585,0.308-2.632
	C63.503,50.563,63.705,51.381,63.03,52.256z"/>
<path class="stroke" fill="#064146"  fill-rule="evenodd" clip-rule="evenodd" d="M84.879,86.166c1.001-1.349,1.137-1.334,2.014,0.221
	C86.141,86.303,85.592,86.243,84.879,86.166z"/>
<path class="stroke" fill="#064146"  fill-rule="evenodd" clip-rule="evenodd" d="M86.291,36.782c-0.852,0.075-1.316,0.118-1.797,0.16
	c0.016-0.203-0.021-0.36,0.037-0.417C85.012,36.064,85.506,35.834,86.291,36.782z"/>
<path class="stroke" fill="#064146"  fill-rule="evenodd" clip-rule="evenodd" d="M92.045,34.091c-0.712,0.11-1.096,0.169-1.665,0.256
	C90.814,33.459,91.209,33.459,92.045,34.091z"/>
<path class="stroke" fill="#064146"  d="M166.359,158.172c1.957-0.777,4.037,0.041,5.689-1.007c-0.371-1.212-1.158-2.13-2.078-2.982
	c-1.83-1.695-3.657-3.391-5.51-5.069c-0.607-0.551-1.289-1.048-1.956-1.585c-3.251,2.583-6.292,5.001-9.338,7.424
	c1.21,1.845,3.827,1.446,5.278,2.581c-0.107,2.568-0.217,5.074-0.332,7.793c3.02,0.126,5.801,1.051,8.687-0.194
	c-0.165-1.339-0.357-2.463-0.425-3.59C166.305,160.384,166.359,159.221,166.359,158.172z"/>
<path fill-rule="evenodd" clip-rule="evenodd" fill="#8dece4" class="fill" d="M160.672,155.986c-1.301-0.335-2.574-0.663-4.128-1.063
	c2.171-1.542,4.136-2.939,6.257-4.445c1.955,1.708,4.045,3.195,5.885,5.368c-1.689,0.076-2.973,0.134-4.324,0.195
	c-0.961,1.187-0.037,2.416-0.135,3.604c-0.1,1.222-0.023,2.452-0.023,3.779c-1.189,0.056-2.237,0.105-3.531,0.166
	c0-1.309,0-2.52,0-3.731C160.672,158.676,160.672,157.491,160.672,155.986z"/>
</svg>
