<svg version="1.1" id="svg" xmlns="http://www.w3.org/2000/svg" xmlns:xlink="http://www.w3.org/1999/xlink" x="0px" y="0px"
	 width="200px" height="200px" viewBox="0 0 200 200" enable-background="new 0 0 200 200" xml:space="preserve">
<path class="stroke" fill="#672a19"  fill-rule="evenodd" clip-rule="evenodd" d="M97.174,82.763c0-0.905,0-1.75,0-2.653c0.579-0.609,1.164-1.222,1.816-1.909
	c-0.429-2.329,1.131-3.37,2.949-4.25c0.396-0.192,0.753-0.485,1.09-0.775c1.104-0.953,2.189-1.926,3.423-3.016
	c-0.248-2.018,0.599-3.992,1.726-6.197c-0.779,0.093-1.313,0.117-1.834,0.225c-3.523,0.728-4.481,0.046-4.978-3.56
	c-0.017-0.111-0.067-0.216-0.123-0.39c-1.03-1.338-2.696-1.827-4.181-2.36c-2.063-0.741-2.848-2.065-2.942-4.064
	c-0.013-0.278-0.061-0.554-0.108-0.961c-4.027-0.86-8.033-1.718-12.342-2.639c0.709,2.05,1.351,3.786,1.914,5.547
	c1.241,3.888,2.48,7.776,3.646,11.686c0.517,1.731,0.308,3.434-0.41,5.135c-0.868,2.055-1.968,3.936-3.275,5.741
	c-2.021,2.792-3.907,5.682-5.964,8.697c1.14,2.222,2.304,4.547,3.513,6.849c3.922,7.465,5.719,15.32,3.752,23.656
	c-0.944,4.009-2.202,7.985-4.412,11.554c-0.229,0.371-0.354,0.806-0.525,1.204c1.389,0.433,2.743,0.702,3.956,1.272
	c1.212,0.569,2.346,1.361,3.397,2.196c1.049,0.829,1.636,1.977,1.832,3.351c0.405,2.837,0.635,5.628-0.667,8.341
	c-0.237,0.496-0.215,1.233-0.057,1.785c1.19,4.143,2.226,8.318,2.5,12.633c0.087,1.348-0.12,2.714-0.207,4.072
	c-0.065,1.056,0.181,2.017,0.794,2.864c7.703,0.773,8.584,7.729,4.948,11.548c-2.604,0.833-5.225,0.497-7.603-1.201
	c-2.332,1.061-4.592,2.089-7.04,3.204c-0.561,1.641-2.006,2.671-3.714,3.431c-0.779,0.345-1.557,0.695-2.299,1.109
	c-1.883,1.055-3.849,1.006-5.731,0.206c-1.964-0.833-3.97-1.312-6.077-1.44c-1.332-0.082-2.581-0.367-3.715-1.437
	c-1.545,0.328-3.137,0.703-4.743,0.999c-2.619,0.482-5.243,0.788-7.918,0.397c-1.731-0.251-3.487-0.342-5.037-0.486
	c-3.471,2.221-7.001,2.006-9.313-0.45c-0.137,0.02-0.343-0.014-0.452,0.073c-2.596,2.041-5.399,1.613-8.241,0.714
	c-1.573-0.497-3.124-0.962-4.831-0.637c-0.622,0.119-1.323-0.172-1.972-0.272c-1.813-2.311-1.486-4.827-1.126-7.375
	c0.391-2.777,2.247-4.341,4.472-5.541c0.443-1.979,0.043-3.829-0.293-5.654c-0.225-1.205-0.287-2.344,0.043-3.524
	c0.408-1.457,0.445-2.861-0.348-4.272c-0.549-0.978-0.413-2.111,0.038-3.132c0.78-1.757,0.816-3.422,0.021-5.242
	c-0.578-1.323-0.806-2.824-1.035-4.271c-0.434-2.752,0.793-4.691,3.155-6.029c0.927-0.524,1.75-1.254,2.711-1.692
	c0.854-0.391,1.824-0.634,2.763-0.711c1.093-0.089,1.964-0.383,2.621-1.301c0.758-1.059,1.959-1.237,3.347-1.387
	c-0.648-1.403-1.264-2.666-1.823-3.952c-1.583-3.636-3.296-7.226-4.663-10.942c-1.021-2.765-1.365-5.73-1.365-8.704
	c0.001-1.808,0.001-3.616,0.001-5.121c-1.165-2.053-2.389-3.843-3.236-5.795c-1.291-2.975-0.737-6.037,0.274-8.975
	c1.078-3.133,2.671-5.979,4.967-8.444c1.267-1.359,2.225-3.003,3.357-4.493c1.165-1.531,2.359-3.043,3.57-4.541
	c1.007-1.245,1.494-2.616,1.444-4.241c-0.057-1.981-0.05-3.971,0.072-5.948c0.212-3.458,1.34-6.666,3.082-9.636
	c1.052-1.794,2.276-3.487,3.539-5.396c-0.23-1.862-0.589-3.983-0.735-6.119c-0.322-4.781-0.249-9.563,1.558-14.086
	c1.087-2.723,2.179-5.521,4.353-7.63c2.741-2.659,5.877-4.607,9.803-4.939c3.73-0.314,7.429,0.078,10.894,1.388
	c3.981,1.506,7.02,4.332,9.215,7.997c0.61,1.02,1.075,2.127,1.631,3.181c2.258,4.285,2.221,8.729,0.826,13.221
	c-0.636,2.047-1.492,4.026-2.321,6.23c0.729,1.017,1.575,2.198,2.496,3.483c0.82-1.77,1.549-3.425,2.348-5.046
	c0.472-0.955,0.912-1.988,2.513-2.369c3.974,1.852,8.223,3.833,12.511,5.831c2.367-0.81,4.76-1.687,7.192-2.428
	c0.955-0.291,2.005-0.378,3.01-0.371c1.243,0.009,2.486,0.343,3.724,0.306c2.658-0.082,4.478,1.397,6.172,3.117
	c1.737,1.763,2.531,3.998,2.969,6.383c0.091,0.5,0.188,0.999,0.273,1.463c3.64,3.306,4.004,3.917,4.121,6.968
	c1.12,0.743,2.285,1.514,3.689,2.443c0.411-1.819,1.186-3.283,2.859-4.213c-0.581-0.758-1.023-1.327-1.456-1.901
	c-0.601-0.798-0.96-1.677-0.803-2.697c0.353-2.266,1.661-2.95,3.405-2.488c0.601,0.159,1.217,0.247,1.877,0.378
	c3.185-2.262,5.659-5.198,8.271-8.147c-1.362-4.033-3.54-7.999-2.167-12.461c2.228-2.064,4.34-1.867,5.898,0.592
	c1.269,2.007,2.371,4.119,3.562,6.175c0.53,0.918,1.092,1.817,1.744,2.895c0.591-0.542,0.978-0.932,1.4-1.277
	c1.91-1.558,3.908-2.849,6.513-2.969c1.104-0.05,2.207-0.465,3.276-0.818c2.251-0.744,2.8-0.697,4.273,1.143
	c1.381,1.723,2.673,3.528,3.874,5.381c1.91,2.949,3.716,5.967,5.563,8.956c0.18,0.29,0.366,0.575,0.536,0.87
	c1.263,2.196,1.148,3.366-0.784,5.084c-1.604,1.429-3.356,2.693-5.039,4.035c-0.344,0.274-0.668,0.573-0.969,0.833
	c0.127,1.664,0.979,2.907,1.76,4.131c1.369,2.15,2.83,4.244,4.338,6.298c1.529,2.082,1.708,3.826,0.318,5.916
	c-2.098,0.717-4.157,0.024-6.088-0.885c-2.199-1.037-4.276-2.334-6.553-3.6c-1.979,0.776-4.143,1.861-6.268,0.192
	c-2.075,0.487-3.191,2.023-4.492,3.408c0,0.789,0,1.574,0,2.468c0.452,0.506,0.984,1.088,1.5,1.684
	c1.438,1.66,1.844,3.686,2.198,5.784c0.709,4.19,0.028,8.259-0.861,12.313c-0.69,3.154-1.52,6.275-2.237,9.423
	c-0.172,0.75-0.143,1.545-0.191,2.162c3.19,3.838,5.033,8.086,5.76,12.75c0.615,3.93,0.057,7.79-1.652,11.434
	c-0.9,1.917-1.597,3.893-1.459,6.047c0.185,2.94,0.363,5.884,0.675,8.812c0.38,3.548,0.896,7.083,1.351,10.624
	c0.166,1.293,0.242,2.604,0.499,3.877c0.551,2.738-0.618,4.759-2.653,6.335c-0.918,0.712-2.083,1.118-3.158,1.614
	c-0.459,0.212-0.982,0.278-1.461,0.451c-1.835,0.663-3.676,1.13-5.637,0.528c-0.422-0.13-0.893-0.106-1.36-0.155
	c-0.117,0.133-0.274,0.238-0.326,0.38c-0.818,2.218-1.705,2.818-4.073,2.634c-0.89-0.069-1.771-0.253-2.798-0.407
	c-0.773,2.637-2.958,3.133-5.2,3.393c-3.6,0.415-7.21,0.734-10.82,1.042c-0.84,0.073-1.698-0.05-2.547-0.097
	c-1.413-0.079-2.824-0.167-4.236-0.254c-1.41-0.086-2.817-0.176-4.133-0.26c-1.006-1.279-0.713-2.555-0.399-3.73
	c0.464-1.748,1.347-3.231,3.255-3.833c1.347-0.426,2.66-0.955,4.052-1.462c0.204-1.696,0.414-3.377,0.611-5.061
	c0.052-0.45,0.014-0.916,0.108-1.355c0.814-3.758,0.457-7.572,0.522-11.363c0.097-5.503,0.115-11.007,0.155-16.512
	c0.027-3.572,0.028-7.142,0.052-10.713c0.03-4.492,0.403-8.95,1.304-13.356c0.045-0.217,0.052-0.441,0.103-0.888
	c-0.725,0-1.385,0.017-2.046-0.002c-3.031-0.091-5.531-1.215-7.128-3.895c-1.827-3.068-3.546-6.202-5.397-9.255
	c-0.936-1.546-2.047-2.987-3.109-4.453c-0.465-0.642-1.091-1.178-1.495-1.851c-0.923-1.535-2.185-2.46-3.926-2.986
	c-1.952-0.592-2.955-2.162-3.37-4.143c-0.307-1.453,0.457-2.516,1.162-3.605C96.366,83.694,96.795,83.237,97.174,82.763z
	 M37.384,84.619c1.135-0.525,2.081-1.062,3.095-1.41c1.774-0.609,3.174-1.762,4.498-2.994c1.273-1.185,2.117-2.657,2.206-4.466
	c0.084-1.697,0.296-3.397,0.246-5.09c-0.069-2.262-0.241-4.533-0.553-6.774c-0.278-2.006-0.812-3.978-1.222-5.966
	c-0.066-0.317-0.082-0.645-0.118-0.943c1.166-0.498,1.692-0.4,2.177,0.718c0.67,1.553,1.398,3.146,1.672,4.792
	c0.586,3.519,0.95,7.077,1.304,10.628c0.309,3.089-0.241,6.118-1.05,9.083c-0.458,1.673-1.268,3.229-3.021,3.879
	c-1.043,0.387-2.179,0.583-3.291,0.714c-2.012,0.239-4.038,0.365-5.994,0.532c-3.076,3.046-6.812,10.28-6.877,13.31
	c0.702,0.595,2.025,0.296,2.54,1.736c-1.136-0.065-2.1-0.12-3.052-0.174c-0.589,1.584-0.832,3.057-0.508,4.657
	c0.95,0.302,1.871,0.595,2.928,0.931c-0.807,1.146-1.865,0.423-2.793,0.855c-0.106,1.756,0.483,3.47,0.604,5.164
	c1.079,0.641,2.573,0.165,3.184,1.749c-0.979,0-1.796,0-2.779,0c0.223,1.022,0.407,1.879,0.578,2.66
	c1.465,0.158,2.719,0.293,4.227,0.457c-1.076,1.534-2.563,0.518-3.688,1.285c0.213,0.741,0.441,1.535,0.678,2.353
	c1.302,0.344,2.515,0.664,3.787,0.999c-0.647,1.218-1.846,0.695-2.795,0.984c0.106,0.418,0.184,0.724,0.244,0.955
	c1.437,0.534,3.033-0.314,4.33,0.869c-0.994,1.076-2.402,0.143-3.438,0.957c0.319,0.84,0.632,1.665,0.902,2.379
	c1.523,0.217,2.859,0.406,4.188,0.596c0.363,0.536,0.658,0.971,0.979,1.441c-1.047,0.77-1.408,0.062-1.707-0.449
	c-0.874,0-1.639,0-2.646,0c0.428,0.852,0.763,1.523,1.044,2.083c1.568,0.25,3.069-0.181,4.445,0.787
	c-1.192,1.161-2.479,0.16-3.693,0.674c0.623,1.576,1.325,2.992,2.755,3.726c1.078-0.131,2.016-0.244,2.752-0.334
	c1.424,1.07,2.639,1.982,3.735,2.806c2.939-0.362,4.961-0.883,5.695-1.533c-1.562,0-2.981,0-4.487,0
	c0.061-0.394,0.109-0.71,0.167-1.099c1.854-0.583,3.664-0.623,5.604-0.148c0.085-0.411,0.167-0.818,0.27-1.321
	c-1.862-0.227-3.67,0.979-5.374-0.171c0.039-0.222,0.014-0.476,0.108-0.533c1.655-0.999,3.684-0.173,5.474-1.114
	c0-0.387,0-0.801,0-1.224c-1.064,0.089-2.021,0.169-3.008,0.25c0.066-1.672,1.601-1.062,2.2-1.889
	c-2.278-2.396-5.329-3.554-8.276-5.1c0.115-0.525,0.213-0.972,0.303-1.381c0.369-0.031,0.545-0.083,0.701-0.05
	c0.274,0.057,0.565,0.119,0.802,0.259c2.371,1.395,4.94,1.492,7.586,1.25c1.919-0.176,3.776-0.73,5.158-1.981
	c1.483-1.34,2.687-3.02,3.866-4.655c2.494-3.454,3.86-7.323,3.688-11.62c-0.072-1.804-0.364-3.604-0.642-5.392
	c-0.098-0.636-0.113-1.108,0.535-1.417c1.26,0.108,1.994,0.886,2.178,2.031c0.192,1.213,0.284,2.477,0.173,3.697
	c-0.401,4.396-0.911,8.783-1.36,13.175c-0.039,0.377,0.07,0.77,0.103,1.087c0.458,0.249,0.823,0.448,1.223,0.665
	c-0.283,0.486-0.502,0.86-0.69,1.189c0.814,1.381,1.043,1.569,2.662,2.007c0.836,0.225,1.667,0.417,1.996,1.56
	c-0.355,0.442-0.763,0.946-1.179,1.462c-1.634-0.303-3.139-0.581-4.73-0.875c0.245,0.578,0.421,0.995,0.609,1.441
	c-1.161,0.435-2.021-1.208-3.24-0.08c1.124,1.001,2.761,1.002,3.963,2.208c-1.595,0.669-2.939,0.403-4.359-0.207
	c-0.064,0.456-0.108,0.772-0.177,1.265c1.588,0.59,3.146,1.17,4.773,1.774c-0.705,0.999-1.617,0.88-2.56,0.568
	c-0.697-0.23-1.376-0.511-2.073-0.741c-0.135-0.045-0.313,0.044-0.539,0.084c-0.067,0.383-0.133,0.757-0.225,1.271
	c0.938,0.508,1.834,0.995,3.082,1.672c-0.873,0.409-1.397,0.655-1.913,0.897c-0.343-0.223-0.562-0.396-0.808-0.519
	c-0.283-0.143-0.59-0.239-0.967-0.388c-0.12,0.424-0.238,0.741-0.296,1.067c-0.054,0.315-0.045,0.643-0.075,1.119
	c2.139,0.227,4.012,1.778,6.124,0.464c0.855-0.471,1.711-0.941,2.665-1.465c0.155-0.418,0.375-1.016,0.587-1.59
	c-0.305-0.194-0.579-0.37-0.96-0.611c0.328-0.344,0.576-0.604,0.847-0.889c0.429,0.31,0.766,0.554,1.237,0.896
	c1.357-2.296,2.646-4.476,3.859-6.532c-0.317-0.964-0.562-1.705-0.855-2.592c2.039-1.174,3.267-2.882,3.606-5.25
	c-0.877-0.286-1.661-0.541-2.595-0.846c0.324-0.421,0.514-0.668,0.702-0.913c0.846,0.142,1.613,0.27,2.568,0.43
	c0.116-0.601,0.215-1.112,0.323-1.672c-0.804-0.341-1.446-0.616-2.082-0.887c0.527-1.582,1.707-0.416,2.578-0.746
	c0.158-0.507,0.32-1.029,0.536-1.716c-0.896-0.214-1.669-0.398-2.523-0.603c0.563-1.719,1.889-0.575,2.856-0.969
	c0-0.374,0-0.781,0-1.148c-0.776-0.312-1.442-0.579-2.135-0.856c0.351-1.482,1.438-0.503,2.155-0.76
	c-0.298-0.339-0.536-0.611-0.786-0.895c0.365-0.403,0.663-0.733,0.979-1.084c-0.145-0.752-0.284-1.463-0.43-2.209
	c-0.814-0.17-1.56-0.327-2.298-0.481c0.051-1.578,1.479-0.528,1.999-1.341c-0.237-0.773-0.497-1.625-0.771-2.525
	c-0.918-0.228-1.76-0.437-2.58-0.641c0.117-1.229,1.196-0.728,1.838-1.213c-0.272-0.652-0.543-1.3-0.748-1.795
	c-1.146-0.407-2.254,0.373-3.104-0.507c0.34-1.291,1.643-0.526,2.371-1.252c-0.307-0.653-0.629-1.338-0.921-1.959
	c-1.062,0.028-1.942,1.058-2.943-0.159c0.757-0.425,1.454-0.817,2.297-1.292c-0.254-0.547-0.476-1.023-0.677-1.458
	c-0.943-0.044-1.713,0.933-2.628-0.099c0.593-0.458,1.145-0.885,1.802-1.392c-0.577-1.113-1.142-2.206-1.678-3.244
	c-0.631-0.053-1.142-0.097-1.784-0.151c0.311-0.608,0.53-1.036,0.75-1.469c-0.231-0.285-0.404-0.498-0.577-0.709
	c-2.238,0.37-4.488,0.482-6.559,1.151c-2.301,0.743-4.482,0.779-6.753,0.191c-0.64-0.167-1.284-0.311-1.898-0.457
	c-0.21-0.638-0.41-1.109-0.521-1.601c-0.939-4.202-1.745-8.439-2.833-12.602c-0.813-3.114-1.827-6.199-3.051-9.174
	c-0.94-2.292-2.369-4.381-3.533-6.585c-0.607-1.15-1.131-2.345-1.66-3.534c-0.489-1.102-0.936-2.222-1.486-3.535
	c-1.306,1.595-2.189,3.153-2.905,4.819c-1.94,4.518-2.55,9.253-2.42,14.133c0.024,0.983-0.123,2.078-0.555,2.941
	c-0.646,1.306-1.509,2.54-2.462,3.65c-1.921,2.233-3.896,4.427-5.969,6.519c-3.192,3.223-4.214,7.15-3.99,11.515
	c0.079,1.546,0.649,2.932,1.8,4.173c1.2-1.982,2.258-3.9,3.482-5.707c1.229-1.813,2.621-3.516,3.984-5.325
	c-0.643-0.555-1.596-0.974-1.689-2.171c0.276-0.139,0.55-0.278,1.004-0.508c0.372,0.538,0.729,1.051,0.976,1.404
	C36.484,84.556,36.936,84.587,37.384,84.619z M79.886,168.844c0.644-0.327,1.309-0.665,2.025-1.031
	c0.791,0.754,1.437,1.372,2.083,1.988c0.018-0.029,0.035-0.059,0.054-0.089c0.808,0.485,1.614,0.97,2.552,1.534
	c0.816-1.461,0.163-2.843,0.035-4.178c-0.74-0.26-1.357-0.477-1.916-0.674c-0.053-1.383,1.288-0.749,1.726-1.41
	c-0.327-1.026-0.651-2.042-0.939-2.953c-0.622-0.424-1.15-0.785-1.988-1.356c0.92-0.364,1.454-0.575,2.048-0.811
	c0-0.656,0-1.322,0-1.964c-0.94-0.457-1.83-0.889-3.182-1.546c0.531-0.556,0.812-0.85,1.094-1.144
	c0.105,0.122,0.213,0.243,0.318,0.365c0.714,0.258,1.431,0.517,2.367,0.856c0.09-0.948,0.154-1.629,0.203-2.153
	c-1.303-0.429-2.39-0.74-3.44-1.15c-0.653-0.254-1.035-0.716-0.345-1.477c1.254,0.357,2.514,0.717,3.828,1.091
	c0.367-1.102-0.064-1.783-0.438-2.466c-0.784-1.439-0.979-2.851-0.105-4.362c0.309-0.534,0.309-1.245,0.458-1.906
	c-1.044-0.223-1.887-0.402-2.853-0.606c0.813-1.488,2.062-0.622,3.045-0.913c-0.12-1.068-0.232-2.047-0.325-2.874
	c-3.39-0.227-5.676,1.12-6.968,4.042c0.626,0.555,1.211,1.359,1.992,1.684c0.826,0.344,1.846,0.231,2.848,0.324
	c0.214,0.908-0.457,1.083-1.151,1.182c-2.062,0.292-3.663-0.399-4.519-2.246c-2.324,1.438-4.567,2.755-6.731,4.189
	c-1.854,1.228-3.751,1.794-5.94,1.074c-0.574-0.19-1.286-0.39-1.816-0.219c-1.377,0.444-2.681,0.316-4.014-0.16
	c-3.121,1.237-6.031,0.59-8.799-1.033c-1.762-1.033-3.65-1.515-5.645-1.531c-0.699,0.247-1.186,1.477-2.101,0.472
	c0.705-2.473,3.139-2.278,4.789-3.416c0.281,0.447,0.507,0.806,0.764,1.21c2.122,0.46,4.229,0.913,6.33,1.37
	c1.672,0.364,3.263,0.26,4.758-0.964c0.917,0.574,1.804,1.13,2.835,1.776c1.302-0.446,2.762-0.648,4.316-0.179
	c0.637,0.192,1.553,0.055,2.14-0.284c2.348-1.36,4.705-2.743,6.397-4.976c-0.339-0.208-0.646-0.396-1.074-0.658
	c0.407-0.339,0.694-0.578,1.002-0.833c0.394,0.2,0.725,0.369,1.037,0.528c1.296-0.879,1.904-2.59,3.627-2.758
	c1.545-0.15,3.102-0.199,4.818-0.303c-1.889-2.566-4.494-3.489-7.352-4.266c-0.877,1.383-1.664,2.758-2.584,4.037
	c-0.891,1.238-1.918,2.377-3.034,3.74c-0.338-0.235-0.689-0.48-0.964-0.672c-0.718,0.642-1.455,1.303-2.265,2.026
	c0.021,0.052,0.125,0.306,0.282,0.703c-0.337,0.179-0.674,0.357-1.166,0.618c0-0.6,0-0.944,0-1.062
	c-2.072-0.172-4.033-0.417-6-0.479c-2.197-0.068-3.805-1.225-5.316-2.787c-1.629,2.409-3.908,3.286-6.438,2.978
	c-2.474-0.302-5.149,0.027-7.313-1.779c-1.584,0.806-2.844,0.273-4.102-0.726c-1.479-1.178-2.72-2.507-3.424-4.334
	c-0.377,0.116-0.637,0.196-0.925,0.285c0.081,0.45,0.154,0.854,0.248,1.368c-0.466,0.048-0.817,0.085-1.185,0.123
	c-0.031-0.441-0.051-0.756-0.08-1.161c-1.886,0.597-3.699,1.008-5.165,0.285c-1.251,0.607-2.228,1.082-3.206,1.556
	c-0.064-0.09-0.131-0.18-0.195-0.27c-0.709,1.007-1.418,2.015-2.144,3.047c0.53,3.202,1.146,6.304,2.657,9.29
	c-0.882,0.124-1.486,0.207-2.304,0.321c-0.241,1.098-0.492,2.229-0.684,3.095c1.021,1.793,1.971,3.264,2.712,4.833
	c0.922,1.946,1.076,4.037,0.67,6.158c-0.183,0.946-0.377,1.892,0.143,2.628c3.469,1.042,7.125,1.218,9.521,4.265
	c0.113,1.91,0.223,3.751,0.336,5.669c3.038-0.504,5.454,0.085,6.573,3.201c0.454,0.026,0.847,0.034,1.236,0.072
	c1.518,0.146,3.053,0.211,4.551,0.472c3.105,0.538,5.938,0.005,8.525-1.754c0.08-0.727,0.139-1.346,0.217-1.963
	c0.283-2.261,1.285-4.023,3.608-4.641c2.066-0.55,4.179-0.929,6.272-1.378c0.599-0.128,1.203-0.227,1.8-0.364
	c1.426-0.327,2.791-0.776,4.337-0.472c1.988,0.392,3.586,1.311,4.932,2.771c0.83,0.9,1.682,1.778,2.547,2.692
	c1.201-1.934,1.074-3.032-0.522-5.024C79.886,170.452,79.886,169.833,79.886,168.844z M77.059,47.594
	c-2.364,2.817-3.326,6.001-4.553,9.147c0.813,0.356,1.703,0.458,2.151,1.557c-0.945-0.083-1.705-0.148-2.709-0.235
	c-0.291,1.41-0.596,2.876-0.911,4.398c1.096,0.485,1.919,1.002,2.314,2.205c-0.782,0.036-1.414,0.065-2.196,0.101
	c0.663,3.31,0.937,6.624,3.405,9.542c0.211-1.051,0.351-1.747,0.473-2.357c-0.6-0.222-1.03-0.381-1.444-0.534
	c0.271-1.265,1.142-0.571,1.747-0.784c1.142-5.524,1.892-11.052,0.094-16.548c0.434-0.822,0.651-1.684,1.667-1.886
	c0.853,0.555,0.864,1.467,1.015,2.259c0.669,3.53,0.788,7.082,0.434,10.664c-0.266,2.7-0.524,5.419-0.489,8.126
	c0.025,1.981,1.08,3.586,2.87,4.614c1.904-2.382,3.453-5.376,3.811-7.31c-0.555-0.038-1.105-0.074-1.76-0.118
	c-0.309-0.399-0.633-0.818-0.996-1.29c0.354-0.29,0.561-0.458,0.693-0.565c0.797-0.058,1.19,1.237,2.125,0.313
	c-0.777-2.871-1.568-5.799-2.326-8.609c-0.842-0.201-1.508-0.359-2.498-0.595c0.532-0.388,0.722-0.59,0.953-0.679
	c0.293-0.112,0.619-0.13,1.051-0.211C81.17,54.729,80.26,50.855,77.059,47.594z M60.868,33.17c0-1.528,0-2.988,0-4.441
	c-0.402-0.245-0.791-0.482-1.314-0.801c0.633-0.401,1.089-0.691,1.47-0.932c0.5-3.898,0.987-7.678,1.504-11.7
	c-1.1,0.136-1.898,0.233-2.842,0.348c-0.597,4.151-1.248,8.118-1.707,12.107c-0.236,2.076-0.152,4.19-0.177,6.288
	c-0.048,4.082-0.312,8.18-0.047,12.243c0.421,6.44,1.495,12.81,2.778,19.144c0.999,4.95,2.208,9.835,3.797,14.625
	c0.129,0.385,0.349,0.739,0.604,1.264c0.274-0.386,0.535-0.586,0.51-0.74c-0.582-3.56-1.195-7.115-1.792-10.61
	c-0.544-0.19-1.005-0.351-1.697-0.593c0.593-0.489,1.001-0.827,1.508-1.244c-0.147-1.38-0.301-2.829-0.459-4.306
	c-0.418-0.068-0.696-0.086-0.959-0.163c-0.241-0.071-0.466-0.204-0.879-0.393c0.644-0.453,1.124-0.792,1.633-1.152
	c-0.112-0.48-0.217-0.912-0.295-1.248c-0.442-0.276-0.786-0.491-1.378-0.861c0.561-0.356,0.938-0.597,1.236-0.785
	c-0.272-2.138-0.521-4.085-0.764-5.994c-0.82-0.038-1.486-0.07-2.154-0.101c-0.025-0.155-0.055-0.312-0.083-0.466
	c0.679-0.312,1.357-0.624,2.161-0.993c-0.064-1.275-0.131-2.555-0.194-3.822c-0.747-0.122-1.354-0.221-1.961-0.32
	c-0.008-0.116-0.017-0.234-0.024-0.353c0.573-0.28,1.147-0.562,1.895-0.925c-0.168-3.83-0.34-7.687-0.507-11.495
	c-0.692-0.25-1.496,0.12-1.716-0.927C59.568,33.63,60.12,33.435,60.868,33.17z M56.402,25.076c0.784-1.752,1.773-7.42,1.584-9.228
	c-0.758,0.156-1.496,0.308-2.277,0.468c-2.425,6.671-2.676,13.559-2.809,20.375c-0.221,11.291,1.923,22.273,5.329,33.155
	c0.569-0.229,1.015-0.407,1.503-0.603c-1.086-6.62-2.156-13.132-3.227-19.655c-0.375-0.057-0.659-0.073-0.928-0.146
	c-0.304-0.083-0.594-0.214-1.315-0.484c0.953-0.395,1.522-0.632,2.069-0.858c0-5.255,0-10.452,0-15.606
	c-0.632-0.233-1.158-0.429-1.685-0.622c0.018-0.114,0.034-0.228,0.05-0.342c0.546-0.218,1.088-0.437,1.631-0.654
	c0.081-1.463,0.158-2.859,0.233-4.24c-0.638-0.234-1.175-0.432-1.708-0.629c0.002-0.106,0.004-0.212,0.007-0.318
	C55.354,25.494,55.846,25.298,56.402,25.076z M67.818,74.697c-1.568-7.215-2.065-14.497-2.652-21.784
	c-0.586-7.309-0.024-14.59,0.129-21.82c-0.59-0.29-1.012-0.498-1.719-0.845c0.82-0.348,1.349-0.571,1.914-0.81
	c0.096-2.2,0.854-4.329,0.268-6.459c0.924-2.165,1.021-4.459,1.272-6.897c-1.001-0.172-1.907-0.328-2.831-0.486
	c-0.172,0.541-0.311,0.853-0.367,1.181c-1.15,6.598-1.799,13.238-1.56,19.944c0.136,3.784,0.173,7.575,0.461,11.347
	c0.335,4.396,0.834,8.782,1.374,13.159c0.625,5.058,1.348,10.105,2.08,15.149c0.223,1.53,0.619,3.037,1.32,4.763
	c0.615-0.815,1.016-1.346,1.453-1.927c-0.267-0.948-0.523-1.867-0.766-2.734c-0.54-0.164-0.99-0.299-1.439-0.435
	c-0.096-0.158-0.19-0.316-0.285-0.474C66.883,75.303,67.292,75.036,67.818,74.697z M31.971,174.077
	c-0.572-1.398-1.136-2.738-2.446-3.254c-1.515-0.597-3.167-0.927-4.806-0.264c-1.769,0.717-3.414,1.609-4.751,3.036
	c-1.635,1.742-1.972,3.718-0.864,5.875c1.434,0.26,2.868,0.536,4.309,0.78c1.666,0.281,3.327,0.646,5.007,0.766
	c1.474,0.105,2.473-0.75,3.014-2.245c-1.292-0.439-2.741-0.704-3.341-2.333c0.343-0.23,0.639-0.426,0.899-0.6
	c1.036,0.507,1.724,1.497,3.012,1.358c0-0.479,0-0.904,0-1.295c-1.544-0.589-3.43-0.316-4.29-2.219
	c0.256-0.239,0.481-0.449,0.752-0.701C29.484,173.725,30.449,174.442,31.971,174.077z M69.427,57.206
	c-0.163-3.303-0.32-6.519-0.479-9.728c-0.471-0.313-0.879-0.585-1.373-0.913c0.47-0.379,0.853-0.691,1.235-1.003
	c0-0.962,0-1.909,0-2.8c-0.528-0.207-0.966-0.379-1.706-0.669c0.769-0.462,1.259-0.757,1.704-1.027c0-1.43,0-2.777,0-4.061
	c-0.383-0.282-0.68-0.5-1.253-0.921c0.557-0.293,0.958-0.505,1.029-0.544c0.428-6.344,0.829-12.316,1.24-18.398
	c-0.361-0.127-0.751-0.265-1.134-0.4c-2.633,6.809-3.318,41.47-0.955,45.985C68.294,60.901,68.854,59.072,69.427,57.206z
	 M79.565,179.739c-1.839-3.422-4.462-6.046-8.365-7.007c-2.136-0.526-4.222,0.369-5.396,2.126c-1.163,1.748-1.783,3.876-1.984,6.042
	c-0.01,0.091,0.101,0.192,0.232,0.43c0.443,0.085,0.984,0.199,1.531,0.293c1.887,0.326,3.779,0.627,5.664,0.973
	c1.375,0.252,2.738,0.438,4.342,0.046c-0.607-0.814-1.064-1.428-1.571-2.109c0.301-0.243,0.543-0.438,0.897-0.723
	c0.995,0.891,1.938,1.737,2.827,2.535C79.031,181.974,79.191,180.986,79.565,179.739z M53.785,17.476
	c-0.147-0.072-0.294-0.145-0.441-0.217c-0.229,0.136-0.487,0.238-0.681,0.412c-1.156,1.047-1.59,2.469-1.87,3.918
	c-0.373,1.947-0.476,3.956-0.957,5.873c-1.314,5.236-1.012,10.523-0.268,15.734c0.783,5.487,2.114,10.898,3.24,16.335
	c0.317,1.529,1.153,2.904,1.835,3.453c-0.906-5.101-1.844-10.38-2.788-15.698c-0.41-0.183-0.887-0.396-1.598-0.713
	c0.679-0.375,1.099-0.605,1.606-0.886c-0.112-2.174-0.228-4.367-0.341-6.588c-0.321-0.095-0.534-0.14-0.732-0.223
	c-0.224-0.094-0.433-0.222-0.786-0.407c0.591-0.438,1.025-0.762,1.53-1.136C51.889,30.677,52.071,23.995,53.785,17.476z
	 M71.278,48.764c1.572-1.426,1.727-2.961,1.171-4.626c-0.395-0.233-0.788-0.465-1.307-0.771c0.523-0.44,0.896-0.751,1.206-1.012
	c-0.108-7.639-0.686-15.181,0.971-22.756c-0.53-0.381-1.09-0.783-1.71-1.23c-1.472,4.744-1.924,32.792-0.57,35.517
	c0.742-1.639,1.447-3.189,2.164-4.772C72.509,48.986,72.045,48.902,71.278,48.764z M47.456,34.115
	c0.654-4.191,1.303-8.358,1.954-12.525c-0.57,0.119-0.929,0.326-1.078,0.634c-0.704,1.48-1.499,2.941-1.991,4.495
	c-1.917,6.062-1.789,12.181-0.115,18.266c0.57,2.069,1.401,4.068,2.157,6.081c0.318,0.844,0.756,1.641,1.141,2.458
	c0.121-0.045,0.242-0.091,0.365-0.138c-0.689-4.002-1.375-8.002-2.062-11.995c-0.606-0.184-1.202-0.363-1.798-0.542
	c0.004-0.165,0.006-0.33,0.011-0.494c0.537-0.15,1.074-0.3,1.581-0.442c0-1.454,0-2.896,0-4.278
	c-0.713-0.23-1.258-0.408-1.804-0.584c0.002-0.136,0.004-0.272,0.006-0.408C46.32,34.482,46.818,34.321,47.456,34.115z
	 M117.365,87.968c0-1.519-0.295-2.85,0.086-3.948c0.367-1.065,1.43-1.889,2.173-2.8c-0.813-2.066-1.653-4.194-2.542-6.447
	c-0.713,0.249-1.274,0.442-1.974,0.685c0.43,0.769,0.761,1.412,1.14,2.023c0.921,1.483,0.871,2.979,0.143,4.514
	c-0.314,0.662-0.592,1.342-0.853,2.026c-0.649,1.714-0.028,3.157,0.989,4.661C116.895,88.37,117.181,88.125,117.365,87.968z
	 M74.334,46.187c0.127,0.024,0.252,0.048,0.378,0.072c0.186-0.546,0.457-1.08,0.538-1.642c0.104-0.722,0.092-1.466,0.063-2.198
	c-0.101-2.71-0.15-5.413,0.34-8.102c0.116-0.641,0.017-1.323,0.017-2.108c-0.725-0.089-1.352-0.167-2.092-0.259
	C73.512,36.826,73.575,41.527,74.334,46.187z M74.485,21.485c-0.808,3.302-0.819,6.452-0.808,9.7
	c0.795-0.15,1.391-0.261,2.037-0.382c0-0.63,0-1.181,0-1.699c-0.465-0.309-0.869-0.576-1.469-0.974
	c0.695-0.357,1.203-0.622,1.753-0.907C75.979,25.238,76.657,23.142,74.485,21.485z M37.676,179.11
	c-0.832,0.602-1.973,0.223-2.424,1.43c0.504,0.892,1.043,1.849,1.591,2.819c1.29-0.155,2.38-0.287,3.637-0.438
	c-0.044-0.843-0.079-1.54-0.12-2.316C39.46,180.104,38.638,179.646,37.676,179.11z M95.56,176.25
	c1.086-1.889,1.312-3.636,0.426-5.423c-1.482-1.17-1.57-1.207-2.765-1.203c0.324,2.14,0.646,4.279,0.976,6.454
	C94.724,176.145,95.094,176.191,95.56,176.25z M59.543,74.658c0.84,2.111,1.705,4.302,2.605,6.478
	c0.045,0.108,0.385,0.094,0.925,0.209c-0.733-2.578-1.399-4.927-2.075-7.303c-0.474,0.112-0.75,0.164-1.02,0.247
	C59.885,74.318,59.815,74.423,59.543,74.658z M60.07,70.504c-0.655,0.25-1.053,0.4-1.539,0.585c0.209,0.784,0.393,1.47,0.609,2.282
	c0.611-0.248,1.051-0.426,1.547-0.627C60.479,71.99,60.303,71.351,60.07,70.504z M76.837,40.321
	c0.522-1.063,0.909-3.182,0.714-3.755c-0.049-0.145-0.316-0.215-0.714-0.462C76.837,37.564,76.837,38.796,76.837,40.321z
	 M77.322,35.179c0.85-1.15,0.853-1.925,0.123-3.129C76.865,33.422,76.854,33.629,77.322,35.179z M77.419,30.746
	c0.074-0.001,0.15-0.002,0.225-0.003c0-0.389,0-0.778,0-1.167c-0.074,0.001-0.15,0.004-0.225,0.006
	C77.419,29.969,77.419,30.358,77.419,30.746z"/>
<path class="stroke" fill="#672a19"  fill-rule="evenodd" clip-rule="evenodd" d="M182.92,102.307c1.365,2.601,0.352,5.106,0.212,7.827
	c-2.983-0.104-5.733-0.201-8.552-0.3c-1.244,1.309-0.807,3.667-2.83,4.757c-2.658-2.745-5.312-5.484-8.147-8.413
	c0.592-0.603,1.136-1.215,1.741-1.764c1.84-1.669,3.702-3.316,5.562-4.965c0.935-0.829,1.941-1.537,3.271-1.873
	c1.151,1.488,0.254,3.364,1.107,5.127c1.148,0,2.425,0.048,3.696-0.014C180.218,102.629,181.449,102.456,182.92,102.307z"/>
<path class="stroke" fill="#672a19"  fill-rule="evenodd" clip-rule="evenodd" d="M101.371,174.443c1.357,0.049,2.731-0.194,3.208,1.428
	c0.454,1.549-0.565,2.402-1.56,3.225c-1.152,0.21-2.192,0.24-3.036-0.686c-1.061-1.165-0.937-2.37,0.366-3.256
	C100.672,174.932,100.994,174.705,101.371,174.443z M102.079,175.5c-0.442,0.267-0.854,0.515-1.211,0.73
	c-0.034,1.087,0.487,1.541,1.313,1.72C103.617,176.915,103.621,176.41,102.079,175.5z"/>
<path class="stroke" fill="#672a19"  fill-rule="evenodd" clip-rule="evenodd" d="M39.416,108.83c0.316-0.196,0.579-0.359,0.797-0.496
	c0.687,0.687,1.21,1.459,1.939,1.872c0.729,0.414,1.662,0.466,2.625,0.707C42.926,112.496,40.245,111.444,39.416,108.83z"/>
<path class="stroke" fill="#672a19"  fill-rule="evenodd" clip-rule="evenodd" d="M40.701,90.935c0.331-0.11,0.621-0.207,1.021-0.34
	c0.312,1.545,0.734,2.928,2.271,3.625C42.059,95.122,40.688,93.782,40.701,90.935z"/>
<path class="stroke" fill="#672a19"  fill-rule="evenodd" clip-rule="evenodd" d="M51.046,82.846c0.317-0.225,0.563-0.402,0.845-0.601
	c0.643,0.582,1.222,1.104,1.826,1.649c0.492,0,0.973,0,1.457,0c0.02,0.951-0.627,1.099-1.253,1.079
	C52.543,84.927,51.7,84.088,51.046,82.846z"/>
<path class="stroke" fill="#672a19"  fill-rule="evenodd" clip-rule="evenodd" d="M72.089,93.597c-1.308,1.414-3.133,1.274-4.684-0.511
	c0.194-0.216,0.397-0.442,0.46-0.513C69.369,92.938,70.7,93.26,72.089,93.597z"/>
<path class="stroke" fill="#672a19"  fill-rule="evenodd" clip-rule="evenodd" d="M52.822,94.174c0.182-0.112,0.317-0.22,0.472-0.286
	c0.151-0.064,0.32-0.084,0.404-0.104c0.949,0.683,1.836,1.32,2.755,1.983C54.497,96.415,53.761,96.124,52.822,94.174z"/>
<path class="stroke" fill="#672a19"  fill-rule="evenodd" clip-rule="evenodd" d="M57.937,116.306c-1.344,1.257-2.424,1.079-3.636-0.597
	C55.169,115.069,55.449,115.115,57.937,116.306z"/>
<path class="stroke" fill="#672a19"  fill-rule="evenodd" clip-rule="evenodd" d="M46.413,135.397c-1.483,0.266-2.45-0.284-3.19-1.311
	c-0.312-0.435-0.256-0.844,0.409-1.144C44.515,133.69,45.719,134.143,46.413,135.397z"/>
<path class="stroke" fill="#672a19"  fill-rule="evenodd" clip-rule="evenodd" d="M37.328,114.658c0.883,1.061,1.617,1.943,2.447,2.94
	c-1.083,0.358-1.834-0.076-2.416-0.757C36.891,116.297,36.549,115.622,37.328,114.658z"/>
<path class="stroke" fill="#672a19"  fill-rule="evenodd" clip-rule="evenodd" d="M74.988,112.672c0.127-0.201,0.262-0.421,0.432-0.695
	c1.025,0.385,1.984,0.744,3,1.125C77.247,114.2,76.257,114.059,74.988,112.672z"/>
<path class="stroke" fill="#672a19"  fill-rule="evenodd" clip-rule="evenodd" d="M74.896,102.738c0.152-0.2,0.309-0.406,0.481-0.633
	c0.938,0.287,1.799,0.552,2.777,0.852C76.837,104.104,76.289,104.045,74.896,102.738z"/>
<path class="stroke" fill="#672a19"  fill-rule="evenodd" clip-rule="evenodd" d="M54.061,106.759c-0.788,1.54-1.785,1.546-3.163,0.133
	C51.955,105.62,52.968,107.163,54.061,106.759z"/>
<path class="stroke" fill="#672a19"  fill-rule="evenodd" clip-rule="evenodd" d="M47.307,120.619c0.212-0.253,0.348-0.417,0.598-0.718
	c0.881,0.477,1.738,0.942,2.713,1.467C49.215,122.067,48.645,121.928,47.307,120.619z"/>
<path class="stroke" fill="#672a19"  fill-rule="evenodd" clip-rule="evenodd" d="M51.42,74.361c0.301-0.244,0.501-0.405,0.777-0.629
	c0.714,0.458,1.395,0.893,2.176,1.392C52.993,75.816,52.737,75.747,51.42,74.361z"/>
<path class="stroke" fill="#672a19"  fill-rule="evenodd" clip-rule="evenodd" d="M35.489,99.95c-1.334,0.453-1.975,0.32-2.437-0.513
	c-0.301-0.539-0.43-1.059,0.457-1.333C34.145,98.697,34.806,99.312,35.489,99.95z"/>
<path class="stroke" fill="#672a19"  fill-rule="evenodd" clip-rule="evenodd" d="M31.018,86.754c-1.279,0.666-2.039,0.298-2.773-0.653
	c0.267-0.283,0.504-0.538,0.777-0.83C29.684,85.763,30.256,86.188,31.018,86.754z"/>
<path class="stroke" fill="#672a19"  fill-rule="evenodd" clip-rule="evenodd" d="M39.728,71.307c1.29-0.855,1.805,0.448,2.766,0.567
	C41.36,72.891,40.855,72.779,39.728,71.307z"/>
<path class="stroke" fill="#672a19"  fill-rule="evenodd" clip-rule="evenodd" d="M37.863,76.813c0.33-0.206,0.553-0.342,0.803-0.496
	c0.642,0.419,1.236,0.807,1.859,1.214C39.227,78.313,38.953,78.248,37.863,76.813z"/>
<path class="stroke" fill="#672a19"  fill-rule="evenodd" clip-rule="evenodd" d="M41.75,63.227c0.982-0.865,1.525-0.175,2.289,0.214
	C43.131,64.265,42.491,64.072,41.75,63.227z"/>
<path class="stroke" fill="#672a19"  fill-rule="evenodd" clip-rule="evenodd" d="M63.68,115.883c-0.527,0.685-0.959,0.65-1.512,0.025
	c0.294-0.249,0.53-0.451,0.854-0.728C63.275,115.452,63.479,115.668,63.68,115.883z"/>
<path class="stroke" fill="#672a19"  fill-rule="evenodd" clip-rule="evenodd" d="M59.138,88.534c0.673-0.294,0.998-0.437,1.491-0.652
	c0.059,0.458,0.096,0.767,0.176,1.404C60.168,88.999,59.798,88.833,59.138,88.534z"/>
<path class="stroke" fill="#672a19"  fill-rule="evenodd" clip-rule="evenodd" d="M47.246,103.908c0.227,0.416,0.306,0.559,0.418,0.763
	c-0.34,0.589-0.731,0.766-1.466,0.15C46.55,104.515,46.846,104.259,47.246,103.908z"/>
<path class="stroke" fill="#672a19"  fill-rule="evenodd" clip-rule="evenodd" d="M48.527,88.693c0.573-0.734,1.021-0.887,1.57-0.137
	C49.668,89.262,49.207,89.312,48.527,88.693z"/>
<path class="stroke" fill="#672a19"  fill-rule="evenodd" clip-rule="evenodd" d="M55.562,121.257c-0.46,0.821-0.89,0.748-1.436,0.302
	C54.465,120.75,54.896,120.737,55.562,121.257z"/>
<path class="stroke" fill="#672a19"  fill-rule="evenodd" clip-rule="evenodd" d="M76.609,122.583c0.421,0.377,0.608,0.546,0.859,0.772
	c-0.187,0.234-0.29,0.482-0.455,0.54c-0.232,0.082-0.512,0.021-0.959,0.021C76.248,123.451,76.379,123.135,76.609,122.583z"/>
<path class="stroke" fill="#672a19"  fill-rule="evenodd" clip-rule="evenodd" d="M60.188,98.688c0.56-0.75,1.014-0.869,1.621-0.271
	C61.457,99.296,60.963,99.25,60.188,98.688z"/>
<path class="stroke" fill="#672a19"  fill-rule="evenodd" clip-rule="evenodd" d="M30.996,111.048c0.363-1.224,0.807-0.986,1.274-0.129
	C31.846,110.962,31.42,111.006,30.996,111.048z"/>
<path class="stroke" fill="#672a19"  fill-rule="evenodd" clip-rule="evenodd" d="M70.659,109.377c0.476-0.792,0.887-0.906,1.424-0.201
	C71.739,109.869,71.32,109.877,70.659,109.377z"/>
<path class="stroke" fill="#672a19"  fill-rule="evenodd" clip-rule="evenodd" d="M36.886,95.843c0.412,0.025,0.825,0.05,1.488,0.09
	c-0.663,0.817-1.084,1.008-1.552,0.38C36.844,96.156,36.864,96,36.886,95.843z"/>
<path class="stroke" fill="#672a19"  fill-rule="evenodd" clip-rule="evenodd" d="M63.286,107.374c-0.522,0.781-0.946,0.683-1.454,0.146
	C62.2,106.868,62.594,106.651,63.286,107.374z"/>
<path class="stroke" fill="#672a19"  fill-rule="evenodd" clip-rule="evenodd" d="M46.158,99.456c0.508-0.106,0.866-0.18,1.324-0.276
	C47.133,100.275,47.133,100.275,46.158,99.456z"/>
<path class="stroke" fill="#672a19"  fill-rule="evenodd" clip-rule="evenodd" d="M40.15,100.509c0.214,0.438,0.319,0.658,0.576,1.186
	c-0.641-0.063-1.019-0.101-1.775-0.176C39.513,101.046,39.745,100.852,40.15,100.509z"/>
<path class="stroke" fill="#672a19"  fill-rule="evenodd" clip-rule="evenodd" d="M58.039,122.56c0.342-0.219,0.684-0.438,1.134-0.726
	C59.219,122.946,59.219,122.946,58.039,122.56z"/>
<path class="stroke" fill="#672a19"  fill-rule="evenodd" clip-rule="evenodd" d="M35.84,120.998c-0.591,0.564-1.035,0.684-1.578,0.131
	C34.685,120.402,35.146,120.536,35.84,120.998z"/>
<path class="stroke" fill="#672a19"  fill-rule="evenodd" clip-rule="evenodd" d="M71.159,117.311c-0.213,0.072-0.421,0.184-0.64,0.205
	c-0.262,0.025-0.531-0.026-0.89-0.052C69.858,116.692,70.204,116.467,71.159,117.311z"/>
<path class="stroke" fill="#672a19"  fill-rule="evenodd" clip-rule="evenodd" d="M67.036,87.358c0.616-0.213,1.009-0.35,1.559-0.54
	C68.22,87.924,68.22,87.924,67.036,87.358z"/>
<path class="stroke" fill="#672a19"  fill-rule="evenodd" clip-rule="evenodd" d="M63.997,93.027c-0.712-0.046-1.066-0.069-1.817-0.118
	c0.541-0.462,0.814-0.698,1.216-1.041C63.602,92.263,63.715,92.479,63.997,93.027z"/>
<path class="stroke" fill="#672a19"  fill-rule="evenodd" clip-rule="evenodd" d="M74.23,131.964c-0.651,0.037-1.012,0.056-1.402,0.078
	c0.029-0.305,0-0.443,0.055-0.507C73.29,131.066,73.68,130.967,74.23,131.964z"/>
<path class="stroke" fill="#672a19"  fill-rule="evenodd" clip-rule="evenodd" d="M40.873,125.629c-0.762,0-1.139,0-1.527,0c0.013-0.253-0.022-0.396,0.033-0.465
	C39.842,124.601,40.207,124.829,40.873,125.629z"/>
<path class="stroke" fill="#672a19"  fill-rule="evenodd" clip-rule="evenodd" d="M48.705,131.829c0.589-0.116,0.965-0.191,1.609-0.317
	C49.633,132.467,49.633,132.467,48.705,131.829z"/>
<path class="stroke" fill="#672a19"  fill-rule="evenodd" clip-rule="evenodd" d="M76.882,119.725c-0.649,0.094-1.012,0.147-1.669,0.243
	c0.346-0.506,0.511-0.748,0.747-1.095C76.239,119.131,76.443,119.319,76.882,119.725z"/>
<path class="stroke" fill="#672a19"  fill-rule="evenodd" clip-rule="evenodd" d="M49.854,113.362c-0.381,0-0.762,0-1.364,0c0.519-0.835,0.897-0.947,1.352-0.529
	C49.845,113.009,49.851,113.186,49.854,113.362z"/>
<path class="stroke" fill="#672a19"  fill-rule="evenodd" clip-rule="evenodd" d="M45.037,117.604c-0.52,0.079-0.878,0.132-1.27,0.191
	c0.013-0.283-0.021-0.416,0.03-0.486C44.219,116.74,44.562,116.889,45.037,117.604z"/>
<path class="stroke" fill="#672a19"  fill-rule="evenodd" clip-rule="evenodd" d="M34.572,105.267c0.008,1.046-0.355,1.126-1.139,0.477
	C33.921,105.54,34.246,105.403,34.572,105.267z"/>
<path class="stroke" fill="#672a19"  fill-rule="evenodd" clip-rule="evenodd" d="M46.941,162.335c-1.179,1.354-2.452,0.637-3.814,0.204
	c-0.065,0.618-0.122,1.15-0.17,1.582c0.752,1.325,1.784,2.004,3.383,2.018c-0.754,1.446-1.868,1.008-2.995,0.956
	c-0.128,0.499-0.265,1.023-0.437,1.693c0.749,0.609,1.475,1.197,2.249,1.824c-0.807,1.19-1.714,0.345-2.657,0.165
	c-1.279,0.473-2.309,2.133-4.273,1.078c0.139-1.901,0.298-3.912,0.426-5.926c0.118-1.863,0.164-3.731,0.321-5.59
	c0.084-0.997,0.021-2.224,0.569-2.919c1.1-1.399,2.438-2.72,3.93-3.673c1.504-0.959,2.828-0.435,4.108,1.148
	c-0.468,0.735-0.974,1.526-1.479,2.321c0.542,1.481,1.977,1.328,3.132,1.678c-0.993,1.54-2.755,1.212-4.939-0.924
	c-0.359,0.293-0.729,0.595-1.03,0.843C43.501,160.927,43.501,160.927,46.941,162.335z"/>
<path class="stroke" fill="#672a19"  fill-rule="evenodd" clip-rule="evenodd" d="M80.955,156.299c-0.78,1.584-2.293,0.832-3.318,1.531
	c0.958,0.792,1.929,1.035,3.217,0.675c-0.584,1.571-1.709,1.493-2.811,1.442c0.389,1.182,1.123,1.538,3.557,1.71
	c0.383,0.294,0.869,0.667,1.391,1.069c0.045,0.657,0.088,1.266,0.122,1.762c-0.869,1.457-2.271,1.835-3.552,2.428
	c-1.952-0.424-2.962-1.914-3.738-3.475c-1.064-2.149-1.688-4.486-1.461-6.909c0.113-1.21,0.529-2.417,0.982-3.558
	c0.189-0.478,0.825-0.778,1.323-1.215c0.46,0.502,0.752,0.823,1.099,1.202c0.785,0.039,1.621,0.08,2.571,0.125
	c-0.349,1.665-1.901,0.888-2.8,1.585c0.129,0.41,0.268,0.866,0.424,1.369C78.944,156.125,79.819,156.201,80.955,156.299z"/>
<path class="stroke" fill="#672a19"  fill-rule="evenodd" clip-rule="evenodd" d="M51.482,168.36c0,0.969,0,2.007,0,3.158c0.375,0.214,0.849,0.483,1.391,0.791
	c-0.715,1.248-1.721,0.513-2.683,0.507c-0.222,0.319-0.468,0.673-0.849,1.223c0.895,0.33,1.651,0.61,2.461,0.908
	c-0.295,1.199-1.371,0.728-2.117,1.045c-0.039,0.419-0.082,0.851-0.113,1.183c-0.483,0.77-1.145,0.93-1.991,0.562
	c-1.471-0.64-2.294-2.241-2.015-4.113c0.3-1.998,1.263-3.617,3.014-4.695C49.365,168.444,50.064,167.587,51.482,168.36z"/>
<path class="stroke" fill="#672a19"  fill-rule="evenodd" clip-rule="evenodd" d="M62.99,163.204c-0.966,0.738-0.966,0.738-2.88,0.543
	c-0.115,0.333-0.239,0.687-0.334,0.96c0.372,1.025,1.096,1.328,2.039,1.239c-0.614,1.676-1.012,1.697-3.267,0.3
	c-1.428,0.292-2.852,0.581-4.195,0.855c-0.503-0.81-0.877-1.414-1.342-2.165c0.244-0.388,0.458-0.935,0.844-1.297
	c1.223-1.149,4.301-2.923,4.932-3.021C60.246,161.517,61.567,162.329,62.99,163.204z"/>
<path class="stroke" fill="#672a19"  fill-rule="evenodd" clip-rule="evenodd" d="M26.633,143.352c-0.815,0-1.695,0-2.6,0c0.646-2.518,1.232-3.067,3.36-3.17
	c0.236,0.173,0.599,0.317,0.765,0.583c0.865,1.394,2.28,1.765,3.729,2.109c1.164,0.277,2.314,0.587,3.264,1.665
	c0.144,0.425,0.341,1,0.543,1.59C33.217,146.493,29.069,146.255,26.633,143.352z"/>
<path class="stroke" fill="#672a19"  fill-rule="evenodd" clip-rule="evenodd" d="M34.21,159.447c-1.228,1.721-2.67,1.904-5.38,0.67
	c-0.27-0.695-0.606-1.563-0.965-2.492c0.447-0.288,0.75-0.483,1.112-0.717c0.725,0.864,0.653,2.315,1.906,2.507
	C31.918,159.573,32.994,159.447,34.21,159.447z"/>
<path class="stroke" fill="#672a19"  fill-rule="evenodd" clip-rule="evenodd" d="M58.582,150.909c0.426,2.064,1.801,3.162,3.956,3.417
	c-0.477,0.972-1.115,1.045-1.78,0.934c-1.426-0.239-2.481-1.032-3.106-2.335C57.198,151.982,57.389,151.576,58.582,150.909z"/>
<path class="stroke" fill="#672a19"  fill-rule="evenodd" clip-rule="evenodd" d="M44.328,149.869c-0.189,1.204-0.81,1.47-1.605,1.506
	c-1.421,0.065-3.034-0.893-4.048-2.433c0.087-0.165,0.161-0.383,0.299-0.544c0.14-0.159,0.344-0.261,0.6-0.444
	C40.918,149.056,42.1,150.535,44.328,149.869z"/>
<path class="stroke" fill="#672a19"  fill-rule="evenodd" clip-rule="evenodd" d="M67.568,163.003c0.191-0.253,0.381-0.505,0.505-0.668
	c1.24,0.131,2.365,0.25,3.619,0.383c0.217,0.454-0.157,0.775-0.632,1.015C70.128,164.201,68.85,163.937,67.568,163.003z"/>
<path class="stroke" fill="#672a19"  fill-rule="evenodd" clip-rule="evenodd" d="M29.645,146.771c0.994,0.772,1.823,1.414,2.707,2.099
	c-1.66,0.756-2.256,0.548-3.717-1.307C28.979,147.295,29.32,147.026,29.645,146.771z"/>
<path class="stroke" fill="#672a19"  fill-rule="evenodd" clip-rule="evenodd" d="M75.416,167.278c-1.204,0.64-2.418,0.434-3.798-0.198
	c0.188-0.396,0.356-0.752,0.56-1.176c1.161,0.298,2.211,0.567,3.26,0.836C75.431,166.919,75.424,167.098,75.416,167.278z"/>
<path class="stroke" fill="#672a19"  fill-rule="evenodd" clip-rule="evenodd" d="M37.435,154.974c-1.348,1.288-1.972,1.295-3.64,0.352
	c0.233-0.299,0.456-0.584,0.69-0.885C35.518,154.627,36.477,154.8,37.435,154.974z"/>
<path class="stroke" fill="#672a19"  fill-rule="evenodd" clip-rule="evenodd" d="M64.113,167.298c0.218-0.276,0.439-0.556,0.724-0.914
	c0.899,0.457,1.729,0.879,2.597,1.321C66.337,168.768,65.669,168.675,64.113,167.298z"/>
<path class="stroke" fill="#672a19"  fill-rule="evenodd" clip-rule="evenodd" d="M68.354,152.954c-1.223,1.095-1.532,1.096-3.322,0.091
	c0.174-0.302,0.346-0.603,0.549-0.957C66.496,152.374,67.328,152.633,68.354,152.954z"/>
<path class="stroke" fill="#672a19"  fill-rule="evenodd" clip-rule="evenodd" d="M33.648,139.443c0.236-0.206,0.518-0.448,0.893-0.771
	c0.399,0.598,0.76,1.137,1.207,1.807c-0.126,0.065-0.525,0.446-0.904,0.428C34.082,140.871,33.7,140.308,33.648,139.443z"/>
<path class="stroke" fill="#672a19"  fill-rule="evenodd" clip-rule="evenodd" d="M59.023,170.4c-1.185,1.085-1.415,1.064-2.738-0.213
	c0.252-0.298,0.51-0.603,0.802-0.946C57.761,169.643,58.318,169.978,59.023,170.4z"/>
<path class="stroke" fill="#672a19"  fill-rule="evenodd" clip-rule="evenodd" d="M71.313,158.812c-0.879,1.111-1.231,1.158-2.679,0.449
	C69.253,158.268,69.535,158.213,71.313,158.812z"/>
<path class="stroke" fill="#672a19"  fill-rule="evenodd" clip-rule="evenodd" d="M36.484,162.908c-0.425,0.939-0.893,1.045-1.54,0.426
	C35.437,162.244,35.437,162.244,36.484,162.908z"/>
<path class="stroke" fill="#672a19"  fill-rule="evenodd" clip-rule="evenodd" d="M37.598,142.582c0.683-0.844,0.683-0.844,1.496-0.705
	C38.99,142.79,38.48,142.871,37.598,142.582z"/>
<path class="stroke" fill="#672a19"  fill-rule="evenodd" clip-rule="evenodd" d="M38.48,144.961c0.581-0.827,1.009-1.081,1.658-0.437
	C39.794,145.386,39.347,145.565,38.48,144.961z"/>
<path class="stroke" fill="#672a19"  fill-rule="evenodd" clip-rule="evenodd" d="M30.901,165.209c-0.446,0.159-0.892,0.318-1.331,0.474
	c-0.359-0.767-0.02-1.099,0.42-1.197c0.27-0.06,0.609,0.204,0.919,0.322C30.906,164.942,30.904,165.076,30.901,165.209z"/>
<path class="stroke" fill="#672a19"  fill-rule="evenodd" clip-rule="evenodd" d="M53.73,153.651c-0.604,0.328-0.993,0.535-1.377,0.744
	c-0.092-0.105-0.185-0.21-0.275-0.316c0.189-0.332,0.378-0.662,0.621-1.088C53.027,153.201,53.235,153.334,53.73,153.651z"/>
<path class="stroke" fill="#672a19"  fill-rule="evenodd" clip-rule="evenodd" d="M29.159,139.699c0.313-0.387,0.445-0.626,0.645-0.774
	c0.154-0.113,0.394-0.11,0.602-0.161C30.573,139.84,30.573,139.84,29.159,139.699z"/>
<path class="stroke" fill="#672a19"  fill-rule="evenodd" clip-rule="evenodd" d="M57.088,142.372c-0.084,1.026-0.554,1.1-1.253,0.929
	C56.127,142.588,56.127,142.588,57.088,142.372z"/>
<path class="stroke" fill="#672a19"  fill-rule="evenodd" clip-rule="evenodd" d="M54.449,145.702c0.328-0.311,0.654-0.623,1.105-1.053
	c0.154,1.104,0.154,1.104-0.811,1.366C54.646,145.911,54.547,145.806,54.449,145.702z"/>
<path class="stroke" fill="#672a19"  fill-rule="evenodd" clip-rule="evenodd" d="M73.307,141.75c-0.044,0.773-0.059,1.031-0.082,1.471
	c-0.486-0.093-0.864-0.165-1.24-0.237c-0.031-0.129-0.062-0.257-0.093-0.386C72.248,142.384,72.604,142.169,73.307,141.75z"/>
<path class="stroke" fill="#672a19"  fill-rule="evenodd" clip-rule="evenodd" d="M41.127,174.19c0.137,0.131,0.29,0.278,0.604,0.574
	c-0.487,0.334-0.8,0.55-1.168,0.804C40.07,174.75,40.347,174.432,41.127,174.19z"/>
<path class="stroke" fill="#672a19"  fill-rule="evenodd" clip-rule="evenodd" d="M50.846,144.562c0.388-0.56,0.731-0.963,1.43-0.49
	C51.919,144.815,51.919,144.815,50.846,144.562z"/>
<path class="stroke" fill="#672a19"  fill-rule="evenodd" clip-rule="evenodd" d="M80.018,137.172c0.16-0.941,0.516-1.212,1.331-0.999
	C81.285,137.008,80.88,137.214,80.018,137.172z"/>
<path class="stroke" fill="#672a19"  fill-rule="evenodd" clip-rule="evenodd" d="M27.944,151.953c-0.111,0.932-0.521,1.088-1.263,0.869
	C26.739,151.867,27.21,151.814,27.944,151.953z"/>
<path class="stroke" fill="#672a19"  fill-rule="evenodd" clip-rule="evenodd" d="M59.315,144.459c-0.488-0.108-0.821-0.183-1.524-0.338
	c0.568-0.486,0.886-0.757,1.442-1.232C59.271,143.604,59.289,143.95,59.315,144.459z"/>
<path class="stroke" fill="#672a19"  fill-rule="evenodd" clip-rule="evenodd" d="M42.721,143.641c0.158-0.717,0.516-0.941,1.234-0.723
	C43.896,143.884,43.395,143.841,42.721,143.641z"/>
<path class="stroke" fill="#672a19"  fill-rule="evenodd" clip-rule="evenodd" d="M53.141,157.293c-0.288,0.244-0.578,0.486-0.854,0.718
	c-0.182-0.166-0.323-0.239-0.32-0.304c0.025-0.677,0.363-0.915,0.922-0.804C52.974,157.033,53.057,157.164,53.141,157.293z"/>
<path class="stroke" fill="#672a19"  fill-rule="evenodd" clip-rule="evenodd" d="M65.334,157.114c-0.287,0.229-0.576,0.458-0.986,0.786
	c-0.321-1.074,0.047-1.244,0.658-1.185C65.116,156.849,65.225,156.98,65.334,157.114z"/>
<path class="stroke" fill="#672a19"  fill-rule="evenodd" clip-rule="evenodd" d="M30.859,154.581c0.309-0.188,0.617-0.377,1.029-0.628
	C31.851,154.938,31.851,154.938,30.859,154.581z"/>
<path class="stroke" fill="#672a19"  fill-rule="evenodd" clip-rule="evenodd" d="M34.221,165.693c0.331-0.188,0.664-0.376,0.981-0.556
	c0.156,0.219,0.276,0.309,0.271,0.389c-0.071,0.872-0.587,0.718-1.087,0.586C34.331,165.973,34.275,165.833,34.221,165.693z"/>
<path class="stroke" fill="#672a19"  fill-rule="evenodd" clip-rule="evenodd" d="M76.094,137.909c0.348-0.204,0.695-0.407,1.197-0.7
	C77.136,138.194,77.136,138.194,76.094,137.909z"/>
<path class="stroke" fill="#672a19"  fill-rule="evenodd" clip-rule="evenodd" d="M65.984,145.661c-0.633,0.258-1.005,0.409-1.584,0.645
	C64.613,145.176,64.985,145.027,65.984,145.661z"/>
<path class="stroke" fill="#672a19"  fill-rule="evenodd" clip-rule="evenodd" d="M67.832,146.041c0.125-0.826,0.443-1.087,1.19-0.88
	C69.011,145.897,68.662,146.117,67.832,146.041z"/>
<path class="stroke" fill="#672a19"  fill-rule="evenodd" clip-rule="evenodd" d="M63.113,144.452c-0.369,0.147-0.739,0.293-1.363,0.542
	c0.257-0.987,0.543-1.323,1.203-1.006C63.007,144.142,63.06,144.296,63.113,144.452z"/>
<path class="stroke" fill="#672a19"  fill-rule="evenodd" clip-rule="evenodd" d="M38.211,173.77c-0.354,0.118-0.709,0.237-1.197,0.4
	C37.363,173.225,37.363,173.225,38.211,173.77z"/>
<path class="stroke" fill="#672a19"  fill-rule="evenodd" clip-rule="evenodd" d="M78.674,135.133c-0.226,0.356-0.297,0.612-0.451,0.683
	c-0.217,0.097-0.494,0.057-0.809,0.079C77.488,135.133,77.768,134.882,78.674,135.133z"/>
<path class="stroke" fill="#672a19"  fill-rule="evenodd" clip-rule="evenodd" d="M79.417,74.104c0.512-1.081,1.221-0.685,2.032-0.796
	C81.004,74.579,80.329,74.467,79.417,74.104z"/>
<path class="stroke" fill="#672a19"  fill-rule="evenodd" clip-rule="evenodd" d="M22.299,176.202c0.53-0.315,0.926-0.728,1.155-0.65
	c0.499,0.168,0.915,0.588,1.47,0.98C23.811,177.51,23.248,176.783,22.299,176.202z"/>
<path class="stroke" fill="#672a19"  fill-rule="evenodd" clip-rule="evenodd" d="M70.817,179.881c-0.2,0.163-0.405,0.327-0.593,0.479
	c-1.152-0.445-2.232-0.863-3.321-1.284c0.12-0.792,0.573-1.085,1.209-0.982C69.23,178.275,70.366,178.492,70.817,179.881z"/>
<path class="stroke" fill="#672a19"  fill-rule="evenodd" clip-rule="evenodd" d="M67.969,175.283c0.719-0.857,2.05-1.089,2.838-0.52
	c0.6,0.432,1.077,0.976,0.435,1.742C70.146,176.097,69.133,175.717,67.969,175.283z"/>
<path class="stroke" fill="#672a19"  fill-rule="evenodd" clip-rule="evenodd" d="M75.405,178.982c0.655-1.381,1.423-1.372,3.043-0.031
	c-0.028,0.14-0.025,0.322-0.106,0.451c-0.08,0.133-0.245,0.216-0.427,0.366C77.093,179.511,76.256,179.249,75.405,178.982z"/>
<path fill-rule="evenodd" clip-rule="evenodd" fill="#ffc524" class="fill" d="M132.41,137.953c-0.202,1.099,0.459,1.341,1.035,1.496
	c2.019,0.547,4.053,1.027,6.085,1.521c0.271,0.066,0.557,0.067,1.047,0.122c-0.048,0.67-0.093,1.311-0.146,2.007
	c-1.607,0.5-3.108,0.052-4.598-0.116c-0.951-0.108-1.878-0.431-2.818-0.636c-0.533-0.115-1.075-0.188-1.598-0.278
	c-0.328,1,0.354,1.17,0.846,1.289c1.704,0.413,3.424,0.77,5.146,1.086c0.883,0.161,1.788,0.192,2.819,0.295
	c-0.05,0.664-0.098,1.26-0.15,1.965c-3.009,0.41-5.85-0.285-8.674-0.841c-0.273,1.1,0.386,1.29,0.996,1.398
	c1.837,0.323,3.682,0.614,5.531,0.863c0.649,0.087,1.323,0.014,2.174,0.014c-0.116,1.003-0.204,1.755-0.3,2.577
	c-3.047,0.066-5.901-0.204-8.678-0.949c-0.483,0.484-0.411,0.917,0.103,1.126c0.728,0.297,1.496,0.555,2.27,0.666
	c1.401,0.201,2.822,0.279,4.234,0.413c0.611,0.057,1.22,0.125,1.927,0.199c0,0.722,0,1.321,0,2.113
	c-3.086,0.256-6.075-0.31-9.126-0.851c-0.483,0.982,0.167,1.274,0.836,1.418c0.995,0.215,2.012,0.354,3.026,0.463
	c1.689,0.182,3.383,0.314,5.289,0.487c0.051,0.824,0.102,1.68,0.161,2.667c-3.249,0.252-6.237-0.388-9.317-0.764
	c-0.125,1.065,0.497,1.282,1.188,1.361c2.195,0.251,4.395,0.476,6.595,0.697c0.386,0.038,0.781,0.005,1.402,0.005
	c-0.061,0.853-0.112,1.597-0.171,2.445c-3.28,0.519-6.361-0.396-9.496-0.75c-0.209,1.037,0.423,1.254,1.018,1.359
	c1.507,0.264,3.02,0.495,4.54,0.659c1.234,0.132,2.481,0.147,3.936,0.227c-0.042,0.745-0.081,1.437-0.127,2.235
	c-3.445,0.321-6.661,0.123-9.635-1.798c-0.519,1.064,0.114,1.485,0.741,1.852c1.511,0.885,3.211,1.091,4.908,1.216
	c1.174,0.087,2.361,0.017,3.767,0.017c-0.079,0.915-0.133,1.548-0.202,2.354c-3.457,0.17-6.634-0.252-9.547-1.994
	c-0.566,0.576-0.26,0.996,0.13,1.338c0.918,0.809,2.007,1.267,3.221,1.419c1.956,0.245,3.91,0.482,6.037,0.744
	c-0.145,0.705-0.272,1.336-0.426,2.084c-3.228-0.131-6.249-0.588-9.361-2.459c0.214,0.773,0.198,1.26,0.412,1.401
	c0.744,0.493,1.522,1.027,2.367,1.25c1.962,0.518,3.971,0.864,6.181,1.324c-0.12,0.558-0.252,1.171-0.395,1.83
	c-5.365-1.463-10.58-2.886-15.859-4.326c0-1.31-0.114-2.732,0.022-4.129c0.296-2.99,0.76-5.963,1.086-8.952
	c0.222-2.025,0.378-4.062,0.474-6.098c0.178-3.739,0.277-7.483,0.432-11.224c0.065-1.585,0.262-3.167,0.276-4.75
	c0.045-4.764,0.028-9.527,0.035-14.292c0.002-0.451,0-0.903,0-1.395c0.867-0.364,1.751-0.612,2.495-1.081
	c1.091-0.689,2.174-1.442,3.086-2.344c0.783-0.774,1.531-1.223,2.666-1.185c2.209,0.075,4.423,0.022,6.728,0.022
	c0.222,0.343,0.454,0.702,0.829,1.279c2.037-0.246,4.162-0.5,6.518-0.785c0.164,0.413,0.376,0.947,0.626,1.575
	c-2.476,1.272-5.114,0.692-7.585,1.206c0.037,0.99,0.587,1.19,1.26,1.142c1.693-0.12,3.386-0.277,5.076-0.435
	c0.493-0.046,0.982-0.144,1.594-0.236c0.209,0.756,0.388,1.393,0.62,2.227c-2.406,1.203-4.944,1.058-7.4,1.071
	c-0.25,0.943,0.265,1.207,0.874,1.217c1.24,0.022,2.49,0,3.724-0.105c0.955-0.082,1.893-0.32,3.044-0.524
	c0.043,0.775,0.084,1.477,0.131,2.302c-2.859,1-5.606,0.574-8.487-0.165c-0.126,1.02,0.455,1.444,1.185,1.564
	c1.279,0.212,2.58,0.322,3.876,0.405c0.952,0.062,1.91,0.012,3.112,0.012c-0.291,0.957-0.539,1.781-0.812,2.68
	c-2.878-0.031-5.468-0.749-8.123-1.788c-0.159,1.059,0.481,1.482,1.133,1.708c1.227,0.425,2.497,0.722,3.755,1.044
	c0.656,0.167,1.327,0.273,2.253,0.461c-0.432,0.7-0.786,1.279-1.238,2.014c-2.535-0.49-5.003-0.968-7.542-1.459
	c-0.34,0.706,0.197,1.086,0.8,1.268c1.351,0.408,2.728,0.735,4.099,1.064c0.484,0.116,0.989,0.141,1.738,0.243
	c-0.4,0.533-0.68,0.906-0.96,1.283c-1.575-0.246-3.024-0.504-4.482-0.691c-1.433-0.186-2.696-1.189-4.234-0.961
	c-0.265,0.853,0.239,1.079,0.82,1.233c1.529,0.405,3.057,0.817,4.594,1.19c0.6,0.146,1.221,0.197,1.998,0.316
	c-0.197,0.543-0.359,0.991-0.523,1.446c-0.295,0.075-0.521,0.208-0.712,0.17c-2.164-0.43-4.323-0.881-6.479-1.34
	C133.562,138.278,133.001,138.108,132.41,137.953z"/>
<path fill-rule="evenodd" clip-rule="evenodd" fill="#ffc524" class="fill" d="M131.845,114.761c0.278-1.805,0.596-2.454,1.796-3.698
	c2.079,0.349,4.154,1.453,6.409,0.529c0.393-0.49,0.779-0.974,0.972-1.215c1.488-4.354,2.699-8.479,4.238-12.507
	c-0.139-0.086-0.275-0.173-0.414-0.258c-0.327,0.11-0.656,0.221-1.041,0.352c-0.559-0.39-1.151-0.803-1.802-1.257
	c-0.296,0.268-0.522,0.473-0.861,0.781c0.688,0.648,1.294,1.219,2.004,1.889c-0.235,0.417-0.464,0.827-0.675,1.198
	c-1.428-0.264-1.706-2.278-3.48-1.95c0.18,1.688,1.736,2.241,2.524,3.557c-0.267,0.374-0.576,0.806-1.028,1.44
	c-0.975-0.963-1.839-1.818-2.797-2.765c-0.271,0.139-0.58,0.296-1.139,0.583c1.03,1.125,1.93,2.106,2.898,3.164
	c-0.469,0.442-0.954,0.899-1.575,1.484c-0.927-0.866-1.817-1.699-2.771-2.592c-0.211,0.102-0.445,0.214-0.711,0.342
	c0.275,1.475,1.518,2.129,2.467,3.227c-0.467,0.491-0.913,0.958-1.346,1.41c-1.449-0.273-2.462-1.112-3.421-1.976
	c-2.079-1.876-3.763-4.069-5.104-6.537c-0.835-1.538-1.785-3.013-2.759-4.643c0.69-0.386,1.305-0.746,1.935-1.076
	c4.612-2.418,8.456-5.859,12.282-9.308c1.369-1.235,2.885-1.964,4.685-2.175c1.069-0.125,2.142-0.299,3.216-0.322
	c3.008-0.062,5.428,1.002,6.859,3.808c0.098,0.192,0.126,0.42,0.201,0.68c-0.602,0.281-1.16,0.541-1.716,0.8
	c0.009,0.137,0.019,0.275,0.028,0.414c0.664,0.192,1.334,0.384,2.199,0.633c0.095,0.396,0.223,0.918,0.351,1.44
	c-1.042,0.702-2.281-1.047-3.191,0.506c0.873,0.974,2.312,0.738,3.427,1.652c0.021,0.406,0.055,0.996,0.109,1.938
	c-1.095-0.418-1.909-0.734-2.728-1.042c-0.78-0.294-0.78-0.292-1.657,0.607c1.395,0.615,2.711,1.195,4.197,1.852
	c-0.187,0.803-0.37,1.595-0.611,2.641c-1.368-0.421-2.582-0.795-3.863-1.189c-0.172,0.233-0.327,0.441-0.65,0.875
	c1.347,0.591,2.553,1.121,3.888,1.707c-0.203,0.729-0.391,1.413-0.579,2.094c-1.53,0.292-2.893-1.322-4.508-0.212
	c1.021,1.36,2.685,0.891,3.83,1.946c-0.242,0.664-0.52,1.424-0.785,2.142c-1.275-0.205-2.357-0.401-3.449-0.524
	c-0.122-0.015-0.291,0.388-0.522,0.717c1.108,0.433,2.089,0.815,3.231,1.262c-0.184,0.571-0.345,1.076-0.5,1.559
	c-1.32,0.355-2.623-1.228-4.027,0.321c1.182,0.485,2.188,0.899,3.333,1.369c-0.179,0.565-0.34,1.077-0.466,1.473
	c-1.462,0.782-2.79-1.347-4.279,0.06c1.055,1.104,2.491,1.027,3.565,1.702C146.263,114.593,136.149,115.287,131.845,114.761z
	 M144.168,93.477c-0.398,0.527-0.579,0.771-0.796,1.057c0.731,0.615,1.288,1.341,2.631,0.92
	C145.352,94.753,144.852,94.213,144.168,93.477z"/>
<path fill-rule="evenodd" clip-rule="evenodd" fill="#ffc524" class="fill" d="M98.951,84.902c1.094,0.259,1.631,1.712,3.171,0.941
	c-0.345-0.443-0.643-0.801-0.911-1.179c-0.453-0.639-0.998-1.244-1.307-1.95c-0.596-1.356-0.059-2.12,1.594-2.405
	c0.883,0.569,1.473,2.213,3.122,0.97c-1.153-1.081-2.202-2.185-2.137-4.07c0.376-0.291,0.833-0.646,1.331-1.032
	c1.013,0.893,1.896,1.672,2.843,2.509c0.366-0.223,0.673-0.413,1.025-0.627c-0.573-1.421-2.841-1.948-1.982-3.967
	c0.974-0.453,1.769-0.276,2.618,0.231c1.108,0.661,2.244,1.34,3.458,1.738c2.825,0.923,3.65,2.542,2.631,5.545
	c-0.892,2.624-1.104,5.186-0.389,7.848c0.479,1.794,1.463,3.157,3.157,4.002c1.573,0.782,3.112,1.628,4.845,2.538
	c0.036,4.119,2.044,7.914,3.048,12.216c-2.48,0.242-4.812,0.688-7.174,0.538c-1.436-0.091-2.52-1.079-3.343-2.166
	c-2.018-2.664-3.903-5.426-5.896-8.11c-1.213-1.635-2.588-3.151-3.768-4.808c-1.266-1.773-2.932-2.856-4.926-3.666
	C97.522,89.007,97.073,86.5,98.951,84.902z"/>
<path fill-rule="evenodd" clip-rule="evenodd" fill="#ffc524" class="fill" d="M128.43,90.568c-0.042-0.823-0.066-1.295-0.081-1.567
	c0.981-1.427,2.954-1.329,3.473-3.407c-0.083-1.062-0.196-2.521-0.312-3.987c0.884-0.817,1.976-1.438,2.448-2.371
	c0.466-0.921,0.306-2.16,0.432-3.382c0.806-0.564,1.771-1.238,2.694-1.886c0-0.96,0-1.775,0-2.771
	c-0.536,0.184-0.871,0.299-1.188,0.408c-0.059,0.654-0.106,1.207-0.168,1.945c-0.957,0.565-1.96,1.161-3.092,1.832
	c0.065,0.593,0.064,1.211,0.214,1.789c0.3,1.161-0.076,1.977-1.064,2.6c-0.521,0.328-0.986,0.741-1.639,1.239
	c0.087,1.031,0.129,2.096,0.278,3.145c0.226,1.611,0.119,1.897-1.305,2.752c-0.243,0.146-0.49,0.284-0.734,0.432
	c-1.442,0.878-1.743,1.568-1.412,3.258c0.044,0.212,0.126,0.417,0.258,0.851c-1.384,0.66-2.734,1.303-4.247,2.025
	c-0.396-0.771-0.69-1.343-0.99-1.927c0.867-1.499,2.876-1.981,3.109-3.888c-0.215-0.812-0.433-1.624-0.697-2.619
	c0.717-0.588,1.442-1.196,2.185-1.788c0.846-0.676,1.445-1.481,1.223-2.626c-0.335-1.728,0.595-2.818,1.853-3.704
	c1.187-0.835,2.034-1.723,1.742-3.366c-0.174-0.966,0.339-1.409,1.437-1.779c0.675-0.227,1.326-0.513,1.938-0.751
	c0-0.92,0-1.601,0-2.262c-1.536-0.252-0.919,1.114-1.438,1.535c-3.189,1.082-3.505,1.504-3.389,4.642
	c-0.912,1.65-3.333,2.168-3.743,4.607c0.061,0.314,0.17,0.864,0.274,1.402c-0.406,1.833-2.273,2.328-3.443,3.924
	c0.105,0.715,0.249,1.687,0.452,3.049c-0.219,0.291-0.535,1.043-1.101,1.396c-1.46,0.91-2.024,2.065-1.405,3.745
	c-1.614-0.342-2.656-1.444-2.649-2.623c0.013-1.528,1.526-2.003,2.233-3.108c-0.478-0.756-0.918-1.457-1.312-2.083
	c0.521-1.964,2.854-1.714,3.665-3.329c-0.25-0.542-0.505-1.1-0.895-1.952c0.274-0.491,0.482-1.384,1.042-1.762
	c1.583-1.072,2.51-2.297,1.766-4.148c0.871-1.199,2.161-0.937,3.373-1.416c-0.34-0.685-0.648-1.302-0.951-1.909
	c0.517-1.933,2.501-0.91,3.555-1.725c-0.219-0.915-0.417-1.751-0.579-2.438c1.357-1.618,3.085,0.04,4.607-0.887
	c-0.644-0.751-1.163-1.356-1.851-2.158c0.64-0.101,1.07-0.273,1.465-0.212c1.895,0.293,3.783,0.643,5.668,0.994
	c0.5,0.092,0.977,0.312,1.477,0.391c1.304,0.203,2.479,0.001,3.367-1.119c0.274-0.344,0.668-0.592,1.034-0.908
	c0.638,0.146,1.233,0.283,1.966,0.452c0.65-0.508,1.35-1.056,2.042-1.601c1.462,0.908,1.517,1.654,0.19,3.746
	c0.235,1.092,0.496,2.289,0.798,3.684c-0.585,0.51-1.22,1.062-1.916,1.67c0.243,0.819,0.478,1.61,0.702,2.369
	c-0.668,0.793-1.271,1.509-1.842,2.189c0.23,0.657,0.4,1.132,0.612,1.736c-0.482,0.908-1.007,1.89-1.647,3.094
	c-0.677,0.048-1.561,0.113-2.579,0.188c-0.401-0.707-0.772-1.358-1.161-2.045c0.724-0.763,1.303-1.372,1.943-2.043
	c0-1.053,0-2.169,0-3.557c1.324-1.182,2.712-2.646,1.189-5.01c-0.355,0.113-0.733,0.234-1.123,0.357
	c0.16,0.853,0.293,1.561,0.443,2.37c-1.891,1.278-2.693,2.922-1.551,4.985c-0.86,1.041-1.607,1.942-2.374,2.867
	c0.325,0.92,0.601,1.705,0.87,2.472c-2.201,1.406-4.372,2.794-6.574,4.201c-0.539-0.716-0.229-1.269,0.268-1.513
	c2.562-1.256,2.81-3.341,2.116-5.662c2.148-2.717,2.148-2.717,2.462-6.139c2.494-1.979,2.641-2.38,1.426-4.182
	c-0.309,0.111-0.646,0.231-1.043,0.372c0.109,0.581,0.205,1.067,0.331,1.724c-0.43,0.303-0.876,0.618-1.326,0.929
	c-0.583,0.404-1.178,0.914-1,1.65c0.531,2.202-0.335,3.75-2.229,4.938c0.072,0.764,0.092,1.495,0.217,2.208
	c0.266,1.524-0.064,2.277-1.427,3.076c-0.29,0.17-0.594,0.335-0.847,0.553c-0.211,0.179-0.355,0.432-0.559,0.69
	c0,0.944,0,1.901,0,3.099C132.564,87.764,130.663,89.055,128.43,90.568z"/>
<path fill-rule="evenodd" clip-rule="evenodd" fill="#ffc524" class="fill" d="M163.524,69.676c-0.938-1.254-0.429-2.309-0.355-3.321
	c0.072-0.994,0.209-1.982,0.326-3.057c-1.407-0.08-1.312,0.97-1.493,1.685c-0.199,0.795-0.245,1.627-0.404,2.781
	c-0.643-0.673-1.021-1.069-1.33-1.392c-0.183-1.992,1.08-3.771,0.404-6.012c-1.498,1.242-1.033,2.914-1.76,4.312
	c-0.374-0.352-0.709-0.667-0.984-0.926c0.322-1.611,1.893-2.629,1.654-4.435c-1.597,0.467-1.631,2.009-2.697,3.035
	c-0.443-0.691-0.836-1.304-1.214-1.887c0.725-0.978,2.101-1.247,2.169-2.692c-1.442-0.373-1.824,1.182-3.029,1.551
	c-0.283-0.336-0.622-0.737-0.893-1.059c0.269-1.17,1.992-0.714,1.906-2.118c-1.155-0.562-1.852,0.42-2.812,0.916
	c-0.393-0.582-0.752-1.116-1.124-1.669c0.715-0.534,1.301-0.971,1.887-1.409c-0.068-0.146-0.134-0.292-0.201-0.438
	c-0.787,0.16-1.576,0.319-2.499,0.505c-0.116-0.143-0.317-0.39-0.581-0.712c0.507-0.358,0.95-0.67,1.458-1.027
	c-0.57-1.306-1.478-0.1-2.241-0.378c-0.138-0.268-0.312-0.607-0.488-0.954c0.504-0.406,0.958-0.769,1.412-1.133
	c-0.023-0.109-0.05-0.218-0.075-0.326c-0.64-0.035-1.278-0.07-2.142-0.116c-0.249-0.443-0.566-1.004-0.814-1.441
	c0.241-0.84,1.5-0.558,1.213-1.709c-0.512,0.053-1.034,0.107-1.695,0.175c-0.189-0.323-0.404-0.683-0.623-1.058
	c0.367-0.391,0.663-0.704,1.185-1.261c-0.742-0.147-1.221-0.243-1.812-0.36c0.237-0.489,0.462-0.953,0.77-1.586
	c-0.591-0.032-1.006-0.054-1.515-0.081c-0.154-0.292-0.334-0.629-0.541-1.013c0.256-0.446,0.499-0.87,0.794-1.385
	c-0.466-0.13-0.824-0.229-1.237-0.346c-0.079-0.307-0.158-0.627-0.277-1.103c0.484-0.413,0.997-0.849,1.643-1.397
	c0.246,0.369,0.542,0.749,0.769,1.165c0.895,1.642,1.732,3.319,2.663,4.94c0.912,1.587,1.931,3.1,3.926,3.391
	c2.119-1.172,4.2-2.302,6.263-3.467c2.139-1.208,4.578-1.106,6.742-1.809c2.585,1.936,3.539,4.769,5.1,7.278
	c-0.361-0.159-0.725-0.319-1.142-0.502c-0.207,0.157-0.422,0.32-0.65,0.493c0.076,0.213,0.087,0.411,0.19,0.512
	c1.656,1.621,3.275,3.285,5.008,4.82c0.999,0.883,1.604,1.805,1.412,3.459c-3.065-2.364-5.376-5.133-7.79-7.979
	c-0.285,0.082-0.62,0.179-0.886,0.256c-0.218,0.944,2.87,4.515,7.63,8.979c-0.231,0.257-0.465,0.515-0.781,0.867
	c-3.576-2.831-6.819-5.855-9.578-9.598c-0.404,0.482-0.629,0.75-0.831,0.989c2.485,3.787,5.753,6.68,9.336,9.851
	c-0.382,0.27-0.63,0.448-0.993,0.705c-4.109-2.898-7.455-6.393-10.632-10.236c-0.346,0.365-0.556,0.585-0.825,0.868
	c2.645,4.213,6.449,7.19,10.124,10.439c-0.146,0.312-0.304,0.642-0.542,1.148c-4.82-3.36-8.394-7.781-11.984-12.187
	c-0.953,0.64-0.506,1.201-0.141,1.674c1.174,1.527,2.295,3.11,3.607,4.511c2.356,2.515,4.84,4.912,7.48,7.568
	c0.092,0.426,0.26,1.193,0.448,2.056c-1.592,1.793-0.319,4.061-0.775,6.158c-0.875-0.043-0.972-0.664-0.968-1.288
	c0.008-1.531,0.062-3.061,0.091-4.591c0.011-0.462,0.002-0.925,0.002-1.568c-1.609,0.521-1.316,1.691-1.437,2.599
	c-0.13,0.992-0.107,2.003-0.156,3.105c-0.867-0.191-1.137-0.703-1.086-1.372c0.087-1.125,0.218-2.248,0.385-3.364
	c0.105-0.697,0.309-1.378,0.499-2.206c-1.705,0.049-1.614,1.265-1.861,2.139C163.868,67.542,163.752,68.481,163.524,69.676z"/>
<path fill-rule="evenodd" clip-rule="evenodd" fill="#ffc524" class="fill" d="M103.287,58.302c-1.863-0.711-1.882-1.361-0.271-5.72
	c-1.317-0.146-1.624,0.872-1.96,1.71c-0.326,0.812-0.467,1.698-0.771,2.865c-0.605-0.646-1.009-1.074-1.532-1.632
	c0.498-1.375,0.994-2.745,1.512-4.174c-0.426-0.352-0.805-0.194-1.055,0.245c-0.395,0.686-0.719,1.41-1.085,2.113
	c-0.195,0.377-0.409,0.743-0.73,1.321c-0.234-0.532-0.446-0.813-0.478-1.114c-0.215-2.071,1.211-4.579,3.211-5.258
	c3.665-1.247,7.455-2.025,11.341-1.95c2.034,0.04,3.601,1.322,4.852,2.832c1.167,1.406,1.861,3.085,2.296,5.053
	c-1.346-0.069-2.604-0.134-3.888-0.2c-1.719,2.552-3.359,4.99-4.998,7.422c-1.85,0.397-3.592,1.333-5.461,0.447
	c-0.699-1.158-0.699-1.158-0.229-2.401c0.789,0.24,1.588,0.484,2.378,0.724c1.484-0.36,2.829-0.831,3.716-2.2
	c0.323-0.5,0.931-0.816,1.413-1.209c1.54-1.251,1.634-2.242,0.33-3.699c-0.186-0.207-0.431-0.361-0.604-0.503
	c-2.001-0.221-2.752,0.046-4.37,1.55c-0.176,0.626-0.479,1.181-0.01,1.996c0.478,0.825-0.04,1.734-0.728,2.572
	c-0.408-0.13-0.798-0.255-1.084-0.347c-0.655-1.844,0.41-3.336,0.58-5.054c-1.424,0.069-1.444,1.252-1.78,2.001
	C103.525,56.484,103.475,57.414,103.287,58.302z"/>
<path fill-rule="evenodd" clip-rule="evenodd" fill="#ffc524" class="fill" d="M122.714,64.534c-0.312,0.489-0.551,0.86-0.812,1.265
	c-1.885,0.069-3.523-1.74-5.76-0.637c1.499,1.199,3.335,1.142,4.688,2.056c-0.011,0.73-0.416,0.986-0.989,0.886
	c-0.831-0.146-1.658-0.346-2.461-0.606c-0.856-0.276-1.683-0.65-2.578-1.003c-0.261,0.222-0.498,0.423-0.879,0.749
	c1.74,1.376,3.854,1.539,5.718,2.434c-0.167,0.319-0.29,0.557-0.461,0.887c-1.979,0.038-3.766-0.557-5.421-1.605
	c-0.634-0.402-1.246-0.842-1.937,0.036c1.286,1.938,3.495,2.13,5.491,2.889c-2.524,1.203-6.133-0.093-8.624-3.097
	c0.316-0.772,0.695-1.637,1.031-2.519c1.14-3.006,2.955-5.601,4.957-8.07c1.317-1.625,1.924-1.722,3.796-0.746
	c1.101,0.574,2.187,1.188,3.248,1.837c1.348,0.823,1.823,2.067,1.651,3.856c-1.004-0.39-1.847-0.801-2.734-1.041
	c-0.818-0.22-1.688-1.092-2.777,0.134C119.548,63.036,121.094,63.768,122.714,64.534z"/>
<path fill-rule="evenodd" clip-rule="evenodd" fill="#ffc524" class="fill" d="M140.175,54.15c-0.179,0.264-0.38,0.515-0.53,0.794
	c-0.608,1.13-0.396,2.319,0.711,2.933c2.029,1.124,4.135,1.951,6.534,0.078c0.103,0.834,0.186,1.498,0.294,2.356
	c-1.844,0.212-3.422,0.746-4.395,2.208c-0.688,0-1.244,0-1.783,0c-1.643-1.575-3.609-2.317-5.875-2.643
	c-0.887-1.291-2.711-1.938-3.055-4.095c0.703,0.184,1.324,0.226,1.818,0.499c1.527,0.848,2.77,0.584,3.945-0.67
	c0.605-0.646,1.363-1.147,2.053-1.715C139.987,53.98,140.081,54.064,140.175,54.15z"/>
<path fill-rule="evenodd" clip-rule="evenodd" fill="#ffc524" class="fill" d="M86.668,48.594c0.951-0.921,1.656-1.603,2.445-2.366
	c2.3,1,4.507,1.958,6.946,3.019c-0.458,0.603-0.843,1.11-1.301,1.715C92.127,50.293,89.536,49.66,86.668,48.594z"/>
<path fill-rule="evenodd" clip-rule="evenodd" fill="#ffc524" class="fill" d="M171.244,75.226c-0.261-0.168-0.617-0.267-0.675-0.458
	c-0.587-1.912-0.61-3.874-0.53-5.938C171.379,69.924,171.78,72.148,171.244,75.226z"/>
<path fill-rule="evenodd" clip-rule="evenodd" fill="#ffc524" class="fill" d="M86.061,44.9c0.544,0.236,0.948,0.411,1.59,0.689
	c-0.734,0.84-1.378,1.577-2.077,2.375c-0.587-0.124-1.107-0.233-2-0.421C84.555,46.5,85.302,45.706,86.061,44.9z"/>
<path fill-rule="evenodd" clip-rule="evenodd" fill="#ffc524" class="fill" d="M143.188,57.483c0.35-0.839,0.686-1.646,1.055-2.535
	c0.997,0.473,1.567,1.049,1.367,2.166C144.982,58.047,144.181,57.998,143.188,57.483z"/>
<path fill-rule="evenodd" clip-rule="evenodd" fill="#ffc524" class="fill" d="M108.465,55.582c0.407-0.745,0.887-1.299,1.876-0.973
	c0.472,0.884,0.257,1.614-0.408,2.268C108.847,57.099,108.492,56.545,108.465,55.582z"/>
<path fill-rule="evenodd" clip-rule="evenodd" fill="#ffc524" class="fill" d="M173.092,73.287c0.302,0.423,0.604,0.847,0.89,1.249
	c-0.106,0.723-0.202,1.366-0.312,2.106c-1.02-0.192-0.829-0.945-0.869-1.529c-0.042-0.579-0.01-1.163-0.01-1.745
	C172.891,73.341,172.993,73.314,173.092,73.287z"/>
<path fill-rule="evenodd" clip-rule="evenodd" fill="#ffc524" class="fill" d="M142.018,54.71c0.592,1.084,0.57,1.18-0.502,2.116
	C140.431,55.814,140.533,55.384,142.018,54.71z"/>
<path fill-rule="evenodd" clip-rule="evenodd" fill="#ffc524" class="fill" d="M145.114,36.226c-0.716,0.198-1.073,0.297-1.593,0.44
	c0.026-0.556,0.047-1.008,0.084-1.801C144.182,35.384,144.516,35.684,145.114,36.226z"/>
<path fill-rule="evenodd" clip-rule="evenodd" fill="#ffc524" class="fill" d="M175.337,77.924c-0.065-0.261-0.128-0.523-0.193-0.784
	c0.085-0.022,0.166-0.045,0.249-0.067c0.078,0.258,0.156,0.515,0.234,0.772C175.531,77.872,175.434,77.898,175.337,77.924z"/>
<path fill-rule="evenodd" clip-rule="evenodd" fill="#ffc524" class="fill" d="M172.883,107.829c-0.367,1.172-0.727,2.32-1.166,3.72
	c-1.692-1.956-3.225-3.726-4.879-5.638c1.877-1.761,3.508-3.645,5.891-5.302c0.085,1.521,0.148,2.679,0.214,3.896
	c1.302,0.865,2.652,0.033,3.956,0.121c1.34,0.09,2.691,0.021,4.146,0.021c0.062,1.072,0.116,2.016,0.183,3.182
	c-1.437,0-2.764,0-4.094,0C175.834,107.829,174.534,107.829,172.883,107.829z"/>
</svg>
