<svg version="1.1" id="svg" xmlns="http://www.w3.org/2000/svg" xmlns:xlink="http://www.w3.org/1999/xlink" x="0px" y="0px"
	 width="199.999px" height="200px" viewBox="0 0 199.999 200" enable-background="new 0 0 199.999 200" xml:space="preserve">
<path class="stroke" fill="#205165"  fill-rule="evenodd" clip-rule="evenodd" d="M114.326,133.77c1.749,1.374,3.749,1.348,5.76,1.598
	c0.026,0.822-0.395,1.095-1.119,1.148c-1.481,0.111-2.962,0.256-4.549,0.396c0,0.574,0,1.119,0,1.785
	c0.938,1.567,2.783,1.722,4.315,1.958c1.566,0.241,3.249-0.283,4.98-0.484c-0.326,1.286-1.266,1.712-2.373,1.879
	c-2.161,0.325-4.33,0.716-6.57-0.353c-0.084,0.505-0.141,0.849-0.232,1.41c2.005,0.099,3.877,0.196,5.75,0.28
	c1.834,0.083,3.328-1.56,5.268-1.132c-0.27,1.374-0.584,1.526-4.173,2.645c-1.71,0.533-3.388,1.122-5.296,0.674
	c-1.094,1.206-2.155,2.391-3.234,3.561c-1.312,1.42-3.017,1.894-4.858,1.742c-3.007-0.248-5.482-0.641-9.14-2.723
	c-0.554,0.345-1.209,0.685-1.788,1.125c-1.512,1.153-3.227,1.451-5.057,1.288c-3.612-0.322-6.782-1.658-9.446-4.151
	c-0.456-0.427-0.952-0.811-1.48-1.256c-3.53,0.938-7.062,1.89-10.688,0.808c-0.883-0.263-1.647-0.923-2.461-1.398
	c0.296-0.816,0.778-0.869,1.312-0.728c2.903,0.765,5.805,0.498,8.696-0.042c1.173-0.219,2.322-0.566,3.591-0.883
	c0-0.306,0-0.669,0-1.181c-3.634,0.235-6.946-0.599-10.204-2.333c0.688-0.954,1.306-0.786,2.055-0.475
	c2.204,0.916,4.407,0.808,6.641-0.374c-0.881-0.276-1.761-0.553-2.908-0.913c1.414-1.425,3.317-0.537,4.584-1.525
	c0.332-1.079,0.485-11.172,0.158-12.762c-1.711,0.335-3.449,0.697-5.193,0.256c-0.17-2.144,2.146-6.1,4.726-9.118
	c2.548-2.98,5.97-3.399,9.571-3.884c0.109-1.445,0.249-2.801,0.302-4.16c0.05-1.31,0.01-2.624,0.01-3.96
	c-0.183-0.076-0.34-0.207-0.482-0.192c-5.286,0.539-10.57-0.158-15.856-0.021c-1.386,0.036-2.662,0.249-3.984,0.811
	c-3.22,1.37-6.518,2.57-9.83,3.708c-2.525,0.866-4.689-0.071-6.126-2.409c-0.117-0.192-0.258-0.37-0.43-0.614
	c-3.096,0.22-6.097,2.073-9.435,0.855c0-1.273,0-2.341,0-3.493c0.688-0.413,1.281-0.91,1.962-1.149
	c1.448-0.511,2.25-1.52,2.651-2.937c0.076-0.271,0.21-0.527,0.341-0.849c2.195-0.825,4.358-1.771,6.603-2.449
	c3.304-0.999,5.826-3.093,8.324-5.326c2.73-2.439,4.8-5.413,7.042-8.25c2.348-2.971,5.113-5.343,8.578-7.022
	c3.097-1.5,6.234-2.518,9.644-2.99c3.464-0.48,6.876-1.341,10.313-2.024c0.562-0.112,1.135-0.167,1.704-0.246
	c0.113-0.016,0.229-0.022,0.344-0.034c3.474-0.368,8.072-4.269,9.005-7.616c0.648-2.324,1.238-4.669,2.017-6.95
	c0.84-2.46,2.508-4.357,4.534-5.961c2.048-1.62,4.209-2.866,6.829-3.48c3.625-0.852,6.688,0.108,9.562,2.159
	c0.695,0.497,1.277,1.152,2.078,1.886c0.722,0.076,1.627,0.204,2.536,0.261c1.262,0.078,2.528,0.142,3.793,0.142
	c2.155,0,3.916,1.006,5.435,2.335c1.972,1.725,2.424,4.083,2.103,6.603c-0.041,0.309-0.312,0.587-0.446,0.825
	c-0.202,0.049-0.344,0.135-0.418,0.095c-1.669-0.9-3.432-0.532-5.198-0.486c-2.639,0.068-5.283-0.018-7.922-0.124
	c-1.237-0.05-2.373,0.097-3.497,0.657c-1.23,0.613-2.521,1.111-3.801,1.621c-0.999,0.398-1.834,0.947-2.129,1.699
	c0.174,4.027,0.422,7.755,0.476,11.486c0.098,6.876-1.619,13.158-6.118,18.572c-1.496,1.799-3.12,3.369-5.058,4.634
	c-1.488,0.972-2.946,2.019-4.521,2.83c-1.574,0.81-3.276,1.37-5.043,2.089c-0.117,2.756-0.89,5.489-0.711,8.532
	c2.205,0.458,4.327,0.896,6.449,1.34c0.506,0.106,1.03,0.174,1.507,0.359c2.386,0.93,3.562,2.471,3.456,4.597
	c-0.07,1.377,0.046,2.764-0.028,4.142c-0.043,0.836-0.287,1.663-0.482,2.719c-0.769-0.186-1.333-0.323-2.102-0.509
	C114.269,126.091,114.431,129.96,114.326,133.77z M105.032,132.171c-0.833-0.454-1.732-0.078-2.346-1.111
	c0.795-0.182,1.45-0.333,2.172-0.499c-0.03-0.271-0.062-0.539-0.084-0.724c-0.63-0.279-1.164-0.514-1.696-0.75
	c0.017-0.142,0.034-0.284,0.052-0.426c0.586-0.167,1.175-0.334,1.906-0.542c-0.464-0.39-0.803-0.676-1.222-1.028
	c0.521-0.313,0.897-0.54,1.32-0.795c-0.069-0.422-0.132-0.795-0.21-1.263c-0.557-0.063-1.046-0.119-1.604-0.183
	c-1.42,3.304-3.048,6.431-2.995,10.058c0.052,3.667,0.157,7.332,0.252,10.998c0.003,0.071,0.152,0.138,0.3,0.263
	c0.367-0.307,0.744-0.624,1.048-0.877c0.076-1.39,0.146-2.639,0.218-3.948c0.433-0.083,0.74-0.143,1.238-0.239
	c0,1.417,0,2.711,0,4.178c0.711-0.076,1.229-0.13,1.835-0.194c-0.076-0.942-0.13-1.682-0.194-2.422
	c-0.069-0.784-0.079-1.519,1.234-1.535c0.156,1.176,0.309,2.333,0.424,3.2c1.394,0.843,2.537,1.536,3.727,2.256
	c0.506-0.303,0.925-0.554,1.37-0.821c-0.171-0.722-0.312-1.322-0.433-1.832c-0.916-0.504-1.906,0.532-2.688-0.372
	c0.483-1.177,1.738-0.389,2.481-1.097c-0.02-0.183-0.046-0.437-0.066-0.64c-0.801-0.339-1.711,0.309-2.516-0.742
	c0.877-0.232,1.588-0.422,2.449-0.65c-0.088-0.449-0.178-0.908-0.242-1.237c-0.821-0.084-1.438-0.147-2.055-0.211
	c-0.011-0.136-0.021-0.271-0.031-0.407c0.661-0.271,1.321-0.542,2.064-0.846c-0.022-0.448-0.045-0.883-0.062-1.226
	c-0.522-0.277-0.924-0.491-1.532-0.815c0.678-0.405,1.101-0.657,1.641-0.979c-0.176-2.72-0.035-5.5-0.579-8.277
	c-0.416,0.476-0.704,0.961-0.855,1.488c-0.348,1.213-0.621,2.447-0.938,3.669c-0.491,1.885-0.978,3.772-1.502,5.648
	c-0.17,0.608-0.411,1.229-1.357,1.176c-0.243-0.355-0.52-0.762-0.775-1.14c-0.564-0.094-1.095-0.183-1.629-0.271
	c-0.032-0.134-0.063-0.269-0.097-0.403c0.64-0.341,1.281-0.683,1.946-1.037c-0.597-0.88-1.751,0.038-2.202-1.118
	c0.704-0.21,1.334-0.399,2.069-0.62C104.92,133.301,104.975,132.75,105.032,132.171z M87.763,141.71c0,1.992,0,3.683,0,5.416
	c1.158,0.412,1.972,1.281,3.229,0.845c0-6.589,0-13.097,0-20.01c-1.342,1.978-1.614,3.916-2.046,5.766
	c-0.439,1.885-0.659,3.821-0.985,5.794c-0.31,0.022-0.577,0.042-1.064,0.076c-0.3-4.505-0.594-8.938-0.903-13.597
	c-0.764,0.094-1.272,0.156-1.985,0.244c0,6.228,0,12.292,0,18.401c0.749,0.48,1.43,0.917,2.291,1.468
	c0.078-1.527,0.14-2.715,0.201-3.912C86.853,142.064,87.107,141.965,87.763,141.71z M98.688,145.567
	c-0.945-0.668-2.009,0.554-2.658-0.532c0.41-1.242,1.703-0.44,2.469-1.167c-0.063-0.415-0.139-0.896-0.212-1.363
	c-0.865-0.113-1.604-0.21-2.43-0.318c0.498-1.333,1.612-0.747,2.406-1.149c-0.05-0.581-0.094-1.128-0.138-1.649
	c-0.79-0.13-1.461-0.242-2.147-0.356c0.342-1.427,1.481-0.591,2.108-1.108c0-0.646,0-1.303,0-1.938
	c-0.697-0.112-1.27-0.204-1.84-0.295c-0.018-0.146-0.035-0.292-0.055-0.437c0.64-0.229,1.279-0.458,2.012-0.72
	c0-0.338,0-0.707,0-1.022c-0.595-0.314-1.42,0.1-1.703-0.967c0.662-0.162,1.285-0.313,2.01-0.49
	c-0.021-0.411-0.042-0.837-0.062-1.229c-0.584-0.155-1.049-0.278-1.863-0.494c0.754-0.442,1.202-0.705,1.702-0.999
	c-0.065-1.327,0.141-2.703-0.447-3.868c-1.779,0.11-3.399,0.211-5.039,0.313c-0.108,0.845-0.249,1.467-0.26,2.091
	c-0.083,5.344-0.146,10.688-0.201,16.033c-0.009,0.919,0.02,1.843,0.108,2.757c0.03,0.312,0.296,0.601,0.453,0.9
	c0.519-6.083-0.006-12.09,0.327-18.181c0.536,0,0.845,0,1.232,0c-0.081,5.981,0.125,11.904,0.31,17.974
	C96.353,146.956,97.539,146.436,98.688,145.567z M96.884,120.623c0.045,0.145,0.091,0.29,0.137,0.434
	c1.577-0.187,3.152-0.375,4.639-0.551c0.469-0.566-0.175-1.885,1.209-1.471c0.198,0.395,0.393,0.782,0.566,1.127
	c1.145-0.096,2.161-0.182,3.272-0.276c-0.106-0.671-0.201-1.269-0.313-1.982c0.424-0.084,0.765-0.153,1.174-0.234
	c0.314,0.922,0.588,1.723,0.886,2.596c0.85,0.413,1.707,0.83,2.521,1.226c0.48-0.709,0.863-1.279,1.201-1.779
	c1.052,0.269,1.862,0.476,2.848,0.728c-0.203-1.907-0.479-3.585-1.225-5.134c-0.231-0.481-0.68-0.957-1.15-1.208
	c-2.628-1.409-5.503-1.668-8.514-1.85c0.421,1.63,1.41,3.055,0.146,4.61C100.89,116.321,98.697,118.122,96.884,120.623z
	 M90.612,112.834c-5.691,0.586-10.286,4.158-10.916,8.527c1.705-0.159,3.215-1.408,5.091-0.819c0.298,0.268,0.67,0.604,0.962,0.867
	c0.874,0,1.616,0,2.204,0c0.819,0.476,1.5,0.872,2.144,1.246c1.167-0.656,2.203-1.24,3.314-1.864
	C92.47,118.117,91.56,115.53,90.612,112.834z M102.99,101.942c-2.195,0.161-4.048,0.297-5.977,0.439
	c-0.529,2.533-0.138,4.957-0.264,7.542c1.864,0,3.489,0,5.291,0C102.348,107.352,102.647,104.826,102.99,101.942z"/>
<path class="stroke" fill="#205165"  fill-rule="evenodd" clip-rule="evenodd" d="M83.9,154.526c0.852,0.056,1.452,0.108,2.055,0.134
	c2.006,0.089,4.011,0.25,6.015,0.229c1.638-0.018,3.104-0.666,4.471-1.602c1.026-0.704,2.164-1.247,3.16-1.809
	c1.876,0.937,3.544,1.77,5.3,2.646c-1.971,1.889-3.831,0.373-5.749,0.223c-0.392,0.249-0.831,0.51-1.251,0.798
	c-3.562,2.447-7.519,2.588-11.574,1.883C85.218,156.836,84.188,156.255,83.9,154.526z"/>
<path class="stroke" fill="#205165"  fill-rule="evenodd" clip-rule="evenodd" d="M68.488,151.185c4.825-0.059,9.601,0.678,13.773-1.901
	c1.845,1.135,3.565,2.195,5.499,3.385c-0.653,0.39-1.065,0.635-1.664,0.992c-1.132-0.436-2.348-0.904-3.654-1.406
	c-3.573,1.825-7.453,1.311-11.295,0.62C70.286,152.72,69.111,152.561,68.488,151.185z"/>
<path class="stroke" fill="#205165"  fill-rule="evenodd" clip-rule="evenodd" d="M66.761,139.705c2.896,0.786,5.426,1.472,8.066,2.189
	c-0.777,1.195-1.882,1.335-3.007,1.012c-1.595-0.46-3.14-1.087-4.953-1.729c-3.586,2.293-7.544,2.581-11.606,0.774
	c-0.034-0.144-0.067-0.287-0.103-0.431c0.54-0.187,1.071-0.396,1.619-0.548c0.208-0.057,0.453,0.01,0.679,0.036
	c1.639,0.185,3.248,0.986,4.92,0.419C63.95,140.893,65.476,140.215,66.761,139.705z"/>
<path class="stroke" fill="#205165"  fill-rule="evenodd" clip-rule="evenodd" d="M134.091,137.809c-0.906,1.032-1.97,1.166-3.047,1.126
	c-0.913-0.034-1.854-0.102-2.725-0.353c-1.302-0.375-2.465,0.024-3.697,0.286c-1.559,0.332-3.156,0.524-4.746,0.658
	c-0.994,0.084-1.935-0.211-2.681-1.296c0.337-0.171,0.688-0.513,0.926-0.447c2.853,0.782,5.562,0.156,8.256-0.728
	c0.216-0.071,0.435-0.132,0.644,0.01C129.29,137.306,131.559,137.544,134.091,137.809z"/>
<path class="stroke" fill="#205165"  fill-rule="evenodd" clip-rule="evenodd" d="M116.286,149.435c0.152-0.374,0.168-0.505,0.243-0.58
	c0.322-0.322,0.663-0.627,0.953-0.899c1.825,0,3.612,0.18,5.346-0.051c1.723-0.229,3.391-0.871,5.443-1.43
	c-0.737,1.96-2.308,2.294-3.581,2.772C121.988,150.26,119.195,150.759,116.286,149.435z"/>
<path class="stroke" fill="#205165"  fill-rule="evenodd" clip-rule="evenodd" d="M108.045,115.201c0.899-0.61,1.584-0.606,2.691,0.275
	c0.816,0.651,1.878,1.274,1.598,3.013C110.772,117.293,109.462,116.287,108.045,115.201z"/>
<path class="stroke" fill="#205165"  fill-rule="evenodd" clip-rule="evenodd" d="M85.105,119.37c-0.415-0.162-0.701-0.273-1.178-0.46
	c0.831-1.451,1.867-2.478,3.309-3.544C87.002,117.108,85.927,118.055,85.105,119.37z"/>
<path class="stroke" fill="#205165"  fill-rule="evenodd" clip-rule="evenodd" d="M88.687,119.113c-0.396-0.029-0.657-0.048-1.033-0.076
	c0.168-0.915,0.527-1.501,1.658-1.902C89.054,117.946,88.88,118.501,88.687,119.113z"/>
<path fill-rule="evenodd" clip-rule="evenodd" fill="#ffffff" class="fill" d="M137.973,52.344c-2.526,0.273-5.104-0.453-7.581,1.325
	c1.771,0.588,3.486,0.357,4.638,1.915c-2.001,0.668-3.942,1.235-5.818,1.966c-1.908,0.744-3.983,1.322-5.083,3.786
	c0.237,2.947,0.579,6.203,0.732,9.468c0.112,2.409,0.075,4.833-0.071,7.241c-0.134,2.187-0.791,4.259-1.944,6.118
	c-1.427,0.146-2.702,0.276-4.076,0.417c0.677,1.017,0.677,1.017,2.895,1.271c-0.724,0.93-1.375,1.767-2.015,2.591
	c-0.932,0.163-1.79,0.263-2.621,0.474c-0.728,0.184-1.554-0.757-2.207,0.192c0.625,0.695,0.625,0.695,2.78,1.296
	c-2.132,2.122-4.354,3.969-6.53,5.211c-1.817-0.396-3.273-0.734-4.74-1.006c-0.171-0.032-0.408,0.299-0.874,0.665
	c1.072,0.484,1.918,0.867,3.107,1.403c-1.119,0.366-1.983,0.648-2.706,0.885c-1.551-0.251-2.853-1.292-4.464-0.557
	c0.159,0.414,0.275,0.72,0.43,1.124c-0.614,0.164-1.203,0.322-1.907,0.51c-0.206-0.32-0.403-0.628-0.647-1.008
	c-1.605,0.028-3.176-0.167-4.006-2.106c0.745-0.264,1.434-0.507,2.085-0.738c2.54,1.341,3.125,1.272,4.258-0.592
	c-0.478,0.094-0.843,0.198-1.214,0.229c-0.307,0.024-0.621-0.04-1.264-0.09c1.087-0.778,1.907-1.366,2.538-1.818
	c1.076,0.221,1.942,0.465,2.821,0.538c0.258,0.021,0.555-0.446,0.966-0.807c-0.954-0.241-1.691-0.427-2.701-0.682
	c0.643-0.823,1.117-1.43,1.552-1.988c1.07,0.128,1.972,0.236,2.926,0.35c0.63-0.501,1.227-0.976,1.822-1.451
	c-0.049-0.081-0.099-0.162-0.149-0.243c-0.979,0.14-1.958,0.279-3.401,0.485c0.479-0.946,0.714-1.494,1.019-2.001
	c0.976-1.626,1.993-3.228,2.961-4.858c0.351-0.59,0.699-1.212,0.87-1.866c0.124-0.478-0.044-1.032-0.094-1.691
	c-1.729,0.339-3.219,0.631-4.637,0.91c-1.025-1.372,0.603-2.418,0.056-3.704c-0.365-0.192-0.809-0.426-1.269-0.668
	c0-0.56,0-1.07,0-1.484c-0.609-1.446-2.26-0.895-3.148-1.907c0.2-0.11,0.357-0.249,0.539-0.292c2.465-0.583,4.581-1.783,6.463-3.475
	c0.978-0.881,2.101-1.602,3.134-2.423c1.225-0.971,1.789-2.25,2.113-3.799c0.598-2.856,1.228-5.727,2.725-8.313
	c2.301-3.975,5.739-6.051,10.251-6.767c2.684-0.426,4.844,0.18,6.849,1.896c0.689,0.591,1.53,1.014,2.33,1.467
	C136.687,50.324,137.409,51.141,137.973,52.344z M123.425,51.245c0.621,1.76,0.807,1.939,2.34,2.495
	c1.506,0.546,3.554-0.448,4.037-1.96c0.391-1.22-0.277-2.692-1.53-2.79c-1.153-0.089-2.411,0.135-3.491,0.558
	C124.173,49.786,123.832,50.705,123.425,51.245z M116.815,84.814c-0.369,0.028-0.579-0.02-0.695,0.064
	c-1.725,1.226-3.613,1.862-5.754,1.733c-0.369-0.022-0.754,0.22-1.132,0.339c0.022,0.167,0.043,0.334,0.064,0.501
	c1.439,0.727,2.963,0.523,4.412-0.098C114.901,86.844,116.66,86.938,116.815,84.814z M113.868,91.795
	c-1.928-0.132-3.574-0.245-5.326-0.365C109.696,93.352,112.079,93.555,113.868,91.795z M114.399,82.191
	c1.794,1.375,3.866,0.826,5.137-1.079c-1.049-0.554-1.674,0.497-2.513,0.635C116.148,81.892,115.274,82.042,114.399,82.191z"/>
<path fill-rule="evenodd" clip-rule="evenodd" fill="#ffffff" class="fill" d="M88.542,77.186c-0.949-0.078-1.471,0.574-1.954,1.213
	c-0.595,0.791-1.298,1.27-2.367,1.188c-0.932-0.888-0.246-1.739,0.167-2.468c0.65-1.144,1.472-2.192,2.268-3.353
	c3.891-1.269,7.945-1.958,12.026-2.107c1.341,0.712,2.605,1.384,3.957,2.103c0.051,0.442,0.106,0.941,0.199,1.768
	c0.226,0.133,0.677,0.4,0.893,0.527c0,1.284,0,2.249,0,3.217c0.385,0.408,0.732,0.777,1.221,1.295
	c-3.592,2.042-7.438,3.519-10.578,6.115c-3.131,2.587-6.657,4.686-9.749,7.772c-0.601,0-1.502,0-2.657,0
	c2.444-2.994,5.414-5.122,8.122-7.781c1.759-0.848,3.711-1.79,5.597-2.7c0.057-0.708,0.093-1.15,0.128-1.586
	c0.51-0.466,1.018-0.929,1.593-1.455c1.171,0.315,2.329,1.187,4,0.41c-0.617-0.305-0.981-0.495-1.354-0.668
	c-0.392-0.181-0.789-0.345-1.394-0.606c0.462-0.728,0.809-1.277,1.155-1.825c-1.208-0.445-1.619-0.263-2.336,1.037
	c-1.058,1.915-2.482,2.642-4.811,2.343c-0.756-2.816,1.952-3.444,3.246-5.037c1.876,0.963,3.674,0.651,5.399-0.362
	c-0.007-0.125-0.013-0.25-0.02-0.376c-1.083,0.072-2.168,0.144-3.428,0.228c-1.07-0.198-1.086-1.081-0.85-2.051
	c-1.415-0.082-1.478-0.007-1.711,2.033c-0.338,0.276-0.692,0.565-1.065,0.87c-1.4,0.081-2.853,0.601-4.223-0.693
	c0.397-0.642,0.803-1.296,1.217-1.963c-1.279-0.163-2.093,0.289-2.489,1.441c-0.165,0.479-0.177,1.01-0.26,1.518L88.542,77.186z"/>
<path fill-rule="evenodd" clip-rule="evenodd" fill="#ffffff" class="fill" d="M64.553,94.012c-0.179-1.833,0.101-2.241,3.755-5.95
	c0.997,0.185,1.992,0.37,3.103,0.575c-0.358,1.15-0.692,2.226-0.981,3.159c0.419,1.387,1.504,1.288,2.535,1.473
	c0,0.675,0,1.344,0,1.918c1.061,1.548,3.271,0.767,4.147,2.356c-1.776,2.173-5.752,3.661-8.195,3.003
	c0.633-1.305,1.851-2.292,2.137-3.839c-0.98-0.379-1.303,0.293-1.661,0.847c-0.612,0.944-1.203,1.903-2.021,3.201
	c-0.621-1.036-1.033-1.723-1.485-2.476c1.369-1.811,2.66-3.519,3.95-5.227c-1.994,0.615-2.894,2.411-4.405,3.77
	c-0.257-0.51-0.446-0.884-0.614-1.218c1.513-1.673,3.313-2.958,4.179-4.988c-0.093-0.099-0.186-0.197-0.278-0.295
	C67.404,91.486,66.093,92.648,64.553,94.012z"/>
<path fill-rule="evenodd" clip-rule="evenodd" fill="#ffffff" class="fill" d="M84.464,85.32c-0.893-0.526-1.785-1.051-2.929-1.725
	c0.064-0.778,0.153-1.892,0.259-3.184c-1.021-0.067-1.957-0.129-3.024-0.199c0.182-1.948,1.896-2.866,2.651-4.352
	c0.453-0.887,1.672-1.051,2.758-1.369c0.125,1.202-0.789,1.74-1.121,2.538c-0.317,0.769-0.554,1.573-0.753,2.152
	c0.894,1.773,2.21,1.438,3.634,1.277c1.038,2.05,2.68,2.419,4.606,1.287c0.876,0.554,1.667,1.056,2.64,1.671
	c-0.868,0.46-1.693,0.93-2.548,1.339c-0.619,0.297-1.334,0.426-1.905,0.786C87.307,86.438,85.914,86.35,84.464,85.32z
	 M86.109,85.124c0.808-0.079,1.718,0.354,2.521-0.607c-0.74-0.099-1.232-0.165-1.726-0.23c-1.064-0.322-0.544-2.276-2.168-2.105
	C84.642,83.406,84.953,84.354,86.109,85.124z"/>
<path fill-rule="evenodd" clip-rule="evenodd" fill="#ffffff" class="fill" d="M108.133,80.687c-0.823,1.676-1.673,2.795-3.265,3.432
	c-1.793,0.717-3.521,1.672-5.138,2.736c-2.677,1.764-5.254,3.679-7.84,5.576c-0.409,0.301-0.643,0.842-1.119,1.494
	c-1.051,0.161-2.377,0.363-3.702,0.566C93.18,88.589,100.093,84.064,108.133,80.687z"/>
<path fill-rule="evenodd" clip-rule="evenodd" fill="#ffffff" class="fill" d="M80.063,81.812c-0.134,1.021-0.245,1.864-0.349,2.652
	c0.507,1.237,1.656,0.923,2.642,1.226c0.254,0.328,0.562,0.723,0.867,1.115c-1.389,1.15-2.491,1.078-4.736-0.283
	c-0.136-0.498-0.285-1.045-0.478-1.749c-0.737-0.22-1.548-0.461-2.452-0.732c-0.852-0.818-0.956-1.923-0.783-3.216
	c0.758-0.716,1.572-1.488,2.556-2.419c-0.129,0.843-0.22,1.437-0.292,1.91C77.622,81.691,78.869,81.508,80.063,81.812z"/>
<path fill-rule="evenodd" clip-rule="evenodd" fill="#ffffff" class="fill" d="M148.971,55.265c-3.206-0.97-6.186-1.872-9.409-2.847
	c-0.176-0.29-0.493-0.812-0.993-1.638c0.863,0,1.461-0.083,2.027,0.015c1.907,0.333,3.836,0.61,5.691,1.139
	C147.771,52.354,148.845,53.36,148.971,55.265z"/>
<path fill-rule="evenodd" clip-rule="evenodd" fill="#ffffff" class="fill" d="M52.599,98.99c-0.114-0.531-0.207-0.966-0.343-1.596
	c1.12-0.407,2.221-0.807,3.38-1.227c0.438,0.33,0.829,0.624,1.2,0.903c-0.981,2.078-1.063,1.831-0.03,3.191
	c-0.111,0.273-0.236,0.584-0.388,0.963c-1.398,0.289-2.71,1.13-4.332,0.757c-0.161-0.481-0.318-0.953-0.478-1.43
	C51.929,100.046,52.23,99.57,52.599,98.99z"/>
<path fill-rule="evenodd" clip-rule="evenodd" fill="#ffffff" class="fill" d="M86.169,87.571c0.062,0.028,0.257,0.116,0.687,0.31
	c-3.023,2.809-5.933,5.512-8.862,8.232c-0.701-0.353-1.361-0.685-2.236-1.124C78.969,92.083,82.509,89.85,86.169,87.571z"/>
<path fill-rule="evenodd" clip-rule="evenodd" fill="#ffffff" class="fill" d="M136.656,55.28c-0.363-0.438-0.724-0.871-1.096-1.32
	c1.693-0.676,8.001,0.33,9.828,1.534C143.898,56.45,143.039,56.431,136.656,55.28z"/>
<path fill-rule="evenodd" clip-rule="evenodd" fill="#ffffff" class="fill" d="M89.638,97.213c0.062,0.623,0.105,1.059,0.146,1.456
	c-0.561,0.396-1.871-0.31-2.562-1.348c0.914-0.729,2.06-0.478,3.071-0.723c1.051-0.254,2.119-0.438,3.093-0.634
	c0.895,0.971,1.729,1.879,2.596,2.822c-1.444,0.689-2.736-0.35-4.146-0.208c-0.42-0.566-0.789-1.063-1.233-1.665
	C90.359,96.99,90.065,97.081,89.638,97.213z"/>
<path fill-rule="evenodd" clip-rule="evenodd" fill="#ffffff" class="fill" d="M93.728,93.086c3.001-2.318,5.946-4.729,9.344-6.483
	C100.866,90.05,97.974,92.523,93.728,93.086z"/>
<path fill-rule="evenodd" clip-rule="evenodd" fill="#ffffff" class="fill" d="M88.484,77.232c1.049,0.377,2.098,0.753,3.087,1.109
	c0.023,0.259,0.07,0.383,0.037,0.479c-0.243,0.698-0.502,1.39-0.777,2.14c-0.285,0.123-0.586,0.271-0.899,0.385
	c-0.837,0.303-1.577,0.164-2.127-0.574c-0.504-0.68-0.417-1.366,0.001-2.072c0.285-0.482,0.496-1.009,0.737-1.515
	C88.542,77.186,88.484,77.232,88.484,77.232z"/>
<path fill-rule="evenodd" clip-rule="evenodd" fill="#ffffff" class="fill" d="M74.832,93.521c0.106-0.543,0.213-1.085,0.323-1.653
	c1.157-1.009,2.309-2.013,3.468-3.023c0.604,0.308,1.104,0.562,1.854,0.944c-1.875,1.379-3.615,2.659-5.356,3.939
	C75.025,93.658,74.929,93.589,74.832,93.521z"/>
<path fill-rule="evenodd" clip-rule="evenodd" fill="#ffffff" class="fill" d="M72.707,89.984c1.565-1.084,2.729-1.891,4.045-2.801
	c0.237,0.326,0.507,0.698,0.885,1.219c-1.741,1.292-3.366,2.495-4.989,3.7c-0.14-0.092-0.28-0.186-0.42-0.279
	C72.414,91.111,72.6,90.4,72.707,89.984z"/>
<path fill-rule="evenodd" clip-rule="evenodd" fill="#ffffff" class="fill" d="M73.184,82.942c0.168,0.434,0.323,0.838,0.563,1.466
	c-0.809,0.697-1.632,1.41-2.621,2.264C71.193,85.177,71.889,83.991,73.184,82.942z"/>
<path fill-rule="evenodd" clip-rule="evenodd" fill="#ffffff" class="fill" d="M73.756,87.872c-0.283-0.507-0.471-0.84-0.679-1.21
	c0.469-0.41,0.891-0.778,1.347-1.178c0.605,0,1.216,0,2.298,0C75.577,86.404,74.743,87.076,73.756,87.872z"/>
<path fill-rule="evenodd" clip-rule="evenodd" fill="#ffffff" class="fill" d="M85.362,97.758c-0.401-0.065-0.805-0.13-1.207-0.195
	c-0.005-0.091-0.009-0.182-0.014-0.273c0.222-0.052,0.449-0.161,0.666-0.142c0.22,0.019,0.43,0.161,0.644,0.249
	C85.421,97.518,85.392,97.638,85.362,97.758z"/>
<path fill-rule="evenodd" clip-rule="evenodd" fill="#ffffff" class="fill" d="M125.337,50.417c0.727-0.201,1.582-0.438,2.348-0.65
	c0.889,1.074,0.889,1.074,0.711,2.335c-0.835,0.692-1.749,0.939-2.771,0.258C124.933,51.897,124.819,51.303,125.337,50.417z
	 M127.647,51.053c-0.941-0.594-1.323-0.251-1.586,0.585C126.855,52.201,127.327,52.071,127.647,51.053z"/>
</svg>
