<svg version="1.1" id="svg" xmlns="http://www.w3.org/2000/svg" xmlns:xlink="http://www.w3.org/1999/xlink" x="0px" y="0px"
	 width="200px" height="200px" viewBox="0 0 200 200" enable-background="new 0 0 200 200" xml:space="preserve">
<path class="stroke" fill="#693c11"  fill-rule="evenodd" clip-rule="evenodd" d="M50.291,152.608c-0.305-0.954-0.606-1.965-0.949-2.962
	c-1.094-3.187-2.196-6.371-3.312-9.551c-0.186-0.529-0.442-1.033-0.676-1.544c-0.616-1.35-0.902-2.741-0.866-4.248
	c0.074-3.048,0.365-6.056,1.192-8.997c0.135-0.477,0.307-0.942,0.472-1.446c3.061-0.141,6.018-0.277,9.023-0.416
	c0.11-0.677,0.198-1.218,0.312-1.906c0.495-0.166,1.005-0.356,1.524-0.506c0.483-0.138,0.978-0.234,1.616-0.383
	c0.025-0.459,0.052-0.928,0.08-1.42c-0.605-0.282-1.102-0.513-1.575-0.733c-0.184-3.098-0.364-6.117-0.545-9.147
	c-1.164-0.213-2.129-0.39-3.129-0.573c-0.24-0.786-0.466-1.417-0.627-2.064c-0.825-3.32-1.649-6.642-2.446-9.969
	c-1.216-5.075-2.434-10.15-3.603-15.237c-0.688-2.994-0.46-6.027-0.214-9.053c0.346-4.256,3.792-6.617,6.831-7.082
	c1.991-0.304,4.026-0.364,6.045-0.438c3.482-0.128,6.97-0.148,10.452-0.277c5.282-0.195,10.564-0.389,15.841-0.689
	c3.158-0.179,6.002-1.308,8.451-3.36c0.418-0.35,0.879-0.649,1.313-0.967c0.631,0.212,1.155,0.389,1.619,0.544
	c6.432-2.792,12.848-5.5,19.194-8.36c3.942-1.777,7.774-3.799,11.672-5.679c1.265-0.61,2.584-1.104,3.869-1.673
	c0.819-0.363,1.602-0.819,2.437-1.135c0.705-0.267,1.464-0.392,2.015-0.533c1.624,1.171,1.34,2.754,1.554,4.322
	c2.784,0,5.507,0,8.255,0c0.747,1.484,0.469,2.84,0.285,4.212c-1.024,0.205-1.95,0.39-3.024,0.605
	c-0.517,3.845,0.188,7.611,0.143,11.367c0.418,0.19,0.661,0.317,0.917,0.416c4.354,1.681,6.518,4.909,6.73,9.519
	c0.057,1.225,0.127,2.449,0.197,3.793c3.07,0.479,6.139-0.888,9.172,0.446c0.674,0.6,0.588,1.553,0.576,2.427
	c-0.054,3.826-0.159,7.651-0.255,11.476c-0.103,4.155-0.204,8.311-0.331,12.465c-0.027,0.892-0.164,1.78-0.237,2.522
	c-0.739,0.935-1.631,1.039-2.541,1.096c-2.358,0.147-4.716,0.29-7.073,0.443c-0.329,0.021-0.655,0.093-1.214,0.176
	c-0.096,1.554-0.275,3.104-0.273,4.655c0.011,8.946,0.005,17.894,0.14,26.838c0.045,2.994-0.018,5.958-0.541,8.899
	c-0.391,2.202-2.58,4.312-4.778,4.563c-1.728,0.199-3.474,0.355-5.208,0.321c-5.846-0.118-11.688-0.433-17.533-0.471
	c-4.44-0.029-8.881,0.294-13.324,0.375c-4.779,0.086-9.562,0.062-14.342,0.107c-3.15,0.029-6.3,0.115-9.45,0.14
	c-5.679,0.045-11.359,0.034-17.038,0.107c-3.202,0.041-6.402,0.224-9.604,0.305C55.074,153.991,52.693,153.702,50.291,152.608z
	 M64.966,113.718c1.097-0.099,2.022-0.182,2.95-0.265c0.492-0.653,1.015-1.187,1.648-1.484c0.972-0.454,1.889-0.027,2.061,1.013
	c0.266,1.609,0.235,3.229-0.648,4.604c-2.059,0.578-2.396,0.449-3.875-1.463c-0.544-0.049-1.19-0.107-1.925-0.174
	c-0.127,0.962-0.234,1.778-0.341,2.585c-0.836,0.159-1.585,0.302-2.404,0.458c0.03,0.511,0.053,0.875,0.078,1.315
	c1.181,0.092,2.272,0.177,3.463,0.271c0.177,0.881,0.327,1.63,0.52,2.585c13.107-0.046,26.229,0.026,39.552-0.832
	c0.882-8.871,0.832-17.721,0.981-26.692c-0.654-0.087-1.141-0.192-1.629-0.209c-1.461-0.049-2.923-0.093-4.385-0.087
	c-4.834,0.021-9.668,0.053-14.501,0.109c-1.403,0.016-2.814,0.058-4.206,0.219c-1.171,0.135-2.324,0.42-3.101,1.48
	c-2.124,2.902-4.264,5.792-6.409,8.679c-0.665,0.895-1.366,1.763-2.158,2.78c-1.9,0-3.772,0-5.671,0
	C64.966,110.357,64.966,111.859,64.966,113.718z M128.843,61.885c0-3.017,0-5.906,0-8.846c-1.12-0.16-2.087-0.298-3.301-0.471
	c0.173-1.396,0.324-2.618,0.495-4.003c-2.607,1.208-5.085,2.381-7.583,3.51c-4.55,2.059-9.106,4.1-13.667,6.131
	c-2.441,1.086-4.899,2.134-7.402,3.222c0.207,0.934,0.361,1.626,0.5,2.251C108.312,63.744,118.529,62.794,128.843,61.885z
	 M132.416,47.512c0.1-0.614,0.18-1.115,0.279-1.735c-1.759,0.252-3.064,0.903-4.265,1.771c0.038,0.123,0.076,0.245,0.114,0.368
	C129.795,47.786,131.045,47.655,132.416,47.512z"/>
<path fill-rule="evenodd" clip-rule="evenodd" fill="#faf0e5" class="fill" d="M146.856,133.25c-12.011,0.833-23.79-0.02-35.792-0.09
	c0.1-6.774,0.291-13.434,0.264-20.092c-0.027-6.612,0.648-13.211,0.498-20.021c-1.42-0.146-2.632-0.349-3.848-0.38
	c-3.93-0.1-7.864-0.274-11.789-0.163c-5.661,0.161-11.343,0.169-16.922,1.454c-1.262,0.291-2.125,0.879-2.809,1.916
	c-2.222,3.377-4.469,6.74-6.84,10.31c-2.897,0-6.018,0-9.273,0c-0.425-5.568-0.646-11.097-0.196-16.585
	c1.544-0.531,3.815-0.583,5.62-0.162c-0.02,0.212,0.011,0.452-0.069,0.646c-0.253,0.614-0.548,1.21-0.865,1.897
	c-0.589-0.205-1.099-0.381-1.845-0.64c-0.329,2.026-0.169,3.971-0.326,5.883c-0.156,1.894-0.191,3.798,0.211,5.719
	c1.497,0.511,2.775-0.277,4.274-0.384c0-3.275,0-6.457,0-9.908c-0.199-0.139-0.563-0.393-0.974-0.679
	c2.082-5.43,4.45-10.604,7.672-15.492c1.574,0.092,3.137,0.294,4.694,0.255c5-0.125,9.997-0.368,14.997-0.508
	c3.709-0.104,7.422-0.099,11.133-0.177c2.415-0.051,4.83-0.232,7.245-0.237c3.877-0.007,7.755,0.125,11.633,0.124
	c5.111-0.002,10.224-0.118,15.335-0.104c2.639,0.008,5.277,0.188,7.916,0.302c0.27,0.012,0.537,0.104,0.777,0.152
	c0,1.734,0.04,3.396-0.008,5.054c-0.127,4.328-0.38,8.655-0.415,12.982c-0.022,2.864,0.383,5.731,0.35,8.594
	c-0.057,4.819-0.349,9.634-0.467,14.452c-0.11,4.5-0.126,9.002-0.18,13.503C146.849,131.602,146.856,132.331,146.856,133.25z
	 M109.918,84.122c0.398,1.825,0.689,3.54,1.151,5.206c0.755,2.716,4.484,4.779,7.633,4.201c3.464-0.636,5.86-2.444,7.286-5.758
	c1.194-2.779,0.896-5.256-0.758-7.629c-1.646-2.361-4.109-3.199-6.806-2.79c-3.054,0.464-5.861,1.653-7.541,4.521
	C110.477,82.569,110.238,83.363,109.918,84.122z M143.225,85.4c-0.263-1.077-0.438-2.186-0.808-3.225
	c-1.163-3.273-5.164-4.75-7.288-4.257c-4.537,1.052-8.006,5.742-6.366,10.46c1.165,3.353,5.278,5.558,8.536,4.158
	c1.408-0.605,2.644-1.657,3.877-2.61C142.618,88.812,143.104,87.227,143.225,85.4z M134.57,111.951
	c-5.122,0.105-10.262,0.212-15.528,0.32c-0.317,2.476-0.249,4.707-0.214,6.979c0.495,0.039,0.771,0.086,1.043,0.079
	c4.482-0.116,8.965-0.22,13.445-0.378c0.866-0.031,1.725-0.278,2.608-0.429c0-2.044,0-3.883,0-5.77
	C135.472,112.484,135.046,112.232,134.57,111.951z M99.908,88.678c1.188,0.104,1.739,1.636,3.268,0.673
	c-0.944-0.741-1.741-1.366-2.376-1.864c0-1.455,0.116-2.796-0.026-4.109c-0.229-2.107-1.668-3.578-3.734-4.047
	c-2.219-0.505-4.367-0.296-6.361,0.824c-0.556,0.312-1.077,0.807-1.43,1.339c-1.321,1.993-1.161,4.153-0.5,6.316
	c0.895,2.923,3.626,4.441,6.605,3.742C97.219,91.113,98.771,90.19,99.908,88.678z M118.583,109.375
	c1.458,0.466,15.782,0.044,17.126-0.509c-0.149-2.033-0.035-4.143-0.876-6.196c-0.963-0.055-1.801-0.161-2.636-0.141
	c-3.259,0.076-6.516,0.241-9.773,0.271c-1.401,0.013-2.658,0.273-3.841,1.189C118.583,105.724,118.583,107.509,118.583,109.375z
	 M85.379,80.44c0.637,0.656,1.162,1.284,2.436,0.973c-0.59-0.614-1.045-1.09-1.533-1.598C85.906,80.074,85.688,80.227,85.379,80.44z
	 M86.492,87.936c-0.833,0.442-1.461,0.776-2.282,1.213c1.188,0.735,1.829,0.168,2.567-0.229
	C86.696,88.64,86.638,88.438,86.492,87.936z M98.408,79.167c0.757,0.638,1.265,0.521,1.731-0.003
	c0.396-0.444,0.468-0.863-0.266-1.24C99.428,78.302,98.955,78.703,98.408,79.167z M103.847,81.043
	c-0.131-0.243-0.257-0.476-0.448-0.831c-0.643,0.373-1.201,0.697-1.916,1.112C102.53,82.165,103.159,81.636,103.847,81.043z
	 M94.61,76.531c-0.887-0.007-1.167,0.248-1.071,0.799c0.094,0.544,0.35,0.921,1.193,0.678C94.695,77.559,94.655,77.077,94.61,76.531
	z M102.082,84.917c-0.006,0.171-0.01,0.343-0.014,0.514c0.488,0.141,0.977,0.282,1.582,0.457c0.107-0.452,0.175-0.733,0.303-1.263
	C103.2,84.743,102.642,84.83,102.082,84.917z M86.307,85.247c-0.031-0.156-0.062-0.312-0.094-0.469
	c-0.697-0.269-1.313-0.271-1.953,0.895C85.16,85.485,85.734,85.366,86.307,85.247z M89.838,78.177
	c0.409,0.684,0.771,1.07,1.559,0.583c-0.184-0.361-0.344-0.677-0.502-0.987c-0.244,0.022-0.413,0.006-0.559,0.059
	C90.195,77.881,90.081,78.002,89.838,78.177z"/>
<path fill-rule="evenodd" clip-rule="evenodd" fill="#faf0e5" class="fill" d="M52.867,150.416c-1.708-4.882-3.389-9.688-5.107-14.602
	c1.949-0.553,3.998-0.671,6.059-0.53c6.461,0.443,12.919,0.374,19.381,0.014c1.396-0.078,2.803,0.013,4.204,0.031
	c3.649,0.046,7.3,0.039,10.946,0.158c3.264,0.106,6.484,0.06,9.742-0.438c3.094-0.473,6.275-0.53,9.416-0.504
	c9.445,0.077,18.89,0.306,28.336,0.426c2.923,0.038,5.848-0.083,8.771-0.128c0.613-0.009,1.227-0.001,2.021-0.001
	c0.16,1.783-0.016,3.436-0.153,5.094c-0.116,1.395-0.272,2.802-0.2,4.193c0.242,4.663-0.86,5.766-5.525,6.072
	c-4.429,0.291-8.88,0.249-13.322,0.313c-8.096,0.118-16.191,0.224-24.288,0.3c-4.835,0.045-9.671-0.012-14.505,0.042
	c-5.004,0.055-10.007,0.258-15.011,0.266c-4.551,0.008-9.103-0.146-13.653-0.255c-1.967-0.047-3.932-0.153-5.896-0.246
	C53.751,150.603,53.424,150.511,52.867,150.416z"/>
<path fill-rule="evenodd" clip-rule="evenodd" fill="#faf0e5" class="fill" d="M74.35,75.065c2.374-1.556,2.374-1.556,2.637-5.327
	c3.377-1.006,6.436-3.203,10.275-3.09c2.86,0.084,5.727,0.032,8.588-0.002c4.886-0.059,9.771-0.143,14.655-0.232
	c7.972-0.147,15.935-0.685,23.919-0.31c2.693,0.126,5.377,0.122,8.052,0.57c3.209,0.537,6.28,4.259,5.805,7.423
	c-0.025,0.159-0.09,0.312-0.157,0.539c-2.119,0-4.232-0.007-6.347,0.001c-4.776,0.018-9.555,0.068-14.333,0.061
	c-5.95-0.009-11.9-0.112-17.851-0.081c-4.777,0.025-9.56,0.079-14.329,0.319c-5.949,0.3-11.891,0.727-17.852,0.534
	c-0.954-0.031-1.906-0.109-2.857-0.183C74.48,75.282,74.418,75.143,74.35,75.065z"/>
<path fill-rule="evenodd" clip-rule="evenodd" fill="#faf0e5" class="fill" d="M105.548,125.226c0.861,2.698,1.64,5.134,2.47,7.735
	c-1.89,0.126-3.724,0.234-5.556,0.375c-1.566,0.12-3.153,0.153-4.69,0.444c-3.4,0.645-6.803,0.555-10.235,0.425
	c-3.525-0.133-7.06-0.018-10.59-0.013c-2.064,0.002-4.128,0-6.357,0c-0.492-2.717-0.822-5.407-0.441-8.304
	c1.237,0,2.446-0.022,3.655,0.004c3.088,0.065,6.178,0.282,9.262,0.2c5.051-0.134,10.098-0.458,15.146-0.699
	c1.908-0.091,3.816-0.188,5.727-0.254C104.486,125.12,105.039,125.196,105.548,125.226z"/>
<path fill-rule="evenodd" clip-rule="evenodd" fill="#faf0e5" class="fill" d="M58.681,88.493c0,5.456,0,10.67,0,16.004
	c-0.274,0.391-0.622,0.884-1.015,1.443c-0.571,0.03-1.17,0.062-1.862,0.1c-2.729-9.363-4.261-18.885-6.773-28.365
	c4.392-0.293,8.502-0.568,12.74-0.851c0,3.581,0,7.146,0,10.792C60.77,87.901,59.828,88.167,58.681,88.493z"/>
<path fill-rule="evenodd" clip-rule="evenodd" fill="#faf0e5" class="fill" d="M153.285,101.765c-0.446-0.171-0.691-0.265-0.986-0.378
	c0.117-2.388,0.281-4.737,0.334-7.088c0.051-2.3,0.347-4.618-0.244-6.907c-1.341,2.747-0.934,5.77-1.443,8.91
	c-0.897-2.628-0.773-14.081,0.084-16.547c2.219,0,4.439,0,6.877,0c0.221,7.139,0,14.09-0.197,21.042
	c-0.004,0.156-0.24,0.306-0.588,0.721c-0.096-0.708-0.213-1.113-0.194-1.512c0.105-2.414,0.251-4.826,0.364-7.24
	c0.05-1.066,0.093-2.135,0.063-3.202c-0.014-0.501-0.204-0.998-0.326-1.553c-1.031,0.33-0.983,1.012-1.017,1.599
	c-0.066,1.179-0.056,2.362-0.107,3.542c-0.029,0.668-0.12,1.334-0.379,1.996c0-1.375-0.044-2.752,0.012-4.125
	c0.054-1.301,0.054-1.469-0.796-2.744c-0.178,0.317-0.412,0.56-0.444,0.827c-0.143,1.17-0.26,2.346-0.326,3.523
	c-0.129,2.303-0.197,4.609-0.334,6.912C153.595,100.248,153.419,100.947,153.285,101.765z"/>
<path fill-rule="evenodd" clip-rule="evenodd" fill="#faf0e5" class="fill" d="M62.053,75.157c-4.355,1.103-8.595,1.098-12.832,1.035
	c-1.025-3.42,1.151-6.979,4.629-7.594c0.662-0.117,1.333-0.208,2.002-0.237c2.961-0.131,5.922-0.234,8.932-0.033
	c-0.887,0.151-1.773,0.303-2.73,0.466C62.053,70.993,62.053,73.001,62.053,75.157z"/>
<path fill-rule="evenodd" clip-rule="evenodd" fill="#faf0e5" class="fill" d="M66.078,126.229c0.868-0.09,1.525-0.158,2.412-0.25
	c0.154,2.708,0.303,5.305,0.447,7.849c-1.755,0.671-9.738,0.642-11.814-0.005c0.982-1.032,1.934-2.041,2.899-3.038
	c0.105-0.109,0.286-0.146,0.431-0.215c1.272,2.324,2.122,2.815,4.562,2.508C65.361,130.851,65.717,128.559,66.078,126.229z"/>
<path fill-rule="evenodd" clip-rule="evenodd" fill="#faf0e5" class="fill" d="M62.386,122.491c0.408,0,0.786,0,1.167,0
	c0.852,1.559,0.822,6.359-0.053,8.781c-1.828-1.169-2.097-2.353-1.209-5.337c-1.505-0.953-2.59-0.822-3.74,0.742
	c0.201,0.089,0.462,0.201,0.72,0.319c0.247,0.112,0.49,0.23,0.803,0.377c-0.326,1.631-1.449,2.647-2.42,3.836
	c-0.698-1.562-0.774-5.004-0.22-8.137c0.125-0.076,0.26-0.22,0.408-0.237c0.323-0.038,0.654-0.012,0.891-0.012
	c0.138,0.09,0.215,0.111,0.228,0.153c0.13,0.424,0.248,0.851,0.362,1.246c0.629,0.679,1.326,0.594,2.606-0.333
	C62.061,123.485,62.215,123.013,62.386,122.491z"/>
<path fill-rule="evenodd" clip-rule="evenodd" fill="#faf0e5" class="fill" d="M79.137,67.532c-1.08,0.401-2.161,0.802-3.155,1.172
	c-2.788-0.465-4.538,0.278-5.3,2.189c-0.698,1.755-0.329,3.014,1.403,4.19c-1.592,0.366-2.979,0.188-4.536,0.044
	c0-2.36,0-4.625,0-7.082c3.73-0.312,7.603-0.636,11.475-0.959C79.061,67.235,79.1,67.384,79.137,67.532z"/>
<path fill-rule="evenodd" clip-rule="evenodd" fill="#faf0e5" class="fill" d="M59.252,111.424c1.308-0.496,2.474-0.13,3.686,0.247
	c0,1.884,0,3.745,0,5.758c-1.202,0.123-2.235,0.229-3.238,0.332C59.131,115.939,58.906,112.825,59.252,111.424z"/>
<path fill-rule="evenodd" clip-rule="evenodd" fill="#faf0e5" class="fill" d="M52.967,126.548c1.033,0,1.692,0,2.537,0
	c0.127,2.471,0.25,4.886,0.383,7.456c-1.041,0-2.248,0-3.683,0C52.254,131.462,53.068,129.119,52.967,126.548z"/>
<path fill-rule="evenodd" clip-rule="evenodd" fill="#faf0e5" class="fill" d="M50.318,134.164c-0.892,0.079-1.75,0.155-2.718,0.24
	c-0.109-2.687,0.231-5.066,1.517-7.418c0.646-0.066,1.349-0.138,2.027-0.207C51.613,128.383,51.336,130.864,50.318,134.164z"/>
<path fill-rule="evenodd" clip-rule="evenodd" fill="#faf0e5" class="fill" d="M67.575,76.54c1.45,0,2.778,0,4.365,0
	c-1.133,2.938-2.897,5.319-4.365,7.939C67.575,81.873,67.575,79.267,67.575,76.54z"/>
<path fill-rule="evenodd" clip-rule="evenodd" fill="#faf0e5" class="fill" d="M66.036,101.452c-0.696,0.174-1.319,0.33-2.147,0.537
	c-0.291-3.029-0.184-5.832,0.262-8.805c0.656,0.075,1.235,0.141,1.886,0.215C66.036,96.129,66.036,98.738,66.036,101.452z"/>
<path fill-rule="evenodd" clip-rule="evenodd" fill="#faf0e5" class="fill" d="M140.38,60.905c0.017,0.36,0.03,0.63,0.052,1.076
	c-3.331-0.009-6.219-1.293-9.104-2.524c-0.078-0.208-0.187-0.365-0.183-0.518c0.01-0.324,0.079-0.646,0.151-1.16
	C134.383,58.841,137.371,59.87,140.38,60.905z"/>
<path fill-rule="evenodd" clip-rule="evenodd" fill="#faf0e5" class="fill" d="M129.186,49.879c0.957-0.127,1.911-0.331,2.873-0.366
	c2.186-0.08,4.377-0.056,6.563-0.117c1.454-0.041,2.904-0.192,4.357-0.221c0.584-0.011,1.172,0.175,2.022,0.315
	C142.832,50.537,131.014,50.921,129.186,49.879z"/>
<path fill-rule="evenodd" clip-rule="evenodd" fill="#faf0e5" class="fill" d="M75.461,70.032c0.722,1.104,0.704,2.15-0.242,3.036
	c-0.959,0.158-1.805,0.297-2.714,0.447c-0.89-0.705-1.032-1.523-0.4-2.646C72.784,69.661,73.781,69.403,75.461,70.032z"/>
<path fill-rule="evenodd" clip-rule="evenodd" fill="#faf0e5" class="fill" d="M131.884,53.733c2.892,0.626,5.469,1.957,7.852,3.7
	C136.931,56.626,134.096,55.886,131.884,53.733z"/>
<path fill-rule="evenodd" clip-rule="evenodd" fill="#faf0e5" class="fill" d="M66.045,69.443c0.082,0.822,0.146,1.466,0.21,2.101
	c-0.876,0.825-1.804,0.401-2.782,0.335c0-0.68,0-1.321,0-2.045C64.298,69.708,65.05,69.594,66.045,69.443z"/>
<path fill-rule="evenodd" clip-rule="evenodd" fill="#faf0e5" class="fill" d="M131.39,60.884c2.122,0.739,4.244,1.477,6.532,2.273
	c-2.469,0.786-4.311-0.704-6.332-1.256c-0.201-0.054-0.301-0.479-0.447-0.733C131.225,61.074,131.308,60.979,131.39,60.884z"/>
<path fill-rule="evenodd" clip-rule="evenodd" fill="#faf0e5" class="fill" d="M131.422,55.606c2.83,1.181,5.484,2.289,8.137,3.396
	c-0.015,0.059-0.03,0.117-0.046,0.176c-0.394-0.096-0.794-0.165-1.177-0.291c-1.909-0.627-3.826-1.233-5.71-1.928
	C132.11,56.77,131.24,56.722,131.422,55.606z"/>
<path fill-rule="evenodd" clip-rule="evenodd" fill="#faf0e5" class="fill" d="M69.66,116.827c-1.409-0.83-0.577-2.035-0.811-3.093
	c0.429-0.192,0.803-0.361,1.104-0.496C70.659,113.678,70.496,115.4,69.66,116.827z"/>
<path fill-rule="evenodd" clip-rule="evenodd" fill="#faf0e5" class="fill" d="M139.99,55.855c-1.269-0.622-2.28-1.118-3.63-1.779
	C138.666,53.74,139.74,54.249,139.99,55.855z"/>
<path fill-rule="evenodd" clip-rule="evenodd" fill="#faf0e5" class="fill" d="M154.903,101.379c0.077-0.534,0.155-1.068,0.233-1.602
	c0.147,0.015,0.295,0.03,0.442,0.045c-0.035,0.533-0.071,1.065-0.106,1.598C155.283,101.407,155.093,101.394,154.903,101.379z"/>
<path fill-rule="evenodd" clip-rule="evenodd" fill="#faf0e5" class="fill" d="M135.104,47.409c0-0.757,0-1.301,0-1.846
	C135.733,46.132,135.894,46.684,135.104,47.409z"/>
<path fill-rule="evenodd" clip-rule="evenodd" fill="#faf0e5" class="fill" d="M123.889,80.067c-1.101,0.76-1.814,1.253-2.668,1.842
	c1.396,0.997,2.153-0.478,3.289-0.506c0.172,0.531,0.353,1.091,0.536,1.662c-0.962,0.254-1.769,0.454-2.565,0.69
	c-0.131,0.039-0.215,0.236-0.369,0.417c0.92,1.086,2-0.091,3.156,0.259c-0.175,0.639-0.335,1.231-0.5,1.839
	c-1.016-0.226-1.863-0.416-2.874-0.641c0.2,1.242,1.415,1.074,1.917,2.027c-0.533,0.465-1.111,0.97-1.854,1.617
	c-0.229-0.638-0.327-1.003-0.489-1.338c-0.152-0.317-0.37-0.604-0.597-0.963c-1.042,0.694-0.382,1.667-0.78,2.595
	c-0.396,0.044-0.907,0.101-1.379,0.154c-0.322-0.875,0.505-1.833-0.737-2.538c-0.357,0.841-0.688,1.621-1.099,2.583
	c-0.648-0.116-1.33-0.239-2.076-0.373c0.104-1.021,1.567-1.181,1.184-2.386c-1.103-0.026-1.705,1.023-2.818,1.236
	c-0.246-0.317-0.535-0.689-0.828-1.065c1.113-0.502,2.104-0.949,3.41-1.538c-1.443-0.768-2.479,0.422-3.65-0.104
	c0-0.458,0-0.973,0-1.564c1.272,0.036,2.46,0.647,3.842,0.047c-1.014-1.056-2.453-0.61-3.543-1.468
	c0.253-0.42,0.52-0.862,0.785-1.302c1.014,0.354,1.881,0.656,2.747,0.959c0.069-0.117,0.139-0.234,0.208-0.351
	c-0.544-0.504-1.088-1.007-1.762-1.632c0.397-0.255,0.729-0.466,1.043-0.668c0.653,0.762,1.212,1.414,1.867,2.179
	c0.295-1.021,0.295-1.021-0.197-2.755c0.91-0.148,1.796-0.293,2.999-0.49c-0.432,1.01-0.728,1.705-1.095,2.566
	c0.455,0.128,0.827,0.234,1.292,0.365c0.389-0.9,0.717-1.66,1.134-2.625C122.155,79.176,122.855,79.536,123.889,80.067z"/>
<path fill-rule="evenodd" clip-rule="evenodd" fill="#faf0e5" class="fill" d="M137.717,79.594c-0.539,0.999-1.062,1.969-1.645,3.054
	c0.352,0.133,0.674,0.255,1.081,0.41c0.678-0.976,1.309-1.884,1.936-2.788c3.604,2.276,3.525,6.403-0.061,8.429
	c-1.568,0.887-3.257,1.271-5.029,1.107c-2.647-0.246-5.075-2.105-3.984-5.8c0.799-2.706,2.853-4.058,5.355-4.861
	C136.111,78.907,136.92,78.979,137.717,79.594z"/>
<path fill-rule="evenodd" clip-rule="evenodd" fill="#faf0e5" class="fill" d="M120.207,117.984c0-1.562,0-2.872,0-4.318
	c3.851-0.518,7.65-0.398,11.45-0.137c0.01,0.125,0.021,0.25,0.029,0.374c-1.182,0.191-2.365,0.382-3.644,0.588
	c0,0.733,0,1.377,0,2.113c1.678,0.772,3.391,0.318,5.083,0.061c0.441-0.067,0.845-0.377,1.378-0.629
	c-0.302-0.946-0.55-1.723-0.823-2.577c0.608-0.134,0.937,0.047,0.95,0.616c0.025,1.058,0.007,2.116,0.007,3.166
	c-0.361,0.157-0.612,0.356-0.869,0.364C129.352,117.741,124.936,117.855,120.207,117.984z"/>
<path fill-rule="evenodd" clip-rule="evenodd" fill="#faf0e5" class="fill" d="M90.486,82.545c-0.059-0.815,0.509-1.2,1.1-1.539
	c0.581-0.334,1.191-0.618,1.881-0.972c0.996,0.151,2.053,0.276,3.092,0.479c1.526,0.298,2.478,1.295,2.909,2.733
	c0.451,1.502-0.321,2.613-1.413,3.52c-1.603,1.33-3.424,1.865-5.492,1.358c-2.647-0.649-3.652-3.433-2.035-5.628
	c0.089,1.13,0.541,1.984,1.75,2.311c1.214-0.491,1.463-1.485,1.518-2.692C92.574,81.841,91.545,82.312,90.486,82.545z"/>
<path fill-rule="evenodd" clip-rule="evenodd" fill="#faf0e5" class="fill" d="M133.964,103.901c0.142,1.364,0.272,2.611,0.42,4.03
	c-4.913,0.142-9.631,0.279-14.474,0.419c0-1.424,0-2.67,0-4.089C124.619,103.963,129.216,103.469,133.964,103.901z M126.124,107.157
	c-0.312-0.901-0.534-1.546-0.754-2.184c-1.566,0-2.952,0-4.526,0c-0.122,0.819-0.232,1.554-0.365,2.441
	C122.437,107.751,124.141,107.189,126.124,107.157z"/>
</svg>
