<svg version="1.1" id="svg" xmlns="http://www.w3.org/2000/svg" xmlns:xlink="http://www.w3.org/1999/xlink" x="0px" y="0px"
	 width="200px" height="200px" viewBox="0 0 200 200" enable-background="new 0 0 200 200" xml:space="preserve">
<path class="stroke" fill="#2a374b"  d="M176.808,101.362c-1.137-1.771-2.233-3.563-3.354-5.345c-2.374-3.77-4.735-7.546-7.136-11.297
	c-1.213-1.897-2.484-3.759-3.759-5.613c-0.887-1.29-1.862-2.52-2.735-3.818c-1.972-2.927-3.863-5.905-5.864-8.811
	c-1.581-2.297-3.308-4.491-4.913-6.771c-1.406-1.995-2.733-4.044-4.112-6.093c-1.138,0-2.165-0.067-3.18,0.012
	c-3.122,0.244-6.234,0.688-9.358,0.787c-4.311,0.137-8.566,0.719-12.843,1.173c-2.372,0.253-4.673,0.858-7.105,0.924
	c-3.705,0.1-7.397,0.715-11.091,1.154c-1.698,0.201-3.38,0.531-5.075,0.758c-3.15,0.422-6.309,0.791-9.459,1.222
	c-4.654,0.636-9.303,1.318-13.956,1.958c-2.129,0.294-4.271,0.505-6.399,0.807c-1.112,0.158-2.206,0.452-3.315,0.645
	c-2.069,0.356-4.148,0.661-6.217,1.03c-1.734,0.311-3.46,0.677-5.188,1.03c-4.553,0.931-9.108,1.85-13.655,2.809
	c-2.873,0.606-5.735,1.263-8.598,1.924c-1.711,0.395-3.409,0.839-5.022,1.239c-0.35,0.521-0.783,0.896-0.867,1.338
	c-0.41,2.159-0.728,4.336-1.121,6.771c1.305,4.115,2.605,8.479,4.077,12.784c1.805,5.282,3.727,10.524,5.651,15.764
	c1.013,2.754,2.159,5.457,3.21,8.196c1.475,3.842,2.869,7.714,4.384,11.539c1.423,3.594,2.936,7.155,4.454,10.711
	c0.961,2.253,1.944,4.496,3.022,6.694c1.399,2.854,2.882,5.668,4.369,8.478c0.493,0.934,1.112,1.8,1.693,2.729
	c0.631-0.082,1.129-0.072,1.578-0.217c3.308-1.063,6.641-2.064,9.901-3.263c4.131-1.519,8.193-3.226,12.301-4.811
	c4.153-1.602,8.191-3.512,12.513-4.657c0.282-0.075,0.55-0.206,0.819-0.323c3.95-1.723,7.874-3.511,11.854-5.154
	c5.154-2.13,10.339-4.182,15.539-6.198c3.648-1.415,7.357-2.672,11.012-4.074c4.934-1.896,9.844-3.854,14.76-5.798
	c1.818-0.719,3.602-1.533,5.441-2.191c3.407-1.219,6.844-2.354,10.27-3.522c3.192-1.088,6.4-2.136,9.575-3.271
	c2.195-0.785,4.35-1.691,6.438-2.51c0.218-0.669,0.386-1.127,0.519-1.596c0.414-1.458,0.744-2.944,1.243-4.371
	C177.466,103.111,177.378,102.251,176.808,101.362z"/>
<path fill-rule="evenodd" clip-rule="evenodd" fill="#eef9fc" class="fill" d="M143.476,56.097c0.435,0.721,0.922,1.614,1.489,2.453
	c1.261,1.863,2.567,3.694,3.844,5.548c1.775,2.578,3.533,5.167,5.309,7.745c2.056,2.986,4.123,5.964,6.186,8.946
	c1.922,2.778,3.891,5.525,5.758,8.341c2.65,3.996,5.23,8.041,7.835,12.067c0.157,0.245,0.28,0.512,0.511,0.938
	c-0.431,0.239-0.812,0.506-1.234,0.679c-3.076,1.255-6.147,2.521-9.246,3.719c-1.686,0.65-3.426,1.157-5.135,1.748
	c-2.769,0.956-5.505,2.012-8.301,2.876c-6.037,1.864-11.881,4.241-17.747,6.564c-2.411,0.954-4.845,1.854-7.271,2.771
	c-6.813,2.572-13.64,5.11-20.438,7.725c-3.743,1.437-7.418,3.051-11.162,4.488c-3.79,1.455-7.636,2.763-11.441,4.183
	c-2.607,0.976-5.181,2.042-7.777,3.046c-2.418,0.934-4.841,1.854-7.271,2.752c-3.853,1.423-7.713,2.825-11.572,4.23
	c-0.445,0.162-0.904,0.286-1.402,0.442c-0.263-0.435-0.51-0.742-0.653-1.093c-2.375-5.854-4.739-11.713-7.1-17.572
	c-2.253-5.59-4.521-11.172-6.733-16.776c-0.914-2.316-1.749-4.655-2.453-7.06c-1.566-5.356-3.429-10.622-5.654-15.754
	c-0.756-1.742-1.209-3.613-1.83-5.414c-0.415-1.203-0.861-2.396-1.329-3.581c-0.845-2.142-1.719-4.271-2.568-6.413
	c-0.088-0.219-0.089-0.472-0.144-0.782c0.27-0.133,0.505-0.312,0.77-0.374c6.391-1.482,12.764-3.052,19.185-4.398
	c6.135-1.287,12.296-2.465,18.485-3.456c4.59-0.734,9.242-1.07,13.863-1.628c2.283-0.275,4.55-0.678,6.832-0.969
	c2.476-0.317,4.963-0.565,7.443-0.856c4.035-0.473,8.065-0.98,12.102-1.43c4.867-0.542,9.741-1.026,14.608-1.564
	c1.313-0.146,2.613-0.414,3.924-0.597c1.791-0.252,3.58-0.541,5.381-0.7c3.026-0.269,6.062-0.434,9.091-0.671
	c0.974-0.076,1.938-0.304,2.912-0.345C141.395,55.891,142.258,56.018,143.476,56.097z M35.955,78.649
	c0.277,1.479,0.496,3.425,1.019,5.286c1.426,5.068,3.004,10.09,4.946,14.995c1.365,3.447,2.556,6.963,3.888,10.425
	c1.458,3.79,2.913,7.586,4.516,11.315c1.062,2.469,2.428,4.805,3.571,7.24c1.034,2.203,2.478,4.113,4.105,5.875
	c0.672,0.726,1.58,1.358,2.504,1.704c2.293,0.861,4.724,0.853,7.064,0.296c5.283-1.259,10.438-2.954,15.504-4.923
	c3.693-1.436,7.421-2.785,11.129-4.186c1.963-0.743,3.935-1.466,5.866-2.285c2.473-1.049,4.919-2.162,7.354-3.293
	c1.416-0.656,2.792-1.396,4.177-2.114c0.963-0.498,1.484-1.302,1.851-2.338c0.878-2.488,0.376-4.868-0.515-7.161
	c-1.222-3.14-2.564-6.234-3.988-9.288c-2.582-5.543-5.252-11.045-7.911-16.553c-0.51-1.056-1.143-2.051-1.708-3.081
	c-2.002-3.643-3.958-7.313-6.025-10.919c-0.574-1.002-1.45-1.84-2.238-2.707c-0.72-0.791-1.635-1.155-2.732-1.232
	c-3.365-0.239-6.622,0.311-9.849,1.185c-0.845,0.229-1.707,0.407-2.564,0.58c-2.306,0.455-4.612,0.891-6.917,1.346
	c-1.773,0.349-3.537,0.749-5.317,1.061c-1.589,0.277-3.201,0.423-4.791,0.698c-2.844,0.494-5.684,1.003-8.511,1.576
	c-3.305,0.672-6.596,1.408-9.888,2.137C38.315,74.769,36.819,76.044,35.955,78.649z M125.285,110.764
	c0.828-0.163,1.448-0.271,2.061-0.409c1.049-0.237,2.092-0.498,3.141-0.744c1.997-0.47,4.007-0.894,5.993-1.409
	c3.601-0.934,7.198-1.889,10.78-2.891c5.934-1.662,11.858-3.355,17.778-5.062c1.259-0.362,1.462-1.112,0.637-2.455
	c-0.451,0.094-0.981,0.134-1.462,0.311c-5.889,2.176-12.05,3.366-18.093,4.988c-2.407,0.647-4.847,1.177-7.261,1.807
	c-4.208,1.103-8.408,2.235-12.608,3.373c-0.542,0.147-1.055,0.397-1.757,0.667C124.783,109.609,125,110.109,125.285,110.764z
	 M163.403,93.016c-0.767-0.565-1.476-0.58-2.293-0.369c-2.652,0.681-5.317,1.312-7.986,1.928c-2.999,0.693-6.016,1.307-9.005,2.034
	c-2.088,0.509-4.132,1.194-6.214,1.73c-5.115,1.311-10.241,2.574-15.358,3.878c-0.337,0.086-0.631,0.342-0.888,0.487
	c0.105,1.086,0.592,1.598,1.327,1.683c3.006-0.743,5.851-1.428,8.686-2.151c5.3-1.354,10.594-2.733,15.894-4.093
	c0.901-0.229,1.817-0.395,2.723-0.609c1.522-0.361,3.042-0.728,4.559-1.11c0.899-0.229,1.783-0.525,2.686-0.74
	c1.427-0.34,2.873-0.604,4.295-0.962C162.635,94.516,163.439,94.209,163.403,93.016z M116.531,92.829
	c2.488-0.51,4.878-0.982,7.261-1.493c2.868-0.616,5.718-1.316,8.595-1.887c3.648-0.722,7.314-1.337,10.851-2.548
	c1.197-0.41,2.462-0.632,3.701-0.914c2.242-0.51,4.495-0.979,6.732-1.509c0.661-0.156,1.313-0.405,1.918-0.714
	c0.252-0.127,0.368-0.52,0.581-0.843c-0.314-0.395-0.578-0.725-0.812-1.021c-13.062,2.938-26.019,5.853-38.926,8.756
	c-0.292,0.412-0.51,0.721-0.75,1.06C115.951,92.069,116.185,92.373,116.531,92.829z M159.079,86.89
	c-0.793,0.13-1.414,0.181-2.011,0.335c-4.681,1.209-9.343,2.49-14.038,3.645c-3.7,0.908-7.458,1.589-11.153,2.515
	c-3.979,0.996-7.916,2.151-11.862,3.267c-0.434,0.122-0.81,0.442-1.285,0.712c0.284,0.524,0.485,0.895,0.716,1.32
	c0.492-0.025,0.939,0.017,1.354-0.081c1.514-0.354,3.021-0.742,4.526-1.139c4.725-1.243,9.431-2.56,14.173-3.729
	c5.079-1.255,10.193-2.368,15.287-3.565c1.188-0.278,2.365-0.616,3.528-0.986c0.383-0.121,0.709-0.425,1.089-0.661
	C159.294,87.974,159.211,87.558,159.079,86.89z M113.945,88.284c1.573-0.308,3.001-0.557,4.416-0.869
	c3.621-0.803,7.249-1.582,10.852-2.465c4.083-1,8.137-2.122,12.212-3.159c3.601-0.916,7.212-1.786,10.732-2.655
	c0.562-0.484,0.712-1.051,0.275-1.478c-0.294-0.288-0.905-0.473-1.309-0.389c-1.523,0.322-3.019,0.777-4.529,1.173
	c-2.176,0.568-4.344,1.17-6.533,1.68c-4.048,0.943-8.114,1.806-12.163,2.743c-4.426,1.024-8.842,2.09-13.26,3.151
	c-0.411,0.1-0.798,0.301-1.361,0.518C113.513,87.149,113.704,87.649,113.945,88.284z M109.821,77.62
	c12.438-2.688,24.699-5.336,37.062-8.009c0.071-0.464,0.133-0.867,0.182-1.181c-0.571-0.59-1.081-0.628-1.718-0.493
	c-2.246,0.479-4.511,0.872-6.764,1.324c-4.263,0.855-8.523,1.717-12.781,2.6c-1.195,0.247-2.368,0.604-3.562,0.863
	c-4.203,0.906-8.415,1.782-12.617,2.695c-0.601,0.13-1.27,0.248-1.524,0.941C108.273,77.397,109.095,77.475,109.821,77.62z
	 M103.218,67.323c0.681,0.076,1.248,0.237,1.793,0.183c1.214-0.127,2.422-0.333,3.624-0.559c3.415-0.64,6.817-1.354,10.24-1.95
	c2.796-0.487,5.627-0.777,8.42-1.276c4.48-0.801,8.941-1.704,13.53-2.586c0.279-0.232,0.648-0.543,1.118-0.936
	c-0.176-0.404-0.336-0.773-0.523-1.205c-0.642,0.044-1.179,0.023-1.692,0.123c-3.167,0.615-6.319,1.309-9.493,1.879
	c-4.668,0.842-9.347,1.62-14.026,2.393c-3.666,0.604-7.343,1.14-11.008,1.756c-0.691,0.116-1.344,0.465-1.982,0.695
	C103.218,66.361,103.218,66.691,103.218,67.323z M148.971,72.438c-0.646,0.056-1.234,0.032-1.784,0.168
	c-1.422,0.353-2.819,0.812-4.242,1.16c-5.501,1.348-11.007,2.676-16.516,3.996c-4.752,1.139-9.509,2.257-14.264,3.388
	c-0.526,0.126-1.082,0.235-1.336,1.176c0.294,0.293,0.589,0.585,0.858,0.854c3.041-0.626,5.827-1.132,8.581-1.779
	c5.899-1.39,11.777-2.874,17.676-4.272c3.187-0.756,6.402-1.391,9.593-2.131c0.721-0.168,1.612-0.177,1.97-1.296
	C149.378,73.396,149.195,72.966,148.971,72.438z M106.768,73.204c12.62-2.398,24.874-5.5,37.182-7.894
	c0.379-0.817,0.216-1.29-0.534-1.59c-0.187,0.023-0.429,0.041-0.665,0.086c-5.67,1.079-11.344,2.125-17.002,3.252
	c-5.56,1.108-11.107,2.286-16.652,3.468c-0.934,0.198-1.829,0.573-2.903,0.917C106.396,72.063,106.535,72.49,106.768,73.204z"/>
<path fill-rule="evenodd" clip-rule="evenodd" fill="#eef9fc" class="fill" d="M173.33,105.449c0.136,1.286-0.121,2.392-0.788,3.571
	c-1.991,0.704-4.06,1.451-6.138,2.169c-3.739,1.295-7.489,2.562-11.229,3.862c-3.975,1.38-7.97,2.709-11.903,4.196
	c-8.419,3.186-16.798,6.477-25.207,9.684c-4.202,1.604-8.449,3.086-12.651,4.687c-2.743,1.043-5.438,2.215-8.164,3.307
	c-5.396,2.158-10.806,4.284-16.196,6.46c-2.494,1.006-4.92,2.191-7.44,3.125c-4.311,1.596-8.671,3.064-13.015,4.574
	c-1.614,0.562-3.236,1.097-4.86,1.628c-0.31,0.102-0.643,0.128-1.174,0.229c0.214-1.328,0.401-2.509,0.571-3.564
	c3.874-1.359,7.613-2.648,11.334-3.98c5.53-1.98,11.062-3.961,16.569-6c3.944-1.46,7.841-3.045,11.778-4.524
	c2.747-1.032,5.553-1.915,8.285-2.985c2.872-1.124,5.659-2.465,8.533-3.58c3.285-1.273,6.635-2.375,9.936-3.604
	c2.431-0.906,4.818-1.921,7.242-2.842c4.484-1.703,8.985-3.366,13.474-5.062c1.877-0.708,3.732-1.471,5.605-2.188
	c4.568-1.751,9.124-3.534,13.717-5.219c3.534-1.296,7.115-2.466,10.678-3.684C172.601,105.601,172.931,105.547,173.33,105.449z"/>
<path fill-rule="evenodd" clip-rule="evenodd" fill="#eef9fc" class="fill" d="M43.964,96.898c1.601-0.772,2.987-1.633,4.496-2.13
	c4.923-1.622,9.761-3.542,14.884-4.509c1.73-0.326,3.462-0.645,5.182-1.018c2.294-0.497,4.583-1.021,6.865-1.575
	c1.594-0.388,3.19-0.48,4.799-0.212c0.416,0.071,0.818,0.288,1.198,0.488c1.021,0.537,2.068,0.861,3.188,0.586
	c0.756-0.68,0.517-1.49,0.131-2.05c-0.565-0.823-0.538-1.666-0.471-2.531c0.174-2.245,0.426-4.483,0.61-6.728
	c0.206-2.486,0.364-4.976,0.562-7.462c0.043-0.523,0.168-1.038,0.248-1.517c1.479-0.527,2.702-0.352,3.994,0.705
	c-1.649,7.561-2.655,15.306-4.681,23.11c5.36,9.482,10.353,19.419,14.994,29.777c-1.442,0.523-2.709,0.996-3.987,1.442
	c-1.658,0.578-3.327,1.124-4.987,1.703c-1.246,0.435-2.499,0.857-3.722,1.354c-4.941,2.006-9.862,4.069-15.042,5.412
	c-2.126,0.552-4.249,1.109-6.382,1.636c-2.718,0.669-5.062-0.075-6.966-2.066c-1.251-1.309-2.247-2.803-3.01-4.483
	c-0.867-1.912-2.103-3.66-2.928-5.587c-1.521-3.55-2.9-7.164-4.264-10.778c-1.206-3.204-2.322-6.442-3.456-9.675
	C44.789,99.559,44.416,98.304,43.964,96.898z M78.314,106.534c0.375-0.225,0.615-0.391,0.874-0.519
	c1.659-0.814,2.597-2.112,2.822-3.969c0.204-1.681,0.044-3.326-0.466-4.913c-0.457-1.417-1.33-2.677-2.527-3.517
	c-3.044-2.134-7.366-0.335-8.777,2.52c-1.09,2.207-1.016,4.439-0.109,6.676c0.749,1.845,2.023,3.128,4.059,3.404
	C75.586,106.406,77.001,106.439,78.314,106.534z"/>
<path fill-rule="evenodd" clip-rule="evenodd" fill="#eef9fc" class="fill" d="M69.485,86.692c-2.227,0.499-4.341,0.974-6.586,1.477
	c-0.3-5.337-0.117-10.437,0.197-15.667c2.102-0.369,4.152-0.729,6.389-1.123c0,2.721,0,5.234,0,7.748
	C69.485,81.609,69.485,84.092,69.485,86.692z"/>
<path fill-rule="evenodd" clip-rule="evenodd" fill="#eef9fc" class="fill" d="M93.602,74.607c1.505,1.549,1.881,3.484,2.9,5.093
	c-1.798,6.323-3.163,12.762-5.152,19.247c-0.944-1.069-1.594-2.045-1.437-3.274c0.419-3.299,0.853-6.6,1.406-9.878
	c0.569-3.37,1.286-6.717,1.947-10.071C93.328,75.413,93.447,75.113,93.602,74.607z"/>
<path fill-rule="evenodd" clip-rule="evenodd" fill="#eef9fc" class="fill" d="M82.523,85.173c-1.314-0.075-2.468-0.142-3.834-0.219
	c0.217-5.278,0.574-10.419,1.05-15.632c1.431-0.362,2.742-0.692,4.312-1.088C83.531,73.991,83.268,79.571,82.523,85.173z"/>
<path fill-rule="evenodd" clip-rule="evenodd" fill="#eef9fc" class="fill" d="M102.123,90.713c-2.311,5.301-4.546,10.435-6.865,15.758
	c-1.017-1.127-1.403-2.119-1.08-3.378c1.42-5.532,2.811-11.075,4.231-16.608c0.14-0.546,0.41-1.059,0.718-1.836
	C100.593,86.609,100.715,88.896,102.123,90.713z"/>
<path fill-rule="evenodd" clip-rule="evenodd" fill="#eef9fc" class="fill" d="M97.38,110.146c-0.368-0.524-0.577-0.826-0.699-1
	c2.273-5.126,4.49-10.122,6.818-15.369c0.674,1.279,1.245,2.364,1.909,3.624C102.771,101.588,100.128,105.782,97.38,110.146z"/>
<path fill-rule="evenodd" clip-rule="evenodd" fill="#eef9fc" class="fill" d="M74.876,85.411c-0.328,0.06-0.602,0.109-0.955,0.174
	c-0.171-0.33-0.45-0.62-0.45-0.909c0.012-4.596,0.059-9.192,0.102-13.789c0.001-0.09,0.064-0.181,0.137-0.369
	c0.215-0.054,0.485-0.132,0.762-0.184c0.282-0.053,0.569-0.076,1.039-0.136c0.024,0.576,0.088,1.091,0.062,1.603
	c-0.121,2.439-0.272,4.88-0.398,7.319C75.067,81.159,74.98,83.198,74.876,85.411z"/>
<path fill-rule="evenodd" clip-rule="evenodd" fill="#eef9fc" class="fill" d="M55.754,89.728c-0.487,0.128-0.85,0.225-1.215,0.322
	c-0.509-2.463-0.476-14.398,0.051-16.222c0.293,0.015,0.606,0.03,1.115,0.056c0,1.185-0.022,2.298,0.006,3.41
	c0.077,3.082,0.199,6.163,0.251,9.244C55.979,87.556,55.833,88.577,55.754,89.728z"/>
<path fill-rule="evenodd" clip-rule="evenodd" fill="#eef9fc" class="fill" d="M74.74,97.512c-0.805-0.653-1.371-1.111-2.155-1.747
	c0.918-0.41,1.591-0.712,2.562-1.146C74.999,95.666,74.893,96.428,74.74,97.512z"/>
<path fill-rule="evenodd" clip-rule="evenodd" fill="#eef9fc" class="fill" d="M78.02,102.035c0.464,0.445,0.928,0.89,1.522,1.46
	c-0.513,0.312-0.862,0.522-1.202,0.728c-0.762-0.6-0.653-1.315-0.633-2.009C77.812,102.154,77.915,102.095,78.02,102.035z"/>
<path fill-rule="evenodd" clip-rule="evenodd" fill="#eef9fc" class="fill" d="M80.367,100.725c-0.039,0.36-0.08,0.746-0.152,1.407
	c-0.767-0.573-1.311-0.979-2.076-1.554C79.059,100.219,79.647,100.357,80.367,100.725z"/>
<path fill-rule="evenodd" clip-rule="evenodd" fill="#eef9fc" class="fill" d="M73.558,98.601c-0.837,0-1.308,0-1.958,0
	c0.128-0.493,0.228-0.876,0.415-1.599C72.597,97.605,72.975,97.996,73.558,98.601z"/>
<path fill-rule="evenodd" clip-rule="evenodd" fill="#eef9fc" class="fill" d="M75.708,98.527c0.499,0.351,0.804,0.566,1.213,0.855
	c-0.111,0.367-0.224,0.737-0.354,1.166C75.521,100.149,75.593,99.461,75.708,98.527z"/>
<path fill-rule="evenodd" clip-rule="evenodd" fill="#eef9fc" class="fill" d="M74.142,103.676c-0.518-0.455-0.812-0.712-1.24-1.087
	c0.522-0.39,0.922-0.686,1.319-0.981c0.091,0.047,0.184,0.092,0.275,0.138C74.396,102.294,74.295,102.842,74.142,103.676z"/>
<path fill-rule="evenodd" clip-rule="evenodd" fill="#eef9fc" class="fill" d="M78.821,95.797c0.24,0.336,0.423,0.591,0.668,0.934
	c-0.46,0.354-0.862,0.667-1.438,1.111C78.067,96.945,78.371,96.414,78.821,95.797z"/>
<path fill-rule="evenodd" clip-rule="evenodd" fill="#eef9fc" class="fill" d="M72.128,101.379c-0.125-0.555-0.192-0.851-0.296-1.309
	c0.658,0,1.188,0,1.716,0c0.035,0.083,0.069,0.166,0.103,0.249C73.213,100.624,72.774,100.929,72.128,101.379z"/>
<path fill-rule="evenodd" clip-rule="evenodd" fill="#eef9fc" class="fill" d="M76.434,96.481c0.051-0.583,0.102-1.165,0.158-1.817
	c0.845,0.439,0.845,0.439,0.148,1.844C76.638,96.5,76.535,96.49,76.434,96.481z"/>
<path fill-rule="evenodd" clip-rule="evenodd" fill="#eef9fc" class="fill" d="M76.102,103.086c0.082,0.335,0.163,0.672,0.267,1.096
	c-0.271-0.025-0.503-0.013-0.515-0.056c-0.086-0.332-0.127-0.677-0.184-1.017C75.814,103.102,75.958,103.093,76.102,103.086z"/>
<path fill-rule="evenodd" clip-rule="evenodd" fill="#eef9fc" class="fill" d="M80.062,98.148c0.104,0.379,0.153,0.549,0.24,0.856
	c-0.385-0.025-0.678-0.044-1.262-0.082C79.462,98.603,79.687,98.431,80.062,98.148z"/>
</svg>
