<svg version="1.1" id="svg" xmlns="http://www.w3.org/2000/svg" xmlns:xlink="http://www.w3.org/1999/xlink" x="0px" y="0px"
	 width="200px" height="200px" viewBox="0 0 200 200" enable-background="new 0 0 200 200" xml:space="preserve">
<path class="stroke" fill="#51575c"  fill-rule="evenodd" clip-rule="evenodd" d="M156.12,85.314c0.205,0.276,0.373,0.506,0.481,0.652
	c-0.02,0.426-0.035,0.763-0.058,1.254c-0.705,0.602-1.796,0.4-2.718,0.778c0.547,0,1.094,0.005,1.641-0.001
	c0.544-0.006,0.708,0.113,0.854,0.645c0.091,0.33,0.181,0.66,0.286,1.046c-1.077,0.464-2.204,0.496-3.298,0.714
	c1.132-0.101,2.267,0.248,3.521,0.004c0.892,0.714,2.128,0.432,3.267,0.616c1.446,0.233,2.903,0.427,4.251,1.023
	c0.338,0.149,0.575,0.524,0.907,0.842c-0.282,0.565-0.537,1.118-0.838,1.645c-0.051,0.089-0.309,0.103-0.462,0.082
	c-0.65-0.088-1.297-0.198-1.942-0.309c-0.988-0.17-1.969-0.385-2.962-0.513c-1.566-0.2-3.137-0.369-4.711-0.504
	c-0.723-0.062-1.456-0.011-2.201-0.011c1.246,0.404,2.491,0.809,3.837,1.246c-0.07,0.346-0.141,0.698-0.221,1.095
	c-0.16,0.024-0.311,0.079-0.458,0.067c-0.484-0.04-0.971-0.091-1.452-0.161c-1.376-0.199-2.782-0.29-4.119-0.644
	c-2.056-0.544-4.153-0.73-6.244-0.996c-0.368-0.047-0.736-0.094-1.121-0.143c-0.482,1.249-1.587,0.79-2.485,1.048
	c0.514,0.129,1.02,0.32,1.541,0.376c1.698,0.181,3.403,0.306,5.104,0.466c0.282,0.026,0.567,0.096,0.832,0.195
	c0.101,0.038,0.23,0.236,0.207,0.324c-0.144,0.547-0.329,1.083-0.542,1.758c-1.814-1.13-3.763-0.961-5.74-0.998
	c0.079,0.324,0.146,0.607,0.246,1.019c-1.573,0.157-3.105,0.308-4.637,0.46c-0.003,0.041-0.005,0.081-0.008,0.122
	c0.369,0.049,0.739,0.083,1.104,0.15c0.523,0.095,1.049,0.184,1.557,0.332c0.689,0.2,0.931,0.587,0.905,1.31
	c-0.201,0.458-0.667,0.373-0.987,0.365c-1.073-0.026-2.147-0.126-3.215-0.247c-1.138-0.129-2.27-0.316-3.405-0.476
	c-0.068-0.01-0.141,0.005-0.271,0.01c0.501,0.695-0.014,1.158-0.335,1.734c-1.853,0-3.725,0-5.596,0
	c-0.016,0.03-0.032,0.061-0.047,0.091c0.199,0.106,0.388,0.239,0.599,0.313c0.676,0.237,1.349,0.496,2.043,0.662
	c0.676,0.162,1.375,0.25,2.069,0.313c0.662,0.06,0.986,0.546,0.634,1.09c-0.095,0.145-0.343,0.254-0.528,0.264
	c-1.489,0.083-2.953-0.146-4.403-0.444c-2.663-0.55-5.223-1.448-7.765-2.393c-0.659-0.244-1.284-0.569-2.061-0.524
	c0.403,0.939-0.038,1.812-0.154,2.7c-0.077,0.598-0.732,0.91-1.415,0.83c-2.023-0.235-4.047-0.468-6.075-0.671
	c-0.578-0.058-1.167-0.009-1.8-0.009c0.07,0.083,0.091,0.135,0.124,0.144c0.893,0.255,1.8,0.468,2.678,0.767
	c1.029,0.35,2.028,0.781,3.047,1.159c0.683,0.255,1.377,0.479,2.067,0.715c0.404,0.139,0.809,0.275,1.247,0.425
	c0.038,0.434,0.054,0.833-0.443,1.172c-0.515-0.094-1.092-0.19-1.667-0.304c-2.053-0.407-4.121-0.748-6.149-1.251
	c-2.45-0.607-4.835-1.438-7.177-2.392c-0.401-0.163-0.905-0.074-1.36-0.102c-1.246-0.075-2.491-0.152-3.737-0.224
	c-0.208-0.012-0.417-0.002-0.626-0.002c-0.01,0.04-0.021,0.079-0.031,0.119c0.362,0.128,0.719,0.277,1.087,0.382
	c1.708,0.488,3.441,0.889,5.063,1.652c0.59,0.278,1.254,0.396,1.865,0.633c0.272,0.106,0.5,0.331,0.741,0.497
	c-0.086,0.349-0.148,0.596-0.222,0.891c0.247-0.042,0.518-0.017,0.706-0.13c0.631-0.377,1.287-0.264,1.929-0.129
	c0.253,0.054,0.468,0.299,0.76,0.497c-0.036,0.501-0.07,0.982-0.107,1.511c0.835,0.546,0.848,0.615,0.133,1.218
	c0.294,0.088,0.568,0.17,0.849,0.253c0.037,0.732,0.159,1.428-0.411,1.99c0.444,0.191,0.86,0.371,1.36,0.586
	c-0.32,0.997-1.267,0.854-1.978,1.213c0.513,0.15,0.957,0.28,1.416,0.415c-0.03,0.947-0.647,1.316-1.362,1.693
	c0.194,0.096,0.311,0.16,0.433,0.215c0.327,0.145,0.667,0.263,0.976,0.438c0.106,0.06,0.222,0.293,0.183,0.38
	c-0.079,0.174-0.234,0.38-0.405,0.436c-0.62,0.207-1.257,0.356-1.948,0.542c0.684,0.16,1.133,0.535,1.262,1.271
	c-0.349,0.911-1.002,1.583-2.027,1.693c-0.641,0.068-1.309-0.084-1.963-0.157c-1.597-0.179-3.191-0.384-4.79-0.549
	c-1.6-0.164-3.218-0.205-4.801-0.469c-0.933-0.154-1.832-0.058-2.745-0.053c-1.261,0.007-2.523,0.065-3.785,0.088
	c-0.804,0.014-1.609,0.002-2.444,0.002c-0.178,0.929-1.015,0.995-1.684,1.176c-1.216,0.328-2.457,0.594-3.703,0.773
	c-1.177,0.17-2.374,0.227-3.564,0.275c-1.063,0.045-2.134,0.052-3.198,0.004c-1.16-0.052-2.318-0.182-3.478-0.281
	c-0.5-0.043-0.999-0.13-1.499-0.135c-1.779-0.016-3.529-0.173-5.208-0.831c-0.58-0.227-1.194-0.364-1.748-0.529
	c-0.661,0.512-0.745,1.421-1.536,1.693c-1.335-0.438-2.597-0.995-3.719-1.856c-1.604-1.231-3.262-2.393-4.839-3.656
	c-1.061-0.852-2.015-1.838-3.035-2.743c-0.177-0.156-0.441-0.274-0.673-0.292c-0.556-0.042-1.117-0.014-1.74-0.014
	c-0.668-0.795-0.821-1.881-1.067-2.921c-0.316-1.342-0.61-2.692-0.844-4.051c-0.137-0.8-0.101-1.627-0.207-2.434
	c-0.113-0.867-0.254-1.737-0.481-2.579c-0.08-0.299-0.43-0.542-0.69-0.775c-0.318-0.285-0.67-0.53-1.047-0.823
	c0.155-0.251,0.284-0.453,0.406-0.657c0.658-1.102,1.284-2.224,1.981-3.3c0.575-0.891,1.235-1.729,1.857-2.59
	c0.292-0.405,0.575-0.817,0.875-1.217c0.723-0.964,1.479-1.904,2.163-2.895c0.188-0.271,0.174-0.684,0.176-1.076
	c1.122-1.533,2.896-2.215,4.493-3.211c-0.142-0.214-0.28-0.422-0.47-0.708c0.291-0.266,0.542-0.564,0.854-0.768
	c1.638-1.066,3.311-2.068,5.141-2.784c1.025-0.401,2.035-0.841,3.053-1.256c0.196-0.081,0.406-0.125,0.632-0.193
	c0-0.255,0-0.51,0-0.815c0.22-0.122,0.433-0.269,0.667-0.367c1.421-0.6,2.888-1.087,4.423-1.23c1.02-0.096,2.081-0.081,3.088,0.094
	c1.287,0.224,2.514,0.107,3.772-0.131c1.452-0.275,2.915-0.549,4.384-0.647c0.928-0.062,1.926-0.025,2.758,0.583
	c0.094,0.068,0.246,0.089,0.367,0.079c0.629-0.051,1.256-0.107,1.882-0.184c0.781-0.097,1.557-0.234,2.34-0.318
	c0.867-0.093,1.738-0.154,2.609-0.213c1.67-0.112,3.341-0.216,5.013-0.317c0.975-0.059,1.95-0.166,2.924-0.145
	c0.973,0.021,1.95,0.129,2.912,0.282c1.245,0.198,2.494,0.414,3.709,0.743c1.131,0.307,2.244,0.714,3.32,1.184
	c1.235,0.538,2.419,1.193,3.625,1.798c0.013,0.006,0.029,0.009,0.038,0.019c1.004,1.031,2.357,0.781,3.584,0.938
	c1.045,0.134,1.991,0.525,2.966,0.862c1.599,0.552,3.201,1.096,4.814,1.602c1.49,0.467,2.982,0.945,4.501,1.302
	c2.329,0.547,4.705,0.757,7.1,0.78c1.292,0.014,2.582,0.158,3.874,0.221c0.657,0.032,1.315,0.017,1.973,0.017
	c1.12,0.002,2.243,0.043,3.36-0.015c0.955-0.049,1.905-0.223,2.86-0.328c1.899-0.208,3.798-0.421,5.7-0.605
	c1.144-0.111,2.291-0.172,3.438-0.256C155.146,85.389,155.617,85.353,156.12,85.314z M81.385,107.529
	c0.024,0.005,0.104,0.021,0.187,0.035c0.473,0.086,0.945,0.174,1.419,0.252c0.096,0.016,0.197-0.01,0.297-0.004
	c0.826,0.048,1.66,0.046,2.476,0.168c0.645,0.097,1.255,0.41,1.899,0.524c1.523,0.271,3.056,0.486,4.586,0.716
	c1.717,0.258,3.43,0.545,5.152,0.744c0.793,0.091,1.633,0.202,2.355-0.377c0.191-0.154,0.469-0.209,0.715-0.282
	c0.834-0.246,1.674-0.472,2.507-0.724c0.173-0.053,0.324-0.183,0.484-0.276c-0.005-0.047-0.012-0.095-0.018-0.142
	c-1.352-0.205-2.703-0.41-4.087-0.62c-0.075,0.247-0.142,0.462-0.231,0.758c-0.614,0.09-1.259,0.271-1.897,0.26
	c-1.336-0.025-2.672-0.144-4.006-0.24c-0.903-0.065-1.808-0.126-2.706-0.246c-0.781-0.104-1.551-0.287-2.326-0.435
	c-1.591-0.304-3.183-0.604-4.775-0.913c-0.653-0.128-1.304-0.275-1.937-0.409C81.445,106.744,81.418,107.102,81.385,107.529z
	 M75.972,110.692c0.355,0.077,0.6,0.138,0.847,0.181c0.352,0.062,0.727,0.054,1.058,0.174c1.1,0.401,2.185,0.846,3.276,1.272
	c0.601,0.234,1.235,0.408,1.793,0.718c0.411,0.229,0.777,0.294,1.221,0.209c1.25-0.239,2.506-0.449,3.756-0.686
	c0.429-0.081,0.849-0.207,1.395-0.342c-0.436-0.106-0.744-0.207-1.06-0.253c-1.859-0.274-3.72-0.533-5.58-0.8
	c-1.701-0.243-3.424-0.357-5.068-0.921c-0.172-0.059-0.358-0.074-0.531-0.108c-0.102,0.112-0.184,0.202-0.27,0.297
	c-0.138-0.054-0.254-0.099-0.396-0.155C76.299,110.388,76.187,110.492,75.972,110.692z"/>
<path fill-rule="evenodd" clip-rule="evenodd" fill="#f7dad4" class="fill" d="M50.073,90.131c1.204-1.256,2.603-2.277,4.164-3.157
	c1.391,1.465,2.498,3.071,3.611,4.821c0.088,0,0.28,0,0.615,0c-0.813-2.303-2.183-4.183-3.498-6.178
	c0.214-0.159,0.43-0.373,0.688-0.502c1.486-0.743,2.985-1.461,4.475-2.198c0.758-0.376,1.504-0.773,2.256-1.161
	c0.149-0.077,0.302-0.15,0.405-0.202c0.368,1.802,0.73,3.583,1.111,5.453c0.312-0.036,0.521-0.061,0.755-0.087
	c-0.111-2.146-0.215-4.192-0.326-6.338c0.583-0.266,1.145-0.59,1.749-0.782c0.745-0.236,1.522-0.488,2.292-0.509
	c1.355-0.035,2.715,0.098,4.192,0.166c-0.225,0.579-0.43,1.002-0.552,1.449c-0.223,0.81-0.396,1.633-0.589,2.452
	c-0.077,0.332-0.122,0.673-0.234,0.991c-0.205,0.575-0.155,0.845,0.301,1.066c0.125-0.059,0.278-0.13,0.354-0.166
	c0.232-1.148,0.425-2.234,0.679-3.306c0.118-0.496,0.331-0.974,0.546-1.439c0.334-0.724,0.982-0.983,1.723-0.987
	c1.4-0.006,2.78-0.14,4.145-0.46c0.486-0.115,0.992-0.15,1.489-0.227c0.682-0.105,1.012,0.421,1.19,0.866
	c0.452,1.132,1.225,2.041,1.892,3.021c0.415,0.61,0.896,1.192,1.428,1.701c0.46,0.439,1.056,0.733,1.551,1.141
	c0.325,0.267,0.583,0.616,0.858,0.938c0.223,0.261,0.416,0.549,0.641,0.808c0.527,0.604,0.645,1.35,0.774,2.102
	c0.147,0.865,0.028,1.715-0.333,2.479c-0.283,0.597-0.78,1.09-1.178,1.632c-0.487,0.664-1.134,0.826-1.931,0.736
	c-0.837-0.096-1.687-0.079-2.556-0.112c-0.027-0.307-0.079-0.533-0.061-0.753c0.093-1.09-0.114-2.14-0.448-3.164
	c-0.149-0.458-0.355-0.925-0.646-1.305c-0.707-0.931-1.395-1.906-2.251-2.688c-0.67-0.612-1.539-1.048-2.543-1.002
	c-1.005,0.047-2.011,0.069-3.016,0.087c-0.198,0.003-0.396-0.062-0.667-0.106c-0.059,0.029-0.183,0.093-0.439,0.223
	c0.212,0.165,0.347,0.36,0.5,0.375c0.655,0.065,1.316,0.08,1.976,0.107c1.242,0.05,2.469,0.133,3.493,0.975
	c0.662,0.544,1.094,1.22,1.357,2.034c0.26,0.802,0.598,1.578,0.87,2.375c0.304,0.884,0.438,1.812,0.249,2.721
	c-0.091,0.438-0.418,0.883-0.754,1.204c-0.812,0.78-1.689,1.497-2.55,2.228c-0.239,0.203-0.517,0.361-0.77,0.551
	c-0.769,0.576-1.534,1.155-2.299,1.736c-1.008,0.766-2.12,1.295-3.376,1.509c-1.641,0.28-3.272,0.642-4.923,0.824
	c-0.956,0.104-2.009,0.119-2.899-0.18c-1.215-0.405-2.394-1.035-3.031-2.312c-0.234-0.47-0.615-0.863-0.893-1.313
	c-0.833-1.348-0.962-2.767-0.4-4.254c0.197-0.521,0.346-1.06,0.557-1.716c-0.132-0.072-0.327-0.179-0.643-0.352
	c-0.232,0.605-0.428,1.11-0.622,1.616c-0.062-0.01-0.124-0.019-0.186-0.028c-0.055,1.126-0.188,2.254-0.136,3.375
	c0.034,0.741,0.303,1.479,0.522,2.202c0.556,1.831,2.057,2.76,3.564,3.687c0.928,0.571,1.953,0.793,3.14,0.942
	c-0.362,0.437-0.647,0.801-0.955,1.145c-0.347,0.387-0.69,0.782-1.079,1.123c-1.155,1.017-2.462,1.72-4.032,1.823
	c-0.716,0.047-1.294-0.319-1.883-0.653c-1.333-0.754-2.087-2.02-2.728-3.312c-0.771-1.553-1.385-3.187-2.038-4.797
	c-0.773-1.907-1.305-3.888-1.763-5.894C50.73,92.173,50.39,91.199,50.073,90.131z"/>
<path fill-rule="evenodd" clip-rule="evenodd" fill="#f7dad4" class="fill" d="M103.094,83.756c-0.139,0.123-0.283,0.25-0.533,0.472
	c0.308,0.141,0.521,0.25,0.743,0.335c1.32,0.514,2.646,1.012,3.962,1.533c0.719,0.285,1.435,0.588,2.133,0.92
	c0.504,0.239,1.01,0.498,1.458,0.826c0.834,0.608,0.822,1.321-0.005,2.024c-1.413,1.204-3.048,1.896-4.889,2.148
	c-1.462,0.201-2.91,0.512-4.374,0.703c-1.337,0.175-2.685,0.314-4.032,0.358c-1.245,0.042-2.495-0.053-3.742-0.107
	c-1.19-0.052-2.38-0.127-3.568-0.199c-0.256-0.015-0.51-0.059-0.73-0.085c0.132-0.752,0.312-1.498,0.386-2.253
	c0.136-1.385-0.281-2.609-1.116-3.734c-0.724-0.974-1.634-1.711-2.582-2.442c-0.567-0.438-1.037-1.025-1.466-1.609
	c-0.645-0.88-1.216-1.812-1.814-2.726c-0.085-0.129-0.142-0.276-0.257-0.503c0.409-0.051,0.751-0.111,1.096-0.134
	c1.805-0.122,3.61-0.262,5.417-0.34c1.762-0.075,3.526-0.083,5.289-0.121c1.302-0.027,2.607-0.137,3.902-0.062
	c1.239,0.07,2.473,0.304,3.701,0.513c1.975,0.339,3.858,1.019,5.704,1.763c1.658,0.669,3.318,1.372,4.774,2.458
	c1.082,0.806,2.196,1.567,3.268,2.384c0.431,0.328,0.795,0.746,1.18,1.133c0.505,0.508,0.999,1.026,1.498,1.54
	c0.071,0.072,0.158,0.131,0.217,0.21c0.405,0.543,0.189,2.305-0.292,2.775c-1.665,1.626-3.678,2.706-5.801,3.556
	c-1.779,0.712-3.604,1.34-5.453,1.839c-1.363,0.369-2.797,0.482-4.203,0.687c-1.914,0.28-3.836,0.354-5.77,0.198
	c-1.461-0.118-2.925-0.219-4.391-0.271c-1.29-0.044-2.582-0.009-3.885-0.08c0.333-0.546,0.692-0.986,1.346-0.982
	c0.45,0.003,0.901,0.021,1.349,0.062c0.417,0.039,0.703-0.187,0.708-0.605c0.007-0.452-0.216-0.877-0.851-1.562
	c0.625,0.044,1.169,0.115,1.714,0.114c1.131-0.004,2.262-0.031,3.393-0.078c0.99-0.04,1.979-0.097,2.964-0.19
	c0.956-0.091,1.915-0.19,2.855-0.374c1.039-0.202,2.088-0.42,3.08-0.779c1.424-0.516,2.986-0.665,4.278-1.521
	c0.698-0.463,1.395-0.96,1.985-1.548c0.821-0.819,0.688-1.986-0.275-2.64c-0.694-0.472-1.447-0.868-2.206-1.23
	c-0.982-0.47-1.992-0.882-2.999-1.299c-0.501-0.208-1.019-0.376-1.534-0.549C104.216,84.105,103.697,83.948,103.094,83.756z"/>
<path fill-rule="evenodd" clip-rule="evenodd" fill="#f7dad4" class="fill" d="M61.963,120.761c0.447-0.577,0.796-1.021,1.137-1.47
	c0.562-0.741,1.123-1.483,1.675-2.231c0.28-0.379,0.539-0.772,0.802-1.151c2.184,0.508,3.955-0.429,5.693-1.523
	c0.163-1.04-0.172-1.997-0.601-3.034c0.559,0.046,1.056,0.038,1.531,0.134c1.702,0.343,3.401,0.699,5.09,1.095
	c0.837,0.197,1.651,0.49,2.472,0.75c0.817,0.259,1.64,0.505,2.438,0.814c0.29,0.113,0.516,0.393,0.868,0.674
	c0.296,1.936,0.606,3.956,0.923,6.029c-0.605,0.11-1.104,0.217-1.608,0.289c-1.459,0.208-2.916,0.497-4.382,0.575
	c-1.543,0.083-3.098-0.035-4.646-0.075c-1.105-0.028-2.209-0.063-3.313-0.113c-1.896-0.085-3.792-0.153-5.684-0.296
	C63.599,121.172,62.854,120.94,61.963,120.761z"/>
<path fill-rule="evenodd" clip-rule="evenodd" fill="#f7dad4" class="fill" d="M52.664,102.571c0.655,2.852,2.022,4.844,3.909,5.949
	c-0.848,0.871-1.817,1.557-2.74,2.295c-0.964,0.77-2.057,1.305-3.177,1.795c-1.11,0.486-2.26,0.808-3.594,0.893
	c-0.364-1.728-0.687-3.478-1.11-5.202c-0.427-1.733-0.956-3.441-1.481-5.307c0.949,0.093,1.729,0.166,2.508,0.248
	c1.574,0.167,3.122,0.027,4.647-0.39C51.964,102.76,52.303,102.669,52.664,102.571z"/>
<path fill-rule="evenodd" clip-rule="evenodd" fill="#f7dad4" class="fill" d="M50.025,114.808c1.716-1.057,3.398-2.093,5.125-3.155
	c1.346,0.995,2.688,2.004,4.336,2.484c1.605,0.469,3.208,0.926,5.025,0.877c-0.38,0.695-0.684,1.339-1.067,1.931
	c-0.883,1.366-1.88,2.638-3.177,3.655c-0.385,0.302-0.681,0.418-1.19,0.232c-1.439-0.528-2.627-1.449-3.866-2.3
	c-0.638-0.438-1.324-0.805-1.95-1.257c-0.95-0.685-1.867-1.414-2.799-2.125C50.306,115.03,50.151,114.907,50.025,114.808z"/>
<path fill-rule="evenodd" clip-rule="evenodd" fill="#f7dad4" class="fill" d="M125.049,88.644c-0.556-1.137-1.282-2.132-2.642-2.16
	c-1.278-0.026-2.169,0.769-2.929,1.814c-1.355-2.202-3.668-3.393-5.661-4.943c0.033-0.055,0.064-0.111,0.097-0.167
	c0.585,0.209,1.173,0.414,1.757,0.628c1.536,0.562,3.045,1.218,4.613,1.667c1.994,0.571,4.021,1.075,6.064,1.42
	c1.65,0.278,3.347,0.306,5.025,0.393c2.818,0.144,5.639,0.263,8.459,0.363c1.147,0.041,2.298,0.002,3.447,0.011
	c1.194,0.009,2.389,0.038,3.583,0.052c1.739,0.02,3.427-0.325,5.119-0.682c1.108-0.233,2.241-0.349,3.366-0.49
	c0.15-0.019,0.32,0.119,0.48,0.186c-0.011,0.038-0.023,0.076-0.035,0.114c-0.106,0.039-0.209,0.087-0.317,0.113
	c-2.177,0.501-4.351,1.016-6.536,1.486c-0.599,0.129-1.23,0.18-1.844,0.164c-1.238-0.031-2.424,0.236-3.627,0.459
	c-1.209,0.225-2.438,0.358-3.664,0.488c-0.868,0.092-1.745,0.132-2.618,0.157c-1.014,0.03-2.029,0.014-3.044,0.029
	c-0.358,0.006-0.716,0.069-1.074,0.065c-0.269-0.003-0.543-0.045-0.802-0.12c-0.506-0.144-0.999-0.334-1.504-0.482
	c-1.657-0.49-3.362-0.577-5.075-0.593C125.489,88.612,125.289,88.632,125.049,88.644z"/>
<path fill-rule="evenodd" clip-rule="evenodd" fill="#f7dad4" class="fill" d="M64.495,106.114c0.688,0.62,1.36,1.226,2.033,1.831
	c-0.051,0.03-0.104,0.061-0.155,0.091c0,0.244-0.059,0.506,0.011,0.729c0.25,0.809,0.2,1.594,0.054,2.421
	c-0.162,0.913-0.439,1.761-0.855,2.581c-0.176,0.346-0.409,0.462-0.758,0.392c-1.136-0.229-2.28-0.428-3.402-0.71
	c-0.773-0.196-1.581-0.401-2.258-0.798c-0.954-0.56-1.8-1.301-2.704-1.972c0.542-0.64,1.004-1.185,1.448-1.708
	C60.498,108.933,62.567,107.771,64.495,106.114z"/>
<path fill-rule="evenodd" clip-rule="evenodd" fill="#f7dad4" class="fill" d="M49.373,91.615c0.612,3.441,1.559,6.64,2.908,9.852
	c-2.892,0.206-5.736,0.494-8.698-0.166c0.198-0.363,0.346-0.613,0.473-0.874c0.529-1.08,1.011-2.186,1.589-3.239
	c0.405-0.739,0.948-1.402,1.412-2.11c0.589-0.9,1.158-1.813,1.745-2.716C48.945,92.139,49.123,91.939,49.373,91.615z"/>
<path fill-rule="evenodd" clip-rule="evenodd" fill="#f7dad4" class="fill" d="M122.359,91.618c0.536-0.162,1.032-0.334,1.54-0.459
	c0.507-0.126,0.788-0.434,0.909-0.927c0.048-0.192,0.135-0.375,0.23-0.637c0.843,0.048,1.69,0.059,2.528,0.155
	c1.097,0.126,2.193,0.286,3.278,0.494c1.233,0.238,2.45,0.561,3.682,0.814c0.418,0.087,0.856,0.092,1.285,0.113
	c1.029,0.053,2.057,0.082,3.084,0.14c1.449,0.082,2.895,0.216,4.344,0.262c1.365,0.043,2.732,0.002,4.099-0.004
	c0.101-0.001,0.201-0.019,0.302-0.019c1.264-0.003,2.528-0.038,3.791,0.002c1.422,0.046,2.841,0.148,4.261,0.246
	c1.476,0.103,2.956,0.195,4.426,0.354c1.399,0.152,2.765,0.481,4.098,1.11c-0.068,0.162-0.13,0.311-0.214,0.517
	c-0.895-0.194-1.77-0.346-2.624-0.575c-1.89-0.508-3.819-0.758-5.759-0.942c-1.213-0.115-2.434-0.151-3.652-0.213
	c-0.801-0.04-1.602-0.092-2.402-0.086c-1,0.007-1.999,0.072-2.999,0.104c-0.928,0.03-1.857,0.049-2.786,0.077
	c-1.113,0.034-2.219,0.021-3.301,0.42c-0.486,0.18-1.079,0.115-1.62,0.087c-0.858-0.045-1.713-0.194-2.571-0.225
	c-2.114-0.075-4.23-0.159-6.345-0.139c-1.217,0.012-2.429,0.232-3.646,0.327c-0.418,0.032-0.861,0.035-1.262-0.069
	c-0.803-0.208-1.585-0.496-2.374-0.757C122.56,91.756,122.471,91.682,122.359,91.618z"/>
<path fill-rule="evenodd" clip-rule="evenodd" fill="#f7dad4" class="fill" d="M87.659,101.1c0.901-0.105,1.803-0.211,2.705-0.316
	c0.006,0.034,0.014,0.068,0.02,0.102c0.099-0.081,0.197-0.162,0.279-0.228c1.144,0.21,2.265,0.444,3.395,0.617
	c1.405,0.215,2.825,0.336,4.226,0.577c1.769,0.302,3.493-0.063,5.234-0.217c0.729-0.065,1.462-0.097,2.193-0.145
	c1.618-0.107,3.236-0.282,4.856-0.3c1.013-0.013,2.029,0.208,3.043,0.33c0.567,0.069,1.133,0.146,1.699,0.228
	c0.137,0.02,0.268,0.077,0.447,0.13c-0.022,0.411-0.042,0.801-0.066,1.246c-0.261-0.041-0.445-0.027-0.587-0.098
	c-0.923-0.465-1.924-0.466-2.906-0.457c-2.101,0.019-4.202,0.06-6.298,0.176c-1.489,0.081-2.97,0.324-4.458,0.445
	c-0.641,0.051-1.291-0.023-1.937-0.045c-0.589-0.019-1.182-0.007-1.766-0.072c-1.496-0.166-2.991-0.337-4.479-0.562
	c-1.217-0.184-2.428-0.423-3.632-0.683c-0.664-0.144-1.308-0.378-1.96-0.571C87.663,101.205,87.661,101.152,87.659,101.1z"/>
<path fill-rule="evenodd" clip-rule="evenodd" fill="#f7dad4" class="fill" d="M90.253,117.62c1.487,0.051,2.913,0.397,4.348,0.653
	c1.747,0.15,3.498,0.255,5.238,0.459c1.677,0.198,3.339,0.53,5.016,0.735c0.587,0.071,1.1,0.211,1.507,0.628
	c0.155,0.16,0.234,0.392,0.419,0.716c-0.631,0.033-1.114,0.111-1.589,0.073c-1.488-0.116-2.97-0.294-4.458-0.416
	c-2.019-0.164-4.037-0.339-6.06-0.427c-1.577-0.07-3.158-0.005-4.736-0.017c-1.191-0.008-2.383-0.021-3.57-0.079
	c-0.511-0.024-1.021-0.145-1.522-0.264c-0.398-0.096-0.445-0.211-0.409-0.61c1.02-0.111,2.042-0.161,3.037-0.348
	C88.448,118.541,89.458,118.374,90.253,117.62z"/>
<path fill-rule="evenodd" clip-rule="evenodd" fill="#f7dad4" class="fill" d="M84.214,117.225c-0.209-1.032-0.417-2.054-0.627-3.092
	c2.501-0.484,4.963-0.961,7.463-1.445c0.234,1.275-0.065,2.401-0.726,3.432c-0.148,0.232-0.467,0.383-0.738,0.501
	c-0.55,0.24-1.105,0.501-1.686,0.627c-1.031,0.226-2.078,0.478-3.139,0.103C84.589,117.29,84.402,117.267,84.214,117.225z"/>
<path fill-rule="evenodd" clip-rule="evenodd" fill="#f7dad4" class="fill" d="M108.09,116.166c-0.109,0.083-0.208,0.19-0.329,0.249
	c-1.534,0.729-3.146,1.034-4.847,0.939c-1.156-0.064-2.317-0.09-3.474-0.071c-0.842,0.014-1.684,0.104-2.52,0.205
	c-1.451,0.174-2.869-0.001-4.284-0.302c-0.379-0.08-0.767-0.116-1.149-0.176c-0.119-0.02-0.236-0.053-0.427-0.096
	c0.285-0.379,0.522-0.696,0.818-1.091c0.502,0.062,1.051,0.129,1.6,0.199c1.598,0.204,3.187,0.017,4.777-0.103
	c1.088-0.082,2.174-0.181,3.263-0.223c0.615-0.023,1.233,0.069,1.852,0.08c1.06,0.017,2.123-0.018,3.182,0.024
	c0.502,0.02,1,0.163,1.5,0.251C108.064,116.089,108.077,116.127,108.09,116.166z"/>
<path fill-rule="evenodd" clip-rule="evenodd" fill="#f7dad4" class="fill" d="M119.322,91.99c1.003-0.172,1.876,0.358,2.812,0.602
	c0.733,0.19,1.462,0.397,2.192,0.602c0.969,0.271,1.285,1.189,0.736,2.276c-2.772,0.579-5.548-0.173-8.47-0.114
	C117.565,94.157,118.432,93.088,119.322,91.99z"/>
<path fill-rule="evenodd" clip-rule="evenodd" fill="#f7dad4" class="fill" d="M107.735,111.921c0.081,0.818-0.13,1.108-0.832,1.274
	c-1.701,0.401-3.395,0.833-5.101,1.209c-1.633,0.359-3.265,0.757-4.919,0.966c-1.548,0.196-3.121,0.116-4.667-0.327
	c0-0.139,0-0.278,0-0.485c0.723-0.116,1.438-0.256,2.159-0.338c1.239-0.142,2.487-0.212,3.723-0.381
	c0.721-0.099,1.418-0.361,2.136-0.497c1.156-0.221,2.324-0.378,3.479-0.604c0.715-0.139,1.414-0.361,2.123-0.536
	c0.458-0.112,0.919-0.218,1.385-0.303C107.38,111.871,107.554,111.912,107.735,111.921z"/>
<path fill-rule="evenodd" clip-rule="evenodd" fill="#f7dad4" class="fill" d="M129.332,98.452c-1.006,0-1.937,0.03-2.863-0.008
	c-0.888-0.036-1.772-0.184-2.659-0.214c-1.768-0.059-3.54-0.041-5.307-0.114c-1.099-0.045-2.192-0.199-3.383-0.314
	c0.148-0.144,0.242-0.283,0.372-0.354c0.44-0.24,0.886-0.478,1.348-0.672c0.197-0.083,0.454-0.112,0.66-0.064
	c1.939,0.448,3.899,0.438,5.866,0.276c0.242-0.02,0.506-0.019,0.717-0.119c0.579-0.276,1.152-0.171,1.717-0.016
	c1.129,0.312,2.25,0.661,3.405,1.003C129.24,98.023,129.278,98.199,129.332,98.452z"/>
<path fill-rule="evenodd" clip-rule="evenodd" fill="#f7dad4" class="fill" d="M100.399,111.407c-0.36,0.046-0.697,0.107-1.035,0.131
	c-1.031,0.07-2.065,0.192-3.096,0.172c-1.116-0.023-2.238-0.136-3.343-0.297c-1.701-0.247-3.388-0.585-5.086-0.855
	c-1.43-0.227-2.865-0.418-4.3-0.605c-0.512-0.067-1.035-0.051-1.549-0.114c-1.479-0.184-2.957-0.388-4.435-0.585
	c-0.025-0.002-0.046-0.032-0.119-0.083c0.096-0.156,0.195-0.318,0.331-0.543c0.396,0.071,0.8,0.147,1.204,0.218
	c1.098,0.193,2.192,0.416,3.295,0.57c1.729,0.242,3.5,0.129,5.204,0.624c0.341,0.099,0.735,0.007,1.103,0.026
	c1.125,0.057,2.253,0.104,3.376,0.195c0.986,0.08,1.969,0.207,2.953,0.321c0.483,0.055,0.965,0.138,1.449,0.191
	c0.919,0.101,1.84,0.204,2.763,0.273c0.277,0.021,0.562-0.095,0.843-0.098C100.188,110.943,100.423,111.013,100.399,111.407z"/>
<path fill-rule="evenodd" clip-rule="evenodd" fill="#f7dad4" class="fill" d="M129.046,100.51c-0.769,0.026-1.544-0.003-2.305,0.091
	c-0.998,0.124-1.918-0.273-2.885-0.323c-0.4-0.021-0.8-0.043-1.199-0.059c-0.216-0.009-0.432,0.004-0.648-0.008
	c-1.011-0.051-2.023-0.096-3.034-0.164c-1.118-0.075-2.232-0.198-3.351-0.255c-1.176-0.061-2.353-0.065-3.529-0.103
	c-0.5-0.016-1-0.082-1.499-0.072c-0.673,0.014-1.346,0.093-2.019,0.118c-0.548,0.021-1.099,0.004-1.652-0.058
	c0.968-0.92,2.067-1.437,3.396-1.257c1.694,0.229,3.385,0.479,5.072,0.746c0.592,0.093,1.167,0.358,1.757,0.378
	c2.272,0.078,4.552,0.01,6.82,0.149c1.667,0.103,3.356,0.165,4.974,0.681c0.037,0.012,0.069,0.037,0.104,0.055
	C129.048,100.455,129.047,100.482,129.046,100.51z"/>
<path fill-rule="evenodd" clip-rule="evenodd" fill="#f7dad4" class="fill" d="M102.307,107.233c-0.74-0.106-1.494-0.158-2.22-0.326
	c-1.324-0.309-2.632-0.688-3.948-1.032c-0.317-0.083-0.651-0.114-0.963-0.211c-1.858-0.578-3.711-1.173-5.568-1.754
	c-0.694-0.217-1.396-0.409-2.139-0.625c0.046-0.206,0.083-0.377,0.128-0.586c0.644,0.122,1.242,0.25,1.845,0.345
	c1.029,0.161,2.062,0.299,3.093,0.455c0.137,0.021,0.3,0.052,0.395,0.139c0.68,0.625,1.543,0.869,2.386,1.138
	c1.144,0.365,2.313,0.646,3.451,1.025c1.202,0.401,2.38,0.875,3.568,1.318C102.326,107.156,102.316,107.194,102.307,107.233z"/>
<path fill-rule="evenodd" clip-rule="evenodd" fill="#f7dad4" class="fill" d="M91.469,95.649c-0.27-0.062-0.48-0.072-0.65-0.158
	c-0.391-0.199-0.732-0.113-1.11,0.053c-0.971,0.425-1.835,0.992-2.654,1.669c-0.32,0.265-0.855,0.399-1.281,0.377
	c-0.81-0.045-1.611-0.242-2.416-0.385c-0.107-0.02-0.204-0.094-0.404-0.19c2.458-0.543,4.302-1.926,6.02-3.604
	C89.81,93.661,91.023,94.814,91.469,95.649z"/>
<path fill-rule="evenodd" clip-rule="evenodd" fill="#f7dad4" class="fill" d="M127.057,94.957c0.081-0.46,0.144-0.821,0.209-1.186
	c2.409-0.156,4.764-0.383,7.124-0.442c2.346-0.059,4.697,0.024,7.027,0.345c0.01,0.053,0.019,0.106,0.029,0.159
	c-0.182,0.041-0.361,0.114-0.544,0.12c-1.425,0.055-2.85,0.085-4.273,0.148c-0.515,0.023-1.024,0.136-1.538,0.174
	c-1.06,0.078-2.126,0.222-3.182,0.174c-1.385-0.064-2.705,0.248-4.048,0.455C127.626,94.942,127.384,94.938,127.057,94.957z"/>
<path fill-rule="evenodd" clip-rule="evenodd" fill="#f7dad4" class="fill" d="M67.905,108.863c1.439,1.465,2.524,3.006,2.648,5.104
	c-1.32,0.071-2.536,0.349-3.867-0.036C67.63,112.364,67.842,110.675,67.905,108.863z"/>
<path fill-rule="evenodd" clip-rule="evenodd" fill="#f7dad4" class="fill" d="M76.474,101.352c0.464,0.479,0.812,0.881,1.207,1.232
	c0.393,0.351,0.833,0.648,1.269,0.982c0.547,1.002,1.11,2.033,1.674,3.064c-2.163-0.765-3.888-2.169-5.737-3.539
	C75.423,102.504,75.918,101.961,76.474,101.352z"/>
<path fill-rule="evenodd" clip-rule="evenodd" fill="#f7dad4" class="fill" d="M101.178,112.374c0.068-0.173,0.135-0.339,0.158-0.397
	c-0.103-0.566-0.187-1.022-0.27-1.479c0.489-0.416,5.083-1.55,5.491-1.331c-0.091,0.502-0.466,0.816-0.843,1.071
	c-0.662,0.447-1.372,0.823-2.061,1.231c-0.109,0.064-0.236,0.127-0.306,0.225c-0.312,0.434-0.758,0.587-1.258,0.632
	C101.794,112.353,101.495,112.357,101.178,112.374z"/>
<path fill-rule="evenodd" clip-rule="evenodd" fill="#f7dad4" class="fill" d="M75.276,108.326c-0.091,0.151-0.152,0.258-0.253,0.429
	c-0.749-0.064-1.503-0.174-2.258-0.182c-1.362-0.015-2.688-0.221-3.986-0.605c-0.352-0.103-0.679-0.295-1.154-0.508
	c0.45-0.266,0.791-0.594,1.18-0.669c0.604-0.116,1.281-0.204,1.856-0.046c1.437,0.392,2.836,0.928,4.249,1.41
	C75.016,108.19,75.114,108.248,75.276,108.326z"/>
<path fill-rule="evenodd" clip-rule="evenodd" fill="#f7dad4" class="fill" d="M131.424,95.787c0.455-0.062,0.817-0.112,1.181-0.16
	c1.307-0.174,2.611-0.43,3.924-0.492c0.938-0.045,1.896,0.135,2.835,0.274c1.216,0.179,2.424,0.418,3.635,0.633
	c0.119,0.021,0.236,0.057,0.349,0.125C139.395,96.332,135.453,96.277,131.424,95.787z"/>
<path fill-rule="evenodd" clip-rule="evenodd" fill="#f7dad4" class="fill" d="M79.908,98.749c0.322-0.095,0.688-0.202,1.148-0.338
	c0.299,0.407,0.743,0.78,0.854,1.232c0.111,0.458-0.109,0.995-0.186,1.504C80.834,100.87,79.866,99.645,79.908,98.749z"/>
<path fill-rule="evenodd" clip-rule="evenodd" fill="#f7dad4" class="fill" d="M97.092,113.151c-1.62,0.222-3.239,0.443-4.921,0.676
	c0-0.397,0-0.74,0-1.139c1.674,0.144,3.293,0.281,4.913,0.419C97.086,113.122,97.088,113.136,97.092,113.151z"/>
<path fill-rule="evenodd" clip-rule="evenodd" fill="#f7dad4" class="fill" d="M79.347,100.334c0.453,0.415,0.905,0.83,1.396,1.28
	c-0.09,0.156-0.201,0.345-0.396,0.681c-0.526-0.697-0.977-1.299-1.477-1.963c0.186-0.055,0.37-0.111,0.553-0.167
	C79.397,100.221,79.372,100.277,79.347,100.334z"/>
<path fill-rule="evenodd" clip-rule="evenodd" fill="#f7dad4" class="fill" d="M122.288,88.163c0.631-0.419,0.913-0.363,1.346,0.271
	c-0.317,0.067-0.593,0.19-0.851,0.159C122.611,88.571,122.467,88.328,122.288,88.163z"/>
<path fill-rule="evenodd" clip-rule="evenodd" fill="#f7dad4" class="fill" d="M146.713,96.33c-0.062,0.211-0.097,0.33-0.121,0.412
	c-0.634-0.132-1.241-0.259-1.977-0.412C145.388,96.33,146.03,96.33,146.713,96.33z"/>
</svg>
