<svg version="1.1" id="svg" xmlns="http://www.w3.org/2000/svg" xmlns:xlink="http://www.w3.org/1999/xlink" x="0px" y="0px"
	 width="200px" height="200px" viewBox="0 0 200 200" enable-background="new 0 0 200 200" xml:space="preserve">
<path class="stroke" fill="#580f12"  fill-rule="evenodd" clip-rule="evenodd" d="M135.63,99.209c-0.953-3.042-2.282-5.769-4.799-7.775
	c-2.752-2.195-5.828-3.77-9.292-4.538c-2.123-0.471-4.229-1.021-6.354-1.48c-3.521-0.761-7.061-1.346-10.688-0.937
	c-0.906,0.103-1.818,0.142-2.852,0.219c-0.036-3.204,2.583-7.213,4.409-8.718c0.488-0.402,1.118-0.711,1.731-0.864
	c1.182-0.292,2.275-0.074,3.05,0.997c0.7,0.968,1.412,1.928,2.098,2.907c1.323,1.888,3.17,3.207,5.391,3.322
	c3.466,0.178,6.957-0.049,10.433-0.207c1.293-0.059,2.601-0.313,3.856-0.646c1.892-0.5,3.428-1.539,3.707-3.649
	c0.299-2.268,0.552-4.607-0.373-6.77c-1.173-2.746-2.294-5.576-3.922-8.05c-3.446-5.242-8.447-8.626-14.442-10.305
	c-3.858-1.081-7.879-0.727-11.829-0.192c-1.56,0.21-3.096,0.588-4.647,0.868c-3.292,0.592-6.356,1.737-9.336,3.292
	c-2.958,1.543-5.818,3.119-8.279,5.428c-3.978,3.732-6.892,8.085-8.554,13.293c-1.429,4.476-2.358,9.059-2.959,13.701
	c-0.37,2.855-0.547,5.741-0.678,8.619c-0.224,4.848,0.043,9.683,0.718,14.491c0.484,3.456,1.198,6.871,2.386,10.147
	c1.279,3.522,2.515,7.106,4.974,10.038c1.078,1.284,2.364,2.393,3.547,3.59c1.626,1.644,3.49,2.932,5.595,3.897
	c5.305,2.433,10.884,3.418,16.686,3.125c5.184-0.262,10.309-0.869,14.969-3.437c7.358-4.057,12.618-9.898,15.13-18.011
	c0.593-1.917,1.166-3.882,1.386-5.865C137.31,110.155,137.332,104.641,135.63,99.209z M115.621,114.047
	c-0.53,1.125-1.646,1.54-2.712,1.937c-2.124,0.792-4.348,0.961-6.583,0.777c-1.34-0.111-2.697-0.303-3.988-0.669
	c-1.867-0.529-3.024-1.844-3.486-4.001c0.98-2.262,2.539-4.019,4.928-4.847c3.21-1.114,6.385-0.902,9.543,0.405
	C115.846,108.693,116.497,112.191,115.621,114.047z"/>
<path fill-rule="evenodd" clip-rule="evenodd" fill="#de4555" class="fill" d="M111.296,135.959c-0.284-1.486-0.524-2.745-0.767-4.011
	c-0.532-0.026-0.881-0.043-1.509-0.074c0.278,1.511,0.528,2.863,0.807,4.379c-0.713,0.109-1.38,0.211-2.052,0.314
	c-0.15-1.268-0.233-2.403-0.435-3.518c-0.141-0.78-0.593-1.261-1.674-0.839c0.21,1.382,0.418,2.754,0.652,4.293
	c-0.5,0.049-0.935,0.091-1.497,0.147c-0.274-1.733-0.526-3.323-0.803-5.073c-0.517,0.088-0.892,0.151-1.401,0.237
	c0.197,1.64,0.376,3.132,0.578,4.814c-0.771-0.078-1.438-0.146-2.29-0.231c0.083-1.683,0.159-3.227,0.239-4.859
	c-0.526-0.065-0.867-0.108-1.303-0.164c-0.498,1.604-0.117,3.2-0.393,4.904c-0.687-0.142-1.289-0.268-1.86-0.387
	c-0.625-1.636,0.458-3.245-0.276-4.785c-0.897-0.083-1.188,0.373-1.239,1.133c-0.068,1.018-0.165,2.033-0.266,3.234
	c-0.733-0.259-1.274-0.449-1.938-0.684c0.202-1.471,0.391-2.846,0.585-4.268c-1.163-0.28-1.486,0.337-1.627,1.159
	c-0.127,0.74-0.222,1.484-0.362,2.446c-0.699-0.266-1.224-0.464-1.928-0.73c0.356-1.364,0.69-2.646,1.043-4.002
	c-1.173-0.309-1.422,0.467-1.7,1.145c-0.284,0.694-0.511,1.411-0.825,2.292c-0.6-0.378-1.075-0.68-1.587-1.004
	c0.528-1.433,1.011-2.743,1.489-4.04c-0.669-0.56-1.083-0.216-1.387,0.284c-0.251,0.414-0.414,0.884-0.596,1.336
	c-0.195,0.487-0.37,0.981-0.631,1.681c-0.608-0.453-1.059-0.789-1.606-1.196c0.474-1.359,0.916-2.628,1.369-3.932
	c-0.77-0.555-1.227-0.218-1.545,0.459c-0.337,0.722-0.631,1.464-1.02,2.374c-0.48-0.432-0.819-0.735-1.219-1.095
	c0.586-1.313,1.128-2.528,1.683-3.77c-1.112-0.172-1.112-0.172-2.776,2.675c-0.365-0.42-0.68-0.783-1.015-1.167
	c0.369-0.852,0.69-1.597,1.013-2.342c0.318-0.735,0.638-1.47,1.004-2.313c-1.04-0.361-1.348,0.315-1.685,0.893
	c-0.344,0.59-0.653,1.2-1.085,2.002c-0.445-0.663-0.735-1.093-1.074-1.598c0.76-1.223,1.499-2.411,2.282-3.668
	c-0.78-0.454-1.248-0.089-1.653,0.458c-0.344,0.464-0.666,0.944-1.038,1.474c-1.876-2-0.271-3.241,0.729-4.569
	c-0.704-0.397-0.704-0.397-2.353,0.661c-0.17-0.394-0.333-0.772-0.454-1.051c0.514-0.882,0.97-1.665,1.418-2.433
	c-0.988-0.969-1.215,0.33-1.87,0.428c-0.13-0.331-0.265-0.672-0.393-0.996c0.304-0.564,0.584-1.086,0.939-1.747
	c-0.443-0.13-0.811-0.238-1.299-0.381c-0.081-0.403-0.173-0.862-0.238-1.19c0.341-0.703,1.316-0.683,1.246-1.65
	c-0.437-0.021-0.836-0.041-1.357-0.067c-0.093-0.309-0.213-0.701-0.344-1.133c0.497-0.328,0.923-0.609,1.545-1.021
	c-0.405-0.175-0.611-0.294-0.832-0.35c-0.199-0.05-0.415-0.029-0.705-0.043c-0.128-0.924-0.247-1.776-0.375-2.707
	c0.436-0.263,0.869-0.524,1.508-0.911c-0.606-0.284-1.003-0.47-1.464-0.686c-0.009-0.51-0.02-1.047-0.031-1.588
	c0.373-0.245,0.706-0.463,1.161-0.762c-0.428-0.354-0.744-0.615-1.035-0.855c-0.04-0.149-0.095-0.255-0.091-0.358
	c0.198-4.955,0.769-9.871,1.661-14.745c0.224-1.219,0.661-2.412,1.106-3.578c1.344-3.513,2.852-6.97,5.094-10.005
	c1.781-2.412,3.972-4.489,6.394-6.272c5.073-3.735,10.727-6.176,16.951-7.142c5.365-0.833,10.62-0.361,15.7,1.76
	c3.374,1.41,5.999,3.713,8.209,6.521c1.032,1.31,1.83,2.804,2.703,4.165c-0.305,0.508-0.495,0.824-0.728,1.211
	c0.362,0.109,0.662,0.199,1.063,0.319c0.149,0.384,0.321,0.829,0.518,1.336c-0.372,0.216-0.691,0.404-1.268,0.74
	c0.72,0.286,1.085,0.431,1.616,0.643c0.092,0.503,0.205,1.112,0.35,1.896c-0.793-0.039-1.396-0.069-1.999-0.099
	c-0.057,0.104-0.113,0.21-0.169,0.314c0.491,0.433,0.981,0.865,1.575,1.388c-0.185,0.186-0.384,0.387-0.572,0.576
	c-1.248-0.459-0.858-2.84-3.102-2.252c0.425,0.856,0.789,1.588,1.202,2.42c-0.398,0.082-0.749,0.153-1.173,0.239
	c-0.444-1.007-0.863-1.954-1.335-3.022c-0.449,0.333-0.691,0.513-0.963,0.714c0.201,0.842,0.388,1.624,0.604,2.523
	c-0.49,0.049-0.891,0.088-1.329,0.132c-0.21-0.926-0.399-1.757-0.611-2.691c-0.416,0.044-0.746,0.079-1.22,0.129
	c0.104,0.914,0.193,1.707,0.298,2.63c-0.384,0.071-0.764,0.141-1.228,0.227c-0.118-1.087-0.221-2.045-0.326-3.019
	c-1.016-0.273-1.265,0.274-1.266,1.006c0,0.64,0.109,1.279,0.185,2.074c-0.539,0.069-1.097,0.142-1.82,0.235
	c-0.013-1.131-0.023-2.092-0.034-3.065c-1.261,0.282-1.299,0.372-1.271,2.894c-0.601-0.03-1.193-0.059-2.006-0.099
	c0.684-1.497,1.275-2.791,1.977-4.325c-1.718,0.324-1.732,1.85-2.58,2.536c-0.081,0.012-0.169,0.044-0.183,0.024
	c-0.211-0.3-0.412-0.606-0.592-0.875c0.635-1.126,1.229-2.181,1.934-3.433c-1.754-0.034-1.585,1.584-2.501,2.104
	c-0.107-0.055-0.26-0.103-0.367-0.199c-0.117-0.104-0.194-0.257-0.353-0.479c0.287-0.91,0.591-1.872,0.948-2.999
	c-1.499-0.104-1.223,1.416-2.06,1.908c-0.316-0.155-0.688-0.338-1.114-0.547c0.065-0.681,0.127-1.308,0.192-1.98
	c-1.238-0.42-1.091,0.764-1.602,1.307c-0.355-0.041-0.764-0.087-1.164-0.132c-0.112-0.491-0.206-0.899-0.312-1.367
	c-0.322,0.029-0.576,0.053-0.896,0.083c-0.11,0.511-0.21,0.976-0.339,1.572c-0.411,0.086-0.861,0.181-1.39,0.292
	c-0.223-0.601-0.406-1.098-0.631-1.706c-0.348,0.096-0.671,0.185-1.071,0.295c0.117,0.617,0.215,1.134,0.323,1.707
	c-0.201,0.169-0.399,0.335-0.69,0.579c-0.405-0.49-0.769-0.928-1.199-1.449c-0.312,0.184-0.607,0.357-0.942,0.554
	c0.268,0.63,0.496,1.165,0.764,1.797c-0.337,0.228-0.637,0.43-0.916,0.617c-0.709-0.134-1.364-1.052-2.224,0.234
	c0.373,0.276,0.8,0.593,1.314,0.975c-0.259,0.41-0.479,0.761-0.656,1.042c-0.672,0.129-1.254,0.242-2.176,0.42
	c0.656,0.562,1.004,0.86,1.408,1.208c-0.225,0.573-0.439,1.119-0.635,1.614c-0.549,0.198-1.019,0.369-1.721,0.622
	c0.556,0.481,0.902,0.782,1.271,1.104c-0.074,0.449-0.146,0.873-0.225,1.34c-0.442,0.281-0.878,0.556-1.471,0.93
	c0.476,0.368,0.832,0.643,1.205,0.931c-0.014,0.28-0.027,0.548-0.042,0.871c-0.332,0.195-0.69,0.404-1.442,0.846
	c0.527,0.353,0.918,0.616,1.249,0.838c0.103,0.949,0.196,1.812,0.299,2.761c0.313,0.223,0.653,0.463,0.957,0.679
	c0.245-0.074,0.421-0.087,0.55-0.172c1.587-1.05,3.33-1.49,5.229-1.604c5.887-0.357,11.66,0.382,17.26,2.077
	c2.881,0.873,5.706,2.161,7.866,4.48c-0.079,0.452-0.149,0.858-0.252,1.452c0.534,0.08,0.974,0.146,1.522,0.229
	c0.098,0.127,0.261,0.337,0.473,0.609c-0.218,0.367-0.43,0.722-0.627,1.055c0.286,1.015,0.971,0.324,1.614,0.396
	c0.185,0.422,0.394,0.901,0.609,1.394c-0.373,0.414-0.684,0.761-1.083,1.204c0.549,0.218,0.982,0.39,1.486,0.589
	c0.022,0.282,0.049,0.595,0.067,0.83c-0.541,0.389-1.012,0.728-1.483,1.067c0.043,0.124,0.086,0.249,0.129,0.373
	c0.497,0.053,0.994,0.105,1.565,0.165c0.05,0.341,0.105,0.702,0.158,1.055c-0.621,0.294-1.19,0.564-1.76,0.834
	c0.032,0.1,0.063,0.198,0.095,0.297c0.557,0.144,1.113,0.287,1.768,0.456c-0.001,0.513-0.001,0.977-0.003,1.519
	c-0.729,0.083-1.353,0.153-2.086,0.236c0.289,1.254,1.435,0.557,2.102,1.141c0.001,0.35,0.003,0.808,0.004,1.192
	c-0.863,0.55-1.806-0.642-2.62,0.521c0.82,0.36,1.585,0.697,2.527,1.112c-0.082,0.658-0.169,1.371-0.265,2.14
	c-1.116-0.003-2.069-0.885-3.346,0.046c1.112,0.449,2.006,0.81,2.985,1.205c-0.075,0.332-0.14,0.618-0.203,0.897
	c-1.127,0.006-2.004-1.149-3.274-0.382c0.75,0.982,2.025,1.033,2.973,1.898c-0.092,0.41-0.204,0.902-0.331,1.466
	c-1.096-0.171-1.841-1.55-3.25-0.5c0.942,0.632,1.731,1.16,2.628,1.761c-0.13,0.396-0.274,0.832-0.429,1.298
	c-1.274-0.115-2.009-1.607-3.513-1.215c0.378,1.529,2.106,1.442,2.722,2.757c-0.196,0.377-0.456,0.875-0.716,1.377
	c-1.225-0.456-1.503-2.451-3.324-1.657c0.429,1.27,1.503,1.848,2.474,2.647c-0.379,0.576-0.72,1.096-1.118,1.7
	c-0.68-0.927-1.249-1.703-1.875-2.558c-0.43,0.091-0.817,0.173-1.496,0.316c0.882,1.176,1.617,2.153,2.472,3.293
	c-0.33,0.434-0.7,0.921-1.246,1.641c-0.398-0.618-0.688-1.034-0.941-1.471c-0.271-0.468-0.51-0.956-0.819-1.543
	c-0.399,0.028-0.79,0.055-1.293,0.091c0.328,1.465,1,2.537,2.137,3.59c-0.58,0.427-1.111,0.817-1.768,1.299
	c-0.572-1.127-1.074-2.117-1.615-3.184c-0.464,0.008-0.869,0.014-1.509,0.024c0.664,1.384,1.238,2.581,1.865,3.887
	c-0.528,0.253-1.003,0.479-1.528,0.73c-0.479-1.138-0.918-2.179-1.419-3.371c-0.46,0.042-0.888,0.081-1.475,0.134
	c0.511,1.361,0.939,2.503,1.396,3.716c-0.329,0.147-0.562,0.253-0.974,0.438c-0.517-1.405-1.009-2.742-1.565-4.252
	c-0.533,0.283-0.871,0.462-1.336,0.71c0.534,1.318,1.018,2.515,1.574,3.889c-0.513,0.173-0.985,0.334-1.653,0.56
	c-0.38-1.329-0.729-2.545-1.106-3.864c-0.469,0.106-0.802,0.18-1.348,0.303c0.356,1.331,0.683,2.549,1.044,3.895
	C112.89,135.661,112.173,135.795,111.296,135.959z M96.158,110.419c-0.017,0.339-0.032,0.557-0.037,0.773
	c-0.072,3.682,2.83,7.24,6.462,7.909c3.896,0.717,7.708,0.153,11.461-0.885c1.774-0.491,2.944-1.766,3.75-3.411
	c0.443-0.903,1.006-1.749,1.565-2.707c-0.525-0.427-0.965-1.015-0.709-2.057c0.62-0.408,1.24-0.816,1.807-1.189
	c-0.611-1.171-1.391-0.034-2.058-0.495c-0.31-1.364,1.603-1.877,1.347-3.233c-1.191-0.919-1.341,1.016-2.325,0.834
	c-0.537-1.217,0.991-1.849,0.832-3.187c-0.256-0.109-0.63-0.27-0.993-0.424c-0.425,0.721-0.737,1.25-1.097,1.86
	c-1.442-1.326,0.804-2.479-0.095-3.706c-1.404-0.317-1.188,1.27-2.007,1.797c-0.239-0.108-0.514-0.232-0.768-0.348
	c-0.1-0.954,0.258-1.954-0.709-2.689c-0.266,0.106-0.543,0.215-0.812,0.323c-0.035,0.721-0.066,1.347-0.103,2.085
	c-0.453-0.089-0.794-0.156-1.166-0.229c-0.084-0.716-0.158-1.345-0.242-2.067c-0.433,0.018-0.782,0.031-1.163,0.046
	c-0.087,0.777-0.163,1.462-0.25,2.231c-0.35-0.076-0.594-0.128-0.768-0.166c-0.178-0.779-0.333-1.453-0.504-2.203
	c-0.495,0.051-0.837,0.084-1.245,0.126c0.037,0.857,0.069,1.603,0.106,2.461c-0.406,0.145-0.768,0.273-1.178,0.42
	c-0.23-0.767-0.415-1.38-0.617-2.048c-0.39-0.02-0.732-0.036-1.022-0.051c-0.546,0.919,0.471,1.859-0.299,2.86
	c-0.433-0.615-0.788-1.12-1.188-1.689c-0.341,0.051-0.682,0.101-1.157,0.172c0.24,0.73,0.437,1.328,0.667,2.03
	c-0.465,0.211-0.888,0.404-1.325,0.601c-0.565-0.547-1.082-1.084-1.877-0.479c0.225,0.505,0.437,0.984,0.669,1.504
	c-0.337,0.415-0.638,0.788-0.921,1.138c-0.65,0.125-1.298-0.749-1.829,0.111c0.236,0.403,0.477,0.812,0.712,1.215
	c-0.146,0.307-0.261,0.549-0.361,0.758c-0.509,0.209-0.973,0.4-1.485,0.61C95.582,109.552,95.851,109.956,96.158,110.419z"/>
</svg>
