<svg version="1.1" id="svg" xmlns="http://www.w3.org/2000/svg" xmlns:xlink="http://www.w3.org/1999/xlink" x="0px" y="0px"
	 width="200px" height="200px" viewBox="0 0 200 200" enable-background="new 0 0 200 200" xml:space="preserve">
<path class="stroke" fill="#a70c1e"  d="M157.042,95.107c-0.212-4.145-0.657-8.203-2.247-12.063c-0.809-1.968-1.673-3.915-3.08-5.556
	c-0.724-0.842-1.422-1.707-2.172-2.525c-0.844-0.919-1.667-1.873-2.613-2.677c-2.972-2.525-6.198-4.685-9.734-6.346
	c-1.754-0.824-3.539-1.489-5.574-1.278c-2.479,0.258-4.974,0.37-7.464,0.498c-2.399,0.124-4.801,0.178-7.2,0.286
	c-0.776,0.034-1.549,0.146-2.36,0.226c-0.11-0.371-0.204-0.675-0.29-0.979c-0.65-2.3-1.493-2.948-3.923-3.143
	c-0.68-0.055-1.364-0.226-2.015-0.438c-2.727-0.895-4.281-0.201-5.306,2.924c-0.157,0.48-0.169,1.013-0.347,1.483
	c-0.103,0.272-0.404,0.47-0.617,0.699c-0.092-0.045-0.185-0.09-0.277-0.135c-0.039-0.68-0.111-1.36-0.109-2.04
	c0.004-1.618-0.035-3.244,0.09-4.855c0.182-2.348,0.289-4.73,0.797-7.017c0.765-3.447,2.763-5.828,6.472-6.589
	c3.562-0.73,7.836,2.192,8.022,6.468c0.041,0.968-0.016,1.941,0.035,2.908c0.057,1.093,0.184,2.182,0.29,3.384
	c2.425,0.727,4.737,0.608,7.22,0.271c0.053-0.412,0.184-0.854,0.152-1.283c-0.16-2.253-0.279-4.516-0.572-6.753
	c-0.283-2.147-0.808-4.188-2.078-6.089c-2.523-3.777-6.055-5.689-10.4-6.362c-2.925-0.454-5.672,0.211-8.385,1.283
	c-2.379,0.941-4.009,2.699-5.221,4.786c-1.904,3.278-2.909,6.881-3.116,10.685c-0.146,2.681-0.275,5.363-0.425,8.043
	c-0.035,0.621-0.128,1.24-0.21,2.008c-0.564-0.369-0.944-0.617-1.496-0.978c-1.081,0.083-2.312,0.178-3.518,0.271
	c-1.574-1.518-2.382-1.748-4.627-0.643c-1.008,0.496-1.929,1.119-2.413,2.554c0,0.53,0,1.356,0,2.242
	c-1.31,0.896-2.483,1.892-2.234,3.667c-1.945,0.577-3.736,1.192-5.569,1.635c-3.409,0.824-6.864,1.455-10.257,2.335
	c-5.455,1.415-10.877,2.958-16.307,4.467c-1.381,0.385-2.634,1.036-3.055,2.532c-0.231,0.822-0.381,1.74-0.264,2.572
	c0.356,2.514,0.845,5.009,1.311,7.507c0.718,3.848,2.219,7.439,3.771,10.998c1.014,2.325,2.222,4.568,3.34,6.849
	c0.651,1.326,1.229,2.696,1.962,3.976c1.482,2.585,3.758,4.398,6.246,6.133c0.057,0.331,0.161,0.732,0.19,1.139
	c0.146,2.026,0.229,4.061,0.418,6.083c0.216,2.302,0.673,4.589,0.75,6.892c0.107,3.18,0.901,6.212,1.636,9.26
	c0.581,2.415,1.839,4.572,3.366,6.472c1.543,1.918,3.735,3.175,5.932,4.232c3.176,1.529,6.623,2.313,10.047,3.1
	c2.936,0.673,5.912,1.085,8.932,1.063c3.958-0.027,7.718-0.807,11.044-3.098c0.716-0.494,1.526-0.92,2.087-1.559
	c1.924-2.188,3.187-4.777,3.851-7.585c0.869-3.679,1.817-7.355,2.054-11.328c2.822-0.103,5.496-0.194,8.17-0.302
	c0.551-0.021,1.125-0.015,1.644-0.17c2.517-0.752,5.113-1.339,7.499-2.397c2.688-1.192,5.336-2.61,7.727-4.316
	c4.42-3.154,8.203-7.05,11.721-11.179c2.809-3.295,5.001-6.962,6.47-11.055C156.107,102.676,157.246,99.072,157.042,95.107z"/>
<path fill-rule="evenodd" clip-rule="evenodd" fill="#f5f1eb" class="fill" d="M58.526,115.463c0.544,0.158,1.089,0.315,1.837,0.532
	c-0.612-1.528-2.515-1.085-3.195-2.595c0.938,0.103,1.65,0.181,2.437,0.267c0.057-0.224,0.107-0.423,0.183-0.719
	c-1.049-0.261-2.021-0.501-3.153-0.782c-0.221-0.459-0.486-1.011-0.837-1.739c1.004,0,1.771,0,2.603,0c0-0.31,0-0.517,0-0.79
	c-0.942-0.108-1.848-0.212-2.882-0.331c-0.227-0.445-0.471-0.923-0.792-1.553c0.802,0,1.454,0,2.198,0
	c0.041-0.312,0.073-0.555,0.103-0.781c-1.011-0.218-1.951-0.42-2.926-0.63c-0.098-0.368-0.173-0.654-0.278-1.049
	c0.819,0,1.529,0,2.445,0c-0.636-1.598-2.356-0.624-3.136-1.573c-0.16-0.473-0.319-0.944-0.549-1.626
	c0.926,0.066,1.714,0.122,2.594,0.185c0.045-0.293,0.081-0.536,0.129-0.852c-1.088-0.237-2.107-0.461-3.13-0.686
	c-0.176-0.527-0.319-0.957-0.544-1.633c0.942,0.271,1.694,0.488,2.457,0.707c0.453-0.54,0.325-0.875-0.229-1.093
	c-0.688-0.271-1.378-0.536-2.074-0.784c-0.542-0.192-0.847-0.529-0.807-1.312c0.7,0.138,1.352,0.266,2.104,0.413
	c0.085-0.225,0.17-0.449,0.312-0.822c-1.006-0.312-1.914-0.595-2.874-0.895c-0.104-0.285-0.207-0.571-0.38-1.046
	c0.834,0.221,1.509,0.4,2.196,0.583c0.437-0.73,0.047-1.003-0.476-1.204c-0.729-0.279-1.461-0.547-2.225-0.831
	c-0.125-0.55-0.232-1.027-0.417-1.842c0.579,0.265,0.939,0.379,1.245,0.578c2.368,1.535,4.682,3.158,7.096,4.615
	c3.202,1.934,6.483,3.734,9.723,5.607c0.921,0.531,1.78,1.176,2.722,1.662c3.65,1.888,7.328,3.724,10.984,5.601
	c1.109,0.569,2.137,1.315,3.279,1.8c2.419,1.025,4.865,1.997,7.343,2.869c2.609,0.919,5.237,1.817,7.914,2.508
	c4.248,1.097,8.523,2.119,12.963,2.087c3.971-0.029,7.963,0.241,11.896-0.449c3.497-0.615,6.985-1.325,10.43-2.188
	c2.682-0.674,5.295-1.624,7.924-2.494c0.902-0.299,1.761-0.729,2.863-0.909c-0.456,0.816-0.828,1.694-1.382,2.438
	c-3.392,4.548-7.189,8.703-11.968,11.843c-2.898,1.904-5.849,3.731-9.311,4.494c-2.705,0.597-5.385,1.348-8.114,1.788
	c-1.671,0.271-3.417,0.162-5.124,0.086c-2.627-0.119-5.257-0.284-7.871-0.566c-1.921-0.206-3.818-0.631-5.727-0.959
	c-1.035-0.177-2.095-0.269-3.103-0.547c-4.003-1.102-7.984-2.278-11.984-3.393c-2.8-0.781-5.418-2.022-8.08-3.146
	c-4.225-1.782-8.208-4.038-12.059-6.516c-0.906-0.582-1.677-1.375-2.51-2.071C58.419,115.635,58.473,115.549,58.526,115.463z"/>
<path fill-rule="evenodd" clip-rule="evenodd" fill="#f5f1eb" class="fill" d="M49.03,87.257c-0.217-2.102,0.073-3.687,0.907-5.401
	c2.697-0.758,5.453-1.52,8.202-2.309c1.199-0.345,2.367-0.807,3.576-1.107c3.452-0.857,6.912-1.69,10.381-2.477
	c2.84-0.643,5.698-1.205,8.44-1.78c1.05,0.229,1.994,0.436,3.057,0.667c0.652,1.177,1.32,2.528,2.901,2.829
	c1.494,0.283,2.688-0.387,3.757-1.508c2.1-0.193,4.548,0.181,5.445-2.324c1.33-0.226,2.522-0.323,3.65-0.646
	c1.175-0.336,1.993-1.145,2.094-2.553c1.382,0.341,2.345,0.901,2.845,2.325c0.653,1.863,3.298,2.374,4.925,1.088
	c0.216-0.171,0.399-0.379,0.587-0.559c3.881-0.013,5.255-1.185,5.033-5.505c0.66-0.12,1.328-0.296,2.006-0.354
	c4.557-0.397,9.111-0.849,13.678-1.095c1.184-0.062,2.536,0.306,3.583,0.886c4.621,2.564,8.904,5.646,12.841,9.174
	c1.951,1.748,3.348,3.926,4.242,6.414c0.642,1.781,1.516,3.495,1.996,5.315c1.018,3.864,0.698,7.703-0.717,11.445
	c-1.236,3.269-3.146,6.062-5.907,8.229c-2.083,1.636-4.331,2.953-6.87,3.802c-3.385,1.132-6.852,1.863-10.334,2.605
	c-3.629,0.774-7.285,1.28-10.965,1.527c-2.338,0.157-4.727-0.016-7.059-0.307c-3.021-0.377-6.035-0.91-9.007-1.575
	c-3.198-0.716-6.398-1.502-9.496-2.557c-2.48-0.844-4.81-2.131-7.202-3.233c-1.258-0.58-2.512-1.171-3.756-1.78
	c-1.781-0.874-3.562-1.751-5.323-2.663c-2.499-1.293-5.012-2.563-7.461-3.946c-4.067-2.296-8.148-4.579-12.11-7.048
	C54.193,91.109,51.603,89.081,49.03,87.257z M63.239,87.776c-0.229,0.861,0.176,1.322,0.578,1.771
	c0.957,1.068,1.925,2.127,2.888,3.189c1.527,1.685,3.186,3.223,5.057,4.523c1.176,0.816,2.389,1.586,3.511,2.47
	c2.747,2.162,5.76,3.865,8.917,5.33c3.48,1.613,6.944,3.267,10.474,4.768c1.43,0.608,3.018,0.843,4.525,1.277
	c4.557,1.309,9.177,2.218,13.941,2.048c3.652-0.131,7.301-0.375,10.953-0.557c2.785-0.139,5.476-0.762,8.16-1.475
	c3.293-0.873,6.307-2.375,9.293-3.949c2.412-1.271,4.523-2.886,5.867-5.338c0.486-0.887,1.027-1.746,1.457-2.659
	c1.309-2.783,1.756-5.695,1.381-8.768c-0.294-2.391-1.275-4.513-2.227-6.669c-0.998-2.264-2.6-4.031-4.456-5.591
	c-1.558-1.309-3.118-2.623-4.768-3.81c-1.04-0.747-2.237-1.277-3.384-1.867c-0.225-0.115-0.554-0.124-0.809-0.066
	c-0.848,0.19-1.68,0.445-2.523,0.654c-2.461,0.608-4.91,1.264-7.389,1.794s-4.987,0.913-7.479,1.394
	c-5.893,1.135-11.782,2.289-17.674,3.435c-2.481,0.482-4.962,0.965-7.445,1.442c-0.953,0.184-1.912,0.332-2.862,0.527
	c-2.574,0.532-5.141,1.096-7.717,1.618c-2.308,0.469-4.641,0.83-6.933,1.364c-2.835,0.66-5.645,1.433-8.457,2.192
	C65.116,87.098,64.141,87.477,63.239,87.776z"/>
<path fill-rule="evenodd" clip-rule="evenodd" fill="#f5f1eb" class="fill" d="M66.145,123.523c1.185,0.532,2.045,0.928,2.914,1.307
	c2.276,0.991,4.538,2.018,6.838,2.949c3.253,1.318,6.599,2.354,10.005,3.211c3.086,0.775,6.139,1.684,9.235,2.411
	c2.109,0.495,4.268,0.78,6.405,1.161c1.317,0.235,2.629,0.523,3.955,0.69c1.001,0.126,2.021,0.096,3.033,0.141
	c0.414,0.019,0.826,0.05,1.44,0.088c0,0.569,0.075,1.111-0.014,1.624c-0.425,2.455-0.941,4.896-1.339,7.354
	c-0.475,2.934-1.721,5.538-3.294,8.002c-0.883,1.382-2.104,2.38-3.581,3.169c-3.789,2.026-7.812,2.29-11.981,2.021
	c-5.229-0.338-10.168-1.799-15.029-3.619c-3.147-1.179-4.922-3.597-5.984-6.665c-1.157-3.344-1.747-6.796-1.977-10.312
	c-0.247-3.782-0.425-7.57-0.622-11.355C66.119,125.108,66.145,124.514,66.145,123.523z"/>
<path fill-rule="evenodd" clip-rule="evenodd" fill="#f5f1eb" class="fill" d="M121.309,57.515c-0.847-0.119-1.634-0.229-2.585-0.362
	c-0.055-1.225-0.187-2.359-0.14-3.486c0.111-2.71-0.512-5.13-2.578-7.016c-1.545-1.411-3.338-2.265-5.471-2.366
	c-2.209-0.103-4.352,0.09-6.291,1.252c-0.704,0.422-1.438,0.877-1.971,1.482c-1.816,2.063-2.951,4.429-3.058,7.254
	c-0.073,1.937-0.402,3.864-0.481,5.801c-0.14,3.415-0.176,6.834-0.252,10.25c-0.012,0.547-0.002,1.094-0.002,1.777
	c-0.842,0-1.601,0-2.518,0c-0.111-0.726-0.322-1.396-0.301-2.058c0.148-4.622,0.358-9.241,0.519-13.862
	c0.14-4.004,1.188-7.76,3.161-11.226c1.137-1.996,2.612-3.711,4.965-4.383c0.488-0.14,0.967-0.313,1.436-0.509
	c1.85-0.773,3.777-0.443,5.596-0.113c3.025,0.551,5.533,2.218,7.646,4.453c0.715,0.756,1.149,1.644,1.331,2.683
	c0.301,1.726,0.782,3.428,0.958,5.165C121.439,53.891,121.309,55.562,121.309,57.515z"/>
<path fill-rule="evenodd" clip-rule="evenodd" fill="#f5f1eb" class="fill" d="M91.631,69.381c0.225,0.348,0.493,0.866,0.855,1.31
	c1.013,1.24,1.061,2.553,0.076,3.911c-0.121,0.031-0.266,0.117-0.387,0.092c-1.432-0.297-2.583,0.011-3.562,1.218
	c-0.367,0.452-1.2,0.525-1.901,0.803c-0.574-0.611-1.185-1.033-1.472-1.615c-0.563-1.141-1.364-1.706-2.628-1.634
	c-0.179,0.01-0.362-0.057-0.549-0.088c-0.849-0.731-0.866-1.746-0.452-2.539c0.398-0.763,1.239-1.296,2.04-2.082
	c0.206-1.291-0.687-3.316,1.86-3.928c0.334,0.172,0.805,0.359,1.213,0.638c1.066,0.724,2.169,0.966,3.416,0.506
	c0.94-0.348,1.711-0.088,2.331,0.952C92.253,67.562,92.003,68.292,91.631,69.381z M85.461,71.165
	c1.162,1.689,2.819,2.079,4.103,1.012c1.067-0.888,0.85-2.737-0.526-4.157c-0.387-0.102-0.827-0.218-1.217-0.321
	C85.727,68.27,85.387,68.767,85.461,71.165z"/>
<path fill-rule="evenodd" clip-rule="evenodd" fill="#f5f1eb" class="fill" d="M106.653,61.995c0.377,0.477,0.771,0.975,1.269,1.604
	c0.838,0,1.782,0,2.727,0c0.033-0.084,0.066-0.169,0.1-0.253c0.527,0.39,1.057,0.779,1.623,1.198
	c-0.178,0.587-0.269,1.037-0.452,1.446c-0.186,0.416-0.464,0.79-0.655,1.105c-0.091,0.92,0.591,1.305,1.006,1.826
	c0.34,0.426,0.596,0.832,0.361,1.378c-0.247,0.574-0.791,0.943-1.32,0.824c-1.684-0.381-2.504,0.495-3.017,1.976
	c-0.585,0.156-1.145,0.306-1.82,0.486c-0.415-0.483-0.948-0.862-1.136-1.37c-0.484-1.303-1.241-2.245-2.583-2.539
	c-0.468-1.368-0.397-1.807,0.593-2.613c0.545-0.443,0.828-0.948,0.908-1.63c0.061-0.499,0.257-0.983,0.307-1.482
	C104.684,62.734,105.404,62.187,106.653,61.995z M106.312,64.815c-1.768,1.565-1.646,3.149,0.302,4.688
	c1.584,0.149,3.107-0.823,3.22-2.058C109.951,66.159,108.453,65.018,106.312,64.815z"/>
<path fill-rule="evenodd" clip-rule="evenodd" fill="#f5f1eb" class="fill" d="M66.588,89.169c2.137-0.56,4.078-1.112,6.041-1.572
	c2.787-0.653,5.588-1.246,8.386-1.852c5.195-1.125,10.381-2.299,15.594-3.336c2.899-0.577,5.874-0.784,8.761-1.402
	c4.382-0.938,8.704-2.145,13.077-3.131c4.01-0.905,8.051-1.667,12.078-2.495c1.086-0.223,2.166-0.477,3.256-0.676
	c0.632-0.114,1.277-0.147,1.853-0.211c3.69,2.544,6.933,5.384,9.546,8.938c1.58,2.148,2.145,4.57,2.458,7.114
	c0.427,3.45-0.535,6.612-2.13,9.598c-0.468,0.874-1.176,1.682-1.938,2.326c-1.896,1.604-3.752,3.286-6.094,4.271
	c-2.824,1.188-5.747,2.066-8.763,2.549c-3.235,0.519-6.488,0.965-9.749,1.253c-2.198,0.194-4.426,0.114-6.639,0.064
	c-4.229-0.094-8.35-0.988-12.467-1.856c-2.894-0.61-5.65-1.674-8.321-2.926c-2.631-1.232-5.237-2.523-7.805-3.881
	c-1.834-0.97-3.676-1.969-5.359-3.172c-3.939-2.817-8.066-5.416-11.368-9.039C66.915,89.635,66.844,89.518,66.588,89.169z
	 M139.328,94.204c-0.361-0.08-0.539-0.156-0.715-0.153c-3.051,0.051-6.125-0.106-9.146,0.225c-3.983,0.435-7.939,1.178-11.88,1.933
	c-3.221,0.618-6.32,1.692-9.42,2.78c-3.678,1.29-6.931,3.231-9.937,5.649c-0.261,0.21-0.43,0.534-0.667,0.837
	c0.652,0.592,1.195,1.083,1.871,1.697c0.409-0.155,0.941-0.223,1.293-0.512c3.375-2.764,7.271-4.597,11.29-6.124
	c3.099-1.178,6.304-2.106,9.511-2.96c5.229-1.393,10.561-2.192,15.984-2.27c0.542-0.008,1.083-0.002,1.701-0.002
	C139.257,94.895,139.287,94.602,139.328,94.204z M109.845,87.298c-0.112-1.5-0.891-2.396-2.108-2.496
	c-1.66-0.137-3.241,0.994-3.688,2.64C105.238,89.934,107.912,89.894,109.845,87.298z"/>
<path fill-rule="evenodd" clip-rule="evenodd" fill="#f5f1eb" class="fill" d="M87.688,69.175c0.596,1.02,0.525,1.315-0.494,2.062
	c-0.534-0.078-0.658-0.445-0.56-0.896C86.759,69.765,86.874,69.141,87.688,69.175z"/>
<path fill-rule="evenodd" clip-rule="evenodd" fill="#f5f1eb" class="fill" d="M106.721,66.157c0.381,0.21,0.681,0.376,1.131,0.625
	c-0.287,0.502-0.533,0.93-0.801,1.396C106.13,67.272,106.13,67.272,106.721,66.157z"/>
</svg>
