<svg version="1.1" id="svg" xmlns="http://www.w3.org/2000/svg" xmlns:xlink="http://www.w3.org/1999/xlink" x="0px" y="0px"
	 width="200px" height="200px" viewBox="0 0 200 200" enable-background="new 0 0 200 200" xml:space="preserve">
<path class="stroke" fill="#472664"  d="M123.185,78.342c-0.095-1.671-0.297-3.387-0.798-4.974c-1.517-4.801-3.57-9.363-6.202-13.688
	c-1.796-2.954-4.055-5.489-6.379-7.981c-2.096-2.249-4.64-3.953-7.389-5.313c-1.626-0.805-3.269-1.675-5.004-2.14
	c-3.839-1.029-7.76-1.695-11.792-1.891c-2.619,0.332-5.261,0.542-7.851,1.029c-2.618,0.493-5.195,1.219-7.768,1.922
	c-1.739,0.476-3.471,1.012-5.148,1.669c-1.098,0.43-2.057,1.203-3.138,1.685c-2.707,1.205-4.999,3.032-7.097,5.024
	c-3.68,3.495-6.364,7.717-7.712,12.639c-0.792,2.892-1.33,5.869-1.761,8.841c-0.604,4.154-1.041,8.326-0.32,12.54
	c0.698,4.082,2.009,7.98,3.81,11.649c2.136,4.352,5.364,7.954,9.03,11.121c0.995,0.859,2.094,1.62,3.226,2.29
	c3.244,1.917,6.718,3.227,10.437,3.943c4.409,0.849,8.833,1.439,13.323,1.036c5.22-0.468,10.343-1.39,15.315-3.152
	c3.091-1.096,6.071-2.374,8.971-3.898c4.566-2.4,7.634-6.264,10.09-10.568c2.528-4.431,3.927-9.322,4.199-14.452
	C123.356,83.234,123.322,80.779,123.185,78.342z"/>
<path class="stroke" fill="#472664"  fill-rule="evenodd" clip-rule="evenodd" d="M135.157,131.317c-2.154,1.822-3.561,4.203-5.124,6.464
	c-2.574,3.727-3.746,7.99-4.845,12.298c-0.489,1.92-1.027,3.844-1.75,5.684c-1.266,3.22-6.275,6.348-10.458,4.292
	c-3.335-1.64-4.315-5.221-1.797-7.923c2.347-2.518,4.92-4.822,7.374-7.241c3.105-3.061,5.676-6.522,7.71-10.383
	c0.863-1.639,1.747-3.266,2.635-4.891c0.379-0.696,0.042-1.213-0.396-1.694c-1.903-2.09-3.095-4.64-3.652-7.294
	c-1.13-5.386-0.542-10.631,2.63-15.342c2.294-3.408,5.52-5.453,9.528-6.263c1.812-0.366,3.627-0.757,5.46-0.969
	c3.072-0.355,6.069,0.126,8.931,1.277c3.209,1.291,5.901,3.25,7.748,6.261c1.153,1.879,1.584,3.967,1.975,6.086
	c0.602,3.257-0.374,6.257-1.277,9.318c-0.705,2.395-1.85,4.452-3.631,6.143c-1.63,1.546-3.555,2.62-5.749,3.199
	c-1.34,0.354-2.635,0.959-3.991,1.145c-3.573,0.49-7.169,0.927-10.735-0.127C135.558,131.302,135.35,131.328,135.157,131.317z
	 M154.63,115.326c0-0.627,0.039-1.257-0.007-1.881c-0.192-2.614-0.67-5.145-2.61-7.104c-0.643-0.649-1.338-1.369-2.153-1.699
	c-1.298-0.525-2.702-0.931-4.09-1.061c-1.856-0.173-3.824-0.383-5.597,0.039c-4.309,1.026-6.732,4.301-8.208,8.198
	c-0.622,1.644-0.946,3.65-0.627,5.346c0.576,3.067,2.534,5.421,5.262,7.032c2.675,1.58,5.564,1.66,8.438,0.834
	c2.253-0.647,4.534-1.202,6.324-3.069C153.207,120.04,154.627,118.072,154.63,115.326z M117.934,152.71
	c-1.759-0.033-2.062,0.184-2.513,1.817c0.264,0.36,0.569,0.777,0.835,1.139c2.293,0.167,2.73-0.292,2.321-2.378
	C118.388,153.118,118.169,152.921,117.934,152.71z"/>
<path fill-rule="evenodd" clip-rule="evenodd" fill="#f8bfe9" class="fill" d="M81.297,114.789c-4.849-0.316-9.023-0.122-12.937-1.82
	c-2.75-1.194-5.564-2.26-8.235-3.61c-1.296-0.655-2.483-1.698-3.449-2.801c-2.047-2.335-4.126-4.675-5.501-7.512
	c-1.409-2.91-2.62-5.84-3.234-9.089c-0.794-4.195-0.975-8.386-0.671-12.572c0.466-6.412,2.204-12.542,5.752-17.96
	c2.588-3.953,6.083-7.087,10.311-9.284c2.369-1.231,4.757-2.477,7.255-3.394c2.812-1.031,5.717-1.892,8.653-2.474
	c3.487-0.692,7.059-0.716,10.597-0.201c2.158,0.314,4.336,0.594,6.438,1.147c1.648,0.435,3.214,1.219,4.778,1.93
	c4.266,1.94,7.553,5.086,10.513,8.629c2.874,3.442,5.023,7.292,6.556,11.496c0.227,0.621,0.483,1.232,0.765,1.83
	c2.492,5.309,2.618,10.885,1.727,16.525c-0.676,4.279-1.694,8.479-3.445,12.485c-1.112,2.545-2.868,4.583-4.685,6.587
	c-1.914,2.111-4.568,3.139-6.965,4.538c-4.263,2.489-8.937,3.822-13.762,4.536C88.061,114.323,84.312,114.508,81.297,114.789z
	 M120.419,83.159c-0.241-2.787-0.343-4.811-0.603-6.813c-0.721-5.546-3.139-10.417-6.284-14.934c-1.371-1.97-3.026-3.72-4.782-5.406
	c-3.792-3.642-7.987-6.616-13.001-8.183c-4.836-1.512-9.901-1.474-14.861-0.934c-4.819,0.526-9.501,1.789-14.051,3.662
	c-6.859,2.823-12.052,7.299-15.395,13.916c-0.101,0.201-0.156,0.428-0.209,0.648c-0.146,0.603-0.26,1.215-0.424,1.813
	c-0.442,1.622-1.057,3.214-1.326,4.863c-0.642,3.937-0.744,7.902-0.507,11.898c0.229,3.88,0.917,7.622,2.475,11.18
	c0.914,2.089,1.673,4.314,2.966,6.154c2.146,3.054,5.065,5.39,8.236,7.381c2.576,1.617,5.285,2.931,8.322,3.33
	c2.915,0.384,5.851,0.607,8.778,0.887c4.699,0.449,9.359-0.054,13.925-1.034c5.115-1.097,9.729-3.511,14.211-6.176
	c3.529-2.1,6.269-4.942,8.421-8.397c1.532-2.459,2.776-5.018,3.146-7.954C119.732,86.845,120.171,84.649,120.419,83.159z"/>
<linearGradient id="SVGID_1_" gradientUnits="userSpaceOnUse" x1="59.3711" y1="97.1499" x2="109.428" y2="62.0997">
	<stop  offset="0" style="stop-color:#FFA8FF"/>
	<stop  offset="0.1371" style="stop-color:#F7BEFF"/>
	<stop  offset="0.3547" style="stop-color:#ECDAFF"/>
	<stop  offset="0.5722" style="stop-color:#E4EFFF"/>
	<stop  offset="0.788" style="stop-color:#E0FBFF"/>
	<stop  offset="1" style="stop-color:#DEFFFF"/>
</linearGradient>
<path fill-rule="evenodd" clip-rule="evenodd" fill="url(#SVGID_1_)" d="M71.539,53.517c-0.115-0.23-0.229-0.461-0.4-0.808
	c-0.346,0.095-0.726,0.107-0.994,0.287c-2.313,1.55-4.278,3.472-5.825,5.786c-2.509,3.753-4.337,7.824-5.167,12.269
	c-0.664,3.557-0.959,7.162-0.59,10.792c0.141,1.384,0.207,2.775,0.333,4.161c0.273,3.005,1.254,5.803,2.491,8.533
	c2.059,4.541,4.575,8.758,8.47,11.989c1.015,0.842,2.144,1.546,3.222,2.314c-0.054,0.095-0.108,0.189-0.162,0.285
	c-1.824-1.021-3.775-1.868-5.448-3.094c-4.57-3.349-7.856-7.743-9.954-13.017c-1.862-4.685-2.812-9.557-3.169-14.577
	c-0.358-5.034,0.364-9.945,1.911-14.677c1.133-3.465,2.981-6.476,6.334-8.596c3.719-2.354,7.408-4.563,11.685-5.745
	c5.385-1.487,10.863-1.774,16.358-1.207c3.374,0.349,6.426,1.755,9.205,3.825c4.434,3.302,8.002,7.346,10.851,12.036
	c2.351,3.87,3.855,8.068,4.176,12.61c0.194,2.77,0.239,5.553,0.255,8.331c0.017,2.927-0.989,5.649-1.855,8.396
	c-0.979,3.106-2.559,5.958-4.498,8.477c-1.223,1.589-3.264,2.646-5.098,3.649c-3.929,2.15-8.199,3.446-12.659,3.668
	c-4.2,0.209-8.436-0.021-12.246-2.189c-4.341-2.471-8.233-5.498-10.876-9.817c-2.071-3.383-3.248-7.154-4.2-10.989
	c-1.131-4.558-1.678-9.182-1.546-13.878c0.127-4.561,0.882-8.95,3.538-12.825c1.365-1.99,3.013-3.675,5.019-5.014
	c0.352-0.234,0.719-0.449,1.079-0.673C71.698,53.719,71.619,53.618,71.539,53.517z"/>
</svg>
