<svg version="1.1" id="svg" xmlns="http://www.w3.org/2000/svg" xmlns:xlink="http://www.w3.org/1999/xlink" x="0px" y="0px"
	 width="200px" height="200px" viewBox="0 0 200 200" enable-background="new 0 0 200 200" xml:space="preserve">
<path class="stroke" fill="#693c11"  d="M154.15,123.949c0-4.565,0.072-9.132-0.018-13.695c-0.091-4.601-0.249-9.188-0.045-13.802
	c0.213-4.824-0.043-9.674-0.22-14.508c-0.179-4.914-0.553-9.819-0.753-14.732c-0.07-1.722,0.194-3.454,0.178-5.181
	c-0.033-3.467-0.043-6.947-0.82-10.352c-0.515-2.261-0.961-4.57-2.687-6.331c-1.429-1.458-2.991-2.745-5.088-2.985
	c-2.435-0.279-4.886-0.522-7.333-0.56c-4.015-0.063-8.034,0.02-12.05,0.1c-4.56,0.09-9.117,0.249-13.676,0.37
	c-2.465,0.065-4.932,0.088-7.397,0.18c-3.783,0.14-7.562,0.397-11.346,0.463c-2.787,0.049-5.534,0.133-8.27,0.812
	c-1.984,0.492-3.812,1.194-5.466,2.38c-2.335,1.673-4.685,3.327-7.018,5.004c-1.515,1.089-3.096,2.109-4.496,3.333
	c-1.608,1.406-3.038,3.013-4.565,4.514c-2.676,2.629-4.176,5.714-3.778,9.555c0.01,0.091,0.005,0.183,0.004,0.274
	c-0.034,2.414-0.047,4.829-0.108,7.243c-0.064,2.507-0.191,5.012-0.26,7.519c-0.046,1.682-0.004,3.367-0.061,5.048
	c-0.107,3.146-0.302,6.29-0.376,9.437c-0.067,2.825-0.033,5.652-0.023,8.478c0.009,2.512,0.03,5.024,0.077,7.535
	c0.063,3.422,0.156,6.844,0.236,10.266c-0.044,0.001-0.089,0.001-0.134,0.001c0,1.37,0.002,2.739,0,4.109
	c-0.013,6.339-0.728,12.669-0.182,19.018c0.205,2.375,0.401,4.734,1.414,6.932c0.998,2.165,2.388,3.799,4.953,4.23
	c2.25,0.378,4.516,0.6,6.765,0.923c3.81,0.549,7.617,0.81,11.453,0.798c4.285-0.012,8.569-0.037,12.853-0.049
	c4.966-0.014,9.933-0.019,14.9-0.028c0.821-0.001,1.649,0.056,2.463-0.026c3.349-0.338,6.696-0.694,10.038-1.092
	c3.785-0.451,7.259-1.714,10.31-4.059c1.586-1.219,3.198-2.406,4.806-3.598c2.299-1.703,4.648-3.321,6.632-5.438
	c1.961-2.091,4.131-3.975,5.863-6.294c2.115-2.833,3.435-5.872,3.252-9.493C154.069,128.153,154.151,126.049,154.15,123.949z"/>
<path fill-rule="evenodd" clip-rule="evenodd" fill="#faf0e5" class="fill" d="M91.437,157.596c-5.344,0-10.688-0.08-16.029,0.037
	c-2.292,0.05-4.558,0.186-6.796-0.407c-1.322-0.35-2.621-0.729-3.778-1.532c-1.105-0.768-1.786-1.792-2.267-3.009
	c-0.575-1.454-0.978-2.952-1.049-4.51c-0.14-3.054-0.235-6.11-0.326-9.166c-0.043-1.459-0.019-2.92-0.05-4.38
	c-0.131-5.978,0.126-11.946,0.315-17.919c0.138-4.377-0.087-8.767-0.149-13.15c-0.038-2.782-0.056-5.563-0.113-8.344
	c-0.062-3.057-0.26-6.115-0.216-9.17c0.065-4.562,0.265-9.121,0.463-13.678c0.086-1.957,0.276-3.911,0.492-5.858
	c0.09-0.809,0.394-1.591,0.559-2.394c0.398-1.933,1.756-2.98,3.488-3.481c1.654-0.478,3.374-0.857,5.086-0.977
	c3.045-0.213,6.107-0.194,9.162-0.277c4.424-0.121,8.848-0.223,13.27-0.377c4.146-0.145,8.301-0.22,12.434-0.553
	c5.812-0.469,11.586,0.079,17.373,0.339c0.726,0.033,1.459,0.144,2.168,0.311c2.569,0.605,4.319,2.222,5.088,4.694
	c0.634,2.037,1.121,4.15,1.376,6.266c0.366,3.033,0.554,6.095,0.647,9.15c0.09,2.958-0.01,5.924-0.075,8.885
	c-0.056,2.506-0.214,5.009-0.27,7.515c-0.086,3.877-0.102,7.755-0.189,11.632c-0.073,3.193-0.239,6.384-0.305,9.578
	c-0.062,2.956,0.005,5.915-0.08,8.87c-0.047,1.638-0.37,3.268-0.425,4.906c-0.103,3.054-0.015,6.115-0.167,9.165
	c-0.142,2.859,0.12,5.758-0.717,8.565c-0.477,1.603-1.303,3.012-2.282,4.34c-1.123,1.523-2.815,2.105-4.517,2.671
	c-2.665,0.885-5.442,1.091-8.206,1.381c-2.264,0.238-4.531,0.46-6.798,0.666c-0.771,0.07-1.55,0.097-2.325,0.096
	c-4.429-0.011-8.858-0.036-13.286-0.056c-0.502-0.002-1.005,0-1.506,0C91.436,157.482,91.436,157.539,91.437,157.596z
	 M116.243,141.344c0.21-0.441,0.342-0.841,0.569-1.176c2.603-3.824,3.891-8.115,4.48-12.645c0.45-3.459,0.47-6.926-0.318-10.34
	c-0.709-3.078-1.8-6.037-3.344-8.8c-0.529-0.947-1.128-1.909-1.898-2.655c-1.502-1.456-3.104-2.816-4.744-4.118
	c-1.507-1.197-3.213-2.148-5.083-2.592c-3.014-0.717-6.074-1.29-9.196-1.175c-2.824,0.104-5.661,0.17-8.461,0.504
	c-4.354,0.519-8.433,1.844-11.991,4.574c-2.202,1.689-3.867,3.708-4.801,6.329c-1.277,3.583-2.172,7.244-2.441,11.052
	c-0.246,3.484,0.013,6.978,0.632,10.361c0.776,4.237,2.979,7.898,6.028,11.003c1.82,1.852,3.859,3.375,6.387,4.066
	c2.809,0.769,5.623,1.569,8.484,2.076c2.816,0.498,5.672,0.755,8.571,0.353C105.377,147.291,111.179,145.344,116.243,141.344z
	 M95.706,96.041c1.367-0.072,2.74-0.085,4.099-0.232c1.762-0.19,3.569-0.253,5.193-1.083c3.459-1.77,6.013-4.386,7.408-8.062
	c0.338-0.893,0.636-1.807,1.043-2.668c0.725-1.532,0.889-3.146,0.837-4.8c-0.101-3.171-0.783-6.219-1.861-9.203
	c-1.212-3.356-3.203-6.073-6.384-7.718c-1.348-0.698-2.896-1.103-4.401-1.387c-4.292-0.81-8.591-1.147-12.809,0.472
	c-2.442,0.937-4.768,2.097-6.78,3.776c-2.384,1.991-3.542,4.796-4.229,7.663c-1.014,4.226-0.84,8.365,0.948,12.562
	C81.504,91.781,89.152,96.385,95.706,96.041z"/>
<path fill-rule="evenodd" clip-rule="evenodd" fill="#faf0e5" class="fill" d="M150.884,119.476c-0.203-4.591-0.407-9.181-0.617-13.926
	c-0.179-0.025-0.499-0.069-0.889-0.124c-0.51,7.378,0.372,14.684-0.934,21.914c-0.139-2.802-0.275-5.604-0.417-8.407
	c-0.173-3.416-0.346-6.832-0.532-10.247c-0.033-0.617-0.036-1.309-1.132-1.247c-0.125,1.996-0.327,3.936-0.351,5.878
	c-0.057,4.701,0.033,9.404-0.066,14.104c-0.041,1.908-0.417,3.809-0.654,5.712c-0.026,0.213-0.139,0.415-0.397,0.641
	c-0.036-0.269-0.104-0.538-0.102-0.807c0.02-2.875,0.123-5.752,0.061-8.625c-0.067-3.102-0.29-6.2-0.438-9.299
	c-0.076-1.596-0.124-3.193-0.212-4.789c-0.034-0.616-0.017-1.312-1.093-1.45c-0.056,0.414-0.146,0.786-0.151,1.159
	c-0.066,5.112-0.179,10.225-0.156,15.336c0.013,2.842-0.21,5.648-0.682,8.441c-0.135,0.802-0.384,1.585-0.833,2.378
	c-0.04-0.321-0.11-0.642-0.114-0.964c-0.037-3.697-0.023-7.395-0.106-11.091c-0.082-3.604-0.259-7.208-0.397-10.811
	c-0.017-0.455-0.056-0.908-0.088-1.42c-0.264-0.143-0.524-0.283-0.795-0.43c-0.134,0.164-0.281,0.261-0.287,0.366
	c-0.056,1.047-0.118,2.096-0.124,3.144c-0.02,3.783,0.04,7.568-0.042,11.349c-0.081,3.743-0.557,7.455-1.203,11.142
	c-0.062,0.352-0.161,0.696-0.302,1.294c-0.462-0.717-0.381-1.295-0.386-1.833c-0.027-2.74-0.003-5.481-0.049-8.221
	c-0.069-4.063-0.18-8.126-0.28-12.189c-0.011-0.451-0.068-0.902-0.109-1.419c-0.304-0.099-0.578-0.187-0.863-0.279
	c-0.106,0.197-0.22,0.31-0.223,0.426c-0.132,5.204-0.333,10.409-0.348,15.613c-0.009,2.937-0.326,5.826-0.718,8.72
	c-0.227,1.671-0.421,3.348-0.706,5.009c-0.189,1.111-0.619,2.154-1.379,3.082c0.095-0.875,0.245-1.749,0.273-2.626
	c0.101-3.054,0.29-6.113,0.201-9.163c-0.116-3.925,0.002-7.836,0.137-11.755c0.199-5.796,0.287-11.596,0.422-17.394
	c0.098-4.202,0.216-8.402,0.292-12.604c0.095-5.296,0.259-10.594,0.193-15.889c-0.042-3.464-0.32-6.938-0.72-10.382
	c-0.229-1.974-0.727-3.965-1.434-5.824c-1.153-3.032-3.609-4.605-6.756-5.098c-1.663-0.26-3.339-0.485-5.018-0.59
	c-2.044-0.128-4.101-0.207-6.146-0.14c-3.466,0.113-6.925,0.417-10.391,0.533c-5.657,0.19-11.317,0.276-16.975,0.442
	c-3.514,0.104-7.025,0.279-10.538,0.414c-0.588,0.023-1.179,0.003-1.834-0.252c0.288-0.126,0.566-0.333,0.864-0.367
	c1.358-0.152,2.719-0.298,4.083-0.37c3.6-0.191,7.203-0.339,10.803-0.518c0.248-0.012,0.49-0.132,0.744-0.204
	c0.011-0.772-0.448-0.898-0.979-0.923c-1.506-0.071-3.013-0.127-4.518-0.2c-1.761-0.085-3.52-0.183-5.291-0.387
	c1.4-0.539,2.8-0.997,4.315-0.995c2.97,0.004,5.939-0.012,8.909-0.02c0.447-0.001,0.893,0,1.455,0
	c-0.042-0.442-0.07-0.722-0.106-1.097c-3.866-0.248-7.692,0.069-11.471-0.757c0.573-0.11,1.142-0.288,1.719-0.318
	c4.194-0.226,8.391-0.417,12.586-0.63c0.47-0.023,0.938-0.111,1.425-0.171c-0.098-0.991-0.68-1.047-1.301-1.069
	c-2.327-0.083-4.654-0.171-6.98-0.264c-0.63-0.025-1.26-0.073-1.936-0.36c0.253-0.086,0.504-0.237,0.761-0.25
	c2.87-0.144,5.74-0.268,8.61-0.394c1.351-0.06,2.701-0.112,4.21-0.173c-0.2-0.453-0.317-0.716-0.461-1.042
	c-4.068-0.24-8.094-0.479-12.064-0.713c4.078-0.86,8.279-0.506,12.451-0.705c3.006-0.144,6.002-0.497,9.006-0.71
	c1.637-0.116,3.284-0.221,4.923-0.182c4.98,0.119,9.946,0.016,14.923-0.314c4.284-0.284,8.569,0.032,12.744,1.267
	c3.672,1.086,5.834,4.57,5.949,7.743c0.167,4.61,0.246,9.223,0.403,13.833c0.167,4.883,0.419,9.763,0.56,14.647
	c0.064,2.233-0.085,4.471-0.07,6.707c0.016,2.146,0.123,4.29,0.184,6.436c0.072,2.511,0.198,5.022,0.192,7.533
	c-0.01,4.104-0.114,8.208-0.165,12.313c-0.02,1.615-0.003,3.231-0.003,4.848C150.928,119.472,150.906,119.474,150.884,119.476z
	 M122.362,54.681c0.389,0.175,0.58,0.322,0.783,0.343c0.814,0.083,1.634,0.104,2.447,0.192c1.63,0.179,3.276,0.316,4.681,1.309
	c1.646,1.162,2.903,2.668,3.542,4.566c0.622,1.85,1.154,3.746,1.181,5.733c0.004,0.353,0.082,0.705,0.136,1.146
	c0.35,0,0.633,0,0.96,0c0.616-2.534,0.37-5.078,0.58-7.624c0.343,0.336,0.637,0.679,0.779,1.076
	c0.432,1.198,0.793,2.422,1.208,3.626c0.146,0.426,0.366,0.827,0.575,1.288c0.893-0.455,0.918-1.098,0.891-1.738
	c-0.076-1.778-0.183-3.555-0.26-5.334c-0.012-0.275,0.068-0.555,0.133-1.032c1.43,1.804,1.688,3.821,2.217,5.735
	c0.312,0,0.528,0,0.83,0c0.755-2.316,0.143-4.675,0.244-7.29c0.278,0.423,0.413,0.589,0.504,0.776
	c0.686,1.401,1.225,2.848,1.392,4.416c0.065,0.618,0.222,1.203,1.293,0.959c0.088-0.593,0.294-1.249,0.26-1.892
	c-0.092-1.729-0.29-3.453-0.439-5.18c-0.02-0.226-0.002-0.454-0.002-0.971c0.273,0.412,0.417,0.545,0.458,0.704
	c0.382,1.494,0.764,2.989,1.104,4.494c0.105,0.467-0.07,1.04,0.627,1.211c0.665-0.216,0.704-0.787,0.667-1.33
	c-0.113-1.681-0.197-3.369-0.432-5.034c-0.19-1.346-0.413-2.732-0.921-3.979c-0.986-2.42-2.872-3.956-5.413-4.611
	c-0.969-0.251-1.982-0.327-2.955-0.566c-1.776-0.437-3.537-0.216-5.303,0.014c-0.506,0.065-0.98,0.197-1.021,0.963
	c2.137,0.577,4.526,0.384,6.624,2.116c-1.363,0.205-2.378-0.059-3.379-0.204c-1.602-0.232-3.177-0.173-4.758,0.123
	c-0.429,0.081-0.793,0.201-0.829,0.886c1.482,0.678,3.372,0.227,4.726,1.422c-0.87-0.017-1.72-0.122-2.565-0.259
	c-1.714-0.277-3.425-0.537-5.166-0.223c-0.458,0.083-0.915,0.113-0.979,0.901c1.588,0.485,3.233,0.961,4.491,1.879
	c-2.185,0.09-4.455,0.187-6.724,0.277C123.733,53.603,123.088,53.958,122.362,54.681z"/>
<path fill-rule="evenodd" clip-rule="evenodd" fill="#faf0e5" class="fill" d="M70.959,124.343c0.197-4.667,0.864-9.263,2.575-13.645
	c1.477-3.782,4.258-6.322,7.964-7.826c1.766-0.716,3.613-1.255,5.458-1.74c0.906-0.238,1.893-0.163,2.842-0.242
	c2.681-0.226,5.358-0.551,8.043-0.654c1.724-0.066,3.462,0.166,5.19,0.308c2.097,0.173,3.891,1.145,5.742,2.071
	c2.842,1.423,4.842,3.678,6.75,6.088c1.392,1.757,2.221,3.758,2.717,5.921c0.724,3.157,1.594,6.302,1.333,9.585
	c-0.217,2.725-0.355,5.468-1.269,8.093c-1.095,3.147-3.079,5.639-5.482,7.891c-3.018,2.829-6.725,4.085-10.615,5.062
	c-4.828,1.211-9.588,0.725-14.373-0.263c-2.384-0.492-4.732-1.082-6.887-2.204c-3.658-1.905-6.225-4.917-7.898-8.619
	C71.653,131.076,70.761,127.812,70.959,124.343z M96.669,142.858c1.225-0.092,2.454-0.155,3.675-0.283
	c2.474-0.26,4.578-1.461,6.668-2.688c2.196-1.289,4.03-2.928,5.463-5.076c1.08-1.619,1.781-3.384,2.463-5.166
	c0.454-1.185,0.94-2.413,1.062-3.656c0.386-3.93,0.237-7.819-1.291-11.565c-1.98-4.856-4.957-8.699-10.15-10.388
	c-0.811-0.263-1.653-0.424-2.472-0.665c-2.725-0.8-5.456-1.467-8.341-1.019c-1.123,0.174-2.27,0.193-3.402,0.317
	c-4.008,0.438-7.611,1.835-10.59,4.617c-0.963,0.899-2.042,1.781-2.685,2.893c-0.974,1.685-1.709,3.528-2.372,5.367
	c-0.87,2.412-1.239,4.953-1.292,7.509c-0.031,1.493,0.091,3.015,0.368,4.481c0.559,2.963,1.977,5.569,3.713,8.005
	c1.522,2.136,3.504,3.706,5.952,4.649C87.692,141.831,92.11,142.654,96.669,142.858z"/>
<path fill-rule="evenodd" clip-rule="evenodd" fill="#faf0e5" class="fill" d="M94.574,94.984c-1.008,0.021-2.689-0.148-4.252-0.858
	c-1.74-0.791-3.522-1.541-5.131-2.554c-2.083-1.311-3.466-3.319-4.705-5.429c-2.241-3.814-2.58-7.893-1.908-12.161
	c0.247-1.566,1.185-2.835,1.667-4.293c0.643-1.942,1.91-3.467,3.551-4.567c1.541-1.031,3.248-1.838,4.943-2.608
	c4.253-1.93,8.633-1.315,13.029-0.572c2.872,0.486,5.243,1.801,7.157,3.941c0.631,0.706,1.21,1.509,1.608,2.362
	c1.357,2.911,2.313,5.948,2.507,9.184c0.058,0.957,0.238,1.923,0.154,2.867c-0.308,3.446-1.632,6.611-3.598,9.345
	c-2.331,3.242-5.658,5.083-9.813,5.107C98.278,94.757,96.775,94.88,94.574,94.984z M79.68,76.727
	c0.038,3.484,0.702,6.761,2.469,9.75c1.36,2.301,2.927,4.424,5.643,5.32c1.726,0.569,3.446,1.158,5.151,1.785
	c3.019,1.109,6.047,0.653,9.021-0.056c2.418-0.577,4.211-2.229,5.926-3.985c2.2-2.253,3.271-4.991,3.799-8.002
	c0.714-4.065-0.128-7.876-1.94-11.525c-1.269-2.554-3.013-4.634-5.538-6.065c-1.475-0.837-3.021-1.304-4.675-1.374
	c-2.317-0.098-4.698-0.435-6.943-0.042c-3.054,0.534-5.904,1.855-8.287,3.98c-1.795,1.6-3.426,3.306-3.887,5.788
	C80.145,73.771,79.924,75.251,79.68,76.727z"/>
<path fill-rule="evenodd" clip-rule="evenodd" fill="#faf0e5" class="fill" d="M74.407,123.325c0.132-3.312,0.736-6.466,2.169-9.445
	c0.472-0.982,0.796-2.057,1.389-2.956c1.783-2.707,4.337-4.514,7.242-5.863c1.891-0.877,3.91-1.208,5.963-1.425
	c3.427-0.364,6.827-0.501,10.163,0.643c1.076,0.37,2.213,0.557,3.3,0.901c2.714,0.859,4.791,2.612,6.455,4.855
	c2.304,3.107,3.743,6.522,3.913,10.475c0.094,2.202,0.326,4.414-0.299,6.528c-1.115,3.775-2.463,7.495-5.584,10.167
	c-4.025,3.446-8.62,5.252-14.01,4.508c-2.166-0.299-4.373-0.451-6.48-0.987c-2.318-0.589-4.666-1.178-6.739-2.531
	c-2.516-1.642-4.056-4.036-5.379-6.603c-0.58-1.126-1.072-2.333-1.368-3.561C74.77,126.493,74.641,124.896,74.407,123.325z
	 M95.215,140.575c2.512-0.091,5.803-0.369,8.876-1.615c1.539-0.624,3.145-1.45,4.287-2.611c3.396-3.455,5.421-7.553,5.462-12.585
	c0.044-5.347-1.534-9.955-5.329-13.752c-0.642-0.643-1.395-1.174-2.046-1.809c-1.888-1.841-4.214-2.921-6.717-3.439
	c-3.002-0.622-6.068-0.75-9.094,0.086c-0.966,0.267-1.968,0.417-2.918,0.729c-1.725,0.564-3.471,1.107-5.114,1.861
	c-0.967,0.444-1.89,1.16-2.597,1.961c-2.36,2.672-3.526,5.972-4.249,9.366c-0.601,2.823-0.21,5.721,0.215,8.574
	c0.594,3.979,2.582,7.049,5.936,9.252c0.687,0.451,1.328,0.979,2.039,1.383c0.906,0.515,1.834,1.01,2.801,1.394
	C89.225,140.346,91.819,140.527,95.215,140.575z"/>
<path fill-rule="evenodd" clip-rule="evenodd" fill="#faf0e5" class="fill" d="M96.371,65.155c1.622,0.214,3.292,0.25,4.856,0.675
	c5.139,1.396,7.665,6.418,8.017,10.268c0.333,3.634-0.764,6.952-2.203,10.187c-0.267,0.598-0.798,1.105-1.284,1.574
	c-2.093,2.019-4.749,2.817-7.51,3.328c-0.981,0.181-1.988,0.251-2.987,0.297c-2.041,0.095-3.838-0.669-5.555-1.678
	c-0.354-0.208-0.716-0.403-1.081-0.59c-1.454-0.747-2.667-1.782-3.533-3.162c-2.225-3.546-3.077-7.431-2.299-11.533
	c0.643-3.388,2.421-6.025,5.767-7.474C91.066,65.959,93.553,65.001,96.371,65.155z M107.052,76.388
	c0.188-1.609-0.705-3.406-1.703-5.163c-0.809-1.425-1.958-2.465-3.455-3.189c-1.8-0.872-3.708-1.278-5.656-1.51
	c-1.905-0.227-3.732,0.095-5.404,1.106c-0.664,0.401-1.353,0.76-2.017,1.162c-1.571,0.952-2.74,2.31-3.441,3.969
	c-0.836,1.979-1.388,4.076-1.293,6.25c0.106,2.453,1.21,4.56,2.615,6.508c1.16,1.608,2.695,2.679,4.654,3.164
	c2.048,0.507,4.098,0.804,6.221,0.771c3.809-0.06,7.665-3.064,8.628-6.486C106.763,80.968,107.049,78.962,107.052,76.388z"/>
<path fill-rule="evenodd" clip-rule="evenodd" fill="#faf0e5" class="fill" d="M96.94,138.442c-6.279-0.095-10.725-1.343-14.402-4.645
	c-2.562-2.301-4.196-5.138-4.411-8.666c-0.049-0.819-0.104-1.638-0.186-2.454c-0.263-2.645,0.357-5.151,1.069-7.668
	c0.582-2.057,1.896-3.501,3.518-4.737c1.892-1.443,4.047-2.231,6.402-2.546c1.399-0.187,2.781-0.49,4.173-0.727
	c2.374-0.402,4.67-0.224,7.031,0.395c2.184,0.571,4.113,1.422,5.784,2.904c2.768,2.454,4.402,5.518,4.984,9.169
	c0.37,2.32,0.439,4.629-0.051,6.937c-0.151,0.711-0.254,1.451-0.536,2.11c-1.399,3.281-3.182,6.346-6.473,8.023
	C101.272,137.848,98.464,138.542,96.94,138.442z M85.773,127.504c0.371,0.381,0.695,0.77,1.075,1.09
	c0.415,0.35,0.849,0.705,1.331,0.944c4.104,2.032,9.62,1.128,12.629-2.162c0.678-0.741,1.582-1.275,2.579-2.06
	c0,1.195,0,2.112,0,3.03c0.987-0.039,1.014-0.017,1.5-0.594c0.596-0.706,1.142-1.454,1.709-2.183
	c0.087,0.014,0.174,0.027,0.262,0.041c0.068,1.198,0.137,2.395,0.217,3.8c0.413-0.194,0.812-0.282,1.06-0.523
	c0.354-0.343,0.625-0.783,0.881-1.21c1.309-2.177,1.44-4.641,1.284-7.027c-0.439-6.713-4.772-11.812-11.785-12.927
	c-0.729-0.116-1.541-0.197-2.119,0.653c0.521,0.451,0.999,0.864,1.476,1.278c-0.654,0.097-1.171-0.035-1.69-0.161
	c-0.929-0.227-1.855-0.462-2.788-0.672c-0.549-0.123-0.962,0.039-1.154,0.629c0.439,0.35,0.827,0.659,1.338,1.066
	c-1.641,0.4-3.286-0.478-4.715,0.837c0.719,0.372,1.287,0.666,2.079,1.075c-5.593,2.115-7.513,6.196-6.932,11.592
	c-0.471,0.176-0.828,0.309-1.181,0.441c0.339,1.467,1.05,2.53,2.143,3.331C85.258,127.688,85.505,127.6,85.773,127.504z
	 M84.547,132.966c-1.101-1.504-2.286-2.754-3.019-4.229c-0.734-1.477-1.015-3.178-1.526-4.888c-0.174,0.03-0.454,0.077-0.699,0.119
	C78.679,127.268,81.627,132.411,84.547,132.966z M84.964,130.765c0.01-0.924-0.358-1.69-0.912-2.34
	c-0.825-0.968-1.219-2.105-1.494-3.31c-0.07-0.305-0.165-0.606-0.287-0.893c-0.044-0.104-0.204-0.158-0.312-0.236
	c-0.144,0.047-0.289,0.063-0.394,0.136c-0.104,0.073-0.169,0.202-0.222,0.268C81.335,127.224,83.03,129.062,84.964,130.765z"/>
<path fill-rule="evenodd" clip-rule="evenodd" fill="#faf0e5" class="fill" d="M104.714,75.309c0.554,2.069,0.363,4.011-0.23,5.908
	c-1.287,4.124-4.546,6.096-9.107,5.747c-1.263-0.096-2.514-0.424-3.755-0.709c-3.859-0.89-6.422-6.065-5.178-9.997
	c0.067-0.214,0.153-0.451,0.305-0.603c1.139-1.14,2.386-2.085,4.306-2.174c-0.222,0.385-0.331,0.649-0.503,0.861
	c-2.178,2.675-1.413,5.805,0.423,7.716c1.403,1.461,3.328,1.935,5.295,1.673c2.751-0.367,4.93-1.688,5.842-4.475
	c0.273-0.833,0.292-1.775,0.283-2.667c-0.007-0.709-0.232-1.415-0.373-2.189C103.167,74.146,103.923,74.709,104.714,75.309z"/>
<path fill-rule="evenodd" clip-rule="evenodd" fill="#faf0e5" class="fill" d="M101.335,77.452c-0.011,2.44-1.72,4.419-4.457,5.162
	c-1.899,0.516-4.53-0.289-5.419-1.704c-1.406-2.237-1.164-4.459,0.144-6.222c1.161-1.566,2.68-2.201,4.385-2.371
	C98.894,72.027,101.349,74.497,101.335,77.452z M98.569,73.827c-1.8-0.764-3.314-0.382-4.826,0.276
	c-2.403,1.046-3.039,4.574-1.226,6.461c2.359,2.455,6.591,0.827,7.287-1.727C100.343,76.862,99.733,75.271,98.569,73.827z"/>
<path fill-rule="evenodd" clip-rule="evenodd" fill="#faf0e5" class="fill" d="M97.864,118.076c-0.083,0.627-0.146,1.096-0.222,1.67
	c-1.441-0.407-2.845-0.804-4.249-1.201c0.003-0.078,0.005-0.156,0.008-0.234c0.75-0.04,1.5-0.08,2.467-0.13
	c-0.832-1.163-2.112-0.887-3.085-1.625c1.411-0.483,2.695,0.27,4.253-0.049c-1.089-1.195-2.374-1.287-3.458-1.37
	c-1.17-0.09-2.382,0.355-3.53,0.558c2.202-2.318,8.32-1.266,9.716,1.467c-0.225,0.114-0.449,0.228-0.722,0.367
	c0,0.287,0,0.594,0,1.02C98.694,118.409,98.388,118.287,97.864,118.076z"/>
<path fill-rule="evenodd" clip-rule="evenodd" fill="#faf0e5" class="fill" d="M100.133,124.424c-2.11,5.386-9.08,5.805-12.292,1.815
	c-1.152-1.431-2.081-2.898-1.942-4.801c0.146-2.01,0.798-3.779,2.729-4.834c-0.136,0.2-0.247,0.425-0.412,0.598
	c-1.779,1.873-1.967,4.105-1.088,6.342c1.06,2.7,3.074,4.334,6.119,4.479c2.553,0.12,4.412-1.145,6.055-2.893
	c0.185-0.197,0.369-0.395,0.558-0.588C99.888,124.512,99.94,124.504,100.133,124.424z"/>
<path fill-rule="evenodd" clip-rule="evenodd" fill="#faf0e5" class="fill" d="M93.493,76.099c0.796-0.928,1.702-1.182,2.734-1.229
	C96.191,76.292,95.221,76.743,93.493,76.099z"/>
</svg>
