<svg version="1.1" id="svg" xmlns="http://www.w3.org/2000/svg" xmlns:xlink="http://www.w3.org/1999/xlink" x="0px" y="0px"
	 width="200px" height="200px" viewBox="0 0 200 200" enable-background="new 0 0 200 200" xml:space="preserve">
<path class="stroke" fill="#3b4954"  fill-rule="evenodd" clip-rule="evenodd" d="M39.863,119.628c-1.849,0.184-3.216,0.419-4.582,0.418
	c-0.895-0.001-1.491-0.738-1.68-1.579c-0.229-1.016-0.331-2.068-0.403-3.109c-0.188-2.7,0.171-5.334,1.202-7.839
	c0.266-0.646,0.755-1.229,1.241-1.748c1.752-1.869,1.939-3.014,0.753-5.214c-1.444-2.678-1.156-5.59,0.793-8.021
	c1.063-1.328,1.019-2.384-0.106-3.653c-0.854-0.961-1.625-1.899-1.416-3.4c0.086-0.613-0.447-1.436-0.915-1.978
	c-0.882-1.023-0.979-2.331-0.066-4.012c0.572-1.054,1.462-1.416,2.751-1.186c0.821,0.146,1.655,0.218,2.495,0.326
	c0.287-1.178,0.342-2.005-0.212-2.835c-0.779-1.17-0.834-2.473-0.101-3.645c0.366-0.585,1.054-1.047,1.696-1.362
	c0.838-0.411,1.284-0.892,1.25-1.884c-0.068-1.906-0.028-3.816-0.037-5.724c-0.011-2.214,1.105-4.028,2.166-5.834
	c0.236-0.402,0.929-0.769,1.399-0.756c1.167,0.033,1.896-0.544,2.569-1.344c0.16-1.266-0.347-2.124-1.433-2.781
	c-0.598-0.361-1.027-0.995-1.557-1.479c-0.763-0.695-1.441-1.574-2.675-1.425c-0.522,0.664-1.027,1.308-1.46,1.859
	c-2.646,0.538-4.928-0.245-7.125-1.244c-2.572,1.015-4.127,0.293-6.236-2.079c-0.402,0.236-0.835,0.463-1.238,0.733
	c-1.584,1.065-3.767,0.853-5.006-0.378c-0.638-0.633-0.832-2.021-0.722-3.012c0.116-1.047,0.771-2.061,1.302-3.029
	c0.485-0.885,1.042-1.703,0.415-2.801c-0.47-0.249-0.975-0.563-1.514-0.794c-1.385-0.593-1.846-1.639-1.334-3.093
	c0.267-0.762,0.505-1.533,0.653-1.986c-0.786-0.916-1.445-1.531-1.896-2.274c-0.217-0.359-0.197-1.024-0.018-1.434
	c1.125-2.562,2.479-4.905,5.71-5.188c1.723-0.151,3.438-0.385,5.157-0.581c0.054,0.092,0.107,0.183,0.16,0.275
	c0.191-0.506,0.402-1.005,0.571-1.519c0.33-1.002,0.874-1.724,2.015-1.894c1.129-0.167,2.237-0.538,3.368-0.618
	c0.953-0.067,1.927,0.145,2.889,0.255c0.355,0.042,0.711,0.235,1.055,0.209c2.962-0.23,5.837,0.384,8.718,0.889
	c2.008,0.351,3.934-0.031,5.858-0.491c2.331-0.557,4.445-0.035,6.389,1.27c0.769,0.515,1.479,0.818,2.49,0.83
	c1.489,0.018,2.96,0.617,4.459,0.754c2.385,0.217,4.786,0.277,7.182,0.364c2.402,0.088,4.822-0.017,7.202,0.256
	c1.065,0.123,2.05,0.961,3.233,1.556c1.608-1.035,3.57-0.901,5.51-0.849c0.483,0.012,1.035,0.061,1.43,0.299
	c2.169,1.312,4.444,1.222,6.758,0.591c2.047-0.559,3.944-0.083,5.846,0.648c1.007,0.387,1.529,1.148,1.783,2.087
	c0.549,2.028,1.372,2.757,3.401,2.941c0.678,0.062,1.349,0.24,2.015,0.401c2.421,0.584,4.841,1.182,7.259,1.779
	c0.479,0.118,0.95,0.275,1.432,0.378c1.347,0.291,2.623,0.192,3.939-0.35c2.081-0.855,4.246-0.819,6.351-0.003
	c1.616,0.626,3.199,1.334,4.645,1.942c0.264,0.812,0.456,1.397,0.627,1.927c1.513,0.301,2.921,0.619,4.344,0.836
	c0.337,0.051,0.738-0.213,1.089-0.376c1.271-0.59,3.139-0.577,4.66,1.099c0.328-0.13,0.789-0.189,1.071-0.446
	c1.697-1.543,3.579-0.944,5.405-0.457c0.736,0.196,1.486,0.629,2.036,1.157c0.486,0.464,0.957,1.193,0.997,1.833
	c0.232,3.729-1.116,6.989-3.46,9.793c-1.259,1.507-3.027,2.36-4.942,2.925c-0.575,0.17-1.159,0.757-1.464,1.306
	c-1.521,2.739-3.588,4.673-6.748,5.413c-2.196,0.515-4.35,1.244-6.474,2.013c-0.783,0.284-1.425,0.957-2.026,1.378
	c0.498,4.578-0.196,5.63-3.659,5.797c-0.302,0.84-0.517,1.744-0.933,2.542c-1.273,2.441-2.574,4.873-3.974,7.243
	c-0.455,0.771-1.229,1.36-1.887,2.001c-0.83,0.812-1.019,1.767-0.876,2.889c0.122,0.965,0.334,2.025,0.067,2.911
	c-0.583,1.936,0.465,2.998,2.247,3.96c1.49,0.805,2.344,2.014,1.912,3.583c-0.279,1.018-0.973,1.997-1.7,2.793
	c-0.617,0.676-1.554,1.056-2.334,1.589c-0.325,0.222-0.674,0.451-0.904,0.758c-1.346,1.795-2.445,3.69-3.205,5.851
	c-0.896,2.549-1.587,5.285-3.592,7.276c-0.602,0.598-1.572,1.18-2.363,1.165c-2.397-0.042-3.876,1.222-5.103,3.01
	c-1.208,1.764-2.38,3.554-3.578,5.326c-0.126,0.186-0.287,0.376-0.478,0.488c-1.904,1.125-3.8,2.339-6.118,1.023
	c-0.108-0.061-0.253-0.056-0.603-0.128c-0.301,0.41-0.736,0.843-0.981,1.366c-0.811,1.727-3.146,2.749-4.951,2.065
	c-0.91-0.345-1.789-0.767-2.647-1.246c-2.288-0.542-4.544,0.08-6.812,0.39c-2.086,0.285-4.134,0.724-6.268,0.208
	c-0.825-0.2-1.771-0.05-2.379,0.802c-0.228,0.319-0.588,0.543-0.814,0.863c-1.11,1.568-2.725,1.784-4.462,1.755
	c-1.46-0.024-2.91,0.05-3.979,1.269c-0.194,0.221-0.407,0.447-0.526,0.708c-0.698,1.554-1.933,2.6-3.383,3.341
	c-1.904,0.972-4.854,0.942-6.52-1.845c-0.59-0.988-1.042-2.068-1.719-2.989c-0.709-0.965-1.546-1.861-2.444-2.657
	c-1.339-1.187-1.954-2.666-2.039-4.386c-0.059-1.204-0.284-2.229-1.425-2.932C41.351,120.859,40.482,120.095,39.863,119.628z"/>
<path class="stroke" fill="#3b4954"  d="M179.013,138.743c-3.65-0.82-7.285-1.707-10.94-2.501c-2.715-0.589-5.449-1.102-8.184-1.592
	c-2.459-0.441-4.924-0.858-7.399-1.188c-2.165-0.289-4.354-0.405-6.525-0.664c-2.301-0.276-4.592-0.639-6.889-0.946
	c-2.578-0.345-5.153-0.681-7.733-0.998c-1.723-0.213-3.449-0.405-5.178-0.569c-2.778-0.264-5.563-0.468-8.341-0.75
	c-2.191-0.222-4.375-0.516-6.727,0.053c-3.406,14.504-6.064,29.136-6.719,44.08c0.187,0.227,0.372,0.454,0.559,0.68
	c0.047-0.027,0.093-0.055,0.14-0.082c0.5,0.209,0.983,0.508,1.504,0.612c1.741,0.347,3.513,0.553,5.244,0.941
	c3.688,0.829,7.325,1.95,11.047,2.557c4.243,0.691,8.548,1.05,12.84,1.378c5.156,0.395,10.358,0.063,15.484,1.075
	c1.571,0.311,3.222,0.201,4.829,0.354c2.753,0.262,5.499,0.586,8.25,0.87c1.982,0.204,3.963,0.45,5.951,0.552
	c1.357,0.07,2.727-0.073,4.149-0.124c0.223-1.042,0.404-1.833,0.558-2.63c0.444-2.319,0.933-4.631,1.294-6.961
	c0.256-1.651,0.292-3.335,0.5-4.995c0.395-3.133,0.815-6.264,1.277-9.388c0.45-3.045,0.944-6.083,1.46-9.117
	c0.258-1.516,0.687-3.005,0.899-4.524c0.24-1.721,0.328-3.465,0.489-5.285C180.6,138.68,179.728,138.904,179.013,138.743z"/>
<path fill-rule="evenodd" clip-rule="evenodd" fill="#e5f3a5" class="fill" d="M24.304,47.566c-0.773-0.92-0.487-1.592,0.035-2.183
	c1.814-2.051,1.995-4.913,0.326-7.066c-0.425-0.55-1.092-0.915-1.546-1.283c0.109-1.211,0.333-2.316,0.258-3.4
	c-0.042-0.601-0.463-1.306-0.931-1.717c-0.807-0.709-0.787-1.511-0.305-2.192c0.878-1.24,2.029-2.113,3.715-2.078
	c1.632,0.034,3.268-0.062,4.901-0.153c1.191-0.067,2.008-0.762,2.092-1.958c0.104-1.468,0.86-2.166,2.22-2.436
	c0.443-0.088,0.854-0.335,1.252-0.499c1.351,0.097,2.534,0.469,3.631,1.344c0.54,0.431,1.492,0.404,2.268,0.47
	c3.044,0.258,6.091,0.5,9.141,0.677c0.625,0.036,1.353-0.087,1.889-0.392c2.314-1.312,4.413-0.55,6.072,0.976
	c1.235,1.137,2.623,1.3,4.019,1.596c4.028,0.854,8.133,0.832,12.224,0.812c1.109-0.006,2.215-0.282,3.325-0.382
	c1.88-0.169,3.684,0.066,5.319,1.115c1.031,0.661,2.109,0.894,3.214,0.171c1.691-1.106,3.337-1.104,5.087-0.048
	c2.356,1.422,4.903,1.008,7.401,0.461c1.59-0.349,3.85,0.236,4.524,1.327c0.086,0.139,0.201,0.287,0.213,0.438
	c0.157,1.83,1.361,2.536,2.971,2.936c4.515,1.124,8.992,2.408,13.532,3.411c1.875,0.414,3.892,0.519,5.737-0.464
	c0.459-0.244,0.937-0.454,1.344-0.65c1.548,0.354,3.018,0.674,4.479,1.028c0.9,0.218,1.437,0.771,1.42,1.749
	c-0.018,0.952,0.355,1.651,1.344,2.048c1.552-0.491,3.054-0.455,4.542,0.563c0.466,0.319,1.379,0.051,2.072-0.049
	c0.697-0.1,1.376-0.325,1.981-0.474c1.798,1.451,3.439,1.463,5.173,0.168c1.286-0.96,2.2-0.75,3.846,0.617
	c0.229,0.19,0.454,0.384,0.667,0.566c-0.026,2.117-1.026,3.787-1.965,5.482c-0.792,1.431-2.061,2.241-3.519,2.872
	c-1.019,0.44-2.074,0.898-2.937,1.574c-0.965,0.755-1.847,1.681-2.56,2.68c-1.502,2.103-3.454,3.44-5.922,4.155
	c-1.729,0.501-3.452,1.077-5.093,1.807c-1.063,0.473-2.013,1.24-2.945,1.962c-0.959,0.742-1.36,1.723-0.996,2.971
	c0.143,0.491,0.095,1.037,0.148,1.752c-0.579-0.046-1.054-0.153-1.511-0.101c-0.458,0.053-1.128,0.13-1.303,0.43
	c-0.565,0.974-1.187,2.021-1.341,3.103c-0.248,1.749-1.25,2.997-2.184,4.345c-1.553,2.245-3.07,4.515-4.588,6.784
	c-0.161,0.24-0.307,0.545-0.315,0.823c-0.077,2.612-0.674,5.266,0.191,7.813c0.285,0.837,1.163,1.491,1.825,2.173
	c0.519,0.536,1.231,0.908,1.667,1.494c0.645,0.868,0.457,1.481-0.438,2.073c-0.327,0.215-0.667,0.476-1.035,0.553
	c-2.034,0.427-2.89,2.006-3.733,3.648c-0.942,1.834-2.013,3.604-2.906,5.459c-0.707,1.471-1.236,3.028-1.833,4.551
	c-0.471,1.202-1.427,1.694-2.626,1.69c-1.494-0.003-2.62,0.556-3.806,1.514c-2.577,2.08-4.014,4.936-5.754,7.599
	c-0.977,1.494-2.22,2.208-4.053,0.989c-1.026-0.683-2.256-0.405-3.123,0.483c-0.526,0.539-1.079,1.053-1.613,1.583
	c-0.548,0.546-1.177,0.588-1.798,0.202c-2.068-1.285-4.092-1.239-6.384-0.393c-1.41,0.519-3.117,0.26-4.691,0.305
	c-1.943,0.053-3.906-0.094-5.825,0.143c-1.039,0.13-2.25,0.648-2.944,1.399c-1.295,1.401-2.821,1.753-4.572,1.939
	c-1.901,0.203-3.825,0.513-5.086,2.241c-0.271,0.371-0.59,0.715-0.812,1.114c-0.738,1.326-2.029,1.849-3.365,1.941
	c-1.234,0.084-1.997-1.032-2.491-1.995c-0.86-1.674-1.924-3.151-3.374-4.323c-1.05-0.848-1.536-2.003-1.437-3.202
	c0.174-2.087-0.728-3.462-2.338-4.547c-1.029-0.692-2.107-1.321-3.092-2.07c-0.901-0.687-1.805-0.788-2.881-0.536
	c-0.771,0.181-1.6,0.119-2.301,0.161c-1.114-1.451-0.848-2.875-0.549-4.252c0.393-1.803,0.499-3.715,2.047-5.101
	c0.837-0.75,1.524-1.676,2.23-2.561c0.914-1.145,0.808-2.364,0.124-3.578c-0.259-0.46-0.523-0.922-0.833-1.348
	c-1.069-1.469-1.038-3.014-0.221-4.536c0.49-0.91,1.175-1.715,1.759-2.576c0.688-1.015,0.423-2.145,0.047-3.103
	c-0.43-1.095-1.221-2.049-1.992-2.989c-0.267-1.818-0.044-3.85-2.1-5.001c0.232-0.89,0.69-1.278,1.583-0.981
	c0.156,0.053,0.327,0.057,0.483,0.106c2.971,0.923,4.261-1.187,4.507-3.405c0.139-1.251-0.048-2.485-1.034-3.682
	c0.417-0.396,0.759-0.99,1.231-1.123c1.667-0.473,2.111-1.701,2.068-3.166c-0.068-2.337-0.208-4.675-0.432-7.003
	c-0.138-1.435,0.267-2.583,1.32-3.612c0.75-0.135,1.547-0.317,2.355-0.419c2.124-0.269,2.697-1.984,3.161-3.602
	c0.417-1.455-0.451-2.64-1.448-3.674c-0.723-0.75-1.493-1.477-2.086-2.323c-1.202-1.714-3.903-2.729-5.939-2.234
	c-0.854,0.208-1.506,0.496-1.96,1.296c-0.142,0.25-0.695,0.4-1.042,0.373c-0.714-0.056-1.496-0.112-2.106-0.438
	c-1.521-0.812-3.015-0.686-4.582-0.266c-0.45,0.122-0.96,0.019-1.351,0.019c-0.253-0.971-0.402-1.679-0.626-2.363
	c-0.256-0.782-0.818-1.146-1.613-0.799c-0.775,0.339-1.512,0.771-2.253,1.185C26.019,46.557,25.208,47.041,24.304,47.566z"/>
<path fill-rule="evenodd" clip-rule="evenodd" fill="#FFE865" d="M107.821,161.114c1.163-6.5,2.309-12.904,3.478-19.437
	c1.746,0.181,3.314,0.318,4.876,0.511c4.05,0.499,8.097,1.031,12.146,1.536c4.234,0.528,8.476,1.002,12.704,1.575
	c2.958,0.401,5.897,0.944,8.849,1.397c3.508,0.539,7.016,1.088,10.533,1.562c4.206,0.569,8.421,1.07,12.633,1.591
	c0.979,0.121,1.963,0.204,2.979,0.308c0.171,0.321,0.322,0.604,0.472,0.886c-0.068,0.002-0.138,0.005-0.207,0.006
	c-0.762,5.999-1.524,11.996-2.312,18.194c-2.132-0.166-4.221-0.289-6.3-0.501c-2.192-0.223-4.378-0.506-6.56-0.811
	c-1.708-0.238-3.405-0.559-5.109-0.821c-0.52-0.08-1.053-0.063-1.576-0.128c-4.591-0.564-9.178-1.158-13.771-1.697
	c-2.878-0.337-5.771-0.552-8.646-0.901c-4.629-0.565-9.25-1.191-13.874-1.798c-2.878-0.377-5.756-0.765-8.634-1.155
	C109.048,161.369,108.6,161.262,107.821,161.114z M136.654,160.403c0.48,0.121,0.763,0.188,1.042,0.262
	c1.305,0.341,1.725-0.037,1.57-1.367c-0.036-0.308,0.07-0.633,0.129-1.088c0.514,0.357,0.854,0.593,1.182,0.821
	c0.747-0.643,0.624-1.791-0.197-2.32c-0.912-0.587-0.938-0.817-0.242-1.661c0.283-0.344,0.524-0.725,0.809-1.123
	c-0.303-0.345-0.56-0.638-0.853-0.97c0.112-1.082,0.229-2.204,0.35-3.379c-0.708,0-1.325,0-2.114,0
	c-0.131,0.964-0.262,1.938-0.404,2.991c-0.574-0.108-1.01-0.191-1.315-0.248c-0.15-0.749-0.272-1.36-0.375-1.867
	c-0.517-0.142-0.814-0.224-1.183-0.325c1.396-1.586,0.945-2.538,0.051-3.053c-0.874-0.503-2.162-0.409-2.19-0.344
	c-0.113-0.173-0.045-0.674-0.22-0.941c-0.24,0.354-0.414,0.61-0.547,0.805c-0.877,0-1.732-0.201-2.48,0
	c-1.585,0.426-0.768,1.83-0.908,2.839c-0.597,0.054-1.108,0.101-1.623,0.148c-0.197,0.672-0.376,1.279-0.567,1.933
	c-0.457-0.237-0.804-0.417-1.319-0.683c0.154-0.968,0.31-1.954,0.504-3.184c-0.481-0.13-1.019-0.412-1.533-0.377
	c-0.632,0.042-1.189,0.401-1.179,1.284c0.11,0.181,0.257,0.426,0.48,0.799c-0.346,0.598-0.71,1.228-1.073,1.859
	c-0.076-0.041-0.152-0.081-0.228-0.121c-0.044,0.316-0.088,0.633-0.136,0.978c0.264,0.205,0.509,0.398,0.749,0.586
	c-0.132,0.707-0.257,1.377-0.383,2.045c-0.477,0.292-0.946,0.58-1.475,0.903c0.132,0.419,0.245,0.783,0.365,1.167
	c0.252,0.013,0.45,0.022,0.554,0.028c-0.102,0.549-0.194,1.055-0.262,1.418c0.832,0.288,1.468,0.508,2.185,0.756
	c0.251-0.097,0.58-0.222,1.092-0.42c-0.263-0.52-0.484-0.954-0.613-1.211c-0.617-1.64,0.929-1.875,1.508-2.694
	c-0.156-0.417-0.29-0.777-0.442-1.185c-0.297,0.081-0.528,0.144-0.815,0.222c0.026-0.334,0.051-0.649,0.086-1.091
	c0.634,0.096,1.189,0.182,1.562,0.238c0,1.75-0.093,3.393,0.03,5.02c0.089,1.173,0.738,2.229,1.971,2.443
	c1.472,0.256,3.011,0.395,4.49,0.261c0.687-0.063,1.559-0.757,1.896-1.401c0.564-1.081,0.773-2.348,1.122-3.541
	c0.15-0.515,0.275-1.036,0.419-1.584c0.573,0.129,1.008,0.227,1.488,0.334c-0.134,0.558-0.256,1.028-0.356,1.503
	c-0.092,0.432-0.367,0.995-0.196,1.28c0.439,0.732,0.188,1.303-0.086,1.953C136.812,159.471,136.773,159.891,136.654,160.403z"/>
<path fill-rule="evenodd" clip-rule="evenodd" fill="#CF492D" d="M106.942,172.776c0.322-3.448,0.627-6.705,0.931-9.966
	c21.928,2.731,43.777,5.452,65.733,8.187c-0.544,2.964-1.076,5.858-1.606,8.74c-1.202,0-2.439-0.051-3.672,0.01
	c-3.688,0.184-7.296-0.464-10.929-0.925c-2.452-0.311-4.943-0.299-7.409-0.515c-3.74-0.326-7.473-0.756-11.213-1.078
	c-1.94-0.167-3.897-0.137-5.838-0.302c-2.518-0.216-5.04-0.446-7.535-0.834c-4.517-0.702-9.018-1.513-13.52-2.307
	C110.284,173.501,108.698,173.136,106.942,172.776z"/>
<path fill-rule="evenodd" clip-rule="evenodd" fill="#CF492D" d="M111.589,140.102c0.416-2.714,0.82-5.355,1.269-8.281
	c2.323,0.228,4.514,0.393,6.69,0.666c3.717,0.465,7.425,1.014,11.141,1.499c2.351,0.307,4.707,0.581,7.064,0.832
	c3.178,0.338,6.366,0.584,9.536,0.975c2.712,0.332,5.408,0.788,8.104,1.237c4.96,0.827,9.919,1.667,14.869,2.553
	c1.546,0.276,3.056,0.745,4.593,1.071c0.952,0.201,1.926,0.3,3.053,0.469c-0.359,2.456-0.712,4.872-1.092,7.473
	c-1.439-0.104-2.776-0.163-4.104-0.304c-2.808-0.3-5.613-0.626-8.416-0.977c-1.432-0.179-2.853-0.445-4.281-0.658
	c-2.975-0.442-5.958-0.827-8.922-1.329c-1.905-0.323-3.772-0.875-5.677-1.208c-1.489-0.26-3.01-0.327-4.514-0.507
	c-1.364-0.163-2.721-0.409-4.088-0.531c-0.971-0.086-1.967,0.068-2.932-0.049c-2.438-0.298-4.865-0.697-7.299-1.042
	c-2.434-0.343-4.869-0.69-7.308-0.998C116.767,140.678,114.256,140.409,111.589,140.102z"/>
<path fill-rule="evenodd" clip-rule="evenodd" fill="#CF492D" d="M133.75,159.051c-2.619,3.241-3.713-3.389-2.307-3.66
	c1.034-0.199,2.043,0.149,3.093,0.147C135.745,155.537,134.114,158.601,133.75,159.051
	C133.399,159.486,134.093,158.626,133.75,159.051z M133.884,156.172c-0.431,0-1.465-0.668-1.683,0.148
	c-0.297,1.104-0.709,2.398,0.845,2.398C133.698,158.235,134.229,156.623,133.884,156.172z"/>
<path fill-rule="evenodd" clip-rule="evenodd" fill="#E1E1DE" d="M134.576,151.247c-1.174-0.357-0.529,1.16-1.93,0.271
	c-0.028,0.417-0.05,0.727-0.078,1.145c-0.936-0.789-1.683-2.195,0.263-2.078c1.925,0.115,3.681,0.094,2.674,2.422
	c-0.265,0.612-0.092,1.206-0.364,1.855c-0.659-0.082-1.577-0.056-2.205-0.271c-1.288-0.441,0.045-0.973,0.696-1.225
	c0,0.269,0,0.539,0,0.81c1.136-0.093,1.158-0.382,1.064-1.539C134.752,152.578,135.387,151.495,134.576,151.247z"/>
<path fill-rule="evenodd" clip-rule="evenodd" fill="#CF492D" d="M127.328,152.677c0.209-1.272-0.071-2.691,1.472-2.51
	c0.68,0.08,1.529,0.348,2.052,0.277c0.431,0.478,0.015,1.493-0.95,2.249C129.372,154.205,127.055,154.346,127.328,152.677z
	 M127.612,153.012c1.526,1.167,2.029-0.848,2.029-1.786C128.479,150.759,128.246,150.899,127.612,153.012z"/>
<path fill-rule="evenodd" clip-rule="evenodd" fill="#D9C251" d="M129.004,158.967c0.196-1.282,0.172-2.564,0.771-3.87
	c0.659,0.684,0.635,1.51,0.33,2.412C130.09,158.111,129.587,158.88,129.004,158.967z"/>
<path fill-rule="evenodd" clip-rule="evenodd" fill="#D9C251" d="M134.182,149.984c-0.865-0.114-3.992,0.044-4.216-0.902
	C130.651,148.573,134.107,149.208,134.182,149.984z"/>
<path fill-rule="evenodd" clip-rule="evenodd" fill="#D9C251" d="M130.525,154.731c-0.782-0.66,0.356-2.837,1.306-1.416
	C131.751,153.756,131.503,155.557,130.525,154.731z"/>
<path fill-rule="evenodd" clip-rule="evenodd" fill="#D9C251" d="M127.86,154.369c0.14,0.905-0.311,2.6-0.624,3.485
	c-0.618-0.019-0.266-2.8-0.227-3.262C127.298,154.516,127.576,154.443,127.86,154.369z"/>
<path fill-rule="evenodd" clip-rule="evenodd" fill="#D9C251" d="M127.639,159.128c0.637-0.915,0.048-4.079,1.364-4.427
	c-0.254,1.377-0.244,3.265-0.849,4.48C128.029,159.168,127.891,159.154,127.639,159.128z"/>
<path fill-rule="evenodd" clip-rule="evenodd" fill="#CF492D" d="M133.965,147.165c0.276,0.446,0.054,1.1-0.579,1.49
	C133.152,148.54,132.88,147.165,133.965,147.165z"/>
<path fill-rule="evenodd" clip-rule="evenodd" fill="#CF492D" d="M125.719,151.929c-0.915-0.111-1.831-0.225-2.746-0.336
	C122.939,150.723,125.911,150.944,125.719,151.929z"/>
<path fill-rule="evenodd" clip-rule="evenodd" fill="#E1E1DE" d="M139.374,154.706c-0.197,0.384-0.04,1.364-0.606,1.27
	c-1.036-0.172-0.577-0.938-0.426-1.702C138.73,154.436,139.029,154.561,139.374,154.706z"/>
<path fill-rule="evenodd" clip-rule="evenodd" fill="#CF492D" d="M136.127,153.307c-0.009-0.905,3.705,0.029,3.8,0.764
	C139.702,154.004,137.457,153.469,136.127,153.307z"/>
<path fill-rule="evenodd" clip-rule="evenodd" fill="#E1E1DE" d="M124.475,148.825c0.673,0.386,0.531,1.328-0.124,1.759
	C123.899,150.172,124.011,149.385,124.475,148.825z"/>
<path fill-rule="evenodd" clip-rule="evenodd" fill="#E1E1DE" d="M123.928,152.19c0.556,0.224,0.135,2.125-0.604,2.24
	C123.248,153.543,123.413,152.822,123.928,152.19z"/>
<path fill-rule="evenodd" clip-rule="evenodd" fill="#E1E1DE" d="M138.944,151.426c0.896,0.449,0.651,0.524,0.584,1.44
	C139.224,152.754,138.664,152.465,138.944,151.426z"/>
<path fill-rule="evenodd" clip-rule="evenodd" fill="#CF492D" d="M137.756,156.405c0.39-0.139,2.05,0.627,2.337,1.132
	c-0.842-0.283-1.591-0.535-2.386-0.803C137.731,156.57,137.745,156.479,137.756,156.405z"/>
<path fill-rule="evenodd" clip-rule="evenodd" fill="#CF492D" d="M134.372,148.708c0.207-0.25,0.429-0.516,0.704-0.849
	C135.258,148.081,134.972,149.556,134.372,148.708z"/>
<path fill-rule="evenodd" clip-rule="evenodd" fill="#CF492D" d="M132.057,148.163c-0.146,0.38-0.488,0.401-1.023,0.062
	c-0.149-0.661-0.019-0.969,0.422-1C131.455,147.387,131.616,147.791,132.057,148.163z"/>
<path fill-rule="evenodd" clip-rule="evenodd" fill="#CF492D" d="M130.213,148.184c-0.261,0-0.527,0-0.898,0
	c0.169-0.38,0.297-0.665,0.434-0.976C130.125,147.391,130.282,147.742,130.213,148.184z"/>
<path fill-rule="evenodd" clip-rule="evenodd" fill="#E1E1DE" d="M138.446,158.801c-0.636-0.28-0.651-0.503-0.213-1.102
	C138.62,157.765,138.689,158.077,138.446,158.801z"/>
<path fill-rule="evenodd" clip-rule="evenodd" fill="#D9C251" d="M138.94,150.759c-0.026-0.205-0.05-0.411-0.074-0.616
	c0.292,0.023,0.585,0.048,0.877,0.071C139.676,150.808,139.49,150.918,138.94,150.759z"/>
<path fill-rule="evenodd" clip-rule="evenodd" fill="#D9C251" d="M124.983,148.208c-0.361,0-0.7,0-1.058,0
	C123.937,147.641,124.945,147.587,124.983,148.208z"/>
<path fill-rule="evenodd" clip-rule="evenodd" fill="#E1E1DE" d="M123.354,155.814c0.805,0.768-0.276,0.917-0.452,0.624
	C123.034,156.158,123.203,156.022,123.354,155.814z"/>
<path fill-rule="evenodd" clip-rule="evenodd" fill="#CF492D" d="M124.134,155.078c-0.343,0.135-0.636,0.251-0.977,0.386
	C123.229,154.947,123.708,154.758,124.134,155.078z"/>
<path fill-rule="evenodd" clip-rule="evenodd" fill="#E1E1DE" d="M129.731,159.604c0.154-0.191,0.309-0.382,0.465-0.574
	c0.133,0.244,0.225,0.412,0.368,0.675C130.226,159.705,129.888,159.875,129.731,159.604z"/>
<path fill-rule="evenodd" clip-rule="evenodd" fill="#D9C251" d="M122.607,157.545c0.281-0.355,0.688-0.262,0.993,0.251
	C123.228,157.704,122.944,157.631,122.607,157.545z"/>
<path fill-rule="evenodd" clip-rule="evenodd" fill="#D9C251" d="M138.215,159.727c-0.223,0-0.755-0.099-0.387-0.396
	C137.97,159.426,138.329,159.511,138.215,159.727z"/>
<path fill-rule="evenodd" clip-rule="evenodd" fill="#D9C251" d="M133.264,156.784c-0.154,0.633-0.008,1.093-0.727,1.159
	C132.559,157.746,132.617,156.321,133.264,156.784C133.177,157.14,133.213,156.748,133.264,156.784z"/>
<path fill-rule="evenodd" clip-rule="evenodd" fill="#D9C251" d="M128.463,152.259c0.099-0.109,0.198-0.22,0.345-0.382
	C128.961,152.292,128.841,152.385,128.463,152.259z"/>
</svg>
