<svg version="1.1" id="svg" xmlns="http://www.w3.org/2000/svg" xmlns:xlink="http://www.w3.org/1999/xlink" x="0px" y="0px"
	 width="200px" height="200px" viewBox="0 0 200 200" enable-background="new 0 0 200 200" xml:space="preserve">
<path fill-rule="evenodd" clip-rule="evenodd" fill="#fafd30" class="fill" d="M104.265,51.634c5.403,0.656,7.489,3.145,6.922,14.229
	c-0.569,11.085-1.47,17.484-1.079,36.193c0.389,18.707,1.309,51.453,0.753,62.148c-0.557,10.694-1.89,15.719-1.89,15.719
	l-11.615,0.042c0,0-1.13-17.756-1.792-35.304c-0.661-17.547-1.022-29.243,0.439-46.533C97.467,80.839,93.637,50.344,104.265,51.634z
	"/>
<path class="stroke" fill="#183046"  fill-rule="evenodd" clip-rule="evenodd" d="M143.893,156.096c0.695,4.073,1.339,7.906,2.012,11.733
	c0.108,0.624,0.326,1.233,0.533,1.835c0.533,1.547,0.718,3.102,0.159,4.851c-1.038,0.538-2.129,1.222-3.304,1.691
	c-4.111,1.639-8.26,3.196-12.621,4.046c-6.022,1.173-12.086,2.037-18.24,2.057c-2.291,0.008-4.584,0.015-6.875,0.013
	c-0.319,0-0.652,0.006-0.954-0.077c-3.005-0.832-6.032-0.61-9.047-0.157c-5.548,0.833-11.088,0.365-16.592-0.258
	c-4.737-0.537-9.205-2.232-13.572-4.119c-0.517-0.223-0.942-0.65-1.406-0.98c-0.32-4.18,1.082-8.113,1.035-12.304
	c-1.778-1.249-3.666-2.453-5.415-3.831c-3.478-2.739-6.848-5.587-9.794-8.935c-1.841-2.092-3.786-4.068-4.868-6.681
	c-0.359-0.871-0.705-1.812-0.751-2.737c-0.17-3.457-0.348-6.906,0.273-10.37c0.583-3.247,0.72-6.572,1.254-9.83
	c0.498-3.043,1.142-6.075,1.934-9.054c1.324-4.977,2.179-10.001,2.042-15.159c-0.116-4.311,0.992-8.312,2.738-12.209
	c1.032-2.302,2.013-4.63,3.936-6.328c2.81-2.48,5.823-4.658,9.513-5.711c1.791-0.511,3.554-1.125,5.322-1.718
	c0.344-0.115,0.708-0.283,0.967-0.529c2.745-2.607,6.109-4.253,9.348-6.105c3.016-1.725,5.795-3.773,7.847-6.406
	c-0.696-3.115-1.282-6.096-2.062-9.024c-0.307-1.153-1.047-2.192-1.59-3.283c-0.353-0.71-0.839-1.388-1.023-2.139
	c-0.396-1.607-0.082-3.069,1.306-4.166c0.541-0.427,1.044-0.9,1.652-1.429c-0.231-1.354-0.468-2.71-0.697-4.068
	c-0.815-4.825,0.794-8.805,4.606-11.695c2.833-2.147,5.986-3.696,9.567-4.594c3.449-0.864,6.769-0.622,10.126-0.196
	c2.096,0.265,4.175,0.887,6.176,1.594c2.866,1.014,4.538,3.276,5.483,6.075c0.922,2.733,1.626,5.519,1.3,8.62
	c0.562,0.542,1.308,1.04,1.75,1.73c1.188,1.859,1.127,3.943,0.772,6.028c-0.144,0.84-0.419,1.66-0.521,2.502
	c-0.19,1.56-0.793,2.767-2.591,3.257c-0.95,3.728-1.337,7.581-1.875,11.394c1.155,1.306,2.544,2.193,3.985,2.78
	c4.123,1.681,7.865,4.007,11.582,6.397c0.089,0.058,0.199,0.1,0.265,0.178c2.021,2.365,4.921,3.078,7.672,4.048
	c2.106,0.743,3.852,1.947,5.426,3.546c2.231,2.266,4.151,4.732,5.514,7.597c1.147,2.419,1.817,4.952,1.975,7.677
	c0.262,4.594,0.211,9.161-0.183,13.743c-0.14,1.631,0.006,3.299,0.147,4.94c0.312,3.6,0.688,7.194,1.062,10.789
	c0.33,3.179,0.745,6.349,1.015,9.532c0.145,1.696,0.007,3.414,0.098,5.117c0.08,1.529-0.353,2.896-1.301,4.014
	c-1.962,2.315-3.993,4.573-6.063,6.792c-2.544,2.727-5.157,5.386-7.737,8.081C144.724,155.158,144.271,155.681,143.893,156.096z
	 M146.219,118.731c-0.089,0.388-0.185,0.554-0.146,0.68c0.105,0.354,0.181,0.773,0.418,1.025c1.342,1.424,2.729,2.807,4.214,4.321
	c-0.01,0.312-0.025,0.829-0.047,1.536c-0.9,0.392-1.802,0.783-2.669,1.16c0.143,0.393,0.296,0.808,0.551,1.504
	c-1.307-0.231-2.325-0.41-3.522-0.622c0.77,1.016,1.531,1.684,2.665,1.856c0.697,0.106,1.213,0.389,0.79,1.4
	c-1.099-0.208-2.152-0.408-3.352-0.636c0.173,0.521,0.228,0.903,0.414,1.206c2.614,4.244,7.56,3.71,10.651,1.587
	c0.209-0.143,0.229-0.562,0.453-1.167c-0.936,0.363-1.519,0.598-2.107,0.816c-0.797,0.294-1.594,0.59-2.398,0.857
	c-0.617,0.204-1.133,0.06-1.615-0.662c2.152-0.848,4.205-1.656,6.313-2.486c0.01-0.308,0.019-0.637,0.034-1.125
	c-0.479,0.204-0.808,0.353-1.144,0.486c-1.286,0.511-2.573,1.017-3.861,1.525c-0.702,0.278-1.228,0.141-1.564-0.672
	c2.243-1.013,4.453-2.01,6.72-3.035c-0.078-0.712-0.136-1.237-0.218-1.968c-1.117,0.691-1.959,1.25-2.837,1.744
	c-1.297,0.728-1.964,0.697-2.988-0.189c2.243-0.903,4.273-2.011,5.906-3.882c-0.062-0.404-0.13-0.841-0.221-1.423
	c-1.235,0.756-2.307,1.413-3.406,2.084c-0.37-0.313-0.633-0.536-0.944-0.802c1.471-1.194,2.856-2.32,4.252-3.454
	c-0.194-0.506-0.314-0.824-0.616-1.611c-0.628,0.77-1.045,1.322-1.507,1.835c-0.425,0.474-0.848,0.971-1.358,1.339
	c-0.75,0.542-1.08,0.432-1.825-0.434c0.282-0.231,0.569-0.456,0.847-0.69c1.394-1.182,2.633-2.496,3.495-4.127
	c0.207-0.394,0.369-0.792-0.25-1.072c-0.651,0.836-1.265,1.709-1.971,2.499c-0.632,0.708-0.955,0.645-1.761-0.141
	c3.007-4,3.398-4.726,3.229-6.14c-0.535,0.742-0.972,1.47-1.532,2.087c-0.711,0.783-1.123,0.729-1.864-0.062
	c0.04-0.096,0.061-0.209,0.127-0.285c2.267-2.693,3.704-5.681,3.459-9.318c-0.053-0.789,0.118-1.592,0.188-2.388
	c0.293-3.445,0.815-6.843,0.469-10.359c-0.576-5.825-3.605-10.175-7.731-13.888c-1.259-1.134-3.039-1.711-4.618-2.458
	c-1.007-0.477-2.086-1.116-3.133-1.117c-1.541-0.001-2.654-0.621-3.753-1.499c-2.421-1.935-4.938-3.707-7.67-5.204
	c-2.426-1.329-4.744-2.862-7.061-4.383c-1.552-1.02-2.576-2.482-3.302-4.218c-1.044-2.498-1.727-5.031-1.42-7.907
	c0.374-1.377,2.123-0.764,2.969-1.72c0.037-0.444,0.078-0.919,0.115-1.396c0.197-2.498,0.384-4.998,0.595-7.495
	c0.174-2.068,0.437-4.129,0.548-6.199c0.132-2.45,0.22-4.902-0.705-7.269c-1.125-2.878-2.874-5.111-5.962-6.006
	c-1.276-0.37-2.565-0.753-3.876-0.93c-2.705-0.368-5.47-0.509-8.111,0.195c-3.314,0.883-6.35,2.49-9.146,4.488
	c-1.048,0.748-1.817,1.745-2.323,2.984c-1.378,3.372-1.354,6.881-1.099,10.403c0.223,3.077,0.583,6.145,0.881,9.217
	c0.082,0.85,0.11,1.708,0.248,2.547c0.131,0.791,0.376,1.562,0.651,2.664c0.917-1.563,1.268-3.298,3.303-2.853
	c0.702,2.53,0.587,3.813-0.548,6.364c-2.205,4.949-5.809,8.608-10.382,11.417c-2.133,1.311-4.247,2.668-6.249,4.167
	c-1.649,1.235-3.119,2.709-4.862,4.249c-0.874,0.279-1.577-0.638-2.388-1.081c-2.681,0.691-5.021,1.953-7.389,3.183
	c-2.882,1.499-4.992,3.795-6.831,6.381c-2.293,3.222-2.953,6.984-3.059,10.773c-0.141,4.977-0.417,9.92-1.741,14.726
	c-0.912,3.32-0.561,6.423,0.875,9.477c0.222,0.469,0.41,0.953,0.689,1.607c-0.714,0.361-1.281,0.759-1.912,0.936
	c-0.643,0.182-1.349,0.147-2.152,0.219c-1.028,6.494-3.379,12.811-2.076,19.663c1.746-0.239,2.058,1.708,3.533,2.343
	c-0.361-1.164-0.653-2.108-0.986-3.184c0.488-0.243,0.871-0.434,1.315-0.654c1.006,2.043,1.331,4.234,2.911,5.92
	c0.388-0.148,0.732-0.281,1.084-0.414c-0.851-1.86-1.938-3.476-2.035-5.542c0.422-0.115,0.75-0.207,1.109-0.306
	c1.106,1.627,1.198,3.73,2.875,5.238c0.495-0.423,0.917-0.784,1.326-1.133c-0.976-1.471-1.757-2.653-2.604-3.931
	c0.504-0.324,0.831-0.535,1.264-0.813c0.706,0.896,1.341,1.706,2.046,2.6c0.826-0.958,0.896-1.884,0.687-3.024
	c-3.814,0.292-6.995-1.327-10.322-2.845c-0.135-0.915-0.261-1.777-0.416-2.82c1.719-0.04,3.027,1.324,4.663,0.636
	c-0.754-0.702-1.426-1.329-2.215-2.06c0.504-0.304,0.8-0.482,1.143-0.689c0.978,0.726,1.908,1.416,2.973,2.203
	c0.34-0.421,0.646-0.798,0.918-1.133c-1.029-1.004-1.928-1.88-2.951-2.88c0.568-0.336,0.908-0.536,1.243-0.734
	c0.994,0.847,1.901,1.62,2.868,2.443c0.48-0.61,0.834-1.061,1.238-1.573c-1.124-0.794-2.178-1.539-3.426-2.42
	c0.618-0.336,0.965-0.525,1.293-0.704c1.044,0.625,1.996,1.195,3.074,1.839c0.397-0.567,0.735-1.053,1.134-1.624
	c-1.442-0.726-2.703-1.359-3.97-1.996c0.415-1.012,1.008-0.918,1.652-0.654c0.926,0.379,1.85,0.762,2.887,1.19
	c0.2-0.499,0.344-0.857,0.508-1.269c-1.296-0.657-2.82-0.783-3.622-2.442c0.581-0.885,1.225-1.865,1.931-2.94
	c-1.499-0.609-2.853-1.159-4.204-1.708c0.378-1.121,1.101-0.953,1.766-0.737c1.154,0.375,2.285,0.821,3.482,1.258
	c0.286-0.396,0.524-0.725,0.848-1.171c-1.071-0.467-2.083-0.811-2.993-1.33c-0.883-0.504-2.126-0.245-2.966-1.519
	c2.687-0.899,4.628,1.056,6.993,1.425c-0.084-0.588-0.149-1.035-0.213-1.475c-1.811-0.78-3.692-1.176-5.4-2.136
	c0.883-0.913,0.887-0.924,1.858-0.632c0.986,0.295,1.964,0.616,3.13,0.985c-0.22-1.036-0.383-1.801-0.543-2.551
	c-1.547-0.695-3.294-0.654-4.627-1.678c0.44-1.081,1.131-0.772,1.805-0.617c0.737,0.169,1.419,0.76,2.312,0.335
	c-0.086-0.862-0.17-1.699-0.24-2.379c-1.128-1.089-2.789-0.914-3.652-2.192c1.078-1.19,2.11,0.131,3.222-0.014
	c-0.022-0.752-0.042-1.417-0.056-1.898c-0.806-0.814-2.5,0.301-2.491-1.737c0.824-0.02,1.574-0.037,2.322-0.054
	c0.179-0.755,0.36-1.51,0.567-2.383c0.727,0.129,1.288,0.229,1.901,0.337c0.22,0.533,0.479,1.003,0.606,1.504
	c0.22,0.876,0.382,1.768,0.527,2.661c0.7,4.306,3.586,6.445,7.492,7.567c1.06,0.305,2.138,0.55,3.285,0.843
	c-0.027,0.892-0.049,1.636-0.07,2.344c-2.324,1.201-4.663,0.181-6.968,0.54c0.295,2.127,1.707,3.47,2.658,5.029
	c1.464,2.399,4.156,2.771,6.738,3.634c-0.199,0.959-0.382,1.834-0.582,2.793c3.82-1.124,6.456-4.21,10.01-5.675
	c-2.911,4.226-7.133,6.491-11.841,7.95c-0.516,0.777-1.19,1.422-1.111,2.67c0.656-0.254,1.199-0.408,1.688-0.663
	c1.938-1.011,3.855-2.062,5.79-3.081c0.477-0.25,0.988-0.433,1.482-0.647c0.065,0.134,0.128,0.268,0.192,0.402
	c-2.493,2.853-5.785,4.431-9.409,5.603c-0.119,0.589-0.24,1.183-0.405,1.988c0.975-0.136,1.774-0.163,2.524-0.368
	c1.742-0.477,3.457-1.049,5.188-1.561c0.549-0.162,1.122-0.638,1.766-0.027c-2.774,2.469-6.141,3.102-9.595,3.432
	c-0.016,0.533-0.053,0.851-0.026,1.163c0.024,0.297,0.116,0.588,0.188,0.935c2.043-0.108,3.927-1.069,6.157-0.662
	c-1.79,1.967-4.137,1.712-6.281,2.303c0.028,0.894,0.012,1.742,0.085,2.583c0.158,1.771,0.899,2.661,2.677,2.835
	c2.537,0.249,5.094,0.318,7.642,0.46c0.831,0.046,1.661,0.079,2.412,0.114c0.502,1.685,0.013,2.655-1.395,3.215
	c-2.819,1.122-5.627,2.269-8.443,3.397c-0.753,0.302-1.277,0.746-1.212,1.688c2.388,0.544,4.759-0.939,7.38-0.126
	c-1.323,0.965-2.574,1.34-3.906,1.505c-1.311,0.163-2.622,0.322-4.071,0.5c-0.082,0.449-0.159,0.875-0.288,1.579
	c2.703-0.166,5.189-0.318,7.678-0.47c-2.385,2.031-5.271,1.722-8.039,2.01c-0.074,0.519-0.136,0.933-0.188,1.347
	c-0.005,0.043,0.048,0.093,0.113,0.213c2.777,0.727,5.554-0.004,8.339-0.432c-2.188,2.027-3.29,2.383-6.03,2.174
	c-1.041-0.079-2.088-0.07-3.168-0.102c-0.162,0.866-0.287,1.53-0.455,2.42c1.423,0.042,2.686,0.051,3.945,0.126
	c1.214,0.074,2.506-0.457,3.729,0.369c-0.519,0.868-1.299,1.064-2.085,1.126c-1.005,0.08-2.02,0.06-3.028,0.053
	c-0.943-0.006-1.887-0.052-2.936-0.083c-0.06,0.658-0.1,1.109-0.149,1.647c2.896,0.7,5.824-0.249,8.598,0.912
	c-2.892,1.271-6.021,0.715-9.173,0.957c-0.163,0.454-0.325,0.903-0.583,1.623c1.717,0.051,3.152,0.065,4.583,0.146
	c1.378,0.077,2.809-0.576,4.328,0.281c-3.116,2.019-6.421,0.924-9.591,1.05c-0.117,0.333-0.222,0.572-0.285,0.822
	c-0.071,0.29-0.106,0.589-0.186,1.037c2.869,0.252,5.635,0.495,8.4,0.738c-0.239,0.457-0.479,0.664-0.757,0.762
	c-2.511,0.892-5.075,0.063-7.67,0.142c-0.142,0.36-0.266,0.679-0.455,1.161c1.177,0.171,2.214,0.349,3.26,0.466
	c1.06,0.119,2.132,0.129,3.186,0.278c1.004,0.14,2.047-0.449,3.088,0.115c-2.244,2.056-4.873,1.111-7.396,1.263
	c0.566,0.414,1.152,0.766,1.787,0.929c1.341,0.344,2.694,0.685,4.063,0.858c6.347,0.804,12.661,0.41,18.973-0.496
	c1.89-0.271,3.832-0.323,5.743-0.264c4.104,0.126,8.204,0.388,12.306,0.599c6.985,0.361,13.85-0.417,20.583-2.286
	c1.574-0.437,3.095-1.064,4.779-1.653c-0.254-0.883-0.447-1.547-0.674-2.333c-2.915,1.857-5.948,2.701-9.035,3.654
	c0.014-1.083,0.063-1.254,0.728-1.54c0.928-0.399,1.879-0.747,2.837-1.072c1.873-0.635,3.623-1.479,5.214-2.789
	c-0.245-0.88-0.466-1.666-0.758-2.716c-2.025,2.081-4.295,3.111-6.923,3.732c-0.071-0.504-0.119-0.844-0.185-1.309
	c2.6-0.861,4.996-1.973,6.916-4.079c-0.293-0.906-0.589-1.83-0.913-2.84c-1.1,0.752-1.991,1.422-2.943,1.995
	c-0.936,0.564-1.932,1.031-2.816,1.496c-0.705-0.561-0.587-1.002-0.162-1.348c0.367-0.3,0.811-0.508,1.235-0.729
	c1.516-0.791,2.903-1.747,4.165-3.076c-0.354-0.468-0.678-0.896-1.03-1.36c-1.569,1.156-2.94,2.235-4.944,2.896
	c0.122-0.624,0.077-1.034,0.261-1.221c0.406-0.411,0.931-0.702,1.398-1.053c0.477-0.359,0.943-0.732,1.596-1.239
	c-1.569-0.378-3.053,0.08-4.064-1.254c-0.277-1.899,1.738-2.949,1.914-4.8c-0.08-0.311-0.186-0.711-0.257-0.99
	c0.72-0.816,1.357-1.537,2.239-2.536c-1.634,0.129-2.638,1.382-4.049,0.795c0.027-0.339,0.052-0.635,0.071-0.881
	c4.116-1.939,4.116-1.939,4.059-2.985c-2.278,0.492-4.248,1.944-6.764,2.217c0.017-0.537,0.027-0.914,0.035-1.167
	c1.934-0.803,3.719-1.544,5.504-2.286c-0.02-0.115-0.04-0.229-0.06-0.345c-0.876-0.083-1.753-0.168-2.631-0.248
	c-1.342-0.121-2.644-0.381-3.771-1.181c-0.846-0.599-1.559-1.291-1.469-2.601c0.917-0.706,1.86-1.478,2.85-2.187
	c2.099-1.504,3.349-3.548,3.884-6.039c0.403-1.874,0.854-3.748,1.091-5.646c0.618-4.972,2.015-9.709,4.143-14.225
	c0.932-1.977,1.3-4.059,1.537-6.18c0.172-1.548-0.299-2.95-1.772-3.638c-1.952-0.913-2.36-2.417-2.032-4.45
	c1.203-0.525,2.555-0.368,3.853-0.44c3.005-0.168,5.597-2.248,6.222-5.247c0.223-1.073,0.193-2.198,0.28-3.313
	c1.863-0.987,2.29-0.833,3.588,1.326c0.483,0.302,1.317-0.003,1.578,0.868c-0.478,0.269-0.921,0.518-1.408,0.792
	c0.067,0.348,0.125,0.637,0.168,0.857c0.818,0.127,1.521,0.236,2.363,0.366c-0.21,0.457-0.312,0.681-0.403,0.878
	c-0.74,0.1-1.409,0.189-2.087,0.281c-0.021,0.687-0.037,1.257-0.058,1.96c0.875,0.12,1.692,0.231,2.648,0.362
	c-0.515,1.53-1.878,0.749-2.792,1.202c-0.015,0.496-0.029,1-0.046,1.538c0.98,0.44,1.928,0.867,2.961,1.332
	c-0.979,1.453-2.04,0.12-3.04,0.381c-0.016,0.474-0.029,0.97-0.043,1.393c0.951,0.7,2.236,0.802,2.667,2.376
	c-0.996-0.212-1.785-0.38-2.739-0.583c-0.059,0.505-0.113,0.994-0.168,1.465c1.064,0.443,2.323,0.507,2.348,2.264
	c-0.875-0.26-1.58-0.469-2.337-0.693c-0.019,0.636-0.035,1.145-0.044,1.53c1.077,0.624,2.035,1.176,3.034,1.755
	c-0.14,0.413-0.232,0.684-0.379,1.118c-0.957-0.421-1.807-0.794-2.771-1.218c-0.058,0.578-0.103,1.04-0.151,1.538
	c0.973,0.81,1.903,1.584,2.866,2.385c-0.229,0.366-0.389,0.617-0.61,0.968c-0.852-0.452-1.629-0.863-2.507-1.329
	c-0.095,0.531-0.168,0.935-0.252,1.4c1.067,1.06,2.116,2.099,3.196,3.169c-0.155,0.304-0.29,0.563-0.49,0.95
	c-0.552-0.309-1.026-0.533-1.454-0.824C147.168,119.536,146.754,119.161,146.219,118.731z M63.86,134.711
	c0.948,1.873,3.613,4.711,4.646,5.062c0.16-2.145-1.564-11.157-2.445-12.242C65.3,130.019,64.572,132.391,63.86,134.711z"/>
<path class="stroke" fill="#183046"  fill-rule="evenodd" clip-rule="evenodd" d="M95.492,154.442c1.673-0.745,3.014-1.343,4.453-1.983
	c-0.124-0.664-0.219-1.154-0.355-1.885c-0.93,0.419-1.683,0.759-2.578,1.163c-0.242-0.189-0.55-0.428-0.994-0.775
	c1.312-0.877,2.48-1.66,3.659-2.449c-0.013-0.693-0.021-1.264-0.034-1.963c-1.491,0.217-2.671,2.185-4.31,0.672
	c1.502-0.938,2.915-1.822,4.32-2.7c-0.07-0.546-0.114-0.896-0.188-1.463c-1.183,0.646-2.239,1.223-3.376,1.843
	c-0.269-0.214-0.53-0.426-0.997-0.8c1.547-1.011,2.944-1.925,4.361-2.851c-0.026-0.867-0.051-1.66-0.074-2.424
	c-0.499-0.318-0.971-0.62-1.587-1.012c0.574-0.474,0.934-0.771,1.416-1.169c-0.014-0.343-0.029-0.791-0.046-1.223
	c-1.019-0.144-1.902,1.562-2.908-0.077c0.995-0.74,1.956-1.457,2.971-2.211c-0.087-0.619-0.165-1.185-0.269-1.913
	c-0.606,0.223-1.117,0.5-1.656,0.578c-0.451,0.065-0.937-0.104-1.405-0.168c-0.025-0.133-0.052-0.266-0.077-0.398
	c1.047-0.666,2.094-1.332,3.138-1.997c0.022-0.764,0.044-1.44,0.062-2.112c-1.124-0.396-1.935,1.772-3.238,0.152
	c1.142-0.889,2.248-1.752,3.378-2.631c0.017-0.595,0.033-1.167,0.054-1.842c-1.477,0.377-2.465,2.118-4.33,1.294
	c0.467-1.032,1.509-1.217,2.204-1.8c0.691-0.581,1.454-1.079,2.298-1.697c0.061-0.815,0.126-1.685,0.195-2.632
	c-1.234,0.007-2.104,1.541-3.4,0.361c1.28-1.032,2.501-2.014,3.644-2.934c0.084-1.096,0.149-1.981,0.221-2.895
	c-1.275-0.126-2.045,1.691-3.641,0.523c1.306-1.038,2.475-1.967,3.605-2.865c0.026-0.855,0.047-1.576,0.071-2.407
	c-1.172,0.09-1.915,1.803-3.396,0.517c1.251-1.022,2.416-1.977,3.675-3.007c-0.036-0.347-0.078-0.729-0.137-1.276
	c-0.656,0.374-1.149,0.657-1.757,1.003c-0.294-0.207-0.61-0.429-1.009-0.708c0.987-0.987,1.879-1.876,2.645-2.642
	c0.39-2.404-0.457-5.05,2.538-6.603c0.013,2.893,0.087,5.491,0.023,8.085c-0.131,5.438-0.354,10.873-0.502,16.31
	c-0.106,3.883-0.202,7.769-0.206,11.654c-0.002,1.969,0.213,3.937,0.322,5.906c0.156,2.822,0.275,5.647,0.47,8.467
	c0.205,2.975,0.49,5.943,0.717,8.917c0.08,1.059,0.083,2.122,0.116,3.062c-1.3,1.399-1.469,1.418-3.246,0.47
	c-0.521,0.07-1.043,0.138-1.645,0.218c-0.166-0.267-0.32-0.513-0.525-0.841c0.665-0.388,1.253-0.729,1.864-1.085
	c0.017-0.58,0.034-1.145,0.053-1.763C98.58,154.163,97.172,156.049,95.492,154.442z"/>
<path class="stroke" fill="#183046"  fill-rule="evenodd" clip-rule="evenodd" d="M114.916,87.049c2.032,5.562,6.204,8.88,11.293,11.347
	c-0.032,1.076-0.06,2-0.086,2.889c-2.666,2.213-5.585,1.826-7.697-0.034c-3.273-2.882-5.229-6.514-6.455-10.614
	c-0.073-0.251-0.113-0.523-0.112-0.785c-0.002-0.635,0.03-1.27,0.05-1.917C112.681,86.986,113.699,86.929,114.916,87.049z"/>
<path class="stroke" fill="#183046"  fill-rule="evenodd" clip-rule="evenodd" d="M96.887,86.168c0.548,2.669,0.582,5.178-0.523,7.607
	c-1.325,2.911-2.713,5.791-4.96,8.124c-1.75,1.818-3.817,3.245-6.13,4.258c-1.882,0.824-2.812,0.29-3.343-1.768
	c0.138-1.001,0.687-1.751,1.493-2.34c0.518-0.377,1.004-0.799,1.545-1.135c3.475-2.155,5.941-5.28,8.287-8.53
	c1.058-1.467,1.459-3.175,1.915-4.87C95.513,86.251,95.645,86.145,96.887,86.168z"/>
<path class="stroke" fill="#183046"  d="M130.01,113.027c-2.047-0.814-4.066-0.361-6.06-0.043c-0.913-1.357-0.196-3.313-1.941-4.484
	c-3.573,2.817-6.179,6.483-9.194,9.624c0.115,0.321,0.125,0.478,0.209,0.556c2.516,2.381,5.011,4.785,7.589,7.1
	c0.444,0.4,1.238,0.411,2.158,0.688c0.511-1.746,0.948-3.244,1.383-4.727c2.021-0.603,4.26-0.077,6.179-1.209
	C130.665,117.96,130.764,115.49,130.01,113.027z"/>
<path class="stroke" fill="#183046"  fill-rule="evenodd" clip-rule="evenodd" d="M87.461,111.294c-0.913,3.946-4.181,5.265-7.04,7.217
	c-0.335-0.272-0.66-0.538-1.17-0.952c1.127-0.73,2.071-1.288,2.954-1.93c0.898-0.653,1.743-1.381,2.596-2.094
	C85.632,112.84,86.192,111.823,87.461,111.294z"/>
<path class="stroke" fill="#183046"  fill-rule="evenodd" clip-rule="evenodd" d="M96.888,170.24c1.431-0.449,2.494-0.784,3.558-1.115
	c0.656-0.205,1.257-0.266,1.532,0.674c-1.211,0.984-2.666,1.218-4.284,1.542C97.474,171.04,97.23,170.708,96.888,170.24z"/>
<path class="stroke" fill="#183046"  fill-rule="evenodd" clip-rule="evenodd" d="M102.046,166.576c-1.67,0.881-3.309,1.019-5.308,0.487
	c0.436-0.354,0.627-0.626,0.873-0.69c1.124-0.289,2.256-0.542,3.396-0.763C101.609,165.494,102.042,165.704,102.046,166.576z"/>
<path class="stroke" fill="#183046"  fill-rule="evenodd" clip-rule="evenodd" d="M101.424,173.555c-1.53,1.302-3.069,1.371-4.308,0.138
	c1.219-0.483,2.438-0.603,3.648-0.692C100.967,172.985,101.194,173.354,101.424,173.555z"/>
<path class="stroke" fill="#183046"  fill-rule="evenodd" clip-rule="evenodd" d="M97.233,81.93c1.532-0.991,2.948-0.396,4.469-0.22
	c-0.318,0.278-0.592,0.667-0.961,0.814C99.785,82.903,98.341,82.657,97.233,81.93z"/>
<path class="stroke" fill="#183046"  fill-rule="evenodd" clip-rule="evenodd" d="M97.029,77.917c1.386-1.15,2.724-0.989,4.271-0.955
	c-0.201,0.439-0.259,0.849-0.44,0.914C99.726,78.286,98.567,78.675,97.029,77.917z"/>
<path class="stroke" fill="#183046"  fill-rule="evenodd" clip-rule="evenodd" d="M96.282,74.551c1.309-1.06,2.624-0.999,3.982-0.972
	C99.76,74.976,98.029,75.464,96.282,74.551z"/>
<path class="stroke" fill="#183046"  fill-rule="evenodd" clip-rule="evenodd" d="M102.426,161.224c-1.928,1.697-2.342,1.781-3.441,0.717
	c0.827-0.489,1.604-0.949,2.668-1.579C101.902,160.64,102.131,160.895,102.426,161.224z"/>
<path class="stroke" fill="#183046"  fill-rule="evenodd" clip-rule="evenodd" d="M97.524,84.721c1.611-1.038,3.106-0.746,3.35,0.572
	C99.74,85.553,98.669,85.583,97.524,84.721z"/>
<path class="stroke" fill="#183046"  fill-rule="evenodd" clip-rule="evenodd" d="M96.202,70.727c0.445-0.926,1.218-1.036,2.119-0.951
	C98.064,71.206,97.477,71.464,96.202,70.727z"/>
<path fill-rule="evenodd" clip-rule="evenodd" fill="#fafd30" class="fill" d="M128.47,118.911c-2.207,0.078-4.228,0.151-6.325,0.226
	c-0.305,1.286-0.551,2.326-0.851,3.598c-1.897-1.551-3.694-3.02-5.596-4.574c1.501-2.312,3.249-4.169,5.519-6.097
	c0.054,1.201,0.092,1.996,0.132,2.895c2.175,1.183,4.41,0.166,6.659,0.257C128.821,116.258,128.571,117.466,128.47,118.911z"/>
</svg>
