<svg version="1.1" id="svg" xmlns="http://www.w3.org/2000/svg" xmlns:xlink="http://www.w3.org/1999/xlink" x="0px" y="0px"
	 width="200px" height="200px" viewBox="0 0 200 200" enable-background="new 0 0 200 200" xml:space="preserve">
<g>
	<path class="stroke" fill="#670431"  d="M148.717,89.111c-0.554-0.571-1.115-1.167-1.775-1.596c-1.324-0.86-2.336-2.202-3.971-2.586
		c-1.612-0.379-3.2-0.941-4.833-1.129c-2.139-0.248-4.311-0.236-6.47-0.284c-2.167-0.048-4.317,0.135-6.391,0.81
		c-2.336,0.76-4.659,1.565-6.982,2.363c-1.809,0.622-3.611,1.263-5.75,2.012c-1.225-0.552-2.651-1.479-4.121-2.761
		c1.59-0.616,3.002-1.221,4.453-1.712c2.614-0.885,5.208-1.896,7.891-2.497c2.777-0.622,5.652-0.812,8.482-1.207
		c0.621-0.087,1.232-0.241,1.848-0.365c-0.006-0.108-0.012-0.217-0.018-0.326c-0.314-0.029-0.634-0.107-0.944-0.079
		c-1.749,0.16-3.494,0.359-5.242,0.515c-1.246,0.111-2.511,0.082-3.74,0.281c-1.514,0.245-3.004,0.644-4.497,1.01
		c-2.666,0.654-5.286,1.438-7.705,2.792c-0.493,0.276-1.087,0.375-1.723,0.584c-0.572-0.775-1.111-1.477-1.619-2.203
		c-1.289-1.839-1.625-4.075-2.501-6.087c-0.547-1.257-0.797-2.782-2.712-2.593c-0.037,0.003-0.079-0.045-0.19-0.113
		c-1.453-2.151-3.326-3.833-6.197-4.116c0.214-0.23,0.368-0.396,0.532-0.573c0.052-0.78,0.122-1.553,0.151-2.326
		c0.075-1.984,0.148-3.969,0.188-5.954c0.031-1.564,0.03-3.129-0.005-4.693c-0.006-0.261-0.262-0.517-0.438-0.841
		c-1.706,0.534-3.289,1.007-4.857,1.527c-2.228,0.738-4.51,1.24-6.825,1.594c-0.356,0.055-0.732-0.034-1.095-0.001
		c-0.37,0.033-0.732,0.132-1.341,0.248c0.62,1.213,1.079,2.203,1.621,3.146c0.559,0.972,1.212,1.89,1.796,2.848
		c0.535,0.874,1.034,1.769,1.546,2.656c0.771,1.336,1.542,2.673,2.299,3.984c-0.733,1.032-1.645,1.962-2.115,3.078
		c-0.476,1.128-0.515,2.439-0.796,3.937c-0.381,0.289-0.599,0.955-0.473,1.731c0.101,0.622,0.179,1.255,0.359,1.855
		c0.648,2.151,0.869,4.278-0.251,6.347c-0.679,1.252-1.345,2.517-2.112,3.714c-1.011,1.579-2.021,3.174-3.201,4.623
		c-1.617,1.983-3.391,3.839-5.106,5.741c-1.116,1.238-2.281,2.432-3.364,3.698c-1.348,1.576-2.512,3.281-3.066,5.316
		c-0.327,1.197-0.621,2.405-0.883,3.617c-0.424,1.962-0.644,3.951-0.311,5.944c0.191,1.142,0.556,2.255,0.867,3.483
		c-1.992,0.631-4.061,1.394-6.187,1.929c-1.971,0.497-3.992,0.831-6.011,1.087c-1.831,0.233-3.718,0.393-5.477-0.368
		c-1.799-0.778-2.684-1.659-2.355-3.772c0.082-0.528,0.177-1.06,0.326-1.573c0.729-2.5,2.079-4.58,4.211-6.116
		c0.532-0.384,1.074-0.755,1.627-1.111c0.747-0.481,1.476-1.005,2.269-1.397c1.448-0.716,2.942-1.336,4.404-2.028
		c0.209-0.098,0.337-0.368,0.502-0.558c-0.032-0.062-0.065-0.123-0.098-0.184c-0.269,0-0.554-0.059-0.804,0.009
		c-2.269,0.616-4.494,1.356-6.469,2.672c-1.598,1.065-3.193,2.142-4.715,3.312c-1.089,0.837-2.153,1.751-3.041,2.791
		c-0.696,0.816-1.335,1.821-1.58,2.843c-0.3,1.244-0.243,2.597-0.187,3.896c0.053,1.205,0.581,2.238,1.576,3.014
		c1.637,1.277,3.595,1.328,5.506,1.396c2.096,0.074,4.126-0.349,6.129-1.062c2.158-0.769,4.417-1.251,6.609-1.93
		c1.537-0.475,3.037-1.07,4.411-1.562c1.226,1.733,2.387,3.377,3.571,5.052c-0.2,0.089-0.362,0.181-0.536,0.235
		c-2.161,0.672-4.297,1.456-6.495,1.974c-2.063,0.487-4.186,0.769-6.298,1.002c-2.236,0.247-4.481,0.43-6.745,0.103
		c-0.622-0.09-1.398,0.049-1.878,0.911c0.349,0.096,0.614,0.211,0.889,0.236c0.606,0.058,1.22,0.05,1.826,0.105
		c1.516,0.139,3.027,0.356,4.546,0.436c1.683,0.087,3.358,0.119,5.011-0.459c1.543-0.539,3.17-0.831,4.728-1.329
		c1.737-0.556,3.44-1.214,5.153-1.841c0.728-0.267,1.311-0.115,1.96,0.328c0.961,0.659,2.028,1.162,3.051,1.729
		c0.104,0.058,0.21,0.108,0.314,0.162c-0.911,0.427-1.885,0.544-2.712,0.956c-1.597,0.793-3.319,1.123-5.016,1.465
		c-2.745,0.553-5.484,1.211-8.305,1.331c-0.245,0.01-0.48,0.211-0.757,0.34c0.407,0.719,0.962,0.653,1.455,0.614
		c2.205-0.173,4.427-0.257,6.604-0.61c2.042-0.332,4.052-0.909,6.047-1.477c0.976-0.278,1.882-0.792,2.826-1.183
		c1.248-0.517,2.499-1.062,3.867-0.36c0.165,0.084,0.347,0.154,0.529,0.187c2.467,0.431,4.935,0.858,7.402,1.279
		c2.077,0.354,4.158,0.678,6.23,1.053c2.944,0.535,4.964,2.514,6.929,4.546c0.783,0.81,1.456,1.725,2.228,2.546
		c1.366,1.45,3.846,0.936,4.482-0.957c0.564-1.678,1.093-3.375,1.491-5.098c0.493-2.137,1.558-3.692,3.746-4.3
		c2.762-0.768,5.47-1.655,7.953-3.138c2.336-1.395,4.737-2.682,6.761-4.544c0.389-0.358,0.872-0.615,1.386-0.971
		c0.123-0.195,0.247-0.443,0.416-0.655c0.803-1.011,1.728-1.944,2.401-3.033c0.846-1.369,1.689-2.756,2.206-4.311
		c0.439-1.321,1.117-2.573,1.45-3.916c0.558-2.244,0.256-4.551-0.161-6.768c-0.31-1.652-1.085-3.227-1.736-4.801
		c-0.887-2.143-1.996-4.163-3.867-5.628c-0.838-0.657-1.724-1.257-2.622-1.83c-1.103-0.703-2.18-1.504-3.379-1.987
		c-2.192-0.883-4.469-1.556-6.704-2.333c-0.956-0.332-1.896-0.706-2.843-1.061c0.191-0.233,0.337-0.299,0.487-0.349
		c1.486-0.496,2.974-0.986,4.459-1.483c0.528-0.177,1.037-0.438,1.578-0.535c1.241-0.225,2.498-0.354,3.744-0.556
		c3.686-0.596,7.379-1.066,11.128-0.878c1.75,0.087,3.543-0.079,5.238,0.263c1.353,0.272,2.645,1.044,3.854,1.775
		c0.87,0.526,1.545,1.367,2.333,2.036c0.271,0.229,0.618,0.368,0.96,0.565C149.525,89.94,149.091,89.496,148.717,89.111z"/>
	<path class="stroke" fill="#670431"  d="M141.557,89.862c-1.119-0.235-2.274-0.305-3.385-0.567c-2.441-0.575-4.907-0.771-7.403-0.65
		c-0.343,0.016-0.677,0.2-1.015,0.307c-0.018,0.091-0.034,0.182-0.052,0.272c0.265,0.166,0.517,0.446,0.794,0.476
		c0.899,0.096,1.807,0.104,2.712,0.136c1.904,0.068,3.766,0.367,5.612,0.858c1.971,0.525,3.688,1.532,5.28,2.725
		c1.827,1.369,2.01,3.604,1.203,6.052c-0.673,2.042-2.085,3.66-3.631,5.136c-0.277,0.266-0.57,0.516-0.987,0.891
		c0.466,0.198,0.769,0.327,1.268,0.54c0.995-1.042,2.023-2.089,3.013-3.17c0.427-0.465,0.765-1.009,1.162-1.502
		c1.959-2.434,2.771-5.419,0.476-8.184C145.226,91.521,143.666,90.304,141.557,89.862z"/>
</g>
<path fill-rule="evenodd" clip-rule="evenodd" fill="#fa57ac" class="fill" d="M70.408,124.807c0.242-0.185,0.461-0.418,0.73-0.545
	c1.228-0.581,2.471-1.131,3.707-1.693c0.354-0.162,0.702-0.33,0.482-1.025c-1.84,0.614-3.682,1.229-5.724,1.912
	c0-1.379,0-2.653,0-4.015c0.658-0.059,1.443-0.112,2.225-0.202c2.207-0.255,4.417-0.493,6.617-0.803
	c1.621-0.228,3.228-0.56,4.841-0.841c1.039-0.181,2.084-0.335,3.119-0.538c1.354-0.264,2.693-0.613,4.053-0.838
	c2.452-0.404,4.92-0.699,7.369-1.122c2.143-0.371,4.264-0.874,6.401-1.281c0.895-0.17,1.809-0.227,2.71-0.366
	c1.479-0.229,2.955-0.488,4.434-0.728c2.267-0.369,4.54-0.697,6.799-1.107c2.602-0.472,5.189-1.021,7.787-1.521
	c1.421-0.274,2.848-0.515,4.39-0.792c0.209,2.339-0.184,4.512-0.865,6.6c-8.75,2.602-40.281,8.204-42.661,7.733
	c0.985-1.147,2.108-2.454,3.267-3.803c-0.196-0.506-0.617-0.242-0.868-0.057c-0.657,0.485-1.25,1.057-1.886,1.574
	c-1.053,0.855-2.095,1.728-3.195,2.519c-0.333,0.239-0.839,0.274-1.275,0.328c-1.904,0.234-3.808,0.5-5.72,0.641
	c-2.188,0.16-4.386,0.2-6.579,0.292C70.515,125.021,70.461,124.914,70.408,124.807z"/>
<path fill-rule="evenodd" clip-rule="evenodd" fill="#fa57ac" class="fill" d="M122.867,97.952c1.513,1.545,3.34,2.85,4.552,4.925
	c-18.85,4.513-37.939,7.207-57.129,9.935c0.193-2.131,1.388-3.674,2.283-5.419c1.223-0.109,2.438-0.173,3.639-0.335
	c2.207-0.299,4.411-0.629,6.607-0.994c2.333-0.389,4.659-0.813,6.98-1.263c0.822-0.159,1.611-0.49,2.434-0.657
	c5.672-1.15,11.35-2.268,17.021-3.42c2.132-0.433,4.246-0.961,6.379-1.396C117.992,98.847,120.363,98.426,122.867,97.952z"/>
<path fill-rule="evenodd" clip-rule="evenodd" fill="#fa57ac" class="fill" d="M83.477,133.292c0.233-0.169,0.334-0.263,0.454-0.326
	c1.603-0.855,3.21-1.705,4.813-2.561c0.498-0.265,0.486-0.608-0.05-0.984c-0.43,0.246-0.856,0.533-1.318,0.747
	c-1.59,0.734-3.207,1.412-4.785,2.173c-0.776,0.375-1.466,0.343-2.281,0.088c-1.23-0.383-3.096-1.163-3.737-1.797
	c2.121-1.004,4.027-2.366,6.55-2.417c2.282-0.046,4.554-0.516,6.833-0.773c2.28-0.257,4.569-0.441,6.843-0.736
	c2.183-0.283,4.353-0.659,6.526-1.011c1.916-0.311,3.829-0.632,5.74-0.971c3.667-0.652,7.335-1.292,10.992-1.994
	c1.907-0.365,3.79-0.856,5.687-1.275c0.382-0.084,0.777-0.103,1.419-0.185c-0.291,0.459-0.441,0.75-0.642,1.004
	c-1.972,2.488-4.437,4.318-7.276,5.746c-1.501,0.755-3.077,1.125-4.656,1.513c-1.99,0.49-4.026,0.794-6.039,1.196
	c-0.542,0.108-1.064,0.327-1.609,0.411c-2.214,0.342-4.43,0.672-6.651,0.963c-1.067,0.14-2.149,0.162-3.221,0.275
	c-2.561,0.27-5.117,0.577-7.679,0.836c-1.047,0.105-2.103,0.13-3.154,0.183c-0.722,0.036-1.445,0.066-2.167,0.077
	C83.916,133.477,83.763,133.384,83.477,133.292z"/>
<path fill-rule="evenodd" clip-rule="evenodd" fill="#fa57ac" class="fill" d="M107.949,89.961c2.686,1.356,5.167,2.609,7.649,3.861
	c-12.312,2.452-24.646,4.955-37.132,6.597c-0.039-0.059-0.078-0.118-0.116-0.177c1.542-1.871,3.084-3.744,4.77-5.79
	C91.395,93.407,99.841,92.168,107.949,89.961z"/>
<path fill-rule="evenodd" clip-rule="evenodd" fill="#fa57ac" class="fill" d="M100.581,82.159c1.074,1.365,2.095,2.663,3.227,4.1
	c-5.958,1.311-11.799,2.745-17.981,3.168c0.495-1.654,0.932-3.12,1.347-4.503C91.735,83.983,96.24,83.054,100.581,82.159z"/>
<path fill-rule="evenodd" clip-rule="evenodd" fill="#fa57ac" class="fill" d="M85.624,59.162c1.347,3.563,2.667,7.053,4.027,10.649
	c-0.402,0.193-0.734,0.353-1.071,0.515c-2.164-3.514-4.269-6.93-6.489-10.536C83.375,59.561,84.421,59.375,85.624,59.162z"/>
<path fill-rule="evenodd" clip-rule="evenodd" fill="#fa57ac" class="fill" d="M87.19,81.69c-0.149-0.595-0.292-1.167-0.466-1.862
	c4.436-0.296,8.494-1.681,12.712-2.753c0.177,0.751,0.335,1.423,0.516,2.194C95.769,80.424,91.55,81.047,87.19,81.69z"/>
<path fill-rule="evenodd" clip-rule="evenodd" fill="#fa57ac" class="fill" d="M106.097,139.644c-0.783,0.09-1.768,0.204-2.737,0.315
	c-1.084-1.812-2.788-2.663-4.645-3.571c3.237-0.566,6.286-1.1,9.322-1.631C107.42,136.31,106.808,137.853,106.097,139.644z"/>
<path fill-rule="evenodd" clip-rule="evenodd" fill="#fa57ac" class="fill" d="M89.171,77.545c-0.666,0.116-1.302,0.227-1.918,0.333
	c-0.843-1.339,0.382-4.661,2.82-5.634c-0.176,0.861-0.371,1.702-0.515,2.55C89.409,75.667,89.309,76.548,89.171,77.545z"/>
</svg>
