<svg version="1.1" id="svg" xmlns="http://www.w3.org/2000/svg" xmlns:xlink="http://www.w3.org/1999/xlink" x="0px" y="0px"
	 width="200px" height="200px" viewBox="0 0 200 200" enable-background="new 0 0 200 200" xml:space="preserve">
<path class="stroke" fill="#205165"  d="M159.82,120.213c0.199-0.73-0.104-1.046-0.386-1.316c-1.931-1.858-3.843-3.737-5.832-5.532
	c-2.324-2.098-4.764-4.064-6.8-6.47c-0.52-0.614-1.042-1.475-2.207-1.06c-0.554,0.993-1.598,1.585-2.454,2.365
	c-2.402,2.185-4.405,4.75-6.764,6.972c-1.04,0.979-1.918,2.083-2.558,3.368c-0.214,0.429-0.384,0.847,0.091,1.223
	c2.506,0.242,4.925,1.023,7.53,1.041c0.2,1.025,0.338,1.903,0.22,2.819c-0.319,2.477-0.249,4.953,0.053,7.425
	c0.08,0.649,0.118,1.327,0.838,1.905c3.362,0.105,6.862,0.079,10.591-0.196c-0.125-4.246-0.161-8.361,0.279-12.473
	C155,120.555,157.476,120.915,159.82,120.213z"/>
<path fill-rule="evenodd" clip-rule="evenodd" fill="#ffffff" class="fill" d="M145.544,108.652c3.152,3.218,6.371,6.121,9.641,9.219
	c-1.766,0.402-3.381-0.045-4.917,0.119c-0.648,0.978-0.686,2.005-0.602,3.01c0.255,3.038-0.059,6.068-0.048,9.102
	c0.002,0.297-0.031,0.597-0.059,1.079c-2.159-0.053-4.207-0.391-6.222-0.927c-0.79-3.834-0.241-7.669-0.775-11.417
	c-2.081-1.125-4.335-0.499-6.749-0.948C139.144,114.774,142.317,111.913,145.544,108.652z"/>
<path class="stroke" fill="#205165"  d="M176.201,70.529c-0.725-0.264-1.441-0.554-2.213-0.852c0.756-3.023,2.029-6.069-0.326-8.923
	c1.273-2.397,2.218-4.867,2.189-7.667c-0.03-2.962-1.486-5.091-4.083-7.126c-4.141-2.321-8.714-2.57-13.251,0.25
	c-0.949-0.783-1.892-1.562-2.917-2.408c0.03-0.38,0.049-0.857,0.108-1.329c0.316-2.526-0.691-4.524-2.716-5.878
	c-1.473-0.984-2.982-1.892-4.819-2.361c-2.972-0.76-5.645-0.669-8.189,1.106c-0.247,0.172-0.521,0.305-0.843,0.492
	c-5.029-4.02-10.333-3.403-15.722-0.881c-3.679-2.813-7.555-3.368-11.603-1.346c-2.948,1.474-5.689,3.3-7.186,6.435
	c-0.208,0.049-0.371,0.107-0.537,0.121c-0.203,0.016-0.41,0-0.614-0.014c-3.165-0.218-6.13,0.196-8.604,2.46
	c-1.87,1.71-3.564,3.425-4.328,6.021c-0.943,3.205,0.825,6.424,3.397,7.821c1.781,0.967,3.726,1.633,5.841,2.538
	c0.644,3.104,2.344,5.799,5.63,7.143c-0.282,1.027-0.596,1.988-0.806,2.971c-0.388,1.812-0.187,3.605,0.895,5.108
	c1.785,2.48,5.809,3.607,8.687,2.625c0.557-0.19,1.148-0.277,1.724-0.412c-2.045,4-4.132,7.841-6.478,11.518
	c-2.337,3.661-4.935,7.155-7.498,10.837c0.187,0.208,0.538,0.602,0.958,1.071c0.958-0.734,1.842-1.411,2.777-2.126
	c0.152,1.263-1.343,2.125-0.475,3.369c0.533-0.045,0.989-0.084,1.477-0.126c-0.516,2.708-0.408,3.151,1.089,3.644
	c1.132-1.064,2.394-2.199,3.592-3.396c0.697-0.696,1.249-1.537,1.945-2.233c1.855-1.856,3.751-3.671,5.636-5.498
	c2.549-2.47,5.09-4.949,7.664-7.393c0.523-0.497,1.183-0.851,1.789-1.278c0.803,3.948,2.716,7.149,6.206,8.707
	c3.456,1.542,7.148,0.922,10.205-0.75c1.495,1.056,2.741,1.989,4.04,2.842c2.916,1.916,6.188,2.323,9.557,1.995
	c2.328-0.227,3.913-1.836,5.436-3.422c1.583-1.648,2.653-3.616,3.304-5.731c1.279-0.207,2.503-0.31,3.676-0.612
	c2.568-0.664,4.344-2.474,6.209-4.248c1.778-1.69,2.696-3.775,2.964-5.998C180.249,75.427,179.03,71.558,176.201,70.529z"/>
<path fill-rule="evenodd" clip-rule="evenodd" fill="#ffffff" class="fill" d="M138.082,46.759c1.039,1.056,3.416,1.242,4.856-0.077
	c2.916-2.672,6.132-2.585,9.649-1.539c3.751,1.116,5.411,4.653,4.994,8.024c-0.058,0.469-0.067,0.983,0.063,1.428
	c0.23,0.782,0.946,0.87,2,0.292c0.083-0.22,0.164-0.48,0.278-0.724c0.114-0.243,0.262-0.471,0.336-0.601
	c1.033,0,1.972,0.055,2.901-0.011c2.59-0.183,5.405,1.912,5.574,4.243c0.043,0.599-0.101,1.212-0.187,2.125
	c0.287,0.177,0.73,0.482,1.205,0.729c0.298,0.156,0.654,0.197,0.963,0.338c2.291,1.045,2.987,2.685,2.215,5.344
	c-0.777,2.68-2.319,4.855-4.641,6.394c-0.71,0.47-1.629,0.672-2.482,0.865c-0.998,0.225-1.312,0.674-0.891,1.557
	c0.892,1.87,0.872,4.992-1.064,6.621c-1.514,1.274-3.003,2.645-4.711,3.603c-1.955,1.096-4.117,0.74-6.271-0.079
	c3.518-2.097,5.566-5.158,6.59-9.007c-0.224-0.162-0.346-0.281-0.491-0.345c-0.119-0.052-0.266-0.037-0.411-0.053
	c-0.07,0.085-0.14,0.156-0.193,0.237c-0.894,1.373-1.65,2.863-2.706,4.097c-2.085,2.438-6.23,4.013-9.861,1.96
	c-1.071-0.605-1.795-1.492-1.403-2.995c-0.554-0.171-1.073-0.331-1.625-0.501c-0.989,1.879,0.273,3.054,1.142,4.134
	c0.882,1.096,2.144,1.887,3.389,2.937c-0.199,0.303-0.48,0.886-0.898,1.344c-1.42,1.556-2.98,3.064-5.078,3.5
	c-2.48,0.514-5.021,0.582-7.417-0.603c-1.703-0.843-3.975-4.562-3.153-6.518c0.279-0.664,0.634-1.4,1.172-1.833
	c2.019-1.625,4.131-3.135,6.201-4.699c0.269-0.203,0.486-0.474,0.736-0.703c0.857-0.79,1.767-1.369,2.959-1.705
	c1.709-0.482,3.305-1.364,5.093-2.138c5.226,3.562,9.353,1.28,12.724-2.403c-0.735,0.247-1.521,0.397-2.195,0.758
	c-1.882,1.01-3.787,0.736-5.656,0.131c-0.836-0.271-1.747-0.739-2.295-1.394c-1.414-1.689-1.108-3.341,0.861-5.454
	c-0.173-0.211-0.378-0.646-0.544-0.631c-0.484,0.042-1.188,0.12-1.385,0.441c-0.866,1.41-1.678,2.872-2.318,4.395
	c-0.351,0.835-0.059,1.887-1.006,2.556c-1.414,0.999-2.901,1.807-4.656,1.319c-1.526-0.424-3.038-0.994-4.445-1.714
	c-0.616-0.315-0.958-1.166-1.569-1.961c-0.263,0.054-0.7,0.143-1.06,0.217c0.265,3.426,2.289,5.001,5.309,5.765
	c-10.183,7.981-20.533,15.53-29.649,24.519c-0.66,0.061-1.318,0.121-2.127,0.194c0.435-1.079,0.845-2.098,1.244-3.088
	c-0.139-0.348-0.25-0.629-0.28-0.704c5.951-9.65,10.918-19.675,16.363-29.452c1.073-0.583,2.564-0.455,3.444-2.01
	c-0.625,0-1.061-0.098-1.431,0.016c-2.184,0.669-4.296,0.44-6.434-0.267c-1.064-0.352-1.429-1.101-1.812-2.137
	c1.596-0.39,3.086-0.712,4.55-1.125c1.118-0.315,2.277-0.629,2.841-1.972c-0.364,0.075-0.753,0.091-1.088,0.234
	c-2.306,0.984-4.541,0.549-6.574-0.608c-1.149-0.654-1.943-1.825-1.609-3.375c0.091-0.424,0.072-0.872,0.129-1.67
	c-0.828,0.445-1.431,0.769-1.989,1.069c-1.401,3.347-1.33,4.054,0.544,6.172c-0.034,0.771-0.038,1.59-0.113,2.403
	c-0.214,2.305,1.289,4.013,3.644,4.137c0.877,0.047,1.751,0.156,2.808,0.254c-0.768,1.534-1.491,2.916-2.159,4.324
	c-0.957,2.019-2.57,3.174-4.684,3.744c-2.015,0.544-5.457-0.748-6.476-3.51c-0.644-1.745-0.693-3.306,0.589-4.899
	c1.95,1.122,3.976,2.101,6.307,1.199c0.343-0.133,0.621-0.434,0.839-0.905c-0.477,0-0.953,0-1.43,0
	c0.006-0.055,0.013-0.11,0.02-0.165c-0.649-0.091-1.299-0.183-1.949-0.273c-0.06,0.071-0.121,0.143-0.181,0.213
	c-0.659-0.868-1.317-1.736-1.979-2.609c0.427-0.935,0.769-1.682,1.11-2.43c0.132-0.007,0.265-0.015,0.397-0.023
	c-0.233-0.489-0.466-0.979-0.781-1.64c-1.809,1.241-2.808,2.682-3.138,4.57c-1.689,0.255-3.289-0.617-4.027-2.292
	c-0.34-0.771-0.571-1.611-0.721-2.443c-0.577-3.204-0.616-6.355,1.106-9.297c0.751-1.285,1.844-2.082,3.065-2.959
	c2.264-1.626,4.569-1.415,7.005-1.225c1.388,0.108,1.707-0.122,2.039-1.533c0.515-2.192,1.8-3.856,3.405-5.369
	c2.434-2.295,5.346-3.621,8.484-4.634c2.311-0.745,4.445-0.435,6.658,0.352c2.297,0.816,2.893,2.748,3.413,4.752
	c0.177,0.682,0.144,1.429,0.14,2.146C138.181,43.542,138.126,44.971,138.082,46.759z"/>
<path fill-rule="evenodd" clip-rule="evenodd" fill="#ffffff" class="fill" d="M147.685,89.859c0.586-0.981,1.107-1.853,1.66-2.779
	c5.562,2.611,10.65,2.218,15.15-2.514c0.422,0.696,0.765,1.262,1.031,1.702c-0.052,0.795-0.027,1.433-0.146,2.042
	c-0.45,2.309-2.014,3.809-3.686,5.333c-2.475,2.258-5.188,1.858-7.94,1.032c-1.508-0.453-2.944-1.195-4.351-1.926
	C148.288,92.17,147.907,91.046,147.685,89.859z"/>
<path fill-rule="evenodd" clip-rule="evenodd" fill="#ffffff" class="fill" d="M171.438,59.638c-0.422-0.177-0.687-0.288-0.907-0.38
	c-0.58-5.439-3.855-7.727-9.784-6.95c-0.462-1.562-0.923-3.117-1.421-4.8c2.155-1.571,4.563-2.312,7.257-1.875
	c1.474,0.239,3.018,0.413,4.17,1.532c0.582,0.566,1.085,1.213,1.618,1.829c2.45,2.831,1.375,5.783,0.253,8.708
	C172.365,58.375,171.864,58.956,171.438,59.638z"/>
<path fill-rule="evenodd" clip-rule="evenodd" fill="#ffffff" class="fill" d="M103.464,43.949c0.222,0.877,0.396,1.57,0.625,2.476
	c-2.562,2.027-3.875,5.018-4.47,8.666c-0.69-0.091-1.4-0.156-2.099-0.284c-2.024-0.372-3.318-1.792-4.54-3.276
	c-0.213-0.259-0.243-0.696-0.292-1.06c-0.291-2.135,1.173-4.545,3.052-5.518c1.511-0.782,3.008-1.481,4.727-1.412
	C101.504,43.583,102.535,43.817,103.464,43.949z"/>
<path fill-rule="evenodd" clip-rule="evenodd" fill="#ffffff" class="fill" d="M166.112,83.241c0.475-2.166,0.896-4.084,1.255-5.723
	c2.126-1.925,4.106-3.716,6.239-5.647c1.507,0.294,3.343,2.9,2.985,4.704c-0.249,1.254-0.285,2.658-0.904,3.707
	c-1.248,2.117-3.208,3.463-5.713,3.867c-0.438,0.071-0.874,0.162-1.312,0.229C166.831,84.659,166.83,84.657,166.112,83.241z"/>
<path fill-rule="evenodd" clip-rule="evenodd" fill="#ffffff" class="fill" d="M120.151,36.457c-2.775,1.95-5.17,4.061-6.606,6.92
	c-2.212,0.273-4.355,0.538-6.612,0.816c-0.394-1.234,0.01-2.578,0.486-3.811c0.683-1.767,1.78-3.358,3.427-4.354
	c1.207-0.729,2.553-1.45,3.915-1.649C116.76,34.084,118.478,35.105,120.151,36.457z"/>
<path fill-rule="evenodd" clip-rule="evenodd" fill="#ffffff" class="fill" d="M140.272,37.09c1.522-0.872,2.956-1.927,4.886-1.315
	c1.263,0.401,2.558,0.724,3.783,1.219c2.176,0.879,3.744,3.07,3.818,5.312c-0.493,0.072-1.026,0.275-1.518,0.201
	c-3.405-0.514-6.581,0.127-9.582,1.765c-0.11,0.061-0.245,0.077-0.38,0.118C140.956,41.961,141.644,39.454,140.272,37.09z"/>
<g>
	<path class="stroke" fill="#205165"  fill-rule="evenodd" clip-rule="evenodd" d="M103.374,106.588c-0.962-1.089-1.99-2.121-3.014-3.153
		c-0.662-0.668-1.344-1.346-2.418-0.781c-0.05,0.026-0.125,0.001-0.188,0.007c-0.771,0.075-1.566,0.062-2.309,0.252
		c-0.93,0.238-1.828,0.62-2.721,0.986c-0.538,0.22-1.124,0.433-1.542,0.811c-1.375,1.243-2.627,2.597-3.648,4.169
		c-1.175,1.808-2.776,3.161-4.781,4.007c-1.476,0.623-2.933,0.526-4.355-0.024c-0.195-1.583-0.411-3.073-0.556-4.571
		c-0.15-1.536-0.364-3.054-0.975-4.482c-0.331-0.776-0.229-1.433,0.262-2.12c0.716-1.001,1.436-1.998,1.854-3.192
		c0.238-0.676,0.244-1.282,0.126-1.97c-0.129-0.758-0.231-1.573-0.084-2.312c0.22-1.107,0.739-2.153,1.005-3.255
		c0.464-1.92,0.887-3.854,1.226-5.799c0.266-1.527,0.008-3.056-0.219-4.581c-0.363-2.437-1.433-4.496-3.244-6.132
		c-1.313-1.187-2.742-2.25-3.597-3.859c-0.452-0.851-1.026-1.648-0.907-2.703c0.137-1.215,0.282-2.435,0.307-3.655
		c0.014-0.699-0.063-1.467-0.349-2.089c-0.486-1.058-1.579-0.976-2.547-0.996c-1.533-0.033-3.107,0.175-4.593-0.101
		c-2.435-0.451-4.829-1.156-7.209-1.856c-1.718-0.504-3.448-0.888-5.226-0.739c-1.843,0.154-3.67,0.493-5.506,0.747
		c-2.729,0.378-5.448,0.787-8.087,1.632c-2.662,0.853-5.268,2.094-8.199,1.424c-0.041-0.009-0.084-0.002-0.126,0.001
		c-1.007,0.072-1.376,0.495-1.569,1.475c-0.285,1.45-0.092,2.898-0.145,4.346c-0.026,0.704-0.213,1.491-0.587,2.073
		c-0.538,0.838-1.274,1.563-1.996,2.265c-0.938,0.911-1.993,1.703-2.911,2.632c-1.517,1.534-2.586,3.356-3.247,5.423
		c-0.58,1.816-0.977,3.652-0.431,5.528c0.511,1.759,1.188,3.469,1.701,5.227c0.194,0.662,0.235,1.408,0.161,2.096
		c-0.079,0.741-0.324,1.479-0.586,2.185c-0.365,0.982-0.298,1.915,0.196,2.806c0.786,1.417,1.611,2.812,2.488,4.333
		c-0.334,0.648-0.791,1.367-1.083,2.147c-0.374,0.999-0.658,2.038-0.902,3.078c-0.35,1.494-0.734,2.994-0.911,4.513
		c-0.274,2.359-0.395,4.736-0.562,7.107c-0.085,1.194-0.182,2.391-0.18,3.585c0.003,1.387,0.122,2.775,0.167,4.163
		c0.025,0.769,0.004,1.538,0.004,2.126c-0.731,0.556-1.278,0.945-1.794,1.371c-1.176,0.971-1.246,2.303-0.126,3.317
		c0.641,0.58,0.876,1.274,0.843,2.084c-0.044,1.029-0.151,2.057-0.199,3.086c-0.032,0.69-0.006,1.381-0.006,2.222
		c1.005,0.31,1.99,0.711,3.014,0.909c2.439,0.472,4.887,0.931,7.35,1.243c3.387,0.429,6.785,0.824,10.189,1.034
		c2.756,0.17,5.532,0.086,8.298,0.039c2.765-0.047,5.531-0.164,8.293-0.294c2.759-0.131,5.521-0.27,8.273-0.494
		c2.138-0.174,4.277-0.416,6.395-0.754c1.805-0.288,3.583-0.748,5.367-1.151c0.429-0.097,0.669-0.368,0.657-0.864
		c-0.042-1.582-0.076-3.164-0.058-4.744c0.004-0.346,0.189-0.718,0.378-1.025c0.252-0.41,0.685-0.728,0.865-1.158
		c0.233-0.554,0.292-1.18,0.436-1.816c1.608-0.047,3.205-0.494,4.754-1.126c1.641-0.669,3.016-1.734,3.988-3.185
		c0.693-1.033,1.236-2.208,1.631-3.391c0.872-2.615,1.613-5.273,2.398-7.917c0.594-2,1.219-3.988,2.259-5.812
		c0.26-0.456,0.504-0.945,0.861-1.319c1.662-1.739,3.701-2.013,5.942-1.444c0.404,0.103,0.847,0.218,1.241,0.15
		c0.403-0.069,0.955-0.271,1.095-0.575C103.839,107.465,103.627,106.875,103.374,106.588z M68.548,63.046c1.05,0,1.959,0,2.961,0
		c-0.038,0.859-0.072,1.641-0.107,2.446c-1.041,0.172-2.033,0.645-3.103-0.139C68.376,64.635,68.458,63.875,68.548,63.046z
		 M36.895,63.207c1.672-0.471,3.404-0.888,5.088-1.447c3.061-1.018,6.263-1.054,9.413-1.42c1.922-0.224,3.848-0.076,5.756,0.493
		c2.741,0.817,5.534,1.459,8.304,2.178c0.059,0.016,0.109,0.062,0.253,0.147c-0.04,0.874-0.081,1.791-0.13,2.889
		c-1,0.253-1.996,0.556-3.011,0.75c-1.548,0.296-3.104,0.584-4.669,0.749c-1.377,0.145-2.774,0.163-4.162,0.155
		c-2.86-0.017-5.721-0.059-8.58-0.153c-0.921-0.03-1.84-0.225-2.75-0.396c-1.63-0.305-3.253-0.643-4.876-0.981
		c-0.261-0.054-0.508-0.176-0.821-0.287C36.768,65.018,36.826,64.183,36.895,63.207z M32.183,63.639
		c0.665,0.086,1.238,0.161,1.875,0.244c0,0.907,0,1.775,0,2.784c-0.727-0.168-1.33-0.307-1.875-0.433
		C32.183,65.333,32.183,64.523,32.183,63.639z M23.068,85.507c-0.157-2.186-0.015-4.379,1.327-6.241
		c0.938-1.303,1.878-2.61,3.094-3.704c1.305-1.173,2.546-2.426,3.737-3.716c0.454-0.493,0.689-1.187,1.022-1.786
		c1.828-0.037,3.488,0.099,5.172,0.552c2.291,0.617,4.659,0.967,7.006,1.353c3.409,0.559,6.857,0.446,10.288,0.355
		c2.46-0.065,4.94-0.263,7.36-0.692c1.699-0.301,3.344-1.017,4.954-1.689c1.231-0.514,2.458-0.689,3.777-0.585
		c0.352,0.601,0.635,1.249,1.064,1.779c0.684,0.846,1.409,1.674,2.217,2.399c1.375,1.234,2.651,2.536,3.646,4.102
		c1.206,1.898,1.454,4.02,1.38,6.19c-0.059,1.745-0.181,3.492-0.378,5.226c-0.091,0.801-0.396,1.584-0.662,2.356
		c-0.476,1.39-0.896,2.812-1.525,4.132c-0.646,1.354-1.514,2.602-2.296,3.915c-1.003-0.792-1.875-1.48-2.763-2.182
		c0.496-1.377,0.334-2.744,0.015-4.108c-0.149-0.639-0.505-1.092-1.15-1.305c-0.539-0.178-1.105-0.321-1.591-0.599
		c-0.685-0.392-1.357-0.836-1.943-1.361c-1.41-1.265-3.077-1.961-4.884-2.388c-3.365-0.795-6.781-1.209-10.23-1.011
		c-2.394,0.138-4.783,0.449-7.155,0.807c-1.636,0.247-3.275,0.597-4.849,1.099c-1.555,0.496-3.161,0.984-4.427,2.102
		c-0.657,0.58-1.294,1.203-1.824,1.895c-0.327,0.426-0.68,0.665-1.167,0.768c-1.213,0.256-2.24,0.812-3.109,2.02
		c0.08,0.67,0.182,1.516,0.298,2.479c-0.256,0.157-0.625,0.384-1.066,0.653c-0.327-0.485-0.654-0.938-0.947-1.413
		c-0.771-1.251-1.697-2.442-2.255-3.784C24.186,90.684,23.261,88.176,23.068,85.507z M69.541,96.188
		c-0.189,0.04-0.388,0.118-0.587,0.118c-1.21-0.001-2.423-0.067-3.633-0.023c-2.396,0.087-4.79,0.228-7.185,0.355
		c-1.997,0.106-3.992,0.228-5.989,0.337c-0.989,0.054-1.978,0.129-2.968,0.14c-3.502,0.041-7.004,0.084-10.507,0.074
		c-1.79-0.006-3.58-0.101-5.368-0.204c-0.569-0.032-1.129-0.22-1.7-0.337c-0.036-0.455-0.061-0.764-0.091-1.148
		c0.462-0.112,0.91-0.181,1.331-0.33c1.156-0.409,1.848-1.396,2.591-2.267c1.901-2.23,4.353-3.422,7.164-3.938
		c2.483-0.457,4.97-0.998,7.479-1.18c2.388-0.174,4.81-0.013,7.208,0.145c3.173,0.21,5.857,1.583,8.158,3.757
		c1.258,1.188,1.473,1.265,3.936,1.957C69.56,94.463,69.988,95.259,69.541,96.188z M77.431,133.172
		c-1.205,0.822-2.578,0.72-3.877,0.903c-2.711,0.381-5.424,0.799-8.15,1.038c-2.161,0.19-4.345,0.116-6.517,0.195
		c-2.671,0.097-5.34,0.28-8.011,0.333c-1.832,0.036-3.667-0.087-5.5-0.14c-0.693-0.019-1.387-0.032-2.08-0.063
		c-1.812-0.081-3.625-0.145-5.434-0.267c-1.196-0.081-2.384-0.271-3.579-0.376c-2.036-0.18-4.08-0.298-6.112-0.517
		c-0.511-0.055-0.992-0.387-1.579-0.629c-0.059-0.175-0.142-0.417-0.252-0.743c0.515,0,0.93-0.037,1.337,0.006
		c2.135,0.227,4.268,0.479,6.402,0.713c1.781,0.196,3.561,0.488,5.346,0.541c2.887,0.085,5.778,0.012,8.667,0
		c3.486-0.015,6.974,0.018,10.458-0.077c2.171-0.058,4.34-0.27,6.503-0.489c2.392-0.241,4.776-0.565,7.164-0.858
		c0.686-0.084,1.378-0.146,2.053-0.29c0.327-0.07,0.62-0.303,0.824-0.408c-0.104-2.698-0.257-5.253-0.275-7.808
		c-0.011-1.467,0.214-2.935,0.299-4.404c0.039-0.661,0.023-1.328-0.018-1.989c-0.076-1.23-0.091-2.476-0.311-3.683
		c-0.29-1.588-0.69-3.163-1.169-4.705c-0.207-0.668-0.728-1.239-1.101-1.845c-0.961,0.112-1.772,0.196-2.579,0.305
		c-1.438,0.193-2.873,0.396-4.308,0.605c-1.021,0.149-2.034,0.373-3.06,0.465c-1.656,0.149-3.318,0.237-4.979,0.314
		c-2.211,0.104-4.423,0.187-6.637,0.252c-2.021,0.059-4.044,0.147-6.064,0.106c-2.952-0.059-5.881-0.4-8.778-0.983
		c-0.447-0.089-0.882-0.235-1.393-0.373c-1.491,2.37-2.512,4.799-2.067,7.676c-1.975,0.246-3.849,0.479-5.722,0.713
		c-0.491-0.877-0.331-1.756-0.252-2.593c0.233-2.46,0.636-4.892,1.673-7.167c0.146-0.323,0.34-0.638,0.57-0.909
		c0.605-0.716,0.546-1.136-0.25-1.668c-0.468-0.312-0.909-0.665-1.424-1.045c0.312-0.398,0.534-0.756,0.826-1.043
		c1.178-1.161,2.488-2.108,4.086-2.651c0.892-0.303,1.664,0.062,2.362,0.386c1.366,0.633,2.803,0.771,4.244,0.894
		c3.042,0.258,6.088,0.519,9.137,0.633c2.071,0.077,4.156-0.027,6.225-0.172c2.385-0.167,4.764-0.438,7.138-0.719
		c2-0.237,3.993-0.547,5.987-0.844c0.642-0.096,1.28-0.229,1.911-0.382c0.825-0.201,1.352,0.363,1.932,0.742
		c2.093,1.366,3.015,3.491,3.686,5.779c0.646,2.199,0.962,4.451,1.027,6.729c0.118,4.169,0.177,8.341,0.233,12.511
		c0.02,1.471-0.019,2.943-0.079,4.413c-0.026,0.632,0.177,1.017,0.75,1.307C77.669,131.371,77.909,132.225,77.431,133.172z
		 M97.798,105.351c-2.859,0.479-5.044,1.978-6.638,4.382c-1.07,1.614-2.125,3.24-3.265,4.804c-0.685,0.939-1.568,1.723-2.655,2.195
		c-1.722,0.749-3.494,1.354-5.376,1.558c-0.39,0.042-0.789,0.006-1.226,0.006c-0.083-1.179-0.159-2.246-0.238-3.357
		c0.684,0.055,1.36,0.134,2.039,0.162c3.286,0.134,5.898-1.089,7.772-3.84c0.828-1.214,1.654-2.44,2.606-3.555
		c1.232-1.445,2.597-2.814,4.519-3.292c0.966-0.24,1.999-0.214,3.001-0.309c0.33,0.367,0.606,0.674,0.956,1.064
		C98.727,105.237,98.259,105.274,97.798,105.351z"/>
	<path class="stroke" fill="#205165"  fill-rule="evenodd" clip-rule="evenodd" d="M63.052,91.366c-1.381-0.706-2.813-1.312-4.237-1.93
		c-1.114-0.483-2.291-0.651-3.503-0.598c-0.532,0.023-0.945,0.181-1.141,0.848c0.344,0.302,0.782,0.576,1.066,0.964
		c0.304,0.415,0.603,0.922,0.65,1.413c0.054,0.574-0.552,0.752-1.016,0.869c-0.671,0.169-1.36,0.292-2.048,0.377
		c-2.131,0.264-4.256,0.286-6.325-0.397c-0.374-0.123-0.69-0.418-0.96-0.587c-0.015-0.73,0.352-1.04,0.735-1.404
		c0.266-0.254,0.425-0.722,0.431-1.097c0.002-0.15-0.521-0.395-0.83-0.449c-1.09-0.188-2.185-0.141-3.249,0.181
		c-2.137,0.649-3.978,1.828-5.644,3.282c-0.512,0.447-0.931,1.001-1.392,1.506c0.017,0.087,0.034,0.175,0.05,0.262
		c0.322,0.111,0.64,0.305,0.967,0.32c2.339,0.113,4.679,0.189,7.019,0.278c2.004,0.076,4.008,0.152,6.011,0.235
		c0.437,0.018,0.876,0.113,1.31,0.09c0.799-0.04,1.594-0.188,2.392-0.203c0.883-0.017,1.768,0.117,2.65,0.096
		c2.172-0.05,4.342-0.146,6.513-0.235c0.611-0.024,1.224-0.064,1.83-0.136c0.587-0.07,1.105-0.281,1.384-1.027
		c-0.191-0.363-0.332-0.896-0.674-1.216C64.446,92.252,63.774,91.735,63.052,91.366z"/>
</g>
</svg>
