<svg version="1.1" id="svg" xmlns="http://www.w3.org/2000/svg" xmlns:xlink="http://www.w3.org/1999/xlink" x="0px" y="0px"
	 width="200px" height="200px" viewBox="0 0 200 200" enable-background="new 0 0 200 200" xml:space="preserve">
<path class="stroke" fill="#561906"  d="M169.081,99.724c-0.488-2.469-1.857-4.357-3.682-6.358c-1.199,0.203-2.532,0.221-3.706,0.662
	c-5.731,2.154-11.647,3.397-17.703,4.258c-7.122,1.012-14.205,0.848-21.289,0c-5.489-0.658-10.97-1.306-16.501-1.541
	c-1.742-0.075-3.588-0.448-5.16-1.174c-3.076-1.42-5.93-1.401-8.798,0.36c-0.108,0.066-0.265,0.055-0.312,0.063
	c-9.441-1.225-18.762,0.07-27.927,0.516c-0.735-0.505-1.272-0.941-1.867-1.273c-2.388-1.334-5.238-0.516-6.447,1.965
	c-0.501,1.029-1.277,1.586-2.206,2.023c-2.971,1.399-5.963,2.752-8.939,4.139c-2.102,0.979-4.106,2.116-5.86,3.451
	c-0.065,4.511,1.615,6.953,6.329,9.247c0.799-0.172,1.759-0.29,2.66-0.586c4.092-1.342,8.153-2.775,12.252-4.094
	c2.849-0.916,5.611-2.146,8.752-1.942c1.822,0.119,3.674-0.204,5.512-0.328c0.054,0.104,0.107,0.209,0.162,0.314
	c1.051,0.221,2.093,0.561,3.154,0.637c1.899,0.136,3.852,0.364,5.702,0.064c1.199-0.194,2.37-0.52,3.607-0.479
	c1.778,0.059,3.56,0.059,5.335,0.148c3.078,0.156,6.156,0.571,9.227,0.509c9.593-0.193,19.164-0.166,28.695,1.138
	c1.314,0.179,2.573,0.254,3.506,1.382c0.23,0.28,0.706,0.449,1.092,0.498c2.7,0.341,5.374,0.004,7.812-1.105
	c1.082-0.493,2.13-0.932,3.265-1.025c4.231-0.348,8.471-0.583,12.704-0.905c2.93-0.223,5.861-0.461,8.778-0.806
	c1.353-0.16,2.704-0.535,3.61-2.2C170.278,104.905,169.599,102.331,169.081,99.724z"/>
<path fill-rule="evenodd" clip-rule="evenodd" fill="#bf7512" class="fill" d="M43.565,112.103c-1.134-0.786-1.729-1.897-2.033-3.468
	c0.389-0.302,0.799-0.752,1.307-0.99c1.795-0.841,3.613-1.633,5.443-2.396c1.578-0.658,3.142-1.406,4.785-1.835
	c2.366-0.618,4.119-1.783,4.916-4.177c0.105-0.317,0.329-0.595,0.593-1.058c0.7-0.252,1.513-0.545,2.304-0.83
	c0.438,0.357,0.799,0.572,1.057,0.875c0.992,1.163,2.188,1.33,3.687,1.225c4.641-0.325,9.294-0.488,13.945-0.64
	c2.528-0.083,5.062-0.015,7.248-0.015c0.466,0.24,0.608,0.279,0.706,0.368c2.164,1.995,3.598,1.995,5.901,0.168
	c0.839-0.665,1.812-1.246,2.817-1.583c0.715-0.241,1.777-0.31,2.359,0.058c3.139,1.983,6.654,1.869,10.123,2.104
	c8.401,0.569,16.807,1.093,25.201,1.748c5.649,0.44,11.213-0.081,16.742-1.137c4.368-0.834,8.764-1.587,12.924-3.261
	c0.301-0.121,0.666-0.082,1.282-0.146c0.562,1.479,1.128,2.971,1.8,4.741c-6.276,1.285-12.459,1.191-18.774,2.538
	c1.722,1.058,3.318,1.201,4.926,1.056c4.362-0.392,8.718-0.86,13.077-1.292c0.262-0.026,0.528-0.003,0.793-0.003
	c0.117,0.255,0.254,0.431,0.269,0.616c0.02,0.257-0.054,0.521-0.094,0.833c-8.079,1.506-16.214,1.722-24.243,1.97
	c-0.658,0.525-1.189,0.949-1.855,1.479c-1.959,0.152-4.057,0.315-5.881,0.457c-1.682-0.981-1.355-3.388-3.58-3.667
	c-0.539,0.638-1.098,1.299-1.682,1.991c-1.203,0-2.437,0.062-3.662-0.012c-3.961-0.24-7.917-0.579-11.88-0.79
	c-4.581-0.244-9.165-0.47-13.75-0.558c-3.692-0.071-7.389,0.085-11.083,0.115c-1.501,0.012-3.011-0.154-4.502-0.042
	c-1.342,0.1-2.655,0.542-3.997,0.7c-1.48,0.174-2.979,0.197-4.28,0.274c-1.852-1.509-3.21-3.481-5.941-2.792
	c-0.906,1.312-2.471,1.3-3.912,1.696c-6.857,1.884-13.865,3.305-20.326,6.445c-0.425,0.207-0.884,0.342-1.553,0.596
	c-0.404-0.464-0.826-0.949-1.247-1.435c1.149,0.356,2.079-0.16,3.002-0.736c2.565-1.602,5.261-2.889,8.227-3.603
	c2.988-0.719,5.946-1.562,8.926-2.319c0.735-0.187,1.504-0.251,1.366-1.306c-3.59-0.9-16.088,3.221-21.449,7.039
	C43.565,111.43,43.565,111.767,43.565,112.103z M86.258,103.487c-0.032,0.233-0.065,0.466-0.097,0.698
	c2.105,1.42,4.539,0.201,6.787,0.504c2.366,0.319,4.785,0.243,7.18,0.34c2.396,0.097,4.79,0.191,7.184,0.297
	c2.393,0.106,4.785,0.317,7.178,0.313c2.338-0.003,4.696,0.618,7.119-0.013c-0.229-1.242-1.095-1.276-1.895-1.318
	c-6-0.313-11.999-0.637-18.001-0.896c-3.617-0.156-7.239-0.246-10.86-0.271C89.322,103.132,87.79,103.365,86.258,103.487z
	 M135.566,105.243c1.95,1.585,5.232,1.541,7.154,0.121C140.379,105.193,138.224,104.81,135.566,105.243z M73.026,101.534
	c-1.42-0.767-2.532-0.774-3.77-0.109C70.66,102.615,71.029,102.636,73.026,101.534z M79.595,103.194
	c0.086,1.398,0.771,1.708,1.525,1.705c0.378-0.002,0.754-0.427,1.131-0.661c-0.04-0.173-0.08-0.346-0.119-0.52
	C81.354,103.558,80.578,103.396,79.595,103.194z"/>
</svg>
