<svg version="1.1" id="svg" xmlns="http://www.w3.org/2000/svg" xmlns:xlink="http://www.w3.org/1999/xlink" x="0px" y="0px"
	 width="200px" height="200px" viewBox="0 0 200 200" enable-background="new 0 0 200 200" xml:space="preserve">
<path class="stroke" fill="#580f12"  d="M132.898,87.563c1.238-1.107,2.596-2.14,4.221-2.611c2.573-0.747,5.168-1.429,7.779-2.025c0.934-0.214,1.55-0.7,1.854-1.489
	c0.537-1.395,0.314-4.01-1.809-4.824c-1.08-0.415-2.114-0.978-3.221-1.291c-2.262-0.64-4.529-1.409-6.846-1.67
	c-4.414-0.498-8.547,0.822-12.458,2.749c-2.276,1.122-4.435,2.484-6.638,3.753c-1.405,0.809-2.852,1.563-4.176,2.49
	c-1.573,1.101-3.309,1.613-5.164,1.866c-1.121,0.153-2.115-0.289-2.664-1.146c-0.838-1.311-1.678-2.72-2.059-4.206
	c-1.094-4.255-1.997-8.552-3.625-12.66c-1.129-2.847-2.35-5.641-4.199-8.089c-1.193-1.581-2.54-3.054-3.9-4.498
	c-0.944-1.003-2.217-1.532-3.564-1.729c-2.016-0.296-3.418,0.715-3.764,2.604c-0.207,1.128,0.02,2.204,0.38,3.275
	c0.339,1.008,0.726,2.021,0.9,3.062c0.954,5.696,1.208,11.416,0.44,17.161c-0.525,3.924-0.657,7.842,0.082,11.765
	c0.176,0.93,0.359,1.945-0.543,2.981c-1.096,0.256-2.26,0.561-3.437,0.799c-2.852,0.577-5.733,0.314-8.593,0.147
	c-4.398-0.256-8.55,0.747-12.64,2.172c-1.397,0.487-2.813,0.948-4.156,1.564c-1.759,0.807-3.522,1.644-5.151,2.677
	c-1.55,0.985-1.953,2.682-1.806,4.412c0.104,1.228,0.952,2.162,2.065,2.575c1.201,0.447,2.482,0.606,3.824,0.375
	c2.272-0.391,4.553-0.921,6.884-0.653c4.382,0.504,8.686,1.327,12.78,3.075c1.483,0.633,3.062,1.045,4.609,1.521
	c2.453,0.755,4.03,2.3,4.688,4.831c0.45,1.731,0.168,3.383-0.148,5.075c-0.304,1.632-0.592,3.28-0.704,4.933
	c-0.206,3.073,0.543,6.074,0.878,9.107c0.287,2.621,0.537,5.25,0.656,7.881c0.037,0.828-0.34,1.701-0.64,2.512
	c-0.509,1.376-1.498,2.419-2.514,3.454c-1.603,1.629-1.464,4.411,0.25,5.466c1.217,0.75,2.563,1.125,3.99,0.764
	c1.119-0.282,2.242-0.607,3.298-1.063c0.836-0.361,1.654-0.858,2.338-1.457c2.902-2.546,4.945-5.815,6.744-9.123
	c1.527-2.809,2.439-5.993,3.326-9.095c0.67-2.34,0.898-4.811,1.265-7.232c0.173-1.14,0.144-2.31,0.319-3.449
	c0.354-2.296,1.611-3.901,3.871-4.599c1.27-0.392,2.504-0.279,3.504,0.691c0.663,0.643,1.338,1.308,1.846,2.07
	c2.299,3.449,5.494,5.92,8.988,7.948c2.427,1.408,5.074,2.48,7.707,3.48c4.864,1.846,9.846,2.034,14.869,0.594
	c2.672-0.766,4.01-2.759,3.789-5.479c-0.107-1.306-0.537-2.084-2.318-2.5c-0.49-0.114-1.016-0.067-1.522-0.12
	c-1.104-0.117-2.22-0.181-3.307-0.392c-2.13-0.413-3.899-1.454-4.937-3.421c-1.463-2.776-2.909-5.564-4.232-8.409
	c-0.855-1.838-1.456-3.794-2.209-5.682c-0.987-2.472-2.617-4.454-4.745-6.034c-0.474-0.351-0.958-0.685-1.451-1.036
	c0.883-3.244,2.656-5.857,4.945-8.131C128.818,91.329,130.83,89.413,132.898,87.563z"/>
<path fill-rule="evenodd" clip-rule="evenodd" fill="#de4555" class="fill" d="M118.174,125.548c-0.377-0.289-0.732-0.562-1.041-0.798
	c0.037-0.788,0.07-1.467,0.098-2.063c-0.836-0.818-1.71-0.943-2.699-0.597c-0.238-0.354-0.436-0.647-0.651-0.968
	c0.333-0.506,0.634-0.963,0.917-1.391c-0.279-1.785-0.531-1.916-3.768-1.961c-0.138-0.399-0.285-0.828-0.431-1.257
	c-0.288-0.853-0.798-1.452-1.75-1.57c-0.913-0.113-1.502,0.311-1.894,1.095c-0.061,0.121-0.164,0.22-0.326,0.43
	c-0.343-0.39-0.663-0.753-1.046-1.186c-0.428-0.184-0.935-0.401-1.413-0.605c-1.273,0.508-1.697,1.592-2.117,2.739
	c-0.598,0.037-1.186,0.074-1.731,0.107c-1.666,1.458-1.707,2.364-0.208,3.934c0,0.125,0.02,0.266-0.005,0.398
	c-0.024,0.131-0.093,0.255-0.153,0.415c-0.857,0.395-1.904,0.66-2.02,1.835c-0.104,1.05,0.856,1.317,1.612,1.874
	c-0.07,0.391-0.148,0.826-0.218,1.212c-2.038,0.703-2.18,0.858-2.242,2.521c0.393,0.305,0.855,0.665,1.406,1.094
	c-0.046,0.271-0.105,0.616-0.156,0.913c-1.701,0.68-1.823,0.837-1.811,2.325c0.303,0.33,0.643,0.7,1.018,1.109
	c-0.067,0.299-0.111,0.62-0.215,0.919c-0.104,0.305-0.266,0.589-0.328,0.723c-0.627,0.559-1.13,1.007-1.629,1.451
	c0.161,0.575,0.284,1.01,0.371,1.319c-0.611,2.887-1.916,5.375-3.551,7.606c-1.596,2.18-3.25,4.442-5.924,5.518
	c-0.725,0.292-1.476,0.567-2.241,0.696c-0.998,0.168-1.896-0.371-2.293-1.205c-0.419-0.879-0.361-1.64,0.49-2.373
	c1.426-1.227,2.251-2.85,2.909-4.498c0.42-1.05,0.359-2.345,0.303-3.52c-0.096-2.022-0.355-4.036-0.546-6.045
	c1.59-1.76,1.436-2.864-0.584-3.891c-0.044-0.329-0.092-0.691-0.124-0.93c0.428-0.893,0.799-1.672,1.217-2.549
	c-0.525-0.371-0.969-0.682-1.521-1.072c0.058-0.767,0.121-1.616,0.164-2.184c0.986-0.713,1.717-1.241,2.492-1.801
	c-0.181-0.669-0.322-1.19-0.453-1.678c-0.441-0.304-0.818-0.563-1.174-0.808c-0.223-0.841,0.231-1.208,0.863-1.544
	c0.523-0.278,0.978-0.686,1.414-1.002c0.087-1.61-0.244-2.072-1.825-2.585c-0.074-0.224-0.159-0.481-0.264-0.799
	c0.405-0.326,0.791-0.638,1.163-0.938c0.497-1.45,0.193-2.802-0.785-3.538c-1.023-0.771-2.27-0.689-3.77,0.275
	c-0.178-0.07-0.387-0.153-0.684-0.27c0.445-1.449,0.792-2.896-1.206-3.471c-0.729,0.18-0.729,0.18-2.21,1.552
	c-1.321-0.137-0.565-1.328-1.01-2.002c-1.203-1.133-1.608-1.085-3.32,0.531c-0.568-0.121-1.196-0.254-1.822-0.387
	c0.037-0.062,0.075-0.125,0.113-0.187c-0.699-0.538-1.396-1.077-2.089-1.612c-0.601,0.349-1.032,0.6-1.525,0.888
	c-0.535-0.103-1.122-0.215-1.741-0.333c-0.552-0.641-0.951-1.535-2.271-1.396c-0.311,0.193-0.815,0.506-1.477,0.915
	c-3.659,0.004-7.5,0.01-11.085,0.995c-1.382-1.049-1.638-2.542-0.644-3.898c0.527-0.72,1.266-1.411,2.062-1.784
	c2.341-1.098,4.76-2.029,7.009-2.968c2.688,1.025,3.63,0.748,4.307-1.188c0.46-0.094,0.95-0.194,1.414-0.289
	c1.564,1.352,1.564,1.352,3.137,1.167c0.343-0.466,0.767-1.042,1.261-1.713c0.233,0,0.594,0,0.924,0
	c0.09,0.099,0.204,0.167,0.202,0.23c-0.031,1.04,0.592,1.606,1.441,2.001c1.089,0.504,2.038,0.047,2.339-1.12
	c0.066-0.262,0.108-0.53,0.177-0.867c0.438,0,0.832,0,1.22,0c0.311,1.462,1.429,2.576,2.601,2.617
	c1.478,0.052,2.104-0.651,2.673-3.06c0.301-0.089,0.643-0.19,0.989-0.292c0.44,0.331,0.817,0.675,1.25,0.926
	c1.048,0.608,2.237,0.975,3.28,0.243c1.064-0.749,1.088-1.957,0.667-3.269c-0.373-0.269-0.819-0.589-1.363-0.981
	c-0.037-0.5-0.081-1.084-0.128-1.727c1.244-0.258,2.588-0.278,2.948-1.747c0.269-1.093,0.064-2.108-0.832-2.998
	c-0.796,0-1.614,0-2.504,0c-0.064-0.47-0.118-0.864-0.186-1.344c1.383-0.146,1.997-1.069,2.497-2.249
	c-0.146-0.437-0.303-0.907-0.48-1.439c-0.615,0-1.149,0-1.773,0c0.045-0.407,0.077-0.707,0.112-1.022
	c0.427-0.173,0.808-0.328,1.213-0.492c0.198-0.474,0.395-0.941,0.663-1.582c-0.438-0.369-0.9-0.76-1.561-1.318
	c0.021-0.369,0.061-0.995,0.092-1.516c0.648-0.513,1.206-0.954,1.636-1.295c0.298-1.486-0.505-2.08-1.386-2.501
	c-0.234-2.432-0.434-4.777-0.692-7.115c-0.225-2.027-0.544-4.031-1.297-5.958c-0.55-1.405-0.556-2.804,0.649-3.852
	c1.984-0.047,3.306,0.861,4.556,2.173c1.808,1.899,3.28,3.998,4.528,6.235c-1.062,1.769-0.779,2.356,1.473,3.061
	c0.141,0.362,0.303,0.781,0.533,1.381c-0.355,0.224-0.707,0.446-0.953,0.601c0.123,1.534,0.191,1.611,1.922,2.256
	c0.111,0.259,0.252,0.587,0.399,0.934c-0.518,0.616-1.397,1.14-0.812,2.015c0.387,0.576,1.048,0.967,1.743,1.318
	c0.121,0.484,0.243,0.968,0.372,1.485c-0.746,0.626-1.559,1.157-1.51,2.246c0.322,1.062,1.387,0.908,2.188,1.279
	c0.062,0.245,0.129,0.508,0.123,0.485c-0.352,1.074-0.758,1.874-0.852,2.708c-0.149,1.333,0.361,1.829,1.712,2.005
	c0.571,0.075,1.252-0.114,1.564,0.63c0.007,0.081,0.04,0.178,0.019,0.259c-0.571,2.062,0.228,3.402,2.303,3.908
	c0.924,0.225,1.826,0.298,2.977-0.256c0.358-0.729,0.818-1.668,1.367-2.785c0.391-0.114,1.006-0.293,1.61-0.469
	c2.994,1.364,3.978,0.82,4.608-2.635c0.283,0,0.6-0.053,0.893,0.008c1.917,0.401,2.561-0.056,2.741-2.046
	c0.217-0.161,0.47-0.349,0.757-0.561c0.442,0.159,0.87,0.313,1.404,0.504c0.387-0.169,0.844-0.369,1.285-0.562
	c0.171-0.649,0.322-1.227,0.494-1.882c0.52-0.232,1.062-0.473,1.643-0.732c0.337,0.276,0.65,0.533,0.979,0.801
	c1.761,0.379,1.669-1.406,2.427-2.218c0.444,0.299,0.816,0.549,1.351,0.908c0.533-0.456,1.068-0.915,1.604-1.373
	c-0.03-0.104-0.061-0.209-0.091-0.313c1.563-0.001,3.162-0.211,4.683,0.042c2.923,0.486,5.77,1.338,8.479,2.583
	c0.21,0.097,0.425,0.185,0.627,0.297c0.581,0.321,0.905,0.792,0.783,1.481c-0.113,0.638-0.579,0.955-1.151,1.059
	c-0.772,0.139-1.574,0.126-2.338,0.295c-1.576,0.349-3.135,0.774-4.599,1.143c-1.716-0.608-1.716-0.608-2.714,0.054
	c-0.014,0.191-0.059,0.419-0.041,0.642c0.018,0.218,0.102,0.429,0.148,0.617c-0.168,0.145-0.263,0.25-0.379,0.32
	c-0.277,0.166-0.565,0.315-0.856,0.475c-0.626-0.134-1.248-0.267-1.632-0.349c-1.887,0.445-1.262,2.396-2.373,3.235
	c-0.858-0.397-1.676-0.903-2.75-0.48c-0.15,0.359-0.325,0.774-0.506,1.202c0.252,0.54,0.482,1.038,0.747,1.609
	c-0.239,0.285-0.493,0.586-0.794,0.943c-0.581-0.44-1.09-0.825-1.743-1.32c-0.512,0.11-1.113,0.241-1.802,0.391
	c0,0.871,0,1.593,0,2.382c0.337,0.363,0.71,0.763,1.145,1.229c-0.253,0.35-0.484,0.671-0.729,1.009
	c-0.653-0.285-1.234-0.538-1.734-0.755c-2.727,0.803-2.957,1.594-1.428,4.377c-0.896,0.502-1.809,0.973-2.675,1.518
	c-0.337,0.212-0.638,0.55-0.839,0.898c-0.871,1.511-0.328,2.77,1.391,3.102c0.649,0.125,1.354-0.012,2.031-0.054
	c0.468-0.028,0.935-0.098,1.722-0.184c-0.859,1.331-1.128,2.402-0.007,3.343c1.094,0.917,2.253,0.973,3.529,0.201
	c0.199,0.243,0.391,0.477,0.597,0.728c-0.545,1.026-1.104,2.009-0.756,3.217c0.546,0.954,1.483,1.294,2.573,1.437
	c0.117,0.304,0.23,0.598,0.321,0.83c-0.347,0.626-0.658,1.187-0.937,1.689c0.531,1.246,0.531,1.246,2.34,1.515
	c0.114,0.189,0.252,0.42,0.392,0.651c-1.064,1.917-1.078,3.337,1.649,3.479c0.225,0.447,0.451,0.899,0.707,1.408
	c-0.032,0.235-0.087,0.502-0.102,0.772c-0.059,1.042,0.268,1.521,1.225,1.92c0.328,0.136,0.702,0.278,0.924,0.532
	c1.83,2.098,4.24,2.886,6.902,3.115c0.921,0.08,1.849,0.089,2.768,0.187c0.484,0.051,0.956,0.223,1.363,0.324
	c0.467,1.927,0.136,2.739-1.408,3.587c-1.852,1.018-3.898,1.168-5.938,1.174c-2.564,0.006-8.5-1.52-11.043-2.712
	c-0.059-0.463-0.119-0.955-0.175-1.399c-1.292-0.795-1.396-0.794-3.276,0.027c-0.444-0.219-0.971-0.479-1.48-0.73
	c-0.068-0.966,0.248-1.946-0.675-2.618C119.898,124.659,119.064,125.104,118.174,125.548z M107.834,111.964
	c2.763-0.538,4.473-2.599,3.951-4.904c-0.82-0.255-1.725-0.537-2.496-0.777C106.207,108.031,105.615,110.488,107.834,111.964z
	 M99.244,107.399c-1.074-1.47-2.681-1.595-3.894-0.361c-0.38,0.387-0.811,0.726-1.374,1.226c-0.057,0.242-0.158,0.678-0.264,1.134
	c1.281,1.387,2.684,2.183,4.526,1.843C99.242,110.053,99.106,108.675,99.244,107.399z M102.347,103.573
	c-0.488,1.028-0.938,1.973-1.393,2.93c0.411,1.191,1.294,1.878,2.313,2.447c1.275-0.174,2.18-0.75,2.541-2.02
	c0.34-1.193,0.447-2.343-0.595-3.357C104.309,103.573,103.396,103.573,102.347,103.573z M86.654,107.872
	c-0.463,3.367,1.872,5.282,4.854,4.078c0.11-0.273,0.243-0.606,0.342-0.853c-0.47-1.92-1.688-3.105-3.398-4.173
	C87.874,107.229,87.217,107.576,86.654,107.872z M87.09,128.631c1.562,1.972,4.559,2.194,6.271,0.526
	c0.023-1.496-0.447-2.172-1.819-2.477c-0.99-0.22-1.997-0.361-2.935-0.527C87.283,126.854,87.141,127.089,87.09,128.631z
	 M90.186,114.917c-0.486,1.596,0.076,3.044,1.403,3.237c1.069,0.155,2.196-0.003,3.288-0.116c0.676-0.07,1.02-0.584,1.062-1.257
	c0.042-0.665-0.011-1.323-0.673-1.694C93.592,114.146,91.888,114.01,90.186,114.917z M104.756,93.654
	c-0.713-1.698-1.394-2.06-3.07-1.642c-0.223,0.056-0.452,0.081-0.676,0.132c-1.216,0.273-1.68,0.874-1.581,2.037
	c0.128,1.503,0.553,1.971,1.868,2.062C103.88,96.42,104.191,96.186,104.756,93.654z M92.772,97.366
	c-2.315-2.106-4.435-1.45-5.343,1.538c0.485,1.751,1.292,2.182,2.918,1.561c0.343-0.131,0.686-0.271,1.04-0.367
	c0.81-0.221,1.425-0.64,1.659-1.609C92.974,98.188,92.875,97.788,92.772,97.366z M110.9,100.16
	c-1.348-0.436-3.205,0.313-3.646,1.482c-0.357,0.949-0.31,1.915,0.367,2.743c0.609,0.747,1.33,0.871,2.508,0.439
	c0.422-0.154,0.811-0.397,1.146-0.565C111.924,102.759,111.732,101.462,110.9,100.16z M99.07,113.809
	c1.99,1.839,4.402,1.553,5.619-0.612c-0.526-2.103-1.421-2.675-3.635-2.329C99.742,111.074,99.03,112.101,99.07,113.809z
	 M110.701,97.297c1.205-1.45,0.596-2.724-0.167-4.017c-0.78-1.324-1.934-0.981-3.056-0.785c-0.877,0.987-0.942,2.331-0.19,3.565
	C107.986,97.209,109.217,97.669,110.701,97.297z M94.005,122.994c-0.094-1.386-0.235-1.702-1.029-1.981
	c-0.735-0.258-1.488-0.508-2.255-0.628c-1.195-0.187-2.227,0.246-3.142,1.003c0.401,1.829,1.774,2.315,3.249,2.646
	C92.114,124.324,93.148,123.845,94.005,122.994z M70.354,98.626c-2.158-0.412-3.047,0.837-3.285,2.739
	c-0.205,1.646,1.168,2.579,2.703,1.97C71.569,102.622,71.873,100.167,70.354,98.626z M118.561,84.438
	c-1.064-0.153-1.884,0.428-2.685,0.966c-0.37,2.519,0.912,4.322,2.877,4.128C120.329,87.965,120.277,86.281,118.561,84.438z
	 M74.758,99.354c-1.374,0.783-1.445,2.008-1.729,3.104c-0.447,1.727,0.082,2.356,1.926,2.387c1.947-1.447,2.273-2.718,1.293-5.265
	C75.758,99.505,75.221,99.424,74.758,99.354z M80.51,105.721c1.515-0.746,1.91-2.02,1.863-3.551
	c-0.035-1.185-0.617-1.877-1.787-2.136c-1.457,0.276-1.712,1.451-1.963,2.65C78.269,104.372,78.672,105.081,80.51,105.721z
	 M94.308,98.425c1.021,1.639,1.769,2.073,3.16,1.642c0.9-0.28,1.731-0.78,2.675-1.219c-0.145-0.629-0.275-1.196-0.389-1.683
	C97.979,95.776,95.304,96.411,94.308,98.425z M114.176,109.98c-0.501,0.475-1.051,0.858-1.416,1.373
	c-0.479,0.675-0.824,1.47-0.411,2.319c0.404,0.83,1.159,0.962,1.996,0.878c0.27-0.026,0.544-0.004,0.938-0.004
	c0.52-0.674,1.044-1.356,1.55-2.013c-0.026-0.541-0.047-0.994-0.068-1.43C116.03,110.433,115.326,109.867,114.176,109.98z
	 M114.707,93.472c1.208-1.355,1.237-3.395,0.185-4.508c-1.134-1.198-2.55-0.847-3.537,0.985
	C112.338,91.171,112.406,93.299,114.707,93.472z M106.158,100.508c-0.216-2.472-1.74-3.728-3.859-3.39
	c-0.336,0.464-0.702,0.973-1.061,1.469c0.74,1.56,1.961,2.48,3.49,3.387C105.249,101.44,105.734,100.943,106.158,100.508z
	 M91.63,105.905c0.573,0.681,1.296,1.008,2.187,0.696c0.842-0.295,1.141-1.01,1.238-1.831c0.049-0.411,0.115-0.825,0.109-1.235
	c-0.014-0.9-0.325-1.617-1.289-1.847C91.797,102.179,91.045,103.591,91.63,105.905z M63.507,103.607
	c1.423-1.609,1.56-2.773,0.536-4.195c-1.655-0.53-1.655-0.53-2.473-0.325C60.114,101.657,60.812,103.353,63.507,103.607z
	 M98.496,100.567c-0.334,0.208-0.75,0.412-1.101,0.698c-0.606,0.495-0.981,1.137-0.727,1.939c0.265,0.831,0.927,1.248,1.761,1.35
	c1.494,0.183,2.596-0.66,2.948-2.215C100.869,101.086,99.71,100.877,98.496,100.567z M89.616,82.831
	c0.384,1.084,0.954,1.61,1.982,1.454c1.257-0.191,2.508-0.543,3.443-1.483c-0.473-1.504-0.826-1.914-1.689-2.006
	C91.746,80.623,90.417,81.347,89.616,82.831z M92.66,93.46c1.766,1.576,3.519,1.348,4.901-0.604
	c-0.18-1.079-0.884-1.758-1.731-2.354C94.271,90.947,92.64,91.228,92.66,93.46z M94.133,76.835
	c-0.197-0.154-0.412-0.329-0.635-0.493c-1.151-0.849-2.951-0.602-3.84,0.523c-0.776,0.985-0.336,2.236,0.91,2.385
	c0.719,0.085,1.49,0.034,2.196-0.133C94.019,78.818,94.307,78.26,94.133,76.835z M87.135,133.632
	c0.084,1.083,0.729,1.542,1.611,1.724c1.094,0.226,2.22,0.422,3.182-0.354c0.49-0.395,0.516-0.957,0.145-1.491
	C90.907,131.836,88.355,131.874,87.135,133.632z M91.284,87.684c0.489,1.214,1.151,1.655,2.192,1.509
	c1.553-0.217,2.42-1.087,2.55-2.558C94.052,84.838,92.289,85.202,91.284,87.684z M120.176,113.975
	c-1.466-0.427-2.512,0.161-3.404,1.112c-0.611,0.652-0.683,1.577-0.241,2.141c0.451,0.577,1.562,0.818,2.256,0.348
	c0.554-0.376,1.02-0.908,1.446-1.435C120.785,115.459,120.818,114.725,120.176,113.975z M127.551,122.632
	c-0.057-0.316-0.088-0.687-0.191-1.036c-0.335-1.131-1.353-1.463-2.246-0.709c-0.456,0.384-0.879,0.829-1.234,1.308
	c-0.524,0.709-0.735,1.489-0.178,2.284C125.24,125.227,126.467,124.644,127.551,122.632z M122.801,81.596
	c-1.502,0.653-1.922,1.566-1.418,2.966c0.444,1.235,1.412,1.688,2.851,1.333C125.317,84.039,124.75,82.262,122.801,81.596z
	 M124.318,118.761c-0.402-1.083-0.902-1.594-1.643-1.597c-1.558-0.005-2.162,1.182-2.801,2.268
	c-0.003,0.952,0.456,1.417,1.368,1.562c0.565-0.184,1.177-0.384,1.865-0.608C123.484,119.881,123.894,119.332,124.318,118.761z
	 M87.71,102.608c-1.023-0.962-1.986-0.608-2.888-0.281c-0.709,0.257-1.19,1.157-1.094,1.781c0.104,0.667,0.529,1.072,1.154,1.253
	c1.378,0.398,2.648-0.259,3.228-1.681C87.979,103.325,87.834,102.938,87.71,102.608z M93.649,71.947
	c-0.72-1.458-2.669-1.873-3.945-0.825c-0.479,0.393-0.991,0.913-0.641,1.524c0.264,0.46,0.827,0.898,1.341,1.04
	C91.674,74.036,92.883,73.317,93.649,71.947z M130.129,127.883c1.611-1.286,1.798-1.979,0.812-3.596
	c-0.566,0.055-1.225,0.118-2.011,0.193c-0.445,0.633-0.902,1.283-1.292,1.836C128.316,127.903,128.549,128.035,130.129,127.883z
	 M92.091,66.146c-2.826-0.441-3.571,0.028-3.538,2.137c0.456,0.236,0.969,0.501,1.533,0.793c0.779-0.321,1.516-0.624,2.314-0.953
	C92.28,67.357,92.186,66.75,92.091,66.146z M87.312,62.5c1.019,1.505,2.606,1.638,4.019,0.076c-0.211-0.514-0.448-1.087-0.641-1.555
	c-1.349-0.404-1.349-0.404-3.083,0.294C87.516,61.684,87.4,62.147,87.312,62.5z M91.865,139.423
	c-0.559-0.499-1.043-1.058-1.641-1.432c-0.613-0.385-1.261-0.158-1.768,0.342c-0.461,0.454-0.676,1.013-0.461,1.645
	c0.228,0.668,0.789,0.875,1.438,0.861c0.592-0.013,1.185-0.068,1.834-0.108C91.458,140.314,91.623,139.953,91.865,139.423z
	 M128.986,80.262c-0.723-0.341-1.369-0.784-2.096-0.236c-0.82,2.051-0.244,3.301,1.599,3.411
	C129.492,82.561,129.522,81.504,128.986,80.262z M87.26,144.699c1.195,1.289,2.025,1.334,3.301,0.246
	c0.07-0.415,0.146-0.865,0.234-1.388c-0.3-0.258-0.607-0.521-0.869-0.747c-0.982-0.026-1.857-0.002-2.551,0.841
	C87.342,143.946,87.303,144.307,87.26,144.699z M133.061,77.507c-0.812,0.361-1.42,0.63-1.919,0.852
	c-0.397,1.938-0.031,2.757,1.401,3.155c0.389-0.554,0.806-1.146,1.275-1.814C133.578,79.002,133.348,78.336,133.061,77.507z
	 M56.179,102.898c0.501,0.108,1.012,0.219,1.454,0.314c1.007-1.292,1.007-1.292,0.852-2.568c-0.473-0.127-0.988-0.266-1.42-0.381
	C55.696,101.214,55.647,101.348,56.179,102.898z M137.517,77.382c-0.772-0.311-1.467-0.273-1.985,0.473
	c0.041,1.475,0.041,1.475,1.094,1.852C137.807,79.019,137.918,78.742,137.517,77.382z M135.132,128.696
	c-0.423-0.737-0.895-1.312-1.766-1.342c-0.784,0.359-0.821,0.966-0.556,1.614c0.246,0.603,0.801,0.734,1.954,0.534
	C134.875,129.259,135.002,128.98,135.132,128.696z"/>
</svg>
