<svg version="1.1" id="svg" xmlns="http://www.w3.org/2000/svg" xmlns:xlink="http://www.w3.org/1999/xlink" x="0px" y="0px"
	 width="200px" height="200px" viewBox="0 0 200 200" enable-background="new 0 0 200 200" xml:space="preserve">
<path class="stroke" fill="#693c11"  fill-rule="evenodd" clip-rule="evenodd" d="M56.501,113.672c-1.054-0.895-2.04-1.708-2.997-2.554
	c-0.517-0.457-0.983-0.969-1.46-1.444c0.352-1.49,0.632-2.832,0.992-4.152c0.427-1.564,1-3.091,1.369-4.667
	c0.406-1.736,0.599-3.522,0.992-5.261c0.228-1.003,0.623-1.978,1.03-2.927c0.274-0.641,0.898-0.777,1.571-0.8
	c1.579-0.055,3.155-0.157,4.733-0.247c0.158-0.01,0.313-0.071,0.588-0.137c0.25-2.469,0.495-4.938,0.75-7.407
	c0.092-0.899,0.209-1.797,0.313-2.695c0.071-0.619,0.168-1.237,0.202-1.857c0.068-1.24,0.472-1.854,1.604-2.238
	c3.204-1.085,6.464-1.888,9.872-1.99c1.371-0.041,2.754-0.078,4.106-0.284c1.924-0.292,3.361,0.524,4.751,1.683
	c0.757,0.631,1.645,1.103,2.455,1.671c1.052,0.738,2.132,1.447,3.117,2.268c1.458,1.215,1.411,2.875,1.233,4.586
	c-0.184,1.775-0.262,3.563-0.346,5.348c-0.019,0.403,0.133,0.812,0.207,1.229c2.447,1.601,5.492,1.841,8.024,3.811
	c0.65,2.392,1.355,4.989,2.108,7.76c0.839-0.666,1.615-1.247,2.354-1.874c3.97-3.368,8.113-6.503,12.408-9.449
	c2.677-1.836,5.262-3.797,8.167-5.288c3.163-1.623,6.513-2.739,9.851-3.913c1.957-0.688,3.885-1.479,5.765-2.354
	c1.92-0.895,3.754-1.975,5.648-2.927c2.26-1.136,4.742-1.502,7.187-2.005c3.312-0.682,6.624-0.444,9.942-0.116
	c1.397,0.137,2.795,0.273,4.01,0.391c1.036,0.911,1.082,1.877,0.649,2.781c-1.04,2.174-2.49,4.034-4.623,5.26
	c-3.39,1.949-7.104,2.812-10.957,3.069c-3.027,0.202-6.067,0.225-9.101,0.344c-2.717,0.106-5.379,0.581-7.964,1.401
	c-2.217,0.704-4.419,1.472-6.581,2.328c-4.274,1.694-8.305,3.836-11.798,6.877c-1.38,1.201-2.7,2.47-4.063,3.691
	c-0.522,0.467-1.087,0.885-1.772,1.438c-0.073,0.109-0.216,0.421-0.446,0.641c-3.32,3.168-6.299,6.637-9.105,10.26
	c-2.342,3.025-5.06,5.673-8.429,7.5c-2.146,1.164-4.452,2.052-6.735,2.937c-3.139,1.219-6.441,1.528-9.791,1.65
	c-2.344,0.086-4.646,0.051-6.934-0.486c-2.522-0.592-4.895-1.532-7.173-2.78c-1.761-0.966-3.449-2.011-4.946-3.345
	c-0.493-0.438-0.963-0.918-1.372-1.435c-1.009-1.276-0.992-2.162-0.004-3.492C56.05,114.273,56.198,114.077,56.501,113.672z
	 M158.292,83.714c0.453-0.188,0.909-0.367,1.359-0.563c0.453-0.197,0.949-0.342,1.339-0.627c1.003-0.734,1.985-1.504,2.926-2.318
	c0.946-0.82,1.7-1.801,2.239-3.149c-0.711-0.162-1.351-0.307-2.178-0.496c0.241,0.64,0.398,1.056,0.58,1.539
	c-1.057,1.656-2.329,3.086-4.088,4.034c-0.583,0.313-1.192,0.582-1.751,0.932c-0.2,0.124-0.287,0.428-0.426,0.65
	c-0.557-0.175-1.107-0.31-1.69,0.364C157.281,83.932,157.787,83.823,158.292,83.714z M69.676,122.769
	c3.101,1.417,6.376,1.136,9.631,1.045c0.041-0.001,0.081-0.021,0.121-0.03c2.41-0.615,4.804-1.307,7.234-1.83
	c5.312-1.143,9.504-3.995,12.858-8.187c0.16-0.201,0.271-0.44,0.406-0.663c-4.624,2.788-9.143,5.647-14.311,7.234
	C80.429,121.931,75.148,122.885,69.676,122.769z M152.782,84.805c0-0.118,0.001-0.236,0.002-0.354c-2.57,0-5.142,0.06-7.71-0.015
	c-3.19-0.095-6.283,0.41-9.347,1.226c-4.064,1.081-7.995,2.529-11.799,4.312c-1.126,0.527-2.267,1.083-3.266,1.811
	c-2.55,1.856-5.015,3.832-7.534,5.732c-1.415,1.066-2.535,2.382-3.472,3.866c-0.104,0.167-0.13,0.382-0.191,0.575
	c0.08,0.057,0.161,0.115,0.241,0.171c1.239-1.21,2.509-2.391,3.71-3.637c1.854-1.921,3.709-3.85,6.056-5.164
	c3.334-1.868,6.711-3.649,10.324-4.961c3.765-1.366,7.62-2.401,11.56-3.01c2.285-0.353,4.645-0.214,6.971-0.313
	C149.812,84.98,151.297,84.886,152.782,84.805z"/>
<path fill-rule="evenodd" clip-rule="evenodd" fill="#faf0e5" class="fill" d="M64.405,94.619c0.082,0.005,0.174-0.011,0.242,0.022
	c0.107,0.053,0.198,0.139,0.386,0.277c-0.241,0.229-0.456,0.432-0.676,0.641c0.57,0.441,0.57,0.441,1.556,0.075
	c-0.048,0.341-0.09,0.633-0.146,1.024c0.425,0.034,0.779,0.062,1.192,0.097c0.301,0.263,0.643,0.562,0.991,0.867
	c-0.177,0.218-0.328,0.406-0.552,0.686c1.483,0.479,3.023,0.413,4.37,1.176c1.26,0.715,2.645,1.213,4.054,1.842
	c0.097-0.279,0.169-0.489,0.271-0.778c0.28,0.115,0.567,0.232,0.854,0.351c-0.008-0.054-0.016-0.106-0.023-0.16
	c1.447-0.215,2.894-0.43,4.522-0.672c0.085,0.522,0.274,0.999,0.215,1.442c-0.271,2.014-0.527,4.018-1.35,5.933
	c-0.566,1.318-0.82,2.778-1.142,4.191c-0.337,1.486-0.59,2.99-0.893,4.559c-4.551,1.752-9.46,0.971-14.277,1.702
	c0-0.287,0-0.579,0-1.011c-0.553-0.244-1.162-0.513-1.851-0.816c-0.275,0.128-0.601,0.281-1.049,0.491
	c-0.867-1.018-1.749-2.051-2.633-3.09c0.282-0.22,0.567-0.437,1.093-0.835c-0.577,0-0.832,0-1.168,0
	c0.034,0.317,0.063,0.587,0.093,0.855c-0.667-0.621-1.333-1.244-2.019-1.884c0.234-0.381,0.409-0.665,0.688-1.119
	c-0.549,0.041-0.896,0.067-1.321,0.099c-0.665-0.486-1.761-0.568-1.983-1.751c1.203,0.265,2.158,0.213,2.684-0.212
	c-0.85-0.144-1.611-0.273-2.434-0.412c0.09-0.307,0.169-0.573,0.257-0.874c0.418-0.023,0.813-0.044,1.249-0.069
	c0.049-0.924-0.623-0.555-1.09-0.618c0.163-0.931,0.315-1.804,0.446-2.553c0.504-0.382,1.18,0.344,1.383-0.582
	c-0.317-0.109-0.638-0.221-1.014-0.35c0.086-0.327,0.167-0.642,0.252-0.956c0.363-1.354,0.934-2.641,0.833-4.122
	c-0.045-0.672,0.427-1.378,0.648-2.024c0.412-0.159,0.737-0.283,1.24-0.477c-0.456-0.288-0.745-0.47-1.118-0.705
	c0.056-0.313,0.118-0.663,0.189-1.06c0.432,0,0.79,0,1.197,0c0,0.231,0,0.446,0,0.705c0.178,0.011,0.338,0.021,0.499,0.029
	c0.306,0.72,0.306,0.72,0.942,0.273c-0.384-0.098-0.678-0.172-0.973-0.248c0.301-0.508,0.604-1.018,0.999-1.683
	c0.49,0.214,1.003,0.438,1.504,0.658c0.345-0.308,0.662-0.591,1.082-0.967c0.164,0.429,0.245,0.644,0.245,0.642
	c0.626,0.57,1.1,0.998,1.569,1.424c-0.391-0.176-0.758-0.23-1.13,0.225C63.855,95.289,64.217,95.333,64.405,94.619z M67.686,101.357
	c-0.325,0.148-0.649,0.296-0.974,0.442c0.634,0.363,1.068,0.378,0.976-0.445c0.351,0.223,0.68,0.611,1.159,0.18
	C68.521,100.835,68.045,101.529,67.686,101.357z M58.214,99.734c0.32-0.101,0.641-0.202,1.048-0.33
	c-0.289-0.517-0.576-0.589-0.973-0.233c-0.024,0.199-0.049,0.393-0.075,0.58c-0.634-0.392-0.634-0.392-1.045,0.059
	C57.552,100.232,57.882,99.968,58.214,99.734z M63.842,111.695c0.123,0.574,0.181,0.845,0.192,0.901
	c-0.231,0.621-0.59,1.101-0.514,1.499c0.087,0.452-0.215,0.569-0.323,0.839c-0.041,0.102-0.006,0.232-0.006,0.495
	c0.359-0.025,0.681-0.048,0.916-0.064c0.157-0.961,0.286-1.746,0.411-2.515c0.172-0.203,0.347-0.41,0.652-0.773
	C64.708,111.944,64.395,111.854,63.842,111.695z M61.477,99.446c0.345-0.252,0.704-0.515,1.204-0.881
	c-1.576-0.226-2.293-0.194-2.602,0.117C60.515,98.92,60.936,99.151,61.477,99.446z M60.46,94.546
	c0.784,0.269,1.548,0.335,2.255-0.158C61.935,94.011,61.183,94.086,60.46,94.546z M56.259,101.809
	c0.426,0.366,1.349,0.717,1.714,0.608c0.127-0.037,0.196-0.268,0.292-0.41c-0.024-0.079-0.048-0.156-0.072-0.234
	C57.548,102.066,56.968,101.207,56.259,101.809z M58.434,106.53c0.588,0.457,1.571,0.262,2.17-0.36
	C59.767,105.761,59.147,106.421,58.434,106.53z M59.397,96.383c0.028,0.106,0.057,0.213,0.085,0.319
	c0.731,0.359,1.059-0.227,1.487-0.576c-0.035-0.089-0.068-0.178-0.102-0.268C60.378,96.034,59.888,96.208,59.397,96.383z
	 M61.915,107.621c0.505,0.381,0.837,0.397,1.115-0.219C62.467,107.228,62.467,107.228,61.915,107.621z M55.833,105.064
	c0.418,0.541,0.754,0.65,1.168,0.078C56.629,104.583,56.282,104.777,55.833,105.064z M64.373,97.292
	c0.43,0.307,0.754,0.384,1.119-0.204C65.043,96.73,64.735,96.852,64.373,97.292z M61.958,102.621
	c0.823,0.522,0.823,0.522,1.312-0.298C62.781,102.434,62.448,102.511,61.958,102.621z M62.55,100.055
	c0.438,0.322,0.781,0.665,1.112-0.079C63.269,99.564,62.946,99.569,62.55,100.055z M61.162,100.856
	c0.523,0.358,0.808,0.275,1.03-0.205C61.759,100.249,61.473,100.334,61.162,100.856z M73.997,109.675
	c-0.021-0.114-0.04-0.227-0.06-0.341c-0.312,0.054-0.626,0.107-1.09,0.187C73.383,110.177,73.701,110.098,73.997,109.675z
	 M58.773,110.187c0.519,0.277,0.519,0.277,1.055-0.003C59.448,109.721,59.134,109.736,58.773,110.187z M57.758,97.816
	c-0.291,0.054-0.58,0.106-1.017,0.186C57.25,98.604,57.553,98.646,57.758,97.816z M58.483,110.95
	c-0.496-0.348-0.775-0.217-1.078,0.186C57.837,111.401,58.166,111.595,58.483,110.95z M69.052,111.268
	c-0.44-0.471-0.727-0.311-1.06,0.047C68.331,111.827,68.627,111.763,69.052,111.268z M62.471,108.895
	c0.67,0.763,0.914,0.508,1.299-0.175C63.268,108.787,62.983,108.825,62.471,108.895z M66.722,97.327
	c-0.274,0.069-0.549,0.139-1.022,0.26C66.296,98.064,66.598,98.133,66.722,97.327z M63.541,111.595
	c-0.005-0.112-0.011-0.223-0.018-0.334c-0.335-0.275-0.625-0.245-1.015,0.334C62.964,111.595,63.252,111.595,63.541,111.595z
	 M69.602,115.671c-0.483-0.491-0.735-0.222-1.048,0.237C69.044,116.217,69.34,116.139,69.602,115.671z M57.713,104.277
	c0.464,0.386,0.776,0.458,1.097,0.003C58.498,103.736,58.181,103.874,57.713,104.277z M60.208,103.192
	c0.659,0.593,0.659,0.593,0.996-0.139C60.807,103.109,60.508,103.151,60.208,103.192z M61.55,105.352
	c-0.5-0.792-0.5-0.792-1.017-0.212C60.827,105.201,61.071,105.252,61.55,105.352z M64.917,102.02
	c-0.029-0.662-0.271-0.814-0.679-0.542c-0.055,0.037-0.067,0.138-0.15,0.325C64.379,101.878,64.648,101.949,64.917,102.02z
	 M62.172,104.673c0.377,0.677,0.674,0.655,0.995,0.319c0.041-0.042,0.017-0.145,0.03-0.319
	C62.913,104.673,62.635,104.673,62.172,104.673z M60.02,101.846c-0.028-0.119-0.056-0.238-0.084-0.357
	c-0.287,0.06-0.573,0.12-1.004,0.21C59.451,102.323,59.748,102.247,60.02,101.846z M56.447,106.229
	c0.623,0.526,0.623,0.526,1.054-0.125C57.05,106.157,56.749,106.193,56.447,106.229z M63.261,106.712
	c0.283,0.146,0.436,0.268,0.604,0.297c0.125,0.021,0.271-0.079,0.458-0.144C64.139,106.235,63.838,106.303,63.261,106.712z
	 M69.67,107.208c-0.252-0.724-0.543-0.726-0.891-0.403c-0.065,0.06-0.038,0.219-0.062,0.403
	C69.017,107.208,69.275,107.208,69.67,107.208z M60.486,108.898c0.531,0.328,0.861,0.448,1.17-0.059
	C61.284,108.296,60.967,108.494,60.486,108.898z M56.94,108.761c0.4,0.342,0.694,0.524,1.051,0.071
	C57.748,108.309,57.445,108.353,56.94,108.761z M78.773,107.958c-0.037-0.118-0.073-0.234-0.11-0.35
	c-0.241,0.089-0.482,0.178-0.855,0.317C78.33,108.354,78.594,108.361,78.773,107.958z M64.321,104.834
	c0.426,0.361,0.707,0.375,0.976-0.071C64.963,104.365,64.686,104.362,64.321,104.834z M74.062,104.352
	c0.373,0.57,0.627,0.753,0.969,0.338c0.039-0.047,0.005-0.15,0.005-0.338C74.777,104.352,74.51,104.352,74.062,104.352z
	 M79.03,102.708c0.273-0.041,0.547-0.082,0.999-0.149C79.539,101.998,79.261,102.037,79.03,102.708z M62.708,95.986
	c-0.375-0.662-0.656-0.653-0.966-0.296c-0.039,0.044-0.005,0.151-0.005,0.296C62.004,95.986,62.265,95.986,62.708,95.986z
	 M63.201,96.015c0.016,0.145,0.031,0.291,0.045,0.435c0.274-0.034,0.549-0.068,0.823-0.103c-0.01-0.125-0.021-0.25-0.031-0.375
	C63.759,95.986,63.48,96,63.201,96.015z M58.831,97.496c-0.448-0.793-0.715-0.553-1.125,0.094
	C58.225,97.546,58.528,97.521,58.831,97.496z M61.474,110.563c-0.27,0.065-0.539,0.13-1.033,0.248
	C61.048,111.251,61.351,111.377,61.474,110.563z M74.49,101.4c-0.489-0.584-0.762-0.649-1.042-0.241
	c-0.035,0.051-0.005,0.148-0.005,0.338C73.718,101.472,73.986,101.447,74.49,101.4z M60.774,112.007
	c-0.84-0.35-0.84-0.35-1.454,0.335C59.895,112.21,60.203,112.14,60.774,112.007z M59.962,113.62c0.491,0.538,0.491,0.538,0.914,0
	C60.521,113.62,60.242,113.62,59.962,113.62z M61.773,114.04c0.505,0.116,0.756,0.174,1.162,0.267
	c-0.114-0.357-0.168-0.525-0.25-0.778C62.407,113.684,62.216,113.792,61.773,114.04z M60.709,115.523
	c0.292-0.043,0.583-0.086,1.015-0.149C61.227,114.733,60.928,114.745,60.709,115.523z M72.258,101.718
	c-0.254-0.66-0.524-0.592-0.814-0.325c-0.045,0.042-0.027,0.153-0.053,0.325C71.646,101.718,71.889,101.718,72.258,101.718z
	 M63.667,103.617c0.269,0.446,0.546,0.588,0.927,0C64.188,103.617,63.927,103.617,63.667,103.617z M70.485,101.399
	c-0.242-0.584-0.51-0.523-0.798-0.266c-0.045,0.041-0.03,0.149-0.065,0.36C69.916,101.462,70.171,101.433,70.485,101.399z
	 M74.398,113.335c0.382,0.52,0.382,0.52,0.829,0.099C74.897,113.394,74.647,113.365,74.398,113.335z M65.732,107.445
	c-0.027-0.095-0.054-0.192-0.08-0.288c-0.197,0.057-0.394,0.113-0.591,0.172c0.026,0.091,0.051,0.184,0.077,0.276
	C65.335,107.552,65.533,107.499,65.732,107.445z M65.49,108.99c-0.008-0.084-0.015-0.168-0.022-0.251
	c-0.199,0.019-0.396,0.037-0.595,0.056c0.007,0.082,0.014,0.163,0.022,0.245C65.093,109.023,65.292,109.007,65.49,108.99z
	 M65.536,100.689c-0.005-0.099-0.011-0.199-0.017-0.298c-0.192,0.028-0.385,0.058-0.578,0.084c0.007,0.071,0.015,0.143,0.022,0.214
	C65.154,100.689,65.345,100.689,65.536,100.689z M65.705,101.143c0.008,0.106,0.017,0.211,0.025,0.317
	c0.204-0.035,0.407-0.069,0.611-0.104c-0.009-0.071-0.018-0.142-0.026-0.213C66.111,101.143,65.907,101.143,65.705,101.143z
	 M65.471,105.462c-0.002,0.097-0.003,0.195-0.004,0.292c0.188-0.026,0.376-0.053,0.564-0.079c-0.005-0.071-0.011-0.143-0.016-0.213
	C65.833,105.462,65.653,105.462,65.471,105.462z M66.249,104.15c-0.016-0.099-0.031-0.195-0.046-0.292
	c-0.14,0.035-0.28,0.073-0.42,0.108c0.01,0.068,0.021,0.136,0.031,0.206C65.959,104.165,66.104,104.157,66.249,104.15z
	 M62.379,97.681c0.036,0.102,0.071,0.202,0.107,0.304c0.14-0.076,0.279-0.152,0.418-0.229c-0.024-0.062-0.049-0.123-0.074-0.186
	C62.681,97.607,62.53,97.644,62.379,97.681z M63.956,99.25c0.003,0.093,0.006,0.186,0.008,0.279c0.18-0.037,0.361-0.074,0.541-0.111
	c-0.01-0.057-0.021-0.112-0.031-0.168C64.3,99.25,64.128,99.25,63.956,99.25z M63.767,98.754c0.007-0.068,0.013-0.137,0.02-0.205
	c-0.094-0.058-0.207-0.182-0.276-0.161c-0.124,0.038-0.223,0.163-0.473,0.366C63.408,98.754,63.587,98.754,63.767,98.754z
	 M61.386,96.918c0.019,0.085,0.037,0.17,0.056,0.256c0.166-0.038,0.329-0.077,0.494-0.115c-0.017-0.079-0.035-0.157-0.052-0.236
	C61.718,96.855,61.552,96.887,61.386,96.918z M65.979,102.814c-0.007,0.064-0.016,0.128-0.023,0.192
	c0.101,0.057,0.211,0.17,0.3,0.156c0.111-0.018,0.205-0.143,0.47-0.349C66.325,102.814,66.153,102.814,65.979,102.814z
	 M65.079,110.551c-0.053-0.095-0.105-0.189-0.159-0.283c-0.145,0.086-0.29,0.174-0.435,0.262c0.03,0.065,0.06,0.13,0.09,0.196
	C64.743,110.667,64.911,110.609,65.079,110.551z"/>
<path fill-rule="evenodd" clip-rule="evenodd" fill="#faf0e5" class="fill" d="M97.515,111.511c-1.707,0.552-3.426,1.047-5.097,1.671
	c-1.161,0.435-2.245,1.047-3.49,1.289c-0.967,0.188-1.908,0.521-2.851,0.818c-0.863,0.271-1.625-0.083-2.461-0.271
	c0.044-0.293,0.079-0.525,0.117-0.777c-0.764-0.561-0.98,0.072-1.216,0.602c-0.287-0.034-0.53-0.062-0.789-0.094
	c0.02-0.276,0.036-0.506,0.06-0.858c-0.408,0.037-0.757,0.068-1.123,0.102c-0.261-0.266-0.057-1.442,0.479-2.226
	c-0.17-0.122-0.366-0.261-0.571-0.407c-0.105-0.822,0.651-0.779,1.22-1.066c-0.184-0.258-0.329-0.462-0.433-0.608
	c0.116-0.504,0.23-1.001,0.361-1.575c0.189-0.111,0.466-0.272,0.792-0.462c-0.19-0.274-0.345-0.496-0.507-0.728
	c0.317-0.708,0.702-1.256,1.582-1.117c0.106-0.923-0.494-0.613-1.08-0.618c0.309-0.556,0.551-0.994,0.795-1.432
	c0.055,0.018,0.108,0.037,0.162,0.056c0-1.353,0-2.706,0-4.217c0.73-0.181,1.477-0.37,2.225-0.553
	c1.13-0.276,2.293-0.46,3.378-0.857c0.622-0.227,1.116-0.796,1.77-1.287c0.223,0,0.614,0,1.009,0
	c0.042-1.135-0.748-0.413-1.209-0.639c0.221-0.752,0.447-1.521,0.705-2.399c1.111,0.306,2.133,0.587,3.255,0.896
	c-0.016,0.237-0.031,0.458-0.048,0.706c0.484,0.649,0.817-0.044,1.312-0.245c0.049,0.262,0.089,0.473,0.158,0.835
	c0.367-0.039,0.75-0.078,1.223-0.128c0.771,1.508,1.461,3.101,1.678,4.911c0.125,1.05,0.616,2.054,0.93,3.083
	c0.547,1.791,0.843,3.611,0.743,5.558C99.066,109.506,98.425,110.704,97.515,111.511z M83.783,111.904
	c-0.738-0.761-1.401-0.844-1.977-0.199C82.497,111.706,83.044,112.321,83.783,111.904z M85.489,114.545
	c0.009-0.104,0.017-0.21,0.026-0.315c-0.221-0.105-0.455-0.317-0.662-0.294c-0.362,0.039-0.564,0.299-0.343,0.867
	C84.831,114.719,85.159,114.632,85.489,114.545z M84.187,112.885c0.517,0.483,0.85,0.392,1.144-0.211
	C84.81,112.235,84.501,112.434,84.187,112.885z M86.462,103.379c0.502,0.523,0.815,0.439,1.074-0.174
	C87.041,102.662,86.773,102.969,86.462,103.379z M82.095,109.215c0.03,0.124,0.062,0.247,0.092,0.371
	c0.406,0.292,0.66,0.157,0.947-0.573C82.653,109.107,82.374,109.162,82.095,109.215z M81.537,113.146
	c0.641,0.239,0.641,0.239,1.137-0.126C82.281,112.584,81.967,112.626,81.537,113.146z M89.049,111.784
	c-0.04-0.122-0.081-0.243-0.121-0.365c-0.283,0.094-0.563,0.188-0.953,0.318C88.544,112.371,88.818,112.188,89.049,111.784z
	 M92.36,95.858c0.028,0.105,0.058,0.21,0.087,0.315c0.403,0.199,0.729,0.213,0.887-0.572C92.917,95.711,92.638,95.785,92.36,95.858z
	 M85.583,107.562c0.044,0.12,0.089,0.238,0.134,0.357c0.274-0.102,0.549-0.205,0.988-0.369
	C86.083,107.093,85.782,107.121,85.583,107.562z M89.354,99.552c0.448,0.269,0.753,0.302,1.011-0.266
	C89.917,99.003,89.625,99.022,89.354,99.552z M93.361,109.068c0.394,0.505,0.672,0.325,1.004,0.001
	C93.97,108.549,93.688,108.688,93.361,109.068z M84.603,110.271c-0.393,0.14-0.647,0.231-1.125,0.402
	C84.171,111.082,84.491,111.167,84.603,110.271z M96.56,100.676c-0.339-0.67-0.615-0.553-1.078,0.084
	C95.994,100.72,96.277,100.699,96.56,100.676z M97.455,107.748c-0.274,0.064-0.549,0.13-0.965,0.228
	C97.023,108.579,97.292,108.471,97.455,107.748z M91.667,106.334c0.28-0.071,0.56-0.141,1.018-0.255
	C92.115,105.542,91.833,105.589,91.667,106.334z M83.292,107.291c0.522,0.369,0.522,0.369,0.734-0.188
	C83.734,107.177,83.513,107.234,83.292,107.291z M85.167,101.084c-0.237,0.177-0.416,0.311-0.84,0.626c0.536,0,0.761,0,1.08,0
	C85.312,101.464,85.26,101.329,85.167,101.084z M84.138,109.181c-0.001-0.107-0.003-0.213-0.005-0.319
	c-0.218,0.034-0.436,0.069-0.655,0.103c0.006,0.072,0.012,0.144,0.018,0.216C83.71,109.181,83.924,109.181,84.138,109.181z"/>
<path fill-rule="evenodd" clip-rule="evenodd" fill="#faf0e5" class="fill" d="M89.626,82.847c-0.173,4.66-0.337,9.069-0.505,13.608
	c-4.77,0.734-9.408,2.386-14.361,2.226c-0.188-4.523-0.287-9.044,0.44-13.628c1.817-0.383,3.581-1.055,5.533-1.158
	c2.381-0.126,4.801-0.144,7.118-0.916C88.368,82.808,88.966,82.889,89.626,82.847z M84.474,94.015
	c0.77,0.591,0.77,0.591,1.109-0.195C85.197,93.888,84.919,93.937,84.474,94.015z M83.646,90.559
	c-0.295,0.043-0.591,0.085-1.123,0.164C83.122,91.23,83.435,91.329,83.646,90.559z M87.324,89.718
	c-0.459-0.25-0.784-0.322-1.032,0.219C86.794,90.493,87.043,90.236,87.324,89.718z M79.342,88.001
	c-0.338-0.521-0.638-0.528-1.042-0.192C78.562,88.315,78.849,88.378,79.342,88.001z M81.275,94.938
	c0.796,0.526,0.796,0.526,1.09-0.126C82.061,94.847,81.812,94.876,81.275,94.938z M83.251,85.357
	c0.506,0.546,0.506,0.546,0.83-0.043C83.768,85.33,83.509,85.344,83.251,85.357z M76.838,96.19c-0.299-0.689-0.536-0.536-0.858,0
	C76.358,96.19,76.598,96.19,76.838,96.19z M77.505,91.96c0.021-0.12,0.042-0.239,0.062-0.358c-0.231,0-0.462,0-0.693,0
	c-0.006,0.083-0.013,0.165-0.02,0.247C77.071,91.887,77.288,91.923,77.505,91.96z"/>
<path fill-rule="evenodd" clip-rule="evenodd" fill="#faf0e5" class="fill" d="M67.299,85.28c-0.283-0.124-0.565-0.249-0.85-0.372
	c-0.196-0.084-0.395-0.164-0.622-0.502c0.501-0.215,1.002-0.431,1.546-0.665c0-0.122,0-0.273,0-0.561
	c-0.512,0.057-0.976,0.108-1.51,0.166c-0.121-0.738,0.517-0.616,0.749-0.775c0.505,0.093,0.928,0.172,1.456,0.27
	c-0.145-1.043-0.745-0.544-1.163-0.577c-0.299-0.182-0.616-0.374-0.992-0.603c0.02-0.308,0.039-0.623,0.06-0.944
	c0.405-0.106,0.74-0.195,1.211-0.32c-0.366-0.334-0.623-0.57-0.879-0.805c0.053-0.065,0.106-0.129,0.159-0.193
	c0.603,0.422,1.372,0.615,1.823,1.423c-0.353,0.182-0.625,0.323-0.936,0.482c0.09,0.152,0.152,0.337,0.204,0.334
	c0.426-0.022,0.85-0.079,1.538-0.154c0.25,0.167,0.724,0.486,1.284,0.864c-0.267,0.247-0.465,0.43-0.738,0.683
	c0.226,0.159,0.435,0.307,0.691,0.486c0.362-0.409,0.675-0.762,0.993-1.121c-0.888-1.665-3.05-1.958-3.863-3.855
	c0.596-0.205,1.155-0.446,1.74-0.583c0.646-0.151,1.312-0.239,1.974-0.299c3.223-0.296,6.447-0.579,9.672-0.854
	c0.41-0.035,0.826-0.004,1.075-0.004c1.64,1.148,2.991,2.379,4.737,3.035c1.015,0.379,1.856,1.073,2.63,2.082
	c-2.292,0.311-4.344,1.096-6.628,1.059c-1.918-0.03-3.848,0.522-5.769,0.834c-0.406,0.066-0.796,0.228-1.2,0.315
	c-0.608,0.132-1.152,0.301-1.684,0.714c-0.591,0.46-1.39,0.652-2.161,0.989c0.744,1.002,1.487-0.472,2.226,0.222
	c0,0.153,0,0.423,0,0.671c-0.449,0.174-0.837,0.324-1.457,0.563c0.553,0.288,0.866,0.45,1.223,0.635c0,0.429,0,0.881,0,1.387
	c-0.378,0.155-0.765,0.314-1.426,0.586c0.578,0.246,0.89,0.379,1.211,0.516c0.29,0.708-0.451,0.746-0.801,1.162
	c0.337,0.228,0.656,0.443,1.012,0.684c-0.085,0.736-0.169,1.463-0.265,2.281c-0.18,0.118-0.442,0.29-0.81,0.531
	c0.34,0.241,0.592,0.418,0.866,0.612c0,0.807,0,1.62,0,2.674c-0.513-0.312-0.839-0.511-1.18-0.718
	c0.181-0.309,0.309-0.529,0.444-0.761c-0.697-0.498-0.918,0.13-1.296,0.413c-0.771-0.32-1.746-0.291-2.172-1.295
	c0.028-0.231,0.061-0.502,0.116-0.963c-0.499,0.1-0.876,0.176-1.333,0.268c-0.593-0.067-0.906-0.497-0.921-0.986
	c-0.66-0.311-1.199-0.563-1.793-0.843c1.054-1.314,2.341-0.903,3.555-0.847c0.232,0.011,0.469-0.024,0.698-0.062
	c0.042-0.007,0.063-0.138,0.17-0.397c-1.102-0.094-2.151-0.183-3.319-0.281c-0.29,0.148-0.686,0.351-1.196,0.61
	c-0.127-0.769-0.235-1.428-0.371-2.255c0.557,0.188,0.927,0.314,1.353,0.458c0.124-0.116,0.263-0.246,0.479-0.449
	c-0.513-0.395-0.958-0.736-1.48-1.138c0.109-0.465,0.229-0.967,0.366-1.548c0.543,0.295,0.875,1.085,1.541,0.298
	c-0.555-0.538-1.071-1.039-1.636-1.585c0.045-0.174,0.108-0.409,0.139-0.528c0.582-0.19,1.067-0.348,1.552-0.505
	c0.618,1.285,0.702,1.343,1.572,0.994c-0.253-0.321-0.493-0.626-0.708-0.899C67.858,85.313,67.579,85.297,67.299,85.28z
	 M69.632,93.431c0.004,0.085,0.007,0.17,0.01,0.256c0.247,0.045,0.588,0.216,0.724,0.114c0.714-0.536,1.41-0.392,2.153-0.11
	c0.431,0.164,0.7-0.009,0.732-0.533c-0.641-0.122-1.228-0.234-1.826-0.35C70.831,93.015,70.232,93.224,69.632,93.431z
	 M71.159,87.999c0.309-0.458,0.588-0.873,0.979-1.452c-0.421-0.062-0.731-0.107-1.03-0.151c-0.103,0.356-0.129,0.597-0.239,0.788
	c-0.098,0.167-0.29,0.279-0.52,0.485C70.7,87.812,70.917,87.9,71.159,87.999z M67.129,89.126c0.255,0.287,0.41,0.461,0.564,0.636
	c-0.023,0.25-0.045,0.5-0.081,0.902c0.401-0.099,0.67-0.165,0.885-0.218c-0.17-0.584-0.301-1.036-0.454-1.564
	C67.769,88.955,67.551,89.014,67.129,89.126z M68.797,93.619c-0.531-0.588-0.531-0.588-1.1-0.062
	C68.056,93.896,68.395,94.096,68.797,93.619z M70.109,90.419c-0.353-0.7-0.65-0.586-1.074,0
	C69.51,90.419,69.81,90.419,70.109,90.419z M69.348,88.774c0.47,0.457,0.811,0.56,1.156-0.003
	C70.141,88.303,69.801,88.462,69.348,88.774z M77.383,79.437c-0.512-0.414-0.795-0.293-1.086,0.156
	C76.708,80.003,77.008,80.003,77.383,79.437z M72.54,84.3c0.884,0.507,0.884,0.507,0.894-0.404
	C73.091,84.051,72.815,84.175,72.54,84.3z M71.729,84.878c-0.384-0.412-0.706-0.441-1.092-0.006
	C71.038,85.291,71.361,85.434,71.729,84.878z M71.323,94.989c-0.004-0.12-0.008-0.239-0.012-0.358
	c-0.403-0.408-0.694-0.323-1.044,0.455C70.743,95.042,71.033,95.016,71.323,94.989z M72.44,91.263
	c-0.451-0.445-0.76-0.418-1.103,0.026C71.718,91.634,72.023,91.792,72.44,91.263z M70.625,89.973
	c0.469,0.284,0.788,0.502,1.087-0.06C71.395,89.424,71.085,89.535,70.625,89.973z M72.109,88.577
	c0.41,0.285,0.713,0.376,1.035-0.075C72.763,87.997,72.469,88.06,72.109,88.577z M69.445,88.393
	c-0.409-0.793-0.41-0.806-0.832-0.758c-0.082,0.009-0.147,0.161-0.299,0.339C68.642,88.096,68.908,88.194,69.445,88.393z
	 M70.268,85.729c0.014-0.123,0.026-0.245,0.04-0.368c-0.328-0.447-0.62-0.294-1.1,0.282C69.691,85.682,69.979,85.706,70.268,85.729z
	 M68.536,83.672c0.375,0.527,0.669,0.524,0.985,0.073C69.28,83.206,68.98,83.305,68.536,83.672z M75.428,81.919
	c-0.569-0.408-0.84-0.444-1.035-0.066c-0.027,0.052,0.025,0.146,0.07,0.357C74.723,82.131,74.97,82.057,75.428,81.919z
	 M82.697,81.33c0.476,0.226,0.805,0.368,1.049-0.24C83.366,80.761,83.062,80.725,82.697,81.33z M71.306,79.595
	c0.568,0.534,0.855,0.556,1.091,0.125c0.026-0.046-0.042-0.143-0.108-0.343C72.041,79.431,71.78,79.49,71.306,79.595z
	 M69.917,91.234c0.327,0.441,0.602,0.575,1.023,0.171C70.666,90.852,70.351,90.975,69.917,91.234z M79.805,81.621
	c-0.48-0.551-0.727-0.422-0.956,0.226C79.274,81.747,79.539,81.683,79.805,81.621z M80.249,78.875
	c0.427,0.432,0.691,0.268,0.998-0.142C80.819,78.333,80.539,78.387,80.249,78.875z M70.993,95.418
	c0.009,0.142,0.018,0.284,0.027,0.427c0.266-0.026,0.534-0.04,0.794-0.091c0.034-0.007,0.029-0.208,0.055-0.437
	C71.54,95.355,71.266,95.387,70.993,95.418z M72.179,83.046c-0.236,0.175-0.419,0.312-0.603,0.448
	c0.023,0.064,0.047,0.128,0.071,0.192c0.229,0,0.459,0,0.779,0C72.331,83.438,72.276,83.295,72.179,83.046z"/>
</svg>
