<svg version="1.1" id="svg" xmlns="http://www.w3.org/2000/svg" xmlns:xlink="http://www.w3.org/1999/xlink" x="0px" y="0px"
	 width="200px" height="200px" viewBox="0 0 200 200" enable-background="new 0 0 200 200" xml:space="preserve">
<path class="stroke" fill="#205165"  fill-rule="evenodd" clip-rule="evenodd" d="M73.223,174.816c0.155-6.004,0.303-11.732,0.448-17.327
	c-0.714-0.605-1.206-1.125-1.792-1.497c-1.134-0.72-1.665-1.784-1.706-3.038c-0.102-3.073-0.185-6.15-0.134-9.225
	c0.081-4.791,0.299-9.579,0.421-14.368c0.109-4.287,0.167-8.574,0.245-12.861c0.009-0.49,0.001-0.98,0.001-1.711
	c-0.48,0.312-0.749,0.502-1.032,0.666c-0.611,0.354-1.191,0.828-1.851,1.02c-3.825,1.11-7.634,1.497-11.159-0.906
	c-0.682-0.464-1.245-1.186-1.689-1.896c-1.363-2.181-2.725-4.371-3.93-6.641c-1.176-2.215-2.16-4.533-3.262-6.878
	c0.955-1.24,1.902-2.469,2.755-3.577c-0.438-1.543-0.835-2.936-1.259-4.426c-0.519,0.068-1.081,0.142-1.731,0.228
	c-1.503-2.894-1.687-6.186-3.218-9.071c-1.299-0.123-2.646-0.229-3.988-0.384c-2.37-0.274-4.134-1.533-5.371-3.515
	c-0.266-0.425-0.246-1.042-0.311-1.577c-0.104-0.835-0.042-1.711-0.274-2.504c-0.462-1.582-0.436-2.989,0.905-4.14
	c-0.444-2.121,0.665-3.354,2.507-4.346c0.58-2.462,2.805-2.345,4.908-2.63c0.21-0.422,0.468-0.848,0.644-1.306
	c0.921-2.398,1.797-4.813,2.737-7.204c0.478-1.213,1.006-2.411,1.598-3.572c1.094-2.148,2.947-3.525,4.947-4.757
	c0.898-0.553,1.729-1.218,2.571-1.857c0.91-0.69,1.901-0.853,3.218-0.528c-0.079,0.566-0.07,1.156-0.255,1.677
	c-0.27,0.755-0.665,1.469-1.033,2.186c-1.607,3.134-3.228,6.26-4.835,9.393c-0.713,1.389-1.407,2.787-2.199,4.356
	c0.471,0.7,0.902,1.573,1.541,2.249c1.821,1.925,3.216,4.056,3.362,6.763c0.136,2.511,1.891,3.995,3.32,5.715
	c0.605,0.727,1.131,1.518,1.685,2.27c-0.275,0.417-0.461,0.701-0.686,1.043c1.117,2.077,2.233,4.149,3.342,6.21
	c0.65-0.11,1.082-0.183,1.596-0.27c0.443,0.59,0.882,1.175,1.469,1.957c0.644-1.519,1.229-2.834,1.762-4.17
	c0.729-1.826,1.451-3.656,2.121-5.506c0.919-2.536,2.755-4.198,5.105-5.31c2.502-1.184,5.077-2.214,7.596-3.365
	c1.004-0.459,1.933-1.082,2.912-1.6c1.156-0.612,2.33-1.191,3.648-1.861c0.44-1.185,0.251-2.537-0.045-3.854
	c-0.164-0.73-0.609-1.373-1.346-1.74c-0.405-0.202-0.787-0.455-1.165-0.706c-1.44-0.959-2.487-2.208-2.822-3.953
	c-0.208-1.086-0.479-2.172-0.562-3.27c-0.216-2.86-0.344-5.728-0.512-8.658c-1.34-0.362-2.281-1.222-2.688-2.675
	c-0.217-0.772-0.607-1.494-0.873-2.255c-0.482-1.382-0.161-2.483,1.006-3.333c0.649-0.472,1.365-0.853,2.122-1.319
	c0.033-0.178,0.143-0.429,0.112-0.66c-0.354-2.671,0.495-5.19,0.916-7.768c0.176-1.079,0.124-2.195,0.187-3.557
	c0.233-0.259,0.601-0.666,1.116-1.236c0.794-2.013,1.625-4.338,2.634-6.583c0.466-1.037,1.22-1.965,1.948-2.857
	c0.922-1.13,2.179-1.776,3.606-2.071c4.317-0.891,8.68-1.282,13.081-1.031c1.347,0.077,2.719,0.267,4.013,0.64
	c3.461,1,5.61,3.439,6.826,6.732c1.074,2.906,1.579,5.921,1.577,9.032c-0.001,1.351,0.173,2.707,0.344,4.051
	c0.251,1.97,0.304,3.92-0.334,5.873c0.206,0.251,0.368,0.506,0.585,0.702c2.192,1.991,2.034,4.216-0.187,6.581
	c-0.574,0.612-1.382,1-2.072,1.506c-0.364,0.267-0.707,0.563-1.136,0.908c0,1.841-0.009,3.706,0.002,5.571
	c0.014,2.318-0.836,4.331-2.15,6.185c-0.816,1.152-1.609,2.321-2.466,3.442c-0.702,0.918-1.483,1.776-2.229,2.66
	c-0.103-0.077-0.206-0.154-0.309-0.23c-0.079,1.098-0.157,2.195-0.251,3.508c1.143,0.281,2.28,0.651,3.448,0.829
	c2.337,0.357,4.264,1.516,6.012,2.986c2.391,2.011,4.787,4.028,7.03,6.198c1.44,1.394,2.638,3.044,3.889,4.622
	c1.159,1.462,2.228,2.996,3.375,4.467c0.328,0.421,0.794,0.735,1.289,1.182c0.684-0.491,1.359-0.922,1.972-1.428
	c1.261-1.042,2.538-1.462,4.012-0.17c0.74-0.534,1.466-1.058,2.305-1.663c-0.316-0.649-0.613-1.258-0.981-2.014
	c1.837-1.173,3.648-2.329,5.5-3.512c0-0.422,0-0.865,0-1.309c-0.181-0.163-0.318-0.306-0.476-0.424
	c-2.932-2.21-2.707-6.855,0.391-8.868c1.571-1.021,3.313-1.403,5.204-1.629c0.992-1.071,1.978-2.214,3.048-3.273
	c1.069-1.058,2.222-2.033,3.468-3.161c-0.396-1.293,0.385-2.263,1.197-3.268c1.617-2,3.158-4.06,4.755-6.075
	c0.876-1.106,2.14-1.952,3.373-2.315c0.378,0.201,0.829,0.418,1.255,0.675c0.38,0.229,0.733,0.503,1.201,0.828
	c-1.597,3.123-3.209,6.148-5.398,9.159c3.282,0.092,6.122-0.762,9.059-1.403c0.327,0.593,0.644,1.045,0.836,1.545
	c0.378,0.979,0.167,1.73-0.788,2.136c-1.333,0.567-2.727,1.008-4.124,1.4c-1.593,0.448-3.217,0.783-5.025,1.214
	c0.584,2.645,1.125,5.237,1.754,7.807c0.108,0.444,0.56,0.824,0.899,1.19c1.866,2.017,1.958,3.579,0.321,5.779
	c-0.12,0.161-0.221,0.336-0.116,0.555c-0.236,1.212-0.472,2.424-0.78,4.016c0.281,1.179-0.083,2.601-0.974,3.667
	c0.061,1.008,0.155,1.798,0.142,2.586c-0.013,0.813-0.535,1.325-1.292,1.468c-0.783,0.147-1.592,0.197-2.39,0.207
	c-0.956,0.012-1.913-0.073-2.87-0.095c-0.245-0.006-0.533,0-0.731,0.117c-1.751,1.038-3.852,1.622-4.836,3.674
	c-0.061,0.126-0.197,0.215-0.429,0.458c-0.556-0.382-1.116-0.77-1.798-1.239c-1.773,1.36-3.597,2.759-5.357,4.108
	c-0.172,1.202,1.034,2.271-0.108,3.203c-0.684,0.491-1.475,0.883-2.03,1.491c-1.501,1.644-3.544,2.483-5.295,3.75
	c-1.671,1.208-3.411,2.323-5.131,3.462c-0.544,0.361-1.109,0.699-1.692,0.993c-1.765,0.887-3.364,0.627-4.906-0.616
	c-1.977-1.594-3.711-3.41-5.316-5.365c-0.337-0.411-0.739-0.771-1.111-1.154c-0.107,0.033-0.214,0.066-0.322,0.1
	c-0.011,0.72-0.104,1.451-0.018,2.16c0.662,5.405,1.379,10.804,2.036,16.209c0.371,3.052,0.494,6.144,1.032,9.163
	c0.544,3.056,0.575,6.124,0.709,9.19c0.145,3.28,0.337,6.538,1.164,9.734c0.133,0.517,0.093,1.095,0.05,1.638
	c-0.121,1.546-0.285,3.088-0.438,4.692c-1.075,0.212-1.996,0.394-3.036,0.598c0.729,5.994,0.894,11.996,2.771,17.827
	c2.942,0.69,5.894,1.523,7.768,4.163c1.718,2.419,2.304,5.228,2.331,8.212c-0.638,1.364-2.005,1.725-3.26,1.767
	c-5.793,0.192-11.592,0.442-17.344-0.718c-3.352-0.676-6.748-1.138-10.122-1.707c-1.73-0.292-3.456-0.606-5.337-0.938
	c-1.095,0.549-2.416,0.673-3.796,0.702c-2.794,0.062-5.475,0.834-8.112,1.686c-5.274,1.704-10.722,2.369-16.209,2.775
	c-2.135,0.158-6.509-0.524-7.835-1.059c-0.729-1.955-0.406-3.864,0.054-5.782c0.65-2.713,2.541-4.269,4.939-5.338
	c0.918-0.41,1.873-0.769,2.845-1.019C71.037,176.8,72.202,175.801,73.223,174.816z M155.229,67.875
	c0.536,0.841,1.131,1.421,1.276,2.098c0.157,0.724-0.108,1.54-0.197,2.379c1.171,0.104,2.383,0.851,3.649-0.287
	c-0.358-2.226-0.726-4.512-1.134-7.051C157.483,66.081,156.357,66.977,155.229,67.875z"/>
<path fill-rule="evenodd" clip-rule="evenodd" fill="#ffffff" class="fill" d="M68.77,95.826c0.242-0.375,0.439-0.54,0.442-0.707
	c0.036-2.306,0.921-4.427,1.47-6.613c0.747-2.978,1.716-5.9,2.509-8.868c0.429-1.607,1.412-2.798,2.653-3.751
	c1.601-1.229,3.284-2.212,5.502-2.116c2.206,0.095,4.428-0.239,6.645-0.315c1.704-0.06,3.411-0.012,5.489-0.012
	c0.651,1.024,1.418,2.378,2.329,3.627c1.063,1.459,2.24,2.837,3.395,4.228c0.174,0.209,0.496,0.295,0.938,0.544
	c2.54-4.335,5.044-8.611,7.6-12.972c2.551,0.222,4.812,1.221,6.987,2.552c3.781,2.313,6.564,5.622,9.26,9.034
	c1.564,1.979,3.152,3.941,4.715,5.921c0.363,0.461,0.671,0.966,0.982,1.418c-1.769,0.652-3.407,1.237-5.027,1.869
	c-0.303,0.119-0.535,0.42-0.793,0.633c1.703,2.497,3.155,2.592,6.727,0.431c0.105,1.073-0.368,1.955-0.62,2.879
	c-0.32,1.176-0.047,2.113,0.835,2.671c0.309,0.194,0.712,0.238,1.281,0.415c0.161-1.005,0.322-1.828,0.415-2.659
	c0.067-0.599,0.015-1.211,0.061-1.814c0.197-2.58,1.746-4.181,4.099-5.44c1.806,2.872,2.824,6.178,4.809,8.932
	c-1.045,1.148-1.993,2.189-2.942,3.228c-0.102,0.112-0.208,0.227-0.332,0.31c-3.059,2.039-6.399,3.148-10.097,2.822
	c-0.797-0.07-1.615-0.52-2.309-0.971c-0.793-0.515-1.447-1.24-2.181-1.85c-1.163-0.967-2.23-1.953-2.845-3.43
	c-0.408-0.982-1.253-1.781-1.919-2.685c-0.76,0.307-1.556,0.586-2.314,0.944c-0.824,0.389-1.35,1.047-1.454,1.983
	c-0.112,1.002-0.277,2.005-0.303,3.011c-0.144,5.656-0.07,11.315,0.604,16.931c0.467,3.897,1.279,7.754,1.975,11.621
	c0.464,2.58,1.035,5.14,1.487,7.721c0.627,3.571,1.312,7.139,1.735,10.736c0.286,2.441,0.168,4.93,0.217,7.398
	c0.004,0.189-0.107,0.381-0.181,0.626c-0.603,0.062-1.198,0.125-1.957,0.205c-0.059-0.819-0.116-1.549-0.164-2.279
	c-0.346-5.228-1.736-10.209-3.46-15.126c-0.982-2.804-1.709-5.681-2.009-8.659c-0.227-2.257-0.591-4.5-0.907-6.748
	c-0.026-0.186-0.15-0.359-0.218-0.513c-0.718-0.257-1.17,0.037-1.351,0.629c-0.187,0.616-0.323,1.277-0.32,1.917
	c0.018,3.638,0.449,7.244,1.114,10.812c1.079,5.798,2.257,11.577,3.377,17.368c0.149,0.774,0.198,1.569,0.314,2.53
	c-1.158,0-2.152-0.027-3.145,0.008c-0.949,0.033-1.896,0.132-2.904,0.206c-0.206-0.62-0.436-1.128-0.543-1.661
	c-0.836-4.144-2.383-8.129-2.729-12.383c-0.089-1.099-0.306-2.193-0.545-3.272c-0.146-0.661-0.255-1.418-1.067-1.656
	c-0.808,0.175-0.816,0.771-0.896,1.396c-0.552,4.3-0.092,8.56,0.449,12.819c0.203,1.598,0.397,3.197,0.599,4.834
	c-0.914,0.61-1.95,0.501-2.925,0.639c-3.691,0.521-7.386,1.028-11.079,1.543c-3.073,0.429-6.14,0.3-9.202-0.115
	c-0.248-0.034-0.492-0.106-0.731-0.182c-0.089-0.028-0.159-0.117-0.337-0.255c0.291-1.252,0.593-2.556,0.894-3.861
	c0.136-0.588,0.321-1.171,0.394-1.768c0.438-3.549,0.776-7.113,1.29-10.65c0.438-3.01,0.271-6.028,0.399-9.042
	c0.139-3.268,0.446-6.529,0.708-9.792c0.065-0.816,0.116-0.812-0.362-1.675c-0.682-0.081-0.875,0.374-0.933,0.911
	c-0.238,2.205-0.472,4.409-0.678,6.617c-0.257,2.756-0.378,5.529-0.753,8.269c-0.437,3.188-1.08,6.35-1.651,9.52
	c-0.098,0.543-0.225,1.096-0.447,1.598c-1.104,2.507-1.854,5.116-2.364,7.802c-0.063,0.337-0.229,0.654-0.361,1.02
	c-1.113,0.154-1.949-0.441-2.97-0.841c-0.083-1.208-0.282-2.412-0.226-3.604c0.207-4.324,0.472-8.646,0.768-12.965
	c0.341-4.979,0.758-9.952,1.1-14.932c0.107-1.555,0.178-3.125,0.091-4.678c-0.184-3.267,0.366-6.433,1.122-9.575
	c0.599-2.492,1.212-4.986,1.986-7.426c0.496-1.564,1.293-3.034,2.065-4.795c-0.029-0.094-0.145-0.464-0.3-0.967
	c-2.133,0.119-4.152,0.483-6.129,1.439c-0.426,2.327-0.939,4.585-1.229,6.873c-0.303,2.401-1.784,3.897-3.634,5.08
	c-0.954,0.609-2.105,1.057-3.222,1.235c-2.626,0.416-5.104-0.093-7.198-1.859c-1.04-0.876-2.034-1.808-3.037-2.728
	c-1.743-1.598-2.748-3.702-3.897-5.687c0.036-0.117,0.034-0.252,0.097-0.298c1.768-1.292,3.087-3.008,4.547-4.608
	c1.241-1.361,2.846-2.396,4.308-3.552c0.78-0.617,1.597-1.186,2.491-1.845c0.521,0.564,0.953,1.03,1.41,1.524
	c-1.278,2.392-3.618,4.101-3.935,6.991c0.683,0.738,1.254,0.24,1.803-0.194c1.544-1.22,2.539-2.845,3.349-4.601
	c0.161-0.349,0.309-0.703,0.443-1.008c0.482,1.115,0.869,2.223,1.447,3.222C67.545,95.627,68.239,95.646,68.77,95.826z"/>
<path fill-rule="evenodd" clip-rule="evenodd" fill="#ffffff" class="fill" d="M98.04,165.889c6.637-1.953,13.134-3.401,20.011-2.879
	c0.562,3.694,1.111,7.3,1.686,11.081c-0.575,0.157-1.279,0.383-1.998,0.542c-3.862,0.856-7.035,2.979-9.906,5.555
	c-2.995,2.688-6.315,2.997-10.122,1.799C97.565,176.636,98.165,171.33,98.04,165.889z"/>
<path fill-rule="evenodd" clip-rule="evenodd" fill="#ffffff" class="fill" d="M105.873,58.585c-1.94,2.285-5.282,3.135-7.752,2.174
	c-3.213-1.25-6.302-2.716-8.94-4.977c-0.596-0.511-1.258-1.116-1.518-1.816c-1.064-2.879-2.184-5.765-2.167-8.914
	c0.001-0.1,0.022-0.2,0.044-0.378c0.392-0.84,1.047-1.159,2.052-0.945c2.375,0.504,4.591,0.056,6.69-1.166
	c0.596-0.347,1.305-0.594,1.988-0.681c1.8-0.227,3.612-0.375,5.423-0.483c0.974-0.058,1.873,0.202,2.656,0.888
	c0.397,0.347,0.953,0.554,1.471,0.717c2.072,0.65,4.182,1.035,6.629,0.562c-1.121,3.487-2.175,6.765-3.263,10.146
	c-6.062-0.45-12.019-0.594-17.919-0.454c-0.084,0.306-0.16,0.424-0.128,0.492c0.146,0.303,0.323,0.592,0.503,0.915
	c5.458-0.434,10.786,0.038,16.097,1.326c-1.706,0.222-3.409,0.471-5.119,0.659c-1.301,0.143-2.61,0.215-3.917,0.307
	c-0.576,0.04-1.096,0.131-1.256,0.999C100.189,58.771,103.042,58.058,105.873,58.585z M96.738,43.159
	c-0.74-0.305-1.162-0.039-1.447,0.515c-0.731,1.42-1.466,2.841-2.158,4.281c-0.13,0.271-0.074,0.63-0.142,1.36
	c0.586-0.417,0.988-0.555,1.128-0.827C95.006,46.765,95.836,45.01,96.738,43.159z M101.305,43.491
	c0.985,1.123,1.273,2.661,2.718,3.346c0.365-1.174-0.271-2.477-1.848-3.88C101.935,43.104,101.668,43.268,101.305,43.491z"/>
<path fill-rule="evenodd" clip-rule="evenodd" fill="#ffffff" class="fill" d="M77.352,164.54c6.793,0.19,13.031,1.347,17.806,6.546
	c-0.115,4.282-0.228,8.453-0.345,12.798c-1.666,0.409-3.323,0.47-4.956-0.521c-1.46-0.888-2.958-1.718-4.485-2.487
	c-2.893-1.456-5.915-2.552-9.133-3.055c-0.488-0.076-0.963-0.234-1.707-0.42c0.508-0.528,0.854-0.921,1.235-1.276
	c0.886-0.826,1.384-1.755,1.377-3.044C77.131,170.317,77.269,167.553,77.352,164.54z"/>
<path fill-rule="evenodd" clip-rule="evenodd" fill="#ffffff" class="fill" d="M115.41,20.708c-1.317-0.195-2.302-0.383-3.295-0.48
	c-4.463-0.438-8.928-0.854-13.394-1.27c-2.944-0.273-5.675,0.665-8.423,1.505c-0.379,0.115-0.768,0.197-1.283,0.329
	c0-0.432-0.093-0.787,0.016-1.065c0.619-1.595,1.326-3.158,1.924-4.76c0.55-1.476,1.66-2.137,3.118-2.236
	c3.521-0.239,7.044-0.462,10.57-0.592c1.645-0.061,3.101,0.727,4.613,1.31c2.673,1.031,4.513,2.745,5.382,5.49
	C114.8,19.453,115.068,19.936,115.41,20.708z"/>
<path fill-rule="evenodd" clip-rule="evenodd" fill="#ffffff" class="fill" d="M102.583,30.401c1.194,0.662,2.269,0.414,3.286,0.311
	c2.585-0.259,5.142-0.092,7.674,0.395c0.915,0.175,1.784,0.589,2.837,0.95c-0.186,0.808-0.335,1.451-0.56,2.426
	c-1.729-2.401-3.744-3.336-6.441-2.868c-2.452,0.425-4.753,0.976-6.311,3.267c-1.809-0.112-3.683-0.703-5.369,0.33
	c-1.102-1.104-1.976-2.361-3.174-3.071c-1.201-0.712-2.726-0.877-4.428-1.375c1.736,0.077,3.182,0.127,4.626,0.211
	c0.653,0.039,1.302,0.202,1.954,0.21c0.861,0.011,1.689-0.075,2.311-0.86c0.289-0.364,0.806-0.547,1.309-0.869
	c-0.297-0.643-0.792-1.1-1.484-1.29c-2.916-0.803-5.834-1.688-8.911-1.232c-1.035,0.153-2.031,0.562-3.045,0.851
	c-0.515,0.147-1.031,0.29-1.76,0.494c0.118-0.648,0.194-1.066,0.258-1.416c2.265-1.352,4.703-1.683,7.141-2.11
	c5.04-0.884,10.047-0.582,15.06,0.141c1.746,0.252,3.507,0.441,5.225,0.82c0.961,0.213,1.862,0.729,2.759,1.169
	c0.267,0.131,0.431,0.474,0.641,0.719c-4.401,0-8.703,0-13.241,0C102.822,28.526,102.701,29.478,102.583,30.401z"/>
<path fill-rule="evenodd" clip-rule="evenodd" fill="#ffffff" class="fill" d="M50.421,86.077c-1.447-1.814-2.814-3.712-2.956-6.2
	c-0.029-0.521,0.135-1.116,0.389-1.578c0.908-1.652,0.956-3.359,0.537-5.137c-0.379-1.605-0.762-3.21-1.104-4.824
	c-0.188-0.886-0.337-1.784-0.428-2.685c-0.086-0.852-0.044-1.704,0.785-2.478c0.341,0.425,0.653,0.796,0.945,1.181
	c0.637,0.842,1.17,1.786,1.914,2.519c1.559,1.537,1.986,3.453,2.121,5.501c0.037,0.551-0.052,1.109-0.042,1.663
	c0.02,1.112,0.387,2.023,1.344,2.723c1.172,0.856,2.258,1.83,3.402,2.771C55.016,81.724,52.775,83.848,50.421,86.077z"/>
<path fill-rule="evenodd" clip-rule="evenodd" fill="#ffffff" class="fill" d="M85.219,182.943c0.324,0.25,0.827,0.641,1.643,1.274
	c-7.612,1.733-14.835,3.518-22.532,2.021c0.305-2.305,0.838-4.318,3.021-5.422c2.536,0.557,2.576,0.584,6.678,4.555
	C77.547,184.607,81.215,183.812,85.219,182.943z"/>
<path fill-rule="evenodd" clip-rule="evenodd" fill="#ffffff" class="fill" d="M127.119,178.886c1.627,1.483,2.652,3.285,3.265,5.612
	c-1.75,0.333-3.303,0.632-4.901,0.479c-3.702-0.355-7.407-0.689-11.096-1.144c-1.876-0.232-3.722-0.707-5.665-1.087
	c0.361-1.169,1.325-1.432,2.086-1.901c2.453,1.2,8.805,2.153,11.353,1.715C123.522,180.694,124.851,179.68,127.119,178.886z"/>
<path fill-rule="evenodd" clip-rule="evenodd" fill="#ffffff" class="fill" d="M116.39,23.89c0,0.523,0,1.048,0,1.759
	c-2.044-1.199-4.185-1.528-6.316-1.848c-1.39-0.209-2.801-0.28-4.204-0.401c-2.054-0.176-4.12-0.561-6.163-0.464
	c-3.915,0.186-7.817,0.648-11.88,1.01c-0.032-0.169-0.098-0.517-0.172-0.908c1.673-0.773,3.36-1.064,5.056-1.201
	c3.206-0.259,6.423-0.599,9.631-0.553c2.91,0.042,5.814,0.54,8.718,0.866c0.949,0.106,1.883,0.361,2.833,0.442
	C114.917,22.68,115.717,23.09,116.39,23.89z"/>
<path fill-rule="evenodd" clip-rule="evenodd" fill="#ffffff" class="fill" d="M56.125,47.374c-0.839,1.426-1.681,2.851-2.518,4.278
	c-1.501,2.559-3.023,5.106-4.491,7.686c-0.631,1.107-1.214,2.179-2.526,2.662c-0.737,0.271-1.177,0.913-1.302,1.733
	c-0.072,0.478-0.205,0.947-0.612,1.442c-0.064-0.281-0.245-0.599-0.171-0.836c0.208-0.67,0.458-1.344,0.804-1.953
	c1.228-2.164,2.044-4.488,2.726-6.862c1.126-3.924,3.94-6.326,7.333-8.217c0.161-0.089,0.359-0.11,0.541-0.163
	C55.982,47.221,56.054,47.297,56.125,47.374z"/>
<path fill-rule="evenodd" clip-rule="evenodd" fill="#ffffff" class="fill" d="M104.345,39.114c0.133-0.627,0.237-1.014,0.295-1.408
	c0.48-3.226,4.298-5.384,7.351-4.148c2.396,0.97,3.283,5.688,1.381,7.451c-0.321,0.298-0.741,0.594-1.156,0.671
	c-2.142,0.396-4.246,0.214-6.145-0.908C105.372,40.358,104.863,39.625,104.345,39.114z M113.178,38.417
	c-0.747-0.962-1.447-1.864-2.103-2.709c-2.092-0.211-4.059-0.744-5.693,0.808c0.135,1.765,1.302,3.045,2.99,3.363
	C110.988,40.372,112.386,39.975,113.178,38.417z"/>
<path fill-rule="evenodd" clip-rule="evenodd" fill="#ffffff" class="fill" d="M54.427,92.364c-0.542-4.196,0.003-7.853,3.773-10.59
	c1.069,1.958,2.093,3.831,3.116,5.705C59.065,89.076,56.829,90.661,54.427,92.364z"/>
<path fill-rule="evenodd" clip-rule="evenodd" fill="#ffffff" class="fill" d="M83.446,181.647c-2.808,1.278-5.722,1.63-8.339,2.123
	c-2.075-1.481-3.971-2.833-5.867-4.185c1.098-0.938,2.447-1.141,3.971-0.748c2.722,0.701,5.465,1.319,8.188,2.016
	C82.104,181.033,82.765,181.378,83.446,181.647z"/>
<path fill-rule="evenodd" clip-rule="evenodd" fill="#ffffff" class="fill" d="M89.993,41.758c-2.572,0.019-3.977-1.013-4.464-3.163
	c-0.548-2.412,0.514-3.965,2.725-4.898c0.952-0.401,2.056-0.519,3.103-0.595c1.335-0.098,3.124,1.536,3.625,2.999
	c1.117,3.254-1.53,5.463-3.93,5.653C90.701,41.782,90.346,41.758,89.993,41.758z M86.337,38.935
	c0.375,0.223,0.768,0.559,1.222,0.709c2.154,0.713,4.177,0.229,6.071-0.859c0.655-0.376,0.894-1.066,0.713-1.831
	c-1.238-1.745-2.56-2.369-4.188-1.984C87.619,35.568,86.698,36.495,86.337,38.935z"/>
<path fill-rule="evenodd" clip-rule="evenodd" fill="#ffffff" class="fill" d="M120.937,181.492c-1.305,0.148-7.076-0.784-8.547-1.486
	c3.264-1.657,6.748-2.212,9.944-3.389c1.094,0.437,2.065,0.823,3.112,1.241C123.953,179.062,122.558,180.186,120.937,181.492z"/>
<path fill-rule="evenodd" clip-rule="evenodd" fill="#ffffff" class="fill" d="M99.618,78.3c-1.252-1.963-2.399-3.761-3.548-5.562
	c2.82-1.016,5.593-2.016,8.488-3.06C103.261,72.748,101.512,75.445,99.618,78.3z"/>
<path fill-rule="evenodd" clip-rule="evenodd" fill="#ffffff" class="fill" d="M158.367,60.607c0.219,0.466,0.342,0.728,0.519,1.104
	c-2.215,2.237-4.116,4.795-6.949,6.492c-1.224-0.368-2.443-0.414-3.642,0.208c-2.121,1.104-2.633,3.391-0.978,4.973
	c0.535,0.512,1.382,0.696,2.083,1.029c-1.087,0.544-2.274,0.244-3.41,0.015c-1.829-2.015-1.553-4.559,0.523-6.029
	c1.206-0.855,2.474-1.319,3.957-1.162c0.347,0.037,0.701,0.006,1.021,0.006C154.053,65.374,155.64,62.562,158.367,60.607z"/>
<path fill-rule="evenodd" clip-rule="evenodd" fill="#ffffff" class="fill" d="M142.024,86.197c1.819,2.267,2.889,4.62,2.946,7.454
	c-0.496,0.393-0.948,0.75-1.511,1.196c-1.239-2.407-2.398-4.658-3.587-6.967C140.634,87.283,141.254,86.799,142.024,86.197z"/>
<path fill-rule="evenodd" clip-rule="evenodd" fill="#ffffff" class="fill" d="M162.974,77.333c-2.909-0.157-5.835-0.31-8.76-0.487
	c-0.149-0.009-0.284-0.243-0.562-0.497c0.353-0.279,0.608-0.613,0.938-0.72c1.899-0.617,3.781-1.309,5.83-1.295
	C162.32,74.346,163.336,75.452,162.974,77.333z"/>
<path fill-rule="evenodd" clip-rule="evenodd" fill="#ffffff" class="fill" d="M153.213,79.87c0.286-0.512,0.467-0.835,0.622-1.112
	c1.774,0,3.427-0.058,5.074,0.016c1.648,0.075,3.291,0.282,5.182,0.453c-0.183,0.698-0.333,1.268-0.506,1.931
	C160.064,80.843,156.69,80.715,153.213,79.87z"/>
<path fill-rule="evenodd" clip-rule="evenodd" fill="#ffffff" class="fill" d="M164.88,76.442c-0.663-1.031-1.295-2.014-1.927-2.997
	c-1.258-3.489-2.084-7.139-1.911-11.035c0.189,0.301,0.464,0.577,0.554,0.906c0.453,1.651,0.875,3.31,1.272,4.976
	c0.292,1.224,0.445,2.486,0.817,3.683c0.246,0.791,0.733,1.516,1.177,2.23C165.339,74.972,165.417,75.695,164.88,76.442z"/>
<path fill-rule="evenodd" clip-rule="evenodd" fill="#ffffff" class="fill" d="M42.71,75.942c-0.103,0.538-0.2,1.049-0.349,1.824
	c-2.355-0.972-4.383-2.042-6.148-3.459c0.005-1.408,0.005-1.408,1-2.296C38.979,73.273,40.752,74.543,42.71,75.942z"/>
<path fill-rule="evenodd" clip-rule="evenodd" fill="#ffffff" class="fill" d="M39.873,67.288c0.167-0.349,0.333-0.696,0.485-1.016
	c2.991,0.382,5.729,3.083,5.385,5.231C43.911,71.319,40.855,69.183,39.873,67.288z"/>
<path fill-rule="evenodd" clip-rule="evenodd" fill="#ffffff" class="fill" d="M39.14,69.276c1.905,1.297,3.476,2.366,5.142,3.499
	c-0.133,0.602-0.268,1.213-0.403,1.825c-2.428-0.569-5.86-3.408-6.213-5.232C38.25,69.332,38.81,69.297,39.14,69.276z"/>
<path fill-rule="evenodd" clip-rule="evenodd" fill="#ffffff" class="fill" d="M152.34,82.426c0.332-0.296,0.507-0.453,0.722-0.646
	c2.908,1.346,6.126,0.795,9.198,1.488c0.145,0.483,0.266,0.888,0.444,1.482c-0.739,0.083-1.353,0.31-1.883,0.185
	c-2.585-0.607-5.15-1.304-7.716-1.989C152.884,82.886,152.704,82.679,152.34,82.426z"/>
<path fill-rule="evenodd" clip-rule="evenodd" fill="#ffffff" class="fill" d="M42.607,80.611c-0.358,1.002-1.031,1.129-1.641,0.773
	c-1.504-0.876-3.087-1.682-4.128-3.17c-0.367-0.525-0.563-1.063,0.073-1.714c1.519,0.779,3.061,1.568,4.755,2.436
	C41.925,79.397,42.265,80.002,42.607,80.611z"/>
<path fill-rule="evenodd" clip-rule="evenodd" fill="#ffffff" class="fill" d="M161.642,88.223c-2.683,0.667-7.018-0.593-8.047-2.407
	c0.344-0.083,0.656-0.254,0.932-0.208c1.875,0.306,3.748,0.636,5.613,1.002C160.934,86.767,161.462,87.263,161.642,88.223z"/>
<path fill-rule="evenodd" clip-rule="evenodd" fill="#ffffff" class="fill" d="M144.458,83.371c1.12-0.896,1.998-1.597,3.093-2.473
	c-0.155,2.795,0.636,5.103,1.164,7.562C147.345,86.823,145.975,85.186,144.458,83.371z"/>
<path fill-rule="evenodd" clip-rule="evenodd" fill="#ffffff" class="fill" d="M166.619,49.378c-1.359,2.138-2.59,4.093-3.843,6.032
	c-0.6,0.93-1.235,1.837-1.872,2.742c-0.347,0.494-0.364,0.482-1.415,0.478c0.063-0.436-0.018-0.957,0.205-1.239
	c2.116-2.686,4.284-5.331,6.441-7.984C166.155,49.382,166.227,49.399,166.619,49.378z"/>
<path fill-rule="evenodd" clip-rule="evenodd" fill="#ffffff" class="fill" d="M154.204,70.849c-1.132,1.291-4.125,1.541-5.552,0.475
	c0.242-0.995,0.671-1.851,1.821-2.068C151.678,69.027,153.392,69.758,154.204,70.849z"/>
<path fill-rule="evenodd" clip-rule="evenodd" fill="#ffffff" class="fill" d="M96.949,38.938c0.059-0.426,0.11-0.8,0.171-1.244
	c1.6-0.659,3.189-1.147,5.117-0.902c-0.09,0.551-0.164,1.006-0.232,1.425C100.274,38.463,98.669,38.692,96.949,38.938z"/>
<path fill-rule="evenodd" clip-rule="evenodd" fill="#ffffff" class="fill" d="M88.61,31.165c-1.381,0.951-2.762,1.901-4.275,2.944
	c0.049-0.834,0.098-1.649,0.145-2.452c0.789,0,1.474,0.081,2.129-0.022c0.672-0.106,1.315-0.393,1.972-0.601
	C88.59,31.078,88.6,31.121,88.61,31.165z"/>
<path fill-rule="evenodd" clip-rule="evenodd" fill="#ffffff" class="fill" d="M170.233,59.116c-1.905,0.915-5.604,1.718-7.111,1.525
	C165.364,59.567,167.871,59.643,170.233,59.116z"/>
<path fill-rule="evenodd" clip-rule="evenodd" fill="#ffffff" class="fill" d="M113.795,29.835c-0.041-0.389-0.065-0.628-0.085-0.826
	c0.512-0.505,1.177-0.254,1.799,0.646C115.035,30.312,114.47,29.893,113.795,29.835z"/>
<path fill-rule="evenodd" clip-rule="evenodd" fill="#ffffff" class="fill" d="M91.238,28.132c-0.055,0.507-0.086,0.792-0.125,1.156
	c-0.346,0.054-0.666,0.105-1.105,0.175c0-0.452,0-0.809,0-1.246C90.415,28.188,90.733,28.167,91.238,28.132z"/>
<path fill-rule="evenodd" clip-rule="evenodd" fill="#ffffff" class="fill" d="M104.039,29.418c-0.153-0.641,0.117-0.854,0.594-0.865
	c0.465-0.01,0.778,0.157,0.616,0.865C104.863,29.418,104.446,29.418,104.039,29.418z"/>
<path fill-rule="evenodd" clip-rule="evenodd" fill="#ffffff" class="fill" d="M86.788,29.229c0.105,0.302,0.182,0.519,0.289,0.825
	c-0.37,0.145-0.672,0.263-0.94,0.369c-0.135-0.118-0.249-0.168-0.275-0.247C85.621,29.463,86.072,29.314,86.788,29.229z"/>
<path fill-rule="evenodd" clip-rule="evenodd" fill="#ffffff" class="fill" d="M97.904,29.464C97.165,30,97.165,30,96.363,29.47
	C97.024,28.939,97.024,28.939,97.904,29.464z"/>
<path fill-rule="evenodd" clip-rule="evenodd" fill="#ffffff" class="fill" d="M160.058,60.569c0.145-0.222,0.289-0.442,0.646-0.991
	c0.315,0.381,0.521,0.632,0.728,0.881c-0.046,0.125-0.093,0.248-0.139,0.373c-0.361,0.034-0.722,0.068-1.083,0.102
	C160.16,60.812,160.11,60.691,160.058,60.569z"/>
<path fill-rule="evenodd" clip-rule="evenodd" fill="#ffffff" class="fill" d="M92.486,28.085c0.906,0.257,0.806,0.692,0.639,1.254
	c-0.278-0.034-0.499-0.062-0.812-0.1C92.373,28.842,92.419,28.53,92.486,28.085z"/>
<path fill-rule="evenodd" clip-rule="evenodd" fill="#ffffff" class="fill" d="M94.422,28.652c0.935,0.291,0.82,0.593,0.107,1.071
	C94.481,29.247,94.452,28.95,94.422,28.652z"/>
<path fill-rule="evenodd" clip-rule="evenodd" fill="#ffffff" class="fill" d="M111.338,29.18c0.618-0.653,0.955-0.589,1.044,0.325
	C111.947,29.37,111.643,29.274,111.338,29.18z"/>
<path fill-rule="evenodd" clip-rule="evenodd" fill="#ffffff" class="fill" d="M108.774,28.798c0.629,0,0.967,0,1.45,0
	C109.769,29.471,109.424,29.335,108.774,28.798z"/>
<path fill-rule="evenodd" clip-rule="evenodd" fill="#ffffff" class="fill" d="M107.737,29.236c-0.448,0-0.8,0-1.176,0
	c0.043-0.202,0.034-0.347,0.087-0.375C107.06,28.636,107.461,28.517,107.737,29.236z"/>
<path fill-rule="evenodd" clip-rule="evenodd" fill="#ffffff" class="fill" d="M88.535,28.662c0.033,0.358,0.058,0.628,0.095,1.035
	C87.969,29.356,87.8,29.104,88.535,28.662z"/>
<path fill-rule="evenodd" clip-rule="evenodd" fill="#ffffff" class="fill" d="M108.45,36.895c-0.26,0.394-0.52,0.788-0.869,1.32
	c-0.323-0.465-0.557-0.802-0.946-1.363c0.699-0.128,1.18-0.215,1.66-0.303C108.346,36.664,108.398,36.779,108.45,36.895z"/>
<path fill-rule="evenodd" clip-rule="evenodd" fill="#ffffff" class="fill" d="M110.566,37.813c0.415,0.285,0.64,0.44,1.103,0.758
	c-0.582,0.113-0.912,0.177-1.411,0.274C110.374,38.46,110.436,38.25,110.566,37.813z"/>
<path fill-rule="evenodd" clip-rule="evenodd" fill="#ffffff" class="fill" d="M93.335,37.653c-0.553,0.297-0.963,0.517-1.36,0.731
	c-0.204-0.817-0.376-1.507-0.564-2.262C92.237,36.14,92.752,36.716,93.335,37.653z"/>
<path fill-rule="evenodd" clip-rule="evenodd" fill="#ffffff" class="fill" d="M88.853,36.956c0.038,0.139,0.087,0.275,0.111,0.417
	c0.071,0.425,0.132,0.852,0.235,1.529c-0.581-0.22-0.991-0.375-1.553-0.588c0.358-0.598,0.618-1.03,0.877-1.463
	C88.633,36.886,88.744,36.921,88.853,36.956z"/>
</svg>
