<svg version="1.1" id="svg" xmlns="http://www.w3.org/2000/svg" xmlns:xlink="http://www.w3.org/1999/xlink" x="0px" y="0px"
	 width="200px" height="200px" viewBox="0 0 200 200" enable-background="new 0 0 200 200" xml:space="preserve">
<path class="stroke" fill="#693c11"  d="M168.341,87.008c-1.332-3.691-4.28-6.335-6.037-9.737c-1.387-0.725-2.775-1.447-4.158-2.178
	c-0.182-0.095-0.334-0.239-0.506-0.354c-2.456-1.635-4.953-3.122-7.941-3.67c-6.798-1.248-13.566-2.649-20.363-3.9
	c-8.912-1.641-17.573-4.167-26.123-7.125c-7.395-2.557-14.854-4.834-22.807-4.536c-1.711,0-3.43-0.094-5.134,0.02
	c-3.847,0.255-7.142,1.77-9.776,4.62c-1.395,1.509-2.779,3.029-4.13,4.577c-1.919,2.198-3.981,4.179-6.995,4.738
	c-3.117,0.578-6.035,1.639-8.903,3.016c-3.936,1.89-7.548,4.186-10.589,7.306c-1.086,1.115-2.094,2.385-2.828,3.75
	c-2.916,5.428-3.156,11.137-1.204,16.901c1.277,3.772,3.396,7.032,6.884,9.2c2.266,1.409,4.534,2.815,6.832,4.171
	c4.418,2.607,8.784,5.316,13.306,7.733c9.071,4.85,18.538,8.82,28.289,12.095c1.618,0.543,3.286,0.947,4.946,1.353
	c3.982,0.973,7.958,1.992,11.973,2.82c1.657,0.342,3.404,0.282,5.113,0.335c3.334,0.105,6.672,0.266,10.004,0.201
	c2.182-0.043,4.355-0.437,6.533-0.686c5.295-0.605,10.357-2.004,14.99-4.68c2.188-1.263,4.275-2.711,6.342-4.169
	c1.277-0.901,2.52-1.891,3.613-3.002c0.993-1.011,1.721-2.276,2.641-3.367c2.758-3.271,6.048-5.953,9.555-8.368
	c3.598-2.479,5.844-5.928,7.214-9.973C171.036,98.325,170.375,92.647,168.341,87.008z"/>
<path fill-rule="evenodd" clip-rule="evenodd" fill="#faf0e5" class="fill" d="M165.162,92.891c0.209,1.366,0.359,2.349,0.526,3.437
	c-0.674,0.191-1.163,0.331-1.984,0.564c0.705,0.522,1.198,0.888,1.812,1.344c-0.075,0.711-0.158,1.501-0.253,2.396
	c-0.872-0.141-1.558-0.252-2.313-0.374c0.033,1.252,1.158,1.193,1.809,1.934c-0.27,0.913-0.568,1.931-0.854,2.895
	c-1.107,0.128-1.296-1.476-2.689-0.791c0.632,0.755,1.201,1.436,1.902,2.272c-0.556,0.759-1.137,1.55-1.902,2.597
	c-0.752-0.937-1.334-1.663-2.111-2.634c-0.467,1.759,1.195,2.222,1.203,3.55c-0.435,0.401-0.975,0.899-1.634,1.508
	c-0.617-0.773-1.154-1.446-1.706-2.138c-0.424,0.854-0.424,0.854,0.71,3.038c-0.681,0.536-1.405,1.105-2.145,1.687
	c-1.196-0.569-0.985-2.389-2.868-2.646c0.668,1.276,1.201,2.297,1.783,3.411c-0.791,0.628-1.529,1.215-2.299,1.826
	c-1.082-0.54-0.613-2.343-2.393-2.539c0.463,1.141,0.854,2.107,1.418,3.501c-0.534,0.493-1.17,1.079-1.943,1.794
	c-0.83-1.106-1.469-1.959-2.109-2.811c-0.167,0.103-0.334,0.206-0.502,0.309c0.473,1.006,0.945,2.011,1.506,3.207
	c-0.566,0.626-1.188,1.311-1.962,2.167c-0.609-1.007-1.106-1.828-1.796-2.967c-0.453,1.664,0.56,2.602,0.787,3.961
	c-0.508,0.571-1.121,1.263-1.815,2.044c-0.671-1.057-1.247-1.962-1.823-2.868c-0.153,0.08-0.307,0.159-0.461,0.239
	c0.406,1.174,0.812,2.348,1.297,3.752c-1.138,0.947-2.249,1.872-3.473,2.892c-0.858-1.304-0.686-2.842-2.329-3.763
	c0.445,1.582,0.798,2.836,1.206,4.285c-0.99,0.556-1.911,1.072-3.012,1.689c-0.619-1.538-1.156-2.869-1.693-4.2
	c-0.773,1.653,0.559,2.854,0.454,4.598c-0.933,0.376-2.036,0.822-3.306,1.335c-0.803-1.345-1.546-2.588-2.288-3.832
	c-0.159,0.073-0.317,0.145-0.476,0.217c0.508,1.24,1.014,2.48,1.624,3.971c-1.118,0.323-2.116,0.611-3.022,0.873
	c-1.186-1.378-0.619-3.526-2.828-4.548c0.569,1.756,1.016,3.131,1.535,4.733c-1.643,0-3.029,0-4.339,0
	c-0.843-1.161-0.142-2.866-1.897-3.897c0.219,1.426,0.385,2.514,0.579,3.782c-1.263,0-2.326,0-3.651,0
	c-0.447-1.251-0.906-2.539-1.451-4.062c-0.991,1.353-0.002,2.472-0.239,3.681c-0.724,0-1.483,0-2.345,0
	c-0.186-1.1-0.349-2.065-0.555-3.285c-1.111,0.947-0.395,1.988-0.713,2.921c-1.082,0.515-2.143,0.094-3.352-0.271
	c-0.129-1.238-0.256-2.462-0.42-4.031c-1.369,1.278-0.172,2.745-1.154,3.8c-1.119-0.195-2.314-0.404-3.766-0.658
	c-0.073-1.258-0.145-2.491-0.229-3.925c-1.334,1-0.363,2.548-1.433,3.639c-0.822-0.25-1.761-0.535-2.825-0.859
	c0-1.736,0-3.306,0-4.875c-0.159-0.018-0.319-0.035-0.479-0.053c-0.225,1.418-0.449,2.836-0.717,4.528
	c-1.185-0.355-2.257-0.677-3.492-1.047c0-1.487,0-2.883,0-4.604c-1.328,1.158-0.702,2.67-1.607,3.894
	c-0.805-0.312-1.695-0.659-2.562-0.997c0.096-1.535,0.178-2.85,0.26-4.165c-1.474,0.846-0.684,2.365-1.514,3.615
	c-1.053-0.409-2.151-0.837-3.277-1.275c0.104-1.269,0.192-2.364,0.281-3.459c-0.19-0.038-0.381-0.076-0.572-0.114
	c-0.291,0.971-0.582,1.941-0.949,3.164c-1.14-0.44-2.171-0.838-3.232-1.248c0.229-1.356,0.429-2.539,0.684-4.043
	c-1.596,0.842-0.979,2.403-1.924,3.428c-0.833-0.284-1.762-0.6-2.959-1.009c0.256-1.576,0.486-2.995,0.766-4.721
	c-1.53,1.089-1.211,2.666-1.903,3.993c-0.69-0.263-1.36-0.519-2.202-0.839c0.176-0.778,0.322-1.426,0.469-2.072
	c0.146-0.645,0.293-1.29,0.523-2.309c-1.582,1.001-1.215,2.583-2.195,3.71c-0.943-0.458-1.949-0.944-3.08-1.492
	c0.27-1.352,0.513-2.568,0.813-4.075c-1.569,0.818-1.196,2.371-2.116,3.45c-0.795-0.413-1.615-0.838-2.523-1.309
	c0.164-1.012,0.318-1.959,0.471-2.907c-0.141-0.051-0.283-0.104-0.425-0.155c-0.379,0.731-0.758,1.463-1.252,2.418
	c-0.879-0.419-1.753-0.836-2.649-1.264c0.189-0.991,0.338-1.764,0.485-2.536c-0.114-0.058-0.228-0.115-0.341-0.172
	c-0.377,0.622-0.754,1.243-1.25,2.06c-1.076-0.543-2.148-1.083-3.391-1.709c0.157-1.05,0.303-2.022,0.47-3.138
	c-1.339,0.296-0.937,1.613-1.806,2.405c-0.816-0.374-1.748-0.799-2.718-1.242c0.397-1.221,0.702-2.16,1.083-3.329
	c-1.602,0.499-1.371,2.038-2.361,2.922c-0.859-0.357-1.783-0.742-2.975-1.237c0.25-1.509,0.494-2.979,0.805-4.843
	c-1.646,1.237-1.145,2.907-1.895,4.348c-0.863-0.523-1.639-0.993-2.582-1.564c0.218-1.769,0.432-3.501,0.682-5.538
	c-1.846,1.227-0.887,3.273-1.84,4.863c-0.901-0.627-1.703-1.186-2.736-1.906c0.416-1.712,0.826-3.393,1.27-5.214
	c-1.093,0.282-1.16,1.167-1.439,1.864c-0.271,0.68-0.482,1.384-0.729,2.107c-2.063-1.252-2.366-1.931-1.737-3.862
	c0.32-0.985,0.707-1.948,0.896-2.989c-1.503,0.711-1.399,2.403-2.302,3.581c-1.125-1.336-0.777-2.964-1.359-4.336
	c0.387-0.921,0.752-1.794,1.234-2.944c-0.536,0.183-0.852,0.29-1.334,0.454c-0.117-0.43-0.395-0.882-0.318-1.264
	c0.521-2.61,0.874-5.29,1.75-7.783c1.04-2.964,3.837-4.414,6.377-5.867c4.34-2.481,8.89-4.449,13.714-5.94
	c3.952-1.222,7.215-3.862,9.442-7.53c0.463-0.761,0.932-1.52,1.446-2.246c0.929-1.312,2.085-2.4,3.606-2.96
	c4.194-1.541,8.458-2.971,13.004-2.394c2.91,0.37,5.793,1.061,8.646,1.775c5.386,1.349,10.567,3.318,15.75,5.304
	c2.732,1.047,5.633,1.658,8.468,2.43c3.104,0.846,6.192,1.774,9.337,2.44c3.678,0.779,7.391,1.447,11.119,1.926
	c5.996,0.77,11.876,1.859,17.535,4.127c3.143,1.259,5.648,3.13,8.043,5.49c3.054,3.011,3.275,6.779,3.736,10.566
	C165.429,92.366,165.174,92.841,165.162,92.891z M109.796,118.212c4.75,0.078,9.066-0.887,13.227-2.945
	c3.955-1.958,7.076-4.668,9.111-8.555c2.226-4.246,2.047-8.521-0.023-12.809c-1.189-2.462-3.136-4.27-4.941-6.224
	c-2.521-2.729-5.801-4.173-9.239-4.997c-4.548-1.09-9.218-1.114-13.856-0.206c-4.953,0.969-9.469,2.676-12.483,7.057
	c-0.038,0.056-0.093,0.101-0.138,0.152c-3.685,4.209-4.109,9.217-3.539,14.468c0.007,0.067,0.025,0.135,0.048,0.199
	c1.936,5.544,5.086,9.965,10.925,11.958C102.478,117.537,106.144,118.268,109.796,118.212z"/>
<path fill-rule="evenodd" clip-rule="evenodd" fill="#FFDC2E" d="M96.218,96.645c-3.26,1.133-3.25,4.695-5.086,6.904
	c-0.901-0.602-0.473-1.273-0.241-1.875c0.981-2.554,1.993-5.097,2.993-7.644c0.232-0.59,0.461-1.182,0.503-1.863
	c-1.847,0.955-2.356,2.894-3.644,4.627c-0.068-0.542-0.194-0.844-0.124-1.088c0.956-3.328,2.895-6.188,5.513-8.217
	c2.031-1.573,4.734-2.552,7.289-3.109c3.515-0.766,7.133-0.969,10.804-0.672c8.747,0.707,14.956,6.282,16.067,14.699
	c-0.625,0.22-1.272,0.448-2.32,0.817c0.894,0.609,1.479,1.008,2.309,1.574c-0.16,0.908-0.342,1.938-0.614,3.483
	c-0.995-1.181-1.663-1.974-2.446-2.904c-0.455,0.26-0.874,0.501-1.586,0.91c1.086,1.229,2.008,2.271,3.047,3.445
	c-0.49,0.756-1.073,1.658-1.797,2.775c-0.956-1.592-1.784-2.971-2.688-4.474c-0.527,0.074-1.005,0.14-1.697,0.236
	c0.996,2.034,1.881,3.841,2.854,5.827c-1.146,0.766-2.144,1.431-3.377,2.255c-0.914-2.578-1.74-4.91-2.623-7.399
	c-0.652,0.318-1.043,0.508-1.455,0.709c0.812,2.424,1.588,4.736,2.46,7.341c-1.293,0.515-2.505,0.997-3.852,1.533
	c-0.949-3.002-0.75-6.076-2.452-8.53c-0.398,0.063-0.613,0.054-0.782,0.137c-0.171,0.084-0.298,0.259-0.528,0.473
	c0.727,2.572,1.462,5.172,2.285,8.083c-1.593,0.163-2.9,0.297-4.392,0.45c-0.122-1.543-0.175-2.827-0.339-4.097
	c-0.164-1.26-0.441-2.505-0.701-3.942c-0.648,0.237-0.992,0.363-1.46,0.534c0.307,2.439,0.604,4.801,0.939,7.467
	c-1.39-0.126-2.638-0.24-4.095-0.373c-0.236-2.543-0.461-4.951-0.682-7.324c-1.027-0.232-1.312,0.229-1.336,0.947
	c-0.036,1.163-0.045,2.327-0.058,3.49c-0.009,0.668-0.001,1.335-0.001,2.236c-1.055-0.331-1.942-0.61-2.979-0.937
	c-0.607-2.883,0.029-5.688,0.297-8.649c-0.996-0.286-1.557,0.222-1.739,1.091c-0.253,1.201-0.39,2.432-0.501,3.657
	c-0.073,0.804-0.014,1.62-0.014,2.851c-1.067-0.466-1.762-0.769-2.519-1.099c0.147-3.522,1.093-6.772,1.931-10.358
	c-2.156,0.761-2.173,2.417-2.586,3.758c-0.41,1.331-0.636,2.72-1.047,4.545c-0.702-1.005-1.117-1.597-1.557-2.225
	C92.944,103.105,94.618,99.923,96.218,96.645z"/>
</svg>
