<svg version="1.1" xmlns="http://www.w3.org/2000/svg" xmlns:xlink="http://www.w3.org/1999/xlink" x="0px" y="0px" width="200px"
	 height="200px" viewBox="0 0 200 200" enable-background="new 0 0 200 200" xml:space="preserve">
<g id="svg">
	<path class="stroke" fill="#283843"  fill-rule="evenodd" clip-rule="evenodd" d="M101.192,61.397c1.922,0,3.809,0,5.843,0c0.147-0.28,0.334-0.652,0.536-1.014
		c1.763-3.159,3.474-6.348,5.308-9.464c2.609-4.433,5.577-8.636,8.745-12.679c2.157-2.751,5.034-4.522,8.592-4.911
		c1.249-0.136,2.543-0.186,3.781-0.016c1.892,0.26,2.99,1.67,3.61,3.312c0.682,1.805,1.183,3.691,1.602,5.579
		c0.881,3.959,1.185,7.986,1.134,12.04c-0.021,1.674-0.118,3.349-0.097,5.022c0.037,2.99,0.16,5.978,0.202,8.968
		c0.019,1.317-0.078,2.635-0.106,3.952c-0.029,1.353,0.005,2.708-0.068,4.058c-0.177,3.264-0.271,6.54-0.642,9.785
		c-0.386,3.381-1.05,6.732-1.601,10.096c-0.253,1.54-0.494,3.082-0.804,4.61c-0.124,0.608-0.421,1.181-0.57,1.586
		c0.88,0.931,1.802,1.756,2.527,2.726c0.466,0.623,0.781,1.433,0.927,2.204c0.543,2.879,0.354,5.8,0.294,8.704
		c-0.027,1.255-0.372,2.502-0.549,3.757c-0.034,0.242,0.029,0.505,0.075,0.753c0.493,2.637,1.115,5.257,1.455,7.913
		c0.351,2.731,0.416,5.5,0.621,8.252c0.168,2.245,0.355,4.489,0.538,6.733c0.103,1.25,0.252,2.5,0.312,3.752
		c0.181,3.818,0.392,7.637,0.47,11.457c0.071,3.531,0.013,7.064-0.037,10.597c-0.03,2.247-0.044,4.502-0.258,6.735
		c-0.16,1.676-0.622,3.322-0.956,4.982c-0.161,0.798-0.782,1.211-1.452,1.427c-1.988,0.641-3.977,1.342-6.019,1.737
		c-1.431,0.277-2.952,0.081-4.432,0.118c-0.986,0.024-1.975,0.166-2.956,0.117c-2.18-0.11-4.363-0.235-6.53-0.492
		c-1.421-0.168-2.821-0.546-4.217-0.888c-0.986-0.241-1.645-0.857-1.796-1.917c-0.278-1.922-0.593-3.838-0.836-5.764
		c-0.306-2.41-0.566-4.826-0.821-7.242c-0.202-1.905-0.355-3.816-0.556-5.723c-0.085-0.82-0.234-1.634-0.372-2.57
		c-3.793,0.872-7.555,0.745-11.342,0.216c-0.062,0.131-0.149,0.238-0.162,0.353c-0.178,1.633-0.346,3.267-0.516,4.9
		c-0.307,2.954-0.352,5.929-0.992,8.858c-0.538,2.463-0.826,4.982-1.199,7.482c-0.041,0.277,0.096,0.581,0.184,1.043
		c-0.259,0.198-0.602,0.461-0.944,0.724c-0.027-0.08-0.056-0.16-0.082-0.24c-1.005,0.163-2.016,0.298-3.014,0.494
		c-3.114,0.608-6.242,0.82-9.421,0.66c-3.115-0.157-6.215-0.365-9.274-0.979c-1.007-0.202-1.986-0.535-2.98-0.801
		c-0.631-0.168-1.29-0.264-1.894-0.5c-1.161-0.456-2.292-0.989-3.157-1.367c-0.952-1.246-0.751-2.392-0.725-3.486
		c0.071-2.987,0.211-5.972,0.297-8.958c0.101-3.477,0.167-6.956,0.255-10.435c0.064-2.566,0.088-5.135,0.229-7.698
		c0.078-1.407,0.392-2.801,0.55-4.205c0.158-1.407,0.232-2.824,0.388-4.231c0.234-2.11,0.505-4.217,0.766-6.325
		c0.201-1.624,0.398-3.25,0.626-4.872c0.088-0.62,0.229-1.235,0.386-1.844c0.644-2.493,1.37-4.968,1.923-7.481
		c0.234-1.068,0.273-2.175,0.142-3.333c-0.239-2.083-0.27-4.212,0.138-6.311c0.271-1.396,0.348-2.842,0.745-4.197
		c0.579-1.969,1.342-3.888,3.589-4.619c0.349-0.115,0.654-0.367,1.012-0.574c-0.139-0.734-0.19-1.45-0.416-2.106
		c-0.86-2.511-1.039-5.134-1.381-7.733c-0.408-3.104-0.873-6.202-1.279-9.307c-0.157-1.202-0.194-2.419-0.338-3.623
		c-0.229-1.901-0.509-3.796-0.755-5.696c-0.214-1.65-0.408-3.303-0.617-4.953c-0.38-2.968-0.839-5.928-1.121-8.905
		c-0.224-2.361-0.261-4.742-0.332-7.115c-0.06-1.964-0.133-3.935-0.047-5.897c0.085-1.88,0.454-3.748,0.539-5.627
		c0.102-2.249,1.044-4.267,1.562-6.398c0.156-0.64,0.711-1.174,0.917-1.81c0.833-2.57,2.896-3.177,5.206-3.196
		c1.448-0.013,2.947,0.127,4.333,0.519c1.84,0.518,2.924,2.072,3.988,3.571c1.155,1.627,2.406,3.187,3.507,4.849
		c0.693,1.049,1.196,2.226,1.763,3.356c1.108,2.212,2.253,4.409,3.287,6.656c1.253,2.725,2.543,5.435,3.234,8.392
		C100.021,58.457,100.668,59.899,101.192,61.397z M137.48,123.096c-0.577,0.266-1.039,0.507-1.522,0.697
		c-1.244,0.487-2.475,1.024-3.751,1.409c-2.026,0.609-4.064,1.21-6.135,1.628c-1.823,0.367-3.701,0.444-5.546,0.717
		c-1.725,0.256-3.426,0.779-5.153,0.873c-5.984,0.323-11.953-0.007-17.893-0.793c-1.926-0.255-3.826-0.689-5.752-0.935
		c-2.479-0.317-4.976-0.508-7.462-0.785c-2.799-0.311-5.502-1.009-8.114-2.065c-0.62-0.25-1.271-0.422-2.024-0.667
		c-0.372,1.448-0.832,2.772-1.04,4.135c-0.566,3.696-1.112,7.398-1.498,11.116c-0.337,3.24-0.419,6.505-0.661,9.755
		c-0.209,2.773-0.549,5.539-0.713,8.314c-0.18,3.031-0.271,6.071-0.316,9.109c-0.052,3.464-0.01,6.929-0.008,10.393
		c0,0.642,0,1.284,0,1.824c8.958,3.174,17.899,3.359,26.946,2.129c0.089-0.516,0.148-0.835,0.196-1.158
		c0.213-1.446,0.433-2.893,0.631-4.342c0.177-1.298,0.453-2.6,0.463-3.9c0.012-1.636-0.097-3.29-0.349-4.906
		c-0.283-1.813-0.703-3.615-1.219-5.376c-0.316-1.081-1.062-2.002-1.989-2.659c-0.84-0.593-1.826-0.978-2.686-1.548
		c-0.405-0.268-0.665-0.755-0.992-1.144c0.058-0.089,0.114-0.178,0.171-0.267c0.363,0,0.744-0.072,1.084,0.014
		c0.8,0.202,1.579,0.486,2.37,0.723c1.228,0.369,2.437,0.838,3.689,1.063c1.832,0.329,3.694,0.506,5.55,0.7
		c1.252,0.13,2.512,0.249,3.767,0.245c2.429-0.006,4.857-0.087,7.287-0.173c0.616-0.021,1.261-0.086,1.836-0.287
		c1.597-0.556,3.161-1.2,4.742-1.796c0.817-0.308,1.316,0.07,1.208,0.749c-1.178,0.935-2.282,1.806-3.379,2.689
		c-0.152,0.124-0.334,0.291-0.37,0.465c-0.229,1.113-0.594,2.234-0.59,3.35c0.014,2.578,0.193,5.155,0.344,7.731
		c0.072,1.258,0.259,2.508,0.341,3.765c0.161,2.454,0.504,4.874,1.185,7.358c2.04,0.162,4.074,0.4,6.115,0.464
		c1.765,0.055,3.537-0.081,5.305-0.146c0.727-0.027,1.454-0.069,2.179-0.144c0.698-0.072,1.399-0.168,2.089-0.302
		c0.963-0.188,1.927-0.384,2.866-0.658c0.25-0.073,0.548-0.428,0.591-0.691c0.155-0.947,0.239-1.909,0.299-2.869
		c0.202-3.272,0.399-6.545,0.565-9.82c0.101-1.995,0.174-3.992,0.192-5.99c0.014-1.314-0.083-2.63-0.147-3.943
		c-0.096-1.972-0.24-3.942-0.298-5.915c-0.075-2.526-0.084-5.055-0.123-7.583c-0.03-1.888-0.006-3.78-0.117-5.663
		c-0.105-1.811-0.319-3.617-0.546-5.417c-0.327-2.592-0.691-5.179-1.079-7.763C137.935,124.25,137.682,123.72,137.48,123.096z
		 M126.673,100.51c0.001-0.009,0.072-0.176,0.087-0.348c0.209-2.44,0.426-4.881,0.609-7.323c0.185-2.461,0.332-4.925,0.503-7.387
		c0.054-0.781,0.109-1.562,0.198-2.34c0.255-2.232,0.576-4.457,0.777-6.692c0.188-2.098,0.277-4.207,0.373-6.312
		c0.1-2.161,0.202-4.325,0.211-6.487c0.004-1.581-0.166-3.162-0.213-4.745c-0.048-1.563,0.092-3.144-0.089-4.689
		c-0.262-2.249-0.726-4.475-1.135-6.706c-0.101-0.559-0.319-1.096-0.535-1.816c-0.925,1.082-1.737,1.92-2.417,2.854
		c-1.513,2.081-3.025,4.167-4.417,6.329c-1.737,2.699-3.352,5.476-5.021,8.217c-1.023,1.682-2.017,3.384-3.092,5.033
		c-0.7,1.073-1.327,2.136-1.459,3.451c-0.076,0.774-0.279,1.538-0.443,2.302c-0.133,0.618-0.382,1.224-0.428,1.845
		c-0.191,2.646-0.333,5.294-0.479,7.941c-0.075,1.381-0.1,2.764-0.192,4.143c-0.061,0.904-0.266,1.8-0.3,2.705
		c-0.093,2.423-0.133,4.847-0.184,7.272c-0.018,0.846-0.003,1.693-0.003,2.755C114.924,100.51,120.733,100.51,126.673,100.51z
		 M100.505,120.232c-0.291-0.457-0.774-0.979-0.976-1.595c-0.222-0.673-0.182-1.43-0.271-2.281
		c-4.205,0.31-8.298-0.413-12.366-1.152c-4.047-0.737-8.162-1.334-12.009-3.594c-0.148,2.835-0.284,5.419-0.418,7.983
		c0.26,0.156,0.441,0.308,0.651,0.384c2.387,0.875,4.756,1.812,7.176,2.589c3.171,1.019,6.4,1.822,9.745,2.055
		c2.366,0.165,4.729,0.378,7.097,0.532c1.434,0.094,2.873,0.108,4.311,0.174c3.385,0.153,6.771,0.313,10.155,0.474
		c0.708,0.033,1.423,0.155,2.122,0.096c1.733-0.147,3.462-0.357,5.188-0.579c1.224-0.156,2.466-0.272,3.653-0.581
		c2.268-0.589,4.478-1.418,6.76-1.93c2.353-0.529,4.26-1.879,6.336-2.946c0.232-2.86,0.507-5.687,0.123-8.458
		c-1.509,0.61-2.97,1.157-4.394,1.786c-3.142,1.387-6.516,1.958-9.83,2.634c-2.579,0.527-5.281,0.428-7.92,0.69
		c-2.526,0.25-4.986-0.259-7.471-0.501c-0.571-0.056-1.136-0.155-1.736-0.238c-0.048,0.822-0.071,1.476-0.128,2.127
		c-0.061,0.725-0.386,1.189-1.092,1.563C103.806,120.208,102.33,120.264,100.505,120.232z M96.764,99.536
		c0.058-0.192,0.128-0.332,0.139-0.477c0.16-2.088,0.36-4.176,0.461-6.267c0.145-3.008,0.188-6.02,0.331-9.027
		c0.079-1.636,0.222-3.272,0.427-4.897c0.228-1.805-0.04-3.429-1.125-4.952c-0.574-0.806-0.901-1.79-1.322-2.701
		c-0.5-1.086-0.982-2.181-1.472-3.272c-3.602-7.577-6.897-15.295-11.144-22.785c-0.121,0.344-0.188,0.453-0.195,0.565
		c-0.108,1.562-0.303,3.126-0.292,4.688c0.017,2.405,0.158,4.81,0.276,7.214c0.109,2.249,0.245,4.496,0.39,6.741
		c0.156,2.45,0.35,4.897,0.506,7.347c0.185,2.873,0.252,5.756,0.541,8.617c0.396,3.891,0.896,7.773,1.468,11.642
		c0.218,1.477,0.754,2.907,1.313,4.976c0.095,0.67,0.285,1.991,0.492,3.429C90.59,100.1,93.672,99.818,96.764,99.536z"/>
	<path class="stroke" fill="#283843"  fill-rule="evenodd" clip-rule="evenodd" d="M77.426,129.175c0.601,0.111,1.034,0.21,1.473,0.269
		c1.951,0.26,3.897,0.561,5.855,0.747c2.74,0.261,5.488,0.426,8.232,0.644c1.435,0.114,2.873,0.218,4.301,0.399
		c0.668,0.086,0.985,0.628,0.943,1.276c-0.068,1.061-0.218,2.117-0.315,3.177c-0.11,1.175-0.175,2.356-0.312,3.528
		c-0.062,0.52-0.26,1.022-0.383,1.536c-0.077,0.314-0.153,0.633-0.185,0.955c-0.104,1.079-0.187,2.16-0.269,3.134
		c-2.456,2.761-5.545,4.418-8.45,6.313c-0.627,0.408-1.342,0.742-2.062,0.931c-1.42,0.373-2.648-0.06-3.588-1.204
		c-1.187-1.448-2.28-2.98-3.559-4.34c-0.873-0.929-1.48-1.97-1.956-3.103c-0.23-0.544-0.337-1.175-0.356-1.77
		c-0.08-2.649-0.112-5.301-0.154-7.951c-0.01-0.63-0.082-1.279,0.032-1.888C76.838,130.961,77.15,130.12,77.426,129.175z
		 M79.404,142.686c1.517,2.597,3.759,5.122,5.961,7.813c3.251-1.996,6.424-3.86,9.076-6.535c0.364-3.535,0.73-7.084,1.1-10.662
		c-0.427-0.055-0.624-0.089-0.822-0.105c-1.685-0.142-3.373-0.27-5.058-0.424c-1.256-0.114-2.506-0.305-3.764-0.38
		c-1.206-0.072-2.421-0.001-3.629-0.063c-0.924-0.047-1.842-0.204-2.864-0.324C79.404,135.479,79.404,138.874,79.404,142.686z"/>
	<path class="stroke" fill="#283843"  fill-rule="evenodd" clip-rule="evenodd" d="M116.989,147.418c-0.401-2.271-0.585-4.75-0.534-7.261
		c0.036-1.766-0.064-3.539-0.191-5.303c-0.08-1.121,1.335-2.628,2.466-2.533c3.06,0.256,6.065-0.152,9.027-0.96
		c1.307-0.356,2.664-0.522,3.972-0.871c1.066-0.284,2.087-0.727,3.139-1.069c0.832-0.271,1.328,0.095,1.315,0.979
		c-0.023,1.516-0.099,3.03-0.125,4.546c-0.025,1.508-0.015,3.017-0.026,4.525c-0.005,0.688,0.008,1.378-0.045,2.063
		c-0.135,1.796-1.121,3.2-2.19,4.545c-1.272,1.598-2.482,3.264-3.907,4.714c-0.888,0.905-2.107,1.497-3.22,2.159
		c-0.253,0.151-0.711,0.1-1.021-0.008c-2.642-0.917-5.062-2.253-7.243-4.003C117.939,148.569,117.58,148.064,116.989,147.418z
		 M126.352,151.207c0.57-0.493,1.146-0.882,1.584-1.389c1.121-1.294,2.21-2.618,3.251-3.977c0.778-1.016,1.498-2.081,2.175-3.167
		c0.901-1.446,0.393-3.093,0.539-4.645c0.108-1.148,0.07-2.31,0.086-3.466c0.011-0.788,0.002-1.576,0.002-2.31
		c-5.141,0.886-10.07,1.736-15.12,2.606c-0.005,0.125-0.043,0.447-0.033,0.766c0.035,1.086,0.097,2.17,0.13,3.256
		c0.06,1.949,0.101,3.897,0.163,5.846c0.033,1.053,0.159,2.019,1.312,2.564c0.809,0.382,1.511,0.987,2.262,1.488
		C123.878,149.564,125.055,150.344,126.352,151.207z"/>
</g>
<g id="Layer_2">
	<path fill-rule="evenodd" clip-rule="evenodd" fill="#7beeef" class="fill" d="M100.29,77.116c2.45,0,4.88,0,7.384,0
		c-0.505,10.464-1.006,20.853-1.51,31.321c-2.013-1.461-5.335-1.385-6.843,0.229c-0.222-0.266-0.588-0.499-0.608-0.76
		c-0.107-1.301-0.186-2.611-0.154-3.915c0.047-1.895,0.181-3.788,0.307-5.681c0.181-2.725,0.412-5.446,0.575-8.171
		c0.146-2.395,0.215-4.794,0.344-7.19c0.063-1.182,0.036-2.399,0.335-3.525c0.191-0.721,0.403-1.341,0.104-2.048
		C100.208,77.34,100.246,77.281,100.29,77.116z"/>
	<path fill-rule="evenodd" clip-rule="evenodd" fill="#7beeef" class="fill" d="M96.585,66.845c-1.268-2.638-2.513-5.286-3.809-7.909
		c-1.384-2.808-2.818-5.591-4.228-8.387c-1.604-3.184-3.163-6.391-4.834-9.538c-0.412-0.775-1.125-1.426-1.806-2.013
		c-1.157-0.999-2.276-2.148-3.864-2.415c-0.891-0.15-1.83-0.027-2.825-0.027c0.318-1.035,0.502-2.329,1.537-3.03
		c1.437-0.973,3.019-1.779,4.854-1.639c1.277,0.098,2.297,0.684,3.214,1.621c1.18,1.203,2.216,2.485,2.997,3.97
		c0.574,1.092,1.139,2.191,1.683,3.299c0.921,1.872,1.837,3.746,2.729,5.632c0.825,1.746,1.601,3.517,2.433,5.261
		c0.745,1.562,1.588,3.082,2.297,4.66c0.586,1.305,0.934,2.722,1.581,3.992c0.683,1.341,0.399,2.459-0.289,3.644
		c-0.415,0.712-0.705,1.495-1.059,2.241c-0.105,0.221-0.239,0.426-0.359,0.639C96.752,66.845,96.669,66.845,96.585,66.845z"/>
	<path fill-rule="evenodd" clip-rule="evenodd" fill="#7beeef" class="fill" d="M111.364,66.666c-0.96-1.33-1.899-2.632-2.816-3.902
		c0.807-1.488,1.529-2.875,2.302-4.234c1.735-3.059,3.429-6.146,5.271-9.14c1.285-2.091,2.845-4.01,4.174-6.075
		c1.373-2.136,2.847-4.184,4.566-6.051c0.877-0.952,1.881-1.649,3.239-1.76c0.954-0.078,1.894-0.38,2.845-0.413
		c1.631-0.057,3.16,0.315,4.368,1.529c0.086,0.086,0.138,0.207,0.233,0.357c-0.1,0.061-0.171,0.134-0.254,0.149
		c-1.91,0.354-3.304,1.624-4.703,2.798c-1.504,1.261-3.017,2.581-4.219,4.116c-2.266,2.891-4.354,5.925-6.433,8.958
		c-1.512,2.209-2.91,4.497-4.312,6.778c-1.268,2.063-2.468,4.167-3.708,6.247C111.791,66.234,111.594,66.402,111.364,66.666z"/>
	<path fill-rule="evenodd" clip-rule="evenodd" fill="#7beeef" class="fill" d="M100.652,64.059c2.28-0.807,4.483-0.684,6.724-0.813
		c0.821,1.444,1.727,2.798,2.366,4.268c0.271,0.62,0.072,1.496-0.063,2.228c-0.294,1.583-0.685,3.149-1.039,4.721
		c-0.142,0.624-0.476,0.908-1.178,0.901c-1.741-0.016-3.482,0.052-5.224,0.108c-0.634,0.021-1.029-0.221-1.322-0.799
		c-0.755-1.483-1.553-2.945-2.358-4.402c-0.266-0.479-0.347-0.908-0.098-1.432C99.218,67.243,99.936,65.627,100.652,64.059z"/>
	<path fill-rule="evenodd" clip-rule="evenodd" fill="#7beeef" class="fill" d="M103.918,117.72c-0.68,0.168-1.277,0.317-2.005,0.498
		c-0.095-0.991-0.163-1.912-0.273-2.828c-0.208-1.716-0.239-3.41,0.223-5.106c0.219-0.806,0.817-1.083,1.532-1.486
		c0.231,0.376,0.459,0.746,0.687,1.115c-0.054,0.011-0.107,0.021-0.163,0.031C103.918,112.517,103.918,115.093,103.918,117.72z"/>
	<path fill-rule="evenodd" clip-rule="evenodd" fill="#7beeef" class="fill" d="M134.325,101.933c-1.766-0.088-3.422-0.171-5.167-0.259
		c0.136-0.8,0.229-1.361,0.33-1.955c1.76-0.121,3.455-0.237,5.291-0.364C134.633,100.18,134.494,100.974,134.325,101.933z"/>
	<path fill-rule="evenodd" clip-rule="evenodd" fill="#7beeef" class="fill" d="M84.704,97.431c0.091,0.707,0.153,1.197,0.245,1.916
		c-1.785,0.5-3.646,1.023-5.581,1.565c-0.186-0.637-0.338-1.161-0.559-1.914C80.78,98.474,82.696,97.964,84.704,97.431z"/>
	<path fill-rule="evenodd" clip-rule="evenodd" fill="#7beeef" class="fill" d="M81.879,106.787c-0.614-1.426-0.766-3.014-0.499-4.857
		c0.636-0.161,1.321-0.333,2.093-0.529c0.165,1.484,0.314,2.82,0.483,4.336C83.31,106.063,82.613,106.415,81.879,106.787z"/>
	<path fill-rule="evenodd" clip-rule="evenodd" fill="#7beeef" class="fill" d="M129.918,87.416c0.042-0.591,0.067-0.983,0.1-1.441
		c2.422-0.242,4.783-0.479,7.228-0.724c0,0.491,0,0.954,0,1.595C134.853,87.033,132.454,87.218,129.918,87.416z"/>
	<path fill-rule="evenodd" clip-rule="evenodd" fill="#7beeef" class="fill" d="M129.326,95.046c0.082-0.691,0.131-1.105,0.177-1.505
		c2.398-0.274,4.727-0.54,7.164-0.817c-0.046,0.446-0.087,0.83-0.149,1.445C134.201,94.452,131.859,94.738,129.326,95.046z"/>
	<path fill-rule="evenodd" clip-rule="evenodd" fill="#7beeef" class="fill" d="M137.973,75.261c0,0.514,0,0.927,0,1.454
		c-2.367,0.306-4.68,0.606-7.062,0.916c0-0.435,0-0.824,0-1.341C133.232,75.952,135.562,75.612,137.973,75.261z"/>
	<path fill-rule="evenodd" clip-rule="evenodd" fill="#7beeef" class="fill" d="M130.197,84.478c0.07-0.348,0.121-0.604,0.17-0.853
		c2.372-0.598,4.671-1.121,7.091-0.974c0.036,0.371,0.067,0.69,0.106,1.103C135.199,84.365,132.791,84.579,130.197,84.478z"/>
	<path fill-rule="evenodd" clip-rule="evenodd" fill="#7beeef" class="fill" d="M136.904,90.323c0.013,0.288,0.025,0.573,0.047,1.043
		c-2.504,0.335-4.953,0.663-7.522,1.007c0.101-0.622,0.173-1.06,0.252-1.549C132.079,90.657,134.451,90.493,136.904,90.323z"/>
	<path fill-rule="evenodd" clip-rule="evenodd" fill="#7beeef" class="fill" d="M131.833,60.499c0-0.597,0-0.991,0-1.457
		c1.896-0.869,3.808-1.745,5.865-2.689c0,0.655,0,1.069,0,1.561C135.803,58.75,133.877,59.598,131.833,60.499z"/>
	<path fill-rule="evenodd" clip-rule="evenodd" fill="#7beeef" class="fill" d="M130.598,80.235c-0.021-0.394-0.038-0.708-0.062-1.167
		c2.359-0.727,4.799-0.687,7.312-1.056c-0.042,0.495-0.073,0.85-0.099,1.15C135.345,79.522,133.02,79.872,130.598,80.235z"/>
	<path fill-rule="evenodd" clip-rule="evenodd" fill="#7beeef" class="fill" d="M137.909,59.241c0,0.741,0,1.185,0,1.673
		c-2.005,0.737-3.996,1.468-6.083,2.234c-0.02-0.394-0.038-0.752-0.064-1.257C133.745,61.037,135.729,60.181,137.909,59.241z"/>
	<path fill-rule="evenodd" clip-rule="evenodd" fill="#7beeef" class="fill" d="M138.163,63.836c-2.163,0.598-4.266,1.178-6.435,1.777
		c-0.269-0.51-0.083-0.944,0.5-1.18c1.86-0.753,3.732-1.477,5.76-2.274C138.061,62.85,138.108,63.302,138.163,63.836z"/>
	<path fill-rule="evenodd" clip-rule="evenodd" fill="#7beeef" class="fill" d="M74.062,44.623c0.027-0.354,0.065-0.879,0.104-1.412
		c2.247-0.038,4.164,0.782,6.133,1.555c0,0.297,0,0.585,0,0.925C78.258,45.34,76.247,44.997,74.062,44.623z"/>
	<path fill-rule="evenodd" clip-rule="evenodd" fill="#7beeef" class="fill" d="M131.115,73.841c2.357-0.395,4.65-0.78,7.064-1.185
		c-0.071,0.441-0.125,0.771-0.21,1.298c-2.231,0.355-4.479,0.714-6.854,1.092C131.115,74.608,131.115,74.25,131.115,73.841z"/>
	<path fill-rule="evenodd" clip-rule="evenodd" fill="#7beeef" class="fill" d="M74.007,47.333c0-0.331,0-0.658,0-1.144
		c2.187-0.529,4.171,0.358,6.333,0.743c-0.133,0.474-0.223,0.794-0.322,1.154C77.983,47.832,76.036,47.588,74.007,47.333z"/>
	<path fill-rule="evenodd" clip-rule="evenodd" fill="#7beeef" class="fill" d="M136.242,43.207c0.077,0.711,0.129,1.196,0.181,1.676
		c-1.852,1.115-3.636,2.191-5.52,3.327c-0.022-0.399-0.042-0.776-0.066-1.229C132.569,45.771,134.298,44.564,136.242,43.207z"/>
	<path fill-rule="evenodd" clip-rule="evenodd" fill="#7beeef" class="fill" d="M74.523,61.483c-0.056-0.445-0.097-0.79-0.161-1.309
		c0.378-0.129,0.778-0.384,1.179-0.382c1.633,0.01,3.267,0.098,4.952,0.161c0.059,0.404,0.095,0.662,0.14,0.975
		C78.571,61.115,76.582,61.296,74.523,61.483z"/>
	<path fill-rule="evenodd" clip-rule="evenodd" fill="#7beeef" class="fill" d="M136.311,95.542c-0.125,0.527-0.209,0.877-0.298,1.252
		c-2.264,0.187-4.431,0.368-6.679,0.553c0-0.395,0-0.679,0-1.082C131.617,96.028,133.867,95.795,136.311,95.542z"/>
	<path fill-rule="evenodd" clip-rule="evenodd" fill="#7beeef" class="fill" d="M82.341,78.02c0,0.547,0,0.961,0,1.377
		c-1.86,0.247-3.689,0.49-5.585,0.742c-0.048-0.227-0.112-0.538-0.204-0.973C78.394,78.402,80.3,78.231,82.341,78.02z"/>
	<path fill-rule="evenodd" clip-rule="evenodd" fill="#7beeef" class="fill" d="M138.039,65.405c0.033,0.344,0.062,0.661,0.105,1.09
		c-2.163,0.506-4.34,1.014-6.564,1.534c-0.099-0.585,0.104-1.038,0.6-1.18c1.83-0.525,3.68-0.986,5.523-1.466
		C137.791,65.36,137.894,65.394,138.039,65.405z"/>
	<path fill-rule="evenodd" clip-rule="evenodd" fill="#7beeef" class="fill" d="M137.32,50.976c0.057,0.622,0.093,1.03,0.123,1.354
		c-1.941,0.958-3.762,1.856-5.675,2.801c-0.068-0.374-0.123-0.68-0.21-1.156C133.427,53.002,135.275,52.039,137.32,50.976z"/>
	<path fill-rule="evenodd" clip-rule="evenodd" fill="#7beeef" class="fill" d="M137.676,53.553c0.049,0.65,0.073,0.967,0.104,1.375
		c-1.969,0.886-3.916,1.763-5.974,2.689c-0.05-0.417-0.084-0.698-0.13-1.091C133.623,55.561,135.545,54.608,137.676,53.553z"/>
	<path fill-rule="evenodd" clip-rule="evenodd" fill="#7beeef" class="fill" d="M138.058,70.094c0.053,0.406,0.091,0.687,0.151,1.145
		c-2.335,0.48-4.619,0.952-7.02,1.446c0.022-0.417,0.036-0.679,0.053-0.986C133.494,71.168,135.697,70.65,138.058,70.094z"/>
	<path fill-rule="evenodd" clip-rule="evenodd" fill="#7beeef" class="fill" d="M74.156,54.321c-0.034-0.158-0.083-0.395-0.15-0.71
		c2.01-0.728,4.001-0.594,6.064-0.365c0,0.32,0,0.629,0,1.075C78.146,54.321,76.218,54.321,74.156,54.321z"/>
	<path fill-rule="evenodd" clip-rule="evenodd" fill="#7beeef" class="fill" d="M129.781,89.601c0.029-0.409,0.046-0.646,0.071-0.978
		c2.414-0.174,4.772-0.344,7.132-0.514c0.059,0.058,0.116,0.115,0.175,0.173c-0.161,0.19-0.293,0.501-0.489,0.55
		c-0.801,0.198-1.617,0.369-2.438,0.45C132.779,89.424,131.32,89.494,129.781,89.601z"/>
	<path fill-rule="evenodd" clip-rule="evenodd" fill="#7beeef" class="fill" d="M80.121,49.354c-0.041,0.299-0.062,0.464-0.101,0.746
		c-2.034-0.102-4.036-0.203-6.115-0.307c-0.018-0.396-0.032-0.712-0.054-1.162C76.02,48.379,78.017,49.106,80.121,49.354z"/>
	<path fill-rule="evenodd" clip-rule="evenodd" fill="#7beeef" class="fill" d="M77.069,82.397c-0.032-0.185-0.071-0.401-0.104-0.589
		c0.703-0.734,3.635-1.227,5.561-0.936c0.019,0.295,0.036,0.607,0.064,1.069C80.749,82.093,78.96,82.241,77.069,82.397z"/>
	<path fill-rule="evenodd" clip-rule="evenodd" fill="#7beeef" class="fill" d="M81.963,73.636c0,0.409,0,0.771,0,1.117
		c-1.92,0.253-3.76,0.498-5.732,0.759c-0.031-0.25-0.074-0.597-0.134-1.074C78.07,74.169,79.957,73.911,81.963,73.636z"/>
	<path fill-rule="evenodd" clip-rule="evenodd" fill="#7beeef" class="fill" d="M138.016,67.885c0,0.37,0,0.565,0,0.881
		c-2.152,0.509-4.318,1.022-6.586,1.559c0-0.34,0-0.634,0-1.035C133.627,68.822,135.767,68.365,138.016,67.885z"/>
	<path fill-rule="evenodd" clip-rule="evenodd" fill="#7beeef" class="fill" d="M131.249,49.557c1.809-1.124,3.561-2.21,5.461-3.391
		c0.07,0.558,0.11,0.893,0.155,1.248c-1.864,1.015-3.712,2.022-5.68,3.095C131.209,50.154,131.23,49.842,131.249,49.557z"/>
	<path fill-rule="evenodd" clip-rule="evenodd" fill="#7beeef" class="fill" d="M83.572,92.71c0.139,0.235,0.234,0.397,0.441,0.75
		c-1.86,0.472-3.607,0.916-5.46,1.386c-0.066-0.406-0.12-0.736-0.182-1.109C80.014,92.847,81.781,92.896,83.572,92.71z"/>
	<path fill-rule="evenodd" clip-rule="evenodd" fill="#7beeef" class="fill" d="M132.426,103.645c-0.305,1.095-0.558,2-0.809,2.895
		c-0.636,0-1.127,0-1.738,0c0.062-0.997,0.119-1.926,0.18-2.895C130.873,103.645,131.57,103.645,132.426,103.645z"/>
	<path fill-rule="evenodd" clip-rule="evenodd" fill="#7beeef" class="fill" d="M76.009,73.146c-0.06-0.254-0.116-0.502-0.223-0.959
		c2.027-0.276,3.952-0.539,5.975-0.815c0.041,0.452,0.064,0.712,0.096,1.055C79.922,72.665,78.038,72.897,76.009,73.146z"/>
	<path fill-rule="evenodd" clip-rule="evenodd" fill="#7beeef" class="fill" d="M79.052,97.434c-0.062-0.199-0.123-0.358-0.157-0.522
		c-0.035-0.169-0.043-0.344-0.065-0.543c1.533-1.14,3.397-1.066,5.197-1.559C83.798,95.719,81.107,97.074,79.052,97.434z"/>
	<path fill-rule="evenodd" clip-rule="evenodd" fill="#7beeef" class="fill" d="M80.662,62.134c0.077,0.485,0.115,0.726,0.171,1.066
		c-2.063,0.113-4.076,0.224-6.154,0.337c0-0.283,0-0.537,0-0.891C76.692,62.474,78.641,62.307,80.662,62.134z"/>
	<path fill-rule="evenodd" clip-rule="evenodd" fill="#7beeef" class="fill" d="M74.34,58.683c0-0.228,0-0.421,0-0.673
		c1.953-0.431,3.898-0.676,5.936-0.369c0,0.361,0,0.679,0,1.042C78.322,58.683,76.377,58.683,74.34,58.683z"/>
	<path fill-rule="evenodd" clip-rule="evenodd" fill="#7beeef" class="fill" d="M135.998,41.81c-1.821,1.256-3.562,2.457-5.407,3.729
		c-0.097-0.352-0.174-0.64-0.256-0.942c1.78-1.231,3.484-2.41,5.271-3.646C135.747,41.262,135.872,41.535,135.998,41.81z"/>
	<path fill-rule="evenodd" clip-rule="evenodd" fill="#7beeef" class="fill" d="M99.227,114.538c-0.764-0.209-1.115-0.568-1.144-1.261
		c-0.044-1.127-0.136-2.251-0.213-3.487c0.614,0.145,1.062,0.251,1.61,0.379C99.397,111.602,99.314,113.04,99.227,114.538z"/>
	<path fill-rule="evenodd" clip-rule="evenodd" fill="#7beeef" class="fill" d="M74.356,42.006c0.08-0.292,0.145-0.527,0.238-0.874
		c2.222,0.108,4.267,0.608,6.079,1.876c0.007,0.093,0.016,0.186,0.023,0.279c-0.239,0.039-0.5,0.161-0.714,0.104
		c-1.284-0.34-2.551-0.739-3.836-1.079C75.595,42.166,75.017,42.116,74.356,42.006z"/>
	<path fill-rule="evenodd" clip-rule="evenodd" fill="#7beeef" class="fill" d="M73.881,52.041c0.015-0.299,0.029-0.595,0.055-1.119
		c2.015,0.123,3.983,0.244,6.001,0.367c0.065,0.254,0.123,0.479,0.194,0.752C78.037,52.041,76.013,52.041,73.881,52.041z"/>
	<path fill-rule="evenodd" clip-rule="evenodd" fill="#7beeef" class="fill" d="M77.21,84.652c-0.034-0.142-0.092-0.382-0.171-0.709
		c0.179-0.129,0.358-0.364,0.562-0.386c0.89-0.097,1.785-0.133,2.678-0.191c0.771-0.05,1.545-0.099,2.36-0.152
		c0.079,0.339,0.145,0.619,0.217,0.927C80.983,84.31,79.158,84.476,77.21,84.652z"/>
	<path fill-rule="evenodd" clip-rule="evenodd" fill="#7beeef" class="fill" d="M82.996,85.552c0,0.268,0,0.462,0,0.711
		c-1.816,0.229-3.604,0.455-5.449,0.688c-0.042-0.207-0.09-0.444-0.157-0.773C79.195,85.379,81.056,85.448,82.996,85.552z"/>
	<path fill-rule="evenodd" clip-rule="evenodd" fill="#7beeef" class="fill" d="M74.285,55.63c1.983,0,3.863,0,5.811,0
		c-0.016-0.024,0.047,0.032,0.06,0.099c0.027,0.146,0.03,0.295,0.056,0.563c-1.926,0.101-3.823,0.199-5.839,0.304
		C74.353,56.388,74.327,56.093,74.285,55.63z"/>
	<path fill-rule="evenodd" clip-rule="evenodd" fill="#7beeef" class="fill" d="M130.372,82.201c0.067-0.248,0.126-0.457,0.194-0.708
		c2.348-0.357,4.674-0.71,7.067-1.073c0.057,0.319,0.094,0.527,0.131,0.742C135.297,81.509,132.887,81.847,130.372,82.201z"/>
	<path fill-rule="evenodd" clip-rule="evenodd" fill="#7beeef" class="fill" d="M137.092,48.7c0.027,0.503,0.039,0.723,0.053,1.002
		c-1.806,0.922-3.605,1.841-5.428,2.771c-0.397-0.512,0.033-0.778,0.338-0.954C133.659,50.591,135.288,49.704,137.092,48.7z"/>
	<path fill-rule="evenodd" clip-rule="evenodd" fill="#7beeef" class="fill" d="M82.432,76.651c-2.054,0.379-3.907,0.72-5.856,1.079
		c-0.043-0.217-0.096-0.475-0.146-0.721C77.675,76.264,81.678,75.864,82.432,76.651z"/>
	<path fill-rule="evenodd" clip-rule="evenodd" fill="#7beeef" class="fill" d="M77.791,89.055c0-0.157,0-0.4,0-0.681
		c1.699-0.793,3.542-0.58,5.373-0.815c0,0.287,0,0.55,0,0.832C81.375,88.612,79.596,88.832,77.791,89.055z"/>
	<path fill-rule="evenodd" clip-rule="evenodd" fill="#7beeef" class="fill" d="M75.432,69.525c-0.088-0.146-0.153-0.206-0.16-0.273
		c-0.013-0.123,0.009-0.249,0.02-0.462c1.965-0.61,3.953-0.967,6.016-0.648c0.016,0.099,0.033,0.197,0.05,0.295
		C79.393,68.798,77.429,69.159,75.432,69.525z"/>
	<path fill-rule="evenodd" clip-rule="evenodd" fill="#7beeef" class="fill" d="M80.329,41.203c-1.849-0.497-3.511-0.942-5.262-1.413
		c0.043-0.2,0.092-0.429,0.142-0.661C77.121,39.26,78.99,39.349,80.329,41.203z"/>
	<path fill-rule="evenodd" clip-rule="evenodd" fill="#7beeef" class="fill" d="M75.277,67.204c1.886-0.82,3.874-1.047,5.953-1.2
		c0.052,0.292,0.088,0.498,0.129,0.727C79.285,66.893,77.282,67.048,75.277,67.204z"/>
	<path fill-rule="evenodd" clip-rule="evenodd" fill="#7beeef" class="fill" d="M74.97,65.65c0-0.212,0-0.446,0-0.909
		c1.907-0.107,3.782-0.213,5.657-0.318c0.009,0.09,0.018,0.182,0.027,0.272C78.775,65.011,76.896,65.327,74.97,65.65z"/>
	<path fill-rule="evenodd" clip-rule="evenodd" fill="#7beeef" class="fill" d="M82.467,90.005c-1.458,0.348-2.916,0.696-4.451,1.062
		C78.268,90.101,80.166,89.627,82.467,90.005z"/>
	<path fill-rule="evenodd" clip-rule="evenodd" fill="#7beeef" class="fill" d="M106.461,113.878c0-0.591,0-1.182,0-1.772
		c0-0.583,0-1.166,0-1.843c0.242-0.013,0.471-0.025,0.796-0.042c-0.052,1.303,0.073,2.539-0.468,3.68
		C106.681,113.893,106.571,113.885,106.461,113.878z"/>
	<path fill-rule="evenodd" clip-rule="evenodd" fill="#7beeef" class="fill" d="M135.214,39.518c-1.526,1.087-3.054,2.174-4.581,3.261
		c0.307-0.911,2.815-2.743,4.476-3.44C135.144,39.399,135.18,39.458,135.214,39.518z"/>
	<path fill-rule="evenodd" clip-rule="evenodd" fill="#7beeef" class="fill" d="M81.545,70.185c-1.854,0.241-3.708,0.482-5.561,0.724
		c-0.012-0.066-0.023-0.131-0.035-0.196c1.788-0.689,3.722-0.495,5.56-0.881C81.521,69.949,81.533,70.067,81.545,70.185z"/>
	<path fill-rule="evenodd" clip-rule="evenodd" fill="#7beeef" class="fill" d="M83.116,91.544c-0.603,0.052-1.202,0.105-1.805,0.159
		c-0.007-0.071-0.015-0.142-0.022-0.213c0.605-0.096,1.212-0.192,1.818-0.289C83.11,91.315,83.113,91.429,83.116,91.544z"/>
</g>
</svg>
