<svg version="1.1" id="svg" xmlns="http://www.w3.org/2000/svg" xmlns:xlink="http://www.w3.org/1999/xlink" x="0px" y="0px"
	 width="200px" height="200px" viewBox="0 0 200 200" enable-background="new 0 0 200 200" xml:space="preserve">
<path class="stroke" fill="#205165"  d="M167.623,77.351c-0.863-1.126-1.297-2.42-1.854-3.678c-1.127-2.546-2.455-5.021-4.683-6.742
	c-2.26-1.746-4.749-3.196-7.471-4.142c-2.371-0.827-4.858-1.159-7.324-0.78c-3.556,0.547-6.927,1.792-10.024,3.622
	c-3.899,2.301-5.626,6.096-6.071,10.341c-0.371,3.553,0.139,7.121,1.568,10.507c0.963,2.278,1.805,4.615,2.561,6.971
	c0.875,2.731,1.453,5.535,1.26,8.437c-0.034,0.486-0.151,0.968-0.239,1.514c-3.435-0.965-6.676-1.876-10.072-2.831
	c-0.193-0.46-0.465-1.064-0.702-1.684c-1.325-3.433-3.019-6.684-4.974-9.788c-1.064-1.69-2.378-3.222-3.486-4.886
	c-2.247-3.371-5.119-6.125-8.23-8.672c-0.484-0.396-0.882-1-1.103-1.589c-0.417-1.109-0.623-2.297-1.012-3.416
	c-0.731-2.111-1.333-4.276-2.509-6.21c-1.029-1.696-2.283-1.884-3.714-0.507c-0.273,0.263-0.503,0.573-0.75,0.864
	c-0.32,0.379-0.639,0.762-0.977,1.161c-2.358-3.171-4.13-4.506-6.267-4.689c-0.339,0.248-0.753,0.551-1.226,0.896
	c-0.065,1.003-0.128,1.975-0.191,2.949c-1.437-0.313-2.813-0.671-4.21-0.905c-1.452-0.245-2.918-0.3-4.248,0.239
	c-0.587,1.214,0.891,1.72,0.668,2.848c-3.093-0.237-6.194-1.127-9.288-0.227c-0.991,1.225,0.499,2.363,0.08,3.586
	c-1.928,0.126-3.961-0.394-5.693,1.147c0.154,0.554,0.312,1.122,0.504,1.809c-1.835,0.06-3.772-0.559-5.175,1.4
	c0.387,1.041,0.805,2.158,1.257,3.37c-1.045,0.133-1.896,0.21-2.734,0.353c-0.837,0.144-1.717,0.228-2.33,1.023
	c-0.26,1.213,0.708,2.071,1.038,3.215c-0.967,0.708-2.102,1.255-2.308,2.697c-0.204,1.424,0.741,2.269,1.434,3.295
	c-1.222,1.095-2.923,1.634-3.46,3.753c0.644,0.544,1.394,1.175,2.373,2c-3.024,0.139-4.992,1.439-5.736,4.314
	c-2.319,0.829-3.256,2.505-2.781,4.808c-1.92,1.942-2.215,3.592-0.938,6.085c-0.215,0.086-0.416,0.21-0.635,0.249
	c-2.151,0.392-4.3,0.812-6.462,1.131c-0.837,0.122-1.729,0.126-2.561-0.018c-2.997-0.521-6.013-0.996-8.853-2.188
	c-0.47-0.197-1.021-0.278-1.534-0.278c-1.44,0.001-2.276,1.149-1.864,2.534c0.106,0.355,0.305,0.699,0.525,1.003
	c1.601,2.192,3.582,3.962,6.047,5.116c1.463,0.685,3.001,1.205,4.498,1.818c0.3,0.123,0.598,0.289,0.849,0.493
	c1.031,0.841,2.06,1.688,3.062,2.563c1.89,1.651,4.135,2.497,6.558,2.98c1.959,0.393,3.907,0.838,5.86,1.261
	c1.114,0.24,2.232,0.479,3.345,0.726c2.275,0.507,4.553,1.015,6.825,1.537c0.146,0.033,0.266,0.188,0.451,0.326
	c-1.979,0.576-2.96,0.6-4.727,0.136c-0.396-0.105-0.82-0.409-1.137,0.329c0.219,0.164,0.438,0.404,0.707,0.513
	c2.751,1.099,5.562,0.861,8.26-0.013c2.177-0.704,4.317-0.694,6.48-0.377c2.593,0.379,5.166,0.891,7.735,1.407
	c6.109,1.23,12.238,1.109,18.36,0.227c3.77-0.545,7.497-1.368,11.264-1.936c3.826-0.575,7.671-0.858,11.535-0.197
	c2.39,0.409,4.798,0.651,7.062,1.665c2.536,1.131,5.255,1.683,7.996,2.076c0.432,0.063,0.933,0.366,1.348-0.251
	c-0.86-1.191-2.367-1.029-3.502-1.623c-1.146-0.599-2.437-0.933-3.551-1.995c0.48-0.071,0.752-0.112,1.021-0.15
	c3.209-0.438,6.383-0.061,9.533,0.487c3.258,0.567,6.509,0.964,9.803,0.37c2.917-0.527,5.781-1.224,8.327-2.83
	c0.535-0.338,0.995-0.797,1.491-1.199c-0.028-0.123-0.059-0.247-0.087-0.371c-0.37-0.077-0.742-0.226-1.11-0.215
	c-0.47,0.011-0.967,0.077-1.397,0.254c-0.884,0.364-1.63,0.102-2.461-0.225c-2.075-0.815-4.194-1.518-6.294-2.271
	c-0.424-0.151-0.843-0.316-1.277-0.479c0.391-1.354,0.786-2.527,1.063-3.727c0.979-4.229,1.908-8.484,1.655-12.853
	c-0.301-5.198-1.691-10.122-4.127-14.743c-0.599-1.136-1.128-2.311-1.692-3.463c-0.605-1.241-1.113-2.546-1.854-3.699
	c-0.98-1.526-0.862-2.944-0.081-4.376c1.214-0.912,2.446-1.437,4.146-0.889c1.08,1.182,2.427,2.423,3.488,3.872
	c1.688,2.303,3.365,4.669,3.685,7.637c0.285,2.658,1.331,5.048,2.435,7.429c0.538,1.159,1.344,2.078,2.422,2.754
	c1.012,0.636,2.081,0.429,2.987-0.11c0.875-0.521,0.914-1.498,0.688-2.44c-0.27-1.11-0.589-2.212-0.817-3.33
	c-0.142-0.692-0.291-1.427-0.206-2.113c0.354-2.795,1.001-5.526,2.059-8.209c1.147-0.623,2.014-1.504,2.186-2.923
	C168.273,79.876,168.496,78.489,167.623,77.351z"/>
<path class="stroke" fill="#205165"  d="M124.395,134.322c-2.533-0.414-5.062-0.863-7.605-1.207c-2.654-0.358-5.3-0.409-7.918,0.422
	c-1.856,0.589-3.754,1.075-5.659,1.489c-2.333,0.508-4.694,0.76-7.088,0.363c-0.831-0.139-1.675-0.178-2.506-0.261
	c-0.346,0.765,0.145,1.033,0.582,1.315c1.305,0.842,2.744,1.342,4.274,1.518c2.966,0.343,5.928,0.227,8.758-0.76
	c3.804-1.323,7.622-1.479,11.55-0.728c1.438,0.275,2.962,0.472,4.397,0.302c2.262-0.266,4.486-0.861,6.72-1.343
	c0.303-0.064,0.574-0.272,0.952-0.459c-0.18-0.3-0.311-0.517-0.483-0.805C128.358,134.934,126.378,134.647,124.395,134.322z"/>
<path class="stroke" fill="#205165"  d="M86.256,135.077c-1.374-0.636-2.737-1.491-4.188-1.715c-2.38-0.368-4.844-0.544-7.24-0.362
	c-2.25,0.171-4.479,0.825-6.676,1.422c-2.66,0.721-5.291,1.131-8.003,0.339c-0.329-0.097-0.712-0.013-1.068-0.013
	c-0.059,0.122-0.117,0.243-0.175,0.365c0.262,0.22,0.492,0.522,0.794,0.647c1.713,0.705,3.406,1.486,5.176,2.011
	c1.822,0.541,3.728,0.824,5.633,0.329c1.604-0.417,3.23-0.785,4.783-1.346c3.149-1.137,6.311-1.767,9.64-0.905
	c0.669,0.172,1.382,0.17,2.387,0.284C86.831,135.636,86.599,135.235,86.256,135.077z"/>
<path fill-rule="evenodd" clip-rule="evenodd" fill="#ffffff" class="fill" d="M80.852,127.989c-0.226-1.087-0.435-2.087-0.645-3.09
	c-0.983,0.3-0.983,0.3-0.877,2.7c-0.652-0.03-1.291-0.062-2.023-0.098c-0.143-0.927-0.275-1.794-0.415-2.678
	c-0.899,0.401-0.899,0.401-1.04,2.634c-0.574-0.032-1.148-0.066-1.815-0.104c-0.061-0.867-0.112-1.6-0.169-2.418
	c-1.471,0.264-0.731,1.494-1.209,2.299c-1.336,0.104-2.784,0.219-3.849,0.301c-2.69-0.489-5.02-0.912-7.397-1.345
	c-0.136-0.907-0.265-1.779-0.411-2.768c-1.225,0.544-0.455,1.571-0.877,2.419c-0.447-0.085-0.956-0.18-1.529-0.287
	c0-0.873,0-1.61,0-2.486c-1.306,0.346-0.727,1.48-1.184,2.225c-0.366,0-0.798,0-1.351,0c-0.095-0.717-0.176-1.352-0.27-2.062
	c-1.014,0.185-0.711,1.046-0.969,1.615c-0.217,0-0.434,0-0.676,0c-0.171-0.503-0.328-0.967-0.592-1.744
	c-0.343,0.677-0.541,1.064-0.769,1.514c-1.273-0.373-2.714-0.389-3.71-1.832c0.425-0.043,0.724-0.129,1.004-0.093
	c2.922,0.385,5.692-0.3,8.407-1.239c0.619-0.214,1.114-0.787,1.747-1.254c0.147,0.007,0.453,0.021,0.724,0.034
	c0.074-0.185,0.161-0.292,0.136-0.355c-0.74-1.871-0.913-2.108-1.806-2.372c0.061,0.501,0.114,0.945,0.183,1.51
	c-0.417-0.045-0.808-0.087-1.196-0.127c-0.365-0.48-0.706-0.923-1.078-1.415c-0.889,0.655,0.064,1.246-0.145,1.999
	c-0.235,0.095-0.599,0.24-1.012,0.405c-0.356-0.566-0.65-1.036-0.963-1.53c-1.34,0.221-0.163,1.176-0.601,1.729
	c-0.146,0.016-0.371,0.041-0.647,0.07c-0.284-0.42-0.562-0.828-0.816-1.205c-0.906,0.156-0.359,0.925-0.733,1.343
	c-1.209-0.103-2.504,0.367-3.995-0.488c1.12-0.166,1.977-0.294,2.901-0.432c0.059-0.268,0.114-0.534,0.219-1.008
	c-1.723,0.104-3.353,0.299-4.978,0.272c-1.642-0.028-3.277-0.275-4.916-0.426c-0.002-0.104-0.003-0.206-0.004-0.311
	c0.519-0.098,1.036-0.197,1.628-0.31c0.07-0.302,0.14-0.6,0.216-0.926c-1.368,0-2.65-0.047-3.93,0.011
	c-2.151,0.097-4.14-0.529-6.105-1.279c-0.222-0.084-0.47-0.163-0.637-0.317c-1.312-1.217-2.608-2.453-4.133-3.893
	c1.189-0.152,1.999-0.035,2.821,0.174c2.076,0.529,4.164,1.011,6.241,1.541c2.335,0.596,4.64,0.218,6.947-0.154
	c2.069-0.332,4.134-0.71,6.214-0.959c0.62-0.075,1.298,0.159,1.924,0.343c4.156,1.215,8.283,2.541,12.467,3.641
	c1.682,0.44,3.487,0.406,5.24,0.564c1.419,0.13,2.842,0.226,4.379,0.345c0.161-0.49,0.304-0.92,0.477-1.44c0.889,0,1.877,0,2.948,0
	c0.993,1.485,1.987,2.972,3.126,4.673c0.262-0.492,0.438-0.822,0.633-1.188c-0.653-1.124-1.271-2.187-1.953-3.358
	c0.35-0.068,0.595-0.117,0.716-0.14c0.668,1.951,2.211,3.212,3.011,4.947c0.923-0.334,0.905-0.825,0.561-1.399
	c-0.562-0.933-1.139-1.858-1.829-2.982c0.858,0.149,1.351,0.662,1.899,0.905c0.912,1.635,1.792,3.213,2.682,4.784
	c0.035,0.061,0.168,0.065,0.313,0.116c0.688-0.78,0.122-1.493-0.166-2.19c-0.285-0.695-0.651-1.356-0.995-2.062
	c0.634-0.331,1.068-0.12,1.402,0.354c0.468,0.662,0.911,1.343,1.354,2.019c0.309,0.472,0.601,0.957,0.915,1.458
	c1.044-0.499,0.508-1.17,0.295-1.717c-0.232-0.597-0.595-1.142-0.94-1.782c0.888-0.002,0.888-0.002,2.315,1.972
	c0.241-0.074,0.515-0.158,0.886-0.271c-0.297-0.64-0.54-1.165-0.894-1.931c2.189,0.724,3.227,3.081,5.718,3.109
	c-0.27-1.717-2.042-2.076-2.506-3.513c0.378-0.1,0.711-0.188,0.978-0.258c4.263,2.945,4.362,2.988,5.818,2.408
	c-0.9-1.941-2.803-2.905-4.21-4.554c-0.71-0.015-1.502-0.054-2.29-0.045c-2.384,0.033-4.774,0.218-7.149,0.084
	c-1.915-0.108-3.731-0.77-5.082-2.282c-0.205-0.229-0.334-0.524-0.607-0.963c2.041,0.131,3.879,0.248,5.715,0.367
	c0.38,0.025,0.777,0.146,1.138,0.075c1.842-0.372,3.448,0.387,5.094,0.987c1.569,0.575,3.152,1.102,5.1,0.784
	c-0.276-0.327-0.414-0.616-0.643-0.733c-0.329-0.174-0.719-0.246-1.09-0.321c-1.979-0.402-3.829-1.159-5.56-2.176
	c-1.386-0.816-2.342-2.012-2.882-3.67c1.507-0.86,3.118-0.246,4.5-0.746c1.056,0.3,2.065,0.586,3.059,0.869
	c1.048,1.465,2.055,2.128,3.646,2.237c-0.542-0.528-0.965-0.884-1.315-1.297c-0.362-0.43-0.653-0.917-0.875-1.236
	c-0.042-1.492,1.535-1.304,2.022-2.372c-1.513-0.045-2.352,0.841-3.254,1.76c-2.806-1.192-5.613-2.349-8.384-3.588
	c-0.622-0.278-1.184-0.791-1.636-1.314c-0.249-0.289-0.208-0.828-0.319-1.355c2.641-0.981,5.228-1.18,7.861-1.481
	c0.151,0.574,0.27,1.021,0.404,1.522c0.671,0.345,1.008,1.352,2.184,1.108c-0.44-0.945-1.463-1.552-1.193-2.714
	c0.695-1.016,2.042-0.086,2.905-0.931c-0.549-0.769-1.303-0.611-2-0.453c-0.687,0.154-1.347,0.422-1.874,0.595
	c-2.119-0.541-4.157-0.998-6.153-1.593c-1.363-0.405-2.695-0.948-3.986-1.544c-0.518-0.239-0.891-0.79-1.416-1.279
	c0.384-0.387,0.601-0.709,0.901-0.892c2.396-1.452,4.92-2.314,7.755-1.521c1.513,0.425,3.035,0.823,4.517,1.339
	c0.749,0.261,1.415,0.754,2.201,1.188c0.163-0.12,0.372-0.272,0.7-0.511c-1.364-1.735-3.11-3.258-2.662-5.728
	c0.94-0.6,1.746-0.245,2.437,0.265c1.555,1.147,2.783,2.575,3.409,4.486c-0.833,0.599-2.012,1-1.787,2.312
	c0.102,0.597,0.049,1.461,1.041,1.677c0.432-0.874-0.44-1.898,0.554-2.647c1.271-0.671,1.826,1.246,3.124,1.092
	c0.372-1.445-0.902-1.569-1.688-2.186c-0.309-1.084-0.641-2.254-1.044-3.678c1.66,1.039,3.12,1.953,4.615,2.89
	c-0.175,0.877-0.325,1.629-0.505,2.536c0.798-0.521,0.798-0.521,1.471-1.638c0.313,0.28,0.611,0.545,0.946,0.846
	c-0.358,0.979-0.688,1.88-1.019,2.781c0.105,0.058,0.208,0.116,0.311,0.175c0.52-0.694,1.038-1.389,1.644-2.196
	c0.359,0.281,0.71,0.553,1.108,0.864c-0.386,0.83-0.733,1.578-1.138,2.45c1.147-0.079,1.266-1.119,2.006-1.597
	c0.392,0.311,0.785,0.623,1.337,1.061c-0.602,1.01-1.158,1.946-1.861,3.134c1.475-0.324,1.83-1.476,2.612-2.305
	c0.374,0.321,0.715,0.615,1.187,1.021c-0.758,0.838-1.44,1.597-2.12,2.351c0.948,0.24,1.045,0.191,2.664-1.392
	c0.219,0.205,0.439,0.414,0.802,0.755c-0.846,0.999-1.651,1.95-2.518,2.974c1.533,0.045,2.102-1.216,3.081-2.125
	c0.35,0.435,0.656,0.815,1.071,1.334c-1.006,0.9-1.936,1.73-2.864,2.561c0.066,0.087,0.131,0.176,0.196,0.263
	c1.313-0.141,2.112-1.209,3.214-2.066c0.363,0.656,0.698,1.262,1.102,1.993c-0.857,0.634-1.665,1.232-2.614,1.935
	c1.42,0.456,2.058-0.725,3.158-0.973c0.263,0.487,0.543,1.004,0.891,1.646c-0.995,0.513-1.871,0.963-2.742,1.412
	c0.478,0.64,0.478,0.64,3.174-0.442c0.221,0.396,0.453,0.813,0.721,1.296c-0.433,0.27-0.75,0.465-1.064,0.664
	c-0.268,0.169-0.533,0.342-0.875,0.561c0.814,0.818,1.373-0.078,1.998-0.134c0.513,0.038,1.024,0.075,1.752,0.128
	c0-0.406,0.096-0.771-0.015-1.06c-1.07-2.813-2.285-5.533-4.26-7.881c-1.685-2.003-3.199-4.149-4.789-6.232
	c-2.467-3.232-5.643-5.646-9.016-7.835c-0.158-0.103-0.314-0.21-0.393-0.262c-1.002-3.297-1.974-6.506-2.949-9.715
	c0.073-0.05,0.146-0.096,0.22-0.143c0.451,0.597,0.897,1.196,1.354,1.792c0.483,0.633,0.978,1.261,1.665,2.146
	c0.171-1.151-0.211-1.863-0.633-2.562c-0.565-0.937-1.257-1.816-1.687-2.81c-0.469-1.077-0.724-2.251-1.023-3.396
	c-0.492-1.88-0.9-3.783-1.44-5.65c-0.179-0.616-0.663-1.14-0.978-1.722c-0.133-0.243-0.184-0.528-0.271-0.793
	c0.097-0.057,0.19-0.112,0.286-0.168c0.238,0.253,0.555,0.465,0.703,0.764c0.635,1.275,1.28,2.555,1.813,3.877
	c0.783,1.94,1.461,3.923,2.221,5.874c0.167,0.433,0.434,0.85,0.737,1.206c2.587,3.054,5.093,6.188,7.821,9.114
	c3.903,4.188,6.512,9.136,8.905,14.242c0.443,0.947,0.897,1.89,1.372,2.884c3.138,1.904,6.798,2.35,10.271,3.547
	c-0.214,1.217-0.991,2.104-1.756,3.032c0.105,0.271,0.204,0.527,0.304,0.783c1.176,0.274,1.975-0.185,2.617-1.075
	c0.92-1.274,1.271-2.77,1.618-4.247c1.13-4.802,0.588-9.453-1.336-13.979c-1.002-2.361-2.182-4.69-2.82-7.154
	c-0.987-3.814-1.161-7.719,0.189-11.554c0.779-2.215,2.196-3.875,4.223-5.017c1.204-0.678,2.42-1.34,3.664-1.94
	c2.557-1.236,5.255-1.646,8.07-1.24c0.754,0.106,1.507,0.219,2.256,0.359c3.159,0.592,5.617,2.496,8.111,4.339
	c2.685,1.982,4.354,4.625,5.151,7.839c0.11,0.446,0.138,0.911,0.222,1.49c-2.19-0.156-3.726-1.365-5.326-2.403
	c0.307-3.687-1.092-4.516-4.828-2.895c-1.534,2.164-0.996,3.378,2.129,4.59c-0.523,1.641-1.483,3.013-2.562,4.471
	c-0.609-0.718-1.095-1.357-1.653-1.93c-0.963-0.986-1.917-1.995-2.973-2.878c-2.039-1.707-5.243-1.237-6.802,0.921
	c-0.083,0.115-0.176,0.221-0.209,0.261c-0.622,0.232-1.166,0.437-1.71,0.64c0.003,0.108,0.01,0.22,0.014,0.328
	c0.356,0.148,0.714,0.297,1.13,0.472c0,0.232,0,0.497,0,0.881c-0.456,0.037-0.876,0.042-1.28,0.116
	c-0.323,0.058-0.632,0.202-0.945,0.31c0.013,0.117,0.025,0.235,0.04,0.352c0.712,0.157,1.423,0.312,2.257,0.493
	c0.106,0.384,0.228,0.823,0.349,1.266c-0.87,0.502-2.006,0.135-2.734,1.196c1.135,0.523,2.275-0.31,3.416,0.368
	c0.185,0.39,0.441,0.93,0.758,1.597c-0.984,0.1-1.797,0.181-2.669,0.269c0.057,1.076,0.682,0.979,1.307,0.943
	c0.564-0.034,1.133-0.008,1.803-0.008c0.179,0.428,0.353,0.851,0.534,1.283c-0.984,0.567-2.152-0.107-3.226,0.759
	c1.32,0.931,2.759,0.27,4.089,0.877c0.105,0.23,0.278,0.602,0.459,0.99c-0.971,0.837-2.328,0.093-3.333,1.037
	c1.238,1.076,2.666-0.041,3.962,0.583c0.112,0.342,0.255,0.777,0.401,1.226c-1.048,0.421-2.242-0.228-3.242,0.675
	c1.204,1.064,2.644,0.125,3.906,0.866c0.136,0.388,0.316,0.914,0.536,1.55c-1.247,0.087-2.421-0.506-3.662,0.155
	c0.518,0.915,1.381,0.512,2.022,0.697c0.681,0.195,1.358,0.396,2.096,0.613c0.099,0.624,0.185,1.179,0.299,1.896
	c-1.224-0.116-2.356-0.226-3.489-0.334c-0.026,0.12-0.054,0.238-0.08,0.355c0.97,1.129,2.724,0.37,3.878,1.526
	c0.032,0.38,0.078,0.92,0.124,1.466c-1.34-0.087-2.534-0.175-3.73-0.224c-0.083-0.002-0.178,0.288-0.264,0.436
	c1.376,0.363,2.689,0.711,4.062,1.074c0.039,0.663,0.066,1.16,0.097,1.707c-1.295,0.267-2.364-1.069-3.907-0.144
	c1.444,0.564,2.635,1.032,3.864,1.516c0,0.709,0,1.308,0,2.021c-1.243,0.088-2.41-0.875-3.629-0.407
	c-0.031,0.12-0.065,0.239-0.097,0.358c1.233,0.452,2.469,0.903,3.779,1.385c-0.087,0.776-0.16,1.417-0.233,2.073
	c-1.306-0.187-2.406-1.14-3.656-0.563c-0.032,0.116-0.064,0.232-0.097,0.349c1.203,0.454,2.406,0.91,3.707,1.401
	c-0.148,0.887-0.27,1.616-0.428,2.574c-1.072-0.496-1.993-0.922-2.962-1.371c-0.181,0.167-0.342,0.314-0.646,0.596
	c1.139,0.673,2.177,1.286,3.242,1.915c-0.189,0.656-0.342,1.195-0.518,1.81c-1.261-0.183-1.967-1.171-3.145-1.84
	c-0.099,0.131-0.232,0.306-0.494,0.654c1.05,0.84,1.999,1.598,3.058,2.445c-0.125,0.346-0.26,0.721-0.411,1.143
	c-1.343-0.306-2.089-1.796-3.852-1.551c0.917,1.224,2.324,1.611,3.113,2.88c-0.488,0.755-1.021,1.575-1.467,2.266
	c-2.147-0.129-4.133-0.354-6.116-0.338c-1.993,0.016-3.984,0.275-6.177,0.442c-0.17-0.109-0.518-0.334-0.9-0.58
	c-0.325,0.276-0.606,0.517-0.922,0.783c-0.485,0.056-1.004,0.115-1.557,0.176c-0.352-0.396-0.686-0.77-0.978-1.098
	c-0.964,0.061-0.554,0.945-0.988,1.359c-0.23,0.015-0.504,0.031-0.735,0.045c-0.395-0.491-0.745-0.926-1.059-1.315
	c-1.105,0.2-0.591,0.979-0.706,1.597c-0.411,0.021-0.821,0.039-1.163,0.057c-0.534-0.594-1.001-1.11-1.519-1.685
	c-0.306,0.276-0.502,0.454-0.731,0.662c0.206,0.431,0.381,0.802,0.553,1.163c-0.654,0.613-1.36,0.479-2.074,0.36
	c-2.258-0.379-4.521-0.724-6.821-0.517c-3.557,0.323-7.107,0.702-10.664,1.003c-2.41,0.203-4.826,0.314-7.129,0.459
	c-1.347-1.285-1.347-1.285-2.088-1.397c-0.056,0.401-0.109,0.801-0.178,1.307c-0.458,0-0.957,0-1.561,0
	c-0.351-0.479-0.738-1.009-1.124-1.535c-1.115,0.115-0.631,0.954-0.695,1.583c-0.56,0-1.067,0-1.594,0
	c-0.292-0.494-0.573-0.975-0.846-1.437c-1.268-0.072-0.769,0.844-0.896,1.571C84.575,128.326,82.793,128.164,80.852,127.989z
	 M102.969,119.857c-0.623,0.667-0.33,1.07,0.091,1.451c1.755,1.59,3.84,2.566,6.073,3.26c0.145,0.044,0.34-0.072,0.493-0.109
	c0.14-0.869-0.417-1.155-1-1.395c-1.756-0.726-3.447-1.551-4.879-2.835C103.554,120.056,103.259,119.994,102.969,119.857z
	 M113.471,123.323c-0.467-0.546-0.687-1.005-1.047-1.189c-1.936-0.983-3.903-1.899-5.896-2.856c-0.13,0.154-0.277,0.279-0.359,0.438
	c-0.059,0.115-0.029,0.274-0.04,0.4C107.383,121.339,111.787,123.382,113.471,123.323z M155.188,70.543
	c-0.18-0.988-0.72-1.634-1.644-1.952c-1.901-0.653-3.866-0.935-5.868-0.913c-0.309,0.002-0.613,0.221-0.921,0.34
	c0.013,0.125,0.024,0.25,0.036,0.375c1.328,0.576,2.853,0.174,4.199,0.634C152.361,69.496,153.72,70.012,155.188,70.543z
	 M110.007,119.285c1.78,1.302,3.692,1.722,5.903,2.268c-1.307-2.311-3.736-1.912-5.279-3.226
	C110.381,118.711,110.237,118.933,110.007,119.285z M103.327,104.214c-0.155-0.684-0.285-1.152-0.365-1.63
	c-0.294-1.734,0.48-2.563,2.273-2.46c0.13,0.007,0.265-0.057,0.417-0.091c0.036-0.147,0.103-0.282,0.088-0.407
	c-0.016-0.126-0.111-0.243-0.162-0.344c-1.71-0.199-3.032,0.466-3.535,1.754C101.585,102.215,101.953,103.294,103.327,104.214z
	 M64.363,124.673c1.646,0.543,3.261,0.824,4.875,1.09c0.22,0.038,0.476-0.146,0.762-0.246c-0.789-0.841-3.291-1.568-5.352-1.607
	C64.577,124.101,64.502,124.307,64.363,124.673z M134.447,112.852c0.086,1.423,1.29,1.93,1.563,2.91
	c0.279,1.002,0.585,2.001,0.894,3.047C137.823,116.908,136.788,114.151,134.447,112.852z M68.175,119.438
	c0.042,0.129,0.043,0.325,0.128,0.377c1.221,0.714,2.438,1.438,3.69,2.092c0.4,0.209,0.727-0.029,0.755-0.525
	C71.158,120.06,69.095,119.174,68.175,119.438z M66.802,121.568c-0.35,0.733-0.067,0.964,0.328,1.099
	c1.028,0.354,2.06,0.707,3.104,1.013c0.219,0.064,0.498-0.079,1.059-0.187C69.903,122.083,68.246,122.166,66.802,121.568z
	 M74.501,120.817c0-0.537,0.058-0.721-0.01-0.806c-0.762-0.961-1.787-1.546-2.936-1.899c-0.177-0.055-0.459,0.234-0.841,0.447
	C72.053,119.358,73.166,120.021,74.501,120.817z M150.038,70.218c1.026,0.439,2.021,0.866,3.149,1.348
	c-0.552-1.186-2.275-2.277-2.972-1.927C150.18,69.756,150.128,69.927,150.038,70.218z M114.598,118.516
	c0.821-0.081,1.451,0.876,2.223-0.335c-0.679-0.327-1.265-0.612-1.99-0.962C114.744,117.705,114.697,117.959,114.598,118.516z
	 M76.078,118.947c-0.129-1.38-0.713-1.698-2.149-1.324C74.764,118.138,75.421,118.543,76.078,118.947z M124.459,111.91
	c-1.053,0.457-1.82,0.787-2.674,1.158C122.972,113.777,123.742,113.479,124.459,111.91z M62.35,117.911
	c-0.224,0.398-0.329,0.586-0.443,0.792c0.383,0.442,0.605,1.008,1.6,0.842C63.087,118.952,62.772,118.509,62.35,117.911z"/>
<path fill-rule="evenodd" clip-rule="evenodd" fill="#ffffff" class="fill" d="M163.353,80.589c0.364,1.006,0.685,1.886,1.117,3.078
	c-0.314,1.241-0.744,2.795-1.093,4.366c-0.339,1.532-0.731,3.073-0.843,4.629c-0.08,1.156,0.206,2.349,0.411,3.51
	c0.162,0.93,0.445,1.835,0.662,2.696c-0.979,0.822-1.543,0.802-2.072-0.248c-0.834-1.651-1.656-3.337-2.216-5.092
	c-0.618-1.938-0.99-3.963-1.372-5.968c-0.346-1.821-0.565-3.668-0.829-5.503c-0.032-0.226-0.005-0.463-0.005-0.801
	C159.134,80.348,161.188,80.055,163.353,80.589z M161.403,82.784c-1.015,1.272-1.649,2.751-1.791,3.979
	c-0.062,0.555,0.001,1.08,0.509,1.374c0.491,0.284,1.043,0.521,1.659-0.151c-0.075-1.657,1.822-3.085,0.944-5.127
	C162.238,82.832,161.825,82.809,161.403,82.784z"/>
<path fill-rule="evenodd" clip-rule="evenodd" fill="#ffffff" class="fill" d="M88.646,77.306c-0.259-1.754-0.876-3.244-0.331-4.895
	c1.71-0.009,3.007,0.854,4.117,1.834c1.7,1.495,5.855,7.044,6.757,9.912c-1.167,0-2.308,0-3.569,0
	C93.635,81.634,91.415,79.18,88.646,77.306z"/>
<path fill-rule="evenodd" clip-rule="evenodd" fill="#ffffff" class="fill" d="M51.198,101.874c0.71-0.55,1.317-1.025,2.048-1.596
	c3.701,3.637,8.411,5.339,12.764,7.941c0.41,0.813,0.891,1.765,1.533,3.041c-1.778-0.622-3.324-1.048-4.772-1.692
	c-2.774-1.236-5.511-2.562-8.227-3.923c-1.144-0.573-2.226-1.301-2.847-2.498C51.527,102.82,51.425,102.459,51.198,101.874z"/>
<path fill-rule="evenodd" clip-rule="evenodd" fill="#ffffff" class="fill" d="M73.646,85.35c2.815-0.646,9.706,1.27,12.321,3.442
	c-0.71,0.56-1.406,1.083-2.075,1.639c-0.693,0.576-1.359,1.181-2.132,1.855c-2.843-0.999-5.676-2.024-7.468-4.756
	C73.871,86.885,73.524,86.235,73.646,85.35z"/>
<path fill-rule="evenodd" clip-rule="evenodd" fill="#ffffff" class="fill" d="M86.444,74.738c-3.646-1.105-7.258-2.2-10.911-3.308
	c-0.34-1.046-0.67-2.069-1.038-3.208C74.909,68.126,75.23,67.95,75.51,68c4.04,0.708,8.223,0.835,11.967,2.787
	C87.128,72.124,86.796,73.393,86.444,74.738z"/>
<path fill-rule="evenodd" clip-rule="evenodd" fill="#ffffff" class="fill" d="M49.973,106.186c0.295-0.416,0.64-0.9,1.017-1.427
	c1.393,0.881,2.637,1.74,3.946,2.485c4.318,2.454,8.878,4.327,13.666,5.67c1.037,0.293,2.008,0.82,3.014,1.234
	c0.735,0.301,1.477,0.591,2.219,1.094c-0.423-0.023-0.861,0.016-1.27-0.078c-3.103-0.705-6.211-1.395-9.298-2.169
	c-2.164-0.544-4.351-1.069-6.428-1.864c-1.845-0.709-3.571-1.747-5.313-2.705C50.769,108.01,50.138,107.402,49.973,106.186z"/>
<path fill-rule="evenodd" clip-rule="evenodd" fill="#ffffff" class="fill" d="M71.42,85.452c0.41,1.174,0.814,2.323,1.276,3.638
	c-0.493,0.049-0.885,0.119-1.279,0.122c-2.906,0.02-5.774-0.326-8.613-0.931c-1.895-0.404-3.192-1.207-4-2.543
	c0.293-1.329,1.537-1.461,2.53-1.949C64.552,85.249,67.986,85.251,71.42,85.452z"/>
<path fill-rule="evenodd" clip-rule="evenodd" fill="#ffffff" class="fill" d="M72.382,93.551c-4.496,1.123-11.946,0.295-13.669-1.502
	c0.379-1.119,0.488-1.244,1.84-2.077c0.594,0.113,1.239,0.301,1.896,0.348c1.126,0.082,2.289,0.247,3.386,0.071
	c2.049-0.33,4.068-0.117,6.17-0.094C72.137,91.436,72.259,92.495,72.382,93.551z"/>
<path fill-rule="evenodd" clip-rule="evenodd" fill="#ffffff" class="fill" d="M74.907,98.88c1.054,0.932,0.739,2.039,1.182,3.156
	c-1.094,0.112-2.064,0.261-3.039,0.306c-2.184,0.098-4.374,0.261-6.555,0.175c-1.501-0.059-2.99-0.472-4.477-0.767
	c-0.24-0.049-0.437-0.313-0.827-0.612c0.506-0.728,0.979-1.405,1.503-2.156C66.802,99.381,70.879,99.772,74.907,98.88z"/>
<path fill-rule="evenodd" clip-rule="evenodd" fill="#ffffff" class="fill" d="M71.485,84.325c-2.279-0.595-4.437-1.156-6.592-1.72
	c-1.353-0.353-2.574-0.974-3.669-1.835c-0.246-0.194-0.43-0.466-0.656-0.717c1.852-1.023,9.736-0.436,14.12,1.027
	c0.25,0.396,0.545,0.863,0.963,1.525C74.026,82.823,72.543,82.995,71.485,84.325z"/>
<path fill-rule="evenodd" clip-rule="evenodd" fill="#ffffff" class="fill" d="M93.44,88.928c-1.769-0.617-3.479-1.326-5.244-0.729
	c-1.612-1.175-3.013-2.43-4.622-3.304c-1.606-0.873-3.421-1.363-5.282-1.82c-0.31-0.439-0.621-0.88-1.118-1.585
	c0.831-0.102,1.37-0.261,1.889-0.213c3.716,0.349,7.082,1.617,10.209,3.681C90.921,86.044,92.237,87.396,93.44,88.928z"/>
<path fill-rule="evenodd" clip-rule="evenodd" fill="#ffffff" class="fill" d="M72.865,94.541c0.409,1.114,0.791,2.155,1.201,3.272
	c-1.596,0.57-3.15,0.667-4.696,0.618c-1.85-0.061-3.697-0.229-5.539-0.407c-1.637-0.156-3.104-0.772-4.438-1.754
	c0.012-0.745,0.403-0.942,1.009-0.889c0.899,0.081,1.809,0.291,2.693,0.217c2.881-0.242,5.752-0.588,8.626-0.896
	C72.001,94.675,72.277,94.625,72.865,94.541z"/>
<path fill-rule="evenodd" clip-rule="evenodd" fill="#ffffff" class="fill" d="M81.681,78.969c-2.059,0.178-3.784,0.328-5.506,0.478
	c0,0.066,0,0.134,0,0.198c-0.556-0.272-1.092-0.589-1.665-0.805c-0.569-0.215-1.167-0.411-1.766-0.466
	c-2.172-0.195-4.35-0.327-6.734-0.498c-0.392-0.758-0.807-1.562-1.381-2.673c4.947,0.239,9.466,0.802,13.857,2.179
	C79.529,77.709,80.659,77.941,81.681,78.969z"/>
<path fill-rule="evenodd" clip-rule="evenodd" fill="#ffffff" class="fill" d="M92.669,72.143c0.088-0.779,0.171-1.525,0.288-2.567
	c3.797,3.608,6.726,7.496,8.415,12.295c1.647,4.675,1.719,4.71,1.092,5.776c-0.474-0.734-1.074-1.338-1.288-2.057
	c-0.694-2.32-1.921-4.367-3.203-6.364c-1.282-2.002-2.76-3.88-4.169-5.8C93.496,73.007,93.115,72.643,92.669,72.143z"/>
<path fill-rule="evenodd" clip-rule="evenodd" fill="#ffffff" class="fill" d="M94.701,85.04c-0.104,0.816-0.202,1.604-0.308,2.443
	c-0.22-0.061-0.405-0.054-0.465-0.136c-0.822-1.146-2.029-1.827-3.121-2.657c-1.584-1.207-3.08-2.525-4.651-3.749
	c-0.784-0.609-1.649-1.113-2.574-1.729c-0.195-0.47-0.427-1.027-0.666-1.604C85.676,76.98,90.955,80.109,94.701,85.04z"/>
<path fill-rule="evenodd" clip-rule="evenodd" fill="#ffffff" class="fill" d="M74.356,90.112c1.168,0.655,2.149,1.204,3.131,1.752
	c0.081,0.048,0.156,0.125,0.243,0.148c2.68,0.744,4.636,2.683,6.884,4.143c0.632,0.41,1.345,0.695,2.215,1.135
	c-0.481,0.385-0.859,0.687-1.29,1.03c-1.854-0.494-3.707-0.92-5.516-1.486c-1.904-0.596-3.482-1.733-4.733-3.301
	C74.555,92.608,74.182,91.571,74.356,90.112z"/>
<path fill-rule="evenodd" clip-rule="evenodd" fill="#ffffff" class="fill" d="M70.392,74.283c-0.281-0.451-0.729-1.161-1.199-1.911
	c0.806-0.646,1.626-0.604,2.395-0.479c4.14,0.67,8.137,1.863,12.044,3.372c0.03,0.012,0.042,0.078,0.049,0.095
	c-0.729,0.524-1.461,1.053-2.213,1.594C77.949,76.104,74.315,75.229,70.392,74.283z"/>
<path fill-rule="evenodd" clip-rule="evenodd" fill="#ffffff" class="fill" d="M68.848,107.968c3.163,1.411,6.418,1.21,9.579,1.332
	c0.677,1.011,1.276,1.904,2.034,3.033c-1.104-0.086-2.014-0.115-2.912-0.234c-2.728-0.358-5.457-0.725-7.832-2.304
	C69.144,109.415,68.631,109.042,68.848,107.968z"/>
<path fill-rule="evenodd" clip-rule="evenodd" fill="#ffffff" class="fill" d="M59.641,103.35c-1.903-0.855-3.571-2.051-4.98-3.586
	c-0.714-0.78-0.562-2.023,0.322-2.625c0.646-0.443,1.406-0.715,2.219-1.113c0.179,0.625,0.303,1.062,0.437,1.53
	c0.774,0.526,1.55,1.053,2.34,1.591c-0.262,0.699-0.646,1.338-0.706,2.006C59.212,101.805,59.481,102.488,59.641,103.35z"/>
<path fill-rule="evenodd" clip-rule="evenodd" fill="#ffffff" class="fill" d="M76.704,103.152c0.675,0.682,0.258,1.455,0.345,2.149
	c-2.501,0.803-10.706-0.192-12.155-1.578C68.89,103.53,72.735,103.344,76.704,103.152z"/>
<path fill-rule="evenodd" clip-rule="evenodd" fill="#ffffff" class="fill" d="M86.936,105.857c0,0.786,0,1.574,0,2.507
	c-2.148-0.09-4.266-0.354-6.177-1.36c-1.053-0.557-1.433-1.702-1.659-3.015C81.767,104.625,84.321,105.235,86.936,105.857z"/>
<path fill-rule="evenodd" clip-rule="evenodd" fill="#ffffff" class="fill" d="M76.341,96.372c2.479,1.776,5.29,2.291,8.039,2.799
	c0.149,0.939,0.284,1.794,0.423,2.668c-0.133,0.04-0.277,0.135-0.397,0.11c-2.74-0.53-5.36-1.315-7.379-3.413
	C76.479,97.967,76.106,97.362,76.341,96.372z"/>
<path fill-rule="evenodd" clip-rule="evenodd" fill="#ffffff" class="fill" d="M68.804,106.421c2.881,0.133,5.76,0.265,8.86,0.408
	c0.137,0.204,0.384,0.571,0.761,1.136C74.899,108.466,71.762,108.145,68.804,106.421z"/>
<path fill-rule="evenodd" clip-rule="evenodd" fill="#ffffff" class="fill" d="M80.43,108.638c2.504,0.376,4.835,0.71,7.156,1.088
	c0.316,0.051,0.595,0.332,1.023,0.586c-0.309,0.179-0.42,0.301-0.518,0.292c-1.929-0.173-3.863-0.316-5.782-0.566
	C81.528,109.935,80.764,109.611,80.43,108.638z"/>
<path fill-rule="evenodd" clip-rule="evenodd" fill="#ffffff" class="fill" d="M86.802,104.258c-2.956,0.295-7.318-1.175-8.452-2.865
	c1.153,0.39,2.196,0.813,3.276,1.089c1.185,0.302,2.397,0.517,3.611,0.671C85.948,103.243,86.512,103.4,86.802,104.258z"/>
<path fill-rule="evenodd" clip-rule="evenodd" fill="#ffffff" class="fill" d="M155.96,72.776c0.53,0,1.167,0,1.754,0
	c0.979,0.741,0.675,1.615,0.407,2.609c-0.293,0.157-0.65,0.352-0.944,0.511c-0.82-0.21-1.446-0.514-1.765-1.223
	C155.1,73.979,155.313,73.395,155.96,72.776z M156.187,74.816c0.39,0,0.857,0.138,1.086-0.038c0.234-0.181,0.237-0.663,0.358-1.084
	C156.672,73.56,156.142,73.69,156.187,74.816z"/>
<path fill-rule="evenodd" clip-rule="evenodd" fill="#ffffff" class="fill" d="M93.659,63.525c2.928,1.824,3.963,4.861,5.114,8.131
	c-0.941-0.321-1.184-0.896-1.416-1.5c-0.408-1.063-0.732-2.179-1.293-3.158C95.37,65.78,94.47,64.679,93.659,63.525z"/>
</svg>
