<svg version="1.1" id="svg" xmlns="http://www.w3.org/2000/svg" xmlns:xlink="http://www.w3.org/1999/xlink" x="0px" y="0px"
	 width="200px" height="200px" viewBox="0 0 200 200" enable-background="new 0 0 200 200" xml:space="preserve">
<path class="stroke" fill="#670431"  fill-rule="evenodd" clip-rule="evenodd" d="M114.862,56.075c0.289-3.135,0.496-6.238,0.881-9.319
	c0.469-3.742,0.807-7.537,1.728-11.176c0.783-3.091,2.309-5.994,3.518-8.977c0.21-0.519,0.515-1,0.71-1.523
	c0.717-1.92,2.331-2.586,4.135-2.771c1.104-0.113,2.327-0.063,3.359,0.302c1.65,0.583,2.633,1.973,3.337,3.574
	c2.061,4.689,4.125,9.378,6.272,14.027c0.653,1.415,1.544,2.728,2.392,4.045c1.679,2.609,3.347,5.219,4.493,8.125
	c0.604,1.533,1.437,3.002,1.837,4.583c0.436,1.719,0.635,3.53,0.674,5.307c0.044,2.056-0.045,4.141-0.361,6.17
	c-0.312,2.008-0.939,3.972-1.5,5.935c-0.607,2.123-1.336,4.212-1.93,6.34c-0.207,0.744-0.173,1.557-0.239,2.339
	c-0.281,3.291-0.489,6.588-0.864,9.869c-0.205,1.798-0.703,3.562-1.044,5.345c-0.283,1.482-0.504,2.977-0.799,4.455
	c-0.258,1.29-0.555,2.573-0.884,3.846c-0.385,1.491-0.926,2.95-1.195,4.458c-0.125,0.706,0.208,1.501,0.369,2.249
	c0.387,1.805,0.87,3.593,1.177,5.411c0.718,4.246,1.362,8.505,2.025,12.761c0.246,1.576,0.558,3.151,0.669,4.738
	c0.216,3.078-0.857,5.774-2.697,8.201c-1.609,2.122-3.149,4.3-4.84,6.354c-1.083,1.314-2.382,2.451-3.589,3.663
	c-0.751,0.753-1.479,1.533-2.271,2.241c-3.261,2.91-6.634,5.702-9.79,8.72c-2.842,2.718-6.084,4.855-9.307,7.038
	c-2.187,1.48-4.626,2.477-7.102,3.371c-0.651,0.235-1.291-0.133-1.447-0.742c-0.165-0.64-0.292-1.301-0.551-1.903
	c-1.121-2.6-2.196-5.224-3.453-7.757c-1.643-3.312-3.186-6.692-5.51-9.616c-1.442-1.816-2.851-3.663-4.37-5.414
	c-2.296-2.646-5.34-4.212-8.493-5.567c-4.424-1.9-8.909-3.644-13.622-4.698c-1.001-0.225-2.062-0.186-3.094-0.276
	c-1.055-0.092-1.966-1.424-1.668-2.458c0.085-0.292,0.233-0.57,0.378-0.84c1.521-2.839,2.98-5.712,4.591-8.499
	c1.75-3.028,3.662-5.961,5.459-8.961c0.632-1.055,1.115-2.198,1.699-3.283c1.524-2.836,3.007-5.697,4.619-8.483
	c1.337-2.309,1.048-4.715,0.388-7.014c-1.149-4-2.612-7.909-3.906-11.868c-0.478-1.462-0.762-2.99-1.29-4.432
	c-0.948-2.592-2.016-5.14-3.028-7.709c-0.742-1.882-1.002-3.857-0.877-5.853c0.038-0.613,0.539-1.209,0.868-1.791
	c0.993-1.745,2.018-3.474,3.009-5.22c1.536-2.709,2.548-5.65,3.797-8.487c0.524-1.188,0.648-2.278,0.442-3.475
	c-0.275-1.598-0.65-3.181-0.869-4.787c-0.445-3.272-0.842-6.553-1.208-9.836c-0.295-2.644,0.166-5.25,0.441-7.872
	c0.139-1.328,0.026-2.677,0.776-4.093c2.062-1.078,4.34-2.044,6.92-1.868c1.55,0.106,2.766,1.346,3.259,3.172
	c0.794,2.945,1.445,5.934,2.393,8.827c0.948,2.893,2.133,5.712,3.317,8.521c0.733,1.739,1.526,3.48,2.524,5.076
	c2.228,3.565,5.222,6.362,9.335,7.52c1.896,0.533,3.973,0.448,5.972,0.573C112.167,56.748,113.517,56.732,114.862,56.075z
	 M121.167,53.027c0.25,0.032,0.305,0.05,0.355,0.042c0.053-0.009,0.104-0.038,0.151-0.067c2.101-1.328,3.431-3.18,3.808-5.66
	c0.542-3.561,0.766-7.129,0.137-10.705c-0.101-0.571-0.238-1.136-0.358-1.703C122.001,40.616,121.988,46.896,121.167,53.027z"/>
<path fill-rule="evenodd" clip-rule="evenodd" fill="#fa57ac" class="fill" d="M120.397,161.511c-1.545,1.168-3.137,2.362-4.718,3.57
	c-1.178,0.899-2.258,1.966-3.533,2.69c-1.645,0.935-3.434,1.617-5.177,2.37c-0.283,0.123-0.651,0.049-0.949,0.065
	c-0.625-1.453-1.158-2.862-1.828-4.203c-0.924-1.85-1.905-3.674-2.948-5.459c-1.03-1.762-2.026-3.573-3.292-5.16
	c-1.936-2.431-4.087-4.689-6.155-7.015c-1.554-1.748-3.233-3.358-5.335-4.44c-2.109-1.086-4.245-2.119-6.531-3.256
	c0.458-1.591,0.823-3.316,1.447-4.941c1.295-3.373,2.753-6.682,4.095-10.036c1.62-4.052,3.306-8.084,4.736-12.204
	c0.912-2.629,1.559-5.374,2.054-8.116c0.435-2.408,0.937-4.872,0.436-7.343c-0.356-1.754-0.789-3.499-1.307-5.212
	c-0.784-2.594-1.652-5.162-2.528-7.727c-0.289-0.844-0.776-1.62-1.044-2.468c-0.134-0.423-0.149-1.048,0.073-1.394
	c1.318-2.054,2.801-3.983,4.693-5.563c2.836-2.371,5.583-4.856,8.519-7.096c2.128-1.623,4.46-2.994,6.773-4.354
	c2.54-1.491,4.745-3.358,6.623-5.303c2.274-0.746,4.439-1.274,6.444-2.162c2.474-1.096,4.593-2.708,6.061-5.112
	c1.295-2.12,2.157-4.387,2.5-6.806c0.292-2.056,0.617-4.139,0.134-6.243c-0.549-2.394-0.938-4.826-1.508-7.214
	c-0.302-1.264-0.838-2.472-1.315-3.836c1.195-0.276,2.292-0.53,3.509-0.812c0.595,1.302,1.203,2.555,1.747,3.834
	c1.774,4.177,3.406,8.42,5.319,12.533c1.736,3.729,3.854,7.278,5.644,10.985c1.479,3.063,2.541,6.3,2.185,9.78
	c-0.342,3.336-1.115,6.57-2.871,9.492c-0.548,0.913-1.054,1.859-1.689,2.708c-1.346,1.799-2.302,3.737-2.694,5.973
	c-0.416,2.367-0.914,4.722-1.448,7.066c-0.347,1.522-0.874,3.003-1.226,4.525c-0.498,2.148-0.9,4.318-1.361,6.476
	c-0.456,2.133-0.918,4.264-1.404,6.39c-0.569,2.486-0.091,4.901,0.442,7.316c0.176,0.792,0.422,1.571,0.534,2.37
	c0.058,0.411-0.002,0.909-0.19,1.272c-1.817,3.508-3.778,6.946-5.479,10.509c-1.093,2.291-1.917,4.725-2.688,7.15
	c-1.067,3.358-2.124,6.733-2.907,10.164c-1.003,4.392-1.785,8.84-1.708,13.385C120.55,159.555,120.452,160.449,120.397,161.511z"/>
<path fill-rule="evenodd" clip-rule="evenodd" fill="#fa57ac" class="fill" d="M95.418,52.412c-0.321,0.306-0.61,0.643-0.958,0.9
	c-2.283,1.691-4.628,3.302-6.854,5.062c-2.158,1.709-4.013,3.723-5.394,6.142c-0.324,0.567-0.762,1.069-1.276,1.777
	c-0.447-1.564-0.838-2.925-1.221-4.288c-0.083-0.296-0.116-0.607-0.21-0.899c-0.214-0.669-0.152-1.26,0.162-1.928
	c0.652-1.388,1.192-2.83,1.732-4.266c0.618-1.645,1.27-3.284,1.758-4.969c0.613-2.114,1.189-4.253,1.566-6.417
	c0.316-1.814,0.258-3.689,0.479-5.523c0.31-2.569-0.486-4.796-1.886-6.878c-0.663-0.985,0.194-2.384,1.74-2.662
	c0.599,1.622,1.233,3.258,1.809,4.913c1.028,2.961,1.897,5.983,3.062,8.889c1.35,3.367,2.553,6.845,5.113,9.581
	C95.17,51.986,95.257,52.168,95.418,52.412z"/>
<path fill-rule="evenodd" clip-rule="evenodd" fill="#fa57ac" class="fill" d="M104.837,58.434c-3.902,2.417-7.644,4.786-10.807,7.977
	c-3.091,3.12-6.842,5.641-8.526,9.98c-0.075-0.007-0.149-0.015-0.223-0.021c-0.741-1.701-1.481-3.403-2.199-5.053
	c1.555-2.535,3.428-4.721,5.601-6.621c1.368-1.196,2.876-2.233,4.346-3.308c1.085-0.793,2.173-1.596,3.326-2.28
	c1.344-0.798,2.758-1.478,4.152-2.19c0.188-0.096,0.469-0.181,0.64-0.109C102.328,57.3,103.489,57.834,104.837,58.434z"/>
<path fill-rule="evenodd" clip-rule="evenodd" fill="#fa57ac" class="fill" d="M129.864,152.229c-1.919,1.965-3.573,3.657-5.226,5.35
	c1.356-11.102,4.377-21.646,10.903-31.165c0.191,0.341,0.282,0.45,0.316,0.574c0.143,0.54,0.269,1.084,0.389,1.582
	C132.174,135.942,130.576,141.099,129.864,152.229z"/>
<path fill-rule="evenodd" clip-rule="evenodd" fill="#fa57ac" class="fill" d="M137.545,137.379c0.182,1.611,0.438,3.104,0.475,4.604
	c0.017,0.647-0.278,1.414-0.677,1.94c-1.106,1.454-2.343,2.809-3.531,4.208C133.474,146.337,136.046,138.811,137.545,137.379z"/>
</svg>
