<svg version="1.1" id="svg" xmlns="http://www.w3.org/2000/svg" xmlns:xlink="http://www.w3.org/1999/xlink" x="0px" y="0px"
	 width="200px" height="200px" viewBox="0 0 200 200" enable-background="new 0 0 200 200" xml:space="preserve">
<path class="stroke" fill="#58281d"  d="M160.898,60.838c-3.243-1.112-6.504-2.174-9.758-3.259c-1.864-0.622-3.735-1.226-5.588-1.88
	c-2.251-0.796-4.489-1.624-6.725-2.462c-1.876-0.702-3.729-1.462-5.61-2.151c-3.325-1.218-6.67-2.389-9.995-3.606
	c-1.88-0.688-3.722-1.482-5.617-2.125c-0.701-0.235-1.505-0.228-2.262-0.226c-0.572,0-1.152,0.129-1.715,0.26
	c-6.298,1.482-12.593,2.982-18.891,4.466c-3.074,0.724-6.155,1.423-9.231,2.132c-3.528,0.814-7.06,1.614-10.583,2.443
	c-4.724,1.111-9.439,2.257-14.163,3.367c-3.11,0.731-6.233,1.41-9.341,2.146c-3.035,0.719-6.062,1.476-9.087,2.232
	c-1.45,0.363-2.893,0.771-4.437,1.184c-0.123,0.892-0.331,1.762-0.34,2.631c-0.013,1.191,0.149,2.383,0.193,3.576
	c0.087,2.427,0.141,4.854,0.213,7.282c0.031,1.042-0.008,2.093,0.133,3.121c0.543,4.024,0.418,8.076,0.577,12.115
	c0.073,1.846,0.04,3.695,0.104,5.543c0.103,2.966,0.273,5.931,0.368,8.896c0.144,4.586,0.234,9.172,0.374,13.757
	c0.034,1.149,0.164,2.294,0.259,3.542c1.024,0.861,2.078,1.746,3.03,2.545c1.18-0.088,2.239,0.164,3.038-0.889
	c0.107-15.695-0.332-31.482-0.061-47.514c14.818,9.037,29.404,17.934,44.117,26.906c0,1.428-0.028,2.969,0.009,4.507
	c0.033,1.389,0.186,2.774,0.202,4.161c0.082,6.246,0.123,12.49,0.201,18.735c0.035,2.893,0.127,5.783,0.178,8.676
	c0.052,2.891,0.069,5.78,0.129,8.671c0.071,3.509,0.137,7.016,0.279,10.521c0.043,1.055,0.049,2.171,0.921,3.326
	c1.282,0.541,2.802,1.18,4.344,1.83c1.009-0.568,1.941-1.094,2.97-1.671c0.051-0.862,0.104-1.696,0.148-2.531
	c0.163-3.004,0.348-6.007,0.474-9.012c0.117-2.811,0.156-5.623,0.259-8.434c0.134-3.738,0.387-7.475,0.428-11.214
	c0.079-6.938,0.03-13.876,0.061-20.815c0.01-2.381,0.094-4.761,0.146-7.171c4.273-2.152,8.251-4.646,12.61-6.891
	c0.058,2.553,0.108,4.875,0.159,7.129c0.916,0.754,1.715,1.411,2.604,2.145c1.089-0.525,2.151-1.04,3.217-1.555
	c0.22-3.858,0.435-7.646,0.64-11.24c11.42-6.026,22.617-11.937,33.88-17.882c0.021,0.238,0.056,0.421,0.05,0.604
	c-0.066,2.265-0.142,4.529-0.206,6.794c-0.054,1.888-0.095,3.777-0.145,5.665c-0.118,4.356-0.22,8.714-0.366,13.068
	c-0.091,2.697-0.266,5.393-0.382,8.09c-0.109,2.573-0.228,5.147-0.274,7.722c-0.041,2.267,0.014,4.534,0.028,6.828
	c0.996,0.651,1.868,1.289,2.808,1.799c0.357,0.192,0.984,0.273,1.296,0.087c0.949-0.564,1.805-1.285,2.646-1.908
	c0.06-0.374,0.12-0.639,0.142-0.905c0.177-2.151,0.364-4.302,0.513-6.453c0.155-2.27,0.274-4.543,0.404-6.814
	c0.105-1.85,0.19-3.698,0.309-5.545c0.115-1.808,0.273-3.611,0.389-5.418c0.155-2.422,0.238-4.85,0.441-7.269
	c0.256-3.033,0.66-6.056,0.895-9.09c0.283-3.648,0.446-7.308,0.682-10.96c0.05-0.76,0.193-1.515,0.278-2.16
	c0.799-0.606,1.469-1.115,2.14-1.623c0.065-1.981,0.704-3.879,0.626-5.9C164.281,62.105,162.606,61.425,160.898,60.838z"/>
<path fill-rule="evenodd" clip-rule="evenodd" fill="#e3a13b" class="fill" d="M97.417,97.346c-0.96-0.531-1.976-1.073-2.973-1.648
	c-3.909-2.256-7.816-4.514-11.715-6.787c-3.962-2.311-7.907-4.651-11.871-6.958c-2.699-1.568-5.415-3.109-8.131-4.65
	c-4.46-2.53-8.932-5.039-13.385-7.58c-2.311-1.318-4.595-2.681-6.883-4.034c-0.348-0.207-0.657-0.48-1.081-0.797
	c0.315-0.164,0.468-0.282,0.641-0.327c3.169-0.809,6.331-1.642,9.51-2.405c6.743-1.62,13.494-3.196,20.24-4.801
	c3.82-0.908,7.63-1.858,11.453-2.741c2.817-0.65,5.627-1.386,8.479-1.786c2.732-0.383,5.318-1.274,7.995-1.828
	c2.865-0.591,5.727-1.214,8.573-1.884c2.511-0.59,5-1.267,7.735-1.965c0.562,0.219,1.34,0.552,2.137,0.822
	c3.54,1.198,7.095,2.348,10.621,3.58c1.525,0.533,2.983,1.25,4.493,1.831c2.227,0.857,4.47,1.672,6.708,2.502
	c1.911,0.708,3.818,1.424,5.735,2.113c0.979,0.352,1.979,0.644,2.962,0.983c3.165,1.094,6.324,2.205,9.489,3.296
	c1.273,0.439,2.56,0.843,3.838,1.271c0.316,0.105,0.621,0.246,1.167,0.466c-0.463,0.272-0.728,0.449-1.011,0.593
	c-1.169,0.589-2.342,1.169-3.516,1.752c-1.824,0.909-3.654,1.812-5.473,2.731c-4.33,2.192-8.65,4.399-12.982,6.589
	c-2.885,1.458-5.775,2.91-8.676,4.341c-5.221,2.574-10.457,5.117-15.674,7.698c-2.967,1.47-5.932,2.95-8.86,4.494
	c-3.066,1.617-6.089,3.316-9.133,4.978C97.731,97.247,97.617,97.273,97.417,97.346z"/>
<path fill-rule="evenodd" clip-rule="evenodd" fill="#e3a13b" class="fill" d="M78.359,95.123c-0.378-0.22-0.691-0.404-1.109-0.649
	c1.334-1.434,2.646-2.696,4.244-3.754c0.282,0.147,0.572,0.297,0.951,0.495C81.04,92.56,79.723,93.82,78.359,95.123z"/>
<path fill-rule="evenodd" clip-rule="evenodd" fill="#e3a13b" class="fill" d="M50.923,72.919c-1.135,1.272-2.118,2.375-3.129,3.507
	c-0.456-0.273-0.808-0.482-1.29-0.772c1.086-1.188,2.102-2.299,3.172-3.471C50.061,72.41,50.403,72.612,50.923,72.919z"/>
<path fill-rule="evenodd" clip-rule="evenodd" fill="#e3a13b" class="fill" d="M79.515,89.574c0.302,0.179,0.556,0.33,0.924,0.549
	c-1.37,1.28-2.671,2.495-4.02,3.756c-0.378-0.194-0.661-0.339-1.073-0.55C76.562,91.809,77.927,90.668,79.515,89.574z"/>
<path fill-rule="evenodd" clip-rule="evenodd" fill="#e3a13b" class="fill" d="M47.652,70.783c0.458,0.343,0.754,0.562,1.132,0.845
	c-1.003,1.218-1.892,2.409-3.241,3.307c-0.303-0.186-0.605-0.37-1.066-0.653C45.572,73.074,46.566,71.98,47.652,70.783z"/>
<path fill-rule="evenodd" clip-rule="evenodd" fill="#e3a13b" class="fill" d="M95.93,120.693c0.025,0.414,0.053,0.827,0.085,1.323
	c-1.098,1.28-2.217,2.585-3.378,3.941c-0.55-0.568-0.438-1.118-0.172-1.557C93.346,122.953,94.645,121.868,95.93,120.693z"/>
<path fill-rule="evenodd" clip-rule="evenodd" fill="#e3a13b" class="fill" d="M85.991,93.182c-1.309,1.465-2.476,2.773-3.691,4.131
	c-0.392-0.16-0.688-0.283-0.934-0.384c-0.076-0.565,2.371-3.146,3.802-4.113C85.357,92.9,85.586,93.002,85.991,93.182z"/>
<path fill-rule="evenodd" clip-rule="evenodd" fill="#e3a13b" class="fill" d="M95.974,128.829c0,0.452,0,0.903,0,1.412
	c-1.105,1.202-2.238,2.437-3.444,3.747c-0.339-0.616-0.302-1.186,0.017-1.59c1.016-1.284,2.111-2.507,3.176-3.752
	C95.806,128.708,95.89,128.769,95.974,128.829z"/>
<path fill-rule="evenodd" clip-rule="evenodd" fill="#e3a13b" class="fill" d="M85.663,99.402c-0.366-0.233-0.612-0.391-0.959-0.611
	c1.225-1.492,2.614-2.685,3.991-3.953c0.302,0.12,0.574,0.231,1.012,0.407C88.332,96.656,87.042,97.984,85.663,99.402z"/>
<path fill-rule="evenodd" clip-rule="evenodd" fill="#e3a13b" class="fill" d="M92.432,139.787c0-0.494,0-0.985,0-1.562
	c1.093-1.2,2.226-2.45,3.502-3.856c0.097,0.518,0.16,0.859,0.22,1.178c-1.198,1.474-2.354,2.893-3.508,4.312
	C92.574,139.835,92.504,139.811,92.432,139.787z"/>
<path fill-rule="evenodd" clip-rule="evenodd" fill="#e3a13b" class="fill" d="M77.421,88.439c0.354,0.193,0.601,0.329,0.976,0.534
	c-1.372,1.295-2.646,2.499-3.96,3.738c-0.319-0.196-0.564-0.347-0.982-0.604C74.803,90.86,76.059,89.698,77.421,88.439z"/>
<path fill-rule="evenodd" clip-rule="evenodd" fill="#e3a13b" class="fill" d="M95.82,140.551c0.209,0.949,0.158,1.525-0.328,2.021
	c-0.861,0.878-1.71,1.77-2.57,2.649c-0.068,0.069-0.195,0.082-0.414,0.167c-0.028-0.464-0.051-0.862-0.081-1.38
	C93.485,142.93,94.572,141.822,95.82,140.551z"/>
<path fill-rule="evenodd" clip-rule="evenodd" fill="#e3a13b" class="fill" d="M70.908,90.6c-0.322-0.226-0.53-0.371-0.813-0.57
	c1.289-1.191,2.515-2.327,3.825-3.537c0.053,0.026,0.282,0.14,0.638,0.316C73.493,88.251,72.334,89.477,70.908,90.6z"/>
<path fill-rule="evenodd" clip-rule="evenodd" fill="#e3a13b" class="fill" d="M79.325,95.465c1.331-1.24,2.662-2.479,4.021-3.744
	c0.316,0.181,0.527,0.3,0.816,0.465c-1.273,1.333-2.485,2.601-3.795,3.967c-0.31-0.108-0.638-0.223-0.966-0.338
	C79.375,95.697,79.35,95.581,79.325,95.465z"/>
<path fill-rule="evenodd" clip-rule="evenodd" fill="#e3a13b" class="fill" d="M95.486,112.654c0.582,0.688,0.427,1.149,0.028,1.601
	c-1.04,1.176-2.074,2.355-3.255,3.698c-0.074-0.516-0.124-0.855-0.187-1.285C93.183,115.363,94.295,114.056,95.486,112.654z"/>
<path fill-rule="evenodd" clip-rule="evenodd" fill="#e3a13b" class="fill" d="M90.77,102.355c-0.292-0.183-0.514-0.321-0.87-0.543
	c1.236-1.438,2.479-2.768,3.909-4.012c0.229,0.104,0.457,0.206,0.823,0.372C93.464,99.717,92.04,100.884,90.77,102.355z"/>
<path fill-rule="evenodd" clip-rule="evenodd" fill="#e3a13b" class="fill" d="M92.426,142.302c0.045-0.288-0.002-0.641,0.147-0.856
	c0.979-1.402,1.998-2.779,3.398-4.17c0,0.716,0,1.181,0,1.725c-1.064,1.146-2.146,2.31-3.229,3.475
	C92.637,142.417,92.53,142.357,92.426,142.302z"/>
<path fill-rule="evenodd" clip-rule="evenodd" fill="#e3a13b" class="fill" d="M87.483,100.4c-0.392-0.239-0.604-0.367-0.963-0.587
	c1.276-1.249,2.469-2.431,3.681-3.592c0.316-0.306,0.345-0.273,1.117,0.11C90.044,97.684,88.801,99.002,87.483,100.4z"/>
<path fill-rule="evenodd" clip-rule="evenodd" fill="#e3a13b" class="fill" d="M95.972,131.621c0.104,0.293,0.162,0.395,0.172,0.502
	c0.018,0.188,0.006,0.379,0.006,0.64c-1.139,1.285-2.296,2.591-3.624,4.09c-0.053-0.581-0.084-0.925-0.12-1.32
	c0.643-0.771,1.257-1.552,1.918-2.289C94.803,132.71,95.346,132.232,95.972,131.621z"/>
<path fill-rule="evenodd" clip-rule="evenodd" fill="#e3a13b" class="fill" d="M94.978,99.819c0,0.489,0,0.979,0,1.513
	c-0.656,0.707-1.331,1.434-2.037,2.195c-0.428-0.238-0.786-0.438-1.261-0.702c0.946-1.198,1.979-2.178,3.006-3.164
	C94.782,99.715,94.879,99.767,94.978,99.819z"/>
<path fill-rule="evenodd" clip-rule="evenodd" fill="#e3a13b" class="fill" d="M86.87,93.677c0.349,0.215,0.589,0.365,0.758,0.468
	c-1.3,1.386-2.552,2.722-3.827,4.078c-0.264-0.141-0.45-0.238-0.775-0.412C84.343,96.395,85.586,95.057,86.87,93.677z"/>
<path fill-rule="evenodd" clip-rule="evenodd" fill="#e3a13b" class="fill" d="M62.812,85.72c-0.365-0.265-0.598-0.433-0.824-0.596
	c1.197-1.239,2.34-2.42,3.51-3.629c0.295,0.167,0.518,0.292,0.872,0.493C65.153,83.264,64.001,84.473,62.812,85.72z"/>
<path fill-rule="evenodd" clip-rule="evenodd" fill="#e3a13b" class="fill" d="M92.211,127.649c1.296-1.418,2.446-2.679,3.65-3.999
	c0.344,0.508,0.369,0.915,0.054,1.262c-1.133,1.247-2.287,2.473-3.44,3.702c-0.038,0.042-0.138,0.03-0.264,0.054
	C92.211,128.288,92.211,127.918,92.211,127.649z"/>
<path fill-rule="evenodd" clip-rule="evenodd" fill="#e3a13b" class="fill" d="M67.307,82.548c0.285,0.129,0.364,0.146,0.422,0.193
	c0.086,0.071,0.156,0.161,0.221,0.229c0.031,0.4-2.505,3.045-3.501,3.648c-0.181-0.109-0.395-0.235-0.735-0.438
	C64.96,84.92,66.133,83.735,67.307,82.548z"/>
<path fill-rule="evenodd" clip-rule="evenodd" fill="#e3a13b" class="fill" d="M72.002,91.143c1.143-1.227,2.283-2.454,3.495-3.757
	c0.323,0.168,0.6,0.312,1.011,0.524c-0.484,0.485-0.815,0.915-1.236,1.222c-1.033,0.75-1.75,1.951-3.024,2.355
	C72.165,91.372,72.084,91.258,72.002,91.143z"/>
<path fill-rule="evenodd" clip-rule="evenodd" fill="#e3a13b" class="fill" d="M52.654,74.061c-1.039,1.176-2.019,2.281-3.037,3.432
	c-0.348-0.234-0.584-0.393-0.915-0.615c1.048-1.175,2.036-2.28,3.065-3.436C52.093,73.668,52.327,73.832,52.654,74.061z"/>
<path fill-rule="evenodd" clip-rule="evenodd" fill="#e3a13b" class="fill" d="M62.026,79.524c0.291,0.144,0.489,0.241,0.811,0.401
	c-0.982,1.414-2.114,2.569-3.323,3.607c-0.203-0.031-0.324-0.025-0.421-0.071c-0.098-0.045-0.173-0.14-0.347-0.292
	C59.822,81.974,60.887,80.791,62.026,79.524z"/>
<path fill-rule="evenodd" clip-rule="evenodd" fill="#e3a13b" class="fill" d="M95.774,115.455c0.272,0.548,0.275,0.938-0.042,1.285
	c-1.059,1.154-2.129,2.299-3.199,3.441c-0.043,0.046-0.139,0.043-0.334,0.096c0-0.27-0.095-0.568,0.014-0.734
	C93.201,118.05,94.365,116.706,95.774,115.455z"/>
<path fill-rule="evenodd" clip-rule="evenodd" fill="#e3a13b" class="fill" d="M52.759,79.464c-0.336-0.241-0.511-0.366-0.785-0.564
	c1.061-1.144,2.068-2.229,3.135-3.38c0.287,0.139,0.532,0.258,0.979,0.473C54.927,77.203,53.882,78.292,52.759,79.464z"/>
<path fill-rule="evenodd" clip-rule="evenodd" fill="#e3a13b" class="fill" d="M92.788,97.075c-0.124,0.26-0.167,0.449-0.28,0.574
	c-0.956,1.047-1.908,2.096-2.898,3.111c-0.263,0.27-0.617,0.629-1.171,0.108c1.15-1.391,2.34-2.708,3.732-3.832
	C92.269,96.959,92.503,97.053,92.788,97.075z"/>
<path fill-rule="evenodd" clip-rule="evenodd" fill="#e3a13b" class="fill" d="M57.735,77.046c-1.131,1.252-2.132,2.364-3.181,3.526
	c-0.28-0.172-0.526-0.324-0.938-0.577c1.136-1.165,2.193-2.252,3.292-3.384C57.173,76.75,57.385,76.862,57.735,77.046z"/>
<path fill-rule="evenodd" clip-rule="evenodd" fill="#e3a13b" class="fill" d="M41.566,72.442c0.392-1.283,0.92-2.026,2.521-3.572
	c0.265,0.108,0.565,0.23,0.881,0.357c-0.062,0.181-0.068,0.312-0.135,0.391C42.703,72.135,42.516,72.299,41.566,72.442z"/>
<path fill-rule="evenodd" clip-rule="evenodd" fill="#e3a13b" class="fill" d="M70.613,84.438c0.249,0.19,0.415,0.316,0.729,0.556
	c-0.914,0.96-1.745,1.891-2.645,2.746c-0.367,0.351-0.719,0.991-1.488,0.536c0.276-0.855,1.095-1.235,1.609-1.862
	C69.352,85.767,69.943,85.169,70.613,84.438z"/>
<path fill-rule="evenodd" clip-rule="evenodd" fill="#e3a13b" class="fill" d="M95.961,118.249c-0.021,0.213,0.015,0.454-0.073,0.636
	c-0.35,0.727-2.955,3.538-3.772,4.032c0.1-0.442,0.073-0.832,0.254-1.04c1.08-1.243,2.203-2.443,3.32-3.652
	C95.717,118.193,95.822,118.233,95.961,118.249z"/>
<path fill-rule="evenodd" clip-rule="evenodd" fill="#e3a13b" class="fill" d="M56.996,82.188c1.109-1.156,2.082-2.175,3.063-3.188
	c0.236-0.244,0.499-0.356,0.877,0.073c-0.658,1.031-1.475,1.956-2.398,2.788c-0.277,0.247-0.614,0.438-0.946,0.608
	C57.516,82.509,57.342,82.356,56.996,82.188z"/>
<path fill-rule="evenodd" clip-rule="evenodd" fill="#e3a13b" class="fill" d="M55.35,81.192c1.197-1.303,2.208-2.401,3.24-3.521
	c0.296,0.134,0.493,0.223,0.862,0.391c-1.089,1.199-1.97,2.438-3.237,3.313C56.1,81.455,55.824,81.3,55.35,81.192z"/>
<path fill-rule="evenodd" clip-rule="evenodd" fill="#e3a13b" class="fill" d="M95.599,110.345c0.239,0.522,0.11,0.918-0.241,1.29
	c-1.021,1.083-2.029,2.177-3.055,3.281c-0.374-0.231-0.406-0.588-0.165-0.869c1.069-1.244,2.174-2.458,3.27-3.68
	C95.426,110.347,95.479,110.357,95.599,110.345z"/>
<path fill-rule="evenodd" clip-rule="evenodd" fill="#e3a13b" class="fill" d="M69.618,83.969c-1.11,1.291-2.042,2.612-3.453,3.46
	c-0.129,0.079-0.346,0.011-0.562,0.011c0.032-0.198,0.015-0.34,0.075-0.406c0.976-1.034,1.963-2.057,2.945-3.084
	C68.895,83.665,69.169,83.553,69.618,83.969z"/>
<path fill-rule="evenodd" clip-rule="evenodd" fill="#e3a13b" class="fill" d="M43.235,73.478c0.415-1.563,1.84-2.312,2.647-3.573
	c0.282,0.091,0.484,0.156,0.711,0.229c-0.043,0.174-0.037,0.301-0.099,0.376C44.494,72.984,43.936,73.501,43.235,73.478z"/>
<path fill-rule="evenodd" clip-rule="evenodd" fill="#e3a13b" class="fill" d="M60.453,84.146c1.084-1.179,2.143-2.329,3.245-3.525
	c0.231,0.062,0.466,0.122,0.722,0.189c-0.045,0.184-0.035,0.323-0.1,0.39c-0.953,0.997-1.909,1.991-2.885,2.966
	C61.2,84.399,60.903,84.66,60.453,84.146z"/>
<path fill-rule="evenodd" clip-rule="evenodd" fill="#e3a13b" class="fill" d="M95.658,108.097c-0.041,0.21-0.014,0.479-0.135,0.62
	c-1.092,1.275-2.209,2.528-3.318,3.788c-0.086-0.034-0.171-0.069-0.256-0.106c0.041-0.261,0.047-0.537,0.135-0.782
	c0.061-0.171,0.229-0.306,0.359-0.447c0.978-1.072,1.957-2.143,2.936-3.214C95.472,108.003,95.565,108.049,95.658,108.097z"/>
<path fill-rule="evenodd" clip-rule="evenodd" fill="#e3a13b" class="fill" d="M92.276,130.893c0.077-0.272,0.083-0.596,0.24-0.808
	c0.995-1.341,2.13-2.556,3.472-3.832C95.868,127.156,93.808,129.826,92.276,130.893z"/>
<path fill-rule="evenodd" clip-rule="evenodd" fill="#e3a13b" class="fill" d="M93.766,106.905c0.296,0.218,0.5,0.365,0.794,0.58
	c-0.835,0.929-1.617,1.798-2.438,2.714c-0.472-0.531-0.381-0.981-0.038-1.393C92.597,108.191,93.144,107.605,93.766,106.905z"/>
<path fill-rule="evenodd" clip-rule="evenodd" fill="#e3a13b" class="fill" d="M158.21,74.956c0,0.413,0,0.824,0,1.309
	c-0.619,0.598-1.271,1.227-1.983,1.913c-0.465-1.742,1.022-2.302,1.685-3.32C158.011,74.89,158.111,74.923,158.21,74.956z"/>
<path fill-rule="evenodd" clip-rule="evenodd" fill="#e3a13b" class="fill" d="M155.689,96.144c-0.554-1.951,1.039-2.481,1.804-3.508
	c0,0.415,0,0.831,0,1.324C156.961,94.603,156.396,95.289,155.689,96.144z"/>
<path fill-rule="evenodd" clip-rule="evenodd" fill="#e3a13b" class="fill" d="M95.657,158.188c0,0.652,0,1.023,0,1.441
	c-0.722,0.521-1.426,1.031-2.155,1.559c-0.439-0.553-0.292-0.998,0.112-1.354C94.208,159.31,94.845,158.836,95.657,158.188z"/>
<path fill-rule="evenodd" clip-rule="evenodd" fill="#e3a13b" class="fill" d="M54.271,74.997c-1.341,1.052-1.947,2.623-3.648,3.291
	c0.029-0.809,0.613-1.066,0.931-1.478c0.351-0.454,0.718-0.916,1.157-1.273C53.078,75.239,53.265,74.439,54.271,74.997z"/>
<path fill-rule="evenodd" clip-rule="evenodd" fill="#e3a13b" class="fill" d="M95.719,148.561c-0.044,0.519,0.033,0.879-0.103,0.999
	c-0.872,0.774-1.484,1.849-2.791,2.469c0.094-0.454,0.062-0.8,0.221-0.995C93.765,150.15,94.563,149.345,95.719,148.561z"/>
<path fill-rule="evenodd" clip-rule="evenodd" fill="#e3a13b" class="fill" d="M155.949,81.109c-0.178-1.767,1.269-2.215,2.07-3.272
	C158.232,78.981,157.699,79.795,155.949,81.109z"/>
<path fill-rule="evenodd" clip-rule="evenodd" fill="#e3a13b" class="fill" d="M95.69,146.134c0,0.462,0,0.792,0,1.105
	c-0.899,0.784-1.757,1.533-2.643,2.306C92.812,148.661,93.69,147.536,95.69,146.134z"/>
<path fill-rule="evenodd" clip-rule="evenodd" fill="#e3a13b" class="fill" d="M95.645,155.718c0,0.5,0,0.821,0,1.136
	c-0.695,0.6-1.357,1.173-2.025,1.74c-0.109,0.093-0.239,0.158-0.386,0.254c-0.33-0.432-0.332-0.822,0.038-1.145
	C94.006,157.061,94.77,156.448,95.645,155.718z"/>
<path fill-rule="evenodd" clip-rule="evenodd" fill="#e3a13b" class="fill" d="M95.902,143.892c-0.067,0.274-0.045,0.637-0.214,0.81
	c-0.89,0.906-1.827,1.765-2.85,2.556c-0.095-0.95,0.698-1.329,1.17-1.885c0.5-0.587,1.105-1.087,1.664-1.625
	C95.75,143.795,95.825,143.845,95.902,143.892z"/>
<path fill-rule="evenodd" clip-rule="evenodd" fill="#e3a13b" class="fill" d="M68.86,89.142c1.155-1.21,2.215-2.503,3.62-3.749
	C72.319,86.611,69.951,89.03,68.86,89.142z"/>
<path fill-rule="evenodd" clip-rule="evenodd" fill="#e3a13b" class="fill" d="M95.711,151.185c0,0.261,0,0.521,0,0.82
	c-0.854,0.793-1.716,1.596-2.686,2.495c-0.229-1.058,0.551-1.405,0.955-1.916c0.444-0.562,0.997-1.038,1.502-1.551
	C95.559,151.084,95.635,151.135,95.711,151.185z"/>
<path fill-rule="evenodd" clip-rule="evenodd" fill="#e3a13b" class="fill" d="M42.526,67.946c0.138,0.059,0.298,0.128,0.634,0.271
	c-0.847,1.031-1.622,1.978-2.467,3.007C40.449,69.989,40.8,69.4,42.526,67.946z"/>
<path fill-rule="evenodd" clip-rule="evenodd" fill="#e3a13b" class="fill" d="M92.938,156.398c0.482-1.307,1.585-1.991,2.646-2.901
	C95.678,154.577,94.778,155.548,92.938,156.398z"/>
<path fill-rule="evenodd" clip-rule="evenodd" fill="#e3a13b" class="fill" d="M157.751,89.753c-0.098,1.395-1.053,2.116-1.822,3.016
	C155.593,91.701,156.258,90.595,157.751,89.753z"/>
<path fill-rule="evenodd" clip-rule="evenodd" fill="#e3a13b" class="fill" d="M155.508,101.001c-0.023-0.319-0.045-0.607-0.069-0.945
	c0.508-0.549,1.01-1.093,1.565-1.691C157.406,99.522,157.074,100.067,155.508,101.001z"/>
<path fill-rule="evenodd" clip-rule="evenodd" fill="#e3a13b" class="fill" d="M39.6,69.405c-0.175-1.147,0.699-1.753,1.283-2.57
	c0.216,0.116,0.372,0.201,0.576,0.31C41.098,68.146,40.323,68.746,39.6,69.405z"/>
<path fill-rule="evenodd" clip-rule="evenodd" fill="#e3a13b" class="fill" d="M155.006,110.13c0.467-0.448,0.919-0.881,1.471-1.412
	c0.338,1.451-0.68,1.832-1.471,2.571C155.006,110.793,155.006,110.472,155.006,110.13z"/>
<path fill-rule="evenodd" clip-rule="evenodd" fill="#e3a13b" class="fill" d="M40.254,82.252c-0.074-1.193,0.264-1.715,1.438-2.435
	c0.031,0.367,0.058,0.686,0.082,0.987C41.283,81.271,40.849,81.686,40.254,82.252z"/>
<path fill-rule="evenodd" clip-rule="evenodd" fill="#e3a13b" class="fill" d="M155.984,90.093c-0.224-1.04,0.341-1.84,1.807-2.747
	C157.608,88.624,156.563,89.096,155.984,90.093z"/>
<path fill-rule="evenodd" clip-rule="evenodd" fill="#e3a13b" class="fill" d="M40.061,79.734c-0.029-0.446-0.049-0.743-0.069-1.056
	c0.535-0.472,1.046-0.922,1.584-1.396C41.82,78.191,41.655,78.458,40.061,79.734z"/>
<path fill-rule="evenodd" clip-rule="evenodd" fill="#e3a13b" class="fill" d="M154.887,113.889c-0.203-1.23,0.641-1.617,1.323-2.177
	C156.467,112.748,156.399,112.858,154.887,113.889z"/>
<path fill-rule="evenodd" clip-rule="evenodd" fill="#e3a13b" class="fill" d="M41.76,75.569c-0.548,0.586-1.08,1.157-1.791,1.918
	c-0.21-1.144,0.565-1.542,0.93-2.107C41.08,75.099,41.406,75.058,41.76,75.569z"/>
<path fill-rule="evenodd" clip-rule="evenodd" fill="#e3a13b" class="fill" d="M156.869,103.698c0.014,1.278-0.83,1.733-1.459,2.329
	C155.341,104.974,156.064,104.439,156.869,103.698z"/>
<path fill-rule="evenodd" clip-rule="evenodd" fill="#e3a13b" class="fill" d="M42.242,111.01c-0.271,0.233-0.521,0.445-0.924,0.789
	c-0.057-0.578-0.1-1.006-0.148-1.511c0.262-0.234,0.524-0.472,0.986-0.89C42.19,110.056,42.212,110.451,42.242,111.01z"/>
<path fill-rule="evenodd" clip-rule="evenodd" fill="#e3a13b" class="fill" d="M41.312,106.731c-0.27-1.34-0.263-1.361,0.665-2.152
	c0.344,0.445,0.147,0.938,0.195,1.433C41.912,106.229,41.655,106.444,41.312,106.731z"/>
<path fill-rule="evenodd" clip-rule="evenodd" fill="#e3a13b" class="fill" d="M42.082,101.761c0.021,0.297,0.041,0.595,0.064,0.937
	c-0.31,0.329-0.614,0.654-1.117,1.19c-0.036-0.618-0.058-0.965-0.075-1.261c0.337-0.366,0.616-0.668,0.894-0.97
	C41.926,101.69,42.003,101.727,42.082,101.761z"/>
<path fill-rule="evenodd" clip-rule="evenodd" fill="#e3a13b" class="fill" d="M41.734,91.953c0.229,0.93,0.132,1.132-0.879,1.825
	C40.627,92.782,40.696,92.639,41.734,91.953z"/>
<path fill-rule="evenodd" clip-rule="evenodd" fill="#e3a13b" class="fill" d="M94.236,161.841c0.467-0.333,0.825-0.585,1.386-0.984
	c0.039,0.664,0.062,1.094,0.093,1.584C95.053,162.766,94.722,162.354,94.236,161.841z"/>
<path fill-rule="evenodd" clip-rule="evenodd" fill="#e3a13b" class="fill" d="M156.898,101.457c0.072,1.045-0.863,1.384-1.375,2.279
	C155.259,102.336,156.323,102.058,156.898,101.457z"/>
<path fill-rule="evenodd" clip-rule="evenodd" fill="#e3a13b" class="fill" d="M155.47,98.214c0.224-1.102,1.097-1.56,1.72-2.288
	C157.367,96.81,156.855,97.479,155.47,98.214z"/>
<path fill-rule="evenodd" clip-rule="evenodd" fill="#e3a13b" class="fill" d="M156.068,85.128c0.207-1.049,0.934-1.695,1.795-2.237
	C157.588,83.887,156.722,84.425,156.068,85.128z"/>
<path fill-rule="evenodd" clip-rule="evenodd" fill="#e3a13b" class="fill" d="M157.988,84.825c-0.352,1.245-1.082,1.863-1.863,2.56
	C156.191,86.514,156.809,85.647,157.988,84.825z"/>
<path fill-rule="evenodd" clip-rule="evenodd" fill="#e3a13b" class="fill" d="M155.984,114.522c0.264,1.053-0.675,1.406-1.087,2.248
	C154.662,115.492,154.777,115.28,155.984,114.522z"/>
<path fill-rule="evenodd" clip-rule="evenodd" fill="#e3a13b" class="fill" d="M41.665,86.898c0.069,0.207,0.126,0.306,0.13,0.405
	c0.01,0.188-0.012,0.378-0.021,0.614c-0.357,0.323-0.718,0.65-1.184,1.07C40.346,87.878,41.123,87.515,41.665,86.898z"/>
<path fill-rule="evenodd" clip-rule="evenodd" fill="#e3a13b" class="fill" d="M41.723,84.643c0.062,0.979-0.584,1.421-1.209,1.946
	C40.33,85.778,40.612,85.334,41.723,84.643z"/>
<path fill-rule="evenodd" clip-rule="evenodd" fill="#e3a13b" class="fill" d="M156.599,106.42c0.133,0.87-0.092,1.166-1.385,1.9
	C155.371,107.401,156.049,107.018,156.599,106.42z"/>
<path fill-rule="evenodd" clip-rule="evenodd" fill="#e3a13b" class="fill" d="M154.55,123.104c0.032-1.169,0.038-1.175,1.091-1.606
	c-0.025,0.374-0.048,0.697-0.074,1.062C155.245,122.732,154.953,122.887,154.55,123.104z"/>
<path fill-rule="evenodd" clip-rule="evenodd" fill="#e3a13b" class="fill" d="M42.143,112.729c0.262,0.929,0.262,0.929-0.633,1.557
	C41.181,113.567,41.181,113.567,42.143,112.729z"/>
<path fill-rule="evenodd" clip-rule="evenodd" fill="#e3a13b" class="fill" d="M154.604,118.892c0.011-0.876,0.56-1.282,1.188-1.7
	C155.899,118.166,155.79,118.32,154.604,118.892z"/>
<path fill-rule="evenodd" clip-rule="evenodd" fill="#e3a13b" class="fill" d="M42.065,123.574c-0.137-0.259-0.267-0.504-0.434-0.817
	c0.295-0.28,0.554-0.524,0.833-0.792C42.873,122.896,42.858,122.964,42.065,123.574z"/>
<path fill-rule="evenodd" clip-rule="evenodd" fill="#e3a13b" class="fill" d="M40.84,91.005c-0.185-0.797,0.407-1.098,0.939-1.699
	C42.032,90.368,41.132,90.51,40.84,91.005z"/>
<path fill-rule="evenodd" clip-rule="evenodd" fill="#e3a13b" class="fill" d="M41.846,96.612c0.36,1.052-0.426,1.273-0.825,1.723
	C40.795,97.579,41.303,97.196,41.846,96.612z"/>
<path fill-rule="evenodd" clip-rule="evenodd" fill="#e3a13b" class="fill" d="M42.117,99.016c-0.045,0.929-0.342,1.431-0.996,1.901
	c-0.087-0.302-0.152-0.523-0.226-0.776C41.262,99.805,41.603,99.491,42.117,99.016z"/>
<path fill-rule="evenodd" clip-rule="evenodd" fill="#e3a13b" class="fill" d="M41.473,119.191c-0.114-0.811,0.356-1.13,0.774-1.528
	C42.607,118.484,42.57,118.559,41.473,119.191z"/>
<path fill-rule="evenodd" clip-rule="evenodd" fill="#e3a13b" class="fill" d="M41.513,116.831c-0.141-0.768,0.129-1.245,0.783-1.584
	C42.604,116.07,42.222,116.492,41.513,116.831z"/>
<path fill-rule="evenodd" clip-rule="evenodd" fill="#e3a13b" class="fill" d="M41.734,82.78c-0.389,0.476-0.776,0.952-1.237,1.521
	c-0.117-0.897-0.03-1.022,1.046-1.694C41.606,82.664,41.67,82.723,41.734,82.78z"/>
<path fill-rule="evenodd" clip-rule="evenodd" fill="#e3a13b" class="fill" d="M94.752,104.506c-0.336-0.146-0.592-0.257-1.005-0.435
	c0.332-0.388,0.578-0.676,1.005-1.178C94.752,103.592,94.752,103.988,94.752,104.506z"/>
<path fill-rule="evenodd" clip-rule="evenodd" fill="#e3a13b" class="fill" d="M156.569,75.116c-0.129-0.27-0.177-0.334-0.19-0.404
	c-0.019-0.11-0.015-0.225-0.027-0.442c0.322-0.197,0.679-0.417,1.037-0.637c0.054,0.06,0.107,0.12,0.16,0.181
	C157.254,74.207,156.956,74.601,156.569,75.116z"/>
<path fill-rule="evenodd" clip-rule="evenodd" fill="#e3a13b" class="fill" d="M41.871,94.651c-0.165,0.711-0.165,0.711-0.951,1.158
	C41.125,95.143,41.125,95.143,41.871,94.651z"/>
<path fill-rule="evenodd" clip-rule="evenodd" fill="#e3a13b" class="fill" d="M42.658,120.262c-0.292,0.31-0.584,0.617-0.988,1.044
	c0.09-0.866,0.09-0.866,0.818-1.223C42.545,120.144,42.6,120.203,42.658,120.262z"/>
<path fill-rule="evenodd" clip-rule="evenodd" fill="#e3a13b" class="fill" d="M154.68,120.312c0.314-0.249,0.628-0.5,0.943-0.747
	c0.07,0.087,0.14,0.174,0.211,0.263c-0.313,0.261-0.626,0.519-0.939,0.779C154.822,120.51,154.751,120.41,154.68,120.312z"/>
<path fill-rule="evenodd" clip-rule="evenodd" fill="#e3a13b" class="fill" d="M92.095,106.059c0.319,0.15,0.444,0.209,0.706,0.333
	c-0.226,0.277-0.406,0.501-0.588,0.723c-0.061-0.029-0.12-0.059-0.182-0.086C92.051,106.757,92.066,106.487,92.095,106.059z"/>
<path fill-rule="evenodd" clip-rule="evenodd" fill="#e3a13b" class="fill" d="M156.143,82.607c0.287-0.314,0.572-0.63,0.857-0.943
	c0.055,0.044,0.11,0.087,0.164,0.132c-0.266,0.332-0.531,0.665-0.795,0.997C156.293,82.73,156.219,82.669,156.143,82.607z"/>
<path fill-rule="evenodd" clip-rule="evenodd" fill="#e3a13b" class="fill" d="M42.191,107.852c-0.199,0.226-0.399,0.45-0.599,0.677
	c-0.067-0.052-0.135-0.102-0.201-0.153c0.188-0.253,0.374-0.506,0.562-0.758C42.032,107.694,42.112,107.773,42.191,107.852z"/>
<path fill-rule="evenodd" clip-rule="evenodd" fill="#e3a13b" class="fill" d="M154.958,124.33c0.123-0.109,0.245-0.221,0.367-0.331
	c0.057,0.06,0.111,0.12,0.167,0.181c-0.119,0.114-0.236,0.229-0.355,0.344C155.078,124.46,155.018,124.395,154.958,124.33z"/>
</svg>
