<svg version="1.1" id="svg" xmlns="http://www.w3.org/2000/svg" xmlns:xlink="http://www.w3.org/1999/xlink" x="0px" y="0px"
	 width="200px" height="200px" viewBox="0 0 200 200" enable-background="new 0 0 200 200" xml:space="preserve">
<path class="stroke" fill="#2d4809"  d="M141.939,76.214c-0.246-0.506-0.697-0.439-1.166-0.321c-0.772,0.194-1.574,0.395-2.29-0.083
	c-0.716-0.479-1.473-0.967-2.018-1.615c-0.944-1.122-1.607-2.419-1.456-4.003c-0.326-0.164-0.626-0.314-0.903-0.453
	c-0.928,0.236-1.811,0.443-2.682,0.688c-1.144,0.322-2.273,0.691-3.418,1.01c-2.176,0.606-4.359,1.185-6.537,1.787
	c-2.39,0.66-4.76,1.395-7.167,1.983c-3.072,0.751-6.188,1.33-9.257,2.089c-3.578,0.886-7.129,1.877-10.687,2.843
	c-1.532,0.416-3.051,0.882-4.576,1.324c-2.125,0.616-4.321,1.06-6.357,1.894c-2.256,0.926-4.628,1.362-6.934,2.062
	c-1.325,0.401-2.743,0.502-3.942,1.292c-0.099,0.064-0.223,0.099-0.34,0.125c-2.217,0.486-4.386,1.208-6.686,1.286
	c-0.346,0.011-0.683,0.288-0.974,0.418c0.137,0.569,0.232,0.979,0.334,1.387c0.451,1.792,0.051,3.414-1.063,4.844
	c-0.579,0.744-1.241,1.416-2.203,1.729c-0.519,0.169-0.98,0.515-1.553,0.829c0.192,0.614,0.345,1.083,0.486,1.557
	c0.268,0.899,0.502,1.809,0.801,2.698c0.402,1.198,0.903,2.366,1.268,3.575c0.383,1.268,0.642,2.572,0.979,3.854
	c0.257,0.975,0.595,1.93,0.818,2.911c0.306,1.35,0.515,2.722,0.806,4.075c0.292,1.359,0.592,2.718,0.97,4.055
	c0.3,1.062,0.751,1.746,1.964,1.296c0.831-0.309,3.185,0.582,3.705,1.367c0.686,1.034,1.314,2.105,2.015,3.238
	c-0.052-0.006,0.028,0.01,0.108,0.011c1.803,0.018,3.492-0.537,5.193-1.035c0.979-0.287,1.958-0.59,2.955-0.806
	c1.396-0.301,2.814-0.493,4.21-0.792c2.24-0.48,4.474-0.998,6.704-1.521c3.388-0.796,6.772-1.602,10.154-2.42
	c1.877-0.454,3.753-0.918,5.617-1.42c2.021-0.545,4.016-1.193,6.046-1.698c2.264-0.564,4.562-0.988,6.832-1.53
	c1.543-0.369,3.062-0.842,4.594-1.261c2.094-0.573,4.18-1.175,6.286-1.695c1.56-0.386,3.163-0.597,4.715-1.006
	c1.184-0.312,2.311-0.838,3.479-1.219c1.586-0.517,3.19-0.976,4.78-1.479c0.529-0.167,0.521-0.416,0.345-0.93
	c-0.223-0.647-0.493-1.385-0.379-2.018c0.261-1.443,1.073-2.589,2.43-3.291c0.428-0.221,0.815-0.521,1.312-0.844
	C145.954,92.912,143.971,84.559,141.939,76.214z"/>
<path fill-rule="evenodd" clip-rule="evenodd" fill="#e1fe85" class="fill" d="M133.419,70.972c0.504,1.108,0.873,2.184,1.453,3.13
	c0.906,1.48,2.298,2.437,3.96,2.9c0.592,0.165,1.269,0.026,1.869,0.026c2.09,7.62,4.193,15.289,6.306,22.993
	c-2.439,1.551-4.435,3.325-3.54,6.555c-0.163,0.1-0.226,0.158-0.3,0.181c-2.02,0.63-4.045,1.249-6.062,1.888
	c-1.516,0.48-3.006,1.057-4.541,1.464c-2.899,0.769-5.828,1.426-8.734,2.167c-2.789,0.711-5.564,1.478-8.349,2.205
	c-1.11,0.29-2.23,0.545-3.347,0.81c-1.607,0.381-3.217,0.75-4.824,1.134c-2.33,0.557-4.671,1.076-6.985,1.694
	c-3.464,0.925-6.903,1.946-10.365,2.878c-1.086,0.292-2.219,0.407-3.322,0.644c-1.712,0.367-3.41,0.812-5.129,1.144
	c-2.251,0.435-4.518,0.792-6.84,1.192c-0.529-1.297-1.166-2.579-2.379-3.149c-1.167-0.549-2.536-0.668-3.922-1.002
	c-2-7.373-4.036-14.88-6.093-22.461c1.465-0.716,2.556-1.921,3.354-3.377c0.838-1.529,0.84-3.129,0.143-4.832
	c0.577-0.074,1.134-0.11,1.675-0.221c1.476-0.304,2.958-0.597,4.413-0.981c0.729-0.193,1.391-0.626,2.111-0.861
	c0.781-0.254,1.599-0.391,2.394-0.603c1.768-0.471,3.545-0.915,5.293-1.454c1.21-0.373,2.355-0.958,3.567-1.32
	c2.991-0.893,5.999-1.73,9.01-2.554c4.117-1.128,8.231-2.271,12.37-3.312c2.439-0.614,4.94-0.982,7.386-1.574
	c2.644-0.64,5.256-1.408,7.879-2.126c1.359-0.372,2.716-0.751,4.07-1.14c1.759-0.504,3.51-1.035,5.271-1.528
	C131.963,71.271,132.735,71.127,133.419,70.972z M77.847,119.877c0.005-0.027,0.011-0.054,0.017-0.081
	c0.423-0.029,0.856-0.011,1.268-0.095c2.723-0.553,5.469-1.018,8.153-1.723c3.543-0.93,7.031-2.067,10.55-3.091
	c3.051-0.887,6.106-1.76,9.171-2.6c1.648-0.453,3.326-0.801,4.979-1.238c1.44-0.38,2.855-0.859,4.299-1.221
	c2.738-0.686,5.494-1.301,8.234-1.981c1.25-0.311,2.469-0.752,3.721-1.057c3.112-0.759,6.241-1.454,9.354-2.212
	c1.524-0.371,2.79-1.251,3.699-2.489c0.868-1.18,0.93-2.633,0.815-4.063c-0.188-2.34-0.995-4.52-1.767-6.709
	c-0.985-2.796-1.959-5.595-2.937-8.394c-0.558-1.598-1.033-3.231-1.689-4.788c-0.766-1.815-2.2-2.911-4.368-2.503
	c-1.329,0.25-2.666,0.459-3.998,0.688c-2.022,0.346-4.06,0.624-6.062,1.061c-1.687,0.368-3.327,0.94-4.997,1.388
	c-3.309,0.888-6.62,1.767-9.938,2.62c-2.397,0.616-4.818,1.146-7.208,1.786c-3.947,1.057-7.878,2.179-11.819,3.26
	c-2.176,0.597-4.355,1.185-6.54,1.749c-2.634,0.679-5.268,1.366-7.919,1.972c-1.501,0.343-3.032,0.529-4.115,1.809
	c-0.594,0.702-0.876,1.474-0.712,2.395c0.173,0.972,0.544,1.868,0.895,2.789c0.454,1.191,0.613,2.497,0.885,3.756
	c0.217,1.005,0.381,2.023,0.628,3.02c0.309,1.244,0.697,2.467,1.017,3.708c0.626,2.43,1.219,4.868,1.845,7.298
	c0.195,0.757,0.417,1.51,0.686,2.243c0.357,0.974,0.753,1.976,1.848,2.337C76.479,119.723,77.176,119.761,77.847,119.877z"/>
<path fill-rule="evenodd" clip-rule="evenodd" fill="#e1fe85" class="fill" d="M116.393,79.934c0.518,1.827,0.991,3.614,1.536,5.38
	c0.35,1.134,0.851,2.221,1.201,3.354c0.53,1.711,0.972,3.449,1.481,5.166c0.509,1.715,1.098,3.408,1.575,5.132
	c0.422,1.525,0.709,3.087,1.113,4.617c0.292,1.105,0.68,2.186,1.047,3.348c-1.398,0.357-2.797,0.724-4.202,1.069
	c-1.622,0.398-3.253,0.754-4.871,1.167c-2.518,0.643-5.031,1.303-7.539,1.984c-2.235,0.606-4.46,1.251-6.69,1.88
	c-1.182,0.333-2.366,0.658-3.545,1.001c-3.114,0.904-6.21,1.877-9.345,2.704c-2.374,0.626-4.791,1.095-7.198,1.585
	c-1.021,0.208-2.064,0.326-3.103,0.425c-1.305,0.125-2.081-0.301-2.462-1.557c-0.953-3.139-1.821-6.304-2.71-9.461
	c-0.47-1.667-0.95-3.333-1.355-5.017c-0.33-1.372-0.516-2.777-0.84-4.149c-0.24-1.014-0.629-1.992-0.893-3.002
	c-0.161-0.617-0.245-1.26-0.302-1.896c-0.083-0.935,1.084-1.853,1.935-2.062c0.782-0.191,1.582-0.308,2.365-0.494
	c2.055-0.489,4.11-0.976,6.154-1.504c2.047-0.529,4.084-1.094,6.119-1.668c1.821-0.514,3.625-1.094,5.451-1.588
	c2.193-0.594,4.406-1.114,6.604-1.69c1.519-0.398,3.022-0.855,4.54-1.258c2.917-0.775,5.838-1.539,8.762-2.29
	c1.54-0.396,3.089-0.757,4.636-1.128C115.99,79.948,116.132,79.955,116.393,79.934z M92.161,106.373
	c-0.039-0.043-0.077-0.086-0.115-0.13c-0.102,0.234-0.301,0.475-0.288,0.703c0.057,0.957,0.244,1.888,0.987,2.587
	c1.572,1.478,3.475,1.898,5.537,1.574c0.922-0.145,1.821-0.489,2.708-0.806c1.425-0.511,2.405-1.581,3.081-2.864
	c1.067-2.029,1.195-4.146,0.051-6.202c-0.914-1.642-2-3.141-3.937-3.731c-0.534-0.163-1.053-0.379-1.694-0.613
	c0.56-1.281,1.07-2.512,1.635-3.718c0.315-0.672,0.778-1.278,1.063-1.96c0.166-0.394,0.217-0.899,0.134-1.318
	c-0.155-0.787-0.408-1.562-0.702-2.311c-0.088-0.227-0.46-0.506-0.678-0.487c-0.707,0.063-1.405,0.243-2.103,0.398
	c-1.333,0.297-2.671,0.579-3.993,0.923c-1.246,0.325-2.479,0.705-3.707,1.094c-0.794,0.252-1.026,0.743-0.818,1.544
	c0.171,0.663,0.333,1.328,0.525,2.095c0.998,0.405,1.941-0.22,2.91-0.376c1.016-0.164,2-0.512,3.114-0.81
	c-1.31,3.268-3.089,6.207-4.664,9.397c0.375,0.068,0.666,0.198,0.93,0.156c0.932-0.146,1.847-0.402,2.781-0.523
	c1.539-0.2,3.04-0.1,4.265,1.022c0.999,0.915,0.952,3.286-0.056,4.12c-1.211,1.002-3.242,0.708-4.093-0.628
	c-0.3-0.47-0.626-0.438-1.02-0.215C93.393,105.646,92.779,106.013,92.161,106.373z M88.286,113.476
	c-0.158-0.687-0.281-1.155-0.372-1.628c-0.137-0.714-0.111-1.341,0.475-1.94c1.2-1.227,1.847-2.69,1.413-4.458
	c-0.491-2.003-1.533-3.524-3.624-4.14c-1.12-0.33-2.237-0.674-3.336-1.068c-0.632-0.228-1.078-0.683-1.139-1.386
	c0.993-1.277,2.585-1.608,3.291,0.365c0.448,0.255,0.817,0.026,1.221-0.189c0.471-0.25,0.968-0.475,1.479-0.623
	c0.561-0.162,0.696-0.385,0.606-0.953c-0.235-1.5-1.314-2.243-2.528-2.817c-0.697-0.329-1.48-0.478-2.267-0.722
	c-0.308-0.673-0.637-1.394-0.979-2.143c-1.074,0.271-1.992,0.487-2.9,0.738c-0.504,0.139-0.797,0.427-0.644,1.031
	c0.158,0.622,0.246,1.261,0.377,1.961c-0.312,0.202-0.615,0.438-0.95,0.605c-0.619,0.312-1.149,0.693-1.239,1.436
	c-0.111,0.929-0.449,1.933-0.222,2.778c0.499,1.852,1.967,2.847,3.759,3.42c1.084,0.347,2.147,0.771,3.194,1.221
	c0.645,0.278,0.881,0.915,0.752,1.676c-0.104,0.618-0.621,1.235-1.245,1.209c-0.694-0.029-1.377-0.283-2.399-0.514
	c-0.758,0.359-2.04,0.431-2.955,1.208c0.069,1.833,1.241,3.04,2.914,3.216c0.834,0.087,1.66,0.263,2.446,0.392
	c0.292,0.833,0.559,1.592,0.823,2.344c0.638,0.335,1.197,0.063,1.766-0.138c0.434-0.153,0.879-0.272,1.31-0.435
	C87.643,113.797,87.955,113.629,88.286,113.476z M114.164,83.37c-1.43,0.459-2.913,0.936-4.32,1.388
	c-0.216,0.314-0.412,0.527-0.527,0.776c-1.197,2.575-2.381,5.155-3.569,7.734c-0.16,0.349-0.279,0.725-0.485,1.043
	c-0.82,1.264-0.948,2.576-0.578,4.04c0.331,1.311,0.447,1.46,1.725,0.986c0.095-0.035,0.188-0.074,0.286-0.099
	c1.324-0.325,2.65-0.646,3.975-0.974c0.554-0.137,1.104-0.289,1.664-0.437c0.58,1.706,1.135,3.296,1.659,4.896
	c0.282,0.86,0.556,1.728,0.749,2.61c0.184,0.839,0.57,1.03,1.343,0.638c0.472-0.24,1.009-0.351,1.515-0.528
	c0.825-0.29,1.648-0.586,2.453-0.872c0-0.245,0.02-0.369-0.003-0.483c-0.265-1.315-0.512-2.635-0.814-3.941
	c-0.3-1.297-0.674-2.577-0.983-3.872c-0.388-1.626-0.695-3.273-1.127-4.887c-0.49-1.824-1.07-3.624-1.631-5.429
	C115.22,85.081,114.981,84.175,114.164,83.37z"/>
<path fill-rule="evenodd" clip-rule="evenodd" fill="#e1fe85" class="fill" d="M125.578,106.497c-2.681-8.997-5.36-17.983-8.062-27.049
	c2.82-0.969,5.652-1.498,8.647-1.821c1.218,4.461,2.362,8.942,3.674,13.374c1.318,4.45,2.803,8.85,4.256,13.403
	C131.203,105.115,128.359,105.814,125.578,106.497z M122.445,83.541c-0.027-0.04-0.053-0.079-0.08-0.118
	c0.955-1.068,1.909-2.136,2.943-3.294c-0.04-0.229-0.098-0.56-0.165-0.948c-2.018,0.409-3.911,0.792-5.805,1.175
	c-0.02,0.087-0.04,0.175-0.06,0.263c0.178,0.195,0.356,0.39,0.47,0.514c1.49-0.344,2.848-0.656,4.205-0.969
	c0.025,0.052,0.05,0.104,0.076,0.156c-1.064,1.154-2.116,2.318-3.197,3.455c-0.489,0.515-0.529,0.669-0.062,1.157
	c1.82-0.477,3.655-0.958,5.611-1.47c-0.1-0.269-0.191-0.515-0.294-0.794C124.802,82.975,123.623,83.258,122.445,83.541z
	 M130.477,98.909c-1.627,0.386-3.228,0.765-4.945,1.172c0.059,0.305,0.113,0.578,0.173,0.891c0.69-0.154,1.255-0.28,1.953-0.435
	c0.287,0.842,0.573,1.683,0.884,2.598c-0.881,0.218-1.657,0.409-2.556,0.631c0.019,0.268,0.039,0.545,0.065,0.901
	c2.042-0.479,3.953-0.926,5.947-1.393c-0.135-0.308-0.218-0.499-0.326-0.744c-0.824,0.144-1.607,0.279-2.462,0.428
	c-0.308-0.908-0.595-1.752-0.908-2.675c0.88-0.177,1.675-0.337,2.534-0.511C130.694,99.432,130.612,99.235,130.477,98.909z
	 M127.464,92.6c0.009,0.077,0.018,0.153,0.028,0.23c0.159,0.056,0.371,0.205,0.467,0.15c0.284-0.163,0.651-0.355,0.757-0.626
	c0.447-1.152-0.606-2.702-1.823-2.666c-0.694,0.02-1.407,0.153-2.067,0.37c-0.725,0.238-1.284,0.754-1.601,1.482
	c-0.281,0.645-0.058,1.656,0.486,1.894c0.902,0.395,1.835,0.256,2.898,0.098c-0.299-0.812-0.274-1.627-0.893-2.29
	c-0.566,0.575,0.03,1.054-0.062,1.578c-0.583,0-1.167,0-1.716,0c-0.27-0.706-0.026-1.182,0.435-1.42
	c0.664-0.344,1.386-0.605,2.112-0.792c1.174-0.301,1.742,0.237,1.585,1.577C127.933,92.279,127.699,92.439,127.464,92.6z
	 M127.32,94.162c-1.424-0.01-2.32,0.575-2.84,1.814c-0.49,1.17,0.823,2.98,2.093,2.849c0.998-0.104,1.92-0.427,2.703-1.096
	c0.716-0.611,0.807-1.998,0.136-2.665C128.82,94.474,128.134,94.086,127.32,94.162z M126.767,84.949
	c-2.029,0.44-3.866,0.84-5.812,1.262c0.112,0.32,0.196,0.56,0.281,0.802c0.887-0.182,1.689-0.347,2.557-0.524
	c0.317,0.789,0.608,1.509,0.911,2.262c0.124,0,0.287,0,0.562,0c-0.258-0.819-0.491-1.56-0.77-2.442
	c0.607-0.121,1.189-0.238,1.858-0.372c0.276,0.884,0.525,1.682,0.803,2.57c0.071,0.006,0.229,0.021,0.467,0.042
	C127.625,87.204,127.027,86.108,126.767,84.949z"/>
<path fill-rule="evenodd" clip-rule="evenodd" fill="#e1fe85" class="fill" d="M135.384,104.081c-2.972-8.877-5.857-17.606-7.875-26.667
	c0.538-0.127,1.094-0.28,1.658-0.389c0.771-0.149,1.567-0.203,2.321-0.41c1.401-0.384,2.473,0.503,2.888,1.605
	c0.752,1.996,1.353,4.047,2.06,6.061c1.008,2.873,2.062,5.729,3.084,8.598c0.64,1.792,1.186,3.612,1.28,5.527
	c0.032,0.66-0.03,1.335-0.139,1.988c-0.226,1.367-1.199,2.195-2.337,2.753C137.455,103.573,136.463,103.75,135.384,104.081z
	 M133.051,84.845c0.895,0.138,1.45-0.153,1.713-0.872c0.221-0.604-0.06-1.343-0.754-1.746c-0.274-0.159-0.694-0.269-0.972-0.174
	c-0.432,0.146-0.798,0.485-1.086,0.673c-0.501,0-1-0.126-1.384,0.031c-0.538,0.219-0.783,1.111-0.621,1.702
	c0.206,0.749,0.827,1.326,1.507,1.402C132.014,85.924,132.771,85.455,133.051,84.845z M131.628,86.505
	c-0.765,0.786-0.81,1.386-0.2,2.147c0.54,0.675,1.271,0.716,2.038,0.601c0.398-0.06,0.79-0.165,1.183-0.251
	c1.366-0.303,1.728-1.062,1.099-2.305c-0.388-0.766-1.275-1.226-1.942-1.006c-0.553,0.183-0.805,0.938-0.618,1.84
	c0.053,0.251,0.094,0.504,0.138,0.745c-0.732,0.336-1.195,0.204-1.636-0.456C131.866,87.405,132.289,86.951,131.628,86.505z
	 M136.757,90.902c-0.221-0.857-0.853-1.217-1.624-1.222c-0.605-0.003-1.229,0.148-1.812,0.33c-0.712,0.22-1.009,1.02-0.756,1.725
	c0.416,1.159,1.55,1.96,3.132,1.5C136.518,92.568,136.518,92.568,136.757,90.902z M129.384,79.816
	c0.202-0.451,0.565-0.877-0.097-1.179c-0.79,0.683-0.673,1.9,0.247,2.829c1.516,0.307,1.688,0.22,2.394-1.254
	c0.252,0.08,0.515,0.16,0.775,0.245c0.263,0.086,0.524,0.176,0.769,0.259c0.455-0.417-0.035-2.501-0.694-2.956
	c-0.566,0.614,0.252,1.197,0.038,1.886c-0.694-0.32-1.357-0.625-2.036-0.938c-0.643,0.678,0.192,0.998,0.303,1.448
	c-0.34,0.634-0.715,0.735-1.513,0.397C129.515,80.333,129.452,80.083,129.384,79.816z M137.912,96.974
	c-0.354,0.29-0.333,0.604-0.015,0.82c0.373,0.254,0.563,0.54,0.35,0.955c-0.222,0.432-0.654,0.415-1.012,0.269
	c-0.79-0.323-1.694-0.443-2.27-1.188c-0.074-0.095-0.228-0.129-0.398-0.221c-0.111,0.213-0.199,0.382-0.249,0.477
	c0.475,1.227,0.917,2.367,1.358,3.506c0.08,0.02,0.16,0.04,0.24,0.059c0.119-0.121,0.239-0.242,0.312-0.315
	c-0.206-0.71-0.366-1.259-0.566-1.95c0.645,0.211,1.126,0.395,1.621,0.524c0.858,0.226,1.475-0.12,1.697-0.913
	C139.225,98.128,138.754,97.203,137.912,96.974z M134.945,96.129c0.209-0.057,0.42-0.113,0.63-0.171
	c0.7-0.19,1.407-0.359,2.095-0.583c0.206-0.067,0.36-0.291,0.572-0.472c-0.671-0.958-1.671-0.794-2.567-1.167
	c-0.022,0.317-0.038,0.536-0.051,0.728c0.2,0.148,0.342,0.254,0.592,0.439c-0.643,0.134-1.184,0.247-1.747,0.364
	c-0.201-0.428-0.38-0.807-0.58-1.229c-0.421,0.465-0.39,0.909,0.106,2.15c0.157,0.391,0.373,0.761,0.949,0.75
	C134.945,96.664,134.945,96.417,134.945,96.129z"/>
<path fill-rule="evenodd" clip-rule="evenodd" fill="#e1fe85" class="fill" d="M96.892,97.542c0.234,0.119,0.454,0.277,0.699,0.347
	c0.715,0.204,1.461,0.316,2.158,0.566c1.724,0.616,2.626,2.044,3.44,3.566c1.087,2.033,0.349,5.22-1.471,6.605
	c-1.736,1.321-3.7,1.97-5.89,1.271c-0.595-0.19-1.152-0.53-1.688-0.864c-0.666-0.414-0.918-1.096-1.037-1.969
	c0.291-0.146,0.61-0.305,0.905-0.452c1.098,0.635,2.132,1.251,3.388,1.162c0.413-0.029,0.843-0.09,1.22-0.246
	c0.516-0.213,1.059-0.452,1.466-0.819c1.817-1.64,1.285-5.073-0.905-6.129c-1.706-0.822-3.466-0.763-5.257-0.396
	c-0.226,0.046-0.459,0.057-0.884,0.107c0.557-1.076,1.02-2.005,1.514-2.918c0.976-1.806,2.001-3.589,2.584-5.573
	c0.079-0.269-0.044-0.598-0.076-0.923c-1.197-0.18-2.135,0.365-3.132,0.619c-1.005,0.256-2.019,0.482-3.099,0.737
	c-0.169-0.661-0.303-1.179-0.451-1.756c3.043-0.895,5.978-1.94,9.168-2.172c0.32,1.252,0.827,2.366-0.089,3.719
	c-0.921,1.363-1.424,3.009-2.111,4.53C97.212,96.846,97.077,97.137,96.892,97.542z"/>
<path fill-rule="evenodd" clip-rule="evenodd" fill="#e1fe85" class="fill" d="M86.561,110.317c0.094,0.77,0.2,1.641,0.313,2.57
	c-0.495,0.225-1.012,0.459-1.645,0.747c-0.31-0.831-0.586-1.575-0.914-2.458c-0.655-0.1-1.427-0.197-2.19-0.341
	c-0.593-0.112-1.196-0.227-1.755-0.444c-0.598-0.232-0.99-0.693-0.953-1.486c0.72-0.304,1.384-0.848,2.288-0.204
	c0.548,0.391,1.243,0.227,1.879,0.102c1.431-0.281,2.54-1.829,2.229-3.249c-0.246-1.121-1.175-1.637-2.161-2.008
	c-1.223-0.46-2.487-0.818-3.686-1.333c-1.665-0.715-2.4-2.488-1.96-4.231c0.227-0.898,0.964-1.147,1.614-1.508
	c0.788-0.438,0.986-0.854,0.727-1.691c-0.147-0.473-0.221-0.969-0.348-1.544c0.622-0.167,1.153-0.31,1.76-0.472
	c0.281,0.739,0.535,1.408,0.843,2.216c1.8,0.021,3.435,0.668,4.614,2.426c-0.501,0.25-0.869,0.433-1.348,0.672
	c-0.123-0.169-0.22-0.353-0.361-0.493c-0.726-0.725-1.599-0.948-2.555-0.59c-0.504,0.188-0.971,0.492-1.427,0.786
	c-1.675,1.083-1.034,2.439,0.268,3.15c0.732,0.399,1.552,0.681,2.366,0.878c1.644,0.398,3.068,1.027,3.984,2.577
	c0.88,1.49,0.858,3.159-0.241,4.5C87.523,109.354,87.082,109.767,86.561,110.317z"/>
<path fill-rule="evenodd" clip-rule="evenodd" fill="#e1fe85" class="fill" d="M113.612,84.631c2.248,6.31,3.723,12.761,5.029,19.326
	c-0.435,0.172-0.849,0.375-1.285,0.498c-0.439,0.125-0.9,0.171-1.394,0.258c-0.207-0.648-0.416-1.335-0.646-2.015
	c-0.34-1.004-0.713-1.998-1.039-3.006c-0.24-0.744-0.458-1.498-0.63-2.259c-0.201-0.885-0.342-0.988-1.244-0.753
	c-1.967,0.511-3.936,1.016-5.904,1.521c-0.132,0.034-0.269,0.048-0.488,0.087c-0.143-0.955-0.448-1.853-0.018-2.792
	c1.015-2.216,2.003-4.444,3.021-6.658c0.387-0.841,0.857-1.643,1.236-2.487c0.438-0.978,1.414-1.052,2.223-1.402
	C112.795,84.809,113.155,84.755,113.612,84.631z M108.226,94.775c0.041,0.096,0.082,0.192,0.122,0.288
	c0.389,0.039,0.82,0.205,1.159,0.093c1.102-0.362,2.172-0.824,3.252-1.253c0.17-0.068,0.328-0.164,0.357-0.179
	c-0.418-1.742-0.782-3.26-1.153-4.806c-0.533-0.282-1.148-0.019-1.453,0.639c-0.49,1.058-1.008,2.103-1.482,3.167
	C108.73,93.394,108.492,94.09,108.226,94.775z"/>
<path fill-rule="evenodd" clip-rule="evenodd" fill="#e1fe85" class="fill" d="M124.943,96.661c0.188-0.362,0.372-0.717,0.573-1.104
	c0.907-0.422,1.836-0.771,3.086-0.298c0.169,0.201,0.478,0.568,0.735,0.874c-0.417,1.228-2.034,2.241-3.07,1.951
	C125.619,97.903,125.219,97.367,124.943,96.661z"/>
<path fill-rule="evenodd" clip-rule="evenodd" fill="#e1fe85" class="fill" d="M131.065,83.231c0.588,0.537,0.973,0.888,1.379,1.258
	c-0.435,0.443-0.816,0.682-1.267,0.401c-0.239-0.149-0.507-0.437-0.536-0.687C130.614,83.948,130.864,83.662,131.065,83.231z"/>
<path fill-rule="evenodd" clip-rule="evenodd" fill="#e1fe85" class="fill" d="M133.677,84.243c-0.395-0.265-0.74-0.497-1.066-0.716
	c0.432-0.871,1.001-0.844,1.628-0.023C134.09,83.699,133.93,83.911,133.677,84.243z"/>
<path fill-rule="evenodd" clip-rule="evenodd" fill="#e1fe85" class="fill" d="M135.435,87.833c-0.507,0.067-0.962,0.127-1.546,0.204
	c0-0.573,0-0.981,0-1.371C134.841,86.477,135.123,86.67,135.435,87.833z"/>
<path fill-rule="evenodd" clip-rule="evenodd" fill="#e1fe85" class="fill" d="M133.223,91.02c0.92-0.356,1.816-0.721,2.784-0.214
	c0.023,1.369-0.312,1.737-1.503,1.704C133.678,92.486,133.159,91.929,133.223,91.02z"/>
<path fill-rule="evenodd" clip-rule="evenodd" fill="#e1fe85" class="fill" d="M111.275,91.364c0.131,0.596,0.262,1.192,0.408,1.856
	c-0.599,0.287-1.153,0.554-1.888,0.907c0.253-1.168,0.87-1.952,1.318-2.814C111.167,91.329,111.221,91.346,111.275,91.364z"/>
</svg>
