<svg version="1.1" id="svg" xmlns="http://www.w3.org/2000/svg" xmlns:xlink="http://www.w3.org/1999/xlink" x="0px" y="0px"
	 width="200px" height="200px" viewBox="0 0 200 200" enable-background="new 0 0 200 200" xml:space="preserve">
<path class="stroke" fill="#51050f"  d="M195.823,138.135c-0.652-0.517-1.408-0.903-2.058-1.421c-1.198-0.955-2.339-1.982-3.53-2.946
	c-0.852-0.69-1.767-1.301-2.617-1.992c-3.174-2.576-6.333-5.168-9.493-7.761c-0.362-0.296-0.689-0.633-1.075-0.991
	c0.226-0.116,0.351-0.187,0.481-0.246c1.39-0.627,2.643-1.489,2.939-3.054c0.493-2.601,0.938-5.225,1.146-7.859
	c0.191-2.424-1.472-4.243-3.922-4.68c-0.577-0.102-1.173-0.092-1.854-0.14c-0.149-2.19-0.921-4.098-2.864-5.424
	c-1.886-1.289-4.042-1.328-6.219-1.457c-0.273-1.254-0.535-2.461-0.771-3.552c-1.533-2.128-4.005-1.412-5.863-2.042
	c-0.454-1.166-0.845-2.17-1.182-3.035c-3.082-0.681-5.903-1.304-8.762-1.936c-2.606,1.994-5.161,3.946-7.76,5.934
	c-0.201-0.128-0.451-0.273-0.684-0.442c-1.36-0.981-2.705-1.982-4.076-2.948c-1.32-0.93-2.704-1.775-3.99-2.75
	c-1.471-1.113-2.843-2.356-4.298-3.492c-1.729-1.35-3.465-2.694-5.266-3.944c-0.788-0.546-1.744-0.853-2.625-1.269
	c-0.099,0.128-0.198,0.256-0.298,0.384c1.909,2.951,4.429,5.451,6.481,8.321c-0.351-0.05-0.633-0.173-0.905-0.312
	c-0.746-0.38-1.469-0.812-2.24-1.127c-0.321-0.132-0.741-0.022-1.116-0.022c-0.033,0.109-0.066,0.218-0.1,0.327
	c1.089,1.264,2.179,2.527,3.337,3.871c-0.255-0.024-0.43-0.002-0.573-0.06c-2.154-0.848-4.297-1.723-6.459-2.548
	c-0.432-0.166-0.932-0.148-1.4-0.215c-0.046,0.11-0.092,0.218-0.138,0.329c0.521,0.566,0.983,1.204,1.573,1.687
	c1.503,1.227,3.079,2.366,4.598,3.575c1.967,1.564,3.928,3.137,5.85,4.755c1.555,1.309,3.048,2.689,4.543,4.015
	c-1.015,1.495-1.959,2.813-2.819,4.185c-0.331,0.529-0.697,1.195-0.652,1.767c0.122,1.541,0.433,3.07,0.715,4.595
	c0.143,0.774,0.609,1.159,1.468,1.182c1.23,0.034,2.457,0.21,3.542,0.312c2.563,4.132,2.563,4.132,7.636,4.132
	c0.074,0.235,0.196,0.494,0.232,0.766c0.198,1.497,1.125,2.607,2.415,3.004c1.514,0.466,3.18,0.535,4.784,0.569
	c0.817,0.018,1.322,0.098,1.757,0.866c0.727,1.286,1.76,2.175,3.413,2.067c0.669-0.043,1.354,0.15,2.002,0.232
	c0.37,0.604,0.671,1.202,1.071,1.726c0.676,0.884,1.532,1.474,2.723,1.442c1.093-0.03,2.186-0.006,3.296-0.006
	c0.727-0.383,1.487-0.785,2.251-1.188c0.158,0.088,0.297,0.139,0.402,0.228c1.329,1.127,2.625,2.296,3.985,3.383
	c2.361,1.884,4.795,3.676,7.137,5.582c2.902,2.363,5.783,4.734,9.022,6.652c1.712,1.014,3.139,0.92,4.692-0.2
	c1.361-0.982,2.176-2.356,2.841-3.837C197.111,139.868,196.905,138.993,195.823,138.135z"/>
<path class="stroke" fill="#51050f"  fill-rule="evenodd" clip-rule="evenodd" d="M101.557,59.87c0.079-0.177,0.182-0.411,0.295-0.668
	c1.432-0.273,2.846-0.773,4.249-0.283c1.219,5.789,2.424,11.512,3.664,17.392c-0.52,0.537-2.592,0.837-3.737,0.247
	C104.566,71.101,103.07,65.516,101.557,59.87z"/>
<path class="stroke" fill="#51050f"  fill-rule="evenodd" clip-rule="evenodd" d="M115.148,82.428c-0.817-0.308-1.575-0.519-2.253-0.878
	c-0.364-0.193-0.592-0.642-0.883-0.978c3.799-4.839,6.222-10.333,9.15-15.617c0.647-0.585,1.264,0.021,1.861,0.227
	c0.647,0.223,1.244,0.603,1.849,0.939c0.673,0.375,0.808,1.027,0.308,1.794c-0.554,0.849-1.171,1.658-1.773,2.476
	c-1.563,2.119-3.164,4.212-4.688,6.359c-0.635,0.894-1.091,1.915-1.676,2.848C116.43,80.577,115.76,81.521,115.148,82.428z"/>
<path class="stroke" fill="#51050f"  fill-rule="evenodd" clip-rule="evenodd" d="M117.358,52.621c0.179,0.162,0.369,0.334,0.52,0.473
	c-0.966,5.155-1.922,10.258-2.902,15.487c-0.637,0.086-1.371,0.186-2.188,0.297c-0.219-0.334-0.433-0.659-0.518-0.787
	c0.603-5.171,1.179-10.109,1.753-15.035C115.08,52.918,116.163,52.777,117.358,52.621z"/>
<path class="stroke" fill="#51050f"  fill-rule="evenodd" clip-rule="evenodd" d="M103.164,74.832c-0.021,0.033-0.167,0.278-0.34,0.566
	c-0.675-0.11-1.081-0.417-1.367-1.085c-1.303-3.046-2.692-6.053-4.009-9.093c-0.866-2.002-1.66-4.035-2.531-6.16
	c0.333-0.245,0.66-0.485,1.132-0.832C98.425,63.774,100.743,69.182,103.164,74.832z"/>
<path class="stroke" fill="#51050f"  d="M101.802,90.147c-2.031-0.372-3.965,0.967-6.155,0.518c0.312-0.211,0.527-0.371,0.755-0.508
	c1.628-0.981,3.266-1.949,4.881-2.951c0.211-0.131,0.312-0.439,0.465-0.665c-0.06-0.078-0.12-0.156-0.18-0.233
	c-4.203,1.222-8.406,2.444-12.609,3.667c-0.034-0.082-0.066-0.163-0.099-0.245c0.162-0.234,0.282-0.518,0.492-0.695
	c2.415-2.041,4.848-4.061,7.26-6.104c0.312-0.263,0.532-0.634,0.794-0.956c-0.071-0.084-0.143-0.168-0.214-0.253
	c-0.252,0.09-0.512,0.166-0.759,0.271c-1.138,0.485-2.271,0.985-3.411,1.465c-1.465,0.615-2.945,1.196-4.403,1.827
	c-1.512,0.652-3.008,1.343-4.51,2.021c-1.255,0.566-2.529,1.095-3.757,1.714c-1.533,0.773-3.023,1.629-4.54,2.435
	c-1.04,0.553-2.071,1.128-3.146,1.606c-1.391,0.619-2.818,1.153-4.234,1.712c-0.093,0.037-0.225-0.023-0.155-0.014
	c-1.909-1.638-4.253-1.422-6.643-2.373c-1.391-1.411-2.973-3.244-5.815-2.968c-2.687,0.261-4.476,1.755-5.809,3.53
	c-1.682,0.493-3.084,0.917-4.495,1.313c-2.376,0.668-3.885,2.383-5.076,4.376c-0.477,0.796-1.028,1.285-1.864,1.522
	c-0.522,0.148-1.066,0.227-1.586,0.383c-1.891,0.571-3.27,1.661-3.714,3.698c-0.073,0.334-0.229,0.65-0.364,1.024
	c-0.91,0.292-1.83,0.548-2.716,0.89c-0.442,0.17-1,0.406-1.192,0.775c-0.425,0.812-0.769,1.706-0.929,2.604
	c-0.305,1.715-0.457,3.456-0.661,5.087c-0.669,0.424-1.23,0.827-1.833,1.152c-1.495,0.804-3.009,1.572-4.515,2.354
	c-1.851,0.963-3.719,1.894-5.546,2.901c-2.041,1.124-4.476,1.625-5.929,3.698c-0.079,0.113-0.215,0.199-0.342,0.263
	c-1.242,0.615-1.66,1.813-1.575,2.98c0.176,2.416,2.429,5.121,5.085,5.445c0.834,0.102,1.608,0.238,2.41-0.277
	c1.063-0.683,2.201-1.259,3.342-1.807c2.631-1.262,5.304-2.436,7.921-3.725c2.36-1.163,4.669-2.432,7.092-3.703
	c0.21,0.154,0.477,0.314,0.7,0.52c0.614,0.569,1.17,1.206,1.82,1.729c1.227,0.987,2.479,1.947,3.767,2.854
	c0.979,0.688,1.911,1.352,3.322,1.074c2.386-0.47,4.431-1.248,5.407-3.704c0.087-0.222,0.309-0.393,0.503-0.629
	c0.342,0.175,0.613,0.328,0.896,0.456c0.973,0.442,1.875,1.191,3.059,0.769c0.566-0.202,1.132-0.418,1.673-0.678
	c1.086-0.522,2.083-1.081,2.287-2.496c0.101-0.694,0.576-1.334,0.935-2.114c0.447,0.368,0.793,0.623,1.102,0.917
	c0.65,0.618,1.394,0.837,2.234,0.501c1.233-0.494,2.464-0.994,3.667-1.552c1.224-0.566,1.701-1.671,1.84-3.001
	c0.313,0.088,0.54,0.125,0.743,0.214c1.151,0.5,2.298,0.601,3.541,0.279c1.497-0.388,3.037-0.604,4.554-0.917
	c0.303-0.063,0.596-0.21,0.872-0.359c1.221-0.656,1.728-1.829,2.094-3.06c0.334-1.126,0.57-2.281,0.934-3.771
	c-0.498-2.209-1.069-4.745-1.661-7.368c0.099-0.072,0.293-0.248,0.516-0.373c2.34-1.314,4.664-2.657,7.033-3.916
	c1.993-1.058,4.045-2,6.059-3.019c2.609-1.319,5.217-2.644,7.803-4.008c0.944-0.499,1.823-1.12,2.731-1.686
	C101.902,90.425,101.852,90.287,101.802,90.147z"/>
<path fill-rule="evenodd" clip-rule="evenodd" fill="#f04c47" class="fill" d="M50.164,109.742c-0.337,1.113,0.417,1.589,0.943,2.295
	c1.116,1.498,2.027,3.154,2.954,4.784c0.485,0.852,0.85,1.778,1.224,2.688c0.136,0.33,0.145,0.712,0.206,1.044
	c-1.781,1.395-3.789,1.902-5.717,2.31c-2.528-1.265-3.494-3.498-4.319-5.92c-0.502-1.476-0.728-3.095-1.913-4.319
	c-1.325-1.368-1.906-1.317-2.759,0.515c0.087,0.151,0.199,0.345,0.31,0.539c0.914,1.604,1.844,3.196,2.734,4.811
	c0.594,1.078,1.141,2.184,1.695,3.283c0.718,1.426,0.414,2.456-0.946,3.235c-0.667,0.382-1.336,0.765-2.016,1.125
	c-0.744,0.395-2.261-0.017-2.924-0.784c-1.23-1.421-2.435-2.864-3.687-4.266c-1.043-1.166-2.168-2.258-3.199-3.435
	c-0.93-1.059-1.781-2.187-2.779-3.421c1.246-2.123,0.6-4.914,2.511-6.708c2.288-0.051,3.678-1.032,4.323-3.074
	c0.178-0.565,0.531-1.084,0.851-1.594c0.569-0.911,1.568-0.836,2.43-0.883c1.79-0.099,2.765-1.069,3.384-2.65
	c0.607-1.55,1.705-2.703,3.327-3.189c0.908-0.272,1.873-0.386,2.821-0.483c1.543-0.159,2.6-0.973,3.115-2.374
	c0.553-1.5,1.699-1.926,3.111-2.216c1.999-0.409,3.057,0.96,4.368,1.981c1.73,1.349,3.45,2.759,5.354,3.825
	c2.138,1.197,3.664,2.758,4.404,5.079c0.98,3.077,1.9,6.174,2.944,9.228c0.452,1.322,0.179,2.331-0.836,3.176
	c-1.221,1.017-2.569,1.748-4.454,1.578c-0.276-0.42-0.667-0.91-0.947-1.456c-1.371-2.678-2.695-5.38-4.072-8.055
	c-0.574-1.116-1.21-2.204-1.875-3.268c-0.553-0.886-1.396-1.156-2.472-0.879c-0.444,0.527-0.532,1.135-0.004,1.673
	c2.269,2.308,3.696,5.169,5.16,7.982c0.569,1.094,0.688,2.422,1.014,3.643c0.309,1.155-1.035,2.463-2.323,2.979
	c-0.908,0.364-1.837,0.68-2.766,0.984c-1.069,0.351-2.568-0.494-3.028-1.609c-0.847-2.056-1.653-4.135-2.644-6.121
	c-0.417-0.836-1.214-1.512-1.926-2.165C51.252,109.185,50.635,109.185,50.164,109.742z"/>
<path fill-rule="evenodd" clip-rule="evenodd" fill="#f04c47" class="fill" d="M76.178,113.001c-1.055,1.211-1.055,1.211-1.658,1.259
	c0.563-1.431-0.037-2.749-0.384-4.065c-0.344-1.301-0.886-2.55-1.353-3.859c0.956-0.514,1.758-0.946,2.686-1.444
	C76.906,107.322,77.884,109.747,76.178,113.001z"/>
<path fill-rule="evenodd" clip-rule="evenodd" fill="#f04c47" class="fill" d="M153.58,105.101c-0.977,1.373-1.913,2.714-2.876,4.036
	c-0.386,0.529-0.811,1.035-1.254,1.518c-1.066,1.161-2.126,2.33-3.243,3.443c-0.868,0.866-1.742,1.764-2.749,2.445
	c-1.21,0.819-2.143-0.224-3.134-0.757c-1.796-0.966-1.523-2.69-1.683-4.302c-0.186-1.882,0.585-3.447,1.571-4.882
	c2.177-3.166,4.443-6.271,6.728-9.36c1.048-1.417,2.214-2.747,3.353-4.093c0.599-0.709,1.407-1.094,2.323-0.899
	c1.464,0.312,2.942,0.635,4.334,1.165c0.546,0.208,0.939,0.947,1.283,1.516c0.243,0.403,0.285,0.926,0.374,1.242
	c1.083,1.016,2.302,0.98,3.502,0.989c1.305,0.008,2.631,0.623,2.876,2.413c0.062,0.45,0.224,0.893,0.388,1.32
	c0.492,1.274,1.645,1.926,3.012,1.976c1.058,0.038,2.142,0.198,3.151,0.509c1.518,0.468,1.966,1.845,2.269,3.22
	c0.426,1.936,0.813,2.225,2.819,2.141c1.09-0.044,2.035,0.274,2.394,1.974c-0.302,2.096-0.712,4.626-1.018,7.169
	c-0.193,1.601-1.291,2.454-2.434,3.297c-1.549,1.142-3.142,2.227-4.684,3.378c-1.389,1.037-2.689,2.2-4.118,3.177
	c-1.004,0.688-2.139,0.178-3.205-0.053c-0.224-0.048-0.43-0.173-0.675-0.275c-0.304-0.526-0.615-1.064-0.967-1.672
	c0.912-0.759,1.75-1.447,2.578-2.146c1.386-1.171,2.772-2.343,4.142-3.534c0.654-0.569,1.275-1.176,1.904-1.773
	c0.187-0.178,0.387-0.36,0.516-0.579c0.511-0.871,0.382-1.89-0.26-2.267c-0.662-0.387-1.659,0.036-2.259,0.75
	c-2.057,2.448-4.012,5.003-6.666,6.879c-0.378,0.267-0.707,0.602-1.076,0.883c-1.397,1.064-2.542,1.089-3.929,0.038
	c-0.645-0.489-1.23-1.055-1.867-1.607c1.398-2.346,3.053-4.381,5.333-5.876c0.75-0.492,1.416-1.116,2.093-1.711
	c0.979-0.862,0.973-2.008,0.764-3.149c-0.129-0.706-0.643-0.795-1.835-0.507c-1.107,1.458-2.068,2.893-3.204,4.173
	c-1.288,1.452-2.733,2.763-4.107,4.137c-0.205,0.206-0.405,0.415-0.594,0.634c-1.45,1.683-2.152,1.811-4.135,0.757
	c-0.356-0.189-0.747-0.321-1.084-0.535c-1.895-1.202-2.312-1.993-1.001-3.913c1.211-1.773,2.59-3.389,4.199-4.835
	c1.152-1.034,2.276-2.183,3.096-3.481C155.522,106.495,155.319,106.188,153.58,105.101z"/>
<path fill-rule="evenodd" clip-rule="evenodd" fill="#f04c47" class="fill" d="M136.979,112.165c-0.988,0.136-1.929,0.266-3.034,0.417
	c-0.106-0.04-0.372-0.142-0.637-0.243c-0.703-1.729-0.039-3.086,1.094-4.319c0.775-0.843,1.562-1.673,2.354-2.519
	c0.788,0.346,1.586,0.582,1.302,1.689C137.089,108.125,136.918,111.145,136.979,112.165z"/>
</svg>
