<svg version="1.1" id="svg" xmlns="http://www.w3.org/2000/svg" xmlns:xlink="http://www.w3.org/1999/xlink" x="0px" y="0px"
	 width="200px" height="200px" viewBox="0 0 200 200" enable-background="new 0 0 200 200" xml:space="preserve">
<path class="stroke" fill="#51050f"  d="M173.125,72.856c-0.271-1.752-0.74-3.478-1.196-5.195c-2.423-9.112-6.166-17.543-12.64-24.584
	c-2.543-2.768-5.611-4.569-9.257-5.366c-4.269-0.932-8.467-0.523-12.495,1.098c-3.045,1.227-5.963,2.767-9.003,4.006
	c-3.851,1.568-6.716,4.464-9.741,7.104c-2.33,2.034-3.305,4.972-4.169,8.198c-1.268,0.693-2.528,1.512-3.888,2.1
	c-3.379,1.461-6.861,0.832-10.325,0.332c-3.446-0.497-6.866-0.395-10.087,1.031c-2.878,1.273-5.756,2.598-8.465,4.185
	c-2.529,1.482-4.966,3.187-7.219,5.062c-5.271,4.39-9.882,9.456-14.392,14.61c-0.583,0.667-1.229,1.287-1.896,1.872
	c-4.481,3.935-8.695,8.104-11.892,13.2c-0.726,1.156-1.417,2.275-1.802,3.628c-0.327,1.151-1.03,2.215-1.673,3.251
	c-1.216,1.962-2.771,3.757-3.716,5.835c-2.587,5.69-3.16,11.702-2.248,17.877c0.471,3.18,1.059,6.36,1.233,9.561
	c0.344,6.289,0.589,12.593-0.103,18.883c-0.17,1.546,0.394,2.758,1.556,3.817c1.587,1.448,3.478,1.782,5.464,1.76
	c3.381,3.172,7.637,4.276,11.861,5.437c1.717,0.472,3.224,0.001,4.592-1.228c0.599-3.286-2.416-4.263-3.99-6.096
	c0.477-0.773,1.01-1.42,1.299-2.161c0.523-1.341,0.633-2.706,0.465-4.206c-0.465-4.148-0.723-8.323-0.952-12.493
	c-0.115-2.089,0.007-4.191,0.021-6.365c2.416-0.206,4.561-0.39,6.799-0.581c0.147,2.034,0.249,3.801,0.409,5.562
	c0.398,4.366,0.84,8.728,1.229,13.095c0.131,1.464,0.502,2.814,1.566,4.259c1.582,0.104,3.326,0.22,5.095,0.337
	c0.814,1.823,2.727,2.134,4.214,3.047c4.019,2.466,8.379,2.729,12.896,2.062c1.112-0.164,1.676-0.837,1.861-1.892
	c0.214-1.222-0.239-2.032-1.705-2.692c-1.552-0.699-3.158-1.281-4.554-1.839c0.482-0.963,1.27-1.817,1.271-2.673
	c0.005-2.729-0.218-5.465-0.469-8.188c-0.427-4.626-1.062-9.234-1.387-13.866c-0.304-4.351-0.318-8.721-0.45-12.762
	c2.335-2.036,4.657-3.843,6.724-5.905c4.696-4.688,9.224-9.547,13.909-14.246c2.395-2.402,4.228-5.177,5.972-8.037
	c0.949-1.556,1.855-3.137,2.912-4.929c0.738,0.472,1.28,0.706,1.675,1.093c1.073,1.05,1.996,2.266,3.135,3.23
	c2.41,2.044,5.16,3.043,8.366,2.221c0.729-0.188,1.475-0.312,2.206-0.495c3.42-0.855,6.662-2.061,9.301-4.541
	c2.926-2.75,6.3-4.782,10.011-6.331c2.264-0.944,4.447-2.108,6.582-3.321c1.104-0.627,2.025-1.575,2.994-2.35
	c3.957,1.477,7.925,2.346,12.1,2.067c0.738-0.896,1.429-1.732,2.322-2.814C173.361,76.09,173.373,74.453,173.125,72.856z"/>
<path fill-rule="evenodd" clip-rule="evenodd" fill="#f04c47" class="fill" d="M74.094,137.335c-1.223,0.343-2.446,0.687-3.805,1.066
	c-0.1-0.604-0.162-0.982-0.232-1.406c1.027-0.561,2.389-0.282,3.027-1.547c0.547-1.082,0.919-2.133,0.539-3.484
	c-0.422-0.358-0.935-0.796-1.33-1.132c-5.016,0.235-9.883,2.019-14.908-0.457c-0.323,0.711-0.776,1.265-0.804,1.838
	c-0.226,4.717-0.39,9.433,0.185,14.146c0.24,1.968,0.208,3.967,0.354,5.948c0.116,1.567,0.246,3.14,0.496,4.689
	c0.254,1.57-0.022,2.974-0.881,4.348c-3.132,0.301-6.245,0.703-9.37,0.861c-1.923,0.098-3.651-0.618-4.706-2.393
	c-0.217-0.364-0.23-0.849-0.376-1.431c1.411-0.132,2.725,0.737,4.03-0.3c-1.312-1.052-3.24-0.808-4.285-2.359
	c1.365-0.939,3.037,0.84,4.364-0.791c-1.438-0.464-2.776-0.896-4.261-1.375c0.052-0.513,0.104-1.011,0.16-1.574
	c1.484,0,2.812,0,4.408,0c-1.204-1.847-3.102-1.022-4.559-1.938c0.089-0.54,0.191-1.163,0.283-1.719
	c1.185-0.166,2.18-0.306,3.391-0.475c-0.917-1.301-2.238-0.91-3.359-1.398c0-0.535,0-1.103,0-1.756
	c1.429-0.16,2.748-0.308,4.273-0.479c-1.112-1.912-2.727-0.883-4.224-1.254c-0.12-0.799-0.253-1.686-0.36-2.395
	c1.026-1.007,2.986,0.242,3.207-1.962c-1.084,0-2.065,0-3.241,0c0-0.806,0-1.505,0-2.127c1.167-0.369,2.231-0.706,3.487-1.103
	c-1.177-1.569-2.55-0.237-3.891-0.965c-0.107-0.563-0.261-1.368-0.43-2.25c1.352-0.205,2.455-0.373,3.904-0.593
	c-1.221-1.46-2.568-0.754-3.902-1.139c-0.034-0.615-0.072-1.319-0.117-2.141c0.992-0.294,1.887-0.559,2.905-0.86
	c-0.539-1.536-1.935-0.545-3.049-1.17c-0.055-0.578-0.128-1.345-0.192-2.029c0.711-0.56,1.918-0.213,1.861-1.616
	c-0.605-0.098-1.236-0.199-1.947-0.313c-0.091-0.394-0.18-0.78-0.282-1.222c0.505-0.455,0.991-0.895,1.594-1.438
	c-0.617-0.278-1.092-0.493-1.618-0.73c0-0.796,0-1.591,0-2.374c0.83-0.391,1.532-0.72,2.536-1.191
	c-0.761-0.483-1.22-0.775-1.962-1.246c0.847-0.78,1.609-1.481,2.558-2.354c-0.028-0.188-0.096-0.627-0.189-1.242
	c0.345-0.398,0.782-0.904,1.378-1.593c0.833,0.661,1.597,1.267,2.354,1.868c-1.068,1.463-2.026,2.777-3.041,4.167
	c0.275,0.942,0.539,1.845,0.834,2.854c-1.064,3.96-0.806,4.776,2.047,6.143c0.849,1.871,2.242,3.014,4.395,3.131
	c0.679,0.037,1.393,0.104,2.015,0.349c1.968,0.776,3.497-0.077,4.841-1.31c1.098-1.006,2.009-2.213,2.954-3.276
	c1.206,0.621,2.042,1.052,2.901,1.494c0.701-0.195,1.353-0.376,2.147-0.598c0.511-0.976,1.04-1.988,1.572-3.004
	c4.512,0.381,8.987,0.759,13.464,1.139c0.673,1.935,3.683,31.917,3.414,34.36c-3.339,1.936-6.91,2.289-10.961,1.246
	c0.738-0.829,1.305-1.466,1.87-2.102c-0.086-0.113-0.173-0.227-0.259-0.34c-0.57,0.098-1.142,0.194-1.879,0.319
	c-0.263-0.422-0.524-0.843-0.808-1.299c0.843-0.734,2.435-0.275,2.477-1.96c-0.999,0-1.933,0-2.944,0
	c-0.187-0.485-0.344-0.895-0.545-1.416c1.54-0.507,3.306-0.439,4.031-2.587c-1.506,0.35-2.771,0.644-4.156,0.965
	c-0.234-0.652-0.407-1.133-0.625-1.74c1.598-0.56,3.599-0.212,4.396-2.457c-1.583,0.229-2.987,0.432-4.558,0.659
	c-0.205-0.863-0.354-1.485-0.506-2.126c1.441-0.822,3.331-0.428,4.35-2.417c-1.564,0.124-2.893,0.229-4.305,0.342
	c0-0.509,0-0.764,0-1.124c1.555-0.584,3.413-0.829,4.162-2.49C74.291,137.581,74.193,137.458,74.094,137.335z"/>
<path fill-rule="evenodd" clip-rule="evenodd" fill="#f04c47" class="fill" d="M63.861,112.155c-2.276-1.369-4.645-2.715-6.926-4.194
	c-1.178-0.764-1.707-1.942-1.212-3.531c9.022-10.434,17.325-21.68,27.917-30.876c-1.25-1.197-1.521-1.286-2.513-0.396
	c-2.188,1.964-4.435,3.887-6.424,6.043c-3.755,4.071-7.372,8.271-10.995,12.463c-2.817,3.259-5.553,6.586-8.333,9.877
	c-0.396,0.469-0.84,0.897-1.255,1.352c-0.818,0.896-1.633,1.799-2.681,2.954c-0.96-0.637-2.098-1.393-3.39-2.251
	c0.475-0.724,0.733-1.281,1.134-1.705c2.159-2.289,4.376-4.524,6.53-6.818c3.046-3.244,6.033-6.544,9.088-9.779
	c2.113-2.238,4.246-4.461,6.459-6.598c3.1-2.993,6.239-5.949,9.444-8.828c2.036-1.829,4.12-3.7,6.751-4.61
	c2.51-0.867,5.102-1.535,7.699-2.101c1.477-0.32,2.993-0.047,4.411,0.841c-0.96,3.472-1.915,6.929-2.909,10.524
	c-0.617-0.646-1.17-1.227-1.879-1.969C94.25,72.71,93.662,72.885,93,73.081c0.778,1.193,1.475,2.121,2.018,3.131
	c0.752,1.395,0.815,2.832,0.112,4.325c-2.1,4.458-5.044,8.315-8.48,11.786c-5.204,5.253-10.488,10.427-15.776,15.595
	C68.995,109.753,66.797,111.13,63.861,112.155z"/>
<path fill-rule="evenodd" clip-rule="evenodd" fill="#f04c47" class="fill" d="M121.021,66.341c-0.567,0.125-1.104,0.089-1.409,0.337
	c-1.371,1.115-2.808,2.195-3.976,3.506c-1.773,1.991-3.374,4.14-4.99,6.266c-1.023,1.346-1.939,2.773-3.093,4.436
	c-1.616-6.001-0.546-11.377,1.685-16.772c1.523-0.582,3.106-1.188,4.727-1.808c1.615,2.182,3.627,3.31,6.373,2.884
	c0.646-0.101,1.346,0.148,2.175,0.257c0.185-0.422,0.386-0.885,0.57-1.309c-0.712-0.771-1.356-1.469-1.931-2.091
	c0.473-4.432,5.058-7.76,8.716-6.47c0.9,2.835,0.249,4.416-2.765,6.718c0.49,2.353,2.463,4.264,4.954,4.621
	c0.421,0.591,0.93,1.308,1.441,2.022c1.183,1.651,2.849,2.295,4.64,1.802c0.666-0.184,1.135-0.496,0.841-1.586
	c-0.647,0.052-1.339,0.106-2.376,0.189c-1.013-1.237-2.149-2.627-3.42-4.181c1.123-0.833,2.033-1.507,2.91-2.156
	c2.557,0.7,3.877,2.919,5.947,4.305c0.369-0.603,0.635-1.037,0.955-1.561c-1.48-1.254-2.879-2.437-4.454-3.771
	c4.075-1.894,8.089-1.696,12.493-0.846c-1.531,1.356-3.736,0.638-4.734,2.496c1.023,1.636,3.111,1.69,4.797,2.845
	c-0.714,0.465-1.264,0.823-1.871,1.219c2.016,2.144,4.432,2.965,6.555,4.389c-1.428,0.168-2.854,0.335-4.794,0.562
	c-0.219-0.383-0.667-1.167-1.052-1.839c-1.018,0.142-1.568,0.218-2.494,0.347c1.702,3.042,4.25,4.77,6.648,6.976
	c-0.937,0.682-1.838,1.338-2.632,1.916c-3.073,0.335-4.394-1.75-5.746-3.688c-1.546,0.3-1.963,0.884-1.253,1.938
	c0.562,0.837,1.366,1.517,2.096,2.233c0.368,0.361,0.811,0.649,1.415,1.124c-0.517,0.212-0.8,0.369-1.104,0.445
	c-2.149,0.537-3.788,1.792-5.212,3.46c-2.773,3.25-6.524,4.929-10.483,6.171c-1.69,0.53-3.483,0.725-5.189,1.212
	c-1.933,0.552-3.36-0.115-4.505-1.594c-0.705-0.911-1.314-1.896-1.84-2.937c-0.652-0.594-1.309-1.184-1.957-1.782
	c-2.814-2.595-3.399-5.828-2.002-9.191c1.357-3.27,3.215-6.331,4.859-9.48c0.156-0.299,0.375-0.564,0.527-0.864
	C121.116,66.988,121.056,66.83,121.021,66.341z M141.608,72.038c-0.485,0-0.999-0.122-1.086,0.019
	c-1.129,1.821-2.198,3.681-3.378,5.693c-0.748-0.647-1.554-1.344-2.496-2.159c-0.445,0.251-0.943,0.531-1.575,0.887
	c1.319,2.14,3.147,3.17,5.206,3.874c0.345-0.223,0.707-0.321,0.774-0.52C139.899,77.336,140.703,74.826,141.608,72.038z
	 M129.627,84.205c0.261-0.303,0.596-0.69,1.07-1.242c-1.928-1.761-3.766-3.438-5.708-5.212c-0.47,0.246-0.904,0.474-1.468,0.77
	C125.594,80.449,127.509,82.232,129.627,84.205z M123.664,61.29c0.904,0.181,1.67,0.334,2.24,0.448
	c0.627-1.087,1.071-1.856,1.565-2.713c-1.144-0.733-2.141-0.021-3.262,0.229C124.043,59.874,123.893,60.435,123.664,61.29z
	 M124.479,84.617c-1.677-0.157-2.291,0.296-2.375,1.391c0.617,0.776,1.305,0.889,1.85,0.326
	C124.277,85.999,124.273,85.346,124.479,84.617z"/>
<path fill-rule="evenodd" clip-rule="evenodd" fill="#f04c47" class="fill" d="M153.176,63.385c1.492-0.979,2.792-1.832,4.092-2.685
	c-0.034-0.517-0.061-0.913-0.086-1.307c-0.252-0.108-0.427-0.231-0.615-0.259c-2.839-0.407-5.68-0.807-8.521-1.199
	c-2.252-0.312-4.482-0.251-7.082,0.762c1.096-1.659,2.636-1.865,3.765-2.832c0.021-0.303,0.047-0.695,0.074-1.104
	c-1.783-1.061-3.7-0.933-5.786-0.847c0.844-1.649,2.697-1.669,3.729-2.768c0-0.392,0-0.782,0-1.357
	c-1.869-0.144-3.662-0.282-5.982-0.46c1.535-1.008,2.648-1.738,3.875-2.542c0.043-0.285,0.103-0.68,0.208-1.375
	c-1.622-0.198-3.188-0.39-4.798-0.587c2.062-3.316,10.102-4.592,14.301-2.18c-1.354,0.316-2.523,0.591-3.897,0.912
	c1.197,2.314,3.497,2.898,5.283,4.553c-1.435,0.363-2.904-0.331-3.903,1.053c1.368,2.517,4.016,3.183,6.447,4.534
	c-1.434,0.249-2.865,0.498-4.386,0.762c0.313,1.392,1.255,1.605,2.065,1.812c2.514,0.646,5.05,1.196,7.578,1.782
	c0.445,0.103,0.894,0.195,1.463,0.318c-0.536,1.611-2.203,1.939-3.053,3.188c0.74,1.192,2.081,1.191,3.156,1.63
	c1.129,0.461,2.307,0.804,3.789,1.309c-1.421,1.28-2.655,2.393-3.964,3.571c1.423,1.625,3.504,1.655,5.216,2.59
	c-0.652,1.819-2.648,2.344-3.677,4.002c0.606,0.745,1.224,1.502,2.019,2.478c-2.502-0.354-4.296-1.455-6.314-3.039
	c1.489-0.598,2.655-1.065,3.887-1.559c0.16-0.428,0.324-0.861,0.47-1.248c-1.913-1.654-4.812-0.647-6.565-2.63
	c1.564-1.234,4.087-0.609,5.122-2.912C158.557,64.608,155.632,65.044,153.176,63.385z"/>
<path fill-rule="evenodd" clip-rule="evenodd" fill="#f04c47" class="fill" d="M99.43,89.891c1.079,0.188,1.808,0.315,2.722,0.476
	c-0.245,0.42-0.4,0.839-0.681,1.144c-2.361,2.566-4.74,5.115-7.123,7.662c-1.215,1.297-2.418,2.608-3.682,3.856
	c-1.166,1.152-2.385,2.253-3.617,3.334c-3.496,3.067-7.004,6.121-10.525,9.158c-0.613,0.528-1.32,0.948-2.042,1.46
	c-0.837-0.458-1.598-0.875-2.578-1.411c0.509-0.595,0.863-1.062,1.271-1.479c6.037-6.183,11.633-12.729,16.395-19.956
	c0.939-1.426,1.64-3.014,2.628-4.401c1.538-2.16,3.229-4.213,5.103-6.632C98.052,85.5,98.725,87.644,99.43,89.891z"/>
<path fill-rule="evenodd" clip-rule="evenodd" fill="#f04c47" class="fill" d="M83.008,118.146c-1.786-0.238-3.47-0.462-5.327-0.71
	c0.631-1.537,1.823-2.367,2.854-3.26c3.256-2.819,6.711-5.417,9.873-8.333c3.315-3.055,6.42-6.344,9.543-9.601
	c1.793-1.869,3.434-3.883,5.154-5.821c0.207-0.232,0.488-0.398,0.957-0.771c0.367,1.674,0.684,3.11,1.004,4.567
	c-0.472,2.069-1.716,3.692-3.186,5.151c-4.131,4.103-8.277,8.188-12.443,12.256c-1.075,1.05-2.188,2.078-3.381,2.989
	C86.482,115.815,84.814,116.892,83.008,118.146z"/>
<path fill-rule="evenodd" clip-rule="evenodd" fill="#f04c47" class="fill" d="M53.715,111.705c-1.715-0.076-2.268,0.987-2.98,1.732
	c-0.739,0.775-1.373,1.652-2.013,2.437c-1.073-0.435-0.885-1.034-0.487-1.56c1.389-1.836,2.819-3.64,4.285-5.52
	c3.529,3.012,7.329,4.922,11.658,6.135c0,1.761,0,3.565,0,5.635c-0.635-1.172-1.164-2.149-1.713-3.163
	c-1.596,0.011-2.124,1.197-2.584,2.295c-0.773,1.845-2.145,3.154-3.604,4.404c-0.338,0.288-0.787,0.446-1.176,0.659
	c-0.715-0.854-0.296-1.501,0.097-2.149c1.027-1.696,2.062-3.389,3.079-5.091c0.296-0.496,0.545-1.02,0.829-1.556
	c-1.008-0.468-1.483,0.043-1.882,0.607c-0.866,1.226-1.728,2.456-2.527,3.725c-0.76,1.206-1.439,2.464-2.236,3.839
	c-0.562-0.239-1.018-0.433-1.516-0.645c0.753-3.748,3.224-6.412,5.11-9.474c-1.019-0.505-1.513,0.045-1.955,0.652
	c-1.481,2.036-2.949,4.082-4.658,6.452c-0.281-0.056-0.95-0.187-1.738-0.341c0.452-2.052,1.716-3.304,2.8-4.68
	C51.555,114.768,52.513,113.36,53.715,111.705z"/>
<path fill-rule="evenodd" clip-rule="evenodd" fill="#f04c47" class="fill" d="M107.153,63.911c-3.028,6.998-2.969,13.932-0.958,21.058
	c-1.631,0.666-2.986,1.219-4.304,1.757c-2.343-3.574-2.179-18.204,1.271-22.814c0.515,0,1.186,0,1.856,0
	C105.609,63.911,106.2,63.911,107.153,63.911z"/>
<path fill-rule="evenodd" clip-rule="evenodd" fill="#f04c47" class="fill" d="M113.053,88.38c-0.903,1.622-1.721,3.091-2.54,4.561
	c-0.144-0.015-0.287-0.03-0.431-0.045c-0.348-2.132-0.695-4.263-1.083-6.646c1.01-0.144,1.847-0.263,2.798-0.397
	C112.215,86.693,112.6,87.468,113.053,88.38z"/>
</svg>
