<svg version="1.1" id="svg" xmlns="http://www.w3.org/2000/svg" xmlns:xlink="http://www.w3.org/1999/xlink" x="0px" y="0px"
	 width="200px" height="200px" viewBox="0 0 200 200" enable-background="new 0 0 200 200" xml:space="preserve">
<path class="stroke" fill="#51050f"  d="M149.219,112.965c2.031-3.854,1.167-6.99-1.376-9.787c-0.412-0.454-1.158-0.831-1.761-0.848
	c-2.978-0.084-5.495,0.93-7.15,3.536c-1.585,2.496-0.521,4.437,2.903,4.704c-0.548-1.135-1.014-2.098-1.479-3.061
	c0.799-2.604,2.4-3.658,5.595-3.574c2.339,1.973,3.251,4.559,2.474,7.604c-0.923,3.614-5.488,6.88-9.536,6.92
	c-0.099-0.475-0.239-0.969-0.302-1.472c-0.788-6.219-3.169-11.758-7.052-16.671c-0.983-1.246-1.433-2.634-0.926-4.236
	c0.271-0.861,0.495-1.741,0.675-2.627c0.611-3.013,1.426-6.01,1.727-9.055c0.339-3.429-1.062-6.661-1.822-9.959
	c-0.42-1.816-0.718-3.66-1.018-5.226c2.541-4,5.594-7.313,5.848-12.136c-0.598-0.56-1.114-1.106-1.695-1.572
	c-0.588-0.469-1.223-0.885-1.867-1.273c-7.306-4.416-15.138-7.628-23.541-9.015c-8.254-1.362-16.592-2.26-24.921-3.095
	c-4.349-0.436-8.785-0.431-13.09,0.536c-5.953,1.337-10.924,4.421-15.312,8.692c-4.207,4.095-6.909,8.899-8.236,14.547
	c-1.206,5.133-2.508,10.226-3.383,15.453c-1.064,6.365-1.044,12.64,0.134,18.878c0.744,3.952,2.49,7.625,6.055,10.021
	c1.804,1.209,3.641,2.369,5.666,3.683c-1.789,9.011-3.874,17.923-7.528,26.694c1.438,1.205,2.726,2.471,4.194,3.474
	c2.797,1.91,5.634,3.84,9.135,4.228c2.247,0.25,4.51,0.548,6.761,0.511c5.198-0.085,10.4-0.29,15.613-1.916
	c3.302,2.753,7.247,4.431,11.235,6.059c5.783,2.358,11.276,1.498,16.496-1.499c1.855-1.066,3.653-1.62,5.766-1.551
	c3.029,0.102,6.043-0.167,8.946-1.124c1.68-0.554,3.033-1.489,4.014-3.084c1.278-2.078,1.7-4.288,1.688-6.652
	c-0.005-1.2-0.001-2.4-0.001-3.658c3.843-4.126,5.675-9.157,6.379-14.608c0.507-0.187,0.846-0.362,1.205-0.434
	C144.136,119.489,147.202,116.794,149.219,112.965z"/>
<path class="stroke" fill="#51050f"  d="M154.761,125.349c-3.617-2.077-7.686-2.57-11.831-2.07c-0.734,0.088-1.464,0.382-1.255,1.517
	c0.558,0.024,1.09,0.143,1.586,0.056c2.374-0.421,4.648,0.093,6.938,0.599c4.67,1.032,7.812,5.499,7.034,9.857
	c-0.409,2.293-1.277,4.276-3.386,4.929c-2.364,0.731-4.954,0.698-6.976-1.322c-0.159-0.16-0.31-0.33-0.452-0.507
	c-0.766-0.946-0.719-1.952-0.153-2.953c0.574-1.019,1.519-1.142,2.556-0.93c0.704,0.144,1.404,0.313,2.104,0.471
	c0.137-0.229,0.272-0.456,0.408-0.686c-0.438-0.417-0.812-0.958-1.327-1.224c-1.409-0.727-3.792-0.01-4.885,1.37
	c-1.42,1.793-1.57,3.679-0.412,5.189c2.039,2.659,6.752,3.5,9.677,1.785c3.21-1.883,4.294-4.848,4.532-8.354
	C159.155,129.591,157.585,126.97,154.761,125.349z"/>
<path class="stroke" fill="#51050f"  d="M167.63,106.46c-1.36-2.144-3.727-2.669-6.211-2.441c-0.376,0.034-0.763,0.025-1.127,0.11
	c-2.254,0.526-3.781,1.94-4.407,4.117c-0.598,2.081,0.065,3.858,1.905,5.157c1.32,0.099,2.674,0.384,3.729-1.208
	c-0.97-0.172-1.758-0.312-2.479-0.439c-2.012-2.313-1.751-5.123,0.617-6.042c2.146-0.833,4.222-0.324,5.926,1.163
	c1.575,1.375,1.915,3.241,1.261,5.178c-0.783,2.313-2.241,4.06-4.64,4.92c-2.306,0.828-4.657,1.22-7.11,1.125
	c-0.735-0.029-1.48,0.209-2.222,0.325c0.026,0.23,0.053,0.462,0.079,0.693c1.804,1.043,3.743,0.643,5.646,0.349
	c3.847-0.596,7.015-2.279,8.889-5.867C168.714,111.251,169.06,108.713,167.63,106.46z"/>
<path fill-rule="evenodd" clip-rule="evenodd" fill="#f04c47" class="fill" d="M121.127,68.3c-0.513,1.048-1.022,2.095-1.677,3.437
	c2.636,0.734,4.438-1.205,6.884-1.736c0.177,2.456,0.345,4.794,0.543,7.551c-3.607-1.562-6.887-2.651-10.419-2.439
	c-0.314,0.019-0.608,0.364-1.008,0.62c0.57,0.911,1.455,0.886,2.215,0.937c3.242,0.22,6.084,1.689,9.045,2.795
	c1.059,0.396,1.238,1.377,1.656,2.274c2.168,4.657,1.022,9.153-0.506,13.651c-0.195,0.572-0.426,1.131-0.609,1.705
	c-0.59,1.852-0.276,3.477,0.877,5.111c2.258,3.199,4.557,6.412,5.852,10.162c0.734,2.125,1.294,4.319,0.814,6.853
	c-0.705,0.035-1.352,0.119-1.99,0.089c-1.961-0.09-3.918-0.231-5.877-0.336c-0.794-0.042-1.547,0.021-1.658,1.283
	c2.969,1.126,6.188,0.635,9.455,1.169c0.341,3.631-1.027,6.577-3.242,9.352c-0.736-0.347-1.382-0.65-2.18-1.026
	c-0.776,0.595-1.536,1.175-2.055,1.57c-1.146,2.269-0.867,4.147-0.085,6.161c0.645,1.658,1.04,3.483,1.146,5.259
	c0.119,2.033-0.774,2.911-2.786,3.091c-1.325,0.118-2.698,0.075-4.012-0.138c-2.157-0.35-4.136-0.309-6.063,0.969
	c-1.626,1.077-3.405,1.948-5.18,2.772c-4.822,2.24-9.704,1.537-14.617,0.248c-3.103-0.815-5.486-2.737-7.971-4.597
	c-5.001-3.742-8.77-8.678-12.89-13.252c-3.033-3.37-5.276-7.354-6.969-11.586c-0.706-1.767-0.93-3.632-0.431-5.557
	c0.188-0.73,0.03-1.55-0.187-2.361c-2.387,2.144-3.462,4.938-3.354,7.875c0.168,4.579,0.104,9.227,1.488,13.689
	c1.047,3.377,2.117,6.748,3.168,10.126c0.109,0.351,0.148,0.724,0.282,1.399c-5.75,0.18-10.646-1.779-15.525-4.488
	c0.219-1.056,0.337-1.944,0.592-2.79c0.495-1.646,0.978-3.307,1.626-4.896c2.295-5.645,3.22-11.603,4.153-17.563
	c0.081-0.51,0.296-1,0.479-1.602c2.7-0.772,4.785-2.404,6.498-4.625c0.772-1,1.854-1.761,2.897-2.723
	c-0.182-0.587-0.375-1.214-0.554-1.797c-0.273-0.149-0.463-0.275-0.667-0.36c-1.736-0.723-3.562-1.282-5.195-2.188
	c-2.624-1.455-3.859-3.731-3.262-6.813c0.201-1.033,0.291-2.094,0.561-3.107c0.818-3.098,3.407-4.708,6.524-3.968
	c1.144,0.271,2.202,0.895,3.249,1.336c0.347,1.037,0.629,1.877,0.977,2.924c-2.49-0.062-4.768,0.003-6.428,1.854
	c-0.729,0.814-0.746,1.759-0.322,4.366c0.565,0.42,1.27,0.945,1.858,1.383c1.88-0.029,3.053-0.694,3.652-2.68
	c-0.931,0.297-1.606,0.514-2.358,0.755c-1.131-0.492-1.747-1.344-1.46-2.647c0.224-1.012,1.197-1.493,2.766-1.445
	c0.81,0.025,1.618,0.113,2.596,0.187c0.314,0.916,0.649,1.988,1.05,3.036c0.397,1.036,0.859,2.047,1.373,3.26
	c2.253-0.389,4.383-0.757,6.46-1.115c0.506-0.871,0.913-1.574,1.301-2.241c-1.235-6.803-3.077-13.475-1.776-20.356
	c2.428-1.457,4.794-2.659,6.905-4.207c2.05-1.503,3.839-3.361,5.955-5.255c3.06,0.332,6.181-0.629,9.273-2.101
	c-0.479,2.777-3.299,3.248-4.607,5.117c0.978,0.98,1.965,0.653,2.87,0.381c3.034-0.916,6.047-1.902,9.074-2.845
	c0.699-0.218,1.422-0.364,2.133-0.546c0.101,0.134,0.199,0.268,0.299,0.4c-0.904,0.964-1.809,1.927-2.916,3.107
	C113.753,72.77,117.043,69.384,121.127,68.3z M88.011,106.44c-0.087-0.054-0.148-0.12-0.216-0.128
	c-0.219-0.028-0.443-0.074-0.657-0.045c-3.086,0.437-5.277,2.222-7.335,4.468c-4.846,5.289-5.27,11.252-3.065,17.685
	c0.408,1.188,1.087,2.312,1.791,3.364c2.592,3.872,6.495,5.537,10.925,5.949c1.662,0.155,3.449-0.252,5.079-0.741
	c1.504-0.452,1.661-1.229,1.005-2.835c-0.474,0.049-0.987,0.075-1.489,0.162c-2.635,0.454-5.129,0.034-7.369-1.407
	c-3.242-2.086-5.856-4.677-6.79-8.64c-1.208-5.126-0.276-9.76,3.204-13.699c0.996-1.128,2.579-1.743,3.911-2.565
	C87.61,107.633,88.55,107.509,88.011,106.44z M90.792,95.491c5.133-0.22,7.756-2.289,8.406-6.812
	c0.424-2.945-0.839-6.26-4.852-6.577c-2.607-0.207-5.126,0.284-7.296,1.885c-2.279,1.681-3.201,5.164-2.154,7.982
	C85.838,94.51,87.703,95.624,90.792,95.491z M118.989,95.31c3.372-0.229,5.257-0.75,6.731-4.542
	c0.482-1.237,0.724-2.619,0.802-3.952c0.148-2.476-1.464-4.362-3.911-4.649c-1.024-0.119-2.085,0.137-3.127,0.104
	c-3.344-0.103-5.743,2.597-6.437,5.848C112.071,92.688,115.183,94.886,118.989,95.31z M114.784,128.098
	c2.906,0.568,6.439-2.456,7.355-6.193c-0.834-0.586-1.872-1.317-2.906-2.045c1.215-1.684,2.135-2.956,3.15-4.363
	c-2.443-2.848-4.813-5.609-7.362-8.58c-0.556,0.611-0.962,1.06-1.491,1.643c2.148,2.586,4.16,5.005,6.225,7.489
	c-0.975,1.37-1.961,2.756-3.3,4.636c1.278,0.832,2.418,1.575,3.896,2.537C118.259,125.054,116.655,126.459,114.784,128.098z
	 M114.847,97.624c-2.201-2.906-4.269-5.634-6.481-8.556c-0.278,0.12-0.777,0.331-1.219,0.52c0.446,3.803,3.503,5.811,5.396,8.605
	c-0.711,0.519-1.204,0.85-1.664,1.223c-0.475,0.384-0.915,0.809-1.492,1.322C111.736,101.577,113.145,100.673,114.847,97.624z
	 M82.157,82.325c0.641-0.211,1.393-0.273,1.908-0.653c4.407-3.253,9.337-5.116,14.758-5.749c0.205-0.023,0.395-0.178,0.666-0.308
	c-0.075-0.423-0.147-0.828-0.212-1.188C94.18,73.922,83.531,78.521,82.157,82.325z M117.177,138.71
	c-0.208-0.608-0.427-1.249-0.639-1.868c-2.97,0.793-2.97,0.793-3.6,2.694C114.858,141.227,115.275,141.172,117.177,138.71z"/>
<path fill-rule="evenodd" clip-rule="evenodd" fill="#f04c47" class="fill" d="M73.013,54.34c-0.171,2.193-1.924,3.471-3.18,5.357
	c3.489,1.042,5.486-1.748,8.545-2.417c-1.399,1.767-2.615,3.302-3.912,4.938c1.168,0.952,2.234,0.684,3.206,0.078
	c1.847-1.15,3.635-2.396,5.451-3.595c0.618-0.408,1.249-0.797,2.186-1.391c-0.319,2.37-1.548,3.877-2.688,5.502
	c0.869,1.287,1.791,0.773,2.711,0.213c2.512-1.523,5.024-3.051,7.691-4.672c0.105,0.499,0.201,0.953,0.331,1.571
	c2.64,0.725,4.62-1.241,7.071-1.928c0,0.843,0,1.565,0,2.151c0.838,0.895,1.582,0.712,2.391,0.309
	c1.955-0.977,3.928-1.916,5.896-2.864c0.531-0.256,1.075-0.487,2.08-0.938c-0.583,1.839-1.041,3.286-1.512,4.769
	c1.893,1.26,3.631,0.371,5.295-0.105c1.29-0.367,2.467-1.121,3.712-1.664c0.665-0.288,1.367-0.492,2.418-0.865
	c-0.379,1.506-0.663,2.635-0.968,3.849c0.495,0.298,0.927,0.559,1.654,0.999c-1.447,0.838-2.747,1.592-4.047,2.346
	c-0.141-0.115-0.278-0.231-0.418-0.347c0.514-1.284,1.027-2.569,1.567-3.923c-0.423-0.27-0.788-0.502-1.085-0.691
	c-4.056,1.442-7.167,4.688-11.814,5.309c0.956-2.038,2.713-3.575,2.21-6.219c-2.981,1.285-5.433,3.25-8.584,3.059
	c-0.327-0.959-0.659-1.929-0.944-2.763c-1.487-0.626-2.127,0.283-2.9,1.01c-2.967,2.783-5.85,5.676-9.002,8.234
	c-1.78,1.445-3.91,2.689-6.089,3.358c-2.858,0.876-4.044,2.632-4.312,5.365c-0.02,0.213-0.139,0.418-0.404,1.184
	c-0.791-2.123-1.42-3.812-2.049-5.5c-1.938-0.147-2.187,1.472-2.86,2.536c-0.715,1.13-1.283,2.355-2.043,3.779
	c-1.452-1.922-1.12-4.199-2.155-6.267c-2.719,0.759-2.846,3.817-4.953,5.688c-0.378-2.421-0.663-4.458-1.024-6.481
	c-0.192-1.076-0.519-2.128-0.854-3.462c-2.556,1.389-3.362,3.816-5.005,5.72c-1.597-3.202,0.056-6.637-1.145-9.834
	c-2.438,0.79-2.777,3.157-4.023,4.75c-1.369-4.204,5.568-14.971,12.559-19.492c0.736,0,1.479,0,2.381,0
	c-0.408,2.164-2.676,2.61-3.811,4.461C65.061,56.707,68.904,54.326,73.013,54.34z"/>
<path fill-rule="evenodd" clip-rule="evenodd" fill="#f04c47" class="fill" d="M124.147,62.358c1.438-0.938,2.732-1.78,4.387-2.856
	c-0.085,1.869-0.15,3.332-0.235,5.192c-0.753,1.067-1.844,2.34-3.629,3.074C124.129,65.871,125.778,63.988,124.147,62.358z"/>
<path fill-rule="evenodd" clip-rule="evenodd" fill="#f04c47" class="fill" d="M87.924,93.47c-0.486-1.676-1.097-2.998-1.218-4.364
	c-0.238-2.697,1.643-4.781,4.328-5.117c0.299-0.037,0.604-0.029,0.902-0.064c3.274-0.391,5.047,0.888,5.392,3.896
	c0.355,3.091-1.384,5.538-4.331,5.807C91.456,93.768,89.884,93.544,87.924,93.47z M95.053,87.696
	c-2.383-0.137-2.642,0.113-2.011,1.74C94.207,89.564,94.779,88.99,95.053,87.696z"/>
<path fill-rule="evenodd" clip-rule="evenodd" fill="#f04c47" class="fill" d="M123.442,84.285c1.249,1.894,1.247,3.8,0.724,5.899
	c-0.92,3.692-5.124,4.186-7.609,2.247c-0.458-0.356-0.849-0.881-1.099-1.408c-1.357-2.854,0.766-6.8,3.892-7.256
	C120.692,83.571,122.054,83.408,123.442,84.285z M119.806,88.034c0.394,1.294,0.916,1.807,1.775,1.349
	c0.886-0.473,0.956-1.234,0.142-2.224C121.129,87.432,120.519,87.709,119.806,88.034z"/>
</svg>
