<svg version="1.1" id="svg" xmlns="http://www.w3.org/2000/svg" xmlns:xlink="http://www.w3.org/1999/xlink" x="0px" y="0px"
	 width="200px" height="200px" viewBox="0 0 200 200" enable-background="new 0 0 200 200" xml:space="preserve">
<path class="stroke" fill="#51050f"  fill-rule="evenodd" clip-rule="evenodd" d="M170.864,153.995c-0.816-2.169-2.105-3.978-3.847-5.488
	c-3.175-2.754-6.984-4.173-10.986-5.101c-1.744-0.403-3.572-0.436-5.529-0.655c-0.531-2.891-1.137-5.76-1.572-8.654
	c-0.607-4.019-1.124-8.054-1.606-12.091c-0.427-3.549-0.709-7.114-1.136-10.665c-0.598-4.985-1.291-9.96-1.898-14.942
	c-0.22-1.79-0.31-3.597-0.459-5.412c0.473-0.521,0.888-0.98,1.305-1.439c1.646-0.073,3.115-0.385,4.541-0.833
	c2.412-0.76,3.324-2.544,2.553-4.94c-1.238-3.848-4.705-6.547-8.623-6.871c-1.535-0.127-3.15,0.061-4.658,0.405
	c-1.527,0.351-2.804,0.18-4.106-0.655c-1.268-0.811-2.577-1.577-3.939-2.206c-6.093-2.809-12.173-5.652-18.663-7.474
	c-0.559-0.156-1.099-0.377-1.811-0.625c0.68-0.741,1.14-1.25,1.607-1.752c2.021-2.172,3.198-4.665,2.643-7.694
	c-0.27-1.473-0.722-2.915-1.16-4.352c-0.531-1.738-1.141-3.454-1.703-5.183c-0.762-2.348-0.775-4.646,0.206-6.975
	c1.026-2.438,1.048-5.01,0.626-7.594c-0.473-2.89-1.652-5.474-3.39-7.641c0.616-1.47,1.206-2.783,1.72-4.123
	c1.019-2.651,0.1-4.558-2.67-5.036c-4.514-0.776-9.043-1.315-13.672-1.053c-4.773,0.271-9.486,0.933-14.164,1.788
	c-2.441,0.445-4.863,1.189-7.049,2.522c-2.004,1.223-3.661,2.795-5.334,4.428c-3.292,3.212-4.902,7.212-5.311,11.569
	c-0.553,5.885,0.18,11.601,3.475,16.826c2.467,3.911,5.549,6.752,10.16,7.732c0.46,0.098,0.887,0.36,1.5,0.619
	c-0.724,1.379-1.387,2.64-2.012,3.831c-5.777,2.996-9.182,8.011-12.262,13.316c-0.153,0.265-0.205,0.589-0.311,0.883
	c-1.736,4.817-2.65,9.793-2.926,14.901c-0.047,0.867-0.299,1.725-0.482,2.581c-0.398,1.857-0.678,3.702,0.408,5.483
	c-0.163,0.706-0.318,1.441-0.508,2.167c-0.977,3.749-0.084,7.066,2.283,10.054c0.213,0.268,0.371,0.579,0.516,0.811
	c-1.547,0.638-3.012,1.17-4.407,1.843c-1.01,0.486-1.706,1.399-1.771,2.517c-0.102,1.751-0.116,3.522,0.045,5.264
	c0.089,0.948,0.617,1.854,0.896,2.641c2.531,0.99,4.879,1.176,7.289,1.021c2.37-0.151,4.744-0.229,7.259-0.345
	c0.739,1.97,1.46,3.889,2.272,6.05c-3.658,3.181-7.333,6.375-11.055,9.607c-1.352-0.299-2.691-0.607-4.038-0.891
	c-3.384-0.713-6.804-1.271-10.231-0.495c-3.051,0.69-6.092,1.5-9.052,2.504c-1.809,0.614-3.652,1.454-5.131,2.629
	c-2.626,2.084-4.456,4.862-5.879,7.934c-1.796,3.873-3.022,7.812-2.735,12.16c0.294,4.446,1.697,8.391,5.057,11.392
	c4.702,4.2,10.207,6.51,16.594,6.575c7.672,0.077,13.881-3.347,19.568-8.055c0.237-0.197,0.435-0.458,0.602-0.721
	c1.439-2.266,2.867-4.538,4.449-7.05c5.562,0.07,11.418,0.145,17.34,0.22c0.072,2.409,0.198,4.664,1.527,6.679
	c4.455,0.385,18.02-0.878,20.656-1.948c0.661-2.79-0.563-5.553-0.75-8.161c5.951-3.526,8.181-8.869,8.732-15.313
	c0.926-0.369,1.904-0.775,2.896-1.149c3.396-1.286,6.354-3.161,8.816-5.903c3.014-3.356,5.205-7.216,7.356-11.119
	c0.534-0.97,0.938-2.046,1.989-2.677c1.082,2.924,2.455,12.545,2.108,14.655c-4.244,1.848-7.802,4.505-10.188,8.573
	c-1.742,2.968-2.826,6.191-3.285,9.556c-0.283,2.078-0.334,4.325,0.142,6.348c1.437,6.133,5.403,10.26,11.198,12.524
	c5.09,1.987,10.381,2.401,15.718,1.111c2.862-0.692,5.845-1.345,7.938-3.628c1.6-1.747,3.046-3.667,4.342-5.653
	c1.053-1.613,1.951-3.376,2.611-5.185C173.225,163.254,172.596,158.592,170.864,153.995z M119.123,83.096
	c3.385,1.037,6.813,1.926,10.314,2.905c-2.472,1.307-5.24,1.539-7.494,2.236c-2.051-1.061-3.783-2.055-5.598-2.866
	c-1.551-0.694-3.156-0.667-4.71,0.197c-0.703,0.392-1.476,0.655-2.415,1.062c-1.082-1.007-2.158-2.01-3.369-3.137
	c1.027-1.32,1.934-2.484,2.958-3.802C112.262,80.837,115.67,82.038,119.123,83.096z M62.217,163.104
	c-1.322,0.573-2.588,0.282-3.847,0.239c-0.021-0.125-0.043-0.25-0.064-0.376c1.215-0.344,2.429-0.687,3.782-1.068
	C62.139,162.376,62.176,162.716,62.217,163.104z M41.533,160.263c-0.176,0.904-0.328,1.685-0.527,2.702
	c-1.342-0.112-2.656-0.223-4.291-0.361c0.429-1.396,0.78-2.541,1.199-3.908C39.233,159.268,40.342,159.749,41.533,160.263z
	 M38.896,157.622c0.515-1.573,1.621-2.431,2.9-3.483c0.74,1.017,1.414,1.943,2.148,2.948c-0.615,0.693-1.144,1.285-1.831,2.06
	C41.052,158.642,40.012,158.15,38.896,157.622z M37.161,163.98c1.192,0.069,2.34,0.135,3.566,0.206
	c0.302,0.725,0.558,1.335,0.884,2.119c-1.31,0.505-2.5,0.96-3.866,1.485C37.168,166.414,36.738,165.353,37.161,163.98z
	 M43.521,167.754c-0.878,1.616-1.988,2.641-3.122,3.629c-1.406-0.739-1.406-0.739-2.115-2.391
	C39.888,168.383,41.344,167.321,43.521,167.754z M44.699,168.802c0.629,0.186,1.081,0.32,1.738,0.514
	c-0.543,1.483-1.042,2.846-1.6,4.368c-1.094-0.414-1.996-0.755-3.21-1.213C42.722,171.164,43.649,170.056,44.699,168.802z
	 M44.943,156.082c-0.546-0.975-1.024-1.826-1.627-2.903c1.033-0.578,1.973-1.103,2.897-1.622c0.835,1.248,0.835,1.248,0.852,3.326
	C46.38,155.27,45.743,155.628,44.943,156.082z M48.492,169.494c0.52,1.744,1.385,5.039,1.385,5.039
	c-1.145,0.008-2.308-0.114-3.497-0.314C47.076,172.665,47.69,171.289,48.492,169.494z M48.381,151.137
	c0.707,0.009,1.049,0.014,1.475,0.019c0.029,0.918,0.399,1.838-0.721,2.843C48.87,152.992,48.664,152.211,48.381,151.137z
	 M51.799,174.367c0,0-0.826-3.087-1.191-4.496c0.953-0.071,1.604-0.12,2.33-0.174c0.938,1.052,1.842,2.063,2.859,3.206
	C54.473,173.709,53.142,174.152,51.799,174.367z M51.605,152.729c0.157-0.694,0.247-1.09,0.348-1.534
	c0.773,0.009,1.475,0.017,2.331,0.027C53.826,152.566,52.845,152.562,51.605,152.729z M54.921,169.634
	c1.72-0.21,3.038-0.37,4.56-0.557c-0.355,1.453-1.35,1.998-2.147,2.863C56.498,171.142,55.854,170.526,54.921,169.634z
	 M61.677,156.272c0.079,0.147,0.077,0.343,0.159,0.758c-2.471,0.771-4.928,1.536-7.385,2.302c-0.055-0.148-0.107-0.296-0.161-0.444
	c1.551-2.658,4.446-2.385,6.915-3.212C61.391,155.903,61.564,156.071,61.677,156.272z M67.157,145.697
	c2.81-2.594,5.546-5.123,8.514-7.861c1.319,2.494,2.058,4.927,3.044,7.223c-1.361,1.076-7.098,2.928-9.525,3.025
	C68.566,147.353,67.926,146.602,67.157,145.697z M78.803,129.116c2.832,2.066,4.568,5.1,7.019,7.402
	c-0.025,2.044-0.051,4.033-0.077,6.129c-0.609,0.242-1.168,0.462-2.002,0.793C82.085,138.583,79.723,134.137,78.803,129.116z
	 M72.021,152.419c2.87-0.954,5.578-1.854,8.481-2.82c0.248,0.7,0.484,1.37,0.797,2.255c-2.938,0.825-5.734,1.612-8.668,2.437
	C72.4,153.582,72.217,153.021,72.021,152.419z M73.586,164.542c0.024-1.955,0.048-3.79,0.075-5.935
	c3.687-0.947,7.536-1.935,11.647-2.992c0.185,3.142,0.355,6.042,0.533,9.081C81.86,164.646,77.828,164.596,73.586,164.542z
	 M112.02,159.894c-0.9-0.41-1.621-0.734-2.475-1.121c-0.59-1.001-1.246-2.116-1.904-3.234c0.096-0.112,0.189-0.228,0.285-0.343
	c1.699,0.687,3.401,1.375,5.268,2.13C112.795,158.196,112.424,159.01,112.02,159.894z M113.989,154.29
	c-1.281-0.505-2.374-0.937-3.467-1.369c0.013-0.173,0.025-0.345,0.037-0.518c1.095-0.219,2.188-0.438,3.463-0.694
	C114.01,152.638,114.002,153.332,113.989,154.29z M137.621,116.79c-2.643,5.905-5.656,11.613-8.989,17.166
	c-1.876,3.122-4.626,5.054-7.72,6.65c-1.442,0.745-2.959,1.347-4.102,1.858c-2.684-1.027-5.059-1.934-7.584-2.898
	c0.025-2.075,0.035-4.322,0.1-6.567c0.012-0.415,0.186-0.855,0.389-1.229c0.926-1.712,1.828-3.44,2.848-5.094
	c2.096-3.398,3.33-7.153,4.564-10.901c0.273-0.832,0.207-1.867,0.015-2.746c-0.968-4.453-3.845-7.178-8.067-8.624
	c-5.101-1.745-10.195-3.506-15.289-5.27c-0.163-0.057-0.295-0.205-0.611-0.434c0.627-0.997,1.244-1.976,1.961-3.119
	c1.973,0.441,3.906,0.874,5.797,1.298c1.921,4.616,3.634,5.223,7.889,3.065c1.002,0.229,1.828,0.653,2.557,0.523
	c0.812-0.143,1.536-0.788,2.344-1.029c2.637-0.759,5.475-1.137,7.844-2.394c1.906-1.011,3.824-1.827,5.844-2.365
	c2.521-0.673,5.128-1.021,7.963-1.562c0.311,2.72,0.566,5.014,0.84,7.305c0.096,0.808,0.206,1.614,0.373,2.408
	c0.845,4.004,1.27,8.057,1.34,12.144C137.934,115.581,137.865,116.247,137.621,116.79z M148.96,174.734
	c-1.002-0.236-1.879-0.441-2.721-0.64c0.006-1.711,1.704-5.961,2.728-6.991C149.402,168.295,149.426,171.672,148.96,174.734z
	 M143.178,159.072c-0.752-0.24-1.579-0.505-2.658-0.85c0.314-0.627,0.501-1.002,0.865-1.732
	C142.047,157.445,142.596,158.235,143.178,159.072z M142.588,155.285c0.726-0.514,1.302-0.92,2.168-1.533
	c0.183,1.426,0.326,2.546,0.47,3.665c-0.146,0.088-0.292,0.175-0.437,0.262C144.107,156.937,143.424,156.193,142.588,155.285z
	 M144.139,161.608c-1.838,0.18-3.322,0.324-5.209,0.511c0.286-1.042,0.454-1.658,0.637-2.321
	C141.184,160.149,142.645,160.323,144.139,161.608z M143.502,163.201c0.043,0.128,0.084,0.256,0.127,0.386
	c-1.438,0.773-2.867,1.572-4.745,1.929c-0.047-0.703-0.082-1.215-0.126-1.876C140.449,163.483,141.975,163.342,143.502,163.201z
	 M144.709,164.943c0.08,0.112,0.16,0.227,0.243,0.342c-0.958,2.048-3.226,2.76-4.495,4.492c-0.172-0.079-0.343-0.157-0.514-0.236
	c-0.249-0.683-0.497-1.367-0.789-2.173C141.059,166.536,142.883,165.739,144.709,164.943z M146.231,167.158
	c-0.157,2.303-1.446,3.979-2.009,5.948c-1.42,0.005-2.374-0.505-3.082-1.732C142.637,169.782,144.022,168.147,146.231,167.158z
	 M152.816,166.819c0.857,2.025,1.699,4.015,2.568,6.073c-1.245,1.178-2.753,1.3-4.381,1.471c0.03-2.474,0.06-4.754,0.091-7.188
	C151.793,167.031,152.207,166.945,152.816,166.819z M152.214,153.118c0.235-0.006,0.468-0.011,0.702-0.016
	c-0.04,0.447-0.079,0.895-0.118,1.342c-0.146,0.003-0.29,0.007-0.435,0.011C152.312,154.009,152.264,153.564,152.214,153.118z
	 M155.351,165.095c-0.005-0.123-0.01-0.249-0.014-0.373c2.209-0.17,4.417-0.34,6.62-0.509c0.316,2,0.215,2.485-0.977,4.343
	C159.11,167.405,157.23,166.25,155.351,165.095z M160.233,169.577c-0.673,1.395-1.866,2.156-3.344,2.864
	c-0.888-2.014-2.09-3.797-2.479-6.438C156.573,167.332,158.342,168.415,160.233,169.577z M155.408,163.622
	c0.072-0.827,0.107-1.244,0.15-1.736c1.951-0.719,3.864-1.422,6.023-2.214c0.235,1.111,0.443,2.103,0.674,3.196
	C160.002,163.766,157.815,163.581,155.408,163.622z M155.396,160.593c-0.204-0.493-0.317-0.765-0.536-1.289
	c1.232-1.164,2.486-2.347,3.906-3.69c0.834,0.907,1.561,1.696,2.395,2.604C159.197,159.449,157.33,159.998,155.396,160.593z
	 M154.406,157.772c-0.162-0.09-0.325-0.181-0.488-0.272c-0.158-1.329,0.746-2.375,1.02-3.889c0.793,0.334,1.424,0.599,2.396,1.008
	C156.213,155.828,155.31,156.801,154.406,157.772z"/>
<path fill-rule="evenodd" clip-rule="evenodd" fill="#f04c47" class="fill" d="M88.97,108.596c0.229,0.396,0.36,0.765,0.604,1.027
	c2.355,2.518,4.688,5.058,7.108,7.51c1.808,1.831,3.849,3.438,5.577,5.336c2.397,2.635,3.64,5.832,3.75,9.423
	c0.174,5.646,0.412,11.292-0.115,16.935c-0.222,2.37-0.342,4.749-0.566,7.117c-0.068,0.738-0.326,1.456-0.486,2.137
	c-4.426,2.688-9.125,4.315-14.289,5.115c-0.052-0.511-0.101-0.969-0.157-1.521c2.325-0.888,4.982-0.697,6.938-2.771
	c-2.389-0.586-4.379,0.708-6.646,0.817c-0.074-0.459-0.148-0.912-0.229-1.417c2.138-0.934,4.813-0.307,6.429-2.71
	c-2.181-0.287-4.121,0.68-6.285,0.512c-0.021-0.582-0.043-1.106-0.059-1.548c1.98-1.208,4.682-0.556,6.211-3.189
	c-2.232,0.373-4.15,0.692-6.203,1.033c0.01-0.827,0.02-1.49,0.027-2.156c2.218-1.159,5.353-0.294,6.738-3.231
	c-2.238,0.427-4.377,0.832-6.588,1.252c-0.125-0.401-0.211-0.677-0.374-1.196c0.99-0.208,1.877-0.417,2.771-0.577
	c1.271-0.229,2.465-0.568,3.078-1.864c0.074-0.156,0.062-0.355,0.1-0.605c-1.846,0.397-3.643,0.784-5.678,1.224
	c-0.07-0.687-0.119-1.179-0.166-1.624c1.695-1.035,4.078-0.229,5.051-2.605c-1.652,0.161-3.214,0.312-4.941,0.479
	c-0.031-0.693-0.057-1.218-0.078-1.665c1.375-1.125,3.371-0.758,4.517-2.627c-1.53,0.107-2.846,0.2-4.366,0.307
	c-0.062-0.646-0.127-1.299-0.18-1.847c0.726-0.765,1.35-1.424,1.975-2.082c-0.06-0.108-0.117-0.217-0.178-0.325
	c-0.627,0.111-1.254,0.222-2.014,0.355c-1.091-0.983-2.244-2.021-3.49-3.146c0.47-0.66,0.961-1.347,1.451-2.035
	c-0.056-0.106-0.112-0.21-0.168-0.316c-0.893,0.322-1.788,0.645-2.913,1.051c-0.404-0.359-0.936-0.836-1.51-1.348
	c1.075-1.739,3.116-2.514,3.589-4.564c-1.785,0.743-3.35,1.792-5.004,3.059c-0.363-0.307-0.758-0.638-1.225-1.028
	c1.225-1.576,2.197-3.126,2.828-4.848c-0.121-0.103-0.244-0.204-0.365-0.307c-0.635,0.589-1.281,1.16-1.895,1.767
	c-0.663,0.655-1.293,1.341-2.022,2.101c-0.545-0.504-0.989-0.915-1.515-1.399c0.887-1.544,1.736-3.023,2.799-4.869
	c-2.342,0.465-2.91,2.435-4.48,3.394c-0.477-0.456-0.952-0.909-1.461-1.396c1.282-1.744,2.486-3.378,3.688-5.011
	c-0.131-0.126-0.262-0.252-0.395-0.378c-1.957,0.761-3.021,2.703-4.838,4.003c-0.43-0.3-0.904-0.635-1.463-1.026
	c1.36-1.537,2.863-2.772,3.15-4.924c-0.875,0.626-1.799,1.194-2.607,1.895c-0.742,0.64-1.197,1.729-2.662,1.368
	c0.674-1.413,1.797-2.511,1.863-4.231c-1.682,0.352-2.061,2.118-3.533,2.644c-0.166-0.097-0.41-0.237-0.676-0.393
	c0.521-0.941,0.99-1.789,1.557-2.815c-1.471-0.27-1.923,1.212-3.286,1.121c-0.044-0.033-0.329-0.244-0.708-0.522
	c0.639-0.728,1.225-1.397,1.861-2.125c-1.162-0.787-1.896,0.469-3.031,0.152c-0.2-1.023-0.422-2.153-0.686-3.517
	c0.824,0.01,1.457-0.109,2.013,0.047c2.696,0.757,5.463,0.705,8.194,0.606c3.123-0.111,6.289,0.043,9.357-0.784
	c0.539-0.146,1.115-0.245,1.594-0.511c2.681-1.49,5.337-3.024,8.271-4.697c0.737,0.219,1.775,0.448,2.754,0.828
	c4.095,1.584,8.189,3.173,12.246,4.847c1.504,0.619,2.925,1.441,4.344,2.241c0.533,0.3,1.037,0.738,1.408,1.225
	c1.324,1.743,2.143,3.747,0.975,5.771c-1.143,1.977-3.016,3.199-5.453,3.09c-0.973-0.043-1.937-0.286-2.715-0.409
	c-0.211-0.381-0.318-0.488-0.322-0.6c-0.089-2.694-1.68-4.407-3.857-5.607c-2.906-1.598-5.848-3.143-8.851-4.542
	C91.238,106.626,90.479,106.944,88.97,108.596z"/>
<path fill-rule="evenodd" clip-rule="evenodd" fill="#f04c47" class="fill" d="M109.64,31.802c0.435,1.214,0.741,2.073,1.147,3.202
	c-1.629-0.021-2.941-0.085-4.251-0.043c-2.009,0.068-3.841,0.656-5.226,2.2c-0.701,0.778-1.191,1.655-0.356,2.714
	c2.665,1.051,5.446-0.033,8.114,0.267c0.082,0.202,0.187,0.325,0.161,0.413c-0.739,2.561-0.54,5.011,0.381,7.544
	c0.961,2.642,1.622,5.406,2.237,8.155c0.267,1.191,0.216,2.496,0.088,3.727c-0.174,1.676-0.891,3.104-2.455,4.004
	c-0.699,0.404-1.313,0.958-1.805,1.322c-0.59,1.271-0.938,2.463-1.636,3.388c-0.689,0.91-1.624,1.945-2.647,2.236
	c-3.793,1.077-7.521,0.891-10.572-2.003c-3.641-3.453-7.203-6.99-10.729-10.562c-1.097-1.11-1.911-2.441-2.321-4.032
	c-0.254-0.992-0.896-1.886-1.318-2.728c-1.004-0.014-1.756-0.039-2.505-0.029c-1.454,0.02-2.575-0.625-3.317-1.813
	c-1.23-1.97-1.479-4.113-0.721-6.311c0.492-1.437,1.77-1.826,3.362-2.163c0.442,0.83,0.891,1.672,1.462,2.745
	c1.412-0.454,2.885-0.895,4.334-1.408c0.457-0.162,0.85-0.517,1.298-0.802c-1.872-2.614-2.341-5.118-1.534-7.824
	c0.523-1.753,1.322-3.334,2.793-4.646c1.136,1.633,1.594,3.275,1.65,5.125c-0.837,0.54-1.658,1.071-2.666,1.725
	c0.58,0.406,0.963,0.674,1.477,1.035c3.227-2.373,7.073-2.803,10.014-3.304c2.51-2.536,4.45-4.497,6.53-6.599
	c0.586,1.835-0.173,3.27-0.507,4.843c0.896,0.901,1.99,0.748,3.11,0.571C105.323,32.425,107.419,32.129,109.64,31.802z
	 M95.385,37.057c-1.605-1.141-3.285-1.533-5.066-0.954c-1.307,0.423-2.598,0.958-3.801,1.615c-1.326,0.727-2.447,1.713-2.273,3.714
	c1.807,0.023,3.553,0.166,5.279,0.029c1.35-0.107,2.736-0.399,3.994-0.898C95.182,39.897,95.607,38.902,95.385,37.057z
	 M93.976,50.926c-1.21,0.425-1.31,0.575-1.091,1.631c0.355,1.712,2.316,3.221,4.346,3.292c2.129,0.073,4.064-0.479,5.761-1.914
	c-0.515-1.045-1.175-0.551-1.851-0.259c-3.277,1.415-5.426,0.629-6.901-2.49C94.191,51.081,94.066,51.011,93.976,50.926z
	 M75.893,48.9c-0.956-0.959-1.156-1.761-0.49-2.665c1.414,0.243,1.414,0.243,2.154-0.733c-0.818-1.353-1.98-0.92-3.256-0.6
	c-0.806,1.219-1.631,2.479-0.853,4.08c0.505,1.042,1.466,1.508,2.649,1.346c1.013-0.137,1.807-0.572,2.15-1.85
	C77.311,48.646,76.607,48.771,75.893,48.9z M98.2,41.615c1.083,1.167,1.959,2.112,2.775,2.992c-0.25,1.05-1.491,1.482-1.351,2.902
	c2.117-0.707,2.699-2.396,3.531-3.868c-1.32-1.085-2.463-2.023-3.718-3.055C99.123,40.848,98.77,41.143,98.2,41.615z
	 M104.405,59.717c-0.774,0.18-1.406,0.324-2.249,0.52c0.219,0.977,0.379,1.694,0.551,2.458
	C104.584,61.919,104.615,61.87,104.405,59.717z"/>
<path fill-rule="evenodd" clip-rule="evenodd" fill="#f04c47" class="fill" d="M81.145,75.667c-1.848,0.684-3.302,1.986-4.785,3.463
	c-0.732-1.05,0.073-1.517,0.559-2.066c0.523-0.592,1.055-1.178,1.736-1.938c-1.646-0.468-2.385,0.735-3.545,1.149
	c-0.355-0.715-0.725-1.453-1.084-2.177c-1.638,0.511-2.211,1.448-2.049,3.292c0.252,2.864,1.636,5.175,3.373,7.413
	c1.913,2.467,3.621,5.109,5.256,7.773c0.566,0.921,0.727,2.121,0.947,3.221c0.26,1.284,0.069,2.507-1.199,3.617
	c-5.47,0.346-11.16,0.817-16.742-0.811c-0.008-0.166-0.015-0.331-0.022-0.497c1.431-0.126,2.87-0.2,4.294-0.392
	c1.438-0.193,2.712-0.791,3.758-1.957c-2.684,0.037-5.321,1.032-8.073,0.213c0.036-0.363,0.069-0.71,0.114-1.177
	c2.629-0.406,5.45-0.314,6.957-3.09c-2.137,0.911-4.359,1.284-6.916,1.41c0.18-0.938,0.326-1.694,0.464-2.413
	c1.794-0.853,4.106-0.093,5.509-2.377c-1.781,0.173-3.33,0.324-5.168,0.504c0.199-0.925,0.346-1.615,0.478-2.235
	c1.286-0.561,2.724-0.367,4.048-1.673c-1.296-0.175-2.185-0.295-3.329-0.448c0.327-0.897,0.613-1.688,0.913-2.509
	c1.059-0.493,2.359-0.632,2.9-2.186c-0.693,0.142-1.23,0.252-2.063,0.422c2.116-5.166,4.979-9.465,9.048-13.019
	c7.374,0.28,12.269,4.914,17.135,9.725c-0.45,1.248-1.504,1.777-2.281,2.553c-1.775,1.767-3.582,3.505-5.285,5.339
	c-0.707,0.762-1.183,1.739-1.877,2.786c-0.697-0.538-1.36-1.052-2.182-1.688c1.145-2.103,2.26-4.153,3.493-6.421
	c-2.688,0.764-3.879,2.634-4.647,5.062c-0.491-0.389-0.798-0.635-1.322-1.05c1.211-1.879,2.379-3.686,3.703-5.736
	c-2.672,0.343-3.65,2.382-5.121,4.434c-0.3-0.403-0.502-0.674-0.863-1.158c1.439-1.743,2.799-3.387,4.158-5.031
	C81.336,75.888,81.238,75.777,81.145,75.667z"/>
<path fill-rule="evenodd" clip-rule="evenodd" fill="#f04c47" class="fill" d="M120.274,96.003c-0.261-1.651-0.524-3.303-0.798-5.024
	c-1.222,0.255-1.499,0.867-1.42,1.82c0.105,1.292,0.121,2.593,0.193,4.278c-1.205-1.009-0.696-2.016-0.896-2.832
	c-0.206-0.84-0.311-1.705-0.453-2.529c-1.527,0.061-1.762,0.322-1.615,1.633c0.103,0.931,0.234,1.859,0.314,2.793
	c0.032,0.367-0.037,0.742-0.068,1.215c-0.34,0.119-0.662,0.231-1.116,0.389c-0.281-1.824-0.543-3.526-0.817-5.31
	c-1.118,0.125-1.543,0.702-1.516,1.628c0.031,1.003,0.133,2.005,0.196,3.006c0.043,0.689,0.153,1.415-0.876,1.783
	c-0.201-0.315-0.438-0.645-0.625-0.999c-0.115-0.219-0.137-0.485-0.232-0.716c-1.514-3.584-3.274-4.384-6.776-2.925
	c-0.288,0.119-0.581,0.225-0.847,0.326c-2.193-0.664-4.311-1.484-6.504-1.918c-2.254-0.446-4.322-1.24-6.535-2.404
	c0.09-3.839,1.393-7.186,4.172-10.276c4.855,3.043,9.715,5.748,13.746,9.975c1.467-0.565,3.01-1.068,4.47-1.745
	c2.312-1.074,4.472-0.412,6.493,0.612c0.795,0.405,1.373,1.45,1.795,2.325c0.757,1.569,0.4,3.223,0.207,4.838
	C120.603,95.966,120.438,95.984,120.274,96.003z"/>
<path fill-rule="evenodd" clip-rule="evenodd" fill="#f04c47" class="fill" d="M143.789,147.127c0.059,0.548,0.103,0.967,0.146,1.381
	c-3.497,1.876-5.929,4.701-7.745,8.064c-1.929,3.579-2.15,7.361-0.572,11.09c2.866,6.768,7.744,9.807,15.28,9.584
	c6.237-0.184,10.788-3.32,13.419-8.811c2.003-4.178,2.429-8.712,0.395-13.123c-0.513-1.112-1.25-2.237-2.166-3.029
	c-2.909-2.515-6.176-4.302-10.213-4.075c-0.244,0.014-0.492-0.025-0.955-0.054c-0.117-0.749-0.234-1.496-0.364-2.338
	c0.636-0.085,1.079-0.247,1.481-0.179c2.715,0.452,5.473,0.769,8.105,1.52c1.307,0.372,2.496,1.445,3.523,2.427
	c1.441,1.374,2.727,2.923,3.984,4.475c0.41,0.507,0.637,1.233,0.748,1.894c0.691,4.132,0.137,8.055-1.566,11.937
	c-2.05,4.671-5.545,7.647-10.065,9.633c-0.627,0.274-1.304,0.488-1.978,0.584c-5.107,0.718-10.068,0.583-14.895-1.721
	c-2.547-1.217-4.533-2.737-5.982-5.169c-1.133-1.903-1.781-3.854-1.76-6.044c0.018-1.506,0.012-3.017,0.099-4.52
	C133.082,154.217,136.834,148.836,143.789,147.127z"/>
<path fill-rule="evenodd" clip-rule="evenodd" fill="#f04c47" class="fill" d="M59.716,146.354c-0.423,0.886-1.081,0.785-1.892,0.58
	c-2.488-0.627-4.998-1.381-7.598-0.857c-6.467,1.304-11.968,4.004-15.092,10.295c-1.458,2.933-2.273,5.951-2.255,9.217
	c0.009,1.547,0.573,2.828,1.305,4.206c1.062,1.999,2.477,3.58,4.049,5.132c1.806,1.781,4.004,2.55,6.422,2.777
	c4.073,0.386,7.995-0.432,11.861-1.636c3.204-0.998,5.101-3.517,7.035-5.997c0.153-0.197,0.269-0.423,0.487-0.771
	c0.502-0.07,1.086-0.153,1.998-0.283c-0.254,0.73-0.348,1.193-0.564,1.589c-2.889,5.247-7.482,8.141-13.178,9.497
	c-0.242,0.059-0.506,0.031-0.747,0.09c-5.55,1.363-10.457-0.302-14.855-3.505c-3.119-2.271-4.792-5.692-5.324-9.441
	c-0.54-3.8-0.333-7.625,0.808-11.379c1.367-4.502,4.301-7.391,8.617-9.017c0.644-0.242,1.289-0.484,1.92-0.754
	c4.812-2.063,9.731-2.848,14.865-1.34C58.492,145.023,59.397,145.265,59.716,146.354z"/>
<path fill-rule="evenodd" clip-rule="evenodd" fill="#f04c47" class="fill" d="M112.67,77.631c0.842-2.862,2.48-4.718,4.508-6.671
	c2.172,0.898,4.463,1.716,6.635,2.776c3.374,1.646,6.654,3.487,10.002,5.187c1.27,0.643,2.624,1.118,3.84,1.627
	c3.123-1.085,6.113-2.31,9.074-0.1c1.742,1.3,2.798,3.608,2.573,5.774c-0.507-1.279-0.908-2.297-1.362-3.438
	c-0.648,0.269-1.081,0.447-1.529,0.632c0.229,1.043,0.43,1.968,0.632,2.893c-0.12,0.054-0.24,0.109-0.36,0.165
	c-0.204-2.273-1.647-3.272-3.605-3.75c-0.182-0.044-0.359-0.122-0.52-0.218c-2.277-1.356-4.414-1.205-6.561,0.845
	c-3.803-0.765-7.746-1.426-11.62-2.374C120.506,80.03,116.705,78.798,112.67,77.631z"/>
<path fill-rule="evenodd" clip-rule="evenodd" fill="#f04c47" class="fill" d="M149.98,157.481c-0.4,0.138-0.627,0.216-1.051,0.363
	c-3.543-20.495-7.037-40.907-10.139-61.59c0.639-0.28,1.299-0.568,2.041-0.894c0.161,0.318,0.316,0.515,0.365,0.734
	c1.387,6.441,2.626,12.898,3.073,19.493c0.187,2.747,0.667,5.475,1.034,8.21c0.541,4.039,1.07,8.082,1.662,12.111
	c0.75,5.088,1.589,10.162,2.33,15.25C149.596,153.201,149.746,155.265,149.98,157.481z"/>
<path fill-rule="evenodd" clip-rule="evenodd" fill="#f04c47" class="fill" d="M99.84,22.337c0.635-0.406,1.146-0.732,1.654-1.06
	c-0.591,1.799-1.43,3.379-3.131,4.592c-0.446-1.289-0.829-2.396-1.209-3.497c-0.567-0.355-1.093-0.688-1.811-1.14
	c-2.302,2.579-4.576,5.128-6.993,7.836c-1.149-1.844-2.152-3.45-3.296-5.286c-3.702,2.844-6.061,6.347-7.66,10.441
	c-0.129-0.023-0.261-0.046-0.391-0.067c-0.153-0.993-0.307-1.983-0.506-3.265c-2.183,1.259-2.693,3.439-3.657,5.449
	c-1.198-1.12-1.042-2.562-1.308-4.316c-0.899,0.864-1.545,1.39-2.07,2.016c-0.545,0.649-0.972,1.396-1.515,2.198
	c-1.286-4.168,1.118-9.811,4.952-11.728c-0.149,1.709-0.291,3.344-0.457,5.267c2.398-0.751,2.57-3.352,4.643-4.209
	c-0.017,1.293-0.033,2.555-0.048,3.763c0.952,0.336,1.472,0.062,1.712-0.614c1.122-3.175,3.701-5.136,6.146-7.478
	c0.708,0.994,1.404,1.919,2.045,2.879c0.93,1.39,1.059,1.454,2.705,1.046c2.059-2.325,4.088-4.617,6.143-6.938
	C97.744,19.024,98.2,21.16,99.84,22.337z"/>
<path fill-rule="evenodd" clip-rule="evenodd" fill="#f04c47" class="fill" d="M134.705,129.093c0.746,0.639,1.34,1.151,2.01,1.726
	c-4.011,7.652-8.368,14.685-17.992,16.009c-0.114-0.153-0.33-0.442-0.607-0.812c0.305-0.214,0.529-0.419,0.791-0.551
	c1.729-0.861,3.51-1.63,5.19-2.58c2.228-1.259,3.856-3.149,5.205-5.311C131.019,134.817,132.789,132.093,134.705,129.093z"/>
<path fill-rule="evenodd" clip-rule="evenodd" fill="#f04c47" class="fill" d="M141.952,88.24c-6.19,1.869-12.452,3.267-18.907,4.566
	c-0.145-0.68-0.254-1.196-0.38-1.782c0.208-0.146,0.345-0.307,0.515-0.353c1.389-0.379,2.812-0.65,4.17-1.117
	c4.025-1.39,8.159-2.528,11.812-4.861C140.658,85.289,141.988,85.935,141.952,88.24z"/>
<path fill-rule="evenodd" clip-rule="evenodd" fill="#f04c47" class="fill" d="M92.479,167.167c0.703-0.383,1.436-0.802,2.186-1.188
	c2.552-1.31,5.086-2.665,7.684-3.881c0.867-0.405,1.896-0.521,2.868-0.632c1.54-0.176,3.095-0.235,4.761-0.353
	c0.308,0.834,0.555,1.506,0.779,2.115c-1.48,1.401-11.771,4.198-16.768,4.635C93.455,167.908,92.832,168.167,92.479,167.167z"/>
<path fill-rule="evenodd" clip-rule="evenodd" fill="#f04c47" class="fill" d="M60.105,124.631c-0.113-1.504-0.215-2.855-0.336-4.478
	c0.828,0.011,1.557-0.064,2.256,0.045c1.602,0.253,3.196,0.573,4.785,0.904c1.826,0.382,3.034,1.539,4.008,3.275
	C67.18,125.213,63.7,125.09,60.105,124.631z"/>
<path fill-rule="evenodd" clip-rule="evenodd" fill="#f04c47" class="fill" d="M77.05,103.395c-2.453,1.361-10.459,1.456-13.824,0.209
	c0.084-0.482,0.171-0.996,0.247-1.437C65.838,101.573,74.719,102.372,77.05,103.395z"/>
<path fill-rule="evenodd" clip-rule="evenodd" fill="#f04c47" class="fill" d="M94.678,27.202c-0.26,1.695-0.521,3.39-0.783,5.091
	c-1.857,0.245-3.449,0.457-5.411,0.717c2.042-2.182,3.84-4.101,5.638-6.022C94.307,27.061,94.492,27.131,94.678,27.202z"/>
<path fill-rule="evenodd" clip-rule="evenodd" fill="#f04c47" class="fill" d="M107.926,155.195c1.699,0.687,3.401,1.375,5.268,2.13
	c-0.398,0.871-0.77,1.685-1.174,2.568c-0.9-0.41-1.621-0.734-2.475-1.121c-0.59-1.001-1.246-2.116-1.904-3.234
	C107.736,155.426,107.83,155.311,107.926,155.195z"/>
<path fill-rule="evenodd" clip-rule="evenodd" fill="#f04c47" class="fill" d="M103.865,95.844c2.146-1.276,3.076-1.015,4.314,1.168
	c-0.375,0.972-1.195,1.337-2.133,1.52C104.447,97.747,104.402,97.694,103.865,95.844z"/>
<path fill-rule="evenodd" clip-rule="evenodd" fill="#f04c47" class="fill" d="M102.183,20.493c0.829-0.871,1.659-1.741,2.632-2.76
	c1.011,2.177,1.127,4.132,0.431,6.483c-0.87-1.453-0.67-3.625-3.051-3.357C102.19,20.737,102.187,20.614,102.183,20.493z"/>
<path fill-rule="evenodd" clip-rule="evenodd" fill="#f04c47" class="fill" d="M106.937,172.056c-0.279-1.467-0.486-2.556-0.733-3.854
	c0.782-0.215,1.454-0.399,2.364-0.647c0.179,1.357,0.33,2.503,0.513,3.876C108.373,171.638,107.791,171.806,106.937,172.056z"/>
<path fill-rule="evenodd" clip-rule="evenodd" fill="#f04c47" class="fill" d="M67.805,164.68c-0.715-0.008-1.175-0.013-1.774-0.021
	c0.017-1.316,0.032-2.53,0.05-3.902c0.627-0.191,1.299-0.396,2.322-0.708C68.183,161.746,68.006,163.122,67.805,164.68z"/>
<path fill-rule="evenodd" clip-rule="evenodd" fill="#f04c47" class="fill" d="M102.173,38.56c1.012-1.523,2.923-2.235,4.93-2.016
	c-0.144,0.647-0.288,1.287-0.464,2.071C105.237,38.597,103.844,38.58,102.173,38.56z"/>
<path fill-rule="evenodd" clip-rule="evenodd" fill="#f04c47" class="fill" d="M108.678,30.267c-0.865,0.058-1.575,0.092-2.284,0.161
	c-0.729,0.07-1.456,0.175-2.228,0.27c0.545-1.244,0.902-1.598,3.102-3.098C108.205,28.133,108.391,29.068,108.678,30.267z"/>
<path fill-rule="evenodd" clip-rule="evenodd" fill="#f04c47" class="fill" d="M104.861,168.441c0.274,1.29,0.492,2.303,0.76,3.553
	c-0.802,0.061-1.433,0.109-2.182,0.167c-0.151-1.14-0.279-2.104-0.431-3.231C103.605,168.772,104.105,168.642,104.861,168.441z"/>
<path fill-rule="evenodd" clip-rule="evenodd" fill="#f04c47" class="fill" d="M110.56,152.403c1.095-0.219,2.188-0.438,3.463-0.694
	c-0.013,0.929-0.021,1.623-0.033,2.581c-1.281-0.505-2.374-0.937-3.467-1.369C110.535,152.748,110.548,152.576,110.56,152.403z"/>
<path fill-rule="evenodd" clip-rule="evenodd" fill="#f04c47" class="fill" d="M99.875,169.815c0.665-0.173,1.166-0.302,1.758-0.456
	c0.227,0.929,0.418,1.702,0.656,2.67c-0.666,0.107-1.244,0.2-2.04,0.328C100.129,171.538,100.025,170.824,99.875,169.815z"/>
<path fill-rule="evenodd" clip-rule="evenodd" fill="#f04c47" class="fill" d="M98.684,172.449c-0.729,0.057-1.207,0.094-1.831,0.144
	c-0.149-0.633-0.283-1.206-0.466-1.988c0.697-0.215,1.297-0.403,2.17-0.674C98.604,170.864,98.639,171.564,98.684,172.449z"/>
<path fill-rule="evenodd" clip-rule="evenodd" fill="#f04c47" class="fill" d="M64.431,154.697c1.103-0.284,1.866-0.481,2.709-0.699
	c0.21,0.494,0.372,0.879,0.626,1.479c-0.84,0.245-1.588,0.462-2.458,0.716C65.041,155.739,64.809,155.342,64.431,154.697z"/>
<path fill-rule="evenodd" clip-rule="evenodd" fill="#f04c47" class="fill" d="M95.043,170.689c0.219,0.684,0.404,1.262,0.628,1.962
	c-0.739,0.16-1.392,0.301-2.251,0.487c0.01-0.79,0.018-1.426,0.027-2.208C93.943,170.856,94.462,170.777,95.043,170.689z"/>
<path fill-rule="evenodd" clip-rule="evenodd" fill="#f04c47" class="fill" d="M108.677,38.324c-0.287-0.94-0.069-1.465,1.005-1.556
	C109.988,37.729,109.877,38.321,108.677,38.324z"/>
<path fill-rule="evenodd" clip-rule="evenodd" fill="#f04c47" class="fill" d="M90.512,39.96c-1.551-0.02-2.953-0.038-4.355-0.056
	c1.338-1.729,3.177-2.247,5.371-2.799C91.119,38.253,90.836,39.051,90.512,39.96z"/>
<path fill-rule="evenodd" clip-rule="evenodd" fill="#f04c47" class="fill" d="M94.383,38.496c-0.767,0.446-1.232,0.717-1.812,1.054
	C92.559,37.834,92.691,37.738,94.383,38.496z"/>
</svg>
