<svg version="1.1" id="svg" xmlns="http://www.w3.org/2000/svg" xmlns:xlink="http://www.w3.org/1999/xlink" x="0px" y="0px"
	 width="200px" height="200px" viewBox="0 0 200 200" enable-background="new 0 0 200 200" xml:space="preserve">
<path class="stroke" fill="#51050f"  fill-rule="evenodd" clip-rule="evenodd" d="M149.039,122.596c-0.834,5.071-0.31,10.456-0.095,15.943
	c0.638,0.127,1.124,0.303,1.612,0.306c3.014,0.02,5.34,1.393,7.133,3.697c2.517,3.232,4.282,6.896,5.955,10.612
	c1.65,3.663,2.805,7.483,3.875,11.342c1.238,4.47,0.727,8.701-1.604,12.688c-0.801,1.368-1.997,2.303-3.563,2.814
	c-3.293,1.076-6.678,1.401-10.108,1.51c-2.838,0.091-5.677,0.183-8.509,0.369c-3.479,0.23-6.93,0.347-10.434,0.025
	c-3.06-0.282-6.18,0.152-9.275,0.178c-7.741,0.064-15.482,0.06-23.224,0.121c-2.065,0.017-4.13,0.243-6.195,0.249
	c-8.526,0.024-17.052,0.002-25.577-0.003c-5.807-0.004-11.614,0.053-17.42-0.036c-3.797-0.059-7.622-0.03-11.334-1.051
	c-1.053-0.288-2.08-0.668-3.111-1.027c-2.697-0.938-3.59-3.104-3.404-5.657c0.156-2.165,0.478-4.403,1.223-6.425
	c2.639-7.146,5.573-14.173,9.153-20.914c1.466-2.759,3.574-4.503,6.749-4.879c1.202-0.143,2.383-0.456,3.593-0.694
	c0-1.465,0-2.783,0-3.866c-1.738-0.5-3.278-0.886-4.777-1.39c-3.269-1.099-5.722-6.34-5.106-9.417
	c0.538-2.688,2.026-4.661,4.682-5.403c2.28-0.637,4.656-0.93,7.365-1.447c3.309-3.606,7.66-6.568,12.75-9.386
	c-1.854-0.539-3.24-0.94-4.77-1.384c-1.76,2.107-4.277,2.153-6.703,2.481c-0.5-0.36-0.968-0.788-1.511-1.073
	c-3.591-1.886-5.373-4.936-5.575-8.891c-0.398-7.787,2.307-14.588,6.988-20.645c1.039-1.347,2.46-2.517,3.932-3.386
	c4.16-2.463,8.407-4.753,12.98-6.445c2.656-0.981,5.355-1.395,8.106-1.716c3.199-0.372,6.409-0.673,9.735-1.016
	c1.037-2.305,3.6-1.686,5.684-2.709c-0.568-0.848-1.043-1.653-1.613-2.385c-0.913-1.167-1.924-2.261-2.837-3.429
	c-3.667-4.693-3.82-9.939-2.377-15.428c0.064-0.246,0.087-0.503,0.162-0.959c-2.034-1.518-4.573-2.621-5.76-5.161
	c-1.111-2.377-2.733-4.548-2.985-7.306c1.051-2.471,2.99-4.001,5.373-5.009c2.733-1.154,5.482-2.277,8.26-3.321
	c6.503-2.443,13.244-3.655,20.166-4.282c5.894-0.534,11.76-0.108,17.58,0.261c8.742,0.555,15.916,4.33,19.857,12.672
	c0.867,1.837,1.359,3.898,1.738,5.911c1.167,6.197,0.738,12.346-1.038,18.384c-0.82,2.784-1.757,5.537-2.735,8.271
	c-0.341,0.954-0.947,1.817-1.474,2.699c-0.358,0.604-0.788,1.166-1.164,1.716c0.532,0.695,0.999,1.304,1.401,1.828
	c3.494,1.234,6.969,2.413,10.408,3.689c2.232,0.828,3.71,2.514,4.717,4.631c1.793,3.77,2.885,7.727,3.152,11.9
	c0.109,1.729-0.404,3.211-1.311,4.736c-3.485,5.874-8.411,10.437-13.313,15.027c-0.979,0.916-2.104,1.679-3.253,2.584
	c0.681,1.228,1.39,2.507,2.099,3.786C153.094,119.512,150.689,120.437,149.039,122.596z"/>
<path fill-rule="evenodd" clip-rule="evenodd" fill="#f04c47" class="fill" d="M54.553,144.313c0.094,1.122,0.168,1.995,0.251,2.994
	c-0.684,0.04-1.247,0.068-1.81,0.108c-1.725,0.121-2.408,0.992-2.102,2.715c0.09,0.506,0.267,0.997,0.395,1.498
	c0.104,0.409,0.194,0.821,0.305,1.293c-1.586,0.35-3.337-1.709-4.625,0.579c1.527,1.334,3.027,2.627,4.508,3.943
	c0.891,0.79,1.975,0.905,3.079,0.941c0.96,0.031,1.919,0.007,3.11,0.007c-0.641,2.344-1.937,4.231-2.288,6.678
	c0.635-0.149,0.979-0.214,1.312-0.311c0.857-0.251,1.699-0.686,2.566-0.74c2.065-0.133,3.905-0.751,5.579-1.956
	c0.448-0.324,1.001-0.506,1.634-0.816c0.215,1.872,0.409,3.564,0.584,5.094c0.927,0.574,1.243,0.016,1.672-0.371
	c1.614-1.457,3.256-2.886,5-4.424c1.043,1.615,0.983,3.869,3.148,4.438c1.739-0.752,1.556-3.201,3.487-3.807
	c1.648,1.626,1.816,3.924,2.565,5.813c1.112,0.73,1.843,0.143,2.539-0.441c1.361-1.141,2.317-2.584,3.043-4.196
	c0.204-0.455,0.47-0.884,0.755-1.413c1.637,0.588,2.848,1.622,4.109,2.596c1.273,0.98,2.596,1.908,4.371,2.082
	c0.233-0.473,0.452-0.916,0.545-1.104c-0.317-1.49-0.578-2.718-0.89-4.188c1.946,0.258,3.145,1.153,4.234,2.227
	c0.505,0.497,0.907,1.097,1.408,1.598c1.101,1.103,2.296,0.899,2.862-0.557c0.273-0.697,0.32-1.498,0.368-2.258
	c0.039-0.628-0.073-1.266-0.118-1.9c2.654,0,5.189,0,7.775,0c0.318-0.459,0.599-0.863,0.975-1.403
	c-1.107-0.833-2.146-1.613-3.183-2.394c0.054-0.12,0.107-0.239,0.161-0.358c2.119,0.175,4.237,0.35,6.425,0.53
	c0.179-0.665,0.286-1.064,0.395-1.464c-1.079-0.844-2.075-1.623-3.19-2.495c1.985-1.669,5.029-1.749,5.76-4.753
	c-2.36-1.144-4.883-0.519-7.421-1.03c0.206-1.499,0.404-2.938,0.604-4.395c2.053-0.141,3.898-0.276,5.747-0.39
	c7.859-0.481,15.718-0.972,23.58-1.421c1.672-0.096,3.354-0.046,5.031-0.044c1.63,0.001,3.016,0.632,4.211,1.707
	c2.458,2.215,4.784,4.53,6.134,7.642c2.005,4.619,3.89,9.276,4.997,14.214c0.555,2.475,0.116,4.891-0.31,7.3
	c-0.372,2.109-1.748,3.334-3.783,3.972c-3.482,1.091-7.028,0.805-10.573,0.638c-1.352-0.063-2.699-0.226-4.05-0.262
	c-5.426-0.144-10.834,0.068-16.232,0.69c-2.557,0.295-5.141,0.382-7.714,0.485c-4.574,0.185-9.176,0.078-13.717,0.554
	c-2.438,0.255-4.845,0.529-7.292,0.438c-1.222-0.046-2.444-0.093-3.668-0.143c-5.997-0.248-11.993-0.513-17.991-0.736
	c-2.192-0.081-4.391-0.029-6.583-0.103c-1.41-0.047-2.817-0.293-4.227-0.307c-1.802-0.02-3.607,0.055-5.406,0.179
	c-5.341,0.369-10.679,0.792-16.02,1.17c-1.158,0.083-2.329,0.006-3.485,0.103c-2.521,0.215-4.128-1.668-4.767-3.479
	c-0.736-2.086-0.254-4.137,0.28-6.101c1.966-7.233,4.417-14.294,8.024-20.905c1.158-2.122,2.676-3.615,5.355-3.352
	C52.741,144.598,53.514,144.407,54.553,144.313z M40.357,172.021c1.338,0.096,2.619,0.241,3.902,0.269
	c2.83,0.061,5.663,0.008,8.492,0.101c4.498,0.146,8.994,0.391,13.491,0.555c1.474,0.054,2.95-0.062,4.423-0.019
	c6.691,0.195,13.382,0.454,20.074,0.622c4.512,0.112,9.026,0.097,13.54,0.17c2.38,0.039,4.761,0.23,7.14,0.205
	c4.445-0.045,8.89-0.27,13.335-0.284c4.643-0.015,9.278,0.131,13.911-0.428c2.49-0.3,5.031-0.16,7.531-0.402
	c4.166-0.407,8.322-0.925,12.473-1.474c1.637-0.216,3.247-0.641,4.793-0.954c0.264-0.88,0.443-1.48,0.606-2.023
	c-0.468-0.605-0.858-1.111-1.225-1.586c-1.326,0.075-2.431,0.033-3.495,0.219c-3.735,0.654-7.447,1.445-11.188,2.074
	c-6.576,1.104-13.238,1.166-19.875,1.373c-5.279,0.165-10.569-0.045-15.855-0.05c-2.769-0.004-5.561,0.323-8.301,0.067
	c-6.816-0.639-13.665,0.033-20.488-0.868c-4.325-0.573-8.758-0.387-13.143-0.448c-8.968-0.127-17.942,0.021-26.887-0.852
	c-1.02-0.101-2.043-0.157-3.271-0.249c-0.454,0.811-0.903,1.612-1.373,2.447C39.521,171.095,39.945,171.564,40.357,172.021z
	 M138.875,165.066c3.443-0.007,6.783-0.62,10.115-1.461c2.234-0.563,4.02-1.741,5.565-3.315c2.319-2.361,3.089-5.153,1.929-8.352
	c-1.015-2.795-2.768-4.955-5.582-6.044c-1.858-0.719-3.764-1.408-5.71-1.792c-2.466-0.483-5.007-0.574-7.479,0.091
	c-1.676,0.449-3.323,1.018-4.964,1.593c-4.076,1.426-6.857,4.086-8.312,8.254c-1.052,3.014,0.399,8.105,4.559,9.438
	C132.221,164.509,135.489,165.128,138.875,165.066z"/>
<path fill-rule="evenodd" clip-rule="evenodd" fill="#f04c47" class="fill" d="M94.658,45.353c2.421,0.289,4.705,0.562,6.941,0.829
	c0.469-0.685,0.787-1.149,1.134-1.658c-0.726-1.161-1.418-2.27-2.111-3.378c3.659,1.323,7.052,3.047,11.013,3.353
	c0.31-0.474,0.616-0.944,0.92-1.41c-0.494-1.971-0.973-3.883-1.451-5.796c0.12-0.1,0.241-0.199,0.361-0.299
	c3.12,2.967,6.777,4.799,11.166,5.506c0.318-0.408,0.699-0.896,1.027-1.314c-0.264-1.593-0.527-3.046-0.724-4.506
	c-0.037-0.278,0.194-0.593,0.332-0.97c2.851-0.601,5.233,0.19,7.213,2.246c2.833,2.938,3.493,6.668,3.724,10.527
	c0.076,1.275,0.013,2.558,0.013,3.873c2.354,0.906,4.669-0.256,6.952-0.188c0.028,0.145,0.057,0.289,0.086,0.435
	c-0.677,0.491-1.354,0.984-2.346,1.704c1.63,0.538,2.701,0.297,3.9-0.356c0.207-0.451,0.47-1.024,0.77-1.677
	c-0.296-0.577-0.58-1.135-0.881-1.724c-0.857,0-1.613,0-2.66,0c0.226-0.907,0.416-1.674,0.594-2.388
	c1.565-0.865,2.966-0.538,4.333,0.037c1.764,3.152,1.327,6.425-1.062,8.237c-0.999,0.758-2.026,1.06-3.218,0.147
	c-0.479,0.688-0.951,1.366-1.447,2.079c0,0.308-0.018,0.63,0.004,0.948c0.168,2.584,0.106,5.094-1.142,7.508
	c-0.576,1.113-0.697,2.477-0.941,3.742c-0.839,4.341-3.126,7.872-6.097,11.024c-1.018,1.08-2.099,2.104-3.122,3.18
	c-2.182,2.295-4.886,3.812-7.763,4.976c-1.014,0.411-2.286,0.399-3.409,0.283c-2.951-0.309-5.725-1.113-7.497-3.789
	c-0.59-0.891-1.473-1.186-2.425-1.44c-1.574-0.42-3.046-1.02-4.152-2.319c-0.948-1.114-1.31-2.329-0.995-3.766
	c0.29-1.323,0.615-2.647,0.787-3.988c0.484-3.789-0.09-7.45-1.631-10.934c-0.355-0.803-0.898-1.585-1.532-2.191
	c-2.905-2.781-4.548-6.224-5.431-10.074C93.485,50.057,93.839,47.383,94.658,45.353z M119.878,53.61
	c2.862,0.448,5.54-0.187,8.077-1.356c0.827-0.381,1.553-1.151,2.115-1.901c0.934-1.244,0.813-2.016-0.295-3.585
	c-3.041-0.575-6.172-0.695-9.131,0.7C117.615,48.896,117.322,51.209,119.878,53.61z M113.266,68.58
	c0.14,2.314,1.702,3.872,4.188,4.197c1.842,0.24,3.524-0.373,5.278-0.799c2.646-0.642,5.753-6.092,4.87-8.927
	c-0.686,0.393-1.41,0.668-1.961,1.146c-3.006,2.599-6.375,4.051-10.427,3.507C114.368,67.59,113.691,67.808,113.266,68.58z
	 M95.934,54.23c0.508,1.825,1.191,2.446,2.951,2.576c2.371,0.178,4.571-0.504,6.772-1.317c2.079-0.77,3.084-2.185,3.241-4.273
	c-0.935-1.259-1.824-1.724-3.49-1.653c-1.285,0.056-2.568,0.235-3.849,0.396C98.916,50.288,96.983,51.588,95.934,54.23z
	 M110.105,60.507c0.976-2.665,2.455-4.93,2.104-7.939c-0.711,0.3-1.143,0.483-1.214,0.513c-1.032,2.952-1.94,5.546-2.938,8.4
	c1.445,0.715,2.847,1.406,4.303,2.127c0.356-0.605,0.571-0.971,0.765-1.3C112.096,61.694,111.167,61.139,110.105,60.507z
	 M110.43,80.88c1.287,0.216,2.354,0.151,2.996-0.944c0.459-0.78,0.687-1.667-0.231-2.351C111.285,78.27,110.965,78.638,110.43,80.88
	z"/>
<path fill-rule="evenodd" clip-rule="evenodd" fill="#f04c47" class="fill" d="M88.427,107.309c0.493-2.441,0.903-4.771,1.442-7.07
	c1.021-4.352,1.308-8.777,1.695-13.213c0.359-4.094,1.221-8.149,1.965-12.202c0.393-2.138,1.009-4.234,1.529-6.375
	c1.216-0.266,2.263-0.494,3.58-0.782c-0.058,0.955-0.033,1.649-0.15,2.317c-0.679,3.873-1.489,7.727-2.062,11.616
	c-0.554,3.757-1.293,7.515-1.007,11.351c0.065,0.884,0.226,1.762,0.367,2.837c11.638-0.458,22.981,1.249,34.345,2.35
	c1.522-0.912,2.363-2.095,2.454-3.917c0.06-1.197,0.474-2.409,0.901-3.55c2.059-5.488,4.143-10.967,6.3-16.416
	c0.442-1.117,1.24-2.093,1.856-3.107c1.99,0,3.834,0,5.809,0c0.111,1.273-0.535,2.103-1.013,2.963
	c-1.535,2.761-3.212,5.445-4.104,8.522c-1.362,4.706-3.044,9.326-3.732,14.208c-0.108,0.773-0.171,1.564-1.145,2.022
	c-0.511-0.303-1.095-0.65-1.866-1.109c-0.912,0.743-1.844,1.518-2.791,2.272c-2.775,2.204-5.569,4.387-8.333,6.608
	c-1.073,0.862-2.294,1.127-3.618,1.126c-0.516-0.001-1.034,0.025-1.549-0.004c-3.479-0.2-6.646,0.685-9.5,2.692
	c-0.26,0.182-0.561,0.305-0.893,0.481C102.457,107.739,95.343,108.298,88.427,107.309z"/>
<path fill-rule="evenodd" clip-rule="evenodd" fill="#f04c47" class="fill" d="M100.429,150.071c2.392,1.213,4.626,0.366,6.908-0.096
	c-2.429,1.898-5.332,2.651-8.458,3.558c1.303,1.158,2.507,0.686,3.612,0.524c1.149-0.169,2.27-0.53,3.495-0.531
	c-0.77,0.637-1.538,1.274-2.455,2.034c-1.792-0.058-3.896-0.566-5.383,1.5c-3.289-1.474-6.014-0.255-8.508,2.021
	c-1.21-1.139-2.189-2.322-4.008-2.15c-1.572,0.147-3.102,0.174-4.224,1.642c-1.698-1.99-3.689-1.438-5.651-1.046
	c-0.693-0.578-1.369-1.142-2.193-1.828c1.151-0.272,2.109-0.501,3.331-0.792c-1.065-1.09-2.242-1.096-3.311-1.277
	c-1.27-0.215-2.562-0.352-3.849-0.407c-2.938-0.129-5.479-1.401-8.012-2.695c-0.253-0.129-0.383-0.503-0.478-0.891
	c3.534,1.305,6.955,2.825,10.786,2.693c0.449-0.015,0.91-0.021,1.342-0.124c0.359-0.086,0.688-0.311,1.102-0.509
	c-0.237-0.885-0.854-1.087-1.592-1.156c-1.221-0.115-2.438-0.287-3.662-0.371c-2.717-0.188-5.064-1.434-7.447-2.568
	c-0.41-0.194-0.701-0.636-0.962-1.115c3.965,0.786,7.569,3.319,11.782,2.291c0.043-0.166,0.087-0.331,0.13-0.496
	c-0.709-0.227-1.423-0.438-2.126-0.681c-2.923-1.011-5.854-2-8.754-3.071c-0.671-0.247-1.443-0.652-1.094-1.817
	c3.227,0.882,6.011,2.999,9.552,2.69c-0.33-0.238-0.636-0.525-0.995-0.705c-2.417-1.207-4.851-2.384-7.268-3.592
	c-0.585-0.292-1.35-0.444-1.459-1.638c1.754,0.722,3.303,1.413,4.892,1.996c1.571,0.576,3.146,1.312,4.86,0.888
	c0.05-0.16,0.101-0.321,0.151-0.482c-0.843-0.378-1.687-0.751-2.526-1.134c-2.113-0.963-4.236-1.901-6.325-2.913
	c-0.444-0.215-0.757-0.703-1.131-1.065c0.106-0.153,0.212-0.306,0.317-0.458c1.425,0.744,2.82,1.552,4.281,2.214
	c1.526,0.69,3.087,1.333,4.686,1.822c1.663,0.509,3.377,0.867,5.089,1.181c1.644,0.302,3.311,0.504,4.975,0.672
	c1.67,0.169,3.348,0.322,5.023,0.332c1.671,0.01,3.347-0.138,5.016-0.271c1.672-0.135,3.347-0.285,5.004-0.527
	c1.721-0.252,3.44-0.553,5.128-0.963c1.625-0.395,3.225-0.912,4.807-1.459c1.575-0.543,3.116-1.19,4.91-1.884
	c0.036,0.691,0.062,1.212,0.104,1.99c-2.818,1.212-5.606,2.41-8.773,3.771c3.144,0.575,5.6-0.38,8.22-1.303c0,0.665,0,1.199,0,1.754
	c-1.461,0.6-2.879,1.192-4.306,1.765c-1.316,0.526-2.909,0.443-4.177,1.839c2.931,0.81,5.225-0.727,7.713-1.171
	c0.243,0.779-0.047,1.131-0.693,1.357c-2.185,0.766-4.359,1.56-6.539,2.342C101.001,149.861,100.715,149.967,100.429,150.071z"/>
<path fill-rule="evenodd" clip-rule="evenodd" fill="#f04c47" class="fill" d="M139.023,117.193c1.854,2.051,3.705,4.098,5.645,6.241
	c-0.561,0.439-0.947,0.744-1.387,1.088c-0.316-0.243-0.587-0.407-0.804-0.625c-1.407-1.415-2.791-2.856-4.211-4.258
	c-0.455-0.449-0.974-0.919-1.788-0.284c0.522,1.278,1.765,1.919,2.637,2.88c0.896,0.986,1.751,2.012,2.77,3.189
	c-0.796,0.448-1.33,0.748-2.197,1.236c-0.544-0.687-1.029-1.366-1.583-1.982c-0.862-0.96-1.745-1.902-2.671-2.801
	c-0.461-0.447-1.026-0.849-1.786-0.052c1.637,1.811,3.28,3.627,5.015,5.542c-0.586,0.443-0.976,0.74-1.355,1.027
	c-0.259-0.123-0.477-0.16-0.587-0.289c-0.714-0.83-1.396-1.688-2.103-2.524c-0.623-0.737-1.214-1.515-1.921-2.163
	c-0.349-0.319-0.929-0.387-1.403-0.568c-0.078,0.121-0.154,0.242-0.231,0.364c1.52,2.027,3.038,4.056,4.672,6.235
	c-0.491,0.355-0.916,0.663-1.342,0.97c-1.781-1.702-2.604-4.083-4.85-5.083c-0.16-0.071-0.444,0.133-0.845,0.268
	c1.475,1.916,2.857,3.715,4.325,5.622c-0.652,0.44-1.056,0.713-1.472,0.994c-0.22-0.181-0.385-0.278-0.498-0.42
	c-0.808-1.007-1.574-2.049-2.416-3.026c-0.449-0.521-0.993-1.071-1.958-0.255c1.103,1.438,2.182,2.844,3.396,4.426
	c-0.723,0.349-1.437,0.695-2.068,1.001c-1.316-0.886-1.114-3.29-3.623-2.953c0.643,1.275,1.173,2.329,1.735,3.446
	c-0.36,0.183-0.569,0.287-0.898,0.453c-0.361-0.666-0.686-1.264-1.119-2.062c-0.454,0.09-0.948,0.187-1.644,0.322
	c0.477,0.791,0.801,1.332,1.215,2.019c-1.446,0.68-2.902,0.854-4.566,1.01c0.631-1.863,1.771-3.183,2.798-4.565
	c0.461-0.621,0.956-1.219,1.464-1.804c2.583-2.971,2.014-6.265,0.758-9.476c-0.738-1.889-2.675-2.369-4.52-2.396
	c-2.715-0.039-5.154,0.631-7.119,2.819c-1.585,1.765-3.897,1.218-5.361-1.125c0.223-1.11,0.472-2.353,0.74-3.688
	c0.703,0.084,1.232,0.147,1.948,0.233c-0.255-0.643-0.438-1.104-0.679-1.714c0.424-0.368,0.887-0.77,1.282-1.111
	c1.031,0.386,0.829,1.988,2.302,1.743c-0.238-0.89-0.465-1.731-0.744-2.774c0.672-0.345,1.328-0.683,2.188-1.125
	c0.576,1.208,1.099,2.304,1.768,3.71c0.916-1.623-0.283-2.701-0.039-3.991c0.488-0.093,1.03-0.193,1.791-0.337
	c0.337,0.786,0.618,1.546,0.983,2.262c0.31,0.609,0.25,1.603,1.593,1.549c-0.207-1.135-0.396-2.183-0.597-3.288
	c0.707-0.506,1.182-0.191,1.524,0.465c0.328,0.629,0.578,1.299,0.915,1.922c0.289,0.536,0.439,1.28,1.612,1.108
	c-0.364-1.159-0.715-2.274-1.109-3.528c0.57-0.169,1.095-0.326,1.695-0.506c0.583,0.622,1.141,1.215,1.799,1.916
	c0.605-1.105-0.31-1.751-0.553-2.991c0.124-0.108,0.447-0.386,0.938-0.811c1.056,0.886,1.912,1.636,2.804,2.344
	c0.752,0.598,1.058,1.966,2.842,1.471c-1.567-1.574-2.948-2.96-4.415-4.433c0.38-0.345,0.689-0.625,0.979-0.889
	c2.332,0.646,3.662,2.739,5.72,3.691c-0.094-1.413-1.272-1.856-2.025-2.615c-0.752-0.756-1.715-1.302-2.733-2.048
	c0.528-0.472,0.936-0.834,1.352-1.204c2.683,0.8,4.248,3.002,6.329,4.517c-0.665-2.677-3.06-3.7-4.995-5.326
	c0.316-0.331,0.599-0.629,0.987-1.04c1.068,0.731,2.069,1.421,3.075,2.103c0.974,0.661,1.682,1.73,3.144,2.204
	c-0.197-1.692-1.437-2.167-2.278-2.901c-0.857-0.748-1.857-1.332-2.828-2.009c0.696-1.073,1.396-0.551,1.904-0.177
	c1.711,1.263,3.532,2.444,4.991,3.965c2.724,2.837,5.245,5.869,7.795,8.867c0.589,0.692,1.303,1.423,1.198,2.945
	c-0.81-0.966-1.359-1.647-1.939-2.305c-0.767-0.872-1.529-1.748-2.343-2.574c-0.521-0.528-0.561-0.489-1.629-0.089
	c1.718,2.119,3.435,4.238,5.198,6.413c-0.83,0.605-1.186,0.118-1.516-0.201c-1.444-1.384-2.854-2.807-4.294-4.195
	c-0.717-0.69-0.735-0.67-1.995-0.262c1.994,2.103,3.914,4.124,5.961,6.281c-0.703,0.534-1.242,0.945-1.781,1.355
	c0.093-0.169,0.186-0.337,0.279-0.506c-1.806-1.551-3.629-3.079-5.407-4.662C139.982,116.618,140.021,116.574,139.023,117.193z"/>
<path fill-rule="evenodd" clip-rule="evenodd" fill="#f04c47" class="fill" d="M153.143,86.156c0.051-0.335,0.128-0.843,0.222-1.467
	c-0.241-0.501-0.519-1.071-0.786-1.621c-2.918-1.378-4.449,0.708-6.132,2.397c-0.794-2.315,0.729-7.625,3.464-11.979
	c0.755,0.151,1.636,0.244,2.46,0.513c1.9,0.614,3.774,1.31,5.654,1.984c1.712,0.614,2.918,1.676,3.715,3.408
	c1.491,3.239,2.677,6.516,3.317,10.057c0.595,3.287-0.234,6.035-2.187,8.506c-1.796,2.272-3.789,4.39-5.705,6.566
	c-0.761,0.866-1.548,1.708-2.425,2.673c-4.473-3.229-8.947-6.341-14.356-8.114c0.76-2.226,2.761-3.063,3.999-4.543
	c1.235-1.478,2.643-2.818,4.042-4.15C149.869,89.011,151.393,87.718,153.143,86.156z"/>
<path fill-rule="evenodd" clip-rule="evenodd" fill="#f04c47" class="fill" d="M86.447,121.195c2.088-0.272,3.727-0.671,5.364-0.665
	c4.625,0.019,9.153,0.665,13.238,3.044c3.027,1.762,4.701,4.529,5.404,7.891c0.126,0.602,0.39,1.439-0.609,1.951
	c-0.169-0.318-0.427-0.609-0.48-0.934c-0.418-2.544-1.849-4.577-3.578-6.298c-1.354-1.348-3.113-2.306-5.224-1.692
	c-0.312,0.853,0.341,1.004,0.81,1.319c0.845,0.568,1.749,1.09,2.464,1.798c2.449,2.428,2.855,5.028,1.363,8.406
	c-0.624,0.26-1.319,0.594-2.047,0.838c-0.72,0.24-1.471,0.392-2.33,0.614c0.307-1.448,0.566-2.734,0.854-4.015
	c0.506-2.246-1.439-6.48-4.176-7.997c-0.957-0.529-1.961-0.979-2.96-1.428c-1.046-0.47-2.133-0.518-3.209-0.11
	c-0.759,0.287-1.384,0.72-1.267,1.851c3.593,0.228,6.552,1.857,8.229,5.038c1.097,2.082,1.677,4.515,0.193,7.026
	c-2.175,0.4-4.405,1.161-7.097,0.915c1.43-2.079,2.697-3.941,2.523-6.384c-0.973-0.146-1.36,0.385-1.614,1.09
	c-1.312,3.646-5.796,6.081-10.018,5.779c-3.349-0.238-6.703-0.357-9.915-1.479c-0.42-0.146-0.825-0.336-1.434-0.586
	c0.223-3.601,1.245-6.788,4.108-9.19c0.674-0.565,1.469-1.042,1.156-2.396c-4.919,1.716-7.893,5.074-9.419,9.714
	c-2.334-0.44-3.837-1.503-5.488-3.824c4.686-5.252,10.766-7.802,17.59-9.363c0.559,1.867,1.033,3.45,1.535,5.127
	c-3.236,1.768-5.252,4.066-4.016,7.936c0.324,0.069,0.511,0.152,0.69,0.138c0.245-0.021,0.484-0.116,0.509-0.122
	c0.607-1.452,1.053-2.777,1.715-3.985c0.338-0.619,1.064-1.025,1.84-1.732c0.657,1.928,1.207,3.544,1.74,5.11
	c3.393,0.688,5.839-0.334,6.854-2.823C88.7,128.402,87.646,125.03,86.447,121.195z"/>
<path fill-rule="evenodd" clip-rule="evenodd" fill="#f04c47" class="fill" d="M91.902,71.66c-1.207,8.277-2.383,16.336-3.559,24.393
	c-0.106,0.007-0.213,0.013-0.32,0.02c-0.174-1.11-0.098-2.353-0.594-3.292c-0.495-0.938-1.563-1.572-2.557-2.505
	c0,0.044-0.012-0.21,0.002-0.463c0.142-2.864-1.577-4.618-4.463-4.54c-0.767,0.021-1.531,0.068-2.406,0.11
	c-0.765-1.547-1.5-3.033-2.328-4.707c-2.271,0.266-4.749-0.372-6.923,1.354c0.372,1.597,0.706,3.03,1.101,4.72
	c-3.89,1.184-7.519,2.838-10.181,6.174c-2.603,3.26-3.373,7.111-3.956,11.075c-0.139,0.012-0.276,0.024-0.414,0.036
	c-0.209-0.758-0.52-1.504-0.608-2.273c-0.527-4.623,0.384-8.984,2.522-13.1c0.506-0.974,1.074-1.918,1.546-2.908
	c2.127-4.473,5.47-7.648,10.169-9.213c4.399-1.466,8.821-2.92,13.324-3.991C85.363,71.81,88.613,71.558,91.902,71.66z"/>
<path fill-rule="evenodd" clip-rule="evenodd" fill="#f04c47" class="fill" d="M82.562,89.941c-0.351,0.923-0.69,1.815-1.11,2.92
	c1.282,0.152,2.445,0.29,3.777,0.449c0.1,0.753,0.188,1.417,0.26,1.955c-0.797,0.871-1.457,1.593-2.323,2.541
	c1.478,0.234,2.563,0.407,3.636,0.577c0.3,2.787-2.83,2.611-3.393,4.535c0.926,0.648,1.844,1.291,2.814,1.97
	c-0.503,1.139-1.331,1.616-2.209,1.987c-2.967,1.252-6.087,1.774-9.265,1.365c-2.611-0.337-5.184-0.994-7.765-1.551
	c-0.617-0.134-1.201-0.428-1.588-0.569c-2.5-4.201-2.175-8.364-0.578-12.479c0.888-2.285,2.367-4.095,5.123-4.407
	c1.526-0.175,3.023-0.608,4.53-0.941c2.126-0.47,4.231-0.069,6.347,0.102C81.708,88.468,82.22,88.961,82.562,89.941z"/>
<path fill-rule="evenodd" clip-rule="evenodd" fill="#f04c47" class="fill" d="M140.06,31.101c0.361-0.537,0.604-0.898,0.957-1.423
	c-0.799-1.696-1.614-3.428-2.413-5.124c6.71,1.084,12.042,8.913,10.385,15.999c-1.223-1.517-1.458-3.275-2.278-4.717
	c-0.864-1.519-1.925-2.841-3.267-4.063c-1.354,1.306-0.434,2.688-0.502,3.942c-0.071,1.337-0.016,2.68-0.242,4.096
	c-1.681-2.568-3.117-5.23-5.727-6.955c-0.849,0.667-0.457,1.345-0.324,2.011c0.263,1.323,0.508,2.651,0.723,3.983
	c0.047,0.28-0.064,0.586-0.16,1.302c-2.279-2.797-3.52-6.055-6.576-7.583c-2.909-1.456-5.621-3.411-9.065-3.973
	c-1.632,2.656-0.759,5.791-1.928,8.568c-3.938-1.723-6.807-5.028-10.612-7.036c-2.204,2.735-1.331,5.896-1.668,9.148
	c-4.193-1.881-8.025-3.993-11.543-7.062c-1.688,2.322-1.087,4.99-1.129,7.81c-3.377-2.05-5.514-4.709-7.115-8.363
	c2.445,0.683,3.161,3.225,5.22,3.686c0.983-0.295,0.923-1.037,0.915-1.757c-0.024-2.188,1.247-3.82,2.368-5.886
	c1.55,1.169,2.944,2.174,4.284,3.246c1.289,1.029,2.32,2.44,4.312,2.732c1.7-2.617,1.244-5.996,3.014-8.879
	c1.625,1.041,3.194,2.025,4.742,3.043c1.466,0.964,2.583,2.517,4.659,2.85c0.952-2.223,0.951-4.434,0.741-6.731
	c1.29-0.327,2.372,0.131,3.425,0.525c4.052,1.512,7.555,3.885,10.626,6.915c0.229,0.227,0.456,0.458,0.712,0.652
	c0.146,0.111,0.345,0.151,0.495,0.213c0.848-0.276,0.923-0.869,0.694-1.562c-0.384-1.162-0.794-2.313-1.191-3.471
	c-0.118-0.343-0.231-0.688-0.21-1.173C135.102,27.384,137.431,29.253,140.06,31.101z"/>
<path fill-rule="evenodd" clip-rule="evenodd" fill="#f04c47" class="fill" d="M134.222,82.427c-1.477,4.704-2.861,9.113-4.305,13.712
	c-2.334-0.16-4.655-0.15-6.917-0.513c-3.83-0.613-7.655-1.049-11.539-1.081c-2.187-0.02-4.369-0.308-6.556-0.44
	c-2.308-0.139-4.617-0.235-7.165-0.363c-0.74-3.256-0.088-6.644,0.547-10.426c0.536,0.551,0.955,0.879,1.242,1.296
	c1.07,1.555,2.505,2.565,4.305,3.103c1.5,0.447,2.791,1.239,4.024,2.229c2.985,2.399,6.544,3.464,10.286,3.313
	c3.076-0.123,5.849-1.543,8.179-3.587C128.933,87.383,131.444,84.982,134.222,82.427z"/>
<path fill-rule="evenodd" clip-rule="evenodd" fill="#f04c47" class="fill" d="M87.344,132.516c-0.781,0.227-1.308,0.379-1.784,0.518
	c-1.948-3.057-4.896-13.265-5.22-18.052c0.432-0.288,0.943-0.63,1.662-1.111c1.17,3.177,2.174,6.206,2.847,9.329
	C85.506,126.255,87.197,129.049,87.344,132.516z"/>
<path fill-rule="evenodd" clip-rule="evenodd" fill="#f04c47" class="fill" d="M50.295,129.315c0.96,1.524,2.032,1.972,3.333,2.055
	c0.961,0.062,1.929,0.153,2.871,0.341c0.899,0.179,1.743,0.523,1.666,2.007c-2.475,0.274-4.913,0.54-7.323-0.409
	c-0.288-0.112-0.549-0.337-0.775-0.557c-1.599-1.557-2.28-3.528-2.51-5.687c-0.129-1.216,0.414-2.262,1.43-2.757
	c2.233-1.089,4.626-1.156,7.094-0.842c-0.026,0.454-0.01,0.643-0.057,0.815c-0.045,0.179-0.152,0.343-0.27,0.592
	c-1.736,0.479-3.725,0.643-4.895,2.271C50.424,127.753,50.443,128.688,50.295,129.315z"/>
<path fill-rule="evenodd" clip-rule="evenodd" fill="#f04c47" class="fill" d="M58.334,162.138c0.047-2.999,3.87-6.35,6.466-5.976
	c1.356,0.194,2.515,0.502,3.038,1.912C65.427,160.988,61.861,162.507,58.334,162.138z"/>
<path fill-rule="evenodd" clip-rule="evenodd" fill="#f04c47" class="fill" d="M83.937,158.763c1.832-0.659,2.955,0.242,3.86,1.821
	c-0.721,1.839-1.176,3.904-2.974,5.492c-0.928-2.015-1.771-3.843-2.73-5.927C82.633,159.744,83.284,159.254,83.937,158.763z"/>
<path fill-rule="evenodd" clip-rule="evenodd" fill="#f04c47" class="fill" d="M118.623,122.331c0.549-0.297,1.186-0.639,1.764-0.951
	c1.439,1.353,1.919,3.284,1.191,4.828c-0.877,1.863-2.697,2.046-4.307,2.574c-0.086-0.112-0.172-0.225-0.259-0.336
	c0.536-0.897,1.274-1.738,1.552-2.709C118.832,124.805,118.623,123.735,118.623,122.331z"/>
<path fill-rule="evenodd" clip-rule="evenodd" fill="#f04c47" class="fill" d="M72.158,157.173c0.561,0.471,0.923,0.738,1.238,1.053
	c0.171,0.172,0.263,0.424,0.455,0.749c-1.124,2.043-3.021,3.157-4.907,4.438c-0.541-1.958-0.407-3.192,0.601-5.641
	C70.301,157.6,71.211,157.39,72.158,157.173z"/>
<path fill-rule="evenodd" clip-rule="evenodd" fill="#f04c47" class="fill" d="M96.446,158.833c-0.393,1.581-0.745,2.999-1.166,4.698
	c-1.447-1.044-2.853-2.06-4.259-3.074C92.832,157.951,94.351,157.536,96.446,158.833z"/>
<path fill-rule="evenodd" clip-rule="evenodd" fill="#f04c47" class="fill" d="M104.436,162.857c-1.885-1.239-3.48-2.29-5.297-3.485
	c0.36-0.687,0.759-1.448,1.23-2.349c0.816,0.131,1.56,0.248,2.391,0.381C103.429,159.115,104.285,160.759,104.436,162.857z"/>
<path fill-rule="evenodd" clip-rule="evenodd" fill="#f04c47" class="fill" d="M75.02,86.725c-0.871,0-1.563,0-2.475,0
	c-0.482-1.12-0.992-2.308-1.633-3.798c1.257-0.206,2.153-0.354,3.115-0.511c0.562,0.989,1.059,1.863,1.591,2.797
	C75.435,85.675,75.254,86.135,75.02,86.725z"/>
<path fill-rule="evenodd" clip-rule="evenodd" fill="#f04c47" class="fill" d="M58.83,156.945c-0.997-0.091-1.992-0.208-2.99-0.265
	c-1.863-0.104-2.53-0.392-3.56-1.736c2.8-0.364,5.358-0.016,8.246,0.955c-0.653,0.619-1.036,0.982-1.421,1.347
	C59.014,157.145,58.922,157.045,58.83,156.945z"/>
<path fill-rule="evenodd" clip-rule="evenodd" fill="#f04c47" class="fill" d="M107.605,155.651c1.061,1.14,2.053,2.204,3.116,3.347
	c-2.12-0.028-3.992-0.705-5.673-2.032C105.844,155.65,105.844,155.65,107.605,155.651z"/>
<path fill-rule="evenodd" clip-rule="evenodd" fill="#f04c47" class="fill" d="M76.762,163.364c-0.375-1.497-0.661-2.645-0.924-3.695
	c2.016-1.519,2.837-1.341,3.688,0.72C78.746,161.229,77.928,162.109,76.762,163.364z"/>
<path fill-rule="evenodd" clip-rule="evenodd" fill="#f04c47" class="fill" d="M113.083,150.918c0.156-0.797,0.274-1.399,0.429-2.188
	c1.593,0.098,3.084,0.189,4.575,0.281c0.02,0.166,0.038,0.334,0.057,0.5C116.729,150.57,115.113,150.985,113.083,150.918z"/>
<path fill-rule="evenodd" clip-rule="evenodd" fill="#f04c47" class="fill" d="M62.188,154.911c-0.85-0.568-1.04-1.321-0.555-2.465
	c1.396,0.638,2.719,1.239,4.042,1.842c0.001,0.088,0.002,0.175,0.004,0.263C64.539,154.669,63.397,154.786,62.188,154.911z"/>
<path fill-rule="evenodd" clip-rule="evenodd" fill="#f04c47" class="fill" d="M52.848,149.282c0.565-0.032,1.119-0.063,1.965-0.112
	c0.102,1.303,0.195,2.523,0.297,3.817C53.697,152.615,53.263,151.856,52.848,149.282z"/>
<path fill-rule="evenodd" clip-rule="evenodd" fill="#f04c47" class="fill" d="M113.639,154.602c-1.211-0.174-2.424-0.348-4.017-0.575
	c0.569-0.761,0.95-1.27,1.498-2.001c1.011,0.818,1.859,1.506,2.708,2.192C113.765,154.346,113.702,154.474,113.639,154.602z"/>
<path fill-rule="evenodd" clip-rule="evenodd" fill="#f04c47" class="fill" d="M68.791,155.048c0.726,0.057,1.45,0.112,2.176,0.168
	c0.015,0.13,0.029,0.259,0.045,0.388c-0.42,0.207-0.838,0.413-1.314,0.648c-0.37-0.312-0.699-0.587-1.027-0.863
	C68.711,155.274,68.751,155.161,68.791,155.048z"/>
<path fill-rule="evenodd" clip-rule="evenodd" fill="#f04c47" class="fill" d="M139.784,163.345c-3.733-0.051-6.712-0.527-9.628-1.412
	c-3.012-0.913-4.249-4.632-3.611-7.095c0.849-3.275,2.925-5.61,5.913-7.003c3.165-1.477,6.501-2.406,10.079-2.2
	c2.949,0.169,5.775,0.907,8.369,2.194c5.004,2.483,5.475,8.708,1.12,12.166c-2.235,1.772-4.921,2.197-7.554,2.755
	C142.717,163.121,140.902,163.21,139.784,163.345z M141.783,147.818c-2.464,0.436-4.922,0.899-7.391,1.297
	c-2.912,0.47-4.679,2.197-5.746,4.869c-0.816,2.046-0.451,3.801,1.245,5.185c1.766,1.44,3.812,2.108,6.044,2.357
	c3.995,0.445,7.839-0.349,11.649-1.397c1.594-0.438,2.823-1.467,4.024-2.581c2.156-2.001,1.232-6.353-1.032-7.579
	C147.795,148.463,144.951,147.784,141.783,147.818z"/>
<path fill-rule="evenodd" clip-rule="evenodd" fill="#f04c47" class="fill" d="M127.221,51.209c-0.779-0.58-1.471-1.145-2.217-1.624
	c-0.306-0.197-0.729-0.21-1.013-0.284c-1.55,0.278-2.13,1.439-2.659,2.595c-1.539-0.433-1.539-0.433-1.515-2.171
	c1.986-2.003,4.6-1.795,7.15-1.787c0.856,0.003,1.694,0.13,2.029,1.213C129.039,50.228,128.393,50.833,127.221,51.209z"/>
<path fill-rule="evenodd" clip-rule="evenodd" fill="#f04c47" class="fill" d="M123.146,52.072c0.098-0.504,0.152-0.786,0.24-1.237
	c0.469,0.289,0.807,0.495,1.473,0.904C124.109,51.885,123.71,51.963,123.146,52.072z"/>
<path fill-rule="evenodd" clip-rule="evenodd" fill="#f04c47" class="fill" d="M115.723,69.404c3.764-0.017,6.932-1.448,9.908-3.544
	c0.105,2.541-1.097,3.904-4.354,5.102C118.922,71.828,117.351,71.429,115.723,69.404z"/>
<path fill-rule="evenodd" clip-rule="evenodd" fill="#f04c47" class="fill" d="M99.668,55.604c-0.789-0.593-1.409-1.059-1.992-1.496
	c0.678-2.398,2.633-2.722,4.324-2.916c1.762-0.204,3.788-1.102,5.574,0.759c-0.362,0.685-0.691,1.307-1.085,2.05
	c-1.006-0.613-1.808-1.103-2.511-1.531C101.752,52.295,100.833,53.84,99.668,55.604z"/>
<path fill-rule="evenodd" clip-rule="evenodd" fill="#f04c47" class="fill" d="M102.105,55.083c0.178-1.07,0.626-1.206,1.592-0.57
	C102.986,54.768,102.545,54.926,102.105,55.083z"/>
<path fill-rule="evenodd" clip-rule="evenodd" fill="#f04c47" class="fill" d="M138.556,159.929c-1.289-0.163-2.568-0.314-3.845-0.493
	c-0.379-0.054-0.777-0.129-1.116-0.297c-1.378-0.682-3.093-1.228-2.983-3.136c0.105-1.822,0.709-3.66,2.576-4.441
	c1.646-0.688,3.406-1.271,5.165-1.472c2.356-0.269,4.774-0.3,7.134-0.086c1.344,0.121,2.73,0.76,3.909,1.477
	c1.758,1.068,2.016,3.128,0.611,4.646c-0.809,0.873-1.849,1.681-2.944,2.113C144.351,159.313,141.461,159.686,138.556,159.929z
	 M132.719,155.919c1.266,1.718,2.988,2.735,5.226,2.566c2.5-0.189,5-0.461,7.478-0.84c1.105-0.168,2.309-0.378,3.021-1.396
	c0.289-3.153-0.706-4.818-3.198-5.337c-0.625-0.131-1.293-0.234-1.916-0.155c-2.541,0.322-5.093,0.624-7.604,1.12
	C133.826,152.253,132.774,153.802,132.719,155.919z"/>
</svg>
