<svg version="1.1" id="svg" xmlns="http://www.w3.org/2000/svg" xmlns:xlink="http://www.w3.org/1999/xlink" x="0px" y="0px"
	 width="200px" height="200px" viewBox="0 0 200 200" enable-background="new 0 0 200 200" xml:space="preserve">
<path class="stroke" fill="#51050f"  d="M178.759,156.658c-0.406-1.582-1.093-2.185-2.744-2.307c-1.291-0.095-2.596-0.02-4.064-0.02
	c-0.277-0.788-0.572-1.555-0.814-2.337c-0.666-2.139-1.186-4.333-1.996-6.414c-0.714-1.833-1.654-3.596-2.655-5.294
	c-1.729-2.932-6.94-4.013-9.603-1.352c-0.21,0.209-0.498,0.338-0.727,0.491c-0.926-0.721-1.775-1.383-2.713-2.112
	c0.217-0.867,0.422-1.72,0.646-2.569c0.859-3.289,1.486-6.574,1.2-10.031c-0.282-3.383-1.68-6.078-4.14-8.3
	c-2.828-2.554-6.309-3.863-9.869-4.882c-2.1-0.602-4.37-0.838-6.52-0.321c-2.926,0.703-5.875,1.458-8.412,3.231
	c-0.422,0.295-0.873,0.553-1.185,0.75c-3.145,0.049-6.085-0.26-9.03-1.419c-0.162-0.312-0.332-0.578-0.444-0.866
	c-0.938-2.409-2.388-4.514-3.919-6.565c-1.126-1.512-2.592-2.545-4.471-2.947c-0.66-0.141-1.313-0.334-1.961-0.527
	c-2.271-0.678-4.562-1.087-6.931-0.57c-2.993,0.654-5.667,1.801-7.269,4.634c-0.525,0.932-1.305,1.285-2.367,1.062
	c-0.66-0.139-1.352-0.152-2.008-0.308c-0.992-0.235-1.966-0.545-2.937-0.821c-0.038-0.674-0.099-1.14-0.083-1.603
	c0.07-2.047-0.116-4.059-0.697-6.031c-0.381-1.301-0.695-2.621-1.072-3.922c-1.291-4.463-3.734-8.124-7.674-10.664
	c-1.084-0.7-2.326-1.152-3.49-1.732c-4.055-2.022-8.35-2.181-12.672-1.372c-2.393,0.448-4.678,1.441-7.051,2.033
	c-5.859,1.462-10.111,5.193-13.971,9.564c-2.852,3.229-4.972,6.947-7.266,10.549c-0.666,1.046-1.193,2.18-1.673,3.064
	c0.136,1.66,0.808,2.747,1.724,3.721c0.78,0.833,1.633,1.621,2.301,2.541c1.047,1.445,2.391,2.462,4,3.151
	c1.281,0.549,2.596,1.029,4.041,1.596c-0.365,0.252-0.584,0.489-0.854,0.578c-2.045,0.679-4.121,1.129-6.299,0.743
	c-1.795-0.318-3.6-0.589-5.395-0.921c-0.766-0.143-1.436-0.051-2.074,0.492c-0.252,2.119-0.356,4.183,0.324,6.31
	c0.43,1.346,0.5,2.894,0.365,4.316c-0.23,2.427-0.824,4.818-1.12,7.243c-0.199,1.648-0.28,3.334-0.184,4.99
	c0.126,2.172,0.506,4.329,0.724,6.498c0.122,1.206,0.051,2.379-0.734,3.432c-0.586,0.783-1.035,1.666-1.506,2.442
	c0.673,1.644,1.9,2.532,3.353,3.03c1.171,0.403,2.435,0.728,3.661,0.746c2.098,0.031,4.059,0.674,5.877,1.468
	c3.461,1.513,7.143,1.848,10.762,2.526c2.984,0.558,5.984,0.431,9.027,0.077c3.324-0.387,6.603-0.803,9.83-1.744
	c2.379-0.693,4.777-1.591,7.356-1.05c0.608,0.127,1.235,0.186,1.847,0.305c1.029,0.201,1.91-0.062,2.443-0.97
	c0.521-0.883,0.951-1.83,1.328-2.786c0.221-0.57,0.26-1.214,0.399-1.921c3.392-0.774,4.757-3.414,5.61-6.303
	c4.465,0.371,8.764,0.729,13.104,1.09c0.366,1.836,0.545,3.605,1.094,5.251c0.574,1.716,1.5,3.313,2.25,4.919
	c2.162,1.184,4.182,2.478,6.611,2.908c3.539,0.627,7.061,1.282,10.633,1.737c5.033,0.641,10.084,0.803,15.13,1.072
	c3.177,0.169,6.369,0.12,9.548-0.006c1.641-0.065,3.268-0.517,4.902-0.78c0.404-0.065,0.842-0.178,1.225-0.092
	c1.671,0.377,3.416,0.615,4.967,1.287c2.383,1.03,4.648,2.343,6.93,3.597c1.229,0.675,2.422,1.425,3.562,2.234
	c1.521,1.077,3.162,1.521,5.014,1.372c1.072-0.087,1.818-0.645,2.141-1.57c0.483-1.377,1.529-2.332,2.313-3.479
	c0.321-0.47,0.793-0.883,0.968-1.398c0.531-1.568,1.568-2.819,2.576-4.042C179.172,159.88,179.187,158.326,178.759,156.658z"/>
<path class="stroke" fill="#51050f"  d="M92.966,69.545c-2.361,3.419-1.139,6.479,2.813,7.308c0.288,0.061,0.562,0.205,0.913,0.337
	c-0.057,0.859-0.111,1.666-0.146,2.177c-1.277,0.631-2.375,1.009-3.281,1.656c-1.58,1.129-2.2,3.67-1.454,5.193
	c1.325,2.708,5.103,3.167,6.749,2.069c0.959-0.64,1.771-1.497,2.701-2.299c0.148,2.753,1.318,5.055,3.748,6.501
	c2.494,1.484,5.195,1.119,7.9,0.371c0.11,0.41,0.17,0.711,0.273,0.998c0.575,1.612,1.016,3.295,1.783,4.811
	c0.976,1.927,3.08,2.547,5.105,1.776c0.465-0.177,0.925-0.363,1.338-0.525c0.456,0.925,0.656,1.917,1.26,2.45
	c3.185,2.813,7.707,3.277,11.011,0.502c0.507-0.425,1.024-0.832,1.548-1.254c0.676,0.572,1.256,1.017,1.783,1.519
	c2.838,2.7,6.33,2.89,9.938,2.597c2.217-0.18,4.062-1.347,5.836-2.509c2.312-1.516,3.951-3.591,3.957-6.542
	c0.002-1.333-0.148-2.667-0.238-4.153c3.678-2.183,6.514-5.038,5.686-10.09c2.656-1.276,4.49-3.338,5.541-5.812
	c1.002-4.626,0.117-8.192-4.824-9.833c0.33-0.519,0.631-0.926,0.861-1.369c0.236-0.454,0.523-0.928,0.58-1.418
	c0.131-1.136,0.154-2.287,0.193-3.433c0.041-1.277-0.624-2.173-1.654-2.824c-0.786-0.496-1.602-0.95-2.449-1.45
	c0.025-0.272-0.004-0.544,0.082-0.773c0.502-1.328,0.355-2.667,0.107-4.011c-0.352-1.904-1.225-2.692-3.134-2.84
	c-0.243-0.02-0.487-0.057-0.892-0.105c0.522-4.193-0.539-7.756-3.998-10.269c-3.496-2.541-7.238-2.592-11.195-0.703
	c-0.594-0.652-1.154-1.329-1.778-1.94c-1.222-1.199-2.345-2.563-3.749-3.498c-2.91-1.937-7.841-0.75-9.689,2.144
	c-0.652-0.33-1.207-0.622-1.77-0.893c-3.803-1.828-7.545-1.786-11.209,0.378c-0.354,0.209-0.711,0.455-0.975,0.765
	c-0.975,1.149-1.938,2.315-2.855,3.51c-1.031,1.341-1.715,2.842-1.905,4.548c-0.154,1.372-0.351,2.74-0.544,4.234
	c-0.496,0-1.062,0.025-1.629-0.004c-2.646-0.136-4.908,0.773-6.878,2.494c-0.845,0.737-1.472,1.609-1.713,2.724
	c-0.356,1.645-0.632,3.284,0.075,4.919c0.117,0.264,0.073,0.597,0.109,0.951c-0.91,0.372-1.766,0.742-2.635,1.07
	c-1.118,0.423-2.064,1.072-2.539,2.189c-1.058,2.494-1.229,4.953,0.514,7.265C92.509,68.815,92.741,69.205,92.966,69.545z"/>
<path class="stroke" fill="#51050f"  d="M92.228,95.165c1.535-0.621,2.525-2.164,2.293-3.834c-0.266-1.895-1.148-2.711-3.104-2.852
	c-0.361-0.027-0.73-0.004-1.094-0.004c0-0.002,0-0.004,0-0.006c-0.364,0-0.736,0.044-1.095-0.007
	c-2.473-0.35-3.97,3.536-2.653,5.164C87.685,94.993,89.331,96.336,92.228,95.165z"/>
<path class="stroke" fill="#51050f"  d="M88.543,102.755c0.413-0.342,0.887-0.734,1.269-1.051c0.627-2.267-0.108-3.736-1.939-4.098
	c-1.886-0.372-3.72,0.995-4.061,3.065C84.823,102.735,86.481,103.094,88.543,102.755z"/>
<path fill-rule="evenodd" clip-rule="evenodd" fill="#f04c47" class="fill" d="M45.563,121.466c-0.34-0.522-0.707-1.03-1.016-1.57
	c-0.279-0.492-0.496-1.019-0.762-1.573c0.391-0.35,0.719-0.645,1.1-0.987c-1.252-2.272-3.611-3.881-3.803-6.804
	c1.514,0.39,2.928,0.793,4.361,1.112c1.408,0.313,2.74,1.246,4.576,0.656c-0.564-1.124-0.99-2.108-1.531-3.025
	c-1.059-1.796-1.494-3.741-1.631-6.013c1.652,0.651,3.127,1.381,4.686,1.803c1.539,0.418,3.164,0.526,5.021,0.811
	c-0.033-0.728,0.039-1.23-0.096-1.667c-0.264-0.842-0.613-1.662-0.981-2.466c-0.843-1.847-0.815-3.721-0.29-5.738
	c2.699-0.389,4.316,1.497,6.19,2.796c2.021,1.402,3.336,3.27,3.696,5.887c2.41,0.393,4.179-1.219,6.416-1.481
	c0-1.093,0-1.997,0-2.954c1.377-1.646,2.793-3.382,5.64-2.479c1.655,2.236,2.432,4.807,1.507,7.809
	c0.795,1.075,1.551,2.199,2.407,3.243c2.862,3.494,4.351,7.566,5.028,11.96c0.393,2.526-0.004,4.997-0.973,7.359
	c-0.74,1.804-2.104,3.01-3.948,3.526c-1.548,0.432-3.153,0.693-4.751,0.907c-0.801,0.106-1.502,0.274-2.148,0.784
	c-1.908,1.502-3.906,1.6-5.93,0.239c-1.383-0.929-2.832-1.794-4.082-2.881c-3.013-2.612-6.467-4.373-10.203-5.622
	c-0.98-0.328-2.071-0.322-3.053-0.652c-1.42-0.477-2.815-1.057-4.16-1.721c-0.523-0.258-0.877-0.861-1.31-1.309
	c0.565-0.048,1.136-0.067,1.696-0.145c2.037-0.281,3.973-0.786,5.326-2.512c0.088-0.111,0.094-0.286,0.171-0.537
	c-0.261-0.298-0.549-0.626-0.731-0.833c-2.19,1.136-4.234,2.196-6.424,3.332C45.563,120.869,45.563,121.167,45.563,121.466z
	 M67.067,126.627c0.34-0.156,0.562-0.203,0.71-0.333c1.389-1.221,2.993-1.853,4.841-1.931c0.828-0.035,1.484-0.454,2.057-1.467
	c-0.163-0.653-0.381-1.528-0.556-2.224c-2.753-1.503-5.87-0.967-7.813,1.476c-0.856,1.078-1.049,3.187-0.309,4.072
	C66.271,126.324,66.651,126.469,67.067,126.627z M61.468,113.01c0.828-0.469,1.441-0.865,2.094-1.178
	c1.504-0.719,2.625-1.876,3.639-3.144c0.279-0.349,0.38-0.839,0.562-1.266c-0.1-0.064-0.197-0.128-0.295-0.193
	c-1.122,0.825-2.243,1.652-3.367,2.476c-1.115,0.818-2.693,0.81-3.755,2.075C60.714,112.186,61.046,112.546,61.468,113.01z
	 M57.339,121.379c0.049-0.831,0.154-1.402,0.1-1.956c-0.086-0.87-0.24-1.739-0.458-2.584c-0.055-0.207-0.474-0.32-0.946-0.613
	c0.164,1.284,0.383,2.246,0.383,3.209c0.002,0.955-0.215,1.912-0.332,2.825c2.217,0.762,4.078,0.437,5.064-0.993
	c-0.691,0-1.22-0.013-1.748,0.003C58.792,121.29,58.185,121.333,57.339,121.379z M77.968,100.792
	c-2.119-1.445-3.797-0.996-4.549,1.111c1.123,0.953,1.695-0.543,2.512-0.627c1.119,0.711-0.176,1.726,0.416,2.469
	c1.144-0.229,1.144-0.229,1.9-1.638C78.166,101.72,78.069,101.267,77.968,100.792z M74.577,128.417
	c-1.05-1.105-1.05-1.105-2.491-1.145c0.055,0.289,0.01,0.669,0.165,0.792C72.884,128.559,73.621,128.694,74.577,128.417z"/>
<path fill-rule="evenodd" clip-rule="evenodd" fill="#f04c47" class="fill" d="M158.499,152.316c-0.541,0.671-1.293,0.769-2.1,0.823
	c-2.338,0.158-4.673,0.338-7.007,0.556c-0.667,0.062-1.312,0.313-1.978,0.418c-0.851,0.134-1.713,0.209-2.954,0.355
	c0.681-1.293,1.162-2.242,1.675-3.174c0.494-0.896,1.146-1.738,0.838-3.033c-2.072,0.207-3.242,2.098-5.29,2.614
	c-0.548-1.17-1.12-2.394-1.772-3.783c-1.832,1.256-1.767,3.283-2.539,4.731c-1.27,0.436-2.438,0.868-3.629,1.228
	c-0.481,0.146-1.031,0.255-1.519,0.179c-2.78-0.433-5.544-0.992-8.384-0.843c-0.143,0.008-0.291-0.075-0.586-0.158
	c0.277-0.453,0.522-0.855,0.799-1.309c-1.164-1.403-3.058-1.265-4.479-2.165c0.457-1.556,2.133-2.524,1.917-4.562
	c-1.309,0.517-2.479,0.981-3.825,1.515c0.898-1.921,2.006-3.596,2.453-5.43c0.454-1.879,0.262-3.917,0.354-5.933
	c0.779-0.483,1.598-0.991,2.537-1.574c-0.727-1.035-1.342-1.917-1.918-2.738c0.148-1.505,1.77-2.42,1.436-4.199
	c-0.857,0.139-1.59,0.258-2.484,0.403c0.1-0.442,0.09-0.77,0.237-0.995c1.851-2.833,3.473-5.857,6.06-8.115
	c2.547-2.222,5.383-3.712,8.91-4.092c3.873-0.416,7.41,0.443,10.729,2.084c3.543,1.753,5.387,4.934,5.845,8.872
	c0.017,0.143-0.055,0.296-0.102,0.518c-1.608-0.069-2.507-1.661-4.134-1.873c-0.193,0.324-0.393,0.657-0.551,0.921
	c0.404,0.973,0.756,1.825,1.18,2.847c-1.57,0.421-2.988,0.801-4.675,1.252c0.409,0.454,0.577,0.796,0.843,0.909
	c0.908,0.386,1.828,0.803,2.783,0.998c1.235,0.25,1.957,0.879,2.209,2.097c0.105,0.501,0.258,0.99,0.4,1.533
	c-0.268,0.12-0.442,0.253-0.627,0.273c-1.852,0.202-3.713,0.349-5.558,0.593c-0.606,0.081-1.224,0.325-1.755,0.634
	c-0.378,0.221-0.621,0.676-1.09,1.218c1.127,0.216,1.926,0.369,2.664,0.511c0.931,1.013,1.807,1.969,2.711,2.955
	c0.113,1.439-1.388,2.519-1.094,4.161c1.873-0.097,2.963-1.455,4.43-2.168c1.712,0.314,2.617,2.079,4.357,2.737
	c0.67-1.536-0.383-2.99,0.129-4.363C156.802,140.634,159.357,147.687,158.499,152.316z M128.817,141.943
	c0.33,1.629,0.031,3.64,1.283,5.463c1.463-1.42,1.191-3.43,2.381-4.78c1.969,1.007,3.378,3.168,6.066,2.907
	c-0.161-2.347-2.156-3.53-2.918-5.3c1.004-1.52,2.904-2.123,3.594-3.952c-1.984-0.885-3.803-0.123-5.857,0.072
	c0.354-1.206,0.62-2.196,0.932-3.173c0.177-0.554,0.11-0.919-0.703-1.042c-0.738,0.728-1.573,1.502-2.346,2.333
	c-0.814,0.874-1.566,1.803-2.028,2.34c-1.43,0.823-2.801,0.477-3.687,1.539C126.597,139.514,127.604,140.619,128.817,141.943z
	 M129.69,122.654c-0.564,1.3-1.18,2.708-1.774,4.073c0.293,0.246,0.41,0.43,0.524,0.429c1.855-0.02,2.838-1.854,4.59-2.205
	c1.361,0.958,1.792,2.881,3.416,3.683c1.646-1.654,0.467-3.464,0.549-5.204c0.798-0.728,1.629-1.437,2.396-2.208
	c0.479-0.48,0.933-1.051,0.158-1.654c-1.316-0.112-2.521,0.805-3.871,0.293c-0.088-1.281,1.217-2.399,0.27-3.938
	c-0.904,0.669-1.779,1.21-2.521,1.895c-1.189,1.099-2.525,1.588-4.137,1.431c-0.539-0.052-1.094,0.048-1.796,0.089
	C127.696,120.923,129.407,121.152,129.69,122.654z"/>
<path fill-rule="evenodd" clip-rule="evenodd" fill="#f04c47" class="fill" d="M53.913,159.016c-0.6,0-1.148,0-1.768,0
	c-0.15-1.557-0.291-3.015-0.455-4.721c-1.062,0.785-0.758,1.691-0.922,2.426c-0.166,0.748-0.217,1.522-0.336,2.426
	c-0.812-0.062-1.52-0.114-2.391-0.18c-0.221-1.403-0.437-2.782-0.691-4.401c-1.416,1.315-0.525,2.849-1.122,4.142
	c-0.757-0.145-1.503-0.287-2.315-0.441c-0.104-1.157-0.197-2.209-0.303-3.406c-1.308,0.715-0.977,2.062-1.496,3.171
	c-0.698-0.144-1.383-0.283-2.244-0.458c0-1.291,0-2.5,0-4.056c-1.183,1.083-1.146,2.279-1.508,3.438
	c-0.592-0.258-1.094-0.478-1.704-0.742c0-1.096,0-2.163,0-3.231c-0.102-0.042-0.203-0.085-0.304-0.128
	c-0.235,0.354-0.502,0.691-0.699,1.066c-0.215,0.408-0.365,0.849-0.604,1.421c-0.565-0.162-1.089-0.312-1.665-0.477
	c-0.059-0.735-0.111-1.388-0.17-2.106c-1.195,0.213-0.695,1.958-2.094,2.012c-0.152-0.946-0.303-1.883-0.475-2.948
	c-1.23,0.712-0.969,1.928-1.447,2.969c-0.957-0.198-1.898-0.393-2.951-0.612c0.633-1.823,1.213-3.492,1.792-5.161
	c-0.104-0.056-0.208-0.112-0.313-0.168c0.973-1.122,1.948-2.244,3-3.46c-1.217-0.178-1.83,0.782-2.92,1.259
	c-0.086-0.674-0.161-1.242-0.243-1.874c0.663-0.502,1.271-0.963,2.151-1.628c-0.902,0-1.512,0-2.262,0
	c-0.057-0.611-0.102-1.104-0.156-1.688c0.721-0.396,1.39-0.762,2.078-1.14c-0.473-0.912-1.268-0.51-2.054-0.512
	c0-0.615,0-1.205,0-1.762c0.592-0.524,1.141-1.009,1.911-1.692c-0.793-0.164-1.219-0.252-1.696-0.351c0-0.52,0-1.026,0-1.499
	c0.667-0.459,1.287-0.884,2.179-1.497c-0.811-0.195-1.273-0.307-1.934-0.466c0.99-3.996,0.104-8.023-0.008-12.116
	c0.594-0.027,0.922-0.132,1.182-0.04c2.832,0.99,5.676,0.444,8.525,0.139c1.184-0.126,2.378-0.143,3.795-0.223
	c0.057,1.769,0.107,3.413,0.164,5.188c-1.818-0.078-3.549-0.834-5.463-1.259c-0.422,0.239-0.901,0.506-1.374,0.773
	c0.275,1.51,1.28,1.997,2.438,2.271c1.014,0.24,2.044,0.411,3.066,0.621c2.43,0.5,4.401,2.021,5.645,4.393
	c-3.144,0.829-6.398,1.418-9.02,4.073c0.614,0.23,0.965,0.418,1.338,0.492c3.012,0.593,6.035,1.127,9.038,1.767
	c0.829,0.177,1.596,0.646,2.394,0.98c0.014,0.131,0.029,0.262,0.043,0.394c-0.51,0.281-1.002,0.607-1.536,0.831
	c-0.96,0.401-1.972,0.685-2.911,1.125c-0.541,0.252-0.984,0.714-1.505,1.106c0.509,0.742,1.112,0.889,1.716,0.597
	c2.597-1.257,4.979-0.308,7.389,0.607c1.106,0.42,2.247,0.75,3.466,0.889c1.286,0.965,2.571,1.93,3.903,2.93
	c-0.387,0.664-0.86,0.467-1.436,0.346c-2.789-0.59-5.588-0.677-8.365,0.089c-0.524,0.144-1.184,0.167-1.287,1.054
	c1.92,1.575,4.139,2.351,6.681,2.393c2.423,0.042,3.685-1.654,5.196-3.29c0.664,0.406,1.355,0.827,2.145,1.308
	c-1.105,0.809-2.617,0.665-3.245,2.056c1.567,2.07,3.952,1.805,6.267,2.221c0.195,0.935,0.408,1.934,0.663,3.149
	c-0.505-0.106-0.81-0.17-1.245-0.262c-0.521,0.618-1.139,1.257-2.176,1.038c-0.105-0.762-0.209-1.51-0.328-2.346
	c-1.456,0.401-1.05,1.792-1.783,2.624c-0.277,0.05-0.668,0.12-1.26,0.227c-0.123-1.271-0.236-2.439-0.354-3.666
	c-0.238-0.039-0.426-0.069-0.691-0.113c-0.237,1.251-0.465,2.462-0.715,3.806c-0.748,0.066-1.447,0.129-2.107,0.188
	c-0.865-1.371,0.125-3.102-1.088-4.327C53.831,155.92,54.616,157.535,53.913,159.016z M46.023,149.108
	c-3.103-2.356-11.017-2.335-13.315,0.036C36.459,152.847,44.409,152.386,46.023,149.108z"/>
<path fill-rule="evenodd" clip-rule="evenodd" fill="#f04c47" class="fill" d="M117.552,138.377c-2.051-0.906-3.783-1.673-5.529-2.445
	c-0.598,0.287-0.373,0.689-0.186,1.158c0.523,1.296,0.992,2.613,1.49,3.947c-1.658,1.344-3.844,0.739-5.674,1.914
	c1.697,1.562,3.874,1.742,5.691,2.742c-0.422,0.98-1.229,1.066-2.072,1.1c-3.914,0.155-7.822,0.178-11.711-0.432
	c-1.219-0.191-2.467-0.225-3.861-0.344c0.571-1.231,1.777-1.515,2.558-2.281c1.824,0.448,3.46,1.449,5.458,1.543
	c-0.108-1.578-1.582-2.109-1.924-3.406c0.711-1.275,2.188-2.15,2.516-3.941c-1.57-0.612-2.902,0.618-4.421,0.486
	c-1.091-0.979-2.235-2.008-3.483-3.127c-0.764,1.294-0.978,2.493-1.109,3.825c-0.907,0.131-1.807,0.262-2.824,0.411
	c0.083,0.62,0.15,1.113,0.219,1.598c0.674,0.494,1.299,0.951,2.053,1.501c-0.249,1.024-0.503,2.062-0.758,3.104
	c-1.383,0.376-4.694,0.106-6.06-0.495c1.355-3.985,1.401-8.034,0.538-12.253c4.027-0.035,7.931,1.084,11.947,1.094
	c0.389-1.194,0.145-2.189-0.109-3.195c-0.762-3.029-1.549-6.053-2.229-9.101c-0.258-1.143-0.246-2.344-0.357-3.52
	c0.116-0.049,0.234-0.098,0.35-0.147c-0.405-0.405-0.811-0.811-1.311-1.312c-1.07,1.558-1.062,3.065-0.99,4.646
	c0.074,1.547-0.094,3.107-0.384,4.732c-0.136-0.222-0.297-0.434-0.403-0.669c-0.363-0.805-0.678-1.634-1.068-2.424
	c-0.451-0.912-0.695-1.809-0.504-2.857c0.672-3.66,0.43-7.254-1.004-10.766c0.701-0.981,1.243-2.132,2.121-2.891
	c1.777-1.531,3.518-3.341,6.438-2.837c-0.722,1.809-2.859,2.431-3.573,4.55c2.033-0.301,3.799-0.562,5.531-0.819
	c1.395,1.891,1.288,4.255,2.562,6.378c1.631-2.084,1.83-4.553,3.215-6.608c1.387,0.821,2.5,1.87,3.275,3.236
	c0.691,1.222,1.381,2.467,1.867,3.778c0.941,2.538,1.803,5.11,2.566,7.707c0.35,1.186,0.467,2.459,0.555,3.701
	c0.238,3.278,0.412,6.562,0.59,9.846C117.591,136.332,117.552,137.163,117.552,138.377z M110.653,123.949
	c-0.865-1.634-1.7-2.988-3.322-3.962c-0.664,1.429-1.271,2.73-1.906,4.096c-1.174,0.331-2.352,0.664-3.666,1.035
	c0.666,1.545,2.299,1.757,3.148,2.726c-0.348,1.358-1.412,2.37-1.391,3.847c1.26-0.026,1.838-0.972,2.689-1.407
	c0.864-0.441,1.727-0.881,2.467-1.259c1.484,0.855,2.184,2.436,3.99,2.659c0.451-1.698-1.057-2.992-0.795-4.534
	c1.01-0.984,2.656-1.324,2.996-3.202C113.403,123.949,112.073,123.949,110.653,123.949z"/>
<path fill-rule="evenodd" clip-rule="evenodd" fill="#f04c47" class="fill" d="M37.028,99.604c1.246,1.26,2.545,2.438,4.543,2.961
	c0.35-3.18,0.79-6.268,1.746-9.378c2.055,0.964,3.209,3.319,5.822,3.054c-0.227-1.95-0.445-3.829-0.684-5.874
	c1.838-0.256,3.537-0.14,5.215,0.157c1.436,0.254,2.844,0.663,4.271,0.961c0.312,0.065,0.658-0.048,1.114-0.092
	c-0.476-1.873-2.332-2.135-3.423-3.495c2.639-0.271,5.102,0.468,7.652,0.069c0.09-0.191,0.219-0.458,0.423-0.887
	c-1.29-0.908-2.552-1.793-4.122-2.898c3.025-0.186,5.787-0.277,8.368,0.604c2.228,0.76,4.179,2.183,5.606,4.199
	c-2.269-0.421-4.344-1.647-6.95-1.45c0.798,2.542,3.454,3.624,3.971,6.362c-1.544-0.478-2.901-0.923-4.272-1.316
	c-1.342-0.385-2.656-1.135-4.363-0.455c0.963,1.167,1.799,2.178,2.633,3.19c-0.061,0.097-0.12,0.193-0.18,0.29
	c-3.803-1.711-7.381-4.252-11.992-3.568c-0.261,1.555-0.551,2.925-0.709,4.311c-0.156,1.384-0.182,2.783-0.271,4.302
	c-2.539-0.455-4.641-1.846-6.809-2.748c-0.802,0.524-0.947,1.189-0.945,1.876c0.004,1.929,0.053,3.858,0.08,5.786
	c0.006,0.506,0,1.013,0,1.799c-1.906-0.596-3.656-1.142-5.526-1.727c-0.542,2.364-0.593,4.563-0.21,6.98
	c-2.211-0.949-3.449-2.563-4.693-4.417c1.119-0.237,1.657,0.691,2.477,0.873c0.75-0.128,0.57-0.711,0.565-1.215
	c-0.021-2.136-0.063-4.273-0.044-6.41c0.006-0.593,0.201-1.184,0.309-1.777C36.762,99.649,36.894,99.626,37.028,99.604z"/>
<path fill-rule="evenodd" clip-rule="evenodd" fill="#f04c47" class="fill" d="M58.664,133.052c2.335-0.723,4.317-0.09,6.259,0.918
	c1.522,0.792,3.054,1.567,4.598,2.314c2.527,1.224,4.77,0.299,6.939-0.997c0.489-0.292,0.922-0.683,1.418-0.848
	c2.072-0.453,4.143-0.907,6.213-1.359c-0.006-0.066-0.013-0.133-0.018-0.201c0.689,0.222,1.381,0.445,2.227,0.717
	c-0.082,3.349-1.43,6.218-3.023,9.111c-3.008-0.257-5.922-0.412-8.81-0.784c-2.476-0.319-4.942-0.803-7.374-1.375
	c-1.605-0.378-3.168-0.983-4.699-1.609c-0.537-0.219-1.064-0.723-1.355-1.234C60.195,136.219,59.475,134.664,58.664,133.052z"/>
<path fill-rule="evenodd" clip-rule="evenodd" fill="#f04c47" class="fill" d="M170.11,156.59c-0.623-0.187-1.244-0.373-1.771-0.531
	c-0.408-0.666-0.744-1.214-1.08-1.761c-0.122,0.024-0.246,0.047-0.369,0.071c-0.062,0.617-0.123,1.236-0.18,1.798
	c0.539,0.492,0.955,0.872,1.375,1.253c-1.189,0.95-1.601,0.637-2.303-1.76c-0.195-0.026-0.43-0.058-0.711-0.097
	c-0.426,1.458,0.053,2.586,1.223,3.747c-0.576,0.057-0.948,0.209-1.205,0.098c-1.01-0.439-1.754-1.141-1.752-2.344
	c0.002-0.417,0.16-0.864-0.689-0.927c-0.166,0.457-0.35,0.96-0.562,1.548c0.426,0.815,0.85,1.63,1.27,2.442
	c-1.344,0.298-1.451,0.157-2.156-2.846c-0.941,0.15-0.941,0.15-0.697,2.96c-1.316,0.479-1.771,0.355-2.943-0.944
	c0.299-0.53,0.55-1.212,0.997-1.722c0.678-0.769,1.15-1.584,1.327-2.598c0.068-0.398,0.203-0.828,0.436-1.152
	c1.369-1.906,1.297-4.012,0.854-6.147c-0.445-2.15-1.571-3.949-3.063-5.534c-0.278-0.296-0.538-0.609-0.856-0.971
	c0.836-1.1,1.695-2.203,3.064-2.255c1.627-0.063,3.318,0.521,4.144,2.486c0.384,0.912,0.8,1.81,1.198,2.715
	c1.301,2.958,2.635,5.901,3.877,8.882c0.432,1.033,0.631,2.161,0.938,3.245C170.351,156.361,170.229,156.476,170.11,156.59z"/>
<path fill-rule="evenodd" clip-rule="evenodd" fill="#f04c47" class="fill" d="M79.134,150.994c-1.69,0.916-3.346,1.325-5.264,0.819
	c-2.893-0.763-5.561-1.951-8.162-3.418c-3.128-1.766-6.318-3.412-8.943-5.919c-0.78-0.746-1.476-1.582-2.238-2.41
	c1.289-0.924,2.454-1.76,3.57-2.557c0.953,0.906,1.834,1.866,2.841,2.667c0.804,0.639,1.712,1.202,2.658,1.594
	c2.991,1.238,6.087,2.087,9.336,2.379C75.786,144.404,79.331,147.187,79.134,150.994z"/>
<path fill-rule="evenodd" clip-rule="evenodd" fill="#f04c47" class="fill" d="M126.194,154.783c-0.073,0.433-0.121,0.721-0.17,1.007
	c0.613,1.711,2.363,2.101,3.656,3.161c0.229,0.658,0.481,1.382,0.787,2.263c-2.142,0.654-4.166-0.33-6.07-0.017
	c-1.288-1.15-1.79-2.89-3.557-3.471c-0.746,1.104-1.465,2.17-2.247,3.329c-4.189,0.473-7.935-0.778-11.776-2.843
	c1.247-0.757,2.256-1.37,3.262-1.98c1.324,1.082,2.006,2.77,3.807,3.367c1.141-1.843-0.234-3.705,0.224-5.712
	c0.379-0.291,0.911-0.701,1.396-1.076c0.865,0.49,1.744,1.186,2.739,1.493c0.967,0.298,2.056,0.224,3.095,0.262
	c0.986,0.037,1.979-0.016,2.967,0.016C124.914,154.601,125.519,154.708,126.194,154.783z"/>
<path fill-rule="evenodd" clip-rule="evenodd" fill="#f04c47" class="fill" d="M168.316,165.024c0.527,0.271,1.038,0.571,1.579,0.804
	c0.562,0.242,1.154,0.417,1.781,0.641c-0.201,0.901-0.812,1.002-1.434,0.879c-0.658-0.13-1.295-0.385-1.923-0.631
	c-0.485-0.191-0.901-0.296-1.204,0.352c0.486,1.294,2.604,0.833,2.91,2.685c-0.504,0.066-0.955,0.253-1.332,0.155
	c-2.602-0.682-4.953-1.853-6.892-3.649c1.493-3.434,4.571-5.197,7.685-7.432c1.244-0.181,2.547-0.935,3.252-2.587
	c1.4,0.002,2.791-0.507,4.08,0.309c0.414,1.055,0.381,2.022-0.068,2.954c-0.719,1.498-2.082,1.884-3.506,1.026
	c-0.311-0.188-0.587-0.477-0.922-0.576c-0.322-0.094-0.697,0-1.293,0.02c0.74,1.292,1.798,1.676,2.69,2.297
	c-0.153,0.598-0.59,0.461-0.968,0.334c-0.593-0.199-1.163-0.464-1.752-0.677c-0.5-0.182-1.01-0.316-1.436,0.474
	c1.092,0.89,2.449,1.212,3.773,1.779c-0.428,0.62-0.983,0.911-1.702,0.781c-0.715-0.129-1.411-0.357-2.127-0.489
	c-0.347-0.065-0.715-0.011-1.075-0.011C168.396,164.648,168.356,164.836,168.316,165.024z"/>
<path fill-rule="evenodd" clip-rule="evenodd" fill="#f04c47" class="fill" d="M148.333,157.167c-0.07,1.491-0.133,2.863-0.205,4.427
	c-5.298-0.895-10.382-0.2-15.568-0.089c0.041-1.311,0.756-2.083,1.512-2.906c1.43,0.489,2.826,0.967,4.311,1.475
	c0.424-1.418-0.414-2.258-0.951-3.402C141.13,156.839,144.631,156.999,148.333,157.167z"/>
<path fill-rule="evenodd" clip-rule="evenodd" fill="#f04c47" class="fill" d="M84.351,109.688c2.225,0.423,4.096,0.779,6.061,1.152
	c1.171,2.364,1.275,4.852,1.05,7.578c-0.36-0.207-0.639-0.303-0.833-0.487c-1.166-1.106-2.241-2.326-3.488-3.33
	C85.614,113.372,85.121,111.66,84.351,109.688z"/>
<path fill-rule="evenodd" clip-rule="evenodd" fill="#f04c47" class="fill" d="M57.526,134.937c-1.125,0.757-2.109,1.421-3.236,2.182
	c-1.617-1.689-3.244-3.392-4.991-5.218c0.634-0.829,1.304-1.706,2.015-2.638C54.259,130.282,55.632,132.739,57.526,134.937z"/>
<path fill-rule="evenodd" clip-rule="evenodd" fill="#f04c47" class="fill" d="M100.272,141.704c0.279,0.57,0.518,1.057,0.926,1.894
	c-1.176-0.452-2.02-0.776-2.982-1.146c-0.691,0.481-1.469,1.021-2.498,1.737c0.121-0.822,0.195-1.318,0.291-1.964
	c-0.583-0.499-1.202-1.025-1.99-1.697c0.871-0.227,1.619-0.422,2.412-0.629c0.036-0.82,0.07-1.58,0.108-2.446
	c1.462,0.292,1.976,1.576,2.951,2.335c0.884-0.229,1.761-0.456,2.64-0.683c0.074,0.109,0.146,0.219,0.221,0.329
	C101.687,140.159,101.022,140.884,100.272,141.704z"/>
<path fill-rule="evenodd" clip-rule="evenodd" fill="#f04c47" class="fill" d="M142.878,154.48c-0.795,0-1.475,0.062-2.141-0.012
	c-1.586-0.177-3.164-0.417-4.805-0.891c0.827-0.323,1.652-0.648,2.46-0.964c0.341-1.124,0.668-2.186,0.991-3.248
	c0.113,0.01,0.223,0.019,0.334,0.027c0.396,0.944,0.795,1.887,1.234,2.931c1.783-0.02,2.68-1.753,4.391-2.178
	C145.009,151.948,143.907,153.153,142.878,154.48z"/>
<path fill-rule="evenodd" clip-rule="evenodd" fill="#f04c47" class="fill" d="M107.659,106.385c-0.614,1.557-1.199,3.039-1.921,4.873
	c-0.731-1.836-1.333-3.341-1.956-4.904c-1.283,0.093-2.434,0.176-3.892,0.282c0.944-1.028,1.667-1.815,2.399-2.613
	C103.517,103.948,105.485,104.8,107.659,106.385z"/>
<path fill-rule="evenodd" clip-rule="evenodd" fill="#f04c47" class="fill" d="M114.591,144.888c-1.316-0.526-2.447-0.979-3.912-1.566
	c1.531-0.559,2.737-1,4.024-1.469c-0.454-1.358-0.835-2.507-1.271-3.809c1.586,0.077,2.641,0.843,3.824,1.394
	c0.171,1.431,0.119,2.685-1.139,3.667C115.521,143.571,115.106,144.272,114.591,144.888z"/>
<path fill-rule="evenodd" clip-rule="evenodd" fill="#f04c47" class="fill" d="M146.646,141.671c0.384-1.04,0.632-1.715,0.921-2.495
	c-0.664-0.61-1.336-1.226-2.086-1.915c1.389-0.166,5.758,0.893,7.282,1.72c0,0.934,0,1.896,0,3.024
	c-1.022-0.666-1.927-1.255-2.97-1.935C148.888,140.534,147.937,141.016,146.646,141.671z"/>
<path fill-rule="evenodd" clip-rule="evenodd" fill="#f04c47" class="fill" d="M127.693,155.52c0.354-0.099,0.732-0.33,1.062-0.273
	c2.251,0.384,4.494,0.828,6.82,1.267c0.27,0.427,0.561,0.881,1.039,1.636c-1.195-0.423-2.053-0.725-3.047-1.077
	c-0.65,0.938-1.291,1.854-2.11,3.029c-0.284-0.752-0.487-1.291-0.739-1.958c-0.948-0.675-1.996-1.42-3.045-2.166
	C127.681,155.826,127.686,155.672,127.693,155.52z"/>
<path fill-rule="evenodd" clip-rule="evenodd" fill="#f04c47" class="fill" d="M119.517,146.409c-0.686,1.109-1.168,1.891-1.791,2.897
	c1.512,0.617,2.867,1.169,4.413,1.801c-0.447,0.473-0.813,0.861-1.126,1.19c-2.973,0.014-4.316-1.037-5.385-4.243
	C116.738,147.413,117.888,146.813,119.517,146.409z"/>
<path fill-rule="evenodd" clip-rule="evenodd" fill="#f04c47" class="fill" d="M150.493,131.122c-0.365-0.864-0.564-1.332-0.797-1.88
	c-0.934-0.335-1.898-0.681-3.125-1.121c1.068-0.429,1.898-0.761,2.814-1.127c-0.127-0.698-0.245-1.341-0.4-2.183
	c1.125,0.538,2.136,1.021,3.303,1.578c0.047,0.395,0.111,0.951,0.186,1.59C151.159,128.429,151.085,129.735,150.493,131.122z"/>
<path fill-rule="evenodd" clip-rule="evenodd" fill="#f04c47" class="fill" d="M114.634,151.98c-0.59,0.406-1.182,0.812-1.773,1.219
	c-0.5,1.55,0.375,2.905,0.301,4.403c-1.66-0.627-1.744-2.55-3.131-3.307c1.185-1.385,2.57-2.285,4.231-2.748
	C114.386,151.693,114.511,151.836,114.634,151.98z"/>
<path fill-rule="evenodd" clip-rule="evenodd" fill="#f04c47" class="fill" d="M152.319,130.06c0.432,2.179,0.239,2.924-0.77,3.314
	C151.449,132.156,151.78,131.089,152.319,130.06z"/>
<path fill-rule="evenodd" clip-rule="evenodd" fill="#f04c47" class="fill" d="M121.146,159.344c0.542,0.609,0.914,1.025,1.496,1.679
	c-0.979,0-1.682,0-2.582,0C120.43,160.45,120.727,159.991,121.146,159.344z"/>
<path fill-rule="evenodd" clip-rule="evenodd" fill="#f04c47" class="fill" d="M121.251,132.417c-0.301,0.188-0.497,0.312-0.934,0.585
	c-0.051-0.597-0.082-1.004-0.117-1.411c0.11-0.031,0.217-0.062,0.326-0.093C120.748,131.782,120.974,132.064,121.251,132.417z"/>
<path fill-rule="evenodd" clip-rule="evenodd" fill="#f04c47" class="fill" d="M119.959,128.588c-0.379-0.863,0.038-1.063,0.792-1.181
	C120.765,128.071,120.558,128.425,119.959,128.588z"/>
<path fill-rule="evenodd" clip-rule="evenodd" fill="#f04c47" class="fill" d="M100.637,57.919c-1.382-0.798-1.919-2.024-2.092-3.412
	c-0.189-1.542,0.19-3.022,1.492-3.895c1.231-0.826,2.634-1.586,4.06-1.883c1.803-0.375,3.691-0.751,5.588-0.112
	c0.195-0.306,0.355-0.561,0.521-0.823c-1.01-1.951-0.509-3.897,0.08-5.767c0.82-2.609,2.461-4.666,4.715-6.246
	c2.133-1.498,4.518-1.694,6.868-0.994c1.554,0.463,2.938,1.509,4.386,2.32c0.395,0.223,0.741,0.537,1.297,0.95
	c0.244-0.546,0.496-0.925,0.59-1.339c0.66-2.94,2.839-3.658,5.355-2.912c2.518,0.746,4.705,1.976,6.168,4.265
	c0.332,0.521,0.768,0.977,1.266,1.603c3.404-1.819,6.863-2.188,9.899,0.612c2.735,2.525,4.849,5.427,3.042,9.723
	c1.342,0,2.534,0,3.711,0c1.857,2.487,1.122,4.615-0.43,6.683c0.605,0.808,1.477,0.822,2.262,0.951
	c2.572,0.423,3.57,1.717,3.48,4.273c-0.061,1.761-0.673,3.122-2.128,4.109c-0.382,0.259-0.747,0.548-1.21,0.889
	c0.135,0.378,0.262,0.743,0.277,0.781c1.344,0.49,2.424,0.799,3.422,1.283c0.475,0.231,0.943,0.732,1.149,1.222
	c0.774,1.832,1.339,3.718,1.03,5.765c-0.174,1.16-0.754,1.994-1.654,2.717c-1.451,1.167-2.834,2.415-4.373,3.737
	c0.359,0.5,0.683,0.95,1.074,1.496c0.172,1.729-0.504,3.184-1.943,4.255c-1.366,1.018-2.799,1.948-4.396,3.051
	c0.118,0.431,0.263,1.081,0.472,1.708c1.182,3.543,0.48,5.919-2.668,7.958c-2.849,1.846-5.994,3.038-9.463,2.596
	c-2.906-0.37-5.41-1.552-6.644-4.563c-0.999,0.248-1.429,1.082-2.029,1.686c-1.819,1.829-4.013,2.366-6.46,1.767
	c-2.254-0.551-3.309-1.9-3.547-4.212c-0.083-0.81-0.221-1.614-0.361-2.623c-0.535,0.21-0.908,0.257-1.136,0.466
	c-0.61,0.564-1.144,1.208-1.729,1.8c-1.457,1.469-3.086,1.284-4.146-0.479c-1.062-1.772-1.278-3.719-1.146-5.739
	c0.045-0.668,0.008-1.342,0.008-2.283c-0.623,0.289-1.114,0.509-1.598,0.742c-1.658,0.802-3.304,1.4-5.246,1.008
	c-3.283-0.663-4.621-3.19-4.275-6.234c0.135-1.17,0.571-2.305,0.947-3.755c-0.795,0.18-1.373,0.302-1.947,0.44
	c-2.615,0.63-4.083-0.75-3.555-3.405c0.229-1.161,0.584-2.297,0.936-3.648c-2.035-0.213-3.761,1.395-5.626,0.398
	c-1.095-1.919-0.653-3.301,1.446-4.425c0.449-0.243,0.912-0.47,1.35-0.738c0.112-0.07,0.146-0.268,0.136-0.246
	c-1.073-0.954-2.198-1.785-3.108-2.806c-1.31-1.47-1.734-4.063,0.557-5.772c1.045-0.781,2.001-1.64,3.444-1.649
	C99.485,59.206,100.116,58.757,100.637,57.919z M137.243,45.825c-0.184-0.219-0.299-0.327-0.382-0.456
	c-2.149-3.439-6.124-4.941-10.009-3.785c-0.346,0.103-0.715,0.135-1.059,0.251c-0.729,0.247-1.521,0.409-2.154,0.814
	c-2.105,1.351-3.49,3.259-4.039,5.731c-0.292,1.317-0.591,2.634-0.955,4.253c-0.859,0.791-1.951,1.755-2.99,2.775
	c-0.469,0.462-0.918,0.99-1.224,1.569c-1.309,2.478-1.923,5.148-2.247,7.925c-0.248,2.107-0.554,4.218-1.964,6.001
	c-1.261,1.591-2.352,3.315-3.528,4.971c-0.471,0.665-0.869,1.32-0.242,2.233c0.609-0.059,1.263-0.121,1.96-0.188
	c0.146,1.352,0.29,2.677,0.431,3.978c1.657,0.466,1.899-1.086,2.729-1.681c0.757,0.377,1.234,1.306,2.502,0.816
	c0.284-0.57,0.661-1.333,1.035-2.087c0.828,0.061,1.598,0.118,2.387,0.175c0.28-0.39,0.518-0.718,0.771-1.073
	c-0.172-0.885-0.339-1.743-0.506-2.604c0.764-0.282,1.48-0.545,2.202-0.81c0.153-0.528,0.282-0.967,0.463-1.584
	c-0.96-0.779-1.909-1.554-2.95-2.401c0.227-2.052,0.753-4.071,1.613-6.021c0.994,0.475,1.065,0.636,1.262,1.963
	c0.213,1.439,0.502,2.868,0.704,4.31c0.113,0.816,0.204,1.651,0.163,2.47c-0.178,3.528,0.03,6.973,1.858,10.128
	c0.052,0.09,0.085,0.19,0.126,0.286c0.554,1.281,1.385,2.317,2.627,2.997c1.971,1.078,3.951,2.117,6.258,2.32
	c0.979,0.086,1.945,0.309,2.896,0.466c1.945,3.92,8.428,8.013,11.992,8.781c0.275-0.218,0.627-0.502,0.786-0.628
	c0-1.319-0.055-2.263,0.009-3.196c0.213-3.134,1.24-5.996,2.871-8.681c1.598-2.629,3.096-5.32,4.043-8.27
	c0.352-1.089,0.678-2.192,0.324-3.353c-0.832-0.276-1.242,0.225-1.751,0.717c-0.89,0.859-1.777,1.805-2.846,2.374
	c-3.329,1.767-6.798,3.237-10.608,3.572c-1.806,0.16-3.492-0.262-4.78-1.818c0.169-0.598,0.312-1.147,0.483-1.687
	c0.391-1.243,0.825-2.474,1.191-3.724c0.776-2.64,0.568-3.26-1.566-4.987c-1.516-1.226-1.846-3.458-0.771-5.229
	c2.631,0.813,5.93,3.079,7.099,4.917c-0.513,1.269-1.044,2.585-1.577,3.9c0.097,0.091,0.194,0.181,0.29,0.271
	c0.851-0.381,1.7-0.761,2.644-1.186c0.087,0.872,0.158,1.581,0.233,2.36c0.413-0.029,0.708-0.049,0.958-0.066
	c0.324-0.46,0.6-0.853,0.908-1.292c0.436,0.721,0.797,1.316,1.242,2.05c1.348-1.196,0.686-2.938,1.514-4.061
	c0.947,0.124,1.656,1.156,2.661,0.485c0.487-1.168-0.952-1.53-1.007-2.479c0.763-0.456,1.926-0.444,1.984-1.801
	c-1.047-0.568-2.197-0.552-3.537-0.633c-2.428-2.153-4.971-4.408-7.812-6.926c1.15-0.239,1.887-0.393,2.625-0.547
	c0.566-0.606,1.193-1.119,1.883-1.523c2.347-1.377,4.229-3.077,4.441-6.018c0.012-0.148-0.039-0.303-0.063-0.489
	c-0.173-0.103-0.338-0.237-0.528-0.302c-0.184-0.062-0.389-0.052-0.541-0.069c-1.707,2.063-4.175,3.067-5.779,2.342
	c1.09-1.614,2.381-3.155,2.194-5.326c-1.443-0.472-2.159,1.479-3.546,0.839c0.383-0.828,0.915-1.623,1.111-2.494
	c0.189-0.847,0.742-1.729,0.184-2.88c-0.455,0.306-0.966,0.467-1.146,0.805C140.032,44.737,138.696,45.259,137.243,45.825z"/>
<path fill-rule="evenodd" clip-rule="evenodd" fill="#f04c47" class="fill" d="M99.206,84.071c-0.021,1.714-1.079,2.845-2.652,2.84
	c-1.594-0.006-2.857-1.109-2.859-2.493c0-1.437,1.685-2.882,3.37-2.892C98.337,81.52,99.226,82.577,99.206,84.071z"/>
<path fill-rule="evenodd" clip-rule="evenodd" fill="#f04c47" class="fill" d="M89.556,89.997c1.021,0.325,2.007,0.639,2.965,0.944
	c0.373,1.45-0.257,2.717-1.518,3.138c-0.996,0.333-2.21-0.126-2.707-1.022C87.726,92.024,88.144,90.911,89.556,89.997z"/>
<path fill-rule="evenodd" clip-rule="evenodd" fill="#f04c47" class="fill" d="M88.552,99.257c-0.139,0.73-0.221,1.166-0.318,1.686
	c-0.518,0-0.947,0-1.586,0c-0.078-0.537-0.154-1.065-0.244-1.686C87.22,99.257,87.79,99.257,88.552,99.257z"/>
<path fill-rule="evenodd" clip-rule="evenodd" fill="#f04c47" class="fill" d="M134.138,139.861c0.455,1.551,1.879,2.529,2.582,4.163
	c-1.977-0.543-2.836-2.529-4.846-2.928c-0.479,0.964-0.951,1.91-1.424,2.856c-0.105-0.004-0.211-0.008-0.316-0.012
	c-0.076-0.881-0.15-1.762-0.227-2.643c0.09-0.073,0.176-0.146,0.266-0.22c-0.881-0.705-1.76-1.411-2.64-2.116
	c0.024-0.109,0.05-0.218,0.071-0.328c2.328-0.138,3.191-2.1,4.796-3.397c-0.136,0.819-0.271,1.636-0.407,2.475
	c0.912,0.566,1.621-0.085,2.384-0.258c0.75-0.169,1.506-0.312,2.446-0.504C136.355,138.496,134.79,138.727,134.138,139.861z"/>
<path fill-rule="evenodd" clip-rule="evenodd" fill="#f04c47" class="fill" d="M134.069,121.389c1.234-0.11,2.223-0.197,3.213-0.286
	c0.082,0.124,0.163,0.249,0.245,0.374c-0.722,0.479-1.444,0.959-2.012,1.337c0.354,1.539,0.614,2.682,0.876,3.825
	c-0.117,0.064-0.235,0.128-0.354,0.192c-0.894-1.151-1.789-2.303-2.74-3.528c-0.969,0.511-1.916,1.01-2.865,1.509
	c-0.075-0.054-0.152-0.108-0.23-0.163c0.334-0.709,0.668-1.419,1.029-2.188c-0.37-0.566-0.762-1.16-1.195-1.825
	c0.857-0.267,1.67-0.406,2.367-0.768c0.723-0.374,1.334-0.963,2.271-1.666C134.448,119.391,134.281,120.277,134.069,121.389z"/>
<path fill-rule="evenodd" clip-rule="evenodd" fill="#f04c47" class="fill" d="M110.36,126.988c0.256,0.891,0.422,1.47,0.681,2.375
	c-0.876-0.687-1.493-1.17-2.097-1.644c-1.027,0.507-1.949,0.961-3.109,1.533c0.195-0.736,0.334-1.248,0.491-1.846
	c-0.726-0.476-1.479-0.966-2.43-1.589c0.992-0.368,1.747-0.648,2.302-0.854c0.488-1.206,0.906-2.23,1.325-3.264
	c1.476,0.643,1.436,2.185,2.472,3.149c0.771,0.038,1.672,0.082,2.941,0.145C111.892,125.801,111.122,126.397,110.36,126.988z"/>
<path fill-rule="evenodd" clip-rule="evenodd" fill="#f04c47" class="fill" d="M139.841,84.082c0.231,1.165-0.441,1.781-1.146,2.318
	c-0.936,0.712-2.025,1.076-3.213,1.036c-3.014-0.106-5.828-0.715-8.371-2.552c-2.381-1.719-3.697-3.974-3.953-6.783
	c-0.164-1.787-0.557-3.626,0.039-5.426c0.096-0.295,0.217-0.583,0.336-0.902c2.292-1.459,4.906-1.59,7.494-1.766
	c0.811-0.056,1.671,0.028,2.449,0.253c1.054,0.306,1.51,1.114,1.249,2.181c-0.343,1.4-0.827,2.767-1.331,4.41
	c-0.723-0.391-1.213-0.657-1.703-0.921c-0.562,0.956-0.496,1.127,0.859,2.042c0,0.229-0.018,0.488,0.002,0.742
	c0.221,2.673,0.786,3.335,3.46,3.708C137.445,82.622,138.753,82.993,139.841,84.082z M135.025,86.163
	c1.175-0.329,1.58-0.97,1.487-1.838c-0.058-0.521-0.349-1.019-1.164-0.676c0,0.412,0,0.853,0,1.2
	c-0.602,0.514-1.47-0.292-1.965,0.804C134.009,85.847,134.567,86.02,135.025,86.163z M127.431,75.046
	c-0.095-0.025-0.19-0.053-0.286-0.079c-0.267,0.337-0.532,0.674-0.921,1.166c-0.491-0.494-0.889-0.895-1.431-1.44
	c-0.515,1.018-0.091,1.562,0.692,2.189c0.531-0.108,1.157-0.235,1.877-0.38C127.391,75.919,127.41,75.483,127.431,75.046z
	 M131.353,84.604c0.469-0.667,0.771-1.098,1.076-1.528c-0.072-0.062-0.145-0.125-0.217-0.188c-0.328,0.101-0.66,0.201-0.785,0.239
	c-0.75,0.063-1.234-0.806-1.99,0.074C130.022,83.631,130.562,84.025,131.353,84.604z M129.279,79.439
	c-0.504-0.41-0.947-0.774-1.546-1.263c-0.29,1.229,0.375,1.648,0.922,2.094c1.391-0.047,1.391-0.047,1.655-1.376
	C129.935,79.094,129.603,79.269,129.279,79.439z M130.064,74.839c0.813-0.216,1.204-0.729,1.096-1.587
	c-0.009-0.075-0.146-0.135-0.301-0.269c-0.235,0.218-0.478,0.442-0.712,0.66c-0.344-0.149-0.68-0.295-1.113-0.484
	C128.922,74.135,129.322,74.573,130.064,74.839z"/>
<path fill-rule="evenodd" clip-rule="evenodd" fill="#f04c47" class="fill" d="M130.476,53.784c0.162,1.669,0.719,3.04,2.525,3.953
	c-2.412,0.993-4.449,1.832-6.58,2.708c-0.084,0.503-0.18,1.055-0.274,1.587c1.073,2.439,3.23,2.35,5.331,2.37
	c0.128,1.396,0.25,2.742,0.387,4.244c-2.748,0.358-5.773,0.395-8.583,1.87c-1.032-1.893-1.579-3.762-0.974-5.976
	c1.99-1.261,3.689-2.819,3.057-5.645c1.061-0.535,1.934,0.331,3.015,0.252c0.207-0.217,0.483-0.506,0.755-0.79
	C128.428,56.45,129.759,55.241,130.476,53.784z M127.485,67.328c-0.987-0.869-1.209-0.839-2.084,0.3
	C126.2,68.161,126.888,68.148,127.485,67.328z"/>
<path fill-rule="evenodd" clip-rule="evenodd" fill="#f04c47" class="fill" d="M110.76,74.714c-0.491,0.21-0.983,0.42-1.474,0.629
	c-0.049-0.061-0.098-0.121-0.146-0.182c0.578-0.758,1.206-1.486,1.73-2.28c2.287-3.456,3.625-7.222,3.771-11.402
	c0.078-2.216,0.934-4.145,2.615-5.653c0.113-0.101,0.262-0.156,0.736-0.431c-0.443,1.223-0.779,2.15-1.229,3.382
	c0.092,0.058,0.344,0.216,0.508,0.318c-0.067,1.275-0.133,2.538-0.199,3.799c0.062,0.002,0.123,0.004,0.186,0.006
	c-0.732,3.027-1.466,6.054-2.201,9.097c0.562,0.364,0.979,0.635,1.433,0.929c-0.622,0.287-1.171,0.539-1.673,0.77
	c-0.35,1.278,0.936,1.733,1.177,2.702c-1.202,0.152-1.173-1.67-2.569-1.317c-0.064,0.909-0.135,1.858-0.204,2.809
	c-0.073,0.016-0.146,0.032-0.22,0.048c-0.189-0.755-0.379-1.51-0.559-2.22c-1.123-0.355-1.045,0.847-1.793,1.188
	c0.187-0.757,0.346-1.4,0.502-2.044C111.022,74.814,110.891,74.764,110.76,74.714z"/>
<path fill-rule="evenodd" clip-rule="evenodd" fill="#f04c47" class="fill" d="M124.378,47.987c0.785,0.125,1.305,0.471,2.164,0.071
	c-0.057-0.572-0.057-0.515-0.373-0.801c-0.773-0.092-0.902-0.208-1.865-0.322c1.143-1.122,1.852-2.37,3.316-2.824
	c0.67,0.386,1.291,0.745,1.912,1.104c-0.023,0.024-0.049,0.048-0.074,0.072c0.545,0.469,1.09,0.938,1.851,1.592
	c0.056,0.278,0.177,0.882,0.28,1.396c0.634,0.52,1.176,0.965,1.738,1.427c-0.859,1.659-2.248,0.641-3.447,0.981
	c-0.352,0.403-0.736,0.966-1.238,1.394c-0.508,0.434-1.097,0.806-1.707,1.083c-1.611,0.73-3.143-0.31-3.025-2.073
	C123.978,50.062,124.213,49.045,124.378,47.987z M126.44,50.626c-0.619-0.147-0.844-1.089-1.59-0.382
	c0.281,0.66,0.469,1.423,1.379,1.409c0.758-0.012,1.36-0.36,1.594-1.342C127.278,50.435,126.854,50.532,126.44,50.626z
	 M129.925,48.402c-1.049-0.981-1.811-1.117-2.038-0.03C128.448,48.822,129.259,49.295,129.925,48.402z M132.208,49.832
	c-0.037-0.136-0.074-0.271-0.113-0.406c-0.473-0.121-0.884-0.104-1.158,0.812C131.504,50.056,131.856,49.944,132.208,49.832z
	 M126.856,49.558c-0.018-0.088-0.037-0.177-0.057-0.266c-0.223,0.039-0.446,0.077-0.67,0.115c0.02,0.105,0.043,0.21,0.064,0.315
	C126.415,49.667,126.636,49.613,126.856,49.558z"/>
<path fill-rule="evenodd" clip-rule="evenodd" fill="#f04c47" class="fill" d="M134.56,60.348c0.898-0.257,1.796-0.513,2.587-0.738
	c1.206-0.021,1.946,0.623,2.667,1.329c1.713,1.677,3.418,3.368,5.18,4.993c0.592,0.546,1.354,0.913,2.265,1.511
	c-0.151,0.313-0.39,0.8-0.628,1.286c-0.07-0.028-0.141-0.056-0.213-0.084c-0.037,0.565-0.074,1.131-0.129,1.949
	c-0.785-0.988-1.396-1.913-2.658-2.077c0.047-0.368,0.098-0.762,0.15-1.171c-2.691-2.779-6.148-4.53-9.328-6.653
	C134.487,60.578,134.523,60.462,134.56,60.348z"/>
<path fill-rule="evenodd" clip-rule="evenodd" fill="#f04c47" class="fill" d="M130.329,43.872c0.936-0.325,1.582-0.551,2.131-0.742
	c2.314,0.763,3.609,2.271,3.561,4.542c-0.045,2.179,0.691,3.851,2.312,5.217c0.195,0.165,0.336,0.395,0.51,0.603
	c2.414,0.803,4.795,0.767,7.379-0.397c-0.211,0.457-0.266,0.841-0.482,1c-1.471,1.069-3.017,1.869-4.93,1.172
	c-0.534-0.195-1.115-0.259-1.678-0.376c-2.518-0.53-3.519-2.382-4.031-4.645c-0.103-0.455-0.146-0.93-0.162-1.397
	c-0.088-2.613-1.309-4.073-3.904-4.651C130.904,44.168,130.786,44.085,130.329,43.872z"/>
<path fill-rule="evenodd" clip-rule="evenodd" fill="#f04c47" class="fill" d="M145.087,93.443c0.15,0.867,0.271,1.571,0.396,2.304
	c-3.098-0.486-6.951-3.866-8.191-7.178c0.266-0.156,0.551-0.321,0.928-0.541C139.892,90.671,142.604,91.878,145.087,93.443z"/>
<path fill-rule="evenodd" clip-rule="evenodd" fill="#f04c47" class="fill" d="M145.126,92.264c-1.697-1.169-3.125-2.091-4.475-3.116
	c-0.474-0.359-0.794-0.952-1.094-1.489c-0.1-0.182,0.08-0.522,0.16-0.924c1.068,0.604,1.963,1.193,2.928,1.63
	c0.977,0.442,2.023,0.731,3.083,1.104C145.538,90.351,145.379,91.088,145.126,92.264z"/>
<path fill-rule="evenodd" clip-rule="evenodd" fill="#f04c47" class="fill" d="M141.222,84.188c2.857-0.573,5.711-1.146,8.881-1.783
	c-0.652,0.964-1.157,1.712-1.641,2.425C145.954,84.835,143.539,85.248,141.222,84.188z"/>
<path fill-rule="evenodd" clip-rule="evenodd" fill="#f04c47" class="fill" d="M139.142,57.575c-2.459,0.206-3.927-1.08-4.582-2.461
	c-0.646-1.367-1.107-2.779-0.35-4.36c0.77,1.339,1.635,2.46,2.084,3.73C136.8,55.911,138.067,56.539,139.142,57.575z"/>
<path fill-rule="evenodd" clip-rule="evenodd" fill="#f04c47" class="fill" d="M152.952,77.345c-0.365,1.49-0.811,2.634-2.179,3.146
	c-1.624,0.609-3.251,1.207-4.938,1.605C148.14,80.558,150.444,79.02,152.952,77.345z"/>
<path fill-rule="evenodd" clip-rule="evenodd" fill="#f04c47" class="fill" d="M147.292,86.275c-0.4,0.729-0.707,1.28-1.055,1.914
	c-1.695-0.574-3.455-0.6-4.879-2.208C143.438,86.084,145.237,86.173,147.292,86.275z"/>
<path fill-rule="evenodd" clip-rule="evenodd" fill="#f04c47" class="fill" d="M122.705,55.871c-1.515-1.693-1.099-6.811,0.628-9
	c-0.24,1.792-0.507,3.244-0.607,4.707C122.629,53.001,122.705,54.439,122.705,55.871z"/>
<path fill-rule="evenodd" clip-rule="evenodd" fill="#f04c47" class="fill" d="M121.185,48.991c0.119-2.85,1.826-5.293,4.203-5.69
	c0.27,0.68-0.128,1.174-0.615,1.413c-1.716,0.839-2.766,2.161-3.232,3.988C121.511,48.812,121.325,48.881,121.185,48.991z"/>
<path fill-rule="evenodd" clip-rule="evenodd" fill="#f04c47" class="fill" d="M141.466,49.702c-0.718,0.544-1.437,1.088-2.045,1.55
	c-1.378-0.462-1.378-0.462-1.748-1.603c1.225-0.14,2.427-0.277,3.631-0.414C141.356,49.391,141.412,49.546,141.466,49.702z"/>
<path fill-rule="evenodd" clip-rule="evenodd" fill="#f04c47" class="fill" d="M132.481,47.605c-0.174-0.824-0.32-1.521-0.467-2.219
	c1.742,0.799,2.096,1.292,2.021,2.824c-0.092,0.025-0.204,0.099-0.268,0.068C133.347,48.074,132.938,47.847,132.481,47.605z"/>
<path fill-rule="evenodd" clip-rule="evenodd" fill="#f04c47" class="fill" d="M127.067,42.746c1.355-0.702,2.518-0.675,4.098-0.195
	c-0.84,0.398-1.369,0.65-1.866,0.886C128.597,43.219,127.966,43.024,127.067,42.746z"/>
<path fill-rule="evenodd" clip-rule="evenodd" fill="#f04c47" class="fill" d="M139.423,46.024c-0.208,1.139-0.863,1.672-1.867,2.043
	c-0.103-0.374-0.188-0.679-0.314-1.138C138.011,46.61,138.718,46.317,139.423,46.024z"/>
<path fill-rule="evenodd" clip-rule="evenodd" fill="#f04c47" class="fill" d="M123.916,53.796c0.315,0.446,0.632,0.892,1.026,1.451
	c-0.601,0.28-0.99,0.462-1.441,0.672c-0.416-0.732,0.006-1.326,0.031-1.939C123.661,53.919,123.786,53.858,123.916,53.796z"/>
<path fill-rule="evenodd" clip-rule="evenodd" fill="#f04c47" class="fill" d="M125.483,54.707c1.092,0.479,0.805,1.506,1.608,2.241
	C125.618,56.563,125.618,56.563,125.483,54.707z"/>
<path fill-rule="evenodd" clip-rule="evenodd" fill="#f04c47" class="fill" d="M133.208,51.67c0,0.896,0,1.544,0,2.19
	C132.761,53.209,132.348,52.557,133.208,51.67z"/>
<path fill-rule="evenodd" clip-rule="evenodd" fill="#f04c47" class="fill" d="M120.284,54.589c0.142-0.5,0.281-1.001,0.423-1.502
	c0.096,0.013,0.193,0.025,0.289,0.039c-0.054,0.521-0.106,1.042-0.159,1.562C120.652,54.656,120.468,54.623,120.284,54.589z"/>
</svg>
