<svg version="1.1" id="svg" xmlns="http://www.w3.org/2000/svg" xmlns:xlink="http://www.w3.org/1999/xlink" x="0px" y="0px"
	 width="200px" height="200px" viewBox="0 0 200 200" enable-background="new 0 0 200 200" xml:space="preserve">
<path class="stroke" fill="#51050f"  fill-rule="evenodd" clip-rule="evenodd" d="M103.389,148.736c-13.805,6.328-30.906,3.304-43.112-4.986
	c0.39-2.756,0.796-5.63,1.223-8.648c-0.78-0.325-1.409-0.633-2.069-0.854c-3.55-1.19-6.842-2.934-9.992-4.903
	c-3.174-1.983-5.781-4.679-8.279-7.432c-2.27-2.504-4.582-4.969-6.453-7.836c-3.148-4.825-6.055-9.765-7.471-15.384
	c-1.236-4.905-1.752-9.884,0.041-14.817c0.134-0.367,0.203-0.774,0.405-1.098c2.767-4.416,5.446-8.879,8.868-12.859
	c5.654-6.579,12.35-11.986,19.159-17.257c2.202-1.706,4.714-3.045,7.188-4.357c6.456-3.426,13.087-6.493,19.946-9.025
	c2.979-1.1,5.995-2.271,9.541-1.648c3.85,7.6,3.313,15.599,1.812,23.807c1.371,0.974,2.889,1.978,4.327,3.085
	c3.726,2.87,5.915,6.704,6.893,11.264c0.165,0.765,0.353,1.536,0.408,2.312c0.327,4.531,2.822,7.732,6.272,10.364
	c0.662,0.505,1.328,1.002,2.137,1.613c1.508-2.32,2.877-4.518,4.34-6.651c1.436-2.095,2.922-4.159,4.47-6.172
	c1.55-2.013,2.604-4.505,4.94-5.699c4.835,2.274,9.427,4.433,14.211,6.683c1.756-1.839,3.717-3.661,6.65-3.619
	c2.318,1.314,2.875,3.269,2.078,7.514c0.346,0.259,0.74,0.556,1.136,0.854c2.481-1.576,4.509-3.844,7.976-2.165
	c3.398,1.646,3.296,4.489,3.334,7.399c1.597,1.069,2.372-0.861,3.922-0.78c1.207,0.353,2.674,0.731,3.756,2.063
	c1.117,1.376,1.588,2.801,1.132,4.527c-0.278,1.055-0.513,2.121-0.759,3.145c0.203,0.126,0.305,0.234,0.42,0.253
	c1.289,0.214,2.666,0.296,3.357,1.651c0.875,1.715,0.969,3.507,0.223,5.295c-0.674,1.618-1.795,2.93-3.318,3.745
	c-2.268,1.211-3.422,3.092-4.385,5.43c-1.281,3.118-3.057,6.039-4.697,9.001c-0.755,1.363-1.752,2.59-2.544,3.938
	c-2.214,3.772-5.782,6.347-8.479,9.688c-0.857,1.062-1.676,2.156-2.514,3.235c-4.33,5.579-9.156,10.683-14.366,15.46
	c-3.381,3.099-6.972,5.867-10.757,8.434c-1.324,0.898-2.406,2.151-3.757,3.388c-0.468,0.088-1.165,0.239-1.87,0.349
	c-1.419,0.221-2.592-0.28-3.436-1.402c-0.727-0.966-0.654-2.831,0.288-3.84c0.919-0.984,2.032-1.812,3.14-2.594
	c2.981-2.104,6.008-4.146,9.016-6.212c0.217-0.149,0.438-0.289,0.643-0.424c-2.015-1.602-4.071-2.888-5.664-4.604
	c-1.56-1.683-2.648-3.805-3.968-5.773c-2.073,0.482-4.304,0.904-6.475,1.536c-2.065,0.602-4.082,0.801-6.156,0.16
	c-0.294-0.091-0.62-0.079-1.019-0.124C104.51,145.478,103.943,147.124,103.389,148.736z M140.854,79.965
	c-4.514-1.818-8.844-3.562-13.373-5.387c-0.391,0.381-0.928,0.762-1.277,1.271c-1.256,1.819-2.443,3.683-3.664,5.526
	c-2.879,4.353-5.655,8.762-7.656,13.606c-0.158,0.382-0.229,0.801-0.396,1.405c4.756-0.188,9.305-0.469,13.854-0.52
	c4.592-0.05,9.185,0.127,13.905,0.208c0.353-1.617,0.675-3.08,1.027-4.698c-0.557,0.07-0.808,0.109-1.06,0.133
	c-2.791,0.259-3.941-0.693-3.917-3.465c0.011-1.216,0.203-2.479,0.583-3.63C139.361,82.954,140.119,81.584,140.854,79.965z
	 M130.814,109.746c-0.104,2.877-0.512,5.285-1.531,7.58c-0.297,0.673-0.242,1.528-0.248,2.3c-0.009,1.104,0.125,2.208,0.113,3.312
	c-0.037,3.713-2.809,8.231-6.848,9.326c-3.139,0.85-6.303,1.605-9.475,2.314c-1.641,0.367-3.324,0.535-4.986,0.805
	c-0.311,0.051-0.61,0.154-1.01,0.258c-0.443,1.693-0.867,3.345-0.987,5.243c1.796,0,3.353,0.07,4.902-0.015
	c2.704-0.147,5.251-0.819,7.554-2.355c5.303-3.535,10.115-7.6,13.963-12.715c0.654-0.869,1.264-1.859,1.562-2.889
	c0.461-1.604,0.637-3.29,0.84-4.41c-0.535-1.606-1.041-2.684-1.227-3.813c-0.182-1.122-0.039-2.296-0.039-3.598
	C132.719,110.735,131.925,110.323,130.814,109.746z"/>
<path fill-rule="evenodd" clip-rule="evenodd" fill="#f04c47" class="fill" d="M72.108,121.487c-0.393,0.639-0.655,1.064-1.056,1.716
	c0.545,1.026,0.996,2.186,1.709,3.153c1.002,1.361,2.105,2.674,3.324,3.842c5.023,4.817,10.768,8.435,17.559,10.23
	c2.824,0.747,5.654,1.466,8.648,2.242c-0.424,1.479-0.846,2.954-1.311,4.579c-3.906,0.698-7.746,1.37-11.581,2.072
	c-6.192,1.136-12.058,0.116-17.68-2.61c-1.819-0.882-3.683-1.671-5.478-2.601c-1.008-0.523-1.914-1.245-2.734-1.791
	c0.304-2.467,0.632-4.592,0.814-6.73c0.303-3.565,0.586-7.136,0.734-10.71c0.102-2.465-0.025-4.939-0.078-7.409
	c-0.008-0.37-0.168-0.738-0.289-1.228c-0.495,0-0.953-0.076-1.377,0.014c-1.891,0.398-3.602-0.182-5.326-0.839
	c-1.045-0.399-1.787-1.073-2.254-2.05c-0.896-1.881-0.903-3.842-0.707-5.727c1.428-0.753,2.531-0.497,3.625,0.044
	c1.744,0.864,3.488,1.725,5.402,2.67c1.863-2.117,4.458-3.544,5.469-6.308c-1.423-2.693-3.595-4.369-5.953-5.771
	c-5.152-3.062-7.43-7.821-8.256-13.497c-0.016-0.119,0.037-0.251,0.072-0.374c0.016-0.058,0.068-0.105,0.244-0.366
	c3.756,2.154,6.855,4.78,7.738,9.506c0.539,0.222,1.18,0.485,2.016,0.829c3.309-6.397,3.273-13.268,3.436-20.14
	c2.4,3.583,3.605,7.571,4.35,11.554c1.301,0.233,1.646-0.493,1.918-1.115c1.828-4.174,3.785-8.305,4.328-12.917
	c0.228-1.937,0.535-3.865,0.867-5.787c0.127-0.725,0.428-1.419,0.773-2.529c2.133,4.45,1.434,8.787,1.596,13.503
	c0.969-0.634,1.641-0.883,2.029-1.362c1.645-2.021,3.221-4.097,4.787-6.178c1.014-1.346,1.969-2.736,3.016-4.201
	c3.521,1.162,6.324,3.007,7.744,6.455c0.566,1.375,0.92,2.851,1.256,4.307c0.584,2.538,1.014,5.113,1.633,7.643
	c0.66,2.699,2.445,4.721,4.363,6.613c0.871,0.861,1.834,1.63,2.945,2.607c-2.934,1.516-5.725,2.957-8.608,4.446
	c0.293,0.545,0.495,0.923,0.823,1.531c2.601-0.912,5.145-1.805,8.059-2.827c-0.512,1.584-0.914,2.829-1.264,3.918
	c0.376,1.676,1.739,1.56,2.78,1.993c1.01,0.419,1.952,0.998,3.099,1.597c-0.781,0.913-1.473,1.721-2.162,2.526
	c1.426,1.2,2.594,0.854,5.008-1.473c2.986,1.099,6.087,2.241,9.195,3.385c0.359,2.029,0.624,3.87-0.045,5.728
	c-0.889,2.47-1.492,4.983-1.309,7.651c0.15,2.191-0.797,4.073-2.002,5.805c-0.898,1.29-2.299,2.004-3.764,2.308
	c-4.018,0.83-8.041,1.717-12.107,2.179c-3.814,0.434-7.684,0.422-11.531,0.477c-3.227,0.045-6.363-0.647-9.34-1.862
	c-2.773-1.132-5.559-2.294-8.17-3.748c-2.083-1.16-3.909-2.781-5.851-4.195C72.934,122.047,72.619,121.84,72.108,121.487z
	 M82.395,84.894c-0.93-0.484-1.697-0.885-2.521-1.314c-0.286,0.465-0.516,0.712-0.604,1.002c-1.177,3.896-4.637,6.495-8.662,6.567
	c-0.936,0.017-1.867,0.264-2.773,0.401c-0.214,1.29,0.562,1.436,1.27,1.457c1.824,0.056,3.676,0.208,5.468-0.032
	c1.513-0.203,3.083-0.682,4.405-1.432C81.369,90.185,81.65,87.564,82.395,84.894z M87.51,77.137c3.066,1.057,8.369-0.16,10.4-2.333
	c1.105-1.184,1.039-2.414-0.199-3.627c-0.119,0.041-0.268,0.051-0.357,0.127c-0.346,0.293-0.686,0.594-1.002,0.917
	c-2.002,2.045-4.224,3.606-7.254,3.667C88.469,75.902,87.609,75.984,87.51,77.137z M100.914,85.378
	c-0.176-0.122-0.41-0.418-0.592-0.389c-2.924,0.483-5.84,1.006-8.924,1.55c0,0.216,0,0.619,0,1.056
	c2.639,0.56,5.072-0.27,7.812-0.864c0,1.208,0.059,2.173-0.017,3.126c-0.077,0.977-0.284,1.943-0.452,3.018
	C100.893,92.075,101.296,90.562,100.914,85.378z M115.989,115.876c0.754,0.313,1.456,0.604,2.233,0.927
	c0.383-0.745,0.64-1.244,0.926-1.801c-0.437-0.38-0.797-0.693-1.114-0.968c0.226-0.618,0.415-1.143,0.614-1.685
	C117.056,112.023,116.795,112.36,115.989,115.876z"/>
<path fill-rule="evenodd" clip-rule="evenodd" fill="#f04c47" class="fill" d="M39.88,97.005c-0.667,2.864-0.048,5.313,0.668,7.763
	c0.706,2.423,1.361,4.862,2.074,7.423c-1.05,0.083-1.728-0.635-2.419-1.242c-3.068-2.692-5.105-6.057-6.312-9.931
	c-1.213-3.892-1.838-7.864-1.416-11.952c0.072-0.703,0.221-1.398,0.367-2.302c1.492,0.956,2.467,2.117,3.328,3.387
	c1.008,1.484,2.528,2.284,4.27,3.431c0.115-0.841,0.298-1.383,0.242-1.899c-0.152-1.422-0.504-2.828-0.596-4.251
	c-0.25-3.833,0.497-7.459,2.501-11.216c1.306,3.003,1.597,6.08,3.837,8.34c1.027-1.316,0.855-2.552,0.691-3.869
	c-0.633-5.096-0.164-10.028,2.531-14.556c0.293-0.494,0.643-0.955,1.098-1.624c2.363,2.812,3.479,6.494,6.978,8.134
	c0.985-0.418,1.365-1.365,1.681-2.257c0.5-1.41,0.922-2.858,1.227-4.322c0.465-2.221,0.801-4.469,1.203-6.704
	c0.032-0.182,0.158-0.346,0.286-0.613c3.251,0.729,5.306,3.683,8.59,4.71c2.573-4.597,3.995-9.509,5.202-14.723
	c4.107,0.201,6.826,2.51,9.179,5.823c1.75-2.956,2.702-5.897,3.757-8.989c1.432,3.181,0.029,13.074-1.977,16.381
	c-1.703-2.171-3.414-4.351-5.148-6.561c-0.938-0.083-1.613-1.233-2.92-0.431c-1.549,5.16-3.146,10.493-4.758,15.866
	c-2.473-1.854-4.739-3.594-7.055-5.265c-0.675-0.486-1.469-0.838-2.254-1.13c-0.352-0.132-0.814,0.032-1.35,0.071
	c0.381,5.493,1.016,10.808-0.008,16.38c-2.079-1.217-3.875-2.521-5.865-3.362c-1.977-0.836-3.932-1.976-6.317-2.005
	c-1.999,6.626-0.601,12.854,1.288,19.186c-1.338,0.156-1.612-0.995-2.195-1.74c-0.641-0.818-1.307-1.617-2.014-2.489
	c-0.621-0.048-1.258-0.096-2.008-0.154c-0.271,0.478-0.684,0.893-0.74,1.353c-0.315,2.571-0.348,5.153,0.08,7.718
	c0.256,1.519,0.586,3.025,0.925,4.761c-3.005-1.66-3.72-4.778-5.475-7.269C40.677,96.917,40.266,96.962,39.88,97.005z"/>
<path fill-rule="evenodd" clip-rule="evenodd" fill="#f04c47" class="fill" d="M162.768,96.441c1.93,0.734,3.424,1.302,5.164,1.964
	c-0.25,0.403-0.484,0.967-0.885,1.364c-0.407,0.402-0.969,0.654-1.479,0.946c-2.328,1.338-3.842,3.285-4.528,6.281
	c0.626,0.947,1.398,2.112,2.291,3.462c-2.146,2.435-3.913,5.349-6.919,7.341c-3.171-1.04-6.312-2.071-9.331-3.062
	c-1.345-6.601-6.308-8.507-12.259-4.959c-2.959-1.349-5.883-2.76-8.871-4.02c-3.059-1.29-6.201-2.384-9.268-3.658
	c-1.307-0.543-2.514-1.324-3.918-2.079c0.252-0.701,0.462-1.28,0.666-1.845c3.049-0.164,5.963-0.319,8.877-0.477
	c2.018-0.109,4.037-0.331,6.055-0.31c4.037,0.042,8.076,0.341,12.112,0.302c4.822-0.047,9.644-0.285,14.46-0.539
	C157.664,97.007,160.381,96.664,162.768,96.441z"/>
<path fill-rule="evenodd" clip-rule="evenodd" fill="#f04c47" class="fill" d="M150.78,129.709c-0.562,0.943-1.034,1.787-1.552,2.603
	c-2.691,4.23-6.373,7.529-10.106,10.787c-2.255,1.967-4.438,4.016-6.669,6.008c-0.674,0.602-1.408,1.136-2.042,1.644
	c-3.978-1.398-8.335-5.382-8.996-10.065c0.908-0.701,1.907-1.414,2.841-2.206c1.979-1.679,3.981-3.339,5.855-5.13
	c0.916-0.876,1.891-1.369,3.107-1.382c3.848-0.043,7.41-1.23,10.949-2.596C146.331,128.539,148.541,128.21,150.78,129.709z"/>
<path fill-rule="evenodd" clip-rule="evenodd" fill="#f04c47" class="fill" d="M141.372,88.489c-1.411-3.499,1.661-9.607,5.862-11.793
	c1.613,0.486,2.205,1.134,1.913,2.582c-0.24,1.185-0.627,2.429-1.289,3.417c-1.119,1.669-2.517,3.15-3.78,4.723
	C143.359,88.312,142.458,88.646,141.372,88.489z"/>
<path fill-rule="evenodd" clip-rule="evenodd" fill="#f04c47" class="fill" d="M171.822,99.47c0.57,0.482,1.062,0.899,1.482,1.255
	c0.625,2.548-0.818,4.781-3.614,5.563c-1.177,0.331-2.417,0.436-3.954,0.7c-0.234-0.331-0.549-0.744-0.834-1.175
	c-0.625-0.951-0.646-1.683,0.168-2.453C166.968,101.568,168.95,99.875,171.822,99.47z"/>
<path fill-rule="evenodd" clip-rule="evenodd" fill="#f04c47" class="fill" d="M135.904,111.268c1.188-1.542,2.944-1.883,4.786-1.591
	c1.735,0.274,2.552,1.635,2.948,3.249c0.273,1.112,0.523,2.229,0.787,3.359c-0.855,0.703-1.547,1.271-2.303,1.892
	C140.033,115.854,138,113.597,135.904,111.268z"/>
<path fill-rule="evenodd" clip-rule="evenodd" fill="#f04c47" class="fill" d="M153.184,85.594c1.031-1.604,1.771-2.127,3.92-2.831
	c1.705,0.401,3.262,1.163,3.86,3.06c0.481,1.529,0.03,2.623-1.345,3.759C156.971,89.148,154.741,88.008,153.184,85.594z"/>
<path fill-rule="evenodd" clip-rule="evenodd" fill="#f04c47" class="fill" d="M169.602,95.123c-2.119-0.726-3.637-1.953-4.803-3.906
	c0.618-0.697,1.246-1.405,1.797-2.027C169.457,89.667,170.842,92.426,169.602,95.123z"/>
</svg>
