<svg version="1.1" id="svg" xmlns="http://www.w3.org/2000/svg" xmlns:xlink="http://www.w3.org/1999/xlink" x="0px" y="0px"
	 width="200px" height="200px" viewBox="0 0 200 200" enable-background="new 0 0 200 200" xml:space="preserve">
<path class="stroke" fill="#51050f"  d="M174.814,82.896c-0.895-1.211-2.115-1.854-3.6-2.059c-0.512-0.071-1.003-0.279-1.468-0.414
	c0.517-1.087,0.917-1.931,1.282-2.698c-1.292-1.421-1.359-1.467-2.76-1.463c-0.713,0.002-1.425,0.043-2.137,0.094
	c-6.266,0.448-12.532,0.808-18.819,0.615c-5.559-0.17-10.939,0.785-16.241,2.413c-2.84,0.873-5.75,1.516-8.623,2.26
	c-1.703-1.754-3.939-0.636-5.773-1.324c-0.045-0.165-0.129-0.3-0.104-0.412c0.824-3.791,1.604-7.593,2.522-11.361
	c0.334-1.371,1.024-2.587,2.14-3.613c3.642-3.346,5.937-7.505,6.688-12.394c0.371-2.413,0.342-4.888,0.506-7.508
	c2.838-2.832,6.003-5.69,6.02-10.369c-0.707-0.481-1.284-0.894-1.881-1.275c-3.706-2.369-7.467-4.655-11.115-7.112
	c-6.637-4.469-13.89-7.218-21.869-7.767c-3.781-0.259-7.631-0.632-11.36,0.61c-1.533,0.51-3.096,0.943-4.604,1.516
	c-2.648,1.006-5.495,1.691-7.556,3.805c-1.667,1.709-3.332,3.456-4.739,5.376c-4.129,5.632-5.916,12.155-6.822,18.966
	c-0.126,0.953-0.096,1.933-0.064,2.898c0.142,4.313,1.816,8.132,3.644,11.963c1.274,2.675,3.242,4.606,5.487,6.62
	c0.695,4.588,0.974,9.339,0.732,13.94c-5.639,5.116-12.133,8.831-17.068,14.396c-0.02,0.361-0.085,0.688-0.047,1.001
	c0.068,0.572,0.196,1.137,0.315,1.788c-4.624,4.32-9.64,8.031-13.673,13.158c-1.865-0.726-3.736-1.402-5.566-2.178
	c-1.821-0.774-3.63-1.402-5.627-0.71c-1.26,0.438-2.176,1.142-2.119,2.702c0.163,0.292,0.353,0.627,0.535,0.966
	c0.181,0.332,0.354,0.667,0.584,1.103c-0.811,0.305-1.532,0.552-2.234,0.845c-1.484,0.619-1.951,1.539-1.634,3.067
	c0.312,1.504,1.304,2.335,2.694,2.766c0.963,0.299,1.941,0.546,3.139,0.88c-1.625,1.663-3.061,3.128-4.484,4.585
	c0.08,0.775,0.145,1.406,0.197,1.915c1.693,1.823,3.514,2.326,5.693,1.273c0.794-0.384,1.658-0.625,2.447-0.916
	c1.743,2.113,3.757,3.283,6.547,2.774c1.023-1.696,2.044-3.386,3.11-5.154c0.624,0.455,1.064,0.825,1.55,1.123
	c1.682,1.031,3.104,0.644,3.689-1.212c0.357-1.129,0.358-2.399,0.354-3.605c-0.004-1.21-0.213-2.42-0.331-3.625
	c2.653-1.711,5.15-3.323,7.572-4.885c0.683,0.213,1.226,0.382,1.688,0.527c3.249-1.379,5.549-4.091,8.906-5.585
	c-0.093,0.531-0.076,0.799-0.186,1.001c-1.301,2.456-2.514,4.965-3.965,7.329c-1.209,1.967-2.709,3.755-4.062,5.635
	c-0.184,0.257-0.309,0.573-0.397,0.88c-0.68,2.349-1.376,4.694-2.009,7.057c-1.135,4.248-2.248,8.502-3.327,12.764
	c-0.301,1.187-0.366,2.434-0.686,3.613c-1.147,4.242-2.337,8.474-3.554,12.696c-0.857,2.978-1.782,5.938-2.727,9.063
	c-0.963,0.475-2,0.988-3.039,1.5c-2.087,1.029-4.227,1.963-6.246,3.109c-2.475,1.403-3.307,3.508-2.777,6.379
	c2.498,0.883,22.867,1.015,26.805,0.132c0.906-2.897,0.984-6.15,2.521-8.914c0.898-0.099,1.711-0.188,2.342-0.257
	c3.985-6.558,6.173-13.757,10.086-20.042c3.143,0.146,6.126-0.413,9.125,0.405c0.171,0.884,0.311,1.709,0.491,2.524
	c0.939,4.229,1.749,8.494,2.896,12.667c0.561,2.04,1.066,4.283,2.862,5.506c-0.104,2.305-0.202,4.474-0.292,6.451
	c1.586,1.613,3.311,2.028,5.135,2.309c5.87,0.901,11.772,0.029,17.654,0.368c1.217,0.07,2.479-0.167,3.344-1.686
	c-0.084-0.954-0.189-2.139-0.287-3.222c-4.643-2.211-9.256-3.898-13.074-7.178c0.816-0.7,1.444-1.236,2.275-1.948
	c-0.287-6.253-0.597-12.583-0.866-18.915c-0.27-6.323-0.497-12.648-0.753-19.195c0.152-0.212,0.445-0.623,0.659-0.922
	c0.544-9.84,1.821-19.418,4.188-28.989c2.636,0.115,5.062,0.22,7.652,0.333c0.612-1.831,1.156-3.458,1.635-4.889
	c5.476-2.125,10.805-4.194,16.135-6.261c-0.963,1.861-3.637,2.912-1.539,5.865c0.842,0.172,1.961,0.608,3.074,0.59
	c2.52-0.039,4.812-0.834,6.771-2.531c1.693-1.468,3.479-2.83,5.311-4.307c1.543,1.505,2.704,3.184,3.695,5.014
	c0.707,1.304,1.429,2.636,2.366,3.771c1.652,1.998,4.189,1.472,4.955-0.992c0.282-0.904,0.268-1.906,0.336-2.867
	c0.049-0.679,0.01-1.363,0.01-2.187c1.3,0.429,2.445,0.885,3.632,1.172c0.992,0.239,2.036,0.397,3.051,0.362
	c0.574-0.02,1.364-0.351,1.658-0.802c0.85-1.305,1.549-2.726,0.654-4.349c-0.198-0.361-0.275-0.791-0.443-1.292
	c0.47-0.061,0.785-0.099,1.099-0.142C175.512,87.425,176.48,85.152,174.814,82.896z"/>
<path class="stroke" fill="#51050f"  d="M159.119,133.735c0.516-2.193,0.814-4.469-1.147-6.119c-2.095-1.763-5.158-2.27-7.732-0.479
	c-0.949,0.659-1.793,1.467-2.762,2.271c-0.77-0.402-1.5-0.783-2.274-1.188c-0.151-2.808-0.151-5.409,1.471-7.883
	c1.597-2.437,2.107-5.268,1.744-8.191c-0.298-2.419-1.144-3.054-3.48-2.677c-1.049,0.855-1.093,1.846-0.882,2.924
	c0.449,2.292,0.201,4.513-0.786,6.631c-0.573,1.23-1.126,2.481-1.834,3.633c-1.125,1.832-1.871,3.693-1.057,5.954
	c-2.401,1.437-4.201,3.388-5.163,5.928c-0.944,2.491-2.743,4.718-2.643,7.687c1.042,0.831,1.979,1.742,3.066,2.415
	c2.858,1.771,5.743,3.51,8.696,5.114c1.286,0.699,2.736,1.188,4.17,1.5c2.021,0.44,3.925-0.109,5.279-1.703
	c2.564-3.018,4.716-6.31,6.004-10.3c-0.488-0.867-1.017-1.81-1.608-2.861C158.48,135.557,158.898,134.669,159.119,133.735z"/>
<path class="stroke" fill="#51050f"  d="M147.856,105.38c0.797-0.992,0.701-1.962-0.179-3c-1.174-0.435-2.092-0.215-2.839,0.655
	C144.502,105.328,145.589,106.176,147.856,105.38z"/>
<path fill-rule="evenodd" clip-rule="evenodd" fill="#f04c47" class="fill" d="M104.559,128.28c-0.254,0.52-0.334,1.039-0.612,1.187
	c-0.671,0.356-1.417,0.686-2.163,0.769c-6.636,0.738-13.289,1.068-19.951,0.379c-2.959-0.307-5.896-0.739-8.692-1.884
	c-1.851-0.757-3.781-1.32-5.673-1.98c-0.294-0.104-0.568-0.266-0.799-0.376c1.648-3.143,3.36-6.157,4.832-9.285
	c1.488-3.163,2.514-6.507,3.074-10.082c-0.258-0.345-0.562-0.75-0.932-1.24c-0.579,0.241-1.152,0.48-1.766,0.735
	c-0.608-0.519-1.188-1.015-1.899-1.623c-0.474,0.247-0.954,0.495-1.577,0.819c0.638,0.695,1.14,1.242,1.78,1.94
	c-0.504,0.445-0.957,0.845-1.583,1.397c-0.581-0.779-1.076-1.444-1.654-2.218c-0.564,0.489-0.916,0.794-1.319,1.143
	c0.519,0.817,0.96,1.513,1.462,2.305c-0.52,0.346-0.985,0.657-1.518,1.011c-0.582-0.626-1.096-1.177-1.597-1.714
	c-1.188,0.696-1.188,0.696-0.21,2.859c-0.213,0.192-0.43,0.424-0.682,0.608c-0.252,0.185-0.537,0.323-1.031,0.611
	c-1.152-4.839-1.602-9.617-2.077-14.499c5.497-3.998,10.972-7.979,16.427-11.947c2.262,0.411,4.599,0.837,7.205,1.311
	c0.083,0.111,0.356,0.463,0.617,0.824c2.779,3.847,6.583,5.266,11.2,4.68c4.896-0.621,9.146-2.677,12.813-5.949
	c1.066-0.951,2.152-1.761,3.537-2.285c1.029-0.389,1.883-1.305,2.737-2.071c0.469-0.42,0.78-1.016,1.243-1.643
	c0.922,0.088,1.865,0.179,2.998,0.289c-0.355,5.258-0.701,10.379-1.051,15.546c-4.029,0.434-7.804,1.179-11.768,2.266
	c1.213,1.476,2.479,0.461,3.799,0.664c-0.223,0.731-0.418,1.369-0.576,1.885c-1.723,1.182-4.053,0.268-5.571,2.142
	c1.646,0.806,3.153-0.337,4.892,0.098c-0.137,0.689-0.276,1.392-0.395,1.988c-1.881,1.021-4.141,0.115-5.925,1.613
	c1.778,1.076,3.456,0.241,5.329,0.34c-0.079,0.708-0.152,1.365-0.226,2.014c-2.011,0.826-4.409-0.249-6.312,1.715
	c2.079,0.729,3.956-0.165,5.916,0.285c-0.146,0.646-0.279,1.244-0.393,1.742c-2.162,1.112-4.607,0.239-6.596,1.575
	c1.955,1.115,4.058,0.211,6.217,0.404c-0.061,0.789-0.111,1.47-0.165,2.167c-2.241,1.195-4.917,0.176-7.042,1.661
	c2.104,1.259,4.323,0.062,6.605,0.353c-0.039,0.474-0.078,0.956-0.111,1.387c-2.33,1.32-5.219-0.004-7.561,1.805
	c1.242,0.946,2.402,0.453,3.495,0.406c1.148-0.049,2.292-0.196,3.681-0.323c-0.073,0.823-0.138,1.546-0.203,2.272
	c-1.873,0.702-3.661,0.849-5.471,0.752c-0.826-0.044-1.529,0.059-2.159,0.989C99.561,129.24,101.973,127.968,104.559,128.28z"/>
<path fill-rule="evenodd" clip-rule="evenodd" fill="#f04c47" class="fill" d="M82.046,85.594c-1.047-0.212-1.808-0.331-2.546-0.528
	c-0.488-0.13-0.947-0.374-1.554-0.622c-0.53-6.047-1.06-12.086-1.595-18.18c1.307-1.591,2.954-2.985,3.769-5.18
	c-0.987-0.231-1.825-0.441-2.67-0.624c-1.919-0.415-3.206-1.442-3.837-3.4c-0.438-1.356-1.122-2.581-0.612-4.099
	c0.446-1.335,1.19-2.315,2.562-2.663c1.105-0.279,2.246-0.416,3.558-0.649c0.908,3.965,1.767,7.719,2.673,11.672
	c2.591-0.221,4.92-0.985,7.258-1.9c0-0.519,0.087-0.921-0.014-1.271c-0.941-3.274-0.174-6.468,0.691-9.562
	c0.913-3.267,2.829-5.934,6.037-7.462c0.99-0.472,1.928-1.056,2.918-1.528c0.613-0.292,1.28-0.468,2.105-0.761
	c0.025,2.396-1.616,3.635-2.681,5.127c0.595,1.055,1.394,0.638,2.093,0.442c3.232-0.908,6.454-1.852,9.683-2.773
	c0.105-0.03,0.241,0.044,0.503,0.099c-0.537,2.076-2.686,3.036-3.455,4.849c0.496,0.847,1.123,0.592,1.762,0.463
	c3.24-0.654,6.426-1.481,9.447-2.861c0.454-0.207,0.954-0.314,1.527-0.499c0.329,1.909-0.078,3.581-0.664,5.258
	c1.053,1.137,2.061,0.301,3.003-0.026c0.962-0.333,1.862-0.84,2.89-1.319c1.189,3.421,0.518,6.56-1.132,9.352
	c-1.396,2.363-3.38,4.378-5.081,6.563c-0.51,0.653-1.152,1.297-1.384,2.053c-0.583,1.905-1.149,3.85-1.388,5.818
	c-0.401,3.308-1.293,6.462-2.405,9.575c-0.653,1.829-2,2.775-3.885,3.072c-1.149,0.181-2.288,0.43-3.429,0.665
	c-1.609,0.332-3.02,1.008-4.317,2.071c-0.752,0.616-1.797,1.021-2.767,1.191c-2.037,0.358-4.043,0.343-6.115-0.31
	c-2.913-0.917-4.941-2.772-6.463-5.24c-2.242-3.635-3.064-7.799-4.121-11.865c-0.113-0.438-0.199-0.883-0.332-1.314
	c-0.073-0.237-0.218-0.453-0.341-0.7c-1.349-0.058-1.76,0.794-1.755,1.841c0.009,1.616,0.038,3.25,0.282,4.842
	c0.458,3,1.075,5.975,1.62,8.962C81.951,84.54,81.971,84.913,82.046,85.594z M91.117,49.573c0.148,1.02,0.301,2.141,1.329,2.63
	c2.394,1.137,4.878,2.104,7.608,1.709c3.144-0.454,4.217-2.337,3.108-5.66c-2.83-0.97-5.794-1.956-9.024-1.345
	C92.639,47.19,91.544,47.994,91.117,49.573z M90.379,71.927c1.617,1.417,3.495,1.596,5.49,1.424c1.73-0.149,3.468-0.249,5.205-0.289
	c1.07-0.024,2.043-0.193,2.991-1.115c0.058-0.603,0.129-1.349,0.206-2.164c-0.551-0.372-0.992-0.757-1.502-0.996
	c-3.336-1.567-6.769-1.334-10.195-0.396c-0.648,0.177-1.252,0.664-1.771,1.127C90.133,70.116,89.846,70.894,90.379,71.927z
	 M111.34,52.339c1.063,3.309,4.787,4.823,8.078,4.604c2.799-0.187,3.822-1.623,3.163-4.458c-2.325-1.897-5.04-2.439-7.992-2.124
	C113.229,50.507,112.1,51.016,111.34,52.339z M111.524,60.473c-1.06-2.109-2.036-4.057-3.043-6.063
	c-0.931,1.033-0.931,1.033,0.987,5.789c-1.297,0.958-2.635,1.948-4.062,3.002c1.278,0.743,1.334,0.822,1.934,0.404
	C108.706,62.654,110.01,61.617,111.524,60.473z M75.465,56.97c1.195,0.421,2.305,0.854,3.441,0.245
	c0.326-0.175,0.531-0.574,0.795-0.875c-0.861-0.718-2.171,0.27-2.678-1.189c0.72-0.462,1.42-0.914,2.176-1.4
	c-1.245-0.808-2.755-0.597-3.882,0.428C74.527,54.897,74.545,55.416,75.465,56.97z M100.826,76.58
	c-1.456,0.801-1.412,1.822,0.15,3.408c0.39-0.312,0.795-0.635,1.168-0.934C101.662,78.147,101.28,77.43,100.826,76.58z"/>
<path fill-rule="evenodd" clip-rule="evenodd" fill="#f04c47" class="fill" d="M64.34,129.045c1.459,0.422,2.746,0.829,4.052,1.165
	c4.884,1.255,9.794,2.411,14.655,3.75c4.639,1.277,9.379,1.845,14.126,2.478c2.544,0.339,5.088,0.903,7.175,2.338
	c0.485,5.957,0.947,11.746,1.434,17.532c0.168,1.998,0.48,3.987,0.575,5.987c0.095,1.985,0.001,3.98-0.011,6.055
	c-3.467,1.422-6.841,2.118-10.443,2.412c-1.596-3.691-2.338-7.455-1.768-11.367c0.156-1.066,0.916-2.113,1.599-3.018
	c1.279-1.693,1.958-3.566,2.278-5.458c-0.683-1.22-1.572-1.609-2.706-1.526c-5.421,0.398-10.841,0.785-16.259,1.205
	c-1.377,0.107-2.209,1.042-2.755,2.195c-1.464,3.098-2.892,6.215-4.303,9.34c-1.276,2.827-2.507,5.675-3.772,8.509
	c-0.127,0.288-0.344,0.537-0.648,1c-4.621-0.413-9.226-1.158-13.879-2.459C57.867,155.907,61.332,142.676,64.34,129.045z"/>
<path fill-rule="evenodd" clip-rule="evenodd" fill="#f04c47" class="fill" d="M160.03,84.332c0.489,0.361,0.873,0.735,1.328,0.965
	c1.732,0.874,3.562,1.578,5.207,2.586c1.188,0.729,2.175,1.806,3.179,2.8c0.262,0.259,0.254,0.791,0.367,1.186
	c-1.089,0.646-1.961,0.444-2.859-0.089c-2.224-1.32-4.47-2.602-6.708-3.895c-1.283-0.742-1.931-0.903-3.306-0.831
	c-0.492,0.855,0.115,1.416,0.574,2.019c1.014,1.33,2.252,2.513,2.663,4.23c0.365,1.526,0.507,3.025-0.245,4.604
	c-1.009-0.276-1.228-1.127-1.651-1.803c-1.369-2.187-2.728-4.383-4.17-6.522c-0.497-0.738-1.158-1.418-1.879-1.938
	c-0.515-0.37-1.254-0.428-1.933-0.637c-2.664,4.118-6.095,6.902-10.717,8.395c-0.304-0.522-0.541-0.929-0.899-1.541
	c1.085-0.957,2.036-1.918,3.109-2.711c1.86-1.374,3.312-3.078,4.463-5.059c0.128-0.22,0.249-0.449,0.336-0.688
	c0.038-0.108-0.017-0.25-0.036-0.452c-0.73-0.473-1.539-0.3-2.112,0.188c-1.988,1.699-4.521,2.161-6.83,3.1
	c-4.551,1.849-9.165,3.545-13.764,5.274c-1.015,0.382-2.077,0.636-3.423,1.041c-0.037-3.83,0.061-7.374,1.43-10.923
	c0.668-0.152,1.352-0.305,2.033-0.461c2.896-0.662,5.828-1.203,8.68-2.021c3.208-0.919,6.494-1.098,9.768-1.492
	c4.707-0.568,9.428-0.4,14.146-0.496c2.966-0.06,5.926-0.409,8.889-0.628c0.816-0.06,1.634-0.122,2.482-0.005
	c-1.639,1.625-3.895,1.243-5.858,1.846c-0.419,1.32,0.496,1.414,1.329,1.561c2.42,0.426,4.84,0.843,7.258,1.269
	c0.385,0.067,0.829,0.058,1.128,0.259c0.533,0.357,0.978,0.848,1.483,1.305c-1.039,1.008-2.057,0.801-2.975,0.622
	c-2.474-0.485-4.92-1.11-7.389-1.621C162.16,83.57,161.112,83.194,160.03,84.332z"/>
<path fill-rule="evenodd" clip-rule="evenodd" fill="#f04c47" class="fill" d="M78.138,32.866c0.96,0.547,1.318-0.049,1.753-0.533
	c1.86-2.071,3.697-4.171,6.186-5.539c0.328-0.18,0.682-0.312,1.424-0.646c-0.795,2.669-1.49,5.008-2.187,7.354
	c1.012,0.587,1.437,0.191,1.968-0.41c1.842-2.089,4.236-3.345,6.827-4.26c0.152-0.053,0.354,0.032,0.796,0.084
	c-0.777,2.263-1.52,4.428-2.258,6.58c0.568,0.914,1.25,0.521,1.874,0.205c3.168-1.607,6.306-3.277,9.495-4.842
	c2.01-0.987,3.992-2.111,6.553-2.335c-0.164,2.298-1.275,4.08-2.334,5.785c0.73,1.042,1.465,0.638,2.15,0.286
	c1.612-0.827,3.2-1.7,4.81-2.531c0.795-0.411,1.616-0.771,2.545-1.209c1.198,2.367-0.175,4.492-0.333,6.909
	c2.694-0.377,4.153-2.404,6.283-3.853c0.469,1.868,0.891,3.549,1.384,5.519c1.479-0.862,2.653-1.547,3.825-2.232
	c0.088,0.102,0.175,0.204,0.261,0.306c-1.461,2.109-3.116,4.051-5.147,5.787c-1.103-1.363,0.232-3.145-1.328-4.495
	c-2.539,0.936-5.232,1.928-7.955,2.934c0.026-1.836,1.476-3.607,0.225-5.83c-2.915,2.879-6.594,3.494-10.4,4.715
	c0.355-1.279,0.658-2.177,0.846-3.099c0.177-0.863,0.229-1.751,0.383-3.008c-2.412,0.578-4.432,1.296-6.394,2.092
	c-1.97,0.798-3.888,1.773-5.717,2.858c-1.857,1.103-3.58,2.434-5.522,3.776c-0.168-2.164,1.303-3.908,1.74-5.806
	c-0.492-0.816-1.074-0.515-1.607-0.337c-2.17,0.722-3.789,2.158-5.096,3.992c-0.36,0.506-0.743,0.997-1.117,1.495
	c-0.13-0.053-0.26-0.106-0.391-0.158c0.621-2.491,1.242-4.981,1.838-7.368c-0.709-0.612-1.104-0.322-1.506,0.066
	c-1.669,1.611-3.343,3.217-5.029,4.81c-0.114,0.108-0.344,0.096-0.834,0.217c0.512-2.087,0.979-3.996,1.466-5.98
	c-0.533-0.596-1.002-0.391-1.595,0.081c-1.203,0.957-2.473,1.827-3.781,2.781c-0.471-3.09,4.51-9.999,8.254-11.502
	C79.828,28.064,77.796,30.079,78.138,32.866z"/>
<path fill-rule="evenodd" clip-rule="evenodd" fill="#f04c47" class="fill" d="M33.396,113.559c2.51,0.018,4.303,0.918,6.081,1.828
	c1.685,0.861,3.442,1.426,5.536,1.696c3.498-4.708,7.754-8.695,12.093-12.6c0.144,0.042,0.286,0.084,0.429,0.127
	c0,1.449,0.042,2.9-0.013,4.348c-0.051,1.355-0.229,2.705-0.306,4.06c-0.095,1.648-1.099,2.717-2.274,3.674
	c-1.552,1.264-3.125,2.501-4.661,3.728c-0.222,2.476,0.722,4.87-0.238,7.44c-1.84-1.401-1.564-4.619-4.435-4.939
	c-0.655,1.527-1.271,2.988-1.907,4.44c-0.626,1.433-0.145,3.249-1.416,4.481c-1.376-0.307-1.518-1.33-1.477-2.281
	c0.064-1.479,0.303-2.95,0.497-4.42c0.086-0.647,0.119-0.643-0.661-1.669c-0.953,0.811-1.904,1.615-2.848,2.427
	c-1.418,1.219-2.812,2.464-4.257,3.65c-0.323,0.265-0.807,0.334-1.372,0.555c-0.083-0.966,0.529-1.401,0.987-1.855
	c1.47-1.456,3.003-2.85,4.462-4.316c0.408-0.41,0.646-0.987,0.957-1.479c-1.169-1.03-2.414-0.721-3.527-0.937
	c-0.758-0.147-1.547-0.128-2.32-0.2c-0.854-0.08-1.605-0.324-2.02-1.352c3.383-1.012,6.781,1.026,10.303-0.334
	c-1.309-1.464-2.846-2.018-4.143-2.909C35.646,115.881,34.082,115.395,33.396,113.559z"/>
<path fill-rule="evenodd" clip-rule="evenodd" fill="#f04c47" class="fill" d="M157.167,137.941c-1.397,4.771-5.049,7.525-7.983,11.004
	c-1.12-0.502-2.154-0.965-3.486-1.562c0.798-0.501,1.371-0.86,2.124-1.333c-0.755-0.61-1.068-0.865-1.487-1.204
	c-0.692,0.616-1.309,1.166-2.1,1.87c-0.444-0.192-1-0.431-1.725-0.743c0.587-0.849,1.074-1.553,1.625-2.35
	c-0.426-0.271-0.724-0.459-1.09-0.691c-0.673,0.724-1.283,1.378-2.022,2.172c-0.422-0.2-0.902-0.428-1.567-0.743
	c0.695-0.745,1.25-1.336,1.888-2.018c-0.251-0.289-0.479-0.552-0.776-0.893c-0.904,0.651-1.725,1.241-2.602,1.872
	c-0.337-0.278-0.611-0.506-1.056-0.875c4.513-2.806,7.938-6.365,9.869-11.413c0.261,0.101,0.584,0.229,0.91,0.352
	c0.356,0.135,0.715,0.266,1.231,0.458c1.14-0.86,2.311-1.75,3.488-2.628c1.242-0.927,2.537-1.554,4.025-0.749
	c1.084,2.759,0.748,4.602-1.324,7.146C155.801,136.398,156.514,137.204,157.167,137.941z M156.109,131.514
	c-0.965-1.65-1.645-1.967-3.146-1.299c-0.988,0.44-1.892,1.073-2.905,1.66c0.07,0.617,0.133,1.171,0.191,1.684
	c1.302,0.785,2.241,1.948,3.806,2.115C155.168,134.519,156.023,133.274,156.109,131.514z"/>
<path fill-rule="evenodd" clip-rule="evenodd" fill="#f04c47" class="fill" d="M134.613,140.642c0.391-2.975,3.679-7.613,6.349-8.821
	c0.199,1.151,0.394,2.269,0.582,3.351C139.543,137.89,136.236,140.49,134.613,140.642z"/>
<path fill-rule="evenodd" clip-rule="evenodd" fill="#f04c47" class="fill" d="M92.336,49.392c1.127-0.568,1.751-1.092,2.436-1.189
	c2.457-0.348,4.843,0.133,7.125,0.767c0.545,1.928,0.481,2.088-1.23,3.119c-0.6-1.292-0.957-2.903-2.746-3.044
	c-1.69-0.133-2.764,0.829-3.528,2.679C93.66,50.894,93.168,50.337,92.336,49.392z"/>
<path fill-rule="evenodd" clip-rule="evenodd" fill="#f04c47" class="fill" d="M96.046,51.847c0.501-0.627,0.798-0.999,1.073-1.343
	c1.131,0.075,1.643,0.559,1.626,1.627C97.852,52.742,97.153,52.144,96.046,51.847z"/>
<path fill-rule="evenodd" clip-rule="evenodd" fill="#f04c47" class="fill" d="M91.759,70.499c2.88-1.792,5.851-1.52,8.779-1.182
	c0.843,0.097,1.962,0.366,2.13,1.816c-0.507,0.1-0.983,0.251-1.467,0.278c-2.182,0.123-4.363,0.215-6.547,0.308
	C93.188,71.78,93.029,71.711,91.759,70.499z"/>
<path fill-rule="evenodd" clip-rule="evenodd" fill="#f04c47" class="fill" d="M114.217,53.875c-0.367-0.531-0.666-0.965-0.986-1.428
	c3.353-1.5,7.229-0.611,8.249,1.811c-0.546,1.125-1.511,1.186-2.644,1.022c-0.23-0.736-0.455-1.45-0.678-2.161
	c-0.618-0.242-1.15-0.45-1.801-0.705C115.752,52.828,115.123,53.256,114.217,53.875z"/>
<path fill-rule="evenodd" clip-rule="evenodd" fill="#f04c47" class="fill" d="M116.945,55.187c-0.295-0.143-0.588-0.286-1.029-0.501
	c0.281-0.257,0.445-0.406,0.609-0.555c0.228,0.255,0.455,0.51,0.683,0.765C117.12,54.993,117.031,55.09,116.945,55.187z"/>
<path fill-rule="evenodd" clip-rule="evenodd" fill="#f04c47" class="fill" d="M154.191,131.21c0.534,1.367-0.151,1.9-0.824,2.634
	c-0.462-0.336-0.896-0.654-1.57-1.147C152.675,132.153,153.341,131.739,154.191,131.21z"/>
</svg>
