<svg version="1.1" id="svg" xmlns="http://www.w3.org/2000/svg" xmlns:xlink="http://www.w3.org/1999/xlink" x="0px" y="0px"
	 width="200px" height="200px" viewBox="0 0 200 200" enable-background="new 0 0 200 200" xml:space="preserve">
<path class="stroke" fill="#51050f"  fill-rule="evenodd" clip-rule="evenodd" d="M127.899,133.44c-2.995-1.549-5.988-3.096-8.98-4.644
	c-0.009,0.041-0.018,0.082-0.026,0.124c-1.271-0.409-2.535-0.836-3.812-1.217c-0.68-0.203-1.379-0.428-2.08-0.468
	c-3.149-0.18-6.064-1.061-8.705-2.793c-1.164-0.764-2.286-1.594-3.437-2.382c-0.826-0.566-1.636-1.111-2.718-1.162
	c-2.917-0.135-5.661-1.117-8.441-1.878c-3.021-0.828-5.987-1.825-9.1-2.317c-1.414-0.224-2.86-0.608-4.141-1.23
	c-1.506-0.733-2.632-0.18-3.732,0.634c-1.194,0.884-2.298,1.894-3.509,2.905c-0.281,0.738,0.11,1.352,0.716,1.796
	c1.015,0.742,2.097,1.366,3.433,1.355c0.621-0.005,1.242,0.098,1.934,0.157c0.263,0.374,0.522,0.739,0.821,1.163
	c-3.563,0.524-6.65-0.208-9.378-2.477c-0.591,0.409-1.175,0.747-1.683,1.175c-1.787,1.506-3.804,2.635-5.916,3.587
	c-2.195,0.99-3.937,2.576-5.695,4.148c-0.598,0.535-1.166,1.106-1.838,1.748c3.477,2.192,6.73,0.956,10.122-0.043
	c0.636,0.054,1.159,0.489,1.679,1.038c2.125,2.246,5.063,1.97,6.865-0.562c0.4-0.563,0.973-1.006,1.585-1.625
	c0.876,0.558,1.615,1.056,2.382,1.511c0.691,0.41,1.373,0.871,2.122,1.138c2.981,1.065,5.973,0.69,8.964-0.034
	c0.811-0.195,1.637-0.647,2.562-0.132c-0.032,1.42-1.106,1.964-2.12,2.455c-0.634,0.307-1.387,0.383-2.095,0.517
	c-2.955,0.551-5.851,0.369-8.675-0.726c-0.805-0.312-1.632-0.564-2.535-0.874c-3.834,2.69-7.611,2.385-11.129-0.333
	c-2.256,0.537-4.382,1.135-6.544,1.531c-2.208,0.406-4.417,0.089-6.715-0.505c-1.358,1.158-2.745,2.338-4.071,3.466
	c-0.172,1.767,0.283,3.313,0.746,4.813c0.56,1.812,0.463,3.398-0.922,4.905c-1.362,0.644-2.753,0.771-4.02-0.419
	c-2.635,3.624-3.404,3.999-5.549,2.598c-0.465-1.915,0.232-3.898,0.266-6.128c-1.943,1.765-3.693,3.354-5.338,4.848
	c-2.252-0.455-2.648-0.871-2.793-3.027c1.04-1.409,2.225-3.013,3.479-4.711c-2.223,0.503-4.415,1.653-6.729,0.302
	c-0.69-0.824-0.636-1.681-0.093-2.624c0.549-0.954,1.231-1.722,2.268-2.136c1.426-0.568,2.852-1.132,4.266-1.692
	c-0.487-0.514-0.993-1.075-1.529-1.605c-1.104-1.091-1.534-2.416-1.451-3.941c0.057-1.045,0.588-1.629,1.654-1.538
	c0.751,0.064,1.497,0.332,2.212,0.594c1.803,0.663,3.59,1.373,5.333,2.046c1.756-1.118,2.783-2.707,3.881-4.218
	c1.782-2.455,3.421-5.028,5.912-6.871c0.147-0.109,0.242-0.289,0.393-0.474c-0.928-0.462-1.869-0.815-2.676-1.363
	c-0.826-0.561-1.522-1.314-2.387-2.081c-4.184,1.846-8.454,1.038-12.715,0.154c-1.207-0.25-1.718-0.606-2.708-1.472
	c0.264-0.305,0.529-0.611,0.823-0.951c0.897,0.343,1.677,0.748,2.505,0.938c1.83,0.419,3.674,0.798,5.531,1.065
	c1.568,0.225,3.046-0.334,4.497-0.867c0.9-0.33,1.791-0.685,2.705-1.036c2.055,1.852,4.432,2.735,7.288,2.893
	c3.132-3.969,6.285-7.962,9.446-11.967c-1.881,0.3-3.74,0.665-5.618,0.879c-1.947,0.223-3.681-0.58-5.417-1.439
	c-1.125,0.623-2.222,1.336-3.402,1.851c-0.911,0.396-1.924,0.566-2.902,0.793c-0.701,0.163-1.43,0.21-2.129,0.381
	c-2.337,0.57-4.08-0.568-5.743-1.95c-0.058-0.048-0.045-0.179-0.071-0.3c0.08-0.096,0.151-0.229,0.261-0.304
	c0.114-0.077,0.267-0.099,0.331-0.121c4.496,2.048,8.279,0.669,11.805-2.161c0.508-0.407,1.056-0.76,1.567-1.125
	c0.607,0.391,1.077,0.638,1.485,0.963c1.855,1.48,3.941,1.655,6.16,1.139c1.836-0.427,3.62-0.97,5.271-1.927
	c1.022-0.593,1.414-1.604,2.21-2.756c-3.394,1.289-6.308,0.881-9.049-1.149c-4.609,2.952-9.296,3.929-14.055,0.199
	c-1.758,0.611-3.527,1.146-5.322,0.331c-0.023-0.125-0.05-0.251-0.073-0.376c1.104-0.3,2.214-0.573,3.309-0.908
	c1.104-0.337,2.188-0.736,3.239-1.094c0.145,0.037,0.276,0.029,0.325,0.088c1.752,2.205,4.159,2.514,6.674,2.091
	c2.019-0.339,4.146-0.463,5.921-1.832c0.295,0.081,0.607,0.167,1.01,0.277c0.18-0.195,0.39-0.419,0.7-0.756
	c-0.825-0.521-1.547-0.975-2.297-1.449c-1.605,0.515-3.241,0.828-4.827,0.188c-1.506-0.609-2.937-1.41-4.576-2.212
	c-4.826,2.605-9.093,1.703-12.554-2.9c-0.591,0.319-1.167,0.56-1.666,0.913c-1.697,1.2-3.708,1.566-5.626,2.18
	c-1.179,0.376-2.137-0.099-3.05-0.862c0.479-1.107,1.449-0.792,2.249-0.914c0.784-0.121,1.562-0.272,2.379-0.417
	c-1.718-4.347-1.267-8.503-0.037-12.633c1.25-4.197,2.499-8.399,3.901-12.547c1.384-4.096,3.557-7.798,6.317-11.125
	c1.27-1.53,3.072-2.344,5.002-2.153c3.09,0.305,6.033,1.298,7.782,4.098c0.898,1.439,1.3,3.189,1.923,4.8
	c0.066,0.173,0.104,0.357,0.172,0.593c0.301,0.038,0.581,0.083,0.861,0.109c3.195,0.311,5.886,1.531,7.992,4.065
	c1.403,1.688,2.642,3.575,4.704,4.632c1.284,0.658,2.546,1.375,3.74,2.181c1.312,0.887,2.556,1.881,3.791,2.877
	c0.851,0.687,1.362,1.605,1.535,2.702c0.082,0.521,0.206,1.034,0.342,1.708c1.259,0.357,2.54,0.751,3.837,1.078
	c0.764,0.192,1.451-0.12,1.971-0.658c0.632-0.657,1.217-1.366,1.76-2.1c1.719-2.324,3.373-4.698,5.122-6.999
	c1.259-1.658,1.493-2.275,1.263-4.473c-1.677-0.596-3.337-1.186-5.371-1.908c-1.917,1.213-4.369,1.927-7.051,1.432
	c-1.182-0.218-2.379-0.405-3.523-0.753c-0.51-0.155-0.908-0.672-1.334-1.008c0.026-0.579,0.327-0.711,0.777-0.605
	c0.186,0.044,0.375,0.112,0.538,0.209c2.554,1.532,5.23,1.008,7.864,0.372c0.849-0.205,1.593-0.866,2.371-1.34
	c0.322-0.196,0.608-0.448,0.964-0.713c1.478,0.92,2.724,2.295,4.817,2.106c0.137-2.672,0.275-5.335,0.414-8.022
	c-0.265-0.058-0.412-0.142-0.521-0.107c-2.792,0.903-5.614,0.687-8.442,0.226c-1.459-0.237-2.547-1.027-3.338-2.262
	c0.332-0.616,0.732-0.641,1.223-0.326c1.965,1.269,4.212,1.394,6.41,1.309c1.887-0.072,3.35-1.336,4.902-2.519
	c0.107-2.128,0.216-4.288,0.335-6.613c-1.147-1.22-2.348-2.458-3.501-3.738c-0.771-0.857-1.505-1.755-2.202-2.675
	c-0.595-0.784-0.553-1.712-0.427-2.7c1.611-1.447,3.346-1.288,5.336-0.148c-0.409-1.856-0.087-3.44,0.379-5.013
	c0.354-1.188,0.99-2.081,2.549-2.438c0.577,0.353,1.332,0.813,2.201,1.345c0.285-0.422,0.647-0.956,1.125-1.662
	c0.894,0,1.872,0,2.875,0c0.266,0.539,0.495,1.004,0.758,1.535c0.961-0.101,1.918-0.699,2.984-0.112
	c0.779,0.856,0.491,2.031,0.649,3.173c1.052,0.014,2.126-0.943,3.149,0.051c0.581,0.691,0.434,1.481,0.244,2.301
	c-0.564,2.433-1.688,4.631-3.04,6.678c-1.021,1.544-1.343,3.175-1.272,4.924c0.135,3.319,0.346,6.635,0.532,9.952
	c0.011,0.187,0.078,0.371,0.156,0.722c3.559,0.718,6.913,0.247,10.036-1.739c0.292,0.143,0.587,0.219,0.793,0.397
	c1.296,1.122,2.786,1.432,4.452,1.184c1.872-0.279,3.716-0.594,5.197-1.938c0.288-0.262,0.708-0.38,0.938-0.5
	c3.193,3.25,6.689,3.671,10.69,1.924c1.524,2.384,4.206,2.284,6.709,2.883c-1.692,1.123-3.237,0.846-7.233-1.194
	c-1.607,1.368-3.544,1.547-5.637,1.161c-1.982-0.366-3.783-1.088-5.323-2.3c-3.803,1.309-7.51,2.637-11.455,0.681
	c-2.776,1.284-5.694,1.993-8.931,1.709c0.148,3.015,0.378,5.88,0.406,8.748c0.027,2.876-0.149,5.754-0.243,8.83
	c1.503,1.774,3.688,2.274,6.092,1.754c1.489-0.323,2.913-0.951,4.374-1.418c0.663-0.213,1.344-0.369,2.083-0.568
	c0.739,1.377,1.653,2.304,2.995,2.791c3.048,1.105,5.842,0.744,8.42-1.256c0.667-0.517,1.389-0.962,2.131-1.472
	c1.594,1.943,3.022,3.744,5.383,4.479c2.299,0.717,4.566,0.042,7.055-0.116c-0.602,1.321-1.537,1.652-2.6,1.775
	c-3.955,0.458-7.676-0.197-11.156-2.477c-2.218,0.753-4.475,1.81-6.935,1.461c-2.368-0.335-4.814-0.579-6.658-2.285
	c-2.003,0.437-3.943,1.043-5.925,1.24c-2.004,0.199-4.038-0.057-5.878-1.099c-0.536,0.695-0.385,1.263,0.159,1.699
	c1.125,0.904,2.24,1.834,3.448,2.615c3.636,2.351,7.312,4.636,10.532,6.669c2.474,0.685,4.463,1.251,6.46,1.785
	c2.604,0.697,5.218,1.368,7.827,2.052c0.232,0.061,0.467,0.125,0.692,0.209c1.21,0.451,2.317,1.015,2.508,2.599
	c1.634,0.04,3.217,0.068,4.799,0.118c3.082,0.099,6.173,0.091,9.24,0.355c2.409,0.206,4.65,0.992,6.708,2.438
	c3.33,2.339,6.233,5.163,9.344,7.75c0.84,0.698,1.725,1.342,2.493,1.936c1.524-0.916,2.884-1.645,4.146-2.512
	c1.586-1.09,3.392-1.583,5.189-2.107c1.039-0.304,1.917-0.017,2.787,0.719c1.244,1.05,2.037,2.213,2.215,3.881
	c0.105,0.983,0.65,1.911,0.893,2.89c0.146,0.592,0.22,1.258,0.104,1.848c-0.235,1.198-0.892,2.065-2.172,2.447
	c-1.61,0.48-3.208,0.748-4.819,0.154c-0.81-0.299-1.47-0.166-2.193,0.235c-1.518,0.841-3.039,1.689-4.627,2.383
	c-1.039,0.455-2.18,0.726-3.304,0.932c-1.441,0.264-2.637-0.378-3.643-1.357c-0.724-0.706-1.365-1.494-2.073-2.216
	c-1.29-1.315-2.781-2.203-4.701-2.236c-0.543-0.009-1.083-0.236-1.661-0.371c0-0.531,0-0.897,0-1.471
	c-1.095-0.45-2.241-1.313-3.385-1.312c-2.829,0.004-5.446-0.553-7.865-1.882c-3.573,1.703-7.224,2.282-10.995,1.497
	c0,1.106,0,2.078,0,3.258c-0.07-0.084-0.001,0.057,0.112,0.125c4.044,2.432,8.083,4.875,12.147,7.271
	c1.197,0.704,2.416,1.471,3.729,1.849c2.241,0.647,4.584,0.422,6.887,0.219c1.488-0.131,2.967-0.361,4.453-0.516
	c0.332-0.034,0.678,0.057,1.041,0.271c-2.381,2.639-5.496,3.004-8.966,2.951c0.3,0.34,0.444,0.558,0.637,0.714
	c1.273,1.024,2.515,2.097,3.851,3.033c1.191,0.836,2.657,0.962,4.033,0.847c2.247-0.188,4.483-0.573,6.71-0.958
	c1.193-0.205,1.443-0.254,2.316,0.299c-0.062,0.883-0.583,1.325-1.421,1.539c-0.962,0.246-1.909,0.55-2.865,0.975
	c2.689,1.484,5.07,3.657,8.451,3.112c0.47-0.076,0.938-0.191,1.393-0.334c1.934-0.609,3.889-1.077,5.905-1.077
	c1.04,0.685,1.272,1.714,1.349,2.786c0.093,1.303-1.132,1.665-1.882,2.348c0.042,0.49,0.077,0.913,0.121,1.437
	c-1.054,1.622-2.146,3.293-3.223,4.974c-0.124,0.194-0.164,0.442-0.254,0.661c-0.611,1.493-1.652,1.781-2.952,0.815
	c-0.192-0.143-0.371-0.306-0.558-0.462c-1.77-0.243-3.536-0.458-5.294-0.733c-2.111-0.329-4.115-0.917-5.909-2.184
	c-1.134-0.801-2.387-1.475-3.663-2.022c-0.912-0.392-1.946-0.523-2.939-0.696c-5.662-0.984-10.959-2.851-15.843-5.977
	C133.257,135.101,130.686,133.924,127.899,133.44z"/>
<path class="stroke" fill="#51050f"  fill-rule="evenodd" clip-rule="evenodd" d="M73.868,138.963c0.945-0.964,2.033-1.09,3.029-0.746
	c3.622,1.252,7.269,0.78,10.835,0.044c2.48-0.513,4.74-1.83,6.874-3.256c0.394-0.264,0.8-0.513,1.191-0.763
	c1.159,1.041,2.183,2.145,3.384,2.999c2.132,1.513,4.587,2.14,7.198,2.205c2.697,0.067,5.269-0.411,7.717-1.557
	c0.371-0.173,0.812-0.194,1.301-0.303c0.143,0.391,0.246,0.673,0.372,1.016c-2.52,1.039-4.809,2.443-7.529,2.606
	c-0.908,0.054-1.837,0.143-2.728,0.012c-2.918-0.428-5.729-1.227-8.311-2.713c-0.666-0.383-1.372-0.694-2.159-1.086
	c-1.182,0.536-2.367,1.181-3.624,1.625c-5.004,1.767-10.114,2.328-15.343,1.136C75.281,140,74.511,139.756,73.868,138.963z"/>
<path class="stroke" fill="#51050f"  fill-rule="evenodd" clip-rule="evenodd" d="M142.114,88.965c-4.971,2.727-10.29,3.57-15.803,3.494
	c-1.239-0.017-1.239-0.067-2.07-0.821c0.088-0.15,0.158-0.333,0.282-0.464c0.129-0.135,0.308-0.22,0.476-0.334
	c0.203,0.021,0.396,0.02,0.58,0.064c1.39,0.342,2.754,0.298,4.119-0.171c1.956-0.673,3.925-1.312,5.895-1.945
	c2.194-0.705,4.065-1.959,5.855-3.363c0.442-0.346,0.92-0.646,1.524-1.067c0.371,0.659,0.721,1.169,0.96,1.726
	c0.873,2.038,2.419,3.366,4.458,4.062c2.187,0.746,4.428,1.381,6.785,1.177c0.708-0.061,1.404-0.255,2.107-0.385
	c0.447-0.083,0.896-0.158,1.344-0.237c0.065,0.099,0.129,0.197,0.192,0.294c-0.204,0.261-0.358,0.607-0.626,0.767
	c-1.596,0.953-3.303,1.615-5.196,1.511c-3.432-0.188-6.606-1.202-9.464-3.139c-0.276-0.188-0.506-0.445-0.765-0.66
	C142.552,89.293,142.323,89.127,142.114,88.965z"/>
<path class="stroke" fill="#51050f"  fill-rule="evenodd" clip-rule="evenodd" d="M97.839,128.759c-0.254,0.35-0.451,0.621-0.688,0.947
	c-4.617,1.338-9.086,1.714-12.733-2.463c-4.098,2.703-8.618,3.042-13.253,2.766c-1.253-0.075-2.112-0.453-3.062-1.185
	c0.346-0.52,0.814-0.602,1.362-0.428c2.021,0.642,4.078,0.668,6.137,0.279c2.501-0.472,5.062-0.78,7.224-2.32
	c0.814-0.582,1.624-1.172,2.597-1.874c0.458,0.575,0.969,0.987,1.175,1.518c0.559,1.443,1.705,2.06,3.07,2.346
	c2.148,0.449,4.315,0.427,6.452-0.084C96.792,128.098,97.336,128.06,97.839,128.759z"/>
<path class="stroke" fill="#51050f"  fill-rule="evenodd" clip-rule="evenodd" d="M127.068,70.821c1.079,0.651,2.173,1.442,3.377,2
	c1.169,0.542,2.449,0.845,3.781,1.287c-0.068,0.284-0.135,0.569-0.227,0.954c-2.354-0.532-4.525-1.252-6.588-2.426
	c-4.032,2.133-8.354,2.477-12.762,1.774c-1.414-0.226-2.962-0.499-4.062-1.792c0.189-0.241,0.355-0.453,0.495-0.631
	C116.524,73.442,121.713,72.591,127.068,70.821z"/>
<path fill-rule="evenodd" clip-rule="evenodd" fill="#f04c47" class="fill" d="M27.84,146.653c0.172-1.076,0.843-1.874,1.588-2.616
	c1.432-1.424,2.895-2.819,4.323-4.246c0.354-0.353,0.846-0.703,0.475-1.493c-3.221,0.624-6.29,2.146-9.67,2.218
	c-0.388-0.703-0.301-1.24,0.277-1.586c0.569-0.341,1.188-0.631,1.823-0.83c1.792-0.562,3.604-1.057,5.404-1.595
	c0.656-0.195,1.254-0.485,1.553-1.41c-0.645-0.436-1.312-0.871-1.963-1.33c-0.86-0.608-1.758-1.176-2.54-1.872
	c-0.559-0.496-0.858-1.185-0.271-1.919c0.589-0.351,1.076-0.126,1.619,0.163c1.145,0.608,2.304,1.21,3.507,1.69
	c1.884,0.752,3.433,0.183,4.653-1.396c2.061-2.663,4.09-5.362,6.337-7.862c1.399-1.558,3.203-2.749,4.77-4.165
	c0.596-0.539,1.121-1.2,1.533-1.892c1.955-3.281,4.269-6.284,6.89-9.051c1.453-1.533,2.995-2.982,4.461-4.503
	c0.386-0.399,0.824-0.895,0.916-1.404c0.847-4.741,3.827-8.097,7.163-11.235c0.071-0.066,0.149-0.125,0.227-0.182
	c2.11-1.568,2.649-3.678,2.121-6.154c-0.109-0.511-0.226-1.021-0.363-1.649c2.073,0,4.035,0,5.902,0
	c1.786-1.179,3.046-2.576,4.021-4.396c0.966-1.806,2.383-3.377,3.647-5.016c3.827-4.952,3.203-3.486,3.2-9.705
	c-0.002-4.387-0.028-8.773-0.025-13.16c0.002-1.151,0.062-2.303,0.12-3.453c0.111-2.223-0.651-4.008-2.477-5.356
	c-1.448-1.069-2.462-2.542-3.539-4.058c0.773-0.591,1.403-0.347,1.967,0.15c0.903,0.798,1.77,1.636,2.651,2.458
	c0.398,0.371,0.802,0.722,1.602,0.332c0.022-0.44,0.119-0.994,0.063-1.533c-0.197-1.916-0.474-3.823-0.658-5.739
	c-0.057-0.578,0.086-1.175,0.28-1.76c0.938,2.012,1.145,4.151,1.46,6.264c0.1,0.663,0.094,1.369,0.906,1.741
	c0.89-0.186,1.122-0.948,1.249-1.7c0.136-0.804,0.145-1.631,0.178-2.449c0.057-1.456,0.358-2.848,1.09-4.501
	c0.145,0.574,0.289,0.854,0.271,1.123c-0.118,1.627-0.281,3.251-0.411,4.879c-0.078,0.973,0.354,1.659,1.413,2.158
	c0.235-0.358,0.575-0.697,0.703-1.103c0.358-1.146,0.614-2.323,0.94-3.48c0.15-0.531,0.369-1.043,0.684-1.529
	c0.529,2.225-0.953,4.332-0.555,6.531c1.115,0.058,1.479-0.5,1.858-1.074c0.61-0.921,1.243-1.826,1.892-2.72
	c0.156-0.217,0.404-0.368,0.851-0.417c-0.204,0.505-0.376,1.028-0.623,1.513c-1.228,2.399-2.486,4.782-3.704,7.186
	c-0.188,0.372-0.272,0.82-0.302,1.24c-0.333,4.988,0.367,9.908,0.962,14.84c0.499,4.121,0.692,8.271,0.268,12.41
	c-0.319,3.112-0.813,6.207-1.238,9.309c-0.039,0.282-0.145,0.555-0.239,0.911c0.115,1.083,1.093,1.581,1.888,2.131
	c2.256,1.561,4.554,3.07,6.887,4.514c2.158,1.334,3.895,3.105,5.623,4.926c-0.935,1.487-1.848,2.901-2.721,4.341
	c-1.081,1.782-1.806,3.707-2.291,5.737c-0.381,1.592-0.797,3.182-1.326,4.729c-0.77,2.25-2.496,3.852-3.958,5.636
	c-3.868,0.496-7.422-0.174-10.669-2.3c-0.2-0.131-0.438-0.218-0.617-0.372c-1.032-0.881-1.972-0.526-3.051,0.02
	c-1.538,0.777-3.153,1.431-4.787,1.979c-1.818,0.611-3.598-0.032-5.391-0.4c-1.258-0.26-2.563-0.326-3.852-0.381
	c-0.387-0.017-0.863,0.205-1.164,0.469c-2.677,2.354-5.264,4.812-8.001,7.092c-1.471,1.224-3.172,2.172-4.789,3.213
	c-1.249,0.804-2.633,1.433-3.777,2.362c-1.981,1.608-3.811,3.403-5.729,5.088c-0.645,0.566-1.418,0.988-2.052,1.565
	c-1.741,1.585-3.478,3.181-5.141,4.847c-0.7,0.701-0.571,1.716-0.476,2.626c0.125,1.198,0.362,2.384,0.488,3.582
	c0.071,0.662,0.013,1.336,0.013,2.233c-0.256-0.333-0.465-0.499-0.53-0.708c-0.404-1.285-0.76-2.585-1.168-3.869
	c-0.122-0.383-0.356-0.729-0.548-1.108c-1.13,0.365-1.107,1.279-1.339,2.022c-0.471,1.513-0.879,3.046-1.398,4.542
	c-0.189,0.549-0.615,1.018-0.932,1.523c-0.135-0.03-0.268-0.061-0.401-0.092c-0.01-0.483-0.085-0.977-0.018-1.449
	c0.221-1.525,0.468-3.047,0.758-4.561c0.121-0.631,0.157-1.213-0.131-1.825c-0.767,0.005-1.215,0.4-1.677,0.837
	c-1.682,1.588-3.369,3.167-5.088,4.712c-0.475,0.426-1.067,0.718-1.607,1.072C28.019,146.861,27.93,146.757,27.84,146.653z
	 M73.08,108.474c-3.538,0.533-6.154,2.183-8.471,4.471c0.731,0.754,1.478,0.804,2.298,0.425c2.177-1.004,4.354-2.006,6.533-3.005
	c0.512-0.235,0.915-0.537,0.802-1.346C73.857,108.837,73.397,108.622,73.08,108.474z M77.837,105.932
	c0.476,0.994,1.219,1.328,2.079,1.171c1.112-0.203,2.083-0.762,2.711-1.746c0.397-0.62,0.633-1.301,0.171-2.137
	c-0.456-0.169-0.987-0.364-1.413-0.522C79.488,103.104,78.443,104.242,77.837,105.932z M89.687,88.822
	c1.001,0.86,1.679,0.947,2.604,0.378c1.305-0.801,1.761-1.871,1.368-3.207C91.596,85.149,89.99,86.262,89.687,88.822z"/>
<path fill-rule="evenodd" clip-rule="evenodd" fill="#f04c47" class="fill" d="M52.965,91.374c-3.394,1.604-5.725,1.581-7.334-0.463
	c0-0.597,0-1.261,0-2.015c-1.574-0.602-3.277-1.025-4.729-1.875c-1.462-0.856-2.677-2.138-4.085-3.305
	c2.035-1.906,4.658-1.513,7.008-2.205c0.073-0.294,0.148-0.601,0.23-0.936c-2.172-1.338-4.293-2.645-6.413-3.952
	c0.024-0.119,0.049-0.239,0.073-0.357c2.18-0.297,4.425,0.337,6.782-0.149c-0.749-2.558-2.532-4.386-3.776-6.711
	c1.682-0.171,3.014,0.154,4.23,1.023c0.44,0.314,0.835,0.879,1.588,0.365c-0.311-2.813-2.554-4.992-2.818-7.977
	c1.193,0.267,1.97,0.987,2.65,1.751c0.664,0.746,1.171,1.631,1.794,2.522c1.305-1.21,1.161-2.781,1.709-4.224
	c2.192-0.034,4.295,0.331,5.967,1.89c0.794,0.741,1.448,1.69,1.97,2.652c1.15,2.126,2.851,3.571,4.979,4.652
	c1.801,0.915,3.554,1.942,5.26,3.024c1.66,1.053,2.45,2.657,2.482,4.628c0.023,1.395,0.074,2.761,0.547,4.125
	c0.606,1.75-0.322,3.627-1.995,4.484c-1.765,0.904-3.585,1.636-5.593,1.79c-0.335,0.025-0.695,0.025-0.996,0.152
	c-2.329,0.976-4.836,0.753-7.258,1.094C54.578,91.452,53.896,91.374,52.965,91.374z M46.346,83.574
	c0.666,0.073,1.248,0.138,1.889,0.209c0.848-2.471,0.878-4.909,1.174-7.423c-0.421-0.149-0.793-0.281-1.253-0.443
	C46.79,78.34,46.293,80.812,46.346,83.574z M55.656,66.722c-2.947,0.772-5.544,3.4-5.439,5.376c0.43,0.031,0.877,0.063,1.024,0.073
	c0.863-0.95,1.48-1.735,2.208-2.4c0.668-0.608,1.461-1.077,2.184-1.626c0.176-0.136,0.297-0.347,0.671-0.795
	C56.021,67.077,55.769,66.831,55.656,66.722z M53.833,80.643c-0.036,0.151-0.071,0.302-0.106,0.453
	c0.562,0.308,1.091,0.722,1.689,0.904c1.711,0.517,3.348,0.11,4.826-0.769c0.587-0.348,1.014-0.998,1.434-1.569
	c0.107-0.145-0.086-0.512-0.171-0.911c-0.354,0.22-0.546,0.285-0.661,0.417c-1.761,2.032-3.816,2.62-6.295,1.355
	C54.377,80.435,54.074,80.597,53.833,80.643z M53.385,73.873c0.362,0.939,0.861,0.843,1.475,0.708
	c1.052-0.233,2.062-0.791,3.163-0.587c0.356,0.708,0.676,1.344,1.035,2.058c0.309-0.104,0.542-0.183,0.874-0.296
	c-0.467-1.091-0.891-2.079-1.351-3.152C56.747,73.051,55.104,73.453,53.385,73.873z M67.065,80.676
	c-0.653-0.248-1.11-0.42-1.583-0.6c-0.299,0.256-0.539,0.46-0.775,0.663C65.507,81.812,65.752,81.825,67.065,80.676z"/>
<path fill-rule="evenodd" clip-rule="evenodd" fill="#f04c47" class="fill" d="M129.659,97.525c-0.039,0.482-0.057,0.71-0.08,1.011
	c-1.815,0.483-3.556-1.261-5.488-0.06c1.298,1.101,2.957,0.945,4.401,1.644c0.028,0.226,0.065,0.539,0.104,0.862
	c-0.633,0.294-1.212,0.563-1.995,0.928c0.513,0.34,0.816,0.54,1.232,0.817c-0.176,1.015-0.361,2.092-0.579,3.343
	c-0.505,0.062-0.999,0.19-1.486,0.172c-1.822-0.071-3.643-0.23-5.465-0.261c-0.447-0.007-0.898,0.352-1.642,0.667
	c2.538,2.37,4.842,4.523,7.128,6.659c0.036,1.3-0.306,2.412-1.025,3.366c-0.944,0.108-1.504-1.079-2.505-0.539
	c-0.184,1.028,0.955,1.197,1.281,1.881c-0.985,1.668-2.157,2.778-4.762,4.525c-4.485,0.386-8.383-1.241-9.886-4.416
	c3.544-1.718,3.544-1.718,3.57-2.646c-1.554,0.17-3.104,0.428-4.661,0.485c-1.594,0.057-3.159-0.211-4.627-1.255
	c0.273-0.314,0.505-0.58,0.719-0.827c1.117-0.002,2.199,0.74,3.407-0.216c-0.727-0.37-1.332-0.677-1.937-0.984
	c2.099-0.007,4.073,0.932,6.227,0.537c0.024-0.739-0.438-0.943-0.975-1.057c-0.989-0.21-1.985-0.38-2.969-0.611
	c-0.544-0.128-1.067-0.346-1.603-0.524c0.906-2.383,1.758-4.622,2.631-6.919c0.901-0.333,1.92,0.741,2.89-0.148
	c-0.562-0.83-1.486-0.983-2.43-1.355c0.125-0.455,0.246-0.896,0.367-1.332c0.428-0.231,0.804-0.436,1.167-0.633
	c1.575,0.174,3.131,0.557,4.665-0.225c-1.496-1.105-3.357-0.604-5.145-1.241c0.406-0.785,0.815-1.571,1.231-2.374
	c2.501,0.341,4.756,1.399,7.422,1.428c-0.559-1.047-1.3-1.409-2.125-1.622c-0.791-0.205-1.602-0.331-2.393-0.533
	c-0.589-0.15-1.16-0.367-1.97-0.629c0.558-0.726,0.977-1.275,1.39-1.812c1.895-0.222,3.58,0.398,5.292,0.85
	c2.185,0.576,4.372,1.144,6.546,1.758C126.918,96.614,128.229,97.07,129.659,97.525z"/>
<path fill-rule="evenodd" clip-rule="evenodd" fill="#f04c47" class="fill" d="M174.193,108.011c-0.484,0.307-0.969,0.615-1.558,0.991
	c1.128,0.972,2.057-0.307,3.034,0.127c0.049,1.248-1.701,0.17-1.734,1.493c0.77,0.074,1.555,0.151,2.484,0.241
	c-0.579,0.749-1.714,0.356-1.909,1.403c0.745,0.614,1.849-0.471,2.593,0.623c-0.471,0.104-0.862,0.186-1.251,0.279
	c-0.399,0.095-0.912,0.029-0.987,0.867c0.708,0.071,1.42,0.144,2.097,0.211c0.411,1.377-0.04,2.188-1.354,2.212
	c-0.778,0.015-1.584-0.288-2.343-0.551c-0.78-0.271-1.517-0.668-2.207-1.134c-2.107-0.458-4.215-0.933-6.33-1.359
	c-0.459-0.093-0.991-0.135-1.426,0.001c-2.716,0.857-5.504,0.812-8.332,0.743c-1.388-0.792-2.795-1.593-4.33-2.469
	c0.722-0.76,1.885-0.775,2.105-1.919c-0.77-0.315-1.464-0.291-2.223,0.004c-0.981,0.381-1.98,0.786-3.01,0.955
	c-2.76,0.453-5.238-0.277-7.4-2.062c-0.182-0.151-0.391-0.271-0.694-0.479c-2.592,1.117-5.247,2.219-8.358,2.497
	c0.642-3.423,0.803-6.789,0.314-10.305c1.83,0,3.451-0.023,5.071,0.004c2.937,0.048,5.873,0.196,8.808,0.172
	c2.617-0.022,4.866,0.819,7.006,2.273c2.49,1.693,4.673,3.71,6.768,5.848c0.775,0.792,1.588,1.545,2.398,2.303
	c1.726,1.612,2.899,1.667,4.917,0.471c2.024-1.2,4.105-2.305,6.194-3.392c0.455-0.237,1.045-0.219,1.573-0.32
	C174.138,107.829,174.166,107.92,174.193,108.011z"/>
<path fill-rule="evenodd" clip-rule="evenodd" fill="#f04c47" class="fill" d="M148.404,131.454c-2.118,1.833-4.304,2.624-7.011,1.863
	c-2.577-0.724-4.62-1.913-5.205-4.794c-0.377,0.073-0.644,0.051-0.815,0.169c-1.492,1.024-2.984,0.677-4.362-0.132
	c-1.151-0.677-2.175-1.575-3.25-2.382c-0.267-0.2-0.512-0.428-0.831-0.698c-2.471,0.708-4.846,2.11-7.644,1.438
	c1.618-2.409,3.754-3.969,6.873-5.026c1.589,0.785,3.347,1.238,5.213,0.805c0.317-0.074,0.585-0.369,1.124-0.728
	c-1.324-0.269-2.357-0.382-3.323-0.7c-0.997-0.328-1.93-0.855-2.974-1.333c-0.329,0.058-0.734,0.128-1.15,0.201
	c0.029-1.395,1.417-1.626,1.991-2.691C134.619,121.43,141.991,125.552,148.404,131.454z"/>
<path fill-rule="evenodd" clip-rule="evenodd" fill="#f04c47" class="fill" d="M34.827,61.549c1.56-0.729,3.421-0.11,4.92-1.289
	c-0.57-1.548-1.124-3.057-1.681-4.569c3.738-1.03,7.707,1.395,8.058,4.964c-1.751-0.737-3.473-1.339-5.395-1.363
	c-0.413,2.556-0.223,4.939,0.921,7.384c-2.457,0.149-4.754,0.555-6.969,1.728c0.295,1.942,2.322,2.617,3.102,4.273
	c-1.619,0.384-3.176,0.751-4.927,1.167c0.762,2.233,1.562,4.19,2.918,6.033c-0.945,0.364-1.823,0.701-2.843,1.093
	c0.29,2.462,1.513,4.577,2.533,6.969c-2.257-1.279-4.354-2.466-6.6-3.738c0.988-0.486,1.865-0.914,2.827-1.386
	c-0.911-1.353-2.284-1.813-3.62-2.811c2.033-0.862,3.696-1.876,5.341-3.306c-1.356-1.236-2.547-2.322-3.804-3.467
	c1.54-1.169,3.487-1.39,4.759-2.642c-0.077-1.493-1.516-1.788-2.168-2.918c1.675-0.654,3.347-1.114,5.22-1.491
	C36.943,64.403,35.668,63.168,34.827,61.549z"/>
<path fill-rule="evenodd" clip-rule="evenodd" fill="#f04c47" class="fill" d="M81.855,104.043c-0.408,1.498-1.274,2.098-2.498,1.809
	C79.525,104.163,80.404,103.492,81.855,104.043z"/>
<path fill-rule="evenodd" clip-rule="evenodd" fill="#f04c47" class="fill" d="M91.064,88.314c0.279-1.487,0.377-1.59,1.513-1.584
	C92.536,87.852,92.2,88.204,91.064,88.314z"/>
</svg>
