<svg version="1.1" id="svg" xmlns="http://www.w3.org/2000/svg" xmlns:xlink="http://www.w3.org/1999/xlink" x="0px" y="0px"
	 width="200px" height="200px" viewBox="0 0 200 200" enable-background="new 0 0 200 200" xml:space="preserve">
<path class="stroke" fill="#51050f"  d="M189.421,84.882c-5.07,0-10.025-0.09-14.978,0.025c-4.81,0.111-13.72-0.177-14.816-0.775
	c9.92-0.482,19.879,0.386,30.132-0.706c-0.433-0.851-0.667-1.566-1.103-2.125c-1.253-1.604-2.693-3.07-3.865-4.727
	c-1.911-2.704-4.354-4.778-7.043-6.644c-2.148-1.492-4.188-1.875-6.515-0.292c-1.654,1.125-3.521,1.942-5.359,2.935
	c-0.485-0.669-0.937-1.138-1.21-1.695c-1.423-2.902-3.586-5.249-5.673-7.652c-0.702-0.809-1.621-1.452-2.225-2.321
	c-1.938-2.795-5.473-3.634-8.34-1.783c-0.896,0.578-1.731,1.319-2.421,2.133c-1.603,1.892-3.097,3.875-4.64,5.818
	c-1.459,1.839-2.771,3.828-4.423,5.476c-2.746,2.739-5.751,5.216-8.572,7.881c-2.932,2.769-6.571,2.944-10.228,3.261
	c-0.979-2.359-1.866-4.502-2.774-6.692c2.037-1.078,3.931-2.105,5.851-3.083c0.922-0.47,1.48-1.104,1.609-2.178
	c0.245-2.053-1.633-4.438-3.726-4.444c-1.326-0.004-2.695,0.123-3.972,0.463c-3.812,1.018-7.609,2.112-11.373,3.297
	c-1.627,0.512-3.307,1.099-4.706,2.035c-4.02,2.691-7.892,5.605-11.87,8.362c-0.692,0.479-1.607,0.827-2.44,0.877
	c-2.751,0.164-5.429,0.651-8.066,1.418c-0.535,0.156-1.091,0.24-2.04,0.443c0.222-4.644-1.209-8.605-2.576-12.566
	c-1.195-3.457-1.299-6.853,0.155-10.24c0.677-1.579,0.625-3.223,0.567-4.884c-0.102-3.01-1.241-5.685-2.661-8.29
	c1.235-3.367,1.413-6.871,1.464-10.373c0.04-2.72-0.845-3.724-3.428-4.533c-5.119-1.604-10.334-2.562-15.694-3.064
	c-8.612-0.806-17.175-0.658-25.7,0.614c-2.671,0.398-5.391,1.287-7.15,3.643c-1.1,1.472-2.268,2.989-2.935,4.672
	c-2.464,6.206-4.647,12.508-5.517,19.188c-0.603,4.614-0.412,9.146,1.167,13.549c0.489,1.366,1.074,2.738,1.856,3.953
	c2.068,3.22,4.863,5.697,8.216,7.556c1.05,0.583,2.05,1.254,3.119,1.911c-0.209,1.869-0.406,3.628-0.57,5.096
	c-0.741,1.229-1.407,2.17-1.907,3.193c-2.396,4.904-3.512,10.236-4.774,15.475c-1.235,5.122-1.904,10.386-2.687,15.608
	c-0.242,1.605-0.038,3.277-0.038,4.83c0.642,0.612,1.222,1.167,1.756,1.677c-1.175,3.142-1.808,6.188-1.774,9.337
	c0.008,0.79,0.169,1.734,0.623,2.331c1.031,1.354,2.267,2.558,3.467,3.777c0.294,0.3,0.75,0.544,1.163,0.605
	c1.147,0.173,1.965,0.809,2.812,1.658c0,2.526,0.003,5.07,0,7.615c-0.006,5.538,0.004,11.076-0.03,16.613
	c-0.009,1.511,0.106,3.059-0.312,3.875c-2.495,1.724-4.498,3.054-6.438,4.469c-0.957,0.697-1.334,1.743-0.918,2.886
	c0.417,1.142,1.425,1.268,2.517,1.296c5.238,0.135,10.439-0.141,15.575-1.266c1.285-0.282,2.579-0.521,4.047-0.815
	c0.416-1.896,0.806-3.667,1.214-5.525c1.253,0.141,2.485,0.28,3.985,0.448c0.251-8.095,0.492-15.94,0.736-23.817
	c1.604,0,3.089,0,4.606,0c1.034,8.444,2.579,16.611,4.479,24.531c0.516,0.406,0.794,0.676,1.117,0.868
	c2.896,1.718,5.774,3.474,8.719,5.106c1.328,0.736,2.766,1.313,4.208,1.799c2.99,1.007,5.704-0.544,6.43-3.674
	c-1.086-2.638-4.143-3.897-5.429-6.759c1.353-0.072,2.416-0.128,3.605-0.191c0.091-0.564,0.276-1.059,0.229-1.531
	c-0.742-7.344-1.552-14.68-2.27-22.025c-0.722-7.404-1.892-14.786-1.082-22.273c0.344-3.164,0.479-6.349,0.695-9.524
	c0.191-2.793,0.329-5.591,0.557-8.381c0.179-2.201-0.041-4.456,0.747-6.703c3.553-1.056,7.092-2.082,10.613-3.162
	c3.577-1.097,7.136-2.247,10.651-3.357c0.179-0.819,0.312-1.427,0.501-2.298c1.869-0.354,3.776-0.974,5.7-1.022
	c3.699-0.096,7.357-0.085,10.909-1.424c3.669-1.383,7.516-2.377,10.151-5.889c3.253-0.376,6.589-0.78,9.931-1.139
	c1.445-0.155,2.899-0.242,4.353-0.314c3.871-0.193,7.743-0.36,11.612-0.542c2.354-0.111,4.707-0.351,7.059-0.324
	c6.922,0.077,13.843,0.294,20.767,0.386c5.456,0.072,10.914,0.042,16.371,0.046c0.169,0,0.34-0.13,0.656-0.26
	C189.724,86.108,189.597,85.592,189.421,84.882z"/>
<path fill-rule="evenodd" clip-rule="evenodd" fill="#f04c47" class="fill" d="M73.198,88.615c4.826-2.645,10.345-2.428,15.693-3.034
	c0.615,2.383,0.354,7.605-0.496,10.831c-1.855,0.667-3.797,1.437-5.783,2.061c-4.187,1.315-8.389,2.585-12.602,3.813
	c-2.783,0.812-3.039,1.15-3.342,4.07c-0.598,5.772-0.645,11.548-0.527,17.345c0.055,2.653-0.463,5.32-0.746,7.978
	c-0.155,1.443-0.362,2.881-0.536,4.243c-4.84,1.474-20.991,2.121-25.417,0.691c0.406-9.084,0.535-18.17-4.172-26.729
	c-0.566,0.059-1.193,0.124-1.946,0.202c0.544,7.484-1.228,14.441-2.879,21.594c-3.199,0.171-6.075-1.085-9.113-1.598
	c-0.484-2.638-0.293-5.127-0.033-7.57c0.661-6.207,1.87-12.313,3.815-18.261c0.65-1.992,1.224-4.009,1.878-6
	c0.514-1.567,1.418-2.832,2.755-3.413c3.173,0.729,6.127,1.409,9.398,2.161c0.405,0.731,0.971,1.79,1.569,2.83
	c2.041,3.546,4.974,6.025,9.04,6.725c3.629,0.624,7.109,0.086,9.961-2.596c0.352-0.329,0.818-0.551,1.261-0.758
	c1.844-0.861,3.707-1.68,5.546-2.549c2.732-1.289,3.759-3.64,3.936-6.484c0.047-0.759,0.006-1.523,0.006-2.224
	C71.393,90.813,72.233,89.789,73.198,88.615z"/>
<path fill-rule="evenodd" clip-rule="evenodd" fill="#f04c47" class="fill" d="M27.253,70.035c0.702,0.613,1.077,0.94,1.564,1.368
	c1.859-0.529,3.73-1.062,5.519-1.569c0.478-1.451-0.15-2.393-0.795-3.36c-1.471-2.207-2.571-4.573-2.478-7.292
	c0.107-3.156,1.591-5.626,4.2-7.881c0.309,2.829-0.427,5.027-1.822,7.01c0.692,1.014,1.509,0.687,2.294,0.481
	c4.055-1.06,7.154-3.503,9.73-6.708c0.414-0.515,0.86-1.005,1.571-1.834c-0.122,2.173-1.031,3.54-1.871,4.901
	c0.5,1.057,1.203,0.758,1.965,0.533c4.5-1.326,7.972-4.124,10.988-7.591c0.417-0.479,0.836-0.958,1.277-1.416
	c0.118-0.124,0.324-0.165,0.646-0.319c-0.424,3.27-2.854,5.213-4.681,7.868c0.655,0.219,1.187,0.602,1.596,0.5
	c2.77-0.692,5.522-1.455,8.258-2.271c0.84-0.251,1.605-0.744,2.611-1.227c0.96,1.997,1.931,3.997,1.971,6.46
	c-3.397-2.717-10.481-1.697-12.636,1.749c0.061,0.249,0.093,0.571,0.221,0.85c0.128,0.28,0.351,0.518,0.65,0.939
	c3.747,0.33,7.594,1.101,11.509-1.464c-0.251,0.977-0.346,1.696-0.616,2.341c-1.326,3.161-1.218,6.331-0.148,9.516
	c0.789,2.351,1.634,4.683,2.417,7.034c0.813,2.444,0.661,4.912-0.036,7.342c-0.563,1.957-1.553,3.642-3.694,4.553
	c-0.121,1.304-0.31,2.622-0.35,3.945c-0.066,2.131-1.058,3.583-2.933,4.544c-4.814,2.466-9.376,2.004-13.533-1.281
	c-4.506-3.562-7.84-8.109-11.345-12.531c-0.624-0.787-1.034-1.741-1.683-2.856c-0.553,0.134-1.229,0.298-2.053,0.498
	c-0.264,4.329,1.735,8.013,2.522,12.135c-3.423-0.322-6.48-1.363-9.431-3.007c0.52-2.578,0.926-5.083,1.547-7.535
	c0.615-2.427,1.447-4.8,2.271-7.479c-0.897-0.025-1.562-0.042-2.225-0.062c-1.013-0.03-2.038,0.028-3.036-0.107
	c-2.455-0.334-4.045-1.714-4.684-4.14c-0.194-0.738-0.452-1.462-0.611-2.208c-0.631-2.958,0.627-4.824,3.728-5.504
	c1.229,0.793,1.84,1.972,2.026,3.535c-2.146,0.984-3.607,2.394-2.985,4.93c2.286,1.773,3.351,1.82,4.61,0.186
	c-1.003-0.256-1.984-0.507-3.27-0.834C26.495,71.734,26.831,70.982,27.253,70.035z M37.725,63.296c2.659,2,8.592,1.41,11.593-1.182
	c-0.071-0.707-0.153-1.512-0.247-2.435c-0.732-0.308-1.398-0.709-2.12-0.868c-2.494-0.552-4.934-0.281-7.273,0.754
	C37.916,60.343,37.529,61.084,37.725,63.296z M52.969,62.695c0.994,2.244,2.918,3.377,4.443,4.976
	c-0.443,1.375-0.879,2.726-1.322,4.101c0.31,0.116,0.478,0.221,0.652,0.231c0.177,0.011,0.358-0.068,0.803-0.167
	c0.457-1.506,0.944-3.111,1.393-4.592C54.627,62.912,54.241,62.605,52.969,62.695z M62.313,78.886
	c-2.664,0.195-5.121,0.363-7.576,0.561c-0.69,0.055-1.393,0.131-2.053,0.327c-0.345,0.102-0.609,0.48-0.91,0.734
	c0.053,0.195,0.105,0.39,0.158,0.585c3.464-0.616,7.047,0.237,10.48-1.218C62.375,79.493,62.345,79.187,62.313,78.886z
	 M64.126,88.515c0.907-1.462,0.848-1.693-0.817-3.004c-0.476,0.177-1.031,0.385-1.664,0.622
	C62.088,87.542,62.782,88.375,64.126,88.515z"/>
<path fill-rule="evenodd" clip-rule="evenodd" fill="#f04c47" class="fill" d="M56.439,152.608c1.727-0.925,3.716-0.238,5.384-1.477
	c-1.36-0.996-2.775-0.769-4.105-0.907c-0.298-0.738-0.6-1.484-0.875-2.168c-2.372,0.627-4.426,1.362-6.54,1.674
	c-2.118,0.313-4.299,0.198-6.454,0.286c-0.912,0.037-1.823,0.111-2.916,0.18c-0.103,1.04-0.243,1.836-0.249,2.633
	c-0.031,4.202,0.112,8.412-0.081,12.606c-0.154,3.354-0.705,6.691-1.107,10.281c-2.135-0.17-4.126-0.346-6.12-0.481
	c-1.947-0.132-3.937,0.375-5.949-0.378c0-0.555,0-1.096,0-1.69c1.2-0.702,2.496-0.535,3.744-0.655
	c1.183-0.114,2.483,0.474,3.685-0.433c-0.478-1.018-1.168-1.345-2.049-1.356c-1.272-0.016-2.544-0.014-3.816-0.017
	c-0.493-0.002-0.986-0.001-1.549-0.001c0-0.454,0-0.756,0-1.108c2.526-1.524,5.611-0.655,8.528-1.839
	c-1.369-1.431-2.847-1.179-4.216-1.109c-1.38,0.071-2.751,0.321-4.253,0.508c-0.05-0.544-0.087-0.957-0.123-1.354
	c2.493-1.96,5.686-0.966,8.753-2.136c-3.07-2.252-5.853-0.446-8.662-0.535c-0.057-0.36-0.121-0.773-0.182-1.162
	c2.54-1.989,5.903-0.658,8.722-2.266c-1.411-1.322-2.823-1.157-4.247-0.95c-1.374,0.199-2.749,0.394-4.355,0.624
	c0.088-0.854,0.162-1.573,0.249-2.405c2.853-0.353,5.586-0.692,8.319-1.03c-0.003-0.163-0.006-0.326-0.01-0.488
	c-2.487-1.894-5.284-0.735-8.133-0.459c0-0.578,0-1.092,0-1.794c3.074-0.425,6.043-0.834,9.193-1.27
	c-1.194-1.326-1.194-1.326-6.578-1.206c0.213-0.542,0.399-1.017,0.629-1.606c1.091-0.222,2.132-0.491,3.189-0.631
	c0.752-0.1,1.532,0.035,2.29-0.047c0.733-0.079,1.542-0.173,1.761-1.251c-2.041-0.826-4.146-0.356-6.179-0.435
	c-0.284-1.004,0.341-1.188,0.991-1.307c1.378-0.252,2.766-0.453,4.14-0.723c0.571-0.112,1.118-0.345,1.644-0.713
	c-2.169-1.446-4.448-0.812-6.724-0.414c-0.228-1.356,0.882-1.582,1.346-2.413c10.629,1.497,21.106,0.126,31.513-1.276
	c0.595,4.187,1.126,8.148,1.722,12.1c1.096,7.274,0.921,14.611,1.149,21.929c0.012,0.3-0.08,0.604-0.147,1.063
	c-3.775-0.296-7.174,1.686-10.826,1.531c-0.534-1.039,0.118-1.359,0.717-1.521c1.65-0.45,3.321-0.828,4.995-1.189
	c0.886-0.191,0.895-0.148,1.711-1.115c-2.823-1.169-5.382,0.308-8.118,0.67c-0.116-0.338-0.224-0.655-0.345-1.015
	c2.358-1.487,5.253-0.988,7.941-2.407c-3.075-1.222-5.64-0.215-8.336,0.158c-0.053-0.489-0.096-0.89-0.131-1.214
	c2.329-1.886,5.549-0.617,8.094-2.522c-3.051-1.289-5.734-0.063-8.414,0.155c-0.046-0.134-0.092-0.266-0.139-0.399
	c0.287-0.266,0.531-0.673,0.867-0.771c1.521-0.443,3.062-0.826,4.607-1.174c1.034-0.233,2.06-0.418,2.807-1.646
	c-3.069-0.405-5.764,0.113-8.623,1.113c-0.068-0.822-0.117-1.408-0.176-2.102c3.102-0.79,6.062-1.545,9.024-2.299
	c-1.378-0.846-2.703-1.217-4.197-0.77c-1.569,0.468-3.178,0.802-5.003,1.251c-0.084-0.787-0.146-1.373-0.191-1.806
	c2.51-2.056,5.831-1.24,8.47-2.906c-1.706-0.888-4.059-0.739-7.732,0.349C54.743,154.636,54.743,154.636,56.439,152.608z"/>
<path fill-rule="evenodd" clip-rule="evenodd" fill="#f04c47" class="fill" d="M52.001,49.535c-0.63-2.921-1.061-5.45-3.124-7.189
	c-1.3,0.035-1.563,1.015-2.029,1.84c-1.863,3.293-4.439,5.952-7.447,8.515c-0.569-2.622-1.076-4.955-1.644-7.568
	c-0.686,0.202-1.279,0.221-1.656,0.517c-1.097,0.862-2.088,1.857-3.157,2.759c-1.936,1.633-3.331,3.66-4.448,5.908
	c-0.237,0.478-0.57,0.908-1.021,1.613c-0.774-2.563-0.163-4.834-0.17-7.017c-1.138-0.542-1.509,0.268-1.942,0.843
	c-1.381,1.828-2.724,3.681-4.091,5.518c-0.104,0.14-0.278,0.227-0.523,0.419c-1.093-2.315,0.667-4.574,0.224-6.961
	c-2.061,0.401-3.214,1.746-4.801,2.872c0.693-4.646,3.463-7.732,6.104-10.894c0.152,0.044,0.305,0.089,0.457,0.134
	c-0.15,1.203-0.419,2.406-0.418,3.609c0,1.06-0.753,2.486,1.108,3.086c2.345-2.863,4.075-6.298,7.682-8.448
	c0.2,2.647-0.674,5.01-0.701,7.327c0.877,0.649,1.46,0.301,1.976-0.232c0.973-1.008,1.896-2.065,2.887-3.055
	c1.305-1.306,2.633-2.588,3.995-3.835c0.449-0.412,1.03-0.68,1.78-1.162c0.63,2.915,0.064,5.525-0.217,8.097
	c0.844,0.772,1.461,0.277,2.002-0.307c1.38-1.491,2.745-2.996,4.08-4.528c0.912-1.046,1.762-2.147,2.632-3.213
	c2.055,1.262,1.667,4.053,3.504,5.538c3.301-2.62,6.464-5.129,9.628-7.641c2.079,1.284,2.879,2.817,3.684,7.249
	c-0.441,0.826-0.988,1.845-1.535,2.864c-0.15-0.024-0.301-0.049-0.452-0.073c0.07-2.587,0.451-5.263-1.946-7.392
	c-0.473,0.373-1.005,0.682-1.392,1.119c-1.763,1.997-3.44,4.068-5.234,6.036C54.695,47.087,53.446,48.153,52.001,49.535z"/>
<path fill-rule="evenodd" clip-rule="evenodd" fill="#f04c47" class="fill" d="M167.063,80.831c-1.472,0-2.592,0-4.033,0
	c-0.895-1.078-1.937-2.332-3.038-3.658c-0.371,0.162-0.689,0.303-1.079,0.474c0.26,1.119,0.498,2.147,0.73,3.15
	c-1.609,0.644-8.809,0.97-10.959,0.507c0.086-1.076,0.174-2.174,0.271-3.374c-2.404,0.187-1.422,2.386-2.503,3.485
	c-1.02,0-2.197,0-3.649,0c0.94-2.738,1.856-5.402,2.821-8.21c-0.301-0.142-0.653-0.307-1.213-0.57
	c-1.864,3.001-3.671,5.909-5.663,9.114c-0.877,0.076-2.048,0.178-3.26,0.283c0.171-1.534,5.124-9.802,6.648-11.212
	c1.891,0.652,3.229-0.921,5.013-1.499c0.514,1.209,0.979,2.374,1.496,3.514c1.039,2.291,2.529,2.57,4.217,0.717
	c0.807-0.886,1.428-1.94,2.078-2.841c1.899-0.364,3.721-0.713,5.64-1.081C162.75,73.379,164.839,76.988,167.063,80.831z"/>
<path fill-rule="evenodd" clip-rule="evenodd" fill="#f04c47" class="fill" d="M92.796,82.805c3.947-3.146,7.512-6.878,12.495-8.5
	c4.555-1.483,9.05-3.217,13.73-3.92c0.275,0.388,0.435,0.528,0.48,0.697c0.063,0.235,0.045,0.494,0.076,0.98
	c-0.704,0.396-1.422,0.901-2.215,1.226c-1.347,0.55-2.786,0.887-4.099,1.501c-1.316,0.617-2.526,1.464-3.892,2.275
	c-2.41-0.014-4.909,0.149-7.459,1.296c0.899,1.126,1.809,0.956,2.714,0.707c1.611-0.444,3.205-0.679,4.882-0.247
	c1.645,0.424,2.591,1.458,3.161,2.926c-0.494,1.448-1.583,1.083-2.57,1.04c-2.382-0.102-4.765-0.179-7.072-0.263
	c-0.382,1.89-0.589,3.656-1.117,5.319c-0.575,1.811-2.704,1.855-4.099,2.953c1.34,1.39,2.409-0.083,3.713-0.038
	c1.115,0.247,2.416,0.536,3.906,0.866c0.182,0.265,0.452,0.659,0.804,1.168c-3.34,2.003-6.864,1.326-10.419,1.443
	c-0.267-2.023-0.331-4-0.824-5.863C94.493,86.49,93.571,84.721,92.796,82.805z"/>
<path fill-rule="evenodd" clip-rule="evenodd" fill="#f04c47" class="fill" d="M148.431,67.949c-1.831-1.022-2.859,1.049-4.702,1.175
	c0.253-0.852,0.309-1.575,0.657-2.103c1.258-1.903,2.529-3.81,3.955-5.587c1.802-2.243,3.95-1.688,6.06-0.168
	c0.252,0.182,0.45,0.451,0.636,0.708c1.4,1.95,2.79,3.907,4.236,5.936c-0.89,0.395-1.676,0.743-2.488,1.104c-0.79,0-1.606,0-2.505,0
	c-1.038,1.407-2.072,2.811-3.207,4.35C149.493,71.653,149.337,69.58,148.431,67.949z"/>
<path fill-rule="evenodd" clip-rule="evenodd" fill="#f04c47" class="fill" d="M167.649,75.025c1.363-1.63,2.916-2.489,4.495-3.293
	c0.867-0.443,1.767-0.272,2.536,0.255c1.514,1.038,3.033,2.08,4.461,3.23c1.777,1.43,3.466,2.969,5.191,4.463
	c0.412,0.358,0.815,0.726,1.528,1.36c-4.475,0-8.544,0-12.526,0C171.392,78.984,169.573,77.059,167.649,75.025z"/>
<path fill-rule="evenodd" clip-rule="evenodd" fill="#f04c47" class="fill" d="M27.179,145.026c-0.303-2.686-0.606-5.372-0.921-8.159
	c-0.44,0-0.833,0-1.511,0c0.273,3.194,0.535,6.241,0.805,9.387c-1.062-0.073-1.272-0.703-1.36-1.316
	c-0.297-2.072-0.552-4.152-0.784-6.233c-0.068-0.613-0.01-1.239-0.01-2.005c-0.552,0.12-0.893,0.195-1.33,0.29
	c-0.342,2.6-0.138,5.109,0.222,7.631c-1.384-0.258-1.51-0.247-1.628-1.558c-0.167-1.832-0.125-3.682-0.168-5.525
	c-0.01-0.366-0.001-0.731-0.001-1.083c-1.2-0.297-1.497,0.354-1.523,1.219c-0.037,1.182-0.009,2.365-0.009,3.758
	c-1.99-1.692-1.949-4.906-0.031-9.249c4.03,1.924,8.395,2.074,12.738,2.077c1.29,2.583,0.766,4.666-1.541,6.087
	c-0.564-1.147-0.041-2.195,0.351-3.427c-0.409-0.306-0.819-0.612-1.155-0.864c-1.329,0.623-1.136,1.669-1.137,2.587
	c-0.001,1.525,0.141,3.053,0.113,4.577c-0.011,0.629-0.306,1.254-0.471,1.88C27.611,145.077,27.395,145.052,27.179,145.026z"/>
<path fill-rule="evenodd" clip-rule="evenodd" fill="#f04c47" class="fill" d="M114.95,86.529c0.4,0.529,0.766,1.009,1.1,1.45
	c-1.891,2.553-6.812,3.273-8.633,1.289c0.941-1.201,2.47-0.586,3.604-1.145C112.202,87.539,113.466,87.122,114.95,86.529z"/>
<path fill-rule="evenodd" clip-rule="evenodd" fill="#f04c47" class="fill" d="M105.691,86.02c1.314-0.507,2.485-0.959,3.738-1.443
	c1.54,0.772,3.006,0.298,4.358-0.603c0.645,0.551,0.396,0.994-0.07,1.285c-1.791,1.114-3.673,2.022-5.843,2.06
	C107.03,87.333,106.239,87.161,105.691,86.02z"/>
<path fill-rule="evenodd" clip-rule="evenodd" fill="#f04c47" class="fill" d="M62.863,57.961c0,0.667,0,1.331,0,2.11c-1.276,0-2.451,0-3.638,0
	C59.442,58.768,60.7,58.043,62.863,57.961z"/>
<path fill-rule="evenodd" clip-rule="evenodd" fill="#f04c47" class="fill" d="M65.062,57.718c1.124,0.093,1.898,0.157,2.703,0.224
	c-0.426,1.752-0.686,1.906-3.064,1.85C64.812,59.151,64.917,58.549,65.062,57.718z"/>
<path fill-rule="evenodd" clip-rule="evenodd" fill="#f04c47" class="fill" d="M43.522,62.935c-1.51,0-2.786,0-4.074,0
	c0.145-2.112,1.525-2.974,4.148-2.736c-0.024,0.417-0.06,0.838-0.071,1.259C43.513,61.887,43.522,62.317,43.522,62.935z"/>
<path fill-rule="evenodd" clip-rule="evenodd" fill="#f04c47" class="fill" d="M45.446,62.524c0-0.94,0-1.682,0-2.757
	c1.01,0.347,1.729,0.595,2.474,0.851C47.658,62.121,46.589,62.139,45.446,62.524z"/>
</svg>
