<svg version="1.1" id="svg" xmlns="http://www.w3.org/2000/svg" xmlns:xlink="http://www.w3.org/1999/xlink" x="0px" y="0px"
	 width="200px" height="200px" viewBox="0 0 200 200" enable-background="new 0 0 200 200" xml:space="preserve">
<path class="stroke" fill="#51050f"  d="M195.877,77.389c-0.373-1.192-0.809-2.435-1.52-3.439c-3.184-4.484-7.652-5.805-12.922-4.985
	c-3.195,0.497-6.392,0.969-9.574,1.45c-1.291-0.933-2.731-3.315-2.971-4.987c0.396,0.066,0.76,0.105,1.115,0.188
	c2.004,0.47,4.019,0.629,6.054,0.229c2.267-0.447,4.541-0.861,6.794-1.369c1.119-0.252,2.199-0.681,3.294-1.035
	c1.647-0.532,2.409-1.629,2.176-3.383c-0.042-0.319,0.028-0.653,0.062-1.252c0.323-0.201,0.795-0.496,1.018-0.637
	c0.659-3.037-0.894-4.318-2.695-5.125c-1.3-0.584-2.659-0.613-4.033-0.215c-1,0.291-1.998,0.7-3.017,0.773
	c-1.748,0.128-3.511,0.035-4.606,0.035c-2.389-1.259-4.17-2.369-6.079-3.164c-3.023-1.262-6.308-1.415-9.514-1.859
	c-1.305-0.181-2.64-0.185-3.683-1.188c-2.446-2.352-5.346-4.042-8.324-5.599c-0.601-0.314-1.31-0.42-2.01-0.635
	c-0.415,0.541-0.844,0.881-0.984,1.316c-0.812,2.514-0.464,5.099-0.27,7.69c-4.524,1.176-9.137,1.627-13.47,3.033
	c-0.383,0.792-0.687,1.417-0.998,2.054c0.953,1.26,1.854,2.356,3.258,2.892c1.435,0.549,2.864,1.121,4.325,1.594
	c1.384,0.448,2.803,0.781,4.397,1.217c-0.389,0.412-0.594,0.652-0.822,0.866c-2.086,1.94-4.278,3.778-6.239,5.837
	c-2.867,3.007-6.439,4.812-10.252,6.081c-3.274,1.09-6.729,1.628-10.064,2.552c-3.474,0.963-7.036,1.252-10.587,1.649
	c-0.891,0.101-1.807-0.011-2.919-0.028c0.261-0.939,0.422-1.621,0.642-2.286c0.652-1.984,1.359-3.951,1.97-5.948
	c0.177-0.577,0.096-1.231,0.125-1.723c-1.179-0.79-2.146-0.538-3.064-0.143c-2.261,0.973-4.181,2.412-5.741,4.328
	c-0.756,0.927-1.545,1.827-2.318,2.738c-0.368-0.188-0.59-0.251-0.746-0.388c-2.276-2.013-4.812-3.646-7.432-5.178
	c-5.721-3.348-11.428-3.562-17.144-0.037c-1.31,0.807-2.62,1.627-3.843,2.557c-2.195,1.667-4.228,3.472-5.3,6.156
	c-1.428,3.575-2.975,7.103-4.487,10.644c-0.188,0.44-0.476,0.839-0.749,1.313c-2.326,0.047-4.576,0.15-6.822,0.125
	c-4.233-0.047-8.464-0.203-12.696-0.242c-1.585-0.015-3.191,0.042-4.75,0.293c-2.201,0.354-2.605,1.078-2.23,3.328
	c0.015,0.099-0.038,0.208-0.06,0.313c-2.243,1.074-2.834,2.592-1.976,5.171c0.606,0.554,1.244,1.135,1.936,1.765
	c-1.067,1.268-0.811,2.514-0.173,3.817c1.094,0.688,2.283,0.977,3.59,0.7c0.968-0.204,1.934-0.422,2.901-0.627
	c2.526-0.537,5.03-1.249,7.584-1.567c5.129-0.641,10.286-1.077,15.434-1.574c4.829-0.467,6.359-1.416,8.8-5.535
	c0.226-0.379,0.466-0.748,0.687-1.129c0.189-0.327,0.365-0.663,0.523-0.957c2.762,2.199,5.192,4.134,7.487,5.961
	c-0.472,1.322-0.851,2.386-1.332,3.732c-0.589,0.563-1.423,1.358-2.37,2.262c-2.264,0.585-4.638,1.299-7.057,1.799
	c-4.066,0.842-7.933,2.256-11.72,3.899c-1.97,0.854-3.788,2-5.313,3.565c-0.766,0.785-1.572,1.536-2.406,2.248
	c-1.546,1.318-3.202,2.517-4.678,3.907c-3.251,3.064-6.186,6.413-8.545,10.23c-0.559,0.907-1.171,1.774-2.143,2.591
	c0-2.2-0.163-4.177,0.043-6.115c0.232-2.173,0.788-4.313,1.225-6.464c0.178-0.875,0.408-1.739-0.875-2.341
	c-0.488,0.723-1.073,1.382-1.427,2.147c-2.389,5.182-2.526,10.681-2.053,16.573c-0.448-0.456-0.673-0.666-0.877-0.896
	c-1.75-1.969-3.331-4.101-5.603-5.552c-2.084-1.33-4.063-2.84-6.477-3.566c-0.834-0.251-1.691-0.571-2.463,0.256
	c0.176,0.643,0.347,1.273,0.439,1.61c3.361,3.682,7.663,5.971,10.4,10.063c-1.862-0.575-3.548-1.161-5.27-1.609
	c-1.781-0.463-3.602-0.991-5.566,0.055c1.764,3.272,5.045,4.022,8.096,5.346c-1.461,0.989-3.769,0.363-4.246,2.572
	c1.353,0.959,1.615,1.043,3.356,0.979c1.318-0.051,2.597,0.085,3.954,0.649c-0.635,0.829-1.19,1.555-1.72,2.248
	c-0.056,1.923,1.656,2.395,2.642,3.506c0.141,1.121,0.287,2.304,0.408,3.285c1.277,1.35,2.861,1.401,4.226,1.937
	c1.958,0.769,4.013,1.202,6.127,1.101c1.619-0.078,3.155,0.242,4.715,0.613c1.321,0.314,2.691,0.617,4.035,0.593
	c1.626-0.029,3.308-0.199,4.854-0.676c4.144-1.277,6.012-3.273,5.323-7.605c-0.697-4.381-2.845-7.926-7.205-9.751
	c-3.18-1.331-6.51-1.524-9.881-1.561c-0.63-0.006-1.257-0.06-2.289-0.111c0.595-0.526,0.82-0.856,1.127-0.978
	c3.373-1.331,6.757-2.632,10.142-3.934c1.153-0.443,2.313-0.864,3.479-1.3c-0.671-1.506-1.209-1.851-2.461-1.711
	c-1.421,0.157-2.843,0.312-4.26,0.496c-2.243,0.292-4.459,0.687-6.5,1.754c-0.461,0.241-0.978,0.372-1.472,0.554
	c0.161-0.702,0.479-1.192,0.85-1.637c1.79-2.154,3.604-4.29,5.394-6.443c3.374-4.055,7.358-7.337,11.91-10.037
	c4.457-2.641,8.977-5.143,13.69-7.266c2.289-1.031,4.743-1.697,6.688-2.377c1.749,0.585,3.038,1.017,4.491,1.502
	c0.87,2.16,3.028,2.099,5.039,2.252c0,1.794,0.191,3.508-0.035,5.164c-0.68,4.957-1.489,9.895-2.323,14.828
	c-0.264,1.565-1.045,3.083-1.09,4.637c-0.079,2.626-0.194,5.385,0.492,7.87c1.078,3.899,2.771,7.633,4.276,11.407
	c0.75,1.874,2.377,2.483,4.264,2.545c0.438,0.014,0.889,0.02,1.318-0.062c2.266-0.427,4.538-0.843,6.785-1.353
	c0.721-0.164,1.376-0.605,2.222-0.992c-0.702-3.272-1.233-6.439-4.449-8.616c-0.104-0.367-0.392-0.987-0.436-1.625
	c-0.166-2.406-0.535-4.803-0.024-7.232c0.589-2.794,0.837-5.668,2.205-8.249c0.436-0.825,0.922-1.627,1.346-2.459
	c1.396-2.745,2.759-5.509,4.172-8.246c0.571-1.106,1.24-2.163,1.93-3.353c4.518,1.612,8.977,2.938,13.969,2.444
	c-0.801,3.279-1.53,6.255-2.25,9.232c-0.154,0.641-0.406,1.3-0.364,1.933c0.05,0.733,0.177,1.622,0.623,2.135
	c1,1.147,1.306,2.423,1.602,3.865c0.485,2.359,1.908,4.276,4.563,4.084c1.646-0.12,3.303-0.144,4.938-0.343
	c2.303-0.279,3.039-1.33,2.695-3.612c-0.065-0.432-0.139-0.862-0.229-1.404c-0.911-0.783-1.863-1.601-2.92-2.508
	c0.558-4.831,2.051-9.491,3.367-14.355c1.02-0.167,2.074-0.341,3.26-0.537c0.168,1.215,0.317,2.235,0.449,3.26
	c0.459,3.6,0.82,7.217,1.402,10.798c0.396,2.447,0.999,4.992,2.785,6.778c1.491,1.495,2.412,3.077,2.682,5.11
	c0.027,0.218,0.076,0.437,0.147,0.644c0.731,2.106,1.553,2.646,3.738,2.135c2.405-0.562,4.757-1.351,7.16-1.922
	c1.166-0.277,2.027-0.782,2.501-1.863c0.139-3.168-0.962-4.978-3.836-6.225c-0.933-0.404-1.568-0.995-1.743-2.017
	c-0.112-0.648-0.284-1.297-0.315-1.949c-0.238-5.111-0.466-10.224-0.664-15.338c-0.104-2.688,0.497-5.229,1.652-7.665
	c2.097-4.425,4.011-8.922,5.384-13.64c0.33-1.13,0.99-2.206,1.679-3.18c1.551-2.198,3.175-4.348,4.848-6.457
	c1.434-1.807,2.979-3.523,4.467-5.288c0.54-0.64,1.19-0.931,2.037-0.825c3.549,0.446,7.108,0.806,10.643,1.337
	c2.468,0.371,4.898,0.561,7.382,0.167c1.516-0.241,2.599-0.978,3.097-2.372c0.248-0.691,0.139-1.518,0.154-2.283
	c0.012-0.599-0.134-1.236,0.757-1.642c1.553,0.676,2.226,2.07,2.946,3.43c0.36,0.677,0.678,1.402,1.158,1.985
	c1.132,1.371,2.868,1.351,4.56,0.726C195.402,80.743,196.273,78.657,195.877,77.389z"/>
<path class="stroke" fill="#51050f"  d="M30.904,163.541c0.194,1.479,0.875,2.23,2.197,2.478c1.487,0.279,2.612-0.216,3.266-1.454
	c-0.306-0.539-0.618-1.09-1.004-1.775C33.817,162.93,32.253,162.618,30.904,163.541z"/>
<path class="stroke" fill="#51050f"  d="M5.958,145.481c-0.256,0.318-0.574,0.716-0.896,1.116c0.806,1.289,1.854,1.836,3.121,1.964
	c1.477-1.132,1.551-1.625,0.527-3.08C7.848,145.481,6.988,145.481,5.958,145.481z"/>
<path class="stroke" fill="#51050f"  d="M24.915,163.033c-0.103,2.103,1.006,2.781,2.961,1.808c0.629-0.896,0.383-1.721-0.269-2.57
	C26.456,161.943,25.567,162.12,24.915,163.033z"/>
<path fill-rule="evenodd" clip-rule="evenodd" fill="#f04c47" class="fill" d="M90.806,77.297c-0.32,1.23-0.579,2.351-0.906,3.451
	c-0.892,3.015-0.007,5.396,2.64,7.313c1.075-0.016,2.269,0.966,3.764-0.026c-0.744-0.425-1.295-0.739-1.912-1.092
	c0-0.345,0-0.702,0-1.046c0.84-0.067,1.597-0.129,2.353-0.189c0.015-0.115,0.028-0.23,0.042-0.345
	c-0.736-0.536-1.473-1.072-2.302-1.674c0.099-0.609,0.192-1.189,0.292-1.808c0.794-0.067,1.506-0.127,2.219-0.188
	c0.036-0.129,0.07-0.257,0.106-0.388c-0.562-0.381-1.125-0.762-1.863-1.263c0.115-0.558,0.253-1.226,0.381-1.858
	c0.7-0.161,1.261-0.29,2.021-0.463c-0.492-0.55-0.838-0.939-1.257-1.406c0.803-2.487,2.329-4.479,4.561-6.259
	c0.14,1.002-0.255,1.664-0.503,2.329c-2.051,5.509-2.688,11.202-2.26,17.037c0.08,1.09,0.295,1.429,1.329,2.371
	c0.887,0.201,1.729,0.212,2.36-0.901c-0.783-2.259-2.324-4.504-1.557-7.376c0.971,0.855,1.472,2.279,3.123,1.936
	c-0.812-1.583-1.568-3.059-2.303-4.495c0.164-0.172,0.229-0.304,0.303-0.308c0.374-0.022,0.747-0.011,1.127-0.011
	c0.997,2.111,1.689,4.391,4.556,4.685c-0.922-1.564-1.842-3.13-2.884-4.901c0.925-0.163,1.591-0.281,2.302-0.406
	c1.114,1.663,1.661,4.034,4.634,3.55c-0.96-1.212-1.817-2.293-2.868-3.619c0.971-0.221,1.634-0.373,2.236-0.511
	c0.991,0.407,1.124,2.104,2.706,1.563c-0.226-0.613-0.426-1.157-0.695-1.886c0.779-0.257,1.487-0.49,2.226-0.734
	c0.521,0.109,1.049,0.219,1.579,0.331c-0.013-0.072-0.025-0.142-0.038-0.211c1.609-0.507,3.188-1.182,4.837-1.484
	c3.752-0.687,7.007-2.5,10.371-4.138c3.361-1.636,5.858-4.251,8.412-6.818c0.745-0.75,1.534-1.148,2.54-1.368
	c2.677-0.588,5.433-0.9,7.944-2.114c0.329-0.159,0.644-0.347,0.884-0.478c0.05-0.252,0.113-0.372,0.083-0.461
	c-0.083-0.256-0.205-0.5-0.332-0.797c-2.182-0.544-4.367-1.073-6.543-1.636c-2.019-0.522-4.027-1.079-6.04-1.624
	c-1.167-0.317-2.326-0.653-3.497-0.96c-0.812-0.212-1.58-0.468-1.97-1.47c1.06-0.673,2.269-0.771,3.429-0.911
	c3.273-0.394,6.555-0.786,9.845-1.013c1.799-0.125,3.622,0.117,5.436,0.123c0.683,0.002,1.368-0.195,2.338-0.346
	c-0.335-0.719-0.563-1.208-0.799-1.714c-2.062,0.113-3.749-0.367-4.925-2.017c-1.162-1.628-1.67-3.411-1.367-5.471
	c1.168,0.095,2.051,0.6,2.814,1.341c1.336,1.298,2.436,2.864,4.199,3.669c0.746,1.737,2.29,1.43,3.69,1.402
	c3.817-0.076,7.423,0.781,10.863,2.388c1.644,0.768,3.259,1.599,4.925,2.311c1.66,0.711,3.456,0.523,5.208,0.574
	c0.484,0.014,0.97,0.001,1.52,0.001c0.392,2.94,2.231,4.054,5.129,4.003c0.095,0.522,0.185,1.011,0.256,1.404
	c-0.273,0.246-0.377,0.405-0.52,0.458c-3.929,1.46-7.869,2.903-12.172,2.376c-0.966-0.12-1.903-0.493-2.849-0.763
	c-0.474-0.134-0.928-0.375-1.408-0.435c-1.723-0.209-2.891,0.849-2.82,2.585c0.095,2.278,1.271,4.046,2.795,5.629
	c2.335,2.429,5.371,3.363,8.557,3.881c1.232,0.201,2.512,0.124,3.771,0.152c0.426,0.011,0.854-0.042,1.302-0.068
	c-0.135,0.881-0.256,1.662-0.399,2.592c-0.131,0.042-0.371,0.172-0.619,0.192c-4.244,0.347-8.434,0.011-12.614-0.823
	c-3.043-0.606-5.899-1.733-8.8-2.756c-1.275-0.45-2.547-0.59-3.887-0.24c-2.062,0.537-3.546,1.698-4.316,3.71
	c-0.195,0.513-0.368,1.032-0.577,1.617c-0.413,0.169-0.851,0.348-1.36,0.557c0.374,0.507,0.699,0.949,1.162,1.579
	c-0.986,0.237-1.732,0.415-2.479,0.593c-0.027,0.114-0.055,0.226-0.082,0.339c0.593,0.316,1.187,0.632,1.944,1.037
	c-0.05,0.375-0.109,0.827-0.156,1.183c-1.204,0.607-2.349-0.85-3.456,0.261c0.738,1.09,2.079,0.934,3.131,1.593
	c-0.082,0.715-0.166,1.448-0.244,2.146c-1.469,0.507-2.704-1.089-4.135-0.083c0.894,1.326,2.455,1.141,3.732,1.808
	c-0.123,0.584-0.239,1.143-0.381,1.81c-1.639-0.23-3.133-0.44-4.625-0.651c-0.037,0.129-0.076,0.257-0.113,0.386
	c1.093,1.222,2.799,1.068,4.395,1.661c-0.122,0.62-0.244,1.235-0.377,1.909c-1.826,0.421-3.409-0.809-5.168-0.634
	c0.418,1.141,0.418,1.141,4.86,2.281c-0.325,0.916-0.644,1.819-0.947,2.678c-1.9,0.159-3.093-1.892-5.189-1.104
	c1,1.649,2.735,1.904,4.399,2.656c-0.284,0.614-0.562,1.21-0.858,1.844c-1.784-0.447-3.111-1.936-5.3-1.581
	c1.038,1.946,2.98,2.027,4.453,2.982c-0.122,0.288-0.238,0.562-0.354,0.83c-2.08,0.253-3.876-0.45-5.605-1.307
	c-1.126-0.558-1.501-1.786-1.293-3.277c0.105-0.767,0.686-1.594-0.248-2.406c-1.213,0.571-2.496,1.147-3.75,1.776
	c-3.471,1.736-7.119,2.958-10.952,3.497c-1.551,0.218-3.169-0.019-4.754-0.071c-0.548-0.018-1.092-0.12-1.639-0.155
	c-2.218-0.145-4.147-1.055-5.893-2.344c-0.548-0.405-0.92-1.083-1.293-1.686c-0.638-1.024-1.518-1.642-2.728-1.932
	c-0.477,0.65-0.768,1.183-0.804,2.057c-0.06,1.398-0.441,2.83-0.935,4.155c-0.938,2.517-1.944,5.021-3.129,7.429
	c-0.817,1.663-2.105,3.09-2.967,4.736c-1.708,3.264-3.258,6.61-4.89,9.915c-0.996,2.021-2.237,3.95-2.987,6.057
	c-1.318,3.705-3.006,7.382-2.805,11.436c0.126,2.567,0.623,5.115,0.971,7.814c1.056,0.323,2.032,0.662,3.031,0.914
	c0.825,0.208,1.642,0.356,1.809,1.639c-2.34,0.763-4.766,0.756-7.286,0.737c-1.277-2.136-2.073-4.442-2.165-6.856
	c-0.164-4.301,0.263-8.565,1.635-12.691c0.276-0.832,0.37-1.727,0.656-2.555c0.276-0.803,0.694-1.556,1.133-2.519
	c-0.461-0.994,0.426-1.985,0.689-3.062c0.728-0.213,1.38-0.405,2.336-0.687c-0.641-0.455-1.013-0.72-1.455-1.035
	c0.093-0.431,0.19-0.898,0.268-1.262c0.916-0.802,2.201,0.139,3.139-1.062c-0.855-0.32-1.585-0.591-2.44-0.913
	c0.239-0.596,0.475-1.184,0.668-1.661c1.11-0.52,2.337,0.313,3.45-0.86c-1.023-0.319-1.861-0.581-2.824-0.88
	c0.283-0.771,0.541-1.473,0.816-2.224c1.02-0.081,1.975-0.155,2.964-0.232c-0.075-0.81-0.619-0.832-1.062-0.979
	c-0.408-0.137-0.814-0.279-1.344-0.462c0.21-0.515,0.39-0.951,0.564-1.378c0.945-0.107,1.786-0.204,2.682-0.306
	c-0.288-1.195-1.282-0.898-2.076-1.352c0.098-0.491,0.207-1.042,0.328-1.647c1.109-0.131,2.122-0.252,3.302-0.392
	c-0.823-1.177-1.978-0.365-2.951-0.952c0.028-0.58,0.062-1.26,0.1-2.052c0.964-0.184,1.845-0.352,2.86-0.546
	c-0.776-1.014-1.793-0.309-2.662-0.759c-0.192-0.736-0.41-1.564-0.666-2.539c0.963-0.051,1.789-0.097,2.615-0.141
	c-0.879-1.175-2.088-0.671-2.801-0.815c-1.296-0.686-2.25-1.411-3.324-1.719c-4.217-1.211-6.118-4.192-6.688-8.301
	c-0.097-0.698-0.27-1.386-0.427-2.18c-1.148-0.167-2.217-0.323-3.432-0.501c0.163-0.655,0.303-1.212,0.464-1.857
	c-1.41-0.342-1.554,1.11-2.421,1.672c-0.176-0.048-0.423-0.114-0.87-0.237c0.487-1.39,0.948-2.706,1.481-4.227
	c-2.091,0.536-2.266,2.49-3.284,3.817c-0.395-1.621-0.115-2.956,1.187-6.074c-1.274,0.295-1.555,0.52-2.176,1.982
	c-0.416,0.98-0.762,1.992-1.152,3.028c-0.453-0.994-0.493-1.591,0.031-3.259c0.339-1.077,0.838-2.103,1.086-3.319
	c-0.733,0.632-1.467,1.265-2.201,1.896c-0.097-0.046-0.192-0.092-0.29-0.138c0.288-1.304,0.578-2.607,0.868-3.915
	c-1.184-0.525-1.397,0.68-2.073,1.013c-1.119-0.33-2.122-1.228-3.495-0.733c0.261,1.548,2.343,1.055,2.673,2.729
	c-0.122,0.227-0.363,0.682-0.593,1.114c-1.547-0.428-2.7-1.81-4.768-1.057c1.517,1.001,2.788,1.841,4.126,2.726
	c-0.243,0.599-0.422,1.04-0.625,1.541c-1.618-0.603-2.991-1.979-5.179-1.119c1.487,1.049,3.194,1.259,3.994,2.954
	c-0.091,0.218-0.244,0.587-0.44,1.056c-1.458-1.099-2.923-1.543-4.713-1.188c0.499,1.257,1.613,0.956,2.418,1.495
	c0.258,0.462,0.579,1.033,0.947,1.688c-0.218,0.33-0.446,0.677-0.702,1.068c-1.368-0.874-2.526-2.104-4.463-1.548
	c0.979,1.34,3.125,1.521,2.965,3.76c-0.499,0.255-1.057,0.563-1.633,0.83c-0.697,0.322-1.537,0.461-2.093,0.938
	c-1.873,1.606-4.125,2.073-6.438,2.215c-3.428,0.211-6.76,0.892-10.08,1.687c-0.152,0.037-0.322,0.005-0.621,0.005
	c-0.134-0.353-0.302-0.737-0.425-1.136c-0.394-1.263-1.169-2.231-2.256-2.961c-0.884-0.594-1.729-0.658-2.562,0.282
	c0.814,2.042,0.594,4.032-0.599,5.865c-2.136,1.194-6.14,2.276-7.399,1.98c0.15-1.439,1.295-2.178,2.443-3.221
	c-0.448-0.289-0.742-0.603-1.085-0.67c-0.588-0.115-1.206-0.082-1.811-0.101c-0.762-0.023-1.388-0.267-1.868-1.167
	c0.444-0.6,0.918-1.234,1.352-1.819c0.916-0.137,1.697-0.255,2.77-0.416c-0.918-1.06-1.627-1.88-2.308-2.667
	c0.616-1.01,1.434-0.933,2.181-0.915c3.133,0.076,6.267,0.23,9.4,0.274c1.648,0.024,3.298-0.158,4.948-0.181
	c3.188-0.043,6.378-0.04,9.567-0.058c0.272-0.002,0.544-0.032,0.796-0.048c1.171-0.788,1.634-1.998,1.935-3.212
	c1.285-5.211,3.985-9.644,7.543-13.552c2.089-2.293,4.723-3.951,7.577-5.178c2.371-1.019,4.832-0.895,7.284-0.23
	C83.71,71.23,87.621,73.73,90.806,77.297z M165.172,59.37c1.331-0.049,2.53-0.372,3.498-1.291c1.41-1.338,1.082-3.443-0.629-4.221
	c-1.691-0.768-4.92,0.066-5.998,1.55c-1.029,1.415-0.591,2.989,1.053,3.563C163.752,59.203,164.477,59.243,165.172,59.37z"/>
<path fill-rule="evenodd" clip-rule="evenodd" fill="#f04c47" class="fill" d="M65.801,108.237c-2.582,1.202-5.207,2.324-7.738,3.628
	c-2.783,1.432-5.443,3.102-8.225,4.541c-5.93,3.068-10.635,7.558-14.85,12.621c-1.935,2.323-3.792,4.71-5.638,7.104
	c-0.53,0.685-0.899,1.494-1.405,2.353c0.306,0.211,0.594,0.41,0.961,0.664c3.935-2.669,8.238-4.133,13.011-4.133
	c-4.672,1.901-9.629,3.229-13.612,6.858c0.305,0.228,0.551,0.549,0.853,0.615c0.636,0.139,1.301,0.183,1.954,0.198
	c2.14,0.05,4.281,0.042,6.42,0.105c2.692,0.081,5.185,0.888,7.517,2.208c0.284,0.161,0.607,0.325,0.791,0.575
	c1.429,1.947,2.905,3.864,3.66,6.213c0.477,1.486,0.319,2.962-0.128,4.389c-0.447,1.421-1.67,2.169-2.968,2.667
	c-3.042,1.166-6.161,1.582-9.37,0.686c-1.97-0.549-3.965-0.845-6.027-0.816c-2.992,0.041-5.62-1.253-8.374-2.275
	c-0.155-1.319-0.288-2.457-0.421-3.589c-0.861-0.749-1.718-1.494-2.684-2.333c0.911-1.113,1.693-2.067,2.595-3.166
	c-2.235-1.684-4.828-1.016-7.53-1.513c1.945-1.214,4.061-0.705,5.854-1.689c-0.882-1.095-1.854-1.324-2.744-1.71
	c-1.955-0.848-4.154-1.161-5.838-2.609c-0.27-0.23-0.499-0.505-0.969-0.985c4.061,0.059,7.275,1.669,10.438,3.356
	c0.783-0.493,0.732-1.108,0.327-1.719c-0.755-1.143-1.425-2.382-2.366-3.354c-1.409-1.453-3.032-2.7-4.547-4.053
	c-1.352-1.206-2.681-2.437-4.011-3.666c-0.05-0.047-0.006-0.195-0.006-0.359c1.31,0.09,2.38,0.756,3.433,1.411
	c1.31,0.81,2.66,1.586,3.838,2.565c2.299,1.905,4.254,4.132,5.523,6.88c0.274,0.594,0.377,1.326,1.506,1.137
	c0.245-0.387,0.596-0.867,0.871-1.386c2.175-4.099,4.884-7.832,7.686-11.516c2.374-3.121,4.971-6.001,8.045-8.447
	c1.591-1.266,3.174-2.545,4.685-3.905c1.784-1.608,3.788-2.811,6.029-3.633c2.626-0.963,5.236-1.98,7.902-2.815
	c1.817-0.569,3.719-0.866,5.583-1.285C65.82,108.115,65.811,108.176,65.801,108.237z"/>
<path fill-rule="evenodd" clip-rule="evenodd" fill="#f04c47" class="fill" d="M193.987,79.406c-0.462-0.063-0.888-0.123-1.263-0.175
	c-0.777-1.222-1.491-2.388-2.247-3.524c-1.511-2.269-3.751-3.278-6.366-3.627c-0.754-0.101-1.504-0.23-2.291-0.353
	c-0.201-0.427-0.381-0.807-0.582-1.231c0.258-0.144,0.434-0.312,0.632-0.34c5.292-0.74,9.781,1.136,12.206,6.002
	C194.559,77.128,194.93,78.216,193.987,79.406z"/>
<path fill-rule="evenodd" clip-rule="evenodd" fill="#f04c47" class="fill" d="M26.337,136.106c-0.088,0.144-0.278,0.459-0.458,0.752
	c-0.194-0.061-0.375-0.08-0.381-0.122c-0.468-3.672-0.342-7.313,0.583-10.908c0.03-0.117,0.214-0.193,0.448-0.395
	C26.266,128.968,25.512,132.36,26.337,136.106z"/>
<path fill-rule="evenodd" clip-rule="evenodd" fill="#f04c47" class="fill" d="M35.023,164.34c-1.209,1.065-1.507,1.041-2.624-0.132
	C33.269,163.716,34.08,163.551,35.023,164.34z"/>
<path fill-rule="evenodd" clip-rule="evenodd" fill="#f04c47" class="fill" d="M7.474,146.235c0.188,0.447,0.336,0.802,0.532,1.268
	c-0.804,0.185-1.134-0.151-1.427-0.72C6.849,146.617,7.104,146.46,7.474,146.235z"/>
<path fill-rule="evenodd" clip-rule="evenodd" fill="#f04c47" class="fill" d="M26.545,163.162c0.573,0.279,0.667,0.613,0.205,1.088
	C26.186,163.806,26.186,163.806,26.545,163.162z"/>
<path fill-rule="evenodd" clip-rule="evenodd" fill="#f04c47" class="fill" d="M163.186,57.657c-0.563-2.261,1.021-3.242,4.423-2.75
	c0.272,0.414,0.596,0.903,0.883,1.337C167.414,58.282,165.621,58.741,163.186,57.657z M165.229,56.749
	c-0.495-0.699-0.906-0.658-1.449-0.221C164.153,57.201,164.537,57.332,165.229,56.749z"/>
</svg>
