<svg version="1.1" id="svg" xmlns="http://www.w3.org/2000/svg" xmlns:xlink="http://www.w3.org/1999/xlink" x="0px" y="0px"
	 width="200px" height="200px" viewBox="0 0 200 200" enable-background="new 0 0 200 200" xml:space="preserve">
<path class="stroke" fill="#51050f"  d="M179.115,87.167c-0.114-1.406-0.496-2.857-1.068-4.15c-3.35-7.56-7.129-14.941-9.234-22.98
	c-8.109-3.68-19.396-2.588-24.541,2.648c0.3,2.199,0.567,4.503,0.936,6.79c0.371,2.297,0.954,4.564,1.232,6.87
	c0.227,1.875-0.064,3.638-1.926,4.831c-1.84,1.179-3.541,2.569-5.313,3.854c-1.644,1.19-3.51,1.782-5.495,2.146
	c-3.299,0.605-6.59,1.277-9.611,2.832c-1.451,0.747-2.892,1.511-4.107,2.148c-4.068-0.547-22.497-5.466-24.33-6.497
	c0.656-0.458,1.275-0.854,1.854-1.302c0.637-0.493,1.237-1.033,1.739-1.457c0.031-3.077-1.012-4.355-3.732-4.523
	c-1.891-0.118-3.795-0.023-5.875-0.023c-1.332-2.153-2.723-4.402-4.078-6.593c1.714-4.026,0.924-5.602-2.63-9.005
	c0.359-4.474-1.236-6.955-7.661-5.917c-3.104-4.142-6.048-8.482-8.57-13.249c-0.525,0.266-0.907,0.458-1.545,0.782
	c2.074,4.509,4.096,8.898,6.185,13.438c-0.542,0.166-1.037,0.371-1.552,0.466c-4.715,0.869-9.438,1.686-14.143,2.602
	c-0.98,0.191-1.98,0.595-2.822,1.135c-4.524,2.908-7.475,7.161-9.742,11.91c-1.475,3.085-2.616,6.333-4.139,9.391
	c-0.773,1.555-1.86,3.077-3.15,4.228c-4.24,3.781-8.58,7.456-13.004,11.02c-1.609,1.297-1.919,2.696-1.401,4.505
	c1.548,5.406,5.317,8.96,9.905,11.803c1.686,1.044,3.411,2.033,5.175,2.937c3.375,1.73,6.781,2.782,10.088-0.178
	c0.456-0.408,0.925-0.817,1.302-1.294c1.275-1.609,2.51-3.25,3.762-4.876c1.045-1.356,2.283-2.607,3.081-4.095
	c0.784-1.464,1.853-2.51,3.151-3.42c3.034-2.126,5.979-4.375,8.391-7.204c1.185-1.391,2.529-2.132,4.326-2.445
	c4.314-0.751,8.586-1.676,12.636-3.477c3.12-1.388,6.345-2.539,9.497-3.785c8.147,2.398,16.41,3.904,24.764,6.609
	c-2.349,1.667-4.336,3.217-6.457,4.554c-3.703,2.334-7.596,4.313-11.521,6.269c-5.748,2.863-11.221,6.274-16.832,9.416
	c-2.443,1.369-4.916,2.688-7.412,3.961c-3.475,1.771-6.987,3.467-10.467,5.23c-0.326,0.166-0.529,0.578-0.745,0.825
	c0.054,0.248,0.062,0.389,0.115,0.512c1.394,3.235,3.517,5.992,5.643,8.766c2.025,2.641,4.526,4.547,7.646,5.658
	c5.946,2.118,11.655,4.758,17.228,7.713c1.752,0.929,3.506,2.007,5.394,2.493c5.489,1.412,10.839,3.407,16.525,4.027
	c2.579,0.281,5.134,0.791,7.716,1.035c1.693,0.16,3.414,0.03,5.169,0.03c1.017-0.789,2.039-1.478,2.942-2.299
	c3.094-2.813,6.363-5.385,9.924-7.589c2.34-1.448,4.465-3.158,6.295-5.236c1.402-1.592,2.918-3.082,4.354-4.646
	c1.296-1.413,2.786-2.719,3.772-4.329c1.817-2.966,3.395-6.086,4.95-9.204c2.009-4.028,3.316-8.244,2.912-12.84
	c-0.045-0.514,0.107-1.045,0.178-1.648c3.559-0.377,6.643-1.499,8.812-4.457c0.082-0.931,0.166-1.883,0.267-3.021
	c1.228-1.002,2.547-2.08,4.086-3.337c-0.162-0.833-0.351-1.801-0.566-2.906C179.213,91.324,179.279,89.218,179.115,87.167z"/>
<path fill-rule="evenodd" clip-rule="evenodd" fill="#f04c47" class="fill" d="M98.652,135.137c-1.683-1.282-3.689-0.099-5.666-0.881
	c1.189-0.953,2.222-1.78,2.986-2.393c2.436-0.439,4.568-0.812,6.691-1.234c0.147-0.029,0.223-0.427,0.446-0.894
	c-1.554,0-2.903,0-4.253,0c-0.068-0.131-0.136-0.262-0.203-0.393c1.268-1.082,2.535-2.164,3.708-3.165
	c2.306-0.234,4.47-0.454,6.683-0.677c0.045-0.508,0.073-0.828,0.123-1.397c-1.51,0.07-2.91,0.136-4.569,0.213
	c0.851-1.829,2.589-2.601,3.415-4.154c2.512-0.138,4.89-0.269,7.371-0.406c0.111-0.409,0.209-0.771,0.357-1.317
	c-1.742,0-3.344,0-5.483,0c1.382-1.512,2.444-2.673,3.579-3.916c1.71,0,3.42,0.013,5.13-0.006c0.716-0.007,1.394-0.126,1.274-1.355
	c-1.498,0-3,0-4.503,0c-0.069-0.153-0.138-0.307-0.208-0.46c1.295-1.134,2.523-2.357,3.912-3.36
	c0.605-0.438,1.529-0.523,2.323-0.597c1.833-0.168,3.677-0.231,5.646-0.345c0-0.551,0-0.972,0-1.471
	c-1.283,0.066-2.49,0.129-3.754,0.195c0.682-1.655,2.672-3.013,4.425-3.102c1.617-0.083,3.271,0.026,4.878-0.916
	c-0.822-1.534-2.315-0.362-3.506-1.085c0.597-0.53,1.125-1,1.526-1.357c1.999-0.276,3.862,0.181,5.657-0.419
	c-0.378-1.092-0.378-1.092-3.586-1.415c0.536-0.668,0.972-1.211,1.424-1.773c1.16,0.171,2.204,0.325,3.465,0.511
	c-0.075-0.764-0.125-1.267-0.178-1.804c0.133-0.025,0.339-0.124,0.523-0.092c4.279,0.746,8.438-0.182,12.609-0.908
	c2.019-0.351,4.035-0.708,6.275-1.102c1.09,2.407,2.217,4.785,2.719,7.419c1.279,6.712-0.338,12.883-3.375,18.834
	c-2.957,5.795-6.943,10.78-11.404,15.483c-4.365,4.604-9.185,8.604-14.369,12.223c-1.787,1.248-3.396,2.751-5.014,4.079
	c-13.521-2.737-26.322-7.281-39.584-12.232c0.938-0.761,1.604-1.333,2.304-1.859c0.654-0.492,1.347-0.934,2.044-1.414
	C93.157,135.645,96.029,136.646,98.652,135.137z"/>
<path fill-rule="evenodd" clip-rule="evenodd" fill="#f04c47" class="fill" d="M44.016,101.17c-0.301,2.551,1.346,3.75,2.338,5.401
	c-0.502,0.641-0.992,1.268-1.627,2.079c-1.331-1.235-2.545-2.36-3.943-3.657c-0.397,1.506,0.627,2.119,1.059,2.936
	c0.438,0.831,1.057,1.566,1.649,2.419c-0.565,0.612-1.067,1.156-1.563,1.693c-1.635-0.165-2.145-1.65-3.248-2.634
	c-1.022,2.196,0.947,3.074,1.802,4.576c-0.194,0.195-0.376,0.378-0.487,0.491c-5.139-2.05-14.514-10.164-15.848-13.799
	c0.923-0.979,1.848-2.172,2.978-3.118c2.782-2.328,5.673-4.526,8.495-6.806c3.079-2.486,5.367-5.467,6.951-9.205
	c1.914-4.516,4.4-8.799,6.793-13.097c0.678-1.217,1.815-2.227,2.888-3.167c1.941-1.702,4.187-2.766,6.82-3.062
	c2.034-0.228,4.033-0.768,6.057-1.114c3.166-0.542,6.331-1.103,9.513-1.529c1.674-0.225,3.402-0.244,4.921,1.411
	c-6.531,3.052-12.962,5.737-20.112,6.557c0,0.808,0,1.454,0,2.207c2.269,0.392,4.299-0.236,6.296-0.87
	c4.762-1.514,9.497-3.109,14.245-4.667c0.387-0.126,0.781-0.224,1.113-0.318c1.73,0.568,2.527,1.911,3.275,3.378
	c-0.496,1.398-0.947,2.801-2.144,3.854c-1.11,0.977-2.323,1.621-3.788,1.914c-3.416,0.682-6.814,1.458-10.221,2.188
	c-1.202,0.257-2.422,0.44-3.607,0.755c-0.495,0.132-0.922,0.521-1.381,0.794c0.037,0.159,0.073,0.316,0.109,0.475
	c0.492,0.142,0.977,0.363,1.479,0.415c4.83,0.501,9.549,0.026,14.164-1.558c1.4-0.481,2.891-0.699,4.275-1.022
	c1.119,1.235,0.982,2.354,0.289,3.386c-1.325,1.97-3.127,3.562-5.238,4.495c-1.354,0.599-3.086,0.428-4.65,0.452
	c-3.625,0.054-7.252,0.017-11.049,0.017c-0.309,0.687-0.588,1.31-0.951,2.122c3.965,1.225,7.568,2.686,11.491,3.009
	c3,0.248,5.341-0.945,7.121-3.281c1.585-2.083,3.557-3.551,6.152-4.189c1.457,0.235,1.958,1.487,2.888,2.558
	c-0.624,0.413-1.044,0.742-1.507,0.99c-4.505,2.406-9.247,4.006-14.352,4.647c-2.904,0.365-5.745,1.226-8.622,1.828
	c-0.726,0.152-1.48,0.17-2.004,0.227c-1.771-0.71-2.301-1.973-2.334-3.47c-2.874-1.641-3.339-2.339-3.699-5.617
	c-2.563-0.709-3.898-2.301-2.904-5.173c-1.763-1.097-3.791-1.836-3.699-4.624c-0.873,0.256-1.514,0.444-2.061,0.604
	c-0.736,5.237,2.697,11.277,7.689,15.153c-0.195,0.834-0.418,1.786-0.712,3.038c-0.876-0.611-1.505-1.049-2.337-1.628
	c-0.656,1.914,0.996,2.863,1.555,4.378c-0.286,0.521-0.635,1.155-1.148,2.092c-1-1.033-1.817-1.879-2.648-2.738
	c-0.712,1.149-0.712,1.149,1.864,4.811c-0.509,0.768-1.06,1.596-1.833,2.76c-1.069-1.4-1.949-2.553-2.972-3.891
	c-0.372,2.307,1.101,3.717,1.929,5.523c-0.561,0.727-1.168,1.515-1.953,2.532C46.359,103.759,45.306,102.595,44.016,101.17z"/>
<path fill-rule="evenodd" clip-rule="evenodd" fill="#f04c47" class="fill" d="M123.672,104.425c-1.232,0.915-2.465,1.831-3.652,2.714
	c-1.514-0.22-2.863-0.417-4.213-0.61c-0.764-0.109-1.531-0.216-1.708,1.16c1.073,0.281,2.149,0.563,3.354,0.878
	c-1.54,1.426-2.977,2.756-4.833,4.474c-1.286,0.369-3.497-1.504-5.632,0.75c1.652,0.243,2.941,0.432,4.387,0.644
	c-0.764,1.882-2.557,2.468-3.411,3.702c-1.703,0.633-3.487-0.848-5.378,0.848c1.299,0.366,2.207,0.622,3.492,0.985
	c-1.568,1.613-2.922,3.006-4.097,4.214c-1.87,0.331-3.537-0.732-5.073,0.379c0.398,1.482,1.793,0.782,2.662,1.399
	c-0.203,1.009-1.213,1.335-1.824,1.984c-0.609,0.645-1.281,1.229-1.824,1.743c-1.82,0.158-3.505,0.289-5.184,0.477
	c-0.151,0.017-0.263,0.4-0.553,0.875c1.106,0.19,2.006,0.346,3.333,0.574c-1.309,0.989-2.361,1.786-3.353,2.535
	c-1.662,0.367-3.373-0.956-4.895,0.006c-0.017,0.209-0.033,0.418-0.05,0.627c0.868,0.314,1.735,0.63,2.78,1.009
	c-1.088,1.005-2.117,1.956-3.076,2.842c-8.15-1.204-13.277-6.054-16.24-13.871c1.277-0.616,2.506-1.335,3.82-1.819
	c4.312-1.586,8.452-3.521,12.465-5.762c2.984-1.665,5.994-3.303,9.088-4.749c6.155-2.876,11.948-6.362,17.677-9.991
	c4.042-2.561,8.217-4.91,12.545-7.479c2.534,0.502,5.2,1.03,8.272,1.639c-0.747,0.925-1.305,1.616-1.674,2.073
	c-1.641,0.539-3.178-0.389-4.666,0.846c0.762,0.45,1.299,0.767,2.064,1.219c-0.629,0.577-1.194,1.098-1.576,1.449
	c-2.138,0.409-4.227-0.399-5.89,1.499c0.888,0.121,1.776,0.241,2.663,0.362C123.541,104.174,123.606,104.299,123.672,104.425z"/>
<path fill-rule="evenodd" clip-rule="evenodd" fill="#f04c47" class="fill" d="M147.596,63.545c5.365-2.584,10.578-3.543,16.081-2.346
	c0.782,0.17,1.827,0.234,1.903,1.53c-1.388,0.334-2.895-0.631-4.419,0.603c1.345,0.419,2.505,0.685,3.581,1.145
	c1.075,0.459,2.299,0.838,2.877,2.3c-2.127,0.014-4.139-1.278-6.188,0.241c2.543,0.783,4.869,1.499,7.176,2.21
	c0.223,0.764,0.392,1.34,0.584,2c-2.229,0.806-4.549-1.424-6.895,0.425c2.849,1.174,6.031,0.877,8.584,3.436
	c-1.171,0.138-1.885,0.228-2.6,0.303c-0.689,0.073-1.381,0.131-2.075,0.406c1.495,1.312,3.389,0.485,5.157,1.143
	c0.341,0.594,0.739,1.287,1.156,2.012c-1.021,0.38-1.902,0.708-2.783,1.036c0.013,0.177,0.025,0.355,0.039,0.533
	c1.291,0.252,2.582,0.505,3.892,0.761c1.538,2.318,3.322,4.479,2.341,7.636c-0.592,0.113-1.17,0.223-1.278,0.244
	c-2.962,2.011-5.556,3.771-7.942,5.39c-3.051-0.53-3.806-1.141-4.635-3.634c0.295-0.351,0.652-0.745,0.974-1.167
	c0.282-0.37,0.524-0.772,0.8-1.184c-1.027-1.941-2.261-3.461-4.525-3.877c-0.689-0.127-1.32-0.578-2.229-0.997
	c-1.738,1.392-3.006,3.6-5.41,4.513c-2.294,0.871-4.396,2.239-6.68,3.14c-2.25,0.888-4.605,1.569-7.399,1.408
	c2.229-0.924,4.158-1.725,6.073-2.519c0.34-0.779,0.637-1.457,0.991-2.269c-0.456-0.589-0.901-1.164-1.459-1.886
	c0.395-0.323,0.835-0.684,1.341-1.099c1.005,0.565,1.941,1.092,2.949,1.66c0.318-0.285,0.6-0.538,1.037-0.93
	c-0.676-0.777-1.283-1.477-2.001-2.303c1.873-2.092,2.866-4.65,2.851-7.446c-0.013-2.236-0.402-4.479-0.738-6.702
	C148.442,67.382,147.995,65.529,147.596,63.545z"/>
<path fill-rule="evenodd" clip-rule="evenodd" fill="#f04c47" class="fill" d="M126.842,93.634c1.914-1.767,3.734-2.797,6.139-2.771
	c0.34,0.683,0.664,1.336,0.987,1.987c0.608,0.431,1.202,0.851,2.017,1.428c-0.592,0.308-0.973,0.676-1.355,0.677
	C132.055,94.962,129.632,94.151,126.842,93.634z"/>
<path fill-rule="evenodd" clip-rule="evenodd" fill="#f04c47" class="fill" d="M96.412,80.229c0.354,0.684,0.597,1.154,0.914,1.769
	c-0.588,0.511-1.137,0.987-1.857,1.612c-0.89-0.262-1.818-0.536-2.887-0.851c0.148-0.976,0.256-1.678,0.385-2.529
	C94.172,80.229,95.217,80.229,96.412,80.229z"/>
<path fill-rule="evenodd" clip-rule="evenodd" fill="#f04c47" class="fill" d="M142.965,88.893c-3.279,2.135-4.199,2.497-6.146,0.566
	c1.406-0.639,2.711-1.231,4.177-1.897C141.576,87.954,142.164,88.352,142.965,88.893z"/>
</svg>
