<svg version="1.1" id="svg" xmlns="http://www.w3.org/2000/svg" xmlns:xlink="http://www.w3.org/1999/xlink" x="0px" y="0px"
	 width="200px" height="200px" viewBox="0 0 200 200" enable-background="new 0 0 200 200" xml:space="preserve">
<path class="stroke" fill="#51050f"  fill-rule="evenodd" clip-rule="evenodd" d="M66.797,180.11c-1.209,1.409-2.105,2.456-2.994,3.493
	c-2.674,0.948-5.367,1.676-8.174,0.932c-5.145-1.361-7.303-4.811-6.439-9.667c0.151-0.85,0.972-1.604,1.559-2.343
	c0.359-0.454,0.861-0.794,1.374-1.253c-0.413-0.85-0.772-1.589-1.004-2.065c-2.823-0.619-5.354-1.157-7.874-1.741
	c-0.517-0.12-0.996-0.412-1.641-0.688c-0.398-0.995-0.897-2.024-1.229-3.105c-0.594-1.946-0.061-3.605,1.726-4.693
	c1.37-0.835,2.888-1.542,4.433-1.947c1.666-0.436,3.443-0.453,5.062-0.641c3.361-1.637,6.66-3.245,10.008-4.875
	c0.836-5.806,3.182-11.183,5.252-16.63c0.912-2.402,2.193-4.683,3.952-6.666c1.153-1.301,2.065-2.816,3.263-4.482
	c-0.318-4.483-0.721-9.226-0.97-13.977c-0.129-2.441-0.157-4.911,0.065-7.342c0.334-3.657,1.771-7.013,3.455-10.235
	c3.435-6.577,6.961-13.106,10.396-19.683c2.012-3.85,3.837-7.8,5.914-11.613c0.993-1.823,2.377-3.434,3.719-5.332
	c-0.652-1.408-1.438-3.088-2.215-4.773c-1.863-4.049-2.296-8.326-2.037-12.718c0.049-0.835-0.016-1.678,0-2.516
	c0.076-3.743,1.34-7.167,3.387-10.183c1.768-2.6,4.486-4.249,7.545-5.006c2.27-0.562,4.647-0.688,6.971-1.05
	c2.205-0.342,4.395-0.772,6.602-1.1c1.727-0.257,3.465-0.456,5.205-0.607c3.729-0.323,7.457-0.509,11.207-0.228
	c2.518,0.189,4.618,1.27,6.608,2.661c1.016,0.709,1.335,1.847,1.472,3.008c0.514,4.298,0.097,8.437-2.199,12.235
	c-0.125,0.206-0.229,0.425-0.322,0.646c-0.045,0.107-0.045,0.234-0.09,0.488c3.164,3.165,2.891,7.251,2.623,11.318
	c-0.037,0.578-0.34,1.147-0.566,1.702c-1.217,3.003-1.172,5.915,0.111,8.953c0.807,1.915,1.178,4.04,1.548,6.105
	c0.276,1.543-0.218,3.05-1.294,4.195c-0.743,0.793-1.135,1.662-1.4,2.67c-0.809,3.072-3.03,4.901-6.215,5.084
	c-2.349,0.135-4.702,0.29-7.037-0.247c-0.635-0.146-1.31-0.111-2.128-0.17c-0.306,0.804-0.595,1.559-0.97,2.544
	c0.855,0.328,1.537,0.685,2.262,0.85c2.293,0.522,4.621,0.898,6.902,1.465c7.781,1.932,15.572,3.833,23.094,6.674
	c2.645,0.999,4.674,2.676,6.158,5.062c1.084,1.742,2.317,3.4,2.767,5.464c0.171,0.78,0.333,1.542-0.437,2.51
	c-1.1,0.209-2.441,0.465-4.021,0.765c-1.979,1.556-4.216,1.421-6.335,0.007c-0.929,0.605-1.769,1.153-2.557,1.667
	c-0.754-0.235-1.363-0.341-1.895-0.604c-2.652-1.318-5.389-2.394-8.221-3.287c-2.619-0.826-4.697-2.449-5.799-5.095
	c-0.139-0.331-0.338-0.636-0.559-1.043c-3.428,0.009-6.856-0.021-10.258,0.584c-0.594,0.105-1.187,0.209-1.781,0.303
	c-0.77,0.12-1.171,0.557-1.195,1.206c4.266,7.905,10.383,14.288,15.9,21.141c-0.08,0.481-0.033,0.96-0.236,1.28
	c-1.873,2.958-2.44,6.375-3.478,9.629c-1.472,4.622-2.284,9.368-2.874,14.169c-0.293,2.391-0.748,4.762-1.111,7.146
	c-0.223,1.465-0.406,2.936-0.631,4.561c0.62,0.129,1.248,0.334,1.887,0.379c1.73,0.122,3.328,0.656,4.771,1.566
	c1.141,0.718,2.338,0.968,3.629,0.773c3.291-0.496,6.504,0.087,9.703,0.723c3.381,0.673,5.982,3.555,6.436,7
	c0.242,1.829-0.928,3.763-2.852,4.599c-2.221,0.963-4.494,1.757-6.939,1.957c-1.018,0.083-2.025,0.285-3.137,0.447
	c-0.36,0.884-0.721,1.766-1.055,2.584c0.133,0.33,0.174,0.593,0.32,0.771c1.371,1.676,1.75,3.611,1.828,5.738
	c0.096,2.554-0.781,4.611-2.571,6.315c-0.452,0.432-1.106,0.818-1.71,0.896c-2.027,0.262-4.072,0.5-6.113,0.51
	c-1.959,0.009-3.535-1.087-4.927-2.319c-0.882-0.155-1.727-0.242-2.536-0.458c-2.562-0.685-3.678-2.466-3.096-5.049
	c0.223-0.988,0.66-1.935,1.071-2.87c0.239-0.546,0.622-1.03,1.054-1.726c-0.574-0.987-1.199-2.058-1.846-3.164
	c-0.75-0.065-1.404-0.151-2.059-0.175c-4.697-0.164-9.393-0.349-14.091-0.458c-2.757-0.063-5.517,0.019-8.274,0
	c-3.486-0.023-6.974-0.108-10.461-0.12c-5.841-0.021-11.682-0.006-17.701-0.006c-0.332,0.488-0.732,1.075-1.063,1.559
	c0.181,1.153,0.31,2.165,0.505,3.162c0.377,1.914-0.521,3.122-2.116,3.966C67.383,179.845,66.943,180.04,66.797,180.11z
	 M71.205,155.15c0.547,0.115,0.943,0.256,1.348,0.273c1.688,0.07,3.377,0.172,5.062,0.132c2.227-0.054,4.449-0.327,6.674-0.334
	c4.826-0.015,9.651,0.115,14.477,0.12c4.696,0.005,9.393-0.06,14.09-0.125c0.756-0.01,1.51-0.178,2.368-0.286
	c0.104-1.24,0.075-2.34,0.306-3.382c0.894-4.031,0.304-8.042,0.042-12.072c-0.233-3.604-0.271-7.222-0.341-10.835
	c-0.014-0.709,0.196-1.428,0.34-2.135c0.248-1.225,0.527-2.443,0.814-3.764c-2.672-1.293-5.221-2.526-7.77-3.76
	c0.094,0.59,0.35,0.91,0.647,1.183c0.977,0.889,1.881,1.762,2.519,3.009c1.373,2.69,1.687,5.649,2.456,8.486
	c0.417,1.537-0.36,2.8-1.806,3.571c-0.367,0.196-0.764,0.34-1.011,0.449c-0.286,1.179-0.653,2.214-0.771,3.276
	c-0.362,3.32-2.639,4.896-5.477,5.425c-2.626,0.489-5.381,0.291-7.684,0.379c-2.676-1.558-2.125-4.3-3.397-6.317
	c-0.751,1.401-1.445,2.699-2.167,4.043c-1.004,0-1.867,0-2.657,0c-0.943-1.438-1.04-2.885-1.054-4.333
	c-0.024-2.792,0.38-5.532,1.123-8.223c0.094-0.338,0.127-0.694,0.187-1.042c-1.155,1.356-1.931,2.845-2.796,4.278
	c-2.272,3.769-4.535,7.544-6.893,11.259c-2.295,3.617-4.635,7.216-8.076,9.909C71.547,154.501,71.438,154.799,71.205,155.15z"/>
<path fill-rule="evenodd" clip-rule="evenodd" fill="#f04c47" class="fill" d="M98.408,57.596c1.916-0.194,3.241,0.549,4.164,1.634
	c1.907,2.244,3.627,4.651,5.371,7.029c0.959,1.308,1.775,2.722,2.727,4.035c0.871,1.2,1.93,2.176,3.54,2.074
	c2.224,2.938,4.398,5.812,6.757,8.928c-1.031,2.181-2.129,4.504-3.229,6.829c0.498,1.598,0.977,3.13,1.469,4.713
	c-2.851,1.425-5.732,1.931-8.793,2.528c-0.107-6.206-0.145-12.262-1.35-18.118c-0.564-0.32-0.92-0.521-1.338-0.759
	c-0.363,0.251-0.697,0.483-0.961,0.667c-0.172,7.271-2.443,13.799-5.896,20.189c-5.441-1.478-10.4-3.855-15.58-6.217
	c0.386-2.258,0.657-4.4,1.133-6.496c0.719-3.174,1.516-6.335,2.407-9.464c0.478-1.674,1.077-3.346,1.874-4.888
	c1.826-3.532,3.766-7.007,5.754-10.451C96.977,58.929,97.843,58.228,98.408,57.596z"/>
<path fill-rule="evenodd" clip-rule="evenodd" fill="#f04c47" class="fill" d="M132.35,34.05c0.067,1.217,0.135,2.435,0.198,3.606
	c-1.019,0.672-2.419,0.312-2.858,1.601c0.859,0.755,0.859,0.755,2.508,0.862c0,0.431,0,0.87,0,1.348
	c-0.621,0.237-1.188,0.418-1.725,0.664c-1.062,0.489-1.754,1.273-1.774,2.504c-0.021,1.224,0.784,1.807,1.771,2.263
	c2.982,1.378,5.902,0.838,8.158-1.636c0.369,0.874-0.084,1.534-0.272,2.236c-0.399,1.504-0.853,3.006-1.083,4.539
	c-0.312,2.087,0.356,4.025,1.082,5.979c0.748,2.02,1.285,4.131,1.762,6.237c0.325,1.43-0.107,2.735-1.25,3.769
	c-0.984,0.889-1.323,2.121-1.668,3.354c-0.734,2.623-1.229,3.028-3.918,3.063c-1.749,0.023-3.5-0.07-5.248-0.151
	c-3.344-0.155-5.621-2.249-7.859-4.391c-3.07-2.937-5.564-6.327-7.703-10.06c-0.487,0.133-0.867,0.236-1.121,0.306
	c-1.001,3.713,0.67,6.815,1.654,10.161c-0.25-0.17-0.566-0.292-0.741-0.521c-0.917-1.19-1.827-2.391-2.689-3.622
	c-1.454-2.072-2.745-4.273-4.349-6.221c-1.118-1.36-2.643-2.388-4.137-3.696c1.236-0.804,2.578-1.677,4.199-2.733
	c-2.002-1.328-3.904-2.385-4.242-4.603c-0.205-1.349-0.197-2.766-0.037-4.123c0.102-0.854,0.58-1.705,1.047-2.458
	c0.287-0.462,0.874-0.738,1.539-1.266c0.505,0.979,0.902,1.751,1.336,2.589c-0.812,0.925-1.555,1.772-2.211,2.521
	c-0.212,1.563,0.108,2.778,1.289,3.846c0.386-0.2,0.777-0.402,1.171-0.606c-0.409-0.935-0.767-1.748-1.173-2.676
	c0.342-0.481,0.666-0.939,1.117-1.573c1.531,2.089,2.061,4.271,2.431,6.606c1.7,0.415,3.173-0.203,4.782-0.777
	c0.394-4.745-0.689-9.272-1.357-13.94c0.887,0.045,1.281,0.643,1.518,1.18c0.698,1.591,1.32,3.218,1.885,4.862
	c0.291,0.848,0.416,1.757,0.568,2.646c0.229,1.318,1.126,2.078,2.305,2.246c1.777,0.254,3.596,0.35,5.393,0.317
	c1.607-0.03,2.666-0.978,3.167-2.533c0.468-1.45-0.03-2.587-1.253-3.751c3.025-2.187,5.223-5.146,7.441-8.085
	C132.117,33.973,132.232,34.012,132.35,34.05z M127.336,48.56c1.188,1.261,2.115,2.244,3.106,3.298
	c-0.317,1.03-0.644,2.088-1.018,3.297c0.571,0.086,0.933,0.141,1.362,0.206c0.467-1.465,0.896-2.812,1.293-4.06
	c-1.202-1.146-2.233-2.129-3.321-3.167C128.436,48.232,128.117,48.327,127.336,48.56z M128.092,59.426
	c-1.77-0.188-1.802-1.949-2.736-2.961c-0.35,0.233-0.625,0.417-0.859,0.574c0.371,2.232,1.457,3.458,3.213,3.722
	c1.374,0.207,2.912-0.716,3.53-2.162C129.871,57.792,129.252,59.888,128.092,59.426z M135.105,65.387
	c-0.134-0.604-0.241-1.086-0.398-1.796c-0.615,0.201-1.055,0.345-1.55,0.507C133.441,65.133,133.779,65.736,135.105,65.387z"/>
<path fill-rule="evenodd" clip-rule="evenodd" fill="#f04c47" class="fill" d="M42.469,161.159c1.856-2.265,4.543-2.201,7.24-2.53
	c-0.098,1.484-0.181,2.769-0.262,4.019c1.588,0.921,3.111,1.183,4.693,1.235c2.654,0.087,5.311,0.148,7.961,0.279
	c1.681,0.083,3.354,0.28,5.031,0.404c0.354,0.026,0.712-0.045,1.078-0.072c1.518-1.81,1.775-4.067,2.307-6.271
	c14.844,0.392,29.545,0.325,44.234-0.962c0.808,2.055-0.291,4.149,0.733,6.098c2.745,0.635,5.583,0.702,8.409,0.721
	c3.379,0.023,6.758-0.054,10.136-0.161c1.259-0.041,2.521-0.232,3.761-0.457c2.236-0.405,2.855-1.291,2.58-3.525
	c-0.037-0.297-0.114-0.59-0.172-0.878c3.791-1.519,11.56,0.437,13.41,3.395c0.096,1.36-1.009,1.895-1.967,2.229
	c-2.032,0.71-4.117,1.451-6.236,1.698c-4.184,0.489-8.4,0.799-12.61,0.913c-6.997,0.189-14,0.315-20.995,0.185
	c-5.9-0.109-11.793-0.639-17.691-0.94c-1.867-0.096-3.754-0.206-5.607-0.045c-3.568,0.31-7.111-0.038-10.668-0.096
	c-6.09-0.1-12.184-0.036-18.27-0.221c-4.457-0.136-8.912-0.479-13.354-0.887C43.826,165.07,42.383,163.343,42.469,161.159z"/>
<path fill-rule="evenodd" clip-rule="evenodd" fill="#f04c47" class="fill" d="M103.066,130.451c1.841,8.826,0.863,8.343,0.245,11.824
	c-0.394,0.078-0.837,0.166-1.553,0.309c-0.283-2.012-0.525-3.899-0.819-5.778c-0.287-1.839-0.628-3.669-0.954-5.557
	c-0.937-0.124-1.226,0.35-1.149,1.133c0.1,1.022,0.246,2.039,0.377,3.057c0.268,2.096,0.548,4.191,0.795,6.29
	c0.039,0.339-0.064,0.695-0.098,1.004c-0.953,0.483-1.338-0.097-1.556-0.752c-0.669-1.995-1.301-4.003-1.899-6.021
	c-0.326-1.097-0.502-2.24-0.854-3.327c-0.191-0.598-0.609-1.122-0.934-1.691c-1.143,0.276-1.442,1.117-1.675,1.889
	c-0.505,1.674-0.89,3.384-1.339,5.075c-0.128,0.478-0.309,0.941-0.637,1.374c-0.59-1.36-0.5-2.743-0.238-4.05
	c0.535-2.658,1.113-5.321,1.922-7.905c0.951-3.039,1.035-6.013,0.311-9.097c-0.773-3.29-1.457-6.605-2.023-9.936
	c-0.564-3.316-0.936-6.665-1.387-9.971c1.797-0.582,7.09,0.117,9.902,1.225c0.357,2.526,0.67,5.034,1.071,7.527
	c0.479,2.979,0.942,5.967,1.61,8.906c0.241,1.061,0.916,2.11,1.639,2.954c1.014,1.185,2.207,2.234,3.416,3.229
	c1.205,0.991,2.132,2.132,2.594,3.625c0.688,2.227,1.359,4.458,2.152,7.066c-1.203-0.778-1.75-1.51-2.066-2.438
	c-0.234-0.687-0.455-1.378-0.73-2.048c-0.404-0.981-1.131-1.493-2.473-1.444c0.08,0.542,0.117,0.98,0.209,1.408
	c0.414,1.947,0.951,3.875,1.236,5.84c0.32,2.18,0.055,4.328-0.904,6.37c-0.393,0.833-0.918,1.387-2.049,1.591
	c0.117-2.114,0.4-4.179,0.299-6.226c-0.099-2.017-0.336-4.078-1.447-6.063C103.658,130.089,103.344,130.281,103.066,130.451z"/>
<path fill-rule="evenodd" clip-rule="evenodd" fill="#f04c47" class="fill" d="M119.627,97.388c4.525,6.176,9.002,12.281,13.59,18.537
	c-5.314,0.599-10.544,1.238-15.377,3.765c0.674-1.249,1.197-1.678,4.269-3.56c-0.126-1.364-0.126-1.364-1.171-1.474
	c-1.805,1.362-3.413,2.578-5.125,3.871c-0.453-0.339-0.857-0.641-1.37-1.023c1.286-1.584,3.075-2.256,4.469-3.31
	c0.047-0.909-0.476-1.064-1.054-0.92c-0.635,0.158-1.273,0.402-1.834,0.735c-1.244,0.738-2.44,1.555-3.814,2.443
	c-0.363-0.185-0.807-0.413-1.328-0.678c0.805-1.859,3.01-2.515,3.301-4.623c-0.251-0.169-0.533-0.36-0.861-0.583
	c-1.619,1.352-3.188,2.66-4.908,4.096c-0.283-0.106-0.689-0.258-1.211-0.452c1.119-2.242,3.041-3.561,4.789-5.416
	c-0.366-0.323-0.666-0.589-1.019-0.901c-2.683,1.028-3.974,3.466-6.015,5.057c-0.227-0.113-0.584-0.178-0.621-0.327
	c-1.177-4.53-2.676-9-2.756-13.823c2.223-0.768,4.516-0.962,6.771-0.797c3.403,0.249,6.752,0.086,10.096-0.514
	C118.857,97.42,119.279,97.417,119.627,97.388z"/>
<path fill-rule="evenodd" clip-rule="evenodd" fill="#f04c47" class="fill" d="M119.346,125.102c4.219-0.573,8.198-0.37,12.266,0.579
	c-0.213,0.913-0.367,1.732-0.596,2.53c-1.701,5.933-2.478,12.025-3.246,18.127c-0.275,2.187-0.291,4.476-1.59,6.654
	c-2.379,0.998-4.932,1.801-7.766,1.575c0.229-2.473,0.338-4.696,0.662-6.887c0.422-2.822-0.113-5.546-0.754-8.228
	c-0.785-3.291-0.879-6.546-0.268-9.847c0.197-1.062,0.379-2.131,0.642-3.179C118.81,125.974,119.11,125.569,119.346,125.102z"/>
<path fill-rule="evenodd" clip-rule="evenodd" fill="#f04c47" class="fill" d="M132.455,28.616c-2.665,2.604-4.553,5.23-6.809,7.723
	c-0.887-2.428-1.807-4.639-3.463-6.416c-1.525,0.201-1.635,1.391-1.951,2.388c-0.528,1.664-0.998,3.347-1.539,5.006
	c-0.16,0.496-0.48,0.94-0.897,1.73c-2.208-3.438-4.225-6.734-7.931-8.326c-1.898,0.807-2.067,2.514-2.398,4.076
	c-0.26,1.22-0.354,2.476-0.551,3.939c-2.383-1.794-1.934-4.735-3.32-6.887c-1.82,0.519-2.631,2.004-3.523,3.298
	c-0.871,1.263-1.51,2.688-2.297,4.126c-2.58-4.634-0.043-12.727,4.711-14.634c-0.451,1.938-0.859,3.698-1.266,5.448
	c1.936,0.407,3.332-0.422,7.686-4.474c-0.085,0.894-0.146,1.539-0.231,2.414c1.504,0.514,2.794-0.139,3.957-0.919
	c1.132-0.761,2.118-1.738,3.248-2.688c0.573,0.961,0.403,1.91,0.332,2.838c-0.074,0.952-0.185,1.901-0.276,2.822
	c0.735,0.634,1.342,0.266,1.836-0.16c2.008-1.728,3.982-3.494,5.959-5.257c0.258-0.229,0.457-0.525,0.796-0.923
	c0.991,1.968,0.364,3.888,0.411,5.777c1.094,0.762,1.891-0.005,2.533-0.615c1.66-1.577,3.217-3.266,4.801-4.921
	c0.328-0.343,0.605-0.737,1.014-1.243c1.213,1.708,1.896,3.507,2.35,5.583c2.352-0.397,1.912-2.883,3.158-4.001
	c1.365,3.859-0.192,9.863-3.16,11.95c-0.373-1.277-0.639-2.559-1.127-3.751C134.016,31.319,133.305,30.208,132.455,28.616z"/>
<path fill-rule="evenodd" clip-rule="evenodd" fill="#f04c47" class="fill" d="M147.305,93.477c0.111,1.252,0.741,2.051,1.664,2.74
	c1.32,0.983,2.113,2.268,1.895,4.277c-0.832-0.291-1.545-0.504-2.23-0.786c-2.055-0.846-4.08-1.767-6.153-2.567
	c-2.966-1.146-4.581-2.454-5.478-6.17c-1.768-0.585-3.635-0.549-5.496-0.56c-1.792-0.01-3.584-0.002-5.537-0.002
	c-0.314-2.584-0.258-5.219,1.033-7.79c3,0.425,5.898,1.046,8.82,1.188c2.559,0.124,4.766,1.244,7.117,1.911
	c4.4,1.249,8.759,2.658,12.949,4.557c1.852,0.838,3.222,2.008,4.244,3.734c0.791,1.335,1.697,2.597,1.732,4.369
	c-0.407-0.449-0.836-0.881-1.219-1.351c-1.438-1.766-3.289-2.742-5.533-3.127c-1.895-0.326-3.775-0.773-5.634-1.269
	C148.529,92.376,147.826,92.444,147.305,93.477z"/>
<path fill-rule="evenodd" clip-rule="evenodd" fill="#f04c47" class="fill" d="M83.955,131.808c-4.83,7.381-9.363,14.694-14.838,21.678
	c-1.646-0.407-3.359-0.83-5.082-1.256c-0.279-2.203,0.299-4.109,1.039-5.913c1.895-4.614,3.828-9.218,5.949-13.73
	c0.994-2.115,2.832-3.672,4.549-5.311C78.625,128.242,81.29,129.673,83.955,131.808z"/>
<path fill-rule="evenodd" clip-rule="evenodd" fill="#f04c47" class="fill" d="M90.857,124.593c-4.353-0.699-8.449-1.357-12.668-2.035
	c-0.08-0.263-0.179-0.583-0.282-0.917c0.214-0.134,0.358-0.304,0.51-0.308c1.675-0.046,3.352-0.037,5.026-0.105
	c1.101-0.045,2.311,0.1,3.148-1.348c-2.998-0.129-5.83-0.251-8.771-0.378c-0.024-0.43-0.046-0.813-0.077-1.349
	c1.055-0.266,2.033-0.531,3.021-0.755c0.936-0.212,1.876-0.424,2.825-0.561c1.183-0.17,1.761-0.96,2.222-1.992
	c-2.547,1.172-5.292,0.795-8.055,1.378c-0.08-0.538-0.145-0.968-0.238-1.587c1.455-0.485,2.84-0.874,4.166-1.411
	c1.247-0.504,2.898-0.15,4.012-1.788c-3.002-0.231-5.567,0.536-8.153,1.086c-0.056-0.111-0.112-0.223-0.167-0.334
	c0.215-0.31,0.359-0.738,0.656-0.912c1.502-0.881,2.98-1.854,4.592-2.483c1.322-0.518,2.187-1.358,3.081-2.544
	c-1.243-0.51-1.819,0.56-2.645,0.79c-0.925,0.257-1.858,0.487-2.774,0.773c-0.906,0.283-1.795,0.623-2.756,0.96
	c0.347-1.047,0.346-1.047,2.599-2.453c1.074-0.67,2.135-1.366,3.23-1.999c1.085-0.625,2.206-1.186,3.53-1.89
	c0.361,1.206,0.707,2.145,0.919,3.113c1.093,5.008,2.166,10.021,3.204,15.04c0.17,0.82,0.196,1.684,0.174,2.524
	C91.171,123.665,90.947,124.211,90.857,124.593z"/>
<path fill-rule="evenodd" clip-rule="evenodd" fill="#f04c47" class="fill" d="M86.275,94.269c0,0.739,0,1.39,0,2.044
	c-3.229,1.302-6.395,2.578-9.627,3.881c-0.432-1.127,0.068-2.162,0.492-3.085c1.902-4.152,3.906-8.258,5.881-12.376
	c0.123-0.254,0.324-0.471,0.619-0.667c0.027,2.724-0.702,5.334-1.162,8.097C83.801,92.896,85.047,93.586,86.275,94.269z"/>
<path fill-rule="evenodd" clip-rule="evenodd" fill="#f04c47" class="fill" d="M134.531,185.34c-1.348,0.213-2.83-0.213-4.206-1.283
	c-1.438-1.115-1.759-2.503-1.382-4.167c0.724-3.204,3.561-5.217,6.969-5.028c1.063,0.059,2.156,0.263,3.153,0.625
	c0.632,0.23,1.365,0.766,1.618,1.352c0.812,1.88,0.84,3.921,0.08,5.792c-0.688,1.699-2.3,2.371-4.076,2.558
	C136.089,185.251,135.486,185.274,134.531,185.34z M132.259,182.905c2.205,0.943,4.238,0.767,6.096-0.796
	c1.437-1.209,1.421-2.681,0.753-4.256c-2.16-1.798-4.029-1.822-6.189-0.085C131.257,179.104,131.022,180.635,132.259,182.905z"/>
<path fill-rule="evenodd" clip-rule="evenodd" fill="#f04c47" class="fill" d="M51.156,177.223c0.041-1.273,0.451-2.185,1.416-2.909
	c2.65-1.99,5.525-2.396,8.52-1.033c3.275,1.491,4.121,5.779,1.585,8.271c-0.173,0.168-0.337,0.353-0.536,0.486
	c-2.862,1.913-7.699,1.237-9.716-1.518C51.754,179.602,51.566,178.332,51.156,177.223z M55.277,174.557
	c-0.529,1.048-1.002,1.762-1.264,2.546c-0.633,1.906,0.215,3.415,2.157,3.773c0.925,0.17,1.919,0.204,2.847,0.062
	c1.944-0.3,3.127-1.973,2.91-3.894c-0.223-1.978-1.66-3.241-3.711-3.098C57.225,174.014,56.248,174.346,55.277,174.557z"/>
<path fill-rule="evenodd" clip-rule="evenodd" fill="#f04c47" class="fill" d="M116.642,46.134c0.8-1.958,2.399-2.149,4.067-2.667
	c-0.104,1.235-0.195,2.315-0.299,3.544C119.139,46.871,117.846,47.103,116.642,46.134z"/>
<path fill-rule="evenodd" clip-rule="evenodd" fill="#f04c47" class="fill" d="M133.09,46.524c-0.963-0.38-1.864-0.735-2.952-1.165
	c0.193-0.809,0.348-1.453,0.508-2.129c1.05-0.174,1.915-0.318,2.874-0.478C133.373,44.048,133.248,45.139,133.09,46.524z"/>
<path fill-rule="evenodd" clip-rule="evenodd" fill="#f04c47" class="fill" d="M122.469,47.065c-0.949-1.807-0.473-3.047,1.318-3.556
	c0.947,0.484,0.911,1.292,0.682,2.155C124.189,46.713,123.396,46.989,122.469,47.065z"/>
<path fill-rule="evenodd" clip-rule="evenodd" fill="#f04c47" class="fill" d="M138.528,42.928c-0.378-0.42-0.754-0.841-1.208-1.347
	c-0.752,0-1.568,0-2.55,0c0.224-1,1-1.359,1.577-1.919c0.531,0,1.051,0,1.727,0c0.307,1.037,0.603,2.04,0.898,3.042
	C138.824,42.778,138.677,42.853,138.528,42.928z"/>
<path fill-rule="evenodd" clip-rule="evenodd" fill="#f04c47" class="fill" d="M155.486,95.338c0.545,0.177,1.09,0.353,1.686,0.545
	c0.103,1.351,0.197,2.601,0.293,3.85c-0.148,0.034-0.299,0.068-0.449,0.102c-1.312-1.065-1.146-2.802-1.823-4.157
	C155.289,95.564,155.388,95.451,155.486,95.338z"/>
<path fill-rule="evenodd" clip-rule="evenodd" fill="#f04c47" class="fill" d="M135.041,46.17c-0.677-1.581-0.6-1.828,0.961-3.304
	c0.725,0.223,1.283,0.628,1.156,1.498C136.991,45.488,136.084,45.832,135.041,46.17z"/>
<path fill-rule="evenodd" clip-rule="evenodd" fill="#f04c47" class="fill" d="M122.096,41.982c-0.877,0.166-1.754,0.333-2.779,0.527
	c0.648-1.373,0.98-1.466,2.712-0.954C122.051,41.698,122.074,41.84,122.096,41.982z"/>
<path fill-rule="evenodd" clip-rule="evenodd" fill="#f04c47" class="fill" d="M121.896,36.944c0.104,0.659,0.207,1.319,0.334,2.134
	c-0.506,0.081-0.91,0.146-1.621,0.259c0.371-0.995,0.643-1.715,0.91-2.436C121.645,36.916,121.771,36.931,121.896,36.944z"/>
<path fill-rule="evenodd" clip-rule="evenodd" fill="#f04c47" class="fill" d="M133.023,179.457c2.244-1.796,2.878-1.852,4.771-0.632
	c0.436,2.622-1.26,3.784-4.507,2.856C133.205,180.985,133.111,180.194,133.023,179.457z"/>
<path fill-rule="evenodd" clip-rule="evenodd" fill="#f04c47" class="fill" d="M55.618,179.104c-0.296-2.128,0.04-2.974,1.306-3.599
	c1.096-0.542,2.162-0.362,2.971,0.5c0.955,1.019,0.994,1.708,0.143,3.314C58.559,180.108,57.1,179.886,55.618,179.104z"/>
</svg>
