<svg version="1.1" id="svg" xmlns="http://www.w3.org/2000/svg" xmlns:xlink="http://www.w3.org/1999/xlink" x="0px" y="0px"
	 width="200px" height="200px" viewBox="0 0 200 200" enable-background="new 0 0 200 200" xml:space="preserve">
<path fill-rule="evenodd" clip-rule="evenodd" fill="#f04c47" class="fill" d="M14.249,163.5c0,0,31.75-24.25,47.75-38.75s43-38.5,43-38.5
	s6.5,3.75,20,7s26.75,4.75,26.75,4.75s-31.75,46.25-41.5,60.5s-24.75,32.75-24.75,32.75s-23.5-3-40-9.75
	C29.84,175.093,14.249,163.5,14.249,163.5z"/>
<path class="stroke" fill="#51050f"  fill-rule="evenodd" clip-rule="evenodd" d="M10.913,163.81c2.073-1.62,3.986-3.143,5.929-4.627
	c3.743-2.86,7.604-5.542,11.015-8.854c5.061-4.914,10.732-9.115,16.349-13.382c4.79-3.638,9.302-7.642,13.929-11.493
	c0.747-0.622,0.902-1.83,2.047-2.093c0.057-0.013,0.008-0.489,0.008-0.655c0.697-0.285,1.517-0.42,2.068-0.877
	c4.848-4.015,9.663-8.071,14.457-12.15c2.294-1.952,4.512-3.993,6.781-5.973c4.592-4.003,9.21-7.973,13.784-11.996
	c1.9-1.671,3.69-3.468,5.584-5.147c0.72-0.639,1.362-1.631,2.7-1.164c0.1,0.651,0.199,1.31,0.338,2.219
	c-0.701,0.665-1.477,1.414-2.266,2.147c-4.71,4.382-9.385,8.803-14.154,13.119c-2.072,1.876-4.348,3.527-6.52,5.295
	c-2.016,1.64-4.046,3.264-6.017,4.957c-2.692,2.314-5.348,4.673-7.993,7.04c-3.972,3.553-7.881,7.174-11.891,10.683
	c-4.324,3.785-8.71,7.5-13.109,11.197c-5.389,4.527-10.764,9.071-16.248,13.479c-3.885,3.123-7.897,6.092-11.941,9.007
	C14.071,165.761,12.921,165.499,10.913,163.81z"/>
<path class="stroke" fill="#51050f"  fill-rule="evenodd" clip-rule="evenodd" d="M83.427,191.566c1.682-2.021,3.354-4.086,5.085-6.1
	c4.476-5.209,8.333-10.844,11.979-16.659c2.432-3.879,5.326-7.466,7.986-11.204c2.143-3.01,4.284-6.022,6.355-9.082
	c4.22-6.235,8.386-12.508,12.593-18.752c0.456-0.677,1.019-1.289,1.567-1.899c4.737-5.273,8.398-11.312,12.323-17.17
	c2.552-3.809,5.296-7.488,7.944-11.232c0.396-0.559,0.708-1.178,1.125-1.717c0.23-0.299,0.599-0.49,0.998-0.802
	c0.465,0.524,0.857,0.969,1.347,1.521c-1.296,2.77-3.093,5.181-4.794,7.642c-2.491,3.603-4.994,7.197-7.565,10.742
	c-2.131,2.938-4.495,5.711-6.532,8.709c-5.156,7.59-10.179,15.271-15.27,22.905c-4.404,6.606-8.819,13.205-13.248,19.794
	c-1.298,1.932-2.574,3.888-4.007,5.718c-3.452,4.411-6.958,8.782-10.513,13.111c-1.388,1.689-2.926,3.261-4.466,4.816
	C85.251,193.005,84.623,192.904,83.427,191.566z"/>
<path class="stroke" fill="#51050f"  fill-rule="evenodd" clip-rule="evenodd" d="M121.837,72.04c-1.052-1.028-2.734-0.41-3.361-2.106
	c2.584-2.821,5.703-4.959,9.237-6.743c0.525,0.683,1.008,1.056,1.146,1.53c0.764,2.623,1.465,5.265,2.124,7.916
	c0.084,0.335-0.208,0.765-0.388,1.349c-1.555-0.259-3.076-0.512-4.74-0.789c-0.778,1.887-1.583,3.684-2.269,5.524
	c-3.456,9.281-7.895,18.061-13.525,26.208c-2.604,3.768-5.398,7.407-8.161,11.063c-1.855,2.456-3.721,4.913-5.742,7.229
	c-1.48,1.695-3.143,3.258-4.873,4.701c-1.439,1.201-2.73,0.799-3.66-0.984c0.814-0.748,1.737-1.459,2.495-2.317
	c2.399-2.717,4.728-5.496,7.099-8.238c5.619-6.5,10.332-13.649,14.665-21.029c3.114-5.303,6.074-10.73,8.026-16.61
	C120.64,76.543,121.196,74.286,121.837,72.04z"/>
<path class="stroke" fill="#51050f"  fill-rule="evenodd" clip-rule="evenodd" d="M108.808,179.812c-1.935,0.863-3.839,0.927-5.668-0.133
	c-0.403-3.825,1.609-7.517,4.821-8.982c1.765,0.264,2.132,1.669,2.266,3.134C110.416,175.927,109.8,177.871,108.808,179.812z"/>
<path class="stroke" fill="#51050f"  fill-rule="evenodd" clip-rule="evenodd" d="M141.082,124.833c0.13-2.435,1.196-4.457,2.704-6.241
	c1.055-1.247,1.748-1.209,3.588-0.179c1.114,1.642,0.938,3.511,0.825,5.324c-0.095,1.541-1.353,2.61-2.922,2.554
	C143.782,126.237,142.321,125.93,141.082,124.833z"/>
<path class="stroke" fill="#51050f"  fill-rule="evenodd" clip-rule="evenodd" d="M138.11,139.669c-2.102,2.054-3.891,3.212-6.694,1.17
	c-0.347-2.908,1.806-6.432,4.663-7.633C137.985,133.984,138.698,136.188,138.11,139.669z"/>
<path class="stroke" fill="#51050f"  fill-rule="evenodd" clip-rule="evenodd" d="M48.271,128.814c-2.246,0.306-4.232,0.429-6.177-0.737
	c1.059-2.143,1.57-4.354,3.232-5.996c1.293-1.276,1.743-1.394,3.722-0.484C49.935,124.04,50.216,126.477,48.271,128.814z"/>
<path class="stroke" fill="#51050f"  fill-rule="evenodd" clip-rule="evenodd" d="M83.104,93.582c2.108,1.229,2.964,4.174,1.943,6.413
	c-0.965,2.116-3.14,2.489-6.6,1.132C78.139,97.935,80.198,94.537,83.104,93.582z"/>
<path class="stroke" fill="#51050f"  fill-rule="evenodd" clip-rule="evenodd" d="M118.31,158.44c1.15-4.688,1.855-5.913,4.192-7.18
	c0.258,0.064,0.591,0.125,0.909,0.232c0.32,0.107,0.624,0.26,1.026,0.432c1.243,2.197,1.007,4.501-0.038,6.629
	C123.324,160.744,119.648,160.588,118.31,158.44z"/>
<path class="stroke" fill="#51050f"  fill-rule="evenodd" clip-rule="evenodd" d="M25.011,138.872c1.766,2.214,1.43,4.808,1.736,7.176
	c-1.607,1.729-3.858,1.938-6.354,0.677C20.503,142.771,22.14,139.858,25.011,138.872z"/>
<path class="stroke" fill="#51050f"  fill-rule="evenodd" clip-rule="evenodd" d="M62.277,114.355c-0.293-3.644,2.139-7.447,4.714-7.554
	c1.517,1.601,2.063,4.594,1.088,6.409c-0.238,0.441-0.705,0.873-1.168,1.059C65.435,114.865,63.908,115.142,62.277,114.355z"/>
<path class="stroke" fill="#51050f"  fill-rule="evenodd" clip-rule="evenodd" d="M159.098,110.226c-2.024,2.529-4.19,2.785-6.278,0.805
	c-0.233-3.44,1.599-6.162,4.449-6.496C159.768,105.829,159.002,108.192,159.098,110.226z"/>
<path class="stroke" fill="#51050f"  fill-rule="evenodd" clip-rule="evenodd" d="M96.485,80.075c2.002-0.072,2.414,0.082,2.858,1.52
	c0.312,1.011,0.382,2.111,0.455,3.178c0.046,0.658-0.105,1.33-0.17,2.017c-1.783,1.671-2.937,1.694-6.116,0.047
	C93.517,84.183,95.236,82.265,96.485,80.075z"/>
<path class="stroke" fill="#51050f"  fill-rule="evenodd" clip-rule="evenodd" d="M127.808,152.351c0.961-0.332,1.513-0.549,2.081-0.707
	c0.24-0.066,0.516-0.011,0.925-0.011c-0.076,1.165-0.891,1.438-1.792,1.815C128.729,153.184,128.414,152.9,127.808,152.351z"/>
<path class="stroke" fill="#51050f"  fill-rule="evenodd" clip-rule="evenodd" d="M142.168,140.318c-0.359,1.501-0.923,1.61-1.915,0.381
	C141.057,140.539,141.612,140.428,142.168,140.318z"/>
<path class="stroke" fill="#51050f"  fill-rule="evenodd" clip-rule="evenodd" d="M73.257,109.634c-0.456-0.338-0.748-0.555-1.118-0.829
	c0.231-0.397,0.415-0.712,0.671-1.149C73.448,108.195,73.847,108.625,73.257,109.634z"/>
<path class="stroke" fill="#51050f"  fill-rule="evenodd" clip-rule="evenodd" d="M145.287,111.544c0.897,0.455,1.392,0.706,1.971,0.998
	C145.97,113.495,145.97,113.495,145.287,111.544z"/>
<path class="stroke" fill="#51050f"  fill-rule="evenodd" clip-rule="evenodd" d="M120.281,168.01c-0.249,0.425-0.497,0.849-0.809,1.379
	c-0.437-0.258-0.749-0.443-1.411-0.835c0.801-0.426,1.324-0.704,1.847-0.982C120.032,167.718,120.157,167.864,120.281,168.01z"/>
<path class="stroke" fill="#51050f"  fill-rule="evenodd" clip-rule="evenodd" d="M144.216,132.781c-0.443,0.566-0.746,0.953-1.084,1.384
	c-0.4-0.224-0.683-0.38-1.074-0.597C142.54,132.69,143.204,132.691,144.216,132.781z"/>
<path class="stroke" fill="#51050f"  fill-rule="evenodd" clip-rule="evenodd" d="M149.741,132.693c0.453,0.111,0.905,0.222,1.357,0.333
	c0.085,0.205,0.17,0.411,0.255,0.616c-0.251,0.243-0.5,0.485-0.932,0.902c-0.464-0.766-0.677-1.118-0.891-1.47
	C149.602,132.948,149.671,132.82,149.741,132.693z"/>
<path class="stroke" fill="#51050f"  fill-rule="evenodd" clip-rule="evenodd" d="M138.558,124.646c-0.668-0.456-1.041-0.711-1.497-1.022
	C138.493,122.77,138.493,122.77,138.558,124.646z"/>
<path class="stroke" fill="#51050f"  fill-rule="evenodd" clip-rule="evenodd" d="M151.313,117.446c-0.414-0.534-0.667-0.859-0.985-1.269
	c0.388-0.307,0.673-0.532,0.972-0.769C151.786,116.276,151.786,116.276,151.313,117.446z"/>
<path class="stroke" fill="#51050f"  fill-rule="evenodd" clip-rule="evenodd" d="M124.688,162.092c-0.025,0.432-0.051,0.863-0.088,1.491
	c-0.534-0.237-0.907-0.403-1.559-0.692c0.555-0.459,0.902-0.748,1.251-1.036C124.424,161.934,124.556,162.013,124.688,162.092z"/>
<path class="stroke" fill="#51050f"  fill-rule="evenodd" clip-rule="evenodd" d="M117.264,164.004c-0.374-0.182-0.747-0.364-1.329-0.647
	c0.469-0.44,0.775-0.728,1.323-1.242c0.196,0.694,0.319,1.129,0.442,1.564C117.554,163.788,117.409,163.896,117.264,164.004z"/>
<path class="stroke" fill="#51050f"  fill-rule="evenodd" clip-rule="evenodd" d="M114.572,156.781c1.38-0.447,1.38-0.447,1.249,1.01
	C115.306,157.374,114.938,157.078,114.572,156.781z"/>
<path class="stroke" fill="#51050f"  fill-rule="evenodd" clip-rule="evenodd" d="M113.659,166.547c-0.091,0.403-0.182,0.807-0.323,1.441
	c-0.536-0.353-0.878-0.577-1.495-0.982c0.629-0.361,1.018-0.584,1.405-0.807C113.384,166.315,113.521,166.431,113.659,166.547z"/>
<path class="stroke" fill="#51050f"  fill-rule="evenodd" clip-rule="evenodd" d="M141.062,129.69c-0.209-0.385-0.417-0.77-0.625-1.154
	c0.098-0.12,0.196-0.241,0.295-0.361c0.354,0.133,0.823,0.175,1.021,0.429c0.138,0.178-0.095,0.646-0.163,0.983
	C141.413,129.621,141.237,129.655,141.062,129.69z"/>
<path class="stroke" fill="#51050f"  fill-rule="evenodd" clip-rule="evenodd" d="M30.545,130.674c-0.946,0.71-1.442,0.475-1.888-0.325
	C29.418,129.563,29.899,129.934,30.545,130.674z"/>
<path class="stroke" fill="#51050f"  fill-rule="evenodd" clip-rule="evenodd" d="M132.098,157.639c-1.081,0.305-1.427-0.09-1.503-1.02
	C131.505,156.298,132.031,156.435,132.098,157.639z"/>
<path class="stroke" fill="#51050f"  fill-rule="evenodd" clip-rule="evenodd" d="M42.301,134.501c-0.419-0.198-0.702-0.332-1.376-0.65
	c0.736-0.394,1.161-0.619,1.586-0.846c0.094,0.101,0.188,0.202,0.281,0.304C42.64,133.679,42.487,134.049,42.301,134.501z"/>
<path class="stroke" fill="#51050f"  fill-rule="evenodd" clip-rule="evenodd" d="M102.307,191.443c0.464,0.112,0.929,0.224,1.616,0.389
	c-0.864,1.131-1.333,0.985-1.743,0.248C102.222,191.867,102.265,191.655,102.307,191.443z"/>
<path class="stroke" fill="#51050f"  fill-rule="evenodd" clip-rule="evenodd" d="M150.901,108.125c-0.542,0.596-0.853,0.938-1.326,1.459
	c-0.295-0.596-0.473-0.957-0.722-1.459C149.55,108.125,150.033,108.125,150.901,108.125z"/>
<path class="stroke" fill="#51050f"  fill-rule="evenodd" clip-rule="evenodd" d="M155.397,119.208c-0.146,0.939-0.213,1.371-0.337,2.171
	c-0.563-0.511-0.894-0.81-1.396-1.265C154.267,119.799,154.635,119.606,155.397,119.208z"/>
<path class="stroke" fill="#51050f"  fill-rule="evenodd" clip-rule="evenodd" d="M87.388,94.048c0.72-0.239,1.068-0.356,1.636-0.545c0,0.581,0,0.973,0,1.735
	C88.391,94.778,88.03,94.516,87.388,94.048z"/>
<path class="stroke" fill="#51050f"  fill-rule="evenodd" clip-rule="evenodd" d="M61.984,98.431c0.535,0.035,1.069,0.069,1.823,0.118
	c-0.727,1.33-1.298,1.062-1.888,0.475C61.941,98.827,61.963,98.629,61.984,98.431z"/>
<path class="stroke" fill="#51050f"  fill-rule="evenodd" clip-rule="evenodd" d="M67.432,102.826c0.809-0.788,1.203-0.522,1.493,0.431
	C68.161,103.858,67.799,103.487,67.432,102.826z"/>
<path class="stroke" fill="#51050f"  fill-rule="evenodd" clip-rule="evenodd" d="M36.524,138.194c0.453,0.117,0.906,0.234,1.561,0.403
	c-0.868,1.156-1.31,0.72-1.74,0.199C36.404,138.595,36.464,138.394,36.524,138.194z"/>
<path class="stroke" fill="#51050f"  fill-rule="evenodd" clip-rule="evenodd" d="M150.185,140.334c-1.444,0.226-1.444,0.226-1.559-1.098
	C149.143,139.601,149.484,139.841,150.185,140.334z"/>
<path class="stroke" fill="#51050f"  fill-rule="evenodd" clip-rule="evenodd" d="M10.574,148.869c1.104-0.76,1.567-0.715,1.855,0.683
	C11.737,149.296,11.312,149.14,10.574,148.869z"/>
<path class="stroke" fill="#51050f"  fill-rule="evenodd" clip-rule="evenodd" d="M83.575,89.13c-0.297,0.325-0.47,0.514-0.724,0.792
	c-0.335-0.297-0.611-0.542-0.946-0.841C82.507,88.449,82.956,88.283,83.575,89.13z"/>
<path class="stroke" fill="#51050f"  fill-rule="evenodd" clip-rule="evenodd" d="M96.823,185.989c0.656-0.898,1.141-0.67,1.711,0.053
	C97.867,186.94,97.382,186.711,96.823,185.989z"/>
<path class="stroke" fill="#51050f"  fill-rule="evenodd" clip-rule="evenodd" d="M107.624,186.09c-0.464-0.106-0.928-0.213-1.633-0.374
	C106.863,184.662,107.331,184.799,107.624,186.09z"/>
<path class="stroke" fill="#51050f"  fill-rule="evenodd" clip-rule="evenodd" d="M104.18,185.064c-0.698-0.356-1.056-0.539-1.378-0.703
	c0.062-0.28,0.05-0.471,0.123-0.515C103.817,183.316,104.043,183.794,104.18,185.064z"/>
<path class="stroke" fill="#51050f"  fill-rule="evenodd" clip-rule="evenodd" d="M114.812,173.907c0.392,0.266,0.782,0.532,1.325,0.9
	C114.765,175.409,114.765,175.409,114.812,173.907z"/>
<path class="stroke" fill="#51050f"  fill-rule="evenodd" clip-rule="evenodd" d="M127.521,167.812c-0.375-0.272-0.749-0.545-1.339-0.974
	c1.247-0.615,1.667-0.37,1.741,0.494C127.79,167.493,127.655,167.653,127.521,167.812z"/>
<path class="stroke" fill="#51050f"  fill-rule="evenodd" clip-rule="evenodd" d="M137.091,152.055c-0.494-0.435-0.799-0.702-1.2-1.054
	c0.322-0.229,0.531-0.503,0.714-0.487C137.384,150.584,137.556,151.023,137.091,152.055z"/>
<path class="stroke" fill="#51050f"  fill-rule="evenodd" clip-rule="evenodd" d="M114.884,182.612c-0.627-0.378-0.993-0.6-1.361-0.822
	c0.188-0.308,0.231-0.488,0.322-0.516C114.572,181.048,114.997,181.235,114.884,182.612z"/>
<path class="stroke" fill="#51050f"  fill-rule="evenodd" clip-rule="evenodd" d="M19.819,153.17c-0.714-0.087-1.132-0.139-1.57-0.192
	c0.068-0.348,0.049-0.523,0.125-0.589C18.916,151.92,19.327,152.06,19.819,153.17z"/>
<path class="stroke" fill="#51050f"  fill-rule="evenodd" clip-rule="evenodd" d="M133.355,148.573c-0.715-0.239-1.153-0.49-0.709-1.384
	C133.443,147.359,133.825,147.643,133.355,148.573z"/>
<path class="stroke" fill="#51050f"  fill-rule="evenodd" clip-rule="evenodd" d="M73.876,86.187c0.795,0,1.23,0,1.885,0c-0.277,0.471-0.455,0.773-0.73,1.24
	C74.646,87.015,74.375,86.723,73.876,86.187z"/>
<path class="stroke" fill="#51050f"  fill-rule="evenodd" clip-rule="evenodd" d="M92.272,191.493c1.399-0.377,1.399-0.377,1.65,0.922
	C93.314,192.076,92.934,191.863,92.272,191.493z"/>
<path class="stroke" fill="#51050f"  fill-rule="evenodd" clip-rule="evenodd" d="M32.647,121.629c0.835-0.996,1.24-0.772,1.531,0.388
	C33.526,121.852,33.087,121.741,32.647,121.629z"/>
<path class="stroke" fill="#51050f"  fill-rule="evenodd" clip-rule="evenodd" d="M49.145,129.44c0.671-1.071,1.095-0.881,1.681,0.244
	C50.039,129.57,49.592,129.505,49.145,129.44z"/>
<path class="stroke" fill="#51050f"  fill-rule="evenodd" clip-rule="evenodd" d="M134.369,129.514c-0.104,0.427-0.173,0.715-0.317,1.311
	c-0.518-0.433-0.848-0.708-1.568-1.311C133.425,129.514,133.825,129.514,134.369,129.514z"/>
<path class="stroke" fill="#51050f"  fill-rule="evenodd" clip-rule="evenodd" d="M51.11,110c-0.415-0.156-0.83-0.312-1.511-0.568
	c0.991-0.825,1.411-0.65,1.726-0.039C51.253,109.594,51.183,109.797,51.11,110z"/>
<path class="stroke" fill="#51050f"  fill-rule="evenodd" clip-rule="evenodd" d="M33.648,136.435c-0.835-0.219-1.22-0.32-1.697-0.444
	C32.769,135.185,32.769,135.185,33.648,136.435z"/>
<path class="stroke" fill="#51050f"  fill-rule="evenodd" clip-rule="evenodd" d="M141.444,145.938c0.411,0.081,0.822,0.162,1.238,0.245
	c-0.08,0.364-0.085,0.584-0.139,0.597c-0.56,0.134-0.562,0.125-1.204-0.403C141.375,146.23,141.409,146.084,141.444,145.938z"/>
<path class="stroke" fill="#51050f"  fill-rule="evenodd" clip-rule="evenodd" d="M76.528,91.355c0.783,0.222,1.169,0.331,1.627,0.461
	C77.299,92.826,77.299,92.826,76.528,91.355z"/>
<path class="stroke" fill="#51050f"  fill-rule="evenodd" clip-rule="evenodd" d="M127.346,144.203c-0.517-0.603-0.739-0.864-1.14-1.332
	c0.637-0.127,1.016-0.203,1.647-0.329C127.677,143.12,127.577,143.446,127.346,144.203z"/>
<path class="stroke" fill="#51050f"  fill-rule="evenodd" clip-rule="evenodd" d="M11.572,142.865c-0.384-0.089-0.767-0.178-1.263-0.293
	C11.051,141.898,11.051,141.898,11.572,142.865z"/>
<path class="stroke" fill="#51050f"  fill-rule="evenodd" clip-rule="evenodd" d="M57.008,121.205c-0.374-0.135-0.747-0.271-1.196-0.433
	C56.612,120.055,56.612,120.055,57.008,121.205z"/>
<path class="stroke" fill="#51050f"  fill-rule="evenodd" clip-rule="evenodd" d="M38.985,123.953c0.43-0.139,0.674-0.301,0.878-0.261
	c0.213,0.042,0.389,0.277,0.608,0.451C39.965,125.025,39.559,124.861,38.985,123.953z"/>
<path class="stroke" fill="#51050f"  fill-rule="evenodd" clip-rule="evenodd" d="M59.519,116.716c0.326,0.231,0.653,0.463,1.137,0.806
	c-0.901,0.387-1.334,0.319-1.491-0.323C59.282,117.038,59.4,116.877,59.519,116.716z"/>
<path class="stroke" fill="#51050f"  fill-rule="evenodd" clip-rule="evenodd" d="M43.622,117.343c-0.318-0.254-0.637-0.507-1.209-0.963
	c0.678-0.129,1.025-0.196,1.508-0.288c0.039,0.426,0.066,0.726,0.094,1.026C43.884,117.192,43.753,117.268,43.622,117.343z"/>
<path class="stroke" fill="#51050f"  fill-rule="evenodd" clip-rule="evenodd" d="M151.484,126.898c0.634,0.514,0.958,0.776,1.546,1.254
	C151.747,128.539,151.502,128.177,151.484,126.898z"/>
<path class="stroke" fill="#51050f"  fill-rule="evenodd" clip-rule="evenodd" d="M54.854,115.836c-0.912,0.852-1.365,0.775-1.806-0.14
	c0.28-0.126,0.501-0.313,0.7-0.294C54.035,115.429,54.307,115.609,54.854,115.836z"/>
<path class="stroke" fill="#51050f"  fill-rule="evenodd" clip-rule="evenodd" d="M165.938,112.629c-1.279,0.319-1.48-0.063-0.919-1.152
	C165.408,111.964,165.673,112.297,165.938,112.629z"/>
<path class="stroke" fill="#51050f"  fill-rule="evenodd" clip-rule="evenodd" d="M39.088,131.117c-0.584-0.07-1.001-0.121-1.432-0.172
	c0.055-0.341,0.032-0.537,0.1-0.575C38.319,130.052,38.767,130.111,39.088,131.117z"/>
<path class="stroke" fill="#51050f"  fill-rule="evenodd" clip-rule="evenodd" d="M124.913,147.844c-0.187-0.318-0.374-0.636-0.622-1.058
	C125.36,146.843,125.36,146.843,124.913,147.844z"/>
<path class="stroke" fill="#51050f"  fill-rule="evenodd" clip-rule="evenodd" d="M13.858,157.234c-0.427-0.08-0.854-0.159-1.432-0.267
	C13.069,156.146,13.513,156.033,13.858,157.234z"/>
<path class="stroke" fill="#51050f"  fill-rule="evenodd" clip-rule="evenodd" d="M5.636,154.021c-0.385-0.116-0.77-0.231-1.307-0.392
	C5.072,152.694,5.472,152.867,5.636,154.021z"/>
<path class="stroke" fill="#51050f"  fill-rule="evenodd" clip-rule="evenodd" d="M19.945,139.279c-0.64-0.251-1.017-0.398-1.612-0.632
	C19.376,138.173,19.376,138.173,19.945,139.279z"/>
<path class="stroke" fill="#51050f"  fill-rule="evenodd" clip-rule="evenodd" d="M76.362,104.941c-0.396-0.288-0.664-0.484-1.275-0.931
	c0.742-0.035,1.065-0.051,1.509-0.072C76.509,104.31,76.456,104.537,76.362,104.941z"/>
<path class="stroke" fill="#51050f"  fill-rule="evenodd" clip-rule="evenodd" d="M31.071,140.534c0.219,0.366,0.377,0.632,0.788,1.321
	c-0.812-0.258-1.202-0.383-1.932-0.615C30.515,140.877,30.763,140.725,31.071,140.534z"/>
<path class="stroke" fill="#51050f"  fill-rule="evenodd" clip-rule="evenodd" d="M73.355,98.077c-0.651-0.421-0.956-0.619-1.606-1.04
	c0.684-0.149,1.111-0.371,1.277-0.246C73.226,96.941,73.2,97.387,73.355,98.077z"/>
<path class="stroke" fill="#51050f"  fill-rule="evenodd" clip-rule="evenodd" d="M128.287,137.524c0.349,0.167,0.697,0.334,1.046,0.5
	c-0.094,0.173-0.188,0.347-0.282,0.521c-0.329-0.204-0.659-0.408-0.989-0.611C128.138,137.797,128.212,137.66,128.287,137.524z"/>
<path class="stroke" fill="#51050f"  fill-rule="evenodd" clip-rule="evenodd" d="M157.868,116.773c-0.369-0.354-0.635-0.609-1.013-0.971
	C157.92,115.712,157.92,115.712,157.868,116.773z"/>
<path class="stroke" fill="#51050f"  fill-rule="evenodd" clip-rule="evenodd" d="M92.075,90.527c0.34,0.139,0.68,0.279,1.021,0.418
	c-0.051,0.15-0.101,0.301-0.151,0.451c-0.354-0.081-0.707-0.161-1.061-0.241C91.947,90.946,92.011,90.737,92.075,90.527z"/>
<path class="stroke" fill="#51050f"  fill-rule="evenodd" clip-rule="evenodd" d="M58.089,110.178c0.316,0.187,0.632,0.373,0.947,0.56
	c-0.068,0.14-0.138,0.279-0.206,0.418c-0.337-0.127-0.675-0.254-1.012-0.381C57.909,110.577,57.999,110.377,58.089,110.178z"/>
<path class="stroke" fill="#51050f"  fill-rule="evenodd" clip-rule="evenodd" d="M59.678,119.786c0.241,0.099,0.483,0.198,0.725,0.296
	c-0.032,0.093-0.064,0.187-0.097,0.28c-0.255-0.063-0.51-0.127-0.766-0.191C59.586,120.043,59.632,119.915,59.678,119.786z"/>
<path class="stroke" fill="#51050f"  d="M179.544,23.855c-2.268-0.871-3.23,0.987-4.91,2.028c-2.188-0.76-4.54-1.656-6.941-2.389
	c-2.372-0.723-4.795-1.28-7.365-1.955c0.825-1.475,1.518-2.651,2.15-3.858c1.319-2.514,2.279-5.128,2.129-8.04
	c-0.047-0.905-0.071-1.79-1.143-2.531c-3.996-0.183-6.763,2.265-9.564,5.335c-3.797,0.646-6.082,3.271-7.665,6.514
	c-4.266,1.251-16.085,2.296-18.648,1.666c-0.429-0.48-0.878-0.982-1.291-1.446c-2.798,0.308-5.729,3.054-6.269,5.793
	c-0.268,1.357-0.182,2.599,1.393,3.712c2.361,0.324,5.057,0.86,7.773,1.023c3.001,0.181,6.022,0.01,9.035,0.017
	c0.56,0.001,1.119,0.12,2.037,0.226c-1.595,2.745-2.966,5.176-4.414,7.56c-0.503,0.827-1.412,1.078-2.35,0.983
	c-1.701-0.172-3.469-0.166-5.076-0.661c-2.065-0.637-3.462,0.045-4.686,1.542c-0.686,0.84-1.31,1.732-1.938,2.57
	c0.238,0.766,0.433,1.389,0.648,2.08c-0.913,0.141-1.704,0.263-2.616,0.403c-0.494,1.299-0.969,2.544-1.461,3.838
	c0.611,0.309,0.951,0.576,1.329,0.652c1.74,0.354,3.488,0.678,5.24,0.971c1.886,0.316,3.699,0.683,5.46,1.608
	c2.139,1.124,4.5,1.587,6.895,0.372c0.562-0.285,1.318-0.336,1.962-0.271c1.083,0.11,2.154,0.377,3.221,0.62
	c1.918,0.437,3.828,0.903,5.724,1.354c1.217-1.442,2.263-2.761,2.52-4.867c-1.772-1.439-3.605-2.928-5.673-4.606
	c1.936-4.207,5.074-7.749,7.48-11.992c2.32,0.338,4.547,0.607,6.751,1.002c1.477,0.264,2.916,0.733,4.383,1.061
	c2.594,0.579,5.191,1.144,7.798,1.661c0.655,0.13,1.418,0.249,2.014,0.039c1.743-0.615,3.476-1.377,4.568-2.965
	c1.537-2.232,2.513-4.688,2.562-7.472C180.208,24.841,179.831,24.282,179.544,23.855z"/>
<path fill-rule="evenodd" clip-rule="evenodd" fill="#f04c47" class="fill" d="M152.435,18.473c0.867,0.098,1.734,0.196,2.599,0.294
	c0.686-0.621,1.282-1.161,2.038-1.845c-0.346-1.262-0.682-2.492-1.02-3.727c1.117-2.123,3.398-3.842,5.936-4.393
	c0.39,1.053,0.245,2.111-0.023,3.152c-0.764,2.956-2.256,5.575-3.94,8.072c-0.505,0.747-1.431,1.197-2.112,1.837
	c-0.992,0.932-2.125,1.787-2.869,2.896c-2.706,4.027-5.244,8.167-7.912,12.221c-1.159,1.763-2.479,3.421-3.771,5.189
	c-1.668-0.585-3.247-0.447-4.57,0.486c-1.248,0.88-2.302,2.037-3.627,3.24c-2.393-1.609-4.918-3.307-7.545-5.074
	c0.381-0.681,0.631-1.125,0.927-1.652c1.433,0.221,2.774,0.435,4.12,0.63c0.744,0.108,1.491,0.209,2.24,0.271
	c2.742,0.227,4.51-0.697,5.73-3.467c1.699-3.856,4.025-7.435,6.076-11.137c1.29-2.33,2.566-4.667,3.848-7.002
	c1.018-1.856,1.66-2.53,3.498-3.558c0.064,0.123,0.166,0.3,0.253,0.484c0.177,0.369,0.345,0.742,0.523,1.128
	c-0.117,0.668-0.232,1.327-0.342,1.992c-0.444,0.102-0.896,0.199-1.38,0.304c-0.249,0.607-0.499,1.219-0.744,1.819
	c0.748,1.276,1.918,1.393,3.285,1.484c0.316-0.745,0.614-1.449,0.861-2.032C153.684,19.442,153.059,18.958,152.435,18.473z
	 M148.123,26.202c-1.187-0.065-1.802,0.3-1.931,1.189c-0.146,1.017,0.355,1.689,1.57,2.146c0.624-0.396,1.371-0.872,2.227-1.416
	C149.21,27.319,148.649,26.744,148.123,26.202z M150.779,25.635c1.305-0.812,1.249-1.625,0.87-2.673
	c-0.488-0.167-1.033-0.354-1.655-0.566c-0.573,0.608-1.062,1.126-1.793,1.902C149.251,24.843,150.036,25.25,150.779,25.635z
	 M143.131,31.977c0.597,0.396,1.114,1.011,1.599,0.985c0.489-0.025,0.944-0.687,1.63-1.246c-0.777-0.648-1.297-1.082-1.823-1.521
	c-0.386,0.326-0.618,0.473-0.783,0.675C143.586,31.075,143.485,31.333,143.131,31.977z"/>
<path fill-rule="evenodd" clip-rule="evenodd" fill="#f04c47" class="fill" d="M175.091,27.551c-0.716,1.398-1.327,2.593-1.9,3.713
	c-6.263-2.223-12.759-2.931-19.243-4.396c0.693-1.487,1.69-2.686,2.92-3.577c0.551-0.399,1.558-0.417,2.293-0.275
	c3.943,0.756,7.868,1.597,11.61,3.131C172.083,26.685,173.476,27.033,175.091,27.551z"/>
<path fill-rule="evenodd" clip-rule="evenodd" fill="#f04c47" class="fill" d="M140.224,25.276c-3.94,0.159-7.89,0.318-12.229,0.493
	c-0.304,0.266-0.91,0.795-1.687,1.474c-1.366-0.223-2.873-0.468-4.519-0.735c0.423-2.213,1.464-3.765,2.9-5.062
	c0.253-0.229,0.767-0.168,1.159-0.241c0.092,0.133,0.183,0.265,0.274,0.397c-0.864,1.337-1.729,2.675-2.771,4.285
	c0.28,0.288,0.542,0.557,1.027,1.056c1.185-1.614,2.132-2.904,3.106-4.231c5.218-0.475,10.433-0.95,15.932-1.45
	C142.603,22.848,141.369,23.938,140.224,25.276z"/>
<path fill-rule="evenodd" clip-rule="evenodd" fill="#f04c47" class="fill" d="M135.495,46.16c0.805-0.9,1.344-1.68,2.051-2.252
	c0.903-0.731,1.902-0.771,3.055-0.267c3.093,1.353,5.447,3.546,7.631,6.311c-0.248,0.508-0.531,1.088-0.85,1.743
	c-0.625-0.078-1.138-0.143-1.765-0.222c0.077-0.756,0.142-1.403,0.233-2.305C142.667,47.889,139.288,47.237,135.495,46.16z"/>
<path fill-rule="evenodd" clip-rule="evenodd" fill="#f04c47" class="fill" d="M153.567,28.647c5.592,0.857,11.215,1.667,16.742,3.162
	c-0.078,0.417-0.082,0.619-0.156,0.791c-0.076,0.179-0.221,0.328-0.429,0.621C164.063,32.876,158.756,31.07,153.567,28.647z"/>
<path fill-rule="evenodd" clip-rule="evenodd" fill="#f04c47" class="fill" d="M173.993,33.179c1.527-2.716,2.371-5.538,4.02-7.915
	c0.154,0.023,0.307,0.047,0.46,0.07c0.093,0.481,0.328,0.986,0.252,1.44c-0.406,2.425-1.45,4.56-3.357,6.146
	c-0.952,0.792-2.116,1.13-3.373,0.423c0.083-0.261,0.142-0.446,0.25-0.788C172.802,32.753,173.324,32.94,173.993,33.179z"/>
<path fill-rule="evenodd" clip-rule="evenodd" fill="#f04c47" class="fill" d="M123.971,42.116c1.557,0.145,6.278,3.312,8.595,5.632
	c-0.189,0.5-0.395,1.043-0.63,1.664C128.679,47.608,126.854,44.459,123.971,42.116z"/>
<path fill-rule="evenodd" clip-rule="evenodd" fill="#f04c47" class="fill" d="M134.209,48.911c0.34-0.722,0.478-1.015,0.73-1.551
	c2.974,0.799,5.903,1.586,8.774,2.358c0.18,0.944-0.284,1.211-0.897,1.083C140.035,50.224,137.267,49.588,134.209,48.911z"/>
<path fill-rule="evenodd" clip-rule="evenodd" fill="#f04c47" class="fill" d="M129.37,26.966c3.074,0,6.147,0,9.699,0
	c-0.525,0.503-0.799,0.986-1.051,0.975c-2.893-0.128-5.78-0.331-8.669-0.514C129.356,27.273,129.363,27.12,129.37,26.966z"/>
<path fill-rule="evenodd" clip-rule="evenodd" fill="#f04c47" class="fill" d="M108.394,172.428c0.636,1.932,0.518,3.607-0.203,5.211
	c-1.953,0.73-1.953,0.73-3.142-0.177C105.255,175.261,106.476,173.35,108.394,172.428z"/>
<path fill-rule="evenodd" clip-rule="evenodd" fill="#f04c47" class="fill" d="M146.121,123.636c-0.884-0.057-1.607-0.104-2.568-0.166
	c0.312-1.781,0.522-3.333,2.326-4.226C146.875,120.648,146.935,122.003,146.121,123.636z"/>
<path fill-rule="evenodd" clip-rule="evenodd" fill="#f04c47" class="fill" d="M136.005,135.068c0.926,1.312,0.588,2.634,0.666,4.199
	c-1.121-0.137-2.004-0.246-3.001-0.367C133.949,137.159,134.582,135.937,136.005,135.068z"/>
<path fill-rule="evenodd" clip-rule="evenodd" fill="#f04c47" class="fill" d="M48.274,126.25c-1.322,0-2.199,0-3.23,0
	c0.211-1.825,1.175-2.821,2.686-3.927C47.926,123.738,48.083,124.872,48.274,126.25z"/>
<path fill-rule="evenodd" clip-rule="evenodd" fill="#f04c47" class="fill" d="M83.622,99.217c-1.057,0-2.006,0-3.114,0
	c0.272-1.753,0.832-3.07,2.413-3.843C84.163,96.511,83.56,97.806,83.622,99.217z"/>
<path fill-rule="evenodd" clip-rule="evenodd" fill="#f04c47" class="fill" d="M123.065,157.703c-0.828,0-1.482,0-2.121,0
	c-0.656-1.959,0.13-3.708,2.328-4.9C123.805,154.434,123.836,155.949,123.065,157.703z"/>
<path fill-rule="evenodd" clip-rule="evenodd" fill="#f04c47" class="fill" d="M24.909,144.924c-0.861,0-1.681,0-2.614,0
	c0.186-1.68,0.784-2.858,2.172-3.813C25.134,142.391,25.284,143.577,24.909,144.924z"/>
<path fill-rule="evenodd" clip-rule="evenodd" fill="#f04c47" class="fill" d="M66.599,112.451c-0.865-0.096-1.574-0.175-2.404-0.267
	c0.438-1.553,0.961-2.675,2.104-3.548C67.204,109.757,66.851,110.881,66.599,112.451z"/>
<path fill-rule="evenodd" clip-rule="evenodd" fill="#f04c47" class="fill" d="M154.698,109.802c0.172-1.897,0.764-3.025,2.096-3.846
	c1.146,1.071,0.983,2.265,0.497,3.725C156.511,109.717,155.703,109.755,154.698,109.802z"/>
<path fill-rule="evenodd" clip-rule="evenodd" fill="#f04c47" class="fill" d="M97.704,81.641c0.938,1.354,0.85,2.5,0.457,3.912
	c-0.85,0-1.635,0-2.564,0C95.845,83.917,96.606,82.822,97.704,81.641z"/>
</svg>
