<svg version="1.1" id="svg" xmlns="http://www.w3.org/2000/svg" xmlns:xlink="http://www.w3.org/1999/xlink" x="0px" y="0px"
	 width="200px" height="200px" viewBox="0 0 200 200" enable-background="new 0 0 200 200" xml:space="preserve">
<path class="stroke" fill="#51050f"  d="M172.449,162.59c0.549-1.471-0.057-2.77-0.513-4.085c-0.886-2.543-1.832-5.065-2.716-7.608
	c-0.849-2.441-1.763-4.867-2.455-7.353c-1.521-5.467-2.871-10.98-4.385-16.448c-1.526-5.522-3.166-11.013-4.793-16.64
	c-0.907-1.129-1.314-1.307-2.932-1.465c-2.18-0.213-4.369-0.303-6.559-0.422c-1.267-0.069-2.537-0.091-4.024-0.143
	c0.397-1.775,0.726-3.306,1.088-4.828c0.61-2.582,1.06-5.177,0.837-7.848c-0.289-3.451-1.923-6.353-3.963-8.989
	c-1.485-1.922-3.41-3.423-5.939-3.905c-0.76-0.145-1.485-0.459-2.456-0.769c0.077-1.571,0.15-3.109,0.226-4.63
	c0.297-0.272,0.539-0.504,0.794-0.725c5.128-4.44,9.73-9.337,13.323-15.136c1.239-2,2.095-4.088,2.095-6.483
	c0-0.783,0.177-1.565,0.241-2.35c0.19-2.374,0.18-4.797-0.688-6.997c-1.508-3.83-3.467-7.442-6.51-10.345
	c-2.381-2.274-5.025-4.19-8.156-5.214c-2.115-0.692-4.353-1.043-6.557-1.436c-2.209-0.394-4.447-0.916-6.671-0.908
	c-4.032,0.015-8.074,0.288-12.095,0.632c-2.964,0.253-5.918,0.7-8.845,1.224c-3.513,0.628-5.667,2.833-6.528,6.26
	c-0.58,2.304-0.85,4.639-0.347,7.014c0.526,2.469,0.997,4.949,1.485,7.385c-0.389,1.678-0.885,3.35-1.135,5.059
	c-0.194,1.324-0.158,2.696-0.091,4.04c0.241,4.688-0.931,9-3.147,13.11c-1.118,2.07-2.04,4.256-2.922,6.442
	c-1.258,3.114-0.436,5.706,2.273,7.598c0.537,0.376,1.095,0.724,1.773,1.17c-2.675,1.291-4.717,3.172-6.484,5.389
	c-2.943,3.688-5.904,7.361-8.869,11.032c-1.74,2.153-3.663,4.106-5.989,5.653c-1.682,1.118-3.479,1.783-5.481,1.998
	c-1.432,0.154-2.847,0.42-4.77,0.711c-1.104-0.282-2.142-1.473-3.213-2.625c-1.373-1.48-2.682-3.034-4.158-4.403
	c-1.352-1.251-2.989-1.128-4.558-0.336c-1.56,0.789-2.292,2.087-2.168,3.852c0.107,1.53,0.436,2.984,1.269,4.31
	c0.452,0.724,0.792,1.519,1.297,2.5c-3.333-0.03-6.26,0.415-9.156,1.179c-3.214,0.849-5.146,2.979-6.439,5.87
	c0.157,0.34,0.27,0.594,0.391,0.843c0.147,0.298,0.3,0.593,0.398,0.789c1.683,1.071,1.773,1.072,3.534,0.444
	c0.46-0.165,0.948-0.253,1.423-0.377c-2.096,1.521-4.249,2.814-4.211,5.803c0.281,0.593,0.567,1.199,0.703,1.487
	c1.103,0.815,1.938,1.433,2.665,1.971c-0.413,4.626-1.938,8.697-3.222,12.823c-0.949,3.058-2.041,6.071-3.086,9.099
	c-0.621,1.803-1.285,3.593-1.905,5.397c-0.16,0.47-0.326,0.979-0.308,1.462c0.093,2.35,0.23,4.698,0.396,7.043
	c0.021,0.302,0.286,0.586,0.499,0.994c0.583,0.043,1.186,0.135,1.787,0.123c3.096-0.064,6.188-0.153,9.282-0.236
	c1.295-0.035,2.59-0.04,3.881-0.122c5.839-0.37,11.673-0.813,17.513-1.13c4.101-0.223,8.21-0.271,12.315-0.419
	c2.022-0.073,4.041-0.257,6.064-0.288c9.9-0.148,19.801-0.31,29.701-0.368c7.031-0.042,14.066,0.06,21.1,0.118
	c7.307,0.061,14.613,0.159,21.922,0.216c4.164,0.033,8.328,0.045,12.492,0.003c1.329-0.013,2.656-0.233,3.981-0.359
	c0.639-1.643,1.204-3.093,1.819-4.67C172.54,163.348,172.33,162.908,172.449,162.59z"/>
<path fill-rule="evenodd" clip-rule="evenodd" fill="#f04c47" class="fill" d="M33.113,160.769c2.702-8.602,5.351-17.033,8.012-25.504
	c0.204,0.09,0.436,0.138,0.598,0.271c2.703,2.218,5.516,1.281,8.046-0.077c5.781-3.104,7.005-3.748,12.543-5.25
	c4.589,1.167,8.907,2.268,13.226,3.367c0.004,0.087,0.006,0.175,0.008,0.262c-0.271,0.069-0.562,0.233-0.816,0.189
	c-0.94-0.161-1.877-0.355-2.801-0.598c-2.48-0.651-4.411,0.299-6.03,2.076c-0.753,0.823-1.601,1.404-2.784,1.592
	c-0.771-0.291-1.604-0.619-2.451-0.918c-3.439-1.219-6.699,0.391-7.936,3.833c-0.312,0.868-0.877,1.644-1.238,2.302
	c-3.262,0.439-5.918,1.576-8.277,3.384c-2.849,2.181-3.738,6.394-0.826,9.472c2.014,2.13,4.33,3.424,7.182,3.597
	c2.685,0.163,5.388,0.115,8.08,0.044c2.697-0.072,5.389-0.277,8.083-0.446c1.011-0.064,2.017-0.168,3.021-0.294
	c2.057-0.257,3.678-1.378,5.108-2.762c1.148-1.11,1.148-2.9,0.008-4.12c-0.718-0.767-1.607-1.372-2.471-2.089
	c0.067-0.177,0.141-0.374,0.266-0.702c2.598,1.72,5.553,2.183,8.428,2.771c3.242,0.663,6.555,0.985,9.836,1.459
	c1.558,0.225,3.111,0.493,4.674,0.679c0.944,0.112,1.904,0.104,2.737,0.144c2.188-1.627,3.836-6.572,3.781-11.082
	c-0.462-1.335-1.627-1.969-2.722-2.632c-2.261-1.368-4.566-2.663-6.832-4.021c-0.746-0.447-1.431-0.998-2.091-1.657
	c6.502-0.805,13.015-1.095,19.411-3.417c-0.907-0.818-1.755-0.657-2.447-0.509c-1.992,0.429-3.986,0.453-6.008,0.492
	c-1.898,0.037-3.789,0.465-5.69,0.578c-3.029,0.179-6.064,0.255-9.098,0.33c-0.421,0.01-0.942-0.118-1.254-0.378
	c-1.872-1.562-3.698-1.286-5.552-0.003c-0.181,0.126-0.388,0.215-0.73,0.401c-3.438-0.712-7.115-0.789-10.514-2.507
	c0.277-0.07,0.563-0.226,0.832-0.198c2.75,0.283,5.5,0.342,8.223-0.19c0.87-0.17,1.915-0.15,2.531-1.353
	c-1.889-0.654-3.752,0.296-5.61-0.246c0.21-0.763,0.837-0.992,1.401-1.292c3.319-1.77,6.746-3.369,9.915-5.376
	c2.059-1.305,3.812-3.137,5.562-4.87c0.956-0.947,1.895-1.37,3.254-1.378c3.597-0.022,7.193-0.191,10.786-0.362
	c3.484-0.166,6.966-0.397,10.447-0.621c2.078-0.133,4.151-0.318,6.227-0.455c0.646-0.043,1.297-0.007,1.945-0.007
	c0.036,0.118,0.072,0.234,0.105,0.351c-1.642,1.013-3.276,2.041-4.93,3.035c-1.826,1.098-3.001,2.661-3.579,4.799
	c1.011,1.955,2.89,1.449,4.632,1.603c-0.439,2.159-2.166,4.011-1.501,6.584c0.64,0.382,1.398,0.837,2.315,1.385
	c0.701,1.546,2.107,2.096,3.897,2.017c1.682-0.074,3.197-0.519,4.196-1.61c1.373,0,2.468,0,3.266,0
	c0.785-0.716,1.31-1.192,1.783-1.623c0.701,0.109,1.248,0.256,1.8,0.269c1.893,0.042,2.969-1.115,3.686-2.681
	c0.861-1.883,1.732-3.769,2.468-5.703c0.722-1.898,1.088-3.888,1.014-5.942c-0.022-0.663,0.055-1.33,0.087-2.051
	c4.162-1.036,8.243-0.215,12.494-0.305c1.69,5.14,2.854,10.399,4.419,15.539c1.572,5.164,3.131,10.331,4.701,15.495
	c1.564,5.146,3.137,10.29,4.78,15.68c-1.808,0.213-3.619,0.504-5.44,0.622c-2.857,0.184-5.725,0.264-8.588,0.364
	c-6.348,0.224-12.696,0.452-19.045,0.643c-5.951,0.179-11.902,0.321-17.855,0.46c-5.108,0.119-10.217,0.205-15.328,0.319
	c-6.855,0.154-13.712,0.43-20.567,0.451c-5.565,0.017-11.132-0.271-16.696-0.409c-2.977-0.075-5.953-0.096-8.93-0.178
	c-5.329-0.146-10.658-0.304-15.985-0.49c-1.799-0.063-3.593-0.221-5.388-0.349C34.367,160.933,33.824,160.851,33.113,160.769z
	 M102.99,139.305c0.718,0.244,1.11,0.457,1.523,0.504c1.807,0.208,3.279,1.057,4.566,2.283c0.648,0.617,1.264,1.272,1.931,1.869
	c0.247,0.222,0.6,0.329,1.106,0.593C109.754,140.075,105.857,137.735,102.99,139.305z M100.3,137.973
	c1.638,0.34,2.938-0.372,4.296-0.446c1.422-0.078,2.849-0.017,4.479-0.017C107.071,135.525,101.953,135.809,100.3,137.973z
	 M87.579,125.695c-1.481,0.784-1.597,2.402-2.384,3.711C86.65,129.635,86.746,129.486,87.579,125.695z M88.307,130.271
	c0.048,0.131,0.095,0.262,0.14,0.393c1.084,0.25,2.936-0.682,3.659-2.069C90.675,129.227,89.491,129.748,88.307,130.271z"/>
<path fill-rule="evenodd" clip-rule="evenodd" fill="#f04c47" class="fill" d="M131.223,48.109c0.567,2.714-0.051,5.246-1.354,7.538
	c-1.269,2.232-2.85,4.287-4.393,6.568c1.446,1.104,2.873,2.429,4.832,3.079c0.669-0.334,1.301-0.698,1.97-0.972
	c1.604-0.659,2.707,0.041,2.735,1.751c0.036,2.095-1.285,3.412-2.814,4.525c-0.622,0.452-1.42,0.662-2.136,0.986
	c-0.646,0.292-1.293,0.588-2.057,0.937c0.316,0.939,0.499,1.768,0.867,2.503c0.548,1.093,0.718,2.198,0.679,3.414
	c-0.076,2.353-0.022,4.71-0.022,7.295c-2.19,0.934-4.709,1.187-7.546,1.296c0.825-2.338,1.564-4.435,2.41-6.834
	c-0.318-0.271-0.689-0.59-1.008-0.863c-0.346,0.116-0.555,0.122-0.648,0.229c-0.293,0.334-0.564,0.691-0.802,1.065
	c-1.988,3.131-3.877,6.33-5.972,9.388c-2.646,3.868-6.607,5.318-11.106,5.245c-2.69-0.044-4.737-1.644-6.385-3.666
	c-0.778-0.955-1.427-2.025-2.054-3.091c-0.867-1.476-2.167-2.43-3.652-3.139c-2.214-1.058-3.015-2.745-2.206-5.045
	c0.448-1.271,0.984-2.512,1.525-3.748c1.265-2.883,2.712-5.699,3.777-8.652c0.596-1.648,0.713-3.512,0.794-5.291
	c0.107-2.348-0.093-4.71-0.032-7.063c0.028-1.085,0.36-2.164,0.594-3.469c0.697,0.349,1.116,0.56,1.64,0.823
	c-0.893,1.634-1.244,3.222-0.246,4.83c2.059,1.266,3.871,1.272,5.474,0.022c2.179-1.7,2.618-2.96,1.848-5.474
	c-0.522-0.373-1.108-0.792-1.81-1.293c-0.693,0.048-1.495,0-2.238,0.187c-0.676,0.171-1.289,0.598-1.982,0.939
	c-0.036-1.644,1.174-2.355,4.837-2.889c1.388,1.57,2.886,3.23,4.337,4.931c0.438,0.514,0.715,1.198,1.767,0.687
	c-0.628-2.972,0.247-5.752,1.471-8.526c1.327,2.362,2.604,4.634,3.966,7.062c-0.187,0.115-0.533,0.347-0.895,0.551
	c-1.463,0.821-2.387,2.015-2.644,3.702c-0.353,2.307,0.581,4.007,2.879,4.389c3.451,0.574,6.328-0.462,7.259-4.496
	c0.506-2.187-0.584-3.883-2.744-4.507c-0.529-0.153-1.062-0.3-1.725-0.486c0.292-0.912,0.558-1.735,0.9-2.807
	c1.785,1.268,3.416,2.334,4.924,3.553c0.464,0.376,0.645,1.152,0.856,1.779c0.213,0.63,0.432,1.164,1.435,1.125
	C127.541,53.283,128.597,50.272,131.223,48.109z M110.822,71.863c-3.064-0.232-4.811,1.69-4.66,3.884
	c0.166,2.417,1.637,3.779,4.068,3.555C112.654,77.359,112.891,74.64,110.822,71.863z M107.071,58.625
	c-0.942-0.401-1.103,0.322-1.404,0.803c-0.97,1.541-1.933,3.084-2.952,4.71c1.005,2.133,1.553,2.655,2.837,2.399
	c-0.45-0.865-0.878-1.688-1.344-2.583C105.1,62.205,106.743,60.779,107.071,58.625z M128.761,69.497
	c1.357,0.86,2.718,0.427,3.81-1.039c0.743-0.997,0.588-1.764-0.59-2.864c-1.088-0.078-1.491,0.67-1.81,1.365
	c0.505,0.458,0.926,0.84,1.286,1.168c-0.514,1.281-1.309,0.516-1.963,0.543C129.27,68.923,129.053,69.167,128.761,69.497z
	 M96.717,82.792c0.379,0.567,0.906,0.801,1.541,0.46c0.68-0.363,1.436-0.752,1.041-1.77C97.858,81.117,97.544,81.273,96.717,82.792z
	"/>
<path fill-rule="evenodd" clip-rule="evenodd" fill="#f04c47" class="fill" d="M135.021,103.694c2.243,0.721,4.27,1.372,6.441,2.069
	c-0.072,0.687-0.133,1.261-0.215,2.046c-2.168-1.143-4.166-2.175-6.489-1.925c-0.262,0.028-0.487,0.375-1.027,0.817
	c2.702,0.519,5.085,1.073,7.187,2.593c-0.14,0.504-0.27,0.968-0.458,1.646c-2.026-0.948-3.925-2.009-6.114-1.9
	c-2.069,0.102-4.135,0.308-6.388,0.482c0.071-0.521,0.105-1.053,0.22-1.567c0.826-3.674,1.705-7.338,2.489-11.021
	c0.268-1.259,0.343-2.563,0.446-3.851c0.043-0.527-0.073-1.067-0.121-1.632c-1.69-0.097-0.765,1.965-2.003,2.091
	c-0.952,0.193-1.906,0.387-2.921,0.594c0.398,1.188,1.537,0.628,2.086,1.394c-0.034,0.142-0.091,0.392-0.137,0.581
	c-2.041,0-3.979-0.005-5.92,0.017c-0.091,0.001-0.18,0.245-0.385,0.542c1.791,1.09,3.885,0.53,5.877,1.275
	c-0.047,0.599-0.098,1.231-0.152,1.915c-2.903,0.131-5.725-0.817-8.557,0.154c0.353,1.095,1.088,0.918,1.734,0.953
	c1.799,0.093,3.595,0.191,5.39,0.306c0.262,0.017,0.519,0.135,0.933,0.249c-0.189,0.751-0.363,1.43-0.537,2.113
	c-2.209-0.102-4.273-0.213-6.341-0.283c-0.784-0.026-1.57,0.031-2.354,0.076c-0.543,0.031-0.986,0.216-1.013,1.086
	c1.422,0.532,2.942,0.075,4.401,0.226c1.503,0.156,3.013,0.25,4.621,0.379c0.039,0.448,0.071,0.802,0.12,1.371
	c-0.821,0-1.53,0.003-2.239,0c-2.192-0.014-4.385-0.048-6.577-0.032c-0.442,0.003-0.886,0.193-1.398,0.313
	c0.383,1.128,1.147,0.93,1.771,0.952c2.136,0.072,4.275,0.096,6.413,0.162c0.428,0.014,0.854,0.133,1.503,0.241
	c-0.235,0.628-0.413,1.11-0.64,1.712c-9.562,0.205-18.98,1.52-28.378,1.661c-0.432-1.139-0.626-4.572-0.491-6.232
	c0.158-1.953,0.671-3.935-0.189-6.055c-1.762,0.798-1.69,2.642-2.686,3.724c-0.389,0.177-0.78,0.354-1.233,0.561
	c0.149,0.601,0.283,1.135,0.439,1.764c-0.226,0.439-0.475,0.925-0.735,1.436c-0.854-0.255-1.027-1.535-2.354-1.109
	c0.456,1.03,0.894,2.016,1.376,3.102c-0.29,0.369-0.584,0.743-0.893,1.136c-0.926-0.706-1.082-2.118-2.696-2.266
	c0.556,1.401,1.037,2.615,1.617,4.077c-0.394,0.341-0.761,0.661-1.18,1.022c-1.171-0.907-0.975-2.89-2.92-3.152
	c0.545,1.542,1.02,2.887,1.522,4.312c-0.52,0.446-0.923,0.792-1.346,1.155c-1.099-1.045-0.85-2.922-2.771-3.639
	c0.473,1.845,0.865,3.373,1.261,4.92c-0.726,0.394-1.259,0.681-1.858,1.005c-0.909-1.135-0.806-2.861-2.458-3.756
	c-0.223,1.832,1.006,3.236,0.795,4.983c-0.397,0.23-0.859,0.497-1.295,0.75c-0.989-0.892-0.533-2.451-1.77-3.087
	c-0.901,0.533-0.266,1.228-0.23,1.809c0.04,0.665,0.227,1.321,0.369,2.099c-0.397,0.295-0.781,0.581-1.151,0.856
	c-1.106-1.057-0.661-2.922-2.519-3.874c0.291,1.827,0.528,3.322,0.784,4.932c-0.643,0.353-1.195,0.658-1.739,0.958
	c-0.779-1.216-0.084-2.697-1.188-3.589c-0.14-0.113-0.409-0.065-0.718-0.104c0,1.421,0,2.747,0,4.234
	c-0.36,0.188-0.77,0.403-1.244,0.652c-0.926-1.525,0.266-3.671-1.825-4.869c0,1.875,0,3.512,0,5.259
	c-0.312,0.098-0.661,0.208-1.121,0.353c-0.724-3.71-1.429-7.321-2.162-11.072c1.966,0.033,3.887-0.418,5.787-1.063
	c2.942-0.999,5.274-2.809,7.471-4.959c3.687-3.611,6.282-8.053,9.495-12.022c1.289-1.593,2.799-2.915,4.525-3.995
	c1.124-0.701,2.31-1.179,3.456-0.919c1.104,1.347,2.049,2.593,3.097,3.743c1.009,1.104,2.306,1.798,3.783,2.084
	c1.813,0.351,3.643,0.636,5.454,0.995c0.543,0.107,1.054,0.372,1.579,0.562c1.48,0.532,2.936,1.015,4.581,0.84
	c2.679-0.285,4.358-1.885,5.578-4.054c0.933-1.653,1.668-3.416,2.539-5.229c5.06,0.155,9.591-1.44,13.953-4.212
	c1.921,0.807,3.878,1.838,5.303,3.86c-1.04,0.31-2.011,0.599-3.044,0.906c0.383,1.314,1.255,0.841,1.949,0.842
	c0.778,0.001,1.555,0,2.441,0c0.235,0.831,0.444,1.567,0.672,2.376c-1.646,0.558-3.259-0.778-5.027,0.274
	c1.629,1.248,3.598,0.651,5.229,1.757c0.026,0.391,0.064,0.964,0.105,1.572c-1.815,0.445-3.47-1.287-5.325,0.077
	c1.572,1.251,3.599,0.73,5.203,1.864c-0.057,0.658-0.125,1.412-0.192,2.174c-2.136-0.013-3.929-1.491-6.356-0.927
	c1.844,1.78,4.227,1.411,6.01,2.738c-0.018,0.333-0.038,0.746-0.07,1.4c-1.261-0.409-2.347-0.8-3.455-1.109
	C137.389,103.081,136.312,102.574,135.021,103.694z"/>
<path fill-rule="evenodd" clip-rule="evenodd" fill="#f04c47" class="fill" d="M75.973,145.902c-1.267,0.155-1.721-0.438-2.262-0.883
	c-0.82-0.676-1.641-1.354-2.502-1.975c-0.89-0.641-1.785-0.541-2.754,0.225c-0.72,2.293-0.227,4.583,0.668,6.78
	c0.239,0.587,1.053,0.953,1.627,1.387c0.562,0.426,1.158,0.81,1.877,1.309c-1.315,2.045-2.993,3.108-5.167,3.355
	c-1.058,0.12-2.136,0.087-3.206,0.085c-4.157-0.006-8.315,0.019-12.474-0.06c-2.277-0.042-4.489-0.476-6.269-2.081
	c-0.539-0.487-1.123-0.988-1.481-1.601c-0.981-1.68-1.276-3.432,0.78-4.886c1.137-0.804,2.402-1.426,3.704-2.186
	c0.34,0.469,0.585,0.809,0.849,1.172c-0.196,0.526-0.369,0.988-0.575,1.542c0.349,0.188,0.664,0.356,0.764,0.41
	c1.615-1.554,3.224-2.879,4.541-4.448c0.867-1.033,1.348-2.401,1.943-3.648c0.257-0.537,0.362-1.147,0.481-1.542
	c2.89-1.794,5.223-0.137,7.83,0.512c-0.605,0.945-1.384,1.064-2.15,1.149c-3.465,0.385-4.968,1.863-5.373,5.387
	c0.498,0.197,0.841,0.029,1.056-0.444c0.185-0.409,0.33-0.837,0.519-1.244c0.633-1.36,1.584-2.307,3.173-2.435
	c0.56-0.046,1.121-0.122,1.67-0.238c1.212-0.253,1.698-0.865,1.785-1.947c0.962-0.878,1.878-1.547,2.581-2.392
	c1.438-1.73,3.157-2.099,5.287-1.614c2.967,0.675,5.071,2.526,7.107,4.791c-0.332,0.606-0.664,1.212-1.113,2.03
	c-0.68-0.662-1.251-1.104-1.681-1.657c-1.063-1.371-2.47-2.292-3.987-3.013c-0.547-0.259-1.352-0.25-1.951-0.073
	c-1.934,0.571-3.279,1.967-4.558,3.413c0.071,0.109,0.145,0.219,0.217,0.329c1.052-0.689,2.167-1.3,3.139-2.086
	c1.08-0.874,2.12-1.032,3.212-0.193c1.106,0.85,2.166,1.761,3.205,2.691c0.543,0.484,0.996,1.067,1.484,1.6
	c-0.686,1.222-1.223,1.361-2.137,0.518c-0.621-0.572-1.152-1.245-1.805-1.772c-0.535-0.434-1.191-0.72-1.877-1.121
	c-0.279,0.485-0.432,0.749-0.5,0.867C73.074,143.227,74.396,144.447,75.973,145.902z M47.218,148.686
	c-1.218,0.558-1.453,0.79-1.497,1.568c-0.076,1.326,0.387,2.518,1.49,3.208c1.688,1.059,3.559,1.326,5.451,0.467
	c0.217-0.098,0.316-0.451,0.464-0.671c-1.39-0.152-2.673-0.209-3.919-0.451c-1.44-0.281-2.263-1.48-2.182-2.941
	C47.045,149.545,47.127,149.229,47.218,148.686z M58.023,148.875c0.684,0.068,1.062,0.106,1.295,0.129
	c0.728-1.141,1.333-2.093,1.939-3.045c0.115,0.04,0.232,0.079,0.348,0.119c0.15,0.97,0.301,1.94,0.467,3.008
	c0.379-0.066,0.671-0.117,0.997-0.175c0.324-1.894-0.169-3.47-1.171-5.104C59.645,144.826,59.243,146.96,58.023,148.875z
	 M63.916,148.412c1.101-0.238,1.24-0.258,1.23-0.716c-0.021-1.001,0.602-2.13-0.475-3.171
	C63.957,145.816,63.707,146.991,63.916,148.412z M53.61,148.813c0.771-0.477,1.299-0.804,1.798-1.114c0-0.467,0.014-0.8-0.007-1.129
	c-0.006-0.091-0.113-0.177-0.174-0.266C53.88,146.492,53.689,146.735,53.61,148.813z"/>
<path fill-rule="evenodd" clip-rule="evenodd" fill="#f04c47" class="fill" d="M169.9,162.299c-0.361,1.136-0.594,1.864-0.84,2.641
	c-1.691,0.06-3.258,0.071-4.816,0.179c-4.261,0.296-8.514,0.736-12.779,0.922c-3.301,0.145-6.617-0.039-9.925-0.02
	c-2.3,0.014-4.598,0.179-6.896,0.177c-2.696-0.002-5.392-0.168-8.088-0.165c-7.421,0.009-14.843,0.077-22.264,0.108
	c-3.09,0.013-6.18-0.044-9.268,0c-4.486,0.064-8.971,0.207-13.455,0.284c-2.059,0.034-4.121-0.017-6.18-0.014
	c-3.367,0.003-6.731,0.014-10.099,0.03c-1.566,0.007-3.137-0.008-4.701,0.056c-3.872,0.155-7.742,0.38-11.616,0.52
	c-4.209,0.151-8.42,0.232-12.63,0.352c-0.562,0.016-1.12,0.092-1.68,0.113c-0.535,0.02-1.072,0.004-1.759,0.004
	c-0.132-1.245-0.241-2.286-0.361-3.427c1.433-0.333,2.756-0.013,4.075,0.015c4.268,0.087,8.538,0.162,12.808,0.21
	c5.111,0.059,10.233-0.058,15.34,0.162c6.633,0.285,13.254,0.528,19.896,0.212c4.214-0.2,8.438-0.129,12.654-0.199
	c6.974-0.116,13.948-0.209,20.919-0.387c5.114-0.131,10.225-0.478,15.339-0.561c7.026-0.113,14.056-0.005,21.081-0.116
	c3.761-0.06,7.518-0.357,11.271-0.594C167.141,162.725,168.346,162.501,169.9,162.299z"/>
<path fill-rule="evenodd" clip-rule="evenodd" fill="#f04c47" class="fill" d="M145.348,54.013c-0.586-1.763-1.056-3.176-1.529-4.594
	c-0.414-0.062-0.73-0.11-1.196-0.18c-0.896,1.931-1.126,4.173-2.881,5.789c-0.788-1.767,0.089-3.941-1.69-5.461
	c-1.661,1.209-1.503,3.618-3.272,4.85c0-0.412-0.054-0.761,0.007-1.089c0.488-2.641,0.368-5.251-0.309-7.847
	c-0.51-1.956-1.408-3.052-3.056-3.527c-1.663,1.624-2.82,3.812-4.997,5.5c-0.436-2.535-0.82-4.782-1.246-7.267
	c-0.225-0.24-0.64-0.683-1.139-1.218c-3.379,1.333-4.877,4.527-7.262,7.192c-1.096-2.169-2.132-4.222-3.146-6.232
	c-1.893,0.574-2.942,1.82-6.037,7.02c-2.217-2.111-3.604-4.857-5.769-7.006c-1.582,0.463-2.432,1.776-3.479,2.847
	c-0.949-1.579-0.984-4.282-0.088-6.682c1.385,0.748,0.745,3.297,2.866,3.401c0.737-1.956,1.607-3.68,3.23-5.238
	c0.419,0.911,0.72,1.674,1.11,2.389c0.67,1.229,1.348,2.46,2.121,3.625c0.271,0.409,0.833,0.625,1.473,1.076
	c0.821-3.269,2.582-5.671,4.74-7.973c0.95,1.333,1.775,2.579,2.69,3.755c0.894,1.149,1.544,2.6,3.289,3.075
	c1.046-2.279,2.015-4.495,4.066-6.29c1.427,2.82,2.663,5.603,3.815,8.48c0.363,0.035,0.68,0.065,1.208,0.116
	c-0.004-2.206-0.571-4.493,1.171-6.184c0.871,0.815,1.721,1.696,2.66,2.472c1.729,1.431,3.449,2.888,5.297,4.155
	c0.786,0.541,1.779,1.184,3.159,0.551c-0.825-1.655-2.044-3.125-2.069-5.167c1.117,0.392,1.86,1.049,2.527,1.793
	c2.522,2.812,3.842,6.185,4.466,9.854C146.298,51.285,145.992,52.513,145.348,54.013z"/>
<path fill-rule="evenodd" clip-rule="evenodd" fill="#f04c47" class="fill" d="M35.887,122.47c0.604-0.486,1.184-0.91,1.714-1.392
	c3.557-3.244,7.738-4.069,12.358-3.201c1.317,0.248,2.643,0.578,3.976-0.546c-0.187-0.39-0.304-0.818-0.56-1.129
	c-0.932-1.126-1.912-2.212-2.871-3.314c-1.051-1.206-1.469-2.636-1.43-4.203c0.027-1.042,0.455-1.833,1.767-2.119
	c0.782,0.857,1.649,1.725,2.419,2.671c1.291,1.586,2.724,3.028,4.472,4.073c1.04,0.621,2.245,0.965,3.557,1.508
	c0.843,2.751,1.239,5.685,0.468,8.978c-1.287-0.702-2.445-1.333-3.672-2.003c-0.549,1.441,0.347,1.801,1.093,2.275
	c0.709,0.45,1.386,0.949,2.059,1.413c0,0.458,0,0.829,0,1.251c-0.251,0-0.446,0.062-0.558-0.01c-1.22-0.793-2.434-1.597-3.631-2.422
	c-0.507-0.35-0.94-0.813-1.469-1.126c-0.554-0.329-1.168-0.471-1.709,0.422c0.945,2.64,3.723,3.389,5.951,5.222
	c-1.069,0.353-1.922,0.652-2.785,0.909c-0.43,0.127-0.878,0.2-1.325,0.254c-2.854,0.348-5.411,1.406-7.765,3.056
	c-0.959,0.672-2.059,1.144-3.225,1.779c-0.573-0.384-1.152-0.771-2.021-1.354c0.805-0.444,1.333-0.802,1.914-1.043
	c1.864-0.778,3.755-1.499,5.621-2.274c0.438-0.182,0.823-0.492,1.279-0.773c-0.618-1.069-1.315-0.684-1.968-0.411
	c-2.695,1.129-5.382,2.274-8.075,3.405c-0.196,0.082-0.423,0.093-0.733,0.156c-0.147-0.306-0.279-0.581-0.484-1.001
	c3.048-2.321,6.677-3.277,10.047-4.891c0-0.224,0-0.491,0-0.777c-0.177-0.059-0.359-0.192-0.484-0.149
	c-1.425,0.498-2.871,0.952-4.251,1.557c-2.26,0.989-4.616,1.812-6.556,3.424c-0.113,0.094-0.312,0.085-0.466,0.123
	c-0.507-1.194-0.502-1.799,0.48-2.452c1.482-0.986,3.067-1.838,4.668-2.628c1.954-0.964,3.968-1.805,5.947-2.694
	c0-0.772,0-1.311,0-1.975c-0.455-0.133-0.867-0.357-1.282-0.358c-1.685-0.001-3.372,0.024-5.054,0.114
	c-1.917,0.103-3.566,0.923-5.072,2.067C37.546,123.401,36.859,123.709,35.887,122.47z"/>
<path fill-rule="evenodd" clip-rule="evenodd" fill="#f04c47" class="fill" d="M135.924,126.91c-0.844-2.356-0.09-4.814-1.267-6.904
	c-1.086,1.27-0.47,2.778-0.823,4.216c-1.706,1.273-1.916,3.812-4.157,5.25c0.034-3.495,1.058-6.502,2.206-9.594
	c-1.107-0.075-1.463,0.529-1.704,1.119c-0.429,1.036-0.922,2.091-1.077,3.182c-0.333,2.362-1.502,4.182-3.434,5.87
	c-0.521,0-1.266,0-2.055,0c-0.291-1.502,0.831-2.396,1.136-3.553c0.3-1.131,0.851-2.199,1.327-3.278
	c0.496-1.123,1.035-2.226,1.544-3.311c-0.505-0.531-0.922-0.345-1.191,0.053c-0.469,0.694-0.914,1.418-1.267,2.179
	c-0.938,2.034-1.822,4.094-2.76,6.211c-0.758-0.112-1.459-0.216-2.367-0.351c0.637-2.086,1.521-3.935,2.523-5.718
	c0.66-1.172,1.499-2.242,2.194-3.396c0.233-0.39,0.281-0.894,0.47-1.532c-2.894,0.022-4.832,2.083-7.533,2.755
	c0.666-1.562,1.625-2.458,2.727-3.216c3.074-2.115,6.46-3.296,10.209-3.416c0.839-0.026,1.672-0.207,2.511-0.296
	c2.447-0.258,4.534,0.426,6.14,2.366c0.174,0.211,0.413,0.368,0.611,0.54C140.049,118.165,137.703,124.72,135.924,126.91z"/>
<path fill-rule="evenodd" clip-rule="evenodd" fill="#f04c47" class="fill" d="M78.921,148.674c-0.757-0.234-1.325-0.411-2.138-0.661
	c4.828-3.591,6.423-8.553,7.065-14.208c0.498,0.083,1.024,0.042,1.406,0.254c2.849,1.576,5.689,3.167,8.489,4.828
	c1.591,0.944,3.101,2.029,4.722,3.099c0.12,3.167-0.322,6.154-2.081,8.894c-0.291,0.052-0.561,0.136-0.832,0.14
	c-0.262,0.003-0.523-0.077-0.874-0.135c0.477-1.649,1.794-3.029,1.137-4.861c-1.015-0.463-1.126,0.365-1.357,0.949
	c-0.492,1.238-0.952,2.488-1.448,3.798c-0.727-0.037-1.253-0.063-1.966-0.1c0.873-1.666,1.625-3.163,1.532-4.954
	c-0.71-0.145-1.042,0.275-1.083,0.766c-0.136,1.658-1.347,2.655-2.251,3.988c-0.521-0.078-1.043-0.157-1.757-0.265
	c0.601-1.168,1.121-2.138,1.604-3.125c0.477-0.976,0.568-2.005,0.436-3.096c-1.029,0.005-1.143,0.713-1.352,1.346
	c-0.516,1.548-1.021,3.104-2.352,4.416c-0.418-0.046-0.946-0.105-1.762-0.194c1.332-2.18,2.706-4.139,2.303-6.89
	c-1.502,2.225-1.953,4.913-4.088,6.632c-0.574-0.104-1.148-0.207-2.08-0.375c1.859-1.677,2.851-3.469,3.094-5.897
	c-1.316,0.768-1.402,2.092-2.117,2.962C80.465,146.851,79.737,147.701,78.921,148.674z"/>
<path fill-rule="evenodd" clip-rule="evenodd" fill="#f04c47" class="fill" d="M114.38,59.807c-0.613-1.519-0.356-2.964,0.677-4.14
	c0.888-0.475,1.615-0.886,2.361-1.257c1.071-0.531,2.109-0.62,3.167,0.116c1.069,0.743,1.116,1.794,0.892,2.851
	c-0.312,1.477-1.031,2.774-2.578,3.258C117.326,61.126,115.705,61.468,114.38,59.807z M115.811,58.979
	c0.837,0.849,0.837,0.849,1.646-0.014C116.619,58.104,116.619,58.104,115.811,58.979z"/>
<path fill-rule="evenodd" clip-rule="evenodd" fill="#f04c47" class="fill" d="M105.08,53.34c0.543,2.128-1.195,2.967-2.454,4.215
	c-0.46,0-0.961-0.006-1.463,0.002c-0.819,0.014-1.419-0.309-1.696-1.107c-0.292-0.84-0.077-1.784,0.618-2.292
	C101.544,53.089,103.106,52.452,105.08,53.34z M102.441,56.515c-0.308-0.569-0.513-0.948-0.78-1.443
	c-0.462,0.363-0.747,0.587-1.001,0.788C100.853,56.844,101.404,56.81,102.441,56.515z"/>
<path fill-rule="evenodd" clip-rule="evenodd" fill="#f04c47" class="fill" d="M122.866,50.565c-0.884-0.665-1.769-1.328-2.805-2.106
	c0.648-0.888,1.281-1.757,2.154-2.952c0.375,1.873,0.671,3.355,0.969,4.838C123.079,50.418,122.972,50.492,122.866,50.565z"/>
<path fill-rule="evenodd" clip-rule="evenodd" fill="#f04c47" class="fill" d="M100.528,48.702c0.371-1.037,0.742-2.073,1.249-3.491
	c0.768,1.078,1.286,1.806,1.935,2.715c-1.099,0.397-1.992,0.72-2.888,1.042C100.726,48.88,100.628,48.791,100.528,48.702z"/>
</svg>
