<svg version="1.1" id="svg" xmlns="http://www.w3.org/2000/svg" xmlns:xlink="http://www.w3.org/1999/xlink" x="0px" y="0px"
	 width="200px" height="200px" viewBox="0 0 200 200" enable-background="new 0 0 200 200" xml:space="preserve">
<path class="stroke" fill="#51050f"  d="M150.197,121.998c-0.411-1.28-1.06-2.482-1.666-3.866c0.078-0.299,0.163-0.762,0.318-1.202
	c0.361-1.028,0.247-2.038-0.36-2.879c-0.785-1.087-1.579-2.267-2.636-3.04c-2.039-1.49-4.264-2.723-6.648-4.211
	c-0.25-0.867-1.139-1.474-2.135-2.058c-2.797-1.642-5.548-3.364-8.311-5.064c-1.491-0.917-2.704-2.144-3.544-3.658
	c-1.087-1.961-2.041-3.996-3.044-6.004c-1.767-3.541-3.587-7.046-6.346-9.957c-0.266-0.282-0.458-0.635-0.672-0.937
	c0.994-0.713,1.852-1.446,2.814-1.995c2.084-1.188,4.016-2.663,6.537-3.021c1.18-0.167,2.335-0.82,3.4-1.429
	c1.291-0.738,2.109-1.903,2.146-3.461c0.045-1.883,0.225-3.789,0.015-5.647c-0.41-3.637-1.015-7.253-1.604-10.867
	c-0.46-2.813-0.269-5.509,0.907-8.144c0.845-1.893,1.551-3.866,1.358-5.988c-0.127-1.4-0.442-2.782-0.677-4.18
	c2.323-4.156,3.112-6.286,3.423-11.218c0.3-4.812-0.896-5.792-4.11-7.33c-1.657-0.792-3.421-0.789-5.125-1.189
	c-2.59-0.608-5.194-0.957-7.849-1.229c-6.102-0.626-12.149-0.28-18.206,0.323c-1.762,0.175-3.532,0.385-5.261,0.753
	c-4.477,0.954-8.699,2.583-12.663,4.899c-1.841,1.076-3.4,2.334-4.144,4.413c-0.553,1.546-1.116,3.089-1.719,4.617
	c-1.213,3.087-2.17,6.252-2.67,9.527c-0.193,1.258-0.262,2.636,0.044,3.85c0.587,2.333,1.493,4.584,2.247,6.876
	c1.267,3.854,3.193,7.362,5.581,10.624c0.974,1.331,2.019,2.609,2.988,3.857c0.092,3.962-0.431,10.441-1.091,12.42
	c-2.682,2.269-5.357,4.588-8.097,6.83c-1.458,1.194-2.997,2.294-4.551,3.365c-1.809,1.247-3.455,2.649-4.828,4.378
	c-2.917,3.675-4.354,8.088-6.112,12.327c-0.972,2.337-1.617,4.809-2.405,7.221c-0.747,2.286-1.488,4.574-2.232,6.862
	c-0.472,1.095-1.201,2.097-1.893,3.125c-1.675,2.496-2.512,5.329-3.105,8.22c-0.335,1.635,0.284,3.021,1.798,3.911
	c0.509,0.299,1.021,0.607,1.475,0.98c2.449,2.003,5.377,2.564,8.406,2.884c2.038,0.216,3.377-0.646,4.304-2.411
	c0.315-0.6,0.774-1.233,1.334-1.576c3.585-2.197,4.665-5.522,4.524-9.487c-0.03-0.854,0.045-1.787,0.36-2.566
	c1.33-3.283,2.722-6.542,4.191-9.764c0.708-1.552,1.589-3.033,2.489-4.483c0.331-0.531,0.948-0.885,1.435-1.32
	c0.129,0.076,0.259,0.152,0.387,0.229c-0.32,2.439-0.594,4.886-0.975,7.315c-0.653,4.172-2.409,8.117-2.492,12.418
	c-0.048,2.474-0.473,4.945-0.443,7.414c0.034,3.034,0.652,5.976,2.355,8.601c0.566,0.874,0.962,1.857,1.374,2.666
	c-0.96,1.281-1.755,2.531-2.734,3.615c-1.934,2.141-3.921,4.241-5.98,6.26c-1.298,1.271-2.688,2.481-4.181,3.512
	c-2.183,1.508-4.496,2.826-6.749,4.236c-0.241,0.151-0.437,0.373-0.705,0.608c0.149,0.527,0.29,1.022,0.397,1.402
	c1.234,0.942,2.354,1.798,3.932,3.003c-1.441,1.299-2.686,2.377-3.88,3.504c-1.746,1.646-1.882,2.328-1.025,4.549
	c0.085,0.22,0.189,0.433,0.289,0.646c1.583,3.412,3.953,6.292,6.256,9.213c0.762,0.967,1.847,1.444,3.027,1.714
	c3.085,0.708,6.225,0.562,9.354,0.62c0.779,0.014,1.333-0.309,1.778-0.951c1.246-1.795,0.986-3.641,0.374-5.578
	c-0.719-0.166-1.361-0.269-1.973-0.466c-1.008-0.323-2.044-0.612-2.98-1.088c-1.133-0.578-1.364-1.476-1.016-2.503
	c1.32-0.174,2.58-0.146,3.703-0.521c4.662-1.558,8.602-4.361,12.305-7.506c0.982-0.834,1.843-1.825,2.688-2.806
	c1.259-1.464,2.454-2.982,3.73-4.541c4.159,3.879,7.122,8.347,8.974,13.568c0.404,1.141,0.985,2.218,1.46,3.267
	c0.786,0.036,1.298,0.059,1.47,0.067c1.249,1.682,2.27,3.195,3.435,4.589c1.077,1.286,2.483,1.833,4.243,1.75
	c3.001-0.144,5.792-1.077,8.613-1.935c3.307-1.006,6.275-2.712,9.22-4.461c0.499-0.295,0.927-0.709,1.262-0.971
	c0.568-1.507,0.45-2.836,0.099-4.18c-0.648-2.466-1.646-3.043-4.154-2.393c-1.245,0.322-2.51,0.439-3.723,0.327
	c-3.077-11.062-8.447-20.778-15.35-29.346c1.077-3.545,2.311-6.766,3.003-10.099c0.864-4.155,1.271-8.404,1.894-12.609
	c0.157-1.062,0.386-2.115,0.594-3.242c3.593,2.329,6.948,4.504,10.354,6.712c0.433,0,0.895,0,1.354,0
	c-0.022,0.087-0.044,0.174-0.065,0.261c0.604,0.329,1.21,0.658,1.888,1.027c0.122,0.25,0.259,0.576,0.432,0.88
	c1.056,1.841,1.996,3.763,3.214,5.489c1.111,1.576,3.021,2.596,4.767,2.18c2.825-0.671,5.736-1.552,7.735-3.962
	c0.442-0.04,0.856-0.058,1.263-0.118C149.86,126.075,150.97,124.397,150.197,121.998z"/>
<path fill-rule="evenodd" clip-rule="evenodd" fill="#f04c47" class="fill" d="M66.893,104.376c-0.395-1.553-1.666-1.565-2.625-2.02
	c-0.947-0.45-1.865-0.966-2.961-1.541c0.386-0.76,0.693-1.365,1.023-2.016c2.043,0.835,4.02,1.646,6.063,2.481
	c0.055-1.562-0.057-1.723-1.31-2.261c-0.976-0.417-1.948-0.841-2.907-1.292c-0.256-0.119-0.458-0.348-0.86-0.664
	c0.514-0.795,0.999-1.547,1.522-2.358c1.757,1.075,3.346,2.079,5.507,1.905c-0.751-2.109-3.306-1.679-4.257-3.455
	c0.577-0.653,1.188-1.344,1.712-1.935c1.188-0.124,2.269,1.173,3.307-0.25c-0.547-0.401-1.044-0.766-1.669-1.225
	c4.473-4.672,9.459-8.586,14.694-12.18c4.928,2.435,10.044,3.534,15.562,2.838c4.748,3.319,10.285,3.682,16.01,3.79
	c1.519,2.738,3.033,5.466,4.542,8.197c0.515,0.932,1.04,1.858,1.515,2.809c2.246,4.494,6.221,7.172,10.263,9.774
	c1.19,0.765,2.417,1.469,3.601,2.186c-0.964,3.796-4.39,8.429-6.784,9.074c0.225-1.184,1.245-1.707,1.791-2.542
	c0.579-0.887,1.159-1.774,1.78-2.722c-0.107-0.504-0.211-0.996-0.318-1.51c-0.282,0.031-0.536-0.013-0.604,0.079
	c-0.486,0.659-0.949,1.337-1.392,2.027c-0.797,1.244-1.695,2.391-2.979,3.385c-0.44-0.337-0.84-0.642-1.265-0.966
	c1.464-2.222,4.284-3.493,4.091-7.038c-0.582,0.474-0.946,0.688-1.205,0.994c-0.987,1.173-1.917,2.396-2.921,3.555
	c-0.416,0.479-0.965,0.844-1.547,1.341c-0.48-0.285-0.904-0.538-1.438-0.854c1.459-1.98,3.927-3.161,3.921-6.299
	c-1.775,1.728-3.331,3.242-5.004,4.87c-0.308-0.476-0.507-0.783-0.72-1.113c1.236-1.673,3.216-2.809,3.203-5.412
	c-1.575,0.682-2.057,2.405-3.629,3.011c-0.113-0.651-0.217-1.256-0.299-1.733c0.429-1.176,1.953-1.725,1.314-3.339
	c-0.539,0.238-1.028,0.453-1.619,0.714c-0.112-0.359-0.211-0.674-0.302-0.964c0.433-0.586,0.822-1.116,1.367-1.857
	c-0.742-0.087-1.172-0.138-1.739-0.205c-0.978-3.291-2.266-6.51-4.748-9.379c-0.562-0.033-1.275-0.075-2.201-0.129
	c0.395,2.414,0.598,4.588,1.127,6.68c1.043,4.132,1.094,8.306,0.833,12.502c-0.293,4.738-1.216,9.362-2.756,13.856
	c-0.151,0.441-0.374,0.856-0.532,1.209c-8.76,3.749-28.609,2.099-33.078-1.966c2.273,0.299,4.188,0.552,6.171,0.813
	c0.059-1.051-0.553-1.274-1.178-1.438c-0.856-0.222-1.731-0.37-2.583-0.604c-0.404-0.11-0.774-0.346-1.16-0.525
	c0.019-0.137,0.037-0.273,0.055-0.41c0.344-0.065,0.704-0.228,1.03-0.177c0.754,0.119,1.486,0.376,2.241,0.51
	c1.148,0.204,1.492,0.072,2.744-0.997c-1.85-0.411-3.525-0.785-5.344-1.19c0.111-0.579,0.193-1,0.284-1.465
	c2.181,0.033,4.278,0.672,6.509-0.255c-1.81-1.658-4.022-0.814-5.942-1.503c0.059-0.378,0.106-0.691,0.179-1.164
	c2.18,0.327,4.27,0.354,6.438-0.424c-1.922-1.64-4.391-0.306-6.262-1.419c-0.035-1.013,0.601-0.874,1.202-0.879
	c1.292-0.01,2.596,0.026,3.87-0.142c0.761-0.1,1.475-0.547,2.121-1.159c-2.13-0.108-4.261-0.218-6.562-0.335
	c0.353-0.977,0.866-1.298,1.66-1.287c0.826,0.011,1.655-0.002,2.481-0.039c0.729-0.033,1.396-0.219,1.855-1.221
	c-0.88-0.188-1.689-0.362-2.57-0.551c0.137-1.498,1.729-1.269,2.591-2.046c-0.131-0.38-0.254-0.74-0.347-1.012
	c1.381-3.487,2.741-6.923,4.078-10.301c-0.842-1.917-1.055-2.046-2.762-1.709c-2.246,4.208-5.513,7.404-9.783,9.598
	c-3.08,1.583-5.518,3.86-6.983,7.035c-1.483,3.216-2.869,6.477-4.3,9.719c-0.211,0.479-0.43,0.958-0.741,1.654
	c-1.294-0.504-2.548-0.95-3.766-1.481c-1.673-0.729-3.326-1.508-4.972-2.301c-0.474-0.228-1.221-0.294-0.97-1.397
	c2.345,0.52,4.63,1.407,7.489,1.344c-2.032-2.383-5.068-1.661-7.069-3.351c0.168-0.472,0.339-0.946,0.54-1.51
	c2.207,0.8,4.271,1.804,6.872,1.583c-0.815-1.512-2.101-1.575-3.209-1.978c-1.091-0.397-2.135-0.917-3.325-1.438
	c0.269-0.749,0.459-1.277,0.716-1.991c2.175,0.951,4.337,1.507,6.758,1.942c-0.313-1.544-1.355-1.813-2.322-2.158
	c-1.259-0.448-2.52-0.887-3.913-1.377c0.288-1.08,0.508-1.905,0.777-2.92C62.697,103.265,64.517,104.598,66.893,104.376z"/>
<path fill-rule="evenodd" clip-rule="evenodd" fill="#f04c47" class="fill" d="M91.437,51.589c-0.603-1.054-0.971-1.696-1.362-2.381
	c0.264-0.903,0.776-1.519,1.928-1.537c0.523,1.03,1.049,2.062,1.601,3.145c2.394,0.153,4.267-0.947,6.285-2.064
	c-0.563-2.896-2.185-5.654-1.304-8.877c1.402-1.093,3.15-1.443,5.073-1.546c0.134,0.344,0.253,0.648,0.397,1.021
	c-1.784,0.717-3.946,0.331-5.154,2.208c-0.062,0.897,0.279,1.682,1.117,1.998c3.176,1.195,6.382,1.582,9.67,0.072
	c0.146-0.457,0.354-0.888,0.419-1.34c0.19-1.329-0.394-2.142-1.708-2.445c-0.402-0.093-0.812-0.155-1.223-0.211
	c-0.403-0.055-0.81-0.083-1.484-0.151c0.442-0.668,0.775-1.172,1.087-1.643c1.614-0.377,3.285,0.312,4.779-0.621
	c0-0.476,0-0.925,0-1.525c-0.907-0.183-1.748-0.353-2.742-0.553c0.78-1.38,1.521-2.693,2.39-4.229
	c1.023,1.884,1.488,3.62,1.078,5.576c1.022,0.418,1.891,0.281,2.677-0.329c1.585-1.227,3.149-2.479,4.725-3.719
	c0.6-0.472,1.206-0.936,1.922-1.491c0.823,0.967,1.103,2.064,1.413,3.347c-1.214,0.22-2.367,0.349-3.471,0.654
	c-0.842,0.233-1.947,0.117-2.412,1.404c2.002,1.515,4.258-0.028,6.367,0.54c0.059,0.36,0.11,0.69,0.177,1.096
	c-0.335,0.063-0.611,0.159-0.89,0.16c-1.617,0.006-3.182,0.237-4.619,1.033c-1.109,0.614-1.198,0.831-1.002,2.431
	c2.896,2.552,6.424,1.777,10.01,1.553c-0.146,0.49-0.228,0.929-0.404,1.325c-0.991,2.21-1.374,4.517-1.043,6.911
	c0.533,3.859,1.129,7.711,1.681,11.567c0.328,2.289,0.516,4.582,0.035,6.902c-1.276,1.921-3.198,1.952-5.333,1.684
	c-0.502,0.386-1.076,0.789-1.608,1.243c-3.139,2.671-6.761,4.074-10.884,4.059c-2.656-0.01-4.769-1.158-6.286-3.36
	c-2.351-3.41-4.558-6.904-6.085-10.774c-0.646-1.638-1.188-3.316-1.812-5.075c-1.038-0.046-1.444,0.541-1.453,1.487
	c-0.015,1.652-0.145,3.322,0.05,4.953c0.35,2.927,0.749,5.866,1.424,8.73c0.493,2.094,1.459,4.076,2.218,6.116
	c-2.569,1.047-10.582-0.81-13.419-3.311c0.077-0.638,0.188-1.382,0.256-2.13c0.285-3.237,0.58-6.473,0.82-9.713
	c0.072-0.975,0.29-1.839,0.903-2.624c0.91-1.165,1.782-2.358,2.627-3.569c0.5-0.716,0.918-1.49,1.419-2.315
	c-0.583-0.641-1.12-1.179-1.599-1.764c-1.725-2.111-2.666-4.604-3.242-7.211c-0.598-2.708,0.938-4.473,3.631-4.296
	c1.225,1.082,2.035,2.463,2.445,4.214c-0.6,0.322-1.191,0.573-1.709,0.931c-1.713,1.184-1.707,3.122,0.03,4.208
	C90.15,51.546,90.623,51.48,91.437,51.589z M118.268,56.252c-1.418-0.779-2.439,0.478-3.537,0.186
	c-1.186-0.314-2.482-0.5-3.484-1.134c-0.937-0.591-1.549-1.695-2.449-2.742c-0.324,0.204-0.71,0.448-1.021,0.645
	c1.175,2.924,3.355,4.104,6.122,4.363C115.406,57.711,116.945,57.808,118.268,56.252z M115.648,45.629
	c-0.597,1.105-1.132,2.094-1.758,3.251c0.624,0.047,0.998,0.075,1.331,0.1c1.025-1.249,1.653-2.522,1.651-4.129
	c-0.856-0.622-1.701-1.243-2.553-1.854c-0.567-0.406-1.041-0.354-1.513,0.386C113.722,44.106,114.585,44.789,115.648,45.629z
	 M118.469,64.515c-2.017-0.238-2.345,0.104-2.053,1.948c0.455,0.024,0.943,0.05,1.555,0.082
	C118.147,65.822,118.292,65.233,118.469,64.515z"/>
<path fill-rule="evenodd" clip-rule="evenodd" fill="#f04c47" class="fill" d="M106.846,172.356c-1.784-4.716-4.324-8.706-6.938-12.617
	c-3.099-4.634-7.035-8.539-11.4-12.024c-1.93-1.542-3.746-3.247-5.476-5.014c-3.235-3.309-4.288-7.51-4.581-11.972
	c-0.011-0.162,0.099-0.331,0.223-0.718c10.451,0.46,20.879-0.515,31.299-1.729c0.031,1.781-2.184,4.961-4.504,6.614
	c-1.363-0.683-2.72-1.363-4.102-2.055c-0.411,0.314-0.721,0.551-1.206,0.924c0.382,0.571,0.646,1.16,1.078,1.568
	c0.901,0.849,1.886,1.61,2.849,2.392c4.787,3.892,8.558,8.605,11.454,14.046c1.442,2.71,3.117,5.305,4.425,8.074
	c1.305,2.76,2.283,5.675,3.441,8.613c-1.969,1.409-3.973,2.248-6.104,2.663c-2.02,0.393-4.096,0.501-6.146,0.737
	C109.766,172.016,108.373,172.179,106.846,172.356z"/>
<path fill-rule="evenodd" clip-rule="evenodd" fill="#f04c47" class="fill" d="M95.261,25.341c0.671,0.86,1.455,0.72,2.14,0.388
	c2.117-1.027,4.197-2.129,6.291-3.206c0.461-0.237,0.916-0.488,1.451-0.774c0.619,1.767-0.713,2.97-1.021,4.303
	c0.556,0.829,1.188,0.717,1.778,0.351c1.601-0.991,3.19-2.003,4.756-3.053c1.163-0.78,2.279-1.629,3.524-2.524
	c0.679,1.632-0.074,3.062-0.02,4.733c0.505,0.027,1.078,0.234,1.431,0.04c0.963-0.532,1.835-1.231,2.74-1.868
	c1.425-1.001,2.847-2.004,4.27-3.007c0.12,0.072,0.241,0.143,0.362,0.215c-0.238,1.351-0.479,2.701-0.756,4.275
	c2.688,0.146,4.166-1.966,6.363-3.135c0.074,3.882-0.808,7.262-2.705,10.658c-1.24-2.092-2.161-4.213-4.137-5.732
	c-2.732,0.904-4.148,3.746-6.816,4.871c-1.068-2.159-1.302-4.708-3.109-6.417c-0.979,0.041-1.168,0.772-1.561,1.351
	c-1.518,2.231-3.088,4.426-4.75,6.791c-1.437-2.238-2.698-4.206-3.922-6.111c-1.316-0.058-2.064,0.586-2.684,1.399
	c-0.998,1.313-1.999,2.628-2.916,3.998c-0.713,1.066-1.301,2.217-2.069,3.546c-1.081-1.902,0.174-4.111-0.914-6.021
	c-2.751,1.096-3.438,3.964-5.34,5.981c-0.514-1.052-0.198-2.053-0.303-2.997c-0.105-0.938,0.875-1.924-0.101-2.824
	c-1.623,0.613-1.623,0.613-5.752,7.1c-1.072-1.948,0.417-4.105-0.468-6.47c-1.618,1.562-2.995,2.89-4.371,4.217
	c0.983-6.8,4.785-11.559,10.677-15.189c-0.205,2.21-2.283,2.822-2.963,4.454c0.529,0.763,1.363,0.692,2.053,0.513
	c1.82-0.473,3.658-0.956,5.387-1.678c1.621-0.677,3.102-1.683,4.662-2.512c0.445-0.236,0.949-0.36,1.644-0.615
	C97.609,22.471,96.554,23.971,95.261,25.341z"/>
<path fill-rule="evenodd" clip-rule="evenodd" fill="#f04c47" class="fill" d="M77.174,149.773c1.142,0.722,7.325,8.274,8.634,10.63
	c-1.319,3.124-6.776,9.258-10.61,11.909c-4.211-3.51-8.434-7.028-12.613-10.512C67.449,157.79,72.291,153.798,77.174,149.773z"/>
<path fill-rule="evenodd" clip-rule="evenodd" fill="#f04c47" class="fill" d="M138.725,118.701c1.531,2.479,2.979,4.825,4.471,7.245
	c-0.451,0.388-0.73,0.627-1.159,0.996c-0.513-0.878-0.956-1.625-1.388-2.379c-0.789-1.381-1.536-2.788-2.365-4.144
	c-0.657-1.075-0.921-1.108-2.215-0.534c1.617,2.285,3.198,4.579,4.268,7.563c-0.624-0.264-1.082-0.312-1.271-0.563
	c-0.702-0.94-1.357-1.923-1.954-2.936c-0.682-1.158-1.281-2.363-1.946-3.606c-0.48,0.168-0.787,0.275-1.26,0.44
	c1.187,2.642,2.418,5.126,3.968,7.499c-1.742-0.213-2.484-1.587-3.241-2.82c-0.758-1.235-1.627-2.483-1.484-3.989
	c-0.92-0.749-1.779-1.448-2.557-2.08c2.933-3.023,5.789-5.969,8.842-9.118c1.723,1.032,3.689,2.093,5.521,3.351
	c1.181,0.813,1.312,1.665,0.855,2.946c-1.551-0.539-2.519-1.857-3.887-2.843c-0.275,0.111-0.631,0.254-1.005,0.405
	c0.062,0.256,0.048,0.473,0.15,0.574c0.543,0.535,1.074,1.097,1.686,1.548c2.114,1.563,3.418,3.721,4.517,6.032
	c0.189,0.399,0.238,0.865,0.094,1.486c-0.864-0.744-1.69-1.54-2.603-2.22c-1.363-1.016-2.777-1.965-4.189-2.914
	C139.952,118.223,139.291,117.97,138.725,118.701z"/>
<path fill-rule="evenodd" clip-rule="evenodd" fill="#f04c47" class="fill" d="M54.307,124.154c-0.912-0.441-1.353,0.018-1.534,0.688
	c-0.32,1.19-0.536,2.409-0.782,3.619c-0.066,0.323-0.089,0.655-0.146,1.086c-1.324-1.964,1.016-8.715,3.857-11.422
	c3.805,1.625,7.626,3.257,11.604,4.957c-0.499,2.206-1.322,4.375-2.577,6.499c-0.443,0-0.874,0-1.604,0
	c0.513-1.437,0.967-2.711,1.448-4.061c-1.026-0.327-1.564,0.127-1.847,0.798c-0.454,1.078-0.823,2.199-1.145,3.325
	c-0.367,1.285-0.643,2.598-0.953,3.884c-1.46,0.176-1.418-0.757-1.363-1.448c0.155-1.938,0.428-3.866,0.652-5.798
	c0.019-0.171,0.03-0.343,0.049-0.551c-0.729-0.56-1.258-0.22-1.528,0.441c-0.239,0.586-0.304,1.256-0.374,1.896
	c-0.172,1.562-0.301,3.128-0.454,4.753c-1.373-0.257-1.442-1.16-1.32-2.055c0.215-1.577,0.526-3.142,0.807-4.71
	c0.081-0.454,0.192-0.902,0.306-1.424c-0.955-0.414-1.425,0.031-1.601,0.799c-0.367,1.607-0.664,3.231-0.972,4.852
	c-0.084,0.449-0.108,0.908-0.167,1.413c-1.044-0.095-1.065-0.851-1.032-1.437c0.097-1.698,0.3-3.391,0.475-5.083
	C54.139,124.845,54.231,124.522,54.307,124.154z"/>
<path fill-rule="evenodd" clip-rule="evenodd" fill="#f04c47" class="fill" d="M101.106,32.819c0.529,1.021,1.06,2.04,1.652,3.183
	c-1.198,0.472-2.304,0.908-3.662,1.444c-0.115-1.941,1.069-3.189,1.564-4.68C100.81,32.783,100.958,32.801,101.106,32.819z"/>
<path fill-rule="evenodd" clip-rule="evenodd" fill="#f04c47" class="fill" d="M118.551,40.771c1.185-1.201,2.564-1.35,4.2-1.31
	c-0.194,0.902-0.358,1.664-0.536,2.488C120.83,42.105,119.578,42,118.551,40.771z"/>
<path fill-rule="evenodd" clip-rule="evenodd" fill="#f04c47" class="fill" d="M104.681,40.771c-0.231,0.966-0.394,1.637-0.552,2.288
	c-1.895,0.039-2.44-0.127-3.444-1.08C101.707,40.846,103.063,40.968,104.681,40.771z"/>
<path fill-rule="evenodd" clip-rule="evenodd" fill="#f04c47" class="fill" d="M108.558,40.982c-0.04,0.675-0.072,1.251-0.115,1.969
	c-0.931,0.105-1.696,0.192-2.481,0.282C105.947,41.302,106.352,40.931,108.558,40.982z"/>
<path fill-rule="evenodd" clip-rule="evenodd" fill="#f04c47" class="fill" d="M123.75,42.376c0.277-1.023,0.431-1.591,0.566-2.092
	c1.851-0.174,1.942-0.107,2.029,1.509C125.669,41.945,124.963,42.103,123.75,42.376z"/>
<path fill-rule="evenodd" clip-rule="evenodd" fill="#f04c47" class="fill" d="M128.033,37.373c0.034,0.764,0.068,1.527,0.115,2.548
	c-0.871-0.436-1.456-0.729-2.279-1.141c0.663-0.61,1.187-1.092,1.711-1.573C127.73,37.262,127.883,37.318,128.033,37.373z"/>
</svg>
