<svg version="1.1" xmlns="http://www.w3.org/2000/svg" xmlns:xlink="http://www.w3.org/1999/xlink" x="0px" y="0px" width="200px"
	 height="200px" viewBox="0 0 200 200" enable-background="new 0 0 200 200" xml:space="preserve">
<g id="svg">
	<path class="stroke" fill="#693c11"  fill-rule="evenodd" clip-rule="evenodd" d="M139.908,68.918c-2.061,3.387-3.924,6.462-5.803,9.526
		c-0.624,1.018-1.188,2.101-1.97,2.984c-0.692,0.782-1.579,1.471-2.51,1.945c-1.108,0.566-2.356,0.86-3.559,1.278
		c-3.53-2.065-7.058-4.13-10.837-6.341c-0.616,0.714-1.163,1.398-1.761,2.034c-4.371,4.651-8.408,9.585-12.427,14.539
		c-2.027,2.498-4.281,4.811-6.382,7.25c-2.471,2.871-4.904,5.774-7.322,8.689c-2.702,3.258-5.338,6.57-8.056,9.813
		c-4.536,5.412-9.084,10.812-13.688,16.165c-1.972,2.292-4.112,4.439-6.149,6.676c-1.017,1.116-1.963,2.297-2.964,3.429
		c-2.089,2.362-4.845,2.325-7.521,1.718c-3.638-0.825-5.292-3.355-5.17-7.513c0.066-2.252,1.305-3.92,2.622-5.527
		c2.643-3.226,5.377-6.377,8.045-9.583c2.827-3.396,5.616-6.823,8.43-10.231c2.772-3.358,5.509-6.746,8.345-10.049
		c2.465-2.872,5.064-5.629,7.574-8.464c1.632-1.844,3.152-3.79,4.823-5.597c2.657-2.874,5.456-5.617,8.088-8.512
		c3.017-3.318,5.92-6.739,8.865-10.123c0.698-0.802,1.362-1.635,2.019-2.425c-2.047-1.504-4.023-2.958-6.001-4.41
		c-0.204-0.15-0.427-0.275-0.621-0.436c-1.866-1.542-3.471-3.084-3.593-5.873c-0.107-2.422-0.971-4.809-1.471-7.217
		c-0.152-0.73-0.209-1.481-0.324-2.321c5.075-2.307,10.222-4.08,15.615-5.393c3.796,1.665,7.349,3.827,10.624,6.42
		c5.793,4.587,11.604,9.149,17.778,13.223c1.466,0.968,2.92,1.962,4.314,3.029C139.401,67.992,139.687,68.618,139.908,68.918z"/>
	<path class="stroke" fill="#693c11"  fill-rule="evenodd" clip-rule="evenodd" d="M98.018,120.844c-0.667-0.549-1.237-1.018-1.735-1.427
		c0.066-2.543,1.477-3.725,4.896-4.132c1.539-5.387,3.097-10.838,4.662-16.316c-0.179-0.519-0.364-1.05-0.555-1.603
		c0.926-2.43,1.846-4.845,2.787-7.314c2.029-1.564,5.208-1.28,8.269,0.882c0,0.813,0.14,1.766-0.032,2.658
		c-0.286,1.484-0.619,2.998-1.227,4.367c-0.396,0.892-1.314,1.551-1.998,2.313c-0.137-0.078-0.274-0.157-0.41-0.235
		c-1.548,5.388-3.097,10.775-4.68,16.285c0.752,0.569,1.452,1.1,2.037,1.543c-0.395,2.155-0.976,3.777-2.77,4.56
		c-0.704,4.351-1.298,8.604-2.102,12.819c-0.733,3.842-1.691,7.642-2.558,11.459c-0.167,0.738-0.367,1.47-0.559,2.202
		c-0.499,1.911-1.857,3.152-3.81,3.028c-3.422-0.217-6.704-1.175-9.883-2.443c-0.503-0.201-0.899-0.675-1.332-1.013
		c-0.23-2.406,0.205-4.648,1.345-6.653c3.072-5.405,5.333-11.173,7.763-16.868C96.717,123.573,97.382,122.222,98.018,120.844z"/>
	<path class="stroke" fill="#693c11"  d="M169.131,138.559c-1.692-1.069-2.083-2.942-2.622-4.768c-0.517-1.751-1.068-3.505-1.791-5.178
		c-0.593-1.374-1.451-2.633-2.205-3.936c-2.575-4.449-5.63-8.407-10.634-10.367c-0.162-0.063-0.28-0.235-0.405-0.345
		c0.135-1.059,0.268-2.088,0.376-2.936c-1.32-1.45-2.797-1.308-4.214-1.213c-0.037-0.15-0.079-0.219-0.061-0.265
		c0.087-0.229,0.185-0.456,0.287-0.68c0.862-1.899,1.218-3.787,0.309-5.822c-0.615-1.376-0.951-2.875-1.476-4.295
		c-0.475-1.287-1.038-2.541-1.519-3.704c-2.491-0.188-4.175,0.023-5.627,0.759c-0.346,1.721-0.729,3.625-1.161,5.772
		c-1.94-1.856-2.098-4.654-4.289-6.223c-1.824,0.093-3.552,0.742-5.285,1.641c0,0.588-0.013,1.086,0.002,1.583
		c0.095,3.217,0.178,6.433,0.307,9.648c0.041,0.995,0.21,1.986,0.305,2.839c0.855,0.602,1.535,1.082,2.394,1.687
		c-4.032,0.417-4.821,2.056-3.211,6.203c-0.543,1.079-1.215,2.166-1.655,3.341c-0.882,2.357-1.767,4.727-2.415,7.154
		c-1.086,4.065-0.389,8.166,0.136,12.233c0.382,2.958,0.811,5.822-0.672,8.693c-0.928,1.796-0.177,3.384,1.55,4.566
		c1.31,0.897,2.786,1.401,4.307,1.016c2.247-0.57,4.463-1.332,6.236-3.431c-3.227-11.302-1.294-22.209,3.393-32.816
		c0.563-0.146,1.046-0.301,1.54-0.392c0.482-0.089,0.977-0.114,1.423-0.163c0.373,0.488,0.642,0.922,0.99,1.281
		c4.231,4.377,7.173,9.589,9.752,15.034c1.134,2.393,2.22,4.809,3.352,7.203c0.709,1.499,1.984,2.442,3.385,3.208
		c1.347,0.736,2.719,0.962,4.099-0.01c0.669-0.471,1.463-0.773,2.103-1.276C168.034,143.111,169.534,141.38,169.131,138.559z"/>
	<path class="stroke" fill="#693c11"  fill-rule="evenodd" clip-rule="evenodd" d="M90.671,65.188c-0.192-1.68-1.372-2.766-3.084-3.203
		c-1.811-0.463-3.33,0.062-4.346,1.521c-1.368,1.961-2.532,4.064-3.778,6.111c-0.443,0.729-0.87,1.467-1.366,2.306
		c-1.031-0.633-1.863-1.144-2.703-1.658c1.273-2.756,3.293-4.883,4.101-7.817c-2.325-2.048-4.834-2.292-7.39-1.33
		c-2.452,0.924-4.596,2.435-5.984,4.744c-0.606,1.009-1.405,1.62-2.5,1.824c-1.137,0.213-1.728,0.937-2.128,1.925
		c-0.812,2.007-1.433,4.07-1.336,6.25c0.083,1.869-0.567,3.416-1.558,4.947c-2.463,3.811-4.854,7.669-7.243,11.528
		c-2.291,3.698-4.583,7.398-6.803,11.139c-1.831,3.086-3.559,6.234-5.301,9.3c-2.978,1.281-5.225,3.15-6.551,6.1
		c-1.185,2.636-0.855,6.167,1.039,8.348c0.326,0.375,0.709,0.76,1.147,0.968c2.403,1.138,4.757,2.001,7.61,1.388
		c4.091-0.88,7.087-3.303,7.56-7.327c0.224-1.895,0.998-3.454,2.177-4.924c4.065-5.069,8.088-10.171,12.091-15.29
		c1.669-2.134,3.29-4.31,4.858-6.519c2.483-3.497,4.904-7.04,7.452-10.708c1.066-0.272,2.224-0.55,3.37-0.865
		c1.819-0.499,3.679-0.897,5.435-1.565c3.211-1.223,4.954-3.685,5.648-7.033C91.802,71.91,91.055,68.555,90.671,65.188z
		 M39.221,122.075c0.452-0.804,0.898-1.6,1.406-2.502c0.979,0.112,1.869,0.214,2.767,0.317
		C43.009,122.407,41.487,123.173,39.221,122.075z"/>
	<path fill-rule="evenodd" clip-rule="evenodd" fill="#faf0e5" class="fill" d="M101.123,77.479c1.962-0.008,3.598,0.599,4.95,2.349
		c-1.209,1.429-2.447,2.84-3.627,4.297c-3.14,3.875-6.252,7.772-9.381,11.656c-1.584,1.966-3.173,3.929-4.775,5.88
		C83.2,107.857,78.121,114.062,73,120.233c-1.57,1.893-3.265,3.683-4.896,5.527c-1.713,1.938-3.409,3.892-5.129,5.824
		c-1.216,1.367-2.429,2.739-3.698,4.057c-2.142,2.227-4.313,4.428-6.503,6.608c-0.532,0.529-1.146,1.002-1.792,1.384
		c-1.617,0.956-3.022,0.188-3.193-1.704c-0.124-1.375,0.223-2.631,1.025-3.757c1.573-2.207,3.066-4.477,4.74-6.605
		c2.415-3.071,5.004-6.006,7.439-9.063c2.791-3.501,5.425-7.129,8.259-10.594c2.314-2.83,4.744-5.575,7.259-8.227
		c4.865-5.128,9.874-10.118,14.73-15.254C94.576,84.902,97.752,81.226,101.123,77.479z"/>
	<path fill-rule="evenodd" clip-rule="evenodd" fill="#faf0e5" class="fill" d="M106.192,47.631c9.6,7.096,19.23,14.214,28.994,21.43
		c-1.996,3.052-4.014,6.136-6.125,9.363c-2.118-1.162-4.151-2.271-6.179-3.39c-3.254-1.795-6.519-3.573-9.755-5.4
		c-4.449-2.511-8.658-5.387-12.658-8.563c-0.329-0.261-0.606-0.653-0.77-1.042c-1.174-2.791-2.314-5.596-3.458-8.4
		c-0.066-0.162-0.063-0.352-0.131-0.759C99.442,49.799,102.774,48.729,106.192,47.631z"/>
	<path fill-rule="evenodd" clip-rule="evenodd" fill="#faf0e5" class="fill" d="M144.456,117.177c0.817-2.144,2.6-3.415,4.14-4.883
		c0.098-0.094,0.445,0.074,0.763,0.138c-0.224,0.908-0.426,1.728-0.577,2.335c1.88,1.68,3.566,3.187,5.251,4.693
		c2.978,2.661,5.075,5.926,6.552,9.607c1.104,2.749,2.245,5.487,3.23,8.279c0.406,1.152,0.931,2.034,2.071,2.515
		c0.275,0.116,0.505,0.344,0.833,0.574c-0.806,1.429-2.076,2.258-3.38,2.962c-0.449,0.243-1.339,0.182-1.749-0.119
		c-0.943-0.693-1.893-1.502-2.524-2.47c-2.147-3.292-3.533-6.96-4.995-10.591c-1.346-3.344-2.993-6.516-5.729-9.011
		C146.999,119.982,145.807,118.589,144.456,117.177z"/>
	<path fill-rule="evenodd" clip-rule="evenodd" fill="#faf0e5" class="fill" d="M136.463,119.594c-0.312,1.042-0.51,2.163-0.971,3.164
		c-1.953,4.243-2.583,8.805-3.331,13.339c-0.164,0.993-0.146,2.013-0.242,3.018c-0.255,2.662-0.042,5.283,0.53,7.894
		c0.267,1.214,0.375,2.462,0.577,3.854c-1.931,0.514-3.151,2.743-5.457,1.447c-0.068-0.366-0.199-0.678-0.17-0.975
		c0.373-3.869-0.208-7.677-0.625-11.506c-0.494-4.522,0.157-8.945,1.78-13.192c0.876-2.293,1.914-4.523,2.995-7.053
		c-0.293-0.8-0.675-1.84-1.057-2.882C131.78,116.769,134.659,118.113,136.463,119.594z"/>
	<path fill-rule="evenodd" clip-rule="evenodd" fill="#faf0e5" class="fill" d="M146.014,106.616c-0.453,0.717-0.911,1.444-1.351,2.143
		c-1.309-0.682-2.456-1.278-3.792-1.974c0.061-0.667,0.146-1.523,0.213-2.381c0.118-1.501,0.193-3.006,0.343-4.503
		c0.148-1.471,0.518-1.9,1.938-2.26C144.377,100.559,145.653,103.408,146.014,106.616z"/>
	<path fill-rule="evenodd" clip-rule="evenodd" fill="#faf0e5" class="fill" d="M134.148,110.782c-0.626-0.396-1.196-0.755-1.797-1.135
		c-0.218-3.27-0.43-6.455-0.649-9.733c0.427-0.182,0.79-0.338,1.226-0.524c1.399,2.922,2.745,5.733,4.041,8.438
		C136.046,108.792,135.188,109.692,134.148,110.782z"/>
	<path fill-rule="evenodd" clip-rule="evenodd" fill="#faf0e5" class="fill" d="M143.512,110.369c0.367,3.282-0.891,5.143-4.042,5.857
		c-0.446-0.171-0.971-0.381-1.501-0.575c-2.055-0.754-2.794-2.923-1.61-4.734C137.948,108.487,141.476,108.217,143.512,110.369z
		 M137.602,114.012c2.296,1.391,3.646,1.209,4.526-0.341c0.872-1.537,0.342-2.775-1.822-3.959c-0.728,0.364-1.55,0.776-2.549,1.276
		C137.703,112.03,137.651,113.051,137.602,114.012z"/>
	<path fill-rule="evenodd" clip-rule="evenodd" fill="#faf0e5" class="fill" d="M133.28,116.052c0.52-0.486,0.809-0.757,1.036-0.969
		c0.674,0.684,1.266,1.286,1.948,1.98C135.182,117.211,134.481,116.475,133.28,116.052z"/>
	<path fill-rule="evenodd" clip-rule="evenodd" fill="#faf0e5" class="fill" d="M146.295,112.264c-0.431,0.403-0.731,0.684-1.101,1.03
		c-0.095-0.261-0.217-0.424-0.195-0.564C145.1,112.118,145.304,111.628,146.295,112.264z"/>
	<path fill-rule="evenodd" clip-rule="evenodd" fill="#faf0e5" class="fill" d="M73.54,73.187c1.566,0.471,3.127,0.963,4.701,1.403
		c1.165,0.326,1.959-0.147,2.796-1.042c2.085-2.231,3.108-5.037,4.489-7.652c0.284-0.538,0.595-1.061,0.999-1.777
		c0.413,0.438,0.754,0.647,0.87,0.945c1.293,3.305,1.847,6.619,0.779,10.17c-0.886,2.946-2.873,4.531-5.59,5.381
		c-2.159,0.675-4.325,1.335-6.67,1.187c-1.918-0.122-3.38,0.835-4.357,2.51c-1.369,2.346-2.668,4.736-4.148,7.011
		c-2.167,3.331-4.413,6.615-6.725,9.847c-2.791,3.903-5.632,7.773-8.558,11.575c-1.576,2.047-3.375,3.921-4.968,5.752
		c-0.115,1.264-0.14,2.343-0.323,3.396c-0.743,4.291-5.653,6.193-9.035,3.526c-3.349-2.643-2.763-7.18,1.205-9.229
		c0.499-0.257,1.044-0.425,1.761-0.712c7.754-12.062,14.431-24.998,23.288-36.889c0-1.268-0.117-2.73,0.038-4.162
		c0.118-1.1,0.414-2.247,0.923-3.219c0.763-1.458,2.116-1.814,3.544-0.98c1.177,0.688,2.216,1.61,3.316,2.43
		c-1.118-0.064-2.236-0.126-3.361-0.191c-0.985,1.958-1.88,3.737-2.851,5.666c2.254,1.47,4.797,1.648,6.866,2.948
		c2.069-1.102,3.152-2.821,3.936-4.503c0.059-1.324-0.756-1.764-1.471-2.284C74.5,73.936,74.023,73.556,73.54,73.187z
		 M48.911,114.173c0.727-0.788,1.534-1.517,2.165-2.374c1.682-2.283,3.285-4.625,4.927-6.938c0.657-0.926,1.361-1.82,1.999-2.758
		c2.018-2.972,4.005-5.964,6.022-8.936c1.84-2.709,3.703-5.401,5.51-8.034c-1.235-2.843-3.709-2.848-5.928-3.548
		c-2.057,2.751-3.898,5.443-5.438,8.354c-1.061,2.006-2.288,3.926-3.464,5.87c-0.49,0.81-1.104,1.548-1.549,2.38
		c-2.112,3.954-4.334,7.834-7.163,11.336c-0.765,0.948-1.304,2.007-1.183,3.329C45.88,113.966,47.099,114.603,48.911,114.173z
		 M40.708,124.213c3.445,0.056,4.896-2.658,3.997-5.491c-0.61-1.923-1.404-2.292-3.44-1.791c-0.424,0.104-0.876,0.095-1.303,0.19
		c-1.9,0.424-3.241,2.282-3.063,4.217C37.06,123.106,38.545,124.228,40.708,124.213z"/>
	<path fill-rule="evenodd" clip-rule="evenodd" fill="#faf0e5" class="fill" d="M68.33,66.957c1.723-2.565,3.887-3.394,6.719-3.203
		c-0.245,1.979-1.51,3.299-2.466,4.996C71.227,68.178,69.932,67.633,68.33,66.957z"/>
	<path fill-rule="evenodd" clip-rule="evenodd" fill="#faf0e5" class="fill" d="M107.916,96.653c0.65-1.724,1.248-3.311,1.945-5.162
		c1.199,0.123,2.407,0.246,3.693,0.378c0.088,2.31-1.202,4.014-1.559,6.121c-1.881,0.654-2.359,2.391-2.873,4.091
		c-1.22,4.038-2.401,8.09-3.652,12.119c-0.195,0.629-0.155,1.566-1.482,1.702c0.161-1.075,0.208-2.053,0.46-2.975
		c1.083-3.946,2.234-7.874,3.343-11.813C108.195,99.681,108.974,98.259,107.916,96.653z"/>
	<path fill-rule="evenodd" clip-rule="evenodd" fill="#faf0e5" class="fill" d="M99.711,118.341c0.462-0.192,0.923-0.546,1.387-0.551
		c2.072-0.02,4.141,0.08,6.024,1.159c-1.209,0.588-2.396,0.142-3.585,0.078c-1.235-0.065-2.475-0.014-3.714-0.014
		C99.786,118.789,99.749,118.565,99.711,118.341z"/>
	<path fill-rule="evenodd" clip-rule="evenodd" fill="#faf0e5" class="fill" d="M72.431,75.214c-1.298,0.824-2.596,1.647-4.187,2.656
		c0.068-0.594,0.045-0.974,0.126-0.998c1.41-0.417,2.265-1.977,3.79-2.142C72.25,74.893,72.341,75.054,72.431,75.214z"/>
	<path fill-rule="evenodd" clip-rule="evenodd" fill="#faf0e5" class="fill" d="M74.479,75.744c0.566,0.827,0.141,1.357-0.374,1.638
		c-0.893,0.488-1.876,0.812-2.984,0.947C72.221,77.482,73.322,76.635,74.479,75.744z"/>
	<path fill-rule="evenodd" clip-rule="evenodd" fill="#faf0e5" class="fill" d="M141.261,111.82c-0.432,0.89-0.659,1.359-0.879,1.815
		c-1.333-0.488-1.333-0.488-0.906-2.281C139.979,111.485,140.475,111.615,141.261,111.82z"/>
	<path fill-rule="evenodd" clip-rule="evenodd" fill="#faf0e5" class="fill" d="M47.957,112.91c-0.577-0.348-0.885-0.534-1.265-0.763
		c5.824-9.584,11.603-19.093,17.479-28.763c1.188,0.404,2.21,0.75,3.572,1.212C61.232,94.305,54.834,103.651,47.957,112.91z"/>
</g>
<g id="Layer_2" display="none">
</g>
</svg>
