<svg version="1.1" id="svg" xmlns="http://www.w3.org/2000/svg" xmlns:xlink="http://www.w3.org/1999/xlink" x="0px" y="0px"
	 width="200px" height="200px" viewBox="0 0 200 200" enable-background="new 0 0 200 200" xml:space="preserve">
<path class="stroke" fill="#064146"  fill-rule="evenodd" clip-rule="evenodd" d="M155.535,104.301c-0.309,0.543-0.484,1.115-0.863,1.471
	c-0.982,0.923-2.058,1.749-3.089,2.622c-0.649,0.549-1.267,1.137-1.931,1.669c-0.335,0.268-0.756,0.427-1.106,0.68
	c-0.347,0.25-0.653,0.556-1.055,0.905c1.277,1.353,2.464,2.644,3.687,3.899c1.801,1.848,3.604,3.695,5.447,5.5
	c2.841,2.78,5.427,5.811,8.497,8.369c1.491,1.242,2.749,2.761,4.153,4.113c1.07,1.03,2.206,1.993,3.313,2.986
	c-0.037,0.071-0.074,0.142-0.11,0.213c0.222-0.365,0.423-0.745,0.671-1.091c1.13-1.583,2.714-2.104,4.595-1.971
	c2.038,0.145,3.854,0.988,5.708,1.729c0.565,0.226,1.141,0.429,1.716,0.625c1.975,0.675,2.609,2.365,2.361,4.272
	c-0.141,1.083-0.439,2.144-0.678,3.266c1.496,1.254,3.31,2.356,3.685,4.481c0.337,1.912,0.895,3.928-0.707,5.804
	c-0.884-0.252-1.778-0.506-2.796-0.796c-0.453,1.963-0.874,3.882-1.343,5.789c-0.215,0.872-0.443,1.758-0.812,2.57
	c-0.492,1.082-1.655,1.295-2.628,1.704c-1.3,0.547-2.646,0.586-4.027,0.264c-0.709-0.166-1.461-0.145-2.177-0.29
	c-2.731-0.556-3.592-1.955-3.37-4.8c0.162-2.068,0.198-4.147,0.235-6.223c0.017-0.951-0.417-1.473-1.555-1.732
	c-1.397-0.319-2.826-0.496-4.244-0.722c-2.574-0.413-5.16-0.763-7.722-1.238c-3.546-0.658-7.064-1.465-10.615-2.095
	c-2.33-0.414-4.701-0.585-7.042-0.945c-1.638-0.252-3.261-0.614-4.879-0.973c-2.142-0.474-4.266-1.031-6.411-1.483
	c-3.627-0.765-7.256-1.525-10.902-2.193c-2.298-0.421-4.629-0.67-6.976-1c-1.279,1.035-2.551,2.089-3.85,3.109
	c-1.341,1.054-2.708,2.075-4.065,3.11c-0.447,0.34-0.931,0.457-1.428,0.138c-2.005-1.288-4.319-1.749-6.546-2.424
	c-2.376-0.721-4.789-1.322-7.176-2.006c-3.321-0.951-6.638-1.916-9.947-2.909c-1.276-0.383-2.523-0.859-3.995-1.366
	c0.131,0.777,0.207,1.365,0.334,1.942c0.13,0.595-0.049,1.001-0.425,1.513c-1.32,1.789-3.456,2.402-5.089,3.725
	c-0.473,0.383-0.972,0.735-1.333,1.007c-0.423,1.645-0.769,3.16-1.212,4.647c-0.282,0.948-0.657,1.878-1.083,2.772
	c-0.51,1.071-1.054,2.137-1.704,3.125c-0.5,0.76-1.136,1.405-2.083,1.736c-0.908,0.317-1.746,0.846-2.598,1.311
	c-2.264,1.236-4.669,2.075-7.187,2.609c-1.305,0.277-2.596,0.656-3.914,0.815c-1.087,0.131-2.214-0.082-3.308,0.015
	c-2.51,0.222-4.781-0.624-7.022-1.517c-0.933-0.371-1.778-1.027-2.569-1.669c-1.286-1.045-2.677-2.042-3.684-3.328
	c-1.02-1.3-1.744-2.875-2.389-4.416c-1.531-3.657-1.169-7.471-0.691-11.274c0.021-0.165,0.051-0.328,0.093-0.587
	c-0.34,0.11-0.603,0.194-0.866,0.279c-0.017,0.047-0.033,0.094-0.05,0.142c-1.229-0.426-2.46-0.844-3.686-1.279
	c-0.589-0.208-0.885-0.57-0.625-1.239c1.172-3.018,2.217-6.092,3.542-9.041c0.729-1.622,1.706-3.168,3.08-4.428
	c0.781-0.715,1.476-1.471,2.535-1.761c0.172-0.047,0.313-0.207,0.561-0.379c-0.785-0.261-1.469-0.496-2.157-0.716
	c-0.738-0.236-1.52-0.38-2.212-0.71c-0.739-0.353-1.28-0.035-1.828,0.314c-3.169,2.019-6.317,4.072-9.503,6.064
	c-0.394,0.246-0.972,0.272-1.464,0.273c-2.094,0.002-4.06-0.652-6.121-1.199c-0.154-0.587-0.421-1.145-0.427-1.706
	c-0.04-3.738-0.079-7.478-0.01-11.216c0.071-3.855,0.309-7.708,0.392-11.563c0.056-2.613-0.113-5.231-0.022-7.842
	c0.066-1.921,0.391-3.833,0.623-5.955c0.42-0.367,0.951-0.914,1.561-1.35c3.474-2.481,6.981-4.914,10.445-7.407
	c2.415-1.738,4.761-3.571,7.167-5.319c2.545-1.85,5.134-3.638,7.688-5.476c1.147-0.826,2.215-1.766,3.388-2.553
	c3.301-2.216,6.635-4.382,9.96-6.561c1.267-0.83,2.518-1.688,3.824-2.45c1.028-0.599,2.197-0.512,3.329-0.349
	c0.958,0.137,1.895,0.434,2.854,0.528c3.654,0.361,7.199,1.236,10.705,2.271c3.741,1.104,7.457,2.292,11.177,3.465
	c1.903,0.6,3.782,1.277,5.688,1.868c1.627,0.503,3.283,0.911,4.915,1.398c2.684,0.802,5.324,1.779,8.045,2.413
	c2.709,0.631,5.137,1.97,7.779,2.733c0.936,0.27,1.88,0.517,2.808,0.811c3.041,0.963,6.073,1.953,9.114,2.914
	c2.182,0.689,4.366,1.371,6.563,2.013c1.542,0.45,3.114,0.8,4.658,1.247c1.259,0.365,2.491,0.826,3.745,1.209
	c0.787,0.241,1.608,0.375,2.387,0.635c2.166,0.721,4.302,1.533,6.479,2.216c2.252,0.706,4.533,1.321,6.812,1.942
	c1.224,0.333,1.733,1.027,1.803,2.299c0.159,2.871,0.383,5.738,0.59,8.606c0.193,2.676,0.404,5.351,0.595,8.027
	C155.563,103.386,155.535,103.852,155.535,104.301z M137.948,119.137c-4.853,4.161-9.537,8.277-14.819,11.866
	c0.275,0.088,0.359,0.132,0.448,0.141c1.529,0.162,3.064,0.271,4.584,0.492c1.494,0.218,2.965,0.586,4.457,0.822
	c3.897,0.617,7.833,1.044,11.692,1.838c3.333,0.686,6.647,1.315,10.052,1.408c0.385,0.01,0.771,0.062,1.156,0.095
	c0.033-0.073,0.067-0.146,0.1-0.22C149.748,130.117,143.879,124.656,137.948,119.137z M178.142,158.633
	c0.628,0.186,1.176,0.349,1.775,0.526c0.295-2.688,0.581-5.286,0.876-7.982c-0.675-0.137-1.318-0.267-1.948-0.396
	C178.606,153.455,178.377,156.015,178.142,158.633z M182.326,140.217c-1.305-0.655-2.649-0.872-4.042-0.757
	c-0.248,0.021-0.469,0.362-0.842,0.671c1.697,0.542,3.17,1.013,4.784,1.528C182.263,141.131,182.292,140.712,182.326,140.217z"/>
<path fill-rule="evenodd" clip-rule="evenodd" fill="#8dece4" class="fill" d="M98.17,122.156c0.123,1.759,0.236,3.396,0.362,5.211
	c-0.674-0.207-1.176-0.339-1.663-0.513c-3.324-1.185-6.638-2.396-9.969-3.562c-1.494-0.522-3.025-0.939-4.523-1.448
	c-0.667-0.227-1.28-0.609-1.945-0.843c-3.705-1.306-7.403-2.631-11.135-3.856c-1.71-0.562-3.505-0.86-5.234-1.37
	c-1.608-0.475-3.173-1.095-4.771-1.609c-2.11-0.68-4.26-1.245-6.345-1.992c-2.661-0.953-5.297-1.984-7.901-3.082
	c-2.451-1.033-4.808-2.292-7.277-3.273c-2.369-0.942-4.833-1.645-7.249-2.474c-2.443-0.838-4.877-1.701-7.316-2.554
	c-1.608-0.563-3.215-1.125-4.82-1.695c-0.131-0.046-0.246-0.138-0.482-0.275c-0.046-2.608-0.096-5.257-0.129-7.906
	c-0.001-0.074,0.171-0.15,0.289-0.247c0.908,0.433,1.78,0.932,2.709,1.277c2.901,1.079,5.827,2.089,8.736,3.146
	c2.451,0.891,4.885,1.827,7.339,2.712c3.67,1.324,7.37,2.57,11.021,3.945c2.646,0.997,5.245,2.125,7.846,3.239
	c2.689,1.152,5.338,2.398,8.037,3.528c1.821,0.762,3.708,1.366,5.545,2.088c2.249,0.884,4.469,1.84,6.717,2.726
	c2.246,0.884,4.506,1.732,6.769,2.572c1.801,0.668,3.644,1.235,5.42,1.962c3.224,1.318,6.412,2.722,9.614,4.094
	C97.988,122.034,98.149,122.144,98.17,122.156z"/>
<path fill-rule="evenodd" clip-rule="evenodd" fill="#8dece4" class="fill" d="M45.854,159.748c-1.749-0.132-3.387-0.552-4.958-1.286
	c-0.637-0.297-1.339-0.456-1.979-0.749c-0.523-0.239-1.011-0.565-1.491-0.888c-0.403-0.272-0.766-0.604-1.16-0.894
	c-2.598-1.904-3.961-4.519-4.424-7.657c-0.11-0.749-0.232-1.496-0.347-2.244c-0.518-3.373,0.352-6.466,2.084-9.302
	c1.965-3.217,4.947-4.955,8.668-5.465c2.189-0.3,4.375-0.506,6.545,0.074c2.03,0.542,3.643,1.616,5.041,3.276
	c2.099,2.492,3.102,5.438,3.585,8.462c0.787,4.922-0.166,9.569-3.89,13.229c-0.86,0.845-2.048,1.39-3.147,1.95
	c-0.993,0.506-2.061,0.871-3.115,1.242C46.822,159.653,46.327,159.668,45.854,159.748z M44.355,154.757
	c3.39,0.047,5.417-1.432,6.71-3.99c0.803-1.586,1.321-3.247,1.565-5.053c0.303-2.239,0.413-4.407-0.307-6.568
	c-0.089-0.266-0.174-0.565-0.354-0.764c-0.765-0.84-1.57-1.645-2.352-2.472c-0.874-0.923-1.948-1.579-3.196-1.57
	c-1.545,0.011-3.094,0.255-4.632,0.466c-0.488,0.067-1.038,0.242-1.4,0.553c-0.62,0.532-1.135,1.192-1.659,1.828
	c-1.78,2.163-2.313,4.742-2.414,7.447c-0.059,1.596,0.257,3.121,0.816,4.634c0.564,1.528,1.37,2.852,2.582,3.908
	C41.157,154.433,42.946,154.692,44.355,154.757z"/>
<path fill-rule="evenodd" clip-rule="evenodd" fill="#8dece4" class="fill" d="M149.46,101.511c0,2.066,0,4.132,0,6.371
	c-1.079,0.803-2.3,1.692-3.501,2.609c-2.039,1.557-4.056,3.143-6.101,4.692c-1.731,1.311-3.52,2.55-5.231,3.887
	c-3.269,2.554-6.52,5.132-9.744,7.742c-2.392,1.937-4.701,3.975-7.099,5.904c-2.528,2.035-5.119,3.99-7.677,5.987
	c-0.789,0.616-1.551,1.265-2.342,1.878c-0.283,0.219-0.613,0.377-1.059,0.645c0-1.925,0-3.705,0-5.207
	c13.67-12.43,27.833-23.847,42.525-34.608C149.309,101.444,149.384,101.478,149.46,101.511z"/>
<path fill-rule="evenodd" clip-rule="evenodd" fill="#8dece4" class="fill" d="M74.795,134.613c-1.02-3.404-2.042-7.08-4.729-10.102
	c0.33,0,0.509-0.042,0.658,0.006c2.293,0.744,4.59,1.476,6.87,2.258c3.827,1.312,7.628,2.699,11.466,3.977
	c2.749,0.916,5.542,1.694,8.308,2.556c0.459,0.143,0.881,0.402,1.417,0.652c0.103,2.704,0.206,5.406,0.315,8.251
	C90.999,139.679,83.034,137.188,74.795,134.613z"/>
<path fill-rule="evenodd" clip-rule="evenodd" fill="#8dece4" class="fill" d="M17.646,112.719c-0.266-2.37-0.522-4.661-0.798-7.114
	c0.577,0.128,0.995,0.204,1.404,0.315c1.666,0.454,3.35,0.854,4.988,1.394c2.244,0.737,4.461,1.56,6.674,2.385
	c3.447,1.286,6.872,2.629,10.323,3.902c2.58,0.952,5.186,1.832,7.796,2.749c-3.674,1.448-7.337,2.891-11.029,4.345
	c-1.631-0.578-3.317-1.076-4.92-1.768c-2.557-1.103-5.042-2.369-7.586-3.5c-1.798-0.799-3.643-1.491-5.47-2.222
	C18.601,113.034,18.158,112.898,17.646,112.719z"/>
<path fill-rule="evenodd" clip-rule="evenodd" fill="#8dece4" class="fill" d="M19.063,102.79c0.058-0.669,0.111-1.294,0.172-2.005
	c0.299,0.072,0.556,0.11,0.797,0.196c3.166,1.138,6.319,2.312,9.496,3.417c2.44,0.849,4.935,1.542,7.356,2.437
	c1.828,0.675,3.598,1.516,5.358,2.358c3.082,1.476,6.16,2.921,9.472,3.863c3.306,0.94,6.539,2.131,9.819,3.167
	c2.092,0.659,4.23,1.172,6.312,1.861c3.171,1.051,6.311,2.198,9.463,3.303c3.106,1.088,6.212,2.175,9.319,3.261
	c3.082,1.077,6.172,2.133,9.242,3.241c0.888,0.32,1.724,0.786,2.581,1.184c0,0.515,0,1.007,0,1.426
	c-1.836-0.526-3.615-1.017-5.383-1.547c-2.357-0.706-4.729-1.378-7.053-2.183c-2.897-1.003-5.732-2.187-8.634-3.177
	c-1.838-0.627-3.763-1-5.623-1.571c-1.767-0.542-3.516-1.154-5.244-1.809c-4.354-1.651-8.668-3.41-13.046-4.994
	c-2.63-0.951-5.372-1.588-8.022-2.484c-2.674-0.904-5.302-1.947-7.943-2.944c-4.006-1.512-8.011-3.024-12.006-4.563
	c-1.478-0.569-2.917-1.235-4.39-1.817C20.477,103.159,19.807,103.011,19.063,102.79z"/>
<path fill-rule="evenodd" clip-rule="evenodd" fill="#8dece4" class="fill" d="M106.671,126.129c-0.073-1.104-0.133-2.02-0.197-2.987
	c0.229-0.062,0.453-0.123,0.794-0.214c0.053-0.295,0.115-0.64,0.176-0.984c-0.042-0.036-0.084-0.07-0.125-0.106
	c2.37-1.91,4.695-3.879,7.123-5.715c3.033-2.295,6.176-4.447,9.222-6.725c1.933-1.446,3.769-3.021,5.665-4.518
	c1.548-1.222,3.115-2.418,4.682-3.616c2.071-1.585,4.147-3.165,6.226-4.739c2.139-1.62,4.29-3.226,6.423-4.853
	c0.523-0.399,0.987-0.875,1.504-1.281c0.29-0.228,0.634-0.384,1.036-0.621c0,1.493,0,2.823,0,3.99
	c-1.149,0.707-2.22,1.274-3.189,1.98c-2.014,1.466-3.96,3.022-5.958,4.509c-1.939,1.443-3.933,2.814-5.855,4.278
	c-1.241,0.945-2.395,2.005-3.593,3.008c-1.683,1.408-3.351,2.835-5.061,4.21c-3.025,2.432-6.078,4.829-9.117,7.242
	c-2.151,1.709-4.271,3.458-6.461,5.114C108.983,124.843,107.864,125.403,106.671,126.129z"/>
<path fill-rule="evenodd" clip-rule="evenodd" fill="#8dece4" class="fill" d="M171.861,138.48c-0.199,0.15-0.368,0.276-0.574,0.432
	c0.061,0.398,0.122,0.791,0.182,1.18c1.667,0.374,3.002,1.673,4.969,1.134c1.749,0.52,3.679,1.043,5.574,1.675
	c1.3,0.434,2.59,0.939,3.813,1.556c1.52,0.766,2.565,2.047,3.455,3.644c-0.553,0.279-1.022,0.516-1.366,0.689
	c-0.528-1.078-0.872-2.087-1.476-2.904c-0.436-0.588-1.158-1.101-1.857-1.333c-2.776-0.922-5.605-1.679-8.391-2.575
	c-2.625-0.844-5.346-0.996-8.049-1.339c-3.29-0.419-6.557-1.015-9.84-1.485c-2.846-0.408-5.704-0.728-8.552-1.124
	c-2.341-0.325-4.673-0.715-7.013-1.056c-2.704-0.395-5.415-0.746-8.117-1.157c-1.782-0.272-3.552-0.625-5.331-0.927
	c-0.95-0.162-1.906-0.293-3.029-0.464c0.478-0.541,0.854-0.967,1.305-1.477c1.022,0.156,2.077,0.31,3.13,0.479
	c2.434,0.39,4.864,0.795,7.298,1.179c1.977,0.312,3.961,0.575,5.935,0.91c1.054,0.179,2.083,0.52,3.138,0.684
	c1.761,0.275,3.529,0.515,5.302,0.686c3.6,0.347,7.185,0.737,10.711,1.604c1.245,0.306,2.56,0.35,3.849,0.441
	c0.278,0.02,0.82-0.264,0.823-0.417c0.011-0.546,0.001-1.208-0.292-1.618c-0.501-0.701-1.236-1.229-1.847-1.856
	c-2.521-2.584-4.998-5.211-7.556-7.759c-3.062-3.048-6.192-6.028-9.28-9.05c-0.293-0.288-0.495-0.669-0.751-1.022
	c0.515-0.258,1.212-0.606,1.97-0.984c1.489,1.479,2.931,2.893,4.352,4.327c2.852,2.879,5.58,5.893,8.569,8.621
	c3.061,2.793,5.867,5.807,8.632,8.875C171.657,138.169,171.742,138.314,171.861,138.48z"/>
<path fill-rule="evenodd" clip-rule="evenodd" fill="#8dece4" class="fill" d="M149.311,95.331c0,1.228,0,2.318,0,3.48
	c-0.469,0.29-1.018,0.566-1.496,0.935c-2.031,1.562-4.024,3.174-6.065,4.723c-0.972,0.737-2.044,1.34-3.03,2.059
	c-2.583,1.881-5.149,3.783-7.709,5.693c-2.056,1.535-4.109,3.073-6.132,4.649c-1.79,1.396-3.524,2.864-5.306,4.271
	c-1.493,1.18-3.041,2.293-4.524,3.485c-1.159,0.931-2.215,1.992-3.393,2.897c-1.481,1.138-3.04,2.174-4.714,3.361
	c-0.068-1.261-0.126-2.339-0.182-3.364c1.479-0.935,2.992-1.733,4.325-2.764c3.668-2.836,7.251-5.781,10.887-8.659
	c2.086-1.65,4.248-3.206,6.304-4.892c2.149-1.762,4.175-3.675,6.329-5.431c1.379-1.124,2.918-2.049,4.342-3.122
	c1.984-1.494,3.909-3.067,5.896-4.557c1.148-0.862,2.365-1.634,3.563-2.427C148.621,95.528,148.896,95.482,149.311,95.331z"/>
<path fill-rule="evenodd" clip-rule="evenodd" fill="#8dece4" class="fill" d="M18.72,89.208c0.612-0.021,1.281-0.209,1.827-0.029
	c1.408,0.464,2.755,1.112,4.14,1.651c2.132,0.83,4.262,1.669,6.418,2.43c2.064,0.729,4.181,1.312,6.242,2.049
	c4.27,1.528,8.54,3.062,12.769,4.697c2.821,1.092,5.541,2.441,8.359,3.538c3.956,1.537,7.969,2.928,11.943,4.418
	c2.65,0.994,5.294,2.008,7.909,3.09c5.273,2.181,10.512,4.443,15.791,6.61c1.915,0.786,3.904,1.39,5.856,2.085
	c0.316,0.113,0.618,0.268,0.901,0.393c-0.384,0.349-0.736,0.668-1.234,1.12c-0.65-0.27-1.543-0.629-2.426-1.011
	c-1.858-0.802-3.684-1.691-5.573-2.411c-3.776-1.439-7.592-2.775-11.379-4.185c-1.157-0.431-2.264-1-3.416-1.443
	c-4.163-1.605-8.352-3.143-12.499-4.788c-2.238-0.889-4.399-1.971-6.616-2.915c-2.376-1.011-4.772-1.978-7.171-2.936
	c-2.694-1.074-5.39-2.149-8.107-3.165c-2.51-0.939-5.054-1.79-7.576-2.698c-3.579-1.289-7.129-2.662-10.736-3.865
	c-1.716-0.572-3.355-1.281-4.978-2.055c-0.15-0.071-0.287-0.169-0.43-0.254C18.729,89.426,18.724,89.317,18.72,89.208z"/>
<path fill-rule="evenodd" clip-rule="evenodd" fill="#8dece4" class="fill" d="M16.438,90.458c0,3.021,0,6.073,0,9.271
	c0.364,0.157,0.818,0.355,1.333,0.578c0,0.937,0,1.902,0,2.75c-0.125,0.154-0.149,0.215-0.188,0.227
	c-2.416,0.76-1.945,2.737-1.798,4.481c0.15,1.787,0.598,3.55,0.745,5.337c0.26,3.154,0.399,6.32,0.568,9.481
	c0.042,0.791,0.006,1.586,0.006,2.428c-1.423-0.07-2.78,0.156-4.152-0.748c0-1.131-0.029-2.34,0.007-3.547
	c0.045-1.487,0.141-2.973,0.221-4.458c0.237-4.362,0.542-8.722,0.693-13.088c0.112-3.197,0.022-6.401,0.023-9.603
	c0-1.288,0-2.575,0-4.043C14.812,89.86,15.506,90.115,16.438,90.458z"/>
<path fill-rule="evenodd" clip-rule="evenodd" fill="#8dece4" class="fill" d="M136.361,93.822c-0.352,0.292-0.64,0.532-0.821,0.683
	c-1.346-0.295-2.568-0.498-3.752-0.836c-2.387-0.68-4.746-1.457-7.129-2.15c-2.759-0.802-5.527-1.575-8.3-2.328
	c-4.045-1.099-8.103-2.152-12.146-3.255c-4.679-1.275-9.344-2.6-14.023-3.874c-4.04-1.1-8.109-2.098-12.133-3.253
	c-3.487-1.001-6.93-2.152-10.388-3.249c-0.915-0.291-1.812-0.631-2.717-0.949c0.028-0.098,0.055-0.196,0.083-0.294
	c1.896,0.421,3.794,0.832,5.687,1.268c2.04,0.47,4.082,0.935,6.11,1.454c1.746,0.446,3.46,1.019,5.211,1.442
	c3.386,0.818,6.797,1.532,10.181,2.36c2.653,0.65,5.263,1.481,7.922,2.103c4.521,1.057,8.942,2.419,13.332,3.919
	c2.466,0.842,5.039,1.366,7.538,2.118c2.451,0.738,4.861,1.611,7.305,2.374c2.537,0.791,5.092,1.519,7.637,2.278
	C136.067,93.666,136.166,93.729,136.361,93.822z"/>
<path fill-rule="evenodd" clip-rule="evenodd" fill="#8dece4" class="fill" d="M141.94,89.682c-0.458,0.32-0.756,0.528-1.157,0.808
	c-1.164-0.372-2.391-0.761-3.617-1.156c-2.123-0.685-4.242-1.383-6.367-2.061c-1.975-0.629-3.952-1.251-5.935-1.856
	c-4.818-1.471-9.636-2.943-14.461-4.391c-3.127-0.939-6.256-1.874-9.404-2.744c-3.971-1.098-7.969-2.095-11.939-3.198
	c-2.162-0.6-4.275-1.369-6.432-1.99c-2.686-0.773-5.399-1.454-8.089-2.212c-1.195-0.338-2.36-0.785-3.546-1.155
	c-2.209-0.689-4.429-1.348-6.635-2.046c-0.48-0.152-0.925-0.416-1.387-0.627c0.034-0.094,0.068-0.188,0.102-0.28
	c0.321,0.086,0.641,0.176,0.964,0.256c2.056,0.506,4.109,1.023,6.169,1.51c2.682,0.635,5.374,1.227,8.053,1.872
	c3.012,0.724,6.036,1.414,9.018,2.253c2.606,0.733,5.152,1.681,7.74,2.48c1.982,0.611,4,1.102,5.981,1.715
	c1.444,0.447,2.834,1.07,4.282,1.499c2.005,0.594,4.048,1.055,6.062,1.617c2.914,0.814,5.836,1.605,8.719,2.519
	c3.952,1.252,7.865,2.625,11.806,3.916c3.062,1.003,6.141,1.958,9.211,2.938C141.325,89.426,141.562,89.535,141.94,89.682z"/>
<path fill-rule="evenodd" clip-rule="evenodd" fill="#8dece4" class="fill" d="M58.407,59.305c-1.055,0.769-2.099,1.555-3.171,2.3
	c-0.997,0.693-2.047,1.312-3.035,2.019c-1.778,1.273-3.505,2.618-5.295,3.876c-1.295,0.91-2.645,1.747-3.991,2.58
	c-1.632,1.01-3.278,1.974-4.769,3.219c-1.468,1.225-3.156,2.183-4.722,3.295c-1.173,0.833-2.317,1.709-3.453,2.593
	c-1.827,1.421-3.619,2.886-5.457,4.291c-1.685,1.289-3.408,2.528-5.125,3.774c-0.163,0.118-0.405,0.128-0.559,0.249
	c-0.463,0.327-0.926,0.652-1.436,1.011c-0.027,0.126-0.065,0.31-0.101,0.477c-0.927,0.416-1.596-0.231-2.553-0.455
	c1.455-1.121,2.789-2.128,4.1-3.163c2.202-1.738,4.346-3.553,6.596-5.225c1.974-1.468,4.074-2.765,6.093-4.173
	c1.56-1.088,3.104-2.203,4.615-3.359c2.731-2.091,5.372-4.305,8.164-6.311c2.47-1.774,5.087-3.344,7.652-4.984
	c1.151-0.736,2.364-1.379,3.49-2.149c1.024-0.7,1.955-0.07,2.927-0.086C58.386,59.155,58.397,59.23,58.407,59.305z"/>
<path fill-rule="evenodd" clip-rule="evenodd" fill="#8dece4" class="fill" d="M146.968,88.032c0.516,0.115,1.012,0.226,1.62,0.361
	c-0.815,0.681-1.53,1.32-2.287,1.903c-3.405,2.624-6.818,5.236-10.235,7.844c-2.658,2.029-5.34,4.024-7.983,6.073
	c-2.565,1.989-5.059,4.072-7.65,6.028c-2.241,1.691-4.606,3.218-6.854,4.902c-1.541,1.153-2.968,2.457-4.456,3.681
	c-0.941,0.775-1.901,1.528-2.965,2.381c-0.625-0.194-1.307-0.406-2.159-0.67c1.052-0.757,1.957-1.392,2.843-2.052
	c1.484-1.108,2.962-2.224,4.429-3.354c2.24-1.725,4.467-3.467,6.704-5.197c2.28-1.762,4.524-3.575,6.857-5.262
	c3.15-2.278,6.099-4.788,8.999-7.37c1.158-1.03,2.532-1.814,3.788-2.736c1.847-1.356,3.653-2.771,5.522-4.095
	C144.355,89.609,145.649,88.865,146.968,88.032z"/>
<path fill-rule="evenodd" clip-rule="evenodd" fill="#8dece4" class="fill" d="M61.213,148.133c-0.087-0.216-0.244-0.432-0.251-0.651
	c-0.104-3.446-1.166-6.677-2.369-9.843c-0.545-1.434-1.355-2.857-2.368-3.999c-0.929-1.045-2.254-1.765-3.471-2.521
	c-1.916-1.188-4.111-1.613-6.272-2.128c-2.277-0.542-4.538-1.157-6.807-1.733c-1.933-0.491-3.855-0.304-5.668,0.405
	c-1.323,0.517-2.264,1.616-2.897,2.896c-1.188,2.402-2.332,4.828-3.496,7.243c-0.051,0.106-0.121,0.204-0.205,0.344
	c-0.33-0.151-0.633-0.29-1.095-0.502c0.293-0.865,0.565-1.733,0.883-2.584c0.555-1.483,1.027-3.014,1.744-4.417
	c0.652-1.277,1.508-2.44,2.503-3.535c1.926-2.116,4.238-2.262,6.776-1.817c1.269,0.222,2.548,0.391,3.804,0.668
	c1.515,0.334,3.042,0.669,4.508,1.164c2.33,0.786,4.614,1.703,6.917,2.568c1.473,0.553,2.662,1.446,3.589,2.744
	c0.977,1.369,2.168,2.604,2.66,4.259c0.305,1.025,0.572,2.071,0.729,3.126c0.41,2.735,0.749,5.48,1.116,8.221
	C61.433,148.073,61.323,148.103,61.213,148.133z"/>
<path fill-rule="evenodd" clip-rule="evenodd" fill="#8dece4" class="fill" d="M62.805,130.926c-1.029-0.644-2.042-1.314-3.092-1.921
	c-0.6-0.348-1.25-0.456-1.828,0.16c-1.244-0.666-2.457-1.315-3.822-2.046c0.468-0.035,0.815,0.029,1.049-0.105
	c0.215-0.125,0.31-0.461,0.471-0.728c-0.673-0.566-1.245-1.046-1.89-1.589c1.397-0.206,2.642,0.947,4.23,0.165
	c-0.512-0.674-0.93-1.225-1.438-1.895c0.976,0.086,1.855,0.2,2.737,0.223c0.346,0.009,0.696-0.187,1.045-0.289
	c-0.127-0.335-0.169-0.755-0.4-0.988c-0.484-0.488-1.069-0.877-1.682-1.362c3.417-0.063,5.917,2.063,8.811,3.246
	c-0.083,0.296-0.139,0.498-0.143,0.514c0.521,1.29,0.979,2.426,1.438,3.562c-0.077,0.051-0.153,0.1-0.229,0.15
	c-1.332-0.863-1.974-2.688-3.885-2.886c-0.124,0.204-0.254,0.418-0.385,0.633c0.075-0.016,0.149-0.032,0.224-0.048
	c0.654,1.313,1.309,2.626,1.963,3.939c-0.052,0.049-0.104,0.098-0.157,0.146c-1.561-0.844-2.525-2.661-4.588-2.884
	c-0.143,0.18-0.322,0.409-0.415,0.526c0.787,1.199,1.493,2.275,2.199,3.352C62.948,130.843,62.876,130.884,62.805,130.926z"/>
<path fill-rule="evenodd" clip-rule="evenodd" fill="#8dece4" class="fill" d="M62.039,59.178c0.458,0.074,0.92,0.126,1.372,0.224
	c2.735,0.591,5.48,1.139,8.196,1.805c2.268,0.556,4.521,1.189,6.743,1.905c3.684,1.186,7.334,2.48,11.006,3.704
	c3.098,1.032,6.218,1.997,9.31,3.046c3.323,1.128,6.609,2.363,9.938,3.472c3.61,1.203,7.242,2.34,10.88,3.455
	c4.121,1.264,8.255,2.488,12.393,3.698c3.51,1.026,7.041,1.984,10.549,3.02c1.565,0.462,3.098,1.037,4.641,1.571
	c0.249,0.086,0.478,0.228,0.716,0.343c0,0.068-0.001,0.136-0.001,0.204c-0.219,0.025-0.458,0.122-0.651,0.065
	c-2.987-0.874-5.973-1.755-8.951-2.66c-3.051-0.926-6.097-1.866-9.138-2.826c-2.855-0.902-5.689-1.875-8.553-2.749
	c-3.913-1.194-7.853-2.297-11.765-3.493c-2.025-0.619-4.005-1.382-6.024-2.027c-2.389-0.764-4.806-1.441-7.193-2.211
	c-1.669-0.538-3.297-1.199-4.962-1.75c-3.054-1.01-6.132-1.944-9.177-2.976c-2.26-0.766-4.492-1.619-6.725-2.465
	c-2.919-1.107-5.988-1.541-9.033-2.096c-1.229-0.224-2.422-0.642-3.631-0.972C62,59.369,62.019,59.273,62.039,59.178z"/>
<path fill-rule="evenodd" clip-rule="evenodd" fill="#8dece4" class="fill" d="M100.962,88.941c0.216,0.076,0.601,0.211,1.172,0.412
	c-0.826,0.92-1.502,1.813-2.316,2.555c-3.067,2.793-6.187,5.53-9.274,8.302c-2.304,2.068-4.597,4.148-6.877,6.241
	c-0.693,0.636-1.331,1.331-1.998,2.004c-0.63-0.227-1.126-0.406-1.639-0.59c0.201-0.364,0.375-0.679,0.55-0.994
	C86.817,100.364,94.055,94.978,100.962,88.941z"/>
<path fill-rule="evenodd" clip-rule="evenodd" fill="#8dece4" class="fill" d="M75.684,106.594c-0.196-0.138-0.371-0.261-0.601-0.422
	C80.945,99.446,87,92.952,93.496,86.824c0.712,0.185,1.405,0.364,2.118,0.548C94.909,88.647,77.497,105.434,75.684,106.594z"/>
<path fill-rule="evenodd" clip-rule="evenodd" fill="#8dece4" class="fill" d="M63.687,102.07c-0.543-0.177-0.926-0.303-1.287-0.42
	c5.901-6.837,12.473-12.902,19.11-18.961c0.437,0.136,0.897,0.28,1.463,0.455c-0.182,0.255-0.306,0.483-0.479,0.664
	c-1.771,1.851-3.51,3.731-5.333,5.528c-2.099,2.069-4.284,4.049-6.41,6.089c-1.655,1.588-3.265,3.221-4.921,4.807
	C65.146,100.886,64.394,101.467,63.687,102.07z"/>
<path fill-rule="evenodd" clip-rule="evenodd" fill="#8dece4" class="fill" d="M87.871,109.565c-0.493-0.042-0.943-0.082-1.394-0.122
	c-0.039-0.08-0.078-0.161-0.116-0.242c6.743-6.132,13.486-12.266,20.363-18.521c0.438,0.152,1.066,0.371,1.961,0.682
	C101.669,97.5,94.797,103.509,87.871,109.565z"/>
<path fill-rule="evenodd" clip-rule="evenodd" fill="#8dece4" class="fill" d="M103.539,143.085c-0.044-0.662-0.112-1.322-0.13-1.984
	c-0.094-3.317-0.157-6.634-0.266-9.95c-0.064-1.944-0.202-3.886-0.288-5.829c-0.015-0.333,0.068-0.67,0.111-1.045
	c0.677-0.395,1.341-0.78,2.14-1.245c0.087,1.205,0.212,2.257,0.231,3.312c0.039,2.216,0.038,4.434,0.024,6.65
	c-0.017,2.66-0.163,5.323-0.057,7.977c0.051,1.282-0.863,1.547-1.522,2.145C103.7,143.105,103.62,143.095,103.539,143.085z"/>
<path fill-rule="evenodd" clip-rule="evenodd" fill="#8dece4" class="fill" d="M103.823,89.81c0.368,0.106,0.8,0.23,1.422,0.41
	c-0.504,0.527-0.884,0.95-1.291,1.345c-0.995,0.964-2.002,1.917-3.007,2.873c-0.354,0.335-0.72,0.658-1.072,0.995
	c-0.615,0.588-1.215,1.191-1.836,1.771c-0.424,0.396-0.881,0.755-1.312,1.144c-1.552,1.399-3.088,2.815-4.652,4.201
	c-0.942,0.834-1.95,1.597-2.882,2.443c-1.462,1.325-2.884,2.693-4.398,4.114c-0.432-0.093-0.948-0.203-1.464-0.313
	c-0.043-0.074-0.088-0.147-0.131-0.222C90.056,102.332,96.914,96.094,103.823,89.81z"/>
<path fill-rule="evenodd" clip-rule="evenodd" fill="#8dece4" class="fill" d="M72.928,79.666c0.433,0.142,0.772,0.253,1.346,0.441
	c-6.87,6.12-13.61,12.125-20.362,18.141c-0.47-0.203-0.908-0.392-1.404-0.605C59.019,91.213,66.055,85.521,72.928,79.666z"/>
<path fill-rule="evenodd" clip-rule="evenodd" fill="#8dece4" class="fill" d="M78.327,107.395c-0.151-0.05-0.49-0.163-0.979-0.326
	c6.72-6.475,13.351-12.865,19.958-19.231c0.747,0.215,1.301,0.375,2.127,0.614c-0.908,0.916-1.639,1.752-2.469,2.473
	c-1.806,1.566-3.669,3.064-5.496,4.605c-2.307,1.946-4.617,3.889-6.891,5.872c-0.819,0.713-1.523,1.557-2.311,2.31
	C80.997,104.924,79.703,106.11,78.327,107.395z"/>
<path fill-rule="evenodd" clip-rule="evenodd" fill="#8dece4" class="fill" d="M102.229,143.454c-1.974-0.95-1.83-0.8-1.869-2.489
	c-0.04-1.752-0.119-3.504-0.21-5.255c-0.059-1.139-0.177-2.274-0.251-3.414c-0.014-0.21,0.06-0.426-0.028-0.63
	c-0.13-2.81-0.26-5.62-0.398-8.578c0.735,0.308,1.433,0.601,2.133,0.895C101.813,130.477,102.019,136.895,102.229,143.454z"/>
<path fill-rule="evenodd" clip-rule="evenodd" fill="#8dece4" class="fill" d="M88.821,85.109c0.48,0.203,0.79,0.333,1.275,0.537
	c-0.298,0.395-0.507,0.763-0.8,1.044c-1.53,1.468-3.115,2.88-4.616,4.377c-2.067,2.063-4.087,4.175-6.108,6.285
	c-1.889,1.971-3.736,3.981-5.638,5.939c-0.574,0.59-1.269,1.062-1.945,1.619c-0.317-0.139-0.621-0.272-1.032-0.452
	C75.915,97.578,82.536,91.493,88.821,85.109z"/>
<path fill-rule="evenodd" clip-rule="evenodd" fill="#8dece4" class="fill" d="M63.547,76.748c0.44,0.065,0.89,0.131,1.339,0.198
	c0.03,0.062,0.06,0.124,0.09,0.187c-7.278,5.562-14.557,11.124-21.91,16.744c-0.35-0.15-0.735-0.316-1.217-0.523
	c1.077-0.878,2.062-1.7,3.068-2.497c1.944-1.541,3.896-3.075,5.855-4.597c1.515-1.176,3.032-2.352,4.577-3.489
	c1.724-1.271,3.488-2.487,5.219-3.749C61.556,78.302,62.512,77.541,63.547,76.748z"/>
<path fill-rule="evenodd" clip-rule="evenodd" fill="#8dece4" class="fill" d="M87.568,84.834c-6.313,6.406-12.627,12.812-18.973,19.249
	c-0.4-0.217-0.753-0.407-1.181-0.64c0.211-0.254,0.35-0.447,0.514-0.615c2.31-2.381,4.646-4.737,6.931-7.141
	c2.778-2.924,5.673-5.721,8.734-8.348c0.959-0.823,1.865-1.708,2.839-2.511c0.256-0.211,0.678-0.22,1.024-0.321
	C87.493,84.616,87.53,84.725,87.568,84.834z"/>
<path fill-rule="evenodd" clip-rule="evenodd" fill="#8dece4" class="fill" d="M78.158,81.661c-1.747,1.623-3.423,3.162-5.077,4.723
	c-1.576,1.485-3.136,2.988-4.693,4.494c-2.295,2.221-4.578,4.456-6.877,6.674c-0.718,0.693-1.463,1.357-2.206,2.024
	c-0.232,0.209-0.496,0.382-0.772,0.592c-0.294-0.131-0.555-0.246-0.812-0.36c1.988-1.963,3.961-3.879,5.896-5.833
	c1.659-1.673,3.262-3.402,4.914-5.083c1.497-1.522,2.827-3.196,4.59-4.475c1.114-0.808,1.986-1.956,2.945-2.973
	C76.561,80.92,76.958,80.917,78.158,81.661z"/>
<path fill-rule="evenodd" clip-rule="evenodd" fill="#8dece4" class="fill" d="M112.215,92.764c0.376,0.118,0.942,0.296,1.566,0.492
	c-0.617,0.63-1.138,1.196-1.694,1.724c-0.882,0.839-1.767,1.678-2.689,2.47c-1.479,1.271-3.026,2.463-4.474,3.768
	c-1.065,0.959-1.955,2.115-3.035,3.052c-1.669,1.448-3.438,2.779-5.155,4.171c-0.32,0.26-0.621,0.554-0.89,0.868
	c-0.573,0.672-1.264,0.966-2.198,0.747c3.038-2.937,6.013-5.896,9.081-8.754C105.802,98.437,108.972,95.673,112.215,92.764z"/>
<path fill-rule="evenodd" clip-rule="evenodd" fill="#8dece4" class="fill" d="M91.579,110.067c-0.605-0.096-1.197-0.19-1.787-0.284
	c-0.045-0.086-0.09-0.173-0.135-0.259c6.786-5.858,13.571-11.715,20.366-17.581c0.112,0.034,0.207,0.051,0.29,0.093
	c0.062,0.03,0.108,0.091,0.148,0.127C110.578,92.61,93.622,108.68,91.579,110.067z"/>
<path fill-rule="evenodd" clip-rule="evenodd" fill="#8dece4" class="fill" d="M66.842,77.393c0.064,0.029,0.321,0.144,0.645,0.289
	C60.271,83.5,53.123,89.263,45.977,95.024c-0.482-0.223-0.893-0.413-1.438-0.665c1.086-0.888,2.092-1.715,3.104-2.536
	c1.571-1.274,3.126-2.571,4.726-3.81c1.871-1.449,3.794-2.83,5.674-4.267c1.908-1.459,3.78-2.966,5.692-4.419
	c0.438-0.333,0.994-0.509,1.469-0.8C65.702,78.221,66.168,77.863,66.842,77.393z"/>
<path fill-rule="evenodd" clip-rule="evenodd" fill="#8dece4" class="fill" d="M152.064,87.426c0.055,1.039,0.12,2.078,0.163,3.118
	c0.104,2.536,0.204,5.071,0.295,7.607c0.058,1.606,0.023,3.221,0.166,4.819c0.133,1.484-0.474,2.464-1.9,3.275
	c-0.068-2.974-0.161-5.841-0.194-8.708c-0.033-2.896-0.008-5.792-0.008-9.027c0.259-0.258,0.745-0.743,1.231-1.229
	C151.9,87.33,151.982,87.378,152.064,87.426z"/>
<path fill-rule="evenodd" clip-rule="evenodd" fill="#8dece4" class="fill" d="M97.036,109.798c6.101-5.36,12.201-10.721,18.303-16.082
	c0.389,0.152,0.678,0.266,0.968,0.38c0.081,0.094,0.161,0.189,0.242,0.283c-0.252,0.134-0.543,0.222-0.749,0.406
	c-1.981,1.771-3.967,3.538-5.913,5.347c-1.75,1.626-3.431,3.327-5.185,4.949c-1.675,1.549-3.344,3.119-5.147,4.509
	c-0.587,0.452-1.589,0.366-2.401,0.525C97.114,110.009,97.075,109.903,97.036,109.798z"/>
<path fill-rule="evenodd" clip-rule="evenodd" fill="#8dece4" class="fill" d="M71.784,79.064C64.9,85.107,58.12,91.06,51.34,97.011
	c-0.482-0.148-0.864-0.266-1.474-0.453c7.106-6.101,13.872-12.278,21.322-17.73C71.323,78.881,71.494,78.948,71.784,79.064z"/>
<path fill-rule="evenodd" clip-rule="evenodd" fill="#8dece4" class="fill" d="M117.849,94.672c0.415,0.199,0.806,0.388,1.315,0.633
	c-0.301,0.343-0.535,0.675-0.832,0.937c-1.058,0.933-2.146,1.831-3.205,2.762c-1.667,1.465-3.342,2.922-4.973,4.427
	c-1.91,1.764-3.707,3.659-5.698,5.322c-0.69,0.577-1.816,0.634-2.742,0.929c-0.054-0.106-0.107-0.213-0.161-0.32
	C106.968,104.481,112.382,99.6,117.849,94.672z"/>
<path fill-rule="evenodd" clip-rule="evenodd" fill="#8dece4" class="fill" d="M29.782,91.458c8.793-7.13,18.18-13.351,27.441-20.007
	c0.056,0.501,0.097,0.869,0.148,1.324c-1.123,0.742-2.234,1.48-3.35,2.212c-2.896,1.902-5.832,3.748-8.68,5.721
	c-1.72,1.191-3.286,2.605-4.96,3.866c-1.03,0.775-2.142,1.439-3.202,2.177c-0.458,0.318-0.88,0.689-1.312,1.047
	c-1.351,1.121-2.713,2.23-4.041,3.38C31.208,91.715,30.589,91.915,29.782,91.458z"/>
<path fill-rule="evenodd" clip-rule="evenodd" fill="#8dece4" class="fill" d="M40.469,92.808c-0.332-0.158-0.642-0.298-0.945-0.45
	c-0.146-0.073-0.281-0.166-0.498-0.296c0.286-0.214,0.494-0.435,0.749-0.551c2.254-1.033,4.05-2.69,5.914-4.266
	c1.63-1.378,3.315-2.691,4.989-4.016c1.239-0.98,2.471-1.972,3.757-2.886c1.128-0.802,2.299-1.556,3.508-2.23
	c0.543-0.303,1.224-0.358,1.842-0.526c0.041,0.097,0.083,0.194,0.123,0.291c-0.673,0.577-1.316,1.193-2.025,1.723
	c-2.362,1.766-4.746,3.503-7.124,5.247c-1.396,1.024-2.814,2.019-4.192,3.067c-1.143,0.871-2.237,1.802-3.356,2.703
	C42.32,91.335,41.423,92.046,40.469,92.808z"/>
<path fill-rule="evenodd" clip-rule="evenodd" fill="#8dece4" class="fill" d="M48.682,96.001c-0.381-0.125-0.811-0.265-1.438-0.471
	c0.614-0.487,1.118-0.871,1.604-1.277c1.735-1.448,3.456-2.914,5.197-4.354c1.311-1.083,2.642-2.142,3.97-3.203
	c1.616-1.289,3.238-2.57,4.86-3.852c1.604-1.268,3.193-2.555,4.828-3.782c0.506-0.381,1.001-0.926,1.743-0.815
	c0.053,0.072,0.106,0.144,0.159,0.216C62.645,84.297,55.684,90.132,48.682,96.001z"/>
<path fill-rule="evenodd" clip-rule="evenodd" fill="#8dece4" class="fill" d="M66.058,102.965c-0.339-0.092-0.659-0.18-1.217-0.332
	c6.625-6.415,13.118-12.704,19.68-19.06c0.298,0.093,0.654,0.203,1.062,0.331C79.034,90.297,72.558,96.62,66.058,102.965z"/>
<path fill-rule="evenodd" clip-rule="evenodd" fill="#8dece4" class="fill" d="M59.913,60.174c0.673,0.162,1.129,0.271,1.616,0.388
	c0.062,1.279,0.121,2.47,0.179,3.662c0.123,2.531,0.252,5.062,0.363,7.594c0.052,1.196,0.088,2.394,0.094,3.592
	c0.004,0.867-0.039,0.897-0.822,1.452c-0.231-0.051-0.489-0.106-0.837-0.183c-0.047-0.271-0.135-0.546-0.138-0.823
	c-0.015-1.71,0.044-3.422-0.026-5.129c-0.091-2.225-0.308-4.445-0.416-6.669C59.863,62.829,59.913,61.593,59.913,60.174z"/>
<path fill-rule="evenodd" clip-rule="evenodd" fill="#8dece4" class="fill" d="M79.979,82.274c-1.001,1.06-1.979,2.143-3.007,3.175
	c-1.375,1.38-2.786,2.726-4.189,4.078c-1.528,1.471-3.092,2.906-4.593,4.404c-1.675,1.671-3.289,3.403-4.947,5.09
	c-0.697,0.709-1.44,1.372-2.182,2.075c-0.402-0.158-0.734-0.289-1.131-0.445c1.026-0.994,2.013-1.917,2.964-2.876
	c2.06-2.079,4.09-4.188,6.155-6.262c0.564-0.567,1.229-1.032,1.806-1.587c0.929-0.895,1.703-2.012,2.761-2.699
	c1.575-1.022,2.549-2.602,3.958-3.752c0.45-0.368,0.869-0.777,1.341-1.114c0.262-0.187,0.604-0.263,0.911-0.388
	C79.878,82.074,79.929,82.174,79.979,82.274z"/>
<path fill-rule="evenodd" clip-rule="evenodd" fill="#8dece4" class="fill" d="M73.546,105.849c-0.375-0.148-0.683-0.271-1.069-0.424
	c0.262-0.307,0.454-0.547,0.661-0.772c1.118-1.219,2.229-2.444,3.363-3.648c0.719-0.762,1.493-1.473,2.208-2.239
	c2.196-2.351,4.37-4.723,6.569-7.071c0.363-0.388,0.813-0.692,1.218-1.042c1.684-1.46,3.364-2.923,5.046-4.385
	c-0.03-0.059-0.059-0.117-0.089-0.176c0.198,0.034,0.396,0.069,0.674,0.117C85.901,92.791,79.745,99.298,73.546,105.849z"/>
<path fill-rule="evenodd" clip-rule="evenodd" fill="#8dece4" class="fill" d="M74.144,82.077c-1.264,1.172-2.441,2.238-3.586,3.338
	c-0.416,0.399-0.728,0.905-1.134,1.315c-1.712,1.734-3.441,3.454-5.167,5.176c-1.741,1.737-3.463,3.495-5.239,5.197
	c-0.822,0.788-1.753,1.463-2.634,2.188c-0.381-0.193-0.679-0.344-0.976-0.494C56.013,97.495,73.057,82.19,74.144,82.077z"/>
<path fill-rule="evenodd" clip-rule="evenodd" fill="#8dece4" class="fill" d="M174.084,138.005c0.742-1.406,1.77-2.185,3.416-2.239
	c2.251-0.073,4.223,0.858,6.301,1.438c1.187,0.331,1.864,0.997,2.025,2.2c0.03,0.229,0.004,0.465,0.004,0.827
	c-0.631,0-1.208,0-1.837,0c-0.245-1.388-1.226-1.68-2.366-1.831c-0.938-0.124-1.874-0.322-2.789-0.567
	c-0.85-0.228-1.582-0.047-2.297,0.394C175.69,138.75,174.974,138.691,174.084,138.005z"/>
<path fill-rule="evenodd" clip-rule="evenodd" fill="#8dece4" class="fill" d="M22.918,88.413c11.36-7.717,22.72-15.434,34.153-23.2
	c0.034,0.263,0.063,0.49,0.11,0.856c-0.753,0.462-1.531,0.906-2.275,1.4c-2.237,1.484-4.449,3.005-6.693,4.479
	c-2.713,1.781-5.47,3.496-8.168,5.301c-1.922,1.286-3.779,2.672-5.664,4.016c-1.329,0.946-2.663,1.885-3.98,2.846
	c-1.945,1.419-3.861,2.878-5.829,4.265c-0.404,0.284-0.979,0.325-1.475,0.479C23.038,88.707,22.978,88.56,22.918,88.413z"/>
<path fill-rule="evenodd" clip-rule="evenodd" fill="#8dece4" class="fill" d="M106.595,108.523c4.746-4.321,9.377-8.537,14.014-12.759
	c0.392,0.155,0.675,0.267,1.001,0.395c-0.119,0.185-0.177,0.323-0.274,0.421c-1.621,1.625-3.194,3.302-4.883,4.852
	c-2.062,1.892-4.301,3.595-6.306,5.544C109.155,107.942,108.181,108.565,106.595,108.523z"/>
<path fill-rule="evenodd" clip-rule="evenodd" fill="#8dece4" class="fill" d="M181.443,161.511c0.41-2.506,0.809-4.948,1.229-7.512
	c0.748-0.051,1.421-0.096,2.185-0.148c-0.251,1.508-0.464,2.823-0.694,4.135c-0.101,0.577-0.226,1.15-0.359,1.719
	C183.5,161,182.912,161.461,181.443,161.511z"/>
<path fill-rule="evenodd" clip-rule="evenodd" fill="#8dece4" class="fill" d="M123.263,96.689c0.29,0.086,0.77,0.229,1.401,0.417
	c-1.145,0.963-2.195,1.819-3.213,2.712c-0.84,0.737-1.632,1.531-2.465,2.278c-1.505,1.352-3.035,2.676-4.533,4.034
	c-0.727,0.659-1.54,1.068-2.524,1.157C115.673,103.786,119.398,100.303,123.263,96.689z"/>
<path fill-rule="evenodd" clip-rule="evenodd" fill="#8dece4" class="fill" d="M126.148,97.586c0.357,0.126,0.81,0.286,1.498,0.528
	c-0.991,0.854-1.851,1.608-2.727,2.344c-1.362,1.143-2.665,2.374-4.126,3.375c-1.115,0.764-2.436,1.228-3.665,1.825
	c-0.033-0.066-0.066-0.132-0.1-0.198C120.044,102.856,123.059,100.254,126.148,97.586z"/>
<path fill-rule="evenodd" clip-rule="evenodd" fill="#8dece4" class="fill" d="M179.755,160.541c-0.077,0.383-0.151,0.75-0.247,1.224
	c-1.483-0.347-2.91-0.635-4.306-1.029c-0.649-0.184-0.952-1.373-0.695-2.273c0.134-0.467,0.88-0.815,1.61-0.731
	c0.237,0.027,0.469,0.104,0.699,0.158c-0.149,1.485,0.613,2.138,1.98,2.295C179.098,160.219,179.383,160.398,179.755,160.541z"/>
<path fill-rule="evenodd" clip-rule="evenodd" fill="#8dece4" class="fill" d="M153.466,130.909c-0.304-0.399-0.608-0.797-0.942-1.234
	c1.02-0.771,0.448-1.898,0.636-2.859c0.131-0.671,0.025-1.389,0.025-2.086c0.08-0.034,0.16-0.068,0.239-0.101
	c0.25,0.264,0.5,0.528,0.681,0.72c-0.133,1.847-0.258,3.585-0.383,5.324C153.637,130.751,153.552,130.829,153.466,130.909z"/>
<path fill-rule="evenodd" clip-rule="evenodd" fill="#8dece4" class="fill" d="M153.411,144.39c-0.424-0.099-0.702-0.163-0.826-0.192
	c0-1.507,0-2.954,0-4.47c0.451,0.024,0.707,0.038,1.045,0.056C153.557,141.319,153.487,142.793,153.411,144.39z"/>
<path fill-rule="evenodd" clip-rule="evenodd" fill="#8dece4" class="fill" d="M154.748,139.948c0.376,0.059,0.579,0.091,0.917,0.144
	c-0.083,1.573-0.164,3.111-0.25,4.739c-0.278-0.082-0.497-0.147-0.667-0.197C154.748,143.074,154.748,141.578,154.748,139.948z"/>
<path fill-rule="evenodd" clip-rule="evenodd" fill="#8dece4" class="fill" d="M101.854,121.02c0.887,0.368,1.597,0.663,2.511,1.042
	c-0.721,0.417-1.272,0.738-1.824,1.058c-0.571-0.288-1.084-0.548-1.889-0.954C101.111,121.729,101.476,121.38,101.854,121.02z"/>
<path fill-rule="evenodd" clip-rule="evenodd" fill="#8dece4" class="fill" d="M141.425,138.122c0.41,0.062,0.687,0.104,1.021,0.155
	c-0.09,1.391-0.176,2.712-0.266,4.083c-0.269-0.042-0.5-0.076-0.754-0.116C141.425,140.888,141.425,139.565,141.425,138.122z"/>
<path fill-rule="evenodd" clip-rule="evenodd" fill="#8dece4" class="fill" d="M151.757,128.651c-0.613-0.618-0.613-4.391-0.142-5.769
	c0.194,0.167,0.369,0.317,0.527,0.454C152.016,125.071,151.893,126.773,151.757,128.651z"/>
<path fill-rule="evenodd" clip-rule="evenodd" fill="#8dece4" class="fill" d="M143.66,138.557c0.375,0.02,0.586,0.031,0.898,0.047
	c-0.128,1.353-0.251,2.662-0.38,4.021c-0.298-0.026-0.506-0.044-0.762-0.066C143.498,141.229,143.576,139.937,143.66,138.557z"/>
<path fill-rule="evenodd" clip-rule="evenodd" fill="#8dece4" class="fill" d="M165.888,146.182c-0.165-0.186-0.476-0.374-0.473-0.557
	c0.021-1.255,0.108-2.508,0.176-3.824c0.282,0,0.47,0,0.767,0c-0.083,1.446-0.161,2.819-0.239,4.193
	C166.042,146.058,165.965,146.12,165.888,146.182z"/>
<path fill-rule="evenodd" clip-rule="evenodd" fill="#8dece4" class="fill" d="M157.335,145.204c-0.182-0.041-0.365-0.083-0.671-0.154
	c0.073-1.548,0.146-3.088,0.22-4.667c0.2,0,0.378,0,0.683,0C157.49,141.995,157.415,143.556,157.335,145.204z"/>
<path fill-rule="evenodd" clip-rule="evenodd" fill="#8dece4" class="fill" d="M159.55,140.752c-0.196,1.593-0.377,3.062-0.563,4.576
	c-0.234,0-0.441,0-0.562,0c0.129-1.53,0.259-3.062,0.395-4.667C159.05,140.69,159.219,140.711,159.55,140.752z"/>
<path fill-rule="evenodd" clip-rule="evenodd" fill="#8dece4" class="fill" d="M156.349,133.594c-0.038-1.811,0.162-3.605,0.404-5.396
	c0.091-0.02,0.182-0.039,0.272-0.058c0.097,0.233,0.3,0.479,0.273,0.697c-0.188,1.521-0.422,3.035-0.646,4.552
	c-0.012,0.082-0.072,0.156-0.11,0.234C156.477,133.613,156.413,133.604,156.349,133.594z"/>
<path fill-rule="evenodd" clip-rule="evenodd" fill="#8dece4" class="fill" d="M130.231,136.488c0.385,0.034,0.566,0.049,0.886,0.078
	c-0.101,1.233-0.198,2.422-0.295,3.611c-0.088,0.033-0.175,0.066-0.263,0.099c-0.138-0.164-0.393-0.327-0.395-0.491
	C130.154,138.724,130.2,137.662,130.231,136.488z"/>
<path fill-rule="evenodd" clip-rule="evenodd" fill="#8dece4" class="fill" d="M148.857,139.322c0.285-0.038,0.36-0.068,0.424-0.052
	c0.089,0.023,0.168,0.081,0.259,0.127c0,1.396,0,2.771,0,4.209c-0.224-0.036-0.521-0.084-0.683-0.11
	C148.857,142.046,148.857,140.699,148.857,139.322z"/>
<path fill-rule="evenodd" clip-rule="evenodd" fill="#8dece4" class="fill" d="M158.674,129.76c0.094,0.173,0.285,0.357,0.267,0.516
	c-0.187,1.604-0.408,3.205-0.77,4.792c-0.435-1.796,0.144-3.517,0.306-5.267C158.542,129.788,158.608,129.774,158.674,129.76z"/>
<path fill-rule="evenodd" clip-rule="evenodd" fill="#8dece4" class="fill" d="M126.493,135.832c0.285,0.046,0.485,0.078,0.758,0.122
	c-0.095,1.196-0.184,2.331-0.279,3.547c-0.278-0.047-0.47-0.08-0.73-0.124C126.325,138.192,126.405,137.078,126.493,135.832z"/>
<path fill-rule="evenodd" clip-rule="evenodd" fill="#8dece4" class="fill" d="M134.61,140.912c-0.254-0.066-0.409-0.106-0.699-0.182
	c0.07-1.168,0.14-2.338,0.212-3.552c0.292-0.014,0.468-0.022,0.737-0.036C134.775,138.417,134.695,139.63,134.61,140.912z"/>
<path fill-rule="evenodd" clip-rule="evenodd" fill="#8dece4" class="fill" d="M162.595,145.778c-0.205,0-0.343,0-0.654,0
	c0.15-1.542,0.296-3.045,0.443-4.547c0.125,0.006,0.249,0.012,0.373,0.018C162.94,142.731,162.669,144.214,162.595,145.778z"/>
<path fill-rule="evenodd" clip-rule="evenodd" fill="#8dece4" class="fill" d="M20.173,116.143c0.143,2.151,0.285,4.303,0.43,6.484
	c-0.5-0.444-0.986-5.172-0.693-6.454C19.997,116.163,20.084,116.152,20.173,116.143z"/>
<path fill-rule="evenodd" clip-rule="evenodd" fill="#8dece4" class="fill" d="M160.744,141.019c0.642,0.743,0.24,4.215-0.591,4.744
	C160.365,144.062,160.555,142.54,160.744,141.019z"/>
<path fill-rule="evenodd" clip-rule="evenodd" fill="#8dece4" class="fill" d="M151.176,143.804c-0.496-1.443-0.566-2.861-0.352-4.286
	c0.086-0.036,0.171-0.071,0.257-0.107c0.12,0.173,0.346,0.346,0.345,0.518c-0.008,1.119-0.06,2.239-0.112,3.357
	C151.306,143.461,151.224,143.631,151.176,143.804z"/>
<path fill-rule="evenodd" clip-rule="evenodd" fill="#8dece4" class="fill" d="M132.048,140.489c0.06-1.2,0.119-2.399,0.182-3.659
	c0.332,0.061,0.493,0.09,0.736,0.135c-0.259,1.188,0.026,2.449-0.543,3.561C132.298,140.514,132.173,140.501,132.048,140.489z"/>
<path fill-rule="evenodd" clip-rule="evenodd" fill="#8dece4" class="fill" d="M138.376,141.693c-0.277-0.018-0.457-0.029-0.61-0.04
	c0-1.333,0-2.611,0-3.957c0.259,0.028,0.433,0.047,0.61,0.066C138.376,139.072,138.376,140.324,138.376,141.693z"/>
<path fill-rule="evenodd" clip-rule="evenodd" fill="#8dece4" class="fill" d="M160.089,131.548c0.521,0.507,0.124,4.027-0.487,4.887
	C159.364,134.689,159.931,133.218,160.089,131.548z"/>
<path fill-rule="evenodd" clip-rule="evenodd" fill="#8dece4" class="fill" d="M147.018,143.209c0-1.457,0-2.783,0-4.198
	c0.207-0.049,0.389-0.092,0.685-0.163c-0.077,1.511-0.148,2.906-0.222,4.361C147.281,143.209,147.112,143.209,147.018,143.209z"/>
<path fill-rule="evenodd" clip-rule="evenodd" fill="#8dece4" class="fill" d="M149.729,126.729c-0.163-1.765,0.083-3.516,0.419-5.262
	c0,1.748,0,3.495,0,5.242C150.008,126.716,149.867,126.723,149.729,126.729z"/>
<path fill-rule="evenodd" clip-rule="evenodd" fill="#8dece4" class="fill" d="M139.991,137.9c0.088,0.137,0.25,0.272,0.252,0.41
	c0.02,1.236,0.012,2.47,0.012,3.85c-0.384-0.127-0.565-0.187-0.576-0.191c0-1.415,0-2.696,0-3.977
	C139.783,137.962,139.886,137.931,139.991,137.9z"/>
<path fill-rule="evenodd" clip-rule="evenodd" fill="#8dece4" class="fill" d="M18.562,123.569c-0.098-2.348-0.195-4.695-0.292-7.042
	c0.061-0.005,0.122-0.009,0.184-0.014c0.111,1.156,0.268,2.309,0.322,3.468c0.055,1.191,0.012,2.387,0.012,3.581
	C18.713,123.564,18.638,123.567,18.562,123.569z"/>
<path fill-rule="evenodd" clip-rule="evenodd" fill="#8dece4" class="fill" d="M128.296,139.734c0.053-1.167,0.105-2.333,0.161-3.574
	c0.303,0.051,0.476,0.081,0.714,0.121c-0.134,1.209-0.296,2.359-0.437,3.511C128.588,139.773,128.442,139.754,128.296,139.734z"/>
<path fill-rule="evenodd" clip-rule="evenodd" fill="#8dece4" class="fill" d="M136.429,141.398c-0.704-0.672-0.665-3.194,0-4.131
	C136.429,138.694,136.429,139.95,136.429,141.398z"/>
<path fill-rule="evenodd" clip-rule="evenodd" fill="#8dece4" class="fill" d="M161.648,133.04c0.5,0.499,0.48,2.408,0.118,3.625
	c-0.132,0-0.268,0-0.549,0C161.358,135.475,161.493,134.339,161.648,133.04z"/>
<path fill-rule="evenodd" clip-rule="evenodd" fill="#8dece4" class="fill" d="M21.841,116.972c0.13,1.657,0.245,3.117,0.371,4.72
	C21.637,121.072,21.335,117.621,21.841,116.972z"/>
<path fill-rule="evenodd" clip-rule="evenodd" fill="#8dece4" class="fill" d="M148.288,86.954c0.283-0.33,0.514-0.596,0.808-0.939
	c0.523,0.179,1.033,0.353,1.612,0.551C149.943,87.333,149.186,87.237,148.288,86.954z"/>
<path fill-rule="evenodd" clip-rule="evenodd" fill="#8dece4" class="fill" d="M148.11,125.281c0.127-1.713,0.253-3.426,0.38-5.139
	c0.111,0.008,0.223,0.016,0.334,0.023c-0.143,1.711-0.286,3.422-0.429,5.134C148.301,125.293,148.206,125.287,148.11,125.281z"/>
<path fill-rule="evenodd" clip-rule="evenodd" fill="#8dece4" class="fill" d="M167.965,142.039c-0.1,1.393-0.2,2.786-0.3,4.179
	c-0.124-0.009-0.248-0.018-0.373-0.025c0.113-1.391,0.226-2.781,0.338-4.173C167.743,142.026,167.854,142.032,167.965,142.039z"/>
<path fill-rule="evenodd" clip-rule="evenodd" fill="#8dece4" class="fill" d="M155.536,126.754c0.137,1.263-0.216,2.486-0.351,3.715
	c0-1.237,0-2.474,0-3.71C155.303,126.757,155.419,126.756,155.536,126.754z"/>
<path fill-rule="evenodd" clip-rule="evenodd" fill="#8dece4" class="fill" d="M164.523,137.264c0.019-0.411,0.035-0.753,0.05-1.096
	c0.081-0.048,0.162-0.096,0.243-0.144c0.382,0.399,0.764,0.798,1.146,1.197c-0.043,0.075-0.086,0.149-0.129,0.225
	C165.424,137.39,165.016,137.333,164.523,137.264z"/>
<path fill-rule="evenodd" clip-rule="evenodd" fill="#8dece4" class="fill" d="M163.842,145.871c0.084-1.372,0.168-2.745,0.253-4.118
	c0.1,0.007,0.201,0.015,0.302,0.022c-0.114,1.371-0.228,2.742-0.341,4.113C163.985,145.882,163.913,145.876,163.842,145.871z"/>
<path fill-rule="evenodd" clip-rule="evenodd" fill="#8dece4" class="fill" d="M24.863,118.541c0.406,0.291,0.718,0.515,1.115,0.799
	c-0.393,0.192-0.707,0.346-1.115,0.546C24.863,119.428,24.863,119.081,24.863,118.541z"/>
<path fill-rule="evenodd" clip-rule="evenodd" fill="#8dece4" class="fill" d="M23.501,118.069c0,0.546,0,1.092,0,1.638
	c-0.069,0.002-0.138,0.004-0.207,0.006c-0.039-0.549-0.078-1.098-0.116-1.646C23.286,118.068,23.394,118.068,23.501,118.069z"/>
<path fill-rule="evenodd" clip-rule="evenodd" fill="#8dece4" class="fill" d="M169.029,144.476c0.059-0.675,0.117-1.351,0.175-2.026
	c0.087,0.007,0.174,0.014,0.26,0.02c-0.067,0.667-0.136,1.333-0.203,2C169.184,144.472,169.106,144.474,169.029,144.476z"/>
<path fill-rule="evenodd" clip-rule="evenodd" fill="#8dece4" class="fill" d="M47.419,136.519c0.777,0.574,1.553,1.148,2.401,1.775
	c-0.465,0.121-0.812,0.21-1.123,0.291c-0.123,0.574-0.139,1.062,0.411,1.188c0.541,0.124,1.077-0.007,1.376-0.792
	c0.214,0.371,0.394,0.613,0.506,0.883c0.715,1.735,0.66,3.517,0.378,5.334c-0.278,1.79-0.943,3.415-1.898,4.93
	c-0.156,0.248-0.464,0.525-0.73,0.559c-0.953,0.121-1.919,0.143-2.88,0.202c-0.016-0.068-0.031-0.137-0.047-0.206
	c0.181-0.133,0.362-0.268,0.668-0.493c-0.167-0.224-0.291-0.537-0.515-0.646c-0.188-0.091-0.591-0.032-0.721,0.116
	c-0.184,0.21-0.206,0.563-0.319,0.929c-1.019-0.104-2.082-0.402-2.832-1.407c0.423-0.202,0.826-0.393,1.229-0.585
	c-0.015-0.05-0.03-0.099-0.044-0.149c0.214,0.032,0.427,0.079,0.642,0.093c2.817,0.188,3.89-1.333,4.457-3.713
	c0.261-1.094,0.146-2.346-0.085-3.467c-0.172-0.833-0.635-1.807-1.286-2.277c-0.555-0.399-1.578-0.282-2.366-0.179
	c-0.555,0.073-1.062,0.505-1.716,0.842c-0.025-0.022-0.178-0.154-0.352-0.303c0.134-0.25,0.248-0.461,0.359-0.668
	c0.302-0.142,0.586-0.275,0.875-0.41c0.092-0.247,0.175-0.473,0.276-0.745c0.709-0.289,1.133-1.336,2.188-0.883
	c-0.024,1.203,0.045,1.315,0.869,1.384c0.145-0.167,0.303-0.347,0.527-0.604c-0.111-0.265-0.232-0.554-0.354-0.844
	C47.349,136.623,47.384,136.571,47.419,136.519z M48.467,149.846c0.331-0.529,0.582-0.931,0.842-1.347
	c-1.039-0.531-1.358-0.389-1.715,0.65C47.819,149.329,48.07,149.53,48.467,149.846z M50.941,142.545
	c-0.1-0.513-0.407-0.852-0.907-0.676c-0.262,0.092-0.499,0.484-0.575,0.785c-0.039,0.151,0.269,0.518,0.481,0.582
	C50.494,143.401,50.787,143.046,50.941,142.545z M48.858,146.25c0.394,0.539,0.573,0.572,1.637,0.2
	c-0.191-0.335-0.301-0.815-0.552-0.907C49.388,145.341,48.976,145.643,48.858,146.25z"/>
<path fill-rule="evenodd" clip-rule="evenodd" fill="#8dece4" class="fill" d="M42.567,145.308c0.194-1.736,0.462-3.46,1.637-4.882
	c0.646-0.783,1.834-0.761,2.364,0.11c0.923,1.521,0.922,3.161,0.349,4.788c-0.209,0.595-0.557,1.22-1.021,1.627
	c-0.721,0.633-1.625,0.559-2.48,0.158C42.647,146.747,42.541,146.068,42.567,145.308z M46.036,142.915
	c-0.519-0.253-1.101-0.537-1.61-0.786c-1.025,0.138-0.94,0.948-1.036,1.539c-0.127,0.783,0.41,1.415,1.304,1.775
	C46.077,145.112,46.431,144.487,46.036,142.915z"/>
<path fill-rule="evenodd" clip-rule="evenodd" fill="#8dece4" class="fill" d="M42.34,140.897c-0.479,0.963-0.579,2.092-1.323,2.951
	c-0.364-1.102,0.134-2.003,0.61-2.896c0.083-0.154,0.36-0.205,0.548-0.305C42.229,140.73,42.284,140.814,42.34,140.897z"/>
<path fill-rule="evenodd" clip-rule="evenodd" fill="#8dece4" class="fill" d="M41.95,147.979c-0.055,0.032-0.21,0.124-0.32,0.189
	c-0.546-0.145-0.991-2.212-0.621-3.258C41.308,145.884,41.607,146.859,41.95,147.979z"/>
</svg>
