<svg version="1.1" id="svg" xmlns="http://www.w3.org/2000/svg" xmlns:xlink="http://www.w3.org/1999/xlink" x="0px" y="0px"
	 width="200px" height="200px" viewBox="0 0 200 200" enable-background="new 0 0 200 200" xml:space="preserve">
<path class="stroke" fill="#064146"  d="M180.143,71.889c-4.156-0.904-8.208-0.326-12.06,1.294c-3.562,1.498-6.566,3.946-9.423,6.495
	c-1.254,1.118-2.236,2.581-3.179,3.994c-1.134,1.704-2.036,3.559-3.143,5.281c-1.647,2.562-3.445,4.992-6.882,5.504
	c-0.976-0.431-2.011-0.887-3.061-1.35c0.345-0.597,0.599-1.039,0.92-1.595c-0.867-0.502-1.616-0.936-2.317-1.342
	c-0.715,0.431-1.288,0.78-1.984,1.201c-0.691-0.361-1.384-0.724-2.138-1.119c0.41-0.681,0.708-1.173,1.114-1.848
	c-0.988-0.544-1.865-1.027-2.82-1.552c-0.689,0.447-1.362,0.883-2.07,1.342c-0.449-0.232-0.86-0.444-1.416-0.731
	c0.35-0.66,0.596-1.122,0.896-1.687c-0.969-0.791-1.835-1.499-2.639-2.156c-0.914,0.65-1.68,1.196-2.455,1.748
	c-0.654-0.314-1.196-0.574-1.771-0.85c0.296-0.613,0.541-1.123,0.829-1.719c-1.043-0.701-1.991-1.338-2.983-2.006
	c-0.729,0.601-1.397,1.151-2.117,1.743c-0.743-0.351-1.381-0.651-2.03-0.958c0.392-0.729,0.67-1.25,1.062-1.98
	c-0.902-0.484-1.697-0.91-2.515-1.349c-0.908,0.813-1.655,1.482-2.443,2.187c-0.675-0.32-1.28-0.608-1.85-0.878
	c-0.027-0.632-0.051-1.16-0.07-1.566c-1.339-1.597-3.667-2.022-4.175-4.456c0.268-1.684,0.829-3.404,2.266-4.742
	c0.951-0.886,1.872-1.805,2.797-2.719c0.607-0.6,1.198-1.216,1.731-1.761c-0.646-1.391-1.557-1.131-2.423-0.934
	c-2.148,0.491-4.136,1.357-6.077,2.42c-3.615,1.98-6.829,4.31-8.437,8.306c-0.042,0.104-0.212,0.157-0.479,0.344
	c-0.46-0.107-1.052-0.231-1.636-0.383c-1.522-0.396-3.027-1.063-4.567-1.149c-2.835-0.158-5.251-1.476-7.821-2.37
	c-1.936-0.674-3.881-1.341-5.759-2.157c-4.14-1.798-8.234-3.7-12.361-5.53c-0.628-0.278-1.325-0.399-2.035-0.606
	c-2.462,5.274-3.349,10.626-3.759,16.07c-5.513,1.215-10.531,3.248-15.438,5.502c-3.035,1.395-5.845,3.278-8.757,4.94
	c-3.327,1.9-6.62,3.834-9.454,6.47c-1.815,1.687-3.679,3.322-4.692,5.64c-0.457,1.045-1.113,2.273-0.927,3.279
	c0.5,2.693,1.336,5.421,3.859,6.984c3.077,1.906,6.193,3.799,9.454,5.356c4.118,1.968,8.302,3.763,12.853,4.715
	c6.568,1.374,13.112,2.718,19.848,2.867c1.971,0.044,3.938,0.202,5.698,0.296c1.794,3.042,3.399,5.83,5.073,8.575
	c0.851,1.392,1.792,2.744,3.366,3.383c2.228-1.401,4.744-6.587,4.549-9.208c-0.549-1.093-2.099-1.357-2.216-2.672
	c7.514-1.107,14.935-2.202,21.912-3.23c2.836,1.974,5.33,3.759,7.878,5.46c1.019,0.68,2.193,1.124,3.239,1.769
	c2.797,1.726,5.847,2.603,9.096,2.891c0.88,0.078,1.427-0.183,1.557-1.347c-4.881-0.688-8.358-3.445-10.921-6.658
	c-0.245-2.521,2.594-3.559,1.206-5.823c0.5-0.151,0.872-0.264,1.003-0.303c1.475,0.427,2.035,2.087,3.769,1.701
	c0.322-0.367,0.718-0.819,1.16-1.324c-0.327-0.571-0.617-1.082-0.989-1.732c0.605-0.218,1.087-0.39,1.977-0.71
	c0.668,0.945,1.373,1.941,1.973,2.789c1.72-0.264,2.761-0.9,3.535-1.998c-0.392-0.703-0.717-1.287-1.096-1.97
	c0.479-0.24,0.88-0.441,1.322-0.663c0.674,0.797,1.28,1.517,1.839,2.178c2.084-0.067,2.084-0.067,3.105-1.472
	c-0.392-0.638-0.777-1.27-1.259-2.055c0.62-0.209,1.091-0.368,1.598-0.54c0.513,0.692,0.95,1.286,1.38,1.868
	c1.48,0.155,2.535-0.372,3.37-1.415c-0.467-0.736-0.848-1.336-1.335-2.105c0.88-0.253,1.508-0.434,2.146-0.618
	c0.424,0.641,0.755,1.143,1.246,1.888c0.911-0.241,1.835-0.486,2.796-0.739c-0.288-0.884-0.48-1.475-0.84-2.58
	c1.032,0.43,1.659,0.592,2.177,0.924c1.65,1.063,2.884,2.555,3.754,4.28c1.232,2.44,2.366,4.934,3.454,7.442
	c1.605,3.701,3.166,7.396,6.028,10.39c2.784,2.909,6.02,4.708,10.113,4.64c0.833-0.014,1.796-0.052,2.309-0.908
	c-0.039-0.221-0.022-0.382-0.094-0.481c-0.315-0.445-0.628-0.897-0.992-1.301c-2.652-2.946-4.607-6.282-5.71-10.104
	c-0.17-0.592-0.364-1.183-0.623-1.74c-1.032-2.227-1.199-4.606-1.394-7.007c-0.291-3.609-0.384-7.263-1.81-10.688
	c-0.26-0.622-0.393-1.296-0.52-1.73c0.883-1.947,1.638-3.708,2.471-5.431c2.528-5.224,4.518-10.747,8.494-15.169
	c2.578-2.868,5.183-5.672,8.998-6.927c0.297-0.098,0.542-0.35,0.813-0.531C181.943,72.149,180.964,72.068,180.143,71.889z"/>
<path fill-rule="evenodd" clip-rule="evenodd" fill="#8dece4" class="fill" d="M98.765,79.584c-0.117,6.739-0.238,13.42-0.336,20.102
	c-0.003,0.232,0.224,0.467,0.404,0.819c0.415-0.146,0.773-0.272,1.179-0.414c0.804-6.753-0.144-13.561,0.839-20.223
	c0.843-0.35,1.255-0.065,1.312,0.591c0.089,1.021,0.109,2.054,0.084,3.08c-0.112,4.654-0.266,9.309-0.363,13.964
	c-0.017,0.708,0.18,1.418,0.322,2.445c0.796-0.407,1.29-0.661,1.811-0.927c0-3.225,0-6.291,0-9.357c0-3.071,0-6.141,0-9.377
	c0.746,0.127,1.188,0.202,1.771,0.301c0.295,6.647-0.782,13.259,0.03,20.078c0.644-0.178,1.113-0.307,1.64-0.452
	c0.06-6.433-0.277-12.72,0.386-19.113c0.503,0.104,0.815,0.168,1.328,0.276c0.571,5.908,0.303,11.84,0.396,17.972
	c0.717-0.15,1.204-0.251,1.838-0.384c0.143-5.663-0.521-11.222-0.031-16.793c1.311,0.18,1.304,0.945,1.34,1.604
	c0.085,1.573,0.169,3.151,0.14,4.726c-0.06,3.28-0.224,6.558-0.269,9.838c-0.01,0.613,0.332,1.231,0.663,2.361
	c0.635-0.741,1.128-1.059,1.198-1.453c0.159-0.863,0.123-1.764,0.134-2.65c0.054-4.437,0.099-8.873,0.148-13.51
	c0.57,0.12,0.929,0.195,1.386,0.291c0.762,5.295-0.259,10.627,0.458,16.099c0.705-0.205,1.188-0.343,1.794-0.519
	c-0.285-4.941-0.319-9.764-0.027-14.641c1.395-0.081,1.793,0.681,1.809,1.631c0.035,2.396-0.028,4.794-0.041,7.19
	c-0.01,1.896-0.002,3.792-0.002,5.776c0.768,0,1.215,0,1.739,0c0-2.25-0.033-4.397,0.009-6.543c0.042-2.116,0.16-4.23,0.252-6.492
	c0.501,0.085,0.859,0.146,1.375,0.232c0,4.423,0,8.761,0,13.276c0.685-0.051,1.184-0.088,1.937-0.144c0-3.993,0-7.858,0-11.679
	c1.156-0.363,1.57,0.157,1.646,0.899c0.097,0.948,0.063,1.915,0.027,2.871c-0.089,2.46-0.211,4.918-0.331,7.62
	c0.711,0,1.282,0,1.982,0c0.067-3.441-0.222-6.651,0.425-9.879c1.195,0.044,1.257,0.774,1.24,1.549
	c-0.05,2.256-0.122,4.513-0.155,6.769c-0.009,0.737,0.071,1.474,0.118,2.384c0.664-0.033,1.155-0.058,1.847-0.092
	c-0.125-2.986-0.245-5.816,0.135-8.899c0.637,0.367,1.011,0.583,1.31,0.756c0.224,3.06-0.701,6.04,0.402,9.423
	c2.251-2.57,0.732-5.335,1.561-7.802c1.204-0.086,1.25,0.812,1.259,1.69c0.02,1.774,0.006,3.549,0.006,5.64
	c0.505,0.029,1.075,0.063,1.815,0.107c0-1.908,0-3.538,0-5.215c1.223-0.092,1.625,0.485,1.622,1.449
	c-0.003,0.89-0.068,1.779-0.069,2.668c0,0.577,0.066,1.155,0.113,1.914c0.669-0.144,1.089-0.233,1.52-0.325
	c0.105-1.303,0.199-2.48,0.327-4.064c1.132,1.229,0.745,2.264,0.76,3.22c0.021,1.415,0.125,1.512,1.875,1.477
	c0.05-0.974,0.1-1.964,0.162-3.177c0.56,0.033,1.116,0.066,1.521,0.089c1.085,1.425-0.386,3.479,1.477,4.559
	c1.318-1.122,0.499-2.717,1.115-4.007c1.054,1.049-0.46,3.099,1.918,3.475c0.235-0.955,0.461-1.875,0.688-2.796
	c0.113,0.007,0.227,0.014,0.34,0.021c0.113,1.122,0.228,2.243,0.36,3.548c-0.981,0.201-2.089,0.429-3.196,0.655
	c-6.478,1.323-12.484,4.02-18.64,6.301c-3.779,1.401-7.628,2.646-11.502,3.754c-9.145,2.617-18.325,5.073-27.77,6.45
	c-6.476,0.944-12.96,1.103-19.474,0.992c-5.644-0.097-11.197-0.929-16.66-2.256c-4.117-1-8.223-2.131-12.22-3.521
	c-5.574-1.94-10.858-4.552-15.761-7.872c-0.564-0.382-0.948-1.03-1.683-1.854c2.568-0.58,4.618-0.362,6.533,0.612
	c1.642,0.834,3.203,1.836,4.757,2.83c0.799,0.511,1.477,0.703,2.223-0.236c0-0.511,0-1.112,0-1.992
	c-3.842-3.251-8.477-4.393-13.651-4.537c2.251-2.959,4.977-5.302,8.27-7.301c0.132,0.829,0.222,1.406,0.332,2.101
	c0.456,0.093,0.883,0.181,1.536,0.313c0.146-1.419,0.278-2.693,0.429-4.164c0.389-0.224,0.877-0.505,1.459-0.841
	c0.638,1.56-0.559,3.218,0.704,4.443c0.146,0.143,0.496,0.074,0.895,0.118c0.159-1.771,0.27-3.459,0.476-5.134
	c0.149-1.215,0.205-1.208,1.701-1.675c0.104,1.327-0.068,2.502-0.717,3.713c-0.89,1.659-0.855,3.531,0.182,5.083
	c1.465,2.191,5.193,2.164,6.838,0.091c0.379-0.479,0.653-1.038,1.012-1.617c0.599,0,1.228,0,2.066,0c0-4.146,0-8.167,0-12.234
	c0.55-0.241,0.942-0.414,1.539-0.674c0.69,4.569-0.852,8.958-0.112,13.447c0.623-0.101,1.004-0.163,1.56-0.253
	c0.203-4.724,0.405-9.419,0.61-14.229c0.572-0.248,1.107-0.481,1.729-0.751c0.17,0.377,0.368,0.611,0.372,0.846
	c0.036,2.869,0.076,5.739,0.046,8.608c-0.016,1.436-0.204,2.868-0.251,4.305c-0.021,0.585,0.125,1.175,0.199,1.799
	c1.472,0.279,1.671-0.494,1.691-1.48c0.06-2.947,0.144-5.893,0.188-8.839c0.029-1.98,0.006-3.96,0.006-6.083
	c0.622-0.261,1.217-0.511,2.134-0.898c0.109,1.038,0.292,1.809,0.254,2.569c-0.214,4.373-0.486,8.743-0.726,13.113
	c-0.035,0.658-0.004,1.32-0.004,2.173c0.705-0.052,1.191-0.087,1.748-0.127c0.285-6.157,0.563-12.154,0.843-18.171
	c0.712-0.175,1.152-0.284,1.613-0.396c0.125,0.254,0.291,0.432,0.286,0.604c-0.077,2.256-0.191,4.509-0.266,6.766
	c-0.129,3.889-0.236,7.779-0.354,11.695c0.999,0.615,1.798,1.107,2.596,1.599c0.082-0.053,0.165-0.106,0.248-0.16
	c0.926,1.963,1.854,3.927,2.866,6.072c8.898-0.392,16.875-3.508,24.44-8.179c0.524,0.448,0.671,1.648,2.054,0.965
	c0.917-6.731,0.659-13.697,0.853-20.678c0.589,0,0.929-0.035,1.258,0.011C98.245,79.345,98.486,79.481,98.765,79.584z
	 M59.92,100.277c-0.811,0.914-0.803,1.917-0.699,2.947c0.282,2.803-0.215,5.456-1.594,7.921c-0.859,1.539-1.758,3.054-2.67,4.632
	c0.957,0.842,1.855,0.583,2.768-0.075c4.089-2.944,5.248-7.625,4.616-12.21C62.151,102.116,61.246,101.038,59.92,100.277z
	 M52.359,99.578c0,0.799-0.06,1.343,0.01,1.871c0.275,2.071-0.267,4.009-1.366,5.668c-1.156,1.745-2.646,3.27-4.021,4.867
	c-0.414,0.481-0.924,0.881-1.48,1.404c1.159,0.874,2.062,0.484,2.927,0.115c2.923-1.248,4.842-3.567,6.116-6.334
	c1.166-2.53,1.094-5.153-0.503-7.59C53.479,99.578,53.024,99.578,52.359,99.578z"/>
<path fill-rule="evenodd" clip-rule="evenodd" fill="#8dece4" class="fill" d="M66.377,79.998c0.887-0.174,1.715-0.337,2.838-0.559
	c0,1.137,0.082,2.014-0.015,2.871c-0.464,4.195-0.979,8.385-1.468,12.577c-0.079,0.674-0.111,1.354-0.186,2.03
	c-0.099,0.891-0.453,1.547-1.731,1.6C65.537,92.336,65.914,86.249,66.377,79.998z"/>
<path fill-rule="evenodd" clip-rule="evenodd" fill="#8dece4" class="fill" d="M88.402,78.684c0.945-0.044,1.527-0.071,2.437-0.114
	c-0.114,5.857-0.226,11.546-0.342,17.504c-0.954-0.149-1.583-0.247-2.095-0.328C88.402,90.021,88.402,84.494,88.402,78.684z"/>
<path fill-rule="evenodd" clip-rule="evenodd" fill="#8dece4" class="fill" d="M94.911,78.954c-0.163,5.92-0.32,11.634-0.481,17.473
	c-0.647,0-1.081,0-1.705,0c-0.635-5.797-0.146-11.558-0.04-17.473C93.421,78.954,94.085,78.954,94.911,78.954z"/>
<path fill-rule="evenodd" clip-rule="evenodd" fill="#8dece4" class="fill" d="M85.9,95.646c-0.351,0-0.725,0-1.33,0
	c-0.313-5.716-0.042-11.353-0.124-16.86c0.32-0.201,0.431-0.327,0.548-0.333c0.402-0.025,0.808-0.009,1.164-0.009
	C86.793,80.096,86.585,92.729,85.9,95.646z"/>
<path fill-rule="evenodd" clip-rule="evenodd" fill="#8dece4" class="fill" d="M71.322,97.227c-0.687,0.086-1.077,0.135-1.415,0.178
	c-0.638-0.695,0.404-13.011,1.507-18.514c0.304-0.032,0.631-0.067,0.996-0.105c0.103,0.232,0.253,0.407,0.246,0.575
	c-0.126,3.061-0.203,6.126-0.43,9.182C72.016,91.386,71.643,94.219,71.322,97.227z"/>
<path fill-rule="evenodd" clip-rule="evenodd" fill="#8dece4" class="fill" d="M82.316,95.726c-0.525,0.119-0.971,0.22-1.699,0.386
	c0.16-5.932,0.315-11.691,0.475-17.569c0.511,0,0.876,0,1.23,0C82.892,80.455,82.896,91.153,82.316,95.726z"/>
<path fill-rule="evenodd" clip-rule="evenodd" fill="#8dece4" class="fill" d="M78.775,78.276c0.585,3.094,0.403,12.061-0.305,17.987
	c-0.248,0.056-0.543,0.122-1.098,0.248c-0.057-1.073-0.166-2.003-0.145-2.931c0.104-4.36,0.235-8.72,0.38-13.08
	c0.018-0.54,0.096-1.096,0.268-1.604C77.949,78.679,78.335,78.567,78.775,78.276z"/>
<path fill-rule="evenodd" clip-rule="evenodd" fill="#8dece4" class="fill" d="M75.174,96.572c-0.631,0-1.085,0-1.785,0
	c0.085-1.103,0.169-2.097,0.237-3.092c0.298-4.365,0.584-8.73,0.896-13.095c0.046-0.667-0.225-1.573,1.205-1.728
	c0.16,3.04,0.024,5.98-0.211,8.94C75.282,90.514,75.282,93.449,75.174,96.572z"/>
<path fill-rule="evenodd" clip-rule="evenodd" fill="#8dece4" class="fill" d="M66.047,77.08c-0.299,0.114-0.656,0.25-0.915,0.348
	c-1.388-0.753-0.188-8.583,1.601-10.839c0.177,0.407,0.456,0.741,0.435,1.054c-0.133,1.975-0.301,3.948-0.522,5.914
	C66.515,74.703,66.262,75.836,66.047,77.08z"/>
<path fill-rule="evenodd" clip-rule="evenodd" fill="#8dece4" class="fill" d="M42.251,99.004c-1.081-2.7-0.83-3.92,1.133-5.63
	c0.706,0.144,1.484,0.302,2.167,0.44c2.05,2.501,1.462,4.839-1.55,6.031C43.445,99.58,42.789,99.263,42.251,99.004z M45.308,95.584
	c-1.046-0.989-1.899-0.597-2.674,0.356c0.176,1.628,0.648,2.23,1.582,2.062C45.163,97.831,45.486,97.128,45.308,95.584z"/>
<path fill-rule="evenodd" clip-rule="evenodd" fill="#8dece4" class="fill" d="M69.293,76.375c-0.439,0.108-0.805,0.198-1.504,0.37
	c0.439-2.992,0.845-5.76,1.258-8.562c0.434,0.034,0.646-0.001,0.808,0.075c0.236,0.112,0.436,0.303,0.837,0.596
	c-0.171,1.197-0.312,2.463-0.542,3.715C69.929,73.768,69.618,74.95,69.293,76.375z"/>
<path fill-rule="evenodd" clip-rule="evenodd" fill="#8dece4" class="fill" d="M163.805,87.892c-0.454,0.747-0.686,1.131-0.982,1.621
	c-2.222-0.139-4.416-0.277-6.931-0.434c0.515-0.775,0.832-1.253,1.251-1.885C159.26,87.416,161.33,87.633,163.805,87.892z"/>
<path fill-rule="evenodd" clip-rule="evenodd" fill="#8dece4" class="fill" d="M165.924,83.772c-1.996-0.153-3.848-0.294-6.061-0.464
	c0.616-0.847,0.992-1.364,1.459-2.005c1.821,0.239,3.598,0.472,5.739,0.753C166.551,82.827,166.251,83.281,165.924,83.772z"/>
<path fill-rule="evenodd" clip-rule="evenodd" fill="#8dece4" class="fill" d="M46.871,92.153c0.561-1.792-0.554-3.997,1.577-5.709
	c1.002,2.708,0.139,5.144-0.1,7.753C47.914,93.593,47.477,92.99,46.871,92.153z"/>
<path fill-rule="evenodd" clip-rule="evenodd" fill="#8dece4" class="fill" d="M72.899,75.91c-0.635,0-1.077,0-1.786,0
	c0.432-2.158,0.835-4.179,1.272-6.368c0.615,0.132,1.089,0.234,1.714,0.368C73.695,71.934,73.315,73.832,72.899,75.91z"/>
<path fill-rule="evenodd" clip-rule="evenodd" fill="#8dece4" class="fill" d="M152.949,110.261c-0.356-0.554-0.561-0.869-0.91-1.411
	c2.588-0.629,4.991-1.214,7.373-1.793c0.655,0.995,0.15,1.41-0.58,1.619C156.938,109.217,155.029,109.705,152.949,110.261z"/>
<path fill-rule="evenodd" clip-rule="evenodd" fill="#8dece4" class="fill" d="M154.129,113.094c-0.203-0.564-0.31-0.861-0.495-1.376
	c2.016-0.467,3.896-0.901,5.985-1.385c0.064,0.719,0.114,1.278,0.181,2.024C157.858,112.609,156.075,112.841,154.129,113.094z"/>
<path fill-rule="evenodd" clip-rule="evenodd" fill="#8dece4" class="fill" d="M160.491,94.645c-0.24,0.185-0.463,0.491-0.728,0.534
	c-0.935,0.152-6.469-0.671-7.597-1.213c3.051-0.625,5.642-0.479,8.222,0.137C160.423,94.283,160.457,94.464,160.491,94.645z"/>
<path fill-rule="evenodd" clip-rule="evenodd" fill="#8dece4" class="fill" d="M162.067,91.247c-0.448,0.552-0.602,0.906-0.754,0.906
	c-2.277-0.008-4.554-0.062-6.85-0.105c0.058-1.385,0.887-1.474,1.729-1.404C158.011,90.795,159.822,91.011,162.067,91.247z"/>
<path fill-rule="evenodd" clip-rule="evenodd" fill="#8dece4" class="fill" d="M150.229,107.294c0.524-0.462,0.645-0.657,0.804-0.697
	c2.708-0.688,5.421-1.357,8.539-2.131c-0.483,0.533-0.664,0.913-0.946,1.014C156.056,106.413,153.441,107.155,150.229,107.294z"/>
<path fill-rule="evenodd" clip-rule="evenodd" fill="#8dece4" class="fill" d="M163.271,79.811c2.206-2.075,4.111-0.688,6.003-0.505
	c0.007,0.959-0.587,1.207-1.203,1.151C166.605,80.325,165.151,80.073,163.271,79.811z"/>
<path fill-rule="evenodd" clip-rule="evenodd" fill="#8dece4" class="fill" d="M75.872,70.426c1.277,1.158,1.277,1.158,0.162,4.953
	c-0.365,0.031-0.783,0.066-1.55,0.13C74.967,73.74,75.382,72.221,75.872,70.426z"/>
<path fill-rule="evenodd" clip-rule="evenodd" fill="#8dece4" class="fill" d="M154.716,115.145c1.929-0.789,3.637-1.392,5.384-0.382
	c-1.324,1.011-2.849,1.169-4.387,1.131C155.376,115.885,155.048,115.407,154.716,115.145z"/>
<path fill-rule="evenodd" clip-rule="evenodd" fill="#8dece4" class="fill" d="M45.156,88.319c0,1.379,0,2.367,0,3.534c-0.623,0-1.229,0-1.958,0
	c0-0.916,0-1.699,0-2.575C43.741,89.012,44.262,88.757,45.156,88.319z"/>
<path fill-rule="evenodd" clip-rule="evenodd" fill="#8dece4" class="fill" d="M172.439,76.719c-0.632,0.547-1.068,0.925-1.5,1.299
	c-1.131-0.281-2.143-0.533-3.343-0.831C169.141,75.678,170.577,75.72,172.439,76.719z"/>
<path fill-rule="evenodd" clip-rule="evenodd" fill="#8dece4" class="fill" d="M160.126,125.521c1.286,0,2.062,0,2.992,0
	c0.199,0.532,0.401,1.069,0.681,1.808c-0.837,0.066-1.479,0.116-2.227,0.175C161.172,126.955,160.797,126.441,160.126,125.521z"/>
<path fill-rule="evenodd" clip-rule="evenodd" fill="#8dece4" class="fill" d="M158.669,85.343c2.024-0.633,4.015-0.338,6.438,0.129
	C163.7,86.11,160.789,86.061,158.669,85.343z"/>
<path fill-rule="evenodd" clip-rule="evenodd" fill="#8dece4" class="fill" d="M160.672,117.039c-1.164,1.728-3.28,1.909-4.809,0.599
	C157.634,117.417,159.151,117.228,160.672,117.039z"/>
<path fill-rule="evenodd" clip-rule="evenodd" fill="#8dece4" class="fill" d="M159.756,97.093c-0.051,0.5-0.091,0.895-0.134,1.321
	c-1.757-0.562-3.444-1.103-5.134-1.641C156.001,96.317,157.57,96.398,159.756,97.093z"/>
<path fill-rule="evenodd" clip-rule="evenodd" fill="#8dece4" class="fill" d="M157.428,120.603c1.608-0.971,3.176-0.961,4.212,0.025
	C160.094,121.33,158.588,121.321,157.428,120.603z"/>
<path fill-rule="evenodd" clip-rule="evenodd" fill="#8dece4" class="fill" d="M78.979,71.321c1.67,1.375,0.472,2.535,0.464,3.746
	c-0.492,0.049-0.921,0.091-1.683,0.165C78.191,73.843,78.547,72.704,78.979,71.321z"/>
<path fill-rule="evenodd" clip-rule="evenodd" fill="#8dece4" class="fill" d="M82.688,74.706c-0.61,0-0.984,0-1.512,0
	c0.173-0.754,0.32-1.386,0.496-2.144c0.435-0.032,0.853-0.062,1.475-0.109C82.978,73.281,82.849,73.911,82.688,74.706z"/>
<path fill-rule="evenodd" clip-rule="evenodd" fill="#8dece4" class="fill" d="M162.262,123.308c-1.962,0.664-2.207,0.654-3.538-0.15
	c0.915-0.723,1.938-0.387,2.864-0.459C161.776,122.684,161.995,123.056,162.262,123.308z"/>
<path fill-rule="evenodd" clip-rule="evenodd" fill="#8dece4" class="fill" d="M156.529,103.012c0.157-1.054,0.232-1.551,0.354-2.37
	c0.668,0.46,1.112,0.766,1.896,1.306C157.938,102.346,157.454,102.574,156.529,103.012z"/>
<path fill-rule="evenodd" clip-rule="evenodd" fill="#8dece4" class="fill" d="M84.377,74.545c0.224-0.527,0.414-0.976,0.668-1.576
	c0.484,0.299,0.832,0.515,1.185,0.733C85.953,74.822,85.289,74.768,84.377,74.545z"/>
<path fill-rule="evenodd" clip-rule="evenodd" fill="#8dece4" class="fill" d="M154.743,100.633c-0.12,0.826,0.666,1.773-0.765,2.425
	c0.121-0.828,0.243-1.654,0.364-2.48C154.477,100.595,154.609,100.614,154.743,100.633z"/>
<path fill-rule="evenodd" clip-rule="evenodd" fill="#8dece4" class="fill" d="M164.812,130.188c-0.355-0.173-0.712-0.345-1.274-0.619
	C164.379,129.061,164.757,129.231,164.812,130.188z"/>
</svg>
