<svg version="1.1" id="svg" xmlns="http://www.w3.org/2000/svg" xmlns:xlink="http://www.w3.org/1999/xlink" x="0px" y="0px"
	 width="200px" height="200px" viewBox="0 0 200 200" enable-background="new 0 0 200 200" xml:space="preserve">
<path class="stroke" fill="#693c11"  d="M150.368,74.672c-1.907-1.098-3.765-0.62-5.731,0.188c-1.546-2.589-3.065-5.139-4.628-7.76
	c-2.894-1.093-5.915,0.078-8.999-0.398c-0.512-4.779,0.158-9.472,0.403-14.163c0.249-4.723,0.721-9.433,1.085-14.055
	c-0.7-0.953-1.625-0.794-2.49-0.822c-2.34-0.076-4.683-0.145-7.022-0.222c-6.034-0.2-12.065-0.458-18.1-0.59
	c-5.622-0.123-11.247-0.19-16.87-0.138c-5.214,0.048-10.426,0.281-15.639,0.445c-0.695,0.022-1.442-0.014-1.945,0.798
	c0.198,3.209,0.49,6.411,0.83,9.608c0.19,1.802,0.489,3.592,0.69,5.393c0.337,3.021,0.655,6.044,0.938,9.07
	c0.106,1.137,0.095,2.286,0.136,3.375c-3.304,0.419-6.431,0.817-9.517,1.208c-2.266,2.193-3.003,5.136-4.455,8.028
	c-0.835-2.354-0.65-4.696-2.315-6.308c-1.539,0.52-1.796,0.826-1.695,2.189c0.115,1.563,0.28,3.122,0.434,4.801
	c-0.992,0.232-1.823,0.426-2.858,0.668c-0.35,2.84-0.335,5.646-0.154,8.492c0.875,0.287,1.527,0.501,2.292,0.752
	c0.179,2.126,0.487,4.271,0.512,6.419c0.05,4.681-0.009,9.363-0.105,14.043c-0.025,1.273-0.251,2.559-0.536,3.804
	c-0.432,1.881-1.101,3.708-1.481,5.596c-1.095,5.443-2.17,10.881-2.828,16.414c-0.561,4.691-0.578,9.339-0.267,14.01
	c0.28,4.24,2.508,7.034,6.413,8.823c3.552,1.626,7.312,1.996,11.052,2.617c1.212,0.202,2.428,0.45,3.647,0.51
	c3.679,0.18,7.362,0.305,11.045,0.403c6.848,0.181,13.696,0.334,20.546,0.488c2.576,0.058,5.151,0.129,7.729,0.113
	c1.754-0.01,3.514-0.098,5.261-0.264c2.381-0.226,4.746-0.735,7.128-0.806c3.952-0.119,7.814-0.749,11.651-1.59
	c3.36-0.737,6.704-1.435,9.733-3.324c2.688-1.678,4.506-3.812,5.404-6.828c1.407-4.719,1.514-9.462,0.368-14.232
	c-0.451-1.879-1.016-3.73-1.544-5.589c-1.566-5.518-3.167-11.027-4.69-16.557c-0.274-0.992-0.391-2.074-0.339-3.103
	c0.272-5.266,0.607-10.527,0.959-15.788c0.08-1.196,0.314-2.381,0.449-3.358c1.792-0.827,3.748-0.23,4.971-1.83
	C150.258,81.732,151.17,78.295,150.368,74.672z"/>
<path fill-rule="evenodd" clip-rule="evenodd" fill="#faf0e5" class="fill" d="M127.664,72.243c-0.986,0.036-1.855,0.069-2.641,0.098
	c-2.215-2.057-4.71-0.895-7.022-1c-0.461,0.431-0.842,0.786-1.34,1.253c-9.825,0.156-19.766,0.314-29.728,0.472
	c-0.289-0.485-0.515-0.864-0.801-1.347c-2.145-0.038-4.304-0.075-6.754-0.119c-0.195,0.307-0.445,0.694-0.754,1.177
	c-0.575-0.006-1.203-0.013-1.984-0.021c-1.165-10.986-2.318-21.856-3.491-32.904c0.981-0.156,1.769-0.372,2.561-0.395
	c6.681-0.19,13.363-0.354,20.044-0.508c6.34-0.146,12.65,0.359,18.971,0.724c3.561,0.206,7.143,0.02,10.715,0.037
	c1.278,0.006,2.555,0.087,4.039,0.141c0.099,0.796,0.277,1.463,0.243,2.12c-0.146,2.691-0.376,5.377-0.538,8.067
	c-0.229,3.797-0.41,7.597-0.642,11.393c-0.194,3.159-0.426,6.315-0.654,9.473C127.854,71.354,127.74,71.799,127.664,72.243z"/>
<path fill-rule="evenodd" clip-rule="evenodd" fill="#faf0e5" class="fill" d="M57.73,93.482c0.807,0.113,1.299,0.182,1.96,0.274
	c0.018,4.362,0.032,8.613,0.048,12.764c1.021,0.993,2.144,0.887,3.253,0.93c5.795,0.225,11.589,0.485,17.383,0.724
	c2.924,0.12,5.85,0.175,8.768,0.348c1.39,0.083,2.801,0.238,4.14,0.595c4.559,1.216,9.086,1.48,13.722,0.33
	c1.669-0.414,3.485-0.229,5.233-0.332c3.218-0.188,6.438-0.369,9.656-0.589c4.614-0.316,9.229-0.661,13.842-1.006
	c0.692-0.052,1.376-0.17,2.024-0.252c1.313-1.625,1.223-3.504,1.379-5.279c0.22-2.501,0.289-5.014,0.427-7.585
	c0.558-0.081,0.925-0.135,1.421-0.207c0.042,1.108,0.16,2.092,0.099,3.065c-0.188,2.982-0.434,5.961-0.678,8.94
	c-0.098,1.198,0.189,2.275,0.619,3.404c1.834,4.818,3.296,9.759,4.303,14.82c0.639,3.207,1.426,6.417,1.67,9.662
	c0.244,3.237,0.157,6.557-0.285,9.771c-0.357,2.6-1.998,4.653-4.425,5.989c-2.92,1.606-6.049,2.492-9.315,2.926
	c-6.264,0.833-12.537,1.606-18.811,2.386c-0.576,0.071-1.17-0.001-1.756,0.008c-3.393,0.055-6.785,0.14-10.178,0.161
	c-1.342,0.008-2.684-0.168-4.025-0.183c-3.453-0.041-6.91,0.052-10.359-0.076c-4.559-0.168-9.107-0.532-13.663-0.746
	c-3.282-0.154-6.553-0.345-9.778-0.989c-1.607-0.321-3.303-0.446-4.79-1.065c-3.614-1.505-6.695-4.338-7.005-8.836
	c-0.305-4.415-0.077-8.773,0.689-13.132c0.822-4.67,1.433-9.377,2.25-14.049c0.322-1.839,0.935-3.63,1.443-5.435
	c0.557-1.976,0.877-3.905,0.634-6.029c-0.291-2.543-0.006-5.15,0.034-7.729C57.674,95.958,57.7,94.854,57.73,93.482z
	 M139.597,110.417c-1-0.082-1.842-0.228-2.68-0.202c-1.69,0.053-3.376,0.254-5.066,0.295c-3.448,0.083-6.9,0.074-10.349,0.148
	c-5.562,0.122-11.123,0.317-16.686,0.411c-2.861,0.049-5.731,0.021-8.591-0.107c-3.623-0.162-7.236-0.51-10.858-0.686
	c-3.684-0.181-7.372-0.251-11.06-0.368c-3.266-0.104-6.53-0.219-9.797-0.299c-0.64-0.015-1.283,0.106-1.923,0.174
	c-1.167,0.122-1.941,0.713-2.303,1.857c-0.369,1.171-0.807,2.321-1.178,3.491c-0.974,3.063-2.084,6.095-2.843,9.213
	c-0.759,3.117-1.325,6.305-1.654,9.495c-0.215,2.067-0.207,4.292,0.337,6.272c0.811,2.947,3.078,4.776,6.086,5.44
	c1.3,0.286,2.672,0.215,4.01,0.345c3.432,0.332,6.859,0.728,10.296,1.011c1.44,0.12,2.903-0.053,4.349,0.037
	c4.376,0.271,8.744,0.708,13.123,0.892c4.91,0.207,9.83,0.21,14.744,0.298c5.271,0.094,10.534,0.204,15.805-0.216
	c4.956-0.394,9.947-0.154,14.891-0.952c3.282-0.53,5.479-2.161,6.538-5.32c0.804-2.401,0.83-4.839,0.326-7.288
	c-0.931-4.526-1.847-9.058-2.872-13.564C141.475,117.432,140.544,114.105,139.597,110.417z"/>
<path fill-rule="evenodd" clip-rule="evenodd" fill="#faf0e5" class="fill" d="M79.117,74.414c0.492,0.981,1.319,1.201,2.234,1.241
	c1.707,0.075,3.378,0.084,4.957-0.801c0.568-0.317,1.342-0.362,2.023-0.37c5.567-0.059,11.136-0.051,16.703-0.126
	c3.445-0.046,6.889-0.233,10.334-0.284c0.785-0.012,1.569,0.343,2.362,0.416c2.426,0.22,4.894,0.675,7.225-0.927
	c0.98,0.093,2.072,0.196,3.126,0.296c1.065,1.953,1.109,3.782,0.215,5.639c-1.855,0.069-3.657,0.159-5.459,0.198
	c-3.865,0.085-7.731,0.173-11.598,0.207c-4.393,0.038-8.786-0.044-13.179,0.039c-5.032,0.095-10.062,0.354-15.097,0.46
	c-2.568,0.054-5.141-0.067-7.686-0.109c-1.352-2.112-0.942-3.949,0.509-5.754C76.832,74.5,77.876,74.461,79.117,74.414z"/>
<path fill-rule="evenodd" clip-rule="evenodd" fill="#faf0e5" class="fill" d="M57.482,92.084c0.173-1.056,0.308-1.876,0.443-2.696
	c0.188-0.912-0.453-1.936,0.581-2.936c1.344,0.986,0.462,2.91,2.102,4.114c1.488,0.44,3.54,0.505,5.567,0.534
	c4.273,0.061,8.547-0.011,12.822-0.01c0.334,0,0.668,0.146,0.88,0.196c0.45,1.501,0.856,2.882,1.274,4.261
	c1.089,3.587,3.675,5.91,6.713,7.802c3.849,2.396,8.131,3.272,12.6,3.246c3.893-0.023,7.594-1.079,10.861-3.105
	c2.723-1.689,5.171-3.833,7.666-5.868c1.519-1.238,2.641-2.819,3.259-4.719c0.106-0.328,0.313-0.625,0.57-1.12
	c5.742-0.323,11.568-0.65,17.417-0.979c0.3-0.477,0.561-0.893,0.821-1.308c0.096,0.007,0.192,0.013,0.287,0.02
	c-0.007,0.993-0.016,1.986-0.024,2.962c-3.184,0.118-6.151,0.203-9.115,0.347c-2.898,0.141-5.793,0.341-8.577,0.509
	c-0.991,3.15-2.836,5.431-4.941,7.445c-3.693,3.535-8.035,6.07-12.999,7.37c-3.051,0.799-6.18,0.516-9.264,0.072
	c-3.698-0.533-7.074-2.02-10.267-3.884c-0.981-0.573-1.916-1.437-2.53-2.388c-1.48-2.3-3.114-4.552-3.604-7.36
	c-0.083-0.479-0.46-0.907-0.595-1.157C72.055,92.979,64.907,92.54,57.482,92.084z"/>
<path fill-rule="evenodd" clip-rule="evenodd" fill="#faf0e5" class="fill" d="M57.092,83.075c0.001-1.142,0.65-1.116,1.229-1.132
	c1.816-0.051,3.633-0.109,5.449-0.114c4.39-0.012,8.779-0.001,13.17,0.013c2.511,0.008,5.024,0.104,7.533,0.048
	c6.032-0.134,12.062-0.405,18.095-0.489c8.49-0.118,16.981-0.118,25.474-0.166c5.38-0.032,10.762-0.063,16.142-0.092
	c0.229-0.001,0.463,0.02,0.77,0.035c0.161,0.271,0.328,0.55,0.622,1.043c-0.625,0.169-1.093,0.375-1.574,0.413
	c-3.505,0.278-7.01,0.554-10.52,0.759c-1.1,0.064-2.211-0.101-3.319-0.139c-1.113-0.038-2.226-0.066-3.339-0.066
	c-4.034,0-8.067-0.008-12.101,0.031c-3.454,0.034-6.905,0.131-10.36,0.194c-5.445,0.1-10.891,0.195-16.337,0.291
	c-0.644,0.011-1.29-0.006-1.933,0.026c-5.62,0.28-11.229-0.071-16.842-0.259c-3.217-0.108-6.439-0.073-9.659-0.138
	C58.746,83.314,57.905,83.162,57.092,83.075z"/>
<path fill-rule="evenodd" clip-rule="evenodd" fill="#faf0e5" class="fill" d="M57.994,79.986c0.972-1.78,1.944-3.56,2.928-5.362
	c3.841-0.118,7.497-0.357,11.173-0.137c-0.185,2.005-0.352,3.825-0.54,5.893c-4.24,0.35-8.753-0.181-13.262,0.116
	C58.193,80.326,58.094,80.156,57.994,79.986z"/>
<path fill-rule="evenodd" clip-rule="evenodd" fill="#faf0e5" class="fill" d="M131.459,79.598c0.077-2.004,0.145-3.735,0.221-5.701
	c3.677,0.16,7.437,0.323,11.22,0.487c0.903,1.694,1.718,3.219,2.703,5.07C140.618,80.154,136.017,79.935,131.459,79.598z"/>
<path fill-rule="evenodd" clip-rule="evenodd" fill="#faf0e5" class="fill" d="M82.254,91.026c0.096,0.312,0.203,0.621,0.29,0.936
	c1.668,6.077,5.403,9.966,11.747,11.08c1.435,0.252,2.873,0.485,4.32,0.656c3.358,0.396,6.498-0.39,9.535-1.785
	c3.436-1.58,6.502-3.72,9.338-6.182c1.041-0.904,1.857-2.068,2.992-3.066c-0.082,0.328-0.101,0.69-0.256,0.978
	c-1.148,2.118-3.029,3.573-4.834,5.043c-2.721,2.215-5.569,4.197-9.014,5.288c-2.623,0.831-5.211,1.306-7.936,0.993
	c-1.391-0.16-2.791-0.302-4.162-0.574c-3.367-0.668-6.203-2.386-8.689-4.685c-2.092-1.936-3.114-4.494-3.843-7.176
	c-0.122-0.448-0.001-0.963,0.008-1.447C81.918,91.065,82.085,91.046,82.254,91.026z"/>
<path fill-rule="evenodd" clip-rule="evenodd" fill="#faf0e5" class="fill" d="M98.307,94.668c0.328,0.022,0.696,0.049,1.217,0.085
	c-0.282,2.56-0.552,4.999-0.835,7.563c-0.732-0.153-1.222-0.256-1.68-0.353C96.849,100.426,97.57,96.377,98.307,94.668z"/>
<path fill-rule="evenodd" clip-rule="evenodd" fill="#faf0e5" class="fill" d="M88.816,99.41c-0.612-0.491-1.042-0.836-1.539-1.235
	c1.533-1.998,2.496-3.923,4.297-5.417c0.224,0.41,0.51,0.701,0.449,0.86C91.259,95.611,90.212,97.448,88.816,99.41z"/>
<path fill-rule="evenodd" clip-rule="evenodd" fill="#faf0e5" class="fill" d="M103.762,94.182c0.402,2.376,0.804,4.753,1.229,7.256
	c-0.466,0.147-0.873,0.275-1.16,0.365C102.993,101.373,102.814,95.737,103.762,94.182z"/>
<path fill-rule="evenodd" clip-rule="evenodd" fill="#faf0e5" class="fill" d="M92.062,100.854c-0.552-0.216-1-0.393-1.426-0.56
	c0.376-1.646,1.958-4.501,3.394-6.115C93.795,96.617,92.945,98.652,92.062,100.854z"/>
<path fill-rule="evenodd" clip-rule="evenodd" fill="#faf0e5" class="fill" d="M96.238,94.776c0.003,2.318-0.373,4.567-1.14,6.848
	c-0.48-0.132-0.842-0.233-1.188-0.329C94.111,99.48,95.4,95.611,96.238,94.776z"/>
<path fill-rule="evenodd" clip-rule="evenodd" fill="#faf0e5" class="fill" d="M101.722,102.111c-0.441,0.017-0.765,0.029-1.21,0.045
	c-0.297-2.43,0.145-4.694,0.79-6.957C101.75,97.477,101.667,99.777,101.722,102.111z"/>
<path fill-rule="evenodd" clip-rule="evenodd" fill="#faf0e5" class="fill" d="M107.307,93.205c1.75,1.375,2.349,3.497,3.672,5.305
	c-0.39,0.293-0.781,0.588-1.308,0.982C108.461,97.454,107.77,95.382,107.307,93.205z"/>
<path fill-rule="evenodd" clip-rule="evenodd" fill="#faf0e5" class="fill" d="M108.076,100.253c-0.551,0.235-0.961,0.41-1.543,0.658
	c-0.72-2.214-0.872-4.401-0.928-6.634C106.615,96.165,107.408,98.133,108.076,100.253z"/>
<path fill-rule="evenodd" clip-rule="evenodd" fill="#faf0e5" class="fill" d="M112.339,97.646c-1.185-1.839-2.529-3.449-3.223-5.492
	c0.362-0.109,0.481-0.184,0.579-0.164c0.163,0.033,0.376,0.084,0.462,0.204c1.089,1.51,2.157,3.036,3.291,4.64
	C113.045,97.128,112.744,97.348,112.339,97.646z"/>
<path fill-rule="evenodd" clip-rule="evenodd" fill="#faf0e5" class="fill" d="M86.454,96.387c-0.159-0.139-0.35-0.262-0.479-0.43
	c-0.136-0.173-0.213-0.392-0.37-0.694c1.358-1.361,2.688-2.695,4.146-4.155C89.824,92.367,88.592,94.245,86.454,96.387z"/>
<path fill-rule="evenodd" clip-rule="evenodd" fill="#faf0e5" class="fill" d="M119.173,91.444c-0.356,0.082-0.746,0.303-0.917,0.19
	c-1.711-1.137-3.487-2.217-4.906-4.009C114.703,87.592,117.906,89.764,119.173,91.444z"/>
<path fill-rule="evenodd" clip-rule="evenodd" fill="#faf0e5" class="fill" d="M112.172,89.397c2.157,0.756,3.668,2.378,5.416,3.863
	c-0.193,0.246-0.35,0.445-0.57,0.729C115.194,92.582,113.506,91.192,112.172,89.397z"/>
<path fill-rule="evenodd" clip-rule="evenodd" fill="#faf0e5" class="fill" d="M83.84,91.341c-0.074-0.828-0.104-1.156-0.137-1.536
	c1.48-0.873,2.918-1.72,4.51-2.658c0.069,1.386-0.959,1.734-1.668,2.286C85.781,90.028,84.963,90.555,83.84,91.341z"/>
<path fill-rule="evenodd" clip-rule="evenodd" fill="#faf0e5" class="fill" d="M115.838,95.099c-0.371,0.295-0.584,0.464-0.954,0.759
	c-1.141-1.366-2.223-2.664-3.304-3.961c0.126-0.119,0.254-0.239,0.379-0.358C113.227,92.703,114.494,93.865,115.838,95.099z"/>
<path fill-rule="evenodd" clip-rule="evenodd" fill="#faf0e5" class="fill" d="M84.777,93.519c0.018-1.054,0.482-1.538,2.612-2.72
	C86.959,92.144,86.193,92.939,84.777,93.519z"/>
<path fill-rule="evenodd" clip-rule="evenodd" fill="#faf0e5" class="fill" d="M141.055,88.023c0.122-0.757,0.246-1.514,0.369-2.271
	c0.615,0.835,0.138,1.542,0.039,2.289C141.326,88.035,141.19,88.028,141.055,88.023z"/>
<path fill-rule="evenodd" clip-rule="evenodd" fill="#faf0e5" class="fill" d="M70.516,142.456c0.731-0.224,1.38-0.568,2.043-0.599
	c3.033-0.141,6.072-0.288,9.107-0.262c7.141,0.061,14.28,0.233,21.42,0.33c4.5,0.06,9.001,0.153,13.498,0.062
	c3.395-0.069,6.755,0.315,10.131,0.488c1.021,0.052,2.022,0.466,3.175,0.749c-0.015,0.808-0.025,1.47-0.035,2.062
	c-1.305,0.917-2.653,1.055-3.995,1.116c-4.204,0.19-8.414,0.398-12.623,0.484c-9.267,0.188-18.503-0.458-27.733-1.153
	c-4.431-0.334-8.857-0.759-13.28-1.207C70.881,144.391,70.839,144.239,70.516,142.456z"/>
<path fill-rule="evenodd" clip-rule="evenodd" fill="#faf0e5" class="fill" d="M136.32,137.983c-0.135-0.87,0.262-1.431,1.076-1.72
	c1.539-0.547,2.923-0.258,4.219,0.754c-0.047,1.109-0.546,1.783-1.57,2.049C138.52,139.463,137.285,139.104,136.32,137.983z"/>
<path fill-rule="evenodd" clip-rule="evenodd" fill="#faf0e5" class="fill" d="M95.661,137.588c-1.765,2.091-3.831,2.125-5.632,0.123
	c0.394-1.186,1.37-1.642,2.516-1.736C93.833,135.869,94.949,136.258,95.661,137.588z"/>
<path fill-rule="evenodd" clip-rule="evenodd" fill="#faf0e5" class="fill" d="M91.52,126.333c1.071-1.608,2.522-1.408,3.955-0.993
	c0.845,0.245,1.652,0.684,1.369,1.816C94.829,128.641,93.048,128.383,91.52,126.333z"/>
<path fill-rule="evenodd" clip-rule="evenodd" fill="#faf0e5" class="fill" d="M81.959,114.522c-0.145,0.316-0.304,0.665-0.492,1.078
	c-1.933,0.189-3.792,0.327-5.461-0.87C76.923,112.63,80.049,112.581,81.959,114.522z"/>
<path fill-rule="evenodd" clip-rule="evenodd" fill="#faf0e5" class="fill" d="M125.584,125.387c0.031,2.461-1.233,2.994-4.42,1.988
	c-0.388-1.249-0.198-1.98,0.785-2.217C123.117,124.876,124.354,124.553,125.584,125.387z"/>
<path fill-rule="evenodd" clip-rule="evenodd" fill="#faf0e5" class="fill" d="M106.986,126.479c-0.422,1.167-1.339,1.303-2.289,1.315
	c-1.414,0.019-2.377-0.451-3.093-1.439C102.882,124.267,105.458,124.277,106.986,126.479z"/>
<path fill-rule="evenodd" clip-rule="evenodd" fill="#faf0e5" class="fill" d="M100.667,137.846c0.22-1.481,1.517-1.386,2.356-1.946
	c1.036,0.364,2.249,0.381,2.61,1.704C104.257,139.562,102.299,139.667,100.667,137.846z"/>
<path fill-rule="evenodd" clip-rule="evenodd" fill="#faf0e5" class="fill" d="M138.201,131.816c-0.804,1.401-1.289,1.622-2.893,1.384
	c-1.538-0.229-1.723-0.392-2.064-1.829C134.938,129.886,136.814,130.026,138.201,131.816z"/>
<path fill-rule="evenodd" clip-rule="evenodd" fill="#faf0e5" class="fill" d="M61.742,137.667c0.062,1.064-0.631,1.402-1.379,1.632
	c-1.168,0.359-2.256,0.021-3.337-0.979c-0.259-0.98,0.318-1.403,1.149-1.581C59.529,136.451,60.854,136.351,61.742,137.667z"/>
<path fill-rule="evenodd" clip-rule="evenodd" fill="#faf0e5" class="fill" d="M90.769,132.093c-1.024,1.785-2.546,1.185-4.115,1.12
	c-0.265-0.582-0.531-1.171-0.781-1.726C88.06,129.992,89.728,130.216,90.769,132.093z"/>
<path fill-rule="evenodd" clip-rule="evenodd" fill="#faf0e5" class="fill" d="M96.55,131.522c1.63-1.44,3.938-1.248,5.175,0.427
	c-0.684,1.28-1.983,1.188-3.131,1.25C97.577,133.253,97.262,132.9,96.55,131.522z"/>
<path fill-rule="evenodd" clip-rule="evenodd" fill="#faf0e5" class="fill" d="M116.984,132.595c-0.038-0.433-0.076-0.873-0.115-1.34
	c1.333-0.833,2.567-1.6,4.188-0.305c-0.008,0.483-0.019,1.07-0.028,1.56C119.641,133.249,118.438,133.464,116.984,132.595z"/>
<path fill-rule="evenodd" clip-rule="evenodd" fill="#faf0e5" class="fill" d="M87.267,120.236c0.859-0.427,1.599-0.796,2.271-1.128
	c1.224,0.323,2.467,0.33,2.928,1.687C90.218,122.497,88.645,122.415,87.267,120.236z"/>
<path fill-rule="evenodd" clip-rule="evenodd" fill="#faf0e5" class="fill" d="M115.891,120.503c0.018-0.151-0.008-0.344,0.064-0.487
	c0.128-0.255,0.314-0.479,0.439-0.661c2.748-0.68,3.821-0.226,4.068,1.662C118.68,121.984,117.259,121.83,115.891,120.503z"/>
<path fill-rule="evenodd" clip-rule="evenodd" fill="#faf0e5" class="fill" d="M57.403,126.14c0.436-1.191,1.332-1.352,2.3-1.207
	c1.084,0.163,2.252,0.305,2.403,1.76C60.843,128.185,58.918,127.981,57.403,126.14z"/>
<path fill-rule="evenodd" clip-rule="evenodd" fill="#faf0e5" class="fill" d="M124.136,137.481c-1.425,1.519-2.199,1.621-4.435,0.619
	c-0.234-0.878,0.026-1.545,0.93-1.911C121.799,135.714,123.123,136.186,124.136,137.481z"/>
<path fill-rule="evenodd" clip-rule="evenodd" fill="#faf0e5" class="fill" d="M77.577,120.248c1.971-1.15,3.628-0.801,4.474,1.008
	c-0.916,0.988-2.095,1.083-3.293,0.776C77.927,121.819,77.311,121.272,77.577,120.248z"/>
<path fill-rule="evenodd" clip-rule="evenodd" fill="#faf0e5" class="fill" d="M106.803,132.213c0.137-1.249,1.086-1.219,1.851-1.346
	c1.157-0.192,2.286,0.34,3.167,1.365C110.327,133.791,108.421,133.807,106.803,132.213z"/>
<path fill-rule="evenodd" clip-rule="evenodd" fill="#faf0e5" class="fill" d="M62.074,131.208c0.549-0.183,0.983-0.328,1.529-0.51
	c0.823,0.324,1.705,0.672,2.563,1.012c-0.601,2.048-2.321,2.458-4.521,1.17C61.781,132.353,61.929,131.771,62.074,131.208z"/>
<path fill-rule="evenodd" clip-rule="evenodd" fill="#faf0e5" class="fill" d="M128.706,121.345c-1.718,1.247-3.131,1.027-4.587-0.633
	c0.611-1.081,1.512-1.463,3.062-1.204C128.127,119.666,128.827,120.118,128.706,121.345z"/>
<path fill-rule="evenodd" clip-rule="evenodd" fill="#faf0e5" class="fill" d="M84.688,137.111c-0.009,1.013-0.604,1.307-1.368,1.354
	c-1.451,0.09-2.739-0.221-3.597-1.533C81.004,135.551,83.055,135.632,84.688,137.111z"/>
<path fill-rule="evenodd" clip-rule="evenodd" fill="#faf0e5" class="fill" d="M132.48,138.138c-1.316,1.259-3.005,1.365-4.68,0.294
	c0.438-1.244,1.018-1.644,2.426-1.674C131.482,136.73,131.99,137.042,132.48,138.138z"/>
<path fill-rule="evenodd" clip-rule="evenodd" fill="#faf0e5" class="fill" d="M109.936,137.506c2.202-1.649,4.297-1.232,4.956,0.877
	C113.244,139.487,111.4,139.187,109.936,137.506z"/>
<path fill-rule="evenodd" clip-rule="evenodd" fill="#faf0e5" class="fill" d="M141.9,125.481c-0.988,1.889-3.118,1.812-4.467-0.162
	C138.71,123.579,140.728,123.651,141.9,125.481z"/>
<path fill-rule="evenodd" clip-rule="evenodd" fill="#faf0e5" class="fill" d="M81.738,126.136c2.152-1.229,3.615-1.05,4.702,0.523
	c-0.163,0.916-0.8,1.188-1.636,1.165C83.545,127.793,82.365,127.6,81.738,126.136z"/>
<path fill-rule="evenodd" clip-rule="evenodd" fill="#faf0e5" class="fill" d="M80.562,132.01c-1.257,1.81-2.933,1.812-4.283,0.07
	c0.2-1.132,1.097-1.408,2.05-1.524C79.391,130.425,80.099,130.961,80.562,132.01z"/>
<path fill-rule="evenodd" clip-rule="evenodd" fill="#faf0e5" class="fill" d="M72.67,132.555c-1.166,1.401-1.547,1.434-4.086,0.39
	c-0.037-0.186-0.133-0.41-0.115-0.627c0.021-0.275,0.134-0.544,0.176-0.697C69.652,130.481,71.787,130.999,72.67,132.555z"/>
<path fill-rule="evenodd" clip-rule="evenodd" fill="#faf0e5" class="fill" d="M70.683,120.197c1.522-0.069,2.979-0.125,3.689,1.62
	c-0.326,0.807-0.935,0.984-1.695,0.906c-0.866-0.089-1.772-0.089-2.356-0.895C69.908,121.259,70.04,120.745,70.683,120.197z"/>
<path fill-rule="evenodd" clip-rule="evenodd" fill="#faf0e5" class="fill" d="M129.31,132.534c-0.429,1.052-1.334,1.18-2.298,1.035
	c-0.896-0.133-1.722-0.44-1.683-1.837c0.472-0.283,1.039-0.622,1.537-0.919C127.987,131.109,129.192,131.01,129.31,132.534z"/>
<path fill-rule="evenodd" clip-rule="evenodd" fill="#faf0e5" class="fill" d="M65.499,127.356c-0.046-0.487-0.094-0.979-0.139-1.442
	c2.341-0.748,3.35-0.398,4.042,1.308C68.287,128.399,67.82,128.431,65.499,127.356z"/>
<path fill-rule="evenodd" clip-rule="evenodd" fill="#faf0e5" class="fill" d="M101.941,121.25c-1.943,1.149-3.389,0.837-4.219-0.834
	C99.372,118.95,101.258,119.277,101.941,121.25z"/>
<path fill-rule="evenodd" clip-rule="evenodd" fill="#faf0e5" class="fill" d="M73.113,126.268c1.485-1.415,3.038-1.252,4.163,0.437
	c-0.292,0.967-1.04,1.123-1.907,0.988C74.42,127.544,73.359,127.522,73.113,126.268z"/>
<path fill-rule="evenodd" clip-rule="evenodd" fill="#faf0e5" class="fill" d="M129.902,125.188c2.861-0.457,3.187-0.322,3.812,1.512
	c-1.245,1.104-2.522,0.601-3.923,0.087C129.828,126.245,129.863,125.745,129.902,125.188z"/>
<path fill-rule="evenodd" clip-rule="evenodd" fill="#faf0e5" class="fill" d="M69.117,137.982c-1.439,1.512-2.368,1.531-4.129,0.186
	c-0.256-1.051,0.523-1.322,1.256-1.473C67.413,136.452,68.394,136.816,69.117,137.982z"/>
<path fill-rule="evenodd" clip-rule="evenodd" fill="#faf0e5" class="fill" d="M66.743,120.366c-0.645,1.43-1.929,1.15-3.204,1.173
	c-0.325-0.323-0.686-0.68-1.023-1.013C63.401,118.67,64.916,118.62,66.743,120.366z"/>
<path fill-rule="evenodd" clip-rule="evenodd" fill="#faf0e5" class="fill" d="M136.836,119.929c-1.583,0.77-2.941,0.569-4.246-0.183
	c-0.32-1.019,0.117-1.428,0.92-1.592C134.846,117.883,136.214,118.542,136.836,119.929z"/>
<path fill-rule="evenodd" clip-rule="evenodd" fill="#faf0e5" class="fill" d="M107.102,120.05c1.757-1.397,3.169-1.268,4.307,0.303
	C110.373,121.778,108.363,121.675,107.102,120.05z"/>
<path fill-rule="evenodd" clip-rule="evenodd" fill="#faf0e5" class="fill" d="M111.119,125.97c1.938-1.074,3.316-0.896,4.519,0.511
	C114.534,127.982,112.757,127.824,111.119,125.97z"/>
<path fill-rule="evenodd" clip-rule="evenodd" fill="#faf0e5" class="fill" d="M126.005,113.985c-1.206,1.354-2.762,1.407-4.271,0.23
	C122.669,112.54,124.439,112.405,126.005,113.985z"/>
<path fill-rule="evenodd" clip-rule="evenodd" fill="#faf0e5" class="fill" d="M76.226,137.588c-0.671,1.262-1.854,0.954-2.914,0.873
	c-0.728-0.057-0.729-0.144-1.075-1.285C73.65,135.787,75.064,135.92,76.226,137.588z"/>
</svg>
