<svg version="1.1" xmlns="http://www.w3.org/2000/svg" xmlns:xlink="http://www.w3.org/1999/xlink" x="0px" y="0px" width="200px"
	 height="200px" viewBox="0 0 200 200" enable-background="new 0 0 200 200" xml:space="preserve">
<g id="svg">
	<g>
		<path class="stroke" fill="#324c2a"  d="M137.364,93.746c-0.057-4.315,0.009-8.631,0.021-12.947c0.004-1.439-0.008-2.879,0.001-4.318
			c0.012-1.938,0.107-3.878,0.043-5.813c-0.109-3.271-0.265-6.543-0.497-9.808c-0.229-3.219-0.282-6.464-1.097-9.618
			c-0.438-1.702-0.888-3.401-1.374-5.267c0.054-0.178,0.165-0.548,0.283-0.94c-1.144-1.231-2.525-2.086-3.906-2.906
			c-3.303-1.959-6.648-3.847-9.896-5.716c-0.21-0.498-0.376-0.89-0.6-1.422c-1.691-0.39-3.424-0.79-5.195-1.2
			c-0.475-1.121-0.976-2.314-1.481-3.505c-0.539-1.273-1.442-2.142-2.814-2.443c-0.77-0.169-1.548-0.34-2.329-0.393
			c-2.834-0.194-5.662-0.314-8.501,0.066c-1.812,0.242-3.654,0.268-5.481,0.418c-1.087,0.09-1.881,0.636-2.345,1.646
			c-0.433,0.944-0.887,1.88-1.345,2.847c-0.974,0.344-1.953,0.69-2.998,1.059c-0.238,0.675-0.659,1.086-1.244,1.333
			c-4.283,1.81-8.406,3.913-12.114,6.745c-0.992,0.758-1.9,1.633-2.797,2.507c-0.28,0.274-0.394,0.721-0.567,1.056
			c0.354,0.477,0.631,0.847,0.892,1.198c-0.024,0.195-0.026,0.34-0.062,0.476c-0.756,2.847-1.512,5.694-2.275,8.539
			c-0.597,2.221-1.217,4.436-1.806,6.659c-0.498,1.876-0.887,3.784-1.463,5.634c-1.041,3.343-1.706,6.754-2.063,10.228
			c-0.303,2.93-0.533,5.866-0.82,8.799c-0.241,2.468-0.551,4.93-0.765,7.4c-0.127,1.461-0.127,2.933-0.186,4.417
			c1.873,1.349,3.923,2.134,5.939,2.963c2.05,0.842,4.15,1.559,6.277,2.349c0.02,0.181,0.05,0.392,0.064,0.604
			c0.097,1.472,0.205,2.942,0.281,4.415c0.113,2.217,0.536,4.397,0.394,6.653c-0.2,3.19-0.21,6.401-0.117,9.598
			c0.142,4.868-0.33,9.691-0.717,14.529c-0.279,3.512-0.46,7.037-0.519,10.558c-0.087,5.253-0.341,10.493-0.719,15.73
			c-0.236,3.295-0.46,6.591-0.683,9.887c-0.033,0.501-0.012,1.005-0.045,1.507c-0.185,2.834-0.373,5.668-0.572,8.501
			c-0.067,0.968-0.102,1.945-0.265,2.898c-0.369,2.153-0.81,4.294-1.25,6.585c0.466,0.178,0.904,0.424,1.37,0.507
			c1.84,0.327,3.688,0.609,5.535,0.895c1.099,0.17,2.215,0.251,3.3,0.483c2.312,0.495,4.624,0.502,7.053,0.196
			c0.088-0.292,0.217-0.583,0.259-0.885c0.092-0.677,0.115-1.364,0.213-2.04c0.446-3.056,0.958-6.104,1.352-9.167
			c0.361-2.814,0.606-5.644,0.893-8.467c0.088-0.857,0.111-1.721,0.221-2.574c0.292-2.241,0.743-4.471,0.895-6.719
			c0.26-3.885,0.785-7.724,1.495-11.546c0.355-1.907,0.641-3.829,0.916-5.75c0.408-2.848,0.778-5.7,1.177-8.549
			c0.03-0.224,0.153-0.435,0.298-0.824c0.112,0.834,0.251,1.47,0.275,2.111c0.123,3.231,0.215,6.462,0.069,9.697
			c-0.17,3.773-0.328,7.548-0.404,11.324c-0.078,4.029-0.047,8.06-0.081,12.09c-0.011,1.186-0.103,2.37-0.118,3.555
			c-0.015,1.147,0.035,2.296,0.028,3.443c-0.004,0.788-0.095,1.577-0.081,2.364c0.047,2.514,0.068,5.031,0.219,7.54
			c0.066,1.118-0.059,2.319,0.731,3.46c0.492,0.025,1.058,0.105,1.615,0.07c0.859-0.053,1.716-0.268,2.573-0.27
			c3.595-0.006,7.189,0.028,10.784,0.078c1.216,0.017,2.429,0.092,3.658-0.284c0.054-0.561,0.132-1.094,0.151-1.628
			c0.08-2.229,0.136-4.459,0.212-6.689c0.101-2.947,0.177-5.896,0.327-8.841c0.119-2.333,0.343-4.662,0.502-6.993
			c0.076-1.112,0.128-2.227,0.165-3.341c0.073-2.157,0.097-4.316,0.204-6.471c0.066-1.362,0.254-2.717,0.376-4.076
			c0.085-0.926,0.317-1.878,0.188-2.775c-0.267-1.843-0.069-3.659,0.027-5.484c0.056-1.077,0.163-2.15,0.248-3.226
			c0.153-1.969,0.294-3.939,0.462-5.906c0.117-1.36,0.314-2.714,0.402-4.076c0.14-2.184,0.195-4.373,0.331-6.557
			c0.215-3.479,0.468-6.957,0.702-10.437c0.038-0.566,0.065-1.134,0.097-1.691c0.522-0.225,0.973-0.419,1.229-0.529
			c0.452-2.482,0.899-4.768,1.278-7.065c0.383-2.317,0.436-4.693,1.146-7.018c0.828,0.675,0.18,2.026,1.418,2.43
			c4.362-0.873,8.785-1.758,13.256-2.653c0.055-0.69,0.164-1.298,0.135-1.898C137.641,98.625,137.396,96.188,137.364,93.746z"/>
		<path class="stroke" fill="#324c2a"  d="M88.94,17.402c0.385,0.459,0.827,0.872,1.264,1.285c0.231,0.219,0.506,0.393,0.744,0.575
			c0.009,0.197,0.017,0.34,0.023,0.482c0.11,2.421,1.151,4.388,3.343,5.389c2.771,1.267,5.732,1.892,8.825,1.453
			c0.462-0.065,0.919-0.188,1.382-0.219c3.409-0.225,6.556-1.281,9.419-3.111c1.294-0.827,2.308-1.976,2.546-3.582
			c0.143-0.964,0.593-1.665,1.405-2.171c0.305-0.189,0.58-0.427,0.868-0.642c1.454-1.082,2.324-2.568,2.728-4.285
			c0.461-1.965-0.011-3.742-1.6-5.074c-1.95-1.634-4.165-2.886-6.576-3.629c-3.496-1.076-7.123-1.422-10.772-1.059
			c-4.192,0.418-8.19,1.56-11.875,3.638c-0.962,0.543-1.88,1.216-2.679,1.977c-2.256,2.152-2.542,5.147-0.203,7.423
			C88.238,16.296,88.525,16.909,88.94,17.402z"/>
	</g>
	<path fill-rule="evenodd" clip-rule="evenodd" fill="#d5ee20" class="fill" d="M107.343,167.331c0.323,0.112,0.517,0.179,0.762,0.263
		c1.009-0.878,2.005-1.748,3.088-2.692c0.021,0.267,0.081,0.491,0.049,0.702c-0.457,3.057-0.931,6.112-1.39,9.169
		c-0.288,1.925-1.226,3.583-2.12,5.375c-0.491,0.104-0.998,0.212-1.441,0.305c-1.002-0.746-1.37-1.745-1.598-2.746
		c-0.541-2.383-0.849-4.809-1.027-7.249c-0.23-3.155-0.521-6.302-1.161-9.411c-0.18-0.869-0.14-1.791-0.128-2.687
		c0.018-1.33,0.119-2.658,0.14-3.987c0.005-0.312-0.168-0.625-0.259-0.938c-0.091-0.011-0.181-0.022-0.271-0.034
		c-0.152,0.245-0.375,0.473-0.443,0.739c-0.165,0.66-0.287,1.334-0.376,2.01c-0.141,1.067-0.288,2.137-0.347,3.21
		c-0.094,1.754-0.153,3.513-0.159,5.27c-0.004,1.04,0.097,2.083,0.2,3.119c0.352,3.474,0.939,6.907,1.778,10.297
		c0.24,0.976,0.46,1.957,0.672,2.939c0.518,2.389,2.504,3.683,4.991,3.407c0.709-0.078,1.409-0.238,2.26-0.386
		c-0.061,0.628-0.117,1.175-0.167,1.724c-0.052,0.568-0.097,1.138-0.151,1.792c-0.869,0-1.677,0-2.485,0c-0.824,0-1.647,0-2.567,0
		c-0.514-0.866-1.031-1.724-1.535-2.589c-0.502-0.865-0.99-1.738-1.517-2.665c-0.237,0.063-0.457,0.122-0.825,0.22
		c0.396,1.691,0.777,3.32,1.179,5.028c-0.964,0.277-1.99,0.247-3.171,0.266c-0.048-0.854-0.16-1.664-0.125-2.468
		c0.073-1.647,0.249-3.29,0.337-4.937c0.072-1.363,0.09-2.729,0.115-4.094c0.049-2.769,0.096-5.538,0.127-8.307
		c0.029-2.434,0.037-4.867,0.054-7.301c0.016-2.08,0.089-4.163,0.027-6.24c-0.045-1.541-0.279-3.075-0.403-4.615
		c-0.14-1.749-0.295-3.499-0.361-5.252c-0.082-2.189-0.098-4.382-0.11-6.573c-0.008-1.47,0.042-2.939,0.062-4.409
		c0.005-0.351,0.001-0.702,0.001-0.976c-0.554-0.598-1.141-0.422-1.694-0.314c-0.948,0.186-1.882,0.447-2.833,0.611
		c-0.705,0.122-1.427,0.15-2.143,0.2c-0.802,0.056-1.567,0.188-2.229,0.829c-0.072,1.21-0.149,2.461-0.219,3.712
		c-0.164,2.922-0.662,5.788-1.548,8.573c-0.533,1.676-1.202,3.308-1.807,4.961c-0.343,0.938-0.676,1.88-1.015,2.823
		c0.261,0.202,0.422,0.327,0.582,0.452c1.398-0.402,1.899-1.736,2.969-2.699c0.054,0.367,0.136,0.619,0.12,0.864
		c-0.126,1.9-0.263,3.799-0.414,5.697c-0.2,2.51-0.4,5.02-0.628,7.528c-0.339,3.724-0.688,7.447-1.059,11.168
		c-0.388,3.899-0.805,7.795-1.223,11.823c-2.157,0.155-4.317-0.131-6.548-0.24c-0.092-0.828-0.164-1.64-0.275-2.447
		c-0.262-1.883-0.512-3.77-0.837-5.643c-0.088-0.502-0.347-1.03-0.673-1.424c-0.867-1.049-1.267-2.222-1.298-3.57
		c-0.047-1.975-0.232-3.949-0.202-5.92c0.038-2.587,0.223-5.172,0.356-7.758c0.207-3.986,0.416-7.972,0.641-11.957
		c0.046-0.82,0.165-1.636,0.461-2.501c0.13,0.378,0.284,0.75,0.39,1.136c0.493,1.811,1.191,3.538,2.056,5.202
		c0.172,0.33,0.339,0.653,0.962,0.432c-0.021-0.325,0.01-0.701-0.075-1.049c-0.341-1.395-0.788-2.768-1.065-4.175
		c-0.798-4.056-1.311-8.149-1.686-12.272c-0.301-3.293,0.168-6.532,0.216-9.796c0.022-1.511,0.094-3.021,0.157-4.53
		c0.015-0.354,0.09-0.705,0.139-1.072c0.184-0.039,0.321-0.095,0.458-0.092c3.227,0.061,6.451,0.142,9.678,0.188
		c1.222,0.018,2.442-0.056,3.664-0.066c0.644-0.005,1.293,0.095,1.932,0.049c2.687-0.193,5.369-0.438,8.056-0.63
		c0.676-0.049,1.37-0.044,2.037,0.054c2.807,0.407,5.608,0.856,8.41,1.299c0.314,0.05,0.62,0.159,1.005,0.261
		c0.076,0.716,0.169,1.423,0.223,2.134c0.083,1.075,0.105,2.156,0.214,3.229c0.183,1.801-0.39,3.492-0.722,5.214
		c-0.498,2.591-1.428,5.045-2.543,7.431c-0.836,1.788-1.671,3.577-2.494,5.339c0.219,0.435,0.545,0.457,0.821,0.219
		c0.349-0.299,0.676-0.647,0.928-1.03c1.202-1.828,2.494-3.604,3.354-5.637c0.048-0.115,0.177-0.196,0.468-0.257
		c-0.039,0.8-0.032,1.605-0.125,2.398c-0.46,3.929-0.927,7.856-1.428,11.779c-0.404,3.163-1.329,6.18-2.699,9.056
		C109.058,163.875,108.221,165.542,107.343,167.331z M81.371,178.32c1.611-1.173,2.466-2.954,3.268-5.114
		c1.325-3.576,2.229-7.28,2.54-11.101c0.062-0.751,0.041-1.509,0.02-2.263c-0.006-0.191-0.165-0.378-0.265-0.591
		c-0.236,0.034-0.438,0.062-0.709,0.1c-0.065,0.459-0.123,0.879-0.188,1.297c-0.082,0.532-0.124,1.076-0.262,1.592
		c-0.623,2.323-1.332,4.624-1.898,6.96c-0.578,2.388-1.435,4.581-3.31,6.281c-0.376,0.341-0.571,0.882-0.807,1.261
		C79.99,177.721,80.621,178.06,81.371,178.32z M80.103,186.273c0.399,0.487,0.28,1.24,1.073,1.16
		c1.596-1.153,3.409-4.167,3.89-6.663c0.158-0.822,0.696-1.674,0.195-2.555c-0.845,0.109-0.982,0.177-1.283,0.846
		c-0.367,0.816-0.716,1.643-1.023,2.484c-0.487,1.33-1.136,2.556-2.072,3.629C80.604,185.493,80.39,185.865,80.103,186.273z"/>
	<path fill-rule="evenodd" clip-rule="evenodd" fill="#d5ee20" class="fill" d="M119.188,50.512c0.426-1.008-0.621-1.437-0.738-2.297
		c0.36-0.095,0.726-0.191,1.129-0.298c0.63-0.616,0.192-1.502,0.469-2.222c1.105,0.031,3.821,1.274,9.219,4.219
		c-0.196,0.936-0.392,1.907-0.604,2.875c-0.414,1.896-0.88,3.781-1.248,5.686c-1.046,5.393-2.073,10.789-3.066,16.191
		c-0.429,2.331-0.763,4.68-1.13,7.022c-0.634,4.043-1.343,8.078-1.866,12.135c-0.446,3.46-1.158,6.863-1.778,10.287
		c-0.569,3.144-0.928,6.327-1.381,9.492c-0.034,0.243-0.085,0.483-0.15,0.843c-8.889,0.096-17.751,0.19-26.532,0.286
		c-1.009-1.337-1.048-2.826-1.013-4.337c0.071-3.126,0.103-6.254,0.204-9.379c0.112-3.483,0.245-6.966,0.442-10.445
		c0.15-2.652,0.379-5.302,0.637-7.946c0.146-1.499,0.414-2.986,0.639-4.477c0.04-0.273,0.139-0.539,0.238-0.916
		c0.777,0.506,1.388,1.175,2.329,1.102c0.99-0.078,1.271-0.966,1.914-1.636c0.601-0.066,1.302-0.145,2.116-0.235
		c-0.552-0.767-1.321-0.564-1.964-0.712c-0.969-1.12-0.969-1.12-2.872-1.375c3.024-3.933,6.998-6.678,11.025-9.662
		c0,1.302,0,2.45,0,3.651c0.379,0.077,0.648,0.16,0.924,0.185c1.786,0.156,3.572,0.325,5.361,0.442
		c2.043,0.134,4.089,0.216,6.134,0.325c1.29,0.069,2.579,0.153,3.869,0.221c1.024,0.053,2.052,0.127,3.054-0.243
		c0.305-2.166,0.616-4.258,0.889-6.355c0.23-1.781,0.419-3.567,0.622-5.352c0.081-0.714,0.203-1.435-0.287-2.157
		c-3.131-0.894-6.421-0.392-9.835-0.585c0.189-0.341,0.327-0.587,0.469-0.84c0.767,0.043,1.445,0.104,2.126,0.116
		c0.671,0.011,1.344-0.027,1.983-0.044c0.502-0.96,0.877-1.794,0.321-2.823c-0.651-0.077-1.325-0.147-1.997-0.237
		c-0.604-0.081-1.259,0.166-2.08-0.285C117.694,50.336,118.446,50.72,119.188,50.512z M94.956,80.287
		c-0.806,0.37-1.482,0.616-2.092,0.978c-0.608,0.361-0.823,0.896-0.55,1.468c0.271,0.565,0.636,1.141,1.105,1.542
		c0.812,0.692,1.735,0.626,2.545-0.067c0.375-0.322,0.685-0.72,0.991-1.048c0.649-0.271,1.445-0.021,2.034-0.797
		c-0.807-0.081-1.469-0.147-2.131-0.213c0.034-0.062,0.067-0.124,0.102-0.186C96.318,81.425,95.675,80.887,94.956,80.287z
		 M96.586,89.85c-0.686-1.464-1.685-2.036-2.86-1.667c-1.099,0.345-1.643,1.435-1.385,2.777c1.457,1.509,2.589,1.463,4.259-0.177
		c0.476-0.051,0.951-0.103,1.428-0.153c0-0.068,0.001-0.137,0.001-0.205C97.569,90.242,97.111,90.059,96.586,89.85z M94.116,94.584
		c-0.377,0.239-0.757,0.491-1.146,0.726c-0.768,0.461-0.986,1.188-0.99,2.017c-0.004,0.797,0.495,1.379,1.285,1.447
		c1.175,0.102,2.251-0.036,2.635-1.402c0.38,0.023,0.663,0.059,0.946,0.053c0.298-0.006,0.596-0.049,0.895-0.076
		c0.011-0.074,0.021-0.148,0.032-0.223c-0.572-0.252-1.145-0.505-1.724-0.76C95.576,95.367,95.576,95.367,94.116,94.584z
		 M110.99,91.03c-0.364-0.442-0.581-0.835-0.909-1.08c-1.389-1.033-3.561-0.094-3.854,1.627c-0.083,0.482,0.06,0.837,0.466,1.101
		c0.802,0.52,2.388,0.499,3.188-0.038c0.565-0.378,1.139-0.745,1.793-1.172C111.419,91.305,111.137,91.123,110.99,91.03z
		 M106.066,98.556c1.408,1.725,3.137,1.454,4.304-0.469c0.294-0.345,0.913-0.042,0.924-0.714c-0.339-0.107-0.671-0.212-1-0.317
		c-1.124-1.307-2.269-1.35-4.043-0.056C106.194,97.48,106.125,98.068,106.066,98.556z M110.699,82.453
		c-0.201-0.08-0.392-0.181-0.596-0.231c-0.276-0.069-0.562-0.113-0.846-0.145c-1.291-0.146-2.046,0.437-2.272,1.713
		c-0.117,0.664,0.04,1.228,0.591,1.62c0.524,0.374,1.126,0.521,1.719,0.175c0.518-0.303,0.991-0.682,1.56-1.08
		c0.352-0.106,0.802-0.243,1.253-0.38c-0.011-0.062-0.022-0.124-0.034-0.186c-0.358-0.131-0.715-0.261-1.053-0.383
		C110.906,83.167,110.807,82.825,110.699,82.453z M109.912,74.368c-0.438,0.081-0.867,0.132-1.281,0.242
		c-0.975,0.26-1.463,1.059-1.282,2.046c0.156,0.851,0.854,1.381,1.807,1.309c0.565-0.043,1.125-0.172,1.702-0.265
		c0.233-0.349,0.45-0.673,0.652-0.978c0.363-0.192,0.708-0.375,1.269-0.671c-0.55-0.153-0.814-0.228-1.11-0.311
		C111.359,75.001,110.8,74.544,109.912,74.368z"/>
	<path fill-rule="evenodd" clip-rule="evenodd" fill="#d5ee20" class="fill" d="M86.89,113.863c-0.971,0.174-6.139-0.602-8.246-1.236
		c-0.286-1.316-0.685-2.701-0.873-4.112c-0.404-3.023-0.771-6.056-1.021-9.095c-0.249-3.007-0.313-6.028-0.505-9.04
		c-0.09-1.435-0.34-2.858-0.421-4.292c-0.183-3.193-0.34-6.389-0.439-9.585c-0.081-2.658-0.106-5.319-0.082-7.979
		c0.018-2.047,0.158-4.093,0.23-6.14c0.075-2.083,0.208-4.169,0.177-6.252c-0.034-2.188-0.233-4.374-0.362-6.561
		c-0.011-0.178-0.036-0.355-0.056-0.545c0.833-0.431,1.676-0.813,2.464-1.286c1.663-0.998,3.29-2.057,4.947-3.065
		c0.721-0.438,1.479-0.812,2.419-1.323c-0.515,1.766-0.963,3.3-1.435,4.918c1.414,0.949,3.136,0.757,4.849,1.457
		c-0.544,0.277-0.885,0.486-1.252,0.631c-0.832,0.332-1.684,0.615-2.513,0.953c-0.327,0.134-0.641,0.333-0.916,0.557
		c-0.347,0.281-0.596,0.636-0.351,1.261c0.379,0.183,0.851,0.41,1.408,0.68c-0.23,0.304-0.452,0.597-0.701,0.925
		c0.389,0.695,1.078,0.92,1.748,1.129c3.456,1.077,6.802,3.02,9.68,5.683c-0.18,0.807-0.316,1.69-0.571,2.539
		c-1.011,3.372-2.124,6.716-3.063,10.107c-0.544,1.964-0.847,3.996-1.223,6.004c-0.33,1.765-0.643,3.534-0.909,5.31
		c-0.399,2.666-0.805,5.332-1.109,8.008c-0.419,3.678-0.777,7.363-1.101,11.051c-0.235,2.684-0.366,5.377-0.56,8.065
		C87.073,113.053,86.959,113.471,86.89,113.863z"/>
	<path fill-rule="evenodd" clip-rule="evenodd" fill="#d5ee20" class="fill" d="M110.725,48.904c1.442,1.171,3.251,1.615,5.006,2.248
		c-0.482,1.442-1.401,2.456-2.325,3.439c-2.143,2.282-4.486,4.349-6.942,6.293c-2.226,1.761-4.503,3.47-6.596,5.379
		c-1.88,1.715-3.544,3.666-5.294,5.521c-0.243,0.256-0.436,0.559-0.799,1.032c0.024-0.438,0.006-0.665,0.056-0.874
		c0.912-3.784,2.214-7.442,3.685-11.038c0.445-1.091,1.103-2.099,1.686-3.132c1.062-1.879,2.354-3.597,3.675-5.301
		c1.099-1.417,2.029-2.963,3.04-4.449c2.285-3.356,4.409-6.824,6.991-9.975c0.539-0.657,0.923-1.441,1.397-2.198
		c1.538,0.122,3.034,0.245,4.518,1.022c0.14,3.445-0.23,6.888-0.785,10.471c-2.446,0.399-4.859,0.795-7.273,1.189
		C110.75,48.656,110.738,48.78,110.725,48.904z"/>
	<path fill-rule="evenodd" clip-rule="evenodd" fill="#d5ee20" class="fill" d="M97.115,59.528c-1.704-1.18-3.325-2.297-4.939-3.425
		c-1.705-1.191-3.283-2.583-5.301-3.27c-0.158-0.054-0.288-0.192-0.467-0.317c1.203-0.619,2.392-1.146,3.488-1.82
		c1.069-0.659,2.289-1.217,2.797-2.625c-2.183-0.842-4.469-0.881-6.769-1.417c0.72-3.927,1.771-7.636,2.753-11.358
		c1.297-0.553,2.504-1.068,3.82-1.629c0.374,0.981,0.651,1.866,1.04,2.699c1.146,2.45,1.856,5.051,2.749,7.59
		c0.356,1.012,0.889,1.962,1.362,2.93c0.791,1.613,1.598,3.218,2.401,4.823c0.287,0.573,0.587,1.141,0.843,1.635
		C99.617,55.432,98.389,57.443,97.115,59.528z"/>
	<path fill-rule="evenodd" clip-rule="evenodd" fill="#d5ee20" class="fill" d="M135.663,77.688c-2.642,2.242-5.132,4.354-7.677,6.513
		c-0.047-0.176-0.137-0.36-0.14-0.546c-0.071-4.745-0.052-9.494-0.226-14.235c-0.141-3.783,0.696-7.422,1.275-11.105
		c0.15-0.957,0.353-1.905,0.546-2.854c0.157-0.773,0.286-1.559,0.521-2.31c0.266-0.854,0.634-1.676,1.104-2.4
		c0.797-0.804,1.593-1.608,2.497-2.521c0.599,1.843,0.876,3.725,1.252,5.687c-1.403,0.163-2.676,0.311-4.104,0.475
		c-0.089,0.777-0.272,1.548-0.25,2.314c0.076,2.694,0.218,5.386,0.344,8.078c0.053,1.113,0.126,2.225,0.199,3.337
		c0.024,0.355,0.081,0.708,0.126,1.092c1.289,0.887,2.848,1.023,4.338,1.707C135.534,73.171,135.6,75.46,135.663,77.688z"/>
	<path fill-rule="evenodd" clip-rule="evenodd" fill="#d5ee20" class="fill" d="M71.675,75.475c-1.35-1.479-2.7-2.955-4.035-4.417
		c0.093-2.784,4.067-17.868,5.206-20.849c0.091,0.431,0.191,0.687,0.189,0.941c-0.021,2.331-0.034,4.661-0.104,6.99
		c-0.064,2.113-0.187,4.225-0.309,6.336c-0.096,1.647-0.237,3.292-0.346,4.938c-0.11,1.683-0.203,3.368-0.304,5.051
		c-0.02,0.311-0.045,0.62-0.067,0.93C71.829,75.422,71.752,75.448,71.675,75.475z"/>
	<path fill-rule="evenodd" clip-rule="evenodd" fill="#d5ee20" class="fill" d="M65.887,80.481c0.041-0.463,0.067-0.775,0.102-1.176
		c0.197,0.075,0.345,0.09,0.434,0.171c1.223,1.111,2.429,2.242,3.661,3.341c0.265,0.235,0.626,0.361,1.055,0.6
		c0.102-0.597,0.172-1.006,0.241-1.415c0.067-0.007,0.134-0.015,0.2-0.021c0.025,0.281,0.092,0.566,0.069,0.844
		c-0.25,3.186-0.473,6.373-0.793,9.551c-0.14,1.388-0.508,2.751-0.731,4.131c-0.147,0.913-0.224,1.837-0.336,2.792
		c-1.892-0.201-3.488-0.98-5.161-1.751c0.079-2.447-0.221-4.843,0.262-7.403c0.451,0.399,0.812,0.723,1.179,1.042
		c0.759,0.661,1.51,1.331,2.287,1.968c0.172,0.141,0.44,0.163,0.725,0.26c0.337-0.939,0.647-1.803,1.001-2.788
		c-1.637-1.551-3.271-3.097-4.857-4.599c0.034-0.318,0.038-0.499,0.079-0.67c0.04-0.17,0.117-0.331,0.207-0.574
		c0.93,0.492,1.692,1.108,2.481,1.708c0.74,0.563,1.189,1.567,2.402,1.693c0.254-1.003,0.497-1.961,0.745-2.943
		C69.374,83.641,67.648,82.078,65.887,80.481z"/>
	<path fill-rule="evenodd" clip-rule="evenodd" fill="#d5ee20" class="fill" d="M107.282,191.288c-0.304-0.632-0.625-1.303-0.979-2.038
		c1.253-0.309,2.448-0.154,3.735-0.092c0.223,1.549,0.046,3.03,0.053,4.606c-1.757,0.238-3.431-0.019-5.097,0.024
		c-1.678,0.043-3.358,0.01-5.146,0.01c-0.163-1.442-0.322-2.849-0.496-4.385c1.353-0.145,2.584-0.278,3.838-0.413
		c0.424,0.603,0.796,1.173,1.211,1.709c0.307,0.394,0.63,0.796,1.018,1.101C106.079,192.33,106.789,192.123,107.282,191.288z"/>
	<path fill-rule="evenodd" clip-rule="evenodd" fill="#d5ee20" class="fill" d="M101.953,40.077c-0.818,1.014-1.604,1.983-2.45,3.029
		c-0.964-0.479-1.632-1.276-2.271-2.066c-0.947-1.174-1.736-2.43-2.104-3.951c-0.241-0.997-0.785-1.92-1.18-2.882
		c-0.229-0.559-0.43-1.13-0.659-1.737c0.431-0.651,0.836-1.267,1.386-2.098c0.271,0.657,0.453,1.099,0.636,1.537
		c0.538,1.29,1.039,2.597,1.621,3.866c0.876,1.916,2.301,3.267,4.313,3.965C101.475,39.82,101.688,39.948,101.953,40.077z"/>
	<path fill-rule="evenodd" clip-rule="evenodd" fill="#d5ee20" class="fill" d="M111.802,31.521c0.883,1.132,0.997,2.529,1.51,3.832
		c-1.533,3.027-3.989,5.178-6.623,7.255c-0.676-0.893-1.277-1.688-1.937-2.561c0.485-0.315,0.954-0.613,1.417-0.92
		c0.535-0.354,1.047-0.749,1.601-1.068c1.11-0.638,1.828-1.596,2.339-2.733C110.662,34.099,111.204,32.867,111.802,31.521z"/>
	<path fill-rule="evenodd" clip-rule="evenodd" fill="#d5ee20" class="fill" d="M84.625,195.055c-1.92-0.326-3.749-0.637-5.646-0.959
		c-0.249-1.325,0.126-2.651,0.141-4.098c2.203-0.072,4.285,0.214,6.5,0.402C85.526,192.056,85.074,193.537,84.625,195.055z"/>
	<path fill-rule="evenodd" clip-rule="evenodd" fill="#d5ee20" class="fill" d="M135.611,94.379c0,0.455,0,0.735,0,1.166
		c-1.965,1.399-3.978,2.831-6.131,4.364c0.104,0.436,0.241,1.003,0.356,1.482c0.799,0.312,1.275-0.1,1.76-0.366
		c1.16-0.639,2.291-1.33,3.439-1.989c0.175-0.101,0.381-0.146,0.648-0.244c0.141,1.133,0.364,2.175,0.129,3.302
		c-2.21,0.248-4.371,0.489-6.702,0.75c-0.125-1.57-0.235-2.978-0.344-4.349C131.398,97.645,133.222,95.703,135.611,94.379z"/>
	<path fill-rule="evenodd" clip-rule="evenodd" fill="#d5ee20" class="fill" d="M107.233,29.221c-0.249,1.086-0.502,2.185-0.74,3.225
		c-2.426,0.076-4.743,0.149-7.188,0.226c-0.089-1.147-0.176-2.255-0.264-3.362c0.086-0.021,0.171-0.042,0.257-0.064
		c0.258,0.93-0.021,2.151,1.213,2.622c0.808-0.857,0.469-1.906,0.687-2.794C102.188,28.737,106.094,28.819,107.233,29.221z"/>
	<path fill-rule="evenodd" clip-rule="evenodd" fill="#d5ee20" class="fill" d="M135.617,84.381c-2.366,2.21-4.765,4.452-7.162,6.692
		c-0.08-0.027-0.158-0.055-0.237-0.082c-0.04-0.911-0.082-1.821-0.129-2.867c2.43-2.161,4.898-4.36,7.528-6.699
		C135.617,82.489,135.617,83.327,135.617,84.381z"/>
	<path fill-rule="evenodd" clip-rule="evenodd" fill="#d5ee20" class="fill" d="M99.241,34.7c-0.044,0.528-0.088,1.057-0.14,1.697
		c-0.698-0.654-0.174-1.504-0.58-2.343c-0.315,0.454-0.533,0.769-0.806,1.162c-0.162-0.378-0.298-0.694-0.482-1.124
		c2.479-0.826,4.956-0.487,7.491-0.751c-0.272,2.103-0.521,4.035-0.771,5.968c-0.098,0.006-0.196,0.012-0.293,0.018
		c-0.045-0.237-0.121-0.473-0.128-0.71c-0.037-1.329-0.051-2.66-0.088-3.989c-0.007-0.259-0.084-0.516-0.128-0.773
		c-0.086,0.003-0.173,0.006-0.259,0.009c-0.151,1.649-0.303,3.299-0.455,4.948c-0.082,0.005-0.165,0.009-0.248,0.013
		c-0.208-1.521,0.301-3.151-0.69-4.598c-0.09,1.413-0.179,2.827-0.267,4.24c-0.08-0.001-0.158-0.001-0.237-0.001
		c-0.3-1.326,0.215-2.79-0.581-4.267c-0.517,1.116-0.166,2.115-0.438,3.139c-0.57-0.869,0.062-1.967-0.647-2.68
		C99.409,34.671,99.325,34.686,99.241,34.7z"/>
	<path fill-rule="evenodd" clip-rule="evenodd" fill="#d5ee20" class="fill" d="M131.825,60.425c-0.138-1.707-0.594-3.432-0.121-5.3
		c1.011-0.119,1.99-0.234,3.082-0.361c0.067,0.609,0.12,1.088,0.176,1.586c-0.738,0.326-1.422,0.627-2.26,0.997
		c-0.102,0.364-0.227,0.811-0.4,1.432c1.006,0.155,1.829,0.282,2.683,0.414c0,0.752,0,1.425,0,2.203
		C133.906,61.063,132.89,60.751,131.825,60.425z"/>
	<path fill-rule="evenodd" clip-rule="evenodd" fill="#d5ee20" class="fill" d="M135.479,90.454c-2.219,1.839-4.224,3.853-6.843,5.221
		c-0.059-0.248-0.122-0.467-0.161-0.692c-0.035-0.207-0.045-0.419-0.063-0.609c2.626-1.486,4.618-3.711,7.067-5.647
		C135.479,89.426,135.479,89.91,135.479,90.454z"/>
	<path fill-rule="evenodd" clip-rule="evenodd" fill="#d5ee20" class="fill" d="M135.597,79.224c0.036,0.415,0.061,0.686,0.083,0.957
		c-2.518,2.222-5.009,4.418-7.596,6.701c-0.348-0.878,0.143-1.349,0.568-1.769c1.048-1.032,2.129-2.032,3.225-3.014
		c0.827-0.741,1.687-1.446,2.554-2.142C134.756,79.696,135.14,79.508,135.597,79.224z"/>
	<path fill-rule="evenodd" clip-rule="evenodd" fill="#d5ee20" class="fill" d="M135.652,85.916c-0.054,0.737-0.092,1.27-0.129,1.778
		c-2.212,1.529-3.989,3.524-6.194,4.973c-0.069-0.038-0.138-0.077-0.207-0.116c0.055-0.29,0.077-0.592,0.175-0.867
		c0.056-0.156,0.223-0.278,0.354-0.4c1.816-1.685,3.635-3.368,5.457-5.048C135.205,86.146,135.34,86.098,135.652,85.916z"/>
	<path fill-rule="evenodd" clip-rule="evenodd" fill="#d5ee20" class="fill" d="M67.312,72.103c1.661,1.522,2.923,3.159,4.339,4.738
		c-0.105,0.391-0.202,0.757-0.347,1.291c-1.801-1.207-2.987-2.81-4.325-4.272C67.081,73.325,67.173,72.837,67.312,72.103z"/>
	<path fill-rule="evenodd" clip-rule="evenodd" fill="#d5ee20" class="fill" d="M65.462,83.579c0.111-0.679,0.206-1.262,0.327-1.996
		c1.476,1.326,2.848,2.559,4.295,3.859c-0.094,0.408-0.194,0.849-0.314,1.37C68.304,85.712,66.914,84.67,65.462,83.579z"/>
	<path fill-rule="evenodd" clip-rule="evenodd" fill="#d5ee20" class="fill" d="M65.304,87.364c1.236,1.111,2.474,2.223,3.718,3.342
		c-0.101,0.319-0.159,0.558-0.251,0.782c-0.075,0.19-0.189,0.365-0.375,0.712c-1.178-1.117-2.279-2.161-3.343-3.17
		c0-0.587,0-1.07,0-1.553C65.137,87.439,65.221,87.402,65.304,87.364z"/>
	<path fill-rule="evenodd" clip-rule="evenodd" fill="#d5ee20" class="fill" d="M122.067,55.855c0,0.519,0,0.934,0,1.52
		c-1.645-0.106-3.272-0.21-5.048-0.325c0.109-0.465,0.194-0.825,0.282-1.195C118.908,55.855,120.463,55.855,122.067,55.855z"/>
	<path fill-rule="evenodd" clip-rule="evenodd" fill="#d5ee20" class="fill" d="M66.52,76.128c0.021-0.34,0.021-0.519,0.049-0.693
		c0.016-0.096,0.081-0.184,0.138-0.305c0.11,0.036,0.232,0.038,0.294,0.099c1.035,1.035,2.037,2.105,3.106,3.104
		c0.42,0.394,0.986,0.635,1.657,1.052c0,0.417,0,1.034,0,1.846C69.952,79.469,68.238,77.801,66.52,76.128z"/>
	<path fill-rule="evenodd" clip-rule="evenodd" fill="#d5ee20" class="fill" d="M129.976,97.028c-0.448-0.525-0.274-0.812,0.042-1.059
		c1.695-1.322,3.393-2.64,5.093-3.956c0.077-0.059,0.188-0.073,0.373-0.143c0,0.496,0,0.942,0,1.493
		C133.689,94.558,131.845,95.785,129.976,97.028z"/>
	<path fill-rule="evenodd" clip-rule="evenodd" fill="#d5ee20" class="fill" d="M84.889,41.188c-0.344-1.104-0.628-2.018-0.938-3.019
		c0.792-0.485,1.537-0.942,2.455-1.505c-0.141,1.394-0.259,2.559-0.385,3.799C85.709,40.663,85.385,40.87,84.889,41.188z"/>
	<path fill-rule="evenodd" clip-rule="evenodd" fill="#d5ee20" class="fill" d="M110.749,63.441c0.092-0.651,0.154-1.096,0.238-1.694
		c1.257,0.083,2.447,0.161,3.707,0.244c0,0.543,0,0.983,0,1.45C113.386,63.441,112.154,63.441,110.749,63.441z"/>
	<path fill-rule="evenodd" clip-rule="evenodd" fill="#d5ee20" class="fill" d="M120.863,43.364c0.551-1.331,0.95-2.616,1.909-3.75
		c0.322,0.201,0.604,0.376,0.943,0.588c-0.561,1.231-1.085,2.388-1.65,3.631C121.644,43.669,121.299,43.534,120.863,43.364z"/>
	<path fill-rule="evenodd" clip-rule="evenodd" fill="#d5ee20" class="fill" d="M117.888,64.637c1.912,0.081,3.619,0.153,5.41,0.229
		c-0.046,0.323-0.077,0.544-0.111,0.778c-1.853,0-3.635,0-5.554,0C117.729,65.268,117.8,64.988,117.888,64.637z"/>
	<path fill-rule="evenodd" clip-rule="evenodd" fill="#d5ee20" class="fill" d="M106.087,37.89c0.071-1.377,0.144-2.754,0.219-4.226
		c1.174,0.094,2.155,0.306,3.033,1.047c-0.119,0.251-0.231,0.491-0.377,0.802c-0.215-0.292-0.372-0.505-0.561-0.762
		c-0.741,0.484-0.383,1.404-0.897,1.934c-0.316-0.675,0.371-1.455-0.344-2.121c-0.539,1.084-0.473,2.288-0.787,3.381
		C106.278,37.927,106.183,37.908,106.087,37.89z"/>
	<path fill-rule="evenodd" clip-rule="evenodd" fill="#d5ee20" class="fill" d="M130.341,47.725c-0.513-0.303-0.931-0.55-1.476-0.874
		c0.48-0.844,0.93-1.632,1.442-2.532c0.552,0.318,0.992,0.572,1.457,0.839C131.269,46.052,130.828,46.849,130.341,47.725z"/>
	<path fill-rule="evenodd" clip-rule="evenodd" fill="#d5ee20" class="fill" d="M118.841,66.614c0.096,0.251,0.152,0.347,0.163,0.446
		c0.011,0.103-0.025,0.211-0.039,0.309c-0.071,0.043-0.134,0.113-0.192,0.11c-2.077-0.104-4.153-0.211-6.229-0.331
		c-0.118-0.007-0.23-0.124-0.441-0.245c0.205-0.149,0.33-0.32,0.456-0.32C114.668,66.581,116.776,66.601,118.841,66.614z"/>
	<path fill-rule="evenodd" clip-rule="evenodd" fill="#d5ee20" class="fill" d="M111.871,65.585c0.097-0.417,0.172-0.739,0.249-1.074
		c1.248-0.229,2.399-0.156,3.603,0.173c0.039,0.266,0.08,0.533,0.137,0.901C114.527,65.585,113.271,65.585,111.871,65.585z"/>
	<path fill-rule="evenodd" clip-rule="evenodd" fill="#d5ee20" class="fill" d="M121.237,63.834c-1.055-0.054-1.972-0.102-3.033-0.157
		c0.097-0.522,0.173-0.925,0.257-1.373c0.901,0,1.738,0,2.676,0C121.17,62.808,121.197,63.225,121.237,63.834z"/>
	<path fill-rule="evenodd" clip-rule="evenodd" fill="#d5ee20" class="fill" d="M120.179,38.562c0.593,0.271,1.256-0.025,1.657,0.538
		c-0.608,1.151-1.203,2.271-1.797,3.392C119.83,41.193,119.877,39.935,120.179,38.562z"/>
	<path fill-rule="evenodd" clip-rule="evenodd" fill="#d5ee20" class="fill" d="M66.394,77.269c0.27,0.258,0.492,0.473,0.717,0.685
		c0.938,0.885,1.877,1.768,2.813,2.653c0.317,0.299,0.747,0.55,0.549,1.237c-0.315-0.211-0.56-0.338-0.762-0.515
		c-1.049-0.922-2.086-1.859-3.133-2.784C66.186,78.199,66.019,77.833,66.394,77.269z"/>
	<path fill-rule="evenodd" clip-rule="evenodd" fill="#d5ee20" class="fill" d="M78.044,45.054c-0.342,0.19-0.647,0.362-0.984,0.551
		c-0.764-0.666-1.318-1.407-1.479-2.491c0.332-0.195,0.66-0.388,1.099-0.646C77.131,43.322,77.553,44.123,78.044,45.054z"/>
	<path fill-rule="evenodd" clip-rule="evenodd" fill="#d5ee20" class="fill" d="M135.216,68.536c0.028,0.387,0.047,0.661,0.077,1.076
		c-1.188-0.046-2.135-0.596-3.208-0.958c-0.028-0.376-0.052-0.708-0.092-1.232C133.149,67.822,134.14,68.164,135.216,68.536z"/>
	<path fill-rule="evenodd" clip-rule="evenodd" fill="#d5ee20" class="fill" d="M116.219,59.874c-0.033,0.393-0.062,0.698-0.093,1.046
		c-1.006,0.299-1.94,0.136-2.96-0.055c0.026-0.391,0.048-0.732,0.082-1.239C114.26,59.711,115.201,59.789,116.219,59.874z"/>
	<path fill-rule="evenodd" clip-rule="evenodd" fill="#d5ee20" class="fill" d="M105.33,44.275c0.336,0.673,0.586,1.176,0.857,1.721
		c-0.407,0.603-0.801,1.185-1.323,1.96c-0.304-0.805-0.536-1.414-0.788-2.078C104.463,45.385,104.83,44.915,105.33,44.275z"/>
	<path fill-rule="evenodd" clip-rule="evenodd" fill="#d5ee20" class="fill" d="M125.761,41.59c0.429,0.284,0.66,0.438,0.954,0.633
		c-0.487,1.005-0.961,1.979-1.475,3.039c-0.339-0.149-0.608-0.269-1.016-0.449C124.747,43.717,125.229,42.706,125.761,41.59z"/>
	<path fill-rule="evenodd" clip-rule="evenodd" fill="#d5ee20" class="fill" d="M98.796,46.85c0.481-0.889,0.9-1.665,1.355-2.505
		c0.754,1.156,0.588,2.258-0.547,3.804C99.327,47.701,99.079,47.304,98.796,46.85z"/>
	<path fill-rule="evenodd" clip-rule="evenodd" fill="#d5ee20" class="fill" d="M135.581,96.508c0.06,0.445,0.096,0.71,0.139,1.03
		c-1.654,0.971-3.288,1.93-4.922,2.889c0.134-0.853,0.892-0.92,1.396-1.293c0.573-0.425,1.186-0.799,1.751-1.233
		C134.474,97.494,134.962,97.038,135.581,96.508z"/>
	<path fill-rule="evenodd" clip-rule="evenodd" fill="#d5ee20" class="fill" d="M117.493,62.124c0,0.556,0,0.975,0,1.483
		c-0.624,0-1.208,0-1.927,0c0.023-0.525,0.044-0.997,0.071-1.587C116.283,62.056,116.834,62.087,117.493,62.124z"/>
	<path fill-rule="evenodd" clip-rule="evenodd" fill="#d5ee20" class="fill" d="M117.173,59.93c0.766,0,1.453,0,2.232,0
		c-0.03,0.429-0.058,0.801-0.085,1.208c-0.802,0-1.53,0-2.422,0C116.999,60.691,117.078,60.344,117.173,59.93z"/>
	<path fill-rule="evenodd" clip-rule="evenodd" fill="#d5ee20" class="fill" d="M76.237,46.091c-0.317,0.15-0.598,0.282-0.946,0.447
		c-0.54-0.708-1.051-1.38-1.633-2.146c0.383-0.26,0.66-0.448,0.971-0.66C75.175,44.534,75.67,45.26,76.237,46.091z"/>
	<path fill-rule="evenodd" clip-rule="evenodd" fill="#d5ee20" class="fill" d="M135.084,63.84c-0.022,0.328-0.034,0.497-0.055,0.805
		c-1.072-0.363-2.064-0.7-3.121-1.057c0-0.241,0-0.498,0-0.903C133.016,63.089,134.01,63.45,135.084,63.84z"/>
	<path fill-rule="evenodd" clip-rule="evenodd" fill="#d5ee20" class="fill" d="M123.008,55.872c0.667,0.09,1.247,0.169,1.931,0.262
		c-0.066,0.477-0.117,0.844-0.167,1.197c-0.711,0-1.311,0-2.019,0C122.84,56.837,122.914,56.411,123.008,55.872z"/>
	<path fill-rule="evenodd" clip-rule="evenodd" fill="#d5ee20" class="fill" d="M128.711,43.395c0.371,0.216,0.548,0.319,0.801,0.466
		c-0.514,0.9-1.003,1.756-1.523,2.667c-0.25-0.172-0.415-0.287-0.682-0.471C127.77,45.182,128.212,44.341,128.711,43.395z"/>
	<path fill-rule="evenodd" clip-rule="evenodd" fill="#d5ee20" class="fill" d="M120.331,59.903c0.593,0,1.08,0,1.661,0
		c-0.065,0.474-0.122,0.882-0.187,1.354c-0.537,0-1.037,0-1.602,0C120.251,60.761,120.287,60.378,120.331,59.903z"/>
	<path fill-rule="evenodd" clip-rule="evenodd" fill="#d5ee20" class="fill" d="M121.958,63.729c0.058-0.522,0.1-0.904,0.147-1.329
		c0.509,0,0.953,0,1.559,0c-0.09,0.552-0.164,1.001-0.249,1.525C122.84,63.848,122.41,63.79,121.958,63.729z"/>
	<path fill-rule="evenodd" clip-rule="evenodd" fill="#d5ee20" class="fill" d="M124.471,58.3c-0.028,0.37-0.045,0.567-0.064,0.82
		c-0.996-0.065-1.938-0.126-3.133-0.204c0.25-0.329,0.366-0.615,0.49-0.619C122.642,58.265,123.521,58.291,124.471,58.3z"/>
	<path fill-rule="evenodd" clip-rule="evenodd" fill="#d5ee20" class="fill" d="M116.545,52.164c1.003-0.426,2.052-0.385,3.097-0.278
		c0.194,0.02,0.368,0.217,0.52,0.454C118.923,52.915,117.751,52.238,116.545,52.164z"/>
	<path fill-rule="evenodd" clip-rule="evenodd" fill="#d5ee20" class="fill" d="M124.666,40.711c0.157,0.173,0.248,0.272,0.352,0.386
		c-0.56,1.126-1.077,2.166-1.642,3.301C123.058,43.612,123.634,42.017,124.666,40.711z"/>
	<path fill-rule="evenodd" clip-rule="evenodd" fill="#d5ee20" class="fill" d="M80.57,43.515c-0.216,0.134-0.271,0.184-0.337,0.205
		c-0.064,0.021-0.14,0.016-0.307,0.029c-0.479-0.801-0.938-1.637-0.932-2.665C79.966,41.656,80.05,42.711,80.57,43.515z"/>
	<path fill-rule="evenodd" clip-rule="evenodd" fill="#d5ee20" class="fill" d="M93.917,76.009c0.621-0.982,1.219-0.958,1.936,0.02
		C95.395,76.844,94.817,76.854,93.917,76.009z"/>
	<path fill-rule="evenodd" clip-rule="evenodd" fill="#d5ee20" class="fill" d="M111.122,65.467c-0.681,0-1.175,0-1.77,0
		c0.083-0.404,0.151-0.73,0.222-1.078c0.562,0,1.051,0,1.662,0C111.193,64.792,111.159,65.123,111.122,65.467z"/>
	<path fill-rule="evenodd" clip-rule="evenodd" fill="#d5ee20" class="fill" d="M114.99,57.786c0,0.403,0,0.647,0,0.954c-0.661,0-1.284,0-2.086,0
		c0.292-0.423,0.503-0.73,0.74-1.076C114.093,57.705,114.511,57.743,114.99,57.786z"/>
	<path fill-rule="evenodd" clip-rule="evenodd" fill="#d5ee20" class="fill" d="M122.536,61.361c0.147-0.537,0.255-0.927,0.382-1.391
		c0.455,0.048,0.822,0.086,1.313,0.138c-0.114,0.497-0.203,0.887-0.305,1.333C123.472,61.415,123.095,61.393,122.536,61.361z"/>
	<path fill-rule="evenodd" clip-rule="evenodd" fill="#d5ee20" class="fill" d="M116.232,57.011c-0.624-0.083-1.097-0.145-1.727-0.229
		c0.244-0.422,0.412-0.713,0.573-0.992c0.44,0,0.815,0,1.303,0C116.333,56.192,116.294,56.521,116.232,57.011z"/>
	<path fill-rule="evenodd" clip-rule="evenodd" fill="#d5ee20" class="fill" d="M105.068,36.896c0-1.111,0-2.222,0-3.398
		c0.218,0.011,0.409,0.021,0.726,0.036c-0.191,1.181-0.371,2.281-0.55,3.382C105.186,36.909,105.127,36.902,105.068,36.896z"/>
	<path fill-rule="evenodd" clip-rule="evenodd" fill="#d5ee20" class="fill" d="M121.183,66.686c0.062,0.353,0.114,0.657,0.188,1.083
		c-0.542-0.032-1.014-0.06-1.584-0.092c0.059-0.396,0.102-0.689,0.146-0.991C120.392,66.686,120.771,66.686,121.183,66.686z"/>
	<path fill-rule="evenodd" clip-rule="evenodd" fill="#d5ee20" class="fill" d="M107.178,64.406c0.47-0.051,0.888-0.097,1.383-0.15
		c0,0.435,0,0.768,0,1.171c-0.464,0-0.875,0-1.383,0C107.178,65.079,107.178,64.756,107.178,64.406z"/>
	<path fill-rule="evenodd" clip-rule="evenodd" fill="#d5ee20" class="fill" d="M112.329,59.777c-0.02,0.395-0.034,0.702-0.053,1.054
		c-0.572,0-1.076,0-1.727,0C110.998,60.094,111.48,59.769,112.329,59.777z"/>
	<path fill-rule="evenodd" clip-rule="evenodd" fill="#d5ee20" class="fill" d="M131.577,61.661c0.999-0.31,3.162,0.436,3.54,1.212
		C133.923,62.465,132.875,62.106,131.577,61.661z"/>
	<path fill-rule="evenodd" clip-rule="evenodd" fill="#d5ee20" class="fill" d="M131.833,64.804c0.161-0.068,0.33-0.209,0.483-0.193
		c0.669,0.07,2.446,1.02,2.812,1.566C133.843,66.005,132.995,65.063,131.833,64.804z"/>
	<path fill-rule="evenodd" clip-rule="evenodd" fill="#d5ee20" class="fill" d="M78.959,44.615c-0.764-0.746-0.979-1.667-1.364-2.481
		c-0.042-0.087,0.134-0.277,0.219-0.441C78.429,42.329,79.009,43.753,78.959,44.615z"/>
	<path fill-rule="evenodd" clip-rule="evenodd" fill="#d5ee20" class="fill" d="M83.089,42.22c-0.373-0.05-0.627-0.02-0.669-0.1
		c-0.408-0.792-0.866-1.577-0.816-2.534C82.199,40.353,82.567,41.221,83.089,42.22z"/>
	<path fill-rule="evenodd" clip-rule="evenodd" fill="#d5ee20" class="fill" d="M108.674,66.412c0.026,0.316,0.045,0.516,0.068,0.79
		c-0.593,0-1.136,0-1.747,0c0-0.28,0-0.499,0-0.79C107.56,66.412,108.069,66.412,108.674,66.412z"/>
	<path fill-rule="evenodd" clip-rule="evenodd" fill="#d5ee20" class="fill" d="M135.018,67.291c-1.301-0.065-2.7-0.648-3.264-1.437
		C133.052,66.223,133.954,66.952,135.018,67.291z"/>
	<path fill-rule="evenodd" clip-rule="evenodd" fill="#d5ee20" class="fill" d="M83.186,38.626c0.305,1.032,0.568,1.923,0.895,3.029
		C82.92,40.516,82.572,39.326,83.186,38.626z"/>
	<path fill-rule="evenodd" clip-rule="evenodd" fill="#d5ee20" class="fill" d="M118.52,58.964c0.035-0.38,0.052-0.578,0.078-0.859
		c0.675,0.076,1.285,0.145,2.02,0.228C119.994,59.129,119.303,58.882,118.52,58.964z"/>
	<path fill-rule="evenodd" clip-rule="evenodd" fill="#d5ee20" class="fill" d="M80.306,40.39c0.782,0.663,1.014,1.567,1.182,2.501
		C80.887,42.152,80.362,41.381,80.306,40.39z"/>
	<path fill-rule="evenodd" clip-rule="evenodd" fill="#d5ee20" class="fill" d="M111.677,66.549c-0.624,0.962-1.325,0.525-1.969,0.619
		c-0.056-0.202-0.098-0.354-0.172-0.619C110.234,66.549,110.838,66.549,111.677,66.549z"/>
	<path fill-rule="evenodd" clip-rule="evenodd" fill="#d5ee20" class="fill" d="M123.143,66.683c-0.084,0.464-0.139,0.776-0.204,1.144
		c-0.351,0-0.683,0-1.066,0c0.113-0.417,0.206-0.755,0.312-1.144C122.481,66.683,122.746,66.683,123.143,66.683z"/>
	<path fill-rule="evenodd" clip-rule="evenodd" fill="#d5ee20" class="fill" d="M127.896,42.967c-0.467,0.891-0.935,1.781-1.468,2.796
		C126.258,44.764,126.981,43.312,127.896,42.967z"/>
	<path fill-rule="evenodd" clip-rule="evenodd" fill="#d5ee20" class="fill" d="M110.051,61.754c-0.081,0.641-0.148,1.165-0.23,1.817
		C109.092,62.813,109.16,62.332,110.051,61.754z"/>
	<path fill-rule="evenodd" clip-rule="evenodd" fill="#d5ee20" class="fill" d="M108.466,62.294c0,0.486,0,0.757,0,1.126
		c-0.376,0.016-0.73,0.032-1.083,0.047c-0.031-0.082-0.062-0.165-0.093-0.248C107.638,62.946,107.986,62.672,108.466,62.294z"/>
	<path fill-rule="evenodd" clip-rule="evenodd" fill="#d5ee20" class="fill" d="M134.949,57.319c0,0.398,0,0.623,0,0.941
		c-0.42-0.05-0.788-0.095-1.156-0.139c-0.02-0.067-0.039-0.135-0.058-0.203C134.099,57.738,134.464,57.559,134.949,57.319z"/>
	<path fill-rule="evenodd" clip-rule="evenodd" fill="#d5ee20" class="fill" d="M117.138,58.938c-0.078-0.48-0.191-0.852,0.491-0.791
		C117.764,58.539,117.782,58.827,117.138,58.938z"/>
	<path fill-rule="evenodd" clip-rule="evenodd" fill="#d5ee20" class="fill" d="M115.815,58.762c0.035-0.256,0.071-0.512,0.105-0.767
		c0.081,0.005,0.163,0.011,0.243,0.016c0,0.257,0,0.513,0,0.77C116.048,58.774,115.932,58.768,115.815,58.762z"/>
	<path fill-rule="evenodd" clip-rule="evenodd" fill="#d5ee20" class="fill" d="M116.893,64.777c-0.021,0.222-0.041,0.444-0.061,0.666
		c-0.052,0.009-0.104,0.018-0.155,0.028c-0.04-0.123-0.114-0.247-0.109-0.368c0.006-0.122,0.091-0.24,0.141-0.361
		C116.77,64.753,116.831,64.765,116.893,64.777z"/>
	<path fill-rule="evenodd" clip-rule="evenodd" fill="#d5ee20" class="fill" d="M100.441,23.979c0.035-0.269,0.058-0.439,0.086-0.648
		c-0.312-0.196-0.607-0.381-1.05-0.658c0.628-0.136,1.105-0.24,1.583-0.344c0.021-0.09,0.041-0.181,0.062-0.271
		c-0.464-0.283-0.927-0.565-1.413-0.861c0.774-0.281,3.971-0.253,4.89,0.06c-0.467,0.23-0.867,0.428-1.309,0.646
		c0.082,0.218,0.151,0.405,0.255,0.681c-0.382,0.266-0.777,0.542-1.259,0.878c0.206,0.145,0.349,0.321,0.517,0.349
		c0.564,0.093,1.137,0.171,1.708,0.185c3.357,0.077,6.478-0.72,9.3-2.585c0.106-0.07,0.224-0.123,0.392-0.117
		c-0.18,0.534-0.606,0.839-1.063,1.059c-2.51,1.203-5.107,2.171-7.915,2.295c-2.223,0.098-4.451,0.064-6.676,0.019
		c-2.431-0.049-4.172-1.386-5.601-3.21c-0.185-0.235-0.249-0.564-0.28-0.926c1.042,1.017,1.988,2.132,3.359,2.68
		C97.407,23.76,98.842,24.054,100.441,23.979z"/>
	<path fill-rule="evenodd" clip-rule="evenodd" fill="#d5ee20" class="fill" d="M118.77,10.462c-0.181-0.106-0.38-0.19-0.54-0.323
		c-1.565-1.292-3.432-1.865-5.353-2.403c-4.836-1.355-9.743-1.224-14.651-0.763c-2.528,0.237-4.876,1.166-6.937,2.719
		c-0.287,0.216-0.596,0.403-0.901,0.591c-0.083,0.052-0.196,0.056-0.512,0.138c0.147-0.321,0.181-0.583,0.32-0.665
		c1.266-0.748,2.522-1.517,3.839-2.167c0.797-0.394,1.689-0.597,2.545-0.867c3.218-1.015,6.506-0.998,9.811-0.631
		c1.714,0.19,3.427,0.394,5.13,0.656c1.573,0.244,3.058,0.803,4.462,1.543c0.822,0.435,1.61,0.941,2.397,1.439
		c0.221,0.139,0.387,0.363,0.578,0.547C118.896,10.34,118.833,10.401,118.77,10.462z"/>
	<path fill-rule="evenodd" clip-rule="evenodd" fill="#d5ee20" class="fill" d="M104.202,18.408c-0.445,0-0.732,0-1.091,0
		c-0.183-0.396-0.144-1.053-0.846-0.978c0.633-0.278,1.264-0.556,1.961-0.862c-0.436-0.81-1.219-0.546-1.817-0.887
		c0.479-0.255,0.876-0.466,1.3-0.692c-0.265-0.903-1.106-0.707-1.769-1.003c0.368-0.233,0.665-0.422,0.976-0.619
		c0.085-0.211,0.176-0.434,0.29-0.715c0.615-0.037,1.22-0.073,1.884-0.113c0.087,0.245,0.166,0.463,0.28,0.787
		c0.433,0.127,0.93,0.271,1.607,0.468c-0.836,0.295-1.518,0.536-2.24,0.791c0.308,0.949,1.15,0.577,1.79,0.981
		c-0.639,0.208-1.181,0.383-1.742,0.566c0.193,0.971,1.001,0.596,1.562,0.864C105.658,17.602,104.471,17.338,104.202,18.408z"/>
	<path fill-rule="evenodd" clip-rule="evenodd" fill="#d5ee20" class="fill" d="M113.703,18.842c-3.819,1.633-18.687,1.586-20.916-0.054
		c0.864,0.089,1.563,0.192,2.266,0.227c1.468,0.072,2.936,0.109,4.403,0.161c2.869,0.1,5.739,0.277,8.607,0.271
		c1.603-0.005,3.204-0.314,4.806-0.489C113.147,18.928,113.424,18.881,113.703,18.842z"/>
	<path fill-rule="evenodd" clip-rule="evenodd" fill="#d5ee20" class="fill" d="M112.478,10.988c1.256,0.719,2.693,3.361,3.199,5.642
		c-0.156,0.052-0.316,0.105-0.521,0.174C113.861,15.111,113.341,13.104,112.478,10.988z"/>
	<path fill-rule="evenodd" clip-rule="evenodd" fill="#d5ee20" class="fill" d="M91.941,17.792c-0.245-0.137-0.449-0.251-0.71-0.396
		c0.357-0.863,0.693-1.682,1.036-2.498c0.29-0.691,0.572-1.387,0.886-2.067c0.353-0.764,0.845-1.384,1.815-1.566
		C93.433,13.234,93.056,15.65,91.941,17.792z"/>
	<path fill-rule="evenodd" clip-rule="evenodd" fill="#d5ee20" class="fill" d="M94.326,81.376c0.387,0.069,0.782,0.138,1.3,0.231
		c-0.114,0.543-0.204,0.965-0.32,1.518c-0.479-0.135-0.836-0.235-1.105-0.311C93.751,82.299,93.813,81.899,94.326,81.376z"/>
	<path fill-rule="evenodd" clip-rule="evenodd" fill="#d5ee20" class="fill" d="M95.437,89.598c-0.396,0.515-0.847,0.861-1.542,0.822
		c-0.313-0.583,0.012-0.948,0.427-1.15C94.664,89.102,95.154,88.87,95.437,89.598z"/>
	<path fill-rule="evenodd" clip-rule="evenodd" fill="#d5ee20" class="fill" d="M95.072,96.411c-0.983,0.928-1.172,0.956-1.902,0.298
		c0.028-0.546,0.313-0.914,0.873-1.01C94.556,95.612,94.955,95.775,95.072,96.411z"/>
	<path fill-rule="evenodd" clip-rule="evenodd" fill="#d5ee20" class="fill" d="M109.414,91.119c-0.209,0.251-0.429,0.515-0.73,0.877
		c-0.348-0.25-0.639-0.458-0.879-0.63c-0.002-0.626,0.27-0.915,0.747-0.997C109.007,90.29,109.307,90.479,109.414,91.119z"/>
	<path fill-rule="evenodd" clip-rule="evenodd" fill="#d5ee20" class="fill" d="M107.995,98.388c-0.293-0.258-0.562-0.493-0.936-0.823
		c0.621-0.334,1.096-0.59,1.577-0.849C109.03,97.572,108.986,97.69,107.995,98.388z"/>
	<path fill-rule="evenodd" clip-rule="evenodd" fill="#d5ee20" class="fill" d="M108.006,83.729c0.893-0.986,0.957-1.003,1.788-0.66
		c-0.06,0.61-0.438,0.913-1.178,1.224C108.423,84.115,108.23,83.938,108.006,83.729z"/>
	<path fill-rule="evenodd" clip-rule="evenodd" fill="#d5ee20" class="fill" d="M109.505,76.919c-0.33-0.474-0.554-0.796-0.768-1.103
		c0.911-0.845,1.346-0.83,1.981,0.078C110.371,76.188,110.016,76.489,109.505,76.919z"/>
</g>
<g id="Layer_2" display="none">
</g>
</svg>
