<svg version="1.1" id="svg" xmlns="http://www.w3.org/2000/svg" xmlns:xlink="http://www.w3.org/1999/xlink" x="0px" y="0px"
	 width="200px" height="200px" viewBox="0 0 200 200" enable-background="new 0 0 200 200" xml:space="preserve">
<path class="stroke" fill="#401f5b"  fill-rule="evenodd" clip-rule="evenodd" d="M129.147,142.53c-1.288,1.331-3.115,2.355-5.056,3.162
	c-2.089,0.868-4.317,0.937-6.551,1.008c-2.011,0.065-4.015,0.324-6.025,0.446c-3.599,0.218-7.236,0.716-10.716-0.679
	c-2.241-0.899-3.913-2.438-5.117-4.607c-1.229-2.212-1.583-4.593-1.924-6.92c-0.833,0.139-1.646,0.309-2.467,0.399
	c-0.541,0.058-1.096,0.029-1.641-0.01c-2.522-0.176-5.048-0.319-7.563-0.571c-2.335-0.235-4.659-0.583-6.985-0.896
	c-2.574-0.345-5.143-0.73-7.719-1.055c-3.028-0.382-6.058-0.762-9.094-1.064c-3.566-0.355-7.141-0.628-10.822-0.946
	c-0.232,0.896-0.401,1.775-0.692,2.614c-0.403,1.163-0.819,2.334-1.385,3.421c-0.269,0.517-0.836,0.961-1.371,1.242
	c-2.129,1.12-4.426,1.608-6.829,1.716c-1.153,0.052-2.292,0.419-3.443,0.456c-1.323,0.042-2.651-0.116-3.977-0.207
	c-1.081-0.073-2.162-0.152-3.239-0.267c-2.052-0.22-3.878-0.977-5.254-2.543c-2.121-2.415-3.113-5.268-3.084-8.483
	c0.015-1.652,0.002-3.305,0.002-5.019c-0.416-0.05-0.985-0.119-1.517-0.183c-0.497,0.42-0.931,0.845-1.421,1.189
	c-0.784,0.551-1.677,0.328-2.556,0.325c-1.483-0.006-2.98,0.013-4.444,0.214c-1.668,0.229-3.168-0.15-4.585-0.92
	c-0.323-0.176-0.602-0.724-0.622-1.116c-0.094-1.806-0.101-3.616-0.112-5.426c-0.004-0.53,0.105-1.058,0.118-1.588
	c0.042-1.702,0.711-2.625,2.385-3.145c0.101-1.088,0.272-2.213,0.297-3.341c0.08-3.584,0.128-7.167,0.139-10.752
	c0.007-2.32-0.182-4.646-0.089-6.962c0.185-4.645,0.405-9.294,0.821-13.923c0.127-1.401,0.823-2.804,1.475-4.096
	c1.81-3.587,3.619-7.185,5.653-10.646c1.465-2.493,3.34-4.743,4.939-7.164c1.458-2.208,3.588-3.669,5.585-5.277
	c1.023-0.823,2.322-1.096,3.61-1.223c3.287-0.324,6.575-0.621,9.866-0.897c2.214-0.185,4.436-0.294,6.649-0.48
	c1.884-0.158,3.76-0.408,5.645-0.562c1.853-0.151,3.714-0.219,5.57-0.35c1.203-0.084,2.401-0.246,3.604-0.322
	c1.986-0.125,3.977-0.184,5.961-0.319c1.475-0.101,2.942-0.293,4.416-0.419c2.553-0.219,5.104-0.47,7.662-0.611
	c3.605-0.198,7.214-0.331,10.823-0.449c2.862-0.092,5.728-0.101,8.59-0.187c1.301-0.04,2.598-0.204,3.899-0.266
	c2.472-0.118,4.945-0.178,7.415-0.311c1.76-0.095,3.515-0.287,5.273-0.406c1.055-0.072,2.114-0.078,3.171-0.135
	c0.445-0.024,0.887-0.113,1.331-0.162c1.996-0.218,3.9-0.076,5.811,0.749c2.079,0.897,3.924,2.151,5.866,3.261
	c0.501,0.287,1.038,0.52,1.577,0.728c2.307,0.885,4.331,2.206,6.227,3.783c1.549,1.291,3.192,2.475,4.833,3.65
	c1.842,1.322,3.74,2.564,5.591,3.874c1.727,1.222,3.447,2.454,5.126,3.737c3.182,2.433,6.346,4.89,9.491,7.37
	c1.898,1.496,3.72,3.088,5.623,4.578c2.106,1.649,4.285,3.204,6.397,4.844c1.695,1.316,3.396,2.636,4.991,4.068
	c1.686,1.515,3.282,3.136,4.854,4.771c0.694,0.723,1.249,1.584,1.838,2.403c1.563,2.172,3.262,4.266,4.627,6.557
	c1.655,2.777,2.937,5.752,3.186,9.062c0.076,1.004,0.249,2,0.387,3.068c1.437,0.5,1.769,1.879,1.937,3.178
	c0.36,2.796,0.661,5.613,0.741,8.428c0.065,2.254-0.168,4.524-0.408,6.773c-0.056,0.528-0.565,1.182-1.049,1.459
	c-1.478,0.848-3.014,1.612-4.583,2.28c-2.89,1.229-5.807,2.397-8.737,3.525c-1.147,0.442-2.358,0.718-3.545,1.053
	c-2.375,0.669-4.752,1.33-7.13,1.984c-1.505,0.414-3.014,0.811-4.524,1.208c-1.501,0.394-2.993,0.831-4.509,1.149
	c-2.337,0.491-4.682,0.956-7.041,1.325c-2.336,0.366-4.686,0.724-7.043,0.852c-2.256,0.123-4.528-0.028-6.792-0.108
	c-1.515-0.054-3.026-0.189-4.538-0.299c-1.786-0.129-3.571-0.27-5.356-0.407C130.876,142.669,130.158,142.61,129.147,142.53z
	 M175.752,85.288c0.034-0.073,0.069-0.146,0.103-0.221c-0.222-0.19-0.442-0.382-0.666-0.57c-2.477-2.082-4.997-4.115-7.421-6.258
	c-3.643-3.219-7.457-6.212-11.463-8.962c-0.271-0.186-0.643-0.265-0.979-0.311c-2.305-0.315-4.195,0.616-5.9,2.034
	c-1.161,0.966-2.048,2.108-2.012,3.726c0.03,1.336,0.001,2.681,0.148,4.006c0.155,1.396,0.45,2.778,0.756,4.151
	c0.181,0.812,0.681,1.46,1.422,1.882c0.566,0.322,1.146,0.619,1.809,0.976c2.208-0.346,4.513-0.751,6.83-1.061
	c2.839-0.378,5.652-0.411,8.198,1.227c0.516,0.332,1.007,0.233,1.581,0.12c1.575-0.31,3.168-0.549,4.765-0.721
	C173.856,85.207,174.808,85.288,175.752,85.288z"/>
<path fill-rule="evenodd" clip-rule="evenodd" fill="#78eced" class="fill" d="M182.24,103.805c-0.388,0.038-0.715,0.043-1.031,0.104
	c-2.595,0.505-5.185,1.037-7.783,1.528c-3.07,0.581-6.146,1.129-9.22,1.692c-2.424,0.444-4.843,0.913-7.273,1.324
	c-1.017,0.172-2.057,0.196-3.079,0.341c-0.323,0.046-0.622,0.263-0.917,0.395c-0.031,0.472-0.056,0.846-0.08,1.222
	c0.269,0.299,0.521,0.579,0.773,0.859c0.471,0.518,0.977,0.7,1.739,0.59c3.336-0.475,6.692-0.803,10.028-1.274
	c3.493-0.493,7.01-0.875,10.408-1.892c1.954-0.585,3.922-1.127,5.862-1.753c0.297-0.095,0.501-0.526,0.707-0.83
	c0.096-0.143,0.092-0.354,0.307-0.51c-0.036,0.686-0.072,1.371-0.106,2.022c-0.442,0.155-0.855,0.325-1.284,0.445
	c-0.793,0.222-1.588,0.449-2.394,0.615c-3.43,0.704-6.861,1.409-10.3,2.071c-2.595,0.499-5.201,0.947-7.807,1.395
	c-1.117,0.19-2.255,0.267-3.36,0.505c-0.483,0.104-0.907,0.483-1.378,0.75c0.053,0.295,0.042,0.511,0.13,0.671
	c0.421,0.77,1.887,1.369,2.759,1.192c2.815-0.566,5.612-1.317,8.457-1.625c4.914-0.536,9.552-2.047,14.217-3.516
	c0.281-0.088,0.563-0.173,0.951-0.292c0.103,0.722,0.193,1.352,0.26,1.824c-1.282,0.385-2.477,0.816-3.706,1.098
	c-2.183,0.498-4.385,0.916-6.583,1.348c-2.273,0.447-4.559,0.832-6.823,1.317c-1.942,0.417-3.872,0.906-5.787,1.433
	c-0.541,0.149-1.013,0.547-1.486,0.812c0.2,0.733,0.345,1.265,0.515,1.889c0.234,0.172,0.528,0.388,0.738,0.543
	c2.55-1.02,5.115-1.409,7.664-1.888c2.226-0.419,4.438-0.915,6.645-1.428c1.914-0.445,3.825-0.917,5.711-1.465
	c1.214-0.353,2.381-0.869,3.634-1.336c0.029,0.054,0.148,0.267,0.303,0.545c-1.112,0.518-2.15,1.093-3.253,1.491
	c-1.891,0.686-3.808,1.31-5.74,1.87c-2.592,0.753-5.229,1.276-7.922,1.574c-2.227,0.247-4.425,0.739-6.637,1.118
	c-0.321,0.056-0.646,0.088-1.052,0.143c-0.358-0.872-0.699-1.728-1.059-2.575c-0.772-1.818-2.024-3.31-3.336-4.743
	c-1.621-1.774-3.34-3.466-5.496-4.585c-1.608-0.835-3.27-1.583-4.953-2.26c-1.417-0.571-2.873-1.091-4.357-1.434
	c-1.052-0.243-2.18-0.188-3.276-0.205c-1.426-0.022-2.86-0.195-4.253,0.372c-0.681,0.277-1.009,0.65-1.017,1.397
	c-0.022,2.374-0.167,4.749-0.11,7.12c0.049,2.017,0.312,4.028,0.476,6.042c0.016,0.188,0.002,0.378,0.002,0.672
	c-1.306-0.121-2.554-0.198-3.79-0.363c-0.819-0.111-1.634-0.306-2.426-0.546c-0.511-0.155-1.04-0.384-1.451-0.717
	c-1.906-1.537-3.678-3.26-5.677-4.66c-3.4-2.38-7.175-3.65-11.412-3.021c-1.763,0.262-3.529,0.5-5.29,0.777
	c-1.777,0.281-3.309,1.159-4.848,2.03c-2.067,1.168-3.803,2.745-5.485,4.385c-0.427,0.416-0.729,0.96-1.083,1.451
	c-0.173,0.241-0.333,0.492-0.492,0.73c-1.357-0.162-2.646-0.315-4.007-0.477c0-3.141,0-6.208,0-9.384
	c1.462-0.139,2.884-0.274,4.274-0.407c1.157-1.116,0.353-2.633,0.98-3.926c1.383-0.695,3.013-0.6,4.564-0.659
	c2.924-0.108,5.861-0.073,8.786,0.049c3.096,0.13,6.192,0.356,9.274,0.683c2.33,0.248,4.672,0.572,6.942,1.132
	c2.679,0.66,5.442,1.112,7.92,2.457c0.352,0.191,0.803,0.2,1.166,0.283c0.834-1.266,0.641-6.178-0.324-7.072
	c-14.24-0.459-28.598,0.563-43.021,0.027c-0.039-0.62-0.121-1.36-0.126-2.101c-0.018-2.399-0.029-4.799-0.003-7.198
	c0.025-2.342,0.088-4.684,0.157-7.025c0.033-1.13,0.109-2.259,0.178-3.388c0.183-3.022,0.394-6.044,0.552-9.068
	c0.097-1.867,0.085-3.739,0.183-5.605c0.112-2.143,0.331-4.28,0.432-6.422c0.109-2.34,0.125-4.685,0.203-7.027
	c0.078-2.317,0.178-4.634,0.285-6.95c0.012-0.266,0.13-0.527,0.216-0.859c1.69-0.089,3.354-0.157,5.016-0.268
	c3.178-0.213,6.353-0.467,9.531-0.67c1.818-0.118,3.64-0.163,5.459-0.254c2.474-0.124,4.95-0.399,7.422-0.36
	c3.718,0.058,7.422,0.216,10.495,2.89c2.416,2.104,5.369,3.398,8.174,4.906c1.33,0.715,2.593,1.565,3.835,2.43
	c3.779,2.625,7.54,5.276,11.291,7.942c1.329,0.944,2.606,1.959,3.907,2.943c-0.025,0.076-0.049,0.152-0.073,0.229
	c-0.916,0.06-1.83,0.16-2.746,0.172c-2.598,0.035-5.2-0.056-7.792,0.067c-3.856,0.183-7.706,0.505-11.558,0.771
	c-1.105,0.076-2.212,0.135-3.315,0.242c-3.641,0.355-7.285,0.691-10.92,1.11c-1.833,0.21-3.386,1.176-4.827,2.25
	c-1.203,0.895-1.404,2.572-0.464,3.877c1.654,2.294,3.41,4.515,5.096,6.786c0.978,1.317,1.789,2.778,2.878,3.992
	c2.294,2.556,4.691,5.024,7.127,7.446c0.417,0.416,1.258,0.639,1.869,0.582c2.664-0.25,5.329-0.555,7.967-0.993
	c3.703-0.615,7.378-1.396,11.076-2.047c3.852-0.677,7.717-1.278,11.575-1.92c1.791-0.298,3.571-0.667,5.369-0.904
	c1.977-0.261,3.969-0.401,5.954-0.605c1.504-0.155,3.004-0.373,4.511-0.477c1.128-0.077,2.265-0.016,3.502-0.016
	c2.16,1.616,6.339,6.792,7.818,9.775c-2.641,1.75-3.099,4.692-3.942,7.594c-0.041-0.312-0.047-0.5-0.094-0.676
	C182.438,104.275,182.351,104.094,182.24,103.805z M105.069,97.452c0.085,0.621,0.181,1.141,0.225,1.664
	c0.071,0.852,0.519,1.345,1.304,1.666c1.625,0.661,3.327,0.836,5.045,0.83c0.572-0.003,1.163-0.275,1.709-0.508
	c0.917-0.39,1.059-1.267,1.142-2.131c0.151-0.039,0.245-0.079,0.341-0.084c1.305-0.062,2.612-0.109,3.917-0.188
	c0.209-0.013,0.451-0.121,0.607-0.263c0.33-0.3,0.633-0.635,0.905-0.988c0.169-0.221,0.26-0.503,0.386-0.757
	c-0.074,0.005-0.15,0.008-0.226,0.012c-0.569-1.12-1.138-2.24-1.76-3.463c0.62-0.104,1.07-0.181,1.697-0.287
	c-0.083-0.817-0.158-1.56-0.233-2.299c-0.805-0.138-1.446-0.235-2.082-0.362c-0.513-0.102-1.207-0.072-1.49-0.394
	c-0.67-0.756-1.236-1.642-1.663-2.561c-0.31-0.666-0.377-1.462-0.467-2.21c-0.094-0.787-0.458-1.249-1.245-1.371
	c-0.323-0.05-0.654-0.081-0.963-0.178c-0.247-0.077-0.548-0.185-0.682-0.378c-0.598-0.873-1.149-1.78-1.709-2.681
	c-0.59-0.948-1.17-1.902-1.754-2.854c-0.122,0.129-0.244,0.257-0.366,0.386c-0.158-0.392-0.254-0.826-0.486-1.167
	c-0.564-0.832-1.159-1.649-1.804-2.42c-1.083-1.293-2.325-2.316-4.183-2.097c-0.5,0.058-1.004,0.085-1.508,0.113
	c-2.533,0.14-5.1-0.086-7.58,0.631c-1.317,0.381-2.614,0.838-3.901,1.314c-0.237,0.088-0.471,0.404-0.55,0.662
	c-0.198,0.65-0.408,1.323-0.434,1.993c-0.085,2.221-0.123,4.443-0.119,6.665c0.004,2.469,0.054,4.94,0.126,7.409
	c0.037,1.312,0.116,2.625,0.267,3.927c0.121,1.041,0.793,1.533,1.828,1.513c0.149-0.004,0.301-0.002,0.45,0.016
	c1.677,0.197,3.35,0.501,5.032,0.575c2.647,0.118,5.302,0.075,7.954,0.118C103.525,97.318,104.253,97.397,105.069,97.452z
	 M89.08,69.791c0.955,0.752,15.682,0.177,17.201-0.759c-0.182-0.495-0.323-1.053-0.586-1.547c-0.317-0.6-0.75-1.137-1.112-1.714
	c-2.146-3.422-4.26-6.865-6.791-10.027c-2.022-2.527-4.083-5.005-6.997-6.684c-0.268,0.124-0.552,0.255-1.115,0.516
	c3.13,2.252,5.436,5.021,7.68,7.862c2.276,2.88,4.08,6.05,6.055,9.228c-0.266,0.027-0.386,0.044-0.507,0.049
	c-2.041,0.097-4.082,0.165-6.121,0.294c-1.813,0.114-3.621,0.396-5.433,0.418C89.222,67.454,88.973,67.615,89.08,69.791z"/>
<path fill-rule="evenodd" clip-rule="evenodd" fill="#78eced" class="fill" d="M49.045,71.834c-0.231,1.61-0.547,3.15-0.653,4.706
	c-0.167,2.467-0.194,4.943-0.28,7.415c-0.036,1.037-0.128,2.073-0.097,3.107c0.114,3.733,0.284,7.466,0.403,11.199
	c0.044,1.401,0.007,2.804,0.007,4.135c-1.948,0-3.763-0.003-5.58,0c-3.364,0.005-6.729,0.054-10.093,0.003
	c-2.019-0.031-4.035-0.233-6.054-0.329c-0.929-0.044-1.861-0.023-2.792-0.02c-3.667,0.021-7.333,0.04-11.001,0.08
	c-0.604,0.007-1.209,0.103-1.81,0.187c-0.939,0.132-1.327,0.861-1.437,1.641c-0.354,2.478-0.621,4.969-0.034,7.599
	c0.252,0.03,0.529,0.096,0.804,0.086c1.257-0.043,2.513-0.121,3.771-0.162c0.906-0.03,1.695-0.318,2.283-1.011
	c1.505-1.775,3.42-2.968,5.488-3.964c2.907-1.401,6.032-1.779,9.168-1.62c2.245,0.114,4.49,0.647,6.687,1.188
	c3.175,0.784,6.153,2.106,8.955,3.803c0.491,0.298,0.935,0.675,1.316,0.954c0,2.299,0,4.506,0,6.781c-0.874,0-1.645,0-2.333,0
	c-1.18-1.955-2.249-3.908-3.494-5.742c-1.397-2.055-3.458-3.336-5.662-4.422c-3.312-1.633-6.637-1.444-9.981-0.183
	c-1.531,0.578-3.129,1.063-4.53,1.876c-1.647,0.957-3.139,2.191-4.646,3.372c-0.77,0.604-1.426,1.068-2.547,0.899
	c-1.86-0.281-3.762-0.274-5.646-0.393c-0.199-0.013-0.396-0.052-0.667-0.089c-0.103-1.086-0.272-2.162-0.293-3.24
	c-0.065-3.185-0.122-6.37-0.088-9.554c0.036-3.513,0.161-7.023,0.272-10.534c0.086-2.722,0.187-5.444,0.326-8.164
	c0.144-2.826,0.706-5.516,2.221-8c1.76-2.884,3.332-5.883,4.991-8.829c1-1.775,1.924-3.601,3.038-5.303
	c1.125-1.719,2.352-3.394,3.703-4.939c1.167-1.334,2.811-1.84,4.588-1.996c2.26-0.197,4.508-0.553,6.767-0.781
	c4.143-0.418,8.288-0.807,12.435-1.178c2.188-0.197,4.383-0.332,6.575-0.489c0.248-0.018,0.498-0.003,0.837-0.003
	c-0.088,0.501-0.165,0.93-0.26,1.462c-0.594,0.045-1.164,0.103-1.735,0.13c-2.599,0.126-5.199,0.234-7.797,0.367
	c-2.315,0.117-4.634,0.213-6.945,0.399c-3.715,0.3-7.455,0.408-11.112,1.225c-0.471,0.105-0.911,0.348-1.335,0.515
	c0.037,0.736,0.391,0.95,0.917,0.885c1.124-0.138,2.241-0.34,3.367-0.458c1.579-0.165,3.164-0.279,4.746-0.414
	c2.013-0.171,4.023-0.365,6.038-0.508c2.291-0.162,4.585-0.283,6.88-0.411c1.737-0.096,3.475-0.178,5.213-0.26
	c0.368-0.017,0.737-0.002,1.089-0.002c-1.117,5.271-2.21,10.431-3.325,15.695c-2.257,0-4.4-0.035-6.54,0.008
	c-3.083,0.062-6.165,0.189-9.248,0.271c-3.006,0.08-6.015,0.105-9.019,0.22c-2.347,0.09-4.693,0.241-7.033,0.442
	c-1.088,0.094-2.178,0.302-3.232,0.587c-0.854,0.233-1.192,0.903-1.1,1.749c0.079,0.729,0.64,1.403,1.412,1.423
	c2.019,0.053,4.046,0.11,6.058-0.021c2.565-0.167,5.113-0.599,7.678-0.767c2.795-0.183,5.601-0.234,8.403-0.268
	c2.246-0.026,4.495,0.126,6.739,0.07c1.652-0.041,3.3-0.292,4.949-0.446C48.84,71.811,48.913,71.825,49.045,71.834z M10.733,93.589
	c0.153,1.271,0.327,2.902,0.552,4.527c0.123,0.885,0.702,1.404,1.539,1.691c1.616,0.553,3.279,0.46,4.948,0.465
	c3.507,0.009,7.014,0.065,10.521,0.142c3.159,0.068,6.316,0.227,9.476,0.267c1.501,0.02,3.008-0.108,4.508-0.234
	c2.082-0.174,2.973-1.717,3.563-3.415c0.325-0.933,0.428-1.977,0.454-2.976c0.099-3.94,0.167-7.881,0.164-11.821
	c-0.001-2.016-0.022-4.055-0.738-5.987c-0.178-0.479-0.384-1.065-0.766-1.329c-0.976-0.674-2.047-1.101-3.315-1.105
	c-2.748-0.011-5.496-0.248-8.244-0.242c-2.84,0.007-5.682,0.148-8.518,0.309c-2.863,0.163-5.705,0.537-8.589,0.504
	c-2.08-0.023-3.724,1.065-4.369,3.138c-0.387,1.243-0.583,2.576-0.657,3.878C11.035,85.334,10.912,89.275,10.733,93.589z"/>
<path fill-rule="evenodd" clip-rule="evenodd" fill="#78eced" class="fill" d="M77.577,108.836c0.261,1.311,0.856,1.887,2.166,1.939
	c1.209,0.046,2.424-0.026,3.635-0.044c0.274-0.004,0.546-0.001,0.893-0.001c0,3.121,0,6.171,0,9.331
	c-11.546-1.651-23.107-2.272-34.748-2.624c0-1.942-0.036-3.846,0.01-5.747c0.044-1.863,0.21-3.723,0.252-5.586
	c0.064-2.855,0.126-5.713,0.082-8.568c-0.063-4.159-0.292-8.315-0.316-12.475c-0.022-3.834,0.103-7.672,0.785-11.466
	c0.088-0.495,0.16-0.993,0.25-1.487c0.016-0.086,0.086-0.162,0.218-0.399c0.121,0.417,0.198,0.688,0.312,1.082
	c0.285,0.101,0.638,0.226,0.974,0.344c0.226-0.27,0.37-0.442,0.491-0.587c1.668-0.076,3.307-0.146,4.945-0.225
	c4.189-0.204,8.378-0.41,12.567-0.62c2.827-0.142,5.653-0.309,8.481-0.431c0.855-0.037,1.715,0.062,2.572,0.056
	c0.653-0.004,1.305-0.096,1.958-0.113c0.829-0.021,1.66-0.006,2.584-0.006c-0.455,10.669-1.395,21.301-0.905,32.107
	c-0.993,0-1.846-0.047-2.692,0.009c-1.981,0.131-3.941,0.09-5.934-0.057c-2.958-0.217-5.946-0.038-8.922-0.017
	c-4.043,0.029-8.088,0.076-12.131,0.09c-0.933,0.003-1.866-0.097-2.774-0.148c-0.938,1.031-1.087,1.936-0.429,3.126
	c0.112,0.203,0.547,0.327,0.833,0.323c2.729-0.035,5.463-0.244,8.184-0.128c3.022,0.13,6.044,0.461,9.044,0.866
	c2.269,0.306,4.502,0.867,6.752,1.312C76.986,108.745,77.26,108.783,77.577,108.836z M50.766,90.166
	c0.085,0,0.171-0.001,0.258-0.001c0,2.627-0.043,5.255,0.039,7.879c0.016,0.481,0.439,1.134,0.863,1.374
	c0.745,0.421,1.618,0.687,2.469,0.832c1.615,0.273,3.247,0.511,4.878,0.58c1.375,0.058,2.76-0.181,4.142-0.226
	c2.472-0.08,4.945-0.137,7.417-0.161c2.556-0.025,5.115,0.046,7.669-0.023c0.807-0.021,1.719-0.179,2.383-0.594
	c1.091-0.681,1.49-2.009,1.72-3.15c0.387-1.924,0.402-3.924,0.567-5.893c0.021-0.25,0.003-0.503,0.008-0.755
	c0.024-1.236-0.094-2.496,0.1-3.705c0.546-3.39,0.392-6.744-0.355-10.068c-0.152-0.678-0.625-1.419-1.174-1.841
	c-0.71-0.546-1.611-0.943-2.489-1.143c-1.086-0.247-2.23-0.262-3.353-0.312c-1.708-0.077-3.42-0.175-5.126-0.124
	c-2.187,0.064-4.369,0.271-6.554,0.411c-1.407,0.089-2.822,0.098-4.218,0.269c-1.598,0.194-3.17,0.668-4.769,0.756
	c-1.192,0.065-2.243,0.352-3.181,1.001c-0.422,0.291-0.853,0.791-0.96,1.269c-0.224,1.002-0.311,2.049-0.322,3.079
	C50.743,83.133,50.766,86.649,50.766,90.166z"/>
<path fill-rule="evenodd" clip-rule="evenodd" fill="#78eced" class="fill" d="M55.887,49.781c10.219-0.698,20.4-2.13,30.773-1.906
	c-0.023,0.282-0.046,0.562-0.071,0.871c-2.375,0.219-4.685,0.415-6.99,0.649c-2.986,0.305-5.968,0.642-8.952,0.962
	c-2.03,0.218-4.056,0.492-6.092,0.63c-1.626,0.11-3.264,0.065-4.895,0.064c-0.321,0-0.638-0.141-0.962-0.163
	c-0.436-0.028-0.875-0.007-1.363-0.007c0,0.437,0,0.654,0,0.858c1.453,1.054,3.097,0.831,4.701,0.754
	c2.069-0.1,4.141-0.211,6.201-0.416c2.128-0.211,4.242-0.551,6.364-0.813c1.252-0.154,2.508-0.274,3.764-0.396
	c2.008-0.192,4.016-0.387,6.026-0.548c0.67-0.053,1.348-0.008,2.121-0.008c-0.15,5.629-0.299,11.222-0.447,16.761
	c-0.279,0.252-0.484,0.437-0.784,0.707c-1.954,0-3.998-0.035-6.039,0.008c-3.103,0.065-6.204,0.158-9.304,0.288
	c-2.374,0.099-4.743,0.298-7.116,0.41c-2.069,0.098-4.143,0.115-6.213,0.211c-1.135,0.053-2.265,0.209-3.399,0.289
	c-0.994,0.071-1.529,0.651-1.841,1.532c-0.1,0.283-0.257,0.547-0.46,0.972C50.569,69.568,54.654,51.914,55.887,49.781z"/>
<path fill-rule="evenodd" clip-rule="evenodd" fill="#78eced" class="fill" d="M142.27,120.297c-0.898-0.964-1.289-2.032-1.008-3.392
	c0.335-1.624,1.304-2.731,2.486-3.767c1.54-1.35,3.323-1.221,5.205-1.186c2.21,0.042,3.431,1.437,4.502,2.923
	c1.322,1.835,2.356,3.877,3.51,5.833c0.034,0.058,0.017,0.145,0.023,0.214c-2.069,0.985-19.091,0.832-22.612-0.226
	c-0.42-4.204-0.852-8.444-1.254-12.686c-0.039-0.409,0.107-0.835,0.18-1.353c3.787-0.038,7.333,0.801,10.937,1.808
	c-1.026,0.657-1.985,1.167-2.82,1.83c-1.411,1.121-2.211,2.629-2.584,4.404c-0.338,1.608-0.221,3.139,0.663,4.516
	c0.419,0.653,1.038,1.216,1.666,1.687C141.629,121.252,142.066,121,142.27,120.297z"/>
<path fill-rule="evenodd" clip-rule="evenodd" fill="#78eced" class="fill" d="M165.343,134.948c-0.482-2.933-0.931-5.656-1.408-8.556
	c2.812-0.681,5.44-1.348,8.083-1.946c1.718-0.388,3.458-0.681,5.189-1.006c1.208-0.228,2.398-0.491,3.662-0.211
	c0.467,0.103,1.028-0.22,1.612-0.366c0.554,2.469,1.113,4.962,1.688,7.525c-0.914,0.213-1.671,0.383-2.425,0.565
	C176.329,132.271,170.914,133.592,165.343,134.948z M167.944,131.263c0.396-0.213,0.678-0.365,0.929-0.501
	c0.613,0.675,0.59,1.847,1.982,1.659c-0.176-0.963-0.343-1.876-0.534-2.922c-0.073-0.038-0.292-0.154-0.439-0.232
	c-0.441-0.864-0.807-1.694-1.285-2.453c-0.163-0.258-0.634-0.494-0.922-0.452c-0.286,0.042-0.662,0.404-0.749,0.699
	c-0.368,1.25-0.65,2.526-0.951,3.795c-0.136,0.575-0.243,1.157-0.372,1.773c0.392,0.107,0.676,0.184,1.094,0.298
	c0.229-0.557,0.441-1.074,0.668-1.628C167.585,131.286,167.833,131.27,167.944,131.263z M179.729,124.349
	c-0.915-0.156-1.81,0.059-2.663,0.38c-0.736,0.278-1.048,0.914-0.725,1.746c0.164,0.422,0.736,0.76,1.2,0.959
	c0.293,0.126,0.726-0.071,1.211-0.139c0,0.658,0,1.273,0,1.854c-0.782,0.222-1.774-0.69-2.172,0.616
	c0.981,0.751,2.011,0.725,3.059,0.415c0.174-0.052,0.379-0.306,0.406-0.49c0.087-0.594,0.169-1.204,0.122-1.798
	C180.076,126.765,179.894,125.646,179.729,124.349z M173.062,130.312c0.409-1.521,0.775-2.89,1.134-4.228
	c-0.897-0.629-3.63-0.166-4.076,0.641c0.646,0.971,1.559,0.189,2.4,0.298c-0.41,1.529-0.802,2.991-1.25,4.664
	c0.671,0.053,1.162,0.188,1.612,0.105c0.883-0.166,1.756-0.418,2.607-0.709c0.257-0.089,0.53-0.393,0.609-0.654
	c0.069-0.231-0.123-0.541-0.182-0.754C174.882,129.905,174.02,130.098,173.062,130.312z"/>
<path fill-rule="evenodd" clip-rule="evenodd" fill="#78eced" class="fill" d="M139.681,135.045c0.7,0.455,1.481,0.963,2.377,1.545
	c-0.266,0.226-0.491,0.488-0.772,0.646c-1.664,0.935-1.834,1.558-0.739,3.206c-1.786,0-3.5,0-5.215-0.001
	c-0.393-0.699-1.02-1.042-1.772-1.249c-0.274-0.075-0.675-0.308-0.7-0.508c-0.028-0.227,0.246-0.611,0.485-0.728
	c0.536-0.258,1.136-0.382,1.703-0.579c0.447-0.156,0.884-0.339,1.256-0.483c0.554-1.775-0.05-2.409-3.026-3.149
	c0.305-0.291,0.497-0.556,0.756-0.705c0.588-0.338,1.204-0.634,1.821-0.92c0.703-0.327,0.802-0.924,0.739-1.587
	c-0.059-0.621-0.429-1.011-1.014-1.186c-0.383-0.115-0.799-0.143-1.165-0.294c-0.315-0.132-0.579-0.385-1.063-0.722
	c0.776-0.43,1.317-0.792,1.905-1.043c1.464-0.626,1.54-0.732,1.156-2.293c2.162,0.049,4.243,0.415,6.317,0.821
	c0.04,0.126,0.082,0.252,0.123,0.377c-0.373,0.397-0.682,0.899-1.13,1.171c-1.206,0.732-1.364,2.178-0.258,3.012
	c0.121,0.091,0.232,0.199,0.365,0.266c0.429,0.216,0.812,0.464,0.699,1.031c-0.118,0.597-0.457,0.986-1.077,1.127
	C140.279,133.067,139.846,133.586,139.681,135.045z"/>
<path fill-rule="evenodd" clip-rule="evenodd" fill="#78eced" class="fill" d="M100.213,122.038c0.631-0.602,1.161-1.193,2.08-1.463
	c2.251-0.661,4.457-0.539,6.646,0.083c3.362,0.952,6.292,2.45,8.401,5.514c2.385,3.463,2.674,7.172,2.039,11.056
	c-0.288,1.757-1.327,3.269-2.485,4.689c-1.683,2.063-3.774,3.333-6.365,3.739c-1.466,0.23-2.962,0.323-4.449,0.347
	c-0.501,0.008-1.009-0.383-1.514-0.593c0.006-0.07,0.011-0.141,0.016-0.21c0.799-0.135,1.604-0.245,2.397-0.411
	c1.406-0.292,2.821-0.559,4.201-0.945c1.951-0.545,3.212-1.95,4.35-3.561c1.522-2.156,1.996-4.626,2.141-7.126
	c0.078-1.328-0.379-2.735-0.816-4.033c-0.365-1.084-1.005-2.088-1.603-3.081c-1.165-1.935-2.968-3.111-5.073-3.703
	c-1.655-0.464-3.292-1.184-5.074-1.04C103.469,121.43,101.777,121.235,100.213,122.038z"/>
<path fill-rule="evenodd" clip-rule="evenodd" fill="#78eced" class="fill" d="M22.814,136.508c0.81,0.239,1.606,0.556,2.433,0.7
	c1.763,0.311,3.552,0.188,5.254-0.279c3.047-0.837,4.542-3.157,5.358-6.043c0.715-2.528,0.889-5.108,0.27-7.638
	c-0.948-3.874-3.872-6.995-8.59-6.278c-1.062,0.161-2.102,0.474-3.127,0.71c1.208-1.188,2.741-1.694,4.426-1.721
	c1.388-0.021,2.746,0.102,4.044,0.768c1.643,0.844,2.616,2.25,3.322,3.812c0.839,1.855,1.557,3.765,1.714,5.861
	c0.207,2.75-0.515,5.225-1.788,7.605c-0.789,1.476-2.055,2.479-3.337,3.464c-1.553,1.193-3.361,1.207-5.208,1.065
	c-1.487-0.114-2.894-0.435-4.138-1.291c-0.258-0.177-0.479-0.411-0.716-0.617C22.761,136.587,22.787,136.547,22.814,136.508z"/>
<path fill-rule="evenodd" clip-rule="evenodd" fill="#78eced" class="fill" d="M190.554,111.527c-1.563,0.783-3.135,1.57-4.782,2.395
	c-0.639-2.168-0.983-4.171,0.142-6.173c0.654-1.163,1.294-2.304,2.708-2.668c0.329-0.084,0.681-0.078,1.122-0.125
	c0.177,1.15,0.366,2.214,0.499,3.285C190.37,109.287,190.443,110.341,190.554,111.527z"/>
<path fill-rule="evenodd" clip-rule="evenodd" fill="#78eced" class="fill" d="M151.95,140.266c-1.339,0-2.676,0-4.058,0
	c0.269-0.319,0.548-0.65,0.778-0.924c0.145-1.362-0.77-2.085-1.653-2.962c0.325-0.373,0.545-0.736,0.862-0.972
	c1.412-1.048,1.497-1.683,0.371-3.029c-0.318-0.381-0.585-0.805-0.955-1.319c1.843-0.991,1.787-2.301,0.839-3.853
	c-0.22-0.36-0.033-0.968-0.033-1.531c0.491-0.051,0.925-0.097,1.492-0.156c-0.911,2.414,0.997,2.76,2.498,3.521
	c-0.542,0.452-1.094,0.781-1.461,1.254c-0.466,0.599-0.847,1.291-1.125,1.996c-0.092,0.23,0.161,0.742,0.407,0.932
	c0.634,0.486,1.351,0.864,2.208,1.392c-0.4,0.307-0.713,0.597-1.072,0.814c-1.102,0.666-1.959,1.492-2.111,2.837
	c0.562,0.815,1.372,1.036,2.23,1.206c0.316,0.063,0.602,0.286,0.9,0.436C152.028,140.027,151.989,140.146,151.95,140.266z"/>
<path fill-rule="evenodd" clip-rule="evenodd" fill="#78eced" class="fill" d="M109.018,137.569c-1.55-0.812-2.012-2.169-2.317-3.683
	c-0.62-3.071,0.61-5.82,2.874-7.432c0.781-0.556,1.18-0.503,1.628,0.386c0.54,1.071,1.154,2.191,1.315,3.349
	c0.357,2.568-0.038,5.006-2.284,6.75c-0.139,0.108-0.283,0.215-0.439,0.293C109.549,137.355,109.291,137.453,109.018,137.569z
	 M109.923,127.816c-0.358,0.175-0.837,0.257-1.053,0.54c-1.182,1.551-1.467,3.338-1.178,5.234c0.12,0.786,0.752,1.567,1.394,1.637
	c0.743,0.078,1.312-0.307,1.71-0.908c0.219-0.333,0.451-0.698,0.523-1.079c0.201-1.054,0.399-2.122,0.451-3.189
	C111.824,128.911,111.305,127.788,109.923,127.816z"/>
<path fill-rule="evenodd" clip-rule="evenodd" fill="#78eced" class="fill" d="M29.734,131.463c-2.194-1.187-2.351-3.237-2.22-5.375
	c0.135-2.182,1.069-3.911,3.156-4.964c1.086,0.235,1.961,1.493,1.939,2.532c-0.024-0.004-0.059,0-0.073-0.015
	c-1.534-1.599-2.526-0.832-3.519,0.808c-0.834,1.376-0.811,2.787-0.061,4.175c0.521,0.963,1.464,1.096,2.374,0.441
	c0.761-0.549,1.06-1.317,1.161-2.202c0.074-0.645,0.15-1.291,0.23-1.981C33.786,126.355,31.743,131.373,29.734,131.463z"/>
<path fill-rule="evenodd" clip-rule="evenodd" fill="#78eced" class="fill" d="M120.66,74.305c0.42-0.123,0.823-0.241,1.289-0.376
	c0.658,4.414-0.115,8.758,0.193,13.276c-0.87-0.828-1.433-1.452-1.377-2.657c0.11-2.386-0.06-4.784-0.102-7.177
	C120.646,76.386,120.66,75.401,120.66,74.305z"/>
<path fill-rule="evenodd" clip-rule="evenodd" fill="#78eced" class="fill" d="M147.712,86.362c-0.867,0.202-1.575,0.366-2.393,0.557
	c0.062-1.701-1.356-3.23-0.313-4.922c-0.771-1.249-0.519-2.602-0.62-3.879c-0.188-2.363-0.232-4.736-0.335-7.105
	c-0.006-0.148-0.001-0.298-0.001-0.429c1.166-0.509,1.597-0.519,2.124-0.022c-1.54,1.268-1.619,2.928-1.355,4.749
	c0.282,1.945,0.421,3.913,0.607,5.872C145.608,83.122,145.913,85.006,147.712,86.362z"/>
<path fill-rule="evenodd" clip-rule="evenodd" fill="#78eced" class="fill" d="M117.601,74.796c0.557-0.027,0.976-0.047,1.525-0.074
	c0.142,3.003,0.281,5.957,0.421,8.909c-0.09,0.023-0.18,0.046-0.27,0.07c-0.714-0.825-1.427-1.657-1.479-2.853
	c-0.075-1.731-0.133-3.464-0.196-5.195C117.593,75.405,117.601,75.158,117.601,74.796z"/>
<path fill-rule="evenodd" clip-rule="evenodd" fill="#78eced" class="fill" d="M124.764,73.264c0,3.072,0.061,5.946-0.046,8.815
	c-0.024,0.667-0.621,1.311-0.954,1.966c-0.087-0.027-0.174-0.054-0.26-0.08c0-3.447,0-6.894,0-10.422
	C123.829,73.47,124.158,73.398,124.764,73.264z"/>
<path fill-rule="evenodd" clip-rule="evenodd" fill="#78eced" class="fill" d="M143.084,87.38c-1.86,0.367-3.722,0.734-5.617,1.109
	c-0.074-0.234-0.132-0.417-0.214-0.678c-3.284,0.136-6.571,0.272-9.859,0.408c-0.032-0.114-0.063-0.228-0.095-0.341
	c0.208-0.092,0.416-0.26,0.626-0.266c1.942-0.042,3.886-0.036,5.828-0.082c2.499-0.06,4.996-0.157,7.494-0.23
	c0.598-0.017,1.197-0.002,1.794-0.002C143.056,87.325,143.07,87.353,143.084,87.38z"/>
<path fill-rule="evenodd" clip-rule="evenodd" fill="#78eced" class="fill" d="M143.14,80.649c-0.368-0.285-0.545-0.421-0.607-0.469
	c-0.102-1.546-0.18-2.974-0.299-4.398c-0.035-0.422-0.197-0.832-0.28-1.25c-0.229-1.172-0.447-2.347-0.683-3.589
	c0.5-0.156,0.819-0.256,1.338-0.418C142.787,73.916,142.958,77.182,143.14,80.649z"/>
<path fill-rule="evenodd" clip-rule="evenodd" fill="#78eced" class="fill" d="M130.157,78.584c3.549-0.414,7.097-0.827,10.69-1.246
	c0.041,0.232,0.079,0.442,0.13,0.729c-0.741,0.113-1.428,0.256-2.122,0.316c-2.708,0.235-5.417,0.45-8.128,0.651
	c-0.225,0.017-0.462-0.121-0.693-0.187C130.076,78.761,130.117,78.673,130.157,78.584z"/>
<path fill-rule="evenodd" clip-rule="evenodd" fill="#78eced" class="fill" d="M143.368,85.938c-5.26,0.395-10.523,0.545-15.792,0.415
	c-0.002-0.103-0.005-0.205-0.007-0.307c5.271-0.142,10.541-0.282,15.81-0.424C143.375,85.726,143.371,85.833,143.368,85.938z"/>
<path fill-rule="evenodd" clip-rule="evenodd" fill="#78eced" class="fill" d="M140.927,79.644c-0.258,0.153-0.5,0.383-0.779,0.445
	c-0.854,0.188-1.72,0.411-2.587,0.44c-1.996,0.066-3.996,0.019-5.993,0.037c-0.438,0.005-0.875,0.09-1.311,0.139
	c-0.01-0.099-0.021-0.197-0.031-0.296c3.529-0.349,7.058-0.698,10.587-1.047C140.851,79.455,140.889,79.549,140.927,79.644z"/>
<path fill-rule="evenodd" clip-rule="evenodd" fill="#78eced" class="fill" d="M187.862,99.894c0.394,0.849,0.748,1.613,1.105,2.384
	c-1.117,0.44-2.167,0.856-3.255,1.287C185.982,102.14,186.619,100.919,187.862,99.894z"/>
<path fill-rule="evenodd" clip-rule="evenodd" fill="#78eced" class="fill" d="M130.44,76.989c3.397-0.617,6.816-1.022,10.258-1.224
	C140.093,76.422,131.768,77.417,130.44,76.989z"/>
<path fill-rule="evenodd" clip-rule="evenodd" fill="#78eced" class="fill" d="M128.508,84.63c4.833-0.203,9.664-0.406,14.497-0.609
	C142.041,84.672,130.634,85.05,128.508,84.63z"/>
<path fill-rule="evenodd" clip-rule="evenodd" fill="#78eced" class="fill" d="M101.428,132.407c0.076-0.412,0.165-0.886,0.257-1.386
	c1.166,0,2.263,0,3.442,0c-0.042,0.42-0.084,0.834-0.14,1.386C103.846,132.407,102.692,132.407,101.428,132.407z"/>
<path fill-rule="evenodd" clip-rule="evenodd" fill="#78eced" class="fill" d="M129.595,83.139c0.299-0.063,0.597-0.175,0.896-0.181
	c3.261-0.066,6.523-0.109,9.784-0.174c0.694-0.014,1.387-0.089,2.08-0.137c0.005,0.106,0.009,0.213,0.015,0.32
	c-4.244,0.18-8.487,0.361-12.73,0.541C129.625,83.384,129.61,83.261,129.595,83.139z"/>
<path fill-rule="evenodd" clip-rule="evenodd" fill="#78eced" class="fill" d="M105.083,133.664c0.089,0.455,0.147,0.748,0.221,1.126
	c-1.198,0.093-2.365,0.185-3.581,0.278c-0.064-0.472-0.104-0.758-0.161-1.177C102.771,133.813,103.902,133.74,105.083,133.664z"/>
<path fill-rule="evenodd" clip-rule="evenodd" fill="#78eced" class="fill" d="M116.379,79.561c-1.207-0.66-1.558-1.981-1.136-4.129
	c0.223-0.057,0.479-0.122,0.831-0.212C116.178,76.691,116.275,78.082,116.379,79.561z"/>
<path fill-rule="evenodd" clip-rule="evenodd" fill="#78eced" class="fill" d="M126.15,76.551c-0.077-1.27-0.139-2.304-0.207-3.427
	c0.478-0.025,0.838-0.044,1.33-0.07c0.043,0.786,0.083,1.499,0.122,2.196C127.004,75.658,126.66,76.018,126.15,76.551z"/>
<path fill-rule="evenodd" clip-rule="evenodd" fill="#78eced" class="fill" d="M102.777,128.554c1.074,0.071,1.992,0.133,2.974,0.199
	c-0.129,0.31-0.242,0.58-0.397,0.954c-0.998,0-2.013,0-3.154,0C102.409,129.289,102.602,128.903,102.777,128.554z"/>
<path fill-rule="evenodd" clip-rule="evenodd" fill="#78eced" class="fill" d="M131.425,75.241c1.431-0.195,2.868-0.355,4.291-0.597
	c1.433-0.243,2.986,0.217,4.364-0.703c0.049,0.13,0.113,0.295,0.217,0.564c-2.997,0.346-5.915,0.683-8.832,1.021
	C131.452,75.431,131.438,75.336,131.425,75.241z"/>
<path fill-rule="evenodd" clip-rule="evenodd" fill="#78eced" class="fill" d="M127.55,89.333c1.93,0,3.859,0,5.568,0
	c-1.599,0.203-3.433,0.435-5.427,0.688c-0.031-0.052-0.146-0.241-0.261-0.43C127.47,89.505,127.509,89.419,127.55,89.333z"/>
<path fill-rule="evenodd" clip-rule="evenodd" fill="#78eced" class="fill" d="M106.917,126.943c-0.371,0.772-1.185,0.859-2.827,0.288
	c0.352-0.266,0.664-0.503,0.881-0.667C105.675,126.7,106.275,126.817,106.917,126.943z"/>
<path fill-rule="evenodd" clip-rule="evenodd" fill="#78eced" class="fill" d="M104.437,137.865c1.362-0.547,2.131-0.476,2.762,0.465
	c-1.036-0.085-1.907-0.157-2.777-0.228C104.427,138.023,104.432,137.943,104.437,137.865z"/>
<path fill-rule="evenodd" clip-rule="evenodd" fill="#78eced" class="fill" d="M128.64,72.805c0.541,0,0.933,0,1.416,0
	c0.017,0.296,0.032,0.583,0.052,0.915c-0.403,0.14-0.775,0.268-1.251,0.434C128.787,73.718,128.723,73.318,128.64,72.805z"/>
<path fill-rule="evenodd" clip-rule="evenodd" fill="#78eced" class="fill" d="M24.784,129.233c-0.029-0.403-0.052-0.691-0.077-1.03
	c0.472-0.1,0.882-0.187,1.368-0.29c0.043,0.41,0.083,0.775,0.131,1.223C25.729,129.169,25.317,129.196,24.784,129.233z"/>
<path fill-rule="evenodd" clip-rule="evenodd" fill="#78eced" class="fill" d="M26.5,123.886c-0.134,0.416-0.216,0.671-0.321,0.995
	c-0.465,0-0.921,0-1.441,0c0.095-0.289,0.176-0.54,0.271-0.831C25.492,123.997,25.945,123.947,26.5,123.886z"/>
<path fill-rule="evenodd" clip-rule="evenodd" fill="#78eced" class="fill" d="M133.686,74.186c0.891-0.577,2.899-1.021,4.314-0.571
	C136.5,73.812,135.093,73.999,133.686,74.186z"/>
<path fill-rule="evenodd" clip-rule="evenodd" fill="#78eced" class="fill" d="M105.629,136.211c-2.256,0.69-2.592,0.717-2.93,0.158
	c0.999-0.145,1.964-0.286,2.932-0.426C105.629,136.033,105.629,136.122,105.629,136.211z"/>
<path fill-rule="evenodd" clip-rule="evenodd" fill="#78eced" class="fill" d="M138.91,72.029c0-0.269,0-0.463,0-0.74
	c0.367-0.066,0.717-0.132,1.162-0.214c0.023,0.398,0.041,0.686,0.062,1.045C139.71,72.089,139.347,72.062,138.91,72.029z"/>
<path fill-rule="evenodd" clip-rule="evenodd" fill="#78eced" class="fill" d="M24.572,126.967c0.033-0.304,0.054-0.486,0.078-0.702
	c0.433-0.068,0.821-0.129,1.292-0.202c0.016,0.257,0.029,0.459,0.048,0.756C25.517,126.868,25.11,126.91,24.572,126.967z"/>
<path fill-rule="evenodd" clip-rule="evenodd" fill="#78eced" class="fill" d="M141.237,81.097c0.178,0.144,0.329,0.267,0.688,0.558
	c-0.916,0.079-1.613,0.14-2.309,0.2c-0.014-0.045-0.027-0.09-0.04-0.135C140.104,81.521,140.632,81.323,141.237,81.097z"/>
<path fill-rule="evenodd" clip-rule="evenodd" fill="#78eced" class="fill" d="M27.409,131.535c0.228,0.188,0.398,0.327,0.711,0.584
	c-0.713,0-1.26,0-1.806,0c-0.011-0.069-0.022-0.139-0.033-0.208C26.643,131.792,27.002,131.67,27.409,131.535z"/>
<path fill-rule="evenodd" clip-rule="evenodd" fill="#78eced" class="fill" d="M26.608,130.511c-0.484-0.052-0.843,0.648-1.389,0.227
	c-0.016-0.095-0.031-0.189-0.048-0.283c0.462-0.085,0.924-0.169,1.385-0.253C26.573,130.305,26.591,130.408,26.608,130.511z"/>
<path fill-rule="evenodd" clip-rule="evenodd" fill="#78eced" class="fill" d="M25.964,122.347c0.359-0.057,0.718-0.114,1.077-0.17
	c0.017,0.127,0.034,0.255,0.052,0.382c-0.362,0.031-0.724,0.061-1.085,0.091C25.994,122.548,25.979,122.448,25.964,122.347z"/>
<path fill-rule="evenodd" clip-rule="evenodd" fill="#78eced" class="fill" d="M137.504,72.001c-0.435,0-0.773,0-1.149,0
	C136.852,71.447,137.125,71.432,137.504,72.001z"/>
<path fill-rule="evenodd" clip-rule="evenodd" fill="#78eced" class="fill" d="M97.389,84.766c0.024-0.4,0.035-0.591,0.056-0.943
	c3.949-0.41,7.877-0.819,11.853-1.232c0.234,0.348,0.445,0.663,0.66,0.981c-1.109,0.257-2.104,0.512-3.111,0.706
	c-0.301,0.058-0.639-0.109-0.952-0.082c-2.032,0.176-4.059,0.397-6.092,0.562C99.037,84.816,98.263,84.766,97.389,84.766z"/>
<path fill-rule="evenodd" clip-rule="evenodd" fill="#78eced" class="fill" d="M91.075,77.978c0,1.532-0.042,3.067,0.011,4.598
	c0.065,1.887,0.16,3.777,0.339,5.658c0.145,1.519-0.22,2.931-0.582,4.358c-0.093-0.001-0.185-0.003-0.277-0.005
	c0-2.472-0.048-4.946,0.014-7.416c0.061-2.404-0.488-4.836,0.088-7.219C90.804,77.961,90.94,77.969,91.075,77.978z"/>
<path fill-rule="evenodd" clip-rule="evenodd" fill="#78eced" class="fill" d="M105.791,77.722c-2.333,0.266-4.667,0.531-7,0.796
	c-0.041-0.058-0.082-0.117-0.124-0.175c0.464-0.377,0.876-0.857,1.4-1.111c1.654-0.804,3.413-0.435,5.136-0.28
	c0.24,0.021,0.452,0.367,0.677,0.562C105.851,77.582,105.821,77.652,105.791,77.722z"/>
<path fill-rule="evenodd" clip-rule="evenodd" fill="#78eced" class="fill" d="M108.114,80.667c0.085,0.112,0.173,0.203,0.229,0.311
	c0.042,0.082,0.042,0.185,0.074,0.343c-3.719,0.403-7.4,0.802-11.127,1.206c0-0.145,0-0.33,0-0.547
	C100.912,81.54,104.505,81.104,108.114,80.667z"/>
<path fill-rule="evenodd" clip-rule="evenodd" fill="#78eced" class="fill" d="M97.021,92.104c0.219-0.115,0.429-0.308,0.657-0.333
	c1.026-0.112,2.058-0.184,3.089-0.254c1.3-0.089,2.601-0.161,3.966-0.246c0.025,0.315,0.042,0.526,0.072,0.892
	c-2.597,0.094-5.12,0.187-7.644,0.28C97.114,92.329,97.067,92.217,97.021,92.104z"/>
<path fill-rule="evenodd" clip-rule="evenodd" fill="#78eced" class="fill" d="M104.847,87.071c-0.063,0.516-0.101,0.818-0.13,1.054
	c-2.11,0.172-4.128,0.336-6.146,0.501c-0.043-0.061-0.086-0.123-0.129-0.183c0.23-0.253,0.434-0.693,0.693-0.729
	C100.989,87.459,102.855,87.285,104.847,87.071z"/>
<path fill-rule="evenodd" clip-rule="evenodd" fill="#78eced" class="fill" d="M97.776,80.644c0.61-0.978,8.817-1.905,9.374-1.209
	C103.991,79.843,100.884,80.243,97.776,80.644z"/>
<path fill-rule="evenodd" clip-rule="evenodd" fill="#78eced" class="fill" d="M104.997,94.099c-2.802,0-5.566,0-8.523,0
	c0.727-0.517,1.439-0.455,2.089-0.486c1.809-0.087,3.62-0.115,5.431-0.141C104.358,93.467,104.898,93.209,104.997,94.099z"/>
<path fill-rule="evenodd" clip-rule="evenodd" fill="#78eced" class="fill" d="M92.589,81.926c0-1.423,0-2.845,0-4.356
	c0.258-0.089,0.547-0.188,0.858-0.294C93.958,78.988,93.323,80.444,92.589,81.926z"/>
<path fill-rule="evenodd" clip-rule="evenodd" fill="#78eced" class="fill" d="M104.7,89.894c-2.36,0.181-4.721,0.362-7.082,0.543
	c-0.024-0.069-0.049-0.141-0.074-0.21c0.16-0.084,0.315-0.231,0.48-0.244c2.137-0.162,4.274-0.307,6.412-0.444
	c0.094-0.006,0.194,0.095,0.292,0.146C104.719,89.753,104.71,89.823,104.7,89.894z"/>
<path fill-rule="evenodd" clip-rule="evenodd" fill="#78eced" class="fill" d="M117.953,95.332c0.061,0.171,0.135,0.376,0.209,0.584
	c-1.129,0.312-2.982,0.013-3.319-0.584C115.869,95.332,116.854,95.332,117.953,95.332z"/>
<path fill-rule="evenodd" clip-rule="evenodd" fill="#78eced" class="fill" d="M95.076,77.874c0-0.461,0-0.75,0-1.1c0.437,0,0.827,0,1.379,0
	C95.982,77.152,95.594,77.461,95.076,77.874z"/>
<path fill-rule="evenodd" clip-rule="evenodd" fill="#78eced" class="fill" d="M12.447,86.475c0.161-2.492,0.313-4.852,0.465-7.212
	c0.07,0.02,0.142,0.039,0.212,0.059c0.274-0.23,0.525-0.494,0.824-0.684c0.674-0.429,1.328-0.952,2.069-1.198
	c1.333-0.441,2.712-0.786,4.097-1.018c0.854-0.143,1.755,0.035,2.634,0.011c3.456-0.094,6.911-0.271,10.367-0.294
	c2.169-0.015,4.351,0.093,6.508,0.324c2.074,0.222,3.498,1.43,4.494,3.301c0.614,1.153,1.002,2.29,1,3.577
	c-0.002,1.265-0.002,2.531-0.017,3.798c-0.002,0.266-0.063,0.531-0.073,0.602c-1.335-0.226-2.587-0.489-3.852-0.641
	c-3.136-0.374-6.272-0.774-9.418-1.016c-2.484-0.19-4.984-0.204-7.479-0.216c-2.275-0.012-4.552,0.051-6.825,0.147
	c-1.311,0.056-2.615,0.241-3.922,0.367C13.233,86.411,12.934,86.434,12.447,86.475z"/>
<path fill-rule="evenodd" clip-rule="evenodd" fill="#78eced" class="fill" d="M45.013,90.163c-0.03,0.425-0.055,0.767-0.073,1.024
	c-10.899-0.315-21.715-0.627-32.604-0.942c-0.02-0.436-0.039-0.825-0.059-1.252c1.085-0.13,2.101-0.288,3.123-0.365
	c4.217-0.321,8.425-0.134,12.635,0.209c2.314,0.188,4.646,0.177,6.964,0.338c3.098,0.214,6.191,0.506,9.286,0.774
	C44.501,89.968,44.712,90.072,45.013,90.163z"/>
<path fill-rule="evenodd" clip-rule="evenodd" fill="#78eced" class="fill" d="M13.275,96.608c5.169-1.44,25.88-0.604,29.962,1.167
	c-0.551,0.723-1.394,0.645-2.088,0.67c-1.792,0.066-3.591,0.008-5.386-0.052c-3.03-0.101-6.06-0.228-9.088-0.37
	c-3.81-0.177-7.619-0.374-11.428-0.578c-0.398-0.021-0.81-0.095-1.181-0.234C13.804,97.113,13.6,96.864,13.275,96.608z"/>
<path fill-rule="evenodd" clip-rule="evenodd" fill="#78eced" class="fill" d="M81.861,87.829c-9.852-0.451-19.586-1.54-29.41-0.488
	c-0.074-0.968-0.182-1.839-0.197-2.711c-0.029-1.616-0.138-3.248,0.036-4.845c0.165-1.509,1.004-2.614,3.021-3.059
	c1.395-0.308,2.829-0.564,4.251-0.596c4.951-0.112,9.905-0.167,14.857-0.131c1.773,0.013,3.566,0.236,5.312,0.565
	c1.822,0.345,2.122,0.855,2.352,2.711c0.294,2.375,0.166,4.737-0.124,7.101C81.903,86.82,81.897,87.272,81.861,87.829z"/>
<path fill-rule="evenodd" clip-rule="evenodd" fill="#78eced" class="fill" d="M53.458,96.995c8.987-1.804,17.933-1.319,26.91,0.103
	c-0.229,1.06-0.625,1.465-1.584,1.467c-4.221,0.011-8.441-0.018-12.662-0.04c-2.202-0.011-4.406-0.008-6.607-0.072
	c-1.562-0.045-3.124-0.163-4.68-0.308C54.253,98.09,53.587,98.001,53.458,96.995z"/>
<path fill-rule="evenodd" clip-rule="evenodd" fill="#78eced" class="fill" d="M81.744,90.237c0,0.442,0,0.84,0,1.297
	c-9.753-0.756-19.48-0.981-29.278-0.549c0-0.378,0-0.717,0-1.213c1.037-0.091,2.103-0.246,3.172-0.267
	c3.794-0.074,7.59-0.129,11.386-0.137c2.728-0.006,5.459,0.029,8.186,0.136c1.864,0.073,3.722,0.291,5.581,0.467
	C81.109,90,81.417,90.143,81.744,90.237z"/>
<path fill-rule="evenodd" clip-rule="evenodd" fill="#78eced" class="fill" d="M167.576,129.96c0.149-0.504,0.238-0.805,0.38-1.284
	c0.232,0.389,0.367,0.613,0.568,0.95C168.221,129.732,167.993,129.813,167.576,129.96z"/>
</svg>
