<svg version="1.1" id="svg" xmlns="http://www.w3.org/2000/svg" xmlns:xlink="http://www.w3.org/1999/xlink" x="0px" y="0px"
	 width="200px" height="200px" viewBox="0 0 200 200" enable-background="new 0 0 200 200" xml:space="preserve">
<path class="stroke" fill="#670431"  fill-rule="evenodd" clip-rule="evenodd" d="M106.251,52.093c-0.793,0-1.3,0.064-1.784-0.014
	c-0.906-0.146-1.843-0.263-2.687-0.595c-1.246-0.491-1.646-1.447-1.328-2.751c0.485-1.999,1.981-3.08,3.702-3.874
	c0.783-0.363,1.678-0.479,2.517-0.726c0.272-0.08,0.531-0.215,0.861-0.352c-1.321-1.083-2.562-2.073-3.771-3.098
	c-1.717-1.456-1.786-3.385-0.194-5.015c1.271-0.618,2.693-0.779,4.026-0.361c1.25,0.392,2.38,1.16,3.742,1.854
	c-0.451-2.089-1.101-4.059-0.373-6.075c1.583-1.408,3.512-1.167,4.645,0.751c0.988,1.673,2.092,3.334,2.273,5.368
	c0.02,0.229,0.125,0.452,0.245,0.86c1.753-2.146,3.383-4.181,6.461-3.707c1.806,2.001,1.139,4.102,0.195,6.405
	c0.833-0.092,1.521-0.261,2.191-0.215c0.648,0.045,1.281,0.312,2.088,0.526c0.137,0.701,0.269,1.376,0.374,1.91
	c-1.104,1.684-2.312,2.887-4.443,3.212c0.425,0.385,0.646,0.62,0.9,0.809c0.742,0.554,1.556,1.025,2.238,1.644
	c1.282,1.16,1.424,2.26,0.556,4.054c-2.407,1.021-4.527-0.504-7.009-1.224c0.266,0.915,0.538,1.667,0.698,2.442
	c0.206,1.002,0.411,2.019,0.454,3.036c0.061,1.45-0.424,2.733-1.596,3.676c-1.884,0.549-2.538,0.242-3.226-1.509
	c-0.319-0.814-0.636-1.632-0.96-2.444c-0.037-0.09-0.123-0.16-0.279-0.358c-0.182,0.326-0.366,0.59-0.48,0.882
	c-0.318,0.814-0.561,1.661-0.921,2.456c-0.419,0.925-1.135,1.596-2.101,1.951c-1.101,0.404-2.04,0.035-2.299-1.103
	c-0.283-1.244-0.344-2.543-0.449-3.821c-0.06-0.714-0.011-1.436-0.011-2.171c-1.53,0.721-5.734,7.576-6.245,10.179
	c1.434,0.507,2.889,0.986,4.313,1.542c0.814,0.316,1.601,0.718,2.364,1.146c3.363,1.887,4.549,4.544,3.671,8.246
	c-0.451,1.901-0.948,3.794-1.452,5.682c-1.26,4.714-0.626,9.277,0.937,13.812c1.372,3.981,3.421,7.6,5.675,11.118
	c1.416,2.212,2.914,4.373,4.287,6.61c1.472,2.398,2.26,5.055,2.811,7.809c0.531,2.651,0.287,5.312,0.414,7.967
	c0.166,3.495-0.891,6.704-1.602,10.006c-1.138,5.278-3.777,9.883-6.609,14.381c-1.508,2.395-3.13,4.725-4.807,7.006
	c-1.879,2.557-4.422,4.299-7.381,5.388c-2.328,0.857-4.754,1.318-7.232,1.528c-2.574,0.218-5.131,0.232-7.704-0.111
	c-2.831-0.378-5.258-1.399-7.026-3.726c-0.311-0.409-0.604-0.843-0.969-1.202c-3.381-3.339-5.764-7.372-7.902-11.545
	c-2.141-4.176-3.931-8.524-4.865-13.134c-0.675-3.325-1.346-6.717-1.391-10.087c-0.064-4.852,0.672-9.66,2.867-14.115
	c1.07-2.172,2.044-4.393,3.167-6.535c0.643-1.225,1.409-2.409,2.278-3.483c1.525-1.886,2.173-4.196,3.184-6.319
	c0.802-1.685,1.332-3.549,1.676-5.392c0.715-3.835,0.328-7.603-1.402-11.147c-0.997-2.045-1.892-4.1-2.212-6.383
	c-0.151-1.08,0.052-1.975,0.553-2.945c1.228-2.376,3.304-3.509,5.661-4.447c2.516-1,5.143-1.462,7.762-1.995
	c0.746-0.152,1.541-0.075,2.314-0.083c1.079-0.011,2.16-0.003,3.402-0.003C101.242,60.2,102.758,55.695,106.251,52.093z
	 M102.249,49.755c0.98,0,2.002,0.109,2.989-0.024c1.879-0.254,3.796-0.367,5.568-1.175c0.226-0.102,0.586,0.095,1.187,0.211
	c-1.073,0.979-1.958,1.675-2.708,2.493c-1.422,1.552-3.041,3.015-4.084,4.804c-1.758,3.006-3.654,5.983-4.629,9.39
	c-0.949,3.314-1.893,6.631-2.811,9.953c-0.098,0.354-0.014,0.758-0.014,1.125c0.766,0.081,0.852-0.347,0.917-0.758
	c0.098-0.61,0.146-1.229,0.25-1.836c0.511-2.979,1.661-5.712,3.061-8.382c2.875-5.485,5.903-10.868,9.781-15.722
	c0.587-0.733,1.13-1.568,2.081-1.947c0.611,0.577,0.27,1.066,0.04,1.577c-1.323,2.929-1.772,6.008-1.533,9.194
	c0.03,0.413,0.207,0.814,0.315,1.222c0.154,0.007,0.308,0.015,0.462,0.021c2.228-3.765,2.442-8.192,3.737-12.331
	c0.287,0.266,0.512,0.537,0.557,0.835c0.183,1.221,0.279,2.454,0.465,3.674c0.309,2.041,0.654,4.08,1.705,5.904
	c0.232,0.404,0.564,0.751,1.013,1.336c1.005-2.247,0.093-4.057-0.29-5.855c-0.389-1.827-1.011-3.604-1.596-5.628
	c0.536,0.156,0.789,0.186,0.998,0.297c1.904,1.023,3.795,2.07,5.701,3.087c0.635,0.339,1.292,0.678,2.199,0.182
	c-0.473-1.593-2.021-2.084-3.148-2.872c-1.199-0.837-2.648-1.317-4.085-2.001c0.02-0.244,0.046-0.573,0.073-0.915
	c0.837-0.194,1.596-0.338,2.335-0.549c1.284-0.366,2.573-0.727,3.826-1.188c0.577-0.213,1.269-0.508,1.097-1.521
	c-3-0.357-5.324,1.575-8.322,2.529c0.298-0.803,0.381-1.301,0.644-1.671c0.354-0.497,0.81-0.942,1.287-1.327
	c1.255-1.016,1.901-2.419,2.511-3.84c0.289-0.674,0.466-1.39-0.276-1.942c-0.907-0.033-1.483,0.562-1.931,1.151
	c-1.209,1.595-2.328,3.258-3.456,4.912c-0.255,0.372-0.341,0.907-1.168,0.627c0-0.447-0.014-0.946,0.003-1.444
	c0.105-3.105-1.02-5.843-2.54-8.455c-0.333-0.573-0.78-1.088-1.593-1.138c-0.571,0.802-0.592,1.626-0.277,2.487
	c0.987,2.707,1.982,5.411,2.971,8.117c0.101,0.276,0.178,0.561,0.297,0.936c-0.327,0.075-0.559,0.129-0.76,0.176
	c-1.525-2.128-3.863-4.297-6.093-5.434c-0.992-0.506-2.108-0.8-3.197-1.076c-0.642-0.162-1.353-0.137-1.812,0.554
	c-0.24,1.233,0.618,1.99,1.421,2.539c1.642,1.121,3.161,2.489,5.198,2.96c0.846,0.195,1.657,0.559,2.459,0.905
	c0.373,0.162,0.685,0.467,1.334,0.927c-0.781,0.202-1.152,0.331-1.533,0.391c-1.779,0.279-3.597,0.407-5.334,0.847
	c-1.533,0.388-3.002,1.064-4.453,1.715C102.375,48.121,101.787,48.682,102.249,49.755z"/>
<path fill-rule="evenodd" clip-rule="evenodd" fill="#fa57ac" class="fill" d="M97.748,163.894c-0.744-0.91-1.536-1.856-2.303-2.823
	c-0.896-1.129-1.813-2.247-2.646-3.424c-1.009-1.426-2.104-2.827-2.872-4.381c-2.121-4.29-4.287-8.575-6.06-13.014
	c-1.349-3.378-2.306-6.945-3.097-10.504c-0.625-2.815-0.526-5.75,0.004-8.616c0.479-2.581,0.844-5.208,1.615-7.704
	c1.4-4.522,3.479-8.6,7.432-11.639c2.566-1.973,5.232-3.581,8.356-4.742c-0.387-2.86-1.675-5.525-1.378-8.49
	c0.289-2.884,0.91-5.664,1.936-8.613c-0.611-0.058-1.088-0.173-1.552-0.135c-3.879,0.313-7.579-0.384-11.175-1.824
	c-1.476-0.591-2.475-1.698-3.276-2.95c-0.71-1.108-0.684-2.344,0.137-3.487c0.829-1.156,1.833-2.076,3.18-2.604
	c2.598-1.016,5.211-1.984,8.037-2.066c1.212-0.036,2.428,0.092,3.739,0.149c-0.049,0.425-0.076,0.662-0.115,1.005
	c-0.609,0.028-1.162,0.054-1.714,0.078c-0.463,0.021-0.94-0.027-1.386,0.069c-2.562,0.554-5.137,1.069-7.666,1.744
	c-1.75,0.466-2.947,1.635-3.387,3.495c0.545,1.559,1.84,2.382,3.237,2.853c1.646,0.556,3.389,0.878,5.114,1.127
	c2.139,0.31,4.303,0.608,6.456,0.607c3.337,0,6.688-0.172,9.881-1.336c1.438-0.524,2.331-1.596,2.837-3.016
	c-0.719-2.505-2.789-3.213-4.899-3.778c-1.272-0.341-2.603-0.463-4.019-0.702c0.209-0.485,0.344-0.8,0.477-1.108
	c0.26-0.066,0.463-0.179,0.651-0.156c2.301,0.266,4.617,0.469,6.726,1.569c1.74,0.908,2.654,2.493,2.385,4.416
	c-0.213,1.525-0.494,3.053-0.897,4.539c-0.718,2.646-1.106,5.343-1.315,8.06c-0.314,4.102,0.805,7.97,2.268,11.734
	c1.555,4.002,3.743,7.656,6.132,11.225c1.799,2.688,3.503,5.496,4.784,8.452c0.963,2.225,1.336,4.747,1.709,7.177
	c0.639,4.163-0.38,8.192-1.348,12.206c-0.012,0.05-0.036,0.097-0.045,0.147c-0.771,4.606-3.4,8.356-5.691,12.251
	c-1.306,2.22-2.719,4.379-4.171,6.505c-1.073,1.574-2.231,3.098-3.468,4.546c-0.469,0.55-1.215,0.965-1.916,1.199
	c-3.237,1.083-6.607,1.551-9.977,1.998C98.268,163.959,98.059,163.913,97.748,163.894z"/>
<path fill-rule="evenodd" clip-rule="evenodd" fill="#fa57ac" class="fill" d="M95.599,75.53c-2.942-0.266-5.821-0.345-8.603-1.18
	c-0.679-0.205-1.217-0.611-0.993-1.47c2.245-2.212,7.23-2.783,10.562-1.124c-0.141,0.596-0.283,1.232-0.443,1.864
	C95.969,74.214,95.799,74.801,95.599,75.53z"/>
<path fill-rule="evenodd" clip-rule="evenodd" fill="#fa57ac" class="fill" d="M100.193,75.717c0.24-1.068,0.426-1.89,0.659-2.929
	c0.962,0.867,1.74,1.568,2.607,2.352C102.494,76.069,101.443,75.637,100.193,75.717z"/>
</svg>
