<svg version="1.1" id="svg" xmlns="http://www.w3.org/2000/svg" xmlns:xlink="http://www.w3.org/1999/xlink" x="0px" y="0px"
	 width="200px" height="200px" viewBox="0 0 200 200" enable-background="new 0 0 200 200" xml:space="preserve">
<path class="stroke" fill="#6a2906"  fill-rule="evenodd" clip-rule="evenodd" d="M95.249,100.354c-0.659,0.973-1.744,0.891-2.804,1.271
	c-0.131,1.191-0.305,2.432-0.397,3.678c-0.343,4.618-0.695,9.235-0.97,13.856c-0.116,1.956,0.005,3.925-0.081,5.883
	c-0.083,1.866-0.212,3.738-0.479,5.585c-0.18,1.25-1.254,1.99-2.255,2.528c-2.297,1.233-4.626,2.384-7.232,2.954
	c-2.243,0.49-4.45,1.112-6.763,1.084c-2.101-0.024-4.22,0.048-6.295-0.21c-3.987-0.494-7.951-1.183-11.921-1.812
	c-0.501-0.08-1.005-0.231-1.471-0.434c-2.823-1.229-5.774-2.17-8.408-3.826c-0.988-0.622-1.576-1.438-1.661-2.589
	c-0.044-0.604-0.049-1.218,0.001-1.822c0.338-4.009,0.762-8.012,1.03-12.026c0.255-3.822,0.355-7.655,0.528-11.612
	c-1.076-0.289-2.004-0.538-3.012-0.808c-0.148-0.335-0.31-0.704-0.536-1.214c-0.379,0.268-0.733,0.518-1.003,0.708
	c-0.18,1.447-0.343,2.742-0.504,4.025c-1.705,1.617-2.966,1.082-3.905-1.71c-0.858,0.448-1.708,0.893-2.692,1.406
	c-0.656,1.191,0.542,2.753-0.399,4.065c-1.821,1.062-3.129,0.667-4.773-0.858c-1.173,0.038-1.874,0.915-2.793,1.63
	c-0.082,2.042-0.166,4.138-0.25,6.27c-0.865,0.767-1.858,0.992-2.979,0.668c-0.975-0.282-1.395-0.801-1.453-1.813
	c-0.02-0.326,0.022-0.656,0.009-0.984c-0.01-0.277-0.058-0.553-0.097-0.899c-0.934,0.039-1.581,0.506-2.22,1.236
	c0,1.733,0,3.55,0,5.446c-0.621,0.276-1.249,0.556-1.829,0.814c-0.43,0-0.805,0.023-1.176-0.004
	c-1.824-0.131-2.533-0.835-2.546-2.651c-0.016-2.059,0.025-4.118,0.064-6.178c0.058-3.039,0.089-6.079,0.222-9.114
	c0.082-1.859,0.315-3.713,0.524-5.564c0.056-0.5,0.269-0.983,0.38-1.369c1.955-1.501,3.904-1.351,5.147,0.374
	c0.559-0.296,1.128-0.598,1.701-0.9c0.142-1.308,0.239-2.562,0.423-3.805c0.356-2.408,2.525-3.348,4.647-1.964
	c0.031,0.493,0.065,1.04,0.099,1.589c1.033-0.116,1.106-0.149,2.448-1.131c0.036-0.299,0.098-0.663,0.12-1.029
	c0.028-0.467-0.004-0.938,0.041-1.402c0.21-2.139,0.949-3.756,3.881-3.649c1.896,0.523,1.225,2.097,1.446,3.472
	c1-0.327,1.906-0.623,2.752-0.9c0.369-1.371-0.189-2.801,0.876-3.916c0.932-0.049,1.907-0.433,2.867,0.334
	c0.061,0.761,0.123,1.54,0.2,2.511c0.775-0.288,1.443-0.536,2.05-0.762c0.376-1.349,0.437-2.707,2.024-3.086
	c1.044-0.248,1.412-0.232,2.666,0.676c0.048,1.022,0.102,2.215,0.163,3.524c0.208-0.161,0.477-0.293,0.637-0.506
	c2.794-3.688,5.553-7.401,8.366-11.075c1.649-2.154,3.35-4.271,5.084-6.357c1.253-1.508,2.588-2.947,3.907-4.399
	c0.31-0.342,0.701-0.608,1.196-1.03c0.403,0.218,0.904,0.366,1.238,0.687c2.466,2.379,4.506,5.125,6.506,7.886
	c2.553,3.522,5.006,7.117,7.466,10.707c1.586,2.315,3.064,4.705,4.666,7.009c1.387,1.997,2.928,3.887,4.311,5.887
	c1.087,1.573,2.045,3.236,3.036,4.874C95.2,99.801,95.194,100.109,95.249,100.354z M37.55,98.094c0-1.994,0-3.775,0-5.666
	c-1.21,0.38-2.227,0.674-2.992,1.75c0,1.673,0,3.46,0,5.514C35.688,99.088,36.605,98.598,37.55,98.094z M29.089,102.363
	c0.081-1.791,0.161-3.525,0.243-5.329c-1.229,0.12-1.954,0.74-2.741,1.491c0,1.602,0,3.25,0,5.087
	C27.47,103.173,28.199,102.809,29.089,102.363z M21.873,101.766c-1.659,0.374-2.084,0.87-2.101,2.298
	c-0.01,0.884-0.062,1.767-0.086,2.65c-0.011,0.39-0.002,0.781-0.002,1.395c0.853-0.469,1.484-0.816,2.189-1.204
	C21.873,105.18,21.873,103.521,21.873,101.766z M41.615,90.912c-0.351,1.816-0.223,3.349,0.336,4.019
	c0.556-0.743,1.105-1.478,1.574-2.104c0-0.943,0-1.76,0-2.814C42.79,90.359,42.229,90.623,41.615,90.912z"/>
<path class="stroke" fill="#6a2906"  fill-rule="evenodd" clip-rule="evenodd" d="M105.955,83.032c0.452-0.02,0.861-0.038,1.439-0.063
	c0.244,0.589,0.483,1.166,0.784,1.89c2.911,1.256,5.943,2.586,9.295,2.962c2.048,0.229,4.088,0.51,6.15,0.152
	c3.2-0.555,6.099-1.737,8.59-4.081c0.183-3.353,0.369-6.753,0.561-10.299c-0.66-0.283-1.331-0.57-2.053-0.881
	c-0.309,0.186-0.62,0.371-1,0.6c-1.496-0.436-2.874-1.146-4.078-2.454c1.502-1.981,2.597-4.209,4.54-5.828
	c0.601-0.5,1.018-1.215,1.548-1.807c2.53-2.822,5.068-5.638,7.606-8.454c1.939-2.151,3.879-4.303,5.823-6.45
	c2.479-2.738,4.944-5.487,7.453-8.198c0.695-0.752,1.536-1.368,2.287-2.071c1.122-1.05,2.239-2.104,3.324-3.191
	c0.395-0.395,0.768-0.679,1.58-0.422c0.7,0.906,1.583,1.934,2.339,3.048c2.204,3.247,4.31,6.561,6.547,9.784
	c1.275,1.838,2.76,3.528,4.096,5.325c2.472,3.327,4.917,6.675,7.347,10.032c0.875,1.209,1.711,2.448,2.5,3.715
	c1.384,2.221,2.751,4.453,4.055,6.722c0.428,0.745,0.636,1.616,0.999,2.572c-0.779,0.402-1.42,0.732-2.149,1.109
	c-0.078,0.317-0.177,0.716-0.306,1.237c-1.697,0.389-3.415,0.783-5.189,1.188c-0.206,1.717-0.332,3.389-0.62,5.031
	c-0.494,2.82-0.531,5.656-0.664,8.504c-0.153,3.256-0.748,6.494-1.181,9.735c-0.143,1.064-0.296,2.143-0.609,3.164
	c-0.209,0.682-0.604,1.375-1.098,1.889c-1.794,1.862-4.128,2.679-6.608,3.127c-2.249,0.405-4.504,0.779-6.758,1.157
	c-0.369,0.062-0.746,0.105-1.118,0.101c-4.722-0.051-9.433,0.02-14.136-0.761c-3.241-0.538-6.452-1.131-9.575-2.12
	c-2.756-0.872-5.27-2.171-6.876-5.071c-0.109-5.625,0.857-11.42,0.949-17.522c-0.61,0.283-1.034,0.481-1.457,0.678
	c-0.033,0.52-0.06,0.929-0.089,1.38c-0.332,0.23-0.671,0.467-1.099,0.765c0,1.12,0,2.279,0,3.575
	c-0.907,0.229-1.751,0.44-2.596,0.653c-0.645-0.663-0.349-1.458-0.444-2.168c-0.092-0.688-0.115-1.384-0.181-2.239
	c-0.561,0.09-0.993,0.16-1.578,0.254c-0.15,2.149-0.295,4.234-0.435,6.231c-0.853,1.008-1.812,1.058-3.078,0.734
	c0-2.175,0-4.357,0-6.743c-1.196-0.082-2.193-0.15-3.334-0.229c-0.263,2.621-0.517,5.151-0.776,7.741c-0.646,0-1.219,0-1.959,0
	c-0.12-1.51-0.231-2.905-0.354-4.435c-1.052,0.513-0.841,1.393-1.105,2.025c-0.269,0.642-0.398,1.341-0.619,2.12
	c-0.321,0.155-0.68,0.329-1.116,0.54c-0.16-0.341-0.379-0.584-0.364-0.812c0.12-1.817,0.261-3.634,0.442-5.446
	c0.101-1.012,0.29-2.015,0.449-3.092c-1.232-0.464-2.358-0.888-3.705-1.395c-0.132,0.799-0.331,1.459-0.333,2.119
	c-0.008,2.854,0.046,5.709,0.066,8.564c0.012,1.718,0.003,3.436,0.003,5.238c-0.888,0-1.608,0-2.29,0
	C105.233,100.997,105.342,84.376,105.955,83.032z"/>
<path class="stroke" fill="#6a2906"  fill-rule="evenodd" clip-rule="evenodd" d="M165.783,122.612c0.844-0.136,1.721,0.044,2.47,1.032
	c-0.1,1.085-0.213,2.318-0.346,3.765c0.858-0.165,1.512-0.292,2.22-0.428c0.12-1.377,0.221-2.675,0.352-3.971
	c0.064-0.65,0.196-1.293,0.271-1.943c0.171-1.476,1.322-2.307,2.63-2.515c0.597-0.095,1.207-0.113,2.044-0.336
	c0.352,0.357,0.704,0.715,0.861,0.874c0.104,2.07-0.631,3.708-0.144,5.539c0.769-0.339,1.437-0.635,2.204-0.973
	c0.107-0.956,0.223-1.923,0.324-2.891c0.081-0.79,0.121-1.584,0.219-2.371c0.276-2.208,2.173-3.308,4.498-2.515
	c0.358,1.053,0.386,2.207,0.322,3.371c-0.121,2.241-0.213,4.482-0.375,6.721c-0.222,3.077-0.519,6.149-0.74,9.226
	c-0.101,1.397-0.176,2.806-0.115,4.202c0.047,1.084-0.17,2.032-0.859,3.059c-0.895,0.269-1.911,0.574-2.917,0.876
	c-1.141-0.471-0.465-1.644-1.089-2.495c-0.75,0.263-1.563,0.547-2.489,0.871c0,1.53,0,3.058,0,4.464
	c-0.443,0.521-0.772,0.908-1.186,1.395c-1.169,0.229-2.413,0.689-3.667,0.242c-0.958-0.75-0.471-1.815-0.784-2.715
	c-0.807-0.567-1.576,0.032-2.525,0.089c-0.135,1.46-0.267,2.882-0.39,4.217c-1.791,1.338-2.907,1.429-4.475,0.402
	c-0.148-0.489-0.307-1.016-0.498-1.648c-0.674,0.221-1.276,0.419-1.872,0.616c0,1.491,0,2.923,0,4.319
	c-1.834,1.744-2.865,2.49-4.938,0.894c-0.09-0.843-0.189-1.765-0.308-2.882c-1.015,0.174-1.992,0.34-3.083,0.526
	c0,1.251,0,2.403,0,3.55c-0.596,0.776-1.277,1.208-2.22,1.396c-1.544,0.307-3.044,1.023-4.586,1.104
	c-1.879,0.098-3.737,0.622-5.634,0.354c-0.459-0.064-0.916-0.146-1.571-0.251c-0.356-0.887-0.729-1.812-1.171-2.914
	c-0.947,0.207-1.965,0.43-3.08,0.673c0,1.395,0,2.641,0,3.839c-1.259,1.211-2.791,0.952-4.378,1.279
	c-0.522-0.51-1.288-0.993-1.646-1.687c-0.331-0.644-0.227-1.513-0.326-2.387c-0.646,0.16-1.224,0.303-1.871,0.464
	c-0.117,1.211-0.227,2.362-0.338,3.514c-1.206,1.485-3.301,1.465-5.244-0.12c-0.129-0.638-0.275-1.361-0.439-2.171
	c-1.274-0.141-2.504-0.231-3.669,0.25c-0.633,1.239,0.451,2.745-0.985,3.958c-1.043-0.063-2.284-0.14-3.339-0.204
	c-0.617-0.495-1.051-0.844-1.668-1.342c0-0.739-0.07-1.624,0.012-2.493c0.368-3.91,0.802-7.812,1.167-11.723
	c0.213-2.28,0.284-4.575,0.532-6.851c0.104-0.955,0.447-1.897,0.783-2.807c0.321-0.872,1.019-1.299,1.975-1.28
	c0.42,0.008,0.844-0.017,1.262-0.069c0.807-0.099,1.481,0.093,2.01,0.853c0,0.624,0,1.314,0,2.144c1.146,0,2.239,0,3.469,0
	c0.467-1.46,1.125-2.843,2.62-3.644c1.711-0.163,1.774-0.147,3.396,0.891c0.036,0.335,0.075,0.703,0.134,1.253
	c0.54-0.068,1.065-0.135,1.685-0.214c0.289-1.515,0.876-2.843,2.406-3.379c0.976-0.342,2.007-0.481,3.145,0.109
	c0.074,0.493,0.162,1.07,0.272,1.803c1.066-0.132,2.107-0.259,3.223-0.396c0.141-0.333,0.272-0.672,0.425-1
	c0.525-1.12,1.402-1.632,2.644-1.759c1.095-0.112,2.167-0.451,3.248-0.702c0.317-0.074,0.625-0.277,0.937-0.272
	c2.073,0.03,4.038-0.642,6.065-0.893c1.441-0.178,1.864,0.107,2.464,1.685c0.665-0.108,1.365-0.224,2.04-0.334
	c0.544-1.854,0.536-3.915,3.143-4.415c0.516,0.185,1.276,0.457,2.02,0.723c0,0.433-0.007,0.663,0.002,0.893
	c0.008,0.223,0.032,0.447,0.064,0.887c0.886-0.178,1.676-0.337,2.514-0.505c0.17-1.325,0.32-2.526,0.479-3.727
	C163.55,124.327,164.074,123.179,165.783,122.612z M119.391,152.545c0.073-1.389,0.165-2.64,0.197-3.893
	c0.033-1.28,0.007-2.562,0.007-3.846c-1.161-0.298-2.243-0.403-3.354,0.096c-0.169,2.565-0.85,5.055-0.658,7.643
	C116.89,152.545,118.047,152.545,119.391,152.545z M133.4,141.537c0,2.804,0,5.427,0,8.102c1.15-0.177,2.257,0.122,3.2-0.513
	c0-2.599,0-5.134,0-7.846C135.477,141.37,134.485,141.45,133.4,141.537z M154.599,145.323c0.088-2.586,0.172-5.044,0.264-7.725
	c-0.937,0.144-1.727,0.265-2.558,0.393c-0.236,2.714-0.82,5.219-0.68,8.004C152.694,145.753,153.619,145.544,154.599,145.323z
	 M162.509,135.252c-0.713,0.217-1.109,0.333-1.505,0.457c-0.386,0.123-0.771,0.255-1.094,0.362
	c-0.294,1.838-0.254,5.756,0.097,6.935c0.679-0.251,1.347-0.499,2.003-0.741C162.18,139.881,162.336,137.669,162.509,135.252z
	 M125.181,151.771c0.783-0.122,1.301-0.203,1.936-0.302c0.07-2.889,0.484-5.681,0.227-8.697c-0.661,0.258-1.15,0.448-1.612,0.629
	C125.549,146.179,125.375,148.815,125.181,151.771z M175.482,130.412c0,1.155-0.013,2.086,0.003,3.017
	c0.018,0.947-0.17,1.912,0.124,3.027c0.897-0.381,1.646-0.699,2.439-1.036c0-1.991,0-3.841,0-5.859
	C177.164,129.854,176.391,130.111,175.482,130.412z M169.663,139.27c0-1.191-0.003-2.215,0-3.24c0.004-0.992,0.523-1.985,0-3.1
	c-0.701,0.197-1.359,0.382-2.048,0.575c-0.072,1.145-0.165,2.211-0.199,3.279c-0.034,1.046-0.007,2.096-0.007,3.336
	C168.214,139.815,168.848,139.577,169.663,139.27z"/>
<path class="stroke" fill="#6a2906"  fill-rule="evenodd" clip-rule="evenodd" d="M80.219,61.826c0.68-1.39,1.189-2.759,1.965-3.957
	c1.804-2.788,3.769-5.47,5.608-8.236c2.304-3.464,4.519-6.987,6.83-10.447c1.009-1.511,2.162-2.927,3.13-4.226
	c0.783-0.318,1.22-0.122,1.568,0.334c1.387,1.818,2.77,3.641,4.156,5.46c2.742,3.6,5.439,7.234,8.243,10.785
	c1.793,2.272,3.757,4.41,5.619,6.629c0.895,1.066,1.268,2.336,1.328,3.889c-1.375,0.19-2.684,0.371-4.099,0.567
	c-0.958,4.885-1.337,9.748-1.519,14.651c-0.641,1.275-1.723,1.935-3.088,2.39c-2.614,0.87-5.262,0.682-7.922,0.553
	c-0.559-0.027-1.117-0.139-1.674-0.127c-3.792,0.084-7.429-0.776-11.031-1.814c-1.25-0.36-2.454-0.876-3.69-1.324
	c-0.543-1.526-0.267-3.032-0.218-4.507c0.056-1.676,0.302-3.345,0.411-5.021c0.113-1.759,0.161-3.522,0.237-5.288
	c-0.354-0.135-0.562-0.215-0.84-0.32c-0.283,0.307-0.555,0.602-0.836,0.906C83.028,62.648,81.659,62.759,80.219,61.826z"/>
<path class="stroke" fill="#6a2906"  fill-rule="evenodd" clip-rule="evenodd" d="M145.046,125.604c0.633,1.272,0.448,1.623-1.378,2.296
	c-0.361-0.252-0.822-0.574-1.234-0.862C142.936,125.349,143.429,125.107,145.046,125.604z"/>
<path class="stroke" fill="#6a2906"  fill-rule="evenodd" clip-rule="evenodd" d="M56.123,142.96c-0.117,0.271-0.243,0.566-0.353,0.82
	c-0.633,0.324-1.01,0.058-1.339-0.9c0.483-0.531,0.972-1.068,1.461-1.606c1.205-0.07,1.205-0.07,1.197,1.199
	C56.797,142.621,56.474,142.783,56.123,142.96z"/>
<path class="stroke" fill="#6a2906"  fill-rule="evenodd" clip-rule="evenodd" d="M131.971,120.454c0.079,0.662,0.151,1.259,0.237,1.981
	c-0.702,0.079-1.19,0.134-1.697,0.19c-0.305-0.379-0.561-0.696-0.768-0.953C129.793,120.828,130.45,120.446,131.971,120.454z"/>
<path class="stroke" fill="#6a2906"  fill-rule="evenodd" clip-rule="evenodd" d="M115.803,131.366c0.138,0.343,0.303,0.756,0.482,1.201
	c-0.684,0.495-1.274,0.831-2.002,0.398c-0.551-0.326-0.768-0.794-0.494-1.435C114.31,130.997,114.905,130.922,115.803,131.366z"/>
<path class="stroke" fill="#6a2906"  fill-rule="evenodd" clip-rule="evenodd" d="M40.107,120.99c-0.187-0.849,0.36-1.208,0.998-1.433
	c0.653-0.229,1.189-0.049,1.491,0.804c-0.135,0.273-0.311,0.631-0.492,0.999C41.348,121.464,40.668,121.59,40.107,120.99z"/>
<path class="stroke" fill="#6a2906"  fill-rule="evenodd" clip-rule="evenodd" d="M75.593,144.036c0.435-1.271,0.548-1.358,1.966-1.4
	c0.127,0.367,0.27,0.778,0.39,1.125C76.927,145.013,76.639,145.035,75.593,144.036z"/>
<path class="stroke" fill="#6a2906"  fill-rule="evenodd" clip-rule="evenodd" d="M95.811,145.202c0.588,0.903-0.035,1.413-0.521,2.122
	c-0.595-0.234-1.168-0.46-1.727-0.68C93.943,145.283,94.071,145.204,95.811,145.202z"/>
<path class="stroke" fill="#6a2906"  fill-rule="evenodd" clip-rule="evenodd" d="M38.527,119.117c-0.969,1.108-1.307,1.162-2.4,0.369
	c0.091-0.353,0.19-0.744,0.272-1.067C37.857,117.699,38.031,117.759,38.527,119.117z"/>
<path class="stroke" fill="#6a2906"  fill-rule="evenodd" clip-rule="evenodd" d="M93.093,135.271c-0.296-0.221-0.648-0.485-1.109-0.829
	c0.275-0.45,0.5-0.817,0.781-1.275c0.616,0.103,1.168,0.193,1.744,0.289C94.573,134.565,94.123,135.066,93.093,135.271z"/>
<path class="stroke" fill="#6a2906"  fill-rule="evenodd" clip-rule="evenodd" d="M105.159,148.492c0.449-0.157,0.902-0.315,1.406-0.491
	c0.25,0.411,0.434,0.712,0.598,0.982c-0.496,1.06-0.496,1.06-1.465,1.353C104.974,150.004,104.909,149.416,105.159,148.492z"/>
<path class="stroke" fill="#6a2906"  fill-rule="evenodd" clip-rule="evenodd" d="M153.948,114.395c0.616-0.913,0.616-0.913,1.729-1.052
	c0.183,0.461,0.384,0.973,0.561,1.42C155.011,115.831,154.539,115.734,153.948,114.395z"/>
<path class="stroke" fill="#6a2906"  fill-rule="evenodd" clip-rule="evenodd" d="M107.552,111.162c0.078,0.247,0.16,0.417,0.182,0.596
	c0.027,0.229,0.006,0.462,0.006,0.8c-0.26,0.215-0.573,0.474-0.965,0.799c-0.414-0.217-0.799-0.418-1.15-0.602
	C105.991,111.196,106.186,111.036,107.552,111.162z"/>
<path class="stroke" fill="#6a2906"  fill-rule="evenodd" clip-rule="evenodd" d="M83.488,138.841c0.26-1.328,0.613-1.551,2.24-1.325
	c0.111,0.26,0.247,0.576,0.34,0.793C85.757,139.161,84.491,139.357,83.488,138.841z"/>
<path class="stroke" fill="#6a2906"  fill-rule="evenodd" clip-rule="evenodd" d="M97.774,104.186c0.101-0.972,0.376-1.578,1.194-1.505
	c0.314,0.028,0.771,0.413,0.854,0.718c0.218,0.808-0.419,1.121-1.156,1.45C98.383,104.638,98.071,104.407,97.774,104.186z"/>
<path class="stroke" fill="#6a2906"  fill-rule="evenodd" clip-rule="evenodd" d="M107.958,142.894c0.336,0.885,0.169,1.52-0.521,1.811
	c-0.71,0.301-1.145-0.021-1.384-0.687C106.479,142.835,106.658,142.73,107.958,142.894z"/>
<path class="stroke" fill="#6a2906"  fill-rule="evenodd" clip-rule="evenodd" d="M72.998,145.056c0.204,0.179,0.469,0.413,0.761,0.671
	c-0.298,0.553-0.485,0.901-0.645,1.197c-1.099,0.061-1.099,0.061-1.823-0.573C71.399,145.461,72.024,145.189,72.998,145.056z"/>
<path class="stroke" fill="#6a2906"  fill-rule="evenodd" clip-rule="evenodd" d="M21.895,123.836c0.183,0.641,0.086,1.127-0.452,1.389
	c-0.592,0.288-1.165,0.249-1.598-0.331C20.065,123.479,20.599,123.191,21.895,123.836z"/>
<path class="stroke" fill="#6a2906"  fill-rule="evenodd" clip-rule="evenodd" d="M92.834,149.869c-0.743,0.805-1.353,0.863-2.02,0.384
	c-0.291-1.341-0.092-1.558,1.515-1.479C92.477,149.095,92.655,149.48,92.834,149.869z"/>
<path class="stroke" fill="#6a2906"  fill-rule="evenodd" clip-rule="evenodd" d="M178.117,107.134c0.143-0.878,0.633-1.166,1.516-1.101
	c0.204,0.226,0.467,0.519,0.826,0.918c-0.264,0.32-0.436,0.734-0.705,0.814C179.132,107.949,178.46,107.975,178.117,107.134z"/>
<path class="stroke" fill="#6a2906"  fill-rule="evenodd" clip-rule="evenodd" d="M34.075,119.835c-1.235,0.658-1.365,0.633-2.228-0.376
	c0.456-0.85,0.942-1.188,1.55-1.02C34.066,118.625,34.23,119.112,34.075,119.835z"/>
<path class="stroke" fill="#6a2906"  fill-rule="evenodd" clip-rule="evenodd" d="M121.044,127.475c-0.484-0.105-0.838-0.181-1.297-0.279
	c-0.174-0.438-0.353-0.888-0.611-1.536c0.653-0.155,1.14-0.271,1.604-0.381C121.272,126.024,121.515,126.624,121.044,127.475z"/>
<path class="stroke" fill="#6a2906"  fill-rule="evenodd" clip-rule="evenodd" d="M28.456,140.474c-0.465,0-0.787,0-1.137,0c-0.188-0.279-0.364-0.543-0.535-0.797
	c0.167-0.694,0.263-1.366,1.233-1.333c0.286,0.384,0.586,0.787,0.915,1.228C28.773,139.871,28.627,140.149,28.456,140.474z"/>
<path class="stroke" fill="#6a2906"  fill-rule="evenodd" clip-rule="evenodd" d="M41.167,130.216c-0.286,0.363-0.534,0.679-0.894,1.137
	c-0.561-0.326-1.073-0.625-1.611-0.94C39.758,129.05,40.281,129.011,41.167,130.216z"/>
<path class="stroke" fill="#6a2906"  fill-rule="evenodd" clip-rule="evenodd" d="M20.55,137.517c0.465-0.663,0.799-1.142,1.126-1.607
	c1.388,0.757,1.372,1.418-0.053,2.366C21.346,138.08,21.029,137.855,20.55,137.517z"/>
<path class="stroke" fill="#6a2906"  fill-rule="evenodd" clip-rule="evenodd" d="M59.395,144.396c-0.246,1.449-0.88,1.721-2.127,0.91
	C57.683,143.987,58.331,143.709,59.395,144.396z"/>
<path class="stroke" fill="#6a2906"  fill-rule="evenodd" clip-rule="evenodd" d="M153.886,124.752c0.211,0.302,0.343,0.441,0.413,0.607
	c0.069,0.165,0.073,0.356,0.104,0.527c-0.488,0.828-1.184,0.598-1.998,0.468c0-0.434,0-0.849,0-1.375
	C152.942,124.897,153.382,124.83,153.886,124.752z"/>
<path class="stroke" fill="#6a2906"  fill-rule="evenodd" clip-rule="evenodd" d="M103.167,109.391c-0.898,1.267-1.66,1.281-2.407,0.047
	C101.729,108.507,102.442,108.493,103.167,109.391z"/>
<path class="stroke" fill="#6a2906"  fill-rule="evenodd" clip-rule="evenodd" d="M114.205,124.898c0.26-1.369,0.438-1.501,1.685-1.253
	c0.406,0.554,0.291,1.041-0.247,1.43C115.119,125.454,114.613,125.486,114.205,124.898z"/>
<path class="stroke" fill="#6a2906"  fill-rule="evenodd" clip-rule="evenodd" d="M72.296,138.403c0.724,1.183,0.713,1.275-0.316,2.245
	c-0.315-0.183-0.673-0.389-0.995-0.575C71.07,139.14,71.476,138.66,72.296,138.403z"/>
<path class="stroke" fill="#6a2906"  fill-rule="evenodd" clip-rule="evenodd" d="M119.994,117.676c0.206-0.882,0.741-1.213,1.451-0.956
	c0.737,0.267,0.708,0.859,0.303,1.475C121.049,118.493,120.427,118.541,119.994,117.676z"/>
<path class="stroke" fill="#6a2906"  fill-rule="evenodd" clip-rule="evenodd" d="M103.725,98.22c0.122,0.359,0.234,0.692,0.34,1.007
	c-1.128,0.768-1.256,0.748-2.169-0.275C102.33,98.035,102.33,98.035,103.725,98.22z"/>
<path class="stroke" fill="#6a2906"  fill-rule="evenodd" clip-rule="evenodd" d="M107.873,155.054c-0.049,0.438-0.103,0.911-0.174,1.537
	c-0.581-0.061-1.038-0.108-1.456-0.151C106.041,154.804,106.436,154.479,107.873,155.054z"/>
<path class="stroke" fill="#6a2906"  fill-rule="evenodd" clip-rule="evenodd" d="M176.075,110.844c0.02-0.75,0.307-1.2,1.012-1.3
	c0.876,0.601,0.876,0.601,0.501,1.738C176.963,111.699,176.477,111.564,176.075,110.844z"/>
<path class="stroke" fill="#6a2906"  fill-rule="evenodd" clip-rule="evenodd" d="M51.367,135.309c0.138,0.321,0.292,0.681,0.43,1.005
	c-0.949,0.855-0.984,0.857-2.034,0.188C49.983,135.366,50.025,135.333,51.367,135.309z"/>
<path class="stroke" fill="#6a2906"  fill-rule="evenodd" clip-rule="evenodd" d="M163.919,116.549c0.025,0.387,0.042,0.65,0.065,0.989
	c-0.463,0.167-0.885,0.318-1.37,0.492c-0.271-0.257-0.523-0.496-0.867-0.821c0.291-0.407,0.541-0.756,0.818-1.145
	C163.056,116.24,163.434,116.376,163.919,116.549z"/>
<path class="stroke" fill="#6a2906"  fill-rule="evenodd" clip-rule="evenodd" d="M40.727,125.7c-0.583,0.494-1.142,0.566-1.733-0.105
	c0.09-0.702,0.313-1.297,1.202-1.352C40.926,124.537,41.017,125.044,40.727,125.7z"/>
<path class="stroke" fill="#6a2906"  fill-rule="evenodd" clip-rule="evenodd" d="M31.038,122.815c0.416,0.664,0.427,1.201-0.196,1.509
	c-0.621,0.307-1.244,0.27-1.66-0.468C29.464,122.919,30.129,122.724,31.038,122.815z"/>
<path class="stroke" fill="#6a2906"  fill-rule="evenodd" clip-rule="evenodd" d="M122.63,115.272c-0.366-1.547-0.178-1.827,1.161-1.881
	c0.14,0.424,0.293,0.886,0.51,1.544C123.687,115.06,123.196,115.158,122.63,115.272z"/>
<path class="stroke" fill="#6a2906"  fill-rule="evenodd" clip-rule="evenodd" d="M164.787,116.895c1.52-0.665,1.612-0.634,2.035,0.556
	c-0.382,0.589-0.889,0.864-1.747,0.543C164.993,117.682,164.896,117.306,164.787,116.895z"/>
<path class="stroke" fill="#6a2906"  fill-rule="evenodd" clip-rule="evenodd" d="M107.114,106.553c-0.387-0.2-0.739-0.384-1.065-0.553
	c0.252-1.275,0.282-1.299,1.523-1.306C108.145,105.742,108.145,105.742,107.114,106.553z"/>
<path class="stroke" fill="#6a2906"  fill-rule="evenodd" clip-rule="evenodd" d="M123.212,123.17c0.219-1.26,0.434-1.418,1.887-1.363
	c0.052,0.348,0.108,0.722,0.145,0.965C124.786,123.421,124.288,123.494,123.212,123.17z"/>
<path class="stroke" fill="#6a2906"  fill-rule="evenodd" clip-rule="evenodd" d="M145.482,113.829c-0.292,0.326-0.529,0.588-0.824,0.918
	c-0.41-0.209-0.766-0.391-1.036-0.529c-0.317-0.87,0.065-1.277,1.176-1.418c0.079,0.047,0.189,0.077,0.23,0.146
	C145.168,113.184,145.284,113.436,145.482,113.829z"/>
<path class="stroke" fill="#6a2906"  fill-rule="evenodd" clip-rule="evenodd" d="M126.519,125.063c0.247,0.28,0.516,0.584,0.916,1.035
	c-0.542,0.357-1.005,0.663-1.521,1.003c-0.315-0.395-0.539-0.673-0.755-0.944C125.367,125.462,125.687,125.015,126.519,125.063z"/>
<path class="stroke" fill="#6a2906"  fill-rule="evenodd" clip-rule="evenodd" d="M102.164,149.016c-0.277-0.285-0.579-0.593-0.863-0.885
	c0.744-1.177,0.744-1.177,1.89-0.788C103.293,148.09,103.079,148.66,102.164,149.016z"/>
<path class="stroke" fill="#6a2906"  fill-rule="evenodd" clip-rule="evenodd" d="M59.763,149.067c0.306,0.566,0.364,1.055-0.168,1.388
	c-0.599,0.375-1.125,0.062-1.619-0.271C58.173,149.108,58.309,149.021,59.763,149.067z"/>
<path class="stroke" fill="#6a2906"  fill-rule="evenodd" clip-rule="evenodd" d="M97.124,134.516c0.429-0.806,1.074-1.059,2.015-0.844
	c0.08,0.289,0.16,0.583,0.233,0.85C98.244,135.294,98.244,135.294,97.124,134.516z"/>
<path class="stroke" fill="#6a2906"  fill-rule="evenodd" clip-rule="evenodd" d="M131.532,108.45c-0.649,0.722-1.143,0.722-1.644,0.203
	c-0.041-1.356-0.008-1.398,1.25-1.424C131.261,107.61,131.395,108.025,131.532,108.45z"/>
<path class="stroke" fill="#6a2906"  fill-rule="evenodd" clip-rule="evenodd" d="M73.513,152.05c0.021-0.16,0.002-0.358,0.078-0.51
	c0.099-0.196,0.274-0.354,0.413-0.522c0.443,0,0.848,0,1.279,0c0.132,0.276,0.246,0.516,0.333,0.697
	C75.354,152.504,74.478,152.622,73.513,152.05z"/>
<path class="stroke" fill="#6a2906"  fill-rule="evenodd" clip-rule="evenodd" d="M150.957,114.835c0.114-0.776,0.583-1.118,1.427-1.103
	c0.181,0.242,0.395,0.528,0.595,0.796C152.172,115.736,151.718,115.791,150.957,114.835z"/>
<path class="stroke" fill="#6a2906"  fill-rule="evenodd" clip-rule="evenodd" d="M98.564,142.106c-0.013-1.126,0.535-1.337,1.372-1.233
	c0.588,0.556,0.621,1.078-0.204,1.694C99.382,142.429,98.957,142.262,98.564,142.106z"/>
<path class="stroke" fill="#6a2906"  fill-rule="evenodd" clip-rule="evenodd" d="M132.552,128.033c0.041-0.837,0.695-0.984,1.446-1.241
	c0.277,0.29,0.57,0.597,0.855,0.896C133.898,128.72,133.564,128.757,132.552,128.033z"/>
<path class="stroke" fill="#6a2906"  fill-rule="evenodd" clip-rule="evenodd" d="M46.966,142.1c-0.547,0.664-1.061,1.039-1.823,0.642
	c-0.206-1.186-0.096-1.327,1.233-1.564c0.101,0.096,0.255,0.2,0.351,0.345C46.825,141.668,46.867,141.852,46.966,142.1z"/>
<path class="stroke" fill="#6a2906"  fill-rule="evenodd" clip-rule="evenodd" d="M96.538,93.448c0.15-1.018,0.831-1.148,1.675-1.199
	c0.166,0.307,0.328,0.608,0.478,0.884C97.794,94.144,97.702,94.158,96.538,93.448z"/>
<path class="stroke" fill="#6a2906"  fill-rule="evenodd" clip-rule="evenodd" d="M159.128,125.262c0.603-1.333,1.038-1.41,1.972-0.352
	C160.623,126.186,160.072,126.284,159.128,125.262z"/>
<path class="stroke" fill="#6a2906"  fill-rule="evenodd" clip-rule="evenodd" d="M27.521,117.992c0.333-0.831,0.894-1.164,1.91-0.976
	c0.055,0.352,0.114,0.724,0.176,1.118C28.801,118.501,28.14,118.863,27.521,117.992z"/>
<path class="stroke" fill="#6a2906"  fill-rule="evenodd" clip-rule="evenodd" d="M116.073,119.031c-1.012,0.478-1.546,0.277-1.835-0.591
	c0.237-0.679,0.685-0.965,1.555-0.804C115.876,118.055,115.971,118.52,116.073,119.031z"/>
<path class="stroke" fill="#6a2906"  fill-rule="evenodd" clip-rule="evenodd" d="M43.61,111.376c0.027,0.208,0.082,0.436,0.077,0.662
	c-0.003,0.181-0.078,0.36-0.118,0.526c-0.68,0.354-1.267,0.365-1.741-0.271C42.193,111.074,42.37,110.981,43.61,111.376z"/>
<path class="stroke" fill="#6a2906"  fill-rule="evenodd" clip-rule="evenodd" d="M108.856,133.286c-1.372,0.564-1.525,0.519-1.91-0.508
	C108.044,131.766,108.503,131.87,108.856,133.286z"/>
<path class="stroke" fill="#6a2906"  fill-rule="evenodd" clip-rule="evenodd" d="M127.085,102.547c0.412-0.335,0.716-0.582,0.966-0.785
	c0.908,0.196,1.051,0.697,0.865,1.468c-0.272,0.131-0.591,0.283-1.044,0.501C127.606,103.331,127.373,102.981,127.085,102.547z"/>
<path class="stroke" fill="#6a2906"  fill-rule="evenodd" clip-rule="evenodd" d="M127.015,111.663c0.091-0.635,0.336-1.129,1.239-1.192
	c0.197,0.238,0.443,0.534,0.67,0.808C128.081,112.355,127.947,112.378,127.015,111.663z"/>
<path class="stroke" fill="#6a2906"  fill-rule="evenodd" clip-rule="evenodd" d="M39.391,106.788c0,0.825,0,1.319,0,1.906c-0.556,0-0.98,0-1.498,0
	c-0.038-0.449-0.066-0.792-0.1-1.201C38.258,107.289,38.657,107.112,39.391,106.788z"/>
<path class="stroke" fill="#6a2906"  fill-rule="evenodd" clip-rule="evenodd" d="M65.597,147.137c-0.497,0.462-0.985,0.946-1.769,0.604
	c-0.097-1.011,0.062-1.295,0.779-1.438C65.152,146.194,65.265,146.287,65.597,147.137z"/>
<path class="stroke" fill="#6a2906"  fill-rule="evenodd" clip-rule="evenodd" d="M102.815,116.053c0.432-0.74,1.105-0.469,1.848-0.436
	c0.094,0.326,0.186,0.646,0.309,1.071c-0.437,0.09-0.74,0.204-1.043,0.204C103.329,116.893,103.329,116.867,102.815,116.053z"/>
<path class="stroke" fill="#6a2906"  fill-rule="evenodd" clip-rule="evenodd" d="M139.346,116.966c-0.39,0.324-0.759,0.63-1.161,0.965
	c-0.347-0.249-0.601-0.43-1.01-0.724c0.258-0.354,0.42-0.758,0.72-0.949C138.47,115.89,138.953,116.1,139.346,116.966z"/>
<path class="stroke" fill="#6a2906"  fill-rule="evenodd" clip-rule="evenodd" d="M161.423,120.012c0.27,0.445,0.448,0.738,0.756,1.249
	c-0.274,0.276-0.52,0.523-0.766,0.771c-0.954-0.178-1.203-0.659-1.381-1.434C160.467,120.415,160.863,120.248,161.423,120.012z"/>
<path class="stroke" fill="#6a2906"  fill-rule="evenodd" clip-rule="evenodd" d="M95.489,157.093c0.419-0.393,0.762-0.714,1.251-1.172
	c0.393,0.466,0.704,0.833,1.139,1.347c-0.615,0.296-1.008,0.485-1.449,0.698C96.124,157.681,95.869,157.445,95.489,157.093z"/>
<path class="stroke" fill="#6a2906"  fill-rule="evenodd" clip-rule="evenodd" d="M130.628,117.376c0.136-0.666,0.419-1.052,1.063-0.969
	c0.617,0.081,0.882,0.463,0.807,1.197c-0.245,0.15-0.543,0.333-0.896,0.549C131.235,117.861,130.919,117.608,130.628,117.376z"/>
<path class="stroke" fill="#6a2906"  fill-rule="evenodd" clip-rule="evenodd" d="M69.288,142.608c0.561,0.54,0.596,1.006-0.022,1.576
	c-0.424-0.075-0.903-0.16-1.386-0.246C68.102,142.901,68.102,142.901,69.288,142.608z"/>
<path class="stroke" fill="#6a2906"  fill-rule="evenodd" clip-rule="evenodd" d="M33.266,114.608c-0.277,1.272-0.451,1.359-1.662,0.906
	C31.576,114.229,32.009,113.972,33.266,114.608z"/>
<path class="stroke" fill="#6a2906"  fill-rule="evenodd" clip-rule="evenodd" d="M170.831,112.725c-0.192-0.931,0.492-1.114,1.209-1.387
	c0.215,0.299,0.418,0.581,0.603,0.838C171.949,113.151,171.949,113.151,170.831,112.725z"/>
<path class="stroke" fill="#6a2906"  fill-rule="evenodd" clip-rule="evenodd" d="M28.473,126.485c-0.869,1.083-0.998,1.112-2.051,0.524
	C26.871,125.673,27.396,125.518,28.473,126.485z"/>
<path class="stroke" fill="#6a2906"  fill-rule="evenodd" clip-rule="evenodd" d="M120.452,111.564c0.176-0.833,0.479-1.369,1.5-1.371
	c0.139,0.309,0.289,0.644,0.43,0.955C121.409,111.82,121.409,111.82,120.452,111.564z"/>
<path class="stroke" fill="#6a2906"  fill-rule="evenodd" clip-rule="evenodd" d="M152.296,119.326c0.516-0.091,0.955-0.304,1.295-0.199
	c0.57,0.177,0.671,0.692,0.448,1.235C152.9,120.839,152.829,120.808,152.296,119.326z"/>
<path class="stroke" fill="#6a2906"  fill-rule="evenodd" clip-rule="evenodd" d="M165.349,114.208c-0.324,0.877-0.91,0.976-1.771,0.622c0-0.366,0-0.747,0-1.135
	C164.379,113.344,164.984,113.33,165.349,114.208z"/>
<path class="stroke" fill="#6a2906"  fill-rule="evenodd" clip-rule="evenodd" d="M141.682,114.879c-0.848,0.595-1.438,0.501-2.162-0.153
	c0.199-0.367,0.409-0.753,0.742-1.37C140.822,113.956,141.218,114.381,141.682,114.879z"/>
<path class="stroke" fill="#6a2906"  fill-rule="evenodd" clip-rule="evenodd" d="M125.623,103.938c-0.631,0-1.062,0-1.755,0c0.323-0.639,0.547-1.084,0.799-1.584
	c0.47,0.178,0.795,0.3,1.211,0.457C125.787,103.215,125.711,103.547,125.623,103.938z"/>
<path class="stroke" fill="#6a2906"  fill-rule="evenodd" clip-rule="evenodd" d="M24.09,121.443c0.551-0.381,0.954-0.659,1.46-1.01
	c0.376,0.442,0.651,0.763,0.931,1.091C25.469,122.285,25.422,122.286,24.09,121.443z"/>
<path class="stroke" fill="#6a2906"  fill-rule="evenodd" clip-rule="evenodd" d="M77.573,147.779c1.034-0.995,1.13-0.99,2.075,0.055
	c-0.267,0.291-0.546,0.595-0.908,0.989C78.299,148.429,77.975,148.139,77.573,147.779z"/>
<path class="stroke" fill="#6a2906"  fill-rule="evenodd" clip-rule="evenodd" d="M44.474,136.138c-0.083,0.465-0.15,0.831-0.237,1.313
	c-0.599-0.065-1.061-0.115-1.53-0.166C42.894,135.998,42.894,135.998,44.474,136.138z"/>
<path class="stroke" fill="#6a2906"  fill-rule="evenodd" clip-rule="evenodd" d="M85.07,146.573c0.312-1.057,0.312-1.059,1.458-1.234
	c0.029,0.047,0.115,0.157,0.169,0.282c0.072,0.168,0.12,0.346,0.177,0.52C86.428,146.896,85.896,147.127,85.07,146.573z"/>
<path class="stroke" fill="#6a2906"  fill-rule="evenodd" clip-rule="evenodd" d="M45.771,134.085c0.774-1.191,1.496-1.208,2.062-0.125
	C46.958,134.879,46.837,134.89,45.771,134.085z"/>
<path class="stroke" fill="#6a2906"  fill-rule="evenodd" clip-rule="evenodd" d="M103.213,157.809c0.781-0.16,1.326-0.029,1.415,0.88
	c-0.314,0.572-0.789,0.826-1.371,0.491C102.704,158.86,102.714,158.367,103.213,157.809z"/>
<path class="stroke" fill="#6a2906"  fill-rule="evenodd" clip-rule="evenodd" d="M178.053,113.172c0.386-0.322,0.705-0.587,1.017-0.848
	c0.702,0.417,1.023,0.844,0.814,1.583C179.143,114.257,178.649,113.96,178.053,113.172z"/>
<path class="stroke" fill="#6a2906"  fill-rule="evenodd" clip-rule="evenodd" d="M128.346,107.337c-0.86,1.009-0.86,1.009-1.944,0.458
	c-0.186-0.789,0.413-0.976,1.05-1.289C127.728,106.763,128.007,107.021,128.346,107.337z"/>
<path class="stroke" fill="#6a2906"  fill-rule="evenodd" clip-rule="evenodd" d="M111.51,128.432c-0.563,0.074-1.048,0.137-1.751,0.229
	c0.184-0.694,0.295-1.115,0.403-1.523C111.071,126.999,111.522,127.259,111.51,128.432z"/>
<path class="stroke" fill="#6a2906"  fill-rule="evenodd" clip-rule="evenodd" d="M98.479,116.851c0.631-1.038,0.825-1.088,1.844-0.465
	C99.993,117.536,99.424,117.68,98.479,116.851z"/>
<path class="stroke" fill="#6a2906"  fill-rule="evenodd" clip-rule="evenodd" d="M37.625,139.6c-0.187,0.542-0.325,0.94-0.499,1.442
	c-0.474-0.056-0.85-0.099-1.301-0.151c0-0.343-0.073-0.598,0.013-0.772C36.153,139.485,36.699,139.396,37.625,139.6z"/>
<path class="stroke" fill="#6a2906"  fill-rule="evenodd" clip-rule="evenodd" d="M82.826,150.473c0.353-0.434,0.663-0.813,1.109-1.362
	c0.367,0.592,0.607,0.981,0.863,1.394C84.138,151.082,83.622,151.301,82.826,150.473z"/>
<path class="stroke" fill="#6a2906"  fill-rule="evenodd" clip-rule="evenodd" d="M171.669,116.963c0.397-0.377,0.652-0.619,0.957-0.907
	c0.342,0.271,0.543,0.38,0.677,0.544c0.414,0.506,0.247,0.931-0.355,1.404C172.609,117.728,172.254,117.439,171.669,116.963z"/>
<path class="stroke" fill="#6a2906"  fill-rule="evenodd" clip-rule="evenodd" d="M143.879,122.049c0.439,0.582,0.254,0.984-0.205,1.226
	c-0.564,0.298-1.055,0.174-1.357-0.519C142.625,121.938,143.243,121.937,143.879,122.049z"/>
<path class="stroke" fill="#6a2906"  fill-rule="evenodd" clip-rule="evenodd" d="M82.406,75.139c0.088-0.396,0.163-0.733,0.292-1.317
	c0.561,0.31,0.978,0.542,1.383,0.767C83.564,75.705,83.564,75.705,82.406,75.139z"/>
<path class="stroke" fill="#6a2906"  fill-rule="evenodd" clip-rule="evenodd" d="M92.932,129.888c0.335,0.295,0.63,0.555,0.938,0.826
	c-0.389,0.833-0.879,1.055-1.597,0.695C92.023,130.529,92.023,130.529,92.932,129.888z"/>
<path class="stroke" fill="#6a2906"  fill-rule="evenodd" clip-rule="evenodd" d="M40.005,115.173c0.089-0.787,0.492-0.999,0.989-0.969
	c0.591,0.035,0.866,0.429,0.902,1.087C41.221,115.604,40.614,115.72,40.005,115.173z"/>
<path class="stroke" fill="#6a2906"  fill-rule="evenodd" clip-rule="evenodd" d="M129.667,129.896c-0.96,0.579-1.568,0.853-2.138-0.015
	c0.231-0.58,0.621-0.986,1.253-0.829C129.084,129.127,129.303,129.532,129.667,129.896z"/>
<path class="stroke" fill="#6a2906"  fill-rule="evenodd" clip-rule="evenodd" d="M135.957,112.264c0.234-0.335,0.441-0.632,0.592-0.846
	c0.788-0.294,1.106,0.021,1.169,1.033C137.155,112.912,136.603,113.041,135.957,112.264z"/>
<path class="stroke" fill="#6a2906"  fill-rule="evenodd" clip-rule="evenodd" d="M138.382,123.991c0.431-0.114,0.902-0.24,1.454-0.387
	c0.161,0.491,0.268,0.816,0.41,1.249c-0.401,0.09-0.698,0.211-0.994,0.213C138.71,125.07,138.396,124.78,138.382,123.991z"/>
<path class="stroke" fill="#6a2906"  fill-rule="evenodd" clip-rule="evenodd" d="M99.817,97.028c0.175,0.671,0.286,1.096,0.389,1.494
	c-1.181,0.531-1.181,0.531-1.832-0.461C98.776,97.774,99.184,97.481,99.817,97.028z"/>
<path class="stroke" fill="#6a2906"  fill-rule="evenodd" clip-rule="evenodd" d="M119.742,78.121c0.19,0.278,0.405,0.591,0.755,1.104
	c-0.54,0.214-0.908,0.429-1.297,0.477c-0.14,0.018-0.45-0.355-0.471-0.571C118.669,78.54,119.005,78.202,119.742,78.121z"/>
<path class="stroke" fill="#6a2906"  fill-rule="evenodd" clip-rule="evenodd" d="M127.045,115.803c-0.561-0.834-0.324-1.239,0.299-1.542
	c0.669,0.101,0.954,0.464,0.795,1.307C127.797,115.642,127.427,115.721,127.045,115.803z"/>
<path class="stroke" fill="#6a2906"  fill-rule="evenodd" clip-rule="evenodd" d="M43.543,107.447c-0.073,0.725-0.291,1.234-1.084,1.233
	c-0.562-0.319-0.634-0.758-0.242-1.242C42.593,106.977,43.032,106.871,43.543,107.447z"/>
<path class="stroke" fill="#6a2906"  fill-rule="evenodd" clip-rule="evenodd" d="M34.531,128.248c0.82-0.558,1.447-0.546,2.027,0.142
	C35.759,129.325,35.255,129.302,34.531,128.248z"/>
<path class="stroke" fill="#6a2906"  fill-rule="evenodd" clip-rule="evenodd" d="M104.051,126.816c0,0.38,0,0.603,0,0.847c-0.68,0.516-1.251,0.454-1.796-0.208
	C102.609,126.53,103.301,126.845,104.051,126.816z"/>
<path class="stroke" fill="#6a2906"  fill-rule="evenodd" clip-rule="evenodd" d="M121.422,130.382c0.604-0.221,1.067-0.391,1.485-0.543
	c0.458,0.56,0.56,0.999,0.027,1.292C122.36,131.449,121.885,131.258,121.422,130.382z"/>
<path class="stroke" fill="#6a2906"  fill-rule="evenodd" clip-rule="evenodd" d="M92.062,86.165c0.514-0.473,0.831-0.765,1.199-1.105
	c0.311,0.284,0.533,0.486,0.849,0.775c-0.284,0.364-0.522,0.668-0.813,1.04C92.916,86.657,92.62,86.487,92.062,86.165z"/>
<path class="stroke" fill="#6a2906"  fill-rule="evenodd" clip-rule="evenodd" d="M148.301,120.768c0.021-0.904,0.49-1.064,1.162-0.961
	c0.414,0.364,0.62,0.76,0.198,1.182C149.192,121.455,148.757,121.203,148.301,120.768z"/>
<path class="stroke" fill="#6a2906"  fill-rule="evenodd" clip-rule="evenodd" d="M102.781,137.483c0.553,1.118,0.313,1.478-0.949,1.54
	C101.552,138.192,101.866,137.725,102.781,137.483z"/>
<path class="stroke" fill="#6a2906"  fill-rule="evenodd" clip-rule="evenodd" d="M156.162,122.564c1.068-0.792,1.196-0.764,1.726,0.312
	C157.051,123.579,156.998,123.571,156.162,122.564z"/>
<path class="stroke" fill="#6a2906"  fill-rule="evenodd" clip-rule="evenodd" d="M126.836,84.597c-0.399,0.388-0.65,0.631-0.921,0.894
	c-0.321-0.243-0.529-0.321-0.59-0.462c-0.26-0.605-0.251-1.154,0.574-1.546C126.148,83.778,126.394,84.069,126.836,84.597z"/>
<path class="stroke" fill="#6a2906"  fill-rule="evenodd" clip-rule="evenodd" d="M147.439,116.735c0.622-1.099,0.622-1.099,1.844-0.541
	c-0.374,0.452-0.711,0.86-1.116,1.351C147.827,117.166,147.625,116.941,147.439,116.735z"/>
<path class="stroke" fill="#6a2906"  fill-rule="evenodd" clip-rule="evenodd" d="M89.862,133.438c1.226-0.337,1.327-0.261,1.409,0.975
	C90.031,134.729,89.938,134.67,89.862,133.438z"/>
<path class="stroke" fill="#6a2906"  fill-rule="evenodd" clip-rule="evenodd" d="M151.441,127.002c0.267,0.297,0.527,0.586,0.779,0.866
	c-0.88,0.993-1.244,0.896-1.657-0.341c0.083-0.095,0.156-0.228,0.268-0.294C150.984,127.142,151.168,127.102,151.441,127.002z"/>
<path class="stroke" fill="#6a2906"  fill-rule="evenodd" clip-rule="evenodd" d="M113.684,115.927c-0.479-0.11-0.944-0.217-1.754-0.403
	c0.577-0.543,0.882-0.83,1.163-1.094C113.903,114.69,113.997,115.134,113.684,115.927z"/>
<path class="stroke" fill="#6a2906"  fill-rule="evenodd" clip-rule="evenodd" d="M125.772,131.436c0.194,0.968-0.166,1.345-0.763,1.474
	c-0.514,0.109-0.924-0.065-0.893-0.9C124.586,131.846,125.113,131.664,125.772,131.436z"/>
<path class="stroke" fill="#6a2906"  fill-rule="evenodd" clip-rule="evenodd" d="M42.36,138.941c-0.589,0.766-1.068,1.065-1.791,0.173
	c0.252-0.323,0.524-0.673,0.878-1.127C41.825,138.383,42.063,138.631,42.36,138.941z"/>
<path class="stroke" fill="#6a2906"  fill-rule="evenodd" clip-rule="evenodd" d="M148.684,123.731c0.459-0.142,0.873-0.27,1.319-0.408
	c0.18,0.39,0.29,0.63,0.425,0.922c-0.186,0.173-0.322,0.403-0.508,0.456C149.354,124.86,148.929,124.673,148.684,123.731z"/>
<path class="stroke" fill="#6a2906"  fill-rule="evenodd" clip-rule="evenodd" d="M103.222,124.051c0.327-0.375,0.533-0.613,0.875-1.004
	c0.353,0.349,0.654,0.646,1.058,1.045c-0.487,0.313-0.779,0.501-1.109,0.712C103.761,124.544,103.532,124.335,103.222,124.051z"/>
<path class="stroke" fill="#6a2906"  fill-rule="evenodd" clip-rule="evenodd" d="M80.011,138.28c0.773,0.702,0.598,1.186-0.135,1.731
	c-0.298-0.156-0.625-0.326-1.163-0.606C79.254,138.937,79.627,138.613,80.011,138.28z"/>
<path class="stroke" fill="#6a2906"  fill-rule="evenodd" clip-rule="evenodd" d="M120.398,103.406c0.773-1.021,0.951-1.031,1.702-0.162
	C121.375,104.26,121.237,104.279,120.398,103.406z"/>
<path class="stroke" fill="#6a2906"  fill-rule="evenodd" clip-rule="evenodd" d="M34.964,110.525c0.704-0.868,1.154-1.247,2.008-0.504
	c-0.193,0.296-0.345,0.794-0.595,0.85C36.024,110.948,35.597,110.7,34.964,110.525z"/>
<path class="stroke" fill="#6a2906"  fill-rule="evenodd" clip-rule="evenodd" d="M102.762,131.774c0.574,0.028,1.04,0.051,1.599,0.079
	c-0.058,0.436-0.093,0.694-0.124,0.926C102.93,133.112,102.895,133.093,102.762,131.774z"/>
<path class="stroke" fill="#6a2906"  fill-rule="evenodd" clip-rule="evenodd" d="M121.886,81.925c-0.427-0.305-0.668-0.479-1.035-0.741
	c0.287-0.372,0.519-0.671,0.803-1.042c0.375,0.239,0.665,0.423,1.075,0.683C122.436,81.208,122.207,81.507,121.886,81.925z"/>
<path class="stroke" fill="#6a2906"  fill-rule="evenodd" clip-rule="evenodd" d="M103.601,83.321c-0.884,0.942-0.884,0.942-1.92,0.045
	c0.231-0.279,0.466-0.56,0.75-0.901C102.87,82.786,103.189,83.021,103.601,83.321z"/>
<path class="stroke" fill="#6a2906"  fill-rule="evenodd" clip-rule="evenodd" d="M134.919,122.583c0.263-0.479,0.389-0.71,0.548-0.999
	c0.329,0.071,0.622,0.135,1.029,0.224c-0.062,0.437-0.116,0.815-0.203,1.426C135.765,122.983,135.406,122.813,134.919,122.583z"/>
<path class="stroke" fill="#6a2906"  fill-rule="evenodd" clip-rule="evenodd" d="M100.829,84.741c0.342,0.412,0.563,0.68,0.74,0.893
	c-0.165,0.828-0.672,0.87-1.771,0.115C100.137,85.418,100.446,85.115,100.829,84.741z"/>
<path class="stroke" fill="#6a2906"  fill-rule="evenodd" clip-rule="evenodd" d="M119.495,86.563c-0.844-0.205-1.401-0.324-1.165-1.309
	c0.389-0.046,0.836-0.099,1.499-0.176C119.692,85.684,119.604,86.082,119.495,86.563z"/>
<path class="stroke" fill="#6a2906"  fill-rule="evenodd" clip-rule="evenodd" d="M118.661,77.106c-0.441-0.133-0.805-0.244-1.2-0.363
	c0.091-0.756,0.251-1.325,1.018-1.092C119.151,75.854,119.052,76.387,118.661,77.106z"/>
<path class="stroke" fill="#6a2906"  fill-rule="evenodd" clip-rule="evenodd" d="M117.025,112.89c0.08-0.392,0.044-0.85,0.254-1.068
	c0.212-0.222,0.67-0.206,1.054-0.302C118.448,112.9,118.448,112.9,117.025,112.89z"/>
<path class="stroke" fill="#6a2906"  fill-rule="evenodd" clip-rule="evenodd" d="M31.28,112.584c-0.825,0.324-1.323,0.236-1.718-0.589
	c0.395-0.253,0.751-0.482,1.331-0.854C31.058,111.755,31.167,112.162,31.28,112.584z"/>
<path class="stroke" fill="#6a2906"  fill-rule="evenodd" clip-rule="evenodd" d="M161.341,114.754c-0.363-0.245-0.676-0.454-1.076-0.723
	c0.298-0.324,0.497-0.539,0.772-0.838c0.364,0.249,0.675,0.46,1.072,0.73C161.813,114.242,161.615,114.458,161.341,114.754z"/>
<path class="stroke" fill="#6a2906"  fill-rule="evenodd" clip-rule="evenodd" d="M116.282,73.535c0.212,0.489,0.381,0.878,0.593,1.365
	c-0.41,0.153-0.686,0.256-1.054,0.394c-0.188-0.429-0.345-0.791-0.535-1.224C115.621,73.891,115.88,73.752,116.282,73.535z"/>
<path class="stroke" fill="#6a2906"  fill-rule="evenodd" clip-rule="evenodd" d="M112.043,110.981c-0.128-1.136,0.345-1.332,1.078-1.429
	c0.165,0.345,0.308,0.645,0.562,1.176C113.06,110.825,112.604,110.895,112.043,110.981z"/>
<path class="stroke" fill="#6a2906"  fill-rule="evenodd" clip-rule="evenodd" d="M134.265,110.77c-0.454-0.174-0.871-0.334-1.238-0.476
	c-0.047-0.785,0.254-1.081,0.823-0.914C134.439,109.555,134.599,110.002,134.265,110.77z"/>
<path class="stroke" fill="#6a2906"  fill-rule="evenodd" clip-rule="evenodd" d="M91.047,141.656c0.509-0.208,0.796-0.326,1.177-0.481
	c0.212,0.314,0.405,0.6,0.735,1.087c-0.506,0.158-0.902,0.421-1.182,0.33C91.5,142.501,91.338,142.054,91.047,141.656z"/>
<path class="stroke" fill="#6a2906"  fill-rule="evenodd" clip-rule="evenodd" d="M108.847,120.979c0.182,0.549,0.263,0.795,0.337,1.018
	c-0.896,0.737-0.896,0.737-1.776-0.083C107.854,121.624,108.262,121.359,108.847,120.979z"/>
<path class="stroke" fill="#6a2906"  fill-rule="evenodd" clip-rule="evenodd" d="M122.525,74.734c1.17-0.484,1.516-0.021,1.772,0.573
	c-0.256,0.643-0.715,0.602-1.071,0.381C122.949,75.517,122.804,75.132,122.525,74.734z"/>
<path class="stroke" fill="#6a2906"  fill-rule="evenodd" clip-rule="evenodd" d="M122.778,86.327c-0.373-0.048-0.745-0.095-1.079-0.138
	c-0.261-0.773-0.083-1.204,0.752-1.504c0.207,0.444,0.411,0.881,0.614,1.317C122.97,86.111,122.873,86.219,122.778,86.327z"/>
<path class="stroke" fill="#6a2906"  fill-rule="evenodd" clip-rule="evenodd" d="M128.191,77.08c0.956,0.707,0.958,0.811,0.028,1.501
	C127.257,77.845,127.255,77.757,128.191,77.08z"/>
<path class="stroke" fill="#6a2906"  fill-rule="evenodd" clip-rule="evenodd" d="M179.544,108.999c0.403,0.196,0.797,0.389,1.174,0.572
	c-0.219,0.698-0.554,1.002-1.086,0.783C179.109,110.141,178.995,109.725,179.544,108.999z"/>
<path class="stroke" fill="#6a2906"  fill-rule="evenodd" clip-rule="evenodd" d="M87.205,135.389c0.681-0.48,1.214-0.379,1.657,0.333
	C88.071,136.597,87.661,136.521,87.205,135.389z"/>
<path class="stroke" fill="#6a2906"  fill-rule="evenodd" clip-rule="evenodd" d="M128.667,82.649c-0.309,0.172-0.607,0.338-0.942,0.525
	c-0.21-0.189-0.371-0.334-0.591-0.533c0.166-0.324,0.323-0.629,0.496-0.964C128.236,81.643,128.646,81.767,128.667,82.649z"/>
<path class="stroke" fill="#6a2906"  fill-rule="evenodd" clip-rule="evenodd" d="M87.565,152.831c0.268,0.376,0.418,0.585,0.746,1.044
	c-0.364,0.225-0.708,0.438-1.127,0.696c-0.209-0.178-0.438-0.375-0.773-0.66C86.795,153.552,87.113,153.255,87.565,152.831z"/>
<path class="stroke" fill="#6a2906"  fill-rule="evenodd" clip-rule="evenodd" d="M18.385,134.203c0.191-1.011,0.191-1.011,1.078-1.231
	c0.114,0.341,0.232,0.691,0.414,1.231C19.277,134.203,18.877,134.203,18.385,134.203z"/>
<path class="stroke" fill="#6a2906"  fill-rule="evenodd" clip-rule="evenodd" d="M185.12,109.437c-0.293,0.677-0.695,0.996-1.383,0.695
	c-0.385-0.527-0.057-0.83,0.285-1.07C184.43,108.776,184.807,108.843,185.12,109.437z"/>
<path class="stroke" fill="#6a2906"  fill-rule="evenodd" clip-rule="evenodd" d="M70.749,154.541c0.642-0.833,1.105-0.724,1.726-0.057
	c-0.241,0.314-0.479,0.626-0.815,1.063C71.293,155.144,71.041,154.864,70.749,154.541z"/>
<path class="stroke" fill="#6a2906"  fill-rule="evenodd" clip-rule="evenodd" d="M149.641,113.285c-0.069,0.53-0.112,0.864-0.173,1.326
	c-0.451-0.106-0.781-0.184-1.149-0.271c0-0.384,0-0.685,0-1.056C148.732,113.285,149.078,113.285,149.641,113.285z"/>
<path class="stroke" fill="#6a2906"  fill-rule="evenodd" clip-rule="evenodd" d="M29.061,132.304c-0.048,0.355-0.088,0.658-0.13,0.974
	c-0.79,0.383-1.237,0.218-1.371-0.623C27.928,132.099,28.326,131.808,29.061,132.304z"/>
<path class="stroke" fill="#6a2906"  fill-rule="evenodd" clip-rule="evenodd" d="M35.181,124.458c0.512,0.708,0.442,1.1-0.02,1.32
	c-0.526,0.251-0.899,0.04-1.099-0.745C34.412,124.854,34.796,124.656,35.181,124.458z"/>
<path class="stroke" fill="#6a2906"  fill-rule="evenodd" clip-rule="evenodd" d="M105.575,136.562c0.425-0.611,0.886-0.873,1.542-0.302
	C106.67,137.452,106.436,137.498,105.575,136.562z"/>
<path class="stroke" fill="#6a2906"  fill-rule="evenodd" clip-rule="evenodd" d="M63.718,139.494c-0.69-0.129-1.035-0.194-1.308-0.245
	c-0.325-0.607-0.077-0.846,1.185-1.146C63.631,138.519,63.666,138.904,63.718,139.494z"/>
<path class="stroke" fill="#6a2906"  fill-rule="evenodd" clip-rule="evenodd" d="M130.8,75.967c0.958,0.387,1.097,0.819,0.532,1.529
	c-0.32-0.101-0.643-0.203-1.136-0.357C130.421,76.702,130.59,76.374,130.8,75.967z"/>
<path class="stroke" fill="#6a2906"  fill-rule="evenodd" clip-rule="evenodd" d="M169.908,118.895c-0.626,0.933-1.13,0.768-1.648,0.435
	c-0.13-0.579,0.146-0.921,0.587-0.927C169.171,118.397,169.499,118.692,169.908,118.895z"/>
<path class="stroke" fill="#6a2906"  fill-rule="evenodd" clip-rule="evenodd" d="M108.443,116.533c-0.117,0.465-0.198,0.787-0.319,1.266
	c-0.47-0.16-0.819-0.279-1.181-0.402C107.055,116.435,107.552,116.368,108.443,116.533z"/>
<path class="stroke" fill="#6a2906"  fill-rule="evenodd" clip-rule="evenodd" d="M39.926,110.039c0.544,0.662,0.63,1.117,0.086,1.398
	c-0.527,0.272-0.867-0.068-1.146-0.706C39.199,110.515,39.543,110.289,39.926,110.039z"/>
<path class="stroke" fill="#6a2906"  fill-rule="evenodd" clip-rule="evenodd" d="M119.084,83.679c-0.476-0.244-0.837-0.429-1.307-0.668
	c0.282-0.361,0.462-0.592,0.644-0.826C119.165,82.343,119.405,82.714,119.084,83.679z"/>
<path class="stroke" fill="#6a2906"  fill-rule="evenodd" clip-rule="evenodd" d="M100.815,82.246c-0.407-0.184-0.814-0.367-1.254-0.565
	c0.312-0.807,0.781-0.993,1.281-0.685c0.231,0.142,0.244,0.637,0.356,0.973C101.069,82.061,100.942,82.153,100.815,82.246z"/>
<path class="stroke" fill="#6a2906"  fill-rule="evenodd" clip-rule="evenodd" d="M94.031,81.961c-0.53-0.239-0.842-0.381-1.207-0.546
	c0.171-0.383,0.298-0.666,0.455-1.014c0.348,0.081,0.64,0.148,1.031,0.239C94.224,81.051,94.153,81.385,94.031,81.961z"/>
<path class="stroke" fill="#6a2906"  fill-rule="evenodd" clip-rule="evenodd" d="M89.234,85.681c0.021-0.403,0.033-0.664,0.052-1.056c0.443,0,0.838,0,1.288,0
	C90.579,85.623,90.167,85.86,89.234,85.681z"/>
<path class="stroke" fill="#6a2906"  fill-rule="evenodd" clip-rule="evenodd" d="M85.549,78.253c-0.03,0.353-0.051,0.613-0.085,1.019
	c-0.441-0.056-0.814-0.104-1.293-0.165c0.095-0.416,0.16-0.7,0.251-1.097C84.836,78.1,85.165,78.171,85.549,78.253z"/>
<path class="stroke" fill="#6a2906"  fill-rule="evenodd" clip-rule="evenodd" d="M123.164,78.792c-0.282-0.206-0.68-0.358-0.806-0.636
	c-0.091-0.2,0.18-0.565,0.29-0.857c0.127-0.001,0.253-0.003,0.381-0.005c0.179,0.379,0.358,0.758,0.538,1.138
	C123.432,78.552,123.298,78.672,123.164,78.792z"/>
<path class="stroke" fill="#6a2906"  fill-rule="evenodd" clip-rule="evenodd" d="M87.089,147.784c0.64-0.865,0.64-0.865,1.43-0.228
	C88.003,148.394,88.003,148.394,87.089,147.784z"/>
<path class="stroke" fill="#6a2906"  fill-rule="evenodd" clip-rule="evenodd" d="M96.428,114.066c0.354-0.621,0.549-0.964,0.75-1.316
	c0.84,0.225,0.811,0.725,0.597,1.465C97.402,114.174,97.037,114.134,96.428,114.066z"/>
<path class="stroke" fill="#6a2906"  fill-rule="evenodd" clip-rule="evenodd" d="M167.17,113.689c-0.081-0.813,0.274-1.068,0.792-0.976
	c0.565,0.102,0.644,0.543,0.431,1.223C167.965,113.851,167.545,113.766,167.17,113.689z"/>
<path class="stroke" fill="#6a2906"  fill-rule="evenodd" clip-rule="evenodd" d="M136.095,116.136c-0.377-0.26-0.691-0.476-1.156-0.795
	c0.44-0.305,0.714-0.496,0.992-0.688C136.497,115.059,136.752,115.416,136.095,116.136z"/>
<path class="stroke" fill="#6a2906"  fill-rule="evenodd" clip-rule="evenodd" d="M143.542,115.599c0.083,0.311,0.167,0.628,0.297,1.113
	c-0.474,0.081-0.824,0.142-1.081,0.186C142.203,116.249,142.512,115.806,143.542,115.599z"/>
<path class="stroke" fill="#6a2906"  fill-rule="evenodd" clip-rule="evenodd" d="M96.323,109.409c-0.393-0.101-0.785-0.201-1.123-0.288
	c-0.117-0.912,0.361-1.011,1.053-1.088c0.116,0.354,0.231,0.709,0.346,1.063C96.508,109.2,96.416,109.305,96.323,109.409z"/>
<path class="stroke" fill="#6a2906"  fill-rule="evenodd" clip-rule="evenodd" d="M123.525,107.689c-0.689-0.096-1.141-0.158-1.653-0.229
	c0.19-1.063,0.746-1.007,1.44-0.821C123.364,106.89,123.415,107.145,123.525,107.689z"/>
<path class="stroke" fill="#6a2906"  fill-rule="evenodd" clip-rule="evenodd" d="M96.338,119.402c-0.779,0.503-1.265,0.386-1.639-0.349
	C95.74,118.441,95.795,118.453,96.338,119.402z"/>
<path class="stroke" fill="#6a2906"  fill-rule="evenodd" clip-rule="evenodd" d="M101.129,120.469c0.978-0.732,1.279-0.643,1.521,0.458
	C101.995,121.248,101.484,121.176,101.129,120.469z"/>
<path class="stroke" fill="#6a2906"  fill-rule="evenodd" clip-rule="evenodd" d="M118.17,102.66c0.031-0.397,0.059-0.766,0.088-1.138
	c0.748-0.137,1.171,0.096,1.144,0.71C119.375,102.822,118.923,102.934,118.17,102.66z"/>
<path class="stroke" fill="#6a2906"  fill-rule="evenodd" clip-rule="evenodd" d="M122.512,100.547c0.336-0.054,0.673-0.107,0.928-0.147
	c0.469,0.419,0.379,0.703-0.386,1.328c-0.237-0.274-0.479-0.551-0.72-0.829C122.394,100.781,122.453,100.664,122.512,100.547z"/>
<path class="stroke" fill="#6a2906"  fill-rule="evenodd" clip-rule="evenodd" d="M100.004,126.254c-0.717-0.073-1.161-0.118-1.705-0.173
	c0.246-0.981,0.765-0.995,1.456-0.822C99.81,125.48,99.869,125.717,100.004,126.254z"/>
<path class="stroke" fill="#6a2906"  fill-rule="evenodd" clip-rule="evenodd" d="M95.885,122.925c0.544-0.281,0.916-0.474,1.302-0.673
	c0.625,0.703,0.366,1.058-0.344,1.367C96.605,123.447,96.332,123.249,95.885,122.925z"/>
<path class="stroke" fill="#6a2906"  fill-rule="evenodd" clip-rule="evenodd" d="M93.423,123.293c0.316-0.299,0.509-0.481,0.737-0.696
	c0.259,0.184,0.472,0.336,0.819,0.583c-0.264,0.347-0.486,0.64-0.786,1.033C93.891,123.853,93.7,123.623,93.423,123.293z"/>
<path class="stroke" fill="#6a2906"  fill-rule="evenodd" clip-rule="evenodd" d="M114.368,81.936c0.201-0.372,0.352-0.652,0.689-1.278
	c0.479,0.447,0.781,0.729,1.083,1.012C115.471,82.497,115.042,82.315,114.368,81.936z"/>
<path class="stroke" fill="#6a2906"  fill-rule="evenodd" clip-rule="evenodd" d="M102.765,155.896c-0.309-0.121-0.587-0.231-0.805-0.316
	c-0.218-0.793,0.178-1.011,1.256-0.764c0,0.164,0.052,0.364-0.013,0.514C103.118,155.524,102.94,155.679,102.765,155.896z"/>
<path class="stroke" fill="#6a2906"  fill-rule="evenodd" clip-rule="evenodd" d="M22.192,120.792c-0.725-0.262-1.143-0.413-1.561-0.564
	c-0.006-0.124-0.013-0.246-0.019-0.369c0.344-0.163,0.688-0.326,1.196-0.567C21.945,119.822,22.031,120.159,22.192,120.792z"/>
<path class="stroke" fill="#6a2906"  fill-rule="evenodd" clip-rule="evenodd" d="M158.81,118.575c-0.504-0.255-0.865-0.439-1.181-0.6
	c0.127-0.733,0.467-0.915,0.946-0.735C159.082,117.429,159.066,117.831,158.81,118.575z"/>
<path class="stroke" fill="#6a2906"  fill-rule="evenodd" clip-rule="evenodd" d="M110.708,102.08c-0.262-0.247-0.524-0.495-0.927-0.875
	c0.502-0.258,0.8-0.411,1.309-0.672c0,0.606,0,0.999,0,1.392C110.963,101.978,110.836,102.029,110.708,102.08z"/>
<path class="stroke" fill="#6a2906"  fill-rule="evenodd" clip-rule="evenodd" d="M111.039,105.754c-0.274-0.314-0.496-0.566-0.877-1.001
	c0.521-0.226,0.878-0.379,1.196-0.517C111.934,104.917,111.694,105.288,111.039,105.754z"/>
<path class="stroke" fill="#6a2906"  fill-rule="evenodd" clip-rule="evenodd" d="M102.438,105.077c0.238-0.255,0.477-0.509,0.885-0.944
	c0.263,0.489,0.446,0.829,0.812,1.51c-0.799-0.069-1.223-0.106-1.646-0.144C102.472,105.358,102.455,105.217,102.438,105.077z"/>
<path class="stroke" fill="#6a2906"  fill-rule="evenodd" clip-rule="evenodd" d="M116.757,80.169c-0.489-0.759-0.546-1.204,0.327-1.46
	c0.189,0.252,0.384,0.515,0.672,0.9C117.372,79.824,117.097,79.978,116.757,80.169z"/>
<path class="stroke" fill="#6a2906"  fill-rule="evenodd" clip-rule="evenodd" d="M95.215,115.321c0.058,0.438,0.105,0.796,0.186,1.407
	c-0.61-0.211-0.971-0.335-1.328-0.458C94.021,115.425,94.539,115.429,95.215,115.321z"/>
<path class="stroke" fill="#6a2906"  fill-rule="evenodd" clip-rule="evenodd" d="M98.837,83.27c-0.22,0.206-0.44,0.411-0.661,0.615
	c-0.782-0.191-0.93-0.608-0.578-1.671c0.381,0.189,0.737,0.365,1.093,0.542C98.741,82.927,98.789,83.099,98.837,83.27z"/>
<path class="stroke" fill="#6a2906"  fill-rule="evenodd" clip-rule="evenodd" d="M129.679,98.551c-0.279,0.139-0.567,0.405-0.835,0.387
	c-0.456-0.032-0.76-0.329-0.486-1.068c0.381,0.052,0.803,0.108,1.225,0.167C129.615,98.207,129.647,98.379,129.679,98.551z"/>
<path class="stroke" fill="#6a2906"  fill-rule="evenodd" clip-rule="evenodd" d="M129.64,79.419c0.219-0.251,0.435-0.499,0.735-0.843
	c0.347,0.375,0.611,0.659,0.853,0.92c-0.073,0.154-0.091,0.271-0.146,0.294C130.432,80.058,130.43,80.054,129.64,79.419z"/>
<path class="stroke" fill="#6a2906"  fill-rule="evenodd" clip-rule="evenodd" d="M103.326,92.334c-0.349-0.211-0.638-0.385-0.998-0.604
	c0.21-0.355,0.364-0.616,0.543-0.918c0.212,0.069,0.408,0.084,0.537,0.184C103.866,91.351,103.846,91.748,103.326,92.334z"/>
<path class="stroke" fill="#6a2906"  fill-rule="evenodd" clip-rule="evenodd" d="M176.66,115.316c-0.825-0.39-0.908-0.822-0.365-1.396
	C177.192,114.361,177.192,114.361,176.66,115.316z"/>
<path class="stroke" fill="#6a2906"  fill-rule="evenodd" clip-rule="evenodd" d="M92.904,137.763c-0.377-0.106-0.754-0.215-1.385-0.395
	c0.448-0.491,0.699-0.766,1.135-1.243c0.251,0.582,0.406,0.94,0.561,1.3C93.11,137.538,93.007,137.65,92.904,137.763z"/>
<path class="stroke" fill="#6a2906"  fill-rule="evenodd" clip-rule="evenodd" d="M115.693,76.739c-0.216,0.304-0.367,0.516-0.562,0.788
	c-0.237-0.135-0.476-0.202-0.609-0.359c-0.348-0.411-0.258-0.758,0.374-1.036C115.111,76.296,115.375,76.498,115.693,76.739z"/>
<path class="stroke" fill="#6a2906"  fill-rule="evenodd" clip-rule="evenodd" d="M137.771,130.822c-0.507-0.193-0.874-0.332-1.239-0.472
	c-0.014-0.115-0.028-0.229-0.042-0.345c0.331-0.22,0.662-0.439,1.014-0.673c0.178,0.253,0.312,0.357,0.321,0.472
	C137.844,130.065,137.802,130.331,137.771,130.822z"/>
<path class="stroke" fill="#6a2906"  fill-rule="evenodd" clip-rule="evenodd" d="M107.831,139.256c-0.259,0.235-0.49,0.614-0.784,0.67
	c-0.455,0.089-0.753-0.231-0.731-0.954c0.41-0.046,0.843-0.095,1.276-0.144C107.672,138.972,107.751,139.114,107.831,139.256z"/>
<path class="stroke" fill="#6a2906"  fill-rule="evenodd" clip-rule="evenodd" d="M82.576,77.062c-0.954,0.07-0.954,0.07-1.464-0.522
	c0.143-0.194,0.296-0.401,0.585-0.794C82.025,76.236,82.269,76.602,82.576,77.062z"/>
<path class="stroke" fill="#6a2906"  fill-rule="evenodd" clip-rule="evenodd" d="M134.247,113.222c-0.626,0.955-1.009,0.595-1.459,0
	c0.188-0.265,0.355-0.501,0.586-0.826C133.692,112.696,133.937,112.929,134.247,113.222z"/>
<path class="stroke" fill="#6a2906"  fill-rule="evenodd" clip-rule="evenodd" d="M159.45,115.762c-0.065,0.112-0.095,0.208-0.159,0.262
	c-0.101,0.086-0.226,0.144-0.425,0.265c-0.251-0.201-0.516-0.414-0.844-0.678c0.184-0.237,0.28-0.5,0.444-0.553
	C159.099,114.853,159.393,115.177,159.45,115.762z"/>
<path class="stroke" fill="#6a2906"  fill-rule="evenodd" clip-rule="evenodd" d="M99.259,150.362c-0.813,0.185-1.209-0.051-1.359-0.747
	C99.065,149.07,99.113,149.097,99.259,150.362z"/>
<path class="stroke" fill="#6a2906"  fill-rule="evenodd" clip-rule="evenodd" d="M94.379,105.354c0.932-0.253,0.932-0.253,1.155,0.707
	C94.542,106.286,94.542,106.286,94.379,105.354z"/>
<path class="stroke" fill="#6a2906"  fill-rule="evenodd" clip-rule="evenodd" d="M121.614,75.475c-0.324,0.476-0.704,0.479-0.971,0.169
	c-0.18-0.21-0.166-0.586-0.254-0.956C121.322,74.54,121.559,74.908,121.614,75.475z"/>
<path class="stroke" fill="#6a2906"  fill-rule="evenodd" clip-rule="evenodd" d="M157.273,113.686c0.286-0.115,0.607-0.367,0.85-0.307
	c0.248,0.062,0.421,0.429,0.628,0.662c-0.059,0.112-0.119,0.226-0.178,0.337c-0.413-0.062-0.826-0.124-1.239-0.187
	C157.313,114.022,157.293,113.854,157.273,113.686z"/>
<path class="stroke" fill="#6a2906"  fill-rule="evenodd" clip-rule="evenodd" d="M94.964,90.771c-0.389,0.28-0.596,0.429-0.837,0.603
	c-0.512-0.429-0.846-0.799-0.167-1.414C94.26,90.202,94.53,90.42,94.964,90.771z"/>
<path class="stroke" fill="#6a2906"  fill-rule="evenodd" clip-rule="evenodd" d="M101.927,94.662c0.247,0.54,0.399,0.876,0.56,1.226
	c-0.747,0.457-1.125,0.214-1.434-0.443C101.281,95.241,101.503,95.042,101.927,94.662z"/>
<path class="stroke" fill="#6a2906"  fill-rule="evenodd" clip-rule="evenodd" d="M99.784,90.884c-0.418-0.167-0.73-0.291-1.142-0.455
	c0.226-0.394,0.394-0.688,0.534-0.933C99.846,89.427,100.075,89.912,99.784,90.884z"/>
<path class="stroke" fill="#6a2906"  fill-rule="evenodd" clip-rule="evenodd" d="M152.237,116.993c0.3-0.099,0.657-0.345,0.885-0.257
	c0.244,0.094,0.364,0.504,0.538,0.775c-0.069,0.103-0.139,0.206-0.208,0.309c-0.399-0.107-0.799-0.213-1.198-0.32
	C152.248,117.332,152.243,117.162,152.237,116.993z"/>
<path class="stroke" fill="#6a2906"  fill-rule="evenodd" clip-rule="evenodd" d="M69.458,147.536c0.032,0.442,0.05,0.7,0.077,1.056
	c-0.373,0.027-0.674,0.05-1.05,0.078c-0.055-0.291-0.102-0.536-0.165-0.866C68.686,147.718,68.978,147.649,69.458,147.536z"/>
<path class="stroke" fill="#6a2906"  fill-rule="evenodd" clip-rule="evenodd" d="M125.203,75.535c0.403,0.14,0.637,0.176,0.814,0.297
	c0.13,0.09,0.186,0.29,0.387,0.635c-0.514,0.1-0.903,0.176-1.477,0.288C125.042,76.248,125.104,75.971,125.203,75.535z"/>
<path class="stroke" fill="#6a2906"  fill-rule="evenodd" clip-rule="evenodd" d="M85.491,81.115c0.504,0.272,0.802,0.433,1.05,0.566
	c0.034,0.642-0.261,0.746-1.268,0.507C85.329,81.911,85.386,81.629,85.491,81.115z"/>
<path class="stroke" fill="#6a2906"  fill-rule="evenodd" clip-rule="evenodd" d="M127.089,101.367c-0.327,0.029-0.631,0.057-0.999,0.09
	c-0.109-0.344-0.199-0.629-0.273-0.861C126.232,100.121,126.741,100.457,127.089,101.367z"/>
<path class="stroke" fill="#6a2906"  fill-rule="evenodd" clip-rule="evenodd" d="M116.845,85.341c-0.714,0.071-1.075,0.107-1.668,0.167
	c0.165-0.525,0.259-0.827,0.425-1.359C116.044,84.572,116.31,84.828,116.845,85.341z"/>
<path class="stroke" fill="#6a2906"  fill-rule="evenodd" clip-rule="evenodd" d="M89.734,81.039c0.113-0.206,0.232-0.424,0.434-0.793
	c0.357,0.334,0.627,0.589,0.847,0.795C90.902,81.675,90.516,81.648,89.734,81.039z"/>
<path class="stroke" fill="#6a2906"  fill-rule="evenodd" clip-rule="evenodd" d="M173.847,111.479c0.505-0.459,0.695-0.632,1.021-0.928
	c0.255,0.386,0.453,0.686,0.651,0.984c-0.066,0.101-0.131,0.201-0.198,0.302C174.936,111.743,174.552,111.65,173.847,111.479z"/>
<path class="stroke" fill="#6a2906"  fill-rule="evenodd" clip-rule="evenodd" d="M76.619,153.083c0.477-0.047,0.853-0.083,1.186-0.115
	c0.338,0.545,0.102,0.838-0.282,0.946C77.079,154.039,76.704,153.887,76.619,153.083z"/>
<path class="stroke" fill="#6a2906"  fill-rule="evenodd" clip-rule="evenodd" d="M96.798,154.048c-0.189,0.326-0.298,0.512-0.44,0.757
	c-0.331-0.105-0.618-0.197-0.996-0.317c0.094-0.331,0.171-0.602,0.297-1.042C96.101,153.679,96.422,153.85,96.798,154.048z"/>
<path class="stroke" fill="#6a2906"  fill-rule="evenodd" clip-rule="evenodd" d="M167.4,121.153c-0.662,0.305-1.126,0.358-1.337-0.385
	C166.891,120.166,166.891,120.166,167.4,121.153z"/>
<path class="stroke" fill="#6a2906"  fill-rule="evenodd" clip-rule="evenodd" d="M124.044,109.964c0.218-0.162,0.428-0.449,0.653-0.46
	c0.501-0.028,0.732,0.306,0.691,0.991c-0.453-0.08-0.859-0.152-1.266-0.224C124.097,110.169,124.071,110.066,124.044,109.964z"/>
<path class="stroke" fill="#6a2906"  fill-rule="evenodd" clip-rule="evenodd" d="M111.401,82.512c0.111-0.382,0.181-0.621,0.23-0.79
	c0.549-0.289,0.889,0.042,0.976,0.961C112.212,82.627,111.854,82.576,111.401,82.512z"/>
<path class="stroke" fill="#6a2906"  fill-rule="evenodd" clip-rule="evenodd" d="M36.881,123.364c-0.462,0.784-0.874,0.665-1.371,0.016
	C35.977,122.627,36.387,122.703,36.881,123.364z"/>
<path class="stroke" fill="#6a2906"  fill-rule="evenodd" clip-rule="evenodd" d="M31.558,129.734c-0.749,0.185-1.115,0.077-1.094-0.699
	c0.232-0.093,0.496-0.201,0.867-0.351C31.418,129.087,31.479,129.371,31.558,129.734z"/>
<path class="stroke" fill="#6a2906"  fill-rule="evenodd" clip-rule="evenodd" d="M93.009,127.064c0.66-0.191,1.013-0.293,1.622-0.47
	c-0.158,0.591-0.239,0.893-0.362,1.354C93.846,127.651,93.579,127.464,93.009,127.064z"/>
<path class="stroke" fill="#6a2906"  fill-rule="evenodd" clip-rule="evenodd" d="M84.678,142.456c-0.669-0.467-0.798-0.852-0.061-1.233
	C85.372,141.77,85.372,141.77,84.678,142.456z"/>
<path class="stroke" fill="#6a2906"  fill-rule="evenodd" clip-rule="evenodd" d="M96.273,86.011c0.443,0.54,0.678,0.825,1.113,1.354c-0.687,0-1.071,0-1.583,0
	C95.961,86.911,96.059,86.629,96.273,86.011z"/>
<path class="stroke" fill="#6a2906"  fill-rule="evenodd" clip-rule="evenodd" d="M42.626,134.935c-0.871-0.328-1.087-0.705-0.492-1.374
	C42.952,133.773,43.05,134.188,42.626,134.935z"/>
<path class="stroke" fill="#6a2906"  fill-rule="evenodd" clip-rule="evenodd" d="M131.495,82.205c-0.654-0.171-0.972-0.255-1.586-0.415
	c0.415-0.444,0.662-0.706,1.08-1.152C131.185,81.243,131.285,81.555,131.495,82.205z"/>
<path class="stroke" fill="#6a2906"  fill-rule="evenodd" clip-rule="evenodd" d="M89.654,89.016c0.416-0.361,0.603-0.523,0.716-0.622
	c0.787,0.283,1.039,0.577,0.659,1.28C90.693,89.514,90.366,89.356,89.654,89.016z"/>
<path class="stroke" fill="#6a2906"  fill-rule="evenodd" clip-rule="evenodd" d="M125.354,79.816c-0.809-0.179-1.232-0.43-0.762-1.213
	C125.36,78.871,125.36,78.871,125.354,79.816z"/>
<path class="stroke" fill="#6a2906"  fill-rule="evenodd" clip-rule="evenodd" d="M172.958,114.551c0.523-0.417,0.719-0.573,1.061-0.846
	c0.216,0.419,0.379,0.736,0.542,1.053c-0.067,0.088-0.134,0.177-0.201,0.266C173.998,114.901,173.636,114.779,172.958,114.551z"/>
<path class="stroke" fill="#6a2906"  fill-rule="evenodd" clip-rule="evenodd" d="M17.37,131.69c-0.379-0.281-0.59-0.438-0.81-0.601
	c0.058-0.162,0.09-0.388,0.147-0.394c0.33-0.034,0.666-0.017,1.18-0.017C17.664,131.115,17.553,131.334,17.37,131.69z"/>
<path class="stroke" fill="#6a2906"  fill-rule="evenodd" clip-rule="evenodd" d="M176.799,115.938c0.053,0.462,0.091,0.789,0.129,1.116
	c-0.761,0.225-0.886-0.23-1.068-0.776C176.137,116.178,176.398,116.083,176.799,115.938z"/>
<path class="stroke" fill="#6a2906"  fill-rule="evenodd" clip-rule="evenodd" d="M80.471,75.081c-0.334-0.204-0.668-0.408-1.054-0.642
	c0.852-0.699,0.854-0.697,1.254,0.354C80.604,74.889,80.538,74.985,80.471,75.081z"/>
<path class="stroke" fill="#6a2906"  fill-rule="evenodd" clip-rule="evenodd" d="M126.776,75.322c0.192-0.168,0.382-0.337,0.678-0.597
	c0.226,0.355,0.401,0.634,0.775,1.226c-0.699-0.134-1.052-0.202-1.405-0.27C126.808,75.562,126.792,75.441,126.776,75.322z"/>
<path class="stroke" fill="#6a2906"  fill-rule="evenodd" clip-rule="evenodd" d="M37.365,113.249c0.233-0.075,0.467-0.15,0.751-0.242
	c0.159,0.334,0.29,0.607,0.419,0.88c-0.049,0.077-0.098,0.153-0.148,0.231c-0.374-0.161-0.747-0.323-1.121-0.484
	C37.3,113.507,37.333,113.377,37.365,113.249z"/>
<path class="stroke" fill="#6a2906"  fill-rule="evenodd" clip-rule="evenodd" d="M156.767,120.42c0.346-0.214,0.593-0.367,0.827-0.512
	c0.172,0.142,0.323,0.208,0.369,0.318c0.065,0.156,0.053,0.346,0.071,0.496C157.537,121.237,157.21,120.994,156.767,120.42z"/>
<path class="stroke" fill="#6a2906"  fill-rule="evenodd" clip-rule="evenodd" d="M126.67,80.346c0.231-0.188,0.399-0.324,0.619-0.503
	c0.255,0.224,0.478,0.417,0.705,0.614c-0.09,0.176-0.12,0.333-0.213,0.402C127.246,81.253,126.97,80.915,126.67,80.346z"/>
<path class="stroke" fill="#6a2906"  fill-rule="evenodd" clip-rule="evenodd" d="M155.586,116.496c0.377,0.345,0.647,0.593,1.005,0.92
	C155.409,117.793,155.393,117.778,155.586,116.496z"/>
<path class="stroke" fill="#6a2906"  fill-rule="evenodd" clip-rule="evenodd" d="M115.619,104.31c0.823-0.433,1.058-0.043,1.308,0.565
	C116.197,105.241,115.793,105.178,115.619,104.31z"/>
<path class="stroke" fill="#6a2906"  fill-rule="evenodd" clip-rule="evenodd" d="M102.876,150.394c0.136,0.32,0.273,0.641,0.53,1.245
	c-0.625-0.147-0.933-0.219-1.377-0.324c0.204-0.398,0.333-0.652,0.461-0.904C102.62,150.404,102.748,150.399,102.876,150.394z"/>
<path class="stroke" fill="#6a2906"  fill-rule="evenodd" clip-rule="evenodd" d="M125.18,81.175c0.255,0.272,0.51,0.544,0.87,0.927
	c-0.414,0.162-0.651,0.255-1.052,0.412c-0.092-0.442-0.165-0.791-0.237-1.138C124.9,81.309,125.04,81.241,125.18,81.175z"/>
<path class="stroke" fill="#6a2906"  fill-rule="evenodd" clip-rule="evenodd" d="M34.854,135.873c0.214,0.551,0.321,0.829,0.533,1.373
	c-0.572-0.131-0.915-0.209-1.479-0.338C34.283,136.498,34.476,136.287,34.854,135.873z"/>
<path class="stroke" fill="#6a2906"  fill-rule="evenodd" clip-rule="evenodd" d="M84.532,155.656c0.175,0.396,0.294,0.663,0.552,1.246
	c-0.605-0.181-0.929-0.277-1.488-0.444C84.018,156.097,84.227,155.918,84.532,155.656z"/>
<path class="stroke" fill="#6a2906"  fill-rule="evenodd" clip-rule="evenodd" d="M99.729,135.88c1.264-0.361,1.264-0.361,1.225,0.8
	C100.56,136.424,100.264,136.229,99.729,135.88z"/>
<path class="stroke" fill="#6a2906"  fill-rule="evenodd" clip-rule="evenodd" d="M169.237,114.315c0.658-0.372,0.972-0.122,1.159,0.541
	C169.601,114.911,169.601,114.911,169.237,114.315z"/>
<path class="stroke" fill="#6a2906"  fill-rule="evenodd" clip-rule="evenodd" d="M97.164,128.668c0.221,0.384,0.329,0.571,0.434,0.752
	c-0.389,0.58-0.735,0.558-1.387-0.239C96.471,129.041,96.731,128.9,97.164,128.668z"/>
<path class="stroke" fill="#6a2906"  fill-rule="evenodd" clip-rule="evenodd" d="M52.384,143.936c0.197-0.153,0.394-0.307,0.695-0.541
	c0.169,0.335,0.294,0.58,0.533,1.053c-0.545-0.086-0.857-0.136-1.169-0.185C52.423,144.153,52.403,144.045,52.384,143.936z"/>
<path class="stroke" fill="#6a2906"  fill-rule="evenodd" clip-rule="evenodd" d="M57.795,138.644c-0.3-0.163-0.6-0.325-0.986-0.535
	C57.748,137.526,57.748,137.526,57.795,138.644z"/>
<path class="stroke" fill="#6a2906"  fill-rule="evenodd" clip-rule="evenodd" d="M115.339,101.89c-0.342,0-0.685,0-1.027,0c-0.035-0.094-0.07-0.188-0.105-0.283
	c0.213-0.15,0.433-0.427,0.64-0.418c0.21,0.009,0.409,0.299,0.613,0.465C115.419,101.732,115.379,101.811,115.339,101.89z"/>
<path class="stroke" fill="#6a2906"  fill-rule="evenodd" clip-rule="evenodd" d="M109.518,83.004c-0.324-0.165-0.647-0.33-1.062-0.54
	c0.833-0.615,0.833-0.615,1.227,0.238C109.627,82.803,109.573,82.904,109.518,83.004z"/>
<path class="stroke" fill="#6a2906"  fill-rule="evenodd" clip-rule="evenodd" d="M111.792,85.161c-0.269-0.188-0.551-0.386-1.08-0.754
	c0.534-0.144,0.8-0.312,0.965-0.241C112.042,84.323,112.242,84.628,111.792,85.161z"/>
<path class="stroke" fill="#6a2906"  fill-rule="evenodd" clip-rule="evenodd" d="M36.385,144.595c0.525-0.705,0.525-0.705,1.112-0.078
	C37.143,145.137,36.795,144.76,36.385,144.595z"/>
<path class="stroke" fill="#6a2906"  fill-rule="evenodd" clip-rule="evenodd" d="M17.108,129.112c-0.523-0.111-0.793-0.169-1.108-0.236
	C16.533,128.098,16.533,128.098,17.108,129.112z"/>
<path fill-rule="evenodd" clip-rule="evenodd" fill="#ffe861" class="fill" d="M49.097,104.061c1.453,0.184,2.789,0.353,4.129,0.522
	c0.268-0.293,0.503-0.518,0.699-0.772c0.417-0.54,0.919-0.678,1.603-0.576c2.955,0.441,5.917,0.833,8.878,1.243
	c0.038-0.089,0.075-0.177,0.112-0.266c0.215,0.306,0.43,0.61,0.684,0.97c8.739,0.062,15.715,4.301,22.501,9.372
	c0.267,5.339,0.016,10.713-0.366,16.01c-1.374,0.794-2.61,1.507-4.065,2.349c0-0.892,0.002-1.572-0.001-2.251
	c-0.014-3.646-0.011-7.292-0.054-10.937c-0.02-1.706-0.788-2.604-2.533-2.716c-1.999-0.13-4.029-0.213-5.952,0.692
	c-1.009,1.126-1.547,2.453-1.809,3.992c-0.621,3.66-0.701,7.35-0.842,11.04c-0.018,0.457-0.068,0.913-0.114,1.481
	c-1.413,0.328-2.781,0.354-4.09,0.13c-3.405-0.58-6.782-1.322-10.18-1.948c-2.158-0.398-4.021-1.504-5.982-2.369
	c-1.535-0.677-3.023-1.461-4.68-2.271C46.875,119.796,47.516,111.928,49.097,104.061z"/>
<path fill-rule="evenodd" clip-rule="evenodd" fill="#ffe861" class="fill" d="M51.887,101.516c-1.721-0.024-3.967-0.608-5.173-1.381
	c0.304-0.628,0.578-1.303,0.942-1.928c1.901-3.271,3.84-6.519,5.736-9.792c1.477-2.549,2.92-5.118,4.354-7.692
	c0.284-0.51,0.46-1.079,0.817-1.934c-0.824,0.135-1.33,0.217-1.88,0.307c-3.609,6.911-7.433,13.631-11.955,19.992
	c-1.029-0.444-1.875-0.808-2.846-1.227c0.805-1.365,1.448-2.753,2.354-3.939c3.183-4.163,6.493-8.229,9.682-12.387
	c1.879-2.451,3.642-4.991,5.418-7.518c2.351-3.345,5.149-6.286,8.139-9.178c0.714,1.105,0.528,2.208,0.098,3.368
	c0.832,1.179,1.746,2.309,2.467,3.551c0.624,1.074,1.145,2.24,1.509,3.428c1.055,3.436,2.001,6.903,3.01,10.353
	c0.169,0.579,0.425,1.137,0.672,1.69c1.184,2.663,1.607,5.538,2.334,8.329c0.483,1.854,1.008,3.698,1.5,5.551
	c0.128,0.484,0.204,0.982,0.332,1.616c-1.131,0-2.137,0-3.373,0c-0.355-1.307-0.808-2.715-1.116-4.156
	c-0.849-3.979-1.615-7.976-2.459-11.956c-0.359-1.691-0.857-3.353-1.248-5.038c-0.518-2.231-0.988-4.476-1.49-6.711
	c-0.081-0.359-0.22-0.705-0.346-1.101c-0.346-0.041-0.656-0.078-1.04-0.124c-0.116,0.335-0.316,0.635-0.304,0.925
	c0.032,0.792,0.111,1.589,0.249,2.37c0.34,1.928,0.721,3.849,1.09,5.772c0.809,4.223,1.58,8.454,2.45,12.666
	c0.435,2.101,1.174,4.139,1.261,6.311c0.011,0.27,0.001,0.54,0.001,0.929c-1.926,0.301-3.7-0.284-5.656-0.435
	c0.184-9.837-0.086-19.517-1.266-29.152c-0.006-0.047-0.156-0.077-0.32-0.153c-0.698,0.631-1.075,1.372-1.042,2.397
	c0.074,2.284,0.075,4.571,0.066,6.857c-0.011,2.62-0.021,5.242-0.111,7.86c-0.142,4.151-0.35,8.3-0.529,12.467
	c-1.208,0.398-2.235,0.181-3.356,0.017c0.519-3.287,1.662-6.371,1.958-9.686c-0.347-0.131-0.625-0.236-1.075-0.406
	c-1.021,3.29-1.233,6.681-2.368,9.968c-0.747-0.062-1.459-0.121-2.435-0.202c1.661-4.504,3.232-8.767,4.774-12.948
	c-0.547-0.59-0.904-0.466-1.123,0.006c-0.585,1.267-1.167,2.536-1.687,3.83c-1.047,2.602-2.05,5.22-3.08,7.829
	c-0.058,0.148-0.188,0.268-0.505,0.352c0-0.343-0.024-0.688,0.003-1.029c0.242-2.93,1.269-5.634,2.372-8.322
	c0.905-2.203,1.684-4.439,2.272-6.768c0.662-2.617,1.767-5.12,2.677-7.674c0.282-0.79,0.606-1.571,0.806-2.382
	c0.08-0.324-0.125-0.719-0.213-1.143c-0.958,0.241-1.353,0.798-1.699,1.417c-0.964,1.722-1.632,3.559-2.224,5.436
	c-1.279,4.056-2.587,8.103-3.917,12.143c-0.291,0.885-0.741,1.717-1.092,2.582C53.5,97.459,52.712,99.451,51.887,101.516z"/>
<path fill-rule="evenodd" clip-rule="evenodd" fill="#ffe861" class="fill" d="M18.093,119.237c-0.511,0.042-1.029,0.083-1.735,0.14
	c-0.112-0.705-0.265-1.276-0.285-1.853c-0.088-2.424-0.176-4.849-0.188-7.273c-0.012-2.326,0.061-4.654,0.108-6.98
	c0.03-1.494,0.064-2.987,0.13-4.478c0.027-0.596,0.146-1.188,0.241-1.914c0.676-0.096,1.288-0.182,2.104-0.297
	C18.342,104.159,18.22,111.557,18.093,119.237z"/>
<path fill-rule="evenodd" clip-rule="evenodd" fill="#ffe861" class="fill" d="M74.412,78.865c1.367,1.86,3.209,3.404,3.66,5.831
	c0.042,0.225,0.152,0.444,0.262,0.648c1.723,3.203,2.976,6.625,4.621,9.867c0.922,1.818,1.591,3.767,2.458,5.857
	c-0.81,0.08-1.467,0.146-2.214,0.22C79.984,93.862,76.342,86.713,74.412,78.865z"/>
<path fill-rule="evenodd" clip-rule="evenodd" fill="#ffe861" class="fill" d="M32.924,108.538c-0.544-0.034-0.903-0.057-1.43-0.089
	c-0.056-0.626-0.163-1.209-0.151-1.789c0.051-2.476,0.142-4.949,0.211-7.424c0.108-3.869,0.202-7.739,0.326-11.608
	c0.02-0.641,0.161-1.278,0.253-1.972c0.493,0,0.88,0,1.404,0c0.043,0.837,0.136,1.571,0.108,2.302
	c-0.19,5.086-0.417,10.169-0.608,15.255c-0.048,1.26,0.001,2.524-0.011,3.787C33.022,107.459,32.967,107.918,32.924,108.538z"/>
<path fill-rule="evenodd" clip-rule="evenodd" fill="#ffe861" class="fill" d="M24.513,90.564c0.45-0.039,0.718-0.062,0.992-0.086
	c0.082,0.155,0.196,0.273,0.196,0.391c-0.001,0.933,0.059,1.876-0.054,2.798c-0.533,4.374-0.56,8.76-0.493,13.156
	c0.03,1.959-0.105,3.92-0.15,5.881c-0.021,0.88-0.003,1.762-0.003,2.865c-0.339,0.035-0.778,0.08-1.393,0.143
	c-0.073-1.193-0.215-2.21-0.183-3.221c0.149-4.616,0.345-9.231,0.531-13.848c0.077-1.912,0.153-3.826,0.264-5.737
	C24.263,92.169,24.4,91.436,24.513,90.564z"/>
<path fill-rule="evenodd" clip-rule="evenodd" fill="#ffe861" class="fill" d="M40.012,97.976c0.424,2.208,0.272,5.9-0.61,7.271
	c-0.143-0.605-0.319-1.021-0.327-1.441c-0.031-1.858-0.052-3.719-0.004-5.576c0.068-2.655,0.182-5.309,0.311-7.961
	c0.082-1.675,0.211-3.349,0.353-5.02c0.035-0.407,0.197-0.804,0.421-1.203c0.376,1.096,0.093,2.225,0.129,3.331
	c0.04,1.214,0.026,2.429,0.008,3.644c-0.018,1.168-0.065,2.336-0.113,3.503C40.133,95.675,40.068,96.824,40.012,97.976z"/>
<path fill-rule="evenodd" clip-rule="evenodd" fill="#ffe861" class="fill" d="M46.266,82.937c0.298-0.044,0.55-0.082,0.893-0.133
	c0.538,1.759-0.07,3.482,0.202,5.182c-0.401,0.457-0.786,0.896-1.402,1.598C45.715,87.15,45.884,85.073,46.266,82.937z"/>
<path fill-rule="evenodd" clip-rule="evenodd" fill="#ffe861" class="fill" d="M27.029,93.157c0.782-0.512,1.534-1.004,2.61-1.708
	c-0.071,1.246-0.122,2.135-0.173,3.051c-0.773,0.44-1.479,0.843-2.437,1.389c0-0.65,0-1.031,0-1.413
	C27.029,94.106,27.029,93.736,27.029,93.157z"/>
<path fill-rule="evenodd" clip-rule="evenodd" fill="#ffe861" class="fill" d="M26.576,107.458c0-0.829,0-1.463,0-2.19
	c0.839-0.294,1.275-1.304,2.423-1.294c0,0.778,0,1.504,0,2.39C28.279,106.688,27.496,107.042,26.576,107.458z"/>
<path fill-rule="evenodd" clip-rule="evenodd" fill="#ffe861" class="fill" d="M37.854,88.075c-0.056,0.777-0.095,1.32-0.143,1.977
	c-0.906,0.337-1.792,0.667-2.787,1.037c-0.053-0.595-0.093-1.043-0.131-1.472C35.484,88.537,36.508,88.248,37.854,88.075z"/>
<path fill-rule="evenodd" clip-rule="evenodd" fill="#ffe861" class="fill" d="M21.691,110.819c-0.726,0.424-1.385,0.808-2.198,1.281
	c0-0.908,0-1.587,0-2.382c0.643-0.39,1.337-0.81,2.198-1.331C21.691,109.307,21.691,109.979,21.691,110.819z"/>
<path fill-rule="evenodd" clip-rule="evenodd" fill="#ffe861" class="fill" d="M34.447,102.777c0-0.506,0-0.817,0-1.223
	c1.062-0.403,1.521-1.836,3.013-1.784c0,0.517,0,1.014,0,1.561C36.576,101.914,35.712,102.519,34.447,102.777z"/>
<path fill-rule="evenodd" clip-rule="evenodd" fill="#ffe861" class="fill" d="M21.995,98.994c-0.793,0.509-1.401,0.899-2.167,1.391
	c0-0.909,0-1.581,0-2.378c0.598-0.37,1.208-0.747,2.056-1.27C21.929,97.654,21.962,98.312,21.995,98.994z"/>
<path fill-rule="evenodd" clip-rule="evenodd" fill="#ffe861" class="fill" d="M43.707,86.086c0,0.746,0,1.147,0,1.682
	c-0.64,0.295-1.275,0.586-2.081,0.956c0-0.648,0-1.038,0-1.564C42.235,86.847,42.865,86.521,43.707,86.086z"/>
<path fill-rule="evenodd" clip-rule="evenodd" fill="#ffe861" class="fill" d="M173.262,104.705c-0.563,0.389-1.085,0.907-1.714,1.159
	c-4.05,1.628-8.161,3.082-12.616,2.933c-2.431-0.082-4.855-0.33-7.283-0.494c-0.785-0.053-1.572-0.076-2.531-0.122
	c0.027-6.047,0.681-11.988,1.017-17.887c-1.717-2.396-7.479-2.812-9.728-0.586c-0.925,5.215-1.035,10.677-1.232,16.127
	c-1.835-0.046-4.814-1.41-6.329-2.926c-0.039-0.512-0.162-1.121-0.119-1.718c0.218-3.029,0.464-6.057,0.731-9.082
	c0.186-2.094,0.409-4.185,0.641-6.273c0.406-3.665,0.831-7.326,1.258-11.068c0.569,0.115,1.061,0.215,1.577,0.32
	c-0.197,0.615-0.375,1.168-0.576,1.793c2.125,0.802,4.087,1.663,6.4,1.584c0.257-0.185,0.585-0.422,0.973-0.702
	c1.226,0.679,2.954,0.005,3.948,1.607c1.176,0.076,2.384,0.154,3.643,0.235c0.549-0.95,1.395-0.99,2.322-0.864
	c0.459,0.062,0.943,0.071,1.4-0.001c1.88-0.297,3.652,0.18,5.349,0.851c2.429,0.959,4.885,1.913,7.168,3.166
	c2.118,1.162,4.06,2.661,6.003,4.113c0.934,0.696,1.32,1.722,1.211,2.975c-0.325,3.728-0.533,7.467-0.853,11.196
	C173.826,102.198,173.516,103.34,173.262,104.705z"/>
<path fill-rule="evenodd" clip-rule="evenodd" fill="#ffe861" class="fill" d="M180.185,75.359c-1.169,0.215-2.019,0.371-2.857,0.524
	c-2.933-7.06-5.795-13.95-8.684-20.903c-0.626,0.101-1.061,0.17-1.605,0.256c2.346,7.372,4.716,14.572,7.994,21.652
	c-0.986,0-1.795,0-2.716,0c-0.128-0.367-0.303-0.744-0.394-1.141c-0.634-2.775-1.239-5.557-1.881-8.33
	c-0.2-0.863-0.483-1.707-0.734-2.558c-0.146-0.491-0.42-0.818-1.014-0.753c-0.464,0.567-0.233,1.145-0.092,1.73
	c0.701,2.905,1.405,5.811,2.07,8.725c0.104,0.458,0.014,0.959,0.014,1.558c-0.748,0.034-1.332,0.059-1.888,0.084
	c-0.116-0.234-0.21-0.351-0.232-0.479c-0.84-4.98-1.673-9.962-2.511-14.943c-0.062-0.369-0.134-0.739-0.244-1.097
	c-0.229-0.738-0.688-1.086-1.601-0.764c0,0.332-0.046,0.688,0.009,1.028c0.119,0.73,0.4,1.45,0.423,2.18
	c0.093,2.96,0.895,5.806,1.319,8.71c0.229,1.57,0.353,3.156,0.487,4.738c0.03,0.354-0.094,0.72-0.163,1.195
	c-0.688,0.081-1.314,0.156-2.069,0.246c-0.25-1.091-0.561-2.069-0.687-3.071c-0.361-2.873-0.718-5.75-0.943-8.636
	c-0.185-2.373-0.197-4.76-0.255-7.141c-0.057-2.322,0.052-4.655-0.426-6.964c-0.238-0.077-0.41-0.168-0.585-0.176
	c-0.12-0.006-0.245,0.102-0.368,0.159c0.215,8.681,0.148,17.347,1.064,26.02c-0.455,0.083-0.721,0.139-0.989,0.178
	c-0.223,0.034-0.45,0.046-0.853,0.087c-0.087-0.471-0.225-0.898-0.236-1.329c-0.118-4.301-0.228-8.603-0.31-12.905
	c-0.031-1.584,0.034-3.17,0.024-4.755c-0.015-2.383-0.037-4.766-0.094-7.147c-0.064-2.658-0.152-5.316-0.279-7.972
	c-0.019-0.395-0.308-0.775-0.46-1.136c-0.864,0.213-0.859,0.727-0.85,1.265c0.069,4.343,0.165,8.687,0.185,13.03
	c0.017,3.6-0.059,7.2-0.09,10.8c-0.023,2.666-0.043,5.334-0.062,8c-0.003,0.458,0,0.916,0,1.497
	c-0.664,0.054-1.194,0.096-1.863,0.149c-0.037-0.68-0.119-1.23-0.09-1.775c0.23-4.395,0.469-8.788,0.731-13.181
	c0.081-1.353,0.262-2.698,0.362-4.05c0.03-0.414,0.003-0.855-0.113-1.25c-0.068-0.232-0.363-0.399-0.584-0.625
	c-0.207,0.236-0.358,0.329-0.375,0.44c-0.273,1.838-0.543,3.678-0.786,5.521c-0.452,3.432-0.89,6.864-1.323,10.298
	c-0.106,0.835-0.162,1.677-0.261,2.514c-0.053,0.45-0.149,0.895-0.234,1.392c-0.945,0-1.769,0-2.78,0
	c0.286-1.57,0.538-3.111,0.852-4.64c0.404-1.968,0.863-3.925,1.288-5.889c0.105-0.491,0.256-1.016-0.399-1.361
	c-0.754,0.499-0.895,1.298-1.062,2.048c-0.711,3.187-2.112,6.088-3.651,8.934c-0.087,0.161-0.215,0.302-0.341,0.475
	c-0.59,0-1.174,0-2.001,0c2.706-6.528,5.482-12.827,8.128-19.348c-0.396,0.132-0.791,0.264-1.186,0.396
	c0.049,0.058,0.099,0.118,0.147,0.176c-0.535,0.75-1.071,1.5-1.605,2.251c-0.108,0.152-0.227,0.301-0.312,0.465
	c-1.677,3.235-3.371,6.463-5.018,9.713c-0.866,1.708-1.648,3.458-2.478,5.185c-0.1,0.207-0.256,0.385-0.47,0.7
	c-0.394-0.086-0.81-0.179-1.161-0.256c-0.383-1.926,0.613-3.26,1.549-4.49c0.918-1.207,1.134-2.621,1.769-3.952
	c-0.727-0.589-1.107-0.159-1.534,0.316c-1.438,1.601-2.896,3.183-4.359,4.758c-0.162,0.174-0.408,0.27-0.809,0.235
	c0.242-0.417,0.534-0.812,0.718-1.254c1.231-2.959,3.125-5.527,4.836-8.199c2.368-3.697,4.796-7.355,7.194-11.034
	c1.503-2.306,3.004-4.613,4.488-6.931c0.35-0.547,0.627-1.14,0.967-1.766c-0.202-0.227-0.377-0.423-0.528-0.592
	c-0.164,0.039-0.292,0.03-0.332,0.085c-4.412,6.044-8.831,12.083-13.215,18.147c-1.862,2.575-3.668,5.189-5.465,7.81
	c-0.656,0.958-1.208,1.985-1.792,2.954c-0.896,0.274-1.487-0.117-2.091-0.698c1.729-2.97,3.82-5.626,6.1-8.144
	c-0.328-0.47-0.533-0.763-0.735-1.053c-0.206,0.043-0.387,0.025-0.461,0.105c-0.539,0.582-1.074,1.169-1.577,1.781
	c-1.543,1.875-3.074,3.759-4.601,5.646c-0.339,0.42-0.675,0.796-1.333,0.557c-0.369-0.516-0.068-0.923,0.274-1.331
	c2.674-3.187,5.427-6.312,7.995-9.583c2.213-2.818,4.897-5.129,7.453-7.594c2.049-1.976,3.903-4.158,5.819-6.27
	c1.504-1.658,2.914-3.408,4.483-5.003c0.792-0.805,1.844-1.356,2.873-2.09c0.928,1.267,1.854,2.427,2.665,3.662
	c1.695,2.58,3.336,5.194,4.983,7.804c0.397,0.628,0.724,1.301,1.102,1.942c0.733,1.243,1.482,2.478,2.216,3.722
	c0.33,0.561,0.864,1.114,0.918,1.706c0.208,2.304,1.552,4.077,2.61,5.978c0.993,1.783,2.177,3.463,3.135,5.263
	C177.645,70.063,178.825,72.604,180.185,75.359z"/>
<path fill-rule="evenodd" clip-rule="evenodd" fill="#ffe861" class="fill" d="M131.724,158.702c-1.015,0.441-1.716,0.614-2.367,0.013
	c0-1.598-0.082-3.18,0.016-4.751c0.229-3.68,0.55-7.355,0.823-11.034c0.141-1.906,0.247-3.817,0.395-5.725
	c0.103-1.325,0.735-2.032,1.988-2.14c-0.101,0.984-0.249,1.939-0.289,2.899c-0.104,2.51-0.17,5.021-0.236,7.533
	C131.938,149.911,131.833,154.324,131.724,158.702z"/>
<path fill-rule="evenodd" clip-rule="evenodd" fill="#ffe861" class="fill" d="M144.344,133.016c0.482-0.031,0.874-0.057,1.399-0.09
	c-1.03,7.898-0.83,15.725-1.207,23.607c-0.582-0.12-1.117-0.229-1.807-0.37c-0.097-0.455-0.302-0.938-0.285-1.413
	c0.134-3.959,0.219-7.924,0.503-11.874c0.207-2.878,0.686-5.735,1.059-8.6C144.055,133.913,144.194,133.562,144.344,133.016z"/>
<path fill-rule="evenodd" clip-rule="evenodd" fill="#ffe861" class="fill" d="M173.218,120.333c0.309-0.1,0.658-0.212,0.998-0.321
	c0.146,0.122,0.316,0.194,0.341,0.301c0.084,0.356,0.176,0.726,0.16,1.086c-0.175,4.197-0.376,8.392-0.556,12.588
	c-0.156,3.646-0.294,7.292-0.445,11.067c-0.492,0.187-0.384,1.389-1.439,1.156C171.67,143.634,172.439,122.221,173.218,120.333z"/>
<path fill-rule="evenodd" clip-rule="evenodd" fill="#ffe861" class="fill" d="M113.502,161.235c-0.749-0.18-1.22-0.292-1.73-0.415
	c0-1.518-0.099-2.958,0.018-4.381c0.43-5.256,0.914-10.508,1.417-15.757c0.102-1.054,0.38-2.093,0.593-3.228
	c0.505-0.083,0.941-0.153,1.595-0.26C115.061,145.247,113.755,153.056,113.502,161.235z"/>
<path fill-rule="evenodd" clip-rule="evenodd" fill="#ffe861" class="fill" d="M140.908,156.541c-0.5,0-0.941,0-1.488,0
	c-0.084-0.525-0.218-0.976-0.218-1.427c-0.005-4.155,0.151-8.302,0.587-12.439c0.245-2.316,0.317-4.65,0.515-6.972
	c0.05-0.583,0.286-1.15,0.436-1.728c0.557-0.174,0.991-0.311,1.667-0.523c-0.154,2.697-0.66,5.191-0.809,7.714
	c-0.149,2.512-0.269,5.024-0.381,7.538C141.102,151.265,141.014,153.827,140.908,156.541z"/>
<path fill-rule="evenodd" clip-rule="evenodd" fill="#ffe861" class="fill" d="M123.508,137.063c0.421,0.082,0.681,0.133,1.12,0.218
	c-0.497,7.597-0.992,15.154-1.492,22.802c-0.571,0-1.011,0-1.554,0c-0.062-0.438-0.186-0.846-0.167-1.248
	c0.141-2.848,0.3-5.694,0.475-8.54c0.121-1.956,0.246-3.913,0.423-5.864c0.189-2.091,0.424-4.178,0.682-6.262
	C123.037,137.825,123.295,137.509,123.508,137.063z"/>
<path fill-rule="evenodd" clip-rule="evenodd" fill="#ffe861" class="fill" d="M148.74,132.511c-0.436,7.614-0.869,15.195-1.306,22.856
	c-0.343,0.082-0.682,0.163-1.016,0.243c-0.125-0.173-0.273-0.283-0.273-0.393c-0.001-2.188-0.02-4.375,0.037-6.561
	c0.045-1.727,0.266-3.451,0.268-5.177c0.004-3.091,0.108-6.165,0.727-9.203c0.084-0.412,0.144-0.835,0.288-1.226
	C147.64,132.58,147.951,132.243,148.74,132.511z"/>
<path fill-rule="evenodd" clip-rule="evenodd" fill="#ffe861" class="fill" d="M179.974,141.279c-0.058-0.487-0.189-0.979-0.163-1.461
	c0.116-2.144,0.273-4.285,0.427-6.427c0.063-0.885,0.185-1.767,0.234-2.652c0.207-3.682,0.385-7.365,0.604-11.047
	c0.043-0.739,0.211-1.471,0.329-2.259c0.338-0.099,0.623-0.181,1.029-0.3c0,0.666,0.047,1.212-0.008,1.747
	c-0.188,1.81-0.482,3.611-0.605,5.425c-0.176,2.604-0.231,5.217-0.351,7.825c-0.104,2.284-0.217,4.567-0.348,6.85
	c-0.032,0.557-0.11,1.119-0.252,1.657c-0.071,0.27-0.332,0.491-0.506,0.734C180.234,141.341,180.104,141.31,179.974,141.279z"/>
<path fill-rule="evenodd" clip-rule="evenodd" fill="#ffe861" class="fill" d="M158.245,152.832c-0.534,0.039-0.843,0.062-1.214,0.088
	c-0.095-0.258-0.236-0.466-0.237-0.675c-0.005-1.119,0.006-2.238,0.047-3.357c0.104-2.843,0.185-5.688,0.352-8.527
	c0.203-3.445,0.483-6.886,0.735-10.327c0.028-0.378,0.06-0.777,0.684-0.748c0.067,0.115,0.247,0.276,0.231,0.413
	C157.901,137.338,158.424,145.023,158.245,152.832z"/>
<path fill-rule="evenodd" clip-rule="evenodd" fill="#ffe861" class="fill" d="M166.751,124.282c0.022,0.304,0.092,0.619,0.062,0.923
	c-0.146,1.484-0.358,2.963-0.471,4.45c-0.131,1.719-0.176,3.443-0.272,5.165c-0.238,4.292-0.48,8.584-0.737,12.875
	c-0.024,0.401-0.159,0.797-0.256,1.259c-0.898-0.381-0.807-1.099-0.786-1.711c0.051-1.495,0.192-2.984,0.269-4.479
	c0.181-3.542,0.287-7.09,0.536-10.627c0.168-2.371,0.532-4.729,0.804-7.092C165.952,124.581,166.099,124.229,166.751,124.282z"/>
<path fill-rule="evenodd" clip-rule="evenodd" fill="#ffe861" class="fill" d="M150.536,132.058c0.355,0,0.531,0,0.755,0
	c0.048,0.202,0.143,0.383,0.123,0.551c-0.872,7.246-1.254,14.529-1.679,21.81c-0.01,0.159-0.143,0.312-0.247,0.526
	c-0.689-0.293-0.557-0.873-0.544-1.326c0.042-1.447,0.149-2.892,0.228-4.339c0.159-2.937,0.296-5.875,0.479-8.811
	c0.142-2.284,0.326-4.565,0.525-6.843C150.219,133.122,150.399,132.632,150.536,132.058z"/>
<path fill-rule="evenodd" clip-rule="evenodd" fill="#ffe861" class="fill" d="M120.176,140.257c-0.068,0.692-0.133,1.349-0.211,2.136
	c-1.203,0-2.278,0-3.503,0c0.089-0.756,0.162-1.382,0.25-2.136C117.85,140.257,118.925,140.257,120.176,140.257z"/>
<path fill-rule="evenodd" clip-rule="evenodd" fill="#ffe861" class="fill" d="M115.209,155.791c0.076-0.727,0.122-1.174,0.187-1.795
	c1.274-0.079,2.496-0.153,3.928-0.242c-0.066,0.688-0.112,1.159-0.16,1.657C117.88,155.963,116.644,155.701,115.209,155.791z"/>
<path fill-rule="evenodd" clip-rule="evenodd" fill="#ffe861" class="fill" d="M137.052,136.883c-0.027,0.609-0.047,1.064-0.068,1.548
	c-1.015,0.668-2.065,0.435-3.166,0.388c0-0.504,0-0.908,0-1.422C134.769,136.822,135.765,136.522,137.052,136.883z"/>
<path fill-rule="evenodd" clip-rule="evenodd" fill="#ffe861" class="fill" d="M136.502,152.494c-1.083,0.191-2.066,0.365-3.219,0.567
	c-0.05-0.651-0.083-1.085-0.117-1.531c1.106-0.596,2.146-0.862,3.47-0.598C136.593,151.43,136.554,151.896,136.502,152.494z"/>
<path fill-rule="evenodd" clip-rule="evenodd" fill="#ffe861" class="fill" d="M160.026,133.586c0.113-0.917,0.184-1.487,0.265-2.138
	c0.823-0.216,1.565-0.411,2.542-0.667c-0.039,0.779-0.069,1.391-0.109,2.18C161.897,133.153,161.12,133.333,160.026,133.586z"/>
<path fill-rule="evenodd" clip-rule="evenodd" fill="#ffe861" class="fill" d="M151.425,147.397c1.024-0.212,2-0.414,3.096-0.642
	c0.033,0.516,0.056,0.861,0.081,1.258c-1.029,0.407-1.916,1.063-3.177,0.733C151.425,148.317,151.425,147.892,151.425,147.397z"/>
<path fill-rule="evenodd" clip-rule="evenodd" fill="#ffe861" class="fill" d="M154.96,135.123c-0.828,0.15-1.533,0.278-2.373,0.429
	c0-0.644,0-1.117,0-1.763c0.78-0.154,1.519-0.299,2.373-0.467C154.96,133.969,154.96,134.454,154.96,135.123z"/>
<path fill-rule="evenodd" clip-rule="evenodd" fill="#ffe861" class="fill" d="M167.884,129.033c0.678-0.211,1.286-0.4,2.022-0.631
	c0,0.766,0,1.389,0,2.094c-0.668,0.192-1.279,0.368-2.126,0.611C167.82,130.32,167.851,129.708,167.884,129.033z"/>
<path fill-rule="evenodd" clip-rule="evenodd" fill="#ffe861" class="fill" d="M175.856,126.34c0.776-0.368,1.469-0.697,2.35-1.115
	c0,0.696,0,1.167,0,1.802c-0.693,0.233-1.458,0.491-2.457,0.828C175.795,127.208,175.824,126.786,175.856,126.34z"/>
<path fill-rule="evenodd" clip-rule="evenodd" fill="#ffe861" class="fill" d="M161.754,145.48c-0.583,0.18-1.17,0.361-1.882,0.58
	c-0.043-0.598-0.073-0.999-0.109-1.505c0.646-0.211,1.248-0.407,1.991-0.649C161.754,144.465,161.754,144.901,161.754,145.48z"/>
<path fill-rule="evenodd" clip-rule="evenodd" fill="#ffe861" class="fill" d="M127.668,140.719c-0.596,0.032-1.078,0.06-1.725,0.096
	c0.084-0.615,0.149-1.087,0.219-1.598c0.571-0.13,1.052-0.239,1.75-0.398C127.827,139.487,127.761,140.002,127.668,140.719z"/>
<path fill-rule="evenodd" clip-rule="evenodd" fill="#ffe861" class="fill" d="M175.423,139.051c-0.046-0.256-0.092-0.51-0.139-0.77
	c0.732-0.689,1.534-1.057,2.51-1.098C177.717,138.294,177.219,138.679,175.423,139.051z"/>
<path fill-rule="evenodd" clip-rule="evenodd" fill="#ffe861" class="fill" d="M169.57,140.913c0,0.352,0,0.698,0,1.246
	c-0.788,0.173-1.55,0.34-2.355,0.516C167.202,141.528,167.929,141.04,169.57,140.913z"/>
<path fill-rule="evenodd" clip-rule="evenodd" fill="#ffe861" class="fill" d="M125.221,152.933c0.638,0,1.132,0,1.71,0c0,0.479,0,0.917,0,1.493
	c-0.521,0.101-1.031,0.2-1.71,0.332C125.221,154.086,125.221,153.574,125.221,152.933z"/>
<path fill-rule="evenodd" clip-rule="evenodd" fill="#ffe861" class="fill" d="M107.027,77.59c-0.069-2.499-0.113-4.639-0.19-6.778
	c-0.125-3.54-1.923-4.375-5.14-3.742c-1.342,0.264-1.853,1.197-2.055,2.355c-0.272,1.562-0.442,3.143-0.648,4.717
	c-0.144,1.098-0.274,2.198-0.433,3.475c-4.154-0.474-7.819-2.071-11.688-3.287c0.228-3.878,0.453-7.686,0.682-11.571
	c1.118-0.212,2.163-0.41,3.243-0.614c0.194-0.33,0.376-0.641,0.544-0.929c0.121-0.042,0.216-0.113,0.294-0.098
	c1.491,0.285,3.018,0.226,4.471,0.931c1.044,0.506,2.332,0.765,3.45-0.015c4.118,0.301,7.518,2.143,10.635,4.685
	c0.329,1.49,0.227,8.197-0.199,10.028C109.161,76.981,108.247,77.242,107.027,77.59z"/>
<path fill-rule="evenodd" clip-rule="evenodd" fill="#ffe861" class="fill" d="M84.149,60.123c-0.537-0.121-0.877-0.198-1.461-0.329
	c2.585-3.92,4.947-7.778,7.594-11.429c2.609-3.598,4.514-7.693,7.809-11.006c0.254,0.304,0.531,0.582,0.745,0.901
	c0.908,1.361,1.82,2.722,2.686,4.111c0.394,0.631,0.686,1.326,1.018,1.996c0.683,1.38,1.384,2.752,2.031,4.148
	c0.37,0.797,0.634,1.642,0.97,2.455c0.193,0.468,0.393,0.944,0.665,1.369c0.983,1.536,2.024,3.035,2.991,4.582
	c0.539,0.861,0.974,1.788,1.552,2.867c-0.829,0-1.444,0-2.25,0c-0.256-0.359-0.654-0.765-0.873-1.252
	c-1.488-3.324-2.939-6.666-4.454-10.12c-0.193-0.043-0.487-0.11-0.792-0.179c-0.09,0.193-0.212,0.328-0.191,0.435
	c0.099,0.498,0.176,1.014,0.369,1.479c1.238,2.971,2.505,5.929,3.753,8.896c0.05,0.117,0.006,0.272,0.006,0.458
	c-0.899,0.288-1.732,0.175-2.712-0.43c-0.179-0.765-0.497-1.654-0.581-2.565c-0.274-2.996-1.16-5.854-1.85-8.757
	c-0.214-0.901-0.542-1.774-0.834-2.716c-0.296-0.023-0.559-0.044-1.011-0.081c-0.131,2.719,0.842,5.2,1.184,7.759
	c0.339,2.531,0.962,5.024,1.476,7.607c-0.706,0.302-1.436,0.203-2.358-0.241c0-1.562-0.007-3.141,0.004-4.72
	c0.004-0.534,0.042-1.061-0.755-1.206c-0.779,0.862-0.263,1.928-0.341,2.89c-0.079,0.965-0.018,1.943-0.018,2.852
	c-0.802,0.308-0.93-0.156-0.956-0.572c-0.04-0.651,0.006-1.31,0.039-1.963c0.187-3.688,0.4-7.375,0.56-11.066
	c0.063-1.444,0.011-2.894,0.011-4.379c-0.22-0.103-0.42-0.197-0.792-0.37c-0.367,3.095-0.751,6.071-1.066,9.054
	c-0.312,2.959-0.556,5.925-0.844,9.03c-1.103-0.125-2.05-0.231-3.152-0.356c0.076-0.624,0.11-1.118,0.199-1.602
	c0.401-2.157,0.747-4.33,1.257-6.463c0.29-1.211,0.861-2.354,1.307-3.528c0.096-0.252,0.202-0.501,0.303-0.751
	c-0.613-0.785-1.207-0.211-1.999-0.123c-0.262,0.957-0.588,1.92-0.784,2.908c-0.599,3.022-1.921,5.752-3.378,8.421
	c-0.642,1.177-1.339,1.429-3.364,1.532c1.87-3.234,3.695-6.392,5.613-9.71c-0.556-0.127-0.881-0.203-1.173-0.27
	C88.235,53.195,86.227,56.6,84.149,60.123z"/>
</svg>
