<svg version="1.1" id="svg" xmlns="http://www.w3.org/2000/svg" xmlns:xlink="http://www.w3.org/1999/xlink" x="0px" y="0px"
	 width="200px" height="200px" viewBox="0 0 200 200" enable-background="new 0 0 200 200" xml:space="preserve">
<path class="stroke" fill="#58281d"  fill-rule="evenodd" clip-rule="evenodd" d="M131.289,26.461c1.533-0.291,2.976-0.564,4.443-0.844
	c0.317-1.366,0.617-2.665,0.912-3.939c0.422-0.174,0.744-0.307,1.115-0.458c0.391,0.154,0.795,0.314,1.162,0.458
	c0.06,1.795-0.557,3.36-0.9,4.979c-0.52,2.44-0.936,4.896-1.121,7.391c-0.104,1.366-0.463,2.711-0.58,4.076
	c-0.245,2.841-0.388,5.688-0.605,8.531c-0.084,1.085-0.277,2.161-0.384,3.246c-0.201,2.069-0.378,4.143-0.562,6.213
	c-0.199,2.232-0.39,4.464-0.589,6.696c-0.093,1.019-0.231,2.035-0.292,3.054c-0.208,3.517-0.417,7.033-0.577,10.553
	c-0.172,3.842-0.289,7.686-0.427,11.53c-0.074,2.082-0.15,4.163-0.216,6.245c-0.069,2.211-0.122,4.419-0.189,6.63
	c-0.104,3.427-0.242,6.854-0.318,10.279c-0.087,3.938-0.107,7.88-0.185,11.818c-0.029,1.531-0.15,3.062-0.201,4.594
	c-0.048,1.408-0.037,2.82-0.092,4.228c-0.104,2.85-0.272,5.698-0.347,8.548c-0.079,2.946-0.097,5.893-0.108,8.841
	c-0.012,2.785,0.006,5.573,0.038,8.359c0.029,2.465,0.096,4.926,0.144,7.39c0.045,2.4,0.093,4.804,0.127,7.206
	c0.005,0.282-0.059,0.564-0.096,0.922c-0.531,0.158-1.044,0.313-1.304,0.391c-1.166-0.08-2.08-0.142-2.937-0.198
	c-0.262,0.528-0.425,0.941-0.665,1.307c-0.108,0.164-0.366,0.229-0.525,0.322c-0.622-0.07-0.767-0.471-0.809-0.951
	c-0.175-1.979-0.333-3.951-0.014-5.94c0.113-0.71-0.044-1.464-0.072-2.198c-0.097-2.528-0.185-5.057-0.286-7.585
	c-0.109-2.722-0.274-5.441-0.339-8.164c-0.069-3.01-0.048-6.023-0.075-9.035c-0.02-2.017-0.089-4.034-0.082-6.05
	c0.015-3.362,0.06-6.727,0.113-10.088c0.037-2.273,0.085-4.548,0.181-6.819c0.072-1.696,0.246-3.389,0.35-5.083
	c0.046-0.767,0.006-1.539,0.047-2.308c0.2-3.708,0.435-7.414,0.611-11.124c0.074-1.531,0.023-3.068,0.059-4.603
	c0.023-1.119,0.077-2.238,0.148-3.358c0.212-3.322,0.454-6.644,0.654-9.967c0.213-3.519,0.377-7.038,0.587-10.556
	c0.104-1.727,0.27-3.45,0.398-5.176c0.222-3.036,0.428-6.073,0.661-9.107c0.192-2.525,0.398-5.048,0.621-7.569
	c0.22-2.487,0.458-4.975,0.701-7.461c0.242-2.485,0.515-4.966,0.744-7.453c0.036-0.394-0.108-0.802-0.13-1.204
	c-0.029-0.604-0.106-1.225-0.013-1.813c0.206-1.293,0.493-2.576,0.782-3.856C130.918,27.058,131.125,26.788,131.289,26.461z
	 M128.696,167.695c0-0.575,0.015-0.987-0.003-1.397c-0.11-2.689-0.278-5.377-0.333-8.067c-0.057-2.815-0.023-5.636,0-8.454
	c0.019-2.048,0.099-4.095,0.126-6.144c0.018-1.279-0.058-2.56-0.004-3.837c0.113-2.753,0.283-5.501,0.426-8.252
	c0.17-3.294,0.355-6.59,0.494-9.886c0.15-3.551,0.251-7.103,0.379-10.653c0.136-3.747,0.26-7.491,0.427-11.235
	c0.188-4.19,0.416-8.378,0.632-12.566c0.066-1.277,0.157-2.555,0.222-3.832c0.102-2.016,0.247-4.029,0.269-6.047
	c0.041-3.878,0.129-7.751,0.451-11.62c0.225-2.679,0.378-5.366,0.565-8.049c0.144-2.078,0.274-4.155,0.44-6.229
	c0.162-2.011,0.365-4.017,0.547-6.024c0.179-1.946,0.352-3.893,0.534-5.838c0.042-0.444,0.148-0.885,0.179-1.331
	c0.131-1.978,0.262-3.957,0.355-5.935c0.026-0.524-0.07-1.055-0.116-1.608c-0.79-0.021-1.445-0.24-2.102,0.084
	c-0.321,0.939-0.223,2.02-1,2.665c-0.267,2.06-0.573,4.023-0.764,5.996c-0.357,3.698-0.665,7.397-0.968,11.099
	c-0.363,4.473-0.709,8.947-1.042,13.421c-0.206,2.748-0.394,5.497-0.552,8.249c-0.205,3.581-0.375,7.166-0.562,10.75
	c-0.087,1.664-0.182,3.329-0.274,4.993c-0.161,2.877-0.333,5.756-0.482,8.633c-0.047,0.93-0.011,1.86-0.062,2.79
	c-0.17,3.199-0.373,6.398-0.542,9.6c-0.126,2.367-0.216,4.735-0.329,7.102c-0.088,1.89-0.209,3.776-0.271,5.667
	c-0.05,1.536-0.031,3.075-0.05,4.613c-0.033,2.853-0.113,5.704-0.099,8.554c0.023,4.712,0.089,9.423,0.173,14.135
	c0.052,2.82,0.172,5.638,0.266,8.458c0.098,2.85,0.198,5.7,0.303,8.55c0.02,0.562,0.072,1.123,0.109,1.648
	C126.966,167.695,127.751,167.695,128.696,167.695z"/>
<path class="stroke" fill="#58281d"  d="M113.173,34.381c0.787-0.773,1.189-1.73,1.062-2.874c-0.184-1.645-1.6-2.693-3.142-2.249
	c-0.241,0.536-0.498,1.109-0.76,1.689c-0.921-0.013-1.771,0.166-2.732-0.124c0.737-1.324,0.759-2.694,0.638-4.075
	c-0.073-0.83-0.141-1.765-0.784-2.302c-0.944-0.79-1.983-1.571-3.119-2.008c-1.443-0.552-2.987-0.446-4.284,0.592
	c-0.615,0.492-1.153,1.085-1.816,1.72c-0.209,0.04-0.553,0.105-0.931,0.177c-0.53,0.908-0.881,1.841-0.515,2.946
	c0.164,0.192,0.348,0.411,0.535,0.628c-0.038,0.014-0.075,0.028-0.112,0.04c0.277,0.909,0.554,1.816,0.886,2.917
	c-0.129,0.261-0.354,0.705-0.585,1.162c-1.09-0.098-2.093-0.188-3.077-0.274c0.064-0.938,0.118-1.756,0.18-2.659
	c-0.442-0.099-0.775-0.238-1.102-0.229c-0.475,0.015-0.951,0.112-1.417,0.219c-1.45,0.326-2.038,0.936-2.236,2.383
	c-0.14,1.006-0.128,2.007,0.731,2.751c0.816,0.706,1.756,1.014,2.987,0.743c0.177-0.425,0.371-0.905,0.588-1.436
	c0.688-0.029,1.409-0.209,2.122,0.215c-1,1.782-1.982,3.533-2.967,5.285c-0.99,0-2.039,0-3.035,0
	c-0.574-0.912,0.203-1.763-0.098-2.698c-0.279-0.097-0.594-0.264-0.923-0.31c-1.336-0.182-2.482,0.288-3.403,1.215
	c-0.912,0.92-1.495,1.972-1.057,3.375c0.412,1.312,1.432,1.791,2.598,2.161c0.57,0.183,1.064,0.179,1.531-0.313
	c0.173-0.565,0.359-1.171,0.556-1.815c1.165,0.008,2.305-0.257,3.384,0.197c0.088,2.128-0.676,4.037-1.033,6.016
	c-0.403,2.234-0.945,4.442-1.41,6.666c-0.188,0.907-0.31,1.83-0.486,2.741c-0.504,2.576-1.045,5.146-1.523,7.725
	c-0.38,2.046-0.654,4.112-1.036,6.157c-0.652,3.492-1.351,6.977-2.036,10.464c-0.164,0.838-0.355,1.673-0.515,2.42
	c-0.151,0.081-0.179,0.105-0.209,0.112c-0.283,0.048-0.567,0.095-0.853,0.137c-2.629,0.388-5.002,1.349-6.953,3.195
	c-0.95,0.9-1.908,1.799-2.502,3.012c-1.262,2.584-1.963,5.359-2.575,8.132c-0.587,2.649-0.82,5.374-1.261,8.058
	c-0.278,1.684-0.836,3.276-1.89,4.657c-0.338,0.443-0.653,0.903-1.045,1.446c0.419,0.1,0.691,0.189,0.969,0.231
	c1.424,0.206,2.271,0.982,2.616,2.408c0.248,1.016,0.298,2.012,0.184,3.039c-0.24,2.2-0.457,4.404-1.288,6.479
	c-0.563,1.405-1.349,1.72-2.407,1.531c-0.779-0.14-1.584-0.136-2.482-0.204c-0.055,0.361-0.118,0.656-0.144,0.953
	c-0.065,0.792-0.107,1.586-0.177,2.377c-0.156,1.787-1.037,3.351-1.568,5.023c-0.232,0.729-0.48,1.459-0.791,2.159
	c-1.395,3.138-2.611,6.335-3.35,9.695c-0.136,0.624-0.228,1.258-0.341,1.886c-0.373,2.04-0.221,4.098-0.126,6.142
	c0.128,2.779,0.652,5.445,2.326,7.799c1.611,2.266,3.629,4.054,6.034,5.387c1.507,0.835,3.106,1.507,4.667,2.246
	c2.373,1.121,4.899,1.746,7.488,1.975c3.01,0.265,6.023,0.041,9-0.492c1.322-0.237,2.619-0.651,3.948-0.793
	c2.538-0.275,4.968-0.909,7.35-1.81c2.993-1.13,5.253-3.14,7.003-5.754c1.766-2.641,2.359-5.723,3.051-8.737
	c0.42-1.831,0.516-3.739,0.727-5.617c0.173-1.56,0.279-3.128,0.458-4.688c0.185-1.622,0.37-3.245,0.642-4.854
	c0.425-2.543,0.486-5.175,1.829-7.703c-0.359-0.204-0.63-0.432-0.938-0.515c-0.396-0.108-0.826-0.15-1.239-0.136
	c-1.368,0.053-2.737,0.146-4.155,0.226c-0.348-0.261-0.781-0.5-1.109-0.84c-1.048-1.083-2.161-2.155-2.352-3.754
	c-0.157-1.298-0.298-2.616-0.259-3.917c0.039-1.278,0.3-2.571,1.041-3.659c0.555-0.813,1.209-1.567,1.868-2.303
	c0.375-0.42,0.873-0.56,1.482-0.494c0.793,0.086,1.604,0.042,2.403,0.021c0.183-0.006,0.36-0.146,0.571-0.239
	c-0.728-1.027-1.322-1.986-1.562-3.153c-0.401-1.956-0.586-3.919-0.521-5.916c0.072-2.206,0.114-4.414,0.092-6.621
	c-0.021-1.854-0.004-3.719-0.674-5.505c-0.543-1.452-1.12-2.882-2.326-3.922c-2.05-1.767-4.279-3.266-6.799-4.289
	c-0.88-0.357-1.785-0.654-2.755-1.006c0.179-0.906,0.403-1.802,0.526-2.711c0.533-3.936,1.036-7.877,1.549-11.814
	c0.679-5.205,1.354-10.41,2.038-15.616c0.216-1.651,0.456-3.3,0.683-4.951c0.207-1.521,0.389-3.045,0.633-4.559
	c0.065-0.394,0.241-0.867,0.529-1.103c0.644-0.529,0.777-1.219,0.883-1.952c0.086-0.601,0.173-1.202,0.265-1.847
	c1.068-0.116,2.098-0.053,3.211-0.036c-0.14,1.019-0.261,1.896-0.378,2.752c0.092,0.062,0.143,0.127,0.194,0.127
	c1.718,0.002,3.319-0.405,4.608-1.579c0.996-0.907,1.032-2.518,0.255-3.612c-0.898-1.266-2.109-1.567-3.676-1.253
	c-0.203,0.444-0.438,0.956-0.688,1.508c-1.113,0.299-2.217-0.032-3.328-0.016c-0.007-1.489,1.741-3.659,3.067-5.163
	c1.018,0.056,2.062,0.111,3.148,0.17c-0.053,0.754-0.103,1.439-0.152,2.2C110.828,35.68,112.132,35.408,113.173,34.381z"/>
<path fill-rule="evenodd" clip-rule="evenodd" fill="#e3a13b" class="fill" d="M82.439,168.923c0.084-1.111,0.146-2.156,0.243-3.2
	c0.16-1.72,0.317-3.442,0.519-5.159c0.184-1.558,0.432-3.108,0.641-4.665c0.127-0.951,0.261-1.903,0.337-2.86
	c0.132-1.638,0.868-3.067,1.505-4.533c0.126-0.289,0.242-0.584,0.356-0.858c-0.412-0.79-1.271-0.415-1.909-0.907
	c0.496-3.13,0.308-6.411,1.024-9.673c0.855,0,1.648,0,2.407,0c0.897-1.025,1.285-2.212,1.699-3.367
	c-0.11-0.691-0.611-0.875-1.172-0.976c-0.752-0.137-1.508-0.262-2.239-0.391c-0.208-1.064,1.419-13.498,2.115-16.206
	c1.103,0.048,2.233,0.099,3.467,0.154c0.672-4.967,1.3-9.848,2.001-14.721c0.7-4.876,1.471-9.743,2.223-14.682
	c0.25,0.038,0.472,0.037,0.662,0.111c2.397,0.926,4.502,2.206,5.48,4.756c0.641,1.672,1.21,3.362,1.276,5.19
	c0.061,1.693,0.264,3.384,0.32,5.077c0.05,1.527-0.057,3.062-0.016,4.592c0.053,1.953,0.306,3.889,0.821,5.778
	c0.147,0.541,0.41,1.051,0.653,1.663c-0.908,0.268-1.742,0.1-2.616,0.2c-1.549,0.737-2.645,1.928-3.311,3.599
	c-1.169,2.929-1.541,5.938-1.053,9.035c0.238,1.515,0.918,2.896,2.027,3.956c0.83,0.792,1.878,1.343,3.074,1.429
	c0.987,0.071,1.979,0.092,2.969,0.128c0.308,0.012,0.618,0.003,1.03,0.003c-0.101,0.364-0.152,0.604-0.229,0.836
	c-0.783,2.318-1.162,4.722-1.531,7.13c-0.531,3.462-0.736,6.939-0.749,10.441c-0.009,2.571-0.327,5.132-1.166,7.572
	c-0.855,2.481-2.164,4.736-4.176,6.468c-1.748,1.504-3.808,2.535-6.056,3.018c-3.128,0.668-6.288,1.203-9.515,1.062
	C83.236,168.909,82.921,168.923,82.439,168.923z M91.872,125.12c0.31-0.159,0.595-0.003,0.743,0.309
	c0.258,0.541,0.594,1.1,0.648,1.676c0.145,1.524,0.192,3.063,0.214,4.598c0.021,1.57,0.011,3.144-0.069,4.71
	c-0.058,1.088-0.224,2.169,0.021,3.248c0.378,1.68,0.979,2.463,2.53,2.918c1.67,0.492,3.167,0.149,4.528-0.876
	c1.136-0.857,1.399-2.099,1.351-3.416c-0.028-0.761-0.652-1.21-1.092-1.71c-1.228-0.254-2.034,0.039-2.514,0.896
	c-0.536,0.959-0.396,1.538,0.656,2.691c-1.495,1.241-3.729,0.497-4.093-1.414c-0.17-0.903-0.222-1.85-0.191-2.771
	c0.089-2.944,0.253-5.885,0.153-8.837c-0.051-1.45-0.657-2.383-1.881-3.081c-1.367-0.78-2.835-0.488-3.451,0.901
	c-0.121,0.617-0.193,1.275,0.503,1.937c0.446-0.052,0.991-0.111,1.588-0.178C91.65,126.124,91.756,125.644,91.872,125.12z"/>
<path fill-rule="evenodd" clip-rule="evenodd" fill="#e3a13b" class="fill" d="M78.582,115.205c0.821,0.146,1.54,0.275,2.361,0.423
	c-0.085,0.63-0.139,1.192-0.238,1.745c-0.475,2.614-1.011,5.221-1.435,7.845c-0.3,1.863-0.478,3.745-0.669,5.624
	c-0.08,0.793-0.26,1.482-0.927,2.012c-0.447,0.355-0.808,0.819-1.214,1.228c-0.358,0.361-0.494,0.8-0.511,1.378
	c0.694,0.13,1.37,0.256,2.075,0.387c0.533,3.482,0.076,6.937,0.197,10.42c-0.481,0.104-0.908,0.196-1.402,0.304
	c-0.009,0.227-0.065,0.446-0.021,0.645c0.486,2.22,0.868,4.472,1.521,6.643c0.674,2.24,0.329,4.438,0.175,6.666
	c-0.159,2.269-0.295,4.538-0.45,6.807c-0.025,0.38-0.098,0.755-0.164,1.24c-2.391-0.189-4.604-0.93-6.859-1.472
	c0.002-0.075,0.002-0.151,0.007-0.228c0.401-0.037,0.802-0.076,1.201-0.113c2.035-0.19,3.176-1.451,3.566-3.341
	c0.301-1.457-0.753-3.355-2.217-4.018c-2.946-1.329-4.202-3.775-4.668-6.793c-0.261-1.675-0.413-3.383-1.077-4.963
	c-0.921-2.194-2.998-2.876-4.974-1.887c-0.573,0.289-0.998,0.875-1.482,1.334c-0.226,0.216-0.432,0.454-0.753,0.794
	c-0.019-0.314-0.05-0.481-0.039-0.646c0.139-1.938,0.66-3.779,1.397-5.562c1.017-2.455,2.083-4.889,3.082-7.351
	c0.468-1.157,0.894-2.341,1.196-3.548c0.239-0.949,0.26-1.953,0.38-2.933c0.019-0.153,0.056-0.303,0.096-0.523
	c0.322,0.082,0.591,0.147,0.86,0.216c1.9,0.49,3.426-0.409,4.002-2.266c0.743-2.395,1.25-4.829,1.477-7.323
	c0.146-1.594,0.078-3.148-0.989-4.472c-0.301-0.371-0.61-0.749-0.98-1.04c-0.341-0.27-0.771-0.43-1.19-0.652
	c0.337-0.473,0.654-0.911,0.963-1.354c0.867-1.256,1.078-2.729,1.32-4.178c0.179-1.071,0.174-2.174,0.358-3.245
	c0.417-2.458,0.799-4.929,1.378-7.349c0.475-1.99,1.203-3.925,2.349-5.652c1.331-2.003,3.211-3.276,5.503-3.935
	c0.783-0.225,1.605-0.313,2.533-0.486c-0.079,0.571-0.113,0.976-0.191,1.373c-0.623,3.199-1.227,6.406-1.893,9.598
	c-0.78,3.726-1.627,7.438-2.426,11.161c-0.456,2.127-0.887,4.263-1.297,6.401C78.445,114.468,78.557,114.852,78.582,115.205z
	 M77.961,126.209c0-0.26-0.022-0.517,0.006-0.77c0.063-0.561-0.197-0.916-0.676-1.149c-0.513-0.252-1.059-0.427-1.53,0.004
	c-0.608,0.556-1.298,1.099-1.7,1.793c-0.686,1.183-1.33,2.436-1.705,3.74c-0.536,1.87-0.891,3.803-1.173,5.729
	c-0.184,1.235-0.728,2.246-1.428,3.204c-0.235,0.319-0.611,0.581-0.977,0.749c-1.217,0.56-2.094,0.021-2.181-1.367
	c0.985,0.026,1.988-0.076,2.217-1.262c0.182-0.937-0.602-1.315-1.226-1.694c-0.833-0.139-1.48,0.142-1.841,0.817
	c-0.419,0.783-0.793,1.609-1.035,2.462c-0.292,1.022,0.321,2.297,1.292,2.734c2.341,1.052,4.018,0.626,5.109-1.351
	c0.565-1.021,0.973-2.164,1.253-3.3c0.471-1.894,0.782-3.824,1.164-5.742c0.324-1.628,1.094-3.039,2.061-4.351
	C76.739,127.045,77.135,127.008,77.961,126.209z"/>
<path fill-rule="evenodd" clip-rule="evenodd" fill="#e3a13b" class="fill" d="M95.183,44.801c0.247,0.128,0.353,0.184,0.481,0.249
	c-0.218,1.414-0.412,2.808-0.646,4.192c-0.384,2.272-0.775,4.541-1.197,6.806c-0.486,2.613-1.034,5.213-1.506,7.828
	c-0.302,1.668-0.501,3.354-0.771,5.029c-0.209,1.293-0.445,2.584-0.693,3.873c-0.979,5.057-2.009,10.104-2.937,15.171
	c-0.655,3.59-1.194,7.201-1.745,10.809c-0.433,2.842-0.779,5.694-1.213,8.534c-0.294,1.93-0.664,3.846-1.016,5.764
	c-0.075,0.401-0.227,0.789-0.367,1.271c-0.484-0.123-0.906-0.231-1.435-0.366c0.116-0.946,0.192-1.867,0.349-2.772
	c0.505-2.932,1.02-5.865,1.562-8.791c0.575-3.113,1.193-6.222,1.776-9.336c0.79-4.215,1.554-8.437,2.35-12.65
	c0.621-3.273,1.199-6.555,1.938-9.802c0.539-2.37,1.182-4.716,1.552-7.125c0.414-2.688,0.875-5.37,1.356-8.048
	c0.498-2.771,1.036-5.535,1.578-8.299C94.75,46.372,94.976,45.622,95.183,44.801z"/>
<path fill-rule="evenodd" clip-rule="evenodd" fill="#e3a13b" class="fill" d="M89.311,114.741c-0.414-0.028-0.752-0.05-1.189-0.078
	c0.066-0.828,0.103-1.583,0.195-2.33c0.133-1.045,0.32-2.084,0.465-3.129c0.393-2.818,0.766-5.642,1.172-8.459
	c0.3-2.085,0.626-4.167,0.965-6.248c0.354-2.177,0.726-4.35,1.114-6.52c0.538-2.99,1.131-5.971,1.642-8.965
	c0.34-2.019,0.574-4.055,0.872-6.08c0.614-4.169,0.884-8.383,1.831-12.506c0.467-2.02,0.709-4.089,1.066-6.134
	c0.408-2.359,0.836-4.713,1.25-7.071c0.061-0.348,0.062-0.705,0.139-1.047c0.079-0.356,0.216-0.698,0.326-1.048
	c0.062,0.01,0.125,0.018,0.187,0.027c0.015,0.197,0.067,0.4,0.037,0.59c-0.308,1.992-0.636,3.979-0.944,5.971
	c-0.573,3.695-1.185,7.386-1.693,11.09c-0.409,2.979-0.661,5.975-1.043,8.956c-0.289,2.25-0.679,4.488-1.014,6.734
	c-0.562,3.795-1.158,7.587-1.664,11.391c-0.512,3.869-0.885,7.757-1.403,11.624c-0.438,3.266-0.988,6.518-1.503,9.771
	c-0.146,0.915-0.342,1.821-0.529,2.73C89.545,114.225,89.433,114.424,89.311,114.741z"/>
<path fill-rule="evenodd" clip-rule="evenodd" fill="#e3a13b" class="fill" d="M85.45,114.451c-0.34,0-0.579,0-0.877,0
	c-0.011-0.183-0.045-0.337-0.022-0.483c0.459-2.743,0.947-5.484,1.384-8.232c0.244-1.546,0.381-3.108,0.613-4.659
	c0.349-2.337,0.73-4.67,1.114-7c0.468-2.847,0.908-5.696,1.436-8.531c0.707-3.804,1.515-7.59,2.217-11.395
	c0.989-5.353,1.91-10.716,2.885-16.07c0.384-2.108,0.861-4.2,1.245-6.311c0.232-1.287,0.356-2.596,0.558-3.892
	c0.138-0.88,0.313-1.754,0.506-2.624c0.033-0.159,0.229-0.282,0.347-0.423c0.076,0.033,0.151,0.068,0.227,0.101
	c-0.073,0.487-0.11,0.983-0.228,1.459c-0.779,3.146-1.281,6.336-1.691,9.547c-0.089,0.696-0.266,1.381-0.384,2.073
	c-0.351,2.081-0.7,4.162-1.036,6.245c-0.23,1.422-0.42,2.85-0.659,4.269c-0.646,3.821-1.313,7.636-1.956,11.456
	c-0.533,3.186-1.019,6.379-1.564,9.563c-0.275,1.605-0.673,3.191-0.943,4.797c-0.465,2.745-0.865,5.501-1.301,8.251
	c-0.364,2.307-0.745,4.611-1.105,6.919c-0.21,1.326-0.389,2.658-0.586,3.987C85.585,113.779,85.523,114.06,85.45,114.451z"/>
<path fill-rule="evenodd" clip-rule="evenodd" fill="#e3a13b" class="fill" d="M94.24,44.705c-0.035,0.395-0.045,0.704-0.099,1.006
	c-0.362,2.048-0.721,4.097-1.111,6.141c-0.221,1.16-0.531,2.303-0.745,3.465c-0.494,2.704-0.983,5.409-1.422,8.123
	c-0.32,1.992-0.757,3.952-1.231,5.916c-0.752,3.11-1.344,6.26-1.964,9.402c-0.747,3.801-1.464,7.609-2.172,11.419
	c-0.581,3.114-1.128,6.233-1.693,9.35c-0.504,2.772-1.025,5.541-1.514,8.315c-0.287,1.64-0.518,3.289-0.781,4.934
	c-0.05,0.309-0.128,0.613-0.209,0.993c-0.293-0.05-0.523-0.089-0.816-0.139c0.031-0.475,0.022-0.893,0.091-1.298
	c0.265-1.578,0.534-3.155,0.835-4.728c0.583-3.049,1.175-6.095,1.787-9.137c0.368-1.848,0.8-3.684,1.162-5.533
	c0.457-2.322,0.865-4.655,1.304-6.982c0.874-4.623,1.739-9.248,2.632-13.866c0.799-4.118,1.633-8.228,2.446-12.342
	c0.471-2.385,0.944-4.767,1.382-7.158c0.171-0.941,0.239-1.901,0.355-2.854c0.009-0.064-0.005-0.137,0.022-0.188
	c0.638-1.293,0.579-2.748,0.967-4.098C93.556,45.135,93.557,44.718,94.24,44.705z"/>
<path fill-rule="evenodd" clip-rule="evenodd" fill="#e3a13b" class="fill" d="M98.226,45.106c-0.136,0.838-0.27,1.674-0.407,2.511
	c-0.422,2.559-0.83,5.119-1.273,7.673c-0.235,1.354-0.553,2.693-0.8,4.045c-0.674,3.654-1.216,7.323-1.572,11.025
	c-0.227,2.324-0.601,4.638-1.005,6.94c-0.808,4.601-1.734,9.184-2.516,13.79c-0.623,3.691-1.095,7.407-1.643,11.112
	c-0.412,2.784-0.846,5.565-1.244,8.35c-0.187,1.296-0.312,2.601-0.473,3.96c-0.352,0-0.609,0-0.939,0
	c0.064-0.788,0.09-1.516,0.189-2.234c0.281-1.99,0.574-3.979,0.898-5.963c0.531-3.255,1.093-6.508,1.641-9.759
	c0.604-3.565,1.204-7.129,1.809-10.693c0.483-2.84,0.969-5.679,1.459-8.518c0.515-2.966,1.062-5.927,1.542-8.897
	c0.281-1.736,0.418-3.495,0.691-5.231c0.307-1.958,0.713-3.899,1.038-5.854c0.161-0.971,0.223-1.956,0.356-2.93
	c0.071-0.506,0.203-1.001,0.308-1.502c0.527-2.539,1.055-5.079,1.586-7.617c0.017-0.081,0.08-0.152,0.124-0.228
	C98.072,45.093,98.148,45.1,98.226,45.106z"/>
<path fill-rule="evenodd" clip-rule="evenodd" fill="#e3a13b" class="fill" d="M81.165,131.936c-0.638-0.039-1.171-0.069-1.851-0.11
	c0.336-5.465,1.408-10.738,2.497-16.126c0.509,0.062,0.964,0.12,1.508,0.189C82.24,121.201,81.877,126.526,81.165,131.936z"/>
<path fill-rule="evenodd" clip-rule="evenodd" fill="#e3a13b" class="fill" d="M70.867,164.346c-0.372,0.436-0.795,0.301-1.199,0.252
	c-0.915-0.106-1.671-0.588-2.447-1.037c-2.512-1.452-4.081-3.622-4.9-6.365c-0.652-2.188-0.633-4.412-0.242-6.641
	c0.112-0.632,0.137-0.629,0.686-1.014c0.097,0.196,0.247,0.374,0.266,0.562c0.058,0.605,0.117,1.215,0.08,1.816
	c-0.131,2.071,0.09,4.105,0.833,6.032c0.627,1.624,1.55,3.08,3.202,3.902c0.801,0.397,1.596,0.809,2.373,1.245
	C70.062,163.405,70.648,163.69,70.867,164.346z"/>
<path fill-rule="evenodd" clip-rule="evenodd" fill="#e3a13b" class="fill" d="M105.099,25.008c0.311-0.113,0.535-0.193,0.79-0.286
	c0.688,0.667,1.014,1.447,0.979,2.345c-0.074,1.942-0.752,3.682-1.968,5.196c-2.551,3.182-3.729,5.448-4.003,10.574
	c-0.357,0.523-0.92,0.685-1.611,0.771c0.029-1.541,0.127-3.025,0.624-4.448c0.68-1.943,1.648-3.729,2.876-5.395
	c0.812-1.1,1.455-2.323,2.175-3.49c0.085-0.136,0.153-0.294,0.272-0.389c0.783-0.635,0.899-1.518,0.885-2.428
	c-0.006-0.302-0.082-0.694-0.281-0.881C105.369,26.143,105.398,25.555,105.099,25.008z"/>
<path fill-rule="evenodd" clip-rule="evenodd" fill="#e3a13b" class="fill" d="M82.956,131.902c-0.334,0.04-0.561,0.065-0.913,0.11
	c0.426-5.464,1.009-10.791,2.081-16.097c0.169-0.011,0.323-0.035,0.476-0.027c0.154,0.007,0.306,0.044,0.554,0.084
	C84.418,121.299,83.691,126.576,82.956,131.902z"/>
<path fill-rule="evenodd" clip-rule="evenodd" fill="#e3a13b" class="fill" d="M85.976,115.984c0.444,0.026,0.715,0.042,1.116,0.066
	c-0.79,5.424-1.565,10.751-2.336,16.035c-0.08,0.055-0.108,0.09-0.134,0.087c-0.251-0.025-0.502-0.061-0.857-0.104
	C84.499,126.729,85.227,121.427,85.976,115.984z"/>
<path fill-rule="evenodd" clip-rule="evenodd" fill="#e3a13b" class="fill" d="M100.685,30.574c-1.417-0.038-1.986-0.609-1.958-1.923
	c0.042-2.12,1.405-4.193,3.188-4.809c0.301-0.105,0.643-0.094,1.144-0.157c-0.595,1.254-1.199,2.289-1.581,3.402
	C101.1,28.189,100.949,29.368,100.685,30.574z"/>
<path fill-rule="evenodd" clip-rule="evenodd" fill="#e3a13b" class="fill" d="M80.544,136.31c-0.152,3.553-0.302,6.953-0.45,10.444
	c-0.362-0.056-0.631-0.096-0.957-0.146c-0.449-3.509,0.304-6.971-0.217-10.551C79.541,136.155,79.994,136.225,80.544,136.31z"/>
<path fill-rule="evenodd" clip-rule="evenodd" fill="#e3a13b" class="fill" d="M83.248,146.876c-0.399-0.071-0.605-0.106-0.931-0.164
	c-0.097-3.276,0.136-6.506,0.595-9.82c0.375,0,0.763,0,1.258,0C83.863,140.218,83.563,143.474,83.248,146.876z"/>
<path fill-rule="evenodd" clip-rule="evenodd" fill="#e3a13b" class="fill" d="M81.369,146.695c-0.056,0.006-0.174,0.016-0.443,0.038
	c0.143-3.411,0.281-6.766,0.425-10.161c0.272-0.018,0.441-0.029,0.644-0.041C81.784,139.943,81.577,143.296,81.369,146.695z"/>
<path fill-rule="evenodd" clip-rule="evenodd" fill="#e3a13b" class="fill" d="M94.43,42.998c-0.164-0.968,0.132-1.883,0.415-2.782
	c0.848-2.697,2.462-4.938,4.35-7.029c-0.107,0.21-0.2,0.43-0.319,0.633c-0.95,1.624-1.98,3.205-2.825,4.881
	c-0.522,1.039-0.766,2.219-1.127,3.336c-0.107,0.325-0.188,0.656-0.278,0.986C94.572,43.014,94.5,43.006,94.43,42.998z"/>
<path fill-rule="evenodd" clip-rule="evenodd" fill="#e3a13b" class="fill" d="M95.6,43.479c-0.295-1.651,2.244-7.378,4.128-9.264
	c0.063,0.801-0.4,1.364-0.773,1.932c-1.347,2.054-2.271,4.275-2.804,6.666C96.037,43.326,96.046,43.328,95.6,43.479z"/>
<path fill-rule="evenodd" clip-rule="evenodd" fill="#e3a13b" class="fill" d="M87.061,135.546c-0.591,0-1.126,0-1.791,0
	c0.093-0.703,0.18-1.351,0.284-2.14c0.81,0.074,1.586,0.144,2.536,0.229C87.705,134.352,87.382,134.949,87.061,135.546z"/>
<path fill-rule="evenodd" clip-rule="evenodd" fill="#e3a13b" class="fill" d="M98.037,43.665c-0.402,0-0.74,0-1.131,0
	c0.138-1.967,0.898-3.655,1.79-5.304C98.48,40.107,98.262,41.853,98.037,43.665z"/>
<path fill-rule="evenodd" clip-rule="evenodd" fill="#e3a13b" class="fill" d="M81.045,132.961c-0.115,0.784-0.206,1.4-0.314,2.131
	c-0.611-0.084-1.125-0.154-1.745-0.238c0.043-0.623,0.08-1.148,0.113-1.623C79.694,132.674,80.284,132.933,81.045,132.961z"/>
<path fill-rule="evenodd" clip-rule="evenodd" fill="#e3a13b" class="fill" d="M84.666,133.187c-0.113,0.822-0.206,1.506-0.314,2.287
	c-0.395-0.026-0.727-0.049-1.209-0.082c0.121-0.77,0.233-1.468,0.349-2.205C83.889,133.187,84.189,133.187,84.666,133.187z"/>
<path fill-rule="evenodd" clip-rule="evenodd" fill="#e3a13b" class="fill" d="M81.887,133.046c0.299,0.028,0.5,0.049,0.808,0.078
	c-0.162,0.766-0.312,1.46-0.47,2.209c-0.25-0.067-0.416-0.109-0.639-0.169C81.685,134.471,81.777,133.82,81.887,133.046z"/>
<path fill-rule="evenodd" clip-rule="evenodd" fill="#e3a13b" class="fill" d="M101.968,31.911c-0.229,0.333-0.458,0.668-0.762,1.107
	C101.149,32.37,101.225,31.944,101.968,31.911z"/>
</svg>
