<svg version="1.1" id="svg" xmlns="http://www.w3.org/2000/svg" xmlns:xlink="http://www.w3.org/1999/xlink" x="0px" y="0px"
	 width="200px" height="200px" viewBox="0 0 200 200" enable-background="new 0 0 200 200" xml:space="preserve">
<path class="stroke" fill="#561906"  d="M197.587,133.605c-0.246-0.43-0.543-0.829-0.801-1.217c0.354-0.607,0.697-1.196,0.989-1.699
	c-0.105-0.285-0.142-0.415-0.196-0.535c-0.51-1.095-1.252-1.835-2.561-1.902c-0.788-0.04-1.567-0.25-2.341-0.382
	c-0.138-0.54-0.2-1.079-0.415-1.55c-0.221-0.491-0.587-0.917-0.873-1.345c0.615-0.311,1.267-0.576,1.849-0.951
	c1.64-1.053,1.567-2.862-0.126-3.841c-0.25-0.144-0.516-0.26-0.938-0.472c0.428-0.209,0.724-0.331,0.996-0.493
	c0.395-0.234,0.82-0.445,1.144-0.759c0.691-0.671,0.599-1.355-0.205-1.898c-0.233-0.159-0.484-0.292-0.784-0.471
	c0.162-0.209,0.239-0.354,0.356-0.454c0.845-0.717,0.876-1.237,0.226-2.096c-0.705-0.932-1.702-1.3-2.767-1.405
	c-1.216-0.12-2.45-0.07-3.678-0.063c-2.663,0.014-5.323,0.079-7.985,0.066c-3.038-0.015-6.037-0.335-8.947-1.294
	c-2.358-0.776-4.568-1.862-6.58-3.287c-2.496-1.769-4.938-3.62-7.327-5.531c-2.545-2.037-5.001-4.185-7.495-6.285
	c-0.152-0.128-0.289-0.279-0.449-0.396c-2.747-2.002-5.625-3.78-8.755-5.132c-2.045-0.883-4.07-1.812-6.117-2.69
	c-1.097-0.47-2.21-0.913-3.338-1.298c-0.72-0.246-1.491-0.338-2.228-0.545c-1.822-0.515-3.613-1.166-5.461-1.563
	c-2.855-0.615-5.67-1.43-8.578-1.798c-0.984-0.125-1.953-0.375-2.936-0.531c-0.655-0.104-1.326-0.116-1.984-0.21
	c-3.848-0.549-7.692-1.118-11.541-1.663c-2.534-0.358-5.075-0.673-7.609-1.033c-1.715-0.243-3.425-0.509-5.131-0.801
	c-3.344-0.572-6.68-1.183-10.023-1.752c-1.312-0.224-2.646-0.319-3.95-0.58c-2.036-0.408-3.903-1.24-5.731-2.245
	c-1.633-0.9-2.918-2.072-3.842-3.653c-1.326-2.269-2.576-4.582-3.929-6.834c-1.317-2.195-2.699-4.339-4.771-5.953
	c-1.67-1.301-3.494-2.298-5.405-3.17c-1.808-0.825-3.696-1.387-5.676-1.424c-3.455-0.064-6.741,0.65-9.716,2.501
	c-1.018,0.632-2.048,1.249-3.019,1.947c-2.09,1.505-4.02,3.214-5.504,5.323c-1.298,1.843-2.571,3.705-3.732,5.656
	c-1.513,2.539-2.672,5.22-3.709,7.938c-1.206,3.16-2.054,6.458-3.035,9.703c-0.996,3.289-1.053,6.687-1.123,10.081
	c-0.049,2.334,0.082,4.651,0.445,6.964c0.359,2.297,0.641,4.61,1.266,6.853c0.755,2.701,1.127,5.471,1.473,8.237
	c0.277,2.205,0.293,4.433,0.262,6.665c-0.034,2.351-1.625,5.399-4.631,6.01c-1.432,0.292-2.875,0.529-4.311,0.802
	c-0.555,0.105-1.129,0.177-1.646,0.382c-0.836,0.329-1.109,1.167-0.718,1.976c0.083,0.17,0.21,0.319,0.362,0.545
	c-0.912,0.91-1.594,1.884-0.756,3.248c0.324,0.109,0.694,0.328,1.074,0.347c1.662,0.083,3.332,0.227,4.985,0.126
	c2.555-0.156,5.11-0.416,7.646-0.781c1.631-0.236,3.291-0.338,4.877-0.936c1.902-0.717,3.654-1.58,4.877-3.292
	c0.744-1.042,1.299-2.166,1.713-3.369c0.113-0.328,0.275-0.641,0.422-0.973c0.2,0.086,0.299,0.108,0.375,0.165
	c1.273,0.961,2.527,1.949,3.822,2.883c0.75,0.543,1.314,1.174,1.637,2.064c0.295,0.809,0.656,1.612,1.112,2.339
	c0.58,0.921,1.144,1.947,1.974,2.596c1.299,1.014,2.772,1.831,4.248,2.585c3.361,1.719,7.029,2.647,10.564,3.914
	c3.32,1.19,6.766,1.967,10.244,2.579c1.84,0.324,3.687,0.528,5.562,0.446c1.241-0.055,2.167-0.564,2.726-1.696
	c0.117-0.237,0.256-0.463,0.416-0.75c-0.162-0.846-0.33-1.724-0.508-2.649c0.045-0.077,0.117-0.188,0.175-0.306
	c0.532-1.091,0.661-2.972-0.554-3.698c-1.176-0.703-1.381-1.987-1.885-3.27c0.461,0.087,0.777,0.155,1.097,0.207
	c0.918,0.149,1.833,0.361,2.757,0.425c2.734,0.188,5.457-0.075,8.174-0.345c1.287-0.128,2.556-0.433,3.841-0.601
	c0.886-0.115,1.788-0.215,2.677-0.175c1.295,0.059,2.581,0.273,3.876,0.377c2.056,0.166,4.112,0.366,6.172,0.419
	c2.161,0.056,4.325-0.078,6.487-0.067c2.676,0.013,5.328-0.286,7.936-0.79c2.803-0.542,5.617-0.595,8.443-0.681
	c2.394-0.073,4.813-0.022,7.17-0.373c2.817-0.419,5.58-1.206,8.367-1.836c0.486-0.11,0.967-0.294,1.457-0.332
	c1.424-0.111,2.852-0.229,4.277-0.228c2.626,0.003,5.252,0.077,7.877,0.148c1.691,0.046,3.355,0.507,5.074,0.292
	c1.02-0.127,2.063-0.051,3.089-0.16c1.786-0.19,3.577-0.385,5.341-0.713c0.945-0.176,1.861-0.175,2.77-0.014
	c2.426,0.429,4.835,0.938,7.256,1.384c1.079,0.199,2.166,0.406,3.257,0.463c1.515,0.078,2.967,0.327,4.36,0.939
	c0.483,0.212,1.008,0.341,1.521,0.474c1.258,0.323,2.543,0.552,3.773,0.953c2.734,0.891,5.5,1.295,8.367,0.889
	c0.885-0.125,1.795-0.135,2.586-0.647C197.912,135.098,198.085,134.475,197.587,133.605z"/>
<path fill-rule="evenodd" clip-rule="evenodd" fill="#bf7512" class="fill" d="M190.685,126.798c-0.266,1.099-1.355,0.948-2.05,1.382
	c0.025,0.625,0.489,0.694,0.906,0.741c1.157,0.129,2.321,0.207,3.479,0.332c0.626,0.069,1.247,0.185,1.868,0.299
	c0.463,0.085,0.794,0.333,0.881,0.963c-0.266,0.105-0.549,0.278-0.854,0.329c-1.08,0.181-2.166,0.348-3.255,0.468
	c-0.904,0.1-1.757,0.267-2.552,0.767c-0.363,0.228-0.887,0.363-1.307,0.307c-1.775-0.24-3.55-0.522-5.305-0.885
	c-0.669-0.137-1.312-0.48-1.916-0.82c-1.014-0.571-2.079-0.784-3.236-0.877c-1.816-0.146-3.619-0.484-5.43-0.727
	c-0.82-0.11-1.645-0.187-2.592-0.292c-0.301-0.476-0.771-0.924-1.646-0.835c-0.853,0.723-1.813,1.484-3.162,0.593
	c0.231-0.518,0.476-1.019,0.679-1.536c0.108-0.275,0.183-0.575,0.209-0.869c0.037-0.382-0.112-0.654-0.652-0.607
	c-0.733,1.537-2.103,2.521-3.542,3.6c-0.476-0.048-1.021-0.102-1.556-0.155c-0.173-0.778-0.076-1.408,0.15-2.053
	c0.497-1.415,0.425-2.88,0.255-4.34c-0.03-0.245-0.185-0.476-0.257-0.652c-0.604-0.193-0.833,0.088-1.004,0.502
	c-0.469,1.135-0.973,2.257-1.418,3.401c-0.492,1.264-1.342,2.192-2.533,2.924c-0.33-0.107-0.666-0.216-1.016-0.33
	c-0.332-0.906-0.293-1.799-0.322-2.693c-0.049-1.493-0.15-2.986-0.262-4.476c-0.023-0.312-0.189-0.614-0.298-0.948
	c-0.296,0.021-0.513,0.035-0.716,0.048c-0.439,2.756-1.194,5.349-2.254,7.654c-0.779,0.662-1.418,0.382-2.089,0.235
	c-0.356-0.7-0.254-1.431-0.175-2.148c0.225-2.038,0.131-4.056-0.287-6.061c-0.092-0.44-0.225-0.833-0.835-0.901
	c-0.054,0.191-0.128,0.364-0.149,0.542c-0.242,1.907-0.471,3.816-0.713,5.723c-0.062,0.494-0.174,0.983-0.246,1.476
	c-0.18,1.203-0.473,1.513-1.697,1.707c-0.391,0.062-0.789,0.07-1.283,0.11c-0.24-0.909-0.191-1.806-0.166-2.688
	c0.027-0.964,0.145-1.925,0.213-2.889c0.105-1.443-0.041-2.861-0.471-4.245c-0.129-0.417-0.285-0.835-0.916-0.769
	c-0.363,1.172-0.686,2.343-0.696,3.579c-0.023,2.501-1.337,4.129-3.732,4.684c-0.579,0.134-1.158,0.329-1.688,0.595
	c-1.438,0.724-2.971,1.027-4.546,0.929c-1.655-0.104-3.14,0.346-4.625,0.976c-0.915,0.388-1.862,0.733-2.825,0.961
	c-1.871,0.441-3.653-0.005-5.251-0.965c-1.33-0.799-2.647-1.324-4.234-1.15c-0.982,0.108-1.988,0.02-3.016,0.02
	c-0.099,0.114-0.235,0.223-0.305,0.364c-0.442,0.896-1.181,1.424-2.108,1.712c-1.205,0.374-2.414,0.737-3.625,0.908
	c-1.01-0.08-2.02-0.16-3.072-0.244c-0.271-0.656-0.582-1.407-0.867-2.095c-0.436-0.121-0.721-0.2-1.089-0.303
	c-0.263,0.216-0.563,0.417-0.804,0.673c-1.129,1.203-2.456,2.119-4.014,2.845c-0.562-0.197-1.146-0.401-1.832-0.642
	c0.113-1.091,0.22-2.107,0.322-3.123c0.078-0.756-0.061-0.91-0.979-1.048c-0.602,0.99-1.131,2.064-1.852,2.991
	c-0.705,0.905-1.604,1.659-2.396,2.458c-0.617,0.06-1.181,0.2-1.751-0.397c0.663-1.615,1.289-3.294,2.037-4.916
	c0.641-1.39,0.916-2.826,1.014-4.404c-0.272-0.086-0.502-0.159-0.767-0.243c-0.179,0.33-0.323,0.586-0.458,0.849
	c-0.736,1.444-1.325,2.992-2.243,4.311c-1.395,2.006-3.167,3.613-5.845,3.667c-0.063,0.001-0.127-0.031-0.309-0.08
	c0.378-0.847,0.711-1.699,1.128-2.507c1.495-2.893,2.942-5.816,4.565-8.637c0.814-1.414,1.269-2.921,1.771-4.432
	c0.08-0.241,0.09-0.506,0.144-0.83c-0.281-0.018-0.493-0.031-0.594-0.038c-0.942,1.717-1.781,3.375-2.745,4.958
	c-1.032,1.698-2.18,3.325-3.281,4.982c-0.146,0.222-0.333,0.42-0.456,0.654c-0.771,1.462-1.889,2.632-3.058,3.776
	c-0.871,0.852-1.861,1.504-2.951,2.007c-0.369,0.17-0.824,0.153-1.469,0.26c0.216-0.564,0.295-0.985,0.516-1.312
	c0.669-0.987,1.412-1.923,2.09-2.906c1.057-1.534,2.188-3.03,3.1-4.647c1.758-3.118,3.759-6.119,4.901-9.557
	c0.278-0.84,0.354-1.256,0.282-2.203c-0.133-0.078-0.293-0.173-0.52-0.306c-0.162,0.206-0.328,0.361-0.424,0.552
	c-0.938,1.87-1.765,3.802-2.816,5.604c-1.003,1.716-2.232,3.298-3.365,4.937c-1.429,2.065-3.394,3.634-5.097,5.444
	c-0.547,0.583-1.313,1.005-2.046,1.36c-1.069,0.516-2.127,1.13-3.371,1.145c-0.32,0.004-0.64-0.047-0.879-0.067
	c-0.33-0.506-0.08-0.797,0.137-1.095c0.663-0.913,1.307-1.842,1.996-2.735c1.201-1.552,2.44-3.075,3.648-4.622
	c2.092-2.671,3.976-5.474,5.496-8.518c1.055-2.11,2.187-4.183,3.286-6.271c0.649-1.23,0.925-2.555,1.008-3.929
	c0.005-0.081-0.083-0.167-0.2-0.389c-0.214,0.266-0.454,0.451-0.543,0.69c-1.001,2.694-2.49,5.14-3.961,7.581
	c-1.213,2.013-2.566,3.945-3.942,5.852c-0.675,0.938-1.567,1.718-2.317,2.605c-1.919,2.272-4.028,4.322-6.615,5.832
	c-0.2,0.116-0.415,0.213-0.629,0.299c-0.146,0.059-0.306,0.084-0.695,0.186c0.206-0.436,0.301-0.73,0.467-0.973
	c1.135-1.638,2.342-3.228,3.418-4.903c1.775-2.767,3.484-5.577,5.191-8.389c0.494-0.814,0.932-1.651,1.209-2.597
	c0.308-1.041,0.943-1.981,1.328-3.005c0.551-1.46,1.004-2.959,1.065-4.539c0.009-0.207-0.087-0.417-0.133-0.626
	c-0.074-0.018-0.147-0.036-0.222-0.054c-0.143,0.26-0.328,0.504-0.416,0.781c-0.273,0.853-0.494,1.723-0.768,2.575
	c-0.097,0.299-0.289,0.567-0.613,0.795c0.098-0.64,0.223-1.277,0.285-1.92c0.09-0.918,0.434-1.832,0.129-2.761
	c-0.137-0.419-0.338-0.816-0.527-1.262c-0.525,0.25-0.723,0.531-0.795,0.971c-0.375,2.333-0.854,4.652-1.626,6.881
	c-0.901,2.6-1.593,5.293-2.96,7.71c-1.65,2.918-3.209,5.896-5.414,8.47c-1.531,1.789-2.98,3.648-4.443,5.495
	c-0.363,0.46-0.637,0.994-0.934,1.465c0.477,0.771,1.131,0.945,1.855,0.992c0.996,0.065,1.996,0.094,2.983,0.229
	c0.577,0.079,1.13,0.333,1.721,0.516c0.085,0.471,0.154,0.849,0.238,1.312c-0.302,0.151-0.546,0.311-0.813,0.398
	c-0.442,0.145-0.915,0.203-1.344,0.373c-0.385,0.152-0.848,0.274-0.924,0.875c0.693,0.466,1.393,0.961,2.258,1.116
	c1.062,0.191,2.024,0.617,2.968,1.13c1.078,0.587,2.196,1.1,3.356,1.674c0.062,0.25,0.132,0.531,0.199,0.802
	c-0.586,0.556-1.287,0.408-1.977,0.486c-0.098,0.179-0.203,0.369-0.32,0.586c0.8,0.302,1.535,0.604,2.287,0.856
	c0.767,0.258,0.951,0.824,0.986,1.487c-0.785,0.698-1.686,0.226-2.502,0.466c-0.068,0.151-0.148,0.324-0.223,0.489
	c0.877,0.561,2.21,0.462,2.387,1.896c-0.82,0.411-1.66,0.361-2.459,0.215c-1.406-0.257-2.802-0.589-4.186-0.952
	c-1.835-0.481-3.648-1.036-5.479-1.536c-4.625-1.265-9.256-2.509-13.736-4.231c-0.898-0.345-1.776-0.775-2.596-1.276
	c-1.922-1.172-2.739-3.027-2.889-5.182c-0.088-1.26,0.122-2.514,0.463-3.741c0.276-0.991,0.49-1.998,0.781-2.984
	c0.465-1.582,1.243-3.003,2.299-4.274c0.489-0.588,0.915-1.23,1.432-1.792c0.479-0.526,1.041-0.98,1.707-1.595
	c0.215,1.429,0.395,2.627,0.555,3.688c0.47,0.402,0.796,0.683,1.139,0.976c0.859,0.109,1.51-0.259,1.859-1.016
	c0.359-0.78,0.623-1.61,0.875-2.434c0.205-0.665,0.332-1.353,0.491-2.013c1.332-0.79,2.901-0.394,4.289-0.969
	c0.024-0.215,0.046-0.402,0.062-0.553c-1.101-1.058-2.536-0.402-3.845-0.868c0.113-0.607,0.227-1.206,0.336-1.781
	c1.064-0.36,2.027-0.726,3.016-1.007c0.969-0.276,1.966-0.466,3.022-0.71c-0.37-0.82-0.952-1.005-1.598-0.993
	c-1.292,0.023-2.581,0.092-4.009,0.147c-0.008-1.419,0.229-2.816,0.408-4.285c1.105-1.033,2.174-2.154,3.631-2.815
	c0.504-0.229,0.947-0.615,1.377-0.976c0.142-0.119,0.158-0.388,0.271-0.701c-1.812-0.177-3.26,0.627-4.885,1.202
	c-0.145-1.353,0.316-2.558,0.385-3.792c0.069-1.261,0.253-2.516,0.367-3.775c0.115-1.26,0.184-2.523,0.314-3.781
	c0.133-1.255,0.32-2.504,0.5-3.869c0.193-0.139,0.45-0.323,0.703-0.505c0.422,0.544,0.797,1.026,1.198,1.542
	c0.234-0.172,0.36-0.266,0.54-0.396c-0.382-0.98-0.753-1.935-1.174-3.02c0.092-0.311,0.219-0.745,0.406-1.383
	c0.279,0.324,0.443,0.494,0.586,0.682c0.299,0.395,0.578,0.804,0.881,1.196c0.254,0.33,0.584,0.421,1.008,0.226
	c0.207-0.678,0.021-1.292-0.417-1.835c-0.356-0.44-0.724-0.875-1.128-1.268c-0.512-0.495-0.793-1.038-0.702-1.774
	c0.056-0.45,0.011-0.913,0.011-1.525c0.997,0.597,1.457,1.627,2.41,2.216c0.338-1.025-0.007-1.948-0.537-2.697
	c-0.543-0.77-1.342-1.358-2.029-2.024c-0.094-0.619-0.192-1.267-0.321-2.112c0.372-2.33,0.846-4.873-0.771-7.271
	c0.221-0.332,0.471-0.677,0.688-1.042c0.78-1.323,0.021-2.715-1.5-2.729c-0.494-0.004-0.986,0.085-1.562,0.14
	c-0.059-0.107-0.149-0.269-0.235-0.423c0.659-0.938,1.604,0.005,2.317-0.396c-0.208-0.859-0.578-1.351-1.385-1.275
	c-1.782,0.168-3.229-0.709-4.727-1.356c-2.594-1.119-5.19-0.962-7.826-0.338c-0.549,0.13-1.069,0.37-1.613,0.525
	c-0.475,0.135-0.734,0.413-0.773,0.918c0.351,0.39,0.803,0.446,1.189,0.232c1.194-0.661,2.484-0.686,3.782-0.635
	c1.329,0.053,2.666,0.102,3.981,0.286c1.422,0.199,2.632,0.941,3.612,1.967c0.337,0.354,0.517,0.929,0.607,1.432
	c0.21,1.169,0.749,2.124,1.638,2.88c0.663,0.564,1.1,1.263,1.273,2.096c0.198,0.942,0.326,1.901,0.457,2.855
	c0.025,0.175-0.078,0.367-0.15,0.672c-1.117-1.534-2.828-2.102-4.149-3.325c-0.468-2.162-2.286-3.657-4.617-3.74
	c-1.027-0.037-2.052-0.118-3.077-0.185c-1.719-0.112-3.102,0.583-4.287,1.762c-0.118,0.117-0.242,0.228-0.365,0.34
	c-0.023,0.021-0.061,0.029,0.017-0.006c-0.765,0.099-1.423,0.152-2.069,0.278c-0.607,0.119-1.2,0.315-1.955,0.52
	c0.417-1.639,1.926-2.486,2.354-3.938c-0.537-0.532-0.779-0.562-1.289-0.008c-0.764,0.831-1.473,1.712-2.205,2.572
	c-0.846,0.993-1.67,1.995-1.803,3.373c-0.015,0.15-0.156,0.287-0.257,0.465c-1.12,0.411-2.363,0.55-3.492,1.232
	c0.177,0.238,0.286,0.382,0.4,0.537c0.577-0.13,1.118-0.251,1.659-0.372c0.047,0.053,0.092,0.106,0.139,0.159
	c-0.336,0.578-0.671,1.155-0.984,1.697c-1.233,0.737-2.643,1.083-3.647,2.195c0.081,0.19,0.153,0.36,0.274,0.64
	c0.92-0.348,1.803-0.682,2.828-1.071c-0.102,0.986-0.188,1.831-0.26,2.522c-0.565,0.613-0.986,1.184-1.519,1.622
	c-1.026,0.845-1.521,1.998-2.005,3.167c-0.126,0.303-0.118,0.591,0.368,0.768c0.884-0.986,1.795-2.005,2.708-3.023
	c0.065,0.032,0.133,0.062,0.198,0.094c0,0.37,0,0.739,0,1.183c-0.631,0.917-1.307,1.899-2.009,2.918
	c0.171,0.211,0.302,0.374,0.549,0.681c0.54-0.648,1.023-1.229,1.543-1.853c0.668,0.654,0.551,1.414,0.832,1.981
	c-0.417,0.951-0.819,1.858-1.211,2.77c-0.187,0.436-0.214,0.832,0.361,1.049c0.484-0.773,0.952-1.522,1.396-2.23
	c0.574,0.053,1.032,0.095,1.541,0.142c0.02,0.258,0.071,0.519,0.055,0.777c-0.531,8.097-1.7,16.139-2.066,24.25
	c-0.006,0.116-0.113,0.228-0.227,0.443c-0.49-1.296-0.27-2.688-1.021-3.939c-0.608,0.642-0.685,1.325-0.615,1.953
	c0.325,2.868,0.021,5.807,0.954,8.606c0.028,0.085,0.004,0.188,0.004,0.308c-1.145-0.88-2.875-4.879-3.291-7.233
	c-0.469-2.648-0.402-5.293-0.098-7.957c-0.268-0.109-0.438-0.177-0.746-0.303c-0.186,0.506-0.409,0.945-0.507,1.411
	c-0.356,1.7-0.434,3.43-0.383,5.159c0.035,1.157,0.175,2.312,0.267,3.468c0.029,0.353,0.053,0.707-0.008,1.09
	c-0.701-0.7-1.426-1.332-1.704-2.332c-0.267-0.958-0.664-1.88-0.956-2.833c-0.756-2.463-0.821-5.043-1.252-7.561
	c-0.365-2.139-0.461-4.292-0.597-6.447c-0.026-0.42-0.116-0.791-0.623-0.96c-0.876,0.829-0.731,1.994-1.032,3.278
	c-0.149-0.517-0.298-0.811-0.309-1.11c-0.066-1.826-0.145-3.654-0.129-5.48c0.01-1.631,0.17-3.26,0.202-4.891
	c0.035-1.785,0.392-3.492,0.985-5.169c0.963-2.731,1.83-5.499,2.844-8.21c0.992-2.65,2.223-5.196,3.578-7.688
	c1.502-2.759,3.516-5.1,5.758-7.242c1.741-1.664,3.777-2.941,6.062-3.771c0.562-0.205,1.135-0.387,1.693-0.604
	c2.253-0.873,4.551-0.942,6.871-0.349c1.578,0.403,3.158,0.818,4.704,1.331c0.774,0.257,1.53,0.663,2.195,1.139
	c2.161,1.545,3.895,3.477,5.343,5.728c0.988,1.533,1.652,3.169,2.301,4.837c1.32,3.398,3.529,5.975,6.854,7.569
	c1.588,0.761,3.158,1.537,4.818,2.151c1.742,0.646,3.085,1.913,4.317,3.295c1.976,2.219,3.118,4.852,3.922,7.665
	c0.116,0.406,0.242,0.809,0.372,1.238c0.621-0.111,0.68-0.509,0.59-0.914c-0.247-1.1-0.404-2.246-0.839-3.271
	c-0.644-1.524-1.429-3.002-2.286-4.419c-0.474-0.782-1.217-1.401-1.836-2.095c-0.209-0.234-0.412-0.474-0.686-0.791
	c0.951-0.22,1.601,0.112,2.155,0.595c1.472,1.28,2.634,2.805,3.478,4.569c0.186,0.388,0.418,0.755,0.661,1.19
	c0.204-0.041,0.404-0.081,0.634-0.125c-0.28-2.422-2.008-3.899-3.303-5.629c0.691-0.25,2.025,0.022,2.637,0.561
	c1.635,1.441,2.89,3.123,3.316,5.32c0.076,0.386,0.104,0.81,0.748,0.932c0.141-1.019-0.186-1.934-0.496-2.837
	c-0.32-0.937-0.707-1.852-1.084-2.825c0.17-0.019,0.303-0.062,0.421-0.04c1.665,0.31,3.321,0.679,4.993,0.936
	c3.288,0.506,6.581,0.997,9.883,1.405c2.674,0.332,5.363,0.529,8.045,0.798c0.598,0.06,1.205,0.109,1.777,0.272
	c2.674,0.764,5.448,0.889,8.17,1.351c1.994,0.339,3.987,0.755,5.938,1.291c3.143,0.863,6.264,1.812,9.369,2.804
	c2.532,0.809,5.014,1.779,7.546,2.592c1.315,0.422,1.929,1.423,2.55,2.505c1.034,1.8,1.461,3.765,1.721,5.791
	c0.059,0.457,0.197,0.904,0.307,1.386c0.693-0.021,0.629-0.468,0.604-0.903c-0.124-2.159-0.457-4.283-1.126-6.52
	c0.318,0.162,0.532,0.221,0.681,0.353c1.093,0.969,1.905,2.107,2.263,3.56c0.277,1.127,0.648,2.233,0.995,3.343
	c0.077,0.246,0.22,0.471,0.325,0.687c0.47,0.006,0.561-0.259,0.52-0.591c-0.08-0.66-0.16-1.32-0.279-1.974
	c-0.146-0.811-0.33-1.616-0.502-2.44c1.49,0.366,2.082,1.295,2.215,2.307c0.168,1.279,0.258,2.574,0.711,3.778
	c0.502,0.148,0.658-0.097,0.68-0.492c0.041-0.764,0.07-1.527,0.106-2.291c0.007-0.155,0.017-0.31,0.034-0.614
	c0.439,0.316,0.777,0.559,1.061,0.762c0.854,1.769,0.594,3.835,1.797,5.405c0.742-0.232,0.85-0.368,0.734-1.024
	c-0.107-0.623-0.259-1.238-0.377-1.859c-0.035-0.185-0.021-0.378-0.038-0.681c0.987,0.4,1.554,1.16,2.136,1.833
	c1.238,1.434,2.289,3.038,3.582,4.416c1.325,1.413,2.457,2.965,3.643,4.479c0.653,0.835,1.229,1.74,1.773,2.652
	c1.197,2.004,2.502,3.929,4.053,5.677c1.107,1.249,2.261,2.453,3.838,3.131c0.426,0.183,0.848,0.41,1.295,0.501
	c2.051,0.419,4.064,0.987,6.201,0.958c1.451-0.02,2.914,0.219,4.363,0.408c1.878,0.245,3.75,0.537,5.619,0.847
	C189.731,126.404,190.325,126.282,190.685,126.798z M106.144,90.27c-0.08,0.026-0.161,0.052-0.243,0.078
	c0.025,0.209,0.017,0.43,0.084,0.624c0.34,0.972,0.771,1.918,1.036,2.909c0.403,1.505,0.91,3.031,0.976,4.565
	c0.07,1.636-0.202,3.315-0.537,4.933c-0.434,2.109-0.909,4.236-1.667,6.244c-1.109,2.942-2.507,5.774-3.725,8.677
	c-0.246,0.583-0.491,1.258-0.195,2.07c0.801-0.556,1.395-1.112,1.803-1.853c0.307-0.553,0.609-1.107,0.903-1.667
	c1.132-2.155,2.044-4.4,2.771-6.723c0.178-0.569,0.316-1.155,0.538-1.706c1.313-3.254,1.999-6.598,1.688-10.131
	c-0.229-2.619-0.95-5.006-2.764-6.985c-0.149-0.164-0.199-0.415-0.321-0.61C106.395,90.541,106.261,90.41,106.144,90.27z
	 M113.421,124.294c0.19-0.066,0.302-0.075,0.373-0.134c0.152-0.126,0.287-0.274,0.425-0.419c1.77-1.871,2.613-4.136,2.776-6.669
	c0.074-1.158,0.111-2.323,0.076-3.483c-0.082-2.729-0.271-5.448-1.39-8c-0.065-0.149-0.194-0.27-0.375-0.513
	c0,1.121-0.005,2.076,0.002,3.031c0.013,2.126-0.06,4.252,0.2,6.376c0.138,1.123-0.039,2.253-0.383,3.347
	c-0.33,1.045-0.611,2.105-0.951,3.146c-0.207,0.627-0.451,1.248-0.742,1.84C113.194,123.302,113.143,123.743,113.421,124.294z
	 M63.04,108.487c0.07,0.082,0.141,0.163,0.211,0.245c0.257-0.143,0.59-0.227,0.758-0.44c0.57-0.728,1.059-1.52,1.621-2.253
	c1.76-2.295,2.135-5.064,2.541-7.777c0.234-1.559,0.115-3.183,0.047-4.772c-0.046-1.042-0.519-1.981-1.141-2.824
	c-0.062-0.084-0.209-0.105-0.48-0.232c-0.031,0.637-0.11,1.152-0.073,1.659c0.17,2.327,0.104,4.654-0.212,6.954
	c-0.178,1.298-0.634,2.569-1.053,3.823c-0.459,1.38-1.012,2.729-1.541,4.085C63.515,107.473,63.268,107.976,63.04,108.487z
	 M34.679,61.777c0.213-0.882-0.174-1.906-0.912-2.344c-1.432-0.849-3.615-0.499-4.676,0.436c-1.164,1.027-1.655,3.776-1.059,5.116
	c0.388,0.869,1.064,1.364,1.924,1.599c0.441,0.12,0.973,0.245,1.408-0.211c-0.35-0.841-1.3-1.242-1.589-2.281
	c0.854,0.124,1.598,0.232,2.413,0.35c0.35-0.195,0.752-0.419,1.115-0.621c0.44-0.91,0.432-1.488-0.156-1.929
	c-0.85-0.637-1.732-1.311-2.913-0.764c-0.025,0.012-0.093-0.067-0.14-0.104c0.734-1.435,2.1-1.649,3.414-0.531
	C33.918,60.894,33.634,61.941,34.679,61.777z M129.197,126.487c1.06-2.46,2.04-4.882,2.411-7.467c0.36-2.509,0.496-5.06-0.371-7.595
	c-0.675,0.342-0.684,0.897-0.769,1.408c-0.326,1.996-0.584,4.005-0.991,5.983c-0.408,1.981-0.965,3.931-1.453,5.895
	c-0.117,0.476-0.331,0.96,0.098,1.466C128.357,126.245,128.638,126.326,129.197,126.487z M96.226,109.719
	c-0.73,0.09-0.835,0.586-0.97,1.007c-0.396,1.235-0.777,2.476-1.128,3.725c-0.493,1.759-0.88,3.552-1.445,5.287
	c-0.557,1.704-1.293,3.349-1.924,5.029c-0.126,0.338-0.389,0.725,0.057,1.176c0.246-0.181,0.516-0.313,0.695-0.523
	c0.452-0.53,0.883-1.08,1.285-1.649c0.936-1.328,1.293-2.902,1.85-4.394c0.965-2.576,1.42-5.243,1.574-7.973
	C96.251,110.875,96.226,110.343,96.226,109.719z M104.319,129.273c0.701-0.44,0.924-1.11,1.181-1.755
	c0.804-2.009,1.583-4.026,2.413-6.022c0.769-1.843,1.617-3.656,1.998-5.634c0.113-0.597,0.273-1.205-0.084-1.974
	c-0.301,0.381-0.573,0.625-0.72,0.929c-0.372,0.779-0.657,1.601-1.031,2.379c-0.72,1.497-1.493,2.969-2.214,4.466
	c-0.375,0.779-0.704,1.582-1.012,2.39c-0.451,1.18-0.887,2.367-1.276,3.568c-0.126,0.388-0.089,0.828-0.131,1.274
	C103.81,129.053,104.07,129.167,104.319,129.273z M113.171,114.023c-0.715,0.317-0.756,0.887-0.89,1.368
	c-0.501,1.793-1.095,3.551-1.979,5.195c-1.016,1.886-1.49,3.971-2.224,5.961c-0.098,0.266-0.097,0.568-0.149,0.907
	c0.354,0.161,0.641,0.291,0.988,0.448c0.42-0.593,0.852-1.102,1.17-1.673c0.66-1.188,1.465-2.349,1.845-3.628
	c0.757-2.55,1.064-5.205,1.288-7.859C113.237,114.552,113.196,114.356,113.171,114.023z M89.364,120.041
	c0.4-0.235,0.696-0.41,0.963-0.566c0.266-0.904,0.557-1.72,0.742-2.559c0.295-1.327,0.512-2.669,0.774-4.003
	c0.508-2.58,0.553-5.145-0.219-7.687c-0.054-0.178-0.144-0.345-0.258-0.616c-0.185,0.222-0.347,0.344-0.409,0.506
	C90.665,105.864,89.22,119.115,89.364,120.041z M133.333,124.476c0.826-0.14,1.058-0.605,1.232-1.062
	c0.959-2.523,1.793-5.088,1.559-7.835c-0.125-1.479-0.172-2.982-0.729-4.399c-0.178-0.457-0.25-0.955-0.391-1.429
	c-0.253-0.857-0.504-1.716-0.797-2.56c-0.07-0.204-0.3-0.352-0.514-0.59c-0.08,0.241-0.145,0.335-0.135,0.419
	c0.274,1.938,0.512,3.883,0.848,5.81c0.266,1.522,0.389,3.045,0.14,4.561c-0.317,1.93-0.762,3.839-1.13,5.761
	C133.343,123.55,133.362,123.967,133.333,124.476z M121.036,112.572c-0.729,0.49-0.895,1.07-1.056,1.622
	c-0.252,0.86-0.389,1.755-0.667,2.605c-1.057,3.227-2.176,6.428-4.434,9.171c0.417,0.332,0.792,0.629,1.111,0.883
	c0.793-0.258,1.278-0.724,1.574-1.333c0.58-1.191,1.186-2.381,1.625-3.625c0.799-2.255,1.614-4.519,1.871-6.919
	C121.14,114.243,121.052,113.495,121.036,112.572z M19.515,78.818c-0.5,0.01-0.758,0.246-0.859,0.632
	c-0.166,0.641-0.412,1.285-0.431,1.933c-0.069,2.276,0.338,4.519,0.903,6.699c0.563,2.184,1.617,4.203,2.739,6.167
	c0.28,0.491,0.656,0.69,1.344,0.488c-0.541-1.811-1.528-3.364-2.099-5.079c-0.576-1.736-1.154-3.47-1.232-5.331
	C19.804,82.509,19.642,80.693,19.515,78.818z M128.198,112.117c-0.123,0.201-0.301,0.387-0.36,0.605
	c-0.487,1.761-0.917,3.538-1.431,5.291c-0.598,2.039-1.264,4.058-1.896,6.087c-0.287,0.92-0.57,1.841-0.835,2.768
	c-0.05,0.174-0.007,0.375-0.007,0.648c0.37-0.032,0.649-0.057,0.883-0.077C126.762,123.479,128.995,116.395,128.198,112.117z
	 M149.808,109.902c-0.094-0.005-0.185-0.01-0.277-0.016c-0.039,0.374-0.113,0.749-0.107,1.122c0.014,0.663,0.125,1.326,0.107,1.987
	c-0.082,2.992-0.189,5.983-0.297,8.975c-0.02,0.549,0.062,1.053,0.469,1.516c0.191-0.023,0.378-0.045,0.592-0.071
	c0.061-0.249,0.13-0.469,0.166-0.695c0.285-1.808,0.505-3.629,0.858-5.424C151.85,114.598,151.207,112.179,149.808,109.902z
	 M129.587,102.008c0.17-0.297,0.237-0.359,0.23-0.41c-0.182-1.278-0.287-2.575-0.576-3.829c-0.523-2.265-1.119-4.528-2.409-6.501
	c-0.706-1.078-1.561-2.06-2.381-3.058c-0.218-0.265-0.546-0.512-0.952-0.115c0.033,0.125,0.047,0.258,0.104,0.367
	c0.141,0.263,0.312,0.509,0.452,0.772c1.051,1.988,2.14,3.959,3.125,5.98c0.403,0.825,0.578,1.762,0.855,2.647
	c0.348,1.106,0.682,2.216,1.05,3.315C129.167,101.425,129.358,101.638,129.587,102.008z M98.164,84.386
	c-0.032,0.85-0.032,0.848,0.315,1.338c1.143,1.613,2.051,3.361,2.572,5.257c0.58,2.111,0.98,4.273,1.457,6.414
	c0.076,0.341,0.143,0.685,0.211,1.024c0.582,0.012,0.664-0.272,0.631-0.647c-0.146-1.655-0.156-3.339-0.482-4.959
	c-0.367-1.816-1.011-3.577-1.566-5.352c-0.082-0.264-0.326-0.49-0.526-0.705c-0.61-0.655-1.226-1.309-1.863-1.937
	C98.73,84.641,98.46,84.553,98.164,84.386z M69.611,84.221c0,0.436-0.089,0.77,0.015,1.024c0.646,1.553,0.973,3.166,1.134,4.835
	c0.177,1.817,0.459,3.623,0.698,5.433c0.053,0.395,0.135,0.779,0.604,0.996c0.453-0.439,0.724-0.93,0.74-1.548
	c0.031-1.031,0.096-2.062,0.074-3.092c-0.012-0.593-0.088-1.204-0.261-1.769c-0.356-1.164-0.754-2.319-1.215-3.446
	C71.041,85.771,70.602,84.907,69.611,84.221z M128.849,89.5c0.095,0.591,0.118,1.008,0.235,1.396
	c0.132,0.443,0.355,0.858,0.526,1.291c0.774,1.942,1.607,3.861,2.039,5.925c0.245,1.17,0.568,2.324,0.871,3.481
	c0.07,0.272,0.137,0.61,0.709,0.477c-0.09-1.43,0.045-2.882-0.322-4.306c-0.599-2.325-1.434-4.567-2.533-6.701
	C130.08,90.496,129.812,89.85,128.849,89.5z M93.118,82.485c0.603,0.581,1.209,1.023,1.632,1.601
	c1.237,1.686,2.378,3.435,3.119,5.414c0.382,1.022,0.817,2.023,1.25,3.085c0.282,0.041,0.545,0.079,0.94,0.135
	c-0.274-1.051-0.53-1.942-0.735-2.844c-0.722-3.17-2.603-5.547-5.114-7.489c-0.236-0.184-0.575-0.234-0.883-0.352
	C93.225,82.255,93.169,82.373,93.118,82.485z M144.635,122.322c0.099-0.375,0.224-0.634,0.228-0.895
	c0.041-2.561,0.075-5.121,0.076-7.682c0.002-0.458-0.094-0.938-0.252-1.369c-0.242-0.665-0.427-1.373-0.903-1.925
	c-0.497,0.212-0.331,0.576-0.321,0.887c0.056,1.595,0.113,3.188,0.174,4.783c0.061,1.595,0.115,3.189,0.186,4.783
	C143.845,121.403,143.907,121.901,144.635,122.322z M53.421,130.579c-0.157-0.771-0.652-0.692-1.062-0.724
	c-1.95-0.155-3.754,0.429-5.473,1.242c-0.92,0.435-1.819,0.986-2.436,1.856c-0.218,0.309-0.527,0.616-0.206,1.15
	c1.556-0.581,2.972-1.447,4.49-2.058C50.239,131.44,51.838,131.063,53.421,130.579z M137.774,109.037
	c0.229,1.378,0.438,2.804,0.703,4.22c0.279,1.48,0.427,2.96,0.229,4.461c-0.188,1.427-0.367,2.854-0.557,4.335
	c0.635-0.341,0.831-0.946,1.009-1.538c0.695-2.321,0.947-4.711,0.631-7.1c-0.182-1.364-0.731-2.682-1.144-4.014
	C138.55,109.088,138.372,108.762,137.774,109.037z M66.705,82.861c0.128-0.84,0.136-1.114-0.354-1.793
	c-0.873-1.205-1.842-2.34-2.738-3.529c-0.557-0.736-1.05-1.518-1.574-2.278c-0.142-0.207-0.291-0.408-0.405-0.567
	c-0.505,0.036-0.626,0.29-0.554,0.626c0.133,0.613,0.224,1.251,0.471,1.819c0.494,1.138,1.338,2.039,2.215,2.9
	c0.497,0.487,0.967,1,1.469,1.483C65.689,81.963,66.172,82.379,66.705,82.861z M60.325,119.917
	c-0.479,0.319-0.904,0.518-1.219,0.829c-1.229,1.215-2.443,2.447-3.621,3.711c-0.678,0.727-1.301,1.507-1.898,2.301
	c-0.217,0.287-0.457,0.669-0.056,1.169c2.794-2.062,5.046-4.606,7.245-7.299C60.669,120.46,60.554,120.276,60.325,119.917z
	 M159.298,119.834c0.512-3.427,0.289-6.421-1.77-9.155c-0.179,0.08-0.425,0.189-0.732,0.325c0.377,1.391,0.785,2.679,1.066,3.995
	c0.289,1.355,0.456,2.736,0.709,4.298C158.647,119.354,158.886,119.53,159.298,119.834z M42.278,131.908
	c0.047,0.057,0.096,0.114,0.143,0.17c2.541-1.217,5.083-2.434,7.656-3.665c-0.348-0.62-0.863-0.735-1.457-0.598
	c-0.742,0.171-1.5,0.315-2.213,0.579C44.606,129.062,43.259,130.281,42.278,131.908z M155.755,114.046
	c-0.109-0.021-0.219-0.042-0.328-0.063c-0.109,0.317-0.306,0.633-0.314,0.954c-0.07,2.498-0.128,4.999,0.417,7.491
	c0.331,0,0.55,0,0.854,0C156.935,119.545,156.507,116.783,155.755,114.046z M25.865,64.81c-0.647-0.357-0.978,0.006-1.171,0.336
	c-0.385,0.65-0.795,1.332-0.959,2.054c-0.246,1.091-0.289,2.226-0.418,3.343c-0.116,0.996,0.259,1.876,0.646,2.837
	c0.263-0.037,0.501-0.07,0.772-0.108C24.72,70.375,24.205,67.485,25.865,64.81z M63.437,111.044c0.744,0.159,1.215-0.103,1.59-0.554
	c0.636-0.763,1.281-1.52,1.861-2.325c0.742-1.028,1.26-2.168,1.406-3.447c0.039-0.328,0.082-0.681-0.49-0.853
	c-0.195,0.327-0.455,0.662-0.612,1.04c-0.448,1.073-0.984,2.075-1.755,2.966c-0.625,0.723-1.158,1.529-1.697,2.321
	C63.587,110.415,63.548,110.715,63.437,111.044z M23.005,97.833c-2.27,0.609-4.068,5.528-2.73,7.649
	c0.905-2.31,1.793-4.564,2.674-6.821c0.072-0.183,0.131-0.376,0.16-0.569C23.122,98.012,23.041,97.918,23.005,97.833z
	 M64.704,77.186c1.146,1.013,2.313,1.863,3.246,2.918c0.946,1.07,1.661,2.345,2.609,3.719c0.105-0.438,0.27-0.723,0.207-0.945
	c-0.15-0.535-0.335-1.088-0.636-1.548c-0.543-0.832-1.167-1.61-1.78-2.395c-0.857-1.097-1.918-1.897-3.346-2.231
	C64.909,76.857,64.827,76.989,64.704,77.186z M163.153,125.352c1.443-1.293,2.01-6.126,0.828-7.412
	c-0.549,0.254-0.551,0.79-0.617,1.267c-0.131,0.921-0.218,1.848-0.325,2.772C162.913,123.062,162.923,124.139,163.153,125.352z
	 M22.126,80.558c0.102-0.062,0.201-0.123,0.302-0.184c-0.202-1.154-0.419-2.306-0.606-3.462c-0.191-1.183,0.157-2.412-0.201-3.615
	c-0.742,0.107-0.853,0.63-0.885,1.099c-0.072,1.018-0.035,2.043-0.084,3.063c-0.052,1.026,0.48,1.841,0.916,2.688
	C21.662,80.332,21.935,80.424,22.126,80.558z M160.771,113.475c-0.652,0.156-0.561,0.636-0.516,0.987
	c0.197,1.51,0.435,3.015,0.686,4.519c0.07,0.419,0.231,0.822,0.369,1.293c0.27,0.062,0.533,0.124,0.859,0.199
	C162.339,117.924,161.731,115.671,160.771,113.475z M24.853,106.804c0.717-0.126,0.782-0.556,0.795-1.053
	c0.039-1.39,0.1-2.78,0.144-4.17c0.013-0.418,0.001-0.837,0.001-1.505c-0.423,0.285-0.729,0.386-0.851,0.594
	c-0.229,0.392-0.485,0.843-0.496,1.275c-0.032,1.284,0.03,2.572,0.102,3.857C24.565,106.138,24.745,106.466,24.853,106.804z
	 M18.304,87.941c-0.47,0.005-0.609,0.323-0.689,0.757c-0.262,1.422,0.135,2.762,0.432,4.125c0.16,0.736,0.6,1.243,1.08,1.739
	c0.121,0.124,0.387,0.105,0.729,0.186C19.052,92.443,18.812,90.181,18.304,87.941z M136.738,99.423
	c0.392,1.409,0.683,2.625,1.075,3.808c0.393,1.186,0.405,2.479,1.037,3.629c0.207-0.296,0.34-0.586,0.36-0.884
	c0.132-1.938-0.454-3.728-1.199-5.474C137.823,100.057,137.513,99.652,136.738,99.423z M105.5,89.437
	c0.077-0.001,0.153-0.002,0.231-0.003c0.053-0.164,0.172-0.339,0.148-0.49c-0.306-1.821-1.165-3.365-2.432-4.688
	c-0.293-0.306-0.629-0.327-1.043,0.038C103.201,86.141,104.579,87.653,105.5,89.437z M64.791,112.964
	c-1.052,0.637-3.442,4.73-3.03,5.189c0.168-0.04,0.355-0.083,0.525-0.123C64.758,114.216,64.981,113.775,64.791,112.964z
	 M19.188,99.888c0.371-0.672,0.689-1.237,0.992-1.811c0.301-0.569,0.754-1.085,0.703-1.809
	C19.595,96.476,18.512,98.706,19.188,99.888z"/>
<path fill-rule="evenodd" clip-rule="evenodd" fill="#bf7512" class="fill" d="M36.844,83.323c0.999-0.557,1.927-1.073,2.854-1.589
	c0.012,0.031,0.021,0.063,0.031,0.094c0.679-0.244,1.348-0.518,2.039-0.72c0.465-0.136,0.959-0.241,1.438-0.233
	c0.491,0.008,1.01,0.099,1.465,0.278c0.598,0.235,1.146,0.593,1.729,0.906c-0.062,0.754-0.086,1.385-0.17,2.007
	c-0.246,1.816-0.318,3.637-0.3,5.47c0.012,1.161-0.106,2.329-0.239,3.485c-0.291,2.55-0.436,5.103-0.43,7.673
	c0.002,1.387-0.277,2.772-0.381,4.162c-0.056,0.759-0.01,1.526-0.01,2.226c-1.166,1.458-2.258,2.819-3.346,4.181
	c-0.084,0.104-0.18,0.202-0.24,0.318c-0.834,1.644-2.082,2.975-3.24,4.38c-0.607,0.737-1.021,1.632-1.547,2.439
	c-0.502,0.772-1.037,1.524-1.662,2.44c-0.582-1.326-0.594-2.569-0.494-3.81c0.098-1.208,0.276-2.409,0.425-3.652
	c-0.561-0.171-0.694,0.208-0.812,0.597c-0.486,1.602-0.715,3.246-0.775,4.916c-0.019,0.489-0.003,0.979-0.052,1.475
	c-0.539-1.456-0.732-2.958-0.786-4.513c-0.166-4.773,0.854-9.391,1.707-14.034c0.53-2.88,1.087-5.757,1.522-8.652
	c0.424-2.83,0.706-5.68,1.058-8.521C36.683,84.188,36.775,83.733,36.844,83.323z M44.134,102.069
	c-0.604-0.145-1.023,0.033-1.368,0.378c-1.372,1.37-2.587,2.866-3.503,4.583c-0.53,0.997-1.068,1.994-1.537,3.021
	c-0.812,1.782-1.588,3.582-2.348,5.388c-0.219,0.52-0.286,1.085-0.093,1.612c0.581,0.374,0.874-0.015,1.106-0.364
	c0.971-1.468,1.781-3.02,2.436-4.661c0.316-0.796,0.723-1.569,1.188-2.289c0.829-1.284,1.735-2.519,2.605-3.777
	c0.455-0.656,0.924-1.303,1.34-1.983c0.201-0.33,0.295-0.727,0.426-1.064C44.296,102.612,44.221,102.361,44.134,102.069z
	 M35.332,111.634c0.693-1.563,1.448-3.013,1.986-4.54c0.762-2.162,1.815-4.133,3.31-5.861c0.75-0.869,1.571-1.678,2.528-2.693
	c-0.22-0.211-0.47-0.45-0.778-0.745c-0.553,0.398-1.035,0.614-1.326,0.982c-0.979,1.245-1.956,2.5-2.809,3.833
	c-0.926,1.45-1.75,2.97-2.543,4.498c-0.613,1.181-1.061,2.438-1.186,3.781c-0.021,0.214,0.062,0.438,0.104,0.689
	C34.864,111.596,35.053,111.611,35.332,111.634z"/>
<path fill-rule="evenodd" clip-rule="evenodd" fill="#bf7512" class="fill" d="M43.436,78.694c-1.679,0.273-3.013,0.901-4.217,1.82
	c-0.079,0.06-0.173,0.105-0.265,0.136c-0.851,0.282-1.627,0.663-2.353,1.226c-0.726,0.563-1.606,0.923-2.401,1.406
	c-1.504,0.915-2.992,1.853-4.49,2.779c-0.104,0.063-0.217,0.108-0.449,0.026c0.43-0.461,0.861-0.922,1.367-1.464
	c-0.077-0.248-0.17-0.547-0.27-0.866c-1.053-0.138-1.38,0.753-2.024,1.259c-0.458-0.7-0.243-1.482-0.433-2.229
	c1.243-1.148,2.661-1.975,4.298-2.568c-0.108-0.367-0.187-0.634-0.28-0.952c-1.517-0.071-2.504,1.082-3.863,1.475
	c0-0.458,0-0.867,0-1.34c1.154-1.219,2.9-1.273,4.469-2.017c-0.242-0.354-0.434-0.632-0.656-0.956
	c-1.18,0.303-2.297,0.589-3.551,0.911c0.107-0.706,0.205-1.34,0.297-1.947c0.747-0.428,1.488-0.358,2.212-0.375
	c0.724-0.017,1.467,0.126,2.181-0.273c0.045-0.524-0.225-0.812-0.715-0.869c-0.49-0.055-0.99-0.046-1.486-0.055
	c-0.486-0.008-0.973-0.001-1.598-0.001c0.357-0.699,0.665-1.304,0.961-1.887c1.145-0.184,2.24-0.194,3.241-0.6
	c-0.049-0.818-0.741-0.471-1.104-0.772c0.988-0.881,2.177-1.143,3.396-1.277c1.068-0.119,2.114,0.004,3.15,0.342
	c0.623,0.204,1.299,0.248,1.949,0.373c0.454,0.087,0.918,0.159,1.357,0.296c0.783,0.244,1.542,0.254,2.354,0.085
	c0.936-0.195,1.904-0.273,2.861-0.311c0.37-0.015,0.764,0.189,1.125,0.348c1.519,0.666,2.846,1.595,3.76,3.004
	c0.332,0.513,0.527,1.114,0.718,1.75c-1.046-0.344-2.01-0.936-3.087-0.425c-0.126,0.612,0.249,0.763,0.633,0.919
	c0.491,0.198,0.961,0.466,1.467,0.604c1.43,0.391,1.604,1.515,1.665,2.72c0.009,0.164-0.022,0.331-0.053,0.493
	c-0.011,0.053-0.077,0.097-0.189,0.229c-0.612-0.428-1.241-0.866-1.944-1.357c-0.27,0.359-0.456,0.606-0.656,0.871
	c0.866,0.801,1.664,1.539,2.524,2.333c-0.032,0.369-0.068,0.778-0.119,1.374c-1.11-0.935-2.067-1.74-3.062-2.576
	c-0.207,0.074-0.408,0.146-0.66,0.235c0.658,1.925,2.428,3.003,3.33,4.744c-0.209,0.15-0.382,0.276-0.54,0.391
	c-0.778-0.295-1.263-0.815-1.609-1.489c-0.151-0.296-0.312-0.587-0.481-0.874c-0.317-0.54-0.666-1.035-1.388-0.75
	C47.113,81.065,45.362,79.702,43.436,78.694z M31.501,83.068c1.654-1.138,3.265-2.244,4.963-3.411
	c-0.021-0.189-0.051-0.467-0.082-0.749c-1.656,0.274-4.893,2.193-5.279,3.851C31.229,82.856,31.374,82.969,31.501,83.068z
	 M33.175,78.647c1.636-0.849,3.145-1.633,4.832-2.509c-0.512-0.366-0.891-0.636-1.18-0.843c-1.09,0.631-2.054,1.136-2.957,1.736
	c-0.42,0.28-0.721,0.742-1.109,1.157C32.958,78.405,33.08,78.542,33.175,78.647z M46.876,74.953
	c0.244,0.928,1.643,2.731,2.457,3.203c0.116,0.067,0.227,0.179,0.348,0.189c0.189,0.017,0.385-0.033,0.613-0.059
	c-0.712-1.742-1.678-2.9-2.952-3.576C47.199,74.784,47.031,74.872,46.876,74.953z M45.591,77.607c0.033,0.17,0.02,0.328,0.09,0.42
	c0.84,1.093,1.861,2.047,2.486,3.304c0.05,0.1,0.207,0.147,0.311,0.217c0.116-0.058,0.21-0.091,0.287-0.149
	c0.049-0.037,0.071-0.108,0.172-0.269c-0.619-1.432-1.36-2.838-2.711-3.887C45.981,77.383,45.792,77.491,45.591,77.607z
	 M30.897,72.613c0.113,0.206,0.201,0.366,0.24,0.436c0.789,0,1.48,0.01,2.171-0.004c0.463-0.01,0.852-0.139,0.852-0.827
	c-0.21-0.089-0.454-0.295-0.661-0.263C32.638,72.089,31.734,72.102,30.897,72.613z M39.16,74.417
	c0.081-0.458,0.462-0.946-0.34-1.168c-0.41,0.343-1.137,0.275-1.356,0.95C38.085,74.995,38.153,75.004,39.16,74.417z M37.861,80.602
	c0.501-0.303,0.92-0.555,1.421-0.859c-0.138-0.298-0.252-0.541-0.42-0.9c-0.564,0.339-1.027,0.616-1.59,0.954
	C37.525,80.141,37.685,80.36,37.861,80.602z M48.411,73.373c0.051-0.656-0.229-1.079-0.723-1.339
	c-0.318-0.169-0.637-0.108-0.803,0.271C47.243,73.224,47.502,73.414,48.411,73.373z M44.542,74.677
	c-0.209,0.469-0.057,0.793,0.316,1.031c0.345,0.22,0.699,0.532,1.174,0.065C45.739,75.115,45.341,74.675,44.542,74.677z
	 M39.68,71.106c-0.168-0.223-0.327-0.436-0.474-0.629c-1.059,0.461-1.1,0.527-0.879,1.363C38.927,71.949,39.272,71.575,39.68,71.106
	z M50.073,71.957c-0.248,0.087-0.451,0.158-0.785,0.275c0.196,0.399,0.354,0.724,0.559,1.139c0.387-0.141,0.684-0.249,1.158-0.421
	C50.61,72.529,50.351,72.252,50.073,71.957z M36.005,71.438c0.454-0.051,0.922,0.002,1.174-0.632
	c-0.174-0.176-0.361-0.365-0.535-0.541C36.065,70.52,35.682,70.77,36.005,71.438z M38.362,77.645
	c0.074,0.232,0.137,0.431,0.219,0.69c0.562-0.108,0.986-0.281,1.324-1.001c-0.106-0.11-0.252-0.261-0.397-0.412
	c-0.065,0.048-0.13,0.097-0.193,0.145C39.011,77.251,38.708,77.435,38.362,77.645z M36.718,71.875
	c-0.998,0.376-1.031,0.452-0.51,1.179c0.309-0.167,0.625-0.34,1.01-0.549C37.002,72.233,36.87,72.067,36.718,71.875z M43.464,77.482
	c0.452,0.966,0.459,0.969,1.268,0.669c-0.215-0.36-0.417-0.701-0.748-1.257C43.718,77.196,43.573,77.36,43.464,77.482z
	 M45.052,73.008c0.101,0.607,0.294,0.938,0.898,0.86C45.788,73.207,45.788,73.207,45.052,73.008z M45.707,71.372
	c0.705,0.451,0.705,0.451,1.099-0.167C46.37,70.838,46.021,70.888,45.707,71.372z"/>
<path fill-rule="evenodd" clip-rule="evenodd" fill="#bf7512" class="fill" d="M168.313,112.216c0.918-0.002,1.486,0.285,1.757,1.117
	c0.179,0.556,0.475,1.073,0.753,1.681c0.329-0.21,0.564-0.36,0.805-0.514c-0.047-0.402-0.088-0.755-0.14-1.212
	c0.505,0.087,0.95,0.165,1.413,0.244c0.9,0.788,1.219,2.062,2.275,2.766c0.729-0.803-0.162-1.437-0.182-2.288
	c0.691,0.062,1.326,0.121,1.91,0.175c0.423,0.583,0.782,1.08,1.129,1.559c0.658-0.325,0.634-0.829,0.572-1.387
	c0.746-0.034,1.439-0.066,2.136-0.097c0.499,0.541,0.972,1.053,1.519,1.646c0.226-0.109,0.467-0.227,0.748-0.362
	c-0.203-0.521-0.369-0.948-0.575-1.479c0.528-0.08,1.003-0.15,1.388-0.208c0.574,0.387,0.654,1.353,1.667,0.984
	c-0.175-0.353-0.31-0.626-0.487-0.986c0.99-0.126,1.93-0.272,2.875-0.359c1.094-0.101,2.191-0.156,3.289-0.221
	c0.787-0.046,1.032,0.092,1.484,0.84c-1.213,1.222-2.95,0.938-4.413,1.416c0.026,0.592,0.403,0.707,0.812,0.762
	c0.757,0.103,1.517,0.181,2.273,0.286c0.533,0.073,1.041,0.212,1.356,0.721c-0.046,0.736-0.639,0.673-1.094,0.77
	c-0.742,0.158-1.499,0.258-2.236,0.437c-0.561,0.137-1.049,0.422-1.311,1.051c0.15,0.881,1.146,0.751,1.508,1.208
	c1.133,0.129,2.152,0.245,3.178,0.362c0.131,0.314,0.227,0.549,0.373,0.906c-0.406,0.163-0.746,0.359-1.111,0.437
	c-2.182,0.462-4.366,0.906-6.553,1.332c-0.316,0.062-0.658,0.023-0.982-0.014c-2.014-0.229-4.029-0.459-6.039-0.717
	c-0.855-0.11-1.705-0.27-2.553-0.44c-2.069-0.418-4.018-1.111-5.768-2.352c-1.353-0.959-2.463-2.133-3.426-3.457
	c-1.621-2.229-3.223-4.472-4.809-6.725c-0.451-0.64-0.82-1.337-1.131-2.144c0.646,0.461,1.281,0.939,1.941,1.379
	c0.663,0.441,1.352,0.845,2.103,1.312c0.36,0.888,0.747,1.838,1.151,2.835c0.192-0.01,0.375-0.019,0.519-0.026
	c0.417-0.654-0.429-1.42,0.326-2.032c0.966,0.877,0.589,2.311,1.372,3.255c0.598-0.18,0.688-0.573,0.547-1.088
	C168.563,113.151,168.446,112.71,168.313,112.216z"/>
<path fill-rule="evenodd" clip-rule="evenodd" fill="#bf7512" class="fill" d="M47.828,83.593c1.481,0.519,1.882,1.753,2.44,2.886
	c0.668,1.354,0.829,2.729,0.673,4.236c-0.374,3.601-0.554,7.223-0.929,10.823c-0.51,4.893-1.17,9.768-2.162,14.59
	c-0.193,0.942-0.365,1.888-0.582,2.824c-0.072,0.306-0.251,0.587-0.576,0.878c-0.059-0.228-0.152-0.452-0.174-0.683
	c-0.423-4.415-0.457-8.838-0.242-13.263c0.166-3.423,0.373-6.843,0.564-10.265c0.126-2.226,0.234-4.452,0.385-6.675
	c0.106-1.56,0.268-3.115,0.418-4.672C47.665,84.052,47.759,83.838,47.828,83.593z"/>
<path fill-rule="evenodd" clip-rule="evenodd" fill="#bf7512" class="fill" d="M28.516,118.533c-0.193-0.831-0.124-1.688-0.054-2.524
	c0.281-3.317,0.623-6.628,0.908-9.944c0.244-2.819,0.416-5.645,0.666-8.463c0.303-3.415,0.654-6.825,0.987-10.237
	c0.017-0.163,0.061-0.323,0.105-0.552c1.224-0.725,2.267-1.771,3.71-2.449c0.035,0.325,0.096,0.541,0.072,0.746
	c-0.227,2.011-0.451,4.022-0.706,6.03c-0.224,1.746-0.445,3.495-0.737,5.23c-0.67,4-1.366,7.996-2.085,11.988
	c-0.337,1.861-0.714,3.716-1.146,5.558c-0.303,1.293-0.719,2.561-1.104,3.833c-0.089,0.293-0.265,0.56-0.4,0.838
	C28.66,118.569,28.588,118.551,28.516,118.533z"/>
<path fill-rule="evenodd" clip-rule="evenodd" fill="#bf7512" class="fill" d="M41.524,66.471c0.915-0.302,1.971-0.225,3.061,0.205
	c-0.39,0.426-0.797,0.872-1.107,1.21c0,0.595,0,1.005,0,1.396c-0.861,0.187-0.98,0.12-1.184-0.512
	C42.054,68.02,41.794,67.275,41.524,66.471z"/>
<path fill-rule="evenodd" clip-rule="evenodd" fill="#bf7512" class="fill" d="M47.073,68.803c-0.928,0.167-1.721,0.309-2.523,0.453
	c0.044-0.367,0.165-0.435,1.812-1.051c0-0.261,0-0.538,0-0.888c0.167,0.044,0.307,0.042,0.389,0.11
	C47.304,67.885,47.334,68.056,47.073,68.803z"/>
<path fill-rule="evenodd" clip-rule="evenodd" fill="#bf7512" class="fill" d="M38.434,68.06c0.245-0.352,0.413-0.589,0.602-0.858
	c0.585,0.338,1.14,0.659,1.694,0.979C39.935,68.417,39.226,68.438,38.434,68.06z"/>
<path fill-rule="evenodd" clip-rule="evenodd" fill="#bf7512" class="fill" d="M52.349,63.89c-0.092,0.439-0.158,0.758-0.252,1.209
	C51.839,64.414,51.839,64.414,52.349,63.89z"/>
<path fill-rule="evenodd" clip-rule="evenodd" fill="#bf7512" class="fill" d="M53.457,64.137c0,0.297,0,0.595,0,0.893
	c-0.063,0-0.128,0.001-0.191,0.001c0-0.295,0-0.59,0-0.886C53.329,64.143,53.394,64.14,53.457,64.137z"/>
<path fill-rule="evenodd" clip-rule="evenodd" fill="#bf7512" class="fill" d="M31.843,62.337c0.268,0.07,0.535,0.139,0.79,0.206
	c-0.132,0.907-0.132,0.907-1.095,0.89c0.111-0.376,0.222-0.751,0.332-1.126L31.843,62.337z"/>
<path fill-rule="evenodd" clip-rule="evenodd" fill="#bf7512" class="fill" d="M31.87,62.306c-0.314-0.021-0.629-0.043-0.943-0.066
	c-0.16,0.303-0.279,0.527-0.408,0.772c-0.165-0.079-0.308-0.147-0.443-0.213c0.391-1.073,1.084-1.235,1.768-0.463
	C31.843,62.337,31.87,62.306,31.87,62.306z"/>
</svg>
