<svg version="1.1" xmlns="http://www.w3.org/2000/svg" xmlns:xlink="http://www.w3.org/1999/xlink" x="0px" y="0px" width="200px"
	 height="200px" viewBox="0 0 200 200" enable-background="new 0 0 200 200" xml:space="preserve">
<g id="svg">
	<path class="stroke" fill="#693c11"  fill-rule="evenodd" clip-rule="evenodd" d="M147.179,172.645c-1.869,0-3.74,0.035-5.609-0.008
		c-2.613-0.062-5.229-0.132-7.838-0.296c-1.918-0.121-2.689-1.279-2.288-3.298c1.371-1.24,3.142-1.783,4.93-2.132
		c2.384-0.464,4.809-0.71,7.216-1.063c0.396-0.058,0.784-0.179,1.23-0.283c0.44-13.807,0.7-27.521,0.215-41.198
		c-0.829-0.39-1.488-0.7-2.297-1.081c-0.179-1.013-0.468-2.077-0.539-3.156c-0.213-3.209-0.465-6.423-0.468-9.635
		c-0.003-3.804,0.09-7.608,0.329-11.415c0.318-5.103,1.146-10.131,1.765-15.19c0.083-0.679,0.291-1.345,0.43-2.019
		c0.109-0.525,0.201-1.055,0.331-1.746c-3.229,0.039-5.977,1.585-9.509,1.828c-1.243-0.137-1.814-1.603-2.485-2.975
		c-2.491,3.039-2.491,3.039-5.545,3.638c-0.074,0.054-0.175,0.093-0.216,0.165c-1.452,2.571-3.927,2.585-6.378,2.438
		c-1.316-0.08-2.62-0.46-3.915-0.766c-1.429-0.337-2.828-0.258-4.227,0.116c-0.267,0.071-0.522,0.192-0.791,0.241
		c-2.336,0.427-4.072,1.777-5.55,3.548c-1.587,1.9-3.284,3.716-4.754,5.701c-1.222,1.651-2.228,3.469-3.251,5.258
		c-1.53,2.677-3.079,5.336-5.042,7.727c-0.114,0.14-0.195,0.309-0.318,0.508c0.122,1.174,0.354,2.289,1.234,3.239
		c0.615,0.665,0.998,1.54,1.558,2.263c1.318,1.701,2.727,3.333,4.014,5.057c1.587,2.125,3.132,4.285,4.617,6.483
		c2.564,3.799,3.962,8.145,5.641,12.353c1.105,2.769,2.162,5.558,3.136,8.375c0.569,1.643,0.978,3.345,1.377,5.04
		c0.357,1.517,0.667,3.051,0.883,4.594c0.494,3.5,1.048,6.999,1.337,10.518c0.341,4.155,0.475,8.331,0.594,12.5
		c0.033,1.126-0.232,2.283-0.501,3.392c-0.409,1.688-2.222,2.783-3.939,2.482c-0.398-0.071-0.792-0.171-1.151-0.249
		c-1.665,2.169-2.141,2.31-4.58,1.3c-1.101,1.583-2.596,2.34-4.574,1.458c-1.334,1.561-2.605,3.213-4.875,1.362
		c-0.548,0.405-1.08,0.756-1.564,1.164c-1.128,0.949-2.287,1.413-3.642,0.21c-1.884,1.853-3.866,2.896-6.206,0.643
		c-2.056,2.353-4.264,2.864-6.556,0.463c-3.021,2.915-3.709,3.039-6.45,1.19c-0.243,0.144-0.532,0.277-0.777,0.467
		c-2.24,1.741-2.974,1.814-5.33,0.501c-2.788,1.524-3.233,1.478-5.349-0.514c-1.021,0.33-1.995,0.717-3.004,0.949
		c-1.117,0.257-1.891-0.502-2.707-1.228c-1.953,1.214-3.873,1.473-5.688-0.413c-2.166,1.265-3.65,0.224-4.753-1.479
		c-1.299,0.297-2.438,0.677-3.603,0.793c-1.344,0.135-2.107-0.937-2.871-1.807c-2.866,0.862-3.95,1.518-5.525-1.169
		c-2.183,0.613-4.309,0.832-5.28-1.729c-1.264-0.033-2.478,0.203-3.463-0.169c-0.948-0.357-1.658-1.344-2.631-2.192
		c-1.035,0.243-2.325,0.726-3.646,0.223c-1.287-0.49-2.053-1.493-2.501-2.837c-1.264,0.292-2.429,0.905-3.743,0.289
		c-1.272-0.596-1.772-1.657-2.118-2.926c-0.829-0.137-1.637-0.271-2.681-0.444c-2.09-1.772-2.803-4.229-2.162-7.009
		c0.504-2.184,1.183-4.349,2.009-6.433c1.996-5.033,4.06-10.041,6.223-15.004c1.356-3.11,2.738-6.223,4.664-9.055
		c0.559-0.823,0.928-1.775,1.356-2.615c-1.209-2.006-2.407-3.911-3.521-5.862c-1.368-2.397-2.634-4.86-3.276-7.562
		c-0.336-1.413-0.401-2.89-0.615-4.538c2.542-2.486,5.062-4.952,7.649-7.484c-1.934-2.923-3.603-6.015-4.268-9.716
		c0.744-0.811,1.468-1.695,2.289-2.476c3.766-3.582,7.421-7.258,10.792-11.227c1.573-1.853,3.128-3.716,4.66-5.603
		c1.53-1.887,3.267-3.607,4.789-5.5c4.304-5.356,7.916-11.155,10.943-17.329c0.969-1.977,2.169-3.841,3.254-5.761
		c1.695-3,3.333-6.032,5.085-8.998c1.893-3.203,3.876-6.352,5.843-9.51c0.874-1.401,1.718-2.833,2.723-4.137
		c3.365-4.369,7.188-8.312,12.153-10.823c3.098-1.566,6.421-2.743,10.062-2.172c2.306,0.361,4.688,0.412,6.92,1.023
		c3.624,0.991,7.257,2.091,10.489,4.095c1.234,0.765,2.372,1.752,2.937,3.211c1.7,0.738,2.214,2.242,2.462,3.884
		c0.417,2.757,0.185,5.494-0.238,8.235c-0.181,1.173-0.155,2.377-0.213,3.567c-0.055,1.129,0.426,2.027,1.15,2.863
		c0.466,0.538,0.813,1.178,1.107,1.615c-0.284,1.623-1.315,2.066-2.461,2.41c-0.812,0.244-1.766,0.24-2.318,1.284
		c0.146,0.595,0.316,1.292,0.513,2.1c-0.473,0.339-0.943,0.675-1.462,1.047c0.076,0.374,0.155,0.77,0.26,1.288
		c-0.338,0.408-0.713,0.859-1.186,1.428c0.089,0.39,0.213,0.87,0.306,1.353c0.191,0.995-0.078,1.776-0.955,2.385
		c-1.627,1.127-3.468,1.107-5.304,1.064c-1.95-0.046-3.864,0.063-5.637,0.965c-0.646,0.328-1.24,0.756-1.886,1.156
		c0.075,0.409,0.143,0.712,0.184,1.02c0.399,2.969,0.229,5.932-0.034,8.903c-0.209,2.379-0.259,4.771-0.42,7.156
		c-0.134,1.97-0.333,3.936-0.495,5.904c-0.018,0.211,0.016,0.426,0.042,0.974c7.152-8.21,16.432-11.196,26.761-12.346
		c-0.234-0.519-0.492-1.093-0.806-1.794c-0.869,0.642-1.655,1.123-2.632,0.89c-1.202-0.901-1.572-1.989-1.096-3.343
		c1.096-3.114,3.243-5.143,6.361-6.214c2.699-0.927,5.458-1.176,8.292-1.049c2.425,0.108,4.849,0.147,7.264-0.316
		c3.151-0.604,6.326-1.091,9.489-1.634c0.213-0.036,0.418-0.122,0.722-0.213c-0.223-0.474-0.412-0.875-0.634-1.348
		c0.155-0.58,0.32-1.193,0.5-1.866c-0.262-0.386-0.555-0.795-0.825-1.218c-0.557-0.873-0.518-1.587,0.128-2.397
		c0.172-0.214,0.386-0.396,0.559-0.61c0.728-0.902,0.713-1.275-0.049-2.249c-0.811-0.241-1.667-0.349-2.372-0.732
		c-2.192-1.195-2.57-4.054-0.997-6.035c0.988-1.244,1.773-2.648,2.719-4.085c-0.521-1.032-0.897-2.022-1.477-2.875
		c-1.332-1.959-2.097-4.122-2.177-6.444c-0.119-3.436-0.031-6.878-0.031-10.588c-0.079-0.151-0.288-0.557-0.546-1.058
		c0.09-2.655,1.332-4.788,3.555-6.271c3.214-2.145,6.535-4.078,10.508-4.547c2.272-0.267,4.522-0.723,6.781-1.103
		c0.407-0.068,0.801-0.229,1.209-0.267c0.863-0.081,1.738-0.208,2.592-0.134c1.044,0.09,2.082,0.326,3.104,0.573
		c1.91,0.462,3.673,1.305,5.065,2.681c2.586,2.554,5.133,5.195,6.811,8.453c1.321,2.565,2.429,5.254,3.434,7.962
		c1.021,2.748,1.853,5.571,2.674,8.388c0.812,2.79,1.299,5.666,1.148,8.566c-0.208,4.009-1.274,7.803-3.697,11.086
		c-1.046,1.418-2.39,2.543-4.072,3.196c-0.38,0.148-0.755,0.31-1.218,0.5c0.152,0.327,0.297,0.598,0.407,0.883
		c0.659,1.708,1.307,3.421,1.963,5.13c1.297,3.383,2.633,6.754,3.882,10.155c0.791,2.151,1.576,4.317,2.15,6.532
		c1.149,4.44,2.225,8.903,3.184,13.388c0.41,1.918,0.447,3.917,0.661,5.876c0.179,1.642,0.442,3.278,0.538,4.925
		c0.125,2.151,0.179,4.311,0.159,6.465c-0.029,3.262-0.147,6.522-0.237,9.783c-0.014,0.492-0.08,0.983-0.131,1.583
		c-1.841,0.496-3.592,1.033-5.375,1.429c-1.736,0.386-3.505,0.628-5.3,0.941c-0.242,1.926-0.535,3.825-0.71,5.735
		c-0.381,4.159-0.738,8.321-1.031,12.486c-0.139,1.967-0.088,3.947-0.156,5.919c-0.039,1.101-0.16,2.2-0.218,3.301
		c-0.185,3.578-0.359,7.155-0.533,10.732c-0.123,2.521-0.219,5.042-0.368,7.56c-0.104,1.753-0.765,2.504-2.515,2.953
		c-2.854,0.732-5.762,1.048-8.696,1.276c-3.107,0.241-6.191,0.78-9.297,1.008c-3.203,0.235-6.421,0.272-9.634,0.344
		c-0.677,0.016-1.375-0.135-2.037-0.309c-1.142-0.303-1.978-0.956-2.141-2.324C144.121,173.666,145.83,173.572,147.179,172.645z
		 M127.439,72.951c-1.951-0.621-4.281,1.21-4.173,3.171c0.908-0.084,1.814-0.168,2.744-0.255c0.744,0.242,1.095,0.743,0.942,1.673
		c-0.396,0.348-0.849,0.746-1.351,1.188c0.663,0.427,1.089,0.19,1.397-0.248c0.232-0.33,0.455-0.729,0.5-1.118
		C127.666,75.91,127.748,74.449,127.439,72.951z M123.795,81.255c-0.208-0.716-0.39-1.348-0.585-2.023
		c-0.322,0.064-0.619,0.124-0.86,0.171c-0.169,0.43-0.257,0.793-0.447,1.089c-0.161,0.251-0.441,0.426-0.811,0.763
		C122.121,81.255,122.918,81.255,123.795,81.255z"/>
</g>
<g id="Layer_2">
	<path fill-rule="evenodd" clip-rule="evenodd" fill="#faf0e5" class="fill" d="M33.901,157.805c-4.984-0.778-9.137-2.457-11.216-7.357
		c1.953-2.441,3.845-4.868,5.804-7.239c1.667-2.02,3.457-3.941,5.113-5.97c1.8-2.207,3.541-4.466,5.253-6.742
		c1.765-2.348,3.51-4.713,5.18-7.127c1.751-2.531,3.373-5.153,5.105-7.697c3.807-5.59,7.198-11.435,10.525-17.313
		c1.557-2.751,2.863-5.65,4.183-8.527c2.183-4.759,4.386-9.513,6.385-14.349c1.472-3.562,2.668-7.238,3.915-10.888
		c0.698-2.042,1.339-4.113,1.843-6.209c0.686-2.854,1.21-5.747,1.817-8.62c0.445-2.111,0.945-4.212,1.363-6.329
		c0.64-3.238,1.404-6.466,1.769-9.738c0.182-1.629,0.618-3.364-0.056-5.16c-0.254-0.084-0.576-0.19-0.954-0.316
		c-0.152,0.332-0.318,0.562-0.364,0.813c-0.471,2.622-0.904,5.25-1.384,7.871c-0.72,3.928-1.453,7.854-2.212,11.775
		c-0.796,4.104-1.64,8.201-3.013,12.16c-1.579,4.553-3.096,9.135-4.877,13.61c-1.508,3.791-3.283,7.481-5.066,11.155
		c-2.364,4.871-4.808,9.703-7.304,14.507c-1.013,1.951-2.25,3.788-3.389,5.673c-1.803,2.983-3.551,6.001-5.435,8.933
		c-1.389,2.161-2.926,4.23-4.452,6.3c-2.86,3.883-5.73,7.76-8.653,11.596c-2.224,2.92-4.536,5.774-6.813,8.655
		c-0.05,0.063-0.158,0.08-0.384,0.188c-5.868-5.763-10.467-12.266-11.78-20.772c0.854-0.771,1.665-1.51,2.481-2.241
		c3.221-2.883,6.53-5.674,9.645-8.668c4.179-4.016,8.08-8.303,11.689-12.848c1.77-2.229,3.696-4.342,5.35-6.652
		c2.271-3.173,4.378-6.457,6.342-9.847c3.414-5.896,6.338-12.029,9.304-18.145c2.304-4.752,4.627-9.496,6.838-14.29
		c1.73-3.751,3.299-7.577,4.948-11.366c0.439-1.011,0.919-2.004,1.36-3.014c0.529-1.21,1.037-2.429,1.592-3.732
		c-0.352-0.323-0.627-0.574-0.93-0.851c-1.211,1.123-1.843,2.462-2.519,3.749c-2.07,3.945-4.163,7.881-6.106,11.889
		c-1.722,3.55-3.258,7.191-4.871,10.795c-1.387,3.103-2.687,6.247-4.169,9.303c-1.885,3.882-3.808,7.753-5.917,11.515
		c-1.771,3.159-3.68,6.267-5.809,9.193c-2.154,2.961-4.608,5.712-7.013,8.485c-2.497,2.881-5.062,5.706-7.656,8.502
		c-1.652,1.783-3.415,3.463-5.118,5.2c-0.739,0.753-1.441,1.544-2.182,2.296c-0.27,0.274-0.603,0.485-1.121,0.894
		c-1.124-2.892-2.161-5.559-3.223-8.29c1.475-1.363,2.847-2.641,4.229-3.908c3.972-3.641,7.573-7.625,10.94-11.828
		c1.695-2.117,3.538-4.126,5.11-6.33c3.416-4.788,6.895-9.549,9.982-14.548c2.942-4.764,5.485-9.78,8.083-14.749
		c3.438-6.575,7.328-12.85,11.889-18.708c2.88-3.699,6.293-6.812,10.16-9.44c1.807-1.228,5.334-2.434,7.346-2.493
		c0.038,0.378,0.133,0.771,0.108,1.156c-0.246,3.76-0.436,7.524-0.788,11.274c-0.62,6.583-1.25,13.168-2.052,19.731
		c-0.646,5.286-1.494,10.551-2.356,15.809c-0.916,5.578-2.217,11.067-4.086,16.418c-2.393,6.856-4.935,13.656-8.027,20.226
		c-1.462,3.11-3.29,6.047-4.93,9.075c-1.333,2.459-2.534,4.997-3.971,7.393c-2.172,3.622-4.457,7.179-6.771,10.713
		c-2.644,4.036-5.277,8.085-8.093,12.001c-2.466,3.428-5.172,6.683-7.786,10.004C35.803,155.516,34.857,156.637,33.901,157.805z"/>
	<path fill-rule="evenodd" clip-rule="evenodd" fill="#faf0e5" class="fill" d="M46.981,144.963c12.104-16.651,22.123-34.25,29.494-53.312
		c0.104,0.003,0.206,0.006,0.31,0.009c0.193,0.674,0.439,1.337,0.57,2.023c0.462,2.438,0.826,4.896,1.345,7.321
		c0.324,1.516,0.791,3.012,1.32,4.472c0.635,1.752,1.932,3.022,3.478,3.983c2.232,1.388,4.546,1.124,6.842,0.103
		c0.159-0.071,0.298-0.185,0.469-0.294c0.12,0.136,0.246,0.217,0.282,0.329c1.111,3.401,3.285,6.117,5.58,8.767
		c0.809,0.934,1.603,1.909,2.23,2.968c2.177,3.672,4.664,7.175,6.286,11.158c0.987,2.423,1.947,4.857,2.903,7.292
		c0.114,0.29,0.127,0.619,0.226,1.132c-1.071,0.562-2.102,1.291-3.247,1.669c-3.487,1.151-6.979,2.327-10.544,3.189
		c-3.294,0.797-6.677,1.249-10.033,1.769c-5.929,0.919-11.905,1.026-17.881,0.751c-2.284-0.104-4.545-0.654-6.831-0.841
		c-4.05-0.333-7.964-1.351-11.921-2.165C47.64,145.241,47.437,145.133,46.981,144.963z"/>
	<path fill-rule="evenodd" clip-rule="evenodd" fill="#faf0e5" class="fill" d="M167.663,39.781c0.881,0.102,1.471,0.169,2.155,0.248
		c0.555-0.458,1.144-0.944,1.834-1.516c0.883,1.008,1.273,2.075,1.045,3.323c-0.254,1.382-1.688,1.586-2.508,2.403
		c-0.587,1.283-0.514,2.577-0.209,3.91c0.712,3.112,1.968,6.016,3.322,8.882c0.325,0.686,0.799,1.301,1.301,2.104
		c-0.769,0.256-1.358,0.479-1.962,0.646c-1.99,0.552-3.97,1.147-5.983,1.603c-2.056,0.465-4.148,0.774-6.22,1.171
		c-0.938,0.18-1.863,0.42-2.799,0.607c-0.446,0.089-0.91,0.188-1.359,0.16c-1.831-0.115-3.661-0.242-5.485-0.432
		c-1.416-0.147-2.343-1.097-3.152-1.973c-0.197-1.408,0.991-1.535,1.589-2.09c-0.092-1.625-1.697-0.959-2.383-1.626
		c0.373-0.724,0.687-1.431,1.086-2.088c1.127-1.856-0.038-3.779-1.973-4.447c-0.642-0.222-1.341-0.28-2.035-0.417
		c-0.769-0.519-0.905-1.261-0.53-2.044c0.534-1.114,1.173-2.178,1.753-3.27c0.559-1.05,1.17-2.082,1.627-3.175
		c0.492-1.179,0.34-2.351-0.5-3.37c-0.408-0.495-0.827-0.983-1.276-1.441c-0.799-0.815-1.27-1.792-1.512-2.89
		c-0.813-3.687-0.59-7.4-0.286-11.115c0.015-0.181,0.063-0.362,0.12-0.536s0.144-0.337,0.303-0.704
		c2.453-0.625,5.011-1.34,7.598-1.918c2.328-0.521,4.7-0.843,7.033-1.337c2.419-0.513,4.837-0.474,7.26-0.153
		c2.5,0.33,4.086,2.202,3.758,4.404c-0.207,1.381-1.162,2.301-2.227,3.024c-1.275,0.866-1.731,2.087-1.911,3.496
		c-0.046,0.361-0.06,0.743,0,1.1c0.358,2.174,0.65,4.366,1.154,6.507C166.533,37.861,167.191,38.797,167.663,39.781z
		 M151.204,42.369c1.85-0.157,3.342-1.012,4.512-2.454c0.139-0.171,0.212-0.404,0.285-0.619c0.408-1.234-0.087-2.285-1.326-2.729
		c-1.745-0.625-3.431-0.195-4.792,0.832c-0.757,0.572-1.103,1.74-1.506,2.694c-0.12,0.285,0.128,0.79,0.319,1.131
		C149.235,42.188,150.171,42.367,151.204,42.369z"/>
	<path fill-rule="evenodd" clip-rule="evenodd" fill="#faf0e5" class="fill" d="M48.364,175.207c2.315,2.912,3.339,2.525,5.557,0.521
		c0.82,0.835,1.301,2.144,2.79,2.117c1.404-0.026,1.96-1.219,2.891-2.051c0.977,0.769,1.658,1.99,3.184,1.852
		c1.469-0.134,2.232-1.132,3.058-2.248c0.789,0.765,1.529,1.483,2.182,2.115c2.115,0.157,3.058-0.226,4.41-1.744
		c0.737,0.802,1.464,1.892,2.689,1.532c1.003-0.294,1.877-1.023,2.929-1.629c0.832,0.666,1.668,1.684,3.098,1.403
		c1.341-0.264,2.074-1.271,3.02-2.522c0.29,0.421,0.476,0.81,0.766,1.09c1.108,1.073,2.229,1.12,3.438,0.149
		c0.532-0.427,1.012-0.92,1.564-1.428c0.271,0.199,0.563,0.35,0.771,0.578c1.115,1.225,2.582,0.79,3.489-0.497
		c0.264-0.374,0.505-0.764,0.777-1.129c0.074-0.1,0.227-0.141,0.383-0.233c0.824,0.575,1.413,1.565,2.7,1.322
		c1.134-0.214,1.53-1.24,2.303-1.817c2.085,1.488,4.004,1.099,5.006-1.199c0.855,0.149,1.737,0.524,2.52,0.375
		c0.782-0.149,1.463-0.823,2.357-1.37c1.102,0.676,2.523,1.064,4.049,0.599c0.359,1.145,0.375,3.887,0.033,5.466
		c-1.446,1.244-3.207,2.174-5.044,2.853c-3.655,1.351-7.362,2.568-11.074,3.758c-1.304,0.418-2.688,0.581-4.03,0.885
		c-3.935,0.891-7.825,2.023-11.859,2.408c-4.478,0.427-8.957,0.988-13.446,1.115c-3.564,0.101-7.144-0.399-10.719-0.571
		c-5.777-0.278-11.314-1.902-16.95-2.971c-4.065-0.771-8.081-1.751-11.965-3.193c-2.022-0.75-4.011-1.593-6.003-2.424
		c-4.032-1.682-7.924-3.649-11.651-5.925c-1.245-0.76-2.389-1.685-3.659-2.591c0.533-1.571,1.027-3.025,1.483-4.371
		c1.204,0,2.189,0,3.172,0c0.613,0.571,1.206,1.28,1.945,1.771c0.865,0.572,1.66-0.006,2.478-0.562
		c0.221,0.315,0.453,0.586,0.618,0.893c1.342,2.491,2.526,2.868,5.117,1.524c0.255,0.458,0.482,0.941,0.78,1.376
		c0.309,0.45,0.687,0.852,0.939,1.158c1.239,0.591,2.183-0.022,3.135-0.365c1.348,2.189,2.137,3.133,4.914,1.268
		c0.186,0.229,0.409,0.446,0.565,0.703c1.299,2.129,2.489,2.361,4.461,0.857c0.107-0.082,0.239-0.131,0.355-0.193
		c2.537,2.173,2.537,2.173,4.738,0.687c0.842,0.766,1.225,2.105,2.634,2.21C46.605,176.859,47.413,175.877,48.364,175.207z"/>
	<path fill-rule="evenodd" clip-rule="evenodd" fill="#faf0e5" class="fill" d="M101.64,152.382c3.243,1.438,3.411,1.386,5.369-1.693
		c1.47,0.797,2.967,1.527,4.789,0.362c0.574,2.863,1.121,5.587,1.703,8.486c-1.041,0.546-2.009,1.162-3.055,1.582
		c-3.962,1.59-7.902,3.286-12.15,3.98c-2.446,0.4-4.917,0.68-7.386,0.912c-3.659,0.344-7.326,0.596-10.99,0.891
		c-6.833,0.551-13.685,0.608-20.533,0.572c-4.274-0.023-8.526-0.539-12.741-1.28c-3.842-0.676-7.688-1.334-11.509-2.113
		c-1.61-0.328-3.183-0.887-4.736-1.444c-2.375-0.853-4.723-1.784-7.073-2.706c-0.639-0.25-1.27-0.546-1.86-0.894
		c-2.14-1.259-4.266-2.539-6.383-3.834c-0.421-0.257-0.779-0.615-1.277-1.014c1.583-3.153,2.663-6.473,4.453-9.454
		c0.691-0.048,1.28-0.088,1.757-0.121c0.874,0.6,1.664,1.144,2.606,1.79c-0.394,0.494-0.783,1.027-1.222,1.516
		c-0.456,0.509-0.96,0.975-1.396,1.413c-0.335,1.562,0.48,2.671,1.275,3.716c2.786,3.661,6.449,5.948,11.003,6.729
		c0.762,0.13,1.552,0.096,2.406,0.143c1.699-1.622,3.391-3.236,5.083-4.851c-0.057-0.05-0.115-0.099-0.171-0.148
		c0.894-0.335,1.789-0.67,2.682-1.005c2.097,3.087,3.323,2.471,5.305,1.02c0.632,0.972,1.119,2.104,2.413,2.427
		c1.31,0.328,2.188-0.408,3.123-1.23c0.872,0.936,1.462,2.176,2.855,2.441c1.532,0.291,2.308-0.875,3.386-1.8
		c0.8,1.289,1.811,2.326,3.397,2.471c1.556,0.141,2.656-0.859,3.953-1.712c0.302,0.413,0.581,0.813,0.878,1.2
		c1.105,1.436,2.601,1.566,3.905,0.309c0.455-0.438,0.839-0.951,1.171-1.333c0.929,0.538,1.739,1.121,2.636,1.496
		c0.965,0.404,1.787,0.026,2.374-0.855c0.33-0.493,0.696-0.961,1.161-1.601c0.958,0.989,1.965,1.807,3.342,1.739
		c1.558-0.077,2.04-1.368,2.66-2.56c1.053,0.718,1.878,1.79,3.255,1.683c1.429-0.111,2.173-1.041,2.539-2.392
		c1.205,0.479,2.18,1.449,3.541,1.05c1.248-0.365,1.922-1.342,2.533-2.468c1.042,0.555,1.895,1.498,3.164,1.155
		C101.17,154.607,101.27,153.388,101.64,152.382z"/>
	<path fill-rule="evenodd" clip-rule="evenodd" fill="#faf0e5" class="fill" d="M99.272,83.594c0.807,0.775,1.478,1.419,2.148,2.063
		c-0.037,0.048-0.074,0.095-0.111,0.142c0.366,0.174,0.731,0.349,0.996,0.475c0.325,0.748,0.614,1.409,0.939,2.157
		c-0.766,0.959-1.639,1.911-2.35,2.972c-1.685,2.515-3.276,5.093-4.938,7.625c-1.256,1.915-2.137,4.094-3.842,5.691
		c-1,0.937-2.043,1.857-3.184,2.61c-2.59,1.708-5.529,0.901-6.775-1.963c-0.818-1.88-1.396-3.888-1.872-5.89
		c-0.949-3.985-1.396-8.061-1.558-12.143c-0.071-1.798,0.15-3.638,0.738-5.409c1.303-3.929,2.048-7.997,2.829-12.053
		c0.408-2.115,0.878-4.218,1.315-6.3c1.424-0.99,2.996-1.012,4.545-0.759c1.624,0.265,2.402,1.544,2.632,3.011
		c0.24,1.529,0.319,3.112,0.237,4.659c-0.167,3.16-0.461,6.314-0.752,9.467c-0.283,3.063-0.615,6.123-0.95,9.181
		c-0.23,2.099-0.517,4.191-0.755,6.29c-0.126,1.112,0.006,1.28,0.878,1.458C92.013,91.952,94.241,86.832,99.272,83.594z"/>
	<path fill-rule="evenodd" clip-rule="evenodd" fill="#faf0e5" class="fill" d="M150.034,123.588c0-5.596,0-11.054,0-16.343
		c1.205-1.341,2.217-2.53,3.298-3.653c1.061-1.104,1.334-2.485,1.51-3.906c0.379-3.052,0.726-6.107,1.094-9.161
		c0.032-0.27,0.12-0.532,0.224-0.98c0.943-0.256,1.943-0.527,3.117-0.847c0.083-0.827,0.205-1.676,0.25-2.529
		c0.104-1.972,0.132-3.949,0.263-5.918c0.17-2.573,1.102-4.925,2.325-7.156c0.673-1.226,1.66-2.249,2.901-2.886
		c2.611-1.339,5.275-2.577,7.927-3.839c0.891-0.423,1.738-0.352,2.618,0.178c0.818,0.493,1.747,0.798,2.61,1.221
		c0.31,0.152,0.57,0.405,1.055,0.762c-1.068,0.176-1.897,0.313-2.71,0.447c-0.089,0.681,0.318,0.932,0.772,1.205
		c1.257,0.755,2.359,1.698,3.496,2.933c-0.803,0.189-1.392,0.327-1.933,0.455c-0.206,0.887,0.374,1.157,0.852,1.5
		c1.004,0.723,1.904,1.545,2.537,2.712c-0.52,0.238-0.962,0.44-1.559,0.714c0.79,1.399,2.191,2.237,2.964,3.703
		c-0.484,0.157-0.899,0.292-1.472,0.478c0.083,1.612,1.87,1.999,2.472,3.266c-0.643,0.748-1.643,0.03-2.309,0.616
		c-0.081,0.77,0.536,1.084,1.033,1.452c0.971,0.719,1.804,1.535,2.301,2.929c-0.931-0.069-1.714-0.128-2.481-0.185
		c-0.276,0.737,0.145,1.091,0.575,1.446c0.638,0.526,1.309,1.02,1.893,1.6c0.374,0.37,0.618,0.87,1.097,1.57
		c-1.172-0.062-2.055-0.108-3.118-0.165c0.167,1.945,1.84,2.967,2.744,4.755c-1.136-0.227-2.038-0.407-3.129-0.625
		c0.584,2.052,2.394,2.977,3.708,4.538c-1.112,0.192-2.04,0.353-3.109,0.539c0.166,1.601,1.449,2.253,2.78,3.114
		c-1.388,0.364-2.567,0.674-3.759,0.988c-0.293,0.638,0.145,0.925,0.605,1.152c0.976,0.48,1.969,0.926,3.207,1.503
		c-1.632,0.727-3.104,1.383-4.646,2.069c0,0.13,0,0.347,0,0.654c1.45,0.461,2.912,0.925,4.485,1.425
		c-0.88,1.407-2.396,1.874-3.763,2.665c0.009,0.184,0.021,0.402,0.038,0.745c0.912,0.207,1.836,0.417,2.936,0.666
		c-1.518,1.415-3.372,1.605-5.12,2.146c-0.013,0.243-0.023,0.459-0.035,0.698c1.481,0.117,2.919,0.23,4.357,0.343
		c0.016,0.113,0.032,0.227,0.048,0.34c-0.535,0.198-1.069,0.399-1.605,0.592c-1.027,0.37-2.033,0.831-3.089,1.076
		c-1.002,0.233-2.056,0.237-3.204,0.354c0.049-0.567,0.054-0.924,0.115-1.271c0.397-2.26,0.793-4.519,1.221-6.772
		c0.102-0.535,0.331-1.044,0.482-1.571c0.794-2.747,1.221-5.557,1.377-8.407c0.148-2.703,0.308-5.406,0.375-8.111
		c0.12-4.872,0.2-9.758-0.511-14.586c-0.541-3.669-1.07-7.399-2.977-10.687c-0.656-1.132-1.476-2.26-2.471-3.09
		c-2.805-2.341-6.242-0.502-7.672,1.798c-0.94,1.513-1.777,3.09-2.75,4.797c-0.59-0.239-1.237-0.5-1.945-0.787
		c-1.088,1.661-0.255,3.268,0.157,4.968c-0.435,0-0.775,0-1.23,0c-0.816,1.999,0.451,3.678,0.925,5.547
		c-0.473,0.059-0.913,0.114-1.405,0.175c-0.589,1.438,0.383,2.609,0.827,4.037c-0.659,0.063-1.214,0.117-1.936,0.187
		c-0.373,1.603,1.056,2.601,1.453,4.03c-1.276,0.277-2.291-0.35-3.489-0.913c-0.337,2.035,1.345,3.042,2.104,4.645
		c-0.567-0.122-0.975-0.211-1.436-0.311c-0.533,1.094,0.059,1.959,0.541,2.816c0.467,0.827,1.006,1.614,1.603,2.56
		c-0.856,0-1.554,0-2.234,0c-0.436,1.354-0.309,1.692,2.244,6.009c-0.943,0-1.812,0-2.648,0c-0.419,0.821-0.309,1.532,0.002,2.219
		c0.296,0.657,0.642,1.292,1.045,2.094c-0.854,0.171-1.593,0.317-2.362,0.471c-0.655,1.11,0.565,1.69,0.782,2.653
		c-0.702,0-1.365,0-2.029,0c-1.078,1.441,0.55,1.904,0.935,2.868c-0.843,0.697-2.189-0.312-3.066,0.912
		c0.648,0.637,1.281,1.257,2.08,2.04C153.354,123.652,151.715,124.621,150.034,123.588z M153.277,110.573
		c0.964-1.216,0.699-2.453-0.595-2.95c-0.26,0.088-0.555,0.188-0.875,0.295c-0.197,0.596-0.382,1.15-0.54,1.627
		C151.758,110.406,152.459,110.539,153.277,110.573z M152.17,114.394c-0.548,0.495-1.337,0.887-1.097,1.724
		c0.133,0.46,0.743,0.783,1.128,1.158c0.592-0.24,0.998-0.405,1.333-0.542C153.853,115.123,153.705,114.861,152.17,114.394z"/>
	<path fill-rule="evenodd" clip-rule="evenodd" fill="#faf0e5" class="fill" d="M111.08,47.929c-0.883,0.341-1.467,0.558-2.046,0.791
		c-0.59,0.239-1.229,0.413-1.749,0.761c-0.829,0.559-1.205,1.366-0.852,2.393c0.072,0.209,0.11,0.431,0.176,0.691
		c-0.636,0.528-1.297,0.503-1.943,0.19c-0.575-0.279-1.1-0.658-1.653-0.983c-0.422-0.248-0.853-0.482-1.241-0.701
		c-0.672,0.559-0.314,0.958,0.053,1.204c0.873,0.583,1.776,1.131,2.713,1.603c0.601,0.303,1.021,0.609,0.772,1.637
		c-0.217,0.138-0.648,0.412-1.036,0.659c0.174,1.134,0.316,2.065,0.458,2.995c-1.265,1.068-2.692,1.112-4.009,0.822
		c-3.122-0.687-5.898,0.149-8.61,1.544c-0.161,0.083-0.327,0.154-0.564,0.264c-1.536-1.173-3.239-2.003-5.15-2.095
		c0-1.178,0-2.266,0-3.598c1.203-1.453,1.833-3.239,0.592-5.241c1.804-1.602,2.388-3.436,1.399-5.67
		c0.592-0.69,1.311-1.306,1.733-2.084c0.403-0.741,0.498-1.65,0.728-2.486c2.587-1.158,5.218-2.228,7.751-3.496
		c2.76-1.382,5.221-3.243,7.504-5.319c0.535-0.486,0.945-1.111,1.404-1.679c0.277-0.342,0.538-0.698,1.033-1.345
		c0.303,1.048,0.599,1.762,0.707,2.501c0.347,2.373,0.19,4.746-0.134,7.113c-0.161,1.183-0.299,2.37-0.401,3.559
		c-0.141,1.636,0.38,3.07,1.386,4.357C110.419,46.727,110.647,47.21,111.08,47.929z M106.127,40.099
		c-0.26,0.209-0.359,0.252-0.398,0.326c-0.968,1.842-2.468,2.457-4.478,2.019c-0.396-0.086-0.837,0.041-1.343,0.075
		c0.824,1.596,1.539,1.727,5.01,1.075c0.94-0.699,1.732-1.551,2.021-2.908C106.679,40.498,106.411,40.304,106.127,40.099z"/>
	<path fill-rule="evenodd" clip-rule="evenodd" fill="#faf0e5" class="fill" d="M113.719,161.85c0.214,1.145,0.397,2.125,0.615,3.292
		c-1.281,0.549-2.495,1.19-3.783,1.601c-7.452,2.378-15.073,4.01-22.817,5.106c-4.684,0.663-9.359,1.366-14.1,1.443
		c-3.902,0.064-7.809,0.242-11.705,0.111c-3.895-0.13-7.779-0.575-11.667-0.894c-5.05-0.416-9.995-1.447-14.907-2.64
		c-3.983-0.968-7.828-2.358-11.534-4.104c-3.114-1.467-6.197-3-9.276-4.54c-0.938-0.469-1.817-1.056-2.875-1.678
		c0.367-0.968,0.714-1.878,1.106-2.908c1.312,0.731,2.491,1.333,3.618,2.024c4.809,2.947,9.986,5.064,15.36,6.693
		c5.016,1.52,10.145,2.563,15.357,3.149c4.15,0.468,8.307,0.894,12.463,1.303c0.864,0.084,1.745,0.019,2.617,0.001
		c5.051-0.099,10.104-0.172,15.155-0.324c2.062-0.061,4.119-0.283,6.176-0.454c3.432-0.285,6.871-0.518,10.29-0.911
		c1.857-0.214,3.696-0.651,5.517-1.099c2.402-0.591,4.807-1.198,7.153-1.974c1.597-0.528,3.093-1.36,4.637-2.052
		C111.908,162.642,112.702,162.297,113.719,161.85z"/>
	<path fill-rule="evenodd" clip-rule="evenodd" fill="#faf0e5" class="fill" d="M171.14,71.13c2.499,0.735,3.449,2.59,3.997,5.071
		c-1.275-0.303-2.352-0.559-3.481-0.828c-0.101,0.422-0.162,0.681-0.22,0.927c1.031,1.368,2.481,2.407,2.899,4.283
		c-1.438,0.065-2.69-0.624-3.99-0.7c-0.459,0.566-0.165,0.858,0.205,1.199c0.741,0.686,1.476,1.386,2.143,2.142
		c0.372,0.421,0.603,0.969,0.976,1.59c-1.486,0.126-2.743,0.233-4.014,0.341c-0.098,0.431-0.154,0.681-0.203,0.894
		c0.963,0.801,1.866,1.552,2.77,2.303c-0.028,0.108-0.055,0.215-0.082,0.323c-0.927,0.087-1.855,0.173-2.849,0.266
		c-0.041,0.301-0.08,0.604-0.136,1.019c1.136,0.895,2.282,1.797,3.591,2.829c-1.205,0.194-2.289,0.368-3.494,0.562
		c-0.194,1.86,1.694,2.227,2.469,3.578c-0.78,0.084-1.478,0.161-2.243,0.244c-0.096,0.211-0.205,0.453-0.355,0.786
		c1.025,0.978,2.046,1.951,3.103,2.957c-0.756,0.801-1.716,0.583-2.646,0.718c-0.093,0.162-0.203,0.355-0.343,0.599
		c0.895,1.45,1.964,2.723,3.604,3.583c-1.227,1.08-2.942,0.448-4.106,1.687c1.243,1,2.369,1.905,3.588,2.885
		c-0.951,0.574-2.004,0.463-2.997,0.528c-0.325,1.176,0.728,1.173,1.225,1.577c0.521,0.423,1.134,0.735,1.908,1.222
		c-1.306,0.725-2.371,1.51-3.806,1.083c-1.266-0.377-2.521-0.789-3.865-1.211c0-1.032-0.081-1.953,0.013-2.856
		c0.571-5.495,0.576-11.01,0.66-16.524c0.03-1.925,0.335-3.857,0.233-5.771c-0.133-2.498-0.08-4.979,0.39-7.415
		c0.558-2.894,1.5-5.686,3.07-8.212C169.606,72.074,170.108,71.321,171.14,71.13z"/>
	<path fill-rule="evenodd" clip-rule="evenodd" fill="#faf0e5" class="fill" d="M109.281,142.779c0.35,0.976,0.636,1.775,0.986,2.749
		c-0.994,0.515-1.842,1.054-2.762,1.414c-4.541,1.777-9.244,3.031-13.99,4.094c-4.431,0.993-8.883,1.912-13.356,2.677
		c-2.253,0.386-4.575,0.358-6.865,0.516c-3.959,0.272-7.889-0.03-11.798-0.641c-2.718-0.426-5.462-0.753-8.138-1.37
		c-3.156-0.726-6.346-1.415-9.493-2.809c0.584-0.835,1.097-1.571,1.647-2.358c0.454,0.1,0.861,0.145,1.237,0.276
		c4.149,1.453,8.455,2.105,12.798,2.605c5.348,0.616,10.711,0.956,16.091,0.788c2.613-0.081,5.215-0.489,7.828-0.582
		c2.929-0.103,5.698-0.921,8.51-1.579c3.214-0.752,6.458-1.393,9.644-2.252c2.383-0.643,4.781-1.358,6.748-2.993
		C108.573,143.143,108.832,143.038,109.281,142.779z"/>
	<path fill-rule="evenodd" clip-rule="evenodd" fill="#faf0e5" class="fill" d="M165.619,154.823c-0.936,1.012-1.652,1.832-2.417,2.604
		c-1.661,1.675-1.418,3.211,0.707,4.31c0.196,0.102,0.371,0.244,0.601,0.397c-0.475,1.335-2.23,1.589-2.468,3.102
		c0.488,1.15,1.532,1.844,2.63,2.779c-1.221,0.93-2.35,1.789-3.478,2.647c0.029,0.098,0.059,0.196,0.088,0.293
		c-0.707-0.092-1.414-0.183-2.191-0.284c-0.039-0.437-0.077-0.792-0.101-1.148c-0.394-5.791,0.058-11.568,0.29-17.348
		c0.158-3.947,0.3-7.895,0.526-11.838c0.159-2.75,0.466-5.491,0.67-8.24c0.112-1.506,0.149-3.018,0.223-4.58
		c0.685,0.271,1.265,0.636,1.881,0.713c0.664,0.082,1.36-0.104,2.103-0.178c0.386,1.299-0.083,2.488-0.691,3.621
		c-0.345,0.643-0.812,1.226-1.267,1.8c-0.885,1.114-0.905,1.283-0.07,2.561c0.537,0.306,1.398,0.208,1.597,1.208
		c-0.267,1.329-1.549,2.379-1.628,4.012c0.785,0.489,1.579,0.983,2.505,1.559c-0.865,1.424-1.663,2.738-2.411,3.969
		c0.628,1.605,0.648,1.624,2.636,2.516c-0.474,1.678-2.297,2.268-3.103,3.706C162.919,154.185,164.114,154.414,165.619,154.823z"/>
	<path fill-rule="evenodd" clip-rule="evenodd" fill="#faf0e5" class="fill" d="M150.484,103.768c0.066-1.232,0.101-2.467,0.203-3.697
		c0.404-4.893,0.859-9.773,1.796-14.609c0.949-4.895,2.332-9.623,4.561-14.085c0.361-0.725,0.816-1.447,1.385-2.013
		c2.242-2.231,4.552-4.393,7.356-5.931c1.898-1.041,2.776-0.861,4.25,0.98c-0.474,0.271-0.926,0.537-1.383,0.792
		c-2.899,1.619-5.603,3.513-7.871,5.949c-1.806,1.939-2.772,4.371-3.136,6.924c-0.394,2.76-0.396,5.574-0.571,8.366
		c-0.011,0.183-0.031,0.364-0.057,0.664c-0.312,0.167-0.65,0.407-1.025,0.539c-1.297,0.454-1.823,1.443-1.992,2.716
		c-0.421,3.185-0.889,6.365-1.265,9.556C152.548,101.52,151.615,102.657,150.484,103.768z"/>
	<path fill-rule="evenodd" clip-rule="evenodd" fill="#faf0e5" class="fill" d="M147.69,124.694c1.337-0.352,2.035,0.69,2.966,0.948
		c0.565,1.849-1.472,2.873-1.292,4.728c0.767,0.472,1.599,0.983,2.59,1.594c-0.704,1.102-1.336,2.091-2,3.131
		c0.455,1.25,1.676,1.53,2.833,2.032c-0.246,1.559-1.907,1.943-2.583,3.293c-0.34,1.516,1.035,1.994,2.1,2.703
		c-0.452,1.247-1.594,1.815-2.44,2.835c0.045,0.522,0.098,1.143,0.151,1.764c0.625,0.393,1.163,0.729,1.746,1.096
		c-0.297,1.13-1.354,1.596-2.008,2.424c-0.494,1.362,0.36,2.228,1.346,3.179c-0.592,0.697-1.168,1.376-1.768,2.083
		c0.237,0.569,0.446,1.071,0.652,1.565c0.458,0.27,0.88,0.518,1.299,0.765c-0.271,0.99-1.67,1.008-1.642,2.269
		c0.497,0.624,1.06,1.33,1.595,2c-0.841,1.653-1.601,2.02-3.811,1.816c-0.186-1.688-0.282-3.411-0.241-5.142
		c0.051-2.204,0.171-4.408,0.175-6.612c0.012-7.213-0.042-14.426-0.008-21.639C147.36,129.239,147.572,126.955,147.69,124.694z"/>
	<path fill-rule="evenodd" clip-rule="evenodd" fill="#faf0e5" class="fill" d="M121.587,75.635c-1.227-2.345-0.406-4.375,2.461-6.806
		c-0.194-0.258-0.393-0.521-0.593-0.786c-3.521,0.843-3.518,3.714-3.769,6.431c-0.093,0.017-0.185,0.032-0.278,0.048
		c-0.175-0.325-0.416-0.631-0.516-0.978c-1.033-3.585,1.469-7.193,4.574-7.46c1.821-0.156,3.635-0.437,5.458-0.576
		c2.51-0.192,4.548,1.052,6.386,2.5c1.914,1.509,1.585,5.136-0.428,6.526c-0.226,0.157-0.458,0.314-0.705,0.428
		c-1.649,0.762-2.771,1.997-3.624,3.604c-0.925,1.745-2.566,2.451-4.387,2.11c-0.401-0.076-0.775-0.293-1.376-0.531
		c0.374-0.119,0.455-0.175,0.526-0.164c3.078,0.426,3.453-0.712,3.953-3.274c0.213-1.091,0.023-2.289-0.133-3.418
		c-0.225-1.612-1.5-2.496-3.13-2.416c-2.081,0.103-3.262,1.262-3.89,3.135C121.937,74.55,121.764,75.092,121.587,75.635z"/>
	<path fill-rule="evenodd" clip-rule="evenodd" fill="#faf0e5" class="fill" d="M160.506,121.778c-0.36-0.697-0.068-1.179,0.237-1.623
		c1.14-1.656,2.302-3.295,3.497-5c4.062,2.424,8.339,2.806,12.801,1.795c0.289,2.318-1.838,10.021-3.169,11.309
		c-0.456-0.527-0.344-1.11-0.165-1.658c0.185-0.564,0.488-1.09,0.688-1.65c0.141-0.398,0.196-0.828,0.29-1.248
		c-0.905-0.401-1.26,0.096-1.571,0.613c-0.354,0.59-0.61,1.246-1.012,1.798c-0.355,0.489-0.852,0.875-1.286,1.307
		c-0.08-0.064-0.159-0.128-0.237-0.192c0.759-1.368,1.518-2.736,2.33-4.198c-0.42-0.389-0.729-0.672-1.179-1.086
		c-0.25,0.484-0.425,0.781-0.562,1.095c-0.754,1.731-1.825,3.178-3.559,4.048c-0.539,0.271-1.072,0.475-1.832,0.085
		c1.159-1.542,2.707-2.729,3.316-4.986c-0.156-0.145-0.441-0.406-0.797-0.733c-0.387,0.417-0.625,0.578-0.732,0.802
		c-0.809,1.704-2.107,2.986-3.521,4.178c-0.518,0.438-1.095,0.616-1.709,0.604c-0.596-0.624-0.229-1.136,0.121-1.519
		c0.422-0.464,0.945-0.869,1.49-1.185c1.864-1.077,2.092-1.488,1.841-3.664c-1.191-1.402-2.137-1.546-3.53-0.471
		C161.651,120.667,161.118,121.221,160.506,121.778z"/>
	<path fill-rule="evenodd" clip-rule="evenodd" fill="#faf0e5" class="fill" d="M150.617,86.016c-1.491-1.754-1.08-4.284-2.37-6.176
		c-0.83,0.446-1.038,1.087-1.107,1.771c-0.211,2.055-0.397,4.113-0.578,6.171c-0.347,3.934-0.715,7.865-1.017,11.802
		c-0.507,6.599-0.947,13.202-0.39,19.823c0.088,1.047,0.123,2.1,0.179,3.15c0.001,0.04-0.042,0.081-0.133,0.246
		c-0.337-0.154-0.686-0.312-1.106-0.503c-0.196-1.205-0.471-2.371-0.561-3.551c-0.207-2.747-0.44-5.501-0.449-8.253
		c-0.012-3.346,0.211-6.691,0.306-10.037c0.15-5.298,1.113-10.505,1.824-15.736c0.339-2.498,0.984-4.955,1.5-7.429
		c0.216-1.034,0.437-2.066,0.688-3.092c0.137-0.557,0.345-1.096,0.59-1.86c1.004,4.666,1.946,9.046,2.878,13.429
		C150.883,85.812,150.757,85.884,150.617,86.016z"/>
	<path fill-rule="evenodd" clip-rule="evenodd" fill="#faf0e5" class="fill" d="M108.556,83.511c-0.898-1.056-1.657-2.128-1.368-3.765
		c3.685-1.228,7.423-2.379,11.644-2.093c0.29,0.385,0.655,0.87,1.079,1.434c-0.967,0.56-1.781,1.03-2.491,1.441
		c-0.223,0.866,0.205,1.229,0.754,1.4c0.604,0.189,1.246,0.281,1.878,0.354c1.355,0.158,2.715,0.277,4.132,0.419
		c-0.111,0.8-0.649,0.8-1.122,0.853c-1.946,0.214-3.841-0.064-5.694-0.646c-0.784-0.246-1.546-0.559-2.388-0.868
		C112.971,82.811,110.952,83.736,108.556,83.511z"/>
	<path fill-rule="evenodd" clip-rule="evenodd" fill="#faf0e5" class="fill" d="M96.976,35.47c0.905-2.25,0.905-2.25,0.469-3.041
		c-0.944,0.5-1.895,1.003-2.878,1.524c-0.344-1.182,0.891-2.221-0.111-3.389c-0.465,0.296-0.935,0.595-1.47,0.936
		c-0.25-1.064,0.988-2.065-0.138-3.129c-0.513,0.354-1.02,0.702-1.667,1.147c0-0.73,0-1.318,0-2.011
		c-0.473,0.074-0.776,0.122-1.12,0.176c-0.134-0.523-0.27-1.055-0.421-1.648c-0.458,0.154-0.749,0.251-1.18,0.396
		c-0.15-0.454-0.423-0.876-0.399-1.281c0.053-0.856-0.215-1.904,1.1-2.416c-0.064,0.515-0.113,0.922-0.166,1.355
		c0.752,0.812,1.295-0.056,2.077-0.339c-0.061,0.376-0.09,0.653-0.153,0.922c-0.06,0.263-0.154,0.517-0.25,0.824
		c1.25,0.939,1.833-0.686,2.916-0.664c-0.116,0.85-0.229,1.686-0.351,2.574c1.391,0.352,1.885-1.139,3.155-1.236
		c-0.301,0.91-0.58,1.751-0.869,2.628c0.845,0.673,1.28-0.122,1.793-0.437c0.541-0.332,1.027-0.753,1.64-1.212
		c0.08,1.515-1.15,2.401-1.345,3.796c1.551,0.38,2.096-1.344,3.357-1.489c0.108,0.877-0.998,1.469-0.598,2.437
		c0.924,0.277,1.429-0.682,2.234-0.788C102.083,33.519,99.886,35.2,96.976,35.47z"/>
	<path fill-rule="evenodd" clip-rule="evenodd" fill="#faf0e5" class="fill" d="M148.123,63.604c0.249,0.764-0.098,1.01-0.574,1.18
		c-1.505,0.537-3.014,1.063-4.511,1.621c-0.554,0.206-1.125,0.422-1.609,0.75c-0.87,0.588-0.941,1.506-0.836,2.463
		c0.368,3.353-0.231,6.575-1.307,9.856c-0.453,0.173-0.936,0.36-1.634,0.628c0.1-0.532,0.118-0.833,0.213-1.106
		c1.222-3.519,1.372-7.093,0.56-10.715c-0.254-1.137-1.038-1.898-2.232-2.632C140.373,64.931,144.257,64.266,148.123,63.604z"/>
	<path fill-rule="evenodd" clip-rule="evenodd" fill="#faf0e5" class="fill" d="M185.418,39.724c0.328,0.489,0.082,0.874-0.365,1.213
		c-2.777,2.104-5.665,4.004-9.013,5.112c-1.289,0.426-2.54,0.969-4.038,1.547c-0.189-0.916-0.329-1.592-0.48-2.323
		c0.636-0.37,1.142-0.664,1.66-0.964c1.641,0.245,3.057-0.484,4.472-1.082C180.258,42.125,182.815,40.906,185.418,39.724z"/>
	<path fill-rule="evenodd" clip-rule="evenodd" fill="#faf0e5" class="fill" d="M180.168,24.346c0.153,0.311,0.282,0.575,0.47,0.959
		c-4.585,2.441-8.692,5.473-12.86,8.729c-0.192-0.605-0.309-0.976-0.42-1.326c0.099-0.164,0.144-0.307,0.241-0.388
		c1.148-0.974,2.272-1.98,3.469-2.891c1.201-0.916,2.469-1.744,3.721-2.589C176.425,25.736,178.158,24.836,180.168,24.346z"/>
	<path fill-rule="evenodd" clip-rule="evenodd" fill="#faf0e5" class="fill" d="M181.314,26.647c0.133,0.291,0.271,0.592,0.484,1.057
		c-5.257,2.084-9.03,6.005-13.21,9.734c-0.182-0.622-0.341-1.162-0.486-1.657C170.415,33.099,178.242,27.681,181.314,26.647z"/>
	<path fill-rule="evenodd" clip-rule="evenodd" fill="#faf0e5" class="fill" d="M179.195,22.132c0.111,0.232,0.203,0.424,0.374,0.782
		c-4.389,2.16-8.433,4.795-12.493,7.711c0-0.642,0-1.153,0-1.667C170.924,25.656,175.418,22.82,179.195,22.132z"/>
	<path fill-rule="evenodd" clip-rule="evenodd" fill="#faf0e5" class="fill" d="M173.099,50.296c-0.194-0.59-0.314-0.959-0.481-1.469
		c4.676-1.545,8.994-3.606,12.965-6.373C182.474,46.642,178.025,48.645,173.099,50.296z"/>
	<path fill-rule="evenodd" clip-rule="evenodd" fill="#faf0e5" class="fill" d="M175.349,55.603c-0.179-0.469-0.304-0.794-0.484-1.263
		c3.823-1.189,6.994-3.425,10.335-5.689c0.11,1.077-0.114,1.855-0.866,2.391c-0.967,0.688-1.944,1.377-2.98,1.948
		c-1.437,0.792-2.924,1.496-4.411,2.191C176.497,55.388,175.979,55.442,175.349,55.603z"/>
	<path fill-rule="evenodd" clip-rule="evenodd" fill="#faf0e5" class="fill" d="M174.019,52.981c-0.109-0.501-0.184-0.841-0.287-1.311
		c4.31-1.568,8.424-3.419,11.853-6.701c0.374,0.732,0.242,1.241-0.258,1.648c-0.779,0.636-1.571,1.259-2.39,1.841
		c-2.395,1.703-4.872,3.263-7.697,4.176C174.897,52.745,174.547,52.832,174.019,52.981z"/>
	<path fill-rule="evenodd" clip-rule="evenodd" fill="#faf0e5" class="fill" d="M152.615,78.98c-0.244,0.717-0.521,1.528-0.818,2.404
		c-1.524-1.842-2.603-10.333-1.691-13.911c0.312,1.902,0.548,3.82,0.957,5.701C151.469,75.048,152.047,76.885,152.615,78.98z"/>
	<path fill-rule="evenodd" clip-rule="evenodd" fill="#faf0e5" class="fill" d="M184.902,36.535c0.042,0.641,0.067,1.029,0.093,1.427
		c-3.092,2.552-6.814,3.546-10.58,5c0.043-0.589,0.071-0.963,0.079-1.068c2.301-1.189,4.398-2.275,6.498-3.357
		C182.237,37.895,183.484,37.26,184.902,36.535z"/>
	<path fill-rule="evenodd" clip-rule="evenodd" fill="#faf0e5" class="fill" d="M172.56,36.878c-0.1-0.006-0.239,0.001-0.37-0.029
		c-0.128-0.029-0.247-0.098-0.364-0.147c0.007-0.106-0.022-0.226,0.024-0.28c2.917-3.388,7.569-6.649,10.557-7.348
		c0.159,0.372,0.327,0.765,0.502,1.176c-1.898,0.979-3.754,1.773-5.43,2.848C175.792,34.178,174.282,35.537,172.56,36.878z"/>
	<path fill-rule="evenodd" clip-rule="evenodd" fill="#faf0e5" class="fill" d="M154.832,64.63c1.478,0,2.791,0,4.336,0
		c-1.402,2.404-2.694,4.62-4.124,7.07C154.413,69.142,154.83,66.836,154.832,64.63z"/>
	<path fill-rule="evenodd" clip-rule="evenodd" fill="#faf0e5" class="fill" d="M174.355,40.216c0.174-0.315,0.27-0.742,0.535-0.928
		c2.812-1.971,5.658-3.888,8.841-5.231c0.037-0.015,0.09,0.012,0.168,0.025c0.069,0.082,0.18,0.173,0.235,0.289
		c0.076,0.16,0.111,0.339,0.179,0.558c-2.906,2.473-6.635,3.398-9.699,5.518C174.528,40.37,174.441,40.293,174.355,40.216z"/>
	<path fill-rule="evenodd" clip-rule="evenodd" fill="#faf0e5" class="fill" d="M165.395,10.399c0.734,0,1.258,0,2.052,0
		c-1.252,1.822-2.372,3.45-3.579,5.205c-0.589,0.059-1.288,0.13-2.091,0.212C162.191,13.301,163.929,11.917,165.395,10.399z"/>
	<path fill-rule="evenodd" clip-rule="evenodd" fill="#faf0e5" class="fill" d="M171.198,19.396c-0.284-0.299-0.593-0.623-0.959-1.008
		c1.072-1.779,2.752-2.641,4.62-3.502c0.452,0.528,0.881,1.029,1.393,1.627C174.493,17.516,172.877,18.438,171.198,19.396z"/>
	<path fill-rule="evenodd" clip-rule="evenodd" fill="#faf0e5" class="fill" d="M172.012,12.354c0.377,0.277,0.682,0.479,0.96,0.714
		c0.204,0.173,0.373,0.389,0.658,0.696c-1.514,1.155-2.978,2.273-4.557,3.477c-0.228-0.148-0.55-0.36-0.943-0.618
		C169.066,14.827,170.283,13.453,172.012,12.354z"/>
	<path fill-rule="evenodd" clip-rule="evenodd" fill="#faf0e5" class="fill" d="M12.852,175.015c1.154,0.567,2.328,1.145,3.501,1.722
		c-0.765,1.569-2.271,2.283-3.832,1.904C11.824,177.359,11.895,176.373,12.852,175.015z"/>
	<path fill-rule="evenodd" clip-rule="evenodd" fill="#faf0e5" class="fill" d="M22.159,179.525c-0.632,1.032-1.448,1.426-2.356,1.621
		c-1.257,0.27-2.08-0.325-2.187-1.592c-0.053-0.616,0.044-1.245,0.082-2.054C19.357,177.998,20.629,178.861,22.159,179.525z"/>
	<path fill-rule="evenodd" clip-rule="evenodd" fill="#faf0e5" class="fill" d="M11.46,174.19c-0.639,0.423-1.113,0.775-1.622,1.064
		c-0.68,0.384-1.312,0.254-1.9-0.255c-0.797-0.691-1.168-2.451-0.64-3.638C8.654,172.283,9.986,173.188,11.46,174.19z"/>
	<path fill-rule="evenodd" clip-rule="evenodd" fill="#faf0e5" class="fill" d="M154.203,173.109c-1.089,1.019-2.179,2.039-3.284,3.071
		c-0.931,0-1.869,0-2.973,0C149.278,173.428,151.817,173.455,154.203,173.109z"/>
	<path fill-rule="evenodd" clip-rule="evenodd" fill="#faf0e5" class="fill" d="M40.812,188.009c-0.308-0.752-0.642-1.569-0.996-2.436
		c1.175-0.147,3.549,0.294,4.909,0.85C44.113,187.974,42.962,188.503,40.812,188.009z"/>
	<path fill-rule="evenodd" clip-rule="evenodd" fill="#faf0e5" class="fill" d="M159.983,16.201c-0.494,0.065-0.933,0.123-1.591,0.211
		c0.443-2.441,1.74-4.198,3.234-5.975c0.392-0.031,0.824-0.066,1.494-0.12c-0.74,1.078-1.425,1.912-1.922,2.846
		C160.709,14.081,160.412,15.101,159.983,16.201z"/>
	<path fill-rule="evenodd" clip-rule="evenodd" fill="#faf0e5" class="fill" d="M65.841,155.892c-0.727,0.921-1.443,1.505-2.296,1.776
		c-1.748,0.559-2.969-0.411-3.105-2.472C62.171,155.419,63.88,155.639,65.841,155.892z"/>
	<path fill-rule="evenodd" clip-rule="evenodd" fill="#faf0e5" class="fill" d="M55.452,157.126c-0.901-0.805-1.282-1.746-1.362-3.013
		c1.426,0.242,2.791,0.473,4.268,0.723c-0.286,1.124-0.994,1.726-1.796,2.357C56.195,157.171,55.794,157.146,55.452,157.126z"/>
	<path fill-rule="evenodd" clip-rule="evenodd" fill="#faf0e5" class="fill" d="M171.36,23.465c0.236-0.349,0.398-0.811,0.723-1.029
		c1.833-1.229,3.861-2.041,5.944-2.729c0.135,0.186,0.248,0.283,0.279,0.401c0.046,0.166,0.033,0.349,0.052,0.641
		c-2.242,1.002-4.479,2.002-6.715,3.003C171.548,23.657,171.454,23.562,171.36,23.465z"/>
	<path fill-rule="evenodd" clip-rule="evenodd" fill="#faf0e5" class="fill" d="M169.153,10.848c0.386,0.192,0.738,0.366,1.212,0.602
		c-1.191,1.5-2.315,2.914-3.525,4.437c-0.31-0.037-0.688-0.083-1.25-0.15C166.504,13.782,167.704,12.272,169.153,10.848z"/>
	<path fill-rule="evenodd" clip-rule="evenodd" fill="#faf0e5" class="fill" d="M139.771,171.188c-0.447,0-0.766,0.011-1.083-0.004
		c-0.223-0.01-0.444-0.052-0.67-0.081c0.33-2.015,2.332-3.429,4.91-3.319C141.787,169.014,140.757,170.125,139.771,171.188z"/>
	<path fill-rule="evenodd" clip-rule="evenodd" fill="#faf0e5" class="fill" d="M18.284,165.004c1.353,0.679,2.612,1.311,3.997,2.006
		c-0.354,0.445-0.628,0.788-0.944,1.186c-0.666,0.051-1.335,0.102-1.895,0.146C18.214,166.917,17.884,165.995,18.284,165.004z"/>
	<path fill-rule="evenodd" clip-rule="evenodd" fill="#faf0e5" class="fill" d="M158.958,11.232c-0.729,1.696-1.439,3.353-2.219,5.168
		c-0.276,0.036-0.708,0.093-1.236,0.163c-0.069-1.257,0.509-2.188,0.985-3.133c0.305-0.607,0.718-1.159,1.082-1.736
		C157.907,11.16,158.354,10.994,158.958,11.232z"/>
	<path fill-rule="evenodd" clip-rule="evenodd" fill="#faf0e5" class="fill" d="M44.045,154.327c-0.37-0.96-0.746-1.851-0.001-2.892
		c0.968,0.3,1.939,0.6,2.919,0.903C46.208,154.344,45.443,154.854,44.045,154.327z"/>
	<path fill-rule="evenodd" clip-rule="evenodd" fill="#faf0e5" class="fill" d="M48.859,152.891c1.288,0.317,2.418,0.595,3.565,0.877
		c-0.666,1.777-1.343,2.232-2.862,1.995C48.9,155.029,48.717,154.141,48.859,152.891z"/>
	<path fill-rule="evenodd" clip-rule="evenodd" fill="#faf0e5" class="fill" d="M27.974,181.959c-1.137,1.564-1.891,1.757-3.54,0.917
		c-0.125-0.702-0.271-1.526-0.464-2.617C25.441,180.884,26.644,181.395,27.974,181.959z"/>
	<path fill-rule="evenodd" clip-rule="evenodd" fill="#faf0e5" class="fill" d="M174.708,37.205c2.309-2.547,5.189-4.188,8.554-5.436
		c-0.456,0.915-0.531,0.933-2.704,2.101c-0.965,0.519-1.857,1.171-2.786,1.759c-0.955,0.604-1.914,1.205-2.87,1.806
		C174.837,37.358,174.773,37.281,174.708,37.205z"/>
	<path fill-rule="evenodd" clip-rule="evenodd" fill="#faf0e5" class="fill" d="M113.195,181.699c-0.927-0.074-1.438-0.692-1.951-1.449
		c1.169-0.617,2.287-1.206,3.404-1.795C115.349,179.784,114.745,181.119,113.195,181.699z"/>
	<path fill-rule="evenodd" clip-rule="evenodd" fill="#faf0e5" class="fill" d="M95.428,152.187c-0.191,2.064-1.411,2.873-3.541,2.405
		c-0.25-0.317-0.549-0.698-0.985-1.255C92.501,152.93,93.9,152.575,95.428,152.187z"/>
	<path fill-rule="evenodd" clip-rule="evenodd" fill="#faf0e5" class="fill" d="M67.642,155.897c1.409,0.067,2.653,0.127,3.949,0.189
		c-0.751,1.68-1.198,2.063-2.577,2.262C68.129,157.86,67.716,157.069,67.642,155.897z"/>
	<path fill-rule="evenodd" clip-rule="evenodd" fill="#faf0e5" class="fill" d="M182.619,53.941c-1.315,2.099-3.458,3.011-5.45,4.131
		c-0.161-0.1-0.312-0.146-0.378-0.247c-0.145-0.222-0.244-0.472-0.362-0.71C178.529,56.039,180.574,54.99,182.619,53.941z"/>
	<path fill-rule="evenodd" clip-rule="evenodd" fill="#faf0e5" class="fill" d="M107.294,148.817c1.114-0.527,2.129-1.007,3.26-1.542
		c0.044,0.684,0.142,1.261,0.106,1.83c-0.057,0.866-0.677,1.303-1.507,1.152C108.444,150.128,107.949,149.761,107.294,148.817z"/>
	<path fill-rule="evenodd" clip-rule="evenodd" fill="#faf0e5" class="fill" d="M111.336,169.794c-0.215-0.37-0.419-0.719-0.699-1.199
		c1.044-0.682,2.101-1.188,3.266-1.57C114.253,169.4,113.68,170.022,111.336,169.794z"/>
	<path fill-rule="evenodd" clip-rule="evenodd" fill="#faf0e5" class="fill" d="M107.076,84.917c-0.032,0.036-0.175,0.201-0.29,0.333
		c-1.418-0.864-2.342-2.619-2.392-4.454c0.309-0.14,0.661-0.298,1.098-0.496C106.023,81.848,106.517,83.288,107.076,84.917z"/>
	<path fill-rule="evenodd" clip-rule="evenodd" fill="#faf0e5" class="fill" d="M34.974,184.211c1.386,0.317,2.493,0.571,3.878,0.889
		c-1.171,1.013-2.021,2.028-3.769,1.568C35.051,185.946,35.018,185.204,34.974,184.211z"/>
	<path fill-rule="evenodd" clip-rule="evenodd" fill="#faf0e5" class="fill" d="M89.376,153.59c-0.161,1.174-0.262,2.13-1.422,2.445
		c-0.884,0.239-1.631-0.247-2.342-1.506c0.158-0.08,0.305-0.194,0.469-0.231C87.105,154.067,88.131,153.855,89.376,153.59z"/>
	<path fill-rule="evenodd" clip-rule="evenodd" fill="#faf0e5" class="fill" d="M152.577,16.977c0.238-2.397,1.467-4.605,2.865-5.029
		c-0.563,1.638-1.086,3.158-1.648,4.792C153.464,16.805,153.089,16.878,152.577,16.977z"/>
	<path fill-rule="evenodd" clip-rule="evenodd" fill="#faf0e5" class="fill" d="M53.512,189.939c-0.507-0.065-0.951-0.123-1.503-0.196
		c-0.134-0.641-0.26-1.246-0.409-1.958c1.385-0.11,2.599,0.057,3.885,0.474C55.076,189.175,54.248,189.415,53.512,189.939z"/>
	<path fill-rule="evenodd" clip-rule="evenodd" fill="#faf0e5" class="fill" d="M29.418,182.527c1.229,0.386,2.408,0.755,3.631,1.14
		c-0.851,1.278-1.649,1.697-2.498,1.395C29.784,184.787,29.4,183.993,29.418,182.527z"/>
	<path fill-rule="evenodd" clip-rule="evenodd" fill="#faf0e5" class="fill" d="M47.247,189.185c-0.851-0.66-0.708-1.465-0.604-2.442
		c1.263,0.216,2.44,0.418,3.664,0.628C49.684,188.35,49.093,188.692,47.247,189.185z"/>
	<path fill-rule="evenodd" clip-rule="evenodd" fill="#faf0e5" class="fill" d="M73.493,155.894c1.349-0.075,2.512-0.139,3.716-0.207
		c-0.295,1.359-0.883,2.052-1.725,2.142C74.632,157.92,74.148,157.495,73.493,155.894z"/>
	<path fill-rule="evenodd" clip-rule="evenodd" fill="#faf0e5" class="fill" d="M24.847,170.449c-0.611-0.825-1.021-1.638-1.041-2.831
		c1.251,0.519,2.353,0.977,3.562,1.479C26.634,169.89,25.958,170.437,24.847,170.449z"/>
	<path fill-rule="evenodd" clip-rule="evenodd" fill="#faf0e5" class="fill" d="M152.074,13.324c-0.361,1.39-0.678,2.604-1.029,3.953
		c-0.33,0.129-0.731,0.288-1.161,0.457C149.64,15.688,150.473,13.935,152.074,13.324z"/>
	<path fill-rule="evenodd" clip-rule="evenodd" fill="#faf0e5" class="fill" d="M118.355,67.945c-0.363,1.266-0.637,2.22-0.911,3.174
		c-0.066-0.063-0.133-0.127-0.199-0.191c-0.635,0.641-1.27,1.282-1.833,1.851C115.162,71.797,116.349,69.641,118.355,67.945z"/>
	<path fill-rule="evenodd" clip-rule="evenodd" fill="#faf0e5" class="fill" d="M14.496,165.814c-0.97-1.242-0.987-1.499-0.165-2.689
		c0.708,0.317,1.443,0.645,2.274,1.016C16.106,165.038,15.789,165.968,14.496,165.814z"/>
	<path fill-rule="evenodd" clip-rule="evenodd" fill="#faf0e5" class="fill" d="M100.302,151.107c-0.233,0.892-0.407,1.558-0.592,2.265
		c-0.582,0-1.021,0-1.476,0c-0.449-0.473-0.867-0.915-1.443-1.522C98.059,151.582,99.05,151.372,100.302,151.107z"/>
	<path fill-rule="evenodd" clip-rule="evenodd" fill="#faf0e5" class="fill" d="M37.04,172.15c-0.649,0.858-1.208,1.483-2.222,1.451
		c-0.866-0.456-1.104-1.251-1.259-2.338C34.768,171.379,35.808,171.724,37.04,172.15z"/>
	<path fill-rule="evenodd" clip-rule="evenodd" fill="#faf0e5" class="fill" d="M83.375,155.428c-0.392,0.52-0.782,1.041-1.094,1.455
		c-1.755,0.153-2.16-0.055-2.718-1.431c1.238-0.137,2.421-0.267,3.605-0.397C83.237,155.179,83.306,155.303,83.375,155.428z"/>
	<path fill-rule="evenodd" clip-rule="evenodd" fill="#faf0e5" class="fill" d="M65.841,188.934c-0.257,1.132-0.664,1.824-1.742,1.922
		c-0.99-0.236-1.511-0.893-1.651-2.076C63.551,188.83,64.619,188.879,65.841,188.934z"/>
	<path fill-rule="evenodd" clip-rule="evenodd" fill="#faf0e5" class="fill" d="M104.544,151.64c-1.296,0.337-1.53,0.238-2.469-1.119
		c1.085-0.369,2.121-0.723,3.18-1.083C105.372,150.469,105.372,150.469,104.544,151.64z"/>
	<path fill-rule="evenodd" clip-rule="evenodd" fill="#faf0e5" class="fill" d="M23.246,141.824c0.56,0.503,1.057,0.95,1.564,1.406
		c-0.279,0.839-0.702,1.367-1.554,1.425C21.941,143.903,21.909,143.372,23.246,141.824z"/>
	<path fill-rule="evenodd" clip-rule="evenodd" fill="#faf0e5" class="fill" d="M90.568,186.546c-1.287,2.25-2.862,2.542-4.009,0.889
		C87.815,186.991,89.064,186.786,90.568,186.546z"/>
	<path fill-rule="evenodd" clip-rule="evenodd" fill="#faf0e5" class="fill" d="M29.317,172.114c-0.279-0.8-0.527-1.513-0.889-2.553
		c1.255,0.419,2.239,0.747,3.352,1.119C31.197,171.603,30.442,171.906,29.317,172.114z"/>
	<path fill-rule="evenodd" clip-rule="evenodd" fill="#faf0e5" class="fill" d="M96.056,185.051c-0.751,1.396-1.576,2.155-3.125,2.118
		c-0.183-0.329-0.387-0.696-0.681-1.224C93.553,185.639,94.677,185.376,96.056,185.051z"/>
	<path fill-rule="evenodd" clip-rule="evenodd" fill="#faf0e5" class="fill" d="M55.494,176.168c-0.112-0.2-0.258-0.428-0.37-0.673
		c-0.091-0.2-0.138-0.419-0.249-0.775c1.098-0.239,2.085-0.117,3.09,0.132C57.468,176.218,56.835,176.555,55.494,176.168z"/>
	<path fill-rule="evenodd" clip-rule="evenodd" fill="#faf0e5" class="fill" d="M10.115,163.714c0.298-0.846,0.568-1.61,0.887-2.517
		c0.608,0.337,1.073,0.595,1.516,0.84C12.19,163.827,11.542,164.308,10.115,163.714z"/>
	<path fill-rule="evenodd" clip-rule="evenodd" fill="#faf0e5" class="fill" d="M172.101,20.736c1.327-1.465,2.963-2.384,5.068-2.801
		C176.606,18.957,174.59,20.066,172.101,20.736z"/>
	<path fill-rule="evenodd" clip-rule="evenodd" fill="#faf0e5" class="fill" d="M146.939,18.399c-0.088-2.16,0.348-2.929,1.765-3.162
		c-0.156,0.958-0.305,1.883-0.467,2.89C147.805,18.217,147.423,18.298,146.939,18.399z"/>
	<path fill-rule="evenodd" clip-rule="evenodd" fill="#faf0e5" class="fill" d="M43.732,173.364c1.086,0.157,2.094,0.303,3.206,0.464
		c-0.31,1.117-1.156,1.296-1.949,1.564C44.168,175.032,43.812,174.41,43.732,173.364z"/>
	<path fill-rule="evenodd" clip-rule="evenodd" fill="#faf0e5" class="fill" d="M52.578,174.831c-0.498,0.406-0.996,0.811-1.43,1.165
		c-1.134-0.191-1.658-0.727-1.719-1.894c1.082,0.146,2.072,0.277,3.062,0.41C52.52,174.618,52.549,174.725,52.578,174.831z"/>
	<path fill-rule="evenodd" clip-rule="evenodd" fill="#faf0e5" class="fill" d="M71.314,189.156c-0.714,1.11-1.419,1.595-2.45,1.42
		c-0.662-0.112-0.973-0.481-1.255-1.42C68.774,189.156,69.921,189.156,71.314,189.156z"/>
	<path fill-rule="evenodd" clip-rule="evenodd" fill="#faf0e5" class="fill" d="M125.846,77.144c-1.016,0.947-2.37,0.98-3.681,1.34
		c-0.145-0.316-0.27-0.588-0.473-1.03c1.44-0.255,2.761-0.489,4.081-0.723C125.797,76.869,125.821,77.007,125.846,77.144z"/>
	<path fill-rule="evenodd" clip-rule="evenodd" fill="#faf0e5" class="fill" d="M83.958,187.773c-0.075,1.178-0.989,1.261-1.567,1.727
		c-0.708-0.193-1.494-0.183-1.759-1.319C81.75,188.044,82.819,187.913,83.958,187.773z"/>
	<path fill-rule="evenodd" clip-rule="evenodd" fill="#faf0e5" class="fill" d="M56.87,188.356c1.008,0.106,1.928,0.203,2.906,0.306
		c-0.662,1.198-1.252,1.595-2.045,1.416C56.941,189.9,56.763,189.334,56.87,188.356z"/>
	<path fill-rule="evenodd" clip-rule="evenodd" fill="#faf0e5" class="fill" d="M143.124,19.342c0.489-1.478,1.338-2.096,2.432-2.793
		c0.065,0.764,0.115,1.345,0.167,1.965C144.906,18.774,144.163,19.011,143.124,19.342z"/>
	<path fill-rule="evenodd" clip-rule="evenodd" fill="#faf0e5" class="fill" d="M100.711,183.971c-0.502,1.486-0.993,1.844-2.448,1.875
		c-0.1-0.088-0.262-0.186-0.357-0.328c-0.118-0.175-0.178-0.387-0.313-0.697C98.655,184.532,99.633,184.265,100.711,183.971z"/>
	<path fill-rule="evenodd" clip-rule="evenodd" fill="#faf0e5" class="fill" d="M78.762,174.616c1.181-0.104,2.25-0.197,3.459-0.304
		c-0.375,1.02-1.1,1.362-1.902,1.451C79.668,175.834,79.06,175.591,78.762,174.616z"/>
	<path fill-rule="evenodd" clip-rule="evenodd" fill="#faf0e5" class="fill" d="M91.521,174.411c-0.377-0.364-0.741-0.717-1.36-1.315
		c1.261-0.187,2.169-0.321,3.218-0.476C93.141,173.627,92.557,174.083,91.521,174.411z"/>
	<path fill-rule="evenodd" clip-rule="evenodd" fill="#faf0e5" class="fill" d="M85.049,173.961c1.045-0.167,2.055-0.329,3.245-0.52
		c-0.502,1.046-1.205,1.47-2.097,1.575C85.7,175.073,85.495,174.844,85.049,173.961z"/>
	<path fill-rule="evenodd" clip-rule="evenodd" fill="#faf0e5" class="fill" d="M100.952,171.142c0.941-0.245,1.77-0.461,2.697-0.702
		c0.149,1-0.438,1.335-1.083,1.559C101.884,172.236,101.307,172.087,100.952,171.142z"/>
	<path fill-rule="evenodd" clip-rule="evenodd" fill="#faf0e5" class="fill" d="M76.193,189.985c-1.092,0.233-1.634-0.114-1.972-1.094
		c0.955-0.103,1.843-0.198,2.73-0.292c0.061,0.089,0.121,0.178,0.181,0.267C76.806,189.255,76.48,189.644,76.193,189.985z"/>
	<path fill-rule="evenodd" clip-rule="evenodd" fill="#faf0e5" class="fill" d="M60.693,175.145c1.134,0,2.1,0,3.152,0
		C62.878,176.659,61.605,176.646,60.693,175.145z"/>
	<path fill-rule="evenodd" clip-rule="evenodd" fill="#faf0e5" class="fill" d="M41.437,173.223c-0.419,0.356-0.84,0.712-1.197,1.015
		c-0.949-0.216-1.267-0.746-1.336-1.721c0.868,0.145,1.66,0.276,2.453,0.409C41.383,173.025,41.41,173.124,41.437,173.223z"/>
	<path fill-rule="evenodd" clip-rule="evenodd" fill="#faf0e5" class="fill" d="M102.553,183.377c0.972-0.289,1.845-0.549,2.836-0.845
		c-0.108,1.008-0.55,1.438-1.301,1.542C103.552,184.148,102.909,184.463,102.553,183.377z"/>
	<path fill-rule="evenodd" clip-rule="evenodd" fill="#faf0e5" class="fill" d="M70.592,175.3c-1.567,1.255-2.456,1.252-3.187-0.011
		C68.619,174.91,69.719,174.914,70.592,175.3z"/>
	<path fill-rule="evenodd" clip-rule="evenodd" fill="#faf0e5" class="fill" d="M19.809,142.547c0.55-0.98,0.958-1.708,1.43-2.549
		c0.364,0.317,0.615,0.535,0.882,0.768C21.746,141.724,21.17,142.334,19.809,142.547z"/>
	<path fill-rule="evenodd" clip-rule="evenodd" fill="#faf0e5" class="fill" d="M107.104,182.055c0.923-0.406,1.646-0.724,2.37-1.042
		c-0.036,1.055-0.52,1.651-1.555,1.989C107.705,182.752,107.471,182.48,107.104,182.055z"/>
	<path fill-rule="evenodd" clip-rule="evenodd" fill="#faf0e5" class="fill" d="M75.938,174.981c-1.114,1.25-1.654,1.274-2.449,0.199
		C74.273,174.591,75.121,175.002,75.938,174.981z"/>
	<path fill-rule="evenodd" clip-rule="evenodd" fill="#faf0e5" class="fill" d="M96.083,172.112c1.004-0.214,1.816-0.388,2.759-0.589
		C97.996,173.153,97.157,173.365,96.083,172.112z"/>
	<path fill-rule="evenodd" clip-rule="evenodd" fill="#faf0e5" class="fill" d="M108.558,169.106c-0.179,0.424-0.206,0.561-0.284,0.658
		c-0.197,0.244-0.417,0.471-0.577,0.648c-1.121,0.109-1.121,0.109-1.727-0.745C106.803,169.487,107.556,169.324,108.558,169.106z"/>
	<path fill-rule="evenodd" clip-rule="evenodd" fill="#faf0e5" class="fill" d="M102.536,82.018c-0.107,0.88-0.611,1.367-1.667,1.609
		C100.824,82.485,101.11,82.209,102.536,82.018z"/>
	<path fill-rule="evenodd" clip-rule="evenodd" fill="#faf0e5" class="fill" d="M105.076,86.395c-0.544,0.321-0.878,0.517-1.29,0.758
		c-0.501-0.741-0.223-1.206,0.418-1.716C104.459,85.716,104.703,85.985,105.076,86.395z"/>
	<path fill-rule="evenodd" clip-rule="evenodd" fill="#faf0e5" class="fill" d="M119.731,77.095c1.393,0.743,1.512,0.974,1.311,2.534
		C120.594,78.762,120.211,78.022,119.731,77.095z"/>
	<path fill-rule="evenodd" clip-rule="evenodd" fill="#faf0e5" class="fill" d="M103.491,84.062c-0.189,0.594-0.653,0.795-1.399,0.62
		c0.377-0.316,0.752-0.632,1.13-0.949C103.312,83.843,103.4,83.953,103.491,84.062z"/>
	<path fill-rule="evenodd" clip-rule="evenodd" fill="#faf0e5" class="fill" d="M151.811,40.508c-0.425-0.504-0.852-1.012-1.349-1.604
		c0.888-1.178,2.189-0.921,3.397-0.94C154.472,39.133,153.921,39.793,151.811,40.508z"/>
</g>
</svg>
