<svg version="1.1" xmlns="http://www.w3.org/2000/svg" xmlns:xlink="http://www.w3.org/1999/xlink" x="0px" y="0px" width="200px"
	 height="200px" viewBox="0 0 200 200" enable-background="new 0 0 200 200" xml:space="preserve">
<g id="svg">
	<path class="stroke" fill="#693c11"  d="M174.481,128.883c-0.263-4.76-0.574-9.518-0.939-14.271c-0.346-4.512-0.663-9.034-1.226-13.522
		c-0.519-4.143-1.189-8.282-2.082-12.36c-0.892-4.085-2.176-8.083-3.22-12.138c-1.341-5.207-2.919-10.346-4.139-15.591
		c-1.153-4.959-1.728-9.948-1.868-15.012c-0.029-1.08,0.172-2.13,0.861-2.961c2.732-3.29,3.766-7.133,3.595-11.301
		c-0.096-2.323-0.493-4.637-0.81-6.947c-0.176-1.288-0.916-2.282-1.906-3.088c-0.723-0.588-1.52-0.783-2.39-0.317
		c-0.335,0.179-0.664,0.372-1.024,0.574c-1.412-0.257-2.834-0.463-3.222,1.441c-2.131,0.016-2.131,0.016-3.065,1.576
		c-0.805,0.321-1.497,0.597-2.053,0.818c-0.767-0.568-1.474-1.092-2.374-1.76c-0.065-0.186-0.225-0.63-0.362-1.017
		c-1.331-0.982-1.514-1.023-3.072-0.714c-1.348-1.541-1.919-1.769-3.726-1.453c-1.179-1.414-2.576-1.849-4.177-0.662
		c-0.537-0.24-1.01-0.452-1.503-0.673c-0.509,0.18-0.999,0.353-1.562,0.551c-0.288-0.101-0.639-0.225-0.871-0.304
		c-1.346,0.149-1.978,0.894-2.265,2.018c-0.129,0.507-0.355,0.997-0.434,1.51c-0.473,3.058-0.945,6.117-1.357,9.183
		c-0.409,3.021,0.065,5.889,1.687,8.517c1.222,1.983,2.423,3.979,3.687,5.935c0.801,1.237,1.269,2.598,1.378,4.021
		c0.133,1.731,0.031,3.479,0.031,5.428c-0.626,0.331-1.396,0.805-2.217,1.162c-3.495,1.518-7.018,2.956-9.942,5.521
		c-1.104,0.967-2.406,1.702-3.579,2.592c-1.166,0.886-2.289,1.829-3.422,2.756c-1.769,1.447-3.5,2.933-4.89,4.769
		c-0.517,0.683-1.056,1.351-1.564,2.041c-1.667,2.256-3.457,4.435-4.954,6.8c-1.958,3.096-3.943,6.191-5.312,9.632
		c-0.61,1.535-1.462,2.975-2.175,4.402c-1.225,0.483-2.447,0.807-3.507,1.414c-2.975,1.703-5.89,3.509-8.812,5.3
		c-2.071,1.269-4.206,2.458-6.153,3.896c-4.632,3.422-9.428,6.662-13.428,10.86c-2.102,2.205-4.154,4.465-6.092,6.813
		c-1.117,1.351-1.967,2.923-2.93,4.4c-0.455,0.699-1.017,1.146-1.864,1.421c-2.255,0.73-4.481,1.565-6.673,2.468
		c-1.848,0.761-3.61,1.728-5.449,2.515c-2.467,1.057-4.814,2.287-6.906,3.996c-0.453,0.371-1.066,0.635-1.645,0.742
		c-3.06,0.57-5.977,1.582-8.861,2.706c-1.311,0.511-2.426,1.312-3.308,2.425c-1.694,2.134-1.565,4.676,0.407,6.369
		c1.118,0.958,2.331,1.774,3.785,2.224c2.086,0.645,4.136,1.407,5.871,2.005c1.012,1.771,1.824,3.328,2.764,4.804
		c2.336,3.673,7.105,4.886,9.977,3.844c0.91-0.331,1.701-0.091,2.391,0.512c0.822,0.721,1.645,1.451,2.406,2.235
		c2.278,2.35,4.888,3.971,8.303,3.812c1.186-0.055,2.366-0.2,3.547-0.311c0.845-0.08,1.693-0.336,2.425,0.405
		c0.8,0.811,1.664,1.559,2.493,2.342c1.998,1.887,4.422,2.724,7.117,2.916c2.381,0.168,4.65-0.373,6.863-1.139
		c1.157-0.399,2.116-0.142,3.136,0.391c1.771,0.924,3.549,1.847,5.384,2.629c3.626,1.545,7.246,1.3,10.822-0.255
		c1.457-0.634,2.914-0.859,4.391,0.016c0.611,0.362,1.283,0.644,1.961,0.868c1.891,0.627,3.764,1.509,5.707,1.735
		c3.62,0.421,7.218,0.146,10.602-1.557c1.963-0.988,3.982-0.949,6.037,0.079c3.064,1.533,6.283,1.997,9.514,0.492
		c1.107-0.517,2.121-1.26,3.115-1.986c0.903-0.66,1.872-0.954,2.953-0.823c1.557,0.188,3.108,0.421,4.658,0.657
		c2.615,0.397,5.104,0.346,7.283-1.513c0.578-0.492,1.432-0.76,2.202-0.911c2.14-0.419,4.317-0.585,6.405-1.328
		c1.606-0.571,3.075-1.193,4.164-2.599c2.068-2.673,3.226-5.752,3.838-8.994c0.607-3.225,0.967-6.506,1.256-9.779
		c0.352-3.983,0.664-7.98,0.721-11.975C174.941,136.403,174.688,132.64,174.481,128.883z"/>
</g>
<g id="Layer_2">
	<path fill-rule="evenodd" clip-rule="evenodd" fill="#faf0e5" class="fill" d="M159.398,63.736c0.257-0.883,0.514-1.767,0.832-2.867
		c6.89,18.021,9.758,36.522,10.9,55.486c-0.733,0.213-1.352,0.438-1.988,0.569c-5.287,1.085-10.633,1-15.949,0.466
		c-3.162-0.318-6.287-1.067-9.404-1.737c-5.048-1.085-9.854-2.948-14.645-4.825c-5.703-2.235-11.017-5.222-16.059-8.684
		c-0.85-0.584-1.56-1.398-2.254-2.179c-2.328-2.617-4.383-5.416-5.541-8.775c-0.154-0.449-0.314-0.896-0.469-1.339
		c7.927-13.978,18.879-24.572,33.594-30.998c1.575,1.857,3,3.551,4.441,5.231c0.402,0.47,0.802,0.965,1.292,1.333
		c2.356,1.779,4.706,3.574,7.141,5.246c1.123,0.772,2.383,1.447,3.808,1.159c1.998-1.624,2.727-3.903,3.531-6.142
		c0.24-0.667,0.528-1.318,0.799-1.981c0.212,0.228,0.421,0.46,0.724,0.8c0.288-0.338,0.506-0.594,0.79-0.927
		c-0.316-0.181-0.51-0.292-0.717-0.409C159.935,63.365,159.666,63.55,159.398,63.736z M137.859,62.134
		c0.502,0.716,0.871,0.64,1.28,0.004C138.713,61.583,138.348,61.411,137.859,62.134z M157.988,71.663
		c-0.123-0.684-0.382-0.986-0.879-0.773c-0.191,0.082-0.262,0.453-0.55,1.003C157.258,71.781,157.602,71.726,157.988,71.663z
		 M155.695,73.428c0.103,0.079,0.203,0.156,0.307,0.234c0.27-0.177,0.541-0.354,1.012-0.663c-0.551-0.25-0.811-0.369-1.199-0.546
		C155.763,72.871,155.729,73.15,155.695,73.428z M148.641,71.164c0.193,0.834,0.664,0.725,1.229,0.67
		c-0.044-0.317-0.071-0.53-0.116-0.858C149.343,71.045,149.018,71.1,148.641,71.164z M159.009,69.783
		c-0.103-0.65-0.402-0.885-0.797-0.659c-0.212,0.122-0.261,0.528-0.383,0.806c0.095,0.085,0.188,0.171,0.281,0.256
		C158.424,70.046,158.735,69.906,159.009,69.783z M158.693,66.916c0.064,0.528,0.1,0.806,0.16,1.308
		c0.441-0.329,0.72-0.539,1.224-0.915C159.493,67.143,159.217,67.064,158.693,66.916z M142.555,66.809
		c0.639,0.575,1.014,0.481,1.305-0.22C143.396,66.053,143.02,66.107,142.555,66.809z M142.363,64.957
		c-0.669-0.061-0.977-0.089-1.578-0.144c0.311,0.518,0.469,0.781,0.688,1.146C141.76,65.637,141.928,65.447,142.363,64.957z
		 M160.434,65.567c-0.04-0.146-0.081-0.29-0.122-0.435c-0.32-0.017-0.641-0.033-1.052-0.054c0.039,0.355,0.063,0.564,0.111,0.995
		C159.82,65.859,160.128,65.713,160.434,65.567z M139.613,63.026c-0.042,0.139-0.081,0.278-0.12,0.417
		c0.278,0.434,0.577,0.736,1.248-0.09C140.26,63.214,139.937,63.12,139.613,63.026z M146.003,68.896
		c-0.304-0.738-0.304-0.738-1.069-0.374C145.16,69.057,145.491,69.188,146.003,68.896z M151.964,72.562
		c-0.576-0.443-0.95-0.581-1.335,0.055C151.028,73.137,151.392,73.188,151.964,72.562z M153.573,74.162
		c-0.377-0.926-0.377-0.926-1.275-0.313C152.783,73.968,153.104,74.047,153.573,74.162z M154.543,75.424
		c0.388-0.275,0.639-0.454,1.111-0.789c-0.572-0.122-0.85-0.18-1.262-0.268C154.447,74.756,154.482,74.997,154.543,75.424z
		 M147.699,70.389c0.025-0.136,0.052-0.273,0.076-0.41c-0.312-0.49-0.649-0.513-1.222,0.178
		C147.045,70.256,147.373,70.323,147.699,70.389z M138.172,60.521c-0.455-0.191-0.736-0.309-1.213-0.508
		C137.318,60.934,137.318,60.934,138.172,60.521z"/>
	<path fill-rule="evenodd" clip-rule="evenodd" fill="#faf0e5" class="fill" d="M137.611,133.069c1.748,1.507,2.967,3.358,5.447,3.678
		c2.338,0.3,4.141-0.792,6.168-1.56c0.676,0.549,1.332,1.093,2,1.623c1.983,1.574,3.967,1.929,7.042,0.232
		c0.291-0.16,0.571-0.336,0.922-0.542c1.061,0.753,2.123,1.508,3.165,2.249c1.201-0.441,2.223-0.817,3.296-1.211
		c0.868,0.603,1.687,1.329,2.922,1.188c1.03-0.116,2.081-0.023,3.3-0.023c-0.008,4.305,0.514,8.59-0.112,12.957
		c-1.852-0.214-3.456-0.677-4.765-2.184c-0.928,0.263-1.904,0.458-2.818,0.814c-2.453,0.957-5.543,0.281-7.346-1.665
		c-0.347-0.375-0.736-0.711-1.146-1.103c-0.761,0.373-1.481,0.643-2.111,1.053c-0.883,0.575-1.814,0.762-2.848,0.748
		c-2.024-0.03-3.832-0.644-5.454-1.845c-0.378-0.28-0.784-0.523-1.346-0.894c-0.915,0.299-1.941,0.522-2.868,0.959
		c-2.354,1.11-6.051,0.592-7.517-1.336c-0.113-0.149-0.306-0.236-0.429-0.379c-1.252-1.458-2.631-1.483-4.48-0.991
		c-3.574,0.951-7.253,1.308-10.65-0.835c-0.441-0.277-0.929-0.535-1.262-0.917c-1.547-1.768-3.635-2.159-5.803-2.363
		c-0.711-0.066-1.436,0.008-2.146-0.065c-4.104-0.424-6.895-2.788-8.896-6.207c-0.392-0.669-0.461-1.527-0.708-2.398
		c-0.771-0.083-1.569-0.209-2.372-0.248c-3.563-0.168-6.047-1.853-7.313-5.213c-0.452-1.2-1.252-2.042-2.408-2.493
		c-1.152-0.45-2.35-0.785-3.532-1.151c-2.237-0.691-4.187-1.766-5.558-3.769c-0.691-1.012-0.88-2.128-0.887-3.258
		c-0.009-1.741,0.521-3.378,1.411-4.882c0.112-0.192,0.341-0.331,0.538-0.459c2.475-1.613,4.953-3.22,7.471-4.854
		c0.195,0.271,0.354,0.487,0.558,0.77c0.681-0.31,0.579-0.738,0.132-1.286c0.657-0.373,1.263-0.715,1.977-1.119
		c0.43,1.2,0.199,2.233-0.047,3.294c-0.592,2.547,0.305,4.718,2.543,6.111c0.5,0.312,1.131,0.438,1.718,0.583
		c0.55,0.136,1.121,0.184,1.835,0.294c0.569,1.106,1.131,2.258,1.75,3.377c0.524,0.953,1.02,1.947,1.699,2.786
		c1.452,1.793,3.354,2.425,5.624,1.822c0.368-0.098,0.748-0.158,1.125-0.222c0.088-0.016,0.186,0.024,0.352,0.05
		c0.095,0.084,0.281,0.183,0.366,0.338c1.018,1.856,2.668,3.122,4.271,4.377c2.099,1.643,4.6,1.982,7.199,1.693
		c0.617-0.068,1.233-0.147,1.845-0.243c1.278-0.2,2.216,0.388,3.003,1.301c0.404,0.47,0.758,0.983,1.155,1.458
		c1.96,2.341,4.504,3.5,7.524,3.47c1.02-0.009,2.041-0.408,3.056-0.651C135.348,133.65,136.491,133.351,137.611,133.069z
		 M91.787,115.747c-0.426-1.162-0.426-1.162-1.4-0.446C90.945,115.479,91.367,115.613,91.787,115.747z M100.377,123.376
		c-0.605-0.677-1.044-0.363-1.565,0.115C99.46,124.146,99.934,124.168,100.377,123.376z M146.38,138.431
		c-0.841-0.681-0.841-0.681-1.353,0.286C145.525,139.059,145.951,139.093,146.38,138.431z M142.482,138.01
		c0.405,0.482,0.596,0.708,0.873,1.037c0.281-0.33,0.489-0.572,0.885-1.037C143.569,138.01,143.2,138.01,142.482,138.01z
		 M115.117,130.668c-0.516-0.446-0.927-0.777-1.479-0.171C114.003,131.087,114.407,131.331,115.117,130.668z M111.363,129.531
		c0.318,0.939,0.712,1.02,1.372,0.191C112.141,129.64,111.752,129.585,111.363,129.531z M97.519,121.41
		c-0.149,0.066-0.3,0.132-0.449,0.198c-0.1,0.258-0.199,0.517-0.394,1.016c0.574-0.078,0.922-0.125,1.268-0.172
		c0.08-0.154,0.158-0.308,0.236-0.462C97.961,121.797,97.739,121.604,97.519,121.41z M93.898,118.472c0.57,0,0.877,0,1.531,0
		c-0.393-0.525-0.596-0.796-0.912-1.22C94.281,117.716,94.165,117.946,93.898,118.472z M94.271,116.354
		c-0.484-0.759-0.925-0.587-1.489-0.092C93.254,116.937,93.688,116.832,94.271,116.354z M154.024,139.5
		c-0.032-0.113-0.065-0.227-0.099-0.34c-0.303-0.032-0.604-0.064-1.089-0.117c0.183,0.476,0.284,0.742,0.44,1.146
		C153.602,139.89,153.814,139.695,154.024,139.5z M170.457,140.421c0.098,0.093,0.195,0.186,0.293,0.279
		c0.291-0.197,0.582-0.395,1.049-0.709c-0.443-0.209-0.644-0.302-0.916-0.431C170.725,139.882,170.59,140.152,170.457,140.421z
		 M102.748,124.731c0.061-0.442,0.083-0.613,0.132-0.97c-0.485,0.049-0.874,0.088-1.261,0.127c-0.015,0.125-0.027,0.249-0.043,0.373
		C101.91,124.395,102.243,124.528,102.748,124.731z M156.348,139.722c0.784,0.159,1.169,0.036,1.323-0.618
		C157.008,138.722,156.732,139.088,156.348,139.722z M135.188,135.885c0.093,0.086,0.186,0.173,0.279,0.258
		c0.301-0.18,0.602-0.36,1.114-0.667c-0.532-0.238-0.792-0.355-1.167-0.522C135.318,135.344,135.252,135.615,135.188,135.885z
		 M149.463,137.479c0.074,0.094,0.15,0.187,0.223,0.28c0.263-0.078,0.639-0.081,0.754-0.255c0.11-0.167-0.05-0.513-0.092-0.78
		c-0.113-0.026-0.228-0.052-0.34-0.079C149.825,136.923,149.646,137.201,149.463,137.479z M89.803,113.903
		c-0.488-0.528-0.859-0.735-1.268-0.035C88.902,114.423,89.26,114.44,89.803,113.903z M147.008,138.032
		c0.639,0.55,0.955,0.159,1.371-0.337C147.724,137.296,147.305,137.308,147.008,138.032z M95.195,120.272
		c0.082,0.096,0.161,0.193,0.242,0.289c0.283-0.046,0.565-0.092,1-0.162c-0.256-0.388-0.42-0.637-0.693-1.052
		C95.508,119.746,95.352,120.009,95.195,120.272z M116.278,130.372c0.622,0.341,1.045,0.431,1.388-0.276
		C117.127,129.703,116.725,129.667,116.278,130.372z M105.604,125.341c0.46,0.044,0.777,0.075,1.262,0.123
		C106.287,124.556,106.287,124.556,105.604,125.341z M134.635,136.049c-0.697-0.35-1.1-0.333-1.258,0.425
		C133.925,136.84,134.255,136.637,134.635,136.049z M163.279,139.85c0.046,0.142,0.091,0.283,0.136,0.423
		c0.534,0.229,0.952,0.221,1.073-0.853C163.969,139.604,163.625,139.728,163.279,139.85z M169.59,141.047
		c-0.046-0.144-0.092-0.287-0.139-0.431c-0.564-0.353-0.9-0.226-0.987,0.81C168.932,141.269,169.262,141.158,169.59,141.047z
		 M161.751,139.473c-0.183,0.418-0.299,0.683-0.415,0.948c0.072,0.076,0.143,0.152,0.215,0.229c0.291-0.166,0.581-0.331,0.997-0.569
		C162.217,139.829,162.074,139.72,161.751,139.473z M139.086,136.782c-0.018,0.584,0.231,0.824,0.667,0.724
		c0.187-0.043,0.318-0.329,0.671-0.724C139.791,136.782,139.443,136.782,139.086,136.782z M118.992,129.669
		c0.404,0.512,0.791,0.629,1.378,0.167C119.912,129.364,119.566,128.963,118.992,129.669z M123.92,133.413
		c0.432,0.975,0.811,1.135,1.588,0.388C124.928,133.659,124.537,133.563,123.92,133.413z M86.9,108.939
		c-0.347,0.507-0.488,0.715-0.721,1.054c0.417,0.092,0.692,0.153,1.18,0.261C87.194,109.782,87.102,109.515,86.9,108.939z
		 M110.299,128.564c-0.609-0.332-1.009-0.399-1.359,0.14C109.421,129.266,109.8,129.151,110.299,128.564z M137.593,134.733
		c-0.104,0.746,0.177,0.91,0.679,0.794c0.104-0.024,0.178-0.177,0.31-0.319c-0.133-0.146-0.228-0.315-0.369-0.39
		C138.07,134.744,137.881,134.767,137.593,134.733z M167.002,140.78c0.273-0.201,0.549-0.401,0.995-0.727
		C167.18,139.789,166.728,139.689,167.002,140.78z M158.747,138.201c-0.007,0.113-0.012,0.226-0.019,0.34
		c0.175,0.12,0.349,0.239,0.568,0.389c0.199-0.28,0.344-0.482,0.49-0.684c-0.046-0.078-0.091-0.156-0.137-0.235
		C159.35,138.074,159.048,138.138,158.747,138.201z M88.417,112.161c-0.272-0.341-0.443-0.556-0.746-0.934
		c-0.155,0.444-0.243,0.693-0.377,1.079C87.728,112.25,87.982,112.218,88.417,112.161z M105.368,123.913
		c-0.461-0.768-0.461-0.768-1.012-0.151C104.635,124.304,104.976,124.13,105.368,123.913z M107.37,126.725
		c-0.026,0.143-0.054,0.286-0.08,0.428c0.337,0.436,0.679,0.442,1.246-0.268C108.021,126.814,107.696,126.77,107.37,126.725z
		 M126.155,135.595c0.593-0.114,0.919-0.176,1.511-0.289C126.898,134.559,126.606,134.778,126.155,135.595z M130.999,136.046
		c0.638,0.659,0.962,0.572,1.23,0.106c0.034-0.061-0.011-0.169-0.032-0.394C131.857,135.84,131.539,135.917,130.999,136.046z
		 M154.811,140.216c0.39-0.223,0.603-0.345,1.121-0.641c-0.584-0.156-0.864-0.231-1.275-0.342
		C154.718,139.622,154.744,139.796,154.811,140.216z M87.508,108.146c-0.723-0.419-1.068-0.555-1.365,0.314
		C86.616,108.352,86.915,108.283,87.508,108.146z M123.432,132.244c-0.887,0.016-0.887,0.016-0.629,0.753
		C123.02,132.738,123.195,132.527,123.432,132.244z M165.205,139.57c0.531-0.169,0.804-0.257,1.312-0.42
		c-0.419-0.277-0.594-0.394-0.845-0.56C165.533,138.879,165.439,139.078,165.205,139.57z M141.598,137.822
		c-0.038-0.08-0.077-0.159-0.115-0.24c-0.258,0-0.516,0-0.899,0c0.133,0.293,0.218,0.477,0.346,0.759
		C141.212,138.121,141.404,137.972,141.598,137.822z M159.748,139.329c0.177,0.323,0.291,0.532,0.476,0.866
		c0.219-0.333,0.351-0.536,0.566-0.866C160.379,139.329,160.131,139.329,159.748,139.329z M151.174,138.778
		c0.483,0.542,0.774,0.57,1.365,0C151.966,138.778,151.674,138.778,151.174,138.778z M128.918,135.93
		c0.01,0.132,0.019,0.263,0.027,0.395c0.248-0.035,0.495-0.069,0.743-0.104c-0.009-0.097-0.017-0.194-0.026-0.291
		C129.415,135.93,129.165,135.93,128.918,135.93z M120.996,130.686c0.023,0.073,0.048,0.146,0.073,0.219
		c0.208-0.057,0.417-0.114,0.625-0.171c-0.036-0.096-0.071-0.194-0.106-0.29C121.39,130.524,121.193,130.604,120.996,130.686z"/>
	<path fill-rule="evenodd" clip-rule="evenodd" fill="#faf0e5" class="fill" d="M101.683,146.697c-0.663,0-1.431-0.072-2.18,0.013
		c-3.038,0.339-5.487-1.072-7.771-2.738c-0.786-0.573-1.186-1.693-1.72-2.589c-0.216-0.362-0.313-0.794-0.453-1.166
		c-1.161-1.107-2.636-0.892-3.956-0.9c-1.868-0.012-3.332-0.673-4.57-1.98c-1.055-1.114-2.021-2.291-2.545-3.766
		c-1.009-2.841-3.039-4.124-6.032-4.048c-3.573,0.09-5.368-2.655-5.237-5.608c0.051-1.176,0.367-2.346,0.619-3.505
		c0.065-0.302,0.303-0.592,0.523-0.829c2.247-2.42,4.73-4.577,7.383-6.541c0.139-0.104,0.328-0.14,0.626-0.261
		c-0.126,0.865-0.251,1.603-0.335,2.346c-0.32,2.833,0.591,5.109,2.928,6.845c1.527,1.134,3.169,1.902,5.018,2.302
		c0.785,0.17,1.541,0.48,2.303,0.749c0.959,0.338,1.579,1.043,1.975,1.948c1.626,3.722,4.433,5.736,8.514,5.93
		c0.236,0.011,0.477,0.041,0.707,0.096c0.182,0.043,0.351,0.139,0.602,0.243c0.16,0.396,0.309,0.847,0.521,1.266
		c2.317,4.557,6.006,7.058,11.14,7.192c2.331,0.061,4.319,0.622,6.147,2.19c3.075,2.637,6.773,3.07,10.655,2.398
		c1.444-0.25,2.88-0.556,4.237-0.82c1.892,1.626,3.553,3.23,6.044,3.633c2.414,0.391,4.464-0.72,6.616-1.268
		c3.825,2.243,7.647,3.825,11.859,1.082c0.426,0.348,0.777,0.663,1.159,0.94c0.536,0.392,1.044,0.913,1.65,1.103
		c2.129,0.666,4.279,1.363,6.501,0.232c0.496-0.252,1.092-0.307,1.414-0.392c1.945,0.823,3.681,1.559,5.463,2.313
		c0.331,2.19-0.21,8.137-0.91,9.515c-1.176,0.621-2.498,0.202-3.752,0.369c-1.372,0.183-2.481-0.437-3.605-1.107
		c-2.842,1.919-5.641,2.838-8.449-0.208c-0.434,0.08-0.977,0.069-1.412,0.28c-2.775,1.343-5.547,1.025-8.333,0.08
		c-1.386-0.471-2.263-1.528-3.122-2.811c-0.383,0.101-0.782,0.189-1.169,0.313c-3.026,0.973-6.046,1.221-9.104,0.1
		c-1.105-0.405-2.039-1.003-2.833-1.864c-0.351-0.381-0.775-0.691-1.244-1.102c-1.496,0.137-3.012,0.265-4.523,0.415
		c-1.611,0.161-3.1-0.1-4.526-0.946c-1.063-0.63-1.988-1.406-2.554-2.443c-1.257-2.307-3.271-2.553-5.514-2.253
		c-2.845,0.38-5.312-0.287-7.23-2.498C102.651,148.302,102.242,147.533,101.683,146.697z M147.599,151.29
		c-0.911-0.354-1.591-0.618-2.356-0.915c-0.132,0.234-0.256,0.451-0.385,0.678c0.715,0.277,1.346,0.521,2.077,0.804
		C147.078,151.734,147.27,151.57,147.599,151.29z M133.109,148.718c-0.352,0.833,0.059,1.099,0.623,1.402
		c0.24-0.182,0.498-0.377,0.856-0.647C134.029,149.187,133.631,148.983,133.109,148.718z M103.153,142.17
		c-0.343-0.861-0.807-0.996-1.511-0.701C101.737,142.498,102.294,142.473,103.153,142.17z M115.826,145.641
		c-0.032,0.11-0.063,0.221-0.094,0.332c0.607,0.807,0.607,0.807,1.35-0.052C116.605,145.814,116.216,145.728,115.826,145.641z
		 M128.9,147.444c-0.951-0.035-0.951-0.035-1.286,0.717C128.358,148.616,128.709,148.344,128.9,147.444z M140.73,151.191
		c0.796,0.048,0.906-0.419,1.012-0.934C140.748,149.978,140.748,149.978,140.73,151.191z M139.152,150.456
		c-0.449,0.041-0.9,0.081-1.543,0.138C138.529,151.444,138.539,151.444,139.152,150.456z M99.518,138.706
		c-0.406-0.117-0.812-0.235-1.355-0.391C98.551,139.492,98.551,139.492,99.518,138.706z M87.949,130.166
		c-0.449-0.425-0.691-0.922-1.316-0.569C86.979,130.652,86.979,130.652,87.949,130.166z M74.442,117.588
		c-0.353,0.255-0.595,0.431-0.909,0.66c0.228,0.279,0.393,0.482,0.557,0.685C74.874,118.716,74.932,118.337,74.442,117.588z
		 M93.529,134.199c-0.787-0.801-0.787-0.801-1.35,0.016C92.64,134.678,93.075,134.868,93.529,134.199z M159.708,153.489
		c0.672,0.543,1.094,0.604,1.444,0.149c0.086-0.111-0.033-0.38-0.08-0.742C160.586,153.107,160.239,153.259,159.708,153.489z
		 M158.156,152.288c-0.083,0.081-0.168,0.163-0.25,0.244c0.141,0.3,0.281,0.6,0.527,1.133c0.319-0.445,0.5-0.698,0.766-1.068
		C158.724,152.456,158.439,152.372,158.156,152.288z M101.09,140.926c0.008-0.151,0.017-0.301,0.024-0.452
		c-0.372-0.121-0.742-0.242-1.332-0.435c0.112,0.56,0.169,0.841,0.25,1.252C100.455,141.146,100.772,141.036,101.09,140.926z
		 M89.836,132.572c0.656,1.177,0.767,1.195,1.566,0.25C90.854,132.734,90.422,132.666,89.836,132.572z M94.07,134.547
		c0.714,0.438,1.172,0.596,1.643-0.05C95.221,133.855,94.77,134.05,94.07,134.547z M167.626,153.535
		c0.568,0.759,0.931,0.498,1.34,0.01C168.543,152.784,168.152,153.078,167.626,153.535z M163.754,153.172
		c-0.722-0.125-1.193-0.313-1.493,0.469C162.84,153.993,163.264,154.047,163.754,153.172z M165.849,152.408
		c-1.429-0.2-1.444-0.182-1.079,0.948C165.089,153.077,165.354,152.844,165.849,152.408z M81.096,125.129
		c-0.629-0.522-1.063-0.648-1.562-0.129C79.965,125.662,80.409,125.608,81.096,125.129z M75.488,119.429
		c-0.52,0.483-0.787,0.733-1.25,1.162c0.582,0.147,0.854,0.216,1.25,0.316C75.488,120.461,75.488,120.139,75.488,119.429z
		 M112.631,143.161c-0.517-0.148-0.969-0.291-1.209,0.397C112.252,144.054,112.252,144.054,112.631,143.161z M114.859,144.649
		c-0.527-0.614-0.925-0.68-1.381-0.05c0.197,0.21,0.375,0.398,0.6,0.635C114.344,145.034,114.553,144.878,114.859,144.649z
		 M125.516,148.233c-0.002,0.108-0.004,0.217-0.005,0.324c0.791,0.316,0.791,0.316,1.354-0.482
		C126.29,148.143,125.902,148.188,125.516,148.233z M153.37,151.212c-0.134-0.085-0.267-0.17-0.399-0.255
		c-0.219,0.304-0.438,0.609-0.801,1.118C153.182,152.101,153.641,151.991,153.37,151.212z M83.051,126.051
		c-0.464-1.02-0.568-1.032-1.479-0.151C82.139,125.958,82.541,125.998,83.051,126.051z M119.156,147.544
		c-0.003-0.118-0.004-0.235-0.006-0.353c-0.851-0.435-0.851-0.435-1.354,0.414C118.344,147.581,118.749,147.562,119.156,147.544z
		 M104.415,142.778c0.66,0.329,1.106,0.36,1.378-0.405C105.19,141.947,104.771,141.927,104.415,142.778z M108.306,143.209
		c-0.616-0.301-1.056-0.488-1.48,0.052C107.314,143.936,107.739,144.012,108.306,143.209z M75.715,121.827
		c0.189,0.892,0.564,0.934,1.16,0.465C76.658,121.777,76.479,121.31,75.715,121.827z M97.529,135.404
		c-0.469-0.733-0.799-0.938-1.242-0.457c-0.092,0.101-0.042,0.332-0.069,0.65C96.645,135.534,96.97,135.486,97.529,135.404z
		 M157.484,151.733c-0.672-0.266-1.105-0.284-1.338,0.395C156.919,152.354,156.919,152.354,157.484,151.733z M167.56,152.042
		c-0.714-0.351-1.138-0.262-1.333,0.501C166.775,152.765,167.215,152.787,167.56,152.042z M132.062,147.694
		c-0.801,0.216-0.801,0.216-0.493,0.92C132.23,148.346,132.23,148.346,132.062,147.694z M149.906,152.08
		c0.699,0.882,1.096,0.76,1.683,0C150.986,152.08,150.6,152.08,149.906,152.08z M74.379,116.468
		c-0.023-0.122-0.049-0.243-0.072-0.365c-0.321-0.042-0.642-0.084-1.094-0.144c0.084,0.4,0.135,0.639,0.222,1.05
		C73.827,116.784,74.103,116.626,74.379,116.468z M84.519,125.558c0.036,0.495,0.054,0.739,0.092,1.255
		c0.47-0.295,0.757-0.476,1.284-0.807C85.308,125.814,85.032,125.726,84.519,125.558z M170.98,154.233
		c-0.654-0.201-1.023-0.129-1.093,0.657c0.375,0.028,0.708,0.052,1.093,0.08C170.98,154.679,170.98,154.504,170.98,154.233z
		 M86.551,127.694c-0.471-0.541-0.814-0.585-1.113,0.221c0.292,0.131,0.551,0.249,0.846,0.381
		C86.396,128.041,86.469,127.879,86.551,127.694z M147.987,151.942c1.03,0.554,1.03,0.554,1.36-0.291
		C148.893,151.748,148.553,151.821,147.987,151.942z M98.177,136.993c-0.273-0.64-0.593-0.772-0.968-0.49
		c-0.123,0.091-0.093,0.387-0.164,0.747C97.488,137.15,97.77,137.086,98.177,136.993z M144.281,149.421
		c-0.751-0.491-1.137-0.675-1.367-0.004c-0.031,0.094,0.092,0.241,0.193,0.48C143.422,149.769,143.719,149.649,144.281,149.421z
		 M135.527,150.264c-0.003,0.158-0.006,0.316-0.01,0.476c0.385,0.28,0.748,0.377,1.158-0.476
		C136.202,150.264,135.864,150.264,135.527,150.264z M78.981,123.76c-0.46-0.437-0.832-0.698-1.216,0.072
		C78.213,124.385,78.572,124.408,78.981,123.76z M87.955,131.782c0.563,0.417,0.938,0.423,1.278-0.137
		C88.768,131.183,88.381,131.006,87.955,131.782z M124.299,148.148c-0.401-0.512-0.761-0.378-1.23-0.098
		C123.479,148.79,123.842,148.6,124.299,148.148z M109.822,143.563c0.28-0.09,0.562-0.181,0.988-0.316
		C110.195,142.588,109.927,142.794,109.822,143.563z M156.086,150.659c-0.766-0.282-1.103-0.265-1.122,0.352
		c-0.001,0.073,0.093,0.148,0.2,0.309C155.396,151.152,155.623,150.989,156.086,150.659z M120.439,147.616
		c0.305,0.61,0.598,0.565,1.055,0C121.026,147.616,120.732,147.616,120.439,147.616z M130.559,147.436
		c-0.021-0.151-0.041-0.302-0.062-0.453c-0.254,0.072-0.506,0.145-0.758,0.217c0.021,0.104,0.045,0.208,0.067,0.311
		C130.057,147.486,130.309,147.46,130.559,147.436z"/>
	<path fill-rule="evenodd" clip-rule="evenodd" fill="#faf0e5" class="fill" d="M132.791,24.204c2.447-0.796,4.701-1.062,6.967-0.445
		c1.832,0.499,3.657,1.082,5.407,1.815c2.652,1.111,4.496,3.123,5.787,5.809c0.671,0.075,1.406,0.156,2.118,0.236
		c1.362-2.347,2.541-4.643,4.742-6.165c1.24-0.857,2.559-1.454,4.143-1.664c0.129,0.195,0.367,0.404,0.413,0.649
		c0.438,2.224,1.144,4.376,1.047,6.724c-0.071,1.702-0.021,3.397-0.437,5.063c-0.42,1.692-1.116,3.26-2.428,4.441
		c-1.104,0.996-1.682,2.209-1.701,3.643c-0.032,2.28-0.037,4.564,0.09,6.839c0.236,4.205,0.249,8.347-1.275,12.39
		c-0.826,2.192-1.562,4.395-2.979,6.294c-0.115,0.153-0.196,0.331-0.325,0.553c-0.582-0.281-1.012-0.46-1.416-0.688
		c-2.621-1.483-5.138-3.095-7.186-5.357c-1.469-1.624-3.034-3.162-4.528-4.765c-0.421-0.45-0.757-0.982-1.106-1.493
		c-0.469-0.686-0.613-1.408-0.585-2.281c0.063-1.843,0.03-3.711-0.215-5.535c-0.146-1.095-0.62-2.219-1.213-3.164
		c-0.854-1.363-1.878-2.639-2.953-3.841c-1.78-1.987-2.915-4.263-3.169-6.896c-0.162-1.694-0.151-3.423-0.024-5.121
		C132.14,28.923,132.498,26.616,132.791,24.204z M135.011,25.297c-0.316-0.422-0.503-0.67-0.812-1.081
		c-0.167,0.49-0.261,0.758-0.407,1.188C134.234,25.364,134.508,25.34,135.011,25.297z M145.298,26.671
		c-0.085,0.092-0.169,0.185-0.251,0.276c0.172,0.251,0.343,0.503,0.584,0.854c0.217-0.311,0.338-0.484,0.521-0.747
		C145.808,26.9,145.553,26.785,145.298,26.671z M147.554,28.543c-0.262-0.5-0.384-0.949-1.01-0.52
		C146.595,28.6,146.828,28.799,147.554,28.543z M138.078,24.328c-0.145,0.623-0.048,0.941,0.652,0.823
		C138.99,24.619,138.902,24.327,138.078,24.328z M140.359,24.627c-0.472,0.659-0.312,0.906,0.503,0.841
		C140.645,25.103,140.502,24.865,140.359,24.627z M144.584,26.749c-0.262-0.822-0.586-0.82-0.973-0.469
		c-0.068,0.062-0.022,0.251-0.035,0.469C143.882,26.749,144.155,26.749,144.584,26.749z M142.747,25.827
		c-0.356-0.241-0.59-0.399-0.822-0.558C141.786,25.993,142.012,26.161,142.747,25.827z M150.086,31.758
		c-0.114,0.007-0.229,0.014-0.341,0.021c-0.052,0.248-0.103,0.496-0.184,0.887c0.376-0.123,0.575-0.187,0.884-0.288
		C150.289,32.108,150.188,31.933,150.086,31.758z M154.254,31.749c-0.226,0.165-0.393,0.287-0.796,0.581
		c0.509,0.136,0.778,0.209,1.338,0.36C154.515,32.203,154.406,32.015,154.254,31.749z M148.305,30.578
		c0.271,0.035,0.542,0.07,1.055,0.138C149.014,29.951,148.775,29.768,148.305,30.578z M158.713,27.342
		c-0.115-0.518-0.17-0.764-0.25-1.129C157.898,26.646,157.822,26.909,158.713,27.342z M155.271,31.243
		c0.324-0.557,0.347-0.866-0.263-0.925c-0.097-0.009-0.206,0.128-0.416,0.269C154.823,30.811,155.011,30.991,155.271,31.243z
		 M136.943,25.613c-0.176-0.509-0.201-0.753-0.336-0.897c-0.061-0.065-0.338,0.07-0.73,0.169
		C136.27,25.153,136.467,25.287,136.943,25.613z M161.484,24.532c-0.125,0.057-0.251,0.114-0.377,0.17c0,0.229,0,0.457,0,0.808
		c0.325-0.13,0.518-0.207,1.06-0.426C161.811,24.795,161.648,24.663,161.484,24.532z M152.613,33.601
		c0-0.416,0.061-0.634-0.014-0.703c-0.122-0.112-0.334-0.128-0.508-0.184c-0.044,0.067-0.086,0.133-0.129,0.2
		C152.123,33.083,152.285,33.254,152.613,33.601z M156.771,29.041c-0.433-0.199-0.635-0.292-1.027-0.472
		c0.106,0.428,0.16,0.647,0.24,0.964C156.244,29.371,156.383,29.284,156.771,29.041z M151.283,36.619
		c0.393,0.428,0.552,0.602,0.764,0.831c0.137-0.252,0.199-0.366,0.25-0.459c-0.028-0.08-0.044-0.124-0.087-0.247
		C152.045,36.722,151.841,36.695,151.283,36.619z M150.02,34.207c0.369,0.171,0.582,0.27,1.056,0.489
		c-0.192-0.475-0.275-0.681-0.376-0.931C150.481,33.906,150.369,33.979,150.02,34.207z M153.547,34.789
		c-0.348-0.859-0.348-0.859-0.812-0.523C152.927,34.389,153.095,34.498,153.547,34.789z M151.537,34.896
		c0.056,0.12,0.111,0.241,0.167,0.361c0.158-0.086,0.318-0.172,0.478-0.258c-0.032-0.082-0.064-0.163-0.098-0.245
		C151.902,34.801,151.719,34.848,151.537,34.896z M156.77,28.065c0.026,0.079,0.054,0.158,0.082,0.238
		c0.223-0.07,0.447-0.141,0.672-0.21c-0.033-0.093-0.065-0.187-0.099-0.281C157.207,27.896,156.987,27.981,156.77,28.065z
		 M159.307,25.589c-0.007,0.12-0.012,0.24-0.018,0.359c0.193-0.016,0.388-0.033,0.584-0.05c0-0.079,0.002-0.158,0.003-0.237
		C159.686,25.637,159.496,25.613,159.307,25.589z"/>
	<path fill-rule="evenodd" clip-rule="evenodd" fill="#faf0e5" class="fill" d="M156.559,171.545c-2.107-0.167-3.85-0.306-5.67-0.451
		c-1.691-2.179-3.9-2.172-6.318-1.467c-1.838,0.536-3.607,0.445-5.377-0.556c-0.993-0.562-2.244-0.697-3.398-0.926
		c-0.66-0.131-1.272-0.198-1.836-0.667c-0.409-0.341-1.01-0.591-1.541-0.623c-1.531-0.094-2.74-0.714-3.729-1.857
		c-0.276-0.318-0.626-0.573-0.888-0.809c-1.675,0-3.248,0-5.089,0c-0.688-0.79-1.489-1.711-2.521-2.893
		c-0.563-0.039-1.398-0.165-2.228-0.139c-1.758,0.055-3.513,0.188-5.222,0.287c-0.457-0.415-0.811-0.726-1.156-1.045
		c-0.902-0.833-1.757-1.729-2.725-2.478c-0.416-0.323-1.062-0.466-1.607-0.483c-1.233-0.037-2.47,0.05-3.705,0.097
		c-0.57,0.021-1.14,0.064-1.932,0.11c-0.606-0.641-1.471-1.251-1.921-2.085c-1.113-2.061-3.037-2.519-5.034-2.713
		c-1.551-0.151-3.138,0.001-4.701,0.096c-1.358,0.083-2.704,0.011-3.922-0.566c-0.643-0.304-1.203-0.905-1.638-1.492
		c-0.591-0.798-1.052-1.699-1.525-2.579c-1.052-1.945-2.829-2.584-4.866-2.712c-0.902-0.056-1.82-0.031-2.719,0.066
		c-3.453,0.37-5.873-1.127-7.527-4.064c-0.232-0.415-0.489-0.816-0.712-1.237c-0.842-1.591-2.286-2.216-3.955-2.485
		c-0.282-0.045-0.572-0.045-0.851-0.105c-1.723-0.367-2.471-1.124-2.725-2.862c-0.297-2.028-0.232-4.011,1.105-5.723
		c1.645-2.103,3.307-4.19,4.971-6.278c0.075-0.094,0.229-0.123,0.336-0.177c0.154,1.241,0.201,2.469,0.474,3.646
		c0.569,2.458,2.603,4.077,5.12,4.228c0.43,0.026,0.861,0.081,1.289,0.063c2.048-0.082,3.433,0.834,4.287,2.687
		c0.717,1.558,1.524,3.054,2.74,4.326c1.433,1.5,2.959,2.644,5.164,2.631c1.082-0.006,2.168,0.208,3.281,0.325
		c2.182,5.937,6.923,7.333,12.41,7.163c0.858,0.924,1.605,1.781,2.407,2.583c1.854,1.853,4.124,2.46,6.687,2.16
		c0.752-0.088,1.51-0.184,2.266-0.177c1.658,0.015,2.51,1.249,3.319,2.416c1.86,2.681,4.53,3.49,7.593,3.389
		c1.324-0.043,2.643-0.245,4.02-0.38c1.781,2.028,4.032,3.127,6.605,3.458c2.521,0.326,5.031,0.045,7.468-0.689
		c3.849,3.536,8.169,4.109,12.876,2.309c4.27,2.502,4.993,2.286,9.263,0.395c2.148,1.172,4.603,0.493,7.019,0.933
		c-0.044,1.996-1.025,3.588-2.246,5.044c-0.58,0.689-1.292,1.274-1.99,1.846c-0.318,0.26-0.737,0.47-1.14,0.543
		c-1.552,0.284-3.085,0.462-4.638-0.19C158.934,170.902,157.592,170.911,156.559,171.545z M112.98,154.986
		c0.244-0.199,0.443-0.362,0.73-0.597c-0.56-0.373-1.013-0.673-1.535-1.021c-0.246,0.223-0.454,0.413-0.73,0.665
		C111.984,154.367,112.409,154.632,112.98,154.986z M145.903,164.385c-0.665-0.451-1.177-0.649-1.78-0.19
		C144.754,165.218,144.867,165.237,145.903,164.385z M104.902,154.852c0.154-0.07,0.309-0.14,0.463-0.21
		c0.096-0.266,0.191-0.533,0.287-0.804c-0.523-0.358-0.932-0.86-1.681,0.135C104.272,154.258,104.588,154.555,104.902,154.852z
		 M156.678,165.939c0.721,0.477,1.253,0.749,1.67-0.191C157.791,165.271,157.3,165.132,156.678,165.939z M70.407,132.021
		c-0.512-0.435-0.982-0.799-1.64-0.191C69.694,132.767,69.694,132.767,70.407,132.021z M89.02,145.101
		c-0.4,0.596-0.337,0.99,0.114,1.221c0.46,0.235,0.797,0.042,0.983-0.61C89.756,145.51,89.389,145.307,89.02,145.101z
		 M76.859,134.966c-0.422-0.374-0.698-0.619-1.243-1.102c0,0.757,0,1.156,0,1.812C76.125,135.386,76.406,135.225,76.859,134.966z
		 M85.355,142.02c-0.735-0.264-1.283-0.412-1.845,0.524C84.254,142.608,84.842,142.974,85.355,142.02z M159.151,165.784
		c0.517,0.658,0.916,0.666,1.264,0.348c0.163-0.149,0.166-0.473,0.243-0.718c-0.087-0.069-0.172-0.139-0.258-0.208
		C160.027,165.377,159.656,165.55,159.151,165.784z M154.674,165.404c0.626,0.197,1.148,0.425,1.461-0.409
		C155.285,164.437,155.285,164.437,154.674,165.404z M147.644,164.846c-0.633-0.481-1.054-0.472-1.601-0.049
		c0.352,0.307,0.618,0.54,0.935,0.816C147.215,165.34,147.387,165.143,147.644,164.846z M136.514,162.862
		c1.059,0.934,1.091,0.934,1.68,0C137.646,162.862,137.178,162.862,136.514,162.862z M102.287,152.078
		c-0.15,0.827,0.204,1.089,0.719,1.11c0.173,0.007,0.357-0.291,0.723-0.615C103.125,152.366,102.739,152.233,102.287,152.078z
		 M115.678,157.589c0.5,0.431,0.881,0.718,1.274,0.119c0.042-0.062,0.006-0.173,0.006-0.355c-0.261-0.148-0.565-0.319-0.947-0.536
		C115.879,157.121,115.794,157.32,115.678,157.589z M66.904,130.307c-0.062,0.529-0.09,0.769-0.139,1.173
		c0.525-0.053,0.924-0.094,1.322-0.134c0.017-0.116,0.032-0.232,0.047-0.348C67.807,130.812,67.475,130.626,66.904,130.307z
		 M96.123,149.169c-0.787-0.154-1.334-0.299-1.642,0.594C95.116,149.85,95.691,150.203,96.123,149.169z M71.601,131.843
		c-0.028,0.306-0.051,0.561-0.076,0.82c0.634,0.264,0.976,0.121,1.18-0.564c-0.108-0.069-0.22-0.186-0.348-0.211
		C72.132,131.844,71.898,131.857,71.601,131.843z M78.198,138.871c0.053,0.721,0.28,1.067,1.114,0.668
		C79.245,138.804,79.002,138.482,78.198,138.871z M124.254,160.078c0.752,0.174,1.201,0.108,1.317-0.672
		C124.88,159.138,124.377,159.074,124.254,160.078z M65.229,125.6c-0.53,0.313-0.839,0.495-1.223,0.721
		C65.047,127.047,65.105,127.021,65.229,125.6z M119.409,158.724c-0.443-0.56-0.928-0.353-1.46-0.182
		C118.55,159.41,118.553,159.415,119.409,158.724z M106.94,154.953c0.722,0.152,1.228,0.203,1.305-0.691
		C107.606,154.045,107.104,153.953,106.94,154.953z M164.373,165.452c-0.637-0.337-0.637-0.337-1.27-0.049
		C163.76,166.227,163.76,166.227,164.373,165.452z M148.551,165.066c0.021,0.116,0.041,0.231,0.062,0.347
		c0.917,0.294,0.917,0.294,1.335-0.598C149.389,164.916,148.969,164.991,148.551,165.066z M150.711,165.635
		c0.395-0.149,0.788-0.297,1.325-0.5C150.997,164.467,150.997,164.467,150.711,165.635z M165.297,165.051
		c-0.1,0.09-0.196,0.18-0.295,0.27c0.107,0.277,0.215,0.555,0.363,0.936c0.379-0.27,0.61-0.435,1.024-0.729
		C165.889,165.309,165.593,165.18,165.297,165.051z M143.646,163.906c-0.009-0.142-0.017-0.284-0.024-0.426
		c-0.387-0.047-0.773-0.095-1.414-0.173c0.274,0.547,0.407,0.81,0.572,1.135C143.123,164.229,143.385,164.068,143.646,163.906z
		 M140.08,162.624c-0.736-0.343-1.192-0.242-1.502,0.552C139.324,163.557,139.736,163.339,140.08,162.624z M133.954,162.632
		c0.824,0.945,0.92,0.934,1.462-0.147C134.91,162.535,134.49,162.578,133.954,162.632z M142.128,162.477
		c-0.665-0.392-1.006-0.229-1.322,0.323c0.239,0.207,0.431,0.373,0.747,0.646C141.784,163.056,141.948,162.78,142.128,162.477z
		 M74.764,133.573c0.228-0.41,0.377-0.679,0.666-1.199c-0.635,0.104-0.962,0.158-1.508,0.247
		C74.262,133.004,74.449,133.217,74.764,133.573z M96.802,149.02c-0.03,0.149-0.062,0.297-0.093,0.446
		c0.396,0.548,0.839,0.605,1.562-0.173C97.659,149.179,97.23,149.1,96.802,149.02z M79.729,140.295
		c0.192,1.012,0.192,1.012,1.204,0.596C80.645,140.413,80.333,140.111,79.729,140.295z M83.127,141.652c-0.62,0-1.013,0-1.556,0
		C82.435,142.476,82.435,142.476,83.127,141.652z M90.114,147.876c0.574-0.079,0.889-0.122,1.559-0.213
		c-0.541-0.464-0.817-0.7-1.23-1.055C90.322,147.077,90.258,147.323,90.114,147.876z M66.931,129.731
		c-0.567-0.379-0.834-0.556-1.193-0.795c-0.144,0.377-0.231,0.607-0.426,1.112C65.896,129.933,66.24,129.866,66.931,129.731z
		 M65.08,126.932c-0.343,0.623-0.48,0.874-0.775,1.414c0.626-0.08,0.965-0.123,1.306-0.166c0.081-0.161,0.163-0.322,0.246-0.483
		C65.648,127.493,65.441,127.289,65.08,126.932z M101.812,151.802c-0.36-0.842-0.723-0.829-1.218-0.214
		C100.861,152.207,101.201,152.278,101.812,151.802z M119.55,159.649c0.667,0.285,1.089,0.301,1.433-0.35
		C120.418,158.981,120.005,158.957,119.55,159.649z M115.176,155.998c-0.351-0.038-0.7-0.076-1.146-0.124
		C114.448,156.883,114.448,156.883,115.176,155.998z M77.83,137.081c-0.621-0.799-0.621-0.799-1.027,0
		C77.19,137.081,77.511,137.081,77.83,137.081z M110.985,154.544c-0.809-0.312-1.192-0.207-1.491,0.376
		C110.049,155.393,110.397,155.099,110.985,154.544z M167.837,165.291c-0.118,0.367-0.185,0.571-0.249,0.772
		c0.875,0.323,1.156,0.238,1.07-0.373C168.472,165.6,168.238,165.486,167.837,165.291z M127.403,160.461
		c0.797,0.553,1.166,0.523,1.233-0.066c-0.098-0.111-0.236-0.27-0.41-0.465C127.964,160.099,127.748,160.239,127.403,160.461z
		 M129.666,161.411c-0.049,0.127-0.097,0.253-0.146,0.38c0.216,0.194,0.432,0.389,0.701,0.633c0.225-0.278,0.386-0.477,0.726-0.899
		C130.367,161.474,130.017,161.442,129.666,161.411z M85.909,142.047c1.061,0.788,1.061,0.788,1.324-0.209
		C86.859,141.897,86.543,141.947,85.909,142.047z M127.242,159.659c0.055-0.146,0.107-0.292,0.162-0.437
		c-0.197-0.613-0.555-0.528-1.279,0.026C126.64,159.438,126.939,159.548,127.242,159.659z M87.475,143.806
		c-0.04,0.135-0.079,0.27-0.118,0.405c0.265,0.545,0.589,0.727,1.263-0.118C88.135,143.972,87.805,143.888,87.475,143.806z
		 M93.734,149.019c-0.356-0.636-0.699-0.782-1.286-0.355C92.719,149.243,93.033,149.458,93.734,149.019z M154.236,164.838
		c-0.002-0.137-0.004-0.274-0.006-0.411c-0.318-0.056-0.638-0.111-1.123-0.196c0.131,0.462,0.188,0.667,0.274,0.969
		C153.718,165.059,153.977,164.948,154.236,164.838z M123.218,159.526c-0.445-0.229-0.899-0.411-1.261,0.188
		C122.5,160.313,122.85,159.843,123.218,159.526z M133.068,161.892c-0.485,0.075-0.824,0.128-1.336,0.208
		C132.588,162.79,132.588,162.79,133.068,161.892z M100.206,150.583c0.271-0.236,0.462-0.404,0.653-0.572
		c-0.075-0.124-0.15-0.246-0.227-0.369c-0.306,0.026-0.611,0.054-1.142,0.099C99.791,150.094,99.923,150.251,100.206,150.583z"/>
	<path fill-rule="evenodd" clip-rule="evenodd" fill="#faf0e5" class="fill" d="M139.684,123.96c1.029,0.584,2.037,1.217,3.096,1.744
		c2.062,1.024,4.218,0.414,6.328,0.211c1.266-0.122,2.511-0.479,3.903-0.759c1.452,2.14,3.458,3.483,6.111,3.938
		c2.563,0.439,5.022,0.36,7.478-0.779c1.326,1.45,3.115,1.5,5.056,1.537c0.13,2.435,0.257,4.791,0.377,7.052
		c-2.229,1.44-4.19,1.159-6.024-0.807c-1.098,0.511-2.235,1.04-3.236,1.507c-1.472-0.372-1.9-1.643-2.828-2.401
		c-0.639-0.165-1.172,0.086-1.682,0.494c-0.332,0.267-0.682,0.524-1.059,0.719c-2.043,1.059-3.935,0.915-5.629-0.745
		c-0.608-0.597-1.245-1.165-1.997-1.866c-0.887,0.411-1.869,0.853-2.839,1.319c-2.559,1.229-4.984,0.736-6.814-1.405
		c-0.431-0.504-0.849-1.021-1.248-1.504c-1.396-0.251-2.62,0.139-3.852,0.511c-1.404,0.424-2.773,1.005-4.301,0.872
		c-2.144-0.187-3.917-1.142-5.425-2.601c-0.883-0.853-1.646-1.827-2.484-2.727c-0.738-0.792-1.665-1.028-2.733-0.903
		c-1.325,0.155-2.656,0.304-3.988,0.357c-1.506,0.06-2.905-0.364-4.133-1.257c-2.057-1.497-3.964-3.136-5.086-5.587
		c-0.977,0.169-1.869,0.265-2.73,0.485c-2.104,0.538-3.95-0.651-4.873-2.167c-0.562-0.925-0.968-1.946-1.477-2.907
		c-0.467-0.88-0.916-1.783-1.505-2.58c-0.235-0.319-0.804-0.467-1.247-0.539c-0.557-0.09-1.141-0.021-1.688-0.021
		c-0.487-0.33-0.948-0.59-1.349-0.922c-1.289-1.072-2.056-2.369-1.666-4.131c0.175-0.79,0.375-1.581,0.458-2.382
		c0.079-0.75,0.017-1.514,0.017-2.45c2.619-1.718,5.675-2.858,8.863-4.427c-0.051,0.893-0.085,1.449-0.117,2.004
		c-0.114,2.072,0.137,4.064,0.937,6.016c0.896,2.186,2.684,2.972,4.768,3.408c0.373,0.078,0.756,0.152,1.133,0.147
		c2.171-0.025,3.507,1.173,4.541,2.935c1.239,2.116,2.821,3.937,4.831,5.387c1.551,1.119,3.258,1.561,5.125,1.362
		c1.135-0.121,2.254-0.385,3.385-0.565c0.559-0.089,1.124-0.136,1.705-0.204c0.301,0.4,0.512,0.783,0.814,1.065
		c0.626,0.58,1.219,1.305,1.971,1.617c2.854,1.18,5.795,1.94,8.91,1.04c0.404-0.117,0.817-0.199,1.311-0.316
		c0.33,0.449,0.63,0.855,0.932,1.264c-0.339,0.16-0.68,0.319-1.018,0.477c0.003,0.113,0.008,0.226,0.012,0.339
		c0.318,0.133,0.635,0.267,1.207,0.508C139.808,124.661,139.745,124.311,139.684,123.96z M106.134,111.536
		c0.097,0.938,0.652,0.785,1.062,0.691c0.196-0.045,0.323-0.393,0.481-0.603c-0.06-0.094-0.119-0.188-0.18-0.282
		C107.047,111.407,106.596,111.471,106.134,111.536z M111.777,118.239c0.375,1.068,0.488,1.101,1.258,0.357
		C112.7,118.159,112.353,117.834,111.777,118.239z M147.805,128.183c-0.749-0.706-0.749-0.706-1.344-0.051
		C146.842,128.602,147.235,128.729,147.805,128.183z M142.994,127.711c-0.062-0.235-0.127-0.475-0.21-0.786
		c-0.378,0.094-0.667,0.166-0.97,0.242C142.157,127.994,142.157,127.994,142.994,127.711z M134.255,125.814
		c0.794,0.246,1.349,0.344,1.843-0.517C135.358,125.175,134.812,125.015,134.255,125.814z M105.378,111.369
		c-0.546-0.669-0.978-0.588-1.487-0.105C104.326,111.99,104.752,112.074,105.378,111.369z M113.535,119.864
		c0.346,0.907,0.753,0.838,1.312,0.242C114.523,119.528,114.172,119.357,113.535,119.864z M136.619,125.604
		c0.723,0.395,1.12,0.234,1.395-0.524C137.358,124.72,136.888,124.614,136.619,125.604z M150.221,127.667
		c0.048,0.11,0.096,0.219,0.143,0.329c0.37-0.131,0.74-0.261,1.242-0.438C150.676,126.875,150.676,126.875,150.221,127.667z
		 M141.593,126.578c-0.06-0.11-0.119-0.22-0.177-0.33c-0.322,0-0.645,0-0.956,0c-0.099,0.564,0.036,0.917,0.524,0.861
		C141.203,127.084,141.392,126.764,141.593,126.578z M107.667,112.855c0.78,0.642,0.995,0.654,1.375-0.119
		c-0.14-0.136-0.351-0.344-0.612-0.601C108.065,112.479,107.906,112.629,107.667,112.855z M129.244,124.448
		c0.653,0.838,0.653,0.838,1.27,0C130.023,124.448,129.634,124.448,129.244,124.448z M122.818,121.809
		c-0.005-0.114-0.011-0.228-0.016-0.342c-0.794-0.522-0.798-0.528-1.402,0.585C121.967,121.955,122.393,121.882,122.818,121.809z
		 M159.325,131.556c0.603,0.31,0.958,0.227,1.099-0.594c-0.355-0.078-0.664-0.146-1.061-0.232
		C159.348,131.096,159.338,131.313,159.325,131.556z M118.461,122.21c0.689,0.072,1.193,0.314,1.613-0.458
		C119.448,121.484,118.977,121.306,118.461,122.21z M126.179,123.695c0.323-0.452,0.524-0.73,0.92-1.285
		c-0.687,0.051-1.005,0.075-1.494,0.112C125.816,122.954,125.939,123.208,126.179,123.695z M127.319,124.149
		c0.666,0.481,1.025,0.398,1.278-0.364C128.102,123.381,127.741,123.375,127.319,124.149z M171.111,132.374
		c-0.441-0.679-0.797-0.635-1.299-0.219c0.199,0.288,0.361,0.524,0.581,0.843C170.665,132.761,170.855,132.596,171.111,132.374z
		 M97.834,107.326c0.328,0.561,0.67,0.77,1.275,0.295C98.757,107.029,98.468,106.593,97.834,107.326z M133.209,125.303
		c-0.466,0-0.841,0-1.313,0C132.523,126.292,132.643,126.292,133.209,125.303z M101.697,110.238
		c0.649,0.992,0.649,0.992,1.494,0.307C102.66,110.436,102.277,110.357,101.697,110.238z M111.29,116.996
		c0.016-0.137,0.032-0.274,0.048-0.412c-0.332-0.398-0.674-0.555-1.197,0.129c0.236,0.187,0.364,0.366,0.514,0.386
		C110.857,117.128,111.077,117.036,111.29,116.996z M117.176,121.19c-0.628-0.422-1.005-0.401-1.342,0.158
		C116.338,121.957,116.697,121.7,117.176,121.19z M148.768,127.503c0.25,1.028,0.25,1.028,1.123,0.389
		C149.451,127.739,149.109,127.621,148.768,127.503z M125.596,121.528c-0.492-0.532-0.845-0.545-1.263-0.029
		C124.701,122.056,125.037,122.229,125.596,121.528z M169.224,131.393c-0.682-0.229-1.113-0.308-1.22,0.507
		C168.551,132.196,168.916,132.161,169.224,131.393z M152.496,126.764c-0.05,0.126-0.099,0.252-0.148,0.378
		c0.144,0.198,0.287,0.397,0.616,0.85c0.306-0.284,0.515-0.479,0.724-0.673c-0.073-0.145-0.146-0.288-0.218-0.432
		C153.145,126.845,152.82,126.805,152.496,126.764z M163.158,131.115c-0.641-0.209-1.061-0.309-1.218,0.485
		C162.441,131.83,162.847,131.997,163.158,131.115z M166.277,129.916c0.026,0.149,0.052,0.299,0.078,0.45
		c0.369-0.068,0.736-0.137,1.104-0.205C167.014,129.481,166.621,129.275,166.277,129.916z M154.847,128.767
		c-0.808-0.599-0.808-0.599-1.118,0.364C154.194,128.979,154.52,128.873,154.847,128.767z M97.729,104.532
		c-0.338,0.048-0.677,0.095-1.163,0.164C97.104,105.562,97.454,105.549,97.729,104.532z M144.221,127.583
		c0.672,0.799,0.672,0.799,1.164-0.076C144.916,127.538,144.568,127.56,144.221,127.583z M156.406,130.278
		c-0.604-0.725-0.604-0.725-1.166,0C155.699,130.278,156.053,130.278,156.406,130.278z M96.398,103.23
		c1.086,0.479,1.086,0.479,1.102-0.637C97.109,102.82,96.812,102.991,96.398,103.23z M100.494,109.095
		c-0.582-0.267-0.974-0.342-1.156,0.35C99.842,109.808,100.179,109.758,100.494,109.095z M109.005,114.676
		c0.312,0.712,0.671,0.633,1.161,0.169C109.832,114.221,109.498,114.116,109.005,114.676z M164.18,130.547
		c-0.013,0.145-0.025,0.29-0.037,0.435c0.332,0.372,0.684,0.373,1.036-0.122c0.04-0.057-0.007-0.175-0.021-0.391
		C164.83,130.495,164.506,130.521,164.18,130.547z M157.236,130.806c0.658,0.749,0.658,0.749,1.162-0.115
		C157.979,130.733,157.658,130.765,157.236,130.806z M98.039,101.209c-0.146-0.466-0.207-0.661-0.314-1.006
		c-0.297,0.247-0.492,0.41-0.854,0.711C97.314,101.026,97.539,101.083,98.039,101.209z"/>
	<path fill-rule="evenodd" clip-rule="evenodd" fill="#faf0e5" class="fill" d="M81.414,156.023c-0.702,0-1.356-0.02-2.008,0.005
		c-1.241,0.045-2.479,0.158-3.72,0.166c-2.429,0.016-4.378-0.781-5.374-3.222c-0.244-0.596-0.729-1.093-1.137-1.687
		c-1.245,0-2.436,0.042-3.621-0.011c-1.185-0.052-2.404-0.048-3.543-0.335c-2.174-0.549-3.572-2.051-4.497-4.075
		c-0.546-1.2-1.245-2.329-1.808-3.365c-1.678-0.618-3.121-0.958-4.691-0.622c-1.863,0.401-3.408-0.389-4.635-1.674
		c-1.572-1.642-0.965-4.272,1.135-5.194c2.485-1.09,4.997-2.118,7.424-3.141c0.66,0.251,1.187,0.451,1.855,0.704
		c0.027-0.452,0.047-0.788,0.074-1.233c0.343-0.097,0.73-0.207,1.154-0.328c0.115,1.174,0.161,2.219,0.33,3.244
		c0.333,2.028,1.594,3.181,3.586,3.569c0.279,0.055,0.564,0.094,0.848,0.13c1.574,0.201,2.719,0.954,3.475,2.405
		c0.84,1.609,1.834,3.117,3.416,4.153c1.338,0.875,2.811,1.137,4.352,1.164c1.242,0.021,2.483-0.037,3.725-0.024
		c1.787,0.02,3.26,0.606,4.121,2.314c0.387,0.764,0.885,1.471,1.289,2.226c0.883,1.649,2.229,2.621,4.107,2.665
		c2.239,0.052,4.48-0.044,6.72-0.005c2.056,0.035,3.767,0.671,4.896,2.617c1.057,1.82,2.68,2.594,4.867,2.072
		c0.905-0.215,1.896-0.106,2.847-0.084c1.43,0.032,2.621,0.618,3.384,1.836c1.132,1.813,2.737,2.384,4.771,2.065
		c0.414-0.065,0.846-0.009,1.367-0.009c-0.072,0.398-0.131,0.723-0.216,1.192c0.422,0.036,0.752,0.063,1.21,0.101
		c-0.184-0.52-0.307-0.868-0.428-1.21c0.062-0.073,0.107-0.179,0.176-0.196c0.322-0.081,0.648-0.159,0.977-0.2
		c1.027-0.127,1.882,0.128,2.445,1.08c0.242,0.408,0.536,0.79,0.838,1.158c0.608,0.747,1.375,1.136,2.375,1.056
		c1.135-0.091,2.277-0.125,3.637-0.195c0.354,0.325,0.846,0.759,1.318,1.215c0.809,0.784,1.693,1.33,2.891,1.343
		c0.574,0.007,1.147,0.287,1.831,0.473c-2.14,2.052-5.995,2.627-8.048,1.072c-1.521-1.153-3.162-1.277-4.863-1.172
		c-0.951,0.059-1.662-0.066-2.285-0.796c-0.692-0.811-1.599-1.167-2.675-1.099c-0.761,0.048-1.522,0.074-2.286,0.095
		c-0.516,0.015-1.031,0.003-1.496,0.003c-1.694-2.422-4.119-2.509-6.598-2.335c-1.087,0.076-2.157,0.405-3.244,0.48
		c-0.84,0.058-1.693-0.101-2.476-0.158c-0.513-0.542-0.974-0.962-1.355-1.446c-1.066-1.358-2.458-1.893-4.152-1.758
		c-1.47,0.117-2.94,0.268-4.413,0.309c-1.586,0.044-3.127-0.233-4.604-0.857c-1.596-0.674-2.772-1.669-2.988-3.508
		C81.667,156.763,81.566,156.54,81.414,156.023z M112.458,163.585c-0.524-0.642-0.956-0.747-1.565-0.017
		C111.446,163.856,111.801,164.526,112.458,163.585z M122.553,166.396c0.012,0.703,0.37,0.938,0.829,0.862
		c0.229-0.039,0.407-0.389,0.588-0.577C123.523,165.926,123.084,166.053,122.553,166.396z M114.551,164.617
		c-0.09-0.563-0.139-0.877-0.213-1.338c-0.445,0.153-0.748,0.256-1.135,0.389c0.189,0.29,0.257,0.484,0.393,0.579
		C113.771,164.368,114.003,164.412,114.551,164.617z M121.922,166.274c-0.599-0.788-0.599-0.788-1.326-0.282
		C120.982,166.421,121.309,166.863,121.922,166.274z M131.094,169.137c-0.105-0.525-0.162-0.802-0.25-1.235
		c-0.409,0.249-0.687,0.417-0.965,0.586c0.007,0.102,0.013,0.203,0.019,0.304C130.23,168.889,130.562,168.984,131.094,169.137z
		 M86.318,154.699c-0.315,0.182-0.502,0.29-0.718,0.415c0.243,0.793,0.606,0.895,1.24,0.366
		C86.68,155.237,86.537,155.025,86.318,154.699z M108.981,161.193c-0.098-0.855-0.351-1.235-1.224-0.834
		C107.947,160.916,108.135,161.343,108.981,161.193z M66.637,145.569c0.317,0.75,0.687,0.931,1.377,0.518
		C67.779,145.438,67.488,145.098,66.637,145.569z M70.013,147.112c-0.733-0.488-0.733-0.488-1.312-0.152
		C69.203,147.74,69.203,147.74,70.013,147.112z M64.036,140.418c-0.474-0.599-0.895-0.813-1.5-0.182
		C62.99,140.797,63.423,140.916,64.036,140.418z M126.559,166.261c0.17,0.667,0.34,1.068,1.117,0.71
		C127.568,166.424,127.482,165.958,126.559,166.261z M65.616,144.453c0.375-0.065,0.685-0.119,0.994-0.173
		c0.024-0.101,0.049-0.202,0.073-0.302c-0.297-0.204-0.593-0.407-1.067-0.733C65.616,143.778,65.616,144.038,65.616,144.453z
		 M64.062,141.363c0.178,0.91,0.542,1.008,1.191,0.587C65.084,141.297,64.754,141.127,64.062,141.363z M56.07,134.174
		c0.117,0.766,0.436,0.977,1.11,0.595C57.104,133.976,56.676,133.98,56.07,134.174z M89.039,155.983
		c-0.175-0.874-0.519-0.973-1.11-0.519C88.004,156.23,88.417,156.195,89.039,155.983z M59.186,138.994
		c-0.397-0.553-0.755-0.81-1.461-0.328C58.107,139.266,58.492,139.435,59.186,138.994z M104.419,160.491
		c0.383-0.637,0.382-1.015-0.285-1.138c-0.132-0.024-0.302,0.143-0.598,0.297C103.876,159.972,104.111,160.198,104.419,160.491z
		 M105.981,159.356c0.181,0.731,0.487,0.958,1.126,0.671C107.086,159.281,106.836,158.966,105.981,159.356z M120.033,165.708
		c-0.237-1.137-0.237-1.137-1.215-0.603C119.25,165.319,119.574,165.48,120.033,165.708z M83.844,154.782
		c0.558-0.41,0.568-0.749,0.23-1.037c-0.12-0.103-0.4-0.017-0.898-0.017C83.477,154.203,83.65,154.478,83.844,154.782z
		 M99.985,159.756c0.136-0.769-0.108-1.056-0.878-0.972C99.005,159.517,99.305,159.753,99.985,159.756z M60.014,139.873
		c0.596,0.495,0.962,0.567,1.308-0.099c-0.226-0.178-0.427-0.336-0.649-0.511C60.442,139.475,60.279,139.626,60.014,139.873z
		 M81.566,150.673c-0.464,0.083-0.672,0.121-1.146,0.207c0.324,0.418,0.529,0.681,0.947,1.219
		C81.458,151.444,81.497,151.167,81.566,150.673z M124.629,166.469c-0.008,0.096-0.016,0.191-0.022,0.286
		c0.318,0.118,0.636,0.234,1.173,0.433c-0.125-0.516-0.184-0.755-0.269-1.105C125.15,166.24,124.89,166.354,124.629,166.469z
		 M56.808,136.335c-0.026,0.136-0.053,0.273-0.079,0.41c0.307,0.256,0.58,0.779,1.178-0.126
		C57.461,136.503,57.135,136.419,56.808,136.335z M102.739,160.317c0.142-0.722-0.204-0.825-0.735-0.822
		c-0.073,0.225-0.139,0.427-0.25,0.764C102.17,160.283,102.448,160.299,102.739,160.317z M96.968,156.599
		c0.173,0.619,0.263,0.936,0.424,1.514c0.33-0.454,0.471-0.647,0.658-0.907C97.736,157.031,97.514,156.905,96.968,156.599z
		 M90.404,156.14c0.151-0.036,0.303-0.073,0.454-0.109c0.332-0.48,0.237-0.799-0.67-1.006
		C90.28,155.497,90.342,155.818,90.404,156.14z M71.943,148.205c0.062-0.316,0.158-0.506,0.11-0.647
		c-0.065-0.19-0.24-0.343-0.422-0.582C71.156,147.495,71.12,147.825,71.943,148.205z M78.766,147.52
		c-0.406,0.359-0.532,0.471-0.748,0.662c0.389,0.285,0.613,0.45,0.838,0.615c0.082-0.047,0.163-0.095,0.246-0.142
		C79.021,148.384,78.94,148.112,78.766,147.52z M80.434,149.522c-0.203-0.252-0.408-0.505-0.792-0.981
		C79.389,149.428,79.572,149.706,80.434,149.522z M118.796,162.433c-0.428,0.445-0.616,0.641-0.901,0.94
		c0.419,0.162,0.687,0.265,1.137,0.438C118.952,163.351,118.904,163.076,118.796,162.433z M109.183,162.486
		c0.218,0.264,0.437,0.528,0.655,0.792c0.113-0.082,0.228-0.164,0.342-0.246C110.287,162.551,110.186,162.2,109.183,162.486z
		 M96.484,156.221c0.369-0.588,0.237-0.849-0.288-1.02C95.715,155.679,95.838,155.948,96.484,156.221z M81.977,151.789
		c-0.34,1.105-0.34,1.105,0.565,1.027C82.381,152.523,82.242,152.27,81.977,151.789z M73.67,148.696
		c0.495-0.504,0.416-0.836-0.012-1.03c-0.129-0.058-0.376,0.152-0.646,0.274C73.264,148.228,73.442,148.434,73.67,148.696z
		 M127.712,167.805c0.453,0.349,0.7,0.538,1.125,0.865c0-0.502,0-0.748,0-1.091C128.484,167.649,128.239,167.699,127.712,167.805z
		 M92.59,154.99c-0.104,0.038-0.209,0.075-0.314,0.112c0.042,0.249,0.084,0.498,0.154,0.92c0.318-0.26,0.478-0.388,0.713-0.579
		C92.908,155.25,92.749,155.12,92.59,154.99z M93.889,155.086c0.23,0.185,0.462,0.369,0.787,0.628
		C94.951,154.815,94.676,154.656,93.889,155.086z M77.94,147.965c-0.497-0.046-0.739-0.069-1.198-0.112
		c0.266,0.388,0.404,0.592,0.591,0.866C77.524,148.482,77.635,148.344,77.94,147.965z M75.01,147.725
		c0.082,0.424,0.131,0.67,0.209,1.073C75.822,148.261,75.721,148.025,75.01,147.725z"/>
	<path fill-rule="evenodd" clip-rule="evenodd" fill="#faf0e5" class="fill" d="M110.186,168.341c-1.719-0.466-3.338-0.275-5.009,0.401
		c-1.255,0.508-2.657,0.676-4.007,0.92c-1.308,0.237-2.371-0.337-3.126-1.341c-1.022-1.357-2.385-1.784-3.99-1.831
		c-1.595-0.047-3.125,0.221-4.656,0.642c-2.114,0.581-4.173,0.5-5.925-1.017c-0.597-0.519-1.064-1.19-1.739-1.96
		c-0.925,0.329-1.943,0.677-2.952,1.049c-2.551,0.943-5.385,0.165-7.071-1.951c-0.237-0.298-0.472-0.603-0.73-0.883
		c-0.884-0.957-1.952-1.307-3.24-1c-0.97,0.231-1.948,0.428-2.929,0.619c-0.464,0.091-0.938,0.148-1.409,0.193
		c-2.345,0.224-4.058-0.75-5.214-2.769c-0.188-0.331-0.382-0.661-0.554-1.002c-0.427-0.845-1.138-1.296-2.052-1.339
		c-0.899-0.042-1.843-0.123-2.701,0.084c-2.521,0.611-4.596-0.663-5.7-2.963c-0.349-0.727-0.566-1.518-0.851-2.276
		c-0.475-1.262-1.271-2.104-2.725-2.145c-0.762-0.021-1.521-0.135-2.284-0.162c-2.13-0.075-3.362-1.017-3.903-3.077
		c-0.17-0.64-0.367-1.317-0.316-1.959c0.059-0.733,0.159-1.681,0.629-2.123c1.379-1.297,2.93-2.417,4.456-3.548
		c0.61-0.451,1.333-0.747,2.05-1.138c0.066,0.157,0.176,0.282,0.162,0.39c-0.416,2.916,1.367,4.638,3.826,5.615
		c0.904,0.358,1.842,0.411,2.812,0.196c0.597-0.133,1.229-0.169,1.842-0.147c1.874,0.067,2.76,1.339,3.29,2.907
		c0.641,1.895,1.794,3.323,3.479,4.385c1.125,0.709,2.302,1.075,3.637,1.08c1.707,0.005,3.416,0.103,5.222,0.164
		c0.396,0.695,0.853,1.366,1.178,2.096c0.676,1.512,1.967,2.219,3.441,2.515c1.196,0.24,2.457,0.22,3.689,0.221
		c1.14,0,2.278-0.125,3.475-0.198c0.121,0.258,0.247,0.454,0.307,0.668c0.812,2.899,3.102,3.898,5.724,4.519
		c2.386,0.564,4.749,0.115,7.114-0.102c1.575-0.145,2.826,0.321,3.688,1.649c1.053,1.626,2.608,1.921,4.36,1.738
		c0.752-0.08,1.503-0.209,2.336-0.328c0.057,0.386,0.102,0.69,0.159,1.084c0.29,0,0.588,0,0.969,0
		c-0.045-0.413-0.078-0.723-0.123-1.123c2.645-0.802,4.625,0.229,6.318,2.284c1.053-0.107,2.094-0.169,3.117-0.328
		c1.662-0.258,2.631,0.241,3.424,1.886c-2.628,1.213-5.176,1.649-7.526-0.603c0.204-0.197,0.413-0.391,0.808-0.757
		c-0.581-0.123-0.937-0.198-1.29-0.274c-0.044,0.079-0.089,0.158-0.134,0.236C109.755,167.806,109.971,168.073,110.186,168.341z
		 M90.351,163.517c0.422,0.263,2.041,0.305,2.683,0.07C92.629,162.968,92.629,162.968,90.351,163.517z M62.682,154.402
		c0.039-0.109,0.078-0.22,0.117-0.329c-0.76-0.896-0.76-0.896-1.618-0.119C61.751,154.125,62.217,154.264,62.682,154.402z
		 M49.252,144.979c-0.318,0.179-0.582,0.327-0.874,0.491c0.782,0.68,1.132,0.729,1.359,0.158
		C49.605,145.453,49.45,145.244,49.252,144.979z M113.523,168.056c0.565,0.759,0.565,0.759,1.27,0.119
		C114.428,167.467,114.018,167.444,113.523,168.056z M69.649,157.427c0.312,0.53,0.7,0.806,1.345,0.604
		C70.698,156.919,70.671,156.908,69.649,157.427z M68.078,156.138c0.432,0.504,0.764,1.022,1.52,0.245
		c-0.348-0.309-0.637-0.567-0.979-0.869C68.395,155.772,68.255,155.935,68.078,156.138z M79.916,159.958
		c0.239,1.441,0.26,1.45,1.216,0.794C80.77,160.517,80.467,160.318,79.916,159.958z M65.133,153.253
		c-0.309,0.331-0.508,0.544-0.896,0.96c0.6,0.118,0.959,0.189,1.67,0.33C65.543,153.937,65.37,153.65,65.133,153.253z
		 M94.225,163.083c0.047,0.375,0.082,0.664,0.137,1.092c0.391-0.165,0.656-0.276,1.023-0.43c-0.226-0.282-0.337-0.501-0.514-0.616
		C94.741,163.045,94.524,163.098,94.225,163.083z M44.787,144.292c0.066-1.22-0.012-1.28-1.172-0.849
		C44.051,143.759,44.367,143.988,44.787,144.292z M46.042,144.113c-0.18,1.32-0.108,1.383,1.038,1.093
		C46.76,144.869,46.504,144.602,46.042,144.113z M113.087,168.234c-0.034-0.11-0.065-0.219-0.1-0.329c-0.325,0-0.65,0-1.149,0
		c0.242,0.428,0.369,0.654,0.545,0.96C112.656,168.619,112.871,168.427,113.087,168.234z M101.316,166.391
		c0.289,0.876,0.737,0.61,1.234,0.439C102.164,166.165,102.164,166.165,101.316,166.391z M107.261,165.465
		c-0.917-0.144-0.917-0.144-1.272,0.455C106.538,166.22,107.006,166.409,107.261,165.465z M76.827,158.694
		c0.331,0.579,0.675,0.722,1.175,0.171C77.707,158.193,77.344,158.166,76.827,158.694z M79.613,159.059
		c0.094-0.097,0.188-0.194,0.283-0.291c-0.18-0.271-0.358-0.542-0.59-0.895c-0.25,0.266-0.394,0.42-0.648,0.692
		C79.048,158.768,79.33,158.913,79.613,159.059z M68.065,154.876c-0.313-0.672-0.313-0.672-1.012-0.685
		C67,154.894,67.277,155.104,68.065,154.876z M55.456,148.952c-0.394,1.1-0.394,1.1,0.748,0.875
		C55.909,149.481,55.683,149.217,55.456,148.952z M56.713,150.901c0.367,0.696,0.733,0.812,1.361,0.472
		C57.737,150.913,57.465,150.588,56.713,150.901z M59.17,152.298c-0.102,0.911-0.102,0.911,0.862,0.745
		C60.031,152.442,59.688,152.289,59.17,152.298z M86.668,164.071c-0.422-1.093-0.422-1.093-1.145-0.129
		C85.982,163.994,86.325,164.032,86.668,164.071z M88.045,163.301c-0.032,0.133-0.064,0.265-0.098,0.398
		c0.352,0.441,0.737,0.664,1.45,0.011C88.832,163.54,88.439,163.42,88.045,163.301z M116.114,169.172
		c0.208-0.448,0.298-0.639,0.469-1.008c-0.448-0.045-0.751-0.077-1.395-0.142C115.596,168.529,115.775,168.751,116.114,169.172z
		 M43.626,142.29c-0.138-0.604-0.138-0.604-0.796-0.903C42.721,142.071,42.79,142.479,43.626,142.29z M51.596,145.883
		c0.043-0.146,0.085-0.292,0.127-0.438c-0.252-0.605-0.584-0.69-1.224,0.128C50.954,145.702,51.275,145.792,51.596,145.883z
		 M72.437,158.003c0.196,0.913,0.196,0.913,1.02,0.461C73.082,157.961,73.082,157.961,72.437,158.003z M82.212,162.464
		c0.06-0.092,0.12-0.185,0.18-0.277c-0.348-0.771-0.348-0.771-1.18-0.299C81.604,162.115,81.908,162.29,82.212,162.464z
		 M76.003,159.285c-0.472-0.938-0.472-0.938-1.312-0.272C75.191,159.116,75.523,159.186,76.003,159.285z M52.923,145.144
		c0.163,0.99,0.163,0.99,0.993,0.557C53.515,145.475,53.219,145.309,52.923,145.144z M99.598,166.259
		c-0.086,0.506-0.122,0.715-0.181,1.051c0.417-0.056,0.703-0.095,1.268-0.172C100.254,166.79,100.037,166.614,99.598,166.259z
		 M108.053,166.699c0.322,0.022,0.646,0.044,1.162,0.08C108.805,165.923,108.486,165.803,108.053,166.699z M54.262,146.894
		c-0.107,0.093-0.215,0.186-0.322,0.279c0.184,0.322,0.18,0.866,1.112,0.599C54.716,147.399,54.49,147.146,54.262,146.894z
		 M82.973,162.606c0.402,0.411,0.619,0.635,0.836,0.858c0.093-0.08,0.186-0.158,0.279-0.237
		C84.063,162.834,84.07,162.418,82.973,162.606z M95.547,164.547c-0.035,0.085-0.068,0.172-0.104,0.259
		c0.269,0.156,0.535,0.313,0.935,0.548c0-0.435,0-0.632,0-0.909C96.047,164.486,95.797,164.517,95.547,164.547z M97.344,165.638
		c-0.09,0.051-0.179,0.102-0.267,0.153c0.103,0.242,0.167,0.516,0.33,0.708c0.053,0.062,0.359-0.091,0.761-0.205
		C97.779,165.984,97.561,165.811,97.344,165.638z M42.093,139.717c0.437,0.362,0.658,0.547,0.987,0.82
		C43.307,139.736,43.132,139.504,42.093,139.717z"/>
	<path fill-rule="evenodd" clip-rule="evenodd" fill="#faf0e5" class="fill" d="M103.647,97.26c-0.294,2.458,0.283,3.159,2.657,3.395
		c0.12,0.839,0.238,1.676,0.341,2.398c1.053,0.951,2.212,0.508,3.381,0.64c0.505,2.266,1.944,3.124,4.311,2.476
		c0.073,0.38,0.153,0.682,0.187,0.988c0.166,1.432,1.201,2.278,2.661,2.137c0.606-0.059,1.208-0.162,1.854-0.25
		c0.296,0.788,0.559,1.488,0.783,2.087c1.264,1.254,2.611,0.85,3.92,0.432c1.416,2.719,2.15,3.058,5.174,2.449
		c0.716,0.734,1.312,1.759,2.183,2.116c0.819,0.337,1.928-0.028,3.077-0.094c0.6,0.558,0.776,1.931,2.027,1.933
		c1.021,0.002,2.043-0.259,3.108-0.409c2.015,2.448,2.303,2.528,5.407,1.445c0.942,0.467,0.987,1.886,2.174,2.11
		c1.045,0.197,1.961-0.123,2.751-0.757c2.392,2.145,2.403,2.146,4.677,0.587c0.73,0.441,1.416,1.155,2.155,1.216
		c0.747,0.062,1.549-0.522,2.394-0.848c1.805,1.466,2.344,1.475,4.592-0.052c0.638,0.542,1.063,1.622,2.135,1.332
		c0.84-0.227,1.613-0.705,2.553-1.134c0.8,0.51,1.772,1.164,2.991,0.633c0.468,0.95,0.669,4.896,0.318,6.588
		c-0.858,0-1.743,0-2.576,0c-0.706-0.554-1.337-1.048-1.981-1.553c-5.287,2.305-9.919,1.943-13.455-3.356
		c-0.392,0.112-0.853,0.193-1.271,0.373c-2.68,1.145-5.466,1.254-8.281,0.787c-1.859-0.309-3.07-1.61-4.121-3.068
		c-0.081-0.111-0.17-0.215-0.313-0.397c-0.443,0.069-0.955,0.039-1.362,0.231c-2.438,1.148-4.851,0.591-7.284,0.007
		c-1.673-0.401-2.928-1.313-3.812-2.786c-0.204-0.341-0.545-0.601-0.755-0.823c-2.931,0.393-5.616,1.588-8.532,0.709
		c-2.606-1.423-4.604-3.531-6.076-6.174c-1.053-1.888-2.467-3.258-4.848-3.196c-0.556,0.015-1.118-0.203-1.678-0.318
		c-2.731-0.562-4.027-2.059-4.418-4.87c-0.224-1.622-0.366-3.235-0.064-4.843c0.18-0.966,0.536-1.899,0.861-3.006
		C102.308,96.723,102.943,96.978,103.647,97.26z"/>
	<path fill-rule="evenodd" clip-rule="evenodd" fill="#faf0e5" class="fill" d="M44.199,151.014c0.256,0.388,0.427,0.647,0.625,0.948
		c-2.644,1.704-4.977,3.72-7.732,5.363c-0.172-0.461-0.278-0.747-0.389-1.045C38.932,154.163,41.38,152.478,44.199,151.014z"/>
	<path fill-rule="evenodd" clip-rule="evenodd" fill="#faf0e5" class="fill" d="M52.361,165.718c0.879-2.67,2.664-4.501,3.972-6.854
		c0.356,0.521,0.604,0.885,0.877,1.286c-0.844,2.238-2.239,4.094-3.594,6.145C53.234,166.12,52.884,165.958,52.361,165.718z"/>
	<path fill-rule="evenodd" clip-rule="evenodd" fill="#faf0e5" class="fill" d="M35.658,145.338c-3.52,0.775-6.742,2.627-10.406,2.905
		c-0.183-0.906,0.455-0.893,0.833-1.077C29.283,145.602,33.803,144.668,35.658,145.338z"/>
	<path fill-rule="evenodd" clip-rule="evenodd" fill="#faf0e5" class="fill" d="M41.548,161.16c-0.603-0.186-1.083-0.333-1.771-0.546
		c1.685-2.474,3.979-3.976,6.084-5.832c0.228,0.211,0.36,0.336,0.643,0.6C44.83,157.334,43.24,159.188,41.548,161.16z"/>
	<path fill-rule="evenodd" clip-rule="evenodd" fill="#faf0e5" class="fill" d="M27.225,150.927c-0.492-0.445-0.926-0.837-1.428-1.29
		c3.809-1.45,8.896-2.895,10.174-2.691C33.074,148.265,30.178,149.584,27.225,150.927z"/>
	<path fill-rule="evenodd" clip-rule="evenodd" fill="#faf0e5" class="fill" d="M38.59,159.742c-0.347-0.422-0.633-0.771-0.984-1.198
		c2.494-1.951,4.877-3.848,7.71-5.482C44.922,154.129,41.691,157.274,38.59,159.742z"/>
	<path fill-rule="evenodd" clip-rule="evenodd" fill="#faf0e5" class="fill" d="M135.508,169.303c0.501,2.474,0.969,4.783,1.456,7.194
		c-0.409,0.121-0.736,0.219-1.144,0.341c-0.904-2.458-1.356-4.892-1.512-7.482C134.727,169.337,135.084,169.321,135.508,169.303z"/>
	<path fill-rule="evenodd" clip-rule="evenodd" fill="#faf0e5" class="fill" d="M53.959,157.972c0.467,0.081,0.867,0.149,1.395,0.239
		c-1.366,2.222-2.656,4.319-4.009,6.518c-0.294-0.276-0.546-0.513-0.862-0.808C51.225,161.731,52.607,159.967,53.959,157.972z"/>
	<path fill-rule="evenodd" clip-rule="evenodd" fill="#faf0e5" class="fill" d="M131.564,170.357c0.566-0.201,0.958-0.34,1.474-0.523
		c0.458,2.318,0.899,4.557,1.365,6.908c-0.526,0-0.922,0-1.466,0C132.488,174.648,132.043,172.579,131.564,170.357z"/>
	<path fill-rule="evenodd" clip-rule="evenodd" fill="#faf0e5" class="fill" d="M68.682,170.301c-0.476-0.418-0.817-0.718-1.226-1.077
		c0.817-1.937,1.601-3.799,2.385-5.662c0.145-0.056,0.288-0.111,0.433-0.167c0.236,0.46,0.473,0.919,0.762,1.478
		C70.355,166.44,69.566,168.259,68.682,170.301z"/>
	<path fill-rule="evenodd" clip-rule="evenodd" fill="#faf0e5" class="fill" d="M41.619,151.098c-1.729,1.277-3.457,2.554-5.268,3.891
		c-0.356-0.532-0.688-1.031-1.121-1.68c1.613-0.867,3.134-1.744,4.717-2.492c0.437-0.207,1.055-0.031,1.59-0.031
		C41.563,150.89,41.592,150.994,41.619,151.098z"/>
	<path fill-rule="evenodd" clip-rule="evenodd" fill="#faf0e5" class="fill" d="M43.044,161.028c1.315-1.478,2.63-2.956,4.008-4.503
		c0.376,0.29,0.699,0.54,1.05,0.811c-0.752,1.223-1.467,2.385-2.322,3.776c-0.711,0.087-1.629,0.2-2.546,0.312
		C43.17,161.292,43.107,161.16,43.044,161.028z"/>
	<path fill-rule="evenodd" clip-rule="evenodd" fill="#faf0e5" class="fill" d="M92.662,175.389c-0.555-0.048-0.908-0.079-1.369-0.119
		c-0.135-2.688,0.884-5.089,1.193-7.604c0.366,0,0.624,0,1.021,0C93.225,170.238,92.955,172.715,92.662,175.389z"/>
	<path fill-rule="evenodd" clip-rule="evenodd" fill="#faf0e5" class="fill" d="M33.602,153.153c-0.756-0.133-1.4-0.248-2.383-0.421
		c2.027-1.529,4.113-2.272,6.14-3.388c0.353,0.234,0.717,0.477,1.237,0.824C36.83,151.224,35.257,152.164,33.602,153.153z"/>
	<path fill-rule="evenodd" clip-rule="evenodd" fill="#faf0e5" class="fill" d="M110.236,176.422c-0.533-0.101-0.898-0.169-1.406-0.266
		c0.079-2.274-0.145-4.525,0.235-6.822c0.279,0.099,0.428,0.121,0.538,0.196c0.193,0.132,0.364,0.299,0.633,0.526
		C110.236,172.084,110.236,174.163,110.236,176.422z"/>
	<path fill-rule="evenodd" clip-rule="evenodd" fill="#faf0e5" class="fill" d="M89.768,168.125c0.474-0.099,0.861-0.179,1.457-0.303
		c-0.449,2.457-0.861,4.709-1.294,7.081c-0.494-0.174-0.784-0.277-1.233-0.436C89.049,172.383,89.393,170.343,89.768,168.125z"/>
	<path fill-rule="evenodd" clip-rule="evenodd" fill="#faf0e5" class="fill" d="M76.084,172.979c-0.527-0.071-0.885-0.119-1.402-0.189
		c0.592-2.039,1.156-3.981,1.746-6.015c0.474-0.029,0.917-0.057,1.509-0.092C77.303,168.836,76.718,170.827,76.084,172.979z"/>
	<path fill-rule="evenodd" clip-rule="evenodd" fill="#faf0e5" class="fill" d="M93.851,175.63c0.176-2.828,0.423-5.399,1.112-8.079
		c0.715,0.415,0.685,0.941,0.646,1.43c-0.175,2.135-0.373,4.269-0.571,6.488C94.688,175.516,94.391,175.557,93.851,175.63z"/>
	<path fill-rule="evenodd" clip-rule="evenodd" fill="#faf0e5" class="fill" d="M119.66,169.625c0.283,2.03,0.551,3.942,0.831,5.938
		c-0.487,0.313-0.898,0.577-1.593,1.024c-0.062-1.312-0.113-2.326-0.162-3.341c-0.049-1.042-0.096-2.085-0.147-3.23
		C118.902,169.902,119.228,169.784,119.66,169.625z"/>
	<path fill-rule="evenodd" clip-rule="evenodd" fill="#faf0e5" class="fill" d="M70.85,171.778c-0.406-0.27-0.736-0.489-1.11-0.737
		c0.588-1.95,1.327-3.727,2.361-5.501c0.454,0.211,0.81,0.376,1.166,0.542C72.448,168.012,71.676,169.832,70.85,171.778z"/>
	<path fill-rule="evenodd" clip-rule="evenodd" fill="#faf0e5" class="fill" d="M74.839,166.523c-0.168,2.094-0.492,4.141-1.314,6.203
		c-0.526-0.163-0.956-0.296-1.511-0.467C72.608,170.112,73.443,168.212,74.839,166.523z"/>
	<path fill-rule="evenodd" clip-rule="evenodd" fill="#faf0e5" class="fill" d="M113.697,171.149c0.525-0.042,0.893-0.07,1.43-0.113
		c0,1.926,0,3.802,0,5.801c-0.232,0-0.613,0-1.008,0C113.493,174.969,113.553,173.14,113.697,171.149z"/>
	<path fill-rule="evenodd" clip-rule="evenodd" fill="#faf0e5" class="fill" d="M117.809,176.824c-0.436,0.082-0.742,0.14-1.198,0.225
		c-0.545-2.171-0.388-4.271-0.126-6.464c0.275-0.077,0.527-0.146,0.9-0.25C117.529,172.537,117.668,174.649,117.809,176.824z"/>
	<path fill-rule="evenodd" clip-rule="evenodd" fill="#faf0e5" class="fill" d="M58.123,161.346c0.446,0.397,0.688,0.613,0.939,0.837
		c-1.002,1.716-1.909,3.27-2.883,4.936c-0.378-0.089-0.757-0.179-1.4-0.331C55.928,164.921,56.957,163.245,58.123,161.346z"/>
	<path fill-rule="evenodd" clip-rule="evenodd" fill="#faf0e5" class="fill" d="M64.568,167.482c-0.614-0.175-1.062-0.302-1.716-0.488
		c0.717-1.346,1.393-2.611,2.097-3.932c0.335-0.042,0.697-0.089,1.287-0.164C65.829,164.586,65.174,165.998,64.568,167.482z"/>
	<path fill-rule="evenodd" clip-rule="evenodd" fill="#faf0e5" class="fill" d="M77.408,172.392c0.694-2.182,1.334-4.19,1.998-6.276
		c0.252-0.081,0.553-0.18,0.888-0.289c0.06,0.182,0.159,0.322,0.131,0.427c-0.468,1.683-0.948,3.362-1.438,5.039
		C78.803,171.928,78.446,172.387,77.408,172.392z"/>
	<path fill-rule="evenodd" clip-rule="evenodd" fill="#faf0e5" class="fill" d="M29.731,152.278c-0.388-0.155-0.755-0.301-1.341-0.535
		c2.641-1.701,5.342-2.622,8.084-3.48C34.443,149.84,32.016,150.737,29.731,152.278z"/>
	<path fill-rule="evenodd" clip-rule="evenodd" fill="#faf0e5" class="fill" d="M69.15,162.354c-0.951,2.234-1.782,4.187-2.645,6.215
		c-0.264-0.121-0.497-0.229-0.892-0.409c0.722-1.914,1.418-3.765,2.157-5.725C68.167,162.413,68.561,162.389,69.15,162.354z"/>
	<path fill-rule="evenodd" clip-rule="evenodd" fill="#faf0e5" class="fill" d="M87.661,173.936c-0.587-0.25-0.921-0.392-1.421-0.605
		c0.186-0.992,0.283-1.976,0.57-2.901c0.213-0.69,0.103-1.654,1.27-1.989C88.787,170.326,87.658,171.956,87.661,173.936z"/>
	<path fill-rule="evenodd" clip-rule="evenodd" fill="#faf0e5" class="fill" d="M111.338,170.537c0.568,0.265,0.853,0.397,1.197,0.559
		c0,1.865,0,3.692,0,5.563c-0.295,0-0.522,0-0.828,0C111.262,174.702,111.328,172.75,111.338,170.537z"/>
	<path fill-rule="evenodd" clip-rule="evenodd" fill="#faf0e5" class="fill" d="M107.502,169.117c0.136,0.189,0.377,0.371,0.371,0.544
		c-0.062,1.862-0.166,3.724-0.266,5.758c-0.443-0.208-0.686-0.319-0.898-0.418C106.361,172.583,106.704,169.906,107.502,169.117z"/>
	<path fill-rule="evenodd" clip-rule="evenodd" fill="#faf0e5" class="fill" d="M131.717,176.61c-0.625-0.141-0.924-0.208-1.211-0.272
		c-0.547-1.696-1.013-3.323-0.782-5.145c0.192-0.066,0.396-0.136,0.785-0.27C130.9,172.77,131.277,174.54,131.717,176.61z"/>
	<path fill-rule="evenodd" clip-rule="evenodd" fill="#faf0e5" class="fill" d="M121.42,169.223c0.691,1.633,1.012,3.308,1.2,5.068
		c-0.393,0.188-0.716,0.343-1.23,0.589C121.488,172.89,120.409,171.099,121.42,169.223z"/>
	<path fill-rule="evenodd" clip-rule="evenodd" fill="#faf0e5" class="fill" d="M96.164,175.434c0.225-2.181,0.424-4.126,0.629-6.127
		c0.934,0.033,0.948,0.626,0.917,1.181c-0.079,1.416-0.2,2.829-0.31,4.304C97.051,174.973,96.737,175.136,96.164,175.434z"/>
	<path fill-rule="evenodd" clip-rule="evenodd" fill="#faf0e5" class="fill" d="M136.725,169.257c1.343,0.352,1.164,1.263,1.281,1.852
		c0.306,1.549,1.201,3.083,0.41,4.965c-0.976-1.065-0.768-2.262-1.034-3.295C137.102,171.701,136.965,170.585,136.725,169.257z"/>
	<path fill-rule="evenodd" clip-rule="evenodd" fill="#faf0e5" class="fill" d="M63.43,163.238c-0.684,1.411-1.234,2.564-1.803,3.708
		c-0.33,0.664-0.343,0.658-1.447,0.789c0.428-1.572,1.103-2.946,1.886-4.353C62.474,163.339,62.871,163.298,63.43,163.238z"/>
	<path fill-rule="evenodd" clip-rule="evenodd" fill="#faf0e5" class="fill" d="M60.73,163.025c-0.558,1.738-1.362,3.197-2.052,4.778
		c-0.458-0.111-0.804-0.193-1.21-0.292c0.067-0.265,0.079-0.455,0.158-0.611C58.895,164.402,59.635,163.433,60.73,163.025z"/>
	<path fill-rule="evenodd" clip-rule="evenodd" fill="#faf0e5" class="fill" d="M167.141,119.247c-0.132,1.426-0.59,1.965-2.016,2.25
		c-0.305-0.597-0.629-1.236-0.997-1.957C165.215,119.117,166.17,119.163,167.141,119.247z"/>
	<path fill-rule="evenodd" clip-rule="evenodd" fill="#faf0e5" class="fill" d="M50.951,158.479c0.387,0,0.658,0,1.16,0
		c-0.879,1.501-1.674,2.858-2.529,4.32c-0.316-0.282-0.54-0.483-0.861-0.768C49.471,160.835,50.191,159.688,50.951,158.479z"/>
	<path fill-rule="evenodd" clip-rule="evenodd" fill="#faf0e5" class="fill" d="M108.035,100.079c0.654,0.6,1.301,1.195,1.971,1.81
		c-0.426,0.915-1.197,0.783-1.817,0.925C107.098,101.793,107.057,101.271,108.035,100.079z"/>
	<path fill-rule="evenodd" clip-rule="evenodd" fill="#faf0e5" class="fill" d="M102.199,94.991c0.334-0.706,0.687-1.451,1.181-2.499
		c0.487,1.047,0.848,1.823,1.188,2.559C103.641,96.225,103.209,96.213,102.199,94.991z"/>
	<path fill-rule="evenodd" clip-rule="evenodd" fill="#faf0e5" class="fill" d="M170.99,118.748c0.197,1.771,0.094,1.999-1.089,2.477
		c-0.808-0.353-1.114-1.041-1.202-2.066C169.472,119.02,170.225,118.885,170.99,118.748z"/>
	<path fill-rule="evenodd" clip-rule="evenodd" fill="#faf0e5" class="fill" d="M128.686,112.684c-2.071,1.14-3.487,0.465-3.584-1.785
		C126.308,111.563,127.57,111.855,128.686,112.684z"/>
	<path fill-rule="evenodd" clip-rule="evenodd" fill="#faf0e5" class="fill" d="M145.996,117.986c1.222,0.268,2.149,0.47,3.168,0.692
		c-0.355,0.887-0.859,1.376-1.692,1.594C146.564,119.967,146.254,119.241,145.996,117.986z"/>
	<path fill-rule="evenodd" clip-rule="evenodd" fill="#faf0e5" class="fill" d="M152.354,121.041c-1.398-0.589-1.498-0.751-1.338-2.09
		c0.933,0.061,1.874,0.123,2.816,0.185c0.05,0.095,0.099,0.191,0.146,0.286C153.442,119.958,152.904,120.493,152.354,121.041z"/>
	<path fill-rule="evenodd" clip-rule="evenodd" fill="#faf0e5" class="fill" d="M159.845,119.456c0.998,0,1.88,0,2.837,0
		c-0.123,1.116-0.852,1.572-1.609,1.963C159.895,120.836,159.895,120.836,159.845,119.456z"/>
	<path fill-rule="evenodd" clip-rule="evenodd" fill="#faf0e5" class="fill" d="M105.493,96.626c0.511,0.77,0.952,1.433,1.517,2.286
		c-0.636,0.243-1.172,0.447-1.66,0.634C104.293,98.458,104.318,97.8,105.493,96.626z"/>
	<path fill-rule="evenodd" clip-rule="evenodd" fill="#faf0e5" class="fill" d="M124.59,174.326c-0.383-0.212-0.713-0.287-0.746-0.431
		c-0.313-1.375-0.577-2.76-0.912-4.432c0.502,0.248,0.805,0.301,0.843,0.432C124.168,171.253,124.664,172.597,124.59,174.326z"/>
	<path fill-rule="evenodd" clip-rule="evenodd" fill="#faf0e5" class="fill" d="M105.4,174.675c-1.314-1.151-0.819-2.354-0.793-3.416
		c0.023-0.92,0.16-0.972,1.075-1.338C105.592,171.453,105.505,172.92,105.4,174.675z"/>
	<path fill-rule="evenodd" clip-rule="evenodd" fill="#faf0e5" class="fill" d="M82.062,166.594c0.078,1.805-0.583,3.382-1.544,5.14
		C80.245,170.342,80.942,167.97,82.062,166.594z"/>
	<path fill-rule="evenodd" clip-rule="evenodd" fill="#faf0e5" class="fill" d="M158.188,119.776c-0.5,0.488-1,0.977-1.467,1.431
		c-1.005-0.405-1.424-0.989-1.426-2.029c0.959,0.093,1.859,0.182,2.758,0.269C158.098,119.556,158.143,119.666,158.188,119.776z"/>
	<path fill-rule="evenodd" clip-rule="evenodd" fill="#faf0e5" class="fill" d="M129.116,175.831c-0.434-0.275-0.794-0.373-0.856-0.565
		c-0.409-1.292-0.758-2.603-0.774-4.069c0.347,0.048,0.565,0.079,0.868,0.121C128.592,172.729,128.826,174.117,129.116,175.831z"/>
	<path fill-rule="evenodd" clip-rule="evenodd" fill="#faf0e5" class="fill" d="M133.519,114.816c-0.517,0.203-1.03,0.406-1.499,0.59
		c-1.276-0.554-1.551-0.915-1.564-2.188c1.07,0.424,2.072,0.822,3.075,1.219C133.527,114.564,133.522,114.69,133.519,114.816z"/>
	<path fill-rule="evenodd" clip-rule="evenodd" fill="#faf0e5" class="fill" d="M143.928,117.667c-1.553,1.513-2.762,1.202-3.291-0.724
		C141.861,116.635,142.761,117.452,143.928,117.667z"/>
	<path fill-rule="evenodd" clip-rule="evenodd" fill="#faf0e5" class="fill" d="M83.01,171.601c-0.232,0.031-0.37,0.077-0.502,0.059
		c-0.13-0.018-0.251-0.098-0.406-0.164c0.035-0.198,0.039-0.39,0.104-0.56c0.395-1.051,0.803-2.098,1.23-3.208
		c0.274,0.099,0.477,0.172,0.795,0.287c-0.224,0.676-0.421,1.291-0.63,1.902C83.407,170.486,83.203,171.053,83.01,171.601z"/>
	<path fill-rule="evenodd" clip-rule="evenodd" fill="#faf0e5" class="fill" d="M120.424,108.809c0.918,0.448,1.803,0.879,2.693,1.314
		c-0.455,0.756-1.02,1.012-1.705,0.824C120.653,110.738,120.348,110.108,120.424,108.809z"/>
	<path fill-rule="evenodd" clip-rule="evenodd" fill="#faf0e5" class="fill" d="M153.485,26.599c-0.693,1.075-1.169,1.812-1.647,2.552
		c-0.719-0.417-0.743-0.939-0.523-1.437c0.221-0.504,0.508-1.021,0.9-1.385C152.365,26.19,152.893,26.46,153.485,26.599z"/>
	<path fill-rule="evenodd" clip-rule="evenodd" fill="#faf0e5" class="fill" d="M85.367,168.389c0.354,0.123,0.519,0.179,0.756,0.262
		c-0.335,1.201-0.657,2.354-1.002,3.585c-0.319-0.075-0.572-0.135-1.025-0.242C84.521,170.786,84.918,169.661,85.367,168.389z"/>
	<path fill-rule="evenodd" clip-rule="evenodd" fill="#faf0e5" class="fill" d="M99.845,173.83c-0.302,0.111-0.597,0.22-1.136,0.418
		c0.078-1.256,0.146-2.346,0.216-3.445c0.231-0.05,0.365-0.106,0.491-0.096c0.132,0.01,0.26,0.086,0.429,0.148
		C99.845,171.788,99.845,172.716,99.845,173.83z"/>
	<path fill-rule="evenodd" clip-rule="evenodd" fill="#faf0e5" class="fill" d="M136.121,116.909c-0.522-0.459-0.91-0.95-0.562-1.814
		c0.97,0.328,1.89,0.638,2.901,0.98C137.789,116.967,137.024,117.124,136.121,116.909z"/>
	<path fill-rule="evenodd" clip-rule="evenodd" fill="#faf0e5" class="fill" d="M115.709,107.715c-0.039-0.372-0.088-0.825-0.173-1.625
		c1.119,0.606,1.984,1.074,3.005,1.626C117.488,108.406,116.659,108.542,115.709,107.715z"/>
	<path fill-rule="evenodd" clip-rule="evenodd" fill="#faf0e5" class="fill" d="M137.771,21.372c0.408-0.838,1.043-1.03,1.816-0.831
		c0.684,0.177,0.992,0.651,0.969,1.418C139.535,22.07,138.602,22.01,137.771,21.372z"/>
	<path fill-rule="evenodd" clip-rule="evenodd" fill="#faf0e5" class="fill" d="M149.583,174.029c-0.466-0.092-0.849-0.09-0.875-0.186
		c-0.295-1.06-0.535-2.135-0.606-3.264C149.29,171.366,149.39,172.571,149.583,174.029z"/>
	<path fill-rule="evenodd" clip-rule="evenodd" fill="#faf0e5" class="fill" d="M28.762,144.862c2.088-1.112,4.316-1.468,6.603-1.525
		c0.017,0.095,0.036,0.189,0.052,0.285C33.198,144.035,30.979,144.448,28.762,144.862z"/>
	<path fill-rule="evenodd" clip-rule="evenodd" fill="#faf0e5" class="fill" d="M49.413,158.165c-0.442,1.248-0.796,2.551-2.139,3.174
		C47.515,159.971,48.285,158.944,49.413,158.165z"/>
	<path fill-rule="evenodd" clip-rule="evenodd" fill="#faf0e5" class="fill" d="M113.727,104.987c-1.104,0.435-1.104,0.435-2.233-0.197
		c-0.109-0.374-0.245-0.843-0.382-1.313c0.093-0.072,0.186-0.145,0.278-0.217C112.116,103.798,112.844,104.334,113.727,104.987z"/>
	<path fill-rule="evenodd" clip-rule="evenodd" fill="#faf0e5" class="fill" d="M146.91,173.588c-0.27-0.326-0.727-0.63-0.768-0.982
		c-0.08-0.715-0.479-1.513,0.217-2.333c0.748,0.99,0.705,2.058,0.886,3.062C147.133,173.419,147.021,173.503,146.91,173.588z"/>
	<path fill-rule="evenodd" clip-rule="evenodd" fill="#faf0e5" class="fill" d="M141.063,170.838c0.609,0.126,0.969,0.2,1.363,0.281
		c0.066,0.325,0.133,0.594,0.175,0.868c0.032,0.229,0.035,0.465,0.057,0.764c-0.332,0.121-0.625,0.227-1.094,0.397
		C141.396,172.371,141.248,171.686,141.063,170.838z"/>
	<path fill-rule="evenodd" clip-rule="evenodd" fill="#faf0e5" class="fill" d="M100.881,173.704c-0.097-1.145-0.307-2.131,0.604-3.069
		C101.826,172.527,101.727,173.113,100.881,173.704z"/>
	<path fill-rule="evenodd" clip-rule="evenodd" fill="#faf0e5" class="fill" d="M145.014,172.905c-0.539-0.074-0.809-0.112-1.193-0.166
		c-0.049-0.578-0.096-1.122-0.145-1.704c0.342-0.111,0.59-0.191,0.995-0.323C144.787,171.455,144.884,172.076,145.014,172.905z"/>
	<path fill-rule="evenodd" clip-rule="evenodd" fill="#faf0e5" class="fill" d="M103.367,170.621c0,1.011,0,1.991,0,3.153
		C102.458,172.787,102.529,171.409,103.367,170.621z"/>
	<path fill-rule="evenodd" clip-rule="evenodd" fill="#faf0e5" class="fill" d="M147.266,24.754c-0.569-0.375-1.14-0.75-1.772-1.168
		c0.938-0.531,0.938-0.531,1.981-0.047c0.025,0.31,0.055,0.667,0.084,1.023C147.461,24.627,147.363,24.69,147.266,24.754z"/>
	<path fill-rule="evenodd" clip-rule="evenodd" fill="#faf0e5" class="fill" d="M140.145,174.128c-0.723-1.147-0.743-2.339-0.962-3.608
		C140.066,171.213,140.508,172.89,140.145,174.128z"/>
	<path fill-rule="evenodd" clip-rule="evenodd" fill="#faf0e5" class="fill" d="M126.938,174.759c-1.124-0.532-1.343-1.206-1.072-2.719
		C126.814,172.675,126.559,173.69,126.938,174.759z"/>
	<path fill-rule="evenodd" clip-rule="evenodd" fill="#faf0e5" class="fill" d="M141.904,22.236c1.065-1.071,1.619-0.88,2.06,0.715
		C143.229,22.696,142.604,22.479,141.904,22.236z"/>
	<path fill-rule="evenodd" clip-rule="evenodd" fill="#faf0e5" class="fill" d="M151.758,174.218c-0.376-0.075-0.688-0.047-0.851-0.189
		c-0.335-0.292-0.343-0.694-0.21-1.717C151.525,172.441,151.525,172.441,151.758,174.218z"/>
	<path fill-rule="evenodd" clip-rule="evenodd" fill="#faf0e5" class="fill" d="M152.768,172.52c0.987-0.363,1.14,0.154,1.248,0.882
		c-0.275,0.149-0.572,0.31-0.979,0.528C152.934,173.389,152.857,172.992,152.768,172.52z"/>
	<path fill-rule="evenodd" clip-rule="evenodd" fill="#faf0e5" class="fill" d="M136.439,21.396c-0.529,0-1.059,0-1.589,0
		c-0.037-0.085-0.075-0.17-0.114-0.256c0.356-0.202,0.698-0.517,1.074-0.563c0.223-0.027,0.498,0.368,0.748,0.573
		C136.519,21.232,136.479,21.314,136.439,21.396z"/>
	<path fill-rule="evenodd" clip-rule="evenodd" fill="#faf0e5" class="fill" d="M155.593,24.706c-0.333,0.277-0.666,0.554-1.088,0.904
		C154.383,24.462,154.386,24.46,155.593,24.706z"/>
	<path fill-rule="evenodd" clip-rule="evenodd" fill="#faf0e5" class="fill" d="M133.068,20.503c0.251,0.462,0.33,0.605,0.467,0.856
		c-0.291,0.101-0.509,0.176-0.976,0.338C132.754,21.24,132.854,21.005,133.068,20.503z"/>
	<path fill-rule="evenodd" clip-rule="evenodd" fill="#faf0e5" class="fill" d="M148.924,25.5c0.162,0.024,0.366-0.004,0.477,0.084
		c0.161,0.127,0.255,0.339,0.206,0.749c-0.276-0.168-0.552-0.336-0.828-0.504C148.826,25.719,148.876,25.609,148.924,25.5z"/>
	<path fill-rule="evenodd" clip-rule="evenodd" fill="#faf0e5" class="fill" d="M125.493,171.403c-0.017-0.205-0.03-0.367-0.047-0.569
		C125.947,171.066,125.947,171.066,125.493,171.403z"/>
</g>
</svg>
