<svg version="1.1" id="svg" xmlns="http://www.w3.org/2000/svg" xmlns:xlink="http://www.w3.org/1999/xlink" x="0px" y="0px"
	 width="200px" height="200px" viewBox="0 0 200 200" enable-background="new 0 0 200 200" xml:space="preserve">
<path class="stroke" fill="#6a2906"  d="M121.826,79.555c-0.539,2.468-1.008,4.933-1.623,7.361c-1.07,4.231-2.207,8.445-3.356,12.654
	c-1.315,4.812-2.911,9.532-4.817,14.141c-0.418,1.008-0.746,2.101-1.668,3.083c-0.279-1.617,0.326-3.12-0.453-4.546
	c-0.443,0.271-0.803,0.492-1.164,0.712c-0.074-0.067-0.148-0.134-0.222-0.203c0.219-0.391,0.444-0.78,0.657-1.177
	c1.16-2.179,2.488-4.29,3.445-6.555c2.844-6.721,4.639-13.778,6.222-20.877c0.733-3.287,1.165-6.641,1.702-9.97
	c0.098-0.603,0.055-1.23,0.049-1.847c0-0.115-0.128-0.23-0.238-0.414c-0.267,0.071-0.525,0.14-0.844,0.225
	c-0.133,0.967-0.242,1.906-0.395,2.838c-0.228,1.403-0.492,2.8-0.729,4.202c-0.309,1.824-0.494,3.677-0.926,5.47
	c-1.318,5.444-2.719,10.862-4.586,16.158c-1.08,3.065-2.385,5.991-4.104,8.738c-0.065,0.103-0.205,0.161-0.368,0.286
	c-0.149-0.448-0.28-0.843-0.401-1.21c0.439-0.926,0.926-1.756,1.24-2.647c0.356-1.019,0.812-2.099,0.781-3.14
	c-0.07-2.33,0.558-4.397,1.322-6.581c2.36-6.719,4.717-13.461,5.976-20.503c0.526-2.945,0.86-5.924,1.265-8.89
	c0.035-0.259-0.064-0.537-0.107-0.841c-1.17-0.101-1.086,0.777-1.195,1.412c-0.605,3.551-1.037,7.141-1.809,10.655
	c-0.792,3.604-1.867,7.148-2.893,10.698c-0.552,1.908-1.348,3.747-1.873,5.66c-0.395,1.436-1.023,2.741-1.719,4.029
	c-0.105,0.193-0.329,0.321-0.566,0.543c-0.032-0.249-0.083-0.356-0.051-0.424c1.172-2.426,1.562-4.963,1.172-7.635
	c-0.064-0.437,0.043-0.965,0.247-1.362c1.884-3.668,2.837-7.62,3.8-11.598c1.471-6.07,1.971-12.267,2.714-18.433
	c0.11-0.925,0.016-1.875,0.016-2.876c-0.419-0.035-0.681-0.057-1.132-0.096c0,0.775,0.07,1.481-0.014,2.169
	c-0.327,2.721-0.662,5.443-1.071,8.152c-0.509,3.376-0.999,6.758-1.675,10.103c-0.524,2.597-1.287,5.148-2.015,7.699
	c-0.286,0.999-0.765,1.942-1.155,2.91c-0.118-0.027-0.234-0.054-0.354-0.082c1.142-3.014,1.165-5.989-0.104-9.21
	c-0.219-1.971,0.339-4.117,0.822-6.303c0.971-4.4,1.794-8.835,2.598-13.271c0.262-1.44,0.336-2.924,0.392-4.392
	c0.062-1.66,0.006-3.324,0.005-4.987c-0.002-2.32-0.002-4.641-0.002-7.006c-0.403-0.119-0.694-0.205-1.082-0.319
	c-0.105,0.405-0.25,0.71-0.252,1.017c-0.018,1.789,0.058,3.58-0.01,5.367c-0.149,4.017,0.209,8.043-0.83,12.037
	c-0.881,3.386-1.271,6.897-1.941,10.341c-0.128,0.665-0.166,1.452-1.014,2.219c0.098-1.223,0.119-2.12,0.247-3.002
	c0.439-3.008,0.92-6.011,1.374-9.018c0.064-0.421,0.076-0.852,0.104-1.279c0.285-4.456-0.376-8.896-0.121-13.371
	c0.191-3.345-0.268-6.729-0.448-10.094c-0.006-0.124-0.132-0.241-0.257-0.46c-0.328,0.088-0.666,0.178-1.049,0.279
	c0,0.758-0.036,1.417,0.006,2.073c0.202,3.174,0.604,6.334,0.339,9.533c-0.126,1.542,0.046,3.108,0.071,4.663
	c0.043,2.466,0.236,4.943,0.07,7.396c-0.176,2.593-0.691,5.162-1.077,7.738c-0.041,0.276-0.201,0.535-0.358,0.934
	c-0.434-0.879-0.779-1.58-1.164-2.358c-0.529,0.333-0.914,0.577-1.441,0.91c-0.14-0.685-0.288-1.266-0.371-1.856
	c-0.576-4.126-0.298-8.259-0.037-12.387c0.365-5.741,0.787-11.478,1.168-17.218c0.037-0.563-0.033-1.136-0.084-1.701
	c-0.01-0.115-0.164-0.217-0.303-0.392c-0.282,0.099-0.57,0.2-0.828,0.291c-0.047,0.223-0.098,0.36-0.104,0.498
	c-0.182,4.079-0.312,8.161-0.549,12.236c-0.237,4.121-0.935,8.205-0.896,12.354c0.031,3.42,0.086,6.818,1.174,10.162
	c-0.293,0.697-0.602,1.429-0.914,2.17c-1.271-0.489-1.257-1.567-1.381-2.53c-0.379-2.924-0.656-5.851-0.629-8.811
	c0.027-3.137-0.232-6.278-0.144-9.412c0.102-3.56,0.454-7.112,0.686-10.669c0.033-0.508,0.005-1.021,0.005-1.563
	c-0.387,0-0.648,0-0.945,0c-0.098,0.276-0.215,0.489-0.247,0.714c-1.181,8.219-0.652,16.479-0.516,24.724
	c0.04,2.312,0.513,4.616,0.796,7.001c-0.426,1.284-0.887,2.672-1.348,4.061c-0.332-0.487-0.464-0.938-0.57-1.395
	c-0.615-2.649-0.781-5.343-0.984-8.052c-0.4-5.362-0.713-10.716-0.461-16.094c0.051-1.092,0.032-2.188,0.042-3.282
	c0.005-0.488-0.005-0.976-0.851-1.13c-0.117,0.504-0.328,1.02-0.344,1.541c-0.1,3.324-0.33,6.655-0.189,9.969
	c0.223,5.205,0.27,10.427,1.348,15.58c0.518,2.474,0.988,4.904,2.437,7.126c-0.897,2.741-1.406,5.56-0.811,8.507
	c-0.282-0.229-0.489-0.47-0.649-0.738c-1.777-2.958-2.481-6.266-2.992-9.606c-0.807-5.271-1.143-10.585-1.168-15.92
	c-0.007-1.519-0.137-3.037-0.226-4.554c-0.007-0.119-0.136-0.231-0.261-0.428c-0.286,0.104-0.564,0.207-0.879,0.322
	c0,0.313-0.007,0.548,0.002,0.782c0.109,3.419,0.141,6.843,0.356,10.255c0.214,3.362,0.49,6.73,0.968,10.063
	c0.477,3.333,1.271,6.613,2.99,9.554c-0.73,3.215-0.824,6.341,0.488,9.463c-0.441-0.175-0.811-0.39-0.959-0.708
	c-0.899-1.936-2.047-3.821-2.55-5.862c-0.94-3.822-1.595-7.723-2.179-11.62c-0.363-2.437-0.373-4.928-0.559-7.392
	c-0.045-0.597-0.146-1.188-0.242-1.945c-0.488,0.158-0.805,0.261-1.137,0.37c0,0.451-0.021,0.782,0.003,1.11
	c0.182,2.509,0.345,5.021,0.57,7.527c0.124,1.369,0.323,2.733,0.548,4.09c0.361,2.2,0.742,4.397,1.17,6.585
	c0.559,2.875,1.84,5.472,3.17,8.052c0.316,0.614,0.608,1.339,0.598,2.008c-0.04,2.449,0.166,4.841,1.035,7.15
	c0.255,0.673,0.102,1.249-0.493,1.94c-0.528-1.098-0.988-2.022-1.422-2.958c-1.704-3.673-3.246-7.392-3.919-11.429
	c-0.438-2.623-1.033-5.22-1.588-7.822c-0.1-0.472-0.345-0.913-0.529-1.384c-1.041,0.28-0.906,0.901-0.781,1.518
	c0.544,2.699,1.149,5.387,1.617,8.099c1.027,5.942,3.613,11.242,6.542,16.484c0.163,1.25,0.337,2.582,0.522,4.002
	c-0.301-0.092-0.54-0.092-0.646-0.209c-1.105-1.233-2.424-2.35-3.23-3.758c-2.117-3.699-3.318-7.758-4.085-11.946
	c-0.288-1.574-0.544-3.164-1.253-4.737c-0.362,0.127-0.637,0.223-1.026,0.361c0.312,1.23,0.69,2.358,0.872,3.517
	c0.641,4.096,1.539,8.104,3.453,11.827c0.871,1.695,1.799,3.303,3.274,4.603c0.733,0.646,1.362,1.667,1.554,2.615
	c0.263,1.305,0.064,2.702,0.064,4.105c-0.134-0.041-0.297-0.04-0.379-0.121c-2.325-2.278-4.436-4.731-5.644-7.801
	c-0.747-1.897-1.284-3.876-1.987-5.793c-1.986-5.43-2.812-11.033-2.596-16.801c0.016-0.4-0.059-0.804-0.094-1.246
	c-1.086-0.038-1.232,0.561-1.223,1.282c0.048,3.326-0.008,6.682,0.769,9.926c0.894,3.738,1.991,7.433,3.138,11.104
	c0.986,3.163,2.605,6.009,4.894,8.443c1.136,1.209,2.315,2.382,3.376,3.654c0.722,0.864,1.252,1.888,1.902,2.814
	c1.043,1.486,2.227,2.838,3.738,3.558c0,2.524,0.139,4.861-0.034,7.173c-0.22,2.934-0.406,5.864-0.372,8.805
	c0.035,2.709,0.1,5.418,0.156,8.127c0.073,3.395,0.467,6.737,1.706,9.93c0.195,0.505,0.462,0.984,0.732,1.553
	c0.306-0.214,0.476-0.3,0.604-0.427c0.993-0.98,0.821-2.158,0.526-3.336c-1.123-4.469-1.391-9.012-1.159-13.591
	c0.194-3.845,0.493-7.685,0.691-11.529c0.142-2.748,0.193-5.5,0.274-7.95c1.379-1.583,2.685-2.905,3.775-4.384
	c1.228-1.663,2.057-3.585,3.133-5.359c2.296-3.785,3.837-7.964,5.169-12.182c2.132-6.753,4.046-13.571,5.534-20.501
	c0.428-1.997,0.902-3.985,1.336-5.981c0.045-0.209-0.043-0.447-0.078-0.75C122.525,79.469,122.273,79.5,121.826,79.555z"/>
<path fill-rule="evenodd" clip-rule="evenodd" fill="#ffe861" class="fill" d="M100.601,99.344c-2.189-2.543-2.846-5.24-2.169-8.314
	c1.763,0.647,3.35,3.368,3.643,6.29C101.676,97.867,101.212,98.505,100.601,99.344z"/>
<path fill-rule="evenodd" clip-rule="evenodd" fill="#ffe861" class="fill" d="M98.004,117.594c2.932,2.13,4.529,6.035,3.367,8.067
	C98.402,124.71,97.314,121.617,98.004,117.594z"/>
<path fill-rule="evenodd" clip-rule="evenodd" fill="#ffe861" class="fill" d="M106.24,98.882c-0.195-0.593-0.362-1.035-0.486-1.489
	c-0.107-0.403-0.167-0.82-0.269-1.328c-0.552-0.073-1.054-0.141-1.692-0.226c0.256-0.586,0.473-1.153,0.746-1.691
	c0.387-0.76,0.797-1.511,1.23-2.246c0.365-0.623,0.846-1.133,1.592-1.3C108.489,92.674,107.92,97.254,106.24,98.882z"/>
<path fill-rule="evenodd" clip-rule="evenodd" fill="#ffe861" class="fill" d="M106.514,109.297c0.278,2.047,0.649,4.026,0.037,6.006
	c-0.268,0.859-0.837,1.558-1.86,1.88c-0.425-1.155-0.828-2.251-1.218-3.311C104.044,111.701,105.129,110.02,106.514,109.297z"/>
<path fill-rule="evenodd" clip-rule="evenodd" fill="#ffe861" class="fill" d="M100.734,80.846c1.303,0.893,2.084,2.112,2.416,3.733
	c-0.895,1.189-1.77,2.351-2.653,3.526C99.334,86.42,99.471,82.775,100.734,80.846z"/>
<path fill-rule="evenodd" clip-rule="evenodd" fill="#ffe861" class="fill" d="M107.043,117.113c0.777,3.074-1.353,7.557-3.947,8.285
	C103.607,122.226,104.52,119.36,107.043,117.113z"/>
<path fill-rule="evenodd" clip-rule="evenodd" fill="#ffe861" class="fill" d="M99.191,107.46c-1.932-2.403-2.412-4.837-1.371-7.871
	c1.432,1.542,2.301,3.074,2.795,4.936C100.176,105.431,99.713,106.385,99.191,107.46z"/>
<path fill-rule="evenodd" clip-rule="evenodd" fill="#ffe861" class="fill" d="M102.674,93.631c-0.526-0.809-0.984-1.512-1.438-2.209
	c1.771-3.646,1.958-3.926,3.23-4.833C105.744,88.442,105.181,90.769,102.674,93.631z"/>
<path fill-rule="evenodd" clip-rule="evenodd" fill="#ffe861" class="fill" d="M98.123,109.146c1.395,0.704,1.842,1.61,2.531,5.177
	c-0.249,0.653-0.528,1.391-0.828,2.18C97.654,114.5,96.895,111.347,98.123,109.146z"/>
<path fill-rule="evenodd" clip-rule="evenodd" fill="#ffe861" class="fill" d="M105.264,84.617c0.492-1.365,0.801-1.751,2.404-2.955
	c0.632,1.536,0.484,3.069,0.295,4.577c-0.174,1.375-0.686,2.224-1.643,2.893c-0.135-0.857-0.211-1.626-0.387-2.372
	C105.76,86.024,105.484,85.312,105.264,84.617z"/>
<path fill-rule="evenodd" clip-rule="evenodd" fill="#ffe861" class="fill" d="M101.848,79.43c-0.35-2.278-0.968-4.439-0.238-6.667
	c2.029,1.303,2.637,4.456,1.215,7.898C102.485,80.235,102.182,79.853,101.848,79.43z"/>
<path fill-rule="evenodd" clip-rule="evenodd" fill="#ffe861" class="fill" d="M108.346,101.318c0.33,2.647-0.99,5.759-2.715,6.536
	c-0.25-0.854-0.498-1.701-0.777-2.654C105.619,103.666,106.6,102.268,108.346,101.318z"/>
<path fill-rule="evenodd" clip-rule="evenodd" fill="#ffe861" class="fill" d="M102.172,111.766c-1.678-2.062-1.736-4.659-0.155-6.784
	C103.852,107.048,103.901,109.153,102.172,111.766z"/>
<path fill-rule="evenodd" clip-rule="evenodd" fill="#ffe861" class="fill" d="M104.482,82.82c-0.688-0.627-0.523-1.405-0.406-2.118
	c0.354-2.164,1.213-3.548,2.775-4.521c0.119,0.664,0.232,1.291,0.344,1.916C107.059,80.09,105.893,81.479,104.482,82.82z"/>
<path fill-rule="evenodd" clip-rule="evenodd" fill="#ffe861" class="fill" d="M103.742,102.936c-0.906-0.075-1.521-0.125-2.132-0.175
	c-0.2-2.354,0.741-4.274,2.601-5.069C104.686,99.576,104.21,101.299,103.742,102.936z"/>
<path fill-rule="evenodd" clip-rule="evenodd" fill="#ffe861" class="fill" d="M102.337,120.126c-0.456-0.624-0.835-1.144-1.184-1.622
	c-0.08-1.827,0.104-2.517,0.979-3.729C103.456,116.416,103.6,118.608,102.337,120.126z"/>
<path fill-rule="evenodd" clip-rule="evenodd" fill="#ffe861" class="fill" d="M104.786,68.987c0.937,1.719,0.693,3.412,0.815,5.03
	c0.03,0.398-0.254,0.82-0.425,1.321C103.896,74.055,103.715,71.16,104.786,68.987z"/>
</svg>
