<svg version="1.1" id="svg" xmlns="http://www.w3.org/2000/svg" xmlns:xlink="http://www.w3.org/1999/xlink" x="0px" y="0px"
	 width="200px" height="200px" viewBox="0 0 200 200" enable-background="new 0 0 200 200" xml:space="preserve">
<path class="stroke" fill="#58281d"  fill-rule="evenodd" clip-rule="evenodd" d="M135.464,59.041c-1.168,0.702-2.229,1.342-3.082,1.856
	c-1.152-0.126-2.052-0.224-3.245-0.354c-0.385-0.449-0.949-1.108-1.609-1.878c-0.595,0.101-1.28,0.215-2.096,0.353
	c-0.134,3.49-0.265,6.94-0.393,10.301c0.688,0.939,1.468,1.743,1.922,2.701c0.454,0.956,0.58,2.067,0.874,3.202
	c4.404,0.559,8.815,1.023,13.118,2.192c0.43,0.786,0.371,1.64,0.412,2.457c0.223,4.436,0.396,8.873,0.616,13.309
	c0.062,1.252,0.222,2.498,0.346,3.859c1.44,0.203,2.873,0.385,4.299,0.61c1.438,0.23,2.87,0.505,4.367,0.551
	c0.679,0.383,1.357,0.764,2.008,1.13c0,0.824,0,1.525,0,2.212c-0.392,0.541-0.953,0.541-1.494,0.479
	c-2.574-0.302-5.153-0.582-7.716-0.964c-1.438-0.214-2.848-0.611-4.321-0.937c-0.133-0.621-0.309-1.141-0.345-1.669
	c-0.215-3.176-0.392-6.354-0.594-9.531c-0.177-2.795-0.368-5.589-0.564-8.555c-3.406-0.598-6.796-1.191-10.23-1.793
	c-0.168,1.999-0.994,3.651-2.271,5.071c0,2.002,0,3.969,0,5.997c0.35,0.224,0.7,0.44,1.043,0.669
	c2.45,1.642,4.759,3.437,6.299,6.022c0.805,1.351,1.27,2.815,1.311,4.404c0.113,4.388,0.287,8.773,0.337,13.161
	c0.034,3.093-0.116,6.188-0.146,9.284c-0.05,4.98,0.001,9.963-0.121,14.942c-0.101,4.101-0.375,8.198-0.609,12.296
	c-0.064,1.116-0.583,2.137-1.308,2.926c-1.209,1.316-2.518,2.556-3.89,3.701c-1.18,0.984-2.277,2.101-3.74,2.72
	c-1.999,0.847-3.922,1.9-5.968,2.597c-4.926,1.675-10,2.211-15.212,1.868c-4.038-0.267-7.997-0.952-11.873-1.979
	c-3.807-1.007-7.351-2.756-10.784-4.709c-3.079-1.75-5.525-4.188-7.73-6.884c-0.581-0.711-1.028-1.672-1.173-2.577
	c-0.868-5.414-1.559-10.844-1.633-16.35c-0.059-4.349-0.4-8.693-0.574-13.042c-0.082-2.004-0.041-4.013-0.097-6.018
	c-0.062-2.218-0.197-4.435-0.251-6.652c-0.08-3.22-0.187-6.441-0.143-9.66c0.024-1.833,0.184-3.689,0.535-5.485
	c0.5-2.553,2.22-4.349,4.211-5.897c0.291-0.228,0.596-0.438,0.788-0.578c-0.236-3.475-0.415-6.817-0.709-10.15
	c-0.168-1.901-0.186-3.83-1.086-5.631c-0.611-1.221-0.315-2.637-0.344-3.973c-0.084-3.937-0.165-7.874-0.254-11.81
	c-0.003-0.16-0.069-0.318-0.112-0.501c-1.346-0.417-2.672-0.828-4.062-1.259c-0.089-0.349-0.18-0.701-0.296-1.155
	c0.955-1.434,1.933-2.892,2.903-4.356c1.271-1.92,2.441-3.917,3.833-5.747c1.181-1.555,2.614-2.917,4.002-4.438
	c1.394,0.18,2.702,0.361,4.014,0.51c0.663,0.075,1.335,0.061,1.996,0.136c3.12,0.354,6.233,0.765,9.356,1.076
	c2.959,0.296,5.93,0.479,8.892,0.743c1.329,0.119,2.652,0.321,3.979,0.471c1.823,0.204,3.65,0.386,5.475,0.593
	c1.206,0.137,2.406,0.311,3.61,0.447c2.534,0.29,5.07,0.565,7.604,0.844c1.05,0.114,1.917,0.479,2.469,1.475
	c1.155,2.084,2.371,4.133,3.54,6.209c1.128,2.005,2.253,4.013,3.334,6.044C133.762,55.584,134.576,57.276,135.464,59.041z
	 M80.757,82.021c2.88,0.044,5.471,0.029,8.055,0.138c2.298,0.097,4.593,0.295,6.883,0.511c2.285,0.218,4.574,0.435,6.841,0.786
	c4.961,0.77,9.945,1.457,14.708,3.161c0.323,0.116,0.696,0.093,1.151,0.146c-0.025-0.6-0.046-1.043-0.065-1.486
	c-12.649-3.637-25.208-7.248-37.95-10.911C80.509,76.993,80.633,79.51,80.757,82.021z M114.49,62.251
	c-1.088-0.194-2.08-0.329-3.052-0.554c-5.298-1.227-10.595-2.455-15.882-3.722c-5.044-1.209-10.008-2.749-15.133-3.618
	c-0.47-0.079-0.947-0.118-1.557-0.192c0.1,0.962,0.179,1.737,0.267,2.594c2.179,0.487,4.302,0.939,6.413,1.438
	c2.726,0.646,5.445,1.316,8.161,2c3.445,0.866,6.875,1.793,10.327,2.63c4.391,1.063,8.796,2.065,13.197,3.082
	c0.348,0.08,0.719,0.062,1.149,0.094c0-2.428,0-4.747,0-7.177c-0.639,0.07-1.163,0.128-1.541,0.169
	C116.013,60.143,115.282,61.153,114.49,62.251z"/>
<path fill-rule="evenodd" clip-rule="evenodd" fill="#e3a13b" class="fill" d="M71.175,49.007c2.306-4.009,4.542-8.055,7.763-11.344
	c7.262,0.565,14.448,0.967,21.599,1.726c7.142,0.759,14.247,1.878,21.591,2.867c-3.801,5.472-7.393,10.794-10.495,16.396
	C109.309,58.55,72.711,49.836,71.175,49.007z"/>
<path fill-rule="evenodd" clip-rule="evenodd" fill="#e3a13b" class="fill" d="M76.859,70.677c-0.402-0.958-0.968-1.995-1.28-3.102
	c-0.62-2.192,0.81-6.801,3.265-8.813c1.891,0.225,3.99,0.321,6.02,0.754c2.734,0.583,5.406,1.455,8.119,2.147
	c2.025,0.515,4.08,0.908,6.108,1.414c2.839,0.708,5.662,1.479,8.498,2.205c1.699,0.436,3.412,0.817,5.111,1.257
	c1.82,0.471,3.632,0.978,5.443,1.479c0.104,0.029,0.182,0.147,0.321,0.267c-0.096,0.148-0.149,0.338-0.268,0.397
	c-2.17,1.08-2.985,3.081-3.486,5.243c-0.41,1.766-0.455,3.553-0.075,5.357c0.271,1.287,0.77,2.443,1.768,3.722
	c-0.638-0.095-0.992-0.104-1.32-0.202c-3.849-1.139-7.697-2.272-11.533-3.447c-1.318-0.404-2.582-0.99-3.904-1.373
	c-3.816-1.105-7.647-2.155-11.477-3.216c-3.663-1.016-7.412-1.784-10.758-3.718C77.303,70.986,77.204,70.909,76.859,70.677z"/>
<path fill-rule="evenodd" clip-rule="evenodd" fill="#e3a13b" class="fill" d="M91.503,149.514c-0.612-4.024-0.508-7.997-0.024-12.187
	c6.282,1.461,12.542,1.927,19.015,1.645c0.122,1.963,0.005,3.776-0.029,5.596c-0.034,1.783,0.125,3.571,0.2,5.341
	C107.778,150.753,95.015,151.055,91.503,149.514z"/>
<path fill-rule="evenodd" clip-rule="evenodd" fill="#e3a13b" class="fill" d="M119.095,124.382c0.294,3.9-0.053,7.562,0.059,11.189
	c-4.043,0.991-14.514,2.116-18.546,1.292c-0.459-3.743-0.151-7.505,0.17-11.386C106.92,126.062,112.927,125.66,119.095,124.382z"/>
<path fill-rule="evenodd" clip-rule="evenodd" fill="#e3a13b" class="fill" d="M99.202,136.76c-5.419-0.68-10.663-1.37-15.738-3.264
	c-0.69-4.019-0.251-7.992,0.255-12.055c5.04,1.254,9.999,2.487,15.078,3.751C98.93,129.002,99.062,132.755,99.202,136.76z"/>
<path fill-rule="evenodd" clip-rule="evenodd" fill="#e3a13b" class="fill" d="M110.128,113.15c0.493,3.472,0.136,6.913-0.001,10.31
	c-3.179,1.074-12.928-0.301-16.621-1.655c-0.399-1.021-0.529-8.396-0.178-10.914c2.77,0.491,5.525,1.074,8.309,1.45
	C104.405,112.715,107.203,112.881,110.128,113.15z"/>
<path fill-rule="evenodd" clip-rule="evenodd" fill="#e3a13b" class="fill" d="M102.029,152.608c6.408-0.214,12.581-0.788,18.771-2.459
	c0.167,3.167,0.039,6.028-0.41,9.041c-5.936,2.34-12.1,3.456-18.694,2.87C101.807,158.909,101.915,155.838,102.029,152.608z"/>
<path fill-rule="evenodd" clip-rule="evenodd" fill="#e3a13b" class="fill" d="M127.631,134.791c0.568,1.418,0.117,8.797-0.068,11.037
	c-4.588,2.565-9.646,3.465-15.005,3.95c0-3.653,0-7.223,0-10.872c2.555-0.76,5.231-0.737,7.711-1.694
	C122.677,136.283,125.173,135.588,127.631,134.791z"/>
<path fill-rule="evenodd" clip-rule="evenodd" fill="#e3a13b" class="fill" d="M76.688,144.277c-0.124-3.807-0.546-7.575,0.056-11.456
	c2.221,0.829,4.256,1.675,6.347,2.345c2.106,0.677,4.269,1.178,6.485,1.777c-0.049,4.073-0.499,8.032,0.136,12.154
	C84.848,148.716,80.834,146.412,76.688,144.277z"/>
<path fill-rule="evenodd" clip-rule="evenodd" fill="#e3a13b" class="fill" d="M91.096,121.413c-4.326-1.136-8.584-2.146-12.415-4.358
	c-0.656-2.456-0.859-11.006-0.246-12.729c1.346,0.753,2.651,1.529,4,2.224c1.374,0.708,2.77,1.386,4.194,1.983
	c1.423,0.597,2.895,1.077,4.467,1.653C91.096,113.843,91.096,117.527,91.096,121.413z"/>
<path fill-rule="evenodd" clip-rule="evenodd" fill="#e3a13b" class="fill" d="M111.844,123.202c0.111-3.416,0.22-6.742,0.331-10.173
	c1.737-0.168,3.388-0.307,5.031-0.493c1.663-0.19,3.339-0.34,4.974-0.675c1.61-0.331,3.176-0.874,4.766-1.324
	c0.312,1.652,0.171,7.824-0.204,9.687C125.01,121.016,114.299,123.188,111.844,123.202z"/>
<path fill-rule="evenodd" clip-rule="evenodd" fill="#e3a13b" class="fill" d="M82.449,156.038c0-2.329,0-4.404,0-6.63
	c2.053,0.558,3.912,1.143,5.809,1.555c1.916,0.418,3.865,0.709,5.811,0.978c1.936,0.267,3.884,0.433,5.996,0.663
	c0,3.032,0,6.062,0,9.279C93.644,161.269,87.995,158.781,82.449,156.038z"/>
<path fill-rule="evenodd" clip-rule="evenodd" fill="#e3a13b" class="fill" d="M132.685,120.138c0.107,3.319,0.202,6.425,0.008,9.565
	c-3.521,2.693-7.704,3.804-11.789,5.635c0-3.872,0-7.484,0-11.124C124.854,123.054,128.959,122.532,132.685,120.138z"/>
<path fill-rule="evenodd" clip-rule="evenodd" fill="#e3a13b" class="fill" d="M81.721,132.911c-3.615-0.965-6.617-3.106-9.578-5.282
	c-0.076-4.187-0.151-8.268-0.23-12.627c1.796,1.169,3.301,2.253,4.904,3.163c1.593,0.901,3.285,1.629,4.904,2.419
	C81.721,124.664,81.721,128.745,81.721,132.911z"/>
<path fill-rule="evenodd" clip-rule="evenodd" fill="#e3a13b" class="fill" d="M132.229,145.615c-0.397,1.9,0.081,3.86-0.827,5.595
	c-0.229,0.436-0.513,0.871-0.866,1.206c-1.156,1.091-2.279,2.239-3.559,3.168c-1.438,1.043-3.03,1.873-4.751,2.914
	c0.156-2.979,0.3-5.699,0.451-8.602C125.805,148.751,129.296,147.912,132.229,145.615z"/>
<path fill-rule="evenodd" clip-rule="evenodd" fill="#e3a13b" class="fill" d="M76.739,103.278c-0.658,4.075-0.364,8.202-0.196,12.532
	c-0.492-0.272-0.939-0.45-1.302-0.735c-0.853-0.675-1.651-1.415-2.497-2.1c-0.634-0.513-0.933-1.178-0.964-1.958
	c-0.089-2.169-0.165-4.339-0.214-6.51c-0.033-1.545-0.019-3.093-0.018-4.638c0-0.327,0.03-0.655,0.049-1.022
	C73.319,100.331,74.992,101.773,76.739,103.278z"/>
<path fill-rule="evenodd" clip-rule="evenodd" fill="#e3a13b" class="fill" d="M120.295,58.703c0.388,0.07,0.686,0.124,1.084,0.197
	c0,0.539,0.004,0.991,0,1.444c-0.024,2.719-0.039,5.439-0.077,8.158c-0.048,3.388-0.133,6.776-0.162,10.163
	c-0.013,1.383,0.099,2.765,0.112,4.146c0.027,2.848,0.044,5.693,0.029,8.541c-0.017,3.185-0.052,6.369-0.122,9.553
	c-0.046,2.086-0.168,4.17-0.264,6.446c-0.471-0.256-0.815-0.443-1.247-0.678c0-1.082-0.038-2.167,0.007-3.247
	c0.138-3.261,0.407-6.519,0.442-9.779c0.061-5.65-0.025-11.301-0.036-16.951c-0.005-2.8,0.032-5.601,0.024-8.4
	c-0.004-1.455-0.122-2.911-0.088-4.364C120.038,62.228,120.186,60.525,120.295,58.703z"/>
<path fill-rule="evenodd" clip-rule="evenodd" fill="#e3a13b" class="fill" d="M93.371,108.816c0.758-1.363,1.843-2.017,2.864-2.788
	c4.402,0.747,8.767,1.772,13.42,1.776c0.127,0.981,0.246,1.905,0.383,2.973C104.292,110.916,98.869,110.19,93.371,108.816z"/>
<path fill-rule="evenodd" clip-rule="evenodd" fill="#e3a13b" class="fill" d="M93.927,105.597c-0.865,0.799-1.733,1.601-2.81,2.596
	c-3.905-1.136-7.766-2.911-11.427-5.594c0.81-0.699,1.519-1.312,2.164-1.869C85.92,102.368,89.886,103.968,93.927,105.597z"/>
<path fill-rule="evenodd" clip-rule="evenodd" fill="#e3a13b" class="fill" d="M118.294,107.202c0.263,0.317,0.53,0.641,0.754,0.909
	c1.18,0.357,2.266,0.548,3.418,0.435c1.585-0.157,2.16-0.571,2.515-2.124c0.155-0.675,0.191-1.378,0.287-2.105
	c1.135,0.771,1.758,1.83,1.953,3.381c-1.095,0.533-2.209,1.197-3.406,1.628c-1.33,0.479-2.711,0.798-4.156,0.871
	c-2.047,0.102-4.086,0.36-6.129,0.535c-0.449,0.038-0.904,0.006-1.518,0.006c-0.174-0.968-0.335-1.854-0.519-2.867
	C113.773,107.646,115.947,107.433,118.294,107.202z"/>
<path fill-rule="evenodd" clip-rule="evenodd" fill="#e3a13b" class="fill" d="M73.383,144.231c2.443,1.525,4.761,2.973,7.138,4.456
	c0,1.886,0,3.882,0,6.014c-0.332-0.132-0.558-0.191-0.753-0.304c-2.153-1.246-3.64-3.186-5.132-5.09
	c-0.436-0.556-0.592-1.352-0.794-2.06c-0.182-0.641-0.257-1.312-0.363-1.973C73.429,144.966,73.42,144.648,73.383,144.231z"/>
<path fill-rule="evenodd" clip-rule="evenodd" fill="#e3a13b" class="fill" d="M129.01,119.41c0.099-3.497,0.195-6.858,0.291-10.237
	c0.933-0.844,1.852-1.672,2.988-2.697c0.161,3.693,0.283,7.16,0.248,10.569C131.629,118.212,130.715,118.839,129.01,119.41z"/>
<path fill-rule="evenodd" clip-rule="evenodd" fill="#e3a13b" class="fill" d="M76.221,93.303c0.189,2.889,1.915,4.693,4.271,6.24
	c-0.876,0.727-1.595,1.323-2.373,1.969c-2.777-2.034-5.4-4.099-6.742-7.497C72.965,93.178,74.479,93.006,76.221,93.303z"/>
<path fill-rule="evenodd" clip-rule="evenodd" fill="#e3a13b" class="fill" d="M129.644,144.777c0-3.897,0-7.47,0-11.151
	c0.898-0.376,1.811-0.759,2.724-1.141c0.398,0.834,0.36,6.484-0.083,10.338C131.556,143.362,130.727,143.977,129.644,144.777z"/>
<path fill-rule="evenodd" clip-rule="evenodd" fill="#e3a13b" class="fill" d="M126.933,103.085c1.216-1.399,1.579-2.985,1.294-4.88
	c0.573-0.094,1.086-0.175,1.598-0.261c0.49-0.083,0.98-0.172,1.596-0.279c1.202,2.682,0.889,5.182-0.763,7.715
	c-0.344,0.247-0.812,0.585-1.324,0.953C128.527,105.244,127.768,104.216,126.933,103.085z"/>
<path fill-rule="evenodd" clip-rule="evenodd" fill="#e3a13b" class="fill" d="M71.212,91.78c-0.359-1.894,1.4-4.374,3.718-5.134
	c0.148,0.274,0.303,0.558,0.475,0.875c1.217,0.542,2.489,0.788,3.79,0.39c-0.958,1.158-1.896,2.293-2.83,3.423
	C74.762,91.473,73.035,91.623,71.212,91.78z"/>
<path fill-rule="evenodd" clip-rule="evenodd" fill="#e3a13b" class="fill" d="M74.707,142.439c-1.002-0.958-1.862-1.711-2.006-3.054
	c-0.316-2.96-0.495-5.917-0.4-9.133c0.877,0.504,1.608,0.923,2.406,1.381C74.707,135.188,74.707,138.71,74.707,142.439z"/>
<path fill-rule="evenodd" clip-rule="evenodd" fill="#e3a13b" class="fill" d="M97.952,86.018c0.084-0.577,0.141-0.967,0.211-1.451
	c4.202,0.444,8.349,0.508,12.47,1.963c-0.292,0.509-0.546,0.952-0.86,1.502C106.003,86.559,102.056,86.483,97.952,86.018z"/>
<path fill-rule="evenodd" clip-rule="evenodd" fill="#e3a13b" class="fill" d="M86.589,85.964c-0.095-0.597-0.2-1.265-0.307-1.934
	c2.321-0.348,8.059-0.105,9.976,0.416c0.068,0.385,0.146,0.82,0.234,1.323C93.189,85.834,89.974,85.896,86.589,85.964z"/>
<path fill-rule="evenodd" clip-rule="evenodd" fill="#e3a13b" class="fill" d="M111.393,88.502c0.354-0.639,0.608-1.095,0.892-1.603
	c2.017,0.474,4.021,0.794,5.906,1.914c0,0.629,0,1.31,0,2.162C115.817,90.375,113.772,89.207,111.393,88.502z"/>
<path fill-rule="evenodd" clip-rule="evenodd" fill="#e3a13b" class="fill" d="M130.551,95.843c-1.038,0.742-2.072,0.659-3.015,0.655
	c-0.71-0.632-1.353-1.205-2.072-1.845c0-0.753,0-1.611,0-2.725c0.591,0.375,1.031,0.632,1.447,0.923
	c0.883,0.619,1.771,1.233,2.621,1.896C129.905,95.04,130.188,95.445,130.551,95.843z"/>
<path fill-rule="evenodd" clip-rule="evenodd" fill="#e3a13b" class="fill" d="M80.918,87.382c0.1-1.063,0.193-2.056,0.3-3.196
	c0.985-0.11,1.999-0.225,3.171-0.356c0.294,0.723,0.581,1.431,0.904,2.224C83.821,86.796,82.316,86.992,80.918,87.382z"/>
<path fill-rule="evenodd" clip-rule="evenodd" fill="#e3a13b" class="fill" d="M76.93,86.565c-0.363-4.929-0.724-9.857-1.098-14.954
	c0.396,0.145,0.596,0.219,0.816,0.299c0.242,4.926,0.482,9.792,0.722,14.657C77.224,86.566,77.076,86.565,76.93,86.565z"/>
<path fill-rule="evenodd" clip-rule="evenodd" fill="#e3a13b" class="fill" d="M75.533,59.738c-0.162,0.209-0.376,0.485-0.787,1.019
	c-0.238-2.761-0.637-5.201-0.422-7.788c0.288,0.021,0.508,0.037,0.876,0.065C75.312,55.27,75.42,57.455,75.533,59.738z"/>
</svg>
