<svg version="1.1" id="svg" xmlns="http://www.w3.org/2000/svg" xmlns:xlink="http://www.w3.org/1999/xlink" x="0px" y="0px"
	 width="200px" height="200px" viewBox="0 0 200 200" enable-background="new 0 0 200 200" xml:space="preserve">
<path class="stroke" fill="#183046"  d="M48.519,132.859c-0.607,3.661-1.439,7.228-2.883,10.65c-0.637,1.51-1.227,3.041-1.782,4.582
	c-0.477,1.324-0.542,2.714-0.062,4.032c0.85,2.333,2.039,4.538,3.746,6.323c1.742,1.822,3.822,3.139,6.597,2.115
	c0.771-0.283,1.566-0.156,2.387,0.189c7.206,3.041,14.619,5.433,22.264,7.127c4.281,0.949,8.565,1.752,12.942,2.18
	c3.995,0.39,7.938-0.06,11.902-0.17c4.252-0.119,8.468-0.471,12.676-1.176c7.239-1.215,14.335-2.985,21.345-5.121
	c7.267-2.215,14.283-5.201,21.628-7.169c3.764-1.009,6.904-2.856,9.466-5.787c1.779-2.034,2.997-4.386,4.293-6.727
	c3.153-5.695,3.864-11.571,2.044-17.841c-0.846-2.916-2.23-5.588-3.287-8.402c-1.477-3.937-3.994-7.141-6.941-10.055
	c-1.736-1.717-3.729-3.03-6.074-3.723c-5.093-1.504-10.261-1.592-15.451-0.614c-5.037,0.948-9.312,3.517-13.408,6.44
	c-1.774,1.266-3.547,2.534-5.346,3.82c-1.015-0.688-1.904-1.324-2.825-1.909c-1.82-1.157-3.792-1.884-5.965-2.012
	c-4.216-0.249-8.164,0.795-11.914,2.603c-2.525,1.217-4.96,2.622-7.445,3.924c-0.442,0.231-0.851,0.768-1.499,0.3
	c0.463-5.861,0.494-11.726-0.18-17.594c-0.455-3.955-0.501-7.951,0.385-11.85c1.245-5.479,3.037-10.795,5.561-15.835
	c0.383-0.765,0.711-1.641,1.637-2.155c1.07,0.342,2.196,0.635,3.267,1.064c0.989,0.396,1.985,0.533,3.017,0.397
	c2.381-0.313,4.69-0.823,6.891-1.894c2.762-1.344,5.695-1.955,8.779-1.223c1.26,0.299,2.404,0.074,3.555-0.555
	c1.639-0.898,2.375-2.424,2.976-4.023c1.132-3.011,0.06-4.716-2.407-5.549c-0.319-0.108-0.61-0.301-1.107-0.551
	c1.297-2.096,2.889-3.81,4.037-5.849c0.816-1.449,1.05-2.816,0.404-4.29c-1.182-2.701-2.512-5.334-4.485-7.562
	c-1.778-2.008-3.972-3.569-5.942-5.371c-1.49-1.361-3.213-1.356-4.975-0.548c-1.064,0.488-2.062,1.103-2.922,1.897
	c-1.139,1.055-2.514,1.654-3.956,2.108c-1.37,0.432-2.774,0.757-4.154,1.157c-3.659,1.064-6.948,2.806-9.95,5.177
	c-1.831,1.446-3.438,3.13-5.25,4.593c-1.441,1.162-2.498,2.625-3.176,4.437c-0.646,1.726-0.954,3.56-1.839,5.209
	c-2.625,4.895-6.593,8.724-10.189,12.831c-1.813,2.071-3.554,4.185-5.006,6.495c-2.548,4.055-4.94,8.206-7.197,12.437
	c-2.225,4.171-4.292,8.426-6.06,12.794c-1.639,4.048-3.045,8.195-4.134,12.459C50.961,120.678,49.536,126.727,48.519,132.859z"/>
<path class="stroke" fill="#183046"  d="M25.711,98.903c0.613,0.818,1.201,0.757,1.723,0.682c3.581-0.513,7.169-0.989,10.731-1.617
	c4.163-0.732,8.282-1.699,12.534-1.869c1.084-0.043,2.436,0.115,2.96-1.47c-0.597-1.415-0.361-3.019-0.479-4.578
	c-0.333-4.372-1.398-8.637-1.806-12.995c-0.179-1.921-0.625-3.772-1.461-5.521c-0.279-0.583-0.583-1.111-1.377-0.918
	c-2.339,2.469-5.18,4.396-7.36,7.155c-1.257-0.638-2.307-1.22-3.184-2.106c-2.372-2.396-5.066-4.378-7.949-6.109
	c-0.757-0.455-1.511-0.978-2.723-0.689c-2.905,3.493-5.782,7.244-8.586,11.443c4.624,3.393,9.035,6.772,13.047,10.656
	C29.35,93.486,26.912,95.824,25.711,98.903z"/>
<path fill-rule="evenodd" clip-rule="evenodd" fill="#fafd30" class="fill" d="M97.914,62.134c-4.564,1.07-6.447,4.899-8.338,8.645
	c-0.86,1.703-1.604,3.477-2.277,5.279c-0.46,1.232-1.23,2.412-2.089,3.422c-2.177,2.561-3.709,5.673-6.738,7.522
	c-1.92,1.173-3.026,3.16-3.889,5.194c-1.073,2.531-1.919,5.138-1.733,7.957c0.245,3.707-0.422,7.38-0.411,11.081
	c0.004,1.338-0.649,2.488-1.291,3.639c-0.588,1.055-1.467,1.995-1.549,3.273c0.738,1.246,2.477,1,3.165,2.339
	c-0.068,1.858-2.001,2.856-2.335,4.63c-0.037,1.529,1.339,1.93,2.156,2.646c0.286,0.607-0.044,1.025-0.192,1.462
	c-0.865,2.546,0.454,4.667,3.145,5.037c1.167,0.16,2.346,0.132,3.478-0.135c2.924-0.688,5.855-1.367,8.734-2.22
	c5.139-1.523,9.259-4.619,12.76-8.609c0.858-0.978,1.722-1.957,2.661-2.855c3.024-2.891,6.554-3.514,10.629-2.711
	c3.832,0.755,5.79,2.994,7.156,6.495c1.62,4.149,1.029,8.069-0.791,11.722c-2.951,5.92-7.787,9.943-14.074,12.141
	c-0.106,0.037-0.252-0.037-0.458-0.072c-0.257-0.9,0.263-1.713,0.403-2.561c0.602-3.609,0.325-7.101-1.219-10.448
	c-0.461-0.999-1.02-1.929-1.965-2.379c-1.283,0.144-1.26,1.096-1.446,1.858c-0.474,1.928-0.778,3.906-1.384,5.791
	c-1.106,3.448-2.946,6.456-5.89,8.69c-0.819,0.622-1.652,1.233-2.41,1.925c-1.847,1.682-4.098,2.524-6.473,2.932
	c-3.721,0.64-7.489,0.746-11.261,0.439c-2.748-0.223-5.227-3.262-4.971-5.994c0.197-2.113,0.316-4.234,0.414-6.355
	c0.066-1.426-0.033-1.627-0.84-2.955c-1.709-0.02-2.948,0.743-3.605,2.383c-0.475,1.186-0.883,2.398-1.348,3.672
	c-1.38-1.774-2.049-6.688-1.571-10.996c-0.133-0.489-0.474-0.79-0.985-0.975c-0.164,0.072-0.389,0.111-0.525,0.242
	c-1.153,1.108-1.88,2.394-2.322,3.994c-1.099,3.979-1.942,7.98-2.147,12.109c-0.023,0.468-0.033,0.965-0.347,1.404
	c-0.606,0.316-1.262,0.388-2.146,0.203c-0.414-2.654-0.629-5.357-0.201-8.071c0.245-1.552,0.713-3.068,1.003-4.615
	c0.271-1.446,0.783-2.759,1.706-3.913c0.255-0.317,0.507-0.662,0.655-1.036c1.062-2.673,2.183-5.326,3.121-8.042
	c1.694-4.904,2.266-10.032,2.244-15.166c-0.017-4.066,0.765-7.857,2.221-11.604c1.736-4.467,3.608-8.87,5.647-13.206
	c2.667-5.673,5.968-10.941,9.956-15.771c0.87-1.053,1.932-1.943,2.852-2.957c2.083-2.297,3.962-4.72,4.801-7.795
	c0.233-0.855,0.705-1.648,0.914-2.507c1.091-4.491,3.844-7.812,7.485-10.419c4.6-3.294,9.551-5.84,15.227-6.831
	c2.301-0.401,4.434-1.399,6.221-2.998c0.354-0.317,0.748-0.589,1.021-0.801c0.872-0.233,1.481,0.043,2.052,0.465
	c0.111,0.082,0.228,0.158,0.324,0.254c3.436,3.434,5.82,7.542,7.789,11.548c-0.217,1.201-0.636,1.812-1.223,2.429
	c-1.415,0.485-2.453-0.794-3.783-0.784c-0.111-1.281,1.23-1.374,1.453-2.229c-0.945-0.981-0.945-0.981-2.951,0.002
	c-1.104-1.311,0.859-3.28-0.836-4.421c-0.623-0.06-1.057,0.209-1.089,0.748c-0.21,3.521-1.687,6.604-3.245,9.666
	c-0.121,0.236-0.136,0.527-0.254,1.018c2.059,1.338,4.363,2.313,6.657,3.325c0.18,1.888-0.454,3.425-1.488,5.039
	c-4.04,0.205-7.967,1.438-11.761,2.386c-1.082-0.341-1.807-0.836-2.447-1.445c-0.322-1.231,0.171-2.49-0.231-3.689
	c-0.062-0.182-0.224-0.33-0.396-0.573c-2.03-0.102-3.167,1.65-4.876,2.421c-0.302-1.053,0.921-1.628,0.767-2.658
	c-0.562-0.984-1.278-0.613-2.005-0.111C99.647,59.53,98.917,60.883,97.914,62.134z M73.154,149.972
	c0.705,0.548,1.424,0.407,2.084,0.374c4.254-0.223,8.129-1.721,11.854-3.66c0.985-0.514,1.739-1.335,2.346-2.264
	c0.385-0.589,0.68-1.215,0.08-1.801c-0.958-0.408-1.926,0.332-2.808-0.11c-0.292-1.524,1.369-2.96,0.147-4.513
	c-1.539,0.419-2.153,1.628-2.998,2.587c-2.491,2.825-4.993,5.642-8.687,6.978c-0.448,0.162-0.892,0.366-1.292,0.622
	C73.278,148.572,72.829,149.072,73.154,149.972z"/>
<path fill-rule="evenodd" clip-rule="evenodd" fill="#fafd30" class="fill" d="M115.854,159.957c0.219-0.888,0.826-1.516,1.625-1.937
	c2.477-1.305,4.917-2.697,7.473-3.828c4.453-1.971,9.171-3.161,13.873-4.388c2.969-0.774,5.897-1.701,8.662-2.506
	c0.398-0.586,0.366-0.965,0.023-1.525c-3.195-0.41-6.514-0.915-9.803,0.17c-3.673,1.211-7.014,0.557-10.138-1.594
	c-0.507-0.35-1.042-0.672-1.409-1.594c1.096-2.515,0.902-5.497,1.326-8.395c0.168-1.149,0.195-2.301-0.08-3.468
	c-0.449-1.896-0.094-3.818-0.031-5.808c0.366-0.656,0.762-1.365,0.976-2.17c1.216-4.566,4.101-7.996,7.677-10.877
	c2.459-1.98,5.235-3.199,8.531-2.896c1.358,0.125,2.742-0.048,4.109,0.019c3.393,0.164,6.644,0.854,9.569,2.716
	c1.444,0.919,2.929,1.774,4.417,2.622c2.531,1.441,4.462,3.57,5.61,6.123c1.509,3.352,3.034,6.775,3.603,10.449
	c0.628,4.064,0.281,8.039-2.044,11.797c-3.11-1.529-5.653-0.152-8.205,1.468c-3.011,1.913-6.356,3.191-9.526,4.804
	c-3.967,2.018-7.931,4.041-11.941,5.966c-5.4,2.591-11.002,4.581-17.019,5.132c-1.903,0.175-3.817,0.224-5.729,0.292
	C116.864,160.55,116.297,160.502,115.854,159.957z M156.145,115.101c-0.211,0.412-0.116,0.808,0.109,1.167
	c0.674,1.069,0.912,2.285,1.07,3.492c0.574,4.399,0.467,8.711-1.672,12.781c-0.548,1.043-1.349,2.088-1.029,3.468
	c1.016,0.765,1.912,0.608,2.716-0.281c0.732-0.811,1.452-1.624,1.956-2.621c0.801-1.586,1.279-3.331,2.044-4.88
	c1.802-3.649,1.558-7.106,0.006-10.652C160.479,115.595,158.293,114.57,156.145,115.101z"/>
<path fill-rule="evenodd" clip-rule="evenodd" fill="#fafd30" class="fill" d="M49.874,93.3c-6.043,0.686-11.806,1.703-17.819,2.612
	c1.038-2.215,2.855-3.564,3.956-5.337c-0.503-1.502-1.565-2.396-2.704-3.141c-3.446-2.251-6.412-5.102-9.651-7.609
	c-0.318-0.246-0.609-0.529-1.099-0.959c1.85-2.256,3.91-4.156,6.154-5.857c4.737,2.342,8.365,6.112,12.797,8.655
	c2.926-1.283,4.13-4.203,6.614-6.401C48.669,81.397,49.082,87.153,49.874,93.3z"/>
</svg>
