<svg version="1.1" id="svg" xmlns="http://www.w3.org/2000/svg" xmlns:xlink="http://www.w3.org/1999/xlink" x="0px" y="0px"
	 width="200px" height="200px" viewBox="0 0 200 200" enable-background="new 0 0 200 200" xml:space="preserve">
<path class="stroke" fill="#064146"  fill-rule="evenodd" clip-rule="evenodd" d="M42.647,149.867c-0.803-2.528-0.288-4.595,0.77-6.59
	c0.237-0.449,0.374-0.959,0.655-1.374c2.204-3.255,2.836-6.825,2.789-10.737c-0.09-7.515,1.387-14.846,3.135-22.139
	c1.079-4.5,1.151-9.011-0.514-13.5c-1.234-3.329-2.178-6.788-2.506-10.347c-0.25-2.721-0.634-5.462-0.222-8.137
	c1.389-1.38,2.859-2.009,4.731-2.109c4.635-0.249,9.267-0.403,13.908-0.339c0.497,0.007,1.025,0.102,1.629-0.4
	c0-1.071,0.088-2.291-0.017-3.493c-0.313-3.583,0.625-7.059,0.836-10.591c0.171-2.846,0.917-5.57,1.532-8.332
	c0.964-4.321,2.876-8.229,5.14-11.951c2.942-4.836,10.102-7.716,14.901-6.411c1.186,0.322,2.42,0.474,3.638,0.676
	c1.176,0.195,2.143,0.838,2.871,1.375c0.913,0.124,1.369-0.283,1.867-0.565c2.055-1.163,4.11-1.873,6.611-1.459
	c2.848,0.469,5.747,0.517,8.554,1.384c1.707,0.53,3.268,1.254,4.61,2.369c2.681,2.224,5.483,4.329,7.821,6.923
	c2.316,2.572,3.859,5.554,4.566,9.011c0.584,2.845,1.328,5.664,1.117,8.581c-0.341,4.703-0.812,9.396-1.566,14.057
	c-0.112,0.709-0.426,1.41,0.229,2.132c2.006,0.257,4.076,0.522,6.19,0.503c4.304-0.036,8.511,0.773,12.698,1.68
	c0.797,0.171,1.492,0.546,2.135,1.109c1.595,2.477,0.889,5.026,0.014,7.506c-1.258,3.567-3.043,6.916-4.796,10.253
	c-2.402,4.566-3.386,9.197-2.769,14.446c0.853,7.261,2.589,14.255,4.693,21.208c0.714,2.359,1.312,4.762,1.861,7.167
	c0.767,3.343-0.514,6.282-2.035,9.133c-0.311,0.583-0.935,0.909-1.525,1.195c-2.079,1.011-4.099,2.151-6.283,2.947
	c-0.691,0.25-1.375,0.447-2.11,0.47c-9.646,0.294-19.28,0.867-28.939,0.958c-4.559,0.044-9.109,0.714-13.673,0.915
	c-6.093,0.27-12.179-0.029-18.257-0.52c-4.771-0.385-9.5-1.132-14.323-1.071c-5.957,0.073-11.65-1.377-17.066-3.864
	c-0.59-0.272-1.15-0.615-1.702-0.961C43.351,150.666,42.907,150.288,42.647,149.867z M94.94,45.276
	c-1.706,0.773-3.333,1.452-4.321,3.017c-1.447,2.291-2.429,4.844-3.083,7.406c-0.874,3.422-1.753,6.854-2.558,10.3
	c-0.754,3.228-1.403,6.481-2.172,10.066c3.81,0.068,7.414-0.436,10.967,0.252c3.58,0.693,7.23,0.618,10.838,0.546
	c3.581-0.075,7.162,0.565,10.858,0.143c-0.223-1.398-0.854-2.378-1.396-3.389c-0.686-1.277-1.459-2.511-2.098-3.812
	c-2.978-6.064-6.229-11.982-9.94-17.618C100.227,49.44,98.495,46.462,94.94,45.276z M119.631,59.236
	c0.143-3.013-0.246-5.461-0.733-7.902c-0.423-2.117-1.596-3.684-3.462-4.716c-1.591-0.878-3.124-1.938-5.352-2.084
	C113.468,49.347,115.928,54.38,119.631,59.236z M83.583,38.001c-1.594,2.271-3.034,9.114-2.245,11.109
	c2.275-3.656,5.316-6.492,8.202-9.481C87.929,38.407,87.106,38.191,83.583,38.001z"/>
<path fill-rule="evenodd" clip-rule="evenodd" fill="#8dece4" class="fill" d="M119.848,81.205c0.426,0.878,0.313,1.292,0.152,1.679
	c-0.298,0.383-0.697,0.56-1.109,0.701c-5.412,1.83-5.288,7.118-3.506,10.783c1.891,3.884,7.773,6.037,12.268,3.43
	c1.326-0.77,2.391-1.93,2.637-3.568c0.26-1.72,0.447-3.453,0.698-5.175c0.195-1.336-0.589-2.354-1.042-3.487
	c-0.234-0.581-0.896-0.999-0.684-1.818c0.903-0.319,1.836-0.176,2.743,0.015c3.196,0.675,6.377,1.428,9.58,2.069
	c3.691,0.737,4.47,4.736,2.511,7.034c-1.959,2.297-4.113,4.273-6.49,6.067c-0.812,0.611-1.622,1.22-1.804,2.348
	c1.21,1.331,3.194,0.364,4.44,1.584c-0.618,3.455-2.606,6.106-4.864,8.581c-2.595,2.851-4.834,5.981-7.168,9.035
	c-0.771,1.008-1.438,2.172-1.449,3.513c0.781,0.828,1.53,0.562,2.214,0.096c1.018-0.693,1.991-1.454,2.977-2.195
	c1.289-0.969,2.636-1.79,4.201-1.827c1.127,0.348,1.423,1.144,1.475,2.062c0.109,1.967,0.043,3.924-0.58,5.817
	c-0.77,2.346-1.594,4.675-2.339,7.029c-0.355,1.123-0.902,2.14-1.494,3.137c-0.778,1.317-1.033,2.685-0.673,4.183
	c0.536,2.228,0.078,4.304-0.959,6.312c-0.621,1.203-1.557,1.889-2.872,2.054c-2.985,0.376-5.907,0.311-8.628-1.232
	c-0.772-0.438-1.429-0.96-1.985-1.66c-1.302-1.646-1.761-1.785-3.711-0.979c-4.085,1.689-8.346,2.424-12.745,2.493
	c-3.134,0.051-6.226-0.375-9.312-0.827c-0.767-0.11-1.522-0.486-2.222-0.855c-3.338-1.759-6.746-3.403-9.602-5.949
	c-0.813-0.726-1.692-1.402-2.978-1.307c-1.424,0.459-2.003,1.584-2.293,3.055c-0.949,4.812-3.617,6.95-8.507,6.929
	c-1.968-0.009-3.915-0.095-5.724-1.037c-3.355-1.751-4.028-4.898-1.437-7.66c1.584-1.686,3.438-3.121,5.029-4.82
	c0.664-0.711,1.821-0.544,2.522-1.428c0.58-1.115,0.072-2.188-0.571-3.16c-1.764-2.659-3.42-5.418-6.051-7.255
	c-1.21-3.146-1.016-3.869,1.612-5.733c0.683-0.486,1.178-1.06,1.497-2.117c-2.794-4.846-5.653-9.853-9.091-14.075
	c-0.094-0.855-0.002-1.297,0.244-1.654c1.242-1.809,1.088-3.588,0.259-5.556c-1.366-3.241-2.038-6.648-1.762-10.203
	c0.148-1.92,0.609-3.723,1.719-5.323c0.928-1.336,2.123-2.146,3.85-1.983c3.613,0.343,7.245,0.525,10.805,1.306
	c0.271,0.059,0.581,0.058,0.855,0.646c-1.871,1.494-3.321,3.384-3.312,6.063c0.008,2.197,1.058,4.038,1.643,5.868
	c3.787,2.89,7.914,4.018,11.55,0.951c3.487-2.941,6.287-6.783,3.178-12.15C95.913,81.243,107.908,81.857,119.848,81.205z
	 M79.117,130.392c1.143,1.034,2.635,1.297,3.851,2.066c5.116,3.245,10.735,5.029,16.751,5.556c4.456,0.389,8.684-0.219,12.374-3.031
	c1.095-0.834,2.303-1.521,3.39-2.362c1.372-1.062,2.805-2.083,3.741-3.602c0.551-0.893,0.904-1.804-0.02-2.767
	c-2.311,0.55-4.525,1.182-6.709,1.962c-1.699,0.61-3.344,1.359-5.127,1.782c-6.35,1.502-12.667,0.947-18.983-0.124
	c-2.626-0.444-5.295-0.628-7.664-1.446C79.855,128.922,79.277,129.334,79.117,130.392z M107.343,114.876
	c-0.872-0.832-1.78-1.07-2.862-1.027c-3.062,0.122-6.064,0.585-8.999,1.439c-1.796,0.522-3.549,0.505-5.363,0.056
	c-6.924-1.718-12.423-5.713-17.368-10.657c-1.773-1.771-2.879-3.957-3.922-5.994c-0.618-0.229-1.037-0.304-1.465-0.124
	c-0.316,0.376-0.223,0.824-0.209,1.252c0.094,2.954,1.103,5.673,2.142,8.39c2.215,5.783,6.622,8.666,12.581,9.223
	c5.19,0.486,10.355,0.902,15.346,2.614C101.028,121.353,105.754,118.877,107.343,114.876z M126.766,104.59
	c-0.248,0.198-0.494,0.357-0.693,0.561c-2.836,2.9-5.408,6.101-9.123,8.007c-0.589,0.301-0.766,0.845-0.486,1.483
	c2.136,1.226,5.1,1.104,7.395-0.375c3.257-2.097,4.531-5.138,4.171-8.893C127.773,104.927,127.459,104.66,126.766,104.59z"/>
<path fill-rule="evenodd" clip-rule="evenodd" fill="#8dece4" class="fill" d="M78.754,80.319c2.322,1.892,3.63,3.96,3.131,6.803
	c-2.558,3.141-7.086,3.505-9.979,0.798c-0.819-0.766-1.075-1.702-0.844-2.773c0.236-1.096,0.73-2.111,1.627-2.763
	c2.034-1.474,2.687-3.675,2.741-5.896c0.074-3.134,1.18-5.931,2.136-8.795c1.422-4.255,2.599-8.597,4.416-12.72
	c0.97-2.201,2.111-4.296,3.392-6.314c0.491-0.778,1.164-1.441,2.292-2.13C84.987,58.084,81.302,68.987,78.754,80.319z"/>
<path fill-rule="evenodd" clip-rule="evenodd" fill="#8dece4" class="fill" d="M122.159,84.432c0.317-3.936,1.177-7.957,1.284-11.983
	c0.204-7.531,0.037-15.088-1.663-22.507c-0.489-2.137-1.327-4.138-2.172-6.176c0.658-0.355,0.81,0.232,1.004,0.504
	c2.231,3.119,4.705,6.085,5.927,9.822c0.506,1.544,0.689,3.116,0.766,4.711c0.222,4.649-0.038,9.287-0.585,13.9
	c-0.455,3.827-0.522,7.672-0.835,11.503c-0.077,0.951,0.315,1.681,0.829,2.402c1.052,1.475,1.972,3.092,0.817,4.808
	c-1.161,1.724-3.063,2.02-5.045,1.831c-0.805-0.077-1.586-0.252-2.3-0.618c-1.419-0.725-2.182-1.947-2.169-3.513
	c0.012-1.458,0.662-2.647,2.001-3.388C120.707,85.348,121.528,85.184,122.159,84.432z"/>
<path fill-rule="evenodd" clip-rule="evenodd" fill="#8dece4" class="fill" d="M79.639,38.573c-1.208,2.941-1.612,5.72-2.151,8.48
	c-1.104,5.625-2.016,11.269-2.521,16.979c-0.205,2.319-0.7,4.571-1.589,6.683c-0.867,0.467-1.714,0.553-2.561,0.635
	c-0.529-0.638-0.358-1.298-0.338-1.927c0.191-6.021,0.72-12.018,1.988-17.904c0.905-4.206,2.861-8.036,5.224-11.63
	C78.025,39.378,78.483,38.854,79.639,38.573z"/>
<path fill-rule="evenodd" clip-rule="evenodd" fill="#8dece4" class="fill" d="M111.727,36.966c0.85,1.859,1.316,3.513,1.375,5.256
	c-0.438,0.542-0.939,0.294-1.406,0.153c-0.764-0.231-1.518-0.487-2.27-0.756c-5.153-1.844-10.111-1.159-14.943,1.154
	c-0.26,0.124-0.52,0.253-0.79,0.357c-0.129,0.047-0.281,0.036-0.577,0.068c-0.41-1.109-0.119-2.064,0.69-2.868
	c0.512-0.506,1.079-0.989,1.7-1.347c3.333-1.915,6.635-3.938,10.758-3.362C108.134,35.884,109.916,36.444,111.727,36.966z"/>
<path fill-rule="evenodd" clip-rule="evenodd" fill="#8dece4" class="fill" d="M116.01,60.962c-0.48,1.341-0.916,2.56-1.516,4.233
	c-4.203-7.495-8.42-14.561-13.89-20.968c1.036-0.484,1.95-0.466,2.767-0.518C109.826,47.842,113.033,54.22,116.01,60.962z"/>
<path fill-rule="evenodd" clip-rule="evenodd" fill="#8dece4" class="fill" d="M92.47,37.682c-1.101-0.473-2.257-0.97-3.513-1.513
	c1.258-0.327,2.219-0.21,4.472,0.498C93.493,37.313,93.066,37.523,92.47,37.682z"/>
</svg>
