<svg version="1.1" id="svg" xmlns="http://www.w3.org/2000/svg" xmlns:xlink="http://www.w3.org/1999/xlink" x="0px" y="0px"
	 width="200px" height="200px" viewBox="0 0 200 200" enable-background="new 0 0 200 200" xml:space="preserve">
<path class="stroke" fill="#580f12"  d="M154.135,115.617c1.695-5.994,0.49-10.852-5.72-13.822c-0.265-5.087-2.82-8.213-8.263-8.521
	c0.174-2.716-0.186-5.223-2.093-7.27c-1.9-2.039-4.486-2.523-7.08-3.004c-0.696-2.428-2.782-3.492-4.356-4.635
	c-0.22-1.439-0.404-2.635-0.59-3.852c4.416-3.801,3.459-7.847,0.525-11.734c2.625-6.183,0.719-10.333-5.079-12.809
	c1.683-5.27-2.556-10.164-8.676-9.005c-3.646-6.05-3.831-6.141-10.362-5.009c-0.562-2.041-1.77-3.606-3.683-4.574
	c-2.055-1.039-4.013-0.239-5.943,0.439c-1.43-1.84-3.29-2.599-5.495-2.775c-2.683-0.217-3.686,1.773-4.809,3.561
	c-2.443,0-4.795,0-7.094,0c-0.149,0.839-0.26,1.461-0.383,2.153c0.131,0.258,0.292,0.572,0.443,0.868
	c2.215,0.197,4.384,0.391,6.678,0.594c0.486,1.678,1.334,3.095,3.322,3.691c1.801,0.54,3.486,0.426,5.147-0.211
	c2.09,3.755,5.124,4.766,8.964,3.373c0.786,4.101,3.831,5.753,8.998,4.995c-0.179,3.976,1.923,5.969,5.843,6.312
	c-1.518,3.264-0.729,6.074,1.306,8.475c-2.768,3.201-2.786,6.311-0.519,9.422c-4.347,4.182-2.858,10.843,1.975,11.652
	c-0.838,2.707-0.42,5.289,1.429,7.371c1.927,2.171,4.601,2.12,7.257,1.482c0.721,4.88,4.219,5.672,8.198,6
	c-1.074,4.729,0.575,7.894,5.492,9.062c-0.185,0.507-0.374,0.946-0.506,1.401c-0.792,2.721-0.858,5.268,1.633,7.274
	c0.354,0.285,0.497,0.831,0.677,1.149c-2.377,3.112-2.335,6.16-0.812,9.041c-0.772,1.254-1.693,2.304-2.095,3.525
	c-0.422,1.277-0.344,2.72-0.486,4.103c-2.406,1.005-3.181,0.868-5.526,7.601c-5.245,0.176-8.722,2.648-9.98,7.922
	c-7.138-5.75-13.478-4.896-16.893,2.648c-0.379-0.698-0.707-1.471-1.179-2.143c-2.315-3.299-5.707-4.082-9.449-3.857
	c-1.547,0.094-2.875,0.682-3.649,2.229c-0.351,0.7-1.021,1.24-1.523,1.826c-1.974-4.363-4.937-7.28-10.014-7.233
	c0.781-5.882-2.354-8.859-7.337-10.551c0.572-3.733-0.487-6.676-3.908-8.347c0.374-2.359,1.023-4.551,0.366-6.839
	c-0.656-2.287-2.116-3.946-4.025-5.249c2.044-4.319,0.485-7.853-2.132-11.089c2.031-2.784,2.034-5.819,0.882-8.686
	c-1.144-2.848-3.143-5.158-6.498-5.695c2.175-4.674,1.244-9.679-3.774-11.533c1.401-3.548,2.109-7.015-1.71-9.699
	c2.091-3.006,2.708-6.066,0.688-9.245c3.12-2.098,3.088-5.104,2.755-7.624c1.042-2.188,1.862-3.912,2.775-5.83
	c2.656-0.515,4.326-2.402,4.966-5.275c2.423-0.374,4.727-0.73,7.191-1.111c-0.396-1.084,0.521-2.248-0.618-3.052
	c-2.482,0.169-4.91,0.334-7.373,0.501c-1.87-1.874-4.014-2.377-6.536-1.365c-2.512,1.008-3.439,3.064-3.864,5.58
	c-4.102,0.133-5.246,2.864-5.465,6.314c-2.099,0.909-3.427,2.33-3.868,4.574c-0.419,2.131-0.125,4.085,1.129,5.982
	c-2.248,1.276-3.212,3.207-3.217,5.673c-0.005,2.337,0.533,4.452,2.317,6.088c-1.333,1.96-1.558,4.166-1.308,6.422
	c0.27,2.427,1.6,4.179,3.965,5.167c-1.267,2.332-1.27,4.644-0.596,6.954c0.729,2.495,2.914,3.527,4.838,4.55
	c-0.67,1.933-1.314,3.789-1.979,5.7c0.378,4.169,0.21,4.081,3.492,7.454c-1.441,2.297-2.427,4.653-1.73,7.531
	c0.71,2.934,2.694,4.398,5.292,5.266c-0.915,2.137-1.727,4.166-1.393,6.441c0.333,2.272,1.419,4.123,3.194,5.602
	c-1.518,2.857-2.02,5.742-0.727,8.839c1.385,3.317,4.191,4.151,7.351,4.292c-0.427,2.826-0.409,5.312,1.265,7.617
	c2.316,3.191,5.308,3.903,8.762,2.602c0.205,0.283,0.268,0.342,0.294,0.413c0.04,0.11,0.069,0.23,0.078,0.348
	c0.193,2.415,1.006,4.453,2.516,6.489c2.055,2.774,5.81,3.152,8.409,1.838c1.579-0.799,2.947-2.012,4.416-3.043
	c0.048,0.172,0.174,0.575,0.272,0.985c0.841,3.536,3.338,5.376,6.624,6.291c1.206,0.337,2.511,0.306,3.761,0.509
	c2.491,0.402,4.992-0.675,6.328-2.771c0.263-0.412,0.546-0.812,0.842-1.25c0.73,0.637,1.28,1.34,2,1.705
	c3.351,1.7,6.731,3.219,10.669,1.867c1.5-0.516,3.1-0.797,4.247-1.958c1.076-1.09,2.005-2.325,3.115-3.634
	c2.903,1.465,5.986,1.297,9.165-0.031c3.446-1.44,4.46-4.479,5.424-7.712c5.385-0.864,8.501-3.876,8.745-9.362
	c6.663-2.8,6.9-8.029,5.577-13.955C157.804,124.367,157.336,119.549,154.135,115.617z"/>
<path fill-rule="evenodd" clip-rule="evenodd" fill="#de4555" class="fill" d="M116.299,160.834c-1.343,0.766-3.084,1.105-4.668,0.484
	c-2.552-1.003-3.093-3.395-3.25-5.878c1.141-1.765,1.248-4.269,3.479-5.112c0.217,1.907,0.041,4.02,0.771,5.752
	C113.371,157.838,115.003,159.22,116.299,160.834z"/>
<path fill-rule="evenodd" clip-rule="evenodd" fill="#de4555" class="fill" d="M128.385,145.759c-1.234,4.767-1.045,8.198,5.712,9.128
	c-1.507,1.763-5.201,2.082-6.569,1.491c-2.477-1.07-2.902-3.442-3.025-5.757C124.367,148.082,126.419,147.054,128.385,145.759z"/>
<path fill-rule="evenodd" clip-rule="evenodd" fill="#de4555" class="fill" d="M138.231,136.781c-0.022,4.98,0.985,6.814,6.415,7.027
	c-0.408,1.533-1.556,2.315-2.873,2.723c-1.061,0.329-2.071,0.12-3.052-0.756c-1.404-1.256-2.036-2.865-2.449-4.524
	C135.843,139.521,136.854,138.156,138.231,136.781z"/>
<path fill-rule="evenodd" clip-rule="evenodd" fill="#de4555" class="fill" d="M52.744,78.257c-1.847,2.714-1.864,5.636-1.296,8.645
	c-1.84,0.015-3.084-0.964-3.939-3.098c-0.493-1.231,0.189-3.423,1.395-4.558C50.001,78.213,51.172,77.537,52.744,78.257z"/>
<path fill-rule="evenodd" clip-rule="evenodd" fill="#de4555" class="fill" d="M145.978,106.812c-1.047,2.35-2.249,2.638,1.758,8.532
	c-0.976,0.134-1.901,0.26-2.708,0.37c-2.754-1.191-3.626-5.465-2.647-7.614C143.003,106.734,144.495,106.144,145.978,106.812z"/>
<path fill-rule="evenodd" clip-rule="evenodd" fill="#de4555" class="fill" d="M95.493,151.223c-1.362,3.684-0.988,7.033,1.33,10.399
	c-0.622-0.046-0.977-0.022-1.305-0.105c-2.152-0.546-3.699-1.723-4.193-4.021C90.892,155.482,93.243,151.763,95.493,151.223z"/>
<path fill-rule="evenodd" clip-rule="evenodd" fill="#de4555" class="fill" d="M131.198,87.488c0.009,4.443-0.031,6.664,4.491,7.895
	c0.134,1.205-0.871,1.278-1.556,1.289c-3.234,0.053-5.636-0.752-4.97-5.213c0.133-0.889,0.285-1.805,0.63-2.623
	C129.994,88.357,130.593,88.045,131.198,87.488z"/>
<path fill-rule="evenodd" clip-rule="evenodd" fill="#de4555" class="fill" d="M144.621,117.838c0.59-0.102,1.167-0.2,1.958-0.336
	c-1.539,3.48-0.41,6.282,1.846,8.883c-1.407-0.363-2.73-0.706-4.236-1.097C142.273,123.322,142.357,120.069,144.621,117.838z"/>
<path fill-rule="evenodd" clip-rule="evenodd" fill="#de4555" class="fill" d="M121.628,82.045c0.198,1.505,0.21,2.906,0.599,4.193
	c0.425,1.404,1.341,2.545,3.105,2.591c-0.131,0.771-0.234,1.379-0.393,2.315c-1.148-0.236-2.382-0.212-3.269-0.754
	c-0.85-0.521-1.34-1.629-1.863-2.314c-0.065-2.16-0.385-4.312,1.362-5.896C121.342,82.023,121.665,82.035,121.628,82.045z"/>
<path fill-rule="evenodd" clip-rule="evenodd" fill="#de4555" class="fill" d="M112.806,44.767c0.147,1.226,0.277,2.317,0.387,3.229
	c0.972,1.637,3.231,1.175,4.047,2.814c-1.502,1.486-4.555,1.762-5.474,0.506C110.281,49.287,110.693,46.83,112.806,44.767z"/>
<path fill-rule="evenodd" clip-rule="evenodd" fill="#de4555" class="fill" d="M141.651,129.032c1.357,0.628,2.672,1.235,3.838,1.774
	c0.665,1.246,1.272,2.385,1.88,3.524c-1.659,0.911-3.77,0.424-5.32-1.396C141.003,131.707,140.479,130.174,141.651,129.032z"/>
<path fill-rule="evenodd" clip-rule="evenodd" fill="#de4555" class="fill" d="M142.933,104.647c-0.705,0.53-1.245,0.984-1.837,1.356
	c-0.199,0.125-0.557,0.121-0.796,0.041c-3.068-1.034-4.335-4.766-2.467-7.479c0.336,0.086,0.708,0.182,1.227,0.314
	C139.408,101.335,140.159,103.657,142.933,104.647z"/>
<path fill-rule="evenodd" clip-rule="evenodd" fill="#de4555" class="fill" d="M48.264,67.6c-1.807,2.408-1.405,5.033-0.775,7.646
	c-1.542,0.113-2.407-0.359-2.88-1.778c-0.712-2.134-0.734-3.913,0.611-5.249C46.109,67.335,47.193,67.068,48.264,67.6z"/>
<path fill-rule="evenodd" clip-rule="evenodd" fill="#de4555" class="fill" d="M82.273,148.115c-1.867,2.468-2.344,5.148-1.644,8.122
	c-2.646-1.263-3.247-4.592-2.563-6.272C78.609,148.629,80.456,147.756,82.273,148.115z"/>
<path fill-rule="evenodd" clip-rule="evenodd" fill="#de4555" class="fill" d="M69.15,145.977c-1.778-0.623-2.776-2.544-2.327-4.629
	c0.443-2.051,1.574-2.764,3.794-2.777C70.133,141.021,69.64,143.509,69.15,145.977z"/>
<path fill-rule="evenodd" clip-rule="evenodd" fill="#de4555" class="fill" d="M99.33,38.738c-0.808,0.699-1.375,1.191-2.014,1.744
	c-1.464,0.182-3.193-1.004-3.779-2.687c-0.491-1.413,0.124-3.138,1.394-3.912c0.341,0.993,0.682,1.988,1.024,2.985
	C97.02,37.459,98.043,38.025,99.33,38.738z"/>
<path fill-rule="evenodd" clip-rule="evenodd" fill="#de4555" class="fill" d="M45.908,57.136c0.154,2.495,0.309,4.983,0.471,7.599
	c-0.188,0.063-0.63,0.213-1.019,0.344c-1.535-0.941-2.505-3.262-2.092-4.875C43.772,58.235,44.771,57.184,45.908,57.136z"/>
<path fill-rule="evenodd" clip-rule="evenodd" fill="#de4555" class="fill" d="M118.612,55.48c-1.144,2.759,1.773,3.77,2.374,5.854
	c-1.242,0.174-2.262,0.316-3.355,0.47c-1.143-0.736-1.985-1.752-1.865-3.189C115.921,56.752,116.756,55.85,118.612,55.48z"/>
<path fill-rule="evenodd" clip-rule="evenodd" fill="#de4555" class="fill" d="M62.674,128.592c-1.418,3.64-1.303,2.711-1.012,7.527
	c-1.844-0.006-2.875-1.404-2.823-4.041C58.869,130.6,60.204,128.545,62.674,128.592z"/>
<path fill-rule="evenodd" clip-rule="evenodd" fill="#de4555" class="fill" d="M56.218,91.389c-0.698,2.564-1.385,5.091-2.069,7.607
	c-1.353-0.479-2.171-2.584-1.739-4.692C52.729,92.746,54.605,91.371,56.218,91.389z"/>
<path fill-rule="evenodd" clip-rule="evenodd" fill="#de4555" class="fill" d="M59.305,123.031c-1.71-0.611-2.467-3.701-1.877-4.891
	c0.583-1.174,2.149-1.656,3.906-1.133C60.666,118.992,59.996,120.981,59.305,123.031z"/>
<path fill-rule="evenodd" clip-rule="evenodd" fill="#de4555" class="fill" d="M119.803,80.423c-0.654,0.544-1.2,0.998-1.743,1.45
	c-1.731-0.655-2.86-2.998-2.735-5.885c0.577-0.373,1.249-0.808,1.92-1.242c0.12,0.015,0.24,0.029,0.36,0.045
	C116.905,77.267,117.747,79.084,119.803,80.423z"/>
<path fill-rule="evenodd" clip-rule="evenodd" fill="#de4555" class="fill" d="M120.543,71.69c-1.212,0-2.194,0-3.161,0
	c-1.156-1.345-2.407-2.647-1.611-4.555c0.4-0.957,1.128-1.759,2.346-1.925C117.721,68.57,117.478,69.276,120.543,71.69z"/>
<path fill-rule="evenodd" clip-rule="evenodd" fill="#de4555" class="fill" d="M55.938,112.09c-1.477-0.439-2.524-2.557-2.134-4.252
	c0.467-2.027,1.512-2.747,3.503-2.406c-0.324,1.09-0.721,2.164-0.949,3.274C56.13,109.814,56.071,110.957,55.938,112.09z"/>
<path fill-rule="evenodd" clip-rule="evenodd" fill="#de4555" class="fill" d="M86.513,32.021c1.375,1.715,2.514,3.132,3.658,4.558
	c-1.301,0.394-2.903,0.7-3.958-0.55c-0.6-0.711-0.566-2.031-0.618-3.087C85.58,32.627,86.242,32.277,86.513,32.021z"/>
<path fill-rule="evenodd" clip-rule="evenodd" fill="#de4555" class="fill" d="M101.578,42.192c0.124-0.502,0.227-0.924,0.405-1.645
	c1.781,1.757,3.199,3.882,6.032,3.771c-0.221,1.016-0.827,1.34-1.651,1.267C104.148,45.387,102.413,44.469,101.578,42.192z"/>
<path fill-rule="evenodd" clip-rule="evenodd" fill="#de4555" class="fill" d="M48.427,53.989c-0.578-0.088-1.098-0.167-1.526-0.231
	c-1.346-1.412-1.493-3.002-1.045-4.639c0.224-0.817,0.754-1.557,1.989-1.553C46.729,49.834,48.06,51.77,48.427,53.989z"/>
<path fill-rule="evenodd" clip-rule="evenodd" fill="#de4555" class="fill" d="M51.181,40.382c-0.125,0.598-0.318,1.19-0.354,1.794
	c-0.038,0.621,0.078,1.25,0.132,1.951c-0.585,0-1.16,0-1.903,0c0.05-0.777,0.097-1.529,0.143-2.25
	c0.62-0.594,1.205-1.154,1.79-1.715C51.052,40.236,51.116,40.309,51.181,40.382z"/>
<path fill-rule="evenodd" clip-rule="evenodd" fill="#de4555" class="fill" d="M57.023,34.604c-1.087,2.147-0.574,4.232,0.085,6.313
	c-1.772-1.446-2.149-2.882-1.44-4.927C56.131,34.658,56.131,34.658,57.023,34.604z"/>
</svg>
