<svg version="1.1" id="svg" xmlns="http://www.w3.org/2000/svg" xmlns:xlink="http://www.w3.org/1999/xlink" x="0px" y="0px"
	 width="200px" height="200px" viewBox="0 0 200 200" enable-background="new 0 0 200 200" xml:space="preserve">
<path class="stroke" fill="#6e3411"  d="M161.964,132.062c-0.418-1.28-0.93-2.537-1.232-3.843c-0.617-2.66-1.713-5.104-3.175-7.38
	c-1.721-2.681-3.505-5.329-6.426-6.128c-1.51-1.873-2.667-3.566-4.086-5.001c-1.42-1.437-3.102-2.615-4.769-3.988
	c-0.784-0.812-1.579-1.853-2.581-2.622c-1.853-1.426-3.878-2.559-6.369-2.218c-0.834,0.113-1.428-0.272-2.037-0.761
	c-1.01-0.81-2.055-1.612-3.46-1.512c-1.102,0.079-1.959-0.317-2.755-1.073c-0.957-0.906-2.129-1.47-3.464-1.584
	c-1.124-0.097-2.253-0.173-3.38-0.186c-0.838-0.009-1.511-0.242-2.151-0.97c0.475-0.226,0.806-0.384,1.137-0.538
	c3.02-1.414,6.103-2.707,9.043-4.271c4.222-2.245,8.379-4.625,12.489-7.07c2.737-1.628,5.032-3.778,6.984-6.345
	c3.196-4.204,4.108-8.902,3.389-14.008c-0.171-1.214-0.441-2.438-0.855-3.588c-0.806-2.24-2.342-3.842-4.393-5.117
	c-4.156-2.585-8.617-3.061-13.209-1.953c-2.966,0.715-5.823,1.915-8.396,3.657c-0.514,0.347-1.082,0.615-1.74,0.984
	c-0.148-0.626-0.27-1.085-0.363-1.548c-0.74-3.725-2.952-6.114-6.553-7.249c-0.411-0.13-0.845-0.209-1.228-0.395
	c-1.45-0.701-2.926-0.565-4.42-0.215c-3.265,0.77-6.119,2.323-8.613,4.548c-0.64,0.57-1.366,1.109-1.823,1.812
	c-3.729,5.739-6.122,11.945-6.395,18.863c-0.021,0.537-0.131,1.07-0.154,1.605c-0.17,3.866-0.771,7.724-0.224,11.601
	c0.135,0.948,0.331,1.888,0.498,2.828c-1.416,1.049-2.738,2.029-4.182,3.098c-1.492-3.129-3.457-5.583-6.828-6.588
	c-3.447-1.026-6.276,0.623-9.204,2.086c-1.216-0.99-2.361-1.961-3.547-2.878c-2.468-1.91-4.983-3.76-7.427-5.698
	c-1.262-1.001-2.475-2.08-3.6-3.232c-0.859-0.879-1.807-1.499-3.091-1.872c-0.52,0.217-1.182,0.361-1.688,0.723
	c-3.412,2.439-7.305,3.899-11.132,5.469c-3.435,1.408-6.942,2.641-10.42,3.939c-0.969,0.361-1.862,0.785-2.238,1.897
	c0.682,0.809,1.523,0.795,2.386,0.633c1.693-0.317,3.371-0.734,5.075-0.974c5.206-0.732,9.955-2.681,14.478-5.27
	c1.021-0.585,2.028-1.196,3.206-1.893c0.815,0.463,1.706,0.846,2.456,1.414c3.561,2.694,7.09,5.43,10.614,8.174
	c0.665,0.518,1.251,1.136,1.879,1.711c-0.815,1.729-1.322,3.44-2.736,4.906c-4.5-1.942-8.979-3.875-13.597-5.869
	c-0.503,0.285-1.095,0.542-1.595,0.92c-1.072,0.812-2.073,1.716-3.147,2.526c-3.173,2.398-6.341,4.806-9.564,7.135
	c-1.823,1.32-3.756,2.489-5.633,3.736c-0.794,0.527-1.679,1-1.68,2.07c0.494,0.872,1.159,0.687,1.748,0.413
	c2-0.927,4.045-1.783,5.948-2.882c4.668-2.699,8.981-5.918,13.155-9.326c0.486-0.398,1.039-0.714,1.628-1.114
	c4.031,1.913,8.347,2.932,12.127,5.08c-0.331,1.45-0.7,2.743-0.915,4.061c-0.626,3.833-0.517,7.567,1.312,11.149
	c2.883,5.65,10.331,7.001,14.629,1.838c0.269-0.322,0.575-0.615,1.05-1.119c0.704,1.486,1.331,2.812,1.955,4.13
	c-3.057,2.824-5.974,5.521-8.778,8.113c-1.912,5.757-3.772,11.36-5.599,16.865c-2.237,0.63-4.249,1.197-6.423,1.812
	c-0.036,0.681-0.07,1.313-0.112,2.113c2.983-0.559,5.696-1.068,8.369-1.569c0.428-1.092,0.817-2.035,1.17-2.991
	c1.529-4.14,3.06-8.278,4.564-12.425c0.676-1.863,1.988-3.135,3.586-4.223c2.129-1.451,4.189-3.002,6.303-4.479
	c1.087-0.759,2.223-1.45,3.457-2.252c0.576,1.312,1.082,2.468,1.654,3.773c-0.513,0.929-1.032,1.99-1.667,2.979
	c-0.387,0.602-0.498,1.13-0.262,1.809c0.387,1.115,0.712,2.252,1.03,3.39c0.621,2.22,1.242,4.44,1.817,6.672
	c0.304,1.176,0.511,2.377,0.75,3.504c-3.095,3.306-6.032,6.442-9.128,9.751c0.361,0.407,0.733,0.824,1.219,1.371
	c3.55-3.074,6.918-5.991,10.327-8.944c-0.58-4.747-1.159-9.483-1.714-14.023c1.713-2.354,2.661-4.924,4.707-6.859
	c1.878,1.965,3.517,3.986,6.178,5.054c1.291-1.515,0.548-3.678,1.663-5.398c0.665,0.651,1.385,1.161,1.849,1.846
	c2.291,3.382,4.543,6.787,6.731,10.234c0.407,0.643,0.655,1.516,0.636,2.274c-0.045,1.876-0.275,3.749-0.454,5.622
	c-0.225,2.349-0.473,4.695-0.712,7.056c2.114,1.837,4.451,3.122,6.911,4.4c0.595-0.515,1.139-0.983,1.857-1.605
	c-2.22-1.669-4.256-3.201-6.336-4.766c0.978-4.058,1.922-7.972,2.864-11.882c-0.72-1.603-1.964-3.026-1.822-4.981
	c1.563,0.387,2.956,0.979,4.366,1.022c1.962,0.062,3.706,0.427,5.499,1.303c2.666,1.304,5.604,1.416,8.543,1.021
	c0.638-0.086,1.285-0.143,1.927-0.148c1.228-0.011,2.456,0.003,3.683,0.049c0.792,0.029,1.602,0.052,2.37,0.225
	c2.521,0.567,5.019,1.241,7.637,0.597c0.938-0.23,1.891-0.473,2.848-0.533c2.496-0.156,5.127-0.721,6.905,1.807
	C162.193,133.542,162.326,133.17,161.964,132.062z"/>
<path fill-rule="evenodd" clip-rule="evenodd" fill="#ffd624" class="fill" d="M121.601,83.376c-3.144,0.109-6.288,0.218-9.815,0.341
	c1.296-2.382,1.893-4.787,4.569-5.621c1.488-0.463,2.954-1.002,4.419-1.536c1.368-0.498,2.635-0.241,3.869,0.422
	c1.184,0.636,2.365,1.276,3.564,1.883c0.248,0.126,0.567,0.106,0.965,0.173c-0.075-1.449-1.278-1.418-2.021-1.862
	c-0.769-0.462-1.597-0.82-2.766-1.409c1.321-0.443,2.261-0.76,3.197-1.074c0.982-1.062,1.965-2.122,3.069-3.315
	c2.762,0.429,5.528,0.857,8.271,1.282c0.192-0.865-0.271-0.927-0.698-1.001c-1.588-0.281-3.177-0.554-4.766-0.832
	c-0.515-0.09-1.029-0.187-1.827-0.331c2.465-2.914,5.379-5.016,7.795-7.693c-0.768-0.484-1.136-0.112-1.465,0.206
	c-2.474,2.39-4.936,4.792-7.395,7.197c-0.924,0.903-1.871,1.788-2.732,2.748c-0.788,0.878-1.702,1.457-2.856,1.693
	c-1.198,0.245-2.389,0.529-3.711,0.824c0-1.686,0-3.162,0-4.747c2.902-1.732,5.74-3.427,8.614-5.142
	c-0.557-0.911-1.023-0.467-1.526-0.161c-2.023,1.223-4.056,2.431-6.093,3.631c-0.17,0.1-0.396,0.104-0.732,0.186
	c-0.072-2.334,0.032-4.473,1.858-6.141c0.954-0.869,1.851-1.8,2.774-2.701c0.312-0.304,0.658-0.598,0.071-1.243
	c-2.142,1.689-3.914,3.703-5.554,5.754c-0.278,3.688-0.548,7.275-0.832,11.05c-1.663,0.563-3.374,1.144-5.109,1.732
	c-1.011-1.435-0.997-2.972-1.354-4.506c0.896-1.926,1.815-3.901,2.706-5.818c-0.632-0.573-1.007-0.376-1.212,0.062
	c-0.887,1.896-1.735,3.812-2.641,5.816c0.364,1.749,0.746,3.583,1.153,5.545c-1.033,1.723-2.142,3.499-3.178,5.314
	c-0.986,1.73-1.934,3.482-2.832,5.261c-0.548,1.084-1.213,1.819-2.545,1.895c-0.937,0.055-1.858,0.394-2.881,0.627
	c0.052-1.119,1.111-1.876,0.694-3.116c-0.966,0.153-1.882,0.299-3.041,0.482c0.225-0.869,0.335-1.542,0.569-2.169
	c1.528-4.085,3.076-8.179,5.36-11.903c1.598-2.604,3.374-5.14,5.371-7.448c2.776-3.209,5.744-6.289,9.248-8.733
	c3.576-2.494,7.253-4.812,11.651-5.696c3.704-0.743,7.106,0.082,10.174,2.017c2.164,1.365,3.482,3.523,3.487,6.224
	c0.002,1.824,0.107,3.695-0.24,5.466c-0.835,4.248-3.157,7.724-6.275,10.66c-2.564,2.414-5.604,4.127-8.698,5.783
	c-4.077,2.181-8.052,4.553-12.087,6.812c-1.632,0.914-3.309,1.748-4.996,2.636c-1.441-1.599-3.451-1.491-5.412-2.139
	c1.144-2.128,2.225-4.139,3.319-6.175c3.626,0.005,7.107-0.223,10.594-0.398C121.652,83.916,121.626,83.646,121.601,83.376z"/>
<path fill-rule="evenodd" clip-rule="evenodd" fill="#ffd624" class="fill" d="M109.34,121.281c-1.875-1.546-3.072-3.367-4.106-5.408
	c-0.552,0.285-0.965,0.501-1.288,0.668c-0.995,1.715-0.677,3.556-0.999,5.582c-0.603-0.368-1.213-0.545-1.486-0.947
	c-0.716-1.057-1.354-2.182-1.891-3.342c-0.372-0.8-0.28-0.843-1.388-1.092c-0.5,0.763-1.014,1.548-1.588,2.425
	c-1.954-1.198-2.766-2.817-2.792-5.056c-0.31-0.192-0.693-0.43-1.16-0.72c-0.727,0.857-1.374,1.621-2.111,2.491
	c-0.791-1.331-0.979-2.672-1.032-4.15c-0.252-0.163-0.553-0.356-0.92-0.594c-1.234,1.072-2.432,2.114-3.672,3.192
	c-1.033-1.065-1.4-2.258-1.278-3.495c0.162-1.634,0.322-3.274,1.339-4.729c2.15-3.076,3.216-6.546,3.265-10.298
	c0.031-2.424,1.563-3.735,3.568-5.111c0.11,1.03,0.198,1.85,0.289,2.691c0.625,0.904,1.345,0.599,2.083,0.142
	c1.458-0.903,2.857-1.939,4.871-2.052c-0.289,0.967-0.568,1.9-0.833,2.784c0.813,0.933,1.627,0.454,2.438,0.249
	c1.977-0.499,3.958-0.979,5.942-1.449c0.196-0.047,0.417,0.017,0.886,0.043c-0.576,0.692-1.03,1.237-1.541,1.85
	c0.152,0.35,0.316,0.727,0.464,1.066c1.31,0.097,2.535,0.225,3.762,0.267c1.245,0.044,2.1,0.705,2.871,1.582
	c0.563,0.639,1.141,1.269,1.757,1.855c0.99,0.944,1.646,2.078,2.21,3.565c-0.931-0.226-1.671-0.405-2.467-0.599
	c-0.278,0.388-0.52,0.725-0.723,1.007c0.268,2.307,2.769,3.804,2.018,6.455c-1.062-0.223-2.08-0.438-3.274-0.689
	c-0.203,1.794,1.011,3.199,0.579,4.863c-0.394,1.517,0.141,3.223-0.812,4.735c-1.095-0.682-0.804-2.587-2.546-2.72
	C109.102,117.895,109.91,119.549,109.34,121.281z M108.756,98.846c-0.379,0.466-0.717,0.879-1.04,1.275
	c0.887,0.949,1.583,1.759,2.352,2.494c0.585,0.561,1.285,0.734,2.098,0.172C111.866,100.853,110.861,99.56,108.756,98.846z
	 M92.959,100.329c0.986,1.25,2.223,2.143,3.513,2.934c0.513,0.315,1.036,0.001,1.257-0.61c-0.583-1.695-1.402-2.645-2.624-3.009
	C94.327,99.411,93.646,99.557,92.959,100.329z M100.62,99.225c2.801-1.473,2.801-1.473,3.362-2.393
	c-0.656-0.979-1.63-0.633-2.43-0.397c-0.864,0.253-1.91,0.494-2.006,1.779C99.897,98.544,100.238,98.865,100.62,99.225z
	 M103.205,104.421c0.347-0.374,0.589-0.635,0.789-0.849c-0.033-1.201-0.643-1.905-1.623-2.247c-0.891-0.311-1.636,0.042-2.353,0.834
	C100.762,103.344,102,103.714,103.205,104.421z M102.29,109.111c-0.266-2.186-1.629-3.474-3.388-3.238c0,0.446,0,0.903,0,1.425
	C100.145,107.687,100.344,109.968,102.29,109.111z M105.96,104.285c0.825,1.401,2.002,2.376,3.661,3.326
	c0.277-0.249,0.529-0.475,0.672-0.603C108.949,104.142,107.521,103.282,105.96,104.285z M101.692,115.16
	c-0.022-1.722-0.505-2.914-1.418-3.911c-0.422-0.459-1.017-0.499-1.781,0.032C99.496,112.521,99.268,114.573,101.692,115.16z
	 M110.308,112.36c-0.324-1.498-0.994-2.639-2.041-3.509c-0.566-0.472-1.098-0.275-1.277,0.482
	C108.592,112.128,108.874,112.405,110.308,112.36z M91.498,105.114c1.083,2.329,2.188,2.933,3.382,1.913
	C93.962,104.832,93.174,104.36,91.498,105.114z M96.51,114.1c0.217-1.484-0.423-2.526-2.004-3.414
	c-0.264,0.18-0.556,0.377-0.928,0.629C94.225,112.608,94.961,113.648,96.51,114.1z M88.495,106.454
	c-0.36,0.458-0.71,0.902-1.135,1.444c1.128,0.552,1.83,1.485,3.1,1.137C90.417,107.799,90.013,106.921,88.495,106.454z
	 M104.202,110.068c0.512,1.049,0.936,2.057,1.49,2.985c0.25,0.418,0.771,0.533,1.222,0.117
	C106.009,110.386,105.621,109.895,104.202,110.068z M94.672,97.771c0.829-0.625,1.441-1.086,2.062-1.553
	c-0.996-1.157-1.464-1.082-2.792,0.369C94.124,96.883,94.327,97.212,94.672,97.771z M90.383,102.812
	c0.652-0.603,0.486-0.995,0.139-1.291c-0.437-0.371-0.924-0.483-1.495,0.179C89.497,102.084,89.918,102.43,90.383,102.812z"/>
<path fill-rule="evenodd" clip-rule="evenodd" fill="#ffd624" class="fill" d="M117.048,59.21c-5.084,4.331-9.148,9.17-12.779,14.691
	c-0.177-0.384-0.309-0.545-0.322-0.715c-0.176-2.3-0.46-4.603-0.433-6.901c0.01-0.789,0.689-1.672,1.269-2.33
	c1.706-1.94,3.519-3.784,5.28-5.677c0.311-0.334,0.567-0.719,0.897-1.143c-0.79-0.479-1.049-0.082-1.437,0.349
	c-1.729,1.913-3.51,3.78-5.284,5.651c-0.127,0.135-0.348,0.179-0.662,0.331c-0.304-2.248-0.136-4.351,0.275-6.474
	c-0.89-0.034-1.113,0.368-1.155,0.988c-0.064,0.965-0.203,1.927-0.226,2.893c-0.048,1.938-0.072,3.877-0.04,5.814
	c0.021,1.231-0.425,2.183-1.354,2.964c-0.655,0.55-1.269,1.148-2.067,1.877c-0.741-2.505-0.555-4.962-0.783-7.495
	c-0.355,0.125-0.621,0.218-1.048,0.367c0.172,2.168,0.262,4.309,0.528,6.425c0.367,2.924,0.284,5.758-0.748,8.572
	c-0.736,2.01-1.201,4.118-1.814,6.174c-0.151,0.509-0.41,0.984-0.64,1.528c-0.458,0.149-0.899,0.294-1.384,0.451
	c-0.146-0.242-0.301-0.407-0.354-0.601c-0.677-2.417-0.744-4.888-0.6-7.37c0.168-2.9,0.223-5.818,0.585-8.695
	c0.615-4.89,1.941-9.594,4.539-13.844c0.752-1.232,1.531-2.518,2.567-3.489c1.28-1.201,2.754-2.265,4.3-3.098
	c3.652-1.965,9.194-0.092,10.976,3.669C115.886,55.71,116.383,57.419,117.048,59.21z"/>
<path fill-rule="evenodd" clip-rule="evenodd" fill="#ffd624" class="fill" d="M133.352,103.828c3.28-0.197,6.101,1.983,6.656,4.959
	c0.504,2.704,0.045,5.351-0.449,7.976c-0.797,4.239-2.793,7.968-5.194,11.502c-0.241,0.353-0.439,0.735-0.772,1.299
	c-2.412,0.007-4.88,0.01-7.06-1.742C131.153,120.427,134.283,112.686,133.352,103.828z"/>
<path fill-rule="evenodd" clip-rule="evenodd" fill="#ffd624" class="fill" d="M124.74,101.144c0,0.946,0.079,1.961-0.014,2.96
	c-0.357,3.883-1.384,7.591-2.854,11.205c-1.27,3.123-3.161,5.724-5.829,7.763c-0.439,0.335-0.958,0.568-1.439,0.85
	c-0.099-0.074-0.196-0.148-0.295-0.223c0.365-1.646,0.836-3.275,1.063-4.939c0.232-1.693,0.222-3.42,0.326-5.253
	c0.477,0.089,0.967,0.181,1.651,0.307c1.131-2.283,0.805-4.632,0.281-7.071c0.537,0.025,0.973,0.046,1.605,0.076
	c0.275-2.693-0.363-5.025-1.844-7.16C118.835,98.22,120.264,98.482,124.74,101.144z"/>
<path fill-rule="evenodd" clip-rule="evenodd" fill="#ffd624" class="fill" d="M81.747,92.444c0.416,2.516,1.065,4.873,1.133,7.246
	c0.089,3.101-0.64,6.085-3.152,8.276c-0.395,0.344-0.894,0.596-1.381,0.805c-1.9,0.813-3.022,0.469-4.037-1.33
	c-0.386-0.687-0.762-1.493-0.78-2.253c-0.125-5.191,1.657-9.835,6.865-12.252C80.86,92.72,81.362,92.582,81.747,92.444z
	 M77.654,105.418c2.299-1.71,2.61-4.479,0.608-5.856c-0.792,0.674-1.628,1.384-2.455,2.087c0.162,1.151,0.294,2.095,0.425,3.021
	C76.771,104.952,77.191,105.174,77.654,105.418z"/>
<path fill-rule="evenodd" clip-rule="evenodd" fill="#ffd624" class="fill" d="M150.271,117.055c2.387,1.288,7.015,9.495,7.19,12.62
	c-3.086,0.378-9.215,1.26-10.878,0.059c0.895-2.052,2.001-4.043,2.625-6.175C149.817,121.479,149.934,119.253,150.271,117.055z"/>
<path fill-rule="evenodd" clip-rule="evenodd" fill="#ffd624" class="fill" d="M97.511,89.99c-0.988,0.348-1.966,0.691-2.947,1.036
	c-0.103-0.095-0.204-0.189-0.306-0.285c0.3-0.768,0.598-1.536,0.899-2.303c0.174-0.441,0.392-0.869,0.521-1.322
	c1.007-3.503,1.998-7.012,2.991-10.521c0.146-0.514,0.488-1.079,0.385-1.541c-0.395-1.774,0.718-2.825,1.713-3.944
	c0.455-0.511,0.979-0.962,1.58-1.545c0.156,0.383,0.31,0.605,0.332,0.84c0.145,1.549,0.311,3.097,0.364,4.649
	c0.022,0.673-0.087,1.403-0.342,2.024c-1.428,3.471-2.933,6.912-4.379,10.378C97.996,88.239,97.798,89.077,97.511,89.99z"/>
</svg>
