<svg version="1.1" id="svg" xmlns="http://www.w3.org/2000/svg" xmlns:xlink="http://www.w3.org/1999/xlink" x="0px" y="0px"
	 width="200px" height="200px" viewBox="0 0 200 200" enable-background="new 0 0 200 200" xml:space="preserve">
<path class="stroke" fill="#55061d"  d="M154.599,96.378c0.558-4.317-0.764-8.323-1.901-12.346c-0.734-2.596-2.519-4.654-4.186-6.72
	c-2.006-2.484-4.219-4.777-6.997-6.414c-1.622-0.957-3.415-1.645-4.964-2.699c-4.658-3.168-9.854-5.008-15.286-6.107
	c-3.557-0.722-7.222-0.913-10.842-1.314c-1.359-0.15-2.727-0.223-4.179-0.339c0.474-1.548,0.968-2.854,1.256-4.202
	c0.29-1.352,0.372-2.748,0.524-3.967c-1.709-1.83-3.476-2.834-5.708-2.889c-3.237-0.08-4.725,2.125-5.803,4.656
	c-0.883,2.072-1.499,4.258-2.372,6.797c-1.81,0.574-3.822,1.14-5.784,1.848c-3.872,1.395-7.725,2.849-11.566,4.324
	c-0.99,0.382-1.913,0.934-2.864,1.412c-3.122,1.566-6.314,3.008-9.339,4.742c-2.371,1.359-4.514,3.113-6.794,4.637
	c-3.313,2.213-6.186,4.938-8.368,8.214c-1.993,2.993-3.548,6.288-5.167,9.514c-0.56,1.116-0.89,2.405-1.05,3.65
	c-0.273,2.119-0.522,4.276-0.429,6.401c0.132,2.984-0.071,5.974,0.804,8.948c1.713,5.827,5.185,10.403,9.614,14.333
	c1.298,1.153,2.74,2.059,3.333,3.835c0.259,0.771,0.769,1.503,1.309,2.128c2.872,3.318,6.196,5.977,10.431,7.444
	c5.622,1.946,11.458,2.854,17.311,3.495c4.368,0.479,8.807,0.456,13.213,0.428c3.921-0.023,7.851-0.252,11.76-0.59
	c3.947-0.342,7.882-0.872,11.806-1.43c2.51-0.355,5.047-0.721,7.475-1.419c4.946-1.424,9.034-4.417,12.948-7.643
	c0.574-0.473,1.12-1.028,1.521-1.648c1.292-1.994,2.545-4.016,3.748-6.066c1.809-3.084,2.782-6.483,3.304-9.979
	c0.35-2.346,0.332-4.747,0.437-6.443c0.763-1.902,1.562-3.173,1.761-4.533C154.043,103.104,154.168,99.721,154.599,96.378z"/>
<path fill-rule="evenodd" clip-rule="evenodd" fill="#f5c4bc" class="fill" d="M74.187,73.259c-1.437,1.778-2.878,3.553-4.308,5.335
	c-1.549,1.932-2.365,4.097-2.128,6.938c0.999,0.027,1.967,0.186,2.893,0.053c2.709-0.388,5.396-0.937,8.105-1.33
	c1.173-0.17,2.394-0.237,3.567-0.113c0.721,0.077,1.394,0.605,2.429,1.091c-0.76,1.248-1.272,2.418-2.076,3.332
	c-1.312,1.491-2.791,2.84-4.241,4.202c-1.357,1.276-2.085,2.887-2.559,4.627c-0.387,1.423-0.109,2.092,1.25,2.67
	c1.147,0.489,2.365,0.912,3.59,1.097c3.308,0.496,6.641,0.822,9.955,1.274c1.021,0.141,2.017,0.472,2.834,0.669
	c0.674,2.848-0.64,4.722-1.867,6.649c-1.019,1.603-2.013,3.229-2.875,4.919c-0.297,0.582-0.165,1.385-0.247,2.277
	c1.952,1.573,4.359,2.169,6.882,2.384c-0.136,2.477-1.529,3.822-3.597,4.507c-2.166,0.717-4.103,1.771-5.64,3.45
	c-0.552,0.603-0.881,1.407-1.432,2.319c2.801,0.924,5.302,1.748,7.76,2.558c-0.038,1.546-0.601,2.188-1.967,2.234
	c-2.327,0.078-4.688,0.373-6.977,0.095c-4.332-0.527-8.691-1.129-12.91-2.206c-3.624-0.925-7.2-2.33-10.205-4.688
	c-2.532-1.984-4.788-4.294-6.47-7.08c-0.273-0.452-0.471-1.073-0.412-1.583c0.258-2.232,0.404-4.515,1.009-6.66
	c0.75-2.66,1.482-5.335,1.224-8.06c-0.243-2.565-1.179-4.91-4.139-5.771c-2.081-0.606-2.331-1.582-1.755-3.642
	c0.841-3.014,2.878-5.364,4.197-8.102c1.458-3.025,4.033-4.869,6.771-6.493c3.899-2.312,7.885-4.483,11.845-6.695
	c0.406-0.227,0.887-0.32,1.333-0.476C74.081,73.113,74.134,73.186,74.187,73.259z"/>
<path fill-rule="evenodd" clip-rule="evenodd" fill="#f5c4bc" class="fill" d="M62.284,134.104c15.545,4.114,30.8,6.854,46.674,4.23
	c-0.055,0.779-0.093,1.316-0.144,2.033c-2.329,0.278-4.6,0.676-6.886,0.797c-4.988,0.263-9.987,0.57-14.976,0.508
	c-3.868-0.048-7.754-0.387-11.517-1.549c-2.113-0.653-4.373-0.87-6.43-1.647c-2.095-0.791-4.034-2.003-6.007-3.095
	C62.708,135.221,62.611,134.713,62.284,134.104z"/>
<path fill-rule="evenodd" clip-rule="evenodd" fill="#f5c4bc" class="fill" d="M102.051,51.85c0.532,0.066,1.036,0.131,1.638,0.206
	c-2.916,7.461-5.436,14.972-6.937,22.945c-0.379-0.065-0.886-0.153-1.359-0.235C94.548,70.764,99.561,53.441,102.051,51.85z"/>
</svg>
