<svg version="1.1" id="svg" xmlns="http://www.w3.org/2000/svg" xmlns:xlink="http://www.w3.org/1999/xlink" x="0px" y="0px"
	 width="200px" height="200px" viewBox="0 0 200 200" enable-background="new 0 0 200 200" xml:space="preserve">
<g>
	<path class="stroke" fill="#672a19"  d="M106.803,100.252c2.688-1.294,5.316-2.668,7.624-4.59c0.708-0.589,1.453-1.136,2.183-1.699
		c0.777-0.599,1.638-1.115,2.32-1.808c1.344-1.362,2.625-2.79,3.865-4.248c1.699-2,3.438-3.98,4.972-6.104
		c1.785-2.474,3.3-5.091,4.188-8.092c0.776-2.624,1.176-5.236,0.105-7.715c-0.981-2.271-2.292-4.478-3.843-6.401
		c-1.546-1.917-3.58-3.433-5.729-4.724c-1.746-1.048-3.411-2.247-5.214-3.181c-2.305-1.193-4.699-2.222-7.083-3.255
		c-1.538-0.666-3.101-1.3-4.702-1.787c-1.468-0.447-3.006-0.664-4.508-1.009c-1.305-0.299-2.596-0.659-3.903-0.944
		c-0.627-0.136-1.294-0.098-1.917-0.246c-3.212-0.76-6.405-1.608-9.628-2.318c-2.37-0.522-4.773-0.896-7.167-1.307
		c-3.263-0.559-6.521-1.165-9.802-1.604c-2.055-0.275-4.146-0.294-6.222-0.404c-2.935-0.155-5.871-0.328-8.809-0.411
		c-1.134-0.032-2.274,0.162-3.412,0.252c-0.008-0.066-0.017-0.133-0.023-0.2c-1.391,0.165-2.84,0.136-4.158,0.539
		c-2.425,0.742-4.8,1.673-7.142,2.654c-1.286,0.539-2.425,1.419-3.694,2.005c-2.491,1.148-4.374,3.045-6.172,5.001
		c-1.077,1.171-1.766,2.69-2.79,3.919c-1.786,2.144-2.521,4.685-3.213,7.303c-0.515,1.944-0.188,3.852-0.078,5.764
		c0.083,1.447,0.281,2.946,0.767,4.3c1.171,3.266,3.018,6.205,4.95,9.068c2.17,3.219,4.876,5.964,7.785,8.527
		c2.837,2.5,5.639,5.042,8.901,6.991c2.942,1.757,5.839,3.609,8.885,5.165c3.851,1.966,7.734,3.901,11.889,5.187
		c1.534,0.475,3.06,1.015,4.628,1.334c1.715,0.348,3.475,0.493,5.219,0.693c1.832,0.211,3.666,0.423,5.504,0.554
		c0.749,0.053,1.512-0.103,2.268-0.167c2.577-0.221,5.18-0.287,7.721-0.72c1.88-0.321,3.702-1.059,5.508-1.725
		c2.204-0.812,4.39-1.684,6.532-2.647C104.591,101.673,105.629,100.817,106.803,100.252z"/>
	<path class="stroke" fill="#672a19"  d="M179.482,107.973c-0.028-1.958-0.042-3.96-0.462-5.854c-0.531-2.394-1.449-4.705-2.239-7.038
		c-0.327-0.966-0.746-1.902-1.14-2.845c-0.715-1.712-1.791-3.168-3.319-4.22c-1.721-1.185-3.422-2.449-5.29-3.351
		c-1.24-0.599-2.748-0.72-4.155-0.868c-0.929-0.098-1.928,0.007-2.832,0.256c-1.011,0.278-1.948,0.822-2.85,1.22
		c-0.988-0.73-1.992-1.518-3.043-2.238c-1.826-1.25-3.81-2.125-6.034-2.4c-1.931-0.239-3.705,0.197-5.513,0.889
		c-2.388,0.913-4.382,2.332-6.133,4.117c-2.213,2.255-4.303,4.632-6.533,6.87c-1.649,1.655-3.424,3.188-5.168,4.748
		c-2.371,2.124-4.684,4.326-7.173,6.303c-2.833,2.249-5.851,4.263-8.753,6.426c-1.713,1.276-3.417,2.577-5.022,3.984
		c-2.138,1.874-3.75,4.195-5.067,6.696c-0.801,1.521-1.289,3.229-0.901,4.915c0.598,2.602,1.451,5.145,2.217,7.707
		c0.591,1.979,1.511,3.806,3.253,4.985c1.434,0.97,2.979,1.812,4.562,2.512c1.263,0.558,2.651,0.842,3.996,1.198
		c1.207,0.32,2.431,0.573,3.585,0.841c0.313,1.824,0.601,3.523,0.897,5.22c0.224,1.282,0.868,2.317,1.718,3.306
		c1.462,1.702,3.397,2.662,5.284,3.74c2.389,1.365,4.971,2.035,7.673,2.259c4.045,0.335,8.04-0.087,11.992-0.977
		c4.92-1.107,9.417-3.22,13.764-5.721c3.044-1.751,5.738-3.936,8.28-6.331c1.035-0.974,2.116-1.908,3.067-2.958
		c0.657-0.726,1.127-1.621,1.682-2.439c1.592-2.35,3.515-4.546,4.695-7.087c1.583-3.403,3.35-6.803,3.76-10.662
		c0.246-2.319,0.738-4.613,0.962-6.934C179.443,112.163,179.512,110.062,179.482,107.973z"/>
</g>
<path fill-rule="evenodd" clip-rule="evenodd" fill="#ffc524" class="fill" d="M29.288,62.716c0.333-0.043,0.579-0.076,0.979-0.128
	c-0.377-0.307-0.655-0.532-1.103-0.895c0.445-1.614,0.687-3.459,1.462-5.043c0.901-1.841,1.627-3.827,3.275-5.277
	c1.932-1.7,3.6-3.708,5.581-5.343c2.954-2.438,6.282-4.197,10.216-4.512c2.367-0.189,4.729-0.517,7.099-0.601
	c1.83-0.065,3.669,0.168,5.505,0.236c0.999,0.037,2.001,0.006,3.001,0.006c0.02,0.111,0.04,0.222,0.059,0.333
	c-0.903,0.309-1.83,0.562-2.705,0.937c-1.796,0.768-3.595,1.543-5.339,2.418c-2.209,1.108-4.1,2.712-5.71,4.533
	c-1.221,1.38-2.12,3.077-3,4.719c-0.713,1.331-1.182,2.79-1.791,4.27c0.106,0.198,0.235,0.439,0.45,0.84
	c0.417-0.625,0.744-1.123,1.079-1.616c1.147-1.69,2.092-3.577,3.495-5.019c2.081-2.14,4.422-4.045,6.773-5.896
	c2.189-1.722,4.704-2.909,7.336-3.85c0.551-0.197,0.973-0.758,1.454-1.15c-0.05-0.12-0.099-0.24-0.148-0.359
	c1.786,0.271,3.575,0.517,5.355,0.817c5.03,0.848,10.061,1.692,15.08,2.595c1.437,0.259,2.834,0.731,4.259,1.063
	c1.333,0.31,2.682,0.549,4.019,0.845c1.997,0.442,4.025,0.789,5.974,1.389c3.069,0.943,6.159,1.891,9.097,3.164
	c2.344,1.016,4.502,2.479,6.694,3.824c1.721,1.057,3.371,2.229,5.043,3.364c0.283,0.192,0.518,0.453,0.715,0.87
	c-1.125-0.139-2.246-0.343-3.375-0.4c-1.848-0.093-3.715-0.258-5.545-0.086c-2.738,0.257-5.452,0.771-8.173,1.196
	c-0.487,0.076-0.97,0.213-1.435,0.376c-2.79,0.98-5.688,1.741-8.331,3.025c-3.565,1.731-7.136,3.533-10.057,6.35
	c-2.322,2.24-4.872,4.257-7.082,6.598c-1.575,1.669-2.887,3.632-4.073,5.61c-1.292,2.157-2.431,4.428-3.405,6.746
	c-1.365,3.25-0.785,6.604-0.069,10.134c-1.224-0.237-2.399-0.373-3.52-0.699c-2.118-0.617-4.237-1.256-6.291-2.054
	c-1.244-0.483-2.349-1.313-3.545-1.932c-1.5-0.776-3.019-1.517-4.548-2.233c-1.959-0.917-3.865-1.903-5.58-3.255
	c-1.44-1.135-3.063-2.044-4.458-3.225c-2.152-1.821-4.237-3.73-6.238-5.715c-1.324-1.313-2.6-2.725-3.634-4.269
	c-2.089-3.12-3.621-6.517-4.32-10.246c-0.079-0.424-0.241-0.832-0.333-1.255C29.395,63.524,29.351,63.122,29.288,62.716z
	 M105.336,51.344c-0.281-0.309-0.453-0.68-0.688-0.726c-1.157-0.229-2.327-0.429-3.501-0.525c-0.775-0.063-1.569,0.039-2.351,0.113
	c-2.054,0.196-4.141,0.253-6.151,0.669c-2.658,0.55-5.176,1.573-7.655,2.731c-3.209,1.499-6.188,3.339-8.855,5.619
	c-1.743,1.49-3.138,3.378-4.781,4.995c-2.288,2.253-3.61,5.08-4.907,7.927c-0.191,0.419-0.121,0.958-0.176,1.495
	c0.339,0.037,0.558,0.061,0.815,0.089C75.687,59.329,88.882,52.778,105.336,51.344z M85.264,45.569
	c-2.26-0.358-4.34-0.004-6.372,0.54c-4.585,1.228-8.886,3.028-12.582,6.143c-2.444,2.06-5.068,3.91-6.725,6.743
	c-0.277,0.474-0.56,0.944-0.845,1.413c-0.814,1.337-1.696,2.638-2.417,4.024c-0.307,0.591-0.836,1.339-0.053,2.123
	c7.212-10.332,17.152-16.716,29.14-20.233C85.364,46.077,85.316,45.832,85.264,45.569z"/>
<path fill-rule="evenodd" clip-rule="evenodd" fill="#ffc524" class="fill" d="M99.504,99.159c-1.518,0.495-3.042,0.966-4.55,1.489
	c-3.147,1.09-6.384,1.759-9.709,1.707c-2.355-0.037-4.688-0.442-6.832-1.553c-2.418-1.252-3.554-3.465-4.131-5.931
	c-0.238-1.018,0.12-2.203,0.323-3.29c0.709-3.796,2.158-7.291,4.668-10.25c2.459-2.899,5.183-5.546,8.222-7.848
	c2.211-1.675,4.387-3.403,6.677-4.965c1.236-0.845,2.645-1.467,4.033-2.054c1.933-0.816,3.902-1.554,5.887-2.235
	c1.759-0.604,3.535-1.205,5.349-1.589c2.761-0.586,5.547-1.106,8.349-1.43c2.897-0.334,5.77,0.009,8.242,1.731
	c2.001,1.394,3.494,3.287,3.852,5.75c0.192,1.328,0.204,2.85-0.264,4.07c-0.914,2.385-2.062,4.719-3.415,6.886
	c-0.994,1.591-2.397,2.953-3.744,4.291c-2.01,1.996-4.066,3.956-6.222,5.791c-2.277,1.938-4.927,3.31-7.55,4.748
	c-2.521,1.382-5.116,2.555-7.746,3.682c-0.528,0.227-0.989,0.611-1.48,0.922C99.475,99.107,99.489,99.133,99.504,99.159z
	 M109.639,72.778c0.667,0.793,1.152,0.221,1.677-0.111c0.163-0.699,0.02-1.384-0.727-1.399
	C109.74,71.249,109.61,72.012,109.639,72.778z M106.874,75.632c0.367,0.416,0.601,0.681,0.835,0.946
	c0.141-0.042,0.282-0.085,0.423-0.127c0.272-0.456,0.545-0.913,0.832-1.392c-0.27-0.318-0.469-0.552-0.816-0.959
	C107.734,74.597,107.394,75.007,106.874,75.632z M101.434,71.973c-0.201-0.114-0.419-0.237-0.605-0.343
	c-0.966,0.53-1.108,0.917-0.717,1.826C101.267,73.724,101.506,73.482,101.434,71.973z M99.153,83.689
	c0.871-0.043,1.37-0.068,1.955-0.098c-0.047-0.847-0.315-1.423-1.328-1.759C99.589,82.396,99.417,82.905,99.153,83.689z
	 M105.183,70.626c-0.659,0.189-1.008,0.289-1.455,0.417c0.108,0.523,0.198,0.961,0.331,1.613c0.457-0.199,0.975-0.264,1.082-0.507
	C105.303,71.774,105.183,71.276,105.183,70.626z M107.355,83.74c-0.41-0.087-0.789-0.258-1.145-0.22
	c-0.531,0.059-0.893,0.382-0.803,0.996C106.537,85.324,106.967,85.215,107.355,83.74z M106.174,67.055
	c-0.633-0.326-1.076-0.733-1.493-0.708c-0.301,0.018-0.566,0.613-0.821,0.919C104.737,68.352,105.277,67.681,106.174,67.055z
	 M90.316,74.581c0.878,0.853,1.231,0.761,1.539-0.3c-0.166-0.329-0.333-0.659-0.523-1.033
	C90.345,73.236,90.561,74.057,90.316,74.581z M102.36,96.053c-0.274-0.402-0.498-0.731-0.776-1.139
	c-0.432,0.29-0.755,0.507-1.083,0.727c0.137,0.633,0.086,1.29,0.793,1.277C101.661,96.621,101.926,96.406,102.36,96.053z
	 M119.033,81.823c0.168,0.376,0.328,0.733,0.476,1.065c0.438-0.109,0.715-0.178,0.967-0.241c0.144-0.262,0.27-0.49,0.39-0.708
	C120.47,81.042,120.186,81.003,119.033,81.823z M117.154,73.495c-0.211-0.304-0.396-0.863-0.687-0.925
	c-0.72-0.154-0.931,0.484-1.182,1.119c0.407,0.208,0.78,0.4,1.183,0.606C116.672,74.057,116.839,73.862,117.154,73.495z
	 M116.026,83.777c0.277,0.204,0.556,0.409,1.037,0.763c0.233-0.768,0.409-1.348,0.623-2.05c-0.567,0-0.864,0-1.225,0
	C116.315,82.92,116.188,83.298,116.026,83.777z M124.759,68.324c0.31,0.259,0.586,0.492,0.843,0.708
	c0.395-0.294,0.649-0.483,0.937-0.699c0-0.264,0-0.539,0-0.901c-0.482,0-0.898,0-1.318,0
	C125.083,67.698,124.964,67.929,124.759,68.324z M115.054,80.771c0.154-0.246,0.304-0.487,0.546-0.874
	c-0.372-0.319-0.735-0.63-1.246-1.068c-0.135,0.844-0.841,1.309-0.201,1.942C114.45,80.771,114.735,80.771,115.054,80.771z
	 M80.404,92.513c-0.262-0.286-0.455-0.496-0.673-0.735c-0.296,0.024-0.604,0.05-1.069,0.088c0.1,0.513,0.182,0.935,0.274,1.409
	c0.41,0.048,0.738,0.086,1.061,0.124C80.152,93.06,80.271,92.8,80.404,92.513z M82.024,96.129c0.614,0,0.949,0,1.485,0
	c-0.043-0.529-0.081-0.993-0.122-1.498c-0.452,0.025-0.73,0.041-1.137,0.063C82.175,95.167,82.108,95.596,82.024,96.129z
	 M126.195,73.657c0.359-0.673,0.616-1.157,0.968-1.817c-0.695,0-1.063,0-1.437,0c-0.183,0.292-0.35,0.559-0.55,0.879
	C125.443,72.964,125.688,73.19,126.195,73.657z M102.018,79.866c0.933-0.789,0.822-1.378-0.321-2.008
	c-0.163,0.415-0.457,0.82-0.426,1.196C101.294,79.335,101.739,79.581,102.018,79.866z M87.629,86.619
	c0.067,0.301,0.126,0.571,0.19,0.858c0.366,0,0.647,0,0.963,0c0.182-0.313,0.352-0.605,0.539-0.927
	c-0.252-0.291-0.454-0.523-0.711-0.819C88.256,86.052,87.961,86.32,87.629,86.619z M122.291,75.767
	c0.601-0.042,1.059,0.033,1.389-0.139c0.19-0.099,0.333-0.711,0.208-0.889c-0.195-0.278-0.636-0.383-1.062-0.609
	C122.636,74.709,122.521,75.059,122.291,75.767z M116.145,64.939c0.228,0.289,0.449,0.57,0.791,1.003
	c0.378-0.56,0.668-0.988,0.936-1.383C117.157,63.747,116.87,63.814,116.145,64.939z M101.414,86.437
	c0.235,0.205,0.44,0.383,0.693,0.604c0.401-0.188,0.774-0.363,1.147-0.539c0.034-0.11,0.069-0.221,0.104-0.331
	c-0.374-0.29-0.748-0.579-1.173-0.908C101.859,85.76,101.685,86.024,101.414,86.437z M104.745,92.919
	c-0.075,0.419-0.124,0.692-0.203,1.139c0.476,0.076,0.89,0.142,1.432,0.229c0.041-0.595,0.072-1.036,0.114-1.643
	C105.542,92.756,105.167,92.833,104.745,92.919z M77.288,94.892c-0.311,0.517-0.515,0.854-0.749,1.244
	c0.361,0.273,0.6,0.455,0.904,0.684c0.347-0.309,0.635-0.566,1.042-0.929C78.082,95.555,77.771,95.295,77.288,94.892z
	 M109.427,91.664c-0.021-0.421-0.039-0.786-0.055-1.122c-0.705-0.332-1.179-0.08-1.312,0.484c-0.071,0.3,0.272,0.698,0.439,1.076
	C108.935,91.896,109.145,91.798,109.427,91.664z M99.023,77.754c0.755-0.77,0.629-1.227-0.543-1.757
	c-0.163,0.448-0.322,0.881-0.508,1.388C98.436,77.548,98.726,77.65,99.023,77.754z M86.69,95.056
	c0.267-0.477,0.434-0.774,0.711-1.271c-0.494-0.109-0.899-0.198-1.306-0.287c-0.269,0.283-0.48,0.505-0.812,0.855
	C85.806,94.614,86.217,94.82,86.69,95.056z M96.519,91.028c-0.194-0.456-0.35-0.822-0.506-1.187
	c-0.113-0.027-0.226-0.054-0.338-0.081c-0.286,0.437-0.572,0.873-0.885,1.35c0.419,0.238,0.617,0.349,0.835,0.473
	C95.883,91.423,96.123,91.274,96.519,91.028z M109.679,64.503c-0.15-0.429-0.268-0.77-0.401-1.149
	c-0.385,0.061-0.688,0.108-1.131,0.177c0.123,0.56,0.229,1.037,0.373,1.695C108.986,64.936,109.28,64.752,109.679,64.503z
	 M112.151,69.061c0.589,0.587,1.04,0.722,1.457,0.169c0.371-0.492,0.342-0.964-0.385-1.395
	C112.882,68.224,112.543,68.612,112.151,69.061z M91.737,100.058c0.448-0.37,0.871-0.719,1.295-1.069
	c-0.036-0.145-0.071-0.289-0.107-0.434c-0.35-0.025-0.76-0.179-1.036-0.049C91.316,98.777,91.131,99.264,91.737,100.058z
	 M123.913,79.585c-0.548-1.006-0.819-0.979-1.787,0.224c0.374,0.228,0.731,0.445,1.157,0.704
	C123.556,80.112,123.742,79.836,123.913,79.585z M116.962,69.853c0.96-0.636,1.193-1.113,0.46-1.873
	c-0.375,0.232-0.751,0.464-1.474,0.91C116.415,69.333,116.688,69.593,116.962,69.853z M117.846,78.613
	c0.029-0.385,0.048-0.634,0.069-0.902c-0.285-0.167-0.529-0.311-0.779-0.458c-0.244,0.116-0.448,0.212-0.661,0.313
	c0,0.361,0,0.688,0,1.047C116.946,78.613,117.334,78.613,117.846,78.613z M83.307,81.892c0.482-0.058,0.762-0.092,1.083-0.13
	c0.086-0.317,0.159-0.586,0.238-0.876c-0.217-0.2-0.405-0.372-0.569-0.523c-0.304,0.078-0.552,0.141-0.937,0.239
	C83.182,81.018,83.238,81.412,83.307,81.892z M104.381,90.642c-0.046-0.107-0.092-0.215-0.137-0.323
	c-0.419-0.112-0.838-0.225-1.36-0.365c-0.082,0.455-0.135,0.751-0.197,1.091c0.327,0.147,0.585,0.264,0.935,0.421
	C103.885,91.18,104.133,90.911,104.381,90.642z M112.019,65.232c0.578,0.614,1.003,0.256,1.466-0.125c0-0.155,0.007-0.3-0.002-0.444
	c-0.008-0.114-0.037-0.226-0.053-0.316C112.543,63.898,112.294,64.049,112.019,65.232z M112.065,76.259
	c0.386,0.122,0.691,0.217,1.04,0.327c0.16-0.359,0.274-0.618,0.392-0.882c-0.184-0.275-0.339-0.511-0.51-0.768
	c-0.266,0.043-0.487,0.079-0.772,0.125C112.168,75.426,112.127,75.763,112.065,76.259z M107.891,80.405
	c0.428,0.276,0.704,0.455,1.055,0.681c0.212-0.566,0.382-1.021,0.575-1.537c-0.378-0.143-0.609-0.229-0.927-0.349
	C108.358,79.604,108.15,79.959,107.891,80.405z M110.745,89.305c0.499,0.262,0.887,0.466,1.301,0.684
	c0.265-0.31,0.443-0.518,0.689-0.805c-0.41-0.312-0.738-0.563-1.132-0.863C111.321,88.645,111.103,88.894,110.745,89.305z
	 M95.001,77.761c-0.456,0.393-0.807,0.697-1.212,1.046c0.295,0.333,0.499,0.564,0.787,0.89c0.359-0.292,0.65-0.53,0.91-0.741
	C95.33,78.573,95.227,78.319,95.001,77.761z M113.239,82.37c-0.693-0.201-1.166-0.832-1.984-0.012
	c0.399,0.358,0.773,0.695,1.208,1.086C112.795,82.984,112.974,82.736,113.239,82.37z M119.805,64.176
	c-0.065,0.433-0.11,0.729-0.169,1.127c0.458,0.068,0.815,0.121,1.187,0.176c0.173-0.378,0.314-0.688,0.55-1.205
	C120.781,64.237,120.335,64.209,119.805,64.176z M80.156,97.869c0,0.608,0,1.068,0,1.649c0.509-0.12,0.773-0.183,1.078-0.254
	c0-0.408,0-0.744,0-1.122C80.966,98.075,80.717,98.012,80.156,97.869z M96.053,81.222c-0.104,0.129-0.207,0.258-0.31,0.387
	c0.162,0.295,0.277,0.791,0.496,0.841c0.405,0.092,0.869-0.076,1.308-0.135c0.017-0.148,0.034-0.296,0.05-0.444
	C97.083,81.654,96.568,81.438,96.053,81.222z M90.396,79.471c-0.605,1.041-0.498,1.44,0.34,1.673
	c0.215-0.238,0.442-0.49,0.807-0.894C91.12,79.963,90.763,79.721,90.396,79.471z M92.503,82.555
	c-0.125-0.013-0.25-0.026-0.375-0.039c-0.25,0.313-0.502,0.626-0.941,1.175c0.664,0.152,1.108,0.255,1.553,0.357
	c0.088-0.085,0.176-0.169,0.263-0.253C92.836,83.381,92.669,82.968,92.503,82.555z M100.794,88.82
	c-0.564-0.209-0.858-0.317-1.215-0.45c-0.208,0.225-0.395,0.425-0.633,0.681c0.278,0.308,0.501,0.554,0.847,0.936
	C100.138,89.584,100.406,89.272,100.794,88.82z M114.458,86.894c0.119,0.063,0.237,0.126,0.355,0.189
	c0.293-0.272,0.586-0.544,1.071-0.993c-0.53-0.329-0.875-0.543-1.221-0.757c-0.097,0.069-0.193,0.139-0.291,0.208
	C114.4,85.992,114.429,86.443,114.458,86.894z M78.642,86.785c0.187-0.474,0.459-0.858,0.434-1.222
	c-0.014-0.207-0.515-0.38-0.81-0.577C77.677,86.031,77.685,86.079,78.642,86.785z M84.159,99.214
	c-0.844,0.733-0.626,1.242-0.118,1.826c0.282-0.132,0.532-0.25,0.967-0.454C84.712,100.107,84.464,99.707,84.159,99.214z
	 M96.334,72.699c0.132-0.522,0.252-0.993,0.393-1.55c-0.557,0-0.834,0-1.143,0C95.456,71.757,95.119,72.373,96.334,72.699z
	 M107.676,68.579c1.069-0.137,1.518-0.457,1.041-1.473c-0.326,0.105-0.783,0.117-0.938,0.339
	C107.604,67.696,107.702,68.136,107.676,68.579z M89.261,95.845c0.144,0.269,0.268,0.502,0.469,0.878
	c0.472-0.325,0.832-0.574,1.433-0.988c-0.61-0.287-0.944-0.443-1.255-0.589C89.654,95.419,89.498,95.589,89.261,95.845z
	 M125.914,76.954c0.197-0.394,0.371-0.741,0.593-1.187c-0.364-0.194-0.639-0.341-0.905-0.483
	C124.92,76.343,124.951,76.538,125.914,76.954z M104.187,77.496c0.441,0.098,0.808,0.293,1.084,0.205
	c0.235-0.075,0.366-0.476,0.554-0.748c-0.351-0.318-0.579-0.524-0.9-0.814C104.682,76.584,104.484,76.948,104.187,77.496z
	 M91.399,92.208c1.08-0.333,1.18-0.6,0.583-1.44C91.072,90.883,90.853,91.381,91.399,92.208z M85.174,97.565
	c0.231,0.3,0.411,0.534,0.684,0.888c0.387-0.32,0.7-0.578,1.139-0.941c-0.457-0.295-0.726-0.469-1.023-0.662
	C85.702,97.092,85.492,97.28,85.174,97.565z M99.678,68.598c-0.231,0.585-0.387,0.978-0.571,1.443
	c0.424,0.096,0.669,0.151,0.972,0.219c0.184-0.229,0.354-0.442,0.622-0.777C100.36,69.188,100.073,68.94,99.678,68.598z
	 M124.495,70.971c-0.437-0.464-0.682-0.724-0.977-1.038c-0.296,0.184-0.525,0.327-0.782,0.486c0.143,0.358,0.257,0.645,0.433,1.089
	C123.574,71.344,123.924,71.202,124.495,70.971z M97.196,87.077c-0.269-0.474-0.372-0.923-0.641-1.074
	c-0.51-0.286-0.861,0.033-1.046,0.614c0.186,0.186,0.371,0.369,0.557,0.555C96.366,87.146,96.619,87.125,97.196,87.077z
	 M84.484,86.033c-0.107,0.058-0.215,0.115-0.322,0.172c0,0.434,0,0.868,0,1.302c0.087,0.051,0.176,0.103,0.264,0.154
	c0.336-0.219,0.672-0.438,1.212-0.789C85.111,86.489,84.798,86.261,84.484,86.033z M100.428,92.348
	c-0.308,0.312-0.735,0.551-0.766,0.834c-0.031,0.278,0.34,0.601,0.544,0.919C101.047,93.612,101.144,93.138,100.428,92.348z
	 M129.091,69.604c-0.565-0.116-1.034-0.211-1.594-0.326c0,0.497,0,0.747,0,1C128.177,70.704,128.666,70.625,129.091,69.604z
	 M101.819,66.439c-0.297,0.317-0.476,0.507-0.693,0.738c0.084,0.237,0.167,0.471,0.306,0.863c0.468-0.232,0.852-0.424,1.382-0.688
	C102.431,67.001,102.151,66.745,101.819,66.439z M125.146,64.583c-0.958-0.367-1.398,0.049-1.289,1.162
	C124.584,65.701,125.127,65.499,125.146,64.583z M86.523,79.142c0.369-0.11,0.857-0.118,0.955-0.318
	c0.153-0.311,0.04-0.752,0.04-1.332c-0.554,0.292-0.849,0.448-1.158,0.612C86.413,78.44,86.453,78.694,86.523,79.142z
	 M106.12,88.871c0.537,0.08,1.097,0.327,1.38-0.521c-0.128-0.205-0.273-0.437-0.413-0.661
	C106.332,87.791,105.921,88.064,106.12,88.871z M87.354,83.64c0.298-0.431,0.53-0.768,0.806-1.168
	c-0.508-0.171-0.796-0.268-1.147-0.386c-0.161,0.246-0.323,0.492-0.503,0.769C86.771,83.098,86.957,83.27,87.354,83.64z
	 M79.687,89.257c0.092,0.055,0.185,0.111,0.277,0.167c0.336-0.253,0.672-0.507,1.001-0.754c-0.353-0.86-0.78-0.878-1.397-0.354
	C79.604,88.608,79.646,88.933,79.687,89.257z M97.423,97.951c-0.362-0.495-0.57-0.779-0.832-1.138
	c-0.352,0.204-0.631,0.365-0.948,0.548c0.139,0.308,0.241,0.532,0.371,0.82C96.442,98.111,96.831,98.048,97.423,97.951z
	 M119.87,73.45c0.167-0.004,0.335-0.008,0.504-0.013c0.11-0.337,0.397-0.764,0.284-0.987c-0.144-0.284-0.613-0.403-0.942-0.593
	c-0.112,0.095-0.224,0.19-0.336,0.286C119.543,72.578,119.706,73.014,119.87,73.45z M120.357,77.757
	c0.946,0.558,1.132,0.502,1.461-0.456c-0.395-0.157-0.797-0.316-1.308-0.519C120.446,77.191,120.403,77.462,120.357,77.757z
	 M82.298,83.837c-0.258,0.302-0.58,0.512-0.585,0.729c-0.007,0.257,0.23,0.546,0.423,0.769c0.071,0.082,0.315,0.013,0.486,0.013
	c0.096-0.274,0.179-0.511,0.262-0.747C82.723,84.392,82.584,84.211,82.298,83.837z M121.315,66.789
	c-0.093,0.533-0.167,0.956-0.286,1.631c0.562-0.279,0.831-0.412,1.097-0.545c0-0.341,0-0.62,0-0.941
	C121.872,66.889,121.658,66.851,121.315,66.789z M111.315,85.872c-0.518-0.092-0.813-0.145-1.199-0.214
	c-0.057,0.378-0.099,0.65-0.145,0.953c0.273,0.147,0.496,0.267,0.884,0.476C111.008,86.684,111.134,86.351,111.315,85.872z
	 M94.015,75.755c0.067,0.069,0.134,0.139,0.2,0.208c0.432-0.193,0.863-0.386,1.295-0.579c-0.025-0.124-0.05-0.247-0.075-0.371
	c-0.366-0.094-0.732-0.188-1.197-0.308C94.146,75.137,94.081,75.446,94.015,75.755z M87.467,90.472
	c0.431-0.604,0.621-1.054-0.171-1.585c-0.224,0.296-0.433,0.571-0.663,0.875C86.947,90.029,87.14,90.193,87.467,90.472z
	 M105.437,81.557c0.134-0.603,0.211-0.952,0.348-1.571c-0.606,0.138-0.955,0.218-1.304,0.297c-0.023,0.101-0.046,0.201-0.069,0.302
	C104.692,80.851,104.973,81.117,105.437,81.557z M121.56,63.415c0.049,0.119,0.099,0.238,0.147,0.358
	c0.296-0.101,0.676-0.123,0.866-0.324c0.204-0.216,0.23-0.6,0.334-0.91c-0.118-0.072-0.236-0.143-0.354-0.214
	C122.223,62.687,121.892,63.051,121.56,63.415z M96.384,93.287c-0.057,0.846,0.294,1.046,1.143,0.825
	c-0.111-0.38-0.213-0.73-0.334-1.142C96.819,93.116,96.613,93.197,96.384,93.287z M76.775,91.273
	c0.129-0.005,0.259-0.011,0.387-0.017c0.099-0.346,0.197-0.692,0.307-1.078c-0.331-0.152-0.55-0.254-0.77-0.355
	c-0.095,0.05-0.19,0.1-0.285,0.15C76.536,90.406,76.656,90.839,76.775,91.273z M94.922,95.222c-0.363-0.3-0.553-0.457-0.932-0.769
	c-0.157,0.538-0.268,0.917-0.378,1.297c0.1,0.052,0.201,0.105,0.301,0.158C94.201,95.713,94.488,95.518,94.922,95.222z
	 M89.178,76.481c-0.306-0.36-0.524-0.616-0.829-0.975c-0.254,0.42-0.384,0.632-0.59,0.972c0.196,0.159,0.37,0.3,0.567,0.459
	C88.568,76.808,88.764,76.702,89.178,76.481z M88.335,99.943c-0.265-0.318-0.447-0.537-0.669-0.802
	c-0.291,0.315-0.498,0.539-0.726,0.786c0.226,0.205,0.39,0.354,0.569,0.516C87.757,100.292,87.972,100.163,88.335,99.943z
	 M93.175,87.091c-0.26-0.174-0.485-0.324-0.76-0.508c-0.191,0.255-0.338,0.449-0.555,0.737c0.32,0.209,0.579,0.378,0.902,0.589
	C92.924,87.589,93.034,87.372,93.175,87.091z M84.342,89.926c-0.096,0.083-0.191,0.166-0.287,0.249
	c0.188,0.313,0.377,0.626,0.565,0.938c0.108-0.04,0.217-0.081,0.325-0.121c0.033-0.288,0.067-0.575,0.102-0.879
	C84.758,90.037,84.55,89.981,84.342,89.926z"/>
<path fill-rule="evenodd" clip-rule="evenodd" fill="#ffc524" class="fill" d="M119.261,137.249c-1.646-0.27-3.47-0.639-5.311-0.852
	c-1.876-0.218-3.7-0.589-5.391-1.432c-2.644-1.319-5.265-2.825-7.041-5.173c-1.086-1.437-1.996-3.181-1.749-5.347
	c0.218-1.905,0.487-3.688,1.845-5.053c2.331-2.345,4.558-4.821,7.49-6.489c0.653-0.371,1.167-0.979,1.771-1.444
	c2.199-1.689,4.419-3.351,6.612-5.048c1.916-1.481,3.874-2.917,5.689-4.515c2.218-1.952,4.349-4.009,6.439-6.098
	c2.669-2.666,5.22-5.449,7.896-8.108c2.417-2.402,5.163-4.199,8.575-5.072c2.504-0.641,4.568-0.297,6.552,1.225
	c0.996,0.764,2.047,1.456,3.027,2.239c0.371,0.297,0.664,0.731,0.897,1.154c1.138,2.062,2.669,3.976,2.95,6.394
	c0.256,2.205,0.627,4.404-0.226,6.646c-0.772,2.028-1.115,4.215-1.762,6.296c-0.334,1.074-0.887,2.087-1.399,3.098
	c-1.41,2.787-2.78,5.598-4.309,8.319c-0.769,1.368-1.769,2.629-2.803,3.818c-1.745,2.005-3.455,4.081-5.449,5.819
	c-2.168,1.889-4.595,3.499-7.002,5.089c-1.402,0.927-2.918,1.804-4.508,2.297c-2.271,0.705-4.647,1.1-6.998,1.512
	C123.219,136.848,121.351,136.995,119.261,137.249z M137.439,120.301c0.3-0.701,0.512-1.196,0.762-1.778
	c-0.517-0.273-0.868-0.459-1.217-0.644c-0.357,0.459-0.604,0.776-0.947,1.217C136.447,119.45,136.826,119.775,137.439,120.301z
	 M152.908,89.378c-0.243-0.784-0.749-1.053-1.576-0.875c-0.12,0.286-0.239,0.572-0.367,0.876c0.24,0.343,0.449,0.642,0.662,0.947
	c0.343-0.084,0.62-0.152,0.915-0.225C152.669,89.85,152.786,89.62,152.908,89.378z M130.965,105.624
	c-0.13,0.831-0.226,1.44-0.333,2.126c0.483,0.052,0.733,0.078,1.18,0.126c0.112-0.578,0.215-1.115,0.332-1.722
	C131.754,105.979,131.46,105.847,130.965,105.624z M117.26,112.243c0.374-0.406,0.709-0.771,1.101-1.196
	c-0.369-0.459-0.653-0.812-0.932-1.158C116.507,110.562,116.433,111.258,117.26,112.243z M143.675,98.098
	c-0.359,0.095-0.672,0.178-0.942,0.25c-0.081,0.541-0.144,0.959-0.204,1.354c1.024,0.45,1.384,0.255,1.658-0.864
	C144.06,98.652,143.912,98.439,143.675,98.098z M149.213,100.746c0.098,0.973,0.424,1.424,1.104,1.231
	c0.655-0.186,0.882-0.702,0.463-1.554C150.272,100.527,149.746,100.636,149.213,100.746z M126.949,124
	c-1.12,0.969-1.152,1.36-0.041,2.128c0.306-0.52,0.603-1.025,0.907-1.541C127.395,124.302,127.186,124.161,126.949,124z
	 M149.728,116.845c-0.468-0.325-0.741-0.514-1.094-0.758c-0.262,0.381-0.468,0.679-0.721,1.048c0.277,0.404,0.536,0.782,0.964,1.406
	C149.233,117.831,149.46,117.379,149.728,116.845z M135.657,102.07c-0.121,0.061-0.241,0.123-0.362,0.184
	c0.051,0.461-0.005,0.979,0.193,1.363c0.11,0.214,0.647,0.208,1.018,0.307c0.138-0.444,0.214-0.69,0.344-1.112
	C136.457,102.568,136.057,102.319,135.657,102.07z M145.863,116.067c0.363-0.956,0.28-1.22-0.537-1.693
	c-0.268,0.119-0.572,0.253-0.943,0.417c0.192,0.511,0.348,0.927,0.505,1.346C145.288,116.108,145.587,116.087,145.863,116.067z
	 M139.215,96.738c0.97-0.122,1.188-0.729,1.161-1.591c-0.227-0.122-0.446-0.24-0.636-0.343
	C138.698,95.583,138.612,95.88,139.215,96.738z M137.593,97.037c-0.957-0.5-1.326-0.057-1.56,0.657
	c0.249,0.755,0.671,1.023,1.506,0.553C137.557,97.869,137.575,97.439,137.593,97.037z M118.367,126.354
	c0.624,0.074,1.102,0.131,1.841,0.219c-0.247-0.705-0.408-1.167-0.583-1.666c-0.555,0.217-0.896,0.351-1.309,0.513
	C118.332,125.699,118.346,125.968,118.367,126.354z M127.508,105.474c0.182-0.69,0.278-1.282-0.635-1.727
	c-0.302,0.389-0.597,0.768-0.904,1.162c0.27,0.317,0.434,0.51,0.614,0.722C126.905,105.576,127.183,105.529,127.508,105.474z
	 M156.667,89.675c-0.096,0.028-0.191,0.056-0.287,0.083c-0.027,0.349-0.05,0.698-0.082,1.045c-0.043,0.47-0.006,1.002,0.562,0.963
	c0.243-0.016,0.467-0.579,0.66-0.917c0.06-0.105-0.011-0.286-0.027-0.513C157.242,90.136,156.955,89.905,156.667,89.675z
	 M133.831,110.521c-0.315-0.139-0.546-0.242-0.929-0.411c-0.198,0.496-0.373,0.935-0.619,1.552c0.651,0.131,1.077,0.217,1.682,0.338
	C133.912,111.42,133.875,111.006,133.831,110.521z M111.904,122.055c-0.094-0.094-0.188-0.188-0.283-0.281
	c-0.41,0.143-0.858,0.228-1.21,0.46c-0.125,0.083-0.129,0.649,0.01,0.772c0.278,0.247,0.692,0.342,1.186,0.56
	C111.738,122.901,111.821,122.478,111.904,122.055z M140.677,111.447c0-0.419,0-0.705,0-1.065c-0.154-0.177-0.343-0.394-0.568-0.652
	c-0.361,0.187-0.625,0.323-0.875,0.452c0,0.373,0,0.66,0,1.087C139.675,111.323,140.119,111.377,140.677,111.447z M153.287,98.437
	c-0.297,1.233-0.106,1.55,0.919,1.586c0.363-0.649,0.555-1.275-0.261-1.827C153.718,98.28,153.482,98.366,153.287,98.437z
	 M113.244,118.108c-0.842,0.917-0.834,1.312,0.015,1.898c0.208-0.085,0.443-0.181,0.717-0.292c0-0.384,0-0.728,0-1.135
	C113.767,118.445,113.528,118.291,113.244,118.108z M127.704,114.763c-0.602-0.192-0.907-0.994-1.666-0.514
	c-0.216,1.004-0.022,1.308,0.956,1.488C127.196,115.461,127.411,115.166,127.704,114.763z M113.13,128.133
	c-0.699-0.04-1.175-0.067-1.811-0.104c0.115,0.549,0.198,0.948,0.273,1.305c0.385,0.096,0.655,0.164,1.05,0.262
	C112.782,129.176,112.911,128.791,113.13,128.133z M157.512,93.86c-0.953,0.678-0.954,0.781-0.098,1.762
	c0.819,0.14,0.839-0.467,0.982-1.106C158.096,94.292,157.788,94.064,157.512,93.86z M115.721,124.841
	c-0.221-0.19-0.412-0.354-0.6-0.517c-0.369,0.106-0.692,0.199-0.994,0.285c-0.286,0.532-0.223,0.958,0.316,1.171
	C115.219,126.089,115.441,125.487,115.721,124.841z M146.65,94.35c-0.1,0.624-0.173,1.079-0.262,1.634
	c0.44,0.086,0.756,0.148,1.229,0.241c0.081-0.561,0.146-1.016,0.221-1.534C147.44,94.578,147.153,94.495,146.65,94.35z
	 M140.576,100.119c-0.459,0.275-0.918,0.416-1.127,0.725c-0.137,0.203,0.085,0.65,0.195,1.257c0.618-0.416,1.018-0.686,1.449-0.975
	C140.913,100.775,140.797,100.55,140.576,100.119z M149.321,91.698c0.127-0.023,0.254-0.045,0.381-0.068
	c0.148-0.469,0.296-0.938,0.459-1.457c-0.563-0.161-0.886-0.253-1.283-0.367c-0.136,0.345-0.249,0.628-0.362,0.916
	C148.814,91.084,149.067,91.391,149.321,91.698z M138.88,87.691c-0.312,0.311-0.473,0.471-0.575,0.573
	c0.09,0.486,0.154,0.828,0.223,1.19c0.71,0.381,1.015-0.065,1.377-0.684C139.605,88.455,139.304,88.138,138.88,87.691z
	 M122.776,105.796c-0.189,1.156-0.018,1.395,1.065,1.483c0.089-0.422,0.182-0.865,0.313-1.483
	C123.575,105.796,123.187,105.796,122.776,105.796z M149.57,105.357c0.199-0.31,0.374-0.583,0.644-1.005
	c-0.505-0.31-0.921-0.564-1.539-0.943c0,0.784,0,1.239,0,1.684C148.999,105.188,149.217,105.252,149.57,105.357z M140.975,91.398
	c-0.418,0.141-0.736,0.248-1.083,0.366c-0.07,0.256-0.137,0.496-0.208,0.757c0.403,0.157,0.745,0.29,1.175,0.458
	c0.216-0.285,0.429-0.567,0.669-0.884C141.316,91.829,141.161,91.633,140.975,91.398z M125.017,131.871
	c-0.276,0.333-0.551,0.666-0.903,1.09c0.415,0.37,0.704,0.628,0.99,0.882C125.886,133.019,125.87,132.591,125.017,131.871z
	 M151.803,105.267c-0.419,0.894-0.265,1.253,0.675,1.518c0.202-0.212,0.432-0.453,0.684-0.719c-0.151-0.308-0.274-0.561-0.392-0.799
	C152.402,105.267,152.09,105.267,151.803,105.267z M132.218,114.411c0.331,0.378,0.568,0.647,0.93,1.06
	c0.279-0.413,0.653-0.721,0.621-0.981c-0.042-0.359-0.39-0.683-0.704-1.174C132.707,113.779,132.49,114.058,132.218,114.411z
	 M108.073,131.707c-0.327,0.343-0.523,0.55-0.73,0.768c0.153,0.798,0.547,1.048,1.293,0.652c0.092-0.308,0.182-0.605,0.303-1.011
	C108.639,131.974,108.358,131.841,108.073,131.707z M155.363,103.344c-0.896,0.366-0.935,0.875-0.683,1.384
	c0.286,0.575,0.745,0.559,1.349,0.022C155.832,104.331,155.614,103.873,155.363,103.344z M153.873,96.036
	c0.98-0.529,1.044-1.144,0.247-1.778c-0.317,0.186-0.654,0.384-1.07,0.628C153.356,95.313,153.601,95.656,153.873,96.036z
	 M130.484,121.646c-0.492,0.1-0.967,0.065-1.194,0.287c-0.169,0.165-0.149,0.781,0.029,0.977c0.2,0.22,0.671,0.194,1.094,0.291
	C130.44,122.612,130.454,122.296,130.484,121.646z M121.891,114.958c-0.696,0.099-1.066,0.415-0.864,1.186
	c0.34,0.18,0.641,0.339,0.915,0.485C122.705,116.087,122.625,115.569,121.891,114.958z M155.354,88.706
	c0.064-0.991-0.419-1.362-1.459-1.532c0.065,0.582,0.119,1.063,0.171,1.532C154.587,88.706,154.93,88.706,155.354,88.706z
	 M135.663,108.938c0.407,0.155,0.666,0.253,1.107,0.422c0.067-0.492,0.259-0.925,0.128-1.211c-0.127-0.279-0.584-0.408-1.16-0.767
	C135.704,108.083,135.685,108.473,135.663,108.938z M144.704,110.371c0.081,0.336,0.14,0.587,0.205,0.856
	c0.286,0.106,0.55,0.205,0.997,0.371c0.133-0.448,0.244-0.819,0.353-1.187c-0.347-0.237-0.582-0.398-0.848-0.58
	C145.166,110.018,144.962,110.174,144.704,110.371z M157.501,98.124c-0.327-0.528-0.542-0.875-0.742-1.198
	c-1.077,0.385-1.154,0.61-0.536,1.609C156.578,98.42,156.969,98.294,157.501,98.124z M104.763,118.725
	c-0.22,0.448-0.365,0.742-0.528,1.074c0.265,0.245,0.469,0.433,0.923,0.851c0.375-0.328,0.698-0.608,1.021-0.889
	c-0.088-0.16-0.177-0.319-0.266-0.478C105.579,119.12,105.243,118.957,104.763,118.725z M133.956,126.813
	c0.09-0.675,0.147-1.099,0.207-1.544c-0.585,0-0.896,0-1.23,0c-0.092,0.313-0.172,0.587-0.284,0.97
	C132.99,126.389,133.332,126.539,133.956,126.813z M132.901,95.769c0.058,0.116,0.117,0.231,0.175,0.346
	c0.483-0.049,0.967-0.098,1.593-0.162c-0.231-0.527-0.343-0.781-0.471-1.071c-0.282-0.029-0.53-0.055-0.876-0.091
	C133.177,95.129,133.039,95.449,132.901,95.769z M141.338,103.236c-0.062,0.406-0.101,0.659-0.169,1.115
	c0.458,0.119,0.894,0.232,1.452,0.377c0-0.561,0-0.869,0-1.299C142.216,103.369,141.833,103.311,141.338,103.236z M124.745,120.235
	c0.077,0.301,0.139,0.544,0.24,0.939c0.447-0.118,0.829-0.219,1.387-0.366c-0.214-0.514-0.372-0.891-0.582-1.394
	C125.334,119.772,125.047,119.998,124.745,120.235z M136.934,127.041c0.195,0.458,0.343,0.807,0.573,1.347
	c0.46-0.383,0.799-0.666,1.236-1.03c-0.308-0.346-0.496-0.557-0.654-0.734C137.646,126.783,137.38,126.879,136.934,127.041z
	 M121.414,134.983c0-0.407,0-0.721,0-1.096c-0.264-0.133-0.534-0.269-0.827-0.417c-0.219,0.319-0.391,0.57-0.573,0.835
	c0.221,0.302,0.402,0.55,0.589,0.806C120.882,135.068,121.104,135.033,121.414,134.983z M146.51,107.791
	c0.692-0.869,0.605-1.26-0.411-1.526c-0.199,0.361-0.416,0.753-0.683,1.237C145.938,107.64,146.21,107.712,146.51,107.791z
	 M135.553,129.305c-0.45-0.161-0.863-0.309-1.276-0.457c-0.09,0.079-0.179,0.157-0.269,0.235c0.159,0.46,0.317,0.92,0.477,1.383
	c0.407-0.107,0.649-0.17,0.878-0.231C135.415,129.979,135.46,129.757,135.553,129.305z M136.016,94.272
	c0.566,0.061,0.864,0.092,1.27,0.135c0.104-0.399,0.2-0.768,0.299-1.149c-0.336-0.175-0.562-0.292-0.958-0.499
	C136.424,93.261,136.248,93.7,136.016,94.272z M131.277,127.354c-0.141-0.477-0.262-0.886-0.429-1.454
	c-0.499,0.254-0.81,0.414-1.163,0.594c0.33,0.498,0.55,0.832,0.795,1.202C130.707,127.598,130.911,127.511,131.277,127.354z
	 M141.555,126.324c0-0.417,0-0.757,0-1.278c-0.441,0.094-0.793,0.169-1.306,0.278c0.118,0.511,0.209,0.904,0.315,1.362
	C141.013,126.523,141.275,126.427,141.555,126.324z M139.34,106.765c0.437-0.409,0.639-0.597,0.84-0.786
	c-0.052-0.075-0.105-0.149-0.158-0.224c-0.113-0.263-0.226-0.526-0.368-0.855c-0.336,0-0.654,0-1.247,0
	C138.726,105.538,138.951,105.989,139.34,106.765z M123.083,109.47c-0.273,0.917,0.202,1.518,1.175,1.463c0-0.385,0-0.775,0-1.162
	C123.799,109.654,123.471,109.57,123.083,109.47z M149.031,88.563c0.418-1.253,0.35-1.417-0.764-1.605
	c-0.08,0.442-0.161,0.887-0.256,1.41C148.472,88.457,148.734,88.507,149.031,88.563z M133.55,106.519
	c0.394,0.312,0.629,0.497,0.88,0.696c0.316-0.25,0.563-0.444,0.864-0.682c-0.073-0.316-0.145-0.627-0.265-1.145
	C134.467,105.818,134.06,106.129,133.55,106.519z M104.766,126.069c0.199-0.521,0.339-0.89,0.506-1.327
	c-0.417-0.186-0.712-0.317-1.094-0.487c-0.169,0.429-0.3,0.76-0.437,1.105C104.061,125.583,104.312,125.755,104.766,126.069z
	 M116.466,128.706c-0.181,0.286-0.346,0.547-0.537,0.849c0.213,0.256,0.393,0.471,0.595,0.713c0.273-0.082,0.513-0.153,0.806-0.24
	c0-0.412,0-0.765,0-1.155C116.998,128.809,116.747,128.76,116.466,128.706z M107.431,117.25c0.253,0.653,0.428,1.105,0.629,1.628
	c0.345-0.166,0.57-0.274,0.782-0.376c0-0.374,0-0.684,0-1.13C108.405,117.333,108.011,117.299,107.431,117.25z M151.784,109.803
	c-0.166,0.461-0.451,0.856-0.351,1.065c0.159,0.329,0.577,0.532,1.071,0.944c0.135-0.593,0.211-0.927,0.287-1.262
	C152.466,110.31,152.221,110.127,151.784,109.803z M128.631,130.802c0.59,0,1.007,0,1.6,0c-0.25-0.471-0.43-0.811-0.603-1.138
	c-0.347,0-0.603,0-1.052,0C128.595,130.075,128.613,130.448,128.631,130.802z M128.505,111.951c0.154-0.495,0.406-0.885,0.332-1.196
	c-0.063-0.267-0.5-0.445-0.853-0.728c-0.259,0.482-0.403,0.751-0.549,1.023C127.767,111.328,128.027,111.547,128.505,111.951z
	 M151.353,93.086c-0.125-0.045-0.251-0.09-0.376-0.136c-0.217,0.341-0.58,0.672-0.604,1.026c-0.018,0.264,0.4,0.558,0.625,0.839
	c0.119-0.054,0.237-0.108,0.355-0.163C151.353,94.13,151.353,93.608,151.353,93.086z M155.668,91.995
	c-0.277-0.311-0.493-0.552-0.764-0.855c-0.356,0.293-0.633,0.521-0.966,0.794c0.255,0.361,0.455,0.645,0.719,1.017
	C155.043,92.587,155.324,92.321,155.668,91.995z M111.049,114.758c-0.114-0.5-0.204-0.901-0.313-1.381
	c-0.37,0.066-0.632,0.112-1.062,0.189c0.202,0.586,0.366,1.063,0.552,1.607C110.574,114.998,110.77,114.899,111.049,114.758z
	 M128.207,98.83c-0.297,0.403-0.643,0.661-0.657,0.938c-0.031,0.584,0.358,0.867,1.001,0.811c0.103-0.264,0.204-0.523,0.311-0.798
	C128.704,99.55,128.559,99.339,128.207,98.83z M106.926,129.871c0.162-0.4,0.266-0.658,0.446-1.103
	c-0.457-0.155-0.852-0.291-1.344-0.458c-0.082,0.485-0.128,0.756-0.195,1.153C106.202,129.602,106.541,129.728,106.926,129.871z
	 M149.546,113.684c0.037-0.144,0.072-0.289,0.109-0.434c-0.374-0.223-0.73-0.55-1.13-0.617c-0.159-0.027-0.415,0.521-0.626,0.808
	c0.061,0.121,0.121,0.242,0.182,0.363C148.569,113.764,149.058,113.724,149.546,113.684z M147.008,101.458
	c0.055-0.333,0.098-0.585,0.144-0.857c-0.234-0.215-0.443-0.408-0.671-0.619c-0.745,0.374-0.883,0.834-0.378,1.476
	C146.384,101.458,146.643,101.458,147.008,101.458z M106.126,122.446c0.276,0.098,0.552,0.196,0.867,0.309
	c0.122-0.424,0.214-0.746,0.358-1.245c-0.416-0.104-0.777-0.194-1.225-0.307C106.126,121.727,106.126,122.012,106.126,122.446z
	 M137.87,124.822c0.262-0.555,0.574-0.918,0.545-1.252c-0.023-0.268-0.46-0.5-0.842-0.873c-0.187,0.568-0.292,0.888-0.403,1.226
	C137.349,124.152,137.505,124.353,137.87,124.822z M150.693,96.41c0,0.486,0,0.827,0,1.188c0.292,0.133,0.549,0.249,1.089,0.495
	c-0.067-0.667-0.112-1.119-0.163-1.628C151.241,96.442,150.998,96.428,150.693,96.41z M136.026,113.588
	c0.613,0.165,0.958,0.257,1.303,0.349c0.091-0.071,0.183-0.143,0.274-0.214c-0.183-0.439-0.366-0.878-0.548-1.317
	c-0.134,0.005-0.268,0.01-0.401,0.015C136.462,112.776,136.271,113.132,136.026,113.588z M103.542,123.288
	c-0.261-0.76-0.537-1.222-1.568-0.941c0.165,0.467,0.311,0.883,0.484,1.373C102.91,123.54,103.166,123.438,103.542,123.288z
	 M118.239,122.282c0.093-0.063,0.185-0.127,0.278-0.19c-0.075-0.321-0.06-0.721-0.251-0.94c-0.183-0.21-0.582-0.233-1.014-0.383
	c0,0.526,0,0.804,0,1.171C117.583,122.055,117.912,122.168,118.239,122.282z M134.055,99.524c-0.405,0.405-0.699,0.698-1.104,1.103
	c0.489,0.259,0.732,0.388,1.009,0.534c0.219-0.205,0.401-0.374,0.6-0.56C134.419,100.302,134.301,100.05,134.055,99.524z
	 M142.796,108.364c-0.199-0.452-0.354-0.802-0.537-1.215c-0.355,0.189-0.57,0.304-0.856,0.457c0.102,0.407,0.193,0.772,0.31,1.242
	C142.094,108.677,142.345,108.565,142.796,108.364z M120.865,119.632c0.045-0.123,0.091-0.245,0.136-0.368
	c-0.311-0.336-0.621-0.672-1.115-1.207c-0.213,0.538-0.341,0.86-0.572,1.441C119.974,119.556,120.419,119.594,120.865,119.632z
	 M123.583,123.843c0.339-0.057,0.633-0.106,1.154-0.194c-0.249-0.528-0.429-0.912-0.751-1.595c-0.42,0.438-0.647,0.674-0.881,0.917
	C123.321,123.366,123.439,123.581,123.583,123.843z M114.606,112.79c-0.084-0.475-0.063-0.918-0.258-1.227
	c-0.101-0.16-0.582-0.08-0.929-0.112C113.33,112.377,113.618,112.77,114.606,112.79z M113.726,116.477
	c0.042-0.417,0.084-0.82,0.14-1.363c-0.5,0.063-0.842,0.106-1.223,0.155C112.695,115.994,112.766,116.544,113.726,116.477z
	 M142.865,119.569c0.351-0.512,0.56-0.819,0.862-1.26c-0.496-0.214-0.833-0.36-1.226-0.531c-0.167,0.353-0.271,0.576-0.437,0.924
	C142.291,118.947,142.5,119.174,142.865,119.569z M119.022,108.207c-0.054,0.151-0.108,0.303-0.162,0.455
	c0.254,0.251,0.509,0.502,0.764,0.754c0.142-0.041,0.284-0.081,0.425-0.122c0.123-0.41,0.246-0.82,0.368-1.23
	c-0.091-0.077-0.183-0.153-0.275-0.229C119.771,107.958,119.396,108.083,119.022,108.207z M114.619,134.682
	c0.87-0.688,0.868-1.013-0.056-1.555c-0.221,0.236-0.459,0.491-0.753,0.807C114.136,134.236,114.381,134.463,114.619,134.682z
	 M128.801,132.301c-0.202,0.556-0.318,0.873-0.442,1.216c0.167,0.18,0.32,0.346,0.527,0.567c0.314-0.193,0.605-0.373,0.991-0.61
	C129.489,133.052,129.207,132.744,128.801,132.301z M111.792,131.736c-0.112,0.031-0.223,0.063-0.334,0.095
	c0.077,0.394,0.081,0.828,0.261,1.167c0.089,0.169,0.503,0.165,0.876,0.27c0-0.507,0-0.817,0-1.142
	C112.302,131.983,112.046,131.86,111.792,131.736z M146.148,104.558c0.128-0.743-0.004-1.206-0.855-1.25
	c0.046,0.546-0.64,1.098,0.208,1.55C145.699,104.767,145.903,104.672,146.148,104.558z M130.063,103.214
	c0.117,0.024,0.233,0.048,0.35,0.073c0.194-0.274,0.486-0.529,0.55-0.832c0.046-0.219-0.208-0.501-0.34-0.779
	c-0.379,0.221-0.623,0.362-0.962,0.561C129.804,102.583,129.934,102.898,130.063,103.214z M123.875,128.424
	c-0.045,0.328-0.081,0.596-0.129,0.946c0.494,0,0.896,0,1.354,0c0-0.391,0-0.682,0-1.017
	C124.696,128.377,124.361,128.396,123.875,128.424z M143.765,92.702c0.292,0.342,0.491,0.575,0.637,0.747
	c1.069-0.554,1.102-0.827,0.308-1.582C144.454,92.093,144.189,92.327,143.765,92.702z M117.839,115.215
	c-0.449-0.224-0.701-0.35-1.096-0.547c-0.114,0.438-0.207,0.797-0.312,1.2c0.345,0.13,0.579,0.218,0.934,0.352
	C117.521,115.888,117.666,115.583,117.839,115.215z M149.878,84.907c-0.198-0.419-0.351-0.745-0.493-1.046
	c-1.046,0.295-1.133,0.498-0.681,1.295C149.007,85.091,149.312,85.026,149.878,84.907z M142.823,112.606
	c-0.32-0.096-0.572-0.172-1.068-0.32c0.113,0.654,0.192,1.113,0.283,1.64c0.349-0.089,0.56-0.144,0.785-0.201
	C142.823,113.353,142.823,113.039,142.823,112.606z M146.006,84.489c0.08,0.438,0.134,0.737,0.191,1.053c0.275,0,0.493,0,0.869,0
	c0.032-0.46,0.062-0.882,0.105-1.498C146.636,84.248,146.36,84.353,146.006,84.489z M144.936,123.728
	c-0.259-0.493-0.449-0.852-0.69-1.308c-0.381,0.328-0.615,0.53-0.868,0.749c0.102,0.23,0.182,0.406,0.25,0.559
	C144.02,123.728,144.363,123.728,144.936,123.728z M146.822,91.093c-0.213,0.523-0.358,0.876-0.527,1.292
	c0.344,0.16,0.568,0.264,0.804,0.373c0.199-0.271,0.365-0.497,0.561-0.762C147.413,91.731,147.205,91.506,146.822,91.093z
	 M142.821,88.677c-0.444,0.21-0.695,0.33-0.996,0.472c0.032,0.325,0.06,0.6,0.094,0.941c0.35,0,0.617,0,0.967,0
	C142.866,89.647,142.847,89.255,142.821,88.677z M144.499,90.563c0.183,0.051,0.316,0.111,0.453,0.119
	c0.134,0.007,0.271-0.04,0.382-0.059c0.283-1.013,0.083-1.301-0.834-1.257C144.499,89.759,144.499,90.148,144.499,90.563z
	 M147.598,120.891c0.048-0.092,0.096-0.184,0.144-0.276c-0.205-0.339-0.41-0.679-0.777-1.285c-0.32,0.543-0.51,0.864-0.838,1.42
	C146.808,120.815,147.203,120.854,147.598,120.891z M143.602,94.856c-0.439-0.168-0.769-0.294-1.091-0.418
	c-0.424,0.797-0.163,1.278,0.71,1.32C143.32,95.523,143.428,95.268,143.602,94.856z M127.627,107.75
	c-0.8,0.531-0.445,0.993-0.075,1.614c0.302-0.195,0.573-0.371,0.97-0.629C128.15,108.326,127.898,108.048,127.627,107.75z
	 M119.6,130.694c0.385-0.098,0.767-0.088,0.955-0.275c0.161-0.16,0.099-0.543,0.147-0.917c-0.454,0-0.748,0-1.102,0
	C119.6,129.885,119.6,130.187,119.6,130.694z M139.724,115.288c0.107,0.917,0.454,1.091,1.28,0.643
	C140.834,114.984,140.557,114.844,139.724,115.288z M131.862,99.028c0.191-0.177,0.374-0.346,0.668-0.619
	c-0.329-0.306-0.608-0.566-0.938-0.874C131.02,98.264,131.158,98.682,131.862,99.028z M143.027,85.912
	c0.113,0.089,0.226,0.178,0.339,0.267c0.251-0.185,0.696-0.358,0.707-0.556c0.017-0.306-0.263-0.627-0.417-0.943
	c-0.12,0.018-0.24,0.035-0.36,0.052C143.207,85.125,143.117,85.519,143.027,85.912z M117.666,132.513
	c-0.067-0.142-0.135-0.283-0.203-0.425c-0.383,0.07-0.767,0.14-1.323,0.242c0.309,0.491,0.47,0.748,0.742,1.182
	C117.206,133.099,117.436,132.806,117.666,132.513z M121.42,112.515c0.396,0.871,0.726,0.99,1.375,0.532
	C122.473,112.216,122.083,112.046,121.42,112.515z M149.657,107.543c-0.208,0.381-0.339,0.625-0.474,0.872
	c0.514,0.777,0.889,0.519,1.351-0.125C150.25,108.048,149.993,107.828,149.657,107.543z M151.48,86.917
	c0.118,0.06,0.237,0.121,0.356,0.182c0.184-0.285,0.506-0.57,0.507-0.856c0-0.239-0.375-0.48-0.584-0.721
	c-0.093,0.048-0.187,0.096-0.279,0.144C151.48,86.083,151.48,86.5,151.48,86.917z M132.65,132.137
	c-0.048-0.483-0.073-0.74-0.103-1.041c-0.29-0.105-0.569-0.206-0.95-0.343c0,0.445,0,0.728,0,1.117
	C131.882,131.942,132.189,132.021,132.65,132.137z M108.696,124.983c-0.425,0.122-0.778,0.223-1.131,0.324
	c-0.019,0.131-0.037,0.263-0.055,0.395c0.398,0.153,0.797,0.307,1.341,0.516C108.784,125.686,108.75,125.41,108.696,124.983z
	 M129.144,118.572c0.379,0,0.678,0,1.054,0c0-0.294,0-0.529,0-0.853c-0.375-0.024-0.699-0.044-1.104-0.07
	C129.114,118.012,129.127,118.258,129.144,118.572z M156.249,100.46c0.056,0.33,0.098,0.569,0.155,0.902
	c0.401-0.066,0.747-0.123,1.127-0.186C157.415,100.319,157,100.212,156.249,100.46z M145.07,87.271
	c-0.147,0.077-0.294,0.153-0.44,0.229c0.111,0.36,0.222,0.72,0.344,1.117c0.42-0.154,0.629-0.23,1.122-0.41
	C145.663,87.812,145.367,87.542,145.07,87.271z M152.666,102.625c0.08,0.07,0.159,0.14,0.238,0.21
	c0.33-0.243,0.659-0.486,0.989-0.729c-0.05-0.111-0.101-0.224-0.151-0.335c-0.335-0.028-0.67-0.057-1.076-0.09
	C152.666,102.087,152.666,102.356,152.666,102.625z M134.29,121.767c-0.592-0.323-0.883-0.481-1.173-0.64
	c-0.093,0.039-0.185,0.077-0.277,0.115c0.06,0.374,0.119,0.747,0.218,1.373C133.536,122.285,133.811,122.095,134.29,121.767z
	 M140.777,121.196c0.451,0.285,0.803,0.507,1.31,0.827c0-0.531,0-0.78,0-1.066c-0.27-0.127-0.52-0.245-0.786-0.371
	C141.155,120.757,141.047,120.883,140.777,121.196z M137.382,91.925c-0.089-0.401-0.086-0.75-0.249-0.984
	c-0.11-0.16-0.452-0.161-0.797-0.266C136.346,91.389,136.255,91.956,137.382,91.925z M121.179,124.098
	c-0.223,0.211-0.414,0.391-0.629,0.594c0.268,0.283,0.46,0.486,0.637,0.673C122.007,125.016,122.013,124.828,121.179,124.098z
	 M124.359,102.332c0,0.452,0,0.727,0,0.981c0.823,0.349,0.99,0.236,0.966-0.671C125.063,102.558,124.778,102.466,124.359,102.332z
	 M103.833,128.46c-0.022-0.118-0.044-0.236-0.066-0.354c-0.374-0.068-0.747-0.135-1.12-0.203c-0.034,0.089-0.068,0.178-0.103,0.268
	c0.175,0.244,0.351,0.488,0.597,0.829C103.409,128.791,103.622,128.625,103.833,128.46z M153.529,107.873
	c-0.094,0.081-0.188,0.161-0.283,0.242c0.143,0.343,0.286,0.687,0.43,1.03c0.097-0.01,0.193-0.021,0.29-0.03
	c0.14-0.285,0.279-0.569,0.476-0.968C154.062,108.033,153.796,107.953,153.529,107.873z M145.595,97.793
	c0.023-0.385,0.039-0.645,0.055-0.902c-0.81-0.325-1.053-0.065-0.958,0.732C144.958,97.673,145.217,97.722,145.595,97.793z
	 M129.963,115.435c-0.287-0.475-0.443-0.734-0.617-1.021c-0.258,0.111-0.462,0.2-0.702,0.304c0.075,0.265,0.135,0.479,0.202,0.718
	C129.169,115.435,129.444,115.435,129.963,115.435z M132.541,118.11c0.128-0.048,0.257-0.096,0.385-0.144
	c-0.065-0.285-0.053-0.635-0.221-0.833c-0.131-0.154-0.486-0.118-0.742-0.166c-0.048,0.098-0.097,0.196-0.146,0.294
	C132.058,117.544,132.3,117.827,132.541,118.11z M147.188,98.039c0.611,0.233,0.866,0.33,1.329,0.506
	c-0.115-0.501-0.185-0.805-0.31-1.353C147.827,97.508,147.595,97.702,147.188,98.039z M151.381,114.045
	c0.05-0.088,0.101-0.176,0.151-0.265c-0.23-0.255-0.461-0.509-0.727-0.802c-0.192,0.316-0.337,0.556-0.562,0.927
	C150.695,113.961,151.038,114.003,151.381,114.045z M142.158,87.633c-0.276-0.449-0.452-0.737-0.629-1.025
	c-0.105,0.037-0.21,0.073-0.315,0.11c-0.045,0.288-0.089,0.575-0.142,0.916C141.4,87.633,141.641,87.633,142.158,87.633z"/>
<path fill-rule="evenodd" clip-rule="evenodd" fill="#ffc524" class="fill" d="M117.938,143.002c0.738,0.071,1.398,0.188,2.057,0.187
	c1.537-0.003,3.074-0.044,4.609-0.111c0.547-0.023,1.097-0.13,1.632-0.257c1.497-0.356,2.989-0.734,4.479-1.12
	c1.294-0.335,2.609-0.618,3.865-1.064c1.188-0.422,2.349-0.958,3.456-1.564c1.643-0.9,3.274-1.837,4.827-2.883
	c2.401-1.618,5.014-2.973,6.823-5.366c0.451-0.597,1.1-1.045,1.667-1.551c1.958-1.74,3.148-4.016,4.388-6.258
	c0.465-0.842,1.024-1.637,1.43-2.505c1.108-2.373,2.186-4.761,3.219-7.167c0.769-1.792,1.542-3.591,2.148-5.44
	c0.983-3.001,1.071-6.051,0.249-9.138c-0.668-2.511-1.132-5.076-1.822-7.579c-0.264-0.958-0.89-1.819-1.379-2.709
	c-0.225-0.409-0.517-0.78-0.826-1.239c2.339-1.165,4.657-2.246,7.229-1.256c2.014,0.775,3.631,2.198,5.006,3.874
	c1.887,2.298,3.067,4.965,3.833,7.789c0.373,1.373,0.395,2.862,0.424,4.301c0.032,1.576-0.016,3.168-0.201,4.732
	c-0.248,2.089-0.548,4.186-1.031,6.23c-0.685,2.895-1.426,5.791-2.392,8.601c-0.701,2.036-1.677,4.008-2.766,5.873
	c-1.172,2.006-2.508,3.942-3.97,5.747c-1.935,2.387-3.985,4.691-6.127,6.894c-2.249,2.312-4.854,4.227-7.634,5.86
	c-2.161,1.27-4.336,2.563-6.639,3.529c-3.04,1.277-6.201,2.199-9.585,2.205c-4.177,0.008-8.211-0.584-12.04-2.294
	C120.229,148.144,118.4,146.38,117.938,143.002z M126.922,146.086c-0.402,0.125-0.804,0.251-1.182,0.37
	c0.244,1.913,0.953,2.279,2.399,1.315c0.035-0.191,0.077-0.415,0.134-0.721c-0.455-0.327-0.919-0.659-1.381-0.992
	c0.446-0.083,0.892-0.167,1.449-0.272c-0.571-0.854-1.098-1.036-1.835-0.557C126.659,145.544,126.791,145.815,126.922,146.086z
	 M132.178,143.996c-0.645-0.276-1.298-0.495-1.692,0.153c-0.176,0.288-0.09,0.951,0.14,1.226c0.502,0.6,1.082,0.335,1.553-0.167
	C132.178,144.803,132.178,144.403,132.178,143.996z M131.955,147.472c-0.173,0.542-0.332,1.043-0.485,1.523
	c0.474,0.27,0.773,0.44,1.061,0.604c0.275-0.105,0.517-0.198,0.735-0.282C133.572,148.315,133.276,147.835,131.955,147.472z
	 M154.148,141.445c0.737-0.606,0.912-1.336,0.399-1.784c-0.495-0.434-0.993-0.48-1.379,0.18
	C153.14,140.605,153.11,141.357,154.148,141.445z M122.693,147.003c0.343-0.455,0.684-0.907,1.025-1.36
	c-0.048-0.122-0.096-0.245-0.144-0.367c-0.441-0.058-0.982-0.299-1.298-0.126c-0.357,0.195-0.512,0.761-0.764,1.18
	C121.958,146.584,122.182,146.711,122.693,147.003z M162.078,116.462c0.026,0.089,0.054,0.179,0.081,0.268
	c0.382-0.052,0.996,0.015,1.097-0.182c0.199-0.387,0.113-0.92,0.143-1.344c-0.491-0.2-0.754-0.306-1.052-0.427
	c-0.221,0.192-0.432,0.375-0.644,0.558C161.843,115.756,161.961,116.109,162.078,116.462z M138.145,149.047
	c-0.249-0.861-0.635-1.269-1.398-1.185c-0.682,0.075-0.837,0.513-0.684,1.338C136.695,149.153,137.321,149.107,138.145,149.047z
	 M139.876,141.321c-0.231-0.247-0.472-0.505-0.719-0.771c-0.764,0.281-1.215,0.636-0.996,1.431
	C139.013,142.581,139.371,142.468,139.876,141.321z M165.373,88.095c-0.148,0.334-0.312,0.705-0.456,1.03
	c0.929,0.775,1.091,0.797,1.789,0.329C166.803,88.602,166.312,88.255,165.373,88.095z M134.876,143.819
	c0.521,0.188,1.013,0.367,1.503,0.544c0.074-0.103,0.147-0.205,0.221-0.308c-0.192-0.494-0.385-0.989-0.57-1.465
	c-0.375,0-0.656,0-1.023,0C134.969,142.947,134.937,143.255,134.876,143.819z M164.9,117.26c0.295,0.499,0.416,0.92,0.695,1.11
	c0.261,0.179,0.689,0.115,1.254,0.183c-0.179-0.708-0.293-1.161-0.443-1.753C165.872,116.962,165.494,117.078,164.9,117.26z
	 M169.429,115.817c-0.727,0.719-0.916,1.271-0.426,1.765c0.245,0.247,0.736,0.25,1.116,0.363c0.097-0.128,0.194-0.256,0.291-0.385
	C170.106,117.021,169.803,116.482,169.429,115.817z M141.975,142.192c-0.343,0.351-0.793,0.616-0.773,0.836
	c0.034,0.368,0.294,0.837,0.603,1.017c0.245,0.143,0.706-0.082,1.198-0.165C142.625,143.26,142.387,142.869,141.975,142.192z
	 M143.405,147.246c-0.245-0.547-0.31-1.04-0.568-1.184c-0.342-0.192-0.837-0.111-1.426-0.162c0.114,0.593,0.186,0.968,0.258,1.346
	C142.241,147.246,142.696,147.246,143.405,147.246z M161.104,119.741c0.488,0,0.956,0.14,1.171-0.033
	c0.312-0.252,0.443-0.729,0.651-1.111c-0.085-0.094-0.169-0.188-0.254-0.282c-0.442,0.076-0.885,0.152-1.311,0.225
	C161.279,118.922,161.226,119.17,161.104,119.741z M146.3,142.075c0.348,0.313,0.653,0.588,1.036,0.933
	c0.381-0.313,0.662-0.544,0.941-0.774c-0.021-0.122-0.041-0.243-0.062-0.365c-0.473-0.222-0.945-0.443-1.481-0.694
	C146.547,141.562,146.441,141.783,146.3,142.075z M167.613,111.227c0.483-0.402,0.793-0.66,1.072-0.893
	c-0.259-0.818-0.613-1.261-1.638-0.797C167.214,110.037,167.38,110.533,167.613,111.227z M157.315,137.234c0-0.373,0-0.661,0-1.013
	c-0.201-0.14-0.426-0.295-0.705-0.489c-0.332,0.313-0.602,0.569-0.928,0.877c0.306,0.393,0.544,0.699,0.807,1.037
	C156.798,137.491,157.025,137.379,157.315,137.234z M160.764,133.013c-0.635-0.292-1.053-0.484-1.585-0.728
	c-0.187,0.415-0.327,0.728-0.481,1.072c0.341,0.273,0.602,0.481,1.006,0.804C160.031,133.807,160.315,133.5,160.764,133.013z
	 M170.803,96.257c0.054-0.56,0.099-1.025,0.146-1.508c-0.402-0.115-0.664-0.189-0.958-0.273c-0.155,0.328-0.287,0.608-0.414,0.877
	c0.143,0.317,0.272,0.604,0.408,0.904C170.225,96.257,170.443,96.257,170.803,96.257z M143.165,139.865c0.657,0,1.042,0,1.394,0
	c0.42-1.138,0.218-1.5-0.849-1.478C143.562,138.787,143.403,139.218,143.165,139.865z M169.438,92.706
	c0.565-0.092,0.947-0.154,1.323-0.216c-0.125-1.037-0.729-1.476-1.553-1.133C169.274,91.745,169.344,92.155,169.438,92.706z
	 M147.065,137.087c-0.152,0.599-0.277,1.095-0.465,1.837c0.682-0.195,1.101-0.315,1.519-0.435c0.026-0.361,0.044-0.616,0.067-0.925
	C147.876,137.433,147.593,137.312,147.065,137.087z M165.239,111.883c0.146-1.418,0.034-1.6-1.188-1.767
	c0.111,0.624,0.212,1.191,0.315,1.767C164.748,111.883,164.973,111.883,165.239,111.883z M171.724,101.987
	c-0.579,0.95-0.185,1.763,1.03,1.888c-0.094-0.565-0.18-1.083-0.268-1.61C172.21,102.164,171.997,102.086,171.724,101.987z
	 M164.847,92.173c-0.602-0.14-1.064-0.248-1.527-0.355c-0.064,0.105-0.129,0.209-0.193,0.314c0.169,0.399,0.338,0.798,0.517,1.219
	c0.342-0.021,0.591-0.038,0.889-0.058C164.625,92.966,164.707,92.673,164.847,92.173z M167.81,106.872
	c-0.371-0.437-0.689-0.812-1.11-1.311c-0.316,0.492-0.492,0.766-0.68,1.06c0.293,0.333,0.532,0.603,0.774,0.876
	C167.094,107.312,167.311,107.179,167.81,106.872z M166.735,124.71c-0.591,0.658-0.518,1.205,0.159,1.744
	c0.869-0.279,0.811-0.901,0.674-1.574c-0.141-0.069-0.237-0.145-0.344-0.164C167.086,124.691,166.938,124.71,166.735,124.71z
	 M162.217,130.166c0.057,0.582,0.105,1.07,0.157,1.606c0.518-0.062,0.792-0.096,1.233-0.149c-0.11-0.52-0.199-0.939-0.294-1.39
	C162.958,130.211,162.709,130.196,162.217,130.166z M165.119,121.905c0.084-0.081,0.169-0.161,0.254-0.242
	c-0.139-0.47-0.279-0.939-0.444-1.498c-0.424,0.135-0.707,0.226-1.007,0.321c0.019,0.34,0.034,0.594,0.052,0.929
	C164.361,121.581,164.74,121.743,165.119,121.905z M166.787,91.144c-0.465,0.405-0.769,0.669-1.105,0.963
	c0.314,0.362,0.482,0.555,0.688,0.792c0.341-0.083,0.665-0.161,1.194-0.288C167.316,92.145,167.133,91.798,166.787,91.144z
	 M161.718,123.214c-0.479,0.666-0.453,0.824,0.247,1.81c0.202-0.054,0.434-0.116,0.671-0.179c0-0.397,0-0.711,0-1.072
	C162.34,123.592,162.052,123.417,161.718,123.214z M164.913,102.458c-0.233,0.909,0.062,1.282,1.12,1.289c0-0.465,0-0.928,0-1.427
	C165.518,102.384,165.208,102.422,164.913,102.458z M150.341,134.507c0.061,0.086,0.123,0.172,0.184,0.258
	c0.432-0.069,0.864-0.139,1.486-0.238c-0.21-0.558-0.355-0.943-0.501-1.328c-0.13-0.02-0.261-0.039-0.391-0.059
	C150.859,133.596,150.601,134.052,150.341,134.507z M163.477,88.396c-0.549-0.181-0.933-0.433-1.268-0.378
	c-0.263,0.043-0.465,0.463-0.808,0.839c0.622,0.206,0.974,0.322,1.358,0.449C162.938,89.079,163.096,88.879,163.477,88.396z
	 M152.937,137.764c-0.104-0.247-0.208-0.493-0.3-0.71c-0.653-0.02-1.233,0.019-1.236,0.726c-0.001,0.263,0.396,0.528,0.629,0.814
	C152.425,138.232,152.65,138.026,152.937,137.764z M172.081,99.892c0.326-0.017,0.63-0.033,1.14-0.061
	c-0.205-0.605-0.361-1.072-0.524-1.553C171.631,98.605,171.608,99.119,172.081,99.892z M147.008,144.746
	c-0.109,0.053-0.219,0.105-0.329,0.158c-0.096,0.292-0.193,0.584-0.288,0.872c0.507,0.458,0.938,0.876,1.736,0.304
	C147.708,145.581,147.358,145.163,147.008,144.746z M164.748,97.247c0.05,0.466-0.042,0.976,0.165,1.181
	c0.243,0.24,0.749,0.216,1.361,0.356c-0.248-0.686-0.383-1.06-0.521-1.442C165.467,97.314,165.24,97.293,164.748,97.247z
	 M156.949,129.038c0.241,0.552,0.398,0.912,0.586,1.342c0.258,0.03,0.545,0.063,1.123,0.13c-0.269-0.64-0.368-1.124-0.652-1.443
	C157.861,128.903,157.383,129.038,156.949,129.038z M171.456,112.071c0.41-0.706-0.004-1.047-0.56-1.394
	c-0.261,0.246-0.501,0.471-0.764,0.72c0.142,0.257,0.261,0.474,0.371,0.674C170.854,112.071,171.141,112.071,171.456,112.071z
	 M164.862,126.806c0.008-0.129,0.016-0.258,0.024-0.388c-0.391-0.203-0.781-0.407-1.171-0.61c-0.083,0.08-0.165,0.16-0.247,0.24
	c0.05,0.399,0.1,0.798,0.184,1.472C164.194,127.201,164.527,127.003,164.862,126.806z M171.915,107.894
	c-0.106-1.062-0.573-1.326-1.626-1.212c0.218,0.438,0.305,0.857,0.562,1.057C171.077,107.914,171.495,107.845,171.915,107.894z
	 M169.171,102.353c-0.222,0.573-0.384,0.995-0.605,1.566c0.576,0,0.877,0,1.218,0c0.093-0.275,0.183-0.537,0.279-0.821
	C169.823,102.899,169.61,102.72,169.171,102.353z M149.477,141.602c0.377,0.289,0.713,0.545,1.262,0.964c0-0.724,0-1.113,0-1.531
	c-0.238-0.078-0.477-0.155-0.767-0.249C149.825,141.029,149.694,141.243,149.477,141.602z M158.719,125.467
	c-0.436,0.253-0.77,0.447-1.157,0.671c0.146,0.298,0.253,0.52,0.37,0.76c0.429-0.089,0.782-0.162,1.253-0.26
	C159.018,126.22,158.889,125.894,158.719,125.467z M169.864,115.383c0.112-0.521,0.203-0.942,0.306-1.416
	c-1.011-0.142-1.399,0.108-1.234,0.966C169.182,115.052,169.411,115.163,169.864,115.383z M167.856,121.146
	c-0.102,0.379-0.179,0.67-0.307,1.146c0.495,0.036,0.866,0.063,1.214,0.089c0-0.461,0-0.766,0-1.136
	C168.46,121.212,168.214,121.186,167.856,121.146z M155.621,130.256c-0.054-0.106-0.108-0.212-0.162-0.318
	c-0.455-0.198-0.907-0.651-1.419,0.102c0.114,0.258,0.237,0.537,0.453,1.027C154.938,130.747,155.279,130.501,155.621,130.256z
	 M166.722,95.568c-0.202,1.068,0.04,1.283,1.073,1.026c-0.032-0.328-0.064-0.662-0.1-1.026
	C167.319,95.568,167.041,95.568,166.722,95.568z M154.288,132.602c-0.043,0.431-0.074,0.728-0.108,1.068
	c0.326,0.103,0.594,0.188,0.926,0.292c0.192-0.278,0.362-0.522,0.597-0.862C155.213,132.928,154.846,132.798,154.288,132.602z
	 M167.173,113.505c-0.585,0.035-0.98,0.058-1.468,0.087c0.029,0.374,0.048,0.612,0.072,0.909c0.382,0.047,0.686,0.084,1.037,0.127
	C166.919,114.3,167.004,114.035,167.173,113.505z M138.434,145.935c0.056-0.435,0.1-0.781,0.145-1.129
	c-0.88-0.25-1.188,0.011-1.142,0.782C137.728,145.689,137.993,145.781,138.434,145.935z M168.092,99.137
	c-0.365,0.109-0.698,0.208-1.03,0.307c-0.006,0.148-0.011,0.295-0.018,0.443c0.436,0.117,0.872,0.234,1.307,0.352
	c0.034-0.093,0.069-0.185,0.103-0.278C168.353,99.729,168.25,99.497,168.092,99.137z M158.263,122.905
	c-0.014,0.104-0.029,0.209-0.042,0.313c0.371,0.148,0.742,0.297,1.113,0.445c0.068-0.08,0.137-0.16,0.205-0.239
	c-0.104-0.317-0.208-0.635-0.346-1.059C158.781,122.604,158.521,122.754,158.263,122.905z M160.111,128.218
	c0.378-0.05,0.622-0.083,0.848-0.113c0.052-0.874-0.071-0.972-0.999-0.784C160.004,127.58,160.048,127.841,160.111,128.218z"/>
</svg>
