<svg version="1.1" id="svg" xmlns="http://www.w3.org/2000/svg" xmlns:xlink="http://www.w3.org/1999/xlink" x="0px" y="0px"
	 width="200px" height="200px" viewBox="0 0 200 200" enable-background="new 0 0 200 200" xml:space="preserve">
<path class="stroke" fill="#1d4442"  d="M178.698,104.593c-1.871-0.185-3.731-0.476-5.841-0.752c-0.114-12.381-0.226-24.712-0.34-37.113
	c-2.27-1.658-4.84-2.418-7.307-2.885c-0.17-2.147-0.402-4.168-0.476-6.196c-0.117-3.242-0.145-6.488-0.179-9.735
	c-0.019-1.701,0.05-3.403,0.041-5.105c-0.013-2.449,0.265-4.982-1.941-7.038c0.038,0.011-0.139-0.054-0.321-0.091
	c-3.063-0.631-6.125-1.266-9.191-1.885c-5.88-1.186-11.75-2.432-17.65-3.517c-3.651-0.673-7.341-1.146-11.028-1.587
	c-1.084-0.13-2.345-0.13-3.306,0.301c-3.751,1.686-7.393,3.616-11.126,5.351c-1.305,0.606-1.984,1.527-2.168,2.862
	c-0.795,5.772-1.584,11.548-2.327,17.328c-0.246,1.912-0.348,3.844-0.505,5.636c-1.187,0.722-2.293,1.253-3.236,1.993
	c-2.026,1.588-3.996,3.251-5.923,4.959c-0.36,0.32-0.569,0.979-0.587,1.493c-0.158,4.51-0.216,9.027-0.387,13.54
	c-0.158,4.121-0.481,8.238-0.623,12.359c-0.166,4.776-0.309,9.557-0.252,14.333c0.017,1.422-0.475,3.056,0.549,4.146
	c0.717,0.044,1.223,0.076,1.728,0.103c4.433,0.236,8.878,0.34,13.292,0.764c2.275,0.217,4.144-0.41,6.011-1.503
	c1.766-1.032,3.537-2.071,5.384-2.943c0.821-0.388,1.197-0.809,1.18-1.683c-0.059-3.248-0.156-6.498-0.125-9.746
	c0.029-3.052,0.258-6.1,0.292-9.152c0.038-3.419-0.03-6.84-0.087-10.26c-0.019-1.086-0.211-2.171-0.208-3.258
	c0.003-0.884,0.216-1.765,0.27-2.65c0.096-1.607,0.089-3.223,0.23-4.827c0.088-0.985,0.371-1.954,0.56-2.899
	c1.116-0.088,2.036-0.161,2.967-0.235c0.281-2.298,0.635-4.469,0.794-6.656c0.245-3.341,1.285-6.395,3.118-9.163
	c0.486-0.734,1.226-1.358,1.969-1.85c1.115-0.735,1.8-0.488,2.604,0.583c1.562,2.078,2.327,4.433,2.408,6.995
	c0.097,3.111,0.08,6.228,0.128,9.342c0.023,1.579,0.077,3.156,0.125,5.011c2.595,0.426,5.125,0.843,7.763,1.275
	c-1.153,0.967-1.428,2.173-1.468,3.497c-0.12,3.862-0.203,7.729-0.433,11.586c-0.196,3.269-0.613,6.522-0.864,9.789
	c-0.132,1.729-0.088,3.47-0.174,5.201c-0.142,2.888-0.371,5.772-0.478,8.661c-0.105,2.836-0.086,5.676-0.156,8.515
	c-0.034,1.39-0.063,2.747,1.432,3.544c3.237,0.122,6.509,0.247,9.578,0.365c-0.087,2.992-0.169,5.838-0.26,8.958
	c1.535,0.537,2.766,1.179,4.064,1.384c4.195,0.66,8.413,1.179,12.628,1.706c0.528,0.065,1.159-0.02,1.628-0.258
	c1.886-0.966,3.737-2.001,5.581-3.045c1.576-0.893,3.125-1.834,4.835-2.843c0.279-7.029,0.557-14.004,0.83-20.85
	C181.026,105.119,179.978,104.718,178.698,104.593z"/>
<path class="stroke" fill="#1d4442"  d="M117.01,145.199c-1.223-0.581-2.464-1.125-3.674-1.735c-2.156-1.091-4.309-2.197-6.43-3.355
	c-0.378-0.207-0.777-0.672-0.853-1.076c-0.19-0.99-0.265-2.017-0.266-3.028c-0.006-3.827,0.041-7.653,0.06-11.48
	c0.006-1.398-0.564-2.008-1.944-2.138c-1.847-0.172-3.711-0.239-5.533-0.556c-3.725-0.644-7.419-1.512-11.056-0.987
	c-2.189,2.444-4.302,4.73-6.316,7.098c-0.515,0.604-0.944,1.447-1.024,2.222c-0.176,1.691-0.083,3.409-0.138,5.116
	c-0.044,1.411-0.142,2.821-0.223,4.394c-2.377-0.63-4.587-1.122-6.728-1.82c-1.003-0.328-1.859-0.387-2.675,0.228
	c-3.025,2.275-6.045,4.556-9.026,6.886c-1.681,1.314-2.295,3.126-2.247,5.237c0.024,1.057-0.152,2.119-0.238,3.178
	c-0.331,4.083-0.699,8.163-0.972,12.25c-0.09,1.353,0.483,1.782,1.815,1.938c3.268,0.381,6.524,0.858,9.794,1.219
	c2.369,0.262,4.764,0.65,7.124,0.531c3.11-0.158,5.051-2.864,7.649-3.912c1.279-6.102,0.857-12.253,2.658-18.095
	c1.439,0.168,2.739,0.318,4.133,0.481c0.007,0.547,0.05,0.995,0.012,1.435c-0.084,0.98-0.249,1.956-0.31,2.938
	c-0.268,4.275-0.499,8.555-0.777,12.829c-0.05,0.755,0.158,1.178,0.883,1.486c1.946,0.829,3.863,1.728,5.781,2.62
	c2.608,1.213,5.207,2.447,7.755,3.647c2.132-0.721,4.243-1.44,6.357-2.15c1.793-0.6,3.592-1.18,5.385-1.783
	c0.982-0.33,1.792-0.819,1.856-2.021c0.151-2.76,0.361-5.517,0.48-8.278c0.143-3.328,0.196-6.658,0.33-9.986
	C118.714,147.092,118.434,145.875,117.01,145.199z"/>
<path class="stroke" fill="#1d4442"  d="M50.181,109.624c3.143,0.986,6.188,2.279,9.307,3.35c1.18,0.406,2.292,0.956,3.724,0.573
	c3.076-0.818,6.229-1.351,9.345-2.023c1.653-0.355,3.297-0.754,4.994-1.145c0.103-1.032,0.243-1.743,0.233-2.452
	c-0.053-3.938-0.117-7.877-0.226-11.814c-0.137-4.901-0.304-9.805-0.487-14.707c-0.111-2.997-0.337-5.99-0.395-8.989
	c-0.063-3.262,0.01-6.527,0.024-9.623c-0.384-0.647-0.671-1.132-1.029-1.737c-1.826-0.932-3.748-1.904-5.663-2.891
	c-2.703-1.394-5.376-2.9-8.605-2.34c-2.802,0.485-5.618,0.908-8.396,1.51c-1.982,0.43-3.932,1.047-5.848,1.72
	c-0.424,0.148-0.897,0.862-0.92,1.337c-0.097,2.119-0.079,4.244-0.026,6.367c0.051,2.084,0.213,4.167,0.29,6.251
	c0.105,2.847,0.164,5.695,0.265,8.542c0.098,2.801,0.277,5.601,0.325,8.402c0.09,5.265-0.11,10.543,0.251,15.785
	C47.532,108.476,47.146,108.672,50.181,109.624z"/>
<path class="stroke" fill="#1d4442"  d="M143.443,140.582c-2.764-0.063-5.534-0.024-8.298,0.052c-0.993,0.028-1.979,0.285-2.961,0.438
	c-0.059,0.537-0.124,0.835-0.118,1.129c0.041,2.124,0.153,4.247,0.135,6.372c-0.029,3.355-0.251,6.717-0.155,10.068
	c0.03,1.065,0.54,2.409,1.304,3.109c2.458,2.255,5.103,4.313,7.756,6.344c0.667,0.51,1.615,0.787,2.469,0.893
	c2.317,0.29,4.657,0.384,6.979,0.639c2.887,0.318,5.764,0.721,8.887,1.117c0.232-0.685,0.528-1.2,0.562-1.73
	c0.065-1.02-0.058-2.05-0.031-3.073c0.102-4.207,0.23-8.414,0.35-12.622c0.03-1.055,0.062-2.108,0.092-3.172
	c-3.432-3.124-6.782-6.177-10.02-9.124C147.956,140.861,145.701,140.635,143.443,140.582z"/>
<path class="stroke" fill="#1d4442"  d="M49.914,119.778c-3.506-0.965-7.056-1.833-10.458-3.09c-2.289-0.846-4.226-0.491-6.116,0.669
	c-3.069,1.884-6.082,3.863-9.072,5.871c-0.392,0.263-0.69,0.914-0.729,1.41c-0.146,1.857-0.253,3.726-0.215,5.588
	c0.068,3.259,0.224,6.518,0.409,9.771c0.075,1.345,0.318,2.682,0.504,4.167c6.024,1.871,11.585,5.034,18.303,5.896
	c2.925-2.428,5.892-4.968,8.954-7.39c1.078-0.854,1.681-1.838,1.719-3.155c0.042-1.474,0.014-2.95-0.027-4.426
	c-0.104-3.755-0.21-7.51-0.371-11.262c-0.041-0.95-0.212-1.913-0.458-2.834C52.018,119.729,50.835,120.031,49.914,119.778z"/>
<path fill-rule="evenodd" clip-rule="evenodd" fill="#fef158" class="fill" d="M151.028,43.33c-0.079,7.971-0.159,15.933-0.239,24.045
	c-4.067-0.68-7.865-1.316-11.815-1.979c-0.064-0.806-0.21-1.841-0.215-2.878c-0.012-2.136,0.062-4.271,0.081-6.407
	c0.032-3.485-0.595-6.812-2.95-9.521c-1.621-1.865-3.881-2.551-6.295-2.741c-6.073-0.479-10.667,3.646-11.876,9.242
	c-0.351,1.626-0.716,3.254-0.923,4.9c-0.208,1.652-0.228,3.327-0.336,5.099c-3.246,0.633-6.263-0.712-9.568-0.901
	c0.504-8.446,1.578-16.673,2.969-24.804C112.321,36.876,147.054,41.901,151.028,43.33z"/>
<path fill-rule="evenodd" clip-rule="evenodd" fill="#fef158" class="fill" d="M157.537,107.718c-0.733,0.557-1.492,1.272-2.373,1.772
	c-1.478,0.837-1.913,2.129-1.977,3.69c-0.072,1.697-0.192,3.392-0.295,5.151c-3.166-0.341-6.33-0.684-9.619-1.04
	c-0.249-14.768,1.743-29.242,2.192-44.045c4.792,0.6,9.393,1.177,14.105,1.767C158.896,85.848,158.22,96.735,157.537,107.718z"/>
<path fill-rule="evenodd" clip-rule="evenodd" fill="#fef158" class="fill" d="M110.504,110.626c-4.916-0.343-9.612-0.667-14.506-1.008
	c-0.399-13.657,1.069-26.985,1.367-40.545c4.613,0.482,9.032,0.944,13.612,1.423C110.82,83.83,110.664,97.115,110.504,110.626z"/>
<path fill-rule="evenodd" clip-rule="evenodd" fill="#fef158" class="fill" d="M112.684,35.25c1.109-0.583,1.909-1.036,2.737-1.433
	c2.054-0.982,4.085-2.033,6.201-2.865c0.977-0.386,2.158-0.549,3.2-0.428c4.592,0.541,9.183,1.139,13.747,1.884
	c3.104,0.508,6.166,1.28,9.241,1.957c2.41,0.528,4.813,1.08,7.215,1.646c1.79,0.421,3.572,0.884,5.432,1.347
	c-2.771,1.326-5.493,2.639-8.229,3.92c-0.283,0.133-0.663,0.159-0.976,0.106c-4.426-0.727-8.853-1.458-13.271-2.228
	c-4.097-0.716-8.171-1.569-12.28-2.197c-3.995-0.613-8.021-1.018-12.033-1.516C113.456,35.418,113.249,35.363,112.684,35.25z"/>
<path fill-rule="evenodd" clip-rule="evenodd" fill="#fef158" class="fill" d="M169.143,114.513c-0.521,4.476-1.033,8.868-1.562,13.396
	c-4.452,0.811-8.876,0.209-13.589,0.096c0.375-4.911,0.747-9.77,1.143-14.938C159.806,113.548,164.449,114.028,169.143,114.513z"/>
<path fill-rule="evenodd" clip-rule="evenodd" fill="#fef158" class="fill" d="M178.271,106.245c-1.519,1.254-2.801,2.409-4.183,3.426
	c-1.305,0.96-2.642,1.938-4.105,2.595c-0.861,0.386-2.01,0.296-3.003,0.185c-3.087-0.344-6.162-0.795-9.242-1.213
	c-0.292-0.04-0.577-0.136-1.158-0.277c0.771-0.583,1.357-1.027,1.944-1.468c0.546-0.414,1.083-0.838,1.64-1.234
	c4.156-2.971,4.16-3.035,9.262-2.813C172.281,105.568,175.127,105.951,178.271,106.245z"/>
<path fill-rule="evenodd" clip-rule="evenodd" fill="#fef158" class="fill" d="M147.019,71.668c0.3-0.544,0.46-0.831,0.684-1.24
	c0.623,0.04,1.335-0.051,1.956,0.148c1.413,0.451,2.719,0.161,3.926-0.485c2.91-1.56,5.769-3.209,8.913-4.97
	c1.888,0.4,4.015,0.851,6.145,1.303c0.018,0.139,0.037,0.277,0.054,0.417c-0.486,0.373-0.959,0.764-1.461,1.113
	c-1.746,1.216-3.518,2.393-5.246,3.63c-1.11,0.795-2.262,1.45-3.671,1.305C154.595,72.508,150.88,72.088,147.019,71.668z"/>
<path fill-rule="evenodd" clip-rule="evenodd" fill="#fef158" class="fill" d="M104.997,64.826c3.871,0.408,7.501,0.791,11.132,1.175
	c-2.34,1.285-4.386,3.154-7.468,2.509c-2.461-0.514-5.025-0.533-7.544-0.777c-0.729-0.07-1.457-0.157-2.186-0.235
	c-0.031-0.101-0.062-0.199-0.092-0.3c1.848-1.609,3.697-3.218,5.743-5.002C104.761,63.329,104.873,64.039,104.997,64.826z"/>
<path fill-rule="evenodd" clip-rule="evenodd" fill="#fef158" class="fill" d="M74.521,165.6c-4.995-0.47-9.763-0.916-14.736-1.382
	c0.418-5.452,0.825-10.738,1.229-15.992c5.108,0.949,9.938,1.846,14.903,2.77C75.462,155.75,75.002,160.558,74.521,165.6z"/>
<path fill-rule="evenodd" clip-rule="evenodd" fill="#fef158" class="fill" d="M103.749,169.234c-3.965-2.057-7.73-4.012-11.797-6.123
	c0.319-4.963,0.644-10.006,0.974-15.117c1.543-0.14,2.786,0.152,4.074,0.734c2.621,1.18,5.327,2.173,8.143,3.302
	C104.688,157.623,104.229,163.309,103.749,169.234z"/>
<path fill-rule="evenodd" clip-rule="evenodd" fill="#fef158" class="fill" d="M96.19,146.528c-4.83-0.593-9.59-1.177-14.61-1.793
	c0.089-4.609,0.178-9.165,0.272-14.018c5.014,0.718,9.792,1.403,14.686,2.104C96.424,137.308,96.311,141.765,96.19,146.528z"/>
<path fill-rule="evenodd" clip-rule="evenodd" fill="#fef158" class="fill" d="M79.542,141.309c0.544,1.908-0.792,4.122,1.861,5.176
	c-1.372,0.986-2.584,1.872-3.818,2.727c-0.163,0.113-0.45,0.117-0.661,0.076c-4.158-0.785-8.312-1.577-12.464-2.393
	c-0.542-0.107-1.056-0.353-1.583-0.534c-0.055-0.126-0.11-0.25-0.167-0.377c2.957-2.245,5.914-4.491,8.723-6.626
	C74.375,140.066,76.977,140.69,79.542,141.309z"/>
<path fill-rule="evenodd" clip-rule="evenodd" fill="#fef158" class="fill" d="M102.76,124.278c-2.04,2.204-3.94,4.258-6.203,6.7
	c-4.042-0.632-8.723-1.364-13.697-2.145c1.154-1.436,2.115-2.638,3.083-3.834c0.165-0.203,0.43-0.352,0.533-0.576
	c0.783-1.699,2.202-2.062,3.87-1.845c2.625,0.345,5.246,0.736,7.87,1.1C99.628,123.875,101.044,124.053,102.76,124.278z"/>
<path fill-rule="evenodd" clip-rule="evenodd" fill="#fef158" class="fill" d="M115.25,146.294c-2.138,0.817-3.996,1.531-5.857,2.236
	c-0.672,0.255-1.397,0.407-2.018,0.751c-1.328,0.74-2.633,0.76-4.025,0.218c-1.511-0.59-3.049-1.105-4.96-1.792
	c2.728-2.141,5.203-4.084,7.819-6.138C109.09,143.074,112.015,144.604,115.25,146.294z"/>
<path fill-rule="evenodd" clip-rule="evenodd" fill="#fef158" class="fill" d="M48.329,62.19c4.229,1.498,8.278,2.932,12.464,4.415
	c-0.051,14.562-0.102,28.993-0.153,43.591c-3.791-1.286-7.5-2.542-11.5-3.896C48.871,91.709,48.601,77.004,48.329,62.19z"/>
<path fill-rule="evenodd" clip-rule="evenodd" fill="#fef158" class="fill" d="M49.89,59.914c4.754-0.843,9.51-1.682,13.947-2.467
	c2.962,1.368,5.604,2.591,8.335,3.853c-3.429,1.249-6.698,2.483-10.006,3.603c-0.527,0.179-1.268-0.08-1.853-0.293
	c-2.911-1.061-5.809-2.161-8.699-3.276c-0.615-0.236-1.185-0.587-1.775-0.885C49.856,60.27,49.872,60.092,49.89,59.914z"/>
<path fill-rule="evenodd" clip-rule="evenodd" fill="#fef158" class="fill" d="M133.941,143.622c2.688,2.295,5.102,4.355,7.802,6.658
	c0.23,4.603,0.477,9.58,0.725,14.557c-0.137,0.052-0.274,0.103-0.411,0.153c-2.483-2.013-4.965-4.026-7.697-6.242
	C134.224,153.848,134.084,148.823,133.941,143.622z"/>
<path fill-rule="evenodd" clip-rule="evenodd" fill="#fef158" class="fill" d="M154.681,150.062c-1.198-0.104-2.396-0.22-3.596-0.315
	c-2.187-0.178-4.376-0.333-6.561-0.523c-0.442-0.037-0.99-0.048-1.292-0.303c-2.282-1.928-4.514-3.914-6.762-5.882
	c0.053-0.166,0.109-0.331,0.163-0.495c0.73-0.006,1.459-0.016,2.189-0.017c1.4-0.005,2.8-0.02,4.2-0.001
	c1.327,0.018,2.663-0.008,3.975,0.151c0.583,0.071,1.213,0.447,1.653,0.863c2.112,2,4.165,4.06,6.239,6.099
	C154.82,149.78,154.75,149.922,154.681,150.062z"/>
<path fill-rule="evenodd" clip-rule="evenodd" fill="#fef158" class="fill" d="M25.637,141.456c-0.194-5.005-0.382-9.827-0.569-14.648
	c0.143-0.109,0.285-0.221,0.428-0.33c4.852,1.515,9.703,3.03,14.852,4.639c-0.071,4.796-0.144,9.648-0.218,14.732
	C35.244,144.367,30.523,142.938,25.637,141.456z"/>
<path fill-rule="evenodd" clip-rule="evenodd" fill="#fef158" class="fill" d="M26.003,124.499c1.234-0.903,2.389-1.812,3.609-2.622
	c1.323-0.881,2.74-1.619,4.056-2.509c2.211-1.497,4.442-1.491,6.884-0.558c1.683,0.645,3.514,0.888,5.259,1.378
	c1.363,0.382,2.695,0.868,4.235,1.634c-0.174,0.086-0.37,0.145-0.522,0.26c-2.861,2.173-5.698,4.375-8.593,6.501
	c-0.413,0.305-1.164,0.445-1.647,0.299c-4.295-1.308-8.564-2.696-12.838-4.068C26.315,124.771,26.209,124.647,26.003,124.499z"/>
</svg>
