<svg version="1.1" id="svg" xmlns="http://www.w3.org/2000/svg" xmlns:xlink="http://www.w3.org/1999/xlink" x="0px" y="0px"
	 width="200px" height="200px" viewBox="0 0 200 200" enable-background="new 0 0 200 200" xml:space="preserve">
<path class="stroke" fill="#324c2a"  fill-rule="evenodd" clip-rule="evenodd" d="M121.443,128.814c-0.752,0.427-1.508,0.858-2.312,1.314
	c-0.901,2.769-1.413,5.646-1.693,8.572c-0.274,2.867-0.586,5.73-0.896,8.735c-0.962,1.205-2.316,2.017-3.857,2.586
	c-3.358,1.238-6.74,2.427-10.352,2.581c-3.513,0.148-7.038,0.334-10.532-0.382c-2.664-0.546-5.153-1.532-7.509-2.863
	c-0.587-0.33-1.079-0.823-1.523-1.172c-3.087-14.275-2.995-13.922-4.861-17.979c-0.468-0.27-0.974-0.56-1.597-0.917
	c-0.237-2.234-0.495-4.512-0.718-6.792c-0.098-1.019-0.033-2.062-0.213-3.062c-0.208-1.159,0.225-1.993,1.176-2.436
	c1.363-0.634,2.781-1.218,4.236-1.575c2.277-0.558,4.604-0.909,6.909-1.351c0.237-0.045,0.468-0.117,0.859-0.217
	c-0.271-1.638-0.539-3.249-0.844-5.074c-1.288,0.733-2.457,1.396-3.737,2.124c-0.179-0.116-0.434-0.282-0.894-0.582
	c0.745-0.438,1.319-0.77,1.888-1.109c0.564-0.333,1.122-0.673,1.922-1.154c-1.787-0.518-3.246-0.942-4.705-1.365
	c0.031-0.137,0.062-0.272,0.092-0.408c1.814-0.601,3.399,1.097,5.314,0.719c-0.116-1.615-0.236-3.245-0.362-4.979
	c-0.556-0.228-1.13-0.464-1.686-0.691c-1.056,0.712-1.597,2.021-3.071,2.288c0.006-1.418,1.572-1.518,1.725-2.821
	c-1.213-0.686-2.505-1.415-3.81-2.152c-0.683,1.067,0.218,2.303-0.498,3.299c-0.689-0.456-0.689-0.456-1.144-2.581
	c-0.919,0.119-1.659,1.246-2.894,0.595c1.073-0.734,2.02-1.383,3.127-2.141c-1.612-1.076-3.043-2.032-4.473-2.987
	c-0.801,1.182-0.423,2.66-1.377,3.691c-0.401-1.424,0.156-2.844-0.081-4.362c-1.35,0.396-2.473,1.337-3.931,1.213
	c0.76-1.317,2.557-1.046,3.418-2.366c-0.942-1.049-1.929-2.146-2.927-3.258c-1.604,2.027-1.604,2.027-2.534,2.013
	c0.502-1.005,0.988-1.977,1.495-2.993c-1.666-0.559-3.066,0.818-4.811,0.367c1.318-1.453,3.011-1.083,4.541-1.703
	c-0.78-1.734-1.531-3.401-2.285-5.08c-1.905,0.348-1.823,2.339-2.982,3.384c-0.131-0.183-0.338-0.347-0.312-0.454
	c0.31-1.279,0.583-2.567,1.837-3.358c0.814-0.513,0.781-0.565,1.058-1.648c-1.516-0.241-3.016-0.479-4.562-0.725
	c0.479-0.935,0.479-0.935,4.12-0.538c0.186-1.802-0.325-3.541-0.331-5.253c-1.368-0.486-1.521,1.556-2.844,1.157
	c0.139-0.938,0.594-1.541,1.379-1.976c1.513-0.838,1.594-1.051,1.428-3.087c-0.992-0.301-2.031-0.616-3.103-0.94
	c0.329-1.055,0.972-0.737,1.568-0.582c0.562,0.146,1.128,0.283,1.715,0.433c0.785-1.718,1.543-3.376,2.353-5.148
	c-1.236-0.08-2.396,0.52-3.521-0.067c-0.02-0.749,0.391-0.843,0.949-0.748c0.848,0.145,1.65,0.042,2.485-0.473
	c-0.316-0.939-0.636-1.888-0.953-2.829c0.31-0.488,0.659-0.431,0.915-0.021c0.23,0.369,0.311,0.827,0.525,1.207
	c0.253,0.447,0.578,0.854,0.955,1.401c1.666-1.775,3.666-2.443,5.827-2.197c1.774,0.205,3.505,0.814,5.249,1.258
	c0.278,0.07,0.539,0.212,0.974,0.389c0.591-0.919,1.174-1.826,1.955-3.042c0.132,0.756,0.2,1.149,0.268,1.539
	c1.463,0.597,2.928,1.194,4.618,1.886c-0.184-2.514-0.349-4.777-0.521-7.134c-1.151,0.254-2.127,0.753-3.028,1.438
	c-0.499,0.378-1.001,0.829-1.915,0.357c1.126-1.241,2.596-1.852,4.251-2.797c-1.951-0.374-3.568-0.684-5.526-1.058
	c0.548-0.293,0.814-0.56,1.066-0.546c0.871,0.05,1.74,0.183,2.606,0.31c0.81,0.119,1.614,0.271,2.614,0.442
	c0.238-2.622,0.458-5.069,0.689-7.625c-2.046,0.239-3.68,1.794-5.773,1.487c1.421-1.269,3.411-1.307,5.034-2.523
	c-1.163-0.838-2.247-1.623-3.426-2.473c0.312-0.257,0.523-0.433,0.722-0.596c1.213,0.773,2.382,1.52,3.537,2.256
	c0.504-1.128,0.985-2.078,1.359-3.068c1.297-3.428,7.149-6.28,10.311-5.756c1.878,0.312,3.787,0.456,5.644,0.856
	c2.293,0.492,3.92,1.914,4.89,4.066c0.119,0.265,0.264,0.519,0.403,0.772c0.02,0.034,0.079,0.046,0.233,0.13
	c1.543-0.877,2.421-2.703,4.234-3.488c0.088,0.314,0.148,0.535,0.201,0.722c-1.301,1.311-2.554,2.576-3.979,4.014
	c1.932,0.082,3.639-0.143,5.344,0.116c-1.537,1.516-3.683,0.108-5.24,1.122c0.148,2.053,0.293,4.016,0.446,6.13
	c1.544-0.7,2.599-1.983,4.239-2.25c0.062,0.25,0.104,0.426,0.138,0.561c-1.034,0.717-2.022,1.4-3.082,2.137
	c0.86,1.106,2.554,0.614,3.122,1.803c-0.057,0.132-0.113,0.263-0.172,0.396c-1.408-0.39-2.815-0.778-4.205-1.162
	c-0.639,1.795-0.971,5.893-0.598,7.55c0.696-0.432,1.322-0.864,1.991-1.221c0.638-0.337,1.32-0.594,2.079-0.93
	c0.078,0.401,0.128,0.668,0.157,0.819c-1.432,0.839-2.769,1.624-4.325,2.536c1.617,0.701,3.412,0.374,4.6,1.474
	c-0.048,0.165-0.096,0.331-0.145,0.496c-1.484-0.283-2.969-0.567-4.691-0.897c-0.062,2.452-0.119,4.714-0.184,7.225
	c1.989-0.632,3.281-2.418,5.383-2.272c-1.136,1.493-3.173,1.821-4.378,3.262c1.154,0.908,2.785,0.708,3.77,1.79
	c-1.663,0.424-3.032-0.615-4.778-0.682c-0.27,2.476-0.325,4.933-0.496,7.59c1.623-0.327,2.797-1.099,4.051-1.896
	c-0.403-0.479-0.704-0.835-1.089-1.291c0.347-0.159,0.589-0.271,0.847-0.39c1.042,0.86,2.042,1.686,3.203,2.644
	c1.197-2.916,1.278-5.759,1.459-8.507c-1.19-0.756-2.348,0.43-3.519-0.37c0.776-1.111,2.055-0.464,3.075-1.089
	c-0.377-0.781-0.765-1.59-1.193-2.483c0.168-0.129,0.375-0.287,0.699-0.537c0.494,0.699,0.935,1.319,1.486,2.102
	c1.229-2.211,2.704-4.063,5.385-4.263c2.319-0.173,4.656-0.713,6.846,0.72c2.092,1.368,3.43,3.291,4.434,5.552
	c1.304-0.006,1.973-1.223,3.229-1.613c0.016,1.671-1.561,1.79-2.312,2.73c1.079,0.617,2.452-0.526,3.56,0.59
	c-1.149,0.744-2.394,0.345-3.548,0.767c0.145,1.993,0.292,4.019,0.447,6.146c1.211-0.484,2.394-0.958,3.711-1.484
	c0.074,0.5,0.113,0.757,0.156,1.043c-1.123,0.433-2.352,0.541-3.078,1.642c1.273,0.798,2.956,0.729,3.825,2.026
	c-0.048,0.115-0.098,0.229-0.146,0.343c-1.389-0.449-2.779-0.898-4.344-1.405c-0.36,1.869-0.681,3.521-1.021,5.284
	c1.153,0.077,2.214,0.148,3.326,0.223c0.032,0.265,0.062,0.488,0.099,0.781c-1.289,0.228-2.584-0.125-3.844,0.371
	c0.49,1.402,2.171,1.887,2.471,3.479c-1.584,0.044-1.864-1.52-3.104-1.956c-0.901,1.771-1.812,3.561-2.803,5.504
	c1.583,0.292,2.916,0.555,4.254,0.778c0.528,0.089,0.955,0.197,0.818,0.98c-1.976-0.078-3.873-0.91-5.959-0.573
	c0.443,1.823,1.754,3.011,2.571,4.616c-1.226,0.323-1.49-0.555-1.914-1.113c-0.44-0.578-0.815-1.207-1.341-2.001
	c-1.539,1.212-2.3,2.965-3.648,4.105c0.649,1.942,2.955,2.431,3.378,4.421c-1.729-0.54-2.715-2.064-4.396-3.277
	c0.279,1.096,0.546,1.854,0.651,2.631c0.102,0.754,1.156,1.376,0.195,2.42c-1.241-1.184-0.933-3.029-1.968-4.397
	c-2.16,1.311-4.336,2.63-6.516,3.951c0.64,1.264,2.624,1.313,2.819,2.932c-0.086,0.094-0.168,0.188-0.252,0.282
	c-0.533-0.38-1.063-0.77-1.605-1.14c-0.558-0.382-1.126-0.746-1.83-1.21c-0.156,1.087,0.585,1.774,0.59,2.718
	c-0.247,0.042-0.502,0.087-0.713,0.123c-0.451-1.056-0.867-2.029-1.291-3.021c-2.383,0.5-4.617,0.969-6.97,1.461
	c-0.089,0.626-0.173,1.228-0.299,2.115c0.804-0.262,1.365-0.505,1.95-0.616c0.584-0.11,1.193-0.09,2.096-0.145
	c-0.885,1.239-2.243,0.92-3.026,1.925c0.891,0.623,1.778,1.242,2.711,1.893c-0.929,0.344-0.995,0.333-2.022-0.207
	c-0.595-0.313-1.191-0.618-1.958-1.014c-0.138,1.106-0.25,2.002-0.37,2.971c2.244,0.389,4.357,0.738,6.463,1.126
	c1.055,0.194,2.122,0.38,3.139,0.71c1.493,0.483,2.334,1.301,3.16,2.677C121.295,121.742,121.367,125.16,121.443,128.814z
	 M87.801,63.515c-1.704,0.61-3.221,1.153-4.812,1.723c0.114,0.394,0.23,0.797,0.384,1.328c0.977-0.489,1.849-0.926,2.947-1.475
	c-0.393,1.446-1.698,1.623-2.267,2.482c0.599,0.884,1.884,0.852,2.41,2.161c-1.07-0.237-1.895-0.419-2.752-0.607
	c0.08,1.097,0.155,2.131,0.235,3.219c1.072-0.08,1.748-1.09,3.102-0.784c-0.744,0.646-1.301,1.131-1.949,1.694
	c0.463,0.233,0.802,0.396,1.135,0.572c0.352,0.185,0.697,0.379,1.139,0.62c-0.962,0.869-1.831-0.024-2.72,0.229
	c0.194,0.948,0.336,1.826,0.953,2.501c0.682-0.109,0.979-0.961,1.829-0.661c-0.184,0.435-0.344,0.812-0.553,1.308
	c0.58,0.249,1.093,0.469,1.746,0.751C89.097,73.447,87.905,68.616,87.801,63.515z M116.39,78.584
	c-0.882-0.575-2.06,0.235-2.76-0.752c0.638-0.831,1.521-0.375,2.233-0.601c0.113-0.036,0.192-0.178,0.358-0.34
	c-0.382-0.286-0.717-0.536-1.088-0.813c-1.257,0.726-2.442,1.41-3.728,2.152c1.321,0.869,2.447,1.608,3.584,2.356
	c-0.11,0.329-0.18,0.541-0.312,0.939c-0.562-0.354-0.991-0.634-1.43-0.901c-0.97-0.591-1.886-1.312-3.19-1.463
	c0.109,2.992,0.029,5.825,0.896,8.578C113.159,86.957,116.242,81.729,116.39,78.584z M82.479,60.794
	c-0.249,0.461-0.38,0.702-0.509,0.938c0.82,0.54,1.96,0.147,2.748,1.168c-0.947,0.069-1.69,0.124-2.591,0.189
	c0.268,0.551,0.471,0.968,0.689,1.418c1.27-0.57,2.434-1.096,3.599-1.62c-0.003-0.119-0.005-0.236-0.008-0.355
	C85.146,61.975,83.887,61.417,82.479,60.794z M87.949,81.787c0.129-0.03,0.26-0.062,0.39-0.094c0.06-0.759,0.118-1.518,0.188-2.398
	c-0.762-0.062-1.313-0.107-2.185-0.178C86.969,80.16,87.459,80.974,87.949,81.787z"/>
<path fill-rule="evenodd" clip-rule="evenodd" fill="#d5ee20" class="fill" d="M106.814,104.872c-0.191,1.663-0.347,3.07-0.52,4.478
	c-0.065,0.533-0.112,1.079-0.268,1.589c-0.797,2.609-1.07,5.269-0.765,8.041c-0.476,0.288-0.919,0.555-1.558,0.939
	c-0.457-1.04-1.106-1.956-1.249-2.946c-0.396-2.761-0.206-5.545-0.024-8.724c1.003,1.023,1.764,1.801,2.525,2.577
	c0.105-0.081,0.214-0.162,0.321-0.242c-0.357-0.648-0.654-1.34-1.088-1.933c-0.458-0.627-1.045-1.16-1.756-1.93
	c0.165-2.691,0.342-5.546,0.518-8.402c0.081-0.026,0.164-0.054,0.247-0.08c0.312,0.522,0.628,1.045,0.942,1.568
	c0.427-1.412-0.229-2.604-0.368-3.867c0.573-0.704,1.138-1.399,1.808-2.225c-1.187-0.276-1.356,0.988-2.37,0.95
	c0.447-4.363,0.894-8.709,1.338-13.026c0.762-0.338,1.366-0.607,1.973-0.876c-0.002-0.085-0.006-0.17-0.008-0.255
	c-0.524-0.096-1.05-0.189-1.631-0.296c0.436-4.733,0.869-9.444,1.314-14.271c0.404-0.439,0.896-0.968,1.561-1.687
	c-0.654,0.048-1.049,0.076-1.673,0.123c0.112-2.374,0.222-4.651,0.329-6.92c0.641-0.648,1.24-1.257,1.841-1.864
	c-0.058-0.086-0.114-0.172-0.171-0.26c-0.449,0.175-0.9,0.348-1.372,0.53c-0.196-2.68-0.386-5.293-0.598-8.185
	c0.604-0.49,1.284-1.042,2.073-1.684c-1.014-0.577-1.354,0.205-2.082,0.261c-0.13-0.491-0.309-1.018-0.402-1.561
	c-0.222-1.254-0.414-2.512-0.598-3.771c-0.214-1.468-0.947-2.714-1.496-4.023c-0.762,0.209-0.584,0.629-0.433,0.974
	c1.126,2.549,1.231,5.325,1.783,7.999c0.077,0.373,0.062,0.765,0.091,1.152c-0.843,0.584-1.976,0.471-2.797,1.624
	c1.134-0.199,1.951-0.342,2.981-0.521c0.146,2.692,0.471,5.262,0.197,7.886c-0.925-0.169-0.994-1.414-2.072-1.195
	c-0.065,1.1,0.754,1.744,1.368,2.699c-0.566,0.312-1.069,0.59-1.658,0.915c0.693,0.615,1.373,0.365,2.282-0.02
	c-0.114,2.063-0.22,3.962-0.341,6.102c-0.938-0.509-1.729-0.938-2.6-1.41c-0.205,0.116-0.44,0.247-0.831,0.467
	c1.209,0.854,2.302,1.626,3.562,2.516c-0.415,4.443-0.838,8.951-1.26,13.447c-1.332-0.045-1.693-0.161-3.218-0.982
	c-0.127,0.788-0.048,0.908,1.045,1.469c0.604,0.31,1.216,0.604,1.845,0.916c-0.388,4.232-0.771,8.39-1.15,12.518
	c-1.127,0.137-1.074-1.47-2.281-1.216c-0.015,1.525,1.432,2.154,2.004,3.441c-0.186,3.654-0.378,7.448-0.567,11.177
	c-0.649,0.376-1.138,0.658-1.89,1.092c0.748,0.152,1.197,0.246,1.771,0.363c-0.048,3.186-0.097,6.396-0.145,9.601
	c-0.648,0.669-1.273,1.319-2.078,2.152c-0.519-2.194-0.247-4.233-0.458-6.224c0.525-0.681,1.022-1.324,1.727-2.238
	c-0.677,0.163-1.015,0.243-1.539,0.369c-0.069-4.102-0.138-8.165-0.202-11.958c0.869-1.317,1.588-2.408,2.307-3.496
	c-0.086-0.084-0.17-0.168-0.254-0.251c-0.581,0.538-1.159,1.076-1.738,1.613c-0.104-0.04-0.206-0.08-0.311-0.12
	c-0.125-3.43,0.103-6.857,0.203-10.251c1.247-0.638,2.395-1.227,3.544-1.814c-1.301-0.399-2.286,0.472-3.649,0.678
	c-0.32-4.55-0.116-9.027-0.615-13.62c1.73,0.518,1.729,2.722,3.598,3.112c-0.906-1.899-2.025-3.443-3.283-4.941
	c0.927-0.959,1.786-1.849,2.645-2.738c-0.061-0.085-0.12-0.171-0.182-0.256c-0.946,0.519-1.893,1.037-2.838,1.556
	c-0.505-1.484-0.739-9.917-0.308-11.586c1.026,0.139,1.724,1.287,3.009,1.068c-0.669-1.133-1.835-1.536-2.688-2.378
	c0.793-1.085,1.584-2.165,2.49-3.404c-1.352,0.171-1.925,1.166-2.714,1.869c-0.59-1.533-0.122-7.957,0.776-11.038
	c0.838-0.554,1.767-1.168,2.819-1.861c-0.896-0.396-1.621,0.156-2.509,0.235c-0.09-1.949,1.182-3.565,1.156-5.455
	c-1.561,1.508-1.668,3.646-2.326,5.498c-0.758-0.061-1.004-1.159-2.053-0.587c0.633,0.724,1.221,1.395,1.712,1.955
	c-0.352,4.074-0.693,8.056-1.058,12.298c-0.805,0.306-1.824,0.69-2.855,1.082c-0.525-1.749-0.654-5.494-0.331-8.285
	c0.117-0.131,0.286-0.304,0.438-0.49c0.148-0.183,0.276-0.381,0.458-0.633c-0.261-0.2-0.475-0.364-0.784-0.601
	c0.163-3.265,1.639-6.103,3.348-8.924c-0.738-0.564-1.184-0.023-1.411,0.435c-0.735,1.484-1.465,2.989-2.012,4.551
	c-0.479,1.373-0.712,2.833-1.109,4.492c-0.55-0.514-1.015-0.947-1.534-1.431c-0.477,0.262-0.465,0.625-0.12,1.014
	c0.515,0.583,1.056,1.143,1.467,1.583c0.25,5.185,0.494,10.229,0.74,15.327c-0.896-0.126-1.637-0.236-2.379-0.324
	c-0.056-0.006-0.129,0.133-0.244,0.261c0.68,0.789,1.686,0.882,2.64,1.277c0.177,2.428,0.357,4.896,0.551,7.547
	c-0.967,0.186-1.848,0.353-2.781,0.531c-0.106-0.359-0.217-0.581-0.232-0.809c-0.325-4.538-0.711-9.073-0.932-13.616
	c-0.146-3.023-0.164-6.063-0.038-9.087c0.11-2.631,0.374-5.29,1.388-7.757c1.141-2.776,3.142-4.676,6.156-5.358
	c0.762-0.173,1.519-0.369,2.277-0.563c1.969-0.507,3.929-0.237,5.784,0.375c1.424,0.472,2.485,1.645,2.989,3.062
	c0.571,1.602,1.029,3.275,1.277,4.957c0.391,2.661,0.522,5.35,0.245,8.052c-0.124,1.21,0.015,2.446-0.049,3.666
	c-0.194,3.661-0.484,7.32-0.635,10.983c-0.148,3.618-0.155,7.24-0.259,10.861c-0.067,2.344-0.199,4.685-0.295,7.028
	c-0.02,0.438-0.031,0.88,0,1.318c0.146,2.032-0.18,3.946-0.936,5.872c-0.726,1.852-1.109,3.844-1.577,5.788
	c-0.44,1.84,0.144,3.589,0.63,5.332C106.485,104.088,106.689,104.535,106.814,104.872z"/>
<path fill-rule="evenodd" clip-rule="evenodd" fill="#d5ee20" class="fill" d="M108.813,103.979c-0.923-1.472-1.677-2.826-1.282-4.634
	c0.746-0.139,1.495-0.277,2.353-0.438c0.106,0.688,0.199,1.28,0.292,1.871c0.221,0.01,0.364,0.017,0.594,0.027
	c0.163-0.473,0.329-0.955,0.635-1.842c0.598,0.79,1.062,1.407,1.527,2.021c0.141-0.119,0.279-0.239,0.418-0.359
	c-0.317-0.651-0.635-1.301-1.05-2.15c1.683-0.719,3.293-1.406,4.996-2.134c0.225,1.042,0.403,1.869,0.611,2.83
	c1.306-0.808,0.315-1.923,0.76-2.833c1.089,0.198,1.866,1.529,3.311,1.106c-1.04-0.758-1.968-1.434-3.034-2.21
	c0.952-1.018,1.851-1.892,2.646-2.852c0.766-0.923,1.425-1.935,2.121-2.895c0.867,0.51,0.761,1.749,2.122,1.965
	c-0.505-1.239-0.929-2.279-1.358-3.333c0.971-0.815,2.109-0.298,3.109-0.759c-0.588-0.943-1.668-0.205-2.425-0.779
	c0.421-1.15,0.853-2.331,1.312-3.591c1.107-0.137,2.202-0.271,3.463-0.424c-0.861-1.086-2.037-0.336-2.984-0.828
	c0.416-1.4,0.829-2.791,1.268-4.265c1.153,0.49,1.372,2.189,3.116,1.993c-0.753-1.002-1.396-1.857-2.081-2.772
	c1.02-1.133,2.511-1.71,3.17-3.041c-0.078-0.087-0.156-0.175-0.235-0.264c-1.024,0.74-2.048,1.479-3.284,2.372
	c-0.028-2.014,1.054-3.43,1.131-5.011c0.905-0.543,1.711-1.024,2.515-1.507c-0.052-0.116-0.104-0.233-0.157-0.349
	c-0.568,0.142-1.138,0.283-1.916,0.478c0.045-0.911,0.144-1.714,0.107-2.512c-0.03-0.687,0.27-1.581-0.915-2.005
	c-0.417,1.146-0.036,2.228-0.213,3.246c-0.181,1.062-0.347,2.128-0.61,3.169c-0.261,1.026-0.636,2.022-0.942,2.977
	c-1.118-0.02-1.181-1.715-2.496-1.277c0.104,1.446,1.751,1.9,1.96,3.397c-0.854,0.365-1.725,0.738-2.595,1.111
	c0.032,0.12,0.063,0.24,0.095,0.358c0.634-0.046,1.266-0.092,2.091-0.152c-0.688,3.008-1.676,5.671-2.729,8.312
	c-0.117,0.01-0.236,0.02-0.354,0.03c-0.268-0.732-0.535-1.468-0.822-2.257c-0.247-0.003-0.473-0.009-0.735-0.013
	c-0.326,1.134,0.441,2.014,0.543,3.095c-0.683,0.208-1.385,0.423-2.088,0.637c0.013,0.134,0.026,0.268,0.039,0.401
	c0.713,0.068,1.425,0.136,2.32,0.223c-1.279,2.241-2.581,4.294-4.647,5.997c-0.181-0.906-0.32-1.603-0.478-2.396
	c-0.39,0.081-0.65,0.134-0.957,0.197c-0.016,0.676-0.029,1.292-0.044,1.937c-0.928,0.066-1.466-0.333-1.877-1.026
	c1.21-1.237,2.392-2.442,3.688-3.767c0.511-0.037,1.19-0.087,1.871-0.137c0.013-0.085,0.024-0.17,0.036-0.253
	c-0.4-0.185-0.8-0.368-1.32-0.607c0.896-2.348,2.723-4.256,2.822-6.931c0.515,0.044,0.873,0.075,1.385,0.12
	c-0.12-0.402-0.22-0.733-0.347-1.157c0.29-0.071,0.577-0.14,1.055-0.253c-0.499-0.414-0.857-0.708-1.265-1.044
	c0.369-2.198,0.739-4.405,1.137-6.769c0.149-0.101,0.419-0.279,0.703-0.469c-0.046-0.323-0.091-0.656-0.144-1.013
	c0.528-0.426,1.038-0.839,1.55-1.252c-0.048-0.095-0.096-0.188-0.144-0.282c-0.479,0.122-0.958,0.245-1.657,0.422
	c0.096-1.28,0.186-2.498,0.291-3.914c-1.502,0.771-0.971,2.185-1.545,3.246c-0.258,0.019-0.607,0.044-1.135,0.083
	c0.321,0.53,0.557,0.919,0.855,1.412c-0.562,0.271-1.102,0.533-1.722,0.832c0.49,0.607,1.078,0.132,1.733,0.436
	c-0.044,1.709-0.11,3.521-0.803,5.322c-0.332,0.024-0.687,0.051-1.113,0.082c-0.027,0.473-0.052,0.894-0.076,1.312
	c-0.486,0.096-0.971,0.191-1.457,0.287c-0.01,0.113-0.021,0.227-0.031,0.339c0.648,0.206,1.296,0.411,2.107,0.67
	c-0.377,1.302-0.733,2.533-1.14,3.932c-0.836-0.343-1.503-0.617-2.217-0.91c-0.245,1.36,0.902,1.4,1.64,1.917
	c-0.555,1.059-1.091,2.081-1.72,3.282c-0.203-0.469-0.326-0.751-0.489-1.125c-0.643,0.546-1.258,1.07-1.978,1.686
	c0.455,0.2,0.83,0.366,1.372,0.604c-0.948,1.728-2.326,2.739-4.233,3.365c-0.292-0.786-0.567-1.532-0.896-2.419
	c0.832-0.879,1.793-1.777,2.614-2.79c1.99-2.453,3.538-5.133,4.172-8.291c0.692-3.447,1.454-6.883,2.236-10.312
	c0.215-0.946,0.574-1.866,0.935-2.771c0.377-0.95,1.124-1.569,2.016-2.048c4.549-2.446,9.497-0.052,10.428,4.769
	c0.853,4.424,0.448,8.708-0.763,13.038c-1.356,4.852-4.012,8.841-7.202,12.616c-1.92,2.272-4.004,4.339-6.593,5.76
	c-2.649,1.455-5.424,2.699-8.206,3.891C110.78,104.074,109.767,103.909,108.813,103.979z"/>
<path fill-rule="evenodd" clip-rule="evenodd" fill="#d5ee20" class="fill" d="M109.943,132.603c0.273,2.006-0.993,15.235-1.588,16.802
	c-0.34,0.159-0.757,0.427-1.211,0.563c-4.71,1.417-9.487,1.747-14.357,0.984c-2.283-0.358-4.033-1.637-5.78-2.944
	c-1.674-4.025-2.778-8.131-2.657-12.749C93.103,136.084,101.466,134.284,109.943,132.603z"/>
<path fill-rule="evenodd" clip-rule="evenodd" fill="#d5ee20" class="fill" d="M83.688,130.996c-0.488-2.75-0.622-5.398-0.413-8.177
	c0.469,0.063,0.802,0.074,1.117,0.155c5.806,1.498,11.707,2.344,17.7,2.154c3.371-0.106,6.718-0.664,9.931-1.807
	c0.498-0.176,1.021-0.283,1.666-0.461c0.521,2.646-0.205,5.132-0.04,7.688c-0.609,0.172-1.064,0.355-1.536,0.424
	c-3.816,0.553-7.621,1.284-11.461,1.572c-5.021,0.378-10.071,0.394-15.008-0.937C84.994,131.434,84.358,131.206,83.688,130.996z"/>
<path fill-rule="evenodd" clip-rule="evenodd" fill="#d5ee20" class="fill" d="M86.028,82.828c-0.415,0.727-0.722,1.268-1.09,1.914
	c-1.821-2.134-3.075-4.409-3.802-7.018c0.381-0.779,0.764-1.559,1.178-2.402c-0.837-0.311-1.002,0.608-1.768,0.672
	c-0.551-1.735-1.119-3.521-1.653-5.199c0.696-0.923,1.254-1.663,1.812-2.404c-0.103-0.101-0.207-0.205-0.311-0.307
	c-0.542,0.416-1.084,0.831-1.67,1.28c-0.926-1.271-0.353-2.787-0.848-4.363c-0.291,0.382-0.598,0.598-0.61,0.83
	c-0.048,0.874-0.156,1.789,0.043,2.621c0.519,2.167,1.187,4.297,1.798,6.44c0.116,0.405,0.244,0.808,0.396,1.311
	c-0.821,0.12-1.508,0.221-2.192,0.32c-0.011,0.124-0.021,0.248-0.031,0.371c0.834,0.257,1.669,0.515,2.528,0.779
	c0.818,1.882,1.629,3.752,2.475,5.698c-0.373,0.892-0.812,1.939-1.347,3.223c-0.67-1.111-1.276-2.036-1.798-3.005
	c-0.584-1.083,0.529-2.014,0.382-3.32c-0.496,0.455-0.86,0.789-1.33,1.221c-0.956-1.399-1.232-3.044-1.909-4.46
	c0.426-1.168,1.401-1.984,1.511-3.317c-1.133,0.023-1.081,1.239-1.98,1.672c-0.944-2.334-1.281-4.714-1.343-7.322
	c0.81,0.215,1.471,0.39,2.132,0.564c0.026-0.064,0.054-0.13,0.08-0.195c-0.648-0.574-1.296-1.146-1.995-1.766
	c0.154-0.36,0.298-0.701,0.445-1.048c-0.26-0.127-0.467-0.228-0.689-0.338c-0.254-1.031,0.525-2.11-0.133-3.197
	c-1.131,0.152-0.747,1.094-0.88,1.69c-0.146,0.657-0.137,1.349-0.188,1.948c-0.486,0.523-1.351-0.673-1.599,0.57
	c0.367,0.239,0.758,0.494,1.29,0.842c-0.598,0.783-1.145,1.5-1.695,2.22c0.745,0.001,0.745,0.001,2.031-0.814
	c0.379,2.202,0.755,4.383,1.154,6.703c-0.674-0.116-1.233-0.212-1.99-0.343c0.481,1.354,1.761,1.069,2.508,1.844
	c-0.088,1.154-0.184,2.419-0.281,3.705c1.175-0.003,0.64-0.963,1.166-1.376c0.674,0.842,0.861,1.859,1.188,2.915
	c-0.979,0.178-1.908,0.347-3.033,0.552c-0.346-0.68-0.732-1.441-1.102-2.171c0.296-1.107,0.566-2.124,0.837-3.14
	c-0.115-0.059-0.23-0.118-0.345-0.177c-0.326,0.423-0.653,0.846-1.051,1.361c-0.707-0.854-0.934-1.893-1.218-2.872
	c-0.269-0.926-0.362-1.902-0.537-2.869c0.474-0.331,0.858-0.598,1.512-1.054c-0.81,0.06-1.327,0.097-1.89,0.138
	c-0.722-1.73-0.438-3.534-0.642-5.308c-0.814,1.348-0.462,2.848-0.559,4.39c-0.144,0.143-0.345,0.34-0.605,0.597
	c0.143,0.368,0.297,0.765,0.479,1.233c-0.301,0.301-0.625,0.624-0.948,0.947c0.032,0.072,0.063,0.144,0.098,0.215
	c0.443-0.067,0.888-0.135,1.438-0.219c0.591,1.779,1.188,3.575,1.844,5.546c-0.842,0.217-1.566,0.403-2.423,0.624
	c-0.679-1.863-1.08-3.657-1.354-5.48c-0.152-1.011-0.164-2.045-0.333-3.053c-0.391-2.316,0.265-4.357,1.544-6.24
	c0.604-0.89,1.26-1.746,1.908-2.604c0.627-0.829,1.498-1.384,2.51-1.306c1.594,0.124,3.207,0.32,4.744,0.738
	c1.53,0.416,2.358,1.742,2.803,3.175c0.549,1.771,0.958,3.585,1.354,5.398c0.457,2.098,0.848,4.212,1.246,6.323
	C83.712,78.975,84.452,81.073,86.028,82.828z"/>
<path fill-rule="evenodd" clip-rule="evenodd" fill="#d5ee20" class="fill" d="M93.98,118.725c-0.666,0.184-1.314,0.363-1.953,0.54
	c-0.823-1.408-2.428-14.961-2.291-19.342c1.424-1.959,1.415-4.38,1.519-6.682c0.114-2.57,0.007-5.181-0.974-7.667
	c-0.354-0.896-0.385-1.912,0.221-3.022c0.762-0.263,1.669-0.575,2.818-0.972c-0.023,4.465-0.034,8.717-0.069,12.97
	c-0.033,4.229-0.091,8.458-0.137,12.688c-1.135-0.025-1.417-1.183-2.264-1.833c-0.29,2.012,1.43,2.485,2.353,3.527
	c-0.746,0.88-1.979,1.38-1.676,2.919c0.269-0.28,0.558-0.544,0.799-0.846c0.242-0.304,0.437-0.644,0.651-0.968
	c0.126,0.041,0.253,0.082,0.379,0.125C93.562,112.979,93.768,115.797,93.98,118.725z"/>
<path fill-rule="evenodd" clip-rule="evenodd" fill="#d5ee20" class="fill" d="M109.953,122.799c-0.615,0.045-1.315,0.096-2.291,0.167
	c-1.682,0.986-3.85,0.805-6.009,0.964c-0.141-0.404-0.258-0.743-0.37-1.071c-0.817-0.048-0.958,0.457-0.997,1.129
	c-1.021-0.022-1.988-0.045-3.068-0.071c-0.083-0.338-0.167-0.682-0.316-1.298c-0.487,0.394-0.853,0.688-1.417,1.145
	c-0.51-0.051-1.278-0.128-2.11-0.211c0.112-0.436,0.202-0.788,0.276-1.077c-0.443-0.547-0.766-0.323-1.311,0.854
	c-3.791-0.426-7.539-1.146-11.274-2.595c0.2-0.261,0.319-0.454,0.478-0.608c0.166-0.166,0.369-0.298,0.568-0.452
	c0.479,0.234,0.915,0.448,1.41,0.691c0.096,0.276,0.199,0.577,0.38,1.099c1.159-0.708,1.581-1.993,2.481-2.557
	c1.085-0.235,2.057-0.445,3.128-0.679c0.21,0.687,0.466,1.515,0.716,2.329c0.875,0.394,1.677,0.754,2.547,0.047
	c0.414,0.425,0.781,0.803,1.134,1.163c1.113,0.501,2.001-0.225,2.851-0.463c0.868,0.485,1.633,1.218,2.448,1.278
	c0.755,0.055,1.562-0.607,2.397-0.977c0.729,0.231,1.556,0.493,2.545,0.808c0.079,0.095,0.287,0.342,0.482,0.573
	c1.216-0.227,0.341-0.896,0.38-1.521c0.426-0.241,0.936-0.496,1.41-0.805c0.487-0.32,0.938-0.695,1.382-1.03
	c0.113-0.623,0.216-1.192,0.324-1.797c0.309-0.088,0.579-0.167,0.794-0.228c0.626,0.409,1.187,0.774,1.702,1.109
	c0.688-0.184,1.248-0.333,1.652-0.44c0.792,0.377,1.455,0.693,2.116,1.01c0.003-0.028,0.007-0.056,0.01-0.083
	c0.501,0.37,1.003,0.741,1.663,1.228c-1.342,1.03-2.939,1.119-4.323,1.712c-0.362-0.25-0.668-0.462-1.138-0.787
	C110.38,121.852,110.2,122.25,109.953,122.799z M109.832,119.352c-0.654-0.699-1.014-0.821-1.314-0.156
	c-0.029,0.068,0.038,0.179,0.099,0.431C108.936,119.554,109.257,119.48,109.832,119.352z M86.241,121.157
	c0.525,0.599,0.88,0.491,1.134-0.057c0.053-0.115-0.086-0.32-0.182-0.626C86.825,120.739,86.555,120.933,86.241,121.157z
	 M110.504,120.011c0.603,0.433,0.998,0.655,1.193-0.12c0.024-0.101-0.113-0.243-0.253-0.516
	C111.135,119.584,110.873,119.762,110.504,120.011z M90.688,121.979c-0.082-0.131-0.165-0.263-0.248-0.394
	c-0.296,0.179-0.593,0.357-1.085,0.652C90.225,122.686,90.585,122.616,90.688,121.979z M107.716,121.3
	c0.493,0.418,0.864,0.518,1.233-0.229C108.441,120.59,108.084,120.614,107.716,121.3z M112.59,120.937
	c0.601,0.437,0.939,0.337,1.255-0.265C113.355,120.317,112.986,120.223,112.59,120.937z M89.394,119.794
	c-0.091-0.136-0.181-0.271-0.271-0.406c-0.17-0.022-0.348-0.087-0.506-0.056c-0.227,0.045-0.439,0.16-0.658,0.246
	c0.107,0.129,0.215,0.259,0.322,0.388c0.204,0.021,0.414,0.077,0.611,0.049C89.066,119.991,89.227,119.872,89.394,119.794z"/>
<path fill-rule="evenodd" clip-rule="evenodd" fill="#d5ee20" class="fill" d="M97.881,101.243c0.054,3.54,0.107,7.079,0.163,10.642
	c-0.787,0.232-1.398-0.854-2.202,0.074c0.622,0.385,1.214,0.752,1.941,1.202c0.445,1.798-0.008,3.742,0.098,5.755
	c-0.757,0.265-1.474,0.516-2.385,0.835c-0.715-3.735-1.197-7.369-1.203-10.934c0.67-0.812,1.242-1.507,1.814-2.201
	c-0.066-0.075-0.132-0.15-0.199-0.226c-0.498,0.302-0.995,0.603-1.645,0.993c-0.222-2.946-0.38-5.732-0.011-8.676
	c1.099,0.271,2.111,0.522,3.28,0.811c-0.838,1.074-1.62,2.076-2.443,3.131c0.18,0.06,0.466,0.155,0.752,0.249
	c0.107,0.061,0.214,0.12,0.319,0.18c0.373-0.691,0.746-1.384,1.119-2.074C97.48,101.083,97.68,101.164,97.881,101.243z"/>
<path fill-rule="evenodd" clip-rule="evenodd" fill="#d5ee20" class="fill" d="M97.486,81.791c-1.143-0.625-1.979-1.081-2.885-1.576
	c-0.041-1.436-0.082-2.884-0.126-4.393c0.385-0.028,0.698-0.052,1.086-0.08c-0.065-0.814-0.681-1.283-1.062-1.941
	c-0.198-2.717-0.4-5.485-0.601-8.237c0.46-0.648,0.879-1.237,1.42-2c-0.549-0.068-0.979-0.121-1.416-0.176
	c-0.131-1.788-0.261-3.577-0.392-5.372c1.008-0.282,1.928-0.539,3.061-0.854c0.236,4.144,0.128,8.251,0.335,12.545
	c-0.549-0.257-0.95-0.444-1.422-0.665c-0.114,0.249-0.227,0.49-0.386,0.835c0.653,0.43,1.253,0.825,1.978,1.301
	C97.312,74.525,97.843,77.946,97.486,81.791z"/>
<path fill-rule="evenodd" clip-rule="evenodd" fill="#d5ee20" class="fill" d="M95.124,90.521c1.259,0.438,1.665-0.834,2.701-0.808
	c-0.028,2.845-0.057,5.69-0.084,8.522c-1.468,0.265-2.143,0.115-3.565-0.788c0.044-3.892,0.088-7.832,0.135-12.049
	c1.379,0.646,2.424,1.442,3.678,2.246C97.005,88.632,96.132,89.509,95.124,90.521z"/>
<path fill-rule="evenodd" clip-rule="evenodd" fill="#d5ee20" class="fill" d="M88.857,97.053c-0.188,0.729-0.379,1.47-0.563,2.186
	c-3.136,0.359-13.139-7.186-15.151-11.02c0.219-0.177,0.515-0.42,0.812-0.663c0.259-0.211,0.518-0.424,0.774-0.632
	C80.76,93.833,79.006,93.158,88.857,97.053z"/>
<path fill-rule="evenodd" clip-rule="evenodd" fill="#d5ee20" class="fill" d="M90.12,89.749c-0.054,0.899-0.098,1.657-0.147,2.505
	c-3.171-0.723-5.667-2.322-7.984-4.537c0.184-1.119,0.375-2.286,0.567-3.453c0.108-0.044,0.217-0.089,0.324-0.132
	C84.697,86.699,86.91,88.75,90.12,89.749z"/>
<path fill-rule="evenodd" clip-rule="evenodd" fill="#d5ee20" class="fill" d="M80.595,91.687c0.344-0.474,0.622-0.857,0.895-1.231
	c0.461,0.388,0.872,0.733,1.54,1.297c-0.053-0.737-0.078-1.079-0.103-1.43c2.214,1.104,4.416,2.2,6.79,3.383
	c-0.113,0.556-0.256,1.24-0.41,1.984C85.877,95.383,83.072,94.091,80.595,91.687z"/>
<path fill-rule="evenodd" clip-rule="evenodd" fill="#d5ee20" class="fill" d="M75.816,86.483c0.765-0.094,1.177-0.145,1.74-0.214
	c-0.903-1.131-2.85-0.854-2.983-2.643c0.828-1.143,1.967-0.208,3.009-0.497c0.909,1.547,1.791,3.045,2.685,4.569
	c-0.3,0.462-0.597,0.921-0.892,1.38c0.792,0.554,0.986-0.394,1.502-0.374c0.641,0.925,0.456,1.332-1.07,2.229
	C78.197,89.842,77.215,88.174,75.816,86.483z"/>
<path fill-rule="evenodd" clip-rule="evenodd" fill="#d5ee20" class="fill" d="M109.868,97.805c-0.963,0.192-1.656,0.332-2.443,0.489
	c-0.243-1.191,0.103-2.138,0.321-2.944c2.144-0.729,4.156-1.413,6.132-2.085c0.969,0.633,1.959,1.279,3.145,2.053
	c-1.729,0.729-3.317,1.399-5.032,2.122c-0.003-0.984-0.006-1.756-0.01-2.696c-1.098,0.504-0.634,1.583-1.366,2.166
	c-0.461-0.295-0.974-0.623-1.573-1.007c-0.174,0.104-0.398,0.237-0.764,0.457C108.793,96.828,109.207,97.205,109.868,97.805z"/>
<path fill-rule="evenodd" clip-rule="evenodd" fill="#d5ee20" class="fill" d="M68.995,80.635c1.045-0.228,1.793-0.39,2.665-0.579
	c0.872,1.865,1.71,3.66,2.635,5.639c-0.481,0.593-0.987,1.217-1.605,1.979C70.766,85.642,69.963,83.224,68.995,80.635z"/>
<path fill-rule="evenodd" clip-rule="evenodd" fill="#d5ee20" class="fill" d="M92.48,80.889c-0.736,0.235-1.362,0.437-2.176,0.696
	c-0.145-2.49-0.191-4.792,0.14-7.236c0.882-0.119,1.72-0.232,2.494-0.336c0.501,0.969,0.696,4.448,0.342,5.888
	c-0.496-0.399-0.919-0.741-1.338-1.076C91.487,79.481,91.487,79.481,92.48,80.889z"/>
<path fill-rule="evenodd" clip-rule="evenodd" fill="#d5ee20" class="fill" d="M94.385,84.661c0.051-0.971,0.103-1.976,0.156-3.01
	c1.058,0.283,1.988,0.531,3.091,0.826c0.026,1.041,0.055,2.177,0.091,3.574c-0.714-0.292-1.188-0.484-1.66-0.682
	C95.574,85.167,95.089,84.958,94.385,84.661z"/>
<path fill-rule="evenodd" clip-rule="evenodd" fill="#d5ee20" class="fill" d="M89.88,88.226c-1.631-0.417-2.79-1.175-4.081-2.583
	c0.163-0.531,0.344-1.123,0.579-1.883c0.999,0.817,1.88,1.536,2.946,2.406C89.45,86.634,89.637,87.324,89.88,88.226z"/>
<path fill-rule="evenodd" clip-rule="evenodd" fill="#d5ee20" class="fill" d="M108.055,93.913c0.274-1.901,1.44-2.763,3.16-3.395
	c0.141,0.805,0.271,1.542,0.41,2.343C110.536,93.527,109.463,93.971,108.055,93.913z"/>
</svg>
