<svg version="1.1" id="svg" xmlns="http://www.w3.org/2000/svg" xmlns:xlink="http://www.w3.org/1999/xlink" x="0px" y="0px"
	 width="200px" height="200px" viewBox="0 0 200 200" enable-background="new 0 0 200 200" xml:space="preserve">
<path class="stroke" fill="#183046"  d="M168.464,110.526c-0.862-2.927-2.07-5.682-3.883-8.157c-1.181-1.612-2.321-3.252-3.674-5.154
	c0-2.214-0.036-4.701,0.01-7.188c0.055-2.904-0.871-5.552-1.941-8.189c-0.83-2.052-1.948-3.92-3.186-5.74
	c-1.29-1.895-2.463-3.869-3.75-5.768c-1.625-2.399-3.79-3.985-6.726-4.521c-2.057-0.377-4.071-0.984-6.1-1.507
	c-2.073-0.531-4.141-1.086-6.236-1.639c-1.277-0.778-2.551-1.705-3.95-2.375c-2.103-1.006-4.298-1.814-6.439-2.74
	c-2.325-1.003-4.679-1.964-6.938-3.104c-1.226-0.62-2.597-1.163-3.325-2.326c0.212-2.58,0.412-5.006,0.596-7.224
	c-0.801-1.68-2.052-2.347-3.596-2.527c-0.819-0.094-1.651-0.137-2.477-0.127c-3.465,0.04-6.933,0.062-10.396,0.183
	c-2.776,0.096-5.552,0.303-8.323,0.499c-2.479,0.176-4.953,0.388-7.425,0.619c-1.554,0.146-2.797,0.821-3.585,2.432
	c-0.242,4.665-0.492,9.485-0.741,14.247c-1.196,0.583-2.3,1.091-3.376,1.649c-3.336,1.726-6.658,3.478-9.998,5.196
	c-0.427,0.22-0.912,0.408-1.384,0.441c-1.948,0.136-3.901,0.289-5.853,0.279c-2.438-0.013-4.754,0.384-6.939,1.479
	C48,69.68,47.17,70.094,46.338,70.502c-2.772,1.357-5.079,3.234-6.675,5.925c-1.119,1.884-2.329,3.717-3.402,5.628
	c-0.926,1.65-1.742,3.364-2.559,5.074c-1.072,2.239-2.082,4.507-3.145,6.75c-0.773,1.632-1.199,3.286-0.685,5.094
	c0.267,0.937,0.364,1.927,0.678,2.847c0.719,2.112,1.085,4.401,2.562,6.176c1.211,1.455,2.485,2.883,3.887,4.153
	c3.498,3.176,7.562,4.97,12.398,4.657c0.362-0.024,0.729,0.041,0.951,0.054c0.26,1.359,0.494,2.551,0.711,3.745
	c0.219,1.201,0.43,2.403,0.629,3.606c0.558,3.367,1.114,6.736,1.662,10.104c0.139,0.857,0.496,1.572,1.198,2.106
	c2.796,2.13,5.58,4.273,8.848,5.959c0.092,0.253,0.231,0.475,0.248,0.707c0.243,2.991,2.124,4.664,4.62,5.924
	c1.978,0.999,4.09,1.213,6.233,1.397c3.388,0.291,6.728,0.002,9.981-0.965c1.398-0.414,2.758-0.557,4.182-0.274
	c2.345,0.464,4.68,1.008,7.045,1.335c3.36,0.465,6.745,0.282,10.041-0.457c1.878-0.42,3.885-0.706,5.485-1.927
	c1.114-0.852,2.108-1.858,3.186-2.822c0.294,0.056,0.624,0.161,0.96,0.178c0.338,0.018,0.678-0.057,1.021-0.081
	c5.901-0.406,11.509-2.023,16.985-4.165c1.043-0.407,2.057-0.89,3.096-1.306c0.772-0.308,1.262-0.81,1.585-1.598
	c1.198-2.935,2.466-5.832,3.183-8.945c0.324-1.419,0.916-2.776,1.415-4.152c0.093-0.255,0.312-0.465,0.476-0.696
	c0.85,0.28,1.613,0.631,2.414,0.781c5,0.931,9.626-0.001,13.746-3.024c2.162-1.587,4.23-3.302,6.322-4.982
	c1.205-0.971,2-2.251,2.645-3.645C168.741,112.632,168.782,111.605,168.464,110.526z M111.39,47.558
	c0,0.807,0.057,1.305-0.009,1.787c-0.427,3.145-0.888,6.283-1.312,9.428c-0.068,0.51-0.011,1.035-0.011,1.617
	c0.356,0.036,0.628,0.064,1.026,0.105c0.681-1.522,1.352-3.018,2.041-4.554c1.786,0.884,3.453,1.767,5.167,2.541
	c2.445,1.103,4.956,2.063,7.382,3.203c2.278,1.068,4.478,2.302,6.728,3.436c-0.389,0.081-0.777,0.153-1.164,0.245
	c-0.135,0.018-0.27,0.04-0.405,0.05c-0.519,0.039-1.037,0.267-1.477,0.392c-0.088,0.02-0.176,0.04-0.263,0.06
	c-0.027,0.004-0.061,0.009-0.09,0.014c0.088-0.221,0.07-0.508-0.135-0.897c-0.793,0.077-1.652,0.262-2.502,0.23
	c-3.049-0.115-6.03,0.315-8.986,0.981c-2.087,0.47-4.27,0.735-6.223,1.545c-3.095,1.283-5.932,3.137-9.067,4.394
	c-1.317,0.529-1.88,1.692-1.652,2.982c-1.43,0.342-2.902,0.398-4.379,0.174c0.428-0.764,0.829-1.496,1.305-2.156
	c0.647-0.899,1.436-1.697,2.174-2.555c-0.164-0.347-0.304-0.64-0.445-0.937c-0.268,0.041-0.469,0.041-0.647,0.104
	c-0.412,0.146-0.822,0.306-1.22,0.488c-2.787,1.277-5.555,1.823-8.322-0.086c-0.441-0.305-0.996-0.417-1.354,0.214
	c1.022,1.456,2.082,2.842,3.388,3.876c-0.925,0.027-1.882,0.142-2.696,0.171c-0.293-0.477-0.557-0.931-0.87-1.332
	c-1.398-1.81-2.363-3.812-2.697-6.079c-0.068-0.472,0.096-0.979,0.182-1.703c0.861,0.353,1.485,0.582,2.088,0.857
	c2.295,1.054,4.377,0.392,6.391-0.785c0.07-0.041,0.092-0.165,0.125-0.255c0.018-0.043,0.01-0.096,0.031-0.359
	c-0.273-0.089-0.604-0.31-0.916-0.282c-2.275,0.192-3.924-0.893-5.293-2.436c-0.824-3.14-1.434-6.227-1.355-9.454
	c2.764,0.112,5.465,0.28,8.166,0.318c4.276,0.059,8.48-0.35,12.445-2.167C108.219,49.962,110.018,49.424,111.39,47.558z
	 M82.608,44.926c2.724-0.208,5.451-0.424,8.181-0.467c2.341-0.037,4.686,0.199,7.028,0.228c1.458,0.019,2.917-0.176,4.377-0.188
	c1.9-0.015,3.804,0.01,5.699,0.128c0.508,0.031,0.987,0.469,1.673,0.817c-0.578,0.646-0.934,1.177-1.408,1.553
	c-3.767,2.969-8.073,4.189-12.843,3.998c-3.281-0.132-6.492-0.732-9.703-1.335c-1.605-0.304-2.799-1.352-3.866-2.502
	c-0.325-0.352-0.409-0.928-0.672-1.562C81.682,45.321,82.133,44.962,82.608,44.926z M117.397,133.189
	c-0.537-1.152-0.117-2.376-0.137-3.574c-0.017-1.12,0.102-2.252-0.773-3.394c-0.6,0.102-1.279,0.217-2.045,0.348
	c0.012,2.077,0.036,4.015-1.865,5.766c-1.197,0.351-2.801,0.816-4.6,1.342c0.336,0.432,0.479,0.813,0.726,0.898
	c1.63,0.561,2.173,1.95,2.423,3.391c0.324,1.874,0.269,3.787-0.186,5.64c-2.141,1.737-4.603,2.513-7.189,2.83
	c-2.127,0.26-4.283,0.368-6.426,0.374c-1.988,0.006-3.725-0.925-5.279-1.726c-1.247-1.996-0.898-7.628,0.055-9.954
	c1.619,0.07,3.201,0.203,4.782,0.19c1.604-0.013,3.205-0.171,4.774-0.946c0.075-0.526,0.15-1.03,0.252-1.72
	c-1.055,0-1.967-0.059-2.867,0.012c-1.785,0.139-3.495-0.186-5.188-0.694c-1.392-0.418-2.018-1.624-2.996-2.913
	c0.1-2.535,0.211-5.299,0.326-8.265c-0.383-0.521-1.106-0.597-1.82-0.305c-0.979,0.4-1.455,1.277-1.643,2.268
	c-0.125,0.667-0.076,1.365-0.143,2.045c-0.199,2.04-0.447,4.075-0.621,6.118c-0.152,1.768-0.131,3.522,0.936,4.817
	c-0.225,2.756-0.43,5.279-0.646,7.968c-2.33,1.561-5.06,2.149-7.916,2.26c-0.869,0.034-1.749-0.114-2.621-0.205
	c-2.154-0.226-3.91-1.25-5.248-2.896c-1.651-2.026-3.074-4.19-2.738-7.012c0.021-0.187,0.076-0.371,0.132-0.636
	c4.852,1.59,9.579,1.297,14.09-0.428c0.576-0.926,0.851-1.627,0.104-2.525c-1.198-0.137-2.542-0.42-3.882-0.41
	c-2.566,0.018-5.033-0.543-7.52-1.027c-2.09-0.409-3.689-1.501-4.744-3.722c-0.273-1.784-0.671-3.844-0.887-5.924
	c-0.188-1.815,0.596-2.848,2.379-3.266c1.184-0.277,2.404-0.395,3.614-0.547c1.034-0.128,2.019-0.329,2.687-1.176
	c0.021-0.332,0.022-0.605,0.013-0.855c1.687-0.007,3.409,0.172,5.061,0.389c-0.07,0.085-0.149,0.18-0.244,0.285
	c0.774,0.124,1.336,0.331,1.872,0.277c0.409-0.041,0.816-0.106,1.222-0.178c1.403,0.186,2.757,0.356,4.09,0.496
	c-0.285,0.15-0.586,0.314-0.931,0.483c1.812,1.347,1.812,1.347,5.267,0.946c0.933,0.408,1.878,0.982,3.113,0.48
	c0.087-0.372,0.181-0.78,0.276-1.19c-0.054-0.068-0.112-0.126-0.167-0.19c0.82-0.066,1.632-0.178,2.48-0.391
	c0.395-0.099,0.712-0.285,0.972-0.52c0.224,0.091,0.448,0.168,0.674,0.213c2.469,0.489,5.037,0.485,7.564,0.673
	c0.129,0.01,0.268-0.086,0.414-0.139c0-0.14,0-0.273,0-0.399c3.411-0.031,7.04-0.298,10.298,0.4
	c-0.057,0.113-0.115,0.234-0.176,0.372c0.404,0.155,0.801,0.327,1.207,0.461c2.04,0.669,4.096,1.291,6.118,2.005
	c1.359,0.48,2.711,0.791,4.158,0.572c0.268-0.04,0.557,0.047,1.045,0.097c-0.365,0.764-0.599,1.451-0.988,2.036
	c-1.258,1.897-2.622,3.67-5.185,3.854c-0.626,0.046-1.268,0.24-1.547,1.168c0.29,0.351,0.647,0.785,1.077,1.307h3.271
	C125.048,132.405,120.891,134.551,117.397,133.189z M128.808,135.143c-0.998-0.217-1.864-0.405-2.887-0.626
	c0.872-1.296,1.596-2.372,2.387-3.552c1.068,0.205,2.188,0.418,3.651,0.696C130.777,132.967,129.813,134.032,128.808,135.143z"/>
<path class="stroke" fill="#183046"  d="M126.499,107.898c-1.331-0.214-2.629,0.037-3.812,0.66c-0.977,0.513-1.116,1.146-0.669,2.347
	c1.274,0.814,2.613,1.064,3.974,1.176c1.376,0.111,2.305-0.578,2.473-1.729C128.638,109.162,127.839,108.112,126.499,107.898z"/>
<path fill="#fafd30" class="fill" d="M79.021,116.104c0.369-0.01,0.736,0.011,1.104,0.021c-0.188-0.04-0.384-0.08-0.601-0.115
	c0.364-0.407,0.513-0.658,0.73-0.802c0.408-0.263,0.852-0.471,1.286-0.69c4.197-2.098,6.113-5.655,6.479-10.183
	c0.074-0.918,0-1.85-0.002-2.773c-0.002-0.497,0.004-0.497,0.523-1.156c0.648,0.671,0.811,1.499,0.919,2.347
	c0.445,3.467-0.128,6.809-1.47,9.987c-0.602,1.425-1.532,2.729-3.303,3c-1.1,0.168-2.186,0.438-3.291,0.548
	c-0.042,0.004-0.086-0.002-0.128-0.001c1.201,0.527,2.844,0.771,4.608,0.877c-0.034-0.025-0.064-0.048-0.1-0.074
	c0.77-0.376,1.332-0.746,1.948-0.93c0.88-0.26,1.792-0.443,2.703-0.557c1.616-0.201,2.937,0.374,4.005,1.723
	c-0.045,0.193-0.087,0.372-0.13,0.561c0.479,0.044,0.973,0.029,1.506-0.119c1.328-0.369,2.411-0.995,3.787-1.146
	c-0.402-0.056-0.807-0.104-1.204-0.184c-1.229-0.243-2.43-1.243-3.365-2.178c-1.221-1.218-1.915-2.814-1.945-4.615
	c-0.004-0.24-0.018-0.503-0.109-0.721c-1.158-2.74-0.952-5.667-1.034-8.519c-0.122-4.242-0.015-8.494,0.138-12.737
	c0.047-1.334,0.371-2.73,0.895-3.961c1.104-2.607,3.787-3.296,6.604-1.814c0.381,0.917,0.509,1.895,0.2,2.929
	c-0.234,0.794-0.354,1.626-0.627,2.405c-1.199,3.425-1.85,6.981-2.303,10.553c-0.315,2.498-0.473,5.083-0.188,7.57
	c0.385,3.364,2.065,6.176,5.022,8.043c1.478,0.933,3.004,1.785,4.69,2.781c0,0.183,0,0.425,0,0.682
	c3.347,0.074,6.771,0.359,10.149,0.431c0.527-1.174,0.885-1.364,2.121-1.283c1.508,0.1,3.052,0.425,4.515,0.207
	c2.121-0.316,4.205-1.122,5.865-2.497c2.425-2.009,3.881-4.595,3.541-7.915c-0.019-0.184,0.045-0.377,0.085-0.679
	c0.675-0.181,1.341-0.36,1.977-0.531c-0.055-1.713-1.798-2.806-1.44-4.509c1.199-0.756,2.393-0.179,3.754-0.318
	c-0.146-1.291-0.285-2.549-0.446-3.969c2.408-0.128,3,2.064,4.548,3.128c0.59-2.021,0.341-3.966,0.388-5.987
	c1.748-0.472,2.45,1.168,3.683,1.692c1.395-2.183,0.479-4.713,1.089-6.982c1.87-0.349,2.251,1.674,3.538,2.177
	c0.959-2.684-0.064-5.149-0.676-7.668c2.203-0.838,3.26,1.177,4.976,1.757c-0.006-2.723-0.912-5.055-1.501-7.521
	c0.488-0.171,0.9-0.317,1.448-0.509c-2.517-3.995-5.44-7.245-9.973-8.435c-0.076,0.014-0.154,0.02-0.229,0.038
	c-0.077-0.048-0.157-0.104-0.235-0.155c-0.271-0.061-0.545-0.118-0.827-0.165c-2.883-0.476-5.673-1.479-8.646-1.478
	c-0.548,0-1.127-0.29-1.64-0.547c-0.235-0.118-0.469-0.241-0.703-0.361c-0.904,0.112-1.826,0.271-2.75,0.465
	c0.232,0.65-0.121,0.975-0.596,1.156c-0.855,0.329-1.734,0.74-2.626,0.816c-4.07,0.336-7.961,1.357-11.717,2.912
	c-2.246,0.932-4.494,1.875-6.657,2.982c-1.724,0.882-3.312,2.031-4.978,3.03c-0.418,0.25-0.908,0.38-1.322,0.549
	c-0.462-0.688-0.694-1.396-0.709-2.051C99.895,74.856,99.41,75,98.918,75c-1.104,0-1.844-0.105-2.539-0.273
	c-0.23,0.409-0.46,0.826-0.716,1.264c-2.038-0.072-3.599-0.812-4.912-1.905c-0.959,0.14-1.899,0.239-2.702,0.015
	c0.121,0.197,0.238,0.394,0.372,0.603c-0.391,0.451-0.689,0.796-1.049,1.209c-0.622-0.31-1.133-0.563-1.651-0.822
	c-0.784-2.253-2.741-3.459-4.228-5.325c-0.322,0.845-0.543,1.43-0.764,2.008c-0.425,0.349-0.838,0.688-1.237,1.016
	c-1.833,0.466-3.627,0.168-5.383-0.184c-0.959-0.192-1.912-0.436-2.863-0.684c-0.176,0.232-0.449,0.407-0.848,0.464
	c-1.636,0.233-4.805,1.46-7.987,4.193c-0.628,0.535-1.242,1.09-1.863,1.634c-1.061,0.931-2.213,1.78-3.164,2.812
	c-1.547,1.676-3.129,3.362-3.775,5.656c-0.025,0.087-0.123,0.149-0.171,0.233c-0.905,1.611-1.862,3.196-2.68,4.851
	c-0.255,0.515-0.282,1.241-0.173,1.825c0.711,3.727,2.338,7.123,3.952,10.517c0.434,0.913,0.976,1.774,1.439,2.609
	c3.12-0.479,4.512-0.163,4.377,4.16c1.122,0.891,2.273,1.787,3.814,1.938c2.816,0.275,5.63,0.579,8.45,0.816
	c1.817,0.151,2.192,0.531,2.081,2.472C76.211,116.147,77.674,116.141,79.021,116.104z M122.687,108.559
	c1.184-0.623,2.481-0.874,3.812-0.66c1.34,0.214,2.139,1.264,1.965,2.454c-0.168,1.15-1.097,1.84-2.473,1.729
	c-1.36-0.111-2.699-0.361-3.974-1.176C121.57,109.704,121.71,109.071,122.687,108.559z"/>
</svg>
