<svg version="1.1" id="svg" xmlns="http://www.w3.org/2000/svg" xmlns:xlink="http://www.w3.org/1999/xlink" x="0px" y="0px"
	 width="200px" height="200px" viewBox="0 0 200 200" enable-background="new 0 0 200 200" xml:space="preserve">
<path class="stroke" fill="#55061d"  d="M136.052,105.48c-1.159-2.237-2.721-4.264-4.088-6.394c-0.619-0.965-1.372-1.773-2.395-2.32
	c-0.304-0.163-0.553-0.431-0.879-0.691c0.82-0.778,1.51-1.48,2.252-2.125c2.2-1.915,3.724-4.151,3.938-7.19
	c0.089-1.237,0.56-2.449,0.868-3.669c0.261-1.039,0.687-2.061,0.773-3.113c0.147-1.772,0.157-3.563,0.091-5.342
	c-0.117-3.194-0.118-6.363,0.707-9.489c0.257-0.976,0.296-2.008,0.443-3.068c-1.244-0.854-2.363-1.613-3.472-2.387
	c-1.247-0.871-2.565-1.346-4.101-0.852c-0.207,0.067-0.454,0.009-0.438,0.009c-1.529-1.434-2.893-2.712-4.255-3.994
	c-2.273-2.141-4.986-3.008-8.087-2.975c-2.197,0.023-4.398-0.159-6.595-0.276c-0.747-0.039-1.489-0.239-2.231-0.234
	c-3.282,0.025-6.563,0.11-9.846,0.151c-1.402,0.018-2.807,0.015-4.208-0.041c-4.235-0.168-8.431,0.001-12.534,1.232
	c-1.292,0.388-2.41,1.023-3.423,1.879c-1.003,0.847-2.017,1.686-2.982,2.575c-0.512,0.47-1,0.995-1.382,1.57
	c-0.825,1.241-1.577,2.532-2.412,3.891c-0.655-0.273-1.242-0.55-1.851-0.763c-1.81-0.636-3.633-1.24-5.443-1.872
	c-0.988-0.343-1.967-0.275-2.877,0.166c-1.01,0.488-1.986,1.054-2.937,1.65c-0.82,0.516-1.136,1.347-1.123,2.294
	c0.006,0.517,0.004,1.044,0.111,1.543c0.542,2.557,1.073,5.118,1.699,7.655c0.571,2.313,1.281,4.593,1.892,6.897
	c0.503,1.898,0.928,3.818,1.428,5.717c0.636,2.418,1.661,4.583,3.97,5.887c0.399,0.227,0.756,0.528,1.056,0.74
	c-1.044,2.224-2.037,4.388-3.077,6.53c-0.552,1.137-1.177,2.24-1.792,3.345c-0.796,1.428-1.7,2.801-2.405,4.272
	c-1.788,3.729-2.326,7.667-1.682,11.756c0.139,0.879,0.283,1.763,0.506,2.623c0.552,2.12,0.78,4.399,2.304,6.118
	c1.144,1.292,2.435,2.46,3.726,3.61c2.461,2.194,4.753,4.51,6.405,7.414c1.412,2.479,2.951,4.889,4.425,7.335
	c0.54,0.895,0.892,1.837,0.897,2.918c0.002,0.743,0.109,1.505,0.305,2.221c0.526,1.936,1.758,3.355,3.646,3.967
	c2.804,0.909,5.007-0.421,6.967-2.273c0.257-0.242,0.412-0.629,0.523-0.979c0.44-1.391,0.428-2.758-0.258-4.095
	c-0.574-1.124-1.045-2.297-1.999-3.189c-0.258-0.241-0.428-0.616-0.545-0.96c-0.794-2.352-1.612-4.695-2.317-7.073
	c-0.364-1.233-0.511-2.531-0.758-3.8c0.097-0.06,0.191-0.12,0.287-0.18c0.746,0.603,1.509,1.186,2.234,1.812
	c1.706,1.475,3.448,2.905,5.527,3.817c0.709,0.311,1.566,0.63,2.282,0.51c1.657-0.277,3.269-0.194,4.895,0.069
	c3.094,0.5,5.849-0.311,8.32-2.164c1.389-1.04,2.742-2.125,4.104-3.197c0.65-0.513,1.286-1.046,1.962-1.597
	c0.187,1.47,0.358,3.074,0.117,4.694c-0.304,2.037-0.548,4.091-1.003,6.095c-0.306,1.353-0.876,2.657-1.428,3.94
	c-0.752,1.749-2.069,3.103-3.291,4.53c-0.422,0.493-0.777,1.24-0.768,1.865c0.024,1.575,1.544,2.951,3.141,3.02
	c0.795,0.035,1.6,0.037,2.389-0.049c0.495-0.054,1.085-0.169,1.431-0.48c1.498-1.341,3.17-2.545,4.141-4.364
	c0.638-1.195,1.194-2.449,1.641-3.726c0.86-2.454,2.399-4.475,4.115-6.323c3.571-3.848,7.331-7.515,10.497-11.737
	c2.353-3.136,4.586-6.302,5.497-10.188c0.265-1.131,0.536-2.314,0.483-3.458C138.998,111.684,137.624,108.512,136.052,105.48z"/>
<path fill-rule="evenodd" clip-rule="evenodd" fill="#f5c4bc" class="fill" d="M104.077,129.629c-0.814,0.521-1.629,1.041-2.312,1.479
	c-1.093-0.167-2-0.306-2.919-0.446c-0.199,0.38-0.345,0.658-0.516,0.985c-0.455-0.021-0.916-0.042-1.431-0.066
	c-0.258,0.311-0.52,0.626-0.833,1c-0.379-0.05-0.783-0.104-1.317-0.175c1.121-0.885,2.135-1.683,3.311-2.611
	c-0.993,0-1.714,0-2.695,0c-0.088,0.249-0.233,0.661-0.396,1.125c-0.625,0.173-1.419,0.393-2.378,0.658
	c-0.281-0.177-0.698-0.439-1.192-0.751c0.71-0.428,1.301-0.784,1.892-1.141c-0.037-0.087-0.072-0.174-0.106-0.261
	c-1.229,0-2.459,0-3.673,0c-0.47-0.451-0.873-0.838-1.332-1.278c0.312-0.398,0.557-0.712,0.904-1.155
	c-0.672-0.078-1.244-0.143-1.796-0.208c-0.411-0.394-0.812-0.776-1.229-1.178c0.72-0.345,1.398-0.668,2.077-0.994
	c-0.847-0.339-1.92,0.204-2.102-1.04c-0.719-0.07-1.273-0.125-1.887-0.185c-0.229-1.487,1.826-0.848,1.819-2.077
	c-0.497,0.046-0.994,0.093-1.696,0.158c0.044-0.647,0.083-1.217,0.119-1.76c0.682-0.291,1.261-0.539,1.886-0.806
	c-0.481-0.789-1.146-0.243-1.809-0.599c-0.073-0.581-0.162-1.287-0.267-2.125c1.086,0.215,2.005,0.28,2.664-0.706
	c-0.949-0.196-1.83-0.378-2.777-0.575c-0.042-0.35-0.086-0.707-0.121-0.993c0.487-0.459,0.902-0.853,1.318-1.246
	c-0.046-0.071-0.092-0.142-0.139-0.211c-0.393,0.095-0.786,0.192-1.283,0.312c-0.151-0.294-0.31-0.602-0.49-0.948
	c0.478-0.449,0.905-0.851,1.334-1.253c-0.034-0.081-0.069-0.162-0.104-0.241c-0.445,0.12-0.892,0.241-1.416,0.382
	c-0.12-0.267-0.245-0.543-0.416-0.921c1.004-0.268,2.025-0.381,2.5-1.37c-0.935,0.092-1.878,0.184-2.859,0.281
	c-0.216-0.54-0.366-0.917-0.528-1.321c0.497-0.417,0.935-0.782,1.372-1.148c-0.041-0.07-0.081-0.141-0.122-0.213
	c-0.533,0.102-1.066,0.203-1.658,0.315c-0.158-0.237-0.306-0.458-0.479-0.72c0.245-0.351,0.475-0.682,0.815-1.17
	c-0.53,0.083-0.874,0.137-1.326,0.207c-0.81-1.526-1.629-3.07-2.418-4.559c-0.706,0-1.263,0-1.923,0
	c-0.397,0.776-0.795,1.552-1.279,2.493c0.59,0.291,1.102,0.544,1.717,0.848c0.123,0.341,0.278,0.773,0.484,1.351
	c-0.475,0.121-0.87,0.201-1.251,0.328c-0.313,0.104-0.606,0.265-1.122,0.496c1.066,0.708,1.728,0.044,2.58-0.132
	c1.342,1.819,1.623,4.076,2.555,6.429c-0.837-0.094-1.352-0.152-1.966-0.22c-0.151,0.195-0.338,0.435-0.561,0.721
	c0.823,0.731,1.642,0.324,2.543,0.11c0.814,1.62,0.417,3.277,0.566,5.113c-0.661-0.251-1.078-0.409-1.575-0.599
	c-0.204,0.152-0.453,0.338-0.854,0.637c0.421,0.35,0.755,0.627,1.066,0.885c0.452-0.086,0.812-0.155,1.325-0.254
	c0,0.573,0,1.084,0,1.544c-0.761,0.507-1.887-0.3-2.499,1.001c0.937,0.049,1.703,0.09,2.603,0.138
	c0.052,0.558,0.103,1.146,0.147,1.633c-0.69,0.862-1.944-0.219-2.405,0.933c0.954,0.689,0.954,0.689,2.357,0.112
	c0.038,0.365,0.074,0.695,0.107,1.03c-0.459,0.202-0.84,0.371-0.953,0.42c-0.582,0.737-0.988,1.254-1.43,1.812
	c0.584,0.868,1.458,0.478,2.235,0.351c0.299,1.175-0.797,1.478-1.124,2.17c0.18,0.467,0.348,0.909,0.51,1.332
	c-0.466,0.364-0.825,0.645-1.344,1.051c0.516,0.268,0.9,0.468,1.149,0.597c0.522,2.387,1.026,4.685,1.549,7.08
	c-0.544,0.029-1.046,0.055-1.824,0.095c-0.071,0.082-0.278,0.317-0.405,0.465c0.08,0.827,1.19,0.831,2.015,0.189
	c0.141-0.108,0.266-0.236,0.534-0.475c-0.039,0.436-0.087,0.694-0.079,0.951c0.007,0.223,0.079,0.444,0.128,0.702
	c-0.366,0.221-0.712,0.431-1.222,0.739c0.484,0.331,0.844,0.576,1.284,0.876c-0.894,0.436-1.745,0.852-2.772,1.351
	c-0.194-0.361-0.442-0.821-0.688-1.275c0.228-0.436,0.415-0.796,0.688-1.319c-0.483,0.043-0.813,0.075-1.236,0.114
	c-0.217-0.418-0.452-0.868-0.688-1.322c0.22-0.527,0.428-1.022,0.744-1.775c-0.584,0.274-0.92,0.432-1.313,0.616
	c-0.337-0.633-0.665-1.248-1.017-1.91c0.272-0.458,0.53-0.893,0.67-1.127c0.786-0.508,1.387-0.896,1.988-1.285
	c-0.048-0.129-0.096-0.257-0.143-0.387c-0.504,0.083-1.009,0.167-1.445,0.237c-0.486,0.578-0.903,1.073-1.438,1.709
	c-0.344-0.432-0.615-0.772-0.884-1.11c0.353-0.62,0.66-1.16,0.969-1.702c-0.083-0.072-0.167-0.145-0.25-0.217
	c-0.402,0.314-0.802,0.629-1.287,1.01c-0.277-0.307-0.545-0.604-0.818-0.906c0.141-0.51,0.263-0.95,0.446-1.616
	c-0.482,0.239-0.812,0.402-1.375,0.682c-0.247-0.264-0.553-0.592-0.825-0.88c0.122-0.67,0.211-1.162,0.348-1.922
	c-0.504,0.323-0.813,0.521-1.219,0.781c-0.279-0.308-0.583-0.642-0.896-0.985c0.187-0.61,0.355-1.16,0.523-1.711
	c-0.113-0.083-0.226-0.166-0.338-0.248c-0.234,0.388-0.467,0.775-0.78,1.295c-0.424-0.487-0.715-0.821-1.002-1.15
	c0.32-0.627,0.601-1.176,0.881-1.725c-0.1-0.077-0.202-0.154-0.303-0.23c-0.354,0.358-0.707,0.717-1.181,1.198
	c-0.346-0.335-0.692-0.672-1.077-1.046c0.188-0.523,0.357-0.989,0.604-1.673c-0.489,0.207-0.825,0.35-1.241,0.524
	c-0.248-0.36-0.506-0.735-0.803-1.165c0.213-0.397,0.422-0.783,0.629-1.169c-0.042-0.065-0.085-0.131-0.128-0.196
	c-0.383,0.17-0.766,0.342-1.231,0.548c-0.146-0.179-0.307-0.374-0.429-0.522c0.164-0.675,0.889-1.056,0.677-1.997
	c-0.542,0.422-0.927,0.723-1.379,1.076c-0.883-1.171,0.72-1.714,0.687-2.862c-0.607,0.403-1.078,0.714-1.618,1.072
	c-0.526-0.818,0.27-1.481,0.325-2.349c-0.435,0.18-0.747,0.311-1.052,0.437c-0.562-0.689-0.376-1.327-0.086-1.665
	c-0.202-0.751-0.511-1.278-0.438-1.746c0.236-1.513,0.613-3.005,0.931-4.481c1.236-0.346,2.463-0.409,3.126-1.834
	c-0.898,0.286-1.63,1.156-2.429,0.128c1.49-5.043,4.763-9.17,7.12-13.65c2.139-1.438,3.752-0.227,5.363,0.821
	c0.713,0.462,0.676,0.519,1.568,0.452c0.396-1.629-1.051-2.965-0.876-4.153c-0.443-1.238-0.766-2.134-1.084-3.021
	c0.507-0.272,0.904-0.486,1.562-0.84c-0.727-0.264-1.216-0.444-1.854-0.676c0.087-0.535,0.179-1.109,0.278-1.725
	c0.75,0.03,1.535,0.428,1.891-0.513c-0.537-0.239-1.075-0.478-1.694-0.755c0.085-0.515,0.159-0.958,0.226-1.357
	c0.708-0.161,1.305-0.296,1.901-0.433c0-0.093,0-0.188,0-0.281c-0.302-0.168-0.605-0.336-1.117-0.621
	c0.601-0.235,1.009-0.396,1.179-0.463c3.534,0.913,6.814,1.82,10.129,2.57c0.865,0.196,1.872,0.022,2.755-0.204
	c0.947-0.241,1.272-1.027,0.804-1.871c-0.374-0.671-0.883-1.412-1.527-1.765c-2.27-1.242-3.722-3.255-5.262-5.199
	c-0.986-1.247-1.954-2.511-2.908-3.783c-0.391-0.52-0.715-1.089-1.091-1.621c-1.667-2.366-3.964-4.084-6.157-5.997
	c0.008-0.071,0.006-0.208,0.044-0.333c0.027-0.082,0.109-0.146,0.191-0.249c0.529-0.245,1.304,0.534,1.788-0.467
	c-0.283-0.27-0.598-0.569-0.975-0.929c0.07-0.17,0.15-0.369,0.226-0.556c0.583,0.079,1.106,0.149,2,0.271
	c-0.441-0.791-0.714-1.279-1.042-1.865c0.245-0.272,0.513-0.569,0.76-0.845c0.704,0.084,1.229,0.86,1.907,0.233
	c0.409-0.619-0.948-1.039-0.152-1.78c0.589,0.066,1.111,0.969,1.977,0.208c-0.178-0.394-0.38-0.839-0.623-1.372
	c0.141-0.169,0.309-0.37,0.484-0.579c0.664,0.033,1.141,1.077,1.953,0.239c-0.039-0.333-0.086-0.73-0.136-1.141
	c1.058-0.907,1.517,1.339,2.635,0.389c-0.025-0.343-0.053-0.764-0.108-1.543c0.585,0.671,0.944,1.083,1.511,1.735
	c0-0.712,0-1.126,0-1.664c0.305-0.062,0.634-0.129,0.972-0.196c0.274,0.512,0.499,0.935,0.725,1.357
	c0.091-0.013,0.183-0.025,0.274-0.037c0.062-0.418,0.122-0.836,0.194-1.333c0.181-0.051,0.393-0.111,0.677-0.191
	c0.201,0.316,0.389,0.616,0.669,1.056c0.306-0.419,0.558-0.759,0.927-1.261c0.423,0.222,0.871,0.457,1.446,0.76
	c0.32-0.222,0.564-1.145,1.487-0.474c0.023,0.085,0.082,0.298,0.192,0.701c-3.607,0.476-7.013,1.345-9.719,3.725
	c-0.168,0.893-0.313,1.665-0.498,2.643c0.395-0.02,0.724-0.013,1.043-0.061c0.293-0.043,0.578-0.146,1.056-0.273
	c-0.122,0.633-0.207,1.066-0.313,1.615c0.279,0.135,0.586,0.283,0.944,0.455c0.349-0.483,0.642-0.889,0.988-1.37
	c0.21,0.075,0.412,0.148,0.692,0.248c-0.149,0.527-0.285,1.006-0.457,1.62c0.312,0.126,0.618,0.251,0.969,0.395
	c0.357-0.497,0.649-0.905,0.999-1.392c0.242,0.112,0.472,0.219,0.739,0.344c-0.082,0.553-0.154,1.054-0.25,1.722
	c0.341,0.141,0.678,0.278,1.049,0.431c0.3-0.543,0.516-0.939,0.77-1.402c0.293,0.118,0.539,0.216,0.84,0.337
	c-0.056,0.713-0.111,1.401-0.18,2.26c0.386,0.088,0.748,0.169,1.165,0.266c0.202-0.605,0.36-1.073,0.545-1.629
	c1.578,0.533,0.401,2.01,1.217,2.871c0.191,0,0.529,0,0.928,0c0.104-0.693,0.198-1.33,0.304-2.049c0.761,0,1.488,0,2.292,0
	c0.198,0.554,0.397,1.116,0.623,1.753c0.363,0,0.705,0,1.183,0c-0.035-0.676-0.064-1.26-0.099-1.943
	c0.552-0.163,1.078-0.316,1.59-0.467c0.633,0.59,0.588,1.916,2.074,1.515c-0.136-0.628-0.267-1.241-0.429-1.99
	c0.319-0.154,0.667-0.321,0.964-0.462c0.76,0.391,0.661,1.859,2.062,1.224c-0.175-0.648-0.348-1.291-0.557-2.06
	c0.459-0.117,0.843-0.215,1.176-0.301c0.707,0.407,1.098,1.446,2.174,0.725c-0.144-0.351-0.293-0.713-0.48-1.167
	c0.245-0.147,0.499-0.298,0.666-0.399c0.794,0.113,1.097,1.335,2.126,0.579c-0.175-0.447-0.352-0.899-0.519-1.329
	c0.646-1.114,1.551-0.09,2.36-0.324c0.111-0.319,0.226-0.651,0.387-1.12c0.396,0.017,0.792,0.04,1.189,0.051
	c0.331,0.009,0.667,0.001,1.117,0.001c-0.423-0.844-0.739-1.5-1.079-2.142c-0.412-0.776-1.114-1.085-1.949-1.204
	c-1.899-0.27-3.793-0.56-5.789-0.856c0.176-0.6,0.325-1.103,0.502-1.706c0.315,0,0.658,0,1.076,0c0,0.459,0,0.861,0,1.272
	c0.973,0.166,0.581-0.873,1.219-1.127c0.221,0.029,0.577,0.077,0.939,0.126c0.053,0.376,0.097,0.687,0.183,1.285
	c0.416-0.504,0.686-0.828,1.011-1.222c0.308,0.035,0.663,0.075,1.069,0.12c0,0.508,0,0.939,0,1.404
	c0.875-0.089,0.673-0.867,1.083-1.383c0.294,0,0.681,0,1.162,0c-0.075,0.468-0.138,0.861-0.215,1.345
	c0.204-0.031,0.375-0.008,0.421-0.073c0.213-0.3,0.358-0.651,0.593-0.928c0.148-0.174,0.416-0.244,0.799-0.199
	c-0.196,0.379-0.393,0.758-0.591,1.135c0.953,0.686,1.029,0.649,2.249-1.108c0.261,0,0.565,0,0.998,0
	c-0.139,0.526-0.249,0.946-0.381,1.445c0.383,0.068,0.689,0.123,1.02,0.182c0.307-0.329,0.587-0.629,0.945-1.016
	c0.372,0.124,0.747,0.248,1.241,0.41c-0.49,0.62-0.884,1.118-1.28,1.617c0.841,0.618,0.841,0.618,2.341-0.646
	c0.222,0.167,0.458,0.345,0.703,0.528c-0.517,0.573-0.976,1.083-1.471,1.632c1.233,0.999,1.679-0.479,2.595-0.605
	c0.186,0.157,0.421,0.358,0.752,0.641c-0.486,0.441-0.915,0.828-1.412,1.279c0.92,0.879,1.551,0.126,2.379-0.395
	c0.264,0.229,0.524,0.458,0.737,0.644c-0.222,0.342-0.255,0.459-0.325,0.491c-2.295,1.038-3.983,2.813-5.403,4.784
	c-1.337,1.855-2.367,3.931-3.588,5.875c-0.895,1.424-1.877,2.792-2.82,4.183c-0.288,0.426-0.621,0.829-0.859,1.281
	c-1.295,2.466-3.126,4.291-5.833,5.193c-1.169,0.391-2.214,1.047-2.656,2.5c0.153,0.358,0.352,0.821,0.551,1.287
	c1.727,0.683,3.408,1.146,5.231,0.603c0.532-0.158,1.104-0.26,1.655-0.251c1.731,0.029,3.301-0.504,4.905-1.08
	c1.519-0.543,3.152-0.715,4.953-0.784c0.325,0.852,0.632,1.655,0.922,2.414c-0.446,0.388-0.78,0.677-1.277,1.108
	c0.608,0.181,1.012,0.301,1.551,0.461c-0.163,0.698-0.319,1.362-0.497,2.121c-0.48-0.023-0.878-0.042-1.367-0.066
	c-0.113,0.161-0.264,0.378-0.508,0.725c0.514,0.253,0.944,0.465,1.426,0.705c-0.175,0.607-0.353,1.221-0.503,1.737
	c-0.794,0.371-1.767-0.411-2.324,0.865c0.671,0.144,1.26,0.27,1.962,0.421c-0.272,0.977-0.543,1.95-0.799,2.866
	c-0.871,0.571-1.329-0.322-1.969-0.431c-0.494,0.741-0.272,1.185,0.625,1.575c1.538,0.669,3.139,0.737,4.767,0.611
	c0.978-0.076,1.846,0.101,2.623,0.913c-0.334,0.414-1.29-0.087-1.21,0.903c0.701,0.483,1.318,0.141,1.884-0.492
	c1.625,1.845,3.095,3.593,4.151,5.654c0.726,1.414,1.416,2.853,2.216,4.225c0.997,1.71,0.942,3.463,0.505,5.338
	c0.09,0.513,0.193,1.098,0.336,1.912c-0.382,0.186-0.802,0.393-1.225,0.599c0.012,0.146,0.026,0.292,0.041,0.438
	c0.294,0.134,0.589,0.268,0.857,0.391c-0.083,0.488-0.145,0.85-0.193,1.134c-0.557,0.215-1.03,0.396-1.725,0.665
	c0.566,0.403,0.887,0.63,1.269,0.901c-0.149,0.377-0.3,0.756-0.441,1.107c-0.533,0.341-1.485-0.387-1.605,0.816
	c0.207,0.141,0.46,0.312,0.78,0.528c-0.227,0.442-0.458,0.89-0.718,1.394c-0.388-0.042-0.744-0.079-1.158-0.123
	c-0.142,0.206-0.292,0.422-0.465,0.674c0.279,0.25,0.505,0.453,0.757,0.68c-0.286,0.441-0.538,0.829-0.851,1.312
	c-0.332-0.127-0.656-0.253-1.045-0.405c-0.191,0.219-0.398,0.454-0.653,0.746c0.252,0.269,0.466,0.496,0.748,0.795
	c-0.204,0.314-0.419,0.648-0.668,1.03c-0.403-0.134-0.742-0.247-1.143-0.381c-0.176,0.213-0.345,0.418-0.693,0.84
	c0.366,0.168,0.708,0.324,1.187,0.543c-0.438,0.49-0.678,0.757-0.93,1.039c-0.544-0.311-0.893-0.509-1.287-0.732
	c-0.21,0.264-0.376,0.474-0.572,0.72c0.2,0.289,0.381,0.546,0.607,0.868c-0.258,0.238-0.519,0.477-0.784,0.723
	c-0.402-0.259-0.737-0.475-1.044-0.675c-0.971,0.553-0.186,1.051-0.021,1.581c-0.278,0.256-0.548,0.505-0.849,0.783
	c-0.359-0.15-0.688-0.288-1.059-0.443c-0.173,0.196-0.32,0.363-0.514,0.584c0.234,0.314,0.439,0.59,0.714,0.957
	c-0.326,0.309-0.626,0.594-0.97,0.921c-0.367-0.188-0.686-0.35-1.083-0.553c-0.169,0.151-0.36,0.324-0.615,0.551
	c0.31,0.414,0.576,0.771,0.894,1.192c-3.049,2.428-5.833,5.024-7.298,8.799c-0.319-0.078-0.623-0.15-0.925-0.226
	c-0.264-0.066-0.525-0.138-0.868-0.228c0.127-0.41,0.236-0.751,0.312-0.996c0.625-0.239,1.138-0.434,1.914-0.73
	c-0.668-0.402-1.039-0.625-1.66-1c0.65-0.334,1.118-0.574,1.648-0.846c-0.3-0.451-0.553-0.828-0.854-1.275
	c0.06-0.401,0.126-0.855,0.194-1.322c0.488-0.195,0.911-0.365,1.508-0.604c-0.423-0.309-0.728-0.531-1.141-0.831
	c0.098-0.619,0.205-1.292,0.32-2.012c0.563,0.034,1.021,0.062,1.424,0.086c1.38,0.983,1.675,1.011,2.872,0.219
	c-0.365-0.199-0.676-0.355-0.975-0.534c-0.281-0.166-0.549-0.355-0.755-0.49c-0.67-0.08-1.264-0.151-1.841-0.222
	c-0.305-0.833-0.291-1.546,0.045-2.25c-0.763-0.663,0.238-1.408-0.159-2.083c0.378-0.264,0.71-0.496,1.145-0.8
	c-0.43-0.214-0.745-0.371-1.113-0.553c-0.116-1.423-0.236-2.858-0.362-4.393c0.238-0.173,0.526-0.382,0.881-0.639
	c-0.474-0.578-1.297-0.918-1.068-2.056c0.35-0.327,0.853-0.794,1.445-1.347c-0.425-0.191-0.81-0.363-1.589-0.712
	c0.556-0.289,0.913-0.474,1.385-0.718c-0.323-0.292-0.479-0.435-0.651-0.592c0.144-0.216,0.291-0.435,0.53-0.793
	c-0.269-0.09-0.544-0.183-0.545-0.184c-0.255-1.268,0.295-1.897,1.031-2.528c-0.19-0.199-0.355-0.372-0.635-0.667
	c0.223-0.335,0.463-0.7,0.717-1.083c0.491,0.18,0.88,0.323,1.427,0.524c0.418-0.188,0.934-0.42,1.447-0.651
	c-0.022-0.089-0.045-0.178-0.068-0.268c-0.385-0.055-0.769-0.11-1.06-0.152c-0.531-0.508-0.986-0.942-1.472-1.409
	c0.198-1.399,1.74-1.472,2.631-2.458c-0.533-0.174-0.946-0.311-1.549-0.51c0.393-0.449,0.734-0.84,1.192-1.366
	c-0.035-0.12-0.118-0.406-0.201-0.693c0.461-1.224,0.854-2.495,2.182-3.095c-0.513-0.759-0.604-1.76-1.783-1.965
	c-2.461,2.257-3.081,5.612-4.616,8.506c-0.396,0.425-1.385-0.118-1.559,0.945c0.3,0.126,0.613,0.259,0.976,0.411
	c-0.083,0.245-0.155,0.458-0.211,0.627c-0.526,0.479-1.591-0.104-1.704,1.085c0.304,0.091,0.628,0.189,1.103,0.33
	c-0.223,0.585-0.434,1.133-0.616,1.613c-0.601,0.285-1.108,0.524-1.889,0.894c0.622,0.229,0.916,0.336,1.326,0.486
	c-0.08,0.363-0.162,0.741-0.267,1.223c-0.645-0.107-1.181-0.196-1.812-0.301c-0.104,0.204-0.218,0.425-0.405,0.791
	c0.677,0.25,1.258,0.465,1.861,0.688c-0.248,0.923-1.704-0.128-1.619,1.234c0.277,0.144,0.631,0.325,1.054,0.543
	c-0.095,0.231-0.194,0.47-0.332,0.803c-0.637-0.153-1.216-0.294-2.043-0.496c-0.048,0.048-0.202,0.199-0.33,0.324
	c0.463,1.11,1.483,0.804,2.15,1.307c-0.701,0.722-1.501,0.069-2.416,0.236c-0.134,0.178-0.36,0.478-0.638,0.849
	c0.877,0.293,1.755-0.153,2.515,0.66c-1.499,0.307-3.068-0.34-4.52,1.03c0.949,0.221,1.593,0.373,2.403,0.562
	c-0.426,0.369-0.794,0.688-1.172,1.016c-0.866,0-1.709,0-2.604,0c-0.168,0.271-0.329,0.533-0.575,0.929
	c0.662,0.074,1.179,0.131,2.015,0.227c-0.652,0.482-1.084,0.8-1.518,1.119c-0.024-0.257-0.048-0.516-0.062-0.672
	c-0.694-0.183-1.391-0.216-1.906-0.538c-0.753-0.472-1.547-0.395-2.334-0.465c-0.576-0.051-0.93,0.257-1.011,1.087
	c0.618-0.146,1.113-0.265,1.614-0.384c0.753,0.979,1.694,1.379,2.927,0.946C103.504,129.563,103.803,129.632,104.077,129.629z
	 M90.768,68.793c-0.581-0.146-1.161-0.293-1.776-0.448c-0.161,0.176-0.308,0.337-0.59,0.649c0.556,0.257,0.988,0.458,1.514,0.699
	c0.311-0.35,0.569-0.639,0.827-0.93c0.186-0.105,0.374-0.211,0.561-0.316c-0.04-0.051-0.079-0.103-0.119-0.155
	C91.047,68.459,90.906,68.625,90.768,68.793z M89.314,116.944c0.396,0.99,1.066,1.394,1.905,1.202
	c0.867-0.198,1.522-1.071,1.467-2.04c-0.486,0.173-0.958,0.338-1.438,0.507c-0.403-0.087-0.806-0.175-1.259-0.273
	C89.755,116.549,89.525,116.755,89.314,116.944z M116.481,131.85c-0.163,0.265-0.35,0.568-0.658,1.07
	c0.916,0.156,1.581,0.269,2.309,0.392c0.932,0.976,1.682,1.016,2.568,0.009C119.372,132.858,118.074,132.405,116.481,131.85z
	 M91.251,126.337c-0.515,0.558-1.118,1.212-1.721,1.866c0.077,0.102,0.154,0.206,0.233,0.308c0.428-0.204,0.854-0.407,1.307-0.623
	c0.614,0.077,1.266,0.914,1.929-0.001C92.457,127.407,91.948,126.955,91.251,126.337z M72.467,104.447
	c-0.938,0.406-1.891-0.97-2.485,0.398c0.765,0.824,1.494,1.013,2.351,0.63c0.775-0.346,1.055-0.825,0.973-1.824
	C72.958,103.981,72.673,104.252,72.467,104.447z M71.502,109.71c-0.698,0.415-1.2,0.714-1.667,0.991
	c-0.55-0.321-1.02-0.595-1.56-0.911c-0.233,0.325-0.404,0.561-0.562,0.783C69.156,112.148,70.385,111.921,71.502,109.71z
	 M98.653,126.199c-0.299,0.322-0.6,0.644-0.966,1.039c-0.519-0.311-0.984-0.592-1.552-0.932c-0.248,0.268-0.502,0.543-0.883,0.958
	c0.688,0.391,1.192,0.678,1.576,0.898C98.011,127.908,98.647,127.347,98.653,126.199z M64.679,105.609
	c0.534,1.015,1.315,1.023,2.113,0.852c0.625-0.135,0.861-0.5,1.024-1.333c-0.435,0.133-0.864,0.264-1.302,0.398
	c-0.401-0.281-0.764-0.537-1.267-0.891C65.017,105.03,64.83,105.351,64.679,105.609z M84.916,62.941
	c-1.228,0.636-1.842-1.425-3.183-0.622c0.089,0.535,0.167,1.001,0.261,1.558C83.009,63.507,84.141,64.063,84.916,62.941z
	 M86.944,119.631c-0.174,0.119-0.312,0.176-0.392,0.279c-0.104,0.135-0.164,0.308-0.231,0.443c1.363,1.337,2.47,1.38,3.508,0.186
	C88.279,120.589,88.279,120.589,86.944,119.631z M69.522,101.673c1.826,0.685,3.19,0.08,3.338-1.413
	c-0.423,0.251-0.816,0.483-1.261,0.746C70.816,100.701,70.094,100.746,69.522,101.673z M77.578,108.124
	c-0.615,0.329-0.966,0.515-1.345,0.718c-0.369-0.199-0.726-0.39-1.155-0.62c-0.272,0.242-0.523,0.466-0.774,0.688
	C75.495,110.291,76.752,110.059,77.578,108.124z M127.564,119.438c0.199,0.962,0.716,1.235,1.455,1.194
	c0.841-0.049,1.475-0.494,1.855-1.359c-0.504,0.198-0.946,0.372-1.395,0.548c-0.403-0.346-0.744-0.638-1.137-0.974
	C128.067,119.057,127.828,119.238,127.564,119.438z M122.582,119.806c0.833,1.493,1.786,1.729,2.758,0.76
	c-0.632-0.435-1.263-0.869-1.979-1.361C123.113,119.395,122.841,119.605,122.582,119.806z M69.777,123.493
	c-0.708-0.104-1.359-0.189-2.004-0.298c-0.609-0.104-0.98,0.066-1.011,0.721C68.215,124.853,68.985,124.711,69.777,123.493z
	 M124.504,126.309c0.165,0.94,0.741,1.23,1.412,1.282c0.651,0.051,1.239-0.161,1.478-0.769c-0.802-0.292-1.519-0.554-2.328-0.849
	C124.953,126.04,124.766,126.152,124.504,126.309z M85.647,112.037c1.176,1.581,2.097,1.638,3.303,0.076
	c-1.363,0.843-1.979-0.071-2.695-0.798C86.021,111.594,85.853,111.794,85.647,112.037z M112.247,114.467
	c-1.083-0.226-1.879-0.392-2.771-0.579c-0.12,0.258-0.242,0.517-0.381,0.817C110.169,115.234,111.088,115.3,112.247,114.467z
	 M102.633,103.676c1.47,1.197,2.203,1.156,2.961,0.012c-0.468-0.069-1.002-0.1-1.507-0.238
	C103.583,103.312,103.083,102.806,102.633,103.676z M73.049,119.875c0.887,1.296,1.493,1.32,2.506,0.177
	c-0.62-0.267-1.251-0.539-1.909-0.821c-0.098,0.059-0.239,0.107-0.324,0.203C73.207,119.567,73.131,119.737,73.049,119.875z
	 M63.426,113.864c1.058,1.551,2.093,1.479,3.049-0.045c-0.434,0.104-0.766,0.184-1.106,0.265c-0.34-0.258-0.662-0.5-1.16-0.877
	C63.909,113.458,63.644,113.681,63.426,113.864z M90.747,107.256c-0.252,0.398-0.428,0.674-0.682,1.075
	c0.526,0.275,0.917,0.479,1.381,0.721c0.554-0.372,1.064-0.713,1.573-1.053c-0.04-0.081-0.08-0.162-0.121-0.242
	c-0.387,0.067-0.774,0.134-1.156,0.201C91.461,107.761,91.201,107.577,90.747,107.256z M96.041,112.092
	c-0.819-0.237-1.558-0.452-2.59-0.75c-0.101,0.092-0.323,0.293-0.543,0.495C94.079,113.013,94.77,113.037,96.041,112.092z
	 M71.282,115.691c1.011,0.979,1.918,0.943,2.824-0.051c-0.742-0.183-1.48-0.365-2.271-0.56c-0.071,0.042-0.209,0.092-0.305,0.186
	C71.438,115.357,71.394,115.493,71.282,115.691z M125.086,111.116c0.792,1.406,1.646,1.476,2.711,0.385
	c-0.619-0.237-1.278-0.489-2.06-0.789C125.586,110.807,125.334,110.962,125.086,111.116z M130.166,109.436
	c1.084,1.432,1.887,1.416,2.838-0.044c-0.746,0.26-1.308,0.139-1.865-0.235C130.97,109.044,130.543,109.317,130.166,109.436z
	 M99.569,117.873c-0.739,0.646-1.993-0.536-2.575,0.778C98.197,119.49,98.87,119.3,99.569,117.873z M98.685,112.838
	c1.196,1.06,2.127,0.982,2.886-0.128c-0.699-0.115-1.402-0.23-2.216-0.366C99.232,112.435,99.017,112.595,98.685,112.838z
	 M126.46,123.307c1.249,0.91,2.069,0.711,2.685-0.662C128.401,123.467,127.252,122.18,126.46,123.307z M95.917,119.72
	c-0.895,1.036-2.239-0.33-3.287,0.62C94.1,121.279,94.941,121.123,95.917,119.72z M126.353,116.022
	c-0.799-0.272-1.41-0.481-2.072-0.707c-0.246,0.203-0.479,0.397-0.729,0.603C124.678,116.808,125.145,116.843,126.353,116.022z
	 M107.979,119.598c-0.68-0.245-1.256-0.45-1.86-0.667c-0.131,0.149-0.271,0.274-0.362,0.427s-0.131,0.334-0.189,0.493
	C106.625,120.548,106.974,120.514,107.979,119.598z M89.78,95.461c-0.783-0.188-1.568-0.376-2.373-0.569
	c-0.445,0.365-0.316,0.724,0.074,1.02C88.134,96.41,89.08,96.21,89.78,95.461z M76.535,64.064c1.203,0.626,2.014,0.66,2.816,0.165
	C77.246,63.291,77.246,63.291,76.535,64.064z M80.066,102.005c1.336,0.878,2.122,0.704,2.893-0.513
	c-0.453,0.026-0.976,0.09-1.498,0.077C80.938,101.556,80.361,101.292,80.066,102.005z M112.478,92.824
	c-0.14,0.196-0.29,0.402-0.437,0.608c1.211,0.913,1.656,0.903,2.624-0.01C113.958,93.23,113.25,93.036,112.478,92.824z
	 M122.486,110.58c-1.382-0.829-1.971-0.847-2.652-0.081C120.819,111.193,121.507,111.215,122.486,110.58z M86.99,74.085
	c1.5,0.733,2.02,0.697,3.135-0.362C88.959,73.998,87.967,73.007,86.99,74.085z M96.911,123.273c1.137,0.526,2.062,0.656,3.052-0.281
	C98.879,122.723,97.947,122.18,96.911,123.273z M84.484,105.757c0.504,0.178,0.883,0.314,1.347,0.478
	c0.421-0.268,0.845-0.537,1.48-0.94c-0.93-0.167-1.537-0.276-2.171-0.39c-0.139,0.113-0.295,0.212-0.414,0.345
	C84.645,105.342,84.613,105.479,84.484,105.757z M117.388,123.904c1.409,0.855,1.679,0.835,2.51-0.071
	c-0.521-0.217-1.028-0.43-1.616-0.677C118.02,123.374,117.755,123.595,117.388,123.904z M102.558,124.319
	c1.211,1.12,1.686,1.106,2.604,0.122c-0.552-0.222-1.096-0.44-1.953-0.783C103.054,123.816,102.81,124.063,102.558,124.319z
	 M116.93,71.955c-2.271-0.443-2.271-0.443-2.685,0.334C115.414,72.915,115.809,72.878,116.93,71.955z M120.891,62.922
	c1.197,0.362,1.859,0.067,2.443-0.737c-0.724-0.122-1.334-0.225-2.109-0.355C121.128,62.149,121.023,62.488,120.891,62.922z
	 M68.653,117.824c-0.665-0.058-1.329-0.115-2.059-0.178c-0.167,0.15-0.367,0.331-0.576,0.519
	C67.226,119.087,67.777,119.005,68.653,117.824z M74.005,129.352c1.252,0.719,1.639,0.637,2.336-0.395
	c-0.613-0.129-1.218-0.257-1.862-0.394C74.322,128.824,74.189,129.046,74.005,129.352z M118.196,99.077
	c-1.052-0.376-1.817-0.649-2.662-0.952c-0.116,0.282-0.209,0.514-0.298,0.733C116.475,99.586,116.758,99.62,118.196,99.077z
	 M75.486,111.801c-0.5,0-0.831,0.073-1.104-0.021c-0.252-0.086-0.444-0.353-0.789-0.649c-0.235,0.482-0.402,0.822-0.559,1.144
	C74.179,113.051,74.541,112.986,75.486,111.801z M107.177,108.893c1.092,0.603,1.738,0.394,2.232-0.72
	C107.46,108.499,107.46,108.499,107.177,108.893z M106.401,113.546c-0.783,0.752-1.875-1.041-2.645,0.321
	C104.982,114.662,105.348,114.635,106.401,113.546z M73.31,123.522c1.351,0.571,1.628,0.508,2.517-0.614
	C74.923,123.106,74.015,122.415,73.31,123.522z M111.561,110.715c-0.992-0.067-1.824-0.125-2.699-0.186
	C109.254,111.846,109.962,111.9,111.561,110.715z M75.756,88.501c1.441,0.713,1.797,0.654,2.622-0.527
	C77.471,88.536,76.529,87.158,75.756,88.501z M128.234,103.191c1.305,0.699,1.631,0.641,2.199-0.48
	c-0.709-0.046-1.366-0.089-2.047-0.134C128.313,102.869,128.272,103.034,128.234,103.191z M127.084,105.7
	c1.002,0.829,1.866,0.764,2.481-0.25C128.713,105.683,127.839,104.545,127.084,105.7z M109.611,101.387
	c1.354,0.631,2.154,0.404,3.108-1.003C111.688,101.222,110.461,100.416,109.611,101.387z M90.453,124.014
	c1.106,0.784,1.718,0.674,2.458-0.406c-0.695-0.049-1.377-0.098-2.117-0.152C90.676,123.647,90.563,123.832,90.453,124.014z
	 M116.621,88.351c-2.293-0.317-2.293-0.317-2.668,0.146C115.283,89.252,115.497,89.248,116.621,88.351z M79.073,91.621
	c-0.857-0.076-1.56-0.139-2.363-0.21c-0.094,0.251-0.193,0.517-0.306,0.819C77.45,92.601,78.27,92.516,79.073,91.621z
	 M120.248,115.523c1.43,0.618,1.808,0.501,2.408-0.739C122.016,115.558,120.854,114.221,120.248,115.523z M121.057,130.618
	c-1.198-0.971-1.335-0.978-1.984-0.099C120.108,131.419,120.164,131.422,121.057,130.618z M84.375,67.333
	c-1.91-0.698-2.103-0.695-2.824,0.025C82.45,67.797,83.292,68.147,84.375,67.333z M101.399,118.095
	c1.331,0.461,1.519,0.41,2.178-0.513c-0.602-0.119-1.219-0.239-1.923-0.378C101.559,117.531,101.479,117.815,101.399,118.095z
	 M120.944,88.734c-0.963-0.186-1.589-0.305-2.268-0.437c-0.12,0.196-0.232,0.383-0.421,0.698c0.455,0.235,0.848,0.434,1.269,0.649
	C119.963,89.363,120.338,89.124,120.944,88.734z M108.145,69.354c1.369,0.462,1.841,0.303,2.646-0.987
	C109.906,69.086,108.885,68.393,108.145,69.354z M124.234,101.918c1.208,0.519,1.376,0.478,2.234-0.568
	C125.8,101.782,124.855,100.668,124.234,101.918z M97.075,109.101c1.377,0.321,2.318,0.211,3.01-0.769
	C99.199,108.662,98.097,108.078,97.075,109.101z M117.68,121.058c0.806,0.113,1.507,0.249,2.088-0.715
	c-0.684-0.101-1.238-0.182-1.823-0.268C117.838,120.477,117.769,120.729,117.68,121.058z M93.314,124.761
	c-0.229,0.397-0.395,0.688-0.585,1.02c1.433,0.22,1.433,0.22,2.218-0.527C94.439,125.1,93.969,124.958,93.314,124.761z
	 M116.548,118.149c1.121,0.686,1.495,0.632,2.161-0.242C117.317,117.477,117.317,117.477,116.548,118.149z M84.708,71.961
	c-0.767-0.26-1.327-0.451-1.944-0.661c-0.157,0.229-0.298,0.437-0.449,0.657C83.108,72.647,83.828,72.687,84.708,71.961z
	 M120.803,107.262c1.167,0.582,1.277,0.562,2.172-0.394c-0.522-0.113-1.016-0.219-1.556-0.336
	C121.207,106.784,121.012,107.014,120.803,107.262z M129.482,114.518c1.172,0.597,1.393,0.57,2.191-0.213
	C130.482,113.811,130.482,113.811,129.482,114.518z M91.452,104.021c1.253,0.453,1.488,0.399,2.116-0.468
	C91.756,103.352,91.756,103.352,91.452,104.021z M70.17,126.779c1.162,0.515,1.429,0.393,1.956-0.88
	C71.436,126.135,70.596,125.772,70.17,126.779z M83.244,90.808c-0.032-0.101-0.064-0.202-0.095-0.302
	c-0.618,0.679-1.492-0.725-2.212,0.591c0.501,0.21,0.901,0.376,1.343,0.561C82.644,91.335,82.943,91.071,83.244,90.808z
	 M89.38,101.286c-0.655,0.166-1.57-0.708-2.005,0.451C88.325,102.352,88.545,102.311,89.38,101.286z M101.838,97.147
	c-1.719-0.571-1.786-0.555-2.125,0.517C100.488,97.772,101.243,97.924,101.838,97.147z M118.715,63.911
	c-1.662-0.647-1.662-0.647-2.129,0.263C117.289,64.461,117.954,64.681,118.715,63.911z M118.282,128.156
	c-0.6-0.099-1.016-0.168-1.485-0.246c-0.144,0.372-0.249,0.641-0.378,0.971C117.167,129.095,117.746,129.127,118.282,128.156z
	 M77.757,96.534c1.027,0.301,1.691,0.058,2.299-0.75c-0.754,0-1.388,0-2.085,0C77.902,96.026,77.843,96.232,77.757,96.534z
	 M107.646,75.51c0.873,0.756,1.179,0.699,2.096-0.446C108.968,75.156,108.187,74.593,107.646,75.51z M122.391,85.843
	c-0.691-0.144-1.214-0.251-1.831-0.38c-0.096,0.317-0.176,0.581-0.274,0.906C121.079,86.589,121.711,86.651,122.391,85.843z
	 M87.981,125.998c1.261,0.228,1.354,0.187,1.899-0.758C88.608,125.098,88.608,125.098,87.981,125.998z M76.519,116.024
	c0.789,0.574,1.432,0.32,2.105-0.273C77.227,115.135,77.227,115.135,76.519,116.024z M96.813,115.276
	c-1.722-0.455-1.722-0.455-1.981,0.445C95.561,115.968,96.22,116.019,96.813,115.276z M102.792,108.235
	c-0.206,0.667-0.212,0.859,0.011,0.966c0.695,0.333,1.239,0.133,1.704-0.514C103.888,108.523,103.337,108.379,102.792,108.235z
	 M95.198,79.136c-0.893-0.003-1.585-0.615-2.325,0.12C93.76,79.941,94.13,79.94,95.198,79.136z M115.696,85.381
	c-0.014,0.114-0.028,0.229-0.042,0.342c0.842,0.771,1.022,0.762,1.927-0.242C116.871,85.443,116.284,85.412,115.696,85.381z
	 M102.765,120.45c-0.717-0.174-1.22-0.296-1.751-0.424c-0.159,0.287-0.264,0.475-0.415,0.745
	C101.359,121.261,101.964,121.241,102.765,120.45z M118.472,127.14c1.159,0.323,1.159,0.323,1.731-0.463
	C119.001,126.314,119.001,126.314,118.472,127.14z M117.752,139.592c-0.525-0.059-0.949-0.106-1.483-0.166c0,0.424,0,0.707,0,0.979
	C117.124,140.721,117.45,140.306,117.752,139.592z M80.141,58.062c0.654,0.246,1.161,0.596,2.126,0.36
	c-0.643-0.491-1.074-0.821-1.573-1.204C80.463,57.57,80.329,57.775,80.141,58.062z M80.217,60.823
	c-0.591,0.057-1.315-0.937-1.838,0.237C79.065,61.531,79.658,61.441,80.217,60.823z M117.648,93.69
	c0.647,1.067,1.03,0.997,2.026-0.224C119.028,93.538,118.417,93.605,117.648,93.69z M115.62,102.368c-0.649,0-1.146-0.04-1.63,0.022
	c-0.147,0.02-0.259,0.315-0.47,0.595c0.428,0.183,0.741,0.317,1.082,0.462C114.947,103.082,115.227,102.785,115.62,102.368z
	 M101.279,126.087c-1.205-0.891-1.398-0.819-1.649,0.476C100.234,126.389,100.756,126.237,101.279,126.087z M102.414,91.664
	c1.307,0.444,1.334,0.436,1.838-0.532C103.618,91.224,102.897,90.608,102.414,91.664z M117.526,67.818
	c-0.668,0.041-1.563-0.572-2.004,0.54C116.375,68.806,116.952,68.356,117.526,67.818z M80.285,66.752
	c-1.73-0.687-1.831-0.657-1.698,0.48C79.171,67.068,79.728,66.912,80.285,66.752z M81.951,97.545
	c-0.038-0.102-0.075-0.203-0.11-0.303c-1.327-0.132-1.327-0.132-1.681,0.889C80.859,97.901,81.406,97.723,81.951,97.545z
	 M93.52,90.644c-1.249-0.495-1.249-0.495-1.586,0.387C92.544,91.458,93.014,91.268,93.52,90.644z M118.84,116.234
	c0.01-0.15,0.019-0.3,0.028-0.45c-0.334-0.169-0.669-0.34-1.087-0.552c-0.158,0.405-0.264,0.678-0.453,1.164
	C117.957,116.327,118.398,116.28,118.84,116.234z M119.282,59.475c-0.027-0.095-0.055-0.188-0.084-0.283
	c-1.178-0.068-1.178-0.068-1.625,0.92C118.26,59.856,118.771,59.665,119.282,59.475z M114.973,108.035
	c-0.627,0.077-1.492-0.405-1.9,0.746C113.894,108.885,114.504,108.736,114.973,108.035z M107.029,96.535
	c0.848,0.08,1.444,0.2,1.796-0.677C108.165,95.784,107.584,95.625,107.029,96.535z M62.513,111.704
	c0.947,0.183,0.947,0.183,1.7-0.476c-0.521-0.086-0.944-0.156-1.407-0.232C62.681,111.296,62.6,111.496,62.513,111.704z
	 M123.356,131.415c-0.974-0.334-0.974-0.334-1.251,0.66C122.749,132.256,123.154,132.071,123.356,131.415z M86.21,88.976
	c0.803,0.208,1.388,0.24,2.01-0.425C87.437,88.393,86.801,87.954,86.21,88.976z M78.487,84.376c-0.02-0.098-0.041-0.196-0.061-0.294
	c-0.955-0.096-0.955-0.096-1.32,0.842C77.684,84.695,78.085,84.535,78.487,84.376z M82.817,86.327
	c-0.031-0.125-0.061-0.252-0.091-0.376c-0.538-0.21-1.05-0.334-1.411,0.683C81.935,86.507,82.375,86.417,82.817,86.327z
	 M119.236,113.38c0.497-0.274,0.859-0.473,1.382-0.76C119.428,112.196,119.428,112.196,119.236,113.38z M111.45,63.589
	c0.066,0.16,0.133,0.321,0.199,0.481c0.432-0.208,0.864-0.416,1.297-0.622c-0.049-0.115-0.097-0.229-0.145-0.344
	C112.351,63.266,111.9,63.428,111.45,63.589z M93.069,71.519c0.047,0.091,0.096,0.182,0.145,0.272
	c0.688-0.096,0.688-0.096,1.165-0.747C93.841,71.238,93.455,71.378,93.069,71.519z"/>
<path fill-rule="evenodd" clip-rule="evenodd" fill="#f5c4bc" class="fill" d="M127.939,85.223c0.913-0.283,1.816,0.032,2.381-0.811
	c-0.699-0.177-1.354-0.341-2.177-0.548c0.189-1.013,0.364-1.94,0.534-2.857c0.892-0.068,1.677,0.4,2.333-0.366
	c-0.479-0.296-0.932-0.577-1.381-0.853c0.398-1.32,0.772-2.566,1.167-3.877c0.328-0.203,0.71-0.44,1.273-0.787
	c-0.501-0.167-0.817-0.274-1.141-0.382c0-1.555,0-3.083,0-4.648c-0.607-0.53-1.23-0.586-1.773,0.022
	c-0.784,0.898-1.567,1.796-2.336,2.68c-0.8-0.214-1.425-0.381-2.342-0.626c-0.109,0.119-0.313,0.344-0.734,0.808
	c0.945,0.248,1.547,0.407,2.337,0.616c-0.532,0.701-0.994,1.311-1.375,1.812c-0.844,0.385-1.856-0.361-2.453,0.79
	c0.475,0.104,0.859,0.189,1.461,0.322c-0.625,0.703-1.184,1.333-1.826,2.058c-0.877-0.285-1.653-0.536-2.583-0.838
	c-0.124,0.171-0.313,0.437-0.534,0.745c0.275,0.237,0.431,0.411,0.621,0.524c0.196,0.116,0.428,0.174,0.786,0.313
	c-0.6,0.394-1.118,0.731-1.736,1.135c-0.564-0.243-1.152-0.494-1.824-0.782c-0.201,0.148-0.45,0.333-0.802,0.593
	c0.468,0.361,0.855,0.657,1.406,1.081c-0.693,0.434-1.296,0.809-1.833,1.145c-0.709-0.266-1.272-0.479-1.989-0.748
	c-0.29,0.374-0.577,0.743-1.01,1.302c-1.236-0.061-2.698,0.823-4.363-0.031c0.254-0.334,0.395-0.626,0.625-0.797
	c0.295-0.221,0.647-0.388,1-0.501c2.998-0.971,4.966-3.077,6.41-5.771c0.155-0.288,0.305-0.604,0.54-0.819
	c1.917-1.761,2.87-4.146,4.104-6.341c1.577-2.801,3.385-5.402,5.897-7.444c1.255-1.021,2.844-1.14,4.356-1.424
	c1.01-0.19,1.806,0.364,2.595,0.876c0.779,0.504,1.542,1.034,2.314,1.553c-0.58,3.321-1.138,6.529-1.723,9.883
	c-0.519-0.088-1.05-0.177-1.673-0.282c-0.145,0.133-0.338,0.311-0.493,0.452c0.095,0.628,0.592,0.676,2.407,0.275
	c0.033,0.502,0.064,0.98,0.094,1.435c-0.577,0.228-1.028,0.405-1.478,0.582c0.004,0.079,0.008,0.158,0.013,0.236
	c0.417,0.097,0.833,0.193,1.384,0.32c0.103,1.522,0.208,3.081,0.31,4.579c-0.713,0.591-1.98-0.537-2.28,1.046
	c0.688,0,1.303,0,1.953,0c-0.043,1.116-0.884,1.367-1.526,1.848c-0.4-0.022-0.815-0.043-1.273-0.068
	c-0.144,0.235-0.279,0.455-0.437,0.711c0.867,0.678,1.555-0.165,2.424-0.122c-0.074,0.472-0.143,0.908-0.219,1.395
	c-0.866,0.142-1.637,0.268-2.127,0.349c-1.158,0.521-2.084,0.938-3.16,1.425C128.008,85.855,127.976,85.562,127.939,85.223z
	 M130.444,82.607c-0.357,0.21-0.975,0.202-0.736,1.029c0.321-0.11,0.625-0.216,0.984-0.341c-0.13-0.323-0.214-0.53-0.294-0.737
	c0.535,0.027,0.918-0.169,0.983-0.895c-0.33,0.159-0.658,0.318-0.986,0.478c-0.08-0.198-0.162-0.397-0.235-0.581
	c-0.863,0.104-0.863,0.104-1.175,0.824c0.517-0.101,0.98-0.192,1.446-0.286C130.435,82.267,130.439,82.437,130.444,82.607z
	 M133.283,77.695c-0.778,0.246-1.806-0.784-2.513,0.554C131.791,78.529,132.61,78.484,133.283,77.695z M132.186,67.994
	c-0.182,0.278-0.314,0.48-0.459,0.7c1.311,0.501,1.394,0.484,1.937-0.352C133.21,68.236,132.771,68.133,132.186,67.994z
	 M121.757,74.53c-1.067-0.651-1.553-0.584-2.078,0.306C120.432,75.08,121.118,75.105,121.757,74.53z M126.663,69.431
	c-0.182,0.128-0.32,0.187-0.399,0.291c-0.076,0.098-0.091,0.243-0.131,0.363c0.796,0.405,1.568,0.25,1.651-0.327
	C127.435,69.656,127.084,69.553,126.663,69.431z M128.542,64.921c0.362,1.389,0.752,1.571,1.579,0.937
	C129.644,65.575,129.148,65.281,128.542,64.921z M132.435,63.029c-0.023-0.115-0.045-0.23-0.066-0.345
	c-0.483-0.006-1.067-0.312-1.421,0.771C131.582,63.273,132.009,63.151,132.435,63.029z"/>
<path fill-rule="evenodd" clip-rule="evenodd" fill="#f5c4bc" class="fill" d="M65.828,74.351c-0.481,0.422-0.841,0.738-1.236,1.086
	c0.694,0.656,1.071-0.226,1.364-0.172c1.31,1.427,2.497,2.723,3.848,4.195c-0.66,0.149-1.206,0.271-1.892,0.426
	c-0.056,0.105-0.173,0.331-0.374,0.711c0.691,0.039,1.233,0.069,1.899,0.107c-0.365,0.719-0.709,1.396-1.064,2.093
	c-0.739,0.447-1.499,0.905-2.126,1.284c-0.723,0.066-1.285,0.118-1.848,0.17c-0.021-0.06-0.042-0.12-0.062-0.18
	c0.352-0.218,0.705-0.436,1.353-0.836c-0.662-0.226-1.043-0.355-1.425-0.485c1.525,0.225,2.572-0.814,3.866-1.362
	c-0.752-0.527-0.752-0.527-1.712,0.256c-0.986,0-1.842,0-2.806,0c0.276-0.312,0.51-0.575,0.855-0.964
	c-0.451-0.042-0.77-0.072-1.324-0.124c0.649-0.385,1.102-0.651,1.602-0.947c-0.509-0.72-1.094-0.07-1.833-0.302
	c-0.443-1.125-0.948-2.406-1.451-3.682c0.366-0.342,0.658-0.616,1.107-1.039c-0.5-0.108-0.83-0.178-1.25-0.269
	c-0.113-0.281-0.248-0.617-0.499-1.243c0.322-0.127,0.723-0.284,1.122-0.441c-0.075-0.123-0.146-0.247-0.22-0.369
	c-0.377-0.076-0.755-0.153-1.351-0.274c-0.434-1.955-0.884-3.987-1.322-5.967c0.564-0.362,0.977-0.625,1.579-1.011
	c-0.646-0.171-1.066-0.283-1.492-0.396c-0.272-1.184,0.165-1.968,1.136-2.502c0.451-0.249,0.93-0.456,1.361-0.734
	c0.893-0.58,1.847-0.668,2.838-0.398c2.769,0.753,5.537,1.65,7.924,3.197c1.934,1.252,3.631,2.972,5.155,4.726
	c1.745,2.008,3.164,4.297,4.764,6.435c0.613,0.816,1.333,1.552,2.052,2.377c-0.49,0.348-0.898,0.64-1.468,1.046
	c0.889,0.439,1.342-0.109,1.958-0.295c1.219,0.968,2.478,1.967,3.78,2.999c-1.421,0.59-2.115,0.582-3.685-0.015
	c0.051-0.24,0.104-0.486,0.151-0.718c-0.086-0.04-0.133-0.082-0.167-0.073c-0.54,0.125-1.078,0.26-1.583,0.384
	c-0.763-0.548-1.475-1.059-2.197-1.577c0.217-0.292,0.395-0.534,0.729-0.986c-0.826,0.118-1.415,0.202-2.106,0.3
	c-0.218-0.168-0.5-0.385-0.837-0.645c0.28-0.349,0.505-0.631,0.739-0.923c-0.073-0.059-0.137-0.149-0.186-0.142
	c-0.595,0.083-1.188,0.181-1.755,0.271c-0.719-0.495-1.358-0.935-2.158-1.484c0.787-0.365,1.381-0.641,1.977-0.916
	c-1.031-0.477-1.859-0.338-2.57,0.635c-2.738-2.192-5.779-3.756-9.052-5.084c0.211-0.276,0.444-0.582,0.671-0.878
	c-0.687-0.058-1.294-0.107-2.063-0.171c-0.115,0.172-0.306,0.458-0.577,0.864c0.47,0.226,0.828,0.396,1.155,0.553
	c-0.422,0.665-0.858,1.351-1.343,2.115c-0.298,0.218-1.042-0.145-1.136,0.684c0.681,0.463,1.055-0.387,1.855-0.396
	C64.834,73.541,65.318,73.937,65.828,74.351z M67.036,67.73c1.693,0.871,2.014,0.844,2.863-0.078
	c-0.676-0.171-1.373-0.349-2.254-0.573C67.504,67.23,67.325,67.423,67.036,67.73z M71.56,70.764
	c-0.65,0.061-1.458-0.594-1.793,0.655c0.549,0.065,1.029,0.123,1.519,0.181c0.384-0.343,0.733-0.64,1.058-0.962
	c0.062-0.062,0.024-0.227,0.038-0.415C72.079,70.422,71.85,70.573,71.56,70.764z M62.666,77.36c1.261,0.737,1.573,0.691,2.242-0.281
	c-0.578-0.121-1.153-0.239-1.77-0.369C62.975,76.937,62.823,77.146,62.666,77.36z M63.375,70.666
	c-0.628-0.371-1.167-0.688-1.771-1.046c-0.215,0.249-0.407,0.472-0.618,0.716C61.715,71,62.407,71.317,63.375,70.666z
	 M60.659,67.761c1.087,0.631,1.172,0.614,2.05-0.353c-0.539-0.07-1.073-0.141-1.64-0.214C60.921,67.396,60.792,67.575,60.659,67.761
	z M73.434,73.714c0.813,0.475,1.478,0.37,2.321-0.46C74.809,73.372,74.011,72.547,73.434,73.714z M64.136,64.857
	c-1.417-0.792-1.657-0.749-2.11,0.361C62.723,65.099,63.312,64.997,64.136,64.857z M65.095,80.601
	c0.701-0.293,1.316-0.326,1.545-1.124C65.877,79.531,65.233,79.479,65.095,80.601z M68.061,78.644
	c-1.541-0.441-1.541-0.441-1.939,0.667C66.774,79.087,67.286,78.91,68.061,78.644z"/>
<path fill-rule="evenodd" clip-rule="evenodd" fill="#f5c4bc" class="fill" d="M133.101,85.597c-0.109,0.413-0.165,0.62-0.204,0.767
	c-0.67,0.345-1.495-0.674-1.917,0.391c0.551,0.563,0.551,0.563,1.696,0.763c-0.623,1.645-2.764,1.509-3.29,2.951
	c-0.819,0-1.458,0-2.229,0c0.095-0.433,0.168-0.764,0.282-1.282c0.155,0.399,0.233,0.601,0.376,0.97
	c0.479-0.153,0.965-0.309,1.459-0.467c-0.078-0.363-0.124-0.58-0.2-0.942c0.702-0.129,1.381-0.254,2.23-0.408
	c-0.259-0.343-0.385-0.51-0.554-0.733c-1.005,0.502-2.01,0.742-3.163,0.36c0.351-1.352,1.83-0.953,2.489-1.743
	C130.835,85.315,131.917,85.691,133.101,85.597z"/>
<path fill-rule="evenodd" clip-rule="evenodd" fill="#f5c4bc" class="fill" d="M104.607,53.614c0.382-0.519,0.591-0.802,0.848-1.15
	c0.358,0,0.771,0,1.269,0c0,0.495,0,0.979,0,1.621c-2.571-0.119-5.115-0.237-7.664-0.354c-0.275-0.842-0.139-1.289,0.822-1.253
	c0.136,0.238,0.283,0.5,0.519,0.916c0.324-0.372,0.574-0.659,0.886-1.014c0.244,0.014,0.561,0.032,0.907,0.054
	c0.083,0.398,0.154,0.753,0.235,1.139c0.178-0.039,0.38-0.025,0.425-0.103c0.184-0.312,0.318-0.653,0.482-1.005
	c0.305,0,0.58,0,0.932,0C104.349,52.739,104.435,53.028,104.607,53.614z"/>
<path fill-rule="evenodd" clip-rule="evenodd" fill="#f5c4bc" class="fill" d="M66.712,87.128c-0.325-0.043-0.93,0.666-1.263-0.208
	c0.047-0.092,0.065-0.216,0.13-0.249c0.373-0.189,0.755-0.356,1.007-0.472c0.979,0.184,1.812,0.34,2.705,0.508
	c0.386-0.125,0.826-0.267,1.372-0.444c0.063,0.351,0.118,0.646,0.185,1.02c-0.504,0.06-0.948,0.113-1.413,0.168
	c-0.203,0.49-0.396,0.958-0.58,1.402c-1.93,0.101-1.93,0.101-2.545-0.544c0.725-0.44,1.741,0.503,2.32-0.543
	C68.034,87.567,67.444,87.37,66.712,87.128z"/>
<path fill-rule="evenodd" clip-rule="evenodd" fill="#f5c4bc" class="fill" d="M68.328,84.65c-0.285,0.346-0.573,0.694-0.867,1.049
	c-0.521-0.032-0.979-0.062-1.532-0.097c0.178-0.745,0.737-1.215,1.249-1.428c1.133-0.471,2.164-0.996,2.71-2.192
	c0.928,0.909-0.046,1.41-0.219,2.102c0.245,0.13,0.471,0.249,0.763,0.403c0.03,0.319,0.064,0.677,0.106,1.136
	c-0.415,0.035-0.759,0.062-1.322,0.105c0.296-0.446,0.486-0.732,0.716-1.079C69.419,84.65,68.943,84.65,68.328,84.65z"/>
<path fill-rule="evenodd" clip-rule="evenodd" fill="#f5c4bc" class="fill" d="M79.329,145.251c0.426-0.38,0.769-0.684,1.177-1.045
	c0.427,0.129,0.899,0.273,1.443,0.439c0.023,1.402-0.947,1.95-2.128,2.549C79.653,146.533,79.511,145.969,79.329,145.251z"/>
<path fill-rule="evenodd" clip-rule="evenodd" fill="#f5c4bc" class="fill" d="M111.407,148.179c0.332-0.613,0.501-0.924,0.725-1.334
	c0.646,0.316,1.236,0.604,1.915,0.935C113.173,148.562,112.393,147.868,111.407,148.179z"/>
<path fill-rule="evenodd" clip-rule="evenodd" fill="#f5c4bc" class="fill" d="M98.043,53.597c-0.619-0.028-1.03-0.046-1.571-0.071
	c0.045-0.357,0.082-0.644,0.125-0.982c0.478,0,0.882,0,1.396,0C98.008,52.858,98.021,53.142,98.043,53.597z"/>
<path fill-rule="evenodd" clip-rule="evenodd" fill="#f5c4bc" class="fill" d="M95.503,52.625c0.02,0.232,0.038,0.442,0.063,0.765
	c-0.572-0.029-1.055-0.054-1.619-0.082C94.215,52.297,94.812,52.425,95.503,52.625z"/>
<path fill-rule="evenodd" clip-rule="evenodd" fill="#f5c4bc" class="fill" d="M79.747,126.065c0.229-0.076,0.459-0.15,0.689-0.225
	c0.035,0.076,0.07,0.151,0.105,0.227c-0.217,0.116-0.435,0.232-0.653,0.347C79.842,126.299,79.793,126.182,79.747,126.065z"/>
</svg>
