<svg version="1.1" id="svg" xmlns="http://www.w3.org/2000/svg" xmlns:xlink="http://www.w3.org/1999/xlink" x="0px" y="0px"
	 width="200px" height="200px" viewBox="0 0 200 200" enable-background="new 0 0 200 200" xml:space="preserve">
<path class="stroke" fill="#580f12"  d="M197.64,162.033c-0.585-0.068-1.233-0.146-1.898-0.224c-0.433,0.642-0.819,1.212-1.309,1.936
	c-0.948-1.859-1.917-3.61-2.75-5.425c-1.574-3.431-2.972-6.946-4.624-10.34c-1.859-3.819-3.948-7.524-5.877-11.311
	c-1.982-3.891-3.936-7.797-5.824-11.734c-2.312-4.825-4.398-9.758-7.072-14.407c-0.844-1.465-1.626-2.965-2.419-4.46
	c-0.286-0.539-0.518-1.109-0.885-1.901c-0.437-0.188-1.023-0.411-1.586-0.683c-3.861-1.868-7.712-3.757-11.577-5.619
	c-3.306-1.593-6.484-3.407-9.474-5.532c-2.727-1.938-5.397-3.955-8.084-5.944c-0.665-0.493-1.334-0.985-1.949-1.536
	c-2.787-2.493-5.621-4.939-8.31-7.535c-2.376-2.295-4.641-4.716-6.847-7.175c-1.655-1.845-3.151-3.832-4.7-5.769
	c-1.25-1.567-2.498-3.137-3.701-4.74c-1.789-2.383-2.808-5.185-4.146-7.812c-0.186-0.365-0.234-0.832-0.24-1.251
	c-0.04-2.831-0.049-5.662-0.067-8.492c-0.003-0.622,0-1.242,0-1.954c0.511-0.057,0.897-0.173,1.261-0.127
	c1.801,0.228,3.558,0.631,5.27,1.262c1.327,0.489,2.691,0.881,4.045,1.295c2.111,0.644,4.22,0.493,6.258-0.246
	c1.06-0.384,2.093-0.944,2.674-2.022c0.61-1.133,1.41-2.19,1.455-3.696c-0.094-0.129-0.271-0.37-0.466-0.636
	c-0.42,0.192-0.813,0.304-1.125,0.527c-1.35,0.978-2.875,1.162-4.486,1.163c-2.077,0-3.702-0.787-5.04-2.375
	c-1.037-1.23-2.21-2.349-3.343-3.498c-1.512-1.536-3.334-2.339-5.514-2.265c-0.055,0.001-0.115-0.074-0.171-0.114
	c1.291-1.402,1.372-2.407,0.333-4.098c-2.191-1.292-4.118-0.532-4.789,1.862c0.098,1.025,0.521,1.828,1.43,2.296
	c-0.149,2.808-0.279,5.558-0.448,8.306c-0.228,3.69-0.489,7.381-0.73,11.072c-0.059,0.902-0.168,1.757-0.576,2.618
	c-1.151,2.43-2.888,4.416-4.687,6.337c-3.452,3.684-7.286,6.964-11.073,10.293c-2.72,2.392-5.451,4.771-8.193,7.139
	c-2.862,2.47-5.68,4.997-8.631,7.356c-3.043,2.433-6.22,4.701-9.349,7.026c-1.201,0.892-2.448,1.719-3.649,2.608
	c-2.467,1.827-4.903,3.695-7.381,5.507c-0.855,0.625-1.801,1.125-2.7,1.691c-2.199,1.384-4.339,2.873-6.612,4.119
	c-1.28,0.703-1.941,1.588-2.177,2.982c-0.134,0.797-0.44,1.591-0.799,2.32c-0.818,1.658-1.835,3.226-2.562,4.921
	c-2.994,6.993-6.589,13.693-9.928,20.516c-1.314,2.685-2.821,5.276-4.226,7.918c-2.789,5.247-5.452,10.563-8.547,15.641
	c-0.834,1.368-1.759,2.68-2.692,4.096c-1.042-1.144-1.956-2.148-2.812-3.089c-0.97,0.106-1.335,0.728-1.833,1.331
	c0.343,0.406,0.661,0.8,0.999,1.174c0.421,0.466,0.964,0.856,1.269,1.386c0.684,1.189,1.688,1.421,2.978,1.228
	c1.417-1.86,2.693-3.846,3.796-5.928c2.835-5.352,5.612-10.735,8.406-16.108c1.998-3.838,3.976-7.686,5.983-11.518
	c1.205-2.3,2.488-4.561,3.67-6.873c1.308-2.556,2.54-5.152,3.813-7.727c0.147-0.301,0.348-0.575,0.604-0.993
	c0.062,0.283,0.116,0.389,0.103,0.485c-0.231,1.592-0.491,3.179-0.7,4.773c-0.225,1.717-0.37,3.444-0.607,5.159
	c-0.45,3.236-0.954,6.465-1.414,9.699c-0.699,4.906-1.326,9.824-2.092,14.722c-0.364,2.327-0.977,4.616-1.479,6.92
	c-0.495,2.263-0.994,4.526-1.479,6.739c1.195,1.25,1.643,1.562,3.087,1.986c0.942,0.276,1.903,0.489,2.86,0.712
	c2.259,0.528,4.502,1.163,6.788,1.537c2.402,0.393,4.857,0.448,7.266,0.801c3.718,0.548,7.466,0.417,11.196,0.528
	c2.895,0.085,5.803-0.349,8.708-0.513c0.742-0.043,1.432-0.226,1.945-0.71c0.903-0.851,2.008-0.8,3.067-0.765
	c2.631,0.09,5.257,0.4,7.887,0.414c5.853,0.033,11.696,0.564,17.555,0.364c1.295-0.044,2.596,0.076,3.895,0.077
	c0.824,0.001,1.658-0.184,2.469-0.104c4.251,0.416,8.497,0.006,12.743-0.027c2.595-0.021,5.188-0.138,7.781-0.199
	c2.128-0.05,4.219-0.335,6.364-0.932c0.414,0.167,0.936,0.348,1.43,0.586c1.697,0.818,3.476,1.238,5.366,1.167
	c1.809-0.068,3.618-0.141,5.428-0.185c1.729-0.043,3.462-0.039,5.192-0.081c3.462-0.085,6.923-0.26,10.384-0.263
	c3.151-0.001,6.296,0.132,9.426-0.399c2.262-0.385,4.598-0.295,6.935-1.08c-0.054-0.689-0.081-1.427-0.175-2.156
	c-0.239-1.872-0.519-3.738-0.762-5.608c-0.473-3.629-0.906-7.265-1.406-10.89c-0.394-2.846-0.897-5.678-1.289-8.524
	c-0.414-3.001-0.743-6.015-1.132-9.02c-0.282-2.186-0.63-4.365-0.891-6.553c-0.167-1.402-0.161-2.825-0.352-4.223
	c-0.312-2.298-0.723-4.583-1.083-6.874c-0.012-0.08,0.064-0.174,0.159-0.405c3.404,5.967,5.955,12.198,8.986,18.189
	c3.055,6.04,6.191,12.039,9.233,18.085c3.021,6.002,5.968,12.042,8.949,18.071c0.828,0.126,1.548,0.234,2.177,0.328
	C197.493,165.515,198.068,163.137,197.64,162.033z"/>
<path fill-rule="evenodd" clip-rule="evenodd" fill="#de4555" class="fill" d="M153.686,166.73c-3.558,0.128-6.97,0.25-10.376,0.372
	c-1.679-1.375-3.027-3.003-4.272-4.729c-2.143-2.969-4.113-6.036-5.789-9.306c-2.549-4.974-5.048-9.971-6.959-15.228
	c-1.288-3.544-2.39-7.157-3.533-10.752c-0.439-1.38-0.649-2.814-0.763-4.352c2.952-0.414,4.911-2.282,6.824-4.279
	c2.299,2.778,5.104,4.394,8.732,4.496c0.208,0.934,0.417,1.807,0.596,2.686c1.228,6.015,2.679,11.978,4.613,17.805
	c1.078,3.246,2.3,6.449,3.616,9.607c0.845,2.027,1.933,3.958,2.993,5.889c1.344,2.446,2.77,4.846,4.156,7.268
	C153.579,166.304,153.592,166.422,153.686,166.73z"/>
<path fill-rule="evenodd" clip-rule="evenodd" fill="#de4555" class="fill" d="M54.534,121.787c-0.202,1.551-0.311,3.007-0.594,4.428
	c-0.452,2.274-1.039,4.522-1.536,6.789c-0.583,2.65-1.115,5.312-1.701,7.961c-0.28,1.268-0.635,2.519-0.952,3.777
	c-0.827,3.278-1.535,6.592-2.508,9.827c-1.179,3.919-2.646,7.745-4.552,11.383c-0.181,0.346-0.403,0.667-0.641,1.059
	c-3.16-0.234-6.192-0.987-9.318-1.814c5.779-16.648,10.634-33.422,13.65-50.769c0.5-0.323,1.014-0.654,1.607-1.037
	c0.548,1.211,1.004,2.34,1.562,3.416C50.659,118.943,52.073,120.804,54.534,121.787z"/>
<path fill-rule="evenodd" clip-rule="evenodd" fill="#de4555" class="fill" d="M80.733,122.261c0,0.346,0.041,0.62-0.006,0.879
	c-0.787,4.292-1.396,8.619-2.859,12.762c-1.14,3.226-2.146,6.499-3.312,9.713c-1.274,3.513-2.733,6.96-4.483,10.263
	c-1.38,2.605-2.911,5.133-4.449,7.648c-0.529,0.863-1.269,1.6-1.949,2.363c-1.328,1.49-3.138,1.929-5.003,2.042
	c-1.486,0.091-2.986-0.063-4.48-0.12c-0.139-0.004-0.274-0.095-0.518-0.184c0.75-0.963,1.442-1.854,2.136-2.74
	c0.217-0.278,0.496-0.524,0.654-0.832c1.311-2.55,2.723-5.06,3.86-7.687c1.168-2.697,1.941-5.564,3.105-8.263
	c1.313-3.043,2.015-6.272,3.115-9.377c0.703-1.987,1.098-4.091,1.532-6.163c0.536-2.573,1.001-5.161,1.433-7.753
	c0.309-1.854,0.859-3.673,0.835-5.579c-0.002-0.221,0.094-0.444,0.143-0.65c1.63,0.936,3.171,1.918,4.796,2.727
	C76.961,122.146,78.846,122.152,80.733,122.261z"/>
<path fill-rule="evenodd" clip-rule="evenodd" fill="#de4555" class="fill" d="M70.854,107.387c1.093-1.451,2.054-2.88,3.171-4.176
	c3.171-3.675,5.784-7.746,8.578-11.695c2.301-3.254,4.266-6.697,6.254-10.13c1.339-2.31,2.465-4.742,3.795-7.057
	c2.083-3.625,3.651-7.484,5.349-11.287c0.894-2.003,1.849-3.979,2.899-5.963c-0.013,0.232-0.005,0.47-0.044,0.699
	c-0.46,2.714-0.956,5.423-1.386,8.142c-0.527,3.339-0.908,6.704-1.522,10.025c-0.645,3.478-1.477,6.916-2.411,10.337
	c-1.076,3.938-1.798,7.972-2.671,11.965c-0.477,2.185-0.949,4.371-1.416,6.557c-0.131,0.614-0.183,1.25-0.365,1.847
	c-0.165,0.542-0.457,1.047-0.698,1.58C83.865,107.673,77.424,108.593,70.854,107.387z"/>
<path fill-rule="evenodd" clip-rule="evenodd" fill="#de4555" class="fill" d="M171.758,165.833c-1.67,0.15-3.068,0.274-4.576,0.409
	c-0.74-1.555-1.54-3.005-2.14-4.537c-1.808-4.612-3.583-9.243-4.871-14.034c-0.825-3.072-1.571-6.169-2.245-9.278
	c-0.699-3.229-1.331-6.474-1.874-9.731c-0.451-2.716-0.733-5.459-1.084-8.191c-0.029-0.23-0.003-0.467-0.003-0.817
	c1.645-0.562,3.119-1.412,4.055-3.202c1.792,2.865,4.505,4.326,7.274,5.965c0.851,7.205,1.706,14.471,2.566,21.736
	C169.713,151.365,170.902,158.534,171.758,165.833z"/>
<path fill-rule="evenodd" clip-rule="evenodd" fill="#de4555" class="fill" d="M126.458,107.823c-5.572,0-10.908,0-16.359,0
	c-0.187-0.604-0.444-1.182-0.539-1.785c-0.446-2.83-1.118-5.62-1.32-8.498c-0.145-2.072-0.681-4.113-0.927-6.182
	c-0.381-3.194-0.671-6.4-0.986-9.602c-0.316-3.209-0.613-6.422-0.928-9.631c-0.264-2.699-0.734-5.374-0.722-8.104
	c0.006-1.406-0.285-2.813-0.438-4.22c-0.029-0.271-0.039-0.544,0.137-0.865c0.474,1.648,0.943,3.298,1.421,4.945
	c0.699,2.413,1.331,4.849,2.132,7.228c0.487,1.446,1.242,2.802,1.87,4.2c1.755,3.906,3.471,7.83,5.273,11.713
	c1.091,2.354,2.332,4.637,3.472,6.969c1.068,2.187,2.062,4.411,3.14,6.592c1.155,2.338,2.639,4.469,4.247,6.516
	C126.049,107.25,126.157,107.409,126.458,107.823z"/>
<path fill-rule="evenodd" clip-rule="evenodd" fill="#de4555" class="fill" d="M96.928,59.341c-0.479,0.798-0.933,1.612-1.442,2.39
	c-1.897,2.896-3.848,5.74-6.214,8.304c-2.721,2.946-5.252,6.067-7.865,9.113c-0.128,0.149-0.245,0.311-0.386,0.446
	c-2.721,2.62-5.407,5.278-8.182,7.84c-1.961,1.81-3.984,3.564-6.088,5.206c-2.602,2.028-5.318,3.911-7.979,5.863
	c-1.269,0.931-2.522,1.881-3.784,2.82c-2.212,1.646-4.546,3.093-7.076,4.375c-2.396-0.305-4.831-0.616-7.266-0.928
	c-0.013-0.086-0.027-0.175-0.042-0.261c0.489-0.301,0.993-0.578,1.464-0.902c2.427-1.675,4.862-3.336,7.262-5.047
	c2.015-1.438,3.964-2.97,5.985-4.4c1.024-0.724,2.158-1.292,3.21-1.981c1.347-0.882,2.703-1.761,3.986-2.733
	c2.596-1.968,5.178-3.957,7.706-6.011c2.35-1.908,4.57-3.976,6.94-5.856c2.868-2.277,5.607-4.697,8.291-7.176
	c3.118-2.881,6.114-5.893,9.142-8.868c0.751-0.739,1.422-1.557,2.129-2.338C96.791,59.243,96.859,59.291,96.928,59.341z"/>
<path fill-rule="evenodd" clip-rule="evenodd" fill="#de4555" class="fill" d="M108.931,62.363c0.752,0.931,1.514,1.854,2.254,2.794
	c2.094,2.651,4.063,5.411,6.298,7.937c2.315,2.617,4.704,5.178,7.345,7.499c2.804,2.463,5.392,5.173,8.182,7.653
	c2.38,2.116,4.914,4.058,7.38,6.075c2.01,1.644,3.989,3.328,6.042,4.914c1.897,1.467,3.846,2.875,5.834,4.214
	c1.031,0.694,2.199,1.187,3.467,1.854c-1.737,0.602-3.42,0.416-5.05,0.58c-1.679,0.167-3.373,0.178-5.029,0.256
	c-4.696-2.992-8.962-6.474-12.89-10.342c-2.686-2.646-5.234-5.444-7.689-8.308c-1.607-1.875-2.961-3.971-4.383-6
	c-3.092-4.413-6.119-8.866-8.726-13.593c-0.815-1.479-1.794-2.866-2.689-4.302c-0.215-0.345-0.396-0.711-0.594-1.069
	C108.767,62.471,108.85,62.417,108.931,62.363z"/>
<path fill-rule="evenodd" clip-rule="evenodd" fill="#de4555" class="fill" d="M130.863,165.635c-1.516-0.56-2.889-1.405-4.128-2.418
	c-2.132-1.742-4.187-3.58-6.27-5.381c-3.324-2.873-6.207-6.15-8.794-9.685c-3.13-4.277-5.499-8.945-7.222-13.973
	c-0.999-2.91-1.827-5.846-2.419-8.854c-0.066-0.336-0.078-0.683-0.114-1.019c1.515-0.32,2.931-0.619,4.429-0.936
	c0.093,0.209,0.23,0.438,0.3,0.683c1.219,4.278,2.51,8.532,4.349,12.594c1.557,3.442,3.048,6.916,4.971,10.182
	c2.119,3.6,4.428,7.065,6.982,10.378c2.253,2.92,4.898,5.43,7.646,7.854c0.146,0.127,0.338,0.202,0.507,0.302
	C131.021,165.453,130.942,165.544,130.863,165.635z"/>
<path fill-rule="evenodd" clip-rule="evenodd" fill="#de4555" class="fill" d="M145.347,107.247c0.296,2.378,0.58,4.665,0.912,7.333
	c-0.982,2.361-2.771,4.435-5.707,5.331c-0.373,0.114-0.772,0.212-1.158,0.203c-2.636-0.06-5.178-0.509-7.368-2.104
	c-0.694-0.506-1.336-1.106-1.912-1.745c-0.613-0.682-0.944-1.496-0.979-2.465c-0.042-1.135-0.257-2.263-0.404-3.393
	c-0.061-0.46-0.136-0.917-0.217-1.461C134.173,108.374,139.74,107.812,145.347,107.247z"/>
<path fill-rule="evenodd" clip-rule="evenodd" fill="#de4555" class="fill" d="M69.613,108.348c-0.174,1.727-0.33,3.276-0.487,4.835
	c-1.616,1.857-3.465,3.452-5.759,4.394c-3.365,1.381-6.716,1.434-10.001-0.381c-1.732-0.958-2.435-2.508-2.672-4.335
	c-0.246-1.888-0.149-3.763,0.482-5.628C57.292,107.603,63.391,107.971,69.613,108.348z"/>
<path fill-rule="evenodd" clip-rule="evenodd" fill="#de4555" class="fill" d="M65.854,167.252c0.324-0.29,0.562-0.544,0.838-0.743
	c3.424-2.448,6.229-5.505,8.787-8.817c1.8-2.331,3.7-4.588,5.42-6.974c1.258-1.745,2.33-3.628,3.426-5.484
	c1.521-2.569,3.018-5.153,4.466-7.765c0.913-1.648,1.614-3.42,2.598-5.022c1.415-2.3,2.204-4.855,3.266-7.298
	c0.188-0.43,0.292-0.896,0.449-1.339c0.141-0.396,0.301-0.785,0.465-1.206c1.241,0.454,2.367,0.865,3.543,1.294
	c-0.071,0.363-0.104,0.672-0.193,0.963c-1.593,5.214-3.719,10.175-6.659,14.797c-1.603,2.521-3.057,5.136-4.954,7.459
	c-2.241,2.741-4.466,5.495-6.755,8.194c-0.938,1.105-2.037,2.07-3.04,3.122c-0.787,0.826-1.553,1.672-2.298,2.535
	c-1.899,2.204-4.153,3.953-6.713,5.318c-0.347,0.185-0.659,0.432-1.009,0.609C67.021,167.136,66.563,167.484,65.854,167.252z"/>
<path fill-rule="evenodd" clip-rule="evenodd" fill="#de4555" class="fill" d="M108.7,109.69c0.022,0.509,0.119,0.938,0.042,1.334
	c-0.253,1.31-0.433,2.657-0.886,3.902c-1.325,3.64-5.053,5.915-9.342,4.722c-2.643-0.735-4.53-2.473-5.752-4.903
	c-0.778-1.547-0.813-3.234-0.847-4.966c0.285-0.051,0.471-0.113,0.656-0.114c2.907-0.024,5.82-0.168,8.719-0.019
	C103.717,109.771,106.136,109.969,108.7,109.69z"/>
<path fill-rule="evenodd" clip-rule="evenodd" fill="#de4555" class="fill" d="M104.292,38.18c-0.315-2.22-0.186-4.514-0.138-6.886
	c2.621,0.187,4.974,0.608,6.649,2.732c0.487,0.617,1.04,1.182,1.582,1.752c2.73,2.866,6.314,4.113,10.295,2.73
	c0.247-0.085,0.498-0.162,0.765-0.248c0.177,0.565-0.184,0.783-0.458,1.043c-1.641,1.563-3.672,2.012-5.8,1.687
	c-1.974-0.3-3.908-0.884-5.844-1.403c-1.175-0.317-2.296-0.855-3.482-1.098C106.727,38.257,105.537,38.277,104.292,38.18z"/>
<path fill-rule="evenodd" clip-rule="evenodd" fill="#de4555" class="fill" d="M166.05,118.721c-0.649-0.412-1.337-0.773-1.937-1.248
	c-1.616-1.28-3.006-2.717-3.472-4.856c-0.366-1.682-0.877-3.332-1.311-5.001c-0.097-0.371-0.128-0.758-0.207-1.237
	c1.63-0.29,3.188-0.568,4.799-0.855c0.771,4.271,1.557,8.633,2.344,12.995C166.195,118.586,166.122,118.653,166.05,118.721z"/>
<path fill-rule="evenodd" clip-rule="evenodd" fill="#de4555" class="fill" d="M104.818,26.764c-0.506,0.347-0.854,0.678-1.268,0.847
	c-0.591,0.242-1.181-0.043-1.363-0.55c-0.182-0.505,0.055-1.165,0.604-1.362c0.484-0.175,1.025-0.188,1.633-0.29
	C104.575,25.927,104.677,26.279,104.818,26.764z"/>
</svg>
