<svg version="1.1" id="svg" xmlns="http://www.w3.org/2000/svg" xmlns:xlink="http://www.w3.org/1999/xlink" x="0px" y="0px"
	 width="200px" height="200px" viewBox="0 0 200 200" enable-background="new 0 0 200 200" xml:space="preserve">
<path class="stroke" fill="#6e3411"  d="M157.933,95.448c-0.073-1.684,0.013-3.398-0.29-5.04c-0.514-2.787-1.346-5.509-3.078-7.832
	c-1.212-1.625-2.587-3.098-4.66-3.62c-0.991-0.25-1.996-0.534-3.007-0.593c-2.022-0.117-4.057-0.179-6.079-0.097
	c-2.118,0.086-4.227,0.376-6.342,0.561c-1.569,0.136-3.16,0.13-4.708,0.392c-3.166,0.537-6.307,1.228-9.463,1.823
	c-1.812,0.342-3.641,0.594-5.452,0.941c-1.251,0.24-2.484,0.57-3.722,0.86c-1.674-1.109-3.312-2.201-4.959-3.282
	c-1.328-0.872-2.591-1.883-4.015-2.553c-1.657-0.78-3.454-1.267-5.196-1.862c-1.406-0.48-2.636-0.212-3.775,0.786
	c-1.098,0.962-2.282,1.828-3.451,2.704c-2.686,2.013-5.435,3.943-8.067,6.023c-2.845,2.25-5.436,4.804-8.472,6.836
	c-2.605,1.744-5.34,3.163-8.345,4.009c-2.057,0.58-4.152,1.039-6.252,1.443c-2.656,0.512-5.386,0.687-7.939,1.664
	c-2.752,1.054-5.201,2.483-6.309,5.465c-0.686,1.844-1.021,3.699-0.2,5.574c0.696,1.587,1.436,3.159,2.222,4.704
	c0.92,1.809,2.256,3.312,3.652,4.768c2.129,2.218,4.532,4.044,7.428,5.135c3.559,1.341,7.101,2.761,10.829,3.572
	c2.537,0.552,5.099,1.079,7.678,1.33c3.561,0.346,7.145,0.53,10.723,0.582c3.702,0.052,7.306-0.682,10.7-2.196
	c3.118-1.39,6.167-2.874,8.995-4.871c2.606-1.84,5.47-3.341,8.856-3.455c2.398-0.08,4.654,0.044,6.708,1.503
	c1.622,1.151,3.428,2.067,5.407,2.358c2.158,0.317,4.354,0.53,6.531,0.521c3.353-0.013,6.688-0.39,9.895-1.464
	c1.533-0.513,3.093-1.001,4.532-1.72c1.016-0.507,1.893-1.333,2.754-2.104c0.979-0.876,2.063-1.728,2.756-2.811
	c0.945-1.476,1.608-3.142,2.301-4.765c0.283-0.663,0.335-1.425,0.479-2.145c0.32-1.597,0.705-3.185,0.929-4.795
	c0.243-1.749,0.376-3.516,0.477-5.279C158.063,97.498,157.977,96.47,157.933,95.448z"/>
<path fill-rule="evenodd" clip-rule="evenodd" fill="#ffd624" class="fill" d="M135.088,99.696c-1.013,0.579-1.732,0.95-2.411,1.386
	c-1.057,0.679-0.924,1.707-0.764,2.752c0.12,0.778,0.23,1.568,0.229,2.353c-0.001,0.661-0.432,0.988-1.097,1.2
	c-1.029,0.33-2.044,0.89-2.158,2.1c-0.076,0.809,0.194,1.651,0.319,2.478c0.036,0.237,0.109,0.468,0.21,0.895
	c-0.865-0.178-1.593-0.295-2.303-0.478c-2.426-0.623-4.82-1.406-7.275-1.871c-3.046-0.577-6.135-0.816-9.26-0.719
	c-3.846,0.12-7.453,1.153-11.07,2.324c-3.879,1.254-7.793,2.414-11.827,3.106c-2.515,0.431-5.008,1.002-7.528,1.39
	c-3.292,0.508-6.603,0.456-9.904,0.003c-1.354-0.186-2.743-0.256-4.046-0.624c-2.237-0.632-4.205-1.842-6.016-3.299
	c-1.597-1.284-2.596-3.038-3.736-4.688c-0.756-1.092-1.758-1.902-3.057-2.314c-0.92-0.292-1.87,0.014-2.376,0.826
	c-0.048,0.078-0.108,0.151-0.143,0.234c-0.393,0.943-1.057,1.365-2.101,1.179c-1.013-0.181-1.807-0.647-2.207-1.618
	c-0.112-0.27-0.175-0.688-0.043-0.911c0.727-1.232,1.432-2.495,2.316-3.611c0.918-1.16,2.323-1.624,3.72-1.983
	c1.148-0.296,2.307-0.543,3.504-0.823c0.725,1.291,1.955,0.47,3.027,0.757c-0.316,0.719-1.364,1.367-0.605,2.14
	c0.406,0.415,1.274,0.377,1.912,0.539c0.61-0.812,1.064-1.438,0.923-2.369c-0.141-0.932-1.04-1.122-1.549-1.815
	c0.924-0.2,1.813-0.413,2.713-0.57c0.194-0.034,0.427,0.12,0.635,0.207c0.688,0.286,1.374,0.58,2.036,0.86
	c-0.19,0.576-0.43,1.174-0.579,1.793c-0.15,0.628,0.2,1.004,0.792,1.151c0.594,0.148,1.031-0.085,1.293-0.629
	c0.543-1.128,0.441-2.261-0.133-3.323c-0.172-0.316-0.625-0.48-0.93-0.701c0.614-0.298,1.229-0.62,1.867-0.888
	c0.156-0.067,0.396,0.013,0.582,0.075c0.856,0.285,1.707,0.587,2.634,0.909c-0.214,0.569-0.476,1.263-0.703,1.867
	c0.464,0.757,1.027,0.941,1.682,0.79c0.64-0.148,0.806-0.67,0.853-1.258c0.049-0.606,0.12-1.21,0.187-1.861
	c-0.754-0.575-1.451-1.106-2.036-1.552c2.167-1.42,4.422-2.898,6.517-4.271c1.48,0,2.834,0,4.114,0
	c0.896,1.021,1.633,2.057,2.56,2.877c2.042,1.807,4.292,3.365,6.894,4.244c2.499,0.843,5.064,1.492,7.608,2.2
	c0.734,0.205,1.396-0.049,1.961-0.534c1.519-1.305,3.109-2.539,4.517-3.955c1.145-1.15,2.079-2.514,3.084-3.8
	c0.463-0.592,0.891-1.213,1.3-1.843c0.268-0.412,0.474-0.865,0.727-1.336c-0.24-0.261-0.393-0.494-0.605-0.645
	c-1.85-1.32-3.693-2.653-5.575-3.927c-1.368-0.925-2.781-1.79-4.198-2.64c-1.46-0.875-2.551-2.098-3.625-3.664
	c-0.503,0.029-1.156,0.066-1.805,0.103c0.443-0.886,0.75-0.988,1.646-0.794c3.322,0.721,6.138,2.522,9.026,4.172
	c3.208,1.834,5.922,4.333,8.828,6.575c2.609,2.014,5.366,3.841,8.613,4.663c1.762,0.445,3.58,0.716,5.389,0.923
	c2.243,0.256,4.501,0.367,6.754,0.534c0.31,0.022,0.624,0.003,1.092,0.003c-1.249,1.207-0.657,2.48-0.422,3.765
	C135.195,98.459,135.088,99.21,135.088,99.696z"/>
<path fill-rule="evenodd" clip-rule="evenodd" fill="#ffd624" class="fill" d="M139.613,88.933c-0.35,0.06-0.7,0.125-1.051,0.179
	c-2.319,0.354-4.647,0.661-6.957,1.071c-2.527,0.448-5.077,0.661-7.614,0.425c-1.204-0.112-2.439-0.633-3.512-1.234
	c-1.664-0.932-3.199-2.093-4.789-3.158c-0.091-0.061-0.172-0.137-0.379-0.306c0.681-0.144,1.239-0.276,1.802-0.378
	c3.541-0.646,7.083-1.287,10.625-1.927c0.113-0.02,0.242-0.067,0.339-0.031c1.528,0.551,3.108-0.032,4.64,0.211
	c1.22,0.195,2.418,0.532,3.625,0.806c-0.005,0.061-0.01,0.12-0.016,0.181c-0.92,0.175-1.866,0.27-2.754,0.55
	c-0.883,0.279-1.708,0.743-2.557,1.126c0.03,0.12,0.062,0.241,0.092,0.361c2.451-0.555,4.905-0.994,7.632-0.324
	c-0.401,0.16-0.612,0.269-0.836,0.331c-1.625,0.445-3.258,0.859-4.875,1.335c-0.353,0.104-0.645,0.414-0.965,0.628
	c0.04,0.091,0.079,0.181,0.118,0.271c0.619-0.159,1.257-0.265,1.852-0.488C135.938,87.845,137.78,88.032,139.613,88.933z"/>
<path fill-rule="evenodd" clip-rule="evenodd" fill="#ffd624" class="fill" d="M121.229,83.517c-0.715-0.337-1.285-0.605-1.944-0.916
	c0.167-0.1,0.246-0.179,0.336-0.196c3.31-0.631,6.612-1.309,9.935-1.863c1.637-0.272,3.313-0.313,4.971-0.466
	c1.787-0.165,3.574-0.329,5.359-0.512c3.172-0.326,6.354-0.42,9.461,0.362c2.173,0.546,3.66,2.132,4.61,4.084
	c0.292,0.601,0.104,1.595-0.175,2.283c-0.654,1.618-2.089,2.512-3.523,3.404c-2.873,1.787-6.091,2.23-9.348,2.577
	c-1.562,0.165-3.123,0.33-4.408,0.466c-0.995-0.476-1.722-0.823-2.45-1.171c0.007-0.045,0.013-0.089,0.021-0.134
	c2.229-0.273,4.457-0.559,6.688-0.815c2.073-0.238,4.16-0.556,5.964-1.614c1.351-0.793,2.574-1.861,3.694-2.97
	c1.034-1.025,0.551-2.758-0.702-3.502c-1.767-1.051-3.665-1.653-5.695-1.724c-1.171-0.041-2.349,0.183-3.525,0.267
	c-2.361,0.168-4.733,0.241-7.083,0.505c-2.531,0.284-5.045,0.729-7.562,1.128C124.278,82.96,122.712,83.256,121.229,83.517z"/>
<path fill-rule="evenodd" clip-rule="evenodd" fill="#ffd624" class="fill" d="M95.562,92.46c-0.899-0.91-1.253,0.474-2.06,0.483
	c-0.1-0.052-0.313-0.163-0.631-0.329c0.198-0.381,0.366-0.707,0.543-1.048c-0.332-0.511-0.332-0.511-1.847,0.063
	c-0.144-0.109-0.318-0.241-0.506-0.385c0.101-0.329,0.189-0.622,0.345-1.132c-0.475,0-0.828,0.021-1.176-0.006
	c-0.358-0.027-0.712-0.102-1.169-0.171c0.205-0.391,0.328-0.625,0.479-0.912c-0.471-0.817-1.38-0.069-1.977-0.56
	c1.458-2.124,3.655-3.413,5.812-4.912c0.133,0.052,0.352,0.137,0.67,0.261c-0.177,0.489-0.335,0.924-0.498,1.373
	c0.633,0.818,1.292,0.015,2.034,0.009c-0.076,0.485-0.144,0.919-0.219,1.411c0.76,0.829,1.361-0.179,2.194-0.261
	c-0.107,0.44-0.197,0.809-0.305,1.251c0.172,0.12,0.37,0.258,0.539,0.375c0.574-0.132,1.098-0.253,1.773-0.409
	c0,0.455,0,0.798,0,1.203c0.495,0.89,1.655-0.333,2.17,0.696c-0.038,0.098-0.107,0.279-0.155,0.406
	c-0.437,0.071-0.811,0.132-1.184,0.194c-0.012,0.075-0.024,0.148-0.037,0.223c0.227,0.188,0.454,0.376,0.812,0.672
	c-0.347,0.15-0.622,0.293-0.913,0.388c-0.272,0.09-0.561,0.13-1.059,0.239c0.406,0.341,0.62,0.521,0.897,0.754
	c-0.059,0.182-0.131,0.406-0.21,0.65c-0.486,0-0.917,0-1.375,0c-0.026,0.726-0.169,1.269-1.025,1.411
	c0.05-0.454,0.092-0.84,0.137-1.243c-0.938-0.766-1.271,0.41-1.907,0.589C95.018,93.404,95.531,92.926,95.562,92.46z M90.582,87.86
	c-0.051-0.076-0.103-0.152-0.155-0.229c-0.369,0-0.737,0-1.106,0c-0.038,0.085-0.075,0.169-0.112,0.253
	c0.238,0.19,0.476,0.381,0.794,0.636C90.233,88.257,90.407,88.059,90.582,87.86z M91.835,87.382
	c0.075-0.364,0.135-0.655,0.198-0.958c-0.72-0.131-0.994,0.174-1.193,0.776C91.181,87.262,91.451,87.312,91.835,87.382z
	 M94.892,89.796c0.007,0.088,0.014,0.177,0.021,0.265c0.292,0.027,0.646,0.165,0.859,0.048c0.212-0.118,0.282-0.491,0.415-0.752
	c-0.074-0.056-0.148-0.113-0.221-0.169C95.607,89.39,95.249,89.593,94.892,89.796z M93.448,90.378
	c-0.013,0.132-0.026,0.264-0.04,0.396c0.35,0.105,0.7,0.21,1.127,0.339c0-0.387,0-0.593,0-0.931
	C94.119,90.257,93.783,90.317,93.448,90.378z M97.706,89.469c-0.424,0.29-0.709,0.484-0.994,0.68
	c0.018,0.092,0.036,0.186,0.053,0.279c0.298,0.064,0.595,0.128,0.94,0.203C97.706,90.222,97.706,89.964,97.706,89.469z
	 M92.649,89.358c-0.582-0.529-0.864-0.507-1.121,0.056C92.049,89.954,92.308,89.949,92.649,89.358z M91.882,87.92
	c0.001,0.073,0.001,0.146,0.002,0.219c0.25,0.102,0.5,0.205,0.854,0.349c0.105-0.397,0.184-0.693,0.263-0.99
	c-0.06-0.042-0.119-0.086-0.179-0.129C92.508,87.554,92.195,87.737,91.882,87.92z M96.75,90.968
	c-0.435,0.126-0.738,0.214-1.056,0.307c0.214,0.751,0.642,0.562,1.111,0.464C96.79,91.533,96.776,91.348,96.75,90.968z
	 M93.032,86.103c-0.02,0.116-0.039,0.231-0.059,0.348c0.348,0.121,0.696,0.242,1.044,0.363c0.048-0.067,0.097-0.134,0.145-0.201
	c-0.063-0.197-0.125-0.394-0.217-0.681C93.603,85.996,93.317,86.05,93.032,86.103z M93.507,88.782
	c0.004,0.118,0.009,0.235,0.014,0.353c0.233,0.068,0.497,0.237,0.69,0.177c0.192-0.059,0.312-0.35,0.464-0.539
	c-0.052-0.091-0.104-0.182-0.156-0.274C94.182,88.594,93.845,88.688,93.507,88.782z M91.976,85.546
	c0.342,0.094,0.683,0.189,1.133,0.314C92.884,84.982,92.599,84.884,91.976,85.546z M96.672,88.688
	c0.333,0.517,0.672,0.568,1.083,0.169C97.377,88.178,97.116,88.134,96.672,88.688z M99.275,90.792
	c-0.496-0.585-0.688-0.58-1.036,0.024C98.596,91.149,98.935,91.298,99.275,90.792z M95.539,87.727
	c0.034-0.118,0.067-0.235,0.1-0.353c-0.214-0.103-0.423-0.271-0.644-0.286c-0.154-0.01-0.323,0.189-0.485,0.296
	c0.016,0.073,0.032,0.146,0.048,0.218C94.885,87.644,95.212,87.686,95.539,87.727z M99.47,89.722
	c0.014-0.093,0.027-0.186,0.042-0.279c-0.322-0.044-0.644-0.088-1.111-0.153C98.73,90.116,99.088,89.979,99.47,89.722z
	 M98.186,91.767c-0.055-0.068-0.11-0.136-0.166-0.205c-0.259,0.038-0.517,0.077-0.775,0.116c-0.018,0.085-0.035,0.172-0.052,0.257
	c0.229,0.098,0.454,0.245,0.69,0.266C97.971,92.21,98.085,91.921,98.186,91.767z"/>
<path fill-rule="evenodd" clip-rule="evenodd" fill="#ffd624" class="fill" d="M86.584,87.552c-0.106-0.239-0.252-0.566-0.397-0.893
	c-0.21-0.468-0.53-0.708-1.08-0.615c-0.642,0.108-1.292,0.165-1.978,0.151c2.091-1.718,4.22-3.341,6.436-4.74
	c1.205,0.724,2.596-0.033,3.59,0.945C90.973,84.111,88.821,85.797,86.584,87.552z M89.125,82.701
	c-0.626-0.071-1.017,0.046-0.921,0.923c0.401-0.032,0.787-0.062,1.332-0.104C89.325,83.101,89.221,82.894,89.125,82.701z
	 M86.132,84.514c-0.008,0.092-0.017,0.185-0.025,0.277c0.304,0.172,0.608,0.344,1.079,0.61c0.143-0.409,0.245-0.695,0.345-0.983
	c-0.069-0.06-0.139-0.119-0.208-0.18C86.926,84.331,86.529,84.422,86.132,84.514z M90.116,82.116
	c-0.027,0.077-0.055,0.152-0.083,0.229c0.297,0.108,0.594,0.216,0.958,0.35C90.925,81.942,90.721,81.845,90.116,82.116z"/>
<path fill-rule="evenodd" clip-rule="evenodd" fill="#ffd624" class="fill" d="M84.523,87.316c-0.942,0.06-1.82,0.114-2.754,0.173
	c0.273-0.476,0.273-0.46,1.512-0.429c0.565,0.015,1.133-0.051,1.766-0.084c1.242,2.664,3.598,4.318,5.973,5.789
	c2.372,1.468,4.928,2.724,7.726,3.231c-0.35,0.6-0.716,0.766-1.61,0.485c-1.302-0.409-2.67-0.729-3.852-1.375
	c-2.581-1.412-5.054-3.019-6.938-5.35C85.715,88.978,85.143,88.15,84.523,87.316z"/>
<path fill-rule="evenodd" clip-rule="evenodd" fill="#ffd624" class="fill" d="M100.939,93.99c1.127-1.365,2.261-2.726,3.369-4.106
	c0.104-0.13,0.044-0.393,0.065-0.663c-0.599-0.345-1.155-0.764-1.78-1.009c-1.837-0.721-3.328-1.964-4.847-3.151
	c-1.215-0.95-2.358-1.997-3.482-3.056c-0.733-0.691-1.591-0.919-2.543-0.967c-0.347-0.018-0.693-0.045-1.04-0.069
	c0.002-0.077,0.005-0.153,0.009-0.23c0.945,0,1.892,0,2.834,0c1.977,1.717,3.954,3.463,5.965,5.169
	c1.367,1.16,2.91,2.037,4.614,2.623c0.487,0.168,0.954,0.394,1.455,0.604C104.457,91.272,102.39,92.354,100.939,93.99z"/>
<path fill-rule="evenodd" clip-rule="evenodd" fill="#ffd624" class="fill" d="M85.079,90.155c0.42,0.384,0.834,0.776,1.263,1.152
	c2.368,2.081,4.797,4.077,7.84,5.116c1.205,0.412,2.434,0.753,3.655,1.111c0.236,0.069,0.49,0.072,0.711,0.102
	c2.326-2.223,4.616-4.413,6.906-6.602c-1.676,2.886-4.426,4.683-6.884,6.9c-5.451-0.884-10.126-3.183-13.482-7.793L85.079,90.155z"
	/>
<path fill-rule="evenodd" clip-rule="evenodd" fill="#ffd624" class="fill" d="M96.396,98.287c-1.661-0.47-3.355-0.845-4.974-1.433
	c-2.203-0.8-4.103-2.167-5.943-3.598c-1.051-0.817-2.035-2.236-2.381-3.36c-0.158-0.089-0.333-0.187-0.508-0.285
	c0.024-0.056,0.049-0.11,0.074-0.166c0.267,0.127,0.598,0.193,0.79,0.393c0.852,0.889,1.646,1.831,2.495,2.721
	c0.453,0.475,0.988,0.872,1.47,1.32c2.271,2.111,5.003,3.29,7.979,3.995c0.343,0.081,0.657,0.284,0.984,0.429L96.396,98.287z"/>
<path fill-rule="evenodd" clip-rule="evenodd" fill="#ffd624" class="fill" d="M96.382,98.304c0.134,0.022,0.273,0.028,0.4,0.069
	c1.237,0.405,2.271,0.308,3.275-0.729c1.544-1.597,3.26-3.026,4.886-4.544c0.341-0.319,0.607-0.717,0.908-1.078
	c0.069,0.053,0.138,0.106,0.207,0.16c-0.61,0.785-1.135,1.658-1.847,2.337c-1.443,1.376-2.973,2.664-4.492,3.957
	c-0.696,0.592-2.442,0.459-3.322-0.188C96.396,98.287,96.382,98.304,96.382,98.304z"/>
<path fill-rule="evenodd" clip-rule="evenodd" fill="#ffd624" class="fill" d="M85.089,90.141c-0.363-0.401-0.725-0.803-1.208-1.337
	c-1.268,0-2.653,0-4.038,0c-0.013-0.107-0.025-0.214-0.038-0.321c0.474-0.104,0.946-0.28,1.422-0.296
	c0.795-0.028,1.595,0.036,2.391,0.087c0.166,0.01,0.392,0.093,0.474,0.218c0.354,0.538,0.665,1.104,0.988,1.662
	C85.079,90.155,85.089,90.141,85.089,90.141z"/>
<path fill-rule="evenodd" clip-rule="evenodd" fill="#ffd624" class="fill" d="M98.664,82.526c2.511,1.249,4.688,2.993,6.934,4.638
	c-0.048,0.07-0.096,0.141-0.143,0.211c-2.303-1.558-4.606-3.117-6.908-4.676C98.586,82.642,98.625,82.584,98.664,82.526z"/>
<path fill-rule="evenodd" clip-rule="evenodd" fill="#ffd624" class="fill" d="M104.164,87.508c-2.124-0.703-3.873-1.964-5.377-3.588
	C100.579,85.116,102.372,86.312,104.164,87.508z"/>
<path fill-rule="evenodd" clip-rule="evenodd" fill="#ffd624" class="fill" d="M78.782,89.369c1.251,0.074,2.261,0.134,3.271,0.194
	c0.001,0.046,0.002,0.092,0.004,0.138c-1.171,0-2.343,0-3.635,0C78.627,89.512,78.778,89.372,78.782,89.369z"/>
</svg>
