<svg version="1.1" id="svg" xmlns="http://www.w3.org/2000/svg" xmlns:xlink="http://www.w3.org/1999/xlink" x="0px" y="0px"
	 width="200px" height="200px" viewBox="0 0 200 200" enable-background="new 0 0 200 200" xml:space="preserve">
<path class="stroke" fill="#561906"  d="M135.483,114c0.755,0.447,1.291,0.201,1.648-0.351c0.465-0.716,0.908-1.466,1.223-2.257c0.48-1.21,0.662-2.438-0.291-3.574
	c-0.251-0.299-0.359-0.717-0.525-1.084c-0.781-1.724-1.244-3.624-2.78-4.929c-0.175-0.149-0.219-0.448-0.343-0.666
	c-0.816-1.437-1.555-2.928-2.484-4.288c-0.793-1.16-1.762-2.212-2.736-3.232c-1.284-1.344-2.555-2.729-4.002-3.882
	c-1.789-1.423-3.798-2.071-6.211-1.427c-1.761,0.47-3.504,0.916-5.15,1.704c-0.221,0.105-0.461,0.172-0.888,0.329
	c-0.195-1.203-0.376-2.311-0.55-3.379c2.26-1.42,4.34-2.832,5.637-4.908c3.288,0,6.404,0,9.768,0
	c2.02,1.581,4.465,2.563,7.356,1.884c0.472-0.932,0.086-1.613-0.589-2.14c-0.472-0.368-1.018-0.685-1.578-0.884
	c-1.327-0.471-2.419-1.231-3.277-2.361c-0.885-0.323-1.755-0.812-2.676-0.943c-2.089-0.297-4.2-0.494-6.309-0.575
	c-0.879-0.034-1.795,0.554-2.653,0.466c-1.52-0.157-2.497,0.628-3.463,1.523c-0.919,0.85-1.777,1.766-2.719,2.708
	c-1.132-2.165-2.222-4.251-3.312-6.338c-0.165-0.284-0.201-0.646-0.121-0.981c0.494-2.112,0.896-4.256,1.559-6.316
	c0.881-2.734,1.934-5.416,2.982-8.093c1.285-3.284,2.49-6.608,4.383-9.621c1.258-2.003,2.479-4.03,3.715-6.049
	c0.188-0.309,0.528-0.611,0.112-1.089c-1.507,1.22-2.737,2.632-3.698,4.216c-1.671,2.753-3.506,5.427-4.566,8.515
	c-0.36,1.049-0.734,2.099-1.198,3.104c-1.986,4.316-3.521,8.789-4.731,13.378c-0.124,0.473-0.289,0.935-0.49,1.576
	c-2.48-1.385-4.95-1.035-7.449-0.303c-0.32-0.634-0.574-1.118-0.814-1.609c-0.771-1.583-1.488-3.194-2.314-4.748
	c-2.882-5.422-6.89-9.79-12.246-12.859c-0.751-0.43-1.541-0.834-2.753-0.46c3.882,2.668,7.655,5.01,10.223,8.782
	c2.537,3.728,4.663,7.642,5.996,11.908c-0.265,0.758-0.411,1.519-0.571,2.277c-0.062,0.287-0.139,0.573-0.242,0.847
	c-0.497,1.312-1.006,2.621-1.535,3.992c-1.607-0.392-1.944-2.436-3.349-3.008c-1.739,0.245-3.343,0.435-4.932,0.704
	c-2.203,0.375-4.361,0.888-5.82,2.693c-2.38,0.391-4.133-0.875-5.838-1.978c-0.954,0.407-1.062,1.173-1.294,2.144
	c0.52,0.67,1.037,1.546,1.752,2.21c1.369,1.274,3.042,1.213,4.703,0.681c0.753-0.241,1.441-0.228,2.215-0.098
	c1.961,0.328,3.924,0.308,5.817-0.448c0.414-0.166,0.848-0.284,1.365-0.456c1.151,2.039,2.479,3.863,4.835,4.689
	c-0.174,0.532-0.307,0.94-0.417,1.279c-1.428-0.494-2.735-1.007-4.078-1.393c-1.153-0.331-2.197-0.053-3.026,1.006
	c-0.076,0.37-0.168,0.809-0.218,1.049c-1.6,2.013-3.091,3.857-4.547,5.729c-1.79,2.299-3.089,4.868-3.803,7.684
	c-0.382,1.508-0.885,2.862-2.163,3.829c-0.199,0.15-0.332,0.385-0.525,0.545c-2.244,1.854-2.814,4.441-3.191,7.052
	c0.968,1.586,1.603,1.871,3.363,1.5c0-0.811,0-1.646,0-2.317c0.165-0.249,0.205-0.351,0.279-0.414
	c1.801-1.55,3.187-3.346,3.576-5.78c0.05-0.307,0.354-0.605,0.602-0.844c0.725-0.696,1.5-1.338,2.219-2.04
	c2.288-2.227,4.359-4.617,5.726-7.55c0.418-0.897,0.961-1.735,1.437-2.583c1.213,0.418,2.298,0.791,3.458,1.19
	c-0.123,2.072-0.245,4.114-0.362,6.086c-2.146,0.561-4.136,1.081-6.325,1.652c-0.422,0.741-0.898,1.554-1.351,2.381
	c-0.379,0.695-0.717,1.414-1.097,2.109c-0.243,0.441-0.587,0.833-0.788,1.29c-0.771,1.753-1.512,3.52-2.247,5.288
	c-1.263,3.038-2.282,6.134-2.669,9.433c-0.191,1.635-0.371,3.294-1.273,4.787c-1.964,3.252-2.721,6.922-3.455,10.587
	c-0.114,0.575-0.165,1.162-0.238,1.698c-1.355,0.401-2.822,0.137-3.746,1.528c0.231,0.499,0.478,1.026,0.713,1.531
	c2.247-0.306,4.356-0.594,6.351-0.865c0.325-1.938,0.501-3.693,0.933-5.383c0.524-2.049,1.326-4.025,1.893-6.064
	c0.494-1.778,1.32-3.359,2.346-4.871c2.382-3.516,3.769-7.449,4.676-11.559c0.335-1.513,0.494-3.065,0.76-4.764
	c1.795-0.505,3.716-1.044,5.665-1.593c0.291,1.511,0.565,2.885,0.818,4.263c0.417,2.281,0.707,4.592,1.261,6.838
	c0.65,2.639,1.436,5.254,2.323,7.823c1.276,3.691,4.493,5.982,8.722,4.36c0.282-0.108,0.588-0.157,0.863-0.278
	c3.527-1.552,6.066-3.919,6.601-7.965c0.184-1.391,0.5-2.765,0.665-4.158c0.236-1.994,0.421-3.995,0.568-5.997
	c0.139-1.902,0.202-3.81,0.297-5.682c2.547-1.078,5.612-1.575,7.104-1.156c0.877,3.953,0.774,8.004,1.028,12.022
	c0.165,2.617,0.256,5.238,0.432,7.854c0.046,0.688,0.279,1.364,0.424,2.036c0.691,0.29,1.29,0.541,1.606,0.673
	c1.335,2.038,2.358,3.983,3.747,5.619c1.42,1.67,2.036,3.992,3.919,5.062c1.108,0,2.007,0,2.878,0
	c0.268,0.393,0.506,0.741,0.923,1.35c0.346-0.715,0.582-1.206,0.847-1.754c-0.577-0.59-0.979-1.293-1.573-1.551
	c-1.58-0.687-2.137-2.019-2.634-3.474c-0.228-0.666-0.568-1.294-0.867-1.934c-1.131-2.415-2.236-4.843-3.936-6.892
	c-0.078-1.403-0.324-2.777-0.199-4.117c0.433-4.632-0.479-9.033-2.007-13.354c-0.32-0.904-0.649-1.806-0.961-2.672
	c0.247-1.687,0.103-1.937-1.192-2.99c-1.538-1.25-3.358-1.841-5.223-2.285c-1.504-0.358-3.052-0.533-4.643-0.8
	c-0.196-1.646-0.391-3.28-0.561-4.705c2.215-0.846,4.206-1.607,6.29-2.404c0.126,0.184,0.337,0.463,0.517,0.761
	c1.846,3.04,4.145,5.57,7.492,7.033c1.145,0.5,2.184,1.242,3.252,1.863c0.279,0.963,0.548,1.83,0.781,2.705
	c0.371,1.396,0.99,2.661,2.073,3.634c1.028,0.925,1.546,1.967,1.11,3.363C135.425,113.52,135.483,113.779,135.483,114z"/>
<path fill-rule="evenodd" clip-rule="evenodd" fill="#bf7512" class="fill" d="M110.296,127.536c-1.472-3.112-2.505-6.353-3.438-9.682
	c-0.268,0-0.5,0-0.844,0c-0.187,2.182,0.882,4.02,1.482,5.951c0.612,1.97,1.387,3.89,2.222,6.198
	c-0.333,0.264-0.783,0.621-1.449,1.147c-1.849-4.358-2.896-8.75-4.513-13.32c-0.316,0.519-0.617,0.783-0.588,1.003
	c0.127,0.948,0.266,1.91,0.556,2.817c0.953,2.979,1.976,5.935,2.966,8.9c0.11,0.331,0.193,0.669,0.322,1.121
	c-0.446,0.238-0.873,0.465-1.432,0.764c-0.821-1.185-1.309-2.458-1.648-3.742c-0.877-3.311-1.64-6.653-2.434-9.986
	c-0.116-0.488-0.092-1.038-0.779-1.092c-0.654,0.298-0.47,0.852-0.373,1.32c0.477,2.32,0.897,4.657,1.512,6.941
	c0.574,2.14,1.367,4.22,2.057,6.33c0.042,0.131,0.005,0.289,0.005,0.537c-0.439,0-0.86,0-1.228,0
	c-2.51-4.908-2.9-10.29-4.061-15.458c-0.924-0.016-0.948,0.448-0.851,0.998c0.351,1.986,0.63,3.988,1.069,5.955
	c0.484,2.162,1.116,4.291,1.675,6.437c0.046,0.176,0.022,0.37-0.251,0.683c-0.469-0.861-1.072-1.677-1.379-2.592
	c-0.846-2.531-1.675-5.076-2.312-7.664c-0.709-2.885-1.345-5.805-1.739-8.746c-0.367-2.738-0.554-5.528-0.496-8.289
	c0.073-3.572,0.442-7.14,0.738-10.705c0.074-0.883,0.356-1.75,0.575-2.774c0.847,0.406,1.509,0.723,2.176,1.042
	c-0.355,1.825-0.763,3.584-1.023,5.366c-0.189,1.293-0.198,2.614-0.259,3.923c-0.02,0.4,0.035,0.817,0.813,0.909
	c0.07-0.518,0.187-1.022,0.198-1.53c0.069-2.745,0.523-5.42,1.376-8.028c0.054-0.164,0.134-0.32,0.375-0.428
	c-0.221,2.679-0.441,5.357-0.653,7.934c0.26,0.235,0.353,0.362,0.478,0.421c0.123,0.058,0.278,0.047,0.518,0.08
	c0.073-0.24,0.183-0.459,0.201-0.686c0.161-2.01,0.278-4.024,0.474-6.03c0.054-0.552,0.328-1.083,0.652-1.587
	c0.08,2.715-0.595,5.413,0.318,8.053c0.037,0.106,0.334,0.122,0.666,0.231c0.115-2.783-0.299-5.493,0.608-8.098
	c0.698,2.292-0.19,4.81,0.835,7.04c0.136-0.006,0.271-0.012,0.408-0.018c0-1.454,0-2.909,0-4.363
	c0.11-0.012,0.221-0.024,0.332-0.037c0.661,0.995,0.969,2.237,0.813,3.316c-0.479,3.334-1.183,6.639-1.874,9.939
	c-0.258,1.227-0.746,2.403-1.092,3.613c-0.125,0.438-0.141,0.907-0.208,1.382c1.054,0.229,1.259-0.381,1.416-0.958
	c0.583-2.14,1.175-4.279,1.685-6.438c0.393-1.664,0.772-3.344,0.969-5.039c0.279-2.436-0.424-4.803-0.742-7.196
	c-0.079-0.596-0.499-1.215,0.049-2.104c1.107,2.303,1.962,4.468,2.6,6.724c-1.085,5.413-2.172,10.825-3.279,16.342
	c0.227,0.027,0.499,0.06,0.946,0.113c1.317-4.482,2.387-8.967,2.938-13.837c0.807,0.942,0.833,1.899,1.211,2.858
	c-0.935,4.264-1.893,8.627-2.84,12.992c-0.013,0.063,0.11,0.156,0.195,0.268c0.736,0.221,0.968-0.319,1.118-0.855
	c0.353-1.262,0.673-2.533,0.974-3.809c0.334-1.412,0.631-2.833,1.074-4.242c0.623,1.609,1.142,3.17,0.379,4.917
	c-0.439,1.004-0.59,2.133-0.889,3.2c-0.34,1.214-0.711,2.418-1.045,3.634c-0.074,0.273-0.051,0.574-0.074,0.884
	c0.68,0.323,1.006,0.051,1.195-0.514c0.256-0.765,0.512-1.53,0.757-2.299c0.165-0.516,0.311-1.038,0.499-1.673
	C111.699,117.508,111.336,124.782,110.296,127.536z M99.101,113.924c0-0.516,0.052-0.769-0.009-0.99
	c-0.488-1.784-0.982-3.566-1.523-5.334c-0.056-0.183-0.423-0.27-0.676-0.419C96.417,108.92,97.522,112.449,99.101,113.924z
	 M100.465,110.826c0.084-0.097,0.168-0.193,0.252-0.291c-0.479-1.462-0.938-2.932-1.461-4.378c-0.076-0.211-0.464-0.31-1.003-0.645
	c0.201,1.97,0.646,3.474,1.429,4.869C99.807,110.606,100.197,110.681,100.465,110.826z M100.297,103.687
	c-1.126,0.347-0.729,1.032-0.595,1.548c0.15,0.58,0.406,1.145,0.701,1.669c0.276,0.493,0.336,1.304,1.406,1.171
	C101.59,106.475,100.869,105.168,100.297,103.687z M100.797,101.821c0.255,0.989,0.346,1.877,1.488,2.079
	C102.316,102.452,102.024,102.005,100.797,101.821z"/>
<path fill-rule="evenodd" clip-rule="evenodd" fill="#bf7512" class="fill" d="M97.378,81.548c0.339,1.091-0.42,2.071,0.564,3.008
	c0.195-0.41,0.402-0.708,0.481-1.038c0.293-1.226,0.509-2.471,0.827-3.69c0.127-0.484,0.445-0.918,0.677-1.375
	c0.106,0.044,0.214,0.088,0.321,0.132c-0.152,1.12-0.367,2.236-0.441,3.361c-0.072,1.081-0.457,2.213,0.082,3.306
	c0.912-0.263,0.82-0.904,0.881-1.418c0.136-1.152,0.171-2.317,0.336-3.465c0.103-0.705,0.111-1.522,1.174-2.044
	c0.014,0.605,0.045,1.066,0.031,1.524c-0.045,1.513-0.123,3.025-0.149,4.538c-0.005,0.311,0.155,0.625,0.243,0.948
	c0.942-0.088,0.855-0.705,0.873-1.239c0.042-1.312,0.05-2.625,0.114-3.936c0.024-0.521,0.161-1.037,0.247-1.556
	c0.109,0,0.219,0.001,0.327,0.001c0.077,0.304,0.193,0.604,0.223,0.912c0.14,1.457,0.248,2.916,0.383,4.373
	c0.048,0.527,0.012,1.137,0.968,1.249c0.509-2.347-0.584-4.666-0.136-6.949c0.104-0.027,0.209-0.054,0.313-0.081
	c0.293,0.795,0.646,1.574,0.864,2.391c0.285,1.069,0.44,2.173,0.7,3.25c0.092,0.381,0.325,0.729,0.666,1.04
	c0.93-2.182-0.459-4.079-0.612-6.284c0.292,0.245,0.547,0.372,0.674,0.578c0.791,1.29,1.571,2.586,2.317,3.902
	c0.367,0.646,0.401,1.318,0.021,2.019c-0.229,0.423-0.316,0.924-0.488,1.455c-1.553,1.579-3.562,2.101-5.748,2.111
	c-1.361,0.006-2.725-0.062-4.087-0.078c-1.5-0.018-2.917-0.236-3.997-1.502C95.931,85.154,96.242,83.41,97.378,81.548z"/>
<path fill-rule="evenodd" clip-rule="evenodd" fill="#bf7512" class="fill" d="M107.374,76.809c-2.923,0.171-5.611,0.329-8.413,0.493
	C100.919,73.658,104.374,72.565,107.374,76.809z"/>
</svg>
