<svg version="1.1" xmlns="http://www.w3.org/2000/svg" xmlns:xlink="http://www.w3.org/1999/xlink" x="0px" y="0px" width="200px"
	 height="200px" viewBox="0 0 200 200" enable-background="new 0 0 200 200" xml:space="preserve">
<g id="svg">
	<g>
		<path class="stroke" fill="#6a2906"  d="M60.696,75.9c0.417-0.517,0.791-1.07,1.233-1.563c1.884-2.102,3.851-4.115,5.995-5.966
			c1.661-1.435,3.527-2.466,5.477-3.388c1.679-0.794,3.417-1.464,5.077-2.292c2.615-1.304,5.354-2.11,8.26-2.374
			c0.237-0.021,0.463-0.157,0.768-0.267c-0.358-0.727-0.834-0.553-1.225-0.482c-2.353,0.426-4.687,0.927-6.883,1.926
			c-1.964,0.895-3.927,1.796-5.924,2.61c-1.571,0.64-3.083,1.383-4.498,2.306c-1.527,0.999-2.957,2.154-4.516,3.097
			c-1.939,1.174-3.488,2.75-4.985,4.401c-0.725,0.8-0.719,1.669-0.042,2.605C59.992,76.607,60.372,76.301,60.696,75.9z"/>
		<path class="stroke" fill="#6a2906"  d="M147.995,89.274c-0.538-1.352-1.228-2.649-1.682-4.027c-0.851-2.581-2.209-4.863-3.673-7.132
			c-1.587-2.462-3.6-4.497-5.73-6.449c-0.421-0.385-0.681-0.377-1.229,0.055c0.723,0.692,1.46,1.352,2.147,2.062
			c0.966,1,1.956,1.989,2.818,3.075c0.549,0.692,0.871,1.561,1.317,2.337c2.573,4.476,4.351,9.234,5.162,14.346
			c0.47,2.962,0.539,5.948,0.605,8.936c0.072,3.266-0.256,6.499-0.686,9.729c-0.375,2.82-1.133,5.528-2.341,8.098
			c-0.677,1.439-1.413,2.859-2.231,4.224c-1.584,2.643-3.085,5.345-5.541,7.354c-1.194,0.978-2.537,1.604-3.844,2.3
			c-0.767-1.335-1.435-2.557-2.16-3.745c-0.642-1.05-0.812-2.177-0.62-3.354c0.335-2.051,0.278-4.102,0.128-6.161
			c-0.024-0.335,0.08-0.679,0.139-1.129c0.503,0,0.896-0.025,1.285,0.004c1.098,0.084,2.122-0.199,3.074-0.693
			c0.852-0.442,1.667-0.964,2.466-1.498c1.013-0.675,1.594-1.688,1.933-2.821c0.676-2.262,0.885-4.553,0.27-6.872
			c-0.323-1.218-0.618-2.443-0.954-3.658c-0.627-2.27-1.18-4.567-1.939-6.793c-0.881-2.585-1.554-5.216-2.029-7.891
			c-0.441-2.48-0.714-4.991-1.041-7.491c-0.474-3.62-0.897-7.247-1.408-10.861c-0.199-1.409-0.559-2.797-0.876-4.188
			c-0.375-1.645-1.504-2.869-2.47-4.164c-0.298-0.402-0.922-0.664-1.443-0.776c-1.041-0.224-2.111-0.235-3.157,0.074
			c-1.664,0.492-3.362,0.754-5.096,0.834c-0.894,0.042-1.784,0.171-2.675,0.268c-2.838,0.308-5.669,0.759-8.515,0.892
			c-2.931,0.137-5.798,0.653-8.68,1.079c-2.85,0.422-5.667,1.062-8.502,1.585c-0.913,0.168-1.841,0.246-2.755,0.401
			c-1.667,0.284-3.328,0.613-4.997,0.891c-1.405,0.234-2.822,0.4-4.227,0.637c-1.241,0.208-2.463,0.575-3.71,0.689
			c-1.77,0.162-3.47,0.59-5.153,1.098c-2.37,0.716-3.969,2.206-4.475,4.72c-0.293,1.454-0.195,2.913-0.061,4.366
			c0.175,1.89,0.636,3.72,1.393,5.444c-0.981,0.951-2.599,1.918-4.019,2.369c-1.139,0.361-2.28,0.721-3.438,1.012
			c-2.901,0.729-5.721,1.708-8.479,2.847c-0.843,0.349-1.657,0.858-2.356,1.446c-1.926,1.62-2.512,3.754-1.608,6.088
			c0.295,0.764,0.478,1.572,0.709,2.35c-0.602,0.405-1.139,0.766-1.541,1.037c-0.336,1.225-0.031,2.061,0.758,2.783
			c0.511,0.468,0.979,0.997,1.402,1.549c0.542,0.708,1.099,1.423,1.507,2.21c0.809,1.561,1.536,3.165,2.268,4.765
			c1.078,2.353,2.658,4.329,4.783,5.755c2.118,1.42,4.337,2.718,6.617,3.861c2.565,1.287,4.983,2.773,7.287,4.47
			c1.203,0.887,2.386,1.812,3.66,2.585c1.293,0.783,2.319,1.931,3.729,2.553c1.243,0.549,2.414,1.261,3.649,1.826
			c1.172,0.537,2.336,1.148,3.663,1.222c1.34,0.076,2.605,0.464,3.885,0.828c1.627,0.461,3.278,0.837,4.923,1.234
			c1.061,0.257,2.138,0.452,3.19,0.735c0.992,0.267,1.949,0.664,2.944,0.914c1.736,0.437,3.49,0.802,5.235,1.201
			c0.404,0.092,0.803,0.201,1.204,0.302c-0.014,0.091-0.027,0.182-0.041,0.273c-0.853,0.064-1.711,0.086-2.556,0.2
			c-3.515,0.478-7.022,0.382-10.522-0.121c-1.147-0.165-2.282-0.419-3.428-0.599c-2.882-0.45-5.806-0.705-8.529-1.879
			c-0.302-0.13-0.639-0.177-0.952-0.286c-1.157-0.402-2.319-0.789-3.462-1.229c-1.487-0.572-2.933-1.258-4.438-1.771
			c-2.534-0.864-4.817-2.223-7.145-3.49c-0.901-0.49-1.771-1.058-2.587-1.68c-2.3-1.752-4.458-3.667-6.507-5.712
			c-1.348-1.346-2.536-2.813-3.611-4.373c-1.075-1.558-2.109-3.144-3.146-4.728c-1.294-1.979-2.403-4.048-3.019-6.351
			c-0.023-0.084-0.114-0.15-0.161-0.209c-0.095-0.01-0.165-0.037-0.222-0.02c-0.089,0.027-0.169,0.085-0.308,0.159
			c0.002,1.141,0.336,2.221,0.773,3.25c0.998,2.352,2.032,4.688,3.106,7.007c1.068,2.307,2.515,4.358,4.338,6.145
			c1.02,0.999,2.04,2.003,2.98,3.075c1.401,1.597,3.102,2.796,4.878,3.912c3.642,2.29,7.574,3.985,11.533,5.626
			c1.255,0.521,2.503,1.068,3.791,1.496c1.919,0.638,3.887,1.131,5.804,1.777c2.276,0.767,4.597,1.343,6.974,1.604
			c3.167,0.347,6.347,0.599,9.527,0.806c1.619,0.105,3.251,0.075,4.874,0.008c1.956-0.081,3.913-0.218,5.859-0.425
			c1.275-0.136,2.533-0.438,3.875-0.68c1.682,0.137,3.465,0.303,5.251,0.423c2.349,0.157,4.642-0.164,6.851-0.979
			c1.17-0.432,2.285-0.966,2.567-2.213c1.861-0.775,3.787-1.242,4.173-3.556c2.428-0.987,4.386-2.657,6.23-4.415
			c2.298-2.188,4.11-4.771,5.393-7.7c0.479-1.094,0.973-2.183,1.498-3.255c1.604-3.282,2.662-6.72,2.925-10.37
			c0.155-2.151,0.194-4.311,0.272-6.466c0.098-2.651,0.353-5.299,0-7.952C149.328,93.914,148.896,91.538,147.995,89.274z"/>
		<path class="stroke" fill="#6a2906"  d="M160.517,97.588c-0.441-3.408-1.041-6.751-2.323-9.947c-0.259-0.646-0.606-1.254-0.871-1.897
			c-0.618-1.499-1.176-3.022-1.82-4.509c-1.341-3.098-3.315-5.807-5.409-8.417c-1.907-2.378-3.929-4.665-5.921-6.974
			c-0.475-0.55-0.987-1.087-1.561-1.529c-1.574-1.212-3.091-2.494-4.855-3.46c-1.831-1-3.568-2.169-5.616-2.717
			c-0.416-0.11-0.821-0.266-1.222-0.426c-2.494-0.995-4.97-2.039-7.48-2.987c-2.766-1.045-5.629-1.79-8.536-2.301
			c-2.414-0.425-4.854-0.71-7.291-0.98c-1.845-0.205-3.702-0.327-5.557-0.415c-1.32-0.062-2.648,0.041-3.97-0.015
			c-6.072-0.256-12.073,0.269-17.998,1.606c-3.332,0.752-6.655,1.551-9.822,2.871c-1.532,0.639-3.059,1.286-4.575,1.961
			c-3.982,1.772-7.55,4.154-10.623,7.259c-0.163,0.165-0.334,0.324-0.515,0.47c-2.193,1.782-4.307,3.652-6.103,5.843
			c-2.079,2.535-4.303,4.955-5.893,7.867c-1.811,3.318-3.752,6.567-4.697,10.281c-0.302,1.188-0.778,2.337-1.007,3.537
			c-0.748,3.915-1.342,7.841-1.017,11.862c0.183,2.256,0.39,4.49,1.068,6.659c0.99,3.164,1.971,6.33,2.965,9.525
			c-0.671,1.662-0.635,3.268-0.005,4.874c0.12,0.308,0.274,0.604,0.405,0.908c1.015,2.355,2.237,4.595,3.799,6.633
			c0.848,1.105,1.715,2.204,2.655,3.229c0.825,0.9,1.766,1.694,2.656,2.534c0.167,0.159,0.331,0.324,0.506,0.476
			c1.025,0.888,1.976,1.889,3.096,2.632c1.904,1.264,3.887,2.42,5.895,3.513c1.274,0.694,2.65,1.205,3.991,1.773
			c0.792,0.337,1.617,0.598,2.407,0.941c2.441,1.061,4.969,1.841,7.563,2.425c1.454,0.327,2.894,0.714,4.339,1.078
			c1.954,0.492,3.892,1.068,5.865,1.462c2.308,0.459,4.639,0.823,6.974,1.112c2.535,0.313,5.085,0.668,7.632,0.695
			c4.582,0.048,9.166-0.134,13.75-0.221c0.099-0.002,0.2-0.002,0.298-0.016c3.614-0.5,7.236-0.956,10.841-1.522
			c1.995-0.313,3.954-0.853,5.943-1.221c3.242-0.6,6.345-1.672,9.442-2.75c4.574-1.593,8.75-3.96,12.745-6.679
			c1.538-1.046,2.85-2.273,3.841-3.843c0.284-0.45,0.587-0.887,0.864-1.34c1.452-2.381,2.236-4.943,2.102-7.756
			c-0.021-0.43,0.011-0.863,0.005-1.294c-0.018-1.424,0.058-2.859-0.104-4.266c-0.082-0.702-0.01-1.291,0.217-1.919
			c0.587-1.622,1.262-3.222,1.706-4.883c0.547-2.045,1.151-4.128,1.278-6.223C160.85,106.611,161.102,102.105,160.517,97.588z
			 M157.139,108.303c-0.302,3.422-0.943,6.778-1.848,10.074c-0.811,2.953-1.996,5.785-3.691,8.351
			c-1.865,2.823-3.823,5.585-5.768,8.356c-1.625,2.317-3.781,4.073-6.066,5.705c-2.439,1.741-5.217,2.732-7.964,3.812
			c-3.153,1.239-6.38,2.248-9.658,3.087c-2.604,0.668-5.25,1.146-7.932,1.404c-2.082,0.2-4.161,0.438-6.247,0.592
			c-1.589,0.118-3.185,0.127-4.778,0.185c-0.001,0.03-0.002,0.06-0.003,0.09c-3.251-0.076-6.507-0.065-9.751-0.254
			c-3.146-0.184-6.254-0.658-9.325-1.462c-3.948-1.033-7.927-1.951-11.77-3.342c-1.808-0.654-3.58-1.407-5.356-2.146
			c-2.419-1.007-4.827-2.039-7.236-3.069c-2.069-0.885-3.837-2.269-5.564-3.646c-2.203-1.757-4.348-3.625-6.098-5.854
			c-1.392-1.773-2.636-3.663-3.936-5.508c-1.389-1.972-2.325-4.173-3.151-6.418c-0.652-1.771-1.303-3.551-1.802-5.368
			c-0.349-1.27-0.448-2.608-0.648-3.918c-0.477-3.108-0.419-6.218-0.082-9.337c0.397-3.671,1.049-7.279,2.052-10.843
			c1.195-4.246,3.203-8.066,5.639-11.692c2.549-3.796,5.529-7.214,9.028-10.171c0.937-0.792,1.792-1.691,2.783-2.406
			c1.367-0.987,2.763-1.972,4.262-2.729c2.514-1.27,5.008-2.605,7.698-3.488c2.047-0.673,4.104-1.314,6.157-1.965
			c1.515-0.479,3.016-1.01,4.552-1.405c0.791-0.203,1.687-0.021,2.462-0.255c4.049-1.218,8.227-1.413,12.396-1.708
			c1.488-0.106,2.977-0.341,4.463-0.328c1.721,0.017,3.44,0.235,5.159,0.381c1.09,0.092,2.186,0.162,3.266,0.329
			c2.589,0.398,5.164,0.894,7.756,1.264c3.667,0.523,6.963,2.106,10.359,3.436c4.046,1.583,7.86,3.577,11.376,6.109
			c3.633,2.617,6.826,5.688,9.372,9.415c2.008,2.938,3.948,5.904,5.481,9.127c1.077,2.263,1.871,4.618,2.372,7.062
			c0.633,3.088,1.248,6.183,1.729,9.296C157.3,102.12,157.413,105.2,157.139,108.303z"/>
	</g>
	<path fill-rule="evenodd" clip-rule="evenodd" fill="#ffe861" class="fill" d="M128.217,106.163c0.736,0.082,1.482,0.11,2.204,0.255
		c1.292,0.259,2.575,0.114,3.856-0.005c0.911-0.084,1.695,0.187,2.523,0.675c0.115,0.42,0.243,0.883,0.362,1.315
		c-1.589-0.131-3.092-0.225-4.588-0.387c-1.247-0.135-2.495-0.3-3.725-0.539c-1.515-0.294-3.025-0.404-4.551-0.166
		c-0.167,0.026-0.318,0.162-0.638,0.333c0.345,0.102,0.526,0.216,0.688,0.193c1.412-0.197,2.768,0.146,4.148,0.344
		c1.902,0.273,3.816,0.501,5.733,0.614c1.18,0.069,2.222,0.309,3.19,1.255c0.067,0.335,0.162,0.798,0.255,1.262
		c-0.916-0.642-1.876-0.65-2.837-0.722c-0.857-0.064-1.717-0.179-2.558-0.355c-1.981-0.414-3.946-0.896-5.926-1.312
		c-0.679-0.143-1.381-0.232-2.074-0.243c-3.479-0.055-6.824-0.815-10.19-1.642c-4.297-1.056-8.424-2.566-12.562-4.081
		c-1.368-0.501-2.798-0.834-4.175-1.312c-1.469-0.51-2.914-1.091-4.361-1.661c-1.172-0.461-2.391-0.847-3.48-1.459
		c-1.584-0.888-3.186-1.813-4.557-2.983c-0.926-0.79-1.454-2.041-2.187-3.067c-0.847-1.186-1.687-2.38-2.596-3.518
		c-0.895-1.12-1.674-2.289-2.339-3.568c-0.746-1.436-1.664-2.786-2.562-4.137c-1.173-1.765-2.071-3.621-2.281-5.765
		c-0.048-0.49-0.13-1.012-0.35-1.442c-0.256-0.501-0.682-0.917-1.091-1.444c1.011-0.179,2.082-0.369,3.208-0.568
		c0.237,0.531,0.462,1.037,0.755,1.693c0.494-0.719-0.075-1.267,0.17-1.835c0.136-0.048,0.313-0.111,0.615-0.218
		c0.286,0.527,0.563,1.036,0.868,1.596c0.423-0.557,0.115-1.126,0.074-1.668c0.781-0.254,1.161-0.046,1.361,0.737
		c0.246,0.963,0.438,1.944,0.75,2.885c0.306,0.923,0.584,1.903,1.674,2.528c-0.173-1.243-0.869-2.158-1.156-3.21
		c-0.295-1.08-0.571-2.165-0.875-3.324c0.45-0.081,0.799-0.145,1.112-0.201c1.076,1.008,0.854,2.589,1.768,3.682
		c0.282-0.958,0.065-2.099-0.697-3.73c0.281-0.069,0.542-0.133,0.921-0.226c0.257,0.589,0.489,1.121,0.746,1.708
		c0.067,0.005,0.191,0.017,0.464,0.04c-0.072-0.596-0.138-1.135-0.218-1.791c0.341-0.064,0.71-0.133,1.165-0.218
		c0.234,0.502,0.45,0.965,0.684,1.467c0.81-0.404,0.215-1.021,0.337-1.617c0.485-0.108,1.017-0.228,1.47-0.331
		c0.543,0.346,0.312,1.274,1.245,1.229c-0.075-0.502-0.143-0.945-0.225-1.485c0.623-0.152,1.223-0.298,1.733-0.423
		c0.572,0.265,0.319,1.051,1.081,1.17c0.033-0.429,0.064-0.829,0.102-1.313c0.52-0.071,1.032-0.142,1.588-0.218
		c0.222,0.552,0.425,1.056,0.664,1.652c0.678-0.546,0.025-1.221,0.504-1.845c0.324-0.065,0.827-0.167,1.382-0.28
		c0.134,0.414,0.243,0.749,0.371,1.146c0.157,0.032,0.336,0.067,0.578,0.115c0-0.484,0-0.903,0-1.433
		c0.419-0.094,0.817-0.183,1.135-0.253c0.518,0.307,0.288,1.284,1.25,1.019c-0.048-0.331-0.092-0.638-0.153-1.055
		c0.595-0.079,1.138-0.151,1.693-0.225c0.209,0.414,0.382,0.757,0.564,1.118c0.776-0.169,0.273-0.786,0.525-1.218
		c0.276-0.059,0.623-0.131,0.982-0.208c0.263,0.284,0.5,0.539,0.822,0.886c0.143-0.393,0.248-0.681,0.361-0.995
		c0.316-0.063,0.638-0.126,0.943-0.187c0.276,0.14,0.532,0.272,0.829,0.423c0.177-0.233,0.327-0.433,0.489-0.647
		c2.805-0.283,5.61-0.534,8.406-0.862c1.248-0.146,2.474-0.475,3.717-0.67c2.754-0.433,5.51-0.86,8.274-1.22
		c0.48-0.063,1.059,0.123,1.497,0.365c0.476,0.262,0.841,0.724,1.317,1.157c-0.258,0.177-0.427,0.294-0.619,0.426
		c0.236,0.616,0.833,0.74,1.367,1.074c0.09,0.276,0.198,0.608,0.332,1.019c-0.432-0.039-0.765-0.068-1.198-0.106
		c0.252,0.791,1.037,0.845,1.449,1.508c0.017,0.128,0.053,0.414,0.092,0.727c-0.147,0.027-0.236,0.058-0.324,0.056
		c-0.375-0.009-0.769-0.443-1.225,0.087c1.118,0.558,2.302,1.024,1.967,2.592c-0.411-0.058-0.787-0.111-1.271-0.18
		c0.156,0.746,0.82,0.769,1.138,1.144c0.323,0.381,0.671,0.745,0.502,1.392c-0.476-0.047-0.96-0.095-1.445-0.143
		c-0.034,0.084-0.068,0.169-0.102,0.253c0.218,0.152,0.418,0.346,0.657,0.45c1.102,0.482,1.201,0.629,1.121,1.916
		c-0.609,0.087-1.223-0.552-1.93-0.054c0.645,0.637,1.754,0.496,2.083,1.419c0.094,0.267,0.082,0.57,0.122,0.882
		c-0.606,0.03-1.145-0.66-1.72,0.049c0.641,0.352,1.236,0.678,1.859,1.021c0.051,0.499,0.098,0.948,0.143,1.393
		c-0.539,0.246-1.061-0.481-1.606,0.181c0.618,0.316,1.186,0.607,1.816,0.931c0.062,0.374,0.126,0.754,0.194,1.165
		c-0.559,0.23-1.166-0.372-1.685,0.271c0.672,0.321,1.302,0.623,1.944,0.93c0.089,0.545,0.166,1.015,0.248,1.518
		c-0.67,0.082-1.236-0.532-1.868,0.105c0.723,0.374,1.396,0.721,2.042,1.055c0.104,0.561,0.185,1.005,0.269,1.457
		c-0.517,0.059-0.935,0.107-1.353,0.155c-0.012,0.094-0.024,0.187-0.037,0.28c0.497,0.196,0.995,0.392,1.562,0.615
		c0.084,0.477,0.174,0.983,0.279,1.574c-0.627-0.032-1.144-0.058-1.828-0.093c0.574,0.876,1.467,0.639,2.097,1.155
		c0.112,0.387,0.25,0.859,0.394,1.355c-0.615,0.375-1.429-0.443-1.992,0.472c0.78,0.23,1.507,0.445,2.273,0.671
		c0.082,0.353,0.155,0.665,0.242,1.04c-0.547,0.114-1.102-0.352-1.625,0.236c0.647,0.317,1.239,0.607,1.812,0.888
		c0.122,0.437,0.229,0.815,0.347,1.24c-0.64,0.196-1.343-0.574-2.017,0.251c0.81,0.289,1.531,0.547,2.27,0.811
		c0.068,0.349,0.123,0.632,0.184,0.947c-0.663,0.187-1.436-0.336-1.987,0.454c0.81,0.45,2.026,0.021,2.434,1.209
		c-0.773,0.349-1.814-0.039-2.319,1.056c0.856-0.087,1.614-0.164,2.448-0.248c0.164,0.529,0.292,0.946,0.47,1.52
		c-1.23-0.338-2.297-0.149-3.374-0.054c-0.687,0.061-1.39-0.023-2.083-0.083c-0.925-0.08-1.844-0.154-2.735,0.173
		C128.231,105.989,128.224,106.076,128.217,106.163z M85.816,93.85c0-0.162,0.028-0.249-0.004-0.287
		c-0.995-1.193-1.999-2.38-2.996-3.571c-0.249-0.297-0.508-0.592-0.719-0.916c-0.61-0.94-1.135-1.944-1.81-2.834
		c-1.086-1.434-2.062-2.92-2.8-4.563c-0.097-0.216-0.277-0.395-0.418-0.59c-0.082,0.018-0.163,0.036-0.245,0.054
		c-0.021,0.227-0.12,0.479-0.052,0.675c0.174,0.498,0.365,1.007,0.65,1.446c1.064,1.638,2.15,3.261,3.265,4.863
		c0.503,0.722,1.094,1.384,1.743,2.196c0.582,1.254,1.707,2.288,2.762,3.369C85.317,93.818,85.59,93.797,85.816,93.85z
		 M108.883,104.182c-0.015,0.072-0.03,0.144-0.045,0.215c0.343,0.19,0.665,0.452,1.032,0.562c1.68,0.501,3.358,1.018,5.062,1.421
		c1.929,0.457,3.884,0.81,5.832,1.184c0.432,0.083,0.909,0.21,1.411-0.346c-4.313-1.081-8.669-1.542-12.745-3.106
		C109.279,104.052,109.067,104.154,108.883,104.182z M107.846,93.105c0.161,0.453,0.574,0.496,0.942,0.606
		c2.863,0.86,5.76,1.569,8.716,2.03c0.126,0.02,0.271-0.072,0.471-0.131c-0.476-0.521-1.013-0.663-1.576-0.729
		c-2.65-0.317-5.168-1.18-7.729-1.862C108.384,92.944,108.117,92.782,107.846,93.105z M100.679,101.851
		c0.057-0.097,0.114-0.194,0.171-0.291c-0.27-0.208-0.515-0.462-0.812-0.615c-0.881-0.453-1.763-0.915-2.679-1.286
		c-1.463-0.591-2.953-1.118-4.438-1.651c-0.106-0.039-0.272,0.089-0.505,0.173c0.196,0.212,0.295,0.409,0.449,0.473
		C95.466,99.729,98.073,100.788,100.679,101.851z M113.474,99.837c0,0.079-0.001,0.157-0.001,0.235
		c0.76,0.183,1.519,0.367,2.278,0.545c0.571,0.135,1.185,0.171,1.708,0.408c1.437,0.65,2.953,0.969,4.49,1.23
		c0.5,0.085,0.981,0.056,1.316-0.552c-2.14-0.064-4.087-0.628-5.979-1.429c-0.324-0.138-0.705-0.148-1.062-0.205
		c-0.641-0.101-1.282-0.193-1.924-0.288c0-0.061,0.001-0.12,0.001-0.18C114.025,99.68,113.749,99.759,113.474,99.837z
		 M91.582,91.069c-0.386-1.079-1.055-1.605-1.723-2.154c-0.661-0.544-1.276-1.146-1.882-1.752c-0.465-0.464-0.873-0.983-1.333-1.451
		c-0.097-0.099-0.312-0.079-0.619-0.146C87.351,87.991,89.172,89.669,91.582,91.069z M110.835,74.217
		c-0.356-0.585-0.379-0.64-0.949-0.902c-1.875-0.865-3.453-2.082-4.623-3.804c-0.112-0.164-0.316-0.266-0.527-0.438
		C104.597,70.669,108.062,73.777,110.835,74.217z M82.707,78.044c0.638,1.939,1.036,3.898,2.227,5.679
		c0.114-0.207,0.245-0.336,0.22-0.415c-0.572-1.812-1.163-3.616-1.764-5.47C83.1,77.925,82.958,77.968,82.707,78.044z
		 M97.846,82.039c1.279,1.821,3.195,2.766,4.796,4.103c-0.115-0.73-0.608-1.193-1.126-1.637c-0.826-0.709-1.648-1.42-2.482-2.119
		C98.716,82.12,98.416,81.748,97.846,82.039z M90.564,71.166c-0.188,2.045,1.575,4.854,3.075,5.009
		c-0.398-0.561-0.79-1.08-1.146-1.625c-0.342-0.525-0.62-1.093-0.976-1.608C91.16,72.424,91.267,71.663,90.564,71.166z
		 M113.866,86.671c0.042-0.076,0.083-0.15,0.125-0.226c-0.262-0.168-0.52-0.343-0.787-0.502c-1.325-0.791-2.975-0.912-4.149-2.025
		c-0.195-0.184-0.495-0.216-0.632,0.209C109.932,85.654,111.904,86.15,113.866,86.671z M125.524,99.018
		c0.551,0.562,1.069,0.586,1.59,0.582c1.056-0.007,2.113-0.021,3.169-0.037c0.292-0.005,0.604,0.012,0.723-0.448
		C129.238,98.576,127.481,99.001,125.524,99.018z M121.381,77.601c-1.689-0.875-3.423-1.589-5.54-1.91
		c0.268,0.321,0.357,0.539,0.501,0.585C118,76.798,119.611,77.49,121.381,77.601z M100.365,93.942
		c1.048,1.506,2.496,2.104,3.826,2.851c0.327,0.183,0.781,0.388,1.163-0.072c-0.838-0.455-1.599-1.025-2.455-1.292
		C101.974,95.141,101.582,94.04,100.365,93.942z M127.696,91.244c-0.487-0.268-3.062-0.627-4.048-0.587
		c-0.231,0.01-0.459,0.097-0.791,0.171C123.747,91.508,126.375,91.711,127.696,91.244z M106.596,103.932
		c-0.324-0.656-0.325-0.655-2.123-1.359c-0.396-0.155-0.787-0.247-1.413,0.069C104.285,103.274,105.299,103.848,106.596,103.932z
		 M88.837,96.324c-0.817-0.735-1.384-1.618-2.472-1.974c-0.129,1.069,0.876,1.258,1.322,1.835
		C87.925,96.493,88.288,96.714,88.837,96.324z M73.949,72.746c-0.583,0.229-0.651,0.34-0.5,1.328
		c0.067,0.44,0.271,0.864,0.455,1.276c0.037,0.083,0.264,0.08,0.518,0.146C74.253,74.513,74.103,73.636,73.949,72.746z
		 M75.156,76.632c-0.637,0.113-0.594,0.493-0.516,0.789c0.099,0.377,0.197,0.838,0.921,0.813
		C75.418,77.672,75.296,77.189,75.156,76.632z M124.264,76.377c0.753,0.621,1.124,0.671,1.782,0.208
		C125.426,76.481,124.941,75.945,124.264,76.377z M123.108,69.929c-0.956-0.654-0.992-0.661-1.575-0.274
		C122.017,69.91,122.404,70.256,123.108,69.929z M96.825,72.751c-0.601,0.026-1.063-0.193-1.365,0.396
		C95.986,73.451,96.346,73.325,96.825,72.751z M76.241,79.269c-0.534,0.08-0.557,0.344-0.426,0.664
		c0.133,0.325,0.341,0.48,0.749,0.184C76.456,79.834,76.347,79.548,76.241,79.269z M124.768,95.025
		c-0.281-0.114-0.562-0.229-0.942-0.384C124.067,95.448,124.067,95.448,124.768,95.025z M122.341,84.687
		c0.848-0.052,0.848-0.052,0.388-0.638C122.584,84.289,122.462,84.487,122.341,84.687z M113.914,73.204
		c-0.463-0.022-0.714-0.035-1.042-0.051C113.283,73.844,113.283,73.844,113.914,73.204z M114.359,67.794
		c0.453,0.189,0.727,0.186,0.854-0.354C114.868,67.369,114.572,67.234,114.359,67.794z M106.159,77.593
		c0.487,0.153,0.487,0.153,0.758-0.166C106.548,77.23,106.548,77.23,106.159,77.593z M114.021,77.606
		c-0.366-0.306-0.614-0.374-0.85,0.157C113.5,78.065,113.736,78.031,114.021,77.606z M102.915,78.265
		c-0.423-0.083-0.625-0.123-0.958-0.188c0.1,0.289,0.146,0.423,0.218,0.632C102.396,78.576,102.548,78.485,102.915,78.265z
		 M90.264,79.979c0.176,0.122,0.313,0.217,0.507,0.35c0.112-0.233,0.189-0.393,0.271-0.564
		C90.645,79.458,90.478,79.666,90.264,79.979z M110.593,80.391c-0.373-0.162-0.638-0.145-0.81,0.29
		C110.239,80.981,110.453,80.832,110.593,80.391z M103.875,82.129c0.026,0.088,0.053,0.176,0.08,0.264
		c0.335,0.18,0.577,0.155,0.684-0.491C104.311,81.999,104.093,82.064,103.875,82.129z M92.41,83.945
		c-0.013-0.093-0.026-0.187-0.039-0.28c-0.235-0.187-0.462-0.239-0.642,0.136c-0.022,0.045,0.017,0.119,0.044,0.286
		C91.99,84.039,92.2,83.992,92.41,83.945z M99.812,88.91c-0.025-0.101-0.05-0.201-0.075-0.302c-0.318-0.181-0.572-0.191-0.707,0.466
		C99.359,89.005,99.585,88.958,99.812,88.91z M121.902,97.484c0.32,0.3,0.566,0.292,0.843-0.043
		C122.422,96.976,122.176,96.979,121.902,97.484z M103.234,99.542c0.462,0.215,0.462,0.215,0.762-0.165
		C103.674,99.165,103.435,99.188,103.234,99.542z M83.429,85.64c-0.39-0.243-0.606-0.167-0.75,0.254
		C83.082,86.16,83.289,86.057,83.429,85.64z M95.029,89.041c0.037,0.096,0.073,0.192,0.11,0.288c0.216-0.077,0.432-0.154,0.77-0.273
		C95.407,88.582,95.19,88.693,95.029,89.041z M114.827,102.793c-0.302-0.526-0.519-0.53-0.758-0.231
		c-0.03,0.039-0.004,0.122-0.004,0.231C114.263,102.793,114.467,102.793,114.827,102.793z M126.49,80.998
		c-0.321,0.156-0.5,0.242-0.677,0.328c0.002,0.062,0.005,0.122,0.008,0.183c0.209,0.05,0.417,0.1,0.669,0.161
		C126.49,81.436,126.49,81.316,126.49,80.998z M115.212,81.057c-0.349,0.083-0.57,0.137-0.942,0.227
		C114.78,81.752,115.009,81.732,115.212,81.057z M130.106,92.082c0.319-0.07,0.543-0.119,0.767-0.169
		c-0.021-0.092-0.042-0.185-0.062-0.277C130.54,91.477,130.263,91.288,130.106,92.082z M129.361,95.482
		c-0.398,0.207-0.587,0.306-0.971,0.506c0.41,0.142,0.598,0.208,0.846,0.292C129.271,96.057,129.294,95.91,129.361,95.482z
		 M99.191,77.605c-0.204-0.437-0.39-0.582-0.693-0.276c-0.053,0.055-0.039,0.178-0.076,0.381
		C98.689,77.674,98.903,77.645,99.191,77.605z M85.167,74.282c0.38-0.176,0.536-0.35,0.248-0.717
		C85.119,73.701,84.869,73.813,85.167,74.282z M99.042,96.402c-0.16-0.445-0.327-0.665-0.705-0.37
		c-0.07,0.055-0.062,0.212-0.102,0.37C98.522,96.402,98.746,96.402,99.042,96.402z M111.83,97.332
		c-0.512-0.337-0.755-0.334-0.85,0.237c0.167,0.017,0.298,0.061,0.412,0.033C111.505,97.575,111.602,97.478,111.83,97.332z
		 M100.168,72.751c0.337-0.072,0.56-0.12,0.89-0.19C100.598,72.022,100.362,72.01,100.168,72.751z M109.514,69.318
		c-0.218,0.056-0.437,0.111-0.781,0.2C109.171,69.983,109.392,69.933,109.514,69.318z M109.198,100.606
		c0.28,0.333,0.508,0.312,0.774-0.031C109.692,100.189,109.464,100.221,109.198,100.606z M120.151,66.454
		c0.373,0.126,0.604,0.107,0.622-0.399C120.389,65.925,120.164,65.953,120.151,66.454z M127.697,73.247
		c-0.011,0.075-0.022,0.149-0.033,0.223c0.122,0.076,0.244,0.151,0.411,0.254c0.092-0.178,0.159-0.308,0.289-0.56
		C128.06,73.203,127.878,73.225,127.697,73.247z M79.894,80.457c-0.28,0.091-0.472,0.153-0.754,0.245
		C79.648,81.022,79.648,81.022,79.894,80.457z M87.043,81.949c0.365,0.392,0.585,0.407,0.762,0.025
		c0.02-0.042-0.032-0.118-0.084-0.284C87.518,81.767,87.321,81.842,87.043,81.949z M128.225,86.359
		c-0.287-0.412-0.455-0.585-0.74-0.253c-0.032,0.037-0.014,0.116-0.029,0.29C127.673,86.386,127.874,86.376,128.225,86.359z
		 M95.049,93.434c-0.027-0.096-0.053-0.191-0.079-0.287c-0.331-0.169-0.555-0.109-0.682,0.518
		C94.626,93.562,94.837,93.498,95.049,93.434z M87.369,90.455c-0.198,0.063-0.396,0.128-0.693,0.223
		C87.103,91.145,87.303,91.046,87.369,90.455z M120.083,90.883c-0.542-0.533-0.542-0.533-0.973-0.152
		C119.442,90.783,119.664,90.817,120.083,90.883z M109.686,89.253c0.403,0.443,0.603,0.419,0.757,0.061
		c0.018-0.044-0.021-0.111-0.052-0.242C110.208,89.119,110.027,89.165,109.686,89.253z M118.639,82.171
		c0.23,0.445,0.419,0.547,0.695,0.243c0.033-0.035,0.012-0.118,0.021-0.281C119.141,82.144,118.938,82.155,118.639,82.171z
		 M127.184,102.59c-0.022-0.128-0.044-0.255-0.067-0.383c-0.2,0.049-0.4,0.099-0.601,0.148c0.018,0.101,0.036,0.203,0.054,0.303
		C126.775,102.636,126.979,102.613,127.184,102.59z M126.753,68.305c0.026,0.097,0.053,0.193,0.079,0.29
		c0.154-0.06,0.309-0.119,0.464-0.178c-0.018-0.064-0.036-0.128-0.054-0.193C127.08,68.251,126.917,68.278,126.753,68.305z
		 M102.818,91.441c0.183-0.038,0.365-0.077,0.639-0.135C103.135,90.905,102.942,90.913,102.818,91.441z M116.727,86.581
		c-0.269,0.25-0.405,0.377-0.625,0.583C116.548,87.272,116.797,87.307,116.727,86.581z M86.261,76.908
		c-0.147,0.141-0.295,0.282-0.506,0.483C86.279,77.593,86.47,77.508,86.261,76.908z M126.8,75.797
		c-0.12,0.333-0.174,0.484-0.28,0.777c0.304-0.097,0.457-0.146,0.675-0.216C127.067,76.176,126.999,76.078,126.8,75.797z"/>
	<path fill-rule="evenodd" clip-rule="evenodd" fill="#ffe861" class="fill" d="M95.292,115.862c2.207,0.121,4.337,0.78,6.645,1.173
		c0.089,0.139,0.233,0.363,0.309,0.479c0.215,0.037,0.298,0.08,0.342,0.056c0.747-0.416,1.487-0.076,2.229,0.01
		c4.613,0.532,9.166,1.599,13.884,1.495c0.07,0.255,0.124,0.454,0.201,0.737c0.332-0.087,0.636-0.167,0.989-0.26
		c2.522,0.883,5.097,1.745,7.331,3.463c-0.171,0.252-0.293,0.433-0.418,0.617c0.171,0.897,1.524,0.343,1.642,1.326
		c-0.712,0.275-1.394-0.47-2.128-0.045c0.01,0.536,0.425,0.575,0.756,0.624c0.709,0.107,1.339,0.349,1.885,0.968
		c0,0.153,0,0.402,0,0.747c-1.122-0.535-2.224-0.835-3.392-0.835c-1.103,0-2.206,0-3.308,0c-0.02,0.065-0.04,0.131-0.06,0.196
		c0.124,0.112,0.238,0.306,0.375,0.324c0.786,0.106,1.578,0.23,2.37,0.235c1.429,0.01,2.769,0.256,3.932,1.143
		c0.13,0.099,0.246,0.218,0.354,0.341c0.036,0.041,0.027,0.121,0.053,0.256c-1.01-0.099-1.887-1.08-2.99-0.448
		c1.029,0.697,2.286,0.912,3.22,1.838c-0.166,0-0.349,0.046-0.496-0.007c-1.778-0.647-3.557-0.647-5.377-0.146
		c-1.438,0.396-2.889,0.8-4.361,0.997c-2.971,0.397-5.952,0.467-8.911-0.22c-0.57-0.133-1.192-0.168-1.772-0.101
		c-1.608,0.19-3.189,0.14-4.716-0.406c-1.725-0.616-3.498-0.723-5.3-0.653c-1.592,0.062-3.066-0.371-4.533-0.963
		c-1.81-0.73-3.679-1.311-5.506-2.002c-4.241-1.605-7.667-4.187-9.752-8.32c-0.358-0.708-0.637-1.459-0.937-2.196
		c-0.339-0.834-0.973-1.369-1.808-1.585c-1.763-0.459-3.527-0.964-5.323-1.234c-2.697-0.405-4.892-1.646-6.641-3.66
		c-1.417-1.632-2.588-3.45-3.413-5.467c-0.828-2.027-1.664-4.049-2.484-6.079c-0.616-1.525-1.27-3.028-2.343-4.319
		c0.672,0.171,0.954,0.756,1.284,1.247c0.405,0.604,0.708,1.274,1.073,1.906c0.17,0.296,0.318,0.7,0.815,0.435
		c-0.63-2.46-2.329-4.085-4.375-5.615c0.506-0.24,0.849-0.402,1.122-0.532c1.274,0.455,1.478,1.845,2.493,2.523
		c0.047-0.824-0.127-1.219-1.198-2.804c0.854-0.283,1.688-0.56,2.538-0.841c0.675,0.379,0.96,1.075,1.389,1.655
		c0.393,0.532,0.277,1.35,0.958,1.774c0.229-1.003,0.155-1.217-1.249-3.709c0.209-0.082,0.41-0.16,0.704-0.274
		c0.725,1.03,1.441,2.049,2.261,3.214c0.078-0.292,0.215-0.51,0.159-0.646c-0.241-0.579-0.524-1.142-0.824-1.692
		c-0.186-0.343-0.429-0.653-0.763-1.151c0.406,0.053,0.656,0.014,0.807,0.118c0.408,0.279,0.812,0.583,1.148,0.94
		c1.939,2.062,3.465,4.441,5.126,6.72c1.504,2.062,3.106,4.054,4.741,6.177c-0.016,0.062-0.074,0.272-0.157,0.578
		c0.356,0.053,0.665,0.099,1.004,0.148c2.23,2.458,4.768,4.591,7.665,6.259c3.634,2.093,7.463,3.758,11.481,4.978
		C94.44,115.468,94.817,115.664,95.292,115.862z M59.554,98.673c-0.08,0.038-0.159,0.074-0.239,0.111
		c0.059,0.316,0.042,0.672,0.189,0.94c0.505,0.924,1.063,1.821,1.61,2.722c0.221,0.364,0.515,0.691,0.695,1.073
		c1.004,2.135,2.035,4.24,3.818,5.875c1.278,1.17,2.571,2.312,4.305,2.735c1.573,0.384,3.162,0.705,4.749,1.028
		c0.182,0.037,0.398-0.087,0.597-0.137c0.015-0.071,0.031-0.143,0.046-0.214c-0.234-0.138-0.453-0.344-0.705-0.403
		c-0.902-0.214-1.81-0.417-2.727-0.552c-1.639-0.241-3.154-0.796-4.443-1.828c-1.239-0.992-2.449-2.028-3.25-3.453
		c-0.746-1.328-1.558-2.618-2.319-3.938c-0.661-1.145-1.288-2.309-1.939-3.458C59.839,98.993,59.685,98.84,59.554,98.673z
		 M94.613,124.736c0.548,0.202,1.09,0.421,1.646,0.599c0.533,0.171,1.127,0.209,1.613,0.463c1.104,0.575,2.333,0.458,3.488,0.737
		c0.252,0.062,0.552-0.068,0.83-0.109c-0.182-0.256-0.375-0.346-0.576-0.396c-1.057-0.263-2.121-0.5-3.174-0.777
		c-0.766-0.202-1.535-0.414-2.273-0.695c-1.142-0.434-2.425-0.283-3.52-0.917c-0.422-0.244-0.927-0.342-1.386-0.526
		c-1.445-0.58-2.905-1.129-4.002-2.32c-0.555-0.603-1.157-1.161-1.775-1.778c-0.166,0.122-0.372,0.272-0.556,0.408
		c0.293,0.325,0.527,0.637,0.813,0.89c0.865,0.766,1.676,1.629,2.645,2.235C90.288,123.739,92.443,124.293,94.613,124.736z
		 M91.289,125.909c1.518,0.777,2.991,1.284,4.6,1.445c1.113,0.111,2.212,0.368,3.317,0.56c0.388,0.066,0.824,0.276,1.156,0.168
		c1.094-0.356,1.919,0.144,2.793,0.646c0.383,0.221,0.847,0.375,1.286,0.408c1.316,0.1,2.639,0.129,3.958,0.175
		c0.145,0.005,0.291-0.059,0.509-0.107c-0.24-0.559-0.69-0.599-1.087-0.617c-0.893-0.042-1.789-0.056-2.681-0.016
		c-0.592,0.026-1.069-0.172-1.598-0.407c-0.736-0.327-1.554-0.636-2.338-0.64c-0.664-0.004-1.306,0.003-1.952-0.153
		c-0.32-0.077-0.645-0.155-0.972-0.183c-1.792-0.151-3.54-0.476-5.192-1.221c-0.472-0.213-0.969-0.369-1.466-0.556
		C91.517,125.569,91.446,125.675,91.289,125.909z M82.303,112.765c0.054-0.05,0.109-0.1,0.163-0.15
		c-0.529-0.828-0.851-1.824-1.814-2.314c-0.972-0.496-1.954-1.014-2.99-1.329c-2.269-0.69-4.244-1.827-5.957-3.458
		c-0.26-0.249-0.492-0.628-0.974-0.613c-0.204,0.52,0.168,0.765,0.436,1.026c1.708,1.669,3.663,2.9,5.968,3.624
		c1.802,0.565,3.554,1.308,4.746,2.917C81.978,112.599,82.16,112.667,82.303,112.765z M117.604,126.623
		c-3.871,0.371-7.734-0.259-11.688-0.103c0.324,0.672,0.846,0.638,1.32,0.65c0.76,0.021,1.521-0.002,2.282-0.002
		c2.178,0,4.324,0.542,6.516,0.371c0.719-0.057,1.447,0.003,2.168-0.038c0.213-0.012,0.417-0.185,0.625-0.285
		c-0.009-0.079-0.018-0.157-0.027-0.236C118.401,126.861,118.002,126.742,117.604,126.623z M94.689,118.021
		c0.542,0.695,1.356,0.693,2.065,0.918c0.753,0.24,1.509,0.548,2.284,0.622c0.718,0.068,1.354,0.633,2.368,0.352
		c-0.591-0.379-0.962-0.738-1.402-0.878c-1.538-0.488-3.102-0.896-4.653-1.344C95.061,117.608,94.83,117.612,94.689,118.021z
		 M61.386,96.734c-0.668-2.121-0.436-4.426-2.433-5.903c-0.176,0.189-0.298,0.32-0.448,0.48c0.794,0.646,1.226,1.43,1.404,2.374
		c0.123,0.645,0.302,1.281,0.479,1.914C60.515,96.053,60.552,96.594,61.386,96.734z M113.875,128.781
		c-0.011,0.093-0.022,0.188-0.033,0.281c1.444,0.918,3.09,0.66,4.679,0.684c0.483,0.007,1.078,0.138,1.457-0.582
		c-1.872-0.131-3.665-0.259-5.458-0.381C114.306,128.768,114.09,128.781,113.875,128.781z M79.109,115.604
		c-0.073,0.03-0.146,0.06-0.219,0.09c0.045,0.367,0.045,0.748,0.148,1.099c0.12,0.407,0.295,0.811,0.512,1.177
		c0.504,0.851,1.024,1.695,1.587,2.507c0.229,0.33,0.553,0.66,1.117,0.424c-1.13-1.49-2.092-3.017-2.678-4.755
		C79.506,115.936,79.269,115.783,79.109,115.604z M71.138,102.511c-0.233-0.776-2.435-4.188-3.128-4.916
		C67.755,98.734,69.455,101.466,71.138,102.511z M83.69,121.956c-0.312,0.395-0.029,0.632,0.223,0.824
		c0.738,0.563,1.467,1.147,2.254,1.634c0.601,0.371,1.272,0.671,2.034,0.46c-0.015-0.123-0.004-0.23-0.033-0.242
		c-1.542-0.643-2.854-1.649-4.182-2.634C83.92,121.95,83.802,121.971,83.69,121.956z M65.992,103.786
		c-0.041-0.222-0.032-0.333-0.08-0.405c-0.684-1.045-1.366-2.092-2.078-3.119c-0.09-0.129-0.346-0.143-0.593-0.236
		C63.498,101.622,64.607,103.13,65.992,103.786z M89.033,116.133c-2.44-2.104-2.44-2.104-2.989-1.978
		C86.483,115.167,88.25,116.335,89.033,116.133z M77.515,113.974c0.411,0.885,0.788,1.109,1.42,0.841
		C78.497,113.911,78.319,113.806,77.515,113.974z M122.937,128.113c-0.05,0.601,0.231,0.679,0.554,0.612
		c0.388-0.079,0.749-0.235,0.702-0.828C123.752,127.973,123.355,128.041,122.937,128.113z M110.062,123.707
		c0.392,0.35,0.668,0.349,0.872-0.214C110.538,123.258,110.242,123.171,110.062,123.707z M91.332,117.039
		c0.006-0.105,0.013-0.211,0.019-0.316c-0.302-0.444-0.559-0.298-0.956,0.269C90.81,117.013,91.071,117.025,91.332,117.039z
		 M107.698,121.999c0.281,0.456,0.515,0.566,0.891,0.256C108.478,121.715,108.191,121.772,107.698,121.999z M71.103,107.574
		c-0.204,0.239-0.358,0.418-0.511,0.598c0.043,0.074,0.086,0.148,0.13,0.222c0.231-0.041,0.462-0.082,0.786-0.14
		C71.341,107.973,71.26,107.837,71.103,107.574z M67.304,102.189c0.367,0.201,0.572,0.314,0.937,0.515
		c-0.028-0.398-0.041-0.587-0.061-0.862C67.894,101.955,67.702,102.032,67.304,102.189z M98.967,122.923
		c-0.018,0.093-0.036,0.186-0.055,0.278c0.24,0.053,0.479,0.105,0.858,0.189c-0.114-0.316-0.165-0.458-0.235-0.652
		C99.31,122.812,99.138,122.867,98.967,122.923z M104.205,124.213c0.839,0.378,0.839,0.378,0.827-0.373
		C104.79,123.949,104.583,124.042,104.205,124.213z M99.104,118.109c-0.247-0.589-0.502-0.595-0.805-0.336
		c-0.054,0.045-0.038,0.173-0.067,0.336C98.5,118.109,98.732,118.109,99.104,118.109z M110.622,119.133
		c0.017,0.108,0.034,0.216,0.05,0.324c0.225,0.03,0.45,0.06,0.824,0.109c-0.125-0.286-0.179-0.554-0.258-0.562
		C111.039,118.984,110.828,119.082,110.622,119.133z M93.057,121.182c0.026,0.098,0.051,0.195,0.076,0.292
		c0.3,0.139,0.597,0.269,0.693-0.459C93.513,121.083,93.285,121.133,93.057,121.182z M84.257,115.838
		c-0.013,0.093-0.025,0.186-0.038,0.278c0.248,0.262,0.492,0.427,0.824-0.226C84.708,115.868,84.483,115.853,84.257,115.838z
		 M113.788,120.855c0.327,0.424,0.586,0.394,0.876,0.026C114.423,120.49,114.173,120.498,113.788,120.855z M88.762,120.578
		c0.229-0.043,0.457-0.086,0.792-0.149C89.151,119.899,88.92,119.951,88.762,120.578z M119.97,124.003
		c-0.03-0.117-0.062-0.234-0.093-0.352c-0.283-0.053-0.58-0.144-0.728,0.522C119.49,124.103,119.73,124.053,119.97,124.003z
		 M114.89,124.438c0.355,0.278,0.597,0.294,0.83-0.138C115.395,124.038,115.146,123.964,114.89,124.438z M66.738,94.926
		c-0.24-0.412-0.491-0.312-0.843-0.109C66.197,95.179,66.419,95.387,66.738,94.926z M65.621,98.502
		c-0.394-0.297-0.642-0.395-0.923,0.031C64.973,98.84,65.21,98.927,65.621,98.502z M82.065,113.858
		c-0.316-0.288-0.544-0.404-0.799-0.017C81.458,114.249,81.677,114.264,82.065,113.858z M68.185,105.832
		c-0.306-0.521-0.546-0.458-0.923-0.191c0.203,0.138,0.316,0.255,0.451,0.293C67.813,105.963,67.943,105.89,68.185,105.832z
		 M103.948,119.978c0.464,0.507,0.709,0.549,0.909-0.197C104.515,119.854,104.289,119.904,103.948,119.978z M125.062,122.756
		c0.145-0.526,0.002-0.667-0.338-0.618c-0.085,0.013-0.161,0.094-0.336,0.202C124.662,122.51,124.821,122.608,125.062,122.756z
		 M81.159,117.33c0.357,0.497,0.559,0.407,0.751-0.137C81.583,117.252,81.371,117.291,81.159,117.33z M82.733,119.107
		c0.426,0.35,0.628,0.356,0.856-0.132C83.289,119.022,83.093,119.052,82.733,119.107z"/>
	<path fill-rule="evenodd" clip-rule="evenodd" fill="#ffe861" class="fill" d="M108.066,112.397c1.282,0.153,2.565,0.302,3.848,0.46
		c3.427,0.422,6.851,0.92,10.318,0.75c3.354-0.166,6.615,0.382,9.85,1.184c0.547,0.136,1.108,0.217,1.652,0.361
		c0.365,0.098,0.713,0.26,1.069,0.394c-0.009,0.091-0.017,0.182-0.026,0.272c-0.393,0.041-0.791,0.144-1.177,0.112
		c-2.018-0.166-4.031-0.381-6.047-0.55c-1.686-0.142-3.377-0.215-5.062-0.371c-2.478-0.23-4.971-0.388-7.421-0.796
		c-2.377-0.396-4.708-1.07-7.059-1.622C108.03,112.527,108.048,112.462,108.066,112.397z"/>
	<path fill-rule="evenodd" clip-rule="evenodd" fill="#ffe861" class="fill" d="M96.104,131.213c-1.512-0.074-2.96-0.381-4.364-0.873
		c-2.128-0.746-4.191-1.642-6.236-2.595c-2.901-1.352-5.4-3.252-7.651-5.47c-2.011-1.982-4.263-3.562-6.796-4.78
		c-1.195-0.575-2.364-1.204-3.525-1.844c-1.383-0.762-2.215-1.516-3.04-2.837c0.38,0.226,0.762,0.448,1.14,0.678
		c1.445,0.879,2.877,1.783,4.338,2.636c0.947,0.554,1.968,0.912,3.062,1.13c1.577,0.314,2.856,1.204,3.935,2.387
		c1.185,1.298,2.363,2.604,3.568,3.882c1.543,1.635,3.346,2.901,5.389,3.861c1.86,0.875,3.645,1.913,5.641,2.474
		c1.245,0.351,2.491,0.697,3.734,1.054C95.574,130.994,95.836,131.112,96.104,131.213z"/>
	<path fill-rule="evenodd" clip-rule="evenodd" fill="#ffe861" class="fill" d="M97.62,130.698c1.746-0.229,3.45-0.359,5.115,0.194
		c1.949,0.646,3.935,0.904,5.985,0.662c0.486-0.057,1.021-0.072,1.481,0.066c2.206,0.661,4.463,0.538,6.718,0.558
		c1.448,0.014,2.815-0.309,4.206-0.658c1.603-0.403,3.243-0.69,4.883-0.908c1.247-0.166,2.375,0.323,3.407,1.065
		c-1.062,0-2.133-0.095-3.183,0.018c-2.733,0.293-5.452,0.715-8.186,1.005c-1.014,0.108-2.052-0.016-3.079-0.021
		c-1.192-0.007-2.386,0.047-3.575-0.008c-1.788-0.083-3.575-0.208-5.357-0.371c-1.419-0.129-2.839-0.291-4.242-0.531
		c-1.272-0.218-2.522-0.56-3.78-0.857C97.874,130.879,97.751,130.771,97.62,130.698z"/>
	<path fill-rule="evenodd" clip-rule="evenodd" fill="#ffe861" class="fill" d="M80.71,131.468c-0.29-0.041-0.612-0.014-0.865-0.132
		c-1.199-0.563-2.413-1.112-3.562-1.768c-1.593-0.91-2.677-2.367-3.718-3.823c-1.296-1.812-2.845-3.303-4.861-4.289
		c-0.414-0.202-0.772-0.511-1.172-0.742c-1.635-0.945-3.3-1.84-4.91-2.827c-1.293-0.793-2.678-1.442-3.759-2.579
		c-0.979-1.027-1.591-2.176-1.805-3.571c-0.1-0.651-0.283-1.294-0.462-1.93c-0.282-1.002-1.064-1.662-1.721-2.398
		c-0.654-0.732-1.032-1.583-1.157-2.58c0.529,0.784,1.039,1.582,1.592,2.348c0.543,0.751,1.208,1.424,1.68,2.215
		c0.557,0.935,1.05,1.929,1.418,2.952c0.93,2.588,2.705,4.336,5.116,5.552c1.805,0.91,3.598,1.853,5.346,2.868
		c0.937,0.545,1.838,1.198,2.628,1.939c1.451,1.36,2.816,2.813,4.199,4.245c1.764,1.825,3.688,3.435,5.988,4.552L80.71,131.468z"/>
	<path fill-rule="evenodd" clip-rule="evenodd" fill="#ffe861" class="fill" d="M95.777,110.421c-0.894-0.197-1.827-0.289-2.67-0.614
		c-1.298-0.5-2.515-1.179-3.582-2.111c-0.493-0.431-1.062-0.798-1.647-1.096c-1.388-0.706-2.83-1.306-4.203-2.038
		c-0.902-0.482-1.753-1.077-2.567-1.7c-1.368-1.049-2.721-2.122-4.02-3.253c-2.326-2.028-3.826-4.639-5.047-7.428
		c-0.172-0.394-0.331-0.793-0.492-1.192c-0.006-0.016,0.036-0.052,0.102-0.14c0.322,0.607,0.62,1.191,0.937,1.764
		c1.575,2.847,3.695,5.251,6.049,7.47c1.219,1.149,2.593,2.025,4.101,2.767c1.571,0.772,3.082,1.689,4.546,2.653
		c2.53,1.667,5.24,2.987,7.939,4.334c0.217,0.108,0.419,0.247,0.629,0.371C95.827,110.278,95.802,110.35,95.777,110.421z"/>
	<path fill-rule="evenodd" clip-rule="evenodd" fill="#ffe861" class="fill" d="M72.636,114.744c1.158-0.14,2.463,0.347,3.748,0.988
		c-0.102,0.275-0.174,0.47-0.277,0.747c0.352,0.064,0.627,0.114,1.031,0.188c0.357,0.869,0.741,1.804,1.126,2.74
		c-0.044,0.039-0.088,0.077-0.132,0.116c-0.207-0.168-0.438-0.314-0.618-0.509c-1.327-1.423-2.883-2.399-4.867-2.611
		c-0.381-0.041-0.767-0.217-1.109-0.406c-1.389-0.769-2.762-1.564-4.139-2.356c-0.106-0.062-0.188-0.166-0.313-0.279
		C68.847,113.8,70.549,114.224,72.636,114.744z M74.021,115.64c-0.028-0.127-0.056-0.255-0.084-0.382
		c-0.2,0.053-0.401,0.106-0.603,0.16c0.018,0.098,0.035,0.196,0.054,0.293C73.599,115.688,73.81,115.664,74.021,115.64z"/>
	<path fill-rule="evenodd" clip-rule="evenodd" fill="#ffe861" class="fill" d="M52.788,95.057c-0.601,0.335-1.169,0.652-1.827,1.018
		c0.022-0.224-0.005-0.371,0.053-0.464c0.813-1.319,2.94-1.317,3.678,0.033c0.444,0.813,0.781,1.685,1.157,2.535
		c0.696,1.575,1.392,3.15,2.073,4.73c0.459,1.065,0.952,2.123,1.322,3.22c0.433,1.283,1.104,2.403,1.956,3.437
		c0.292,0.354,0.558,0.728,0.79,1.138c-0.638-0.37-1.183-0.815-1.606-1.453c-1.764-2.662-3.099-5.535-4.298-8.481
		c-0.562-1.382-1.139-2.759-1.759-4.115C54.021,95.984,53.809,95.173,52.788,95.057z"/>
	<path fill-rule="evenodd" clip-rule="evenodd" fill="#ffe861" class="fill" d="M72.122,89.289c0.349,0.562,0.743,1.101,1.038,1.69
		c1.406,2.802,3.243,5.254,5.775,7.132c1.626,1.205,3.304,2.34,4.953,3.514c1.001,0.712,1.997,1.433,2.986,2.161
		c0.254,0.187,0.478,0.416,0.63,0.742c-0.276-0.157-0.552-0.314-0.827-0.472c-1.092-0.628-2.136-1.372-3.288-1.86
		c-2.718-1.154-4.736-3.151-6.658-5.274c-1.746-1.929-3.246-4.039-4.282-6.444c-0.162-0.377-0.201-0.809-0.296-1.215L72.122,89.289z
		"/>
	<path fill-rule="evenodd" clip-rule="evenodd" fill="#ffe861" class="fill" d="M135.717,116.815c-0.352,0.135-0.694,0.334-1.059,0.392
		c-2.498,0.394-4.989,0.519-7.472-0.156c-1.266-0.344-2.557-0.595-3.827-1.03c0.569,0,1.142-0.044,1.706,0.008
		c2.373,0.219,4.74,0.503,7.116,0.688c1.14,0.09,2.293,0.016,3.44,0.016C135.653,116.76,135.685,116.788,135.717,116.815z"/>
	<path fill-rule="evenodd" clip-rule="evenodd" fill="#ffe861" class="fill" d="M116.762,133.667c1.571-0.156,3.584-0.305,5.582-0.571
		c1.983-0.264,3.942-0.754,5.975-0.53c-0.601,0.52-1.319,0.815-2.05,0.832c-0.738,0.016-1.404,0.252-2.094,0.4
		c-1.29,0.277-2.574,0.144-3.862,0.081C118.991,133.813,117.67,133.722,116.762,133.667z"/>
	<path fill-rule="evenodd" clip-rule="evenodd" fill="#ffe861" class="fill" d="M67.392,77.111c1.042,3.799,2.101,7.658,3.141,11.451
		C68.762,86.535,66.83,79.309,67.392,77.111z"/>
	<path fill-rule="evenodd" clip-rule="evenodd" fill="#ffe861" class="fill" d="M51.18,98.594c1.712,3.147,3.423,6.293,5.205,9.57
		C54.598,106.968,51.425,101.274,51.18,98.594z"/>
	<path fill-rule="evenodd" clip-rule="evenodd" fill="#ffe861" class="fill" d="M130.876,134.7c0.135,0.466,0.228,0.785,0.369,1.273
		c-0.914-0.479-1.566-0.024-2.25,0.13c-1.125,0.255-2.25,0.52-3.359,0.838c-1.749,0.501-3.536,0.458-5.323,0.451
		c-0.227-0.001-0.453-0.034-0.685-0.109C123.387,136.699,127.189,136.348,130.876,134.7z"/>
	<path fill-rule="evenodd" clip-rule="evenodd" fill="#ffe861" class="fill" d="M101.416,135.983c3.087,0.079,6.199-0.109,9.26,0.819
		C108.664,137.521,103.976,137.135,101.416,135.983z"/>
	<path fill-rule="evenodd" clip-rule="evenodd" fill="#ffe861" class="fill" d="M58.179,111.835c1.264,1.516,2.477,3.026,4.12,4.127
		c1.583,1.06,3.147,2.144,4.709,3.297c-0.246-0.098-0.507-0.169-0.736-0.298c-1.5-0.838-2.976-1.721-4.495-2.524
		c-1.443-0.762-2.442-1.889-3.067-3.375C58.538,112.651,58.356,112.244,58.179,111.835z"/>
	<path fill-rule="evenodd" clip-rule="evenodd" fill="#ffe861" class="fill" d="M104.509,105.289c-3.898-0.988-7.818-1.912-11.265-4.196
		c0.113,0.033,0.234,0.048,0.337,0.101c2.234,1.119,4.692,1.574,7.032,2.378c1.335,0.459,2.659,0.955,3.987,1.433
		C104.57,105.1,104.54,105.195,104.509,105.289z"/>
	<path fill-rule="evenodd" clip-rule="evenodd" fill="#ffe861" class="fill" d="M130.652,136.557c-0.181,0.671-0.718,0.847-1.156,0.925
		c-3.286,0.583-6.548,1.406-9.926,1.208c-0.571-0.033-1.183-0.022-1.904-0.521c0.536,0,0.849-0.034,1.153,0.006
		c2.123,0.27,4.226,0.147,6.314-0.299c0.453-0.097,0.919-0.132,1.366-0.247c1.021-0.262,2.034-0.559,3.053-0.832
		C129.896,136.706,130.247,136.645,130.652,136.557z"/>
	<path fill-rule="evenodd" clip-rule="evenodd" fill="#ffe861" class="fill" d="M101.253,105.482c4,0.5,7.677,2.083,11.478,3.243
		c-2.935-0.435-5.753-1.346-8.578-2.192C103.18,106.242,102.048,106.293,101.253,105.482z"/>
	<path fill-rule="evenodd" clip-rule="evenodd" fill="#ffe861" class="fill" d="M74.816,83.023c1.998,2.474,2.813,5.624,4.636,8.215
		C77.959,90.333,75.403,85.823,74.816,83.023z"/>
	<path fill-rule="evenodd" clip-rule="evenodd" fill="#ffe861" class="fill" d="M94.447,108.385c5.346,1.246,6.513,1.648,8.09,2.784
		C99.746,110.522,96.937,109.93,94.447,108.385z"/>
	<path fill-rule="evenodd" clip-rule="evenodd" fill="#ffe861" class="fill" d="M130.269,110.706c-1.329,0.178-11.552-1.302-12.353-1.73
		c2.624,0.237,5.33,0.416,8.017,0.751C127.363,109.906,128.76,110.356,130.269,110.706z"/>
	<path fill-rule="evenodd" clip-rule="evenodd" fill="#ffe861" class="fill" d="M92.978,131.551c0.92,0.185,1.842,0.368,2.857,0.571
		c-0.168,0.435-0.304,0.787-0.431,1.116c-0.846,0.301-1.556,0.192-2.18-0.372C92.848,132.525,92.693,132.126,92.978,131.551z"/>
	<path fill-rule="evenodd" clip-rule="evenodd" fill="#ffe861" class="fill" d="M73.114,80.137c-0.698-0.854-1.528-1.596-1.693-2.819
		c-0.136-1.004-0.817-1.633-1.864-1.847c0.129-0.608,0.479-0.812,1.078-0.824c0.753,0.72,0.689,1.858,1.22,2.72
		c0.529,0.86,0.974,1.771,1.456,2.66C73.245,80.063,73.179,80.1,73.114,80.137z"/>
	<path fill-rule="evenodd" clip-rule="evenodd" fill="#ffe861" class="fill" d="M59.581,103.977c-0.177-0.214-0.407-0.404-0.52-0.647
		c-0.659-1.408-1.304-2.822-1.925-4.247c-0.527-1.207-1.015-2.431-1.58-3.79c0.755,0.609,1.106,1.312,1.4,2.054
		c0.719,1.817,1.439,3.633,2.155,5.451c0.157,0.397,0.299,0.801,0.448,1.201L59.581,103.977z"/>
	<path fill-rule="evenodd" clip-rule="evenodd" fill="#ffe861" class="fill" d="M114.62,138.033c-2.078,0.874-4.164,0.575-6.251,0.065
		C110.451,137.802,112.535,137.849,114.62,138.033z"/>
	<path fill-rule="evenodd" clip-rule="evenodd" fill="#ffe861" class="fill" d="M88.429,129.95c0.061,0.492,0.107,0.874,0.155,1.266
		c-0.739,0.313-1.356,0.109-1.836-0.377c-0.463-0.47-0.213-1.031,0.018-1.621C87.319,129.462,87.852,129.696,88.429,129.95z"/>
	<path fill-rule="evenodd" clip-rule="evenodd" fill="#ffe861" class="fill" d="M73.458,119.708c-0.576,0.712-1.145,0.883-1.841,0.673
		c-0.459-0.53-0.702-1.109-0.663-1.871C71.921,118.666,72.617,119.197,73.458,119.708z"/>
	<path fill-rule="evenodd" clip-rule="evenodd" fill="#ffe861" class="fill" d="M96.473,132.237c0.934,0.218,1.838,0.43,2.78,0.65
		c-0.504,0.812-1.226,1.131-1.948,0.939C96.746,133.678,96.49,133.228,96.473,132.237z"/>
	<path fill-rule="evenodd" clip-rule="evenodd" fill="#ffe861" class="fill" d="M59.559,103.998c0.236,0.431,0.5,0.85,0.706,1.295
		c0.902,1.951,2.042,3.751,3.355,5.501c-0.16-0.124-0.333-0.234-0.478-0.372c-1.761-1.683-2.956-3.702-3.581-6.056
		c-0.032-0.119,0.01-0.257,0.019-0.388C59.581,103.977,59.559,103.998,59.559,103.998z"/>
	<path fill-rule="evenodd" clip-rule="evenodd" fill="#ffe861" class="fill" d="M77.331,125.44c-0.349-0.283-0.601-0.487-0.915-0.742
		c-0.025-0.263-0.056-0.569-0.087-0.886c0.196-0.033,0.293-0.074,0.38-0.059c0.67,0.109,1.338,0.229,2.16,0.373
		c-0.208,0.44-0.379,0.803-0.576,1.221C77.968,125.379,77.653,125.409,77.331,125.44z"/>
	<path fill-rule="evenodd" clip-rule="evenodd" fill="#ffe861" class="fill" d="M107.974,134.188c-0.823,0.915-2.561,0.77-3.661-0.248
		C105.065,133.662,106.897,133.773,107.974,134.188z"/>
	<path fill-rule="evenodd" clip-rule="evenodd" fill="#ffe861" class="fill" d="M82.223,127.454c0.071,0.292,0.158,0.64,0.249,1.007
		c-0.437,0.51-0.941,0.361-1.435,0.154c-0.477-0.201-1.031-0.357-0.938-1.161C80.794,127.454,81.483,127.454,82.223,127.454z"/>
	<path fill-rule="evenodd" clip-rule="evenodd" fill="#ffe861" class="fill" d="M69.605,120.72c1.841,0.548,3.093,1.742,3.782,3.552
		C72.126,123.088,70.866,121.903,69.605,120.72z"/>
	<path fill-rule="evenodd" clip-rule="evenodd" fill="#ffe861" class="fill" d="M83.556,131.504c2.08,0.686,4.159,1.371,6.239,2.055
		c-0.025,0.077-0.05,0.154-0.075,0.231c-2.204-0.313-4.235-1.163-6.252-2.059C83.496,131.656,83.526,131.58,83.556,131.504z"/>
	<path fill-rule="evenodd" clip-rule="evenodd" fill="#ffe861" class="fill" d="M67.692,75.907c0.497-1.184,1.297-2.062,2.47-2.665
		c0.467,0.178,0.985,0.374,1.551,0.589c0.135,0.479,0.266,0.944,0.396,1.408c-0.043,0.021-0.087,0.043-0.131,0.064
		c-0.311-0.498-0.622-0.997-0.901-1.442c-0.886-0.221-1.469,0.159-1.958,0.665c-0.461,0.478-0.841,1.033-1.257,1.555
		C67.806,76.023,67.749,75.965,67.692,75.907z"/>
	<path fill-rule="evenodd" clip-rule="evenodd" fill="#ffe861" class="fill" d="M100.088,133.146c1.133,0.174,2.085,0.32,3.088,0.475
		c-0.08,0.656-0.38,0.967-0.911,0.937C101.362,134.505,100.667,134.081,100.088,133.146z"/>
	<path fill-rule="evenodd" clip-rule="evenodd" fill="#ffe861" class="fill" d="M109.496,133.512c1.925,0,3.851,0,5.777,0
		c0,0.086,0,0.172,0,0.259C113.346,133.925,111.42,134.304,109.496,133.512z"/>
	<path fill-rule="evenodd" clip-rule="evenodd" fill="#ffe861" class="fill" d="M65.361,115.226c0.597,0.411,1.188,0.817,1.956,1.347
		c-0.558,0.298-0.968,0.518-1.322,0.707C64.99,116.566,64.869,116.138,65.361,115.226z"/>
	<path fill-rule="evenodd" clip-rule="evenodd" fill="#ffe861" class="fill" d="M121.952,134.783c-0.224,0.777-0.795,0.928-1.325,0.917
		c-0.709-0.016-1.416-0.195-1.907-1.089C119.863,134.672,120.866,134.726,121.952,134.783z"/>
	<path fill-rule="evenodd" clip-rule="evenodd" fill="#ffe861" class="fill" d="M83.452,127.574c0.94,0.49,1.83,0.954,2.778,1.45
		C84.852,129.809,83.9,129.295,83.452,127.574z"/>
	<path fill-rule="evenodd" clip-rule="evenodd" fill="#ffe861" class="fill" d="M115.136,135.544c0.469-0.33,0.915-0.643,1.338-0.94
		c0.437,0,0.847,0,1.279,0C117.301,135.759,116.176,136.163,115.136,135.544z"/>
	<path fill-rule="evenodd" clip-rule="evenodd" fill="#ffe861" class="fill" d="M90.353,131.787c-0.442-0.343-0.878-0.636-0.934-1.371
		c0.933,0.109,1.67,0.59,2.542,0.833C91.568,132.127,90.869,131.653,90.353,131.787z"/>
	<path fill-rule="evenodd" clip-rule="evenodd" fill="#ffe861" class="fill" d="M79.286,125.972c0-0.34,0-0.65,0-1.152
		c0.902,0.502,1.605,0.98,2.301,1.688C80.618,126.812,79.958,126.432,79.286,125.972z"/>
	<path fill-rule="evenodd" clip-rule="evenodd" fill="#ffe861" class="fill" d="M73.91,121.43c0.565,0.115,1.01,0.207,1.52,0.311
		c0.048,0.359,0.095,0.707,0.14,1.048C74.532,123.113,74.222,122.877,73.91,121.43z"/>
	<path fill-rule="evenodd" clip-rule="evenodd" fill="#ffe861" class="fill" d="M83.746,99.064c0.431,0.034,0.846,0.066,1.308,0.103
		c0.148,0.39,0.294,0.772,0.441,1.158C84.417,100.664,83.956,100.347,83.746,99.064z"/>
	<path fill-rule="evenodd" clip-rule="evenodd" fill="#ffe861" class="fill" d="M62.141,112.155c-0.449,0.042-0.697,0.064-0.859,0.08
		c-0.894-0.35-1.385-1.129-1.354-2.15C60.654,110.766,61.332,111.398,62.141,112.155z"/>
	<path fill-rule="evenodd" clip-rule="evenodd" fill="#ffe861" class="fill" d="M73.389,85.465c-0.147-0.644,0.135-1.091,0.602-1.656
		c0.283,0.726,0.517,1.323,0.768,1.967C74.169,86.03,73.793,85.71,73.389,85.465z"/>
	<path fill-rule="evenodd" clip-rule="evenodd" fill="#ffe861" class="fill" d="M68.03,116.936c0.792,0.384,1.479,0.716,2.28,1.104
		C68.683,118.616,68.067,118.322,68.03,116.936z"/>
	<path fill-rule="evenodd" clip-rule="evenodd" fill="#ffe861" class="fill" d="M80.947,93.65c0.899,0.984,1.767,1.935,2.627,2.876
		C82.375,96.385,81.104,95.025,80.947,93.65z"/>
	<path fill-rule="evenodd" clip-rule="evenodd" fill="#ffe861" class="fill" d="M129.1,113.163c-0.152-0.258-0.309-0.525-0.593-1.007
		c0.925,0.089,1.622,0.155,2.462,0.236C130.432,113.031,129.943,113.332,129.1,113.163z"/>
	<path fill-rule="evenodd" clip-rule="evenodd" fill="#ffe861" class="fill" d="M53.861,93.867c-0.62,0.056-1.22,0.039-1.775,0.184
		c-0.508,0.132-0.969,0.443-1.58,0.737C51.134,93.381,52.562,93.062,53.861,93.867z"/>
	<path fill-rule="evenodd" clip-rule="evenodd" fill="#ffe861" class="fill" d="M137.585,113.979c-0.177,0.109-0.318,0.252-0.377,0.224
		c-0.987-0.474-1.964-0.968-3.111-1.543C135.41,112.705,136.854,113.258,137.585,113.979z"/>
	<path fill-rule="evenodd" clip-rule="evenodd" fill="#ffe861" class="fill" d="M108.795,134.382c0.77,0.182,1.448,0.341,2.195,0.516
		c-0.346,0.65-0.83,0.57-1.312,0.488C109.186,135.303,108.806,135.105,108.795,134.382z"/>
	<path fill-rule="evenodd" clip-rule="evenodd" fill="#ffe861" class="fill" d="M54.256,98.808c-1.407-0.447-1.622-0.983-0.924-2.083
		C53.85,97.292,53.989,97.994,54.256,98.808z"/>
	<path fill-rule="evenodd" clip-rule="evenodd" fill="#ffe861" class="fill" d="M80.067,96.691c0.295,0.018,0.578,0.034,0.8,0.047
		c0.282,0.495,0.525,0.923,0.768,1.351C80.579,98.124,80.237,97.831,80.067,96.691z"/>
	<path fill-rule="evenodd" clip-rule="evenodd" fill="#ffe861" class="fill" d="M55.73,102.044c-0.974-0.124-1.288-0.593-1.369-1.396
		c0.104-0.158,0.255-0.388,0.501-0.763C55.174,100.659,55.422,101.276,55.73,102.044z"/>
	<path fill-rule="evenodd" clip-rule="evenodd" fill="#ffe861" class="fill" d="M133.999,111.365c1.036,0.102,2.177-0.185,2.918,1.011
		c-0.992-0.269-1.983-0.537-2.974-0.805C133.962,111.503,133.98,111.434,133.999,111.365z"/>
	<path fill-rule="evenodd" clip-rule="evenodd" fill="#ffe861" class="fill" d="M80.686,131.501c1.438,0.639,2.875,1.278,4.313,1.917
		c-0.017,0.06-0.033,0.118-0.05,0.178c-0.418-0.117-0.863-0.178-1.249-0.363c-0.978-0.47-1.929-0.993-2.885-1.506
		c-0.062-0.034-0.071-0.168-0.105-0.257C80.71,131.468,80.686,131.501,80.686,131.501z"/>
	<path fill-rule="evenodd" clip-rule="evenodd" fill="#ffe861" class="fill" d="M88.751,105.077c1.283,0.729,2.567,1.458,3.851,2.188
		c-1.485-0.392-2.782-1.124-3.994-2.011C88.656,105.194,88.703,105.136,88.751,105.077z"/>
	<path fill-rule="evenodd" clip-rule="evenodd" fill="#ffe861" class="fill" d="M99.913,106.825c0.154,0.352,0.282,0.645,0.411,0.94
		c-0.869,0.264-1.038,0.177-1.528-0.877C99.205,106.864,99.558,106.845,99.913,106.825z"/>
	<path fill-rule="evenodd" clip-rule="evenodd" fill="#ffe861" class="fill" d="M125.264,111.986c0.879,0.113,1.604,0.205,2.37,0.302
		C126.885,113.123,126.054,113.045,125.264,111.986z"/>
	<path fill-rule="evenodd" clip-rule="evenodd" fill="#ffe861" class="fill" d="M74.571,86.653c-0.194,0.559-0.351,1.007-0.523,1.5
		c-0.62-0.435-0.574-1.044-0.755-1.722C73.762,86.513,74.122,86.575,74.571,86.653z"/>
	<path fill-rule="evenodd" clip-rule="evenodd" fill="#ffe861" class="fill" d="M73.068,81.543c0.287,0.594,0.499,1.034,0.799,1.657
		c-0.536-0.05-0.843-0.079-1.111-0.103C72.319,82.525,72.583,82.137,73.068,81.543z"/>
	<path fill-rule="evenodd" clip-rule="evenodd" fill="#ffe861" class="fill" d="M113.787,135.769c-1.065,0.458-1.455,0.223-1.815-0.927
		C112.742,134.825,112.991,135.587,113.787,135.769z"/>
	<path fill-rule="evenodd" clip-rule="evenodd" fill="#ffe861" class="fill" d="M91.038,103.539c0.25-0.025,0.467-0.048,0.671-0.069
		c0.226,0.5,0.437,0.965,0.681,1.504c-0.273-0.035-0.516-0.065-0.746-0.094C91.434,104.416,91.25,104.009,91.038,103.539z"/>
	<path fill-rule="evenodd" clip-rule="evenodd" fill="#ffe861" class="fill" d="M78.431,94.592c1.121,0.269,0.667,1.096,1.043,1.674
		c-0.332-0.024-0.508-0.038-0.791-0.059C78.605,95.702,78.529,95.22,78.431,94.592z"/>
	<path fill-rule="evenodd" clip-rule="evenodd" fill="#ffe861" class="fill" d="M77.07,92.838c0.396,0.093,0.645,0.151,0.906,0.212
		c0,0.346,0,0.66,0,1.075c-0.323-0.016-0.591-0.028-0.906-0.043C77.07,93.651,77.07,93.309,77.07,92.838z"/>
	<path fill-rule="evenodd" clip-rule="evenodd" fill="#ffe861" class="fill" d="M85.688,131.173c-0.779-0.029-1.245-0.262-1.432-1.003
		c0.434,0,0.811,0,1.286,0C85.585,130.463,85.629,130.764,85.688,131.173z"/>
	<path fill-rule="evenodd" clip-rule="evenodd" fill="#ffe861" class="fill" d="M97.149,105.66c-0.118-0.253-0.225-0.479-0.421-0.898
		c0.632,0.093,1.11,0.162,1.613,0.236C98.078,105.641,98.078,105.641,97.149,105.66z"/>
	<path fill-rule="evenodd" clip-rule="evenodd" fill="#ffe861" class="fill" d="M82.545,93.918c-0.685-0.794-1.486-1.521-1.807-2.571
		C81.647,91.983,82.003,93.015,82.545,93.918z"/>
	<path fill-rule="evenodd" clip-rule="evenodd" fill="#ffe861" class="fill" d="M89.534,127.881c0.962,0.365,1.924,0.729,2.886,1.094
		c-1.097,0.01-2.057-0.378-2.986-0.857C89.467,128.039,89.5,127.96,89.534,127.881z"/>
	<path fill-rule="evenodd" clip-rule="evenodd" fill="#ffe861" class="fill" d="M108.154,109.344c-0.785,0.687-1.112,0.663-1.958-0.039
		C106.869,109.078,107.421,109.343,108.154,109.344z"/>
	<path fill-rule="evenodd" clip-rule="evenodd" fill="#ffe861" class="fill" d="M64.476,114.552c-1.049-0.264-1.195-0.422-1.288-1.283
		C63.881,113.544,64.004,113.663,64.476,114.552z"/>
	<path fill-rule="evenodd" clip-rule="evenodd" fill="#ffe861" class="fill" d="M54.705,93.142c-0.571-0.192-1.158-0.389-1.926-0.646
		c0.424-0.161,0.706-0.268,1.091-0.414C54.15,92.438,54.424,92.785,54.705,93.142z"/>
	<path fill-rule="evenodd" clip-rule="evenodd" fill="#ffe861" class="fill" d="M123.466,134.679c0.552-0.078,1.104-0.155,1.755-0.247
		C124.75,135.265,124.26,135.342,123.466,134.679z"/>
	<path fill-rule="evenodd" clip-rule="evenodd" fill="#ffe861" class="fill" d="M79.268,92.857c0.23,0.374,0.46,0.748,0.81,1.316
		c-0.511-0.083-0.806-0.131-1.216-0.197c0.044-0.405,0.079-0.732,0.114-1.059C79.073,92.897,79.17,92.878,79.268,92.857z"/>
	<path fill-rule="evenodd" clip-rule="evenodd" fill="#ffe861" class="fill" d="M77.899,91.046c0.3,0.429,0.519,0.741,0.787,1.125
		c-0.399,0.198-0.709,0.276-0.996-0.054C77.385,91.768,77.551,91.473,77.899,91.046z"/>
	<path fill-rule="evenodd" clip-rule="evenodd" fill="#ffe861" class="fill" d="M89.04,101.67c0.185,0.407,0.292,0.649,0.405,0.888
		c0.124,0.264,0.254,0.523,0.292,0.93c-0.225-0.12-0.562-0.186-0.648-0.37C88.916,102.748,88.665,102.327,89.04,101.67z"/>
	<path fill-rule="evenodd" clip-rule="evenodd" fill="#ffe861" class="fill" d="M103.646,108.99c-1.042,0.056-1.05,0.05-1.399-0.879
		C102.561,108.02,102.561,108.02,103.646,108.99z"/>
	<path fill-rule="evenodd" clip-rule="evenodd" fill="#ffe861" class="fill" d="M111.221,109.874c0.089,0.242,0.142,0.383,0.258,0.699
		c-0.768-0.436-1.407,0.297-2.299-0.179C109.958,110.195,110.531,110.05,111.221,109.874z"/>
	<path fill-rule="evenodd" clip-rule="evenodd" fill="#ffe861" class="fill" d="M71.8,81.428c-0.049-0.434-0.098-0.869-0.146-1.302
		c0.059-0.024,0.117-0.048,0.176-0.072c0.235,0.256,0.47,0.511,0.774,0.842c-0.206,0.239-0.381,0.443-0.556,0.647
		C71.964,81.505,71.882,81.467,71.8,81.428z"/>
	<path fill-rule="evenodd" clip-rule="evenodd" fill="#ffe861" class="fill" d="M114.542,111.612c-0.722,0.249-0.953-0.387-1.425-0.82
		c0.221-0.106,0.357-0.17,0.479-0.229C113.924,110.926,114.224,111.259,114.542,111.612z"/>
	<path fill-rule="evenodd" clip-rule="evenodd" fill="#ffe861" class="fill" d="M76.319,91.893c-0.156-0.288-0.312-0.576-0.588-1.085
		c0.532,0.071,0.821,0.109,1.222,0.163c-0.154,0.379-0.257,0.631-0.359,0.884C76.502,91.867,76.411,91.88,76.319,91.893z"/>
	<path fill-rule="evenodd" clip-rule="evenodd" fill="#ffe861" class="fill" d="M120.23,111.453c-0.251,0.131-0.501,0.262-0.791,0.414
		c-0.22-0.172-0.415-0.325-0.665-0.521c0.17-0.128,0.274-0.271,0.365-0.263c0.358,0.034,0.712,0.114,1.068,0.177
		C120.215,111.324,120.223,111.389,120.23,111.453z"/>
	<path fill-rule="evenodd" clip-rule="evenodd" fill="#ffe861" class="fill" d="M92.269,134.123c0.63,0.153,1.261,0.306,1.891,0.459
		c-0.009,0.042-0.017,0.084-0.025,0.126c-0.651-0.102-1.304-0.203-1.956-0.305C92.209,134.31,92.239,134.216,92.269,134.123z"/>
	<path fill-rule="evenodd" clip-rule="evenodd" fill="#ffe861" class="fill" d="M56.363,103.457c0.252,0.562,0.417,0.931,0.596,1.33
		C56.051,104.785,55.946,104.593,56.363,103.457z"/>
	<path fill-rule="evenodd" clip-rule="evenodd" fill="#ffe861" class="fill" d="M105.112,109.44c0.218,0.293,0.443,0.597,0.716,0.965
		c-0.489,0.202-0.715-0.049-0.898-0.347C104.793,109.835,104.653,109.579,105.112,109.44z"/>
	<path fill-rule="evenodd" clip-rule="evenodd" fill="#ffe861" class="fill" d="M94.299,104.078c0.552,0.151,0.913,0.25,1.324,0.363
		C94.962,105.066,94.838,105.042,94.299,104.078z"/>
	<path fill-rule="evenodd" clip-rule="evenodd" fill="#ffe861" class="fill" d="M86.927,100.576c0.205,0.475,0.389,0.903,0.573,1.333
		C86.844,101.947,86.721,101.679,86.927,100.576z"/>
	<path fill-rule="evenodd" clip-rule="evenodd" fill="#ffe861" class="fill" d="M74.962,89.98c-1.104,0.098-1.104,0.098-1.271-0.819
		C74.131,89.445,74.465,89.66,74.962,89.98z"/>
	<path fill-rule="evenodd" clip-rule="evenodd" fill="#ffe861" class="fill" d="M103.49,107.197c0.512,0.196,0.872,0.334,1.254,0.48
		C104.128,108.285,103.901,108.219,103.49,107.197z"/>
	<path fill-rule="evenodd" clip-rule="evenodd" fill="#ffe861" class="fill" d="M100.972,106.583c0.532,0.165,0.914,0.284,1.436,0.445
		C101.394,107.384,101.321,107.363,100.972,106.583z"/>
	<path fill-rule="evenodd" clip-rule="evenodd" fill="#ffe861" class="fill" d="M90.324,101.92c0.376,0.255,0.708,0.478,1.039,0.702
		C90.379,102.707,90.379,102.707,90.324,101.92z"/>
	<path fill-rule="evenodd" clip-rule="evenodd" fill="#ffe861" class="fill" d="M99.922,106.136c-0.256-0.043-0.54-0.034-0.756-0.151
		c-0.095-0.051-0.052-0.357-0.093-0.762c0.45,0.289,0.708,0.454,0.966,0.619C100,105.939,99.961,106.038,99.922,106.136z"/>
	<path fill-rule="evenodd" clip-rule="evenodd" fill="#ffe861" class="fill" d="M70.62,79.875c-0.623-0.48-0.623-0.48-0.054-1.159
		C70.867,79.113,70.803,79.473,70.62,79.875z"/>
	<path fill-rule="evenodd" clip-rule="evenodd" fill="#ffe861" class="fill" d="M80.267,94.907c0.21,0.325,0.419,0.649,0.714,1.106
		C80.126,95.738,80.126,95.738,80.267,94.907z"/>
	<path fill-rule="evenodd" clip-rule="evenodd" fill="#ffe861" class="fill" d="M110.108,109.382c-0.458,0.12-0.915,0.229-1.283-0.592
		c0.542,0.156,0.921,0.265,1.301,0.374C110.12,109.237,110.114,109.31,110.108,109.382z"/>
	<path fill-rule="evenodd" clip-rule="evenodd" fill="#ffe861" class="fill" d="M78.631,129.212c-0.439-0.307-0.877-0.613-1.316-0.918
		c0.053-0.07,0.105-0.141,0.159-0.211c0.418,0.34,0.837,0.681,1.255,1.021C78.697,129.14,78.664,129.176,78.631,129.212z"/>
	<path fill-rule="evenodd" clip-rule="evenodd" fill="#ffe861" class="fill" d="M115.398,108.558c-0.589-0.188-1.179-0.376-1.769-0.565
		c0.65,0.019,1.371-0.169,1.77,0.573L115.398,108.558z"/>
	<path fill-rule="evenodd" clip-rule="evenodd" fill="#ffe861" class="fill" d="M88.084,100.517c0.244,0.151,0.488,0.303,0.808,0.502
		C88.226,101.217,88.226,101.217,88.084,100.517z"/>
	<path fill-rule="evenodd" clip-rule="evenodd" fill="#ffe861" class="fill" d="M92.773,103.426c0.494,0.197,0.815,0.326,1.197,0.478
		C93.161,104.252,93.132,104.243,92.773,103.426z"/>
	<path fill-rule="evenodd" clip-rule="evenodd" fill="#ffe861" class="fill" d="M77.201,90.317c-0.704-0.092-0.858-0.412-0.748-1.018
		C76.953,89.463,76.991,89.868,77.201,90.317z"/>
	<path fill-rule="evenodd" clip-rule="evenodd" fill="#ffe861" class="fill" d="M76.004,88.115c-0.438-0.067-0.666-0.102-0.981-0.15
		c0.106-0.287,0.177-0.479,0.318-0.864C75.587,87.477,75.74,87.71,76.004,88.115z"/>
	<path fill-rule="evenodd" clip-rule="evenodd" fill="#ffe861" class="fill" d="M78.729,129.103c0.45,0.254,0.899,0.509,1.348,0.764
		c-0.593-0.013-1.056-0.263-1.446-0.655C78.664,129.176,78.697,129.14,78.729,129.103z"/>
	<path fill-rule="evenodd" clip-rule="evenodd" fill="#ffe861" class="fill" d="M127.914,133.968c-0.275,0.372-0.657,0.449-1.161,0.193
		c0.36-0.137,0.721-0.274,1.081-0.41C127.86,133.823,127.887,133.896,127.914,133.968z"/>
	<path fill-rule="evenodd" clip-rule="evenodd" fill="#ffe861" class="fill" d="M114.636,110.091c0.451,0.076,0.702,0.118,0.949,0.16
		c-0.008,0.108,0.01,0.197-0.021,0.22C115.192,110.753,114.921,110.669,114.636,110.091z"/>
	<path fill-rule="evenodd" clip-rule="evenodd" fill="#ffe861" class="fill" d="M94.643,105.891c-0.366,0.375-0.646,0.48-0.958,0.054
		C94.008,105.42,94.282,105.818,94.643,105.891z"/>
	<path fill-rule="evenodd" clip-rule="evenodd" fill="#ffe861" class="fill" d="M131.813,112.769c0.286,0.115,0.572,0.23,0.858,0.346
		c-0.026,0.065-0.052,0.13-0.078,0.195c-0.301-0.113-0.602-0.227-0.902-0.339C131.732,112.903,131.773,112.836,131.813,112.769z"/>
	<path fill-rule="evenodd" clip-rule="evenodd" fill="#ffe861" class="fill" d="M92.787,102.292c-0.371-0.186-0.742-0.371-1.113-0.556
		c0.034-0.066,0.068-0.132,0.101-0.199c0.372,0.214,0.744,0.427,1.115,0.641C92.855,102.216,92.821,102.254,92.787,102.292z"/>
	<path fill-rule="evenodd" clip-rule="evenodd" fill="#ffe861" class="fill" d="M106.425,112.23c-0.293-0.083-0.587-0.167-0.88-0.25
		c0.007-0.035,0.015-0.069,0.022-0.103c0.295,0.063,0.589,0.125,0.883,0.188C106.442,112.12,106.434,112.176,106.425,112.23z"/>
	<path fill-rule="evenodd" clip-rule="evenodd" fill="#ffe861" class="fill" d="M115.399,108.565c0.514-0.24,1.007-0.219,1.616,0.214
		c-0.635-0.09-1.123-0.158-1.614-0.225C115.398,108.558,115.399,108.565,115.399,108.565z"/>
	<path fill-rule="evenodd" clip-rule="evenodd" fill="#ffe861" class="fill" d="M112.112,109.618c0.385,0.065,0.618,0.104,0.85,0.144
		C112.679,110.067,112.425,110.179,112.112,109.618z"/>
	<path fill-rule="evenodd" clip-rule="evenodd" fill="#ffe861" class="fill" d="M72.912,83.938c-0.151,0.188-0.231,0.287-0.36,0.447
		c-0.155-0.208-0.279-0.376-0.404-0.543c0.027-0.046,0.055-0.091,0.082-0.137C72.438,83.776,72.646,83.847,72.912,83.938z"/>
	<path fill-rule="evenodd" clip-rule="evenodd" fill="#ffe861" class="fill" d="M75.011,88.652c0.198,0.091,0.395,0.182,0.685,0.316
		C75.215,89.289,75.087,88.984,75.011,88.652z"/>
	<path fill-rule="evenodd" clip-rule="evenodd" fill="#ffe861" class="fill" d="M64.742,111.856c-0.192-0.157-0.385-0.313-0.676-0.552
		c0.191,0,0.282-0.028,0.324,0.005c0.169,0.132,0.323,0.284,0.483,0.428C64.83,111.777,64.786,111.817,64.742,111.856z"/>
	<path fill-rule="evenodd" clip-rule="evenodd" fill="#ffe861" class="fill" d="M92.89,102.178c0.339,0.167,0.678,0.333,1.016,0.5
		c-0.032,0.062-0.063,0.125-0.094,0.188c-0.342-0.191-0.683-0.383-1.025-0.574C92.821,102.254,92.855,102.216,92.89,102.178z"/>
	<path fill-rule="evenodd" clip-rule="evenodd" fill="#ffe861" class="fill" d="M58.207,107.79c-0.12-0.169-0.24-0.337-0.36-0.507
		c0.037-0.042,0.073-0.084,0.109-0.126c0.11,0.065,0.247,0.109,0.322,0.203c0.07,0.088,0.076,0.229,0.11,0.347
		C58.328,107.734,58.267,107.762,58.207,107.79z"/>
	<path fill-rule="evenodd" clip-rule="evenodd" fill="#ffe861" class="fill" d="M76.958,122.946c-0.166-0.182-0.333-0.363-0.499-0.545
		c0.051-0.052,0.102-0.103,0.153-0.153c0.178,0.162,0.355,0.326,0.534,0.488C77.083,122.807,77.021,122.876,76.958,122.946z"/>
	<path fill-rule="evenodd" clip-rule="evenodd" fill="#ffe861" class="fill" d="M93.708,108.138c-0.208-0.128-0.417-0.255-0.626-0.383
		c0.021-0.042,0.043-0.085,0.065-0.127c0.219,0.11,0.438,0.221,0.658,0.331C93.772,108.019,93.741,108.078,93.708,108.138z"/>
	<path fill-rule="evenodd" clip-rule="evenodd" fill="#ffe861" class="fill" d="M70.835,81.319c0.017,0.202,0.033,0.404,0.055,0.677
		C70.355,81.83,70.423,81.6,70.835,81.319z"/>
	<path fill-rule="evenodd" clip-rule="evenodd" fill="#ffe861" class="fill" d="M71.041,89.381c0.078,0.194,0.156,0.39,0.234,0.584
		c-0.034,0.025-0.068,0.051-0.102,0.076c-0.078-0.1-0.181-0.19-0.224-0.303c-0.038-0.098-0.008-0.223-0.008-0.336
		C70.975,89.395,71.008,89.388,71.041,89.381z"/>
	<path fill-rule="evenodd" clip-rule="evenodd" fill="#ffe861" class="fill" d="M113.908,134.76c0.22,0,0.44,0,0.662,0c0,0.045,0,0.089,0,0.134
		c-0.221,0-0.441,0-0.661,0C113.908,134.849,113.908,134.805,113.908,134.76z"/>
	<path fill-rule="evenodd" clip-rule="evenodd" fill="#ffe861" class="fill" d="M72.153,89.262c-0.159-0.144-0.318-0.288-0.478-0.432
		c0.061-0.047,0.121-0.094,0.18-0.14c0.088,0.199,0.176,0.398,0.265,0.598C72.122,89.289,72.153,89.262,72.153,89.262z"/>
</g>
<g id="Layer_2" display="none">
</g>
</svg>
