<svg version="1.1" id="svg" xmlns="http://www.w3.org/2000/svg" xmlns:xlink="http://www.w3.org/1999/xlink" x="0px" y="0px"
	 width="200px" height="200px" viewBox="0 0 200 200" enable-background="new 0 0 200 200" xml:space="preserve">
<path class="stroke" fill="#58281d"  d="M173.715,53.217c0.937-3.604,1.508-7.249,1.235-10.984c-0.12-1.632-0.206-3.287-1.261-4.706
	c-2.172-1.168-4.501-0.262-6.91-0.489c-0.504-0.507-1.041-1.158-1.687-1.676c-2.017-1.619-4.034-3.213-6.433-4.312
	c-2.095-0.962-4.271-1.412-6.504-1.641c-1.668-0.172-3.357-0.139-5.039-0.136c-2.641,0.005-5.261,0.259-7.831,0.904
	c-2.241,0.564-4.058,1.911-5.892,3.232c-0.602,0.104-1.207,0.188-1.802,0.316c-1.562,0.339-3.14,0.62-4.67,1.067
	c-2.189,0.641-4.352,1.388-6.509,2.134c-0.807,0.279-1.523,0.757-1.854,1.601c-0.83,2.118-1.416,4.315-1.244,6.593
	c0.275,3.644,0.404,7.321,1.625,10.828c-0.129,0.087-0.214,0.186-0.313,0.207c-1.36,0.289-2.623,0.803-3.782,1.578
	c-0.182,0.121-0.422,0.167-0.643,0.22c-0.854,0.197-1.713,0.379-2.566,0.577c-2.302,0.537-4.59,1.152-6.908,1.602
	c-2.658,0.515-5.345,0.877-8.018,1.325c-0.714,0.121-1.414,0.447-2.123,0.449c-2.668,0.013-5.348,0.059-8.004-0.155
	c-2.35-0.188-4.669-0.739-7.012-1.068c-2.187-0.307-4.381-0.647-6.583-0.768c-2.664-0.146-5.344-0.064-8.015-0.105
	c-1.943-0.03-3.888-0.233-5.822,0.087c-3.318,0.55-6.561,1.393-9.897,2.705c-0.823-0.495-1.884-0.922-2.662-1.65
	c-1.365-1.276-2.472-2.825-3.251-4.521c-0.859-1.863-1.499-3.825-2.229-5.748c-0.256-0.67-0.494-1.347-0.725-1.975
	c-0.479-0.163-0.873-0.298-1.309-0.446c-0.224,0.118-0.471,0.218-0.686,0.365c-1.053,0.726-1.275,1.867-1.421,3.011
	c-0.432,3.383-0.485,6.754,0.09,10.148c0.497,2.925,1.174,5.743,2.954,8.223c-1.087,1.469-2.046,2.937-2.705,4.639
	c-1.283,3.315-2.429,6.65-2.898,10.188c-0.051,0.378-0.127,0.753-0.188,1.13c-0.27,1.648-0.617,3.291-0.782,4.95
	c-0.182,1.813-0.073,3.661-0.315,5.465c-0.276,2.078,0.183,4.106,0.153,6.165c-0.03,2.154,0.356,4.308-0.226,6.455
	c-0.49,1.802-0.733,3.679-1.314,5.447c-0.531,1.616-1.261,3.184-2.42,4.505c-0.727,0.829-1.354,1.744-1.938,2.507
	c0,1.047-0.112,1.939,0.021,2.792c0.623,4.012,0.771,8.048,0.717,12.092c-0.025,1.904-0.204,3.811-0.363,5.711
	c-0.242,2.886-0.252,5.792-1.059,8.622c-0.333,1.169-0.037,2.313,0.876,3.273c0.991,1.039,2.176,1.772,3.371,2.532
	c1.877,1.191,3.748,1.333,5.724,0.351c2.961,0.117,3.45-0.141,5.46-1.641c0.515-0.073,1.083-0.136,1.646-0.239
	c0.953-0.174,1.75-0.695,2.158-1.535c1.109-2.274,0.546-5.023-1.272-6.849c-0.858-0.86-1.692-1.744-2.527-2.606
	c0.067-0.424,0.127-0.76,0.17-1.099c0.183-1.474,0.386-2.946,0.534-4.424c0.127-1.291,0.166-2.59,0.287-3.881
	c0.121-1.29,0.256-2.582,0.449-3.863c0.209-1.379-0.099-2.848,0.771-4.231c0.592-0.272,1.282-0.588,1.973-0.907
	c1-0.468,2.07-0.833,2.985-1.431c1.305-0.852,2.522-1.843,3.729-2.834c0.85-0.698,1.665-1.453,2.408-2.262
	c0.51-0.554,0.844-1.265,1.303-1.867c0.783-1.024,1.609-2.014,2.406-3.026c0.437-0.557,0.85-1.134,1.435-1.916
	c0.17,0.707,0.333,1.166,0.386,1.637c0.137,1.25,0.274,2.503,0.325,3.759c0.153,3.678-0.261,7.24-2.311,10.438
	c-0.507,0.788-0.59,1.613-0.278,2.517c0.608,1.767,1.17,3.551,1.749,5.327c0.964,2.954,1.495,5.988,1.763,9.082
	c0.115,1.315,0.119,2.671,0.752,3.93c1.789,0.853,3.655,1.332,5.641,1.186c0.833-0.062,1.658-0.256,2.486-0.4
	c0.965-0.168,1.833-0.519,2.352-1.24c0.762-0.27,1.449-0.421,2.037-0.748c0.586-0.323,1.311-0.716,1.56-1.265
	c0.759-1.67,0.616-3.925-0.959-5.132c-1.017-0.776-1.418-1.703-1.627-2.868c-0.298-1.648-0.421-3.356-1.221-4.867
	c-0.711-1.337-0.798-2.759-0.829-4.228c4.004-6.312,7.671-12.783,9.365-20.337c0.531,0.477,0.969,0.79,1.307,1.186
	c1.062,1.25,2.091,2.527,3.127,3.799c2.198,2.697,4.838,4.638,8.442,4.934c2.052,0.168,4.104,0.333,6.151,0.531
	c1.439,0.139,2.877,0.293,4.305,0.511c1.401,0.211,2.794,0.379,4.207,0.164c0.246-0.037,0.501-0.007,0.809-0.007
	c0.078,1.866,0.189,3.652,0.216,5.44c0.038,2.786-0.032,5.575,0.036,8.361c0.062,2.629,0.249,5.254,0.372,7.883
	c0.064,1.371,0.183,2.745,0.155,4.116c-0.051,2.541-0.668,4.998-1.463,7.39c-0.737,2.214-0.483,4.232,0.51,6.306
	c0.742,1.542,1.186,3.202,1.21,4.966c0.015,1.216,0.255,2.427,0.385,3.642c0.101,0.928,0.616,1.536,1.436,1.919
	c0.759,0.356,1.522,0.709,2.284,1.06c1.905,0.878,3.824,1.568,5.908,0.544c0.162-0.082,0.377-0.052,0.56-0.104
	c1.317-0.376,2.672-0.667,3.738-1.561c0.199-0.396,0.382-0.76,0.577-1.146c0.484,0,0.898-0.022,1.311,0.004
	c1.985,0.126,4.1-1.638,3.449-4.005c-0.207-0.753-0.568-1.505-1.022-2.14c-0.597-0.834-1.312-1.596-2.056-2.306
	c-0.793-0.76-1.213-1.688-1.312-2.724c-0.134-1.403-0.183-2.821-0.176-4.233c0.017-4.024,0.794-7.972,1.351-11.938
	c0.628-4.472,0.908-8.951,0.695-13.468c-0.088-1.898-0.014-3.804-0.014-5.867c2.264-0.929,3.509-3.022,4.926-5.104
	c0.639,0.77,0.916,1.498,1.003,2.298c0.241,2.24,0.458,4.481,0.697,6.721c0.232,2.163,0.546,4.321,0.332,6.509
	c-0.052,0.53-0.053,1.069-0.024,1.6c0.264,4.945-0.056,9.841-1.211,14.666c-0.326,1.362-0.414,2.702,0.099,4.051
	c0.27,0.711,0.405,1.472,0.651,2.194c0.695,2.052,1.559,3.975,3.622,5.076c1.302,0.694,2.602,1.2,4.125,1.129
	c1.154-0.056,2.088-0.372,2.659-1.363c0.586-0.031,1.088-0.019,1.574-0.094c0.709-0.109,1.545-0.091,2.081-0.472
	c1.075-0.766,2.324-0.939,3.505-1.295c1.035-0.312,1.811-0.761,2.232-1.827c-0.111-2.763-1.846-4.71-3.678-6.731
	c0.05-0.568,0.084-1.099,0.146-1.625c0.211-1.779,0.442-3.555,0.644-5.335c0.055-0.487,0.067-0.986,0.044-1.478
	c-0.091-1.78-0.241-3.561-0.299-5.343c-0.047-1.524,0.115-3.062-0.018-4.576c-0.254-2.889,0.114-5.702,0.716-8.508
	c0.789-3.688,1.799-7.336,2.067-11.122c0.085-1.202,0.558-2.261,1.182-3.302c1.369-2.286,2.897-4.493,3.774-7.046
	c0.683-1.983,1.389-3.96,2.063-5.947c0.565-1.661,1.095-3.333,1.651-4.997c0.76-2.275,1.547-4.54,2.284-6.821
	c0.267-0.827,0.418-1.692,0.612-2.489c0.421-0.242,0.769-0.405,1.08-0.622c1.275-0.891,2.686-1.608,3.699-2.848
	c2.303-2.817,2.841-6.182,2.99-9.657c0.074-1.701-0.43-3.317-0.786-4.96c-0.265-1.215-0.558-2.513-0.395-3.714
	C172.602,57.203,173.196,55.211,173.715,53.217z"/>
<path fill-rule="evenodd" clip-rule="evenodd" fill="#e3a13b" class="fill" d="M134.233,76.547c0.401,0.193,0.698,0.385,1.022,0.484
	c1.964,0.602,3.932,1.182,6.007,1.803c-0.817,0.747-0.102,1.512-0.28,2.288c-0.211,0.01-0.418,0.022-0.742,0.041
	c-0.113-0.708-0.219-1.366-0.342-2.128c-0.307,0.014-0.578,0.027-0.92,0.042c0,0.62,0,1.145,0,1.815
	c-0.44-0.128-0.773-0.225-1.121-0.326c0.039-0.729,0.074-1.363,0.112-2.097c-0.364-0.034-0.635-0.061-0.966-0.092
	c-0.076,0.646-0.141,1.198-0.22,1.878c-0.39-0.083-0.696-0.148-1.071-0.229c0-0.607,0-1.125,0-1.602
	c-0.68-0.386-0.874,0.152-1.19,0.461c-0.555,0.117-1.238-0.253-1.728,0.452c-0.166,0.947,0.465,1.46,1.221,1.905
	c0.984,0.58,1.988,1.132,2.926,1.78c0.375,0.259,0.736,0.703,0.859,1.133c0.896,3.113,1.185,6.295,0.878,9.523
	c-0.103,1.063-0.226,2.124-0.343,3.187c-0.223,2.036-0.932,3.928-1.725,5.795c-0.045,0.104-0.115,0.196-0.175,0.296
	c-0.931,1.593-2.468,2.19-4.124,0.786c-0.839-1.698-1.727-3.542-2.665-5.359c-0.271-0.523-0.697-0.968-1.012-1.394
	c-1.388,0.273-1.82,0.7-1.854,1.907c-0.021,0.718,0.07,1.448,0.18,2.163c0.492,3.207,1.018,6.416,0.875,9.671
	c-0.096,2.167-0.357,4.329-0.621,6.486c-0.23,1.892-0.65,3.762-0.833,5.658c-0.196,2.05-0.235,4.114-0.302,6.175
	c-0.094,2.901-0.105,5.805-0.235,8.702c-0.137,3.048-0.348,6.093-0.573,9.135c-0.115,1.558-0.39,3.105-0.499,4.662
	c-0.127,1.825-0.153,3.657-0.225,5.486c-0.009,0.223-0.031,0.443-0.047,0.654c-3.027,0.457-3.596,0.98-6.116,3.437
	c0.037,0.238,0.082,0.525,0.125,0.799c0.172,0.05,0.298,0.134,0.383,0.103c0.352-0.129,0.711-0.256,1.03-0.449
	c2.165-1.316,4.329-0.822,6.496-0.026c0.105,0.037,0.206,0.107,0.288,0.186c1.252,1.194,2.277,2.558,3.124,4.198
	c-0.298,0.409-0.6,0.821-0.813,1.112c-0.748,0.159-1.186-0.059-1.52-0.46c-0.947-1.134-2.091-2.004-3.549-2.652
	c-0.399,0.056-1.011-0.287-1.491,0.402c0.235,0.207,0.431,0.429,0.671,0.583c0.799,0.513,1.34,1.232,1.778,2.057
	c0.415,0.78,0.49,1.52-0.21,2.28c-0.754-0.029-1.595,0.246-2.394-0.349c-0.063-0.26-0.138-0.553-0.205-0.846
	c-0.351-1.521-1.366-2.521-2.619-3.328c-0.368-0.237-0.709-0.199-1.144,0.188c1.509,1.749,2.536,3.639,1.541,6.021
	c-1.075,0.171-2.176,0.162-3.038-0.377c-1.493-0.934-3.031-1.913-3.112-4.03c-0.043-1.135-0.297-2.26-0.463-3.451
	c0.379-0.163,0.741-0.318,1.105-0.476c-0.15-0.745-0.732-0.458-1.168-0.58c-0.067-0.19-0.14-0.395-0.217-0.61
	c0.375-0.288,0.71-0.546,1.045-0.803c-0.023-0.091-0.048-0.184-0.07-0.274c-0.421-0.028-0.844-0.058-1.359-0.092
	c-0.099-0.213-0.219-0.474-0.335-0.725c0.649-0.767,1.866-0.161,2.516-1.142c-1.023-0.424-1.894-0.09-2.85,0.068
	c-0.203-0.506-0.395-0.988-0.657-1.646c0.71-0.181,1.354-0.354,2-0.505c0.557-0.13,0.558-0.122,0.68-0.973
	c-0.887,0.16-1.731,0.312-2.623,0.474c-0.317-0.829-0.053-1.581,0.09-2.289c1.045-0.845,2.673,0.076,3.492-1.163
	c-0.02-0.104-0.041-0.205-0.061-0.309c-0.994,0.074-1.992,0.146-3.159,0.233c0.127-0.739,0.244-1.418,0.378-2.196
	c0.921-0.151,1.777-0.294,2.765-0.458c0.073-0.161,0.185-0.407,0.36-0.798c-1.027,0.056-1.888,0.103-2.916,0.16
	c0.157-0.983,0.303-1.9,0.462-2.9c1.208-0.206,2.313-0.395,3.518-0.601c-0.14-0.316-0.223-0.507-0.325-0.737
	c-0.946,0.098-1.854,0.189-2.83,0.289c0-0.607,0-1.195,0-1.746c1.01-0.801,2.24-0.345,3.301-0.824
	c0.009-0.209,0.018-0.414,0.029-0.689c-1.057,0.09-2.027,0.172-3.093,0.263c0-0.681,0-1.345,0-1.995
	c0.813-0.771,2.132-0.029,2.991-1.004c-0.996-0.626-1.945-0.021-2.91-0.184c0-0.614,0-1.204,0-1.945
	c0.926-0.171,1.873-0.347,2.859-0.528c-0.545-0.725-0.545-0.725-2.836-0.484c-0.052-0.383-0.104-0.77-0.174-1.297
	c1.138-0.188,2.172-0.357,3.184-0.524c0.058-0.189,0.118-0.296,0.114-0.398c-0.005-0.106-0.071-0.21-0.121-0.342
	c-0.98,0.057-1.955,0.112-3.034,0.176c-0.047-0.545-0.088-1.026-0.129-1.494c0.885-0.68,1.902-0.339,2.883-0.544
	c0.012-0.23,0.024-0.434,0.043-0.743c-0.504-0.039-0.951-0.109-1.397-0.099c-0.453,0.013-0.902,0.104-1.49,0.18
	c-0.056-0.53-0.107-1.033-0.155-1.483c0.901-0.394,1.688-0.728,2.461-1.092c0.055-0.025,0.008-0.266,0.008-0.501
	c-0.838,0.135-1.609,0.259-2.535,0.407c-0.04-0.735-0.075-1.396-0.113-2.15c0.729-0.186,1.387-0.342,2.039-0.522
	c0.466-0.128,0.891-0.312,0.648-1.07c-0.822,0.194-1.651,0.39-2.612,0.616c-0.081-0.462-0.149-0.849-0.239-1.365
	c0.6-0.161,1.15-0.268,1.671-0.46c0.458-0.168,1.193,0.049,1.338-0.965c-0.573,0.034-1.042,0.034-1.499,0.099
	c-0.452,0.064-0.894,0.195-1.499,0.333c-0.116-0.637-0.226-1.24-0.327-1.796c0.664-0.571,1.637-0.282,2.086-1.077
	c-0.651-0.778-1.405,0.21-2.188-0.284c-0.035-0.39-0.081-0.895-0.126-1.391c0.577-0.318,1.071-0.591,1.597-0.881
	c-0.416-0.912-1.151-0.046-1.71-0.481c-0.029-0.388-0.067-0.873-0.099-1.314c0.344-0.315,0.635-0.581,1.047-0.958
	c-0.464-0.165-0.77-0.273-1.128-0.401c-0.106-0.769-0.714-1.526-0.067-2.391c-0.834-0.645-0.858-1.596-0.938-2.471
	c-0.203-2.277-0.527-4.554-0.281-6.853c0.057-0.521,0.008-1.054,0.008-1.562c-2.4-0.979-3.916-2.65-4.848-5.048
	c-0.301,0.092-0.578,0.177-0.852,0.259c0.312,2.146,1.855,3.312,3.113,4.664c-0.354,0.545-0.761,0.456-1.114,0.2
	c-0.772-0.556-1.521-1.146-2.259-1.745c-0.26-0.211-0.464-0.491-0.75-0.8c-0.273,0.207-0.492,0.376-0.748,0.569
	c0.924,1.452,2.224,2.287,3.698,2.951c-0.043,0.27-0.076,0.479-0.116,0.731c-1.34,0.046-2.476-0.496-3.684-0.947
	c-0.124,0.096-0.266,0.205-0.525,0.405c1.175,1.374,2.837,1.198,4.381,1.614c0.08,0.196,0.184,0.453,0.379,0.929
	c-0.705-0.062-1.224-0.076-1.73-0.161c-0.639-0.107-1.264-0.298-1.902-0.406c-0.49-0.082-0.496-0.05-0.994,0.584
	c1.479,0.594,2.977,0.938,4.669,0.868c0.075,0.372,0.143,0.718,0.237,1.2c-0.632,0.082-1.145,0.184-1.663,0.208
	c-0.8,0.037-1.603,0.009-2.405,0.037c-0.602,0.021-0.601,0.041-1.102,0.697c1.794,0.692,3.682-0.161,5.461,0.31
	c-1.531,1.026-3.233,0.652-4.906,0.767c-0.205,0.696,0.236,0.841,0.706,0.844c0.915,0.005,1.831-0.031,2.743-0.101
	c0.454-0.034,0.896-0.193,1.348-0.261c0.158-0.024,0.332,0.054,0.776,0.141c-1.422,1.146-2.962,0.962-4.411,1.323
	c0,0.217,0,0.458,0,0.783c1.545,0.103,2.941-0.381,4.424-0.953c0.12,0.418,0.22,0.762,0.312,1.076
	c-1.895,1.264-9.428,2.42-12.775,1.844c-0.241-0.851-0.492-1.736-0.766-2.702c-0.607,0.37-0.448,0.834-0.487,1.212
	c-0.043,0.407-0.01,0.822-0.01,1.377c-0.608-0.107-1.113-0.198-1.528-0.271c-0.552-0.656-0.043-1.562-0.717-2.067
	c-0.818,0.152-0.424,0.896-0.781,1.432c-0.602-0.533-1.182-1.046-1.791-1.585c0-0.727,0-1.442,0-2.422
	c-0.42,0.431-0.684,0.699-1.042,1.064c-0.376-0.472-0.74-0.931-1.017-1.277c-0.209-0.891,0.354-1.672-0.199-2.58
	c-0.311,0.492-0.54,0.857-0.838,1.33c-0.246-0.412-0.475-0.795-0.703-1.178c-0.092,0.069-0.186,0.138-0.279,0.207
	c0.083-0.82,0.166-1.642,0.255-2.513c-1.059-0.038-0.796,0.961-1.337,1.383c-0.265-0.199-0.55-0.414-0.912-0.686
	c0-1.188,0-2.377,0-3.719c-1.146,0.693-0.871,1.752-1.107,2.668c-0.627-0.034-0.971-0.374-1.065-0.959
	c-0.158-0.979-0.281-1.962-0.421-2.944c-0.036-0.256-0.083-0.511-0.127-0.777c-0.631,0.238-0.631,0.238-0.805,3.19
	c-0.323-0.161-0.615-0.306-0.887-0.442c-0.545-2.048-0.284-4.066-0.161-6.097c-0.76-0.146-0.872,0.375-0.927,0.789
	c-0.135,1.017-0.197,2.044-0.27,3.069c-0.027,0.375-0.005,0.754-0.005,1.125c-0.085,0.029-0.167,0.089-0.216,0.067
	c-0.171-0.073-0.332-0.177-0.454-0.244c-0.733-2.385-0.377-4.728-0.007-7.091c-0.711-0.288-0.936,0.078-0.998,0.574
	c-0.156,1.249-0.276,2.501-0.401,3.754c-0.034,0.358-0.036,0.72-0.063,1.296c-0.828-0.895-0.979-1.746-0.832-2.674
	c0.205-1.282,0.479-2.554,0.637-3.84c0.319-2.571,0.236-5.158-0.817-7.539c-1.294-2.917-4.336-5.403-7.851-4.579
	c-1.104,0.259-2.021,0.756-2.292,1.951c-0.218,0.953-0.345,1.929-0.31,2.954c-0.226,0.281-0.448,0.562-0.742,0.928
	c0.366,0.146,0.633,0.25,0.968,0.383c0.06,0.241,0.132,0.528,0.198,0.797c-0.35,0.27-0.66,0.509-1.128,0.869
	c0.572,0.197,0.947,0.327,1.396,0.481c0.05,0.441,0.103,0.916,0.152,1.352c-0.579,0.393-1.405-0.136-1.712,0.85
	c0.54,0.132,1.062,0.259,1.715,0.417c0.039,0.304,0.086,0.653,0.123,0.939c-0.83,0.652-1.894-0.561-2.688,0.674
	c0.851,0.222,1.592,0.414,2.47,0.643c-0.077,0.618-0.154,1.234-0.25,2c-0.786-0.267-1.421-0.484-2.06-0.696
	c-0.592-0.197-0.594-0.194-1.205,0.377c0.759,0.755,1.875,0.758,2.824,1.385c-0.263,0.544-0.532,1.104-0.831,1.722
	c-0.793-0.286-1.47-0.531-2.183-0.789c-0.203,0.18-0.392,0.347-0.729,0.646c0.842,0.398,1.569,0.742,2.395,1.132
	c-0.242,0.455-0.465,0.877-0.724,1.362c-0.789-0.289-1.498-0.547-2.259-0.825c-0.179,0.158-0.364,0.325-0.708,0.63
	c0.816,0.393,1.51,0.726,2.301,1.107c-0.306,0.513-0.589,0.991-0.903,1.517c-0.703-0.267-1.338-0.505-2.204-0.833
	c-0.15,0.128-0.355,0.306-0.714,0.612c0.968,0.492,1.599,0.814,2.381,1.213c-0.313,0.476-0.587,0.89-0.894,1.355
	c-0.859-0.35-1.628-0.662-2.445-0.994c-0.177,0.194-0.342,0.374-0.594,0.648c0.809,0.447,1.529,0.846,2.363,1.306
	c-0.368,0.605-0.693,1.139-1.064,1.748c-0.763-0.385-1.432-0.721-2.356-1.187c-0.149,0.157-0.315,0.33-0.61,0.64
	c0.918,0.567,1.577,0.976,2.3,1.423c-0.216,0.33-0.394,0.604-0.558,0.856c-0.975,0.191-1.432-0.743-2.3-0.895
	c-0.142,0.125-0.323,0.289-0.621,0.553c0.697,0.528,1.315,0.996,2.014,1.525c-0.349,0.42-0.631,0.762-0.971,1.17
	c-0.687-0.413-1.328-0.796-2.024-1.211c-0.195,0.205-0.367,0.388-0.636,0.669c0.644,0.485,1.234,0.931,1.946,1.467
	c-0.363,0.4-0.675,0.744-1.039,1.146c-0.674-0.435-1.278-0.823-1.969-1.268c-0.19,0.146-0.405,0.312-0.748,0.576
	c0.669,0.516,1.229,0.949,1.852,1.429c-0.436,0.434-0.856,0.851-1.303,1.295c-0.592-0.393-1.154-0.766-1.788-1.185
	c-0.225,0.194-0.437,0.378-0.733,0.636c0.566,0.415,1.045,0.763,1.674,1.223c-0.419,0.313-0.753,0.564-1.141,0.857
	c-0.621-0.438-1.175-0.826-1.777-1.248c-0.19,0.165-0.375,0.328-0.666,0.584c0.49,0.461,0.92,0.865,1.468,1.381
	c-0.411,0.361-0.815,0.718-1.261,1.11c-0.436-0.289-0.808-0.536-1.234-0.818c-0.186,0.174-0.363,0.344-0.586,0.555
	c0.281,0.334,0.519,0.618,0.825,0.986c-0.464,0.431-0.899,0.912-1.411,1.291c-2.098,1.557-3.243,3.606-3.765,6.184
	c-0.983,4.87-1.073,9.78-1.064,14.709c0.001,0.299,0,0.599,0,0.833c-0.845,0.328-1.625,0.545-2.314,0.922
	c-0.914,0.5-1.079,1.12-0.698,2.2c0.47,0,0.987,0.057,1.489-0.013c0.714-0.1,1.41-0.331,2.125-0.434
	c1.107-0.157,1.989,0.273,2.735,1.104c1.636,1.819,2.322,3.905,1.91,6.438c-0.262,0.169-0.562,0.366-0.986,0.641
	c-0.469-3.177-2.346-5.109-4.862-6.571c-0.684,0.28-1.264,0.519-1.895,0.775c1.017,0.886,2.106,1.571,2.827,2.533
	c0.745,0.996,0.995,2.293,0.92,3.693c-0.576,0.243-1.153,0.485-1.838,0.771c-0.512-2.672-1.758-4.818-3.261-6.748
	c-1.396-0.134-1.903,0.014-2.564,0.773c2.13,1.339,3.474,3.14,3.169,5.945c-0.695,0.1-1.362,0.265-2.029,0.271
	c-0.824,0.009-1.543-0.254-2.04-1.03c-0.554-0.861-1.272-1.618-1.805-2.49c-0.65-1.062-0.733-2.228-0.297-3.417
	c0.116-0.318,0.176-0.659,0.271-1.025c0.581-0.027,1.132-0.054,1.802-0.087c-0.284-0.909-1.164-0.462-1.62-1.07
	c0.02-0.167,0.058-0.482,0.095-0.766c0.194-0.079,0.299-0.161,0.4-0.156c0.417,0.021,0.832,0.081,1.25,0.106
	c0.523,0.03,0.963-0.077,1.087-0.791c-0.812-0.108-1.545-0.205-2.419-0.322c0.109-0.584,0.201-1.076,0.281-1.501
	c0.841-0.308,1.667,0.295,2.345-0.382c-0.417-1.012-1.442-0.428-2.211-0.913c0.024-0.341,0.056-0.77,0.08-1.121
	c0.847-0.575,1.87,0.562,2.632-0.446c-0.755-0.73-1.746-0.436-2.596-0.87c-0.047-0.406-0.096-0.844-0.141-1.239
	c0.953-0.745,2.035,0.266,2.918-0.366c-0.231-0.587-0.231-0.587-2.871-0.996c-0.055-0.551-0.114-1.132-0.172-1.697
	c1.082-0.298,2.01,0.807,3.139,0.063c-0.864-1.068-2.205-0.796-3.243-1.515c-0.042-0.332-0.096-0.766-0.153-1.226
	c1.205-0.43,2.343,0.752,3.619-0.067c-1.152-1.009-2.565-0.816-3.858-1.232c-0.138-0.763-0.278-1.529-0.432-2.379
	c1.228-0.027,2.226,0.896,3.455,0.468c-0.018-0.211-0.035-0.421-0.05-0.595c-1.22-0.381-2.375-0.74-3.534-1.103
	c0-0.778,0-1.448,0-2.152c1.363,0.293,2.647,0.57,4.053,0.872c0-0.437,0-0.674,0-0.899c-1.341-0.335-2.684-0.456-3.913-1.234
	c0.293-0.682,0.56-1.299,0.826-1.919c1.547-0.036,2.919,0.883,4.63,0.431c-0.255-0.281-0.378-0.539-0.557-0.588
	c-0.696-0.195-1.413-0.315-2.12-0.477c-0.367-0.085-0.728-0.194-1.271-0.341c0.449-0.801,0.845-1.504,1.226-2.182
	c1.422-0.247,2.823,0.72,4.362-0.252c-1.226-0.681-2.503-0.273-3.636-0.945c0.271-0.658,0.555-1.336,0.849-2.041
	c1.22-0.051,2.399,0.216,3.638-0.155c-0.104-0.3-0.169-0.493-0.225-0.655c-0.976-0.223-1.968,0.152-2.87-0.366
	c0.202-0.729,0.394-1.417,0.626-2.251c1.141,0,2.291,0,3.557,0c-0.129-0.376-0.196-0.574-0.307-0.896c-0.99,0-1.966,0-2.951,0
	c-0.229-0.876,0.047-1.536,0.278-2.193c1.053-0.05,2.068-0.1,3.114-0.149c0.021-0.32,0.033-0.498,0.057-0.854
	c-1.102,0-2.142,0-3.279,0c0.141-0.931,0.254-1.676,0.388-2.57c0.911,0,1.839,0,2.853,0c0-0.424,0-0.698,0-1.07
	c-0.959,0.238-1.844,0.278-2.729-0.104c0-0.746,0-1.456,0-2.266c0.698,0,1.331,0.003,1.963-0.002
	c0.382-0.003,0.765,0.007,1.144-0.028c0.404-0.038,0.641-0.236,0.491-0.752c-1.137-0.106-2.294-0.214-3.538-0.329
	c0-0.934,0-1.783,0-2.56c1.029-0.22,1.943-0.407,2.848-0.625c0.056-0.014,0.054-0.27,0.093-0.508c-0.92,0-1.777,0-2.682,0
	c-0.608-1.449,0.065-2.844-0.143-4.219c1.174-0.543,2.327,0.306,3.484-0.155c-0.022-0.229-0.045-0.438-0.075-0.74
	c-0.57-0.026-1.097-0.029-1.617-0.08c-0.527-0.051-1.051-0.151-1.661-0.243c0-0.976,0-1.894,0-2.772
	c1.194-0.439,2.344,0.445,3.444-0.141c0-0.684-0.445-0.665-0.863-0.704c-0.785-0.073-1.569-0.161-2.388-0.247
	c-0.102-1.186-0.019-2.18,0.394-3.213c0.896,0.137,1.713,0.295,2.539,0.375c0.415,0.043,0.962,0.114,0.938-0.694
	C40,83.907,38.98,83.699,37.807,83.46c0.264-0.997,0.493-1.861,0.729-2.751c1.152-0.203,2.26,0.653,3.469,0
	c-0.806-1.008-2.091-0.544-3.043-1.277c0.327-0.705,0.664-1.438,1.013-2.191c1.233-0.291,2.594,0.82,3.987-0.424
	c-1.3-0.228-2.353-0.41-3.458-0.604c0.128-1.172,0.697-1.975,1.167-2.81c1.01-0.159,1.916,0.687,2.983,0.172
	c-0.386-1.248-1.789-0.477-2.394-1.36c0.237-0.357,0.504-0.755,0.752-1.123c0.653,0,1.228,0,1.792,0
	c0.059-0.771-0.649-0.646-0.992-1.154c0.485-0.58,0.951-1.266,1.543-1.82c1.908-1.79,4.07-3.276,6.48-4.246
	c1.713-0.689,3.598-0.993,5.427-1.349c4.308-0.834,8.683-0.375,13.024-0.556c1.923-0.08,3.867,0.386,5.803,0.589
	c2.732,0.288,5.465,0.583,8.2,0.835c2.432,0.224,4.868,0.404,7.302,0.582c0.527,0.037,1.061,0,1.586-0.042
	c2.968-0.242,5.937-0.506,8.906-0.734c0.322-0.024,0.697,0.056,0.979,0.212c0.662,0.364,1.283,0.805,2.061,1.304
	c-0.346,0.338-0.596,0.58-0.842,0.821c-1.207-0.529-2.109-1.57-3.47-1.51c-0.14,0.006-0.271,0.208-0.49,0.39
	c1.093,0.636,2.095,1.218,3.174,1.843c-0.316,0.442-0.554,0.771-0.81,1.128c-1.199-0.474-2.245-1.331-3.512-1.212
	c-0.053,0.158-0.104,0.317-0.156,0.477c0.945,0.49,1.89,0.979,2.934,1.521c-0.311,0.461-0.533,0.793-0.754,1.118
	c-1.216-0.177-2.057-1.428-3.36-0.896c0.688,0.951,1.862,1.125,2.771,1.938c-0.217,0.38-0.449,0.785-0.682,1.19
	c-0.86-0.111-1.472-1.039-2.444-0.499c0.264,0.908,1.315,0.764,1.724,1.396c0.306,0.479-0.146,1.292,0.82,1.596
	c0.234-0.073,0.588-0.184,0.944-0.295c-0.047-0.051-0.093-0.104-0.14-0.155c1.584-1.949,3.103-3.956,4.774-5.826
	c1.112-1.245,2.361-2.403,3.694-3.409c2.469-1.863,5.066-3.549,8.057-4.503c0.348-0.111,0.719-0.149,1.279-0.259
	c-0.408,1.265-0.693,2.398-1.135,3.469c-0.914,2.208-0.978,4.536-1.087,6.861c-0.029,0.655,0.403,1.031,1.005,1.21
	c0.991-0.313,1.355-0.956,1.435-1.968c0.188-2.418,0.842-4.716,1.99-6.878c0.553-1.037,0.927-2.168,1.379-3.253
	c0.648-0.217,1.287-0.429,2.107-0.702c1.486,0.461,3.127,0.579,4.489-0.635c0.45,0,0.792,0,1.205,0
	c0.187-0.249,0.464-0.49,0.58-0.796c0.475-1.242,1.516-2.003,2.431-2.846c0.46-0.424,1.117-0.631,1.685-0.938
	c0.468-0.253,0.957-0.474,1.392-0.776c0.191-0.134,0.267-0.435,0.46-0.774c-1.642-0.424-3.303,0.21-4.759-1.1
	c-0.038-0.064-0.218-0.355-0.45-0.731c0.651-2.14,1.387-4.263,3.009-6.018c1.964-2.121,3.359-4.642,4.442-7.304
	c0.356-0.879,0.305-1.924,0.471-3.134c0.63-0.22,1.428-0.597,2.268-0.771c2.963-0.613,5.977-0.829,8.992-0.91
	c2.535-0.069,5.005,0.427,7.38,1.333c0.245,0.094,0.466,0.25,0.757,0.41c-0.146,0.287-0.273,0.542-0.436,0.86
	c0.22,0.144,0.426,0.277,0.657,0.428c0.323-0.196,0.608-0.368,0.957-0.581c0.262,0.188,0.526,0.379,0.937,0.675
	c-0.42,0.25-0.744,0.442-1.175,0.699c0.403,0.356,0.61,0.538,0.847,0.748c0.404-0.272,0.746-0.499,1.188-0.793
	c0.248,0.146,0.514,0.299,0.898,0.521c-0.562,0.435-0.998,0.771-1.551,1.195c1.074,1.052,2.201,0.699,3.394,0.366
	c0.31,0.399,0.626,0.81,0.972,1.255c-0.831,0.614-1.582,1.171-2.221,1.644c-0.135,0.793,0.113,1.275,0.564,1.597
	c0.771,0.55,1.58,1.05,2.395,1.534c0.454,0.269,0.952,0.463,1.502,0.726c0.184,0.828,0.389,1.639,0.539,2.458
	c0.375,2.062,0.745,4.126,1.078,6.194c0.121,0.75,0.171,1.519,0.18,2.277c0.021,1.966,0.385,3.867,0.996,5.752
	c-0.146,0.29-0.293,0.581-0.473,0.934c0.334,0.191,0.617,0.353,0.965,0.553c0.085,0.346,0.179,0.74,0.28,1.165
	c-0.445,0.144-0.79,0.255-1.145,0.37c0.084,0.889,0.854,0.496,1.351,0.84c0.064,0.423,0.142,0.932,0.229,1.512
	c-0.667,0.111-1.239,0.207-1.886,0.316c0.369,1.036,1.251,0.551,1.854,0.888c0,0.36,0,0.754,0,1.131
	c-0.729,0.198-1.493-0.502-2.123,0.314c0.536,0.613,1.34,0.518,2.092,0.911c-0.025,0.468-0.056,1.015-0.096,1.755
	c-0.585-0.203-1.029-0.359-1.474-0.514c-0.427-0.148-0.873-0.402-1.212,0.268c0.554,0.713,1.521,0.747,2.279,1.315
	c-0.12,0.314-0.25,0.654-0.374,0.982c-0.794,0.131-1.417-1.106-2.295-0.062c0.564,0.4,1.1,0.779,1.727,1.226
	c-0.219,0.355-0.401,0.653-0.613,1.001c-0.536-0.304-0.961-0.545-1.452-0.823c-0.188,0.101-0.405,0.216-0.789,0.421
	c0.521,0.472,0.949,0.863,1.446,1.313c-0.378,0.278-0.708,0.52-1.121,0.821c-0.326-0.386-0.611-0.724-0.994-1.176
	c-0.213,0.026-0.517,0.065-0.955,0.121c0.228,0.516,0.386,0.879,0.586,1.332c-1.055,0.022-1.619-0.538-2.078-1.361
	c0.766-0.658,1.878-1.021,1.834-2.435c-0.364-0.043-0.732-0.171-1.06-0.104c-0.438,0.092-0.913,0.249-1.255,0.525
	c-2.209,1.79-4.64,0.858-6.322-0.41c-0.778-0.587-1.542-1.332-2-2.175c-1.017-1.871-1.842-3.848-2.725-5.79
	c-0.104-0.225-0.081-0.509-0.093-0.594c1.196-0.9,2.354-1.634,3.345-2.549c1.656-1.527,2.865-3.372,3.301-5.635
	c0.379-1.98-0.338-3.559-2.188-4.249c-1.486-0.555-3.07-0.934-4.646-1.145c-2.126-0.286-4.266-0.059-6.38,0.354
	c-1.845,0.36-3.229,1.395-4.216,2.916c-0.812,1.251-0.661,2.657-0.078,3.958c0.817,1.827,2.219,3.224,3.849,4.305
	c1.411,0.936,2.836,1.983,4.811,1.903c0.142,2.195,0.242,4.235-1.04,6.115c-1.084,1.593-2.597,2.666-4.142,3.724
	c-0.155,0.105-0.337,0.194-0.519,0.239c-1.515,0.375-3.019,0.906-4.559,1.059c-1.381,0.135-2.807-0.115-4.205-0.262
	C135.022,76.09,135.029,76.031,134.233,76.547z M82.36,79.76c-0.216,0.356-0.532,0.68-0.618,1.056
	c-0.299,1.299-0.614,2.607-0.745,3.931c-0.379,3.824,0.433,7.519,1.428,11.178c0.069,0.256,0.171,0.511,0.306,0.738
	c0.451,0.76,1.082,1.368,1.994,1.34c0.98-0.031,1.961-0.23,2.93-0.412c0.318-0.061,0.645-0.271,0.449-0.832
	c-0.531,0.063-1.072,0.127-1.646,0.194c0-0.42,0-0.748,0-1.016c0.627-0.529,1.788-0.156,1.947-1.421
	c-0.825,0.13-1.562,0.246-2.411,0.378c-0.186-0.516-0.351-0.978-0.556-1.547c0.637-0.073,1.092-0.1,1.536-0.188
	c0.388-0.077,0.987,0.028,0.837-0.814c-0.837,0-1.656,0-2.547,0c-0.074-0.564-0.136-1.038-0.191-1.462
	c0.908-0.594,2.097,0.024,2.861-0.951c-0.963-0.669-2.023,0.071-3.013-0.434c0-0.571,0-1.194,0-1.793
	c0.729-0.425,1.738,0.183,2.31-0.735c-0.661-0.735-1.628,0.019-2.345-0.61c0.066-0.622,0.138-1.284,0.205-1.913
	c1.67-0.233,1.67-0.233,1.789-1.065c-0.602,0-1.192,0-1.751,0c-0.212-0.848-0.397-1.582-0.547-2.18
	c0.314-0.257,0.562-0.458,0.81-0.661c-0.063-0.107-0.127-0.215-0.189-0.323C84.321,80.073,83.441,79.934,82.36,79.76z
	 M99.119,102.824c-0.108-0.363-0.241-0.814-0.352-1.186c0.478-0.568,1.71-0.161,1.391-1.403c-0.605,0.078-1.158,0.149-1.8,0.231
	c-0.143-0.576-0.265-1.078-0.36-1.461c0.303-0.619,1.388-0.282,1.169-1.299c-0.476,0-0.916,0-1.424,0
	c-0.094-0.751-0.182-1.456-0.267-2.127c0.299-0.23,0.546-0.421,0.86-0.664c-0.376-0.251-0.647-0.433-0.912-0.608
	c0-0.508-0.016-0.963,0.002-1.417c0.061-1.448,0.128-2.896,0.204-4.343c0.033-0.644-0.129-1.204-0.698-1.728
	c-0.3,0.071-0.653,0.156-0.87,0.208c-0.935,1.17-1.392,2.358-1.583,3.673c-0.634,4.339-0.209,8.61,0.964,12.797
	c0.445,1.593,1.253,3.089,3.117,3.228c1.044-0.259,1.96-0.483,2.915-0.72c0.02-0.262,0.035-0.47,0.058-0.765
	c-0.658,0.044-1.236,0.082-1.876,0.125c-0.04-0.474-0.073-0.841-0.109-1.271c0.325-0.118,0.614-0.196,0.879-0.326
	c0.241-0.117,0.454-0.289,0.753-0.485C100.518,102.575,99.794,103.2,99.119,102.824z M50.826,88.709
	c-0.165,0.997-0.493,2.119-0.508,3.245c-0.043,3.206-0.576,6.302-1.704,9.3c-0.412,1.095-0.807,2.195-1.214,3.307
	c0.917,0.59,1.771,0.777,2.678,0.58c0.381-0.67-0.395-0.714-0.561-1.105c0.645-1.06,1.586,0.22,2.303-0.361
	c0.082-0.945-0.881-0.79-1.42-1.165c0.131-0.255,0.247-0.477,0.348-0.671c0.668,0.052,1.261,0.098,1.916,0.147
	c0.053-1.167-1.09-0.732-1.47-1.351c0.141-0.279,0.305-0.605,0.501-0.993c0.8,0.168,1.542,0.321,2.285,0.477
	c0.037-0.083,0.074-0.166,0.112-0.249c-0.256-0.258-0.481-0.563-0.778-0.761c-0.331-0.222-0.726-0.347-1.141-0.533
	c0.164-0.451,0.29-0.8,0.426-1.17c0.344,0,0.643,0,0.941,0c0.32,0,0.641,0,1.011,0c-0.043-1.158-1.279-0.622-1.617-1.413
	c0.112-0.397,0.252-0.89,0.36-1.277c0.847-0.34,1.405,0.687,2.326,0.088c-0.735-0.554-1.354-1.017-2.051-1.542
	c0.1-0.351,0.221-0.771,0.342-1.196c0.724,0.094,1.324,0.172,2.007,0.261c-0.14-1.216-1.241-0.944-1.813-1.591
	c0.074-0.398,0.164-0.889,0.248-1.347c0.666,0.047,1.169,0.083,1.64,0.116c0.225-0.595-0.029-0.799-0.388-0.92
	c-0.506-0.17-1.053-0.254-1.522-0.492C52.947,87.516,51.951,87.657,50.826,88.709z M122.688,153.821
	c-0.619-1.091-0.57-2.104-0.277-3.121c0.199-0.691,0.528-1.354,0.664-2.058c0.467-2.423,0.869-4.859,1.309-7.287
	c0.184-1.012-0.016-1.977-0.334-2.921c-0.217-0.644-0.488-1.276-1.372-1.606c-0.107,0.414-0.235,0.78-0.295,1.158
	c-0.115,0.748-0.122,1.52-0.299,2.25c-0.637,2.626-1.347,5.234-1.991,7.858c-0.392,1.595-0.675,3.204-0.376,4.864
	c0.153,0.863,0.586,1.546,1.151,2.171c0.368,0,0.702,0,1.141,0C122.227,154.711,122.446,154.287,122.688,153.821z M125.24,119.841
	c0.667-1.076,0.754-1.755,0.584-3.005c-0.082-0.593-0.134-1.215-0.051-1.802c0.309-2.121-0.147-4.094-1.057-5.987
	c-0.789-1.646-1.598-3.281-2.419-4.91c-0.136-0.271-0.379-0.488-0.56-0.714c-0.949,0.462-1.25,1.133-1.312,2.005
	c-0.133,1.875,0.34,3.596,1.033,5.326c0.76,1.9,1.335,3.877,1.929,5.839c0.292,0.969,0.444,1.98,0.667,3.005
	C124.518,119.692,124.873,119.766,125.24,119.841z M123.19,88.336c1.197-0.091,1.224-1.483,2.279-1.626
	c0.231,0.263,0.495,0.568,0.743,0.853c-0.229,0.814-0.879,1.429-0.72,2.304c1.076,0.217,0.905-0.941,1.567-1.208
	c0.209,0.119,0.462,0.265,0.738,0.422c0,0.396,0,0.76,0,1.304c0.345-0.147,0.646-0.182,0.752-0.342
	c0.289-0.441,0.535-0.921,0.729-1.413c0.446-1.126,0.258-1.602-0.649-2.371c-0.57-0.483-1.1-1.047-1.531-1.655
	c-1.01-1.418-1.586-3.021-1.821-4.753c-0.091-0.669-0.156-1.379-0.893-1.893c-0.439,0.056-0.959,0.122-1.478,0.189
	c-0.598,1.339-2.295,1.212-3.017,2.409c1.062,0.877,1.618-0.641,2.622-0.383c-0.266,1.239-1.869,1.354-2.209,2.604
	c1.148,0.497,1.519-1.108,2.562-0.855c0.169,0.359,0.355,0.76,0.503,1.072c-0.395,1.008-1.603,1.206-1.807,2.271
	c1.031,0.332,1.388-0.754,2.234-0.885c0.297,0.437,0.609,0.896,0.93,1.367C124.002,86.481,123.231,87.088,123.19,88.336z
	 M162.175,49.181c0.381,0,0.766,0.031,1.145-0.005c1.044-0.102,1.609-0.757,1.923-1.706c0.294-0.884,0.2-1.703-0.545-2.281
	c-0.622-0.479-1.318-0.919-2.053-1.19c-1.241-0.459-2.606-0.628-3.795-1.188c-1.097-0.519-2.07-0.375-3.08-0.022
	c-1.039,0.363-1.48,1.416-1.049,2.414c0.333,0.771,0.784,1.446,1.494,1.979C157.99,48.514,159.98,49.141,162.175,49.181z
	 M128.478,65.629c1.204,0.181,1.312,0.064,1.827-0.91c0.874-1.646,1.756-3.298,2.766-4.862c1.177-1.825,2.763-3.217,4.788-4.123
	c1.177-0.525,2.262-1.26,3.362-1.94c0.488-0.301,0.862-0.729,0.841-1.482c-0.829-0.08-1.583,0.03-2.315,0.412
	c-0.744,0.389-1.528,0.696-2.259,1.108c-0.86,0.485-1.734,0.972-2.507,1.58c-2.572,2.025-4.327,4.706-5.787,7.579
	C128.801,63.768,128.155,64.548,128.478,65.629z M134.775,49.237c0.407,0,0.758,0.053,1.087-0.012c0.634-0.124,1.25-0.33,1.88-0.478
	c2.698-0.633,4.405-2.443,5.667-4.773c0.322-0.597,0.223-1.172-0.357-1.492c-0.469-0.261-1.11-0.503-1.597-0.395
	c-2.429,0.538-4.769,1.303-6.632,3.106c-0.886,0.858-1.2,1.88-1.316,3.076C133.968,48.621,134.386,48.939,134.775,49.237z
	 M128.53,72.842c1.036,1.026,2.44,0.388,2.575-1.081c0.145-1.565,0.895-2.814,1.755-4.039c0.329-0.469,0.672-0.928,0.999-1.396
	c0.675-0.961,1.021-2.031,1.09-3.393c-0.208-0.217-0.492-0.514-0.863-0.903c-0.631,0.517-1.223,0.844-1.596,1.334
	c-1.544,2.028-3.168,4.016-3.896,6.537C128.303,70.903,128.028,71.888,128.53,72.842z M167.812,55.27
	c1.236-1.363,0.696-4.508-0.917-6.215c-0.57-0.148-0.963,0.164-1.258,0.575c-0.525,0.733-1.286,1.022-2.102,1.26
	c-0.343,0.101-0.661,0.28-0.989,0.424c0.207,0.895,0.664,1.393,1.401,1.666c1.149,0.425,2.224,0.971,3.071,1.9
	C167.197,55.077,167.527,55.137,167.812,55.27z M161.355,40.707c-0.063-0.072-0.122-0.188-0.216-0.235
	c-1.927-0.968-3.847-1.959-5.804-2.868c-0.646-0.301-1.396-0.411-2.019,0.168c-0.345,0.898-0.347,1.235,0.214,1.613
	c1.414,0.95,2.807,1.961,4.497,2.396c0.907,0.234,1.809,0.175,2.688-0.141C161.143,41.488,161.473,41.262,161.355,40.707z
	 M127.697,59.111c-0.787-0.063-0.839-0.091-1.093,0.385c-0.341,0.635-0.737,1.292-0.854,1.982c-0.424,2.498-0.431,5.015-0.023,7.523
	c0.072,0.447,0.262,0.792,0.773,0.826c0.575-0.264,0.771-0.726,0.76-1.305c-0.012-0.611-0.039-1.222-0.043-1.832
	C127.191,64.183,126.977,61.664,127.697,59.111z M158.676,53.373c0.481,0.818,1.275,0.939,1.98,1.124
	c1.542,0.407,2.75,1.268,3.729,2.493c0.381,0.476,0.734,0.975,1.137,1.43c0.73,0.821,1.635,0.871,2.352,0.107
	c-0.309-1.046-1.031-1.821-1.914-2.427c-1.659-1.139-3.344-2.242-5.055-3.302c-0.413-0.255-0.968-0.28-1.465-0.413
	C159.121,52.798,158.896,53.086,158.676,53.373z M155.061,48.861c-0.685-0.147-1.34-0.313-2.004-0.429
	c-2.061-0.36-4.121-0.76-6.219-0.267c-0.89,0.209-1.73,0.511-2.396,1.132c0.279,0.949,0.488,1.109,1.243,0.981
	c0.747-0.127,1.489-0.342,2.24-0.376c2.165-0.098,4.332-0.123,6.499-0.183c0.223-0.005,0.441-0.041,0.709-0.068
	C155.109,49.393,155.09,49.177,155.061,48.861z M137.391,41.088c0.506,0.806,1.07,0.877,1.639,0.688
	c0.569-0.191,1.143-0.437,1.634-0.772c1.032-0.706,2.023-1.474,3.007-2.247c0.32-0.251,0.59-0.581,0.84-0.908
	c0.42-0.543,0.624-1.121,0.078-1.826c-1.077,0.384-2.163,0.682-2.846,1.712c-0.779,1.172-1.82,2.014-3.131,2.547
	C138.184,40.454,137.826,40.793,137.391,41.088z M147.312,39.332c-1.047,0.265-1.393,0.694-1.419,1.888
	c-0.031,1.403-0.007,2.809-0.007,4.184c0.965,0.69,1.662,0.621,1.942-0.246c0.448-1.388,0.726-2.814,0.478-4.285
	C148.205,40.255,147.997,39.689,147.312,39.332z M152.62,45.222c0.222-0.727,0.016-1.271-0.356-1.789
	c-0.635-0.885-0.989-1.858-0.982-2.971c0.002-0.398-0.162-0.799-0.247-1.183c-0.899,0.031-1.148,0.191-1.282,1.115
	c-0.229,1.574,0.031,3.104,0.761,4.518C151.041,45.936,151.619,45.995,152.62,45.222z M161.254,65.577
	c0.516,1.558,1.657,1.8,2.824,0.537c-0.229-0.524-0.486-1.114-0.728-1.667C162.307,64.378,161.729,64.838,161.254,65.577z
	 M134.572,69.523c1.662,0.178,2.509-0.879,2.062-2.31c-0.97-0.35-1.548,0.273-2.241,0.922
	C134.449,68.563,134.508,69.03,134.572,69.523z M145.939,68.021c-0.988-0.409-1.539-0.274-1.878,0.356
	c-0.384,0.719-0.111,1.509,0.765,2.009c0.352-0.149,0.757-0.324,1.276-0.547C146.042,69.177,145.988,68.56,145.939,68.021z
	 M138.352,66.371c0.538,0.858,0.967,1.096,1.533,0.889c0.621-0.229,0.924-1.019,0.774-2.011
	C139.585,64.702,138.938,65.005,138.352,66.371z M162.659,68.992c-0.254-0.017-0.55-0.045-0.844-0.052
	c-0.511-0.014-1.025,0.029-1.206,0.613c-0.173,0.559,0.139,0.93,0.654,1.232c0.36,0,0.768,0,1.178,0
	C162.871,70.232,163.236,69.717,162.659,68.992z M157.62,63.957c-0.001,1.415,0.63,1.652,2.107,0.854
	c0.074-0.762-0.143-1.304-0.624-1.504C158.425,63.023,158.067,63.525,157.62,63.957z M158.952,68.404
	c-0.06-0.432-0.113-0.83-0.162-1.181c-1.071-0.396-1.233-0.337-2.04,0.669C157.17,69.037,157.524,69.137,158.952,68.404z
	 M143.922,65.213c0.045-0.902,0.045-0.902-0.783-1.39c-0.605,0.211-1.373,0.275-1.403,1.232
	C142.645,65.909,142.901,65.931,143.922,65.213z M141.621,68.97c-0.366,0.174-0.662,0.314-0.904,0.429
	c-0.268,0.693-0.152,1.206,0.424,1.539c0.392,0.229,0.807,0.2,1.131-0.154c0.34-0.368,0.387-0.795,0.137-1.328
	C142.215,69.338,141.967,69.183,141.621,68.97z M52.765,86.207c1.194,0.514,2.436,0.664,3.763,0.762
	c-0.084-0.609-0.378-0.903-0.817-0.958C54.736,85.891,53.746,85.429,52.765,86.207z M138.282,73.281
	c0.489-0.51,0.733-1.012,0.294-1.66c-0.708-0.208-1.337-0.13-1.863,0.372C136.789,73.183,136.989,73.351,138.282,73.281z
	 M165.421,66.556c0.428,0.98,0.858,1.132,2.045,0.626c-0.108-0.436-0.221-0.889-0.321-1.293
	C165.953,65.64,165.953,65.64,165.421,66.556z M165.723,70.866c-1.184-0.324-1.47-0.068-1.442,1.164
	c0.513,0.447,1.022,0.475,1.62-0.099C165.844,71.599,165.786,71.245,165.723,70.866z M49.229,107.065
	c-0.204-1.05-1.038-1.022-1.667-1.212c-0.356-0.106-0.646,0.124-0.615,0.635C47.592,106.891,48.252,107.281,49.229,107.065z
	 M53.748,83.739c1.253,0.627,1.812,0.484,2.213-0.698C55.218,83.519,54.391,82.878,53.748,83.739z M46.179,108.918
	c0.737,0.285,1.269,0.833,1.978,0.231c-0.244-0.777-0.896-0.726-1.479-0.892C46.533,108.448,46.407,108.614,46.179,108.918z
	 M45.414,110.678c0.704,0.539,0.704,0.539,1.389,0.176C46.256,109.993,45.99,109.959,45.414,110.678z"/>
<path fill-rule="evenodd" clip-rule="evenodd" fill="#e3a13b" class="fill" d="M122.912,40.602c0.848-1.291,1.598-2.434,2.347-3.574
	c-0.036-0.042-0.073-0.086-0.108-0.13c0.507-0.236,1.013-0.473,1.519-0.71c0.062,0.052,0.123,0.104,0.185,0.154
	c-0.187,0.296-0.354,0.603-0.559,0.883c-1.244,1.717-2.246,3.544-2.603,5.667c-0.046,0.262-0.081,0.527-0.097,0.793
	c-0.01,0.185,0.021,0.371,0.041,0.636c0.268,0.032,0.508,0.062,0.754,0.092c0.516-0.997,0.945-1.976,1.5-2.877
	c1.039-1.684,2.113-3.348,3.248-4.969c0.413-0.588,0.936-1.175,1.821-1.251c-0.944,1.332-2.118,2.524-2.495,4.188
	c0.492,0.223,0.652-0.079,0.778-0.332c0.606-1.217,1.508-2.185,2.49-3.099c1.456-1.354,3.243-1.488,5.145-0.25
	c-0.247,0.432-0.44,0.928-0.764,1.312c-1.497,1.779-3.034,3.523-4.55,5.287c-2.578,3.004-4.765,6.229-5.987,10.059
	c-0.39,1.22-1.078,2.355-1.718,3.479c-0.307,0.541-0.816,0.967-1.262,1.474c-0.776-0.545-1.119-1.269-1.306-1.959
	c-0.472-1.761-0.879-3.55-1.148-5.352c-0.25-1.656-0.415-3.346-0.377-5.015c0.039-1.703,0.276-3.417,0.605-5.092
	c0.259-1.32,1.159-2.16,2.627-2.365c-0.379,0.926-0.725,1.774-1.118,2.735C122.334,40.481,122.606,40.538,122.912,40.602z"/>
<path fill-rule="evenodd" clip-rule="evenodd" fill="#e3a13b" class="fill" d="M152.555,74.074c0.145,3.032-0.305,5.768-0.736,8.549
	c0.732,0.166,0.98-0.126,1.129-0.69c0.636-2.43,1.3-4.852,1.953-7.275c0.963,0.653,1.988,1.348,3.169,2.148
	c0.33,1.641,0.687,3.425,0.376,5.27c-0.29,1.742-0.887,3.373-1.708,4.946c-0.871,1.67-2.3,2.384-4.042,2.618
	c-2.099,0.282-3.931-0.495-5.532-1.735c-1.345-1.038-1.364-2.601-1.042-4.098c0.408-1.898,0.971-3.762,1.459-5.643
	c0.182-0.701,0.343-1.405,0.508-2.109c0.127-0.534,0.485-0.895,0.973-1.042C150.145,74.683,151.247,74.42,152.555,74.074z"/>
<path fill-rule="evenodd" clip-rule="evenodd" fill="#e3a13b" class="fill" d="M154.88,61.86c-0.62-0.643-1.104-1.147-1.631-1.694
	c0.921-0.858,2.129-1.3,2.177-2.659c0.02-0.564-0.098-1.057-0.591-1.468c-1.249-0.274-2.373-0.093-3.225,1.104
	c-0.056,2.215,0.738,4,2.723,5.149c-1.929,2.332-3.362,2.919-5.822,1.075c0.433-1.043,0.905-2.07,1.289-3.13
	c0.512-1.417,0.322-2.701-0.903-3.715c-2.133-0.624-3.174-0.503-4.157,0.521c-0.168,1.038,0.285,1.883,1.151,2.388
	c0.802,0.468,1.735,0.711,2.685,1.083c-0.066,0.807-0.362,1.575-1.126,2.203c-1.554-0.885-2.87-1.958-3.884-3.365
	c-1.245-1.729-0.308-4.173,1.261-4.768c0.604-0.229,1.203-0.513,1.83-0.64c2.971-0.601,5.951-0.955,8.944-0.101
	c1.714,0.488,2.382,1.482,2.033,3.248C157.274,58.91,156.145,60.301,154.88,61.86z"/>
<path fill-rule="evenodd" clip-rule="evenodd" fill="#e3a13b" class="fill" d="M69.016,139.125c-1.769-0.504-3.343,0.298-4.946,0.489
	c-0.146-0.608,0.263-0.706,0.551-0.808c1.04-0.369,2.095-0.693,3.146-1.032c0.313-0.103,0.627-0.196,0.949-0.297
	c-0.081-0.724-0.542-0.727-0.936-0.629c-1.033,0.258-2.049,0.584-3.07,0.882c-0.267,0.078-0.533,0.157-0.947,0.278
	c1.343-1.889,5.615-3.978,7.981-3.949c0.499,1.368,0.608,2.831,0.722,4.269c-0.679,0.375-1.299,0.719-2.029,1.125
	c0.094,0.643,0.182,1.219,0.289,1.945c0.648-0.034,1.217,0,1.755-0.107c0.68-0.134,1.19,0.03,1.63,0.549
	c0.541,0.641,1.17,1.217,1.641,1.902c0.648,0.943,0.461,1.892-0.514,2.692c-0.503-1.503-1.258-2.816-2.811-3.347
	c-0.631-0.214-1.333-0.235-2.006-0.296c-0.103-0.01-0.227,0.242-0.303,0.329c0.677,0.577,1.353,1.056,1.911,1.646
	c1.336,1.41,1.04,2.515-0.728,3.238c-0.556-0.912-1.098-1.812-1.652-2.704c-0.594-0.952-1.52-1.469-2.449-1.872
	c-1.004,0.067-1.939,0.132-2.955,0.202c-0.029-0.473-0.05-0.798-0.078-1.239c1.087-0.121,2.105-0.219,3.117-0.355
	c0.459-0.061,1.04,0.005,1.131-0.819c-1.438-0.45-2.849,0.268-4.344,0.111c-0.016-0.206-0.033-0.409-0.059-0.719
	c1.241-0.22,2.436-0.431,3.629-0.64C68.15,139.882,68.735,139.938,69.016,139.125z"/>
<path fill-rule="evenodd" clip-rule="evenodd" fill="#e3a13b" class="fill" d="M139.951,108.131c0,0.732,0,1.408,0,2.059
	c0.541,0.552,1.008,0.276,1.457-0.041c1.212-0.848,2.416-1.704,3.627-2.551c0.05-0.036,0.144-0.005,0.299-0.005
	c-0.059,0.583-0.117,1.165-0.188,1.875c0.352-0.025,0.62,0.021,0.826-0.069c1.057-0.467,2.006-1.084,2.728-2.02
	c0.29-0.375,0.651-0.693,1.119-1.181c0.099,1.311-0.541,2.106-1.075,2.892c-1.176,1.726-2.809,2.818-4.815,3.472
	c-2.833,0.924-5.733,1.203-8.673,1.173c-1.168-0.012-2.085,0.309-2.783,1.246c-0.104,0.137-0.276,0.222-0.57,0.452
	c-0.118-1.243-0.221-2.319-0.326-3.433c0.492-0.711,0.981-1.418,1.57-2.267c0.2,0.565,0.336,0.948,0.515,1.455
	c1.196-0.077,2.175-0.724,3.181-1.26C137.863,109.386,138.849,108.772,139.951,108.131z"/>
<path fill-rule="evenodd" clip-rule="evenodd" fill="#e3a13b" class="fill" d="M64.983,147.795c-0.091-0.406-0.169-0.767-0.256-1.156
	c0.991-0.392,2.126-0.008,3.001-0.771c-0.306-0.792-0.955-0.467-1.457-0.472c-0.566-0.006-1.134,0.075-1.769,0.123
	c-0.059-0.289-0.105-0.521-0.169-0.835c1.023-0.116,1.961-0.223,2.86-0.324c1.138,1.134,1.65,2.503,1.485,3.978
	C67.423,148.431,66.219,148.179,64.983,147.795z"/>
<path fill-rule="evenodd" clip-rule="evenodd" fill="#e3a13b" class="fill" d="M104.399,62.913c1.074-0.512,1.354-0.461,2.647,0.465
	c-0.337,0.262-0.645,0.499-1.033,0.8C105.473,63.753,104.958,63.351,104.399,62.913z"/>
<path fill-rule="evenodd" clip-rule="evenodd" fill="#e3a13b" class="fill" d="M141.996,80.588c-0.049-0.472-0.099-0.942-0.165-1.582
	c0.459,0.091,0.835,0.164,1.404,0.275c-0.382,0.554-0.666,0.966-0.95,1.38C142.189,80.636,142.093,80.611,141.996,80.588z"/>
<path fill-rule="evenodd" clip-rule="evenodd" fill="#e3a13b" class="fill" d="M107.995,62.864c-0.314-0.288-0.479-0.438-0.781-0.717
	c0.723-0.303,1.285-0.539,1.847-0.774c0.054,0.069,0.106,0.14,0.16,0.209C108.842,61.979,108.463,62.375,107.995,62.864z"/>
<path fill-rule="evenodd" clip-rule="evenodd" fill="#e3a13b" class="fill" d="M163.494,48.391c-0.893-0.061-1.781-0.12-2.955-0.199
	c1.212-1.005,1.562-2.026,1.212-3.244c0.95-0.082,2.107,0.53,2.455,1.308C164.578,47.086,164.227,47.724,163.494,48.391z"/>
<path fill-rule="evenodd" clip-rule="evenodd" fill="#e3a13b" class="fill" d="M156.734,46.211c-0.728-0.475-1.074-1.203-1.082-2.232
	c0.292-0.19,0.594-0.389,0.836-0.546c0.759,0.167,1.407,0.309,1.953,0.428C157.887,44.624,157.353,45.359,156.734,46.211z"/>
<path fill-rule="evenodd" clip-rule="evenodd" fill="#e3a13b" class="fill" d="M158.651,46.291c-0.126-0.897,0.28-1.306,0.998-1.485
	c1.09,0.902,1.139,1.029,0.764,2.051C159.664,47.234,159.141,46.868,158.651,46.291z"/>
<path fill-rule="evenodd" clip-rule="evenodd" fill="#e3a13b" class="fill" d="M140.94,45.941c-0.163-0.596-0.299-1.093-0.412-1.508
	c-0.433-0.302-0.771-0.539-1.243-0.867c1.179-0.353,2.183-1.057,3.388-0.069C142.177,44.409,141.754,45.262,140.94,45.941z"/>
<path fill-rule="evenodd" clip-rule="evenodd" fill="#e3a13b" class="fill" d="M137.212,48.121c-0.583,0.148-1.167,0.297-1.804,0.457
	c-0.297-0.248-0.577-0.483-0.84-0.705c0.098-1.001,0.454-1.741,1.377-2.368c-0.072,1.192,0.496,1.898,1.402,2.401
	C137.303,47.978,137.258,48.05,137.212,48.121z"/>
<path fill-rule="evenodd" clip-rule="evenodd" fill="#e3a13b" class="fill" d="M138.555,47.091c-0.812-0.248-1.083-0.586-0.977-1.212
	c0.107-0.616,0.396-0.777,1.255-0.701C139.379,46.026,139.36,46.159,138.555,47.091z"/>
</svg>
