<svg version="1.1" id="svg" xmlns="http://www.w3.org/2000/svg" xmlns:xlink="http://www.w3.org/1999/xlink" x="0px" y="0px"
	 width="200px" height="200px" viewBox="0 0 200 200" enable-background="new 0 0 200 200" xml:space="preserve">
<path class="stroke" fill="#3b4954"  d="M167.543,51.387c-0.614-0.304-1.208-0.649-1.812-0.972c-1.427-0.759-2.838-1.549-4.289-2.259
	c-1.041-0.508-2.136-0.904-3.281-1.381c-0.098-2.105-0.96-3.66-2.223-5.051c-1.129-1.244-2.33-2.38-3.936-2.954
	c-1.864-0.667-3.739-1.307-5.633-1.88c-1.352-0.411-2.739-0.709-4.117-1.032c-1.497-0.351-3.024-0.591-4.498-1.02
	c-3.819-1.111-7.702-1.186-11.557-0.511c-3.463,0.606-6.885,1.492-10.285,2.405c-1.987,0.533-3.911,1.315-5.832,2.068
	c-2.109,0.827-4.193,1.718-6.263,2.64c-0.899,0.4-1.761,0.403-2.713,0.269c-1.76-0.248-3.536-0.454-5.31-0.513
	c-4.43-0.147-8.815,0.439-13.181,1.089c-1.997,0.297-3.796,1.18-5.054,2.872c-0.842,1.134-1.071,2.345-0.267,3.615
	c0.216,0.341,0.432,0.686,0.68,1.004c0.695,0.896,1.394,1.79,2.117,2.664c0.931,1.127,0.963,2.382,0.467,3.657
	c-0.365,0.939-0.839,1.839-1.316,2.73c-0.858,1.606-1.775,3.181-2.632,4.79c-0.798,1.5-1.521,3.04-2.325,4.537
	c-1.721,3.209-3.478,6.397-5.208,9.601c-1.478,2.736-3.304,5.272-4.437,8.208c-0.682,1.768-1.67,3.416-2.483,5.135
	c-0.571,1.207-1.155,2.417-1.597,3.674c-1.115,3.168-2.055,6.4-3.25,9.537c-1.109,2.908-1.705,5.901-2.051,8.966
	c-0.3,2.655-0.647,5.306-0.854,7.967c-0.202,2.618-0.572,5.238-0.159,7.877c0.104,0.67,0.015,1.371,0.015,2.082
	c-0.567,0.44-1.171,0.853-1.71,1.338c-1.564,1.408-3.142,2.806-4.639,4.285c-1.207,1.192-2.353,2.454-3.432,3.763
	c-1.286,1.559-2.402,3.26-3.719,4.792c-1.912,2.228-3.422,4.717-4.893,7.229c-0.849,1.449-1.224,3.071-1.008,4.697
	c1.247,1.53,2.702,1.777,4.397,1.059c1.34-0.567,2.685-1.132,4.058-1.608c1.947-0.676,3.892-1.406,5.895-1.864
	c2.559-0.583,5.16-0.971,7.818-0.86c3.504,0.147,6.91,0.659,10.104,2.206c0.237,0.115,0.539,0.095,0.812,0.138
	c-0.025-0.076-0.05-0.151-0.074-0.227c1.206-0.639,2.363-1.403,3.627-1.892c3.185-1.233,6.499-2.021,9.906-2.295
	c2.134-0.172,4.284-0.287,6.413,0.193c0.563,0.128,1.164,0.091,1.829,0.137c0.126-0.592,0.261-1.013,0.296-1.442
	c0.093-1.093-0.335-2.057-0.829-2.998c-1.309-2.498-3.202-4.575-4.969-6.729c-1.961-2.388-4.455-4.227-6.869-6.144
	c-1.818-1.444-3.717-2.729-5.811-3.734c-0.504-0.242-0.972-0.56-1.458-0.843c0.027-1.826,0.775-3.37,1.587-4.85
	c1.65-3.011,3.021-6.197,5.273-8.852c0.129-0.152,0.223-0.337,0.329-0.51c1.642-2.7,3.541-5.208,5.632-7.573
	c1.233-1.393,2.444-2.809,3.741-4.14c0.891-0.916,1.641-2.036,2.982-2.417c0.7-0.2,1.386-0.45,2.082-0.666
	c4.414-1.366,8.709-3.024,12.794-5.193c2.681-1.423,5.338-2.893,7.992-4.366c0.776-0.432,1.511-0.941,2.257-1.428
	c1.525-0.994,3.057-1.977,4.566-2.998c2.14-1.449,4.254-2.936,6.392-4.389c2.509-1.708,5.031-3.398,7.55-5.091
	c0.385-0.26,0.787-0.496,1.401-0.88c-0.056,0.748-0.026,1.232-0.139,1.682c-0.274,1.097-0.61,2.179-0.93,3.265
	c-0.187,0.633-0.37,1.29,0.032,1.878c0.973,1.431,1.989,2.833,2.995,4.242c0.041,0.056,0.144,0.067,0.295,0.132
	c0.398,0,0.874,0,1.435,0c-0.084,0.573-0.158,1.081-0.218,1.496c0.692,1.614,1.446,3.105,1.971,4.672
	c0.521,1.557,0.812,3.189,1.245,4.959c0.114,0.047,0.412,0.275,0.7,0.264c0.842-0.035,1.695-0.094,2.517-0.272
	c1.479-0.322,2.551-1.183,3.057-2.654c0.197-0.574,0.403-1.148,0.535-1.739c0.522-2.326,1.16-4.64,1.478-6.995
	c0.302-2.239,0.228-4.526,0.376-6.788c0.253-3.891-0.934-7.247-3.555-10.133c-0.665-0.731-1.173-1.604-1.864-2.564
	c1.416-0.975,2.733-1.9,4.072-2.795c0.637-0.426,1.337-0.758,1.965-1.196c0.989-0.688,2.087-1.071,3.258-1.238
	c1.761-0.25,3.528-0.475,5.299-0.657c2.509-0.256,4.964-0.759,7.346-1.579c1.521-0.524,2.721-1.447,3.224-3.059
	c0.336-1.075,0.637-2.161,0.936-3.183C170.054,53.133,168.982,52.099,167.543,51.387z"/>
<path fill-rule="evenodd" clip-rule="evenodd" fill="#e5f3a5" class="fill" d="M72.726,104.427c-0.158,0.269-0.333,0.569-0.495,0.845
	c-0.791,0.066-1.33-0.813-2.159-0.384c0.104,0.916,1.127,0.712,1.531,1.357c-0.083,0.181-0.191,0.417-0.336,0.732
	c-0.561-0.229-1.07-0.438-1.658-0.68c-0.088,0.22-0.168,0.415-0.269,0.664c0.497,0.309,0.938,0.582,1.513,0.938
	c-0.224,0.408-0.439,0.802-0.676,1.235c-0.717-0.236-1.178-0.956-2.017-0.661c-0.04,1.12,1.344,0.771,1.584,1.764
	c-0.12,0.285-0.318,0.752-0.508,1.203c-0.841-0.01-1.239-1.112-2.194-0.639c0.165,0.939,1.203,0.938,1.657,1.741
	c-0.108,0.349-0.255,0.829-0.435,1.41c-0.79-0.371-1.484-0.698-2.229-1.048c-0.045,0.47,0.187,0.714,1.64,1.899
	c-0.185,0.494-0.377,1.013-0.583,1.562c-0.884-0.223-1.43-1.421-2.633-0.851c0.527,0.97,1.63,0.889,2.258,1.677
	c-0.16,0.445-0.345,0.957-0.512,1.422c-0.927,0.299-1.353-0.971-2.316-0.591c0.223,1.071,1.183,1.132,1.959,1.586
	c-0.188,0.485-0.381,0.989-0.604,1.57c-0.639-0.312-1.223-0.598-1.984-0.971c-0.047,1.399,1.22,1.22,1.732,1.993
	c-0.103,0.275-0.245,0.66-0.397,1.073c-0.669-0.305-1.216-0.556-1.896-0.866c-0.02,1.19,0.951,1.203,1.482,1.819
	c-0.108,0.402-0.24,0.889-0.397,1.47c-0.617-0.289-1.14-0.536-1.674-0.787c-0.182,0.626-0.182,0.626,1.412,1.65
	c-0.095,0.409-0.199,0.86-0.294,1.267c-0.92,0.243-1.354-1.07-2.328-0.519c0.356,0.914,1.261,0.981,1.995,1.432
	c-0.044,0.343-0.091,0.721-0.152,1.198c-0.648-0.215-1.201-0.399-1.774-0.59c-0.011,0.832-0.011,0.832,1.486,1.396
	c-0.081,0.297-0.163,0.6-0.266,0.979c-0.333-0.04-0.629-0.075-0.967-0.115c-0.06,0.136-0.122,0.274-0.213,0.48
	c0.352,0.233,0.674,0.445,1.089,0.721c-0.099,0.348-0.202,0.72-0.317,1.126c-1.262,0.527-2.485,1.062-3.725,1.552
	c-1.86,0.735-3.503,1.832-5.171,2.917c-2.225,1.447-4.208,3.164-6.076,5.017c-1.671,1.659-2.999,3.59-4.227,5.606
	c-1.193,1.958-2.006,4.046-2.666,6.218c-0.127,0.418-0.393,0.793-0.631,1.257c-0.444,0.103-0.907,0.209-1.524,0.352
	c-0.089-0.408-0.234-0.74-0.222-1.065c0.08-2.159,0.734-4.124,2.007-5.886c0.971-1.345,1.846-2.763,2.861-4.073
	c2.677-3.449,5.212-7.038,8.733-9.727c1.51-1.153,3.068-2.245,4.621-3.344c0.532-0.377,1.108-0.69,1.694-1.05
	c0.127-0.76-0.627-0.514-0.998-0.795c0-0.2,0-0.426,0-0.63c0.464-0.205,0.875-0.388,1.287-0.568
	c-0.25-0.812-0.867-0.484-1.354-0.694c-0.022-0.21-0.049-0.465-0.079-0.757c0.474-0.108,0.881-0.202,1.321-0.303
	c-0.072-0.88-0.871-0.667-1.352-1.071c0-0.421,0-0.917,0-1.401c0.588-0.099,1.101-0.186,1.612-0.271
	c0.02-0.115,0.038-0.229,0.057-0.343c-0.514-0.257-1.026-0.514-1.65-0.825c0-0.807,0-1.675,0-2.529
	c0.561-0.299,1.161,0.482,1.689-0.306c-0.487-0.377-0.979-0.759-1.594-1.234c0.063-0.526,0.137-1.146,0.204-1.703
	c0.617-0.078,1.088-0.136,1.561-0.195c0.016-0.092,0.032-0.184,0.048-0.276c-0.409-0.293-0.818-0.587-1.337-0.96
	c0.067-0.731,0.139-1.517,0.212-2.319c0.491-0.045,0.878-0.08,1.302-0.12c0.079-0.836-0.809-1.014-1.006-1.815
	c0.12-0.527,0.278-1.227,0.449-1.976c0.589,0.098,1.114,0.187,1.638,0.275c0.058-0.075,0.115-0.151,0.172-0.225
	c-0.413-0.604-0.825-1.208-1.331-1.948c0.133-0.658,0.289-1.426,0.451-2.227c0.609,0.202,1.065,0.352,1.523,0.503
	c0.063-0.075,0.125-0.151,0.188-0.227c-0.373-0.724-0.745-1.447-1.093-2.124c0.301-0.958,0.579-1.836,0.884-2.809
	c0.659,0.257,1.021,1.12,1.876,0.687c-0.458-0.778-0.896-1.525-1.368-2.327c0.315-0.837,0.627-1.658,0.97-2.565
	c0.798,0.376,1.068,1.642,2.293,1.136c-0.573-0.971-1.099-1.864-1.667-2.828c0.349-0.72,0.695-1.431,1.062-2.186
	c0.766,0.286,0.891,1.588,2.098,1.049c-0.459-0.841-0.894-1.642-1.435-2.632c0.258-0.684,0.579-1.538,0.925-2.46
	c0.688,0.483,0.88,1.561,2.091,1.251c-0.515-0.986-0.984-1.884-1.509-2.89c0.405-0.903,0.828-1.845,1.263-2.814
	c0.86,0.427,1.005,1.73,2.217,1.354c-0.504-0.868-0.981-1.689-1.495-2.576c0.328-0.725,0.654-1.449,1.014-2.246
	c0.755,0.366,0.897,1.455,1.974,1.244c0.097-1.08-1.095-1.662-1.071-2.912c0.189-0.361,0.483-0.925,0.81-1.551
	c0.789,0.417,0.975,1.616,2.278,1.383c-0.595-0.977-1.089-1.788-1.658-2.724c0.32-0.528,0.689-1.132,1.065-1.75
	c1.012,0.803,1.012,0.803,1.78,0.93c-0.024-0.929-0.726-1.496-1.126-2.27c0.267-0.455,0.548-0.936,0.828-1.413
	c0.658,0.164,0.963,1.033,1.841,0.642c-0.37-0.632-0.706-1.205-1.1-1.878c0.263-0.426,0.57-0.918,0.89-1.433
	c0.591,0.424,1.08,0.775,1.767,1.267c-0.018-1.156-0.517-1.752-1.174-2.34c0.349-0.573,0.678-1.115,0.997-1.639
	c0.529,0.187,0.956,0.337,1.383,0.487c0.062-0.075,0.123-0.15,0.184-0.226c-0.269-0.462-0.537-0.924-0.833-1.432
	c0.31-0.571,0.632-1.167,0.956-1.764c0.411,0.065,0.75,0.12,1.288,0.206c-0.137-0.569-0.241-1.007-0.38-1.589
	c0.137-0.259,0.343-0.648,0.572-1.074c0.352-0.042,0.701-0.082,1.116-0.131c-0.089-0.646-0.55-1.295,0.217-1.881
	c0.195-0.035,0.499-0.089,0.968-0.173c-0.096-0.459-0.178-0.853-0.301-1.444c0.094-0.197,0.283-0.594,0.468-0.982
	c0.358-0.263,0.705-0.517,1.113-0.814c-0.222-0.274-0.389-0.48-0.564-0.698c0.346-2.565-0.702-4.551-2.612-6.178
	c-0.336-0.287-0.663-0.601-0.93-0.95c-0.85-1.116-0.781-2.052,0.307-2.971c0.544-0.461,1.2-0.836,1.864-1.102
	c2.695-1.078,5.509-1.535,8.411-1.694c3.753-0.206,7.439,0.261,11.133,0.753c0.193,0.025,0.376,0.124,0.536,0.179
	c0.408,0.859-0.609,2.008,0.774,2.746c0.186-0.928,0.354-1.768,0.54-2.7c0.451-0.127,0.9-0.254,1.313-0.37
	c0.549,0.728-0.486,1.814,0.85,2.364c0.227-0.94,0.438-1.817,0.674-2.793c0.316-0.06,0.701-0.134,1.162-0.224
	c0,0.429,0,0.771,0,1.22c0.193,0.138,0.433,0.312,0.792,0.571c0.265-0.896,0.49-1.66,0.747-2.527
	c0.354-0.16,0.775-0.351,1.202-0.544c0.312,0.591-0.331,1.403,0.626,1.631c0.851-0.7,0.421-2.266,1.718-2.69
	c0.399,0.523-0.161,1.348,0.847,1.663c0.206-0.796,0.41-1.583,0.631-2.434c0.269-0.106,0.555-0.219,0.895-0.353
	c0.274,0.559-0.031,1.461,0.967,1.479c0.265-0.725,0.523-1.438,0.815-2.235c0.521-0.167,1.044-0.334,1.586-0.508
	c0.351,0.403,0.212,1.218,1.111,1.004c0.225-0.433,0.482-0.927,0.786-1.513c0.404-0.108,0.859-0.231,1.286-0.346
	c0.261,0.411,0.471,0.741,0.784,1.233c0.449-0.71,0.675-1.069,0.972-1.538c0.411-0.095,0.91-0.208,1.459-0.335
	c0.113,0.382,0.204,0.683,0.31,1.039c0.197,0.055,0.418,0.117,0.679,0.189c0.246-0.506,0.471-0.97,0.728-1.499
	c0.317-0.091,0.656-0.188,0.939-0.269c0.299,0.461,0.556,0.856,0.915,1.412c0.406-0.684,0.686-1.152,1.003-1.687
	c0.452-0.058,0.919-0.118,1.477-0.189c-0.039,0.47-0.067,0.817-0.102,1.243c0.182,0.13,0.393,0.281,0.669,0.477
	c0.391-0.602,0.739-1.136,1.117-1.718c0.336,0,0.689,0,1.147,0c-0.125,0.41-0.231,0.769-0.367,1.22
	c0.245,0.167,0.487,0.33,0.805,0.547c0.438-0.594,0.815-1.102,1.236-1.67c0.393,0.03,0.777,0.06,1.266,0.098
	c-0.218,0.459-0.384,0.81-0.605,1.277c0.166,0.223,0.359,0.482,0.613,0.824c0.584-0.651,1.062-1.184,1.578-1.76
	c0.532,0.108,1.037,0.211,1.652,0.337c-0.141,0.44-0.256,0.797-0.396,1.229c0.248,0.133,0.477,0.253,0.726,0.386
	c0.423-0.392,0.801-0.741,1.214-1.122c0.373,0.11,0.712,0.211,1.119,0.332c-0.063,0.453-0.319,1.001,0.536,1.18
	c0.317-0.178,0.731-0.412,1.222-0.688c0.146,0.066,0.359,0.162,0.585,0.265c-0.059,0.265-0.108,0.487-0.168,0.752
	c0.172,0.119,0.332,0.229,0.463,0.32c0.594-0.15,1.145-0.29,1.966-0.497c-0.282,0.545-0.418,0.808-0.579,1.121
	c0.181,0.159,0.351,0.308,0.572,0.501c0.487-0.247,0.95-0.481,1.477-0.749c0.241,0.132,0.513,0.284,0.899,0.497
	c-0.335,0.318-0.608,0.577-0.925,0.877c0.687,1.16,1.331-0.029,2.134,0.056c0.143,0.12,0.406,0.339,0.696,0.582
	c-0.241,0.323-0.427,0.572-0.645,0.863c0.156,0.176,0.284,0.319,0.453,0.508c0.347-0.121,0.679-0.237,1.1-0.385
	c0.21,0.221,0.452,0.473,0.69,0.723c-0.184,0.369-0.338,0.678-0.585,1.173c0.551,0.099,0.989,0.178,1.601,0.288
	c0.377,0.877,0.8,1.861,1.298,3.022c-0.791,0.052-1.396,0.012-1.96,0.142c-2.227,0.513-4.423,0.107-6.631-0.112
	c-1.515-0.15-2.327,0.191-3.514,1.324c0.408,0.443,0.927,0.714,1.491,0.571c1.866-0.475,3.542,0.175,5.163,0.892
	c2.849,1.259,5.645,2.636,8.458,3.973c1.059,0.503,2.105,1.032,3.155,1.55c0.255,0.125,0.562,0.2,0.751,0.391
	c1.147,1.149,2.303,0.713,3.534,0.145c0.954-0.441,1.994-0.65,3.158-0.576c0.108,0.261,0.22,0.523,0.402,0.96
	c-0.53-0.167-0.861-0.27-1.13-0.354c-1.327,0.321-2.522,0.714-3.522,1.66c-0.365,0.344-1.159,0.424-1.716,0.342
	c-2.519-0.371-5.025-0.822-7.528-1.288c-1.271-0.236-2.524-0.568-3.784-0.856c-0.148-0.326-0.291-0.635-0.518-1.134
	c-0.246,0.397-0.393,0.635-0.584,0.947c-0.221-0.036-0.482-0.078-0.718-0.115c-0.18-0.482-0.337-0.902-0.54-1.446
	c-0.306,0.617-0.357,0.853-0.348,1.458c-0.283,0.051-0.578,0.104-0.888,0.161c-0.22-0.526-0.413-0.99-0.626-1.499
	c-0.824,0.488-0.008,1.034-0.371,1.619c-0.118,0.053-0.397,0.178-0.752,0.336c-0.244-0.657-0.465-1.25-0.688-1.842
	c-0.118,0.026-0.238,0.053-0.357,0.08c0.066,0.677,0.134,1.355,0.207,2.106c-0.417,0.182-0.806,0.353-1.079,0.473
	c-0.851-0.309-0.421-1.517-1.531-1.582c0.1,0.427,0.179,0.763,0.257,1.099c0.071,0.31,0.142,0.619,0.231,1.011
	c-0.439,0.251-0.845,0.482-1.229,0.702c-0.708-0.499-0.175-1.584-1.281-2.022c0.132,0.901,0.238,1.627,0.361,2.48
	c-0.37,0.259-0.789,0.552-1.233,0.864c-0.776-0.842-0.241-2.105-1.142-3.005c-0.383,1.237,0.237,2.248,0.191,3.446
	c-0.303,0.129-0.689,0.295-1.26,0.539c-0.37-1.103-0.707-2.108-1.043-3.112c-0.562,0.45-0.562,0.45,0.24,3.31
	c-0.456,0.057-0.886,0.11-1.254,0.155c-0.615-1.008-0.477-2.132-1.117-3.25c-0.633,1.408,0.257,2.411,0.273,3.54
	c-0.397,0.083-0.741,0.156-1.254,0.263c-0.278-1.048-0.546-2.062-0.816-3.076c-0.792,1.131,0.077,2.149,0.018,3.303
	c-0.354,0.046-0.693,0.091-1.134,0.149c-0.298-1.019-0.572-1.964-0.849-2.909c-0.806,1.039,0.074,1.966,0.038,3.104
	c-0.402,0.076-0.84,0.16-1.389,0.264c-0.226-1.063-0.431-2.02-0.686-3.219c-0.906,1.207,0.076,2.148-0.15,3.182
	c-0.236,0.052-0.517,0.115-0.812,0.181c-0.037-0.656-0.022-1.216-0.111-1.759c-0.16-0.982-0.791-1.574-1.735-1.819
	c-1.153-0.299-2.301-0.304-3.486-0.073c-4.578,0.894-8.396,3.257-12.102,5.945c-1.824,1.324-2.955,3.042-3.946,4.971
	c-1.747,3.398-3.74,6.634-6.52,9.312c-0.262,0.251-0.519,0.532-0.829,0.706c-1.087,0.608-1.231,1.604-1.254,2.65
	c0.76,0.977,1.834,0.996,2.813,1.046c0.954,0.048,1.922-0.169,2.879-0.271c0.794,0.903,1.589,1.807,2.457,2.793
	c-0.217,0.293-0.469,0.636-0.809,1.098c-0.955-1.03-1.844-1.99-2.705-2.919c-0.71,0.365-0.517,0.734-0.229,1.056
	c0.515,0.573,1.063,1.115,1.595,1.671c0.25,0.262,0.496,0.528,0.817,0.868c-0.311,0.394-0.601,0.759-0.972,1.227
	c-1.133-0.919-1.871-2.08-2.761-3.136c-0.446,0.866,0.004,1.641,2.115,3.718c-0.311,0.333-0.626,0.671-0.97,1.041
	c-1.357-0.775-1.664-2.43-2.936-3.239c-0.131,0.143-0.234,0.257-0.41,0.45c0.835,1.144,1.662,2.277,2.544,3.484
	c-0.334,0.246-0.614,0.451-0.943,0.692c-1.226-1.016-1.828-2.459-2.75-3.751c-0.293,0.858-0.27,1.002,0.523,2.261
	c0.407,0.646,0.869,1.258,1.378,1.988c-0.405,0.254-0.764,0.48-1.279,0.803c-0.802-1.193-1.574-2.342-2.334-3.476
	c-0.517,0.191-0.437,0.504-0.264,0.806c0.462,0.807,0.938,1.605,1.418,2.402c0.122,0.203,0.275,0.387,0.521,0.726
	c-0.443,0.196-0.813,0.359-1.157,0.512c-1.256-0.883-1.524-2.343-2.408-3.413c-0.39,0.914-0.347,1.028,1.402,3.758
	c-0.251,0.156-0.502,0.312-0.735,0.456c-1.208-0.637-1.27-2.081-2.248-2.913c-0.442,0.774,0.136,1.232,0.336,1.735
	c0.221,0.551,0.583,1.046,0.919,1.626c-0.302,0.133-0.548,0.242-0.915,0.404c-0.708-1.196-1.398-2.362-2.153-3.637
	c-0.6,0.866,0.061,1.377,0.292,1.928c0.246,0.583,0.605,1.117,0.917,1.677c-0.589,0.432-0.94,0.2-1.191-0.219
	c-0.331-0.554-0.608-1.142-0.914-1.712c-0.159-0.293-0.332-0.578-0.56-0.973c-0.387,0.929-0.201,1.534,0.856,3.215
	c-0.079,0.071-0.15,0.173-0.246,0.216c-0.105,0.046-0.232,0.037-0.491,0.07c-0.445-0.893-0.905-1.817-1.372-2.754
	c-0.331,0.313-0.311,0.435,0.433,2.812c-0.2,0.023-0.387,0.045-0.683,0.079c-0.379-0.877-0.753-1.742-1.21-2.798
	c-0.729,1.084,0.241,1.816,0.121,2.681c-0.629,0.107-0.985-0.213-1.076-0.79c-0.081-0.513-0.11-1.056-0.04-1.569
	c0.234-1.684,0.533-3.36,0.788-5.041c0.113-0.743,0.183-1.492,0.297-2.437c-3.223,0.506-4.567,2.859-6.051,5.042
	c-0.275,0.067-0.535,0.13-0.716,0.175c-0.09,0.563-0.167,1.052-0.251,1.586c-0.507-0.072-0.874-0.125-1.437-0.205
	c0.254,0.462,0.416,0.757,0.622,1.133c-0.206,0.28-0.438,0.596-0.663,0.9c-0.383-0.136-0.695-0.247-1.219-0.432
	c0.237,0.552,0.388,0.903,0.568,1.322c-0.115,0.28-0.249,0.609-0.376,0.918c-0.444-0.037-0.82-0.068-1.198-0.1
	c-0.028,0.081-0.056,0.161-0.084,0.241c0.241,0.29,0.483,0.58,0.774,0.929c-0.203,0.342-0.403,0.681-0.632,1.065
	c-0.379-0.125-0.709-0.236-1.066-0.355c-0.383,0.666,0.378,0.811,0.509,1.305c-0.125,0.212-0.282,0.477-0.431,0.73
	c-0.486-0.164-0.91-0.306-1.377-0.463c-0.22,0.865,0.641,0.856,0.827,1.463c-0.097,0.213-0.241,0.525-0.396,0.864
	c-0.691-0.214-1.308-0.404-2.097-0.647C71.323,103.829,72.309,103.681,72.726,104.427z M132.962,47.827
	c0.116,0.659,0.513,1.038,1.02,1.185c0.728,0.208,1.493,0.384,2.245,0.394c0.931,0.012,1.842-0.2,2.537-0.942
	c0.716-0.764,0.634-1.548-0.256-2.106C136.854,45.317,134.09,46.031,132.962,47.827z M100.132,47.775
	c0.058-0.981,0.108-1.852,0.164-2.787c-0.33-0.04-0.59-0.072-0.831-0.103C98.803,46.404,98.988,47.328,100.132,47.775z
	 M95.319,50.206c0.039-0.874,0.073-1.662,0.108-2.48c-0.211-0.1-0.379-0.206-0.562-0.253c-0.099-0.025-0.221,0.053-0.323,0.081
	C94.073,49.427,94.19,49.876,95.319,50.206z M96.944,46.044c-0.568,1.796-0.432,2.378,0.596,2.591
	c0.099-0.782,0.197-1.555,0.3-2.373C97.451,46.168,97.231,46.115,96.944,46.044z M97.758,69.594c0.36,1.773,0.619,2.044,1.582,1.627
	c-0.136-0.516-0.278-1.047-0.419-1.579c-0.263-0.074-0.448-0.157-0.639-0.171C98.136,69.461,97.984,69.537,97.758,69.594z
	 M96.874,73.5c0.659-0.589,0.398-1.137,0.059-1.657c-0.308-0.471-0.728-0.578-1.318-0.226C96.093,72.206,95.868,73.161,96.874,73.5z
	 M92.898,49.308c-0.537,0-0.795,0-1.043,0c-0.297,2.023-0.273,2.125,0.618,2.349C92.606,50.926,92.736,50.205,92.898,49.308z
	 M90.178,52.481c0-0.594,0-1.17,0-1.839c-0.329-0.045-0.617-0.083-0.899-0.121C89.018,52.04,89.092,52.201,90.178,52.481z
	 M93.765,73.671c0.348,1.528,0.348,1.528,1.27,1.539C95.222,73.843,94.797,73.328,93.765,73.671z M91.681,75.857
	c0.535,1.654,0.572,1.688,1.581,1.449c-0.169-0.484-0.334-0.958-0.505-1.449C92.38,75.857,92.083,75.857,91.681,75.857z
	 M89.838,78.374c0.616,1.432,0.806,1.532,1.553,0.887C90.871,78.098,90.86,78.091,89.838,78.374z M100.002,67.874
	c0.515,1.31,0.699,1.473,1.438,1.342C101.334,67.978,101.127,67.771,100.002,67.874z M85.428,84.962
	c0.378,1.241,0.384,1.245,1.388,1.07c-0.078-0.338-0.154-0.671-0.246-1.07C86.191,84.962,85.868,84.962,85.428,84.962z
	 M89.584,82.091c-0.175-1.368-0.372-1.518-1.381-1.106c0.151,0.354,0.303,0.708,0.474,1.106
	C88.976,82.091,89.233,82.091,89.584,82.091z M86.671,83.116c0.192,1.161,0.192,1.161,1.181,1.181
	c-0.033-0.383-0.065-0.756-0.103-1.181C87.333,83.116,87.012,83.116,86.671,83.116z"/>
<path fill-rule="evenodd" clip-rule="evenodd" fill="#e5f3a5" class="fill" d="M118.777,67.839c-0.726-0.058-1.255-0.703-1.901-0.052
	c0.264,0.287,0.52,0.565,0.826,0.899c-0.408,0.387-0.783,0.744-1.127,1.07c-0.559-0.092-1.043-0.17-1.798-0.294
	c0.331,0.574,0.514,0.892,0.741,1.285c-0.34,0.27-0.68,0.539-0.979,0.777c-0.535-0.127-0.982-0.232-1.707-0.404
	c0.315,0.552,0.481,0.841,0.697,1.22c-0.301,0.224-0.612,0.455-0.902,0.67c-0.625-0.116-1.116-0.696-1.83-0.244
	c0.209,0.346,0.406,0.673,0.65,1.078c-0.454,0.366-0.884,0.713-1.294,1.045c-0.612-0.186-1.102-0.831-1.772-0.163
	c0.206,0.258,0.42,0.521,0.687,0.854c-0.361,0.335-0.707,0.655-1.054,0.978c-0.55-0.191-0.944-0.838-1.636-0.336
	c0.154,0.335,0.315,0.685,0.5,1.086c-0.276,0.245-0.539,0.479-0.794,0.706c-0.606-0.018-0.928-0.969-1.706-0.389
	c0.125,0.312,0.25,0.629,0.391,0.984c-0.156,0.138-0.299,0.266-0.396,0.352c-0.554-0.108-1.034-0.203-1.648-0.323
	c0.121,0.446,0.19,0.702,0.308,1.137c-0.725,0.287-1.444,0.571-2.162,0.854c-0.045-0.055-0.091-0.11-0.137-0.167
	c0.581-0.731,1.202-1.437,1.736-2.203c1.947-2.784,3.849-5.6,5.802-8.379c0.601-0.856,1.206-1.759,1.995-2.421
	c1.856-1.559,3.743-3.11,5.768-4.432c2.049-1.338,4.412-1.964,6.897-2.189c0.27,0.334,0.517,0.639,0.781,0.966
	c-0.124,0.247-0.229,0.455-0.371,0.738c-0.452,0-0.906,0-1.544,0c0.332,0.427,0.542,0.695,0.783,1.006
	c-0.169,0.201-0.342,0.407-0.491,0.583c-0.641,0.045-1.163-0.649-1.882-0.021c0.377,0.345,0.74,0.675,1.18,1.076
	c-0.293,0.335-0.571,0.653-0.835,0.956c-0.64-0.094-1.071-0.852-1.841-0.259c0.264,0.349,0.514,0.681,0.895,1.185
	C119.32,67.335,119.011,67.622,118.777,67.839z"/>
<path fill-rule="evenodd" clip-rule="evenodd" fill="#e5f3a5" class="fill" d="M162.768,56.029c-3.927-1.904-7.91-3.834-11.893-5.765
	c0.002-0.074,0.005-0.148,0.009-0.222c2.257-0.422,4.515-0.845,6.699-1.253c3.604,1.143,7.199,2.102,10.174,4.596
	c-0.301,0.52-0.578,1-0.82,1.417C165.524,55.218,164.178,55.613,162.768,56.029z"/>
<path fill-rule="evenodd" clip-rule="evenodd" fill="#e5f3a5" class="fill" d="M106.5,85.077c-0.053,0.077-0.247,0.36-0.504,0.737
	c-0.819-0.769-1.562-1.47-2.419-2.276c0.442-0.28,0.722-0.457,1.198-0.757C105.317,83.501,105.841,84.201,106.5,85.077z"/>
<path fill-rule="evenodd" clip-rule="evenodd" fill="#e5f3a5" class="fill" d="M107.134,83.948c-0.287-0.233-0.432-0.316-0.533-0.437
	c-0.306-0.37-0.596-0.753-0.97-1.232c0.379-0.271,0.719-0.514,1.126-0.805c0.442,0.252,0.85,0.485,1.348,0.769
	C107.778,82.817,107.488,83.327,107.134,83.948z"/>
<path fill-rule="evenodd" clip-rule="evenodd" fill="#e5f3a5" class="fill" d="M107.889,81.008c0.403-0.23,0.588-0.335,0.812-0.462
	C108.652,81.14,108.652,81.14,107.889,81.008z"/>
</svg>
