<svg version="1.1" id="svg" xmlns="http://www.w3.org/2000/svg" xmlns:xlink="http://www.w3.org/1999/xlink" x="0px" y="0px"
	 width="200px" height="200px" viewBox="0 0 200 200" enable-background="new 0 0 200 200" xml:space="preserve">
<path class="stroke" fill="#672a19"  fill-rule="evenodd" clip-rule="evenodd" d="M107.775,70.872c3.337-2.295,5.922-5.343,9.475-7.653
	c0.286,0.325,0.512,0.583,0.775,0.881c-0.811,2.624-1.57,5.082-2.33,7.54c0.074,0.073,0.147,0.146,0.22,0.219
	c6.051-3.653,11.583-8.084,17.691-11.92c0.644,0.305,0.477,0.909,0.162,1.466c-0.511,0.904-1.11,1.76-1.636,2.657
	c-2.446,4.165-4.884,8.336-7.315,12.51c-0.594,1.018-1.152,2.058-1.903,3.404c4.209-1.365,8.066-2.616,11.817-3.833
	c0.988,1.097,1.021,1.364,0.294,2.276c-1.718,2.151-3.461,4.283-5.184,6.431c-0.9,1.124-1.778,2.265-2.806,3.574
	c12.084,2.576,24.036,5.123,36.167,7.708c-0.208,0.624-0.344,1.029-0.498,1.493c-11.111,2.471-22.148,4.924-33.527,7.453
	c3.462,3.177,6.714,6.159,10.056,9.223c-0.429,0.489-0.757,0.863-1.204,1.373c-1.953-0.345-3.94-0.67-5.916-1.054
	c-1.926-0.375-3.817-0.971-6.044-0.869c0.579,1.118,1.091,2.101,1.596,3.087c2.439,4.764,4.87,9.531,7.32,14.289
	c0.332,0.646,0.734,1.257,1.141,1.859c0.382,0.565,0.456,1.131,0.214,1.744c-0.788,0.474-1.307-0.014-1.853-0.403
	c-2.709-1.929-5.414-3.862-8.13-5.781c-2.675-1.89-5.36-3.767-8.046-5.642c-0.205-0.143-0.453-0.226-1-0.492
	c0.2,0.781,0.312,1.301,0.466,1.809c0.824,2.737,1.676,5.466,2.475,8.209c0.162,0.559,0.133,1.171,0.225,2.08
	c-0.716-0.205-1.219-0.205-1.502-0.455c-2.217-1.946-4.382-3.952-6.585-5.915c-1.23-1.096-2.502-2.146-3.943-3.375
	c-0.185,0.753-0.314,1.238-0.423,1.729c-0.855,3.852-1.688,7.707-2.563,11.554c-1.267,5.566-2.569,11.124-3.841,16.688
	c-0.137,0.598-0.17,1.219-0.266,1.938c-0.262,0.035-0.542,0.073-1.018,0.138c-1.157-5.21-2.262-10.372-3.457-15.514
	c-1.197-5.151-2.484-10.282-3.809-15.739c-3.666,3.563-6.401,7.621-9.984,10.988c-0.343-0.201-0.633-0.372-1.043-0.613
	c0.534-4.12,1.064-8.217,1.633-12.6c-0.782,0.423-1.404,0.731-1.999,1.086c-2.365,1.411-4.733,2.817-7.078,4.262
	c-3.803,2.344-7.594,4.706-11.374,7.086c-0.644,0.405-1.219,0.808-2.072-0.019c0.58-0.959,1.099-1.961,1.75-2.869
	c2.481-3.463,5.021-6.882,7.504-10.343c1.483-2.065,2.92-4.166,4.338-6.277c0.428-0.637,0.728-1.359,1.165-2.194
	c-4.682,0.09-8.896,2.053-13.434,2.307c-0.239-0.423-0.433-0.766-0.678-1.199c2.869-3.033,5.71-6.036,8.701-9.197
	c-3.332-1.203-6.686-1.201-9.88-1.973c-3.27-0.789-6.632-1.186-9.926-1.884c-3.24-0.687-6.446-1.536-9.844-2.357
	c-0.057-0.293-0.139-0.718-0.261-1.354c1.099-0.307,2.071-0.612,3.06-0.849c4.647-1.109,9.303-2.184,13.948-3.3
	c4.898-1.177,9.792-2.377,14.681-3.59c1.252-0.31,2.484-0.703,4.035-1.146c-0.732-0.804-1.269-1.468-1.882-2.049
	c-1.208-1.146-2.481-2.222-3.681-3.375c-0.52-0.5-0.923-1.122-1.376-1.691c-0.458-0.576-0.453-1.134,0.224-1.812
	c2.801,0.234,5.735,0.479,8.976,0.751c-1.938-3.508-3.734-6.755-5.526-10.005c-1.777-3.224-4.004-6.195-5.5-9.622
	c0.236-0.333,0.438-0.616,0.728-1.025c6.349,3.845,12.101,8.427,18.294,12.94c-0.062-0.756-0.057-1.201-0.139-1.629
	c-0.514-2.648-1.064-5.29-1.556-7.942c-0.083-0.449,0.067-0.941,0.099-1.296c0.967-0.456,1.522-0.072,2.045,0.386
	c1.523,1.337,3.038,2.685,4.56,4.022c0.376,0.33,0.767,0.645,1.309,1.098c2.438-10.541,5.518-20.688,6.952-31.148
	c0.945-0.128,1.115,0.399,1.21,0.908c0.87,4.641,1.699,9.287,2.586,13.924c0.633,3.315,1.321,6.62,2.016,9.923
	c0.566,2.692,1.176,5.376,1.777,8.062C107.492,70.223,107.63,70.487,107.775,70.872z M98.996,98.947
	c-15.49-0.335-30.853,0.297-46.529,0.764c2.326,1.208,33.23,7.223,38.757,7.638C93.762,104.561,96.68,102.074,98.996,98.947z
	 M99.964,49.21c-1.473,2.059-7.676,33.562-7.523,36.905c2.395,3.419,4.882,6.889,7.445,10.377c0.214-0.261,0.328-0.334,0.327-0.407
	c-0.078-14.698-0.164-29.396-0.249-44.092C99.958,51.064,99.964,50.138,99.964,49.21z M101.957,101.586
	c-0.104,0.234-0.208,0.362-0.21,0.493c-0.072,3.369-0.206,6.74-0.177,10.108c0.029,3.372,0.31,6.741,0.321,10.113
	c0.013,3.933-0.14,7.866-0.236,11.799c-0.068,2.755-0.167,5.51-0.235,8.265c-0.007,0.307,0.096,0.616,0.148,0.925
	c2.436-11.35,6.065-22.352,7.695-33.782C106.834,106.874,104.425,104.263,101.957,101.586z M113.677,109.339
	c0.723,0.929,1.257,1.762,1.932,2.458c4.869,5.029,9.766,10.029,14.656,15.036c0.07,0.071,0.166,0.12,0.256,0.168
	c0.036,0.019,0.097,0.019,0.132,0.001c0.043-0.023,0.071-0.075,0.087-0.095c-3.646-6.438-7.288-12.87-11.01-19.444
	C117.687,108.096,115.749,108.696,113.677,109.339z M85.163,87.131c1.439,0.099,4.318-0.636,5.044-1.343
	c-2.607-2.813-5.203-5.644-7.83-8.443c-2.587-2.759-4.883-5.798-7.81-8.237C77.974,75.225,80.999,81.546,85.163,87.131z
	 M70.666,128.886c0.04,0.061,0.08,0.12,0.12,0.181c6.609-4.513,13.218-9.025,19.838-13.547c-0.376-1.643-0.721-3.143-1.074-4.678
	c-0.256,0.063-0.445,0.053-0.538,0.143C82.893,116.945,76.779,122.917,70.666,128.886z M110.902,83.903
	c0.133,0.034,0.266,0.069,0.399,0.104c4.605-5.241,9.211-10.481,13.816-15.723c-0.099-0.106-0.198-0.214-0.297-0.319
	c-4.962,3.93-10.269,7.419-14.959,11.849C110.22,81.223,110.561,82.562,110.902,83.903z M66.353,113.713
	c4.033-0.965,7.744-1.852,11.616-2.778c0.542-0.922,1.807-1.591,1.992-3.028c-2.318-0.523-4.483-1.454-6.882-1.485
	C70.923,108.758,68.79,111.071,66.353,113.713z M117.188,129.666c0.09-0.104,0.181-0.209,0.27-0.312
	c-0.212-0.518-0.449-1.026-0.636-1.553c-0.742-2.094-1.514-4.178-2.19-6.293c-0.705-2.206-2.663-2.919-4.473-4.207
	c-0.419,1.926-0.776,3.571-1.116,5.134C111.831,124.908,114.51,127.287,117.188,129.666z M131.041,79.895
	c-0.08-0.132-0.16-0.263-0.239-0.395c-3.294,1.344-6.587,2.686-9.793,3.993c-0.604,1.073-1.125,2.003-1.778,3.164
	c1.918,0.444,3.613,0.838,5.449,1.263C126.809,85.233,128.925,82.564,131.041,79.895z M85.016,130.461
	c0.095,0.047,0.19,0.095,0.285,0.144c2.427-2.972,5.023-5.81,7.082-9.004c-0.371-1.145-0.695-2.147-1.065-3.291
	c-1.822,1.125-3.477,2.146-5.036,3.107C85.842,124.557,85.429,127.508,85.016,130.461z M134.051,112.814
	c0.033-0.109,0.066-0.22,0.099-0.33c-2.823-2.158-5.647-4.317-8.426-6.441c-1.313,0.221-2.509,0.379-3.631,0.938
	c0.853,1.424,1.62,2.703,2.384,3.979C127.695,111.693,130.8,112.645,134.051,112.814z M79.874,88.637
	c1.14-0.265,1.969-0.458,2.965-0.689c-1.01-1.48-1.905-2.791-2.806-4.11c-2.198-0.328-4.317-0.645-6.437-0.961
	c-0.052,0.104-0.104,0.206-0.157,0.311C75.59,85.008,77.741,86.83,79.874,88.637z M87.887,66.542
	c-0.132,0.229-0.235,0.324-0.22,0.394c0.621,2.673,1.252,5.345,1.884,8.015c0.194,0.821,0.707,1.35,1.653,1.718
	c0.625-1.974,0.962-3.925,1.081-5.917C90.799,69.329,89.356,67.949,87.887,66.542z M114.334,68.439
	c-0.125-0.088-0.249-0.174-0.373-0.261c-1.845,1.941-3.69,3.883-5.528,5.816c0.258,1.062,0.473,1.943,0.75,3.085
	c1.18-0.922,2.146-1.675,3.069-2.395C112.964,72.549,113.648,70.493,114.334,68.439z"/>
<path class="stroke" fill="#672a19"  fill-rule="evenodd" clip-rule="evenodd" d="M98.951,32.588c-3.388,0.678-6.569,0.551-9.932,0.255
	c0.503-7.936,0.789-15.749,1.541-23.741c2.638-0.082,5.152-0.16,7.71-0.24c2.571,2.351,3.049,5.994,5.482,8.761
	c0.109-0.608,0.22-0.971,0.233-1.338c0.054-1.56,0.054-3.121,0.125-4.681c0.03-0.661,0.188-1.317,0.279-1.921
	c2.519-0.692,6.986-0.761,8.602-0.132c-0.188,7.584-0.376,15.197-0.569,23.016c-1.34,0.731-2.995,0.438-4.631,0.39
	c-1.606-0.047-3.214-0.01-4.936-0.01c-0.974-1.953-2.005-4.021-3.173-6.363c-0.611,1.149-0.702,2.072-0.725,3.002
	C98.933,30.562,98.951,31.538,98.951,32.588z M96.787,20.361c0.164-0.051,0.328-0.1,0.491-0.15c1.075,0.785,1.688,1.984,2.438,3.051
	c0.805,1.147,1.522,2.353,2.323,3.502c0.769,1.105,1.596,2.171,2.375,3.223c1.757,0,3.435,0,5.214,0
	c-0.042-5.97,0.583-11.748,0.304-17.738c-1.1,0.052-2.047,0.096-3.115,0.146c-0.334,3.329-0.649,6.469-0.963,9.591
	c-0.336,0.187-0.596,0.358-0.878,0.48c-0.277,0.118-0.576,0.185-1.049,0.331c-2.552-3.512-4.932-7.122-6.936-10.88
	c-1.408,0-2.643,0-4.078,0c-0.28,6.093-1.384,12.065-1.158,18.371c1.582-0.111,3.002-0.213,4.556-0.323
	c0.081-0.596,0.198-1.094,0.208-1.595c0.04-2.077,0.034-4.155,0.076-6.233C96.605,21.543,96.72,20.953,96.787,20.361z"/>
<path class="stroke" fill="#672a19"  fill-rule="evenodd" clip-rule="evenodd" d="M20.742,94.648c1.008-1.773,2.017-3.548,3.155-5.552
	c1.829,1.814,2.05,4.166,3.386,6.258c1.083-3.094,1.006-6.208,2.164-9.107c2.423-0.032,4.846-0.162,7.386,0.55
	c-1.113,7.87-2.562,15.62-4.416,23.416c-2.377,0.563-4.771-0.127-7.292,0.382c-0.41-1.473-0.79-2.834-1.169-4.195
	c-0.116-0.024-0.232-0.048-0.349-0.071c-0.33,0.614-0.651,1.231-0.991,1.839c-0.326,0.582-0.672,1.153-0.985,1.69
	c-2.375,0.236-4.634,0.462-6.828,0.681c-1.101-1.729-4.419-20.644-4.153-23.554c2.108-1.024,4.423-1.393,6.586-1.655
	c1.085,0.532,1.153,1.428,1.356,2.209c0.561,2.158,1.062,4.332,1.593,6.497c0.046,0.191,0.136,0.369,0.205,0.555
	C20.507,94.609,20.625,94.629,20.742,94.648z M23.916,94.308c-0.143-0.014-0.286-0.026-0.43-0.04
	c-1.134,2.086-2.269,4.171-3.456,6.354c-0.326,0.051-0.705,0.109-1.186,0.185c-0.686-4.505-1.571-8.847-2.692-13.303
	c-1.085,0.246-2.012,0.456-3.064,0.695c1.215,6.725,1.877,13.337,3.517,19.922c1.052-0.049,1.959-0.09,2.81-0.13
	c1.482-2.459,2.254-5.158,4.357-7.375c1.744,2.348,1.8,5.107,3.166,7.375c1.098,0.7,2.29,0.404,3.479,0.262
	c1.031-6.712,2.774-13.119,3.556-19.754c-1.002,0-1.858,0-2.798,0c-1.001,4.262-1.983,8.441-2.97,12.64
	c-0.41,0.025-0.708,0.044-1.188,0.073C25.985,98.911,24.95,96.609,23.916,94.308z"/>
<path class="stroke" fill="#672a19"  fill-rule="evenodd" clip-rule="evenodd" d="M185.612,102.068c-0.047,0.992-0.117,2.059-0.142,3.125
	c-0.025,1.078-0.006,2.157-0.006,3.396c-0.609,0.101-1.098,0.255-1.587,0.251c-4.574-0.034-9.148-0.082-13.722-0.156
	c-1.231-0.02-1.273-0.087-2.048-1.078c0.256-1.898,0.564-3.792,0.76-5.696c0.36-3.511,0.702-7.023,0.958-10.543
	c0.147-2.015,0.087-4.043,0.177-6.063c0.026-0.582,0.247-1.155,0.383-1.752c5.274,0,10.338,0,15.647,0
	c0.142,0.301,0.524,0.736,0.516,1.165c-0.035,1.8,0.036,3.622-0.469,5.34c-2.707,0.255-5.321,0.501-8.027,0.755
	c0,0.666,0,1.158,0,1.688c2.104,0.616,4.363,0.172,6.447,1.033c-0.177,1.74-0.341,3.364-0.527,5.195c-2.146,0-4.097,0-6.204,0
	c-0.104,0.852-0.183,1.496-0.288,2.354C180.061,101.994,182.75,101.401,185.612,102.068z"/>
<path class="stroke" fill="#672a19"  fill-rule="evenodd" clip-rule="evenodd" d="M102.002,169.213c-1.858,1.445-1.845,2.95-0.227,4.12
	c1.262,0.912,2.617,1.723,3.763,2.763c2.534,2.298,3.401,5.109,2.264,8.45c-0.902,2.649-2.535,4.626-5.074,5.827
	c-1.329,0.629-2.78,0.754-4.116,0.321c-2.731-0.884-5.157-2.366-7.37-4.36c0.524-1.827,1.513-3.318,2.479-4.86
	c1.964,0.321,3.651,2.381,5.723,0.638c0.022-0.837-0.531-1.239-1.072-1.641c-1.248-0.928-2.538-1.804-3.749-2.778
	c-3.228-2.599-3.647-6.112-2.752-9.397c1.09-4,6.42-7.636,11.362-5.938c1.785,0.612,3.454,1.434,4.947,2.576
	c0.468,0.358,0.799,0.895,1.226,1.386c-0.877,1.405-1.672,2.676-2.415,3.864c-0.911,0.51-1.634,0.367-2.446-0.065
	C103.743,169.691,102.82,169.493,102.002,169.213z M93.854,185.896c1.485,1.254,2.931,2.309,4.667,2.938
	c1.447,0.525,2.733,0.312,3.973-0.583c2.044-1.477,3.034-3.588,3.289-5.964c0.188-1.745-0.332-3.494-1.97-4.481
	c-2.071-1.248-3.818-2.795-5.404-4.618c-1.081-1.241-1.237-2.488-0.708-3.881c0.577-1.517,1.809-2.225,3.398-2.297
	c1.416-0.064,2.793,0.078,3.975,1.207c0.415-0.644,0.709-1.101,1.114-1.729c-0.791-0.682-1.4-1.435-2.188-1.849
	c-3.786-1.983-9.513,0.313-10.229,4.71c-0.439,2.696-0.213,5.104,2.181,6.832c1.171,0.845,2.422,1.577,3.623,2.382
	c1.706,1.143,2.819,2.599,2.444,4.858c-0.354,0.521-0.732,1.075-1.064,1.562c-2.161,0.915-4.045,0.448-5.826-0.893
	C94.654,184.764,94.274,185.301,93.854,185.896z"/>
<path fill-rule="evenodd" clip-rule="evenodd" fill="#ffc524" class="fill" d="M102.743,97.487c2.486-3.242,4.972-6.482,7.558-9.855
	c1.236,0.273,2.537,0.589,3.85,0.848c5.702,1.127,11.407,2.233,17.11,3.354c3.715,0.73,7.435,1.434,11.137,2.222
	c2.424,0.516,4.82,1.161,7.229,1.749c0.003,0.111,0.007,0.223,0.01,0.335c-0.615,0.043-1.23,0.11-1.846,0.126
	c-4.311,0.112-8.622,0.22-12.933,0.317c-3.582,0.081-7.166,0.108-10.746,0.229c-6.333,0.214-12.664,0.476-18.996,0.735
	c-0.759,0.031-1.514,0.169-2.271,0.257C102.812,97.699,102.777,97.593,102.743,97.487z"/>
<path fill-rule="evenodd" clip-rule="evenodd" fill="#ffc524" class="fill" d="M176.005,88.724c-0.074,2.081-0.66,3.983-0.237,5.986
	c1.962,0.089,3.809,0.173,5.693,0.259c0.132,0.411,0.238,0.74,0.383,1.193c-2.013,0.793-4.091-0.183-6.155,0.49
	c-1.143,1.857-0.602,3.911-0.497,6.017c2.449,0.99,5.044,0.363,7.613,1.195c0.083,0.52,0.186,1.148,0.323,1.999
	c-4.099,0.021-8.013,0.17-12.031-0.541c0.359-6.445,0.714-12.813,1.068-19.17c1.861-0.565,9.811-0.677,11.772-0.116
	c-0.072,0.603-0.147,1.239-0.237,1.987c-1.378,0.05-2.67,0.045-3.952,0.16C178.531,88.292,177.325,88.528,176.005,88.724z"/>
</svg>
