<svg version="1.1" xmlns="http://www.w3.org/2000/svg" xmlns:xlink="http://www.w3.org/1999/xlink" x="0px" y="0px" width="200px"
	 height="200px" viewBox="0 0 200 200" enable-background="new 0 0 200 200" xml:space="preserve">
<g id="svg">
	<path class="stroke" fill="#6e3411"  d="M154.241,108.894c-3.854,0.203-7.593,0.321-11.338,0.006c0.193-2.345,0.464-4.601-0.221-6.715
		c-0.668-0.165-0.949,0.117-1.188,0.379c-0.404,0.44-0.809,0.878-1.213,1.318c-0.142-1.319-0.307-2.636-0.488-3.945
		c-0.394-2.867-1.08-5.699-1.7-8.532c-0.36-1.646-0.777-3.286-1.291-4.89c-0.612-1.913-1.401-3.768-2.026-5.677
		c-0.595-1.818-1.004-3.697-1.63-5.505c-0.586-1.691-1.323-3.332-2.039-4.977c-0.637-1.466-1.311-2.917-2.013-4.353
		c-0.988-2.02-1.969-4.046-3.046-6.019c-0.852-1.562-1.839-3.051-2.777-4.566c-0.811-1.309-1.497-2.728-2.484-3.889
		c-1.979-2.326-4.023-4.62-6.245-6.711c-1.369-1.289-2.996-2.469-4.721-3.176c-2.377-0.974-4.935-1.549-7.455-2.112
		c-1.606-0.358-3.263-0.717-4.945-0.356c-1.871,0.401-3.737,0.826-5.616,1.177c-3.528,0.656-6.195,2.899-8.56,5.249
		c-3.38,3.356-5.965,7.417-8.385,11.535c-0.67,1.143-1.299,2.312-1.902,3.491c-0.986,1.928-2.085,3.817-2.868,5.826
		c-1.133,2.907-2.024,5.908-3.028,8.867c-0.467,1.377-1.044,2.724-1.418,4.125c-0.825,3.096-1.678,6.194-2.289,9.338
		c-0.647,3.338-1.023,6.729-1.521,10.096c-0.126,0.854-0.295,1.701-0.395,2.559c-0.148,1.281-0.234,2.571-0.382,3.853
		c-0.124,1.072-0.379,2.135-0.429,3.208c-0.071,1.542-0.021,3.092,0.003,4.638c0.029,1.92-0.136,3.876,0.176,5.751
		c0.609,3.656,1.364,7.3,2.308,10.883c0.577,2.191,1.423,4.366,2.499,6.359c1.195,2.214,2.77,4.226,4.216,6.301
		c0.452,0.648,0.959,1.286,1.549,1.804c1.486,1.306,2.958,2.651,4.577,3.775c2.198,1.528,4.437,3.051,6.824,4.244
		c4.312,2.154,9.007,2.882,14.283,3.125c0.497-0.031,1.51,0.022,2.471-0.172c4.539-0.921,9.061-1.925,13.594-2.868
		c2.738-0.57,5.248-1.71,7.589-3.175c1.558-0.975,2.938-2.234,4.414-3.344c2.847-2.14,5.188-4.767,7.091-7.741
		c1.308-2.046,2.444-4.228,3.419-6.452c1.047-2.388,1.967-4.834,2.821-7.3c0.055,0.055,0.114,0.104,0.168,0.16
		c0.911,0.925,1.933,1.698,3.115,2.254c0.393,0.185,0.777,0.331,1.109-0.108c0.166-2.281,0.823-4.494,0.784-6.857
		c0.927-0.205,1.72-0.349,2.556-0.26c2.257,0.238,4.503,0.123,6.745-0.203c0.588-0.087,1.203-0.136,1.712-0.802
		C154.673,115.452,154.572,112.274,154.241,108.894z"/>
	<path fill-rule="evenodd" clip-rule="evenodd" fill="#ffd624" class="fill" d="M121.195,116.95c0.018,3.227-0.966,6.197-2.565,8.923
		c-1.572,2.677-3.484,5.124-6.213,6.769c-1.821,1.097-3.606,2.29-5.532,3.166c-1.144,0.521-2.522,0.568-3.808,0.719
		c-4.024,0.472-7.971,0.04-11.773-1.345c-2.533-0.923-4.667-2.477-6.49-4.487c-1.951-2.152-3.34-4.659-4.21-7.359
		c-0.82-2.54-1.201-5.229-1.68-7.87c-0.454-2.5,0.058-4.958,0.952-7.253c0.777-1.993,1.656-4.092,3.034-5.671
		c3.04-3.484,6.543-6.446,11.222-7.677c2.047-0.539,4.084-1.153,6.189-0.976c1.99,0.168,3.99,0.537,5.918,1.062
		c2.021,0.55,3.964,1.388,5.938,2.107c0.171,0.063,0.346,0.165,0.472,0.294c1.819,1.858,3.879,3.529,5.069,5.902
		c1.886,3.757,3.268,7.683,3.524,11.928C121.278,115.768,121.213,116.36,121.195,116.95z"/>
	<path fill-rule="evenodd" clip-rule="evenodd" fill="#FEFEFE" d="M132.146,118.487c-0.725-0.761-1.287-1.697-2.202-2.18
		c-0.401-1.048,0.37-1.54,0.916-2.025c2.143-1.898,3.877-4.155,5.734-6.309c0.409-0.476,0.833-0.937,1.251-1.404
		c-0.065-0.815-0.136-1.63-0.212-2.443c-0.266-2.824-0.593-5.649-1.083-8.443c-0.407-2.331-1.054-4.624-1.656-6.917
		c-0.612-2.328-1.247-4.651-1.969-6.946c-0.575-1.827-1.283-3.613-1.96-5.406c-1.208-3.199-2.255-6.475-3.703-9.561
		c-1.929-4.115-4.344-7.962-6.985-11.687c-2.509-3.538-5.151-6.891-8.686-9.453c-0.744-0.539-1.579-0.952-2.337-1.473
		c-2.263-1.551-4.753-2.648-7.47-2.781c-1.912-0.093-3.875,0.29-5.774,0.668c-3.691,0.736-7.043,2.193-9.927,4.733
		c-2.829,2.491-5.005,5.492-7.039,8.593c-1.474,2.246-2.742,4.648-3.907,7.075c-2.251,4.694-4.311,9.471-5.68,14.52
		c-1.126,4.153-2.423,8.265-3.458,12.44c-0.549,2.216-0.74,4.524-1.027,6.799c-0.482,3.81-1.11,7.617-1.306,11.444
		c-0.195,3.818-0.095,7.67,0.178,11.485c0.192,2.703,0.612,5.457,1.43,8.03c0.947,2.986,2.306,5.868,3.741,8.665
		c1.005,1.96,2.162,3.991,3.736,5.475c2.871,2.703,5.967,5.217,9.682,6.774c1.656,0.695,3.266,1.588,4.99,2.015
		c2.804,0.696,5.685,1.084,8.534,1.602c0.016-0.109,0.032-0.217,0.048-0.325c4.251,0.383,8.417-0.156,12.487-1.316
		c3.085-0.881,6.119-1.948,9.158-2.983c0.781-0.265,1.476-0.777,2.249-1.076c2.292-0.885,4.126-2.453,5.967-3.987
		c2.332-1.945,3.996-4.39,5.446-7.078c1.716-3.18,2.986-6.513,4.174-9.892c0.323-0.916,0.555-1.865,0.809-2.805
		C134.886,121.069,133.448,119.853,132.146,118.487z M122.505,125.875c-0.595,1.217-1.007,2.577-1.821,3.623
		c-1.334,1.713-2.83,3.333-4.438,4.793c-2.924,2.651-6.334,4.456-10.291,5.004c-1.805,0.25-3.639,0.293-6.016,0.474
		c-2.251-0.417-5.006-0.954-7.771-1.428c-2.745-0.469-5.062-1.87-7.153-3.542c-1.396-1.115-2.465-2.658-3.592-4.08
		c-0.725-0.916-1.362-1.919-1.905-2.954c-0.685-1.302-1.401-2.627-1.802-4.029c-0.746-2.61-1.438-5.258-1.844-7.937
		c-0.401-2.649,0.051-5.255,0.908-7.852c1.551-4.698,4.737-8.105,8.327-11.222c3.128-2.714,6.813-4.383,10.898-4.994
		c1.872-0.28,3.816-0.288,5.709-0.156c2.965,0.207,5.87,0.813,8.667,1.892c2.732,1.052,5.117,2.556,6.912,4.91
		c1.12,1.469,2.414,2.841,3.313,4.436c0.929,1.649,1.475,3.517,2.193,5.287c0.884,2.181,1.096,4.479,1.315,6.798
		C124.474,118.705,124.212,122.387,122.505,125.875z"/>
	<path fill-rule="evenodd" clip-rule="evenodd" fill="#ffd624" class="fill" d="M132.483,115.387c2.856-2.927,5.424-5.911,8.169-8.945
		c0.403,1.595,0.031,3.072,0.213,4.464c0.903,0.567,1.837,0.579,2.748,0.482c2.756-0.295,5.516-0.073,8.271-0.146
		c0.272-0.009,0.544,0.016,0.982,0.03c-0.003,1.962-0.265,3.829-0.708,5.669c-3.467,0.796-6.965,0.379-10.358,0.941
		c-0.976,1.913-0.358,3.946-0.715,6.148C138.186,121.072,135.517,118.25,132.483,115.387z"/>
</g>
<g id="Layer_2">
</g>
</svg>
