<svg version="1.1" id="svg" xmlns="http://www.w3.org/2000/svg" xmlns:xlink="http://www.w3.org/1999/xlink" x="0px" y="0px"
	 width="200px" height="200px" viewBox="0 0 200 200" enable-background="new 0 0 200 200" xml:space="preserve">
<path class="stroke" fill="#183046"  fill-rule="evenodd" clip-rule="evenodd" d="M132.355,94.06c1.154-0.41,2.375-0.517,3.587-0.019
	c0.196,0.081,0.303,0.384,0.605,0.793c-1.227,0.118-2.21,0.213-3.307,0.318c-0.075,0.312-0.157,0.661-0.25,1.05
	c1.371,0.503,2.965,0.16,4.037,1.244c-0.02,0.09-0.038,0.18-0.057,0.271c-1.415-0.076-2.83-0.151-4.303-0.229
	c-0.14,0.495-0.245,0.871-0.343,1.214c1.395,0.411,2.713,0.707,3.957,1.191c1.22,0.476,2.365,1.142,3.598,1.75
	c-0.118,0.179-0.223,0.336-0.37,0.561c-1.146-0.489-2.25-0.983-3.371-1.432c-1.368-0.548-2.773-0.876-4.325-0.561
	c-0.09,0.245-0.18,0.487-0.311,0.841c2.81,0.455,5.578,0.741,8.037,2.261c-0.094,0.148-0.215,0.341-0.367,0.583
	c-2.669-1.008-5.333-1.981-8.281-1.604c-0.195,0.374-0.364,0.698-0.575,1.103c4.943,0.102,9.681,0.773,14.236,2.455
	c0.345,0.127,0.649,0.363,1.09,0.615c-0.29,0.212-0.469,0.343-0.671,0.492c-3.867-1.7-7.965-2.114-12.104-2.23
	c-1.193-0.034-2.394,0.157-3.591,0.245c-0.008,0.104-0.018,0.206-0.027,0.31c0.301,0.056,0.6,0.116,0.9,0.169
	c2.67,0.456,5.342,0.916,7.779,2.18c0.823,0.427,1.589,0.966,2.417,1.477c-0.261,0.421-0.56,0.379-0.852,0.269
	c-0.39-0.146-0.768-0.322-1.15-0.483c-3.044-1.276-6.214-1.643-9.479-1.312c-0.309,0.031-0.613,0.118-0.914,0.201
	c-0.262,0.073-0.516,0.177-0.978,0.338c0.393,0.138,0.587,0.235,0.794,0.275c1.428,0.275,2.886,0.436,4.278,0.832
	c1.697,0.481,3.341,1.145,4.996,1.762c0.251,0.093,0.438,0.358,0.783,0.654c-0.875,0.169-1.509,0.106-2.105-0.18
	c-1.574-0.757-3.227-1.277-4.943-1.559c-1.867-0.306-3.74-0.172-5.591,0.162c-0.406,0.073-0.768,0.391-1.317,0.687
	c0.377,0.214,0.557,0.349,0.758,0.424c1.29,0.481,2.396,1.242,3.378,2.196c1.514,1.47,3.03,2.938,4.538,4.4
	c-0.271,0.233-0.611,0.527-0.961,0.829c-0.046-0.012-0.138-0.008-0.172-0.05c-1.698-2.101-3.841-3.705-6.011-5.256
	c-0.829-0.593-1.848-0.924-2.788-1.358c-0.089-0.041-0.236,0.045-0.512,0.105c1.019,0.578,1.989,0.974,2.763,1.61
	c0.821,0.673,1.538,1.517,2.146,2.393c0.574,0.827,0.947,1.792,1.455,2.786c-0.598,0.072-0.79-0.299-0.998-0.575
	c-0.438-0.582-0.761-1.266-1.267-1.774c-0.927-0.934-1.899-1.839-2.955-2.62c-0.646-0.478-1.482-0.699-2.22-1.029
	c-0.391,0.231-0.681,0.404-1.134,0.672c0.571,0.314,1.005,0.561,1.447,0.791c0.522,0.273,1.067,0.506,1.577,0.8
	c1.047,0.602,1.881,1.414,2.37,2.542c0.355,0.82,0.721,1.636,1.093,2.481c-0.263,0.135-0.557,0.288-0.969,0.501
	c-1.529-2.843-3.601-5.139-6.837-6.082c-0.163-0.048-0.353-0.006-0.684-0.006c1.514,1.023,2.932,1.867,4.216,2.879
	c1.282,1.012,2.228,2.36,3.182,3.816c-0.355,0-0.628,0-0.859,0c-2.393-2.497-4.534-4.138-5.824-4.505
	c1.107,0.975,2.267,1.987,3.413,3.013c0.308,0.276,0.626,0.565,0.851,0.907c0.188,0.288,0.246,0.661,0.264,1.06
	c-1.025-0.32-1.569-1.231-2.424-1.721c-0.869-0.497-1.666-1.122-2.534-1.618c-0.863-0.492-1.778-0.896-2.865-1.435
	c0.104,0.914,0.183,1.614,0.258,2.27c1.03,1.348,2.034,2.66,3.095,4.048c-0.493,0.172-0.827,0.289-1.211,0.422
	c-0.485-0.592-0.654-1.458-1.611-1.868c0.083,0.866,0.156,1.636,0.237,2.484c-0.344-0.043-0.657-0.083-0.978-0.122
	c-0.139-1.218-0.275-2.414-0.408-3.586c-1.277-1.097-2.644-1.912-4.104-2.558c-0.418-0.185-0.933-0.333-1.391,0.061
	c1.146,0.98,2.316,1.929,3.426,2.943c1.154,1.054,1.688,2.491,2.347,3.904c-0.617,0.278-0.832-0.073-1.094-0.404
	c-0.838-1.059-1.63-2.165-2.569-3.127c-0.702-0.719-1.539-1.348-2.615-1.62c0.916,1.674,2.324,3.125,2.177,5.399
	c-0.264-0.224-0.475-0.328-0.567-0.496c-0.353-0.637-0.68-1.288-0.993-1.945c-0.735-1.535-1.963-2.571-3.402-3.397
	c-0.058-0.033-0.132-0.056-0.197-0.054c-0.063,0-0.127,0.038-0.209,0.065c0.498,0.874,1.072,1.71,1.468,2.625
	c0.396,0.917,0.638,1.905,0.902,2.875c0.264,0.968,0.795,1.904,0.471,3.111c-0.751-0.637-1.209-1.305-1.483-2.134
	c-0.529-1.603-1.496-2.954-2.542-4.251c-0.08-0.099-0.219-0.147-0.467-0.308c-0.212,1.8-1.041,3.386-0.706,5.171
	c0.108,0.576,0.124,1.167-0.184,1.759c-0.384-0.126-0.733-0.24-1.146-0.375c0.526-1.226,0.06-2.346-0.428-3.465
	c-0.651-1.497-1.406-2.935-2.437-4.316c-0.557,0.078-1.129,0.16-1.935,0.272c1.171,0.964,1.676,2.077,1.868,3.429
	c0.186,1.287,0.548,2.536,0.165,4.075c-0.306-0.304-0.54-0.428-0.584-0.601c-0.108-0.434-0.15-0.888-0.188-1.337
	c-0.178-2.172-1.273-3.902-2.563-5.557c-0.208,0-0.345-0.016-0.477,0.005c-0.129,0.021-0.25,0.079-0.313,0.101
	c0.704,1.6,1.503,3.129,2.053,4.742c0.538,1.58,1.331,3.125,1.253,4.995c-0.229-0.123-0.423-0.16-0.489-0.273
	c-0.491-0.83-0.992-1.658-1.421-2.521c-0.663-1.333-1.242-2.708-1.918-4.034c-0.305-0.6-0.756-1.124-1.256-1.646
	c-0.35,2.886-0.194,5.751-0.188,8.61c-0.136,0.071-0.272,0.144-0.409,0.214c-0.049-0.16-0.101-0.317-0.144-0.478
	c-0.053-0.2-0.106-0.401-0.144-0.605c-0.352-1.928-0.652-3.865-1.069-5.778c-0.197-0.901-0.564-1.779-0.955-2.621
	c-0.296-0.639-0.463-0.656-1.205-0.662c0.542,1.678,1.088,3.362,1.666,5.153c0,0.426,0,0.976,0,1.523
	c-0.657,0.021-0.975-0.181-1.118-0.76c-0.192-0.771-0.374-1.548-0.506-2.331c-0.146-0.862-0.661-1.442-1.304-1.986
	c-0.317,2.105,0.078,4.165-0.016,6.286c-0.162,0.188-0.356,0.414-0.683,0.792c-0.508-2.438-0.283-4.811-0.862-7.105
	c-0.592,1.062-0.624,2.263-0.821,3.413c-0.197,1.141-0.3,2.298-0.452,3.515c-0.577-0.275-0.65-0.712-0.704-1.154
	c-0.179-1.479-0.353-2.958-0.528-4.437c-0.032-0.273-0.065-0.547-0.101-0.843c-0.885,0.792-1.363,2.796-1.617,6.711
	c-0.597,0.202-0.768-0.134-0.849-0.646c-0.212-1.321-0.138-2.628,0.148-3.929c0.315-1.439,0.9-2.766,1.663-4.019
	c0.119-0.196,0.203-0.412,0.356-0.728c-0.368-0.096-0.645-0.168-0.977-0.255c-0.858,1.773-1.369,3.596-1.852,5.533
	c-0.913-0.671-0.272-1.719-0.859-2.479c-0.494,1.064-0.712,2.078-0.553,3.225c-0.17,0.155-0.355,0.327-0.618,0.568
	c-0.292-1.224-0.489-2.317-0.184-3.474c0.263-0.997,0.402-2.027,0.528-3.07c-1.151,1.208-1.346,2.902-2.087,4.314
	c-0.08-0.006-0.16-0.012-0.24-0.019c-0.091-0.855-0.183-1.712-0.274-2.567c-0.771,0.735-1.109,1.615-1.305,2.562
	c-0.173,0.833-0.311,1.681-1.054,2.428c-0.052-3.058,0.783-5.788,2.056-8.569c-0.431-0.123-0.791-0.226-1.227-0.351
	c-1.234,2.216-2.629,4.257-2.723,6.888c-0.269-0.064-0.46-0.111-0.632-0.152c-0.424-1.93,0.201-3.664,0.764-5.405
	c0.157-0.491,0.332-0.977,0.493-1.442c-0.308-0.369-0.615-0.305-0.853-0.074c-0.617,0.599-1.243,1.198-1.788,1.861
	c-0.434,0.526-0.382,0.569-1.071,0.699c0.129-1.288,0.941-2.284,1.386-3.532c-0.306-0.2-0.611-0.409-0.926-0.606
	c-1.615-1.012-3.212-2.056-4.856-3.018c-1.016-0.594-2.107-1.051-3.156-1.586c-0.592-0.302-1.109-0.198-1.666,0.123
	c-1.231,0.709-2.457,1.441-3.744,2.037c-1.598,0.738-3.276,0.896-4.926,0.12c-1.211-0.57-2.229-1.402-2.968-2.536
	c-0.474-0.729-0.694-1.526-0.425-2.381c0.259-0.821,0.513-1.653,0.873-2.432c1.522-3.287,3.623-6.225,5.596-9.243
	c1.513-2.316,3.467-4.229,5.319-6.24c0.186-0.201,0.356-0.415,0.649-0.758c-0.561-0.186-1.021-0.338-1.483-0.491
	c-0.962,0.641-1.557,1.543-2.223,2.378c-2.149,2.691-3.947,5.612-5.731,8.55c-0.802,1.32-1.812,2.532-2.842,3.691
	c-0.795,0.896-0.985,0.855-2.406,0.623c0.327-1.408,0.612-2.822,1.281-4.114c1.145-2.216,2.249-4.456,3.503-6.608
	c0.849-1.459,1.925-2.785,2.898-4.172c0.358-0.51,0.68-1.048,1.075-1.526c1.388-1.681,2.802-3.341,4.205-5.009
	c0.066,0.026,0.133,0.051,0.199,0.075c-0.061-0.433-0.121-0.866-0.206-1.476c0.239,0.387,0.396,0.643,0.63,1.021
	c0.291-0.221,0.567-0.431,0.77-0.585c-0.17-0.851-0.316-1.583-0.463-2.316c0.062-0.021,0.122-0.041,0.184-0.062
	c0.247,0.583,0.495,1.166,0.816,1.92c1.596-1.223,3.039-2.328,4.473-3.426c-0.149-0.774-0.295-1.531-0.439-2.288
	c0.046-0.01,0.093-0.021,0.14-0.031c0.256,0.576,0.512,1.152,0.798,1.796c1.84-1.111,3.577-2.162,5.319-3.215
	c-0.059-0.707-0.115-1.391-0.173-2.074c0.05-0.014,0.099-0.029,0.149-0.044c0.195,0.555,0.392,1.109,0.62,1.756
	c1.62-0.609,3.194-1.203,4.827-1.817c-0.239-1.754-0.479-3.521-0.719-5.289c0.075-0.014,0.151-0.026,0.228-0.04
	c0.266,1.737,0.584,3.461,1.264,5.193c0.75-0.159,1.447-0.307,2.258-0.479c0.059-1.458,0.116-2.879,0.173-4.3
	c0.049-0.003,0.098-0.005,0.147-0.007c0.124,1.328,0.248,2.656,0.384,4.114c0.623-0.122,1.141-0.223,1.663-0.325
	c0.094-2.121-0.276-4.184,0.573-6.145c-0.133,1.962-0.214,3.919,0.301,5.957c1.112-0.149,2.158-0.289,3.293-0.441
	c-0.082-0.836-0.154-1.566-0.226-2.297c0.071-0.015,0.143-0.029,0.213-0.043c0.236,0.738,0.472,1.476,0.73,2.284
	c0.782-0.096,1.523-0.188,2.32-0.287c0.373-2.148,0.631-4.293,1.717-6.191c-0.375,1.979-1.199,3.88-0.974,6.104
	c0.615-0.098,1.14-0.181,1.707-0.272c0.425-2.005,0.54-4.02,1.36-5.874c-0.27,1.832-0.54,3.665-0.829,5.626
	c1.881,0.07,3.569-0.333,5.336-0.382c0.459-1.859,0.496-3.715,0.581-5.624c0.767,0.165,0.836,0.672,0.827,1.142
	c-0.019,1.074-0.096,2.147-0.161,3.22c-0.021,0.336-0.078,0.67-0.125,1.053c1.612,0.064,3.126,0.125,4.692,0.187
	c1.104-1.4,1.206-3.313,2.273-4.777c0.407,1.711-0.438,3.161-0.987,4.73c0.867,0.363,1.758,0.288,2.751,0.396
	c0.438-1.433,0.865-2.833,1.321-4.328c0.25,0.238,0.461,0.439,0.727,0.691c-0.246,1.233-0.49,2.449-0.758,3.792
	c0.458,0.094,0.876,0.181,1.372,0.283c0.861-1.757,1.618-3.485,1.783-5.443c0.27,0,0.499,0,0.822,0
	c0.116,0.135,0.288,0.336,0.426,0.496c-0.546,1.744-1.07,3.419-1.632,5.213c0.647,0.165,1.329,0.338,2.012,0.513
	c1.716-1.961,3.138-3.99,3.8-6.508c0.317,0.063,0.54,0.108,0.792,0.158c-0.406,2.558-1.906,4.519-3.438,6.628
	c0.63,0.154,1.111,0.272,1.627,0.397c1.567-1.972,3.381-3.669,4.022-6.23c0.596,0.409,0.566,0.887,0.427,1.292
	c-0.225,0.65-0.486,1.309-0.859,1.88c-0.604,0.928-1.313,1.788-1.977,2.678c-0.121,0.163-0.232,0.333-0.445,0.638
	c0.525,0.155,0.96,0.283,1.373,0.406c1.935-1.375,2.955-3.453,4.451-5.113c0.58,0.191,0.44,0.582,0.254,0.919
	c-0.301,0.546-0.62,1.086-0.991,1.586c-0.578,0.779-1.208,1.521-1.812,2.282c-0.124,0.156-0.231,0.325-0.411,0.582
	c0.311,0.105,0.545,0.185,0.845,0.286c2.246-2.386,4.459-4.737,6.672-7.087c0.049,0.021,0.1,0.042,0.149,0.064
	c-0.031,0.211-0.003,0.459-0.105,0.627c-0.469,0.763-0.914,1.555-1.481,2.242c-1.103,1.339-2.284,2.612-3.425,3.92
	c-0.177,0.202-0.311,0.441-0.495,0.707c0.188,0.111,0.328,0.196,0.477,0.283c0.149-0.075,0.293-0.112,0.389-0.2
	c1.523-1.402,3.304-2.53,4.503-4.281c0.558-0.813,1.552-1.526,2.416-1.796c-1.844,2.503-3.445,4.98-6.208,6.72
	c0.692,0.336,1.171,0.567,1.791,0.868c1.606-1.109,3.248-2.242,4.892-3.375c0.403,0.287,0.268,0.56,0.026,0.792
	c-0.722,0.697-1.451,1.387-2.19,2.064c-0.422,0.385-0.868,0.741-1.249,1.184c0.858,0.018,1.313-0.647,1.909-1.06
	c0.595-0.411,1.166-0.856,1.793-1.319c0.399,0.51,0.193,0.872-0.172,1.187c-0.632,0.544-1.279,1.066-1.916,1.604
	c-0.121,0.104-0.218,0.235-0.326,0.353c0.035,0.067,0.07,0.134,0.104,0.199c0.222-0.078,0.478-0.11,0.658-0.243
	c0.5-0.372,0.992-0.762,1.447-1.188c1.392-1.304,2.774-2.619,3.837-4.291c0.343-0.112,0.718-0.236,1.212-0.398
	c-0.162,1.389-1.304,2.016-1.884,3.031c1.087-0.361,3.408-2.265,4.898-4.011c0.297,0.599,0.071,1.096-0.277,1.471
	c-0.799,0.861-1.648,1.675-2.502,2.481c-1.588,1.5-3.194,2.982-4.789,4.475c-0.043,0.041-0.045,0.126-0.085,0.247
	c0.527,0.356,1.067,0.718,1.573,1.06c4.064-1.853,7.176-4.936,10.615-7.516c0.099,0.035,0.195,0.041,0.218,0.083
	c0.097,0.177,0.17,0.366,0.25,0.546c-2.571,3.375-5.98,5.68-9.481,7.964c0.001,0.032-0.023,0.147,0.021,0.225
	c0.065,0.114,0.178,0.201,0.346,0.377c0.722-0.305,1.461-0.588,2.175-0.923c0.826-0.389,1.63-0.822,2.552-1.082
	c-0.258,0.416-0.518,0.831-0.891,1.431c1.06-0.471,1.768-1.1,2.452-1.737c1.038-0.968,2.031-1.983,3.046-2.977
	c0.407-0.397,0.87-0.647,1.639-0.477c-2.562,3.114-5.484,5.647-9.016,7.478c0.038,0.07,0.076,0.14,0.113,0.209
	c0.739-0.301,1.515-0.536,2.211-0.915c3.63-1.974,7.125-4.163,10.366-6.737c0.298-0.236,0.546-0.544,0.862-0.745
	c0.292-0.186,0.646-0.273,0.971-0.404c0.053,0.075,0.105,0.151,0.158,0.226c-0.272,0.341-0.497,0.739-0.826,1.01
	c-1.15,0.945-2.315,1.873-3.513,2.758c-1.562,1.155-3.108,2.341-4.752,3.37c-1.937,1.214-3.969,2.272-5.96,3.398
	c-0.318,0.179-0.635,0.357-0.893,0.731c0.465-0.034,0.95,0.006,1.391-0.116c1.099-0.302,2.21-0.603,3.258-1.042
	c1.65-0.69,3.253-1.492,4.898-2.257c0.332,0.096,0.425,0.334,0.193,0.607c-0.219,0.259-0.492,0.483-0.774,0.675
	c-1.91,1.293-4.044,2.118-6.185,2.928c-0.254,0.097-0.504,0.205-0.741,0.364c2.768-0.269,5.444-0.998,8.23-1.702
	c-0.421,0.787-0.987,1.068-4.566,2.107c-1.614,0.468-3.27,0.795-4.893,1.246c2.558,0.179,5.021-0.158,7.358-1.183
	c0.452-0.053,0.937-0.02,1.352-0.174c2.009-0.748,4.009-1.526,5.783-2.802c-0.412,0.566-0.932,1.005-1.526,1.379
	c-2.503,1.574-5.252,2.502-8.129,3.073c-1.868,0.372-3.75,0.672-5.626,1.006c-0.159,0.028-0.317,0.062-0.475,0.094
	c0.005,0.074,0.012,0.147,0.019,0.221c2.31-0.085,4.646,0.022,6.92-0.312c2.233-0.327,4.402-1.103,6.829-1.741
	c-0.433,0.256-0.67,0.421-0.928,0.545c-2.725,1.312-5.574,2.083-8.626,2.034c-1.212-0.02-2.428,0.101-3.64,0.071
	c-1.067-0.026-2.132-0.173-3.384-0.283c-0.294,0.619-0.698,1.338-0.984,2.102c-0.74,1.98-1.374,4-2.148,5.966
	c-1.448,3.682-2.998,7.306-5.592,10.387c-1.582,1.877-3.546,3.186-5.688,4.287c-0.58,0.297-1.164,0.586-1.68,1.062
	c0.539-0.165,1.12-0.25,1.608-0.51c1.282-0.682,2.587-1.351,3.763-2.19c1.234-0.884,2.36-1.929,3.483-2.959
	c1.83-1.681,2.968-3.847,3.881-6.098c0.959-2.36,2.176-4.558,3.534-6.697C131.936,95.138,132.105,94.608,132.355,94.06z
	 M91.269,81.479c-1.022-0.013-1.31-0.974-1.991-1.662c-0.335,0.64-0.616,1.177-0.986,1.886c-0.376,0.193-0.917,0.472-1.438,0.741
	c-0.902-0.622-1.707-1.176-2.544-1.752c-0.264,0.687,0.079,0.999,0.462,1.34c0.376,0.337,0.686,0.747,1.008,1.107
	c-0.171,0.396-0.294,0.677-0.422,0.973c-0.307,0.166-0.607,0.329-0.946,0.512c-0.333-0.118-0.649-0.252-0.979-0.341
	c-1.269-0.344-2.536-0.7-3.816-0.995c-0.467-0.108-0.984-0.115-1.52,0.281c0.278,0.141,0.426,0.219,0.576,0.289
	c1.194,0.552,2.393,1.093,3.578,1.664c0.181,0.087,0.296,0.313,0.635,0.69c-0.607,0.036-0.964,0.123-1.297,0.067
	c-1.637-0.278-3.268-0.597-4.902-0.895c-0.395-0.071-0.793-0.114-1.311-0.188c0,0.634,0,1.125,0,1.765
	c1.962,0.307,3.901,0.609,5.914,0.924c0.065,0.159,0.148,0.362,0.288,0.7c-2.463,0.957-5.027,0.885-7.676,1.273
	c0.403,0.287,0.65,0.463,0.793,0.563c2.508,0,4.891,0,7.376,0c0.062,0.11,0.17,0.305,0.349,0.622
	c-0.927,0.231-1.76,0.433-2.589,0.648c-1.308,0.339-2.628,0.639-3.912,1.05c-0.71,0.228-1.407,0.605-1.448,1.543
	c0.696,0.573,1.381,0.77,2.237,0.434c1.224-0.48,2.479-0.882,3.726-1.297c0.491-0.162,0.994-0.303,1.503-0.393
	c0.435-0.076,0.755,0.078,0.701,0.628c-1.956,1.238-3.91,2.475-5.798,3.669c0,0.536,0,0.896,0,1.216
	c0.622,0.333,1.171,0.286,1.682,0.02c0.519-0.271,1.024-0.58,1.495-0.927c1.138-0.839,2.185-1.81,3.578-2.379
	c0.153,0.179,0.297,0.344,0.476,0.551c-1.594,1.877-3.298,3.619-4.115,5.921c0.407,0.587,0.869,0.806,1.675,0.613
	c0.428-0.575,0.927-1.275,1.456-1.951c0.641-0.818,1.299-1.623,1.965-2.419c0.259-0.31,0.582-0.489,1.123-0.188
	c-0.213,0.518-0.401,1.06-0.652,1.573c-0.593,1.211-1.277,2.378-1.535,3.731c-0.147,0.774-0.044,0.974,0.911,1.264
	c0.564-1.353,1.132-2.723,1.709-4.088c0.203-0.478,0.42-0.951,0.654-1.414c0.191-0.378,0.476-0.577,1.009-0.297
	c-0.054,0.418-0.104,0.855-0.166,1.29c-0.189,1.336-0.395,2.671-0.568,4.01c-0.057,0.438-0.031,0.884,0.601,1.046
	c0.269-0.921,0.516-1.783,0.771-2.641c0.275-0.931,0.541-1.866,0.843-2.788c0.136-0.415,0.367-0.771,0.984-0.415
	c0,0.315,0.013,0.659-0.002,1c-0.061,1.352-0.127,2.702-0.195,4.053c-0.046,0.903,0.197,1.156,1.173,1.128
	c0.158-2.27,0.492-4.523,1.146-6.767c0.254,0,0.476,0,0.726,0c0.338,2.085,0.051,4.194,0.617,6.161
	c0.62,0.277,1.135,0.41,1.702,0.093c0.021-0.256,0.057-0.494,0.059-0.732c0.016-1.631,0.023-3.261,0.038-4.891
	c0.003-0.395-0.127-0.846,0.448-1.079c0.644,0.945,0.902,2.017,1.201,3.076c0.206,0.731,0.425,1.466,0.729,2.159
	c0.364,0.829,0.78,0.896,1.761,0.294c-0.353-1.569-0.706-3.189-1.09-4.802c-0.099-0.418-0.23-0.801,0.263-1.129
	c1.464,1.094,2.002,2.854,2.938,4.238c0.967,0.242,1.738,0.212,2.324-0.76c-1.059-1.445-2.119-2.892-3.205-4.375
	c0.128-0.195,0.251-0.384,0.451-0.689c1.704,1.096,3.355,2.159,5.038,3.242c0.663-0.241,1.016-0.745,1.146-1.465
	c-1.441-1.609-3.581-2.194-5.254-3.524c0.073-0.219,0.135-0.403,0.22-0.656c2.274,0.326,4.306,1.359,6.454,1.916
	c0.642-0.583,1.009-1.198,0.893-2.181c-2.071-0.704-4.157-1.412-6.302-2.141c0.106-0.258,0.191-0.463,0.273-0.66
	c2.193,0.145,4.325,0.287,6.448,0.427c0.323-0.691,0.594-1.248,0.2-2.005c-2.031-0.617-4.252,0.046-6.439-0.439
	c0.093-0.295,0.15-0.482,0.215-0.69c2.138-0.479,4.258-0.954,6.397-1.434c0.027-0.389,0.046-0.651,0.071-1.007
	c-0.442,0-0.818-0.048-1.179,0.008c-1.608,0.253-3.211,0.54-4.817,0.805c-0.124,0.02-0.258-0.032-0.453-0.06
	c0.05-0.269,0.09-0.489,0.126-0.683c1.698-0.68,3.335-1.334,5.051-2.02c0.082-0.419,0.162-0.834,0.233-1.202
	c-0.657-0.448-1.204-0.432-1.779-0.14c-0.958,0.487-1.919,0.97-2.892,1.422c-0.615,0.285-1.257,0.511-1.83,0.741
	c-0.526-0.513-0.354-0.862-0.013-1.175c0.562-0.517,1.143-1.014,1.705-1.529c0.167-0.153,0.302-0.34,0.579-0.659
	c-0.698-0.096-1.228-0.169-1.669-0.229c-2.419,1.728-2.419,1.728-3.091,1.303c0.435-0.714,0.871-1.429,1.354-2.221
	c-1.075-0.265-1.773,0.113-2.378,0.733c-0.241,0.246-0.432,0.542-0.657,0.804c-0.27,0.314-0.573,0.362-0.893,0.087
	c-0.413-0.76,0.456-1.341,0.304-2.104c-1.399-0.158-1.88,1-2.591,1.747c-0.644-0.354-0.644-0.354-0.865-1.606
	c-0.88,0.109-1.066,1.446-2.177,1.213c-0.211-0.17-0.449-0.363-0.796-0.642c-0.407,0.501-0.808,0.994-1.208,1.486L91.269,81.479z
	 M62.194,90.297c-1.322,1.786-2.205,3.674-2.454,5.901c-0.283,2.531-0.132,4.993,0.721,7.37c0.905,2.523,2.693,4.418,4.771,6.04
	c0.568,0.444,1.192,0.861,1.856,1.125c1.349,0.536,2.732,0.996,4.122,1.421c2.55,0.78,5.088,1.623,7.68,2.232
	c2.593,0.608,5.224,1.068,7.927,0.977c2.668-0.092,5.343-0.021,8.014-0.061c2.46-0.036,4.923-0.057,7.378-0.202
	c3.412-0.202,6.749-0.822,9.86-2.325c1.402-0.678,2.841-1.316,4.146-2.154c1.513-0.971,2.811-2.228,4.118-3.482
	c2.304-2.208,3.934-4.824,5.26-7.677c1.338-2.879,2.073-5.957,2.977-8.979c0.124-0.417,0.104-0.875,0.146-1.263
	c-0.452-0.38-0.823-0.691-1.193-1.002c-0.429-0.946-0.851-1.934-1.55-2.652c-0.982-1.01-2.17-1.819-3.063-2.545
	c-1.214-0.349-2.285-0.484-3.174-0.96c-0.923-0.493-1.669-1.314-2.558-2.046c-1.293-0.073-2.523-0.471-3.491-1.582
	c-0.597-0.687-1.22-0.659-2.05-0.071c0.128,0.266,0.256,0.545,0.395,0.817c1.531,3.012,2.976,6.046,2.611,9.576
	c-0.152,1.48-0.216,2.974-0.451,4.44c-0.123,0.768-0.454,1.531-0.827,2.224c-0.522,0.972-1.209,1.854-1.762,2.813
	c-1.934,3.345-4.849,5.573-8.258,7.199c-1.275,0.609-2.663,0.977-3.976,1.513c-2.018,0.824-4.104,1.214-6.279,1.301
	c-3.19,0.127-6.298-0.318-9.364-1.143c-2.466-0.662-4.79-1.658-6.899-3.093c-2.51-1.709-4.169-4.111-5.443-6.832
	c-0.918-1.961-1.339-3.996-1.278-6.151c0.061-2.131,0.32-4.218,1.145-6.206c0.074-0.179,0.073-0.389,0.116-0.631
	c-0.244-0.051-0.437-0.09-0.641-0.133c-0.605,1.392-1.445,2.562-2.61,3.474c-0.841,0.657-1.816,1.116-2.592,1.892
	c-0.358,0.358-0.976,0.502-1.503,0.636C63.453,90.199,62.854,90.216,62.194,90.297z M56.466,109.834
	c0.79-0.635,1.563-1.257,2.392-1.922c-2.008-1.947-2.898-4.327-3.133-7.036c-1.194,0.492-1.863,1.399-2.655,2.155
	c-0.612,0.584-0.917,1.325-0.899,2.14c0.017,0.75,0.104,1.522,0.309,2.242c0.494,1.73,1.46,2.405,3.266,2.422
	C55.985,109.837,56.227,109.834,56.466,109.834z M54.631,110.834c-0.747-0.281-1.553-0.494-2.266-0.878
	c-0.736-0.397-1.382-0.961-2.175-1.528c-0.161,0.601-0.316,1.178-0.447,1.665C51.236,111.93,52.787,112.297,54.631,110.834z
	 M69.451,82.609c1.445-0.823,2.837-1.614,4.276-2.434c-0.358-0.397-0.624-0.692-0.855-0.949c-1.399,0.528-4.082,2.08-4.56,2.65
	C68.685,82.116,69.048,82.35,69.451,82.609z M92.406,75.362c1.307-0.042,2.668-1.266,2.815-2.6c-1.207,0.148-2.39,0.294-3.652,0.449
	C91.74,74.077,91.783,74.835,92.406,75.362z M64.743,85.811c1.301-0.994,2.465-1.883,3.707-2.832
	c-0.362-0.311-0.664-0.571-0.943-0.811c-1.275,0.671-3.244,2.257-3.857,3.121C64.02,85.466,64.375,85.635,64.743,85.811z
	 M96.773,74.625c1.736,0.572,3.193-0.268,3.652-2.054c-1.083,0.062-2.143,0.125-3.229,0.188
	C97.045,73.427,96.917,73.993,96.773,74.625z M78.115,76.985c-1.574,0.637-3.016,1.22-4.623,1.871
	c0.498,0.384,0.814,0.628,1.139,0.877c1.441-0.625,2.819-1.225,4.417-1.917C78.697,77.504,78.451,77.285,78.115,76.985z
	 M101.005,74.829c1.47,0.087,3.16-1.078,3.627-2.485c-0.856,0.058-1.667,0.112-2.463,0.166
	C101.762,73.32,101.408,74.024,101.005,74.829z M84.57,76.674c0.678-0.095,1.268-0.178,1.947-0.273
	c-0.246-0.753-0.443-1.358-0.66-2.023c-0.829,0.264-1.573,0.5-2.486,0.791C83.799,75.706,84.151,76.147,84.57,76.674z
	 M89.069,76.059c-0.209-0.86-0.374-1.543-0.558-2.301c-0.638,0.137-1.187,0.256-1.866,0.402c0.295,0.752,0.536,1.369,0.796,2.03
	C88.009,76.145,88.475,76.106,89.069,76.059z M101.059,119.72c0.612,1.295,1.143,2.418,1.721,3.642
	c0.236-1.31,0.537-2.512-0.299-3.735C102.041,119.655,101.585,119.685,101.059,119.72z M83.458,76.884
	c-0.374-0.54-0.644-0.931-0.972-1.402c-0.72,0.254-1.414,0.5-2.219,0.784c0.228,0.445,0.39,0.759,0.55,1.072
	C81.712,77.185,82.494,77.05,83.458,76.884z M91.31,75.783c-0.229-0.899-0.411-1.613-0.606-2.383
	c-0.457,0.092-0.845,0.169-1.38,0.277c0.213,0.734,0.397,1.367,0.589,2.027C90.416,75.733,90.811,75.755,91.31,75.783z
	 M61.121,87.313c-0.593,0.521-1.136,0.997-1.844,1.618c0.715,0.156,1.196,0.261,1.66,0.361c0.48-0.43,0.896-0.802,1.376-1.229
	C61.866,87.781,61.553,87.584,61.121,87.313z M122.831,75.996c-0.549-0.188-0.902-0.309-1.312-0.449
	c-0.525,0.45-1.024,0.923-1.57,1.331c-0.516,0.386-1.082,0.705-1.626,1.054c0.036,0.058,0.071,0.118,0.107,0.176
	C119.93,77.624,121.274,76.81,122.831,75.996z M107.671,74.597c0.047,0.059,0.095,0.118,0.142,0.176
	c0.982-0.509,2.022-0.931,2.809-1.998c-0.531-0.084-0.974-0.154-1.367-0.217C108.676,73.303,108.173,73.95,107.671,74.597z
	 M128.648,79.464c-0.998,0.536-1.905,1.024-2.811,1.512c0.022,0.053,0.045,0.106,0.067,0.158c1.116-0.274,2.233-0.55,3.469-0.854
	C129.071,79.939,128.872,79.716,128.648,79.464z M112.538,72.963c-0.589,0.677-1.135,1.304-1.679,1.93
	c0.06,0.068,0.12,0.137,0.182,0.205c0.868-0.563,1.736-1.126,2.604-1.689c-0.017-0.075-0.034-0.15-0.051-0.224
	C113.249,73.112,112.903,73.04,112.538,72.963z M61.725,86.765c0.575,0.26,0.954,0.431,1.353,0.611
	c0.318-0.323,0.564-0.572,0.86-0.871c-0.422-0.276-0.729-0.475-1.078-0.702C62.519,86.092,62.214,86.35,61.725,86.765z
	 M105.251,74.473c0.064,0.066,0.129,0.133,0.192,0.199c0.679-0.686,1.358-1.372,2.208-2.231c-0.573,0-0.867,0-1.216,0
	C106.039,73.121,105.645,73.797,105.251,74.473z M123.697,79.129c1.069-0.19,2.028-0.583,2.678-1.506
	C125.319,77.829,124.489,78.442,123.697,79.129z M115.32,73.537c-0.551,0.633-1.057,1.215-1.563,1.798
	c0.047,0.039,0.093,0.078,0.139,0.118c0.741-0.517,1.482-1.034,2.234-1.557c-0.13-0.149-0.163-0.226-0.214-0.24
	C115.753,73.61,115.584,73.587,115.32,73.537z M129.731,78.697c-0.046,0.066-0.091,0.133-0.135,0.199
	c0.786,1.116,0.813,1.13,1.447,0.665C130.591,79.262,130.16,78.979,129.731,78.697z M124.877,76.781
	c-0.611,0.219-1.172,0.526-1.801,1.068C124.161,77.601,124.392,77.468,124.877,76.781z M131.689,81.296
	c0.693,0.136,0.693,0.136,1.25-0.214C132.438,80.753,132.438,80.753,131.689,81.296z M122.562,78.244
	c-0.042-0.063-0.085-0.127-0.127-0.19c-0.176,0.136-0.353,0.271-0.527,0.408c0.034,0.047,0.068,0.095,0.104,0.143
	C122.196,78.484,122.379,78.364,122.562,78.244z M116.318,115.414c-0.071,0.076-0.145,0.151-0.216,0.227
	c0.095,0.082,0.191,0.163,0.287,0.245c0.051-0.053,0.101-0.107,0.151-0.161C116.467,115.621,116.393,115.518,116.318,115.414z
	 M130.902,81.805c-0.281,0-0.386-0.028-0.46,0.007c-0.082,0.04-0.137,0.139-0.202,0.211c0.031,0.03,0.062,0.06,0.094,0.09
	C130.47,82.039,130.606,81.965,130.902,81.805z"/>
<path class="stroke" fill="#183046"  fill-rule="evenodd" clip-rule="evenodd" d="M91.243,81.495c1.205-0.043,2.41-0.106,3.616-0.124
	c4.737-0.07,8.476,4.201,7.617,8.946c-0.496,2.745-2.018,4.779-4.648,5.973c-1.646,0.748-3.354,1.13-5.118,1.233
	c-2.798,0.161-5.261-0.702-7.26-2.73c-0.729-0.74-1.173-1.639-1.322-2.659c-0.337-2.306,0.039-4.461,1.262-6.493
	c0.92-1.526,2.158-2.589,3.789-3.248c0.704-0.284,1.392-0.607,2.089-0.913C91.269,81.479,91.243,81.495,91.243,81.495z"/>
<path class="stroke" fill="#183046"  d="M160.055,112.959c-0.112-0.517-0.403-0.609-0.665-0.681c-1.802-0.502-3.597-1.021-5.414-1.465
	c-2.122-0.519-4.273-0.915-6.317-1.72c-0.521-0.203-1.124-0.56-1.714,0.083c-0.024,0.794-0.481,1.505-0.763,2.27
	c-0.789,2.14-1.205,4.383-1.955,6.534c-0.332,0.947-0.521,1.918-0.505,2.92c0.004,0.335,0.035,0.648,0.452,0.722
	c1.637-0.684,3.392-1.008,5.018-1.861c0.457,0.565,0.826,1.058,1.048,1.661c0.6,1.627,1.443,3.126,2.43,4.546
	c0.259,0.374,0.501,0.778,1.137,0.893c2.125-1.051,4.292-2.231,6.522-3.639c-1.448-2.569-2.8-5.088-3.852-7.763
	C157.168,114.771,158.823,114.168,160.055,112.959z"/>
<path fill-rule="evenodd" clip-rule="evenodd" fill="#fafd30" class="fill" d="M147.446,110.594c2.997,0.931,5.937,1.646,8.97,2.464
	c-0.967,0.833-2.117,1.095-3.02,1.707c-0.087,0.817,0.221,1.461,0.598,2.052c1.14,1.783,1.922,3.749,2.908,5.613
	c0.1,0.181,0.174,0.376,0.313,0.681c-1.36,0.684-2.745,1.158-4.17,1.498c-1.729-2.096-2.626-4.635-4.168-6.762
	c-1.658,0-2.856,1.134-4.504,1.662C145.441,116.484,146.491,113.671,147.446,110.594z"/>
</svg>
