<svg version="1.1" id="svg" xmlns="http://www.w3.org/2000/svg" xmlns:xlink="http://www.w3.org/1999/xlink" x="0px" y="0px"
	 width="200px" height="200px" viewBox="0 0 200 200" enable-background="new 0 0 200 200" xml:space="preserve">
<path class="stroke" fill="#3b4954"  fill-rule="evenodd" clip-rule="evenodd" d="M74.414,163.381c-2.562,0.732-5.154,1.377-7.676,2.228
	c-1.545,0.521-2.799,0.133-4.105-0.587c-0.534-0.294-1.157-0.427-1.677-0.611c-0.19,0.211-0.268,0.256-0.279,0.315
	c-0.725,3.612-4.024,3.854-6.609,4.98c-0.8,0.349-1.778,0.265-2.65,0.479c-2.334,0.575-4.681,1.121-6.976,1.831
	c-3.5,1.083-7.294-0.063-9.625-2.819c-0.622-0.736-1.212-1.517-1.699-2.346c-0.81-1.378-2.041-2.115-3.543-2.246
	c-1.582-0.138-2.395-1.151-3.193-2.281c-0.479-0.676-0.984-1.336-1.435-2.032c-1.483-2.294-1.825-4.682-0.908-7.336
	c1.002-2.9,2.337-5.765,1.428-9.029c-0.358-1.288-0.366-2.695-0.386-4.05c-0.039-2.76-0.018-5.522,0.06-8.281
	c0.031-1.107,0.145-2.248,0.457-3.303c0.418-1.409,0.872-2.875,1.657-4.092c1.514-2.347,3.541-4.054,6.785-3.679
	c0.087-0.134,0.252-0.3,0.318-0.5c1.081-3.227,3.747-5.086,6.235-7.03c2.491-1.947,4.19-4.481,5.894-7.047
	c1.178-1.776,2.4-3.522,3.55-5.316c1.091-1.702,2.364-3.124,4.605-3.345c0.303-2.539,0.335-4.91-0.848-7.375
	c-0.902-0.22-1.892-0.593-2.904-0.677c-1.498-0.124-1.96-1.287-2.652-2.266c-2.629-3.716-3.252-7.928-3.01-12.337
	c0.032-0.58,0.208-1.261,0.562-1.694c1.162-1.424,1.407-2.971,0.924-4.684c-0.313-1.111-0.765-2.197-0.94-3.327
	c-0.133-0.853,0.097-1.757,0.115-2.639c0.011-0.464,0.096-1.115-0.16-1.364c-1.3-1.258-1.134-2.707-0.762-4.226
	c0.223-0.91,0.488-1.814,0.648-2.735c0.393-2.265-0.896-3.708-2.569-4.874c-1.054-0.734-2.291-1.22-3.299-2.006
	c-3.703-2.888-6.136-6.502-5.905-11.42c0.166-3.521,2.646-4.553,5.602-3.811c2.898,0.728,4.085,3.124,4.826,5.769
	c0.212,0.757,0.347,1.537,0.557,2.485c1.138,0.376,2.279,0.754,3.257,1.077c1.331-0.974,2.566-1.877,3.722-2.722
	c2.086-0.031,2.82,1.535,3.885,3.069c0.975-1.471,1.888-2.794,2.729-4.162c0.162-0.264,0.042-0.702,0.05-1.06
	c0.021-1.065-0.255-2.253,0.121-3.172c1.064-2.597,2.084-5.274,4.378-7.145c1.086-0.885,1.071-0.902,3.914-1.116
	c0.517-0.636,1.074-1.331,1.641-2.019c0.679-0.827,1.445-1.103,2.579-0.85c1.57,0.352,3.208,0.348,4.49,1.562
	c1.229,1.163,2.546,2.235,3.799,3.374c1.415,1.287,2.016,4.445,1.296,6.266c-0.714,1.807-1.398,3.629-1.991,5.479
	c-0.137,0.429,0.019,1.077,0.269,1.482c0.924,1.492,1.229,2.941,0.335,4.584c-0.937,1.719-1.243,3.585-0.916,5.634
	c3.258,0.037,4.346,2.463,5.368,4.907c0.388,0.925,0.613,1.921,0.877,2.894c0.555,2.047-0.04,3.864-1.048,5.651
	c-0.688,1.222-1.242,2.531-1.744,3.843c-0.637,1.665,0.014,3.239,0.674,4.714c1.236,2.765,2.645,5.452,3.918,8.201
	c1.066,2.302,1.723,4.704,0.812,7.217c-0.286,0.786-0.884,1.46-1.339,2.185c-0.111-0.054-0.222-0.107-0.332-0.16
	c0.092,1.835,0.258,3.671,0.255,5.507c-0.004,1.838,0.939,3.081,2.182,4.265c1.034,0.985,1.3,2.282,1.039,3.678
	c-0.178,0.958-0.369,1.912-0.528,2.727c0.751,0.955,1.546,1.688,1.989,2.592c0.682,1.393,0.421,2.84-0.205,4.257
	c-0.522,1.182-0.895,2.431-1.409,3.857c1.062,0.692,2.054,1.464,3.15,2.029c2.854,1.468,5.191,3.423,6.211,6.562
	c0.643,1.977-0.012,3.926-0.815,5.697c-1.666,3.671-3.453,7.292-5.317,10.868c-1.435,2.753-3.053,5.413-4.614,8.099
	c-0.342,0.589-0.726,1.183-1.203,1.66c-1.485,1.48-3.056,2.875-4.529,4.366c-0.707,0.716-1.39,1.506-1.881,2.377
	c-1.067,1.894-2.564,3.298-4.406,4.394c-0.337,0.201-0.612,0.506-0.917,0.763C74.516,163.481,74.465,163.431,74.414,163.381z"/>
<path class="stroke" fill="#3b4954"  fill-rule="evenodd" clip-rule="evenodd" d="M173.072,92.822c-2.439,0.143-4.878,0.356-7.32,0.411
	c-3.069,0.068-6.143,0.039-9.213-0.01c-1.519-0.025-3.035-0.282-4.553-0.276c-4.177,0.015-8.354,0.178-12.53,0.155
	c-3.005-0.017-6.008-0.297-9.013-0.354c-3.668-0.07-7.343,0.074-11.006-0.064c-4.234-0.16-8.46-0.54-12.691-0.8
	c-1.957-0.12-3.917-0.195-5.876-0.27c-1.278-0.049-1.99-0.55-2.062-1.856c-0.189-3.439-0.463-6.892-0.335-10.325
	c0.177-4.734,0.715-9.453,1.054-14.182c0.353-4.932,0.662-9.866,0.971-14.8c0.135-2.134,0.196-4.273,0.346-6.406
	c0.09-1.283,0.668-1.857,1.95-1.895c0.931-0.026,1.866,0.153,2.802,0.2c3.216,0.16,6.435,0.279,9.649,0.458
	c2.62,0.146,5.235,0.382,7.854,0.53c2.479,0.14,4.964,0.197,7.444,0.324c3.607,0.185,7.214,0.405,10.821,0.601
	c1.519,0.083,3.042,0.111,4.56,0.22c2.778,0.199,5.551,0.474,8.33,0.651c2.051,0.131,4.115,0.076,6.162,0.247
	c2.908,0.244,5.805,0.626,8.709,0.937c1.967,0.21,3.945,0.333,5.899,0.632c0.686,0.104,1.31,0.614,1.984,0.949
	c-0.192,2.604-0.361,5.053-0.56,7.5c-0.087,1.078-0.276,2.15-0.347,3.229c-0.309,4.695-0.624,9.389-0.871,14.087
	c-0.211,4.017-0.309,8.041-0.5,12.059c-0.112,2.375-0.262,4.753-0.513,7.117c-0.05,0.466-0.637,0.875-0.977,1.312
	C173.187,93.075,173.129,92.948,173.072,92.822z"/>
<path fill-rule="evenodd" clip-rule="evenodd" fill="#e5f3a5" class="fill" d="M36.269,123.739c0.656-1.173,1.366-2.298,1.937-3.489
	c1.035-2.163,2.793-3.607,4.569-5.122c1.812-1.544,3.547-3.258,4.968-5.157c1.679-2.241,3.049-4.726,4.431-7.174
	c0.931-1.649,2.081-2.669,3.976-2.287c1.224-0.569,1.664-1.525,1.592-2.688c-0.168-2.705-0.272-5.423-0.656-8.1
	c-0.206-1.437-1.615-2.258-2.864-2.557c-3.145-0.753-3.839-3.255-4.591-5.783c-0.451-1.514-0.786-3.063-1.27-4.564
	c-0.297-0.921-0.126-1.687,0.542-2.273c2.347-2.062,2.063-4.493,1.06-7.034c-0.305-0.769-0.692-1.505-1.03-2.231
	c0.286-1.077,0.853-2.157,0.768-3.183c-0.085-1.023-0.823-1.993-1.503-2.912c0.127-0.449,0.188-0.931,0.393-1.343
	c1.821-3.683-0.512-9.517-4.81-11.281c-3.493-1.433-5.782-4.139-7.031-7.641c-0.691-1.939,0.389-4.487,2.404-4.906
	c1.187,0.868,2.492,1.661,2.521,3.527c0.017,1.037,0.273,2.076,0.484,3.101c0.232,1.123,0.969,1.785,2.048,2.167
	c1.214,0.43,2.387,0.972,3.589,1.438c0.944,0.365,1.735,0.246,2.384-0.667c0.543-0.764,1.229-1.426,2.078-2.389
	c0.615,0.907,1.124,1.465,1.406,2.12c0.415,0.96,1.062,1.628,2.072,1.635c1.09,0.006,1.917-0.563,2.203-1.724
	c0.399-1.625,1.716-2.552,2.845-3.594c0.744-0.687,0.929-1.386,0.836-2.396c-0.11-1.195-0.118-2.505,0.266-3.616
	c0.607-1.757,1.484-3.443,2.426-5.055c0.586-1.002,1.568-1.481,2.885-1.208c0.459,0.096,1.139-0.35,1.565-0.722
	c0.956-0.835,1.816-1.779,2.454-2.417c2.168,0.029,2.805,1.392,3.705,2.447c0.351,0.412,0.812,0.81,1.307,1.003
	c1.553,0.605,2.388,1.953,1.929,3.588c-0.504,1.797-1.161,3.552-1.744,5.328c-0.542,1.652-0.762,3.308,0.007,4.958
	c0.608,1.305-0.103,2.447-0.598,3.512c-0.871,1.875-0.321,3.695-0.028,5.507c0.184,1.136,1.154,1.847,2.226,2.185
	c1.076,0.339,1.695,1.004,2.085,2.023c0.185,0.482,0.596,0.873,0.841,1.337c0.894,1.694,1.201,3.491,0.587,5.328
	c-0.571,1.706-1.11,3.458-1.968,5.023c-1.375,2.513-1.212,4.851,0.027,7.328c1.55,3.097,3.003,6.244,4.423,9.403
	c0.762,1.694,0.25,3.213-0.947,4.58c-0.499,0.57-0.783,1.602-0.689,2.366c0.229,1.877,0.371,3.686-0.03,5.583
	c-0.408,1.93,0.824,3.405,2.116,4.631c0.847,0.803,1.098,1.525,0.643,2.574c-0.82,1.887-0.526,3.441,1.041,4.764
	c2.588,2.186,2.03,3.255,0.815,5.658c-1.447,2.862-0.793,5.307,2.13,6.759c1.956,0.973,3.468,2.441,4.952,3.957
	c1.174,1.199,1.155,2.841,1.002,4.299c-0.336,3.187-1.829,5.964-3.538,8.64c-1.205,1.888-2.181,3.927-3.429,5.785
	c-1.485,2.213-3.047,4.394-4.772,6.421c-1.445,1.697-3.251,3.083-4.755,4.736c-1.312,1.441-2.463,3.035-3.613,4.614
	c-0.785,1.08-1.722,1.703-3.063,2.017c-1.631,0.38-3.187,1.099-4.762,1.707c-1.146,0.443-2.191,0.366-3.351-0.112
	c-1.65-0.68-3.393-1.461-5.188-0.429c-0.405,0.233-0.771,0.742-0.909,1.197c-0.312,1.044-0.833,1.859-1.881,2.213
	c-2.083,0.704-4.176,1.381-6.274,2.039c-2.565,0.804-5.142,1.572-7.71,2.367c-1.588,0.491-3.313-0.375-4.265-1.751
	c-1.058-1.534-2.381-2.888-3.626-4.288c-0.192-0.217-0.577-0.35-0.88-0.369c-2.252-0.14-3.38-1.779-4.715-3.28
	c-1.971-2.215-1.018-4.395-0.298-6.659c0.458-1.443,0.99-2.899,1.163-4.388c0.158-1.359-0.112-2.77-0.214-4.156
	c-0.039-0.526-0.293-1.085-0.179-1.564c0.616-2.572,0.538-5.095,0.083-7.707c-0.303-1.733,0.151-3.583,0.051-5.369
	c-0.104-1.833,0.566-3.273,1.604-4.69c1.077-1.474,2.568-2.106,4.328-1.672C35.229,123.75,35.64,123.708,36.269,123.739z"/>
<path fill-rule="evenodd" clip-rule="evenodd" fill="#196FD2" d="M102.235,62.199c6.616,0.026,12.947,1.107,19.601,0.784
	c0.263-5.822,0.512-11.358,0.758-16.838c2.957,0,5.726,0,8.658,0c-0.198,5.761-0.393,11.37-0.587,16.983
	c0.439,0.294,0.792,0.531,1.145,0.768c0.011-0.07,0.021-0.139,0.032-0.208c6.445,0.506,12.891,1.013,19.336,1.519
	c0.01-0.077,0.02-0.153,0.029-0.23c0.293,0.132,0.585,0.264,0.877,0.396c0.003-0.053,0.006-0.106,0.009-0.159
	c6.666,0.312,13.334,0.625,20.057,0.939c0,2.776,0,5.491,0,8.035c-7.212-0.36-14.175-0.709-21.136-1.057
	c-6.954-0.348-13.907-0.695-21.119-1.056c-0.937,5.554-0.656,10.977-1.006,16.41c-2.824,0-5.593,0-8.448,0
	c0-2.949,0.056-5.766-0.017-8.58c-0.07-2.777,0.732-5.572-0.068-8.496c-6.162-0.395-12.248-0.786-18.563-1.19
	C101.937,67.61,102.084,64.936,102.235,62.199z"/>
<path fill-rule="evenodd" clip-rule="evenodd" fill="#FEFEFE" d="M132.476,61.974c0.284-5.255,0.563-10.432,0.847-15.687
	c13.436,1.081,26.68,2.146,40.138,3.229c-0.519,4.974-1.026,9.842-1.533,14.702c-6.517-0.226-13.033-0.339-19.535-0.708
	C145.857,63.14,139.339,62.515,132.476,61.974z"/>
<path fill-rule="evenodd" clip-rule="evenodd" fill="#FEFEFE" d="M130.746,88.896c0.178-4.918,0.354-9.778,0.54-14.942
	c13.575,0.819,27.02,1.055,40.347,2.227c-0.247,4.626-0.479,8.98-0.718,13.459c-0.456,0.095-0.896,0.234-1.344,0.272
	c-1.768,0.148-3.538,0.374-5.307,0.364c-2.054-0.012-4.137-0.063-6.151-0.414c-4.072-0.708-8.152-0.304-12.228-0.36
	c-2.101-0.03-4.21,0.272-6.304,0.178C136.737,89.551,133.903,89.188,130.746,88.896z"/>
<path fill-rule="evenodd" clip-rule="evenodd" fill="#FEFEFE" d="M118.305,88.657c-5.527,0-10.929,0-16.372,0
	c-0.494-5.508-0.489-10.875-0.136-16.571c5.584,0.348,10.979,0.685,16.678,1.04C118.614,78.246,118.589,83.364,118.305,88.657z"/>
<path fill-rule="evenodd" clip-rule="evenodd" fill="#FEFEFE" d="M102.321,60.312c0.529-5.026,1.03-9.783,1.564-14.856
	c1.572-0.021,3.102-0.094,4.628-0.051c3.674,0.105,7.346,0.266,11.019,0.406c0.284,0.011,0.568,0.033,1.169,0.069
	c-0.19,5.141-0.379,10.238-0.572,15.492C114.155,61.017,108.371,60.672,102.321,60.312z"/>
</svg>
