<svg version="1.1" id="svg" xmlns="http://www.w3.org/2000/svg" xmlns:xlink="http://www.w3.org/1999/xlink" x="0px" y="0px"
	 width="200px" height="200px" viewBox="0 0 200 200" enable-background="new 0 0 200 200" xml:space="preserve">
<path class="stroke" fill="#55061d"  d="M136.717,82.928c-0.117-1.061-0.378-2.129-0.748-3.13c-0.453-1.228-1.089-2.388-1.696-3.684
	c0.897,0.232,1.758,0.457,2.63,0.683c0.738-0.514,0.475-1.043,0.259-1.53c-0.991-2.241-2.394-4.167-4.385-5.633
	c-0.429-0.316-0.827-0.675-1.222-1c-0.091-1.546,0.233-3.091-0.787-4.415c0.2-0.356,0.336-0.717,0.571-0.991
	c0.717-0.842,0.754-1.824,0.633-2.829c-0.24-2.005-0.975-3.746-3.031-4.473c-2.238-0.792-4.559-1.213-6.957-1.145
	c-2.654,0.077-5.311,0.107-7.965,0.138c-2.073,0.023-4.149-0.039-6.219,0.04c-2.612,0.1-5.219,0.386-7.831,0.445
	c-4.731,0.106-9.465,0.096-14.18,0.582c-2.145,0.222-4.296,0.422-6.426,0.758c-1.567,0.247-2.69,1.285-3.037,2.793
	c-0.465,2.023-0.591,4.106,0.009,5.866c-0.057,1.089-0.101,1.908-0.149,2.823c-1.688,1.04-1.508,2.466-0.422,4.026
	c-0.507,0.326-0.91,0.609-1.334,0.855c-0.862,0.499-1.747,0.959-2.603,1.469c-1.229,0.73-2.329,2.682-1.626,4.185
	c1.423,0.538,2.873-0.227,4.438-0.352c-0.118,0.24-0.176,0.392-0.26,0.526c-0.79,1.266-1.648,2.494-2.352,3.806
	c-0.401,0.749-0.701,1.619-0.788,2.46c-0.216,2.102-0.356,4.217-0.396,6.33c-0.087,4.484-0.094,8.969-0.127,13.454
	c-0.009,1.162,0.036,2.325,0.005,3.485c-0.054,1.991-0.193,3.98-0.214,5.971c-0.039,4.068-0.104,8.139,0.003,12.204
	c0.056,2.146,0.316,4.31,0.722,6.42c0.496,2.581,1.962,4.709,4.066,6.224c2.444,1.758,5.22,2.958,8.202,3.454
	c4.097,0.68,8.234,1.042,12.397,1.037c2.239-0.002,4.485,0.177,6.717,0.068c4.435-0.218,8.859-0.644,13.295-0.862
	c4.415-0.218,8.739-0.898,13.031-1.938c2.905-0.704,4.728-2.491,5.783-5.151c1.706-4.296,2.521-8.758,2.342-13.393
	c-0.055-1.41-0.043-2.825-0.012-4.235c0.086-3.943,0.232-7.883,0.29-11.826c0.04-2.739-0.063-5.478-0.042-8.217
	C137.344,93.116,137.273,88.011,136.717,82.928z"/>
<path fill-rule="evenodd" clip-rule="evenodd" fill="#f5c4bc" class="fill" d="M87.72,95.591c-1.42,0.609-0.934,1.984-1.571,2.969
	c-4.498-0.994-8.452,0.747-12.306,2.928c-0.387-1.772-0.125-11.567,0.342-13.074c0.327-0.023,0.689-0.08,1.048-0.069
	c3.031,0.097,6.061,0.188,9.089,0.317c4.852,0.208,9.704,0.626,14.555,0.613c4.267-0.012,8.531-0.494,12.796-0.769
	c0.448-0.029,0.896-0.056,1.507-0.094c-0.156,12.83,0.864,25.512,1.416,38.388c-0.6,0.082-1.235,0.21-1.878,0.249
	c-3.602,0.222-7.206,0.438-10.811,0.623c-1.658,0.085-3.319,0.101-4.979,0.14c-2.613,0.062-5.228,0.159-7.842,0.164
	c-4.196,0.006-8.376-0.271-12.542-0.793c-1.061-0.132-2.132-0.169-3.245-0.253c0-1.999,0-3.924,0-5.922
	c0.606,0,1.089,0.007,1.57-0.001c3.699-0.062,7.393-0.26,11.015-1.048c2.24-0.487,4.357-1.382,6.161-2.851
	c1.412-1.149,1.946-2.743,2.031-4.512c0.02-0.403,0.003-0.808,0.003-1.43c2.136,1.094,4.097,2.111,6.573,1.388
	c-0.155-0.439-0.201-0.859-0.422-1.145c-0.683-0.883-1.482-1.681-2.141-2.58c-0.501-0.688-0.858-1.479-1.319-2.298
	c2.969-1.506,5.974-1.84,9.116-1.641c0.451-1.809,0.01-3.45,0.082-5.223c-1.071,0.208-1.84,0.421-2.436,1.133
	c-3.275,0.595-6.708,0.304-9.841,1.484C90.729,100.876,89.795,97.754,87.72,95.591z"/>
<path fill-rule="evenodd" clip-rule="evenodd" fill="#f5c4bc" class="fill" d="M128.662,60.169c0.425,0.276,0.722,0.468,1.183,0.767
	c-0.27,0.866-0.558,1.788-0.851,2.724c-0.569,0-1.016,0-1.413,0c-0.203-0.355-0.384-0.671-0.624-1.089
	c-0.479,0.578-0.68,0.822-0.989,1.195c-0.605,0.072-1.339,0.158-2.309,0.273c-0.122-0.246-0.287-0.581-0.486-0.984
	c-0.391,0.412-0.605,0.639-0.844,0.89c-0.964,0.079-1.954,0.16-3.02,0.246c-0.126-0.333-0.247-0.653-0.361-0.959
	c-0.908-0.062-0.44,0.618-0.582,0.937c-0.973,0.329-2.457,0.383-4.226,0.148c0.021-0.345,0.043-0.697,0.074-1.197
	c-0.384,0.08-0.666,0.138-1.003,0.208c0.058,0.411,0.101,0.719,0.152,1.091c-1.083,0-2.112,0-3.188,0
	c-0.121-0.3-0.249-0.617-0.358-0.892c-0.864-0.208-0.811,0.619-1.203,0.918c-0.58,0-1.156,0-1.733,0
	c-0.206-0.319-0.395-0.614-0.681-1.059c-0.264,0.407-0.449,0.693-0.73,1.126c-1.12-0.07-2.352-0.163-3.586-0.217
	c-0.403-0.018-0.81,0.073-1.216,0.099c-1.695,0.104-3.389,0.222-5.085,0.288c-0.438,0.018-0.882-0.137-1.148-0.182
	c-0.961,0.126-1.77,0.233-2.548,0.336c-0.277-0.337-0.481-0.584-0.782-0.948c-0.309,0.344-0.565,0.63-0.936,1.042
	c-0.855-0.076-1.823-0.161-3.214-0.285c-1.157,0.147-2.75,0.257-4.375-0.12c-1.322,0.652-2.751,0.32-4.198,0.223
	c-0.759-1.568-0.784-3.191,0.132-4.96c0.152,0.458,0.269,0.807,0.383,1.155c0.139-0.043,0.278-0.085,0.416-0.128
	c0.104-0.172,0.207-0.344,0.354-0.587c-0.165-0.272-0.347-0.57-0.556-0.912c1.521-1.045,3.272-1.127,4.926-1.453
	c0.415,0.29,0.749,0.523,1.169,0.816c0.201-0.295,0.397-0.583,0.685-1.005c4.726-0.206,9.571-0.416,14.388-0.624
	c0.299,0.285,0.559,0.532,0.908,0.865c0.222-0.358,0.401-0.649,0.604-0.976c1.759,0,3.541,0,5.377,0
	c0.156,0.332,0.314,0.669,0.473,1.006c0.09,0.003,0.178,0.007,0.268,0.01c0.085-0.304,0.17-0.609,0.276-0.992
	c0.715,0,1.491,0,2.302,0c0.141,0.28,0.284,0.562,0.448,0.884c0.209,0.015,0.406,0.029,0.657,0.048
	c0.077-0.301,0.146-0.571,0.228-0.895c2.748-0.067,5.511-0.135,8.235-0.201c0.173,0.437,0.301,0.763,0.415,1.051
	c0.884,0.161,0.47-0.648,0.829-0.939c2.876-0.099,5.597,0.462,8.167,2.127c-0.193,0.298-0.288,0.454-0.393,0.604
	C128.979,59.774,128.877,59.896,128.662,60.169z M111.881,60.318c-0.675-0.076-1.194-0.135-1.797-0.202
	c0.06,0.277,0.106,0.496,0.135,0.633c0.555,0.155,1.014,0.282,1.551,0.431C111.804,60.913,111.837,60.658,111.881,60.318z
	 M100.433,61.495c-0.674,0.586-0.674,0.586,0.08,1.161C100.909,62.227,100.968,61.856,100.433,61.495z M120.739,61.249
	c0.215,0.615,0.462,0.892,1.042,0.46C121.662,61.116,121.481,60.752,120.739,61.249z M91.987,58.332
	c-0.062,0.636,0.105,0.938,0.704,0.876C92.859,58.36,92.859,58.36,91.987,58.332z M107.868,62.862
	c0.474-0.671,0.474-0.671-0.212-1.092C107.314,62.225,107.39,62.565,107.868,62.862z M116.604,57.481
	c-0.648,0.54-0.32,0.834,0.135,1.152C117.211,58.214,117.171,57.875,116.604,57.481z M104.678,61.167
	c-0.387,0.356-0.576,0.53-0.864,0.795c0.38,0.195,0.601,0.308,0.992,0.509C104.761,62.003,104.733,61.724,104.678,61.167z
	 M97.763,59.272c0.604-0.734,0.583-0.796-0.307-0.966C97.185,58.752,97.305,59.057,97.763,59.272z M89.013,57.92
	c-0.475,0.565-0.438,0.894,0.219,1.125C89.654,58.596,89.641,58.27,89.013,57.92z M121.142,59.448
	c-0.736,0.672-0.736,0.672,0.212,1.095C121.268,60.091,121.205,59.77,121.142,59.448z M101.543,59.208
	c-0.765,0.934-0.732,1.024,0.282,1.208C101.738,60.044,101.667,59.739,101.543,59.208z M92.759,63.242
	c0.379-0.417,0.536-0.736,0.135-1.112C92.183,62.456,92.183,62.456,92.759,63.242z M115.367,60.548
	c-0.508,0.328-0.809,0.543-0.402,0.995c0.093,0.104,0.341,0.068,0.666,0.122C115.535,61.258,115.47,60.983,115.367,60.548z
	 M97.418,63.492c0.395-0.777,0.395-0.777-0.376-0.97C96.83,62.981,96.79,63.351,97.418,63.492z M106.763,58.723
	c-0.066,0.787-0.066,0.787,0.422,1.148C107.518,59.363,107.472,59.006,106.763,58.723z M125.886,59.128
	c0.474-0.48,0.471-0.818-0.214-1.059C125.162,58.548,125.26,58.867,125.886,59.128z M125.406,60.738
	c-0.482,0.562-0.329,0.872,0.272,1.129C126.018,61.404,126.047,61.06,125.406,60.738z M85.874,59.604
	c-0.271,0.562-0.176,0.873,0.334,1.088C86.683,60.18,86.651,59.853,85.874,59.604z M80.161,63.546
	c0.126,0.025,0.254,0.05,0.38,0.074c0.049-0.323,0.099-0.645,0.168-1.101C79.784,62.76,79.882,63.127,80.161,63.546z M85.439,63.164
	c-0.431,0.75-0.431,0.75,0.268,1.139C85.917,63.884,86.082,63.513,85.439,63.164z M116.472,62.592
	c0.4,0.307,0.622,0.477,0.843,0.646c0.084-0.046,0.169-0.092,0.253-0.138c-0.052-0.292-0.106-0.585-0.178-0.986
	C117.051,62.29,116.884,62.376,116.472,62.592z M104.479,58.807c-0.167-0.543-0.256-0.834-0.378-1.229
	C103.424,58.333,103.424,58.333,104.479,58.807z M118.1,60.22c0.479-0.712,0.479-0.712-0.298-0.99
	C117.447,59.639,117.577,59.926,118.1,60.22z M82.626,59.121c-0.472,0.102-0.651,0.141-1.009,0.218
	c0.194,0.363,0.333,0.621,0.472,0.879c0.09-0.02,0.179-0.038,0.269-0.057C82.426,59.894,82.496,59.626,82.626,59.121z M88.46,63.048
	c0.468-0.445,0.521-0.769-0.067-1.095C87.93,62.319,87.891,62.632,88.46,63.048z M89.978,62.489
	c0.604-0.864,0.604-0.864-0.352-0.917C89.761,61.922,89.869,62.206,89.978,62.489z M83.19,62.747
	c0.542-0.276,0.586-0.586,0.325-0.871c-0.111-0.119-0.4-0.074-0.888-0.144C82.898,62.221,83.043,62.482,83.19,62.747z
	 M113.328,59.345c0.56-0.518,0.772-0.819,0.245-1.143c-0.103-0.062-0.292,0.017-0.583,0.044
	C113.098,58.602,113.18,58.867,113.328,59.345z M122.534,58.622c-0.332,0.604-0.191,0.891,0.411,1.019
	C123.152,59.191,123.23,58.838,122.534,58.622z M95.439,61.086c-0.05-0.292-0.099-0.583-0.171-1.018
	C94.586,60.578,94.586,60.877,95.439,61.086z"/>
<path fill-rule="evenodd" clip-rule="evenodd" fill="#f5c4bc" class="fill" d="M124.058,81.497c1.541-0.085,2.977-0.164,4.528-0.249
	c0.404,0.88,0.298,1.927,0.306,2.93c0.033,4.027-0.085,8.057,0.028,12.081c0.109,3.855,0.459,7.704,0.658,11.558
	c0.146,2.816,0.179,5.638,0.333,8.452c0.222,4.069,0.024,8.126-0.158,12.188c-0.092,2.05-0.863,3.91-1.812,5.641
	c-0.552,1.008-1.579,1.8-2.511,2.539c-0.697,0.552-1.572,0.888-2.392,1.265c-0.278,0.127-0.633,0.085-1.092,0.136
	c0.146-0.376,0.194-0.663,0.348-0.871c1.377-1.843,1.94-4.016,2.422-6.191c0.275-1.241,0.282-2.543,0.381-3.82
	c0.082-1.075,0.172-2.153,0.17-3.23c-0.002-2.075-0.077-4.149-0.099-6.223c-0.011-0.992,0.041-1.984,0.045-2.975
	c0.016-3.522,0.033-7.045,0.028-10.567c-0.001-1.114-0.079-2.229-0.105-3.344c-0.05-1.989-0.065-3.979-0.138-5.967
	c-0.079-2.113-0.176-4.227-0.326-6.335C124.509,86.208,124.272,83.911,124.058,81.497z"/>
<path fill-rule="evenodd" clip-rule="evenodd" fill="#f5c4bc" class="fill" d="M73.994,108.187c-0.215-0.31-0.397-0.573-0.502-0.725
	c0-0.96-0.036-1.792,0.015-2.62c0.024-0.396,0.093-0.911,0.35-1.15c2.048-1.914,4.231-3.612,7.3-3.844
	c0,0.201-0.005,0.344,0.002,0.486c0.007,0.119,0.029,0.237,0.06,0.465c0.523,0.028,1.042,0.055,1.569,0.083
	c0.155-0.328,0.275-0.581,0.421-0.887c1.343,0.036,2.443,0.646,3.681,1.458c-1.447,0.586-2.992,0.185-4.298,1.035
	c0.091,0.419,0.176,0.809,0.271,1.246c-0.104,0.203-0.231,0.456-0.388,0.764c0.262,0.22,0.504,0.425,0.824,0.694
	c-0.395,0.264-0.746,0.497-1.204,0.801c1.026,0.709,1.708,0.037,2.482-0.335c0.391,0.142,0.815,0.297,1.269,0.462
	c-0.12,0.293-0.224,0.548-0.343,0.84c0.331,0.153,0.622,0.289,0.934,0.433c-0.493,1.721-0.985,3.44-1.52,5.303
	c2.077-0.075,3.839-0.94,5.715-1.689c0.247,1.272,0.481,2.473,0.723,3.722c-1.222,1.349-1.984,1.797-4.107,2.365
	c-0.206-0.23-0.438-0.488-0.74-0.824c-1.312,0.712-2.339,2.226-4.108,1.435c0.04-0.275,0.09-0.619,0.178-1.227
	c-0.691,0.275-1.129,0.45-1.568,0.626c-0.046,0.349-0.081,0.616-0.122,0.93c-1.036,0-2.023,0-3.061,0
	c0.229-0.333,0.431-0.626,0.662-0.962c-0.814-0.568-1.355,0.112-1.96,0.105c-0.184,0.275-0.34,0.507-0.524,0.784
	c-0.664-0.125-1.31-0.247-2.307-0.436c0.572-0.282,0.909-0.447,1.244-0.613c-0.081-0.154-0.162-0.307-0.242-0.46
	c-0.453-0.051-0.905-0.101-1.402-0.156c0-1.453,0-2.911,0-4.422c0.671-0.203,1.311-0.396,2.015-0.607
	c-0.616-0.659-0.616-0.659-1.874-0.573C73.353,109.802,73.142,108.906,73.994,108.187z M89.721,113.456
	c-1.163-0.28-1.794,0.315-1.941,1.731c0.267,0.012,0.531,0.025,0.797,0.038C88.972,114.614,89.335,114.054,89.721,113.456z
	 M79.815,101.795c-0.772-0.59-1.689-0.292-2.364,0.765C78.33,102.909,78.715,102.785,79.815,101.795z M77.984,106.349
	c0.937,0.183,1.864-0.314,2.122-1.136C78.918,104.946,78.409,105.219,77.984,106.349z M82.777,109.868
	c0.971,0.18,1.696-0.285,1.85-1.186C83.536,108.554,83.199,108.771,82.777,109.868z M80.371,103.941
	c1.351,0.158,1.831-0.077,1.987-0.916C81.247,102.833,80.888,102.985,80.371,103.941z M81.524,112.325
	c1.103,0.526,1.695,0.264,1.89-0.805C82.66,111.413,82.069,111.637,81.524,112.325z M74.497,105.271
	c0.975,0.634,1.595,0.519,2.074-0.309C75.826,104.411,75.217,104.732,74.497,105.271z M74.441,114.792
	c0.891,0.403,1.496,0.12,2.118-0.312C75.851,113.786,75.457,113.837,74.441,114.792z M80.623,114.276
	c-1.062-0.216-1.381-0.055-1.651,0.838C80.145,115.265,80.452,115.108,80.623,114.276z M75.256,108.598
	c0.934,0.449,1.203,0.381,1.85-0.399C76.333,107.673,76.226,107.692,75.256,108.598z M83.583,115.107
	c1.258,0.268,1.557,0.09,1.74-0.94C84.517,113.965,84.078,114.412,83.583,115.107z M76.643,111.923
	c1.128,0.489,1.562,0.338,2.013-0.625C77.863,111.011,77.282,111.306,76.643,111.923z M80.865,108.728
	c-0.766-0.658-1.017-0.632-1.708,0.173C80.02,109.458,80.089,109.45,80.865,108.728z"/>
<path fill-rule="evenodd" clip-rule="evenodd" fill="#f5c4bc" class="fill" d="M74.534,74.933c0.382,0.194,0.65,0.33,1.022,0.519
	c0.065-0.485,0.113-0.837,0.169-1.25c0.343-0.299,0.714-0.624,1.209-1.056c1.517,0,3.136,0.079,4.744-0.014
	c4.967-0.287,9.928-0.682,14.896-0.952c3.187-0.174,6.381-0.219,9.573-0.291c1.611-0.036,3.224-0.006,4.843-0.006
	c0.176,0.351,0.357,0.712,0.538,1.074c0.098-0.013,0.195-0.027,0.294-0.041c0.072-0.323,0.146-0.647,0.229-1.024
	c0.658,0,1.352,0,2.092,0c0.031,0.341,0.059,0.655,0.088,0.981c-0.119,0.073-0.216,0.176-0.325,0.19
	c-0.534,0.07-1.072,0.11-1.607,0.173c-1.726,0.203-3.296,0.854-4.699,1.839c-2.454,1.723-5.068,1.864-7.824,0.979
	c-0.945-0.304-1.871-0.673-2.82-0.966c-2.688-0.831-5.243-0.498-7.654,0.943c-0.32,0.192-0.636,0.393-0.937,0.613
	c-1.195,0.87-2.419,1.015-3.716,0.174c-0.005-0.435,0.532-1.076-0.485-1.227c-0.104,0.236-0.211,0.481-0.333,0.758
	c-0.102-0.01-0.225,0.005-0.325-0.035c-0.997-0.396-1.964-0.897-2.991-1.181c-1.631-0.45-3.203-0.006-4.73,0.594
	c-0.801,0.315-1.6,0.647-2.806,0.536C73.608,75.728,74.052,75.346,74.534,74.933z M96.979,72.964
	c-0.659,0.549-0.659,0.55,0.052,1.042C97.433,73.63,97.512,73.291,96.979,72.964z M101.953,76.101
	c0.519-0.518,0.524-0.881-0.104-1.179C101.488,75.489,101.488,75.489,101.953,76.101z M104.926,74.111
	c-0.4,0.588-0.424,0.96,0.271,1.248C105.548,74.895,105.576,74.542,104.926,74.111z M103.518,72.632
	c-0.421,0.665-0.233,0.943,0.419,1.069C104.234,73.18,104.213,72.839,103.518,72.632z M108.13,72.638
	c-0.519,0.608-0.367,0.93,0.221,1.208C108.751,73.373,108.746,73.024,108.13,72.638z M93.245,74.225
	c0.528-0.57,0.489-0.921-0.177-1.179C92.636,73.47,92.682,73.814,93.245,74.225z M86.537,74.872
	c0.314-0.364,0.366-0.682-0.062-0.997C85.823,74.365,85.823,74.365,86.537,74.872z M100.014,73.654
	c0.04,0.686,0.04,0.686,0.554,0.947C100.876,74.056,100.831,73.728,100.014,73.654z M82.713,73.719
	c-0.002,0.448-0.125,0.874,0.641,0.918c0.041-0.3,0.079-0.581,0.126-0.918C83.16,73.719,82.973,73.719,82.713,73.719z
	 M87.117,76.549c0.108-0.002,0.216-0.004,0.323-0.006c0.047-0.332,0.095-0.664,0.141-0.996c-0.082-0.033-0.164-0.066-0.248-0.1
	c-0.194,0.152-0.388,0.303-0.623,0.486C86.873,76.178,86.995,76.363,87.117,76.549z M90.442,74.156
	c-0.398,0.027-0.664,0.045-1.135,0.077c0.319,0.409,0.499,0.639,0.773,0.99C90.218,74.814,90.303,74.566,90.442,74.156z
	 M79.486,74.624c0.114-0.034,0.229-0.068,0.344-0.103c0.094-0.32,0.403-0.692-0.299-0.827c-0.062-0.012-0.14,0.066-0.328,0.162
	C79.294,74.103,79.39,74.363,79.486,74.624z"/>
<path fill-rule="evenodd" clip-rule="evenodd" fill="#f5c4bc" class="fill" d="M129.324,65.714c0.076,0.732-0.305,0.942-0.79,1
	c-1.275,0.156-2.552,0.375-3.833,0.403c-3.445,0.076-6.894,0.022-10.339,0.105c-3.314,0.079-6.627,0.332-9.943,0.388
	c-5.023,0.083-10.049,0.009-15.072,0.105c-2.859,0.056-5.714,0.301-8.569,0.498c-0.613,0.042-1.216,0.243-1.941,0.394
	c-0.231-0.131-0.541-0.307-0.962-0.546c0.27-0.352,0.48-0.626,0.668-0.872c3.482-0.263,6.869-0.571,10.263-0.763
	c4.311-0.244,8.625-0.453,12.941-0.564c2.985-0.078,5.981-0.081,8.96,0.091c3.783,0.22,7.546,0.129,11.319-0.127
	c2.153-0.146,4.316-0.141,6.475-0.195C128.746,65.626,128.989,65.679,129.324,65.714z"/>
<path fill-rule="evenodd" clip-rule="evenodd" fill="#f5c4bc" class="fill" d="M76.719,70.614c0.431-0.636,0.945-0.87,1.61-0.962
	c5.939-0.824,11.917-0.766,17.893-0.862c7.015-0.112,14.028-0.374,21.042-0.541c3.03-0.074,6.062-0.047,9.092-0.123
	c1.062-0.027,2.12-0.227,3.274-0.136c-0.196,0.15-0.372,0.347-0.592,0.441c-1.478,0.633-3.049,0.736-4.631,0.766
	c-3.9,0.075-7.8,0.153-11.7,0.238c-3.113,0.067-6.227,0.109-9.337,0.234c-2.154,0.086-4.303,0.293-6.455,0.443
	c-0.415,0.029-0.83,0.045-1.245,0.064c-3.233,0.154-6.472,0.242-9.699,0.48c-2.521,0.186-5.029,0.543-7.54,0.854
	C77.653,71.608,77.031,71.518,76.719,70.614z"/>
<path fill-rule="evenodd" clip-rule="evenodd" fill="#f5c4bc" class="fill" d="M92.701,103.639c3.746-1.438,7.562-1.283,11.397-1.905
	c0.088,0.582,0.165,1.082,0.236,1.561c-1.809,0.11-3.496,0.141-5.165,0.336c-1.672,0.197-3.255,0.759-4.815,1.535
	c0.748,2.258,2.315,3.843,3.472,5.727c-1.271-0.45-2.329-1.236-3.312-2.049c-1.225-0.149-0.951,1.113-1.636,1.606
	c-0.396-1.181,0.418-2.412-0.341-3.631c-1.602,0.381-2.902,1.581-4.688,2.013c0.21-1.328,1.274-2.382,1.021-3.735
	c-1.229-0.646-2.458-1.292-3.686-1.937c0.01-0.107,0.021-0.215,0.031-0.322c0.656-0.089,1.315-0.163,1.969-0.274
	c0.644-0.108,1.281-0.257,1.88-0.378c0.465-1.19-0.938-1.855-0.596-2.812C89.828,100.744,91.214,102.139,92.701,103.639z"/>
<path fill-rule="evenodd" clip-rule="evenodd" fill="#f5c4bc" class="fill" d="M115.168,73.097c-0.05-0.477-0.084-0.797-0.126-1.206
	c1.112,0,2.176,0,3.328,0c0.192,0.37-0.203,1.219,0.86,1.177c-0.019-0.371-0.037-0.737-0.06-1.199
	c2.255-0.213,4.513-0.427,6.797-0.644c0.265,0.21,0.52,0.411,0.773,0.612c0.075,0.069,0.149,0.138,0.224,0.208
	c0.167-0.267,0.336-0.533,0.529-0.84c0.649-0.103,1.346-0.213,2.117-0.335c0.527,0.254,1.115,0.746,1.698-0.013
	c0.446,0.375,0.79,0.664,1.159,0.973c-0.164,0.336-0.304,0.621-0.465,0.951c0.166,0.192,0.317,0.368,0.675,0.783
	c0.195-0.347,0.351-0.622,0.547-0.972c0.347,0.394,0.639,0.725,1.11,1.26c-0.5,0-0.76,0.026-1.013-0.004
	c-0.658-0.079-1.331-0.119-1.969-0.287c-2.665-0.701-5.214-0.205-7.627,0.892c-1.594,0.725-2.978,0.749-4.449-0.202
	C118.077,73.476,116.732,73.047,115.168,73.097z M124.429,73.443c0.364-1.084,0.339-1.109-0.595-0.741
	C124.052,72.973,124.24,73.208,124.429,73.443z M121.276,71.697c-0.5,0.577-0.555,0.93,0.122,1.242
	C121.956,72.561,121.773,72.22,121.276,71.697z M120.948,73.789c0.062,0.542,0.146,0.909,0.805,0.801
	c0.05-0.224,0.1-0.444,0.157-0.698c-0.206-0.093-0.345-0.184-0.497-0.212C121.308,73.66,121.187,73.728,120.948,73.789z
	 M129.635,71.513c-0.755,0.982-0.745,1.014,0.266,1.278C129.819,72.401,129.753,72.08,129.635,71.513z"/>
</svg>
