<svg version="1.1" id="svg" xmlns="http://www.w3.org/2000/svg" xmlns:xlink="http://www.w3.org/1999/xlink" x="0px" y="0px"
	 width="200px" height="200px" viewBox="0 0 200 200" enable-background="new 0 0 200 200" xml:space="preserve">
<path class="stroke" fill="#1f4a69"  fill-rule="evenodd" clip-rule="evenodd" d="M104.857,16.122c2.762,1.942,5.509,3.905,8.288,5.82
	c1.886,1.298,3.814,2.532,5.727,3.792c1.263,0.833,2.553,1.629,3.792,2.496c3,2.096,5.996,4.199,8.961,6.345
	c4.015,2.906,7.981,5.88,12.003,8.776c2.221,1.599,4.559,3.037,6.764,4.655c3.464,2.541,6.847,5.191,10.291,7.759
	c2.843,2.12,5.75,4.156,8.581,6.291c2.078,1.567,4.066,3.253,6.123,4.849c1.046,0.812,2.155,1.543,3.574,2.551
	c0.106,29.053-0.208,58.474-0.339,88.184c-2.504,1.654-5.038,3.332-7.577,5c-1.858,1.221-3.703,2.461-5.592,3.632
	c-2.037,1.264-4.107,2.473-6.182,3.672c-2.252,1.3-4.522,2.567-6.791,3.837c-2.028,1.134-4.1,2.191-6.086,3.393
	c-2.163,1.308-4.273,2.708-6.364,4.128c-1.901,1.291-4.025,1.3-6.181,1.256c-1.121-0.022-2.243-0.021-3.365-0.02
	c-0.352,0-0.716,0.108-1.053,0.048c-3.085-0.552-6.164-0.049-9.247,0.005c-3.071,0.053-6.144,0.037-9.216,0.01
	c-3.311-0.027-6.624-0.199-9.933-0.131c-3.654,0.075-7.303,0.483-10.956,0.51c-6,0.043-12.001-0.079-18.001-0.197
	c-0.967-0.02-1.988-0.236-2.881-0.608c-3.118-1.3-6.235-2.618-9.271-4.097c-4.388-2.137-8.703-4.427-13.058-6.636
	c-1.598-0.81-3.231-1.552-4.824-2.371c-2.337-1.201-4.65-2.45-6.979-3.669c-2.74-1.438-5.487-2.863-8.229-4.301
	c-0.306-0.162-0.59-0.363-1.008-0.624c-0.196-2.918-0.395-5.861-0.607-9.026c-0.723-0.521-2.259-0.336-3.061-1.767
	c1.018-0.803,2.005-1.582,3.186-2.513c-2.796-1.433-2.85-4.079-3.773-6.292c0.096-0.128,0.191-0.257,0.287-0.385
	c1.215,0.136,2.43,0.274,3.956,0.446c0-5.15,0-10.308,0-15.684c-2.125-1.75-3.481-4.233-3.556-7.693
	c1.402,0.163,2.659,0.307,3.944,0.456c0.171-2.926,0.338-5.787,0.504-8.646c-0.029-0.001-0.059-0.002-0.089-0.003
	c0.104-5.767,0.277-11.532,0.292-17.298c0.015-5.762-0.367-11.532,0.379-17.264c0-0.636-0.022-1.271,0.004-1.905
	c0.082-1.938,0.226-3.874,0.264-5.812c0.042-2.186,0.739-3.864,2.721-5.112c3.438-2.166,6.72-4.577,10.093-6.845
	c1.348-0.906,2.239-1.995,2.667-3.645c0.253-0.974,1.213-1.774,1.89-2.625c0.345-0.434,0.767-0.807,1.3-1.36
	c0.524,0.671,0.918,1.176,1.411,1.807c2.03-1.272,4.157-2.596,6.274-3.936c1.658-1.049,3.315-2.101,4.949-3.188
	c0.874-0.581,1.659-1.301,2.552-1.848c1.766-1.084,3.601-2.056,5.364-3.144c1.408-0.868,2.725-1.884,4.133-2.752
	c1.829-1.126,3.707-2.171,5.563-3.251c0.759-0.442,1.516-0.888,2.275-1.331c3.729-2.181,7.44-4.392,11.191-6.534
	c3.242-1.852,6.499-3.682,9.81-5.407c1.158-0.604,2.494-0.867,3.751-1.277c0.366-0.119,0.742-0.207,1.113-0.31
	C104.696,16.26,104.777,16.19,104.857,16.122z M99.272,110.068c2.869,1.953,5.451,3.71,8.178,5.567
	c1.638-1.769,3.227-3.485,4.94-5.335c-2.818-1.988-5.427-3.829-7.968-5.621C102.599,106.588,101.01,108.251,99.272,110.068z
	 M87.951,102.134c2.466,1.751,4.854,3.447,7.313,5.193c1.781-1.885,3.449-3.651,5.082-5.38c-2.565-1.934-4.91-3.702-7.297-5.502
	C91.337,98.355,89.71,100.171,87.951,102.134z M96.665,127.124c-2.73-1.693-5.282-3.273-7.912-4.903
	c-1.663,1.938-3.248,3.786-4.909,5.722c2.019,1.243,3.762,2.544,5.699,3.413c0.939,0.421,2.557,0.469,3.311-0.08
	C94.292,130.23,95.33,128.637,96.665,127.124z M103.946,119.194c-2.646-1.717-5.2-3.374-7.855-5.097
	c-1.58,1.669-3.136,3.313-4.863,5.137c2.769,1.722,5.37,3.34,8.066,5.016C100.814,122.598,102.324,120.957,103.946,119.194z
	 M108.007,100.835c2.677,1.958,5.156,3.771,7.872,5.756c1.444-1.625,2.865-3.225,4.309-4.848c-2.635-2.025-5.078-3.903-7.508-5.77
	C111.101,97.616,109.612,99.165,108.007,100.835z M91.518,111.109c-2.732-1.653-4.973-3.682-7.766-4.984
	c-1.493,1.75-2.855,3.346-4.402,5.16c2.539,1.636,4.987,3.212,7.456,4.804C88.4,114.404,89.883,112.836,91.518,111.109z
	 M115.197,127.003c-2.545-1.775-4.837-3.374-7.197-5.021c-1.584,1.598-3.126,3.152-4.733,4.773c2.702,1.853,5.174,3.548,7.867,5.394
	C112.537,130.373,113.823,128.743,115.197,127.003z M116.162,113.117c-1.585,1.695-3.141,3.358-4.792,5.124
	c2.492,1.709,4.79,3.284,7.117,4.879c1.528-1.696,2.953-3.276,4.537-5.034C120.737,116.431,118.591,114.875,116.162,113.117z
	 M126.408,114.327c1.359-1.553,2.636-3.013,3.961-4.527c-2.162-1.692-4.124-3.228-6.245-4.889c-1.478,1.513-2.876,2.946-4.277,4.38
	C122.129,111.042,124.19,112.625,126.408,114.327z M78.889,124.632c1.732-1.818,3.343-3.507,5.097-5.348
	c-2.575-1.738-5.008-3.38-7.7-5.197c-0.773,2.973-0.162,5.781-0.341,8.56C76.919,123.304,77.847,123.93,78.889,124.632z
	 M83.557,99.522c1.524-1.663,3.003-3.276,4.482-4.889c-0.027-0.113-0.053-0.226-0.08-0.339c-3.909-0.18-7.818-0.36-11.728-0.541
	c-0.031,0.116-0.062,0.232-0.094,0.349C78.561,95.872,80.982,97.642,83.557,99.522z M130.855,123.356
	c-1.56-1.01-2.924-1.893-4.452-2.881c-1.396,1.694-2.657,3.227-4.096,4.974c1.377,0.988,2.642,1.896,4.071,2.922
	C127.849,126.724,129.287,125.113,130.855,123.356z M131.977,105.715c0-3.279,0-6.313,0-9.348c-0.105-0.042-0.21-0.084-0.316-0.126
	c-1.586,1.799-3.173,3.597-4.913,5.57C128.5,103.119,130.147,104.349,131.977,105.715z M79.765,103.315
	c-1.256-0.85-2.382-1.61-3.583-2.422c0,2.183,0,4.101,0,6.328C77.512,105.771,78.573,104.614,79.765,103.315z M129.382,130.466
	c1.27,0.725,2.306,1.316,3.538,2.02c0-1.938,0-3.523,0-5.108c-0.097-0.057-0.194-0.114-0.29-0.171
	C131.619,128.221,130.608,129.235,129.382,130.466z M118.944,129.301c-0.789,0.91-1.499,1.729-2.324,2.68c2.265,0,4.249,0,6.55,0
	C121.601,130.985,120.311,130.167,118.944,129.301z M100.485,95.026c1.279,1.041,2.417,1.967,3.636,2.958
	c0.791-0.98,1.476-1.831,2.386-2.958C104.402,95.026,102.632,95.026,100.485,95.026z M120.43,95.613
	c-0.018,0.086-0.036,0.174-0.054,0.26c0.905,0.89,1.809,1.779,2.831,2.783c0.706-0.845,1.396-1.67,2.25-2.692
	C123.574,95.833,122.002,95.723,120.43,95.613z M132.415,114.199c-0.131-0.057-0.262-0.113-0.393-0.17
	c-0.734,0.882-1.468,1.763-2.294,2.755c0.981,0.565,1.784,1.028,2.687,1.548C132.415,116.824,132.415,115.511,132.415,114.199z
	 M100.852,129.953c-0.798,0.67-1.427,1.198-2.263,1.898c1.928,0,3.575,0,5.224,0c0.017-0.06,0.032-0.12,0.049-0.18
	C102.805,131.068,101.749,130.465,100.852,129.953z"/>
<path fill-rule="evenodd" clip-rule="evenodd" fill="#b3d753" class="fill" d="M115.313,49.097c-3.509-9.689-6.911-19.077-10.4-28.709
	c0.446,0.144,0.615,0.158,0.733,0.244c3.21,2.305,6.371,4.681,9.635,6.905c2.117,1.443,4.416,2.619,6.577,4.002
	c2.26,1.444,4.464,2.976,6.671,4.501c3.759,2.599,7.53,5.182,11.244,7.845c4.526,3.245,9.038,6.512,13.476,9.876
	c2.752,2.087,5.318,4.422,8.037,6.556c2.936,2.305,5.95,4.51,8.934,6.754c1.204,0.906,2.416,1.801,3.809,2.838
	c-1.733,0.849-3.255,1.638-4.813,2.349c-4.976,2.272-9.979,4.485-14.944,6.782c-2.414,1.117-4.734,2.437-7.156,3.537
	c-1.462,0.664-3.065,1.014-4.555,1.625c-2.542,1.042-5.024,2.227-7.573,3.248c-0.905,0.364-1.932,0.425-2.889,0.621
	c-3.167-6.779-6.24-13.355-9.382-20.079c1.538-0.245,2.813-0.414,4.073-0.658c1.181-0.228,2.539-0.152,3.394-1.748
	c-1.366-0.565-2.588-1.07-3.81-1.577c-0.013-0.089-0.025-0.179-0.038-0.269c3.015-0.588,6.118-0.996,8.146-3.903
	c-1.382-1.397-3.28-1.609-5.141-2.292c1.979-2.125,3.298-4.522,4.443-7.17c-5.07-1.742-9.659-0.804-14.392,0.723
	c-0.091-0.727-0.123-1.477-0.295-2.193c-0.103-0.426-0.339-0.971-0.676-1.14c-0.268-0.134-0.793,0.198-1.181,0.372
	C116.656,48.4,116.09,48.707,115.313,49.097z"/>
<path fill-rule="evenodd" clip-rule="evenodd" fill="#b3d753" class="fill" d="M82.998,54.656c1.978,0.642,3.386,1.854,4.51,3.289
	c1.909,2.439,4.206,4.461,6.627,6.314c1.246,0.955,2.859,1.432,4.314,2.106c0.412,0.191,0.855,0.314,1.339,0.489
	c0.159,0.616,0.316,1.222,0.522,2.017c-0.57,0.394-1.145,0.831-1.755,1.209c-3.342,2.07-4.749,3.557-4.635,7.74
	c0.004,0.169,0.074,0.336,0.151,0.666c1.149-0.083,2.286-0.166,3.448-0.25c0.585,1.64,0.905,3.402,1.799,4.794
	c0.897,1.395,2.368,2.42,3.529,3.551c0.646-0.186,1.038-0.298,1.469-0.422c0.296-1.093,0.579-2.136,0.88-3.247
	c2.389,1.974,5.203,2.993,8.091,4.031c0.241-0.452,0.4-0.751,0.576-1.082c-0.409-1.315-0.813-2.608-1.229-3.944
	c2.013-0.551,3.894-1.066,5.817-1.591c0.017-0.34,0.031-0.647,0.054-1.123c-1.822-1.236-3.674-2.495-5.676-3.854
	c1.562-0.812,3.013-1.568,4.839-2.519c-0.954-0.875-1.529-1.695-2.318-2.076c-2.994-1.45-6.194-2.271-9.503-2.604
	c-0.965-0.096-1.949-0.015-3.019-0.015c-0.1-0.251-0.208-0.525-0.315-0.791c0.162-0.11,0.241-0.198,0.336-0.223
	c2.333-0.612,4.66-1.257,7.011-1.799c0.683-0.157,1.466-0.155,2.147,0.006c2.215,0.523,4.405,1.154,6.173,1.627
	c3.173,7.019,6.183,13.678,9.226,20.408c-1.006,0-1.964-0.017-2.921,0.003c-3.163,0.065-6.326,0.172-9.489,0.206
	c-2.308,0.024-4.616-0.072-6.923-0.059c-2.039,0.011-4.077,0.152-6.115,0.141c-2.871-0.017-5.74-0.142-8.61-0.183
	c-2.304-0.033-4.612,0.036-6.915-0.031c-1.295-0.038-2.582-0.292-3.877-0.39c-2.035-0.155-4.079-0.204-6.109-0.409
	c-1.385-0.14-2.752-0.468-4.187-0.722c0.707-1.23,2.618-0.889,2.956-2.629c-1.111-0.791-2.246-1.598-3.527-2.509
	c0.805-1.688,1.624-3.406,2.566-5.382c0.623,0.747,1.112,1.269,1.528,1.846c0.825,1.142,2.025,1.631,3.322,1.858
	c1.729,0.301,3.475,0.521,5.221,0.696c1.168,0.117,1.367-0.046,1.841-0.895c-1.377-2.376-2.738-4.719-4.181-7.208
	c2.729-0.15,5.47,0.105,7.951-1.534c-1.91-2.626-5.445-2.919-7.17-5.526c1.286-1.413,2.543-2.794,3.799-4.174
	c-0.018-0.159-0.036-0.318-0.055-0.477c-0.858-0.376-1.698-0.811-2.582-1.114c-0.893-0.306-1.831-0.482-2.923-0.759
	C81.695,56.919,82.329,55.817,82.998,54.656z"/>
<path fill-rule="evenodd" clip-rule="evenodd" fill="#b3d753" class="fill" d="M112.55,51.764c-3.207,3.237-4.475,7.314-4.518,11.935
	c-1.829,1.673-9.292,0.939-11.708-1.343c0.172-0.673,0.367-1.438,0.506-1.985c2.214-0.816,4.255-1.459,6.201-2.317
	c1.604-0.708,3.166-1.558,4.103-3.204c0.5-0.879,0.366-1.482-0.592-1.755c-0.807-0.23-1.623-0.426-2.627-0.686
	c1.557-1.933,3.565-3.458,4.486-5.647c-2.141-1.84-4.638-1.459-7.013-2.219c1.264-2.16,2.511-4.288,3.951-6.748
	c-0.303-0.306-0.629-0.631-0.807-0.811c-2.14,0.449-3.922,0.617-5.542,1.222c-1.616,0.603-3.068,1.643-4.564,2.476
	c-0.727-0.916-1.449-1.828-2.252-2.841c3.076-5.268,5.576-11.134,9.539-16.439C105.356,31.61,108.93,41.625,112.55,51.764z"/>
<path fill-rule="evenodd" clip-rule="evenodd" fill="#b3d753" class="fill" d="M137.802,177.861c-0.684,0.252-1.392,0.513-2.205,0.813
	c-0.125-0.399-0.281-0.686-0.297-0.98c-0.159-2.779-0.362-5.558-0.417-8.339c-0.079-3.975,0.006-7.954-0.069-11.929
	c-0.087-4.515-0.337-9.027-0.399-13.541c-0.041-2.948,0.151-5.897,0.196-8.847c0.041-2.678,0.095-5.359,0.014-8.034
	c-0.123-4.022-0.391-8.039-0.537-12.06c-0.131-3.626-0.205-7.255-0.26-10.884c-0.041-2.688-0.008-5.378-0.008-8.274
	c0.662-0.249,1.527-0.575,2.401-0.904C136.909,97.087,138.189,174.005,137.802,177.861z"/>
<path fill-rule="evenodd" clip-rule="evenodd" fill="#b3d753" class="fill" d="M96.892,23.029c-0.218,0.295-0.453,0.582-0.652,0.889
	c-2.122,3.281-4.346,6.502-6.322,9.869c-1.632,2.779-2.938,5.749-4.45,8.602c-1.463,2.76-3.03,5.465-4.499,8.223
	c-0.458,0.86-1.106,1.066-2.018,1.225c-3.072,0.537-6.231,0.719-9.136,2.025c-0.124,0.055-0.277,0.046-0.626,0.098
	c0-0.791,0-1.536,0-2.101c3.311-1.154,6.464-2.253,9.612-3.35c-0.063-1.784-1.656-1.829-2.463-2.817
	c0.271-0.225,0.521-0.493,0.823-0.674c1.205-0.724,2.467-1.361,3.62-2.158c0.435-0.301,0.847-0.941,0.857-1.437
	c0.007-0.305-0.725-0.729-1.196-0.916c-0.708-0.281-1.479-0.401-2.424-0.641c0.861-0.913,1.66-1.762,2.537-2.692
	c-1.13-1.542-2.819-1.398-4.639-1.899C83.1,31.21,89.621,26.55,96.662,22.75C96.738,22.843,96.816,22.936,96.892,23.029z"/>
<path fill-rule="evenodd" clip-rule="evenodd" fill="#b3d753" class="fill" d="M59.489,76.286c-0.805,1.041-1.472,1.902-2.163,2.795
	c-1.319-0.844-2.676-1.711-4.299-2.749c0.695-1.639,1.274-3.369,2.137-4.943c1.113-2.028,2.3-4.056,3.74-5.855
	c1.571-1.964,3.503-3.635,5.214-5.492c1.379-1.496,3.029-2.468,4.936-3.048c0.52,0.886,0.992,1.691,1.529,2.607
	c-2.815,1.586-4.731,3.902-5.818,6.948c1.21,1.167,2.325-0.795,3.573,0.083c-0.03,0.339-0.105,0.778-0.101,1.216
	c0.012,1.081-0.009,2.168,0.117,3.238c0.088,0.742,0.687,0.919,1.372,0.737c0.56-0.149,1.114-0.313,1.938-0.547
	c-0.468,1.315-0.838,2.349-1.196,3.354c-3.547,0.091-6.176,1.684-8.245,4.65C61.331,78.302,60.509,77.401,59.489,76.286z"/>
<path fill-rule="evenodd" clip-rule="evenodd" fill="#b3d753" class="fill" d="M173.326,156.886c0-25.809,0-51.618,0-77.73
	c0.633-0.292,1.532-0.706,2.601-1.199c0,0.836,0.011,1.485-0.001,2.134c-0.072,3.875-0.232,7.75-0.2,11.624
	c0.026,3.139,0.42,6.275,0.404,9.411c-0.026,5.115-0.295,10.23-0.381,15.346c-0.049,2.893,0.112,5.791,0.092,8.685
	c-0.033,4.627-0.152,9.252-0.209,13.879c-0.038,3.032-0.024,6.065-0.051,9.097c-0.019,2.14,0.108,4.303-0.18,6.408
	c-0.124,0.91-1.128,1.7-1.732,2.545C173.555,157.019,173.44,156.952,173.326,156.886z"/>
<path fill-rule="evenodd" clip-rule="evenodd" fill="#b3d753" class="fill" d="M116.295,51.205c0.977,0.795,0.382,2.596,2.188,2.98
	c3.417-2.693,7.4-2.713,11.758-1.624c-0.37,0.511-0.628,1.041-1.038,1.398c-0.981,0.859-2.046,1.622-3.048,2.458
	c-0.288,0.24-0.476,0.598-0.813,1.034c1.774,1.024,3.356,1.938,5.017,2.896c-0.043,0.528-0.89,1.155-1.946,1.155
	c-2.1,0-4.198-0.057-6.296-0.054c-0.338,0-0.676,0.185-0.969,0.271c0.058,1.827,1.386,2.584,2.548,3.631
	c-4.942,0.888-8.742-1.933-12.942-3.423C109.753,59.338,112.957,53.586,116.295,51.205z"/>
<path fill-rule="evenodd" clip-rule="evenodd" fill="#b3d753" class="fill" d="M171.438,81.688c0.12,1.691,0.221,3.128,0.292,4.123
	c-1.952,2.808-3.715,5.266-5.396,7.778c-3.158,4.714-6.285,9.45-9.394,14.197c-1.604,2.448-3.118,4.954-4.714,7.407
	c-3.052,4.694-6.128,9.375-9.21,14.051c-0.909,1.38-1.858,2.733-2.811,4.083c-0.258,0.368-0.594,0.683-1.032,0.978
	c0.153-2.111-0.507-4.226,0.936-6.236c3.612-5.036,7.188-10.094,10.284-15.49c2.314-4.032,5.016-7.843,7.582-11.729
	c2.308-3.496,4.639-6.977,7.009-10.43c1.892-2.756,3.857-5.462,5.797-8.185C170.893,82.077,171.086,81.976,171.438,81.688z"/>
<path fill-rule="evenodd" clip-rule="evenodd" fill="#b3d753" class="fill" d="M131.441,91.299c0.139,0.958,0.269,1.847,0.43,2.952
	c-0.456,0.082-0.872,0.227-1.284,0.217c-2.286-0.051-4.572-0.137-6.858-0.215c-4.092-0.142-8.186-0.251-12.274-0.437
	c-4.819-0.218-9.634-0.543-14.454-0.746c-4.221-0.177-8.449-0.194-12.669-0.385c-3.196-0.144-6.386-0.44-9.576-0.688
	c-1.889-0.148-3.776-0.333-5.972-0.529c0.376-0.823,0.687-1.5,1.069-2.336c1.688,0.209,3.28,0.481,4.883,0.588
	c3.195,0.21,6.396,0.341,9.595,0.484c2.99,0.133,5.98,0.298,8.972,0.342c2.219,0.032,4.442-0.196,6.66-0.156
	c5.64,0.101,11.278,0.285,16.916,0.44c4.589,0.126,9.177,0.261,13.765,0.394C130.854,91.23,131.061,91.264,131.441,91.299z"/>
<path fill-rule="evenodd" clip-rule="evenodd" fill="#b3d753" class="fill" d="M171.857,106.688c-3.36,3.585-5.543,7.797-8.106,11.744
	c-2.644,4.072-5.266,8.157-7.854,12.264c-0.875,1.389-1.579,2.886-2.428,4.293c-1.466,2.433-2.982,4.834-4.482,7.247
	c-1.67,2.689-3.326,5.389-5.024,8.06c-1.437,2.261-2.926,4.489-4.626,6.648c0-1.673,0-3.345,0-4.836
	c0.794-1.312,1.459-2.5,2.209-3.631c2.377-3.583,4.78-7.149,7.196-10.707c0.244-0.358,0.656-0.601,0.981-0.909
	c0.201-0.191,0.526-0.386,0.553-0.608c0.264-2.294,1.95-3.84,2.971-5.731c1.055-1.951,2.136-3.89,3.257-5.803
	c0.922-1.578,1.896-3.128,2.89-4.663c1.331-2.054,2.694-4.086,4.062-6.115c1.123-1.666,2.289-3.306,3.411-4.973
	c1.414-2.101,2.803-4.218,4.206-6.325c0.091-0.138,0.214-0.254,0.538-0.635C171.707,103.794,171.785,105.299,171.857,106.688z"/>
<path fill-rule="evenodd" clip-rule="evenodd" fill="#b3d753" class="fill" d="M36.772,88.655c0.812-0.467,1.522-0.875,2.129-1.224
	c-0.636-1.466-1.652-1.168-2.375-1.103c-1.82,0.163-2.951-0.82-4.152-2c1.3-0.863,3.215-0.479,3.987-2.301
	c-2.924-2.354-5.44-4.88-4.779-8.98c0.138-0.854,0.58-1.659,0.883-2.486c0.108,0.015,0.217,0.03,0.326,0.046
	c0.715,1.538,1.43,3.075,2.122,4.567c1.079,0.288,1.441-0.303,1.726-1.053c0.514-1.354,1.303-2.475,2.958-3.25
	c0,3.407,0.011,6.687,1.94,9.873c0.458-0.375,0.975-0.661,1.291-1.092c0.433-0.591,0.652-1.337,1.08-1.933
	c0.333-0.464,0.843-0.803,1.303-1.224c0.575,3.444,1.111,6.651,1.617,9.678c0.512,0.538,0.871,0.915,1.409,1.479
	c-0.892,0.159-1.575,0.411-2.241,0.373c-2.173-0.122-4.161,0.54-6.133,1.289C38.893,89.683,38.013,89.694,36.772,88.655z"/>
<path fill-rule="evenodd" clip-rule="evenodd" fill="#b3d753" class="fill" d="M102.003,39.548c-0.923,2.127-3.509,3.238-3.45,6.121
	c2.012,0.498,4.015,0.993,6.02,1.489c0.015,0.145,0.029,0.29,0.043,0.435c-1.275,0.907-2.548,1.819-3.828,2.721
	c-1.338,0.943-1.696,2.376-2.166,4.088c1.439,0.432,2.75,0.826,4.29,1.289c-2.591,1.675-5.647,1.676-8.324,3.017
	c-0.124,0.542-0.262,1.146-0.399,1.751c-0.084,0.021-0.169,0.043-0.253,0.065c-0.095-0.551-0.3-1.11-0.259-1.651
	c0.056-0.752-0.17-1.189-0.77-1.684c-1.051-0.869-2.007-1.878-2.89-2.923c-0.894-1.059-1.27-2.338-1.059-3.741
	c1.208-0.592,2.628,0.674,3.928-0.451c-0.273-0.376-0.501-0.714-0.753-1.033c-1.106-1.395-2.271-2.79-1.678-4.752
	c0.245-0.81,0.695-1.557,1.051-2.332c0.155-0.062,0.309-0.125,0.463-0.187c0.719,0.99,1.438,1.98,2.156,2.971
	c0.144-0.05,0.287-0.1,0.43-0.15C96.223,41.692,98.635,39.929,102.003,39.548z"/>
<path fill-rule="evenodd" clip-rule="evenodd" fill="#b3d753" class="fill" d="M133.332,94.073c-0.073-0.932-0.137-1.757-0.196-2.514
	c14.191-6.188,28.632-11.438,42.568-18.69c0.174,1.279,0.297,2.18,0.452,3.314c-7.117,3.153-14.175,6.191-21.156,9.396
	C148.012,88.789,140.889,91.633,133.332,94.073z"/>
<path fill-rule="evenodd" clip-rule="evenodd" fill="#b3d753" class="fill" d="M144.577,169.55c-0.994,0.493-2.347,1.165-3.699,1.836
	c-0.079-0.075-0.157-0.15-0.235-0.225c1.282-2.433,2.559-4.87,4.542-7.042c0.158-0.392,0.299-0.985,0.607-1.474
	c2.459-3.901,4.965-7.774,7.426-11.675c1.747-2.766,3.467-5.55,5.161-8.35c1.4-2.315,2.695-4.696,4.128-6.99
	c1.055-1.69,2.315-3.252,3.383-4.935c1.642-2.588,3.191-5.234,4.794-7.847c0.21-0.343,0.5-0.638,0.876-0.904
	c-0.06,1.47,0.603,2.791-0.478,4.342c-2.979,4.277-5.694,8.744-8.395,13.208c-1.987,3.283-3.721,6.719-5.687,10.016
	c-2.941,4.933-5.978,9.808-8.994,14.696C146.976,165.878,145.887,167.513,144.577,169.55z"/>
<path fill-rule="evenodd" clip-rule="evenodd" fill="#b3d753" class="fill" d="M65.583,55.472c-4.478,3.109-7.973,7.047-11.454,11.332
	c-0.397-0.762-0.77-1.474-1.281-2.454c1.324-2.185,2.682-4.424,4.116-6.792c-0.55-1.447-2.065-0.267-3.03-0.961
	c0.288-1.629,1.932-2.4,2.813-3.865c-1.72-2.074-3.916-1.073-6.072-1.245c3.538-2.438,7.076-4.877,10.804-7.445
	c0.215,0.836,0.372,1.449,0.584,2.277c-0.48,0.295-0.987,0.624-1.51,0.925c-0.526,0.302-1.067,0.577-1.883,1.015
	c0.527,0.509,0.789,0.918,1.161,1.093c1.422,0.668,2.841,1.388,4.336,1.841c1.296,0.393,1.638,1.189,1.583,2.354
	C65.722,54.177,65.644,54.806,65.583,55.472z"/>
<path fill-rule="evenodd" clip-rule="evenodd" fill="#b3d753" class="fill" d="M71.85,139.824c0-7.694-0.012-15.388,0.003-23.083
	c0.016-7.701-1.083-15.393-0.195-23.112c0.912,0,1.775,0,2.85,0c0,16.491,0,32.896,0,49.401c-0.798,0.077-1.514,0.146-2.232,0.214
	c0.161-0.816,0.317-1.62,0.473-2.41c-0.234-0.333-0.435-0.62-0.635-0.906C72.025,139.893,71.938,139.858,71.85,139.824z"/>
<path fill-rule="evenodd" clip-rule="evenodd" fill="#b3d753" class="fill" d="M74.75,68.541c-1.461-0.877-2.413,0.814-3.77,0.632
	c-0.189-0.413-0.39-0.85-0.61-1.33c0.457-0.812,0.897-1.597,1.501-2.672c-1.189-0.328-2.188-0.603-3.332-0.918
	c0.312-0.565,0.418-1.078,0.723-1.259c3.127-1.869,6.157-4.054,10.175-3.065c1.177,0.29,2.42,0.312,3.84,0.481
	c-1.004,1.688-2.833,1.888-4.077,3.19c0.177,0.386,0.314,0.882,0.599,1.27c1.384,1.879,3.314,3.135,5.195,4.441
	c0.082,0.057,0.152,0.131,0.228,0.196c-0.012,0.118-0.024,0.234-0.037,0.352c-2.057-0.199-4.115-0.399-6.243-0.605
	c-0.614,3.518,2.042,5.2,3.816,7.316c-0.085,0.108-0.171,0.217-0.256,0.326c-0.888-0.23-1.837-0.331-2.65-0.719
	c-1.717-0.819-3.69-1.282-4.682-3.217c-0.554-1.08-0.878-2.142-0.571-3.349C74.685,69.277,74.698,68.925,74.75,68.541z"/>
<path fill-rule="evenodd" clip-rule="evenodd" fill="#b3d753" class="fill" d="M108.891,73.457c-0.024,0.031-0.253,0.319-0.684,0.863
	c2.341,1.69,4.594,3.315,6.909,4.984c-1.624,1.041-3.816,0.217-5.274,1.474c0.103,0.724,0.176,1.234,0.278,1.953
	c-2.292-0.9-4.469-1.58-6.059-3.447c-0.138,0.062-0.275,0.125-0.414,0.188c-0.271,1.125-0.543,2.251-0.849,3.518
	c-0.752-0.093-1.357-0.684-1.743-1.354c-0.883-1.533-1.185-3.207-0.819-4.976c0.074-0.354,0.011-0.737,0.011-1.36
	c-1.084,0.083-2.016,0.155-2.887,0.223c-0.745-1.245-0.617-2.259,0.545-2.748c3.16-1.329,6.296-2.873,9.931-1.817
	c1.478,0.429,3.025,0.612,4.535,0.934c0.422,0.091,0.824,0.281,1.236,0.425c-0.004,0.117-0.008,0.234-0.012,0.351
	C112.127,72.915,110.659,73.16,108.891,73.457z"/>
<path fill-rule="evenodd" clip-rule="evenodd" fill="#b3d753" class="fill" d="M32.535,109.196c-0.97,2.126-0.405,4.065,0.561,6.13
	c1.306-0.399,2.578-0.789,3.851-1.178c0.129,0.154,0.257,0.308,0.386,0.461c-0.437,0.825-0.889,1.642-1.305,2.478
	c-0.337,0.68-0.747,1.355-0.912,2.081c-0.208,0.915-0.225,1.878-0.27,2.822c-0.014,0.287,0.155,0.581,0.244,0.88
	c1.657-0.528,3.227-1.027,4.795-1.525c0.092,0.117,0.184,0.234,0.276,0.351c-1.788,1.82-2.195,4.171-2.689,6.593
	c-2.646,0.159-5.273,0.505-7.868-0.124c-0.04-0.157-0.08-0.313-0.119-0.47c0.488-0.252,1.013-0.454,1.453-0.772
	c0.385-0.277,0.676-0.685,1.184-1.22c-2.98-1.014-5.375-2.167-6.102-5.244c1.272,0.205,2.362,0.363,3.444,0.562
	c0.755,0.139,1.257-0.052,1.384-1.002c-2.374-3.33-2.212-6.787,0.074-10.195c0.269-0.4,0.842-0.597,1.274-0.887
	C32.309,109.024,32.422,109.111,32.535,109.196z"/>
<path fill-rule="evenodd" clip-rule="evenodd" fill="#b3d753" class="fill" d="M42.105,57.443c0.489,0.828,0.885,1.497,1.303,2.204
	c-1.139,1.018-2.924,0.986-3.731,2.388c1.968,2.663,5.583,5.157,10.814,4.337c0.623,1.325,1.283,2.728,1.879,3.995
	c-0.547,1.945-1.037,3.692-1.606,5.716c-3.03-2.136-5.904-4.163-8.729-6.155c0-1.065,0-1.929,0-2.7
	c-1.337-1.328-2.217,0.638-3.358,0.275c-1.66-1.105-3.32-2.21-5.164-3.438C36.229,61.564,39.188,59.548,42.105,57.443z"/>
<path fill-rule="evenodd" clip-rule="evenodd" fill="#b3d753" class="fill" d="M50.736,103.239c0.983-0.457,1.669-0.776,2.747-1.278
	c-1.065,3.168-0.991,6.005,0.315,8.964c1.388-0.451,2.769-0.899,4.237-1.375c-0.598,1.831-1.122,3.44-1.79,5.488
	c-1.753,0.174-3.955,0.394-6.286,0.625c0.18-0.542,0.275-0.83,0.398-1.201c-0.757-0.968-1.939-0.869-2.93-1.037
	c-1.864-0.315-3.55-2.203-2.979-3.932c1.399,0.354,2.689,1.589,4.518,0.638c-0.333-0.594-0.548-1.186-0.935-1.629
	c-1.43-1.64-2.322-3.477-2.596-5.664c-0.217-1.73,0.602-4.018,2.048-4.868C48.553,99.701,49.624,101.438,50.736,103.239z"/>
<path fill-rule="evenodd" clip-rule="evenodd" fill="#b3d753" class="fill" d="M71.016,154.424c0.859-0.294,1.477-0.506,2.096-0.718
	c0.076-1.67-1.963-1.086-2.205-2.424c1.107-0.936,2.29-1.934,3.583-3.027c0.089,0.708,0.288,1.396,0.244,2.07
	c-0.612,9.458,0.791,18.954-0.306,28.391c-1.516,0.402-2.55-0.062-3.414-0.738C71.016,170.02,71.016,162.209,71.016,154.424z"/>
<path fill-rule="evenodd" clip-rule="evenodd" fill="#b3d753" class="fill" d="M53.974,135.07c-0.895,0.396-1.627,0.719-2.629,1.162
	c-0.363-1.496-0.688-2.834-1.015-4.183c-0.349-0.163-0.689-0.323-1.002-0.47c2.044-0.991,4.062-1.97,6.167-2.991
	c0.151,0.532,0.296,1.047,0.442,1.56c2.945,1.258,5.414-0.569,8.38-1.125c-0.509,0.974-0.923,1.765-1.366,2.609
	c1.032,2.402,4.135,2.011,5.61,3.749c-0.588,1.194-1.486,1.439-2.418,1.44c-1.228,0.001-2.469-0.055-3.678-0.253
	c-0.654-0.107-1.251-0.561-1.876-0.855c-0.461-0.218-0.923-0.433-1.565-0.733c-0.829,2.117,0.668,3.699,0.744,5.459
	c-1.42,0.205-3.921-1.321-4.313-2.646c-0.19-0.642-0.313-1.317-0.605-1.91C54.67,135.524,54.228,135.295,53.974,135.07z"/>
<path fill-rule="evenodd" clip-rule="evenodd" fill="#b3d753" class="fill" d="M133.587,176.716c0.083,0.545,0.171,1.127,0.293,1.93
	c-1.334,0-2.451-0.026-3.566,0.005c-4.833,0.138-9.665,0.308-14.497,0.433c-1.69,0.043-3.383-0.044-5.074-0.013
	c-3.237,0.061-6.474,0.185-9.711,0.242c-1.719,0.03-3.44-0.03-5.16-0.039c-2.146-0.01-4.293,0.026-6.438-0.024
	c-2.999-0.071-5.997-0.172-8.993-0.321c-1.491-0.075-2.976-0.286-4.502-0.439c0.243-0.687,0.415-1.176,0.653-1.851
	c0.59,0.065,1.269,0.188,1.95,0.208c4.831,0.142,9.661,0.238,14.489,0.405c1.724,0.06,3.441,0.302,5.164,0.418
	c1.364,0.092,2.732,0.162,4.099,0.162c1.758,0,3.518-0.043,5.273-0.132c3.621-0.182,7.236-0.462,10.858-0.594
	c2.746-0.1,5.498,0.012,8.246-0.05C128.923,177.007,131.173,176.84,133.587,176.716z"/>
<path fill-rule="evenodd" clip-rule="evenodd" fill="#b3d753" class="fill" d="M171.505,155.557c0,0.703,0.097,1.479-0.042,2.21
	c-0.065,0.343-0.561,0.63-0.9,0.891c-0.819,0.631-1.656,1.239-2.496,1.844c-1.275,0.92-2.5,1.927-3.849,2.725
	c-3.356,1.987-6.823,3.79-10.148,5.826c-4.513,2.764-9.133,5.306-13.963,7.467c-0.089,0.04-0.198,0.036-0.477,0.083
	c-0.039-0.718-0.077-1.398-0.119-2.163C150.169,168.149,160.788,161.882,171.505,155.557z"/>
<path fill-rule="evenodd" clip-rule="evenodd" fill="#b3d753" class="fill" d="M157.542,86.254c-6.26,9.028-12.452,17.958-18.849,27.182
	c-0.042-0.914,0.058-1.582-0.12-2.167c-0.927-3.05,0.902-5.173,2.437-7.371c2.219-3.179,4.501-6.317,6.778-9.456
	c1.342-1.849,2.662-3.718,4.125-5.467c0.507-0.605,1.39-0.931,2.149-1.283C155.196,87.169,156.371,86.733,157.542,86.254z"/>
<path fill-rule="evenodd" clip-rule="evenodd" fill="#b3d753" class="fill" d="M66.037,41.667c0.44,0.638,0.866,1.253,1.444,2.089
	c0.201-0.038,0.646-0.12,1.185-0.22c0.517-2.949,2.385-4.72,4.964-5.769c0.612-0.249,1.411-0.036,2.262-0.036
	c-0.824,1.748-2.863,2.376-2.834,4.519c1.399,0,2.666,0,3.931,0c-1.556,1.44-3.904,1.675-4.873,3.931
	c0.004,1.961,2.154,0.749,3.065,1.898c-2.274,0.582-4.458,1.14-7.109,1.818c-0.887-0.207-2.292-0.503-3.675-0.882
	c-0.337-0.092-0.599-0.458-1.068-0.838c0.851-0.44,1.547-0.8,2.44-1.262c-0.116-0.262-0.263-0.604-0.422-0.939
	c-0.027-0.057-0.119-0.078-0.166-0.13C63.548,44.033,63.2,42.756,66.037,41.667z"/>
<path fill-rule="evenodd" clip-rule="evenodd" fill="#b3d753" class="fill" d="M43.911,129.814c-0.068,0.337-0.104,0.685-0.209,1.012
	c-1.127,3.503-1.266,6.99,0.627,10.254c0.928,1.599,2.129,3.082,3.408,4.425c1.913,2.01,3.983,3.873,6.024,5.758
	c2.448,2.259,4.048,5.019,4.82,8.228c0.658,2.733,0.994,5.552,1.782,8.243c0.672,2.293,0.237,4.465-0.037,6.686
	c-0.088,0.715-0.333,1.502-1.25,1.43c-0.901-0.071-1.219-0.831-1.195-1.621c0.029-1.018,0.318-2.035,0.288-3.046
	c-0.082-2.734-0.225-5.469-0.433-8.197c-0.258-3.4-1.586-6.325-3.924-8.853c-2.122-2.294-3.942-4.88-6.161-7.067
	c-1.764-1.738-2.918-3.845-4.271-5.824c-0.708-1.037-1.157-2.405-1.266-3.663c-0.209-2.4,0.092-4.805,0.968-7.094
	c0.075-0.197,0.175-0.387,0.29-0.564c0.052-0.08,0.167-0.119,0.254-0.176C43.722,129.766,43.816,129.79,43.911,129.814z"/>
<path fill-rule="evenodd" clip-rule="evenodd" fill="#b3d753" class="fill" d="M70.465,142.771c-0.127,1.695-2.875,1.742-2.136,3.978
	c1.807-0.699,3.468-1.341,5.352-2.069c-0.238,3.423-2.681,4.65-4.994,6.118c0.336,0.737,0.613,1.345,0.948,2.081
	c-2.868,0.653-5.644,0.171-8.271-0.241c-0.392-1.447-0.747-2.761-1.103-4.075c-0.132-0.034-0.263-0.069-0.395-0.104
	c0.43-0.571,0.859-1.144,1.401-1.865c0.401,1.09,0.671,1.826,0.912,2.484c0.921,0.345,1.412,0.052,1.749-0.671
	c1.196-2.57,3.408-4.062,5.768-5.391C69.896,142.904,70.141,142.872,70.465,142.771z"/>
<path fill-rule="evenodd" clip-rule="evenodd" fill="#b3d753" class="fill" d="M68.604,78.285c-0.283,1.41-0.566,2.819-0.854,4.257
	c1.097,0.322,2.108,0.62,3.12,0.918c0.002,0.109,0.003,0.219,0.005,0.329c-2.101,1.101-4.201,2.202-6.466,3.39
	c0.23,0.643,0.411,1.145,0.577,1.606c-1.832,0.215-3.763,0.443-5.617,0.662c-0.581-0.876-1.171-1.766-1.854-2.798
	c0.648-0.071,1.121-0.121,1.818-0.197c0-0.409,0.093-0.84-0.016-1.212c-0.453-1.538,0.011-2.867,0.783-4.297
	c0.896,1.133,1.5,2.466,3.113,2.399c1.505-2.021,1.974-4.968,4.949-5.387C68.31,78.063,68.457,78.174,68.604,78.285z"/>
<path fill-rule="evenodd" clip-rule="evenodd" fill="#b3d753" class="fill" d="M36.681,143.837c0.594,1.439,1.178,2.855,1.676,4.062
	c0.674,0.326,1.103,0.534,1.607,0.779c-0.946,1.161-2.139,1.037-3.375,1.062c-0.397-0.326-0.943-0.606-1.241-1.052
	c-0.757-1.132-1.633-1.147-2.711-0.546c-0.921,0.513-1.909,0.913-2.802,1.469c-0.759,0.473-1.441,0.367-2.273,0.088
	c0.182-0.428,0.327-0.772,0.414-0.978c0.958-0.704,2.407-0.358,2.833-1.931c-0.512-0.188-0.958-0.34-1.395-0.517
	c-1.096-0.444-2.209-0.856-3.27-1.375c-0.323-0.158-0.496-0.621-0.645-0.819c1.665-0.228,3.292-0.45,5.212-0.712
	c-1.085-2.414-1.014-4.44,1.31-6.257c0.131,2.808,1.055,5.063,2.947,7.073C35.443,144.086,36.042,143.965,36.681,143.837z"/>
<path fill-rule="evenodd" clip-rule="evenodd" fill="#b3d753" class="fill" d="M47.586,57.038c0.45-0.025,0.759-0.043,1.071-0.06
	c1.068-1.679,2.458-2.886,4.416-3.443c-1.807,1.666-3.098,3.499-2.581,6.383c1.076-0.309,2.124-0.609,3.265-0.937
	c-0.954,1.756-1.84,3.385-2.759,5.077c-2.553,0.125-4.938-0.234-7.025-2.253c0.939-0.351,1.734-0.647,2.748-1.026
	c-0.125-0.421-0.167-0.849-0.371-1.173c-0.279-0.442-0.675-0.812-1.034-1.201c-1.635-1.766-1.498-4.104,0.368-5.773
	C46.309,54.082,46.93,55.52,47.586,57.038z"/>
<path fill-rule="evenodd" clip-rule="evenodd" fill="#b3d753" class="fill" d="M56.056,169.21c-0.051,0.499-0.138,1.359-0.232,2.284
	c-7.45-3.672-14.802-7.296-22.088-10.888c-0.062-1.011-0.117-1.876-0.17-2.711C40.997,161.634,48.421,165.37,56.056,169.21z"/>
<path fill-rule="evenodd" clip-rule="evenodd" fill="#b3d753" class="fill" d="M30.482,86.897c0.951,0.361,1.742,0.661,2.348,0.891
	c0,6.072,0,11.991,0,17.862c-0.925,0.434-1.674,0.785-2.731,1.28C30.229,100.164,30.354,93.648,30.482,86.897z"/>
<path fill-rule="evenodd" clip-rule="evenodd" fill="#b3d753" class="fill" d="M34.374,98.436c0-0.958-0.074-1.665,0.03-2.346
	c0.055-0.361,0.344-0.823,0.658-0.987c2.857-1.481,5.75-2.892,8.616-4.355c1.088-0.556,2.064-1.375,3.405-1.217
	c1.409,0.164,2.82,0.312,4.23,0.467c0.006,0.121,0.013,0.243,0.02,0.364C45.764,93.013,40.194,95.665,34.374,98.436z"/>
<path fill-rule="evenodd" clip-rule="evenodd" fill="#b3d753" class="fill" d="M162.561,159.081c-1.628,1.021-3.277,2.054-4.924,3.088
	c-0.077-0.074-0.155-0.148-0.232-0.222c4.612-6.701,9.224-13.401,13.835-20.101c0.137,0.049,0.274,0.099,0.411,0.148
	c0,0.576,0,1.152,0,1.728c0,0.597,0,1.194,0,1.729C169.661,147.494,162.561,157.993,162.561,159.081z"/>
<path fill-rule="evenodd" clip-rule="evenodd" fill="#b3d753" class="fill" d="M44.043,117.148c1.167,0.419,2.002,0.72,3.067,1.104
	c0.534,0.987,1.179,2.178,1.877,3.468c-1.02,0.647-1.936,1.229-2.96,1.878c-1.593-2.687-3.072-5.181-4.667-7.87
	c1.326-0.584,2.514-1.107,3.805-1.677c0.235,0.541,0.397,0.913,0.574,1.319C45.256,115.877,44.793,116.362,44.043,117.148z"/>
<path fill-rule="evenodd" clip-rule="evenodd" fill="#b3d753" class="fill" d="M69.419,159.334c0,1.512,0,2.705,0,3.998
	c-2.306,1.562-4.641,3.145-7.179,4.864c-0.226-1.182-0.412-2.157-0.644-3.373C64.119,163.053,66.655,161.273,69.419,159.334z"/>
<path fill-rule="evenodd" clip-rule="evenodd" fill="#b3d753" class="fill" d="M51.77,155.417c0.605,0.744,1.257,1.543,1.961,2.407
	c-2.651,1.55-5.161,3.019-7.808,4.565c-0.891-0.435-1.905-0.931-3.171-1.549C45.856,158.974,48.702,157.262,51.77,155.417z"/>
<path fill-rule="evenodd" clip-rule="evenodd" fill="#b3d753" class="fill" d="M62.818,104.282c-2.285,1.993-4.372,3.843-7.462,3.967
	c0.147-0.951,0.295-2.013,0.489-3.067c0.041-0.223,0.201-0.494,0.388-0.608c1.604-0.981,3.227-1.931,5.006-2.987
	C61.858,102.644,62.36,103.501,62.818,104.282z"/>
<path fill-rule="evenodd" clip-rule="evenodd" fill="#b3d753" class="fill" d="M41.755,107.259c-0.951,0.334-1.794,0.63-2.766,0.971
	c-1.403-2.709-2.746-5.303-4.151-8.019c0.819-0.445,1.541-0.836,2.39-1.297C38.747,101.716,40.206,104.405,41.755,107.259z"/>
<path fill-rule="evenodd" clip-rule="evenodd" fill="#b3d753" class="fill" d="M34.489,135.451c1.009-0.498,1.753-0.864,2.563-1.264
	c1.938,2.479,3.059,5.233,3.904,8.2c-0.521,0.351-1.065,0.719-1.583,1.067C37.768,140.821,36.184,138.227,34.489,135.451z"/>
<path fill-rule="evenodd" clip-rule="evenodd" fill="#b3d753" class="fill" d="M50.438,154.261c-1.244,0.847-2.384,1.624-3.704,2.521
	c-1.236-2.468-2.369-4.73-3.501-6.988c0.753-0.207,1.455-0.398,2.157-0.59c-0.176,0.153-0.352,0.306-0.526,0.458
	C46.691,151.172,48.52,152.679,50.438,154.261z"/>
<path fill-rule="evenodd" clip-rule="evenodd" fill="#b3d753" class="fill" d="M39.765,114.708c0.239-0.851,0.412-1.469,0.627-2.236
	c-2.033-0.693-4.008,0.464-6.25-0.161c2.933-1.375,5.594-2.623,8.159-3.825c0.421,1.697,0.778,3.138,1.174,4.729
	C42.463,113.623,41.234,114.117,39.765,114.708z"/>
<path fill-rule="evenodd" clip-rule="evenodd" fill="#b3d753" class="fill" d="M48.494,143.908c-0.58-0.829-1.133-1.617-1.82-2.599
	c1.847-1.166,3.595-2.271,5.457-3.447c0.726,1.112,1.401,2.147,2.188,3.353c-0.977,0.464-1.904,0.914-2.84,1.347
	C50.559,142.987,49.632,143.396,48.494,143.908z"/>
<path fill-rule="evenodd" clip-rule="evenodd" fill="#b3d753" class="fill" d="M28.811,129.723c1.158,0.17,2.11,0.312,3.211,0.474
	c0,1.702,0,3.375,0,4.809c-1.095,1.037-2.081,1.972-3.211,3.042C28.811,135.219,28.811,132.521,28.811,129.723z"/>
<path fill-rule="evenodd" clip-rule="evenodd" fill="#b3d753" class="fill" d="M56.2,166.748c-3.46-0.069-4.763-2.45-6.212-4.921
	c0.975-0.615,1.956-1.233,3.095-1.951C54.049,162.31,55.754,164.207,56.2,166.748z"/>
<path fill-rule="evenodd" clip-rule="evenodd" fill="#b3d753" class="fill" d="M61.647,174.479c0.271-0.84,0.483-1.497,0.759-2.35
	c2.287,0.944,4.561,1.884,6.791,2.804c0,1.021,0,1.895,0,3.125C66.595,176.824,64.171,175.675,61.647,174.479z"/>
<path fill-rule="evenodd" clip-rule="evenodd" fill="#b3d753" class="fill" d="M63.042,121.519c0.761-0.402,1.416-0.748,2.059-1.087
	c1.613,2.906,3.124,5.631,4.703,8.479c-0.627,0.312-1.23,0.614-1.948,0.972c-0.297-0.524-0.561-0.995-0.808-1.432
	c0.098-0.366,0.178-0.668,0.31-1.159c-0.436-0.298-0.899-0.617-1.28-0.878C65.085,124.813,64.126,123.268,63.042,121.519z"/>
<path fill-rule="evenodd" clip-rule="evenodd" fill="#b3d753" class="fill" d="M68.099,158.414c-0.935,0.628-1.855,1.248-2.893,1.945
	c-1.149-2.011-2.238-3.915-3.426-5.993c1.481,0.048,2.971-0.241,4.003,0.717C66.728,155.961,67.304,157.233,68.099,158.414z"/>
<path fill-rule="evenodd" clip-rule="evenodd" fill="#b3d753" class="fill" d="M148.947,134.599c-1.536-1.744-2.867-3.255-4.24-4.814
	c0.568-0.796,1.071-1.502,1.656-2.322c1.548,1.439,3.301,2.516,4.009,4.577C149.915,132.861,149.497,133.612,148.947,134.599z"/>
<path fill-rule="evenodd" clip-rule="evenodd" fill="#b3d753" class="fill" d="M144.996,107.103c1.474,1.614,2.79,3.056,4.162,4.56
	c-0.524,0.803-1.016,1.556-1.611,2.469c-1.374-1.607-2.663-3.114-4.068-4.756C143.779,108.925,144.362,108.053,144.996,107.103z"/>
<path fill-rule="evenodd" clip-rule="evenodd" fill="#b3d753" class="fill" d="M60.754,99.035c-0.202-0.152-0.451-0.269-0.597-0.463
	c-1.615-2.141-3.213-4.293-4.817-6.442c-0.53-0.709-1.016-1.455-1.598-2.117c-1.212-1.381-1.814-3.018-2.091-4.789
	c-0.068-0.431,0.086-0.896,0.138-1.345c0.1-0.002,0.199-0.003,0.299-0.005c0.105,0.2,0.271,0.391,0.305,0.602
	c0.312,1.948,1.311,3.56,2.434,5.125c1.918,2.673,3.812,5.362,5.701,8.056c0.239,0.34,0.385,0.746,0.574,1.122
	C60.985,98.865,60.869,98.95,60.754,99.035z"/>
<path fill-rule="evenodd" clip-rule="evenodd" fill="#b3d753" class="fill" d="M65.026,102.864c-0.544-0.896-0.96-1.577-1.447-2.377
	c2.021-1.031,3.984-2.033,6.062-3.093c0.069,1.207,0.129,2.274,0.19,3.351C68.153,101.485,66.598,102.171,65.026,102.864z"/>
<path fill-rule="evenodd" clip-rule="evenodd" fill="#b3d753" class="fill" d="M48.05,94.594c-0.471,0.242-0.777,0.4-1.233,0.634
	c-0.153-0.131-0.324-0.278-0.656-0.562c1.343-0.693,2.413-1.246,3.66-1.889c1.354,2.361,2.672,4.664,4.06,7.084
	c-0.636,0.245-1.141,0.44-1.734,0.669C51.168,98.21,49.626,96.396,48.05,94.594z"/>
<path fill-rule="evenodd" clip-rule="evenodd" fill="#b3d753" class="fill" d="M155.521,123.388c-1.444-1.535-2.758-2.929-4.098-4.352
	c0.519-0.709,1.012-1.384,1.622-2.218c1.401,1.29,2.75,2.532,4.183,3.852C156.729,121.465,156.193,122.317,155.521,123.388z"/>
<path fill-rule="evenodd" clip-rule="evenodd" fill="#b3d753" class="fill" d="M31.811,159.393c-1.966-0.249-2.136-0.302-2.333-2.181
	c-0.159-1.525-0.032-3.081-0.032-4.733c0.815-0.214,1.511-0.396,2.365-0.62C31.811,154.463,31.811,156.923,31.811,159.393z"/>
<path fill-rule="evenodd" clip-rule="evenodd" fill="#b3d753" class="fill" d="M171.05,139.515c-1.312-1.383-2.633-2.775-4.002-4.218
	c0.343-0.675,0.732-1.442,1.232-2.425c1.273,1.124,2.456,2.168,3.504,3.092C172.013,138.199,171.856,138.949,171.05,139.515z"/>
<path fill-rule="evenodd" clip-rule="evenodd" fill="#b3d753" class="fill" d="M60.379,91.986c1.111-0.167,1.921-0.289,2.692-0.404
	c1.092,2.014,2.121,3.912,3.186,5.875c-0.589,0.283-1.175,0.563-1.786,0.856C63.137,96.251,61.845,94.252,60.379,91.986z"/>
<path fill-rule="evenodd" clip-rule="evenodd" fill="#b3d753" class="fill" d="M61.866,120.174c0.46-0.3,0.885-0.696,1.388-0.883
	c1.747-0.648,2.582-2.02,3.203-3.657c0.175-0.46,0.662-0.907,1.117-1.135c0.713-0.357,1.521-0.523,2.289-0.769
	c0.796,1.945,0.452,2.792-1.43,3.692c-1.853,0.885-3.688,1.809-5.537,2.702c-0.295,0.143-0.625,0.214-0.938,0.318
	C61.927,120.353,61.896,120.264,61.866,120.174z"/>
<path fill-rule="evenodd" clip-rule="evenodd" fill="#b3d753" class="fill" d="M161.306,125.128c1.407,1.351,2.632,2.526,3.921,3.764
	c-0.704,0.999-1.196,1.696-1.866,2.646c-1.232-1.321-2.328-2.495-3.56-3.815C160.257,126.937,160.716,126.145,161.306,125.128z"/>
<path fill-rule="evenodd" clip-rule="evenodd" fill="#b3d753" class="fill" d="M163.874,110.468c-0.41,0.541-0.826,1.092-1.339,1.771
	c-1.343-1.443-2.582-2.773-3.864-4.151c0.452-0.702,0.902-1.404,1.425-2.217C161.38,107.431,163.22,108.387,163.874,110.468z"/>
<path fill-rule="evenodd" clip-rule="evenodd" fill="#b3d753" class="fill" d="M153.987,103.729c-1.401-1.521-2.617-2.839-3.871-4.2
	c0.419-0.733,0.777-1.359,1.316-2.301c1.418,1.579,2.675,2.979,3.99,4.442C154.964,102.328,154.574,102.886,153.987,103.729z"/>
<path fill-rule="evenodd" clip-rule="evenodd" fill="#b3d753" class="fill" d="M143.481,163.684c-0.721,0.975-1.354,1.83-2.079,2.809
	c-0.698-0.764-1.323-1.446-1.988-2.174c0-1.318,0-2.664,0-4.009c0.092-0.066,0.185-0.133,0.278-0.199
	C140.951,161.296,142.209,162.482,143.481,163.684z"/>
<path fill-rule="evenodd" clip-rule="evenodd" fill="#b3d753" class="fill" d="M156.46,142.773c-1.265-1.459-2.361-2.724-3.517-4.057
	c0.455-0.666,0.903-1.324,1.481-2.172c1.186,1.15,2.328,2.257,3.535,3.429C157.46,140.905,157.004,141.757,156.46,142.773z"/>
<path fill-rule="evenodd" clip-rule="evenodd" fill="#b3d753" class="fill" d="M33.565,130.961c1.144-1.084,2.552-1.184,4.193-1.048
	c0.331,0.427,0.729,0.94,1.255,1.618c-1.796,0.895-3.438,1.712-5.259,2.619C33.687,133.002,33.63,132.046,33.565,130.961z"/>
<path fill-rule="evenodd" clip-rule="evenodd" fill="#b3d753" class="fill" d="M163.427,90.098c-0.398,0.613-0.792,1.219-1.393,2.144
	c-1.328-1.443-2.496-2.713-3.745-4.071c0.584-0.745,1.092-1.391,1.688-2.15C161.174,87.436,162.255,88.712,163.427,90.098z"/>
<path fill-rule="evenodd" clip-rule="evenodd" fill="#b3d753" class="fill" d="M166.355,117.099c0.569-0.84,1.055-1.557,1.654-2.441
	c1.182,1.352,2.279,2.608,3.415,3.909c-0.424,0.701-0.836,1.381-1.289,2.128C168.853,119.474,167.628,118.31,166.355,117.099z"/>
<path fill-rule="evenodd" clip-rule="evenodd" fill="#b3d753" class="fill" d="M166.063,96.661c0.459-0.595,0.84-1.088,1.34-1.735
	c1.314,1.612,2.566,3.147,3.844,4.712c-0.42,0.604-0.729,1.049-1.2,1.728C168.659,99.726,167.389,98.226,166.063,96.661z"/>
<path fill-rule="evenodd" clip-rule="evenodd" fill="#b3d753" class="fill" d="M55.771,85.167c-0.972-0.419-1.806-0.777-2.8-1.205
	c-0.081-1.209-0.166-2.47-0.271-4.036c1.389,0.842,2.465,1.466,3.502,2.149c0.183,0.12,0.325,0.518,0.274,0.739
	C56.301,83.579,56.033,84.322,55.771,85.167z"/>
<path fill-rule="evenodd" clip-rule="evenodd" fill="#b3d753" class="fill" d="M76.491,57.297c-1.147,0-2.164,0-3.261,0
	c-0.244-0.497-0.486-0.985-0.826-1.677c2.15-0.549,4.152-1.059,6.154-1.568c0.08,0.119,0.159,0.239,0.238,0.358
	C78.039,55.358,77.282,56.306,76.491,57.297z"/>
<path fill-rule="evenodd" clip-rule="evenodd" fill="#b3d753" class="fill" d="M146.899,148.658c1.315,1.294,2.457,2.418,3.609,3.551
	c-0.589,1.024-0.961,1.674-1.479,2.574c-1.17-1.484-2.197-2.786-3.302-4.188C146.045,150.07,146.345,149.573,146.899,148.658z"/>
<path fill-rule="evenodd" clip-rule="evenodd" fill="#b3d753" class="fill" d="M57.232,122.95c-3.806,1.85-7.61,3.699-11.416,5.549
	c-0.071-0.146-0.143-0.293-0.213-0.44c3.112-3.275,7.512-3.907,11.451-5.481C57.114,122.701,57.173,122.826,57.232,122.95z"/>
<path fill-rule="evenodd" clip-rule="evenodd" fill="#b3d753" class="fill" d="M139.036,142.418c0-0.79,0-1.819,0-2.849
	c0.09-0.067,0.18-0.135,0.271-0.202c1.229,1.319,2.46,2.638,3.777,4.052c-0.565,0.711-0.986,1.24-1.526,1.919
	C140.721,144.371,139.968,143.498,139.036,142.418z"/>
<path fill-rule="evenodd" clip-rule="evenodd" fill="#b3d753" class="fill" d="M58.972,146.322c-0.604-1.127-1.19-2.224-1.877-3.505
	c1.332,0,2.466,0,3.851,0c0.246,0.462,0.596,1.118,0.984,1.848C60.907,145.238,60.002,145.745,58.972,146.322z"/>
<path fill-rule="evenodd" clip-rule="evenodd" fill="#b3d753" class="fill" d="M87.663,45.809c0.167,0.808,0.279,1.345,0.409,1.972
	c-0.416,0.254-0.824,0.505-1.485,0.91c0.077,1.54,0.159,3.2,0.253,5.079c-0.944-0.526-1.766-0.986-2.717-1.517
	C85.293,50.121,86.404,48.1,87.663,45.809z"/>
<path fill-rule="evenodd" clip-rule="evenodd" fill="#b3d753" class="fill" d="M69.644,108.899c-0.955-1.706-1.909-3.411-2.929-5.23
	c0.655-0.272,1.19-0.494,1.674-0.695c1.749,1.698,1.572,3.759,1.622,5.765C69.888,108.793,69.766,108.847,69.644,108.899z"/>
<path fill-rule="evenodd" clip-rule="evenodd" fill="#b3d753" class="fill" d="M140.747,124.459c-1.724-1.397-2.398-3.445-1.798-5.414
	c1.047,1.211,2.055,2.375,3.097,3.58C141.582,123.28,141.182,123.844,140.747,124.459z"/>
<path fill-rule="evenodd" clip-rule="evenodd" fill="#b3d753" class="fill" d="M164.596,148.776c-0.411,0.594-0.765,1.105-1.229,1.777
	c-0.982-1.256-1.889-2.416-2.863-3.663c0.233-0.455,0.481-0.942,0.694-1.357C162.315,146.6,163.398,147.634,164.596,148.776z"/>
<path fill-rule="evenodd" clip-rule="evenodd" fill="#b3d753" class="fill" d="M50.388,82.504c-1.366-0.066-1.811-0.422-2.098-1.701
	c-0.178-0.784-0.365-1.564-0.536-2.349c-0.02-0.092,0.033-0.199,0.084-0.457c0.852,0.344,1.66,0.671,2.55,1.032
	C50.388,80.211,50.388,81.355,50.388,82.504z"/>
<path fill-rule="evenodd" clip-rule="evenodd" fill="#b3d753" class="fill" d="M64.587,105.986c1.476,1.147,1.876,6.895,0.634,8.462
	c-0.116-0.189-0.321-0.366-0.304-0.519c0.293-2.561-0.178-5.046-0.693-7.531C64.204,106.303,64.432,106.156,64.587,105.986z"/>
<path fill-rule="evenodd" clip-rule="evenodd" fill="#b3d753" class="fill" d="M41.104,130.716c-0.602-0.789-1.157-1.518-1.762-2.311
	c1.489-0.756,2.836-1.439,4.183-2.123c0.086,0.089,0.172,0.177,0.259,0.266C42.925,127.884,42.066,129.22,41.104,130.716z"/>
<path fill-rule="evenodd" clip-rule="evenodd" fill="#b3d753" class="fill" d="M156.715,159.9c-0.402,0.69-0.694,1.191-1.049,1.803
	c-0.848-0.898-1.647-1.746-2.492-2.641c0.334-0.506,0.655-0.992,1.113-1.687C155.15,158.273,155.94,159.095,156.715,159.9z"/>
<path fill-rule="evenodd" clip-rule="evenodd" fill="#b3d753" class="fill" d="M41.518,143.771c0.702,1.054,1.328,1.992,1.985,2.979
	c-1.562,0.421-3.511-0.228-4.159-1.408C40.01,144.86,40.695,144.365,41.518,143.771z"/>
<path fill-rule="evenodd" clip-rule="evenodd" fill="#b3d753" class="fill" d="M70.412,130.38c0,1.013,0,1.764,0,2.521
	c-0.434,0.161-0.759,0.28-1.184,0.437c-0.633-0.364-1.324-0.763-2.015-1.161c-0.022-0.12-0.044-0.24-0.066-0.361
	C68.185,131.359,69.222,130.904,70.412,130.38z"/>
<path fill-rule="evenodd" clip-rule="evenodd" fill="#b3d753" class="fill" d="M143.477,92.25c0.839-0.385,1.526-0.701,2.156-0.989
	c0.407,0.604,0.765,1.136,1.219,1.808c-0.243,0.387-0.563,0.897-1.03,1.638C145,93.846,144.275,93.086,143.477,92.25z"/>
<path fill-rule="evenodd" clip-rule="evenodd" fill="#b3d753" class="fill" d="M138.253,104.381c0-1.448,0-2.896,0-4.536
	c0.673,0.764,1.275,1.446,2.039,2.312c-0.447,0.66-1.029,1.522-1.611,2.383C138.539,104.487,138.396,104.434,138.253,104.381z"/>
<path fill-rule="evenodd" clip-rule="evenodd" fill="#b3d753" class="fill" d="M30.399,79.04c0.66,0.836,1.32,1.672,2.1,2.66
	c-0.795,0.363-1.436,0.654-2.196,1.002c-0.107-1.296-0.204-2.468-0.301-3.64C30.134,79.054,30.267,79.046,30.399,79.04z"/>
<path fill-rule="evenodd" clip-rule="evenodd" fill="#b3d753" class="fill" d="M52.58,126.733c0.177,0.38,0.26,0.556,0.371,0.795
	c-0.351,0.16-0.656,0.3-0.963,0.439c0.053,0.061,0.105,0.122,0.157,0.182c-0.6,0.546-1.199,1.092-2.051,1.868
	c-0.232-0.799-0.355-1.22-0.501-1.721C50.626,127.756,51.537,127.279,52.58,126.733z"/>
<path fill-rule="evenodd" clip-rule="evenodd" fill="#b3d753" class="fill" d="M169.283,154.687c-0.611,0.402-1.121,0.74-1.671,1.102
	c-0.347-0.376-0.606-0.658-0.932-1.012c0.391-0.642,0.792-1.3,1.312-2.151C168.482,153.406,168.826,153.957,169.283,154.687z"/>
<path fill-rule="evenodd" clip-rule="evenodd" fill="#b3d753" class="fill" d="M57.809,153.214c-0.207-0.305-0.418-0.617-0.643-0.947
	c0.531-0.914,1.07-1.678,2.188-1.761C59.697,152.089,59.461,152.489,57.809,153.214z"/>
<path fill-rule="evenodd" clip-rule="evenodd" fill="#b3d753" class="fill" d="M60.887,118.667c-0.255-0.291-0.457-0.519-0.792-0.897
	c1.199-0.61,2.292-1.167,3.385-1.723c0.071,0.103,0.142,0.205,0.212,0.308C63.28,117.627,62.063,118.018,60.887,118.667z"/>
<path fill-rule="evenodd" clip-rule="evenodd" fill="#b3d753" class="fill" d="M33.291,152.572c0.171-0.758,0.342-1.516,0.562-2.49
	c0.864,0.504,1.426,0.831,2.151,1.254c-0.875,0.524-1.617,0.969-2.36,1.415C33.527,152.691,33.409,152.632,33.291,152.572z"/>
<path fill-rule="evenodd" clip-rule="evenodd" fill="#b3d753" class="fill" d="M68.947,168.27c-0.366-0.681-0.732-1.363-1.156-2.15
	c0.447-0.271,0.839-0.508,1.378-0.835c0,1.094,0,1.999,0,2.904C69.096,168.216,69.021,168.243,68.947,168.27z"/>
<path fill-rule="evenodd" clip-rule="evenodd" fill="#b3d753" class="fill" d="M55.24,120.626c1.84-1.566,2.123-1.625,3.046-0.588
	C57.167,120.254,56.203,120.44,55.24,120.626z"/>
</svg>
