<svg version="1.1" id="svg" xmlns="http://www.w3.org/2000/svg" xmlns:xlink="http://www.w3.org/1999/xlink" x="0px" y="0px"
	 width="200px" height="200px" viewBox="0 0 200 200" enable-background="new 0 0 200 200" xml:space="preserve">
<path class="stroke" fill="#693c11"  fill-rule="evenodd" clip-rule="evenodd" d="M97.69,142.528c-3.028-0.599-5.872-1.39-8.652-2.472
	c-1.121-0.436-2.436-0.449-3.669-0.503c-2.586-0.112-5.186-0.071-7.637-1.087c-3.162-1.311-6.187-2.848-8.431-5.543
	c-1.003-1.205-2.211-2.144-3.599-2.808c-3.835-1.837-6.428-4.764-8.39-8.523c-2.173-4.164-3.614-8.54-4.707-13.055
	c-0.625-2.583-0.456-5.227-0.206-7.863c0.364-3.842,1.2-7.546,2.785-11.083c1.013-2.259,2.733-3.9,4.5-5.525
	c2.903-2.671,6.149-4.865,9.509-6.91c1.184-0.721,2.277-1.59,3.47-2.295c2.84-1.677,5.674-3.372,8.585-4.919
	c3.346-1.777,5.136-4.633,6.025-8.162c0.616-2.44,0.6-4.923,0.369-7.423c-0.176-1.905-0.205-3.825-0.277-5.738
	c-0.013-0.322,0.084-0.649,0.145-1.073c5.629-2.479,11.463-3.756,17.697-3.465c0.131,0.442,0.241,0.794,0.339,1.149
	c0.253,0.917,0.457,1.852,0.76,2.752c1.115,3.305,2.283,6.592,3.39,9.899c0.637,1.903,1.161,3.844,1.802,5.746
	c0.396,1.174,1.167,2.018,2.355,2.551c4.64,2.084,9.04,4.624,13.221,7.5c3.266,2.247,6.49,4.571,9.268,7.462
	c1.852,1.927,3.121,4.216,4.561,6.413c1.654,2.524,2.551,5.308,3.303,8.195c0.631,2.424,1.159,4.852,1.141,7.35
	c-0.015,1.951-0.048,3.943-0.446,5.839c-0.448,2.138-0.627,4.169-0.229,6.352c0.56,3.07,0.407,6.205-0.001,9.301
	c-0.287,2.175-0.635,4.345-1.036,6.501c-0.243,1.31-0.565,2.616-0.977,3.882c-1.473,4.543-3.983,8.445-7.33,11.851
	c-1.631,1.659-3.35,3.09-5.563,3.947c-1.729,0.669-3.299,1.759-5.038,2.387c-2.716,0.981-5.562,1.369-8.47,1.173
	c-1.624-0.109-3.252-0.155-4.878-0.232c-3.199-0.153-6.223-1.017-9.153-2.257c-1.383-0.585-2.146-1.731-2.6-3.079
	c-0.595-1.767-1.1-3.563-1.646-5.347C97.896,143.146,97.804,142.877,97.69,142.528z M141.308,127.197
	c-0.557,0.936-1.098,1.881-1.68,2.801c-0.203,0.322-0.506,0.58-0.765,0.867c-0.152-0.08-0.304-0.159-0.457-0.239
	c0.577-1.819,1.363-3.575,2.017-5.368c0.669-1.833,0.924-3.715,0.912-5.662c-1.358,2.754-2.434,5.625-4.426,7.994
	c-1.969,2.341-3.753,4.842-6.037,6.924c1.54-2.444,3.269-4.745,4.9-7.112c1.304-1.892,3.222-6.967,3.19-8.183
	c-0.466,0.817-0.88,1.607-1.353,2.361c-0.785,1.253-1.582,2.5-2.42,3.717c-0.786,1.142-1.623,2.251-2.457,3.359
	c-0.248,0.33-0.526,0.75-1.154,0.184c0.329-0.584,0.625-1.224,1.02-1.794c1.512-2.18,2.615-4.563,3.559-7.028
	c0.113-0.294,0.153-0.617,0.228-0.926c-0.448,0.273-0.719,0.605-0.948,0.965c-2.007,3.167-4.229,6.159-7.015,8.696
	c-1.417,1.289-2.842,2.569-4.27,3.846c-3.516,3.144-7.284,5.899-11.729,7.612c-0.592,0.228-1.168,0.427-1.764-0.205
	c0.236-0.206,0.413-0.431,0.645-0.549c1.146-0.588,2.375-1.043,3.448-1.74c2.325-1.509,4.666-3.021,6.829-4.745
	c2.506-1.998,4.96-4.097,7.197-6.387c2.855-2.925,5.022-6.396,6.977-9.983c0.078-0.144,0.059-0.341,0.108-0.665
	c-1.476,1.165-2.48,2.652-4.131,3.33c0.264-0.459,0.603-0.837,0.935-1.222c1.402-1.63,2.817-3.249,4.194-4.9
	c0.477-0.571,0.809-1.24,0.811-2.05c-0.87,0.709-1.599,1.537-2.428,2.247c-0.87,0.747-1.604,1.73-3.068,2.095
	c1.267-1.436,2.355-2.67,3.503-3.971c-0.91-0.229-1.518,0.18-2.127,0.544c-4.395,2.629-8.763,5.305-13.187,7.884
	c-4.227,2.465-8.363,5.065-12.112,8.214c-2.893,2.431-5.805,4.87-7.969,8.033c-0.167,0.243-0.254,0.541-0.395,0.85
	c1.47,0.424,2.652,0.122,3.781-0.667c1.333-0.932,2.714-1.797,4.072-2.693c0.468-0.309,0.943-0.559,1.694-0.332
	c-1.526,2.037-3.947,2.699-5.772,4.481c0.694,0.196,1.208,0.341,1.678,0.473c0.705-0.499,1.303-0.921,1.901-1.344
	c0.067,0.052,0.135,0.105,0.203,0.157c-0.33,0.592-0.66,1.185-1.028,1.845c1.391,1.119,2.4,2.468,2.461,4.428
	c2.945-0.52,5.805-0.281,8.524-1.209c0.857-0.292,1.752-0.495,2.645-0.653c0.442-0.078,0.917,0.04,1.676,0.089
	c-4.184,2.452-8.594,2.294-12.813,2.937c-0.1,0.588-0.177,1.048-0.275,1.633c0.563,0.032,1.036,0.111,1.5,0.077
	c1.907-0.141,3.812-0.324,5.718-0.47c0.33-0.025,0.667,0.057,1.001,0.088c-2.565,1.884-5.475,1.481-8.331,1.51
	c-0.087,0.424-0.151,0.734-0.252,1.22c1.327,0.164,2.542,0.339,3.764,0.457c1.223,0.118,2.486-0.002,3.864,0.6
	c-1.722,0.87-3.334,0.446-4.991,0.642c11.392,4.308,23.858-1.621,26.895-10.17c-1.124,1.343-2.252,2.684-3.37,4.032
	c-2.091,2.522-4.834,4.17-7.661,5.704c-0.415,0.225-0.823,0.26-1.127-0.437c0.438-0.301,0.875-0.647,1.353-0.92
	c3.283-1.867,6.146-4.237,8.471-7.212c2.878-3.684,4.624-7.916,5.757-12.415c0.134-0.529,0.032-1.117,0.041-1.677
	c0.616-0.135,0.599-0.563,0.315-1.083C141.493,126.454,141.4,126.826,141.308,127.197z M140.667,102.456
	c0.108-0.024,0.217-0.048,0.324-0.071c0-0.378,0.027-0.758-0.004-1.133c-0.174-2.094-0.317-4.176-0.681-6.267
	c-0.681-3.919-2.55-7.211-4.863-10.279c-1.844-2.447-4.032-4.599-6.39-6.592c-3.109-2.627-6.544-4.703-10.281-6.225
	c-2.393-0.974-4.771-1.849-6.949-3.327c-1.766-1.198-3.024-2.561-3.538-4.623c-0.186-0.742-0.431-1.471-0.696-2.188
	c-1.079-2.917-2.151-5.836-3.274-8.735c-0.742-1.916-1.558-3.803-2.362-5.693c-0.153-0.36-0.237-0.902-0.91-0.669
	c-0.026,0.117-0.104,0.26-0.076,0.379c0.105,0.465,0.215,0.934,0.375,1.383c1.37,3.849,2.291,7.798,2.698,11.865
	c0.23,2.3,0.233,4.589-0.391,6.841c-0.121,0.435-0.159,0.924-0.633,1.158c-0.315-3.676-0.565-7.283-0.95-10.876
	c-0.396-3.687-1.577-7.177-2.898-10.662c-0.298,0-0.556,0-0.935,0c0.069,0.551,0.1,1.019,0.188,1.474
	c0.642,3.285,1.333,6.561,1.935,9.853c0.476,2.601,0.711,5.22,0.052,7.841c-0.513,2.04-1.004,4.086-1.502,6.129
	c-0.046,0.188-0.074,0.38-0.109,0.571c-0.158-0.11-0.316-0.22-0.474-0.329c0.128-0.832,0.23-1.668,0.388-2.494
	c0.487-2.55,0.949-5.126,0.608-7.71c-0.512-3.889-1.192-7.756-1.859-11.622c-0.201-1.167-0.596-2.3-0.926-3.537
	c-0.392,0.041-0.741,0.077-1.106,0.114c0.263,1.573,0.557,3.028,0.739,4.498c0.283,2.277,0.49,4.565,0.727,6.848
	c0.329,3.17,0.386,6.298-1.336,9.175c-0.318,0.531-0.547,1.116-1.499,1.106c0.218-0.884,0.361-1.724,0.633-2.521
	c0.594-1.736,1.029-3.458,0.779-5.338c-0.271-2.038-0.34-4.102-0.525-6.151c-0.111-1.24-0.229-2.482-0.427-3.71
	c-0.196-1.212-0.497-2.407-0.745-3.574c-0.312-0.023-0.458-0.061-0.593-0.038c-0.134,0.023-0.256,0.108-0.391,0.169
	c0.935,5.923,1.391,11.84,0.578,17.982c-0.622-0.076-1.031-0.125-1.283-0.156c0.023-3.037,0.131-5.86,0.039-8.677
	c-0.079-2.388-0.367-4.771-0.616-7.15c-0.059-0.564-0.335-1.104-0.512-1.656c-0.13,0.019-0.26,0.037-0.389,0.055
	c-0.029,0.44-0.103,0.883-0.08,1.32c0.088,1.674,0.234,3.345,0.31,5.019c0.16,3.54,0.448,7.098-0.709,10.541
	c-0.297,0.885-0.634,1.846-1.235,2.52c-0.977,1.094-2.13,2.057-3.314,2.934c-1.031,0.764-2.224,1.305-3.315,1.992
	c-3.969,2.498-7.892,5.069-11.896,7.509c-3.366,2.052-6.596,4.266-9.277,7.173c-1.129,1.224-2.275,2.515-3.044,3.971
	c-2.787,5.281-4.312,10.84-2.997,16.871c0.053,0.243,0.225,0.459,0.379,0.763c0.093-0.205,0.155-0.288,0.166-0.377
	c0.697-5.616,2.65-10.863,4.755-16.059c0.583-1.443,1.751-2.497,2.749-3.689c-0.295,1.281-0.765,2.465-1.214,3.658
	c-0.572,1.52-1.24,3.016-1.666,4.576c-0.859,3.151-1.289,6.364-1.292,9.652c-0.004,3.38,0.38,6.687,1.284,9.935
	c0.141,0.508,0.413,0.979,0.624,1.467c0.1-0.034,0.201-0.068,0.301-0.102c-0.059-0.414-0.128-0.827-0.174-1.243
	c-0.22-1.996-0.449-3.991-0.631-5.991c-0.028-0.302,0.178-0.625,0.276-0.938c0.174-0.005,0.349-0.011,0.523-0.016
	c0.689,2.05,0.289,4.371,1.273,6.365c0.049-1.329-0.119-2.644-0.089-3.956c0.066-2.92,0.155-5.844,0.373-8.755
	c0.253-3.39,1.354-6.58,2.932-9.552c1.808-3.404,4.314-6.333,7.031-9.047c1.143-1.141,2.517-2.052,3.795-3.054
	c0.352-0.276,0.739-0.462,1.246,0.163c-1.759,1.195-3.135,2.756-4.415,4.406c-0.058,0.075-0.143,0.128-0.209,0.197
	c-0.906,0.922-1.888,1.783-2.701,2.782c-1.919,2.356-3.106,5.137-4.322,7.887c-0.667,1.507-1.013,3.111-0.962,4.751
	c0.083,2.676,0.107,5.372,0.465,8.017c0.363,2.693,1.152,5.326,1.658,8.003c0.625,3.309,2.076,6.257,3.801,9.09
	c0.469,0.77,1.05,1.498,1.693,2.128c2.009,1.965,4.402,3.389,6.931,4.562c1.176,0.546,2.428,1.005,3.917,0.781
	c-1.132-2.298-1.479-4.676-1.671-7.052c-0.278-3.429-0.668-6.89-0.472-10.306c0.247-4.288,0.966-8.556,1.613-12.812
	c0.656-4.316,1.792-8.553,3.352-12.608c1.818-4.724,4.028-9.302,6.194-13.884c0.744-1.573,1.703-3.084,2.974-4.426
	c0.37,0.207,0.631,0.353,0.879,0.492c-0.789,1.529-1.391,3.064-2.307,4.38c-1.222,1.757-2.111,3.669-2.802,5.639
	c-1.201,3.427-2.285,6.907-3.188,10.424c-0.771,3.007-1.29,6.084-1.795,9.151c-0.753,4.568-0.636,9.161-0.14,13.75
	c0.242,2.235,0.36,4.493,0.755,6.701c0.429,2.397,1.065,4.763,1.702,7.117c0.424,1.572,1.372,2.83,2.736,3.77
	c-0.313-1.422-0.863-2.748-1.179-4.127c-1.232-5.388-1.755-10.864-1.836-16.385c-0.078-5.289,0.242-10.555,1.554-15.687
	c1.232-4.818,2.72-9.571,4.105-14.35c0.038-0.128,0.194-0.222,0.401-0.447c0.03,3.241-1.042,6.099-1.675,9.02
	c-0.813,3.747-1.616,7.487-1.818,11.315c-0.153,2.912-0.08,5.836-0.115,8.755c-0.016,1.338-0.111,2.678-0.065,4.013
	c0.171,4.941,0.809,9.823,2.058,14.614c0.136,0.522,0.32,1.033,0.557,1.784c0.368-0.603,0.556-0.989,0.813-1.319
	c0.79-1.014,1.436-2.249,2.445-2.96c2.5-1.761,5.148-3.316,7.782-4.878c1.347-0.799,2.79-1.436,4.195-2.148
	c0.132-1.016,0.353-1.963,0.36-2.911c0.025-3.495,0.227-7.013-0.098-10.479c-0.445-4.756-1.312-9.473-1.985-14.208
	c-0.052-0.364-0.458-0.825,0.279-1.135c0.117,0.19,0.289,0.362,0.338,0.564c2.171,8.849,3.63,17.776,2.787,27.102
	c0.455-0.188,0.823-0.235,1.026-0.443c0.934-0.956,1.888-1.903,2.708-2.953c1.006-1.288,1.297-2.777,1.236-4.449
	c-0.175-4.858-1.01-9.61-2.047-14.333c-0.978-4.453-2.265-8.81-4.323-12.908c-0.364-0.725-0.594-1.516-0.923-2.26
	c-0.481-1.086-1-2.156-1.493-3.237c-0.054-0.119-0.049-0.266-0.092-0.524c0.336-0.116,0.664-0.228,0.94-0.323
	c1.243,1.022,1.555,2.41,2.092,3.679c0.445,1.055,0.763,2.241,1.469,3.094c2.289,2.767,3.958,5.919,5.294,9.163
	c2.472,6.003,4.896,12.056,6.039,18.646c2.718-0.157,5.095-1.12,7.406-2.524c-0.06-0.809-0.029-1.587-0.186-2.325
	c-0.625-2.948-1.191-5.916-1.998-8.815c-1.136-4.083-2.698-7.99-5.792-11.072c-0.168-0.168-0.323-0.356-0.457-0.553
	c-0.165-0.242-0.301-0.503-0.45-0.756c3.861,2.348,5.758,6.184,7.806,9.885c2.095,3.787,3.347,7.875,3.942,12.34
	c0.996-0.607,1.798-1.096,2.683-1.635c0.035-0.513,0.118-1.029,0.099-1.542c-0.18-4.842-1.712-9.321-3.953-13.537
	c-1.898-3.57-4.379-6.732-7.465-9.406c-3.367-2.916-6.696-5.864-10.874-7.615c-0.162-0.068-0.282-0.236-0.434-0.368
	c0.22-0.833,0.796-0.836,1.343-0.561c1.407,0.706,2.824,1.409,4.152,2.247c1.577,0.996,2.966,2.329,4.616,3.16
	c2.438,1.227,4.519,2.846,6.471,4.704c4.135,3.937,7.534,8.405,9.942,13.601C139.588,100.152,140.129,101.303,140.667,102.456z
	 M106.209,141.009c-1.063-0.627-2.02-1.083-3.193-1.158c0.254,0.413,0.457,0.743,0.657,1.069c-0.749,0.709-1.354,0.155-1.971,0.061
	c-0.693-0.106-1.399-0.24-2.106,0.194c0.107,0.446,0.202,0.848,0.311,1.306c1.438,0.013,2.834-0.687,4.394,0.074
	c-1.171,1.229-2.747,0.389-3.907,1.203c0.13,0.311,0.268,0.641,0.446,1.069c1.215-0.508,2.313-1.32,3.896-0.708
	c-1.01,1.101-2.488,0.893-3.411,1.679c0.404,0.823,0.798,1.584,1.153,2.362c0.317,0.696,0.873,1.006,1.592,1.014
	c0.51,0.005,1.021-0.083,1.719-0.146c0.136-2.165,0.266-4.232,0.394-6.263c-0.479-0.256-0.872-0.465-1.494-0.797
	C105.279,141.596,105.658,141.357,106.209,141.009z M99.617,139.798c0.768,0,1.536,0,2.303,0
	C101.148,139.673,100.405,139.048,99.617,139.798z"/>
<path class="stroke" fill="#693c11"  fill-rule="evenodd" clip-rule="evenodd" d="M77.167,125.92c-0.407,0.14-0.749,0.256-1.066,0.365
	c-0.102-0.148-0.184-0.217-0.201-0.299c-0.076-0.372-0.069-0.773-0.208-1.117c-1.263-3.103-1.657-6.369-1.8-9.672
	c-0.206-4.75,0.143-9.487,1.075-14.134c0.847-4.218,2.077-8.359,4.369-12.078c0.615-0.999,1.345-1.926,2.198-2.881
	c-0.056,0.321-0.079,0.652-0.171,0.962c-1.041,3.521-2.206,7.012-3.108,10.568c-0.797,3.146-1.531,6.338-1.892,9.556
	c-0.631,5.621-0.406,11.255,0.586,16.843C77.056,124.638,77.092,125.257,77.167,125.92z"/>
<path class="stroke" fill="#693c11"  fill-rule="evenodd" clip-rule="evenodd" d="M79.142,83.274c-0.483,1.27-0.889,2.576-1.469,3.8
	c-0.837,1.766-1.743,3.505-2.724,5.195c-1.367,2.353-2.012,4.948-2.731,7.526c-0.179,0.641-0.398,1.271-0.586,1.909
	c-0.107,0.362-0.253,0.727-0.275,1.098c-0.168,2.808-0.432,5.618-0.426,8.427c0.006,3.014,0.499,5.992,1.362,8.893
	c0.224,0.751,0.248,0.747-0.127,1.718c-0.99-1.499-1.395-3.146-1.852-4.771c-0.992-3.526-1.26-7.148-1.422-10.785
	c-0.113-2.53,0.541-4.947,1.239-7.322c0.631-2.148,1.5-4.237,2.393-6.295c0.51-1.174,1.218-2.278,1.945-3.34
	c1.421-2.077,2.917-4.102,4.383-6.148C78.949,83.21,79.045,83.242,79.142,83.274z"/>
<path class="stroke" fill="#693c11"  fill-rule="evenodd" clip-rule="evenodd" d="M96.422,94.014c-1.576,8.342-1.461,16.716-0.588,25.079
	c-1.052,0.372-1.557,0.256-1.879-0.608c-0.382-1.026-0.77-2.094-0.88-3.172c-0.491-4.796-0.215-9.567,0.824-14.278
	c0.442-2.004,0.995-3.984,1.524-5.968c0.112-0.419,0.344-0.807,0.521-1.209C96.104,93.91,96.263,93.962,96.422,94.014z"/>
<path class="stroke" fill="#693c11"  fill-rule="evenodd" clip-rule="evenodd" d="M89.942,68.494c-0.911,2.613-6.383,7.722-9.923,9.203
	c-0.22-0.196-0.481-0.429-0.74-0.66c0.433-1.078,1.398-1.411,2.161-1.938c2.361-1.629,4.637-3.35,6.611-5.45
	c0.499-0.53,1.114-0.953,1.675-1.425C89.798,68.315,89.87,68.405,89.942,68.494z"/>
<path class="stroke" fill="#693c11"  fill-rule="evenodd" clip-rule="evenodd" d="M66.806,87.784c-0.814-0.481-0.583-0.983-0.163-1.442
	c1.099-1.199,2.131-2.481,3.358-3.535c1.85-1.588,3.84-3.014,5.779-4.498c0.13-0.099,0.328-0.109,0.642-0.206
	c-0.242,1.43-1.176,2.142-2.103,2.875c-1.423,1.126-2.865,2.232-4.227,3.431c-0.894,0.788-1.658,1.724-2.485,2.588
	C67.353,87.264,67.082,87.515,66.806,87.784z"/>
<path class="stroke" fill="#693c11"  fill-rule="evenodd" clip-rule="evenodd" d="M84.724,80.208c-0.242-0.175-0.423-0.305-0.795-0.574
	c1.047-0.958,2.06-1.794,2.962-2.736c0.889-0.927,1.7-1.935,2.484-2.955c0.786-1.024,1.497-2.108,2.354-3.081
	C90.586,74.813,88.125,77.774,84.724,80.208z"/>
<path class="stroke" fill="#693c11"  fill-rule="evenodd" clip-rule="evenodd" d="M123.177,147.543c3.07-1.321,5.984-2.83,8.448-5.184
	c2.414-2.306,4.117-5.066,5.763-7.937c0.377,0.995,0.13,1.859-0.255,2.708c-1.068,2.349-2.769,4.209-4.539,6.042
	c-1.902,1.969-4.344,3.094-6.636,4.454c-0.517,0.306-1.173,0.413-1.781,0.511c-0.314,0.051-0.665-0.115-0.999-0.183
	C123.178,147.818,123.177,147.68,123.177,147.543z"/>
<path class="stroke" fill="#693c11"  fill-rule="evenodd" clip-rule="evenodd" d="M121.931,144.964c-0.17-0.257-0.315-0.476-0.459-0.694
	c1.679-1.135,3.337-2.161,4.887-3.331c1.596-1.205,3.141-2.492,4.606-3.852c1.413-1.312,2.697-2.762,4.225-4.345
	C134.404,136.049,126.109,143.608,121.931,144.964z"/>
<path class="stroke" fill="#693c11"  fill-rule="evenodd" clip-rule="evenodd" d="M117.578,139.131c0.017-0.236-0.043-0.504,0.063-0.641
	c0.203-0.255,0.472-0.497,0.765-0.637c3.949-1.893,7.05-4.917,10.325-7.71c0.032-0.028,0.086-0.03,0.13-0.044
	C128.221,132.556,120.775,138.563,117.578,139.131z"/>
<path class="stroke" fill="#693c11"  fill-rule="evenodd" clip-rule="evenodd" d="M127.419,144.024c-0.212-0.252-0.328-0.345-0.382-0.466
	c-0.055-0.122-0.048-0.271-0.096-0.592c1.237-0.71,2.514-1.445,3.792-2.179c0.07,0.1,0.141,0.199,0.21,0.299
	C130.016,142.349,129.054,143.571,127.419,144.024z"/>
<path class="stroke" fill="#693c11"  fill-rule="evenodd" clip-rule="evenodd" d="M127.746,134.176c-1.356,1.375-2.607,2.861-4.388,4.258
	c-0.041-0.65-0.136-0.906-0.054-1.076C123.625,136.7,126.526,134.562,127.746,134.176z"/>
<path class="stroke" fill="#693c11"  fill-rule="evenodd" clip-rule="evenodd" d="M118.137,149.48c-0.036-0.646-0.047-0.866-0.064-1.177
	c1.192-0.376,2.251-1.058,3.476-1.198c0.048,0.118,0.096,0.236,0.145,0.354C120.59,148.086,119.488,148.712,118.137,149.48z"/>
<path class="stroke" fill="#693c11"  fill-rule="evenodd" clip-rule="evenodd" d="M136.394,131.111c0.012-1.231,0.937-1.752,1.69-2.41
	C137.686,129.626,137.41,130.635,136.394,131.111z"/>
<path class="stroke" fill="#693c11"  fill-rule="evenodd" clip-rule="evenodd" d="M102.559,146.978c0.749-1.261,1.224-1.465,2.693-1.169
	c0.131,0.889-0.706,0.851-1.146,1.176C103.594,147.364,103.078,147.375,102.559,146.978z"/>
<path fill-rule="evenodd" clip-rule="evenodd" fill="#faf0e5" class="fill" d="M140.667,102.456c-0.538-1.152-1.079-2.304-1.615-3.458
	c-2.409-5.196-5.807-9.664-9.942-13.601c-1.952-1.858-4.034-3.477-6.471-4.704c-1.65-0.831-3.039-2.164-4.616-3.16
	c-1.328-0.838-2.745-1.542-4.152-2.247c-0.547-0.275-1.123-0.272-1.343,0.561c0.152,0.132,0.272,0.3,0.434,0.368
	c4.178,1.75,7.507,4.699,10.874,7.615c3.086,2.674,5.567,5.836,7.465,9.406c2.241,4.216,3.773,8.695,3.953,13.537
	c0.019,0.513-0.063,1.029-0.099,1.542c-0.884,0.539-1.687,1.028-2.683,1.635c-0.596-4.465-1.847-8.553-3.942-12.34
	c-2.048-3.701-3.945-7.537-7.806-9.885c0.149,0.253,0.286,0.514,0.45,0.756c0.134,0.197,0.288,0.385,0.457,0.553
	c3.094,3.082,4.656,6.989,5.792,11.072c0.807,2.9,1.373,5.868,1.998,8.815c0.157,0.738,0.126,1.516,0.186,2.325
	c-2.311,1.405-4.688,2.368-7.406,2.524c-1.143-6.589-3.567-12.643-6.039-18.646c-1.335-3.244-3.005-6.396-5.294-9.163
	c-0.706-0.854-1.024-2.039-1.469-3.094c-0.537-1.269-0.849-2.657-2.092-3.679c-0.276,0.095-0.604,0.207-0.94,0.323
	c0.043,0.258,0.038,0.405,0.092,0.524c0.493,1.081,1.012,2.151,1.493,3.237c0.329,0.744,0.559,1.535,0.923,2.26
	c2.058,4.098,3.345,8.456,4.323,12.908c1.038,4.724,1.873,9.476,2.047,14.333c0.061,1.672-0.23,3.162-1.236,4.449
	c-0.82,1.05-1.774,1.998-2.708,2.953c-0.203,0.208-0.571,0.255-1.026,0.443c0.843-9.325-0.616-18.252-2.787-27.102
	c-0.05-0.202-0.222-0.375-0.338-0.564c-0.737,0.31-0.331,0.771-0.279,1.135c0.674,4.735,1.541,9.451,1.985,14.208
	c0.325,3.466,0.124,6.984,0.098,10.479c-0.007,0.948-0.228,1.895-0.36,2.911c-1.405,0.712-2.849,1.349-4.195,2.148
	c-2.634,1.562-5.282,3.117-7.782,4.878c-1.01,0.711-1.655,1.946-2.445,2.96c-0.258,0.33-0.446,0.716-0.813,1.319
	c-0.236-0.751-0.42-1.262-0.557-1.784c-1.249-4.792-1.887-9.673-2.058-14.614c-0.046-1.335,0.05-2.675,0.065-4.013
	c0.035-2.918-0.039-5.843,0.115-8.755c0.202-3.829,1.004-7.568,1.818-11.315c0.633-2.921,1.705-5.779,1.675-9.02
	c-0.207,0.226-0.363,0.319-0.401,0.447c-1.385,4.778-2.873,9.531-4.105,14.35c-1.312,5.132-1.632,10.398-1.554,15.687
	c0.082,5.521,0.604,10.997,1.836,16.385c0.315,1.379,0.866,2.705,1.179,4.127c-1.364-0.939-2.312-2.198-2.736-3.77
	c-0.637-2.354-1.273-4.72-1.702-7.117c-0.395-2.208-0.513-4.465-0.755-6.701c-0.496-4.589-0.613-9.183,0.14-13.75
	c0.505-3.067,1.023-6.145,1.795-9.151c0.903-3.517,1.987-6.997,3.188-10.424c0.69-1.97,1.58-3.881,2.802-5.639
	c0.916-1.316,1.518-2.852,2.307-4.38c-0.249-0.139-0.51-0.285-0.879-0.492c-1.271,1.342-2.23,2.853-2.974,4.426
	c-2.166,4.582-4.376,9.161-6.194,13.884c-1.559,4.055-2.696,8.292-3.352,12.608c-0.647,4.257-1.367,8.524-1.613,12.812
	c-0.196,3.416,0.193,6.877,0.472,10.306c0.193,2.376,0.54,4.754,1.671,7.052c-1.488,0.224-2.741-0.235-3.917-0.781
	c-2.529-1.173-4.922-2.597-6.931-4.562c-0.644-0.63-1.225-1.359-1.693-2.128c-1.726-2.833-3.176-5.782-3.801-9.09
	c-0.506-2.677-1.294-5.31-1.658-8.003c-0.357-2.646-0.382-5.341-0.465-8.017c-0.051-1.64,0.295-3.244,0.962-4.751
	c1.216-2.75,2.403-5.531,4.322-7.887c0.813-0.999,1.795-1.859,2.701-2.782c0.067-0.068,0.151-0.122,0.209-0.197
	c1.28-1.65,2.656-3.211,4.415-4.406c-0.507-0.625-0.894-0.438-1.246-0.163c-1.279,1.002-2.653,1.913-3.795,3.054
	c-2.717,2.715-5.223,5.643-7.031,9.047c-1.579,2.972-2.679,6.162-2.932,9.552c-0.217,2.912-0.307,5.835-0.373,8.755
	c-0.029,1.312,0.139,2.626,0.089,3.956c-0.985-1.995-0.584-4.315-1.273-6.365c-0.174,0.005-0.349,0.011-0.523,0.016
	c-0.098,0.313-0.304,0.636-0.276,0.938c0.182,2,0.411,3.995,0.631,5.991c0.046,0.416,0.115,0.829,0.174,1.243
	c-0.1,0.034-0.201,0.068-0.301,0.102c-0.211-0.488-0.482-0.959-0.624-1.467c-0.904-3.248-1.288-6.555-1.284-9.935
	c0.004-3.288,0.433-6.501,1.292-9.652c0.426-1.561,1.093-3.056,1.666-4.576c0.449-1.193,0.919-2.377,1.214-3.658
	c-0.998,1.192-2.165,2.246-2.749,3.689c-2.104,5.196-4.058,10.443-4.755,16.059c-0.011,0.089-0.073,0.172-0.166,0.377
	c-0.154-0.304-0.326-0.521-0.379-0.763c-1.315-6.031,0.21-11.59,2.997-16.871c0.769-1.456,1.915-2.747,3.044-3.971
	c2.681-2.907,5.911-5.121,9.277-7.173c4.004-2.439,7.927-5.011,11.896-7.509c1.092-0.687,2.285-1.229,3.315-1.992
	c1.184-0.877,2.337-1.84,3.314-2.934c0.601-0.674,0.938-1.634,1.235-2.52c1.157-3.443,0.869-7.001,0.709-10.541
	c-0.075-1.674-0.221-3.345-0.31-5.019c-0.023-0.438,0.051-0.88,0.08-1.32c0.129-0.018,0.259-0.037,0.389-0.055
	c0.176,0.552,0.453,1.092,0.512,1.656c0.25,2.379,0.537,4.762,0.616,7.15c0.092,2.817-0.016,5.64-0.039,8.677
	c0.252,0.03,0.661,0.08,1.283,0.156c0.813-6.142,0.357-12.059-0.578-17.982c0.135-0.061,0.257-0.146,0.391-0.169
	c0.135-0.023,0.28,0.014,0.593,0.038c0.248,1.167,0.549,2.362,0.745,3.574c0.199,1.228,0.316,2.47,0.427,3.71
	c0.185,2.05,0.254,4.114,0.525,6.151c0.25,1.881-0.185,3.602-0.779,5.338c-0.272,0.796-0.416,1.636-0.633,2.521
	c0.952,0.009,1.181-0.575,1.499-1.106c1.722-2.877,1.666-6.005,1.336-9.175c-0.236-2.283-0.444-4.571-0.727-6.848
	c-0.182-1.469-0.477-2.924-0.739-4.498c0.365-0.038,0.715-0.074,1.106-0.114c0.33,1.237,0.725,2.37,0.926,3.537
	c0.667,3.866,1.348,7.733,1.859,11.622c0.34,2.584-0.122,5.16-0.608,7.71c-0.158,0.826-0.26,1.662-0.388,2.494
	c0.158,0.109,0.316,0.219,0.474,0.329c0.036-0.191,0.063-0.383,0.109-0.571c0.498-2.043,0.989-4.089,1.502-6.129
	c0.659-2.621,0.424-5.24-0.052-7.841c-0.602-3.292-1.293-6.568-1.935-9.853c-0.088-0.456-0.119-0.923-0.188-1.474
	c0.379,0,0.637,0,0.935,0c1.321,3.485,2.502,6.976,2.898,10.662c0.385,3.593,0.634,7.2,0.95,10.876
	c0.474-0.234,0.513-0.723,0.633-1.158c0.624-2.252,0.622-4.541,0.391-6.841c-0.408-4.066-1.329-8.016-2.698-11.865
	c-0.16-0.449-0.269-0.917-0.375-1.383c-0.027-0.119,0.05-0.262,0.076-0.379c0.673-0.233,0.756,0.31,0.91,0.669
	c0.804,1.891,1.62,3.777,2.362,5.693c1.123,2.899,2.195,5.818,3.274,8.735c0.265,0.717,0.511,1.447,0.696,2.188
	c0.514,2.062,1.772,3.425,3.538,4.623c2.178,1.478,4.556,2.353,6.949,3.327c3.737,1.521,7.172,3.597,10.281,6.225
	c2.357,1.993,4.546,4.145,6.39,6.592c2.313,3.068,4.183,6.36,4.863,10.279c0.363,2.09,0.506,4.173,0.681,6.267
	c0.031,0.375,0.004,0.755,0.004,1.133C140.884,102.408,140.775,102.432,140.667,102.456z M77.167,125.92
	c-0.074-0.663-0.11-1.282-0.218-1.887c-0.992-5.587-1.218-11.222-0.586-16.843c0.361-3.217,1.095-6.41,1.892-9.556
	c0.902-3.557,2.067-7.047,3.108-10.568c0.092-0.311,0.115-0.641,0.171-0.962c-0.853,0.955-1.583,1.883-2.198,2.881
	c-2.292,3.719-3.522,7.86-4.369,12.078c-0.933,4.647-1.281,9.383-1.075,14.134c0.143,3.303,0.538,6.569,1.8,9.672
	c0.14,0.344,0.132,0.746,0.208,1.117c0.017,0.082,0.099,0.151,0.201,0.299C76.418,126.176,76.76,126.06,77.167,125.92z
	 M79.142,83.274c-0.097-0.032-0.193-0.064-0.291-0.096c-1.465,2.046-2.962,4.071-4.383,6.148c-0.727,1.062-1.435,2.166-1.945,3.34
	c-0.894,2.059-1.762,4.147-2.393,6.295c-0.698,2.375-1.352,4.792-1.239,7.322c0.162,3.637,0.43,7.259,1.422,10.785
	c0.457,1.625,0.861,3.272,1.852,4.771c0.375-0.971,0.351-0.966,0.127-1.718c-0.863-2.901-1.356-5.879-1.362-8.893
	c-0.006-2.809,0.258-5.619,0.426-8.427c0.022-0.371,0.167-0.736,0.275-1.098c0.188-0.638,0.407-1.268,0.586-1.909
	c0.719-2.578,1.364-5.173,2.731-7.526c0.981-1.69,1.887-3.43,2.724-5.195C78.253,85.85,78.659,84.543,79.142,83.274z M96.422,94.014
	c-0.159-0.052-0.318-0.104-0.477-0.157c-0.177,0.402-0.409,0.79-0.521,1.209c-0.53,1.984-1.082,3.964-1.524,5.968
	c-1.039,4.711-1.315,9.482-0.824,14.278c0.11,1.078,0.498,2.146,0.88,3.172c0.322,0.864,0.827,0.98,1.879,0.608
	C94.96,110.73,94.846,102.356,96.422,94.014z M89.942,68.494c-0.072-0.089-0.144-0.179-0.216-0.269
	c-0.561,0.472-1.176,0.895-1.675,1.425c-1.974,2.1-4.25,3.821-6.611,5.45c-0.763,0.527-1.729,0.86-2.161,1.938
	c0.259,0.231,0.52,0.464,0.74,0.66C83.56,76.215,89.031,71.107,89.942,68.494z M66.806,87.784c0.275-0.269,0.547-0.52,0.802-0.786
	c0.827-0.864,1.591-1.801,2.485-2.588c1.361-1.199,2.804-2.305,4.227-3.431c0.926-0.733,1.86-1.445,2.103-2.875
	c-0.314,0.097-0.512,0.107-0.642,0.206c-1.938,1.484-3.929,2.909-5.779,4.498c-1.227,1.054-2.259,2.335-3.358,3.535
	C66.223,86.8,65.992,87.303,66.806,87.784z M84.724,80.208c3.401-2.434,5.862-5.394,7.004-9.345
	c-0.856,0.973-1.567,2.056-2.354,3.081c-0.784,1.02-1.595,2.028-2.484,2.955c-0.902,0.941-1.915,1.778-2.962,2.736
	C84.301,79.902,84.482,80.033,84.724,80.208z"/>
<path fill-rule="evenodd" clip-rule="evenodd" fill="#faf0e5" class="fill" d="M141.268,127.164c-0.007,0.562,0.095,1.149-0.039,1.679
	c-1.134,4.499-2.879,8.73-5.757,12.415c-2.325,2.976-5.188,5.346-8.471,7.212c-0.479,0.272-0.915,0.619-1.353,0.92
	c0.304,0.697,0.712,0.661,1.127,0.437c2.827-1.533,5.569-3.181,7.661-5.704c1.118-1.348,2.247-2.688,3.37-4.032
	c-3.036,8.55-15.502,14.479-26.895,10.171c1.656-0.196,3.269,0.228,4.991-0.642c-1.377-0.602-2.641-0.482-3.864-0.6
	c-1.222-0.118-2.437-0.293-3.764-0.457c0.101-0.485,0.165-0.796,0.252-1.22c2.856-0.029,5.765,0.374,8.331-1.51
	c-0.334-0.032-0.672-0.114-1.001-0.088c-1.907,0.146-3.811,0.329-5.718,0.47c-0.464,0.034-0.937-0.045-1.5-0.077
	c0.099-0.585,0.176-1.045,0.275-1.633c4.219-0.642,8.63-0.484,12.813-2.937c-0.759-0.049-1.234-0.167-1.676-0.089
	c-0.893,0.158-1.788,0.36-2.645,0.653c-2.72,0.928-5.579,0.689-8.524,1.209c-0.061-1.959-1.07-3.309-2.461-4.428
	c0.368-0.66,0.698-1.253,1.028-1.845c-0.067-0.052-0.135-0.105-0.203-0.157c-0.598,0.423-1.196,0.845-1.901,1.344
	c-0.469-0.132-0.983-0.277-1.678-0.473c1.825-1.782,4.246-2.444,5.772-4.481c-0.75-0.228-1.226,0.023-1.694,0.332
	c-1.358,0.896-2.739,1.761-4.072,2.693c-1.129,0.789-2.311,1.091-3.781,0.667c0.141-0.309,0.228-0.606,0.395-0.85
	c2.164-3.164,5.076-5.603,7.969-8.033c3.749-3.149,7.885-5.75,12.112-8.214c4.424-2.58,8.792-5.255,13.187-7.884
	c0.61-0.364,1.218-0.774,2.127-0.544c-1.148,1.301-2.237,2.536-3.503,3.971c1.465-0.364,2.199-1.348,3.068-2.095
	c0.829-0.71,1.558-1.538,2.428-2.247c-0.001,0.81-0.334,1.479-0.811,2.05c-1.377,1.651-2.792,3.27-4.194,4.9
	c-0.332,0.385-0.67,0.763-0.935,1.222c1.651-0.678,2.656-2.165,4.131-3.33c-0.049,0.324-0.03,0.521-0.108,0.665
	c-1.955,3.588-4.122,7.059-6.977,9.983c-2.236,2.29-4.691,4.389-7.197,6.387c-2.164,1.725-4.504,3.236-6.829,4.745
	c-1.073,0.696-2.301,1.151-3.448,1.74c-0.231,0.119-0.409,0.344-0.645,0.549c0.596,0.632,1.172,0.433,1.764,0.205
	c4.445-1.713,8.213-4.468,11.729-7.612c1.428-1.276,2.853-2.557,4.27-3.846c2.786-2.537,5.008-5.529,7.015-8.696
	c0.229-0.36,0.5-0.692,0.948-0.965c-0.074,0.309-0.115,0.631-0.228,0.926c-0.944,2.465-2.046,4.848-3.559,7.028
	c-0.396,0.571-0.691,1.21-1.02,1.794c0.628,0.566,0.906,0.146,1.154-0.184c0.834-1.108,1.671-2.217,2.457-3.359
	c0.838-1.218,1.636-2.464,2.42-3.717c0.473-0.754,0.887-1.543,1.353-2.361c0.031,1.216-1.886,6.291-3.19,8.183
	c-1.632,2.368-3.36,4.668-4.9,7.112c2.284-2.082,4.068-4.583,6.037-6.924c1.992-2.37,3.068-5.24,4.426-7.994
	c0.012,1.947-0.243,3.829-0.912,5.662c-0.654,1.793-1.44,3.549-2.017,5.368c0.152,0.08,0.305,0.159,0.457,0.239
	c0.258-0.288,0.562-0.545,0.765-0.867c0.582-0.92,1.123-1.865,1.68-2.801L141.268,127.164z M123.177,147.543
	c0,0.137,0.001,0.274,0.001,0.411c0.334,0.068,0.685,0.234,0.999,0.183c0.608-0.099,1.265-0.206,1.781-0.511
	c2.292-1.359,4.733-2.484,6.636-4.454c1.77-1.832,3.471-3.692,4.539-6.042c0.386-0.849,0.633-1.713,0.255-2.708
	c-1.646,2.871-3.349,5.63-5.763,7.937C129.161,144.714,126.247,146.223,123.177,147.543z M121.931,144.964
	c4.178-1.356,12.473-8.915,13.258-12.222c-1.528,1.583-2.812,3.034-4.225,4.345c-1.466,1.36-3.011,2.647-4.606,3.852
	c-1.549,1.17-3.208,2.196-4.887,3.331C121.616,144.489,121.761,144.708,121.931,144.964z M117.578,139.131
	c3.198-0.568,10.643-6.575,11.283-9.032c-0.044,0.014-0.098,0.016-0.13,0.044c-3.274,2.793-6.375,5.817-10.325,7.71
	c-0.292,0.14-0.562,0.381-0.765,0.637C117.534,138.626,117.595,138.895,117.578,139.131z M127.419,144.024
	c1.634-0.453,2.597-1.675,3.524-2.938c-0.07-0.1-0.14-0.199-0.21-0.299c-1.278,0.734-2.555,1.469-3.792,2.179
	c0.048,0.321,0.041,0.47,0.096,0.592C127.092,143.679,127.208,143.772,127.419,144.024z M127.746,134.176
	c-1.22,0.385-4.121,2.524-4.441,3.183c-0.082,0.169,0.013,0.425,0.054,1.076C125.139,137.038,126.39,135.552,127.746,134.176z
	 M118.137,149.48c1.352-0.768,2.454-1.394,3.556-2.021c-0.048-0.118-0.097-0.236-0.145-0.354c-1.225,0.141-2.283,0.822-3.476,1.198
	C118.089,148.614,118.101,148.834,118.137,149.48z M136.394,131.111c1.017-0.476,1.292-1.485,1.69-2.41
	C137.331,129.358,136.405,129.88,136.394,131.111z"/>
<path fill-rule="evenodd" clip-rule="evenodd" fill="#faf0e5" class="fill" d="M106.209,141.009c-0.552,0.349-0.93,0.587-1.519,0.959
	c0.623,0.332,1.015,0.542,1.494,0.797c-0.128,2.031-0.258,4.099-0.394,6.263c-0.699,0.063-1.209,0.15-1.719,0.146
	c-0.719-0.008-1.275-0.318-1.592-1.014c-0.355-0.778-0.749-1.539-1.153-2.362c0.923-0.786,2.401-0.578,3.411-1.679
	c-1.583-0.612-2.681,0.199-3.896,0.708c-0.178-0.428-0.316-0.758-0.446-1.069c1.16-0.814,2.736,0.026,3.907-1.203
	c-1.56-0.761-2.957-0.061-4.394-0.074c-0.109-0.458-0.204-0.86-0.311-1.306c0.707-0.434,1.413-0.3,2.106-0.194
	c0.617,0.094,1.222,0.648,1.971-0.061c-0.201-0.327-0.403-0.656-0.657-1.069C104.189,139.926,105.146,140.381,106.209,141.009z
	 M102.559,146.978c0.519,0.397,1.035,0.386,1.547,0.007c0.44-0.325,1.277-0.287,1.146-1.176
	C103.783,145.513,103.308,145.717,102.559,146.978z"/>
<path fill-rule="evenodd" clip-rule="evenodd" fill="#faf0e5" class="fill" d="M99.617,139.798c0.788-0.75,1.531-0.125,2.303,0
	C101.153,139.798,100.385,139.798,99.617,139.798z"/>
<path fill-rule="evenodd" clip-rule="evenodd" fill="#faf0e5" class="fill" d="M141.308,127.197c0.092-0.372,0.185-0.743,0.277-1.115
	c0.284,0.52,0.301,0.947-0.316,1.082C141.268,127.164,141.308,127.197,141.308,127.197z"/>
</svg>
