<svg version="1.1" id="svg" xmlns="http://www.w3.org/2000/svg" xmlns:xlink="http://www.w3.org/1999/xlink" x="0px" y="0px"
	 width="200px" height="200px" viewBox="0 0 200 200" enable-background="new 0 0 200 200" xml:space="preserve">
<g>
	<path class="stroke" fill="#531863"  d="M87.807,99.344c-1.083,0.185-2.16,0.421-3.222,0.7c-0.697,0.183-1.362,0.488-1.998,0.723
		c-0.278,0.826-0.509,1.516-0.745,2.218c0.321,0.71,0.62,1.375,0.929,2.057c-0.137,0.578-0.279,1.183-0.405,1.716
		c1.885,2.366,4.759,2.964,6.859,1.402c0.765-0.568,1.345-1.386,2.056-2.14c1.001,0.692,0.938,2.002,1.654,2.957
		c-0.604,2.18-1.204,4.341-1.847,6.656c0.761,1.466,1.711,2.944,3.444,3.912c3.034-0.197,4.219-2.401,5.13-4.845
		c-0.188-1.143-0.582-2.096-1.567-2.661c-0.151-0.088-0.456,0.091-0.873,0.191c0.335,0.866,0.63,1.624,0.915,2.359
		c-0.505,1.365-1.579,1.959-2.801,2.397c-1.146-0.225-2.044-0.776-2.714-1.743c0.092-0.279,0.175-0.523,0.251-0.77
		c1.024-3.319,1.884-6.671,1.571-10.187C94.13,100.739,91.374,98.735,87.807,99.344z M87.64,107.563
		c-1.421,0.406-2.644-0.155-3.718-1.264c1.312-2.183,3.822-2.828,5.724-1.581C89.64,106.128,88.983,107.178,87.64,107.563z"/>
	<path class="stroke" fill="#531863"  d="M159.585,44.132c1.364,0.52,1.481,0.472,2.05-0.72C160.461,43.215,160.461,43.215,159.585,44.132z"/>
	<path class="stroke" fill="#531863"  d="M131.76,52.487c-1.298-0.301-1.727,0.771-2.645,1.485C130.479,54.271,131.064,53.905,131.76,52.487z"/>
	<path class="stroke" fill="#531863"  d="M161.446,41.474c-0.961-2.743-3.566-2.705-5.868-3.534c1.595-0.629,3.133,0.438,4.442-0.565
		c-1.277-1.185-2.948-1.328-7.882-0.654c-0.692,0.094-1.603-0.023-2.012,1.191c0.797,0.046,1.453,0.084,2.195,0.127
		c-0.568,0.435-1.042,0.797-1.569,1.2c0.338,0.441,0.576,0.752,0.776,1.013c-0.274,0.309-0.503,0.568-0.699,0.79
		c0.071,0.198,0.076,0.33,0.145,0.386c1.738,1.429,3.777,2.208,5.943,2.668c0.6,0.127,1.23,0.029,1.662-0.776
		c-1.026-0.302-1.976-0.581-2.924-0.859C157.581,42.129,159.562,42.995,161.446,41.474z M157.928,39.87
		c0.621,0.403,1.023,0.664,1.426,0.924c-0.028,0.097-0.057,0.194-0.085,0.292c-0.518,0-1.036,0-1.68,0
		C157.693,40.711,157.77,40.437,157.928,39.87z M154.597,41.95c-0.25-0.123-0.5-0.246-0.751-0.37c0.03-0.066,0.06-0.133,0.09-0.199
		c0.255,0.116,0.509,0.232,0.764,0.348C154.665,41.803,154.632,41.877,154.597,41.95z"/>
	<path class="stroke" fill="#531863"  d="M160.68,38.105c-0.009,0.139-0.017,0.278-0.024,0.417c0.266,0.22,0.531,0.44,0.788,0.652
		c-0.032,0.307-0.062,0.594-0.088,0.855c0.712,0.482,1.194,0.348,1.606-0.403c-0.294-0.241-0.551-0.453-0.791-0.649
		c0.146-0.316,0.285-0.621,0.571-1.243C161.86,37.893,161.271,37.999,160.68,38.105z"/>
	<path class="stroke" fill="#531863"  d="M156.34,50.389c1.16,0.668,2.177,1.274,3.394,0.874c0.052-0.146,0.103-0.292,0.152-0.438
		c-0.852-0.412-1.704-0.823-2.732-1.321C156.846,49.839,156.628,50.076,156.34,50.389z"/>
	<path class="stroke" fill="#531863"  d="M150.636,43.613c1.37,1.052,1.51,1.076,2.589,0.352C151.589,42.737,151.383,42.716,150.636,43.613z"/>
	<path class="stroke" fill="#531863"  d="M151.527,64.43c0.254,0.19,0.449,0.338,0.751,0.566c1.306-0.854,1.792-1.923,1.78-3.238
		c-0.103-0.068-0.205-0.137-0.309-0.206C153.025,62.491,152.3,63.43,151.527,64.43z"/>
	<path class="stroke" fill="#531863"  d="M153.668,58.159c0.465,0.834,0.215,1.849,1.217,2.396c0.78-1.042,0.412-1.951-0.104-3.042
		C154.377,57.748,154.062,57.931,153.668,58.159z"/>
	<path class="stroke" fill="#531863"  d="M87.58,117.93c-0.036-0.086-0.148-0.139-0.38-0.344c-0.298,0.163-0.654,0.359-0.977,0.536
		c1.294,4.226,5.905,6.594,10.92,5.704c3.389-0.601,6.946-4.138,6.688-7.091c-0.603,0.578-0.994,0.885-1.299,1.262
		c-0.525,0.649-0.993,1.345-1.491,2.017c-0.697,0.94-1.521,1.727-2.642,2.15C94.242,123.733,89.412,122.236,87.58,117.93z"/>
	<path class="stroke" fill="#531863"  d="M159.655,48.903c-0.235,0.061-0.412,0.346-0.72,0.624c0.854,0.544,1.527,1.074,2.407,0.293
		C160.551,49.037,160.147,48.776,159.655,48.903z"/>
	<path class="stroke" fill="#531863"  d="M101.753,105.247c1.269,0.41,1.408,0.341,2.189-1.155c-0.28-0.263-0.595-0.556-0.878-0.82
		C102.05,103.604,101.403,104.029,101.753,105.247z"/>
	<path class="stroke" fill="#531863"  d="M135.032,36.939c-2.763-0.479-5.157,0.383-7.704,1.824c0.559,0.316,0.848,0.479,1.17,0.663
		C130.524,38.087,133.034,38.248,135.032,36.939z"/>
	<path class="stroke" fill="#531863"  d="M132.786,31.201c2.496-0.533,4.999-0.479,7.493-0.075c2.582,0.418,5.093,0.236,7.608-0.474
		c1.655-0.466,3.361-0.759,5.054-1.086c1.125-0.218,2.266-0.352,3.397-0.54c0.145-0.024,0.271-0.149,0.456-0.257
		c-0.212-0.38-0.35-0.627-0.482-0.862c-2.442-0.148-4.777,0.081-7.088,0.545c-1.537,0.309-3.046,0.771-4.589,1.036
		c-0.903,0.155-1.872,0.195-2.773,0.049c-3.519-0.573-6.983-0.224-10.439,0.438c-0.538,0.103-1.192,0.112-1.3,1.014
		C130.951,31.574,131.886,31.394,132.786,31.201z"/>
	<path class="stroke" fill="#531863"  d="M135.68,44.635c1.354,0.336,1.769-0.018,2.11-1.592C136.504,42.753,136.301,43.817,135.68,44.635z"/>
	<path class="stroke" fill="#531863"  d="M106.67,119.622c0.357-0.232,0.639-0.416,0.983-0.642c-0.31-2.046-1.567-3.243-2.88-4.353
		c-0.618-0.522-1.473-0.555-2.232-0.207c-0.25,0.114-0.388,0.473-0.803,1.013C105.069,115.118,105.447,117.769,106.67,119.622z"/>
	<path class="stroke" fill="#531863"  d="M127.783,41.022C126.84,40,126.84,40,126.039,40.925C126.555,41.34,127.054,41.546,127.783,41.022z"/>
	<path class="stroke" fill="#531863"  d="M134.258,43.065c-1.134,1.69-2.835,2.088-4.049,3.134c0.814,0.67,0.856,0.695,1.36,0.495
		c2.62-1.047,4.348-3.031,5.652-5.44c0.1-0.183-0.008-0.479-0.021-0.779c-0.444,0.02-0.798,0.036-1.176,0.052
		c-0.1-0.287-0.199-0.574-0.305-0.876c-0.287-0.111-0.569-0.221-0.834-0.324c0.179-0.424,0.343-0.816,0.509-1.215
		c-0.254-0.089-0.379-0.18-0.443-0.149c-1.825,0.896-3.659,1.775-5.452,2.732c-0.316,0.169-0.48,0.653-0.673,1.014
		c-0.165,0.309-0.271,0.649-0.399,0.965c-0.875,0.192-1.881-0.247-2.613,0.985c0.801,0.066,1.404,0.116,2.135,0.176
		c-0.634,0.668-1.764,0.731-1.822,1.78c1.092,0.622,1.532-0.5,2.293-0.721C130.638,45.662,132.167,43.941,134.258,43.065z
		 M130.407,42.85c0.058,0.073,0.116,0.147,0.174,0.222c-0.19,0.151-0.381,0.303-0.571,0.454c-0.058-0.074-0.116-0.148-0.174-0.223
		C130.026,43.151,130.217,43.001,130.407,42.85z"/>
	<path class="stroke" fill="#531863"  d="M138.729,25.931c3.865,0.672,7.707,0.254,11.557-0.049c0.598-0.047,0.99-0.281,0.954-1.167
		c-0.658-0.036-1.309-0.131-1.95-0.094c-2.71,0.157-5.398,0.512-8.133,0.094c-1.423-0.217-2.912-0.07-4.365,0.011
		c-0.905,0.052-1.809,0.273-2.533,1.474c0.742-0.042,1.215-0.064,1.688-0.098C136.876,26.038,137.838,25.777,138.729,25.931z"/>
	<path class="stroke" fill="#531863"  d="M89.493,115.294c0.231-0.151,0.401-0.399,0.809-0.82c-0.519-0.125-0.743-0.26-0.894-0.204
		c-2.267,0.863-4.463,1.868-5.882,3.959c-0.364,0.538-0.572,1.24-0.66,1.893c-0.104,0.76,0.303,1.158,1.217,0.918
		c0.199-2.436,1.783-3.782,3.782-4.801C88.424,115.955,88.968,115.635,89.493,115.294z"/>
	<path class="stroke" fill="#531863"  d="M140.879,32.676c-0.155,1.606,0.41,2.188,1.721,1.769C142.185,32.959,141.912,32.679,140.879,32.676z"/>
	<path class="stroke" fill="#531863"  d="M143.12,34.308c0.522,0.135,0.834,0.215,1.25,0.323c0.342-0.825,0.648-1.431-0.191-2.153
		C143.823,33.092,143.514,33.627,143.12,34.308z"/>
	<path class="stroke" fill="#531863"  d="M149.238,70.46c1.251-0.549,2.354-1.25,2.931-2.95c-1.644,0.951-2.996,1.733-4.354,2.519
		C148.241,70.778,148.727,70.684,149.238,70.46z"/>
	<path class="stroke" fill="#531863"  d="M86.121,106.476c0.752,0.352,1.443,0.121,1.939-0.44c0.213-0.24,0.104-0.767,0.141-1.172
		C86.017,104.752,85.702,105.025,86.121,106.476z"/>
	<path class="stroke" fill="#531863"  d="M136.474,61.637c-0.45,0.052-0.801,0.093-1.101,0.128c0,0.751,0,1.347,0,1.938c0.311,0.075,0.629,0.15,1.101,0.262
		C136.474,63.145,136.474,62.475,136.474,61.637z"/>
	<path class="stroke" fill="#531863"  d="M155.507,116.439c-0.522,0.303-1.039,0.604-1.586,0.921c-0.602-1.003-1.08-2.017-2.281-2.455
		c-0.27,0.251-0.552,0.475-0.784,0.741c-0.227,0.26-0.401,0.564-0.593,0.839c-0.781-0.503-1.47-0.947-2.402-1.549
		c-1.105,0.749-2.083,1.411-3.238,2.193c-0.409-0.162-1.069-0.848-1.748,0.07c0.279,1.391,1.727,1.676,2.352,2.355
		c0.472,0.941,0.748,1.692,1.19,2.327c0.829,1.192,1.974,1.856,3.492,1.673c1.511-0.183,2.062-1.283,2.429-2.552
		c0.132-0.449,0.243-0.903,0.323-1.202c1.03-0.736,1.94-1.35,2.809-2.021C155.905,117.443,156.18,116.997,155.507,116.439z
		 M150.414,121.871c-1.795,0.469-2.36,0.164-2.915-1.549c1.1,0,2.17,0,3.504,0C150.742,121.008,150.564,121.477,150.414,121.871z
		 M145.763,118.273c0.789-0.736,1.36-1.27,2.225-2.078c0.529,0.829,0.95,1.49,1.371,2.15c1.381,0.09,1.831-0.822,2.611-1.317
		c0.189,0.418,0.345,0.763,0.547,1.211C150.301,119.312,148.222,119.143,145.763,118.273z"/>
	<path class="stroke" fill="#531863"  d="M109.09,163.188c-1.667-0.748-1.902-0.716-2.967,0.441c0.723,1.622,1.913,2.703,3.571,3.193
		c2.455-1.759,2.925-2.654,2.333-4.404C110.688,161.553,109.964,162.739,109.09,163.188z"/>
	<path class="stroke" fill="#531863"  d="M146.82,104.792c0.697,0,1.292,0,1.938,0c-0.209,2.541-1.888,4.403-2.536,6.532c0.625,1.949,2.675,2.84,4.605,2.883
		c1.772,0.039,3.104-0.991,4.043-2.349c0.373-0.542,0.266-1.496,0.184-2.241c-0.053-0.487-0.434-0.963-1.267-0.744
		c-0.037,0.738-0.074,1.492-0.109,2.221c-1.14,0.4-2.203,0.774-3.022,1.062c-1.026-0.509-1.836-0.911-2.723-1.352
		c0.115-0.246,0.259-0.571,0.416-0.89c0.836-1.695,1.604-3.401,1.899-5.304c0.461-2.974-0.757-4.975-3.676-5.52
		c-1.373-0.256-2.836-0.346-4.214-0.17c-1.815,0.232-3.568,0.841-5.126,2.394c0.162,0.866,0.347,1.851,0.532,2.837
		c0.154,2.186,0.622,2.798,2.808,3.033C143.078,107.453,145.4,107.12,146.82,104.792z M140.896,105.788
		c-0.394-0.128-0.919-0.298-1.441-0.467c0.474-1.545,0.796-1.788,2.253-1.877C141.466,104.145,141.215,104.868,140.896,105.788z
		 M143.136,105.585c0.218-0.727,0.433-1.445,0.693-2.313c0.457,0.215,0.896,0.421,1.294,0.608
		C144.901,105.331,144.771,105.435,143.136,105.585z"/>
	<path class="stroke" fill="#531863"  d="M164.047,103.44c-0.168-0.582-0.188-1.218-0.202-1.83c-0.015-0.556,0.067-1.114,0.102-1.596
		c-2.924-1.696-8.843-1.246-10.807,0.75c-0.031,0.597-0.064,1.221-0.098,1.847c0.274,0.413,0.53,0.8,0.764,1.15
		c-0.039,0.562-0.075,1.077-0.123,1.749c0.602,0.444,1.159,1.056,1.851,1.33c2.154,0.854,4.405,0.944,6.622,0.274
		C163.934,106.577,164.553,105.191,164.047,103.44z M155.196,104.435c0.952-1.103,2.205-1.46,3.556-1.59
		c0.08,0.112,0.161,0.224,0.24,0.335c-0.447,0.26-0.896,0.521-1.251,0.728c0.773,1.603,1.197,1.693,2.513,0.695
		c-0.029-0.483-0.062-1.03-0.097-1.577c2.194,0.285,2.422,0.454,2.605,1.909C161.138,106.874,156.516,106.634,155.196,104.435z"/>
	<path class="stroke" fill="#531863"  d="M135.576,51.884c-1.715,0.173-3.933,2.461-4.198,4.147C133.177,55.043,134.19,53.532,135.576,51.884z"/>
	<path class="stroke" fill="#531863"  d="M149.964,66.462c-0.63-0.728-1.356-0.365-2.015-0.115c-1.713,0.65-3.447,0.749-5.229,0.382
		c-0.561-0.115-1.136-0.162-1.699-0.269c-0.581-0.109-1.041-0.031-1.249,0.725C142.571,68.948,148.646,68.489,149.964,66.462z"/>
	<path class="stroke" fill="#531863"  d="M100.853,163.341c-1.047-0.244-1.837-0.428-2.721-0.633c-0.495,0.54-0.932,1.017-1.398,1.527
		c0.885,1.76,2.472,2.467,3.8,3.564c1.059-0.942,2.008-1.753,2.914-2.608c0.673-0.636,0.889-1.401,0.354-2.364
		C102.502,162.097,101.578,163.002,100.853,163.341z"/>
	<path class="stroke" fill="#531863"  d="M135.373,63.702c-0.011-0.002-0.021-0.005-0.03-0.006c0.01,0.015,0.02,0.031,0.03,0.045
		C135.373,63.729,135.373,63.715,135.373,63.702z"/>
	<path class="stroke" fill="#531863"  d="M144.857,65.245c3.594-0.27,6.365-1.917,8.099-5.148c0.322-0.599,0.664-1.212,0.274-1.887
		c-0.698-0.689-1.406-0.297-2.08-0.06c-3.456,1.216-6.914,2.403-10.566,2.934c-1.153,0.168-2.268,0.601-3.474,0.933
		c0.274,1.391,1.103,1.869,1.927,2.333C140.86,65.378,142.865,65.396,144.857,65.245z M151.337,59.661
		c-1.633,3.873-8.573,5.725-11.694,3.113C143.55,61.733,147.433,60.701,151.337,59.661z"/>
	<path class="stroke" fill="#531863"  d="M82.772,163.097c-0.674-0.334-1.265-0.628-1.778-0.883c-0.932,0.392-1.663,0.773-1.873,1.769
		c0.215,1.672,1.844,2.258,2.752,3.524c0.364-0.073,0.629-0.046,0.757-0.165c0.873-0.819,1.76-1.632,2.555-2.524
		c0.474-0.53,0.62-1.21,0.118-1.831C84.375,162.298,83.517,162.482,82.772,163.097z"/>
	<path class="stroke" fill="#531863"  d="M182.138,96.382c-0.369-4.406-1.594-8.655-2.795-12.89c-0.483-1.704-1.13-3.383-1.892-4.984
		c-2.144-4.497-5.07-8.459-8.625-11.94c-1.345-1.317-2.739-2.624-4.286-3.681c-1.245-0.851-2.113-1.865-2.771-3.192
		c0.441-0.543,0.832-1.024,1.204-1.483c2.598,0.8,2.754,0.776,5.865-0.947c0.849-1.857,1.781-3.902,2.717-5.945
		c0.763-1.667,1.609-3.301,2.275-5.005c0.959-2.456-0.302-5.339-2.681-6.489c-1.704-0.823-3.48-1.065-5.455-0.7
		c-0.196-0.987-0.376-1.894-0.534-2.692c0.332-0.457,0.642-0.761,0.809-1.13c0.818-1.812,1.633-3.626,2.384-5.467
		c1.22-2.99,0.886-5.945-0.237-8.896c-0.81-2.125-2.22-3.632-4.278-4.565c-0.553-2.044-1.981-3.263-3.814-4.128
		c-1.941-0.915-3.897-0.438-5.416-0.177c-1.537-0.303-2.655-0.523-3.951-0.777c-0.164-0.213-0.449-0.583-0.841-1.089
		c-1.447,0.573-2.783,1.102-4.255,1.684c-1.407-1.039-3.07-0.702-4.729-0.033c-1.485-0.49-2.926-0.253-4.359,0.13
		c-0.742,0.199-1.474,0.506-2.227,0.575c-1.197,0.107-2.411,0.018-3.613,0.088c-0.611,0.037-1.338,0.068-1.797,0.4
		c-1.137,0.821-2.189,1.773-3.198,2.752c-0.748,0.725-1.389,1.563-2.051,2.372c-0.66,0.805-1.384,1.58-1.912,2.468
		c-1.25,2.1-1.55,4.467-1.46,6.842c0.124,3.271,0.706,6.443,2.808,8.953c-0.441,1.841-0.863,3.606-1.288,5.379
		c-0.075,0.041-0.163,0.115-0.261,0.133c-0.205,0.037-0.419,0.077-0.625,0.06c-2.349-0.197-4.164,0.938-5.743,2.457
		c-0.607,0.585-1.183,1.453-1.291,2.256c-0.256,1.895-0.008,3.755,1.328,5.325c1.692,1.99,3.568,3.845,4.422,6.442
		c0.229,0.693,0.87,1.315,1.454,1.815c1.337,1.147,2.845,1.266,4.364,0.352c0.83-0.5,1.559-1.167,2.383-1.796
		c0.569,0.661,1.138,1.32,1.731,2.008c-0.834,0.966-1.58,1.829-2.298,2.658c0,0.367,0.007,0.628-0.002,0.89
		c-0.007,0.259-0.029,0.517-0.03,0.521c-6.811,5.896-11.393,13.042-14.489,21.19c-6.072-2.149-6.222-2.47-11.859-2.318
		c-0.94-2.224-1.872-4.433-2.884-6.826c0.574-0.534,0.27-1.329,0.019-2.147c-0.275-0.893-0.473-1.803,0.404-2.562
		c1.578,1.324,3.103,2.599,4.622,3.879c0.429,0.363,0.858,0.637,1.528,0.01c-0.19-0.849-0.461-1.789-0.607-2.75
		c-0.915-5.984-0.901-12.024-1.03-18.056c-0.056-2.623,0.028-5.255-0.165-7.868c-0.249-3.342-1.668-6.37-2.878-9.447
		c-1.03-2.623-2.376-5.055-4.333-7.074c-5.651-5.83-12.454-9.355-20.63-9.989c-1.832-0.143-3.655-0.186-5.395,0.694
		c-0.495,0.25-1.222,0.163-1.815,0.068c-1.085-0.172-2.138-0.564-3.226-0.686c-2.521-0.282-5.064-0.273-7.458,0.669
		c-3.553,1.401-6.752,3.424-9.396,6.191c-1.33,1.391-2.531,2.903-3.388,4.701c-2.169,4.55-3.295,9.382-4.243,14.288
		c-0.602,3.111-1.889,5.84-4.557,7.825c-1.158,0.861-2.254,1.959-3.016,3.176c-3.771,6.018-3.426,12.154-0.037,18.18
		c0.772,1.373,1.825,2.707,3.37,3.447c0.541,0.26,1.049,0.502,1.64-0.099c-0.222-0.726-0.452-1.481-0.793-2.598
		c0.979,0.531,1.598,0.867,2.204,1.195c-0.446,0.944-0.776,1.776-1.214,2.546c-2.768,4.866-3.49,10.233-3.426,15.661
		c0.058,4.764,0.626,9.527,1.07,14.281c0.209,2.228-0.247,4.237-1.206,6.229c-0.655,1.362-1.252,2.807-1.545,4.279
		c-0.831,4.185-0.966,8.446-0.897,12.7c0.04,2.458,0.265,4.918,0.501,7.369c0.313,3.237,0.64,6.479,1.111,9.696
		c0.411,2.797,1.008,5.57,1.576,8.342c0.247,1.21,0.63,2.391,0.905,3.416c0.248,5.266,0.489,10.394,0.737,15.66
		c-1.295,1.249-3.458,1.93-4.068,4.37c0.837,0.148,1.544,0.391,2.245,0.377c2.996-0.062,5.962-0.351,8.856-1.229
		c0.995-0.301,1.699-0.773,1.916-1.517c0-0.833-0.116-1.428,0.019-1.959c0.798-3.153,1.6-6.306,2.516-9.426
		c0.422-1.436,1.107-2.795,1.64-4.104c0.973,0,1.704-0.024,2.435,0.004c4.089,0.154,8.176,0.412,12.266,0.458
		c3.511,0.041,7.024-0.161,10.537-0.242c0.508-0.012,1.019,0.052,1.706,0.091c-0.106,2.227-0.208,4.342-0.315,6.582
		c1.646,0.572,3.16,1.1,4.527,1.575c0.737,3.255,1.449,6.397,2.161,9.537c-1.582,0.932-3.509,1.185-4.394,2.867
		c0.505,2.044,1.134,2.546,3.017,2.103c2.182-0.513,4.318-1.211,6.578-1.858c1.315-3.856,2.594-7.604,3.916-11.479
		c2.984,0,6.151,0,9.211,0c0.597,2.673,1.162,5.172,1.704,7.676c0.062,0.289,0.014,0.608-0.022,0.909
		c-0.174,1.493-0.361,2.984-0.535,4.402c2.706,1.808,5.29,2.435,8.064,0.591c0.087-1.975-0.988-3.514-1.695-4.971
		c0.8-3.359,1.562-6.56,2.365-9.936c2.689-0.52,5.437-1.052,8.274-1.601c0.694,1.918,1.397,3.859,2.147,5.928
		c-2.959,0.558-5.543,1.303-6.663,4.653c4.135,1.022,8.114,0.187,12.262,0.167c-0.521,1.249-1.706,1.365-2.464,1.989
		c-0.812,0.669-1.622,1.337-1.953,2.472c0.096,0.561,0.199,1.168,0.331,1.944c3.89,0.198,7.561-0.562,11.146-1.366
		c0.948-0.746,1.31-1.668,1.565-2.731c0.304-1.263,0.77-2.501,1.294-3.691c0.973-2.207,2.032-4.376,3.068-6.555
		c0.695-1.46,1.413-2.909,2.143-4.409c0.646-0.045,1.19-0.084,1.822-0.129c0.151,0.66,0.271,1.162,0.383,1.665
		c0.675,3.017,1.247,6.061,2.058,9.04c0.515,1.891,1.343,3.701,2.112,5.513c0.253,0.595,0.672,1.199,1.175,1.596
		c1.945,1.535,4.064,2.782,6.513,3.505c0.929-0.139,1.898-0.285,2.859-0.428c0.872-1.485,0.616-2.796-0.172-4.086
		c-0.393-0.645-0.979-1.212-0.926-2.25c1.435,0.081,2.783,0.162,4.133,0.229c1.738,0.087,3.454,0.006,5.107-0.637
		c0.683-0.265,1.212-0.597,1.21-1.529c-1.244-1.106-2.526-2.246-3.913-3.479c0.678-1.957,1.356-3.877,2.011-5.807
		c1.717-5.064,3.35-10.16,5.153-15.194c2.538-7.086,4.259-14.371,5.585-21.76c0.171-0.951,0.383-1.829,1.187-2.273
		c0.472-5.807-0.863-11.293-1.782-16.898c0.641-0.764,1.344-1.48,1.902-2.295c0.766-1.116,1.611-2.232,2.091-3.478
		C182.513,106.37,182.557,101.376,182.138,96.382z M161.796,66.398c0,1.403,0,2.779,0,4.154c-0.938,0.306-1.734-0.937-2.868-0.096
		c0,1.436,0,2.982,0,4.434c-0.874,0.436-1.568,0.781-2.243,1.118c-1.256-0.329-2.507-0.657-3.859-1.011
		c0.21-0.861,0.416-1.704,0.532-2.183c1.37-2.21,2.551-4.116,3.733-6.025C158.633,66.661,160.14,66.536,161.796,66.398z
		 M165.78,81.806c1.05,0.593,1.178,1.647,1.312,2.894c0.913,0.336,1.872,0.688,2.897,1.065c0,0.785,0,1.55,0,2.397
		c0.313,0.157,0.635,0.306,0.946,0.473c0.307,0.165,0.604,0.349,1.063,0.616c-0.387,0.93-0.738,1.779-1.146,2.765
		c0.418,0.554,0.883,1.167,1.491,1.972c-0.344,0.805-0.724,1.699-1.166,2.737c0.443,0.527,0.935,1.113,1.484,1.768
		c-0.533,0.701-1.06,1.395-1.638,2.155c0.369,0.391,0.679,0.718,1.126,1.189c-0.372,0.527-0.745,1.056-1.101,1.56
		c-0.874-0.087-1.639-0.163-2.56-0.254c-0.117-0.557-0.242-1.148-0.359-1.701c0.646-0.777,1.896-0.742,2.117-2.06
		c-0.823,0.144-1.56,0.271-2.296,0.4c-0.053-0.096-0.105-0.193-0.157-0.29c0.517-0.36,1.054-0.695,1.544-1.089
		c0.469-0.376,0.888-0.813,1.328-1.225c-0.07-0.119-0.141-0.238-0.211-0.356c-0.907,0.368-1.814,0.737-2.833,1.152
		c-0.087-0.625-0.149-1.08-0.219-1.583c0.931-0.896,2.269-1.413,2.613-2.946c-1.235,0.015-1.756,1.375-2.959,1.395
		c-0.143-0.352-0.296-0.729-0.386-0.95c1.093-1.144,2.109-2.208,3.127-3.272c-0.098-0.118-0.194-0.236-0.292-0.353
		c-1.373,0.317-2.125,1.63-3.29,2.323c-0.657-0.364-0.294-0.752-0.007-1.12c0.676-0.867,1.399-1.7,2.032-2.597
		c0.382-0.541,0.744-1.152,0.408-2.106c-1.339,1.273-1.909,3.094-3.698,3.94c-0.339-0.246-0.743-0.539-1.167-0.848
		c0.622-1.771,1.89-3.22,1.906-5.197c-0.854,0.039-0.951,0.708-1.223,1.153c-0.546,0.893-0.994,1.847-1.574,2.713
		c-0.244,0.366-0.72,0.576-1.215,0.754c0.285-2.309,1.2-4.415,1.414-6.982c-1.389,0.883-1.296,2.136-1.701,3.123
		c-0.414,1.011-0.771,2.046-1.188,3.169c-0.429-0.157-0.741-0.27-1.104-0.402c0.147-2.504,1.542-4.776,1.16-7.472
		c-1.127,0.59-0.761,1.592-1.054,2.3c-0.34,0.819-0.504,1.709-0.765,2.562c-0.24,0.789-0.507,1.57-0.793,2.447
		c-0.359-0.179-0.575-0.288-0.755-0.377c-0.047-2.39,1.061-4.572,0.747-6.923c-1.526,2.021-1.4,4.594-2.361,6.889
		c-0.305-0.136-0.527-0.235-0.869-0.388c0.236-2.043,0.471-4.082,0.705-6.12c-0.127-0.026-0.254-0.052-0.38-0.079
		c-0.938,0.834-0.752,2.117-1.075,3.188c-0.328,1.092-0.548,2.216-0.868,3.549c-0.469-0.368-0.758-0.596-1.023-0.804
		c0.081-2.252,0.668-4.391,0.433-6.547c-0.165-0.03-0.33-0.061-0.494-0.092c-0.169,0.492-0.407,0.971-0.495,1.477
		c-0.259,1.499-0.446,3.01-0.688,4.513c-0.143,0.899-0.163,0.896-1.089,1.405c-0.631-2.355,0.072-4.758-0.431-7.091
		c-1.346,1.97-0.842,4.281-1.204,6.497c-0.302,0.14-0.61,0.281-1.026,0.473c-0.491-2.276,0.084-4.537-0.46-7.007
		c-1.127,1.222-0.82,2.477-0.963,3.588c-0.146,1.133-0.127,2.285-0.185,3.516c-0.39,0.02-0.679,0.034-1.15,0.058
		c-0.201-2.005-0.396-3.956-0.595-5.934c-0.817-0.116-0.99,0.383-0.993,0.92c-0.005,0.995,0.059,1.992,0.113,2.987
		c0.046,0.828,0.122,1.653,0.191,2.569c-0.369,0.031-0.606,0.051-0.921,0.078c-0.888-2.386-1.1-4.873-1.538-7.302
		c-0.105-0.009-0.212-0.019-0.317-0.028c-0.119,0.293-0.358,0.595-0.338,0.877c0.134,1.878,0.324,3.75,0.495,5.625
		c0.053,0.583,0.467,1.26-0.507,1.661c-1.085-1.831-1.289-3.979-1.963-6.077c-0.843,1.09-0.714,2.477,0.479,6.638
		c-0.161,0.122-0.352,0.266-0.672,0.506c-1.051-1.793-1.418-3.756-2.262-5.79c-0.77,1.415-0.208,2.543,0.055,3.644
		c0.265,1.108,0.671,2.183,1.006,3.243c-0.586,0.462-0.903,0.078-1.057-0.29c-0.501-1.205-0.931-2.439-1.389-3.662
		c-0.133-0.356-0.27-0.711-0.602-1.012c-0.658,2.338,0.138,4.378,1.481,6.313c-0.112,0.055-0.225,0.11-0.338,0.166
		c-0.194-0.164-0.465-0.287-0.57-0.495c-0.521-1.029-0.99-2.083-1.496-3.12c-0.169-0.348-0.392-0.67-0.736-1.25
		c-0.753,1.812,0.484,4.883,2.187,6.02c-0.226,0.286-0.435,0.575-0.669,0.844c-0.164,0.187-0.362,0.344-0.679,0.638
		c-0.401-0.604-0.772-1.092-1.063-1.624c-0.258-0.47-0.427-0.989-0.7-1.642c-0.932,1.584-0.38,3.088,1.439,4.433
		c-0.016,0.314-0.025,0.676-0.052,1.037c-0.023,0.31-0.066,0.619-0.132,1.222c-0.66-0.687-1.172-1.217-1.68-1.746
		c-0.708,0.585-0.708,0.585-0.26,1.799c-0.086,0.111-0.168,0.246-0.278,0.351c-0.112,0.107-0.25,0.186-0.534,0.389
		c-0.447-0.526-0.906-1.066-1.448-1.706c-0.072-1.232,0.898-2.163,1.514-3.397c-0.721-1.659-1.308-3.448-1.007-5.333
		c0.472-1.176,1.604-1.311,2.628-1.765c0.266-1.196,0.536-2.419,0.799-3.607c0.969-1.188,2.128-0.615,3.287-0.399
		c1.597-0.732,1.669-2.926,3.477-3.637c1.513,0.237,2.854-0.312,3.8-1.793c0.638,0.235,1.226,0.345,1.689,0.646
		c1.042,0.675,1.826,0.395,2.662-0.391c0.659-0.619,1.168-1.562,2.441-1.425c0.658,0.373,1.425,0.806,2.293,1.297
		c1.77-1.048,3.601-1.855,5.471-0.27c0.773-0.326,1.442-0.608,2.25-0.949c1.184,0.901,2.101,2.437,3.994,2.218
		c0,0.764,0,1.322,0,1.893C163.744,82.08,164.903,81.364,165.78,81.806z M156.307,130.342c0.341,0.223,0.883,0.576,1.712,1.116
		c-1.105,0.707-1.956,1.251-2.941,1.882c-1.064-1.811-2.009-3.416-3.035-5.161c1.464-0.533,2.898-1.055,4.649-1.692
		C156.125,127.846,154.968,128.931,156.307,130.342z M153.123,125.476c-1.038,0.342-2.151,0.487-3.242,0.628
		c-1.63,0.21-3.263,0.177-4.791-0.521c-2.192-1-4.467-1.877-6.514-3.123c-2.841-1.729-4.408-4.447-4.782-7.756
		c-0.206-1.821-0.26-3.665-0.282-5.499c-0.044-3.603-0.004-7.205-0.027-10.808c-0.01-1.448,0.461-2.632,1.518-3.654
		c0.536-0.518,0.862-1.251,1.297-1.906c0.673-0.053,1.139-0.091,1.665-0.132c0.165-0.439,0.325-0.868,0.54-1.442
		c0.637-0.151,1.339-0.318,2.16-0.512c0.217-0.275,0.499-0.635,0.882-1.124c0.883,0.058,1.812,0.118,2.838,0.185
		c0.221-0.176,0.501-0.398,0.552-0.439c1.211-0.206,2.169-0.369,3.126-0.532c-0.005-0.063-0.01-0.126-0.015-0.189
		c0.547,0.169,1.094,0.338,1.701,0.525c0.46-0.16,0.952-0.332,1.552-0.541c0.374,0.179,0.836,0.4,1.331,0.637
		c0.435-0.177,0.862-0.35,1.266-0.514c0.484,0.369,0.932,0.709,1.403,1.069c0.5-0.203,0.926-0.375,1.309-0.531
		c0.733,0.151,1.435,0.295,2.255,0.464c0.216,0.258,0.515,0.615,0.925,1.105c0.745-0.079,1.558-0.165,2.603-0.275
		c0.413,0.385,1.026,0.812,1.446,1.38c0.973,1.318,1.709,2.764,1.975,4.415c0.357,2.225,0.681,4.457,1.123,6.665
		c0.844,4.215-0.547,8.021-2.227,11.705c-1.735,3.807-4.659,6.714-8.017,9.133C155.655,124.637,154.357,125.069,153.123,125.476z
		 M141.035,126.695c1.106,0.48,2.045,0.887,3.062,1.328c-0.954,2.252-1.853,4.374-2.861,6.754c-1.097-0.99-2.047-1.849-3.066-2.769
		c0-0.7,0-1.264,0-1.952C139.698,129.539,141.277,128.966,141.035,126.695z M168.229,111.162c1.117-0.729,1.478-1.605,1.668-3.397
		c-0.374-0.429-0.746-0.856-1.114-1.278c0-0.618,0-1.229,0-1.866c0.847-0.299,1.318,0.153,1.527,0.75
		c0.764,2.179,0.974,4.393-0.095,6.54c-0.666,1.338-1.563,1.752-3.142,1.575C167.089,112.52,167.32,111.755,168.229,111.162z
		 M129.889,111.006c0.573,0.431,1.272,0.957,2.111,1.585c0,0.272,0,0.712,0,1.134c-1.587,0.286-2.345-0.106-2.807-1.561
		c-0.604-1.904-0.466-3.811,0.163-5.727c1.811-0.637,2.155-0.545,2.663,0.667C130.623,107.908,129.414,108.875,129.889,111.006z
		 M129.385,103.284c-0.879-0.885-0.062-1.844,0.076-2.94c0.781,0.73,1.372,1.281,2.226,2.079c0.081,0.505,0.218,1.35,0.369,2.286
		C130.583,105.032,130.048,103.953,129.385,103.284z M131.015,99.828c0.331-0.033,0.509-0.051,0.789-0.079
		c-0.018,0.312-0.03,0.544-0.043,0.776c-0.101,0.023-0.199,0.047-0.299,0.069C131.334,100.376,131.207,100.157,131.015,99.828z
		 M158.737,59.99c-2.011,1.663-3.123,3.909-4.112,6.246c-0.429,1.012-0.911,2.002-1.403,2.985c-0.579,1.159-1.583,1.766-2.805,2.088
		c-3.398,0.896-6.771,0.634-10.085-0.351c-0.746-0.221-1.584-0.786-1.974-1.436c-1.124-1.878-2.042-3.881-3.039-5.833
		c0.008,0.001,0.017,0.003,0.023,0.005c-0.597-0.936-1.194-1.875-1.892-2.969c2.734-0.302,3.712-2.503,5.188-3.949
		c1.025,0,1.962,0,2.972,0c0.548,0.283,1.146,0.593,1.618,0.836c0.562,0.565,0.135,1.731,1.406,1.619
		c0.108-0.368,0.221-0.75,0.362-1.232c1.246-0.171,2.343-0.697,2.759-1.844c1.634-0.56,3.102-1.062,4.606-1.577
		c3.901,3.043,7.048,3.073,8.474,0.015c-0.496-0.465-0.973-0.187-1.413,0.076c-1.181,0.704-2.231,0.382-3.188-0.415
		c-1.445-1.205-2.491-2.673-2.844-4.748c2.973-0.548,5.933-1.094,8.972-1.654c0.142,0.27,0.377,0.524,0.404,0.8
		C163.206,53.062,162.335,57.016,158.737,59.99z M163.765,44.354c-2.657,2.04-10.267,3.098-13.443,1.956
		c-1.476-2-1.827-7.843-0.555-10.379c2.399-0.966,4.954-1.623,7.668-1.552c0.89,0.023,1.781-0.001,2.669,0.051
		c1.153,0.069,2.038,0.694,2.433,1.726C163.558,38.823,163.872,41.612,163.765,44.354z M166.933,49.751
		c1.456-2.146,1.392-2.473-0.954-4.986c1.807-0.369,2.108-0.236,3.22,1.518c-0.276,0.83-0.584,1.758-0.914,2.754
		c0.306,0.163,0.566,0.303,0.992,0.53c0.895-1.664,2.418-2.96,1.937-5.111c-1.018-2.222-3.173-2.015-5.143-2.205
		c0-0.382,0-0.625,0-0.94c1.923-0.557,3.647-0.253,5.166,0.987c0.891,0.728,1.169,1.77,0.894,2.849
		c-0.243,0.954-0.649,1.874-1.061,2.774c-0.434,0.95-0.987,1.844-1.435,2.787c-0.696,1.466-1.35,2.926-2.691,3.98
		c-0.659,0.519-1.129,1.278-1.784,2.046c-1.3-2.214-0.271-4.065-0.181-5.958C165.685,50.405,166.327,50.068,166.933,49.751z
		 M166.114,20.124c1.559,2.935,2.158,5.985,0.921,9.192c-0.6,1.555-1.281,3.076-1.943,4.605c-0.096,0.22-0.288,0.398-0.57,0.776
		c-0.969-1.719,0.245-3.314-0.271-4.763c1.997-3.394,3.176-6.651,1.31-10.354C165.748,19.76,165.999,19.905,166.114,20.124z
		 M164.115,26.542c-0.484-3.509-1.13-6.808-3.549-9.672C164.096,18.073,166.102,23.621,164.115,26.542z M157.678,13.019
		c1.43,0.078,2.561,0.771,3.412,2.03c-0.565-0.333-1.11-0.711-1.702-0.987c-0.596-0.278-1.238-0.454-1.86-0.675
		C157.578,13.264,157.628,13.142,157.678,13.019z M153.196,13.759c-0.899-0.135-1.5-0.225-2.373-0.356
		C152.146,12.804,152.146,12.804,153.196,13.759z M152.649,17.042c-0.177,0.314-0.353,0.629-0.529,0.944
		c-0.118-0.063-0.237-0.126-0.357-0.188c0.193-0.31,0.386-0.618,0.578-0.927C152.443,16.927,152.547,16.984,152.649,17.042z
		 M149.479,11.68c0.043,0.097,0.086,0.193,0.129,0.29c-0.604,0.517-0.955,1.535-2.052,1.069c-0.061-0.164-0.12-0.327-0.181-0.489
		C148.076,12.26,148.777,11.969,149.479,11.68z M142.912,12.631c0.331,0,0.663,0,0.995,0c0.004,0.09,0.007,0.182,0.011,0.272
		c-0.335,0.019-0.671,0.038-1.007,0.057C142.911,12.851,142.912,12.74,142.912,12.631z M138.308,12.935
		c0.465,0.041,0.931,0.083,1.635,0.146c-0.745,0.76-1.209,0.458-1.676,0.242C138.28,13.193,138.294,13.063,138.308,12.935z
		 M135.369,14.278c-0.804,0.208-1.607,0.416-2.577,0.666C133.487,13.934,133.487,13.934,135.369,14.278z M130.262,13.832
		c0.048,0.097,0.098,0.195,0.146,0.293c-0.447,0.557-0.895,1.114-1.49,1.855c-0.37,0.101-0.952,0.259-1.535,0.417
		c-0.056-0.101-0.111-0.202-0.167-0.303C128.013,15.05,128.979,14.23,130.262,13.832z M125.939,28.565
		c0.188-1.401,0.444-2.8,0.793-4.17c1.015-3.995,3.436-6.626,7.826-7.643c1.272,0.734,2.717,1.565,4.159,2.399
		c0.363,0.209,0.701,0.498,1.09,0.613c0.272,0.081,0.612-0.07,1.065-0.139c-0.82-1.48-2.377-1.77-3.497-3.015
		c1.01-0.091,1.762-0.159,2.529-0.229c0.807,0.845,1.563,1.637,2.404,2.519c0.255-0.058,0.573-0.129,1.131-0.255
		c-0.57-0.804-1.026-1.446-1.654-2.329c0.752-0.056,1.281-0.096,1.676-0.125c1.136,0.787,1.019,1.933,1.248,2.946
		c0.748,0.163,1.442,0.314,2.371,0.517c0.123-1.054,0.236-2.027,0.35-3.001c0.078,0.006,0.156,0.013,0.233,0.019
		c0,0.749,0,1.499,0,2.325c0.411,0.082,0.74,0.147,1.179,0.235c0.153-0.953,0.292-1.81,0.445-2.76
		c0.41,0.026,0.75,0.048,1.173,0.074c-0.273,0.975-0.521,1.861-0.82,2.926c0.835,0.143,1.525,0.259,2.382,0.404
		c0.887-0.86,1.819-1.767,2.782-2.702c2.587,0.491,3.934,2.301,4.75,4.553c0.462,1.271,0.692,2.635,0.923,3.975
		c0.354,2.054,0.616,4.124,0.936,6.309c-0.52-0.027-0.927-0.025-1.329-0.071c-3.824-0.444-7.514,0.301-11.175,1.276
		c-1.245,0.332-2.079,1.172-2.572,2.187c-1.783,0.126-3.476,0.246-5.358,0.379c-0.611-2.096-2.555-2.515-4.612-2.553
		c-3.086-0.058-6.203-0.253-9.158,0.993c-0.329,0.138-0.7,0.178-1.175,0.292C125.651,32.482,125.679,30.519,125.939,28.565z
		 M145.99,39.069c-0.148,0.244-0.252,0.626-0.422,0.659c-1.208,0.238-2.43,0.403-3.779,0.612
		C141.994,38.692,143.577,38.222,145.99,39.069z M124.868,20.481c-0.379,1.803-0.691,3.293-1.025,4.879
		C123.104,24.076,123.444,22.388,124.868,20.481z M121.96,25.796c0.526,1.118,0.974,2.067,1.461,3.103
		c-0.088,1.315-0.18,2.709-0.295,4.458C121.686,30.727,121.285,28.115,121.96,25.796z M121.519,58.566
		c-0.511-1.108-0.97-2.344-1.626-3.467c-0.84-1.441-1.832-2.795-2.771-4.18c-0.64-0.944-1.299-1.877-1.821-2.631
		c0.513-3.327,3.577-5.429,6.521-4.64c0.067,0.344,0.144,0.735,0.225,1.155c-0.201,0.066-0.34,0.143-0.482,0.153
		c-0.208,0.014-0.418-0.037-0.628-0.032c-2.618,0.05-4.136,2.142-3.292,4.63c0.266,0.783,0.75,1.496,1.174,2.218
		c0.37,0.631,0.768,1.25,1.207,1.833c0.216,0.286,0.554,0.48,0.837,0.716c0.121-0.064,0.243-0.127,0.364-0.19
		c-0.051-0.537-0.062-1.081-0.161-1.608c-0.182-0.978-0.446-1.94-0.615-2.919c-0.123-0.713-0.115-1.438,0.412-2.352
		c0.408,0.389,0.62,0.592,0.885,0.843c-0.253,0.546-0.49,1.058-0.72,1.553c-0.167,1.574,0.95,2.222,1.919,2.773
		c0.88,1.888,1.692,3.628,2.462,5.276C124.181,59.256,123.375,59.422,121.519,58.566z M125.592,46.922
		c-0.289-1.325-0.491-2.678-0.611-4.029c-0.093-1.04,0.017-2.096,0.004-3.145c-0.016-1.229,0.559-2.139,1.589-2.694
		c0.819-0.442,1.704-0.844,2.608-1.028c1.893-0.384,3.809-0.761,5.73-0.867c2.44-0.134,3.325,0.7,4.102,3.026
		c0.604,1.812,0.567,3.599,0.182,5.422c-0.269,1.267-1.045,2.176-2.094,2.822c-1.625,1-3.356,1.689-5.328,1.668
		c-1.096-0.012-2.194,0.152-3.461,0.25c-0.197,0-0.565,0.02-0.931-0.003C126.335,48.281,125.816,47.95,125.592,46.922z
		 M127.507,51.353c2.569-0.503,5.02-1.025,7.484-1.451c2.291-0.396,4.365-1.134,5.766-3.077c0.681,0.093,1.305,0.18,1.929,0.265
		c0.059-0.111,0.118-0.223,0.177-0.335c-0.39-0.453-0.779-0.905-1.232-1.433c0.027-0.23,0.064-0.532,0.102-0.838
		c0.518-0.466,1.605-0.093,1.661-1.286c-0.444-0.103-0.914-0.21-1.43-0.329c-0.038-0.278-0.071-0.524-0.134-0.971
		c1.347-0.376,2.633-0.736,4.125-1.153c0.078,0.644,0.137,1.124,0.188,1.538c-0.674,0.574-1.253,1.066-2.136,1.817
		c0.961,0,1.522,0,2.255,0c-0.414,0.701-0.78,1.317-1.265,2.134c0.646,0,1.025,0,1.573,0c0.445,1.513,1.836,2.213,3.065,3.096
		c1.481,1.062,1.84,1.86,1.429,2.973c-0.421,1.139-1.669,1.775-3.257,1.649c-0.312-0.024-0.619-0.086-1.049-0.149
		c-0.272,0.226-0.618,0.455-0.889,0.753c-0.275,0.306-0.476,0.679-0.79,1.141c-0.533-0.039-1.114,0.011-1.64-0.14
		c-1.124-0.323-2.22-0.75-3.491-1.191c-0.111-1.542,1.375-2.727,1.796-4.303c-1.434-0.633-2.186,0.396-2.862,0.704
		c-1.521,2.506-2.9,4.788-4.292,7.063c-0.42,0.688-0.895,1.325-1.856,1.16C129.886,57.158,127.681,53.936,127.507,51.353z
		 M133.453,66.812c0.562,1.086,1.087,2.104,1.613,3.121c0.639,1.237,1.523,2.247,2.697,3.012c0.342,0.222,0.687,0.5,0.91,0.832
		c0.728,1.074,1.398,2.187,2.21,3.473c-0.182,0.201-0.42,0.463-0.651,0.719c-3.116-0.77-4.489,1.368-5.939,3.614
		c-0.688-0.735-1.281-1.369-1.89-2.02c0.535-2.188,1.568-4.249,1.209-6.554c-1.775-0.46-2.249,1.638-3.87,1.549
		c-0.237-2.73-0.477-5.494-0.729-8.396C130.582,66.391,132.005,66.599,133.453,66.812z M112.228,88.642
		c-0.126,0.348-0.227,0.627-0.396,1.095c2.07,2.083,3.172,4.708,4.349,7.274c1.312,2.864,3.162,5.301,5.587,7.405
		c0.14,1.165,0.283,2.345,0.445,3.689c-1.352-0.469-2.151-1.38-2.926-2.242c-2.091-2.327-3.67-4.94-4.481-8.022
		c-0.327-1.239-0.946-2.473-1.7-3.515c-1.533-2.117-3.248-4.103-4.889-6.142c-0.388-0.481-0.781-0.958-1.081-1.577
		C108.975,86.91,110.546,87.788,112.228,88.642z M114.304,90.345c2.979,1.255,6.447,7,6.48,10.923
		c-1.854-1.383-2.592-3.445-3.612-5.289C116.145,94.122,115.24,92.197,114.304,90.345z M100.704,85.85
		c1.528,2.688,3.627,4.715,5.882,6.619c0.892,0.752,1.854,1.504,2.35,2.69c-2.806,0.09-9.756-4.544-9.443-8.852
		C99.836,86.177,100.242,86.023,100.704,85.85z M118.308,120.192c-1.025-3.504-2.65-6.691-5.142-9.424
		c-1.584-1.738-3.307-3.405-4.21-5.646c-0.389-0.967-0.652-1.989-0.898-3.004c-0.076-0.315,0.096-0.69,0.154-1.038
		c0.105,0.005,0.211,0.01,0.317,0.015c0.084,0.236,0.19,0.469,0.249,0.712c0.45,1.874,1.334,3.529,2.57,4.991
		c1.185,1.4,2.342,2.834,3.633,4.131c2.796,2.807,4.204,6.245,4.612,10.087c0.141,1.319-0.156,2.714-0.428,4.038
		c-0.377,1.842-0.924,3.648-1.389,5.472c-0.174,0.683-0.544,1.199-1.398,1.807c0.233-2.681,0.441-5.052,0.651-7.456
		c0.479,0.169,0.858,0.303,1.428,0.504c0.145-0.697,0.382-1.245,0.344-1.773C118.72,122.462,118.628,121.287,118.308,120.192z
		 M115.855,122.823c-0.235,2.914-0.487,5.826-0.771,8.736c-0.104,1.069-0.313,2.127-0.476,3.19
		c-0.86-1.316-0.032-11.01,0.797-13.266C116.066,121.764,115.895,122.349,115.855,122.823z M113.789,120.827
		c-0.355,3.754-0.671,7.514-1.146,11.253c-0.123,0.97-0.765,1.875-1.168,2.81c-0.122-0.037-0.244-0.075-0.366-0.112
		c0.248-1.603,0.517-3.202,0.739-4.808c0.236-1.712,0.368-3.44,0.66-5.143c0.275-1.608-0.069-3.332,0.709-4.851
		c0.137,0.007,0.274,0.015,0.411,0.021C113.686,120.275,113.815,120.559,113.789,120.827z M107.382,99.873
		c-0.285-0.241-0.472-0.399-0.647-0.548c0.943-0.975,1.854-1.915,2.932-3.028c0.256,0.656,0.445,1.141,0.692,1.777
		C109.311,98.708,108.358,99.282,107.382,99.873z M97.91,87.331c0.152,0.229,0.286,0.355,0.324,0.504
		c0.705,2.807,2.565,4.721,4.889,6.245c1.261,0.826,2.59,1.547,3.986,2.374c-0.231,0.196-0.318,0.326-0.382,0.314
		c-2.546-0.44-5.003-1.15-7.078-2.761C97.828,92.594,97.107,89.812,97.91,87.331z M105.231,105.362
		c-1.513,1.268-4.155,1.067-5.859-0.625c1.304-2.322,3.599-1.941,5.448-2.345C106.497,103.499,106.562,104.247,105.231,105.362z
		 M95.507,88.782c0.113-0.606,0.137-1.229,0.25-1.836c0.025-0.139,0.248-0.241,0.69-0.271c-0.043,0.482-0.1,0.964-0.128,1.447
		c-0.088,1.413-0.16,2.815,0.418,4.177c0.71,1.675,1.866,2.912,3.511,3.638c1.386,0.612,2.82,1.11,4.233,1.658
		c0.329,0.128,0.658,0.257,1.06,0.414c-0.294,0.792-0.766,0.806-1.233,0.635c-1.765-0.647-3.605-1.157-5.252-2.03
		C96.492,95.255,94.978,91.623,95.507,88.782z M95.529,95.267c1.143,1.865,2.977,2.839,5.011,3.775
		c-0.949,0.497-1.716,0.816-2.392,1.271c-1.167,0.781-1.493,2.624-0.761,3.784c0.351,0.556,0.669,1.132,0.944,1.733
		c2.424,2.379,5.58,2.25,8.863-0.355c0.754,1.117,1.458,2.27,2.273,3.336c0.795,1.04,1.705,1.992,2.553,2.97
		c0.124,2.967,0.108,5.806-1.796,8.3c-2.228,2.918-4.855,5.344-8.105,7.072c-0.371,0.197-0.769,0.352-1.116,0.583
		c-2.992,1.99-6.178,2.039-9.515,1.067c-3.833-1.114-7.148-3.135-9.807-6.032c-2.617-2.852-3.363-6.335-2.285-10.124
		c0.487-1.714,1.073-3.405,1.449-5.144c0.23-1.06,0.28-2.199,0.179-3.281c-0.283-3.035,0.498-5.707,2.405-8.067
		c0.693-0.856,1.301-1.802,2.094-2.554c0.975-0.925,2.01-1.866,3.185-2.48c1.604-0.838,3.366-1.374,5.277-2.124
		C93.858,91.446,94.4,93.423,95.529,95.267z M105.071,130.488c-1.084,4.256-8.774,6.441-12.911,4.564
		C96.803,134.319,101.015,133.062,105.071,130.488z M78.354,138.01c0.117-1.03,0.234-2.061,0.351-3.092
		c0.149,0.015,0.299,0.029,0.449,0.045C79.42,136.066,79.068,137.065,78.354,138.01z M91.362,85.847
		c0.687,0.088,1.326,0.169,2.242,0.285c-1.729,1.313-3.22,2.369-5.423,2.944C89.048,87.468,90.264,86.734,91.362,85.847z
		 M87.959,86.353c0.068,0.085,0.137,0.17,0.205,0.255c-0.895,1.294-1.79,2.589-2.862,4.142c-0.457,0.301-1.047,0.691-1.638,1.08
		c-0.059-0.049-0.118-0.098-0.178-0.146c0.146-0.294,0.251-0.619,0.443-0.879c0.957-1.295,1.911-2.595,2.929-3.843
		C87.104,86.66,87.586,86.551,87.959,86.353z M76.126,115.391c0.278-3.398,0.546-6.798,0.847-10.195
		c0.312-3.521,1.236-6.921,2.263-10.28c0.843-2.757,2.505-5.021,4.624-6.933c0.106,0.071,0.212,0.142,0.319,0.212
		c-0.22,0.336-0.396,0.712-0.662,1.004c-1.16,1.269-1.799,2.822-2.439,4.374c-0.561,1.356-1.055,2.74-1.625,4.093
		c-0.725,1.715-1.111,3.475-1.106,5.35c0.011,3.467-0.26,6.893-1.175,10.28c-0.471,1.739-0.422,3.618-0.609,5.452
		c-0.488,0.195-0.655-0.089-0.634-0.529C75.976,117.275,76.05,116.333,76.126,115.391z M75.149,132.412
		c0.769,0.939,0.404,2.256-0.746,3.258C74.684,134.445,74.916,133.429,75.149,132.412z M72.302,138.73
		c-0.105-0.067-0.21-0.134-0.314-0.201c0.162-0.516,0.324-1.032,0.486-1.548c0.095,0.027,0.188,0.055,0.283,0.082
		C72.604,137.618,72.453,138.175,72.302,138.73z M73.022,146.967c1.051,0.277,1.926,0.509,2.905,0.767
		c-0.129,2.043-0.26,4.112-0.405,6.428c-0.801-0.102-1.58-0.201-2.471-0.314C72.715,151.437,72.884,149.188,73.022,146.967z
		 M76.482,157.17c-0.438-0.261-0.696-0.416-1.029-0.615c-0.234,0.157-0.479,0.32-0.76,0.509c0.201,1.142,0.901,1.884,1.789,2.616
		c-0.026,0.341-0.055,0.73-0.082,1.096c-1.009,0.15-2.578-2.929-2.732-5.227c0.911,0,1.816,0,2.814,0
		C76.482,156.087,76.482,156.537,76.482,157.17z M76.33,140.306c-0.226-2.305-0.439-4.607,0.948-6.676
		C77.4,135.92,77.054,138.141,76.33,140.306z M86.802,181.629c-0.877,0-1.692,0-2.675,0c-0.374-1.513-0.74-2.995-1.161-4.695
		c1.879,0.209,3.408,0.379,5.135,0.572C87.646,178.946,87.233,180.26,86.802,181.629z M107.434,181.777c-1.108,0-2.015,0-3.116,0
		c-0.387-1.442-0.757-2.823-1.151-4.294c1.683-0.196,3.118-0.363,4.869-0.566C107.827,178.594,107.639,180.122,107.434,181.777z
		 M113.908,170.218c-4.238,0.737-8.474,1.511-12.732,2.109c-3.545,0.497-7.12,0.447-10.682-0.003
		c-0.415-0.053-0.838-0.122-1.252-0.099c-3.642,0.206-7.074-0.645-10.563-2.066c0-1.297,0.015-2.646-0.004-3.995
		c-0.029-2.2,0.033-4.41-0.146-6.6c-0.558-6.861,0.031-13.623,1.501-20.328c0.169-0.768,0.289-1.546,0.438-2.319
		c0.27-1.404,0.271-1.403,1.357-2.325c1.995,0.083,3.869,0.146,5.74,0.252c0.347,0.02,0.749,0.131,1.016,0.34
		c2.156,1.686,4.654,2.098,7.285,1.993c2.214-0.087,4.322-0.482,6.342-1.554c2.539-1.347,4.145-3.308,4.878-6.047
		c0.135-0.502,0.323-0.991,0.494-1.483c0.014-0.04,0.081-0.061,0.177-0.129c0.85,0.2,1.086,0.92,1.069,1.643
		c-0.036,1.566-0.203,3.13-0.301,4.696c-0.087,1.412-0.19,2.824-0.208,4.236c-0.008,0.555,0.198,1.111,0.319,1.733
		c0.492,0,0.885,0,1.215,0c0.837-0.958,1.615-1.849,2.465-2.82c1.039,1.319,0.886,3.188,2.596,3.82
		c0.468,6.792,0.932,13.532,1.406,20.434c-1.172,0.139-2.37,0.144-2.515,1.739c0.536,1.268,2.103,1.197,3.17,2.322
		c0.15,0.964,0.341,2.183,0.56,3.585C116.216,169.672,115.074,170.015,113.908,170.218z M119.525,143.529
		c0.157,2.798,0.567,5.521,0.207,8.271c-0.233,0.067-0.383,0.155-0.521,0.138c-0.245-0.03-0.481-0.125-0.662-0.176
		c-0.273-2.988-0.538-5.875-0.837-9.14C118.488,143.009,118.977,143.254,119.525,143.529z M119.766,154.721
		c-0.513,0.135-0.951,0.251-1.586,0.417c-0.065-0.599-0.121-1.125-0.188-1.735c0.687,0,1.232,0,1.895,0
		C119.841,153.9,119.805,154.291,119.766,154.721z M122.161,120.54c-0.123,4.152-0.824,8.226-1.968,12.222
		c-0.243,0.85-0.437,1.713-0.685,2.694c-0.859-0.926-0.731-2.067-1.025-3.091c1.473-3.23,2.094-6.687,2.604-10.158
		c0.118-0.8-0.118-1.66-0.233-2.486c-0.533-3.818-2.254-6.997-4.954-9.757c-1.638-1.674-3.081-3.561-4.459-5.463
		c-0.976-1.347-1.637-2.893-1.048-4.659c1.073,3.611,3.518,6.245,6.031,8.843c1.796,1.855,3.25,3.959,4.462,6.245
		C121.825,116.701,122.219,118.591,122.161,120.54z M122.545,114.603c-0.285-0.307-0.456-0.425-0.537-0.589
		c-1.604-3.258-4.113-5.799-6.567-8.394c-1.413-1.493-2.725-3.092-3.199-5.159c-0.44-1.922-0.771-3.87-1.147-5.789
		c-2.212-1.969-7.801-6.429-8.759-9.106c0.779,0,1.506,0,1.964,0c2.012,2.369,3.904,4.527,5.715,6.754
		c1.729,2.127,3.078,4.44,3.885,7.126c1.014,3.373,2.981,6.23,5.659,8.56c0.907,0.79,1.838,1.554,2.937,2.48
		C122.632,111.638,122.77,113.004,122.545,114.603z M116.856,89.267c-0.475-0.309-0.877-0.729-1.474-1.234
		c1.899-6.821,5.372-12.618,10.807-17.611c0.824,2.98,0.207,5.779,0.709,8.675c0.568,0.042,1.146,0.085,1.773,0.131
		c0.031,0.305,0.069,0.661,0.112,1.076c0.627,0.488,1.275,0.992,1.98,1.541c-0.464,0.378-0.826,0.672-1.305,1.061
		c-0.249,1.012-0.523,2.124-0.799,3.235c-2.573,1.084-3.461,3.256-2.498,6.157c0.214,0.643,0.489,1.267,0.672,1.733
		c-0.573,1.327-1.324,2.476-1.536,3.716c-0.24,1.411,0.733,2.442,2.054,3.087c-0.136,0.798-0.345,1.508-0.354,2.222
		c-0.008,0.659,0.196,1.321,0.329,2.106c-1.185,2.543-0.738,5.313-0.349,8.057c0.225,1.577,1.516,2.158,2.867,2.564
		c0.472,0.142,0.963,0.216,1.796,0.397c-0.931,0.812-1.574,1.375-2.321,2.027c-1.515-0.574-2.919-1.107-4.302-1.632
		c0-0.988-0.025-1.769,0.004-2.548c0.21-5.589-0.176-11.126-2.014-16.439C121.846,94.222,119.948,91.275,116.856,89.267z
		 M124.971,144.033c0.148-0.004,0.298-0.007,0.446-0.011c0.162,2.901,0.323,5.803,0.495,8.87c-0.449-0.116-0.767-0.198-1.211-0.313
		C124.74,149.7,124.458,146.855,124.971,144.033z M126.859,158.848c-0.227-0.61-0.35-0.942-0.525-1.415c-0.307,0-0.551,0-0.962,0
		c-0.064,0.782-0.126,1.521-0.188,2.258c-0.742-1.714-1.07-3.463-0.687-5.447c0.834,0.13,1.53,0.239,2.361,0.369
		C126.859,155.965,126.859,157.238,126.859,158.848z M125.577,132.951c-0.16-0.646-0.264-1.37-0.146-2.012
		c0.741-3.979,2.049-7.707,5.085-10.594c0.266-0.252,0.51-0.529,0.791-0.763c0.192-0.161,0.432-0.268,0.61-0.374
		c2.092,2.861,4.136,5.657,6.341,8.674c-0.782,0.116-1.443,0.214-2.19,0.325c-0.98-1.576-1.885-3.029-2.789-4.481
		c-0.188,0.024-0.364,0.003-0.488,0.073c-0.175,0.099-0.312,0.264-0.495,0.428c0.406,2.75,2.955,4.373,3.814,6.903
		c-1.004,0.603-1.685,0.368-2.27-0.273c-1.284-1.407-2.4-2.913-2.657-5.077c-0.439,0.044-0.854,0.087-1.373,0.141
		c-0.016,3.078,2.397,5.026,3.132,7.761c-0.789,0.054-1.157-0.3-1.503-0.792c-0.655-0.933-1.355-1.833-2.036-2.749
		c-0.368-0.496-0.732-0.995-1.191-1.618c-0.309,0.133-0.648,0.279-0.973,0.419c-0.039,3.188,1.431,5.871,2.332,8.976
		c-0.471-0.134-0.672-0.127-0.756-0.224C127.549,136.241,126.062,134.921,125.577,132.951z M128.157,143.688
		c1.467-1.617,3.115-3.005,3.35-5.392c1.692-0.175,2.727-1.153,2.999-2.726c1.042-0.759,1.97-1.435,2.972-2.166
		c0.912,0.396,1.459,1.235,2.04,2.019c0.688,0.925,1.279,1.928,2.007,2.819c0.475,0.579,1.118,1.018,1.931,1.736
		c0.941-1.843,1.174-3.433,1.453-5.017c0.269-1.516,0.541-3.044,1.54-4.445c0.529,1.842-0.895,23.026-1.805,27.208
		c-5.085,0.196-10.229,0.395-15.507,0.599C128.27,153.367,128.21,148.517,128.157,143.688z M159.054,166.681
		c-0.811,4.912-1.421,9.866-2.857,14.657c-0.105,0.35-0.211,0.699-0.346,1.148c-1.769,0.301-3.546,0.604-5.351,0.911
		c-1.574-4.427-2.975-8.694-3.138-13.068c0.479-1.371,2.016-1.785,2.186-3.401c-0.677-0.022-1.272-0.082-1.863-0.054
		c-1.618,0.08-3.235,0.198-4.854,0.299c-1.726,0.109-3.453,0.198-5.176,0.341c-0.326,0.028-0.634,0.271-1.229,0.541
		c0.614,0.957,1.087,1.69,1.705,2.651c-0.432,1.367-0.854,2.928-1.419,4.436c-0.991,2.649-2.049,5.274-3.125,7.889
		c-0.223,0.542-0.648,1-1.058,1.611c-0.941-0.566-1.692-1.019-2.459-1.48c-0.359-6.573-0.875-13.092-0.151-19.697
		c2.936-0.973,5.791-1.801,8.791-2.012c5.346-0.376,10.695-0.209,16.042-0.013c1.396,0.051,2.782,0.381,4.079,0.569
		C159.652,163.68,159.297,165.204,159.054,166.681z M161.755,159.24c-5.164-0.599-10.185-1.18-15.241-1.766
		c0-1.317-0.118-2.571,0.019-3.797c0.931-8.293,1.377-16.625,1.742-25.193c1.312,0.911,2.238,1.729,2.638,2.989
		c0.442,1.394,0.839,2.803,1.266,4.202c0.18,0.59,0.384,1.174,0.539,1.646c0.794,0.443,1.194,0.042,1.665-0.331
		c1.35-1.067,2.711-2.125,4.132-3.092c0.347-0.237,0.94-0.112,1.599-0.168c-0.274,0.985-0.481,1.724-0.739,2.649
		c0.608,0.506,1.179,1.131,1.879,1.533c1.818,1.042,3.101,2.451,3.589,4.953C163.214,147.889,163.455,153.668,161.755,159.24z
		 M162.332,162.949c-0.079-0.739-0.135-1.267-0.191-1.794c0.088,0.021,0.175,0.042,0.262,0.062c0.516-1.402,1.031-2.805,1.587-4.317
		c0.437,0,0.955,0,1.684,0C164.814,159.112,164.289,161.24,162.332,162.949z M166.343,155.455c-0.298,0-0.625,0-1.094,0
		c0.233-1.54,0.405-2.976,0.677-4.392c0.294-1.535,0.664-3.057,1.037-4.574c0.13-0.528,0.196-1.216,1.064-0.998
		C168.335,147.204,167.409,152.731,166.343,155.455z M169.706,137.917c-0.705-2.601,0.932-5.407-0.863-7.872
		c-0.882-0.169-1.163,0.476-1.486,0.984c-0.592,0.929-1.064,1.939-1.708,2.828c-0.736,1.018-1.646,1.864-3.365,1.778
		c0.513-1.033,0.933-1.896,1.368-2.748c0.452-0.887,0.976-1.741,1.367-2.653c0.348-0.81,1.39-1.513,0.472-2.823
		c-0.887,1.025-1.594,2.057-2.511,2.842c-0.937,0.803-2.12,1.261-3.733,1.496c0.421-0.623,0.638-1.006,0.913-1.34
		c1.036-1.251,2.111-2.47,3.125-3.739c0.246-0.309,0.313-0.761,0.539-1.344c-1.595,0.136-2.328,1.023-3.009,1.931
		c-0.601,0.802-1.331,1.328-2.335,1.429c-0.19,0.02-0.391-0.058-0.742-0.118c0.858-1.841,1.891-3.36,3.443-4.109
		c0.86-1.278,1.581-2.35,2.41-3.582c2.845,1.299,4.943,3.175,6.094,5.938C171.209,130.482,170.93,134.214,169.706,137.917z
		 M178.268,97.448c-0.046,2.096-0.151,4.194-0.299,6.286c-0.244,3.469-1.537,6.561-3.199,9.602c-1.505,2.751-3.65,4.977-5.413,7.504
		c-0.114,0.165-0.303,0.279-0.548,0.498c-1.287-0.73-2.464-1.398-3.768-2.138c0.665-1.266,1.309-2.49,1.967-3.744
		c0.398-0.042,0.76-0.07,1.12-0.117c1.919-0.247,3.284-1.241,4.14-2.987c1.321-2.696,1.424-5.424,0.29-8.119
		c0.486-1.018,0.935-1.956,1.396-2.923c-0.12-0.453-0.239-0.898-0.354-1.331c1.268-1.503,1.275-1.853,0.104-4.458
		c0.249-0.597,0.508-1.219,0.8-1.92c-0.311-0.64-0.628-1.293-0.949-1.955c0.273-0.575,0.649-1.146,0.813-1.773
		c0.153-0.591,0.085-1.24,0.119-1.985c-0.547-0.456-1.096-0.913-1.688-1.406c-0.28-2.36-0.772-2.859-3.54-3.43
		c-0.325-1.911-1.473-2.987-3.613-2.929c-0.146-0.781-0.158-1.591-0.465-2.265c-0.288-0.635-0.89-1.128-1.302-1.623
		c-0.656-0.081-1.164-0.144-1.751-0.216c0-0.615,0-1.174,0-1.878c0.987-0.212,1.982-0.426,3.107-0.668c0-2.011,0-3.934,0-5.938
		c0.888,0.032,1.231,0.617,1.58,1.064c2.41,3.104,4.872,6.161,6.713,9.677C176.682,84.292,178.418,90.633,178.268,97.448z"/>
	<path class="stroke" fill="#531863"  d="M91.537,163.838c-0.384-0.206-0.793-0.426-1.249-0.671c-2.037,0.604-2.379,1.621-1.125,3.062
		c0.343,0.394,0.751,0.729,1.1,1.119c0.45,0.503,0.96,0.579,1.476,0.344c0.591-0.558,1.115-1.066,1.654-1.558
		c0.573-0.523,1.236-0.98,1.308-1.829C93.674,163.079,93.417,163.042,91.537,163.838z"/>
</g>
<path fill-rule="evenodd" clip-rule="evenodd" fill="#faae19" class="fill" d="M83.924,85.482c-1.24,1.025-2.449,2.09-3.728,3.065
	c-1.609,1.229-3.481,1.944-5.449,2.304c-3.62,0.664-7.285,0.879-10.965,0.765c-0.781-0.024-1.617-0.026-2.326-0.3
	c-3.315-1.282-6.761-2.326-9.524-4.729c-0.276-0.239-0.583-0.441-0.713-0.539c-1.97-4.437-3.861-8.695-5.742-12.932
	c-3.712-0.736-5.137-2.016-4.987-4.704c0.78,1.221,1.072,2.715,2.68,2.857c1.35-0.922,1.465-1.862,0.717-4.337
	c0.796-3.169,1.427-5.973,2.216-8.732c0.776-2.718,1.583-5.445,2.633-8.064c0.529-1.32,1.579-2.451,2.496-3.583
	c0.286-0.354,0.892-0.521,1.383-0.627c2.919-0.63,5.855-1.182,8.771-1.827c3.483-0.771,6.289-2.546,8.123-5.698
	c0.177-0.302,0.447-0.55,0.776-0.948c2.154,3.434,5.528,5.042,8.973,6.449c1.975,0.807,4.106,1.233,6.173,1.815
	c2.054,0.579,4.036,1.337,5.216,3.235c0.68,1.093,1.216,2.318,1.58,3.555c0.631,2.139,0.87,4.385,0.05,6.503
	c-0.999,2.578-1.481,5.236-1.755,7.952c-0.329,3.264-1.561,6.189-3.326,8.904c-0.88,1.353-1.359,2.815-1.598,4.395
	C85.316,82.122,85.167,84.027,83.924,85.482z M64.111,65.019c-0.513,0.353-1.024,0.88-1.646,1.095
	c-1.98,0.687-3.093,2.282-4.174,3.873c-1.909,2.809-2.581,6.042-2.925,9.355c-0.047,0.443,0.098,0.906,0.178,1.549
	c0.597-0.052,1.064-0.093,1.496-0.133c0.536-4.757,2.24-8.294,4.588-9.884c0.637,0.681,1.358,1.348,1.95,2.115
	c0.753,0.974,1.492,1.905,2.948,1.993c0.048,0.734,0.078,1.407,0.14,2.076c0.062,0.677,0.09,1.366,0.252,2.021
	c0.162,0.65,0.595,0.953,1.344,0.521c-0.146-1.35-0.29-2.681-0.437-4.028c0.614,0.212,1.079,0.375,1.636,0.567
	c0.069-0.823,0.116-1.388,0.167-1.988c0.966-0.835,1.9-1.678,2.872-2.474c0.962-0.788,1.962-1.529,2.929-2.277
	c2.711,1.937,5.367,6.072,5.833,9.106c0.106,0.687,0.235,1.232,1.261,1.111c0.336-0.814,0.391-1.676,0.271-2.556
	c-0.392-2.889-1.623-5.418-3.492-7.613c-0.875-1.028-1.867-1.998-2.951-2.796c-1.215-0.894-2.594-1.563-3.761-2.249
	c-0.692-1.196,0.1-2.58-0.994-3.716c-0.328,0.368-0.779,0.641-0.798,0.939c-0.078,1.238-0.215,2.516,0.442,3.523
	c0.789,0.508,1.442,0.928,2.138,1.375c-0.036,0.461-0.066,0.856-0.1,1.281c-1.312,0.478-2.848-0.558-3.697,0.456
	c-0.432,1.229-0.751,2.139-1.024,2.916c-2.307,0.449-2.554,0.295-3.768-2.226c-0.668-0.182-1.418-0.387-2.167-0.592
	c-0.011-0.122-0.021-0.245-0.032-0.366c0.664-0.358,1.313-0.747,1.996-1.065c0.732-0.34,1.494-0.671,1.559-1.591
	c0.168-2.4,0.293-4.804,0.398-7.208c0.017-0.382-0.165-0.772-0.288-1.306c-0.522,0.17-0.885,0.287-1.381,0.449
	C64.623,59.825,64.378,62.318,64.111,65.019z M54.235,54.114c1.695-1.581,3.697-1.613,5.694-1.697
	c1.357-0.058,2.596,0.089,3.561,1.224c0.384,0.451,0.938,0.856,1.728,0.206c-0.734-1.15-1.448-2.216-2.889-2.428
	c-0.928-0.136-1.867-0.208-2.804-0.257c-0.788-0.042-1.58-0.008-2.623-0.008c3.02-1.588,5.918-2.837,7.546-6.016
	c-0.678-0.311-1.207-0.554-1.788-0.819c-0.411,0.448-0.701,0.814-1.042,1.124c-0.88,0.801-1.691,1.736-2.7,2.322
	c-1.157,0.672-2.483,1.072-3.764,1.506c-1.267,0.43-2.418,0.946-2.968,2.295c0.734,0.951,1.697,0.31,2.677,0.361
	c-0.628,0.598-1.101,1.047-1.666,1.585C53.608,53.751,53.861,53.897,54.235,54.114z M84.529,55.266
	c0.999-0.681,0.586-1.29,0.133-1.683c-0.867-0.749-1.84-1.376-2.771-2.051c-0.25-0.181-0.509-0.35-0.844-0.579
	c1.188-0.239,2.198-0.441,3.237-0.649c0-0.47,0-0.765,0-1.051c-1.461-0.671-2.88-1.122-4.453-0.683
	c-0.284,0.08-0.627,0.002-0.934-0.055c-2.067-0.38-3.642-1.488-4.709-3.253c-1.078-0.365-1.078-0.365-1.824,0.186
	c0.866,2.548,2.815,3.972,5.491,4.852c-1.464,0.451-2.893-0.282-4.062,1.058c0.521,0.24,0.817,0.476,1.132,0.503
	c1.038,0.09,2.083,0.125,3.126,0.145c2.111,0.04,3.831,0.953,5.351,2.342C83.74,54.656,84.112,54.928,84.529,55.266z M77.763,79.552
	c-0.114-0.146-0.228-0.292-0.343-0.438c-0.503,0.183-1.055,0.289-1.502,0.564c-1.069,0.659-2.096,1.387-3.127,2.107
	c-1.931,1.347-4.029,1.68-6.281,1.042c-0.704-0.199-1.414-0.411-2.077-0.715c-1.752-0.802-3.479-1.658-5.656-2.703
	c-0.09,0.089-0.352,0.352-0.614,0.615c0.379,0.443,0.446,0.596,0.562,0.688c2.519,2,5.456,3.126,8.547,3.766
	c1.869,0.388,3.793,0.061,5.47-0.937c1.438-0.854,2.793-1.853,4.142-2.846C77.255,80.423,77.474,79.939,77.763,79.552z
	 M75.743,56.24c-0.485,0.511-0.934,0.764-0.982,1.077c-0.125,0.816-0.249,1.702-0.058,2.482c0.438,1.792,2.944,3.583,4.78,3.519
	c0.12-0.277,0.256-0.59,0.394-0.91c-2.051-0.718-2.662-1.204-3.356-2.763c1.946,1.308,3.938,1.83,6.279,1.7
	c-0.025-0.515-0.043-0.876-0.067-1.38C79.67,60.221,77.364,59.151,75.743,56.24z M62.563,58.873
	c-0.079-0.647-0.155-1.276-0.234-1.924c-0.928-0.278-1.328,0.419-1.845,0.905c-1.195,1.125-2.419,2.159-4.255,1.949
	c-0.497-0.057-1.049,0.095-1.531,0.271c-0.333,0.122-0.59,0.453-0.881,0.689c0.039,0.123,0.078,0.246,0.116,0.369
	c1.112,0,2.258,0.167,3.328-0.046c1.117-0.223,2.162-0.811,3.238-1.24c-0.4,0.781-0.852,1.521-1.504,1.975
	c-0.679,0.474-1.55,0.671-2.438,1.03c0.193,0.244,0.282,0.444,0.436,0.536c0.968,0.582,1.815,0.189,2.609-0.39
	C61.046,61.944,61.982,60.52,62.563,58.873z M75.863,53.092c0.282,3.36,4.033,4.998,8.058,3.831
	c-0.018-0.276-0.035-0.568-0.056-0.896c-2.246-0.996-4.425-1.986-6.632-2.914C76.874,52.961,76.396,53.092,75.863,53.092z
	 M52.323,84.155c1.055,1.676,2.605,2.51,3.899,3.63c1.909,1.653,4.163,2.142,6.575,2.061c0.83-0.027,1.754-0.125,2.434-1.005
	c-2.269-0.712-4.703,0.095-6.66-1.192c-1.861-1.225-3.582-2.662-5.427-4.053C52.925,83.745,52.683,83.911,52.323,84.155z
	 M52.83,57.207c0.79,0.859,1.772,1.272,2.911,1.071c2.263-0.399,3.521-2.071,4.632-3.875c0.065-0.107-0.108-0.361-0.168-0.537
	C57.701,54.335,53.774,56.102,52.83,57.207z M81.858,64.876c1.375,1.396,2.88,0.771,4.259,0.377
	c0.758-0.217,1.949-0.195,1.963-1.703c-1.951,0.042-3.655,1.699-5.552,0.526C82.251,64.407,82.094,64.596,81.858,64.876z
	 M73.819,87.342c2.412,0.177,4.17-0.66,5.629-2.204c0.138-0.146,0.019-0.533,0.019-0.989c-1.071,0.557-2.028,0.975-2.897,1.528
	C75.741,86.205,74.454,85.901,73.819,87.342z M66.467,55.611c0.342,0.094,0.49,0.169,0.637,0.165c0.14-0.003,0.277-0.088,0.398-0.13
	c0.125-1.21-0.398-3.816-1.028-5.05c-0.297,0.158-0.592,0.316-1.044,0.558C65.777,52.65,66.116,54.105,66.467,55.611z
	 M55.134,65.613c-0.007-0.122-0.015-0.244-0.022-0.367c-0.271-0.043-0.588-0.199-0.81-0.112c-1.311,0.512-2.624,0.65-4.004,0.316
	c-0.584-0.142-1.014,0.134-1.168,0.984c0.321,0.121,0.661,0.343,1.014,0.366C51.932,66.92,53.651,66.707,55.134,65.613z
	 M82.959,68.073c1.652,0.256,3.046,0.184,4.406-0.528c0-0.307,0-0.582,0-0.866C84.062,66.954,83.63,67.074,82.959,68.073z
	 M51.174,59.998c-0.924-0.896-2.634-0.367-3.55,1.085C49.106,61.494,50.062,60.597,51.174,59.998z M53.139,68.272
	c-1.735-0.703-2.951-0.585-3.671,0.279C50.585,69.114,51.84,69.043,53.139,68.272z M69.675,50.835
	c-1.232,0.543-1.461,1.423-0.855,3.162c0.224-0.022,0.465-0.048,0.835-0.087C69.598,52.859,70.179,51.88,69.675,50.835z
	 M89.189,56.641c-0.871,0.586-2.138-0.325-2.865,0.781C87.619,58.458,88.913,58.136,89.189,56.641z M88.917,59.032
	c-1.217,0.024-2.169-0.997-3.212,0.077C86.982,60.28,88.142,60.345,88.917,59.032z M50.4,57.866
	c-1.655-0.616-2.27-0.467-2.882,0.627C48.566,58.897,49.471,58.843,50.4,57.866z M50.093,55.805
	c-0.975-0.602-1.764-0.795-2.645-0.191C48.392,56.632,48.704,56.667,50.093,55.805z M89.629,53.698
	c-0.833,0.099-1.737-0.132-2.108,0.964C88.823,55.217,89.233,55.035,89.629,53.698z M72.278,51.843
	c-1.127,0.145-1.502,0.542-1.437,1.456c0.301,0.09,0.601,0.18,1.03,0.309C72.008,53.02,72.114,52.558,72.278,51.843z"/>
<path fill-rule="evenodd" clip-rule="evenodd" fill="#faae19" class="fill" d="M43.214,130.549c4.352,1.675,8.758,2.346,13.178,2.796
	s8.87,0.604,13.49,0.901c-0.041,0.372-0.072,0.866-0.153,1.352c-0.362,2.169-0.816,4.326-1.085,6.506
	c-0.158,1.281-0.028,2.596-0.028,3.748c0.762,0.857,1.364,0.283,1.949,0.043c-0.047,2.566-0.222,5.063-0.099,7.546
	c0.121,2.441,0.545,4.867,0.861,7.51c-1.283,0.112-2.62,0.262-3.961,0.338c-2.144,0.122-4.289,0.257-6.435,0.272
	c-2.719,0.018-5.439-0.064-8.158-0.134c-1.359-0.035-2.722-0.099-4.076-0.224c-1.605-0.149-3.204-0.379-4.883-0.584
	c-0.181-0.776-0.395-1.366-0.444-1.97c-0.229-2.817-0.527-5.637-0.586-8.46c-0.091-4.345-0.027-8.694,0.012-13.041
	c0.019-1.93,0.13-3.859,0.212-5.788C43.016,131.161,43.105,130.965,43.214,130.549z"/>
<path fill-rule="evenodd" clip-rule="evenodd" fill="#faae19" class="fill" d="M68.94,128.094c-4.319-0.407-8.437-0.422-12.343-1.849
	c-3.211-1.172-6.405-2.392-9.071-4.61c-3.015-2.507-4.893-5.775-5.715-9.557c-1.037-4.763-1.896-9.567-2.733-14.37
	c-0.393-2.254-0.466-4.55-0.038-6.863c1.304,0.817,2.523,1.582,3.825,2.398c-1.143,1.69-1.489,3.565-0.733,5.481
	c0.796,2.011,2.579,2.788,4.601,3.132c0.539,2.43,0.709,4.949,3.184,6.41c2.258,1.334,4.501,2.018,6.911,0.705
	c1.438,1.319,2.781,2.551,4.22,3.87c-0.167,2.5-1.971,4.685-2.217,7.396c0.664,0.292,1.229,0.542,1.849,0.816
	c0.129,0.451,0.27,0.943,0.427,1.492c1.987,0.654,3.941,0.291,6.065,0.06c0.58-1.457,1.155-2.901,1.772-4.45
	c0.272,0.257,0.548,0.516,0.889,0.836c1.082-0.474,2.15-0.941,3.22-1.41c0.096,0.084,0.193,0.168,0.29,0.252
	c-0.709,1.688-1.407,3.382-2.13,5.065C70.471,124.628,69.705,126.348,68.94,128.094z"/>
<path fill-rule="evenodd" clip-rule="evenodd" fill="#faae19" class="fill" d="M53.939,105.951c-1.779,0.592-2.986,0.078-3.717-1.531
	c-0.751-1.651-0.521-3.272,0.105-4.883c0.18-0.46,0.65-0.854,0.281-1.46c-2.016-0.342-4.138,0.994-6.075-0.366
	c-1.204-2.23-0.717-3.115,3.466-6.209c-0.063-0.244-0.137-0.521-0.236-0.897c-0.732,0.079-1.397,0.184-2.065,0.217
	c-2.747,0.136-4.463-1.612-4.314-4.359c0.058-1.061,0.457-1.929,1.358-2.529c0.474-0.315,0.956-0.618,1.441-0.932
	c0.186-0.63-0.172-0.851-0.713-0.93c-0.979-0.144-1.958-0.285-2.862-0.416c-1.14-1.906-0.08-4.199,2.59-5.642
	c1.169,2.149,2.254,4.336,3.049,6.654c0.854,2.492,1.788,4.903,3.849,6.73c0.674,0.597,0.963,1.61,1.597,2.271
	c1.372,1.433,2.849,2.766,4.293,4.127c0.187,0.176,0.44,0.28,0.776,0.488c-0.419,0.256-0.577,0.38-0.756,0.457
	c-2.359,1.024-3.379,2.767-2.971,5.311C53.239,103.336,53.617,104.591,53.939,105.951z"/>
<path fill-rule="evenodd" clip-rule="evenodd" fill="#faae19" class="fill" d="M69.053,23.722c0.382,0,0.624,0,0.869,0
	c0.292,1.423,0.49,2.822,0.875,4.167c0.531,1.857,1.161,3.691,1.828,5.505c0.487,1.323,1.414,2.324,2.669,2.989
	c2.408,1.278,4.844,2.508,7.228,3.829c2.429,1.346,4.844,2.719,7.193,4.195c1.235,0.775,2.331,1.778,3.463,2.71
	c1.627,1.339,2.267,3.236,2.823,5.166c0.466,1.611,0.78,3.28,1.393,4.832c0.589,1.493,1.441,2.889,2.249,4.287
	c0.287,0.497,0.744,0.884,0.388,1.652c-1.73-0.983-2.871-2.443-3.738-4.107c-0.479-0.921-0.776-1.944-1.094-2.941
	c-0.568-1.789-0.938-3.658-1.668-5.375c-1.188-2.797-3.138-4.987-6.131-5.927c-3.339-1.049-6.359-2.699-9.288-4.56
	c-0.62-0.395-1.231-0.804-1.871-1.162c-2.216-1.239-3.881-3.003-5.074-5.23c-0.095-0.177-0.242-0.325-0.484-0.644
	c-0.485,0.319-0.986,0.566-1.387,0.924c-1.525,1.362-3.018,2.759-4.523,4.142c-0.231,0.213-0.442,0.467-0.711,0.619
	c-2.926,1.665-6.005,2.911-9.461,3.155c1.35-0.604,2.695-1.218,4.052-1.807c2.314-1.005,4.524-2.123,6.408-3.892
	C68.693,32.836,70.144,28.793,69.053,23.722z"/>
<path fill-rule="evenodd" clip-rule="evenodd" fill="#faae19" class="fill" d="M71.484,23.137c0.799,0,1.544,0,2.254,0
	c0.158,1.234,0.155,2.404,0.477,3.476c0.932,3.101,2.805,5.649,5.276,7.665c1.775,1.449,3.768,2.646,5.724,3.856
	c2.004,1.241,4.151,2.258,6.114,3.558c3.307,2.189,5.805,5.109,7.334,8.814c0.398,0.964,0.904,1.884,1.343,2.833
	c0.108,0.232,0.199,0.493,0.215,0.746c0.104,1.72,0.188,3.44,0.278,5.161c-0.106,0.052-0.211,0.102-0.317,0.153
	c-0.237-0.34-0.563-0.648-0.695-1.024c-0.626-1.778-1.426-3.536-1.744-5.374c-0.78-4.513-3.516-7.469-7.157-9.866
	c-3.777-2.485-7.804-4.497-11.856-6.472c-0.987-0.48-1.982-0.996-2.845-1.663c-0.682-0.527-1.319-1.23-1.711-1.991
	c-1.404-2.727-2.021-5.718-2.679-8.686C71.419,23.986,71.484,23.614,71.484,23.137z"/>
<path fill-rule="evenodd" clip-rule="evenodd" fill="#faae19" class="fill" d="M69.188,101.068c0.251,6.615-1.444,12.722-3.653,18.845
	c-1.505,0.038-2.842-0.278-4.388-0.775c0.188-0.867,0.279-1.691,0.545-2.454c1.637-4.694,3.301-9.378,4.984-14.055
	C67.171,101.253,67.531,101.055,69.188,101.068z"/>
<path fill-rule="evenodd" clip-rule="evenodd" fill="#faae19" class="fill" d="M43.079,47.127c-0.217-2.959,1.191-4.852,3.369-5.947
	c2.604-1.311,5.421-2.202,8.152-3.257c2.05-0.791,4.172-1.426,6.147-2.37c1.557-0.743,2.875-1.962,3.771-3.461
	c0.99-1.658,1.799-3.424,2.678-5.146c0.161-0.315,0.285-0.647,0.558-0.96c0.282,0.939,0.237,1.876,0.051,2.815
	c-0.691,3.503-2.678,6.175-5.654,7.973c-2.183,1.317-4.591,2.267-6.929,3.312c-3.536,1.583-7.131,3.048-10.216,5.468
	C44.435,46.002,43.88,46.472,43.079,47.127z"/>
<path fill-rule="evenodd" clip-rule="evenodd" fill="#faae19" class="fill" d="M81.855,127.844c-0.245-0.214-0.497-0.42-0.733-0.642
	c-1.038-0.976-2.127-1.88-3.532-2.275c-0.611-0.173-1.255-0.307-1.592,0.761c2.596,0.84,4.427,2.634,5.8,4.922
	c0.129,0.214,0.018,0.572,0.018,1.194c-0.445-0.468-0.73-0.675-0.893-0.953c-1.182-2.043-3.078-3.076-5.236-3.735
	c-0.594-0.181-1.24-0.363-1.687,0.415c0.232,0.899,1.101,0.849,1.736,1.053c2.084,0.666,3.554,1.96,4.354,3.999
	c0.09,0.23,0.105,0.489,0.229,1.093c-1.768-1.105-3.236-2.136-4.808-2.976c-1.602-0.856-3.304-1.526-5.038-2.312
	c1.156-2.816,2.259-5.503,3.409-8.307c1.098,0.094,2.063,0.177,3.013,0.259c0.253,0.505,0.437,0.874,0.649,1.302
	c-0.16,0.349-0.325,0.71-0.457,0.999c0.955,0.834,1.955,1.52,2.703,2.416C80.522,125.932,81.69,126.479,81.855,127.844z"/>
<path fill-rule="evenodd" clip-rule="evenodd" fill="#faae19" class="fill" d="M37.319,169.7c2.472-0.805,5.536-0.924,7.035-0.358
	c-0.512,2.757-1.021,5.505-1.562,8.417c-1.4,0-2.936,0-4.604,0C37.538,175.144,37.495,172.446,37.319,169.7z"/>
<path fill-rule="evenodd" clip-rule="evenodd" fill="#faae19" class="fill" d="M45.146,37.072c0.382-1.41,0.948-2.426,2.151-2.953
	c2.443-1.071,4.85-2.246,7.353-3.153c2.425-0.879,4.427-2.337,6.357-3.949c0.865-0.722,1.486-1.616,1.584-2.796
	c0.033-0.411,0.056-0.866,0.791-0.843c0.052,0.262,0.185,0.548,0.151,0.813c-0.579,4.655-3.735,8.791-8.328,9.736
	c-1.742,0.358-3.488,0.744-5.186,1.271C48.435,35.69,46.913,36.383,45.146,37.072z"/>
<path fill-rule="evenodd" clip-rule="evenodd" fill="#faae19" class="fill" d="M39.051,75.432c-0.432-0.329-0.963-0.586-1.272-1.005
	c-0.556-0.752-0.965-1.61-1.46-2.409c-0.311-0.501-0.667-0.973-1.188-1.726c-0.425-3.63,0.385-7.366,2.362-10.83
	c0.906-1.588,1.998-3.069,2.981-4.614c0.333-0.525,0.691-1.069,0.862-1.656c0.71-2.439,2.137-4.411,3.978-6.078
	c0.879-0.796,1.943-1.387,3.027-1.976c-0.312,1.417-1.081,2.672-2.057,3.515c-2.486,2.149-4.065,4.913-5.773,7.608
	c-2.685,4.235-3.565,8.888-3.199,13.84c0.113,1.53,0.795,2.802,1.546,4.069c0.182,0.306,0.324,0.634,0.484,0.952
	C39.245,75.226,39.147,75.329,39.051,75.432z"/>
<path fill-rule="evenodd" clip-rule="evenodd" fill="#faae19" class="fill" d="M79.481,24.089c1.478,0.596,2.567,1.035,3.631,1.464
	c-0.221,2.149,0.899,3.693,1.838,5.309c1.529,2.634,3.841,4.371,6.464,5.798c1.883,1.023,3.706,2.159,5.539,3.271
	c0.171,0.103,0.223,0.402,0.333,0.617c-0.187,0.073-0.304,0.163-0.359,0.135c-3.301-1.709-6.664-3.313-9.875-5.18
	c-3.231-1.881-5.169-5.006-6.919-8.188C79.689,26.508,79.734,25.432,79.481,24.089z"/>
<path fill-rule="evenodd" clip-rule="evenodd" fill="#faae19" class="fill" d="M57.174,100.491c2.125-0.57,4.017-1.078,5.907-1.585
	c0.042,0.098,0.084,0.196,0.126,0.294c-1.232,0.882-2.824,1.283-3.915,2.696c1.602,0.401,2.512-0.857,4.051-1.122
	c-1.552,1.677-2.555,3.507-4.349,4.58c-2.609-0.959-4.36-4.045-3.797-6.834c2.236-1.145,4.734-1.012,7.283-0.767
	c-0.97,0.29-1.962,0.524-2.904,0.885C58.672,98.986,57.523,99.08,57.174,100.491z"/>
<path fill-rule="evenodd" clip-rule="evenodd" fill="#faae19" class="fill" d="M44.446,40.563c0.648-1.327,1.63-2.433,3.028-2.909
	c2.676-0.91,5.379-1.775,8.126-2.426c2.636-0.623,4.669-2.011,6.406-4.006c1.642-1.887,2.536-4.073,2.886-6.518
	c0.044-0.312,0.113-0.621,0.188-0.927c0.023-0.095,0.101-0.176,0.208-0.354c0.344,0.03,0.732,0.064,1.308,0.115
	c-0.147,0.766-0.201,1.442-0.41,2.066c-1.015,3.013-2.273,5.92-4.838,7.958c-0.998,0.794-2.208,1.395-3.411,1.843
	c-3.097,1.154-6.259,2.129-9.361,3.267C47.158,39.193,45.819,39.927,44.446,40.563z"/>
<path fill-rule="evenodd" clip-rule="evenodd" fill="#faae19" class="fill" d="M78.36,23.789c-0.155,2.374,0.343,4.311,1.613,6.116
	c1.557,2.21,2.976,4.511,5.253,6.122c-0.076,0.097-0.153,0.193-0.23,0.29c-0.879-0.509-1.82-0.936-2.625-1.542
	c-2.18-1.645-4.224-3.462-5.544-5.895c-0.639-1.176-1.059-2.484-1.455-3.771c-0.17-0.554-0.028-1.204-0.028-2.031
	C76.496,23.35,77.383,23.56,78.36,23.789z"/>
<path fill-rule="evenodd" clip-rule="evenodd" fill="#faae19" class="fill" d="M33.643,74.457c-3.528-4.079-1.681-14.321,3.347-17.615
	c-0.148,0.476-0.186,0.82-0.35,1.088c-2.44,3.982-3.325,8.323-2.988,12.941c0.087,1.18,0.245,2.354,0.369,3.531
	C33.895,74.42,33.769,74.438,33.643,74.457z"/>
<path fill-rule="evenodd" clip-rule="evenodd" fill="#faae19" class="fill" d="M44.5,53.356c-0.187,1.334-0.331,2.676-0.582,3.997
	c-0.094,0.491-0.374,0.982-0.681,1.392c-1.726,2.3-2.641,4.849-2.424,7.861c-0.569,0.324-1.141,0.648-1.936,1.099
	C38.626,61.968,41.236,57.564,44.5,53.356z"/>
<path fill-rule="evenodd" clip-rule="evenodd" fill="#faae19" class="fill" d="M72.406,104.698c0.59,0.868,1.022,1.505,1.338,1.97
	c-0.164,2.97-0.319,5.771-0.481,8.698c-0.591,0.256-1.186,0.514-1.883,0.817c-0.682-1.786-1.248-3.365-0.617-5.223
	C71.428,109.006,71.826,106.96,72.406,104.698z"/>
<path fill-rule="evenodd" clip-rule="evenodd" fill="#faae19" class="fill" d="M61.178,23.359c0.119,1.503-0.576,2.273-1.399,3.06
	c-2.138,2.045-4.713,3.245-7.476,4.154c-1.471,0.483-2.909,1.063-4.362,1.6c-0.075-0.081-0.15-0.161-0.226-0.242
	c0.391-0.576,0.781-1.152,1.105-1.631c2.333-0.841,4.688-1.376,6.711-2.507C57.529,26.676,59.19,24.958,61.178,23.359z"/>
<path fill-rule="evenodd" clip-rule="evenodd" fill="#faae19" class="fill" d="M87.654,84.647c0.276-1.593,0.514-2.96,0.765-4.406
	c1.336,0.021,2.569,0.104,3.696,0.696c1.557,0.818,1.754,1.787,0.657,3.349C91.192,84.398,89.545,84.515,87.654,84.647z"/>
<path fill-rule="evenodd" clip-rule="evenodd" fill="#faae19" class="fill" d="M100.133,65.368c0,0.808,0,1.513,0,2.257
	c-3.621-1.496-6.663-6.134-5.893-8.91c0.883,1.212,1.673,2.481,2.649,3.586C97.854,63.393,99.007,64.317,100.133,65.368z"/>
<path fill-rule="evenodd" clip-rule="evenodd" fill="#faae19" class="fill" d="M95.378,37.363c-2.011-1.218-4.091-2.335-6.012-3.681
	c-2.204-1.543-3.555-3.805-4.564-6.267c-0.09-0.218-0.093-0.472-0.201-1.065c1.057,0.631,1.831,1.093,2.518,1.502
	c0.571,3.935,3.13,5.917,6.404,7.203C94.552,35.459,95.362,35.957,95.378,37.363z"/>
<path fill-rule="evenodd" clip-rule="evenodd" fill="#faae19" class="fill" d="M88.502,78.455c1.282-1.943,2.411-3.657,3.667-5.562
	c0.757,0.857,1.487,1.685,2.177,2.465C93.339,77.107,91.254,78.238,88.502,78.455z"/>
<path fill-rule="evenodd" clip-rule="evenodd" fill="#faae19" class="fill" d="M67.46,95.74c0.794,0.19,1.676,0.401,2.642,0.632
	c0,0.987,0,1.791,0,2.53c-1.553,1.061-2.104,1.083-3.795,0.21C65.564,97.212,65.656,96.881,67.46,95.74z"/>
<path fill-rule="evenodd" clip-rule="evenodd" fill="#faae19" class="fill" d="M90.626,39.395c2.728,1.197,5.546,2.176,7.798,4.468
	c0.26,1.066,0.553,2.263,0.845,3.46c-0.103,0.059-0.203,0.116-0.306,0.175C96.67,44.294,94.191,41.286,90.626,39.395z"/>
<path fill-rule="evenodd" clip-rule="evenodd" fill="#faae19" class="fill" d="M93.408,63.371c1.237,1.43,2.358,2.725,3.507,4.053
	c-0.206,0.221-0.45,0.482-0.729,0.779c-0.083,0.504-0.174,1.046-0.297,1.789c-1.688-1.644-1.947-3.733-2.656-5.597
	C93.135,64.139,93.332,63.77,93.408,63.371z"/>
<path fill-rule="evenodd" clip-rule="evenodd" fill="#faae19" class="fill" d="M94.608,79.559c0.434-0.309,0.677-0.482,0.909-0.646
	c1.683,1.468,2.534,3.656,2.228,5.93c-0.511,0.058-1.073,0.121-1.938,0.218C96.558,82.886,96.145,81.146,94.608,79.559z"/>
<path fill-rule="evenodd" clip-rule="evenodd" fill="#faae19" class="fill" d="M92.677,70.953c0.157-0.613,0.297-1.155,0.437-1.697
	c0.103-0.031,0.204-0.063,0.308-0.094c0.763,1.604,2.379,2.693,2.592,4.665C94.695,73.147,93.727,72.13,92.677,70.953z"/>
<path fill-rule="evenodd" clip-rule="evenodd" fill="#faae19" class="fill" d="M57.074,24.758c-1.198,1.642-2.84,2.531-5.07,2.789
	C53.486,26.242,55.108,25.18,57.074,24.758z"/>
<path fill-rule="evenodd" clip-rule="evenodd" fill="#faae19" class="fill" d="M98.104,68.183c0.668,0.52,1.338,1.041,2.033,1.581
	c0.084,0.583,0.164,1.132,0.284,1.958C98.937,70.831,98.325,69.683,98.104,68.183z"/>
<path fill-rule="evenodd" clip-rule="evenodd" fill="#faae19" class="fill" d="M76.154,95.648c-0.131,0.641-0.236,1.16-0.369,1.811
	c-1.183-0.129-2.292-0.251-3.351-0.367C73.58,96.648,74.757,96.191,76.154,95.648z"/>
<path fill-rule="evenodd" clip-rule="evenodd" fill="#faae19" class="fill" d="M92.343,32.812c-1.642-0.784-2.218-1.344-2.603-2.868
	c0.954,0.868,1.91,1.736,2.865,2.604C92.518,32.636,92.431,32.724,92.343,32.812z"/>
<path fill-rule="evenodd" clip-rule="evenodd" fill="#faae19" class="fill" d="M72.466,98.392c0.952,0.085,1.904,0.169,3,0.268
	C74.723,99.515,74.072,99.466,72.466,98.392z"/>
<path fill-rule="evenodd" clip-rule="evenodd" fill="#faae19" class="fill" d="M42.537,64.792c-0.029-1.134,0.072-2.232,0.972-3.499
	C43.52,62.807,43.274,63.866,42.537,64.792z"/>
<path fill-rule="evenodd" clip-rule="evenodd" fill="#faae19" class="fill" d="M40.83,74.066c0.423,0.212,0.847,0.424,1.433,0.718
	c-0.393,0.286-0.619,0.451-0.936,0.681c-0.274-0.425-0.511-0.791-0.748-1.157C40.663,74.227,40.747,74.146,40.83,74.066z"/>
</svg>
