<svg version="1.1" id="svg" xmlns="http://www.w3.org/2000/svg" xmlns:xlink="http://www.w3.org/1999/xlink" x="0px" y="0px"
	 width="200px" height="200px" viewBox="0 0 200 200" enable-background="new 0 0 200 200" xml:space="preserve">
<path class="stroke" fill="#a70c1e"  fill-rule="evenodd" clip-rule="evenodd" d="M54.592,107.795c-1.104-1.376-2.106-2.626-3.216-4.01
	c-2.791-0.415-4.503-2.6-6.073-4.855c-1.086-1.561-2.113-3.225-2.797-4.987c-0.888-2.288-1.879-4.531-2.785-6.81
	c-0.632-1.59-0.083-3.124,0.462-4.619c0.255-0.697,0.598-1.367,0.952-2.022c1.706-3.154,3.38-6.326,5.162-9.437
	c1.109-1.938,2.315-3.832,3.612-5.65c1.421-1.992,3.508-3.168,5.707-4.135c2.644-1.161,5.285-2.339,8.208-2.644
	c0.173-0.019,0.338-0.118,0.525-0.187c0-1.525,0-3.003,0-4.604c-1.934-2.037-1.438-4.372-0.549-6.736
	c0.147-0.393,0.25-0.804,0.414-1.188c0.829-1.925,1.602-3.878,2.524-5.758c1.264-2.573,3.354-4.155,6.157-4.84
	c1.887-0.46,3.631-0.125,5.236,0.848c2.161,1.307,4.269,0.805,6.227-0.252c1.333-0.72,2.538-0.758,3.858-0.3
	c1.799,0.623,3.027,2.005,4.179,3.401c1.507,1.828,2.833,3.804,4.315,5.653c1.641,2.047,2.548,4.308,2.415,6.954
	c-0.014,0.277,0.02,0.559,0.048,0.837c0.016,0.136,0.072,0.267,0.153,0.557c1.509,0.352,3.088,0.711,4.662,1.093
	c1.13,0.273,2.266,0.536,3.376,0.877c2.74,0.843,5.019,2.426,6.982,4.487c0.319,0.336,0.622,0.688,0.983,1.09
	c1.951-1.157,3.814-2.262,5.575-3.307c0.575-1.409,0.695-2.706,0.612-4.093c-0.138-2.296,0.4-4.528,1.11-6.708
	c0.272-0.838,0.502-1.699,0.877-2.489c0.271-0.567,0.773-1.019,1.134-1.548c0.385-0.564,0.883-1.116,1.059-1.749
	c0.879-3.169,2.859-5.269,5.917-6.387c1.003-0.368,2.008-0.763,3.044-1.011c1.634-0.392,2.886,0.146,3.961,1.66
	c1.146,0.177,2.425,0.375,3.545,0.548c0.894-0.549,1.636-1.005,2.34-1.438c3.051,0.797,5.464,2.136,6.711,5.1
	c0.776,1.844,1.704,3.623,2.611,5.532c0.304,0.094,0.694,0.215,1.287,0.399c0.179,1.036,0.374,2.165,0.594,3.443
	c0.634,0.09,1.311,0.254,1.99,0.27c1.958,0.044,3.745,0.601,5.453,1.543c1.175,0.649,2.392,1.255,3.651,1.713
	c2.963,1.078,5.7,2.625,8.225,4.425c3.995,2.847,6.285,7.254,4.929,12.981c-0.395,1.669-0.582,3.389-0.861,5.086
	c-0.376,2.292-0.418,4.644-1.256,6.853c-0.095,0.25-0.069,0.548-0.099,0.819c0.332,0.413,0.647,0.805,1.014,1.261
	c-0.178,0.39-0.292,0.804-0.528,1.129c-1.616,2.242-2.173,4.882-2.978,7.453c-0.592,1.889-1.403,3.754-2.406,5.458
	c-0.892,1.516-2.429,2.407-4.205,2.779c-0.766,0.16-1.521,0.378-2.238,0.56c-0.421,1.56-0.069,2.938,0.236,4.344
	c0.761,3.498,1.594,6.98,1.899,10.566c0.199,2.354-0.613,4.396-1.686,6.377c-0.62,1.146-1.465,2.178-1.999,3.357
	c-1.032,2.279-2.458,4.369-3.205,6.778c-0.056,0.177-0.084,0.363-0.146,0.631c0.94,1.351,0.712,2.83,0.288,4.356
	c-0.308,1.106-0.475,2.252-0.71,3.406c1.342,0.703,2.519,1.343,3.717,1.942c1.929,0.966,3.668,2.2,5.247,3.657
	c1.877,1.73,1.965,2.452,0.582,4.575c0.439,0.673,0.878,1.38,1.351,2.061c0.451,0.647,0.938,1.269,1.464,1.974
	c-0.054,0.404-0.115,0.856-0.198,1.47c-0.651,0.261-1.309,0.598-2.005,0.791c-3.287,0.913-6.628,1.584-10.051,1.536
	c-3.866-0.056-7.728-0.294-11.521-1.139c-1.228-0.273-2.445-0.592-3.662-0.907c-0.358-0.092-0.715-0.213-1.048-0.372
	c-1.808-0.862-1.97-1.186-1.595-3.143c0.201-1.048,0.421-2.093,0.653-3.241c-0.263-0.213-0.574-0.467-0.986-0.801
	c-0.322-2.873-0.651-5.825-0.974-8.711c-0.954-0.704-1.91-1.235-2.635-1.991c-0.859-0.898-1.622-1.931-2.231-3.015
	c-0.524-0.93-0.419-1.979,0.246-2.9c1.477-2.048,3.266-2.547,5.589-1.558c0.161,0.069,0.336,0.105,0.501,0.156
	c0.645-1.661,0.775-5.054,0.345-9.064c-0.691,0.315-1.103,0.869-1.52,1.372c-2.67,3.228-5.295,6.494-7.986,9.705
	c-2.57,3.068-5.172,6.113-7.817,9.117c-2.155,2.444-4.39,4.819-6.605,7.208c-0.311,0.335-0.68,0.66-1.086,0.856
	c-2.434,1.179-4.965,1.78-7.703,1.366c-1.886-0.285-3.802-0.366-5.691-0.634c-1.424-0.202-2.828-0.55-4.239-0.84
	c-2.277-0.467-4.552-0.939-6.829-1.408c-3.615-0.743-7.153-1.731-10.46-3.411c-1.433-0.728-1.865-2.542-1.021-4.13
	c0.655-1.231,1.352-2.442,2.099-3.788c-1.952-1.987-3.079-4.482-4.002-7.056c-0.92-2.567-1.926-5.134-2.096-8.012
	c0.635-0.273,1.173-0.506,1.776-0.767c0.329-0.475,0.697-1.005,1.102-1.586c0.062-0.883,0.462-1.837-0.163-2.866
	c-1.631,1.114-3.227,2.224-4.845,3.3c-0.637,0.423-1.324,0.771-2.089,1.209c-2.828,3.125-5.767,6.362-8.691,9.613
	c-0.336,0.373-0.599,0.812-0.881,1.201c1.141,2.594,1.836,5.18,1.548,7.945c-0.058,0.554-0.177,1.102-0.25,1.654
	c-0.226,1.752-0.824,3.191-2.825,3.354c-0.416,1.323-0.801,2.554-1.188,3.784c-0.346,1.099-1.009,1.707-2.195,2.066
	c-3.688,1.119-7.466,0.91-11.226,1.004c-2.325,0.058-4.652,0.02-6.979,0.036c-1.818,0.012-3.616-0.13-5.49-0.582
	c-0.2-2.791,1.07-4.976,2.491-7.021c0.128-2.642,1.119-4.599,3.521-5.814c1.654-0.838,3.183-1.921,5.227-2.288
	c-1.041-1.724-2.915-2.917-2.536-5.228c1.652-2.287,3.952-2.154,6.555-1.505c0.134-0.559,0.311-1.114,0.396-1.683
	c0.458-3.085,0.849-6.176,2.193-9.059c0.584-1.253,0.932-2.616,1.386-3.924c-0.661-0.615-1.292-0.338-1.867-0.078
	c-2.461,1.112-4.896,2.284-7.36,3.388c-2.245,1.004-4.504,1.982-6.78,2.912c-3.229,1.317-6.458,2.644-9.732,3.837
	c-1.827,0.667-3.719,1.246-5.633,1.555c-2.687,0.433-5.172-0.248-7.283-2.08c-2.096-1.82-3.808-3.939-5.234-6.318
	c-0.691-1.152-1.493-2.245-2.312-3.312c-1.912-2.486-3.574-5.087-4.653-8.071c-0.836-2.313-0.055-3.728,1.576-4.846
	c1.598-1.095,3.401-1.917,5.183-2.703c1.323-0.585,2.276-0.186,3.294,1.06c2.247,2.745,4.155,5.726,6.119,8.672
	c1.366,2.05,2.952,3.953,4.449,5.913c0.787,1.031,1.854,1.289,3.105,1.164c3.496-0.353,6.878-1.163,10.172-2.376
	c2.011-0.74,4.07-1.351,6.065-2.129C48.11,110.486,51.325,109.13,54.592,107.795z M93.447,135.566
	c0.749,0.256,1.225,0.416,1.7,0.583c3.109,1.093,6.231,2.152,9.323,3.292c2.575,0.95,5.11,2.006,7.672,2.99
	c1.459,0.561,2.812,0.302,4.118-0.546c2.396-1.557,4.55-3.393,6.555-5.423c4.272-4.328,7.963-9.116,11.325-14.168
	c0.873-1.311,1.694-2.655,2.493-3.914c-0.711-2.597-3.212-3.487-4.651-5.671c-1.112,2.476-3.177,4.139-3.283,6.808
	c-0.006,0.174-0.137,0.342-0.207,0.515c-0.886,2.211-1.799,4.407-3.451,5.94c-1.08,4.801-3.055,8.912-6.225,12.398
	c-0.831-0.117-1.47-0.208-2.152-0.306c-0.123,0.093-0.292,0.183-0.416,0.315c-1.266,1.37-2.723,1.685-4.407,0.833
	c-0.166-0.083-0.346-0.144-0.524-0.19c-1.145-0.292-1.689-1.07-1.833-2.2c-0.276-2.177-0.434-4.359-0.166-6.547
	c0.095-0.775,0.309-1.536,0.478-2.348c-2.44-1.553-3.596-3.833-3.904-6.463c-0.703-0.402-1.327-0.758-1.947-1.112
	c-1.726,4.322-3.453,8.681-8.681,10.002C94.972,132.17,94.854,133.969,93.447,135.566z M158.799,72.088
	c-0.07,1.008-0.14,1.876-0.186,2.746c-0.043,0.833-0.094,1.667-0.077,2.5c0.017,0.882,0.072,1.767,0.182,2.642
	c0.102,0.82-0.268,1.735,0.491,2.61c0.756-1.364,1.455-2.625,2.284-4.122c-0.326-1.973-0.114-4.344-1.252-6.548
	C159.843,71.963,159.44,72.012,158.799,72.088z M148.332,151.626c1.025,0.461,1.845,0.894,2.709,1.2
	c0.727,0.257,1.5,0.463,2.264,0.517c1.057,0.074,1.515-0.408,1.843-1.743c-2.065-0.569-4.037-1.61-6.422-0.995
	C148.627,150.862,148.503,151.185,148.332,151.626z M58.8,146.23c-1.42-0.608-5.61-0.03-6.556,0.905
	C53.253,147.45,57.935,146.804,58.8,146.23z M159.159,152.914c-0.008,0.164-0.015,0.328-0.021,0.492
	c2.547,0.245,5.119,0.018,7.748,0.187c0-0.414,0-0.697,0-1.088c-1.376,0.239-2.636,0.58-3.911,0.646
	C161.711,153.215,160.432,153.003,159.159,152.914z"/>
<path class="stroke" fill="#a70c1e"  fill-rule="evenodd" clip-rule="evenodd" d="M123.665,161.672c4.639-1.411,9.358-2.006,14.214-0.384
	c0.133,1.86,0.448,3.643-0.058,5.372c-2.454,0.598-12.213,0.705-13.949,0.146c-0.067-0.779-0.164-1.602-0.2-2.428
	C123.637,163.55,123.665,162.72,123.665,161.672z"/>
<path class="stroke" fill="#a70c1e"  fill-rule="evenodd" clip-rule="evenodd" d="M34.401,148.206c-0.939,0.315-1.399-0.047-1.784-0.418
	c-1.703-1.646-3.39-3.312-5.051-5c-0.457-0.463-0.701-1.054-0.419-1.715C29.539,143.424,31.885,145.731,34.401,148.206z"/>
<path class="stroke" fill="#a70c1e"  fill-rule="evenodd" clip-rule="evenodd" d="M26.559,139.074c-0.199,0.778-0.354,1.393-0.546,2.139
	c-0.956-0.397-1.775-0.737-2.679-1.113c0.094-0.863,0.178-1.626,0.273-2.5C24.98,137.485,25.731,138.238,26.559,139.074z"/>
<path class="stroke" fill="#a70c1e"  fill-rule="evenodd" clip-rule="evenodd" d="M186.494,145.352c1.084-1.168,2.209-0.978,3.521-0.74
	c-0.085,0.716-0.166,1.382-0.233,1.946c-1.038,1.235-2.057,0.163-3.197,0.306C186.55,146.29,186.521,145.811,186.494,145.352z"/>
<path class="stroke" fill="#a70c1e"  fill-rule="evenodd" clip-rule="evenodd" d="M175.608,153.505c0.239-0.262,0.395-0.547,0.633-0.675
	c2.079-1.113,4.173-2.197,6.565-3.45c-0.42,0.483-0.621,0.821-0.912,1.03c-1.396,0.995-2.796,1.988-4.238,2.915
	C176.82,153.862,176.624,153.823,175.608,153.505z"/>
<path class="stroke" fill="#a70c1e"  fill-rule="evenodd" clip-rule="evenodd" d="M30.842,135.223c0.434,0.398,0.889,0.814,1.321,1.209
	c-0.18,1.074-0.428,1.924-1.685,1.964c-0.268-0.32-0.53-0.633-0.761-0.907C29.803,136.087,29.827,136.039,30.842,135.223z"/>
<path class="stroke" fill="#a70c1e"  fill-rule="evenodd" clip-rule="evenodd" d="M179.935,144.05c0.039-0.543,0.075-1.024,0.118-1.628
	c0.654-0.159,1.257-0.307,2.015-0.492c0.201,0.678,0.364,1.225,0.516,1.738C181.806,144.43,181.018,144.398,179.935,144.05z"/>
<path class="stroke" fill="#a70c1e"  fill-rule="evenodd" clip-rule="evenodd" d="M174.01,151.382c1.619-1.589,3.113-3.054,4.61-4.524
	c-0.202,1.799-1.646,2.834-2.8,4.046C175.418,151.326,174.976,151.809,174.01,151.382z"/>
<path class="stroke" fill="#a70c1e"  fill-rule="evenodd" clip-rule="evenodd" d="M32.622,140.012c0.505,1.188,0.919,2.16,1.34,3.15
	C32.641,143.396,32.002,142.054,32.622,140.012z"/>
<path class="stroke" fill="#a70c1e"  fill-rule="evenodd" clip-rule="evenodd" d="M36.506,141.892c0.241,1.08,0.482,2.159,0.73,3.265
	c-0.125,0.073-0.231,0.178-0.351,0.196c-0.173,0.026-0.355-0.011-0.698-0.029c0-1.141,0-2.25,0-3.36
	C36.293,141.939,36.399,141.916,36.506,141.892z"/>
<path class="stroke" fill="#a70c1e"  fill-rule="evenodd" clip-rule="evenodd" d="M180.032,156.548c-1.3,0.744-2.405,0.656-3.553,0.458
	C176.79,156.121,177.152,156.074,180.032,156.548z"/>
<path class="stroke" fill="#a70c1e"  fill-rule="evenodd" clip-rule="evenodd" d="M30.587,150.42c-1.787-0.122-2.608-0.856-2.693-2.438
	c0.466,0.451,0.883,0.931,1.376,1.307c0.45,0.343,0.985,0.576,1.481,0.856C30.698,150.237,30.642,150.329,30.587,150.42z"/>
<path class="stroke" fill="#a70c1e"  fill-rule="evenodd" clip-rule="evenodd" d="M25.789,145.384c-1.573,0.161-2.143-0.261-2.36-1.838
	C24.278,144.207,24.982,144.755,25.789,145.384z"/>
<path fill-rule="evenodd" clip-rule="evenodd" fill="#f5f1eb" class="fill" d="M48.148,73.692c1.787-2.73,3.524-5.421,5.304-8.084
	c0.846-1.264,2.159-1.944,3.564-2.325c2.605-0.703,5.242-1.289,7.869-1.911c0.21-0.05,0.443-0.007,0.792-0.007
	c0.029,0.586,0.114,1.09,0.071,1.584c-0.225,2.622,0.717,4.824,2.32,6.829c1.976,2.471,3.912,4.974,5.87,7.46
	c1.861,2.362,4.271,4.087,6.718,5.771c1.183,0.814,2.322,1.692,3.515,2.492c0.801,0.538,1.659,0.988,2.411,1.429
	c1.385-0.446,2.114-1.327,2.508-2.47c0.561-1.625,1-3.293,1.565-4.917c0.907-2.602,1.068-5.278,0.941-7.993
	c-0.034-0.721,0.066-1.383,0.502-1.986c0.188-0.26,0.378-0.566,0.428-0.874c0.341-2.115,1.979-2.863,3.666-3.622
	c0.71-0.32,1.377-0.774,1.994-1.257c0.953-0.749,1.238-1.809,1.216-2.99c-0.024-1.342-0.006-2.686-0.006-4.203
	c2.658,0.265,5.118,1.185,7.513,2.254c2.493,1.113,4.104,3.14,5.287,5.741c-0.296,0.413-0.647,0.955-1.049,1.455
	c-1.416,1.763-2.411,3.752-3.3,5.814c-0.305,0.709-0.696,1.432-1.218,1.989c-3.454,3.683-6.021,7.923-7.985,12.544
	c-0.399,0.938-0.669,1.935-0.957,2.918c-0.251,0.854-0.699,1.486-1.554,1.841c-1.848,0.769-3.667,1.606-5.518,2.369
	c-3.571,1.474-7.154,2.917-10.734,4.372c-0.171,0.07-0.348,0.123-0.398,0.141c-2.857-1.041-5.604-2.041-8.519-3.101
	c-0.285-1.322-0.232-2.836,0.027-4.357c0.28-1.649,0.548-3.301,0.813-4.953c0.052-0.321,0.129-0.654,0.09-0.969
	c-0.223-1.821-0.162-3.618,0.208-5.419c0.097-0.472-0.074-0.998-0.119-1.464c-1.394-0.329-1.59-0.292-2.153,0.725
	c-0.631,1.14-1.184,2.323-1.773,3.486c-0.163,0.32-0.339,0.634-0.562,1.048c-1.042-0.774-1.994-1.494-2.958-2.198
	c-2.593-1.892-5.49-3.142-8.587-3.896c-2.507-0.611-4.923-1.403-7.128-2.764C48.632,74.079,48.465,73.931,48.148,73.692z
	 M57.527,67.046c-1.329-0.225-2.501,0.278-3.374,1.487c-0.412,0.567-0.514,1.183-0.307,1.854c1.092,3.55,4.89,4.947,7.348,4.516
	c2.287-0.4,3.108-1.683,2.469-3.892C63.027,68.815,60.355,67.045,57.527,67.046z"/>
<path fill-rule="evenodd" clip-rule="evenodd" fill="#f5f1eb" class="fill" d="M167.656,66.592c-1.813,2.695-4.555,3.69-7.594,4.143
	c-1.392,0.207-2.823,0.394-3.666,1.71c-0.338,0.526-0.651,1.172-0.671,1.775c-0.039,1.136-0.438,2.078-1.058,2.976
	c-0.846,1.228-1.705,2.448-2.521,3.695c-0.293,0.445-0.479,0.962-0.841,1.709c0.998,0.07,1.741,0.122,2.613,0.182
	c-0.107,1.065-0.639,1.936-1.21,2.743c-1.267,1.787-2.663,3.464-4.375,4.868c-1.042,0.854-1.956,1.862-2.969,2.753
	c-1.077,0.946-2.16,1.84-3.716,2.005c-1.083,0.115-2.133,0.548-3.11,0.815c-0.945-1.322-1.636-2.635-2.652-3.614
	c-1.121-1.082-1.482-2.306-1.838-3.75c-0.731-2.975-1.729-5.896-3.607-8.405c-0.163-0.217-0.37-0.397-0.536-0.573
	c-0.815,0.127-0.733,0.671-0.679,1.179c0.164,1.53,0.366,3.055,0.503,4.586c0.103,1.16,0.165,2.326,0.177,3.489
	c0.007,0.591-0.135,1.184-0.198,1.691c-0.456,0.383-0.81,0.681-1.263,1.062c-3.317,0.516-6.728,0.535-10.212,0.081
	c-0.13-0.603-0.296-1.091-0.335-1.59c-0.292-3.651,0.267-7.127,2.022-10.399c0.971-1.808,1.604-3.745,1.907-5.809
	c0.315-2.136,0.935-4.203,2.792-5.607c0.18-0.136,0.39-0.231,0.706-0.417c0.441,0.821,0.861,1.583,1.261,2.353
	c0.193,0.371,0.312,0.783,0.524,1.141c0.778,1.308,1.696,2.448,3.312,2.78c2.41,0.496,4.792,1.29,7.223,1.482
	c4.403,0.347,7.642-1.806,10.004-5.433c1.173-1.799,1.727-3.8,2.073-5.871c0.504-0.468,0.979-0.908,1.56-1.448
	c0.251-1.104,0.528-2.325,0.851-3.745C158.122,59.943,163.576,61.779,167.656,66.592z M133.784,81.892
	c2.242,3.693,8.103,9.171,10.151,9.39c0.317-0.713,0.684-1.457,0.983-2.229c1.023-2.647,2.073-5.287,3.017-7.963
	c0.648-1.837,1.146-3.727,1.69-5.599c0.18-0.615,0.215-1.218-0.822-1.533c-0.961,0.477-2.102,0.99-3.191,1.594
	c-3.296,1.831-6.606,3.629-10.188,4.852C134.672,80.66,134.087,81.025,133.784,81.892z"/>
<path fill-rule="evenodd" clip-rule="evenodd" fill="#f5f1eb" class="fill" d="M95.665,47.019c-2.221,1.436-4.538,2.229-6.892,2.925
	c-0.801,0.237-1.63,0.374-2.436,0.593c-1.39,0.377-2.757,0.357-4.116-0.13c-0.442-0.159-0.887-0.297-1.32,0.395
	c1.7,0.863,3.433,1.292,5.249,0.964c2.94-0.533,5.772-1.453,8.46-2.79c0.523-0.261,1.104-0.402,1.707-0.616
	c0.788,1.548,0.616,3.098,0.719,4.668c-1.702,1.338-3.707,2.043-5.783,2.579c-2.118,0.547-4.251,1.036-6.36,1.611
	c-1.476,0.402-2.967,0.462-4.43,0.159c-2.956-0.614-5.89-1.342-8.83-2.031c-2.229-0.521-4.04-1.865-5.924-3.059
	c-0.708-0.45-0.898-1.179-0.795-1.962c0.314-2.364,0.811-4.708,1.97-6.796C67.733,42,68.8,40.559,69.96,39.246
	c1.475-1.669,3.489-2.016,5.617-1.655c1.876,0.317,3.73,0.771,5.611,1.049c0.945,0.14,1.927,0.024,2.925,0.024
	c0.301-0.284,0.596-0.579,0.907-0.853c1.104-0.968,1.87-1.109,2.962-0.124c1.301,1.172,2.458,2.517,3.587,3.863
	c1.103,1.318,2.095,2.73,3.129,4.106C95.023,46.089,95.324,46.538,95.665,47.019z M71.776,40.482
	c-3.403,1.652-4.4,4.696-5.312,8.481c-0.049,0.202,0.035,0.435,0.062,0.72c0.338,0,0.593,0,0.844,0
	c0.524-1.447,0.987-2.854,1.542-4.223c0.548-1.345,1.264-2.58,2.627-3.312c0.396-0.213,0.706-0.595,1.036-0.92
	c0.084-0.083,0.095-0.241,0.166-0.443C72.373,40.671,72.034,40.563,71.776,40.482z M79.432,48.34
	c-0.249-0.33-0.441-0.585-0.608-0.805c-2.98,1.031-4.093,2.181-4.893,4.998c-0.094,0.332-0.085,0.693-0.124,1.039
	c0.252,0.084,0.379,0.161,0.508,0.161c0.127-0.001,0.254-0.079,0.356-0.114C76.477,49.986,76.477,49.986,79.432,48.34z"/>
<path fill-rule="evenodd" clip-rule="evenodd" fill="#f5f1eb" class="fill" d="M136.573,35.073c0.376,0.459,0.698,0.853,1.123,1.371
	c1.604,0.236,3.298,0.485,4.852,0.714c0.852-0.531,1.519-0.946,2.172-1.354c2.017,0.397,3.445,1.521,4.474,3.165
	c1.096,1.751,1.841,3.656,2.292,5.675c0.091,0.401,0.19,0.801,0.282,1.183c0.484,0.249,0.894,0.46,1.433,0.736
	c0.242,2.621,0.105,5.197-1.577,7.445c-9.414,1.529-18.608,0.99-27.636-1.726c-0.486-1.717,0.597-7.147,1.833-9.251
	c0.507-0.2,1.061-0.419,1.714-0.676c0.154-2.506,1.351-4.48,3.495-5.677C132.695,35.75,134.369,34.531,136.573,35.073z
	 M128.652,44.114c6.482,1.823,12.922,3.118,19.683,2.23c0.062-0.278,0.124-0.56,0.197-0.888c-0.519-0.052-0.912-0.091-1.278-0.128
	c-0.179-1.066,0.386-2.102-0.256-3.098c-1.527,0.589-0.264,2.144-1.123,2.893c-0.906,0.065-12.874-1.459-13.61-1.735
	c-0.089-1.274,1.084-2.261,1.009-3.632c-1.088,0.135-1.19,0.908-1.458,1.521c-0.292,0.668-0.545,1.353-0.789,1.963
	C130.121,43.425,129.125,42.855,128.652,44.114z"/>
<path fill-rule="evenodd" clip-rule="evenodd" fill="#f5f1eb" class="fill" d="M6.499,105.503c0.15-0.857,0.573-1.465,1.27-1.825
	c1.402-0.728,2.824-1.422,4.25-2.104c0.733-0.351,1.404-0.132,1.879,0.471c0.862,1.095,1.694,2.217,2.487,3.364
	c2.276,3.295,4.542,6.598,6.783,9.917c1.987,2.942,4.822,3.507,8.001,2.718c2.885-0.716,5.752-1.554,8.551-2.555
	c3.986-1.424,7.924-2.994,11.841-4.604c2.837-1.166,5.595-2.526,8.415-3.74c1.016-0.438,2.108-0.699,3.215-1.057
	c0.577,0.311,1.132,0.611,1.924,1.04c-1.408,0.667-2.583,1.198-3.733,1.777c-3.281,1.65-6.541,3.347-9.833,4.975
	c-2.293,1.134-4.615,2.214-6.948,3.267c-3.686,1.663-7.362,3.352-11.098,4.899c-2.823,1.17-5.63,2.48-8.728,2.793
	c-2.616,0.266-4.927-0.452-6.97-2.19c-2.568-2.186-4.301-4.994-6.122-7.75c-1.102-1.67-2.225-3.324-3.346-4.98
	C7.411,108.552,6.763,107.075,6.499,105.503z"/>
<path fill-rule="evenodd" clip-rule="evenodd" fill="#f5f1eb" class="fill" d="M84.408,142.613c0.662-0.957,1.319-1.952,2.022-2.913
	c0.714-0.978,1.456-1.925,2.556-2.54c0.647-0.364,1.259-0.57,1.984-0.306c0.826,0.301,1.663,0.572,2.487,0.877
	c2.047,0.762,4.092,1.533,6.135,2.308c2.785,1.056,5.555,2.148,8.352,3.169c1.791,0.655,3.598,1.278,5.545,1.335
	c1.857,0.054,3.466-0.591,4.959-1.618c2.87-1.973,5.21-4.493,7.426-7.147c2.568-3.076,5.208-6.094,7.719-9.214
	c2.364-2.939,4.596-5.985,6.901-8.972c0.362-0.469,0.812-0.868,1.167-1.243c1.454,0.268,1.898,0.637,2.326,1.932
	c-0.573,0.749-1.152,1.591-1.818,2.358c-2.652,3.062-5.345,6.088-7.992,9.156c-0.76,0.879-1.361,1.895-2.123,2.773
	c-1.983,2.287-4.01,4.536-6.03,6.792c-1.832,2.047-3.696,4.068-5.518,6.126c-1.991,2.249-4.548,3.572-7.394,4.231
	c-1.367,0.317-2.896,0.263-4.299,0.039c-2.893-0.461-5.743-1.181-8.624-1.734c-4.503-0.864-8.777-2.487-13.124-3.876
	C86.152,143.854,85.179,143.623,84.408,142.613z"/>
<path fill-rule="evenodd" clip-rule="evenodd" fill="#f5f1eb" class="fill" d="M65.414,86.769c-0.65,0.514-1.092,0.913-1.581,1.241
	c-2.87,1.926-5.978,3.384-9.205,4.597c-2.827,1.061-5.668,0.678-8.502,0.025c-0.359-0.083-0.703-0.236-1.146-0.389
	c-1.006-2.138-1.428-4.459-1.317-6.843c0.08-1.712,0.345-3.425,0.665-5.112c0.207-1.091,0.766-2.079,1.597-2.975
	c0.761,0.36,1.541,0.658,2.249,1.077c1.757,1.039,3.688,1.564,5.661,1.887c3.458,0.564,6.457,2.006,9.05,4.34
	C63.639,85.296,64.43,85.934,65.414,86.769z"/>
<path fill-rule="evenodd" clip-rule="evenodd" fill="#f5f1eb" class="fill" d="M119.67,62.116c1.645,0.202,2.93,0.358,4.315,0.528
	c0.138,0.622,0.273,1.236,0.375,1.69c-1.153,0.931-2.195,1.703-3.156,2.563c-1.27,1.137-1.931,2.647-2.104,4.301
	c-0.214,2.035-0.869,3.936-1.791,5.697c-2.068,3.947-2.965,8.097-2.7,12.525c0.039,0.641,0.005,1.286,0.005,1.88
	c-1.521,0.476-3.515,0.388-5.135-0.202c-0.05-0.735-0.111-1.514-0.153-2.294c-0.249-4.664-0.014-9.307,0.584-13.935
	c0.519-4.019,2.21-7.355,5.615-9.719C116.97,64.148,118.365,63.074,119.67,62.116z"/>
<path fill-rule="evenodd" clip-rule="evenodd" fill="#f5f1eb" class="fill" d="M68.072,59.117c-0.451-0.416-0.831-0.824-1.27-1.155
	c-0.847-0.639-1.207-1.38-0.736-2.418c0.187-0.41,0.29-0.858,0.489-1.466c0.446,0.339,0.75,0.571,0.913,0.695
	c-0.048,0.953-0.085,1.714-0.131,2.636c0.765,0,1.328,0,1.963,0c0-0.387,0-0.69,0-1.164c1.26,0.394,2.517,0.786,3.925,1.227
	c-0.234,2.182-0.461,4.29-0.67,6.237c0.38,1.01,1.047,1.358,1.874,1.523c3.517,0.704,7.055,1.206,10.655,1.195
	c1.009-0.002,2.019,0.174,3.002,0.266c0.171,1.353-0.453,2.015-1.818,1.958c-0.552-0.023-1.097-0.189-1.645-0.291
	c-0.549-0.102-1.097-0.205-1.693-0.315c-0.184-0.262-0.387-0.553-0.631-0.899c-0.724,0.406-0.765,1.025-0.808,1.874
	c2.41,0.128,4.738,1.403,7.195,0.061c0.279-0.396,0.572-0.812,0.894-1.27c0-0.385,0-0.801,0-1.319
	c0.725-0.132,1.417-0.259,2.31-0.422c-0.954,2.293-1.979,4.279-3.285,6.079c-1.246,1.715-3.035,2.733-5.144,3.078
	c-1.192,0.196-2.4,0.324-3.606,0.411c-2.61,0.188-4.681-0.916-6.398-2.793c-1.319-1.442-2.655-2.873-3.94-4.347
	c-2.232-2.56-2.43-5.535-1.688-8.683C67.868,59.638,67.947,59.469,68.072,59.117z M77.636,73.495c2.76,0.251,5.483,0.03,7.893-1.701
	c0.29-0.208,0.464-0.578,0.91-1.155c-1.737,0-3.096,0.089-4.437-0.024c-1.415-0.119-2.811-0.431-4.25-0.664
	C76.765,71.144,76.702,72.074,77.636,73.495z"/>
<path fill-rule="evenodd" clip-rule="evenodd" fill="#f5f1eb" class="fill" d="M151.561,128.889c1.196-3.216,2.31-6.211,3.508-9.435
	c1.429-0.421,2.202-1.749,2.805-3.27c0.195-0.494,0.591-0.958,1.006-1.302c0.684-0.566,1.059-1.289,1.314-2.093
	c0.75-2.356,1.44-4.725,1.006-7.25c-0.02-0.118,0.046-0.25,0.083-0.427c1.755,0.519,2.637,2.022,3.957,3.308
	c0.311,1.893,0.861,3.948,0.922,6.019c0.051,1.681-0.358,3.413-0.793,5.06c-0.756,2.861-2.375,5.344-3.825,7.885
	c-0.723,1.268-2.017,1.748-3.388,1.955C155.961,129.668,153.83,129.135,151.561,128.889z"/>
<path fill-rule="evenodd" clip-rule="evenodd" fill="#f5f1eb" class="fill" d="M103.865,103.24c1.513,1.442,3.358,0.071,5.255,0.312
	c-0.22,1.51-1.809,1.972-2.4,3.398c0.034,0.309,0.092,0.846,0.148,1.369c1.601,0.753,3.143,0.813,4.729,0.456
	c0.987-0.223,1.911-0.175,2.811,0.806c-0.586,0.285-1.042,0.562-1.534,0.736c-1.446,0.514-2.918,0.958-4.354,1.496
	c-0.443,0.166-0.807,0.545-1.263,0.865c0.217,0.684,0.393,1.242,0.613,1.937c1.044-0.068,2.018-0.071,2.973-0.206
	c2.438-0.343,4.86-0.805,7.303-1.104c1.709-0.21,3.42-0.007,5.102,0.383c0.574,1.5,0.355,2.918,0.25,4.415
	c-3.207,0.949-6.277,2.201-9.573,2.599c-0.855,0.104-1.791,0.042-2.612-0.202c-1.553-0.464-3.049-1.113-4.704-1.735
	c-0.883-2.405-1.92-4.754-2.608-7.202c-1.12-3.979-2.014-8.022-2.999-12.041c-0.074-0.304-0.119-0.616-0.216-1.124
	c1.319,0.604,2.471,1.13,3.671,1.679C103.999,101.106,103.088,101.952,103.865,103.24z"/>
<path fill-rule="evenodd" clip-rule="evenodd" fill="#f5f1eb" class="fill" d="M133.111,110.791c-0.174-0.106-0.361-0.222-0.588-0.36
	c-0.53,0.144-0.938,1.03-1.706,0.352c0.185-0.709,0.377-1.447,0.569-2.183c-0.104-0.055-0.207-0.111-0.311-0.167
	c-0.545,0.641-1.09,1.282-1.753,2.061c-0.231-0.045-0.607-0.118-0.975-0.19c0.021-1.015,1.113-1.639,0.672-2.777
	c-1.029,0.517-1.356,1.557-2.082,2.31c-0.232-0.025-0.496-0.052-0.841-0.089c0.268-0.971,0.514-1.862,0.814-2.949
	c-1.393,0.448-1.314,1.787-2.302,2.466c-0.228-0.058-0.597-0.151-1.078-0.273c0.177-0.574,0.311-1.007,0.443-1.441
	c0.126-0.415,0.252-0.829,0.421-1.387c-1.676,0.137-1.375,1.646-2.15,2.383c-0.163-0.03-0.375-0.07-0.702-0.132
	c0.468-1.096,0.908-2.126,1.452-3.399c-1.545,0.623-1.764,2.044-2.692,2.92c-0.285-0.055-0.588-0.113-0.898-0.174
	c-0.023-0.193-0.102-0.363-0.047-0.451c0.701-1.146,1.324-2.356,2.155-3.402c2.021-2.546,4.704-4.195,7.749-5.243
	c0.521-0.179,1.207-0.093,1.755,0.071c1.246,0.372,2.445,0.902,3.683,1.309c1.501,0.493,3.024,0.918,4.534,1.386
	c0.427,0.133,0.838,0.314,1.299,0.49C138.026,104.914,135.622,107.788,133.111,110.791z"/>
<path fill-rule="evenodd" clip-rule="evenodd" fill="#f5f1eb" class="fill" d="M80.106,104.803c-1.152,1.106-2.227,1.205-3.498,0.724
	c-2.132-0.808-4.306-1.52-6.625-1.578c-0.233-0.006-0.491-0.083-0.694-0.007c-1.877,0.701-3.862,0.489-5.795,0.711
	c-1.074,0.123-2.112,0.297-3.062,0.853c-0.271,0.158-0.599,0.222-0.961,0.352c-0.739-0.869-1.457-1.712-2.146-2.521
	c-0.128-1.408,0.366-2.397,1.489-3.152c0.648-0.437,1.177-1.049,1.775-1.562c1.642-1.409,3.716-1.626,5.715-2.024
	c3.016-0.598,5.648,0.597,8.317,1.748c2.416,1.041,3.994,2.83,5.082,5.134C79.893,103.885,79.968,104.343,80.106,104.803z"/>
<path fill-rule="evenodd" clip-rule="evenodd" fill="#f5f1eb" class="fill" d="M129.072,93.062c0.142,1,0.275,1.946,0.438,3.094
	c-0.272,0.197-0.563,0.425-0.87,0.63c-4.201,2.811-8.403,5.616-12.663,8.461c-4.291-1.691-6.497-5.044-7.827-9.492
	C115.35,96.187,122.109,94.538,129.072,93.062z"/>
<path fill-rule="evenodd" clip-rule="evenodd" fill="#f5f1eb" class="fill" d="M173.805,90.008c-0.39,2.309-0.788,4.373-1.953,6.162
	c-0.75,1.152-1.866,1.966-3.207,2.337c-1.07,0.296-2.181,0.445-3.24,0.654c-0.98-0.919-1.061-1.538-0.43-2.985
	c0.708-0.435,1.409-0.866,2.051-1.261c0.146-1.908-0.799-3.609-2.536-4.351c-1.737-0.74-4.138-0.969-5.142,0.236
	c-0.493,1.382-0.841,2.355-1.244,3.487c-0.715-0.271-1.257-0.476-1.736-0.656c-1.219-3.782-0.335-6.353,3.89-9.45
	C164.785,85.778,169.322,87.642,173.805,90.008z"/>
<path fill-rule="evenodd" clip-rule="evenodd" fill="#f5f1eb" class="fill" d="M125.633,62.519c2.422,0.328,4.575,0.62,6.797,0.92
	c0,0.479,0,0.922,0,1.423c1.568,0.482,3.091,0.815,4.792,0.587c0.083-0.262,0.171-0.538,0.277-0.871
	c-1.147-0.402-2.38-0.018-3.603-0.773c4.317,0,8.373,0,12.593,0c-0.119,0.519-0.148,0.876-0.281,1.191
	c-0.648,1.546-1.342,3.073-1.984,4.622c-0.86,2.076-2.496,2.965-4.627,3.337c-3.151,0.551-6.112-0.075-9.035-1.149
	c-1.488-0.546-2.517-1.51-2.987-3.078c-0.4-1.337-0.935-2.634-1.371-3.96C125.987,64.11,125.859,63.426,125.633,62.519z
	 M131.759,69.435c3.151,0.729,6.339,0.64,9.581,1.054c0.047-1.729-1.193-2.531-1.752-3.709c-1.917,0-3.725-0.003-5.534,0.004
	c-0.229,0.001-0.464,0.048-0.689,0.104C131.999,67.223,131.688,67.668,131.759,69.435z"/>
<path fill-rule="evenodd" clip-rule="evenodd" fill="#f5f1eb" class="fill" d="M73.865,63.787c0-0.734-0.054-1.432,0.012-2.119
	c0.117-1.235,0.307-2.464,0.489-3.882c7.816,2.009,15.249,0.762,22.596-2.599c0.302,2.531,0.569,4.858,0.327,7.279
	c-2.542,1.325-5.13,2.25-7.888,2.905c-0.795-1.783-0.337-3.738-1.362-5.341c-0.753,0.239-0.631,0.735-0.57,1.249
	c0.155,1.284,0.273,2.572,0.402,3.826C85.847,65.811,76.455,64.931,73.865,63.787z M77.865,62.132
	c0.975,1.561,1.498,2.079,2.644,2.157c1.74,0.118,3.39-0.286,4.995-1.176c-0.028-0.646-0.055-1.229-0.082-1.843
	c-0.511-0.232-0.915-0.546-1.346-0.589c-1.25-0.123-2.517-0.24-3.764-0.163C79.295,60.58,78.271,60.886,77.865,62.132z
	 M89.64,62.091c0.48,0.272,0.789,0.598,1.092,0.594c1.379-0.022,2.77-0.058,4.134-0.249c0.859-0.121,1.453-0.727,1.572-1.744
	c-0.404-0.301-0.805-0.599-1.342-0.998c-1.476,0.213-3.018,0.435-4.585,0.661C90.219,60.937,89.981,61.413,89.64,62.091z"/>
<path fill-rule="evenodd" clip-rule="evenodd" fill="#f5f1eb" class="fill" d="M147.288,62.422c-1.801,0.496-10.282,0.4-12.753-0.125
	c0.25-0.899,0.5-1.798,0.801-2.881c-1.58,0.456-1.234,1.971-2.074,2.69c-1.121,0.193-6.291-0.499-7.876-1.069
	c-1.266-3.194-1.455-5.489-0.559-7.325c0.914,0.263,1.836,0.563,2.776,0.787c0.894,0.212,1.806,0.342,2.72,0.612
	c-1.785,0.184-3.606,0.18-4.981,1.562c-0.205,1.178-0.1,1.502,0.826,1.894c1.444,0.61,2.98,0.709,4.522,0.615
	c0.834-0.051,1.502-0.471,1.956-1.327c0-0.46,0-1.013,0-1.624c-0.413-0.249-0.836-0.505-1.513-0.915
	c3.185,0.25,6.067,0.628,8.954,0.664c2.91,0.037,5.823-0.266,8.886-0.428C149.031,58.157,147.863,60.255,147.288,62.422z
	 M146.22,59.052c0.227-1.128-0.055-1.956-0.986-2.28c-1.7-0.593-3.46-0.688-5.173-0.047c-0.932,0.349-1.183,0.898-1.131,1.925
	C140.799,60.329,144.554,60.607,146.22,59.052z"/>
<path fill-rule="evenodd" clip-rule="evenodd" fill="#f5f1eb" class="fill" d="M152.164,56.516c1.062-1.66,2.075-3.246,3.162-4.947
	c0.526,0.05,1.138,0.033,1.712,0.173c2.621,0.647,5.223,1.371,7.846,2.005c2.776,0.669,5.134,2.134,7.426,3.744
	c0.294,0.208,0.531,0.497,0.877,0.825c-0.521,0.65-1.009,1.26-1.55,1.934c-0.333-0.057-0.676-0.115-1.131-0.192
	c-0.708,1.018-0.25,2.485-1.238,3.473c-1.116-0.79-2.206-1.574-3.308-2.34c-2.147-1.489-4.301-2.948-6.988-3.333
	c-1.932-0.276-3.853-0.637-5.775-0.978C152.889,56.824,152.598,56.672,152.164,56.516z"/>
<path fill-rule="evenodd" clip-rule="evenodd" fill="#f5f1eb" class="fill" d="M137.92,114.361c2.133-4.225,5.05-7.492,9.575-9.297
	c2.336,2.651,5.22,4.952,6.511,8.496c0.283,0.777,0.445,1.598,0.659,2.386c-1.064,1.354-2.433,1.368-3.748,1.009
	c-1.378-0.375-2.773-0.868-3.994-1.594c-1.743-1.035-3.677-1.837-4.988-3.537c-1.706,0.673-2.298,2.132-2.814,3.683
	C138.311,115.394,137.928,114.991,137.92,114.361z"/>
<path fill-rule="evenodd" clip-rule="evenodd" fill="#f5f1eb" class="fill" d="M164.718,78.184c-0.041-0.517-0.075-0.959-0.112-1.449
	c0.783-0.333,1.512-0.645,2.24-0.955c-0.021-0.105-0.04-0.21-0.061-0.315c-0.699-0.069-1.398-0.139-2.232-0.221
	c0.625-1.317,2.092-0.582,2.848-1.337c-0.826-1.213-2.09-0.221-3.19-0.663c0.917-1.093,2.361-1.086,3.228-1.947
	c0.853-0.849,1.598-1.807,2.535-2.882c2.437-0.077,5.063-0.176,7.874,0.366c-0.296,3.02-0.588,5.986-0.883,8.998
	C172.788,77.807,168.796,77.441,164.718,78.184z"/>
<path fill-rule="evenodd" clip-rule="evenodd" fill="#f5f1eb" class="fill" d="M158.206,154.428c1.473,0.558,2.93,0.271,4.351,0.355
	c1.115,0.067,2.237,0.022,3.356,0.043c1.576,0.03,2.068-0.388,2.279-1.97c0.03-0.226,0.043-0.453,0.07-0.75
	c0.399-0.153,0.776-0.295,1.257-0.479c0.495,0.677,0.97,1.3,1.414,1.944c0.42,0.608,0.809,1.237,1.211,1.858
	c-5.973,3.357-24.01,2.103-27.866-1.271c0.26-1.275,0.535-2.625,0.843-4.13c0.865,0.138,1.575,0.252,2.389,0.382
	c-0.104,0.669-0.192,1.245-0.276,1.79c0.06,0.118,0.082,0.25,0.146,0.276c1.582,0.658,3.123,1.468,4.765,1.911
	c1.905,0.514,2.771,0.004,3.851-1.682c0.099-0.155,0.215-0.299,0.303-0.422c0.128-0.037,0.225-0.098,0.303-0.081
	c0.312,0.072,0.62,0.168,0.933,0.256C157.766,153.141,157.989,153.79,158.206,154.428z"/>
<path fill-rule="evenodd" clip-rule="evenodd" fill="#f5f1eb" class="fill" d="M159.966,133.498c-4.139,3.74-9.181,4.298-14.618,4.322
	c-0.01-2.675,0.092-5.174,0.781-7.792c4.767,1.725,9.519,2.072,14.54,1.122c-0.133,0.57-0.2,0.955-0.313,1.326
	C160.248,132.831,160.094,133.17,159.966,133.498z"/>
<path fill-rule="evenodd" clip-rule="evenodd" fill="#f5f1eb" class="fill" d="M48.17,148.521c0.394-0.467,0.658-0.783,0.98-1.165
	c0.421-0.071,0.919-0.155,1.494-0.252c0.211,0.403,0.419,0.798,0.661,1.259c1.368,0.251,2.725-0.021,4.095-0.262
	c1.369-0.241,2.754-0.392,4.182-0.589c0.275-0.476,0.549-0.951,0.862-1.493c0.474-0.054,0.961-0.108,1.558-0.177
	c-0.109,1.416-0.727,2.513-1.203,3.643c-0.103,0.245-0.487,0.443-0.78,0.523c-1.744,0.471-3.453,1.04-5.315,1.014
	c-2.598-0.038-5.198,0.137-7.796,0.147c-2.369,0.009-4.738-0.077-7.106-0.131c-0.225-0.006-0.446-0.09-0.747-0.153
	c0.102-1.411,0.178-2.768,1.001-4.031c0.5,0.279,0.938,0.522,1.375,0.769c0.743,0.419,1.508,0.602,2.391,0.598
	C45.253,148.215,46.685,148.408,48.17,148.521z"/>
<path fill-rule="evenodd" clip-rule="evenodd" fill="#f5f1eb" class="fill" d="M50.857,100.937c0.919-1.778,3.239-2.473,3.571-4.747
	c-0.765,0.646-1.567,1.252-2.283,1.948c-0.697,0.677-1.306,1.445-1.976,2.199c-0.426-0.304-0.63-0.45-0.861-0.615
	c0.104-0.233,0.137-0.435,0.255-0.558c1.712-1.803,3.642-3.244,5.98-4.225c2.644-1.11,5.46-1.897,7.785-3.696
	c0.14-0.108,0.312-0.174,0.629-0.346c0.757,1.235,1.492,2.438,2.284,3.734c-0.438,0.165-0.725,0.309-1.028,0.384
	c-3.375,0.833-6.143,2.844-9.014,4.645c-0.945,0.593-1.819,1.296-2.734,1.938c-0.47,0.33-0.477,0.32-1.274,0.042
	c0.458-0.936,1.32-1.399,2.106-1.941c0.979-0.675,1.086-0.822,1.428-2.122c-0.952,0.587-1.843,1.036-2.611,1.637
	c-0.733,0.576-1.342,1.312-2.006,1.976C51.024,101.105,50.941,101.021,50.857,100.937z"/>
<path fill-rule="evenodd" clip-rule="evenodd" fill="#f5f1eb" class="fill" d="M176.696,84.196c-0.638,1.184-1.313,2.436-1.987,3.686
	c-5.004-2.726-5.03-2.737-13.085-5.196c0.161-0.588,0.322-1.181,0.515-1.887c0.912,0.043,1.738,0.031,2.551,0.13
	c2.263,0.272,4.527,0.552,6.777,0.907c1.097,0.172,2.166,0.516,3.247,0.788C175.558,82.835,176.242,83.264,176.696,84.196z"/>
<path fill-rule="evenodd" clip-rule="evenodd" fill="#f5f1eb" class="fill" d="M68.694,122.906c-2.833-0.551-5.413-1.367-7.82-2.75
	c-1.28-0.734-2.664-1.288-4.164-2c0.221-0.916,0.429-1.782,0.635-2.637c2.241,0.408,11.354,3.515,13.035,4.776
	C69.843,121.125,69.302,121.964,68.694,122.906z"/>
<path fill-rule="evenodd" clip-rule="evenodd" fill="#f5f1eb" class="fill" d="M86.833,84.898c-2.843-1.772-5.704-3.354-8.623-5.466
	c3.678-0.688,6.851-1.774,9.549-3.945C88.804,77.279,88.299,82.594,86.833,84.898z"/>
<path fill-rule="evenodd" clip-rule="evenodd" fill="#f5f1eb" class="fill" d="M142.656,102.331c1.233,0.727,2.304,1.357,3.627,2.137
	c-0.302,0.172-0.496,0.293-0.7,0.396c-3.529,1.776-5.991,4.625-7.998,7.936c-0.332,0.547-0.702,1.071-1.163,1.771
	c-0.672-0.807-1.25-1.502-1.9-2.284C136.573,108.375,139.643,105.426,142.656,102.331z"/>
<path fill-rule="evenodd" clip-rule="evenodd" fill="#f5f1eb" class="fill" d="M67.111,84.462c-0.327,0.491-0.598,0.899-0.948,1.426
	c-0.438-0.306-0.775-0.525-1.095-0.766c-1.628-1.229-3.178-2.584-4.9-3.663c-1.729-1.083-3.653-1.818-5.713-2.109
	c-2.61-0.369-5.04-1.277-7.342-2.542c-0.228-0.126-0.407-0.341-0.686-0.581c0.349-0.498,0.661-0.941,1.023-1.457
	c0.378,0.131,0.759,0.183,1.044,0.374c2.211,1.488,4.744,2.091,7.267,2.763c4.065,1.084,7.721,2.952,10.775,5.897
	C66.699,83.962,66.837,84.147,67.111,84.462z"/>
<path fill-rule="evenodd" clip-rule="evenodd" fill="#f5f1eb" class="fill" d="M54.896,134.668c-0.869-2.036-0.754-4.067-0.158-6.145
	c1.425,0.647,2.767,1.406,4.203,1.864c1.396,0.445,2.89,0.581,4.621,0.904c-0.896,1.233-1.637,2.268-2.4,3.287
	c-0.102,0.137-0.305,0.207-0.473,0.282C59.174,135.548,56.538,135.45,54.896,134.668z"/>
<path fill-rule="evenodd" clip-rule="evenodd" fill="#f5f1eb" class="fill" d="M163.345,91.344c0.49,0.304,0.897,0.556,1.425,0.882
	c-4.175,5.213-8.25,10.3-12.402,15.485c-0.609-0.706-1.114-1.292-1.65-1.914C155.321,101.38,158.926,96.16,163.345,91.344z"/>
<path fill-rule="evenodd" clip-rule="evenodd" fill="#f5f1eb" class="fill" d="M124.521,65.445c0.138,0.504,0.243,0.89,0.342,1.25
	c-0.123,0.159-0.187,0.298-0.295,0.372c-2.339,1.579-3.389,3.904-3.735,6.591c-0.28,2.162-1.026,4.167-2.021,6.061
	c-1.846,3.52-2.225,7.244-1.846,11.112c0.021,0.224,0.033,0.449,0.058,0.784c-0.442,0-0.822,0-1.279,0
	c-0.217-4.158-0.416-8.207,1.441-12.082c1.363-2.845,2.596-5.741,3.041-8.945C120.564,68.149,122.391,66.695,124.521,65.445z"/>
<path fill-rule="evenodd" clip-rule="evenodd" fill="#f5f1eb" class="fill" d="M75.007,108.225c1.106,0.417,2.354,0.615,3.128,1.972
	c-0.574,0.417-1.124,0.904-1.75,1.254c-1.766,0.984-3.68,1.59-5.671,1.872c-1.111,0.158-2.229,0.013-3.102-0.806
	c-0.445-2.17,0.898-3.645,3.12-3.467C72.954,109.226,73.085,109.201,75.007,108.225z"/>
<path fill-rule="evenodd" clip-rule="evenodd" fill="#f5f1eb" class="fill" d="M109.382,124.448c0.635-0.548,1.42-0.625,2.186-0.679
	c2.591-0.182,5.189-0.271,7.774-0.512c1.137-0.105,2.253-0.47,3.369-0.761c0.746-0.194,1.474-0.462,2.36-0.746
	c0.027,1.196-0.53,1.876-1.324,2.256c-3.432,1.643-6.979,2.818-10.875,2.292C111.46,126.108,110.255,125.485,109.382,124.448z"/>
<path fill-rule="evenodd" clip-rule="evenodd" fill="#f5f1eb" class="fill" d="M174.844,59.378c1.376,2.494,1.661,5.062,1.575,7.85
	c-1.938,0-3.815,0-5.691,0C170.565,63.843,172.454,61.577,174.844,59.378z"/>
<path fill-rule="evenodd" clip-rule="evenodd" fill="#f5f1eb" class="fill" d="M55.642,124.013c0.104-0.723,0.216-1.518,0.357-2.503
	c3.485,1.932,6.908,3.427,10.715,4.019c0.018,1.015-0.672,1.535-1.112,2.203C61.778,127.894,58.593,126.544,55.642,124.013z"/>
<path fill-rule="evenodd" clip-rule="evenodd" fill="#f5f1eb" class="fill" d="M81.062,101.183c-0.271-0.468-0.518-0.895-0.774-1.342
	c4.54-1.734,8.984-3.43,13.536-5.169c0.234,0.397,0.461,0.778,0.675,1.141C93.55,96.665,82.544,101.073,81.062,101.183z"/>
<path fill-rule="evenodd" clip-rule="evenodd" fill="#f5f1eb" class="fill" d="M79.933,122.877c0.406-0.071,0.611-0.108,0.859-0.152
	c1.437,4.598,2.942,9.098,6.258,12.835c-0.353,0.335-0.668,0.634-1.11,1.053C82.241,132.693,81.073,127.864,79.933,122.877z"/>
<path fill-rule="evenodd" clip-rule="evenodd" fill="#f5f1eb" class="fill" d="M64.769,128.867c-0.043,0.315-0.029,0.465-0.087,0.577
	c-0.105,0.201-0.254,0.377-0.402,0.591c-3.391-0.015-6.529-0.703-9.225-3.132c0.06-0.429,0.125-0.902,0.226-1.633
	C58.204,127.526,61.284,128.76,64.769,128.867z"/>
<path fill-rule="evenodd" clip-rule="evenodd" fill="#f5f1eb" class="fill" d="M158.756,105.682c0.983,1.521,0.601,3.165,0.475,4.909
	c-1.328-0.277-2.572-0.537-3.809-0.795C155.4,107.504,156.298,106.388,158.756,105.682z"/>
<path fill-rule="evenodd" clip-rule="evenodd" fill="#f5f1eb" class="fill" d="M168.413,65.676c-4.45-4.839-10.155-6.641-16.258-7.584
	c0.024-0.11,0.047-0.221,0.071-0.331c0.325,0,0.662-0.054,0.976,0.009c2.005,0.4,3.992,0.917,6.012,1.218
	c1.778,0.264,3.252,1.107,4.677,2.066c1.43,0.962,2.781,2.04,4.152,3.084C168.429,64.432,168.903,64.736,168.413,65.676z"/>
<path fill-rule="evenodd" clip-rule="evenodd" fill="#f5f1eb" class="fill" d="M56.336,120.242c0.11-0.267,0.177-0.427,0.294-0.712
	c3.668,1.631,7.13,3.657,11.099,4.438c-0.012,0.115-0.025,0.231-0.036,0.347c-0.263,0.049-0.542,0.185-0.784,0.134
	C63.189,123.68,59.697,122.333,56.336,120.242z"/>
<path fill-rule="evenodd" clip-rule="evenodd" fill="#f5f1eb" class="fill" d="M147.881,120.128c1.049-1.733,1.902-2.015,4.279-1.506
	c-0.156,1.524-0.515,1.896-1.955,1.835C149.444,120.424,148.688,120.246,147.881,120.128z"/>
<path fill-rule="evenodd" clip-rule="evenodd" fill="#f5f1eb" class="fill" d="M128.851,56.122c0.96,0.14,1.757,0.256,2.617,0.382
	c0.072,0.538,0.125,0.928,0.178,1.326c-1.028,0.776-2.003,0.154-3.063,0.188C128.672,57.389,128.746,56.863,128.851,56.122z"/>
<path fill-rule="evenodd" clip-rule="evenodd" fill="#f5f1eb" class="fill" d="M163.59,143.548c-0.487,1.183-0.914,2.307-1.413,3.399
	c-0.292,0.641-0.799,0.846-1.521,0.401c0.721-1.41,1.422-2.78,2.177-4.256C163.014,143.201,163.253,143.345,163.59,143.548z"/>
<path fill-rule="evenodd" clip-rule="evenodd" fill="#f5f1eb" class="fill" d="M110.969,130.405c2.097-0.481,4.154,0.09,6.224,0.167
	c0.297,0.012,0.583,0.269,0.831,0.543c-1.266,0.505-2.416-0.07-3.594-0.217C113.278,130.754,112.069,131.1,110.969,130.405z"/>
<path fill-rule="evenodd" clip-rule="evenodd" fill="#f5f1eb" class="fill" d="M151.659,141.934c0.057-0.272,0.047-0.384,0.099-0.438
	c0.092-0.095,0.211-0.205,0.333-0.225c2.496-0.396,4.992-0.782,7.54-1.011c-1.335,0.363-2.661,0.767-4.008,1.08
	C154.338,141.639,153.072,142.255,151.659,141.934z"/>
<path fill-rule="evenodd" clip-rule="evenodd" fill="#f5f1eb" class="fill" d="M166.536,145.078c0.146,0.271,0.466,0.591,0.406,0.804
	c-0.247,0.874-0.555,1.739-0.949,2.554c-0.204,0.422-0.652,0.67-1.28,0.151c0.481-1.128,0.981-2.301,1.481-3.473
	C166.308,145.103,166.423,145.09,166.536,145.078z"/>
<path fill-rule="evenodd" clip-rule="evenodd" fill="#f5f1eb" class="fill" d="M48.092,137.676c0.344-0.072,0.6-0.126,0.979-0.206
	c0.475,1.26,0.939,2.49,1.409,3.736C49.687,141.117,48.492,139.386,48.092,137.676z"/>
<path fill-rule="evenodd" clip-rule="evenodd" fill="#f5f1eb" class="fill" d="M46.811,142.381c-0.677-1.135-1.354-2.271-2.134-3.58
	c1.395,0.301,2.214,1.588,2.429,3.422C47.008,142.276,46.91,142.33,46.811,142.381z"/>
<path fill-rule="evenodd" clip-rule="evenodd" fill="#f5f1eb" class="fill" d="M154.951,145.242c1.232-0.574,2.178-1.016,3.125-1.457
	c0.056,0.054,0.111,0.108,0.167,0.162c-0.61,0.668-1.22,1.337-1.865,2.045C155.924,145.755,155.573,145.571,154.951,145.242z"/>
<path fill-rule="evenodd" clip-rule="evenodd" fill="#f5f1eb" class="fill" d="M41.594,140.959c0.167-0.133,0.336-0.266,0.67-0.532
	c0.627,0.894,1.205,1.718,1.956,2.788C43.165,142.846,42.671,142.386,41.594,140.959z"/>
<path fill-rule="evenodd" clip-rule="evenodd" fill="#f5f1eb" class="fill" d="M148.474,62.175c0.313-0.998,0.625-1.996,0.938-2.994
	c0.121,0.036,0.243,0.072,0.363,0.107c-0.403,0.998,0.232,2.288-0.783,3.113C148.82,62.326,148.646,62.25,148.474,62.175z"/>
<path fill-rule="evenodd" clip-rule="evenodd" fill="#f5f1eb" class="fill" d="M115.638,134.409c-1.137-0.183-2.274-0.367-3.411-0.549
	c0.012-0.103,0.022-0.204,0.034-0.307c1.166-0.091,2.302,0.134,3.435,0.4C115.675,134.104,115.656,134.257,115.638,134.409z"/>
<path fill-rule="evenodd" clip-rule="evenodd" fill="#f5f1eb" class="fill" d="M123.801,60.833c-0.386-0.183-0.625-0.294-0.866-0.408
	c0-0.633,0-1.218,0-1.866C123.552,59.108,123.636,59.329,123.801,60.833z"/>
<path fill-rule="evenodd" clip-rule="evenodd" fill="#f5f1eb" class="fill" d="M127.669,56.379c-0.091,0.683-0.133,1.001-0.209,1.569
	c-0.506-0.302-0.835-0.5-1.417-0.847C126.669,56.824,127.003,56.676,127.669,56.379z"/>
<path fill-rule="evenodd" clip-rule="evenodd" fill="#f5f1eb" class="fill" d="M128.278,165.838c-0.323,0-0.537,0-0.906,0
	c0.125-0.904,0.241-1.752,0.366-2.668c0.235-0.047,0.438-0.088,0.815-0.164C128.458,163.976,128.376,164.828,128.278,165.838z"/>
<path fill-rule="evenodd" clip-rule="evenodd" fill="#f5f1eb" class="fill" d="M25.073,138.614c0.099,0.372,0.198,0.742,0.319,1.2
	C24.281,139.593,24.281,139.593,25.073,138.614z"/>
<path fill-rule="evenodd" clip-rule="evenodd" fill="#f5f1eb" class="fill" d="M188.906,145.415c0,0.255,0,0.469,0,0.869
	c-0.538-0.108-0.993-0.201-1.632-0.33C187.745,145.027,188.299,145.185,188.906,145.415z"/>
<path fill-rule="evenodd" clip-rule="evenodd" fill="#f5f1eb" class="fill" d="M54.704,69.211c0.534-0.493,1.089-1.004,1.549-1.427
	c2.063,0.338,3.904,0.659,5.326,2.003c0.495,0.467,0.979,1.017,1.263,1.623c0.559,1.195,0.024,2.101-1.263,2.365
	C58.524,74.403,55.714,72.633,54.704,69.211z"/>
<path fill-rule="evenodd" clip-rule="evenodd" fill="#f5f1eb" class="fill" d="M148.485,75.284c0.07,1.508-3.718,12.366-5.061,14.582
	c-3.185-2.212-6.071-4.699-8.197-7.961C139.689,79.676,144.066,77.491,148.485,75.284z"/>
<path fill-rule="evenodd" clip-rule="evenodd" fill="#f5f1eb" class="fill" d="M81.985,72.027c-1.122,0.439-2.279,0.422-3.535,0.234
	c-0.015-0.267-0.027-0.475-0.053-0.913c1.259,0.126,2.419,0.243,3.579,0.36C81.98,71.815,81.983,71.921,81.985,72.027z"/>
<path fill-rule="evenodd" clip-rule="evenodd" fill="#f5f1eb" class="fill" d="M138.698,67.791c0.149,0.225,0.396,0.593,0.665,0.996
	c-1.794,0.414-4.544,0.188-6.204-0.471c0.579-0.539,0.579-0.537,2.477-0.526C136.557,67.795,137.481,67.791,138.698,67.791z"/>
<path fill-rule="evenodd" clip-rule="evenodd" fill="#f5f1eb" class="fill" d="M79.256,61.911c0.919-0.597,1.89-0.585,2.984-0.341
	c0,0.474,0,0.911,0,1.328C80.541,63.551,80.026,63.385,79.256,61.911z"/>
<path fill-rule="evenodd" clip-rule="evenodd" fill="#f5f1eb" class="fill" d="M84.456,62.269c-0.282,0.157-0.564,0.316-1.009,0.564
	c0.061-0.479,0.098-0.765,0.15-1.18c0.345,0.118,0.597,0.202,0.848,0.288C84.448,62.051,84.453,62.159,84.456,62.269z"/>
<path fill-rule="evenodd" clip-rule="evenodd" fill="#f5f1eb" class="fill" d="M93.407,60.783c0.132,0.315,0.212,0.509,0.355,0.853
	c-0.948,0-1.762,0-2.575,0c-0.019-0.09-0.037-0.181-0.055-0.271C91.872,61.175,92.612,60.987,93.407,60.783z"/>
<path fill-rule="evenodd" clip-rule="evenodd" fill="#f5f1eb" class="fill" d="M142.719,57.336c1.158-0.014,2.138,0.015,2.625,1.291
	c-0.938,0.625-1.877,0.638-3.017,0.299C142.463,58.372,142.587,57.868,142.719,57.336z"/>
<path fill-rule="evenodd" clip-rule="evenodd" fill="#f5f1eb" class="fill" d="M139.929,57.81c0.443-0.194,0.885-0.389,1.553-0.682
	c-0.072,0.621-0.115,0.992-0.185,1.598c-0.561-0.236-0.959-0.404-1.358-0.572C139.935,58.039,139.933,57.925,139.929,57.81z"/>
</svg>
