<svg version="1.1" id="svg" xmlns="http://www.w3.org/2000/svg" xmlns:xlink="http://www.w3.org/1999/xlink" x="0px" y="0px"
	 width="200px" height="200px" viewBox="0 0 200 200" enable-background="new 0 0 200 200" xml:space="preserve">
<path class="stroke" fill="#55061d"  d="M194.846,80.395c-1.022-0.596-2.091-1.209-3.15-1.84c-5.211-3.101-10.491-6.072-16.083-8.448
	c-0.229-0.097-0.443-0.225-0.662-0.343c-4.06-2.199-8.092-4.449-12.188-6.577c-2.289-1.189-4.667-2.209-7.033-3.242
	c-2.456-1.071-4.971-2.011-7.416-3.107c-3.262-1.462-6.468-3.051-9.73-4.514c-0.744-0.333-1.633-0.563-2.434-0.513
	c-3.071,0.189-6.131,0.554-9.2,0.778c-7.288,0.532-14.586,0.818-21.894,0.932c-5.813,0.091-11.625,0.348-17.437,0.55
	c-1.19,0.042-2.376,0.18-3.564,0.258c-0.879,0.058-1.768,0.157-2.636-0.272c-0.302-2.894-0.726-5.725-0.635-8.543
	c0.65-0.159,1.118-0.273,1.753-0.428c0.112-1.212,0.219-2.369,0.334-3.623c-0.647-0.185-1.154-0.394-1.681-0.47
	c-2.947-0.425-5.899-0.812-8.85-1.226c-1.226-0.172-2.48-0.26-3.661-0.597c-0.904-0.258-1.722-0.281-2.623-0.099
	c-3.406,0.687-6.82,1.329-10.233,1.978c-1.601,0.304-3.204,0.586-4.837,0.883c-0.42,1.846-0.578,3.521,0.368,5.166
	c0.558,0.036,1.084,0.069,1.768,0.112c0.113,2.931,0.223,5.787,0.334,8.684c-0.36,0.085-0.592,0.176-0.83,0.19
	c-1.275,0.08-2.418,0.477-3.389,1.331c-1.602,1.41-3.198,2.824-4.813,4.217c-4.367,3.766-8.682,7.587-13.382,10.954
	c-3.07,2.2-5.915,4.716-9,6.895c-3.221,2.273-6.236,4.772-9.165,7.395c-0.772,0.692-1.672,1.241-2.49,1.883
	c-0.329,0.258-0.598,0.593-0.888,0.888c0.765,1.856,0.849,3.651,0.848,5.511c-0.002,3.978,0.32,7.955,0.316,11.933
	c-0.006,5.619-0.195,11.238-0.288,16.857c-0.042,2.583-0.014,5.169-0.069,7.752c-0.056,2.58-0.23,5.159-0.256,7.739
	c-0.04,3.927,0.003,7.854,0.017,11.782c0.001,0.339,0.044,0.678,0.076,1.131c0.816,0.355,1.598,0.868,2.447,1.035
	c3.202,0.63,6.427,1.148,9.459,1.676c2.019-1.183,3.904-1.593,5.95-0.999c0.521,0.151,1.069,0.234,1.61,0.298
	c4.345,0.508,8.69,0.998,13.035,1.51c0.473,0.056,0.934,0.213,1.346,0.311c0.136,0.628,0.24,1.104,0.348,1.6
	c0.266,0.104,0.492,0.196,0.72,0.279c2.517,0.913,5.181,0.858,7.787,1.182c2.312,0.287,4.625,0.568,6.934,0.884
	c0.982,0.134,1.948,0.394,2.932,0.519c2.758,0.353,5.532,0.594,8.28,1.011c3.875,0.588,7.735,1.279,11.596,1.957
	c1.95,0.343,3.884,0.775,5.832,1.131c1.654,0.302,3.309,0.706,4.978,0.79c2.984,0.15,5.92-0.463,8.859-0.907
	c2.357-0.356,4.707-0.764,7.072-1.05c2.12-0.257,4.265-0.308,6.382-0.577c3.938-0.5,7.863-1.086,11.793-1.646
	c1.621-0.231,3.235-0.504,4.857-0.73c1.769-0.246,3.547-0.425,5.312-0.694c3.094-0.474,6.182-0.987,9.271-1.497
	c3.132-0.517,6.271-0.994,9.389-1.589c4.972-0.95,9.925-1.997,14.892-2.979c5.451-1.077,10.905-2.14,16.364-3.177
	c1.271-0.241,2.382-0.688,3.484-2.235c0-0.47,0.003-1.295-0.001-2.121c-0.017-2.828,0.026-5.659-0.068-8.484
	c-0.142-4.223-0.404-8.441-0.57-12.662c-0.095-2.436-0.073-4.875-0.152-7.311c-0.128-3.924-0.286-7.848-0.449-11.771
	c-0.19-4.566-0.427-9.13-0.591-13.697c-0.071-1.981-0.012-3.967-0.012-5.924C191.953,85.681,194.206,83.095,194.846,80.395z"/>
<path fill-rule="evenodd" clip-rule="evenodd" fill="#f5c4bc" class="fill" d="M182.922,87.426c0,1.563,0,3.135,0,4.789
	c-4.253,0.255-8.421,0.505-12.589,0.754c0,0.123,0.001,0.245,0.001,0.367c4.2,0.934,8.501,0.115,12.814,0.344
	c0,2.301,0,4.419,0,6.725c-2.964,0.25-5.906,0.499-8.847,0.747c0.001,0.143,0.003,0.286,0.004,0.429
	c1.363,0.354,2.769,0.17,4.165,0.149c1.436-0.021,2.873-0.004,4.438-0.004c0.048,0.431,0.12,0.802,0.126,1.173
	c0.198,11.931,0.393,23.863,0.58,35.794c0.021,1.386,0.002,2.773,0.002,4.299c-7.002,1.331-14.013,1.897-21.041,2.647
	c0.819,0.477,5.889,0.547,10.371,0.09c3.497-0.357,6.986-0.809,10.636-1.237c0.116,1.214,0.232,2.425,0.359,3.752
	c-2.816,0.671-5.499,1.367-8.207,1.939c-2.135,0.451-4.313,0.692-6.452,1.129c-2.577,0.527-5.126,1.192-7.698,1.747
	c-4.464,0.961-8.93,1.918-13.408,2.808c-2.531,0.502-5.092,0.852-7.635,1.297c-2.885,0.505-5.752,1.134-8.649,1.544
	c-4.865,0.689-9.711,1.518-14.646,1.704c-2.619,0.099-5.225,0.628-7.831,1.008c-2.946,0.429-5.885,0.912-8.829,1.365
	c-0.386,0.059-0.778,0.081-1.327,0.137c0-0.885,0-1.691,0-2.538c2.187-0.496,4.339-0.983,6.491-1.473
	c-0.009-0.138-0.019-0.276-0.028-0.415c-0.344-0.028-0.692-0.109-1.03-0.076c-1.235,0.121-2.466,0.297-3.702,0.414
	c-0.538,0.051-1.084,0.008-1.631,0.008c-0.585-1.16-0.076-2.213-0.068-3.228c2.394-0.509,4.706-0.992,7.013-1.493
	c2.243-0.487,4.562-0.615,6.754-1.39c-4.57-0.21-9.002,1.153-13.464,1.174c-0.148-0.187-0.259-0.261-0.262-0.341
	c-0.091-2.429-0.251-4.858-0.238-7.287c0.033-6.059,0.248-12.118,0.194-18.176c-0.048-5.466-0.356-10.931-0.544-16.397
	c-0.021-0.64-0.003-1.28-0.003-1.994c1.745-0.441,3.545-0.457,5.098-1.512c-1.642,0-3.283,0-5.079,0c0-1.598,0-3.057,0-4.641
	c3.565-0.45,7.192-0.908,10.895-1.375c-0.265-0.762-0.775-0.547-1.157-0.524c-2.529,0.154-5.057,0.346-7.586,0.503
	c-0.684,0.042-1.372,0.006-2.147,0.006c0-1.939,0-3.755,0-5.542c1.761-1.514,3.49-3.006,5.226-4.488
	c2.345-2.001,4.681-4.011,7.048-5.985c2.207-1.84,4.453-3.633,6.674-5.458c0.65-0.535,1.273-1.104,1.905-1.661
	c0.932-0.821,1.85-1.658,2.79-2.469c3.236-2.787,6.46-5.59,9.729-8.337c1.746-1.466,3.578-2.828,5.296-4.178
	c1.815,0.122,3.188,0.97,4.612,1.646c2.379,1.128,4.73,2.314,7.102,3.459c1.423,0.688,2.764,1.437,4.021,2.457
	c1.446,1.174,3.212,1.972,4.884,2.846c5.33,2.786,10.686,5.522,16.022,8.295C176.982,84.266,179.869,85.812,182.922,87.426z
	 M107.513,148.089c3.658,0.801,7.419,1.039,11.202,0.712c2.52-0.219,5.02-0.671,7.538-0.907c2.352-0.219,4.572-0.889,6.78-1.653
	c0.918-0.317,1.617-0.991,1.772-1.876c0.316-1.803,0.436-3.646-0.468-5.304c-0.465-0.15-0.829-0.267-1.224-0.394
	c-0.019-0.4-0.048-0.744-0.051-1.086c-0.033-4.028-0.081-8.055-0.088-12.083c-0.008-3.928,0.047-7.856,0.032-11.785
	c-0.005-1.522-0.128-3.044-0.202-4.648c-0.882,0-1.568-0.049-2.246,0.009c-2.079,0.178-4.15,0.428-6.229,0.591
	c-2.825,0.221-5.653,0.407-8.482,0.572c-2.279,0.133-4.562,0.188-6.841,0.327c-0.863,0.054-1.717,0.249-2.544,0.375
	c0,10.4,0,20.577,0,30.812C105.532,143.489,105.96,146.286,107.513,148.089z M175.203,105.972
	c-1.686-0.377-22.575,1.334-24.07,1.899c0.169,11.106,0.339,22.22,0.509,33.322c0.396,0.407,0.773,0.794,1.159,1.189
	c2.33,0.632,4.71,0.874,7.097,0.719c3.767-0.246,7.528-0.597,11.284-0.975c1.129-0.114,2.235-0.466,3.35-0.714
	c1.368-0.305,2.013-1.533,3.115-2.423c0.092-1.436,0.189-2.959,0.284-4.446c-0.549-0.283-0.924-0.477-1.048-0.541
	C175.378,124.581,175.553,115.279,175.203,105.972z M126.375,74.696c-0.068,0.623-0.206,1.336-0.213,2.05
	c-0.039,3.624-0.222,7.25,0.335,10.861c0.364,2.355,0.639,4.727,0.862,7.1c0.111,1.183,0.343,2.514-0.066,3.546
	c-0.553,1.393-0.329,2.716-0.423,4.113c0.337,0.47,0.68,0.949,1.023,1.428c8.999,1.805,17.827,1.44,26.244-0.865
	c1.919-1.668,1.718-3.491,1.494-5.344c-0.346-0.241-0.664-0.461-1.054-0.732c0.09-1.275,0.283-2.562,0.254-3.842
	c-0.143-6.313-0.346-12.625-0.524-18.938c-0.02-0.664-0.247-1.16-0.933-1.325c-2.842,0.139-5.667,0.316-8.495,0.405
	c-4.223,0.132-8.449,0.153-12.67,0.32C130.341,73.548,128.412,73.509,126.375,74.696z M135.988,152.813
	c3.283,0.35,14.77-1.653,16.881-3.109c-5.551,0.729-11.103,1.457-16.727,2.195C136.095,152.185,136.049,152.453,135.988,152.813z
	 M145.701,125.711c-2.66,0.191-5.164,0.37-7.668,0.55c2.449,0.829,4.919,0.615,7.46,0.604
	C145.558,126.504,145.613,126.199,145.701,125.711z M141.121,146.291c-0.352-0.085-0.582-0.199-0.804-0.184
	c-1.187,0.084-2.377,0.155-3.554,0.322c-0.929,0.132-1.846,0.372-2.752,0.621c-0.181,0.05-0.291,0.36-0.523,0.67
	c1.082-0.137,1.952-0.299,2.829-0.347c1.038-0.056,2.084,0.036,3.121-0.032C140.062,147.302,140.88,147.454,141.121,146.291z"/>
<path fill-rule="evenodd" clip-rule="evenodd" fill="#f5c4bc" class="fill" d="M85.545,161.789c-3.202-0.392-6.305-0.72-9.391-1.161
	c-3.588-0.514-7.159-1.144-10.743-1.688c-2.21-0.336-4.425-0.65-6.647-0.897c-3.063-0.34-6.136-0.595-9.202-0.916
	c-0.875-0.091-1.739-0.281-2.635-0.43c0-1.723,0-3.287,0-4.992c2.599,0.235,5.043,0.457,7.487,0.678
	c-0.488-1.059-1.379-0.812-2.124-0.978c-0.874-0.195-1.747-0.391-2.619-0.592c-0.821-0.19-1.64-0.387-2.65-0.625
	c0.054-0.872,0.108-1.729,0.17-2.744c1.654,0.113,3.142,0.215,4.628,0.317c0.026-0.142,0.053-0.283,0.079-0.425
	c-1.317-0.787-2.932-0.733-4.436-1.276c0.129-4.469,0.309-8.923,0.373-13.378c0.064-4.456,0.014-8.913,0.014-13.451
	c2.331-0.103,4.708,0.815,7.09,0.017c-2.329-0.809-4.782-0.993-7.238-1.565c0-3.124,0-6.181,0-9.453
	c-1.373-0.221-2.672-0.503-3.985-0.625c-2.276-0.212-4.561-0.427-6.844-0.454c-3.672-0.044-7.353-0.579-11.017,0.082
	c-1.021,0.184-2.025,0.45-3.074,0.687c-0.951,7.399-1.05,14.739-1.229,22.078c-0.179,7.337-0.631,14.668-0.202,22.07
	c-1.946,0.356-3.458-0.706-5.143-0.887c-0.139-1.599-0.266-3.054-0.402-4.614c1.295,0,2.413,0,3.674,0
	c-0.355-1.003-1.199-0.702-1.761-0.913c-0.598-0.225-1.239-0.334-1.943-0.515c0.331-13.638,0.563-27.223,1.309-40.893
	c4.661-0.152,9.193,0.361,13.707-0.189c-4.431-1.112-8.972-0.98-13.6-1.148c0.077-1.523,0.146-2.848,0.222-4.329
	c1.302,0,2.524-0.005,3.746,0c10.398,0.045,20.797,0.123,31.195,0.127c5.67,0.003,11.341-0.227,17.009-0.144
	c4.374,0.064,8.742,0.45,13.113,0.698c1.176,0.066,2.351,0.154,3.713,0.245c-0.538,2.237,0.696,4.255,0.238,6.473
	c-6.237-0.845-12.393-1.162-18.571-1.192c6.002,1.854,12.313,1.549,18.566,2.597c0,6.631,0,13.218,0,19.826
	c-1.05,0.707-2.449-0.299-3.768,0.807c1.425,0.279,2.559,0.502,3.759,0.737c-0.196,7.646-0.39,15.234-0.585,22.882
	c-2.648,0.507-5.092-0.248-7.571-0.3c2.315,1.21,4.814,1.65,7.483,1.878c0.216,1.333,0.171,2.582-0.176,3.921
	c-4.544-0.269-8.978-0.901-13.297-2.284c4.113,2.286,8.738,2.789,13.275,3.683C85.545,159.695,85.545,160.668,85.545,161.789z
	 M55.126,140.922c-0.541,1.908-0.558,3.269-0.092,5.004c1.473,0.533,2.964,1.036,4.594,1.027c1.44-0.008,2.883,0.041,4.319,0.145
	c4.909,0.354,9.813,0.766,14.723,1.105c1.066,0.074,2.146-0.055,3.164-0.089c1.042-1.968,0.873-3.841,0.766-5.718
	c-0.692-0.565-1.337-1.092-1.847-1.508c0-2.663-0.004-5.145,0.001-7.627c0.009-3.979,0.037-7.958,0.033-11.937
	c-0.003-2.98-0.031-5.96-0.08-8.94c-0.009-0.573-0.171-1.143-0.285-1.849c-1.777-0.185-3.446-0.481-5.12-0.508
	c-4.569-0.076-9.14-0.069-13.709-0.022c-0.955,0.01-1.908,0.329-2.877,0.508c-0.526,10.167-0.39,20.151-1.502,30.065
	C56.375,140.715,55.716,140.824,55.126,140.922z"/>
<path fill-rule="evenodd" clip-rule="evenodd" fill="#f5c4bc" class="fill" d="M34.972,130.271c-1.054-1.617-2.804-1.303-4.343-1.631
	c-0.437-1.245,0.204-2.731-0.931-3.934c-0.337-0.029-0.765-0.065-1.197-0.102c-0.647,0.789-1.259,1.501-1.376,2.491
	c-0.047,0.395-0.04,0.797-0.103,1.189c-0.103,0.634-0.119,0.632-1.281,1.036c0.463-5.812,0.762-11.537,1.554-17.377
	c5.646-0.173,11.24,0.121,17.048,0.312c0.021,6.898,0.124,13.829,0.04,20.758c-0.083,6.898,0.178,13.806-0.373,20.873
	c-6.223-0.313-12.179-2.027-18.503-2.448c-0.542-6.568,0.214-13.037,0.376-19.51c0.029-0.041,0.071-0.12,0.085-0.116
	c0.324,0.105,0.644,0.219,0.942,0.323c0.334,0.962-0.219,2.126,0.771,2.817c0.584,0.409,1.223,0.348,2.047-0.179
	c0.21-0.858,0.463-1.9,0.77-3.157c0.965-0.063,2.038-0.149,3.112-0.197C34.31,131.386,34.922,131.288,34.972,130.271z"/>
<path fill-rule="evenodd" clip-rule="evenodd" fill="#f5c4bc" class="fill" d="M136.531,55.91c-1.864,1.438-3.915,2.848-5.766,4.484
	c-4.171,3.686-8.243,7.482-12.354,11.236c-3.855,3.519-7.717,7.03-11.558,10.564c-2.89,2.659-5.711,5.395-8.642,8.006
	c-1.878,1.674-3.901,3.185-5.98,4.866c-0.758-0.99-1.375-1.796-2.073-2.707c1.387-1.168,2.646-2.281,3.958-3.325
	c3.073-2.443,6.242-4.768,9.239-7.299c3.069-2.592,5.971-5.384,8.963-8.069c1.479-1.328,3.028-2.581,4.491-3.925
	c1.243-1.141,2.413-2.361,3.607-3.554c3.985-3.984,8.326-7.532,13.028-10.641c0.909-0.602,1.787-1.252,2.762-1.939
	c19.187,8.056,37.954,17.061,55.909,28.25c-0.76,0.898-1.369,1.618-2.007,2.374c-1.904-1.079-3.628-2.048-5.347-3.03
	c-4.66-2.663-9.327-5.311-13.97-8.001c-2.664-1.544-5.275-3.176-7.931-4.735c-3.555-2.087-7.17-4.057-10.948-5.731
	c-3.313-1.469-6.564-3.077-9.849-4.611c-0.764-0.357-1.547-0.678-2.332-0.99C138.726,56.732,137.707,56.357,136.531,55.91z"/>
<path fill-rule="evenodd" clip-rule="evenodd" fill="#f5c4bc" class="fill" d="M92.088,162.441c-1.748-0.206-3.262-0.384-4.968-0.584
	c-0.023-1.337-0.066-2.565-0.062-3.793c0.009-2.53,0.022-5.06,0.073-7.59c0.062-3.125,0.171-6.25,0.25-9.375
	c0.106-4.172,0.233-8.344,0.297-12.518c0.074-4.712,0.079-9.425,0.133-14.137c0.044-3.819,0.115-7.639,0.183-11.458
	c0.005-0.237,0.09-0.473,0.158-0.812c1.26,0,2.476,0,3.793,0c0.042,0.365,0.128,0.695,0.109,1.019
	c-0.242,4.129-0.024,8.242,0.325,12.357c0.151,1.781,0.112,3.578,0.191,5.366c0.455,10.24-0.216,20.474-0.178,30.711
	c0.012,3.128-0.108,6.258-0.179,9.386C92.206,161.45,92.139,161.884,92.088,162.441z"/>
<path fill-rule="evenodd" clip-rule="evenodd" fill="#f5c4bc" class="fill" d="M96.801,108.463c0.232,0.907,0.512,1.543,0.542,2.191
	c0.226,4.917,0.516,9.836,0.569,14.757c0.073,6.811-0.055,13.624-0.075,20.436c-0.009,2.984,0.061,5.969,0.047,8.953
	c-0.005,1.24-0.148,2.479-0.201,3.719c-0.025,0.594,0.019,1.189,0.024,1.784c0.005,0.584,0.001,1.168,0.001,1.912
	c-1.325,0.107-2.573,0.207-4.02,0.323c-0.03-1.475-0.082-2.753-0.079-4.031c0.009-3.528,0.023-7.057,0.07-10.585
	c0.07-5.315,0.074-10.634,0.28-15.945c0.294-7.566-0.282-15.098-0.603-22.643c-0.105-2.473,0.025-4.956,0.048-7.484
	c1.345-0.506,2.526-0.95,3.723-1.4C97.609,103.702,97.391,107.65,96.801,108.463z"/>
<path fill-rule="evenodd" clip-rule="evenodd" fill="#f5c4bc" class="fill" d="M102.233,55.794C90.168,67.667,78.285,79.361,66.267,91.188
	c-1.396-0.067-2.964-0.142-4.9-0.234c0.53-0.639,0.833-1.057,1.188-1.424c3.108-3.212,6.23-6.41,9.339-9.622
	c1.757-1.816,3.462-3.684,5.252-5.465c2.639-2.626,5.343-5.188,8.001-7.795c1.91-1.873,3.74-3.832,5.701-5.648
	c1.747-1.618,3.597-3.128,5.467-4.603c0.463-0.366,1.17-0.538,1.78-0.577C99.418,55.735,100.752,55.794,102.233,55.794z"/>
<path fill-rule="evenodd" clip-rule="evenodd" fill="#f5c4bc" class="fill" d="M110.856,55.766c-13.208,11.096-25.278,23.384-37.34,35.498
	c-1.689,0-3.211,0-4.921,0c0.168-0.351,0.218-0.591,0.364-0.739c2.784-2.834,5.567-5.669,8.376-8.479
	c3.749-3.75,7.495-7.504,11.287-11.21c2.627-2.568,5.329-5.06,8-7.583c2.202-2.081,4.427-4.139,6.604-6.245
	c1.058-1.022,2.206-1.559,3.728-1.474c1.211,0.067,2.438-0.153,3.658-0.245C110.694,55.447,110.775,55.606,110.856,55.766z"/>
<path fill-rule="evenodd" clip-rule="evenodd" fill="#f5c4bc" class="fill" d="M53.213,90.5c-1.834,0-3.699,0-5.71,0
	c0.133-0.317,0.164-0.523,0.281-0.645c1.728-1.781,3.464-3.554,5.205-5.323c1.841-1.872,3.658-3.769,5.541-5.598
	c3.314-3.221,6.667-6.401,10.011-9.591c3.303-3.151,6.604-6.306,9.931-9.431c1.05-0.986,2.169-1.9,3.292-2.803
	c0.334-0.269,0.773-0.509,1.187-0.556c1.066-0.119,2.146-0.123,3.22-0.172c0.05,0.1,0.1,0.2,0.148,0.3
	c-5.49,5.633-10.857,11.394-16.507,16.863C64.134,79.04,58.783,84.841,53.213,90.5z"/>
<path fill-rule="evenodd" clip-rule="evenodd" fill="#f5c4bc" class="fill" d="M59.564,90.855c-1.397-0.089-2.816-0.18-4.562-0.292
	c1.017-1.086,1.815-1.941,2.614-2.792c2.516-2.68,5.031-5.362,7.553-8.036c0.511-0.542,1.032-1.078,1.59-1.571
	c3.055-2.698,5.862-5.636,8.663-8.597c3.888-4.111,8.003-8.007,12-12.016c0.865-0.867,1.82-1.256,3.065-1.203
	c1.127,0.048,2.265-0.145,3.553,0.017c-1.47,1.332-2.965,2.637-4.403,4.002c-1.477,1.402-2.908,2.854-4.341,4.3
	c-1.435,1.447-2.824,2.94-4.277,4.368c-1.449,1.424-2.987,2.758-4.423,4.194c-1.405,1.405-2.704,2.916-4.1,4.33
	c-1.43,1.449-2.949,2.812-4.38,4.259c-1.433,1.448-2.808,2.954-4.207,4.435C62.509,87.734,61.111,89.216,59.564,90.855z"/>
<path fill-rule="evenodd" clip-rule="evenodd" fill="#f5c4bc" class="fill" d="M188.148,148.357c-0.986,0.14-1.807,0.257-2.77,0.394
	c-0.125-1.334-0.323-2.608-0.354-3.886c-0.167-6.705-0.314-13.41-0.422-20.115c-0.079-4.912-0.11-9.825-0.119-14.737
	c-0.007-3.622,0.096-7.244,0.076-10.866c-0.017-3.026-0.144-6.052-0.217-9.078c-0.013-0.528-0.002-1.056-0.002-1.889
	c0.905,0.489,1.537,0.83,2.171,1.172c0.208,9.893,0.337,19.721,0.644,29.543C187.46,128.675,188.143,138.441,188.148,148.357z"/>
<path fill-rule="evenodd" clip-rule="evenodd" fill="#f5c4bc" class="fill" d="M56.121,63.217c1.136,0.176,2.429,0.375,3.996,0.618
	C50.583,72.337,41.273,80.64,31.96,88.946c-1.859-0.12-3.672-0.236-5.891-0.378c0.906-0.897,1.514-1.575,2.198-2.165
	c3.306-2.848,6.612-5.696,9.956-8.499c3.423-2.869,6.886-5.691,10.338-8.524C51.017,67.366,53.483,65.366,56.121,63.217z"/>
<path fill-rule="evenodd" clip-rule="evenodd" fill="#f5c4bc" class="fill" d="M116.991,55.034c-0.557,0.592-0.861,0.958-1.208,1.278
	c-5.195,4.779-10.486,9.459-15.571,14.353c-5.442,5.237-10.687,10.676-16.027,16.018c-1.37,1.371-2.751,2.733-4.173,4.05
	c-0.34,0.315-0.847,0.576-1.3,0.619c-0.981,0.093-1.976,0.028-3.182,0.028c0.257-0.406,0.378-0.71,0.593-0.921
	c3.895-3.834,7.81-7.65,11.702-11.488c1.91-1.884,3.736-3.856,5.682-5.702c3.1-2.939,6.247-5.831,9.415-8.697
	c3.023-2.735,6.135-5.372,9.129-8.136c0.901-0.832,1.789-1.362,3.021-1.303C115.591,55.159,116.115,55.084,116.991,55.034z"/>
<path fill-rule="evenodd" clip-rule="evenodd" fill="#f5c4bc" class="fill" d="M45.444,90.382c-1.296-0.112-2.515-0.217-4.08-0.353
	c0.656-0.759,1.087-1.334,1.594-1.832c4.688-4.594,9.357-9.208,14.095-13.75c3.622-3.473,7.315-6.875,11.02-10.26
	c1.278-1.167,2.733-2.14,4.024-3.294c1.478-1.32,2.863-2.744,4.345-4.178c1.014,0,2.078,0,3.143,0c0.048,0.09,0.097,0.18,0.145,0.27
	C68.266,68.083,56.415,78.784,45.444,90.382z"/>
<path fill-rule="evenodd" clip-rule="evenodd" fill="#f5c4bc" class="fill" d="M39.341,89.945c-1.632-0.265-3.328-0.541-5.082-0.825
	c0.922-1.614,21.322-19.871,28.134-25.243c1.166,0,2.4,0,3.989,0c-0.476,0.553-0.741,0.929-1.072,1.234
	c-2.376,2.188-4.791,4.335-7.146,6.547c-2.643,2.482-5.246,5.007-7.845,7.537C46.691,82.728,43.082,86.28,39.341,89.945z"/>
<path fill-rule="evenodd" clip-rule="evenodd" fill="#f5c4bc" class="fill" d="M122.822,55.044c-0.95,0.944-1.7,1.875-2.624,2.576
	c-3.935,2.982-7.41,6.47-10.983,9.849c-4.582,4.335-9.089,8.749-13.695,13.059c-3.193,2.987-6.5,5.853-9.75,8.779
	c-0.735,0.663-1.446,1.354-2.178,2.041c-0.624,0-1.206,0-2.025,0c0.325-0.437,0.512-0.759,0.764-1.016
	c4.489-4.565,8.996-9.113,13.48-13.683c3.336-3.4,6.835-6.617,10.474-9.69c1.438-1.214,2.703-2.632,4.076-3.926
	c1.263-1.189,2.567-2.336,3.852-3.502c1.249-1.134,2.558-2.209,3.729-3.417C119.287,54.726,120.833,54.574,122.822,55.044z"/>
<path fill-rule="evenodd" clip-rule="evenodd" fill="#f5c4bc" class="fill" d="M125.276,54.906c0.952-0.047,2.077-0.104,3.204-0.16
	c-13.238,12.262-26.294,24.62-40.099,36.367c-0.618,0-1.397,0-2.518,0c3.238-3.388,6.777-6.021,9.911-9.086
	c3.194-3.126,6.392-6.25,9.647-9.312c3.22-3.028,6.491-6.001,9.783-8.952C118.495,60.815,121.838,57.926,125.276,54.906z"/>
<path fill-rule="evenodd" clip-rule="evenodd" fill="#f5c4bc" class="fill" d="M13.172,100.607c0.676,0,1.117,0,1.543,0
	c0.281-0.257,0.533-0.486,0.812-0.74c0.118,0.136,0.282,0.237,0.288,0.348c0.028,0.495,0.026,0.994,0.007,1.49
	c-0.357,8.945-0.727,17.889-1.074,26.834c-0.158,4.073-0.325,8.146-0.386,12.22c-0.038,2.578,0.117,5.157,0.178,7.736
	c0.016,0.679,0.003,1.359,0.003,2.192c-0.822-0.158-1.53-0.293-2.36-0.453c0.053-0.891,0.13-1.669,0.14-2.448
	c0.051-4.225,0.034-8.45,0.139-12.673c0.121-4.866,0.355-9.729,0.516-14.593c0.042-1.291-0.041-2.585-0.009-3.876
	c0.115-4.721,0.502-9.439,0.099-14.165C13.018,101.903,13.128,101.312,13.172,100.607z"/>
<path fill-rule="evenodd" clip-rule="evenodd" fill="#f5c4bc" class="fill" d="M53.626,61.327c0,0.63,0,1.292,0,2.082
	c-9.959,8.34-20.006,16.752-30.227,25.311c-1.316-0.144-2.87,0.526-4.6-0.063c1.265-0.959,2.418-1.8,3.533-2.689
	c2.869-2.289,5.726-4.593,8.58-6.9c2.237-1.81,4.452-3.648,6.698-5.447c4.141-3.317,8.289-6.625,12.452-9.915
	c1.084-0.857,2.231-1.633,3.353-2.442C53.438,61.247,53.498,61.286,53.626,61.327z"/>
<path fill-rule="evenodd" clip-rule="evenodd" fill="#f5c4bc" class="fill" d="M79.48,54.381c-0.699,0-1.238,0.05-1.765-0.01
	c-1.436-0.165-2.63,0.286-3.651,1.284c-1.346,1.315-2.701,2.62-4.061,3.92c-0.205,0.196-0.454,0.346-0.701,0.53
	c-0.375-0.905-0.905-12.197-0.651-13.898c3.257,0.326,6.521,0.652,9.948,0.995C78.889,49.555,79.169,51.846,79.48,54.381z"/>
<path fill-rule="evenodd" clip-rule="evenodd" fill="#f5c4bc" class="fill" d="M13.756,88.676c1.111-1.005,2.042-1.974,3.097-2.779
	c2.881-2.195,5.821-4.311,8.724-6.476c2.268-1.692,4.522-3.402,6.77-5.122c2.721-2.083,5.427-4.185,8.141-6.276
	c1.338-1.031,2.679-2.056,4.016-3.086c2.075-1.598,4.13-3.224,6.237-4.777c0.432-0.318,1.063-0.367,1.602-0.54
	c0.066,0.115,0.131,0.229,0.196,0.344c-0.648,0.569-1.27,1.174-1.95,1.702c-3.925,3.04-7.902,6.013-11.785,9.105
	c-3.104,2.474-6.099,5.085-9.141,7.638c-3.956,3.319-7.94,6.6-12.227,9.492C16.402,88.597,15.375,89.319,13.756,88.676z"/>
<path fill-rule="evenodd" clip-rule="evenodd" fill="#f5c4bc" class="fill" d="M68.557,42.654c-0.022-0.277-0.037-0.466-0.068-0.879
	c3.959,0.218,7.765,1.177,11.976,1.257C79.173,43.808,75.218,43.615,68.557,42.654z"/>
<path fill-rule="evenodd" clip-rule="evenodd" fill="#f5c4bc" class="fill" d="M27.486,130.183c0.634-0.107,1.268-0.214,2.194-0.372
	c-0.977,0.738-0.977,0.738-2.123,0.677C27.534,130.387,27.51,130.285,27.486,130.183z"/>
<path fill-rule="evenodd" clip-rule="evenodd" fill="#f5c4bc" class="fill" d="M28.932,126.575c0.157,1.22,0.157,1.22-0.257,1.982
	C28.328,127.883,28.402,127.358,28.932,126.575z"/>
<path fill-rule="evenodd" clip-rule="evenodd" fill="#f5c4bc" class="fill" d="M133.458,140.444c0.075,0.948,0.148,1.866,0.232,2.925
	c-0.776,0.159-1.436,0.305-2.1,0.429c-2.928,0.544-5.867,0.933-8.85,1.13c-4.209,0.278-8.456,0.176-12.62,1.044
	c-0.329,0.068-0.683,0.009-1.181,0.009c-0.14-0.932-0.274-1.831-0.411-2.743C116.875,142.303,125.082,141.383,133.458,140.444z"/>
<path fill-rule="evenodd" clip-rule="evenodd" fill="#f5c4bc" class="fill" d="M108.734,140.101c-0.331-3.182-0.231-6.194,0.014-9.153
	c2.023-0.818,5.042-1.119,6.653-0.637c0.129,3,0.26,6.055,0.398,9.261C113.443,140.016,111.145,140.419,108.734,140.101z"/>
<path fill-rule="evenodd" clip-rule="evenodd" fill="#f5c4bc" class="fill" d="M109.198,115.309c2.232-0.152,4.29-0.292,6.495-0.442
	c0,3.325,0,6.517,0,9.886c-2.18,0.285-4.316,0.563-6.495,0.848C109.198,122.07,109.198,118.734,109.198,115.309z"/>
<path fill-rule="evenodd" clip-rule="evenodd" fill="#f5c4bc" class="fill" d="M127.991,138.503c-1.683,0.192-3.241,0.37-4.941,0.563
	c-0.282-3.192-0.325-6.243-0.194-9.426c1.569-0.271,3.115-0.539,4.763-0.823C128.095,132.087,127.99,135.235,127.991,138.503z"/>
<path fill-rule="evenodd" clip-rule="evenodd" fill="#f5c4bc" class="fill" d="M122.148,114.331c1.778-0.098,3.399-0.187,5.193-0.286
	c0,3.364,0,6.561,0,9.869c-1.533,0-3.05,0-4.67,0c-0.402-1.538-0.061-3.117-0.137-4.678
	C122.459,117.661,122.291,116.09,122.148,114.331z"/>
<path fill-rule="evenodd" clip-rule="evenodd" fill="#f5c4bc" class="fill" d="M160.913,134.157c-2.262,0.311-4.361,0.599-6.694,0.92
	c-0.012-3.374-0.435-6.585-0.189-9.716c2.213-0.136,4.271-0.263,6.539-0.403C160.681,127.956,160.793,130.951,160.913,134.157z"/>
<path fill-rule="evenodd" clip-rule="evenodd" fill="#f5c4bc" class="fill" d="M159.834,110.98c0.493,2.985,0.303,5.887,0.323,8.982
	c-2.166,0.281-4.239,0.549-6.372,0.825c-0.162-3.02-0.315-5.87-0.472-8.797C155.462,111.302,157.603,111.121,159.834,110.98z"/>
<path fill-rule="evenodd" clip-rule="evenodd" fill="#f5c4bc" class="fill" d="M176.427,136.154c-0.084,0.726-0.144,1.244-0.224,1.935
	c-7.709,0.675-15.242,2.329-23.127,2.278c0-0.848,0-1.552,0-2.329c1.467-0.589,3.02-0.519,4.538-0.628
	c2.77-0.2,5.541-0.37,8.312-0.539c2.378-0.145,4.757-0.257,7.134-0.408C174.13,136.396,175.196,136.27,176.427,136.154z"/>
<path fill-rule="evenodd" clip-rule="evenodd" fill="#f5c4bc" class="fill" d="M171.063,123.82c0.38,3.532,0.782,6.769,0.487,10.195
	c-1.691,0-3.297,0-5.067,0c-0.702-2.936-0.737-5.97-0.849-9.067C167.494,124.562,169.173,124.213,171.063,123.82z"/>
<path fill-rule="evenodd" clip-rule="evenodd" fill="#f5c4bc" class="fill" d="M164.928,110.68c1.915,0,3.634,0,5.505,0
	c0.114,2.774,0.229,5.53,0.352,8.476c-0.907,0.053-1.778,0.073-2.642,0.163c-0.828,0.086-1.648,0.245-2.659,0.401
	C165.147,116.705,165.016,113.814,164.928,110.68z"/>
<path fill-rule="evenodd" clip-rule="evenodd" fill="#f5c4bc" class="fill" d="M137.792,96.591c-2.665,0.235-5.119,0.452-7.553,0.666
	c-1.165-2.699-0.674-5.482-0.759-8.437c2.696-0.17,5.247-0.332,7.997-0.506C137.583,91.092,137.683,93.702,137.792,96.591z"/>
<path fill-rule="evenodd" clip-rule="evenodd" fill="#f5c4bc" class="fill" d="M149.9,96.252c-2.657,0-5.116,0-7.679,0c0-2.747,0-5.493,0-8.283
	c2.231-1.071,4.597-0.596,7.069-0.949C149.493,90.099,149.688,93.04,149.9,96.252z"/>
<path fill-rule="evenodd" clip-rule="evenodd" fill="#f5c4bc" class="fill" d="M128.462,101.657c-0.079-0.744-0.129-1.211-0.191-1.8
	c8.635-1.224,17.216-1.148,25.933-1.825c0.037,0.8,0.066,1.449,0.1,2.155C145.679,101.441,137.16,101.456,128.462,101.657z"/>
<path fill-rule="evenodd" clip-rule="evenodd" fill="#f5c4bc" class="fill" d="M137.145,76.944c0,2.58,0,4.895,0,7.393
	c-2.381,0.774-4.916,0.827-7.433,0.714c-0.548-1.155-0.953-5.363-0.677-7.043C131.624,77.669,134.251,77.324,137.145,76.944z"/>
<path fill-rule="evenodd" clip-rule="evenodd" fill="#f5c4bc" class="fill" d="M141.801,76.736c2.318,0,4.434,0,6.651,0
	c0.595,2.272,0.594,4.474,0.748,6.842c-2.347,0-4.553,0-6.922,0C141.851,81.426,141.624,79.205,141.801,76.736z"/>
<path fill-rule="evenodd" clip-rule="evenodd" fill="#f5c4bc" class="fill" d="M77.997,140.421c-2.267-0.146-4.282-0.276-6.409-0.413
	c-0.369-3.382,0-6.602,0.323-10.007c2.082-0.132,4.035-0.128,6.086-0.043C77.997,133.443,77.997,136.826,77.997,140.421z"/>
<path fill-rule="evenodd" clip-rule="evenodd" fill="#f5c4bc" class="fill" d="M72.441,125.046c0-3.515,0-7.002,0-10.516c1.942,0,3.84,0,5.881,0
	c0.226,3.6,0.417,7.021-0.021,10.516C76.393,125.046,74.535,125.046,72.441,125.046z"/>
<path fill-rule="evenodd" clip-rule="evenodd" fill="#f5c4bc" class="fill" d="M67.775,125.24c-1.812,0-3.428,0-5.176,0
	c-0.139-3.748,0.474-7.332,0.586-11.111c1.694,0.076,3.207,0.144,4.834,0.218C68.422,117.93,67.854,121.447,67.775,125.24z"/>
<path fill-rule="evenodd" clip-rule="evenodd" fill="#f5c4bc" class="fill" d="M62.092,129.599c1.964,0,3.687,0,5.57,0
	c0.132,3.322-0.297,6.51-0.263,9.866c-1.984,0.141-3.823-0.1-5.729-0.277C61.289,135.94,62.121,132.873,62.092,129.599z"/>
<path fill-rule="evenodd" clip-rule="evenodd" fill="#f5c4bc" class="fill" d="M80.672,143.146c0.102,0.944,0.169,1.569,0.243,2.25
	c-2.175,0-4.252,0.132-6.306-0.029c-3.51-0.276-6.999-0.812-10.508-1.09c-2.316-0.183-4.652-0.103-6.979-0.146
	c-0.245-0.004-0.489-0.047-0.874-0.086c-0.068-0.563-0.136-1.121-0.228-1.872C64.326,141.898,72.358,143.722,80.672,143.146z"/>
</svg>
