<svg version="1.1" id="svg" xmlns="http://www.w3.org/2000/svg" xmlns:xlink="http://www.w3.org/1999/xlink" x="0px" y="0px"
	 width="200px" height="200px" viewBox="0 0 200 200" enable-background="new 0 0 200 200" xml:space="preserve">
<path class="stroke" fill="#3b4954"  fill-rule="evenodd" clip-rule="evenodd" d="M69.004,15.372c3.043-3.825,3.638-4.035,5.907-2.178
	c1.365-0.738,2.712-1.465,4.157-2.244c0.032-0.213,0.081-0.545,0.131-0.876c1.348-1.279,3.768-1.237,4.942,0.128
	c1.043,1.216,2.462,1.696,3.879,2.287c0.744,0.309,1.262,1.162,2.127,2.009c1.45-0.103,3.33-0.255,5.212-0.365
	c0.852-0.05,1.707-0.021,2.56-0.022c2.577-0.002,5.16-0.102,7.731,0.022c2.971,0.143,4.299,0.276,5.276,4.083
	c0.513,1.999,1.2,3.961,1.609,5.979c0.427,2.101,1.705,3.229,3.613,3.878c0.444,0.151,0.865,0.413,1.25,0.689
	c1.109,0.799,1.246,2.171,0.356,3.211c-0.284,0.332-0.558,0.671-1.004,1.21c1.199,0.245,2.196,0.568,3.21,0.632
	c2.495,0.158,3.387,2.034,4.049,3.905c0.832,2.356,0.971,4.868,0.639,7.363c-0.108,0.812-0.605,1.384-1.549,1.257
	c-0.525-0.071-1.044-0.198-1.821-0.352c0.377,0.705,0.624,1.207,0.908,1.686c1.567,2.642,0.497,4.944-2.515,5.392
	c-0.305,0.046-0.609,0.116-0.915,0.125c-1.04,0.031-1.968,0.253-2.468,1.535c0.195,1.116-0.08,2.294-1.188,3.176
	c-0.042-0.079-0.083-0.159-0.125-0.238c-0.948,0.464-1.922,0.885-2.83,1.417c-0.336,0.196-0.604,0.623-0.752,1.002
	c-0.4,1.026-1.135,1.574-2.182,1.784c-0.665,0.134-1.333,0.261-1.983,0.448c-1.097,0.317-1.8,2.545-0.969,3.304
	c1.171,1.07,1.457,2.435,1.567,3.872c0.146,1.885,0.683,3.388,2.184,4.814c1.408,1.339,2.75,3.159,2.693,5.334
	c-0.035,1.319-0.467,2.661-0.908,3.928c-0.469,1.346-0.976,2.579-0.093,3.979c0.294,0.466,0.286,1.198,0.238,1.793
	c-0.154,1.877,0.388,3.472,1.329,5.123c1.238,2.168,1.656,4.648,1.488,7.174c-0.019,0.29-0.146,0.619-0.329,0.845
	c-1.6,1.989-2.045,4.396-2.474,6.803c-0.118,0.666-0.031,1.373-0.184,2.027c-0.379,1.611-0.611,3.314-1.326,4.773
	c-0.895,1.826-1.116,3.711-1.2,5.639c-0.05,1.127-0.542,1.928-1.219,2.719c-0.368,0.431-0.676,0.914-1.229,1.671
	c0.364,0.204,0.694,0.331,0.954,0.544c1.955,1.599,1.345,3.42-0.409,4.281c-2.664,1.308-5.529,2.267-8.562,1.241
	c-1.051-0.356-2.019-0.974-3-1.516c-0.68-0.375-1.275-0.347-1.694,0.312c-1.808,2.848-4.66,3.415-7.672,3.362
	c-2.098-0.036-4.005,0.199-5.571,1.707c-0.34,0.327-0.734,0.676-0.898,1.096c-0.982,2.508-2.924,3.872-5.391,4.596
	c-1.106,0.325-1.826,0.932-2.225,2.035c-0.551,1.526-1.913,2.228-3.245,2.934c-1.954,1.037-3.938,1.566-6.073,0.373
	c-0.112,0.284-0.265,0.523-0.299,0.778c-0.226,1.674-1.404,2.609-2.711,3.374c-1.91,1.116-3.884,2.123-5.817,3.202
	c-0.592,0.331-1.188,0.685-1.699,1.125c-2.025,1.746-4.458,1.824-6.882,1.552c-1.846-0.208-3.415-0.133-4.941,1.167
	c-1.782,1.518-4.518,2.118-7.218-0.021c-1.463,0.925-3.096,0.871-4.755,0.545c-1.137-0.223-1.827-0.855-1.854-2.032
	c-0.637-0.336-1.229-0.648-2-1.054c0.044-0.822,0.087-1.644,0.134-2.516c-0.576,0.16-1.348,0.482-2.146,0.576
	c-1.691,0.199-3.399,0.37-4.835-0.936c-0.932-0.847-1.074-1.302-0.484-2.382c0.382-0.701,0.793-1.385,1.197-2.085
	c-0.171,0-0.406-0.038-0.624,0.006c-2.425,0.484-5.024-0.918-5.671-3.257c-0.203-0.733,0.15-1.616,0.232-2.432
	c0.038-0.378,0.178-0.832,0.027-1.126c-0.804-1.581-0.235-3.506,1.354-4.355c0.412-0.22,0.814-0.455,1.35-0.753
	c-1.269-0.253-2.372-0.48-3.477-0.69c-1.319-0.251-2.186-1.079-2.445-2.325c-0.223-1.067,0.359-1.975,1.216-2.643
	c1.184-0.923,2.396-1.81,3.567-2.748c1.161-0.93,2.578-0.764,3.905-0.991c0.296-0.05,0.598-0.067,0.969-0.105
	c-0.071-1.491,0.846-2.312,1.838-3.216c1.672-1.522,3.173-3.233,4.819-4.943c-1.3-0.477-2.962-0.625-3.011-2.79
	c0.274-1.093,1.275-1.735,2.346-2.474c4.031-2.778,7.683-5.832,8.546-11.156c0.346-2.137,1.255-4.222,2.164-6.215
	c0.66-1.447,2.2-1.746,3.704-1.999c1.148-0.192,2.255-0.67,3.357-1.081c0.199-0.073,0.29-0.437,0.589-0.926
	c-1.61,0.202-2.917,0.335-4.214,0.537c-1.626,0.252-3.308-0.006-4.892,0.75c-0.906,0.433-5.124-1.211-5.652-2.055
	c-0.282-0.452-0.438-0.982-0.68-1.544c-2.275,0.774-3.868,0-4.642-1.814c-1.337-0.077-2.566,0.142-3.512-0.275
	c-1.17-0.519-2.53-1.169-2.779-2.731c-0.078-0.486-0.146-1.098,0.076-1.484c0.554-0.967,0.365-1.921,0.161-2.871
	c-0.584-2.722,0.504-4.499,3.196-5.107c0.261-0.059,0.529-0.088,0.872-0.144c-0.523-2.618,0.772-4.361,2.78-5.652
	c0.61-0.393,1.45-0.506,2.201-0.581c0.92-0.09,1.799-0.133,2.468-1.137c-0.855-0.363-1.565-0.81-2.333-0.962
	c-2.131-0.421-2.781-1.997-2.927-3.799c-0.123-1.5-0.595-2.488-1.858-3.468c-2.112-1.639-2.388-4.181,0.268-5.747
	c0.26-0.153,0.501-0.34,0.837-0.569c-0.463-1.619,0.012-2.938,1.573-3.628c1.842-0.813,3.807-0.91,5.805-0.699
	c1.891,0.202,3.793,0.292,5.684,0.492c1.451,0.154,2.908,0.322,4.33,0.631c1.157,0.251,1.99,0.942,1.761,2.344
	c0.203-0.01,0.361,0.019,0.385-0.025c1.158-2.101,3.247-2.25,5.278-2.568c1.29-0.201,2.484-0.053,3.661,0.531
	c0.486,0.241,1.076,0.268,1.72,0.16c-0.107-0.097-0.207-0.201-0.322-0.286c-2.043-1.509-2.058-3.17-0.3-5.004
	c1.529-1.595,3.343-2.517,5.423-3.05c0.917-0.236,1.601-0.727,1.782-1.638c-2.363,0.074-4.734,0.121-7.103,0.233
	c-1.855,0.089-3.012-1.039-3.915-2.361c-0.833-1.219-0.117-2.446,0.585-3.513c0.484-0.737,1.18-1.335,1.663-2.072
	c0.726-1.111,1.535-2.014,3.009-1.906c0.334-1.691,1.554-2.489,2.961-3.206c-1.868-2.287-0.519-4.166,0.749-6.006
	c0.632-0.918,1.397-1.753,2.16-2.572c1.221-1.31,2.851-1.612,4.546-1.771c0.338-0.032,0.771-0.309,0.947-0.6
	c1.077-1.784,1.321-1.925,3.344-1.625C68.686,15.369,68.822,15.363,69.004,15.372z"/>
<path class="stroke" fill="#3b4954"  fill-rule="evenodd" clip-rule="evenodd" d="M182.456,177.561c-2.32,0.483-4.326,1.134-6.367,1.269
	c-2.751,0.182-5.528-0.055-8.293-0.068c-1.421-0.008-2.841,0.114-4.262,0.114c-1.19,0-2.38-0.148-3.569-0.134
	c-2.371,0.028-4.741,0.133-7.112,0.186c-1.161,0.026-2.328,0.07-3.484-0.006c-1.869-0.123-3.729-0.396-5.598-0.503
	c-4.466-0.257-8.938-0.408-13.402-0.692c-3.909-0.25-7.809-0.624-11.713-0.946c-1.113-0.093-2.226-0.199-3.431-0.307
	c-0.896-0.85-1.404-2-1.387-3.228c0.082-5.898,0.254-11.795,0.402-17.692c0.122-4.867,0.137-9.741,0.427-14.598
	c0.174-2.916,0.734-5.813,1.225-8.702c0.202-1.183,1.625-2.065,2.836-2.057c2.109,0.016,4.218,0.005,6.327-0.006
	c1.943-0.009,3.887,0.001,5.828-0.059c2.612-0.078,5.22-0.251,7.833-0.314c1.704-0.042,3.411,0.062,5.116,0.061
	c1.693-0.001,3.387-0.111,5.077-0.066c1.631,0.045,3.259,0.233,4.888,0.345c2.235,0.153,4.473,0.269,6.707,0.443
	c4.034,0.315,8.075,0.568,12.093,1.029c2.697,0.309,5.396,0.787,8.02,1.476c1.292,0.339,2.833,0.169,3.866,1.326
	c0.226,0.253,0.457,0.503,0.963,0.801c-0.289,3.97-0.473,7.951-0.894,11.906c-0.487,4.587-0.761,9.171-0.815,13.787
	c-0.047,4.017-0.476,8.03-0.776,12.042C182.843,174.541,182.619,176.105,182.456,177.561z"/>
<path fill-rule="evenodd" clip-rule="evenodd" fill="#e5f3a5" class="fill" d="M62.36,143.006c-1.326,0.665-2.438,1.359-2.301,3.054
	c0.099,1.222-0.925,1.778-1.668,2.417c-1.78,1.528-3.85,2.56-6.022,3.449c-1.074,0.44-2.018,1.246-2.943,1.983
	c-1.174,0.936-2.47,1.011-3.866,0.834c-1.044-0.132-2.124-0.359-3.14-0.213c-0.884,0.127-1.723,0.673-2.54,1.113
	c-0.914,0.49-1.763,1.102-2.672,1.601c-0.778,0.426-1.279,0.02-1.642-0.68c-0.239-0.461-0.519-0.902-0.749-1.296
	c-1.911,0.074-3.077,2.476-5.015,1.323c-0.035-0.77-0.065-1.412-0.099-2.146c-0.77,0-1.331,0-1.914,0
	c0.221-0.951,0.457-1.072,2.249-1.198c1.23-1.2,2.728-2.32,2.109-4.667c-0.628,0.083-1.232,0.087-1.787,0.252
	c-1.916,0.57-3.816,1.195-5.721,1.801c-1.037,0.33-2.062,0.706-3.115,0.974c-0.408,0.104-0.877-0.027-1.37-0.225
	c1.738-1.285,2.476-3.493,4.793-4.164c1.945-0.564,3.659-1.751,4.67-3.682c0.351-0.671,0.337-1.21-0.198-1.633
	c-1.158,0.266-2.256,0.399-3.262,0.778c-1.678,0.631-3.367,1.297-4.924,2.175c-1.954,1.101-3.926,0.754-5.928,0.453
	c-0.287-0.042-0.534-0.344-0.929-0.615c0.583-0.835,1.102-1.579,1.675-2.401c-0.064-0.245-0.15-0.568-0.226-0.854
	c-0.455-0.27-0.852-0.505-1.357-0.805c0.888-1.242,1.903-2.093,3.32-2.303c0.867-0.129,1.54-0.448,2.272-0.972
	c1.116-0.796,2.467-1.262,3.833-1.924c0.053-0.403,0.171-0.868,0.165-1.331c-0.021-1.437-0.649-2.064-2.057-1.809
	c-2.04,0.371-4.052,0.895-6.068,1.383c-1.313,0.318-2.481,0.006-3.604-0.666c1.231-1.903,4.32-3.814,6.561-3.311
	c1.029,0.23,2.081,0.361,3.122,0.53c1.271,0.208,2.517-0.121,3.469-0.926c0.224-2.528-1.793-2.166-3.282-2.35
	c0-0.21-0.019-0.327,0.003-0.335c1.505-0.563,1.891-2.161,2.912-3.135c1.462-1.396,3.165-2.539,4.762-3.793
	c1.973-1.551,4.189-2.005,6.646-1.579c1.961,0.341,3.666-0.411,5.3-1.405c1.017-0.618,2.072-1.172,3.111-1.752
	c0.805-0.448,1.114-1.221,0.863-2.001c-0.258-0.8-0.78-1.536-1.294-2.219c-0.112-0.148-0.751-0.066-1.027,0.106
	c-0.926,0.571-1.926,1.109-2.664,1.882c-1.499,1.569-3.427,1.921-5.279,1.559c-2.79-0.547-5.157,0.028-7.464,1.515
	c-0.585,0.377-1.365,0.449-2.055,0.661c-0.08-0.143-0.16-0.286-0.24-0.427c1.355-1.12,2.581-2.497,4.109-3.274
	c1.125-0.571,2.141-1.046,2.875-2.105c0.578-0.834,1.544-1.475,1.895-2.374c0.567-1.459,0.92-3.042,1.088-4.604
	c0.188-1.75-0.065-3.525,0.745-5.215c0.86-1.793,2.616-2.732,4.52-2.216c0.459,0.124,0.916,0.255,1.328,0.37
	c1.431-0.339,2.504-1.062,3.001-2.422c0.462-1.263,0.634-2.618-0.354-3.67c-1.028-1.096-2.473-1.4-3.87-0.907
	c-1.8,0.635-3.6,0.991-5.504,0.898c-1.252-0.06-2.507-0.042-3.76-0.068c-1.01-0.022-1.723-0.761-1.719-1.784
	c0.001-0.203,0.129-0.431,0.069-0.603c-0.19-0.546-0.31-1.337-0.705-1.532c-0.421-0.208-1.164,0.063-1.695,0.291
	c-0.581,0.249-1.079,0.688-1.686,1.093c-0.346-0.201-0.68-0.396-1.104-0.644c0.245-0.5,0.572-0.903,0.626-1.339
	c0.082-0.656-0.027-1.335-0.055-2.005c-0.669,0.07-1.367,0.048-2.001,0.236c-0.602,0.179-1.12,0.625-1.71,0.871
	c-1.216,0.506-1.608,0.335-2.314-0.929c0.627-1.045,0.63-2.083,0.058-3.247c-0.657-1.338-0.023-2.223,1.49-2.348
	c0.375-0.031,0.751-0.042,1.127-0.046c1.281-0.015,2.161-0.823,2.257-2.106c0.027-0.374,0.024-0.753-0.002-1.128
	c-0.171-2.484,1.098-3.783,3.639-3.677c1.359,0.056,2.499-0.353,3.283-1.499c0.605-0.883,0.502-2.345-0.24-3.68
	c-0.806-0.215-1.71-0.385-2.563-0.699c-1.761-0.647-2.95-1.491-2.685-3.493c0.224-1.69-0.499-2.617-2.016-3.421
	c-0.596-0.316-1.061-0.879-1.682-1.411c1.274-1.405,3.749-1.825,2.436-4.192c0.849-1.233,1.994-1.633,3.264-1.544
	c2.687,0.188,5.365,0.511,8.051,0.717c1.123,0.086,2.258,0.014,3.454,0.014c0.202,0.738,0.342,1.211,0.461,1.691
	c0.126,0.511,0.127,1.083,0.367,1.53c0.858,1.598,2.687,1.746,3.684,0.229c0.798-1.213,1.474-2.492,2.98-2.921
	c1.862-0.53,3.625,0.001,5.413,0.525c0.944,0.276,1.987,0.322,2.98,0.294c0.866-0.025,1.71-0.3,1.755-1.451
	c0.057-1.447-0.462-2.332-1.575-2.802c-0.665-0.282-1.281-0.678-2.024-1.081c1.514-1.862,3.066-3.219,5.322-3.495
	c1.889-0.231,3.983-2.063,4.437-3.888c0.264-1.059,0.012-1.927-0.834-2.584c-2.325,0.579-4.587,0.956-6.933,0.601
	c-0.793-0.121-1.626,0.05-2.436-0.005c-1.882-0.127-2.209-1.112-1.435-2.787c0.911-1.974,2.443-2.367,4.305-2.443
	c0.462-0.018,0.919-0.176,1.593-0.313c-0.281-0.839-0.526-1.57-0.822-2.455c0.479-0.059,0.859-0.157,1.237-0.144
	c1.654,0.057,2.388-0.939,1.695-2.411c-0.329-0.699-0.796-1.331-1.329-2.206c0.179-0.494,0.313-1.267,0.708-1.867
	c0.837-1.276,1.77-2.498,2.741-3.677c0.851-1.031,2.048-0.767,3.156-0.589c1.467,0.237,1.621,0.144,2.176-1.247
	c0.18-0.452,0.592-0.812,0.994-1.339c0.285,0.498,0.445,0.754,0.582,1.022c0.597,1.16,1.542,1.234,2.251,0.127
	c0.657-1.025,1.243-2.095,1.835-3.104c0.5,0,0.829,0,1.182,0c0.834,1.19,1.053,2.505,1.115,3.882
	c0.037,0.814,0.07,1.644,0.255,2.432c0.348,1.479,1.158,1.959,2.776,1.752c1.698-2.134,1.136-4.432,0.2-6.622
	c-0.815-1.907-0.802-2.276,1.131-3.071c0.689-0.284,1.406-0.5,2.065-0.732c0.177-0.403,0.326-0.74,0.508-1.156
	c0.31,0.157,0.621,0.239,0.829,0.432c0.78,0.728,1.587,1.299,2.701,1.51c0.526,0.1,0.944,0.772,1.477,1.244
	c-1.359,1.237-2.559,2.339-3.773,3.427c-0.735,0.659-1.244,1.417-0.872,2.43c0.352,0.962,1.093,1.337,2.139,1.43
	c1.277,0.114,2.509,0.279,3.648-0.488c1.155-0.777,1.705-1.904,1.924-3.241c0.268-1.632,0.652-1.726,2.296-1.594
	c1.356,0.108,2.746-0.264,4.125-0.369c3.023-0.229,6.046-0.489,9.075-0.597c1.049-0.038,2.23,0.071,2.932,1.11
	c0.217,0.321,0.445,0.779,0.381,1.122c-0.398,2.147,0.072,4.032,1.406,5.76c0.379,0.491,0.63,1.146,0.744,1.762
	c0.32,1.731,1.458,2.608,2.995,3.156c0.962,0.343,1.781,0.85,1.996,2.104c-1.873,1.699-3.72,3.493-3.04,6.456
	c0.896,0.335,1.648,0.18,2.322-0.405c2.711-2.359,5.763-1.446,6.539,2.031c0.302,1.354,0.312,2.771,0.478,4.37
	c-0.822-0.4-1.333-0.65-1.772-0.864c-2.059,0.558-2.227,3.341-0.644,4.843c0.883,0.838,0.978,1.979,0.209,3.049
	c-0.391,0-0.904-0.068-1.393,0.015c-0.962,0.164-1.959,0.29-2.851,0.654c-1.242,0.508-1.921,1.492-1.735,2.929
	c0.047,0.369,0.006,0.748,0.006,1.179c-1.507,1.455-4.286,0.597-5.318,3.086c0.042,0.26,0.115,0.722,0.232,1.45
	c-0.903,0.169-1.757,0.388-2.624,0.48c-1.799,0.19-3.736,2.636-3.329,4.405c0.117,0.507,0.547,1.058,0.989,1.353
	c1.167,0.775,1.584,1.918,1.495,3.153c-0.206,2.813,0.819,5.048,2.949,6.768c0.989,0.798,1.112,1.833,1.411,2.928
	c0.653,2.392-0.94,4.304-1.196,6.494c-0.105,0.896-0.162,1.637,0.395,2.408c0.913,1.267,0.38,2.685,0.331,4.405
	c0.704,1.612,1.615,3.515,2.37,5.477c0.816,2.124,0.859,4.081-0.712,6.119c-0.978,1.269-1.279,3.117-1.682,4.754
	c-0.314,1.277-0.233,2.647-0.487,3.944c-0.171,0.876-0.506,1.767-0.967,2.53c-0.979,1.622-1.092,3.481-1.655,5.211
	c-0.392,1.201-0.993,2.374-1.706,3.418c-1.014,1.484-1.017,2.083,0.332,3.264c0.685,0.6,1.036,1.344,0.648,2.355
	c-0.945,0.703-2.103,0.424-3.19,0.488c-0.542,0.031-1.103-0.128-1.631-0.047c-1.741,0.268-3.179-0.26-4.525-1.362
	c-1.7-1.393-3.959-0.738-5.004,1.201c-0.877,1.626-2.385,2.377-4.246,2.366c-3.022-0.019-5.805,1.033-8.619,1.932
	c-0.961,0.308-1.661,1.058-1.725,1.994c-0.163,2.38-1.868,3.148-3.701,3.603c-1.794,0.444-3.031,1.233-3.818,2.989
	c-0.358,0.797-1.424,1.276-2.17,1.898c-0.023,0.019-0.067,0.01-0.099,0.021c-0.755,0.254-1.602,0.842-2.238,0.667
	c-0.606-0.167-0.977-1.146-1.49-1.734C62.913,143.292,62.614,143.172,62.36,143.006z"/>
<path fill-rule="evenodd" clip-rule="evenodd" fill="#77AE6D" d="M138.638,132.043c-0.509,14.479-1.009,28.71-1.515,43.088
	c-7.034-0.465-13.802-0.912-20.703-1.369c0-1.503-0.019-3.268,0.004-5.03c0.051-3.989,0.022-7.982,0.213-11.965
	c0.236-4.928,0.784-9.842,0.958-14.772c0.091-2.605,0.346-5.158,0.878-7.697c0.089-0.425,0.202-0.846,0.363-1.518
	C125.364,132.538,131.897,132.294,138.638,132.043z"/>
<path fill-rule="evenodd" clip-rule="evenodd" fill="#FF8630" d="M162.343,133.208c6.661,0.676,13.3,1.349,19.838,2.012
	c0,2.012,0.01,3.736-0.001,5.462c-0.024,3.354-0.038,6.71-0.105,10.064c-0.025,1.222-0.246,2.441-0.283,3.665
	c-0.071,2.314,0.034,4.638-0.127,6.944c-0.311,4.449-0.751,8.89-1.152,13.332c-0.026,0.294-0.172,0.577-0.25,0.825
	c-6.579,1.099-13.136,0.918-19.798,0.655C160.793,161.859,160.428,147.599,162.343,133.208z"/>
<path fill-rule="evenodd" clip-rule="evenodd" fill="#FEFEFE" d="M138.637,175.206c0.555-14.497,1.102-28.813,1.649-43.125
	c6.855,0.365,13.535,0.722,20.322,1.083c-0.148,1.721-0.276,3.272-0.417,4.821c-0.12,1.318-0.283,2.633-0.375,3.955
	c-0.207,2.983-0.441,5.966-0.554,8.954c-0.086,2.309,0.027,4.624-0.005,6.936c-0.029,2.158-0.155,4.315-0.193,6.474
	c-0.049,2.699-0.026,5.398-0.085,8.097c-0.025,1.154-0.178,2.305-0.293,3.7C151.979,175.8,145.366,175.506,138.637,175.206z"/>
</svg>
