<svg version="1.1" id="svg" xmlns="http://www.w3.org/2000/svg" xmlns:xlink="http://www.w3.org/1999/xlink" x="0px" y="0px"
	 width="200px" height="200px" viewBox="0 0 200 200" enable-background="new 0 0 200 200" xml:space="preserve">
<path class="stroke" fill="#51575c"  d="M155.119,133.335c-0.658-7.956-2.972-15.387-7.006-22.188c0.294-0.537,0.467-0.914,0.694-1.254
	c2.069-3.1,3.215-6.552,3.946-10.173c0.884-4.378,0.801-8.831,0.834-13.25c0.025-3.41-1.374-6.572-2.79-9.633
	c-1.237-2.675-2.645-5.272-3.965-7.878c0.403-1.756,0.813-3.535,1.221-5.316c0.859-3.749-0.419-6.722-3.307-9.113
	c-0.675-0.558-1.336-1.133-1.868-1.585c0.631-1.61,1.288-2.993,1.712-4.446c0.486-1.664,0.342-3.332-0.995-4.614
	c-1.271-1.22-2.553-2.465-3.994-3.462c-2.472-1.709-5.141-3.136-7.6-4.862c-3.043-2.136-6.373-3.823-9.222-6.275
	c-3.021-2.601-6.656-3.43-10.614-2.891c-0.998,0.138-1.824,0.507-2.444,1.275c-0.999,1.239-1.98,2.494-2.931,3.77
	c-0.752,1.009-1.535,1.955-2.932,2.397c-0.501-0.091-0.979-0.296-1.419-0.235c-2.736,0.378-5.53,0.143-8.229,1.003
	c-2.416,0.768-4.924,1.243-7.38,1.893c-2.908,0.77-5.327,2.492-7.842,4.045c-1.352,0.835-2.251,1.94-2.563,3.444
	c-0.371,1.789-0.592,3.609-0.864,5.417c-0.093,0.626-0.144,1.26-0.218,1.916c-1.21,0.351-2.274,0.695-3.355,0.966
	c-4.354,1.088-7.475,3.779-9.476,7.674c-1.699,3.305-3.106,6.759-4.615,10.16c-1.264,2.852-0.732,4.879,1.733,6.886
	c0.431,0.351,0.822,0.75,1.262,1.156c-2.322,2.62-4.169,5.278-5.143,8.445c-0.833,2.706-1.828,5.387-2.347,8.155
	c-0.529,2.826-0.585,5.739-1.312,8.552c-0.145,0.561-0.18,1.181-0.114,1.757c0.45,3.926,1.719,7.415,5.429,9.643
	c-1.381,0.153-2.664,0.295-3.806,0.421c-1.067,0.765-1.502,1.723-1.652,2.805c-0.153,1.112-0.239,2.234-0.324,3.352
	c-0.203,2.653-0.28,5.318-0.604,7.956c-0.547,4.453-1.256,8.885-1.869,13.33c-0.086,0.62-0.012,1.263-0.012,2.116
	c1.452,0.375,2.794,0.723,4.211,1.09c0.05,0.513,0.107,1.083,0.157,1.592c1.278,1.104,2.616,1.4,4.854,1.258
	c1.218-0.078,2.445-0.014,3.703-0.014c0.146,0.405,0.277,0.727,0.379,1.06c1.087,3.556,2.17,7.113,3.254,10.669
	c0.596,1.955,1.849,3.292,3.813,3.864c1.243,0.363,2.515,0.741,3.795,0.848c2.826,0.232,5.665,0.403,8.5,0.407
	c3.539,0.005,7.077-0.189,10.616-0.284c5.405-0.147,10.792-0.683,16.209-0.628c4.184,0.043,8.37-0.044,12.554-0.135
	c2.828-0.06,5.669,0.287,8.482-0.351c1.705-0.387,3.288-0.935,4.444-2.289c2.155-8.013,3.622-16.105,4.441-24.434
	c1.57,0.311,2.938,0.58,4.328,0.854c0.399,1.46,0.763,2.792,1.108,4.057c0.935,0.132,1.621,0.229,2.381,0.337
	c0.131,0.568,0.223,1.086,0.371,1.586c0.449,1.515,1.262,2.549,2.976,2.898c1.986,0.405,3.836,0.131,5.798-0.38
	C155.799,142.158,155.483,137.75,155.119,133.335z"/>
<path fill-rule="evenodd" clip-rule="evenodd" fill="#f7dad4" class="fill" d="M76.357,154.001c1.857-0.132,3.521-0.251,5.437-0.388
	c-1.053,2.505-1.649,4.763-1.449,7.278c0.451,0.294,0.933,0.608,1.22,0.797c1.719-0.087,3.185-0.161,4.717-0.238
	c0.252-0.289,0.519-0.592,0.852-0.972c-0.168-2.37-0.339-4.773-0.521-7.334c2.049-0.133,3.509-1.351,4.636-2.907
	c1.556,0,3.011,0,4.585,0c0.821-2.024-0.133-3.872-0.221-5.361c1.507-5.003,2.914-9.676,4.43-14.714
	c0.15-0.068,0.666-0.499,1.19-0.51c2.983-0.065,5.971-0.032,9.013-0.032c-2.549,2.189-3.818,4.876-2.77,8.273
	c2.508,0.581,4.515,0.168,5.718-1.137c0.15-2.53-0.463-4.949-1.5-7.295c0.796,0.115,1.398,0.744,3.661,3.813
	c0,1.247,0,2.586,0,3.936c2.213,0.937,4.15,0.048,6.063-0.784c0.321,0.447,0.551,0.768,0.892,1.244
	c1.285-0.113,2.619-0.23,4.04-0.355c0.304-0.607,0.618-1.229,0.987-1.965c0.329-0.116,0.761-0.267,1.17-0.411
	c0.429,0.73,0.815,1.389,1.169,1.991c1.671-0.112,3.078-0.205,4.546-0.302c1.289-2.024-0.138-4.021,0.045-6.21
	c0.853,0.436,1.644,0.843,2.386,1.223c0.095,2.443-3.728,25.408-4.479,26.823c-0.173-1.9,0.838-3.812-0.478-5.775
	c-0.617,0.375-1.364,0.568-1.608,1.026c-1.046,1.972-1.23,4.108-1.02,6.375c0.85,0.2,1.512,0.357,2.38,0.563
	c-1.213,0.921-2.345,1.613-3.73,1.631c-1.829,0.021-3.673,0.062-5.487-0.13c-4.302-0.458-8.584-0.724-12.917-0.312
	c-2.58,0.246-5.203-0.007-7.797,0.13c-4.541,0.24-9.073,0.63-13.612,0.918c-5.025,0.317-10.04,0.125-15.036-0.494
	c-0.476-0.059-0.931-0.274-1.366-0.56c1.542-0.558,3.191,0.653,4.891-0.767C77.336,159.04,76.742,156.663,76.357,154.001z
	 M120.676,150.14c0.066-2.495-0.926-6.969-1.96-9.023c-1.696-0.553-2.646-0.184-3.079,1.488c-0.529,2.047-0.871,4.147-1.23,6.233
	c-0.084,0.483,0.083,1.008,0.15,1.652C116.726,150.539,118.74,150.881,120.676,150.14z M112.64,150.064
	c-0.25-2.484-0.616-4.918-1.295-7.281c-0.311-1.083-1.276-1.437-2.948-1.321c-1.821,2.596-2.005,5.62-1.915,8.647
	C108.472,151.188,110.084,151.183,112.64,150.064z M133.047,139.76c-1.305-0.812-2.178-0.275-2.761,0.59
	c-0.613,0.914-1.129,1.944-1.443,2.997c-0.566,1.902-0.99,3.857-0.38,5.983c1.936,0.319,3.708,0.291,5.328-1.115
	C133.19,145.341,133.879,142.418,133.047,139.76z M98.029,160.728c1.989,1.335,3.801,0.042,5.79-0.161
	c0.231-0.421,0.692-0.87,0.689-1.318c-0.01-2.037-0.151-4.072-0.24-5.989c-2.396-1.022-4.553-0.122-5.128,2.06
	C98.68,157.075,98.402,158.88,98.029,160.728z M121.395,150.545c2.137-0.053,4.064,0.662,5.512-1.121
	c-0.168-1.937-0.299-3.816-0.507-5.687c-0.131-1.179-0.396-2.336-1.444-3.015c-1.145-0.346-1.812,0.199-2.188,1.087
	C121.623,144.52,121.467,147.377,121.395,150.545z M95.623,152.617c-1.561-0.318-2.777,0.007-3.422,1.349
	c-0.732,1.523-1.402,3.098-1.879,4.716c-0.397,1.349,0.464,2.462,1.838,2.688c1.527,0.25,2.956,0.14,4.009-1.57
	C96.192,157.581,96.447,155.13,95.623,152.617z M99.315,150.372c1.329-0.074,2.703-0.149,4.007-0.22
	c2.175-1.972,1.441-7.044-1.234-9.082C99.586,141.728,98.376,145.597,99.315,150.372z M110.886,152.482
	c-0.122-0.018-0.181-0.038-0.238-0.032c-1.665,0.167-2.777,0.926-3.385,2.598c-0.579,1.595-1.319,3.109-1.042,4.982
	c1.734,0.668,3.463,0.464,5.09,0.511c0.706-1.022,1.26-3.469,0.905-4.833C111.923,154.584,112.218,153.141,110.886,152.482z
	 M105.239,137.462c0.336-2.635-0.239-4.887-1.395-6.934c-2.453-0.503-3.516,0.085-3.94,2.224c-0.341,1.716-0.516,3.465-0.801,5.451
	C101.142,137.956,103.045,137.727,105.239,137.462z M121.547,159.797c1.502,1.1,3.88,0.929,5.521-0.471
	c-0.301-2.244,0.699-4.672-0.497-6.892C123.306,152.411,120.92,156.053,121.547,159.797z M114.755,159.943
	c1.373,0.1,2.644,0.192,4.087,0.298c0.257-0.56,0.697-1.066,0.681-1.558c-0.062-1.943,0.732-3.973-0.365-5.824
	c-1.609-0.389-2.649,0.268-3.359,1.489C114.858,155.967,114.497,157.728,114.755,159.943z"/>
<path fill-rule="evenodd" clip-rule="evenodd" fill="#f7dad4" class="fill" d="M125.189,78.788c1.44,1.528,3.014,3.042,4.399,4.711
	c1.656,1.994,3.248,4.056,4.688,6.209c1.49,2.229,1.463,2.946-0.394,4.831c-3.07,3.12-5.114,6.925-7.446,10.542
	c-1.357,2.107-2.814,3.748-4.446,4.751c-0.886-3.269-1.699-6.498-2.643-9.688c-0.939-3.169-2.099-6.274-3.001-9.453
	c-0.915-3.227-1.803-6.445-3.575-9.499c-0.471-0.04-0.957-0.082-1.542-0.131c0,0.687,0,1.196,0,1.755
	c-0.909,0.769-1.79,1.515-2.825,2.392c1.524,0.972,2.234-0.867,3.522-0.538c0.085,0.234,0.211,0.578,0.38,1.038
	c-1.579,0.891-3.077,1.735-4.799,2.705c1.213,0.774,1.934,0.195,2.711-0.121c0.809-0.33,1.657-0.562,2.583-0.869
	c0.15,0.372,0.273,0.675,0.395,0.976c-1.224,1.297-3.196,1.343-4.332,2.907c1.873,0.947,3.16-0.919,4.847-0.716
	c0.078,0.294,0.161,0.604,0.249,0.935c-1.624,1.133-3.637,1.459-5.207,3.128c2.169,0.236,3.729-0.93,5.631-1.157
	c0.111,0.391,0.229,0.799,0.402,1.407c-1.632,0.753-3.182,1.469-5.039,2.327c1.925,0.901,3.324-0.31,4.912-0.152
	c0,0.482,0,0.975,0,1.505c-0.699,0.261-1.371,0.47-2.005,0.761c-0.625,0.287-1.212,0.658-1.956,1.069
	c1.286,1.307,2.429-0.062,3.732,0.184c-0.067,0.589-0.135,1.196-0.205,1.818c-0.749,0.25-1.428,0.477-2.106,0.704
	c-0.018,0.14-0.036,0.278-0.055,0.417c0.451,0.277,0.902,0.553,1.438,0.883c-0.318,1.122-0.655,2.306-0.999,3.52
	c-0.673,0.311-1.297,0.6-2.166,1.003c-0.203-0.915-0.4-1.691-0.546-2.478c-0.834-4.461-1.582-8.95-3.388-13.149
	c-0.479-1.113-1.324-2.071-2-3.099c-0.159-0.242-0.354-0.47-0.471-0.732c-0.947-2.13-2.466-3.725-4.491-4.854
	c-0.147-0.082-0.293-0.168-0.708-0.409c4.156-2.129,7.895-4.33,11.104-7.699c1.034,0.356,2.131,0.712,3.209,1.118
	c0.438,0.165,0.878,0.385,1.244,0.673c2.317,1.816,4.964,2.058,7.722,1.561C122.978,79.699,123.891,79.243,125.189,78.788z"/>
<path fill-rule="evenodd" clip-rule="evenodd" fill="#f7dad4" class="fill" d="M145.302,59.263c-0.667,1.565-1.743,3.054-3.123,4.269
	c-0.52,0.459-1.364,0.751-2.066,0.762c-1.926,0.033-3.38,0.778-4.576,2.27c-1.857,2.313-4.08,4.25-6.358,6.149
	c-1.586,1.323-3.429,1.88-5.317,2.237c-3.644,0.688-7.248,0.408-10.811-0.772c-3.195-1.059-6.418-2.014-9.434-3.546
	c-0.722-0.367-1.525-0.575-2.307-0.859c-0.249-1.635,0.508-2.823,1.359-3.952c1.276-1.688,2.537-3.355,3.314-5.379
	c0.494-1.286,1.392-2.416,2.438-3.51c-0.295,1.433-0.629,2.862-0.873,4.304c-0.246,1.453-0.599,2.928-0.54,4.38
	c0.06,1.481-0.864,2.924-0.12,4.437c2.422-4.817,2.824-10.372,5.572-15.03c0.131,0.008,0.262,0.018,0.392,0.025
	c0,0.59,0.103,1.202-0.017,1.765c-0.665,3.147-0.627,6.333-0.426,9.506c0.096,1.516,0.551,3.017,0.934,4.502
	c0.117,0.456,0.53,0.836,0.808,1.25c0.116-0.038,0.231-0.075,0.346-0.113c-0.07-1.187,0.024-2.412-0.242-3.554
	c-0.597-2.55-0.341-5.028,0.291-7.502c0.745-2.917,1.521-5.825,2.316-8.727c0.205-0.746,0.52-1.478,1.66-1.26
	c-0.016,0.356,0.013,0.702-0.055,1.029c-0.779,3.75-0.661,7.533-0.192,11.286c0.245,1.964,0.887,3.892,1.478,5.796
	c0.227,0.728,0.808,1.346,1.229,2.014c0.162-0.05,0.324-0.102,0.486-0.152c-0.037-0.469,0.053-0.996-0.132-1.395
	c-1.381-2.973-1.237-6.118-1.006-9.237c0.252-3.409,0.714-6.803,1.105-10.396c0.518-0.138,1.113-0.295,1.912-0.506
	c0.281,0.811,0.544,1.506,0.763,2.214c0.679,2.195,1.293,4.411,2.021,6.59c0.808,2.417,1.451,4.859,1.743,7.397
	c0.188,1.629,0.415,1.907,1.701,2.561c-0.349-6.228-2.144-12.091-3.274-18.248c0.573,0.082,0.952,0.135,1.463,0.208
	c0.827,1.861,1.742,3.712,2.477,5.633c0.564,1.48,0.811,3.082,1.368,4.564c0.515,1.371,0.679,2.737,0.571,4.167
	c-0.041,0.545-0.058,1.091,0.767,1.228c0.846-1.23,0.917-2.637,0.662-4.027c-0.521-2.844-1.153-5.668-1.742-8.5
	c-0.176-0.848-0.357-1.697-0.556-2.64c1.104-0.145,1.634,0.437,2.194,1.058c1.648,1.832,2.674,4.023,3.703,6.22
	c0.291,0.619,0.469,1.369,1.483,1.451c0.647-2.88-1.585-4.76-2.534-7.301c0.439,0.115,0.711,0.139,0.938,0.254
	c1.991,1.006,3.982,2.016,5.958,3.05C144.604,56.041,145.467,57.28,145.302,59.263z"/>
<path fill-rule="evenodd" clip-rule="evenodd" fill="#f7dad4" class="fill" d="M139.862,51.042c-1.039-0.362-2.131-0.75-3.229-1.121
	c-3.035-1.026-6.188-1.44-9.343-1.893c-1.128-0.161-2.187-0.781-3.29-1.151c-1.275-0.43-2.539-1.005-3.853-1.188
	c-3.655-0.511-7.363-1.413-10.953,0.303c-1.968,0.94-3.885,1.988-5.825,2.985c-0.314,0.161-0.625,0.419-0.952,0.446
	c-3.53,0.293-6.424,2.227-9.525,3.628c-0.151,0.068-0.324,0.085-0.556,0.145c-1.806-2.313-2.689-4.762-1.724-7.725
	c0.515-1.575,1.63-2.591,2.82-3.519c2.727-2.125,5.838-3.546,9.117-4.603c1.457-0.471,2.911-0.962,4.392-1.349
	c1.768-0.462,2.441-1.87,3.188-3.304c0.508-0.974,1.094-1.964,1.857-2.735c1.26-1.27,2.856-1.667,4.556-0.906
	c1.067,0.479,2.07,1.099,3.096,1.666c0.205,0.114,0.361,0.338,0.573,0.411c1.829,0.625,3.267,1.861,4.767,3.002
	c3.914,2.978,8.25,5.275,12.484,7.736c0.508,0.295,1.025,0.592,1.474,0.966C141.86,45.271,142.157,47.604,139.862,51.042z
	 M105.16,39.259c-1.042,0.399-2.025,0.777-3.088,1.184c-0.647-0.489-1.292-1.242-2.142-0.373c0.12,0.353,0.243,0.711,0.383,1.116
	c-0.672,0.315-1.252,0.588-1.832,0.86c-0.01-0.075-0.019-0.15-0.027-0.225c-0.692-0.059-1.385-0.117-2.343-0.198
	c0.358,0.622,0.527,0.916,0.698,1.211c-1.033,1.178-2.242,2.234-2.73,3.747c1.173,1.541,1.251,1.586,2.785,1.745
	c1.722-1.316,3.408-2.5,4.976-3.824c3.107-2.627,6.712-4.08,10.655-4.868c1.623-0.325,3.197-0.207,4.71,0.331
	c1.271,0.452,2.48,1.092,3.686,1.71c2.572,1.318,5.103,2.72,7.693,4.001c2.516,1.246,5.243,1.784,8.017,2.063
	c0.446,0.046,0.913-0.106,1.372-0.166c0.25-0.496,0.458-0.908,0.651-1.291c-0.358-1.16-1.056-1.963-2.098-2.344
	c-1.029-0.376-2.122-0.578-3.168-0.852c-0.037-0.489-0.069-0.922-0.096-1.292c-1.401-0.628-1.601,0.8-2.435,1.239
	c-0.511-0.185-1.046-0.377-1.632-0.589c0.15-0.77,0.278-1.421,0.404-2.071c-1.593-0.51-1.516,1.17-2.508,1.567
	c-0.48-0.207-1.055-0.454-1.688-0.727c0.423-0.847,0.771-1.543,1.151-2.307c-1.803-0.441-2.096,1.038-2.942,1.915
	c-0.669-0.25-1.341-0.502-2.149-0.805c0.75-1.033,1.344-1.85,2.069-2.852c-2.054-0.329-2.295,1.698-3.809,2.052
	c-0.482-0.26-1.11-0.6-1.716-0.927c0.387-0.856,0.678-1.499,1.029-2.273c-1.611-0.136-1.831,1.341-2.829,1.709
	c-0.591-0.197-1.188-0.394-1.934-0.643c0.362-0.935,0.68-1.754,1.03-2.66c-1.769,0.085-2.009,1.494-2.641,2.537
	c-0.483,0.057-0.939,0.109-1.405,0.163c-0.313-0.396-0.592-0.75-0.805-1.02c-1.33-0.22-0.919,0.88-1.188,1.307
	c-1.186,0.898-2.44,0.917-3.789,0.601C105.371,38.427,105.289,38.749,105.16,39.259z"/>
<path fill-rule="evenodd" clip-rule="evenodd" fill="#f7dad4" class="fill" d="M77.763,152.227c-0.126-1.496-0.271-2.825-0.346-4.158
	c-0.25-4.465,0.371-8.946-0.317-13.41c-0.357-2.322-0.541-4.673-0.771-7.014c-0.039-0.396,0.09-0.807,0.15-1.283
	c-1.603-0.958-3.429-0.444-5.312-0.739c1.623-2.36,3.72-3.599,6.366-3.831c3.65-0.321,7.3-0.17,10.936,0.273
	c1.815,0.222,3.632,0.442,5.436,0.739c0.737,0.12,1.441,0.438,2.122,0.654c0.53,1.885,0.491,3.66,0.223,5.401
	c-0.663,4.31-1.42,8.608-2.163,12.907c-0.065,0.379-0.295,0.73-0.69,1.063c-0.5-5.539-1-11.078-1.51-16.711
	c-0.607-0.116-1.023-0.195-1.549-0.294c-0.07,0.494-0.187,0.834-0.151,1.155c0.283,2.581,0.653,5.154,0.881,7.739
	c0.239,2.704,0.438,5.417,0.49,8.13c0.038,1.949-0.332,3.87-1.12,5.69c-0.88,2.037-2.269,3.184-4.614,3.188
	c-1.639,0.001-3.275,0.359-4.919,0.487C79.932,152.29,78.945,152.227,77.763,152.227z M86.093,149.737
	c1.499-8.278,0.697-16.273,0.753-24.434c-0.65,0-1.104,0-1.667,0c0,0.906-0.005,1.663,0,2.42c0.038,4.252,0.121,8.503,0.097,12.754
	c-0.012,2.062-0.242,4.123-0.334,6.186C84.897,147.678,84.721,148.768,86.093,149.737z M82.219,146.908
	c0.142-0.007,0.283-0.014,0.426-0.021c1.041-2.432,1.172-20.563,0.008-21.521c-0.366,0.128-0.824,0.29-1.003,0.352
	c0,3.107-0.013,5.934,0.004,8.76c0.017,2.891,0.025,5.781,0.121,8.67C81.816,144.404,82.064,145.654,82.219,146.908z"/>
<path fill-rule="evenodd" clip-rule="evenodd" fill="#f7dad4" class="fill" d="M78.161,78.291c0.048-1.021-0.012-2.188,0.175-3.315
	c0.375-2.258,0.865-4.499,1.342-6.739c0.353-1.656,1.479-2.623,3.004-3.2c0.662-0.25,1.318-0.514,1.767-0.689
	c1.394-1.807,2.582-3.497,3.924-5.055c2.424-2.815,5.423-4.887,8.832-6.346c1.457-0.623,2.924-1.365,4.458-1.625
	c2.075-0.351,4.218-0.334,6.334-0.373c0.586-0.011,1.18,0.336,1.823,0.539c-0.458,1.082-1.226,1.152-1.994,1.13
	c-3.921-0.107-7.306,1.289-10.182,3.84c-1.622,1.439-3.617,2.506-4.734,4.482c-0.313,0.557-0.637,1.107-0.997,1.734
	c0.339,0.549,0.64,1.035,0.895,1.448c1.801,0.374,2.111,0.337,2.885-1.047c1.998-3.577,5.325-5.42,8.879-6.983
	c0.404-0.178,0.893-0.163,1.308-0.232c0.102,0.208,0.218,0.341,0.188,0.401c-1.821,3.64-3.456,7.421-6.629,10.157
	c-0.968,0.835-2.127,1.465-3.248,2.103c-0.661,0.375-1.445,0.53-2.126,0.877c-2.028,1.037-4.156,1.62-6.45,1.585
	c-0.955-0.729-1.37-2.356-3.369-1.998c0.931,2.175,2.479,4.034,1.629,6.515c0.427,0.325,0.823,0.623,1.436,1.086
	c0.605-1.05,1.119-1.943,1.705-2.957c0.273,0.016,0.653,0.038,1.179,0.067c0.122,0.934,0.233,1.788,0.332,2.549
	c-1.494,1.688-3.608,0.792-5.252,1.566c-0.09,0.971,0.528,1.222,1.193,1.192c1.174-0.055,2.4-0.064,3.5-0.418
	c2.312-0.745,3.696-2.454,4.226-4.824c0.127-0.572,0.154-1.166,0.221-1.696c1.707-1.614,2.636-1.846,4.264-1.076
	c0.457,0.745,0.353,1.498,0.13,2.345c-0.66,2.518-2.065,4.57-4.101,6.057c-2.455,1.794-5.359,2.402-8.388,2.275
	c-2.176-0.092-4.165-0.728-5.901-2.119C79.829,79.077,79.088,78.798,78.161,78.291z M80.056,72.586
	c0.265,1.203,0.428,2.352,0.788,3.434c0.25,0.755,0.843,1.256,1.775,0.858C81.362,72.868,81.362,72.868,80.056,72.586z"/>
<path fill-rule="evenodd" clip-rule="evenodd" fill="#f7dad4" class="fill" d="M102.723,91.89c-2.637,0.632-5.277,1.257-7.914,1.898
	c-2.853,0.694-3.847,1.935-3.902,4.834c-0.007,0.41-0.001,0.822-0.001,1.215c1.163,1.256,1.592,1.389,2.857,0.586
	c1.245-0.79,2.565-1.552,3.585-2.589c1.881-1.911,4.219-2.701,6.632-3.348c0.595,0.47,0.44,0.891,0.03,1.233
	c-0.68,0.568-1.442,1.042-2.09,1.641c-0.731,0.675-1.469,1.381-2.023,2.197c-0.357,0.524-0.39,1.268-0.62,2.107
	c0.812,0.168,1.358,0.28,1.865,0.385c1.65-1.203,2.6-3.096,4.854-3.718c0.172,0.865,0.456,1.698,0.474,2.535
	c0.023,1.176-0.137,2.358-0.245,3.536c-0.087,0.956-0.571,1.726-1.43,2.107c-3.5,1.558-6.881,3.419-10.708,4.158
	c-0.97,0.188-1.883,0.264-2.752-0.207c-1.085-0.588-2.181-1.175-3.184-1.887c-0.817-0.579-1.102-1.535-1.114-2.511
	c-0.041-3.127-0.053-6.256-0.055-9.384c-0.001-1.163,0.332-2.379-0.855-3.55c-0.545-0.081-1.327-0.197-2.085-0.308
	c-1.418,1.812-2.08,3.64-1.756,5.954c-1.313,0.149-2.511,0.285-4.082,0.465c0.706-1.871,1.362-3.468,1.909-5.102
	c0.769-2.299,2.164-4.178,3.789-5.911c1.304-1.389,2.858-2.271,4.842-2.185c0.47,0.021,0.942,0.003,1.366,0.003
	c-0.708,0.689-1.445,1.406-2.112,2.055c0.535,1.449,1.1,1.903,2.398,1.817c1.176-0.077,2.336-0.382,3.511-0.456
	c1.108-0.071,2.243-0.086,3.335,0.078c1.337,0.2,2.661,0.554,3.954,0.958c0.614,0.191,1.146,0.653,1.715,0.993
	C102.847,91.624,102.785,91.758,102.723,91.89z"/>
<path fill-rule="evenodd" clip-rule="evenodd" fill="#f7dad4" class="fill" d="M58.748,95.195c0.413-0.579,0.92-1.112,1.219-1.744
	c1.433-3.02,3.342-5.727,5.516-8.223c2.442-2.802,5.004-5.511,7.985-7.769c0.256-0.194,0.596-0.278,1.159-0.53
	c-0.186,1.032-0.328,1.816-0.476,2.645c-5.801,4.284-10.108,9.835-13.776,16c0.905,0.799,1.511,0.334,1.987-0.317
	c1.013-1.379,2.051-2.753,2.929-4.217c2.07-3.447,5.17-5.9,8.056-8.734c0.728,0.925,0.199,1.484-0.29,2.062
	c-1.256,1.486-2.607,2.906-3.731,4.487c-1.711,2.404-3.275,4.917-4.875,7.399c-0.277,0.43-0.429,0.94-0.62,1.371
	c0.715,0.862,1.26,0.482,1.659-0.08c0.684-0.961,1.247-2.007,1.921-2.975c1.918-2.759,3.85-5.507,5.816-8.232
	c0.371-0.513,0.925-0.894,1.46-1.397c0.53,0.397,0.987,0.741,1.524,1.144c-0.268,0.424-0.47,0.764-0.688,1.091
	c-2.2,3.292-4.413,6.574-6.593,9.88c-0.319,0.484-0.522,1.057-0.71,1.611c-0.181,0.532,0.03,0.909,0.792,1.102
	c2.419-4.544,5.534-8.641,8.64-12.795c0.381,0.07,0.67,0.09,0.935,0.182c0.265,0.093,0.506,0.256,0.829,0.427
	c-2.272,4.015-4.505,7.959-6.727,11.887c-2.196,0.795-4.506,1.632-7.071,2.562c-0.728-0.665-1.714-1.571-2.704-2.471
	c-0.61-0.555-1.22-1.113-1.844-1.654c-1.681-1.458-3.468-2.554-6.081-1.288c0.055-0.892,0.001-1.47,0.137-2
	c1.17-4.528,2.506-8.998,5.312-12.847c1.988-2.727,4.549-4.776,7.6-6.208c2.607-1.225,5.228-2.421,8.115-3.755
	c-0.14,0.839-0.241,1.439-0.348,2.083c-0.562,0.375-1.092,0.741-1.636,1.086c-5.436,3.452-9.634,8.104-13.15,13.44
	c-1.142,1.732-2.404,3.379-2.7,5.508c-0.051,0.361,0.028,0.739,0.047,1.11C58.491,95.089,58.619,95.143,58.748,95.195z"/>
<path fill-rule="evenodd" clip-rule="evenodd" fill="#f7dad4" class="fill" d="M131.738,131.154c-3.456,1.15-8.599,1.397-12.356,0.597
	c-2.942-3.126-4.871-7.385-8.944-9.707c-0.966,0.171-0.966,0.171-1.276,1.255c-1.031,0.139-2.115,0.285-3.588,0.483
	c1.113-2.021,2.131-3.552,4.226-3.857c6.371-0.926,12.746-1.773,19.175-0.448c1.148,0.237,2.327,0.336,3.471,0.593
	c1.309,0.292,2.091,1.2,2.079,2.52c-0.011,1.334-0.052,2.743-0.482,3.98C133.49,128.157,132.537,129.607,131.738,131.154z
	 M117.898,119.879c-0.073,0.152-0.146,0.305-0.219,0.457c0.881,2.043,1.736,4.096,2.673,6.113c0.146,0.313,0.667,0.455,1.336,0.879
	c-0.092-2.893-1.028-5.061-2.305-7.082C119.187,119.935,118.408,119.992,117.898,119.879z M130.317,121.431
	c-0.374,0.092-0.825,0.203-1.173,0.288c0.384,2.049,0.726,3.875,1.085,5.793c0.366-0.055,0.687-0.104,0.966-0.147
	C131.89,124.585,131.709,123.271,130.317,121.431z M123.665,125.292c0.425-1.455-0.013-3.214-0.948-3.878
	c-0.598-0.423-1.178-0.445-1.681,0.371C122.135,122.747,121.612,124.929,123.665,125.292z M125.346,121.498
	c0.188,2.328,0.46,2.667,2.061,2.567c-0.174-0.849-0.344-1.673-0.527-2.567C126.306,121.498,125.876,121.498,125.346,121.498z
	 M117.935,124.583c-0.478-1.104-0.831-1.919-1.192-2.753c-0.556,0.117-0.881,0.186-1.183,0.249
	C115.469,123.772,115.972,124.396,117.935,124.583z"/>
<path fill-rule="evenodd" clip-rule="evenodd" fill="#f7dad4" class="fill" d="M71.897,135.042c-0.202-0.382-0.47-0.742-0.594-1.147
	c-0.436-1.42-1.172-2.2-2.198-2.24c-0.997-0.039-2.264,0.841-2.619,2.062c-0.392,1.343-0.579,2.745-0.833,4.005
	c1.529,1.378,4.415,1.517,6.351,0.436c0.059,0.168,0.141,0.328,0.167,0.495c0.188,1.219,0.365,2.439,0.597,4.006
	c-0.632-0.777-1.07-1.317-1.456-1.791c-3.783-0.3-5.883,5.266-4.582,9.011c1.919,1.322,3.923-0.125,5.986,0.132
	c0.226-0.672,0.406-1.214,0.593-1.771c0.666,1.459,1.332,2.92,2.075,4.546c-4.316,1.197-4.275,4.934-4.755,8.462
	c-1.341-0.646-2.346-1.444-2.718-2.76c-0.914-3.229-1.769-6.477-2.61-9.727c-0.339-1.311-0.569-2.65-0.867-3.973
	c-0.813-3.608-1.635-7.215-2.437-10.742c0.77-1.868,3.187-1.267,4.073-2.769c-0.328-0.944-1-0.937-1.653-0.896
	c-1.295,0.08-2.586,0.22-3.881,0.287c-0.878,0.046-1.762,0.008-2.717,0.008c-1.065-1.052-0.89-2.267-0.412-3.672
	c2.64-0.531,5.258,0.332,7.893,0.155c2.571-0.172,5.163-0.038,7.822-0.038c0.115,0.83,0.21,1.514,0.29,2.091
	c-1.092,1.027-2.609-0.191-3.709,1.167c0.695,0.427,1.309,0.804,2.045,1.256c0.047,1.078,0.099,2.247,0.149,3.417L71.897,135.042z"
	/>
<path fill-rule="evenodd" clip-rule="evenodd" fill="#f7dad4" class="fill" d="M62.546,114.675c6.133-1.978,12.468-2.277,18.997-0.973
	c0.414,1.272,0.316,2.507-0.07,3.61c-2.385,0-4.673-0.15-6.932,0.041c-2.354,0.2-4.23,1.666-5.987,2.955
	c-0.897-0.375-1.633-0.683-2.337-0.977c-1.327,1.058-2.517,2.006-3.905,3.115c-0.704-2.029-0.742-3.998-0.979-5.913
	C61.726,115.928,62.078,115.391,62.546,114.675z"/>
<path fill-rule="evenodd" clip-rule="evenodd" fill="#f7dad4" class="fill" d="M65.221,110.359c0.91-2.46,1.511-4.974,3.936-6.363
	c0.542-0.311,1.173-0.55,1.787-0.632c1.753-0.229,3.526-0.298,5.275-0.55c1.152-0.165,2.274-0.537,3.62-0.868
	c0.562,1.021,1.266,2.044,1.714,3.17c0.759,1.905,1.215,3.958,3.102,5.222c-3.234-0.321-6.468-0.891-9.702-0.892
	C71.758,109.447,68.562,110.022,65.221,110.359z"/>
<path fill-rule="evenodd" clip-rule="evenodd" fill="#f7dad4" class="fill" d="M145.106,121.954c-0.96-3.732-4.263-4.879-6.52-7.274
	c0.485-0.042,0.733-0.143,0.896-0.066c4.33,2.086,7.612,5.169,8.957,9.91c0.796,2.807,0.729,5.601-1.001,8.151
	c-0.394,0.579-0.716,1.205-1.012,1.709c-0.876,0.443-1.374-0.02-1.812-0.503c-1.024-1.13-2.013-2.292-3.2-3.651
	c0.272-0.566,0.585-1.303,0.973-1.997c0.855-1.533,1.441-3.109,0.932-4.89c-0.095-0.332-0.289-0.634-0.434-0.945
	c-1.573-0.924-3.29-0.228-5.028-0.567c-0.308-1.335-1.967-2.054-2.038-4.014c1.132,0.615,1.961,1.066,2.79,1.517
	c0.108-0.093,0.216-0.185,0.324-0.277c-0.344-0.736-0.687-1.473-1.03-2.208c0.057-0.068,0.113-0.136,0.17-0.205
	c1.144,0.878,2.265,1.788,3.438,2.624C142.62,120.059,143.173,121.569,145.106,121.954z"/>
<path fill-rule="evenodd" clip-rule="evenodd" fill="#f7dad4" class="fill" d="M84.733,52.042c0.288,0.46,0.468,0.746,0.658,1.049
	c-0.17,0.157-0.275,0.332-0.422,0.381c-2.067,0.7-4.171,1.303-6.203,2.095c-1.858,0.725-3.653,1.619-5.451,2.491
	c-2.221,1.077-3.707,2.897-4.821,5.036c-0.819,1.571-1.609,3.159-2.348,4.769c-1.554,3.384-1.654,3.542-5.149,6.464
	c0.069-0.83,0.044-1.444,0.18-2.021c1.205-5.143,3.516-9.744,6.932-13.765c1.152-1.356,2.57-2.403,4.301-2.997
	c2.449-0.84,4.848-1.843,7.326-2.583C81.351,52.479,83.067,52.336,84.733,52.042z"/>
<path fill-rule="evenodd" clip-rule="evenodd" fill="#f7dad4" class="fill" d="M144.857,81.783c0.548-0.249,1.012-0.46,1.66-0.754
	c0.234,1.663,0.406,3.173,0.668,4.667c0.805,4.586,0.6,9.193-0.001,13.754c-0.238,1.806-1.124,3.602-2.03,5.228
	c-1.126,2.021-2.934,2.562-5.652,2.05c0.066-0.663,0.134-1.344,0.159-1.606c1.259-1.332,2.26-2.391,3.389-3.584
	c-0.949-1.498-1.844-2.913-2.839-4.485c0.934-0.064,1.676-0.112,2.417-0.167c1.046-0.077,1.755-0.587,2.114-1.596
	c0.395-1.108,0.743-2.182,0.65-3.42C145.146,88.582,145.033,85.286,144.857,81.783z"/>
<path fill-rule="evenodd" clip-rule="evenodd" fill="#f7dad4" class="fill" d="M86.544,120.304c0.032-0.56,0.057-1,0.083-1.445
	c0.273-0.065,0.447-0.163,0.598-0.135c1.331,0.256,2.65,0.569,3.986,0.791c0.936,0.156,1.961,0.553,2.777-0.522
	c-2.319-1.241-4.878-1.316-7.413-1.99c-0.101-0.662-0.2-1.32-0.326-2.149c6.27,0.869,12.292,1.668,18.081,4.217
	c-2.129,1.478-4.094,2.84-6.103,4.236c-1.382-1.473-3.189-1.773-4.965-2.072C91.122,120.873,88.96,120.632,86.544,120.304z"/>
<path fill-rule="evenodd" clip-rule="evenodd" fill="#f7dad4" class="fill" d="M128.286,117.743c-0.087-0.022-0.543-0.129-1.064-0.251
	c-0.062-0.353-0.106-0.693-0.185-1.026c-0.427-1.841,0.201-3.2,1.516-4.581c2.006-2.11,4.163-3.967,6.595-5.55
	c0.86-0.561,1.589-1.323,2.743-2.304c-0.291,3.323-0.543,6.212-0.787,9.007C134.192,114.59,131.452,116.053,128.286,117.743z"/>
<path fill-rule="evenodd" clip-rule="evenodd" fill="#f7dad4" class="fill" d="M137.066,71.428c1.165,4.38,2.019,8.702,2.008,13.142
	c-1.307,0.42-2.292,0.136-3.19-0.25c-1.23-0.532-2.37-0.72-3.521,0.332c-0.636-0.793-1.179-1.471-1.649-2.058
	C131.127,79.383,134.387,73.646,137.066,71.428z"/>
<path fill-rule="evenodd" clip-rule="evenodd" fill="#f7dad4" class="fill" d="M142.146,94.045c-0.726-0.114-1.429-0.184-2.113-0.342
	c-1.5-0.347-2.627-1.089-3.329-2.595c-0.761-1.635-1.811-3.136-2.881-4.942c2.308,0.516,4.293,2.281,6.811,0.403
	c1.371-2.419,0.263-5.421,0.539-8.423c0.309-0.195,0.683-0.431,1.29-0.814c0.264,1.87,0.603,3.536,0.713,5.213
	c0.185,2.82,0.234,5.649,0.32,8.475C143.53,92.161,143.456,93.279,142.146,94.045z"/>
<path fill-rule="evenodd" clip-rule="evenodd" fill="#f7dad4" class="fill" d="M147.675,74.998c0.83,1.742,1.739,3.332,2.365,5.027
	c1.296,3.505,2.317,7.048,1.707,10.905c-0.368,2.318,0.014,4.784-0.533,7.041c-0.704,2.902-1.998,5.662-3.042,8.482
	c-0.04,0.108-0.106,0.215-0.185,0.301c-1.842,2.045-4.164,3.363-6.756,4.653c-0.137-1.065,0.447-1.402,0.995-1.657
	c4.232-1.963,6.09-5.561,6.832-9.908c0.388-2.271,0.9-4.551,0.956-6.836c0.056-2.28-0.234-4.602-0.65-6.854
	c-0.599-3.243-1.438-6.44-2.201-9.65C147.04,75.989,146.705,75.498,147.675,74.998z"/>
<path fill-rule="evenodd" clip-rule="evenodd" fill="#f7dad4" class="fill" d="M100.375,115.644c0.864-0.455,1.465-0.771,2.105-1.107
	c0.732,0.414,1.401,0.772,2.051,1.164c1.961,1.18,4,1.294,6.084,0.41c2.048-0.869,4.074-1.793,6.114-2.685
	c0.15-0.065,0.333-0.052,0.38-0.058c0.651,1.223,1.265,2.378,2.01,3.778c-3.734,0.471-7.374,0.93-11.001,1.388
	C105.664,117.618,103.166,116.685,100.375,115.644z"/>
<path fill-rule="evenodd" clip-rule="evenodd" fill="#f7dad4" class="fill" d="M70.866,67.34c-0.952,0.437-1.839,0.843-2.895,1.328
	c1.58-5.354,4.555-9.165,9.748-10.994c2.277-0.801,4.559-1.595,6.849-2.361c0.516-0.172,1.078-0.214,1.62-0.315
	c0.035,0.122,0.069,0.243,0.104,0.364c-2.024,0.903-3.999,1.945-6.083,2.678c-4.373,1.54-7.033,4.771-9.068,8.698
	C71.062,66.894,70.995,67.059,70.866,67.34z"/>
<path fill-rule="evenodd" clip-rule="evenodd" fill="#f7dad4" class="fill" d="M56.034,98.16c2.125,0.009,3.177,1.373,4.186,3.098
	c-1.032-0.406-1.907-0.748-3.14-1.232c0.153,1.702,0.248,3.03,0.398,4.354c0.23,2.028,0.5,4.053,0.785,6.343
	c-1.502-0.564-2.279-1.382-2.664-2.526C54.52,104.978,54.153,101.505,56.034,98.16z"/>
<path fill-rule="evenodd" clip-rule="evenodd" fill="#f7dad4" class="fill" d="M87.889,56.908c-0.942,1.021-1.806,1.958-2.593,2.81
	c-1.729,0.802-3.395,1.533-5.022,2.341c-1.482,0.734-2.852,1.619-3.977,2.89c-1.107,1.252-1.254,1.227-2.923,1.02
	c1.317-1.926,2.747-3.595,4.569-4.906C79.758,59.755,86.427,56.941,87.889,56.908z"/>
<path fill-rule="evenodd" clip-rule="evenodd" fill="#f7dad4" class="fill" d="M99.129,127.805c0.145-0.743,0.253-1.298,0.405-2.08
	c3.845-0.341,7.645-0.678,11.702-1.038c0.494,0.484,1.094,1.073,1.693,1.662c-0.042,0.125-0.086,0.25-0.128,0.375
	c-2.252,0.134-4.503,0.29-6.756,0.392C103.829,127.216,101.709,128.266,99.129,127.805z"/>
<path fill-rule="evenodd" clip-rule="evenodd" fill="#f7dad4" class="fill" d="M138.307,99.685c-1.969,1.053-3.83,2.048-5.699,3.048
	c-0.113-1.78,2.158-6.18,4.057-7.679c1.664,1.754,2.852,3.814,4.059,5.861c-0.089,0.077-0.177,0.153-0.265,0.23
	C139.798,100.698,139.137,100.25,138.307,99.685z"/>
<path fill-rule="evenodd" clip-rule="evenodd" fill="#f7dad4" class="fill" d="M136.587,123.689c1.64-0.09,3.206-0.175,5-0.274
	c0.059,0.846,0.104,1.511,0.151,2.192c-1.845,1.3-3.495,2.797-6.066,2.05C135.964,126.393,136.238,125.205,136.587,123.689z"/>
<path fill-rule="evenodd" clip-rule="evenodd" fill="#f7dad4" class="fill" d="M59.322,102.593c1.15,0.847,2.212,1.631,3.163,2.331
	c0.298,1.354-0.597,1.526-1.498,1.812c0,1.778,0,3.561,0,5.374c-0.778,0.008-1.061-0.458-1.12-0.988
	c-0.297-2.677-0.547-5.36-0.81-8.042C59.053,103.031,59.11,102.978,59.322,102.593z"/>
<path fill-rule="evenodd" clip-rule="evenodd" fill="#f7dad4" class="fill" d="M93.429,85.891c2.556-0.989,6.372-0.069,7.539,1.828
	c-1.387,0.117-2.486-0.657-3.7-0.921C96.019,86.524,94.778,86.211,93.429,85.891z"/>
<path fill-rule="evenodd" clip-rule="evenodd" fill="#f7dad4" class="fill" d="M71.897,135.053c0.019,0.408,0.039,0.815,0.057,1.223
	c-0.048,0.001-0.096,0.001-0.144,0.002c0.028-0.409,0.056-0.818,0.085-1.232C71.897,135.042,71.897,135.053,71.897,135.053z"/>
</svg>
