<svg version="1.1" id="svg" xmlns="http://www.w3.org/2000/svg" xmlns:xlink="http://www.w3.org/1999/xlink" x="0px" y="0px"
	 width="200px" height="200px" viewBox="0 0 200 200" enable-background="new 0 0 200 200" xml:space="preserve">
<path class="stroke" fill="#693c11"  d="M147.463,110.336c-0.947-3.627-1.942-7.248-2.737-10.91c-0.783-3.612-1.326-7.275-2.009-10.911
	c-0.196-1.043-0.473-2.024-0.15-3.129c1.583-5.43,3.063-10.89,4.645-16.32c1.771-6.075,3.628-12.124,5.408-18.195
	c0.442-1.508,0.699-3.062,0.094-4.59c-1.388-1.411-1.528-1.455-3.384-1.082c-0.164,0.032-0.332,0.057-0.499,0.066
	c-6.657,0.362-13.312,0.86-19.974,1.038c-5.431,0.145-10.874-0.058-16.309-0.178c-2.744-0.06-5.491-0.204-8.225-0.445
	c-2.339-0.208-4.668-0.569-6.989-0.937c-3.097-0.489-6.18-1.056-9.271-1.574c-0.662-0.111-1.333-0.212-2-0.214
	c-0.412-0.002-0.826,0.194-1.2,0.291c-0.593,5.938-0.988,11.59-1.763,17.19c-0.772,5.581-1.14,11.228-2.36,16.84
	c-0.529-0.079-0.907-0.111-1.274-0.193c-2.953-0.659-5.893-1.374-8.855-1.979c-3.068-0.625-5.764,0.545-6.981,3.068
	c-1.289,2.674-2.438,5.416-3.671,8.118c-1.785,3.916-3.59,7.822-5.385,11.733c-0.396,0.863-0.794,1.724-1.169,2.596
	c-0.84,1.955-1.609,3.942-2.512,5.868c-1.659,3.544-3.392,7.053-5.069,10.523c0.091,0.313,0.133,0.535,0.219,0.74
	c0.966,2.327,1.917,4.661,2.917,6.973c1.447,3.342,2.863,6.7,4.419,9.992c1.674,3.545,3.474,7.033,5.262,10.523
	c0.816,1.594,1.627,3.209,2.634,4.683c1.317,1.928,3.065,2.43,5.259,1.701c2.655-0.882,5.292-1.822,7.937-2.737
	c1.69-0.585,3.386-1.155,5.071-1.756c2.742-0.975,5.475-1.98,8.219-2.952c3.532-1.249,7.088-2.438,10.607-3.725
	c3.681-1.347,7.317-2.815,11-4.157c1.359-0.495,2.779-1.013,4.2-1.114c3.405-0.247,6.826-0.252,10.241-0.357
	c0.335-0.01,0.676-0.008,1.007-0.06c3.939-0.622,7.888-0.863,11.885-0.688c4.698,0.207,9.404,0.214,14.097,0.967
	c1.25-0.353,1.928-1.212,2.061-2.271c-0.506-2.654-0.857-5.1-1.452-7.486C150.157,120.286,148.765,115.322,147.463,110.336z"/>
<path fill-rule="evenodd" clip-rule="evenodd" fill="#faf0e5" class="fill" d="M140.283,86.808c-2.031-0.134-3.815-0.235-5.597-0.371
	c-5.249-0.402-10.492-0.875-15.745-1.208c-4.191-0.266-8.393-0.371-12.59-0.539c-1.735-0.069-3.472-0.162-5.207-0.151
	c-0.606,0.004-1.211,0.289-1.816,0.444c0.011,0.121,0.021,0.241,0.032,0.362c0.278,0.112,0.553,0.308,0.837,0.322
	c4.082,0.209,8.166,0.379,12.247,0.591c2.91,0.151,5.821,0.305,8.725,0.538c4.579,0.366,9.152,0.807,13.729,1.199
	c1.775,0.152,3.553,0.258,5.378,0.388c0.333,1.581,0.647,2.987,0.924,4.402c0.774,3.953,1.533,7.91,2.297,11.864
	c0.054,0.275,0.075,0.558,0.143,0.829c1.471,5.861,2.962,11.716,4.412,17.583c0.617,2.497,1.162,5.014,1.708,7.529
	c0.09,0.417,0.012,0.872,0.012,1.356c-1.585,0-3.123,0.016-4.661-0.002c-4.425-0.055-8.849-0.122-13.273-0.186
	c-2.349-0.036-4.703-0.194-7.045-0.088c-4.023,0.181-8.038,0.575-12.061,0.783c-2.253,0.116-4.426,0.595-6.631,0.995
	c-2.416,0.439-4.891,0.559-7.343,0.789c-3.458,0.325-6.917,0.63-10.377,0.934c-0.605,0.054-1.214,0.062-1.97,0.097
	c-0.211-1.132-0.445-2.158-0.586-3.196c-0.422-3.109-0.924-6.215-1.181-9.34c-0.447-5.459-0.69-10.935-1.112-16.396
	c-0.159-2.055-0.467-4.114-0.909-6.126c-0.713-3.245-1.102-6.515-1.151-9.825c-0.011-0.764,0.166-1.531,0.248-2.233
	c1.038-0.428,2.249-0.18,2.756-1.641c-0.536-0.021-0.99-0.021-1.44-0.06c-0.437-0.037-0.868-0.113-1.52-0.2
	c0.205-3.544,1.485-6.82,1.865-10.24c0.385-3.453,0.737-6.908,1.133-10.359c0.396-3.449,0.891-6.888,1.227-10.343
	c0.333-3.442,0.522-6.898,0.789-10.536c2.291,0.486,4.404,0.926,6.512,1.386c2.786,0.607,5.555,1.318,8.36,1.82
	c2.032,0.362,4.11,0.477,6.171,0.665c2.061,0.188,4.123,0.388,6.189,0.475c1.729,0.072,3.465,0.017,5.196-0.034
	c5.659-0.162,11.323-0.251,16.975-0.555c4.411-0.237,8.809-0.754,13.213-1.14c0.153-0.013,0.313,0.056,0.648,0.123
	C147.214,60.822,143.814,73.89,140.283,86.808z M134.021,91.778c1.188,0.108,2.338,0.214,3.53,0.323
	c0.042-0.429,0.061-0.635,0.087-0.904c-0.817-0.071-1.584-0.138-2.374-0.206c-0.169-0.458-0.314-0.849-0.571-1.542
	c-0.802,0.74-1.436,1.325-2.166,2c-0.242-1.119-0.445-2.053-0.679-3.13c-1.511,0.731-1.188,2.315-2.073,3.219
	c-0.613-0.505-1.208-0.995-1.929-1.591c-0.724,0.452-1.456,0.91-2.199,1.373c-0.157-0.635-0.303-1.224-0.515-2.08
	c-0.731,0.644-1.217,1.073-1.841,1.624c-1.893-0.154-3.991-1.04-5.917,0.186c-0.831,0.099-1.662,0.197-2.569,0.305
	c-0.208-0.81-0.435-1.695-0.639-2.485c-1.469-0.519-2.022,0.372-2.629,1.193c-0.398,0.537-0.496,1.339-1.267,1.619
	c-0.707-1.339-0.702-2.939-1.957-3.839c-1.515,0.35-1.452,2.004-2.482,2.708c-0.397-0.293-0.785-0.578-1.199-0.883
	c-1.394,0.312-1.635,1.856-2.81,2.449c-2.42-0.303-4.913-0.613-7.406-0.927c-2.32-0.292-4.639-0.752-7,0.026
	c-0.396-0.377-0.789-0.75-1.242-1.18c-0.291,0.222-0.527,0.401-0.869,0.66c0.48,0.647,0.897,1.211,1.428,1.927
	c1.493-1.005,3.038-0.863,4.605-0.642c1.487,0.21,2.986,0.339,4.479,0.517c1.722,0.207,3.442,0.429,5.163,0.64
	c0.381,0.048,0.763,0.083,1.218,0.132c0.642-0.705,1.27-1.396,1.893-2.081c0.605,0.316,1.137,0.596,1.819,0.953
	c0.667-0.828,1.306-1.621,1.953-2.425c1.057,0.96,0.438,2.717,1.85,3.333c2.005-0.08,1.945-2.371,3.308-3.271
	c0.248,1.087,0.45,1.972,0.687,3.006c0.901-0.328,1.558-0.566,2.291-0.833c0.235,0.666,0.441,1.251,0.641,1.812
	c1.314-0.164,1.238-1.328,1.971-2.199c0.435-0.041,1.106-0.259,1.704-0.133c1.71,0.361,3.39,0.863,5.108,1.316
	c0.674-0.519,1.322-1.018,2.088-1.608c0.687,0.853,1.284,1.592,1.914,2.374c0.676-0.404,1.186-0.708,1.493-0.891
	c0.352,0.441,0.616,0.773,1.004,1.262C132.802,93.003,133.373,92.43,134.021,91.778z M122.794,98.499c-1.004,0-1.927,0-2.802,0
	c-0.141-0.5-0.251-0.891-0.375-1.333c-1.508,0.573-0.93,2.357-2.15,3.062c-0.456-0.117-0.986-0.254-1.457-0.375
	c-0.782,0.167-1.304,1.138-2.309,0.446c0.179-0.691,0.365-1.412,0.55-2.128c-0.904-0.346-1.707-0.654-2.685-1.029
	c-0.369,1.619-1.166,2.782-3.171,3.355c0.479-1.044,0.806-1.755,1.16-2.53c-1.453-0.332-1.629,1.294-2.703,1.359
	c-0.278-0.601-0.546-1.182-0.857-1.855c-0.628,0.322-1.114,0.571-1.579,0.81c-0.164,0.477-0.305,0.886-0.387,1.125
	c-0.956,0.389-1.747,0.711-2.621,1.067c0.236-1.096,0.444-2.057,0.666-3.078c-1.141-0.373-2.112-1.104-3.303-0.183
	c-0.075,1.06-0.153,2.146-0.227,3.169c-2.031,0.529-2.031,0.529-2.979-0.009c0.219-0.609,0.439-1.221,0.736-2.043
	c-1.197-0.114-2.221-0.213-3.338-0.32c-0.549,0.603-1.103,1.208-1.77,1.938c-0.789-0.552-1.547-1.082-2.264-1.584
	c-1.919,0.073-1.919,0.073-2.856,0.753c1.027,0.167,1.924,0.175,2.708,0.48c0.859,0.334,1.613,0.941,2.589,1.538
	c0.69-0.709,1.292-1.328,1.925-1.977c0.457,0,0.98,0,1.693,0c-0.377,0.673-0.658,1.176-0.995,1.778
	c1.826,1.375,3.615,0.407,5.438,0.234c0.849,0.551,1.718,0.353,2.631-0.101c0.627-0.312,1.343-0.438,2.005-0.685
	c0.354-0.132,0.675-0.354,1.021-0.515c0.078-0.036,0.196,0.011,0.269,0.018c0.289,0.417,0.568,0.819,0.772,1.112
	c0.856,0.065,1.574,0.252,2.238,0.135c0.736-0.129,1.481-0.446,2.113-0.852c0.497-0.319,0.791-0.941,1.252-1.338
	c0.219-0.189,0.62-0.167,1.057-0.268c-0.147,0.889-0.253,1.535-0.398,2.416c0.668,0.128,1.234,0.343,1.789,0.32
	c1.145-0.045,2.283-0.217,3.424-0.337c0.067,0.124,0.135,0.248,0.203,0.372c0.393-0.547,0.786-1.094,1.052-1.464
	c0.991-0.311,1.731-0.542,2.47-0.773c0.225,0.497,0.424,0.937,0.661,1.462c0.911,0,1.787,0,2.818,0
	c0.272-0.172,0.69-0.438,1.169-0.739c0.753,0.144,1.517,0.289,2.417,0.46c0.884-0.509,1.871-0.441,2.922,0.028
	c1.263,0.565,2.623,0.521,3.97,0.302c1.146-0.187,2.294-0.379,3.433-0.611c0.31-0.062,0.59-0.272,1.16-0.55
	c-1.355-0.68-2.454-0.418-3.38-0.115c-1.988,0.653-3.838,0.644-5.466-0.383c-1.971,0-3.749,0-5.648,0
	c-0.61,0.464-1.36,0.918-2.365,0.637C122.955,99.358,122.894,99.035,122.794,98.499z M94.623,82.581
	c2.031-0.07,3.98-0.13,5.93-0.208c0.39-0.016,0.784-0.062,1.165-0.147c1.72-0.384,3.421-0.514,5.429,0.525
	c0.421-0.543,0.889-1.147,1.39-1.793c0.244,0.387,0.474,0.754,0.587,0.935c2.002-0.28,2.981-2.198,4.941-1.897
	c0.327,0.939,0.646,1.853,1.014,2.909c0.444-0.327,0.699-0.515,0.961-0.708c-0.032-1.484-0.081-2.949,1.51-3.779
	c1.32,1.365-0.596,2.729,0.268,4.212c1.434,0.909,2.815-0.438,4.253-0.559c0.303,0.554,0.575,1.05,0.82,1.498
	c1.735-0.557,1.511-2.258,2.522-3.209c0,0.437,0,0.873,0,1.276c1.054,0.689,1.944,0.248,2.405,0.091
	c1.676,0.23,2.939,0.543,4.204,0.546c2.062,0.004,4.123-0.2,6.185-0.305c0.527-0.027,1.023-0.061,1.066-0.84
	c-1.701-0.366-3.401-0.642-5.113-0.105c-1.917,0.602-3.741,0.516-5.375-0.677c-0.65,0.274-1.206,0.509-1.886,0.795
	c-0.045-0.521-0.081-0.931-0.12-1.374c-0.636-0.403-1.236-0.785-1.769-1.123c-1.365,0.496-0.645,1.961-1.296,2.428
	c-1.704,0.347-3.183,0.65-4.974,1.016c0.143-0.85,0.197-1.375,0.322-1.883c0.365-1.485,0.241-1.833-1.081-2.791
	c-1.329,0.014-2.013,1.048-2.814,1.875c-2.009-0.857-3.262,0.837-4.973,1.362c0-0.648,0-1.229,0-1.949
	c-1.993-0.174-2.231,1.687-3.128,2.435c-1.571,0-3.126-0.34-4.443,0.075c-2.387,0.753-4.782-0.125-6.977,0.59
	c-0.447-0.608-0.771-1.048-1.146-1.558c-1.052,0.711-1.807,1.223-2.818,1.907c-0.266-1.062-0.48-1.918-0.707-2.827
	c-1.33,0.073-1.529,1.486-2.457,1.896c-0.802-0.564-1.562-1.166-2.607-0.384c0.866,0.688,1.663,1.324,2.504,1.994
	c0.601-0.667,1.074-1.191,1.627-1.803c0.231,0.568,0.409,1.007,0.629,1.548c0.577,0.093,1.161,0.187,1.662,0.267
	c0.57-0.514,1.019-0.918,1.484-1.338C94.127,81.919,94.39,82.271,94.623,82.581z M98.726,107.305
	c-0.99-0.571-1.604,0.406-2.318,0.899c-0.305-0.397-0.526-0.688-0.921-1.204c-0.558,0.958-1.014,1.742-1.472,2.528
	c-1.289-0.051-1.751-1.102-2.396-1.939c-0.524,0-1.016,0-1.507,0c-0.289-0.395-0.55-0.751-0.703-0.961
	c-1.698,0.118-2.551,0.646-3.237,2.102c0.906-0.453,1.559-0.779,2.266-1.133c0.295,0.568,0.567,1.092,0.87,1.676
	c0.595-0.24,1.083-0.437,1.676-0.676c0.439,1.683,1.999,1.63,2.87,2.164c0.977-0.383,1.728-0.676,2.585-1.012
	c0.447-0.495,0.979-1.082,1.6-1.766c0.3,0.724,0.509,1.229,0.771,1.862c0.703,0.194,1.443,0.549,2.191,0.57
	c1.604,0.045,3.211-0.083,5.08-0.149c0.291-0.324,0.768-0.854,1.191-1.325c0.991,0.42,1.934,0.82,2.886,1.224
	c0.711-0.851,1.263-1.51,2.083-2.492c0.597,0.937,1.099,1.723,1.601,2.51c0.122-0.092,0.244-0.184,0.365-0.274
	c0.679-0.477,1.358-0.954,2.179-1.53c1.35,0.261,2.757,0.542,4.167,0.804c0.824,0.152,1.654,0.396,2.48,0.389
	c2.604-0.022,5.206-0.143,7.809-0.226c0.081,0.13,0.163,0.26,0.244,0.39c0.442-0.656,0.883-1.312,1.134-1.686
	c2.613,0,4.839,0,7.186,0c0.096-0.164,0.251-0.427,0.541-0.917c-2.535-0.103-4.846-0.197-7.157-0.292
	c-0.106-0.163-0.213-0.324-0.32-0.487c-0.458,0.775-0.916,1.549-1.188,2.009c-2.112,0-3.747-0.162-5.335,0.042
	c-1.836,0.235-3.52-0.077-5.268-0.554c-1.972-0.538-4.036-1.122-5.909,0.407c-0.066,0.054-0.214,0.006-0.147,0.006
	c-0.955-0.595-1.782-1.112-2.735-1.706c-0.687,0.901-1.243,1.629-1.704,2.232c-1.914,0.188-1.224-2.109-2.828-2.415
	c-0.503,0.941-1.037,1.937-1.524,2.846c-1.779,0-3.443,0-5.479,0C100.002,108.812,99.443,108.152,98.726,107.305z M91.354,73.02
	c-1.248,0.681-1.652,2.352-3.258,2.562c-0.606-1.574,0.747-2.385,1.267-3.572c-1.204-0.354-1.494,0.646-1.917,1.247
	c-0.616,0.874-1.08,1.855-0.28,2.96c2.066,0.512,2.731-1.421,4.116-2.339c0.377,0.042,0.854,0.094,1.229,0.135
	c0.229,0.931,0.423,1.716,0.618,2.508c1.761,0.202,2.225-1.406,3.323-1.927c0.364,0.444,0.71,0.867,0.992,1.21
	c1.464,0.332,2.027-0.926,2.951-1.447c0.265,0.353,0.485,0.647,0.589,0.786c5.154-0.068,10.117-0.684,15.172-0.229
	c0.421-0.239,0.895-0.509,1.343-0.764c0.436,0.375,0.805,0.694,1.192,1.029c0.648-0.326,1.236-0.621,1.811-0.909
	c0.393,0.338,0.727,0.624,1.139,0.977c1.361-0.308,2.701-0.174,4.034,0.412c1.051,0.462,2.083,0.23,2.952-0.594
	c0.36-0.343,0.779-0.625,1.246-0.994c0.434,0.225,0.861,0.445,1.49,0.771c-0.413,0.805-0.768,1.499-1.124,2.193
	c0.728,0.692,1.505,0.396,2.18,0.02c0.729-0.405,1.382-0.954,2.03-1.486c0.595-0.488,1.139-1.039,1.696-1.556
	c0.783,0.403,1.404,1.28,2.466,0.549c-0.681-0.979-1.581-1.348-2.509-1.646c-1.584,0.669-1.847,2.777-3.69,3.097
	c0.043-0.647,0.086-1.279,0.131-1.943c-1.04-0.456-1.945-0.853-2.961-1.298c-0.664,0.745-1.281,1.439-1.927,2.163
	c-1.75-0.35-3.462-0.692-5.255-1.051c-0.323-0.358-0.716-0.794-1.155-1.28c-0.744,0.452-1.349,0.817-1.938,1.175
	c-0.383-0.313-0.718-0.589-1.15-0.943c-0.742,0.405-1.466,0.797-2.188,1.189c-2.403-0.208-4.781-0.097-7.159-0.081
	c-1.777,0.014-3.545,0.621-5.341,0.053c-0.396-0.125-0.878,0.024-1.235,0.042c-0.354-0.487-0.672-0.925-1.085-1.494
	c-1.135,0.954-1.943,1.634-2.773,2.331c-0.413-0.733-0.727-1.292-1.151-2.046c-1.091,0.89-2.042,1.665-3.13,2.553
	c-0.105-0.851-0.179-1.441-0.256-2.062C92.934,73.212,92.119,73.112,91.354,73.02z M127.108,124.964
	c-0.728-0.628-0.458-1.243-0.046-1.808c0.329-0.45,0.734-0.847,1.12-1.252c0.566-0.592,0.709-1.218,0.187-2.062
	c-0.363,0.219-0.783,0.338-0.973,0.614c-0.533,0.78-1.071,1.584-1.43,2.452c-0.828,2-2.419,3.237-4.244,4.087
	c-1.927,0.896-3.474-0.184-3.623-2.289c-0.039-0.557-0.006-1.118-0.006-1.782c0.531-1.134,1.05-2.442,2.925-2.469
	c-0.527,1.602-1.621,3.117,0.002,4.489c2.026,0.024,3.886-2.102,4.52-5.125c-0.226-0.121-0.468-0.363-0.705-0.359
	c-1.506,0.024-3.016,0.043-4.514,0.183c-1.278,0.118-2.128,0.961-2.693,2.053c-0.601,1.162-0.896,2.41-0.797,3.733
	c0.138,1.861,1.433,3.088,3.259,2.752c1.11-0.204,2.174-0.819,3.177-1.391c0.713-0.406,1.29-1.05,1.915-1.578
	c1.514,1.203,1.514,1.203,4.142-1.094c0.468,0.147,0.935,0.295,1.389,0.438c0.707-0.308,1.363-0.594,1.966-0.857
	c1.042,0.566,2.005,1.087,3.144,1.705c0-0.603,0-1.048,0-1.52c-1.026-0.534-1.989-1.035-2.865-1.492
	c-0.682,0.458-1.178,0.789-1.758,1.178c-0.26-0.583-0.468-1.052-0.72-1.62C129.026,122.697,128.673,124.53,127.108,124.964z
	 M103.637,115.427c-0.567,0.406-1.01,0.722-1.387,0.99c-0.612-1.279-1.222-2.552-1.877-3.921c-2.104,1.012-1.719,3.335-2.955,4.685
	c-0.491-0.538-0.891-0.978-1.241-1.362c-2.142,0.28-4.165,0.672-6.124-0.454c-0.304,0.12-0.636,0.25-0.996,0.392
	c0-0.608,0-1.132,0-1.691c-1.252,0.529-1.672,2.46-0.831,4.084c0.572-0.455,1.112-0.884,1.703-1.355
	c0.82,0.167,1.688,0.345,2.636,0.539c0.41-0.087,0.896-0.232,1.393-0.285c0.495-0.052,0.998-0.011,1.345-0.011
	c0.739,0.633,1.384,1.187,2,1.714c1.566-1.134,1.507-2.893,2.328-4.253c1.68,0.973,0.568,2.994,1.66,4.246
	c0.458-0.316,0.845-0.526,1.159-0.814c0.312-0.287,0.552-0.654,0.801-0.958c2.756,1.016,3.117,1.027,4.122,0.013
	c-0.896-0.159-1.691-0.3-2.419-0.428C104.517,116.182,104.14,115.858,103.637,115.427z M136.812,61.947
	c-0.424-0.252-0.793-0.473-1.185-0.706c-0.489,0.348-0.92,0.654-1.367,0.973c-0.288-0.696-0.536-1.298-0.739-1.79
	c-1.188-0.452-1.433,0.349-1.738,0.983c-0.369,0.77-0.648,1.592-1.625,2.235c0-1.17,0-2.087,0-3.042
	c-1.598-0.496-2.365,0.831-3.442,1.409c-0.337-0.432-0.634-0.813-1.062-1.361c-0.79,0.645-1.969,0.186-2.639,1.196
	c0.341,1.288,1.271,0.768,1.914,0.688c0.497,0.35,0.897,0.631,1.36,0.956c0.783-0.462,1.516-0.896,2.308-1.363
	c0.33,1.202-0.293,2.775,1.764,3.049c0.655-0.653,1.384-1.379,2.098-2.091c0.291,0.396,0.566,0.773,0.768,1.049
	c1.338,0.162,1.704-1.009,2.428-1.342c1.144-0.18,2.27,0.438,3.309-0.381C138.356,61.537,137.588,61.98,136.812,61.947z
	 M116.219,59.864c1.725,1.267,2.887-0.089,4.212-0.693c0.443,0.113,0.918,0.234,1.436,0.366c0.644-0.343,1.279-0.682,1.954-1.042
	c0.73,0.715,1.561,0.846,2.493,0.493c0.31-0.117,0.655-0.209,0.981-0.2c1.834,0.049,3.668,0.161,5.503,0.189
	c0.748,0.012,1.498-0.132,2.144-0.699c-3.038-0.49-6.095-0.117-9.241-0.445c-0.8-0.957-0.898-0.975-2.081-0.335
	c-0.456,0.247-0.923,0.474-1.471,0.754c-0.142-0.45-0.22-0.654-0.269-0.866c-0.06-0.258-0.094-0.522-0.137-0.766
	c-1.001-0.216-1.224,0.438-1.485,1.076c-0.415,1.014-1.142,1.59-2.362,1.601c-0.142-1.511,1.377-2.078,1.848-3.223
	c-1.124-0.227-1.141-0.246-1.737,0.292C116.979,57.29,116.369,58.431,116.219,59.864z M91.15,69.373
	c1.077,0.075,2.009,0.141,2.942,0.207c0.705,0.061,1.332,1.048,2.28,0.05c-0.495-0.379-0.919-0.705-1.255-0.963
	c-0.808,0.105-1.462,0.191-2.009,0.263c-0.5-0.42-0.874-0.735-1.129-0.949c-0.95,0.365-1.766,0.654-2.56,0.991
	c-0.651,0.276-1.192,0.652-0.784,1.463C89.935,70.889,90.494,69.818,91.15,69.373z M138.84,122.562
	c-1.056,0.739-1.229,1.122-0.9,1.994c0.118,0.31,0.44,0.543,0.819,0.987c0.345-0.321,0.57-0.531,0.765-0.713
	C139.265,123.971,139.079,123.355,138.84,122.562z M144,122.949c-1.033,0.314-2.033-0.34-2.629,1.166
	C142.383,124.04,143.289,124.37,144,122.949z"/>
<path fill-rule="evenodd" clip-rule="evenodd" fill="#faf0e5" class="fill" d="M49.126,118.493c9.766,1.866,19.189,3.666,28.892,5.52
	c-0.848,1.456-1.514,2.723-2.292,3.916c-3.369,5.16-6.782,10.291-10.15,15.451c-0.58,0.889-1.021,1.868-1.532,2.802
	c-0.258,0.473-0.529,0.94-0.947,1.68c-0.692-0.986-1.327-1.697-1.744-2.521c-1.845-3.645-3.719-7.279-5.407-10.997
	c-1.99-4.384-3.799-8.851-5.689-13.281C49.938,120.318,49.605,119.58,49.126,118.493z"/>
<path fill-rule="evenodd" clip-rule="evenodd" fill="#faf0e5" class="fill" d="M60.152,99.751c-0.457,1.675,0.574,2.594,0.955,3.689
	c0.403,1.164,0.838,2.318,1.293,3.463c0.455,1.142,0.952,2.267,1.508,3.585c-1.314,0.603-2.557,1.172-4.009,1.838
	c-0.768-1.848-1.714-3.537-2.007-5.226c0.386-1.375,0.699-2.497,1.12-4.002c-1.507,1.283-1.887,2.796-2.52,3.919
	c0.818,1.925,1.572,3.699,2.397,5.64c-1.207,0.51-2.313,0.977-3.356,1.417c-1.224-0.732-0.281-1.663-0.321-2.606
	c-1.772,0.829-2.157,2.395-2.636,3.907c-1.146,0.516-2.292,1.032-3.811,1.714c0.183-0.781,0.203-1.208,0.375-1.559
	c2.127-4.32,4.375-8.584,6.391-12.955c1.497-3.248,2.697-6.631,4.036-9.953c0.356-0.884,0.714-1.767,1.104-2.636
	c1.353-3.013,2.68-6.039,4.106-9.017c0.452-0.945,1.102-1.828,1.803-2.612c0.999-1.116,2.394-1.607,3.821-1.308
	c3.177,0.667,6.317,1.512,9.468,2.295c0.15,0.038,0.274,0.182,0.563,0.383c-0.127,0.896-0.263,1.858-0.422,2.989
	c-2.298-0.573-4.398-1.111-6.505-1.616c-0.758-0.182-1.531-0.337-2.306-0.416c-2.377-0.241-4.092,0.559-5.029,2.943
	c-1.595,4.06-3.339,8.062-4.988,12.101c-0.172,0.421-0.129,0.932-0.207,1.579c1.298-0.421,1.199-1.642,1.951-2.37
	c1.53,4.074,2.869,8.129,4.568,12.026c1.713,3.929,3.783,7.702,5.752,11.652c-1.607,0.283-3.114,0.053-4.721-0.318
	c-0.913-1.891-1.922-3.766-2.737-5.72c-1.314-3.153-2.486-6.364-3.749-9.538C61.616,101.972,61.241,100.856,60.152,99.751z"/>
<path fill-rule="evenodd" clip-rule="evenodd" fill="#faf0e5" class="fill" d="M79.769,125.822c0.122,4.459,0.244,8.919,0.37,13.548
	c0.46,0.189,0.899,0.526,1.335,0.52c1.169-0.012,2.343-0.127,3.505-0.283c2.594-0.35,5.18-0.755,7.773-1.116
	c0.321-0.045,0.66,0.036,1.08,0.352c-3.123,1.198-6.241,2.407-9.368,3.593c-3.193,1.211-6.365,2.482-9.599,3.575
	c-3.193,1.079-6.26,2.629-9.982,3.079c0.36-0.909,0.581-1.526,0.847-2.123c1.342-3.035,3.226-5.748,5.057-8.492
	c2.579-3.865,5.131-7.745,7.707-11.611c0.273-0.409,0.624-0.768,0.939-1.148C79.544,125.75,79.657,125.786,79.769,125.822z"/>
<path fill-rule="evenodd" clip-rule="evenodd" fill="#faf0e5" class="fill" d="M69.55,109.146c0.693-0.565,1.106-0.902,1.72-1.402
	c-0.824,0-1.364,0-1.996,0c-2.962-4.294-3.693-9.578-5.906-14.45c0.615-1.547,1.305-3.286,1.995-5.025
	c0.117,0.007,0.234,0.014,0.353,0.021c0.778,2.146,1.525,4.303,2.342,6.434c1.383,3.609,2.65,7.274,4.27,10.774
	c1.289,2.786,3.059,5.347,4.566,8.035c0.842,1.502,1.583,3.059,2.424,4.699c-0.755,0.485-1.353,0.87-2.011,1.292
	c-0.766-0.156-1.523-0.31-2.454-0.499C73.104,115.768,71.34,112.48,69.55,109.146z"/>
<path fill-rule="evenodd" clip-rule="evenodd" fill="#faf0e5" class="fill" d="M77.205,104.434c-0.772,0.4-1.471,0.763-2.169,1.125
	c0.05,0.143,0.099,0.286,0.149,0.429c0.893-0.138,1.786-0.275,2.766-0.425c0.986,1.708,2.077,3.352,1.812,5.557
	c-0.177,1.481-0.033,3.004-0.033,4.67c-6.348-9.139-10.367-19.174-13.5-29.689c0.691-1.198,1.372-2.376,2.12-3.671
	C71.364,89.92,74.271,97.145,77.205,104.434z"/>
<path fill-rule="evenodd" clip-rule="evenodd" fill="#faf0e5" class="fill" d="M69.853,81.933c1.548-0.303,1.991-0.225,3.395,0.515
	c1.891,4.458,3.719,8.714,5.489,12.993c0.288,0.699,0.387,1.497,0.459,2.26c0.146,1.559,0.238,3.124,0.307,4.688
	c0.025,0.579,0.179,1.287-0.682,1.485C77.163,102.434,69.989,84.871,69.853,81.933z"/>
<path fill-rule="evenodd" clip-rule="evenodd" fill="#faf0e5" class="fill" d="M64.082,111.233c1.076,2.406,2.043,4.571,3.137,7.017
	c-1.641-0.168-3.024-0.31-4.518-0.462c-0.783-1.448-1.536-2.84-2.369-4.38C61.675,112.629,62.806,111.973,64.082,111.233z"/>
<path fill-rule="evenodd" clip-rule="evenodd" fill="#faf0e5" class="fill" d="M78.612,92.018c-1.228-2.953-2.996-5.666-3.819-9.089
	c1.753,0.183,3.269,0.576,4.83,1.176c-0.188,2.629-0.372,5.203-0.556,7.778C78.916,91.927,78.764,91.972,78.612,92.018z"/>
<path fill-rule="evenodd" clip-rule="evenodd" fill="#faf0e5" class="fill" d="M56.805,117.347c-0.367-0.602-0.73-1.195-1.074-1.759
	c0.988-0.94,1.81-1.344,3.636-1.794c0.599,1.21,1.215,2.455,1.901,3.844c-0.566,0.03-0.896,0.087-1.216,0.059
	C59.002,117.6,57.955,117.473,56.805,117.347z"/>
<path fill-rule="evenodd" clip-rule="evenodd" fill="#faf0e5" class="fill" d="M54.974,117.14c-0.995,0-1.755,0-2.517,0
	c-0.036-0.097-0.072-0.194-0.107-0.292c0.689-0.355,1.377-0.711,2.303-1.188C54.782,116.256,54.87,116.661,54.974,117.14z"/>
<path fill-rule="evenodd" clip-rule="evenodd" fill="#faf0e5" class="fill" d="M100.479,97.656c0.336,1.609,0.333,1.625-0.732,2.669
	C99.92,99.374,99.384,98.39,100.479,97.656z"/>
<path fill-rule="evenodd" clip-rule="evenodd" fill="#faf0e5" class="fill" d="M123.017,120.239c0.471,0.038,0.954,0.077,1.562,0.126
	c-0.45,1.534-1.055,2.792-2.194,3.737C120.863,123.052,121.018,121.997,123.017,120.239z"/>
</svg>
