<svg version="1.1" id="svg" xmlns="http://www.w3.org/2000/svg" xmlns:xlink="http://www.w3.org/1999/xlink" x="0px" y="0px"
	 width="200px" height="200px" viewBox="0 0 200 200" enable-background="new 0 0 200 200" xml:space="preserve">
<path class="stroke" fill="#492208"  fill-rule="evenodd" clip-rule="evenodd" d="M62.484,67.936c3.685-3.706,7.644-6.715,11.919-8.717
	c1.423-2.591,2.53-5.019,4.004-7.199c2.828-4.186,6.034-8.137,11.014-9.842c3.083-1.055,6.324-1.891,9.555-2.218
	c3.116-0.315,6.319-0.115,9.453,0.557c4.295,0.92,8.272,2.443,11.589,5.431c1.45,1.307,3.018,2.492,4.399,3.866
	c2.354,2.34,3.577,5.329,4.515,8.453c0.212,0.708,0.532,1.382,0.654,1.697c5.235,3.682,9.764,7.529,13.234,12.087
	c3.249,1.271,6.408,2.145,9.209,3.674c6.399,3.495,10.832,8.544,11.272,16.261c0.033,0.576,0.065,1.152,0.117,1.726
	c0.168,1.838,0.274,3.619-0.354,5.46c-0.604,1.777-0.645,3.741-1.158,5.561c-0.924,3.276-2.281,6.356-4.15,9.252
	c-1.476,2.289-2.963,4.502-4.978,6.357c-2.623,2.414-5.569,4.256-8.937,5.428c-0.375,0.131-0.714,0.365-1.157,0.598
	c-2.882,5.864-8.106,9.521-13.104,13.062c-1.102,3.586-2.083,6.912-3.967,9.86c-3.362,5.256-7.716,9.005-14.156,10.083
	c-5.44,0.911-10.891,1.33-16.355,0.944c-4.585-0.323-9.194-0.968-13.498-2.717c-4.442-1.806-7.537-5.09-9.095-9.632
	c-0.855-2.492-1.359-5.105-2.012-7.665c-0.127-0.501-0.213-1.011-0.282-1.344c-1.74-1.936-3.61-3.406-5.611-4.778
	c-1.341-0.921-2.403-2.294-3.45-3.58c-0.619-0.76-1.237-1.222-2.218-1.444c-3.477-0.791-6.934-1.601-10.141-3.318
	c-3.422-1.835-6.146-4.292-7.879-7.753c-1.97-3.938-3.549-8.043-3.717-12.493c-0.115-3.043,0.273-6.103,0.193-9.148
	c-0.1-3.763,1.471-7.079,2.663-10.451c0.747-2.112,2.348-3.934,3.629-5.842c1.304-1.941,3.055-3.365,5.1-4.535
	c1.642-0.938,3.101-2.198,4.62-3.344C56.19,70.171,59.064,68.269,62.484,67.936z M101.509,122.711
	c5.309-0.188,10.045-0.673,14.584-2.763c4.419-2.034,7.866-4.977,10.198-9.173c1.412-2.538,1.934-5.417,2.376-8.263
	c0.52-3.354-0.051-6.659-0.688-9.948c-0.545-2.811-1.407-5.508-3.32-7.687c-1.857-2.114-3.766-4.211-5.864-6.075
	c-1.803-1.602-3.944-2.749-6.351-3.372c-3.797-0.982-7.641-1.062-11.496-0.729c-1.938,0.167-3.879,0.544-5.764,1.04
	c-4.211,1.108-7.76,3.438-11.006,6.282c-2.101,1.841-3.958,3.948-5.236,6.378c-1.914,3.641-2.996,7.597-3.089,11.767
	c-0.019,0.861-0.253,1.741-0.14,2.577c0.269,1.976,0.538,3.976,1.099,5.88c0.381,1.297,1.213,2.474,1.92,3.66
	c2.765,4.644,6.696,7.739,11.927,9.302C94.386,122.698,98.209,122.24,101.509,122.711z M57.998,76.03
	c-2.917,1.103-5.167,2.693-6.886,5.023c-0.478,0.647-1,1.262-1.503,1.89c-2.783,3.468-4.669,7.359-5.635,11.71
	c-0.701,3.156-0.355,6.318-0.121,9.471c0.183,2.465,0.36,4.944,1.211,7.313c1.666,4.636,4.4,8.33,9.033,10.369
	c0.419,0.184,0.891,0.252,1.68,0.467c-1.907-3.822-2.56-7.566-3.089-11.334c-0.595-4.235-0.817-8.498-0.245-12.746
	c0.384-2.85,0.993-5.671,1.529-8.5c0.839-4.424,1.878-8.791,3.887-12.863C57.929,76.686,57.919,76.501,57.998,76.03z
	 M120.865,56.626c-0.657-2.002-1.592-3.54-2.945-4.807c-0.966-0.906-2.016-1.721-3.007-2.601c-1.225-1.09-2.604-1.902-4.185-2.344
	c-1.831-0.512-3.657-1.045-5.507-1.477c-6.792-1.585-12.657,0.293-17.556,5.084c-1.735,1.696-3.344,3.636-4.066,6.211
	c0.297,0.017,0.532,0.094,0.719,0.03c3.086-1.042,6.311-1.251,9.507-1.686c5.456-0.742,10.937-0.803,16.393-0.473
	c3.125,0.189,6.201,1.166,9.3,1.789C119.886,56.428,120.254,56.502,120.865,56.626z M77.88,144.208
	c0.427,0.901,0.617,1.381,0.875,1.821c0.231,0.395,0.533,0.75,0.815,1.114c2.722,3.514,6.389,5.402,10.71,6.032
	c4.27,0.623,8.544,1.15,12.885,1.189c2.268,0.021,4.479-0.122,6.659-0.63c3.578-0.835,6.162-3.232,8.604-5.788
	c0.717-0.75,1.323-1.609,2.011-2.457C106.146,148.695,92.135,149.354,77.88,144.208z M147.053,80.205
	c0.246,0.616,0.427,1.022,0.575,1.441c0.927,2.593,2.316,5.132,2.64,7.799c0.339,2.815,0.827,5.65,0.708,8.574
	c-0.166,4.053-0.527,8.044-1.454,11.976c-0.727,3.084-1.629,6.123-3.427,8.802c-0.202,0.299-0.347,0.637-0.518,0.958
	c2.649-1.014,4.849-2.442,6.344-4.839c3.953-6.337,6.024-13.153,5.414-20.671c-0.306-3.772-1.004-7.424-3.58-10.425
	C152.065,81.853,150.146,80.296,147.053,80.205z"/>
<path fill-rule="evenodd" clip-rule="evenodd" fill="#f4751a" class="fill" d="M83.598,137.303c0-1.526,0-2.81,0-4.286
	c-1.504,0.887-1.379,2.377-1.956,3.622c-0.357-0.043-0.719-0.087-1.253-0.151c0.088-1.382,0.17-2.676,0.258-4.054
	c-1.73,0.192-1.333,1.86-2.126,2.829c-1.636-1.217,0.198-2.881-0.677-4.152c-1.273,0.164-1.015,1.601-1.785,2.319
	c-1.122-0.997,0.222-2.189-0.373-3.241c-1.107-0.17-1.083,1.17-1.982,1.54c-0.402-0.323-0.872-0.699-1.422-1.141
	c-1.691-0.241-2.432,1.468-3.966,2.104c-1.392-1.261-2.862-2.594-4.392-3.979c0.631-1.217,1.205-2.324,1.788-3.448
	c-0.313-0.491-0.586-0.922-0.798-1.254c0.146-1.08,0.279-2.063,0.412-3.046c-0.126-0.059-0.254-0.117-0.38-0.175
	c-0.476,0.414-0.952,0.829-1.455,1.268c-1.02-1.025,0.411-2.017-0.225-3.181c-0.554,0.307-1.109,0.615-1.78,0.985
	c-0.282-0.265-0.645-0.605-0.896-0.842c0.229-1.117,0.428-2.091,0.626-3.064c-0.127-0.071-0.253-0.143-0.38-0.214
	c-0.536,0.448-1.071,0.895-1.604,1.34c-1.539-0.914,0.016-2.223-0.392-3.372c-0.526,0.026-1.017,0.05-1.771,0.088
	c0.154-0.982,0.289-1.838,0.44-2.808c-0.426-0.095-0.833-0.186-1.201-0.266c-1.208-1.525,1.471-2.083,0.825-3.585
	c-0.485,0.279-0.917,0.526-1.739,0.996c0.376-1.113,0.633-1.877,0.927-2.75c-0.353-0.1-0.7-0.199-1.108-0.314
	c-0.028-0.384-0.057-0.78-0.078-1.071c0.462-0.792,0.871-1.495,1.452-2.492c1.835-0.567,4.137-0.844,6.432-0.696
	c3.375,0.219,6.736,0.663,10.253,1.027c0.154,1.324,0.291,2.504,0.474,4.083c-0.444,0.281-1.016,0.64-1.589,1.001
	c0.066,0.126,0.133,0.253,0.199,0.379c0.495-0.059,0.988-0.119,1.57-0.188c0.115,0.286,0.238,0.591,0.325,0.804
	c-0.145,0.863-1.556,0.998-0.899,2.182c0.438-0.204,0.878-0.408,1.445-0.672c0.229,0.471,0.441,0.905,0.644,1.318
	c-0.554,0.925-1.729,1.437-1.308,2.949c0.635-0.608,1.144-1.096,1.753-1.68c0.322,0.373,0.598,0.692,0.809,0.938
	c-0.231,1.225-1.888,1.58-1.442,3.271c0.753-0.711,1.354-1.278,2.036-1.921c0.353,0.408,0.68,0.787,1.002,1.159
	c-0.22,1.097-1.41,1.773-1.104,3.415c0.717-0.847,1.206-1.426,1.885-2.229c0.335,0.604,0.659,1.187,0.984,1.771
	c0.097-0.087,0.193-0.174,0.291-0.263c-0.294,0.657-0.588,1.313-0.924,2.064c1.014-0.144,1.014-0.144,1.838-1.087
	c0.42,0.327,0.847,0.661,1.238,0.965c-0.127,0.67-0.231,1.212-0.334,1.754c0.084,0.062,0.169,0.126,0.252,0.188
	c0.355-0.29,0.711-0.581,1.15-0.939c0.276,0.162,0.606,0.356,0.993,0.586c-0.061,0.52-0.118,1.007-0.21,1.792
	c0.616-0.315,1.024-0.523,1.545-0.79c0.481,0.189,1.061,0.418,1.695,0.67c0.045,0.461,0.086,0.884,0.147,1.503
	c0.562-0.346,0.968-0.596,1.435-0.884c0.333,0.105,0.709,0.226,1.128,0.36c0.056,0.458,0.107,0.883,0.187,1.531
	c0.522-0.449,0.886-0.762,1.307-1.124c0.179,0.08,0.496,0.121,0.559,0.269c0.15,0.355,0.256,0.763,0.248,1.146
	c-0.073,3.687-0.172,7.372-0.272,11.057c-0.008,0.28-0.086,0.559-0.151,0.957c-0.567,0-1.096,0-1.597,0
	c-0.398-1.126,0.739-2.222-0.231-3.325c-0.267,0.032-0.587,0.07-0.956,0.115c-0.334,1.014-0.653,1.982-0.999,3.029
	c-0.45-0.039-0.82-0.071-1.264-0.11c0-1.339,0-2.582,0-3.873c-0.798-0.466-1.151,0.023-1.341,0.688
	c-0.265,0.928-0.461,1.875-0.712,2.922C84.509,137.498,84.085,137.407,83.598,137.303z"/>
<path fill-rule="evenodd" clip-rule="evenodd" fill="#f4751a" class="fill" d="M128.062,111.129c0.517-0.175,0.875-0.297,1.318-0.447
	c-0.147-0.613-0.275-1.143-0.428-1.777c0.477-0.223,0.907-0.424,1.482-0.694c-0.211-0.531-0.415-1.044-0.682-1.717
	c0.209-0.782,0.459-1.717,0.739-2.761c5.482-0.612,10.818-0.469,16.087,0.938c0,0.319,0.035,0.499-0.009,0.655
	c-0.044,0.158-0.166,0.294-0.284,0.49c-0.488,0-0.991,0-1.571,0c-0.047,0.373-0.088,0.695-0.136,1.084
	c0.468,0.174,0.879,0.327,1.476,0.549c-0.139,0.526-0.275,1.042-0.394,1.491c-0.746,0.156-1.334,0.279-2.196,0.459
	c0.465,0.792,0.796,1.355,1.188,2.022c-0.162,0.387-0.357,0.85-0.572,1.361c-0.756,0-1.464,0-2.475,0
	c0.523,0.845,0.898,1.451,1.312,2.119c-0.163,0.315-0.343,0.664-0.561,1.085c-0.859-0.321-1.455-1.601-2.747-0.525
	c0.47,0.768,0.961,1.566,1.617,2.635c-0.467,0.452-1.019,0.988-1.646,1.595c-0.503-0.553-0.844-0.928-1.298-1.426
	c-0.397,0.167-0.834,0.353-1.314,0.557c0.337,0.878,0.62,1.615,0.919,2.392c-0.221,0.234-0.411,0.435-0.663,0.7
	c-0.644-0.208-1.343-0.931-2.021,0.115c0.129,0.514,0.277,1.114,0.426,1.712c-0.467,0.634-0.937,1.267-1.458,1.974
	c0.988,1.125,2.132,2.051,2.512,3.557c-1.688,1.935-3.571,3.59-6.019,4.956c-0.683-0.714-1.374-1.436-2.291-2.396
	c-0.206-0.039-0.764-0.145-1.423-0.271c-0.92,0.612-1.872,1.243-2.884,1.915c-0.359-0.479-0.705-0.938-1.081-1.438
	c-1.29,0.726-0.801,1.924-1.086,2.955c-0.288,0.163-0.626,0.354-0.972,0.551c-0.867-0.603-0.355-2.226-1.876-2.305
	c-0.858,0.927-0.132,2.219-0.74,3.431c-0.411,0.155-0.97,0.365-1.688,0.635c-0.095-1.015-0.169-1.806-0.252-2.699
	c-0.243-0.124-0.525-0.27-0.82-0.42c-1.089,1.019-0.737,2.432-1.213,3.639c-0.605,0.121-1.212,0.243-1.897,0.379
	c-0.228-1.125-0.44-2.178-0.652-3.226c-0.992,0.139-0.992,0.139-1.709,3.297c-0.386,0.021-0.809,0.043-1.385,0.072
	c-0.126-1.23-0.241-2.345-0.388-3.785c-0.508,0.363-0.946,0.509-1.02,0.761c-0.209,0.712-0.269,1.468-0.388,2.205
	c-0.08,0.492-0.023,1.095-1.085,1.011c-0.23-4.156,0.199-8.302,0.268-12.537c0.341-0.086,0.597-0.15,0.968-0.244
	c0.121,0.479,0.223,0.881,0.433,1.711c0.526-0.773,0.848-1.247,1.249-1.836c0.513-0.11,1.126-0.241,1.857-0.398
	c0.151,0.484,0.291,0.928,0.447,1.423c1.146-0.234,0.678-1.084,0.774-1.791c0.557-0.196,1.125-0.396,1.695-0.595
	c0.26,0.743,0.463,1.321,0.665,1.897c0.158-0.023,0.317-0.047,0.477-0.071c0.037-0.699,0.074-1.401,0.118-2.259
	c0.349-0.199,0.77-0.441,1.349-0.771c0.228,0.785,0.411,1.415,0.596,2.054c0.756-0.375,0.756-0.375,0.514-2.647
	c0.336-0.213,0.71-0.449,1.168-0.74c0.324,0.688,0.602,1.279,0.946,2.013c1.154-0.899-0.036-1.796,0.359-2.8
	c0.108-0.089,0.4-0.33,0.784-0.645c0.403,0.692,0.759,1.303,1.158,1.988c0.282-0.23,0.448-0.365,0.667-0.544
	c-0.279-0.707-0.544-1.381-0.852-2.162c0.48-0.393,0.898-0.736,1.356-1.112c0.368,0.602,0.656,1.071,1.006,1.644
	c1.096-0.952,0.038-1.753,0.049-2.723c0.147-0.188,0.383-0.486,0.611-0.777c0.493,0.208,0.913,0.386,1.623,0.686
	c-0.172-0.814-0.281-1.334-0.417-1.987c0.296-0.367,0.645-0.8,1.028-1.278c0.406,0.366,0.732,0.66,1.065,0.959
	c0.925-0.981-0.213-1.61-0.31-2.536C127.625,112.104,127.833,111.639,128.062,111.129z"/>
<path fill-rule="evenodd" clip-rule="evenodd" fill="#f4751a" class="fill" d="M73.784,86.148c-0.211,1.953-0.147,2.19,0.829,3.487
	c-0.168,0.404-0.356,0.864-0.58,1.403c-1.377-0.133-2.693-0.223-3.999-0.395c-3.316-0.438-6.636-0.81-9.982-0.474
	c-1.005,0.102-1.993,0.372-3.181,0.604c0.471-0.529,0.79-0.886,1.328-1.489c-0.803-0.062-1.327-0.103-1.868-0.144
	c-0.331-0.74,0.201-0.991,0.721-1.271c0.463-0.249,1.211-0.265,0.977-1.251c-0.324-0.047-0.689-0.1-1.18-0.171
	c0.054-0.424,0.109-0.849,0.155-1.207c0.64-0.324,1.173-0.593,1.898-0.96c-0.538-0.499-0.88-0.816-1.435-1.331
	c0.836-0.432,1.556-0.803,2.556-1.32c-0.706-0.353-1.08-0.541-1.518-0.76c0.096-0.393,0.188-0.771,0.284-1.167
	c0.535-0.172,1.018-0.327,1.643-0.527c-0.272-0.495-0.502-0.912-0.769-1.396c0.581-1.009,1.183-2.052,1.861-3.228
	c0.386-0.179,0.884-0.407,1.382-0.636c0.08,0.067,0.16,0.134,0.238,0.202c-0.246,0.535-0.491,1.069-0.8,1.74
	c0.102,0.401,0.233,0.921,0.461,1.823c2.807-2.344,4.954-4.869,7.28-6.584c-0.735-0.867-1.384-1.631-1.981-2.335
	c1.162-2.061,2.73-3.257,5.365-4.16c0.758,0.815,1.57,1.689,2.425,2.607c1.265-0.093,5.981-2.997,6.774-4.304
	c-0.55-0.441-1.127-0.903-1.736-1.392c0.338-0.775,0.604-1.387,0.857-1.965c1.384,0.25,1.146,2.099,2.601,2.231
	c0.104-1.109-0.697-1.817-1.011-2.85c0.407-0.218,0.832-0.445,1.443-0.772c0.552,1,1.054,1.908,1.557,2.818
	c0.112-0.026,0.223-0.052,0.334-0.078c-0.089-0.908-0.178-1.817-0.286-2.917c0.364-0.112,0.885-0.272,1.523-0.469
	c0.367,0.868,0.692,1.638,1.074,2.543c0.934-0.884,0.203-1.824,0.403-2.734c0.27-0.063,0.583-0.137,0.987-0.232
	c0.346,0.893,0.669,1.725,1.06,2.731c0.938-1.03,0.159-1.994,0.289-3.007c0.625,0,1.22,0,1.933,0c0.153,0.878,0.3,1.719,0.458,2.624
	c0.275,0.107,0.571,0.223,0.933,0.363c0,3.346,0,6.681,0,10.134c-0.491,0.098-0.966,0.193-1.497,0.3
	c-0.239,0.68-0.472,1.343-0.71,2.021c-1.062-0.279-0.418-1.768-1.821-1.722c-0.122,0.439-0.268,0.955-0.408,1.474
	c-0.124,0.458,0.073,1.098-0.682,1.205c-0.788-0.128-0.489-1.728-1.79-1.235c-0.061,0.816-0.123,1.665-0.194,2.611
	c-0.399,0.27-0.812,0.549-1.321,0.893c-0.426-0.706-0.792-1.313-1.242-2.06c-1.276,1.008-0.333,2.377-0.965,3.622
	c-0.2,0.133-0.611,0.407-1.021,0.681c-0.84-0.528-0.544-1.88-1.935-2.146c0.067,1.385,0.126,2.614,0.188,3.879
	c-0.485,0.425-0.954,0.835-1.542,1.351c-0.469-0.728-0.885-1.371-1.464-2.267c-0.87,1.454,0.206,2.729-0.07,3.974
	c-0.417,0.525-0.833,1.05-1.27,1.601c-0.527-0.659-0.953-1.19-1.622-2.025c-0.308,1.667-0.082,2.781,0.566,3.891
	c-0.235,0.495-0.48,1.006-0.785,1.646C74.95,87.149,74.481,86.748,73.784,86.148z"/>
<path fill-rule="evenodd" clip-rule="evenodd" fill="#f4751a" class="fill" d="M113.333,56.518c-0.037,1.216-0.695,2.136-0.284,3.531
	c0.587-1.26,1.03-2.212,1.528-3.281c0.531,0.15,0.998,0.279,1.523,0.427c-0.223,1.09-1.124,1.896-0.77,3.141
	c1.223-0.589,0.9-2.042,2.026-2.812c0.241,0.024,0.715,0.072,1.25,0.126c-0.259,1.006-0.478,1.854-0.698,2.701
	c0.14,0.065,0.279,0.131,0.419,0.196c0.45-0.74,0.898-1.48,1.401-2.306c0.357,0.017,0.73,0.034,1.182,0.057
	c-0.075,0.694-0.139,1.289-0.221,2.044c0.511-0.24,0.86-0.404,1.364-0.642c0.149,0.383,0.292,0.75,0.513,1.317
	c-1.012,0-1.79,0-2.638,0c-0.256,0.269-0.518,0.543-0.814,0.856c2.681,1.922,5.281,3.784,7.903,5.663
	c1.765-0.31,2.683-1.932,4.337-2.804c2.136,1.927,4.299,3.876,6.646,5.992c-1.145,0.973-2.121,1.802-3.269,2.778
	c2.492,2.447,4.548,5.187,7.361,7.631c0.43-0.903,0.728-1.525,1.06-2.221c0.434,0.159,0.914,0.333,1.46,0.533
	c0.216,0.355,0.451,0.741,0.671,1.1c-0.201,0.46-0.375,0.861-0.603,1.386c0.551,0.114,0.969,0.201,1.445,0.3
	c0.176,0.402,0.354,0.816,0.501,1.151c-0.129,0.835-1.61,0.57-1.145,1.796c0.572,0,1.174,0,1.896,0
	c0.142,0.429,0.298,0.903,0.434,1.316c-0.443,0.778-1.718,0.441-1.77,1.452c0.575,0.906,1.832-0.504,2.23,0.867
	c-0.528,0.365-1.061,0.732-1.855,1.282c0.772,0.282,1.243,0.454,1.714,0.626c-6.002-0.492-11.961-0.546-17.787,1.165
	c-0.16-0.252-0.284-0.382-0.331-0.535c-0.083-0.272-0.119-0.56-0.164-0.788c0.241-0.518,0.455-0.974,0.703-1.506
	c-0.414-0.2-0.752-0.362-1.122-0.541c-0.168-0.678-0.333-1.342-0.505-2.04c0.654-0.894,1.987-1.333,1.834-2.885
	c-0.753,0.475-1.401,0.883-2.233,1.409c-0.406-0.773-0.738-1.406-1.016-1.935c0.437-0.952,0.804-1.753,1.172-2.554
	c-0.084-0.054-0.169-0.107-0.253-0.161c-0.578,0.348-1.157,0.696-1.907,1.147c-0.419-0.568-0.847-1.147-1.337-1.812
	c0.93-0.977,1.465-2.062,1.341-3.449c-1.351-0.01-1.46,1.274-2.354,1.936c-0.388-0.405-0.795-0.832-1.148-1.202
	c0.233-0.991,0.433-1.841,0.633-2.69c-0.107-0.049-0.212-0.099-0.319-0.147c-0.528,0.49-1.057,0.98-1.676,1.554
	c-0.499-0.361-0.994-0.721-1.44-1.045c0-0.926,0-1.747,0-2.971c-0.715,0.833-1.179,1.374-1.715,1.998
	c-0.479-0.162-0.947-0.319-1.429-0.481c0.098-0.94,0.185-1.769,0.282-2.699c-1.398,0.09-1.3,1.36-2.125,2.035
	c-0.459-0.127-1.041-0.29-1.607-0.445c-0.16-0.905-0.299-1.703-0.44-2.5c-0.149-0.017-0.298-0.034-0.448-0.051
	c-0.309,0.625-0.619,1.25-0.973,1.966c-0.45-0.082-0.88-0.16-1.405-0.257c-0.073-0.679-0.14-1.295-0.222-2.05
	c-0.258-0.126-0.59-0.288-1.019-0.496c-0.248-4.136,0.185-8.261,0.853-12.75c1.102,1.271,0.241,2.425,0.67,3.56
	c1.03-0.896,0.649-2.203,1.306-3.293C112.398,56.306,112.894,56.418,113.333,56.518z"/>
<path fill-rule="evenodd" clip-rule="evenodd" fill="#f4751a" class="fill" d="M148.352,92.971c0.468,3.457-0.404,6.688-1.053,10.148
	c-5.46-1.031-10.917-1.543-16.48-0.855c-0.147-2.892-0.285-5.613-0.425-8.373c1.116-0.955,2.429-1.396,3.913-1.495
	c2.123-0.145,4.237-0.456,6.361-0.545C143.265,91.743,145.802,92.214,148.352,92.971z"/>
<path fill-rule="evenodd" clip-rule="evenodd" fill="#f4751a" class="fill" d="M96.775,70.695c-0.126-4.634-0.256-9.38-0.392-14.325
	c3.972-0.274,7.878-0.791,11.923-0.215c-0.336,4.867-0.667,9.659-1.004,14.54C103.832,70.695,100.364,70.695,96.775,70.695z"/>
<path fill-rule="evenodd" clip-rule="evenodd" fill="#f4751a" class="fill" d="M55.064,100.23c-0.279-2.726,0.247-5.234,0.476-7.6
	c6.021-2.101,11.93-0.726,17.934-0.102c-0.112,2.568-0.219,5.047-0.335,7.739c-1.882-0.162-3.731-0.146-5.503-0.509
	C63.526,98.918,59.499,99.419,55.064,100.23z"/>
<path fill-rule="evenodd" clip-rule="evenodd" fill="#f4751a" class="fill" d="M104.283,126.079c0,4.25,0,8.267,0,12.465
	c-3.592-0.039-6.948,0.376-10.49,0.002c0.102-4.423,0.2-8.704,0.302-13.103C97.608,125.661,100.966,125.872,104.283,126.079z"/>
<path fill-rule="evenodd" clip-rule="evenodd" fill="#f4751a" class="fill" d="M41.933,97.626c0,1.641,0,3.092,0,4.934
	c-0.96-0.707-1.66-1.222-2.424-1.784c0.182-1.346,0.348-2.581,0.557-4.126C40.791,97.028,41.304,97.297,41.933,97.626z"/>
<path fill-rule="evenodd" clip-rule="evenodd" fill="#f4751a" class="fill" d="M119.071,148.871c0.856-0.847,1.645-1.629,2.489-2.465
	c0.936,0.943,0.598,1.867,0.596,2.783c-0.889,0.92-1.78,1.844-2.784,2.885C118.692,150.947,119.405,150.007,119.071,148.871z"/>
<path fill-rule="evenodd" clip-rule="evenodd" fill="#f4751a" class="fill" d="M159.107,89.725c0.826,0.238,1.43,0.413,2.221,0.641
	c0.09,1.476,0.174,2.869,0.281,4.649c-0.897-0.481-1.509-0.811-2.278-1.225C159.263,92.546,159.192,91.281,159.107,89.725z"/>
<path fill-rule="evenodd" clip-rule="evenodd" fill="#f4751a" class="fill" d="M158.247,108.33c-0.367-0.552-0.732-1.103-1.072-1.615
	c0.373-1.313,0.711-2.505,1.15-4.054c0.648,0.769,1.099,1.301,1.637,1.937c-0.429,1.251-0.848,2.473-1.268,3.694
	C158.545,108.304,158.396,108.317,158.247,108.33z"/>
<path fill-rule="evenodd" clip-rule="evenodd" fill="#f4751a" class="fill" d="M155.437,113.487c-0.188-0.454-0.377-0.908-0.557-1.342
	c0.621-1.376,1.205-2.673,1.908-4.23c0.505,0.694,0.857,1.181,1.313,1.806c-0.751,1.281-1.492,2.547-2.233,3.812
	C155.725,113.518,155.58,113.502,155.437,113.487z"/>
<path fill-rule="evenodd" clip-rule="evenodd" fill="#f4751a" class="fill" d="M44.129,88.231c-0.4,1.265-0.737,2.329-1.166,3.686
	c-0.729-0.666-1.213-1.108-1.771-1.618c0.396-1.081,0.764-2.085,1.218-3.323C43.069,87.457,43.546,87.806,44.129,88.231z"/>
<path fill-rule="evenodd" clip-rule="evenodd" fill="#f4751a" class="fill" d="M117.813,153.14c-0.919,0.661-1.874,1.348-2.829,2.032
	c-0.12-0.081-0.24-0.163-0.361-0.245c0.141-0.813,0.281-1.625,0.404-2.334c0.965-0.7,1.789-1.296,2.786-2.018
	C117.813,151.472,117.813,152.183,117.813,153.14z"/>
<path fill-rule="evenodd" clip-rule="evenodd" fill="#f4751a" class="fill" d="M45.708,117.013c0.694,0.837,1.334,1.609,2.123,2.562
	c-0.762,0.311-1.317,0.538-1.849,0.754c-1.181-0.662-1.928-1.52-2.325-2.957C44.384,117.244,45.02,117.133,45.708,117.013z"/>
<path fill-rule="evenodd" clip-rule="evenodd" fill="#f4751a" class="fill" d="M41.059,91.834c0.646,0.487,1.139,0.859,1.692,1.277
	c-0.247,1.077-0.482,2.106-0.757,3.306c-0.657-0.32-1.144-0.558-1.694-0.828C40.391,94.342,40.204,93.101,41.059,91.834z"/>
<path fill-rule="evenodd" clip-rule="evenodd" fill="#f4751a" class="fill" d="M40.374,107.487c0.776,0.08,1.269,0.129,1.86,0.191
	c0.307,1.303,0.601,2.549,0.928,3.938c-0.694,0-1.18,0-1.877,0C40.994,110.3,40.715,109.033,40.374,107.487z"/>
<path fill-rule="evenodd" clip-rule="evenodd" fill="#f4751a" class="fill" d="M109.812,155.165c1.375-0.548,2.473-0.984,3.738-1.487
	c-0.035,0.779-0.062,1.387-0.099,2.182c-1.248,0.356-2.475,0.706-4.008,1.145C109.613,156.158,109.718,155.635,109.812,155.165z"/>
<path fill-rule="evenodd" clip-rule="evenodd" fill="#f4751a" class="fill" d="M160.927,99.188c-0.694-0.298-1.254-0.54-1.977-0.851
	c0.144-1.089,0.282-2.146,0.465-3.531c0.842,0.55,1.436,0.937,2.08,1.358C161.305,97.176,161.13,98.107,160.927,99.188z"/>
<path fill-rule="evenodd" clip-rule="evenodd" fill="#f4751a" class="fill" d="M81.74,50.332c0.946,2.079,0.701,3.558-0.899,5.295
	c-0.257-1.096-0.479-2.046-0.719-3.076C80.644,51.836,81.16,51.126,81.74,50.332z"/>
<path fill-rule="evenodd" clip-rule="evenodd" fill="#f4751a" class="fill" d="M84.918,153.438c-0.244,0.751-0.415,1.278-0.667,2.05
	c-1.092-0.454-2.05-0.852-3.185-1.323c0.522-0.779,0.892-1.33,1.348-2.008C83.264,152.592,84.007,152.972,84.918,153.438z"/>
<path fill-rule="evenodd" clip-rule="evenodd" fill="#f4751a" class="fill" d="M83.285,51.888c-0.116-0.99-0.211-1.81-0.318-2.727
	c0.639-0.747,1.287-1.506,2.185-2.558C85.523,48.955,85.131,50.56,83.285,51.888z"/>
<path fill-rule="evenodd" clip-rule="evenodd" fill="#f4751a" class="fill" d="M39.666,102.505c0.987,0.558,1.623,0.917,2.384,1.347
	c0.084,0.76,0.176,1.591,0.266,2.403c-1.261,0.338-1.262,0.338-2.32-0.61C39.908,104.814,39.808,103.861,39.666,102.505z"/>
<path fill-rule="evenodd" clip-rule="evenodd" fill="#f4751a" class="fill" d="M97.278,155.738c-0.392,0.692-0.638,1.125-0.833,1.469
	c-1.202,0-2.264,0-3.449,0c0.164-0.704,0.29-1.243,0.458-1.968C94.679,155.399,95.843,155.551,97.278,155.738z"/>
<path fill-rule="evenodd" clip-rule="evenodd" fill="#f4751a" class="fill" d="M42.869,116.22c-0.446-1.11-0.819-2.039-1.279-3.183
	c0.721-0.069,1.246-0.119,1.897-0.182c0.481,0.95,0.934,1.845,1.515,2.996C44.238,115.983,43.673,116.081,42.869,116.22z"/>
<path fill-rule="evenodd" clip-rule="evenodd" fill="#f4751a" class="fill" d="M88.981,156.833c0.214-0.817,0.353-1.345,0.538-2.051
	c0.941,0.101,1.801,0.192,2.824,0.3c-0.146,0.846-0.256,1.486-0.401,2.327C90.941,157.214,90.086,157.048,88.981,156.833z"/>
<path fill-rule="evenodd" clip-rule="evenodd" fill="#f4751a" class="fill" d="M123.034,144.37c0.386-0.584,0.791-1.2,1.366-2.073
	c0.443,0.813,0.78,1.431,1.124,2.061c-0.588,1.012-1.13,1.945-1.672,2.879c-0.118,0-0.236,0-0.354-0.001
	C123.348,146.308,123.197,145.38,123.034,144.37z"/>
<path fill-rule="evenodd" clip-rule="evenodd" fill="#f4751a" class="fill" d="M158.874,99.328c0.782,0.437,1.392,0.778,2.076,1.16
	c-0.201,0.96-0.373,1.785-0.599,2.861c-0.437-0.389-0.692-0.634-0.968-0.857c-0.306-0.249-0.629-0.478-1.034-0.782
	C158.507,100.999,158.663,100.29,158.874,99.328z"/>
<path fill-rule="evenodd" clip-rule="evenodd" fill="#f4751a" class="fill" d="M81.703,151.678c-0.49,0.542-0.895,0.99-1.426,1.577
	c-0.691-0.582-1.315-1.108-2.083-1.755c0.438-0.615,0.806-1.133,1.295-1.821C80.294,150.406,80.945,150.993,81.703,151.678z"/>
<path fill-rule="evenodd" clip-rule="evenodd" fill="#f4751a" class="fill" d="M125.045,53.227c0.39,0.848,0.713,1.55,1.068,2.321
	c-0.949,0.45-1.673,0.002-2.546-0.105c-0.267-0.434-0.555-0.902-0.982-1.598C123.447,53.628,124.131,53.456,125.045,53.227z"/>
<path fill-rule="evenodd" clip-rule="evenodd" fill="#f4751a" class="fill" d="M77.123,147.064c0.229,0.117,0.366,0.141,0.423,0.223
	c0.391,0.553,0.765,1.118,1.235,1.812c-0.411,0.433-0.819,0.861-1.382,1.455c-0.574-0.785-1.054-1.44-1.621-2.216
	C76.3,147.843,76.728,147.438,77.123,147.064z"/>
<path fill-rule="evenodd" clip-rule="evenodd" fill="#f4751a" class="fill" d="M78.965,58.911c-0.35-0.888-0.639-1.618-0.999-2.529
	c0.328-0.628,0.705-1.349,1.147-2.197C80.145,56.326,80.115,57.874,78.965,58.911z"/>
<path fill-rule="evenodd" clip-rule="evenodd" fill="#f4751a" class="fill" d="M44.411,83.365c0.521,0.472,0.878,0.797,1.332,1.207
	c-0.377,0.832-0.722,1.594-1.154,2.546c-0.59-0.448-1.059-0.803-1.656-1.255C43.435,85.015,43.879,84.263,44.411,83.365z"/>
<path fill-rule="evenodd" clip-rule="evenodd" fill="#f4751a" class="fill" d="M126.062,138.045c0.511,0.745,0.82,1.196,1.181,1.722
	c-0.281,0.946-0.241,2.072-1.178,2.942c-0.299-0.791-0.558-1.472-0.857-2.262C125.437,139.802,125.701,139.059,126.062,138.045z"/>
<path fill-rule="evenodd" clip-rule="evenodd" fill="#f4751a" class="fill" d="M88.434,154.536c-0.177,0.734-0.294,1.214-0.456,1.878
	c-0.842-0.226-1.579-0.424-2.49-0.669c0.145-0.7,0.265-1.274,0.421-2.029C86.814,154.009,87.543,154.246,88.434,154.536z"/>
<path fill-rule="evenodd" clip-rule="evenodd" fill="#f4751a" class="fill" d="M63.85,70.506c-0.821,0.376-1.572,0.722-2.455,1.126
	c-0.294-0.662-0.516-1.162-0.84-1.89c1.007-0.259,1.862-0.479,2.85-0.732C63.555,69.512,63.675,69.917,63.85,70.506z"/>
<path fill-rule="evenodd" clip-rule="evenodd" fill="#f4751a" class="fill" d="M124.292,57.025c0.862,0,1.526,0,2.341,0
	c0.204,0.583,0.42,1.204,0.73,2.092c-0.98-0.06-1.728-0.105-2.574-0.157C124.61,58.264,124.463,57.696,124.292,57.025z"/>
<path fill-rule="evenodd" clip-rule="evenodd" fill="#f4751a" class="fill" d="M88.337,46.47c-0.623,0.557-1.159,1.038-1.917,1.714
	c0-1.032,0-1.739,0-2.547c0.501-0.395,1.029-0.808,1.625-1.276C88.717,45.05,88.271,45.719,88.337,46.47z"/>
<path fill-rule="evenodd" clip-rule="evenodd" fill="#f4751a" class="fill" d="M45.154,82.363c0.509-0.734,0.958-1.379,1.516-2.184
	c0.475,0.388,0.843,0.688,1.382,1.128c-0.549,0.758-1.033,1.424-1.598,2.204C45.967,83.081,45.601,82.757,45.154,82.363z"/>
<path fill-rule="evenodd" clip-rule="evenodd" fill="#f4751a" class="fill" d="M127.778,60.496c0.233,0.655,0.414,1.164,0.663,1.861
	c-0.804,0.052-1.402,0.09-2.072,0.133c-0.352-0.636-0.666-1.204-1.101-1.994C126.223,60.496,126.909,60.496,127.778,60.496z"/>
<path fill-rule="evenodd" clip-rule="evenodd" fill="#f4751a" class="fill" d="M118.255,48.512c0.679-0.295,1.139-0.496,1.667-0.725
	c0.625,0.545,1.216,1.059,2.122,1.848c-1.08,0.176-1.776,0.287-2.56,0.414C119.076,49.538,118.708,49.078,118.255,48.512z"/>
<path fill-rule="evenodd" clip-rule="evenodd" fill="#f4751a" class="fill" d="M108.612,155.522c-0.154,0.687-0.238,1.063-0.357,1.594
	c-0.9,0-1.765,0-2.828,0c0.207-0.565,0.349-0.955,0.511-1.399C106.801,155.654,107.579,155.599,108.612,155.522z"/>
<path fill-rule="evenodd" clip-rule="evenodd" fill="#f4751a" class="fill" d="M50.894,121.976c-0.878,0.323-1.396,0.514-1.988,0.731
	c-0.589-0.451-1.162-0.892-1.881-1.444c0.626-0.361,1.054-0.607,1.577-0.909C49.273,120.829,49.916,121.284,50.894,121.976z"/>
<path fill-rule="evenodd" clip-rule="evenodd" fill="#f4751a" class="fill" d="M112.514,43.164c-1.385,1.396-2.592,0.921-4.063,0.343
	c0.443-0.47,0.792-0.84,1.167-1.236C110.58,42.568,111.429,42.83,112.514,43.164z"/>
<path fill-rule="evenodd" clip-rule="evenodd" fill="#f4751a" class="fill" d="M49.49,77.058c0.398,0.475,0.645,0.771,0.953,1.139
	c-0.529,0.723-0.987,1.349-1.546,2.112c-0.41-0.347-0.767-0.649-1.264-1.07C48.206,78.566,48.706,77.98,49.49,77.058z"/>
<path fill-rule="evenodd" clip-rule="evenodd" fill="#f4751a" class="fill" d="M120.764,51.246c0.838-0.317,1.417-0.536,2.129-0.805
	c0.431,0.564,0.825,1.083,1.4,1.837c-1.012,0.071-1.723,0.12-2.533,0.177C121.49,52.128,121.217,51.796,120.764,51.246z"/>
<path fill-rule="evenodd" clip-rule="evenodd" fill="#f4751a" class="fill" d="M74.656,144.281c0.375-0.238,0.563-0.356,0.942-0.598
	c0.408,0.755,0.789,1.462,1.188,2.203c-0.462,0.396-0.795,0.683-1.351,1.157C75.152,146.034,74.918,145.206,74.656,144.281z"/>
<path fill-rule="evenodd" clip-rule="evenodd" fill="#f4751a" class="fill" d="M74.743,139.594c0.229,1.095,0.411,1.97,0.604,2.893
	c-0.347,0.157-0.589,0.267-1.03,0.467c-0.329-1.041-0.629-1.991-0.971-3.074C73.819,139.782,74.167,139.711,74.743,139.594z"/>
<path fill-rule="evenodd" clip-rule="evenodd" fill="#f4751a" class="fill" d="M59.44,70.193c0.271,0.653,0.476,1.146,0.747,1.797
	c-0.855,0.249-1.547,0.452-2.355,0.688c-0.181-0.471-0.331-0.858-0.525-1.365C58.034,70.931,58.663,70.601,59.44,70.193z"/>
<path fill-rule="evenodd" clip-rule="evenodd" fill="#f4751a" class="fill" d="M76.55,59.416c0.239-0.461,0.441-0.848,0.644-1.234
	c0.177,0.089,0.339,0.119,0.362,0.191c0.361,1.177,0.936,2.348,0.439,3.568c-0.153,0.03-0.306,0.06-0.459,0.089
	C77.226,61.209,76.916,60.386,76.55,59.416z"/>
<path fill-rule="evenodd" clip-rule="evenodd" fill="#f4751a" class="fill" d="M159.879,86.318c-0.72-0.134-1.242-0.23-1.809-0.336
	c-0.309-0.764-0.599-1.479-0.918-2.272c0.338-0.126,0.613-0.324,0.722-0.256C158.861,84.076,159.357,85.056,159.879,86.318z"/>
<path fill-rule="evenodd" clip-rule="evenodd" fill="#f4751a" class="fill" d="M115.896,44.765c-1.352,1.059-2.354,0.981-3.424,0.015
	c0.271-0.384,0.523-0.74,0.864-1.223C114.133,43.933,114.882,44.286,115.896,44.765z"/>
<path fill-rule="evenodd" clip-rule="evenodd" fill="#f4751a" class="fill" d="M57.478,124.636c-1.351,1.229-1.549,1.235-3.721,0.139
	c0.377-0.372,0.684-0.674,0.961-0.946C55.775,124.137,56.566,124.369,57.478,124.636z"/>
<path fill-rule="evenodd" clip-rule="evenodd" fill="#f4751a" class="fill" d="M104.477,155.992c-0.153,0.446-0.24,0.695-0.35,1.014
	c-0.977,0.071-1.917,0.14-3.039,0.222c0.165-0.527,0.272-0.871,0.432-1.378C102.486,155.897,103.412,155.942,104.477,155.992z"/>
<path fill-rule="evenodd" clip-rule="evenodd" fill="#f4751a" class="fill" d="M154.289,113.635c0.275,0.461,0.468,0.784,0.708,1.186
	c-0.575,0.728-1.121,1.419-1.698,2.152C152.582,115.782,152.673,115.479,154.289,113.635z"/>
<path fill-rule="evenodd" clip-rule="evenodd" fill="#f4751a" class="fill" d="M89.583,43.729c0.851-0.31,1.482-0.541,2.158-0.787
	c0.046,1.587-0.069,1.718-2.158,2.514C89.583,44.887,89.583,44.365,89.583,43.729z"/>
<path fill-rule="evenodd" clip-rule="evenodd" fill="#f4751a" class="fill" d="M71.827,136.033c1.829,0.203,2.004,0.344,2.375,1.716
	c-0.118,0.096-0.234,0.233-0.381,0.297c-0.204,0.091-0.431,0.128-0.752,0.217c-0.211-0.336-0.426-0.652-0.613-0.984
	C72.265,136.939,72.103,136.586,71.827,136.033z"/>
<path fill-rule="evenodd" clip-rule="evenodd" fill="#f4751a" class="fill" d="M97.187,42.76c0.64-1.516,1.011-1.649,2.927-1.187
	c-0.015,0.159,0.001,0.334-0.054,0.483c-0.058,0.155-0.186,0.284-0.349,0.519C98.94,42.633,98.108,42.693,97.187,42.76z"/>
<path fill-rule="evenodd" clip-rule="evenodd" fill="#f4751a" class="fill" d="M51.164,77.349c-0.206-0.359-0.347-0.605-0.602-1.049
	c0.682-0.542,1.363-1.081,2.071-1.643C53.211,75.721,53.1,75.91,51.164,77.349z"/>
<path fill-rule="evenodd" clip-rule="evenodd" fill="#f4751a" class="fill" d="M50.215,123.648c0.756-0.431,1.243-0.708,1.795-1.022
	c0.555,0.273,1.095,0.54,1.973,0.973c-1,0.391-1.663,0.65-2.395,0.936C51.21,124.291,50.847,124.057,50.215,123.648z"/>
<path fill-rule="evenodd" clip-rule="evenodd" fill="#f4751a" class="fill" d="M118.747,47.017c-0.876,0.224-1.311,0.335-1.832,0.468
	c-0.376-0.256-0.782-0.532-1.32-0.899c0.467-0.415,0.823-0.733,1.276-1.135C117.439,45.925,117.939,46.343,118.747,47.017z"/>
<path fill-rule="evenodd" clip-rule="evenodd" fill="#f4751a" class="fill" d="M147.208,120.629c0.039,0.731,0.061,1.156,0.088,1.666
	c-0.572,0.291-1.099,0.559-1.864,0.948c0.064-0.756,0.104-1.229,0.149-1.755C146.058,121.235,146.489,121.008,147.208,120.629z"/>
<path fill-rule="evenodd" clip-rule="evenodd" fill="#f4751a" class="fill" d="M99.816,157.467c-0.801-0.072-1.36-0.123-2.185-0.197
	c0.34-0.61,0.593-1.065,0.868-1.559c0.618,0.052,1.112,0.094,1.791,0.151C100.119,156.442,99.985,156.895,99.816,157.467z"/>
<path fill-rule="evenodd" clip-rule="evenodd" fill="#f4751a" class="fill" d="M96.166,42.127c-0.599,1.676-1.927,1.277-2.988,1.621
	C93.479,42.504,93.651,42.408,96.166,42.127z"/>
<path fill-rule="evenodd" clip-rule="evenodd" fill="#f4751a" class="fill" d="M145.631,75.006c-1.345,0.979-1.526,0.971-3.265,0.011
	c0.144-0.233,0.286-0.463,0.456-0.738c0.481,0.088,0.921,0.146,1.348,0.254C144.599,74.644,145.016,74.805,145.631,75.006z"/>
<path fill-rule="evenodd" clip-rule="evenodd" fill="#f4751a" class="fill" d="M56.168,72.138c0.222,0.479,0.313,0.675,0.456,0.983
	c-0.707,0.485-1.388,0.952-2.153,1.477c-0.198-0.232-0.361-0.424-0.676-0.793C54.59,73.247,55.298,72.749,56.168,72.138z"/>
<path fill-rule="evenodd" clip-rule="evenodd" fill="#f4751a" class="fill" d="M101.259,42.333c0.503-1.016,0.69-1.053,3.088-0.618
	C102.695,42.791,102.695,42.791,101.259,42.333z"/>
<path fill-rule="evenodd" clip-rule="evenodd" fill="#f4751a" class="fill" d="M141.47,123.262c-0.058,0.66-0.094,1.087-0.14,1.608
	c-0.567,0.232-1.105,0.453-1.96,0.804C139.708,124.337,139.961,123.44,141.47,123.262z"/>
<path fill-rule="evenodd" clip-rule="evenodd" fill="#f4751a" class="fill" d="M144.205,123.828c-0.617,0.142-1.094,0.252-1.606,0.37
	c0.118-1.627,0.118-1.627,1.726-1.893C144.288,122.769,144.254,123.2,144.205,123.828z"/>
<path fill-rule="evenodd" clip-rule="evenodd" fill="#f4751a" class="fill" d="M145.86,76.631c0.466-0.65,0.672-0.938,0.926-1.292
	c0.613,0.294,1.15,0.55,1.709,0.818C147.746,77.452,146.964,76.452,145.86,76.631z"/>
<path fill-rule="evenodd" clip-rule="evenodd" fill="#f4751a" class="fill" d="M108.138,42.104c-0.596,0.463-0.9,0.699-1.246,0.967
	c-0.502-0.154-0.976-0.299-1.564-0.48c0.248-0.373,0.424-0.638,0.632-0.951C106.613,41.78,107.215,41.908,108.138,42.104z"/>
<path fill-rule="evenodd" clip-rule="evenodd" fill="#f4751a" class="fill" d="M149.161,77.176c1.406-0.494,2.137,0.168,3.224,0.953
	C150.991,78.336,150.091,78.206,149.161,77.176z"/>
<path fill-rule="evenodd" clip-rule="evenodd" fill="#f4751a" class="fill" d="M152.016,117.21c0.378,1.306-0.524,1.595-1.165,2.195
	C150.506,118.296,150.506,118.296,152.016,117.21z"/>
<path fill-rule="evenodd" clip-rule="evenodd" fill="#f4751a" class="fill" d="M160.796,88.702c-1.135,0.168-1.862-0.019-1.93-1.198
	C160.419,87.354,160.419,87.354,160.796,88.702z"/>
<path fill-rule="evenodd" clip-rule="evenodd" fill="#f4751a" class="fill" d="M149.476,119.426c0.5,1.215-0.217,1.529-1.021,1.89
	C148.039,120.314,148.288,119.729,149.476,119.426z"/>
<path fill-rule="evenodd" clip-rule="evenodd" fill="#f4751a" class="fill" d="M139.756,73.254c0.651,0.227,1.303,0.454,1.993,0.693
	C140.795,74.893,140.484,74.825,139.756,73.254z"/>
<path fill-rule="evenodd" clip-rule="evenodd" fill="#f4751a" class="fill" d="M57.95,126.075c0.069-0.3,0.076-0.418,0.123-0.517
	c0.048-0.101,0.136-0.182,0.255-0.334c0.544,0.049,1.13,0.103,1.96,0.179C59.513,126.096,58.968,126.684,57.95,126.075z"/>
<path fill-rule="evenodd" clip-rule="evenodd" fill="#f4751a" class="fill" d="M156.97,82.607c-0.801-0.207-1.276-0.64-1.479-1.51
	C156.705,81.553,156.705,81.553,156.97,82.607z"/>
<path fill-rule="evenodd" clip-rule="evenodd" fill="#f4751a" class="fill" d="M154.458,80.22c-0.763-0.129-1.28-0.554-1.337-1.56
	c0.53,0.397,1.061,0.796,1.591,1.194C154.627,79.976,154.542,80.098,154.458,80.22z"/>
</svg>
