<svg version="1.1" xmlns="http://www.w3.org/2000/svg" xmlns:xlink="http://www.w3.org/1999/xlink" x="0px" y="0px" width="200px"
	 height="200px" viewBox="0 0 200 200" enable-background="new 0 0 200 200" xml:space="preserve">
<g id="svg">
	<path class="stroke" fill="#1f4a69"  d="M122.443,41.933c-0.564,0.078-0.938,0.185-1.308,0.168c-1.009-0.046-2.013-0.181-3.021-0.216
		c-2.523-0.087-5.049-0.197-7.572-0.189c-3.04,0.011-6.078,0.128-9.117,0.211c-2.536,0.069-5.072,0.191-7.607,0.223
		c-3.258,0.043-6.516,0.012-9.771,0.033c-0.445,0.003-0.89,0.125-1.366,0.198c-0.338,0.774-0.677,1.453-0.935,2.162
		c-0.634,1.746-1.228,3.506-1.845,5.259c-0.407,1.161-0.631,2.351-0.626,3.586c0.002,0.504-0.043,1.008-0.074,1.512
		c-0.142,2.235-0.324,4.47-0.419,6.708c-0.178,4.224-0.256,8.453-0.465,12.674c-0.312,6.286-0.742,12.567-1.043,18.854
		c-0.181,3.798-0.25,7.603-0.301,11.406c-0.067,5.03-0.061,10.061-0.101,15.091c-0.04,5.074-0.104,10.147-0.145,15.222
		c-0.024,3.162-0.018,6.324-0.037,9.486c-0.01,1.477-0.016,2.954-0.08,4.428c-0.025,0.574,0.12,0.988,0.755,1.368
		c2.45,0.082,5.049,0.168,7.662,0.255c0.021,0.339,0.05,0.59,0.05,0.841c0.003,2.781-0.005,5.563,0.007,8.345
		c0.005,1.004-0.067,2.033,0.536,2.896c0.492,0.147,0.942,0.254,1.373,0.416c1.096,0.414,2.185,0.503,3.338,0.187
		c2.723-0.748,5.478-1.384,8.19-2.17c2.067-0.598,4.1-1.33,6.131-2.05c2.944-1.043,5.853-2.188,8.813-3.181
		c5.217-1.747,10.269-3.874,15.285-6.301c0.084-0.344,0.236-0.704,0.247-1.068c0.111-3.424,0.242-6.849,0.277-10.274
		c0.044-4.225-0.061-8.452,0.012-12.676c0.093-5.537,0.305-11.072,0.45-16.609c0.047-1.776,0.008-3.556,0.074-5.331
		c0.223-5.917,0.508-11.832,0.704-17.75c0.14-4.183,0.15-8.371,0.268-12.556c0.105-3.676,0.293-7.349,0.418-11.023
		c0.104-3.081,0.169-6.162,0.251-9.203C128.86,48.828,125.796,45.244,122.443,41.933z"/>
</g>
<g id="Layer_2">
	<path fill-rule="evenodd" clip-rule="evenodd" fill="#b3d753" class="fill" d="M91.232,160.25c-0.078-1.673-0.18-3.141-0.208-4.61
		c-0.086-4.227-0.165-8.454-0.198-12.682c-0.012-1.561,0.045-3.128,0.181-4.682c0.359-4.127,0.326-8.265,0.428-12.399
		c0.06-2.447,0.118-4.893,0.162-7.34c0.053-3.041,0.104-6.083,0.131-9.124c0.023-2.493-0.006-4.986,0.021-7.479
		c0.02-1.688,0.152-3.376,0.142-5.063c-0.017-2.777-0.217-5.558-0.138-8.331c0.084-2.912,0.462-5.813,0.605-8.724
		c0.129-2.611,0.094-5.23,0.17-7.844c0.052-1.729,0.162-3.457,0.267-5.184c0.05-0.838,0.146-1.675,0.226-2.567
		c1.656-0.497,3.254-1.051,4.888-1.454c3.57-0.879,7.169-1.645,10.736-2.529c2.459-0.609,4.89-1.338,7.33-2.019
		c3.01-0.837,6.023-1.661,9.023-2.534c0.968-0.282,1.896-0.707,2.846-1.059c0.387-0.144,0.78-0.266,1.357-0.461
		c0.041,0.795,0.128,1.448,0.103,2.096c-0.158,3.845-0.386,7.688-0.505,11.535c-0.083,2.693-0.006,5.39-0.047,8.084
		c-0.036,2.279-0.144,4.557-0.212,6.835c-0.165,5.496-0.325,10.991-0.489,16.487c-0.093,3.125-0.254,6.25-0.275,9.376
		c-0.045,6.004,0.008,12.009-0.02,18.013c-0.018,3.798-0.057,7.597-0.183,11.392c-0.107,3.248-0.353,6.493-0.537,9.754
		c-2.258,1.492-4.715,2.488-7.244,3.332c-1.921,0.64-3.833,1.306-5.752,1.956c-2.398,0.811-4.806,1.601-7.199,2.43
		c-1.513,0.524-2.986,1.166-4.515,1.64c-2.538,0.788-5.104,1.486-7.663,2.214C93.577,159.62,92.485,159.907,91.232,160.25z
		 M102.864,103.509c-0.187-0.463-0.374-0.836-0.488-1.23c-0.353-1.218-0.725-2.433-0.995-3.669
		c-0.248-1.138-1.011-1.615-2.034-1.792c-1.041-0.181-1.998,0.067-2.502,1.054c-0.355,0.695-0.557,1.49-0.705,2.265
		c-0.191,0.99-0.116,2.048-0.41,2.999c-0.803,2.604-0.046,4.917,1.137,7.167c0.197,0.375,0.611,0.736,1.007,0.889
		c1.066,0.411,2.776-0.125,3.425-1.087c0.439-0.651,0.721-1.411,1.06-2.127c0.167-0.352,0.306-0.717,0.457-1.076
		c0.104,0.011,0.206,0.021,0.311,0.033c0.118,0.371,0.359,0.75,0.335,1.111c-0.09,1.389-0.312,2.769-0.394,4.157
		c-0.155,2.613-0.261,5.23-0.352,7.847c-0.011,0.333,0.178,0.673,0.264,0.97c1.403-0.047,2.49-0.377,3.212-1.561
		c-0.081-2.269-0.243-4.59-0.225-6.911c0.016-2.103-0.307-4.217,0.176-6.316c0.128-0.557,0.062-1.187-0.033-1.763
		c-0.16-0.965-0.863-1.444-1.834-1.309C103.86,103.216,103.458,103.358,102.864,103.509z M94.183,153.832
		c1,0.315,1.904,0.205,2.781-0.019c2.578-0.656,5.148-1.348,7.72-2.036c0.645-0.173,1.279-0.385,2.077-0.627
		c-0.128-0.392-0.229-0.695-0.33-1.003c-0.944,0.225-1.728,0.388-2.497,0.599c-2.677,0.734-5.306,1.64-8.081,2.006
		C95.312,152.823,94.426,152.736,94.183,153.832z M93.579,139.686c0.16,0.276,0.294,0.504,0.51,0.873
		c2.975-0.711,5.917-1.416,8.859-2.119c0.819-0.195,1.641-0.385,2.46-0.581c0.459-0.11,0.651-0.358,0.376-0.889
		c-0.244-0.038-0.548-0.17-0.809-0.113c-3.612,0.797-7.22,1.618-10.826,2.448C93.966,139.346,93.815,139.523,93.579,139.686z
		 M105.777,145.589c-1.078,0.23-1.941,0.4-2.799,0.599c-2.376,0.553-4.757,1.088-7.117,1.696c-0.603,0.154-1.394,0.087-1.694,0.866
		c0.202,0.628,0.662,0.593,1.141,0.495c0.66-0.135,1.324-0.263,1.978-0.426c2.856-0.712,5.71-1.436,8.669-2.182
		C105.89,146.253,105.84,145.957,105.777,145.589z M105.374,141.48c-0.363,0.058-0.689,0.093-1.01,0.165
		c-2.681,0.598-5.358,1.207-8.041,1.804c-0.618,0.137-1.255,0.2-1.859,0.374c-0.264,0.076-0.469,0.349-0.725,0.552
		c0.684,0.599,0.688,0.62,1.43,0.457c3.098-0.683,6.193-1.374,9.287-2.077c0.397-0.09,0.776-0.265,1.232-0.425
		C105.565,142.001,105.484,141.781,105.374,141.48z M123.311,145.591c-0.165,0-0.255-0.02-0.333,0.002
		c-3.047,0.844-6.094,1.679-9.133,2.551c-0.395,0.113-0.734,0.412-1.119,0.636c0.436,0.752,0.922,0.595,1.42,0.46
		c2.445-0.661,4.897-1.295,7.338-1.978c0.686-0.191,1.338-0.505,1.994-0.785c0.093-0.039,0.133-0.201,0.221-0.349
		C123.56,145.937,123.42,145.743,123.311,145.591z M112.452,136.167c0.495,0.897,1.021,0.538,1.471,0.43
		c2.086-0.499,4.17-1.006,6.246-1.546c1.162-0.302,2.355-0.541,3.507-1.164c-0.159-0.34-0.271-0.578-0.378-0.806
		c-3.345,0.836-6.602,1.651-9.857,2.465c-0.082,0.021-0.179,0.017-0.243,0.062C112.949,135.78,112.713,135.969,112.452,136.167z
		 M112.583,144.917c1.262,0.227,9.474-1.838,11.109-2.76c-0.11-0.231-0.223-0.467-0.368-0.77c-3.6,0.94-7.126,1.861-10.679,2.789
		C112.623,144.436,112.607,144.634,112.583,144.917z M105.848,132.021c-2.546,0.248-10.681,2.047-11.317,2.496
		c0.108,0.826,0.695,0.683,1.233,0.581c1.702-0.325,3.406-0.641,5.101-1.006c1.68-0.363,3.35-0.781,5.076-1.187
		C105.906,132.574,105.881,132.339,105.848,132.021z M123.405,137.075c-3.393,0.849-6.74,1.687-10.199,2.553
		c0.18,0.357,0.299,0.594,0.438,0.875c0.558-0.059,1.067-0.062,1.552-0.174c1.395-0.325,2.777-0.686,4.163-1.05
		c1.138-0.3,2.278-0.605,3.406-0.946C123.222,138.195,123.811,138.071,123.405,137.075z M112.591,131.607
		c0.229,0.728,0.631,0.708,1.14,0.585c2.208-0.538,4.423-1.045,6.635-1.573c0.815-0.195,1.629-0.407,2.438-0.634
		c0.09-0.025,0.14-0.194,0.243-0.352c-0.112-0.187-0.232-0.383-0.319-0.529c-0.183-0.018-0.271-0.048-0.349-0.03
		c-2.998,0.682-5.996,1.36-8.988,2.065C113.1,131.208,112.851,131.451,112.591,131.607z"/>
	<path fill-rule="evenodd" clip-rule="evenodd" fill="#b3d753" class="fill" d="M127.369,50.306c-0.673,0.077-1.189,0.176-1.709,0.189
		c-3.633,0.099-7.275,0.357-10.901,0.221c-4.445-0.167-8.847,0.494-13.271,0.383c-1.659-0.042-3.272,0.155-4.905,0.33
		c-1.202,0.128-2.437-0.056-3.655-0.042c-3.421,0.038-6.842,0.109-10.263,0.157c-0.331,0.006-0.661-0.062-1.141-0.111
		c0.336-2.548,1.57-4.749,2.071-7.095c2.848-0.86,29.369-1.14,38.477-0.425C123.745,45.931,125.483,48.032,127.369,50.306z"/>
	<path fill-rule="evenodd" clip-rule="evenodd" fill="#b3d753" class="fill" d="M81.774,53.483c3.65,0,6.99,0.02,10.328-0.007
		c2.156-0.018,4.312-0.113,6.47-0.163c1.48-0.034,2.964-0.01,4.442-0.085c1.771-0.092,3.539-0.262,5.31-0.398
		c0.253-0.019,0.505-0.06,0.758-0.061c1.603-0.005,3.206-0.002,4.849,0.137c-0.75,0.756-1.951,0.582-2.618,1.383
		c-9.549-0.303-19.011,0.527-28.332,0.666c-0.726,0.642-0.864,1.287-0.905,1.979c-0.16,2.776-0.391,5.542-0.378,8.336
		c0.013,2.82-0.396,5.642-0.604,8.464c-0.122,1.644-0.223,3.288-0.313,4.934c-0.031,0.587-0.005,1.177-0.005,1.791
		c1.695,0.857,3.474,0.178,5.231,0.484c0.038,0.396,0.073,0.746,0.119,1.206c-0.904,0-1.694,0.009-2.484-0.003
		c-0.757-0.012-1.527-0.126-2.38,0.553c-0.057,1.002-0.16,2.166-0.183,3.332c-0.122,6.505-0.216,13.011-0.333,19.517
		c-0.055,3.124-0.141,6.248-0.207,9.371c-0.006,0.336,0.03,0.672,0.057,1.166c1.658,0.125,3.309,0.249,5.094,0.382
		c-0.099,0.656-0.177,1.17-0.278,1.846c-1.563,0-3.023,0-4.404,0c-0.582,1.442-1.108,25.698-0.649,27.647
		c1.549,0.6,3.332-0.241,4.933,0.598c-0.042,0.474-0.081,0.925-0.138,1.567c-2.052,0-4.094,0-6.372,0
		c-0.316-0.216-0.266-0.783-0.267-1.332c-0.002-5.453-0.013-10.907-0.006-16.36c0.004-3.629,0-7.258,0.057-10.887
		c0.092-5.75,0.223-11.499,0.355-17.248c0.102-4.312,0.229-8.623,0.349-12.934c0.081-2.915,0.132-5.832,0.268-8.745
		c0.108-2.364,0.355-4.722,0.487-7.085c0.265-4.718,0.473-9.439,0.749-14.156c0.093-1.599,0.287-3.193,0.501-4.781
		C81.326,54.184,81.624,53.803,81.774,53.483z"/>
	<path fill-rule="evenodd" clip-rule="evenodd" fill="#b3d753" class="fill" d="M89.085,62.253c0.316,0.237,0.496,0.343,0.639,0.486
		c0.324,0.329,0.631,0.677,1.008,1.086c-0.086,0.943-0.213,1.903-0.252,2.867c-0.081,2.067-0.107,4.136-0.175,6.204
		c-0.097,2.958-0.274,5.916-0.302,8.874c-0.033,3.586,0.074,7.172,0.081,10.758c0.009,4.051-0.014,8.103-0.041,12.155
		c-0.014,1.903-0.062,3.807-0.116,5.709c-0.041,1.388-0.139,2.775-0.176,4.164c-0.112,4.435-0.222,8.871-0.311,13.307
		c-0.088,4.394-0.173,8.788-0.214,13.182c-0.042,4.351-0.03,8.703-0.033,13.053c-0.002,2.03,0.02,4.058,0.016,6.088
		c0,0.353-0.065,0.705-0.115,1.202c-0.56-0.171-0.946-0.289-1.442-0.44c-0.638-5.754-0.403-11.512-0.188-17.272
		c0.108-2.874,0.18-5.749,0.257-8.624c0.096-3.548,0.19-7.098,0.266-10.646c0.052-2.407,0.052-4.814,0.101-7.22
		c0.076-3.72,0.215-7.44,0.248-11.16c0.027-3.003-0.082-6.006-0.094-9.01c-0.007-1.818,0.062-3.636,0.09-5.454
		c0.046-3.043,0.077-6.087,0.129-9.13c0.052-3.083,0.112-6.167,0.188-9.25c0.087-3.416,0.194-6.831,0.297-10.246
		C88.95,62.778,89.007,62.622,89.085,62.253z"/>
	<path fill-rule="evenodd" clip-rule="evenodd" fill="#b3d753" class="fill" d="M92.429,62.398c-0.455-0.402-0.951-0.841-1.638-1.448
		c1.856-0.572,3.477-1.166,5.143-1.566c3.983-0.958,8.001-1.779,11.983-2.741c3.9-0.942,7.77-2.007,11.661-2.987
		c1.68-0.424,3.374-0.792,5.069-1.139c0.867-0.178,1.742-0.184,2.703,0.468C115.711,56.341,104.126,59.246,92.429,62.398z"/>
	<path fill-rule="evenodd" clip-rule="evenodd" fill="#b3d753" class="fill" d="M99.753,98.389c0.425,1.84,0.844,3.653,1.272,5.507
		c-0.928,0.393-2.064,0.09-2.734,1.21c0.031,0.277,0.075,0.682,0.134,1.224c0.861,0.151,1.671,0.294,2.518,0.443
		c0.023,1.042-0.413,1.895-1.025,2.655c-0.585,0.729-1.295,0.752-1.958,0.086c-0.26-0.263-0.484-0.595-0.628-0.937
		c-0.698-1.67-0.994-3.363-0.473-5.177c0.336-1.169,0.416-2.41,0.664-3.607C97.781,98.542,98.313,98.192,99.753,98.389z"/>
	<path fill-rule="evenodd" clip-rule="evenodd" fill="#b3d753" class="fill" d="M99.832,105.193c1.578-0.32,3.151-0.64,4.955-1.006
		c0.638,0.353,0.362,1.137,0.359,1.949c-0.502-0.348-0.092-1.262-1.037-1.21c-0.156,0.253-0.343,0.558-0.518,0.843
		c-1.282-0.076-2.512-0.149-3.741-0.223C99.844,105.428,99.839,105.311,99.832,105.193z"/>
</g>
</svg>
