<svg version="1.1" id="svg" xmlns="http://www.w3.org/2000/svg" xmlns:xlink="http://www.w3.org/1999/xlink" x="0px" y="0px"
	 width="200px" height="200px" viewBox="0 0 200 200" enable-background="new 0 0 200 200" xml:space="preserve">
<path class="stroke" fill="#252b56"  d="M197.207,103.411c-3.221-0.958-6.423-1.978-9.63-2.983c-1.265-0.396-2.528-0.792-3.78-1.223
	c-2.321-0.798-4.626-1.645-6.955-2.419c-0.598-0.198-1.26-0.273-1.893-0.274c-1.682-0.004-3.363,0.111-5.045,0.092
	c-3.041-0.034-6.081-0.137-9.122-0.202c-0.743-0.016-1.489,0.035-2.231-0.002c-2.744-0.141-5.487-0.404-8.232-0.439
	c-4.107-0.052-8.217,0.05-12.325,0.083c-1.195,0.009-2.392,0.025-3.586,0.002c-0.839-0.016-1.678-0.148-2.515-0.135
	c-5.27,0.078-10.539,0.186-15.809,0.276c-1.938,0.033-3.878,0.051-5.816,0.061c-1.096,0.005-2.193-0.061-3.288-0.025
	c-2.521,0.081-5.041,0.233-7.562,0.302c-3.658,0.099-7.309-0.054-10.961-0.304c-2.479-0.168-4.975-0.098-7.463-0.116
	c-0.808-0.006-1.618,0.089-2.424,0.059c-1.81-0.066-3.616-0.211-5.426-0.272c-3.847-0.129-7.693-0.272-11.542-0.322
	c-2.716-0.035-5.434,0.133-8.15,0.106c-3.721-0.036-7.438-0.2-11.159-0.251c-4.267-0.059-8.534-0.049-12.801-0.08
	c-0.906-0.007-1.811-0.069-2.717-0.085c-2.099-0.038-4.199-0.064-6.299-0.092c-0.161-0.002-0.323,0.012-0.484,0.021
	c-2.388,0.135-4.774,0.271-7.162,0.404c-0.128,0.007-0.26-0.003-0.387-0.021c-2.843-0.408-5.686-0.064-8.529-0.037
	c-1.304,0.013-1.904,0.875-2.175,1.724c-0.148,0.465-0.047,1.018-0.023,1.529c0.036,0.771,0.173,1.543,0.143,2.311
	c-0.064,1.712-0.209,3.421-0.312,5.132c-0.021,0.321-0.032,0.65,0.009,0.967c0.262,1.971,1.235,2.839,3.229,2.891
	c1.52,0.04,3.04,0.054,4.56,0.108c2.067,0.072,4.134,0.201,6.202,0.249c3.266,0.076,6.533,0.101,9.8,0.157
	c2.643,0.045,5.285,0.109,7.928,0.156c0.483,0.008,0.969-0.066,1.45-0.041c2.577,0.143,5.151,0.329,7.729,0.452
	c1.571,0.075,3.148,0.063,4.723,0.09c0.61,0.01,1.234-0.062,1.828,0.042c1.962,0.344,3.921,0.235,5.896,0.178
	c2.418-0.069,4.842,0.079,7.264,0.094c1.285,0.009,2.57-0.102,3.854-0.093c1.421,0.009,2.841,0.12,4.262,0.14
	c2.487,0.034,4.975,0.024,7.461,0.048c3.316,0.031,6.634,0.082,9.95,0.112c1.644,0.015,3.288,0.006,4.932,0.001
	c1.679-0.005,3.358-0.012,5.037-0.031c1.227-0.014,2.453-0.079,3.68-0.074c1.875,0.005,3.75,0.082,5.625,0.075
	c4.169-0.017,8.336-0.081,12.504-0.096c1.287-0.005,2.574,0.105,3.861,0.121c2.198,0.026,4.396,0.015,6.594,0.027
	c1.973,0.009,3.945,0.028,5.918,0.044c3.909,0.032,7.817,0.112,11.726,0.083c4.458-0.032,8.916-0.162,13.376-0.245
	c1.454-0.027,2.909-0.046,4.365-0.058c2.555-0.022,5.11-0.062,7.665-0.048c2.789,0.015,5.558-0.087,8.242-0.958
	c1.692-0.548,3.388-1.084,5.089-1.603c3.74-1.142,7.485-2.27,11.229-3.403c0.452-0.136,0.833-0.353,0.997-0.874
	C198.358,104.049,197.96,103.635,197.207,103.411z"/>
<path class="stroke" fill="#252b56"  fill-rule="evenodd" clip-rule="evenodd" d="M112.645,67.992c1.395,0.505,2.66,0.97,3.932,1.42
	c1.094,0.389,2.19,0.771,3.291,1.14c4.011,1.343,7.924,3,12.121,3.748c0.628,0.112,1.225,0.402,1.832,0.621
	c0.39,0.14,0.673,0.382,0.713,0.846c-0.172,0.424-0.521,0.582-0.965,0.678c-5.022,1.081-10.045,2.162-15.06,3.278
	c-1.48,0.33-2.961,0.702-4.394,1.191c-1.156,0.396-2.312,0.526-3.514,0.554c-3.136,0.071-6.271,0.176-9.406,0.268
	c-0.227,0.006-0.454,0.01-0.68,0.021c-3.229,0.145-6.457,0.311-9.687,0.423c-1.029,0.036-2.062-0.088-3.093-0.095
	c-1.642-0.011-3.283,0.02-4.925,0.023c-0.639,0-1.276-0.037-1.914-0.037c-1.972,0.001-3.942,0.004-5.914,0.021
	c-1.887,0.016-2.987-0.8-3.359-2.674c-0.302-1.522-0.476-3.062-0.436-4.629c0.028-1.061-0.067-2.13-0.17-3.188
	c-0.068-0.719-0.102-1.417,0.167-2.103c0.179-0.455,0.476-0.778,0.979-0.835c1.603-0.181,3.204-0.423,4.812-0.499
	c1.448-0.069,2.935,0.247,4.35,0.035c1.546-0.231,3.09-0.295,4.632-0.327c3.359-0.07,6.723-0.01,10.084-0.016
	c1.324-0.003,2.649-0.076,3.973-0.056c2.585,0.042,5.17,0.142,7.754,0.187C109.448,68.016,111.129,67.992,112.645,67.992z
	 M125.137,73.987c0.008-0.084,0.016-0.167,0.023-0.251c-3.767-1.248-7.534-2.495-11.265-3.731c-0.191,0.914-0.359,1.72-0.535,2.564
	c1.479,1.667,0.747,3.252-0.194,4.664c0.299,0.902,0.554,1.679,0.801,2.425c3.575-0.803,7.181-1.611,10.906-2.447
	c-0.226-0.303-0.386-0.491-0.518-0.697c-0.141-0.216-0.267-0.442-0.378-0.673c-0.351-0.729-0.179-1.212,0.561-1.581
	C124.733,74.16,124.938,74.077,125.137,73.987z M96.689,76.593c0.265,0,0.391-0.002,0.519,0c2.55,0.034,5.101,0.055,7.651,0.109
	c1.936,0.041,3.869,0.132,5.804,0.189c1.354,0.04,2.328-0.648,2.622-1.826c0.208-0.834-0.066-1.437-0.886-1.663
	c-0.707-0.196-1.447-0.315-2.18-0.359c-1.612-0.096-3.236-0.039-4.841-0.198c-2.678-0.265-5.35-0.249-8.028-0.104
	c-0.279,0.015-0.555,0.082-0.89,0.134C96.538,74.137,96.61,75.318,96.689,76.593z M80.8,73.987
	c-0.177-0.018-0.302-0.044-0.427-0.042c-1.55,0.04-3.101,0.082-4.652,0.126c-0.728,0.021-1.314-0.255-1.86-0.905
	c0-0.398,0.012-0.879-0.003-1.36c-0.018-0.514-0.06-1.027-0.56-1.458c-0.23,0.165-0.45,0.323-0.688,0.493
	c0,1.861-0.063,3.671,0.021,5.476c0.061,1.291,0.327,2.57,1.27,3.536c2.442-0.107,4.839-0.213,7.334-0.323
	c-0.082-0.308-0.142-0.529-0.221-0.821c-1.681,0-3.297,0-4.914-0.001c-0.62,0-1.217-0.089-1.768-0.449
	c-0.14-0.648-0.277-1.278,0.469-1.894c1.95,0.131,4.023,0.271,6.137,0.414C81.049,75.761,81.056,74.879,80.8,73.987z
	 M112.952,78.822c-0.522-0.592-1.015-0.847-1.638-0.865c-1.999-0.055-3.999-0.135-5.998-0.18c-1.904-0.042-3.811-0.063-5.716-0.072
	c-0.955-0.003-1.91,0.041-2.943,0.066c0,0.753,0,1.413,0,2.161c5.364,0.023,10.694,0.088,16.081-0.139
	C112.826,79.394,112.892,79.097,112.952,78.822z M91.935,80.148c0-0.949,0.078-1.786-0.013-2.606
	c-0.311-2.759-0.672-5.515-0.61-8.301c0.001-0.061-0.038-0.122-0.085-0.26c-0.433-0.042-0.897-0.087-1.45-0.14
	c0,0.633,0,1.167,0,1.715c0.233,0.118,0.458,0.232,0.754,0.381c0.215,1.138,0.428,2.285,0.204,3.443
	c-0.362,0.116-0.629,0.202-0.868,0.278c0,1.171,0,2.283,0,3.418c0.566,0.052,1.034,0.096,1.581,0.146
	c0.047,0.351,0.086,0.641,0.133,0.987c-0.555,0.07-0.983,0.125-1.446,0.183c0.033,0.287,0.058,0.5,0.087,0.757
	C90.777,80.148,91.284,80.148,91.935,80.148z M89.288,80.208c-0.88-3.765-0.158-7.529-0.587-11.36
	c-0.579,0.057-1.127,0.112-1.718,0.171c0.111,0.566,0.197,1.002,0.277,1.408c0.354,0.104,0.625,0.183,0.993,0.292
	c0.182,1.133,0.343,2.266,0.24,3.437c-0.373,0.196-0.706,0.372-1.128,0.595c0.135,1.114,0.27,2.224,0.401,3.313
	c0.609,0.115,0.98,0.321,0.943,0.954c-0.187,0.149-0.403,0.323-0.649,0.519c0.059,0.215,0.115,0.427,0.181,0.672
	C88.574,80.208,88.878,80.208,89.288,80.208z M93.951,80.053c-0.206-3.721-0.322-7.326-0.732-10.913
	c-0.006-0.051-0.079-0.095-0.169-0.198c-0.201,0.011-0.445,0.026-0.76,0.044c-0.038,0.585-0.072,1.119-0.104,1.595
	c0.35,0.198,0.591,0.335,0.861,0.489c0,1.002,0,1.964,0,2.924c-0.198,0.178-0.383,0.343-0.599,0.536
	c0.166,1.134,0.328,2.249,0.47,3.219c0.311,0.464,0.547,0.818,0.734,1.101c-0.209,0.522-0.938,0.578-0.636,1.203
	C93.268,80.053,93.519,80.053,93.951,80.053z M82.547,78.187c1.412-0.107,2.762-0.211,4.196-0.32
	c-0.033-0.438-0.062-0.81-0.094-1.243c-1.432-0.048-2.789-0.005-4.228,0.288C82.464,77.343,82.5,77.711,82.547,78.187z
	 M86.357,74.35c-1.399,0.127-2.723,0.25-4.122,0.377c0.062,0.483,0.104,0.814,0.149,1.169c0.743-0.077,1.407-0.15,2.073-0.213
	c0.655-0.062,1.311-0.111,1.976-0.167c0.024-0.302,0.05-0.46,0.044-0.616C86.473,74.779,86.427,74.659,86.357,74.35z M86.263,70.89
	c-1.485-0.206-2.844-0.182-4.276,0.144c0.046,0.283,0.087,0.54,0.109,0.677c1.455,0,2.788,0,4.167,0
	C86.263,71.379,86.263,71.171,86.263,70.89z M82.778,79.798c1.476,0.102,2.876,0.197,4.354,0.298
	c-0.044-0.434-0.075-0.744-0.117-1.155c-1.491,0.057-2.923,0.11-4.422,0.167C82.668,79.385,82.707,79.533,82.778,79.798z
	 M86.374,73.278c-0.026-0.209-0.016-0.283-0.046-0.328c-0.051-0.073-0.128-0.18-0.197-0.182c-1.296-0.039-2.598-0.422-3.982,0.057
	c0.024,0.292,0.048,0.58,0.076,0.907C83.676,73.573,85.002,73.428,86.374,73.278z M82.128,69.821c1.36,0,2.683,0,4.074,0
	c-0.05-0.347-0.08-0.555-0.121-0.848c-1.131,0.076-2.22,0.142-3.308,0.229C82.453,69.228,82.108,69.276,82.128,69.821z
	 M94.559,74.467c0.108,1.209,0.207,2.306,0.309,3.444c0.299,0.021,0.498,0.034,0.725,0.049c0-1.124,0-2.168,0-3.25
	C95.255,74.631,94.987,74.568,94.559,74.467z M95.246,70.602c-0.121-0.613-0.217-1.098-0.32-1.623
	c-0.29,0.022-0.535,0.041-0.845,0.065c0.082,0.585,0.155,1.108,0.236,1.69C94.653,70.687,94.895,70.652,95.246,70.602z
	 M94.803,79.917c0.604,0.115,0.802-0.063,0.728-0.583c-0.166-0.043-0.336-0.087-0.567-0.146
	C94.905,79.449,94.861,79.647,94.803,79.917z"/>
<path fill-rule="evenodd" clip-rule="evenodd" fill="#f6da41" class="fill" d="M31.084,104.093c0-1.288,0-2.434,0-3.562
	c1.191,0,2.28,0.014,3.368-0.004c0.969-0.016,1.937-0.081,2.905-0.097c1.322-0.022,2.646-0.024,3.969-0.026
	c2.779-0.002,5.558-0.01,8.336,0.005c2.55,0.014,5.1,0.087,7.649,0.078c2.618-0.009,5.236-0.126,7.853-0.118
	c1.256,0.003,2.509,0.224,3.767,0.283c1.483,0.069,2.971,0.059,4.455,0.103c0.999,0.03,1.998,0.114,2.997,0.138
	c1.291,0.034,2.583,0.042,3.876,0.047c2.003,0.008,4.007-0.005,6.01,0.009c0.612,0.004,1.224,0.085,1.837,0.105
	c1.323,0.043,2.646,0.087,3.97,0.1c2.066,0.02,4.133,0.011,6.198,0.019c2.065,0.007,4.131,0.014,6.195,0.033
	c3.192,0.028,6.386,0.05,9.578,0.104c2.392,0.04,4.783,0.181,7.175,0.178c2.976-0.003,5.951-0.119,8.928-0.164
	c2.608-0.039,5.218-0.056,7.828-0.068c3.001-0.015,6.003,0.016,9.003-0.027c3.413-0.048,6.825-0.195,10.238-0.221
	c1.84-0.014,3.68,0.157,5.521,0.205c1.16,0.03,2.323-0.014,3.485-0.026c0.161-0.001,0.323-0.023,0.483-0.015
	c1.74,0.093,3.479,0.206,5.22,0.277c0.932,0.039,1.866,0.007,2.769,0.007c0.867,0.737,1.826,1.321,2.045,2.524
	c-0.551,0.598-1.191,0.836-1.936,0.825c-1.746-0.026-3.491-0.076-5.237-0.08c-2.589-0.004-5.177,0.004-7.766,0.042
	c-4.365,0.065-8.731,0.183-13.098,0.23c-3.072,0.033-6.146,0.03-9.218-0.037c-2.618-0.058-5.234-0.231-7.853-0.345
	c-0.904-0.04-1.811-0.076-2.716-0.079c-3.785-0.011-7.57-0.057-11.354,0.004c-4.01,0.064-8.018,0.239-12.026,0.357
	c-3.652,0.107-7.304,0.289-10.955,0.288c-6.115-0.004-12.229-0.154-18.344-0.192c-4.204-0.025-8.408,0.081-12.611,0.042
	c-2.877-0.027-5.752-0.201-8.628-0.312c-1.875-0.072-3.752-0.113-5.625-0.23c-3.779-0.237-7.56-0.337-11.346-0.25
	c-1.941,0.045-3.884,0.014-5.826,0C31.861,104.242,31.518,104.154,31.084,104.093z"/>
<path fill-rule="evenodd" clip-rule="evenodd" fill="#f6da41" class="fill" d="M177.313,109.393c-2.974,0.101-5.814,0.235-8.656,0.281
	c-2.715,0.044-5.432,0.014-8.146-0.016c-2.424-0.028-4.848-0.102-7.271-0.153c-3.106-0.064-6.211-0.116-9.316-0.189
	c-1.486-0.035-2.973-0.149-4.459-0.152c-1.583-0.003-3.165,0.115-4.748,0.119c-2.393,0.007-4.784-0.068-7.175-0.056
	c-2.747,0.013-5.493,0.087-8.24,0.126c-0.775,0.011-1.552-0.024-2.327-0.006c-0.645,0.014-1.288,0.077-1.933,0.113
	c-0.354,0.02-0.712,0.066-1.063,0.037c-3.101-0.25-6.201-0.137-9.305-0.072c-2.39,0.05-4.783-0.092-7.175-0.092
	c-6.859,0-13.719,0.033-20.577,0.046c-3.457,0.007-6.914-0.021-10.37,0.002c-3.85,0.025-7.697,0.108-11.547,0.129
	c-1.907,0.011-3.815-0.069-5.723-0.096c-3.459-0.049-6.92-0.046-10.378-0.145c-2.384-0.069-4.765-0.273-7.273-0.425
	c-0.192-1.168-0.372-2.262-0.567-3.447c1.247,0,2.337,0.017,3.425-0.003c2.132-0.038,4.265-0.116,6.397-0.137
	c1.001-0.01,2.002,0.084,3.004,0.116c2.837,0.089,5.676,0.146,8.512,0.262c3.131,0.126,6.258,0.352,9.39,0.441
	c2.547,0.073,5.098,0.005,7.646,0.003c1.646,0,3.294,0.011,4.94,0.006c1.58-0.005,3.16-0.046,4.74-0.03
	c3.003,0.031,6.004,0.101,9.007,0.138c1.549,0.018,3.098-0.004,4.646,0.004c2.094,0.01,4.189,0.077,6.282,0.037
	c2.875-0.056,5.749-0.202,8.624-0.286c2.037-0.059,4.075-0.071,6.113-0.114c3.008-0.064,6.016-0.169,9.024-0.194
	c2.972-0.025,5.945-0.012,8.917,0.057c2.354,0.054,4.705,0.217,7.058,0.332c0.161,0.008,0.323,0.016,0.484,0.019
	c1.29,0.027,2.579,0.068,3.869,0.074c1.775,0.009,3.552,0,5.328-0.02c2.581-0.027,5.167,0.025,7.74-0.129
	c4.196-0.251,8.392-0.111,12.587-0.179c1.808-0.029,3.62,0.066,5.427,0.184c0.518,0.034,1.113,0.23,1.504,0.556
	c0.584,0.485,1.062,1.122,1.493,1.757C177.384,108.527,177.286,108.94,177.313,109.393z"/>
<path fill-rule="evenodd" clip-rule="evenodd" fill="#f6da41" class="fill" d="M189.254,102.71c-0.196,0.155-0.267,0.219-0.345,0.271
	c-1.066,0.686-1.124,1.284-0.21,2.112c0.279,0.252,0.538,0.528,0.935,0.919c-3.726,0.88-7.04,2.527-10.82,3.086
	c0.231-1.45-0.77-2.172-1.588-3.034c1.029-1.755,0.842-3.317-0.786-4.647c0.468-0.744,1.483-1.22,0.977-2.483
	c0.493,0.089,0.835,0.113,1.149,0.215c3.253,1.06,6.501,2.132,9.748,3.203C188.583,102.441,188.846,102.553,189.254,102.71z"/>
<path fill-rule="evenodd" clip-rule="evenodd" fill="#f6da41" class="fill" d="M2.951,97.409c0.274-0.072,0.444-0.117,0.616-0.162
	c0.073,0.13,0.149,0.207,0.16,0.292c0.075,0.61,0.145,1.221,0.2,1.833c0.082,0.914,0.311,1.205,1.214,1.343
	c0.703,0.108,1.415,0.173,2.125,0.209c1.453,0.074,2.908,0.115,4.362,0.176c0.22,0.01,0.438,0.053,0.758,0.093
	c0,1.408,0,2.782,0,4.23c-2.669,0.107-5.283,0.004-7.968,0.375c-0.108,0.563-0.209,1.082-0.287,1.488
	c0.367,0.581,0.803,0.6,1.269,0.651c2.004,0.221,4.001-0.083,6-0.037c0.317,0.008,0.635,0.033,1.029,0.054
	c-0.052,0.277-0.088,0.472-0.141,0.751c-1.927-0.063-3.798-0.116-5.668-0.188c-0.709-0.027-1.419-0.072-2.122-0.163
	c-0.984-0.125-1.323-0.492-1.37-1.541c-0.043-0.936-0.03-1.877,0.009-2.813C3.227,101.838,3.323,99.677,2.951,97.409z"/>
<path fill-rule="evenodd" clip-rule="evenodd" fill="#f6da41" class="fill" d="M25.115,107.694c-0.309-1.409-1.541-0.606-2.407-1.12
	c-0.203-0.883-0.439-1.91-0.698-3.033c0.622,0,1.148,0,1.808,0c-0.127-1.66,0.089-3.246-0.083-4.895
	c-0.567-0.056-1.001-0.099-1.541-0.152c0.027-0.457,0.053-0.883,0.082-1.383c0.882,0,1.67,0,2.421,0c0,1.942-0.105,3.875,0.03,5.789
	c0.135,1.883,0.515,3.748,0.797,5.692c-0.841-0.02-1.619,0.15-2.453-0.23C23.678,107.636,24.495,108.191,25.115,107.694z"/>
<path fill-rule="evenodd" clip-rule="evenodd" fill="#f6da41" class="fill" d="M18.9,103.688c0.595-0.093,1.062-0.167,1.521-0.238
	c0-1.366,0.018-2.708-0.018-4.049c-0.007-0.257-0.226-0.506-0.345-0.75c-0.399,0-0.718,0-1.114,0c0-0.451,0-0.914,0-1.481
	c0.749,0,1.469,0,2.258,0c0.216,0.521,0.1,1.105,0,1.654c-0.431,2.371-0.205,4.691,0.415,6.996c0.218,0.806,0.396,1.62,0.63,2.581
	c-0.586-0.054-1.07-0.098-1.551-0.142c-0.009-0.067-0.016-0.133-0.022-0.199c0.205-0.074,0.41-0.147,0.712-0.255
	c-0.071-0.282-0.138-0.54-0.213-0.833c-0.563-0.078-1.066-0.148-1.698-0.236C19.288,105.747,19.102,104.755,18.9,103.688z"/>
<path fill-rule="evenodd" clip-rule="evenodd" fill="#f6da41" class="fill" d="M27.61,108.746c-0.483-0.093-0.796-0.154-1.346-0.261
	c0.472-0.355,0.734-0.553,0.996-0.75c0.032-0.688-0.524-0.743-1.053-0.982c-0.173-1.079-0.356-2.216-0.547-3.396
	c0.331-0.13,0.59-0.231,0.931-0.365c0-1.15,0-2.334,0-3.667c-0.208-0.181-0.518-0.45-0.938-0.816
	c0.059-0.422,0.133-0.947,0.213-1.521c0.457-0.027,0.833-0.048,1.281-0.075C27.032,100.843,26.924,104.699,27.61,108.746z"/>
<path fill-rule="evenodd" clip-rule="evenodd" fill="#f6da41" class="fill" d="M30.186,103.44c0,1.095,0,2.147,0,3.275c-0.559,0-1.182,0-1.917,0
	c-0.1-1.072-0.193-2.077-0.282-3.047C28.774,103.329,29.155,103.288,30.186,103.44z"/>
<path fill-rule="evenodd" clip-rule="evenodd" fill="#f6da41" class="fill" d="M29.97,98.583c-0.586,0-1.157,0-1.849,0
	c0.04-0.594,0.077-1.151,0.12-1.789c0.614-0.056,1.182-0.107,1.772-0.161C30.296,97.321,30.136,97.932,29.97,98.583z"/>
<path fill-rule="evenodd" clip-rule="evenodd" fill="#f6da41" class="fill" d="M14.664,105.259c-0.075-0.398-0.128-0.677-0.199-1.056
	c1.161-0.352,2.291-0.074,3.459-0.145c0.036,0.335,0.063,0.577,0.102,0.931C16.894,105.08,15.822,105.166,14.664,105.259z"/>
<path fill-rule="evenodd" clip-rule="evenodd" fill="#f6da41" class="fill" d="M14.067,101.238c-0.024-0.327-0.04-0.536-0.062-0.811
	c1.229-0.36,2.446-0.334,3.753-0.369c0.028,0.314,0.052,0.576,0.082,0.913C16.542,101.062,15.334,101.148,14.067,101.238z"/>
<path fill-rule="evenodd" clip-rule="evenodd" fill="#f6da41" class="fill" d="M13.734,98.473c0.271-0.09,0.417-0.171,0.571-0.187
	c0.891-0.089,1.783-0.191,2.677-0.228c0.422-0.018,0.936-0.013,0.901,0.763c-1.305,0.129-2.595,0.257-3.965,0.394
	C13.866,99.006,13.81,98.778,13.734,98.473z"/>
<path fill-rule="evenodd" clip-rule="evenodd" fill="#f6da41" class="fill" d="M18.353,106.957c-1.193,0.118-2.267,0.223-3.398,0.334
	c-0.052-0.219-0.099-0.418-0.167-0.705c1.074-0.408,2.156-0.342,3.335-0.43C18.193,106.401,18.261,106.637,18.353,106.957z"/>
<path fill-rule="evenodd" clip-rule="evenodd" fill="#f6da41" class="fill" d="M14.256,102.625c0.176-0.082,0.347-0.22,0.527-0.234
	c0.962-0.076,1.926-0.129,2.891-0.158c0.082-0.003,0.172,0.231,0.337,0.469c-1.284,0.417-2.49,0.117-3.676,0.194
	C14.31,102.805,14.282,102.715,14.256,102.625z"/>
<path fill-rule="evenodd" clip-rule="evenodd" fill="#f6da41" class="fill" d="M13.821,97.041c0.567-0.447,2.765-0.668,3.75-0.485
	c0.146,0.027,0.271,0.167,0.381,0.361C16.562,97.025,15.2,97.179,13.821,97.041z"/>
<path fill-rule="evenodd" clip-rule="evenodd" fill="#f6da41" class="fill" d="M15.601,108.473c1.026-0.183,2.063-0.487,3.099-0.037
	C17.679,108.903,16.646,108.746,15.601,108.473z"/>
<path fill-rule="evenodd" clip-rule="evenodd" fill="#f6da41" class="fill" d="M30.682,108.575c-0.695,0.363-1.604,0.266-2.266-0.22
	C29.274,108.008,29.977,108.32,30.682,108.575z"/>
</svg>
