<svg version="1.1" id="svg" xmlns="http://www.w3.org/2000/svg" xmlns:xlink="http://www.w3.org/1999/xlink" x="0px" y="0px"
	 width="200px" height="200px" viewBox="0 0 200 200" enable-background="new 0 0 200 200" xml:space="preserve">
<path class="stroke" fill="#670431"  d="M138.908,72.592c-0.133-3.123-0.141-6.298-0.747-9.341c-0.611-3.068-1.752-6.059-2.911-8.985
	c-1.913-4.829-4.8-9.038-8.729-12.485c-3.212-2.817-6.754-5.064-10.823-6.475c-4.705-1.632-9.436-3.156-14.419-3.618
	c-2.668-0.248-5.359-0.408-8.035-0.366c-2.49,0.039-4.954,0.4-7.429,0.894c-4.431,0.883-8.549,2.359-12.254,4.935
	c-1.879,1.307-3.72,2.672-5.541,4.06c-0.764,0.583-1.518,1.224-2.122,1.964c-0.748,0.915-1.33,1.965-1.996,2.95
	c-2.219,3.283-4.312,6.634-5.562,10.432c-0.353,1.072-0.658,2.16-1.018,3.23c-0.693,2.061-1.376,4.132-1.438,6.325
	c-0.082,2.906-0.225,5.821-0.073,8.719c0.141,2.691,0.541,5.381,1.009,8.04c0.254,1.446,0.889,2.826,1.354,4.236
	c0.269,0.816,0.412,1.708,0.839,2.431c0.817,1.382,1.716,2.732,2.728,3.977c1.121,1.379,2.339,2.699,3.637,3.912
	c1.782,1.664,3.564,3.372,5.556,4.759c3.277,2.281,6.789,4.183,10.666,5.312c3.893,1.133,7.836,1.997,11.887,2.325
	c3.154,0.255,6.303,0.485,9.431-0.275c0.559-0.136,1.161-0.088,1.785-0.128c0.38,1.324,0.739,2.573,1.099,3.823
	c0.238,0.827,0.507,1.646,0.713,2.481c0.587,2.371,1.155,4.747,1.72,7.124c0.489,2.057,1.021,4.107,1.433,6.18
	c0.74,3.732,1.343,7.492,2.119,11.216c0.946,4.542,1.996,9.064,3.03,13.588c0.743,3.25,1.533,6.49,2.307,9.734
	c0.226,0.948,0.468,1.893,0.681,2.754c1.713,0.624,2.814,0.57,4.995-0.185c1.203-0.417,1.539-0.976,1.316-2.25
	c-0.262-1.493-0.497-2.992-0.819-4.472c-0.79-3.628-1.622-7.247-2.439-10.869c-0.694-3.073-1.437-6.137-2.076-9.222
	c-0.511-2.474-0.839-4.985-1.353-7.458c-0.832-4.009-1.791-7.993-2.617-12.003c-0.833-4.036-1.57-8.092-2.368-12.242
	c1.059-0.392,2.161-0.695,3.167-1.192c2.399-1.189,4.799-2.392,7.115-3.732c2.999-1.736,5.919-3.6,7.806-6.669
	c0.465-0.757,1.109-1.403,1.605-2.144c1.195-1.779,2.595-3.472,3.476-5.399C137.91,83.459,139.145,78.151,138.908,72.592z"/>
<path fill-rule="evenodd" clip-rule="evenodd" fill="#fa57ac" class="fill" d="M110.53,116.777c0.569-0.253,1.244-0.552,1.899-0.843
	c3.37,15.657,6.712,31.182,10.085,46.855c-0.77,0.28-1.333,0.485-2.087,0.76C117.105,147.853,113.84,132.418,110.53,116.777z"/>
<path fill-rule="evenodd" clip-rule="evenodd" fill="#fa57ac" class="fill" d="M92.694,106.157c1.723-1.753,3.606-3.223,4-5.933
	c5.329-0.191,10.506-1.521,15.54-3.779c0.052,0.37,0.127,0.546,0.09,0.695c-0.544,2.172-1.388,4.223-2.46,6.191
	c-0.572,1.051-1.575,1.207-2.562,1.349c-3.207,0.461-6.418,0.888-9.632,1.287c-1.238,0.154-2.489,0.214-3.736,0.288
	C93.563,106.276,93.187,106.199,92.694,106.157z"/>
<path fill-rule="evenodd" clip-rule="evenodd" fill="#fa57ac" class="fill" d="M80.796,97.468c-2.069,1.599-4.014,2.425-6.456,2.308
	c-1.955-0.093-3.31-1.111-4.777-2.099c-2.433-1.637-4.161-3.986-6.169-6.051c-0.283-0.29-0.48-0.662-0.799-1.112
	c2.558-0.764,5.264-0.084,7.449-1.494C73.483,92.085,75.917,96.158,80.796,97.468z"/>
<path fill-rule="evenodd" clip-rule="evenodd" fill="#fa57ac" class="fill" d="M128.701,81.113c1.803,0.586,2.531,2.241,3.65,3.505
	c0.705,0.797,0.581,1.534,0.298,2.43c-0.844,2.677-2.423,4.88-4.326,6.873c-0.938,0.982-1.97,1.874-3.054,2.896
	c-0.543-2.634-1.043-5.054-1.555-7.537C125.289,86.703,126.972,83.945,128.701,81.113z"/>
<path fill-rule="evenodd" clip-rule="evenodd" fill="#fa57ac" class="fill" d="M129.234,74.954c-1.242,4.92-3.568,9.207-6.631,13.169
	c-0.413-2.352-0.06-4.847-1.994-6.833c2.513-3.108,2.551-7.023,3.132-10.915C126.009,71.383,127.042,73.761,129.234,74.954z"/>
<path fill-rule="evenodd" clip-rule="evenodd" fill="#fa57ac" class="fill" d="M128.402,61.455c-2.723-1.551-5.602-1.764-8.413-2.398
	c-1.696-1.875-3.468-3.833-5.323-5.885c1.525-1.416,3.456-2.207,5.604-3.151c1.503,1.616,3.118,3.161,4.498,4.894
	c1.213,1.523,2.192,3.24,3.209,4.91C128.235,60.249,128.247,60.823,128.402,61.455z"/>
<path fill-rule="evenodd" clip-rule="evenodd" fill="#fa57ac" class="fill" d="M64.55,75.607c-2.161-0.554-4.297-1.102-6.521-1.672
	c-0.197-4.528,0.395-8.894,1.5-13.227c0.91,1.231,1.747,2.359,2.579,3.492c0.104,0.143,0.206,0.298,0.265,0.463
	c0.443,1.253,0.44,1.254,1.425,1.667C64.042,69.361,64.287,72.373,64.55,75.607z"/>
<path fill-rule="evenodd" clip-rule="evenodd" fill="#fa57ac" class="fill" d="M101.893,50.011c-0.822,0.864-1.718,1.654-2.425,2.587
	c-0.702,0.928-1.214,1.998-1.792,2.978c-2.198,0.28-4.488,0.572-6.905,0.88c-0.739-0.784-0.593-1.898-0.627-2.931
	c-0.035-1.034,0.078-2.073,0.137-3.349c0.597-0.209,1.288-0.581,2.016-0.683c3.125-0.437,6.234-0.167,9.327,0.377
	C101.731,49.891,101.829,49.977,101.893,50.011z"/>
<path fill-rule="evenodd" clip-rule="evenodd" fill="#fa57ac" class="fill" d="M106.735,44.254c-1.912,1.237-3.762,2.434-5.649,3.654
	c-3.159,0-6.478,0-10.042,0c0.442-1.469,0.896-2.974,1.371-4.549C97.314,42.755,102.048,42.676,106.735,44.254z"/>
<path fill-rule="evenodd" clip-rule="evenodd" fill="#fa57ac" class="fill" d="M95.688,98.841c1.072-1.573,1.991-2.921,3.035-4.453
	c3.574-1.013,7.43-2.106,11.504-3.261c-0.513,1.765-1.026,3.531-1.488,5.122C104.475,98.193,100.209,98.462,95.688,98.841z"/>
<path fill-rule="evenodd" clip-rule="evenodd" fill="#fa57ac" class="fill" d="M75.756,86.273c2.916,2.32,5.875,4.825,9.611,6.583
	c-0.892,0.466-1.758,0.993-2.682,1.382c-0.948,0.399-1.953,0.664-3.129,1.052c-3.487-1.668-5.693-4.959-8.545-7.777
	C72.72,87.065,74.157,86.69,75.756,86.273z"/>
<path fill-rule="evenodd" clip-rule="evenodd" fill="#fa57ac" class="fill" d="M126.3,53.996c1.242-0.334,2.309-0.622,3.356-0.904
	c3.312,4.655,5.282,9.612,5.668,15.298c-1.626-0.549-2.905-1.616-4.716-1.708c-0.152-1.228-0.236-2.618-0.516-3.968
	c-0.335-1.616-0.716-3.244-1.309-4.777c-0.407-1.053-1.208-1.953-1.833-2.921C126.777,54.746,126.605,54.475,126.3,53.996z"/>
<path fill-rule="evenodd" clip-rule="evenodd" fill="#fa57ac" class="fill" d="M115.35,73.738c-1.301-1.702-3.203-2.139-5.19-2.64
	c-0.148-2.361-1.199-4.408-2.559-6.266c0.113-1.179,2.737-3.399,4.181-3.534C114.974,64.823,115.739,69.088,115.35,73.738z"/>
<path fill-rule="evenodd" clip-rule="evenodd" fill="#fa57ac" class="fill" d="M116.362,66.302c-1.18-2.895-2.389-5.672-5.12-7.614
	c1.476-1.178,2.997-1.698,4.673-1.913c3.329,3.484,5.18,7.684,6.295,12.502C120.294,67.952,118.825,66.189,116.362,66.302z"/>
<path fill-rule="evenodd" clip-rule="evenodd" fill="#fa57ac" class="fill" d="M76.209,68.197c0.271-3.157,0.672-6.545,2.536-9.818
	c0.412,2.816,1.858,4.782,3.855,6.494c-0.353,2.06-0.727,4.246-1.114,6.505c-1.313,0.046-2.205-0.75-3.125-1.479
	C77.729,69.396,77.097,68.898,76.209,68.197z"/>
<path fill-rule="evenodd" clip-rule="evenodd" fill="#fa57ac" class="fill" d="M102.848,72.592c-1.93-1.876-2.284-2.001-3.795-1.312
	c-0.317,1.295-1.71,1.977-3.018,2.004c-1.133,0.025-2.179-0.893-2.505-2.028c-0.102-0.355-0.371-0.666-0.456-1.023
	c-0.319-1.341,1.009-3.151,2.548-3.357c2.488-0.333,4.754,0.055,6.369,2.269C102.625,70.013,103.124,71.759,102.848,72.592z"/>
<path fill-rule="evenodd" clip-rule="evenodd" fill="#fa57ac" class="fill" d="M74.964,62.809c-0.551-0.59-1.195-1.227-1.776-1.917
	c-0.523-0.62-0.978-1.298-1.613-2.155c1.027-3.368,3.685-5.854,6.321-8.656c0.216,2,0.404,3.745,0.571,5.297
	C77.307,57.838,76.181,60.228,74.964,62.809z"/>
<path fill-rule="evenodd" clip-rule="evenodd" fill="#fa57ac" class="fill" d="M73.598,39.449c-0.508,2.248-1.828,4.415-0.811,6.537
	c-1.78,2.449-3.424,4.71-5.136,7.064c-0.712-2.203-1.507-4.362-0.831-7.159c1.946-2.012,4.184-4.324,6.419-6.635
	C73.359,39.32,73.479,39.384,73.598,39.449z"/>
<path fill-rule="evenodd" clip-rule="evenodd" fill="#fa57ac" class="fill" d="M98.812,89.474c-0.806,1.133-1.623,2.282-2.526,3.552
	c-3.855,0.374-7.52-0.812-11.208-2.276c1.701-0.798,3.27-1.535,5.084-2.388C92.792,88.7,95.738,89.079,98.812,89.474z"/>
<path fill-rule="evenodd" clip-rule="evenodd" fill="#fa57ac" class="fill" d="M83.245,38.659c0.589-1.538,1.196-3.122,1.734-4.527
	c3.213-1.203,6.269-1.386,9.4-1.331c-0.611,1.334-1.173,2.562-1.776,3.88C89.634,37.309,86.54,37.962,83.245,38.659z"/>
<path fill-rule="evenodd" clip-rule="evenodd" fill="#fa57ac" class="fill" d="M78.728,81.421c-1.509,0.121-3.045,0.245-4.634,0.372
	c-2.262-2.61-3.329-5.671-3.829-9.162c1.768,0.766,3.333,1.444,4.845,2.1C76.282,76.898,77.466,79.087,78.728,81.421z"/>
<path fill-rule="evenodd" clip-rule="evenodd" fill="#fa57ac" class="fill" d="M66,62.241c0.889,0.705,1.673,1.326,2.431,1.927
	c0.342,4.406-0.402,8.914,1.249,13.347c-0.914-0.173-1.549-0.412-2.228-0.955c-1.75-1.399-1.526-3.352-1.638-5.152
	c-0.161-2.606-0.07-5.229-0.057-7.844C65.759,63.134,65.911,62.704,66,62.241z"/>
<path fill-rule="evenodd" clip-rule="evenodd" fill="#fa57ac" class="fill" d="M97.537,61.152c-1.841,0.454-3.847,0.949-6.085,1.501
	c-0.304-1.357-0.623-2.779-0.973-4.343c3.433-1.203,6.968-1.127,10.316-1.198C99.751,58.406,98.659,59.761,97.537,61.152z"/>
<path fill-rule="evenodd" clip-rule="evenodd" fill="#fa57ac" class="fill" d="M90.588,82.449c1.171-0.94,2.207-1.771,3.106-2.493
	c0.119-0.613,0.194-1.002,0.248-1.279c1.873,0,3.639,0,5.497,0c0.212,1.923-0.273,3.615-1.148,5.288
	C95.542,84.406,93.027,83.757,90.588,82.449z"/>
<path fill-rule="evenodd" clip-rule="evenodd" fill="#fa57ac" class="fill" d="M118.159,46.519c-2.592-1.079-5.263-2.191-8.21-3.419
	c1.127-0.879,2.154-1.68,3.231-2.52c3.129,1.328,6.196,2.681,9.177,4.474C120.826,45.588,119.497,46.052,118.159,46.519z"/>
<path fill-rule="evenodd" clip-rule="evenodd" fill="#fa57ac" class="fill" d="M111.871,88.253c0.221-1.778,0.417-3.358,0.65-5.246
	c1.711-1.336,2.912-3.428,3.911-5.927c0.75,1.197,1.404,2.24,2.058,3.283c-0.039,0.026-0.078,0.053-0.116,0.08
	c0.211,0.156,0.422,0.311,0.744,0.547C116.956,83.624,115.044,86.42,111.871,88.253z"/>
<path fill-rule="evenodd" clip-rule="evenodd" fill="#fa57ac" class="fill" d="M79.695,46.347c-2.468,2.451-4.841,4.809-7.416,7.367
	c-0.239-1.232-0.452-2.332-0.7-3.605c2.123-2.639,4.749-4.841,7.766-6.858C79.479,44.442,79.594,45.459,79.695,46.347z"/>
<path fill-rule="evenodd" clip-rule="evenodd" fill="#fa57ac" class="fill" d="M104.455,74.038c-0.105-1.446-0.209-2.877-0.331-4.561
	c1.146-0.284,2.472-0.614,3.755-0.932c1.287,2.556,1.684,6.421-0.405,9.047C106.445,76.381,105.417,75.17,104.455,74.038z"/>
<path fill-rule="evenodd" clip-rule="evenodd" fill="#fa57ac" class="fill" d="M97.645,87.676c0.157-0.17,0.314-0.342,0.471-0.512
	c-0.083-0.041-0.167-0.082-0.25-0.123c0.287-0.609,0.574-1.218,0.832-1.767c3.041-0.768,5.722-1.941,7.991-4.264
	c0.778,1.502,0.407,2.807-0.146,4.15c-2.747,1.543-5.725,2.3-8.785,2.782C97.72,87.854,97.682,87.765,97.645,87.676z"/>
<path fill-rule="evenodd" clip-rule="evenodd" fill="#fa57ac" class="fill" d="M83.399,78.924c1.559,1.614,2.973,3.078,4.361,4.515
	c-0.797,0.644-2.449,0.008-4.076,0.568c-1.366-1.474-2.759-2.975-4.191-4.521C81.04,79.264,82.459,79.06,83.399,78.924z"/>
<path fill-rule="evenodd" clip-rule="evenodd" fill="#fa57ac" class="fill" d="M104.009,36.417c0.409-0.548,0.893-1.195,1.492-1.996
	c3.458,0.618,6.941,1.647,10.148,3.741c-0.438,0.347-0.849,0.674-1.195,0.948C110.935,38.203,107.477,37.311,104.009,36.417z"/>
<path fill-rule="evenodd" clip-rule="evenodd" fill="#fa57ac" class="fill" d="M83.249,73.007c-0.3-1.438-0.226-3.124,0.388-4.865
	c1.183,0.291,2.377,0.584,3.518,0.864c0.166,1.635,0.329,3.25,0.502,4.951C86.262,74.329,84.771,74.538,83.249,73.007z"/>
<path fill-rule="evenodd" clip-rule="evenodd" fill="#fa57ac" class="fill" d="M93.278,38.958c2.431-0.743,4.794-1.253,7.42-0.694
	c-0.716,1.156-1.329,2.146-1.827,2.951c-2.329,0.144-4.447,0.274-6.731,0.414C92.537,40.698,92.892,39.865,93.278,38.958z"/>
<path fill-rule="evenodd" clip-rule="evenodd" fill="#fa57ac" class="fill" d="M95.63,77.287c-3.243,0.037-5.236-1.357-6.296-4.255
	c1.004-0.183,2.019-0.368,3.045-0.555c0.993,1.38,1.442,1.616,4.142,2.065C96.212,75.496,95.915,76.411,95.63,77.287z"/>
<path fill-rule="evenodd" clip-rule="evenodd" fill="#fa57ac" class="fill" d="M98.801,65.279c-1.512,0.121-2.946,0.235-4.782,0.381
	c-0.313-0.312-0.899-0.896-1.588-1.583c2.896-1.287,5.636-1.762,8.538-0.808C100.201,63.98,99.453,64.674,98.801,65.279z"/>
</svg>
