<svg version="1.1" id="svg" xmlns="http://www.w3.org/2000/svg" xmlns:xlink="http://www.w3.org/1999/xlink" x="0px" y="0px"
	 width="200px" height="200px" viewBox="0 0 200 200" enable-background="new 0 0 200 200" xml:space="preserve">
<path class="stroke" fill="#3b4954"  d="M155.305,129.872c-3.555-2.827-7.324-5.289-11.395-7.292c-3.037-1.494-6.175-2.807-9.116-4.469
	c-4.982-2.818-10.211-5.048-15.531-7.105c-1.28-0.495-2.542-0.924-3.901-0.519c-1.29-0.929-2.52-1.815-3.973-2.861
	c0.104-0.989,0.067-1.9,0.31-2.73c1.239-4.254,2.14-8.547,1.728-13.013c-0.191-2.076-0.357-4.163-0.721-6.211
	c-0.295-1.661-0.813-3.289-1.333-4.899c-0.854-2.649-1.8-5.347-3.991-7.168c-1.848-1.536-3.914-2.897-6.07-3.955
	c-3.842-1.885-8.087-2.419-12.278-3.032c-0.608-0.089-1.241-0.011-1.862,0.003c-3.623,0.083-6.985,1.262-10.332,2.487
	c-5.473,2.006-10.493,4.742-14.506,9.08c-0.957,1.034-2.117,1.962-2.792,3.16c-1.94,3.438-3.726,6.966-5.465,10.512
	c-0.458,0.936-0.659,2.05-0.754,3.102c-0.437,4.812,1.086,9.122,3.54,13.173c2.621,4.327,6.215,7.723,10.195,10.766
	c1.835,1.403,3.905,2.289,6.105,2.841c4.837,1.214,9.701,1.363,14.599,0.249c5.299-1.205,10.487-2.676,15.207-5.686
	c1.937,1.206,3.891,2.42,5.865,3.646c-0.072,0.756-0.142,1.478-0.226,2.362c0.733,0.652,1.433,1.388,2.243,1.971
	c1.373,0.991,2.798,1.915,4.232,2.816c6.426,4.038,13.203,7.433,20.145,10.452c4.183,1.818,8.645,2.984,12.888,4.677
	c2.48,0.989,6.279-0.491,7.585-2.95c0.815-1.533,1.299-3.174,1.324-4.855C157.05,132.762,156.865,131.111,155.305,129.872z"/>
<path fill-rule="evenodd" clip-rule="evenodd" fill="#e5f3a5" class="fill" d="M82.342,116.174c-2.91,0.247-6.051-0.758-9.037-2.104
	c-2.785-1.256-5.263-3.051-7.189-5.513c-4.549-5.816-6.334-12.502-6.373-19.775c-0.015-2.914,1.046-5.526,2.744-7.678
	c4.388-5.566,10.059-9.345,17.041-10.944c2.196-0.504,4.426-1.02,6.664-1.156c5.782-0.351,11.273,0.888,16.119,4.114
	c1.588,1.056,2.843,2.733,3.988,4.316c3.731,5.156,4.817,11.142,4.803,17.322c-0.008,3.446-1.376,6.62-3.253,9.504
	c-0.982,1.51-2.092,2.943-3.235,4.338c-1.572,1.917-3.67,3.175-5.856,4.255C94.451,114.981,87.659,116.371,82.342,116.174z
	 M86.423,70.74c-2.383-0.156-4.994,0.053-7.434,1c-2.573,0.997-5.143,2.094-7.527,3.472c-6.53,3.773-9.978,9.594-10.164,17.083
	c-0.128,5.161,1.902,9.813,4.697,14.088c1.536,2.35,3.522,4.405,6.082,5.511c4.791,2.067,9.695,3.43,15.124,2.585
	c6.33-0.985,11.765-3.364,16.184-8.052c4.103-4.352,6.273-9.453,6.27-15.442c-0.002-4.076-1.706-7.551-3.997-10.78
	c-1.238-1.746-2.398-3.606-4.259-4.772C96.894,72.612,92.198,70.336,86.423,70.74z"/>
<path fill-rule="evenodd" clip-rule="evenodd" fill="#e5f3a5" class="fill" d="M141.808,126.412c-2.165,0.699-2.663,2.872-3.939,4.332
	c-0.767,0.005-0.924-0.448-0.697-1c0.406-0.986,0.891-1.941,1.365-2.896c0.139-0.279,0.354-0.521,0.718-1.047
	c-2.345,0.448-2.861,2.357-3.936,3.708c-0.251-0.115-0.444-0.205-0.831-0.381c0.734-1.712,1.449-3.378,2.298-5.359
	c-2.28,0.946-2.607,3.118-3.913,4.579c-0.323-0.132-0.657-0.269-1.06-0.432c0.467-2.083,1.737-3.683,2.608-5.501
	c-1.147,0.214-1.656,1.186-2.324,1.894c-0.724,0.767-1.242,1.726-1.905,2.682c-0.373-0.144-0.707-0.272-1.047-0.402
	c0.039-2.179,1.701-3.543,2.556-5.652c-2.313,1.093-3.009,3.163-4.318,4.778c-0.364-0.179-0.695-0.342-1.096-0.541
	c0.206-2.027,1.437-3.554,2.374-5.453c-1.486,0.076-1.967,1.087-2.513,1.935c-0.577,0.892-1.042,1.856-1.595,2.858
	c-0.312-0.092-0.558-0.164-0.878-0.259c0.41-1.984,1.125-3.759,2.282-5.395c-2.376,0.561-2.677,3.136-4.369,4.353
	c0.158-2.347,1.417-4.211,2.536-6.447c-0.532,0.169-0.915,0.17-1.051,0.354c-0.869,1.177-1.696,2.386-2.509,3.603
	c-0.276,0.412-0.473,0.879-0.746,1.396c-0.418-0.248-0.743-0.44-1.118-0.662c0.246-2.126,1.523-3.743,2.708-5.802
	c-2.679,0.788-2.996,3.223-4.379,4.811c-0.216-0.094-0.452-0.196-0.867-0.377c0.796-1.721,1.56-3.374,2.406-5.204
	c-1.312,0.138-1.712,1.132-2.268,1.889c-0.547,0.748-1.014,1.555-1.627,2.507c-0.84-1.324,0.191-1.956,0.542-2.697
	c0.371-0.788,0.948-1.481,1.562-2.407c-2.436,0.14-2.615,2.764-4.431,3.329c0.718-2.403,2.299-4.1,4.498-5.579
	c1.777,0.695,3.613,1.401,5.439,2.13c5.202,2.074,10.189,4.599,15.141,7.204c2.848,1.498,5.788,2.819,8.629,4.33
	c1.884,1.001,3.664,2.194,5.472,3.29c-0.944,1.905-3.246,5.125-4.002,5.568c0.026-1.945,1.681-3.166,2.094-5.166
	c-0.479,0.236-0.812,0.297-0.971,0.495c-0.873,1.105-1.692,2.253-2.556,3.364c-0.235,0.301-0.563,0.53-1.094,1.017
	c-0.24-2.393,1.185-3.774,1.752-5.501c-2.112,0.7-2.527,2.906-3.795,4.458c-0.347-0.164-0.622-0.294-0.861-0.407
	c0.147-2.188,1.32-3.841,2.327-5.595c-2.396,0.71-2.877,3.179-4.501,4.625C139.84,129.696,141.171,128.209,141.808,126.412z"/>
<path fill-rule="evenodd" clip-rule="evenodd" fill="#e5f3a5" class="fill" d="M60.92,109.59c0.271-1.631,0.786-2.712,1.636-3.68
	c7.747,9.503,8.167,8.303,13.697,10.811c-0.096,1.241-0.096,1.241-1.246,2.655c-1.194,0.55-2.284,0.091-3.327-0.514
	c-2.948-1.709-5.65-3.738-7.961-6.261C62.776,111.571,61.818,110.556,60.92,109.59z"/>
<path fill-rule="evenodd" clip-rule="evenodd" fill="#e5f3a5" class="fill" d="M105.347,111.645c0.646-1.716,2.092-2.138,3.441-2.84
	c1.54,1.097,3.042,2.167,4.666,3.325c-0.877,1.158-1.646,2.173-2.473,3.264C109.072,114.123,107.211,112.885,105.347,111.645z"/>
<path fill-rule="evenodd" clip-rule="evenodd" fill="#e5f3a5" class="fill" d="M152.379,129.715c0.515,0.411,1.025,0.817,1.568,1.252
	c-0.214,0.632-0.388,1.149-0.603,1.786c-0.338-0.119-0.612-0.215-1.077-0.38c-0.624,0.736-1.293,1.527-1.943,2.295
	C150.022,133.562,150.512,132.351,152.379,129.715z"/>
<path fill-rule="evenodd" clip-rule="evenodd" fill="#e5f3a5" class="fill" d="M105.825,98.183c-0.118,3.08-1.037,5.644-3.189,7.864
	c-4.008,4.135-8.921,6.127-14.492,7.075c-4.09,0.696-8.048,0.233-11.87-0.949c-5.005-1.548-8.838-4.763-10.995-9.64
	c-1.024-2.314-1.914-4.724-2.533-7.174c-1.573-6.221,0.58-11.417,4.781-15.964c1.622-1.755,3.667-2.711,5.893-3.478
	c1.938-0.668,3.897-1.059,5.914-1.358c2.722-0.403,5.282-0.006,7.768,1.083c2.995,1.313,6.169,2.326,8.744,4.406
	c1.695,1.369,3.191,2.999,4.687,4.596c3.009,3.216,4.218,7.272,5.126,11.44C105.813,96.795,105.779,97.546,105.825,98.183z
	 M73.504,103.065c-0.446-0.953-0.877-1.582-1.043-2.274c-0.813-3.375-1.373-6.775,0.067-10.131c0.574-1.338,1.251-2.635,1.931-3.924
	c0.968-1.836,1.333-3.694,0.469-5.61c-2.426-1.609-5.396-0.834-6.779,1.806c-3.195,6.096-3.001,12.06,1.028,17.713
	c0.79,1.108,2.059,1.878,3.12,2.788c0.111,0.096,0.316,0.081,0.661,0.158C73.098,103.457,73.293,103.27,73.504,103.065z"/>
<path fill-rule="evenodd" clip-rule="evenodd" fill="#e5f3a5" class="fill" d="M103.004,79.133c-1.005,1.032-1.896,1.948-2.874,2.953
	c-0.358-0.403-0.637-0.718-0.938-1.056c0.943-0.934,1.815-1.795,2.821-2.79C102.318,78.515,102.658,78.821,103.004,79.133z"/>
<path fill-rule="evenodd" clip-rule="evenodd" fill="#e5f3a5" class="fill" d="M100.184,76.587c0.388,0.273,0.732,0.514,1.221,0.856
	c-0.963,1.024-1.833,1.949-2.76,2.935c-0.417-0.316-0.71-0.537-1.035-0.783C98.023,78.168,99.239,77.565,100.184,76.587z"/>
<path fill-rule="evenodd" clip-rule="evenodd" fill="#e5f3a5" class="fill" d="M101.412,83.89c-0.271-0.438-0.488-0.788-0.772-1.247
	c0.984-0.874,1.891-1.677,3.069-2.722c0.307,0.333,0.553,0.6,0.886,0.962C103.456,81.959,102.536,82.827,101.412,83.89z"/>
<path fill-rule="evenodd" clip-rule="evenodd" fill="#e5f3a5" class="fill" d="M103.321,86.2c1.023-0.885,1.858-1.606,2.782-2.406
	c0.322,0.521,0.519,0.84,0.68,1.101c-0.86,0.93-1.656,1.79-2.606,2.818C103.864,87.161,103.641,86.767,103.321,86.2z"/>
<path fill-rule="evenodd" clip-rule="evenodd" fill="#e5f3a5" class="fill" d="M96.688,78.987c-0.476-0.354-0.851-0.633-1.403-1.044
	c0.925-0.9,1.721-1.674,2.573-2.503c0.478,0.208,0.855,0.372,1.451,0.632C98.383,77.102,97.582,77.992,96.688,78.987z"/>
<path fill-rule="evenodd" clip-rule="evenodd" fill="#e5f3a5" class="fill" d="M101.923,84.498c0.917-0.939,1.769-1.812,2.72-2.784
	c0.445,0.548,0.673,0.83,1.004,1.236c-0.95,0.89-1.839,1.723-2.823,2.645C102.538,85.247,102.316,84.977,101.923,84.498z"/>
<path fill-rule="evenodd" clip-rule="evenodd" fill="#e5f3a5" class="fill" d="M95.755,74.253c0.416,0.24,0.742,0.425,1.237,0.71
	c-0.806,0.885-1.54,1.689-2.303,2.526c-0.427-0.146-0.778-0.264-1.165-0.395C93.756,75.748,94.81,75.153,95.755,74.253z"/>
<path fill-rule="evenodd" clip-rule="evenodd" fill="#e5f3a5" class="fill" d="M90.919,75.774c-0.455-0.192-0.834-0.354-1.491-0.631
	c0.954-0.824,1.732-1.497,2.537-2.193c0.369,0.168,0.649,0.296,1.067,0.487C92.279,74.271,91.625,74.995,90.919,75.774z"/>
<path fill-rule="evenodd" clip-rule="evenodd" fill="#e5f3a5" class="fill" d="M107.567,86.893c-0.891,1.063-1.598,1.906-2.428,2.897
	c-0.251-0.542-0.421-0.909-0.624-1.348c0.876-0.796,1.683-1.53,2.596-2.36C107.347,86.501,107.52,86.809,107.567,86.893z"/>
<path fill-rule="evenodd" clip-rule="evenodd" fill="#e5f3a5" class="fill" d="M107.909,88.242c0.202,0.652,0.28,0.903,0.369,1.192
	c-0.769,0.846-1.527,1.68-2.448,2.692c-0.178-0.637-0.276-0.987-0.383-1.368C106.212,89.978,106.939,89.234,107.909,88.242z"/>
<path fill-rule="evenodd" clip-rule="evenodd" fill="#e5f3a5" class="fill" d="M106.868,96.856c-0.107-0.506-0.175-0.719-0.193-0.937
	c-0.023-0.277-0.006-0.556-0.006-1.01c0.424-0.336,0.932-0.738,1.645-1.302c0,0.978,0,1.707,0,2.577
	C107.868,96.391,107.45,96.585,106.868,96.856z"/>
<path fill-rule="evenodd" clip-rule="evenodd" fill="#e5f3a5" class="fill" d="M108.364,91.056c0.046,0.778,0.077,1.3,0.106,1.775
	c-0.677,0.348-1.252,0.643-1.834,0.941C106.021,92.953,106.021,92.953,108.364,91.056z"/>
<path fill-rule="evenodd" clip-rule="evenodd" fill="#e5f3a5" class="fill" d="M92.55,76.514c-0.303-0.113-0.541-0.203-0.933-0.352
	c0.854-1.019,1.631-1.87,2.989-2.556C94.195,75.033,93.125,75.558,92.55,76.514z"/>
<path fill-rule="evenodd" clip-rule="evenodd" fill="#e5f3a5" class="fill" d="M88.164,74.359c0.627-0.847,0.97-2.17,2.589-1.67
	C89.963,73.637,89.375,74.515,88.164,74.359z"/>
<path fill-rule="evenodd" clip-rule="evenodd" fill="#e5f3a5" class="fill" d="M86.924,74.028c-0.389-0.172-0.689-0.304-1.07-0.473
	c0.09-0.259,0.12-0.482,0.232-0.647c0.532-0.779,1.237-0.818,2.262-0.429C87.806,73.069,87.369,73.545,86.924,74.028z"/>
<path fill-rule="evenodd" clip-rule="evenodd" fill="#e5f3a5" class="fill" d="M107.205,99.229c-0.515-1.355-0.515-1.355,0.572-1.715
	C107.559,98.167,107.381,98.697,107.205,99.229z"/>
<path fill-rule="evenodd" clip-rule="evenodd" fill="#e5f3a5" class="fill" d="M85.08,72.489c-0.314,1.026-0.958,0.466-1.607,0.457
	C84.135,72.344,84.135,72.344,85.08,72.489z"/>
<path fill-rule="evenodd" clip-rule="evenodd" fill="#e5f3a5" class="fill" d="M82.047,72.827c-0.163,0.06-0.325,0.119-0.67,0.245
	c0.118-0.28,0.135-0.432,0.216-0.483c0.099-0.062,0.25-0.038,0.38-0.051C81.998,72.635,82.022,72.73,82.047,72.827z"/>
<path fill-rule="evenodd" clip-rule="evenodd" fill="#e5f3a5" class="fill" d="M71.329,100.963c-0.457-0.385-0.8-0.578-1.011-0.866
	c-2.371-3.25-3.872-6.829-3.323-10.907c0.258-1.922,0.902-3.852,1.705-5.626c0.991-2.198,3.089-2.756,5.346-1.682
	c0.77,1.429,0.487,2.864-0.22,4.294c-0.725,1.466-1.437,2.938-2.146,4.41c-0.834,1.733-1.011,3.568-0.824,5.459
	C71.01,97.601,71.155,99.156,71.329,100.963z"/>
</svg>
