<svg version="1.1" xmlns="http://www.w3.org/2000/svg" xmlns:xlink="http://www.w3.org/1999/xlink" x="0px" y="0px" width="200px"
	 height="200px" viewBox="0 0 200 200" enable-background="new 0 0 200 200" xml:space="preserve">
<g id="svg">
	<path class="stroke" fill="#1f4a69"  fill-rule="evenodd" clip-rule="evenodd" d="M46.008,58.495c1.019-0.748,2.02-1.521,3.066-2.227
		c0.292-0.196,0.716-0.231,1.087-0.271c1.165-0.126,2.342-0.158,3.498-0.337c2.7-0.418,5.246,0.188,7.728,1.127
		c0.595,0.225,1.061,0.794,1.538,1.167c2.88,0,5.764,0,8.862,0c2.171-1.764,4.214-2.384,9.96-3.018
		c0.669,0.6,1.38,1.237,2.147,1.925c0.424-0.023,0.887-0.049,1.402-0.077c1.553,0.719,3.166,1.466,4.813,2.229
		c6.277-3.311,9.81-1.589,12.481,3.106c3.064,0,6.264,0,9.373,0c1.023-0.488,1.951-1.138,2.974-1.37
		c1.379-0.313,2.829-0.349,4.253-0.419c1.052-0.052,2.113,0.091,3.165,0.035c0.967-0.051,1.809,0.084,2.369,0.82
		c2.27,0,4.46,0,6.55,0c1.196-2.116,2.975-3.058,5.109-3.237c2.585-0.216,5.187-0.246,7.733-0.354
		c0.374,0.534,0.64,0.916,0.989,1.416c3.142-0.262,6.336-0.051,9.38,1.118c2.304-1.795,4.79-1.16,7.137-0.564
		c2.329,0.591,4.882,0.982,6.363,3.426c1.994,0.571,4.059,0.46,6.126,0.2c0.214-0.027,0.449-0.175,0.606-0.333
		c1.259-1.262,2.789-1.71,4.544-1.739c1.633-0.027,3.262-0.303,4.896-0.347c1.788-0.048,2.738,1.23,3.453,2.608
		c0.657,1.268,0.238,2.506-0.404,3.49c-0.23,1.861-0.356,3.583-0.672,5.271c-0.537,2.87-0.991,5.782-1.861,8.557
		c-0.777,2.479-1.022,5.023-1.551,7.527c-0.598,2.833-1.106,5.686-1.632,8.534c-0.493,2.668-1.086,5.326-1.407,8.016
		c-0.401,3.369-1.53,6.532-2.416,9.766c-1.391,5.075-2.725,10.167-4.214,15.213c-0.907,3.072-1.925,6.122-3.651,8.878
		c-1.383,2.207-2.66,4.48-4.023,6.7c-1.579,2.571-3.238,5.085-5.345,7.274c-2.7,2.804-5.408,5.601-8.056,8.454
		c-2.542,2.739-5.603,4.722-9.063,5.976c-2.861,1.037-5.879,1.713-8.95,1.647c-3.446-0.074-6.301-1.678-8.752-4.001
		c-1.161-1.101-2.521-2.05-3.153-3.621c-0.315-0.784-0.633-1.568-0.946-2.353c-0.114-0.286-0.219-0.576-0.377-0.997
		c-0.759,0.901-1.385,1.705-2.073,2.451c-2.675,2.904-5.557,5.598-9.066,7.448c-3.175,1.674-6.56,1.958-10.047,0.881
		c-3.178-0.981-6.325-2.081-9.055-3.982c-2.833-1.972-5.482-4.209-8.201-6.344c-0.69-0.542-1.339-1.133-1.875-1.589
		c-4.282,2.166-8.422,4.417-12.7,6.361c-2.299,1.044-4.792,1.811-7.277,2.262c-4.069,0.739-8.191,1.259-12.314,1.6
		c-3.039,0.251-6.107-0.081-8.975-1.259c-2.649-1.088-4.973-2.7-6.979-4.768c-1.245-1.282-2.594-2.463-3.834-3.749
		c-2.03-2.105-4.072-4.223-5.365-6.892c-0.71-1.468-1.277-3.01-1.859-4.538c-1.295-3.395-1.604-7.005-2.229-10.544
		c-0.345-1.953-0.665-3.916-0.868-5.888c-0.215-2.091-0.288-4.198-0.407-6.298c-0.211-3.724-0.817-7.364-1.813-10.973
		c-0.513-1.859-0.542-3.874-0.617-5.825c-0.099-2.57-0.042-5.148-0.02-7.722c0.009-1.02,0.138-2.038,0.156-3.058
		c0.034-1.842-0.015-3.686,0.041-5.526c0.106-3.512,0.275-7.023,0.392-10.535c0.094-2.806,0.115-5.615,0.239-8.419
		c0.073-1.629,0.29-3.252,0.439-4.878c0.172-1.887,0.326-3.775,0.519-5.66c0.086-0.844,0.247-1.681,0.348-2.346
		c0.237-0.495,0.41-0.838,0.566-1.188c0.452-1.014,0.817-2.078,1.382-3.024c0.249-0.417,0.864-0.703,1.37-0.868
		c3.007-0.976,6.006-1.409,8.803,0.603c0.411,0.295,0.637,0.834,1.016,1.188c0.342,0.319,0.771,0.759,1.17,0.768
		c2.997,0.066,5.705,1.204,8.483,2.113c1.582,0.518,3.212,0.887,4.826,1.302c0.246,0.063,0.522,0.009,0.785,0.009
		C46.066,58.711,46.037,58.603,46.008,58.495z M64.458,95.602c0.771,2.031,1.48,3.898,2.182,5.745c0.541,0,0.916,0,1.28,0
		c0.19,0.229,0.354,0.427,0.635,0.766c1.379-2.226,2.709-4.371,4.07-6.568c-1.308-2.375-2.585-4.695-3.983-7.234
		C67.166,90.883,65.809,93.248,64.458,95.602z M163.562,105.979c1.669-1.832,2.859-4.064,4.29-6.06
		c-1.988-1.648-3.867-3.206-5.811-4.818c-1.457,2.033-2.817,3.932-4.302,6.006C159.655,102.709,161.539,104.287,163.562,105.979z
		 M34.628,140.456c-0.872-2.618-2.615-4.416-4.418-6.363c-1.521,2.022-2.989,3.975-4.564,6.07c1.57,1.856,3.099,3.665,4.76,5.629
		C31.926,143.871,33.282,142.156,34.628,140.456z M170.033,111.187c1.63-1.847,3.167-3.588,4.769-5.401
		c-2.018-1.756-3.907-3.4-5.841-5.082c-1.465,2.138-2.881,4.204-4.36,6.362C166.398,108.429,168.177,109.779,170.033,111.187z
		 M39.176,74.307c-1.373-1.609-2.648-3.104-4.037-4.733c-1.702,2.803-3.306,5.444-4.873,8.024c0.805,1.525,2.975,3.728,3.979,4.092
		C35.878,79.245,37.511,76.8,39.176,74.307z M147.362,78.702c-1.708,2.07-3.325,4.031-5.086,6.166
		c1.532,1.766,3.029,3.488,4.631,5.334c1.628-2.146,3.124-4.117,4.686-6.176C150.211,82.288,148.901,80.638,147.362,78.702z
		 M40.187,121.938c-1.198,1.262-2.273,2.406-3.365,3.537c-0.388,0.402-0.438,0.805-0.11,1.254c0.669,0.921,1.352,1.833,2.008,2.763
		c0.631,0.896,1.237,1.808,1.909,2.794c1.671-2.15,3.24-4.17,4.834-6.222c-1.143-1.721-1.389-4.104-4.27-4.282
		C40.988,121.813,40.528,121.885,40.187,121.938z M76.963,88.158c-1.142-2.404-2.177-4.583-3.322-6.995
		c-1.779,1.78-2.807,3.9-4.26,5.598c1.405,2.586,2.717,5,4.029,7.416c0.139-0.002,0.278-0.002,0.417-0.004
		C74.888,92.139,75.949,90.105,76.963,88.158z M147.649,91.34c1.711,1.46,3.433,2.93,5.249,4.479
		c1.292-1.797,2.645-3.676,4.047-5.626c-1.58-1.686-3.092-3.3-4.657-4.969C150.807,87.176,149.382,89.054,147.649,91.34z
		 M152.367,108.383c-1.297,1.644-2.531,3.207-3.721,4.716c1.107,0.93,2.146,1.688,3.042,2.589c0.905,0.91,1.897,1.607,3.251,2.079
		c1.214-1.69,2.431-3.384,3.67-5.11C156.5,111.213,154.482,109.832,152.367,108.383z M77.687,86.302
		c0.123,0.002,0.246,0.005,0.369,0.008c1.21-2.357,2.42-4.714,3.627-7.063c-0.907-2.089-1.746-4.128-3.298-5.858
		c-1.266,2.123-2.502,4.14-3.659,6.201c-0.168,0.299-0.045,0.851,0.103,1.221c0.258,0.643,0.649,1.231,0.972,1.85
		C76.434,83.871,77.059,85.087,77.687,86.302z M44.606,140.233c-1.372,2.131-2.707,4.205-4.051,6.293
		c1.511,1.613,2.889,3.083,4.316,4.605c1.596-2.057,3.031-3.908,4.496-5.795C47.737,143.589,46.226,141.969,44.606,140.233z
		 M31.295,132.957c1.523,1.982,2.958,3.85,4.499,5.855c1.311-1.714,2.615-3.418,3.947-5.159c-1.456-2.049-2.877-4.049-4.403-6.198
		C33.875,129.446,32.569,131.223,31.295,132.957z M37.922,100.663c1.728-2.537,3.356-4.929,5.039-7.399
		c-1.202-1.448-2.369-2.854-3.593-4.33c-1.651,2.425-3.222,4.731-4.847,7.119C35.599,97.513,36.686,98.987,37.922,100.663z
		 M142.388,97.069c1.764,1.646,3.432,3.202,5.219,4.869c1.513-1.696,2.879-3.228,4.254-4.771c-1.827-1.654-3.528-3.194-5.329-4.823
		C145.356,93.685,143.96,95.277,142.388,97.069z M50.145,143.828c1.205-1.797,2.34-3.488,3.441-5.131
		c-1.439-2.084-2.774-4.016-4.196-6.075c-1.392,2.131-2.677,4.1-4.032,6.176C46.935,140.456,48.482,142.082,50.145,143.828z
		 M42.077,106.79c1.596-2.365,3.076-4.556,4.614-6.834c-0.888-1.694-1.76-3.357-2.63-5.02c-0.128-0.02-0.256-0.041-0.383-0.061
		c-1.605,2.352-3.211,4.704-4.841,7.09C39.897,103.544,40.917,105.064,42.077,106.79z M53.263,65.556
		c-0.13,0.009-0.26,0.019-0.39,0.029c-1.16,2.043-2.32,4.086-3.472,6.117c1.34,1.758,2.621,3.437,3.942,5.17
		c1.366-1.858,2.655-3.612,3.972-5.404C55.949,69.475,54.606,67.515,53.263,65.556z M26.754,115.385
		c-1.239-1.959-2.454-3.878-3.668-5.797c-0.099,0.031-0.199,0.062-0.298,0.094c-0.778,2.003-3.229,3.222-2.687,5.834
		c0.444,2.146,0.126,4.57,2.163,6.167C23.758,119.587,25.257,117.484,26.754,115.385z M22.39,67.944
		c1.078,1.529,2.074,2.942,3.163,4.487c1.988-2.511,3.938-4.973,5.939-7.5c-0.942-1.268-1.803-2.429-2.708-3.647
		C26.572,63.587,24.491,65.755,22.39,67.944z M156.751,102.119c-1.222,1.685-2.395,3.303-3.631,5.01
		c2.109,1.471,4.16,2.901,6.355,4.432c1.127-1.524,2.16-2.92,3.222-4.357C160.694,105.49,158.781,103.855,156.751,102.119z
		 M49.996,155.642c1.668,1.749,3.325,3.486,5.048,5.292c1.18-1.858,2.272-3.58,3.374-5.315c-1.435-1.776-2.82-3.492-4.302-5.326
		C52.725,152.098,51.415,153.8,49.996,155.642z M32.703,109.314c-1.042,2.467-3.375,3.857-4.054,6.396
		c1.095,1.41,2.16,2.78,3.394,4.368c1.676-2.156,3.24-4.168,4.804-6.18C35.47,112.376,34.181,110.95,32.703,109.314z
		 M142.908,73.083c-1.569,1.664-3.104,3.292-4.756,5.045c1.112,1.769,2.232,3.55,3.416,5.432c1.748-2.13,3.355-4.092,4.942-6.025
		C145.315,76.06,144.163,74.635,142.908,73.083z M24.357,96.977c1.275,1.493,2.492,2.918,3.699,4.331
		c2.036-1.417,3.442-3.275,4.542-5.478c-1.166-1.521-2.321-3.029-3.555-4.638C27.388,93.236,25.887,95.089,24.357,96.977z
		 M114.28,96.467c1.258,1.283,1.993,3.034,3.835,4.039c1.428-2.276,2.835-4.52,4.33-6.904c-1.145-1.219-2.212-2.357-3.338-3.556
		C117.052,91.913,115.942,94.367,114.28,96.467z M181.526,81.08c-2.208-1.999-4.369-3.955-6.549-5.928
		c-0.951,1.44-1.859,2.817-2.781,4.213c1.845,2.187,4.122,3.68,6.38,5.344C179.63,83.413,180.564,82.263,181.526,81.08z
		 M52.697,78.569c-1.337-1.769-2.603-3.443-3.99-5.277c-1.273,2.179-2.46,4.211-3.673,6.286c1.216,1.64,2.399,3.234,3.636,4.901
		C50.044,82.463,51.336,80.567,52.697,78.569z M145.817,91.213c-1.531-1.687-3.019-3.327-4.531-4.993
		c-1.007,1.101-2.044,2.242-3.092,3.375c-0.639,0.691-1.044,1.359-0.063,2.116c0.214,0.165,0.271,0.518,0.452,0.743
		c0.956,1.186,1.929,2.357,3,3.662C143.127,94.327,144.495,92.744,145.817,91.213z M33.617,94.684
		c1.594-2.406,3.099-4.677,4.629-6.987c-1.331-1.271-2.55-2.435-3.771-3.601c-1.432,1.971-2.856,3.931-4.405,6.062
		C31.116,91.494,32.262,92.956,33.617,94.684z M53.758,79.714c-1.44,2.153-2.763,4.133-4.078,6.101
		c1.019,1.797,2.012,3.549,3.091,5.452c1.322-2.41,3.271-4.324,4.186-6.82C55.881,82.855,54.898,81.401,53.758,79.714z
		 M43.649,91.854c0.347-0.476,0.604-0.824,0.856-1.175c0.956-1.329,1.922-2.65,2.85-3.999c0.145-0.211,0.224-0.6,0.13-0.819
		c-0.764-1.792-2.052-3.213-3.384-4.791c-1.413,2.232-2.744,4.337-4.052,6.404C41.309,89.006,42.438,90.382,43.649,91.854z
		 M40.074,75.627c-1.641,2.432-3.185,4.722-4.772,7.075c1.115,1.326,2.084,2.737,3.789,3.52c1.405-2.227,2.768-4.383,4.16-6.589
		C42.17,78.27,41.139,76.97,40.074,75.627z M27.969,103.677c-1.392,1.595-2.73,3.128-4.084,4.678
		c1.42,1.824,2.217,3.955,3.827,5.548c1.425-1.974,2.75-3.809,4.075-5.646C30.528,106.748,29.307,105.284,27.969,103.677z
		 M31.077,121.262c-1.161-1.531-2.291-3.021-3.562-4.697c-1.537,2.316-2.979,4.489-4.384,6.607c0.998,1.349,1.905,2.574,2.935,3.966
		C27.801,125.104,29.388,123.244,31.077,121.262z M135.647,126.613c-0.825,0.771-1.609,1.504-2.577,2.41
		c1.407,2.113,2.769,4.157,4.288,6.438c1.803-1.51,3.42-2.864,5.224-4.375c-0.772-0.577-1.334-1.079-1.97-1.453
		c-1.156-0.679-2.37-1.258-3.531-1.928C136.583,127.418,136.159,127.008,135.647,126.613z M58.385,119.337
		c-0.435,0.965-0.771,1.717-1.201,2.673c-1.372,0.115-2.152,1.246-2.884,2.647c1.292,1.747,2.628,3.551,4,5.403
		c1.271-1.979,2.451-3.815,3.639-5.664C60.798,122.771,59.69,121.194,58.385,119.337z M118.812,87.765
		c0.798-1.139,1.463-2.023,2.059-2.953c0.616-0.96,1.139-1.98,1.75-2.944c1.132-1.785,0.451-4.067-1.701-5.089
		c-1.65,2.379-3.318,4.783-4.996,7.204C116.948,85.324,117.822,86.468,118.812,87.765z M168.994,84.744
		c-1.042,1.434-1.98,2.726-2.975,4.096c2.02,1.65,3.779,3.471,6.113,4.774c0.985-1.417,1.908-2.746,2.902-4.176
		C172.965,87.831,171.011,86.312,168.994,84.744z M57.554,131.695c-1.389-1.913-2.717-3.743-4.133-5.693
		c-1.117,1.756-2.14,3.367-3.178,4.999c1.377,2.029,2.664,3.925,4.043,5.958C55.437,135.106,56.479,133.426,57.554,131.695z
		 M43.278,66.743c-1.051-1.487-2.08-2.944-3.256-4.607c-1.378,2.103-2.614,3.944-3.781,5.828c-0.139,0.224-0.015,0.757,0.173,1.011
		c0.572,0.776,1.216,1.503,1.87,2.214c0.462,0.503,0.986,0.95,1.52,1.458C40.981,70.646,42.089,68.763,43.278,66.743z
		 M66.561,130.335c-1.228-1.552-2.395-3.029-3.753-4.745c-1.295,2.151-2.432,4.038-3.584,5.953c1.155,1.615,2.226,3.112,3.373,4.714
		C63.973,134.201,65.218,132.34,66.561,130.335z M55.97,98.8c0.996,1.656,1.948,3.238,2.899,4.82
		c0.114-0.006,0.229-0.012,0.343-0.018c1.155-2.602,2.311-5.204,3.561-8.016c-0.496-1.108-1.083-2.418-1.744-3.896
		C58.805,93.834,57.959,96.613,55.97,98.8z M75.21,102.504c-0.687-1.75-1.35-3.438-2.013-5.128
		c-0.188,0.078-0.227,0.081-0.239,0.101c-1.393,2.194-2.788,4.386-4.164,6.589c-0.097,0.155-0.082,0.398-0.07,0.597
		c0.104,1.921,1.766,2.829,2.726,4.52C72.783,106.814,73.972,104.702,75.21,102.504z M137.377,76.953
		c1.702-1.817,3.188-3.403,4.666-4.979c-0.99-1.607-1.904-3.089-2.842-4.612c-1.733,1.345-3.406,2.643-5.149,3.997
		C135.141,73.192,136.179,74.938,137.377,76.953z M149.004,134.878c1.663,1.114,3.102,2.078,4.707,3.153
		c1.795-1.653,3.541-3.26,5.388-4.962c-1.718-0.989-3.271-1.883-4.89-2.815C152.496,131.777,150.803,133.281,149.004,134.878z
		 M177.916,99.72c-1.79-1.375-3.541-2.72-5.38-4.133c-0.965,1.332-1.822,2.512-2.778,3.832c2.003,1.763,3.953,3.478,5.859,5.155
		C177.516,103.43,177.518,101.604,177.916,99.72z M51.493,92.623c-0.868-1.647-1.77-3.357-2.726-5.172
		c-1.49,1.986-2.874,3.832-4.179,5.572c1.127,1.991,2.126,3.754,3.185,5.624C49.021,96.625,50.227,94.672,51.493,92.623z
		 M20.007,91.288c1.43-2.021,2.869-4.055,4.302-6.08c-1.14-1.669-2.183-3.196-3.294-4.824c-0.71,1.044-1.217,2.026-1.947,2.799
		c-0.831,0.88-0.998,1.835-0.947,2.962C18.205,87.992,18.185,89.85,20.007,91.288z M110.25,90.642
		c0.953,1.562,1.873,3.072,2.93,4.807c1.661-2.293,3.207-4.429,4.745-6.554c-1.034-1.213-2.026-2.377-3.141-3.685
		C113.218,87.088,111.748,88.849,110.25,90.642z M146.417,143.75c2-1.591,3.905-3.106,5.897-4.692
		c-1.517-1.047-2.903-2.003-4.471-3.085c-1.792,1.466-3.554,2.907-5.49,4.491C143.751,141.594,145.056,142.65,146.417,143.75z
		 M112.706,128.976c-1.352,1.255-2.584,2.398-3.829,3.554c1.198,2.188,2.146,4.309,3.52,5.74c1.455-1.2,2.835-2.338,4.226-3.485
		C115.211,132.691,113.972,130.853,112.706,128.976z M39.696,145.441c1.473-2.309,2.811-4.409,4.054-6.359
		c-1.104-1.479-2.059-2.757-3.066-4.107c-1.439,1.833-2.827,3.602-4.175,5.32C37.578,142.021,38.574,143.63,39.696,145.441z
		 M32.787,107.016c1.536-1.869,2.871-3.492,4.159-5.06c-1.155-1.598-2.191-3.031-3.222-4.455c-1.551,1.754-3.03,3.425-4.64,5.245
		C30.245,104.084,31.489,105.52,32.787,107.016z M29.457,79.061c-1.276,2.175-2.382,4.06-3.572,6.087
		c1.08,1.218,2.131,2.401,3.376,3.804c1.445-2.061,2.789-3.977,3.879-5.531C31.855,81.9,30.728,80.565,29.457,79.061z
		 M112.99,106.966c1.35-1.778,2.599-3.425,3.861-5.088c-1.212-1.579-2.354-3.067-3.567-4.646c-1.37,1.726-2.577,3.248-3.906,4.923
		C110.488,103.634,111.655,105.187,112.99,106.966z M57.978,83.114c1.242-1.958,2.389-3.767,3.519-5.545
		c-1.109-1.572-2.126-3.015-3.303-4.684c-1.352,1.918-2.585,3.667-3.794,5.382C55.664,79.979,56.767,81.474,57.978,83.114z
		 M47.543,72.189c-1.122-1.491-2.117-2.812-3.287-4.366c-1.258,2.235-2.408,4.278-3.533,6.277c1.137,1.457,2.17,2.78,3.31,4.24
		C45.266,76.18,46.429,74.142,47.543,72.189z M110.344,159.642c-1.162-1.236-2.215-2.357-3.099-3.298
		c-1.652,1.521-3.229,2.972-4.911,4.521c1.228,1.51,2.353,2.892,3.621,4.45C107.511,163.303,108.898,161.511,110.344,159.642z
		 M138.619,101.575c1.392,1.924,2.728,3.768,4.153,5.737c1.337-1.481,2.562-2.837,3.845-4.258c-1.757-1.647-3.443-3.228-5.191-4.866
		C140.497,99.309,139.608,100.381,138.619,101.575z M120.045,75.685c-1.168-0.887-2.183-1.658-3.209-2.438
		c-1.573,1.879-3.103,3.708-4.688,5.603c0.916,1.296,1.851,2.619,2.815,3.982C116.729,80.347,118.35,78.069,120.045,75.685z
		 M101.347,159.785c1.655-1.704,3.163-3.256,4.614-4.751c-1.236-1.558-2.308-2.908-3.415-4.302c-1.48,1.709-2.846,3.286-4.31,4.975
		C99.216,156.992,100.195,158.275,101.347,159.785z M41.063,108.007c-1.071-1.572-2.14-3.138-3.263-4.785
		c-1.35,1.631-2.673,3.229-4.073,4.92c1.485,1.563,2.845,2.995,4.291,4.518C39.053,111.079,40.025,109.594,41.063,108.007z
		 M80.107,95.517c-0.375,0.647-0.617,1.009-0.802,1.398c-0.402,0.847-0.745,1.723-1.166,2.562c-0.767,1.526-1.612,3.01-0.403,4.723
		c0.346,0.491,0.459,1.141,0.764,1.668c0.253,0.439,0.629,0.806,0.951,1.205c0.111-0.041,0.223-0.083,0.334-0.124
		c0.95-2.066,1.899-4.131,2.843-6.184C81.814,99.072,81.022,97.421,80.107,95.517z M140.575,84.975
		c-1.265-1.975-2.423-3.782-3.661-5.715c-1.113,1.246-2.136,2.391-3.155,3.531c0.992,2.18,1.938,4.258,2.961,6.505
		C138.099,87.751,139.338,86.361,140.575,84.975z M53.366,92.746c0.641,1.534,1.198,2.87,1.839,4.406
		c1.719-2.435,3.308-4.685,4.967-7.035c-0.649-1.271-1.343-2.628-2.108-4.125C56.387,88.403,54.841,90.625,53.366,92.746z
		 M168.412,126.231c-2.237,2.177-4.418,4.299-6.758,6.575c1.292,0.743,2.334,1.344,3.375,1.943c0.24-0.22,0.397-0.347,0.536-0.493
		c1.434-1.506,2.817-3.063,4.314-4.501c0.731-0.702,0.854-1.528,1.105-2.473C170.078,126.912,169.25,126.574,168.412,126.231z
		 M20.687,92.55c0.846,1.083,1.737,2.223,2.751,3.521c1.667-2.169,3.201-4.164,4.786-6.227c-1.014-1.169-1.98-2.282-3.004-3.463
		C23.731,88.407,22.302,90.353,20.687,92.55z M146.847,113.534c-1.542-1.431-2.927-2.717-4.17-3.871
		c-1.114,1.09-2.312,2.263-3.634,3.557c1.128,1.438,2.39,3.045,3.725,4.746C144.207,116.403,145.507,114.99,146.847,113.534z
		 M46.197,127.609c-1.583,2.018-3.088,3.936-4.591,5.851c0.976,1.4,1.598,2.905,2.972,3.934c1.431-2.077,2.798-4.063,4.143-6.016
		C47.842,130.065,47.062,128.9,46.197,127.609z M27.073,128.372c1.01,1.151,2.036,2.323,3.087,3.524
		c1.561-2.042,3.005-3.931,4.505-5.893c-0.993-1.215-1.937-2.372-2.9-3.552C30.17,124.462,28.686,126.335,27.073,128.372z
		 M27.104,102.408c-1.171-1.437-2.287-2.806-3.482-4.272c-1.4,1.59-2.682,3.045-4.013,4.557c1.132,1.544,2.229,3.039,3.311,4.514
		C24.339,105.579,25.669,104.053,27.104,102.408z M75.973,104.267c-1.25,2.157-2.403,4.146-3.569,6.159
		c1.014,1.547,1.997,3.045,2.979,4.543c0.106-0.004,0.212-0.009,0.317-0.014c0.994-2.106,1.987-4.212,2.929-6.209
		C77.718,107.211,76.901,105.833,75.973,104.267z M171.302,94.994c-2.078-1.641-4.033-3.183-6.043-4.771
		c-0.853,1.261-1.646,2.433-2.424,3.584c1.973,1.659,3.84,3.226,5.802,4.874C169.616,97.326,170.483,96.127,171.302,94.994z
		 M111.798,148.531c-0.952-1.232-1.841-2.384-2.782-3.603c-1.848,1.601-3.556,3.081-5.374,4.656c1.147,1.404,2.157,2.64,3.173,3.884
		C108.587,151.711,110.185,150.129,111.798,148.531z M35.562,141.79c-1.424,1.688-2.781,3.298-4.115,4.879
		c1.449,1.491,2.777,2.857,4.131,4.25c1.108-1.433,2.141-2.767,3.161-4.085C37.666,145.13,36.632,143.489,35.562,141.79z
		 M83.623,98.982c0.245-0.365,0.383-0.517,0.46-0.695c0.476-1.103,0.903-2.229,1.414-3.315c0.618-1.315,1.06-2.608,0.175-3.982
		c-0.089-0.138-0.072-0.34-0.134-0.501c-0.431-1.127-0.869-2.251-1.364-3.527c-1.175,2.45-2.254,4.697-3.277,6.83
		C81.833,95.575,82.691,97.208,83.623,98.982z M91.545,102.11c-0.404,1.146-0.537,2.241,0.127,3.379
		c0.404,0.691,0.572,1.524,0.827,2.299c0.286,0.872,0.55,1.751,0.903,2.88c1.099-1.472,2.05-2.746,3.004-4.024
		c-0.719-2.476-1.41-4.856-2.172-7.484C93.197,100.297,92.393,101.179,91.545,102.11z M26.423,73.576
		c0.894,1.052,1.766,2.076,2.642,3.106c1.787-2.854,3.486-5.57,5.204-8.314c-0.678-0.776-1.3-1.487-1.972-2.257
		C30.306,68.641,28.431,71.024,26.423,73.576z M147.409,103.997c-1.258,1.417-2.472,2.784-3.944,4.441
		c1.39,1.263,2.76,2.506,4.187,3.802c1.269-1.578,2.487-3.094,3.741-4.653C150.054,106.381,148.799,105.25,147.409,103.997z
		 M61.933,148.992c-1.223-1.423-2.414-2.808-3.707-4.312c-1.061,1.549-2.042,2.982-3.073,4.486c1.34,1.591,2.677,3.178,4.154,4.932
		C60.224,152.315,61.056,150.696,61.933,148.992z M137.676,102.749c-1.175,1.106-2.12,1.996-3.07,2.891
		c1.18,2.163,2.273,4.168,3.367,6.172c0.157,0.048,0.315,0.095,0.472,0.143c1.078-1.175,2.156-2.351,3.202-3.49
		C140.312,106.542,139.054,104.732,137.676,102.749z M48.848,156.785c-0.937,1.607-1.818,3.12-2.703,4.639
		c0.864,1.002,1.642,1.903,2.414,2.799c1.665-0.292,3.298-0.578,4.923-0.863c0.209-0.301,0.388-0.559,0.665-0.959
		C52.412,160.561,50.699,158.746,48.848,156.785z M153.667,139.862c-1.977,1.57-3.91,3.106-5.901,4.688
		c1.099,0.885,2.088,1.68,3.245,2.61c2.076-1.632,4.152-3.264,6.39-5.023C156.07,141.325,154.93,140.631,153.667,139.862z
		 M97.259,126.416c-0.884-2.259-1.737-4.44-2.63-6.722c-0.205,0.22-0.326,0.309-0.393,0.428c-0.54,0.951-0.987,1.967-1.622,2.848
		c-0.833,1.156-1.292,2.265-0.382,3.569c0.032,0.045,0.027,0.114,0.048,0.168c0.487,1.228,0.977,2.454,1.519,3.816
		C95.033,129.059,96.139,127.745,97.259,126.416z M108.792,90.46c-0.829-1.793-1.583-3.422-2.472-5.343
		c-1.303,1.639-2.442,3.042-3.533,4.48c-0.136,0.179-0.114,0.593-0.006,0.822c0.619,1.319,1.287,2.614,1.935,3.92
		c0.103,0.208,0.187,0.425,0.354,0.809C106.48,93.373,107.62,91.938,108.792,90.46z M112.914,149.639
		c-1.66,1.686-3.247,3.297-4.995,5.072c1.166,1.226,2.252,2.367,3.455,3.632c1.49-1.971,2.89-3.823,4.291-5.675
		C114.719,151.626,113.897,150.723,112.914,149.639z M66.052,81.316c1.292-2.307,2.495-4.454,3.699-6.602
		c-0.915-1.261-1.773-2.444-2.689-3.707c-1.274,2.264-2.456,4.363-3.695,6.566C64.215,78.756,65.078,79.958,66.052,81.316z
		 M39.634,147.855c-1.062,1.397-2.054,2.703-2.96,3.896c1.56,1.7,2.978,3.245,4.514,4.918c0.974-1.548,1.869-2.971,2.716-4.319
		C42.493,150.865,41.146,149.448,39.634,147.855z M157.84,91.209c-1.446,1.925-2.864,3.812-4.302,5.726
		c1.154,0.995,2.25,1.94,3.457,2.98c1.318-1.862,2.642-3.73,3.927-5.544C159.86,93.282,158.889,92.286,157.84,91.209z
		 M101.99,121.043c-0.937-2.114-1.828-4.126-2.757-6.225c-1.07,1.209-2.124,2.401-3.289,3.718c0.805,2.027,1.626,4.098,2.524,6.363
		C99.722,123.527,100.838,122.304,101.99,121.043z M21.674,79.057c1.123,1.688,2.179,3.276,3.267,4.913
		c1.159-1.999,2.277-3.93,3.411-5.886c-0.922-1.147-1.866-2.322-2.876-3.579C24.17,76.069,22.907,77.581,21.674,79.057z
		 M169.023,112.393c-1.808-1.413-3.585-2.802-5.382-4.207c-0.977,1.338-1.918,2.626-2.993,4.1c1.855,1.191,3.606,2.316,5.335,3.427
		C167.024,114.577,167.988,113.524,169.023,112.393z M59.443,71.755c0.954,1.434,1.906,2.865,2.973,4.469
		c1.264-2.29,2.427-4.399,3.553-6.441c-0.937-1.209-1.766-2.279-2.62-3.382C62.054,68.175,60.805,69.887,59.443,71.755z
		 M125.478,112.836c1.303-1.143,2.39-2.094,3.389-2.97c-1.185-2.695-2.285-5.201-3.434-7.814c-1.307,1.088-1.85,2.411-2.186,3.456
		C124.019,108.045,124.708,110.309,125.478,112.836z M23.003,133.399c0.115,2.03,0.418,3.843,1.909,5.299
		c1.466-1.939,2.887-3.818,4.307-5.697c-1.068-1.236-2.057-2.38-3.146-3.64C25.006,130.765,23.99,132.102,23.003,133.399z
		 M153.251,83.854c1.516,1.692,2.969,3.313,4.524,5.049c0.929-1.363,1.774-2.603,2.622-3.847c-1.315-1.726-2.564-3.364-3.863-5.068
		C155.406,81.316,154.371,82.535,153.251,83.854z M128.882,120.312c1.309-1.097,2.419-2.027,3.554-2.977
		c-0.94-2.149-1.825-4.169-2.764-6.315c-1.283,1.111-2.406,2.083-3.622,3.135C126.976,116.167,127.884,118.143,128.882,120.312z
		 M55.195,138.202c1.161,1.467,2.184,2.76,3.277,4.142c1.151-1.581,2.234-3.068,3.36-4.614c-1.126-1.541-2.222-3.039-3.437-4.699
		C57.265,134.858,56.242,136.509,55.195,138.202z M148.359,102.919c1.323,1.176,2.522,2.242,3.788,3.367
		c1.366-1.855,2.588-3.516,3.878-5.267c-1.147-1.003-2.228-1.949-3.327-2.909C151.217,99.751,149.853,101.264,148.359,102.919z
		 M101.591,149.578c-1.042-1.796-1.058-1.808-2.867-2.155c-0.086-0.017-0.167-0.057-0.253-0.074
		c-0.875-0.169-1.75-0.336-2.572-0.494c-0.526,0.771-0.983,1.44-1.506,2.206c0.938,1.75,1.864,3.478,2.915,5.438
		C98.858,152.716,100.231,151.139,101.591,149.578z M70.57,73.193c1.098-2.338,2.083-4.439,3.147-6.708
		c-0.686-1.141-1.452-2.416-2.368-3.941c-1.318,2.49-2.484,4.691-3.627,6.851C68.695,70.692,69.543,71.824,70.57,73.193z
		 M163.287,120.642c0.134,0.778,0.247,1.429,0.36,2.087c1.542,0.557,2.995,1.081,4.579,1.653c0.964-1.047,1.943-2.109,3.023-3.282
		c-1.605-1.108-3.23-2.229-4.945-3.413C165.229,118.74,164.252,119.696,163.287,120.642z M32.746,157.038
		c1.452,1.259,3.028,2.627,4.556,3.952c0.812-0.984,1.773-2.148,2.899-3.513c-1.413-1.48-2.848-2.984-4.371-4.58
		C34.75,154.346,33.822,155.592,32.746,157.038z M70.731,135.041c-0.12-0.009-0.24-0.018-0.36-0.026
		c-1.108,2.386-2.217,4.772-3.306,7.114c0.793,0.964,1.509,1.833,2.408,2.925c1.375-2.338,2.603-4.427,3.839-6.53
		C72.354,137.231,71.542,136.136,70.731,135.041z M120.708,129.549c-1.379-1.754-2.686-3.415-4.007-5.094
		c-1.048,1.101-1.981,2.08-2.942,3.089c1.338,2.012,2.59,3.893,3.93,5.907C118.754,132.076,119.678,130.882,120.708,129.549z
		 M117.429,111.754c1.243-2.026,2.363-3.853,3.5-5.707c-1.039-1.068-2.026-2.083-3.007-3.092c-1.294,1.632-2.533,3.196-3.9,4.919
		C115.091,109.093,116.182,110.335,117.429,111.754z M151.58,73.98c-1.077,1.21-2.094,2.354-3.181,3.575
		c1.452,1.749,2.767,3.333,4.18,5.036c1.067-1.272,2.067-2.466,2.997-3.577C154.202,77.284,152.95,75.706,151.58,73.98z
		 M65.221,82.665c-0.957-1.29-1.822-2.457-2.727-3.677c-1.237,1.887-2.431,3.708-3.601,5.492c0.75,1.471,1.463,2.869,2.229,4.37
		C62.578,86.653,63.898,84.66,65.221,82.665z M107.524,84.391c0.665,1.581,1.325,3.153,2.086,4.964
		c1.509-1.786,2.938-3.478,4.362-5.163c-1.014-1.419-1.952-2.733-2.989-4.185C109.766,81.55,108.678,82.93,107.524,84.391z
		 M70.048,123.969c-1.012-1.639-1.941-3.144-2.974-4.817c-1.165,1.81-2.214,3.44-3.278,5.095c1.192,1.475,2.321,2.872,3.555,4.398
		C68.267,127.059,69.137,125.549,70.048,123.969z M73.659,78.446c1.08-1.825,2.116-3.522,3.09-5.253
		c0.264-0.47,0.628-1.174,0.457-1.544c-0.602-1.297-1.417-2.497-2.151-3.732c-0.1,0.032-0.199,0.065-0.298,0.097
		c-1.014,2.199-2.028,4.398-3.075,6.668C72.305,75.87,72.952,77.1,73.659,78.446z M53.226,149.363
		c-0.936-1.027-1.838-2.018-2.826-3.102c-1.538,2.004-2.951,3.846-4.395,5.729c1.072,1.001,1.994,1.864,3.054,2.854
		C50.482,152.972,51.818,151.214,53.226,149.363z M109.532,91.732c-1.107,1.352-2.112,2.547-3.074,3.776
		c-0.232,0.296-0.549,0.821-0.437,1.044c0.701,1.387,1.512,2.719,2.39,4.248c1.359-1.661,2.551-3.117,3.785-4.625
		C111.309,94.695,110.41,93.197,109.532,91.732z M158.646,140.917c1.724-1.657,3.402-3.27,5.164-4.962
		c-1.218-0.721-2.309-1.365-3.469-2.051c-1.737,1.627-3.455,3.237-5.293,4.959C156.244,139.544,157.413,140.212,158.646,140.917z
		 M175.667,73.811c2.114,1.898,4.128,3.707,6.332,5.685c0.245-1.637,0.442-2.955,0.591-3.951c-1.585-1.725-3.022-3.287-4.547-4.946
		C177.226,71.701,176.501,72.682,175.667,73.811z M138.45,136.369c0.923,0.999,1.84,1.992,2.857,3.092
		c1.84-1.514,3.545-2.917,5.222-4.298c-1.056-1.006-2.044-1.949-3.117-2.971C141.768,133.575,140.17,134.92,138.45,136.369z
		 M19.016,74.664c0.593,0.933,1.227,1.93,1.962,3.086c1.25-1.503,2.411-2.899,3.614-4.347c-1.121-1.547-2.12-2.926-3.087-4.261
		C19.146,70.351,18.82,72.341,19.016,74.664z M132.999,81.421c1.171-1.274,2.174-2.364,3.101-3.372
		c-1.144-1.983-2.243-3.889-3.419-5.928c-0.98,0.9-1.852,1.701-2.718,2.496C130.981,76.902,131.953,79.079,132.999,81.421z
		 M147.524,76.435c1.206-1.311,2.208-2.402,3.201-3.482c-1.167-1.682-2.275-3.277-3.454-4.976c-1.039,1.262-2.07,2.516-3.187,3.872
		C145.235,73.383,146.345,74.863,147.524,76.435z M132.857,105.92c-1.28-2.449-2.501-4.784-3.78-7.23
		c-0.816,0.88-1.545,1.667-2.331,2.514c1.067,2.358,2.154,4.759,3.298,7.286C131.082,107.542,131.962,106.738,132.857,105.92z
		 M133.782,116.206c1.117-1.193,2.085-2.227,3.042-3.248c-1.063-1.942-2.119-3.874-3.265-5.969
		c-0.993,1.037-1.836,1.917-2.698,2.817C131.802,111.87,132.74,113.925,133.782,116.206z M103.344,77.875
		c-0.686-1.59-1.357-3.148-2.036-4.722c-1.318,0.704-2.493,1.331-3.807,2.032c0.643,2.084,1.271,4.124,1.956,6.345
		C100.834,80.235,102.041,79.101,103.344,77.875z M48.433,100.098c0.69,1.327,1.365,2.626,2.129,4.096
		c1.255-1.892,2.411-3.637,3.568-5.381c-0.632-1.442-1.243-2.834-1.934-4.41C50.864,96.42,49.646,98.262,48.433,100.098z
		 M105.763,83.623c-0.595-1.363-1.197-2.74-1.846-4.226c-1.332,1.194-2.511,2.252-3.829,3.434c0.267,1.771,0.833,3.582,1.828,5.362
		C103.227,86.636,104.429,85.208,105.763,83.623z M81.576,67.052c-0.87,1.746-1.632,3.277-2.328,4.675
		c1.184,1.96,2.299,3.808,3.464,5.74c0.602-1.25,1.23-2.552,1.831-3.799C83.544,71.44,82.603,69.343,81.576,67.052z M130.327,97.419
		c1.295,2.318,1.917,4.903,3.719,6.957c0.955-0.905,1.815-1.72,2.605-2.469c-1.35-2.225-2.63-4.334-3.976-6.552
		C131.936,96.006,131.182,96.668,130.327,97.419z M66.417,68.045c0.121-0.009,0.243-0.019,0.364-0.028
		c1.206-2.345,2.413-4.69,3.739-7.271c-0.406-0.228-0.804-0.622-1.226-0.651c-0.866-0.06-1.747,0.076-2.647,0.133
		c-0.783,1.528-1.564,3.054-2.42,4.726C64.932,65.949,65.674,66.997,66.417,68.045z M61.677,63.471
		c-2.448,0.489-4.74,0.947-6.987,1.396c1.158,1.632,2.423,3.415,3.84,5.413c1.423-1.977,2.717-3.773,4.013-5.573
		C62.16,64.161,61.865,63.739,61.677,63.471z M140.596,97.247c-1.516-1.825-2.93-3.526-4.419-5.319
		c-0.73,0.767-1.422,1.494-2.107,2.212c1.058,2.271,2.193,4.389,3.873,6.318C138.868,99.338,139.717,98.31,140.596,97.247z
		 M117.42,135.763c-1.456,1.52-2.712,2.831-4.017,4.193c0.914,1.394,1.75,2.668,2.674,4.078c1.312-1.43,2.489-2.711,3.71-4.041
		C118.993,138.574,118.257,137.258,117.42,135.763z M54.5,139.884c-1.163,1.755-2.229,3.366-3.263,4.926
		c1.018,1.188,1.937,2.259,3.003,3.503c1.154-1.699,2.165-3.188,3.25-4.787C56.501,142.322,55.546,141.16,54.5,139.884z
		 M151.511,71.667c0.126,0.001,0.253,0.002,0.38,0.002c0.755-1.053,1.511-2.105,2.124-2.959c-0.866-2.1-1.646-3.99-2.469-5.984
		c-1.077,1.282-2.105,2.506-3.246,3.863C149.377,68.294,150.444,69.981,151.511,71.667z M114.375,118.589
		c0.782,1.057,1.6,2.163,2.579,3.489c1.47-1.619,2.772-3.055,4.108-4.527c-1.245-1.167-2.385-2.235-3.599-3.373
		C116.43,115.655,115.478,117.013,114.375,118.589z M31.983,155.911c0.959-1.338,1.849-2.579,2.846-3.971
		c-1.453-1.305-2.867-2.576-4.339-3.899c-0.709,0.891-1.501,1.887-2.349,2.953C29.42,152.63,30.656,154.212,31.983,155.911z
		 M140.958,148.956c1.06,1.082,1.974,2.015,2.927,2.988c1.945-1.366,3.697-2.598,5.597-3.932c-1.156-0.911-2.158-1.701-3.242-2.556
		C144.514,146.6,142.862,147.694,140.958,148.956z M102.664,122.594c-1.354,1.469-2.508,2.72-3.664,3.973
		c0.924,1.629,1.746,3.078,2.678,4.724c1.197-1.445,2.178-2.629,3.184-3.844C104.143,125.858,103.46,124.351,102.664,122.594z
		 M65.335,142.394c-0.933-1.205-1.767-2.281-2.707-3.495c-1.176,1.573-2.239,2.993-3.408,4.557c1.162,1.291,2.297,2.55,3.534,3.923
		C63.681,145.587,64.497,144.012,65.335,142.394z M73.494,149.738c0.522-0.981,0.94-1.924,1.499-2.774
		c0.799-1.215,1.049-2.392,0.346-3.753c-0.499-0.966-0.837-2.015-1.226-2.976c-1.247,2.001-2.444,3.923-3.607,5.792
		C71.546,147.32,72.497,148.5,73.494,149.738z M125.608,88.327c-0.48-1.669-1.018-3.536-1.638-5.693
		c-1.393,2.101-2.673,4.03-4.073,6.143c1.1,0.969,2.192,1.931,3.281,2.89C123.958,90.594,124.728,89.537,125.608,88.327z
		 M74.221,95.94c0.55,1.329,1.164,2.811,1.854,4.476c1.124-2.331,2.144-4.444,3.259-6.757c-0.464-1.115-1.012-2.428-1.625-3.897
		C76.489,91.922,75.404,93.843,74.221,95.94z M179.333,92.974c-1.068-0.843-2.152-1.698-3.228-2.545
		c-1.021,1.375-1.957,2.636-2.929,3.947c1.661,1.208,3.303,2.403,5.141,3.741C178.667,96.342,178.992,94.702,179.333,92.974z
		 M47.487,101.565c-1.548,2.22-2.976,4.265-4.468,6.405c0.396,0.609,0.797,1.229,1.094,1.686c2.725-0.396,4.094-2.124,5.188-4.274
		C48.708,104.133,48.124,102.903,47.487,101.565z M84.67,61.143c-0.094-0.023-0.189-0.047-0.284-0.07
		c-0.604,1.249-1.228,2.489-1.793,3.756c-0.1,0.224-0.018,0.584,0.089,0.834c0.562,1.319,1.148,2.627,1.75,3.928
		c0.248,0.535,0.555,1.043,0.956,1.788c0.689-1.862,1.285-3.471,1.895-5.116C86.421,64.575,85.546,62.859,84.67,61.143z
		 M125.159,125.096c1.224,2.056,1.968,4.182,3.398,6.032c0.911-0.832,1.706-1.558,2.587-2.363c-0.91-1.997-1.817-3.988-2.767-6.072
		C127.24,123.542,126.268,124.269,125.159,125.096z M145.058,144.663c-1.375-1.097-2.64-2.105-3.873-3.089
		c-1.325,0.878-2.674,1.771-4.088,2.709c0.995,1.201,1.94,2.342,2.938,3.546C141.751,146.746,143.366,145.729,145.058,144.663z
		 M74.397,127.802c0.883,1.065,1.777,2.144,2.757,3.326c0.961-1.848,1.869-3.597,2.793-5.374c-0.686-1.236-1.345-2.423-2.154-3.882
		C76.616,123.929,75.57,125.754,74.397,127.802z M129.236,132.551c1.234,1.918,2.414,3.752,3.69,5.737
		c0.971-0.724,1.933-1.44,2.926-2.18c-1.376-2.02-2.688-3.946-4.06-5.962C130.923,130.964,130.081,131.756,129.236,132.551z
		 M119.292,101.013c0.884,1.227,1.659,2.301,2.418,3.353c1.051-1.395,1.972-2.617,2.997-3.976c-0.505-1.411-1.089-3.046-1.742-4.873
		C121.572,97.6,120.285,99.526,119.292,101.013z M48.273,70.728c1.255-2.233,2.373-4.223,3.534-6.29
		c-1.512-0.221-2.962-0.433-4.717-0.69c-0.568,0.748-1.31,1.726-2.062,2.716C46.113,67.889,47.131,69.228,48.273,70.728z
		 M111.333,139.953c-1.25-2.026-2.46-3.988-3.735-6.057c-0.855,0.94-1.688,1.856-2.648,2.912c1.383,1.826,2.772,3.66,4.223,5.574
		C109.981,141.471,110.658,140.711,111.333,139.953z M66.113,140.77c1.115-2.514,2.143-4.831,3.18-7.168
		c-0.636-0.766-1.242-1.494-1.863-2.242c-1.355,2.133-2.628,4.137-3.889,6.12C64.434,138.621,65.204,139.607,66.113,140.77z
		 M122.208,107.464c-1.802,1.483-2.419,3.635-3.643,5.514c1.094,1.021,2.127,1.986,3.122,2.916c0.798-0.852,1.521-1.625,2.333-2.493
		C123.461,111.568,122.855,109.583,122.208,107.464z M159.882,75.626c-0.854,1.032-1.662,2.01-2.447,2.96
		c1.302,1.729,2.534,3.364,3.857,5.122c0.902-1.369,1.681-2.549,2.447-3.711C162.455,78.542,161.225,77.148,159.882,75.626z
		 M93.167,159.567c1.063-1.375,2.041-2.639,3-3.879c-0.978-1.622-1.907-3.162-2.918-4.839c-0.87,1.519-1.719,3.001-2.643,4.614
		C91.428,156.78,92.265,158.122,93.167,159.567z M61.434,107.418c1.437-1.72,2.75-3.294,4.044-4.844
		c-0.694-1.726-1.293-3.218-1.893-4.709c-0.084,0.002-0.169,0.004-0.253,0.007c-1.085,2.418-2.171,4.837-3.31,7.375
		C60.411,105.844,60.866,106.545,61.434,107.418z M72.741,79.924c-0.638-1.186-1.306-2.427-2.063-3.832
		c-1.308,2.414-2.51,4.633-3.742,6.906c0.478,0.801,0.961,1.615,1.537,2.582C69.958,83.612,71.321,81.806,72.741,79.924z
		 M155.042,69.697c-0.838,1.155-1.582,2.18-2.363,3.255c1.233,1.57,2.445,3.114,3.73,4.752c0.952-1.147,1.747-2.107,2.542-3.065
		C157.645,72.988,156.396,71.41,155.042,69.697z M170.43,113.232c-1.06,1.124-2.062,2.187-3.109,3.297
		c1.888,1.241,3.585,2.356,5.347,3.515c1.279-1.03,0.815-2.59,1.361-3.812C172.801,115.208,171.684,114.277,170.43,113.232z
		 M128.647,97.064c-0.801-2.324-1.591-4.617-2.402-6.967c-1.673,0.861-1.456,2.589-2.354,3.728c0.743,1.879,1.477,3.735,2.236,5.653
		C127.028,98.616,127.801,97.875,128.647,97.064z M123.353,125.097c-0.7-2.053-1.313-3.853-1.911-5.607
		c-1.206,1.249-2.351,2.435-3.594,3.724c1.257,1.601,2.517,3.204,3.948,5.025C122.421,126.975,122.919,125.971,123.353,125.097z
		 M82.494,80.832c-0.215,0.363-0.289,0.479-0.354,0.599c-1.104,2.021-2.219,4.037-3.294,6.073c-0.145,0.275-0.218,0.705-0.109,0.977
		c0.413,1.038,0.914,2.041,1.468,3.246c0.312-0.528,0.523-0.836,0.684-1.169c0.521-1.08,0.977-2.194,1.544-3.25
		c0.716-1.331,1.386-2.614,0.662-4.189C82.803,82.484,82.727,81.751,82.494,80.832z M96.131,164.517
		c1.447-1.246,2.765-2.382,4.106-3.537c-1.116-1.426-2.082-2.66-3.143-4.016c-1.104,1.409-2.106,2.688-3.107,3.967
		C94.684,162.096,95.336,163.188,96.131,164.517z M115.525,72.096c-0.894-0.854-1.685-1.609-2.51-2.397
		c-1.35,1.475-2.64,2.884-3.975,4.342c0.75,1.121,1.429,2.136,2.266,3.388C112.776,75.57,114.116,73.877,115.525,72.096z
		 M69.795,147.717c-0.82,1.348-1.583,2.542-2.271,3.778c-0.157,0.28-0.204,0.829-0.035,1.049c0.869,1.125,1.824,2.183,2.875,3.412
		c0.836-1.615,1.617-3.122,2.41-4.652C71.778,150.104,70.832,148.965,69.795,147.717z M145.003,63.183
		c-1.186,1.517-3.541,1.07-4.363,3.268c0.74,1.268,1.564,2.679,2.456,4.207c1.279-1.558,2.403-2.926,3.531-4.298
		C146.085,65.297,145.581,64.313,145.003,63.183z M110.395,112.293c1.018,1.579,1.998,3.1,3.103,4.813
		c1.052-1.496,1.947-2.771,2.851-4.056c-1.159-1.345-2.241-2.6-3.333-3.865C112.133,110.232,111.315,111.202,110.395,112.293z
		 M66.05,84.093c-1.45,2.286-2.752,4.338-4.009,6.319c0.595,1.264,1.08,2.292,1.65,3.504c1.401-2.514,2.667-4.781,3.949-7.081
		C67.145,85.981,66.666,85.156,66.05,84.093z M129.198,73.306c0.975-0.822,1.861-1.568,2.827-2.383
		c-0.536-1.067-0.985-2.081-1.538-3.033c-0.567-0.976-1.236-1.892-1.996-3.04c-0.724,1.26-1.393,2.422-2.042,3.552
		C127.356,70.022,128.236,71.589,129.198,73.306z M167.903,66.309c-0.99,1.551-1.036,1.584-2.566,1.92
		c-0.268,0.437-0.557,0.907-0.89,1.451c0.991,1.452,1.98,2.901,3.085,4.52c0.994-1.526,1.864-2.864,2.73-4.195
		C169.456,68.742,168.692,67.545,167.903,66.309z M87.681,79.425c-0.222,0.195-0.348,0.255-0.389,0.351
		c-0.669,1.576-1.339,3.152-1.978,4.742c-0.076,0.189-0.01,0.466,0.06,0.681c0.515,1.583,1.047,3.161,1.59,4.789
		c0.151-0.123,0.222-0.149,0.235-0.194c0.685-2.29,1.396-4.574,2.011-6.883c0.097-0.365-0.203-0.861-0.385-1.267
		c-0.16-0.355-0.436-0.656-0.619-1.003C88.021,80.29,87.888,79.911,87.681,79.425z M124.749,115.038
		c-1.395,0.741-2.176,2.541-1.792,3.854c0.14,0.479,0.268,0.961,0.423,1.435c0.359,1.089,0.731,2.174,1.152,3.425
		c1.145-0.878,2.087-1.602,3.093-2.373C126.648,119.225,125.712,117.163,124.749,115.038z M132.427,127.543
		c0.797-0.753,1.419-1.341,2.077-1.963c-1.232-1.479-2.131-2.888,0.002-4.209c-0.54-0.968-1.012-1.816-1.524-2.736
		c-1.179,1.021-2.232,1.933-3.292,2.851C130.61,123.52,131.48,125.447,132.427,127.543z M175.933,88.282
		c0.569-0.786,1.12-1.548,1.658-2.291c-2.158-1.714-4.228-3.359-6.362-5.056c-0.476,0.772-0.944,1.532-1.454,2.36
		C171.822,84.953,173.825,86.575,175.933,88.282z M26.84,61.302c-2.164-0.216-4.168-0.417-6.187-0.618
		c-0.51,2.025-1.015,4.149,1.03,6.002C23.416,64.878,25.133,63.084,26.84,61.302z M156.497,152.537
		c-0.794-0.448-1.569-0.885-2.339-1.318c-1.903,1.297-3.723,2.537-5.716,3.896c1.176,0.709,2.14,1.291,3.157,1.904
		c0.642-0.476,1.24-0.941,1.86-1.375C154.621,154.83,155.865,154.106,156.497,152.537z M45.078,160.634
		c1.05-1.659,1.979-3.127,2.916-4.607c-1.001-0.925-1.915-1.769-2.916-2.693c-1.043,1.442-2.027,2.801-3.106,4.29
		C43.02,158.639,44.012,159.601,45.078,160.634z M38.85,120.805c-1.035-1.146-1.974-2.185-2.921-3.231
		c-1.026,1.176-2.055,2.356-3.157,3.619c0.948,1.188,1.859,2.331,2.896,3.63C36.743,123.464,37.715,122.237,38.85,120.805z
		 M156.018,68.395c1.278,1.629,2.532,3.229,3.873,4.938c1.02-1.272,1.871-2.333,2.725-3.398c-0.479-0.683-0.863-1.231-1.17-1.669
		c-1.543-0.394-2.949-0.752-4.387-1.119C156.732,67.538,156.439,67.889,156.018,68.395z M100.385,113.333
		c0.898,2.027,1.783,4.024,2.781,6.279c0.894-1.116,1.594-1.991,2.266-2.83c-0.971-2.042-1.873-3.938-2.839-5.97
		C101.788,111.731,101.156,112.453,100.385,113.333z M166.571,75.562c-1.04-1.511-2.006-2.914-3.065-4.451
		c-0.948,1.132-1.782,2.125-2.712,3.235c1.324,1.46,2.566,2.83,3.893,4.293C165.383,77.5,165.972,76.54,166.571,75.562z
		 M135.513,90.379c-0.937-2.009-1.919-4.114-3.033-6.504c-0.742,0.87-1.342,1.573-2.063,2.418c0.931,2.043,1.905,4.178,2.906,6.372
		C134.088,91.867,134.747,91.179,135.513,90.379z M80.959,110.218c0.372,0.514,0.745,1.03,1.167,1.614
		c0.165-0.286,0.325-0.524,0.446-0.781c0.747-1.581,1.494-3.161,2.217-4.752c0.128-0.281,0.292-0.672,0.192-0.908
		c-0.434-1.032-0.959-2.025-1.529-3.192c-1.07,2.272-2.044,4.342-3.034,6.445C80.587,109.135,80.776,109.683,80.959,110.218z
		 M91.799,91.998c-0.118-0.012-0.235-0.024-0.353-0.036c-0.643,1.779-1.318,3.548-1.917,5.343c-0.433,1.296,0.244,2.37,0.92,3.737
		c1.158-1.333,2.192-2.523,3.248-3.74C93.053,95.502,92.426,93.75,91.799,91.998z M133.584,69.951
		c1.631-1.249,3.25-2.487,4.869-3.726c-0.024-0.137-0.047-0.274-0.071-0.411c-2.916,0.723-5.439,0.522-6.65-2.783
		c-0.636,0.243-1.157,0.443-1.915,0.732C131.092,65.857,132.273,67.797,133.584,69.951z M128.462,141.093
		c1.127-0.747,2.061-1.365,3.052-2.021c-1.13-1.852-2.189-3.588-3.184-5.219c-0.961,0.731-1.816,1.381-2.648,2.015
		C126.711,137.803,127.554,139.386,128.462,141.093z M171.322,70.958c-1.032,1.554-1.931,2.908-2.893,4.356
		c0.89,1.056,1.74,2.062,2.708,3.209c1.015-1.601,1.914-3.019,2.831-4.467C173.06,72.994,172.25,72.045,171.322,70.958z
		 M84.672,117.114c2.403-3.773,2.987-8.301,1.286-9.85c-1.023,2.242-2.032,4.453-2.983,6.536
		C83.58,114.983,84.093,115.985,84.672,117.114z M35.059,67.095c1.403-2.121,2.756-4.166,4.154-6.279
		c-0.317-0.1-0.545-0.171-0.748-0.234c-0.039-0.352-0.07-0.636-0.106-0.958c-0.328-0.152-0.639-0.297-1.116-0.519
		c-1.404,1.88-2.801,3.75-4.233,5.667C33.779,65.645,34.387,66.334,35.059,67.095z M140.059,140.465
		c-1.096-1.196-2.058-2.246-3.097-3.38c-1.181,0.854-2.273,1.644-3.439,2.487c0.955,1.268,1.824,2.423,2.768,3.675
		C137.567,142.306,138.779,141.411,140.059,140.465z M103.791,109.353c0.861,1.957,1.691,3.843,2.521,5.729
		c0.107-0.011,0.214-0.022,0.321-0.034c0.672-0.929,1.345-1.858,1.984-2.741c-0.95-1.987-1.82-3.806-2.751-5.75
		C105.102,107.586,104.463,108.447,103.791,109.353z M77.204,63.627c-0.555,0.95-1.108,1.897-1.619,2.771
		c0.94,1.272,1.782,2.412,2.777,3.759c0.844-1.809,1.6-3.429,2.375-5.088c-0.417-0.693-0.819-1.36-1.213-2.017
		C78.713,63.253,78.006,63.428,77.204,63.627z M95.254,116.792c1.237-1.408,2.309-2.626,3.394-3.861
		c-0.527-1.491-1.026-2.902-1.554-4.392c-1.096,1.32-2.097,2.525-3.163,3.809C94.333,113.693,94.759,115.126,95.254,116.792z
		 M134.376,151.19c-1.044-1.2-2.015-2.313-2.988-3.43c-1.336,0.652-2.56,1.251-3.976,1.942c0.956,1.251,1.811,2.371,2.68,3.507
		C131.515,152.54,132.854,151.908,134.376,151.19z M161.678,93.147c1.025-1.491,1.84-2.675,2.677-3.892
		c-1.042-1.144-1.989-2.183-2.988-3.279c-0.942,1.379-1.777,2.603-2.732,4C159.644,91.028,160.582,92.006,161.678,93.147z
		 M140.926,118.232c-1.09-1.4-2.124-2.726-3.139-4.03c-1.164,1.169-2.244,2.255-3.375,3.391c0.396,0.75,0.822,1.555,1.169,2.212
		C137.416,119.265,139.083,118.775,140.926,118.232z M162.227,84.687c0.972,1.08,1.86,2.066,2.868,3.188
		c0.989-1.445,1.897-2.772,2.819-4.121c-1.145-0.984-2.128-1.83-3.208-2.758C163.853,82.266,163.059,83.449,162.227,84.687z
		 M19.768,93.544c-0.975,0.994-1.664,2.074-1.546,3.544c0.089,1.108,0.103,2.222,0.186,3.33c0.023,0.308,0.176,0.604,0.357,1.188
		c1.442-1.651,2.688-3.076,3.91-4.475C21.672,95.895,20.74,94.745,19.768,93.544z M133.557,157.363
		c1.787-0.886,3.226-1.599,4.815-2.387c-1.112-1.056-2.018-1.916-2.942-2.793c-1.547,0.736-3.005,1.43-4.505,2.143
		C131.839,155.38,132.657,156.325,133.557,157.363z M123.768,135.794c-0.705-1.538-1.414-3.086-2.169-4.733
		c-1.064,1.282-2.005,2.417-2.926,3.527c0.813,1.324,1.593,2.594,2.33,3.794C121.955,137.492,122.8,136.7,123.768,135.794z
		 M106.392,118.294c-0.763,0.896-1.452,1.674-2.096,2.486c-0.163,0.207-0.329,0.588-0.246,0.785
		c0.601,1.435,1.265,2.844,1.977,4.411c1.042-1.229,1.942-2.292,2.879-3.397C108.072,121.159,107.264,119.781,106.392,118.294z
		 M108.243,75.458c-1.173,0.999-2.286,1.947-3.333,2.84c0.688,1.532,1.269,2.827,1.935,4.312c1.146-1.399,2.205-2.693,3.265-3.988
		C109.43,77.469,108.808,76.416,108.243,75.458z M47.292,125.822c0.298,1.445,1.286,2.487,2.212,3.818
		c1.066-1.783,2.048-3.425,3.017-5.045c-0.376-0.575-0.678-1.033-0.947-1.441C49.349,122.833,48.363,124.313,47.292,125.822z
		 M116.926,145.484c0.754,0.915,1.388,1.685,2.07,2.514c1.27-1.376,2.411-2.613,3.649-3.955c-0.4-0.978-0.82-2.001-1.301-3.177
		C119.802,142.479,118.427,143.915,116.926,145.484z M38.717,162.576c1.422,0.617,2.705,1.639,4.439,1.736
		c0.438-0.835,0.853-1.624,1.279-2.436c-1.167-1.106-2.234-2.118-3.337-3.164C39.925,159.742,38.984,160.89,38.717,162.576z
		 M75.416,117.813c-1.254,2.08-2.406,3.989-3.571,5.919c0.545,0.865,1.057,1.677,1.625,2.579c1.237-2.067,2.358-3.941,3.55-5.933
		C76.56,119.644,76.023,118.784,75.416,117.813z M107.269,116.582c0.969,1.599,1.371,3.361,2.853,4.522
		c0.764-0.954,1.472-1.839,2.225-2.778c-0.958-1.474-1.889-2.907-2.867-4.412C108.7,114.855,107.997,115.704,107.269,116.582z
		 M132.135,93.977c-0.973-2.277-1.89-4.422-2.855-6.683c-0.706,0.646-1.278,1.169-1.865,1.706c0.836,2.283,1.652,4.51,2.523,6.889
		C130.77,95.165,131.444,94.578,132.135,93.977z M79.374,110.432c-1.025,2.071-1.962,3.964-2.958,5.977
		c0.527,0.736,1.105,1.543,1.712,2.391c1.079-1.716,2.069-3.292,3.058-4.864C80.596,112.794,80.037,111.713,79.374,110.432z
		 M83.879,118.972c-0.727-1.267-1.296-2.26-2.014-3.511c-1.064,1.812-2.013,3.428-2.955,5.033c0.607,1.002,1.199,1.979,1.756,2.899
		c0.366-0.62,0.646-1.208,1.029-1.717C82.4,120.739,83.167,119.848,83.879,118.972z M106.684,127.827
		c0.567,1.111,1.087,2.131,1.678,3.291c1.222-1.285,2.301-2.42,3.382-3.557c-0.692-1.252-1.312-2.372-2.041-3.692
		C108.568,125.357,107.638,126.577,106.684,127.827z M152.288,148.181c0.626,0.386,1.245,0.768,1.946,1.2
		c2.225-1.807,4.364-3.543,6.641-5.392c-0.841-0.426-1.453-0.736-2.075-1.051C156.611,144.701,154.504,146.396,152.288,148.181z
		 M65.384,152.581c-0.721-0.773-1.445-1.551-2.286-2.453c-0.967,1.805-1.857,3.468-2.76,5.153c0.737,0.82,1.433,1.596,2.083,2.319
		C63.39,155.96,64.35,154.333,65.384,152.581z M59.545,117.899c0.54,0.852,1.036,1.682,1.579,2.479
		c0.531,0.78,1.11,1.529,1.749,2.401c0.979-1.479,1.875-2.835,2.712-4.1c-1.713-0.684-3.276-1.306-4.942-1.97
		C60.363,117.013,59.99,117.417,59.545,117.899z M76.072,132.59c-0.862-1.154-1.638-2.192-2.506-3.354
		c-0.827,1.467-1.565,2.776-2.275,4.037c0.987,1.188,1.893,2.277,2.901,3.491c0.44-0.738,0.833-1.395,1.187-1.987
		c-0.229-0.396-0.408-0.704-0.628-1.08C75.193,133.325,75.571,133.008,76.072,132.59z M66.265,150.862
		c0.795-1.361,1.637-2.802,2.498-4.275c-0.831-0.989-1.562-1.859-2.4-2.856c-0.918,1.77-1.72,3.314-2.591,4.994
		C64.602,149.436,65.392,150.114,66.265,150.862z M89.992,117.902c0.324,1.344,0.657,2.729,1.055,4.38
		c1.037-1.529,1.93-2.846,2.873-4.235c-0.365-1.265-0.741-2.568-1.134-3.929C91.205,114.988,90.71,116.43,89.992,117.902z
		 M112.084,108.057c-1.327-1.604-2.56-3.094-3.854-4.657c-0.454,0.671-0.794,1.175-1.202,1.778c0.845,1.842,1.699,3.704,2.638,5.751
		C110.565,109.86,111.297,108.992,112.084,108.057z M97.212,96.317c-1.467,0.425-1.972,1.381-1.553,2.617
		c0.319,0.941,0.616,1.891,0.902,2.843c0.314,1.044,0.605,2.095,0.906,3.144c0.091,0.012,0.182,0.024,0.273,0.036
		c0.515-0.826,1.571-1.534,1.342-2.558C98.621,100.333,97.852,98.336,97.212,96.317z M126.542,148.392
		c1.397-0.589,2.666-1.124,3.994-1.684c-0.95-1.289-1.832-2.484-2.767-3.754c-1.001,0.587-1.972,1.156-3.008,1.764
		C125.386,146.008,125.965,147.204,126.542,148.392z M29.563,146.741c-1.629-1.846-3.195-3.621-4.793-5.432
		c-0.566,1.292,1.458,7.122,2.799,8.056C28.211,148.52,28.858,147.669,29.563,146.741z M102.504,98.599
		c-0.833-1.825-1.668-3.655-2.596-5.687c-0.678,0.734-1.18,1.278-1.692,1.831c0.776,2.189,1.513,4.268,2.265,6.388
		C101.157,100.285,101.751,99.542,102.504,98.599z M104.854,166.746c-1.328-1.673-2.461-3.099-3.719-4.682
		c-1.138,1.109-2.18,2.124-3.445,3.357c2.142,0.602,4.026,1.158,5.929,1.64C103.927,167.14,104.319,166.893,104.854,166.746z
		 M89.613,153.682c1.062-1.776,1.97-3.294,2.872-4.801c-0.421-1.061-0.815-2.058-1.322-3.337c-0.79,1.009-1.443,1.808-2.051,2.64
		c-0.253,0.346-0.631,0.804-0.569,1.139C88.798,150.708,89.201,152.068,89.613,153.682z M147.825,134.023
		c1.815-1.665,3.393-3.112,4.97-4.56c-0.041-0.116-0.082-0.231-0.123-0.347c-0.413,0.056-0.837,0.066-1.233,0.178
		c-0.444,0.127-0.858,0.356-1.292,0.521c-1.521,0.575-3.095,0.799-4.719,0.733c-0.243-0.01-0.493,0.142-1.018,0.306
		C145.675,132.027,146.744,133.02,147.825,134.023z M128.623,75.728c-0.493,0.466-0.866,0.818-1.3,1.229
		c0.866,2.536,1.716,5.027,2.594,7.6c0.791-0.681,1.425-1.225,2.006-1.725C130.787,80.386,129.742,78.138,128.623,75.728z
		 M103.054,107.577c0.8-0.99,1.506-1.864,2.164-2.679c-0.694-1.642-1.331-3.15-1.988-4.706c-0.522,0.524-1.014,0.884-1.321,1.362
		c-0.332,0.517-0.808,1.242-0.666,1.705C101.684,104.695,102.389,106.048,103.054,107.577z M74.455,116.657
		c-1.046-1.567-2.024-3.032-3.074-4.605c-0.337,0.451-0.572,0.766-0.793,1.06c1.41,1.714,2.145,3.041,2.589,5.367
		c-1.404,0.148-2.792,0.294-4.23,0.445c0.69,1.159,1.338,2.248,2.082,3.497C72.23,120.399,73.36,118.498,74.455,116.657z
		 M122.773,129.467c0.801,1.666,1.569,3.263,2.408,5.007c0.813-0.729,1.517-1.361,2.183-1.958c-0.995-1.847-1.917-3.558-2.878-5.346
		C123.857,128.012,123.336,128.711,122.773,129.467z M132.223,140.282c-0.966,0.665-1.864,1.284-2.852,1.964
		c0.917,1.255,1.774,2.427,2.654,3.631c1.048-0.642,1.935-1.184,2.917-1.785C134.047,142.839,133.188,141.635,132.223,140.282z
		 M94.257,87.774c-0.097-0.056-0.193-0.111-0.291-0.166c-0.526,0.602-1.053,1.203-1.535,1.755c0.847,2.281,1.623,4.372,2.446,6.589
		c0.604-0.533,1.135-1.001,1.662-1.466C95.757,92.183,95.007,89.979,94.257,87.774z M112.922,126.202
		c1.039-1.095,1.934-2.038,2.841-2.994c-0.9-1.158-1.735-2.233-2.612-3.362c-0.76,0.996-1.464,1.917-2.2,2.882
		C111.6,123.873,112.215,124.955,112.922,126.202z M75.098,138.115c0.592,1.458,1.186,2.922,1.78,4.387
		c0.089,0,0.179,0.001,0.267,0.002c0.409-1.394,2.028-2.379,1.569-3.984c-0.33-1.154-0.585-2.545-1.894-3.32
		C76.226,136.208,75.697,137.101,75.098,138.115z M59.44,156.755c-1.204,1.978-2.279,3.746-3.384,5.562
		c1.622,0.466,5.258-1.445,5.705-2.909C61.058,158.604,60.319,157.76,59.44,156.755z M90.5,106.446
		c-1.655,2.879-2.036,5.574-0.963,8.461c0.893-0.997,1.739-1.943,2.557-2.857C91.556,110.161,91.052,108.389,90.5,106.446z
		 M104.299,76.69c1.029-0.949,1.985-1.831,2.898-2.673c-0.582-1.183-1.081-2.199-1.612-3.28c-1.039,0.608-2.03,1.187-3.08,1.801
		C103.113,73.943,103.69,75.282,104.299,76.69z M136.056,150.482c0.912-0.658,1.684-1.216,2.571-1.856
		c-0.968-1.178-1.867-2.273-2.859-3.481c-0.956,0.581-1.862,1.131-2.889,1.755C133.944,148.101,134.954,149.24,136.056,150.482z
		 M165.066,136.682c-1.601,1.765-3.123,3.442-4.69,5.17c0.493,0.272,1.115,0.615,1.75,0.966c1.639-1.66,3.846-2.717,4.275-5.321
		C166.037,137.275,165.648,137.038,165.066,136.682z M174.395,114.306c0.795-2.012,1.751-7.01,1.404-7.456
		c-1.46,1.693-2.908,3.371-4.42,5.125C172.447,112.801,173.38,113.522,174.395,114.306z M134.949,158.349
		c0.923,0.674,1.715,1.254,2.668,1.951c1.411-0.796,2.806-1.583,4.302-2.428c-0.848-0.704-1.54-1.279-2.296-1.907
		C138.122,156.731,136.648,157.482,134.949,158.349z M147.294,154.133c1.748-1.212,3.517-2.439,5.37-3.724
		c-0.733-0.492-1.373-0.922-2.031-1.365c-1.732,1.227-3.409,2.414-5.195,3.68C146.135,153.252,146.641,153.637,147.294,154.133z
		 M66.458,153.922c-0.136-0.018-0.271-0.035-0.407-0.053c-0.837,1.692-1.675,3.384-2.575,5.202c0.217,0.223,0.37,0.381,0.564,0.581
		c1.753-0.902,3.36-1.729,5.004-2.574C68.113,155.943,67.286,154.933,66.458,153.922z M128.723,86.006
		c-0.959-2.714-1.819-5.144-2.752-7.784c-0.383,0.466-0.594,0.722-0.804,0.978c0.084,0.026,0.168,0.053,0.252,0.079
		c-0.054,0.472-0.108,0.943-0.165,1.433c0.178,1.114,0.272,2.286,0.571,3.404c0.293,1.099,0.794,2.142,1.269,3.376
		C127.725,86.916,128.234,86.452,128.723,86.006z M120.119,149.169c0.624,0.731,1.107,1.297,1.574,1.845
		c1.206-0.658,2.297-1.253,3.435-1.874c-0.632-1.241-1.218-2.389-1.923-3.773C122.097,146.732,121.133,147.918,120.119,149.169z
		 M68.19,129.881c0.685,0.742,1.321,1.432,2.004,2.171c0.83-1.477,1.6-2.848,2.376-4.229c-0.545-0.803-1.066-1.57-1.665-2.454
		C69.977,126.913,69.11,128.353,68.19,129.881z M107.142,132.465c-0.605-1.173-1.109-2.15-1.659-3.215
		c-1.069,1.228-2.03,2.333-2.992,3.437c0.566,0.947,1.052,1.757,1.574,2.63C105.173,134.29,106.151,133.383,107.142,132.465z
		 M114.768,145.209c-0.879-1.373-1.705-2.663-2.615-4.083c-0.739,0.867-1.37,1.607-2.036,2.389c0.982,1.301,1.9,2.516,2.874,3.805
		C113.655,146.531,114.179,145.908,114.768,145.209z M126.86,141.807c-0.848-1.564-1.632-3.013-2.499-4.612
		c-0.689,0.747-1.306,1.415-1.911,2.071c0.613,1.398,1.159,2.645,1.729,3.948C125.113,142.725,125.98,142.27,126.86,141.807z
		 M113.795,161.007c1.529-1.969,2.955-3.804,4.383-5.643c-0.452-0.476-0.871-0.918-1.31-1.381c-1.482,1.889-2.928,3.732-4.383,5.586
		C112.942,160.07,113.325,160.491,113.795,161.007z M101.89,109.108c-0.637-1.508-1.253-2.969-1.899-4.499
		c-0.67,0.796-1.243,1.476-1.859,2.206c0.525,1.51,1.057,3.033,1.683,4.832C100.611,110.671,101.208,109.942,101.89,109.108z
		 M32.121,63.517c1.236-1.621,2.374-3.114,3.629-4.759c-1.299-0.066-2.464-0.126-3.599-0.184c-0.109,0.39-0.178,0.636-0.25,0.893
		c-0.62,0.331-1.225,0.653-1.828,0.975C30.762,61.477,31.416,62.458,32.121,63.517z M165.649,79.692
		c1.042,0.911,1.997,1.744,3.036,2.652c0.578-0.933,1.077-1.74,1.583-2.557c-0.957-1.049-1.849-2.028-2.803-3.074
		C166.841,77.736,166.283,78.653,165.649,79.692z M46.065,61.191c-1.707,0.185-3.312-0.688-5.095-0.355
		c1.112,1.638,2.081,3.065,3.071,4.525c0.838-1.148,1.624-2.224,2.427-3.322C46.34,61.771,46.23,61.54,46.065,61.191z
		 M141.586,162.764c1.391-0.675,2.763-1.34,4.318-2.094c-0.988-0.684-1.767-1.223-2.611-1.807c-1.41,0.8-2.807,1.593-4.297,2.438
		C139.912,161.819,140.717,162.273,141.586,162.764z M110.407,66.598c-1.017,1.311-1.963,2.529-2.908,3.748
		c-0.136-0.095-0.271-0.188-0.407-0.283c0.353,0.776,0.706,1.552,1.154,2.538c1.332-1.42,2.517-2.684,3.768-4.019
		C111.5,67.949,111.053,67.396,110.407,66.598z M81.861,145.493c-0.188,0.206-0.349,0.312-0.408,0.459
		c-0.413,1.016-0.728,2.078-1.225,3.05c-0.416,0.814-0.117,1.442,0.229,2.108c0.145,0.279,0.354,0.525,0.583,0.86
		c0.219,0.019,0.492,0.042,0.786,0.067c0.488-1.518,0.95-2.954,1.406-4.371C82.789,146.963,82.356,146.278,81.861,145.493z
		 M85.675,103.017c0.114,0.012,0.227,0.024,0.341,0.037c0.457-1.34,0.804-2.731,1.404-4.003c0.634-1.346,0.002-2.323-0.608-3.618
		c-0.818,1.804-1.548,3.415-2.363,5.212C84.784,101.294,85.23,102.155,85.675,103.017z M90.097,86.584
		c-0.065,0.005-0.13,0.011-0.196,0.017c-0.112,0.293-0.238,0.582-0.335,0.881c-0.439,1.358-0.718,2.795-1.344,4.061
		c-0.695,1.407-0.032,2.515,0.365,3.757c0.489-0.956,0.872-1.924,1.211-2.909c0.352-1.02,0.66-2.053,1.062-3.316
		C90.656,88.411,90.376,87.498,90.097,86.584z M144.954,117.719c2.376,0,4.523,0,6.929,0c-1.392-1.231-2.667-2.357-4.007-3.542
		C146.866,115.402,145.989,116.464,144.954,117.719z M123.476,151.571c0.772,1.031,1.457,1.951,2.147,2.865
		c0.137,0.182,0.298,0.345,0.526,0.607c0.786-0.371,1.555-0.734,2.409-1.139c-0.926-1.22-1.781-2.347-2.703-3.562
		C125.115,150.725,124.426,151.081,123.476,151.571z M139.481,149.78c-0.743,0.485-1.552,1.014-2.442,1.595
		c1.059,0.977,2.019,1.862,3.058,2.82c0.798-0.56,1.542-1.082,2.191-1.538C141.347,151.693,140.454,150.777,139.481,149.78z
		 M78.991,148.073c0.763-1.588,1.388-2.89,2.014-4.19c-0.454-0.912-0.896-1.802-1.456-2.927c-0.627,1.262-1.24,2.257-1.627,3.333
		C77.423,145.679,78.631,146.633,78.991,148.073z M19.431,111.418c0.107,0.03,0.215,0.061,0.323,0.091
		c0.759-1.062,1.518-2.123,2.253-3.151c-1.129-1.544-2.145-2.933-3.16-4.322c-0.053,0.022-0.106,0.045-0.159,0.068
		C18.936,106.542,19.183,108.98,19.431,111.418z M177.1,69.304c-1.498-0.136-2.715-0.523-3.381-1.954
		c-0.525,0.911-0.959,1.666-1.44,2.5c0.775,0.907,1.561,1.826,2.411,2.82C175.491,71.55,176.233,70.515,177.1,69.304z
		 M22.403,124.505c-0.269,0.236-0.324,0.267-0.354,0.313c-0.451,0.687-0.42,1.384-0.222,2.174c0.33,1.315,0.511,2.668,0.791,4.206
		c0.909-1.076,1.687-1.996,2.487-2.943C24.178,126.969,23.307,125.759,22.403,124.505z M183.555,68.566
		c-1.553,0.261-2.937,0.494-4.525,0.761c1.348,1.445,2.541,2.722,3.733,4c0.121-0.051,0.241-0.102,0.362-0.153
		C183.264,71.685,183.403,70.195,183.555,68.566z M96.593,86.085c-0.565,0.339-0.903,0.543-1.158,0.696
		c0.768,2.123,1.497,4.142,2.307,6.383c0.56-0.62,1.008-1.117,1.61-1.783C98.447,89.642,97.552,87.925,96.593,86.085z M88.25,68.323
		c-0.734,1.84-1.388,3.479-2.035,5.101c0.396,0.701,0.765,1.353,1.254,2.218c0.728-1.734,1.376-3.281,2.041-4.865
		C89.11,69.996,88.713,69.226,88.25,68.323z M120.873,74.35c0.578-0.935,1.056-1.706,1.572-2.542
		c-0.948-0.767-1.819-1.472-2.751-2.226c-0.608,0.858-1.149,1.622-1.771,2.499C118.924,72.852,119.814,73.537,120.873,74.35z
		 M157.173,119.458c0.936-1.079,1.811-2.059,2.649-3.066c0.49-0.59,0.923-1.226,1.417-1.888c-0.357-0.268-0.867-0.649-1.499-1.123
		c-1.247,1.772-2.466,3.506-3.734,5.309C156.364,118.926,156.694,119.144,157.173,119.458z M95.971,75.996
		c-0.484,0.173-0.905,0.324-1.421,0.509c0.826,2.4,1.618,4.703,2.461,7.157c0.532-0.473,0.891-0.792,1.188-1.058
		C97.447,80.371,96.732,78.25,95.971,75.996z M81.858,142.024c0.094-0.021,0.187-0.042,0.281-0.064
		c0.805-1.682,2.097-3.242,1.431-5.311c-0.675,0-1.164,0-1.701,0c-0.372,0.788-0.73,1.548-1.144,2.423
		C81.083,140.007,81.47,141.016,81.858,142.024z M97.927,128.033c-0.867,1.076-1.659,2.06-2.442,3.033
		c1.579,0.662,3.034,1.272,4.598,1.928c0.055-0.07,0.205-0.263,0.31-0.399C99.562,131.059,98.781,129.612,97.927,128.033z
		 M85.568,75.389c-0.821,1.396-1.524,2.593-2.201,3.744c0.388,1.079,0.754,2.097,1.191,3.31c0.708-1.703,1.369-3.295,2.026-4.877
		C86.255,76.858,85.951,76.208,85.568,75.389z M90.314,143.855c-0.89-0.874-1.666-1.636-2.405-2.361
		c-1.76,1.745-0.526,3.54,0.153,5.561C88.91,145.852,89.655,144.792,90.314,143.855z M74.555,151.071
		c0.63,0.666,1.191,1.26,1.806,1.911c0.616-1.09,1.145-2.025,1.69-2.99c-0.435-0.909-0.859-1.793-1.42-2.963
		C75.872,148.508,75.24,149.739,74.555,151.071z M90.634,72.807c-0.077-0.022-0.154-0.045-0.231-0.068
		c-0.701,1.578-1.404,3.155-2.076,4.667c0.553,0.959,1.048,1.821,1.605,2.789C91.487,77.672,90.442,75.194,90.634,72.807z
		 M132.04,157.629c-0.987-0.919-1.86-1.731-2.769-2.576c-0.769,0.347-1.556,0.702-2.511,1.132c0.976,0.932,1.809,1.776,2.708,2.543
		c0.171,0.146,0.645,0.073,0.904-0.052C130.889,158.426,131.354,158.07,132.04,157.629z M88.404,100.822
		c-0.538,1.404-1.065,2.78-1.589,4.15c0.47,0.914,0.904,1.756,1.406,2.731C89.238,105.337,90.098,103.14,88.404,100.822z
		 M157.653,151.249c1.546-1.872,3.263-3.523,4.154-6.002c-2.132,1.749-4.11,3.372-6.161,5.055
		C156.299,150.61,156.946,150.915,157.653,151.249z M150.105,157.973c-1.097-0.696-2.019-1.281-2.961-1.881
		c-0.803,0.629-1.539,1.204-2.441,1.91c1.02,0.628,1.828,1.126,2.675,1.648C148.293,159.087,149.124,158.577,150.105,157.973z
		 M150.614,61.418c-0.032-0.097-0.064-0.194-0.097-0.29c-1.51,0-3.019,0-4.606,0c0.599,1.297,1.154,2.498,1.772,3.836
		C148.729,63.699,149.671,62.559,150.614,61.418z M96.465,71.47c0.202,0.71,0.398,1.4,0.642,2.258
		c1.39-0.773,2.595-1.444,3.833-2.133c-0.254-0.733-0.465-1.343-0.689-1.992C98.966,70.236,97.825,70.799,96.465,71.47z
		 M156.981,127.43c-0.546,0.558-1.009,1.029-1.615,1.648c1.726,0.993,3.372,1.939,5.071,2.916c0.243-0.269,0.418-0.463,0.622-0.688
		c-0.364-0.184-0.621-0.313-0.893-0.451c-0.035-0.299-0.066-0.581-0.091-0.801c-0.553-0.463-1.05-0.873-1.542-1.29
		C158.029,128.336,157.53,127.902,156.981,127.43z M88.973,120.697c-1.141,0.777-1.595,1.761-1.84,2.795
		c-0.317,1.343,1.116,1.846,1.444,2.942C90.613,124.613,89.298,122.754,88.973,120.697z M111.418,160.89
		c-1.514,1.962-2.939,3.81-4.364,5.657c0.078,0.078,0.155,0.155,0.233,0.232c1.864-1.364,3.917-2.5,5.37-4.51
		C112.236,161.799,111.89,161.415,111.418,160.89z M91.815,80.777c-1.336,2.289-0.381,4.33,0.155,6.553
		c0.637-0.437,1.17-0.802,1.684-1.154C93.034,84.355,92.453,82.65,91.815,80.777z M53.703,102.385c2.264,0.525,2,3.167,3.801,4.112
		c0.222-0.449,0.41-0.827,0.573-1.159c-1.038-1.648-2.021-3.211-3.045-4.837C54.584,101.135,54.186,101.699,53.703,102.385z
		 M85.974,59.16c-0.088,0.079-0.175,0.158-0.263,0.237c0.73,1.594,1.46,3.188,2.189,4.781c0.115-0.008,0.231-0.016,0.346-0.023
		c0.378-1.122,0.755-2.244,1.146-3.405C88.102,60.15,87.038,59.655,85.974,59.16z M91.716,64.832
		c-0.486-0.302-0.991-0.615-1.619-1.006c-0.372,0.976-0.688,1.806-1.006,2.638c0.413,0.845,0.8,1.638,1.262,2.583
		C91.293,67.672,92.034,66.459,91.716,64.832z M135.951,161.133c-0.998-0.867-1.829-1.589-2.725-2.368
		c-0.75,0.356-1.491,0.707-2.403,1.14c0.928,0.827,1.697,1.511,2.437,2.17C134.187,161.751,134.994,161.468,135.951,161.133z
		 M115.754,146.773c-0.542,0.613-1.016,1.148-1.523,1.722c0.831,0.945,1.581,1.799,2.383,2.713c0.523-0.676,0.928-1.198,1.348-1.739
		C117.224,148.566,116.525,147.714,115.754,146.773z M143.838,153.586c-0.811,0.52-1.593,1.021-2.518,1.613
		c0.822,0.675,1.466,1.204,2.185,1.794c0.785-0.589,1.544-1.158,2.424-1.819C145.19,154.614,144.574,154.146,143.838,153.586z
		 M96.17,69.843c1.326-0.655,2.508-1.239,3.72-1.837c-0.117-0.41-0.186-0.646-0.192-0.671c-1.48-0.253-2.799-0.478-4.1-0.699
		C95.758,67.532,95.943,68.572,96.17,69.843z M177.053,89.152c0.883,0.708,1.68,1.347,2.633,2.11
		c0.231-1.27,0.411-2.259,0.605-3.324c-0.501-0.349-0.99-0.69-1.537-1.072C178.18,87.639,177.678,88.312,177.053,89.152z
		 M86.297,121.123c1.73-1.452,2.25-4.219,1.192-6.103c-0.565,1.247-1.099,2.427-1.631,3.603
		C85.999,119.423,86.139,120.224,86.297,121.123z M120.699,68.398c0.867,0.697,1.715,1.38,2.635,2.12
		c0.418-0.746,0.755-1.345,1.121-1.997c-0.549-0.597-1.055-1.146-1.583-1.72c-0.659,0.258-1.224,0.479-1.767,0.692
		C120.964,67.807,120.847,68.069,120.699,68.398z M131.933,163.048c-1.021-0.865-1.88-1.594-2.733-2.318
		c-0.61,0.223-1.126,0.411-1.826,0.667c0.873,0.995,1.68,1.916,2.53,2.885C130.541,163.894,131.131,163.535,131.933,163.048z
		 M106.467,68.449c1.118-1.035,2.103-1.948,3.09-2.861c-0.326-0.486-0.499-0.743-0.604-0.9c-1.674-0.472-2.176,0.977-3.208,1.585
		C105.978,66.976,106.187,67.607,106.467,68.449z M123.381,73.383c-0.308,0.418-0.518,0.772-0.795,1.062
		c-0.518,0.542-0.493,1.024,0.08,1.483c0.632,0.506,1.274,1.001,1.948,1.53c0.302-0.238,0.564-0.446,0.799-0.631
		c-0.247-0.883-0.464-1.664-0.662-2.371C124.278,74.087,123.878,73.773,123.381,73.383z M118.731,68.01c-1.587,0-2.858,0-4.164,0
		c-0.118,0.197-0.233,0.389-0.384,0.64c0.814,0.744,1.604,1.465,2.493,2.277C117.357,69.96,117.964,69.098,118.731,68.01z
		 M163.46,128.838c1.211-1.128,2.272-2.115,3.475-3.235c-1.132-0.415-2.116-0.775-3.18-1.165
		C163.652,125.979,163.562,127.325,163.46,128.838z M136.961,164.834c0.925-0.432,1.79-0.835,2.827-1.318
		c-1-0.579-1.774-1.027-2.542-1.471c-0.802,0.358-1.557,0.695-2.52,1.125C135.54,163.776,136.2,164.268,136.961,164.834z
		 M169.129,65.394c0.714,1.101,1.347,2.074,2.07,3.189c0.78-1.265,1.437-2.328,2.182-3.536
		C171.942,65.165,170.657,65.27,169.129,65.394z M70.538,110.689c-0.668-0.886-1.283-1.701-1.951-2.587
		c-0.463,1.186-0.852,2.183-1.266,3.244c0.713,0.3,1.371,0.577,2.094,0.883C69.787,111.718,70.127,111.252,70.538,110.689z
		 M95.018,85.209c0.362-0.328,0.544-0.493,0.734-0.665c-0.917-2.571-1.809-5.074-2.701-7.578c-0.091,0.028-0.182,0.056-0.272,0.083
		C92.944,79.851,93.968,82.422,95.018,85.209z M101.735,68.845c0.228,0.699,0.419,1.289,0.65,1.998
		c0.942-0.559,1.756-1.041,2.648-1.57c-0.214-0.674-0.41-1.291-0.66-2.077C103.432,67.785,102.631,68.285,101.735,68.845z
		 M125.427,72.772c0.084-0.001,0.168-0.004,0.253-0.005c0.377,0.845,0.755,1.69,1.167,2.613c0.355-0.322,0.689-0.626,1.041-0.945
		c-0.751-1.458-1.464-2.84-2.254-4.372c-0.432,0.61-0.723,1.023-1.012,1.432c0.278,0.236,0.476,0.406,0.668,0.57
		C125.338,72.314,125.382,72.544,125.427,72.772z M91.505,161.813c0.525-0.889-0.544-3.067-1.911-4.492
		c-0.291,0.612-0.571,1.203-0.909,1.916C89.623,160.094,90.523,160.916,91.505,161.813z M20.227,79.152
		c-0.485-0.729-0.903-1.359-1.322-1.989c-0.102,0.023-0.204,0.047-0.305,0.07c-0.239,1.552-0.477,3.103-0.716,4.655
		c0.13,0.043,0.261,0.086,0.391,0.129C18.917,81.074,19.559,80.132,20.227,79.152z M104.966,97.96
		c-0.663,0.775,0.215,3.624,1.564,5.198c0.269-0.388,0.521-0.753,0.756-1.093C106.485,100.648,105.733,99.318,104.966,97.96z
		 M87.962,156.75c0.273-0.497,0.477-0.868,0.615-1.118c-0.499-1.474-0.958-2.832-1.418-4.195
		C85.851,152.575,86.568,153.878,87.962,156.75z M91.954,130.622c-0.488-1.368-0.926-2.594-1.387-3.884
		c-1.199,1.421-1.231,2.163-0.223,3.81C90.807,130.569,91.294,130.591,91.954,130.622z M127.931,63.774
		c-0.85-0.111-1.496-0.196-2.026-0.265c-0.555,0.983-1.046,1.854-1.569,2.782c0.283,0.24,0.604,0.511,0.979,0.827
		c0.558-0.847,1.062-1.613,1.651-2.51C127.155,64.445,127.473,64.17,127.931,63.774z M165.014,117.001
		c-0.986-0.658-1.842-1.23-2.698-1.802c-0.074,0.046-0.148,0.092-0.222,0.139c0.285,1.144,0.572,2.288,0.896,3.588
		C163.725,118.227,164.321,117.661,165.014,117.001z M84.069,145.47c1.048-1.346,1.136-2.654,0.275-4.103
		C82.983,143.062,82.709,144.392,84.069,145.47z M97.734,84.992c0.877,1.693,1.722,3.321,2.616,5.048
		c0.167-0.231,0.337-0.374,0.311-0.445c-0.627-1.769-1.275-3.529-1.95-5.378C98.375,84.484,98.107,84.696,97.734,84.992z
		 M117.907,152.492c0.537,0.574,1.023,1.096,1.649,1.765c0.397-0.743,0.702-1.314,1.043-1.955c-0.465-0.498-0.892-0.955-1.311-1.402
		c-0.159,0.081-0.261,0.101-0.308,0.161C118.643,151.498,118.315,151.944,117.907,152.492z M131.162,165.101
		c1.576,1.081,2.826,1.241,3.847,0.265c-0.654-0.454-1.287-0.893-1.911-1.325C132.433,164.405,131.838,164.73,131.162,165.101z
		 M101.494,67.102c0.812-0.506,1.489-0.929,2.231-1.392c-0.202-0.5-0.394-0.976-0.579-1.434c-0.353-0.066-0.629-0.118-0.887-0.166
		c-0.36,0.651-0.684,1.235-1.036,1.872C101.294,66.276,101.375,66.61,101.494,67.102z M103.788,97.016
		c0.11-0.361,0.286-0.623,0.217-0.765c-0.814-1.659-1.666-3.301-2.545-5.021C101.012,92.014,102.186,94.838,103.788,97.016z
		 M106.612,144.975c0.473-0.427,0.956-0.862,1.515-1.367c-0.822-1.01-1.542-1.894-2.421-2.972
		C106.044,142.255,106.32,143.575,106.612,144.975z M172.481,122.683c-0.057-0.041-0.114-0.082-0.171-0.123
		c-0.799,0.805-1.597,1.609-2.471,2.491c0.65,0.24,1.203,0.445,1.828,0.677C171.96,124.631,172.22,123.657,172.481,122.683z
		 M64.707,60.225c-0.555-0.096-0.996-0.173-1.468-0.255c-0.178,0.732-0.328,1.352-0.501,2.064c0.188,0.272,0.41,0.597,0.722,1.052
		C63.897,62.084,64.273,61.222,64.707,60.225z M94.547,70.427c-0.32-1.656-0.614-3.18-0.951-4.922
		c-0.417,1.019-0.127,4.816,0.339,5.123C94.086,70.579,94.289,70.512,94.547,70.427z M94.81,72.082
		c-0.329,0.087-0.571,0.151-0.955,0.253c0.144,0.916,0.281,1.783,0.437,2.773c0.503-0.247,0.85-0.417,1.239-0.609
		c-0.161-0.611-0.294-1.143-0.443-1.669C95.027,72.61,94.93,72.401,94.81,72.082z M85.866,150.232
		c0.881-1.063,0.85-2.494-0.037-3.925C84.703,147.639,85.703,148.882,85.866,150.232z M147.635,161.97
		c-0.042-0.114-0.083-0.228-0.124-0.342c-1.461,0.288-2.558,1.342-3.911,1.985c0.141,0.28,0.227,0.45,0.384,0.765
		C145.238,163.552,146.437,162.761,147.635,161.97z M73.728,152.774c-0.392,0.825-0.764,1.609-1.201,2.529
		c0.578-0.195,0.994-0.32,1.398-0.477c0.389-0.151,0.765-0.335,1.209-0.532c-0.401-0.484-0.731-0.891-1.072-1.287
		C73.993,152.925,73.882,152.879,73.728,152.774z M86.042,140.679c0.865-1.384,0.758-2-0.604-3.375
		C85.625,138.355,85.813,139.405,86.042,140.679z M84.182,153.134c0.553-0.691,0.484-1.684-0.206-2.702
		c-0.218,0.757-0.416,1.444-0.623,2.162C83.663,152.796,83.925,152.966,84.182,153.134z M126.698,160.255
		c0.499-0.25,0.827-0.415,1.082-0.542c-0.497-0.603-0.96-1.164-1.423-1.725c-0.101,0.066-0.203,0.132-0.305,0.198
		C126.256,158.841,126.461,159.498,126.698,160.255z M40.562,111.397c0.048,0.062,0.097,0.123,0.146,0.185
		c0.643-0.366,1.286-0.731,1.982-1.127c-0.298-0.391-0.501-0.657-0.8-1.047C41.391,110.156,40.977,110.777,40.562,111.397z
		 M166.344,135.598c0.449,0.232,0.692,0.357,1.012,0.523c0.441-0.86,0.845-1.646,1.22-2.38
		C167.877,134.323,167.167,134.914,166.344,135.598z M138.795,165.779c0.04,0.1,0.08,0.199,0.119,0.299
		c1.018-0.358,2.035-0.716,3.052-1.074c-0.037-0.105-0.074-0.211-0.111-0.317C140.611,164.419,139.825,165.446,138.795,165.779z
		 M180.733,86.315c0.173-0.805,0.313-1.455,0.453-2.105c-0.079-0.039-0.158-0.077-0.237-0.116c-0.382,0.438-0.764,0.876-1.2,1.377
		C180.094,85.767,180.346,85.983,180.733,86.315z M46.659,164.333c-0.469-0.525-0.761-0.853-1.147-1.284
		c-0.235,0.507-0.411,0.882-0.664,1.427C45.489,164.425,45.952,164.388,46.659,164.333z M19.423,68.627
		c0.088,0.061,0.175,0.121,0.263,0.182c0.25-0.304,0.5-0.609,0.779-0.948c-0.206-0.392-0.396-0.751-0.585-1.111
		c-0.071,0.016-0.141,0.031-0.211,0.046C19.587,67.407,19.505,68.017,19.423,68.627z M93.654,147.085
		c0.277-0.465,0.412-0.692,0.59-0.993c-0.389-0.229-0.701-0.412-1.24-0.729C93.255,146.026,93.402,146.416,93.654,147.085z
		 M91.515,70.577c0.159,0.295,0.31,0.575,0.46,0.855c0.097-0.029,0.193-0.059,0.29-0.088c-0.046-0.518-0.092-1.036-0.138-1.554
		c-0.081-0.003-0.162-0.007-0.242-0.011C91.767,70.034,91.648,70.289,91.515,70.577z M58.582,107.806
		c0.413,0.074,0.738,0.132,1.231,0.221c-0.263-0.436-0.434-0.718-0.665-1.101C58.933,107.262,58.785,107.492,58.582,107.806z"/>
	<path fill-rule="evenodd" clip-rule="evenodd" fill="#b3d753" class="fill" d="M61.054,58.674c-0.114,0.61-0.179,0.951-0.242,1.288
		c-1.796,0.934-3.746,0.979-5.655,1.117c-1.48,0.106-2.974,0.035-4.461,0.018c-0.314-0.004-0.704-0.024-0.926-0.203
		c-0.423-0.341-0.948-0.751-1.066-1.224c-0.161-0.638,0.459-0.952,1.011-1.24c2.993-1.562,6.133-1.56,9.31-0.831
		C59.745,57.764,60.379,58.306,61.054,58.674z"/>
	<path fill-rule="evenodd" clip-rule="evenodd" fill="#b3d753" class="fill" d="M20.852,56.872c0.397-0.704,0.808-1.429,1.228-2.172
		c2.595-0.071,5.141-0.381,7.418,0.949c0.11,0.577,0.194,1.023,0.279,1.467C28.282,58.133,22.15,58.019,20.852,56.872z"/>
	<path fill-rule="evenodd" clip-rule="evenodd" fill="#b3d753" class="fill" d="M156.634,60.748c0.742,0.087,1.61,0.096,2.426,0.306
		c1.602,0.413,3.175,0.937,4.759,1.418c0.266,0.081,0.527,0.181,0.774,0.267c-0.523,0.57-1.012,1.095-1.491,1.628
		c-0.633,0.703-1.415,0.581-2.195,0.387c-1.104-0.274-2.202-0.575-3.302-0.865C155.918,63.445,155.567,62.51,156.634,60.748z"/>
	<path fill-rule="evenodd" clip-rule="evenodd" fill="#b3d753" class="fill" d="M73.635,60.502c-0.229-1.179,0.518-2.371,1.521-2.582
		c1.903-0.399,3.817-0.746,5.925-1.152c0.183,0.866,0.338,1.604,0.467,2.218c-0.137,0.201-0.16,0.279-0.203,0.292
		c-1.808,0.549-3.597,1.185-5.438,1.588C75.207,61.02,74.387,60.638,73.635,60.502z"/>
	<path fill-rule="evenodd" clip-rule="evenodd" fill="#b3d753" class="fill" d="M92.228,60.41c0.232-1.345,1.881-1.823,3.385-1.383
		c1.753,0.514,3.106,1.652,4.437,2.832C97.95,64.337,93.418,62.757,92.228,60.41z"/>
	<path fill-rule="evenodd" clip-rule="evenodd" fill="#b3d753" class="fill" d="M134.968,60.279c2.474-1.123,5.057-0.219,7.577-0.681
		c0.098,0.606,0.174,1.078,0.265,1.647c-0.253,0.132-0.512,0.337-0.803,0.407c-1.732,0.417-3.46,0.871-5.213,1.177
		C135.366,63.079,134.776,62.216,134.968,60.279z"/>
	<path fill-rule="evenodd" clip-rule="evenodd" fill="#b3d753" class="fill" d="M179.873,66.302c0.202-1.285-0.294-2.26-1.299-3.017
		c0.031-0.103,0.062-0.206,0.092-0.309c1.506-0.178,3.013-0.496,4.518-0.488c1.167,0.006,1.823,0.989,2.34,1.928
		C184.869,65.481,182.761,66.183,179.873,66.302z"/>
	<path fill-rule="evenodd" clip-rule="evenodd" fill="#b3d753" class="fill" d="M114.297,64.288c-0.055-0.314-0.114-0.652-0.195-1.112
		c2.57-1.646,5.318-1.033,8.108-0.709c0.192,0.3,0.389,0.608,0.571,0.894C121.921,64.396,115.818,65.035,114.297,64.288z"/>
</g>
<g id="Layer_2" display="none">
</g>
</svg>
