<svg version="1.1" id="svg" xmlns="http://www.w3.org/2000/svg" xmlns:xlink="http://www.w3.org/1999/xlink" x="0px" y="0px"
	 width="200px" height="200px" viewBox="0 0 200 200" enable-background="new 0 0 200 200" xml:space="preserve">
<path class="stroke" fill="#283843"  d="M176.606,69.872c-0.26-3.304-1.885-5.706-4.906-7.147c-1.517-0.723-3.135-0.866-4.77-1.01
	c-0.989-0.088-1.967-0.305-2.769-0.435c-1.451-1.732-2.841-3.161-4.74-3.875c-2.108-0.792-4.238-1.555-6.409-2.15
	c-4.191-1.148-8.459-1.972-12.805-2.224c-3.938-0.228-7.887-0.468-11.827-0.423c-3.887,0.045-7.769,0.449-11.653,0.681
	c-3.474,0.208-6.846,0.739-9.741,2.895c-0.186,0.138-0.468,0.146-0.787,0.237c-0.103-2.186,1.026-4.211,0.222-6.239
	c-1.574-0.622-4.234-0.686-5.791-0.104c-0.229,2.012-0.466,4.103-0.692,6.099c-1.406-0.412-2.669-1.03-3.966-1.114
	c-3.823-0.25-7.658-0.346-11.49-0.391c-3.154-0.037-6.311,0.113-9.466,0.128c-2.985,0.015-5.973-0.12-8.956-0.039
	c-3.379,0.092-6.754,0.37-10.133,0.534c-3.922,0.19-7.739,0.771-11.231,2.728c-1.198,0.671-2.396,1.387-2.905,2.721
	c-0.784,2.05-1.581,4.119-1.103,6.408c0.102,0.484,0.015,1.007,0.015,1.664c-0.481,0.419-0.926,0.768-1.324,1.161
	c-1.734,1.714-3.439,3.471-3.901,5.991c-0.354,1.934-0.622,3.887-0.847,5.841c-0.193,1.681-0.256,3.376-0.401,5.062
	c-0.314,3.651-0.765,7.296-0.938,10.955c-0.216,4.505-0.209,9.021-0.295,13.533c-0.13,6.884-0.343,13.766,0.551,20.629
	c0.404,3.112,1.131,6.104,2.562,8.889c1.619,3.144,3.982,5.279,7.748,5.455c1.856,0.086,3.702,0.402,5.558,0.496
	c5.181,0.263,10.363,0.515,15.547,0.665c2.195,0.064,4.398-0.131,6.597-0.22c6.994-0.284,13.99-0.487,20.983-0.056
	c2.87,0.176,5.731,0.547,8.603,0.684c4.557,0.218,9.121,0.307,13.682,0.465c1.802,0.062,3.602,0.212,5.404,0.239
	c3.442,0.051,6.891-0.043,10.33,0.086c2.872,0.108,5.746,0.357,8.599,0.715c2.96,0.372,5.883,1.039,8.843,1.417
	c5.309,0.677,10.475-0.147,15.451-2c3.46-1.289,5.301-4.28,6.257-7.55c0.762-2.609,0.774-5.463,0.927-8.219
	c0.262-4.73,0.24-9.478,0.581-14.2c0.415-5.73,0.927-11.462,1.685-17.155c0.765-5.75,1.852-11.459,2.852-17.177
	C176.601,79.665,176.993,74.789,176.606,69.872z"/>
<path fill-rule="evenodd" clip-rule="evenodd" fill="#7beeef" class="fill" d="M48.365,128.548c-1.063-4.518-1.464-8.814-1.688-13.169
	c-0.306-5.899,0.562-11.693,1.004-17.53c0.556-7.346,0.179-14.651-1.087-21.917c-0.404-2.324-0.592-4.687-0.854-6.843
	c2.016-2.797,4.724-3.484,7.634-3.289c3.873,0.258,7.643-0.46,11.46-0.78c6.062-0.508,12.088-1.763,18.198-1.339
	c3.478,0.241,6.93,0.885,10.379,1.434c0.805,0.128,1.555,0.605,2.49,0.986c0.541,1.996,1.084,3.996,1.688,6.219
	c1.795,0.749,3.889,0.475,5.814,0.623c1.286-0.41,0.854-1.716,1.54-2.477c0.341,0.475,0.661,0.922,1.084,1.511
	c1.886,0.042,3.595-0.752,5.302-1.442c0.441-1.711-1.433-3.011-0.446-4.84c0.862-0.132,1.846-0.336,2.839-0.424
	c2.865-0.254,5.764-0.277,8.596-0.725c6.408-1.014,12.828-0.708,19.253-0.468c2.079,0.078,4.165,0.202,6.228,0.468
	c3.066,0.396,6.119,0.913,9.169,1.426c1.983,0.335,3.256,1.605,3.737,3.483c0.587,2.287,1.096,4.612,1.387,6.951
	c0.514,4.106-0.459,8.08-1.415,12.036c-0.29,1.195-0.59,2.389-0.873,3.536c-1.001-0.134-1.917-0.256-2.755-0.368
	c0.178-4.299,0.354-8.555,0.53-12.811c-0.09,0.02-0.18,0.038-0.271,0.058c-0.451-1.122-0.95-2.228-1.34-3.371
	c-0.418-1.226-0.703-2.497-1.103-3.73c-0.186-0.571-0.505-1.098-0.724-1.562c-1.131-0.194-1.406,0.499-1.746,1.174
	c-0.808,1.609-1.652,3.2-2.495,4.792c-0.069,0.132-0.229,0.217-0.44,0.41c-1.076-1.826-0.807-4.104-2.146-5.919
	c-2.298,0.921-2.336,3.404-3.903,5.137c-0.371-1.917-0.7-3.615-1.104-5.702c-0.605,0.522-1.029,0.753-1.256,1.109
	c-0.787,1.235-1.5,2.517-2.256,3.773c-0.161,0.27-0.38,0.506-0.695,0.918c-0.523-2.025-0.994-3.843-1.536-5.94
	c-2.33,1.625-2.421,4.223-3.858,6.388c-0.484-2.193-0.898-4.073-1.298-5.888c-0.991-0.325-1.274,0.216-1.49,0.835
	c-0.353,1.011-0.662,2.039-1.047,3.038c-0.258,0.67-0.614,1.302-1.294,1.989c-0.674-1.833-1.347-3.666-2.111-5.75
	c-2.143,1.459-2.424,4.11-4.549,5.611c-0.344-2.109-0.66-4.056-0.969-5.955c-0.918-0.315-1.236,0.24-1.532,0.798
	c-0.632,1.197-1.242,2.406-1.877,3.603c-0.251,0.473-0.541,0.924-0.813,1.385c-0.118-0.023-0.236-0.046-0.354-0.069
	c-0.457-2.043-0.914-4.086-1.434-6.415c-0.564,0.313-0.994,0.434-1.235,0.716c-0.322,0.377-0.505,0.875-0.733,1.328
	c-1.056,2.107-1.82,4.347-3.236,6.293c-1.061,1.456-1.041,3.295-1.172,5.044c-0.235,3.149-0.5,6.296-0.772,9.441
	c-0.032,0.379-0.183,0.747-0.298,1.193c-0.898,0.154-1.754,0.301-2.619,0.45c-0.143,3.173-0.277,6.197-0.421,9.429
	c0.898,0.043,1.702,0.081,2.501,0.119c0.484,2.085-0.913,19.031-2.072,25.22c-2.366,2.238-2.366,2.238-2.734,3.549
	c0.08,0.267,0.164,0.593,0.277,0.91c0.094,0.262,0.222,0.512,0.375,0.856c-0.461,0.98-0.934,1.989-1.542,3.288
	c-1.256-1.861-2.17-3.605-2.869-5.474c-0.216-0.575-0.443-1.148-0.714-1.7c-0.555-1.131-1.457-1.675-2.741-1.548
	c-3.142,0.311-6.292,0.554-9.425,0.94c-1.842,0.226-3.646,0.74-5.483,1.008c-4.366,0.635-8.741,0.853-13.147,0.299
	c-2.067-0.26-4.171-0.22-6.248-0.422c-2.969-0.29-5.933-0.636-8.886-1.05C49.938,129.295,49.181,128.853,48.365,128.548z
	 M97.914,128.114c0.29-1.038,0.707-1.921,0.757-2.824c0.151-2.815,0.195-5.636,0.223-8.456c0.053-5.297,0.06-10.595,0.105-15.892
	c0.002-0.359,0.17-0.717,0.279-1.151c1.018,0.237,1.914,0.447,3.083,0.719c0-2.253,0-4.242,0-6.299
	c-0.868-0.348-1.745-0.7-2.79-1.119c0-0.784-0.025-1.565,0.004-2.345c0.182-4.787,0.383-9.574,0.557-14.361
	c0.022-0.646-0.077-1.297-0.129-2.081c-3.816-0.239-7.452-0.671-11.178,0.904c-0.197,1.038-0.51,2.116-0.587,3.211
	c-0.307,4.329-0.536,8.663-0.802,12.995c-0.023,0.391-0.089,0.78-0.131,1.138c-0.689,0.333-1.338,0.646-1.921,0.927
	c-0.549,2.007-0.696,3.869-0.147,5.802c0.604,0.086,1.138,0.162,1.767,0.251c-0.429,6.199,0.05,12.369-0.697,18.527
	c-0.491-0.777-0.933-1.476-1.386-2.192c-0.073-1.118-0.149-2.28-0.232-3.549c-1.045-0.133-1.925-0.275-2.811-0.352
	c-2.02-0.174-4.073-0.602-6.057-0.389c-1.906,0.205-3.739,1.085-5.598,1.666c-0.276,1.462-0.515,2.726-0.748,3.97
	c-0.508,0.253-0.952,0.476-1.501,0.749c-0.444,1.198-0.905,2.444-1.416,3.823c0.879,0.363,1.583,0.653,2.265,0.934
	c0.349,1.603-0.448,3.231,0.513,4.935c1.608,0.169,3.322,0.446,5.044,0.5c1.457,0.046,2.925-0.146,4.385-0.266
	c1.779-0.146,3.602-0.062,5.314-0.84c0.147-1.942,0.291-3.837,0.428-5.641c0.672-0.352,1.228-0.642,1.831-0.958
	c-0.071,2.568-0.52,5.087,0.091,7.664C90.272,128.114,93.992,128.114,97.914,128.114z M48.568,111.706
	c-1.37,2.17-1.588,3.77-0.849,6.136c0.749,0.147,1.548,0.305,2.319,0.458c0,2.541,0,4.944,0,7.433
	c0.567,0.242,1.124,0.479,1.745,0.745c3.4-2.866,6.747-5.688,9.908-8.353c1.853-0.161,3.366-0.292,4.927-0.429
	c0.362-0.377,0.747-0.778,1.211-1.26c0-1.435,0-2.948,0-4.492c-0.297-0.271-0.601-0.549-0.884-0.81
	c0.624-0.958,1.172-1.809,1.73-2.653c2.459-3.714,4.913-7.434,7.392-11.135c0.503-0.75,0.723-1.514,0.474-2.489
	c-3.139-4.788-7.798-8.267-11.756-12.395c1.066-1.753,0.166-3.437,0.15-5.109c-1.979-1.008-3.905,0.388-5.987-0.277
	c-1.021-0.984-2.187-2.126-3.374-3.248c-1.156-1.093-2.1-2.497-3.924-2.85c-0.698,1.002-0.556,2.105-0.677,3.135
	c-0.122,1.047-0.18,2.104-0.263,3.126c-0.846,0.198-1.479,0.347-2.129,0.499c-0.027,0.462-0.062,0.793-0.064,1.125
	c-0.007,1.122-0.003,2.244-0.003,3.305c0.484,0.334,0.798,0.564,1.126,0.772c0.326,0.208,0.666,0.395,1.086,0.641
	c0.463,9.25,1.24,18.518-0.443,27.734C49.603,111.47,49.115,111.582,48.568,111.706z M84.294,83.596
	c0.131-3.063,0.262-6.141,0.412-9.666c-0.524-0.886-1.305-2.204-2.203-3.722c-0.564,0.555-0.939,0.868-1.247,1.237
	c-1.545,1.845-2.296,3.97-2.251,6.387c0.033,1.797,0.006,3.595,0.006,5.142c-0.847,0.889-1.46,1.533-2.038,2.141
	c0.186,1.827-0.45,3.651,0.864,4.955c-0.141,2.37-0.334,4.56-0.386,6.753c-0.081,3.435-0.067,6.872-0.09,10.309
	c-0.003,0.507,0.027,1.015,0.025,1.522c-0.003,0.823,0.44,1.364,1.088,1.791c1.625,1.072,2.97,0.788,4.585-1.021
	c0.368-6.626,0.738-13.311,1.111-20.039c0.446-0.035,0.924-0.071,1.497-0.116c0.112-1.454,0.219-2.843,0.324-4.214
	C85.464,84.601,84.997,84.2,84.294,83.596z M75.564,68.911c-1.95-0.817-5.118-0.668-6.607,0.276
	c-0.147,1.253-0.298,2.536-0.46,3.916c-0.635,0.547-1.306,1.126-1.918,1.655c0,1.253,0,2.405,0,3.618
	c0.633,0.041,1.115,0.072,1.718,0.111c0.072,1.046,0.144,2.079,0.21,3.04c2.391,0.726,5.629,0.735,7.068-0.034
	c0.124-1.368,0.259-2.866,0.396-4.394c1.31-1.195,0.657-2.675,0.572-4.052c-0.367-0.417-0.693-0.79-0.979-1.115
	C75.564,70.893,75.564,69.947,75.564,68.911z"/>
<path fill-rule="evenodd" clip-rule="evenodd" fill="#7beeef" class="fill" d="M172.391,82.08c-0.052,0.396-0.101,0.776-0.15,1.15
	c-0.838,0.145-1.603,0.276-2.387,0.411c0.279,1.304,1.28,0.784,2.037,1.25c-0.04,0.474-0.087,1.044-0.141,1.692
	c-0.844,0-1.515,0-2.285,0c0.271,1.198,1.355,0.898,2.027,1.558c-0.038,0.328-0.094,0.795-0.151,1.281
	c-0.872,0.041-1.617,0.076-2.493,0.117c0.357,1.329,1.498,0.874,2.202,1.397c-0.043,0.329-0.089,0.684-0.126,0.977
	c-0.925,0.474-1.96-0.723-2.896,0.576c0.938,0.392,1.773,0.74,2.725,1.138c-0.104,0.467-0.208,0.929-0.289,1.291
	c-0.818,0.446-1.818-0.553-2.483,0.779c0.709,0.265,1.347,0.503,2.128,0.795c-0.02,0.362-0.042,0.769-0.069,1.256
	c-0.878,0.069-1.641,0.129-2.528,0.2c0.236,1.278,1.548,0.608,2.092,1.55c-0.039,0.274-0.115,0.801-0.181,1.263
	c-0.896,0.278-1.829-0.69-2.565,0.631c0.751,0.303,1.471,0.594,2.33,0.941c-0.092,0.563-0.189,1.15-0.28,1.71
	c-0.953,0.351-2.016-0.515-2.931,0.722c0.904,0.271,1.66,0.497,2.52,0.755c0,0.307,0,0.669,0,1.023
	c-0.773,0.093-1.456,0.174-2.141,0.255c-0.025,0.139-0.051,0.278-0.076,0.417c0.662,0.302,1.324,0.604,2.076,0.946
	c-0.02,0.335-0.04,0.705-0.061,1.056c-0.838,0.488-2.065-0.047-2.611,1.373c0.811,0.058,1.496,0.106,2.338,0.166
	c0,0.491,0,0.988,0,1.535c-0.889,0.074-1.649,0.137-2.585,0.214c0.502,1.322,1.718,0.606,2.446,1.259
	c-0.016,0.324-0.037,0.745-0.061,1.209c-0.837,0.096-1.584,0.181-2.488,0.284c0.509,1.258,1.608,0.622,2.346,1.141
	c0,0.388,0,0.853,0,1.301c-0.922,0.189-1.74,0.357-2.665,0.548c0.622,1.247,1.701,0.583,2.445,1.095c0,0.431,0,0.903,0,1.382
	c-0.956,0.177-1.814,0.336-2.776,0.514c0.55,1.612,1.992,0.169,2.757,1.249c-0.023,0.377-0.061,0.968-0.103,1.646
	c-1.083,0.092-2.045,0.173-3.21,0.272c0.812,1.371,2.059,0.589,2.972,1.193c0,0.682,0,1.441,0,2.268
	c-0.857,0.276-1.669,0.539-2.479,0.801c0.011,0.16,0.021,0.32,0.03,0.48c0.711,0.115,1.423,0.23,2.312,0.374
	c-0.046,0.654-0.092,1.301-0.143,2.024c-0.935,0.114-1.786,0.219-2.853,0.35c0.65,1.217,1.833,0.554,2.647,1.335
	c-0.037,0.471-0.088,1.114-0.152,1.933c-1.063-0.064-2.046-0.124-3.26-0.198c0.739,0.905,0.739,0.905,2.842,1.736
	c-0.164,0.484-0.33,0.976-0.509,1.502c-1.194-0.127-2.15-1.241-3.566-0.217c1.096,0.598,2.031,1.106,3.1,1.688
	c-0.168,0.6-0.324,1.162-0.484,1.729c-1.281-0.149-2.132-1.631-3.735-0.637c1.04,0.688,1.896,1.254,2.941,1.945
	c-0.644,0.413-1.093,0.702-1.483,0.954c-1.097-0.587-1.78-2.098-3.379-0.949c0.611,0.527,1.146,0.987,1.815,1.563
	c-0.387,0.255-0.677,0.446-1.038,0.685c-0.496-0.445-0.949-0.851-1.523-1.365c-0.311,0.087-0.7,0.198-1.194,0.338
	c0.254,0.474,0.427,0.795,0.711,1.326c-0.728,0.041-1.303,0.073-1.945,0.108c-0.157-0.854-0.292-1.584-0.435-2.352
	c-1.516,0.176-0.923,1.322-1.201,2.055c-1.691-0.042-0.953-1.492-1.47-2.341c-0.246-0.019-0.594-0.045-1.047-0.081
	c0,0.778,0,1.436,0,2.23c-0.762,0-1.46,0-2.145,0c-0.452-0.823-0.878-1.642-1.367-2.422c-0.05-0.08-0.48,0.081-0.821,0.146
	c0.104,0.722,0.193,1.357,0.303,2.12c-0.611-0.026-1.096-0.048-1.567-0.069c-0.295-0.705-0.554-1.324-0.854-2.041
	c-0.365,0.032-0.715,0.064-1.155,0.103c0.078,0.665,0.141,1.207,0.217,1.857c-0.465,0.048-0.885,0.09-1.342,0.137
	c-0.303-0.746-0.573-1.412-0.88-2.169c-0.406,0.061-0.764,0.114-1.21,0.18c0.132,0.641,0.242,1.177,0.379,1.846
	c-0.588,0-1.112,0-1.623,0c-0.686-0.629-0.361-2.325-2.156-1.895c0.069,0.526,0.131,0.997,0.205,1.564
	c-0.37,0.048-0.738,0.097-1.111,0.146c-0.463-0.615-0.887-1.179-1.313-1.746c-0.346,0.14-0.55,0.223-0.831,0.336
	c0.035,0.382,0.07,0.756,0.113,1.234c-0.542,0-1.076,0-1.694,0c-0.249-0.497-0.52-1.037-0.816-1.629
	c-0.349,0.034-0.661,0.065-1.065,0.105c0.051,0.528,0.094,0.96,0.147,1.511c-0.467,0-0.935,0-1.442,0
	c-0.215-0.625-0.414-1.202-0.648-1.888c-0.388,0.083-0.728,0.156-1.135,0.243c0.055,0.544,0.099,0.978,0.154,1.521
	c-0.36,0.054-0.718,0.107-1.125,0.168c-0.323-0.658-0.612-1.246-0.939-1.908c-0.36,0.119-0.661,0.219-1.034,0.342
	c0.052,0.482,0.097,0.904,0.157,1.468c-0.572-0.025-1.052-0.047-1.531-0.069c-0.258-0.551-0.47-1.002-0.692-1.479
	c-1.245-0.414-1.021,0.606-1.214,1.303c-0.529,0-1.071,0-1.523,0c-0.631-0.583-1.18-1.091-1.832-1.695
	c-0.352,0.545-0.576,0.893-0.829,1.285c-0.477-0.028-0.974-0.058-1.513-0.089c-0.3-0.568-0.579-1.101-0.899-1.708
	c-0.36,0.103-0.665,0.189-0.996,0.284c0,0.458,0,0.837,0,1.421c-0.706-0.063-1.344-0.121-1.982-0.178
	c-0.297-0.583-0.545-1.073-0.767-1.508c-1.152-0.398-0.982,0.665-1.393,1.174c-0.471-0.044-0.963-0.089-1.453-0.135
	c-0.249-0.513-0.466-0.96-0.714-1.472c-0.353,0.047-0.665,0.089-0.994,0.133c-0.094,0.433-0.171,0.791-0.249,1.15
	c-1.146,0-2.211,0-3.324,0c-0.283-0.423-0.549-0.822-0.919-1.376c-0.478,0.419-0.878,0.771-1.376,1.208
	c-0.43-0.034-0.987-0.079-1.604-0.127c-0.236-0.399-0.482-0.814-0.854-1.442c-0.466,0.457-0.835,0.82-1.289,1.266
	c-0.415,0-0.977,0-1.605,0c-0.314-0.346-0.642-0.706-1.129-1.241c-0.394,0.476-0.718,0.868-1.072,1.297c-0.458,0-0.957,0-1.457,0
	c-0.3-0.438-0.575-0.839-1.019-1.485c-0.444,0.541-0.786,0.956-1.232,1.5c-0.238,0-0.68,0-1.204,0
	c-0.22-0.347-0.453-0.715-0.676-1.066c-0.892-0.139-1.078,0.474-1.255,1.172c-0.512,0.023-1.001,0.045-1.513,0.068
	c-0.271-0.511-0.501-0.943-0.71-1.338c-1.143-0.234-0.985,0.689-1.209,1.59c-0.352-0.717-0.547-1.116-0.885-1.804
	c-0.481,0.624-0.824,1.068-1.189,1.544c-0.464,0.03-0.967,0.063-1.509,0.098c-0.239-0.3-0.47-0.59-0.687-0.863
	c-0.865,0.315-1.662,0.606-2.384,0.87c-0.544-0.511-0.899-0.844-1.328-1.247c-0.433,0.348-0.814,0.653-1.45,1.164
	c-0.607-0.203-1.401-0.469-2.381-0.798c-0.218,0.199-0.579,0.527-1.067,0.972c-0.463,0.041-1.072,0.095-1.763,0.157
	c-0.214-0.315-0.417-0.616-0.738-1.089c1.774-0.26,3.375-0.486,4.973-0.729c5.651-0.857,11.346-0.963,17.045-1.001
	c2.371-0.016,4.745-0.089,7.114-0.025c1.043,0.029,2.076,0.357,3.118,0.509c0.438,0.063,0.895,0.078,1.332,0.023
	c4.536-0.566,9.081-0.846,13.658-0.897c4.592-0.051,9.118,0.461,13.673,0.855c5.444,0.471,10.898,1.185,16.384,0.764
	c3.201-0.246,6.421-0.498,9.573-1.071c1.79-0.327,3.545-1.156,5.163-2.039c1.482-0.809,2.259-2.341,2.688-3.969
	c0.781-2.962,1.226-5.976,1.053-9.046c-0.341-6.065,0.387-12.059,1.094-18.06c0.357-3.024,0.554-6.068,0.936-9.088
	c0.29-2.289,0.71-4.564,1.156-6.829c1.136-5.754,2.482-11.487,2.533-17.384c0.028-3.276-0.281-6.555-2.494-9.279
	c-0.117-0.144-0.096-0.4-0.144-0.62c2.738-0.061,5.283,1.845,6.075,4.53c-0.481,0.315-0.977,0.639-1.456,0.952
	c0.396,1.215,1.272,0.423,1.997,0.601c0.048,0.334,0.098,0.687,0.149,1.058c-0.819,0.179-1.54,0.337-2.263,0.495
	c0.004,0.154,0.006,0.307,0.009,0.46c0.777,0.151,1.555,0.303,2.465,0.48c0,0.681,0,1.374,0,2.053
	c-0.932,0.409-2.052-0.245-2.728,0.728c0.579,0.536,0.579,0.536,2.377,0.791c0.053,0.093,0.152,0.188,0.149,0.279
	c-0.011,0.386-0.052,0.771-0.081,1.145c-0.984,0.076-1.898,0.146-3.01,0.232c0.559,1.445,1.859,0.68,2.695,1.454
	c-0.051,0.369-0.12,0.884-0.195,1.438c-0.932,0.085-1.739,0.16-2.743,0.253C170.403,81.996,171.582,81.468,172.391,82.08z"/>
<path fill-rule="evenodd" clip-rule="evenodd" fill="#7beeef" class="fill" d="M111.597,91.288c0.548,0.598,1.029,1.065,1.439,1.589
	c0.4,0.511,0.776,0.988,1.524,0.803c2.982-2.883,4.542-2.895,6.036,0.023c0.332,0.05,0.711,0.106,1.151,0.173
	c0.581-1.141,0.667-2.63,2.075-2.932c1.594-0.011,1.664,2.066,3.105,2.101c0.591-0.726,1.109-1.361,1.798-2.206
	c0.813,0.808,1.507,1.497,2.229,2.214c-0.245,2.126-0.48,4.182-0.717,6.244c-1.283-0.056-2.384-0.104-3.564-0.156
	c0-1.217,0-2.525,0-4.049c-1.132,0.582-0.998,1.553-1.194,2.35c-0.201,0.816-0.388,1.636-0.591,2.494
	c-1.393-0.228-2.732-0.446-4.213-0.688c0-0.854,0-1.845,0-2.828c-0.966-0.028-0.966-0.028-1.794,3.167
	c-1.552,0.137-3.063,0.271-4.75,0.421c0.153-1.104,0.316-2.281,0.499-3.6c-0.502,0.048-0.812,0.078-1.25,0.12
	c-0.272,1.22-0.54,2.416-0.809,3.617c-1.474,0-2.953,0-4.527,0c0-0.727,0-1.595,0-2.554c-0.364,0-0.672,0-1.06,0
	c-0.22,1.41-0.434,2.779-0.656,4.203c-0.451,0.064-0.76,0.109-1.14,0.163c0-2.302,0-4.518,0-6.775
	c0.751-0.139,1.349-0.25,1.752-0.325c1.148-1.162,2.133-2.227,3.203-3.196C110.433,91.399,110.984,91.433,111.597,91.288z"/>
<path fill-rule="evenodd" clip-rule="evenodd" fill="#7beeef" class="fill" d="M132.287,91.633c0.593-0.328,1.284-0.709,1.996-1.103
	c0.848,0.854,1.528,1.538,2.305,2.32c0.573-0.662,1.003-1.157,1.569-1.81c0.626-0.05,1.382-0.109,1.847-0.146
	c1.098,0.593,1.09,2.072,2.438,1.772c0.556-0.668,1.119-1.345,1.573-1.892c1.619-0.399,2.613,0.066,3.297,1.354
	c0.207,0.389,0.666,0.643,1.127,1.065c0.46-0.535,0.784-0.902,1.099-1.278c1.687-2.018,3.603-1.914,5.104,0.278
	c0.096,0.14,0.211,0.265,0.428,0.535c0.74,0.14,1.607,0.303,2.55,0.48c0.278,1.762-0.013,3.445-0.591,5.18
	c-0.336,0.046-0.723,0.229-0.966,0.113c-2.07-0.994-4.195-1.454-6.466-0.657c-0.221-0.815-0.391-1.441-0.589-2.175
	c-1.487,0.666-0.477,2.187-1.386,3.042c-1.511-0.752-3.158-1.173-5.08-0.169c0-1.132,0-2.024,0-3.099
	c-1.665,0.443-0.782,2.014-1.689,2.743c-1.481-0.794-3.1-0.993-4.988-0.024c0.124-1.447,0.226-2.63,0.336-3.926
	c-1.441,0.061-1.184,1.089-1.346,1.806c-0.172,0.761-0.305,1.531-0.47,2.374c-0.848,0-1.617,0-2.62,0
	C131.665,96.264,132.477,94.105,132.287,91.633z"/>
<path fill-rule="evenodd" clip-rule="evenodd" fill="#7beeef" class="fill" d="M135.65,55.206c2.477-0.304,5.056-0.065,7.633,0.269
	c1.678,0.217,3.356,0.448,5.04,0.608c6.139,0.587,11.172,3.34,15.297,7.829c1.9,2.067,2.795,4.498,2.914,7.374
	c0.237,5.818-0.645,11.477-1.934,17.1c-0.857,3.738-1.852,7.445-2.66,11.191c-0.417,1.926-0.655,3.901-0.816,5.867
	c-0.387,4.725-0.604,9.465-1.044,14.184c-0.229,2.459-0.615,4.935-1.258,7.314c-0.461,1.709-1.349,3.343-2.275,4.872
	c-0.458,0.756-1.372,1.315-2.19,1.761c-2.861,1.559-6.021,1.792-9.197,1.859c-1.237,0.026-2.477,0.004-3.748-0.231
	c0.82-0.127,1.64-0.264,2.462-0.38c1.842-0.261,3.69-0.484,5.527-0.774c3.49-0.55,6.149-2.369,8.018-5.359
	c1.021-1.633,1.375-3.466,1.437-5.335c0.116-3.554,0.01-7.117,0.217-10.664c0.189-3.259,0.478-6.537,1.069-9.743
	c0.992-5.371,2.299-10.684,3.391-16.038c0.37-1.816,0.539-3.68,0.713-5.53c0.222-2.353,0.317-4.718,0.536-7.071
	c0.215-2.298-0.489-4.391-1.529-6.332c-1.462-2.732-3.104-5.341-5.549-7.398c-1.898-1.598-3.987-2.492-6.409-2.744
	c-1.96-0.204-3.94-0.309-5.876-0.652C142.111,56.596,138.833,55.858,135.65,55.206z"/>
<path fill-rule="evenodd" clip-rule="evenodd" fill="#7beeef" class="fill" d="M39.388,110.07c-0.966,0-1.639,0.001-2.312-0.002
	c-0.055,0-0.109-0.029-0.396-0.11c-0.088-0.71-0.188-1.516-0.305-2.469c0.946-0.166,1.788-0.314,2.714-0.477
	c-0.543-1.431-1.723-0.632-2.648-1.009c-0.045-0.945-0.094-1.931-0.15-3.099c0.965,0,1.761,0,2.67,0
	c-0.295-1.584-1.697-1.029-2.529-1.672c0-0.674,0-1.423,0-2.223c0.823-0.203,1.562-0.386,2.389-0.589
	c-0.47-1.108-1.486-0.541-2.203-1.05c0-0.427,0-0.96,0-1.679c0.802-0.141,1.592-0.281,2.51-0.443
	C38.714,94,37.597,94.69,36.85,94.142c0-0.548,0-1.219,0-1.995c0.984,0.077,1.785,0.139,2.677,0.208
	c-0.044-1.026-0.699-1.095-1.266-1.278c-0.836-0.271-1.538-0.662-1.468-1.876c0.849,0,1.644,0,2.438,0
	c0.009-0.65,0.009-0.65-2.229-1.711c0-0.534,0-1.126,0-1.839c1.033-0.156,2.066-0.312,3.218-0.485
	c-0.505-1.338-1.708-0.618-2.721-1.192c-0.095-0.359-0.252-0.952-0.446-1.686c1.119-0.264,2.017-0.475,3.033-0.715
	c-0.576-1.363-1.812-0.43-2.618-1.022c0-0.4,0-0.872,0-1.405c0.835-0.294,1.615-0.568,2.515-0.885
	c-0.495-0.918-1.548-0.679-2.238-1.292c0.268-2.094,0.648-4.198,2.541-5.978c0.222,0.926,0.402,1.619,0.553,2.318
	c1.272,5.889,1.722,11.804,0.893,17.813c-0.523,3.791-0.744,7.624-1.193,11.427C40.24,105.059,39.778,107.548,39.388,110.07z"/>
<path fill-rule="evenodd" clip-rule="evenodd" fill="#7beeef" class="fill" d="M152.34,101.356c0.525,0.232,1.05,0.464,1.906,0.843
	c-0.915,0.294-1.492,0.48-2.48,0.799c0.88,0.342,1.366,0.531,2.011,0.782c0.043,0.393,0.095,0.863,0.157,1.427
	c-0.799,0.125-1.479,0.232-2.157,0.339c-0.016,0.131-0.03,0.264-0.046,0.396c0.644,0.189,1.286,0.378,2.04,0.601
	c0.021,0.387,0.046,0.807,0.072,1.241c-0.699,0.163-1.309,0.304-2.312,0.538c0.684,0.331,0.96,0.49,1.254,0.598
	c0.261,0.096,0.543,0.136,0.94,0.23c0.056,0.393,0.114,0.805,0.18,1.262c-0.765,0.123-1.422,0.229-2.08,0.334
	c-0.01,0.121-0.019,0.241-0.027,0.362c0.587,0.252,1.176,0.505,1.821,0.782c0,0.652,0,1.313,0,1.999
	c-0.685,0.199-1.323,0.384-1.96,0.57c0.008,0.111,0.015,0.223,0.022,0.335c0.563,0.167,1.128,0.334,1.781,0.527
	c-0.073,0.412-0.137,0.771-0.194,1.097c-0.652,0.154-1.22,0.289-1.788,0.422c-0.008,0.107-0.015,0.213-0.022,0.32
	c0.527,0.244,1.057,0.487,1.705,0.787c-0.08,0.507-0.165,1.047-0.263,1.662c-0.532,0.164-1.042,0.321-1.862,0.574
	c0.626,0.422,1.045,0.705,1.543,1.042c0,0.374,0,0.804,0,1.226c-0.646,0.245-1.23,0.467-2.125,0.806
	c0.825,0.36,1.312,0.572,1.857,0.81c-0.075,0.501-0.14,0.93-0.201,1.333c-0.582,0.183-1.089,0.343-1.898,0.598
	c0.733,0.468,1.219,0.778,1.753,1.119c0,0.349,0,0.723,0,1.076c-0.623,0.18-1.163,0.335-1.702,0.49c0,0.109,0.002,0.218,0.003,0.326
	c0.521,0.27,1.042,0.54,1.757,0.91c-0.888,1.439-2.326,1.145-3.726,1.567c-0.038-0.637-0.107-1.112-0.087-1.583
	c0.304-6.92,0.588-13.843,0.943-20.761c0.156-3.036,0.457-6.064,0.705-9.095c0.022-0.27,0.139-0.532,0.198-0.754
	c1.673-0.702,2.135-0.685,3.808,0.16c0,0.321,0,0.689,0,1.039c-0.562,0.191-1.064,0.361-1.565,0.531
	C152.313,101.13,152.327,101.243,152.34,101.356z"/>
<path fill-rule="evenodd" clip-rule="evenodd" fill="#7beeef" class="fill" d="M43.053,69.234c1.781,3.811,2.237,7.84,2.577,11.871
	c0.264,3.145,0.458,6.312,0.395,9.463c-0.069,3.375-0.42,6.749-0.755,10.113c-0.257,2.58-0.67,5.145-1.031,7.714
	c-0.147,1.061-0.421,2.108-0.499,3.172c-0.182,2.521-0.383,5.047-0.379,7.571c0.003,2.021,0.307,4.042,0.457,6.063
	c0.21,2.816,1.65,4.706,4.241,5.785c3.12,1.3,6.444,1.581,9.743,1.989c2.216,0.275,4.438,0.501,6.635,1.05
	c-2.001,0-4.006,0.069-6.003-0.014c-4.055-0.169-7.813-1.54-11.591-2.891c-2.682-0.958-3.889-2.99-4.448-5.504
	c-0.39-1.751-0.608-3.569-0.655-5.363c-0.127-4.799,0.188-9.57,0.901-14.333c0.952-6.357,1.791-12.76,1.692-19.189
	c-0.078-5.116-0.754-10.224-1.171-15.334c-0.037-0.448-0.138-0.892-0.17-1.34C42.973,69.785,43.03,69.508,43.053,69.234z"/>
<path fill-rule="evenodd" clip-rule="evenodd" fill="#7beeef" class="fill" d="M146.45,116.839c-0.646,0.375-1.451-0.061-1.768,0.859
	c0.272,0.124,0.493,0.25,0.73,0.326c0.256,0.082,0.526,0.116,0.921,0.197c-0.049,0.656-0.092,1.25-0.136,1.857
	c-0.562,0.129-1.02,0.236-1.781,0.412c0.685,0.465,1.119,0.76,1.625,1.104c0,0.606,0,1.262,0,1.897
	c-0.766,0.205-1.453,0.389-2.141,0.573c0.011,0.11,0.022,0.22,0.033,0.331c0.559,0.186,1.118,0.372,1.76,0.585
	c0,0.504,0,0.985,0,1.51c-0.594,0.157-1.158,0.306-1.721,0.455c-0.014,0.099-0.025,0.198-0.039,0.297
	c0.52,0.23,1.038,0.46,1.704,0.755c-0.062,0.44-0.13,0.908-0.181,1.271c-0.662,0.507-1.622-0.263-2.004,0.727
	c0.502,0.749,2.131,0.126,1.954,1.71c-1.144,0.624-2.37,0.268-3.761,0.442c-0.157-3.783,0.738-7.311,0.826-10.89
	c0.088-3.549,0.406-7.091,0.537-10.64c0.133-3.593,0.16-7.19,0.229-10.654c2.023-1.034,3.054-0.697,3.628,1.062
	c-0.427,0.187-0.861,0.377-1.287,0.563c0.11,0.828,1.586,0.483,1.15,1.729c-0.484,0.108-1.053,0.236-1.992,0.447
	c0.857,0.515,1.442,0.866,2.064,1.24c0,0.733,0,1.449,0,2.231c-0.642,0.073-1.219,0.138-1.927,0.219
	c0.304,0.95,1.175,0.696,1.768,1.109c0,0.479,0,1.014,0,1.557c-0.447,0.399-1.312-0.406-1.58,0.677
	c0.438,0.236,0.913,0.491,1.509,0.811c0,0.527,0,1.117,0,1.738c-0.607,0.142-1.164,0.271-1.722,0.401
	c-0.005,0.093-0.011,0.187-0.018,0.28c0.536,0.244,1.072,0.488,1.616,0.735C146.45,115.463,146.45,116.128,146.45,116.839z"/>
<path fill-rule="evenodd" clip-rule="evenodd" fill="#7beeef" class="fill" d="M40.787,130.904c-1.529-0.551-2.193,0.86-3.419,0.968
	c0-0.778,0-1.519,0-2.434c0.896-0.457,1.878-0.958,2.844-1.451c3.046,3.027,4.348,6.809,5.711,10.698
	c6.705,1.133,13.343,2.733,20.295,2.814c0,0.35,0,0.654,0,1.053c-0.217,0.086-0.464,0.208-0.724,0.28
	c-0.214,0.059-0.442,0.059-0.726,0.093c-0.361-0.307-0.733-0.625-1.487-1.266c-0.309,0.491-0.6,0.953-1.007,1.598
	c-0.477-0.449-0.932-0.877-1.564-1.473c-0.394,0.421-0.811,0.866-1.287,1.375c-0.119,0-0.339,0-0.621,0
	c-0.189-0.613-0.381-1.228-0.604-1.952c-0.421,0.202-0.709,0.34-1.03,0.494c0,0.482,0,0.921,0,1.464c-0.389,0-0.801,0-1.246,0
	c-0.224-0.551-0.428-1.053-0.618-1.52c-1.108-0.18-1.043,0.693-1.215,1.283c-0.693,0-1.287,0-1.923,0
	c-0.164-0.564-0.301-1.04-0.448-1.555c-1.297-0.262-1.04,0.797-1.238,1.552c-0.603,0-1.196,0-1.916,0c0-0.665,0-1.301,0-1.998
	c-1.558-0.238-1.275,1.099-1.788,1.988c-0.611-0.146-1.277-0.304-2.139-0.508c0.24-0.829,0.431-1.484,0.649-2.236
	c-1.422-0.222-1.478,1.057-2.031,1.648c-1.26-0.382-1.429-0.65-1.08-1.739c0.175-0.543,0.4-1.07,0.648-1.726
	c-1.658-0.05-1.509,1.441-2.333,2.046c-0.298-0.255-0.58-0.496-1.023-0.875c0.583-0.974,1.14-1.905,1.731-2.896
	c-1.312-0.537-1.565,0.953-2.554,1.139c-0.192-0.415-0.396-0.853-0.562-1.211c1.039-0.95,1.997-1.824,3.102-2.833
	c-1.674-0.492-2.302,0.887-3.428,1.484c-0.127-0.559-0.232-1.022-0.342-1.504C38.528,132.779,39.583,131.903,40.787,130.904z"/>
<path fill-rule="evenodd" clip-rule="evenodd" fill="#7beeef" class="fill" d="M138.838,130.767c-0.093,0.471-0.154,0.785-0.244,1.233
	c-0.946-0.1-1.827-0.191-2.864-0.3c0.317-10.962,1.116-21.826,1.81-32.655c1.372-0.381,2.073,0.122,2.647,1.052
	c-0.471,0.231-0.889,0.438-1.568,0.771c0.756,0.312,1.243,0.513,1.753,0.723c0,0.256,0,0.473,0,0.772
	c-0.478,0.173-0.97,0.353-1.821,0.662c0.784,0.339,1.245,0.538,1.777,0.768c0,0.406,0,0.839,0,1.278
	c-0.48,0.231-0.92,0.443-1.616,0.778c0.644,0.277,1.06,0.457,1.539,0.664c0,0.465,0,0.957,0,1.508
	c-0.45,0.253-0.873,0.49-1.458,0.819c0.5,0.308,0.852,0.524,1.265,0.779c0,0.344,0,0.727,0,1.18c-0.401,0.174-0.794,0.344-1.385,0.6
	c0.491,0.374,0.856,0.652,1.252,0.952c0,0.487,0,0.981,0,1.494c-0.491,0.189-0.932,0.358-1.588,0.61
	c0.64,0.361,1.06,0.599,1.593,0.899c-0.045,0.624-0.09,1.276-0.136,1.929c-0.604,0.085-1.067,0.151-1.533,0.216
	c-0.031,0.096-0.062,0.192-0.095,0.289c0.497,0.274,0.994,0.548,1.563,0.863c0,0.449,0,0.942,0,1.474
	c-0.67,0.173-1.316,0.341-1.962,0.509c0.003,0.112,0.006,0.225,0.01,0.337c0.568,0.185,1.137,0.37,1.763,0.574
	c0,0.749,0,1.459,0,2.24c-0.673,0.181-1.288,0.346-2.312,0.621c0.897,0.394,1.425,0.625,2.095,0.919
	c-0.044,0.5-0.091,1.028-0.135,1.532c-0.778,0.104-1.407,0.188-2.036,0.272c-0.018,0.128-0.036,0.255-0.054,0.383
	c0.597,0.187,1.192,0.374,1.896,0.594c0,0.425,0,0.889,0,1.339c-0.806,0.22-1.715-0.309-2.254,0.719
	C137.412,130.358,138.038,130.537,138.838,130.767z"/>
<path fill-rule="evenodd" clip-rule="evenodd" fill="#7beeef" class="fill" d="M109.66,114.586c0.618,0.368,1.237,0.735,1.933,1.148
	c-0.042,0.445-0.082,0.867-0.125,1.33c-0.771,0-1.441,0-2.11,0c-0.021,0.105-0.043,0.211-0.064,0.316
	c0.605,0.38,1.21,0.76,1.938,1.218c-0.021,0.409-0.048,0.887-0.071,1.322c-0.803,0.047-1.479,0.086-2.154,0.125
	c-0.021,0.134-0.043,0.267-0.064,0.401c0.618,0.306,1.236,0.611,1.969,0.973c-0.065,0.536-0.131,1.07-0.191,1.569
	c-0.854,0.095-1.58,0.175-2.306,0.256c-0.019,0.137-0.038,0.273-0.056,0.41c0.732,0.292,1.465,0.584,2.315,0.924
	c-0.038,0.501-0.073,0.97-0.11,1.467c-1.016,0.032-1.997-0.404-2.966,0.534c1.08,0.296,1.966,0.54,2.887,0.792
	c-0.017,0.376-0.028,0.644-0.048,1.089c-1.159-0.062-2.255-0.12-3.427-0.183c-0.061-0.378-0.154-0.645-0.137-0.904
	c0.313-4.718,0.687-9.433,0.948-14.154c0.175-3.149,0.179-6.308,0.287-9.461c0.078-2.269,1.339-3.008,3.615-2.015
	c-0.494,0.23-0.898,0.419-1.49,0.695c0.75,0.565,1.365,1.029,2.205,1.661c-0.89,0.232-1.441,0.377-2.229,0.583
	c0.989,0.75,2.265,1.037,1.869,2.572c-0.65,0.18-1.363,0.377-2.076,0.575c-0.01,0.101-0.021,0.202-0.032,0.303
	c0.641,0.249,1.281,0.499,2.096,0.816c-0.027,0.556-0.056,1.144-0.092,1.872c-0.844,0-1.584,0-2.322,0
	c-0.036,0.113-0.07,0.226-0.105,0.339c0.75,0.376,1.502,0.752,2.269,1.137c0,0.625,0,1.157,0,1.708
	c-0.786,0.069-1.469,0.128-2.151,0.188C109.661,114.325,109.661,114.456,109.66,114.586z"/>
<path fill-rule="evenodd" clip-rule="evenodd" fill="#7beeef" class="fill" d="M114.97,101.685c0.951-0.721,1.879-1.134,3.13-0.388
	c-0.023,0.489-0.05,1.025-0.078,1.624c-0.592,0.233-1.134,0.447-1.675,0.661c-0.013,0.114-0.025,0.227-0.037,0.339
	c0.515,0.194,1.029,0.388,1.607,0.605c0,0.52,0,1.063,0,1.633c-0.687,0.238-1.304,0.453-1.969,0.684
	c0.196,0.96,1.025,0.585,1.649,0.947c0.039,0.367,0.092,0.842,0.144,1.332c-0.664,0.327-1.233,0.608-2.109,1.039
	c0.805,0.328,1.293,0.526,1.896,0.771c0,0.548,0,1.144,0,1.794c-0.572,0.189-1.142,0.378-1.724,0.571
	c0.125,0.999,1.022,0.533,1.524,0.974c0,0.581,0,1.241,0,1.982c-0.566,0.201-1.141,0.406-2.111,0.752
	c0.905,0.376,1.396,0.581,2.013,0.837c-0.047,0.732-0.095,1.483-0.142,2.205c-0.797,0.158-1.428,0.283-2.059,0.407
	c-0.02,0.135-0.04,0.271-0.059,0.406c0.581,0.186,1.162,0.371,1.923,0.614c0.046,0.516,0.098,1.101,0.155,1.749
	c-0.752,0.077-1.379,0.141-2.005,0.205c-0.034,0.125-0.069,0.25-0.103,0.375c0.536,0.302,1.074,0.604,1.725,0.971
	c0.034,0.353,0.074,0.775,0.114,1.184c-0.812,0.193-1.519,0.361-2.391,0.569c0.694,1.03,2.467,0.646,2.091,2.445
	c-0.877-0.114-1.741-0.227-2.83-0.369c-0.027-0.847-0.115-1.667-0.071-2.48c0.312-5.739,0.651-11.476,0.98-17.214
	C114.699,106.496,114.833,104.082,114.97,101.685z"/>
<path fill-rule="evenodd" clip-rule="evenodd" fill="#7beeef" class="fill" d="M132.103,100.093c0.857-0.417,1.526-0.451,2.14,0.31
	c0,0.895,0,1.841,0,2.835c-0.432,0.271-0.831,0.523-1.36,0.856c0.507,0.283,0.881,0.492,1.305,0.729
	c-0.015,0.275-0.028,0.547-0.043,0.836c-0.548,0.28-1.063,0.543-1.945,0.994c0.844,0.195,1.292,0.3,1.855,0.43
	c0,0.677,0,1.381,0,2.065c-0.517,0.252-0.954,0.465-1.609,0.784c0.625,0.272,1.045,0.456,1.496,0.652c0,0.28,0,0.555,0,0.905
	c-0.368,0.335-0.766,0.697-1.265,1.153c0.44,0.233,0.771,0.408,1.213,0.642c-0.055,0.615-0.113,1.278-0.174,1.96
	c-0.331,0.229-0.646,0.448-1.069,0.741c0.345,0.274,0.622,0.497,0.9,0.719c0.271,0.898-0.097,1.522-1.012,1.917
	c0.421,0.347,0.713,0.588,0.976,0.805c0,0.622,0,1.179,0,1.792c-0.44,0.244-0.854,0.474-1.393,0.771
	c0.429,0.316,0.729,0.538,1.075,0.794c0,0.632,0,1.298,0,2.021c-0.531,0.167-1.036,0.326-1.85,0.582
	c0.688,0.386,1.124,0.631,1.585,0.89c0,0.495,0,0.992,0,1.494c-0.525,0.244-1.003,0.465-1.729,0.801
	c0.479,0.198,0.707,0.313,0.948,0.386c0.213,0.064,0.438,0.081,0.703,0.126c0,0.732,0,1.437,0,2.332
	c-0.83-0.103-1.52-0.189-2.311-0.287c0-1.476-0.046-2.823,0.009-4.166c0.193-4.722,0.407-9.443,0.644-14.163
	c0.18-3.601,0.393-7.2,0.616-10.798C131.85,101.338,132.009,100.683,132.103,100.093z"/>
<path fill-rule="evenodd" clip-rule="evenodd" fill="#7beeef" class="fill" d="M121.519,100.8c0.924-0.263,1.774-0.147,2.441,0.954
	c-0.547,0.282-1.04,0.537-1.74,0.898c0.542,0.323,0.896,0.533,1.367,0.814c0.019,0.322,0.042,0.75,0.064,1.146
	c-0.573,0.247-1.054,0.454-1.838,0.792c0.73,0.346,1.16,0.549,1.681,0.795c0,0.369,0,0.803,0,1.241
	c-0.437,0.212-0.858,0.417-1.46,0.71c0.556,0.38,0.95,0.65,1.385,0.948c0,0.412,0,0.851,0,1.33
	c-0.432,0.177-0.828,0.338-1.475,0.602c0.604,0.398,1.027,0.676,1.499,0.987c0,0.409,0,0.851,0,1.295
	c-0.502,0.207-0.978,0.404-1.699,0.702c0.696,0.415,1.152,0.686,1.644,0.978c0,0.384,0,0.77,0,1.194
	c-0.373,0.235-0.734,0.462-1.146,0.721c0.449,0.519,0.84,0.97,1.369,1.582c-0.562,0.224-0.859,0.321-1.135,0.46
	c-0.236,0.12-0.447,0.287-0.835,0.542c0.535,0.317,0.938,0.555,1.443,0.854c-0.036,0.49-0.076,1.034-0.113,1.542
	c-0.681,0.147-1.25,0.271-1.819,0.395c-0.016,0.129-0.031,0.258-0.047,0.388c0.532,0.219,1.063,0.438,1.754,0.722
	c-0.028,0.375-0.063,0.845-0.093,1.242c-0.666,0.351-1.533-0.044-1.87,1.032c0.567,0.131,1.08,0.25,1.707,0.395
	c0.023,0.305,0.053,0.663,0.088,1.092c-0.761,0.119-1.43,0.224-2.223,0.348c0.443,1.04,1.332,0.549,1.896,1.013
	c0,0.19,0,0.446,0,0.904c-0.977-0.064-1.896-0.125-2.876-0.19C120.169,119.692,120.837,110.346,121.519,100.8z"/>
<path fill-rule="evenodd" clip-rule="evenodd" fill="#7beeef" class="fill" d="M43.287,65.62c-0.485-3.924,2.615-7.124,6.573-7.448
	c5.216-0.428,10.448-0.668,15.672-0.995c1.127-0.07,2.248-0.222,3.374-0.241c1.687-0.027,3.375-0.011,5.059,0.062
	c2.253,0.099,4.503,0.268,6.753,0.412c0.387,0.024,0.771,0.08,1.163,0.347c-3.159,0.262-6.315,0.636-9.479,0.759
	c-5.239,0.206-10.488,0.151-15.724,0.409c-2.116,0.104-4.206,0.736-6.309,1.132c-0.498,0.094-0.994,0.196-1.489,0.305
	c-2.494,0.545-4.336,1.843-5.095,4.401C43.727,64.96,43.577,65.129,43.287,65.62z"/>
<path fill-rule="evenodd" clip-rule="evenodd" fill="#7beeef" class="fill" d="M149.887,79.459c1.94-1.64,2.837-1.704,5.102-0.406
	c0,0.366,0,0.79,0,1.242c-0.469,0.164-0.879,0.308-1.554,0.544c0.504,0.269,0.839,0.388,1.094,0.603
	c0.215,0.182,0.334,0.475,0.553,0.804c-0.706,0.221-1.256,0.393-2.16,0.676c0.779,0.402,1.238,0.639,1.789,0.922
	c0.036,0.32,0.078,0.696,0.129,1.14c-0.528,0.209-1.011,0.4-1.484,0.587c0.161,0.851,1.615,0.497,1.219,1.708
	c-0.402,0.486-1.517-0.286-1.714,0.776c0.31,0.768,1.624,0.088,1.778,1.363c-0.897-0.137-1.693-0.368-2.484-0.348
	c-0.819,0.021-1.632,0.286-2.616,0.477C149.38,86.178,149.682,82.838,149.887,79.459z"/>
<path fill-rule="evenodd" clip-rule="evenodd" fill="#7beeef" class="fill" d="M123.783,79.775c0.631,0.285,1.261,0.57,1.97,0.892
	c0,0.452,0,0.934,0,1.384c-0.635,0.218-1.301-0.497-1.9,0.43c0.584,0.293,1.145,0.575,1.81,0.909
	c0.021,0.379,0.044,0.808,0.071,1.315c-0.537,0.132-1.004,0.247-1.793,0.442c0.653,0.5,1.104,0.845,1.594,1.221
	c0,0.352,0,0.734,0,1.051c-0.492,0.652-1.641-0.1-1.801,0.979c0.283,0.793,1.664-0.085,1.727,1.274
	c-1.469-0.105-2.84,0.027-4.077,1.429c0-4.106,0-7.881,0-11.413c0.584-1.539,1.806-1.536,2.896-1.854
	c0.665,0.319,1.495,0.408,1.841,1.545c-0.852,0-1.547,0-2.242,0C123.846,79.511,123.814,79.643,123.783,79.775z"/>
<path fill-rule="evenodd" clip-rule="evenodd" fill="#7beeef" class="fill" d="M105.15,66.334c-1.579,0-2.972,0-4.517,0
	c-0.912-1.148-1.328-2.51-0.7-4.094c0.311-0.783,0.534-1.603,0.886-2.366c0.534-1.16,1.55-1.704,2.721-1.558
	c1.278,0.159,2.32,1.119,2.506,2.355C106.331,62.576,105.599,64.305,105.15,66.334z"/>
<path fill-rule="evenodd" clip-rule="evenodd" fill="#7beeef" class="fill" d="M154.288,128.396c0.815-9.528,1.61-18.819,2.412-28.177
	c0.383-0.101,0.74-0.195,1.116-0.294c0.087,0.235,0.207,0.397,0.188,0.54c-0.09,0.668-0.23,1.329-0.328,1.996
	c-0.725,4.975-0.953,9.963-0.491,14.981c0.255,2.766,0.022,5.498-0.903,8.141C155.929,126.591,155.542,127.585,154.288,128.396z"/>
<path fill-rule="evenodd" clip-rule="evenodd" fill="#7beeef" class="fill" d="M115.679,78.983c1.512-1.16,2.021-1.13,3.931,0.259
	c-0.579,0.186-1.06,0.34-1.553,0.498c-0.038,1.129,0.976,0.725,1.526,1.134c-0.021,0.315-0.047,0.686-0.07,1.031
	c-0.612,0.137-1.131,0.254-1.648,0.37c-0.026,0.107-0.052,0.215-0.078,0.322c0.5,0.256,1,0.513,1.575,0.808
	c-0.026,0.344-0.056,0.719-0.086,1.098c-0.598,0.152-1.117,0.283-2.027,0.515c0.749,0.435,1.191,0.691,1.725,1.001
	c0,0.428,0,0.913,0,1.456c-0.569,0.188-1.118,0.367-1.914,0.628c0.46,0.28,0.671,0.439,0.907,0.543
	c0.25,0.11,0.525,0.167,0.87,0.272c0.031,0.397,0.06,0.767,0.097,1.23c-1.256,0.245-2.444,0.478-3.675,0.717
	C115.399,86.874,115.541,82.893,115.679,78.983z"/>
<path fill-rule="evenodd" clip-rule="evenodd" fill="#7beeef" class="fill" d="M111.354,82.855c0.715,0.291,1.43,0.582,2.195,0.893
	c0,0.365,0,0.688,0,1.111c-0.694,0.069-1.395,0.139-2.21,0.22c0.272,1.21,1.655,0.474,2.149,1.312
	c-0.025,0.479-0.052,0.958-0.077,1.432c-0.796,0.181-1.472,0.333-2.147,0.487c-0.007,0.119-0.012,0.239-0.018,0.358
	c0.599,0.213,1.197,0.427,1.854,0.662c0,0.328,0,0.633,0,0.908c-1.188,0-2.283,0-3.58,0c0.19-3.518,0.379-7.031,0.566-10.5
	c1.046-0.813,1.97-1.555,3.428-1.247c0.034,0.386,0.07,0.799,0.11,1.264c-0.619,0.079-1.132,0.144-1.646,0.209
	c-0.034,0.117-0.069,0.233-0.104,0.351c0.546,0.285,1.093,0.57,1.713,0.894c0,0.326,0,0.701,0,1.047
	c-0.782,0.048-1.51,0.092-2.237,0.137C111.354,82.547,111.354,82.701,111.354,82.855z"/>
<path fill-rule="evenodd" clip-rule="evenodd" fill="#7beeef" class="fill" d="M137.22,135.266c-11.123-1.124-22.155-3.392-33.431-2.584
	c-0.033-0.138-0.065-0.277-0.099-0.415c0.272-0.189,0.527-0.5,0.821-0.543c1.056-0.154,2.129-0.328,3.19-0.296
	c3.992,0.118,7.981,0.293,11.971,0.487c4.234,0.206,8.371,1.038,12.496,1.969c1.685,0.381,3.402,0.614,5.105,0.915
	C137.255,134.955,137.237,135.11,137.22,135.266z"/>
<path fill-rule="evenodd" clip-rule="evenodd" fill="#7beeef" class="fill" d="M128.151,126.986c0,0.405,0,0.792,0,1.271
	c-0.342,0.266-0.719,0.559-1.076,0.836c0.082,0.651,1.338,0.585,0.635,1.667c-0.755-0.161-1.596-0.339-2.511-0.535
	c0.502-5.128,0.992-10.144,1.497-15.31c0.602,0.075,1.185,0.147,1.809,0.225c0.081,0.395,0.146,0.713,0.229,1.126
	c-0.598,0.169-1.148,0.324-2.046,0.577c0.775,0.39,1.241,0.625,1.799,0.906c0,0.647,0,1.362,0,2.149
	c-0.447,0.203-0.876,0.397-1.479,0.671c0.575,0.368,0.977,0.625,1.43,0.915c-0.023,0.372-0.047,0.753-0.07,1.118
	c-0.476,0.259-0.896,0.489-1.532,0.836c0.565,0.278,0.931,0.458,1.409,0.694c0.021,0.349,0.048,0.779,0.074,1.19
	c-0.477,0.297-0.877,0.548-1.426,0.891C127.398,126.525,127.76,126.746,128.151,126.986z"/>
<path fill-rule="evenodd" clip-rule="evenodd" fill="#7beeef" class="fill" d="M143.181,89.307c0.23-3.46,0.458-6.869,0.688-10.326
	c1.123-0.964,2.162-0.396,3.343,0.194c-0.048,0.667-0.095,1.326-0.146,2.041c-0.416,0.199-0.801,0.382-1.31,0.625
	c0.395,0.318,0.719,0.579,1.122,0.905c-0.027,0.437-0.061,0.929-0.093,1.442c-0.501,0.079-0.924,0.146-1.778,0.281
	c0.748,0.467,1.176,0.735,1.734,1.084c0.027,0.299,0.064,0.729,0.107,1.222c-0.672,0.352-1.66-0.352-2.125,0.748
	c0.669,0.212,1.28,0.406,1.97,0.625c0.026,0.389,0.052,0.747,0.079,1.158C145.563,89.307,144.469,89.307,143.181,89.307z"/>
<path fill-rule="evenodd" clip-rule="evenodd" fill="#7beeef" class="fill" d="M128.799,78.228c1.218-0.124,2.049,0.227,2.582,1.404
	c-0.528,0.264-0.983,0.491-1.441,0.72c0.255,0.737,1.652,0.511,1.135,1.728c-0.46,0.1-0.975,0.212-1.88,0.409
	c0.807,0.428,1.262,0.669,1.792,0.95c-0.034,0.296-0.07,0.619-0.11,0.972c-0.377,0.143-0.729,0.275-1.285,0.486
	c0.462,0.355,0.791,0.608,1.188,0.915c-0.071,0.509-0.147,1.059-0.233,1.666c-0.504,0.128-0.977,0.25-1.545,0.395
	c0,0.399,0,0.75,0,1.162c0.453,0,0.812,0,1.226,0c-0.019,0.258-0.033,0.471-0.056,0.776c-0.847,0.046-1.66,0.09-2.614,0.142
	c-0.052-0.348-0.166-0.712-0.149-1.071c0.12-2.588,0.254-5.176,0.409-7.762C127.878,80.115,127.915,79.084,128.799,78.228z"/>
<path fill-rule="evenodd" clip-rule="evenodd" fill="#7beeef" class="fill" d="M136.171,80.914c-0.49,0.313-0.812,0.518-1.219,0.778
	c0.351,0.311,0.629,0.556,0.955,0.846c-0.043,0.41-0.088,0.85-0.136,1.317c-0.383,0.234-0.742,0.454-1.202,0.735
	c0.402,0.276,0.709,0.487,1.099,0.755c-0.027,0.586-0.056,1.189-0.083,1.793c-0.504,0.161-0.912,0.291-1.381,0.441
	c0.09,0.229,0.106,0.412,0.207,0.502c0.361,0.328,1.22,0.21,0.911,1.235c-0.819,0.051-1.689,0.105-2.759,0.171
	c-0.293-3.215,0.612-6.356,0.332-9.489c0.365-0.528,0.682-0.987,1.067-1.545c0.732,0,1.489,0,2.418,0
	C136.305,79.35,136.239,80.116,136.171,80.914z"/>
<path fill-rule="evenodd" clip-rule="evenodd" fill="#7beeef" class="fill" d="M140.984,86.084c0,0.509,0,0.949,0,1.426
	c-0.667,0.139-1.286,0.269-1.907,0.397c-0.006,0.118-0.014,0.237-0.021,0.354c0.569,0.189,1.14,0.378,1.88,0.624
	c-0.947,0.958-2.036,0.331-2.995,0.829c-0.043-0.54-0.109-0.917-0.1-1.293c0.068-2.593,0.178-5.186,0.218-7.78
	c0.014-0.954,0.145-1.799,1.191-2.499c0.52,0.032,1.227,0.075,1.992,0.122c0.055,0.454,0.092,0.767,0.137,1.138
	c-0.497,0-0.912,0-1.357,0c-0.15,0.953,0.699,0.947,1.178,1.416c-0.025,0.354-0.057,0.789-0.087,1.23
	c-0.454,0.167-0.845,0.312-1.433,0.529c0.561,0.408,0.944,0.688,1.326,0.967c0,0.311,0,0.587,0,0.972
	c-0.451,0.136-0.899,0.271-1.625,0.491C140.019,85.435,140.447,85.724,140.984,86.084z"/>
<path fill-rule="evenodd" clip-rule="evenodd" fill="#7beeef" class="fill" d="M127.006,100.94c1.037-0.548,1.728-0.686,2.387,0.275
	c-0.532,0.262-0.99,0.488-1.599,0.787c0.547,0.405,0.959,0.711,1.493,1.108c-0.58,0.355-1.026,0.628-1.657,1.014
	c0.604,0.292,1.021,0.494,1.474,0.712c0,0.257,0,0.525,0,0.832c-0.527,0.215-1.022,0.416-1.785,0.726
	c0.649,0.406,1.077,0.674,1.494,0.935c0.332,0.899-0.294,1.222-1.075,1.528c0.607,0.675,1.59,1.102,0.827,2.33
	c-0.2,0.091-0.631,0.287-1.244,0.565c0.546,0.383,0.93,0.651,1.394,0.977c-0.053,0.394-0.111,0.819-0.177,1.293
	c-0.622,0.049-1.159,0.092-1.861,0.147C126.774,109.631,126.623,105.217,127.006,100.94z"/>
<path fill-rule="evenodd" clip-rule="evenodd" fill="#7beeef" class="fill" d="M132.893,55.301c-3.647,0.101-7.023,0.104-10.386,0.317
	c-2.353,0.149-4.704,0.497-7.025,0.925c-1.424,0.263-2.849,0.717-4.165,1.321c-1.257,0.577-2.373,1.46-3.774,2.35
	c0.065-0.475-0.006-0.9,0.174-1.098c0.945-1.039,1.938-1.979,3.369-2.422c4.614-1.43,9.302-2.166,14.14-1.845
	C127.683,55.014,130.144,55.141,132.893,55.301z"/>
<path fill-rule="evenodd" clip-rule="evenodd" fill="#7beeef" class="fill" d="M86.421,131.835c0.65-0.182,1.312-0.453,2-0.543
	c1.77-0.232,3.548-0.417,5.327-0.553c0.8-0.061,1.591,0.076,1.901,1.316c-0.638,0.105-1.255,0.317-1.859,0.286
	C91.341,132.214,88.896,132.012,86.421,131.835z"/>
<path fill-rule="evenodd" clip-rule="evenodd" fill="#7beeef" class="fill" d="M101.776,54.083c1.08,0,2.01,0,3.172,0
	c-0.167,1.049-0.318,2-0.477,2.993c-0.989,0-1.811,0-2.695,0C101.776,56.089,101.776,55.118,101.776,54.083z"/>
<path fill-rule="evenodd" clip-rule="evenodd" fill="#7beeef" class="fill" d="M151.02,76.892c0.466-0.861,0.829-1.533,1.212-2.241
	c0.658-0.067,1.254-0.128,1.95-0.199c0.267,0.851,0.512,1.635,0.831,2.657C153.672,77.036,152.505,76.972,151.02,76.892z"/>
<path fill-rule="evenodd" clip-rule="evenodd" fill="#7beeef" class="fill" d="M110.849,77.489c0.481-1.197,0.873-2.171,1.276-3.175
	c0.483,0.028,0.863,0.049,1.44,0.082c0.16,0.839,0.319,1.671,0.498,2.606C112.943,77.172,112.032,77.31,110.849,77.489z"/>
<path fill-rule="evenodd" clip-rule="evenodd" fill="#7beeef" class="fill" d="M37.482,123.913c0-1.336,0-2.525,0-3.839
	c0.477-0.112,0.863-0.204,1.392-0.328c0.15,1.34,0.283,2.526,0.428,3.817C38.673,123.684,38.155,123.784,37.482,123.913z"/>
<path fill-rule="evenodd" clip-rule="evenodd" fill="#7beeef" class="fill" d="M37.092,114.281c-0.087-1.112-0.15-1.924-0.229-2.915
	c0.771-0.128,1.444-0.239,2.299-0.381c0,0.909,0,1.644,0,2.55C38.574,113.747,37.982,113.96,37.092,114.281z"/>
<path fill-rule="evenodd" clip-rule="evenodd" fill="#7beeef" class="fill" d="M40.025,126.986c-0.936,0.377-1.696,0.685-2.616,1.057
	c0-0.97,0-1.816,0-2.835c0.6-0.171,1.203-0.344,1.946-0.557C39.592,125.478,39.786,126.155,40.025,126.986z"/>
<path fill-rule="evenodd" clip-rule="evenodd" fill="#7beeef" class="fill" d="M84.8,57.299c0.154-0.049,0.309-0.145,0.461-0.141
	c3.361,0.085,6.723,0.144,10.081,0.301c0.823,0.039,1.761,0.142,2.305,0.913c-0.04,0.131-0.081,0.263-0.122,0.395
	c-1.358-0.321-2.703-0.727-4.078-0.938c-1.435-0.221-2.896-0.296-4.348-0.354c-1.428-0.057-2.859-0.012-4.29-0.012
	C84.806,57.408,84.804,57.354,84.8,57.299z"/>
<path fill-rule="evenodd" clip-rule="evenodd" fill="#7beeef" class="fill" d="M38.959,118.524c-0.568,0.054-0.94,0.09-1.541,0.146
	c-0.072-1.013-0.138-1.937-0.214-2.991c0.555-0.28,1.076-0.543,1.755-0.887C38.959,116.136,38.959,117.244,38.959,118.524z"/>
<path fill-rule="evenodd" clip-rule="evenodd" fill="#7beeef" class="fill" d="M125.579,74.983c0.197,0.659,0.365,1.226,0.548,1.836
	c-1.265,0.064-2.43,0.122-3.827,0.192c0.434-0.675,0.805-1.251,1.185-1.845C124.203,75.104,124.851,75.047,125.579,74.983z"/>
<path fill-rule="evenodd" clip-rule="evenodd" fill="#7beeef" class="fill" d="M148.139,77.887c-1.379-0.309-2.396-0.536-3.528-0.79
	c0.168-0.494,0.301-0.89,0.438-1.294c0.779-0.079,1.485-0.151,2.41-0.245C147.647,76.208,147.852,76.907,148.139,77.887z"/>
<path fill-rule="evenodd" clip-rule="evenodd" fill="#7beeef" class="fill" d="M136.753,77.125c-0.963,0-1.713,0-2.693,0
	c0.287-0.775,0.512-1.379,0.743-2.001c0.499-0.126,0.917-0.231,1.542-0.388C136.485,75.56,136.609,76.283,136.753,77.125z"/>
<path fill-rule="evenodd" clip-rule="evenodd" fill="#7beeef" class="fill" d="M119.672,77.393c-1.101-0.242-1.952-0.43-2.854-0.628
	c0.364-1.132,0.875-1.979,2.383-1.937C119.34,75.591,119.484,76.372,119.672,77.393z"/>
<path fill-rule="evenodd" clip-rule="evenodd" fill="#7beeef" class="fill" d="M141.782,74.68c0.121,0.899,0.214,1.589,0.333,2.47
	c-0.914-0.143-1.641-0.257-2.604-0.408c0.246-0.678,0.455-1.254,0.683-1.877C140.707,74.805,141.124,74.756,141.782,74.68z"/>
<path fill-rule="evenodd" clip-rule="evenodd" fill="#7beeef" class="fill" d="M130.888,74.769c0.231,0.918,0.435,1.725,0.711,2.824
	c-0.934-0.337-1.578-0.571-2.282-0.826C129.581,75.934,129.588,75.109,130.888,74.769z"/>
<path fill-rule="evenodd" clip-rule="evenodd" fill="#7beeef" class="fill" d="M82.293,132.523c0.159,0,0.317,0,0.476,0c0,0.028,0,0.055,0,0.083
	c-0.157,0-0.314,0-0.473,0C82.296,132.578,82.294,132.551,82.293,132.523z"/>
<path fill-rule="evenodd" clip-rule="evenodd" fill="#7beeef" class="fill" d="M97.381,101.743c-1.062,0.445-2.212-0.451-3.098,0.883
	c1.133,0.232,2.084,0.428,3.092,0.635c0,0.562,0,1.055,0,1.554c-0.618,0.253-1.197,0.49-1.776,0.727
	c0.001,0.132,0.002,0.264,0.003,0.396c0.53,0.172,1.06,0.344,1.642,0.532c0,0.463,0,0.942,0,1.401
	c-1.043,0.5-2.245-0.471-3.17,0.603c0.846,0.973,2.171,0.333,3.182,1.054c0.018,0.321,0.042,0.753,0.067,1.183
	c-0.603,0.327-1.149,0.624-1.696,0.92c0.015,0.117,0.031,0.232,0.046,0.349c0.509,0.135,1.017,0.271,1.638,0.437
	c-0.014,0.25-0.031,0.552-0.045,0.812c-1.002,0.431-2.234-0.485-3.058,0.738c0.908,0.84,2.073,0.169,3.052,0.813
	c0,0.5,0,1.088,0,1.724c-0.628,0.216-1.263,0.435-1.897,0.653c0.016,0.147,0.031,0.294,0.047,0.44
	c0.576,0.081,1.153,0.162,1.843,0.258c0.033,0.333,0.069,0.691,0.1,0.991c-1.068,0.798-2.588-0.286-3.463,1.036
	c0.997,1.053,2.249-0.032,3.389,0.616c0,0.533,0,1.164,0,1.784c-0.746,0.238-1.438,0.459-2.129,0.68
	c0.015,0.149,0.029,0.298,0.044,0.448c0.63,0.066,1.261,0.132,2.022,0.213c0,0.566,0,1.148,0,1.856
	c-2.864,0.143-5.69,0.284-8.62,0.43c0.29-8.986,0.576-17.858,0.866-26.875c2.673-0.424,5.262-0.351,7.921,0.347
	C97.381,100.214,97.381,100.977,97.381,101.743z"/>
<path fill-rule="evenodd" clip-rule="evenodd" fill="#7beeef" class="fill" d="M94.828,83.911c1.288,0.148,2.267,0.261,3.357,0.386
	c0.027,0.443,0.054,0.862,0.079,1.258c-0.693,0.278-1.295,0.518-1.896,0.759c-0.003,0.129-0.007,0.258-0.011,0.388
	c0.586,0.146,1.17,0.292,1.865,0.465c-0.032,0.403-0.065,0.823-0.103,1.291c-1.192,0.157-2.422-0.198-3.483,0.688
	c0.963,1.096,2.273,0.002,3.318,0.829c0.033,0.16,0.095,0.469,0.172,0.843c-0.564,0.253-1.085,0.488-1.901,0.856
	c0.509,0.226,0.728,0.347,0.96,0.419c0.244,0.076,0.503,0.103,1.118,0.221c-1.161,0.675-2.006,0.152-2.815,0.157
	c-0.956,0.005-1.912-0.127-2.871-0.16c-0.887-0.03-1.774-0.006-2.862-0.006c0.198-5.406,0.392-10.676,0.59-16.078
	c2.639-1.342,5.431-0.793,8.271-0.757c0,0.863,0,1.562,0,2.371c-1.347,0.08-2.595,0.153-3.841,0.228
	c1.03,1.178,2.396,0.74,3.635,1.2c0,0.379,0,0.793,0,1.184c-0.682,0.193-1.258,0.358-1.883,0.535
	c0.213,1.065,1.157,0.608,1.695,1.023c0.019,0.22,0.041,0.491,0.062,0.742C97.311,83.422,95.965,82.48,94.828,83.911z"/>
<path fill-rule="evenodd" clip-rule="evenodd" fill="#7beeef" class="fill" d="M89.434,97.465c0-0.66,0-1.21,0-1.903
	c-0.417,0.037-0.759,0.066-1.099,0.096c-0.186,0.761-0.342,1.408-0.512,2.107c-0.424,0.05-0.8,0.095-1.327,0.157
	c0-1.063,0-2.042,0-3.156c4.84-2.259,9.577-1.065,14.441,0.13c0,1.324,0,2.529,0,3.868c-0.556-0.123-1.024-0.228-1.534-0.34
	c-0.064-0.616-0.121-1.155-0.176-1.665c-1.219-0.518-1.111,0.704-1.601,1.053C94.932,97.698,92.253,97.585,89.434,97.465z"/>
<path fill-rule="evenodd" clip-rule="evenodd" fill="#7beeef" class="fill" d="M84.337,117.717c0,0.674,0,1.167,0,1.828
	c-0.707,0-1.373,0.115-1.984-0.021c-2.151-0.476-4.272-0.006-6.399,0.139c-0.597,0.041-1.248,0.25-1.748,0.577
	c-1.73,1.13-3.574,1.179-5.759,0.771c0.267-0.714,0.505-1.351,0.657-1.758c1.763-0.723,3.254-1.381,4.779-1.948
	c1.55-0.577,3.134-0.708,4.795-0.378C80.491,117.287,82.344,117.448,84.337,117.717z"/>
<path fill-rule="evenodd" clip-rule="evenodd" fill="#7beeef" class="fill" d="M83.018,120.969c-0.091,1.503-0.169,2.829-0.262,4.386
	c-2.626,0.038-5.121,0.031-7.645-0.191c-0.325-1.476,0.002-2.7,0.452-4.042C77.93,120.556,80.313,120.617,83.018,120.969z"/>
<path fill-rule="evenodd" clip-rule="evenodd" fill="#7beeef" class="fill" d="M76.218,115.074c-0.174-0.492-0.319-0.898-0.436-1.227
	c-0.733-0.323-0.979-0.011-1.458,1.738c-0.913,0.374-1.891,0.774-3.18,1.302c0.169-0.989,0.301-1.762,0.413-2.424
	c3.789-2.333,7.692-0.974,11.67-1.074c0,0.952,0,1.747,0,2.684C80.82,116.158,78.624,115.377,76.218,115.074z"/>
<path fill-rule="evenodd" clip-rule="evenodd" fill="#7beeef" class="fill" d="M70.364,125.513c0.065-0.951,0.123-1.769,0.186-2.679
	c1.016-0.25,1.964-0.484,3.172-0.782c-0.154,1.222-0.281,2.234-0.413,3.289C72.301,125.4,71.48,125.448,70.364,125.513z"/>
<path fill-rule="evenodd" clip-rule="evenodd" fill="#7beeef" class="fill" d="M75.071,95.338c-0.19,0.48-0.301,1.013-0.584,1.431
	c-1.546,2.29-3.068,4.6-4.725,6.811c-1.823,2.435-3.781,4.769-5.602,7.046c-4.182,0.268-8.148,0.521-12.016,0.768
	c0.155-5.058,0.429-9.89,0.418-14.72c-0.012-4.771-0.312-9.539-0.488-14.388c2.637-0.266,5.03-0.579,7.473,0.462
	c0.871-0.262,1.844-0.851,3.109-0.158c-0.818,0.838-1.541,1.578-2.279,2.333c0.744,0.36,0.744,0.36,3.469-1.155
	c0.434,0.936-0.96,1.197-0.66,2.264c0.645-0.304,1.25-0.59,2.033-0.96c0.235,0.181,0.617,0.474,1.157,0.89
	c-0.728,0.942-1.386,1.795-2.134,2.764c1.72,0.581,1.961-1.188,3.177-1.567c0.303,0.238,0.716,0.562,1.151,0.904
	c-0.422,0.536-0.758,0.962-1.095,1.389c0.048,0.092,0.096,0.184,0.145,0.277c0.6-0.195,1.198-0.389,2.063-0.669
	c0.203,0.22,0.499,0.542,0.912,0.99c-0.848,0.968-1.591,1.817-2.458,2.809c1.772,0.335,2.266-1.134,3.588-1.874
	c0.236,0.302,0.536,0.684,0.846,1.077c-0.376,0.529-0.649,0.916-1.165,1.645c0.889-0.275,1.387-0.429,1.961-0.606
	c0.15,0.181,0.32,0.386,0.575,0.694c-0.711,0.877-1.4,1.729-2.193,2.709c1.578,0.494,1.966-1.031,2.906-1.373
	C74.795,95.197,74.933,95.267,75.071,95.338z M66.503,96.26c-1.785-2.936-4.862-4.978-6.902-7.984
	c-0.714,0.207-1.28,0.371-1.908,0.552c0,0.575,0.013,1.023-0.003,1.47c-0.098,2.927-0.202,5.854-0.306,8.78
	c-0.096,2.702-0.205,5.403-0.276,8.106c-0.011,0.413,0.149,0.831,0.216,1.169c0.949,0.322,1.312-0.183,1.666-0.716
	c1.026-1.55,2.059-3.095,3.083-4.646C63.468,100.878,64.856,98.762,66.503,96.26z"/>
<path fill-rule="evenodd" clip-rule="evenodd" fill="#7beeef" class="fill" d="M63.25,112.482c-0.584,0.696-1.116,1.332-1.681,2.005
	c1.052,0.391,1.052,0.391,3.658-1.894c0.312,0.07,0.679,0.153,1.054,0.237c0,1.018,0,1.953,0,2.842
	c-1.796,0.749-13.468,1.116-15.228,0.551c-0.691,0.17-1.306,0.321-2.215,0.544c0.11-1.411,0.197-2.505,0.279-3.537
	C50.466,112.656,61.907,112.014,63.25,112.482z"/>
<path fill-rule="evenodd" clip-rule="evenodd" fill="#7beeef" class="fill" d="M61.349,79.599c-0.31,0.378-0.619,0.755-1.12,1.365
	c-3.079,0-6.434,0-9.991,0c-0.049-0.562-0.108-1.249-0.176-2.015c4.492-0.362,8.85,0.005,13.309-0.806
	c0.156,0.933,0.279,1.667,0.465,2.771c-0.934-0.459-1.549-0.762-2.166-1.065C61.562,79.766,61.455,79.683,61.349,79.599z"/>
<path fill-rule="evenodd" clip-rule="evenodd" fill="#7beeef" class="fill" d="M51.991,117.871c2.1,0,4.248,0,6.789,0
	c-2.504,1.909-4.707,3.588-6.91,5.27C51.366,121.955,51.401,119.419,51.991,117.871z"/>
<path fill-rule="evenodd" clip-rule="evenodd" fill="#7beeef" class="fill" d="M52.571,73.16c0.412,0.218,0.59,0.262,0.69,0.374
	c0.409,0.455,0.796,0.93,1.228,1.442c-0.362,0.455-0.703,0.882-1.082,1.355c0.844,0.932,1.409-0.009,2.352-0.511
	c0.305,0.343,0.608,0.686,0.912,1.028c-0.071,0.153-0.143,0.306-0.215,0.459c-1.354,0.078-2.709,0.155-4.136,0.237
	c-0.059-0.502-0.136-0.773-0.111-1.035C52.306,75.455,52.435,74.404,52.571,73.16z"/>
<path fill-rule="evenodd" clip-rule="evenodd" fill="#7beeef" class="fill" d="M81.64,107.969c-1.02,0-1.844,0-2.697,0
	c-0.092-0.295-0.211-0.503-0.211-0.711c0-4.273-0.035-8.546,0.051-12.818c0.037-1.789,0.335-3.573,0.537-5.583
	c0.947-0.247,1.877-0.489,3.047-0.793C82.669,94.889,82.009,101.364,81.64,107.969z"/>
<path fill-rule="evenodd" clip-rule="evenodd" fill="#7beeef" class="fill" d="M80.794,75.508c0.822,0,1.455,0,2.312,0
	c0.008,2.4,0.111,4.67-0.325,7.08c-0.814-0.087-1.521-0.163-2.302-0.246C80.124,80.06,80.466,77.915,80.794,75.508z"/>
<path fill-rule="evenodd" clip-rule="evenodd" fill="#7beeef" class="fill" d="M78.724,85.246c2.201-1.962,3.029-1.916,5.754,0.356
	c0,0.242,0.019,0.572-0.007,0.899c-0.015,0.212-0.093,0.419-0.119,0.534c-1.888,0.113-3.688,0.222-5.628,0.338
	C78.724,86.787,78.724,85.997,78.724,85.246z"/>
<path fill-rule="evenodd" clip-rule="evenodd" fill="#7beeef" class="fill" d="M82.074,72.725c0.351,0.482,0.545,0.75,0.853,1.173
	c-0.518,0.082-0.849,0.133-1.446,0.227C81.707,73.593,81.844,73.27,82.074,72.725z"/>
<path fill-rule="evenodd" clip-rule="evenodd" fill="#7beeef" class="fill" d="M73.811,76.476c-0.076,1.007-0.146,1.928-0.217,2.877
	c-1.267,0.136-2.411,0.259-3.681,0.395c0-1.009,0-2.042,0-3.086C71.217,75.774,72.441,76.281,73.811,76.476z"/>
<path fill-rule="evenodd" clip-rule="evenodd" fill="#7beeef" class="fill" d="M70.05,72.271c0.146-0.878,0.27-1.634,0.416-2.522
	c1.285,0,2.438,0,3.751,0c-0.067,0.833-0.131,1.597-0.205,2.522C72.735,72.271,71.534,72.271,70.05,72.271z"/>
<path fill-rule="evenodd" clip-rule="evenodd" fill="#7beeef" class="fill" d="M68.211,76.467c-0.192-1.492,0.433-2.374,1.943-2.589
	c1.595-0.227,3.225-0.203,4.958-0.295c0.072,0.608,0.12,1.006,0.188,1.566c-1.321-0.117-2.478-0.272-3.638-0.308
	C70.296,74.8,68.915,74.838,68.211,76.467z"/>
<path fill-rule="evenodd" clip-rule="evenodd" fill="#7beeef" class="fill" d="M64.798,96.18c-1.966,3.064-3.836,5.979-5.705,8.893
	c-0.146-0.032-0.291-0.063-0.436-0.095c-0.03-0.573-0.111-1.149-0.082-1.718c0.126-2.475,0.308-4.946,0.421-7.421
	c0.057-1.235,0-2.475,0.011-3.713c0.004-0.48,0.051-0.96,0.104-1.895C61.19,92.406,62.983,94.282,64.798,96.18z"/>
</svg>
