<svg version="1.1" id="svg" xmlns="http://www.w3.org/2000/svg" xmlns:xlink="http://www.w3.org/1999/xlink" x="0px" y="0px"
	 width="200px" height="200px" viewBox="0 0 200 200" enable-background="new 0 0 200 200" xml:space="preserve">
<path fill-rule="evenodd" clip-rule="evenodd" fill="#F880B3" d="M110.22,156.195c-7.695-0.093-15.277-0.813-22.719-2.526
	c-9.48-2.182-18.584-5.513-26.477-11.273c-3.424-2.499-6.333-5.889-8.926-9.293c-3.674-4.825-6.098-10.39-7.243-16.383
	c-0.659-3.446-0.94-6.967-1.333-10.46c-0.635-5.625-0.539-11.25,0.724-16.771c0.869-3.799,1.985-7.558,3.274-11.237
	c1.178-3.364,2.734-6.595,4.125-9.885c0.087-0.209,0.119-0.459,0.253-0.628c3.444-4.36,6.619-8.978,10.438-12.982
	c3.297-3.457,7.102-6.557,11.095-9.19c4.666-3.078,9.948-5.09,15.646-5.291c5.051-0.178,10.145-0.354,15.162,0.107
	c3.853,0.355,7.635,1.629,11.414,2.626c7.205,1.898,13.781,5.223,20.066,9.152c3.951,2.472,7.136,5.792,10.042,9.387
	c3.339,4.133,6.261,8.562,8.283,13.478c2.936,7.139,4.677,14.594,5.013,22.329c0.184,4.247,0.778,8.576,0.217,12.736
	c-1.846,13.686-7.807,25.536-17.513,35.347c-3.561,3.6-7.865,6.121-12.908,7.628c-5.981,1.789-11.988,2.892-18.185,3.182
	C110.502,156.256,110.332,156.208,110.22,156.195z"/>
</svg>
