<svg version="1.1" id="svg" xmlns="http://www.w3.org/2000/svg" xmlns:xlink="http://www.w3.org/1999/xlink" x="0px" y="0px"
	 width="200px" height="200px" viewBox="0 0 200 200" enable-background="new 0 0 200 200" xml:space="preserve">
<path class="stroke" fill="#492208"  d="M164.581,72.073c-1.882-5.895-5.037-10.638-10.531-13.619c-3.058-1.66-6.47-2.401-9.797-1.59
	c-3.322,0.812-6.479,2.339-9.661,3.665c-2.547,1.063-5.007,2.328-7.536,3.442c-2.45,1.079-4.952,2.037-7.404,3.117
	c-4.751,2.094-9.448,4.319-14.232,6.339c-5.013,2.113-10.096,4.06-15.159,6.053c-1.283,0.506-2.646,0.822-3.904,1.381
	c-5.017,2.235-10,4.543-15.006,6.801c-1.464,0.661-2.941,1.3-4.443,1.873c-5.859,2.24-11.754,4.39-17.588,6.694
	c-3.078,1.217-5.223,3.605-6.367,6.628c-1.614,4.264-2.111,8.789-2.449,13.08c0.079,1.244,0.112,2.244,0.215,3.237
	c0.396,3.802,1.785,7.226,4.65,9.765c2.346,2.076,4.91,3.963,7.584,5.598c3.268,1.998,7.008,2.489,10.68,1.542
	c4.061-1.048,8.102-2.32,11.975-3.925c6.869-2.843,13.646-5.928,20.384-9.076c4.309-2.012,8.452-4.369,12.718-6.476
	c14.252-7.037,28.537-14.008,42.782-21.062c3.092-1.531,6.132-3.19,9.054-5.02c1.097-0.688,2.016-1.901,2.629-3.077
	C165.732,82.542,166.31,77.491,164.581,72.073z"/>
<path fill-rule="evenodd" clip-rule="evenodd" fill="#f4751a" class="fill" d="M142.641,60.076c1.681,0.776,3.328,1.538,5.106,2.359
	c0.175-0.348,0.36-0.72,0.604-1.211c-0.906-0.682-1.73-1.302-2.935-2.205c2.488-0.016,4.318,0.688,6.072,1.484
	c5.764,2.624,8.96,7.288,10.307,13.348c0.188,0.85,0.306,1.721-0.844,2.044c-0.836-0.52-0.512-2.498-2.437-1.824
	c0,1.196,0,2.391,0,3.806c-0.512,0.332-1.122,0.729-1.774,1.152c-0.826-1.315-0.141-3.238-2.131-3.797
	c-1.52,1.706,1.087,4.394-1.332,5.97c-1.048-0.851-0.664-3.322-2.955-2.684c0.138,1.466,0.264,2.81,0.402,4.298
	c-0.872,0.566-1.676,1.09-2.611,1.698c-0.521-1.098-0.951-2.009-1.431-3.017c-2.325,1.189-0.513,2.86-1.067,4.581
	c-0.516,0.344-1.352,0.899-2.165,1.438c-1.04-1.166-0.374-2.946-2.103-3.506c-1.887,1.323,0.338,3.168-0.372,4.801
	c-0.874,0.517-1.75,1.034-2.8,1.656c-0.273-1.166-0.479-2.042-0.714-3.042c-0.498-0.086-0.978-0.168-1.644-0.282
	c0,1.608,0,3.047,0,4.595c-1.049,0.616-2.025,1.191-3.297,1.939c-0.211-1.141-0.383-2.064-0.586-3.15
	c-0.43-0.062-0.912-0.13-1.648-0.236c0,1.594,0,3.021,0,4.518c-1.352,0.685-2.548,1.289-3.828,1.936
	c-0.562-1.463,0.438-3.135-1.449-4.091c-1.616,1.521-0.106,3.901-1.294,5.614c-1.152,0.544-2.303,1.091-3.411,1.617
	c-1.207-1.291-0.021-3.312-1.86-4.352c-2.06,1.649,0.338,4.22-1.611,6.207c-0.394,0.173-1.279,0.564-2.335,1.032
	c-0.439-1.248-0.836-2.373-1.277-3.627c-0.494,0.147-0.891,0.269-1.367,0.411c0.157,1.512,0.305,2.929,0.461,4.417
	c-1.227,0.621-2.298,1.164-3.584,1.816c-0.318-1.587-0.592-2.94-0.864-4.289c-1.437-0.055-1.635,0.685-1.627,1.622
	c0.01,1.218,0.004,2.436,0.004,3.717c-1.089,0.511-2.047,0.958-3.136,1.47c-0.298-1.258-0.561-2.358-0.845-3.555
	c-0.477,0-0.896,0-1.512,0c0,1.594,0,3.091,0,4.645c-1.134,0.605-2.135,1.139-3.37,1.799c-0.247-1.654-0.467-3.121-0.686-4.578
	c-1.607,0.213-1.839,0.506-1.793,1.945c0.037,1.208,0.008,2.419,0.008,3.757c-1.361,0.578-2.607,1.104-4.154,1.762
	c-0.123-0.917-0.223-1.554-0.288-2.191c-0.063-0.601-0.091-1.204-0.144-1.963c-0.543-0.057-1.008-0.104-1.583-0.164
	c-0.153,1.904-0.296,3.64-0.45,5.524c-0.797,0.33-1.52,0.631-2.45,1.018c-0.261-1.622-0.472-2.948-0.721-4.504
	c-0.7,0.14-1.225,0.243-1.665,0.333c0,1.814,0,3.408,0,5.144c-0.852,0.449-1.7,0.893-2.855,1.499
	c-0.311-1.688-0.565-3.066-0.848-4.587c-0.667,0.121-1.146,0.207-1.753,0.317c0.149,1.719,0.291,3.306,0.446,5.077
	c-0.679,0.317-1.341,0.625-2.32,1.085c-0.216-1.657-0.395-3.05-0.605-4.677c-0.66,0.106-1.188,0.19-1.703,0.272
	c0,1.812,0,3.408,0,5.193c-0.584,0.262-1.164,0.52-1.86,0.829c-0.173-0.479-0.349-0.748-0.356-1.02
	c-0.094-3.749-1.075-7.289-2.563-10.696c-1.556-3.563-3.604-6.854-6.682-9.259c-1.527-1.195-3.499-1.843-5.32-2.625
	c-0.901-0.389-1.91-0.526-3.147-0.849c1.538-1.466,3.195-1.775,4.921-1.44c1.42,0.275,2.796,0.824,4.157,1.339
	c0.77,0.291,1.449,0.625,2.019-0.45c-0.673-1.626-2.612-1.592-3.933-2.708c0.86-0.444,1.592-0.82,2.291-1.182
	c2.408,0.566,4.745,1.004,6.745,2.442c0.596,0.427,0.646,0.353,1.863-0.199c-0.633-1.982-2.714-2.237-4.319-3.592
	c1.617-0.683,3.062-1.291,4.646-1.957c1.86,0.688,3.718,1.375,5.729,2.119c0.113-0.077,0.422-0.197,0.579-0.423
	c0.155-0.224,0.151-0.556,0.265-1.033c-1.09-0.584-2.144-1.146-3.598-1.924c1.527-0.851,2.801-1.562,4.181-2.329
	c1.957,0.883,3.882,1.799,5.852,2.605c0.439,0.18,1.038-0.021,1.755-0.054c-0.74-2.329-2.778-2.477-4.207-3.562
	c3.219-2.396,6.443-2.879,9.931-0.722c0.755,0.467,1.545,1.469,2.646,0.554c-0.206-1.009-0.206-1.009-3.565-3.294
	c4.249-3.012,5.477-2.702,10.505,1.189c0.265-0.305,0.579-0.669,1.064-1.229c-1.447-1.249-2.523-2.179-3.829-3.308
	c1.242-0.539,2.332-1.015,3.6-1.563c1.549,0.785,3.108,1.572,5.146,2.603c0.154-0.144,0.511-0.478,1.062-0.994
	c-1.305-1.074-2.174-1.79-3.339-2.746c1.089-0.468,2.019-0.868,3.062-1.316c1.696,0.882,3.383,1.757,5.174,2.688
	c0.242-0.321,0.495-0.656,0.868-1.154c-1.015-0.848-1.937-1.616-3.083-2.572c1.305-0.642,2.508-1.232,3.914-1.923
	c1.885,0.775,3.84,1.584,5.794,2.39c0.885-1.435,0.824-1.514-2.707-3.43c1.591-1.455,3.515-2.024,5.816-2.763
	c1.048,0.47,2.388,1.001,3.661,1.663c0.728,0.379,1.337,0.8,2.123-0.381c-0.814-0.792-1.645-1.6-2.707-2.632
	c1.095-0.513,2.086-0.976,3.332-1.56c1.605,0.707,3.264,1.462,4.944,2.159c0.624,0.259,1.303,0.383,2.266,0.656
	c-0.51-2.749-3.063-2.625-4.169-4.075c2.443-1.386,2.443-1.386,8.467,1.101c0.161-0.458,0.322-0.908,0.532-1.501
	c-1.091-0.61-2.072-1.163-3.293-1.85C140.93,61.005,141.622,60.63,142.641,60.076z"/>
<path fill-rule="evenodd" clip-rule="evenodd" fill="#f4751a" class="fill" d="M55.138,103.135c-0.772,2.916-1.488,5.816-0.574,8.809
	c0.192,0.629,0.489,1.227,1.014,1.858c0.104-3.517,0.922-6.703,3.402-9.781c0.028,2.481-0.769,4.716,1.016,6.696
	c0.654-1.438,1.231-2.704,1.808-3.968c0.164,0.007,0.33,0.013,0.498,0.02c0.746,3.586,1.709,7.053,5.115,9.24
	c0.11,0.587,0.23,1.238,0.348,1.872c-1.306,0.399-1.306,0.399-3.939-0.996c-0.347,1.725-0.347,1.725,4.441,4.99
	c-0.702,1.007-1.741,0.842-2.662,0.752c-1.984-0.19-3.609-1.17-5.037-2.52c-0.457-0.434-0.955-0.827-1.612-1.059
	c0.848,3.894,3.732,6.074,6.84,8.125c-3.268,1.516-5.168,0.733-11.947-4.78c-0.141,1.678,1.021,3.573,3.304,5.192
	c1.718,1.221,3.499,2.352,5.399,3.621c-4.862,1.084-7.547-2.752-11.384-4.885c1.061,3.333,3.281,4.955,5.612,6.507
	c-5.104-1.962-9.586-4.554-11.51-10.174c-2.425-7.094-1.238-13.771,2.038-20.26c0.138-0.269,0.336-0.513,0.543-0.733
	c0.065-0.071,0.253-0.028,0.389-0.039c-3.612,8.047-3.619,16.733-1.012,18.373c0.111-2.918,0.035-5.895,0.388-8.818
	c0.345-2.874,0.931-5.783,3.598-7.999c-0.842,4.268-2.83,8.295-0.727,12.557c1.063-0.391,0.959-1.104,1.023-1.778
	c0.183-1.909,0.323-3.828,0.646-5.714C52.447,106.523,53.623,104.543,55.138,103.135z"/>
</svg>
