<svg version="1.1" id="svg" xmlns="http://www.w3.org/2000/svg" xmlns:xlink="http://www.w3.org/1999/xlink" x="0px" y="0px"
	 width="200px" height="200px" viewBox="0 0 200 200" enable-background="new 0 0 200 200" xml:space="preserve">
<path class="stroke" fill="#0e0240"  fill-rule="evenodd" clip-rule="evenodd" d="M92.669,131.139c-2.497,2.231-4.206,4.951-6.16,7.47
	c-2.352,3.03-4.562,6.191-7.133,9.025c-3.664,4.036-7.318,8.129-11.712,11.42c-3.102,2.325-5.959,4.958-9.439,6.823
	c-1.647,0.884-3.234,1.91-4.977,2.635c-0.34,0.141-0.732,0.155-1.386,0.285c0.596-1.525,1.6-2.186,2.691-2.613
	c2.358-0.925,4.273-2.502,6.115-4.13c2.954-2.612,5.83-5.321,8.617-8.11c6.181-6.185,11.901-12.77,16.833-20.009
	c1.177-1.729,2.267-3.516,3.459-5.374c-3-2.304-5.862-4.502-8.797-6.756c-0.452,0.484-0.883,0.861-1.21,1.314
	c-2.131,2.951-4.791,5.432-7.204,8.133c-1.81,2.028-3.579,4.099-5.444,6.074c-2.377,2.516-4.793,4.999-7.268,7.42
	c-2.284,2.234-4.576,4.479-7.032,6.519c-2.696,2.239-5.416,4.501-8.655,5.957c-0.94,0.424-1.987,0.608-2.989,0.904
	c-0.245-0.315-0.399-0.516-0.601-0.774c0.17-0.223,0.278-0.504,0.476-0.605c5.424-2.736,9.801-6.824,14.143-10.954
	c2.247-2.136,4.57-4.208,6.679-6.477c4.223-4.544,8.321-9.205,12.473-13.815c1.486-1.649,2.749-3.449,3.789-5.553
	c-1.109-1.598-2.93-1.824-4.692-2.481c-0.724,0.493-1.56,0.883-2.163,1.502c-3.376,3.462-6.643,7.035-10.053,10.464
	c-3.631,3.653-7.259,7.326-11.119,10.729c-2.707,2.385-5.77,4.375-8.733,6.457c-1.799,1.265-3.702,2.388-5.581,3.536
	c-0.458,0.28-1.011,0.681-1.662-0.2c0.332-0.32,0.625-0.749,1.03-0.972c4.097-2.248,7.503-5.375,10.95-8.465
	c4.193-3.76,8.276-7.629,12.024-11.835c1.957-2.194,3.774-4.513,5.726-6.712c2.343-2.642,5.179-4.74,7.916-6.939
	c0.314-0.251,0.748-0.395,1.148-0.493c2.248-0.552,4.454-0.637,6.584,0.525c0.963,0.525,1.96,1.065,3.01,1.34
	c1.946,0.508,3.599-0.121,4.919-1.669c1.875-2.198,3.756-4.393,5.685-6.543c2.422-2.7,4.91-5.342,7.34-8.034
	c1.586-1.757,3.101-3.576,4.679-5.34c4.485-5.012,9.021-9.979,13.471-15.021c4.418-5.005,8.935-9.939,13.066-15.176
	c2.742-3.473,5.837-6.615,8.601-10.055c1.447-1.802,3.062-3.468,4.595-5.201c0.273-0.309,0.513-0.646,0.692-0.872
	c-2.461-3.941-2.703-7.971-1.17-12.147c1.064-2.899,2.907-5.349,4.785-7.745c1.553-1.98,3.241-3.86,4.927-5.731
	c0.73-0.811,1.608-1.492,2.566-2.368c0.684,0.306,1.39,0.507,1.969,0.898c2.08,1.405,4.079,2.936,6.184,4.301
	c1.669,1.081,3.482,1.938,5.172,2.988c3.265,2.031,6.213,4.486,9.038,7.08c0.465,0.427,0.654,1.152,0.928,1.663
	c-0.968,2.034-2.45,3.452-3.854,4.944c-2.594,2.758-5.033,5.676-8.021,8.032c-1.48,1.168-3.037,2.257-4.639,3.255
	c-1.53,0.954-3.314,1.017-5.05,0.88c-1.823-0.146-3.631-0.482-5.704-0.772c-0.242,0.193-0.73,0.506-1.129,0.908
	c-2.22,2.24-4.5,4.427-6.604,6.771c-3.511,3.913-6.908,7.931-10.348,11.909c-2.884,3.336-5.733,6.707-8.649,10.017
	c-4.242,4.815-8.531,9.589-12.794,14.384c-3.005,3.38-6.022,6.748-8.994,10.155c-2.521,2.893-4.993,5.825-7.467,8.756
	c-0.644,0.763-1.199,1.599-1.819,2.38c-1.044,1.32-0.984,2.95-1.336,4.645c0.74,0.871,1.519,1.85,2.367,2.767
	c0.855,0.928,1.763,1.808,2.673,2.682c2.491,2.391,3.397,5.139,2.314,8.551c-1.114,3.518-3.018,6.572-5.149,9.508
	c-1.79,2.467-3.592,4.933-5.544,7.269c-2.287,2.735-4.725,5.345-7.134,7.978c-1.486,1.624-2.971,3.262-4.58,4.762
	c-1.721,1.608-3.572,3.079-5.395,4.575c-1.458,1.194-2.924,2.386-4.449,3.491c-1.654,1.2-3.371,2.315-5.084,3.431
	c-0.386,0.251-0.863,0.417-1.319,0.49c-0.279,0.047-0.599-0.158-0.928-0.408c3.035-1.603,5.118-4.249,7.707-6.279
	c3.698-2.898,6.768-6.441,9.997-9.82c4.079-4.266,7.52-9.057,11.209-13.641c1.541-1.914,2.736-4.109,4.062-6.193
	c0.759-1.195,1.518-2.396,2.172-3.65c0.305-0.583,0.425-1.287,0.519-1.953c0.219-1.569-0.26-2.906-1.495-3.937
	C94.421,132.578,93.535,131.854,92.669,131.139z M156.651,31.604c-0.824,0.789-1.592,1.497-2.329,2.237
	c-2.275,2.288-3.828,4.983-4.464,8.166c-0.234,1.174-0.172,2.371,0.646,3.292c0.976,1.103,2.111,2.063,3.551,2.537
	c1.196,0.394,2.414,0.717,3.612,1.104c1.327,0.432,2.581,0.259,3.813-0.343c2.578-1.26,4.828-2.974,6.86-4.976
	c0.917-0.901,1.754-1.889,2.707-2.923C165.705,38.451,161.412,34.863,156.651,31.604z"/>
<path fill-rule="evenodd" clip-rule="evenodd" fill="#5146ce" class="fill" d="M142.499,56.326c0.807,0.462,1.522,0.871,2.339,1.341
	c-14.417,16.628-29.162,32.74-43.989,48.978c-0.545-0.394-1.203-0.869-2.042-1.476c0.706-0.824,1.351-1.613,2.034-2.365
	c3.915-4.32,7.866-8.606,11.751-12.95c2.943-3.291,5.797-6.661,8.714-9.975c1.631-1.853,3.314-3.66,4.969-5.493
	c3.137-3.47,6.276-6.94,9.403-10.419C137.925,61.469,140.153,58.955,142.499,56.326z"/>
</svg>
