<svg version="1.1" id="svg" xmlns="http://www.w3.org/2000/svg" xmlns:xlink="http://www.w3.org/1999/xlink" x="0px" y="0px"
	 width="200px" height="200px" viewBox="0 0 200 200" enable-background="new 0 0 200 200" xml:space="preserve">
<path class="stroke" fill="#3b4954"  fill-rule="evenodd" clip-rule="evenodd" d="M188.588,158.992c-1.822,2.004-4.149,3.151-6.546,3.938
	c-4.86,1.594-9.783,3.024-14.74,4.288c-3.041,0.775-6.188,1.141-9.295,1.648c-4.211,0.688-8.417,1.427-12.647,1.968
	c-3.445,0.44-6.92,0.647-10.386,0.913c-3.598,0.275-7.196,0.586-10.801,0.716c-5.778,0.207-11.562,0.457-17.338,0.355
	c-5.834-0.103-11.66-0.634-17.492-0.934c-2.559-0.131-5.129-0.078-7.686-0.237c-4.126-0.256-8.247-0.592-12.367-0.944
	c-3.008-0.257-6.009-0.603-9.016-0.896c-3.935-0.382-7.784-1.16-11.559-2.353c-1.308-0.412-2.682-0.657-4.043-0.852
	c-2.749-0.394-5.357-1.172-7.936-2.227c-4.676-1.912-9.45-3.581-14.156-5.419c-2.169-0.847-3.863-2.415-5.756-4.019
	c0.587-0.797,1.036-1.505,1.581-2.129c2.25-2.568,4.675-5,6.753-7.699c1.55-2.014,2.778-4.306,3.951-6.576
	c1.836-3.554,3.802-7.085,5.173-10.824c2.197-5.989,3.956-12.166,3.608-18.649c-0.158-2.933-0.873-5.834-1.3-8.755
	c-0.509-3.462-2.405-6.301-3.917-9.356c-3.132-6.323-5.832-12.877-4.828-20.189c0.84-6.116,2.653-11.854,6.687-16.786
	c2.948-3.604,6.491-6.28,10.628-8.27c4.206-2.023,8.437-4.013,13.002-5.089c2.87-0.677,5.77-1.324,8.692-1.65
	c4.844-0.538,9.589-1.56,14.322-2.625c2.809-0.633,5.553-1.647,7.743-3.673c1.863-1.724,1.984-2.879,0.243-4.665
	c-0.92-0.943-2.181-1.555-3.511-2.471c0.001-0.02,0.032-0.367,0.086-0.982c0.952,0.175,1.787,0.237,2.56,0.493
	c1.181,0.392,2.292,0.998,3.478,1.374c5.226,1.65,6.768,9.824,1.808,13.777c-3.836,3.058-8.175,4.931-12.784,6.383
	c-3.062,0.965-6.148,1.93-9.07,3.238c-2.613,1.169-4.779,3.056-5.621,5.987c-0.501,1.75-0.347,3.444,0.482,5.153
	c2.704,5.563,7.031,9.569,12.059,12.941c0.217,0.146,0.451,0.271,0.661,0.429c5.741,4.327,12.298,6.942,19.075,9.104
	c7.383,2.355,14.98,3.836,22.506,5.613c4.153,0.98,8.27,2.122,12.153,3.969c1.478,0.703,3.009,1.299,4.539,1.885
	c4.391,1.68,8.233,4.348,12.246,6.711c5.223,3.077,9.962,6.798,14.56,10.722c2.709,2.312,4.98,5.019,7.191,7.785
	c1.515,1.896,3.234,3.659,4.533,5.691c2.507,3.925,4.411,8.167,6.199,12.478c1.968,4.745,3.164,9.723,4.794,14.566
	C187.75,154.768,188.068,156.794,188.588,158.992z"/>
<path fill-rule="evenodd" clip-rule="evenodd" fill="#e5f3a5" class="fill" d="M78.179,77.35c1.758,0.949,3.479,1.977,5.282,2.829
	c3.616,1.709,7.265,3.347,10.921,4.97c6.848,3.039,14.26,4.009,21.445,5.82c9.772,2.464,19.233,5.745,28.162,10.518
	c6.307,3.371,11.947,7.632,17.385,12.206c5.87,4.935,10.414,10.938,13.843,17.753c3.521,6.998,6.467,14.225,7.683,22.042
	c0.22,1.413,0.526,2.811,0.838,4.466c-1.291,0.572-2.441,1.082-3.658,1.62c-0.243-0.417-0.426-0.616-0.483-0.846
	c-1.821-7.231-4.566-14.091-7.943-20.741c-2.339-4.606-5.332-8.743-8.409-12.835c-2.444-3.254-4.926-6.494-7.6-9.559
	c-1.716-1.966-3.849-3.564-5.73-5.394c-4.22-4.11-9.375-6.727-14.666-9.055c-4.378-1.927-8.862-3.549-13.501-4.876
	c-8.195-2.343-16.547-4.256-24.411-7.671c-6.154-2.673-12.179-5.597-17.7-9.456c-0.609-0.425-1.143-0.957-1.712-1.44
	C78.01,77.583,78.094,77.467,78.179,77.35z"/>
<path fill-rule="evenodd" clip-rule="evenodd" fill="#e5f3a5" class="fill" d="M41.298,51.204c-3.289,3.292-4.318,7.573-5.284,11.881
	c-0.114,0.512-0.124,1.049-0.259,1.554c-1.446,5.426-0.613,10.662,1.295,15.811c2.121,5.721,4.38,11.394,6.339,17.168
	c2.1,6.196,2.536,12.614,1.492,19.069c-0.975,6.035-2.606,11.945-4.752,17.646c-1.799,4.782-4.301,9.296-7.413,13.405
	c-2.131,2.816-4.345,5.568-6.61,8.461c-1.325-0.672-2.465-1.25-3.785-1.918c0.914-1.167,1.619-2.19,2.45-3.1
	c3.573-3.912,6.426-8.341,8.857-12.996c2.368-4.536,4.216-9.33,5.36-14.35c0.729-3.197,1.492-6.39,2.075-9.613
	c1.429-7.899-0.533-15.242-3.88-22.326c-1.374-2.909-2.974-5.728-4.124-8.721c-3.32-8.632-2.548-17.018,2.181-24.954
	c1.335-2.24,3.07-4.243,4.655-6.329c0.292-0.385,0.749-0.644,1.13-0.962C41.116,51.021,41.207,51.113,41.298,51.204z"/>
<path fill-rule="evenodd" clip-rule="evenodd" fill="#e5f3a5" class="fill" d="M107.307,124.652c1.2,1.429,2.349,2.602,3.273,3.932
	c3.315,4.77,5.888,9.946,8.127,15.293c2.318,5.539,3.391,11.436,4.907,17.204c0.401,1.523,0.715,3.07,1.025,4.615
	c0.149,0.749,0.195,1.521,0.317,2.524c-2.762,0-5.29,0-7.941,0c-2.745-14.304-6.235-28.486-12.953-41.889
	C105.088,125.801,106.044,125.306,107.307,124.652z"/>
<path fill-rule="evenodd" clip-rule="evenodd" fill="#e5f3a5" class="fill" d="M80.413,96.155c0.544-0.462,1.07-0.91,1.767-1.5
	c7.867,4.31,14.12,10.208,19.538,17.34c-1.655,1.181-3.462,1.886-5.563,2.232C90.992,108.3,85.847,102.394,80.413,96.155z"/>
<path fill-rule="evenodd" clip-rule="evenodd" fill="#e5f3a5" class="fill" d="M69.629,85.505c-0.674,0.283-1.422,0.597-2.237,0.94
	c-4.589-3.411-8.274-7.549-11.387-12.374c0.514-0.466,0.879-0.798,1.193-1.082C61.354,77.175,65.422,81.269,69.629,85.505z"/>
<path fill-rule="evenodd" clip-rule="evenodd" fill="#e5f3a5" class="fill" d="M52.207,63.978c-0.845-3.568,0.237-8.512,2.343-10.344
	c0.346,1.948-0.819,3.503-0.762,5.172c0.058,1.682,0.218,3.359,0.345,5.171C53.364,63.978,52.818,63.978,52.207,63.978z"/>
<path fill-rule="evenodd" clip-rule="evenodd" fill="#e5f3a5" class="fill" d="M66.772,44.512c-1.888,1.208-3.731,2.396-5.591,3.56
	c-0.125,0.078-0.373-0.002-0.547-0.059c-0.109-0.035-0.189-0.163-0.281-0.249C61.566,46.224,65.275,44.328,66.772,44.512z"/>
<path fill-rule="evenodd" clip-rule="evenodd" fill="#e5f3a5" class="fill" d="M86.028,38.504c0.373-0.166,0.746-0.331,1.121-0.497
	c0.041,0.078,0.082,0.156,0.122,0.232c-0.336,0.193-0.672,0.387-1.008,0.58C86.184,38.714,86.105,38.609,86.028,38.504z"/>
<path fill-rule="evenodd" clip-rule="evenodd" fill="#e5f3a5" class="fill" d="M77.751,41.124c-0.257,0.156-0.516,0.311-0.773,0.465
	c-0.06-0.079-0.119-0.159-0.179-0.237c0.228-0.185,0.456-0.37,0.683-0.555C77.572,40.905,77.662,41.015,77.751,41.124z"/>
</svg>
