<svg version="1.1" id="svg" xmlns="http://www.w3.org/2000/svg" xmlns:xlink="http://www.w3.org/1999/xlink" x="0px" y="0px"
	 width="200px" height="200px" viewBox="0 0 200 200" enable-background="new 0 0 200 200" xml:space="preserve">
<path class="stroke" fill="#3b4954"  fill-rule="evenodd" clip-rule="evenodd" d="M168.462,125.059c0.352-1.031,0.637-1.867,0.89-2.606
	c1.592-0.494,2.677,0.027,3.666,0.934c1.381,1.262,2.708,2.597,4.188,3.734c1.181,0.909,2.55,1.577,3.843,2.338
	c2.013,1.183,2.26,1.701,1.894,3.682c0.766,0.894,1.393,1.708,2.107,2.436c1.185,1.208,1.378,2.772,0.403,3.856
	c-0.906,1.006-3.038,1.069-4.118,0.004c-0.81-0.799-1.465-1.753-2.261-2.727c-0.524-0.191-1.141-0.416-2.034-0.742
	c0.429,2.168,0.866,4.136,1.2,6.122c0.482,2.853,1.005,5.706,1.301,8.58c0.4,3.868-1.773,6.869-5.557,8.38
	c-1.013,0.404-2.021,0.145-2.91-0.504c-1.344-0.98-2.056-2.335-2.443-4.329c0.466-0.808,1.077-1.873,1.809-3.143
	c-0.229-0.854-0.532-1.981-0.902-3.357c-0.349,0.506-0.554,0.835-0.79,1.143c-0.999,1.301-2.676,1.815-4.007,0.891
	c-1.524-1.061-2.974-1.099-4.599-0.49c-1.047,0.392-2.085,0.105-2.959-0.431c-1.536-0.942-3.021-1.981-4.457-3.074
	c-1.156-0.881-2.247-1.828-3.709-2.095c-2.787,0.97-3.394,1.833-2.631,4.596c0.804,2.91,0.427,5.463-1.418,7.852
	c-0.64,0.829-1.331,1.306-2.419,1.291c-2.884-0.039-5.43,0.866-7.637,2.777c-2.394,2.073-5.207,2.094-8.022,1.22
	c-1.512-0.469-2.897-0.641-4.396-0.098c-0.615,0.223-1.3,0.329-1.957,0.349c-1.478,0.044-2.895-0.163-3.97-1.365
	c-0.316-0.355-0.719-0.636-1.194-1.05c-0.582,0.091-1.22,0.191-2.033,0.32c-0.205,0.603-0.461,1.193-0.604,1.808
	c-0.52,2.209-1.797,3.217-4.021,3.021c-1.019-0.09-2.04-0.254-3.035-0.49c-2.504-0.593-4.867-0.444-7.157,0.873
	c-3.145,1.808-6.158,1.136-9.018-0.753c-0.385-0.254-0.629-0.717-0.949-1.073c-0.597-0.66-1.202-1.312-1.74-1.899
	c-0.807,0-1.411,0.022-2.013-0.004c-1.989-0.086-3.448-1.034-4.296-2.826c-0.772-1.634-1.46-3.31-2.198-4.962
	c-0.288-0.646-0.613-1.276-0.992-2.062c-1.9,0.394-3.659,0.681-5.498-0.19c-1.8-0.852-2.612-2.656-4.214-3.728
	c-2.835-0.146-5.758,1.076-8.531-0.432c-0.471,0.86-0.729,1.806-1.348,2.329c-0.586,0.497-1.547,0.551-2.348,0.801
	c-0.058,0.098-0.166,0.198-0.169,0.302c-0.091,2.549-1.515,2.917-3.78,2.285c-1.844-0.514-3.209-1.859-4.583-3.141
	c-0.462-0.43-1.017-0.901-1.601-1.03c-1.685-0.373-3.094-0.98-3.724-2.759c-0.13-0.369-0.516-0.647-0.739-0.915
	c-2.229-0.223-4.362-0.437-6.396-0.641c-0.485,0.816-0.895,1.503-1.224,2.055c-0.893,0-1.487,0-2.136,0
	c-0.677,0.789-0.566,1.647-0.306,2.544c0.183,0.634,0.414,1.28,0.442,1.929c0.077,1.794-0.962,3.118-2.695,3.571
	c-0.577,0.151-1.161,0.279-1.921,0.46c-0.352,3.777-2.216,6.54-5.58,8.137c-2.756-0.354-3.938-1.485-4.361-4.102
	c-0.174-1.069-0.312-2.145-0.478-3.216c-0.196-1.265-0.886-2.236-1.894-2.975c-2.427-1.782-3.585-4.4-4.33-7.129
	c-0.562-2.063,0.293-4.062,1.516-5.789c0.523-0.737,1.279-1.121,2.262-1.314c1.398-0.275,2.726-0.919,3.962-1.362
	c0.69-0.74,1.295-1.387,1.956-2.096c0.374-1.224,0.07-2.429-0.525-3.584c-1.172-2.269-1.842-4.596-0.803-6.976
	c-2.062-3.363-2.017-3.803,0.18-5.615c0.703-1.386,1.354-2.404,1.743-3.514c0.413-1.173,0.758-2.427,0.796-3.657
	c0.046-1.468,0.511-2.661,1.674-3.424c2.721-1.785,5.516-3.458,8.292-5.16c0.249-0.152,0.569-0.187,0.984-0.316
	c0.585,0.241,1.247,0.512,1.996,0.82c1.74-3.534,4.377-6.265,7.832-8.204c1.206-0.677,1.995-1.649,2.479-2.981
	c0.343-0.945,0.928-1.84,1.563-2.631c0.65-0.811,1.57-1.458,2.668-1.252c1.414,0.264,2.854,0.583,4.157,1.162
	c1.132,0.503,1.577,1.717,1.394,2.923c-0.263,1.733,0.28,3.284,1.085,4.666c1.088,1.869,1.336,3.571-0.216,5.447
	c1.163,0.176,2.137,0.324,3.257,0.494c1.545-0.704,3.162-0.497,4.754,0.53c3.05-1.457,5.281,0.457,7.615,2.018
	c1.103-1.07,0.271-2.078,0.152-3.192c-1.978-0.725-2.794-2.246-2.881-4.32c-0.051-1.245,0.261-2.275,1.155-3.104
	c2.785-2.579,5.751-4.767,9.781-4.949c1.919-0.087,3.826-0.409,5.889-0.642c0.533,0.457,1.11,0.952,1.596,1.368
	c0.061,2.374-0.98,3.884-3.317,3.742c-4.09-0.249-6.39,2.328-8.867,4.765c-0.72,0.707-1.272,1.583-2.053,2.573
	c1.922,1.154,3.705,2.224,5.416,3.251c0.921-0.63,1.652-1.131,2.509-1.715c-0.055-0.698-0.114-1.465-0.171-2.213
	c1.506-1.872,3.392-2.392,5.573-1.612c0.556,0.199,1.166,0.239,1.916,0.384c0.333,0.382,0.764,0.878,1.154,1.328
	c0.095,0.604,0.18,1.131,0.308,1.938c0.701-0.236,1.286-0.432,1.965-0.66c-0.069-0.639-0.13-1.214-0.194-1.824
	c1.219-2.169,3.428-2.176,5.585-2.43c0.715-4.136,4.037-4.829,7.349-5.429c0.359-1.023,0.677-1.923,1-2.841
	c-0.631-0.523-1.256-1.042-1.895-1.57c0.135-0.694,0.244-1.26,0.38-1.954c-2.07,0.337-4.065,0.655-4.903-2.011
	c0.15-0.522,0.332-1.152,0.492-1.713c1.723-1.021,2.562-0.972,5.271,0.304c0.137,0.483,0.297,1.046,0.481,1.692
	c1.412-0.348,2.72-0.211,3.787,1.124c0.041,0.615,0.089,1.328,0.146,2.164c1.518,0.033,2.729,0.578,3.411,2.1
	c0.343,0.766,1.187,0.916,2.02,0.976c0.876,0.063,1.74,0.268,2.754,0.435c0.163,1.226,0.302,2.28,0.466,3.524
	c2.016-0.284,4.156-0.586,6.665-0.939c-0.177,0.136,0.01,0.056,0.098-0.086c1.535-2.459,3.71-2.19,6.039-1.107
	c0.756,0.351,1.459,0.812,2.086,1.166c0.682-0.82,1.281-1.542,1.809-2.177c0.855-0.08,1.502-0.142,2.313-0.218
	c-0.144-0.609-0.239-1.125-0.388-1.625c-0.806-2.708,0.478-4.726,3.214-4.594c0.979-0.689,1.903-1.339,2.717-1.913
	c0.744,0.133,1.275,0.228,1.757,0.314c1.727-0.352,2.471-1.749,3.306-2.97c0.837-1.224,1.917-2.06,3.325-2.314
	c0.848-0.153,1.765,0.066,2.734,0.124c1.492-1.839,1.656-4.708,4.209-5.779c-0.507-1.179-0.972-2.263-1.45-3.38
	c0.386-0.491,0.622-0.925,0.974-1.219c2.781-2.313,5.559-4.629,8.391-6.875c0.929-0.736,2.017-1.271,3.266-2.043
	c0.04-0.278,0.123-0.858,0.205-1.427c1.387-1.642,1.565-1.742,3.947-2.068c0.372,0.391,1.043,0.848,1.352,1.484
	c0.447,0.92,1.041,1.6,1.907,2.098c1.03,0.591,1.936,1.274,1.77,2.674c-0.175,1.462-0.983,2.432-2.301,3.006
	c-0.485,0.212-0.994,0.374-1.614,0.604c0.806,1.159,1.389,2.267,0.421,3.764c0.857-0.222,1.409-0.394,1.975-0.506
	c1.429-0.284,2.282,0.099,3.056,1.347c0.928,1.494,1.538,3.133,0.794,4.809c-0.869,1.955-0.341,3.702,0.504,5.372
	c0.829,1.637,1.166,3.113,0.062,4.753c-0.304,0.453-0.471,1.228-0.308,1.726c0.713,2.165,0.861,4.347,0.358,6.665
	c0.936,0.079,1.703,0.04,2.413,0.227c1.293,0.339,2.152,1.309,2.884,2.365c0.894,1.291,1.752,2.606,2.604,3.925
	c0.893,1.384,1.092,2.905,0.768,4.559c1.041,1.22,1.992,2.431,2.415,4.118c0.298,1.19,1.523,2.144,1.336,3.584
	c-1.309,1.353-2.961,1.677-4.574,0.726c-3.479-2.052-6.955-4.12-10.354-6.301c-2.979-1.913-3.911-4.844-2.972-8.938
	c-0.181-0.461-0.42-1.066-0.675-1.712c-0.851,0-1.611,0-2.398,0c-0.159,1.206,0.257,2.139,0.786,3.118
	c0.501,0.928,0.903,1.989,1.018,3.028c0.235,2.115-0.72,3.347-2.817,4.136c-0.764,1.3-1.384,2.614-2.252,3.737
	c-0.56,0.724-1.406,1.397-2.261,1.685c-1.68,0.566-2.429,1.722-2.633,3.322c-0.128,1.011-0.141,2.049-0.076,3.067
	c0.071,1.118,0.088,2.179-0.637,2.859c-0.269,2.474-0.513,4.734-0.782,7.226c0.64-0.042,1.115-0.073,1.654-0.108
	C163.696,124.848,166.399,125.463,168.462,125.059z"/>
<path class="stroke" fill="#3b4954"  fill-rule="evenodd" clip-rule="evenodd" d="M134.604,67.246c-0.681,0.059-1.27,0.16-1.859,0.153
	c-4.59-0.059-9.18-0.135-13.77-0.213c-3.319-0.055-6.648,0.018-9.955-0.215c-3.741-0.264-7.458-0.253-11.207-0.201
	c-4.44,0.063-8.891-0.619-13.338-0.956c-3.125-0.236-6.253-0.435-9.38-0.654c-0.823-0.058-1.645-0.133-2.396-0.194
	c-0.993-2.228-0.769-4.333-0.611-6.429c0.181-2.407,0.38-4.813,0.574-7.219c0.262-3.248,0.545-6.494,0.786-9.742
	c0.28-3.79,0.484-7.585,0.799-11.372c0.159-1.918,0.462-3.826,0.757-5.729c0.068-0.445,0.365-0.855,0.552-1.27
	c1.568,0,3.02-0.113,4.449,0.021c5.283,0.495,10.557,1.087,15.837,1.604c1.32,0.129,2.657,0.079,3.981,0.171
	c4.396,0.308,8.787,0.678,13.186,0.957c3.485,0.22,6.98,0.289,10.465,0.523c2.887,0.194,5.765,0.512,8.644,0.812
	c1.678,0.175,3.348,0.422,4.915,0.622c0.867,0.572,0.921,1.26,0.823,2.121c-0.394,3.417-0.717,6.841-1.042,10.265
	c-0.302,3.183-0.605,6.367-0.849,9.555c-0.336,4.394-0.604,8.792-0.927,13.187C134.938,64.415,134.758,65.781,134.604,67.246z"/>
<path class="stroke" fill="#3b4954"  fill-rule="evenodd" clip-rule="evenodd" d="M132.725,80.373c2.373-1.681,2.373-1.681,4.149-1.95
	c0.396,0.481,0.869,1.056,1.324,1.608c-0.756,3.973-3.913,5.432-6.725,7.253c-1.616-0.258-3.098-0.655-3.746-2.354
	C128.662,81.826,130.543,80.089,132.725,80.373z"/>
<path class="stroke" fill="#3b4954"  fill-rule="evenodd" clip-rule="evenodd" d="M78.809,77.753c-1.859-0.903-1.859-0.903-1.592-2.396
	c0.894-0.312,1.841-0.642,2.646-0.922c1.292,0.359,1.018,1.335,1.109,2.15c1.153,0.389,1.951-0.387,2.874-0.788
	c0.813,0.146,1.639,0.295,2.546,0.458c0.519,0.379,1.094,0.801,1.604,1.175c0.697,2.286-0.833,3.937-3.365,4.354
	C81.803,82.25,79.615,80.839,78.809,77.753z"/>
<path fill-rule="evenodd" clip-rule="evenodd" fill="#e5f3a5" class="fill" d="M106.105,93.79c0.219-1.644,1.202-2.871,2.702-3.967
	c0.381,0.734,0.723,1.391,1.019,1.961c1.536,0.412,2.964,0.796,4.637,1.245c-0.337,0.946-0.573,1.658-0.843,2.357
	c-0.28,0.729-0.658,1.426-0.873,2.172c-0.25,0.875-0.045,1.658,0.897,2.258c1.713-0.693,2.939-2.783,5.087-1.819
	c1.124-1.222,2.257-1.566,3.732-1.233c0.794,0.179,1.711-0.187,2.445-0.289c0.321-0.715,0.517-1.152,0.751-1.675
	c0.371-0.157,0.806-0.341,1.198-0.508c0.979,0.34,1.886,0.654,2.974,1.032c0.25,0.451,0.54,1.042,0.892,1.592
	c0.804,1.253,2.409,1.205,3.041-0.146c0.35-0.747,0.451-1.608,0.695-2.538c0.412-0.083,0.873-0.183,1.338-0.264
	c0.414-0.073,0.831-0.123,1.235-0.182c1.123-1.102,0.885-2.278,0.378-3.528c-0.61-1.504-0.505-1.715,1.006-2.603
	c0.505,0.192,1.059,0.402,1.551,0.589c1.265-0.07,1.191-1.299,2.063-2.149c0.625,0.032,1.487,0.077,2.559,0.133
	c1.427-0.772,2.783-1.886,3.789-3.478c0.489-0.774,1.31-1.34,1.828-1.851c1.345,0.184,2.391,0.326,3.574,0.487
	c0.893-1.815,1.656-3.504,2.559-5.115c0.285-0.51,0.901-0.887,1.444-1.183c0.335-0.182,0.817-0.097,1.264-0.134
	c0.862-1.797-0.137-3.017-1.262-4.247c0.472-1.114,1.26-1.904,2.138-2.651c2.019-1.715,3.971-3.512,6.027-5.179
	c0.674-0.546,1.572-0.839,2.402-1.162c0.659-0.256,1.368-0.381,2.277-0.624c-0.205-0.759-0.37-1.367-0.602-2.226
	c0.434-0.321,0.94-0.695,1.66-1.226c0.386,0.881,0.642,1.468,0.932,2.131c0.583,0.487,1.224,1.021,1.766,1.473
	c0.244,0.943-0.052,1.611-0.805,1.685c-1.645,0.161-2.358,1.542-3.475,2.303c-0.395,1.391,0.585,2.047,1.353,2.838
	c-0.242,0.954-0.484,1.908-0.716,2.815c1.278,1.062,2.412,1.234,3.659,0.45c0.66-0.414,1.329-0.879,2.268-0.489
	c0.937,0.931,1.092,2.068,0.399,3.237c-0.979,1.648-0.738,3.224,0.048,4.832c0.291,0.596,0.559,1.209,0.771,1.837
	c0.478,1.417,0.668,2.814-0.356,4.122c-0.652,0.834-0.538,1.805-0.409,2.782c0.164,1.247,0.397,2.506,0.362,3.753
	c-0.054,2.009,0.738,3.481,2.441,4.677c0.342,0,0.762,0.001,1.182,0c1.149-0.005,1.9,0.56,2.449,1.555
	c0.695,1.262,1.53,2.447,2.208,3.718c0.327,0.612,0.505,1.332,0.614,2.024c0.102,0.642,0.021,1.312,0.021,1.892
	c1.229,1.236,2.202,2.395,2.396,4.1c0.08,0.716,0.771,1.363,1.186,2.041c-0.099,0.108-0.196,0.215-0.295,0.323
	c-0.391-0.183-0.841-0.293-1.161-0.56c-1.873-1.552-3.965-2.611-6.22-3.567c-2.63-1.113-4.743-3.124-5.578-6.061
	c-0.174-0.608-0.216-1.371-0.005-1.95c0.592-1.628,0.163-2.947-0.895-4.183c-0.194-0.227-0.33-0.504-0.47-0.724
	c-0.576-4.834-0.962-6.05-2.536-7.891c-0.433-0.095-0.954-0.208-1.404-0.306c-1.035,0.513-1.142,1.321-0.878,2.198
	c0.241,0.805,0.641,1.562,0.882,2.368c0.194,0.648,0.255,1.336,0.409,2.202c-0.883-0.088-1.461-0.146-2.039-0.203
	c-1.359,0.98-1.359,0.98-1.05,5.644c0.672,1.422,2.313,2.54,1.643,4.539c-0.713,0.197-1.395,0.385-2.259,0.624
	c-0.297,0.789-0.64,1.611-0.918,2.455c-0.496,1.498-1.241,2.512-2.928,3.09c-2.826,0.967-3.99,3.452-3.747,6.715
	c0.105,1.414,0.18,2.684-0.507,4.016c-0.382,0.743-0.414,1.771-0.308,2.636c0.172,1.405,0.093,2.752-0.217,4.118
	c-0.45,1.995-0.255,2.514,1.487,4.085c1.381-0.198,2.891-0.415,4.64-0.665c0.181-0.71,0.397-1.556,0.645-2.527
	c0.721,0,1.469,0,2.118,0c3.402,3.296,5.748,6.965,6.551,11.565c0.352,2.008,1.265,3.924,1.548,5.935
	c0.364,2.604,0.842,5.238,0.238,7.91c-0.242,1.074-0.603,1.91-1.576,2.486c-0.719,0.425-1.361,0.98-2.136,1.548
	c-0.74-0.414-1.459-0.816-2.063-1.154c-0.689-2.019,1.082-2.116,2.084-3.004c-0.08-0.545-0.114-1.195-0.274-1.812
	c-0.358-1.396-0.743-2.788-1.191-4.157c-0.241-0.736-0.562-1.469-0.979-2.119c-0.606-0.948-0.84-0.987-2.453-0.901
	c-0.707,1.407-1.448,2.883-2.292,4.564c-0.795-0.489-1.453-0.778-1.965-1.232c-1.193-1.059-2.342-1.39-3.948-0.716
	c-2.387,1.001-4.113-0.595-5.78-1.995c-0.827-0.695-1.509-1.569-2.36-2.231c-2.217-1.727-3.729-1.754-5.945-0.242
	c-2.225,1.519-3.25,3.75-2.223,6.086c0.915,2.081,0,3.77-0.458,5.575c-0.251,0.984-1.27,1.303-2.192,1.316
	c-3.01,0.044-5.447,1.264-7.6,3.301c-1.164,1.103-2.624,1.453-4.211,0.898c-0.568-0.199-1.162-0.35-1.703-0.609
	c-1.748-0.84-3.484-0.84-5.242-0.052c-0.33,0.148-0.672,0.288-1.021,0.372c-1.378,0.333-2.647,0.2-3.621-0.971
	c-0.424-0.511-0.811-1.054-1.138-1.484c-1.9,0.31-3.433,0.56-4.644,0.758c-1.708,1.333-0.648,3.798-2.618,4.625
	c-2.016-0.324-3.98-0.594-5.929-0.966c-1.902-0.365-3.527-0.075-4.959,1.366c-1.66,1.669-4.817,1.638-6.578,0.028
	c-0.979-0.894-1.913-1.836-2.846-2.778c-0.914-0.924-1.883-1.438-3.241-0.908c-0.581,0.226-1.277,0.155-1.983,0.224
	c-1.452-2.145-2.558-4.341-3.514-6.617c-0.257-0.611-0.419-1.272-0.75-1.837c-1.007-1.721-1.852-2.01-3.752-1.398
	c-2.165,0.697-3.355,0.213-4.348-1.921c-0.562-1.206-1.26-2.192-2.333-2.534c-2.514,0.112-4.782,0.271-7.052,0.288
	c-0.885,0.007-1.772-0.306-2.659-0.47c-1.013-0.188-2.02-0.321-2.903,0.247c-0.17,0.931-0.323,1.765-0.459,2.507
	c-1.098,0.225-1.908,0.39-2.756,0.563c-0.138,0.918-0.257,1.71-0.375,2.495c-2.129-0.244-2.468-0.464-5.702-3.616
	c-0.632-0.193-1.272-0.367-1.894-0.59c-0.335-0.12-0.638-0.326-0.957-0.494c-0.218-0.46-0.406-0.904-0.63-1.329
	c-0.829-1.58-2.246-2.291-4.03-2.139c-0.82,0.07-1.756,0.23-2.458-0.071c-2.237-0.956-4.007-0.687-5.21,1.512
	c-0.653,0-1.19,0-1.711,0c-1.193,0.671-1.767,1.655-1.746,2.981c0.018,1.083,0.022,2.168,0.084,3.25
	c0.095,1.652-0.293,2.367-1.848,2.528c-2.237,0.231-3.261,1.484-3.7,3.555c-0.222,1.046-0.652,2.066-1.121,3.034
	c-0.311,0.641-0.82,1.236-1.999,0.847c-0.201-0.689-0.493-1.521-0.681-2.377c-0.166-0.763-0.163-1.563-0.333-2.325
	c-0.415-1.861-1.104-3.558-2.768-4.721c-2.208-1.545-3.07-3.95-3.873-6.368c-0.407-1.224,0.146-2.22,0.881-3.37
	c0.672,0.158,1.344,0.316,2.269,0.533c0.54-0.481,1.193-1.062,1.938-1.724c0.559,0.03,1.21,0.065,2.028,0.11
	c0.389-0.596,0.805-1.236,1.291-1.982c0.58-0.543,1.267-1.186,1.876-1.755c-0.194-2.331-0.354-4.417-1.61-6.263
	c-0.711-1.045-0.77-2.3-0.45-3.502c0.409-1.542,0.525-2.953-0.775-4.191c-0.245-0.234-0.161-0.814-0.244-1.324
	c0.819-0.128,1.398-0.219,1.928-0.301c0.137-0.12,0.282-0.183,0.311-0.28c0.513-1.782,0.893-3.603,1.952-5.192
	c0.234-0.352,0.257-0.968,0.146-1.405c-0.601-2.392,0.668-4.046,2.337-5.301c1.524-1.148,3.332-1.927,5.042-2.817
	c0.278-0.145,0.696-0.02,1.07-0.02c0.534,0.795,1.061,1.577,1.584,2.354c0.66,0,1.189,0,1.669,0c0.19-0.178,0.383-0.276,0.442-0.428
	c0.486-1.229,1.188-2.435,1.353-3.709c0.192-1.479,0.895-2.479,1.977-3.295c1.349-1.018,2.756-1.96,4.145-2.922
	c1.421-0.984,2.575-2.133,3.011-3.908c0.303-1.229,1.14-2.135,2.31-2.64c1.089-0.47,2.123-0.304,3.102,0.566
	c0,0.361,0.028,0.774-0.006,1.182c-0.109,1.364,0.207,2.584,0.873,3.805c0.825,1.512,0.707,3.108-0.138,4.727
	c-1.237,0-2.421,0-3.484,0c-0.896-0.718-1.091-1.979-2.311-2.095c-2.579,2.266-3.068,4.935-1.088,6.354
	c0.547-0.497,1.107-1.008,1.737-1.581c0.519,0.681,0.979,1.285,1.529,2.008c0.477-0.283,0.844-0.606,1.269-0.729
	c0.669-0.194,1.427-0.475,2.056-0.329c2.185,0.507,2.169,0.571,4.01,0.045c0.697,0.449,1.431,0.922,2.181,1.404
	c0.651-0.487,1.169-0.873,1.755-1.312c1.061,0.404,2.115,0.808,3.178,1.213c0.528-0.284,0.999-0.537,1.702-0.915
	c2.102,1.041,4.322,2.141,6.648,3.293c0.598-0.805,1.086-1.463,1.672-2.251c1.45,0.132,2.705,0.709,3.336,2.326
	c0.217,0.555,0.522,1.116,0.925,1.543c0.358,0.378,0.907,0.576,1.297,0.807c1.767-1.413-0.063-3.251,1.11-4.698
	c0.383-0.211,0.904-0.5,1.575-0.871c0.039-0.868,0.083-1.815,0.134-2.931c0.676-0.367,1.395-0.758,2.148-1.167
	c1.256,1.157,0.348,3.231,2.059,4.199c0.084-0.965,0.153-1.776,0.242-2.805c1.209,1.15-0.099,3.324,2.353,3.959
	c0.231-0.35,0.594-0.894,1.008-1.514c0.491,0,1.001,0,1.482,0c0.953,1.371,0.077,3.52,2.313,4.34
	c0.33-2.521,0.092-4.866-1.049-7.105c0.696-1.247,1.752-1.544,3.065-1.484c0.921,0.043,1.854-0.145,2.664-0.218
	c0.184-0.418,0.31-0.577,0.319-0.745c0.185-2.815,2.104-3.894,4.498-4.422C103.938,95.034,105.08,94.901,106.105,93.79z"/>
<path fill-rule="evenodd" clip-rule="evenodd" fill="#e5f3a5" class="fill" d="M178.929,132.969c1.858,1.609,3.469,3.005,5.063,4.386
	c-0.209,0.349-0.274,0.527-0.397,0.641s-0.306,0.164-0.481,0.251c-0.159-0.108-0.38-0.174-0.434-0.308
	c-0.474-1.178-1.351-1.879-2.43-2.538c-1.057-0.646-1.931-1.623-2.796-2.54c-1.899-2.015-3.738-4.087-5.613-6.126
	c-0.611-0.667-1.341-1.286-0.438-2.383c1.447,1.353,2.744,2.792,4.27,3.924c1.482,1.101,3.199,1.887,4.926,2.875
	C180.028,131.772,179.573,132.268,178.929,132.969z"/>
<path fill-rule="evenodd" clip-rule="evenodd" fill="#e5f3a5" class="fill" d="M70.116,99.965c-0.39-0.708-0.636-1.153-0.836-1.519
	c2.535-4.804,9.848-7.599,14.521-6.916c-0.463,0.919-1.308,0.991-2.092,1.019c-3.816,0.136-6.736,2.067-9.32,4.635
	C71.604,97.963,70.977,98.901,70.116,99.965z"/>
<path fill-rule="evenodd" clip-rule="evenodd" fill="#e5f3a5" class="fill" d="M99.828,85.034c0.857-1.496,1.059-1.518,2.429-0.52
	C101.55,85.301,100.746,84.681,99.828,85.034z"/>
<path fill-rule="evenodd" clip-rule="evenodd" fill="#e5f3a5" class="fill" d="M104.901,87.684c0.224-0.322,0.446-0.644,0.67-0.966
	c0.08,0.047,0.159,0.094,0.238,0.14c-0.173,0.343-0.347,0.686-0.52,1.028C105.16,87.819,105.031,87.751,104.901,87.684z"/>
<path fill-rule="evenodd" clip-rule="evenodd" fill="#196FD2" d="M134.117,41.923c-0.4,3.997-0.792,7.935-1.201,12.018
	c-0.618,0-1.148,0.031-1.676-0.005c-5.107-0.353-10.23-0.416-15.304-1.287c-2.784-0.478-5.639-0.541-8.462-0.795
	c-6.599-0.595-13.195-1.23-19.798-1.773c-3.241-0.266-6.496-0.358-9.744-0.542c-0.714-0.04-1.426-0.135-2.327-0.223
	c0.216-3.808,0.426-7.501,0.645-11.349C95.64,38.746,114.776,40.347,134.117,41.923z"/>
<path fill-rule="evenodd" clip-rule="evenodd" fill="#FF563F" d="M74.565,62.346c0.244-3.77,0.483-7.479,0.719-11.122
	c2.734,0,5.207-0.165,7.651,0.029c8.851,0.701,17.694,1.5,26.535,2.311c2.946,0.271,5.869,0.783,8.816,1.023
	c4.152,0.338,8.317,0.525,12.476,0.779c0.645,0.039,1.289,0.091,2.04,0.145c-0.267,3.177-0.518,6.163-0.785,9.345
	c-1.284,0.117-2.588,0.343-3.891,0.335c-3.137-0.018-6.274-0.16-9.412-0.221c-0.842-0.017-1.687,0.133-2.526,0.105
	c-2.532-0.084-5.064-0.212-7.595-0.334c-4.582-0.221-9.164-0.427-13.744-0.681c-4.52-0.25-9.04-0.535-13.556-0.837
	c-1.804-0.121-3.601-0.318-5.398-0.51C75.491,62.67,75.104,62.499,74.565,62.346z"/>
<path fill-rule="evenodd" clip-rule="evenodd" fill="#FEFEFE" d="M135.312,29.491c-0.318,3.607-0.624,7.061-0.928,10.514
	c-0.42,0.094-0.651,0.198-0.876,0.188c-3.438-0.155-6.899-0.117-10.306-0.525c-15.506-1.857-31.14-2.024-46.948-3.416
	c0.408-3.586,0.787-6.915,1.194-10.473c1.089,0,2.039-0.062,2.978,0.011c7.036,0.543,14.068,1.131,21.104,1.67
	c3.789,0.29,7.58,0.575,11.375,0.749c4.155,0.191,8.317,0.222,12.475,0.384c1.746,0.068,3.487,0.292,5.229,0.451
	C132.149,29.186,133.692,29.337,135.312,29.491z"/>
<path fill-rule="evenodd" clip-rule="evenodd" fill="#e5f3a5" class="fill" d="M129.876,84.759c0.756-1.024,1.314-1.781,1.903-2.58
	c0.771-0.038,1.48-0.073,2.317-0.115c-0.921,1.104-1.74,2.086-2.664,3.193C131.084,85.146,130.661,85.01,129.876,84.759z"/>
<path fill-rule="evenodd" clip-rule="evenodd" fill="#e5f3a5" class="fill" d="M135.291,81.457c0.192-0.229,0.383-0.457,0.573-0.686
	c0.08,0.055,0.16,0.109,0.24,0.164c-0.163,0.251-0.326,0.503-0.488,0.755C135.508,81.613,135.399,81.535,135.291,81.457z"/>
<path fill-rule="evenodd" clip-rule="evenodd" fill="#e5f3a5" class="fill" d="M86.35,78.756c-1.569,1.391-3.22,1.522-5.218,0.38
	c0.696-0.167,1.261-0.304,1.859-0.449C84.605,77.237,85.11,77.228,86.35,78.756z"/>
</svg>
