<svg version="1.1" id="svg" xmlns="http://www.w3.org/2000/svg" xmlns:xlink="http://www.w3.org/1999/xlink" x="0px" y="0px"
	 width="200px" height="200px" viewBox="0 0 200 200" enable-background="new 0 0 200 200" xml:space="preserve">
<path class="stroke" fill="#561906"  fill-rule="evenodd" clip-rule="evenodd" d="M118.006,161.692c-4.55,1.97-13.898,2.058-25.039,0.272
	c-0.365-1.05-0.458-2.193-0.363-3.317c0.423-5.041,0.842-10.095,2.029-15.025c0.673-2.793,2.264-5.153,4.292-7.165
	c0.621-0.616,1.517-0.957,2.492-1.548c0-2.434,0-5.036,0-7.548c-5.496-2.324-9.128-6.215-10.304-12.188
	c-0.742-3.769-1.047-7.573-0.534-11.398c0.693-5.153,1.473-10.296,2.148-15.451c0.385-2.943,0.323-5.907,0.033-8.861
	c-0.031-0.32-0.188-0.63-0.312-1.031c-0.707-0.126-1.4-0.299-2.104-0.367c-5.661-0.55-11.058-2.23-16.32-4.218
	c-3.331-1.257-6.462-3.136-9.222-5.45c-1.714-1.438-2.778-3.42-3.255-5.608c-0.28-1.292-0.343-2.658-0.304-3.982
	c0.048-1.603,0.516-3.081,1.875-4.158c0.589-0.466,1.044-1.1,1.655-1.762c-0.644-2.408-0.444-4.966-0.145-7.525
	c0.166-1.398,0.776-2.635,1.865-3.436c3.584-2.635,6.559-3.067,10.679-0.937c1.776,0.92,3.321,2.206,4.761,3.642
	c2.433,2.426,4.965,4.755,7.519,7.055c1.549,1.394,3.486,2.118,5.43,2.806c4.881,1.725,9.948,1.69,15.015,1.62
	c4.437-0.062,8.533-1.398,12.4-3.514c1.546-0.845,3.103-1.671,4.654-2.506c2.871-1.547,6.735-0.527,8.246,2.736
	c0.59,1.271,1.162,2.504,1.155,3.941c-0.002,0.365,0.202,0.728,0.29,1.097c0.508,2.129,1.005,4.262,1.513,6.391
	c0.254,1.065,0.569,2.119,0.781,3.192c1.086,5.477,1.113,11.027,0.86,16.562c-0.168,3.659-0.707,7.31-1.232,10.941
	c-0.383,2.638-0.857,5.283-1.563,7.851c-1.446,5.263-3.847,10.095-7.396,14.264c-2.293,2.695-4.847,5.162-7.844,7.105
	c-3.11,2.017-6.562,3.062-10.223,3.445c-1.223,0.129-2.46,0.124-3.814,0.186c-0.318,2.301-0.473,4.649-0.337,6.973
	c1.314,0.489,2.526,0.898,3.703,1.39c1.488,0.623,2.598,1.677,3.569,2.986c2.422,3.269,3.091,7.062,3.348,10.938
	c0.224,3.376,0.157,6.771,0.193,10.16C118.205,160.753,118.066,161.261,118.006,161.692z M111.525,156.678
	c0.055-0.182,0.187-0.406,0.182-0.628c-0.076-3.143,0.303-6.293-0.462-9.423c-0.404-1.652-1.14-3.118-1.81-4.642
	c-0.506-1.148-1.251-1.891-2.036-2.034c-1.689,0.252-2.94,0.44-4.404,0.659c-0.723,0.617-1.574,1.924-1.863,3.34
	c-0.621,3.036-1.205,6.081-1.714,9.138c-0.239,1.438-0.268,2.91-0.387,4.294C101.318,158.332,108.741,157.867,111.525,156.678z"/>
<path fill-rule="evenodd" clip-rule="evenodd" fill="#bf7512" class="fill" d="M121.844,87.277c0.135-2.096,0.184-4.2,0.428-6.283
	c0.228-1.947,0.742-3.858,1.715-5.582c1.116-1.979,2.844-3.094,5.101-3.526c2.308-0.443,4.225,0.139,5.951,1.676
	c1.323,1.177,1.883,2.732,2.313,4.348c0.193,0.729,0.236,1.514,0.247,2.274c0.071,4.448-0.081,8.883-1.003,13.259
	c-0.551,2.612-0.9,5.284-1.664,7.832c-1.289,4.298-2.794,8.535-5.555,12.182c-0.459,0.604-0.885,1.234-1.316,1.861
	c-1.069,1.551-2.595,2.416-4.409,2.642c-1.547,0.191-3.153,0.368-4.68,0.157c-2.339-0.322-3.678-2.499-3.225-4.838
	c0.163-0.841,0.382-1.683,0.685-2.481c0.944-2.502,1.945-4.981,2.915-7.474c1.205-3.094,1.878-6.308,2.135-9.612
	c0.167-2.142,0.336-4.282,0.503-6.425C121.938,87.283,121.891,87.28,121.844,87.277z"/>
<path fill-rule="evenodd" clip-rule="evenodd" fill="#bf7512" class="fill" d="M110.971,71.623c2.937-0.407,5.494-0.701,8.027-1.133
	c2.22-0.376,4.349-1.079,6.301-2.248c0.738-0.441,1.486-0.867,2.246-1.268c2.121-1.118,3.686-2.856,5.168-4.668
	c0.448-0.546,0.725-1.231,1.077-1.852c0.225-0.394,0.447-0.788,0.841-1.158c1.569,4.166,2.22,8.453,2.576,13.141
	c-0.801-0.545-1.405-0.895-1.936-1.33c-3.506-2.873-9.284-2.115-12.081,1.144c-1.296,1.51-1.979,3.356-2.575,5.231
	c-1.029,3.231-1.188,6.566-1.138,9.916c0.044,3.02-0.054,6.019-0.763,8.971c-0.479,1.992-0.937,3.975-1.645,5.918
	c-1.092,2.998-1.92,6.093-2.838,9.153c-0.512,1.71-0.27,3.427,0.275,5.059c0.67,2.006,2.283,3.094,4.224,3.698
	c0.629,0.194,1.317,0.198,2.19,0.317c-0.846,0.953-1.757,1.652-2.773,2.008c-2.604,0.912-5.188,1.958-7.99,2.141
	c-0.742,0.05-1.489,0.009-2.285,0.009C108.351,106.779,109.436,89.135,110.971,71.623z"/>
<path fill-rule="evenodd" clip-rule="evenodd" fill="#bf7512" class="fill" d="M101.709,124.17c-0.798-0.36-1.445-0.54-1.963-0.906
	c-2.679-1.887-4.697-4.227-5.605-7.513c-0.792-2.863-0.72-5.747-0.831-8.648c-0.115-2.991,0.575-5.871,0.987-8.794
	c0.85-6.008,1.562-12.026,0.785-18.11c-0.45-3.525-1.271-6.942-2.787-10.175c-0.19-0.403-0.325-0.832-0.526-1.358
	c4.42,0.855,8.613,1.667,13.006,2.518c-0.145,1.03-0.339,2.09-0.438,3.159c-0.213,2.326-0.416,4.656-0.555,6.989
	c-0.222,3.714-0.396,7.43-0.573,11.146c-0.203,4.291-0.394,8.583-0.575,12.873c-0.175,4.148-0.316,8.299-0.507,12.446
	C102.033,119.835,101.862,121.871,101.709,124.17z"/>
<path fill-rule="evenodd" clip-rule="evenodd" fill="#bf7512" class="fill" d="M67.189,49.757c0.488,0.517,0.805,0.846,1.117,1.181
	c3.953,4.244,8.766,7.148,14.126,9.284c3.797,1.513,7.744,2,11.76,2.255c2.094,0.133,4.188,0.302,6.283,0.396
	c3.433,0.153,6.775-0.458,9.977-1.607c3.364-1.21,6.682-2.574,9.934-4.061c2.161-0.988,4.152-2.339,6.253-3.467
	c0.919-0.495,1.914-0.853,2.886-1.247c2.479-1.008,4.484,1.73,3.898,3.526c-0.237,0.726-0.372,1.512-0.74,2.165
	c-1.842,3.266-4.253,5.915-7.72,7.612c-2.518,1.232-5.106,2.155-7.828,2.659c-1.766,0.327-3.596,0.401-5.398,0.416
	c-2.099,0.016-4.211-0.054-6.298-0.268c-8.172-0.84-16.025-3.004-23.662-5.963c-4.11-1.593-8.035-3.546-11.378-6.499
	c-1.604-1.415-2.879-3.041-3.271-5.211C67.074,50.634,67.155,50.314,67.189,49.757z"/>
<path fill-rule="evenodd" clip-rule="evenodd" fill="#bf7512" class="fill" d="M105.82,59.975c-0.402,0.07-0.802,0.188-1.205,0.206
	c-4.148,0.174-8.31,0.396-12.429-0.261c-2.622-0.418-5.248-0.855-7.766-1.847c-3.418-1.345-6.895-2.54-10.039-4.481
	c-2.01-1.241-3.774-2.812-5.169-4.695c-1.274-1.723-1.188-3.495-0.177-5.245c0.837-1.449,2.532-1.955,4.423-1.447
	c1.294,0.349,2.309,1.135,3.19,2.094c1.035,1.124,1.954,2.362,3.05,3.419c1.506,1.453,3.042,2.906,4.729,4.135
	c2.194,1.597,4.438,3.207,6.865,4.388c3.168,1.54,6.526,2.713,10.087,3.087c1.466,0.153,2.938,0.264,4.405,0.394
	C105.797,59.805,105.809,59.889,105.82,59.975z"/>
<path fill-rule="evenodd" clip-rule="evenodd" fill="#bf7512" class="fill" d="M95.09,160.229c0-1.658-0.114-3.096,0.021-4.509
	c0.305-3.178,0.623-6.361,1.143-9.51c0.456-2.765,1.578-5.304,3.514-7.401c0.434-0.47,0.981-0.834,1.641-1.384
	c0.19,0.618,0.309,0.996,0.424,1.371c-2.243,2.039-2.979,4.746-3.526,7.447c-0.645,3.176-1.001,6.411-1.433,9.627
	c-0.106,0.797-0.017,1.62-0.017,2.337c0.38,0.841,1.055,1.115,1.774,1.175c2.61,0.219,5.229,0.539,7.841,0.514
	c2.081-0.021,4.159-0.475,6.233-0.768c0.456-0.064,0.893-0.261,1.479-0.439c0-1.823,0.104-3.582-0.026-5.322
	c-0.181-2.425-0.504-4.839-0.831-7.248c-0.311-2.298-1.508-4.209-2.877-6.001c-0.352-0.459-0.98-0.729-1.516-1.023
	c-0.493-0.271-1.031-0.46-1.602-0.71c0.056-0.497,0.102-0.902,0.159-1.396c2.657,0.421,4.532,1.831,6.01,3.872
	c1.6,2.21,1.996,4.858,2.462,7.413c0.652,3.567,0.812,7.203,0.631,10.841c-0.009,0.186-0.07,0.37-0.147,0.764
	c-0.656,0.251-1.38,0.586-2.139,0.805c-2.506,0.723-5.1,0.692-7.671,0.772c-3.344,0.104-6.685,0.012-9.974-0.694
	C96.086,160.639,95.538,160.386,95.09,160.229z"/>
<path fill-rule="evenodd" clip-rule="evenodd" fill="#bf7512" class="fill" d="M107.188,71.395c0.465,0.058,0.863,0.106,1.253,0.153
	c-0.073,1.879-0.13,3.635-0.212,5.39c-0.156,3.338-0.303,6.678-0.497,10.014c-0.32,5.482-0.701,10.961-1.008,16.445
	c-0.199,3.529-0.307,7.065-0.469,10.598c-0.233,5.105-0.509,10.21-0.707,15.316c-0.084,2.192-0.018,4.391-0.02,6.585
	c0,0.753,0,1.506,0,2.379c-0.628,0.072-1.063,0.123-1.732,0.2c-0.06-1.537-0.181-2.904-0.153-4.27
	c0.089-4.487,0.161-8.979,0.37-13.461c0.274-5.914,0.699-11.82,1.011-17.732c0.257-4.867,0.457-9.736,0.655-14.605
	c0.213-5.248,0.342-10.501,1.156-15.703C106.899,72.289,107.052,71.889,107.188,71.395z"/>
<path fill-rule="evenodd" clip-rule="evenodd" fill="#bf7512" class="fill" d="M74.715,62.645c0.326,0.095,0.575,0.168,0.72,0.21
	c-0.615,2.485-1.213,4.898-1.827,7.38c-0.246-0.077-0.547-0.172-0.963-0.304C72.78,67.385,73.106,64.942,74.715,62.645z"/>
<path fill-rule="evenodd" clip-rule="evenodd" fill="#bf7512" class="fill" d="M79.238,72.322c0.194-2.619,0.552-5.031,2.231-7.063
	c0.304,1.237-0.305,2.358-0.386,3.538c-0.085,1.22-0.324,2.428-0.518,3.802C80.074,72.496,79.699,72.418,79.238,72.322z"/>
<path fill-rule="evenodd" clip-rule="evenodd" fill="#bf7512" class="fill" d="M84.551,73.912c-0.518-0.17-0.815-0.268-1.221-0.4
	c-0.061-2.506,0.329-4.852,1.352-7.047c0.203,0.039,0.407,0.077,0.611,0.116C85.05,68.984,84.807,71.387,84.551,73.912z"/>
<path fill-rule="evenodd" clip-rule="evenodd" fill="#bf7512" class="fill" d="M70.971,60.094c0.251,0.126,0.444,0.222,0.559,0.279
	c-0.742,2.424-1.46,4.765-2.198,7.172c-0.246-0.159-0.515-0.332-0.801-0.517C68.512,64.416,69.28,62.136,70.971,60.094z"/>
<path fill-rule="evenodd" clip-rule="evenodd" fill="#bf7512" class="fill" d="M72.865,61.306c0.295,0.201,0.483,0.328,0.812,0.551
	c-1.41,2.187-1.767,4.663-1.983,7.183c-1.041-0.094-1.162-0.664-1.068-1.321C70.938,65.492,71.449,63.331,72.865,61.306z"/>
<path fill-rule="evenodd" clip-rule="evenodd" fill="#bf7512" class="fill" d="M75.812,71.072c-0.195-0.09-0.439-0.205-0.78-0.363
	c-0.149-2.515,0.513-4.839,1.724-7.145c0.283,0.039,0.574,0.077,0.789,0.105C76.967,66.139,76.41,68.519,75.812,71.072z"/>
<path fill-rule="evenodd" clip-rule="evenodd" fill="#bf7512" class="fill" d="M78.111,71.823c-0.345-0.09-0.594-0.155-0.819-0.214
	c-0.244-2.242,0.45-5.144,1.718-7.175c0.148,0.016,0.336,0.009,0.504,0.062c0.122,0.039,0.219,0.159,0.408,0.309
	C78.707,66.941,78.438,69.338,78.111,71.823z"/>
<path fill-rule="evenodd" clip-rule="evenodd" fill="#bf7512" class="fill" d="M66.99,65.972c-0.175-0.38-0.549-0.793-0.492-1.135
	c0.346-2.046,1.045-3.965,2.47-5.537c0.151-0.167,0.455-0.199,0.906-0.103c-0.555,1.063-1.215,2.086-1.635,3.2
	c-0.413,1.099-0.583,2.29-0.86,3.439C67.25,65.882,67.119,65.928,66.99,65.972z"/>
<path fill-rule="evenodd" clip-rule="evenodd" fill="#bf7512" class="fill" d="M86.735,66.8c0.352,0.458,0.569,0.616,0.55,0.737
	c-0.348,2.216-0.415,4.483-1.298,6.67c-0.104-0.225-0.322-0.465-0.295-0.673C85.968,71.401,85.926,69.211,86.735,66.8z"/>
<path fill-rule="evenodd" clip-rule="evenodd" fill="#bf7512" class="fill" d="M88.659,68.697c0.274,1.955,0.05,3.875-0.212,5.793
	c-0.696,0.168-0.878-0.217-0.821-0.676C87.839,72.092,87.873,70.333,88.659,68.697z"/>
<path fill-rule="evenodd" clip-rule="evenodd" fill="#bf7512" class="fill" d="M67.068,56.621c-0.944,1.63-1.846,3.184-2.793,4.818
	c-0.751-1.271,0.144-2.121,0.634-3.002C65.736,56.953,66.154,56.657,67.068,56.621z"/>
<path fill-rule="evenodd" clip-rule="evenodd" fill="#bf7512" class="fill" d="M68.172,57.852c-0.946,1.949-1.846,3.803-2.766,5.698
	C65.132,61.771,66.632,58.659,68.172,57.852z"/>
<path fill-rule="evenodd" clip-rule="evenodd" fill="#bf7512" class="fill" d="M89.688,74.598c0.108-1.184,0.204-2.234,0.319-3.501
	c1.308,1.171,0.812,2.401,0.803,3.732C90.381,74.74,90.065,74.676,89.688,74.598z"/>
<path fill-rule="evenodd" clip-rule="evenodd" fill="#bf7512" class="fill" d="M82.576,69.053c-0.146,1.243-0.292,2.487-0.443,3.774
	C81.458,72.021,81.676,70.345,82.576,69.053L82.576,69.053z"/>
<path fill-rule="evenodd" clip-rule="evenodd" fill="#bf7512" class="fill" d="M82.576,69.053c-0.247-1.05-0.021-2.02,0.698-2.897
	C83.041,67.121,82.809,68.086,82.576,69.053C82.576,69.053,82.576,69.053,82.576,69.053z"/>
</svg>
