<svg version="1.1" id="svg" xmlns="http://www.w3.org/2000/svg" xmlns:xlink="http://www.w3.org/1999/xlink" x="0px" y="0px"
	 width="200px" height="200px" viewBox="0 0 200 200" enable-background="new 0 0 200 200" xml:space="preserve">
<path class="stroke" fill="#561906"  d="M147.806,113.795c-0.084-0.743-0.066-1.499-0.179-2.236c-0.279-1.833-0.295-3.783-0.971-5.465
	c-2.056-5.114-4.601-10-7.89-14.458c-0.524-0.711-1.035-1.455-1.672-2.057c-2.436-2.3-5.227-4.125-8.086-5.84
	c-2.286-1.371-4.659-2.597-6.931-3.991c-1.701-1.043-3.379-2.154-4.926-3.411c-1.821-1.48-3.492-3.147-5.218-4.743
	c-0.158-0.146-0.259-0.36-0.358-0.558c-0.857-1.696-1.708-3.396-2.536-5.043c0.583-1.645-0.041-2.802-1.217-3.77
	c-0.073-0.893-0.295-1.789-0.186-2.643c0.237-1.846,0.48-3.718,1.015-5.491c0.959-3.183,2.135-6.299,3.221-9.443
	c0.861-2.496-0.437-4.476-3.053-4.692c-2.073-0.171-4.063,0.078-5.874,1.065c-1.175-0.496-2.369-0.447-3.463-0.179
	c-2.791,0.685-5.542,1.533-8.307,2.324c-1.148,0.328-2.303,0.64-3.433,1.021c-1.673,0.564-3.444,0.978-4.956,1.837
	c-1.599,0.911-2.963,2.245-4.394,3.438c-1.905,1.589-2.295,3.92-3.066,6.36c0.479,0.29,0.845,0.604,1.27,0.753
	c1.717,0.601,3.458,1.135,5.18,1.724c1.175,0.402,2.331,0.86,3.497,1.288c0.818,0.3,1.319,0.911,1.547,1.713
	c0.279,0.979,0.481,1.981,0.708,2.938c-0.611,1.172-1.292,2.259-1.754,3.431c-0.419,1.06-0.351,2.182,0.42,3.124
	c-0.444,1.784-0.837,3.56-2.119,4.875c-1.671,1.715-3.356,3.446-5.229,4.926c-3.1,2.449-6.442,4.577-9.447,7.166
	c-2.529,2.179-5.082,4.317-7.015,7.075c-1.759,2.508-3.583,4.979-5.193,7.581c-1.445,2.335-2.805,4.752-3.904,7.265
	c-1.53,3.497-2.086,7.261-2.104,11.066c-0.01,1.989,0.21,3.987,0.433,5.97c0.37,3.297,1.599,6.366,2.712,9.455
	c0.631,1.749,1.292,3.521,2.216,5.124c1.639,2.846,3.509,5.557,5.242,8.35c2.322,3.739,5.289,6.778,9.243,8.805
	c0.708,0.363,1.293,1.029,2.029,1.261c1.772,0.56,3.578,1.173,5.411,1.353c4.106,0.402,8.234,0.637,12.358,0.781
	c3.061,0.107,6.142-0.22,9.192-0.025c6.417,0.41,12.793,0.203,19.15-0.698c1.044-0.147,2.076-0.454,3.081-0.788
	c3.034-1.005,6.034-2.113,9.081-3.075c1.991-0.629,3.529-1.78,4.833-3.372c1.432-1.75,2.725-3.635,4.505-5.07
	c1.527-1.232,2.591-2.799,3.428-4.537c0.634-1.318,1.285-2.635,1.813-3.996c1.195-3.087,1.742-6.343,2.041-9.605
	C148.464,125.054,148.446,119.417,147.806,113.795z"/>
<path fill-rule="evenodd" clip-rule="evenodd" fill="#bf7512" class="fill" d="M104.868,70.543c1.13-0.288,2.145-0.548,3.073-0.784
	c0.236,0.195,0.372,0.258,0.435,0.364c1.423,2.399,3.382,4.358,5.376,6.246c1.405,1.332,3.011,2.494,4.657,3.523
	c3.841,2.399,7.735,4.72,11.661,6.979c1.782,1.025,3.483,2.133,4.938,3.576c2.346,2.325,4.394,4.885,5.774,7.916
	c1.087,2.387,2.248,4.748,3.162,7.201c0.694,1.86,1.121,3.833,1.535,5.783c0.341,1.603,0.521,3.241,0.707,4.872
	c0.08,0.7-0.001,1.42-0.02,2.132c-0.034,1.328-0.121,2.657-0.107,3.985c0.056,5.345-0.038,10.662-1.953,15.767
	c-0.636,1.696-0.867,3.55-2.032,5.062c-0.61-0.137-1.259-0.282-1.994-0.447c0.027,1.055,1.03,0.805,1.358,1.504
	c-0.196,0.27-0.438,0.604-0.649,0.894c-0.635-0.081-1.157-0.146-1.68-0.213c-0.028,0.084-0.056,0.168-0.084,0.252
	c0.259,0.281,0.519,0.562,0.88,0.952c-0.289,0.44-0.59,0.898-0.836,1.271c-0.814,0.122-1.031-1.077-2.019-0.487
	c0.343,0.531,0.661,1.024,1.043,1.619c-0.252,0.292-0.529,0.612-0.863,0.999c-0.478-0.407-0.894-0.763-1.358-1.159
	c-0.889,0.757,0.124,1.166,0.229,1.911c-0.246,0.266-0.589,0.639-0.925,1.003c-0.453-0.281-0.835-0.52-1.219-0.758
	c-0.089,0.054-0.179,0.107-0.268,0.161c0.071,0.439,0.142,0.88,0.225,1.394c-0.21,0.164-0.448,0.352-0.676,0.531
	c-0.535-0.029-0.565-1.096-1.381-0.512c0.029,0.354,0.064,0.775,0.107,1.303c-0.32,0.148-0.658,0.305-1.125,0.521
	c-0.381-1.199-0.724-2.277-1.054-3.316c-0.643-0.009-0.733,0.34-0.663,0.715c0.106,0.565,0.283,1.118,0.431,1.675
	c0.124,0.466,0.25,0.933,0.401,1.497c-0.383,0.182-0.717,0.341-0.981,0.466c-1.097-0.594-0.562-2.192-1.879-2.702
	c-0.207,1.229,0.42,2.038,0.814,3.092c-0.415,0.176-0.831,0.352-1.217,0.515c-0.946-0.676-0.857-1.715-1.23-2.612
	c-0.188-0.01-0.393-0.021-0.634-0.035c-0.363,1.051,0.389,1.81,0.596,2.841c-0.391,0.174-0.813,0.36-1.195,0.53
	c-1.006-0.614-0.107-2.008-1.194-2.606c-0.803,1.037,0.097,2.022-0.126,3.143c-0.386,0.143-0.857,0.318-1.534,0.569
	c-0.213-0.994-0.394-1.837-0.597-2.783c-0.11-0.026-0.307-0.075-0.548-0.134c-0.519,1.062,0.233,2.033,0.062,3.202
	c-0.607,0.14-1.271,0.291-1.906,0.438c-0.992-0.953-0.058-2.582-1.132-3.374c-0.136,0.037-0.272,0.074-0.408,0.112
	c0.083,0.986,0.166,1.974,0.259,3.072c-0.445,0.047-0.817,0.086-1.357,0.143c-0.096-0.779-0.17-1.468-0.269-2.153
	c-0.066-0.461-0.019-1.047-0.919-0.898c0.054,0.901,0.108,1.806,0.174,2.911c-0.802-0.104-1.471-0.189-2.235-0.288
	c0-0.87,0-1.653,0-2.483c-0.209-0.117-0.39-0.22-0.772-0.435c-0.157,0.907-0.294,1.693-0.463,2.668
	c-0.679-0.138-1.288-0.263-2.057-0.419c0.241-1.235,0.45-2.307,0.67-3.437c-0.19-0.106-0.366-0.205-0.701-0.394
	c-0.332,1.211-0.631,2.304-0.971,3.545c-0.489-0.041-0.99-0.082-1.536-0.126c-0.169-1.321,0.594-2.303,0.824-3.484
	c-0.197-0.115-0.4-0.234-0.642-0.377c-0.897,0.986-0.789,2.303-1.392,3.464c-0.599-0.155-1.174-0.304-1.748-0.453
	c-0.182-1.417,0.654-2.44,1.131-3.659c-0.372-0.073-0.606-0.118-0.933-0.182c-0.443,1.11-0.867,2.173-1.355,3.396
	c-0.608-0.163-1.204-0.324-1.979-0.532c0.706-1.331,1.304-2.46,1.942-3.662c-0.155-0.174-0.314-0.353-0.568-0.638
	c-1.131,1.067-1.245,2.618-2.208,3.823c-0.479-0.213-0.976-0.434-1.649-0.734c0.594-1.048,1.109-1.959,1.679-2.965
	c-0.257-0.131-0.492-0.25-0.815-0.414c-0.558,0.945-1.066,1.806-1.634,2.769c-0.438-0.306-0.78-0.543-1.233-0.858
	c0.686-1,1.305-1.903,1.974-2.879c-0.211-0.154-0.403-0.294-0.719-0.524c-0.672,0.948-1.3,1.831-2.002,2.821
	c-0.494-0.426-0.886-0.764-1.409-1.214c0.815-0.989,1.589-1.93,2.497-3.032c-0.348-0.072-0.697-0.249-0.814-0.15
	c-0.468,0.395-0.89,0.854-1.28,1.328c-0.298,0.364-0.523,0.789-0.862,1.312c-0.442-0.514-0.776-0.902-1.189-1.382
	c0.65-1.021,1.259-1.979,1.87-2.939c-0.589-0.26-0.589-0.26-2.473,1.871c-0.245-0.206-0.491-0.415-0.846-0.714
	c0.608-0.854,1.16-1.625,1.715-2.401c-0.974-0.474-0.974-0.474-2.446,1.628c-0.364-0.308-0.72-0.607-1.22-1.028
	c0.546-0.954,1.064-1.858,1.638-2.858c-0.103-0.112-0.264-0.29-0.453-0.498c-1.037,0.599-1.379,1.66-2.056,2.61
	c-0.333-0.211-0.64-0.405-1.048-0.664c0.524-0.937,0.995-1.775,1.503-2.683c-0.243-0.155-0.443-0.282-0.757-0.481
	c-0.567,0.877-1.092,1.688-1.722,2.661c-0.422-0.159-0.912-0.344-1.513-0.57c0.394-1.049,0.729-1.945,1.085-2.894
	c-0.229-0.136-0.405-0.241-0.603-0.358c-0.937,0.746-1.005,1.892-1.538,2.937c-0.406-0.113-0.807-0.225-1.377-0.382
	c0.417-1.013,0.787-1.913,1.183-2.877c-1-0.015-1-0.015-2.242,2.512c-0.443-0.123-0.918-0.256-1.408-0.394
	c0.037-1.292,1.066-1.914,1.561-2.844c-0.124-0.169-0.223-0.305-0.341-0.466c-1.385,0.293-1.514,1.662-2.349,2.613
	c-0.4-0.237-0.819-0.487-1.438-0.854c0.792-0.823,1.449-1.507,2.147-2.231c-0.399-0.682-0.891-0.495-1.282-0.097
	c-0.493,0.503-0.896,1.095-1.385,1.708c-0.646-0.538-1.036-0.862-1.555-1.294c1.175-0.771,2.195-1.439,3.299-2.163
	c-0.266-0.283-0.433-0.46-0.666-0.709c-1.063,0.699-2.09,1.374-3.233,2.125c-0.566-0.749-1.088-1.44-1.631-2.161
	c0.963-1.309,2.779-1.162,3.836-2.36c-1.127-0.36-1.312-0.306-4.469,1.196c-0.103-0.059-0.252-0.096-0.321-0.191
	c-0.152-0.209-0.262-0.446-0.486-0.844c1.339-0.499,2.601-0.969,3.988-1.485c-0.228-0.357-0.37-0.582-0.499-0.784
	c-1.392,0.457-2.687,0.883-4.056,1.333c-0.213-0.444-0.399-0.832-0.609-1.272c1.165-0.934,2.75-0.521,3.905-1.401
	c-0.118-0.616-0.518-0.589-0.991-0.49c-1.039,0.215-2.083,0.405-3.196,0.619c-0.135-0.298-0.253-0.559-0.453-1.002
	c1.457-0.274,2.801-0.527,4.155-0.782c-0.111-0.672-0.419-0.709-0.815-0.668c-1.187,0.125-2.377,0.229-3.695,0.352
	c-0.124-0.545-0.235-1.032-0.346-1.521c1.234-0.726,2.538-0.341,3.744-0.612c-0.403-0.785-0.403-0.785-3.949-0.688
	c-0.026-0.311-0.054-0.628-0.078-0.916c1.124-0.616,2.496-0.119,3.453-1.088c-0.407-0.775-1.028-0.433-1.544-0.398
	c-0.565,0.037-1.124,0.15-1.811,0.249c0-0.617,0-1.117,0-1.812c0.903,0.056,1.751,0.107,2.606,0.16
	c-0.042-0.958-0.042-0.958-2.584-1.388c0-0.433,0-0.883,0-1.506c1.102,0.163,2.076,0.308,3.166,0.469
	c-0.056-0.37-0.091-0.603-0.134-0.891c-0.995-0.212-1.938-0.413-2.977-0.634c0.025-0.383,0.046-0.707,0.078-1.184
	c0.961,0.104,1.816,0.198,2.767,0.302c0-0.322,0-0.557,0-0.831c-0.814-0.198-1.58-0.386-2.43-0.593
	c-0.056-0.25-0.115-0.521-0.227-1.028c1.033,0.232,1.892,0.426,2.884,0.648c-0.037-0.415-0.059-0.652-0.082-0.909
	c-0.85-0.272-1.646-0.527-2.582-0.827c0.107-0.642,0.213-1.272,0.346-2.072c0.954,0.345,1.819,0.657,2.8,1.011
	c0-0.422,0-0.623,0-0.845c-0.783-0.353-1.545-0.696-2.467-1.111c0.218-0.604,0.413-1.145,0.6-1.663
	c1.042,0.089,1.625,1.09,2.69,0.784c-0.031-1.237-1.504-0.946-1.868-1.966c0.14-0.274,0.355-0.699,0.611-1.203
	c0.848,0.362,1.634,0.697,2.47,1.055c0.024-0.555,0.024-0.555-1.733-2.068c0.318-0.479,0.647-0.974,1.021-1.537
	c0.854,0.334,1.606,0.628,2.507,0.98c-0.093-1.357-1.343-1.238-1.898-2.056c0.194-0.281,0.424-0.613,0.685-0.989
	c0.866,0.284,1.636,0.537,2.482,0.815c-0.016-1.231-1.211-1.074-1.66-1.801c0.561-0.661,1.125-1.326,1.679-1.979
	c0.837,0.262,1.571,0.49,2.383,0.744c0.044-1.088-0.985-0.963-1.336-1.642c0.256-0.316,0.546-0.675,0.847-1.045
	c0.701,0.168,1.323,0.318,1.977,0.476c0.207-0.978-0.638-0.929-1.076-1.392c0.295-0.393,0.598-0.797,0.902-1.202
	c0.924,0.25,1.746,0.473,2.688,0.729c-0.257-1.203-1.294-1.096-1.9-1.621c0.008-0.88,0.729-1.346,1.062-1.999
	c1.47,0.312,2.824,0.602,4.18,0.879c0.013,0.003,0.057-0.151,0.117-0.317c-0.999-0.826-2.347-0.859-3.619-1.366
	c0.351-0.485,0.63-0.871,0.93-1.286c1.575,0.298,3.114,0.589,4.693,0.888c0.073-0.866-0.39-0.984-0.889-1.08
	c-1.037-0.2-2.071-0.409-3.246-0.643c0.347-0.521,0.612-0.919,0.94-1.41c0.75,0.068,1.494,0.127,2.235,0.206
	c1.149,0.123,2.296,0.268,3.445,0.391c1.284,0.136,2.434-0.405,3.591-0.812c0.404-0.141,0.781-0.606,0.991-1.016
	c1.407-2.743,2.651-5.536,2.519-8.738c-0.064-1.547-0.011-3.098-0.011-4.738c0.618-0.135,1.156-0.253,1.728-0.378
	c0.783,4.826,3.978,7.792,7.46,10.552c0.244,0.193,0.518,0.361,0.722,0.59c0.77,0.864,1.767,1.3,2.996,1.615
	c0.408-0.173,0.923-0.392,1.598-0.678c-1.091-1.403-2.06-2.707-3.09-3.959c-1.157-1.404-2.448-2.704-3.533-4.159
	C105.619,73.674,105.02,72.275,104.868,70.543z"/>
<path fill-rule="evenodd" clip-rule="evenodd" fill="#bf7512" class="fill" d="M101.123,43.4c-0.047,0.804-0.054,1.462-0.131,2.112
	c-0.162,1.365-0.415,2.723-0.531,4.091c-0.173,2.022,0.586,2.673,2.896,2.407c-0.023-0.486,0.014-1-0.083-1.485
	c-0.401-1.999-0.36-3.958,0.228-5.929c0.223-0.748,0.631-1.236,1.244-1.642c1.015-0.671,2.158-0.789,3.319-0.766
	c0.706,0.015,1.269,0.374,1.809,1.245c-0.106,0.544-0.17,1.335-0.421,2.062c-0.709,2.054-1.591,4.051-2.228,6.125
	c-0.833,2.715-1.458,5.488-1.666,8.337c-0.042,0.574-0.111,1.147-0.184,1.866c-0.581,0.028-1.126,0.055-1.675,0.081
	c-0.444-1.443-0.197-2.76,0.021-4.07c0.268-1.604,0.009-2.212-1.467-3.137c-0.697,0.18-1.511,0.272-2.212,0.604
	c-0.708,0.336-1.365,0.846-1.934,1.395c-0.529,0.511-0.912,1.173-1.359,1.77c-0.093-0.02-0.188-0.04-0.281-0.06
	c-0.165-1.341-0.337-2.68-0.49-4.021c-0.151-1.325-0.35-2.65-0.401-3.98c-0.05-1.28-0.028-2.577,0.128-3.846
	c0.143-1.161,0.748-2.069,2.013-2.381C98.78,43.919,99.755,43.295,101.123,43.4z"/>
<path fill-rule="evenodd" clip-rule="evenodd" fill="#bf7512" class="fill" d="M90.55,66.507c0.113-0.541,0.2-0.955,0.316-1.507
	c1.843-0.192,3.64-0.393,5.439-0.563c2.514-0.239,5.028-0.476,7.545-0.674c1.229-0.096,2.478-0.319,3.797,0.282
	c0.042,0.355,0.091,0.771,0.132,1.115C102.043,65.608,96.419,66.049,90.55,66.507z"/>
<path fill-rule="evenodd" clip-rule="evenodd" fill="#bf7512" class="fill" d="M92.454,69.498c0.201-0.544,0.318-0.859,0.438-1.183
	c2.386-0.947,4.883-0.489,7.288-0.824c2.414-0.335,4.851-0.503,7.302-0.747c0.168,0.292,0.294,0.511,0.446,0.774
	c-0.188,0.127-0.316,0.272-0.468,0.305c-1.775,0.381-3.538,0.9-5.334,1.077C98.996,69.208,95.846,69.301,92.454,69.498z"/>
<path fill-rule="evenodd" clip-rule="evenodd" fill="#bf7512" class="fill" d="M86.875,51.301c-0.188-0.34-0.373-0.677-0.624-1.132
	c2.067-1.538,4.397-2.293,6.918-3.045c0.171,0.488,0.319,0.913,0.527,1.509C91.408,49.527,89.232,50.379,86.875,51.301z"/>
<path fill-rule="evenodd" clip-rule="evenodd" fill="#bf7512" class="fill" d="M88.523,53.635c-0.297-0.335-0.584-0.657-0.864-0.973
	c0.734-0.84,3.943-2.273,5.903-2.623c0.088,0.478,0.177,0.957,0.257,1.39C92.021,52.179,90.359,52.87,88.523,53.635z"/>
<path fill-rule="evenodd" clip-rule="evenodd" fill="#bf7512" class="fill" d="M91.965,46.13c-1.887,0.772-3.774,1.546-5.727,2.345
	c-0.219-0.747,0.031-1.31,0.571-1.533c1.378-0.568,2.753-1.207,4.279-1.283c0.287-0.015,0.581,0.133,0.872,0.206
	C91.962,45.953,91.964,46.041,91.965,46.13z"/>
<path fill-rule="evenodd" clip-rule="evenodd" fill="#bf7512" class="fill" d="M89.926,55.357c-0.197-0.175-0.421-0.374-0.785-0.696
	c1.461-1.007,3.02-1.466,4.673-1.932c0.117,0.348,0.208,0.62,0.344,1.024C92.771,54.28,91.434,54.786,89.926,55.357z"/>
<path fill-rule="evenodd" clip-rule="evenodd" fill="#bf7512" class="fill" d="M91.678,76.969c1.196-0.091,2.197-0.166,3.363-0.255
	c-0.129,0.602-0.217,1.013-0.334,1.558c-1.032,0.07-1.994,0.137-3.168,0.217C91.585,77.982,91.625,77.543,91.678,76.969z"/>
<path fill-rule="evenodd" clip-rule="evenodd" fill="#bf7512" class="fill" d="M91.345,84.283c0,0.417,0,0.674,0,1.021
	c-1.463,0.225-2.831-0.015-4.396-0.269c0.352-0.469,0.58-0.772,0.845-1.126C88.976,84.033,90.113,84.153,91.345,84.283z"/>
<path fill-rule="evenodd" clip-rule="evenodd" fill="#bf7512" class="fill" d="M93.239,81.159c-1-0.108-1.81-0.195-2.746-0.296
	c0.246-0.57,0.399-0.926,0.586-1.357c1.013,0,2.007,0,3.23,0C93.924,80.102,93.61,80.585,93.239,81.159z"/>
<path fill-rule="evenodd" clip-rule="evenodd" fill="#bf7512" class="fill" d="M91.942,74.719c1.178-0.121,2.262-0.232,3.45-0.354
	c0,0.385,0,0.658,0,1.135c-1.145,0.167-2.29,0.334-3.611,0.526C91.846,75.492,91.89,75.139,91.942,74.719z"/>
<path fill-rule="evenodd" clip-rule="evenodd" fill="#bf7512" class="fill" d="M91.621,57.277c-0.281-0.352-0.521-0.654-0.904-1.137
	c1.171-0.398,2.217-0.756,3.37-1.149c0.128,0.469,0.213,0.782,0.332,1.219C93.453,56.579,92.562,56.919,91.621,57.277z"/>
<path fill-rule="evenodd" clip-rule="evenodd" fill="#bf7512" class="fill" d="M88.775,82.887c0.299-0.35,0.598-0.699,0.951-1.113
	c0.92,0.114,1.833,0.229,2.929,0.365c-0.235,0.428-0.406,0.739-0.565,1.029c-1.118,0-2.129,0-3.14,0
	C88.892,83.074,88.833,82.98,88.775,82.887z"/>
<path fill-rule="evenodd" clip-rule="evenodd" fill="#bf7512" class="fill" d="M92.49,59.961c0.774-0.188,1.476-0.359,2.355-0.572
	c0.029,0.597,0.049,1.002,0.074,1.503c-0.761,0.191-1.421,0.356-2.163,0.542C92.66,60.9,92.585,60.483,92.49,59.961z"/>
<path fill-rule="evenodd" clip-rule="evenodd" fill="#bf7512" class="fill" d="M95.625,72.284c-0.111,0.447-0.096,0.715-0.218,0.818
	c-0.381,0.319-2.431,0.477-3.351,0.315c-0.023-0.083-0.064-0.167-0.065-0.252c-0.001-0.083,0.038-0.167,0.107-0.442
	C93.142,72.594,94.255,72.455,95.625,72.284z"/>
<path fill-rule="evenodd" clip-rule="evenodd" fill="#bf7512" class="fill" d="M94.613,57.378c0.026,0.443,0.037,0.646,0.052,0.908
	c-0.752,0.217-1.457,0.421-2.229,0.646c-0.121-0.139-0.25-0.286-0.521-0.596C92.839,58.008,93.63,57.728,94.613,57.378z"/>
<path fill-rule="evenodd" clip-rule="evenodd" fill="#bf7512" class="fill" d="M92.919,62.724c0.603-0.625,1.288-0.688,2.032-0.397
	C94.389,63.031,93.647,62.876,92.919,62.724z"/>
</svg>
