<svg version="1.1" id="svg" xmlns="http://www.w3.org/2000/svg" xmlns:xlink="http://www.w3.org/1999/xlink" x="0px" y="0px"
	 width="200px" height="200px" viewBox="0 0 200 200" enable-background="new 0 0 200 200" xml:space="preserve">
<path class="stroke" fill="#51575c"  d="M158.23,140.551c-1.015-0.939-2.207-1.723-3.415-2.404c-1.623-0.915-3.341-1.664-5.017-2.484
	c-3.354-1.642-6.713-3.278-10.063-4.929c-0.878-0.433-1.737-0.91-2.707-1.42c-0.147-1.201-0.307-2.373-0.432-3.548
	c-0.414-3.922-0.802-7.846-1.231-11.766c-0.389-3.561-0.803-7.119-1.233-10.675c-0.579-4.791-1.442-9.565-1.714-14.373
	c-0.349-6.137-1.174-12.211-2.064-18.267c-0.486-3.305-1.742-6.508-2.764-9.72c-0.5-1.575-1.125-3.142-1.924-4.585
	c-2.032-3.673-5.377-5.866-9.124-7.434c-1.445-0.605-1.953-1.554-2.058-2.949c-0.101-1.347-0.257-2.691-0.325-4.039
	c-0.042-0.863,0.029-1.732,0.05-2.548c2.336-0.9,3.637-2.463,4.077-4.74c0.486-2.514-0.14-4.813-1.401-7.125
	c0.1-2.471,0.224-5.068-0.498-7.616c-0.281-0.998-0.403-2.042-0.715-3.029c-1.051-3.338-3.608-4.926-6.811-5.727
	c-1.361-0.34-2.738-0.623-4.07-1.047c-0.501-0.158-0.953-0.59-1.327-0.99c-0.808-0.867-1.55-1.794-2.386-2.771
	c-2.041,0.986-4.311,1.242-6.244,2.528c0.086,0.45,0.158,0.829,0.24,1.266c-1.045,0.301-2.037,0.583-3.024,0.873
	c-4.263,1.256-7.233,4.022-8.97,8.033c-0.819,1.892-1.402,3.921-1.82,5.945c-0.473,2.278-0.789,4.599-0.184,6.954
	c0.357,1.395,0.554,2.851,0.648,4.29c0.11,1.653-0.06,3.324,0.055,4.976c0.099,1.389,0.267,2.815,0.688,4.133
	c1.1,3.416,2.288,6.795,2.558,10.412c0.145,1.938,0.959,3.475,2.708,4.441c0.057,0.031,0.045,0.186,0.078,0.353
	c-0.692,0.401-1.439,0.763-2.109,1.236c-2.098,1.479-3.271,3.792-4.997,5.611c-0.034,0.036-0.062,0.091-0.065,0.14
	c-0.113,1.424-1.107,2.289-2.018,3.217c-0.509,0.517-1.041,1.043-1.413,1.655c-1.427,2.348-2.831,4.711-4.171,7.11
	c-0.902,1.616-1.682,3.301-2.6,5.122c-0.48-0.443-0.897-0.807-1.291-1.194c-1.109-1.094-2.197-2.212-3.315-3.295
	c-3.28-3.177-6.566-6.347-9.86-9.508c-0.788-0.756-1.577-1.519-2.432-2.191c-1.665-1.309-3.41-1.158-4.875,0.347
	c-0.398,0.41-0.792,0.824-1.197,1.228c-1.347,1.338-1.592,2.344-0.744,4.061c0.993,2.012,2.203,3.892,3.959,5.352
	c1.32,1.098,2.655,2.177,3.956,3.296c2.838,2.44,5.663,4.898,8.483,7.357c0.934,0.813,1.841,1.653,2.879,2.588
	c-0.651,0.793-1.221,1.485-1.791,2.178c-0.907-0.411-1.593-0.797-2.328-1.037c-1.277-0.417-2.564-0.88-3.885-1.079
	c-2.095-0.315-3.682,1.763-2.958,3.743c0.368,1.013,1.075,1.752,1.978,2.339c1.345,0.875,2.663,1.792,4.152,2.801
	c-0.539,1.028-0.985,2.07-1.596,3.003c-1.252,1.913-2.603,3.759-3.889,5.651c-0.43,0.631-0.779,1.316-1.195,2.028
	c3.255,2.153,6.623,3.69,10.308,4.287c0.177,0.555,0.298,0.951,0.429,1.343c0.667,1.975,1.412,3.918,2.678,5.603
	c0.893,1.187,1.885,2.212,3.578,2.136c0.461-0.021,0.935,0.267,1.395,0.411c-0.33,0.951-0.648,1.714-0.86,2.506
	c-0.793,2.957-1.562,5.919-2.319,8.886c-1.646,6.449-3.021,12.954-3.955,19.547c-0.32,2.261-0.55,4.537-0.91,6.791
	c-0.39,2.461-0.953,4.896-1.312,7.359c-0.312,2.149-0.448,4.324-0.676,6.62c2.676,0.928,5.198,1.802,7.846,2.721
	c-0.595,1.687-0.957,3.276-2.155,4.666c-1.104,1.279-1.696,2.96-1.088,4.757c2.116,1.001,4.217,1.769,6.491,1.804
	c4.678,0.073,9.356,0.085,14.034,0.106c0.448,0.001,0.897-0.112,1.354-0.173c0.633-1.484,0.077-2.862,0.168-4.193
	c-0.312-0.122-0.536-0.211-0.833-0.328c0.125-0.482,0.239-0.92,0.292-1.125c1.025-0.693,1.852-1.25,2.566-1.734
	c5.025-0.566,10.01-1.13,15.094-1.704c0.085,0.872,0.166,1.684,0.219,2.243c-0.279,0.855-0.541,1.473-0.681,2.117
	c-0.153,0.706-0.198,1.436-0.302,2.248c0.137,0.353,0.304,0.785,0.531,1.377c9.415,1.546,18.909,2.015,28.395,1.45
	c1.094-1.881,0.96-3.375-0.339-4.706c0.423-1.433,0.423-1.433-0.446-2.872c-0.625-0.189-1.362-0.411-2.244-0.677
	c-0.133-0.455-0.292-0.991-0.447-1.528c-0.348-1.204-1.095-1.71-2.317-1.538c-0.46,0.065-0.909,0.227-1.37,0.271
	c-0.803,0.08-1.529-0.059-1.957-0.962c0.234-0.101,0.412-0.224,0.603-0.251c2.675-0.378,5.349-0.751,8.023-1.107
	c0.817-0.108,1.667-0.084,2.437-1.041c-0.883-3.789-1.771-7.734-2.727-11.663c-1.092-4.49-2.276-8.957-3.349-13.451
	c-0.395-1.647-0.581-3.343-0.843-4.904c1.037-1.017,2.639-0.63,3.334-1.911c-0.043-0.5-0.085-1.002-0.145-1.71
	c2.71-0.662,5.355-1.309,7.906-1.932c5.4,1.665,10.754,3.313,15.902,4.899c0.798-0.316,1.325-0.525,1.764-0.7
	C160.195,144.072,160.141,142.321,158.23,140.551z"/>
<path fill-rule="evenodd" clip-rule="evenodd" fill="#f7dad4" class="fill" d="M90.145,111.692c1.624-2.141,3.008-4.204,4.638-6.05
	c2.385-2.698,4.465-5.578,6.296-8.675c1.794-3.038,3.791-5.956,5.644-8.96c1.827-2.966,3.246-6.093,4.228-9.471
	c1.43-4.922,1.987-9.96,2.555-15.012c0.041-0.36,0.037-0.728,0.035-1.09c0-0.151-0.049-0.302-0.08-0.471
	c-0.896-0.779-1.854-0.609-2.723-0.048c-1.031,0.666-1.589,1.702-1.414,2.933c0.732,5.166,0.141,10.263-0.707,15.35
	c-0.411,2.466-0.999,3.749-3.042,6.768c-0.105-0.427-0.221-0.729-0.253-1.042c-0.574-5.507-0.289-10.97,0.516-16.451
	c0.469-3.198,0.938-6.375,2.057-9.402c0.916-2.478,1.99-4.9,3.065-7.314c0.377-0.841,0.901-1.645,1.904-2.085
	c3.124,0.938,6.364,1.732,8.815,4.221c2.074,2.105,3.58,4.586,4.713,7.286c1.642,3.909,2.425,8.047,3.04,12.213
	c0.333,2.258,0.671,4.529,0.774,6.805c0.273,5.962,1.25,11.854,1.647,17.804c0.351,5.287,0.929,10.559,1.315,15.844
	c0.142,1.912,0.023,3.84-0.125,5.783c-2.025-10.72-3.153-21.59-5.641-32.434c-0.918-0.696-1.108-1.852-1.104-3.147
	c0.013-3.527-0.012-7.056-0.112-10.581c-0.041-1.427-0.756-1.863-2.079-1.563c0,2.023,0.044,4.037-0.009,6.047
	c-0.118,4.362-0.284,8.725-0.434,13.087c-0.044,1.298-0.037,2.603-0.16,3.895c-0.482,5.066-0.942,10.136-1.551,15.188
	c-0.241,2.001-0.861,3.953-2.028,5.942c-0.926,0.057-1.949,0.232-2.959,0.164c-3.209-0.216-6.415-0.53-9.622-0.792
	c-3.497-0.284-6.797-1.43-10.149-2.331c-2-0.538-3.949-1.266-5.918-1.917C90.986,112.087,90.712,111.941,90.145,111.692z
	 M112.203,105.56c1.289-0.053,5.945-2.923,8.593-5.275c-0.143-3.638-3.024-6.098-4.126-9.283c-0.534-0.234-0.955-0.417-1.426-0.625
	c-2.364,1.963-4.708,3.907-7.047,5.857c-0.194,0.162-0.35,0.369-0.598,0.635c0.464,0.873,0.795,1.836,1.401,2.573
	c1.281,1.557,2.06,3.342,2.757,5.19C111.883,104.962,112.062,105.271,112.203,105.56z"/>
<path fill-rule="evenodd" clip-rule="evenodd" fill="#f7dad4" class="fill" d="M92.562,44.112c0.166-2.429,0.297-4.599,0.471-6.767
	c0.124-1.551,0.334-3.095,0.455-4.646c0.102-1.313-0.395-2.002-1.713-2.104c-1.861-0.144-3.734-0.121-5.602-0.16
	c-0.666-0.014-1.333-0.002-2.06-0.002c-0.482-1.661-0.235-3.195,0.154-4.682c0.409-1.553,0.959-3.071,1.495-4.588
	c1.929-5.468,7.026-9.124,13.308-8.764c2.119,0.121,4.25,0.414,6.323,0.867c3.135,0.684,5.436,2.508,6.581,5.593
	c0.325,0.875,0.552,1.784,0.823,2.679c0.563,1.854,0.129,3.586-0.645,5.279c-0.207,0.46-0.395,0.932-0.627,1.487
	c1.311,0.775,2.533-0.031,3.719,0.101c2.956,2.288,2.854,7.086-0.227,9.46c-0.679,0.078-1.381,0.158-2.056,0.235
	c-0.206,2.348-0.025,4.604-0.778,6.745c-0.136,0.388-0.321,0.78-0.566,1.107c-2.778,3.707-5.823,7.177-9.214,10.341
	c-0.698,0.652-1.532,0.894-2.424,0.896c-1.14,0.002-2.28-0.109-3.469-0.174c-0.343-0.282-0.701-0.575-1.187-0.974
	c-0.589,0.034-1.305,0.075-1.932,0.112c-0.607,0.524-1.139,0.982-1.619,1.399c-1.476-0.363-2.773-0.683-3.861-0.95
	c-1.255-1.573-1.574-3.113-1.539-4.848c0.059-2.834-0.679-5.55-1.635-8.203c-0.858-2.381-1.112-4.822-0.872-7.441
	c0.708-0.034,1.312-0.062,1.984-0.093c0.206,0.196,0.414,0.42,0.646,0.614c1.134,0.939,1.72,0.858,2.731-0.293
	c0.327-0.371,0.743-0.663,1.32-1.167c-1.846-0.367-3.538-0.21-5.304-0.345c0-0.594,0-1.136,0-1.693
	c2.307-1.743,5.325-1.415,6.897,0.914c-0.144,1.65-0.297,3.454-0.458,5.257c-0.16,1.807-0.328,3.613-0.509,5.594
	c0.743,0.463,1.518,0.948,2.446,1.526c0.752-0.361,1.52-0.729,2.359-1.132c-0.169-0.53-0.284-0.899-0.417-1.319
	C94.574,44.019,93.662,44.061,92.562,44.112z M109.316,32.788c0.069,0.14,0.14,0.28,0.21,0.421c0.185,0.426,0.386,0.847,0.552,1.28
	c0.716,1.88-0.247,4.705-2.284,5.292c-0.727,0.209-1.366,0.724-2.041,1.107c-1.467,0.833-1.976,2.377-2.65,3.751
	c-1.24,2.525-1.51,5.227-1.231,7.947c1.414,0.578,1.816,0.425,2.99-1.129c0-1.316-0.17-2.791,0.036-4.211
	c0.396-2.706,1.999-4.7,4.144-6.337c0.761-0.583,1.514-1.309,1.971-2.135c1.192-2.153,0.826-4.292-0.461-6.313
	c-0.045-0.071-0.18-0.086-0.273-0.128c-0.089-0.088-0.178-0.176-0.266-0.265C109.779,32.308,109.548,32.548,109.316,32.788z
	 M108.088,30.2c-3.675-0.646-7.181-0.169-10.606,0.297c-0.409,1.259-0.304,3.551,0.202,5.232c0.967-0.083,1.976-0.172,2.997-0.261
	c0.323,0.397,0.611,0.751,0.864,1.062c2.304,0.265,3.311-0.569,3.572-2.944c-2.145,0.138-4.221,1.024-6.381,0.696
	c-0.079-0.289-0.156-0.438-0.15-0.584c0.004-0.196,0.072-0.391,0.127-0.651c2.037-0.913,4.115-1.053,6.231-0.472
	C106.896,33.111,107.756,32.543,108.088,30.2z M107.808,17.56c-0.132,0.014-0.267,0.027-0.397,0.041
	c-0.825,3.009-0.991,6.117-1.372,9.462c0.973-0.073,1.75-0.131,2.657-0.199c0.541-2.951-1.039-5.667-0.231-8.379
	C108.214,18.133,108.01,17.846,107.808,17.56z M98.682,49.231c-3.012-0.087-6.007-0.164-8.982,0.331
	c-0.296,0.049-0.551,0.332-0.824,0.507c0.013,0.12,0.027,0.24,0.04,0.359c0.41,0.075,0.821,0.222,1.229,0.214
	c2.795-0.054,5.59-0.138,8.384-0.223c0.129-0.004,0.255-0.116,0.429-0.2C98.868,49.897,98.785,49.604,98.682,49.231z M99.734,26.638
	c-0.194-0.065-0.342-0.159-0.487-0.153c-2.743,0.106-5.487,0.212-8.229,0.356c-0.299,0.016-0.586,0.266-1.052,0.49
	c0.363,0.274,0.536,0.508,0.744,0.544c2.749,0.478,5.486,0.185,8.216-0.189C99.398,27.622,99.836,27.409,99.734,26.638z
	 M115.682,33.666c-0.133-1.474-0.389-1.802-1.962-2.542c-0.158,0.137-0.34,0.292-0.577,0.498c0.478,0.586,0.91,1.118,1.389,1.707
	c-0.609,0.522-1.082,0.929-1.599,1.372C114.206,35.262,114.539,35.129,115.682,33.666z M87.571,39.711
	c1.113,0.215,2.113-0.468,2.804-1.792C89.43,37.787,88.584,38.308,87.571,39.711z M98.833,38.114
	c0.915,0.482,1.816,0.944,2.99,0.693c-0.089-1.194-1.13-0.857-1.714-1.156C99.705,37.445,99.121,37.169,98.833,38.114z
	 M96.301,22.442c-1.058-0.059-1.896-0.024-2.728,0.472C94.638,23.755,95.21,23.666,96.301,22.442z M106.16,34.834
	c0.844,0.942,0.91,0.963,2.153,0.684C107.6,34.482,107.264,34.375,106.16,34.834z"/>
<path fill-rule="evenodd" clip-rule="evenodd" fill="#f7dad4" class="fill" d="M91.914,132.536c2.417-0.799,4.635,0.294,6.984,0
	c0.747,8.141,1.375,16.093,2.235,24.019c0.853,7.88,1.938,15.735,2.914,23.535c-1.921,0.882-10.619,1.264-14.49,0.696
	c-0.447-1.459-0.519-3.018-0.401-4.549c0.281-3.667,0.7-7.323,1.02-10.987c0.135-1.547,0.278-3.11,0.205-4.655
	c-0.164-3.48,0.031-6.929,0.459-10.383c0.344-2.784,0.59-5.584,0.742-8.385c0.136-2.48,0.071-4.969,0.121-7.455
	C91.715,133.806,91.828,133.242,91.914,132.536z"/>
<path fill-rule="evenodd" clip-rule="evenodd" fill="#f7dad4" class="fill" d="M80.721,130.62c2.214,0.232,4.363,0.457,6.664,0.699
	c0,1.541,0.078,2.981-0.016,4.41c-0.368,5.803-0.817,11.601-1.184,17.404c-0.168,2.695-0.19,5.398-0.32,8.096
	c-0.146,3.009-0.373,6.013-0.5,9.022c-0.111,2.588-0.124,5.181-0.197,7.771c-0.023,0.813-0.105,1.624-0.173,2.602
	c-4.453-0.628-8.703-1.3-12.922-2.388c0.181-1.834,0.426-3.42,0.474-5.013c0.092-2.986,0.859-5.846,1.426-8.748
	c0.356-1.82,0.493-3.682,0.782-5.517c0.168-1.07,0.457-2.122,0.663-3.187c0.648-3.358,1.25-6.726,1.932-10.078
	c0.933-4.573,1.916-9.136,2.894-13.701C80.339,131.547,80.542,131.124,80.721,130.62z"/>
<path fill-rule="evenodd" clip-rule="evenodd" fill="#f7dad4" class="fill" d="M105.184,58.656c-0.076,0.294-0.123,0.6-0.232,0.881
	c-1.819,4.667-2.596,9.61-3.691,14.456c-1.139,5.036-1.361,10.178-0.656,15.332c0.188,1.385,0.259,2.787,0.396,4.33
	c-2.37,3.467-4.792,7.013-7.274,10.646c-3.625-1.945-6.397-4.819-9.794-6.851c0-0.997-0.182-1.958,0.041-2.815
	c0.371-1.431,0.052-2.657-0.631-3.878c0.646-4.123,1.957-7.942,4.564-11.281c1.049-1.343,1.952-2.822,2.749-4.332
	c1.618-3.063,3.823-5.68,6.154-8.176c2.37-2.537,4.946-4.876,7.416-7.321c0.313-0.311,0.516-0.735,0.771-1.106
	C105.059,58.58,105.121,58.618,105.184,58.656z"/>
<path fill-rule="evenodd" clip-rule="evenodd" fill="#f7dad4" class="fill" d="M119.397,178.214c-3.613,0.534-6.979,1.032-10.449,1.545
	c-0.246-1.123-0.535-2.112-0.672-3.121c-0.478-3.497-0.89-7.002-1.347-10.502c-0.344-2.621-0.736-5.236-1.071-7.859
	c-0.388-3.032-0.734-6.069-1.101-9.104c-0.372-3.071-0.785-6.138-1.111-9.214c-0.238-2.251-0.361-4.515-0.553-6.978
	c2.798-0.176,5.346,0.165,7.976,0.229c0.554,2.452,1.171,4.757,1.582,7.098c0.782,4.445,1.446,8.91,2.161,13.366
	c1.207,7.529,2.408,15.059,4.186,22.482C119.152,176.803,119.252,177.461,119.397,178.214z"/>
<path fill-rule="evenodd" clip-rule="evenodd" fill="#f7dad4" class="fill" d="M68.264,177.626c-1.1-0.372-1.962-0.664-2.906-0.984
	c0.256-1.435,0.491-2.697,0.702-3.965c0.552-3.325,1.079-6.654,1.64-9.976c0.655-3.889,1.217-7.798,2.042-11.651
	c0.855-4,1.985-7.94,2.984-11.909c0.897-3.56,1.782-7.124,2.712-10.845c0.657,0.287,1.339,0.585,1.906,0.833
	c-1.672,8.202-3.408,16.196-4.914,24.233C70.936,161.336,69.674,169.354,68.264,177.626z"/>
<path fill-rule="evenodd" clip-rule="evenodd" fill="#f7dad4" class="fill" d="M107.39,179.904c-0.621,0.062-1.211,0.121-1.763,0.175
	c-1.368-3.06-5.986-43.081-5.336-47.171c0.465,0,0.947,0,1.458,0C103.63,148.588,105.501,164.167,107.39,179.904z"/>
<path fill-rule="evenodd" clip-rule="evenodd" fill="#f7dad4" class="fill" d="M87.982,180.663c-0.588,0-1.03,0-1.448,0
	c-1.096-3.259,1.933-46.551,2.479-48.844c1.28,0.099,1.805,0.474,1.614,1.465c-0.564,2.954-0.033,5.917-0.207,8.863
	c-0.265,4.51-0.692,9.01-1.026,13.516c-0.08,1.085-0.185,2.192-0.062,3.265c0.342,2.984-0.052,5.917-0.462,8.85
	c-0.536,3.811-0.903,7.627-0.774,11.482C88.109,179.667,88.032,180.079,87.982,180.663z"/>
<path fill-rule="evenodd" clip-rule="evenodd" fill="#f7dad4" class="fill" d="M132.224,129.858c-0.731,1.597-1.397,3.048-2.133,4.656
	c-6.61-3.078-12.804-6.629-18.908-10.342c0.645-0.974,0.67-1.015,6.247-2.236C122.299,124.544,127.189,127.163,132.224,129.858z"/>
<path fill-rule="evenodd" clip-rule="evenodd" fill="#f7dad4" class="fill" d="M120.7,159.462c1.073-0.371,2.042-0.705,3.155-1.09
	c3.606,5.494,5.222,11.672,6.515,18.129c-1.927,0.433-3.778,0.816-5.91,0.682c-0.237-0.747-0.545-1.502-0.713-2.287
	c-0.937-4.414-1.847-8.833-2.746-13.253C120.858,160.944,120.805,160.228,120.7,159.462z"/>
<path fill-rule="evenodd" clip-rule="evenodd" fill="#f7dad4" class="fill" d="M126.428,95.045c2.043,9.94,3.341,19.964,2.838,30.384
	c-2.928-1.484-5.474-3.029-8.148-4.941c2.23-0.697,3.293-2.214,3.812-4.073c0.346-1.237,0.461-2.555,0.549-3.846
	c0.195-2.84,0.312-5.686,0.453-8.53c0.135-2.691,0.258-5.385,0.393-8.077C126.34,95.654,126.393,95.351,126.428,95.045z"/>
<path fill-rule="evenodd" clip-rule="evenodd" fill="#f7dad4" class="fill" d="M116.078,144.883c-0.963-4.592-1.922-9.167-2.903-13.847
	c3.712,0.918,11.518,9.743,13.07,13.755C122.892,145.345,119.604,145.869,116.078,144.883z"/>
<path fill-rule="evenodd" clip-rule="evenodd" fill="#f7dad4" class="fill" d="M93.741,119.497c-1.578,0.93-3.028,1.659-4.643,2.104
	c-1.949,0.536-3.845,1.26-5.783,1.832c-0.976,0.286-1.96,0.307-2.664-0.984c1.067-0.416,2.093-0.815,3.195-1.246
	c-0.169-0.371-0.31-0.676-0.5-1.089c-1.431,0.503-2.788,0.98-4.257,1.495c-0.354-0.43-0.697-0.847-1.131-1.374
	c1.348-0.435,2.505-0.808,3.905-1.26c-1.878-1.567-3.456,0.375-5.09-0.127c-0.423-0.564-0.102-1.017,0.42-1.36
	c0.778-0.512,1.58-0.992,2.391-1.452c0.538-0.305,1.107-0.552,1.525-0.758c2.632-0.441,5.126-0.86,7.724-1.295
	C90.459,115.807,92.063,117.611,93.741,119.497z"/>
<path fill-rule="evenodd" clip-rule="evenodd" fill="#f7dad4" class="fill" d="M78.207,76.044c1.032,4.868,1.982,9.35,2.938,13.846
	c-1.114,0.613-2.312,1.272-3.667,2.018c-1.998-1.5-3.57-3.634-5.559-5.511C73.967,82.986,75.903,79.604,78.207,76.044z"/>
<path fill-rule="evenodd" clip-rule="evenodd" fill="#f7dad4" class="fill" d="M115.513,148.773c0.8,0.043,1.249,0.067,1.881,0.102
	c2.054,9.468,3.701,18.97,5.585,28.577c-0.701,0.16-1.336,0.306-2.076,0.474C118.204,168.376,116.537,158.765,115.513,148.773z"/>
<path fill-rule="evenodd" clip-rule="evenodd" fill="#f7dad4" class="fill" d="M57.619,109.956c1.648-2.59,3.199-5.025,4.858-7.634
	c3.701,1.653,7,3.965,10.551,5.901c-0.085,0.49-0.125,0.84-0.215,1.176c-0.077,0.293-0.212,0.572-0.261,0.698
	C67.582,110.05,62.729,110.004,57.619,109.956z"/>
<path fill-rule="evenodd" clip-rule="evenodd" fill="#f7dad4" class="fill" d="M76.823,186.476c0.134,0.499,0.251,0.943,0.393,1.472
	c3.204,1.299,6.64,1.217,9.978,1.427c0.092,0.819-0.322,0.918-0.748,0.932c-1.037,0.036-2.076,0.067-3.114,0.046
	c-2.329-0.047-4.667-0.058-6.991-0.212c-2.439-0.162-4.731-0.979-6.997-1.782c-0.021-0.852,0.438-0.782,0.936-0.713
	c1.692,0.232,3.305,0.057,4.814-1.017c0.346-1.877-1.13-3.462-0.996-5.323c1.933-0.025,2.944,0.305,4.44,1.471
	c0.367,0,0.834,0.127,1.184-0.021c1.884-0.798,3.77-0.265,5.659-0.11c1.077,0.088,2.157,0.179,3.317,0.275
	c0.098,0.372,0.182,0.685,0.292,1.101c-0.547,0.126-0.985,0.291-1.433,0.32c-2.486,0.157-4.975,0.262-7.459,0.427
	C78.834,184.852,77.63,185.138,76.823,186.476z"/>
<path fill-rule="evenodd" clip-rule="evenodd" fill="#f7dad4" class="fill" d="M117.562,187.684c5.157,1.956,10.199,2.104,15.303,0.886
	c0.323,0.482,0.571,0.852,0.841,1.255c-8.627,0.69-17.125,0.169-25.739-0.923c0-0.826,0-1.562,0-2.384
	c0.368,0.054,0.662,0.106,0.96,0.141c2.174,0.253,4.307,0.358,6.413-0.556c4.037-1.752,8.353-2.46,12.666-3.135
	c0.251-0.04,0.509-0.034,0.95-0.06c0.196,0.391,0.407,0.805,0.679,1.342c-4.028,0.683-7.966,0.782-11.502,2.591
	C117.938,186.939,117.849,187.246,117.562,187.684z"/>
<path fill-rule="evenodd" clip-rule="evenodd" fill="#f7dad4" class="fill" d="M89.955,124.627c2.842-1.684,5.503-3.261,8.207-4.862
	c1.137-0.024,2.077,0.568,3.061,1.163c1.727,1.046,3.529,1.969,5.289,2.961c0.529,0.298,1.025,0.655,1.59,1.02
	C106.524,125.8,92.72,125.585,89.955,124.627z"/>
<path fill-rule="evenodd" clip-rule="evenodd" fill="#f7dad4" class="fill" d="M77.718,123.25c-0.773-0.181-1.355-0.317-1.903-0.445
	c-1.502-1.721-1.357-4.15-2.633-5.921c-0.99,0.3-0.776,0.86-0.58,1.408c0.346,0.965,0.698,1.927,1.104,3.045
	c-0.861-0.546-1.609-1.469-2.097-2.299c-0.509-0.864-0.349-2.043-1.242-2.758c-0.812,1.095-0.812,1.095,1.868,6.013
	c-0.709,0.079-1.327,0.147-2.139,0.237c-2.061-2.46-3.124-5.282-3.036-8.781c3.741-0.308,7.234-0.489,10.624,1.585
	c-0.604,0.483-1.05,0.809-1.461,1.175c-1.272,1.138-1.391,2.167-0.354,3.539C76.55,120.951,77.419,121.729,77.718,123.25z"/>
<path fill-rule="evenodd" clip-rule="evenodd" fill="#f7dad4" class="fill" d="M84.564,81.664c-0.529-2.699-0.91-5.117-0.794-7.534
	c0.119-2.478,0.57-4.942,0.927-7.406c0.389-2.683,2.299-4.002,4.688-5.123c0,0.399,0.055,0.644-0.008,0.852
	c-1.378,4.531-2.501,9.104-2.46,13.886c0.002,0.255,0.007,0.541-0.097,0.761C86.133,78.533,85.416,79.951,84.564,81.664z"/>
<path fill-rule="evenodd" clip-rule="evenodd" fill="#f7dad4" class="fill" d="M70.851,177.917c-0.523-0.111-0.809-0.172-1.081-0.23
	c0.522-9.895,7.433-45.41,9.287-47.622c0.438,0.473,0.234,0.986,0.1,1.449c-2.104,7.198-3.033,14.635-4.469,21.97
	c-0.576,2.95-0.912,5.947-1.402,8.916c-0.185,1.123-0.457,2.235-0.751,3.336c-0.726,2.721-1.186,5.469-1.204,8.299
	C71.322,175.263,71.035,176.489,70.851,177.917z"/>
<path fill-rule="evenodd" clip-rule="evenodd" fill="#f7dad4" class="fill" d="M85.502,101.296c2.234,1.613,4.41,3.182,6.719,4.848
	c-0.939,1.214-1.869,2.417-2.945,3.806c-2.396-1.764-4.68-3.443-7.117-5.236C83.343,103.503,84.406,102.415,85.502,101.296z"/>
<path fill-rule="evenodd" clip-rule="evenodd" fill="#f7dad4" class="fill" d="M141.051,134.229c-0.77,1.5-1.441,2.814-2.195,4.289
	c-1.932-0.936-3.756-1.82-5.758-2.79c0.806-1.472,1.536-2.807,2.346-4.286C137.283,132.357,139.019,133.219,141.051,134.229z"/>
<path fill-rule="evenodd" clip-rule="evenodd" fill="#f7dad4" class="fill" d="M150.104,138.895c-0.567,1.172-1.033,2.137-1.581,3.265
	c-2.196-0.773-4.305-1.517-6.586-2.321c0.646-1.454,1.198-2.7,1.813-4.084C145.922,136.828,147.898,137.805,150.104,138.895z"/>
<path fill-rule="evenodd" clip-rule="evenodd" fill="#f7dad4" class="fill" d="M74.064,102.471c-0.76-0.778-0.333-1.496-0.23-2.196
	c0.787,0,1.443,0,2.156,0c1.823-1.675,3.438-3.452,3.539-6.267c0.626-0.364,1.317-0.765,2.221-1.29
	c0.052,0.589,0.18,0.944,0.09,1.233c-0.274,0.885-0.57,1.775-0.969,2.609c-0.979,2.034-2.416,3.743-4.045,5.277
	C75.926,102.685,75.452,102.728,74.064,102.471z"/>
<path fill-rule="evenodd" clip-rule="evenodd" fill="#f7dad4" class="fill" d="M88.9,73.806c-0.075-2.378,1.634-8.835,2.543-10.222
	c0.738,0.989,1.429,1.914,2.14,2.864C91.964,68.99,90.432,71.398,88.9,73.806z"/>
<path fill-rule="evenodd" clip-rule="evenodd" fill="#f7dad4" class="fill" d="M53.041,69.905c0.764,0.765,1.396,1.396,2.021,2.023
	c-0.415,1.885,0.283,3.792-0.603,5.807c-0.979-0.823-1.86-1.565-2.786-2.344C52.116,73.619,52.545,71.898,53.041,69.905z"/>
<path fill-rule="evenodd" clip-rule="evenodd" fill="#f7dad4" class="fill" d="M58.789,81.399c-1.329-0.556-2.001-1.641-3.09-2.436
	c0.196-1.658,0.398-3.358,0.613-5.162c1.1,0.454,1.707,1.473,2.477,2.275C58.789,77.826,58.789,79.538,58.789,81.399z"/>
<path fill-rule="evenodd" clip-rule="evenodd" fill="#f7dad4" class="fill" d="M82.989,69.419c-0.038,0.717-0.003,1.445-0.126,2.147
	c-0.408,2.38-0.26,4.744,0.069,7.115c0.236,1.691,0.405,3.392,0.616,5.086c0.088,0.701-0.175,1.258-0.658,1.784
	c-1.044-5.385-1.912-10.74-0.256-16.122C82.752,69.426,82.871,69.422,82.989,69.419z"/>
<path fill-rule="evenodd" clip-rule="evenodd" fill="#f7dad4" class="fill" d="M61.459,98.361c0.155-0.954,0.309-1.9,0.503-3.095
	c1.238,0.647,2.281,1.191,3.393,1.772c0.118,1.194,0.236,2.407,0.354,3.63C64.57,100.544,62.604,99.5,61.459,98.361z"/>
<path fill-rule="evenodd" clip-rule="evenodd" fill="#f7dad4" class="fill" d="M152.013,143.239c0.327-0.993,0.628-1.902,0.987-2.996
	c1.88,0.854,3.607,1.646,4.961,3.086C156.969,144.418,155.606,144.381,152.013,143.239z"/>
<path fill-rule="evenodd" clip-rule="evenodd" fill="#f7dad4" class="fill" d="M60.164,77.309c0.983,0.974,1.705,1.688,2.262,2.239
	c0,1.787,0,3.31,0,5.235c-0.973-0.779-1.665-1.331-2.262-1.808C60.164,81.1,60.164,79.385,60.164,77.309z"/>
<path fill-rule="evenodd" clip-rule="evenodd" fill="#f7dad4" class="fill" d="M65.373,95.489c0.51-0.758,0.881-1.309,1.381-2.053
	c0.919,0.886,1.741,1.708,2.596,2.496c0.832,0.771,1.698,1.507,2.588,2.292c-0.091,0.337-0.166,0.611-0.277,1.019
	C69.535,97.974,67.523,96.772,65.373,95.489z"/>
<path fill-rule="evenodd" clip-rule="evenodd" fill="#f7dad4" class="fill" d="M73.652,91.506c-0.062,0.65-0.157,1.646-0.253,2.643
	c-0.127,0.049-0.254,0.098-0.381,0.147c-0.831-0.703-1.663-1.407-2.487-2.104c-0.068-1.358-0.129-2.608-0.19-3.859
	c0.127-0.053,0.254-0.107,0.382-0.161C71.624,89.197,72.527,90.224,73.652,91.506z"/>
<path fill-rule="evenodd" clip-rule="evenodd" fill="#f7dad4" class="fill" d="M78.399,95.355c-0.515,0.8-0.924,1.436-1.453,2.26
	c-0.997-0.84-1.852-1.561-2.768-2.334c0.236-0.917,0.45-1.751,0.722-2.8C76.129,93.489,77.19,94.361,78.399,95.355z"/>
<path fill-rule="evenodd" clip-rule="evenodd" fill="#f7dad4" class="fill" d="M66.186,83.632c-0.166,1.397-0.311,2.609-0.491,4.135
	c-0.832-0.707-1.471-1.249-2.166-1.84c0.136-1.407,0.268-2.78,0.433-4.508C64.807,82.26,65.466,82.916,66.186,83.632z"/>
<path fill-rule="evenodd" clip-rule="evenodd" fill="#f7dad4" class="fill" d="M67.321,84.956c0.729,0.623,1.218,1.037,1.688,1.439
	c0.082,1.472,0.157,2.846,0.233,4.22c-0.107,0.062-0.216,0.124-0.325,0.185c-0.754-0.644-1.508-1.287-2.23-1.904
	C66.901,87.574,67.086,86.423,67.321,84.956z"/>
<path fill-rule="evenodd" clip-rule="evenodd" fill="#f7dad4" class="fill" d="M49.222,70.093c0.867-0.563,1.482-1.763,2.682-0.958
	c-0.351,1.688-0.673,3.252-1.044,5.049C49.467,72.969,49.056,71.722,49.222,70.093z"/>
<path fill-rule="evenodd" clip-rule="evenodd" fill="#f7dad4" class="fill" d="M66.77,97.792c0.905,0.567,1.542,0.965,2.248,1.407
	c0.131,1.169,0.26,2.322,0.423,3.786c-0.757-0.391-1.235-0.638-1.632-0.843c-0.357-0.738-0.664-1.374-1.039-2.151
	C66.77,99.485,66.77,98.823,66.77,97.792z"/>
<path fill-rule="evenodd" clip-rule="evenodd" fill="#f7dad4" class="fill" d="M58.748,93.948c0.74,0.265,1.311,0.467,1.992,0.711
	c-0.102,0.989-0.192,1.894-0.294,2.892c-1.162-0.239-1.81-1.036-2.644-1.846C58.087,95.176,58.37,94.652,58.748,93.948z"/>
<path fill-rule="evenodd" clip-rule="evenodd" fill="#f7dad4" class="fill" d="M132.106,135.176c-0.295-0.078-0.525-0.139-0.961-0.254
	c0.704-1.516,1.363-2.934,2.043-4.397c0.404,0.121,0.636,0.189,0.894,0.267c0.151,0.91-0.404,1.513-0.754,2.178
	C132.968,133.658,132.577,134.331,132.106,135.176z"/>
<path fill-rule="evenodd" clip-rule="evenodd" fill="#f7dad4" class="fill" d="M140.917,139.461c-0.466-0.302-0.665-0.431-0.896-0.58
	c0.098-0.312,0.142-0.567,0.252-0.791c0.527-1.056,1.074-2.104,1.602-3.131c0.654-0.036,0.848,0.268,0.648,0.76
	C142.042,136.908,141.515,138.075,140.917,139.461z"/>
<path fill-rule="evenodd" clip-rule="evenodd" fill="#f7dad4" class="fill" d="M150.961,142.926c-0.49-0.17-0.838-0.292-1.363-0.476
	c0.496-1.074,0.936-2.022,1.412-3.053c0.354,0.143,0.572,0.232,0.955,0.386C151.638,140.811,151.32,141.805,150.961,142.926z"/>
<path fill-rule="evenodd" clip-rule="evenodd" fill="#f7dad4" class="fill" d="M70.79,100.56c0.625,1.034,0.717,2.205,0.913,3.435
	C70.529,103.447,70.354,102.849,70.79,100.56z"/>
<path fill-rule="evenodd" clip-rule="evenodd" fill="#f7dad4" class="fill" d="M113.303,104.044c-1.377-2.385-2.661-4.61-3.988-6.91
	c1.963-1.753,3.877-3.463,5.782-5.167c1.241,1.107,3.843,5.822,4.321,7.896C117.46,101.203,115.43,102.59,113.303,104.044z"/>
</svg>
