<svg version="1.1" id="svg" xmlns="http://www.w3.org/2000/svg" xmlns:xlink="http://www.w3.org/1999/xlink" x="0px" y="0px"
	 width="200px" height="200px" viewBox="0 0 200 200" enable-background="new 0 0 200 200" xml:space="preserve">
<path class="stroke" fill="#205165"  fill-rule="evenodd" clip-rule="evenodd" d="M187.919,116.703c0.651,0.254,1.181,0.493,1.731,0.669
	c1.317,0.423,1.916,1.282,1.682,2.639c-0.234,1.366-0.518,2.728-0.857,4.072c-0.293,1.158-1.03,1.646-2.206,1.681
	c-3.39,0.101-6.779,0.287-10.169,0.311c-4.52,0.031-9.043,0.015-13.559-0.146c-1.218-0.043-2.408-0.704-3.621-1.048
	c-1.127-0.319-2.251-0.686-3.402-0.87c-3.025-0.484-6.058-0.93-9.101-1.281c-0.926-0.107-1.753-0.13-2.161-1.124
	c0.441-1.89,0.881-3.773,1.387-5.94c-3.284,1.799-5.284,5.074-8.773,6.004c-0.116-0.08-0.233-0.161-0.349-0.241
	c0.407-2.072,0.815-4.144,1.289-6.556c-1.634,0.984-2.995,1.795-4.347,2.621c-1.06,0.647-2.084,1.358-3.176,1.946
	c-0.408,0.22-0.961,0.17-1.602,0.268c0.456-2.316,0.85-4.31,1.28-6.497c-1.63,0.946-3.062,1.771-4.488,2.607
	c-1.395,0.819-2.557,2.04-4.403,2.705c-0.373-2.537,0.215-4.766,0.436-7.292c-0.569,0.239-1.008,0.362-1.381,0.592
	c-1.698,1.049-3.363,2.151-5.072,3.182c-0.451,0.272-1.016,0.355-1.832,0.625c0.245-2.521,0.454-4.684,0.664-6.847
	c-0.106-0.044-0.212-0.088-0.318-0.133c-1.346,0.957-2.687,1.922-4.04,2.869c-1.017,0.709-2.032,1.42-3.085,2.073
	c-0.274,0.17-0.684,0.123-1.298,0.215c0.192-2.438,0.365-4.625,0.537-6.813c-0.086-0.071-0.172-0.143-0.258-0.214
	c-0.961,0.724-1.96,1.402-2.874,2.181c-1.522,1.295-3.031,2.597-4.954,3.269c-0.33,0.115-0.705,0.101-1.302,0.177
	c0.382-2.661,0.729-5.084,1.077-7.507c-0.089-0.074-0.179-0.148-0.268-0.223c-1.327,0.875-2.65,1.754-3.982,2.621
	c-1.354,0.882-2.719,1.752-4.042,2.604c-1.111-0.694-0.731-1.594-0.66-2.393c0.148-1.692,0.341-3.381,0.521-5.116
	c-3.888,0.663-6.661,3.301-10.137,5.063c-0.116-0.557-0.285-0.937-0.254-1.3c0.136-1.589,0.334-3.172,0.5-4.759
	c0.026-0.254,0.004-0.513,0.004-1.169c-2.393,1.87-4.577,3.577-6.775,5.295c-0.327-0.141-0.585-0.252-0.789-0.34
	c0-2.433,0-4.79,0-7.229c-2.905,1.442-4.849,4.044-7.597,5.584c-0.27-0.423-0.401-0.604-0.505-0.8
	c-0.104-0.197-0.18-0.41-0.017-0.646c-0.229-1.792-0.458-3.585-0.701-5.497c-1.548,1.062-2.875,2.045-4.272,2.914
	c-1.318,0.821-2.383,2.249-4.34,2.215c0-2.114,0-3.95,0-5.968c-2.045,1.922-3.728,4.036-6.579,4.923
	c-0.233-2.263-0.45-4.37-0.688-6.675c-0.441,0.319-0.754,0.521-1.041,0.755c-1.394,1.137-2.77,2.296-4.18,3.413
	c-0.291,0.23-0.698,0.314-1.316,0.58c-0.17-2.468-0.32-4.655-0.493-7.178c-2.173,1.904-4.096,3.589-6.008,5.265
	c-0.346-0.095-0.59-0.162-0.9-0.247c-0.302-2.02-0.604-4.033-0.938-6.257c-2.293,1.683-4.526,3.322-7.023,5.156
	c-0.219-0.658-0.356-0.961-0.421-1.279c-0.437-2.152-0.858-4.307-1.289-6.46c-0.012-0.056-0.079-0.1-0.171-0.209
	c-2.969,1.365-4.998,4.054-7.866,5.908c-0.652-2.057-0.095-3.941-0.168-6.196c-1.458,0.991-2.687,1.807-3.895,2.653
	c-1.195,0.837-2.369,1.705-3.627,2.613c-0.958-0.218-1.016-1.071-1.009-1.818c0.029-2.957,0.102-5.914,0.215-8.869
	c0.058-1.5,0.221-2.999,0.37-4.494c0.031-0.308,0.211-0.601,0.353-0.984c3.533-0.673,7.076-0.292,10.594-0.353
	c5.104-0.088,10.21-0.005,15.315-0.03c4.966-0.024,9.932-0.056,14.896-0.154c3.733-0.074,7.465-0.314,11.199-0.376
	c4.632-0.078,9.268,0.021,13.898-0.086c4.218-0.097,8.43-0.429,12.647-0.541c3.419-0.091,6.843,0.041,10.263-0.016
	c2.578-0.043,5.151-0.275,7.729-0.335c1.789-0.042,3.581,0.065,5.371,0.109c3.332,0.082,6.663,0.236,9.994,0.231
	c5.111-0.008,10.221-0.116,15.331-0.197c2.652-0.042,5.303-0.091,7.952-0.185c1.864-0.065,3.723-0.249,5.587-0.308
	c2.333-0.073,4.67-0.054,7.005-0.113c1.106-0.028,2.21-0.155,3.317-0.221c0.421-0.025,0.845-0.004,1.383-0.004
	c0.006-0.005,0.133-0.067,0.194-0.169c0.873-1.445,2.262-1.879,3.824-1.932c4.369-0.146,8.739-0.306,13.109-0.398
	c2.637-0.056,5.276,0.009,7.915,0.01c1.503,0,2.904,0.344,4.14,1.223c0.256,0.183,0.442,0.464,0.779,0.829
	c-0.096,1.821-0.195,3.727-0.299,5.632c-0.075,1.367-0.755,2.251-2.262,2.593C188.465,93.215,188.083,104.885,187.919,116.703z
	 M177.814,82.439c-1.578-0.137-2.962-0.272-4.348-0.373c-1.234-0.09-2.471-0.2-3.705-0.177c-0.412,0.008-0.94,0.304-1.202,0.635
	c-0.916,1.16-1.742,2.391-2.597,3.599c-1.11,1.571-2.24,3.129-3.312,4.727c-0.612,0.911-1.201,1.853-1.655,2.847
	c-0.268,0.588-0.469,1.358-0.324,1.956c0.682,2.804,1.436,5.595,2.275,8.356c0.843,2.77,1.783,5.511,2.75,8.24
	c0.399,1.125,0.977,2.187,1.491,3.316c3.266,0.202,6.406,0.396,9.762,0.603C177.24,104.842,177.527,93.635,177.814,82.439z"/>
<path fill-rule="evenodd" clip-rule="evenodd" fill="#ffffff" class="fill" d="M126.271,107.209c-2.758,1.612-5.195,3.036-7.832,4.578
	c0-1.778,0.017-3.304-0.005-4.83c-0.023-1.647-0.545-1.984-1.936-1.156c-2.312,1.375-4.58,2.825-7.14,4.414
	c0.104-2.243,0.198-4.256,0.289-6.207c-0.507-0.68-0.966-0.815-1.632-0.351c-2.089,1.457-4.209,2.87-6.318,4.298
	c-0.129,0.087-0.265,0.162-0.416,0.252c0-2.376,0-4.69,0-7.183c-0.072-0.031-0.354-0.151-0.601-0.257
	c-2.651,1.626-5.227,3.205-7.915,4.854c-0.443-2.188,0.513-4.345,0.441-6.744c-3.451,1.628-6.595,3.111-10.03,4.732
	c0.396-2.302,0.767-4.452,1.171-6.796c-0.246-0.122-0.579-0.289-0.796-0.396c-2.678,1.897-5.189,3.678-7.703,5.459
	c-0.113-0.024-0.227-0.048-0.341-0.072c0-2.451,0-4.901,0-7.353c-0.142-0.085-0.283-0.17-0.426-0.255
	c-0.422,0.226-0.887,0.397-1.261,0.686c-1.979,1.528-3.935,3.086-5.918,4.648c-1.317-2.232-0.455-4.65-0.894-7.163
	c-0.58,0.232-1.04,0.327-1.396,0.572c-2.306,1.587-4.588,3.207-6.94,4.859c0-1.856,0-3.674,0-5.472
	c-0.662-0.53-1.099-0.378-1.669,0.098c-1.787,1.491-3.643,2.899-5.74,4.552c-0.223-2.269-0.413-4.21-0.625-6.373
	c-0.66,0.204-1.137,0.237-1.465,0.475c-1.347,0.975-2.647,2.013-3.966,3.026c-0.271,0.209-0.548,0.414-0.894,0.675
	c-0.922-1.976-0.789-3.899-0.535-5.92c-0.367-0.662-0.901-0.497-1.423-0.102c-1.273,0.962-2.524,1.953-3.794,2.919
	c-0.457,0.349-0.94,0.663-1.629,1.143c-0.185-1.876-0.345-3.504-0.5-5.083c-1.58-0.372-2.586,0.407-3.584,1.022
	c-1.14,0.703-2.171,1.579-3.266,2.358c-0.309,0.22-0.67,0.365-1.244,0.669c-0.572-2.332-1.107-4.515-1.711-6.976
	c-0.584,0.161-1.173,0.185-1.591,0.464c-1.925,1.282-3.801,2.637-5.882,4.096c-0.09-1.65-0.174-3.214-0.267-4.944
	c-0.096-0.106-0.305-0.339-0.554-0.617c-1.012,0.897-1.959,1.736-2.905,2.575c-0.028-0.048-0.058-0.096-0.086-0.144
	c-1.166,0.662-2.332,1.324-3.683,2.09c0-3.26,0-6.308,0-9.463c1.633,0,3.105,0.003,4.579,0c2.639-0.006,5.278-0.05,7.917-0.015
	c2.628,0.035,5.254,0.199,7.881,0.212c3.099,0.016,6.198-0.074,9.297-0.111c2.413-0.028,4.826-0.041,7.239-0.069
	c3.435-0.041,6.868-0.071,10.302-0.139c3.635-0.072,7.27-0.168,10.903-0.279c2.601-0.08,5.198-0.25,7.799-0.295
	c3.491-0.06,6.984-0.01,10.476-0.058c3.661-0.05,7.319-0.188,10.979-0.236c2.996-0.039,5.994-0.045,8.99,0.017
	c2.621,0.055,5.238,0.312,7.858,0.319c3.1,0.009,6.201-0.157,9.302-0.238c1.696-0.044,3.395-0.039,5.089-0.111
	c2.087-0.088,4.171-0.233,6.257-0.355c2.067-0.121,4.135-0.232,6.202-0.368c1.556-0.101,3.108-0.276,4.664-0.334
	c0.938-0.035,1.882,0.139,2.823,0.134c2.282-0.011,4.564-0.076,6.846-0.112c0.742-0.012,1.485-0.002,2.42-0.002
	c-0.595,0.954-1.115,1.795-1.642,2.632c-1.129,1.792-2.254,3.585-3.393,5.371c-1.193,1.871-2.438,3.709-3.587,5.606
	c-0.839,1.387-1.606,2.822-2.32,4.277c-0.798,1.625,0.125,3.044,0.719,4.467c0.774,1.857,1.625,3.683,2.427,5.528
	c1.403,3.227,2.792,6.46,4.192,9.688c0.946,2.182,1.901,4.358,2.846,6.54c0.061,0.142,0.075,0.304,0.172,0.716
	c-3.446-0.43-6.759-0.844-10.344-1.291c0.623-2.705,1.208-5.239,1.77-7.679c-0.876-0.775-1.45-0.401-2.034-0.007
	c-2.072,1.399-4.148,2.791-6.479,4.359c0.324-2.041,0.602-3.785,0.922-5.798c0.021,0.024-0.156-0.186-0.379-0.453
	c-2.81,1.786-5.561,3.536-8.312,5.285c-0.122-0.055-0.244-0.109-0.365-0.164c0.299-1.989,0.598-3.979,0.909-6.051
	c-0.236-0.152-0.497-0.32-0.643-0.415c-2.826,1.745-5.532,3.416-8.474,5.233c0-0.575-0.057-0.938,0.009-1.276
	c0.311-1.587,0.679-3.164,0.972-4.753C126.515,108.285,126.364,107.89,126.271,107.209z M14.46,81.008
	c1.153,1.652,2.167,1.694,2.923,0.247c-0.322-1.583-0.853-1.938-2.435-1.565C14.795,80.104,14.627,80.557,14.46,81.008z"/>
<path fill-rule="evenodd" clip-rule="evenodd" fill="#ffffff" class="fill" d="M163.99,121.253c-0.722-0.203-1.511-0.425-2.431-0.684
	c0.222-0.806,0.37-1.345,0.519-1.888c1.004,0.101,2.086-0.714,2.676,0.602C165.065,119.979,164.921,120.382,163.99,121.253z"/>
<path fill-rule="evenodd" clip-rule="evenodd" fill="#ffffff" class="fill" d="M163.866,80.622c-0.757-0.338-1.284-0.573-1.764-0.788
	c-0.123-0.367-0.216-0.642-0.329-0.98c0.132-0.309,0.281-0.66,0.408-0.959c1.531-0.431,1.833-0.26,2.609,1.541
	C164.533,79.765,164.221,80.167,163.866,80.622z"/>
<path fill-rule="evenodd" clip-rule="evenodd" fill="#ffffff" class="fill" d="M152.754,98.454c0.125-0.533,0.24-1.021,0.404-1.714
	c0.744,0.11,1.43,0.211,2.042,0.302C155.472,98.715,154.678,99.146,152.754,98.454z"/>
</svg>
