<svg version="1.1" id="svg" xmlns="http://www.w3.org/2000/svg" xmlns:xlink="http://www.w3.org/1999/xlink" x="0px" y="0px"
	 width="200px" height="200px" viewBox="0 0 200 200" enable-background="new 0 0 200 200" xml:space="preserve">
<path class="stroke" fill="#6a2906"  fill-rule="evenodd" clip-rule="evenodd" d="M118.93,112.654c-0.313-0.627-0.547-1.096-0.808-1.618
	c1.068-1.306,2.569-1.014,4.193-1.215c0.433-1.259,0.902-2.631,1.407-4.097c2.207-0.956,4.209-0.127,6.268,0.659
	c2.076,0.794,3.474,2.409,5.152,3.99c0.983-1.162,2.022-2.204,2.831-3.401c0.72-1.065,1.506-1.758,2.838-1.792
	c0.985-0.025,1.968-0.179,2.983-0.279c0.257,0.727,0.449,1.271,0.66,1.863c2.847,0.141,5.082-2.133,8.098-2.146
	c0.252,1.239,0.484,2.377,0.745,3.655c0.777,0.085,1.578,0.174,2.559,0.282c0.263,0.619,0.557,1.312,0.893,2.103
	c0.434,0.211,0.957,0.465,1.515,0.736c0.58,5.511-0.551,10.388-5.021,14.044c-2.615,2.14-5.736,2.495-8.913,1.97
	c-3.872-0.639-5.666-1.202-9.255-4.294c-1.603,0.918-3.129,1.906-4.752,2.698c-2.694,1.315-5.52,1.711-8.435,0.729
	c-1.122-0.377-2.239-0.769-3.359-1.159c-2.499-0.873-4.019-2.885-5.485-4.887c-0.875-1.195-0.224-3.285,1.22-4.406
	c1.214-0.943,2.49-1.803,3.737-2.705C118.279,113.183,118.544,112.959,118.93,112.654z M140.302,107.296
	c-2.092,2.088-3.72,4.388-4.536,7.174c-0.517,1.766-1.036,3.674-0.081,5.36c1.166,2.056,2.733,3.827,5.025,4.817
	c2.125,0.917,4.341,1.049,6.597,1.023c0.109-0.002,0.22-0.077,0.325-0.115c0.189-0.396,0.377-0.789,0.65-1.357
	c0.5,0.428,0.868,0.743,1.237,1.056c3.54-0.689,6.536-3.999,6.141-6.946c-2.066-0.125-4.163-0.251-6.375-0.385
	c-0.162-0.958-0.296-1.742-0.414-2.442c-2.436-0.667-4.756-1.304-6.891-1.89c-1.457-2.207,0.119-4.259-0.271-6.295
	C141.185,107.296,140.729,107.296,140.302,107.296z M124.072,118.727c0.24-0.907,0.432-1.63,0.631-2.385
	c1.196-0.156,2.299-0.301,3.495-0.458c1.69-2.267,1.728-4.877,1.589-7.572c-1.259-0.725-2.496-1.124-3.852-0.87
	c-0.433,1.414-0.838,2.74-1.215,3.974c-1.176,0.261-2.087,0.465-3.008,0.669c0.045,0.559,0.085,1.06,0.124,1.546
	c-2.416,1.56-5.126,2.603-6.787,5.184c0.445,0.645,0.835,1.208,1.14,1.652C119.207,121.119,121.49,119.495,124.072,118.727z
	 M143.289,108.443c-0.193,1.418-0.828,2.566-0.283,3.892c2.266,1.17,4.764,1.564,7.301,1.961c0.099,0.833,0.188,1.576,0.295,2.5
	c1.83,0,3.61,0,5.35,0c0.759-1.448,0.57-2.826,0.145-4.195c-0.619-0.797-1.227-1.58-1.834-2.361
	c-0.967-0.064-1.898-0.126-2.961-0.197c-0.24-0.908-0.461-1.733-0.729-2.746C148.164,107.676,145.798,108.048,143.289,108.443z
	 M131.934,109.978c-0.175,0.02-0.348,0.041-0.523,0.061c-0.083,0.633-0.1,1.284-0.262,1.895c-0.318,1.187-0.674,2.369-1.1,3.521
	c-0.454,1.235-1.358,1.872-2.729,1.833c-0.505-0.014-1.017,0.148-1.515,0.228c-0.165,0.702-0.298,1.271-0.477,2.022
	c-2.102,0.812-4.274,1.651-6.859,2.65c2.391,1.348,4.42,2.435,6.825,2.616c0.375-0.475,0.318-1.492,1.422-0.905
	c-0.037,0.365-0.077,0.772-0.12,1.189c2.766-0.112,4.582-0.944,5.666-2.567c-0.262-0.317-0.531-0.642-0.92-1.112
	c0.658-0.217,1.128-0.371,1.788-0.588C133.087,117.188,132.783,113.551,131.934,109.978z"/>
<path class="stroke" fill="#6a2906"  fill-rule="evenodd" clip-rule="evenodd" d="M125.888,130.53c2.227-2.267,5.228-2.245,8.44-2.48
	c0.443,0.622,0.932,1.309,1.529,2.149c0.885-0.048,1.993-0.109,3.219-0.177c0.968,1.082,1.947,2.174,3.203,3.574
	c0.258,1.366,0.588,3.096,0.938,4.939c0.525,0.15,1.133,0.324,1.781,0.51c0.497,1.259,0.332,2.351-0.65,3.249
	c-2.708,2.472-5.709,4.548-9.402,5.022c-1.943,0.248-3.985-0.194-5.974-0.408c-0.754-0.081-1.48-0.396-2.275-0.62
	c-3.477,2.508-7.309,2.808-11.278,1.49c-2.479-0.823-4.338-2.317-4.717-5.186c-0.277-2.102-0.901-4.165-1.094-6.27
	c-0.177-1.95,0.121-2.152,2.058-2.803c0.597-1.754,1.684-3.199,3.401-4.064c0.62-0.311,1.344-0.635,2.005-0.602
	c2.851,0.144,5.824-0.229,8.35,1.627C125.501,130.541,125.65,130.509,125.888,130.53z M117.281,145.635l-0.04-0.02
	c2.542,0.625,5.054,0.913,7.646-0.562c-0.507-0.34-0.829-0.557-0.951-0.64c-0.126-1.149-0.231-2.109-0.332-3.027
	c-0.577-0.164-0.997-0.284-1.676-0.476c0.654-0.455,1.101-0.765,1.246-0.866c0.479-2.826,0.908-5.366,1.357-8.025
	c-1.103-0.698-2.288-1.524-3.84-1.456c-0.143,1.325-0.273,2.539-0.387,3.584c-0.654,0.441-1.086,0.731-1.479,0.997
	c-0.312,3.515-2.979,5.461-4.971,7.804C114.274,144.896,115.739,145.315,117.281,145.635z M135.501,138.751
	c0.305-1.186,0.562-2.187,0.821-3.194c-0.657-0.365-1.21-0.671-1.693-0.939c-0.213-1.684-0.412-3.25-0.617-4.838
	c-2.744-0.505-4.878,0.404-6.408,2.376c-1.848,2.382-2.525,5.202-2.094,8.215c0.377,2.636,2.756,5.102,5.199,5.424
	c4.728,0.624,8.511-1.204,11.679-4.576c0.048-0.051-0.022-0.213-0.039-0.338C140.112,140.186,137.871,139.489,135.501,138.751z
	 M119.107,133.282c0-0.765,0-1.499,0-2.26c-1.242-0.389-2.305-0.396-3.416,0.03c-1.727,0.663-1.463,2.419-2.055,3.673
	c-0.641,0.281-1.225,0.536-1.878,0.821c0.29,2.049,0.216,4.125,1.477,5.997c2.296-1.917,4.073-3.981,4.371-7.001
	C118.066,134.156,118.517,133.778,119.107,133.282z M137.204,137.971c1.214,0.315,2.368,0.615,3.433,0.891
	c1.418-3.169-0.609-4.804-2.558-6.686c-0.663,0.095-1.44,0.208-2.325,0.335c0.095,0.599,0.155,0.978,0.205,1.292
	c0.585,0.265,1.061,0.481,1.779,0.807C137.578,135.618,137.416,136.635,137.204,137.971z"/>
<path class="stroke" fill="#6a2906"  fill-rule="evenodd" clip-rule="evenodd" d="M150.185,136.287c1.54-1.201,3.284-0.698,4.974-0.938
	c0.241-0.368,0.584-0.726,0.738-1.151c1.215-3.344,4-5.111,6.808-6.865c0.896-0.561,1.817-0.59,2.677-0.008
	c3.321,2.247,6.416,4.799,7.927,8.622c1.418,3.587,0.919,7.146-1.426,10.256c-0.677,0.898-1.767,1.586-2.804,2.096
	c-3.16,1.556-6.502,2.303-9.978,1.262c-1.28-0.384-2.513-1.059-3.631-1.805c-1.269-0.85-2.379-1.938-3.575-2.904
	c-2.288-1.851-2.359-4.357-2.062-6.965C149.891,137.369,150.055,136.862,150.185,136.287z M162.09,140.4
	c-3.001,1.69-6.256,1.184-9.247,2.266c1.043,1.54,2.354,2.483,3.731,3.212c0.578-0.116,1.019-0.204,1.443-0.289
	c0.232,0.453,0.413,0.809,0.689,1.35c0.811-0.051,1.638-0.102,2.609-0.162c0.369,0.766,1.121,1.025,2.162,0.664
	c0.082-0.478-0.156-1.234,0.87-1.27c0.213,0.306,0.462,0.662,0.774,1.111c2.375-0.998,4.815-1.771,6.297-4.136
	c-0.338-0.276-0.643-0.524-0.954-0.779c0.565-0.51,0.857-0.634,1.614-0.708c0.992-4.726-1.762-8.81-6.916-11.918
	c-0.088,0.118-0.254,0.245-0.28,0.396c-0.163,0.93-0.327,1.861-0.434,2.799c-0.131,1.158-0.482,2.115-1.45,2.92
	c-0.508,0.421-0.745,1.296-0.877,2.009C161.977,138.659,162.09,139.5,162.09,140.4z M151.944,140.926
	c2.284,0.133,6.759-0.535,8.513-1.288c0.404-1.888,0.137-4.208,2.508-5.225c0.165-1.479,0.318-2.857,0.517-4.626
	c-1.135,0.582-1.897,0.971-2.585,1.322c-0.223,0.769-0.402,1.388-0.605,2.091c-0.608,0.299-1.23,0.605-1.679,0.825
	c-0.519,1.159-0.96,2.15-1.341,3.001c-1.9,0.401-3.597-0.83-5.2,0.398C151.601,138.547,151.515,139.729,151.944,140.926z"/>
<path class="stroke" fill="#6a2906"  fill-rule="evenodd" clip-rule="evenodd" d="M144.9,149.004c0.879-0.442,1.604-0.807,2.353-1.183
	c1.199,1.043,2.305,2.004,3.441,2.993c0.943-0.441,1.839-0.86,2.798-1.31c1.595,1.513,1.583,3.43,1.129,5.155
	c-0.471,1.794-1.355,3.539-2.348,5.122c-1.123,1.792-2.827,3-4.958,3.495c-0.862,0.2-1.708,0.475-2.567,0.692
	c-3.801,0.961-9.194-0.708-10.957-6.147c-0.29-0.898-0.57-1.815-0.706-2.745c-0.123-0.843-0.336-1.792,0.661-2.463
	c0.471,0.073,0.988,0.154,1.793,0.28c1.1-0.72,2.459-1.455,3.635-2.417C141.782,148.342,141.746,148.295,144.9,149.004z
	 M147.504,161.335c3.146-1.379,5.778-6.477,4.537-8.924c-2.273,0.968-3.571,3.482-6.43,4.037c-0.921-0.562-2.012-1.228-3.234-1.974
	c-0.833,0.331-1.771,0.671-2.682,1.073c-1.181,0.52-2.266,0.545-3.301-0.352c-0.273-0.237-0.674-0.328-1.096-0.521
	c-0.302,1.386,0.317,2.287,0.869,3.138c0.584-0.135,1.021-0.238,1.459-0.34c0.065,0.141,0.131,0.28,0.195,0.42
	c-0.361,0.292-0.724,0.583-1.086,0.875c1.523,2.158,3.332,3.311,5.555,3.545c0.368-0.281,0.724-0.555,1.076-0.824
	c0.33,0.304,0.579,0.534,0.736,0.679c1.234,0.22,1.619-0.696,2.181-1.444C146.742,160.952,147.137,161.15,147.504,161.335z
	 M144.186,151.75c-0.01-0.138-0.022-0.276-0.033-0.414c-0.951-0.142-2.061-0.664-2.82-0.345c-1.473,0.619-2.738,1.723-4.207,3.023
	c2.42,1.092,3.878-0.875,5.672-1.053c1.099,0.756,2.2,1.515,3.375,2.324c1.05-0.844,1.948-1.565,3.088-2.482
	c-0.924-0.898-1.667-1.62-2.329-2.265C145.878,151.003,145.033,151.377,144.186,151.75z"/>
<path class="stroke" fill="#6a2906"  fill-rule="evenodd" clip-rule="evenodd" d="M72.523,53.572c1.539-0.152,2.979-0.294,4.515-0.446
	c0.601-1.511,0.177-3.117,0.244-4.682c0.067-1.538,0.122-3.058,0.8-4.544c2.596-0.766,5.155-0.371,7.883-0.153
	c0.134,0.609,0.361,1.159,0.357,1.708c-0.012,2.007-0.105,4.014-0.16,6.021c-0.016,0.587-0.002,1.175-0.002,1.836
	c1.473,0.538,3.209,0.072,4.521,1.12c-0.369,1.624-6.656,8.531-9.342,10.271c-1.479,0.023-2.172-1.238-2.993-2.157
	C73.455,57.062,72.598,55.736,72.523,53.572z"/>
<path class="stroke" fill="#6a2906"  fill-rule="evenodd" clip-rule="evenodd" d="M172.285,53.034c-0.322-1.53-1.22-2.442-2.583-2.871
	c-1.177-0.371-2.42-0.613-3.649-0.708c-3.71-0.289-7.112,0.981-10.504,2.248c-4.049,1.512-8.082,3.059-12.146,4.527
	c-2.001,0.723-4.13,1.128-6.064,1.985c-3.842,1.698-7.636,3.518-11.357,5.463c-3.04,1.589-5.886,3.518-8.352,5.946
	c-1.212,1.194-2.403,2.412-3.533,3.548c-3.054-0.897-6.026-1.892-9.061-2.635c-5.252-1.288-10.608-1.891-16.019-1.722
	c-3.602,0.112-7.197,0.445-10.795,0.707c-2.245,0.164-4.499,0.285-6.727,0.586c-7.362,0.998-14.422,3.148-21.387,5.685
	c-3.452,1.257-6.914,2.444-10.047,4.418c-1.648,1.038-3.408,1.914-4.981,3.05c-1.382,0.999-2.662,2.176-3.83,3.423
	c-1.581,1.689-2.226,3.875-2.806,6.21c0.408,1.649,0.673,3.3,1.229,4.846c1.49,4.141,4.241,7.504,6.994,10.849
	c0.561,0.682,1.151,1.422,1.891,1.858c2.752,1.624,5.513,3.25,8.385,4.637c1.574,0.759,3.352,1.314,5.081,1.48
	c5.656,0.546,11.331,0.929,17.004,1.263c4.317,0.254,8.642,0.405,12.964,0.483c5.22,0.095,10.425-0.125,15.53-1.372
	c1.323-0.323,2.624-0.749,3.956-1.019c4.24-0.859,8.333-1.96,12.108-4.277c5.709-3.505,10.104-7.915,11.935-14.562
	c0.873-3.162,1.277-6.529,3.514-9.181c0.111-0.132,0.159-0.317,0.234-0.478c1.952-4.118,4.6-7.641,8.291-10.415
	c3.733-2.806,7.961-4.636,12.124-6.621c1.226-0.584,2.427-1.23,3.681-1.744c3.997-1.636,8.019-3.212,12.021-4.832
	c2.569-1.041,4.421-2.893,5.913-5.19C172.435,56.874,172.712,55.069,172.285,53.034z M164.166,55.063
	c-0.68,1.753-4.039,3.14-6.497,2.605C159.736,56.219,161.821,55.446,164.166,55.063z M115.359,101.134
	c-1.297,0.706-2.656,1.325-4.039,1.838c-1.33,0.493-2.729,0.793-4.091,1.195c-1.369,0.403-2.873,0.48-4.093,1.452
	c0.594,0.904,1.268,0.556,1.864,0.466c3.962-0.589,7.714-1.821,11.257-3.693c0.312-0.165,0.647-0.288,0.98-0.411
	c0.1-0.037,0.227-0.005,0.445-0.005c0.174,0.841-0.268,1.354-0.941,1.635c-1.902,0.798-3.801,1.632-5.76,2.271
	c-1.965,0.642-4.008,1.051-6.007,1.594c-0.466,0.126-0.896,0.383-1.394,0.603c0.475,1.036,1.133,0.879,1.76,0.714
	c2.687-0.708,5.368-1.431,8.051-2.153c0.549-0.148,1.094-0.321,1.804-0.53c-0.04,1.016-0.421,1.524-1.139,1.792
	c-0.5,0.185-1.006,0.366-1.524,0.478c-2.488,0.537-4.981,1.04-7.466,1.577c-0.374,0.081-0.72,0.283-1.437,0.574
	c1.715,1.016,3.216,0.438,4.734,0.678c-0.636,0.264-1.249,0.634-1.91,0.772c-4.692,0.979-9.381,1.978-14.097,2.827
	c-2.327,0.419-4.702,0.656-7.064,0.757c-3.84,0.165-7.687,0.176-11.532,0.2c-2.131,0.014-4.265-0.115-6.398-0.115
	c-5.053-0.001-10.054-0.49-14.998-1.517c-1.389-0.289-2.758-0.689-4.121-1.089c-0.605-0.178-1.174-0.48-1.762-0.727
	c0.059-0.123,0.117-0.245,0.175-0.368c1.026,0.244,2.062,0.448,3.075,0.742c2.175,0.629,4.38,0.996,6.646,0.886
	c0.405-0.019,0.803-0.219,1.204-0.336c-0.007-0.126-0.014-0.253-0.021-0.379c-2.5-0.545-5.034-0.966-7.49-1.669
	c-2.402-0.687-5.12-0.571-7.102-2.481c1.28-0.137,2.422,0.287,3.554,0.725c3.304,1.277,6.731,1.818,10.264,1.744
	c0.233-0.005,0.472-0.025,0.698-0.077c0.096-0.021,0.168-0.143,0.275-0.239c0.01-0.694-0.541-0.596-0.979-0.685
	c-2.957-0.605-5.935-1.132-8.86-1.862c-2.12-0.529-4.172-1.332-6.255-2.008c-0.675-0.22-1.315-0.466-1.478-1.478
	c5.311,1.255,10.192,4.023,15.736,3.52c0.049-0.143,0.099-0.288,0.147-0.431c-0.542-0.215-1.071-0.48-1.63-0.635
	c-3.705-1.037-7.44-1.974-11.116-3.106c-1.62-0.499-3.125-1.376-4.681-2.082c-0.271-0.122-0.543-0.239-0.814-0.358
	c0.122-0.184,0.244-0.368,0.365-0.552c0.634,0.179,1.275,0.338,1.901,0.541c3.938,1.276,7.814,2.811,11.827,3.778
	c4.383,1.056,8.929,1.208,13.439,1.11c6.986-0.152,13.979-0.273,20.952-0.682c3.771-0.22,7.501-1.044,11.258-1.529
	c4.589-0.593,9.15-1.333,13.562-2.749c2.242-0.72,4.398-1.713,6.593-2.581c0.272-0.107,0.542-0.224,0.821-0.297
	c0.085-0.022,0.202,0.083,0.534,0.233C118.139,100.345,116.569,100.475,115.359,101.134z M167.035,56.445
	c-3.312,2.479-7.033,4.098-10.916,5.252c-0.932-0.274-1.442-1.514-2.867-1.02c0.43,0.689,0.741,1.191,1.073,1.727
	c-1.134,0.727-1.654-0.869-2.87-0.485c0.077,0.476,0.16,0.994,0.266,1.652c-0.307,0.147-0.705,0.34-1.035,0.499
	c-0.709-0.384-1.301-0.704-2.284-1.236c0.195,0.989,0.308,1.56,0.425,2.146c-1.19,1.172-1.949-0.76-3.016-0.428
	c-0.109,0.871-0.109,0.871,0.539,1.712c-0.28,0.173-0.551,0.34-0.777,0.481c-0.765-0.44-1.439-0.828-2.108-1.213
	c-0.821,1.171,0.411,1.459,0.567,2.217c-0.395,0.219-0.792,0.438-1.154,0.638c-0.861-0.524-1.644-1-2.431-1.48
	c-0.788,1.236,0.392,1.528,0.887,2.224c-0.506,0.251-0.902,0.447-1.198,0.593c-0.809-0.367-1.472-0.668-2.137-0.969
	c-0.113,0.112-0.229,0.224-0.343,0.336c0.241,0.517,0.481,1.033,0.75,1.613c-0.304,0.152-0.605,0.304-0.853,0.428
	c-0.928-0.419-1.77-0.799-2.643-1.194c-0.759,1.408,0.684,1.503,1.181,2.435c-0.236,0.243-0.507,0.517-0.684,0.696
	c-1.23-0.588-2.156-1.029-3.144-1.5c-0.692,1.894,1.244,1.551,1.666,2.527c-0.235,0.312-0.504,0.665-0.811,1.072
	c-1.138-0.472-2.198-0.912-3.344-1.387c0.073,1.182,0.073,1.182,2.121,2.45c-0.077,0.233-0.132,0.509-0.256,0.75
	c-0.133,0.256-0.326,0.481-0.529,0.77c-1.131-0.331-1.926-1.463-3.352-1.265c-0.067,1.74,1.952,1.407,2.4,2.665
	c-0.197,0.276-0.457,0.64-0.765,1.074c-1.066-0.641-2.051-1.232-3.272-1.966c-0.205,2.067,1.697,2.166,2.373,3.415
	c-0.445,0.682-0.941,1.444-1.459,2.237c-1.499-1.927-2.719-3.909-4.344-5.466c-1.64-1.57-3.682-2.719-5.731-4.183
	c1.143-1.135,2.291-2.372,3.538-3.5c3.758-3.405,8.393-5.27,12.964-7.221c3.697-1.578,7.425-3.086,11.144-4.615
	c3.992-1.643,7.983-3.292,11.994-4.894c0.614-0.246,1.316-0.28,1.982-0.398c-0.816,0.612-1.668,1.184-2.434,1.854
	c-1.284,1.124-1.07,2.696,0.456,3.438c0.459,0.223,1.008,0.335,1.522,0.363c2.598,0.145,4.852-0.877,6.928-2.277
	c0.991-0.667,1.711-1.639,1.376-3.019c-1.204-1.39-2.899-1.232-4.464-1.468c2.228-0.919,4.488-1.556,6.873-1.013
	C169.335,53.458,168.645,55.241,167.035,56.445z"/>
<path class="stroke" fill="#6a2906"  fill-rule="evenodd" clip-rule="evenodd" d="M138.264,114.953c-0.679,0.223-1.042,0.343-1.393,0.458
	c-0.12-0.274-0.226-0.396-0.199-0.475C136.931,114.154,137.353,114.143,138.264,114.953z"/>
<path class="stroke" fill="#6a2906"  fill-rule="evenodd" clip-rule="evenodd" d="M137.885,118.31c-0.402,0-0.806,0-1.428,0c0.539-0.885,0.934-1.031,1.41-0.582
	C137.873,117.922,137.879,118.116,137.885,118.31z"/>
<path class="stroke" fill="#6a2906"  fill-rule="evenodd" clip-rule="evenodd" d="M139.239,119.044c0.218-0.207,0.436-0.413,0.731-0.694
	c0.219,0.293,0.367,0.493,0.645,0.863c-0.534,0.084-0.87,0.137-1.207,0.189C139.352,119.283,139.295,119.164,139.239,119.044z"/>
<path class="stroke" fill="#6a2906"  fill-rule="evenodd" clip-rule="evenodd" d="M143.93,124.509c0.279-0.205,0.559-0.41,1.049-0.77
	c0.023,0.511,0.113,0.944,0.031,0.979c-0.29,0.125-0.639,0.116-0.965,0.157C144.007,124.753,143.968,124.631,143.93,124.509z"/>
<path class="stroke" fill="#6a2906"  fill-rule="evenodd" clip-rule="evenodd" d="M140.763,123.673c0.682-0.192,0.981-0.277,1.402-0.396c0,0.426,0,0.731,0,1.369
	C141.639,124.28,141.342,124.074,140.763,123.673z"/>
<path class="stroke" fill="#6a2906"  fill-rule="evenodd" clip-rule="evenodd" d="M141.813,121.178c0.357-0.873,0.741-1.088,1.255-0.122
	C142.547,121.107,142.18,121.143,141.813,121.178z"/>
<path class="stroke" fill="#6a2906"  fill-rule="evenodd" clip-rule="evenodd" d="M139.661,121.583c-0.577,0.153-0.861,0.229-1.569,0.416
	c0.402-0.564,0.524-0.851,0.74-0.98C138.918,120.967,139.215,121.268,139.661,121.583z"/>
<path class="stroke" fill="#6a2906"  fill-rule="evenodd" clip-rule="evenodd" d="M122.306,123.091c0.239-0.253,0.48-0.507,0.902-0.951
	c0.128,0.534,0.345,0.954,0.231,1.083c-0.188,0.215-0.588,0.243-0.899,0.35C122.461,123.413,122.384,123.251,122.306,123.091z"/>
<path class="stroke" fill="#6a2906"  fill-rule="evenodd" clip-rule="evenodd" d="M127.844,123.263c0.617-0.094,0.973-0.147,1.363-0.207
	c0,0.313,0.043,0.45-0.008,0.523C128.863,124.075,128.506,124.057,127.844,123.263z"/>
<path class="stroke" fill="#6a2906"  fill-rule="evenodd" clip-rule="evenodd" d="M125.738,121.151c0.17,0.484,0.237,0.679,0.352,1.005c-0.443,0-0.771,0-1.444,0
	C125.116,121.722,125.332,121.523,125.738,121.151z"/>
<path class="stroke" fill="#6a2906"  fill-rule="evenodd" clip-rule="evenodd" d="M130.697,120.629c-0.31,0.058-0.621,0.115-0.93,0.172
	c-0.038-0.132-0.076-0.264-0.113-0.396c0.308-0.093,0.613-0.187,0.92-0.279C130.615,120.293,130.656,120.462,130.697,120.629z"/>
<path class="stroke" fill="#6a2906"  fill-rule="evenodd" clip-rule="evenodd" d="M137.27,143.428c0.49-0.815,0.865-1.008,1.516-0.324
	c-0.278,0.205-0.459,0.416-0.684,0.478C137.916,143.634,137.68,143.513,137.27,143.428z"/>
<path class="stroke" fill="#6a2906"  fill-rule="evenodd" clip-rule="evenodd" d="M135.229,144.041c-0.03,0.926-0.391,1.042-1.05,0.771
	C134.072,143.984,134.449,143.865,135.229,144.041z"/>
<path class="stroke" fill="#6a2906"  fill-rule="evenodd" clip-rule="evenodd" d="M134.253,142.717c0.485-0.459,0.697-0.661,0.994-0.943
	c0.21,0.309,0.35,0.513,0.643,0.943C135.305,142.717,134.958,142.717,134.253,142.717z"/>
<path class="stroke" fill="#6a2906"  fill-rule="evenodd" clip-rule="evenodd" d="M126.523,141.286c0.615-0.677,0.985-0.88,1.424-0.088
	c-0.218,0.132-0.393,0.312-0.584,0.334C127.17,141.555,126.956,141.422,126.523,141.286z"/>
<path class="stroke" fill="#6a2906"  fill-rule="evenodd" clip-rule="evenodd" d="M131.203,141.534c-0.428,0.629-0.801,0.727-1.229,0.065
	C130.377,141.074,130.75,140.984,131.203,141.534z"/>
<path class="stroke" fill="#6a2906"  fill-rule="evenodd" clip-rule="evenodd" d="M128.96,143.041c0.686,1.109,0.349,1.299-0.636,1.304
	C128.534,143.917,128.676,143.625,128.96,143.041z"/>
<path class="stroke" fill="#6a2906"  fill-rule="evenodd" clip-rule="evenodd" d="M131.184,144.514c0.336-0.031,0.673-0.062,1.009-0.092
	c0.024,0.14,0.05,0.28,0.073,0.421c-0.328,0.082-0.657,0.163-0.987,0.244C131.248,144.896,131.216,144.705,131.184,144.514z"/>
<path class="stroke" fill="#6a2906"  fill-rule="evenodd" clip-rule="evenodd" d="M117.281,145.635c-0.195-0.28-0.39-0.56-0.596-0.855
	c0.41-0.644,0.779-0.954,1.429-0.184c-0.312,0.354-0.601,0.68-0.88,1.013C117.241,145.616,117.281,145.635,117.281,145.635z"/>
<path class="stroke" fill="#6a2906"  fill-rule="evenodd" clip-rule="evenodd" d="M119.922,145.018c0.381-0.113,0.763-0.226,1.332-0.395
	c-0.187,1.16-0.632,1.145-1.166,0.922C120.033,145.37,119.977,145.194,119.922,145.018z"/>
<path class="stroke" fill="#6a2906"  fill-rule="evenodd" clip-rule="evenodd" d="M118.547,141.984c0.416-0.663,0.784-0.729,1.308-0.171
	C119.498,142.395,119.166,142.615,118.547,141.984z"/>
<path class="stroke" fill="#6a2906"  fill-rule="evenodd" clip-rule="evenodd" d="M116.547,143.042c-0.467,0.066-0.834,0.118-1.298,0.184
	c0.06-0.367,0.028-0.59,0.124-0.68C115.873,142.076,116.25,142.148,116.547,143.042z"/>
<path class="stroke" fill="#6a2906"  fill-rule="evenodd" clip-rule="evenodd" d="M121.16,143.478c0.624-0.071,0.964-0.109,1.31-0.148
	c0.017,0.242,0.07,0.38,0.023,0.451C122.115,144.368,121.742,144.363,121.16,143.478z"/>
<path class="stroke" fill="#6a2906"  fill-rule="evenodd" clip-rule="evenodd" d="M159.025,144.56c0.411-0.776,0.762-0.965,1.339-0.426
	C160.162,144.94,159.768,144.981,159.025,144.56z"/>
<path class="stroke" fill="#6a2906"  fill-rule="evenodd" clip-rule="evenodd" d="M156.413,142.821c0.222,0.462,0.316,0.661,0.41,0.855
	c-0.454,0.597-0.843,0.669-1.295-0.091C155.768,143.378,156.01,143.17,156.413,142.821z"/>
<path class="stroke" fill="#6a2906"  fill-rule="evenodd" clip-rule="evenodd" d="M167.601,145.014c-0.403,0.953-0.764,1.175-1.785,0.329
	c0.39-0.164,0.647-0.312,0.925-0.377C166.936,144.919,167.156,144.983,167.601,145.014z"/>
<path class="stroke" fill="#6a2906"  fill-rule="evenodd" clip-rule="evenodd" d="M168.689,141.88c0.394,1.149,0.033,1.28-0.979,0.835
	C168.138,142.351,168.413,142.116,168.689,141.88z"/>
<path class="stroke" fill="#6a2906"  fill-rule="evenodd" clip-rule="evenodd" d="M164.375,144.319c-0.315,0.107-0.629,0.215-1.079,0.37
	C163.355,143.735,163.619,143.505,164.375,144.319z"/>
<path class="stroke" fill="#6a2906"  fill-rule="evenodd" clip-rule="evenodd" d="M140.209,159.941c-0.334,0.127-0.668,0.255-1.182,0.451
	c0.074-1.052,0.428-1.189,0.997-0.961C140.086,159.6,140.148,159.771,140.209,159.941z"/>
<path class="stroke" fill="#6a2906"  fill-rule="evenodd" clip-rule="evenodd" d="M143.339,159.708c-0.6,0.321-0.866,0.465-1.19,0.638
	C142.145,159.456,142.145,159.456,143.339,159.708z"/>
<path fill-rule="evenodd" clip-rule="evenodd" fill="#ffe861" class="fill" d="M122.365,92.108c-1.174,1.46-2.229,2.215-4.543,3.228
	c-1.461-3.591-4.114-4.789-7.912-3.551c-0.134-0.561-0.234-0.999-0.343-1.435c-0.381-1.534-1.188-2.223-2.767-2.198
	c-0.818,0.013-1.634,0.211-2.445,0.35c-0.568,0.096-1.128,0.233-1.72,0.358c-0.291-0.455-0.601-0.767-0.714-1.14
	c-0.509-1.667-2.033-2.167-3.936-1.881c-1.331,0.2-2.622,0.659-4.044,1.03c-0.368-0.506-0.76-0.945-1.042-1.445
	c-1.496-2.658-3.691-3.403-6.36-1.953c-1.133,0.615-2.403,1.265-2.778,3.046c0.567,0,1.025,0.109,1.397-0.022
	c0.778-0.275,1.521-0.658,2.262-1.03c1.079-0.542,2.06-0.429,2.962,0.367c0.442,0.391,0.902,0.768,1.319,1.186
	c1.408,1.407,2.317,1.563,4.126,0.764c0.645-0.285,1.328-0.562,2.016-0.645c0.655-0.078,1.343,0.101,2.011,0.166
	c0.232,1.265,0.422,2.291,0.581,3.15c1.13,1.074,2.187,0.475,3.188,0.288c0.63-0.117,1.207-0.507,1.838-0.651
	c0.654-0.149,1.344-0.151,2.156-0.231c0.229,1.337,0.422,2.467,0.597,3.487c2.244,1.284,4.517-0.783,6.855,0.692
	c0.244,0.659,0.582,1.576,0.965,2.615c-1.97,1.418-4.203,1.932-6.414,2.714c-0.565-1.177-0.46-2.688-1.925-3.081
	c-0.353-0.094-0.8,0.162-1.557,0.338c1.113,1.066,1.996,1.914,1.558,3.418c-0.641,0.197-1.358,0.417-2.258,0.693
	c-0.846-3.948-3.792-4.672-7.221-4.671c-0.175-0.579-0.306-1.083-0.477-1.57c-0.878-2.494-3.458-3.079-5.37-1.242
	c-0.628,0.603-1.308,1.151-2.066,1.815c-1.159-1.36-2.198-2.576-3.063-3.591c-4.298-0.515-5.768,0.323-7.282,3.957
	c0.264,0.196,0.527,0.427,0.824,0.603c0.188,0.111,0.422,0.142,0.728,0.237c0.454-1.565,1.229-2.724,2.913-3.037
	c1.385-0.257,1.953-0.099,2.744,1.024c0.066,0.098,0.123,0.203,0.185,0.304c1.399,2.238,1.399,2.238,4.132,1.618
	c1.108-0.72,2.1-1.856,3.926-1.716c0.412,1.087,0.844,2.223,1.284,3.387c0.953,0.953,2.062,0.529,3.16,0.254
	c1.465,0.421,2.231,1.407,2.587,3.082c-6.162,1.017-12.221,1.873-18.397,2.415c-0.175-0.476-0.307-0.832-0.484-1.312
	c-0.399-0.159-0.88-0.348-1.371-0.542c-0.286,0.215-0.515,0.386-0.82,0.616c0.171,0.378,0.323,0.713,0.532,1.171
	c-4.023,0.192-7.953,0.38-12.153,0.582c0.142-0.922,0.255-1.649,0.355-2.302c2.312-2.833,3.205-2.805,6.529,0.162
	c1.121,0.23,2.011-0.227,2.47-1.228c0.676-1.475,1.918-2,2.838-2.229c2.231-0.327,1.781,2.29,3.414,2.242
	c0.814-2.139-0.843-4.048-3.163-3.654c-1.479,0.251-2.815,0.912-3.849,2.059c-0.271,0.3-0.502,0.636-0.81,1.03
	c-1.956-1.564-3.718-3.697-6.556-2.329c-2.476,1.193-3.409,3.318-3.092,6.119c-1.324,0-2.523,0-3.56,0
	c-0.398-1.193-0.606-2.385-1.179-3.365c-0.582-0.994-1.521-1.778-2.432-2.795c0.382-0.422,0.753-0.833,1.063-1.175
	c2.278-0.399,4.263,1.261,6.606,0.384c0.182-0.231,0.456-0.608,0.757-0.96c0.497-0.585,0.948-1.23,1.531-1.716
	c1.616-1.346,3.116-1.195,5.085,0.586c0.277-0.652,0.517-1.218,0.713-1.683c-2.268-2.383-4.063-2.038-6.395-0.671
	c-0.807,0.473-1.444,1.225-2.196,1.799c-0.51,0.388-1.085,0.689-1.676,1.059c-0.655-0.243-1.325-0.367-1.852-0.708
	c-2.341-1.521-4.281-0.518-6.171,0.893c-0.331,0.246-0.608,0.562-1.022,0.952c-3.347,0.314-5.811,1.917-6.495,5.503
	c-3.072,0.191-11.935-2.727-14.546-4.764c0.077-0.14,0.122-0.333,0.244-0.424c1.665-1.245,2.314-2.974,2.282-4.969
	c-0.028-1.729,0.716-2.808,2.479-3.315c0.325,0.257,0.683,0.554,1.054,0.831c2.081,1.551,4.399,1.174,5.826-0.997
	c0.616-0.938,1.124-1.947,1.677-2.925c0.409-0.722,0.767-1.493,1.815-1.719c0.98,0.961,2.104,1.688,3.693,1.486
	c1.762-0.223,3.173-0.819,4.054-2.461c1.052-1.962,2.704-3.067,4.84-3.271c0.999,0.516,1.883,0.972,2.936,1.515
	c1.059-0.764,2.09-1.51,3.203-2.313c0.598,0.373,1.189,0.748,1.786,1.113c2.29,1.398,4.331,1.197,6.366-0.515
	c1.221-1.027,2.526-1.954,3.802-2.915c0.94-0.708,1.988-1.034,3.535-0.764c0.493,0.67,1.14,1.552,2.086,2.839
	c1.04,0.816,2.517,0.34,3.961-0.254c1.143-0.47,2.244-1.037,3.365-1.561c1.562,1.153,1.11,3.009,1.845,4.425
	c1.515,1.377,3.473,1.53,5.52,0.422c0.832-0.45,1.656-0.93,2.533-1.272c0.574-0.225,1.238-0.229,2.034-0.359
	c0.187,0.689,0.36,1.233,0.478,1.789c0.41,1.945,1.102,2.451,3.115,2.173c0.643-0.088,1.265-0.327,1.907-0.402
	c0.599-0.07,1.21-0.016,2.023-0.016c-0.105,1.46-0.194,2.674-0.273,3.775c0.466,0.908,1.175,1.148,1.982,1.165
	c0.591,0.013,1.198,0.042,1.774-0.066c1.807-0.337,2.928,0.807,3.635,2.218C121.949,91.066,122.148,91.601,122.365,92.108z
	 M47.177,98.142c0.816-1.15,1.444-2.158,2.195-3.066c0.916-1.105,2.106-1.817,3.593-1.449c2.999,0.743,5.694-0.862,6.881-3.45
	c0.854-1.865,2.281-2.572,4.022-2.981c1.493,1.04,2.925,2.038,4.183,2.913c1.861-0.487,3.079-1.278,4.081-2.572
	c1.185-1.531,2.665-2.729,4.835-2.283c1.209,0.325,1.623,2.167,3.264,1.739c-0.49-2.222-2.697-4.241-4.521-4.075
	c-2.141,0.194-4.006,0.916-5.238,2.882c-0.548,0.875-1.365,1.58-2.094,2.401c-0.9-0.585-1.646-1.028-2.348-1.53
	c-2.607-1.86-5.3-1.04-6.799,1.491c-0.423,0.714-0.863,1.421-1.342,2.097c-0.924,1.303-2.023,1.685-3.558,1.252
	c-0.625-0.176-1.222-0.465-1.854-0.604c-0.504-0.11-1.071-0.193-1.556-0.071c-2.629,0.659-5.232,3.922-5.363,6.655
	c-0.008,0.151,0.135,0.31,0.241,0.541C46.244,98.066,46.699,98.103,47.177,98.142z M78.948,90.174
	c-0.905-0.989-1.701-1.945-3.05-1.532c-0.888,0.271-1.831,0.667-2.088,2.18c0.965-0.363,1.676-0.632,2.359-0.89
	C77.087,89.817,77.73,91.446,78.948,90.174z M53.71,96.091c-1.818-0.054-3.293,1.086-3.863,3.048c0.446-0.083,0.961-0.02,1.14-0.236
	C51.807,97.915,53.291,97.54,53.71,96.091z M106.475,85.777c0.123-0.159,0.246-0.317,0.368-0.475
	c-0.255-0.473-0.507-0.947-0.711-1.323c-2.786-0.293-2.824-0.283-3.532,0.968c0.749,0,1.41,0,2.069,0
	c-0.005,0.059-0.011,0.118-0.017,0.178C105.26,85.342,105.867,85.559,106.475,85.777z M93.786,99.882
	c-0.075-1.371-0.411-1.764-1.355-1.896c-1.352-0.189-2.261,0.356-2.671,1.775c0.745-0.201,1.383-0.374,1.975-0.533
	C92.39,99.437,92.986,99.627,93.786,99.882z M43.825,93.8c-0.111-0.09-0.223-0.181-0.336-0.271
	c-1.839,0.442-3.083,2.171-2.317,3.602C42.098,95.968,42.961,94.884,43.825,93.8z M88.021,89.502
	c-1.817-1.464-3.254-1.187-3.757,0.771C85.322,89.188,86.76,90.709,88.021,89.502z M99.354,93.717
	c1.321,0.163,2.052,1.396,3.357,0.986c0.277-1.099-0.49-1.432-1.154-1.726C100.843,92.661,100.097,92.631,99.354,93.717z
	 M56.908,88.985c0.053-0.869-0.454-1.179-1.168-1.183c-0.871-0.007-1.881-0.214-2.379,1.183
	C54.639,88.985,55.746,88.985,56.908,88.985z M62.431,92.33c2.054,1.03,2.857,0.945,3.215-0.34
	C63.54,91.152,63.268,91.181,62.431,92.33z M66.311,83.683c1.257,0.23,2.25,0.412,3.33,0.61c0.069-0.499,0.106-0.771,0.139-1.007
	C67.866,82.281,67.504,82.301,66.311,83.683z M83.627,80.646c-1.173-0.891-2.937-0.244-3.211,1.152
	C81.697,81.964,82.723,81.561,83.627,80.646z M63.706,99.596c1.203,1.212,1.401,1.257,2.515,0.572
	C65.307,98.691,64.72,98.558,63.706,99.596z M110.636,88.012c1.084,1.181,1.084,1.181,2.053,0.521
	C111.908,87.159,111.901,87.157,110.636,88.012z M74.897,97.635c0.984,0.369,1.552,0.128,2.099-0.648
	C76.076,96.538,75.436,96.518,74.897,97.635z"/>
<path fill-rule="evenodd" clip-rule="evenodd" fill="#ffe861" class="fill" d="M57.318,98.89c2.092,0.546,3.605,2.126,4.571,4.931
	c-3.253,0.028-6.331-0.532-9.452-1.092C53.168,100.83,54.21,100.031,57.318,98.89z M59.104,102.019
	c-0.656-0.618-1.136-1.07-1.678-1.58c-0.417,0.383-0.69,0.635-0.994,0.914C57.105,102.217,57.712,102.878,59.104,102.019z"/>
<path fill-rule="evenodd" clip-rule="evenodd" fill="#ffe861" class="fill" d="M80.207,45.93c1.287-0.215,2.206-0.369,3.353-0.562
	c0.081,3.312,0.161,6.525,0.247,9.949c1.362,0.148,2.537,0.277,4.006,0.438c-2.429,2.36-4.617,4.486-6.785,6.593
	c-1.391-0.908-3.281-3.462-5.093-6.868c1.223-0.078,2.358-0.149,3.716-0.235C79.835,52.163,80.019,49.083,80.207,45.93z"/>
</svg>
