<svg version="1.1" xmlns="http://www.w3.org/2000/svg" xmlns:xlink="http://www.w3.org/1999/xlink" x="0px" y="0px" width="200px"
	 height="200px" viewBox="0 0 200 200" enable-background="new 0 0 200 200" xml:space="preserve">
<g id="svg">
	<path class="stroke" fill="#672a19"  fill-rule="evenodd" clip-rule="evenodd" d="M113.857,15.112c0.425-0.807,0.727-1.378,0.898-1.705
		c2.019-0.691,2.947,0.974,4.393,1.381c0.818-1.125-0.429-2.584,0.623-3.589c1.795,0.103,3.117,1.1,3.505,2.748
		c1.096,0,2.238-0.047,3.374,0.013c1.326,0.07,2.492,0.5,3.146,1.804c-0.377,1.207-1.857,1.005-2.439,1.985
		c0.296,0.772,0.893,1.183,1.67,1.385c1.579,0.409,2.693,1.375,3.429,2.817c0.251,0.492,0.529,0.974,0.829,1.438
		c1,1.544,1.188,3.204,0.971,5.013c-0.211,1.756-0.417,3.517,0.031,5.314c0.423,1.693,0.481,3.455-0.059,5.175
		c-0.045,0.145-0.006,0.316-0.006,0.437c0.543,0.025,1.053-0.04,1.511,0.086c1.266,0.347,1.854,1.231,1.618,2.497
		c-0.33,1.754-0.654,3.521-1.169,5.225c-0.324,1.076-0.975,2.059-1.514,3.064c-0.397,0.742-0.897,1.43-1.269,2.184
		c-1.293,2.634-2.553,5.285-3.821,7.932c-0.513,1.071-1.015,2.148-1.622,3.436c0.146,0.088,0.348,0.24,0.573,0.34
		c1.841,0.812,3.147,2.316,4.54,3.66c1.804,1.737,3.422,3.666,5.119,5.513c2.159,2.349,4.318,4.678,6.952,6.549
		c2.155,1.531,3.982,3.447,5.455,5.679c1.009,1.525,2.227,2.93,3.093,4.529c1.459,2.699,2.72,5.522,2.428,8.716
		c-0.11,1.217-0.41,2.424-0.696,3.618c-0.661,2.769-1.213,5.575-2.475,7.949c0,0.959-0.005,1.723,0.002,2.487
		c0.019,2.08-0.058,4.167,0.088,6.239c0.21,3.026-0.782,5.592-2.648,7.958c-0.973,4.152-1.716,4.646-5.456,5.06
		c0.983,11.132,1.967,22.267,2.939,33.295c-0.627,0.987-1.488,0.912-2.493,1.022c-1.064-5.792-2.112-11.496-3.157-17.184
		c0,4.839,0.016,9.695-0.005,14.55c-0.021,4.888-0.023,9.779-0.573,14.692c-1.409,0.788-2.78,1.024-4.287,0.165
		c-0.475-4.232-0.943-8.442-1.42-12.706c-1.9,0.089-3.755,0.175-5.701,0.266c-1.753,4.671-3.475,9.409-4.759,14.203
		c0.602,1.406,1.731,2.136,2.7,3.017c1.416,1.289,2.863,2.572,3.814,4.256c0.381,0.677,0.592,1.504,0.674,2.285
		c0.108,1.021-0.843,1.965-2.119,2.172c-0.662,0.107-1.355,0.008-2.033,0.036c-3.607,0.143-6.98-0.816-10.291-2.125
		c-1.541-0.609-3.126-1.107-4.668-1.716c-0.826-0.327-1.629-0.734-2.395-1.189c-1.22-0.728-1.203-0.757-1.967-2.186
		c0.435-6.461,1.803-12.869,2.628-19.345c-1.724-1.129-3.45-2.261-5.271-3.455c-1.295,3.567-1.755,7.336-3.525,10.72
		c-1.142,0.269-2.125-0.213-3.223-0.715c0-0.548-0.07-1.097,0.011-1.622c0.372-2.394,0.783-4.781,1.186-7.169
		c0.213-1.254,0.444-2.504,0.652-3.76c0.025-0.154-0.055-0.325-0.081-0.466c-1.992-0.73-6.331-0.626-8.072,0.2
		c0,0.218-0.062,0.48,0.009,0.701c0.652,2.025,1.338,4.04,1.989,6.065c0.363,1.132,0.688,2.278,1.019,3.42
		c0.768,2.654,1.509,5.316,2.296,7.964c0.433,1.453,0.657,2.9,0.158,4.565c-0.922,1.006-2.3,1.613-3.688,2.099
		c-2.606,0.913-5.277,1.639-7.889,2.537c-2.537,0.872-5.094,1.637-7.747,2.044c-1.901,0.292-3.803,0.44-5.616-0.34
		c-0.688-1.317-0.357-2.587,0.867-3.608c1.791-1.49,3.872-2.447,5.988-3.35c0.505-0.215,1.005-0.442,1.655-0.729
		c-0.411-0.888-0.749-1.739-1.187-2.537c-1.855-3.393-3.843-6.717-5.587-10.167c-1.647-3.259-3.051-6.641-4.561-9.969
		c0.07-0.071,0.139-0.143,0.209-0.213c-0.681-0.319-1.364-0.633-2.041-0.96c-1.528-0.739-3.079-1.438-4.571-2.247
		c-0.892-0.484-1.166-1.445-1.277-2.39c-0.188-1.604-0.378-3.213-0.438-4.825c-0.098-2.718-0.116-5.438-0.123-8.158
		c-0.002-1.188,0.125-2.377,0.164-3.566c0.108-3.404,1.533-6.299,3.745-8.742c2.593-2.864,5.399-5.536,8.124-8.279
		c1.109-1.115,2.225-2.227,3.387-3.287c1.131-1.032,2.304-2.02,3.496-2.979c0.677-0.544,1.068-1.198,1.14-2.049
		c0.204-2.409,0.402-4.817,0.608-7.225c0.152-1.782,0.324-3.562,0.461-5.344c0.045-0.584,0.007-1.176,0.007-1.831
		c-0.708-0.331-1.387-0.675-2.087-0.969c-2.037-0.853-3.324-2.336-4.205-4.371c-1.175-2.715-1.052-5.358-0.145-8.064
		c0.131-0.39,0.23-0.791,0.372-1.288c-0.817,0-1.504-0.1-2.151,0.017c-2.707,0.49-5.37,0.228-7.938-0.622
		c-1.093-0.361-2.133-1.085-3.008-1.859c-1.309-1.162-2.287-2.614-2.886-4.298c-1.368-3.843-2.769-7.675-4.143-11.515
		c-0.801-2.239-1.56-4.494-2.372-6.728c-0.683-1.873-1.394-3.736-2.14-5.584c-0.438-1.083-1.155-1.986-2.133-2.645
		c-1.093-0.735-2.311-1.325-3.282-2.193c-0.826-0.742-1.402-1.775-2.048-2.708c-0.237-0.343-0.359-0.766-0.535-1.158
		c-0.409-0.254-0.805-0.5-1.287-0.8c-0.755-1.623-1.584-3.297-2.317-5.01c-0.945-2.202-0.453-3.574,1.684-4.841
		c0-0.458,0-0.958,0-1.525c0.899-0.716,1.793-1.426,2.689-2.139c0.023-0.073,0.092-0.166,0.071-0.231
		c-0.729-2.444,0.849-3.686,2.54-4.855c0.594-0.411,1.229-0.766,1.915-1.19c0.341-1.552,1.602-2.237,2.97-2.801
		c0.314-0.13,0.653-0.203,0.957-0.348c1.324-0.635,2.608-0.771,4.01,0.462c0.053-0.636,0.128-1.066,0.119-1.495
		c-0.041-1.871-0.13-3.742-0.151-5.613c-0.012-0.849,0.073-1.701,0.157-2.547c0.021-0.217,0.205-0.417,0.342-0.681
		c0.729,0.351,0.75,0.942,0.769,1.535c0.109,3.356,0.218,6.713,0.333,10.069c0.003,0.118,0.081,0.233,0.107,0.3
		c0.822,0.182,1.621,0.293,2.377,0.535c2.861,0.919,3.97,3.293,4.729,5.896c0.719,2.468,0.404,4.98,0.162,7.481
		c-0.291,3.006-0.814,6.012-0.817,9.02c0,2.467,0.15,4.989,1.18,7.369c1.197,2.765,2.092,5.665,3.319,8.414
		c0.913,2.041,2.151,3.936,3.166,5.758c0.305,0.076,0.399,0.134,0.466,0.111c1.879-0.666,3.796-1.243,5.617-2.04
		c1.802-0.789,3.611-1.511,5.532-1.906c0.909-0.188,1.852-0.213,2.777-0.318c0.633-0.07,1.276-0.097,1.894-0.237
		c1.391-0.317,2.805-0.515,4.141-1.105c0.662-0.292,1.495-0.199,2.252-0.267c0.443-0.04,0.891-0.053,1.52-0.089
		c-0.488-1.198-0.9-2.206-1.323-3.238c-1.782,0.023-2.381-1.366-2.992-2.654c-0.562-1.187-0.953-2.455-1.478-3.662
		c-0.742-1.704-1.242-3.46-1.103-5.324c0.126-1.691,0.624-3.253,2.136-4.421c0.466-0.028,1.009-0.062,1.618-0.098
		c0.11-0.312,0.289-0.616,0.319-0.936c0.319-3.283,1.399-6.381,2.266-9.532c0.234-0.859,0.359-1.758,0.684-2.581
		c0.718-1.81,1.549-3.574,2.299-5.371c0.523-1.25,1.492-2.027,2.61-2.696c2.86-1.712,5.935-2.719,9.271-2.919
		C113.289,15.366,113.646,15.177,113.857,15.112z M79.285,80.956c-1.863,4.106-1.802,6.905-0.187,10.145
		c1.13,2.266,3.192,2.958,5.342,3.776c1.279-5.058,1.01-10.022,0.36-15.145C82.849,80.165,81.076,80.558,79.285,80.956z
		 M136.156,101.469c0.662-4.722-0.955-8.11-3.972-9.132c-0.266,3.49-0.292,6.917,0.854,10.371c0.884-0.129,1.665-0.243,2.428-0.354
		C135.728,102.018,135.959,101.72,136.156,101.469z"/>
</g>
<g id="Layer_2">
	<path fill-rule="evenodd" clip-rule="evenodd" fill="#ffc524" class="fill" d="M122.409,29.756c1.011-0.722,1.002-1.802,1.462-2.741
		c0.342,0.147,0.678,0.225,0.93,0.414c1.293,0.969,2.575,1.955,3.842,2.958c0.725,0.575,1.223,1.348,1.339,2.256
		c0.149,1.174,0.151,2.367,0.234,3.549c0.041,0.583,0.121,1.164,0.179,1.709c0.413,0.259,0.729,0.458,1.138,0.714
		c0.058,1.491,0.152,3.016,0.171,4.542c0.024,1.908,0.151,3.837-0.076,5.719c-0.19,1.582-0.801,3.116-1.273,4.657
		c-0.438,1.421-0.821,2.875-1.438,4.22c-0.703,1.538-1.626,2.978-2.478,4.447c-0.319,0.55-0.732,1.046-1.056,1.594
		c-1.154,1.954-2.789,3.414-4.695,4.59c-0.312,0.193-0.706,0.305-1.076,0.348c-3.761,0.438-7.496,0.24-11.108-0.896
		c-3.506-1.102-6.013-3.398-7.428-6.857c-0.593-1.452-1.376-2.824-2.036-4.25c-1.031-2.232-1.494-4.588-1.487-7.048
		c0.002-0.847-0.065-1.702-0.191-2.54c-0.054-0.364-0.333-0.694-0.518-1.054c-2.025,0.482-1.054,2.027-1.315,3.089
		c-2.066-1.927-2.46-6.848-0.665-8.498c0.833,0.417,0.806,1.306,1.097,2.177c0.439,0.062,0.914,0.129,1.491,0.21
		c0.303-0.628,0.626-1.174,0.837-1.761c1.002-2.797,1.949-5.615,2.979-8.402c0.195-0.528,0.665-0.955,0.93-1.32
		c0.758,0.103,1.357,0.184,2.119,0.288c0.139-0.836,0.266-1.489,0.35-2.148c0.145-1.145,0.76-1.925,1.801-2.224
		c1.463-0.421,2.928-0.838,4.514-1.291c0.216,0.188,0.529,0.459,0.807,0.699c1.464,0.258,2-1.225,3.134-1.572
		c0.574,1.14,1.134,2.249,1.66,3.295c1.802,0.154,2.157-1.373,3.058-2.219C120.6,27.539,120.392,29.584,122.409,29.756z
		 M119.842,48.895c0.181,0.205,0.343,0.381,0.497,0.563c0.631,0.749,1.452,1.31,2.397,1.306c1.139-0.004,2.36-0.268,3.145-1.153
		c0.766-0.864,1.345-1.916,1.884-2.948c0.188-0.361-0.075-0.933,0.027-1.371c0.21-0.899-0.116-1.561-0.701-2.176
		c-1.886-0.5-3.795-0.549-5.692-0.377c-0.85,0.076-1.803,0.154-2.442,0.921c-1.876,2.25-2.126,4.82-1.411,7.54
		c0.144,0.542,0.56,1.013,0.896,1.598c0.33-0.124,0.617-0.232,0.887-0.334C119.442,51.221,118.86,49.984,119.842,48.895z
		 M112.293,52.829c0.64-0.002,0.76-0.367,0.795-0.835c0.047-0.592,0.02-1.214,0.201-1.766c0.713-2.192,0.75-4.335-0.24-6.454
		c-0.056-0.115-0.091-0.24-0.116-0.365c-0.172-0.844-0.739-1.371-1.509-1.577c-1.016-0.271-2.062-0.506-3.107-0.574
		c-2.638-0.169-4.916,1.582-5.267,4.173c-0.147,1.092,0.015,2.355,0.952,3.155c0.662,0.563,1.482,1.071,2.315,1.279
		c1.853,0.465,3.506,0.016,4.044-1.997c0.104-0.389,0.314-0.749,0.504-1.186c1.16,0.816,1.115,1.946,1.157,3.036
		C112.062,50.756,111.891,51.816,112.293,52.829z M127.104,37.117c-0.619,0.061-1.08,0.097-1.538,0.152
		c-3.577,0.438-7.151,0.894-10.764,0.894c-0.548,0-1.118,0.015-1.643-0.117c-1.356-0.338-2.692-0.751-4.033-1.141
		c-1.405-0.409-2.802-0.285-4.235-0.118c0.07,0.892,0.605,0.863,1.119,0.867c1.144,0.009,2.275-0.027,3.398,0.363
		c2.327,0.81,4.7,1.433,7.211,1.105c0.042-0.005,0.085,0.001,0.128,0.004c3.166,0.202,6.253-0.542,9.382-0.791
		c0.367-0.029,0.721-0.199,1.137-0.319C127.215,37.736,127.174,37.507,127.104,37.117z M120.022,61.327
		c-0.276-0.105-0.525-0.2-0.943-0.359c-0.05,0.929-0.091,1.714-0.144,2.695c-1.398,0.771-2.938,1.499-4.773,1.246
		c-1.994-0.276-3.89-0.843-5.7-1.908c-0.132,0.252-0.237,0.458-0.326,0.63c1.803,2.617,7.062,3.284,11.236,1.298
		c1.418,1.519,1.418,1.519,2.498,0.997C120.481,64.707,119.945,63.148,120.022,61.327z M110.783,56.129
		c-0.509,1.908,1.013,2.812,1.843,3.955c0.558,0.769,3.466,0.717,4.488,0.06c0.972-0.624,1.643-1.538,2.199-2.607
		c-0.304-0.176-0.549-0.318-0.776-0.451c-1.146,0.653-2.235,1.274-3.229,1.839c-1.006-0.34-1.766-0.697-2.248-1.458
		C112.539,56.646,111.695,56.421,110.783,56.129z M123.33,33.009c-2.356,0-4.521-0.1-6.676,0.028
		c-2.154,0.127-4.342-0.361-6.513,0.183c0.138,0.792,0.643,0.769,1.102,0.768c1.996-0.008,3.992-0.043,5.987-0.047
		c1.486-0.002,2.971,0.049,4.456,0.04c0.581-0.003,1.162-0.102,1.742-0.173c0.053-0.006,0.094-0.124,0.183-0.25
		C123.519,33.375,123.408,33.162,123.33,33.009z M106.87,59.154c-0.281,1.784-0.956,3.288-2.363,4.406
		c-0.345,0.274-0.803,0.579-0.356,1.131c2.36-0.648,4.322-3.377,4.1-5.693C107.649,58.727,107.649,58.727,106.87,59.154z"/>
	<path fill-rule="evenodd" clip-rule="evenodd" fill="#ffc524" class="fill" d="M110.305,151.079c-0.591,0.972-1.379,1.03-2.058,1.124
		c-4.521,0.625-9.042,1.021-13.559-0.098c-1.021-0.253-2.097-0.276-3.145-0.43c-0.415-0.06-0.819-0.187-1.179-0.271
		c-0.764-1.04-0.857-2.221-0.941-3.342c-0.207-2.756-0.312-5.521-0.386-8.284c-0.058-2.245-0.011-4.491-0.011-6.58
		c1.557-0.676,2.972-1.224,4.326-1.896c1.694-0.842,2.899-2.251,3.693-3.918c0.87-1.828,1.525-3.759,2.353-5.842
		c1.978-0.272,4.2-0.408,6.462-0.251c2.717,0.187,5.451,0.408,8.161,0.276c3.095-0.15,6.166-0.73,9.257-1.019
		c4.311-0.402,8.234-2.027,12.118-3.752c0.94-0.417,1.708-1.228,2.55-1.862c0.188-0.141,0.361-0.301,0.622-0.521
		c0.312,1.164-0.274,2.001-0.759,2.711c-1.77,2.595-3.602,5.155-5.553,7.615c-0.691,0.872-1.746,1.487-2.709,2.104
		c-2.559,1.64-5.385,2.438-8.416,2.647c-2.842,0.198-5.677,0.511-8.513,0.791c-1.199,0.119-2.335,0.524-2.82,1.691
		c-0.449,1.083-0.833,2.271-0.882,3.428c-0.175,4.168,0.14,8.309,1.035,12.4C110.196,148.908,110.202,150.067,110.305,151.079z
		 M106.366,132.962c1.526,0.119,2.603-1.018,2.04-2.265c-0.225-0.131-0.542-0.315-0.859-0.5c-0.447,0.184-0.83,0.342-1.139,0.468
		C105.854,131.461,105.579,132.172,106.366,132.962z M107.692,135.7c-0.507-0.137-1.042-0.283-1.43-0.388
		c-0.752,0.437-1.069,0.939-0.979,1.569c0.052,0.368,0.25,0.873,0.53,1.008c0.292,0.14,0.842,0.023,1.138-0.184
		C107.507,137.313,107.891,136.746,107.692,135.7z M107.459,146.636c-1.163,0.247-1.276,1.123-1.433,2.162
		c0.461,0.142,0.902,0.278,1.256,0.387c1.061-0.899,1.061-0.899,0.946-2.058C107.988,146.973,107.713,146.797,107.459,146.636z
		 M107.247,143.052c0.731-1.359,0.659-1.582-0.56-2.208c-0.814,0.479-1.115,1.173-0.854,2.208
		C106.311,143.052,106.783,143.052,107.247,143.052z"/>
	<path fill-rule="evenodd" clip-rule="evenodd" fill="#ffc524" class="fill" d="M93.09,67.27c0.998-1.448,1.802-2.613,2.604-3.776
		c0.085,0.029,0.169,0.058,0.253,0.087c0.139,2.016,1.139,3.866,0.665,6.033c-0.581,2.658-0.606,5.4-0.545,8.131
		c0.036,1.655-0.028,3.313-0.011,4.97c0.006,0.453,0.15,0.904,0.243,1.429c0.659,0.176,1.254,0.419,1.866,0.483
		c3.551,0.376,7.104,0.967,10.66,0.983c3.167,0.014,6.342-0.576,9.501-0.994c1.595-0.211,2.289-0.992,2.459-2.619
		c0.299-2.873,0.514-5.754,0.784-8.63c0.054-0.583,0.195-1.158,0.296-1.725c3.169,0.17,3.413,1.739,2.138,4.735
		c0.105,0.366,0.215,0.819,0.368,1.256c0.14,0.398,0.327,0.78,0.517,1.222c-0.121,0.506-0.264,1.037-0.373,1.575
		c-0.186,0.92-0.287,1.812,0.071,2.754c0.247,0.652,0.21,1.413,0.289,2.041c-0.271,0.473-0.511,0.829-0.688,1.212
		c-0.595,1.275-1.572,2.065-2.907,2.496c-0.756,0.245-1.464,0.637-2.437,1.071c0.369,0.24,0.562,0.474,0.76,0.477
		c1.687,0.03,3.375,0.017,5.181,0.017c-0.57,1.685-1.776,2.522-3.104,3.199c-1.271,0.647-2.583,1.207-3.991,1.856
		c-0.01,0.113-0.029,0.347-0.064,0.722c2.77-0.136,5.458-0.268,8.304-0.407c-1.171,1.362-3.536,2.245-8.027,3.1
		c-0.073,0.189-0.161,0.414-0.284,0.73c2.396,0.459,4.735,0.907,7.075,1.355c-0.007,0.087-0.013,0.175-0.021,0.262
		c-1.058,0.265-2.106,0.58-3.176,0.782c-2.035,0.383-3.86,1.311-5.728,2.126c-2.075,0.907-4.182,1.617-6.47,1.806
		c-1.614,0.133-3.211,0.288-4.928,0.065c-0.389-0.87-0.783-1.752-1.184-2.648c-3.229-0.377-6.276,0.421-9.403,1.089
		c-0.113-0.852-0.217-1.559-0.302-2.269c-0.207-1.71-1.091-3.046-2.418-4.054c-1.043-0.793-2.204-1.433-3.316-2.132
		c-0.282-0.176-0.584-0.319-0.986-0.536c0.904-2.1,1.787-4.152,2.669-6.204c-0.044-0.03-0.088-0.061-0.132-0.091
		c0.401-0.309,0.789-0.638,1.207-0.922c1.263-0.858,1.868-2.087,1.928-3.566c0.119-3.017,0.176-6.036,0.271-9.053
		c0.082-2.594,0.179-5.188,0.278-7.781C92.996,67.633,93.077,67.342,93.09,67.27z"/>
	<path fill-rule="evenodd" clip-rule="evenodd" fill="#ffc524" class="fill" d="M86,111.354c-0.375,2.662-0.674,5.229-1.111,7.774
		c-0.448,2.604,0.312,5.138,0.377,8.028c-2.471-2.414-5.25-2.945-8.302-2.435c-0.158,0.781,0.426,0.863,0.886,1.038
		c3.103,1.172,5.122,3.554,6.925,6.178c0.094,0.136,0.127,0.313,0.225,0.566c-0.251-0.018-0.501,0.042-0.627-0.056
		c-1.601-1.248-3.562-1.558-5.427-2.102c-0.963-0.281-2.281-0.132-3.246,0.225c-0.066,0.602,0.338,0.629,0.785,0.701
		c2.764,0.444,4.626,2.177,6.389,4.623c-3.126-0.876-5.902-2.255-9.136-1.723c0.138,0.286,0.177,0.522,0.312,0.616
		c0.277,0.19,0.592,0.356,0.917,0.438c2.555,0.655,4.482,2.342,6.5,3.992c-2.016,0.079-4.046-0.745-6.03,0.098
		c-0.241,0.628,0.188,0.808,0.631,1.017c0.923,0.435,1.893,0.807,2.731,1.372c1.336,0.902,2.586,1.935,3.858,2.93
		c0.171,0.134,0.263,0.373,0.502,0.729c-1.848-0.461-3.425-1.358-5.336-0.879c0.249,1.237,1.528,1.403,2.216,2.311
		c-0.431,0.148-0.833,0.288-1.301,0.449c0,0.213,0,0.451,0,0.767c2.132,1.041,4.449,1.783,6.402,3.259
		c-1.289,0.054-2.512-0.636-4.042-0.149c0.348,0.335,0.553,0.645,0.84,0.79c2.162,1.089,4.341,2.145,6.513,3.216
		c0.102,0.05,0.182,0.146,0.396,0.324c-2.304,0.525-4.548-0.373-6.719,0.261c0.079,1.037,1.188,0.606,1.72,1.226
		c-2.297,0.446-4.366-0.605-6.762-0.625c0.883,1.48,2.24,1.872,3.47,2.693c-1.044,0.282-1.964,0.257-2.867-0.061
		c-3.273-1.151-6.362-2.66-9.003-4.945c-2.156-1.866-3.726-4.049-3.66-7.11c0.064-3.019-0.053-6.042,0.032-9.058
		c0.054-1.957,0.296-3.943,1.195-5.708c1.55-3.043,3.406-5.883,6.134-8.053c0.594-0.473,1.074-1.086,1.629-1.61
		c1.113-1.049,2.223-2.101,3.369-3.113c1.936-1.709,4.094-3.172,5.751-5.186c0.567-0.689,1.092-1.413,1.65-2.109
		C85.096,111.663,85.376,111.194,86,111.354z"/>
	<path fill-rule="evenodd" clip-rule="evenodd" fill="#ffc524" class="fill" d="M115.95,137.502c2.388-1.352,4.633-2.967,7.437-3.521
		c-1.135-0.707-2.447-0.548-3.795-1.106c1.15-0.394,2.114-0.874,3.13-1.041c2.263-0.371,4.547-0.637,6.831-0.841
		c1.225-0.109,1.704,0.17,2.93,1.134c-1.541,0.155-3.025,0.305-4.518,0.456c0.08,0.889,0.73,0.828,1.238,0.949
		c1.681,0.4,3.25,1.01,4.485,2.28c0.11,0.112,0.192,0.251,0.435,0.576c-2.412,0.061-4.772-0.554-6.801,1.076
		c-0.099,0.565,0.41,0.576,0.848,0.749c1.615,0.639,3.228,1.29,4.806,2.01c0.884,0.403,1.374,1.22,1.868,2.265
		c-0.515,0-0.938,0.099-1.289-0.016c-1.77-0.58-3.43-0.229-5.089,0.47c0.088,0.556,0.463,0.701,0.938,0.866
		c1.9,0.657,3.567,1.727,5.102,3.09c-2.497,0.616-4.92-0.357-7.373-0.261c-0.186,0.584,0.219,0.676,0.586,0.767
		c2.081,0.515,3.696,1.888,5.474,2.958c0.18,0.108,0.399,0.149,0.6,0.222c-0.093,0.147-0.185,0.295-0.276,0.443
		c-2.797-0.281-5.595-0.562-8.466-0.85c0,0.387,0,0.621,0,0.833c2.084,1.021,4.14,2.027,6.194,3.034
		c-2.825,0.362-5.635,0.543-8.49-0.132c-0.267,0.635,0.103,1.022,0.529,1.262c1.183,0.661,2.363,1.353,3.617,1.849
		c1.254,0.498,2.598,0.775,4.035,1.188c-1.018,0.509-2.019,0.41-2.982,0.479c-1.016,0.072-2.037,0.143-3.055,0.127
		c-0.976-0.014-1.954-0.217-2.926-0.193c-0.966,0.024-1.963-0.35-3.227,0.101c1.579,1.172,3.165,1.602,4.703,2.103
		c1.554,0.507,3.137,0.928,4.707,1.386c-0.015,0.094-0.029,0.188-0.043,0.282c-3.198,0-6.396,0-9.777,0
		c0.5,1.289,1.75,1.167,2.598,1.964c-0.7,0.024-1.263,0.122-1.802,0.05c-1.599-0.215-3.193-0.464-4.778-0.763
		c-1.107-0.209-2.091-0.763-2.894-1.536c-0.948-0.912-1.808-1.915-2.695-2.888c-0.075-0.082-0.073-0.232-0.11-0.355
		c2.094-0.184,3.959,1.225,6.193,0.877c-0.373-1.06-1.35-1.249-1.971-1.806c-0.645-0.579-1.439-0.99-2.297-1.56
		c1.211-0.458,2.301-0.119,3.355-0.22c1.006-0.095,1.934,0.873,3.076,0.236c-1.547-2.164-3.825-2.377-6.312-2.749
		c1.19-0.647,1.605-1.428,1.74-2.488c0.08-0.632,0.503-1.27,0.905-1.804c1.979-2.628,4.59-4.387,7.695-5.438
		c0.75-0.253,1.481-0.556,2.397-0.903c-0.796-0.841-1.656-1-2.515-1.067c-0.87-0.068-1.749-0.015-2.641-0.145
		c1.749-1.629,3.988-1.785,6.242-2.049C123.644,138.501,122.061,138.114,115.95,137.502z"/>
	<path fill-rule="evenodd" clip-rule="evenodd" fill="#ffc524" class="fill" d="M108.037,118.506c0.142-0.43,0.256-0.78,0.411-1.255
		c-0.989-2.852-2.013-5.806-3.088-8.909c1.282-0.108,2.44-0.217,3.603-0.302c1.964-0.142,3.832-0.601,5.67-1.346
		c2.792-1.131,5.613-2.21,8.487-3.1c2.564-0.794,5.201-0.675,7.696,0.086c-0.47,1.084-1.023,2.126-1.374,3.232
		c-0.535,1.683,0.085,3.364,1.488,3.897c1.005,0.382,2.11,0.697,3.209,0.187c1.001-0.465,2.06-0.494,3.127-0.409
		c0.359,0.029,0.709,0.163,1.052,0.245c-0.171,2.162-1.599,3.264-3.131,4.2c-2.872,1.754-6.082,2.645-9.363,3.162
		c-2.722,0.429-5.502,0.468-8.23,0.863c-3.006,0.434-5.916-0.514-8.889-0.393C108.512,118.672,108.313,118.575,108.037,118.506z"/>
	<path fill-rule="evenodd" clip-rule="evenodd" fill="#ffc524" class="fill" d="M150.372,120.599c-0.448-0.708-0.728-1.152-1.151-1.819
		c-0.198,0.489-0.375,0.729-0.383,0.974c-0.054,1.57,0.035,3.152-0.129,4.709c-0.137,1.295-0.451,2.596-0.878,3.829
		c-0.394,1.141-1.501,1.348-2.733,1.551c0.161-0.401,0.249-0.662,0.368-0.905c1.038-2.113,1.778-4.323,2.126-6.651
		c0.046-0.307-0.129-0.646-0.229-1.094c-1.186,0.687-1.365,1.696-1.63,2.669c-0.342,1.266-0.625,2.56-1.104,3.774
		c-0.632,1.603-1.772,2.772-3.52,3.328c-1.15-0.444-2.466-0.464-3.674-1.338c3.246-1.937,5.527-4.511,6.648-8.125
		c-0.275-0.329-0.535-0.641-0.756-0.906c-0.729,0.029-0.946,0.478-1.204,0.936c-0.706,1.257-1.401,2.525-2.194,3.729
		c-0.812,1.232-1.94,2.137-3.322,2.695c-1.178,0.476-2.328,1.007-3.632,1.134c-0.962,0.094-1.757-0.093-2.58-0.86
		c0.711-0.531,1.322-1.118,2.042-1.503c1.765-0.943,2.821-2.568,4.007-4.049c1.819-2.271,3.052-4.892,4.041-7.611
		c0.233-0.636,0.241-1.427,0.114-2.102c-0.179-0.947-0.524-1.876-0.901-2.77c-0.511-1.21-2.776-1.973-4.114-1.388
		c-0.885,0.387-1.761,0.609-2.724,0.441c-1.519-0.266-2.113-1.595-1.413-2.972c0.764-1.506,2.006-2.252,3.598-2.533
		c1.626-0.287,3.205-0.126,4.771,0.421c1.4,0.489,2.818,0.958,4.266,1.263c1.975,0.416,3.52,1.459,4.816,2.92
		c0.355,0.401,0.615,0.926,0.791,1.438c0.59,1.696,0.986,3.427,0.909,5.25c-0.06,1.44-0.017,2.885-0.039,4.327
		C150.555,119.681,150.466,120,150.372,120.599z"/>
	<path fill-rule="evenodd" clip-rule="evenodd" fill="#ffc524" class="fill" d="M119.656,71.095c0,0.799,0.056,1.521-0.01,2.231
		c-0.23,2.536-0.504,5.067-0.76,7.601c-0.129,1.281-0.825,2.032-2.104,2.164c-3.835,0.397-7.658,1.066-11.532,0.295
		c-1.784-0.355-3.595-0.574-5.412-0.857c-1.123-2.495-0.524-15.997,0.918-18.948c0.503,0.731,0.99,1.388,1.422,2.08
		c0.835,1.338,1.935,2.288,3.421,2.915c2.77,1.169,5.58,2.038,8.611,2.132C115.987,70.764,117.761,70.956,119.656,71.095z"/>
	<path fill-rule="evenodd" clip-rule="evenodd" fill="#ffc524" class="fill" d="M79.219,78.905c-0.963-1.33-1.725-2.556-2.66-3.633
		c-1.276-1.471-2.891-2.52-4.796-3.01c-2.835-0.729-4.625-2.629-5.755-5.183c-0.943-2.135-1.812-4.316-2.519-6.539
		c-0.548-1.726-0.794-3.547-1.189-5.389c0.496-0.324,0.909-0.596,1.265-0.829c0.469,0.441,0.893,0.798,1.268,1.199
		c0.915,0.978,1.609,2.074,1.835,3.434c0.11,0.668,0.354,1.314,0.482,1.98c0.314,1.634,1.225,2.896,2.498,3.889
		c1.068,0.834,2.211,1.573,3.418,2.233c0.268,0.327,0.534,0.652,0.837,1.023c0.385,0.072,0.799,0.15,1.348,0.253
		c0.331-0.314,0.682-0.665,1.053-0.991c0.373-0.327,0.766-0.629,1.215-0.995c0.353,0.503,0.629,0.894,0.99,1.407
		c0.994-0.838,1.86-1.796,3.27-1.567c0.298,0.415,0.637,0.883,1.028,1.428c1.332-0.859,1.743-2.726,3.427-2.827
		c0.969,0.417,0.439,2.009,1.963,2c0.349-0.44,0.762-0.959,1.174-1.478c-0.029-0.039-0.062-0.078-0.091-0.117
		c0.513-0.264,1.026-0.527,1.458-0.75c0.613,0.273,0.695,0.617,0.604,1.104c-0.99,5.233-0.643,10.508-0.507,15.779
		c0.028,1.059-0.057,2.129-0.193,3.181c-0.083,0.644-0.272,1.312-1.043,1.896c0.097-1.789-0.597-3.289-0.249-4.946
		c0.348-1.651-0.399-2.441-1.959-3.071c-1.801-0.728-3.498-0.262-5.242,0.067C81.11,78.65,80.061,78.778,79.219,78.905z"/>
	<path fill-rule="evenodd" clip-rule="evenodd" fill="#ffc524" class="fill" d="M128.316,72.597c1.004-0.519,1.957-0.905,3.301-0.794
		c-0.931,1.111-1.734,2.07-2.571,3.069c0.116,0.323,0.226,0.628,0.361,1.003c1.385-0.559,2.698-1.353,4.45-0.771
		c-0.529,0.476-0.939,0.939-1.438,1.271c-0.83,0.554-1.287,1.358-1.626,2.231c-0.134,0.341-0.022,0.777-0.022,1.331
		c2.003-0.794,3.745-1.896,6.041-1.235c-0.971,0.8-1.819,1.436-2.588,2.156c-0.519,0.487-0.947,1.078-1.372,1.655
		c-0.278,0.379-0.313,0.792,0.279,1.184c2.315-1.03,4.712-2.252,7.634-1.123c-0.48,0.357-0.886,0.631-1.26,0.941
		c-1.044,0.869-2.104,1.721-3.099,2.643c-0.511,0.474-0.454,0.535-0.073,1.435c0.768-0.312,1.565-0.58,2.312-0.95
		c1.435-0.709,2.945-0.776,4.486-0.633c0.401,0.037,0.789,0.204,1.42,0.375c-1.033,0.752-1.896,1.331-2.7,1.981
		c-0.691,0.559-1.343,1.172-1.961,1.812c-0.329,0.341-0.565,0.785,0.004,1.251c2.396-0.589,4.835-1.443,7.58-0.246
		c-0.468,0.222-0.719,0.336-0.966,0.459c-1.252,0.622-2.513,1.227-3.743,1.889c-0.224,0.12-0.323,0.474-0.595,0.899
		c2.255-0.067,4.248-0.417,6.2,0.162c0.279,0.083,0.545,0.227,0.798,0.375c0.092,0.053,0.129,0.201,0.239,0.387
		c-1.547,0.625-3.359,0.207-4.75,1.349c0.017,0.202,0.035,0.407,0.056,0.645c2.316,0.271,4.441,0.932,6.258,2.823
		c-1.075,0.338-1.946,0.116-2.8,0.122c-0.903,0.007-1.708,0.288-2.724,0.771c1.446,1.206,3.683,1.284,3.883,3.476
		c-0.077,0-0.2,0.029-0.221-0.004c-0.806-1.333-2.158-1.861-3.517-2.35c-1.676-0.604-3.329-1.293-5.141-1.439
		c-0.493-0.04-0.97-0.276-1.474-0.427c-0.053-0.345-0.157-0.639-0.133-0.92c0.173-1.943-0.461-3.701-1.285-5.389
		c-0.709-1.449-1.895-2.534-3.262-3.328c-1.773-1.028-3.455-2.167-4.983-3.525c-1.128-1.003-1.895-2.249-1.825-3.788
		c0.131-2.884,0.367-5.763,0.574-8.644C128.115,74.05,128.223,73.378,128.316,72.597z"/>
	<path fill-rule="evenodd" clip-rule="evenodd" fill="#ffc524" class="fill" d="M88.456,110.132c0.292,0.238,0.587,0.478,0.934,0.759
		c0.511-0.643,0.924-1.165,1.521-1.919c-0.253-0.119-0.513-0.242-0.932-0.44c0.507-0.347,0.872-0.596,1.246-0.852
		c0.346,0.126,0.646,0.235,0.986,0.359c0.296-0.356,0.559-0.673,0.874-1.055c2.914-0.791,5.783-2.071,8.997-1.806
		c1.784,3.554,2.492,7.472,4.066,11.269c-1.003,0.322-1.974,0.794-2.988,0.925c-1.804,0.233-3.634,0.279-5.454,0.366
		c-0.805,0.038-1.625-0.106-2.418-0.01c-1.858,0.225-3.536-0.357-5.183-1.047C87.511,115.595,86.727,112.382,88.456,110.132z
		 M103.381,116.077c0.023-0.154,0.046-0.308,0.068-0.461c-0.888-0.688-1.934-0.304-3.025-0.381c0.02,0.429,0.032,0.69,0.05,1.055
		C101.512,116.213,102.446,116.145,103.381,116.077z M97.23,115.795c-0.471-0.54-0.473-0.535-1.852-0.664
		c-0.451-0.042-0.923-0.193-1.204,0.349C95.027,116.216,96.354,116.342,97.23,115.795z M90.658,114.734
		c-1.003-1.795-1.003-1.795-1.783-1.664C89.066,114.452,89.447,114.83,90.658,114.734z"/>
	<path fill-rule="evenodd" clip-rule="evenodd" fill="#ffc524" class="fill" d="M60.972,53.192c-1.293,0.445-2.481,0.854-3.819,1.314
		c-0.19-0.523-0.381-0.975-0.518-1.441c-0.616-2.097-1.309-4.188-3.07-5.611c-1.143-0.924-2.454-1.652-3.73-2.399
		c-1.377-0.806-2.238-1.911-2.389-3.456c0.453-0.507,0.865-0.971,1.423-1.596c1.094-0.398,2.528-0.665,3.398-2.063
		c0.04-0.278,0.095-0.651,0.132-0.899c0.835-0.493,1.768-0.789,2.285-1.423c0.485-0.595,0.533-1.548,0.828-2.522
		c1.154,0.133,2.268-0.396,3.292-1.568c0.249,3.839,0.384,7.417,0.741,10.973C59.899,46.037,60.477,49.553,60.972,53.192z
		 M59.784,48.15c-0.418-0.655-0.681-1.234-1.091-1.676c-1.151-1.243-1.798-2.789-1.912-4.366c-0.09-1.245,0.521-2.542,0.838-3.812
		c0.078-0.31,0.225-0.601,0.325-0.861c-0.474-0.451-0.813-0.331-1.023,0.069c-0.273,0.522-0.477,1.081-0.705,1.626
		c-1.239,2.966-0.896,5.787,0.724,8.521c0.401,0.676,0.91,1.091,1.775,1.251C58.957,48.732,59.258,48.522,59.784,48.15z"/>
	<path fill-rule="evenodd" clip-rule="evenodd" fill="#ffc524" class="fill" d="M58.194,56.145c1.056-0.249,1.996-0.472,3.067-0.725
		c0.107,0.319,0.258,0.613,0.304,0.922c0.336,2.273,0.778,4.529,1.634,6.661c0.804,2.001,1.609,4.03,2.697,5.88
		c1.245,2.119,2.997,3.759,5.57,4.318c2.877,0.626,5.518,3.35,6.406,5.894c-0.451,0.101-0.886,0.275-1.322,0.282
		c-1.947,0.03-3.9,0.078-5.845-0.008c-2.278-0.101-4.034-1.209-5.212-3.155c-1.923-3.179-3.28-6.621-4.453-10.126
		c-0.996-2.978-1.836-6.007-2.734-9.016C58.236,56.836,58.244,56.577,58.194,56.145z"/>
	<path fill-rule="evenodd" clip-rule="evenodd" fill="#ffc524" class="fill" d="M60.787,34.614c1.186,0.468,1.908,0.213,2.206-0.78
		c0.571-1.904,0.308-3.696-0.864-5.33c-0.742-1.034-1.508-2.052-2.224-3.103c-0.866-1.272-0.81-1.792,0.234-3.056
		c0.595-0.297,1.174-0.166,1.689,0.173c1.376,0.9,2.472,2.021,3.115,3.599c0.961,2.356,1.215,4.789,0.891,7.264
		c-0.393,2.988-0.88,5.965-1.423,8.93c-0.336,1.835-0.287,3.638,0.022,5.454c0.113,0.669,0.259,1.333,0.398,2.04
		c-0.512,1.248-1.563,1.916-2.905,2.614c-1.098-6.812-2.086-13.495-1.983-20.289c0.097-0.021,0.192-0.043,0.289-0.064
		c0.096,0.424,0.194,0.849,0.286,1.274C60.616,33.787,60.707,34.235,60.787,34.614z"/>
	<path fill-rule="evenodd" clip-rule="evenodd" fill="#ffc524" class="fill" d="M97.725,121.358c-0.433,2.466-1.321,4.545-2.727,6.38
		c-1.024,1.335-4.734,3.517-5.932,3.645c-0.594-1.589-1.18-3.176-1.778-4.758c-0.839-2.215-0.719-4.5-0.511-6.791
		c0.068-0.756,0.188-1.508,0.304-2.415c0.338,0.269,0.576,0.421,0.769,0.618c1.617,1.646,3.629,2.439,5.871,2.749
		C95.01,120.964,96.296,121.153,97.725,121.358z"/>
	<path fill-rule="evenodd" clip-rule="evenodd" fill="#ffc524" class="fill" d="M92.441,104.741c-1.937,1.019-4.023,1.746-5.373,3.871
		c-0.569-1.302-1.191-2.322-0.862-3.633c0.097-0.391-0.011-0.837-0.045-1.257c-0.19-2.305,0.23-4.541,0.637-6.796
		C90.295,97.898,93.228,100.791,92.441,104.741z"/>
	<path fill-rule="evenodd" clip-rule="evenodd" fill="#ffc524" class="fill" d="M57.75,30.361c-0.661,0.252-1.304,0.496-1.875,0.713
		c-1.801-1.632-3.832-8.218-3.238-10.376c0.934-0.734,2.106-1.114,3.294-1.414c0.659-0.167,1.252,0.069,1.624,0.723
		c0.355,0.627,0.751,1.232,1.168,1.911c-0.153,0.31-0.314,0.631-0.501,1.007c-0.554-0.395-1.021-0.729-1.467-1.048
		c-0.916,0.66-0.959,0.787-0.562,1.553c0.077,0.151,0.16,0.304,0.265,0.436C57.976,25.762,57.803,27.979,57.75,30.361z"/>
	<path fill-rule="evenodd" clip-rule="evenodd" fill="#ffc524" class="fill" d="M50.67,23.588c0.293,0.965,0.521,1.862,0.84,2.726
		c0.513,1.394,1.122,2.751,1.621,4.15c0.322,0.906,0.599,1.845,0.746,2.792c0.068,0.443-0.216,0.941-0.348,1.443
		c-0.816,0.2-1.505,0.368-2.197,0.537c-0.221-0.289-0.402-0.469-0.517-0.687c-1.213-2.302-2.271-4.66-2.708-7.255
		c-0.327-1.936-0.163-2.335,1.555-3.273C49.949,23.865,50.268,23.76,50.67,23.588z"/>
	<path fill-rule="evenodd" clip-rule="evenodd" fill="#ffc524" class="fill" d="M109.128,18.753c0.335,0.395,0.606,0.713,0.762,0.896
		c0.351,1.206,0.653,2.254,0.933,3.221c-1.211,0.739-2.336,1.426-3.488,2.13c-0.309-0.328-0.533-0.567-0.81-0.861
		c-0.376,0.056-0.784,0.118-1.241,0.186c-0.447-0.82,0.622-0.979,0.695-1.554c-0.368-0.565-0.368-0.565-1.203-0.517
		c0.163-0.307,0.308-0.579,0.51-0.959c-0.328-0.224-0.623-0.424-1.042-0.709C105.808,19.7,107.254,18.646,109.128,18.753z"/>
	<path fill-rule="evenodd" clip-rule="evenodd" fill="#ffc524" class="fill" d="M49.814,38.136c-0.553,0.393-0.97,0.25-1.323-0.125
		c-0.2-0.212-0.387-0.462-0.502-0.729c-0.756-1.75-1.486-3.512-2.235-5.265c-0.512-1.198-0.203-2.214,0.618-3.154
		C47.486,30.049,49.891,36.526,49.814,38.136z"/>
	<path fill-rule="evenodd" clip-rule="evenodd" fill="#ffc524" class="fill" d="M47.385,39.709c-0.647,0.595-1.376,0.229-2.215,0.083
		c-1.1-1.918-1.895-3.972-2.143-6.299c0.321-0.237,0.611-0.451,1.029-0.76C45.192,35.116,46.277,37.388,47.385,39.709z"/>
	<path fill-rule="evenodd" clip-rule="evenodd" fill="#ffc524" class="fill" d="M125.744,48.043c-0.344,0.379-0.66,0.726-0.928,1.021
		c-0.792-0.25-1.429-0.452-2.058-0.651c-0.474,0.199-0.896,0.378-1.415,0.596c-0.17-0.252-0.342-0.507-0.49-0.727
		c0.102-0.159,0.135-0.273,0.19-0.286C123.023,47.532,124.68,47.529,125.744,48.043z"/>
	<path fill-rule="evenodd" clip-rule="evenodd" fill="#ffc524" class="fill" d="M104.278,46.142c1.737-0.007,3.479-0.543,5.239,0.166
		c0.225,0.8-0.136,1.407-0.547,2.103c-0.715-0.808-1.514-1.294-2.691-0.883c-0.178,0.251-0.416,0.587-0.664,0.937
		C104.8,47.953,104.056,47.415,104.278,46.142z"/>
</g>
</svg>
