<svg version="1.1" id="svg" xmlns="http://www.w3.org/2000/svg" xmlns:xlink="http://www.w3.org/1999/xlink" x="0px" y="0px"
	 width="200px" height="200px" viewBox="0 0 200 200" enable-background="new 0 0 200 200" xml:space="preserve">
<path class="stroke" fill="#561906"  d="M168.25,112.115c-0.026-0.952-0.813-1.894-1.6-2.12c-0.638-0.184-1.272-0.375-1.912-0.564
	c-0.675-1.173-1.396-2.32-2.014-3.521c-1.051-2.045-2.569-3.487-4.712-4.418c-2.188-0.952-4.337-2.042-6.367-3.294
	c-3.042-1.878-5.948-3.975-8.943-5.933c-1.982-1.296-3.986-2.565-6.037-3.75c-2.16-1.248-4.388-2.379-6.583-3.565
	c-1.665-0.9-3.328-1.804-4.986-2.717c-0.268-0.148-0.504-0.352-0.718-0.504c0.174-0.541,0.324-1.013,0.428-1.336
	c0.083-1.463-1.108-1.871-1.8-2.599c0.003-1.351-0.704-1.893-2.146-2.377c-1.027-0.345-1.671-1.021-2.408-1.662
	c0.259-0.897,0.428-1.773-0.209-2.529c-0.638-0.757-1.569-0.608-2.562-0.648c-0.598-0.711-1.251-1.491-1.964-2.341
	c0.484-1.241,0.17-2.122-1.17-2.602c-0.477-0.171-1.052-0.296-1.529-0.192c-1.279,0.276-2.112-0.518-3.066-1.037
	c0.081-0.304,0.149-0.562,0.212-0.796c-0.321-0.871-0.996-1.215-1.807-1.417c-0.436-0.109-0.857-0.287-1.272-0.465
	c-0.915-0.394-1.805-0.846-2.736-1.195c-0.493-0.185-1.085-0.375-1.567-0.268c-1.508,0.331-2.924,0.892-3.653,2.479
	c-0.902-0.479-1.816-0.963-2.73-1.446c-1.205-0.637-2.448-1.166-3.849-1.05c-2.171,0.181-4.041,1.192-5.749,2.409
	c-1.988,1.417-3.825,3.043-5.823,4.654c-0.041-0.012-0.246-0.051-0.436-0.131c-1.535-0.644-3.064-1.301-4.601-1.942
	c-1.035-0.432-2.072-0.862-3.12-1.264c-0.873-0.334-1.803-0.541-2.635-0.95c-1.918-0.944-3.905-1.724-5.994-2.084
	c-1.585-0.274-3.232-0.175-4.852-0.258c-3.045-0.158-5.969,0.514-8.834,1.408c-1.375,0.429-2.66,1.141-3.938,1.704
	c-0.243,0.431-0.487,0.776-0.643,1.158c-1.043,2.56-2.179,5.088-3.072,7.7c-1.135,3.317-2.07,6.704-3.089,10.062
	c-0.57,1.878-1.136,3.758-1.702,5.631c-0.696,0.349-1.381,0.657-2.029,1.026c-0.773,0.438-1.346,1.068-1.421,1.997
	c-0.063,0.787,0.005,1.587-0.083,2.37c-0.184,1.652-0.462,3.294-0.644,4.947c-0.231,2.114-0.41,4.233-0.596,6.352
	c-0.045,0.509-0.085,1.031-0.029,1.535c0.121,1.111,0.694,1.843,1.746,2.368c1.721,0.858,3.292,2.029,5.036,2.825
	c2.2,1.005,4.489,1.828,6.779,2.614c2.314,0.794,4.665,1.486,7.02,2.152c3.115,0.881,6.24,1.728,9.381,2.509
	c0.858,0.214,1.721,0.097,2.54-0.511c1.247-0.927,2.62-1.684,3.936-2.519c0.561-0.355,1.111-0.729,1.669-1.091
	c0.742-0.48,1.475-0.976,2.239-1.417c0.159-0.091,0.466-0.033,0.656,0.058c1.5,0.711,3.005,1.416,4.475,2.185
	c1.286,0.673,2.509,1.463,3.793,2.137c1.044,0.548,2.151,0.973,3.205,1.502c1.765,0.885,3.513,1.804,5.262,2.719
	c1.6,0.838,3.189,1.695,4.788,2.535c0.533,0.28,1.086,0.522,1.617,0.807c1.199,0.64,2.353,1.382,3.593,1.925
	c1.843,0.805,3.729,1.523,5.628,2.186c2.059,0.719,4.13,1.427,6.241,1.961c1.705,0.432,3.474,0.611,5.218,0.88
	c2.236,0.346,4.466,0.817,6.718,0.968c3.632,0.242,7.28,0.368,10.921,0.352c3.139-0.014,6.278-0.278,9.415-0.465
	c1.559-0.093,3.131-0.157,4.663-0.427c1.57-0.275,3.119-0.722,4.64-1.209c2.017-0.646,4.002-1.39,5.989-2.127
	c0.5-0.186,0.961-0.49,1.42-0.772c1.431-0.877,2.883-1.724,4.27-2.668c1.446-0.986,2.33-2.389,3.031-4.012
	c0.626-1.448,1.014-2.914,1.099-4.444C168.349,115.771,168.3,113.94,168.25,112.115z"/>
<path fill-rule="evenodd" clip-rule="evenodd" fill="#bf7512" class="fill" d="M58.405,98.718c1.203-1.534,2.178-3.111,3.825-4.053
	c1.21-0.692,2.413-1.426,3.835-1.57c1.86-0.188,3.735-0.508,5.586-0.419c2.581,0.125,5.208,0.277,7.583,1.535
	c0.181,0.096,0.393,0.134,0.59,0.201c0.542,0.184,1.066,0.328,1.445,0.868c0.504,0.72,1.363,0.932,2.175,1.124
	c2.245,0.529,4.515,0.968,6.745,1.553c1.767,0.465,3.477,1.146,5.238,1.634c1.66,0.461,3.35,1.065,5.038,1.105
	c1.696,0.041,3.101,0.667,4.536,1.305c2.032,0.904,4.011,1.931,6.006,2.92c2.126,1.054,4.229,2.155,6.368,3.179
	c1.461,0.7,2.956,1.341,4.461,1.942c1.542,0.616,3.082,1.288,4.686,1.687c1.808,0.451,3.683,0.632,5.53,0.922
	c1.849,0.289,3.696,0.587,5.549,0.848c1.87,0.263,3.787,0.473,5.551-0.312c1.51-0.671,2.938-1.561,4.32-2.48
	c1.561-1.039,3.084-2.153,4.524-3.354c1.644-1.372,3.179-2.876,4.76-4.323c0.183-0.167,0.36-0.337,0.557-0.521
	c0.215,0.095,0.396,0.177,0.699,0.311c-0.264,0.45-0.486,0.859-0.735,1.252c-0.697,1.103-1.515,2.017-2.753,2.622
	c-0.899,0.438-1.489,1.357-1.749,2.55c0.264,0.158,0.549,0.445,0.875,0.499c0.65,0.107,1.321,0.087,1.983,0.119
	c1.183,0.057,2.401-0.05,3.54,0.204c1.968,0.438,3.268,1.714,3.816,3.814c-0.722,0.662-1.412,1.391-2.197,1.994
	c-2.03,1.559-4.069,3.112-6.17,4.572c-1.94,1.349-4.185,2.007-6.474,2.512c-2.213,0.488-4.418,1.02-6.639,1.475
	c-2.207,0.452-4.435,0.809-6.698,0.701c-2.89-0.138-5.783-0.254-8.663-0.517c-1.963-0.179-3.905-0.595-5.856-0.902
	c-2.836-0.445-5.688-0.811-8.503-1.362c-1.749-0.343-3.473-0.884-5.155-1.483c-3.451-1.227-6.893-2.486-10.284-3.866
	c-1.629-0.664-3.151-1.604-4.693-2.471c-2.632-1.481-5.238-3.009-7.861-4.508c-1.769-1.011-3.529-2.038-5.325-3
	c-1.65-0.885-3.349-1.683-5.017-2.536c-3.766-1.925-7.618-3.628-11.722-4.712C60.636,99.483,59.567,99.089,58.405,98.718z
	 M79.292,105.113c0.243,0.245,0.4,0.496,0.627,0.617c1.557,0.835,3.113,1.674,4.701,2.447c0.987,0.481,2.087,0.749,3.037,1.29
	c1.515,0.864,2.96,1.855,4.412,2.828c1.693,1.135,3.313,2.386,5.051,3.447c1.825,1.114,3.716,2.136,5.646,3.055
	c1.153,0.548,2.452,0.779,3.658,1.226c2.526,0.935,5.144,1.489,7.785,1.942c2.598,0.446,5.195,0.898,7.808,1.238
	c3.114,0.405,6.245,0.696,9.369,1.031c0.724,0.076,1.484,0.016,2.168,0.218c1.155,0.34,2.306,0.35,3.461,0.188
	c1.563-0.218,3.12-0.496,4.671-0.786c2.099-0.393,4.192-0.821,6.382-1.253c0.08-0.405,0.149-0.757,0.209-1.059
	c-0.461-0.229-0.943-0.308-1.097-0.576c-0.512-0.889-0.83-1.86-0.576-2.922c0.177-0.738,0.344-1.478,0.561-2.418
	c-0.426-0.013-0.738-0.06-1.039-0.021c-0.284,0.037-0.549,0.211-0.833,0.243c-1.898,0.213-3.794,0.488-5.698,0.582
	c-2.161,0.107-4.331,0.05-6.496,0.055c-0.438,0.001-0.882-0.001-1.311-0.075c-1.556-0.27-3.113-0.535-4.656-0.867
	c-2.395-0.518-4.776-1.101-7.168-1.634c-1.738-0.387-3.468-0.751-5.073-1.603c-2.646-1.403-5.371-2.661-8.002-4.088
	c-1.551-0.841-3.188-1.418-4.83-2.002c-2.317-0.823-4.67-0.289-6.995-0.045c-2.009,0.211-4.012,0.421-6.03,0.286
	c-0.886-0.06-1.763-0.25-2.645-0.382c-2.176-0.327-4.391-0.496-6.438-1.673C79.767,104.6,79.587,104.794,79.292,105.113z"/>
<path fill-rule="evenodd" clip-rule="evenodd" fill="#bf7512" class="fill" d="M151.459,106.134c-0.5,0.418-0.979,0.864-1.503,1.251
	c-2,1.478-4.094,2.738-6.597,3.243c-1.41,0.286-2.799,0.688-4.245,0.582c-2.967-0.218-5.934-0.461-8.893-0.77
	c-0.656-0.069-1.28-0.454-1.92-0.691c-0.777-0.289-1.556-0.574-2.333-0.862c-3.038-1.125-6.085-2.227-9.11-3.384
	c-1.511-0.579-2.986-1.253-4.471-1.897c-0.952-0.413-1.928-0.788-2.83-1.292c-1.433-0.8-2.814-1.69-4.212-2.55
	c-0.172-0.106-0.313-0.262-0.601-0.508c0.877-0.869,1.659-1.764,2.564-2.508c1.187-0.976,2.573-1.725,3.686-2.771
	c1.248-1.173,2.188-2.619,2.314-4.432c0.005-0.062,0.019-0.13,0.002-0.188c-0.357-1.159,0.075-2.293,0.092-3.438
	c0.01-0.729-0.155-1.461-0.271-2.437c0.661-0.379,1.526-0.875,2.127-1.219c1.604,0.561,2.904,1.12,4.258,1.457
	c1.192,0.297,2.447,0.344,3.672,0.505c0.183,0.023,0.372,0.047,0.542,0.114c1.527,0.594,2.941,1.37,4.105,2.556
	c0.422,0.431,0.927,0.781,1.346,1.216c0.412,0.429,0.755,0.925,1.142,1.381c0.695,0.822,1.333,1.71,2.117,2.438
	c1.574,1.464,2.704,3.226,3.624,5.125c0.632,1.305,1.089,2.694,1.656,4.031c0.165,0.388,0.438,0.728,0.719,1.181
	c0.469,0.083,0.991,0.229,1.521,0.26c1.237,0.073,2.344,0.509,3.433,1.055c1.36,0.68,2.705,1.42,4.129,1.924
	c0.978,0.346,2.08,0.342,3.129,0.479c0.256,0.033,0.521,0.005,0.781,0.005C151.44,106.038,151.45,106.086,151.459,106.134z"/>
<path fill-rule="evenodd" clip-rule="evenodd" fill="#bf7512" class="fill" d="M93.44,68.113c-0.527,0.554-0.983,1.063-1.473,1.54
	c-0.994,0.966-1.955,1.927-2.691,3.146c-0.466,0.77-0.721,1.347-0.373,2.217c0.481,1.203,1.241,1.439,2.468,0.937
	c2.622-1.073,4.603-2.939,6.525-4.964c0.069,0.129,0.132,0.246,0.148,0.275c-0.993,0.975-2.002,1.847-2.869,2.844
	c-1.267,1.458-2.026,3.189-2.22,5.121c-0.105,1.055,0.194,1.493,1.024,1.845c0.744,0.314,1.821,0.171,2.292-0.471
	c1.384-1.885,3.124-3.43,4.729-5.104c0.3-0.312,0.625-0.6,0.992-0.95c0.778,0.742,1.509,1.439,2.193,2.092
	c-1.72,2.092-3.414,4.152-4.94,6.007c-0.478,1.605-0.02,2.746,1.119,3.065c0.357,0.101,0.868,0.065,1.17-0.126
	c0.803-0.509,1.597-1.067,2.005-1.998c0.081-0.185,0.235-0.347,0.383-0.491c1.062-1.039,2.133-2.071,3.276-3.179
	c0.42,0.504,0.739,0.889,0.997,1.198c-1.682,1.645-3.365,3.2-4.933,4.863c-0.767,0.813-0.986,3.043,0.384,3.726
	c0.505,0.252,1.062,0.467,1.616,0.541c0.655,0.087,1.18-0.229,1.575-0.812c1.22-1.798,2.856-3.513,4.42-4.515
	c0,0.331,0.002,0.601,0,0.872c-0.008,1.359-0.584,2.532-1.217,3.684c-0.889,1.617-2.009,3.054-3.293,4.385
	c-0.485,0.503-0.681,1.277-1.144,1.811c-1.033,1.191-2.12,2.34-3.245,3.444c-0.636,0.625-1.476,0.557-2.306,0.392
	c-3.065-0.61-6.015-1.621-9.001-2.517c-1.967-0.589-4.002-0.949-5.999-1.445c-0.823-0.205-1.626-0.493-2.437-0.75
	c-0.438-0.14-0.645-0.475-0.61-0.909c0.041-0.515,0.051-1.064,0.241-1.531c0.89-2.177,0.686-4.331,0.124-6.546
	c-0.426-1.681-1.448-2.977-2.399-4.33c-0.586-0.832-1.265-1.599-1.907-2.402c0.501-0.369,1.069-0.661,1.469-1.104
	c1.521-1.684,2.926-3.474,4.491-5.114c1.431-1.5,2.928-2.964,4.557-4.239c1.122-0.877,2.563-1.167,4.032-0.779
	C92.869,67.908,93.114,68.005,93.44,68.113z"/>
<path fill-rule="evenodd" clip-rule="evenodd" fill="#bf7512" class="fill" d="M46.651,95.894c-0.182-0.133-0.346-0.312-0.549-0.391
	c-0.841-0.328-1.211-1.037-1.363-1.825c-0.248-1.283-0.551-2.581-0.23-3.9c0.167-0.687,0.36-1.368,0.574-2.041
	c0.059-0.184,0.219-0.351,0.367-0.488c1.173-1.089,2.504-1.866,4.02-2.449c1.801-0.691,3.644-1.041,5.529-1.172
	c0.805-0.056,1.635,0.227,2.452,0.367c1.248,0.214,2.487,0.509,3.744,0.642c2.051,0.216,4.109,0.375,6.167,0.473
	c2.71,0.127,5.304-0.383,7.738-1.625c0.814-0.416,1.179-0.336,1.761,0.412c0.838,1.077,1.223,2.35,1.546,3.655
	c0.349,1.405,0.242,2.797,0.009,4.198c-0.04,0.235-0.006,0.482-0.006,0.709c-1.259-0.208-2.504-0.405-3.744-0.617
	c-3.349-0.572-6.704-0.593-9.944,0.45c-2.395,0.77-4.533,2.071-6.036,4.217c-0.475,0.677-1.047,1.286-1.548,1.895
	c-3.581-0.818-7.082-1.617-10.583-2.416C46.588,95.956,46.619,95.925,46.651,95.894z"/>
<path fill-rule="evenodd" clip-rule="evenodd" fill="#bf7512" class="fill" d="M35.222,97.195c0.013-0.259,0.028-0.561,0.049-0.982
	c0.439,0.274,0.791,0.477,1.125,0.706c1.47,1.011,3.061,1.765,4.793,2.186c1.434,0.348,2.886,0.623,4.33,0.932
	c1.604,0.342,3.205,0.707,4.815,1.023c2.266,0.446,4.531,0.902,6.81,1.272c2.907,0.471,5.704,1.292,8.413,2.433
	c3.124,1.315,6.329,2.471,9.351,3.991c3.583,1.803,6.982,3.965,10.509,5.885c2.463,1.34,4.983,2.584,7.52,3.784
	c2.744,1.297,5.531,2.506,8.311,3.728c1.312,0.577,2.624,1.183,3.986,1.618c1.494,0.478,3.042,0.795,4.575,1.147
	c1.984,0.456,3.968,0.914,5.965,1.302c1.975,0.384,3.976,0.636,5.949,1.024c3.336,0.656,6.684,1.171,10.093,1.198
	c1.14,0.01,2.281,0.068,3.42,0.037c0.372-0.01,0.731-0.293,1.111-0.343c0.94-0.123,1.893-0.159,2.836-0.272
	c2.354-0.281,4.729-0.462,7.05-0.916c2.134-0.417,4.289-0.948,6.289-1.779c2.039-0.849,3.9-2.124,5.837-3.216
	c0.216-0.123,0.397-0.339,0.625-0.408c1.677-0.514,3.017-1.613,4.339-2.663c0.992-0.788,1.722-1.905,2.566-2.877
	c0.065-0.076,0.12-0.16,0.18-0.241c0.067,0.013,0.134,0.025,0.2,0.038c-0.101,0.627-0.056,1.332-0.335,1.865
	c-0.464,0.887-1.033,1.771-1.745,2.462c-1.115,1.08-2.324,2.092-3.613,2.956c-1.072,0.717-2.288,1.248-3.491,1.734
	c-1.464,0.591-2.962,1.119-4.481,1.546c-2.453,0.689-4.922,1.334-7.41,1.881c-1.723,0.379-3.483,0.595-5.236,0.816
	c-1.108,0.141-2.233,0.163-3.35,0.229c-0.539,0.032-1.08,0.072-1.618,0.062c-3.263-0.066-6.527-0.121-9.789-0.23
	c-1.698-0.057-3.409-0.113-5.087-0.359c-1.675-0.246-3.318-0.717-4.971-1.107c-1.882-0.446-3.765-0.89-5.637-1.373
	c-1.988-0.513-3.999-0.97-5.936-1.633c-2.293-0.786-4.576-1.648-6.759-2.697c-1.879-0.902-3.911-1.531-5.561-2.906
	c-0.512-0.428-1.224-0.61-1.831-0.931c-1.415-0.747-2.828-1.496-4.229-2.27c-1.649-0.911-3.272-1.868-4.928-2.766
	c-0.913-0.495-1.872-0.905-2.804-1.366c-0.464-0.229-0.91-0.494-1.369-0.733c-1.587-0.822-3.144-1.712-4.772-2.44
	c-1.753-0.784-3.562-1.442-5.367-2.101c-1.062-0.388-2.167-0.66-3.245-1.004c-0.528-0.169-1.046-0.375-1.562-0.578
	c-2.778-1.091-5.713-1.454-8.634-1.917c-2.167-0.344-4.319-0.811-6.455-1.317c-1.653-0.392-3.271-0.932-4.906-1.404
	c-2.112-0.609-3.97-1.73-5.814-2.88C35.301,97.317,35.282,97.274,35.222,97.195z"/>
<path fill-rule="evenodd" clip-rule="evenodd" fill="#bf7512" class="fill" d="M164.86,121.062c-0.336,1.259-1.07,2.22-1.97,3.057
	c-2.477,2.306-5.55,3.515-8.694,4.493c-2.393,0.745-4.872,1.216-7.322,1.768c-1.538,0.346-3.084,0.713-4.646,0.891
	c-1.42,0.163-2.869,0.089-4.305,0.108c-1.603,0.022-3.207,0.028-4.811,0.045c-2.056,0.023-4.115,0.139-6.166,0.052
	c-2.078-0.088-4.166-0.266-6.216-0.6c-3.606-0.588-7.225-1.177-10.769-2.048c-3.123-0.767-6.167-1.872-9.21-2.928
	c-1.25-0.434-2.411-1.124-3.604-1.713c-1.885-0.93-3.772-1.854-5.642-2.813c-2.391-1.227-4.77-2.475-7.144-3.732
	c-3.386-1.794-6.75-3.63-10.149-5.4c-2.083-1.084-4.194-2.122-6.333-3.093c-1.222-0.555-2.522-0.935-3.816-1.265
	c-0.457-0.087-0.924-0.138-1.369-0.266c-1.893-0.545-3.763-1.179-5.673-1.653c-1.868-0.465-3.79-0.717-5.662-1.168
	c-2.662-0.641-5.3-1.375-7.947-2.073c-1.119-0.295-2.254-0.546-3.349-0.914c-1.26-0.425-2.493-0.934-3.72-1.452
	c-0.43-0.182-0.803-0.498-1.218-0.763c0.051-0.359,0.094-0.661,0.144-1.011c0.359,0.171,0.677,0.313,0.986,0.471
	c1.255,0.641,2.498,1.308,3.765,1.92c0.497,0.24,1.042,0.391,1.578,0.534c1.339,0.358,2.684,0.696,4.029,1.029
	c1.59,0.392,3.172,0.824,4.777,1.136c1.342,0.259,2.72,0.334,4.071,0.554c2.09,0.34,4.167,0.742,6.156,1.509
	c1.274,0.492,2.562,0.95,3.854,1.395c0.857,0.295,1.746,0.501,2.596,0.816c1.01,0.376,1.98,0.857,2.99,1.236
	c2.261,0.849,4.421,1.879,6.434,3.229c0.597,0.4,1.3,0.639,1.945,0.969c1.441,0.738,2.882,1.48,4.315,2.234
	c1.432,0.752,2.855,1.519,4.279,2.283c0.818,0.439,1.646,0.863,2.443,1.336c1.258,0.746,2.472,1.571,3.75,2.279
	c0.661,0.366,1.422,0.549,2.135,0.823c0.288,0.111,0.568,0.244,0.849,0.374c1.691,0.777,3.355,1.625,5.083,2.312
	c1.539,0.613,3.125,1.138,4.732,1.544c2.185,0.553,4.414,0.927,6.612,1.436c1.048,0.242,2.054,0.664,3.1,0.92
	c1.341,0.328,2.692,0.661,4.059,0.827c1.951,0.238,3.918,0.348,5.882,0.475c1.369,0.089,2.742,0.124,4.114,0.168
	c1.263,0.042,2.528,0.121,3.79,0.081c1.946-0.062,3.894-0.163,5.833-0.335c1.771-0.158,3.538-0.404,5.298-0.665
	c1.129-0.167,2.269-0.343,3.359-0.665c2.808-0.831,5.597-1.729,8.382-2.633c1.559-0.505,3.125-1.016,4.466-2.005
	c0.985-0.727,1.95-1.483,2.916-2.237C164.199,121.66,164.524,121.354,164.86,121.062z"/>
<path fill-rule="evenodd" clip-rule="evenodd" fill="#bf7512" class="fill" d="M62.793,111.287c0,0.757,0,1.497,0,2.375
	c-0.841-0.075-1.686-0.094-2.51-0.236c-1.897-0.328-3.789-0.697-5.677-1.082c-1.832-0.374-3.662-0.763-5.481-1.191
	c-1.535-0.361-3.079-0.713-4.575-1.204c-1.811-0.595-3.578-1.323-5.359-2.008c-1.614-0.619-3.186-1.32-4.585-2.475
	c0.045-0.45,0.094-0.935,0.143-1.428c0.813,0.423,1.575,0.886,2.39,1.228c1.521,0.639,3.062,1.237,4.616,1.793
	c0.933,0.335,1.893,0.612,2.862,0.821c1.25,0.269,2.52,0.441,3.781,0.66c1.351,0.234,2.702,0.462,4.049,0.716
	c1.816,0.342,3.628,0.705,5.442,1.062C59.491,110.631,61.093,110.95,62.793,111.287z"/>
<path fill-rule="evenodd" clip-rule="evenodd" fill="#bf7512" class="fill" d="M34.794,102.786c0.057-0.641,0.11-1.234,0.168-1.891
	c1.073,0.482,2.023,0.994,3.03,1.342c1.646,0.569,3.327,1.041,4.999,1.534c1.354,0.4,2.705,0.833,4.082,1.144
	c2.594,0.584,5.217,1.041,7.807,1.643c2.305,0.536,4.582,1.191,6.868,1.807c0.396,0.108,0.774,0.285,1.197,0.442
	c0,0.412,0,0.816,0,1.337c-1.01-0.114-1.979-0.166-2.927-0.343c-2.448-0.457-4.883-0.986-7.328-1.453
	c-2.144-0.409-4.299-0.755-6.443-1.161c-3.702-0.699-7.237-1.876-10.52-3.753C35.423,103.261,35.149,103.035,34.794,102.786z"/>
<path fill-rule="evenodd" clip-rule="evenodd" fill="#bf7512" class="fill" d="M38.672,91.209c-0.253,0.167-0.426,0.281-0.724,0.477
	c-0.034-0.334-0.134-0.616-0.074-0.857c0.475-1.912,0.932-3.829,1.489-5.717c0.617-2.095,1.451-4.13,1.978-6.244
	c0.677-2.723,1.611-5.335,2.763-7.883c0.365-0.807,0.689-1.632,1.093-2.595c5.455,9.339,13.866,12.864,24.119,12.869
	c0.012,0.184,0.035,0.287,0.021,0.385c-0.014,0.1-0.064,0.193-0.123,0.358c-10.126,0.504-18.287-3.022-23.907-11.62
	c-0.171,0-0.239-0.018-0.293,0.003c-0.114,0.045-0.219,0.11-0.328,0.167c-0.67,1.83-1.414,3.621-1.979,5.466
	c-0.588,1.923-0.98,3.904-1.502,5.849c-0.342,1.279-0.777,2.533-1.139,3.808c-0.155,0.55-0.201,1.131-0.345,1.685
	C39.386,88.651,39.021,89.935,38.672,91.209z"/>
<path fill-rule="evenodd" clip-rule="evenodd" fill="#bf7512" class="fill" d="M79.914,74.97c0.217-1.297,0.411-2.551,0.64-3.798
	c0.115-0.634,0.242-1.273,0.452-1.88c0.18-0.519,0.385-1.09,0.753-1.47c1.185-1.221,2.448-2.366,3.687-3.534
	c0.117-0.11,0.278-0.175,0.48-0.299c1.148,0.806,2.299,1.614,3.491,2.45C85.895,68.927,83.073,72.042,79.914,74.97z"/>
<path fill-rule="evenodd" clip-rule="evenodd" fill="#bf7512" class="fill" d="M62.701,114.819c-0.134,0.697-0.25,1.301-0.375,1.942
	c-9.741-1.541-18.807-4.951-27.784-8.826c-0.022-0.413-0.042-0.776-0.068-1.264c0.252,0.146,0.399,0.246,0.558,0.321
	c1.269,0.609,2.533,1.229,3.812,1.814c0.944,0.432,1.892,0.872,2.872,1.21c1.938,0.668,3.877,1.357,5.858,1.87
	c1.825,0.471,3.71,0.701,5.562,1.074c1.234,0.249,2.451,0.58,3.683,0.839c0.786,0.165,1.586,0.257,2.378,0.395
	C60.329,114.39,61.459,114.597,62.701,114.819z"/>
<path fill-rule="evenodd" clip-rule="evenodd" fill="#bf7512" class="fill" d="M104.267,87.798c0.413-0.649,0.679-1.32,1.156-1.767
	c1.334-1.25,2.746-2.419,4.145-3.599c1.129-0.951,2.306-1.846,3.422-2.812c1.071-0.927,2.286-1.567,3.601-2.063
	c1.135-0.429,2.255-0.859,3.505-0.754c0.56,0.047,0.989,0.304,1.308,0.966c-0.338,0.16-0.663,0.379-1.019,0.47
	c-2.108,0.541-4.106,1.38-5.997,2.423c-1.113,0.613-2.103,1.468-3.088,2.287c-1.106,0.918-2.14,1.921-3.213,2.88
	c-0.682,0.61-1.366,1.217-2.069,1.803C105.565,88.008,105.056,88.183,104.267,87.798z"/>
<path fill-rule="evenodd" clip-rule="evenodd" fill="#bf7512" class="fill" d="M95.531,79.299c-0.267-0.106-0.429-0.172-0.581-0.233
	c-0.218-1.126,0.457-1.922,0.899-2.765c0.295-0.562,0.752-1.041,1.159-1.539c2.039-2.495,4.523-4.401,7.497-5.66
	c1.49-0.632,2.96-1.319,4.469-1.9c0.943-0.364,1.917-0.242,2.812,0.254c0.138,0.077,0.209,0.271,0.429,0.577
	C105.005,69.458,99.462,73.208,95.531,79.299z"/>
<path fill-rule="evenodd" clip-rule="evenodd" fill="#bf7512" class="fill" d="M105.303,63.537c0.063,0.217,0.114,0.392,0.179,0.609
	c-0.524,0.309-1.011,0.666-1.551,0.901c-1.756,0.766-3.263,1.894-4.736,3.093c-1.626,1.327-3.285,2.613-4.949,3.891
	c-0.888,0.682-1.802,1.332-2.736,1.947c-0.285,0.188-0.678,0.214-1.084,0.333c-0.089-0.312-0.143-0.5-0.229-0.803
	c0.563-0.477,1.15-0.929,1.686-1.437c0.968-0.916,1.864-1.912,2.866-2.787c1.094-0.957,2.263-1.829,3.419-2.711
	c0.776-0.593,1.573-1.161,2.385-1.704c1.21-0.81,2.536-1.316,4.007-1.378C104.801,63.479,105.045,63.52,105.303,63.537z"/>
<path fill-rule="evenodd" clip-rule="evenodd" fill="#bf7512" class="fill" d="M116.487,71.837c0.18,0.325,0.39,0.707,0.598,1.085
	c-0.476,0.643-1.101,0.777-1.716,0.969c-1.958,0.612-3.946,1.157-5.845,1.923c-1.504,0.607-2.56,1.879-3.665,3.054
	c-1.364,1.452-2.821,2.817-4.255,4.203c-0.128,0.125-0.373,0.129-0.563,0.189c-0.053-0.057-0.106-0.114-0.16-0.17
	c0.318-0.592,0.592-1.215,0.965-1.771c1.215-1.805,2.969-3.056,4.565-4.486c2.555-2.29,5.732-3.325,8.732-4.734
	c0.278-0.13,0.594-0.184,0.896-0.26C116.137,71.816,116.245,71.837,116.487,71.837z"/>
<path fill-rule="evenodd" clip-rule="evenodd" fill="#bf7512" class="fill" d="M95.143,66.707c-1.576-2.038-3.626-3.507-5.957-4.637
	c1.338-0.889,5.932,2.092,7.376,3.578C96.113,65.982,95.668,66.313,95.143,66.707z"/>
<path fill-rule="evenodd" clip-rule="evenodd" fill="#bf7512" class="fill" d="M112.01,71.713c-0.613-0.446-1.189-0.866-1.881-1.37
	c0.979-0.387,1.802-0.712,2.713-1.073c0.479,0.437,0.977,0.89,1.604,1.461C113.48,71.119,112.772,71.405,112.01,71.713z"/>
<path fill-rule="evenodd" clip-rule="evenodd" fill="#bf7512" class="fill" d="M103.225,62.163c-0.935,0.374-1.834,0.733-2.947,1.178
	c-0.358-0.224-0.875-0.546-1.436-0.897C100.295,61.184,101.719,61.127,103.225,62.163z"/>
<path fill-rule="evenodd" clip-rule="evenodd" fill="#bf7512" class="fill" d="M106.97,65.108c0.47,0.285,0.922,0.559,1.462,0.886
	c-0.838,0.294-1.567,0.55-2.317,0.813c-0.296-0.145-0.608-0.297-1.063-0.52C105.735,65.869,106.33,65.502,106.97,65.108z"/>
<path fill-rule="evenodd" clip-rule="evenodd" fill="#bf7512" class="fill" d="M118.356,75.221c-1.761,0.612-2.305,0.7-2.769,0.411
	c0.714-0.324,1.377-0.624,2.146-0.973C117.889,74.799,118.082,74.973,118.356,75.221z"/>
<path fill-rule="evenodd" clip-rule="evenodd" fill="#bf7512" class="fill" d="M121.592,79.611c0.313-0.222,0.627-0.443,1.062-0.751
	c0.282,0.332,0.565,0.666,0.849,0.999c-0.009,0.055-0.018,0.109-0.028,0.164c-0.624-0.08-1.249-0.16-1.873-0.24
	C121.598,79.727,121.595,79.669,121.592,79.611z"/>
</svg>
