<svg version="1.1" id="svg" xmlns="http://www.w3.org/2000/svg" xmlns:xlink="http://www.w3.org/1999/xlink" x="0px" y="0px"
	 width="200.001px" height="200px" viewBox="0 0 200.001 200" enable-background="new 0 0 200.001 200" xml:space="preserve">
<path class="stroke" fill="#472664"  d="M145.714,91.593c0.032-5.666-0.014-11.331-0.037-16.996c-0.018-4.152-0.021-8.305-0.091-12.457
	c-0.024-1.399-0.167-2.818-1.349-4.098c-4.41-1.344-9.234-0.175-13.898-1.143c-0.237-1.298-0.371-2.521-0.704-3.688
	c-0.267-0.936-0.558-2.036-1.22-2.647c-1.186-1.09-2.556-2.133-4.038-2.712c-2.271-0.886-4.67-1.534-7.072-1.98
	c-5.818-1.079-11.703-1.57-17.627-1.554c-1.925,0.006-3.869-0.218-5.773-0.027c-4.376,0.44-8.703,1.399-12.718,3.126
	c-4.02,1.729-7.456,4.316-7.359,9.448c0.002,0.151-0.128,0.305-0.224,0.518c-0.35,0.007-0.689,0.015-1.03,0.02
	c-2.456,0.03-4.916-0.005-7.368,0.109c-2.03,0.096-3.604,0.938-4.062,3.148c-0.227,1.086-0.563,2.157-0.701,3.254
	c-0.33,2.605-0.586,5.221-0.844,7.835c-0.092,0.93-0.037,1.877-0.176,2.798c-0.721,4.807-0.996,9.639-1.046,14.497
	c-0.046,4.2-0.27,8.399-0.418,12.72c-2.258,0.71-4.099,1.957-5.736,3.601c-1.155,1.159-1.945,2.406-2.415,3.964
	c-0.803,2.653-0.642,5.298-0.315,7.989c0.54,4.465,0.95,8.943,1.469,13.41c0.194,1.68,0.417,3.372,0.841,5.006
	c0.559,2.158,1.756,3.811,4.21,4.131c0.378,0.051,0.735,0.27,1.13,0.421c0.015,0.49,0.01,0.894,0.041,1.295
	c0.163,2.095,0.263,4.201,0.543,6.279c0.092,0.685,0.522,1.46,1.039,1.925c1.479,1.336,3.242,1.87,5.295,1.914
	c4.319,0.097,8.633,0.437,12.948,0.677c2.861,0.158,5.718,0.373,8.579,0.458c3.8,0.111,7.605,0.019,11.4,0.198
	c5.149,0.244,10.287,0.063,15.435-0.004c6.854-0.091,13.662-0.435,20.415-1.688c1.601-0.298,3.25-0.321,4.873-0.499
	c1.616-0.178,3.23-0.391,4.984-0.604c0.089-0.958,0.164-1.82,0.247-2.679c0.25-2.611-0.134-5.234,0.354-7.855
	c0.481-2.578,0.758-5.209,0.918-7.83c0.156-2.561-0.033-5.142,0.076-7.706c0.341-8.057,0.761-16.107,1.131-24.161
	C145.551,97.203,145.696,94.397,145.714,91.593z"/>
<path fill-rule="evenodd" clip-rule="evenodd" fill="#f8bfe9" class="fill" d="M111.495,96.279c2.112,1.23,3.754,2.997,6.054,3.689
	c2.104-0.771,3.099-2.503,3.691-4.42c0.566-1.834,0.794-3.769,1.247-5.641c0.644-2.665,1.234-5.354,2.074-7.959
	c0.967-3,2.174-5.922,3.288-8.874c0.141-0.373,0.349-0.719,0.551-1.127c4.884,0.38,9.354,2.097,14.02,3.583
	c0.053,1.028,0.103,1.99,0.152,2.966c-0.767,0.183-1.351,0.322-1.935,0.461c-0.017,0.133-0.031,0.266-0.047,0.399
	c0.553,0.177,1.105,0.354,1.87,0.599c0.055,0.816,0.115,1.714,0.177,2.644c-0.696,0.204-1.271,0.372-1.847,0.54
	c-0.012,0.127-0.023,0.253-0.036,0.381c0.605,0.169,1.21,0.337,1.943,0.542c-0.03,0.878-0.061,1.783-0.095,2.754
	c-0.587,0.168-1.16,0.332-1.758,0.503c0.229,1.024,1.161,0.533,1.743,1.147c-0.051,0.443-0.123,1.047-0.188,1.611
	c-0.923,0.126-1.689,0.229-2.651,0.361c0.724,1.184,1.805,0.548,2.65,1.139c-0.033,0.951-0.07,2.022-0.107,3.111
	c-0.658,0.181-1.305,0.357-2.019,0.554c0.389,1.009,1.321,0.566,1.948,1.075c-0.019,0.516-0.04,1.126-0.062,1.783
	c-0.704,0.251-1.383,0.495-2.077,0.744c0.411,1.263,1.423,0.331,2.124,0.889c-0.062,0.694-0.132,1.483-0.197,2.229
	c-0.923,0.186-1.713,0.344-2.503,0.501c0.004,0.164,0.009,0.327,0.012,0.492c0.705,0.131,1.409,0.262,2.251,0.417
	c-0.027,0.82-0.057,1.659-0.083,2.477c-0.806,0.253-1.552,0.487-2.398,0.752c0.627,1.118,1.489,0.353,2.271,0.654
	c-0.032,0.896-0.063,1.843-0.1,2.865c-0.695,0.218-1.426,0.446-2.155,0.676c0.005,0.146,0.009,0.293,0.016,0.439
	c0.619,0.158,1.239,0.316,2.06,0.526c-0.068,0.694-0.142,1.418-0.215,2.174c-0.809,0.139-1.515,0.258-2.375,0.406
	c0.532,1.134,1.492,0.548,2.235,1.054c-0.024,0.692-0.053,1.519-0.079,2.332c-0.73,0.219-1.359,0.407-1.987,0.596
	c-0.001,0.135-0.003,0.27-0.003,0.403c0.572,0.147,1.146,0.296,1.877,0.483c0.021,0.573,0.043,1.193,0.068,1.883
	c-0.868,0.197-1.665,0.379-2.586,0.588c0.607,1.104,1.554,0.56,2.373,1.082c0.011,0.446,0.025,1.043,0.033,1.439
	c-0.773,0.889-1.952,0.032-2.632,1.267c0.909,0.13,1.662,0.237,2.438,0.348c0.204,0.635-0.157,0.865-0.673,0.913
	c-2.15,0.202-4.303,0.482-6.459,0.542c-2.917,0.081-5.84-0.04-8.757-0.021c-0.913,0.006-1.826,0.184-2.755,0.283
	c-0.439,3.479-0.973,6.761-1.24,10.066c-0.263,3.245-0.257,6.514-0.372,9.859c-0.641,0.072-1.211,0.135-1.741,0.195
	c-0.43-0.412-0.814-0.782-1.337-1.284c-0.271,0.607-0.446,1.004-0.648,1.461c-0.553,0.102-1.117,0.207-1.788,0.33
	c-0.234-0.646-0.445-1.226-0.677-1.858c-1.551,0.018-0.771,1.191-0.984,2.05c-0.399,0.061-0.868,0.134-1.415,0.217
	c-0.061-0.737-0.106-1.292-0.155-1.916c-0.347-0.011-0.611-0.021-0.982-0.034c-0.086,0.677-0.167,1.293-0.254,1.984
	c-0.39-0.012-0.761-0.025-1.247-0.042c0.203-0.92,0.335-1.726,0.559-2.505c0.945-3.3,0.608-6.613,0.11-9.917
	c-0.305-2.021-0.801-4.011-1.12-6.027c-0.181-1.151-0.271-2.332-0.242-3.496c0.113-4.504,0.069-9.027,0.5-13.506
	c0.495-5.169,1.423-10.299,2.183-15.442C111.095,97.227,111.313,96.808,111.495,96.279z"/>
<path fill-rule="evenodd" clip-rule="evenodd" fill="#f8bfe9" class="fill" d="M62.031,142.881c0.24-1.061,0.856-1.559,1.714-1.729
	c1.027-0.204,2.069-0.465,3.104-0.463c3.469,0.007,6.874-0.435,10.252-1.176c0.569-0.126,1.155-0.183,1.722-0.31
	c2.264-0.505,3.267-1.466,3.515-3.755c0.257-2.376,0.445-4.779,0.414-7.167c-0.06-4.205-0.228-8.412-0.514-12.608
	c-0.131-1.905-0.535-3.816-1.028-5.669c-0.473-1.772-1.906-2.711-3.659-2.796c-3.792-0.182-7.592-0.221-11.388-0.262
	c-1.478-0.017-2.886-0.214-4.444-0.933c0.787-0.555,1.433-1.01,2.078-1.467c-0.045-0.117-0.089-0.234-0.136-0.354
	c-0.598,0.057-1.195,0.114-1.933,0.182c-0.128-0.375-0.269-0.783-0.452-1.324c0.764-0.503,1.462-0.962,2.547-1.677
	c-1.037-0.093-1.673-0.149-2.434-0.217c0.016-0.481,0.032-0.968,0.049-1.462c0.658-0.425,1.279-0.826,2.021-1.307
	c-0.73-0.637-1.449-0.122-2.25-0.343c-0.045-0.538-0.096-1.145-0.149-1.789c0.79-0.528,1.508-1.009,2.236-1.497
	c-0.542-0.968-1.341-0.014-2.016-0.423c0.024-0.74,0.052-1.539,0.081-2.385c0.474-0.322,0.937-0.636,1.646-1.118
	c-0.766-0.224-1.276-0.374-1.871-0.547c-0.191-1.485,1.384-1.283,2.147-2.237c-0.698-0.104-1.264-0.188-2.051-0.306
	c-0.007-0.629-0.014-1.298-0.023-2.063c0.593-0.451,1.174-0.892,1.891-1.438c-0.588-0.262-1.083-0.483-1.662-0.741
	c-0.021-0.409-0.043-0.86-0.062-1.26c0.791-0.596,1.5-1.131,2.21-1.667c-0.057-0.114-0.112-0.228-0.169-0.343
	c-0.585,0.112-1.17,0.225-1.889,0.363c0.022-0.667,0.044-1.268,0.065-1.907c0.739-0.417,1.431-0.807,2.397-1.352
	c-0.576-0.164-0.866-0.274-1.164-0.324c-0.27-0.046-0.551-0.027-0.952-0.041c0.052-0.494,0.095-0.877,0.163-1.508
	c3.713-0.852,7.437-1.706,11.299-2.593c0.32,1.859,0.563,3.519,0.896,5.162c0.913,4.525,1.742,9.078,3.617,13.342
	c0.914,2.083,1.805,4.18,2.809,6.221c0.949,1.938,1.908,2.036,3.525,0.611c1.913-1.684,4.267-2.506,6.746-3.384
	c0.01,2.84,0.069,5.506,0.019,8.172c-0.06,3.271-0.271,6.541-0.308,9.813c-0.042,4.033,0.057,8.07,0.032,12.104
	c-0.009,1.515-0.231,3.025-0.287,4.542c-0.102,2.8-0.126,5.604-0.241,8.403c-0.049,1.164-0.205,2.326-0.381,3.479
	c-0.294,1.919-0.457,3.834-0.022,5.755c0.101,0.438,0.315,0.957-0.579,1.074c-0.199-0.533-0.41-1.102-0.621-1.671
	c-1.349-0.067-0.543,1.068-1.014,1.57c-0.438-0.016-0.947-0.033-1.549-0.054c-0.121-0.606-0.239-1.2-0.367-1.832
	c-1.377,0.064-0.723,1.327-1.396,1.97c-0.329,0.048-0.829,0.119-1.442,0.206c-0.076-0.829-0.143-1.545-0.216-2.338
	c-1.532,0.229-0.746,1.565-1.37,2.386c-0.466,0.033-1.075,0.077-1.78,0.126c-0.026-0.746-0.048-1.336-0.069-1.925
	c-0.118-0.048-0.237-0.094-0.356-0.141c-0.377,0.58-0.755,1.159-1.229,1.884c-0.279-0.029-0.717-0.073-1.231-0.125
	c-0.012-0.646-0.022-1.194-0.033-1.736c-1.298-0.204-0.952,1.008-1.478,1.515c-0.341-0.012-0.716-0.024-1.218-0.042
	c0.144-0.784,0.266-1.444,0.422-2.293c-0.482,0.079-0.828,0.134-1.17,0.188c-0.146,0.727-0.269,1.346-0.417,2.079
	c-0.61-0.021-1.152-0.039-1.841-0.062c0.147-0.808,0.278-1.521,0.431-2.361c-1.476,0.101-1.358,1.276-1.723,2.196
	c-0.335,0.028-0.716,0.061-1.238,0.104c-0.016-0.705-0.03-1.317-0.047-2.011c-1.391-0.213-1.008,1.169-1.596,1.692
	c-0.242-0.008-0.528-0.019-0.914-0.032c-0.11-0.444-0.223-0.892-0.434-1.736c-0.621,0.688-1.02,1.13-1.437,1.591
	c-0.829-0.029-1.673-0.058-2.517-0.087c-0.043-0.108-0.085-0.216-0.129-0.323c0.589-0.361,1.179-0.723,1.998-1.225
	c-0.658-0.218-1.103-0.366-1.564-0.519c-0.139-1.301,1.448-0.805,1.716-1.792C62.938,143.221,62.533,143.069,62.031,142.881z"/>
<path fill-rule="evenodd" clip-rule="evenodd" fill="#f8bfe9" class="fill" d="M102.101,84.137c1.805-1.792,3.334-3.312,4.865-4.828
	c2.199-2.175,4.451-4.297,6.589-6.53c3.276-3.423,6.298-7.078,8.864-11.059c1.315-2.041,2.5-4.256,2.374-6.851
	c-0.106-2.155-1.057-3.631-3.062-4.701c-2.864-1.529-5.929-2.16-9.053-2.567c-3.24-0.424-6.511-0.8-9.774-0.844
	c-3.26-0.044-6.527,0.344-9.789,0.548c-0.35,0.022-0.697,0.123-1.044,0.109c-4.256-0.161-7.815,1.692-11.252,3.887
	c-0.54,0.344-1.049,0.759-1.493,1.217c-1.51,1.562-2.249,3.119-1.311,5.498c1.257,3.185,3.31,5.745,5.305,8.402
	c4.274,5.695,9.838,10.162,14.621,15.373c0.509,0.554,1.176,0.962,1.738,1.471c0.279,0.253,0.489,0.581,0.777,0.934
	c-5.605,4.806-11.36,9.153-17.635,12.922c-1.196-1.267-1.684-2.853-2.186-4.367c-1.086-3.27-2.241-6.545-2.936-9.908
	c-0.871-4.224-1.464-8.522-1.887-12.817c-0.41-4.18-0.43-8.396-0.663-12.593c-0.132-2.374,0.579-4.317,2.403-5.928
	c1.734-1.53,3.499-2.865,5.833-3.377c2.679-0.588,5.321-1.345,7.977-2.037c1.892-0.493,3.804-0.504,5.744-0.398
	c4.377,0.24,8.767,0.282,13.134,0.614c4.314,0.329,8.611,0.93,12.699,2.461c1.141,0.427,2.239,1.012,3.271,1.662
	c1.401,0.883,2.136,2.199,2.433,3.877c0.539,3.068,0.321,6.05-0.562,9.012c-1.57,5.264-3.141,10.528-4.702,15.795
	c-1.16,3.92-2.336,7.836-3.438,11.772c-0.312,1.117-0.389,2.301-0.572,3.454c-0.218,1.363-0.803,2.542-1.812,3.672
	c-1.984-1.32-3.473-3.086-5.09-4.736c-1.634-1.666-3.49-3.11-5.172-4.733C105.638,86.945,103.568,85.8,102.101,84.137z"/>
<path fill-rule="evenodd" clip-rule="evenodd" fill="#f8bfe9" class="fill" d="M93.477,94.01c3.53-3.088,7.462-3.053,11.604-2.605
	c0.912,0.631,1.914,1.326,3.045,2.11c0.027,0.778,0.104,1.584,0.071,2.385c-0.335,8.411-0.624,16.824-1.054,25.231
	c-0.346,6.73,0.138,13.438,0.262,20.155c0.041,2.212-0.134,4.429-0.207,6.546c-0.535,0.382-0.911,0.65-1.301,0.929
	c-0.565-0.02-1.136-0.039-1.673-0.058c-0.22-0.588-0.409-1.097-0.597-1.606c-0.126-0.021-0.25-0.041-0.376-0.062
	c-0.248,0.521-0.498,1.041-0.794,1.656c-0.335-0.041-0.725-0.088-1.177-0.145c-0.172-0.564-0.336-1.098-0.492-1.614
	c-1.203-0.129-0.736,1.039-1.38,1.557c-0.405,0.021-0.967,0.048-1.652,0.078c-0.047-0.724-0.086-1.332-0.129-2.006
	c-1.432-0.156-0.896,1.231-1.481,1.806c-0.452-0.016-0.963-0.034-1.476-0.052c-0.173-0.589-0.327-1.118-0.575-1.959
	c-0.55,0.639-0.922,1.07-1.457,1.69c-0.17-0.679-0.34-1.149-0.404-1.633c-0.943-7.219-1.056-14.418-0.02-21.662
	c0.667-4.678,0.819-9.421,0.608-14.167c-0.082-1.855,0.196-3.728,0.27-5.594C93.235,101.314,93.351,97.637,93.477,94.01z
	 M101.534,124.856c-3.707-1.074-5.883,0.423-7.111,2.405c-0.883,1.427-0.668,2.897,0.532,3.969c1.549,1.384,3.301,1.178,5.112,0.62
	c1.566-0.483,2.439-1.561,2.764-3.094C103.147,127.254,102.482,126.031,101.534,124.856z M101.995,102.154
	c-1.352,0.092-2.298,0.057-3.201,0.236c-2.707,0.534-4.057,3.34-2.883,5.614c0.98,1.902,4.189,2.124,5.916,0.979
	c1.93-1.277,2.346-3.769,0.929-5.669C102.476,102.939,102.238,102.529,101.995,102.154z"/>
<path fill-rule="evenodd" clip-rule="evenodd" fill="#f8bfe9" class="fill" d="M94.664,75.108c-1.155-1.058-2.68-2.33-4.059-3.744
	c-1.834-1.881-3.587-3.844-5.304-5.831c-0.602-0.696-1.066-1.537-1.469-2.372c-0.654-1.359-0.318-2.753,0.801-3.815
	c1.194-1.13,2.641-1.839,4.256-1.831c1.967,0.009,3.933,0.296,6.061,0.477c0.121,1.713,0.229,3.208,0.349,4.887
	c4.155,1.264,8.347,0.403,12.681,0.232c0.061-1.728,0.113-3.288,0.167-4.858c1.07-0.91,2.364-1.078,3.613-1.253
	c1.445-0.202,2.911-0.233,4.366-0.355c1.43-0.119,2.701,0.115,3.449,1.517c0.813,1.521,0.892,3.007-0.256,4.421
	c-1.436,1.769-2.804,3.599-4.319,5.296c-2.024,2.264-4.167,4.422-6.249,6.636c-0.778,0.827-1.672,1.078-2.83,1.011
	C102.378,75.321,98.823,75.251,94.664,75.108z"/>
<path fill-rule="evenodd" clip-rule="evenodd" fill="#f8bfe9" class="fill" d="M78.684,109.312c-0.035,1.002-0.002,1.924-0.109,2.829
	c-0.362,3.041-1.157,5.976-2.657,8.649c-0.994,1.772-2.807,2.442-4.73,2.591c-2.738,0.209-5.5,0.138-8.227,0.424
	c-2.358,0.249-4.668,0.146-6.979-0.231c-0.9-0.147-1.771-0.477-2.826-0.772c-0.223-1.843-0.466-3.563-0.629-5.292
	c-0.315-3.36-0.057-6.652,1.256-9.812c0.744-1.791,2.298-3.002,4.008-3.064c-0.031,0.878-0.031,0.878-1.541,1.978
	c0.48,0.366,0.861,0.859,1.34,0.988c1.397,0.377,2.824,0.786,4.256,0.866c5.254,0.292,10.513,0.456,15.769,0.672
	C77.844,109.146,78.073,109.211,78.684,109.312z M70.507,115.342c-3.623-0.662-5.657,0.582-5.764,3.424
	c0.664,1.921,2.109,2.738,4.018,2.787c1.301,0.032,2.633-0.892,2.992-2.038C72.284,117.825,71.644,116.465,70.507,115.342z"/>
<path fill-rule="evenodd" clip-rule="evenodd" fill="#f8bfe9" class="fill" d="M75.285,123.622c0.448,0.48,1.026,0.906,1.352,1.479
	c1.958,3.435,2.597,7.197,2.579,11.1c-0.002,0.278-0.131,0.554-0.255,1.048c-1.131,0.092-2.278,0.299-3.415,0.255
	c-4.256-0.165-8.507-0.431-12.762-0.619c-1.746-0.077-3.498-0.093-5.245-0.059c-1.717,0.034-2.421-0.363-2.696-2.038
	c-0.505-3.05-0.891-6.119-1.31-9.181c-0.045-0.325,0.015-0.666,0.037-1.291c3.662,1.27,7.272,0.826,10.861,0.727
	C67.974,124.944,71.558,125.131,75.285,123.622z"/>
<path fill-rule="evenodd" clip-rule="evenodd" fill="#f8bfe9" class="fill" d="M122.048,137.154c0.335-2.944,0.637-5.588,0.969-8.484
	c2.842-0.005,5.681,0.056,8.513-0.033c2.843-0.09,5.68-0.329,8.649-0.51c-0.027,0.763-0.047,1.312-0.067,1.927
	c-0.647,0.24-1.32,0.49-2.001,0.746c0.4,1.062,1.172,0.53,1.96,0.723c-0.069,0.58-0.138,1.166-0.192,1.626
	c-0.853,0.275-1.529,0.493-2.205,0.714c0.012,0.127,0.023,0.256,0.035,0.383c0.579,0.115,1.159,0.231,1.867,0.374
	c-0.021,0.614-0.042,1.224-0.062,1.83C133.855,137.879,128.128,136.608,122.048,137.154z"/>
<path fill-rule="evenodd" clip-rule="evenodd" fill="#f8bfe9" class="fill" d="M124.553,145.635c-0.319,0.006-0.539,0.008-0.831,0.014
	c-0.082,0.292-0.17,0.558-0.228,0.83c-0.048,0.223-0.058,0.452-0.101,0.816c-0.51,0.04-0.987,0.081-1.668,0.137
	c-0.035-3.071-0.067-5.955-0.104-9.092c2.171-0.047,4.157-0.308,6.086-0.078c2.868,0.342,5.693,0.264,8.544-0.023
	c0.958-0.096,1.932-0.038,2.958-0.052c0.009,0.528,0.039,0.814,0.011,1.093c-0.037,0.399-0.119,0.795-0.178,1.162
	c-0.705,0.198-1.329,0.373-1.953,0.549c-0.007,0.14-0.015,0.282-0.021,0.422c0.555,0.185,1.11,0.368,1.76,0.585
	c-0.051,0.419-0.101,0.861-0.152,1.31c-0.832,0.263-1.727-0.782-2.441,0.188c0.433,0.965,1.386,0.43,2.101,0.822
	c-0.065,0.545-0.132,1.105-0.212,1.765c-0.442,0.037-0.816,0.066-1.312,0.107c-0.186,0.399-0.393,0.854-0.646,1.403
	c-0.45,0.055-0.958,0.115-1.438,0.171c-0.331-0.504-0.604-0.926-0.825-1.262c-1.215-0.215-0.691,0.93-1.237,1.318
	c-0.285-0.03-0.622-0.068-0.979-0.107c-0.243-0.515-0.474-1.001-0.841-1.776c-0.475,0.647-0.79,1.077-1.167,1.591
	c-0.37-0.032-0.823-0.07-1.329-0.113c-0.161-0.519-0.311-0.995-0.448-1.434c-1.214-0.269-0.819,0.996-1.563,1.356
	c-0.344,0.005-0.856,0.012-1.447,0.019C124.771,146.759,124.667,146.224,124.553,145.635z"/>
<path fill-rule="evenodd" clip-rule="evenodd" fill="#f8bfe9" class="fill" d="M141.798,64.054c-0.594,0.423-1.563,0.194-1.572,1.376
	c0.548,0.054,1.085,0.107,1.759,0.174c0.019,0.665,0.037,1.348,0.057,2.079c-0.53,0.212-0.989,0.396-1.86,0.744
	c0.798,0.386,1.262,0.61,1.834,0.888c0.053,0.217,0.132,0.542,0.24,0.981c-0.601,0.163-1.122,0.305-1.703,0.463
	c0.085,1.018,0.732,1.268,1.691,1.311c0.031,0.621,0.062,1.222,0.098,1.955c-4.584-1.176-8.961-2.298-13.441-3.447
	c0.812-2.862,1.634-5.764,2.49-8.784c2.906-0.268,5.814-0.377,8.713-0.011C141.404,61.947,141.677,62.416,141.798,64.054z"/>
<path fill-rule="evenodd" clip-rule="evenodd" fill="#f8bfe9" class="fill" d="M84.717,54.849c0.069-0.659,0.139-1.316,0.219-2.095
	c-1.986,0.086-2.796,1.765-4.333,2.303c0.179-0.329,0.301-0.713,0.549-0.98c2.288-2.458,4.92-4.352,8.394-4.622
	c5.067-0.395,10.136-0.881,15.227-0.199c3.646,0.489,7.325,0.75,10.948,1.359c1.633,0.274,3.168,1.136,4.734,1.764
	c0.232,0.093,0.393,0.371,0.737,0.712c-1.438,0.334-2.731-0.891-4.044,0.114c0.34,0.67,0.641,1.261,1.044,2.055
	c-1.192-0.041-2.195-0.076-3.294-0.114c0.205-0.609,0.399-1.188,0.613-1.821c-1.855,0.357-3.592,0.913-5.346,0.976
	c-2.264,0.081-4.586,0.005-6.801-0.428c-3.805-0.744-7.558-0.452-11.322,0.037c-1.135,0.147-2.223,0.666-3.337,1.016
	c-0.101,0.478-0.179,0.85-0.268,1.265c-0.763,0.198-1.487,0.386-2.147,0.557C85.757,56.105,85.291,55.541,84.717,54.849z
	 M113.181,50.744c-0.65-0.022-1.104-0.035-1.558-0.054c-2.15-0.088-4.304-0.14-6.449-0.276c-3.026-0.192-6.044-0.548-9.071-0.646
	c-2.63-0.083-5.262,0.142-7.609,1.555c-0.622,0.374-1.368,0.702-1.293,1.699c1.282,0.729,2.564,0.33,3.744-0.019
	c4.811-1.422,9.674-1.167,14.574-0.739c1.965,0.171,3.955,0.13,5.931,0.067C112.22,52.307,113.073,52.066,113.181,50.744z"/>
<path fill-rule="evenodd" clip-rule="evenodd" fill="#f8bfe9" class="fill" d="M72.986,61.703c0.126,3.427,0.243,6.671,0.365,10.091
	c-3.644,0.815-7.152,1.6-10.659,2.384c-0.304-1.171-0.304-1.171,2.18-2.55c-0.722-0.196-1.293-0.351-1.988-0.54
	c-0.006-0.434-0.012-0.866-0.02-1.228c0.773-0.486,1.43-0.899,2.087-1.312c-0.036-0.095-0.073-0.19-0.109-0.286
	c-0.475-0.016-0.944-0.033-1.603-0.056c0.105-0.731,0.202-1.4,0.298-2.064c0.552-0.402,1.056-0.769,1.746-1.271
	c-0.552-0.241-0.929-0.405-1.435-0.625c0.131-0.51,0.268-1.05,0.402-1.579C67.023,61.331,69.866,61.578,72.986,61.703z"/>
<path fill-rule="evenodd" clip-rule="evenodd" fill="#f8bfe9" class="fill" d="M106.882,56.855c0.097,1.608,0.191,3.155,0.299,4.896
	c-3.603,0.408-6.973,0.817-10.554,0.136c-0.12-1.794-0.524-3.534,0.097-5.383C100.088,56.62,103.331,56.732,106.882,56.855z"/>
<path fill-rule="evenodd" clip-rule="evenodd" fill="#f8bfe9" class="fill" d="M96.821,76.25c2.924,0.101,5.846,0.202,8.768,0.302
	c0.046,0.118,0.091,0.236,0.137,0.353c-1.256,0.958-2.514,1.916-3.823,2.913C100.14,78.728,98.153,78.12,96.821,76.25z"/>
<path fill-rule="evenodd" clip-rule="evenodd" fill="#f8bfe9" class="fill" d="M77.812,122.872c0.632-2.028,1.218-3.906,1.795-5.761
	c0.494,1.575,0.795,7.188,0.425,9.521C79.206,125.234,78.522,124.076,77.812,122.872z"/>
<path fill-rule="evenodd" clip-rule="evenodd" fill="#f8bfe9" class="fill" d="M100.424,125.772c1.142,1.518,1.285,2.892,0.485,3.926
	c-0.754,0.973-2.775,1.521-3.994,1.085c-1.177-0.423-1.718-1.645-1.26-2.838c0.592-1.53,2.039-2.456,3.683-2.338
	C99.683,125.632,100.023,125.711,100.424,125.772z M100.114,129.492c-0.03-0.133-0.06-0.267-0.089-0.399
	c-0.199-0.025-0.459-0.141-0.584-0.055c-0.171,0.117-0.238,0.384-0.552,0.948C99.549,129.72,99.831,129.605,100.114,129.492z
	 M99.206,127.227c-0.001,0.156,0,0.312-0.002,0.467c0.428,0.384,0.777,0.374,1.167-0.511
	C99.87,127.201,99.538,127.215,99.206,127.227z M96.755,128.419c0.587-0.062,0.924-0.097,1.535-0.16
	C97.587,127.515,97.251,127.57,96.755,128.419z M97.163,129.93c0.144,0.33,0.188,0.43,0.28,0.642
	c0.268-0.089,0.546-0.181,0.824-0.274c-0.015-0.126-0.027-0.253-0.042-0.382C97.903,129.921,97.583,129.925,97.163,129.93z"/>
<path fill-rule="evenodd" clip-rule="evenodd" fill="#f8bfe9" class="fill" d="M98.121,103.714c0.872-0.168,1.775-0.344,2.63-0.508
	c1.668,1.194,2.056,3.021,0.974,4.353c-0.923,1.135-3.193,1.392-4.091,0.464C96.537,106.893,96.741,104.995,98.121,103.714z
	 M99.612,107.563c-0.558-0.985-0.972-0.765-1.379-0.347c-0.052,0.053,0.003,0.208,0.014,0.436
	C98.61,107.628,98.97,107.605,99.612,107.563z M101.082,106.407c-0.355,0.098-0.71,0.194-1.26,0.347
	C100.53,107.465,100.907,107.437,101.082,106.407z M99.658,105.157c0.238,0.095,0.441,0.248,0.627,0.229
	c0.228-0.025,0.438-0.196,0.729-0.341C100.306,104.589,100.306,104.589,99.658,105.157z M98.63,105.477
	c0.011-0.131,0.021-0.262,0.033-0.392c-0.196-0.062-0.395-0.179-0.586-0.17c-0.245,0.014-0.485,0.131-0.729,0.204
	c0.109,0.155,0.22,0.312,0.33,0.468C97.996,105.549,98.313,105.513,98.63,105.477z"/>
<path fill-rule="evenodd" clip-rule="evenodd" fill="#f8bfe9" class="fill" d="M66.369,117.586c0.437,0.438,0.754,0.754,1.07,1.07
	c0.125-0.071,0.251-0.144,0.376-0.217c-0.148-0.576-0.299-1.153-0.463-1.789c0.785-0.793,1.699-0.392,2.549-0.287
	c0.925,1.344,1.03,2.417,0.35,3.229c-0.617,0.735-1.769,0.856-2.902,0.306C66.29,119.383,66.095,118.963,66.369,117.586z
	 M69.707,117.745c-0.062-0.147-0.124-0.294-0.185-0.44c-0.236,0.134-0.471,0.266-0.704,0.4c0.045,0.095,0.089,0.189,0.134,0.283
	C69.203,117.907,69.455,117.826,69.707,117.745z M69.493,119.239c0.004-0.15,0.005-0.302,0.008-0.452
	c-0.232,0.029-0.465,0.059-0.696,0.088c0.001,0.096,0.002,0.192,0.003,0.289C69.036,119.188,69.265,119.214,69.493,119.239z"/>
</svg>
