<svg version="1.1" id="svg" xmlns="http://www.w3.org/2000/svg" xmlns:xlink="http://www.w3.org/1999/xlink" x="0px" y="0px"
	 width="200px" height="200px" viewBox="0 0 200 200" enable-background="new 0 0 200 200" xml:space="preserve">
<path class="stroke" fill="#401f5b"  d="M175.417,129.13c-1.241-1.561-2.963-1.927-4.821-1.967c-0.271-0.006-0.545-0.001-0.85-0.001
	c-0.208-0.46-0.387-0.855-0.625-1.38c0.826-0.716,1.621-1.406,2.483-2.154c0.076-0.852,0.234-1.749,0.216-2.643
	c-0.028-1.488-0.605-2.745-1.91-3.57c-1.577-0.998-5.665-0.548-6.994,0.789c-0.307,0.309-0.536,0.722-0.719,1.124
	c-0.748,1.642-0.889,3.326-0.091,5.073c-0.666,0.17-1.187,0.304-1.685,0.431c-1.521-2.846-3.095-3.925-5.32-3.595
	c-2.513,0.373-4.124,1.902-4.951,4.213c-2.271,0.192-4.392,0.371-6.442,0.544c-3.323-3.833-4.354-3.884-8.374-0.461
	c-0.505,0.055-1.056,0.116-1.578,0.173c-0.718-0.771-0.538-1.625-0.462-2.459c0.163-1.791-0.335-3.324-1.662-4.592
	c-1.251-1.194-2.917-1.678-4.325-0.908c-1.505,0.823-2.787,1.911-2.777,3.905c0.011,1.842,0.505,3.353,2.405,3.955
	c0.153,0.831,0.278,1.518,0.388,2.114c-1.007,0.682-1.843,0.272-2.662,0.197c-3.828-0.351-6.629,3.025-5.225,6.383
	c0.255,0.608,0.854,1.209,1.447,1.513c1.701,0.871,3.269,0.327,4.734-0.726c0.519-0.372,1.099-0.659,1.664-0.994
	c0.53,0.496,0.891,0.833,1.252,1.17c-0.106,0.039-0.213,0.078-0.318,0.117c0.27,1.525,0.354,3.115,0.857,4.56
	c0.588,1.688,2.246,2.202,3.848,2.288c1.402,0.075,2.756-0.373,3.928-1.291c1.824-1.428,1.373-3.397,1.254-5.427
	c1.277,0,2.431,0,3.762,0c0,1.861-0.03,3.605,0.012,5.346c0.023,1.004,0.348,2.027,0.223,3.002
	c-0.614,4.82-1.512,9.585-3.725,13.977c-1.705,3.384-4.233,5.944-7.828,7.342c-3.691,1.438-7.501,1.54-11.301,0.7
	c-5.223-1.156-7.648-4.479-7.567-9.842c0.057-3.703,1.01-7.253,1.85-10.8c1.064-4.488,2.548-8.875,3.7-13.344
	c0.998-3.867,1.933-7.762,2.635-11.691c0.871-4.878,1.559-9.795,2.167-14.714c0.477-3.855,0.915-7.736,1.004-11.614
	c0.122-5.295-0.046-10.599-0.212-15.896c-0.055-1.735,0.456-3.288,0.798-4.914c1.158,0,2.209,0,3.49,0
	c0.277,10.289,0.373,20.459-0.013,30.555c-2.776,1.356-3.713,2.859-3.533,5.502c0.082,1.229,0.739,2.182,1.955,2.435
	c0.955,0.199,1.967,0.123,3.377,0.188c2.366,0.916,5.292,0.995,8.223,0.975c1.643-0.011,3.258-0.238,4.756-1.002
	c1.218-0.622,1.848-1.656,1.936-2.962c0.092-1.392-0.684-2.355-1.89-2.938c-0.601-0.291-1.261-0.506-1.919-0.622
	c-1.707-0.301-3.43-0.529-5.284-0.808c0-0.761-0.017-1.483,0.003-2.204c0.071-2.646,0.182-5.291,0.229-7.937
	c0.11-6.483,0.183-12.966,0.298-19.449c0.022-1.229,0.24-2.455,0.242-3.682c0.002-1.939,0.688-3.93-0.395-5.808
	c-0.122-0.209-0.017-0.552-0.01-0.832c0.047-1.798,0.099-3.598,0.145-5.396c0.186-7.319,0.365-14.638,0.563-21.957
	c0.018-0.656,0.146-1.308,0.232-2.043c0.956-0.121,1.789-0.21,2.616-0.335c1.614-0.242,3.261-0.372,4.828-0.793
	c1.726-0.464,2.715-1.84,2.51-3.357c-0.236-1.751-0.675-2.818-2.827-3.317c-1.029-0.239-2.116-0.281-3.181-0.314
	c-1.856-0.06-3.717-0.097-5.573-0.041c-1.445,0.043-2.922-0.183-4.317,0.513c-1.206,0.601-2.454,1.133-3.726,1.579
	c-1.102,0.387-1.669,1.118-1.781,2.219c-0.065,0.652-0.012,1.315-0.012,2.017c1.159,0.587,2.149,1.09,3.387,1.717
	c-1.086,9.702,0.025,19.64-1.235,29.569c-1.285,0-2.39,0-3.62,0c-0.253-0.81-0.501-1.604-0.75-2.397
	c-0.639-0.72-1.173-1.515-1.424-2.391c-1.771-6.17-5.132-11.348-9.672-15.821c-1.121-1.105-2.148-2.308-3.276-3.406
	c-1.169-1.135-2.358-2.256-3.622-3.281c-2.954-2.402-6.377-4.036-9.788-5.646c-2.949-1.393-5.916-2.806-9.239-3.132
	c-1.852-0.182-3.702-0.375-5.554-0.558c-3.139-0.308-6.18,0.1-9.123,1.239c-4.419,1.71-6.374,4.981-6.729,9.639
	c-0.041,0.538,0.018,1.203,0.303,1.624c0.776,1.145,1.563,2.343,2.59,3.243c2.207,1.937,4.946,2.977,7.762,3.551
	c3.082,0.629,6.233,0.994,9.375,1.23c2.286,0.171,4.617,0.117,6.779-0.979c0.447-0.227,1.098-0.189,1.623-0.096
	c0.771,0.137,1.516,0.428,2.27,0.662c4.119,1.279,7.446,3.927,10.925,6.316c2.864,1.969,4.444,4.881,5.839,7.929
	c0.115,0.25,0.161,0.539,0.204,0.814c0.281,1.764,0.489,3.542,0.841,5.291c0.757,3.748,2.033,7.387,2.186,11.26
	c0.166,4.223,0.568,8.441,0.603,12.664c0.06,7.352-1.165,14.601-2.118,21.863c-0.725,5.531-1.715,11.008-3.335,16.375
	c-1.185,3.933-1.985,7.981-2.992,11.969c-0.747,2.954-1.207,5.951-1.669,8.961c-0.521,3.409-1.059,6.787-0.763,10.241
	c0.401,4.674,2.466,8.254,6.856,10.264c0.922,0.422,1.894,0.739,2.797,1.193c3.443,1.73,7.107,1.627,10.76,1.194
	c3.205-0.38,6.17-1.69,9.197-2.764c6.243-2.209,10.186-6.85,12.815-12.545c2.023-4.38,3.27-9.116,3.751-13.98
	c0.287-2.911,0.531-5.825,0.809-8.736c0.031-0.32,0.152-0.631,0.257-1.044c1.13-0.076,2.216-0.148,3.266-0.219
	c0.204,1.496,0.387,2.818,0.563,4.093c1.359,0.885,2.496,1.913,4.129,1.464c2.855-0.783,4.691-2.559,5.067-5.521
	c0.911-0.253,1.665-0.464,2.458-0.686c1.774,1.534,3.715,2.245,6.088,1.578C176.457,135.057,177.564,131.829,175.417,129.13z"/>
<path class="stroke" fill="#401f5b"  d="M85.7,153.384c-0.036-0.029-0.108-0.015-0.256-0.031c-0.156,0.14-0.419,0.285-0.55,0.507
	c-1.513,2.594-2.119,5.4-1.815,8.381c0.083,0.809,0.706,1.28,1.479,1.412c0.536,0.091,1.099,0.018,1.523,0.018
	c1.061-0.79,1.508-1.779,1.471-2.867c-0.071-2.118-0.294-4.23-0.446-6.248C86.551,154.092,86.128,153.735,85.7,153.384z"/>
<path class="stroke" fill="#401f5b"  d="M73.109,154.015c-0.767-0.054-1.366-0.097-2.035-0.144c-1.962,3.704-3.065,6.536-2.572,9.332
	c0.518,0.754,1.226,0.743,1.957,0.471c1.041-0.386,1.843-1.028,2.202-2.143C73.451,159.07,73.038,156.572,73.109,154.015z"/>
<path class="stroke" fill="#401f5b"  d="M46.77,145.483c-1.94,0.945-4.41,5.901-4.366,8.747c1.777,1.425,3.152,1.149,4.107-0.742
	c1.017-2.013,1.188-4.179,1.214-6.341C47.388,146.561,47.075,146.018,46.77,145.483z"/>
<path class="stroke" fill="#401f5b"  d="M43.408,100.271c-0.434-0.302-0.904-0.629-1.577-1.097c-1.366,2.966-2.622,5.692-3.899,8.462
	c2.209,1.486,3.782,1.003,4.595-1.003C43.35,104.604,43.379,102.49,43.408,100.271z"/>
<path class="stroke" fill="#401f5b"  d="M92.371,135.262c-0.56,0.036-1.03,0.065-1.457,0.093c-0.988,2.219-1.536,4.384-1.401,6.667
	c0.044,0.761,0.266,1.544,0.566,2.249c0.424,0.992,1.205,1.453,2.463,1.018c0.774-0.941,1.132-2.007,0.97-3.154
	C93.192,139.878,92.771,137.636,92.371,135.262z"/>
<path class="stroke" fill="#401f5b"  d="M34.471,137.217c1.485-2.242,1.672-4.819,2.148-7.327c-0.453-0.328-0.805-0.583-1.268-0.917
	c-0.432,0.375-0.913,0.675-1.238,1.097c-1.029,1.334-2.051,2.68-2.976,4.086c-0.758,1.15-1.195,2.42-0.621,3.791
	C32.378,139.13,33.346,138.912,34.471,137.217z"/>
<path class="stroke" fill="#401f5b"  d="M19.094,156.299c0.593,1.26,1.533,1.513,2.817,1.232c2.341-2.384,2.542-5.638,3.424-8.755
	c-0.728-0.234-1.295-0.417-2.073-0.668C21.621,150.727,19.346,152.917,19.094,156.299z"/>
<path class="stroke" fill="#401f5b"  d="M84.875,137.575c0.985,0.033,1.732-0.418,2.034-1.428c0.22-0.741,0.367-1.55,0.321-2.315
	c-0.107-1.79-0.345-3.573-0.546-5.357c-0.016-0.142-0.161-0.268-0.259-0.421c-0.598,0.213-1.165,0.416-1.736,0.619
	c-0.623,1.746-1.268,3.309-1.721,4.927c-0.214,0.765-0.201,1.662-0.039,2.445C83.145,137.081,83.879,137.542,84.875,137.575z"/>
<path class="stroke" fill="#401f5b"  d="M78.083,132.994c0.377-2.525,0.614-5.07,0.922-7.715c-0.729,0-1.221,0-1.874,0c-1.434,2.404-2.879,4.893-3.342,8.015
	c0.717,0.435,1.204,0.825,1.758,1.043C76.799,134.83,77.888,134.304,78.083,132.994z"/>
<path class="stroke" fill="#401f5b"  d="M85.204,120.104c0.137-1.938,0.123-3.886,0.169-5.729c-0.411-0.322-0.607-0.532-0.85-0.647
	c-0.188-0.089-0.431-0.058-0.759-0.09c-1.669,1.78-2.745,3.912-3.464,6.238c-0.217,0.702,0.062,1.313,0.592,1.828
	c0.777,0.755,1.697,0.861,2.661,0.555C84.574,121.933,85.136,121.101,85.204,120.104z"/>
<path class="stroke" fill="#401f5b"  d="M50.892,103.54c-1.961,0.917-4.955,6.259-5.267,9.192c1.013,0.772,2.108,0.825,3.509,0.245
	C50.479,110.096,51.437,107.024,50.892,103.54z"/>
<path class="stroke" fill="#401f5b"  d="M57.666,152.316c-0.695,1.595-1.448,3.174-2.001,4.819c-0.273,0.815-0.257,1.765-0.2,2.642
	c0.057,0.862,0.699,1.254,1.547,1.185c0.438-0.036,0.867-0.182,1.338-0.287c1.705-2.55,0.855-5.476,1.513-8.125
	c-0.606-0.295-1.05-0.511-1.603-0.781C57.98,152.019,57.744,152.133,57.666,152.316z"/>
<path class="stroke" fill="#401f5b"  d="M77.581,168.034c-0.84,2.202-1.699,4.45-2.48,6.497c0.519,1.621,1.433,2.02,2.513,1.969
	c1.057-0.049,1.359-0.999,1.494-1.807c0.276-1.658,0.419-3.339,0.558-5.017c0.07-0.855,0.012-1.722,0.012-2.884
	C78.818,167.301,78.258,167.633,77.581,168.034z"/>
<path class="stroke" fill="#401f5b"  d="M35.062,122.997c1.818,1.77,4.038,1.206,4.687-1.355c0.508-2.001,0.655-4.094,0.978-6.241
	c-0.601-0.188-1.058-0.333-1.562-0.491C36.225,118.56,34.723,120.552,35.062,122.997z"/>
<path class="stroke" fill="#401f5b"  d="M60.15,125.48c0.223-0.808,0.441-1.62,0.594-2.442c0.239-1.3,0.423-2.611,0.652-4.061c-0.703-0.11-1.229-0.192-1.978-0.31
	c-1.153,2.911-3.534,5.21-3.534,8.512C57.797,128.224,59.612,127.451,60.15,125.48z"/>
<path class="stroke" fill="#401f5b"  d="M78.857,141.69c-1.229,1.661-1.979,3.51-2.336,5.518c-0.411,2.306,1.005,3.54,3.48,2.962
	c0.136-0.228,0.449-0.511,0.451-0.796c0.02-2.239,0.018-4.48-0.071-6.716C80.354,141.969,79.803,141.611,78.857,141.69z"/>
<path class="stroke" fill="#401f5b"  d="M68.42,143.771c-0.199,1.298,0.618,2.162,1.729,2.273c1.13,0.113,2.051-0.521,2.245-1.774c0.302-1.94,0.483-3.9,0.666-5.856
	c0.038-0.404-0.147-0.829-0.247-1.333c-0.592,0.133-1.016,0.229-1.461,0.329c-0.651,1.009-1.31,1.809-1.721,2.722
	C69.107,141.294,68.611,142.521,68.42,143.771z"/>
<path class="stroke" fill="#401f5b"  d="M35.496,147.057c0.181-0.681-0.098-1.178-0.633-1.53c-2.129,0.862-5.064,5.732-4.842,7.959
	c1.159,1.287,2.306,0.613,3.788-0.2C34.356,151.269,34.937,149.166,35.496,147.057z"/>
<path class="stroke" fill="#401f5b"  d="M69.117,123.059c-0.687,0.148-1.253,0.271-1.723,0.373c-1.076,1.947-1.58,3.894-1.885,5.903
	c-0.3,1.976,0.697,2.958,2.929,2.79C69.816,129.181,69.107,126.206,69.117,123.059z"/>
<path class="stroke" fill="#401f5b"  d="M56.41,133.673c0.012-0.173-0.225-0.361-0.342-0.534c-0.212,0.017-0.38,0.014-0.541,0.048
	c-0.216,0.047-0.426,0.124-0.634,0.187c-0.865,1.396-1.712,2.591-2.367,3.884c-0.445,0.88-0.757,1.877-0.886,2.854
	c-0.191,1.445,0.98,2.311,2.379,1.893c1.156-0.344,1.801-1.231,1.938-2.324C56.211,137.692,56.292,135.679,56.41,133.673z"/>
<path class="stroke" fill="#401f5b"  d="M91.719,123.196c-0.104-1.851-0.284-3.701-0.553-5.534c-0.091-0.618-0.424-1.305-1.664-1.199
	c-0.486,2.878-1.513,5.649-0.596,8.785c0.794,0,1.524,0,2.391,0C91.465,124.481,91.755,123.83,91.719,123.196z"/>
<path class="stroke" fill="#401f5b"  d="M33.375,165.148c-0.261,1.469,0.031,1.893,1.725,2.647c0.566-0.32,1.145-0.646,1.935-1.091
	c0.411-2.413,0.839-4.921,1.284-7.533c-0.75,0-1.278,0-1.876,0C35.27,161.133,33.78,162.862,33.375,165.148z"/>
<path class="stroke" fill="#401f5b"  d="M48.229,127.088c1.106-0.227,1.464-1.128,1.682-2.097c0.073-0.327,0.099-0.666,0.134-1c0.163-1.561,0.326-3.121,0.473-4.682
	c0.013-0.151-0.089-0.313-0.179-0.607c-0.474,0.075-0.942,0.149-1.414,0.224c-1.043,2.494-3.422,4.211-3.462,7.12
	C46.201,127.216,47.188,127.302,48.229,127.088z"/>
<path class="stroke" fill="#401f5b"  d="M56.275,81.649c0.777-2.084,1.574-4.198,1.465-6.594c-0.706,0-1.351,0-2.096,0c-1.189,2.165-2.816,4.113-2.689,6.907
	C54.207,83.309,55.69,83.212,56.275,81.649z"/>
<path class="stroke" fill="#401f5b"  d="M67.879,115.289c0.844-2.266,1.117-4.633,1.166-7.154c-0.581-0.107-1.053-0.195-1.759-0.325
	c-1.436,2.375-3.05,4.47-2.89,7.385c0.424,0.31,0.795,0.665,1.232,0.883C66.518,116.522,67.538,116.206,67.879,115.289z"/>
<path class="stroke" fill="#401f5b"  d="M56.237,102.521c1.055,0.505,2.182-0.023,2.661-1.267c0.74-1.917,0.695-3.929,0.775-5.966c-0.6-0.2-1.11-0.371-1.673-0.559
	c-0.271,0.202-0.476,0.274-0.528,0.407c-0.745,1.865-1.52,3.721-2.173,5.618C55.032,101.533,55.494,102.164,56.237,102.521z"/>
<path class="stroke" fill="#401f5b"  d="M61.949,135.415c-1.197,2.552-2.875,4.941-2.229,8.118c1.807,0.979,3.154,0.572,3.502-1.312
	c0.381-2.068,0.33-4.216,0.447-6.33c0.007-0.133-0.164-0.276-0.292-0.475C62.965,135.415,62.532,135.415,61.949,135.415z"/>
<path class="stroke" fill="#401f5b"  d="M75.052,119.718c0.84-0.176,1.352-0.75,1.366-2.062c0.024-2.124-0.13-4.25-0.221-6.375
	c-0.003-0.082-0.137-0.158-0.279-0.314c-0.369,0.069-0.792,0.148-1.212,0.226c-1.011,2.394-2.231,4.648-1.833,7.303
	C73.686,119.584,74.231,119.889,75.052,119.718z"/>
<path class="stroke" fill="#401f5b"  d="M48.8,86.016c-0.697-0.212-1.226-0.374-1.817-0.555c-0.979,2.343-2.415,4.262-2.899,6.749
	c0.599,0.392,1.14,0.744,1.733,1.131C48.511,91.524,47.858,88.575,48.8,86.016z"/>
<path class="stroke" fill="#401f5b"  d="M88.911,77.989c-0.803,0.316-1.459,0.574-2.196,0.864c-0.201,1.328-0.481,2.59-0.564,3.866
	c-0.134,2.054,1.19,3.221,3.455,2.947C90.575,83.001,89.526,80.609,88.911,77.989z"/>
<path class="stroke" fill="#401f5b"  d="M54.451,67.925c-0.695,0.034-1.182,0.059-1.767,0.087c-1.469,2.463-3.148,4.659-3.288,7.633
	c0.786,0.251,1.455,0.464,2.329,0.743C53.394,73.757,54.07,70.976,54.451,67.925z"/>
<path class="stroke" fill="#401f5b"  d="M42.528,139.734c0.646,0.285,1.39,0.615,2.146,0.95c1.684-0.78,1.814-2.188,1.977-3.491c0.179-1.438,0.214-2.899,0.208-4.35
	c-0.002-0.399-0.372-0.797-0.595-1.241C44.195,133.351,42.248,137.58,42.528,139.734z"/>
<path class="stroke" fill="#401f5b"  d="M81.449,108.082c1.933-2.484,1.271-5.226,1.27-8.121c-0.367-0.196-0.73-0.391-1.244-0.667
	c-1.465,2.694-2.458,5.313-1.963,8.42C80.262,107.856,80.834,107.965,81.449,108.082z"/>
<path class="stroke" fill="#401f5b"  d="M63.506,82.944c0.4-2.092,1.219-4.052,0.551-6.333c-0.645,0.229-1.201,0.428-1.686,0.6
	c-1.239,2.104-2.142,4.196-2.341,6.496C61.394,84.922,61.804,84.829,63.506,82.944z"/>
<path class="stroke" fill="#401f5b"  d="M82.157,88.093c-0.608-0.035-1.087-0.062-1.771-0.101c-0.776,1.76-1.652,3.45-2.271,5.231
	c-0.727,2.092,0.228,3.013,2.645,2.564C82.867,93.611,82.449,90.905,82.157,88.093z"/>
<path class="stroke" fill="#401f5b"  d="M49.377,163.059c-1.144,2.416-2.563,4.709-1.777,7.498c1.628,0.689,1.721,0.683,3.047-0.12
	c0.553-1.75,0.709-5.109,0.331-7.295C50.494,163.116,50.001,163.091,49.377,163.059z"/>
<path class="stroke" fill="#401f5b"  d="M87.735,91.024c-0.269-0.012-0.541,0.051-0.754,0.074c-1.06,1.722-1.547,4.186-1.395,6.929
	c0.35,0.573,0.928,0.908,1.545,0.606c0.614-0.3,1.429-0.764,1.587-1.319c0.576-2.009,0.441-4.067-0.024-6.113
	C88.278,91.12,88.008,91.036,87.735,91.024z"/>
<path class="stroke" fill="#401f5b"  d="M79.335,68.79c-1.131,2.9-1.408,4.175-1.252,5.636c1.251,0.995,1.361,1.016,2.86,0.555c0.904-1.558,1.055-5.109,0.299-7.086
	c-0.052-0.02-0.119-0.069-0.151-0.053C80.512,68.148,79.937,68.462,79.335,68.79z"/>
<path class="stroke" fill="#401f5b"  d="M89.638,108.611c0.116-1.674,0.028-3.37-0.075-5.049c-0.053-0.85-0.582-1.313-1.685-0.988
	c-0.931,2.271-1.596,4.648-1.325,7.255C88.486,110.912,89.507,110.5,89.638,108.611z"/>
<path class="stroke" fill="#401f5b"  d="M68.064,76.311c-1.082,1.726-1.976,3.525-1.57,5.726c0.495,0.301,0.959,0.585,1.292,0.788
	c1.256-0.149,1.679-1.017,1.756-1.795c0.166-1.708,1.247-3.414,0.297-5.154C68.572,75.812,68.398,75.78,68.064,76.311z"/>
<path class="stroke" fill="#401f5b"  d="M72.001,57.833c-1.446,1.772-2.228,3.62-2.134,5.898c1.477,1.389,2.633,1.214,3.404-0.532
	c0.689-1.559,0.764-3.221,0.691-5.049C73.24,58.032,72.614,57.931,72.001,57.833z"/>
<path class="stroke" fill="#401f5b"  d="M75.695,103.793c-0.037-1.715-0.473-3.423-0.748-5.133c-0.023-0.158-0.142-0.3-0.248-0.512
	c-0.216-0.087-0.464-0.223-0.729-0.28c-0.142-0.03-0.312,0.077-0.554,0.146c-0.702,2.49-1.972,4.925-0.96,7.687
	C74.544,106.27,75.735,105.593,75.695,103.793z"/>
<path class="stroke" fill="#401f5b"  d="M89.739,72.555c0.118-1.656-0.055-3.333-0.098-4.964c-1.347-0.555-2.095-0.213-2.425,0.701
	c-0.654,1.807-0.976,3.677-0.648,5.524C88.5,74.935,89.6,74.512,89.739,72.555z"/>
<path class="stroke" fill="#401f5b"  d="M65.422,92.435c1.078-1.605,1.928-5.772,1.297-6.881c-0.305-0.08-0.715-0.187-1.341-0.351
	c-1.137,2.384-2.344,4.511-2.76,6.919C63.945,92.872,63.945,92.872,65.422,92.435z"/>
<path class="stroke" fill="#401f5b"  d="M73.044,83.858c0.581,0.152,1.141,0.299,1.595,0.417c1.976-1.813,2.426-4.762,1.213-7.417
	c-0.635,0.324-1.269,0.646-1.988,1.014C73.354,79.733,72.5,81.537,73.044,83.858z"/>
<path class="stroke" fill="#401f5b"  d="M77.773,59.276c-0.406,1.613-0.799,3.175-1.233,4.901c0.593,0.564,1.171,1.116,2.049,1.952
	c0.571-0.728,1.114-1.126,1.235-1.626c0.475-1.948,0.617-3.922,0.001-6.048C79.043,58.769,78.435,59.012,77.773,59.276z"/>
<path class="stroke" fill="#401f5b"  d="M66.656,101.531c0.09-0.667,0.217-1.332,0.268-2.002c0.106-1.383,0.004-2.752-0.299-4.215
	c-0.381,0.139-0.771,0.159-0.864,0.336c-0.518,0.983-1.06,1.974-1.413,3.021c-0.463,1.364-0.982,2.74-0.977,4.281
	C65.334,103.923,66.405,103.397,66.656,101.531z"/>
<path class="stroke" fill="#401f5b"  d="M83.049,77.885c-0.006-0.186-0.229-0.366-0.466-0.718c-0.413,0.259-0.779,0.368-0.948,0.612
	c-0.972,1.398-1.73,2.892-1.725,4.654c0.001,0.277,0.051,0.567,0.143,0.829c0.266,0.752,0.742,1.276,1.611,1.229
	c0.864-0.045,1.43-0.606,1.461-1.382C83.192,81.372,83.105,79.626,83.049,77.885z"/>
<path class="stroke" fill="#401f5b"  d="M56.672,114.237c0.595,0.739,1.336,0.942,2.389,0.538c1.002-1.775,0.953-3.864,1.095-5.897
	c0.037-0.535-0.225-1.089-0.375-1.744C57.924,108.629,56.362,112.364,56.672,114.237z"/>
<path class="stroke" fill="#401f5b"  d="M63.425,72.787c0.727,0.246,1.429,0.483,2.298,0.778c1.656-2.12,1.9-4.37,2.36-6.652c-0.678-0.264-1.179-0.459-1.87-0.73
	C65.002,68.243,63.134,69.902,63.425,72.787z"/>
<path class="stroke" fill="#401f5b"  d="M64.455,46.491c-0.737,1.713-2.228,3.135-2.15,5.068c0.681,1.219,1.629,1.295,2.786,1.028
	c1.429-2.399,1.598-5.104,0.349-6.813C65.104,46.006,64.594,46.168,64.455,46.491z"/>
<path class="stroke" fill="#401f5b"  d="M57.263,85.284c-1.23,0.165-1.409,0.194-1.813,0.902c-0.921,1.612-1.51,3.35-1.895,5.247
	c0.438,0.334,0.82,0.628,1.225,0.938C57.128,91.181,58.188,87.915,57.263,85.284z"/>
<path class="stroke" fill="#401f5b"  d="M83.945,64.977c0.115,0.933,0.926,1.587,1.717,1.579c0.902-0.009,1.268-0.613,1.489-1.365
	c0.486-1.652,0.809-3.298-0.257-4.974c-0.598,0-1.248,0-1.858,0C83.952,61.717,83.741,63.319,83.945,64.977z"/>
<path class="stroke" fill="#401f5b"  d="M89.991,55.659c-0.124-1.099-0.446-2.175-0.704-3.373c-0.768-0.111-1.452-0.211-2.444-0.355
	c-0.15,1.557-0.397,2.823-0.363,4.082c0.04,1.48,0.883,2.306,1.961,2.236C89.414,58.187,90.151,57.074,89.991,55.659z"/>
<path class="stroke" fill="#401f5b"  d="M49.526,93.831c-0.987,2.076-2.827,3.814-2.7,6.635c0.736,0.075,1.398,0.143,2.075,0.212
	c1.549-2.421,1.44-4.828,1.919-7.554C50.111,93.498,49.645,93.582,49.526,93.831z"/>
<path class="stroke" fill="#401f5b"  d="M72.776,93.611c0.953-1.382,1.431-3.499,1.136-5.178c-0.119-0.674,0.001-1.537-0.98-1.747
	c-1.176,0.591-2.202,2.696-2.669,5.471C70.996,93.631,71.009,93.639,72.776,93.611z"/>
<path class="stroke" fill="#401f5b"  d="M72.701,49.898c-0.008-0.1-0.097-0.194-0.219-0.425c-0.336-0.027-0.752-0.06-1.253-0.099
	c-0.845,1.728-1.654,3.383-2.416,4.941c0.183,1.16,0.96,1.456,1.891,1.685c1.722-0.677,2.331-1.71,2.189-3.58
	C72.829,51.579,72.773,50.738,72.701,49.898z"/>
<path class="stroke" fill="#401f5b"  d="M59.516,71.622c0.879-1.949,1.062-3.915,0.912-6.097c-0.676,0.034-1.266,0.064-1.881,0.095
	c-1.041,1.739-1.93,3.447-2.358,5.286C57.373,72.334,57.688,72.4,59.516,71.622z"/>
<path class="stroke" fill="#401f5b"  d="M64.504,56.703c-0.921,1.792-2.222,3.282-1.872,5.303c1.468,1.219,2.86,1.103,3.282-0.296
	c0.468-1.547,0.609-3.152,0.216-4.895C65.545,56.774,65.025,56.739,64.504,56.703z"/>
<path class="stroke" fill="#401f5b"  d="M76.938,50c-2.042,2.084-2.188,4.526-0.511,5.994c1.527-0.083,2.006-0.419,2.113-1.776c0.096-1.22,0.02-2.455,0.02-3.714
	C77.904,50.3,77.436,50.155,76.938,50z"/>
<path class="stroke" fill="#401f5b"  d="M81.202,56.691c0.749,0.974,1.497,1.266,2.389,0.952c0.763-0.269,1.1-0.899,1.159-1.691c0.057-0.75-0.709-3.607-1.281-4.559
	C81.29,52.626,81.581,54.811,81.202,56.691z"/>
<path class="stroke" fill="#401f5b"  d="M71.108,72.597c1.553,0.958,2.88,0.429,3.178-1.232c0.205-1.145,0.25-2.318,0.38-3.608c-0.552-0.188-1.056-0.36-1.748-0.597
	C71.82,69.006,71.003,70.669,71.108,72.597z"/>
<path fill-rule="evenodd" clip-rule="evenodd" fill="#78eced" class="fill" d="M93.542,42.539c-0.354,0.29-0.647,0.531-0.946,0.776
	c0.095,0.749,0.181,1.444,0.268,2.14c-0.088,0.029-0.179,0.058-0.268,0.087c-0.15-0.204-0.381-0.387-0.441-0.615
	c-0.724-2.715-2.805-4.03-5.11-5.251c-2.884-1.527-6.031-1.681-9.138-2.124c-2.468-0.352-4.945-0.457-7.408-0.038
	c-1.263,0.215-2.495,0.604-4.044,0.991c0.16-0.716,0.281-1.257,0.43-1.919c1.366-0.385,2.636-0.903,3.951-1.086
	c5.624-0.781,11.117-0.328,16.383,1.995c0.776,0.343,1.588,0.913,2.615,0.341c-0.021-0.838-0.575-1.329-1.139-1.747
	c-3.557-2.627-7.491-4.32-11.931-4.729c-0.447-0.042-0.895-0.076-1.338-0.145c-0.156-0.024-0.298-0.142-0.737-0.364
	c0.62-0.243,1.025-0.469,1.458-0.56c3.671-0.775,7.312-0.569,10.82,0.716c3.869,1.417,7.547,3.238,10.868,5.737
	c2.79,2.099,5.696,4.043,8.472,6.161c3.726,2.844,6.651,6.417,8.863,10.531c1.434,2.665,2.646,5.45,4.087,8.454
	c-1.251,0.21-2.21,0.37-3.343,0.559c-1.617-5.135-4.293-9.534-8.495-12.914C103.333,46.249,98.89,43.695,93.542,42.539z"/>
<path fill-rule="evenodd" clip-rule="evenodd" fill="#78eced" class="fill" d="M129.991,29.223c0.929-0.975,1.824-1.002,2.74-0.997
	c2.471,0.014,4.94,0.008,7.412,0.017c0.45,0.002,0.901,0.016,1.352,0.061c2.035,0.208,2.505,0.639,3.045,2.776
	c-0.16,0.88-0.64,1.608-1.53,1.815c-2.245,0.521-4.528,0.729-6.982,0.603c0-1.216,0-2.321,0-3.523
	c-0.602-0.104-1.078-0.185-1.398-0.24c-1.324,0.612-1.526,1.608-1.552,2.747c-0.118,5.295-0.25,10.59-0.407,15.884
	c-0.15,5.011-0.335,10.022-0.518,15.033c-0.016,0.435-0.129,0.866-0.208,1.377c-0.868-0.079-1.638-0.149-2.511-0.229
	c-0.157-1.096-0.415-2.086-0.422-3.078c-0.034-5.065-0.073-10.132,0.025-15.197c0.09-4.558,0.338-9.113,0.557-13.667
	C129.65,31.431,129.865,30.266,129.991,29.223z M138.433,29.583c-0.396,0.639-0.754,1.213-1.073,1.727
	c1.537,1.764,2.319,1.852,4.099,0.534c0-0.563,0-1.208,0-2.079C140.478,29.706,139.61,29.653,138.433,29.583z"/>
<path fill-rule="evenodd" clip-rule="evenodd" fill="#78eced" class="fill" d="M134.666,111.169c0-1.383,0-2.604,0-3.945
	c-0.55,0.044-0.969,0.079-1.399,0.113c-0.285,0.648-0.531,1.208-0.767,1.743c-2,1.09-2.848,0.766-3.172-1.391
	c-0.291-1.94-0.483-3.912-0.515-5.873c-0.05-3.15,0.083-6.304,0.113-9.456c0.034-3.539,0.005-7.079,0.076-10.616
	c0.031-1.502,0.245-3.001,0.381-4.547c0.982-0.353,1.807-0.126,2.705,0.29c0.055,0.57,0.147,1.121,0.153,1.672
	c0.067,7.26,0.121,14.52,0.182,21.78c0.007,0.9-0.029,1.806,0.058,2.7c0.062,0.643,0.295,1.27,0.472,1.987
	c1.242,0.148,2.348,0.273,3.452,0.415c1.171,0.15,2.343,0.297,3.509,0.481c1.406,0.223,2.413,0.897,2.57,2.466
	c-0.215,0.957-0.827,1.603-1.755,1.856C138.818,111.367,136.873,111.487,134.666,111.169z M139.606,107.783
	c-2.546-0.618-3.465,0.174-2.869,2.341c1.144,0.661,2.058,0.689,2.714-0.017C140.076,109.432,140.25,108.658,139.606,107.783z"/>
<path fill-rule="evenodd" clip-rule="evenodd" fill="#78eced" class="fill" d="M83.613,40.372c1.439,0.571,2.868,1.138,4.313,1.711
	c0,0.491,0,0.863,0,1.307c0.391,0.13,0.801,0.266,1.281,0.426c0.161,0.534,0.321,1.061,0.47,1.555
	c-0.781,0.652-0.781,0.652-3.422,0.934c-0.062-0.166-0.123-0.359-0.207-0.543c-0.067-0.145-0.162-0.276-0.238-0.403
	c-0.926,0.166-0.926,0.166-1.218,1.145c-3.028,0.199-11.12-1.691-14.095-3.326c0.273-0.288,0.539-0.565,0.834-0.875
	c-0.816-0.938-1.197-0.003-1.876,0.334c-0.454-0.518-0.94-1.072-1.362-1.554c0.56-0.715,0.983-1.258,1.497-1.914
	c0.942-0.332,2.024-0.589,2.771,0.021c1.4-0.179,2.529-0.324,3.731-0.478c0.082,0.549,0.133,0.899,0.235,1.595
	c0.624-0.483,1.052-0.813,1.722-1.331c0.471,0.255,1.11,0.601,1.868,1.01c0.396-0.116,0.993-0.292,1.729-0.508
	c0.066,0.584,0.104,0.93,0.168,1.499C82.45,40.764,82.985,40.584,83.613,40.372z M77.158,42.918
	c1.031,0.655,1.031,0.655,1.543-0.251C77.978,42.313,77.978,42.313,77.158,42.918z M79.736,44.1
	c0.418,0.977,0.896,0.977,1.591,0.333C81.007,43.565,80.532,43.533,79.736,44.1z M85.545,44.29c0.715-0.225,1.049-0.329,1.631-0.513
	c-0.435-0.429-0.701-0.692-1.137-1.121C85.86,43.248,85.76,43.58,85.545,44.29z M84.184,44.969
	c-0.037-0.174-0.074-0.348-0.111-0.521c-0.609-0.437-1.074-0.397-1.465,0.79C83.291,45.121,83.736,45.044,84.184,44.969z
	 M74.751,41.017c-0.541-1.043-0.541-1.043-1.445,0C73.859,41.017,74.275,41.017,74.751,41.017z M81.828,42.69
	c-0.412-1.062-0.412-1.062-1.41-0.199C81.029,42.578,81.429,42.634,81.828,42.69z M88.001,46.17c0-0.536,0-0.82,0-1.433
	c-0.556,0.331-0.89,0.529-1.505,0.896C87.154,45.868,87.437,45.969,88.001,46.17z M76.183,43.721
	c-0.612-0.958-0.612-0.958-1.314,0.069c0.278,0.081,0.523,0.208,0.768,0.206C75.818,43.993,75.996,43.82,76.183,43.721z
	 M75.261,41.953c0.529,0.361,0.974,0.412,1.392-0.159C75.908,41.173,75.908,41.173,75.261,41.953z M78.16,41.009
	c0.559,0.462,0.986,0.463,1.51-0.231C79.028,40.191,78.6,40.186,78.16,41.009z M73.937,43.198c-0.239-0.484-0.37-0.749-0.598-1.211
	c-0.451,0.382-0.783,0.664-1.429,1.211C72.776,43.198,73.193,43.198,73.937,43.198z M71.458,40.395
	c-0.513-0.852-0.524-0.876-1.05-0.606c-0.146,0.075-0.193,0.34-0.385,0.709C70.603,40.457,70.991,40.428,71.458,40.395z
	 M76.92,44.219c0.043,0.168,0.086,0.336,0.129,0.505c0.52,0.218,1.028,0.414,1.22-0.822C77.706,44.034,77.313,44.126,76.92,44.219z
	 M83.392,43.17c0.37-0.096,0.74-0.191,1.42-0.368C83.994,42.191,83.589,42.036,83.392,43.17z"/>
<path fill-rule="evenodd" clip-rule="evenodd" fill="#78eced" class="fill" d="M133.993,66.724c0,1.206,0,2.357,0,3.737
	c-1.474,0.043-2.808,0.133-4.14,0.111c-3.195-0.053-6.39-0.137-9.582-0.26c-0.569-0.022-1.128-0.287-1.737-0.452
	c0-1.131,0-2.065,0-2.981C120.819,65.622,130.516,65.491,133.993,66.724z"/>
<path fill-rule="evenodd" clip-rule="evenodd" fill="#78eced" class="fill" d="M148.076,130.084c-0.26-0.682-0.409-1.072-0.611-1.598
	c-1.222,0-2.38,0-3.578,0c0-0.392,0-0.604,0-0.905c1.982-0.654,4.003-0.419,6.07-0.493c1.258,1.995,3.123,2.604,5.373,2.401
	c0.51-0.046,1.045,0.199,1.838,0.367c-1,0.779-1.901,0.703-2.734,0.705c-1.85,0.003-3.586,0.278-5.266,1.807
	c-1.102,1.46-0.254,3.552-0.688,5.587c-1.518,0-3,0-4.585,0c-0.286-1.933-0.002-3.811,0.39-5.661
	c0.175-0.832,0.917-1.207,1.737-1.422C146.646,130.707,147.239,130.412,148.076,130.084z"/>
<path fill-rule="evenodd" clip-rule="evenodd" fill="#78eced" class="fill" d="M129.324,131.925c1.48,0.43,2.761,0.092,4.025-1.138
	c-0.074-0.702-0.157-1.513-0.248-2.37c0.933-0.298,1.888-0.603,2.856-0.912c0.875-1.541,1.875-2.889,3.843-2.899
	c1.427,1.151,1.632,1.83,1.315,4.45c-0.699,1.101-1.729,1.353-3.024,1.019c-2.249-0.581-3.824,0.173-5.099,2.539
	c0.238,0.664,0.535,1.488,0.792,2.198c0.734,0.328,1.332,0.523,1.854,0.842c1.161,0.709,1.519,2.118,0.884,3.236
	c-0.664,1.17-2.206,1.624-3.917,1.152c-1.286-0.355-2.111-1.411-1.858-2.817c0.236-1.304-0.021-2.463-0.475-3.62
	c-0.235-0.599-0.607-1.144-0.918-1.713L129.324,131.925z M131.197,138.024c0.387,0.398,0.678,0.952,1.097,1.077
	c0.771,0.23,1.661,0.415,2.42,0.246c1.197-0.266,1.364-0.802,0.991-1.631c-0.75,0.211-1.455,0.501-2.186,0.589
	C132.809,138.393,132.297,137.196,131.197,138.024z M140.782,128.411c-1.231-0.27-2.217-0.486-3.396-0.744
	c-0.034,0.25-0.234,0.677-0.098,0.885c0.643,0.988,1.685,0.895,2.808,0.856C140.302,129.109,140.532,128.774,140.782,128.411z"/>
<path fill-rule="evenodd" clip-rule="evenodd" fill="#78eced" class="fill" d="M129.355,131.894c-0.785,0.027-1.603-0.069-2.345,0.123
	c-0.668,0.173-1.421,0.527-1.841,1.042c-0.731,0.898-1.674,1.271-2.623,1.625c-1.775-0.664-1.869-0.847-1.734-3.303
	c0.646-1.609,1.938-1.912,3.457-1.623c1.82,0.347,3.338-0.162,4.604-1.473c0.227-0.235,0.367-0.553,0.518-0.786
	c-0.122-1.725-1.136-2.949-2.229-4.41c0.677,0.118,1.094,0.266,1.5,0.24c0.334-0.021,0.654-0.248,1.045-0.41
	c-0.769-0.702-1.414-1.292-2.289-2.091c-0.057-0.013-0.42-0.095-0.748-0.169c-0.322-1.097,0.858-1.775,2.707-1.615
	c1.646,0.9,1.857,2.349,1.549,4.043c-0.207,1.137-0.303,2.294-0.471,3.608c0.521,0.3,0.959,0.551,1.539,0.885
	c-0.442,0.312-0.594,0.502-0.773,0.532c-1.345,0.221-2.317,0.831-2.585,2.442c0.193,0.386,0.44,0.878,0.688,1.371
	C129.324,131.925,129.355,131.893,129.355,131.894z M121.285,132.023c-0.061,0.118-0.12,0.235-0.181,0.353
	c0.422,0.414,0.845,0.828,1.205,1.181c0.909-0.206,1.56-0.4,1.674-1.29C123.006,132.179,122.146,132.102,121.285,132.023z"/>
<path fill-rule="evenodd" clip-rule="evenodd" fill="#78eced" class="fill" d="M116.466,67.199c0,0.823-0.062,1.723,0.012,2.612
	c0.185,2.241,1.192,3.161,3.472,3.282c0.621,0.033,1.241,0.104,2.119,0.18c-0.343,0.452-0.451,0.744-0.591,0.757
	c-1.938,0.196-3.883,0.353-6.048,0.538c-0.799-3.572-1.552-6.943-2.36-10.559c2.736-0.333,5.207-0.634,7.827-0.952
	c0.197,0.62,0.354,1.115,0.522,1.65C119.666,65.436,117.57,65.077,116.466,67.199z"/>
<path fill-rule="evenodd" clip-rule="evenodd" fill="#78eced" class="fill" d="M165.756,127.62c-0.904-0.224-1.638-0.406-2.462-0.611
	c0.537-1.176,1.043-2.282,1.478-3.233c-0.861-3.244-0.737-3.872,0.881-4.942c1.07-0.708,2.516-0.72,3.467-0.031
	c1.139,0.825,1.383,2.305,0.638,4.486C167.484,123.663,166.481,125.515,165.756,127.62z M168.181,123.519
	c1.385-1.558,1.466-2.047,0.62-3.517c-0.391,0.843-0.737,1.595-0.957,2.07c-0.77,0.58-1.674,0.026-2.04,1.189
	C166.658,123.354,167.435,123.438,168.181,123.519z"/>
<path fill-rule="evenodd" clip-rule="evenodd" fill="#78eced" class="fill" d="M174.252,133.905c-1.531,0.537-2.994,1.108-4.516,0.353
	c-1.432-2.364-1.432-2.364-3.668-3.369c0.082-0.45,0.17-0.924,0.276-1.508c0.51,0.075,0.963,0.071,1.36,0.215
	c0.852,0.311,1.668,0.273,2.453-0.133c1.022-0.528,2.061-0.475,3.272-0.162C174.367,130.583,175.076,131.977,174.252,133.905z
	 M171.969,132.036c-0.763-0.008-1.685-0.526-2.181,0.558c0.665,1.155,0.947,1.239,3.05,0.787c0.186-0.497,0.456-1.131,0.646-1.788
	c0.048-0.166-0.155-0.406-0.274-0.686C172.625,131.44,172.306,131.73,171.969,132.036z"/>
<path fill-rule="evenodd" clip-rule="evenodd" fill="#78eced" class="fill" d="M162.13,127.208c-0.598,0.725-1.056,1.28-1.562,1.893
	c-1.151-0.613-2.287-1.217-3.432-1.826c-0.82,0.083-1.645,0.167-2.469,0.251c1.079-0.351,1.456-1.133,1.621-2.431
	c-0.565,0.335-0.94,0.559-1.062,0.63c-1.025,0-1.796,0-2.553,0c0.178-2.158,1.777-3.06,4.812-2.486
	c0.335,0.736,0.7,1.544,1.106,2.439C159.707,126.16,160.862,126.66,162.13,127.208z"/>
<path fill-rule="evenodd" clip-rule="evenodd" fill="#78eced" class="fill" d="M161.187,135.869c-0.765,0.579-1.367,1.033-1.972,1.49
	c-0.505-0.267-0.896-0.474-1.313-0.695c-0.34,0.145-0.688,0.292-1.125,0.479c0-0.638,0-1.183,0-1.845
	c0.539-0.309,1.042-0.656,1.591-0.896c0.559-0.244,1.163-0.38,1.753-0.565c0.39-0.875,0.751-1.685,1.14-2.559
	c0.721,0.25,1.348,0.469,2.182,0.759c-0.513,0.943-0.981,1.804-1.455,2.675c0,0.967,0,1.958,0,2.807
	c-1.729,1.718-2.668,1.925-3.993,0.987C160.892,138.091,161.284,137.792,161.187,135.869z"/>
<path fill-rule="evenodd" clip-rule="evenodd" fill="#78eced" class="fill" d="M122.084,168.394c1.349,0,2.564,0,4.011,0
	c-0.156,0.802-0.294,1.525-0.444,2.305c-1.645,0.171-3.118,0.363-4.772-0.26C121.293,169.739,121.648,169.134,122.084,168.394z"/>
<path fill-rule="evenodd" clip-rule="evenodd" fill="#78eced" class="fill" d="M111.812,141.887c-0.393,1.348-0.752,2.574-1.166,3.993
	c-0.687-0.494-1.221-0.878-1.911-1.374c0.316-1.384,0.636-2.774,1.031-4.499C110.609,140.781,111.203,141.327,111.812,141.887z"/>
<path fill-rule="evenodd" clip-rule="evenodd" fill="#78eced" class="fill" d="M143.581,157.567c-0.743-0.54-1.231-0.896-1.87-1.359
	c0.231-1.104,0.463-2.211,0.751-3.585c0.989,0.574,1.728,1.004,2.681,1.558C144.628,155.296,144.156,156.317,143.581,157.567z"/>
<path fill-rule="evenodd" clip-rule="evenodd" fill="#78eced" class="fill" d="M114.702,131.9c-1.087-0.77-1.848-1.307-2.671-1.89
	c0.266-1.067,0.516-2.065,0.826-3.314c0.88,0.774,1.575,1.385,2.363,2.077C115.062,129.729,114.911,130.642,114.702,131.9z"/>
<path fill-rule="evenodd" clip-rule="evenodd" fill="#78eced" class="fill" d="M143.359,148.806c1.139,0.386,2.064,0.699,3.195,1.082
	c-0.281,1.005-0.521,1.866-0.824,2.954c-1.074-0.618-1.922-1.105-2.896-1.667C142.995,150.444,143.146,149.766,143.359,148.806z"/>
<path fill-rule="evenodd" clip-rule="evenodd" fill="#78eced" class="fill" d="M111.379,164.754c-0.637,0.373-1.242,0.726-1.928,1.126
	c-0.932-1.114-1.408-2.31-1.557-3.791c0.534-0.278,1.053-0.548,1.649-0.858C110.176,162.444,110.735,163.519,111.379,164.754z"/>
<path fill-rule="evenodd" clip-rule="evenodd" fill="#78eced" class="fill" d="M108.504,146.182c0.756,0.53,1.246,0.874,1.777,1.247
	c-0.226,1.33-0.438,2.586-0.684,4.025c-0.645-0.264-1.134-0.465-1.77-0.725C108.042,149.292,108.246,147.924,108.504,146.182z"/>
<path fill-rule="evenodd" clip-rule="evenodd" fill="#78eced" class="fill" d="M115.541,167.502c-0.562,0.538-0.99,0.948-1.59,1.52
	c-1.108-0.621-2.203-1.232-3.602-2.014c0.81-0.513,1.341-0.848,1.839-1.164C113.273,166.38,114.27,166.873,115.541,167.502z"/>
<path fill-rule="evenodd" clip-rule="evenodd" fill="#78eced" class="fill" d="M113.626,136.205c-1.028-0.87-1.778-1.504-2.614-2.212
	c0.222-0.767,0.434-1.497,0.727-2.51c0.919,0.693,1.68,1.266,2.531,1.909C114.074,134.25,113.893,135.044,113.626,136.205z"/>
<path fill-rule="evenodd" clip-rule="evenodd" fill="#78eced" class="fill" d="M130.541,169.921c-1.17,0.25-2.117,0.453-3.288,0.703
	c0.146-0.974,0.247-1.666,0.385-2.591c0.931-0.145,1.871-0.29,2.903-0.45C130.541,168.46,130.541,169.097,130.541,169.921z"/>
<path fill-rule="evenodd" clip-rule="evenodd" fill="#78eced" class="fill" d="M115.63,127.266c-1.011-0.86-1.748-1.486-2.569-2.186
	c0.26-0.712,0.499-1.363,0.795-2.173c0.814,0.474,1.472,0.856,2.242,1.305C115.955,125.144,115.819,126.034,115.63,127.266z"/>
<path fill-rule="evenodd" clip-rule="evenodd" fill="#78eced" class="fill" d="M132.154,169.416c0-1.016,0-1.597,0-2.319
	c1.11-0.547,2.244-1.106,3.483-1.717c0.22,0.26,0.451,0.534,0.837,0.988C135.094,167.341,133.801,168.253,132.154,169.416z"/>
<path fill-rule="evenodd" clip-rule="evenodd" fill="#78eced" class="fill" d="M110.723,135.458c0.917,0.89,1.583,1.536,2.295,2.225
	c-0.266,0.834-0.496,1.567-0.826,2.61c-0.795-0.663-1.414-1.179-2.16-1.803C110.235,137.598,110.438,136.7,110.723,135.458z"/>
<path fill-rule="evenodd" clip-rule="evenodd" fill="#78eced" class="fill" d="M136.93,163.851c0.825-0.886,1.585-1.7,2.473-2.654
	c0.449,0.532,0.825,0.977,1.227,1.451c-0.844,1.237-1.812,2.085-3.187,2.757C137.238,164.786,137.089,164.335,136.93,163.851z"/>
<path fill-rule="evenodd" clip-rule="evenodd" fill="#78eced" class="fill" d="M119.243,170.51c-1.292-0.339-2.396-0.629-3.854-1.012
	c0.679-0.647,1.094-1.043,1.587-1.513c1.09,0.165,2.175,0.329,3.483,0.526C120.019,169.236,119.683,169.787,119.243,170.51z"/>
<path fill-rule="evenodd" clip-rule="evenodd" fill="#78eced" class="fill" d="M107.4,157.045c0.674,0,1.256,0,1.973,0
	c0.072,1.001,0.139,1.92,0.213,2.958c-0.607,0.232-1.162,0.444-1.783,0.682C107.244,159.482,107.162,158.324,107.4,157.045z"/>
<path fill-rule="evenodd" clip-rule="evenodd" fill="#78eced" class="fill" d="M114.77,118.144c0.84,0.895,1.404,1.495,2.044,2.176
	c-0.154,0.663-0.315,1.356-0.532,2.288c-0.783-0.436-1.389-0.773-2.077-1.155C114.38,120.427,114.537,119.5,114.77,118.144z"/>
<path fill-rule="evenodd" clip-rule="evenodd" fill="#78eced" class="fill" d="M115.646,113.382c0.129-0.859,0.248-1.656,0.404-2.697
	c0.756,0.4,1.275,0.675,1.881,0.995c-0.08,0.881-0.154,1.693-0.256,2.805C116.886,114.056,116.33,113.754,115.646,113.382z"/>
<path fill-rule="evenodd" clip-rule="evenodd" fill="#78eced" class="fill" d="M140.118,159.983c0.359-0.793,0.653-1.441,1.056-2.328
	c0.613,0.461,1.148,0.864,1.818,1.368c-0.432,0.781-0.816,1.479-1.289,2.332C141.123,160.853,140.676,160.465,140.118,159.983z"/>
<path fill-rule="evenodd" clip-rule="evenodd" fill="#78eced" class="fill" d="M107.67,155.572c0-1.185,0-2.119,0-3.263
	c0.633,0.212,1.127,0.377,1.66,0.556c0,0.923,0,1.744,0,2.707C108.822,155.572,108.322,155.572,107.67,155.572z"/>
<path fill-rule="evenodd" clip-rule="evenodd" fill="#78eced" class="fill" d="M116.709,105.398c0.051-0.984,0.092-1.749,0.146-2.769
	c0.647,0.187,1.122,0.323,1.715,0.493c-0.076,1-0.139,1.854-0.221,2.931C117.69,105.79,117.264,105.619,116.709,105.398z"/>
<path fill-rule="evenodd" clip-rule="evenodd" fill="#78eced" class="fill" d="M116.933,101.1c0.056-0.832,0.104-1.535,0.158-2.318
	c0.53,0,0.947,0,1.56,0c0.051,0.936,0.096,1.785,0.155,2.915C118.016,101.444,117.521,101.288,116.933,101.1z"/>
<path fill-rule="evenodd" clip-rule="evenodd" fill="#78eced" class="fill" d="M146.75,148.46c-0.687-0.208-1.379-0.4-2.057-0.633
	c-0.364-0.125-0.703-0.32-1.136-0.522c0.148-0.401,0.273-0.743,0.417-1.131c1.411,0.205,2.475,0.708,3.062,1.891
	C146.941,148.196,146.846,148.329,146.75,148.46z"/>
<path fill-rule="evenodd" clip-rule="evenodd" fill="#78eced" class="fill" d="M164.684,130.022c-0.482,0.673-1.114,0.668-1.771,0.308
	c-0.666-0.364-0.707-0.932-0.469-1.542C164.11,128.19,164.452,128.385,164.684,130.022z"/>
<path fill-rule="evenodd" clip-rule="evenodd" fill="#78eced" class="fill" d="M114.973,116.521c0.127-0.601,0.218-1.017,0.37-1.732
	c0.713,0.509,1.261,0.901,1.792,1.281c0,0.644,0,1.185,0,1.811C116.059,117.906,115.843,116.865,114.973,116.521z"/>
<path fill-rule="evenodd" clip-rule="evenodd" fill="#78eced" class="fill" d="M118.206,107.818c-0.05,0.793-0.088,1.385-0.14,2.207
	c-0.689-0.323-1.166-0.547-1.697-0.795c0.051-0.708,0.094-1.309,0.156-2.21C117.167,107.324,117.621,107.541,118.206,107.818z"/>
<path fill-rule="evenodd" clip-rule="evenodd" fill="#78eced" class="fill" d="M118.447,97.383c-0.473-0.095-0.819-0.165-1.22-0.244
	c0-0.615,0-1.149,0-1.796c0.415-0.023,0.764-0.042,1.22-0.066C118.447,96.01,118.447,96.634,118.447,97.383z"/>
<path fill-rule="evenodd" clip-rule="evenodd" fill="#78eced" class="fill" d="M117.544,91.387c1.361,0.777,0.999,1.559,0.849,2.367
	c-0.302,0-0.511,0-0.849,0C117.544,93.053,117.544,92.387,117.544,91.387z"/>
<path fill-rule="evenodd" clip-rule="evenodd" fill="#78eced" class="fill" d="M130.875,129.189c0.402,0.338,0.806,0.677,1.201,1.01
	c-0.549,0.771-1.092,0.862-1.549,0.376c-0.215-0.229-0.141-0.73-0.198-1.108C130.512,129.375,130.694,129.282,130.875,129.189z"/>
<path fill-rule="evenodd" clip-rule="evenodd" fill="#78eced" class="fill" d="M146.188,139.442c0.686,1.249,0.681,1.278-0.568,1.841
	c0.073-0.713,0.131-1.282,0.188-1.851C145.935,139.435,146.061,139.438,146.188,139.442z"/>
<path fill-rule="evenodd" clip-rule="evenodd" fill="#78eced" class="fill" d="M118.529,90.482c-1.286-0.878-1.286-0.878-0.316-2.216
	C118.326,89.058,118.4,89.584,118.529,90.482z"/>
<path fill-rule="evenodd" clip-rule="evenodd" fill="#78eced" class="fill" d="M148.337,141.193c-0.777-0.696-0.886-1.236-0.199-1.868
	C148.688,140.059,148.688,140.059,148.337,141.193z"/>
<path fill-rule="evenodd" clip-rule="evenodd" fill="#78eced" class="fill" d="M144.162,139.598c0.396,0.858,0.396,0.858-0.228,1.646
	c-0.046-0.549-0.091-1.098-0.138-1.647C143.92,139.597,144.041,139.597,144.162,139.598z"/>
<path fill-rule="evenodd" clip-rule="evenodd" fill="#78eced" class="fill" d="M85.726,155.434c-0.094,2.408,1.393,4.878-0.22,7.237
	c-1.01-0.104-1.203-0.71-1.222-1.434C84.231,159.193,84.619,157.244,85.726,155.434z"/>
<path fill-rule="evenodd" clip-rule="evenodd" fill="#78eced" class="fill" d="M69.719,162.65c-0.096-2.503,0.477-4.648,1.754-6.667
	c0.483,0.865,0.579,3.434,0.155,4.652C71.342,161.462,71.11,162.375,69.719,162.65z"/>
<path fill-rule="evenodd" clip-rule="evenodd" fill="#78eced" class="fill" d="M46.277,147.913c0.172,2.183-0.133,3.963-1.213,5.547
	c-0.199,0.292-0.658,0.407-1.055,0.637C43.537,152.305,44.388,149.999,46.277,147.913z"/>
<path fill-rule="evenodd" clip-rule="evenodd" fill="#78eced" class="fill" d="M41.752,102.411c0.295,2.068-0.328,3.978-1.529,5.146
	c-0.154-0.214-0.458-0.457-0.418-0.606C40.209,105.458,40.981,104.138,41.752,102.411z"/>
<path fill-rule="evenodd" clip-rule="evenodd" fill="#78eced" class="fill" d="M91.363,137.992c0.79,2.242,1.582,4.083,0.563,6.115
	C90.509,143.18,90.286,141.174,91.363,137.992z"/>
<path fill-rule="evenodd" clip-rule="evenodd" fill="#78eced" class="fill" d="M31.896,137.893c-0.145-0.705-0.384-1.225-0.31-1.695
	c0.093-0.592,0.355-1.205,0.698-1.703c0.845-1.225,1.777-2.389,2.832-3.784C35.11,133.953,33.961,136.618,31.896,137.893z"/>
<path fill-rule="evenodd" clip-rule="evenodd" fill="#78eced" class="fill" d="M21.085,156.6c-1.002-1.501-0.077-4.04,2.399-6.907
	C23.918,151.314,22.634,155.102,21.085,156.6z"/>
<path fill-rule="evenodd" clip-rule="evenodd" fill="#78eced" class="fill" d="M85.209,136.559c-1.199-0.663-1.545-1.34-1.177-2.702
	c0.304-1.118,0.754-2.196,1.161-3.355C86.282,132.184,86.258,135.193,85.209,136.559z"/>
<path fill-rule="evenodd" clip-rule="evenodd" fill="#78eced" class="fill" d="M77.405,127.591c0.204,1.652-0.142,4.11-0.882,5.911
	c-0.47-0.244-0.922-0.479-1.584-0.823c0.73-1.827,1.404-3.513,2.08-5.198C77.146,127.518,77.275,127.555,77.405,127.591z"/>
<path fill-rule="evenodd" clip-rule="evenodd" fill="#78eced" class="fill" d="M83.297,121.184c-0.973,0.377-1.433-0.159-1.824-1.268
	c0.597-1.33,1.273-2.837,2-4.451C84.587,117.133,84.469,119.432,83.297,121.184z"/>
<path fill-rule="evenodd" clip-rule="evenodd" fill="#78eced" class="fill" d="M48.088,112.355c-0.38-0.056-0.691-0.103-1.213-0.181
	c0.598-2.017,1.287-3.824,2.644-5.333C49.491,108.741,49.344,110.592,48.088,112.355z"/>
<path fill-rule="evenodd" clip-rule="evenodd" fill="#78eced" class="fill" d="M57.121,160.124c-0.668-2.246-0.395-3.573,1.137-5.741
	C58.172,156.481,58.471,158.257,57.121,160.124z"/>
<path fill-rule="evenodd" clip-rule="evenodd" fill="#78eced" class="fill" d="M78.279,170.292c0.09,1.753,0.003,3.46-0.845,5.132
	C76.299,174.333,76.606,172.399,78.279,170.292z"/>
<path fill-rule="evenodd" clip-rule="evenodd" fill="#78eced" class="fill" d="M36.266,122.777c-0.058-2.421,1.152-4.086,2.641-5.614
	c0.126,0.04,0.252,0.08,0.378,0.12c-0.223,1.408-0.364,2.835-0.692,4.218C38.293,122.756,37.611,123.104,36.266,122.777z"/>
<path fill-rule="evenodd" clip-rule="evenodd" fill="#78eced" class="fill" d="M59.656,120.891c-0.255,2.091,0.083,4.45-2.33,6.177
	C57.016,124.348,58.866,122.829,59.656,120.891z"/>
<path fill-rule="evenodd" clip-rule="evenodd" fill="#78eced" class="fill" d="M79.192,143.6c0,2.083,0,3.767,0,5.484
	c-0.834,0.24-1.319-0.202-1.372-0.833C77.688,146.702,77.971,145.218,79.192,143.6z"/>
<path fill-rule="evenodd" clip-rule="evenodd" fill="#78eced" class="fill" d="M71.803,139.621c-0.06,1.91-0.019,3.769-0.986,5.462
	c-1.197-0.289-1.221-1.033-1.191-1.759C69.684,141.909,70.678,140.201,71.803,139.621z"/>
<path fill-rule="evenodd" clip-rule="evenodd" fill="#78eced" class="fill" d="M31.142,152.805c0.26-1.917,1.558-3.177,2.434-4.669
	c0.13,0.05,0.261,0.101,0.392,0.151c-0.405,1.371-0.76,2.759-1.241,4.102C32.529,152.934,32.009,153.247,31.142,152.805z"/>
<path fill-rule="evenodd" clip-rule="evenodd" fill="#78eced" class="fill" d="M67.159,130.975c-0.152-0.419-0.495-0.875-0.421-1.249
	c0.258-1.297,0.039-2.75,1.167-4.096c0.276,1.958,0.308,3.621-0.279,5.25C67.471,130.912,67.314,130.943,67.159,130.975z"/>
<path fill-rule="evenodd" clip-rule="evenodd" fill="#78eced" class="fill" d="M55.233,135.731c-0.133,1.264-0.235,2.533-0.408,3.791
	c-0.106,0.774-0.612,1.266-1.324,1.563c-0.681-0.442-0.69-1.011-0.561-1.649c0.303-1.473,0.748-2.862,1.945-3.848
	C55.002,135.636,55.118,135.684,55.233,135.731z"/>
<path fill-rule="evenodd" clip-rule="evenodd" fill="#78eced" class="fill" d="M90.253,124.022c-0.697-1.426-0.699-1.613-0.144-3.132
	C90.619,122.104,90.633,122.312,90.253,124.022z"/>
<path fill-rule="evenodd" clip-rule="evenodd" fill="#78eced" class="fill" d="M35.216,166.751c-0.964-1.624-0.481-3.343,1.426-5.301
	C36.408,163.406,36.674,165.156,35.216,166.751z"/>
<path fill-rule="evenodd" clip-rule="evenodd" fill="#78eced" class="fill" d="M48.943,121.812c-0.087,1.078-0.098,2.168-0.283,3.228
	c-0.171,0.972-0.518,1.116-1.814,0.989c-0.178-1.776,0.758-3.042,1.716-4.299C48.689,121.756,48.816,121.784,48.943,121.812z"/>
<path fill-rule="evenodd" clip-rule="evenodd" fill="#78eced" class="fill" d="M54.314,81.568c-0.125-1.673,0.577-3.055,1.602-4.325
	c0.118,0.04,0.236,0.079,0.355,0.118c-0.471,1.459-0.939,2.918-1.409,4.377C54.68,81.682,54.496,81.625,54.314,81.568z"/>
<path fill-rule="evenodd" clip-rule="evenodd" fill="#78eced" class="fill" d="M67.568,109.695c0.372,2.158-0.425,3.737-0.979,5.469
	C65.284,114.166,65.583,112.599,67.568,109.695z"/>
<path fill-rule="evenodd" clip-rule="evenodd" fill="#78eced" class="fill" d="M57.04,101.393c-0.377-1.621,0.037-3.038,1.023-4.311
	C58.327,98.657,58.287,100.162,57.04,101.393z"/>
<path fill-rule="evenodd" clip-rule="evenodd" fill="#78eced" class="fill" d="M61.142,143.279c-0.854-2.396,0.312-4.087,1.193-5.838
	C62.326,139.378,62.985,141.457,61.142,143.279z"/>
<path fill-rule="evenodd" clip-rule="evenodd" fill="#78eced" class="fill" d="M74.76,118.666c-1.1-1.363-0.976-3.129,0.252-4.979
	C75.568,115.393,75.645,116.942,74.76,118.666z"/>
<path fill-rule="evenodd" clip-rule="evenodd" fill="#78eced" class="fill" d="M87.996,80.237c0.453,1.58,0.761,2.792,0.544,4.167
	C87.244,83.517,87.17,83.026,87.996,80.237z"/>
<path fill-rule="evenodd" clip-rule="evenodd" fill="#78eced" class="fill" d="M51.006,74.986c-0.482-1.808,0.803-2.931,1.588-4.248
	C52.514,72.327,51.911,73.715,51.006,74.986z"/>
<path fill-rule="evenodd" clip-rule="evenodd" fill="#78eced" class="fill" d="M44.674,139.536c-0.441-0.238-0.754-0.407-1.06-0.573
	c-0.082-1.718,0.933-2.856,1.697-4.119C45.82,136.495,45.559,137.987,44.674,139.536z"/>
<path fill-rule="evenodd" clip-rule="evenodd" fill="#78eced" class="fill" d="M80.807,106.41c-0.466-1.444,0.062-2.614,0.511-3.913
	C81.854,103.849,81.701,105.027,80.807,106.41z"/>
<path fill-rule="evenodd" clip-rule="evenodd" fill="#78eced" class="fill" d="M62.894,79.162c-0.003,1.828-0.33,2.821-1.139,3.668
	C61.547,81.514,61.758,80.778,62.894,79.162z"/>
<path fill-rule="evenodd" clip-rule="evenodd" fill="#78eced" class="fill" d="M79.516,95.175c-0.09-0.572-0.268-1.027-0.213-1.453
	c0.223-1.723,0.728-2.679,1.67-3.386C81.57,92.404,81.169,93.923,79.516,95.175z"/>
<path fill-rule="evenodd" clip-rule="evenodd" fill="#78eced" class="fill" d="M50.104,165.187c-0.12,1.523-0.239,3.048-0.354,4.511
	c-1.022,0.417-1.112-0.208-1.145-0.779c-0.076-1.381,0.541-2.572,0.945-3.818C49.735,165.13,49.92,165.158,50.104,165.187z"/>
<path fill-rule="evenodd" clip-rule="evenodd" fill="#78eced" class="fill" d="M87.408,93.727c0.412,1.275,0.639,2.551-0.229,4.107
	C86.297,96.139,87.212,94.96,87.408,93.727z"/>
<path fill-rule="evenodd" clip-rule="evenodd" fill="#78eced" class="fill" d="M79.82,74.358c-0.77-1.4-0.263-2.352,0.248-3.31
	C80.216,72.035,80.608,73.024,79.82,74.358z"/>
<path fill-rule="evenodd" clip-rule="evenodd" fill="#78eced" class="fill" d="M88.127,108.852c-0.574-1.116-0.467-2.207,0.184-3.511
	C88.983,106.687,88.476,107.763,88.127,108.852z"/>
<path fill-rule="evenodd" clip-rule="evenodd" fill="#78eced" class="fill" d="M67.662,81.015c0.19-0.775,0.383-1.549,0.574-2.323
	c0.133,0.033,0.266,0.066,0.399,0.1c-0.167,0.779-0.335,1.557-0.502,2.336C67.977,81.089,67.82,81.052,67.662,81.015z"/>
<path fill-rule="evenodd" clip-rule="evenodd" fill="#78eced" class="fill" d="M71.54,63.134c-0.323-1.69-0.125-2.397,1.026-3.664
	C72.787,61.053,72.503,62.065,71.54,63.134z"/>
<path fill-rule="evenodd" clip-rule="evenodd" fill="#78eced" class="fill" d="M74.285,100.155c0.179,1.601,0.571,3.187-0.232,5.161
	c-0.434-0.655-0.826-0.975-0.83-1.299C73.207,102.656,73.271,101.283,74.285,100.155z"/>
<path fill-rule="evenodd" clip-rule="evenodd" fill="#78eced" class="fill" d="M88.452,70.142c0,0.943,0,1.886,0,3.063
	C87.617,72.161,87.615,72.125,88.452,70.142z"/>
<path fill-rule="evenodd" clip-rule="evenodd" fill="#78eced" class="fill" d="M65.585,88.26c-0.233,2.618-0.35,2.904-1.646,3.416
	c0.481-1.306,0.888-2.41,1.295-3.513C65.351,88.194,65.468,88.228,65.585,88.26z"/>
<path fill-rule="evenodd" clip-rule="evenodd" fill="#78eced" class="fill" d="M74.008,82.932c0.233-1.401,0.404-2.423,0.63-3.776
	C75.359,80.721,75.223,81.56,74.008,82.932z"/>
<path fill-rule="evenodd" clip-rule="evenodd" fill="#78eced" class="fill" d="M78.94,61.609c-0.1,0.773-0.199,1.547-0.299,2.32
	c-0.129-0.019-0.259-0.038-0.388-0.056c-0.387-0.848-0.07-1.588,0.335-2.314C78.706,61.575,78.824,61.592,78.94,61.609z"/>
<path fill-rule="evenodd" clip-rule="evenodd" fill="#78eced" class="fill" d="M64.902,102.03c-0.277-1.233,0.285-2.241,0.833-3.252
	c0.127,0.029,0.253,0.059,0.38,0.089c-0.232,1.091-0.464,2.184-0.695,3.275C65.248,102.105,65.074,102.067,64.902,102.03z"/>
<path fill-rule="evenodd" clip-rule="evenodd" fill="#78eced" class="fill" d="M81.265,82.863c0.032-0.55,0.065-1.101,0.118-1.981
	C81.922,81.98,81.922,81.98,81.265,82.863z"/>
<path fill-rule="evenodd" clip-rule="evenodd" fill="#78eced" class="fill" d="M58.642,111.589c-0.104,0.658-0.208,1.315-0.312,1.973
	c-0.752-0.769-0.483-1.404-0.079-2.022C58.38,111.556,58.511,111.573,58.642,111.589z"/>
<path fill-rule="evenodd" clip-rule="evenodd" fill="#78eced" class="fill" d="M65.049,72.188c-0.49-1.331,0.089-2.782,1.592-3.973
	C66.227,69.683,65.92,70.986,65.049,72.188z"/>
<path fill-rule="evenodd" clip-rule="evenodd" fill="#78eced" class="fill" d="M64.833,49.093c0.36,1.018-0.219,1.705-0.674,2.492
	C63.525,50.556,63.6,50.294,64.833,49.093z"/>
<path fill-rule="evenodd" clip-rule="evenodd" fill="#78eced" class="fill" d="M56.309,88.169c-0.265,0.785-0.53,1.571-0.797,2.356
	c-0.146-0.049-0.294-0.099-0.441-0.147c0.265-0.804,0.529-1.608,0.793-2.413C56.012,88.034,56.16,88.102,56.309,88.169z"/>
<path fill-rule="evenodd" clip-rule="evenodd" fill="#78eced" class="fill" d="M85.825,61.435c0.766,1.429,0.279,2.467-0.153,3.849
	C84.978,63.841,85.14,62.764,85.825,61.435z"/>
<path fill-rule="evenodd" clip-rule="evenodd" fill="#78eced" class="fill" d="M88.19,54.335c0.476,0.989,0.838,1.706,0.053,2.56
	C87.681,56.079,87.555,55.367,88.19,54.335z"/>
<path fill-rule="evenodd" clip-rule="evenodd" fill="#78eced" class="fill" d="M72.074,92.574c-0.937-1.236-0.254-2.183,0.231-3.144
	C72.632,90.448,72.78,91.454,72.074,92.574z"/>
<path fill-rule="evenodd" clip-rule="evenodd" fill="#78eced" class="fill" d="M70.282,54.509c0.301-0.626,0.602-1.252,1.057-2.2
	c0.417,1.333,0.077,1.971-0.578,2.485C70.601,54.699,70.442,54.604,70.282,54.509z"/>
<path fill-rule="evenodd" clip-rule="evenodd" fill="#78eced" class="fill" d="M59.119,67.36c0.374,1.758,0.023,2.886-1.13,3.642
	C57.5,69.981,57.861,68.819,59.119,67.36z"/>
<path fill-rule="evenodd" clip-rule="evenodd" fill="#78eced" class="fill" d="M64.792,59.21c0.177,0.927,0.433,1.872-0.577,2.674
	C63.628,60.734,64.103,59.946,64.792,59.21z"/>
<path fill-rule="evenodd" clip-rule="evenodd" fill="#78eced" class="fill" d="M77.248,52.437c0,0.685,0,1.369,0,2.245
	C76.52,53.782,76.52,53.782,77.248,52.437z"/>
<path fill-rule="evenodd" clip-rule="evenodd" fill="#78eced" class="fill" d="M83.081,56.677c-0.759-0.78-0.28-1.332-0.083-2.11
	C83.64,55.328,83.693,55.899,83.081,56.677z"/>
<path fill-rule="evenodd" clip-rule="evenodd" fill="#78eced" class="fill" d="M73.189,70.283c-0.133,0.509-0.266,1.019-0.399,1.529
	c-0.142-0.04-0.282-0.08-0.423-0.12c0.156-0.503,0.312-1.006,0.469-1.509C72.953,70.216,73.072,70.25,73.189,70.283z"/>
<path fill-rule="evenodd" clip-rule="evenodd" fill="#78eced" class="fill" d="M139.989,31.722c-0.438-0.321-0.707-0.517-0.972-0.711
	c0.133-0.195,0.18-0.346,0.256-0.362C139.887,30.515,140.243,30.673,139.989,31.722z"/>
</svg>
