<svg version="1.1" id="svg" xmlns="http://www.w3.org/2000/svg" xmlns:xlink="http://www.w3.org/1999/xlink" x="0px" y="0px"
	 width="200px" height="200px" viewBox="0 0 200 200" enable-background="new 0 0 200 200" xml:space="preserve">
<path class="stroke" fill="#672a19"  d="M106.267,104.679c-0.45-0.382-0.867-0.806-1.034-0.962c-0.312-1.604-0.461-2.863-0.809-4.064
	c-0.754-2.601-2.664-4.364-4.661-6.013c-2.397-1.979-5.255-3.174-7.991-4.576c-3.16-1.619-6.43-1.755-9.871-1.185
	c-3.023,0.502-5.824,1.603-8.801,2.746c-1.721-0.717-3.534-1.477-5.35-2.23c-3.442-1.428-6.718-3.279-10.38-4.156
	c-4.64-1.111-9.146-1.307-13.438,1.399c-2.645,1.666-4.6,3.671-4.617,6.953c-0.012,2.066,0.153,4.138,0.341,6.197
	c0.112,1.227,0.698,2.269,1.521,3.233c1.418,1.665,3.357,2.384,5.278,3.13c3.759,1.458,7.563,2.763,11.089,4.803
	c3.787,2.191,7.695,4.179,11.6,6.16c2.739,1.39,5.494,2.791,8.358,3.881c5.215,1.985,10.571,3.39,16.257,2.787
	c6.079-0.645,11.7-2.259,15.812-7.205c2.396-1.742,1.524-6.777-0.281-8.381C108.311,106.323,107.267,105.526,106.267,104.679z"/>
<path class="stroke" fill="#672a19"  d="M162.951,99.438c0.604-1.775,0.238-3.353-0.646-4.847c-0.36-0.607-0.721-1.224-1.153-1.78
	c-1.826-2.354-3.62-4.738-5.544-7.011c-1.17-1.382-2.548-2.591-3.848-3.862c-0.591-0.579-1.286-0.891-2.148-0.98
	c-3.421-0.355-6.832-0.737-10.257-0.019c-0.688,0.145-1.407,0.15-2.099,0.292c-1.412,0.292-2.66-0.01-3.891-0.757
	c-5.354-3.248-11.207-5.02-17.395-5.796c-2.773-0.349-5.552-0.468-8.268,0.226c-1.243,0.317-2.513,0.867-3.54,1.623
	c-1.528,1.123-3.021,2.367-3.862,4.121c-0.709,3.268-0.17,6.447,0.422,9.564c0.914,0.829,3.845,2.225,5.23,2.804
	c3.256,1.362,6.521,2.725,9.664,4.321c3.092,1.568,5.428,4.184,7.958,6.484c2.985,2.713,5.771,5.657,9.146,7.904
	c1.842,1.227,3.74,2.393,5.702,3.413c2.571,1.337,5.388,2.05,8.231,2.461c5.188,0.751,9.861-0.263,13.396-4.528
	c0.257-0.31,0.551-0.591,0.837-0.877c1.786-1.786,2.72-3.976,3.051-6.449C164.229,103.583,163.818,101.524,162.951,99.438z"/>
<path fill-rule="evenodd" clip-rule="evenodd" fill="#ffc524" class="fill" d="M42.226,96.812c1.998,1.12,3.745,2.099,5.493,3.077
	c3.257,1.822,6.518,3.639,9.772,5.465c1.806,1.014,3.616,2.02,5.399,3.07c5.271,3.106,10.627,6.046,16.322,8.309
	c4.523,1.798,9.158,2.559,14.074,1.913c3.723-0.49,7.371-1.141,10.917-2.363c0.179-0.061,0.375-0.068,0.671,0.082
	c-0.529,0.436-1.023,0.925-1.596,1.296c-2.396,1.56-4.987,2.557-7.847,2.988c-5.313,0.802-10.444,0.163-15.532-1.443
	c-3.11-0.982-5.932-2.553-8.833-3.962c-3.407-1.653-6.776-3.383-10.144-5.115c-4.668-2.402-9.318-4.841-13.979-7.259
	c-0.762-0.396-1.507-0.858-2.314-1.127c-1.638-0.544-2.232-1.771-2.4-3.328C42.189,98.02,42.226,97.616,42.226,96.812z"/>
<path fill-rule="evenodd" clip-rule="evenodd" fill="#ffc524" class="fill" d="M66.754,92.815c-1.447-0.573-2.895-1.144-4.34-1.72
	c-1.125-0.449-2.242-0.919-3.375-1.35c-0.35-0.133-0.788-0.358-1.03,0.345c3.187,1.439,6.378,2.881,9.69,4.378
	c-0.292,0.31-0.514,0.542-0.752,0.795c-4.84-1.992-9.319-4.629-14.161-6.448c-0.083,0.08-0.166,0.16-0.25,0.24
	c0.136,0.241,0.213,0.595,0.419,0.703c0.848,0.445,1.738,0.81,2.607,1.215c3.063,1.428,6.129,2.853,9.182,4.302
	c0.39,0.185,0.715,0.507,1.156,0.828c-0.343,0.389-0.593,0.674-0.938,1.066c-5.403-2.642-10.77-5.265-16.166-7.903
	c-0.356,0.683-0.115,0.974,0.276,1.165c1.587,0.775,3.187,1.523,4.771,2.301c3.391,1.663,6.774,3.34,10.333,5.096
	c-0.394,0.428-0.64,0.696-0.927,1.008c-5.528-2.688-10.995-5.345-16.523-8.032c-0.394,0.869,0.062,1.106,0.52,1.318
	c1.604,0.741,3.231,1.43,4.814,2.214c3.384,1.677,6.744,3.401,10.25,5.174c-0.368,0.429-0.645,0.749-1.024,1.189
	c-1.79-0.908-3.544-1.766-5.269-2.681c-1.739-0.924-3.445-1.91-5.173-2.86c-1.671-0.919-3.159-2.219-5.19-2.708
	c0.012,1.019,0.712,1.162,1.193,1.429c4.283,2.379,8.582,4.728,12.874,7.089c0.126,0.069,0.226,0.187,0.447,0.375
	c-0.229,0.205-0.427,0.381-0.689,0.616c-1.132-0.605-2.239-1.194-3.343-1.789c-2.889-1.556-5.796-3.082-8.654-4.693
	c-0.869-0.49-1.65-1.17-2.382-1.86c-0.449-0.424-0.724-1.031-1.046-1.509c0.766-1.457,1.693-2.563,2.88-3.314
	c0.81-0.513,1.884-0.857,2.839-0.858c4.42-0.002,8.765,0.537,12.798,2.531c1.439,0.712,2.845,1.497,4.265,2.248L66.754,92.815z"/>
<path fill-rule="evenodd" clip-rule="evenodd" fill="#ffc524" class="fill" d="M72.422,112.256c-1.127-0.627-2.166-1.206-3.214-1.789
	c-0.422-3.684,0.855-6.536,3.597-8.89c3.203-2.75,7.106-4.192,10.775-6.086c2.383-1.23,4.763-2.418,7.414-2.982
	c1.38-0.293,1.813-0.215,2.984,0.972c-0.338,0.154-0.629,0.357-0.947,0.419c-2.658,0.52-5.109,1.643-7.473,2.862
	c-3.955,2.039-7.718,4.397-10.601,7.915c-1.508,1.84-2.138,3.969-2.273,6.291c-0.015,0.251-0.028,0.504-0.059,0.754
	C72.614,111.82,72.557,111.91,72.422,112.256z"/>
<path fill-rule="evenodd" clip-rule="evenodd" fill="#ffc524" class="fill" d="M76.173,114.058c-0.859-0.398-1.573-0.728-2.311-1.068
	c-0.324-3.896,0.868-7.185,3.779-9.648c2.419-2.046,5.016-3.912,7.91-5.275c3.424-1.613,6.931-3.001,10.755-3.758
	c0.728,0.439,1.488,0.897,2.494,1.504c-0.508,0.231-0.74,0.36-0.988,0.448c-3.559,1.27-7.141,2.478-10.674,3.816
	c-2.824,1.069-5.274,2.778-7.286,5.029c-1.82,2.04-2.808,4.52-3.348,7.183C76.396,112.821,76.305,113.356,76.173,114.058z"/>
<path fill-rule="evenodd" clip-rule="evenodd" fill="#ffc524" class="fill" d="M91.518,109.45c0.744-0.438,1.201-0.707,1.75-1.031
	c1.192,0.516,2.357,1.132,3.596,1.523c1.132,0.357,2.092,1.312,3.354,1.235c0.067-0.108,0.133-0.216,0.198-0.324
	c-0.264-0.243-0.489-0.569-0.8-0.714c-1.372-0.638-2.77-1.22-4.153-1.834c-0.359-0.159-0.702-0.358-1.211-0.622
	c0.426-0.48,0.774-0.873,1.199-1.354c2.714,1.257,5.389,2.497,8.13,3.768c0.542-0.786,0.04-1.099-0.538-1.355
	c-1.337-0.594-2.689-1.152-4.019-1.76c-0.892-0.408-1.756-0.878-2.584-1.295c0.144-0.855,0.569-0.882,1.053-0.756
	c2.813,0.731,5.445,1.858,7.735,3.679c0.365,0.289,0.592,0.75,0.856,1.096c-0.569,1.375-1.608,1.966-2.753,2.411
	c-0.421,0.164-0.869,0.296-1.316,0.34c-3.678,0.359-7.235,1.323-10.835,2.086c-1.679,0.355-3.38,0.535-5.139,0.347
	c-0.089-0.374-0.167-0.703-0.236-0.994c-0.554-0.301-1.075-0.585-1.597-0.869c0.011-0.1,0.02-0.2,0.029-0.3
	c0.285-0.03,0.607-0.161,0.848-0.072c0.802,0.299,1.565,0.699,2.361,1.016c0.429,0.171,0.893,0.251,1.652,0.456
	c-0.553-1.599-2.139-1.157-2.727-2.167c0.692-0.552,1.404-0.641,2.211-0.229c0.762,0.389,1.54,0.754,2.332,1.08
	c0.229,0.094,0.529,0.014,0.868,0.014c-0.065-0.859-0.715-0.895-1.167-1.131c-0.429-0.225-0.877-0.417-1.52-0.718
	c0.545-0.39,0.89-0.637,1.254-0.897c1.904,0.803,3.748,1.581,5.668,2.392c0.127-0.371,0.199-0.584,0.28-0.818
	C94.74,110.936,93.258,110.251,91.518,109.45z"/>
<path fill-rule="evenodd" clip-rule="evenodd" fill="#ffc524" class="fill" d="M85.847,90.048c-0.937,0.324-1.86,0.692-2.812,0.963
	c-5.396,1.537-10.114,4.267-14.177,8.115c-0.874,0.828-1.652,1.781-2.344,2.769c-0.936,1.337-1.57,2.815-1.566,4.509
	c0.001,0.473-0.147,0.948-0.257,1.608c-2.15-1.24-4.102-2.365-6.252-3.605c0.428-0.231,0.615-0.396,0.826-0.437
	c1.994-0.382,3.529-1.481,4.629-3.127c1.603-2.4,3.684-4.301,6.057-5.859c3.859-2.535,7.968-4.557,12.534-5.517
	c1.157-0.243,2.238-0.096,3.311,0.229C85.812,89.814,85.83,89.931,85.847,90.048z"/>
<path fill-rule="evenodd" clip-rule="evenodd" fill="#ffc524" class="fill" d="M67.817,109.766c-0.757-0.417-1.278-0.705-1.9-1.049
	c-0.11-2.354,0.198-4.603,1.709-6.537c2.333-2.987,5.263-5.267,8.547-7.122c3.503-1.978,7.322-3.09,11.171-4.125
	c0.877-0.236,1.765-0.483,2.517,0.306c-0.046,0.114-0.062,0.251-0.116,0.27c-5.227,1.792-10.047,4.447-14.816,7.165
	c-1.908,1.087-3.677,2.477-4.98,4.353c-1.119,1.61-1.871,3.316-1.928,5.299C68.009,108.714,67.914,109.099,67.817,109.766z"/>
<path fill-rule="evenodd" clip-rule="evenodd" fill="#ffc524" class="fill" d="M57.824,102.343c-1.102,0.596-1.99,0.397-2.93-0.176
	c-3.615-2.209-7.266-4.363-10.893-6.554c-0.902-0.545-1.768-1.154-2.637-1.724c-0.308-2.194,0.4-4.068,1.658-5.696
	c0.521-0.676,1.371-1.21,2.183-1.533c3.625-1.439,7.347-1.7,11.122-0.602c2.764,0.804,5.494,1.671,8.025,3.104
	c1.4,0.793,2.91,1.393,4.373,2.077c0.629,0.294,1.262,0.579,1.942,0.891c-0.245,0.584-0.527,0.745-0.983,0.534
	c-0.914-0.425-1.822-0.862-2.74-1.279c-2.156-0.982-4.254-2.137-6.488-2.887c-2.771-0.93-5.666-1.451-8.615-1.485
	c-1.449-0.017-2.874-0.229-4.333,0.306c-1.804,0.661-2.803,2.11-3.878,3.477c-0.609,0.777-0.157,2.539,0.627,3.332
	c1.616,1.634,3.558,2.811,5.564,3.88c2.404,1.282,4.83,2.522,7.239,3.79C57.312,101.928,57.527,102.128,57.824,102.343z"/>
<path fill-rule="evenodd" clip-rule="evenodd" fill="#ffc524" class="fill" d="M97.614,103.749c0.318-0.334,0.479-0.504,0.793-0.834
	c2.671,1.251,5.37,2.482,8.037,3.779c1.618,0.787,2.276,2.334,2.889,3.835c-0.255,1.103-0.896,1.796-1.812,2.198
	c-1.197,0.526-2.424,0.995-3.651,1.451c-1.04,0.384-2.085,0.767-3.154,1.056c-1.405,0.379-2.825,0.738-4.261,0.976
	c-2.336,0.386-4.688,0.685-7.036,0.987c-2.229,0.287-4.415,0.237-6.525-0.73c-0.906-0.415-1.916-0.604-2.978-0.926
	c-0.058-0.353-0.119-0.725-0.208-1.275c0.459,0.037,0.807-0.013,1.087,0.102c0.833,0.343,1.61,0.846,2.462,1.113
	c2.263,0.708,4.586,0.662,6.894,0.263c1.738-0.299,3.451-0.738,5.184-1.073c2.226-0.431,4.448-0.9,6.693-1.201
	c2.05-0.274,3.609-1.189,4.716-2.93c0.428-1.381-0.212-2.308-1.327-3.045c-1.982-1.31-3.986-2.571-6.321-3.185
	C98.663,104.195,98.254,103.995,97.614,103.749z"/>
<path fill-rule="evenodd" clip-rule="evenodd" fill="#ffc524" class="fill" d="M78.393,114.836c-0.377-0.121-0.641-0.207-1.022-0.33
	c0.505-3.967,1.752-7.476,4.878-10.134c2.478-2.107,5.401-3.336,8.41-4.395c2.57-0.903,5.173-1.715,7.769-2.54
	c0.521-0.166,1.083-0.207,1.719-0.323c0.725,0.677,1.44,1.346,2.245,2.099c-0.313,0.17-0.431,0.29-0.553,0.292
	c-4.094,0.104-7.938,1.351-11.798,2.547c-3.794,1.175-6.868,3.322-9.29,6.472c-1.301,1.691-2.205,3.487-2.187,5.667
	C78.565,114.335,78.49,114.478,78.393,114.836z"/>
<path fill-rule="evenodd" clip-rule="evenodd" fill="#ffc524" class="fill" d="M81.697,113.635c1.508-0.646,2.061,0.329,3.051,0.922
	C83.517,114.696,82.743,114.316,81.697,113.635z"/>
<path fill-rule="evenodd" clip-rule="evenodd" fill="#ffc524" class="fill" d="M66.836,92.716c0.322,0.121,0.645,0.242,0.967,0.363
	c-0.053,0.099-0.104,0.199-0.157,0.298c-0.298-0.188-0.595-0.375-0.892-0.562L66.836,92.716z"/>
<path fill-rule="evenodd" clip-rule="evenodd" fill="#ffc524" class="fill" d="M159.019,111.002c-0.651,2.179-2.115,3.232-3.854,3.899
	c-5.001,1.92-9.896,1.594-14.635-0.898c-1.562-0.822-3.113-1.669-4.641-2.553c-2.734-1.581-4.939-3.8-7.248-5.922
	c-2.559-2.353-5.393-4.404-8.049-6.656c-3.756-3.186-8.269-4.981-12.638-7.053c-2.305-1.092-4.097-2.667-4.821-5.467
	c0.315,0.091,0.488,0.108,0.627,0.185c6.579,3.64,13.155,7.283,19.731,10.929c2.634,1.461,4.784,3.528,6.955,5.569
	c2.494,2.344,4.685,5.003,7.561,6.955c2.329,1.58,4.894,2.394,7.612,2.734c1.795,0.225,3.629,0.185,5.445,0.201
	c2.367,0.021,4.549-0.829,6.757-1.543C158.145,111.279,158.472,111.177,159.019,111.002z"/>
<path fill-rule="evenodd" clip-rule="evenodd" fill="#ffc524" class="fill" d="M130.57,84.871c-0.383,0.404-0.639,0.675-0.934,0.986
	c-3.502-1.801-6.926-3.564-10.584-5.446c0.514,1.167,0.523,1.148,2.953,2.414c1.162,0.605,2.28,1.298,3.418,1.949
	c1.067,0.609,2.301,0.938,3.293,1.783c-0.524,0.713-1.016,0.399-1.438,0.206c-1.605-0.736-3.232-1.434-4.778-2.281
	c-2.257-1.236-4.436-2.612-6.677-3.876c-0.514-0.289-1.041-0.857-1.864-0.386c0.533,1.041,1.672,1.078,2.445,1.631
	c0.859,0.615,1.786,1.143,2.709,1.661c0.881,0.494,1.807,0.905,2.691,1.391c0.928,0.511,1.832,1.061,2.739,1.607
	c0.832,0.501,1.929,0.592,2.629,1.768c-0.483-0.046-0.829,0.014-1.069-0.117c-2.877-1.567-5.731-3.175-8.604-4.748
	c-2.239-1.226-4.497-2.418-6.804-3.654c-0.32,0.768,0.121,1.012,0.489,1.221c2.589,1.467,5.188,2.916,7.787,4.366
	c1.934,1.079,3.873,2.148,5.803,3.231c0.3,0.168,0.567,0.391,0.78,0.719c-3.004-1.194-5.834-2.732-8.683-4.236
	c-2.872-1.517-5.774-2.978-8.663-4.463c-0.08,0.08-0.16,0.158-0.24,0.237c0.152,0.235,0.249,0.575,0.465,0.689
	c4.408,2.337,8.835,4.642,13.247,6.971c0.831,0.439,1.621,0.958,2.521,1.494c-0.585,0.611-1.033,0.428-1.54,0.119
	c-1.465-0.894-2.914-1.825-4.434-2.62c-2.458-1.285-4.968-2.469-7.45-3.709c-0.449-0.225-0.851-0.547-1.303-0.765
	c-0.463-0.222-0.96-0.37-1.443-0.551c-0.074,0.124-0.149,0.248-0.225,0.372c0.398,0.318,0.76,0.71,1.204,0.941
	c2.011,1.043,4.03,2.076,6.077,3.044c2.317,1.096,4.473,2.438,6.643,3.9c-0.212,0.191-0.312,0.322-0.348,0.307
	c-2.468-1.127-4.971-2.188-7.384-3.424c-2.372-1.215-4.882-2.238-6.829-4.158c-0.428-0.422-0.89-0.837-1.211-1.335
	c-0.597-0.926-0.434-1.652,0.557-2.134c2.31-1.123,4.746-1.707,7.338-1.378c3.799,0.48,7.368,1.625,10.734,3.488
	c1.627,0.901,3.4,1.54,5.104,2.304C129.919,84.489,130.13,84.626,130.57,84.871z"/>
<path fill-rule="evenodd" clip-rule="evenodd" fill="#ffc524" class="fill" d="M156.388,89.216c-1.271,0.191-2.247,0.333-3.222,0.485
	c-4.964,0.776-9.776,2.042-14.265,4.37c-1.163,0.603-2.354,1.155-3.508,1.772c-1.894,1.012-3.538,2.33-4.874,4.265
	c-0.84-0.672-1.605-1.285-2.431-1.946c0.553-1.162,1.288-2.076,2.282-2.793c0.695-0.502,1.444-0.958,2.045-1.558
	c1.465-1.463,3.252-2.38,5.112-3.175c2.087-0.892,4.187-1.754,6.308-2.564c0.696-0.266,1.47-0.446,2.212-0.46
	c2.925-0.052,5.851-0.021,9.024-0.021C155.368,87.957,155.786,88.473,156.388,89.216z"/>
<path fill-rule="evenodd" clip-rule="evenodd" fill="#ffc524" class="fill" d="M139.969,104.55c1.355-0.298,2.152,0.517,2.998,1.158
	c1.125,0.854,2.182,1.799,3.294,2.671c0.267,0.209,0.638,0.284,1.079,0.241c-1.502-1.885-3.447-3.25-5.187-4.835
	c0.479-0.612,0.815-0.304,1.202-0.021c2.082,1.52,4.174,3.024,6.267,4.528c0.425,0.305,0.805,0.801,1.656,0.361
	c-1.962-2.248-4.642-3.453-6.693-5.419c0.708-0.571,1.344-0.373,1.968,0.067c1.237,0.874,2.478,1.743,3.71,2.623
	c0.78,0.558,1.55,1.133,2.327,1.697c0.41,0.296,0.812,0.455,1.186-0.243c-1.967-1.478-3.952-2.969-6.06-4.553
	c1.001-0.529,1.664-0.148,2.263,0.281c1.024,0.736,2.006,1.532,3.002,2.307c0.977,0.763,1.908,1.601,3.113,2.093
	c0.455-0.777-0.047-1.025-0.433-1.316c-1.171-0.88-2.347-1.752-3.513-2.639c-0.357-0.272-0.686-0.579-1.079-0.911
	c0.649-0.728,1.141-0.23,1.597,0.085c1.538,1.062,3.051,2.159,4.59,3.22c0.276,0.191,0.63,0.275,1.019,0.282
	c-0.286-1.134-1.222-1.559-1.998-2.133c-0.767-0.566-1.548-1.112-2.253-1.795c2.167-0.447,3.187,1.627,4.906,2.247
	c0.089-0.06,0.228-0.125,0.323-0.229c0.058-0.062,0.047-0.188,0.098-0.439c-0.809-0.612-1.673-1.269-2.691-2.041
	c0.456-0.239,0.735-0.386,1.011-0.53c1.153,0.676,1.814,1.681,2.267,2.82c0.473,1.188,0.302,1.888-0.731,2.661
	c-1.553,1.159-3.28,2.023-5.197,2.368c-4.668,0.842-9.157,0.365-13.344-2.028c-0.781-0.446-1.621-0.824-2.136-1.845
	c1.771,0.107,2.601,2.101,4.276,2.023c0.068-0.109,0.136-0.218,0.205-0.327C141.995,106.167,140.982,105.358,139.969,104.55z"/>
<path fill-rule="evenodd" clip-rule="evenodd" fill="#ffc524" class="fill" d="M124.462,95.794c-1.556-0.944-2.948-1.789-4.57-2.772
	c0.477-0.179,0.644-0.271,0.818-0.303c4.374-0.815,8.082-2.871,11.022-6.179c2.305-2.594,5.345-3.502,8.54-4.167
	c3.015-0.626,6.038-0.289,9.056-0.002c0.873,0.083,1.428,0.631,2.235,1.504c-1.188,0.056-2.06,0.098-2.93,0.138
	c-1.862,0.086-3.739,0.066-5.586,0.293c-1.336,0.165-2.65,0.6-3.943,1.013c-3.993,1.276-7.56,3.348-10.811,5.972
	c-0.583,0.47-1.094,1.043-1.575,1.621C125.977,93.799,125.289,94.732,124.462,95.794z"/>
<path fill-rule="evenodd" clip-rule="evenodd" fill="#ffc524" class="fill" d="M159.823,93.428c0.49,0.811,1.004,1.659,1.683,2.782
	c-0.727,0.073-1.186,0.152-1.645,0.16c-2.617,0.045-5.268-0.179-7.844,0.16c-5.296,0.696-10.383,2.123-14.582,5.709
	c-0.761,0.649-1.506,1.317-2.371,2.077c-0.246-0.222-0.643-0.58-1.081-0.976c0.546-1.293,1.337-2.313,2.399-3.095
	c1.621-1.193,3.265-2.342,5.212-3c1.765-0.596,3.524-1.239,5.208-2.028c2.765-1.297,5.704-1.618,8.68-1.775
	C156.84,93.369,158.203,93.428,159.823,93.428z"/>
<path fill-rule="evenodd" clip-rule="evenodd" fill="#ffc524" class="fill" d="M132.438,83.358c-0.393,0.323-0.581,0.478-0.908,0.747
	c-2.566-1.169-5.208-2.279-7.766-3.558c-4.189-2.093-8.539-3.447-13.262-2.9c-1.469,0.17-2.953,0.709-4.296,1.357
	c-1.731,0.834-2.107,2.636-0.746,4.022c1.359,1.387,2.939,2.639,4.62,3.61c2.483,1.438,5.141,2.576,7.725,3.842
	c0.312,0.153,0.619,0.317,1.095,0.562c-0.991,0.582-1.843,0.188-2.668,0.062c-0.284-0.043-0.554-0.239-0.814-0.391
	c-3.314-1.932-6.644-3.845-9.934-5.816c-1.261-0.755-2.362-1.729-3.184-3.007c0.039-1.041,0.622-1.832,1.314-2.474
	c2.807-2.596,6.093-3.875,9.967-3.458c3.464,0.373,6.675,1.547,9.79,3.036c2.553,1.219,5.104,2.436,7.654,3.655
	C131.427,82.838,131.818,83.045,132.438,83.358z"/>
<path fill-rule="evenodd" clip-rule="evenodd" fill="#ffc524" class="fill" d="M153.632,86.042c-1.855,0.068-3.388,0.123-4.918,0.18
	c-1.01,0.037-2.06-0.088-3.018,0.152c-1.649,0.415-3.249,1.036-4.854,1.614c-0.854,0.307-1.667,0.722-2.51,1.056
	c-2.507,0.991-4.829,2.253-6.877,4.056c-1.542,1.357-3.348,2.42-4.399,4.426c-0.595-0.428-1.023-0.737-1.491-1.074
	c1.549-2.435,3.377-4.331,5.654-5.952c3.371-2.398,7.12-3.807,11.026-4.818c1.77-0.458,3.7-0.313,5.56-0.396
	c1.156-0.052,2.314-0.046,3.472-0.01C151.997,85.298,152.751,85.317,153.632,86.042z"/>
<path fill-rule="evenodd" clip-rule="evenodd" fill="#ffc524" class="fill" d="M132.962,102.256c-0.526-0.465-1-0.882-1.612-1.422
	c0.723-0.794,1.312-1.541,2.001-2.178c1.38-1.276,2.969-2.247,4.71-2.962c2.236-0.919,4.438-1.941,6.717-2.741
	c2.95-1.037,5.992-1.757,9.123-2.043c1.194-0.109,2.385-0.271,3.588-0.411c0.34,0.461,0.597,0.812,0.978,1.329
	c-0.722,0.117-1.255,0.238-1.794,0.284c-1.758,0.147-3.52,0.245-5.274,0.411c-0.696,0.065-1.419,0.163-2.067,0.413
	c-3.338,1.288-6.742,2.455-9.952,4.015c-2.234,1.086-4.436,2.44-5.844,4.67C133.406,101.82,133.213,101.979,132.962,102.256z"/>
<path fill-rule="evenodd" clip-rule="evenodd" fill="#ffc524" class="fill" d="M137.388,106.25c0.21,0.045,0.374,0.03,0.459,0.104
	c2.587,2.282,5.726,3.369,9.015,4.032c1.212,0.245,2.504,0.14,3.758,0.117c2.44-0.046,4.844-0.316,7.026-1.545
	c0.658-0.371,1.311-0.757,1.941-1.173c1.585-1.046,1.976-2.429,1.058-4.5c-0.179-0.406-0.4-0.794-0.708-1.4
	c1.464,0.53,1.985,1.688,2.72,2.617c0.381,1.657-0.445,2.77-1.672,3.607c-4.237,2.894-8.899,3.873-13.967,3.032
	c-2.05-0.34-4.061-0.746-5.954-1.649c-1.4-0.668-2.517-1.67-3.564-2.773C137.422,106.637,137.436,106.467,137.388,106.25z"/>
</svg>
