<svg version="1.1" id="svg" xmlns="http://www.w3.org/2000/svg" xmlns:xlink="http://www.w3.org/1999/xlink" x="0px" y="0px"
	 width="200px" height="200px" viewBox="0 0 200 200" enable-background="new 0 0 200 200" xml:space="preserve">
<path class="stroke" fill="#1a1a37"  fill-rule="evenodd" clip-rule="evenodd" d="M125.349,41.422c1.315,0.399,2.546,0.708,3.729,1.15
	c1.038,0.388,2.073,0.838,3.016,1.412c2.4,1.456,4.388,3.379,5.968,5.702c0.933,1.372,1.12,2.985,1.254,4.576
	c0.099,1.153,0.02,2.321,0.02,3.602c0.416-0.126,0.88-0.211,1.298-0.401c3.206-1.45,6.597-2.113,10.068-1.824
	c2.309,0.192,4.577,0.893,6.855,1.4c1.262,0.282,2.513,0.619,3.758,0.966c0.484,0.136,0.995,0.296,1.401,0.577
	c2.521,1.746,5.104,3.46,6.426,6.388c0.347,0.769,0.497,1.659,0.582,2.508c0.245,2.452-0.07,4.817-1.345,6.988
	c-0.084,0.144-0.124,0.315-0.16,0.409c0.742,0.268,1.485,0.435,2.124,0.789c0.994,0.552,1.391,1.58,1.726,2.604
	c0.918,2.816,1.072,5.7,0.041,8.465c-0.516,1.383-1.542,2.628-2.529,3.77c-1.417,1.639-3.011,3.122-5.357,3.424
	c-0.104,0.563-0.216,1.056-0.285,1.555c-0.337,2.437-0.659,4.876-0.992,7.313c-0.37,2.714-0.732,5.428-1.13,8.137
	c-0.067,0.458-0.301,0.89-0.691,1.435c-0.174-0.268-0.348-0.536-0.523-0.806c-0.055,0.004-0.109,0.007-0.165,0.009
	c0.729-5.711,1.458-11.424,2.199-17.224c-1.241,0.071-2.521,0.145-3.688,0.212c-1.116,7.317-2.226,14.597-3.336,21.875
	c-0.53,0.554-1.015,0.495-1.471-0.059c0.346-2.276,0.681-4.534,1.034-6.788c0.318-2.036,0.667-4.066,0.979-6.102
	c0.048-0.318,0.044-0.682-0.063-0.978c-0.641-1.746-0.143-3.329,0.543-4.939c0.408-0.958,0.61-2.004,0.926-3.078
	c-0.915-0.255-1.631-0.456-2.298-0.643c0.085,1.028,0.236,1.977,0.228,2.926c-0.015,1.899-0.866,3.459-2.11,4.853
	c-0.708,0.794-1.337,1.657-2.018,2.51c0.101,0.174,0.212,0.368,0.256,0.444c-1.031,6.177-2.042,12.238-3.116,18.669
	c-0.309,0.35-0.53,0.35-1.328-0.562c0.971-5.703,1.974-11.594,2.991-17.571c-1.573,0.682-3.028,1.313-4.694,2.035
	c-0.815,4.287-1.672,8.79-2.54,13.355c-0.771-0.284-1.053-0.79-0.96-1.449c0.236-1.687,0.495-3.371,0.799-5.046
	c0.407-2.247,0.867-4.484,1.323-6.824c-1.401,0-2.736,0-4.281,0c-1.305,7.9-2.621,15.875-3.958,23.962
	c-0.105,0.07-0.312,0.206-0.495,0.326c-0.95-0.296-1.035-0.479-0.837-1.546c0.556-3,1.144-5.993,1.642-9.003
	c0.538-3.258,0.973-6.532,1.486-9.795c0.178-1.128,0.457-2.239,0.687-3.359c0.06-0.292,0.111-0.585,0.171-0.91
	c-1.193-0.302-2.315-0.585-3.612-0.914c-0.322,1.555-0.674,3.1-0.958,4.658c-0.283,1.547-0.5,3.104-0.757,4.729
	c-0.154,0.109-0.352,0.251-0.528,0.377c-0.721-0.166-0.936-0.557-0.798-1.247c0.553-2.765,1.073-5.536,1.606-8.305
	c0.057-0.295,0.111-0.591,0.145-0.776c-1.347-0.885-2.619-1.721-3.967-2.607c-1.174,4.044-1.603,8.301-3.142,12.26
	c-0.74-0.136-0.853-0.52-0.757-0.991c0.291-1.443,0.582-2.887,0.91-4.322c0.626-2.743,1.279-5.479,1.884-8.065
	c-1.334,1.062-2.77,2.206-4.638,3.694c-1.161,4.894-2.398,10.308-3.736,15.696c-1.339,5.395-3.206,10.661-3.999,16.352
	c-0.106,0.073-0.332,0.228-0.596,0.41c-0.689-0.175-0.941-0.654-0.762-1.409c0.562-2.371,1.068-4.756,1.682-7.113
	c0.936-3.588,2-7.145,2.908-10.74c1.046-4.139,1.983-8.304,2.965-12.459c0.028-0.117,0.029-0.24,0.055-0.466
	c-1.648,0.296-3.232,0.58-4.927,0.885c-0.466,1.866-0.954,3.752-1.406,5.646c-0.541,2.267-1.066,4.537-1.572,6.812
	c-0.313,1.409-0.498,2.85-0.882,4.237c-0.574,2.077-1.284,4.117-1.912,6.181c-0.215,0.703-0.347,1.431-0.543,2.141
	c-0.088,0.318-0.242,0.618-0.401,1.016c-0.378-0.212-0.633-0.354-1.051-0.589c1.567-5.296,3.189-10.584,4.123-16.219
	c-2.973,5.119-5.852,10.079-8.754,15.079c0.138,0.119,0.302,0.262,0.438,0.38c-1.529,5.949-3.046,11.851-4.551,17.709
	c-0.312,0.194-0.564,0.354-0.889,0.556c-0.192-0.134-0.405-0.282-0.517-0.361c1.405-5.35,2.782-10.59,4.158-15.83
	c-0.106-0.049-0.211-0.099-0.317-0.148c-3.7,6.094-7.401,12.188-11.17,18.394c1.253,0.533,2.36,1.013,3.474,1.474
	c1.087,0.449,2.183,0.877,3.229,1.296c0,0.453,0,0.674,0,1.118c-1.589,0.742-3.236,1.512-4.885,2.279
	c-1.86,0.865-3.692,1.806-5.594,2.57c-2.086,0.837-4.233,1.526-6.364,2.247c-0.741,0.25-1.271-0.11-1.459-0.831
	c-0.532-2.038-1.006-4.091-1.524-6.133c-0.462-1.819-0.964-3.628-1.428-5.447c-0.248-0.967-0.451-1.945-0.734-3.175
	c2.619,0.248,4.705,1.304,7.152,1.998c1.751-3.25,3.566-6.619,5.378-9.98c-1.262-1.148-0.639-2.405-0.389-3.531
	c0.562-2.527,1.281-5.019,1.953-7.521c0.223-0.834,0.47-1.664,0.758-2.477c0.258-0.727,0.623-0.833,1.411-0.452
	c-0.974,3.847-1.951,7.711-2.928,11.574c0.093,0.032,0.187,0.065,0.28,0.098c2.716-4.248,4.554-8.927,6.659-13.703
	c-1.082,0.078-1.982,0.118-2.876,0.214c-1.512,0.162-3.017,0.397-4.531,0.513c-0.354,0.026-0.736-0.308-1.162-0.502
	c0.104-0.444,0.147-0.769,0.254-1.069c1.403-3.951,2.851-7.886,4.209-11.852c0.83-2.422,1.527-4.89,2.279-7.339
	c0.035-0.114,0.021-0.243,0.033-0.404c-0.996,0-1.957,0-3.095,0c-0.182,0.835-0.36,1.715-0.564,2.589
	c-0.719,3.083-1.447,6.163-2.168,9.245c-0.357,1.528-0.694,3.063-1.075,4.585c-0.078,0.312-0.312,0.585-0.474,0.875
	c-0.701-0.235-0.711-0.693-0.618-1.153c0.527-2.561,1.062-5.12,1.61-7.676c0.396-1.838,0.816-3.669,1.23-5.504
	c0.237-1.053,0.482-2.104,0.718-3.138c-1.168-0.464-2.198-0.873-3.367-1.338c-1.82,7.597-3.64,15.199-5.508,22.996
	c-0.021,0.017-0.213,0.175-0.478,0.394c-0.285-0.182-0.565-0.361-0.844-0.54c1.909-7.97,3.794-15.843,5.68-23.713
	c-0.967-0.81-1.879-1.574-2.911-2.438c-0.286,0.853-0.623,1.654-0.824,2.488c-1.047,4.334-2.021,8.685-3.099,13.012
	c-0.656,2.637-1.478,5.232-2.177,7.859c-0.664,2.496-1.253,5.013-1.913,7.51c-0.108,0.41-0.413,0.769-0.661,1.211
	c-0.343-0.156-0.583-0.265-0.912-0.414c0.257-1.171,0.462-2.316,0.764-3.436c1.272-4.708,2.622-9.396,3.844-14.117
	c0.73-2.824,1.229-5.708,1.927-8.542c0.392-1.592,0.99-3.132,1.469-4.704c0.212-0.699,0.36-1.419,0.553-2.192
	c-0.308-0.579-0.652-1.226-0.993-1.866c-0.41,0.149-0.777,0.282-0.924,0.337c-1.39,1.302-2.628,2.463-3.729,3.495
	c-1.167,4.245-2.307,8.393-3.447,12.54c-0.583,2.122-1.168,4.245-1.752,6.367c-0.257,0.937-0.804,1.096-1.616,0.365
	c1.859-5.878,3.625-11.837,5.043-17.993c-1.79,0.518-3.422,0.99-5.125,1.482c-1.626,6.277-3.247,12.538-4.917,18.985
	c-0.05,0.015-0.327,0.097-0.625,0.185c-0.187-0.299-0.343-0.549-0.579-0.926c1.558-5.886,3.14-11.859,4.745-17.927
	c-1.455,0.335-2.944,0.679-4.648,1.072c-1.114,3.37-2.273,6.872-3.474,10.5c-0.121,0.009-0.384,0.025-0.64,0.042
	c-0.169-0.221-0.307-0.4-0.458-0.598c1.049-3.253,2.096-6.498,3.186-9.873c-1.409-0.084-2.737-0.164-4.204-0.252
	c-0.296,0.934-0.654,1.828-0.861,2.757c-0.701,3.148-1.301,6.32-2.034,9.461c-0.559,2.396-1.271,4.757-1.895,7.14
	c-0.192,0.732-0.313,1.484-0.477,2.273c-0.53,0.278-0.836,0.183-1.236-0.32c1.69-7.189,3.353-14.255,5.02-21.347
	c-1.413-0.242-2.783-0.476-4.338-0.742c-1.484,4.419-2.596,8.94-3.882,13.53c-0.122,0.062-0.363,0.188-0.657,0.342
	c-0.204-0.128-0.409-0.258-0.677-0.426c1.326-4.582,2.641-9.128,3.98-13.756c-1.027-0.375-2.2-0.804-3.453-1.262
	c-0.129,0.481-0.235,0.89-0.35,1.298c-0.669,2.391-1.375,4.771-2,7.174c-0.455,1.742-0.783,3.517-1.208,5.267
	c-0.419,1.728-0.875,3.446-1.35,5.159c-0.11,0.399-0.358,0.76-0.606,1.27c-0.418-0.355-0.672-0.573-0.856-0.729
	c1.729-6.716,3.43-13.321,5.135-19.943c-0.834-0.486-1.527-0.892-2.386-1.393c-1.024,3.11-2.01,6.105-2.997,9.103
	c0.061,0.025,0.121,0.052,0.181,0.077c-0.188,0.16-0.378,0.321-0.665,0.565c-0.266-0.202-0.523-0.399-0.866-0.662
	c1.051-3.287,2.084-6.517,3.1-9.694c-1.282-0.974-2.618-1.766-3.675-2.834c-2.454-2.483-4.273-5.328-3.401-9.048
	c0.354-1.512,0.948-3,1.647-4.39c0.995-1.974,2.975-2.783,4.892-3.547c1.075-0.428,2.237-0.636,3.316-0.93
	c-0.348-0.743-0.925-1.5-1.054-2.327c-0.628-4.011,0.26-5.864,3.752-8.104c2.472-1.585,5.207-2.229,8.063-2.457
	c-0.149-0.688-0.336-1.363-0.439-2.051c-0.475-3.146,0.324-5.989,2.122-8.57c1.017-1.46,2.291-2.636,3.875-3.495
	c1.366-0.74,2.708-1.476,4.261-1.795c3.212-0.659,6.263-0.288,9.171,1.236c0.217,0.114,0.438,0.224,0.677,0.347
	c0.284-0.767,0.545-1.478,0.81-2.187c0.914-2.457,2.47-4.401,4.663-5.839c0.87-0.57,1.702-1.203,2.6-1.725
	c2.387-1.385,5.022-1.558,7.617-1.04c1.441,0.288,2.833,1.09,4.103,1.889c1.409,0.888,2.653,2.037,3.972,3.068
	c0.073,0.058,0.172,0.081,0.359,0.167c0.06-1.077,0.129-2.08,0.169-3.084c0.159-3.958,2.093-6.772,5.569-8.551
	c2.196-1.123,4.572-1.777,7.012-1.898c1.41-0.07,2.861,0.323,4.268,0.626c0.973,0.21,1.949,0.526,2.84,0.964
	c2.631,1.293,4.209,3.554,5.262,6.188c0.254,0.637,0.148,1.433,0.139,2.155C125.593,40.574,125.445,40.967,125.349,41.422z
	 M111.165,106.198c-0.561,1.404-1.107,2.774-1.65,4.136c-0.845-0.27-1.056-0.595-0.802-1.516c0.246-0.891,0.617-1.746,0.933-2.617
	c-0.049-0.029-0.099-0.059-0.147-0.089c-1.559,2.291-3.118,4.581-4.798,7.05c3.44-0.258,6.621-0.496,9.835-0.737
	c0.479-1.866,0.966-3.771,1.459-5.695C114.433,106.558,112.901,106.39,111.165,106.198z"/>
<path class="stroke" fill="#1a1a37"  fill-rule="evenodd" clip-rule="evenodd" d="M119.798,146.412c-0.537,0.436-1.016,0.542-1.464,0.003
	c1.667-9.612,4.094-19.011,6.752-28.458c0.432,0,0.817,0,1.277,0C123.917,127.513,121.229,136.832,119.798,146.412z"/>
<path class="stroke" fill="#1a1a37"  fill-rule="evenodd" clip-rule="evenodd" d="M72.688,158.845c-0.376-0.262-0.639-0.445-0.992-0.691
	c0.097-0.71,0.122-1.453,0.305-2.153c1.22-4.644,2.472-9.279,3.717-13.916c0.797-2.968,1.598-5.934,2.405-8.898
	c0.245-0.9,0.446-1.823,0.801-2.679c0.259-0.624,0.583-0.622,1.234-0.105C77.689,139.801,75.204,149.264,72.688,158.845z"/>
<path class="stroke" fill="#1a1a37"  fill-rule="evenodd" clip-rule="evenodd" d="M130.595,120.865c0.51,0,0.851,0,1.266,0c-0.813,4.093-1.463,8.086-2.425,12.002
	c-0.958,3.903-1.304,7.957-2.713,11.896c-0.443-0.175-0.721-0.283-1.077-0.423C127.302,136.484,128.938,128.721,130.595,120.865z"/>
<path class="stroke" fill="#1a1a37"  fill-rule="evenodd" clip-rule="evenodd" d="M44.396,153.662c-0.996,0.661-0.996,0.661-1.363,0.201
	c2.08-7.495,4.132-14.883,6.206-22.354c0.308-0.188,0.674-0.412,1.04-0.637c0.091,0.062,0.182,0.124,0.273,0.187
	C48.504,138.577,46.457,146.096,44.396,153.662z"/>
<path class="stroke" fill="#1a1a37"  fill-rule="evenodd" clip-rule="evenodd" d="M139.807,144.056c-0.125,0.659-0.25,1.318-0.375,1.978
	c-0.115,0.023-0.229,0.048-0.342,0.071c-0.18-0.255-0.513-0.509-0.512-0.763c0.001-1.131,0.005-2.275,0.177-3.39
	c0.664-4.315,1.379-8.623,2.104-12.929c0.25-1.474,0.562-2.94,0.893-4.398c0.127-0.559,0.417-1.039,1.242-0.773
	c-1.091,6.764-2.174,13.477-3.257,20.188C139.759,144.046,139.783,144.051,139.807,144.056z"/>
<path class="stroke" fill="#1a1a37"  fill-rule="evenodd" clip-rule="evenodd" d="M58.254,143.584c-0.333,1.177-0.662,2.387-1.019,3.589
	c-0.715,2.406-1.439,4.809-2.17,7.21c-0.583,1.915-1.171,3.828-1.775,5.735c-0.177,0.559-0.406,1.102-0.637,1.64
	c-0.037,0.087-0.214,0.113-0.377,0.192c-0.225-0.134-0.457-0.272-0.773-0.461c0.36-1.208,0.705-2.394,1.069-3.573
	c0.702-2.274,1.413-4.547,2.125-6.818c0.743-2.372,1.488-4.744,2.238-7.114C57.119,143.403,57.446,143.115,58.254,143.584z"/>
<path class="stroke" fill="#1a1a37"  fill-rule="evenodd" clip-rule="evenodd" d="M52.114,137.375c0.46-0.032,0.794-0.056,1.311-0.092
	c-0.629,1.946-1.202,3.667-1.74,5.399c-1.024,3.293-2.028,6.591-3.033,9.889c-0.059,0.191-0.125,0.424-0.067,0.599
	c0.307,0.911-0.278,1.174-1.015,1.424c-0.178-0.125-0.377-0.264-0.764-0.533C48.568,148.522,50.334,142.97,52.114,137.375z"/>
<path class="stroke" fill="#1a1a37"  fill-rule="evenodd" clip-rule="evenodd" d="M66.261,137.82c-0.531-0.335-0.814-0.514-1.185-0.747
	c0.303-1.269,0.607-2.494,0.884-3.726c0.419-1.858,0.728-3.746,1.248-5.575c0.583-2.045,1.322-4.047,2.06-6.044
	c0.116-0.317,0.576-0.506,0.877-0.754c0.083,0.051,0.167,0.103,0.251,0.154c0,0.243,0.059,0.505-0.01,0.728
	c-0.425,1.384-0.931,2.746-1.309,4.143c-0.431,1.589-0.75,3.208-1.13,4.811c-0.438,1.847-0.89,3.689-1.335,5.534
	C66.512,136.761,66.414,137.179,66.261,137.82z"/>
<path class="stroke" fill="#1a1a37"  fill-rule="evenodd" clip-rule="evenodd" d="M41.457,137.304c0.318,0,0.658,0,1.155,0c-0.316,1.135-0.573,2.132-0.872,3.115
	c-1.241,4.098-2.481,8.195-3.759,12.281c-0.167,0.536-0.544,1.008-0.865,1.583c-0.393-0.226-0.599-0.344-0.895-0.515
	C37.966,148.283,39.699,142.833,41.457,137.304z"/>
<path class="stroke" fill="#1a1a37"  fill-rule="evenodd" clip-rule="evenodd" d="M54.552,132.607c-0.299-0.24-0.568-0.458-0.876-0.705
	c1.596-5.191,3.178-10.339,4.754-15.472c0.458,0,0.722,0,1.113,0c-1.519,5.302-3.013,10.523-4.524,15.741
	C54.972,132.332,54.739,132.438,54.552,132.607z"/>
<path class="stroke" fill="#1a1a37"  fill-rule="evenodd" clip-rule="evenodd" d="M110.936,157.799c-0.167-0.49-0.388-0.823-0.373-1.146
	c0.164-3.34,1.213-6.513,1.91-9.753c0.267-1.235,0.659-2.444,1.014-3.739c0.122-0.08,0.311-0.201,0.532-0.346
	c0.174,0.118,0.333,0.226,0.462,0.312c0.012,0.108,0.031,0.16,0.021,0.207c-0.989,4.645-1.978,9.289-2.982,13.931
	C111.495,157.383,111.309,157.467,110.936,157.799z"/>
<path class="stroke" fill="#1a1a37"  fill-rule="evenodd" clip-rule="evenodd" d="M115.247,168.574c-0.362-0.124-0.566-0.194-0.937-0.321
	c0.557-2.363,1.125-4.689,1.648-7.025c0.524-2.346,1.002-4.701,1.533-7.208c0.316,0,0.695,0,1.233,0
	c-0.33,1.77-0.596,3.36-0.929,4.938c-0.33,1.559-0.736,3.102-1.092,4.655c-0.267,1.168-0.475,2.351-0.778,3.51
	C115.796,167.617,115.491,168.066,115.247,168.574z"/>
<path class="stroke" fill="#1a1a37"  fill-rule="evenodd" clip-rule="evenodd" d="M39.113,113.403c-1.343,4.747-2.657,9.396-4.025,14.237
	c-0.056,0.037-0.3,0.201-0.593,0.396c-0.215-0.146-0.415-0.281-0.682-0.462c0.337-1.189,0.669-2.35,0.994-3.512
	c0.606-2.163,1.179-4.338,1.823-6.491c0.398-1.333,0.869-2.646,1.372-3.944C38.221,113.062,38.67,112.989,39.113,113.403z"/>
<path class="stroke" fill="#1a1a37"  fill-rule="evenodd" clip-rule="evenodd" d="M158.076,132.862c-0.078-0.381-0.251-0.77-0.22-1.142
	c0.268-3.209,0.557-6.417,0.873-9.621c0.122-1.235,0.33-2.463,0.518-3.836c0.417-0.023,0.784-0.045,1.335-0.077
	c-0.911,5.012-0.975,9.91-2.038,14.668C158.389,132.857,158.232,132.859,158.076,132.862z"/>
<path class="stroke" fill="#1a1a37"  fill-rule="evenodd" clip-rule="evenodd" d="M133.768,139.519c0.445-0.023,0.807-0.042,1.345-0.069
	c-0.683,4.259-1.334,8.324-2.003,12.502c-0.114,0.107-0.314,0.297-0.553,0.521c-0.247-0.044-0.509-0.09-0.902-0.16
	C132.361,148.03,133.057,143.821,133.768,139.519z"/>
<path class="stroke" fill="#1a1a37"  fill-rule="evenodd" clip-rule="evenodd" d="M146.998,128.012c0.202-0.096,0.406-0.192,0.788-0.373
	c0.12,0.327,0.346,0.626,0.311,0.89c-0.286,2.104-0.663,4.196-0.927,6.301c-0.183,1.459-0.266,2.934-0.323,4.404
	c-0.025,0.675-0.22,1.179-0.878,1.541c-0.159-0.043-0.372-0.1-0.778-0.209c0.526-4.173,1.051-8.337,1.577-12.501
	C146.844,128.048,146.92,128.03,146.998,128.012z"/>
<path class="stroke" fill="#1a1a37"  fill-rule="evenodd" clip-rule="evenodd" d="M68.188,153.572c-0.431,1.735-0.837,3.432-1.275,5.12
	c-0.62,2.392-1.252,4.781-1.912,7.162c-0.1,0.361-0.378,0.672-0.606,1.062c-0.365-0.137-0.628-0.234-0.963-0.359
	c0.127-0.492,0.23-0.905,0.341-1.315c0.671-2.465,1.343-4.931,2.018-7.395c0.347-1.269,0.662-2.548,1.07-3.798
	C67.081,153.374,67.418,153.293,68.188,153.572z"/>
<path class="stroke" fill="#1a1a37"  fill-rule="evenodd" clip-rule="evenodd" d="M87.424,124.136c-1.092,3.92-2.175,7.814-3.324,11.938
	c-0.136,0.068-0.467,0.236-0.811,0.411c-0.213-0.271-0.35-0.446-0.552-0.703c0.453-1.493,0.927-3.015,1.376-4.545
	c0.642-2.188,1.26-4.382,1.9-6.568C86.229,123.929,86.558,123.779,87.424,124.136z"/>
<path class="stroke" fill="#1a1a37"  fill-rule="evenodd" clip-rule="evenodd" d="M109.514,137.166c0.356,1.571-1.698,12.055-2.515,12.849
	c-0.158-0.078-0.332-0.163-0.644-0.315c0.155-1.078,0.283-2.182,0.479-3.272c0.502-2.797,1.043-5.586,1.544-8.383
	C108.495,137.392,108.837,137.135,109.514,137.166z"/>
<path class="stroke" fill="#1a1a37"  fill-rule="evenodd" clip-rule="evenodd" d="M73.617,133.912c-1.433,3.987-1.908,8.325-3.636,12.406
	c-0.717-0.525-0.696-1.089-0.629-1.637c0.071-0.576,0.161-1.159,0.326-1.713c0.805-2.694,1.64-5.381,2.456-8.072
	c0.081-0.264,0.083-0.552,0.166-0.814C72.503,133.437,72.927,133.345,73.617,133.912z"/>
<path class="stroke" fill="#1a1a37"  fill-rule="evenodd" clip-rule="evenodd" d="M63.89,124.041c-1.284,4.146-2.547,8.225-3.835,12.382
	c-0.416-0.278-0.779-0.521-1.156-0.772c0.047-0.265,0.056-0.47,0.12-0.655c0.66-1.904,1.348-3.798,1.989-5.709
	c0.532-1.584,0.982-3.195,1.52-4.777C62.823,123.639,63.292,123.515,63.89,124.041z"/>
<path class="stroke" fill="#1a1a37"  fill-rule="evenodd" clip-rule="evenodd" d="M139.338,149.842c-0.384,2.542-0.762,5.039-1.138,7.537
	c-0.132,0.874-0.221,1.755-0.407,2.616c-0.092,0.424-0.361,0.809-0.577,1.27c-0.383-0.194-0.599-0.304-0.861-0.438
	c0.158-1.186,0.292-2.336,0.468-3.479c0.328-2.13,0.683-4.255,1.02-6.384C138,149.956,138.434,149.598,139.338,149.842z"/>
<path class="stroke" fill="#1a1a37"  fill-rule="evenodd" clip-rule="evenodd" d="M40.146,126.528c-0.927,3.682-1.864,7.405-2.779,11.04
	c-0.383,0.242-0.635,0.401-0.924,0.584c-0.203-0.098-0.399-0.192-0.645-0.312c0.047-0.224,0.06-0.426,0.132-0.603
	c0.959-2.373,1.618-4.829,2.097-7.34c0.202-1.057,0.474-2.104,0.796-3.13C39.028,126.111,39.435,126.049,40.146,126.528z"/>
<path class="stroke" fill="#1a1a37"  fill-rule="evenodd" clip-rule="evenodd" d="M43.115,130.606c1.214-4.051,2.352-7.85,3.508-11.709
	c0.403-0.041,0.725-0.073,1.209-0.122c-1.148,4.003-2.245,7.831-3.391,11.831C44.185,130.606,43.762,130.606,43.115,130.606z"/>
<path class="stroke" fill="#1a1a37"  fill-rule="evenodd" clip-rule="evenodd" d="M99.902,156.26c-0.578,2.704-1.157,5.326-1.688,7.956
	c-0.145,0.716,0.142,1.569-0.858,2.019c-0.152-0.051-0.381-0.129-0.706-0.238c0.182-1.208,0.311-2.39,0.542-3.55
	c0.361-1.816,0.783-3.622,1.194-5.428C98.61,156.034,99.22,155.752,99.902,156.26z"/>
<path class="stroke" fill="#1a1a37"  fill-rule="evenodd" clip-rule="evenodd" d="M153.762,123.467c0.457,0,0.862,0,1.438,0c-0.458,2.378-0.881,4.576-1.345,6.986
	c-0.013,0.016-0.174,0.206-0.379,0.45c-0.236-0.021-0.502-0.048-0.958-0.09C152.933,128.355,153.336,125.979,153.762,123.467z"/>
<path class="stroke" fill="#1a1a37"  fill-rule="evenodd" clip-rule="evenodd" d="M87.632,169.252c-0.525-0.106-0.792-0.161-1.203-0.244
	c0.64-2.413,1.265-4.773,1.934-7.293c0.357,0,0.776,0,1.404,0C89.015,164.368,88.331,166.783,87.632,169.252z"/>
<path class="stroke" fill="#1a1a37"  fill-rule="evenodd" clip-rule="evenodd" d="M104.424,162.481c-0.376-0.159-0.598-0.253-0.963-0.407
	c0.149-0.884,0.266-1.756,0.448-2.612c0.266-1.242,0.573-2.474,0.876-3.708c0.188-0.769,0.706-1.079,1.535-0.861
	C105.696,157.391,105.072,159.89,104.424,162.481z"/>
<path class="stroke" fill="#1a1a37"  fill-rule="evenodd" clip-rule="evenodd" d="M63.322,143.651c0.492,0,0.736,0,1.117,0c-0.499,2.363-0.981,4.653-1.484,7.035
	c-0.365-0.128-0.636-0.223-0.96-0.337C61.883,147.958,62.827,145.866,63.322,143.651z"/>
<path class="stroke" fill="#1a1a37"  fill-rule="evenodd" clip-rule="evenodd" d="M157.941,139.428c0.245,2.366-0.852,4.453-1.062,6.626
	c-0.182,0.059-0.237,0.098-0.275,0.085c-0.139-0.047-0.272-0.111-0.515-0.213c0.149-1.322,0.296-2.652,0.45-3.982
	c0.073-0.63,0.173-1.256,0.233-1.886C156.838,139.37,157.199,139.204,157.941,139.428z"/>
<path class="stroke" fill="#1a1a37"  fill-rule="evenodd" clip-rule="evenodd" d="M152.051,135.774c0.439-0.126,0.718-0.206,1.272-0.366
	c-0.236,2.019-0.451,3.855-0.683,5.848c-0.385-0.177-0.618-0.285-0.988-0.456C151.784,139.145,151.915,137.49,152.051,135.774z"/>
<path class="stroke" fill="#1a1a37"  fill-rule="evenodd" clip-rule="evenodd" d="M82.752,142.104c-0.068,1.609-0.624,3.426-1.164,3.77
	c-0.236-0.073-0.497-0.154-0.971-0.301c0.332-1.1,0.604-2.192,1.008-3.233C81.777,141.947,82.252,141.752,82.752,142.104z"/>
<path class="stroke" fill="#1a1a37"  fill-rule="evenodd" clip-rule="evenodd" d="M97.51,147.536c-1.119-0.157-1.075-0.92-0.792-1.647
	c0.51-1.31,1.088-1.7,2.027-1.28C98.337,145.577,97.926,146.551,97.51,147.536z"/>
<path class="stroke" fill="#1a1a37"  fill-rule="evenodd" clip-rule="evenodd" d="M70.717,165.604c0.259-0.933,0.449-1.61,0.665-2.386
	c0.367-0.072,0.729-0.145,1.254-0.249c-0.185,0.977-0.333,1.759-0.499,2.635C71.686,165.604,71.286,165.604,70.717,165.604z"/>
<path fill-rule="evenodd" clip-rule="evenodd" fill="#e2e6bc" class="fill" d="M78.074,61.217c-4.511-0.759-8.256,0.235-11.575,3.018
	c-1.335-0.244-2.308-1.24-2.5-3.004c-0.167-1.523-0.414-3.188,0.015-4.595c0.685-2.248,1.559-4.585,3.868-5.819
	c1.888-1.01,3.842-0.787,5.774-0.104c0.836,0.295,1.655,0.643,2.47,0.995c0.294,0.126,0.553,0.332,0.939,0.571
	c-1.865,1.491-2.626,3.46-2.939,5.643c0.069,0.322,0.142,0.654,0.255,1.188c0.24,0.104,0.623,0.271,1.082,0.469
	c0.191-0.556,0.313-0.963,0.47-1.356c0.556-1.391,1.63-2.34,2.852-3.085c1.714-1.046,3.606-1.735,5.625-1.681
	c1.545,0.041,3.08,0.411,4.621,0.63c0.12,0.017,0.244,0.001,0.396,0.001c0.05-0.344,0.096-0.653,0.145-0.994
	c-2.755-2.87-6.2-3.243-10.083-2.608c1.162-2.932,2.666-5.509,5.479-6.753c5.755-2.545,10.961-1.81,15.063,3.398
	c-2.11,2.427-4.737,4.811-3.698,8.876c0.15,0.092,0.403,0.247,0.84,0.516c0.196-0.401,0.452-0.731,0.521-1.099
	c0.242-1.281,0.57-2.51,1.293-3.627c0.955-1.475,2.25-2.347,3.991-2.653c2-0.351,3.965-0.512,5.726,0.724
	c0.489,0.344,0.784,0.956,1.202,1.415c0.312,0.345,0.679,0.641,1.067,1.001c0.742-1.135,0.072-1.954-0.276-2.664
	c-0.539-1.098-1.362-2.001-2.542-2.608c-1.307-0.672-2.659-0.949-4.081-1.068c-0.174-0.014-0.347-0.038-0.639-0.072
	c0.426-2.173,0.46-4.34,1.74-6.312c1.703-2.625,4.132-4.073,7.016-4.741c2.896-0.67,7.227,0.879,8.056,4.727
	c0.128,0.595,0.297,1.181,0.433,1.774c0.026,0.114-0.016,0.245-0.029,0.403c-2.436,0.535-5.036,0.651-6.814,2.764
	c0.42,0.623,0.871,0.728,1.456,0.519c2.805-0.995,5.671-1.026,8.462-0.121c3.211,1.043,5.907,2.936,7.96,5.662
	c1.244,1.653,2.306,3.415,2.913,5.409c0.182,0.594,0.231,1.229,0.167,1.958c-0.578-0.391-1.181-0.747-1.728-1.176
	c-1.903-1.489-4.172-1.927-6.467-2.262c-3.076-0.449-6.093-0.407-9.093,0.694c-1.77,0.65-3.035,1.78-4.209,3.135
	c-0.51,0.587-1.057,1.144-1.586,1.714c0.228,0.975,0.661,1.294,1.563,0.996c0.89-0.295,1.715-0.794,2.613-1.045
	c1.041-0.291,2.133-0.589,3.195-0.567c2.53,0.054,5.056,0.143,7.521,0.947c3.694,1.205,5.559,3.775,5.894,7.522
	c0.084,0.939-0.161,1.917-0.317,2.866c-0.504,3.064-1.948,5.583-4.645,7.185c-3.144,1.868-7.237,2.029-10.333-0.588
	c-1.178-0.994-1.551-2.393-1.607-3.896c-0.014-0.358-0.145-0.712-0.256-1.231c-0.516,0.269-0.871,0.37-1.114,0.593
	c-2.472,2.272-5.393,2.431-8.509,1.943c-3.547-0.555-5.273-3.005-6.03-6.107c-0.495-2.032-0.368-4.247,1.599-5.771
	c0.139-0.107,0.246-0.255,0.397-0.416c0.013-0.222,0.025-0.471,0.051-0.929c-0.409,0.061-0.78,0.029-1.066,0.17
	c-2.728,1.335-4.294,3.644-5.532,6.334c-0.995,2.16-1.027,4.293-0.527,6.53c-1.172,0.392-2.196-0.021-3.131-0.565
	c-1.495-0.871-2.521-2.183-3.081-3.826c-0.368-1.083,0.5-3.033,1.725-3.95c1.141-0.855,2.292-1.695,3.443-2.535
	c0.246-0.178,0.512-0.326,0.769-0.488c-0.07-0.126-0.14-0.253-0.211-0.379c-1.215-0.101-2.41,0.148-3.572,0.516
	c-1.238,0.391-2.361,1.02-3.273,1.968c-0.877,0.911-1.838,1.767-2.574,2.783c-0.738,1.019-1.242,2.206-1.874,3.365
	c-1.671,0.198-2.613-1.004-3.552-2.056c-1.026-1.149-0.798-2.646-0.593-4.278c-0.539,0.131-0.881,0.141-1.144,0.291
	c-1.364,0.777-1.817,2.112-2.1,3.543c-0.077,0.393-0.176,0.78-0.293,1.294c-1.229-0.657-2.284-1.307-2.656-2.645
	c-0.409-1.468,0.004-2.708,1.122-3.717c0.159-0.144,0.401-0.196,0.605-0.289c1.058-0.485,2.129-0.946,3.165-1.472
	C77.624,61.99,77.755,61.645,78.074,61.217z"/>
<path fill-rule="evenodd" clip-rule="evenodd" fill="#e2e6bc" class="fill" d="M89.069,152.446c1.826,0.905,3.699,1.833,5.5,2.727
	c-3.727,1.558-7.507,3.137-11.324,4.733c-1.179-3.422-2.322-6.736-3.465-10.05c0.082-0.085,0.164-0.17,0.245-0.255
	c1.858,0.705,3.715,1.41,5.719,2.17c0.273-0.501,0.577-1.011,0.835-1.543c1.588-3.266,3.149-6.546,4.752-9.805
	c1.372-2.791,2.766-5.572,4.189-8.336c0.79-1.536,1.674-3.022,2.494-4.542c1.009-1.873,2-3.757,2.987-5.643
	c0.162-0.309,0.266-0.648,0.404-0.993c-0.596-0.679-1.407-0.519-2.079-0.496c-2.279,0.073-4.555,0.272-6.832,0.421
	c-0.119,0.007-0.241-0.024-0.505-0.053c0.545-1.489,1.04-2.92,1.592-4.33c1.166-2.974,2.377-5.931,3.54-8.907
	c0.655-1.675,1.249-3.375,1.878-5.06c0.555-1.486,1.276-1.845,2.833-1.423c0.268,0.073,0.535,0.15,0.811,0.229
	c0.925,1.614,2.444,2.538,4.003,3.392c-1.927,3.304-3.813,6.537-5.706,9.781c0.388,0.681,0.86,1.092,1.644,1.077
	c2.877-0.059,5.755-0.104,8.68-0.154c-0.575,0.877-1.216,1.814-1.814,2.779c-1.673,2.695-3.326,5.402-4.989,8.104
	c-0.998,1.624-2.051,3.217-2.987,4.875c-1.659,2.941-3.194,5.952-4.878,8.878c-1.902,3.303-3.908,6.546-5.877,9.811
	C90.23,150.643,89.709,151.434,89.069,152.446z"/>
<path fill-rule="evenodd" clip-rule="evenodd" fill="#e2e6bc" class="fill" d="M142.125,63.546c0.177,0.997,0.633,1.187,1.314,1.134
	c2.273-0.175,4.246,0.539,5.98,2.099c-3.009,3.73-6.825,4.366-11.184,2.972c0-0.923,0.053-1.903-0.014-2.876
	c-0.071-1.032-0.217-2.064-0.4-3.083c-0.201-1.114-0.099-1.515,0.925-1.96c1.978-0.859,3.945-1.78,5.997-2.417
	c1.256-0.389,2.663-0.271,3.999-0.42c3.164-0.354,6.22,0.165,9.235,1.072c1.782,0.536,3.265,1.502,4.379,3
	c0.415,2.776-4.017,6.693-5.933,6.044c-0.077-0.183-0.227-0.403-0.262-0.642c-0.236-1.613-1.167-2.738-2.522-3.523
	c-1.051-0.61-2.119-1.223-3.245-1.665c-1.92-0.753-3.928-0.697-5.926-0.314C143.692,63.115,142.932,63.343,142.125,63.546z"/>
<path fill-rule="evenodd" clip-rule="evenodd" fill="#e2e6bc" class="fill" d="M76.926,76.752c1.735,1.453,3.735,1.492,5.685,2.036
	c1.931,4.982,6.041,6.833,11.26,7.279c-0.687,0.765-1.111,1.565-2.175,1.756c-1.796,0.322-3.564,0.747-5.423,0.586
	c-2.641-0.229-5.132-0.869-7.367-2.343c-0.658-0.434-1.317-0.864-1.975-1.296c-0.656-0.43-1.042-1.035-1.13-1.813
	c-0.17-1.514-0.367-3.037,0.227-4.504C76.25,77.903,76.581,77.398,76.926,76.752z"/>
<path fill-rule="evenodd" clip-rule="evenodd" fill="#e2e6bc" class="fill" d="M57.268,82.167c3.694,2.824,7.788,2.738,12.017,1.941
	c0.288,0.903,0.567,1.781,0.88,2.761c-1.738,1.233-3.602,2.272-5.853,2.321c-1.563,0.033-3.153,0.139-4.622-0.603
	c-0.928-0.468-1.806-0.968-2.404-1.893c-0.458-0.706-0.85-1.378-0.691-2.251c0.022-0.122,0.022-0.267-0.022-0.378
	C56.23,83.226,56.787,82.761,57.268,82.167z"/>
<path fill-rule="evenodd" clip-rule="evenodd" fill="#e2e6bc" class="fill" d="M164.203,73.684c0.284,0.612,0.61,1.039,0.671,1.5
	c0.172,1.331,0.463,2.705,0.287,4.007c-0.218,1.607-1.329,2.814-2.878,3.367c-1.728,0.615-3.532,0.951-5.487,0.643
	c-0.329-1.215-0.669-2.476-1.03-3.809C159.825,79.422,162.817,77.913,164.203,73.684z"/>
<path fill-rule="evenodd" clip-rule="evenodd" fill="#e2e6bc" class="fill" d="M112.607,84.889c-1.257,0.247-2.504,0.587-3.772,0.721
	c-2.045,0.214-3.786-0.556-5.251-1.967c-0.837-0.806-1.172-1.807-1.137-3.098c2.794,0.083,5.356-0.688,7.869-2.138
	c-0.218,2.482,0.566,4.517,2.343,6.166C112.641,84.678,112.625,84.784,112.607,84.889z"/>
<path fill-rule="evenodd" clip-rule="evenodd" fill="#e2e6bc" class="fill" d="M128.459,84.287c1.145,1.787,2.82,2.986,4.817,3.75
	c-0.42,2.082-1.792,3.126-4.12,3.122c-2.116-0.005-3.787-0.838-4.822-2.75c-0.325-0.599-0.61-1.219-0.911-1.822
	C125.131,85.808,126.773,85.058,128.459,84.287z"/>
<path fill-rule="evenodd" clip-rule="evenodd" fill="#e2e6bc" class="fill" d="M138.955,87.652c1.876-0.954,3.365-2.053,4.211-3.938
	c2.82,1.311,5.713,1.516,8.687,1.054c0.041,0.063,0.082,0.126,0.124,0.188c-0.333,0.517-0.614,1.076-1.008,1.54
	c-1.05,1.233-2.342,2.089-3.989,2.315c-1.852,0.255-3.696,0.325-5.504-0.272C140.704,88.285,139.939,88,138.955,87.652z"/>
<path fill-rule="evenodd" clip-rule="evenodd" fill="#e2e6bc" class="fill" d="M60.461,69.628c1.423,0.691,2.708,1.313,4.086,1.983
	c1.392,5.339,1.07,4.497,3.825,7.303c-2.62,0.822-6.33-1.123-7.748-4.063C59.589,72.7,59.58,70.232,60.461,69.628z"/>
<path fill-rule="evenodd" clip-rule="evenodd" fill="#e2e6bc" class="fill" d="M102.366,93.593c4.145,1.398,8.046,1.026,11.733-1.307
	c0.074,0.048,0.147,0.096,0.221,0.144c-0.38,0.785-0.596,1.734-1.18,2.313c-0.787,0.78-1.809,1.371-2.815,1.871
	c-1.648,0.818-3.379,1.146-5.217,0.514C103.723,96.652,102.289,94.928,102.366,93.593z"/>
</svg>
