<svg version="1.1" id="svg" xmlns="http://www.w3.org/2000/svg" xmlns:xlink="http://www.w3.org/1999/xlink" x="0px" y="0px"
	 width="200px" height="200px" viewBox="0 0 200 200" enable-background="new 0 0 200 200" xml:space="preserve">
<path class="stroke" fill="#58281d"  fill-rule="evenodd" clip-rule="evenodd" d="M146.529,139.834c-2.192,1.984-4.376,3.621-6.886,4.863
	c-2.833,1.4-5.559,3.017-8.354,4.495c-1.937,1.023-3.886,2.03-5.879,2.935c-1.509,0.686-3.106,1.17-4.645,1.795
	c-0.779,0.316-1.474,0.337-2.188-0.146c-2.121-1.432-4.295-2.789-6.375-4.278c-4.294-3.072-8.55-6.199-12.803-9.329
	c-2.979-2.191-5.924-4.427-8.89-6.635c-0.848-0.63-1.738-1.205-2.574-1.85c-1.57-1.211-3.098-2.479-4.677-3.679
	c-2.486-1.893-5.002-3.747-7.501-5.623c-0.456-0.341-0.899-0.699-1.336-1.065c-2.617-2.193-5.226-4.397-7.848-6.586
	c-1.685-1.405-2.572-3.208-2.672-5.382c-0.229-4.955-0.489-9.91-0.612-14.869c-0.077-3.085,0.099-6.175,0.117-9.263
	c0.024-4.146-0.03-8.292,0.02-12.438c0.03-2.519,0.175-5.037,0.302-7.555c0.107-2.108,0.195-4.221,0.42-6.318
	c0.161-1.512,0.967-2.627,2.51-3.124c4.281-1.381,8.553-2.79,12.83-4.182c0.502-0.163,1.013-0.297,1.523-0.433
	c1.527-0.406,3.051-0.825,4.585-1.204c2.565-0.636,5.118-0.827,7.61,0.33c0.146,0.067,0.309,0.104,0.465,0.147
	c0.115,0.032,0.234,0.052,0.465,0.103c0.248-0.707,0.58-1.401,0.736-2.133c0.758-3.523,4.585-4.37,6.925-3.488
	c3.19,1.203,6.301,2.598,9.152,4.535c1.673,1.138,3.497,2.058,5.271,3.044c2.089,1.162,4.066,2.421,5.862,4.062
	c1.298,1.185,1.83,2.431,1.808,4.024c-0.03,2.023-0.162,4.047-0.259,6.281c0.222,0.127,0.613,0.407,1.046,0.589
	c1.611,0.679,3.145,1.476,4.613,2.444c1.242,0.819,2.675,1.346,3.993,2.056c3.609,1.94,7.219,3.88,10.792,5.886
	c0.909,0.511,1.772,1.179,2.485,1.937c0.499,0.53,0.895,1.305,1.011,2.023c0.389,2.4,0.551,4.811,0.359,7.267
	c-0.241,3.077-0.206,6.177-0.311,9.266c-0.114,3.371-0.266,6.74-0.37,10.111c-0.032,1.054,0.068,2.11,0.05,3.164
	c-0.056,3.249-0.108,6.499-0.223,9.746c-0.09,2.547-0.308,5.09-0.395,7.638c-0.062,1.822,0.02,3.649-0.005,5.475
	C146.657,136.287,146.58,138.101,146.529,139.834z M116.224,61.358c-2.143-1.393-3.977-2.587-5.812-3.779
	c-1.327-0.862-2.625-1.774-3.99-2.571c-1.297-0.756-2.662-1.391-3.998-2.079c-0.656-0.338-1.318-0.634-2.188-0.37
	c-0.123,0.455-0.255,0.941-0.387,1.426c5.53,2.918,10.934,5.771,16.598,8.76C116.328,62.009,116.256,61.559,116.224,61.358z"/>
<path fill-rule="evenodd" clip-rule="evenodd" fill="#e3a13b" class="fill" d="M70.208,113.839c0.062-1.039,0.231-1.977,0.146-2.891
	c-0.127-1.365-0.393-2.724-0.69-4.063c-0.087-0.392-0.424-0.792-0.753-1.052c-0.857-0.677-1.775-1.276-2.889-2.062
	c-0.023-0.517-0.074-1.274-0.09-2.032c-0.02-0.853-0.016-1.705-0.006-2.558c0.022-2.149,0.058-4.299,0.083-6.447
	c0.023-1.911,0.029-3.821,0.062-5.731c0.04-2.315,0.113-4.631,0.147-6.946c0.045-3.004,0.06-6.008,0.101-9.012
	c0.01-0.646,0.077-1.292,0.119-1.943c0.812-0.26,1.59-0.469,2.336-0.757c1.388-0.536,2.212-1.585,2.628-2.998
	c0.146-0.5,0.383-0.973,0.617-1.553c13.129,9.39,26.515,18.248,39.988,27.451c0,0.98,0.035,2.196-0.008,3.409
	c-0.068,1.946,0.514,3.725,1.105,5.553c0.581,1.795,1.744,2.884,3.281,3.718c0.42,0.227,0.923,0.297,1.386,0.445
	c0.453,0.145,0.905,0.296,1.51,0.495c-0.372,11.955-0.743,23.85-1.112,35.728c-1.173,0.471-2.183,0.881-3.197,1.282
	c-1.362,0.536-2.11,1.574-2.461,2.954c-0.067,0.266-0.184,0.518-0.307,0.86c-0.315-0.127-0.594-0.182-0.807-0.333
	c-3.339-2.369-6.686-4.73-9.998-7.138c-3.615-2.626-7.24-5.24-10.781-7.963c-4.597-3.535-9.121-7.161-13.662-10.769
	c-1.904-1.514-3.771-3.077-5.648-4.627C70.934,114.55,70.595,114.199,70.208,113.839z"/>
<path fill-rule="evenodd" clip-rule="evenodd" fill="#e3a13b" class="fill" d="M133.799,85.938c-2.189,1.134-4.378,2.268-6.558,3.396
	c-4.048-2.664-8.114-3.773-12.544-0.8c-0.624-0.33-1.331-0.63-1.957-1.05c-1.482-0.995-2.918-2.061-4.388-3.075
	c-1.369-0.944-2.746-1.88-4.142-2.785c-2.351-1.523-4.714-3.026-7.082-4.524c-1.475-0.933-3.006-1.781-4.441-2.77
	c-2.74-1.887-5.399-3.889-8.149-5.76c-2.717-1.848-5.513-3.579-8.256-5.389c-0.938-0.617-1.82-1.318-2.735-1.984
	c0.572-1.84,0.795-3.54-0.457-5.247c1.864-0.899,3.736-1.513,5.668-2.205c5,2.174,9.751,4.887,14.624,7.545
	c0,0.678,0.026,1.32-0.006,1.96c-0.103,2.04,2.388,3.478,4.19,2.216c0.329-0.229,0.656-0.464,1.138-0.806
	c5.272,3.219,11.065,5.72,16.199,9.517c0.096,1.429,0.206,2.943,1.801,3.665c1.354,0.612,2.761,0.981,4.302,0.422
	c4.274,2.447,8.557,4.899,12.84,7.352C133.83,85.724,133.814,85.83,133.799,85.938z"/>
<path fill-rule="evenodd" clip-rule="evenodd" fill="#e3a13b" class="fill" d="M96.786,64.151c-0.51-0.138-0.92-0.248-1.438-0.388
	c-0.063-0.496-0.157-0.965-0.181-1.437c-0.173-3.499,0.084-6.985,0.432-10.461c0.115-1.158,0.496-2.298,0.828-3.424
	c0.249-0.849,0.93-1.323,1.756-1.536c1.09-0.281,2.149-0.15,3.229,0.198c2.77,0.893,5.223,2.396,7.713,3.841
	c2.17,1.258,4.376,2.456,6.537,3.729c0.898,0.53,1.751,1.121,2.366,2.037c1.012,1.505,1.14,3.185,1.161,4.897
	c0.042,3.619-0.421,7.201-0.809,10.79c-0.104,0.966-0.129,1.94-0.201,2.911c-0.023,0.315-0.083,0.627-0.148,1.092
	c-0.57-0.149-1.055-0.277-1.674-0.439c0-1.021-0.084-1.989,0.017-2.938c0.285-2.705,0.657-5.401,0.97-8.104
	c0.116-1.002,0.151-2.014,0.24-3.021c0.095-1.066-0.269-1.866-1.185-2.483c-2.627-1.768-5.152-3.683-7.997-5.119
	c-1.627-0.822-3.195-1.769-4.755-2.717c-1.008-0.611-2.084-0.892-3.235-0.945c-1.126-0.054-1.725,0.248-2.007,1.359
	c-0.428,1.688-0.755,3.41-0.975,5.138c-0.245,1.933-0.318,3.887-0.475,5.831C96.929,63.315,96.857,63.664,96.786,64.151z"/>
<path fill-rule="evenodd" clip-rule="evenodd" fill="#e3a13b" class="fill" d="M115.974,65.786c-0.218,1.509-0.424,2.943-0.652,4.529
	c-5.82-2.602-10.773-6.395-16.346-9.196c0.133-1.319,0.254-2.518,0.393-3.898c2.033,0.771,3.747,1.915,5.579,2.808
	c1.86,0.905,3.724,1.804,5.57,2.737C112.356,63.694,114.215,64.597,115.974,65.786z"/>
<path fill-rule="evenodd" clip-rule="evenodd" fill="#e3a13b" class="fill" d="M122.512,74.709c0.166-1.43,0.336-2.895,0.518-4.457
	c4.951,1.896,9.184,4.8,13.852,6.986c-0.808,1.793-1.473,3.528-0.918,5.466C134.695,82.516,123.722,75.98,122.512,74.709z"/>
<path fill-rule="evenodd" clip-rule="evenodd" fill="#e3a13b" class="fill" d="M89.212,55.457c1.877,0.041,3.217-0.766,4.61-1.83
	c0.226,1.551-0.109,2.864-0.234,4.189C92.643,57.756,90.386,56.578,89.212,55.457z"/>
<path fill-rule="evenodd" clip-rule="evenodd" fill="#e3a13b" class="fill" d="M116.312,98.716c-0.798-0.854-0.798-0.854-0.514-2.061
	c0.316-0.061,0.685-0.132,1-0.191C117.79,97.732,117.644,98.37,116.312,98.716z"/>
<path fill-rule="evenodd" clip-rule="evenodd" fill="#e3a13b" class="fill" d="M139.595,81.991c-0.64-0.816-0.65-1.392-0.207-1.96
	c1.242-0.263,1.431-0.095,1.461,1.442C140.475,81.628,140.038,81.809,139.595,81.991z"/>
<path fill-rule="evenodd" clip-rule="evenodd" fill="#e3a13b" class="fill" d="M121.444,90.468c-0.59,0.334-0.937,0.529-1.372,0.776
	c-0.372-0.322-0.724-0.628-1.057-0.917c0.218-0.946,0.851-0.973,1.66-0.919C120.875,89.684,121.118,90.018,121.444,90.468z"/>
<path fill-rule="evenodd" clip-rule="evenodd" fill="#e3a13b" class="fill" d="M115.13,146.531c0.155-0.584,0.28-1.054,0.458-1.719
	c0.466,0.255,0.779,0.426,1.059,0.58C116.438,146.585,116.425,146.597,115.13,146.531z"/>
<path fill-rule="evenodd" clip-rule="evenodd" fill="#e3a13b" class="fill" d="M87.559,52.334c0.205-0.276,0.406-0.546,0.575-0.774
	c0.691,0.003,0.983,0.271,0.945,0.896C88.567,53.006,88.095,53.013,87.559,52.334z"/>
<path fill-rule="evenodd" clip-rule="evenodd" fill="#e3a13b" class="fill" d="M67.434,109.981c-0.24-0.044-0.489-0.089-0.878-0.159
	c0.075-0.495,0.14-0.918,0.212-1.392C67.735,108.907,67.758,108.964,67.434,109.981z"/>
<path fill-rule="evenodd" clip-rule="evenodd" fill="#e3a13b" class="fill" d="M71.179,58.891c-0.732,0.012-0.774-0.39-0.742-0.861
	C71.371,57.85,71.434,57.918,71.179,58.891z"/>
<path fill-rule="evenodd" clip-rule="evenodd" fill="#e3a13b" class="fill" d="M67.689,62.745c0.448,0.955,0.448,0.955-0.291,1.291
	C67.053,63.545,67.226,63.164,67.689,62.745z"/>
</svg>
