<svg version="1.1" id="svg" xmlns="http://www.w3.org/2000/svg" xmlns:xlink="http://www.w3.org/1999/xlink" x="0px" y="0px"
	 width="200px" height="200px" viewBox="0 0 200 200" enable-background="new 0 0 200 200" xml:space="preserve">
<path class="stroke" fill="#1a655f"  d="M195.543,119.779c0.475-0.243,0.863-0.438,1.15-0.585c-0.355-1.282-0.576-1.575-1.641-1.836
	c-1.858-0.454-3.731-0.854-5.605-1.236c-2.832-0.575-5.71-0.84-8.518-1.629c-3.401-0.958-6.674-2.202-9.856-3.699
	c-1.166-0.549-2.323-1.119-3.481-1.685c-2.869-1.398-5.548-3.18-8.605-4.204c-1.973-0.661-3.902-1.454-5.868-2.138
	c-0.96-0.334-1.962-0.553-2.955-0.826c-1.401-2.047-3.535-3.184-5.544-4.488c0.457-0.453,0.802-0.794,1.146-1.135
	c2.297,0.25,4.499,0.708,5.955-0.243c1.415-1.377,1.18-2.538,0.948-3.707c0.344-0.221,0.637-0.414,0.935-0.603
	c1.688-1.075,3.435-2.065,5.05-3.24c2.306-1.679,3.57-4.025,3.346-6.891c-0.104-1.332-0.725-2.646-1.232-3.919
	c-1.609-4.048-4.612-6.418-8.872-7.296c-1.581-0.326-3.097,0.014-4.644,0.08c-2.277,0.096-4.357,0.832-6.425,1.644
	c-1.062,0.418-2.062,0.993-2.993,1.453c-0.55-0.367-0.961-0.735-1.441-0.937c-0.471-0.198-1.039-0.392-1.511-0.304
	c-2.887,0.536-4.268,2.078-4.522,4.957c-0.965,0.56-1.954,1.136-2.922,1.699c-1.26-1.044-2.455-2.037-3.698-3.069
	c-0.053-0.263-0.14-0.564-0.167-0.87c-0.269-3.165-0.814-6.256-2.072-9.207c-1.102-2.577-2.082-5.205-3.115-7.811
	c-0.734-1.846-2.038-2.873-4.08-2.85c-0.221,0.002-0.445-0.037-0.659-0.097c-3.548-1.012-7.219-1.021-10.853-1.248
	c-1.854-0.117-3.729,0.071-5.596,0.105c-4.408,0.083-8.789,0.41-13.119,1.327c-3.035,0.643-6.027,1.582-9.188,1.523
	c-0.568-0.01-1.138,0.217-1.714,0.249c-1.274,0.068-2.321,0.547-3.168,1.646c-0.127,0.302-0.297,0.705-0.496,1.179
	c-1.512,0.174-2.26,1.115-2.398,2.583c-0.207,0.146-0.394,0.263-0.562,0.401c-0.171,0.14-0.321,0.301-0.577,0.545
	c-0.014,0.712-0.021,1.492-0.031,2.156c1.433,1.16,2.916,0.895,4.373,0.813c0.936-0.052,1.892-0.276,2.994,0.196
	c-0.451,0.444-0.732,0.786-1.077,1.045c-1.091,0.822-1.266,1.859-0.833,3.044c1.531,1.142,2.824,1.187,4.328,0.211
	c0.367-0.24,0.791-0.396,1.172-0.621c0.723-0.426,1.438-0.862,2.143-1.317c0.857-0.556,1.693-1.15,2.561-1.692
	c0.231-0.144,0.541-0.163,0.888-0.26c0.077,1.315,0.133,2.507,0.221,3.699c0.113,1.544,0.696,2.175,2.212,2.332
	c0.65,0.068,1.312,0.013,2.115,0.013c0.165-0.629,0.361-1.162,0.443-1.711c0.395-2.594,1.201-5.005,2.92-6.996
	c4.505-0.526,11.449,0.751,13.797,2.553c-0.492,2.956-0.391,5.958,0.096,8.889c-2.674,1.247-5.181,2.514-7.768,3.592
	c-2.13,0.891-4.39,1.477-6.531,2.351c-1.698,0.693-3.115,0.584-4.789-0.288c-2.96-1.541-6.232-1.858-9.503-1.159
	c-1.682,0.361-3.323,0.991-4.918,1.656c-2.87,1.2-5.691,2.52-8.535,3.782c-0.156,0.069-0.344,0.067-0.55,0.104
	c-0.45-0.273-0.923-0.527-1.358-0.831c-2.428-1.699-5.053-3.008-7.908-3.793c-1.669-0.458-3.376-0.802-5.077-1.121
	c-1.281-0.239-2.328-0.721-3.126-1.821c-0.809-1.114-1.79-2.098-2.668-3.163c-1.085-1.314-2.46-2.1-4.161-2.061
	c-1.837,0.039-3.389-0.553-4.786-1.683c-0.206-0.167-0.444-0.296-0.664-0.448c-2.384-1.653-4.988-2.531-7.922-2.271
	c-2.274,0.201-4.167,1.014-5.042,3.306c-0.421,1.104-0.707,2.258-1.055,3.389c0.023,0.274-0.16,0.469-0.32,0.679
	c-1.106,1.448-0.674,3.252,1.014,3.963c0.596,0.251,1.3,0.419,1.932,0.37c1.189-0.092,2.363-0.37,3.75-0.606
	c0.212,0.063,0.633,0.202,1.062,0.321c4.498,1.241,8.457,3.464,12.014,6.47c2.956,2.5,5.95,4.959,8.959,7.397
	c1.31,1.062,2.703,2.021,4.146,3.09c-1.027,0.587-1.91,1.176-2.955,1.208c-1.411-0.752-2.713-1.535-4.085-2.161
	c-1.96-0.888-4.071-0.819-6.175-0.843c-2.187-0.027-4.227,0.412-6.186,1.371c-1.397,0.686-2.832,1.293-4.263,1.911
	c-0.88,0.38-1.734,0.269-2.554-0.23c-1.062-0.646-2.148-1.255-3.207-1.907c-0.909-0.564-1.839-0.911-2.9-0.476
	c-1.562,0.638-3.219,1.116-4.658,1.959c-3.41,1.99-7.26,2.655-11.152,4.07c0.057-0.035-0.027,0.005-0.09,0.066
	c-2.138,2.13-1.676,4.148,1.146,5.116c0.407,0.142,0.882,0.336,1.13,0.655c1.098,1.438,2.582,1.957,4.312,2.036
	c0.529,0.023,1.051,0.198,1.583,0.249c1.462,0.136,2.912,0.202,4.34-0.307c1.882-0.673,3.757-1.387,5.684-1.905
	c1.449-0.39,2.962-0.646,4.484-0.234c2.105,0.569,4.229,1.074,6.32,1.698c4.932,1.47,10.011,1.696,15.086,1.66
	c2.627-0.015,5.23-0.097,7.842,0.252c0.434,0.059,0.885-0.01,1.328-0.048c2.128-0.192,4.252-0.429,6.384-0.585
	c4.21-0.314,8.472-0.017,12.578-1.081c0.489,0.244,0.926,0.458,1.359,0.675c1.786-0.139,3.562-0.109,5.333-0.005
	c1.023,0.062,2.025,0.223,3.008-0.284c0.278-0.141,0.702-0.058,1.046-0.005c3.972,0.63,7.953,0.93,11.98,0.769
	c4.98-0.201,9.981-0.047,14.881-1.223c0.169-0.043,0.364-0.068,0.529-0.029c1.933,0.446,3.897,0.263,5.851,0.331
	c2.89,0.101,5.776,0.512,8.659-0.054c0.082-0.016,0.173,0.027,0.262,0.044c1.342,0.7,2.69,1.398,4.104,1.917
	c2.425,0.888,4.869,1.73,7.346,2.46c2.085,0.617,4.152,1.35,6.363,1.505c0.634,0.043,1.309,0.311,1.855,0.647
	c1.318,0.81,2.717,1.32,4.246,1.517c1.016,0.128,2.026,0.314,3.044,0.449c2.515,0.333,5.036,0.616,7.547,0.987
	c1.539,0.23,3.048,0.658,4.591,0.869c2.329,0.319,4.49,1.015,6.486,2.299c2.296,1.479,3.35,3.476,3,6.198
	c-0.061,0.479-0.082,0.963-0.116,1.381c2.263,1.72,4.002,1.86,6.111,0.42c0.388-1.304,0.825-2.779,1.282-4.316
	c1.23,0.709,2.383,1.458,3.607,2.06c1.498,0.74,2.946,1.732,4.508,1.448c1.354-0.498,1.246-1.681,1.741-2.473
	c0.356-0.138,0.685-0.264,1.054-0.402c0.238-0.402,0.486-0.819,0.712-1.198c-0.088-0.492-0.162-0.906-0.198-1.1
	c0.855-0.413,1.579-0.762,2.039-0.983C197.65,121.523,196.322,120.76,195.543,119.779z"/>
<path fill-rule="evenodd" clip-rule="evenodd" fill="#faf3a8" class="fill" d="M122.483,77.717c0.925,0.777,2.041,1.714,3.197,2.682
	c-0.616,0.91-1.183,1.692-1.693,2.51c-1.378,2.208-2.084,4.635-2.071,7.232c0.014,2.307,0.117,4.615,0.259,6.918
	c0.112,1.807,1.097,2.98,2.763,3.754c3.212,1.494,6.339,1.289,9.562,0.025c1.898-0.744,3.901-1.215,5.858-1.81
	c1.42-0.431,2.623,0.171,3.787,0.845c1.616,0.938,3.206,1.914,4.521,3.29c0.409,0.427,1.026,0.713,1.601,0.908
	c2.232,0.753,4.476,1.489,6.738,2.147c3.562,1.034,6.587,3.116,9.76,4.911c2.322,1.311,4.552,2.759,7.104,3.681
	c4.076,1.47,8.267,2.072,12.557,2.371c2.436,0.169,4.841,0.736,7.255,1.145c0.289,0.05,0.558,0.231,0.817,0.566
	c-1.033,0.047-2.077,0.22-3.09,0.105c-1-0.113-1.969-0.518-3.023-0.815c-0.25,0.255-0.48,0.488-0.758,0.77
	c0.219,0.17,0.338,0.317,0.487,0.372c1.756,0.634,3.527,1.215,5.267,1.887c0.75,0.289,1.613,0.521,1.979,1.52
	c-0.219,0.062-0.391,0.171-0.529,0.14c-1.12-0.252-2.237-0.51-3.346-0.813c-0.33-0.093-0.615-0.349-0.918-0.535
	c-1.28-0.795-2.561-1.59-3.885-2.413c-0.289,0.234-0.516,0.414-0.838,0.675c1.084,1.225,2.635,1.612,3.778,2.566
	c1.12,0.937,2.216,1.903,3.435,2.954c-0.541,0.203-0.943,0.353-1.344,0.502c-2.119-1.652-4.21-3.286-6.524-5.091
	c-0.229,0.173-0.458,0.346-0.632,0.479c0.157,0.409,0.172,0.569,0.258,0.645c0.768,0.676,1.548,1.338,2.324,2.001
	c1.181,1.01,2.368,2.011,3.53,3.039c0.209,0.185,0.307,0.492,0.514,0.841c-1.064,0.055-1.709-0.529-2.434-0.917
	c-2.078-1.117-4.15-2.247-6.255-3.312c-0.982-0.494-1.172-0.39-1.893,0.526c0.42,1.871,1.08,3.766,0.049,5.621
	c-1.006,0.48-1.691-0.043-2.389-0.459c0.507-4.083-1.893-6.486-4.793-8.606c-3.174-1.031-6.198-2.52-9.538-3.022
	c-3.213-0.484-6.425-0.986-9.642-1.457c-1.961-0.29-3.808-0.91-5.575-1.787c-0.841-0.418-1.711-0.636-2.663-0.756
	c-5.777-0.737-11.221-2.445-16.033-5.858c-0.867-0.615-1.794-1.149-2.852-1.82c-3.992,0.825-8.194,1.108-12.582,1.011
	c0.012-0.761,0.023-1.479,0.037-2.199c-1.061,0.023-1.061,0.023-2.308,3.306c-0.853,0.074-1.77,0.172-2.691,0.237
	c-2.793,0.199-5.588,0.398-8.384,0.576c-3.041,0.195-6.047-0.221-9.022-0.742c-1.56-0.27-3.044-0.954-4.561-1.465
	c-0.203-0.068-0.377-0.221-0.664-0.396c0.855-3.444,1.734-6.887,1.936-10.459c0.201-3.562,0.134-7.104-0.479-10.826
	c1.287-0.286,2.521-0.62,3.775-0.831c2.867-0.479,5.647-1.269,8.37-2.265c0.92-0.336,1.792-0.803,2.711-1.132
	c1.644-0.587,2.993,0.446,2.854,2.169c-0.116,1.422-0.341,2.765-1.322,3.967c-1.1,1.344-1.311,2.99-0.766,4.685
	c0.258,0.806,0.564,1.601,0.745,2.426c0.49,2.207,1.85,3.918,3.485,5.256c1.708,1.399,3.748,2.411,6.103,2.354
	c0.207-0.008,0.411-0.104,0.679-0.399c-0.502-0.193-0.985-0.455-1.504-0.576c-3.003-0.698-4.725-2.839-6.126-5.355
	c-0.235-0.428-0.419-0.886-0.629-1.327c-0.974-2.069-0.64-4.019,0.666-5.79c1.263-1.721,2.648-3.355,3.979-5.03
	c0.302-0.379,0.598-0.763,0.967-1.231c-0.342-0.269-0.635-0.5-0.942-0.741c0.015-1.965,1.142-3.825,0.764-5.77
	c-0.202-0.141-0.27-0.227-0.346-0.236c-1.815-0.219-2.776-1.334-3.051-3.047c-0.217-1.346-0.296-2.711-0.444-4.145
	c0.756-0.128,1.311-0.223,1.999-0.34c0.103-0.538,0.208-1.083,0.348-1.808c-0.575-0.344-1.085-0.795-1.677-0.984
	c-4.252-1.347-8.552-2.424-13.043-2.64c-2.482-0.121-3.537-0.012-6.587,1.082c-1.817,2.602-3.206,5.448-3.663,8.736
	c-0.75,0.274-1.057-0.107-1.188-0.779c-0.273-1.446-0.537-2.89-0.223-4.37c0.099-0.464,0.129-0.944,0.197-1.462
	c-1.329-0.476-2.462-0.216-3.461,0.364c-1.535,0.894-2.984,1.938-4.471,2.917c-0.78,0.515-1.549,1.048-2.348,1.53
	c-0.233,0.141-0.556,0.135-1.09,0.251c0.192-0.524,0.234-0.882,0.426-1.124c1.301-1.662,2.703-3.199,4.806-3.884
	c0.546-0.178,1.087-0.436,1.545-0.773c0.351-0.255,0.563-0.692,0.751-1.16c-1.431,0.031-2.544,0.989-3.965,0.964
	c-1.321-0.023-2.648,0.295-3.976,0.432c-1.354,0.14-2.695,0.6-4.153,0.224c-0.115-0.328-0.224-0.643-0.32-0.924
	c0.565-0.685,1.292-0.797,1.988-0.862c2.125-0.198,4.256-0.331,6.385-0.492c0.636-0.049,1.325,0.06,1.972-0.718
	c-3.013-0.588-5.85-0.107-8.901,0.07c0.274-0.307,0.393-0.573,0.569-0.617c0.688-0.174,1.388-0.34,2.091-0.395
	c1.775-0.14,3.556-0.207,5.334-0.325c0.506-0.034,1.087,0.006,1.361-0.811c-2.387-0.515-4.716,0.426-7.091-0.028
	c0.001-0.604,0.319-0.886,0.839-0.999c0.695-0.15,1.391-0.355,2.097-0.418c2.697-0.239,5.393-0.388,8.058-1.036
	c2.76-0.671,5.592-1.062,8.397-1.535c3.742-0.63,7.503-0.95,11.301-0.55c1.815,0.191,3.656,0.211,5.451,0.51
	c2.015,0.336,4.007,0.848,5.981,1.381c1.189,0.319,2.156,0.877,2.367,2.371c0.147,1.027,0.66,2.034,1.148,2.976
	c1.548,2.974,2.887,6.038,3.76,9.27C121.918,73.762,122.118,75.665,122.483,77.717z M117.781,80.289
	c0.438,1.58,1.114,2.716,2.027,3.677c0.492,0.518,1.184,0.792,1.956,0.2c0.151-1.802-1.255-2.775-2.14-4.155
	C119.033,80.1,118.501,80.18,117.781,80.289z M109.352,92.664c0.337-0.686,0.677-1.375,0.962-1.953
	c-0.539-1.164-0.578-1.197-1.762-1.671c-1.041,0.683-1.491,1.519-1.278,2.376C107.491,92.29,107.823,92.517,109.352,92.664z
	 M90.213,102.088c0.303,1.625,1.07,2.14,2.178,1.44c-0.187-0.302-0.374-0.606-0.659-1.07c0.62-0.042,1.052-0.115,1.479-0.086
	c0.419,0.026,0.831,0.158,1.258,0.248c0.068-0.879,0.063-0.887-0.521-1.171C92.638,100.81,91.256,101.045,90.213,102.088z"/>
<path fill-rule="evenodd" clip-rule="evenodd" fill="#faf3a8" class="fill" d="M18.841,77.831c0.688-1.235,1.615-1.606,3.195-1.3
	c0.44,0.084,0.872,0.3,1.183-0.373c-1.029-1.016-2.357-0.568-3.672-0.616c0.276-0.948,1.01-0.855,1.597-0.922
	c0.39-0.042,0.794,0.124,1.192,0.12c0.355-0.003,0.711-0.109,1.358-0.222c-1.279-0.998-2.477-0.823-3.871-0.762
	c1.277-1.336,2.637,0.108,3.856-0.59c-0.816-1.043-1.918-0.94-2.939-1.072c-0.044-0.131-0.124-0.254-0.12-0.375
	c0.004-0.12,0.092-0.239,0.152-0.382c1.296-0.465,2.513,1.035,4.021,0.233c-0.529-0.394-0.894-0.666-1.407-1.046
	c1.322-0.349,2.463-0.231,3.577-0.061c1.73,0.266,3.369,0.798,4.76,1.957c1.471,1.224,3.158,1.989,5.093,2.13
	c1.139,0.084,2.027,0.653,2.738,1.497c0.572,0.68,1.129,1.385,1.606,2.132c1.235,1.932,2.836,3.258,5.195,3.61
	c1.717,0.257,3.38,0.778,4.949,1.567c0.474,0.239,0.991,0.438,1.509,0.534c2.859,0.526,5.401,1.772,7.788,3.373
	c0.98,0.657,1.929,0.206,2.805-0.125c2.752-1.034,5.464-2.167,8.19-3.258c0.289-0.116,0.59-0.199,0.884-0.296
	c1.371,0.241,2.541,0.89,3.55,1.783c2.29,2.025,3.902,4.438,3.709,7.646c-0.057,0.945-0.398,1.914-0.79,2.793
	c-0.383,0.861-1.095,1.412-2.089,1.705c-3.541,1.045-7.029,2.278-10.586,3.262c-2.003,0.554-4.113,0.924-6.168,0.147
	c-0.814-0.308-1.59-0.784-2.305-1.293c-3.224-2.289-6.469-4.554-9.61-6.955c-2.222-1.694-4.239-3.653-6.44-5.377
	c-2.8-2.194-5.551-4.508-8.59-6.319c-2.256-1.341-4.934-1.985-7.447-2.875c-0.358-0.128-0.851,0.091-1.274,0.187
	c-1.123,0.253-2.231,0.596-3.366,0.772C20.118,79.211,19.352,78.784,18.841,77.831z"/>
<path fill-rule="evenodd" clip-rule="evenodd" fill="#faf3a8" class="fill" d="M64.618,104.445c1.411-0.043,2.482-0.864,3.708-1.17
	c1.205-0.299,2.416-0.563,3.598-0.836c0.987,0.784,1.117,1.831,1.344,2.948c-1.23,0.388-2.356,0.764-3.496,1.099
	c-2.389,0.701-4.777,1.398-7.175,2.059c-0.769,0.211-1.563,0.331-2.354,0.441c-1.364,0.191-2.742,0.295-4.103,0.515
	c-2.054,0.334-3.973-0.147-5.874-0.831c-1.117-0.4-2.233-0.436-3.404-0.183c-3.664,0.786-7.349,0.812-11.003-0.026
	c-1.948-0.448-3.847-1.12-5.785-1.622c-1.721-0.445-3.453-0.994-5.211-1.13c-1.704-0.135-3.463,0.089-5.164,0.356
	c-1.485,0.235-2.932,0.731-4.384,1.156c-1.039,0.302-2.063,0.574-3.201,0.139c-0.097-0.179-0.214-0.403-0.367-0.688
	c-0.968,0.349-1.805,1.589-3.132,0.57c0.988-0.774,2.24-1.188,2.721-2.57c-0.949,0.349-1.76,0.621-2.554,0.941
	c-1.149,0.464-2.358,0.401-3.549,0.369c-0.559-0.015-1.138-0.229-1.651-0.469c-0.745-0.351-0.846-0.725-0.657-1.762
	c0.61-0.588,1.261-0.077,1.978,0.111c4.361-1.979,8.725-3.959,12.828-5.82c2.225,0.793,4.184,1.5,6.15,2.189
	c1.678,0.587,3.34,0.462,4.957-0.222c1.351-0.572,2.702-1.149,4.01-1.813c2.451-1.244,5.057-1.801,7.754-1.479
	c1.238,0.147,2.429,0.81,3.608,1.316c0.688,0.296,1.302,0.771,1.974,1.117c0.471,0.242,0.984,0.571,1.479,0.567
	c2.089-0.021,3.695,1.181,5.425,2.042c1.674,0.833,3.261,1.83,4.921,2.69c1.738,0.899,3.552,1.486,5.504,0.666
	C63.9,104.954,64.246,104.674,64.618,104.445z"/>
<path fill-rule="evenodd" clip-rule="evenodd" fill="#faf3a8" class="fill" d="M135.45,77.172c1.236,2.793,3.085,4.667,6.332,5.049
	c0.727,0.755,1.55,1.611,2.293,2.382c-0.722,3.805,0.738,6.366,3.94,8.05c-0.042,0.167-0.032,0.345-0.111,0.403
	c-3.753,2.798-7.883,4.641-12.61,4.932c-0.57,0.035-1.153-0.03-1.726-0.072c-1.067-0.076-2.128-0.212-3.194-0.245
	c-1.495-0.05-2.905-0.436-4.253-1.024c-1.674-0.731-2.973-3.135-2.664-4.988c0.303-1.84,0.604-3.7,1.151-5.477
	c0.898-2.912,2.804-5.073,5.401-6.696C131.691,78.434,133.453,77.665,135.45,77.172z M134.222,88.078
	c0.03-0.002,0.061-0.005,0.094-0.009c-0.042-1.193,0.009-2.399-0.151-3.576c-0.213-1.561-1.701-2.428-3.159-1.91
	c-1.28,0.458-2.406,1.136-2.989,2.476c-0.368,0.854-0.824,1.674-1.207,2.521c-0.521,1.154-0.734,2.349-0.585,3.63
	c0.185,1.588,0.622,2.088,2.18,2.257c1.108,0.12,2.033-0.383,3.048-0.708c1.633-0.525,2.209-1.619,2.447-3.115
	C133.981,89.118,134.113,88.6,134.222,88.078z M141.312,87.796c-0.219-0.204-0.491-0.454-0.719-0.666
	c-1.697,0.705-2.002,1.17-1.682,2.439C140.472,90.078,140.809,89.847,141.312,87.796z M139.66,85.348
	c-1.09-0.96-2.426-0.816-3.265,0.295C137.605,86.895,138.89,86.809,139.66,85.348z"/>
<path fill-rule="evenodd" clip-rule="evenodd" fill="#faf3a8" class="fill" d="M154.193,89.743c-1.174-4.419-2.998-8.271-6.033-11.488
	c-1.67-1.772-3.312-3.571-5.084-5.484c0.389-0.177,0.711-0.391,1.062-0.473c3.188-0.738,6.351-0.724,9.45,0.454
	c4.021,1.529,6.776,6.403,5.992,10.59c-0.042,0.217-0.088,0.446-0.19,0.638c-1.085,2.063-2.424,3.934-4.296,5.367
	C154.865,89.522,154.553,89.589,154.193,89.743z"/>
<path fill-rule="evenodd" clip-rule="evenodd" fill="#faf3a8" class="fill" d="M82.599,89.469c-0.434,0.181-0.755,0.315-1.168,0.487
	c-1.135-2.891-2.641-5.518-5.555-7.238c0.314-0.153,0.514-0.32,0.731-0.347c2.111-0.261,4.172-0.17,6.094,0.901
	c0.735,0.408,1.499,0.761,2.364,1.198c0.852,1.387,1.521,2.952,1.701,4.776c-0.43-0.018-0.774-0.031-1.2-0.049
	c-0.402,0.345-0.833,0.717-1.323,1.141C83.746,90.074,83.208,89.791,82.599,89.469z"/>
<path fill-rule="evenodd" clip-rule="evenodd" fill="#faf3a8" class="fill" d="M146.834,83.29c-0.723-0.839-1.443-1.678-2.142-2.49
	c0.482-2.382-1.928-5.401-4.948-6.235c0.459-0.864,1.338-0.92,2.193-1.295c1.555,1.644,3.143,3.25,4.648,4.927
	c2.461,2.741,4.523,5.734,5.557,9.328c0.278,0.972,0.486,1.966,0.746,3.035c-0.785,0.472-1.475,0.884-2.162,1.296
	c1.318-2.662,0.005-4.761-1.121-6.875c-0.475-0.891-1.261-1.347-2.279-1.407c-0.216-0.013-0.432-0.092-0.645-0.139
	C146.731,83.387,146.782,83.338,146.834,83.29z"/>
<path fill-rule="evenodd" clip-rule="evenodd" fill="#faf3a8" class="fill" d="M131.66,76.581c0.629-2.27,2.134-2.93,4.02-3.32
	c0.374,0.338,0.783,0.706,1.239,1.118C135.367,75.62,133.648,76.052,131.66,76.581z"/>
<path fill-rule="evenodd" clip-rule="evenodd" fill="#faf3a8" class="fill" d="M108.742,91.562c-0.382-0.573-0.409-0.977,0.242-1.365
	C109.314,90.765,109.137,91.131,108.742,91.562z"/>
<path fill-rule="evenodd" clip-rule="evenodd" fill="#faf3a8" class="fill" d="M127.507,91.907c0.007-0.868,0.015-1.692,0.024-2.72
	c1.512,0.541,2.599,1.288,3.646,2.177C129.792,92.586,128.964,92.717,127.507,91.907z"/>
<path fill-rule="evenodd" clip-rule="evenodd" fill="#faf3a8" class="fill" d="M132.795,85.612c-0.952-0.417-1.779-0.783-2.849-1.253
	c0.714-0.421,1.249-0.734,1.703-1.003C132.895,83.931,132.955,84.048,132.795,85.612z"/>
</svg>
