<svg version="1.1" id="svg" xmlns="http://www.w3.org/2000/svg" xmlns:xlink="http://www.w3.org/1999/xlink" x="0px" y="0px"
	 width="200px" height="200px" viewBox="0 0 200 200" enable-background="new 0 0 200 200" xml:space="preserve">
<path fill-rule="evenodd" clip-rule="evenodd" fill="#fafd30" class="fill" d="M120.145,93.083c0,0,10.857,0.25,12.804-2.448
	c1.944-2.698,2.258-4.205,2.258-4.205s-4.705-6.589-6.087-10.919c-1.382-4.331-1.695-13.241-0.314-16.882
	c1.381-3.64,4.393-7.72,7.344-8.348c2.949-0.627,6.087-1.255,7.468-1.191c1.381,0.062,9.727-1.946,11.548-5.774
	c1.818-3.828,0.188-8.096-4.834-8.723c-5.02-0.628-12.802-1.004-14.873-0.565c-2.07,0.44-5.647,4.081-6.777,4.707
	c-1.131,0.627-3.076,2.573-3.766,2.762c-0.689,0.188-2.135-0.125-4.331,1.819c-2.195,1.946-3.952,0.941-6.903,7.029
	c-2.948,6.088-4.518,11.86-5.02,15.688c-0.503,3.827,0.753,8.223,1.883,10.92c1.13,2.698-1.57,2.071-1.57,2.071
	s3.265,6.778,4.457,8.725C114.622,89.693,120.145,93.083,120.145,93.083z"/>
<path class="stroke" fill="#183046"  fill-rule="evenodd" clip-rule="evenodd" d="M130.176,33.692c0.191,0.916,0.318,1.534,0.509,2.45
	c1.823-2.848,4.344-4.265,7.444-5.038c0.046,0.619,0.082,1.107,0.119,1.657c1.963-0.126,3.815-1.943,5.621-0.543
	c1.955,0,3.682,0,5.479,0c0.018,0.375,0.035,0.704,0.047,0.944c1.398,0.289,2.717,0.51,4.009,0.842
	c1.312,0.337,2.515,0.881,3.361,2.049c2.156,2.97,1.543,7.111-1.44,9.665c-1.787,1.527-4.007,2.066-6.102,2.79
	c-0.114,1.133-0.228,2.272-0.362,3.604c-0.595-0.076-1.021-0.028-1.331-0.193c-0.77-0.412-1.472-0.949-2.229-1.388
	c-1.254-0.725-2.562-1.231-4.156-0.835c0.101,0.584,0.183,1.07,0.297,1.744c-2.326,0-4.544,0-6.867,0
	c0.442,0.647,0.774,1.136,1.212,1.777c-1.014,0.142-1.758,0.247-2.607,0.365c0.058,0.462,0.099,0.789,0.145,1.167
	c-1.815,1.061-3.202,2.519-3.892,4.637c0.409,0.244,0.809,0.48,1.284,0.762c-0.776,1.179-1.358,2.059-1.917,2.905
	c0.54,0.375,1.003,0.697,1.454,1.013c-0.57,1.221-1.066,2.284-1.633,3.495c0.556,0,0.925,0,1.338,0
	c0.527,0.47,0.434,1.024,0.218,1.65c-0.398,1.155-0.732,2.332-1.188,3.815c0.732-0.332,1.16-0.523,1.67-0.751
	c0.229,0.258,0.45,0.508,0.661,0.742c-0.183,0.62-0.341,1.161-0.519,1.765c0.401,0.21,0.779,0.41,1.337,0.704
	c-0.337,1.083-0.659,2.132-1.024,3.307c0.727-0.249,1.34-0.459,2.286-0.782c-0.128,1.208-0.221,2.082-0.332,3.124
	c0.578-0.231,1.021-0.411,1.525-0.613c0.234,0.148,0.483,0.308,0.743,0.473c-0.122,1.31-0.238,2.565-0.385,4.158
	c1.249-0.684,2.17-1.189,3.037-1.665c1.569,0.861,0.119,2.477,1.137,3.46c0.806-0.35,1.631-0.705,2.477-1.072
	c1.168,1.347-0.023,2.66,0.166,4.007c0.468-0.047,0.893-0.09,1.318-0.132c0.817,0.942,0.256,1.923,0.217,2.853
	c-0.041,0.973-0.152,1.94-0.239,2.981c1.106,0.213,2.108,0.409,3.015,0.583c0.91,0.945,0.025,1.703-0.064,2.503
	c0.617,0.544,1.234,1.085,1.889,1.661c-0.547,0.707-0.951,1.23-1.361,1.76c0.499,0.548,0.987,1.084,1.521,1.671
	c-0.581,0.663-1.047,1.192-1.625,1.848c0.596,0.433,1.122,0.815,1.748,1.27c0.043,0.256,0.1,0.596,0.167,1.007
	c-0.64,0.296-1.236,0.573-2.017,0.935c0.694,0.938,1.363,1.843,2.059,2.782c-0.396,0.364-0.65,0.599-0.893,0.823
	c0.065,0.522,0.125,1.022,0.195,1.572c-0.641,0.394-1.248,0.765-1.861,1.141c0.227,0.454,0.42,0.846,0.65,1.314
	c-0.496,0.202-0.914,0.371-1.493,0.607c0.07,0.466,0.033,1.003,0.236,1.426c0.917,1.913,2.165,3.533,4.328,4.141
	c2.771,0.779,5.545,1.564,8.341,2.25c2.146,0.526,3.092,1.286,3.34,3.466c0.271,2.401,0.471,4.83,0.438,7.243
	c-0.058,4.07-0.309,8.137-0.514,12.204c-0.088,1.746-0.261,3.486-0.395,5.214c-0.605,1.128-1.595,1.562-2.789,1.707
	c-1.941,0.233-3.867,0.571-5.84,0.182c-0.521-0.103-1.119,0.124-1.668,0.252c-1.375,0.319-2.672,0.288-3.713-0.717
	c-1.74-0.202-3.52,0.421-5.244-0.879c-0.951-3.58,1.649-5.671,3.89-8.151c0.159-1.952,0.489-4.072,0.282-6.284
	c-1.062-0.181-2.011-0.341-3.109-0.527c-0.31,0.595-0.644,1.215-0.956,1.846c-2.054,4.153-4.105,8.309-6.146,12.468
	c-0.606,1.236-1.575,1.829-2.945,1.896c-2.213,0.109-4.422,0.285-6.635,0.41c-0.355,0.019-0.722-0.063-1.072-0.142
	c-1.093-0.235-2.19-0.458-3.269-0.751c-1.741-0.472-2.361-1.849-1.819-3.789c0.592-2.111,1.947-3.328,4.104-3.681
	c1.411-0.232,2.821-0.482,4.277-0.732c0.133-2.289,0.257-4.438,0.388-6.723c-1.019-0.702-2.021-1.393-3.036-2.096
	c-1.906,2.326-3.562,4.845-5.716,6.828c-2.169,1.997-4.831,3.459-7.411,5.25c0,1.021,0,2.197,0,3.021
	c-1.089,2.305-2.879,2.983-4.871,3.368c-1.313,0.253-2.608,0.604-3.926,0.835c-5.651,0.981-11.344,1.586-17.077,1.068
	c-3.161-0.285-6.279,0.041-9.416,0.082c-1.763,0.022-3.199,0.413-4.559,1.413c-1.882,1.387-3.925,1.266-6.054,0.711
	c-0.827-0.217-1.714-0.247-2.576-0.278c-1.286-0.051-2.627,0.136-3.775-0.568c-0.78-0.478-1.438-1.152-2.255-1.827
	c-1.624-0.25-3.362-0.123-5.089,0.214c-1.113,0.217-2.223,0.464-3.321,0.751c-1.326,0.346-2.616,0.424-3.964,0.019
	c-0.662-0.198-1.42-0.093-2.135-0.103c-0.825-0.009-1.656,0.075-2.474-0.006c-2.51-0.251-4.107-1.881-4.187-4.344
	c-0.044-1.395,0.738-2.489,1.799-3.275c1.521-1.134,3.235-1.878,5.196-1.523c3.535,0.641,6.976,0.286,10.372-0.799
	c0.779-0.247,1.579-0.428,2.607-0.702c-1.014-1.098-1.946-2.062-3.297-2.859c-2.11,0.836-4.272,1.692-6.434,2.548
	c-0.049-0.105-0.099-0.211-0.145-0.316c1.443-1.573,3.695-1.75,5.555-2.938c-0.33-0.368-0.61-0.679-1.014-1.128
	c-1.23,0.434-2.431,0.863-3.635,1.279c-1.219,0.419-2.437,0.846-3.669,1.224c-1.187,0.363-2.121,1.402-3.561,1.46
	c0.441-0.963,1.34-1.508,4.685-2.809c1.67-0.65,3.375-1.199,5.091-1.803c-0.189-0.85-0.611-0.969-1.189-0.803
	c-2.225,0.64-4.473,1.217-6.666,1.948c-1.163,0.388-2.226,1.064-3.35,1.576c-0.329,0.15-0.714,0.181-1.13,0.28
	c-0.145-0.906,0.378-1.081,0.844-1.264c2.256-0.873,4.51-1.752,6.779-2.59c1.055-0.39,2.146-0.693,3.392-1.091
	c-0.371-0.623-0.676-1.133-0.979-1.643c-1.214-2.04-1.945-4.221-1.753-6.619c0.115-1.42,0.361-2.832,0.569-4.4
	c0.004,0.011-0.013-0.154-0.095-0.278c-1.836-2.86-1.521-5.915-0.691-8.953c0.586-2.132,1.307-4.234,2.64-6.066
	c0.325-0.442,0.486-1.006,0.755-1.587c0.468-0.174,1.075-0.263,1.503-0.586c1.021-0.767,1.901-0.526,2.829,0.128
	c2.644,1.867,5.465,3.515,7.281,6.354c0.629,0.982,1.478,1.829,2.173,2.675c2.753-0.134,5.322-0.236,7.889-0.401
	c0.857-0.056,1.511-0.543,2.052-1.242c1.457-1.889,3.109-3.515,5.281-4.659c2.494-1.312,5.08-2.236,7.839-2.711
	c1.302-0.226,2.6-0.658,4.076-0.345c0.713,1.685,1.433,3.378,2.239,5.283c0.624-0.542,1.217-0.941,1.659-1.468
	c1.062-1.264,2.249-2.478,3.03-3.905c1.826-3.339,4.266-6.18,6.685-9.07c2.308-2.757,5.122-4.792,8.255-6.392
	c1.496-0.763,3.199-1.116,4.935-1.697c-1.685-1.733-4.364-2.255-5.677-4.511c0.092-0.327,0.187-0.662,0.3-1.068
	c-1.129-1.031-2.818-1.549-3.408-3.449c0.668-0.299,1.331-0.598,2.105-0.945c-0.673-0.878-1.433-1.702-1.993-2.646
	c-0.543-0.916-0.879-1.956-1.246-2.806c0.592-1.62,1.817-0.422,2.71-0.896c-1.52-3.964-4.109-7.656-3.293-12.317
	c0.471-0.14,0.94-0.278,1.461-0.432c0-1.658-0.018-3.302,0.007-4.946c0.016-1.127,0.306-2.145,1.271-2.631
	c0.479-2.296,0.931-4.448,1.39-6.638c0.647-0.049,1.09-0.083,1.749-0.135c-0.284-1.446-0.564-2.885-0.857-4.377
	c0.367-0.21,0.662-0.375,1.08-0.612c0.76,0.856,1.491,1.683,2.39,2.697c1.08-2.522,2.18-4.796,4.369-6.812
	c0.149,1.157,0.248,1.923,0.368,2.856c1.629-1.938,3.129-3.732,4.646-5.511c0.064-0.076,0.295-0.011,0.646-0.011
	c0.114,0.924,0.23,1.863,0.381,3.082c0.752-1.339,1.374-2.49,2.035-3.616c0.418-0.71,0.854-1.418,1.362-2.064
	C129.148,34.405,129.594,34.16,130.176,33.692z M115.901,144.676c2.373-1.767,3.929-4.372,5.628-6.823
	c-0.919-1.157-1.814-2.155-2.557-3.258c-0.737-1.094-1.322-2.292-2.004-3.5c-0.492,0.467-0.957,0.911-1.497,1.424
	c-0.373-0.306-0.659-0.541-0.913-0.751c0.705-0.826,1.328-1.557,1.86-2.18c-0.506-1.481-0.938-2.744-1.384-4.052
	c-0.268-0.202-0.584-0.442-0.948-0.717c0.293-0.494,0.544-0.922,0.726-1.229c0-2.051-0.092-3.963,0.023-5.86
	c0.136-2.209,0.438-4.409,0.703-6.609c0.048-0.393,0.189-0.817,0.418-1.134c0.457-0.633,1.116-0.907,1.905-0.703
	c0.667,0.171,1.128,0.518,0.981,1.296c-2.6,3.443-2.803,7.089-0.534,10.655c1.907,2.998,4.138,5.765,7.107,7.888
	c1.32,0.941,2.705,1.681,4.138,2.369c2.689,1.294,5.395,2.556,8.103,3.809c0.513,0.237,1.06,0.44,1.612,0.54
	c2.825,0.504,5.656,0.969,8.672,1.479c0.08,0.483,0.269,1.075,0.257,1.664c-0.031,1.439-0.179,2.875-0.235,4.316
	c-0.062,1.558-0.621,2.9-1.562,4.125c-0.688,0.897-1.33,1.835-1.949,2.782c-0.405,0.615-0.611,1.291-0.176,2.123
	c0.678,0,1.368,0,2.035,0c0.88-3.88,1.527-5.216,3.48-5.089c-0.137,0.401-0.151,0.936-0.397,1.081
	c-1.353,0.804-1.243,2.185-1.407,3.42c-0.122,0.914,0.37,1.488,1.282,1.628c0.574,0.083,1.18-0.043,1.836-0.079
	c-0.229-1.362-0.268-2.539,0.366-3.618c0.62-1.057,1.224-2.129,2.336-2.766c0.226,0.181,0.394,0.296,0.542,0.436
	c0.141,0.133,0.262,0.288,0.366,0.405c-0.342,0.608-0.6,1.17-0.946,1.675c-1.175,1.719-1.126,2.448,0.468,4.162
	c1.498-0.146,3.113-0.302,4.729-0.459c1.274-6.931,0.121-13.61-0.235-20.198c-0.773-0.413-1.726,0.108-2.003-0.993
	c0.582-0.253,1.134-0.495,1.817-0.792c-0.115-0.589-0.226-1.163-0.337-1.729c-0.795,0.066-1.503,0.289-1.826-0.643
	c0.465-0.317,0.905-0.618,1.443-0.985c-0.309-0.283-0.517-0.479-0.759-0.7c-1.182,0.516-2.302,1.031-3.443,1.498
	c-0.648,0.267-1.285,0.343-1.65-0.697c1.142-0.503,2.228-0.982,3.615-1.595c-1.546-0.605-2.653-0.428-3.738,0.158
	c-0.542,0.295-1.086,0.595-1.646,0.857c-0.571,0.27-1.085,0.226-1.53-0.533c0.645-0.404,1.252-0.785,1.902-1.191
	c-0.625-0.597-1.099-0.31-1.619-0.06c-0.973,0.472-1.966,0.904-2.964,1.328c-0.623,0.265-1.187,0.243-1.599-0.656
	c1.196-0.553,2.359-1.089,3.609-1.669c-0.679-0.763-1.251-0.505-1.838-0.292c-1.163,0.419-2.331,0.825-3.502,1.223
	c-0.586,0.199-1.183,0.365-1.666-0.385c1.278-1.246,3.226-1.053,4.513-2.187c-0.497-0.077-0.948-0.025-1.396,0.037
	c-1.02,0.146-2.039,0.305-3.059,0.438c-0.588,0.078-1.119,0.003-1.418-0.88c1.452-0.276,2.831-0.539,4.395-0.837
	c-0.337-0.546-0.56-0.91-0.688-1.119c-1.128-0.32-2.26,0.838-3.2-0.604c0.938-0.313,1.744-0.583,2.688-0.898
	c-0.095-1.648-0.191-3.271-0.287-4.935c0.459-0.273,0.887-0.525,1.33-0.787c-0.154-0.48-0.306-0.951-0.492-1.533
	c0.632-0.221,1.175-0.408,1.806-0.63c-0.659-0.953-1.255-1.816-1.954-2.826c0.833-0.45,1.471-0.791,2.134-1.149
	c-0.663-0.996-2.021-1.126-2.374-2.476c0.626-0.298,1.231-0.588,1.902-0.908c-0.562-0.635-1.045-1.182-1.596-1.799
	c0.729-0.448,1.268-0.782,1.955-1.202c-0.998-0.478-1.804-0.863-2.691-1.287c0.381-0.657,0.678-1.167,1.005-1.727
	c-0.926-0.146-1.744-0.276-2.521-0.398c-0.034-1.712,1.029-3.025,0.752-4.553c-0.931-0.198-1.695,0.944-2.665-0.009
	c0.181-1.084,0.374-2.248,0.575-3.459c-1.411-0.055-2.389,1.407-3.779,0.433c0.082-0.901,0.162-1.802,0.246-2.742
	c-1.922,0.549-1.922,0.549-3.106,0.257c-0.172-0.881-0.36-1.856-0.562-2.877c-0.566,0.197-1.129,0.393-1.633,0.567
	c-1.366-0.879-0.141-1.954-0.399-2.937c-0.766-0.039-1.617,0.591-2.395-0.318c0.223-0.852,0.461-1.764,0.75-2.865
	c-0.989,0.057-1.78,0.104-2.643,0.15c-0.419-0.276-0.752-0.615-0.246-1.281c0.402,0.11,0.823,0.227,1.376,0.377
	c0.308-0.648,0.604-1.273,0.932-1.968c-0.83-0.13-1.495-0.235-2.217-0.35c0.433-1.873,0.822-3.547,1.21-5.219
	c-0.599-0.126-1.071-0.228-1.676-0.354c0.266-1.26,0.505-2.4,0.744-3.539c-0.479-0.176-0.878-0.323-1.321-0.485
	c0.453-1.502,1.638-2.558,1.915-4.168c-1.104,0-2.063,0-3.181,0c-0.065-0.488-0.115-0.895-0.215-1.656
	c0.816,0.308,1.326,0.501,1.899,0.717c0.735-0.92,1.485-1.857,2.281-2.856c-0.791-0.232-1.379-0.402-2.263-0.662
	c0.684-0.59,1.084-0.977,1.526-1.303c0.47-0.344,0.982-0.628,1.487-0.947c-0.52-0.39-0.907-0.679-1.563-1.167
	c1.435-0.576,2.571-1.029,3.817-1.527c-0.724-0.54-1.303-0.974-1.971-1.472c1.506-0.997,3.073-0.648,4.53-0.961
	c-0.091-0.449-0.163-0.817-0.247-1.241c1.865-0.601,3.563,0.763,5.44,0.261c-0.349-0.742-0.646-1.372-1.036-2.208
	c2.883-0.598,5.129,1.156,7.712,1.604c-0.207-0.577-0.364-1.023-0.542-1.524c0.747-0.236,1.378-0.436,1.99-0.632
	c0.457,0.169,0.889,0.33,1.362,0.506c0.831-0.229,1.68-0.448,2.52-0.695c1.909-0.565,3.191-1.968,4.017-3.615
	c1.984-3.964-1.555-7.041-5.001-7.506c-1.475-0.198-3.038,0.252-4.665,0.417c-0.06-0.337-0.119-0.688-0.18-1.026
	c-1.846-0.275-3.25,0.82-4.963,1.664c-0.113-0.65-0.188-1.077-0.267-1.531c-1.138,0.161-1.942,0.888-2.755,1.6
	c-0.494,0.436-0.943,1.007-1.896,0.576c-0.078-0.495-0.171-1.073-0.298-1.883c-0.556,0.35-1.122,0.539-1.434,0.932
	c-1.084,1.37-2.071,2.817-3.119,4.218c-0.347,0.462-0.765,0.87-1.248,1.414c-0.464-0.628-0.782-1.057-1.263-1.704
	c-0.975,1.803-1.867,3.454-2.81,5.197c-0.374,0.177-0.819,0.388-1.226,0.579c-1.099-0.876-0.616-2.067-0.819-3.204
	c-0.256,0.165-0.474,0.231-0.565,0.376c-0.655,1.039-1.358,2.058-1.899,3.156c-0.308,0.624-0.583,1.163-1.321,1.449
	c-0.397-0.599-0.769-1.155-1.299-1.956c-0.438,1.363-0.838,2.421-1.108,3.512c-0.244,0.985-0.742,1.625-1.483,1.693
	c-0.488,1.576-0.92,2.972-1.342,4.338c-0.656,0.174-1.13,0.298-1.804,0.477c0,1.513-0.014,3.047,0.007,4.579
	c0.01,0.675,0.127,1.361-0.673,1.689c-0.322-0.126-0.629-0.245-1.015-0.396c-0.475,2.803,0.141,5.324,1.099,7.877
	c-0.203,0.3-0.411,0.609-0.924,1.374c-0.506-0.701-0.877-1.213-1.373-1.901c0,0.555-0.086,0.922,0.012,1.235
	c0.752,2.418,1.72,4.74,3.205,6.821c0.582,0.818,1.109,1.676,1.607,2.434c-0.267,0.543-0.423,0.858-0.608,1.238
	c-0.938-0.323-1.82-0.626-2.884-0.991c1.214,2.405,3.574,3.245,5.177,5.041c-0.12,0.488-0.249,0.992-0.349,1.393
	c1.424,1.231,3.475,1.671,4.076,3.892c-0.733,0.063-1.247,0.106-1.843,0.159c1.255,1.517,3.537,1.468,4.537,3.492
	c-0.551,0.2-0.996,0.392-1.458,0.53c-1.53,0.457-3.079,0.853-4.594,1.354c-2.639,0.873-4.785,2.491-6.851,4.333
	c-2.76,2.463-5.225,5.109-6.979,8.389c-1.073,2.008-2.294,3.916-3.99,5.481c-1.586,1.465-3.183,2.909-5.11,3.607
	c-0.346,2.41-0.379,4.844-1.09,7.059c-0.919,2.881-0.819,5.888-1.648,8.733c0.309,0.254,0.566,0.466,0.879,0.725
	c-0.428,0.453-0.795,0.838-1.162,1.225c0.043,0.067,0.086,0.135,0.127,0.202c0.486-0.156,0.973-0.312,1.652-0.53
	c-0.438,1.58-1.457,2.079-2.836,2.248c-0.175,0.404-0.361,0.836-0.605,1.399c1.284,0.164,2.334,0.295,3.521,0.446
	c-0.137,0.414-0.227,0.678-0.323,0.972c-1.244-0.072-2.414-0.141-3.527-0.206c-0.814,0.801-1.525,1.519-1.785,2.613
	c1.402,0.724,3.06,0.687,4.362,1.749c-0.232,0.283-0.407,0.503-0.56,0.689c-1.446-0.436-2.806-0.846-3.91-1.177
	c-0.935,0.986-1.666,1.754-2.411,2.539c-0.506-0.222-0.913-0.398-1.361-0.596c-0.224,0.28-0.401,0.503-0.679,0.853
	c2.146,1.195,4.198,2.337,6.274,3.492c-0.113,0.359-0.186,0.587-0.317,1.016c-2.402-1.311-4.693-2.56-7.051-3.844
	c-0.534,0.277-1.064,0.554-1.596,0.831c0.12,0.421,0.202,0.701,0.297,1.023c-0.527,0.62-1.048,1.236-1.592,1.875
	c-0.523-0.265-0.925-0.469-1.318-0.669c-0.482,0.176-0.928,0.312-1.351,0.5c-1.1,0.488-2.195,0.878-3.433,0.491
	c-0.328-0.104-0.726-0.055-1.078,0.002c-2.131,0.344-4.258,0.722-6.389,1.068c-2.207,0.358-3.465,1.83-4.529,3.743
	c0.955,0.319,1.793,0.601,2.65,0.888c1.215-2.353,2.584-4.259,5.371-4.826c-0.254,0.671-0.428,1.134-0.601,1.593
	c-1.388,0.851-2.644,1.792-2.772,3.688c0.276,0.147,0.527,0.28,0.723,0.386c0.974-1.302,1.888-2.523,2.775-3.709
	c0.804,0.073,1.417-0.451,2.082,0.032c-1.964,2.266-2.112,3.054-0.859,4.538c0.572,0.115,1.174,0.237,1.977,0.398
	c0.752-0.595,1.588-1.253,2.556-2.018c0.651-0.047,1.472-0.104,2.159-0.154c0.561-0.455,1.033-0.837,1.592-1.289
	c0.317,0.562,0.512,0.902,0.736,1.301c0.417-0.065,0.802-0.125,1.142-0.178c0.17-0.644,0.315-1.183,0.475-1.783
	c0.467,0,0.872,0,1.175,0c0.38,0.598-0.263,1.268,0.627,1.772c0.108-0.811,0.198-1.48,0.299-2.233
	c0.342-0.056,0.661-0.106,1.092-0.177c0.062,0.806,0.115,1.495,0.176,2.32c0.949-0.084,1.791-0.157,2.604-0.229
	c0.062-0.562,0.107-0.959,0.155-1.391c0.356,0,0.646,0,0.961,0c0.227,0.448,0.428,0.85,0.653,1.298
	c0.518-0.033,0.987-0.064,1.541-0.103c-0.408-0.628-0.716-1.1-1.105-1.699c1.817-0.43,1.915,0.916,2.385,1.822
	c0.446-0.047,0.842-0.088,1.351-0.138c-0.334-0.727-0.62-1.354-0.92-2.009c1.378-0.177,1.378-0.177,2.139,1.891
	c0.612-0.042,1.248-0.086,2.043-0.143c-0.562-0.862-0.999-1.534-1.56-2.395c0.525-0.032,1.035-0.193,1.144-0.052
	c0.551,0.732,0.997,1.544,1.565,2.468c0.314-0.028,0.835-0.074,1.361-0.121c-0.17-1.162-1.587-1.434-1.384-2.796
	c1.742,0.303,2.419,1.547,2.934,2.997c0.603-0.053,1.13-0.097,2.043-0.173c-0.836-1.146-1.46-2.004-2.086-2.858
	c0.109-0.092,0.218-0.184,0.329-0.275c1.796,0.157,2.334,1.634,2.848,3.205c0.597-0.118,1.113-0.223,1.841-0.368
	c-0.734-1.151-1.333-2.086-1.944-3.04c1.427-0.436,1.693-0.181,3.006,2.786c0.291-0.071,0.596-0.147,1.015-0.252
	c-0.552-0.94-1.021-1.746-1.644-2.809c0.664,0.077,1.147-0.011,1.298,0.175c0.59,0.723,1.073,1.535,1.646,2.384
	c0.74-0.004,1.458-0.261,1.837-1.104c-0.361-0.422-0.674-0.79-1.154-1.351c0.729-0.068,1.205-0.113,1.92-0.18
	c-0.316-0.801-0.604-1.53-0.835-2.112c-1.187-0.727-2.209-1.329-3.206-1.968c-2.271-1.453-4.582-2.758-7.393-2.805
	c-0.896-0.016-1.764-0.218-2.124-1.404c0.17-0.36,0.378-0.809,0.549-1.17c1.482-0.402,2.678,0.013,3.895,0.514
	c0.985,0.407,2.022,0.824,3.069,0.934C107.527,144.025,111.58,144.316,115.901,144.676z M62.445,138.897
	c1.375-1.233,1.958-0.948,4.201,2.011c-0.062,1.198,0.136,2.33,1.623,2.973c0.955-0.302,2.025-0.638,3.027-0.953
	c0.221-0.443,0.397-0.798,0.541-1.089c0.91-0.283,1.79,0.78,2.691-0.183c-0.565-0.147-0.998-0.259-1.808-0.469
	c0.755-0.545,1.213-0.875,1.646-1.187c-0.031-0.373-0.074-0.842-0.117-1.339c-0.596-0.405-1.233-0.838-2.061-1.398
	c1.83-0.464,2.729,0.534,3.721,1.448c2.597-0.141,5.213-0.284,7.974-0.435c0.717-1.048,1.48-2.078,2.152-3.165
	c1.223-1.976,2.479-3.968,2.483-6.399c0-1.133,0.372-2.113,0.883-3.06c1.278-2.365,1.518-4.915,1.303-7.519
	c-0.173-2.062-1.06-3.889-2.126-5.853c-0.664,0.831-1.189,1.489-1.858,2.323c0.956,0.184,1.646,0.317,2.426,0.467
	c-1.158,1.271-2.756,0.062-3.852,0.998c0.81,0.301,1.597,0.457,2.391,0.57c0.816,0.121,1.555,0.303,1.746,1.241
	c-1.916-0.192-3.744-0.374-5.566-0.555c-0.372,0.453-0.646,0.787-1.108,1.351c2.456,0.169,4.641,0.423,6.643,1.448
	c-2.502,0.771-4.907-0.72-7.644-0.226c2.112,1.46,4.68,1.383,6.464,3.04c-0.557,0.134-1.104,0.172-1.587,0.021
	c-1.575-0.489-3.124-1.057-4.689-1.572c-0.245-0.08-0.527-0.045-0.792-0.063c-0.039,0.101-0.078,0.203-0.119,0.305
	c0.599,0.341,1.171,0.739,1.8,1.011c1.464,0.63,2.958,1.188,4.432,1.8c0.441,0.185,1.008,0.322,0.849,1.154
	c-3.25-0.741-6.187-2.168-9.301-3.521c0.177-0.587,0.298-1.129,0.498-1.644c1.172-3.036,3.304-5.309,5.854-7.234
	c0.417-0.315,0.975-0.501,1.066-1.274c-1.749,0.314-3.402,0.588-4.795,1.481c-2.342,1.498-4.726,2.971-6.558,5.134
	c-0.777,0.917-1.757,1.37-2.96,1.451c-2.361,0.159-4.721,0.402-7.086,0.541c-0.955,0.058-1.923-0.068-2.604-0.1
	c-2.691-2.448-4.04-5.698-7.091-7.365c2.672,2.41,3.699,5.715,5.02,8.884c-0.57,0.652-1.205,1.116-2.281,0.673
	c-0.312-0.499-0.685-1.094-0.912-1.456c-2.248,0.372-4.322,0.684-6.384,1.072c-1.025,0.193-2.192,0.063-3.075,1.123
	c0.269,0.779,0.472,1.634,0.848,2.405c0.527,1.089,0.54,2.111,0.197,3.274c-1.195,4.083-0.233,7.62,2.936,10.559
	c1.278,0.269,2.633-0.978,4.175,0.199c-1.243,0.292-2.28,0.534-3.321,0.775c0.018,0.141,0.033,0.28,0.049,0.419
	c1.312,0.847,2.602-0.18,3.814-0.146c1.086-1.573,1.447-1.802,2.558-1.623c-0.351,0.405-0.675,0.778-1.042,1.2
	c0.238,0.255,0.436,0.464,0.629,0.669c-0.109,0.303-0.214,0.596-0.331,0.926c1.948,0.069,1.948,0.069,2.085,0.786
	c-0.444,0.051-0.886,0.103-1.328,0.154c0,0.136,0.002,0.271,0.003,0.408c0.872,0.079,1.743,0.159,2.692,0.246
	c0.24-0.427,0.312-1.223,1.187-0.713c0,0.325,0,0.657,0,1.033c0.443,0.101,0.838,0.19,1.263,0.287
	c0.337-0.267,0.656-0.515,1.031-0.811c0.13-0.84,0.264-1.694,0.388-2.505C64.363,140.183,63.012,140.218,62.445,138.897z
	 M44.418,152.158c-0.132,1.448,0.655,2.381,1.736,3.322c2.154,0.338,4.205-0.497,6.271-1.021c0.189-2.256,0.078-3.115-0.562-3.859
	c-0.263-0.132-0.667-0.342-1.062-0.543c-2.529,0.643-5.036,0.659-7.577,0.5c-1.238-0.08-2.604-0.062-3.558,1.013
	c-0.293,1.257-0.673,2.504,0.486,3.482c0.614,0.518,1.334,0.717,2.1,0.283C41.854,152.638,42.543,151.539,44.418,152.158z
	 M74.141,143.765c-1.227,0.192-2.188,0.303-3.131,0.499c-0.948,0.193-1.879,0.469-2.559,0.642c-0.672,0.78-1.188,1.378-1.582,1.836
	c-1.139,0.067-1.884-0.179-2.561-0.73c-1.067-0.874-2.338-1.289-3.695-1.236c-1.142,0.043-2.135-0.094-2.919-1.021
	c-0.383-0.453-0.84-0.561-1.349,0.14c1.844,0.796,2.936,2.755,5.191,2.998c0.127,0.29,0.285,0.657,0.426,0.977
	c4.121,2.153,11.254,0.985,14.258-3.189C75.421,144.328,74.645,143.986,74.141,143.765z M55.274,117.26
	c-2.485-0.218-4.687-0.701-6.97,0.286c-0.091,0.324-0.207,0.734-0.327,1.155c1.237,0.494,2.348,0.138,3.459,0.03
	c1.176-0.114,2.354-0.223,3.533-0.285c0.239-0.015,0.49,0.191,1.071,0.44c-1.58,0.676-2.933,0.523-4.219,0.688
	c-1.352,0.173-2.721,0.22-4.22,0.329c-0.083,0.588-0.175,1.241-0.281,1.984c3.306-0.598,6.364-1.15,9.743-1.761
	C56.358,118.996,55.809,118.114,55.274,117.26z M82.439,139.588c-3.521-0.287-5.311-0.107-6.612,0.782
	c1.867,0.528,3.536,0.743,5.259,0.813C81.519,140.673,81.906,140.217,82.439,139.588z M79.302,142.464
	c-0.058-0.14-0.116-0.28-0.175-0.42c-1.084-0.156-2.168-0.309-3.3-0.47c-0.198,0.574-0.335,0.976-0.487,1.412
	c0.437,0.192,0.754,0.346,1.082,0.475c0.373,0.147,0.754,0.272,1.227,0.441C78.207,143.417,78.754,142.94,79.302,142.464z
	 M53.943,116.093c-1.419-0.737-2.946-1.023-4.565-0.942c-0.092,0.318-0.193,0.673-0.271,0.942
	C50.688,116.093,52.146,116.093,53.943,116.093z M49.785,114.176c1.11,0.123,1.982,0.222,3.179,0.356
	c-0.786-1.104-1.548-1.609-2.584-2.027C50.189,113.039,50.025,113.5,49.785,114.176z M67.361,144.777
	c-0.49-0.391-0.897-0.715-1.338-1.065c-0.438,0.549-0.749,0.938-1.205,1.509c0.617,0.237,1.104,0.427,1.646,0.636
	C66.784,145.473,67.032,145.176,67.361,144.777z M56.408,141.991c-0.579,0.089-1.162,0.179-2.025,0.311
	C55.484,142.894,55.484,142.894,56.408,141.991z"/>
<path class="stroke" fill="#183046"  fill-rule="evenodd" clip-rule="evenodd" d="M91.786,73.048c0-0.858,0-1.817,0-2.958c-2.612,0.188-5.104,0.327-7.488-0.187
	c-1.462-2.032-0.437-4.003-0.42-6.154c2.531-0.138,4.958-0.271,7.323-0.399c0.695-1.349-0.764-3.128,1.16-4.219
	c0.741,0.384,1.549,0.71,2.256,1.187c1.531,1.036,3.034,2.119,4.5,3.248c0.797,0.613,1.71,1.164,2.098,2.396
	c-0.361,0.404-0.727,0.89-1.165,1.294c-2.073,1.919-4.16,3.82-6.251,5.719C93.223,73.498,92.605,73.8,91.786,73.048z"/>
<path class="stroke" fill="#183046"  fill-rule="evenodd" clip-rule="evenodd" d="M100.622,118.547c0.737-1.287,1.469-2.563,2.242-3.908
	c0.453,0.203,0.757,0.336,1.138,0.505c0.272-0.105,0.637-0.248,1.171-0.456c-0.046,1.877-1.08,3.159-1.876,4.703
	C102.528,118.684,101.404,119.935,100.622,118.547z"/>
<path class="stroke" fill="#183046"  fill-rule="evenodd" clip-rule="evenodd" d="M119.053,48.837c-0.594,1.951-1.151,3.786-1.749,5.739
	c-0.464,0.063-0.788-0.259-0.837-0.842c-0.138-1.682,0.241-3.264,1.116-4.696C117.968,48.407,118.111,48.438,119.053,48.837z"/>
<path class="stroke" fill="#183046"  fill-rule="evenodd" clip-rule="evenodd" d="M114.596,65.094c-0.812,0.012-0.938-0.601-1.133-1.11
	c-0.632-1.651-1.122-3.317-0.254-5.194c0.307-0.028,0.674-0.061,0.971-0.088C114.324,60.886,114.456,62.941,114.596,65.094z"/>
<path class="stroke" fill="#183046"  fill-rule="evenodd" clip-rule="evenodd" d="M153.679,134.501c0.431-0.024,0.789-0.046,1.04-0.062
	c0.289,1.082,0.377,2.089,0.825,2.896c0.413,0.747,1.21,1.283,1.979,2.053C154.842,139.504,153.39,137.609,153.679,134.501z"/>
<path class="stroke" fill="#183046"  fill-rule="evenodd" clip-rule="evenodd" d="M111.869,69.941c0.228-0.205,0.396-0.405,0.607-0.533
	c0.162-0.098,0.379-0.104,0.711-0.184c0.266,1.711,0.44,3.419,1.979,4.625C113.195,74.171,112.477,73.272,111.869,69.941z"/>
<path class="stroke" fill="#183046"  fill-rule="evenodd" clip-rule="evenodd" d="M140.26,36.763c-0.117,1.228-1.282,0.957-1.833,1.494
	c-0.585,0.572-1.289,1.021-2.028,1.591c-0.332-0.103-0.695-0.21-1.203-0.365c0.256-0.366,0.383-0.636,0.585-0.825
	C137.688,36.86,138.818,36.368,140.26,36.763z"/>
<path class="stroke" fill="#183046"  fill-rule="evenodd" clip-rule="evenodd" d="M120.495,122.627c0.462-0.205,0.762-0.338,1.313-0.582
	c0.85,1.075,1.705,2.157,2.743,3.47c-0.115,0.443-0.747,0.311-1.295,0C122.125,124.879,121.211,124.001,120.495,122.627z"/>
<path class="stroke" fill="#183046"  fill-rule="evenodd" clip-rule="evenodd" d="M139.84,133.577c-0.512,0.425-0.985,0.816-1.642,1.359
	c-0.583-0.236-1.294-0.525-2.265-0.918c0.798-0.751,1.361-1.279,1.94-1.823C138.729,132.48,139.689,132.449,139.84,133.577z"/>
<path class="stroke" fill="#183046"  fill-rule="evenodd" clip-rule="evenodd" d="M104.276,119.942c0.662-1.771,1.596-3.074,3.391-4.001
	c-0.104,1.103-0.646,1.71-1.023,2.386c-0.395,0.705-0.781,1.412-1.257,2.277C104.981,120.363,104.634,120.156,104.276,119.942z"/>
<path class="stroke" fill="#183046"  fill-rule="evenodd" clip-rule="evenodd" d="M136.604,41.481c1.608-2.098,3.195-2.738,4.608-1.815
	c-0.202,0.17-0.365,0.346-0.562,0.466c-0.777,0.479-1.58,0.919-2.346,1.416C137.747,41.911,137.234,42.167,136.604,41.481z"/>
<path class="stroke" fill="#183046"  fill-rule="evenodd" clip-rule="evenodd" d="M128.122,45.095c0.353-0.368,0.72-0.728,1.058-1.111
	c0.336-0.384,0.641-0.796,1.042-1.296c0.353,0,0.778,0,1.19,0c0.028,0.203,0.093,0.341,0.051,0.398
	c-0.722,0.921-1.427,1.861-2.211,2.729c-0.182,0.203-0.661,0.245-0.97,0.188c-0.16-0.029-0.251-0.439-0.374-0.681
	C127.979,45.246,128.053,45.171,128.122,45.095z"/>
<path class="stroke" fill="#183046"  fill-rule="evenodd" clip-rule="evenodd" d="M114.266,78.744c0.374-0.139,0.722-0.269,1.072-0.4
	c0.422,1.227,0.803,2.337,1.18,3.437C114.863,81.948,114.261,81.218,114.266,78.744z"/>
<path class="stroke" fill="#183046"  fill-rule="evenodd" clip-rule="evenodd" d="M96.347,121.068c-0.847,0.977-1.695,1.954-2.542,2.931
	c-0.317-0.076-0.518-0.104-0.701-0.174c-0.191-0.073-0.372-0.184-0.396-0.198c0.07-0.927,2.32-2.651,3.361-2.826
	C96.162,120.89,96.254,120.979,96.347,121.068z"/>
<path class="stroke" fill="#183046"  fill-rule="evenodd" clip-rule="evenodd" d="M107.15,122.343c-0.486-0.321-0.762-0.504-1.148-0.757
	c0.315-0.547,0.536-1.066,0.877-1.488c0.516-0.646,0.929-1.49,2.186-1.438C108.771,120.088,107.819,121.02,107.15,122.343z"/>
<path class="stroke" fill="#183046"  fill-rule="evenodd" clip-rule="evenodd" d="M122.736,81.198c-1.367,0.616-2.407-0.418-2.7-2.691
	c0.3-0.068,0.613-0.138,0.911-0.204C121.562,79.295,122.12,80.201,122.736,81.198z"/>
<path class="stroke" fill="#183046"  fill-rule="evenodd" clip-rule="evenodd" d="M115.789,69.679c0.501,1.373,0.934,2.559,1.405,3.844
	c-1.489-0.239-2.231-1.497-2.207-3.484C115.174,69.956,115.391,69.858,115.789,69.679z"/>
<path class="stroke" fill="#183046"  fill-rule="evenodd" clip-rule="evenodd" d="M145.528,39.444c1.536-1.284,2.952-1.423,3.947-0.385
	C146.654,40.274,146.503,40.289,145.528,39.444z"/>
<path class="stroke" fill="#183046"  fill-rule="evenodd" clip-rule="evenodd" d="M119.176,81.926c-1.564,0.066-2.026-0.597-2.356-3.221
	c0.331-0.077,0.677-0.157,1.043-0.242C118.326,79.687,118.742,80.783,119.176,81.926z"/>
<path class="stroke" fill="#183046"  fill-rule="evenodd" clip-rule="evenodd" d="M116.96,98.188c-0.727,0.872-1.433,1.722-2.204,2.651
	c-0.259-0.126-0.508-0.245-0.745-0.359C114.722,98.192,115.587,97.49,116.96,98.188z"/>
<path class="stroke" fill="#183046"  fill-rule="evenodd" clip-rule="evenodd" d="M126.333,122.914c-1.372,0.586-2.512,0.046-3.741-1.576
	c0.215-0.178,0.433-0.357,0.788-0.65C124.321,121.397,125.237,122.089,126.333,122.914z"/>
<path class="stroke" fill="#183046"  fill-rule="evenodd" clip-rule="evenodd" d="M121.443,50.347c-0.479,1.23-0.865,2.22-1.293,3.313
	c-0.337-0.107-0.642-0.206-0.974-0.312c-0.073-1.223,0.478-2.137,1.054-3.141C120.565,50.247,120.896,50.284,121.443,50.347z"/>
<path class="stroke" fill="#183046"  fill-rule="evenodd" clip-rule="evenodd" d="M114.555,127.412c0.039,1.381-0.777,2.273-1.646,3.251
	c-0.367-0.191-0.655-0.341-1.02-0.528C112.477,128.87,113.434,128.099,114.555,127.412z"/>
<path class="stroke" fill="#183046"  fill-rule="evenodd" clip-rule="evenodd" d="M149.551,41.879c-1.277,0.006-1.882,1.875-3.608,1.056
	c0.525-1.104,1.329-1.635,2.348-1.865C148.808,40.951,149.319,41.001,149.551,41.879z"/>
<path class="stroke" fill="#183046"  fill-rule="evenodd" clip-rule="evenodd" d="M149.825,36.939c-1.261-0.097-2.515,0.875-3.997-0.135
	c1.053-0.982,2.224-0.807,3.288-0.919c0.278-0.027,0.597,0.319,0.896,0.493C149.951,36.566,149.888,36.755,149.825,36.939z"/>
<path class="stroke" fill="#183046"  fill-rule="evenodd" clip-rule="evenodd" d="M121.63,53.03c0.635-1.073,0.517-2.531,2.165-2.935
	c0.505,1.543-0.79,2.226-1.092,3.393C122.317,53.323,122.029,53.201,121.63,53.03z"/>
<path class="stroke" fill="#183046"  fill-rule="evenodd" clip-rule="evenodd" d="M128.122,45.095c-0.069,0.076-0.143,0.151-0.214,0.227
	c-0.547,0.247-0.971,1.017-1.81,0.353c0.228-1.231,0.959-2.074,1.943-2.798C128.921,43.721,128.094,44.401,128.122,45.095z"/>
<path class="stroke" fill="#183046"  fill-rule="evenodd" clip-rule="evenodd" d="M116.708,64.242c-1.522-0.665-0.727-2.099-0.939-3.287
	c0.351-0.062,0.63-0.11,1.046-0.182c0.13,1.172,0.247,2.248,0.367,3.326C117.022,64.146,116.865,64.195,116.708,64.242z"/>
<path class="stroke" fill="#183046"  fill-rule="evenodd" clip-rule="evenodd" d="M133.938,44.437c-0.867,0.744-1.651,1.419-2.485,2.136
	c-0.35-0.223-0.625-0.398-0.903-0.574C131.622,44.379,132.479,43.959,133.938,44.437z"/>
<path class="stroke" fill="#183046"  fill-rule="evenodd" clip-rule="evenodd" d="M138.647,42.831c1.309-0.355,2.082-1.827,3.735-1.088
	C141.107,43.37,139.892,43.771,138.647,42.831z"/>
<path class="stroke" fill="#183046"  fill-rule="evenodd" clip-rule="evenodd" d="M122.307,101.46c-1.115,0.821-1.96,1.444-2.857,2.105
	c-0.287-0.215-0.514-0.387-0.676-0.508C118.651,102.05,120.643,101.029,122.307,101.46z"/>
<path class="stroke" fill="#183046"  fill-rule="evenodd" clip-rule="evenodd" d="M100.484,132.085c-0.191,1.365-0.195,2.406-1.057,3.326
	c-0.34-0.147-0.672-0.291-1.091-0.471C98.871,133.896,98.983,132.736,100.484,132.085z"/>
<path class="stroke" fill="#183046"  fill-rule="evenodd" clip-rule="evenodd" d="M109.124,125.562c0.874-0.8,1.67-1.527,2.501-2.285
	c0.547,1.246,0.422,1.489-1.373,2.822c-0.144-0.021-0.354-0.013-0.53-0.087C109.553,125.943,109.419,125.792,109.124,125.562z"/>
<path class="stroke" fill="#183046"  fill-rule="evenodd" clip-rule="evenodd" d="M98.957,118.126c-0.268-0.154-0.555-0.317-0.912-0.521
	c0.508-1,0.757-2.049,1.679-2.727C100.443,115.963,100.309,116.529,98.957,118.126z"/>
<path class="stroke" fill="#183046"  fill-rule="evenodd" clip-rule="evenodd" d="M124.74,119.075c1.095-0.867,1.434-0.743,3.219,1.089
	C127.068,120.894,126.724,120.781,124.74,119.075z"/>
<path class="stroke" fill="#183046"  fill-rule="evenodd" clip-rule="evenodd" d="M131.855,128.379c-0.037,0.256-0.066,0.449-0.103,0.7
	c-1.316,0.321-2.093-0.396-2.817-1.28C129.632,127.119,129.632,127.119,131.855,128.379z"/>
<path class="stroke" fill="#183046"  fill-rule="evenodd" clip-rule="evenodd" d="M95.336,124.405c0.93-1.213,1.547-2.202,3.2-2.559
	c-0.674,1.135-1.174,1.979-1.765,2.975C96.352,124.698,95.97,124.589,95.336,124.405z"/>
<path class="stroke" fill="#183046"  fill-rule="evenodd" clip-rule="evenodd" d="M108.873,123.869c-0.451-0.148-0.763-0.251-1.199-0.394
	c0.221-0.405,0.337-0.742,0.552-0.991c0.57-0.659,1.013-1.595,2.437-1.184C110.046,122.181,109.511,122.95,108.873,123.869z"/>
<path class="stroke" fill="#183046"  fill-rule="evenodd" clip-rule="evenodd" d="M127.775,96.955c-0.754,0.642-1.455,1.239-2.222,1.893
	c-0.34-1.247-0.137-1.838,0.714-2.338C126.781,96.209,127.304,96.02,127.775,96.955z"/>
<path class="stroke" fill="#183046"  fill-rule="evenodd" clip-rule="evenodd" d="M118.193,69.92c0.539-0.025,0.866-0.041,1.171-0.057
	c0.264,0.746,0.498,1.4,0.763,2.142c-0.294,0.757-0.784,0.708-1.49,0.117C118.519,71.539,118.379,70.845,118.193,69.92z"/>
<path class="stroke" fill="#183046"  fill-rule="evenodd" clip-rule="evenodd" d="M103.694,137.365c-0.268,0.124-0.54,0.238-0.802,0.376
	c-0.511,0.271-0.511,0.267-1.395-0.272c0.635-0.774,1.227-1.554,2.259-1.846c0.774,0.71-0.205,1.21-0.121,1.796L103.694,137.365z"/>
<path class="stroke" fill="#183046"  fill-rule="evenodd" clip-rule="evenodd" d="M112.416,98.246c0.611,0.151,1.006,0.248,1.6,0.395
	c-0.66,0.92-1.172,1.634-1.764,2.461c-0.239-0.278-0.539-0.486-0.51-0.617C111.91,99.771,112.156,99.077,112.416,98.246z"/>
<path class="stroke" fill="#183046"  fill-rule="evenodd" clip-rule="evenodd" d="M135.962,94.888c0.604,0.078,0.983,0.125,1.624,0.207
	c-0.327,0.64-0.532,1.132-0.819,1.572c-0.299,0.468-0.645,0.971-1.527,0.411C135.455,96.425,135.679,95.741,135.962,94.888z"/>
<path class="stroke" fill="#183046"  fill-rule="evenodd" clip-rule="evenodd" d="M105.861,140.438c-0.271,0.012-0.478,0.047-0.676,0.021
	c-0.141-0.019-0.272-0.118-0.501-0.224c0.08-0.276,0.088-0.602,0.249-0.812c0.541-0.708,1.17-1.283,2.455-0.857
	C106.813,139.271,106.33,139.861,105.861,140.438z"/>
<path class="stroke" fill="#183046"  fill-rule="evenodd" clip-rule="evenodd" d="M134.916,94.102c-0.44,0.643-0.812,1.186-1.238,1.808
	c-0.354-0.165-0.649-0.304-0.922-0.43C133.059,93.645,133.624,93.26,134.916,94.102z"/>
<path class="stroke" fill="#183046"  fill-rule="evenodd" clip-rule="evenodd" d="M127.206,99.811c1.034-1.79,1.649-2.1,2.698-1.433
	C129.012,99.703,128.216,100.155,127.206,99.811z"/>
<path class="stroke" fill="#183046"  fill-rule="evenodd" clip-rule="evenodd" d="M120.005,63.964c-0.538-0.254-0.828-0.39-1.12-0.524c0-0.784,0-1.483,0-2.239
	c0.211-0.108,0.423-0.215,0.7-0.355C120.311,61.758,120.105,62.72,120.005,63.964z"/>
<path class="stroke" fill="#183046"  fill-rule="evenodd" clip-rule="evenodd" d="M131.617,105.308c0.438-0.538,0.91-0.526,1.263-0.178
	c0.66,0.653,0.487,1.439,0.237,2.228C132.201,107.079,132.201,107.079,131.617,105.308z"/>
<path class="stroke" fill="#183046"  fill-rule="evenodd" clip-rule="evenodd" d="M100.887,149.395c-1.374-0.002-2.377-0.26-3.163-1.199
	C98.669,147.563,99.847,147.97,100.887,149.395z"/>
<path class="stroke" fill="#183046"  fill-rule="evenodd" clip-rule="evenodd" d="M124.693,87.083c1.283,0.448,1.99,1.42,2.654,2.72
	C126.124,89.518,125.121,88.517,124.693,87.083z"/>
<path class="stroke" fill="#183046"  fill-rule="evenodd" clip-rule="evenodd" d="M95.239,132.582c-0.472-0.126-0.785-0.209-1.114-0.298
	c-0.125-1.063,0.105-1.836,1.188-2.313C95.749,130.854,95.462,131.611,95.239,132.582z"/>
<path class="stroke" fill="#183046"  fill-rule="evenodd" clip-rule="evenodd" d="M122.802,78.467c0.487-0.12,0.851-0.21,1.187-0.293
	c0.673,0.553,1.337,0.99,1.408,2.035C124.1,80.112,123.418,79.494,122.802,78.467z"/>
<path class="stroke" fill="#183046"  fill-rule="evenodd" clip-rule="evenodd" d="M107.938,114.925c0.777-0.891,1.208-1.734,2.627-1.651
	c-0.46,0.848-0.802,1.476-1.223,2.252C108.865,115.32,108.492,115.161,107.938,114.925z"/>
<path class="stroke" fill="#183046"  fill-rule="evenodd" clip-rule="evenodd" d="M136.883,106.88c-0.404,0.064-0.554,0.117-0.694,0.1
	c-0.141-0.016-0.271-0.104-0.364-0.145c-0.328-0.502-0.034-1.885,0.529-2.528C137.604,104.968,136.858,105.935,136.883,106.88z"/>
<path class="stroke" fill="#183046"  fill-rule="evenodd" clip-rule="evenodd" d="M106.759,133.064c1.02-0.515,1.875-0.945,2.943-1.482
	C108.934,133.857,108.195,134.22,106.759,133.064z"/>
<path class="stroke" fill="#183046"  fill-rule="evenodd" clip-rule="evenodd" d="M130.91,92.81c0.29,0.02,0.544,0.006,0.782,0.063
	c0.127,0.031,0.228,0.182,0.468,0.391c-0.281,0.597-0.57,1.214-0.857,1.827C129.987,94.551,129.95,94.355,130.91,92.81z"/>
<path class="stroke" fill="#183046"  fill-rule="evenodd" clip-rule="evenodd" d="M124.431,95.43c0.121,1.222-0.925,1.473-1.344,2.16
	c-0.86-0.421-0.614-0.941-0.392-1.383C123.011,95.588,123.467,95.123,124.431,95.43z"/>
<path class="stroke" fill="#183046"  fill-rule="evenodd" clip-rule="evenodd" d="M98.235,131.146c-0.175,0.877-0.335,1.662-0.521,2.588
	c-0.538-0.224-0.839-0.349-1.12-0.464C96.846,131.523,96.945,131.381,98.235,131.146z"/>
<path class="stroke" fill="#183046"  fill-rule="evenodd" clip-rule="evenodd" d="M111.547,106.215c-0.479-0.338-0.749-0.529-0.967-0.683
	c-0.023-0.755,1.137-1.454,2.285-1.438C112.885,105.06,112.021,105.388,111.547,106.215z"/>
<path class="stroke" fill="#183046"  fill-rule="evenodd" clip-rule="evenodd" d="M121.195,69.499c0.416-0.229,0.625-0.345,0.817-0.45
	c1.028,0.929,1.069,1.203,0.396,2.498C121.247,71.231,121.818,70.113,121.195,69.499z"/>
<path class="stroke" fill="#183046"  fill-rule="evenodd" clip-rule="evenodd" d="M101.404,135.943c-0.487-0.182-0.836-0.313-1.248-0.47
	c0.388-0.909,0.78-1.634,1.709-2.002C102.654,134.439,101.811,135.038,101.404,135.943z"/>
<path class="stroke" fill="#183046"  fill-rule="evenodd" clip-rule="evenodd" d="M125.459,107.897c0.42-0.209,0.678-0.335,0.904-0.447
	c1.279,0.943,1.342,1.152,0.723,2.711C126.541,109.405,126.063,108.741,125.459,107.897z"/>
<path class="stroke" fill="#183046"  fill-rule="evenodd" clip-rule="evenodd" d="M126.073,51.104c0.411,0.111,0.771,0.21,1.329,0.362
	c-0.508,0.813-0.926,1.481-1.353,2.163C125.121,52.896,125.121,52.896,126.073,51.104z"/>
<path class="stroke" fill="#183046"  fill-rule="evenodd" clip-rule="evenodd" d="M103.636,137.419c0.531-0.229,1.062-0.46,1.666-0.721
	c-0.011,1.729-0.89,2.427-2.214,1.847c0.205-0.396,0.405-0.79,0.606-1.18L103.636,137.419z"/>
<path class="stroke" fill="#183046"  fill-rule="evenodd" clip-rule="evenodd" d="M99.824,126.476c-0.441-0.203-0.74-0.341-0.982-0.451
	c-0.155-0.794,0.798-1.535,2.256-1.681C100.653,125.087,100.291,125.692,99.824,126.476z"/>
<path class="stroke" fill="#183046"  fill-rule="evenodd" clip-rule="evenodd" d="M111.613,118.016c0.981-0.626,1.629-1.037,2.397-1.526
	c0.374,1.249-0.268,1.723-1.049,2.267C112.673,118.596,112.346,118.417,111.613,118.016z"/>
<path class="stroke" fill="#183046"  fill-rule="evenodd" clip-rule="evenodd" d="M130.088,117.689c-1.367,0.421-1.916-0.612-2.722-0.84
	c-0.048-0.713,0.319-0.953,0.745-0.869C128.993,116.15,129.617,116.7,130.088,117.689z"/>
<path class="stroke" fill="#183046"  fill-rule="evenodd" clip-rule="evenodd" d="M87.177,145.181c0.008,0.963-0.898,1.142-1.346,1.787
	c-0.437-0.249-0.77-0.437-1.049-0.597C84.815,145.591,86.023,145.035,87.177,145.181z"/>
<path class="stroke" fill="#183046"  fill-rule="evenodd" clip-rule="evenodd" d="M141.803,131.863c-1.4,0.55-2.34,0.031-2.482-1.248
	C140.444,130.34,141.063,131.017,141.803,131.863z"/>
<path class="stroke" fill="#183046"  fill-rule="evenodd" clip-rule="evenodd" d="M114.363,107.218c-0.744,1.678-1.115,1.879-2.264,1.305
	C112.614,107.312,112.803,107.195,114.363,107.218z"/>
<path class="stroke" fill="#183046"  fill-rule="evenodd" clip-rule="evenodd" d="M139.87,104.115c0.538,0.861,0.299,1.539-0.08,2.271
	c-0.313-0.029-0.556-0.054-0.779-0.074C138.62,104.787,138.686,104.608,139.87,104.115z"/>
<path class="stroke" fill="#183046"  fill-rule="evenodd" clip-rule="evenodd" d="M95.236,149.637c1.343-0.953,2.283-0.511,2.794,1.12
	C96.997,150.342,96.117,149.988,95.236,149.637z"/>
<path class="stroke" fill="#183046"  fill-rule="evenodd" clip-rule="evenodd" d="M87.213,146.891c0.851-0.386,1.644-0.746,2.597-1.179
	c0.074,1.022-0.315,1.541-1.021,1.814C88.188,147.763,87.601,147.768,87.213,146.891z"/>
<path class="stroke" fill="#183046"  fill-rule="evenodd" clip-rule="evenodd" d="M131.143,125.327c1.065-0.93,1.778-0.624,2.519,1.05
	C132.451,126.804,131.875,125.943,131.143,125.327z"/>
<path class="stroke" fill="#183046"  fill-rule="evenodd" clip-rule="evenodd" d="M135.342,125.234c-1.261,0.347-1.331-0.887-2.083-1.413
	c0.363-0.259,0.591-0.424,0.794-0.569C135.347,123.946,135.352,123.951,135.342,125.234z"/>
<path class="stroke" fill="#183046"  fill-rule="evenodd" clip-rule="evenodd" d="M141.946,45.989c-0.56-0.247-0.987-0.434-1.7-0.747
	c1.169-0.57,1.96-1.117,3.206-0.327C142.896,45.313,142.481,45.61,141.946,45.989z"/>
<path class="stroke" fill="#183046"  fill-rule="evenodd" clip-rule="evenodd" d="M91.48,137.679c-0.256-0.219-0.477-0.409-0.885-0.762
	c0.976-0.479,1.804-0.886,2.672-1.311C93.334,136.739,93.282,136.799,91.48,137.679z"/>
<path class="stroke" fill="#183046"  fill-rule="evenodd" clip-rule="evenodd" d="M123.867,110.066c0.476,0.729,1.221,1.207,0.668,2.139
	c-1.156,0.065-1.22-1.05-2.227-1.666C123.092,110.303,123.478,110.185,123.867,110.066z"/>
<path class="stroke" fill="#183046"  fill-rule="evenodd" clip-rule="evenodd" d="M127.914,106.573c0.604-0.11,0.887-0.163,1.17-0.215
	c0.624,0.735,1.129,1.424,0.596,2.465C128.344,108.703,128.644,107.429,127.914,106.573z"/>
<path class="stroke" fill="#183046"  fill-rule="evenodd" clip-rule="evenodd" d="M117.165,101.426c-0.354-0.324-0.561-0.511-0.889-0.808
	c0.387-0.378,0.694-0.687,1.01-0.986c0.462-0.437,0.954-0.502,1.721-0.024C118.39,100.218,117.849,100.753,117.165,101.426z"/>
<path class="stroke" fill="#183046"  fill-rule="evenodd" clip-rule="evenodd" d="M130.859,130.595c-1.214,0.559-2.01,0.169-2.842-0.642
	c0.232-0.221,0.404-0.521,0.63-0.57C129.208,129.26,129.673,129.549,130.859,130.595z"/>
<path class="stroke" fill="#183046"  fill-rule="evenodd" clip-rule="evenodd" d="M121.939,90.962c-1.064-0.604-1.916-1.308-2.733-2.284
	C120.481,88.556,121.604,89.549,121.939,90.962z"/>
<path class="stroke" fill="#183046"  fill-rule="evenodd" clip-rule="evenodd" d="M124.338,90.442c-1.236-0.332-1.718-1.334-2.391-2.296
	C123.036,88.022,124.246,89.246,124.338,90.442z"/>
<path class="stroke" fill="#183046"  fill-rule="evenodd" clip-rule="evenodd" d="M148.257,133.771c-1.173,0.875-1.823-0.076-2.684-0.41
	C146.533,132.355,146.977,132.424,148.257,133.771z"/>
<path class="stroke" fill="#183046"  fill-rule="evenodd" clip-rule="evenodd" d="M112.634,115.023c-0.321,0.626-0.642,1.249-1.029,2.001
	c-0.519-0.344-0.827-0.55-1.306-0.868c0.728-0.586,1.307-1.055,1.891-1.524C112.338,114.763,112.484,114.893,112.634,115.023z"/>
<path class="stroke" fill="#183046"  fill-rule="evenodd" clip-rule="evenodd" d="M104.452,126.008c-0.643,0.715-1.157,1.29-1.706,1.901
	c-0.382-0.238-0.625-0.39-0.831-0.52C101.951,126.633,103.058,125.987,104.452,126.008z"/>
<path class="stroke" fill="#183046"  fill-rule="evenodd" clip-rule="evenodd" d="M150.153,43.977c-0.589,0.557-0.974,0.922-1.409,1.334
	c-0.482-0.281-0.803-0.468-1.062-0.618C147.701,43.753,148.553,43.446,150.153,43.977z"/>
<path class="stroke" fill="#183046"  fill-rule="evenodd" clip-rule="evenodd" d="M104.088,107.149c0.517,1.156-0.151,1.63-0.486,2.417
	c-0.428-0.118-0.832-0.231-1.637-0.452C102.823,108.322,103.371,107.812,104.088,107.149z"/>
<path class="stroke" fill="#183046"  fill-rule="evenodd" clip-rule="evenodd" d="M82.021,150.432c-0.633,0.55-1.077,0.934-1.604,1.392
	c-0.364-0.267-0.659-0.482-0.883-0.646C79.592,150.29,80.378,150.041,82.021,150.432z"/>
<path class="stroke" fill="#183046"  fill-rule="evenodd" clip-rule="evenodd" d="M147.937,130.532c1.25-0.675,1.685-0.435,2.058,1.032
	C149.01,131.81,149.01,131.81,147.937,130.532z"/>
<path class="stroke" fill="#183046"  fill-rule="evenodd" clip-rule="evenodd" d="M121.975,61.066c1.027,0.587,0.895,1.318,0.643,2.135
	C121.406,62.652,121.293,62.309,121.975,61.066z"/>
<path class="stroke" fill="#183046"  fill-rule="evenodd" clip-rule="evenodd" d="M92.56,139.606c1.007-0.557,1.701-0.942,2.555-1.416
	c0.118,1.233-0.77,1.475-1.36,2.048C93.438,140.072,93.148,139.919,92.56,139.606z"/>
<path class="stroke" fill="#183046"  fill-rule="evenodd" clip-rule="evenodd" d="M129.119,89.106c-0.947-0.136-1.518-0.726-2.066-1.398
	C128.105,87.213,128.917,87.752,129.119,89.106z"/>
<path class="stroke" fill="#183046"  fill-rule="evenodd" clip-rule="evenodd" d="M108.295,111.661c-0.274,0.504-0.548,1.009-0.891,1.639
	c-0.434-0.236-0.753-0.41-1.326-0.722c0.74-0.526,1.275-0.904,1.812-1.284C108.024,111.416,108.16,111.538,108.295,111.661z"/>
<path class="stroke" fill="#183046"  fill-rule="evenodd" clip-rule="evenodd" d="M141.31,129.371c0.462-0.294,0.741-0.473,1.187-0.756
	c0.425,0.49,0.813,0.938,1.281,1.476C142.635,130.595,142.114,129.954,141.31,129.371z"/>
<path class="stroke" fill="#183046"  fill-rule="evenodd" clip-rule="evenodd" d="M105.145,129.792c0.693-0.295,1.302-0.555,1.975-0.843
	c0.386,0.896-0.146,1.145-0.627,1.407C105.943,130.653,105.549,130.488,105.145,129.792z"/>
<path class="stroke" fill="#183046"  fill-rule="evenodd" clip-rule="evenodd" d="M137.341,123.182c-0.48-0.328-0.98-0.674-1.575-1.082
	c0.558-0.613,1.018-0.832,1.568-0.387C137.777,122.072,137.963,122.524,137.341,123.182z"/>
<path class="stroke" fill="#183046"  fill-rule="evenodd" clip-rule="evenodd" d="M110.362,136.242c0.579-0.516,1.049-0.932,1.561-1.385
	c0.714,0.621,0.351,1.182,0.001,1.61C111.489,137.002,110.969,136.88,110.362,136.242z"/>
<path class="stroke" fill="#183046"  fill-rule="evenodd" clip-rule="evenodd" d="M92.242,131.833c-0.574-0.269-0.875-0.413-1.402-0.658
	c0.558-0.472,0.981-0.831,1.425-1.203C93.083,130.717,92.438,131.122,92.242,131.833z"/>
<path class="stroke" fill="#183046"  fill-rule="evenodd" clip-rule="evenodd" d="M102.729,148.068c-1.285,0.234-1.352,0.203-1.898-0.948
	C101.867,146.804,101.986,146.862,102.729,148.068z"/>
<path class="stroke" fill="#183046"  fill-rule="evenodd" clip-rule="evenodd" d="M92.731,142.668c0.824-0.485,1.366-0.806,2.037-1.202
	c0.369,1.147-0.509,1.296-0.907,1.813C93.523,143.098,93.272,142.962,92.731,142.668z"/>
<path class="stroke" fill="#183046"  fill-rule="evenodd" clip-rule="evenodd" d="M107.756,105.433c-0.205,0.439-0.408,0.877-0.688,1.478
	c-0.475-0.311-0.772-0.507-1.282-0.842c0.646-0.4,1.089-0.675,1.532-0.949C107.464,105.225,107.609,105.328,107.756,105.433z"/>
<path class="stroke" fill="#183046"  fill-rule="evenodd" clip-rule="evenodd" d="M133.666,46.687c0.985-1.083,1.052-1.095,1.91-0.425
	C134.701,47.322,134.701,47.322,133.666,46.687z"/>
<path class="stroke" fill="#183046"  fill-rule="evenodd" clip-rule="evenodd" d="M132.011,99.739c-0.055,1.396-0.153,1.47-1.429,1.171
	C130.516,99.948,131.115,99.785,132.011,99.739z"/>
<path class="stroke" fill="#183046"  fill-rule="evenodd" clip-rule="evenodd" d="M143.904,135.183c1.158-0.773,1.158-0.773,2.253,0.392
	C145.316,136.128,144.657,135.9,143.904,135.183z"/>
<path class="stroke" fill="#183046"  fill-rule="evenodd" clip-rule="evenodd" d="M121.543,104.472c0.491-0.041,0.98-0.081,1.423-0.119
	c0.293,0.679-0.035,0.984-0.435,1.021c-0.349,0.031-0.723-0.213-1.085-0.334C121.478,104.852,121.511,104.661,121.543,104.472z"/>
<path class="stroke" fill="#183046"  fill-rule="evenodd" clip-rule="evenodd" d="M107.689,140.545c0.642,0.331,0.779,0.669,0.488,1.101
	c-0.286,0.423-0.535,0.41-1.607-0.085C106.97,141.199,107.316,140.886,107.689,140.545z"/>
<path class="stroke" fill="#183046"  fill-rule="evenodd" clip-rule="evenodd" d="M130.379,113.624c0.382-0.037,0.826-0.208,1.13-0.069
	c0.226,0.103,0.267,0.607,0.392,0.933c-0.098,0.095-0.194,0.187-0.293,0.282c-0.433-0.202-0.867-0.405-1.302-0.607
	C130.33,113.983,130.354,113.804,130.379,113.624z"/>
<path class="stroke" fill="#183046"  fill-rule="evenodd" clip-rule="evenodd" d="M141.147,106.552c0.029-0.456,0.059-0.871,0.083-1.232
	c0.804-0.292,1.148,0.098,1.163,0.639C142.41,106.562,142.009,106.85,141.147,106.552z"/>
<path class="stroke" fill="#183046"  fill-rule="evenodd" clip-rule="evenodd" d="M95.931,116.141c0.445-0.09,0.814-0.167,1.437-0.293
	c-0.149,0.586-0.248,0.973-0.347,1.351C96.207,117.313,95.846,117.088,95.931,116.141z"/>
<path class="stroke" fill="#183046"  fill-rule="evenodd" clip-rule="evenodd" d="M139.127,119.914c0.039,0.633,0.061,0.992,0.084,1.389
	c-0.87,0.133-1.212-0.251-1.446-1.024C138.171,120.169,138.52,120.076,139.127,119.914z"/>
<path class="stroke" fill="#183046"  fill-rule="evenodd" clip-rule="evenodd" d="M124.861,69.544c-0.373-0.035-0.607-0.057-0.935-0.087
	c-0.028-0.364-0.054-0.684-0.085-1.062c0.34-0.063,0.609-0.117,1.02-0.195C124.861,68.696,124.861,69.082,124.861,69.544z"/>
<path class="stroke" fill="#183046"  fill-rule="evenodd" clip-rule="evenodd" d="M143.424,128.166c0.66-0.606,1.199-0.469,1.735,0.157
	C144.362,129.073,144.362,129.073,143.424,128.166z"/>
<path class="stroke" fill="#183046"  fill-rule="evenodd" clip-rule="evenodd" d="M134.193,112.044c0.369-0.231,0.67-0.418,1.053-0.656
	c0.135,0.29,0.321,0.503,0.273,0.615C135.213,112.714,134.789,112.662,134.193,112.044z"/>
<path class="stroke" fill="#183046"  fill-rule="evenodd" clip-rule="evenodd" d="M57.672,136.095c-2.897-0.03-4.286-1.568-3.869-4.027
	c0.067-0.397,0.214-0.801,0.415-1.151c0.715-1.248,2.504-1.886,4.169-1.756c1.895,0.147,3.07,1.08,3.584,2.849
	c0.431,1.464-0.643,3.204-2.286,3.713C58.955,135.947,58.171,136.006,57.672,136.095z M60.891,133.275
	c0.01-1.682-0.58-2.572-1.906-2.879c-1.483-0.344-3.125,0.596-4.069,2.337c0.005,1.226,0.709,1.831,1.843,2.081
	C58.392,135.175,59.959,134.6,60.891,133.275z"/>
<path class="stroke" fill="#183046"  fill-rule="evenodd" clip-rule="evenodd" d="M75.324,136.445c-3.175-0.224-4.807-2.798-3.326-5.335
	c0.897-1.537,2.461-1.765,4.014-1.877c1.441-0.104,2.247,0.917,2.875,2.006c0.771,1.341,0.322,3.13-1.08,4.099
	C77.074,135.845,76.158,136.085,75.324,136.445z M76.27,130.219c-0.772,0.131-1.375,0.238-1.979,0.333
	c-0.803,0.122-1.255,0.621-1.499,1.358c-0.359,1.074,0.131,2.228,1.209,2.857c1.172,0.685,2.613,0.499,3.518-0.448
	c0.736-0.77,0.769-1.958-0.002-2.932C77.148,130.927,76.648,130.567,76.27,130.219z"/>
<path class="stroke" fill="#183046"  fill-rule="evenodd" clip-rule="evenodd" d="M62.576,136.611c0.834-2.349,0.806-4.436-0.136-6.533
	c1.269,0.104,1.499,0.413,1.734,1.98C64.476,134.035,63.898,136.074,62.576,136.611z"/>
<path class="stroke" fill="#183046"  fill-rule="evenodd" clip-rule="evenodd" d="M71.062,129.479c-0.443,1.823-0.885,3.646-1.338,5.521
	c-1.035-0.156-0.661-0.927-0.654-1.419C69.094,131.945,69.422,130.415,71.062,129.479z"/>
<path class="stroke" fill="#183046"  fill-rule="evenodd" clip-rule="evenodd" d="M50.185,123.908c1.444-1.062,3.11-1.314,4.942-1.438
	C54.406,123.582,52.698,124.083,50.185,123.908z"/>
<path class="stroke" fill="#183046"  fill-rule="evenodd" clip-rule="evenodd" d="M66.648,139.923c0.721-1.1,1.328-2.055,2.737-1.845
	c0.25,1.354,0.24,1.365-1.722,2.308C67.419,140.274,67.088,140.123,66.648,139.923z"/>
<path class="stroke" fill="#183046"  fill-rule="evenodd" clip-rule="evenodd" d="M62.663,125.596c0,0.194,0,0.388,0,0.572c-0.671,0-1.325,0-2.091,0
	c-0.135-0.208-0.309-0.476-0.486-0.751c0.932-0.983,1.604,0.783,2.442-0.278C62.573,125.291,62.619,125.443,62.663,125.596z"/>
<path class="stroke" fill="#183046"  fill-rule="evenodd" clip-rule="evenodd" d="M65.578,125.179c-0.159-0.821-0.267-1.382-0.393-2.044
	c0.397-0.112,0.691-0.194,1.054-0.296C66.419,123.677,66.633,124.389,65.578,125.179z"/>
<path class="stroke" fill="#183046"  fill-rule="evenodd" clip-rule="evenodd" d="M81.315,136.311c0-0.557,0-0.989,0-1.48c0.192-0.068,0.375-0.188,0.557-0.188
	c0.232,0,0.467,0.098,0.614,0.13C82.895,135.486,82.359,136.181,81.315,136.311z"/>
<path class="stroke" fill="#183046"  fill-rule="evenodd" clip-rule="evenodd" d="M57.326,125.418c0.449-0.227,0.656-0.329,0.996-0.501
	c0.291,0.509,0.553,0.968,0.838,1.466c-0.248,0.276-0.432,0.488-0.797,0.897C58.001,126.627,57.711,126.107,57.326,125.418z"/>
<path class="stroke" fill="#183046"  fill-rule="evenodd" clip-rule="evenodd" d="M79.67,125.725c-0.682,0.591-0.906,1.754-2.154,1.748
	C77.933,126.229,78.218,125.984,79.67,125.725z"/>
<path class="stroke" fill="#183046"  fill-rule="evenodd" clip-rule="evenodd" d="M55.09,125.744c0.318-0.101,0.545-0.174,0.899-0.286
	c0.201,0.58,0.374,1.077,0.559,1.606C55.359,127.151,55.359,127.151,55.09,125.744z"/>
<path class="stroke" fill="#183046"  fill-rule="evenodd" clip-rule="evenodd" d="M73.317,126.695c0.107-0.894,0.264-1.488,1.327-1.768
	c-0.117,0.752-0.204,1.298-0.303,1.924C73.942,126.791,73.671,126.75,73.317,126.695z"/>
<path class="stroke" fill="#183046"  fill-rule="evenodd" clip-rule="evenodd" d="M51.491,128.412c0.629,0.416,1.081,0.714,1.564,1.033
	c-0.822,0.608-0.822,0.608-2.117-0.291C51.098,128.941,51.254,128.73,51.491,128.412z"/>
<path class="stroke" fill="#183046"  fill-rule="evenodd" clip-rule="evenodd" d="M80.175,128.33c0.723-0.958,1.436-1.049,2.272-0.637
	C81.78,127.956,81.279,128.733,80.175,128.33z"/>
<path class="stroke" fill="#183046"  fill-rule="evenodd" clip-rule="evenodd" d="M49.691,132.744c0.6-0.796,1.317-0.447,2.135-0.47
	C50.979,133.182,50.93,133.19,49.691,132.744z"/>
<path class="stroke" fill="#183046"  fill-rule="evenodd" clip-rule="evenodd" d="M69.149,123.188c0,0.577,0,1.008,0,1.578c-0.395-0.072-0.695-0.126-1.021-0.185
	C68.063,123.811,68.178,123.293,69.149,123.188z"/>
<path class="stroke" fill="#183046"  fill-rule="evenodd" clip-rule="evenodd" d="M77.29,125.86c-0.447,0.479-0.844,0.905-1.228,1.314
	c-0.662-0.355-0.473-0.743-0.234-1.087C76.158,125.611,76.604,125.481,77.29,125.86z"/>
<path class="stroke" fill="#183046"  fill-rule="evenodd" clip-rule="evenodd" d="M52.449,127.275c1.049-0.822,1.4-0.02,2.012,0.551
	C53.484,128.362,53.031,127.872,52.449,127.275z"/>
<path class="stroke" fill="#183046"  fill-rule="evenodd" clip-rule="evenodd" d="M81.765,130.322c0.611-0.093,1.22-0.186,1.829-0.278
	c-0.806,0.911-0.806,0.911-1.773,0.657C81.802,130.575,81.783,130.45,81.765,130.322z"/>
<path class="stroke" fill="#183046"  fill-rule="evenodd" clip-rule="evenodd" d="M50.6,135.382c0.535-0.295,1.072-0.593,1.77-0.977
	c-0.461,1.237-0.461,1.237-1.604,1.294C50.709,135.594,50.654,135.489,50.6,135.382z"/>
<path class="stroke" fill="#183046"  fill-rule="evenodd" clip-rule="evenodd" d="M82.119,132.807c0.57-0.445,1.039-0.291,1.464,0.146
	c-0.019,0.145-0.034,0.29-0.054,0.435c-0.477-0.043-0.954-0.086-1.431-0.13C82.104,133.107,82.112,132.956,82.119,132.807z"/>
<path class="stroke" fill="#183046"  fill-rule="evenodd" clip-rule="evenodd" d="M73.275,139.835c-0.115,0.172-0.246,0.36-0.452,0.661
	c-0.271-0.297-0.476-0.521-0.686-0.754C72.591,139.164,72.92,139.293,73.275,139.835z"/>
<path class="stroke" fill="#183046"  fill-rule="evenodd" clip-rule="evenodd" d="M69.848,140.882c0.905-0.514,1.107-0.18,1.055,0.82
	C70.42,141.327,70.135,141.105,69.848,140.882z"/>
<path class="stroke" fill="#183046"  fill-rule="evenodd" clip-rule="evenodd" d="M70.731,124.229c0.239-0.274,0.478-0.548,0.918-1.058
	c0.087,0.671,0.128,0.983,0.18,1.403c-0.354,0-0.615,0-0.874,0C70.881,124.459,70.806,124.345,70.731,124.229z"/>
<path class="stroke" fill="#183046"  fill-rule="evenodd" clip-rule="evenodd" d="M59.897,140.783c-0.115,0.238-0.231,0.478-0.386,0.797
	c-0.267-0.164-0.46-0.282-0.861-0.529c0.431-0.252,0.702-0.411,0.975-0.57C59.715,140.582,59.807,140.683,59.897,140.783z"/>
<path class="stroke" fill="#183046"  fill-rule="evenodd" clip-rule="evenodd" d="M61.896,140.935c-0.072,0.217-0.144,0.432-0.247,0.744
	c-0.296-0.135-0.507-0.229-0.919-0.416c0.41-0.261,0.653-0.418,0.896-0.573C61.717,140.771,61.807,140.854,61.896,140.935z"/>
<path class="stroke" fill="#183046"  fill-rule="evenodd" clip-rule="evenodd" d="M72.751,146.776c-0.892,0.035-1.282-0.277-1.241-1.169
	C72.533,145.37,72.661,145.961,72.751,146.776z"/>
<path class="stroke" fill="#183046"  fill-rule="evenodd" clip-rule="evenodd" d="M70.133,145.984c0.244,0.504,0.388,0.807,0.703,1.458
	c-0.693-0.276-1.09-0.435-1.693-0.675C69.558,146.438,69.767,146.273,70.133,145.984z"/>
<path class="stroke" fill="#183046"  fill-rule="evenodd" clip-rule="evenodd" d="M58.957,132.684c-0.774,1.299-1.046,1.33-2.169,0.331
	C57.271,131.864,57.711,131.782,58.957,132.684z"/>
<path class="stroke" fill="#183046"  fill-rule="evenodd" clip-rule="evenodd" d="M75.964,132.016c-0.32,1.438-0.513,1.535-1.814,1.013
	C74.453,131.768,74.453,131.768,75.964,132.016z"/>
<path fill-rule="evenodd" clip-rule="evenodd" fill="#fafd30" class="fill" d="M93.616,70.32c-0.117-0.869-0.189-1.417-0.267-1.964
	c-0.006-0.045-0.053-0.085-0.172-0.262c-2.286-0.429-4.646,0.776-7.252,0.245c0.08-0.928,0.153-1.795,0.24-2.813
	c1.344,0,2.467,0,3.588,0c1.062,0,2.16,0.278,3.303-0.47c0-1.069,0-2.223,0-3.547c2.47,0.712,3.802,2.626,5.84,4.01
	C97.094,67.158,95.452,68.649,93.616,70.32z"/>
</svg>
