<svg version="1.1" xmlns="http://www.w3.org/2000/svg" xmlns:xlink="http://www.w3.org/1999/xlink" x="0px" y="0px" width="200px"
	 height="200px" viewBox="0 0 200 200" enable-background="new 0 0 200 200" xml:space="preserve">
<g id="svg">
	<path class="stroke" fill="#6e3411"  d="M145.785,100.012c-0.056-2.047-0.483-4.083-0.723-6.126c-0.202-1.725-0.534-3.426-1.287-4.989
		c-1.351-2.811-3.146-5.333-5.173-7.705c-1.979-2.313-4.225-4.283-6.818-5.889c-1.542-0.956-2.98-2.08-4.473-3.116
		c-1.475-1.025-2.888-2.167-4.461-3.014c-1.61-0.866-3.351-1.519-5.086-2.115c-2.253-0.774-4.521-1.587-6.85-2.04
		c-2.628-0.511-5.28-1.075-8.02-0.791c-2.872,0.298-5.773,0.342-8.635,0.705c-2.786,0.354-5.556,0.896-8.301,1.498
		c-1.912,0.418-3.866,0.866-5.634,1.67c-3.743,1.703-7.218,3.861-9.973,7.016c-1.526,1.748-2.765,3.652-3.658,5.802
		c-0.986,2.373-1.738,4.797-1.894,7.375c-0.077,1.276-0.225,2.567-0.12,3.833c0.297,3.552,0.771,7.09,1.053,10.642
		c0.188,2.366,0.597,4.681,1.314,6.924c0.395,1.233,0.925,2.505,2.087,3.271c1.417,0.936,2.791,2.023,4.344,2.646
		c3.842,1.541,7.933,1.944,12.041,2.191c4.734,0.286,9.275-0.638,13.644-2.295c2.689-1.02,5.292-2.335,7.79-3.769
		c1.64-0.941,3.065-2.282,4.502-3.54c0.717-0.628,1.187-1.53,1.867-2.211c1.95-1.949,3.406-4.23,4.55-6.708
		c1.441-3.121,2.556-6.322,1.738-9.854c-0.033-0.141,0.038-0.306,0.065-0.484c6.804,3.585,10.562,9.582,13.45,16.219
		c-2.056,3.011-4.65,5.219-7.373,7.289c-1.471,1.119-3.072,2.081-4.465,3.288c-2.248,1.948-4.949,3.058-7.555,4.339
		c-1.887,0.927-3.884,1.629-5.794,2.513c-2.965,1.372-6.048,2.401-9.258,2.903c-2.053,0.32-4.005,0.922-5.979,1.486
		c-1.5,0.429-2.948,1.1-4.471,1.372c-2.666,0.479-5.372,0.737-8.062,1.081c-1.401,0.179-2.806,0.328-4.205,0.52
		c-0.67,0.092-1.331,0.255-2.128,0.413c0.088,0.438,0.18,0.808,0.235,1.184c0.174,1.189,0.302,2.387,0.506,3.57
		c0.513,2.973,1.051,5.939,1.592,8.906c0.462,2.531,0.668,5.111,1.574,7.559c0.39,1.054,0.659,2.132,2.032,2.688
		c1.185,0.081,2.582-0.143,3.843-0.735c1.127-0.53,2.273-0.745,3.477-0.844c0.424-0.034,0.864-0.035,1.266-0.155
		c3.35-0.999,6.708-1.973,10.031-3.056c2.581-0.841,5.107-1.849,7.672-2.747c3.602-1.26,7.247-2.404,10.573-4.344
		c1.46-0.853,3.01-1.553,4.451-2.435c1.655-1.013,3.334-2.028,4.824-3.26c2.555-2.113,5.008-4.354,7.433-6.617
		c1.94-1.811,3.817-3.696,5.262-5.955c1.235-1.931,2.567-3.807,3.691-5.8c1.179-2.088,1.864-4.376,2.368-6.736
		C145.481,107.763,145.889,103.903,145.785,100.012z"/>
	<path fill-rule="evenodd" clip-rule="evenodd" fill="#ffd624" class="fill" d="M113.815,122.476c0.394-0.204,0.752-0.392,1.106-0.576
		c0.439,1.255,0.812,2.426,1.262,3.567c0.263,0.664,0.831,0.684,1.289,0.091c-0.469-1.436-0.942-2.887-1.417-4.341
		c0.376-0.239,0.63-0.399,0.962-0.61c0.532,1.345,1.041,2.631,1.579,3.989c0.181,0.068,0.418,0.158,0.672,0.254
		c0.17-0.18,0.312-0.329,0.476-0.503c-0.538-1.407-1.069-2.799-1.614-4.224c0.4-0.249,0.688-0.428,1.081-0.673
		c0.59,1.47,1.141,2.842,1.72,4.284c0.243,0.069,0.531,0.151,0.824,0.234c0.444-0.396,0.322-0.811,0.133-1.241
		c-0.455-1.041-0.905-2.084-1.35-3.129c-0.1-0.235-0.175-0.48-0.266-0.731c0.535-0.392,1.026-0.751,1.552-1.136
		c2.042,4.762,4.074,9.499,6.193,14.437c-6.946,5.781-14.956,9.836-23.239,13.438c-2.278-5.82-3.43-11.835-4.923-17.757
		c0.71-0.393,0.732,0.169,0.799,0.452c0.266,1.123,0.473,2.26,0.71,3.39c0.052,0.25,0.14,0.491,0.224,0.78
		c0.287,0.021,0.535,0.038,0.888,0.063c0.165-1.885-0.75-3.542-0.839-5.372c0.324-0.073,0.617-0.138,1.016-0.228
		c0.137,0.843,0.231,1.661,0.41,2.459c0.18,0.804,0.443,1.59,0.699,2.487c0.306,0.036,0.631,0.074,1.09,0.127
		c-0.026-0.504,0.011-0.883-0.074-1.231c-0.339-1.388-0.716-2.767-1.096-4.212c0.418-0.161,0.665-0.256,1.108-0.427
		c0.249,1.019,0.481,1.943,0.699,2.871c0.076,0.321,0.116,0.651,0.179,0.976c0.12,0.621,0.402,0.823,1.288,0.786
		c-0.111-1.707-0.693-3.315-0.988-5.067c0.394-0.154,0.822-0.322,1.352-0.529c0.484,1.717,0.945,3.348,1.429,5.064
		c0.291,0.07,0.592,0.144,1.079,0.262c0-0.42,0.058-0.713-0.01-0.972c-0.355-1.352-0.749-2.693-1.111-4.042
		c-0.071-0.264-0.066-0.549-0.095-0.825c0.602-0.245,1.144-0.466,1.769-0.721c1.123,3.026,2.231,6.017,3.404,9.181
		c0.371-0.034,0.79-0.072,1.3-0.119c-1.2-3.265-2.336-6.355-3.487-9.485c0.41-0.252,0.695-0.427,1.106-0.68
		c0.294,0.954,0.546,1.778,0.801,2.602c0.119,0.384,0.223,0.773,0.367,1.148c0.306,0.798,0.798,0.881,1.438,0.244
		C114.822,125.413,114.333,123.988,113.815,122.476z M120.428,135.214c0.534-0.158,0.922-0.197,1.23-0.376
		c1.242-0.722,2.486-1.445,3.669-2.257c0.435-0.299,1.175-0.55,0.853-1.599c-0.584,0.202-1.168,0.329-1.674,0.601
		c-0.518,0.278-0.958,0.698-1.583,1.169c0.144-1.251,0.323-2.265,0.361-3.283c0.038-1.008,0.02-2.034-0.132-3.027
		c-0.146-0.949-1.037-1.481-1.995-1.443c-2.279,0.091-3.2,2.162-2.888,4.276c0.448,0.382,0.824,0.279,1.054-0.244
		c0.168-0.383,0.236-0.809,0.37-1.208c0.348-1.037,0.733-1.772,1.841-1.516C121.89,129.232,120.587,132.025,120.428,135.214z"/>
	<path fill-rule="evenodd" clip-rule="evenodd" fill="#ffd624" class="fill" d="M82.519,101.646c0.315,0,0.498,0,0.699,0
		c0.384,1.288,0.268,2.729,1.163,3.807c0.089-0.02,0.177-0.039,0.266-0.059c-0.103-1.291-0.206-2.582-0.314-3.941
		c0.322-0.053,0.535-0.088,0.741-0.123c0.649,1.574,0.433,3.296,1.105,4.784c0.074-0.013,0.148-0.025,0.222-0.038
		c0-1.588,0-3.175,0-4.88c0.551-0.139,1.179-0.298,1.863-0.471c0.512,2.135,1.01,4.212,1.501,6.259
		c0.77,0.491,1.002,0.427,1.31-0.343c-0.66-2.104-1.328-4.225-1.28-6.486c1.011,1.004,0.603,2.691,2.068,3.497
		c-0.232-1.263-0.465-2.526-0.712-3.863c0.255-0.115,0.521-0.234,0.906-0.408c0.144,0.66,0.267,1.227,0.391,1.793
		c0.125,0.57,0.23,1.154,1.055,1.577c-0.127-1.33-0.239-2.497-0.358-3.738c0.232-0.114,0.47-0.231,0.855-0.42
		c0.248,0.864,0.487,1.621,0.677,2.39c0.104,0.42,0.226,0.763,0.962,0.795c-0.153-1.213-0.298-2.36-0.457-3.611
		c0.325-0.145,0.694-0.309,1.06-0.472c0.505,1.172,0.577,2.455,1.619,3.209c0.561-0.189,0.478-0.52,0.354-0.885
		c-0.327-0.976-0.639-1.957-0.957-2.934c0.779-0.422,1.437-0.779,2.095-1.135c0.935,1.821,5.339,11.854,5.769,14.315
		c-3.381,2.166-7.318,2.711-11.133,3.67c-3.902,0.98-7.806,0.962-11.859,0.523c-1.343-4.167-2.016-8.477-2.837-12.753
		c0.083-0.035,0.167-0.07,0.25-0.105c0.113,0.226,0.27,0.441,0.332,0.68c0.293,1.141,0.557,2.288,0.842,3.43
		c0.042,0.166,0.143,0.317,0.322,0.461c0.09-1.474-0.246-2.947,0.137-4.412c0.678,1.565,0.498,3.381,1.321,4.879
		c0.113-0.021,0.226-0.042,0.338-0.062C82.73,104.953,82.626,103.331,82.519,101.646z M97.284,110.742
		c-0.521-2.475-1.058-5.021-1.588-7.537c-0.767-0.086-1.037,0.168-1.17,0.824c-0.309,1.526-0.73,3.029-1.094,4.545
		c-0.071,0.298-0.09,0.609-0.151,1.038c0.455-0.049,0.741-0.08,0.959-0.104c0.299-0.915,0.564-1.727,0.829-2.539
		c0.056,0.012,0.112,0.023,0.168,0.035c0.321,1.395,0.642,2.79,0.95,4.13c-0.424,0.354-0.768,0.64-1.236,1.032
		c1.233,0.743,2.096-0.08,3.003-0.308c0.258-0.065,0.434-0.458,0.646-0.7c-0.05-0.089-0.1-0.179-0.15-0.268
		C98.124,110.85,97.798,110.808,97.284,110.742z M101.118,105.081c-0.054-0.009-0.108-0.017-0.163-0.026
		c0.076-1.162,0.151-2.323,0.224-3.443c-0.892-0.295-3.962,1.178-4.409,2.056c1.251,0.798,2.009-0.705,3.123-0.663
		c-0.07,1.014-0.14,2.015-0.2,2.881c-0.5,0.342-0.86,0.587-1.221,0.833c0.022,0.075,0.043,0.15,0.065,0.225
		c0.366,0.107,0.732,0.214,1.158,0.338c-0.104,0.719-0.256,1.435-0.3,2.157c-0.049,0.802,0.305,0.999,1.156,0.617
		c0.124-1.135,0.254-2.327,0.395-3.61c0.175-0.127,0.406-0.294,0.707-0.512C101.439,105.594,101.279,105.338,101.118,105.081z"/>
	<path fill-rule="evenodd" clip-rule="evenodd" fill="#ffd624" class="fill" d="M103.331,146.017c-5.108,1.741-10.344,2.926-15.477,4.266
		c0-1.221,0.169-2.358-0.048-3.416c-0.214-1.036-0.822-1.991-1.321-3.125c1.447-2.661,1.04-5.431-0.413-8.089
		c0.318-0.25,0.548-0.43,0.69-0.543c-0.377-1.441-0.727-2.773-1.095-4.179c0.407-0.132,0.726-0.235,1.149-0.373
		c0.655,2.945,1.29,5.797,1.92,8.633c0.331,0.119,0.571,0.205,0.815,0.293c0.604-0.23,0.724-0.534,0.521-1.204
		c-0.452-1.492-0.743-3.031-1.094-4.553c-0.254-1.101-0.501-2.202-0.747-3.304c-0.014-0.063,0.014-0.137,0.03-0.265
		c0.246-0.069,0.504-0.142,0.862-0.243c0.364,1.636,0.71,3.193,1.079,4.853c0.358,0.074,0.722,0.149,1.333,0.276
		c-0.396-1.854-0.749-3.504-1.124-5.261c0.255-0.098,0.508-0.196,0.864-0.333c0.394,1.654,0.758,3.186,1.153,4.842
		c0.264,0.046,0.557,0.097,1.008,0.176c0.121-1.868-0.782-3.431-0.861-5.167c0.326-0.081,0.662-0.164,1.072-0.266
		c0.321,1.563,0.631,3.078,0.973,4.738c0.37,0,0.745,0,1.292,0c-0.355-1.773-0.673-3.357-1.009-5.036
		c0.433-0.046,0.798-0.084,1.258-0.133c0.311,1.543,0.614,3.051,0.925,4.595c0.36,0,0.628,0,0.975,0
		c0.404-1.75-0.619-3.287-0.613-5.012c0.342-0.043,0.707-0.089,1.028-0.129C100.092,134.033,101.692,139.955,103.331,146.017z
		 M95.896,138.955c0.398,1.754,0.824,3.626,1.267,5.573c-0.607,0.232-1.265,0.483-1.916,0.731c0.158,0.816,0.681,0.835,1.122,0.721
		c1.439-0.37,2.866-0.791,4.282-1.242c0.245-0.078,0.413-0.401,0.58-0.573c-0.479-1.589-1.401-0.124-2.133-0.437
		c-0.475-2.959-0.951-5.934-1.438-8.967c-0.452-0.314-0.917-0.218-1.222,0.273c-0.747,1.199-1.45,2.427-2.154,3.652
		c-0.055,0.095,0.017,0.262,0.05,0.611C94.872,139.181,95.345,139.076,95.896,138.955z"/>
	<path fill-rule="evenodd" clip-rule="evenodd" fill="#ffd624" class="fill" d="M106.386,109.333c-1.958-4.729-3.898-9.413-5.848-14.125
		c0.204-0.177,0.331-0.287,0.492-0.426c0.105,0.146,0.193,0.228,0.235,0.33c0.377,0.913,0.729,1.837,1.132,2.739
		c0.101,0.224,0.361,0.377,0.65,0.498c-0.004-1.626-0.934-3.089-0.658-4.688c0.093-0.025,0.186-0.05,0.279-0.074
		c0.416,0.918,0.833,1.835,1.245,2.754c0.284,0.635,0.332,0.675,1.097,0.66c-0.436-1.311-0.856-2.571-1.275-3.833
		c0.06-0.028,0.12-0.056,0.179-0.083c0.285,0.541,0.587,1.073,0.851,1.624c0.184,0.384,0.301,0.798,0.476,1.187
		c0.172,0.382,0.438,0.619,0.997,0.371c-0.597-1.435-0.689-3.067-1.898-4.313c0.106-0.134,0.232-0.29,0.372-0.464
		c1.056,0.686,1.338,1.826,1.873,2.964c0.429-0.372,0.799-0.693,1.321-1.145c-0.543-1.098-1.122-2.264-1.781-3.596
		c0.094-0.091,0.217-0.21,0.355-0.345c0.844,1.328,1.599,2.514,2.434,3.829c0.32-0.128,0.649-0.259,1.037-0.414
		c-0.942-1.584-1.81-3.042-2.68-4.504c0.125-0.242,0.217-0.422,0.345-0.669c0.84,0.794,0.995,2.209,2.212,2.508
		c0.08-0.069,0.16-0.139,0.24-0.208c-0.545-1.13-1.09-2.261-1.702-3.53c0.014-0.028,0.112-0.23,0.21-0.433
		c0.079-0.027,0.159-0.054,0.238-0.081c0.387,0.695,0.774,1.39,1.193,2.144c0.216-0.029,0.43-0.058,0.884-0.12
		c-0.52-0.999-0.975-1.851-1.405-2.714c-0.109-0.221-0.142-0.48-0.209-0.722c0.102-0.05,0.204-0.101,0.306-0.15
		c0.318,0.515,0.643,1.027,0.953,1.547c0.157,0.263,0.253,0.572,0.447,0.8c0.124,0.145,0.377,0.18,0.651,0.298
		c-0.058-1.662-1.079-2.743-1.748-3.966c0.092-0.048,0.185-0.097,0.276-0.145c0.369,0.547,0.707,1.118,1.115,1.634
		c0.379,0.479,0.468,1.323,1.539,1.282c-0.233-0.443-0.405-0.759-0.568-1.079c-0.406-0.802-0.805-1.607-1.212-2.409
		c-0.34-0.669-0.425-1.334,0.077-2.152c1.661,2.289,3.297,4.488,4.354,7.104c0.177,0.042,0.377,0.089,0.59,0.139
		c1.23,3.407,1.701,6.792-0.282,10.07c-1.592,2.632-3.149,5.303-4.976,7.767c-1.127,1.52-2.73,2.688-4.125,4.007
		C106.599,109.275,106.473,109.295,106.386,109.333z M113.304,90.461c-0.46,1.058-1.256,2.116,0.062,3.061
		c0.828,0.593,2.073,0.431,2.97-0.358c0.161-1.395,0.198-2.767-1.257-3.545c0-0.721,0.088-1.375-0.033-1.989
		c-0.073-0.368-0.415-0.756-0.742-0.982c-0.348-0.24-0.821-0.3-1.251-0.443c-0.75,0.379-1.734,2.227-1.491,2.991
		c0.11,0.343,0.432,0.659,0.733,0.888C112.543,90.273,112.903,90.319,113.304,90.461z M113.792,95.608
		c-0.956-1.788-1.931-3.613-2.954-5.525c-0.26,0.033-0.564,0.071-0.916,0.116c0.108,1.753,0.21,3.405,0.312,5.063
		c1.346,0.282,0.926-0.868,1.264-1.575c0.44,1.284,1.502,2.132,1.295,3.703c0.44-0.097,0.888-0.063,1.109-0.272
		c0.366-0.344,0.998-0.673,0.618-1.413C114.304,95.677,114.099,95.649,113.792,95.608z"/>
	<path fill-rule="evenodd" clip-rule="evenodd" fill="#ffd624" class="fill" d="M135.846,105.253c-0.267,0.333-0.462,0.575-0.642,0.799
		c0.558,0.843,1.064,1.607,1.634,2.469c-1.389,0.28-1.75-0.806-2.391-1.424c-0.061,0.05-0.122,0.1-0.183,0.149
		c0.432,0.75,0.865,1.501,1.274,2.213c0.327-0.06,0.553-0.101,0.958-0.173v4.34c0.567,0,0.969-0.028,1.365,0.006
		c1.126,0.095,1.596,0.585,1.678,1.719c0.08,1.105-0.164,2.087-0.941,2.942c-0.689,0.759-2.273,0.753-2.909-0.092
		c0.367-1.047,1.208-0.358,1.828-0.476c0.676-0.533,0.908-1.238,0.874-2.068c-0.019-0.455-0.08-0.956-0.621-0.942
		c-0.391,0.01-0.797,0.272-1.15,0.496c-0.173,0.11-0.24,0.388-0.388,0.648c-0.311-0.038-0.597-0.072-0.858-0.104v-4.341
		c-0.045-0.021-0.09-0.041-0.135-0.062c-0.386,0.55-0.773,1.101-1.271,1.809c-0.485-0.167-1.032-0.354-1.534-0.525
		c-0.47-0.748-0.904-1.438-1.375-2.189c-0.325,0.267-0.556,0.456-0.816,0.669c0.151,0.362,0.26,0.701,0.427,1.009
		c0.786,1.457,1.599,2.898,2.378,4.357c0.376,0.704,0.701,1.436,1.036,2.129c-0.822,0.509-1.135,0.445-1.446-0.144
		c-1.092-2.072-2.183-4.145-3.279-6.214c-0.027-0.051-0.109-0.072-0.213-0.137c-0.14,0.151-0.277,0.298-0.371,0.399
		c0.346,1.627,1.882,2.683,1.902,4.445h-0.927c-0.68-1.264-1.332-2.478-2.038-3.791c-0.213,0.258-0.338,0.409-0.507,0.613
		c0.693,1.479,1.374,2.93,2.051,4.375c-0.361,0.603-0.849,0.662-1.268,0.121c-0.197-0.255-0.306-0.583-0.441-0.883
		c-0.441-0.976-0.877-1.955-1.363-3.037c-0.394,0.358-0.284,0.277-0.596,0.561c0.635,1.694,1.703,3.146,2.381,4.806
		c-0.218,0.064-0.617,0.308-0.803,0.362c-0.844-1.247-2.295-4.493-2.295-4.493l-0.491,0.433c0,0,2.236,4.604,2.352,4.589
		l-0.143,0.322c-0.258,0.049-0.51,0.097-0.749,0.141c-0.812-1.44-1.581-2.806-2.349-4.171c-0.082,0.039-0.308,0.279-0.389,0.318
		c1.928,4.577,3.857,9.153,5.824,13.82c4.963-5.068,9.816-9.921,11.938-16.79C139.229,111.321,137.566,108.339,135.846,105.253z"/>
	<path fill-rule="evenodd" clip-rule="evenodd" fill="#ffd624" class="fill" d="M127.387,86.169c0.664,0.335,1.156,0.584,1.759,0.889
		c-0.344,0.507-0.711,1.047-1.185,1.746c-0.447-0.401-0.776-0.696-1.221-1.097c-0.037-0.002-0.241-0.016-0.437-0.028
		c-0.422,0.58-0.307,1.047,0.188,1.456c0.775,0.641,1.911,0.994,2.849-0.236c0.991-1.3,1.787-2.741,1.727-4.585
		c-0.458-0.248-0.944-0.51-1.519-0.821c0.537-1.38,1.078-2.773,1.653-4.252c0.165,0.238,0.279,0.404,0.391,0.567
		c-0.24,0.91-0.472,1.791-0.711,2.698c0.888,0.371,0.92-0.427,1.264-0.734c0.315,0.487,0.543,0.196-0.223,2.201
		c0.282,0,0.526,0,0.836,0c0,0.933,0,1.868,0,2.858c-1.569,0.34-2.198,1.529-2.855,2.817c-0.896,1.756,0.311,3.212,2.41,2.91
		c-0.211,1.523-0.415,2.993-0.618,4.463c-0.098,0.038-0.196,0.075-0.293,0.113c-2.656-4.181-6.169-7.476-10.366-10.207
		c0.952-3.108,1.901-6.209,2.851-9.312c0.035,0.006,0.07,0.013,0.104,0.019c-0.024,0.311-0.049,0.622-0.076,0.958
		c0.663,0.225,0.818-0.264,0.949-0.664c0.272-0.831,0.476-1.684,0.727-2.522c0.145-0.485,0.325-0.959,0.49-1.439
		c0.089,0.021,0.18,0.04,0.269,0.061c-0.369,1.699-0.738,3.399-1.115,5.135c0.702,0.17,0.804-0.292,0.937-0.715
		c0.132-0.421,0.264-0.843,0.446-1.423c0.188,1.045-0.41,1.901-0.196,2.761c0.14,0.031,0.28,0.063,0.42,0.095
		c0.579-1.397,1.158-2.795,1.737-4.192c0.079,0.027,0.158,0.055,0.237,0.082c0.252,0.82-0.439,1.435-0.587,2.168
		c-0.158,0.782-0.363,1.555-0.563,2.396c0.217,0.018,0.415,0.035,0.704,0.059c0.477-1.037,0.943-2.054,1.411-3.071
		c0.093-0.004,0.185-0.008,0.278-0.012c0.058,0.338,0.248,0.719,0.151,1.005c-0.489,1.458-1.061,2.888-1.587,4.333
		C128.217,83.769,127.833,84.899,127.387,86.169z"/>
	<path fill-rule="evenodd" clip-rule="evenodd" fill="#ffd624" class="fill" d="M70.73,110.041c0.595,0.133,1.184,0.318,1.786,0.385
		c0.598,0.066,0.929-0.262,0.908-0.939c-0.164-0.095-0.338-0.196-0.559-0.324c-0.098-1.889-0.183-3.803-0.308-5.714
		c-0.023-0.354-0.21-0.695-0.475-1.017c0.101-0.854,0.203-1.709,0.311-2.622c0.334,0.132,0.549,0.217,0.827,0.327
		c0.066,1.052,0.131,2.106,0.195,3.131c0.83,0.104,0.873-0.33,0.893-0.781c0.028-0.62,0.055-1.241,0.167-1.864
		c0.394,0.73-0.191,1.835,0.944,2.271c0.807-0.521,0.006-1.371,0.564-1.973c0.114,0.016,0.306,0.043,0.543,0.077
		c0.139,0.787,0.27,1.524,0.433,2.442c0.969-0.497,0.376-1.483,0.893-2.192c0.898,4.356,1.768,8.575,2.654,12.876
		c-0.94-0.147-1.918-0.246-2.869-0.46c-1.799-0.407-3.65-0.741-5.193-1.82c-0.665-0.465-1.139-1.202-1.699-1.816L70.73,110.041z
		 M75.251,107.486c-0.155-1.519,0.395-2.76,1.202-3.906c-0.727-0.353-1.351-0.206-1.655,0.422c-0.895,1.844-1.291,3.787-0.542,5.757
		c0.376,0.988,0.938,1.515,1.824,1.396c0.633-0.084,1.242-0.341,1.807-0.505c0.293-1.122,0.502-2.071-0.16-2.943
		C77.026,106.785,76.134,107.361,75.251,107.486z"/>
	<path fill-rule="evenodd" clip-rule="evenodd" fill="#ffd624" class="fill" d="M77.344,99.822c-0.087-0.478-0.166-0.91-0.254-1.393
		c1.1,0.143,2.116,0.295,3.137,0.402c3.849,0.404,7.557-0.23,11.145-1.614c3.119-1.203,6.011-2.843,8.8-4.677
		c2.627-1.728,4.508-4.091,5.945-6.842c0.953-1.824,2.011-3.607,2.417-5.662c0.146-0.742,0.329-1.499,0.311-2.245
		c-0.015-0.635-0.235-1.287-0.472-1.89c-0.377-0.959-0.844-1.883-1.174-2.983c0.836,0.534,1.909,0.902,2.44,1.652
		c0.485,0.685,0.617,1.818,0.489,2.693c-0.221,1.508-0.639,3.019-1.203,4.438c-0.664,1.666-1.55,3.245-2.378,4.842
		c-1.894,3.652-4.912,6.221-8.282,8.415c-3.549,2.312-7.508,3.706-11.562,4.769C83.658,100.526,80.527,100.656,77.344,99.822z"/>
	<path fill-rule="evenodd" clip-rule="evenodd" fill="#ffd624" class="fill" d="M139.67,105.921c-0.653-1.205-1.29-2.382-1.941-3.584
		c0.162-0.283,0.324-0.567,0.547-0.957c0.522,0.887,1.002,1.702,1.501,2.55c0.272-0.015,0.521-0.027,0.932-0.049
		c-0.279-1.45-1.17-2.491-1.666-3.712c-0.072,0.011-0.145,0.023-0.217,0.034c0.164-0.427,0.329-0.854,0.586-1.52
		c0.551,1.144,1.004,2.083,1.515,3.142c0.357-0.107,0.711-0.214,1.255-0.378c-1.09-1.156-1.038-2.763-2.446-3.52
		c0.093-0.304,0.2-0.652,0.344-1.122c0.18,0.217,0.288,0.323,0.368,0.447c0.576,0.891,1.169,1.771,1.712,2.682
		c0.583,0.98,0.415,2.075,0.342,3.131c-0.184,2.67-0.399,5.338-0.625,8.005c-0.035,0.417-0.188,0.823-0.328,1.406
		c-0.283-0.433-0.493-0.718-0.665-1.024c-1.295-2.308-2.589-4.615-3.861-6.935c-0.133-0.242-0.12-0.564-0.174-0.85
		c0.087-0.02,0.174-0.039,0.261-0.058c0.356,0.659,0.715,1.316,1.065,1.978C138.517,106.233,139,106.273,139.67,105.921z"/>
	<path fill-rule="evenodd" clip-rule="evenodd" fill="#ffd624" class="fill" d="M117.865,74.318c0.198-0.257,0.462-0.486,0.581-0.775
		c0.332-0.808,0.591-1.645,0.906-2.459c0.083-0.213,0.267-0.388,0.542-0.479c-0.351,1.476-0.701,2.952-1.058,4.458
		c0.684,0.256,0.791-0.217,0.924-0.591c0.294-0.825,0.545-1.665,0.845-2.487c0.114-0.312,0.314-0.592,0.475-0.887
		c0.078,0.013,0.156,0.026,0.234,0.04c0.037,0.196,0.147,0.414,0.097,0.584c-0.318,1.081-0.672,2.151-1.003,3.19
		c0.522,0.373,0.785,0.248,1.045-0.405c0.289-0.724,0.568-1.451,0.857-2.175c0.06-0.15,0.142-0.292,0.253-0.518
		c0.267,0.136,0.506,0.259,0.783,0.401c-0.207,4.832-2.031,9.223-3.425,13.715c-0.869-0.113-1.66-1.63-1.538-2.836
		c1.432-0.106,2.333-0.687,2.426-1.707c0.138-1.521-0.794-2.218-2.228-2.457c0.16-0.612,0.3-1.147,0.471-1.799
		c0.469,0.373,0.85,0.674,1.273,1.011c0.22-0.022,0.472-0.048,0.793-0.082c0.022-0.28,0.043-0.526,0.07-0.864
		c-1.115-0.293-1.745-1.749-3.21-1.202c-0.045,0.286-0.081,0.511-0.15,0.953c-0.126-0.328-0.195-0.457-0.226-0.594
		c-0.154-0.687-0.319-1.372-0.437-2.065c-0.052-0.31-0.069-0.654,0.011-0.952c0.253-0.932,0.555-1.851,0.851-2.77
		c0.053-0.165,0.172-0.308,0.429-0.427c-0.019,0.209-0.006,0.427-0.062,0.626c-0.258,0.932-0.546,1.857-0.798,2.792
		c-0.056,0.207-0.008,0.442-0.008,0.665C117.682,74.255,117.774,74.287,117.865,74.318z"/>
	<path fill-rule="evenodd" clip-rule="evenodd" fill="#ffd624" class="fill" d="M103.51,74.839c-0.026-0.311-0.048-0.563-0.08-0.927
		c1.295,0.786,2.499,1.516,3.803,2.307c0.544,0.957,0.337,2.077,0.021,3.139c-1.293,4.342-3.328,8.261-6.823,11.266
		c-0.803,0.69-1.724,1.255-2.629,1.813c-2.888,1.779-5.868,3.375-9.135,4.365c-0.203,0.062-0.414,0.102-0.625,0.136
		c-0.112,0.019-0.229,0.004-0.413,0.004c0.025-0.255,0.048-0.475,0.072-0.715c0.962-0.341,1.909-0.636,2.823-1.012
		c1.197-0.493,2.389-1.005,3.542-1.59c1.366-0.692,2.813-1.313,3.997-2.253c1.484-1.181,2.864-2.55,4.054-4.028
		c1.373-1.706,2.598-3.542,3.545-5.551c0.758-1.606,0.807-3.199,0.243-4.832c-0.271-0.786-0.801-1.387-1.596-1.722
		C104.049,75.128,103.803,74.986,103.51,74.839z"/>
	<path fill-rule="evenodd" clip-rule="evenodd" fill="#ffd624" class="fill" d="M99.733,75.567c1.59-0.081,3.079,0.125,4.319,1.001
		c0.478,0.337,0.756,1.13,0.877,1.763c0.253,1.321-0.275,2.536-0.914,3.652c-1.725,3.015-3.633,5.926-6.425,8.056
		c-1.521,1.161-3.292,1.994-5.127,3.081c-0.048-0.552-0.07-0.815-0.094-1.095c0.25-0.127,0.45-0.253,0.667-0.336
		c2.495-0.956,4.437-2.719,6.319-4.505c1.402-1.33,2.614-2.875,3.302-4.735c0.334-0.902,0.728-1.807,0.884-2.745
		c0.328-1.969-0.749-3.23-2.744-3.438C100.386,76.223,99.789,76.398,99.733,75.567z"/>
	<path fill-rule="evenodd" clip-rule="evenodd" fill="#ffd624" class="fill" d="M72.426,94.083c-0.096,0.191-0.177,0.354-0.269,0.537
		c-0.088-0.042-0.16-0.055-0.202-0.098c-2.046-2.071-2.452-4.547-1.588-7.218c1.117-3.453,2.974-6.332,6.092-8.458
		c2.486-1.695,5.023-3.296,7.651-4.72c2.312-1.254,4.779-2.276,7.46-2.56c0.185-0.02,0.373-0.002,0.633-0.002
		c-0.111,0.264-0.197,0.468-0.305,0.727c-2.301,0.046-4.424,0.853-6.454,1.79c-2.162,0.999-4.186,2.294-6.277,3.448
		c-1.683,0.929-3.175,2.123-4.368,3.6c-1.451,1.798-2.846,3.674-3.341,6.022c-0.205,0.97-0.438,1.936-0.59,2.915
		c-0.174,1.121,0.069,2.163,0.799,3.063C71.907,93.422,72.14,93.721,72.426,94.083z"/>
	<path fill-rule="evenodd" clip-rule="evenodd" fill="#ffd624" class="fill" d="M88.819,74.273c0.11,0.169,0.218,0.335,0.333,0.512
		c-0.974,0.375-1.868,0.817-2.812,1.063c-2.382,0.622-4.177,2.178-6.02,3.655c-1.293,1.037-2.538,2.137-3.768,3.25
		c-1.273,1.152-2.317,2.484-2.951,4.103c-0.231,0.592-0.466,1.182-0.693,1.774c-0.71,1.859,0.234,4.287,2.221,5.393
		c0.204,0.113,0.341,0.346,0.51,0.523c-0.074,0.084-0.147,0.169-0.221,0.254c-0.36-0.23-0.753-0.423-1.076-0.698
		c-1.742-1.488-2.363-2.5-1.911-4.797c0.367-1.864,1.001-3.615,1.993-5.207c1.305-2.095,3.045-3.802,5.157-5.093
		c1.799-1.098,3.601-2.2,5.464-3.182C86.225,75.201,87.521,74.797,88.819,74.273z"/>
	<path fill-rule="evenodd" clip-rule="evenodd" fill="#ffd624" class="fill" d="M84.474,78.165c0.107,0.148,0.188,0.261,0.282,0.393
		c-0.041,0.057-0.068,0.12-0.116,0.157c-1.484,1.136-3.024,2.207-4.443,3.418c-1.88,1.604-3.524,3.443-4.588,5.708
		c-0.986,2.098,0.455,4.452,2.793,4.652c0.634,0.054,1.269,0.113,1.965,0.177c0.062,0.147,0.14,0.331,0.21,0.499
		c-0.077,0.065-0.109,0.116-0.144,0.118c-1.531,0.085-3.066,0.313-4.541-0.387c-1.21-0.575-2.047-2.199-1.7-3.496
		c0.705-2.633,2.132-4.754,4.362-6.372c1.165-0.845,2.179-1.894,3.289-2.818C82.659,79.533,83.52,78.905,84.474,78.165z"/>
	<path fill-rule="evenodd" clip-rule="evenodd" fill="#ffd624" class="fill" d="M95.198,77.828c0.02-0.219,0.032-0.372,0.063-0.723
		c1.986,0.157,3.941,0.248,5.878,0.49c1.11,0.139,1.28,0.484,1.137,1.63c-0.214,1.715-0.959,3.253-1.988,4.579
		c-1.095,1.411-2.418,2.645-3.652,3.946c-0.141,0.148-0.35,0.233-0.583,0.383c-0.162-0.228-0.306-0.431-0.45-0.635
		c-0.069-0.086-0.138-0.171-0.207-0.257c0.751-0.646,1.539-1.253,2.244-1.945c1.303-1.28,2.497-2.673,3.13-4.411
		c0.21-0.575,0.179-1.321,0.021-1.927c-0.257-0.989-1.243-1.035-2.036-1.104C97.61,77.754,96.448,77.828,95.198,77.828z"/>
	<path fill-rule="evenodd" clip-rule="evenodd" fill="#ffd624" class="fill" d="M70.745,110.027c-0.083-0.069-0.22-0.125-0.242-0.211
		c-0.534-2.06-1.096-4.112-1.568-6.186c-0.577-2.536-1.077-5.088-1.609-7.634c-0.032-0.156-0.046-0.316-0.089-0.619
		c0.41,0.376,0.715,0.655,1.02,0.935c-0.058,0.016-0.117,0.03-0.175,0.045c0.141,1.234,0.281,2.469,0.422,3.702
		c0.13,0.001,0.26,0.002,0.389,0.004c0.084-0.801,0.168-1.601,0.253-2.401c0.067-0.032,0.135-0.063,0.203-0.096
		c0.081,0.186,0.229,0.37,0.232,0.557c0.036,1.581,0.048,3.163,0.062,4.745c0.006,0.601,0.133,1.129,0.778,1.354
		c-0.198,0.356-0.377,0.68-0.589,1.063c0.282,0.183,0.51,0.331,0.786,0.511c0.246-0.163,0.475-0.314,0.821-0.544
		c0.078,1.334,0.151,2.605,0.225,3.874c-0.321,0.138-0.58,0.249-0.874,0.375c-0.019,0.176-0.039,0.358-0.059,0.541L70.745,110.027z"
		/>
	<path fill-rule="evenodd" clip-rule="evenodd" fill="#ffd624" class="fill" d="M85.264,90.217c-2.047,0.707-4.152,1.107-6.323,0.961
		c-2.189-0.147-2.808-1.445-1.685-3.353c1.191-2.025,2.845-3.625,4.629-5.146c0.168,0.052,0.319,0.104,0.474,0.146
		c0.148,0.041,0.3,0.072,0.513,0.121c-0.951,0.764-1.903,1.418-2.717,2.215c-0.749,0.732-1.434,1.563-1.993,2.449
		c-0.781,1.237-0.259,2.454,1.196,2.711c0.93,0.165,1.923,0.065,2.876-0.029c0.746-0.074,1.469-0.35,2.213-0.479
		c0.276-0.048,0.581,0.069,0.873,0.111C85.302,90.021,85.283,90.119,85.264,90.217z"/>
	<path fill-rule="evenodd" clip-rule="evenodd" fill="#ffd624" class="fill" d="M80.745,143.066c-0.314-1.91-0.628-3.819-0.942-5.728
		c1.332-0.279,2.085,1.091,2.222,2.133c0.14,1.067,0.012,2.125-0.544,3.082c-0.125,0.215-0.324,0.387-0.49,0.579
		C80.909,143.11,80.827,143.088,80.745,143.066z"/>
	<path fill-rule="evenodd" clip-rule="evenodd" fill="#ffd624" class="fill" d="M99.685,79.475c-0.311,1.643-1.496,3.358-2.137,3.142
		c0.176-0.481,0.354-0.963,0.519-1.414c-0.281-1.534-0.319-1.381-2.068-1.603c-0.85-0.108-1.768,0.198-2.636,0.397
		c-0.732,0.168-1.437,0.452-2.154,0.685c-0.062-0.051-0.125-0.103-0.188-0.153c0.116-0.177,0.198-0.467,0.352-0.512
		c2.497-0.721,5.038-1.103,7.643-0.856C99.244,79.182,99.458,79.364,99.685,79.475z"/>
	<path fill-rule="evenodd" clip-rule="evenodd" fill="#ffd624" class="fill" d="M96.632,81.044c-0.721,1.702-2.098,2.845-3.446,4.055
		c-0.268-0.59-0.021-1.027,1.354-2.467c-0.053-0.448-0.114-0.963-0.19-1.6c0.779-0.095,1.476-0.179,2.172-0.264
		C96.559,80.86,96.596,80.952,96.632,81.044z"/>
	<path fill-rule="evenodd" clip-rule="evenodd" fill="#ffd624" class="fill" d="M80.804,87.141c0.03,0.255,0.055,0.461,0.077,0.648
		c0.399,0.405,0.399,0.405,2.855,0.671c-1.407,0.338-2.8,0.79-4.289,0.575C79.462,88.023,80.051,87.199,80.804,87.141z"/>
	<path fill-rule="evenodd" clip-rule="evenodd" fill="#ffd624" class="fill" d="M70.528,103.545c0.068-1.539,0.136-3.079,0.207-4.671
		c0.629,0.072,0.626,0.357,0.622,0.757c-0.012,0.991,0.054,1.983,0.089,2.975c0.066-0.001,0.132-0.002,0.199-0.003
		c-0.297,0.343-0.593,0.685-0.89,1.027C70.679,103.602,70.604,103.573,70.528,103.545z"/>
	<path fill-rule="evenodd" clip-rule="evenodd" fill="#ffd624" class="fill" d="M118.032,80.024c0.677,0.009,1.196,0.074,1.484,0.694
		c0.25,0.538,0.061,0.9-0.447,1.213c-0.216-0.018-0.47-0.039-0.792-0.065C118.199,81.282,118.123,80.713,118.032,80.024z"/>
	<path fill-rule="evenodd" clip-rule="evenodd" fill="#ffd624" class="fill" d="M140.604,94.744c0.221,0.267,0.442,0.533,0.583,0.703
		c0.392,0.018,0.598,0.028,0.866,0.041c0.071,0.789,0.141,1.568,0.211,2.347c-0.039,0.011-0.078,0.022-0.117,0.034
		c-0.539-1.021-1.078-2.041-1.617-3.061C140.555,94.787,140.579,94.766,140.604,94.744z"/>
	<path fill-rule="evenodd" clip-rule="evenodd" fill="#ffd624" class="fill" d="M131.921,109.568c0.091-0.085,0.186-0.174,0.311-0.291
		c0.415,0.513,0.806,0.996,1.218,1.504c0.184,0.046,0.383,0.096,0.63,0.157c-0.229,0.366-0.447,0.715-0.676,1.081
		C132.907,111.2,132.441,110.428,131.921,109.568z"/>
	<path fill-rule="evenodd" clip-rule="evenodd" fill="#ffd624" class="fill" d="M132.267,91.038c-0.112,0.148-0.236,0.312-0.342,0.453
		c-1.095,0.009-1.273-0.4-0.687-1.521C131.905,89.937,132.193,90.311,132.267,91.038z"/>
	<path fill-rule="evenodd" clip-rule="evenodd" fill="#ffd624" class="fill" d="M141.896,94.366c-0.493-0.431-0.817-0.715-1.231-1.077
		c0.027-0.18,0.071-0.466,0.116-0.766c0.316,0,0.566,0,0.869,0C141.727,93.098,141.799,93.645,141.896,94.366z"/>
	<path fill-rule="evenodd" clip-rule="evenodd" fill="#ffd624" class="fill" d="M116.503,69.462c0.241,0.05,0.416,0.086,0.619,0.128
		c-0.175,0.759-0.341,1.477-0.537,2.324C116.059,71.047,116.239,70.304,116.503,69.462z"/>
	<path fill-rule="evenodd" clip-rule="evenodd" fill="#ffd624" class="fill" d="M133.345,108.112c0.498,0.652,0.995,1.305,1.552,2.036
		c-0.027,0.032-0.186,0.228-0.438,0.536c-0.151-1.042-1.242-1.519-1.341-2.466C133.194,108.183,133.27,108.147,133.345,108.112z"/>
	<path fill-rule="evenodd" clip-rule="evenodd" fill="#ffd624" class="fill" d="M124.98,73.199c-0.212,1.201-0.423,2.402-0.635,3.603
		c-0.071-0.01-0.142-0.021-0.213-0.032c0.173-1.203,0.346-2.407,0.519-3.61C124.761,73.172,124.871,73.186,124.98,73.199z"/>
	<path fill-rule="evenodd" clip-rule="evenodd" fill="#ffd624" class="fill" d="M83.666,86.765c0.35-0.258,0.7-0.515,1.119-0.823
		c0.198,0.247,0.372,0.462,0.656,0.816c-0.675,0.098-1.183,0.171-1.691,0.245C83.721,86.923,83.693,86.844,83.666,86.765z"/>
	<path fill-rule="evenodd" clip-rule="evenodd" fill="#ffd624" class="fill" d="M128.689,85.453c0.267-0.307,0.534-0.614,0.801-0.92
		c0.095,0.056,0.189,0.112,0.285,0.168c-0.083,0.357-0.167,0.716-0.271,1.159c-0.292-0.068-0.495-0.115-0.698-0.162
		C128.768,85.615,128.729,85.534,128.689,85.453z"/>
	<path fill-rule="evenodd" clip-rule="evenodd" fill="#ffd624" class="fill" d="M141.559,91.806c-0.288-0.014-0.444-0.021-0.601-0.029
		c0-0.422,0-0.814,0-1.205c0.053-0.009,0.107-0.018,0.16-0.026C141.253,90.928,141.386,91.311,141.559,91.806z"/>
	<path fill-rule="evenodd" clip-rule="evenodd" fill="#ffd624" class="fill" d="M131.561,88.857c0.394-0.325,0.624-0.516,1.036-0.856
		c-0.038,0.498-0.058,0.765-0.083,1.097C132.21,89.021,131.995,88.967,131.561,88.857z"/>
	<path fill-rule="evenodd" clip-rule="evenodd" fill="#ffd624" class="fill" d="M115.313,92.762c-0.453,0-0.826,0-1.195,0
		c-0.564-0.898,0.142-1.437,0.434-2.132C115.333,91.125,115.208,91.868,115.313,92.762z"/>
	<path fill-rule="evenodd" clip-rule="evenodd" fill="#ffd624" class="fill" d="M113.748,89.379c-0.351-0.082-0.617-0.145-1.016-0.238
		c0.054-0.404,0.102-0.771,0.148-1.117c0.273-0.174,0.488-0.311,0.868-0.552C113.748,88.149,113.748,88.7,113.748,89.379z"/>
	<path fill-rule="evenodd" clip-rule="evenodd" fill="#ffd624" class="fill" d="M75.407,109.687c-0.067-0.396-0.13-0.763-0.206-1.206
		c0.53-0.086,1.041-0.168,1.625-0.264c0,0.701,0,1.283,0,1.904c-0.351,0.033-0.603,0.056-0.873,0.081
		C75.779,110.037,75.611,109.879,75.407,109.687z"/>
</g>
<g id="Layer_2" display="none">
</g>
</svg>
