<svg version="1.1" id="svg" xmlns="http://www.w3.org/2000/svg" xmlns:xlink="http://www.w3.org/1999/xlink" x="0px" y="0px"
	 width="200px" height="200px" viewBox="0 0 200 200" enable-background="new 0 0 200 200" xml:space="preserve">
<path class="stroke" fill="#580f12"  d="M129.02,100.281c-1.937-2.598-3.787-5.234-6.165-7.457c-0.365-0.342-0.646-0.777-1.016-1.23
	c0.412-0.666,0.721-1.289,1.142-1.821c2.394-3.035,4.757-6.097,7.244-9.053c2.067-2.456,3.382-5.194,3.816-8.367
	c0.697-5.089,0.384-10.127-0.709-15.134c-0.331-1.515-1.209-2.49-2.738-2.752c-1.3-0.223-2.617-0.384-3.933-0.469
	c-3.454-0.224-6.908-0.451-10.367-0.563c-3.861-0.126-7.728-0.184-11.591-0.167c-4.268,0.018-8.533,0.188-12.799,0.227
	c-3.289,0.029-6.578-0.097-9.865-0.044c-1.136,0.018-2.285,0.295-3.394,0.584c-1.429,0.373-2.373,1.341-2.952,2.708
	c-0.672,1.588-0.778,3.239-0.709,4.928c0.092,2.245,0.167,4.494,0.254,6.74c0.058,1.499,0.036,3.007,0.21,4.493
	c0.276,2.363,1.365,3.413,3.734,3.467c4.387,0.097,8.776,0.091,13.164,0.079c1.521-0.003,3.044-0.157,4.567-0.242
	c0.051,0.116,0.103,0.23,0.155,0.345c-0.632,0.716-1.239,1.455-1.899,2.145c-2.875,3.004-5.766,5.993-8.648,8.99
	c-1.075,1.117-1.763,2.387-1.75,4.002c0.013,1.79-0.165,3.586-0.077,5.37c0.11,2.239,0.256,4.496,0.665,6.693
	c0.409,2.192,2.081,3.252,4.205,3.532c3.203,0.42,6.418,0.744,9.62,1.163c0.968,0.127,1.944,0.343,2.859,0.674
	c2.049,0.741,3.479,2.132,4.374,4.169c0.837,1.907,0.141,3.478-0.729,5.078c-0.083,0.152-0.191,0.293-0.256,0.452
	c-0.386,0.957-1.158,1.403-2.112,1.597c-2.319,0.469-4.302-0.087-5.981-1.819c-0.705-0.726-1.511-1.433-2.404-1.881
	c-2.294-1.151-4.564-0.717-6.831,0.307c-4.155,1.876-7.814,4.468-11.062,7.625c-1.565,1.521-3.008,3.192-4.336,4.925
	c-1.304,1.703-1.335,3.7-0.402,5.578c0.688,1.386,1.512,2.759,2.527,3.917c5.004,5.714,10.916,9.853,18.712,10.881
	c3.621,0.477,7.258,1.118,10.846,0.49c4.184-0.732,8.381-1.467,12.407-3.04c6.747-2.636,11.524-7.28,14.892-13.558
	c2.314-4.313,3.226-8.963,3.486-13.8c0.202-3.744-0.42-7.361-1.577-10.885C132.551,105.967,131.059,103.017,129.02,100.281z"/>
<path fill-rule="evenodd" clip-rule="evenodd" fill="#de4555" class="fill" d="M127.398,101.131c-0.189,0.435-0.321,0.741-0.509,1.174
	c0.557,0.144,1.026,0.266,1.613,0.417c0.119,0.214,0.282,0.506,0.464,0.836c-0.28,0.368-0.539,0.712-0.875,1.157
	c0.614,0.31,1.111,0.561,1.731,0.873c0.215,0.536,0.468,1.166,0.747,1.865c-0.638,0.323-1.194,0.605-2.108,1.067
	c1.05,0.322,1.684,0.516,2.449,0.75c0.152,0.75,0.308,1.518,0.464,2.284c-0.602,0.329-1.101,0.589-1.585,0.875
	c-0.068,0.04-0.065,0.202-0.119,0.391c0.617,0.194,1.244,0.394,1.964,0.619c0.08,0.774,0.156,1.499,0.235,2.252
	c-0.849,0.229-1.569,0.425-2.289,0.62c0,0.126,0,0.253,0.001,0.379c0.331,0.147,0.653,0.323,0.996,0.435
	c0.324,0.105,0.669,0.144,1.211,0.254c0.023,0.815,0.046,1.631,0.065,2.291c-0.803,0.668-1.854-0.144-2.397,1.011
	c0.674,0.357,1.307,0.691,2.114,1.12c-0.107,0.711-0.223,1.469-0.337,2.224c-1.025,0.114-2.022-0.376-2.765,0.647
	c0.671,0.406,1.285,0.778,2.041,1.236c-0.242,0.709-0.472,1.381-0.691,2.024c-0.966-0.178-1.757-0.324-2.592-0.478
	c-0.261,1.605,1.311,1.53,1.694,2.525c-0.178,0.375-0.394,0.832-0.588,1.244c-1.08,0.339-1.855-1.258-2.932-0.341
	c-0.175,1.27,1.168,1.331,1.677,2.28c-0.351,0.516-0.751,1.107-1.252,1.845c-0.803-0.57-1.487-1.053-2.164-1.531
	c-0.806,1.039-0.79,1.087,0.961,3.083c-0.354,0.439-0.728,0.903-1.098,1.363c-1.207-0.901-1.207-0.901-2.623-0.639
	c0.332,0.685,0.633,1.309,1.06,2.191c-0.542,0.534-1.207,1.191-2.055,2.026c-0.624-1.063-1.128-1.922-1.691-2.88
	c-0.386,0.225-0.657,0.383-1.075,0.625c0.365,1.014,0.711,1.977,1.128,3.133c-0.525,0.314-1.136,0.681-1.779,1.065
	c-0.554-1.216-1.043-2.292-1.558-3.423c-1.209,0.364-0.946,1.083-0.754,1.808c0.189,0.713,0.326,1.44,0.51,2.271
	c-0.691,0.27-1.262,0.493-1.955,0.764c-0.327-0.854-0.622-1.628-0.917-2.401c-1.165,0.417-1.165,0.417-1.053,2.906
	c-0.675,0.142-1.374,0.289-2.102,0.44c-0.352-0.863-0.644-1.583-0.959-2.358c-1.508,0.536-0.546,1.843-1.216,2.726
	c-0.509,0.089-1.162,0.204-2.061,0.361c-0.06-1.115-0.111-2.05-0.175-3.233c-1.48,0.717-1.064,2.042-1.432,3.193
	c-0.713-0.035-1.456-0.072-2.382-0.117c0.058-1.146,0.109-2.209,0.175-3.552c-1.613,0.867-1.188,2.365-1.763,3.589
	c-0.567-0.07-1.147-0.142-1.824-0.225c0.13-1.054,0.236-1.933,0.361-2.965c-1.777,0.276-1.384,1.814-2.079,2.832
	c-0.516-0.095-1.094-0.202-1.81-0.334c0.165-0.991,0.302-1.814,0.456-2.744c-1.489,0.088-1.484,1.376-2.104,2.218
	c-0.429-0.021-0.916-0.045-1.624-0.08c0.333-1.037,0.622-1.932,0.909-2.826c-1.16,0.204-1.16,0.204-2.403,2.401
	c-0.424-0.152-0.874-0.314-1.454-0.524c0.256-1.089,0.489-2.078,0.725-3.082c-1.015,0.284-1.015,0.284-2.102,2.497
	c-0.369-0.176-0.739-0.352-1.122-0.536c0.391-1.203,0.739-2.275,1.15-3.539c-1.309,0.497-1.609,1.569-2.291,2.507
	c-0.357-0.224-0.703-0.438-1.178-0.736c0.545-1.146,1.041-2.19,1.624-3.416c-1.653,0.165-1.845,1.599-2.784,2.314
	c-0.229-0.218-0.423-0.402-0.695-0.662c0.465-1.11,0.919-2.188,1.372-3.265c-0.129-0.082-0.258-0.163-0.385-0.244
	c-0.678,0.721-1.354,1.441-2.093,2.229c-0.233-0.199-0.477-0.407-0.832-0.71c0.504-1.081,0.998-2.137,1.54-3.301
	c-1.529-0.113-1.606,1.37-2.662,1.876c-1.072-1.704,0.732-2.775,0.895-4.552c-0.895,0.88-1.572,1.55-2.343,2.31
	c-0.89-1.61,1.024-2.131,1.158-3.419c-0.607,0.127-1.119,0.235-1.749,0.366c0.042-1.286,0.733-2.171,1.464-2.934
	c1.03-1.074,2.208-2.008,3.339-2.984c2.375-2.047,4.95-3.801,7.81-5.095c1.293-0.585,2.649-1.029,3.935-1.519
	c0.971,0.839,1.714,1.564,2.542,2.175c0.968,0.711,1.953,1.439,3.03,1.954c3.91,1.87,8.247,0.589,10.598-3.035
	c0.408-0.628,0.829-1.25,1.291-1.838c0.166-0.21,0.47-0.312,0.8-0.521c-0.097-0.4-0.198-0.818-0.345-1.416
	c0.595-0.341,1.205-0.69,1.962-1.124c-0.418-0.361-0.771-0.666-1.155-0.995c0.024-0.486,0.049-0.995,0.077-1.555
	c0.721-0.137,1.405-0.266,2.088-0.396c0.019-0.156,0.037-0.311,0.055-0.467c-0.645-0.238-1.291-0.478-2.145-0.794
	c-0.152-0.458-0.364-1.096-0.593-1.787c0.469-0.288,0.88-0.541,1.397-0.858c-0.661-0.729-1.405-0.266-2.161-0.467
	c-0.348-0.427-0.772-0.947-1.42-1.742c0.813-0.505,1.534-0.954,2.255-1.402c-0.093-0.154-0.186-0.308-0.278-0.462
	c-1.183-0.349-1.93,0.746-3.039,1.203c-0.41-0.105-0.944-0.241-1.781-0.455c0.886-1.046,1.598-1.886,2.381-2.811
	c-1.492-0.059-1.492-0.059-3.828,2.327c-0.339-0.079-0.755-0.175-1.298-0.299c0.17-0.561,0.283-0.993,0.433-1.412
	c0.13-0.365,0.302-0.715,0.486-1.141c-1.2,0.32-1.2,0.32-2.499,2.055c-0.602-0.057-1.272-0.122-2.156-0.208
	c0.328-0.957,0.596-1.74,0.876-2.557c-1.236,0.088-1.236,0.088-2.481,2.524c-0.269,0.028-0.594,0.063-1.063,0.114
	c0.056-1.145,0.108-2.202,0.167-3.406c-1.78,0.554-1.22,2.265-1.924,3.359c-0.398-0.02-0.822-0.041-1.359-0.067
	c0.054-1.1,0.104-2.114,0.16-3.243c-1.111-0.085-1.328,0.549-1.454,1.325c-0.108,0.663-0.267,1.318-0.426,2.082
	c-0.832-0.835-0.831-0.835-0.771-1.982c0.037-0.723,0.072-1.446,0.115-2.327c-1.58,0.568-1.046,2.123-1.978,3.119
	c-0.163-0.669-0.365-1.174-0.398-1.689c-0.168-2.59-0.288-5.183-0.436-7.773c-0.062-1.099,0.323-2.004,1.01-2.854
	c1.779-2.199,3.562-4.372,5.705-6.262c1.941-1.714,3.719-3.632,5.418-5.591c0.766-0.883,1.167-2.084,1.731-3.138
	c-0.347-0.572-0.611-1.003-0.873-1.433c0.271-0.796,0.542-1.598,0.918-2.709c-1.299,0.582-1.418,1.794-2.451,2.424
	c-0.163-0.022-0.541-0.072-1.13-0.149c0.188-0.904,0.357-1.714,0.563-2.698c-1.184,0.455-1.326,1.63-2.145,2.356
	c-0.347-0.017-0.786-0.039-1.37-0.068c0.143-0.828,0.275-1.595,0.477-2.752c-1.194,0.804-1.296,2.013-2.126,2.837
	c-0.382,0.013-0.874,0.03-1.517,0.052c0.106-0.912,0.195-1.683,0.303-2.607c-1.433,0.37-1.284,1.701-1.927,2.64
	c-0.396,0.051-0.892,0.115-1.547,0.199c0.052-1.071,0.1-2.016,0.155-3.146c-1.532,0.578-1.129,2.018-1.839,3.046
	c-0.41,0.026-0.946,0.06-1.619,0.101c0.047-0.957,0.086-1.725,0.131-2.654c-1.24,0.563-1.074,1.711-1.565,2.674
	c-0.308,0.069-0.722,0.162-1.405,0.316c0.064-1.292,0.119-2.395,0.192-3.887c-1.384,1.271-1.123,2.741-1.702,3.932
	c-0.264,0.035-0.529,0.07-0.908,0.121c-0.017-1.265-0.033-2.437-0.049-3.608c-0.125-0.038-0.251-0.076-0.376-0.114
	c-0.365,0.768-0.729,1.535-1.178,2.479c-0.609-2.21-0.583-4.273-0.598-6.327c-0.013-1.732,0.05-3.466,0.082-5.198
	c0.045-2.488,0.72-3.434,3.097-4.13c0.765-0.226,1.59-0.35,2.387-0.347c5.138,0.019,10.279,0.105,15.418,0.127
	c3.865,0.017,7.731-0.026,11.598-0.047c3.926-0.022,7.863-0.225,11.777-0.006c2.198,0.124,4.515,0.062,6.711,1.125
	c-0.164,0.37-0.31,0.698-0.481,1.086c0.535,0.57,1.811,0.449,1.672,1.672c-0.543,0.194-1.095,0.392-1.627,0.583
	c0.152,1.318,2.291,0.925,1.782,2.59c-0.621,0.246-1.687-0.751-1.984,0.744c0.637,0.365,1.319,0.757,2.137,1.228
	c0.034,0.464,0.075,1.003,0.126,1.684c-0.78-0.144-1.372-0.253-2.072-0.382c-0.284,1.637,1.194,1.63,1.933,2.324
	c-0.065,0.234-0.139,0.5-0.246,0.884c-0.69-0.035-1.344-0.067-2.011-0.1c-0.353,1.436,1.606,1.322,1.479,2.522
	c-0.781,0.292-1.572-1.075-2.418,0.196c0.518,0.52,1.063,1.065,1.691,1.695c-0.192,0.298-0.391,0.605-0.628,0.975
	c-0.584-0.321-1.08-0.595-1.671-0.921c-0.2,0.215-0.414,0.443-0.67,0.716c0.311,0.546,0.588,1.031,0.898,1.574
	c-0.207,0.263-0.413,0.521-0.604,0.763c-0.764-0.315-1.454-0.601-2.185-0.902c-0.554,1.175,0.489,1.618,0.672,2.591
	c-0.172,0.245-0.448,0.638-0.712,1.013c-0.855-0.251-1.16-1.392-2.224-0.988c-0.472,1.04,0.538,1.539,0.884,2.45
	c-0.217,0.31-0.491,0.702-0.732,1.045c-0.873-0.085-1.432-1.153-2.49-0.267c0.321,0.546,0.653,1.109,1.074,1.824
	c-0.169,0.349-0.382,0.782-0.645,1.319c-0.652-0.492-1.174-0.888-1.781-1.347c-0.924,1.234,0.061,1.887,0.565,2.744
	c-0.182,0.208-0.385,0.441-0.649,0.743c-0.537-0.492-0.992-0.909-1.535-1.406c-0.282,0.28-0.542,0.54-0.899,0.895
	c0.46,0.667,0.878,1.271,1.341,1.937c-0.08,0.32-0.174,0.695-0.284,1.14C120.511,93.275,124.347,96.792,127.398,101.131z"/>
</svg>
