<svg version="1.1" id="svg" xmlns="http://www.w3.org/2000/svg" xmlns:xlink="http://www.w3.org/1999/xlink" x="0px" y="0px"
	 width="200px" height="200px" viewBox="0 0 200 200" enable-background="new 0 0 200 200" xml:space="preserve">
<path class="stroke" fill="#51050f"  fill-rule="evenodd" clip-rule="evenodd" d="M97.342,139.365c-0.161,1.224-0.307,2.33-0.429,3.274
	c-0.82,0.749-1.427,1.396-2.123,1.923c-2.349,1.783-3.185,4.305-3.474,7.072c-0.125,1.188,0.095,2.509-1.049,3.278
	c-1.354,0.913-2.783,1.742-4.551,1.542c-1.539-0.175-3.071-0.313-3.692-1.974c-1.105-0.083-2.048-0.228-2.984-0.205
	c-1.497,0.036-2.8-0.195-4.004-1.27c-0.646-0.574-1.735-0.645-2.657-0.954c-0.338-0.442-0.677-0.885-0.964-1.263
	c-0.259-0.122-0.429-0.208-0.603-0.282c-1.9-0.819-2.736-2.07-2.494-3.727c0.188-1.253,1.829-2.829,3.405-2.826
	c2.195,0.004,3.45-1.153,4.573-2.805c0.579-0.851,0.837-1.715,0.679-2.659c-0.534-3.155-1.136-6.299-1.751-9.661
	c-2.562-0.269-5.05-0.671-7.549-0.759c-4.908-0.176-9.832-0.049-14.738-0.285c-4.94-0.239-9.793,0.665-14.701,0.768
	c-3.777,0.079-7.552,0.246-11.328,0.388c-0.424,0.015-0.844,0.117-1.236,0.175c-0.069,3.334,0.064,6.581-0.258,9.782
	c-0.318,3.152,0.604,6.425-0.767,9.419c-2.274,0.975-8.167,0.656-11.606-0.666c-0.078-1.49-0.209-3.1-0.237-4.713
	c-0.094-5.348-0.174-10.696-0.216-16.045c-0.059-7.357-0.042-14.715-0.123-22.073c-0.059-5.159-0.286-10.316-0.303-15.475
	c-0.004-1.487,0.419-2.982,0.717-4.46c0.189-0.948,0.935-1.457,1.771-1.83c1.961-0.875,4.072-0.818,6.132-0.83
	c1.462-0.008,2.756,1.64,3.037,3.427c0.143,0.908,0.232,1.824,0.352,2.781c3.248-1.02,6.267-2.109,9.361-2.894
	c2.611-0.663,5.302-1.07,7.979-1.411c2.929-0.373,5.881-0.615,8.832-0.777c3.828-0.211,7.522,0.514,11.066,1.972
	c1.803,0.741,3.604,1.498,5.375,2.315c0.593,0.274,1.092,0.757,1.646,1.153c-0.728,2.876-2.836,4.58-4.799,6.842
	c0.725,0.015,1.181,0.076,1.622,0.025c3.377-0.385,6.741-0.956,10.128-1.143c3.38-0.188,6.781-0.028,10.171,0.046
	c1.128,0.025,2.249,0.283,3.378,0.377c0.341,0.029,0.697-0.137,1.315-0.273c-0.862-2.991-1.441-5.972-2.615-8.698
	c-0.74-1.718-2.297-3.122-3.621-4.54c-1.11-1.19-2.465-2.148-3.625-3.295c-1.792-1.771-3.557-3.577-5.253-5.438
	c-2.655-2.915-4.592-6.301-6.235-9.864c-0.598-1.297-0.804-2.618-0.388-4.039c0.847-2.898,1.475-5.871,2.487-8.708
	c1.076-3.014,3.012-5.54,5.559-7.51c1.471-1.138,2.896-2.27,4.789-2.887c1.604-0.523,2.884-1.983,4.378-2.915
	c1.864-1.161,3.724-2.379,5.723-3.262c3.446-1.522,6.881-3.209,10.719-3.526c1.409-0.117,2.845,0.082,4.265,0.248
	c4.696-0.802,9.386-0.685,14.074,0.217c1.172,0.226,2.355,0.412,3.539,0.562c2.63,0.333,6.052,1.759,8.044,3.395
	c0.607,3.709-1.608,9.762-4.989,13.473c-0.09,0.505-0.198,1.116-0.298,1.664c3.711,3.913,3.013,7.68-1.796,9.791
	c-0.936,1.426-2.657,2.453-2.699,4.673c1.021,0.563,2.133,1.13,3.2,1.773c4.446,2.684,7.008,6.532,6.588,11.827
	c-0.237,2.989-1.03,5.934-1.595,8.895c-0.221,1.162-0.5,2.311-0.823,3.776c1.111,0.022,1.974,0.116,2.823,0.044
	c2.945-0.25,5.896-0.473,8.824-0.863c3.882-0.518,7.756-0.882,11.676-0.594c1.065,0.079,2.147,0.093,3.211,0
	c4.55-0.4,9.037,0.227,13.32,0.603c1.071,0.78,1.943,1.393,2.789,2.039c1.413,1.079,2.461,2.451,3.508,3.893
	c1.402,1.931,2.792,3.849,4.017,5.903c3.188,5.343,6.359,10.684,8.534,16.55c0.559,1.514,0.502,2.978,0.007,4.426
	c-0.877,2.557-1.883,5.068-2.772,7.621c-0.676,1.927-2.426,2.673-3.937,3.62c-0.986,0.616-2.202,0.865-3.44,1.326
	c-2.298-2.229-3.558-5.06-5.143-7.656c-1.549-2.538-3.018-5.126-4.817-7.68c0.243,9.498,0.487,18.995,0.73,28.487
	c-1.192,0.443-11.197,0.747-12.513,0.281c0.08-6.345,0.296-12.795-0.053-19.481c-5.291,0.226-10.346,0.442-15.522,0.664
	c-0.597,3.419,0.702,7.16-0.892,10.458c-0.921,0.245-1.518,0.404-2.286,0.609c0.065,2.688-0.21,5.376,1.171,7.888
	c1.713,3.11,0.483,5.764-3.073,6.325c-1.974,0.311-4.016,0.202-6.029,0.208c-2.079,0.006-4.158-0.08-6.236-0.122
	c-0.189-0.004-0.399-0.042-0.564,0.023c-2.222,0.891-3.699-0.359-5.24-1.725c0.065-3.016,2.691-4.11,4.323-6.04
	c0.304-3.277-0.021-6.605-0.429-9.929c-0.14-0.032-0.276-0.065-0.415-0.099c-0.92,1.399-2.027,2.714-2.714,4.219
	c-0.936,2.048-2.479,2.743-4.528,2.679c-4.22-0.132-7.682-1.67-10.021-5.375c-1.246-1.971-2.636-3.846-3.973-5.758
	c-0.129-0.184-0.335-0.314-0.663-0.612c-0.532,2.245,0.32,4.259,0.161,6.388C98.821,138.841,98.123,139.089,97.342,139.365z
	 M85.881,56.724c0.905,2.221,2.446,3.307,4.783,3.662c0.018-0.859,0.031-1.586,0.045-2.171c-0.925-1.081-1.761-2.059-2.652-3.1
	C87.455,55.559,86.766,56.069,85.881,56.724z"/>
<path class="stroke" fill="#51050f"  fill-rule="evenodd" clip-rule="evenodd" d="M143.736,48.271c1.498,1.771,2.986,3.54,4.482,5.307
	c0.605,0.719,1.212,1.439,1.829,2.148c0.508,0.583,0.929,1.181,0.528,2.088c-1.67,0.149-2.264-1.336-3.193-2.237
	c-0.92-0.892-1.691-1.941-2.527-2.923c-0.129,0.047-0.258,0.091-0.386,0.137c-0.229,4.042-0.454,8.084-0.695,12.373
	c-0.759,0.083-1.408,0.153-2.229,0.242c0.09-4.342,0.173-8.389,0.258-12.55c-1.716,1.692-3.307,3.259-4.932,4.862
	c-0.704-0.256-1.2-0.437-1.769-0.643c0.152-0.395,0.183-0.669,0.333-0.837c1.345-1.5,2.71-2.982,4.074-4.466
	c0.767-0.833,1.562-1.64,2.307-2.493C142.332,48.689,142.85,48.172,143.736,48.271z"/>
<path fill-rule="evenodd" clip-rule="evenodd" fill="#f04c47" class="fill" d="M122.49,53.357c-0.752-2.52-3.478-2.817-5.482-4.398
	c1.021-0.48,1.89-0.878,2.747-1.295c0.843-0.411,1.677-0.841,2.682-1.344c0.221,1.415-0.573,2.377-0.959,3.427
	c0.651,1.236,1.564,0.271,2.615,0.355c0.127,0.474,0.401,1.033,0.407,1.597c0.016,2.011,0.1,4.058-1.174,5.811
	c-2.562,3.527-3.171,7.737-4.168,11.815c-0.194,0.79-0.455,1.571-0.774,2.318c-1.593,3.717-6.05,5.616-9.865,4.803
	c-2.808-0.599-3.543-0.352-5.933,1.89c-0.804,0.251-1.643,0.514-2.549,0.798c-0.373-0.134-0.77-0.366-1.188-0.41
	c-2.949-0.316-3.954-2.476-4.477-4.902c-0.797-3.705-0.866-7.488-0.842-11.27c0.015-2.264-0.101-4.529-0.033-6.79
	c0.051-1.624,0.305-3.243,0.459-4.777c1.994-1.111,3.854-2.148,5.926-3.305c0.506,0.369,1.142,0.83,1.85,1.347
	c-1.931,0.833-3.735,1.533-5.468,2.385c-1.599,0.788-1.803,1.302-1.603,3.019c0.903,0.867,1.953,1.222,3.234,0.777
	c1.84-0.638,3.708-1.197,5.527-1.883c0.949-0.357,1.799-0.934,1.996-2.268c-0.232-0.427-0.525-0.97-0.871-1.608
	c0.442-0.636,0.932-1.34,1.39-1.998c2.885-0.743,5.726-1.472,8.77-2.255c-0.278,0.724-0.535,1.391-0.789,2.051
	c-0.557,0.364-1.069,0.7-1.869,1.224c0.653,0.427,1.095,0.859,1.622,1.037c2.813,0.945,5.617,1.879,7.791,4.054
	c0.149,0.148,0.456,0.138,0.69,0.201C122.266,53.628,122.377,53.493,122.49,53.357z M120.67,57.902
	c1.082-1.247,1.125-1.554,0.58-2.723c-0.854-1.828-2.398-2.824-4.18-3.559c-1.78-0.733-3.976-0.131-5.301,1.49
	c0.047,1.053,0.895,1.467,1.643,1.87C115.688,56.206,117.699,58.115,120.67,57.902z M103.113,65.794
	c1.927,1.287,6.602-0.014,8.07-2.091c-0.015-0.287-0.037-0.735-0.068-1.337c-1.416,0.806-2.598,1.618-3.889,2.175
	C105.986,65.076,104.631,65.346,103.113,65.794z M105.318,59.002c-0.461-0.805-0.849-1.482-1.219-2.133
	c2.582-2.051,2.582-2.051,2.556-3.227c-1.506,1.188-3.257,1.743-4.438,3.084C103.479,59.403,103.932,59.745,105.318,59.002z
	 M106.74,70.959c-0.778-0.168-1.612-0.777-2.09,0.625c0.65,0.388,1.312,0.781,1.826,1.087c1.317-0.214,2.131-0.649,1.991-1.948
	c-0.017-0.154-0.156-0.296-0.295-0.542C107.709,70.433,107.285,70.664,106.74,70.959z"/>
<path fill-rule="evenodd" clip-rule="evenodd" fill="#f04c47" class="fill" d="M127.672,117.455c-0.295,0.406-0.496,0.68-0.76,1.045
	c0.669,0.736,1.288,1.413,1.998,2.191c-1.167,0.704-1.461-0.264-1.979-0.76c-0.544-0.517-1.144-0.972-1.887-1.596
	c1.676-1.572,1.531-3.724,1.829-5.851c1.999,0.293,3.729,0.012,4.867-2.22c0.205-2.283-1.074-4.412-2.173-6.584
	c-0.311-0.614-0.648-1.273-1.145-1.721c-1.437-1.297-1.496-2.757-0.863-4.45c0.456-1.218,0.756-2.495,1.137-3.797
	c1.541,0.032,2.863,0.18,4.162,0.062c3.256-0.297,6.497-0.757,9.754-1.073c3.006-0.292,6.021-0.597,9.038-0.678
	c2.062-0.058,4.134,0.303,6.204,0.392c1.63,0.071,3.266-0.042,4.893,0.027c2.009,0.085,4.021,0.203,6.012,0.463
	c0.609,0.079,1.27,0.562,1.705,1.042c2.286,2.519,4.58,5.039,6.722,7.681c0.935,1.152,1.502,2.598,2.247,3.906
	c2.568,4.505,4.464,9.297,6.115,14.2c0.34,1.011,0.358,1.955-0.046,2.938c-0.903,2.198-1.785,4.405-2.797,6.91
	c-0.354-0.66-0.56-1.043-0.854-1.597c-0.807,0.956-1.139,2.305-2.722,2.401c-0.157-0.125-0.435-0.343-0.66-0.522
	c0.007-0.885,0.943-1.521,2.632-1.764c-0.071-0.825-0.142-1.666-0.213-2.53c0.232-0.688,1.67-0.593,1.134-2.04
	c-0.729,0.263-1.454,0.522-2.301,0.826c-0.159-0.146-0.371-0.337-0.59-0.538c2.455-2.107,2.455-2.107,2.714-3.486
	c-0.754,0.421-1.313,0.751-1.889,1.052c-0.568,0.296-1.152,0.565-1.73,0.847c-0.097-0.159-0.195-0.318-0.294-0.477
	c0.776-0.622,1.649-1.159,2.308-1.888c0.669-0.739,1.508-1.495,1.392-3.146c-0.949,0.917-1.558,1.62-2.282,2.168
	c-0.706,0.535-1.387,1.285-2.656,1.037c1.15-1.996,3.593-2.721,4.272-5.127c-2.219,0.253-3.128,2.678-5.416,2.983
	c0.965-2.247,3.928-2.821,3.824-5.817c-1.599,1.359-2.997,2.551-4.396,3.742c-0.104-0.092-0.209-0.184-0.313-0.275
	c0.546-2.074,3.434-2.905,3.196-5.558c-1.697,0.179-1.805,2.148-3.266,2.535c-0.574-0.542-0.264-1.226-0.267-1.77
	c0.566-1.115,2.544-1.386,1.636-3.357c-0.555,0.466-0.996,0.836-1.492,1.251c-1.331-1.488,1.412-2.188,0.525-3.61
	c-0.434,0.139-0.879,0.281-1.417,0.453c-0.146-0.357-0.284-0.692-0.391-0.953c0.135-0.902,1.367-1.42,0.552-2.549
	c-0.363,0.108-0.757,0.224-1.153,0.341c-1.092-0.549-0.774-1.572-0.772-2.404c-0.651-0.348-1.265-0.601-1.801-0.971
	c-1.537-1.061-3.177-1.722-5.082-1.779c-1.496-0.044-2.995-0.219-4.479-0.431c-1.388-0.198-2.443,0.399-3.49,1.282
	c-0.438-0.357-0.853-0.695-1.323-1.08c-0.299,0.207-0.547,0.375-0.83,0.569c0.205,0.662,0.39,1.267,0.637,2.07
	c-1.193-0.398-1.703-1.996-3.247-1.077c0.627,0.747,1.203,1.435,1.853,2.211c-0.259,0.306-0.483,0.567-0.773,0.908
	c-0.846-0.721-1.631-1.39-2.479-2.113c-0.399,0.32-0.667,0.533-1.191,0.95c0.928,0.658,1.742,1.232,2.656,1.878
	c-0.716,0.744-1.033,1.075-1.41,1.467c-0.991-1.025-1.77-2.17-3.272-2.268c-0.742,0.384-1.508,0.778-2.377,1.228
	c0.067,0.372,0.143,0.773,0.223,1.218c-0.693,0.106-1.588-0.926-2.158,0.524c1.192,0.952,2.438,1.948,4.042,3.228
	c-0.486,0.41-0.796,0.673-1.114,0.942c-1.733-1.157-2.54-3.102-4.551-3.318c-0.229-0.024-0.491,0.287-0.945,0.573
	c1.443,1.227,2.76,2.346,4.104,3.486c-0.139,0.192-0.215,0.374-0.351,0.467c-0.145,0.099-0.346,0.111-0.558,0.171
	c-1.194-1.196-2.384-2.386-3.629-3.631c-0.469,0.256-0.814,0.445-1.375,0.753c1.338,1.293,2.539,2.454,3.807,3.68
	c-0.33,0.377-0.555,0.633-0.856,0.976c-1.418-1.547-2.433-3.365-4.395-4.267c-0.257,0.142-0.52,0.289-0.916,0.509
	c1.333,1.581,2.603,3.086,3.947,4.68c-0.474,0.429-0.776,0.702-1.278,1.154c-1.027-1.597-1.985-3.083-2.945-4.572
	c-0.979,0.649-0.979,0.649-0.685,2.013c-0.558,0.132-1.143,0.27-2.04,0.481c0.997,1.447,1.803,2.615,2.651,3.843
	c-0.312,0.256-0.535,0.438-0.832,0.681c-1.042-1.44-1.604-3.148-3.341-3.957c-0.27,0.188-0.553,0.384-0.881,0.612
	c1.036,1.369,2.009,2.651,3.061,4.041c-0.693,0.518-1.181,0.881-1.723,1.285c-1.255-1.121-1.547-3.333-3.461-3.427
	c-0.152,0.164-0.303,0.328-0.456,0.493c0.819,1.145,1.636,2.291,2.536,3.549c-0.431,0.307-0.749,0.533-1.165,0.827
	C129.194,118.952,128.531,118.301,127.672,117.455z"/>
<path fill-rule="evenodd" clip-rule="evenodd" fill="#f04c47" class="fill" d="M28.5,99.049c2.082,1.628,3.976,3.441,6.486,4.453
	c5.531,2.232,11.084,2.053,16.621,0.249c2.142-0.697,4.195-1.726,6.191-2.787c1.474-0.784,2.791-1.865,4.454-3.002
	c0.593,0.124,1.563,0.353,2.542,0.531c3.106,0.564,6.137-0.267,9.195-0.531c2.761-0.238,5.514-0.544,8.275-0.77
	c0.865-0.071,1.744,0.022,3.118,0.05c-1.582,1.457-2.899,2.536-4.05,3.77c-1.195,1.28-2.353,2.632-3.299,4.098
	c-0.943,1.459-1.603,3.101-2.438,4.764c-0.279-0.466-0.548-0.914-1.075-1.791c-0.322,1.419-0.546,2.403-0.806,3.549
	c-0.6,0.075-1.187,0.149-1.781,0.224c-0.632-1.284-0.032-2.79-1.15-3.904c-1.086,1.151-0.287,2.622-0.959,3.963
	c-0.404,0.021-0.923,0.046-1.517,0.075c-0.272-1.285-0.513-2.42-0.784-3.706c-1.21,1-0.794,2.361-1.416,3.781
	c-0.499-1.362-0.883-2.405-1.266-3.447c-0.166,0.022-0.33,0.044-0.499,0.065c-0.075,1.072-0.151,2.144-0.235,3.282
	c-0.333,0.076-0.618,0.142-1.021,0.233c-0.307-0.99-0.586-1.896-0.867-2.801c-0.145-0.006-0.293-0.013-0.439-0.018
	c-0.297,0.908-0.594,1.816-0.944,2.887c-0.802,0.044-1.655,0.092-2.675,0.149c-0.244-0.959-0.467-1.829-0.723-2.842
	c-1.185,0.653-0.461,1.888-1.404,2.795c-0.298,0.014-0.932,0.04-1.547,0.065c-0.502-1.241,0.188-2.727-1.466-3.675
	c-0.105,1.257-0.19,2.282-0.292,3.522c-0.75,0.043-1.459,0.083-2.171,0.122c-0.358-0.967-0.665-1.796-0.973-2.625
	c-0.125,0.012-0.25,0.024-0.375,0.037c-0.158,0.372-0.358,0.733-0.464,1.12c-0.111,0.416-0.137,0.855-0.215,1.406
	c-0.705-0.015-1.361-0.028-2.047-0.042c-0.247-0.974-0.479-1.89-0.709-2.807c-0.168-0.008-0.332-0.016-0.498-0.022
	c-0.281,0.902-0.559,1.806-0.865,2.8c-0.312-0.007-0.651-0.014-1.039-0.021c-0.317-1.184-0.048-2.477-1.037-3.515
	c-0.968,1.025-0.287,2.369-1.088,3.608c-0.396,0.021-1.037,0.058-1.594,0.089c-0.743-1.213-0.069-2.694-1.236-3.708
	c-1.06,1.122-0.426,2.517-0.939,3.774c-0.604-0.013-1.248-0.026-2.057-0.043c-0.204-1.434-0.4-2.805-0.63-4.416
	c-1.621,1.335-0.517,3.256-1.784,4.658c-0.381-1.279-0.689-2.325-1.002-3.373c-0.175,0.004-0.349,0.009-0.523,0.014
	c-0.232,0.868-0.466,1.737-0.726,2.709c-0.352-0.007-0.76-0.016-1.294-0.027c-0.494-1.535-0.974-3.026-1.451-4.517
	c-0.137,0.027-0.274,0.053-0.409,0.079c-0.022,1.141-0.047,2.285-0.071,3.425c-0.125,0.04-0.252,0.079-0.377,0.118
	c-0.254-0.445-0.585-0.863-0.75-1.338c-1.07-3.103-0.953-6.189,0.24-9.236C26.975,99.711,27.383,98.913,28.5,99.049z"/>
<path fill-rule="evenodd" clip-rule="evenodd" fill="#f04c47" class="fill" d="M87.266,63.35c-1.362-0.028-2.73-0.056-4.348-0.089
	c-0.393-0.855-0.794-1.727-1.332-2.898c-0.193-0.037-0.706-0.134-1.201-0.226c-0.225,0.734-0.323,1.34-0.594,1.854
	c-0.285,0.545-0.734,1.003-1.211,1.629c-0.992-0.167-1.976-0.318-2.955-0.499c-0.928-0.172-1.896-0.928-2.844,0.32
	c0.707,1.383,1.655,2.575,3.246,3.375c-0.381,0.719-0.684,1.296-1.117,2.117c-2.756-3.524-5.025-6.876-3.93-11.458
	c0.915-3.838,2.418-7.443,4.501-10.755c1.05-1.671,2.61-3.021,4.04-4.633c0.77,0.555,1.354,0.976,1.928,1.392
	c-1.371,2.194-2.65,4.245-3.947,6.317c1.146,1.085,1.964,0.15,2.777-0.049c0.902-0.221,1.751-0.658,2.613-0.999
	c1.016,0.676,0.598,2.789,2.628,2.33c0.504-0.401,1.084-0.864,1.772-1.413c0.607,0.469,1.186,0.915,1.971,1.522
	c-0.538,0.609-0.918,1.152-1.405,1.569c-1.196,1.025-2.465,1.964-3.654,2.995c-0.555,0.481-0.993,1.095-1.407,1.561
	c0.725,3.081,1.338,3.623,7.962,7.104c0.139,1.752,0.296,3.62,0.433,5.49c0.18,2.447,0.166,4.924,0.558,7.336
	c0.437,2.698,2.079,4.464,4.86,5.149c2.037,0.502,3.962,0.373,5.934-0.259c2.098-0.67,4.23-1.228,6.361-1.783
	c0.645-0.168,1.335-0.167,2.348-0.282c-0.483,1.364-0.866,2.445-1.223,3.451c-1.421,0.805-3.132,0.252-4.44,1.329
	c0.679,1.347,2.247,1.197,3.106,2.14c0.066,1.548-1.456,3.067-0.109,4.654c-0.387,1.299-0.758,2.556-1.213,4.09
	c-2.469-0.646-4.864-1.274-7.326-1.919c-0.304-0.525-0.616-1.062-0.959-1.652c1.449-1.33,3.469-1.881,4.651-3.797
	c-1.656-0.846-3.428,0.491-4.84-0.628c-0.777-1.332-0.251-3.128-1.513-4.499c-1.644,1.223-2.744,2.884-4.074,4.571
	c-0.283-0.401-0.54-0.649-0.65-0.951c-0.102-0.284-0.048-0.623-0.066-0.938c-0.167-3.07-1.378-5.236-4.446-6.526
	c-3.111-1.308-6.186-2.858-8.706-5.229c-0.727-0.683-1.418-1.404-2.316-2.296c1.051-0.632,1.931-1.161,2.715-1.632
	c1.886,1.057,3.619,2.028,5.402,3.027c0.368-0.533,0.574-0.83,0.829-1.197c-0.515-1.466-1.033-2.939-1.551-4.417
	C85.35,66.169,87.72,65.727,87.266,63.35z"/>
<path fill-rule="evenodd" clip-rule="evenodd" fill="#f04c47" class="fill" d="M107.457,133.822c-0.452-0.045-0.906-0.09-1.678-0.165
	c1.078,2.284,2.941,3.456,4.512,5.408c-1.022-0.076-1.658-0.124-2.463-0.184c-1.316-1.7-2.797-3.348-3.975-5.19
	c-2.227-3.49-4.408-7.017-6.135-10.803c-1.28-2.802-2.711-5.549-3.155-8.639c-0.177-1.233-0.222-2.514-0.111-3.754
	c0.187-2.095,1.002-3.895,2.843-4.861c2.345,0.348,4.561,0.677,6.964,1.034c-0.013,0.623,0.001,1.407-0.05,2.188
	c-0.13,1.947-0.391,3.892-0.384,5.837c0.004,0.801,0.396,1.733,0.907,2.369c0.913,1.141,2.615,1.079,3.628-0.134
	c1.042-1.25,1.896-2.658,2.829-3.998c0.237-0.343,0.471-0.689,1.073-0.996c0.245,2.44,0.487,4.881,0.71,7.134
	c2.861,1.444,4.489,0.757,6.584-2.613c0.354,0.735,0.668,1.384,1.008,2.086c0.455,0.271,0.936,0.558,1.495,0.891
	c-0.102,0.319-0.207,0.654-0.409,1.3c1.116,1.042,2.338,2.18,3.739,3.487c-0.392,0.5-0.822,1.05-1.176,1.503
	c-1.785-1.226-3.399-2.366-5.062-3.436c-0.222-0.144-0.68,0.077-1.18,0.153c0.542,1.4,2.024,1.332,2.79,2.204
	c0.764,0.867,1.478,1.742,2.303,2.546c-0.13,0.122-0.259,0.243-0.388,0.366c-0.787-0.623-1.535-1.305-2.373-1.853
	c-0.888-0.582-1.859-1.036-2.847-1.574c-0.27,0.168-0.526,0.326-1.059,0.656c1.977,1.318,3.802,2.537,5.749,3.835
	c-0.412,0.425-0.611,0.632-0.878,0.909c-1.685-1.312-3.3-2.582-4.932-3.832c-0.498-0.381-1.017-0.754-1.574-1.033
	c-0.263-0.132-0.642-0.034-1.063,0.157c1.881,2.324,4.484,3.744,6.654,5.854c-0.179,0.254-0.369,0.523-0.647,0.917
	c-2.241-1.677-4.394-3.285-6.612-4.946c-0.364,0.265-0.637,0.465-1.043,0.763c1.946,2.156,4.591,3.235,6.686,5.309
	c-0.423,0.58-0.838,1.154-1.31,1.803c-2.638-1.672-4.612-4.141-7.424-5.183c-0.146,0.218-0.288,0.437-0.433,0.657
	c1.825,2.321,4.744,3.419,6.746,5.787c-0.442,0.55-0.906,1.123-1.473,1.822c-1.253-1.116-2.381-2.271-3.662-3.222
	c-1.239-0.921-2.442-1.989-3.939-2.474c-0.102,0.113-0.202,0.226-0.304,0.338c0.237,0.462,0.476,0.924,0.713,1.386
	C107.588,133.693,107.522,133.758,107.457,133.822z"/>
<path fill-rule="evenodd" clip-rule="evenodd" fill="#f04c47" class="fill" d="M91.741,110.191c-0.549,6.502,2.376,11.813,4.507,16.966
	c0.161,3.483,0.306,6.62,0.453,9.753c-2.876,1.872-12.695,2.841-17.108,1.688c-0.918-2.392-1.7-8.743-1.423-11.958
	c0.904-0.609,1.932-1.3,3.046-2.049c1.391,0.754,2.637,1.656,4.032,2.123c1.398,0.469,2.944,0.503,4.318,0.713
	c1.06-1.378,0.18-2.22-0.449-3.024c-0.889-1.132-1.892-2.175-3.032-3.468c0.727-0.646,1.355-1.204,1.981-1.766
	c1.117-1.004,2.258-2,1.996-3.849c-1.984-0.134-3.907-0.264-5.693-0.384c-1.125-1.39-1.631-2.996-3.223-3.765
	c-0.982,0.753-1.949,1.496-3.209,2.463c0.447-3.383,1.021-6.295,2.807-8.843c2.538-3.622,6.129-5.899,9.965-7.875
	c1.115-0.574,2.062,0.082,3.227,0.283c-1.768,3.041-4.721,3.825-7.767,4.325c0.652,1.789,0.652,1.789,3.881,3.325
	c-0.421,1.666-0.855,3.38-1.337,5.279C89.799,110.151,90.641,110.168,91.741,110.191z"/>
<path fill-rule="evenodd" clip-rule="evenodd" fill="#f04c47" class="fill" d="M16.814,84.947c-0.057,2.729-0.113,5.458-0.176,8.516
	c0.537-0.332,1.018-0.459,1.138-0.739c0.266-0.622,0.458-1.316,0.489-1.99c0.097-2.124,0.105-4.253,0.156-6.651
	c0.803-0.467,1.764-0.27,2.824,0.426c0.955,1.627,0.873,3.562,0.945,5.418c0.097,2.443-0.106,4.897-0.048,7.343
	c0.085,3.575,0.285,7.146,0.442,10.718c0.071,1.632,0.156,3.263,0.229,4.717c1.334,4.187,1.211,8.307,0.854,12.567
	c-0.881,0.505-1.31,1.317-1.289,2.422c0.04,2.323,0.02,4.647,0,6.97c-0.021,2.899-0.063,5.798-0.105,8.697
	c-0.006,0.243-0.087,0.485-0.153,0.836c-1.742,0.657-3.567,0.29-5.595,0.592c-0.044-1.928-0.128-3.667-0.114-5.406
	c0.015-2.197,0.172-4.395,0.155-6.59c-0.048-6.041-0.82-12.047-0.639-18.109c0.141-4.646-0.178-9.307-0.322-13.959
	c-0.107-3.457-0.322-6.913-0.367-10.37c-0.017-1.434,0.254-2.877,0.469-4.304c0.067-0.438,0.388-0.838,0.593-1.256
	C16.471,84.846,16.643,84.896,16.814,84.947z M18.215,112.659c-0.236,0.014-0.473,0.029-0.711,0.043
	c-0.057,0.64-0.219,1.29-0.144,1.913c0.079,0.674,0.432,1.312,0.573,1.985c0.313,1.464,0.793,2.941,0.789,4.412
	c-0.004,1.801-0.449,3.6-0.675,5.403c-0.197,1.557-0.501,3.119-0.501,4.678c0.004,3.256,0.17,6.512,0.299,9.767
	c0.011,0.257,0.263,0.505,0.542,1.012c0.345-0.469,0.748-0.765,0.764-1.08c0.083-1.753,0.312-3.548,0.04-5.255
	c-0.467-2.929-0.164-5.774,0.378-8.613c0.532-2.796,0.833-5.608,0.338-8.4C19.553,116.532,18.794,114.611,18.215,112.659z
	 M19.326,94.929c-0.391,1.272-0.861,2.197-0.931,3.149c-0.23,3.263-0.348,6.54,0.426,9.762c0.924,3.841,1.859,7.678,2.825,11.508
	c0.071,0.28,0.421,0.489,0.667,0.762c0.771-0.692,0.747-1.425,0.554-2.174c-0.355-1.397-0.784-2.777-1.101-4.184
	c-0.771-3.423-1.81-6.805-1.809-10.361c0.001-1.807,0.069-3.613,0.07-5.419C20.027,97.068,20.378,96.096,19.326,94.929z"/>
<path fill-rule="evenodd" clip-rule="evenodd" fill="#f04c47" class="fill" d="M24.812,94.347c-0.106-1.031-0.176-1.715-0.256-2.491
	c1.386-1.329,3.199-1.909,4.862-2.76c4.702-2.402,9.823-3.043,14.957-3.682c3.384-0.42,6.787-1.009,10.145-0.133
	c2.915,0.761,5.764,1.786,8.617,2.764c0.615,0.211,1.128,0.723,1.751,1.137c-0.176,0.418-0.292,0.693-0.483,1.148
	c-3.521-1.844-6.676-1.046-9.606,1.304c-5.844-2.18-6.784-2.189-11.301-0.113c-5.074-3.666-10.338-2.846-15.295,1.294
	c1.682,2.985,4.629,4.152,8.307,3.268c2.477-0.593,4.843-1.413,6.48-3.455c4.861,2.703,6.978,2.62,10.583,0.934
	c2.243,0.284,4.272,0.541,6.397,0.81c-0.234,0.236-0.468,0.57-0.785,0.778c-2.053,1.347-4.117,2.681-6.58,3.19
	c-0.551,0.115-1.109,0.273-1.668,0.279c-3.401,0.043-6.802,0.095-10.202,0.052c-3.496-0.043-6.859-0.864-10.131-2.045
	C28.662,95.925,26.756,95.117,24.812,94.347z"/>
<path fill-rule="evenodd" clip-rule="evenodd" fill="#f04c47" class="fill" d="M165.492,114.626c-0.772-1.58,0.036-3.396-1.606-4.297
	c-0.198,1.364-0.392,2.708-0.6,4.146c-0.786-0.016-1.448-0.029-2.21-0.045c-0.091-1.198-0.18-2.326-0.28-3.688
	c-1.573,1.013-1.192,2.702-2.077,3.836c-1.365-0.871-0.254-2.675-1.62-3.562c-0.331,1.117-0.625,2.105-0.948,3.189
	c-0.576-0.065-1.046-0.116-1.678-0.187c-0.117-1.307-0.228-2.538-0.349-3.878c-0.394,0.019-0.724,0.036-1.098,0.054
	c-0.162,1.227-0.308,2.338-0.467,3.561c-0.415,0.043-0.817,0.084-1.384,0.143c-0.045-1.213-0.082-2.308-0.133-3.71
	c-1.728,0.926-1.216,2.639-1.936,3.867c-0.42-0.048-0.892-0.103-1.423-0.165c-0.062-0.731-0.12-1.387-0.186-2.151
	c4.328-4.097,8.698-8.233,12.886-12.197c1.77-0.073,3.268-0.159,4.766-0.189c1.879-0.036,2.529,0.338,3.131,2.076
	c0.727,2.099,1.023,4.248,0.477,6.48c-0.243,0.994-0.199,2.059-0.292,3.17c-0.6-0.066-1.017-0.112-1.439-0.158
	c-1.276,0.883-0.3,1.708,0.194,2.658C166.664,113.916,166.156,114.223,165.492,114.626z"/>
<path fill-rule="evenodd" clip-rule="evenodd" fill="#f04c47" class="fill" d="M118.961,106.492c-1.166,0.193-1.398,0.999-1.517,1.821
	c-0.292,1.993-0.538,3.992-0.79,5.989c-0.156,1.231-0.201,1.325-1.465,2.225c-0.726-3.522-0.045-7.122-1.218-10.464
	c-0.996-0.309-1.618,0.253-2.198,0.82c-2.14,2.089-4.096,4.294-4.583,7.416c-0.052,0.334-0.303,0.638-0.571,1.171
	c-0.26-0.453-0.508-0.691-0.519-0.938c-0.082-2.087,0.081-4.145,0.998-6.067c0.574-1.205,0.99-2.433,0.798-3.915
	c-2.627-1.698-5.546,0.147-8.209-0.555c-0.464-0.89,0.022-1.394,0.639-1.762c0.753-0.45,1.534-0.876,2.349-1.191
	c1.702-0.655,3.434-1.23,5.177-1.847c5.523,2.033,11.294,2.368,17.107,2.684c2.158,2.534,4.064,5.866,4.289,7.564
	c-1.288,0.512-1.969-0.401-2.678-1.17c-0.678-0.736-1.299-1.526-1.985-2.339c-0.591,0.37-0.929,0.585-1.322,0.832
	c0.332,1.745,0.675,3.405,0.956,5.076c0.24,1.425,0.377,2.854-0.874,4.333c-0.336-0.552-0.662-0.905-0.78-1.317
	c-0.42-1.451-0.67-2.958-1.17-4.377C120.865,108.975,120.478,107.313,118.961,106.492z"/>
<path fill-rule="evenodd" clip-rule="evenodd" fill="#f04c47" class="fill" d="M90.412,46.063c-2.486-1.315-5.084-2.314-6.962-4.848
	c6.314-4.639,13.182-7.542,20.795-8.792c-0.684,1.477-2.202,1.867-3.422,2.514c-1.261,0.668-2.763,0.886-4.231,1.322
	c0.344,1.08,0.937,0.978,1.588,0.947c1.883-0.088,3.772-0.18,5.655-0.132c1.819,0.046,3.592,0.431,5.269,1.08
	c-0.029,0.994-0.673,0.935-1.213,0.982c-1.565,0.136-3.144,0.196-4.7,0.396c-1.104,0.143-2.183,0.464-3.307,0.714
	c-0.116,0.713-0.203,1.254-0.307,1.905c2.444,0.84,3.919,2.51,4.281,5.274c-0.521-0.253-1.077-0.451-1.551-0.771
	c-0.676-0.457-1.32-0.969-1.924-1.519c-1.959-1.783-4.089-2.044-6.431-0.833C92.784,44.906,91.598,45.476,90.412,46.063z"/>
<path fill-rule="evenodd" clip-rule="evenodd" fill="#f04c47" class="fill" d="M25.346,122.21c0.038-0.488,0.074-0.961,0.124-1.598
	c1.401,0.029,2.735,0.23,4.009,0.038c1.541-0.234,3.041-0.776,4.543-1.227c2.531-0.757,5.072-1.254,7.729-1.528
	c2.109-0.218,4.214-0.458,6.334-0.461c2.39-0.003,4.778,0.086,6.627,0.124c6.006,2.567,11.751,3.93,18.029,4.102
	c-0.046,0.629-0.1,1.339-0.167,2.233c-8.097,0.239-15.581-2.097-23.188-4.429c-0.187,0.213-0.411,0.47-0.756,0.861
	c2.446,1.696,5.242,1.995,7.854,2.746c2.64,0.757,5.337,1.318,7.993,2.154c-2.424-0.05-4.847-0.129-7.269-0.143
	c-3.163-0.016-5.989-1.334-8.916-2.252c-3.938-1.234-7.894-2.062-12.068-1.574C32.679,121.673,29.109,121.889,25.346,122.21z"/>
<path fill-rule="evenodd" clip-rule="evenodd" fill="#f04c47" class="fill" d="M85.269,149.174c-1.626-0.614-1.929-0.252-2.808,3.085
	c-1.07-0.418-1.318-0.819-0.912-1.826c0.289-0.719,0.75-1.37,1.16-2.098c-1.722-0.308-2.609,0.733-3.218,3.642
	c-0.552-0.011-1.126-0.023-2.008-0.042c0.541-1.308,0.982-2.378,1.427-3.452c-0.816-0.813-1.072-0.834-1.61,0.023
	c-0.493,0.784-0.894,1.625-1.44,2.637c-0.366-0.416-0.582-0.661-0.896-1.016c0.71-0.781,1.364-1.498,2.048-2.247
	c-1.427-0.512-1.72-0.389-3.64,1.451c-1.817-0.201-2.047-0.481-1.737-2.128c0.104-0.069,0.211-0.205,0.307-0.197
	c2.955,0.25,4.453-1.954,6.223-3.69c0.445-0.438,0.837-0.928,1.125-1.252c4.604-0.582,8.967-0.562,13.448,1.071
	c-2.158,3.062-4.031,6.178-3.771,9.884c-1.039,1.266-2.126,1.843-3.643,1.443C83.639,152.792,84.385,151.041,85.269,149.174z"/>
<path fill-rule="evenodd" clip-rule="evenodd" fill="#f04c47" class="fill" d="M132.709,152.45c-0.481-1.037,0.249-2.318-0.938-3.028
	c-1.443,0.379-0.68,1.677-1.161,2.75c-0.183,0.104-0.578,0.328-1.002,0.57c-0.606-1.02,0.783-2.622-1.156-3.057
	c-0.836,0.929-0.046,3.084-2.22,2.949c-0.588-1.21,1.024-2.563-0.303-3.76c-1.071,0.46-1.012,1.521-1.311,2.356
	c-0.693,1.94-1.605,2.434-3.827,1.978c-0.31-0.911,0.23-1.596,0.8-2.122c2.133-1.968,3.161-4.28,2.721-7.226
	c-0.173-1.166-0.082-2.371-0.113-3.668c3.643-0.514,7.236,0.516,10.974,0.207c0.632,3.615-0.636,7.484,1.99,10.63
	c-0.377,0.852-0.689,1.651-1.67,1.514c-0.368-1.316-0.672-2.5-1.06-3.657c-0.05-0.152-0.524-0.165-0.761-0.229
	C132.688,149.781,134.405,151.466,132.709,152.45z"/>
<path fill-rule="evenodd" clip-rule="evenodd" fill="#f04c47" class="fill" d="M125.819,92.497c-0.019-0.428-0.034-0.857-0.048-1.188
	c-1.342-1.304-3.013-1.048-4.527-1.319c-0.833-1.274,0.353-2.984-1.127-4.243c-1.834,0.525-2.771,2.281-4.383,3.653
	c-0.699-0.18-1.56-0.4-2.416-0.62c1.278-5.292,3.097-8.596,6.061-11.499c0.496-0.871,0.992-1.742,1.708-2.998
	c0.972,1.729,1.72,3.061,2.558,4.552c-1.092,1.08-2.221,2.196-3.541,3.5c2.768,1.313,4.718-0.562,7.032-0.987
	c0.36,0.261,0.804,0.581,1.152,0.833c0.06,0.276,0.132,0.408,0.105,0.519c-0.623,2.82-1.24,5.643-1.91,8.453
	c-0.11,0.464-0.463,0.872-0.703,1.306L125.819,92.497z"/>
<path fill-rule="evenodd" clip-rule="evenodd" fill="#f04c47" class="fill" d="M136.885,119.372c1.508,4.281,1.553,13.534,0.549,18.342
	c-4.868-0.713-9.559-2.176-14.607-3.483c0.477-0.757,0.82-1.3,1.278-2.028c0.36,0.434,0.602,0.725,0.979,1.186
	c2.349-0.896,3.363-3.364,5.336-4.816c1.906,0.212,3.839,1.095,5.911,0.282c-0.143-2.805-2.723-4.149-3.845-6.48
	C133.984,121.352,135.365,120.41,136.885,119.372z"/>
<path fill-rule="evenodd" clip-rule="evenodd" fill="#f04c47" class="fill" d="M105.711,45.078c-0.942-1.073-1.675-1.91-2.642-3.011
	c1.945-0.535,3.608-0.974,5.261-1.454c0.778-0.227,1.562-0.473,2.295-0.818c0.773-0.367,1.277-0.986,1.201-2.038
	c-0.865-0.383-1.744-0.772-2.906-1.285c0.913-0.672,1.545-1.135,2.165-1.591c1.775,1.341,0.323,3.578,1.708,4.96
	c2.595-0.005,3.473-2.724,5.74-3.673c0.564,1.208,1.104,2.367,1.715,3.674c2.381-0.345,2.82-3.217,5.082-3.73
	c0.324,0.813,0.658,1.653,1.049,2.64c0.594-0.149,1.107-0.277,1.688-0.422c0.062,1.619-0.421,3.041-1.455,4.482
	c-0.428-1.056-0.795-1.965-1.233-3.047c-2.761,0.893-4.604,3.113-7.121,4.367c-0.592-1.539,0.416-3.228-0.786-4.677
	C113.988,42.223,109.777,43.275,105.711,45.078z"/>
<path fill-rule="evenodd" clip-rule="evenodd" fill="#f04c47" class="fill" d="M83.84,121.077c1.488,1.575,2.764,2.927,4.258,4.509
	c-2.974,0.334-4.482-1.871-6.693-2.671c-1.04,0.559-2.127,1.141-3.312,1.775c-1.111-2.64-0.312-5.255-0.701-7.667
	c0.836-1.66,1.865-2.973,3.608-3.992c0.777,1.109,1.549,2.206,2.438,3.474c1.466,0.03,3.015,0.062,4.56,0.094
	c0.066,0.135,0.13,0.271,0.195,0.407C86.775,118.333,85.354,119.66,83.84,121.077z"/>
<path fill-rule="evenodd" clip-rule="evenodd" fill="#f04c47" class="fill" d="M25.276,125.315c0.009-0.446,0.017-0.802,0.027-1.312
	c4.363-1.528,8.929-1.196,13.387-1.413c3.231-0.155,6.431,0.713,9.648,2.007C44.59,125.914,29.654,126.368,25.276,125.315z"/>
<path fill-rule="evenodd" clip-rule="evenodd" fill="#f04c47" class="fill" d="M119.793,94.548c0.27,0.973,0.537,1.918,0.8,2.865
	c-0.104,0.082-0.208,0.166-0.312,0.249c-1.032-0.853-2.065-1.706-3.227-2.665c-1.013,0.413-2.123,0.865-3.231,1.317
	c-0.082-0.133-0.164-0.263-0.246-0.396c0.684-0.68,1.369-1.361,2.138-2.126c-0.717-0.986-1.393-1.917-2.323-3.193
	c1.139,0.108,1.845,0.175,2.552,0.242c0.081,0.086,0.165,0.172,0.248,0.259c0.951-0.988,1.9-1.975,3.099-3.222
	c0.105,1.2,0.187,2.137,0.282,3.224c1.418,0.178,2.795,0.35,4.381,0.549C122.895,93.374,120.967,93.219,119.793,94.548z"/>
<path fill-rule="evenodd" clip-rule="evenodd" fill="#f04c47" class="fill" d="M75.781,64.794c1.256,0.026,2.229,0.046,3.34,0.068
	c0.546-0.584,1.141-1.219,1.829-1.955c0.276,0.271,0.568,0.557,0.859,0.844c0.268,0.262,0.532,0.526,0.794,0.784
	c0.954,0.02,1.873,0.039,3.279,0.068c-1.271,1.081-2.234,1.902-3.259,2.774c0.459,1.086,0.901,2.138,1.346,3.189
	c-0.115,0.099-0.231,0.197-0.347,0.296c-1.18-0.745-2.361-1.489-3.512-2.217c-1.334,0.701-2.591,1.36-4.053,2.127
	c-0.384-1.908,1.619-2.797,1.224-4.5C76.9,65.895,76.431,65.432,75.781,64.794z"/>
<path fill-rule="evenodd" clip-rule="evenodd" fill="#f04c47" class="fill" d="M29.988,92.997c4.214-3.125,8.977-3.105,11.383-0.921
	C39.306,95.301,33.135,95.851,29.988,92.997z"/>
<path fill-rule="evenodd" clip-rule="evenodd" fill="#f04c47" class="fill" d="M90.763,108.301c0.397-1.366,0.791-2.715,1.245-4.268
	c-0.938-0.449-1.867-0.895-3.248-1.557c3.268-0.78,5.305-2.734,7.051-4.979c1.559,1.036,1.686,2.464,2.164,3.881
	c-0.467,0.315-0.898,0.663-1.376,0.918c-2.087,1.114-3.545,2.751-4.377,4.974C92.027,107.785,91.965,108.601,90.763,108.301z"/>
<path fill-rule="evenodd" clip-rule="evenodd" fill="#f04c47" class="fill" d="M162.867,127.45c0.216-0.02,0.563-0.052,1.043-0.096
	c0.427,2.989,0.122,5.839-0.587,8.657c-0.476,1.89-1.159,3.737-1.51,5.648c-0.304,1.646-0.271,3.354-0.398,5.218
	c-0.505,0.013-1.085,0.028-1.548,0.04c-0.604-3.883,0.773-7.306,1.558-10.836C162.034,133.335,162.364,130.527,162.867,127.45z"/>
<path fill-rule="evenodd" clip-rule="evenodd" fill="#f04c47" class="fill" d="M141.551,125.667c-0.048-0.591-0.081-1.016-0.117-1.452
	c0.209-0.114,0.361-0.268,0.521-0.277c0.437-0.021,0.941-0.119,1.299,0.058c2.24,1.1,4.541,0.606,6.842,0.368
	c4.143-0.429,8.281-0.397,12.398,0.271c0.767,0.124,1.498,0.469,2.21,0.896c-2.28,0.345-4.495,1.029-6.784,0.25
	c-0.514-0.175-1.12-0.097-1.683-0.094c-4.523,0.023-9.05,0.059-13.576,0.084C142.355,125.772,142.047,125.715,141.551,125.667z"/>
<path fill-rule="evenodd" clip-rule="evenodd" fill="#f04c47" class="fill" d="M122.02,73.814c0.619-2.403,1.192-4.622,1.791-6.934
	c1.713,0.5,2.71,1.873,3.906,3.049c-0.304,1.594-0.604,3.167-0.903,4.741C124.98,75.02,123.535,74.144,122.02,73.814z"/>
<path fill-rule="evenodd" clip-rule="evenodd" fill="#f04c47" class="fill" d="M164.898,146.507c-0.693,0.094-1.159,0.157-1.707,0.23
	c-0.506-1.727-0.254-3.335,0.086-4.916c0.317-1.476,0.705-2.941,1.163-4.379c0.948-2.98,1.208-6.038,1.182-9.138
	c-0.002-0.301,0.011-0.6,0.305-0.952c0.1,0.369,0.271,0.736,0.284,1.108c0.104,3.085,0.201,6.171,0.245,9.259
	c0.01,0.67-0.081,1.396-0.34,2.007C165.209,141.872,164.045,143.939,164.898,146.507z"/>
<path fill-rule="evenodd" clip-rule="evenodd" fill="#f04c47" class="fill" d="M96.962,91.264c0.238,0.776,0.418,1.361,0.698,2.272
	c-1.227-0.19-2.279-0.354-3.45-0.537c-0.161-1.324-1.694-2.164-1.332-3.232c1.48-1.407,2.62-2.49,3.913-3.718
	c0.254,1.061,0.482,2.01,0.731,3.049c0.731,0.15,1.493,0.307,2.255,0.464c0.028,0.125,0.058,0.252,0.087,0.379
	C98.96,90.354,98.057,90.766,96.962,91.264z"/>
<path fill-rule="evenodd" clip-rule="evenodd" fill="#f04c47" class="fill" d="M73.044,117.532c-0.017,0.821-0.03,1.484-0.048,2.298
	c-4.26,1.025-8.051-0.83-12.417-1.516c1.64-0.981,3.028-0.429,4.319-0.604c1.306-0.178,2.634-0.227,3.954-0.253
	C70.223,117.432,71.594,117.502,73.044,117.532z"/>
<path fill-rule="evenodd" clip-rule="evenodd" fill="#f04c47" class="fill" d="M148.224,122.692c1.186-0.309,2.433-0.482,3.55-0.954
	c3.271-1.376,6.479-1.096,9.712,0.077c1.236,0.448,2.504,0.799,3.745,1.231c0.24,0.083,0.421,0.336,0.572,0.668
	c-5.827-1.448-11.668-1.314-17.532-0.556C148.254,123.003,148.239,122.849,148.224,122.692z"/>
<path fill-rule="evenodd" clip-rule="evenodd" fill="#f04c47" class="fill" d="M127.165,79.76c-1.114,0.393-2.15,0.759-3.188,1.125
	c-0.09-0.125-0.176-0.25-0.265-0.375c0.699-0.491,1.4-0.983,2.259-1.586c-0.823-1.017-1.49-1.839-2.155-2.661
	c0.061-0.131,0.121-0.262,0.181-0.394c1.261,0.092,2.519,0.184,3.894,0.285c0.276-0.952,0.526-1.814,0.816-2.822
	c0.812,1.51,0.76,4.406-0.05,6.937C128.203,80.113,127.749,79.958,127.165,79.76z"/>
<path fill-rule="evenodd" clip-rule="evenodd" fill="#f04c47" class="fill" d="M125.78,92.461c-0.286,2.466-0.603,4.927-1.219,7.418
	c-0.651,0.02-1.119,0.035-1.585,0.049c-0.497-1.726-0.962-3.332-1.417-4.905c1.498-0.888,2.878-1.708,4.26-2.526L125.78,92.461z"/>
<path fill-rule="evenodd" clip-rule="evenodd" fill="#f04c47" class="fill" d="M31.896,116.433c0.747,0.125,2.208,0.37,3.671,0.615
	c-2.417,1.315-4.785,2.474-7.506,2.284c-0.74-0.053-1.48-0.263-2.189-0.493c-0.544-0.175-0.783-0.598-0.592-0.999
	C27.283,117.414,29.158,117.016,31.896,116.433z"/>
<path fill-rule="evenodd" clip-rule="evenodd" fill="#f04c47" class="fill" d="M129.618,127.098c-0.938,1.065-1.907,2.168-3.014,3.425
	c-0.456-1.284-0.056-2.076,0.618-2.761c1.295-1.312,2.621-2.597,3.998-3.955c1.004,0.94,2.119,1.992,2.759,3.481
	C132.446,128.153,131.229,126.741,129.618,127.098z"/>
<path fill-rule="evenodd" clip-rule="evenodd" fill="#f04c47" class="fill" d="M112.127,98.205c1.684-0.564,3.042-1.02,4.415-1.48
	c1.411,0.98,2.821,1.959,4.233,2.938C117.811,99.985,115.083,99.248,112.127,98.205z"/>
<path fill-rule="evenodd" clip-rule="evenodd" fill="#f04c47" class="fill" d="M159.139,127.772c0.61-0.1,0.963-0.158,1.235-0.203
	c1.176,0.807,0.476,6.777-1.087,9.359C159.237,133.818,159.189,130.891,159.139,127.772z"/>
<path fill-rule="evenodd" clip-rule="evenodd" fill="#f04c47" class="fill" d="M45.622,92.009c2.382-1.104,4.571-0.744,6.884,0.278
	C50.545,93.865,47.867,93.737,45.622,92.009z"/>
<path fill-rule="evenodd" clip-rule="evenodd" fill="#f04c47" class="fill" d="M107.653,133.629c2.248,1.278,4.231,2.889,6.147,4.862
	c-0.389,0.266-0.711,0.488-1.107,0.76c-1.951-1.685-3.814-3.339-5.236-5.429C107.522,133.758,107.588,133.693,107.653,133.629z"/>
<path fill-rule="evenodd" clip-rule="evenodd" fill="#f04c47" class="fill" d="M55.793,92.309c2.135-1.044,3.878-2.162,6.109-1.253
	C60.6,92.832,58.739,93.245,55.793,92.309z"/>
<path fill-rule="evenodd" clip-rule="evenodd" fill="#f04c47" class="fill" d="M109.841,96.833c0.733-1.532,1.467-3.063,2.256-4.709
	c0.359,0.264,0.58,0.377,0.732,0.55c0.285,0.325,0.533,0.687,0.935,1.213c-1.155,1.121-2.283,2.218-3.412,3.315
	C110.182,97.079,110.011,96.957,109.841,96.833z"/>
<path fill-rule="evenodd" clip-rule="evenodd" fill="#f04c47" class="fill" d="M161.158,118.622c1.617,0.93,2.962,1.703,4.307,2.476
	c-0.021,0.068-0.043,0.135-0.066,0.201c-2.062-0.512-4.126-1.023-6.191-1.536c-0.016-0.143-0.033-0.285-0.051-0.427
	C159.848,119.088,160.539,118.842,161.158,118.622z"/>
<path fill-rule="evenodd" clip-rule="evenodd" fill="#f04c47" class="fill" d="M84.127,46.85c-1.362,0.519-2.428,0.925-3.494,1.331
	c-0.072-0.102-0.146-0.204-0.218-0.306c0.517-1.007,1.033-2.013,1.711-3.333C82.836,45.36,83.396,46.005,84.127,46.85z"/>
<path fill-rule="evenodd" clip-rule="evenodd" fill="#f04c47" class="fill" d="M127.027,122.391c-0.188,0.195-0.385,0.401-0.712,0.743
	c-1.202-1.164-2.333-2.26-3.619-3.508C124.156,119.407,125.216,120.148,127.027,122.391z"/>
<path fill-rule="evenodd" clip-rule="evenodd" fill="#f04c47" class="fill" d="M101.762,52.288c-0.112-0.442-0.212-0.841-0.303-1.198
	c0.511-0.625,1.649-0.628,2.469-0.038C103.544,51.976,102.789,52.232,101.762,52.288z"/>
<path fill-rule="evenodd" clip-rule="evenodd" fill="#f04c47" class="fill" d="M162.991,117.85c0.943-0.247,1.495-0.392,2.288-0.6
	c0.142,0.727,0.256,1.314,0.369,1.901c-0.119,0.059-0.236,0.117-0.354,0.175C164.651,118.913,164.008,118.501,162.991,117.85z"/>
<path fill-rule="evenodd" clip-rule="evenodd" fill="#f04c47" class="fill" d="M100.051,53.437c-1.325-1.191-1.301-1.44,0.041-2.018
	C100.079,52.038,100.067,52.58,100.051,53.437z"/>
<path fill-rule="evenodd" clip-rule="evenodd" fill="#f04c47" class="fill" d="M25.315,114.771c0.647,0.356,1.292,0.714,1.938,1.07
	c-0.939,0.194-1.807,0.258-2.235-0.516C25.117,115.141,25.216,114.956,25.315,114.771z"/>
<path fill-rule="evenodd" clip-rule="evenodd" fill="#f04c47" class="fill" d="M97.255,52.253c0.246,0.645,0.383,1.002,0.604,1.581
	c-0.659-0.014-1.106-0.023-2.029-0.042C96.454,53.117,96.771,52.775,97.255,52.253z"/>
<path fill-rule="evenodd" clip-rule="evenodd" fill="#f04c47" class="fill" d="M166.262,145.924c0.016-0.778,0.031-1.556,0.048-2.333
	c0.136-0.001,0.271-0.003,0.403-0.005c0.033,0.794,0.068,1.589,0.1,2.384C166.629,145.953,166.447,145.938,166.262,145.924z"/>
<path fill-rule="evenodd" clip-rule="evenodd" fill="#f04c47" class="fill" d="M176.986,127.561c0.447-0.783,0.885-0.976,1.598-0.328
	C178.178,127.819,177.869,128.367,176.986,127.561z"/>
<path fill-rule="evenodd" clip-rule="evenodd" fill="#f04c47" class="fill" d="M174.49,122.24c0.21,0.574,0.344,0.94,0.483,1.327
	c-0.327,0.085-0.475,0.174-0.549,0.133C173.907,123.417,173.68,123.052,174.49,122.24z"/>
<path fill-rule="evenodd" clip-rule="evenodd" fill="#f04c47" class="fill" d="M85.367,48.006c0.225,0.217,0.449,0.434,0.627,0.606
	c-0.313,0.404-0.351,0.451-0.457,0.587c-0.717,0.025-0.563-0.461-0.571-0.844C85.099,48.239,85.234,48.122,85.367,48.006z"/>
<path fill-rule="evenodd" clip-rule="evenodd" fill="#f04c47" class="fill" d="M176.125,124.652c0.258,0.541,0.374,0.785,0.51,1.069
	C175.668,125.812,175.668,125.812,176.125,124.652z"/>
<path fill-rule="evenodd" clip-rule="evenodd" fill="#f04c47" class="fill" d="M147.406,105.143c0.337,0.266,0.676,0.533,1.145,0.899
	C147.629,106.407,147.446,105.875,147.406,105.143z"/>
<path fill-rule="evenodd" clip-rule="evenodd" fill="#f04c47" class="fill" d="M115.89,54.547c0.246-0.453,0.469-0.868,0.741-1.372
	c0.468,0.178,0.845,0.321,1.335,0.507c-0.155,0.315-0.22,0.548-0.362,0.715C117.193,54.88,116.773,55.438,115.89,54.547z"/>
<path fill-rule="evenodd" clip-rule="evenodd" fill="#f04c47" class="fill" d="M120.258,56.391c-0.625-0.013-0.884,0.038-1.097-0.036
	c-0.28-0.098-0.524-0.295-1.379-0.804c0.571-0.314,0.912-0.503,1.392-0.769C119.551,55.342,119.812,55.729,120.258,56.391z"/>
<path fill-rule="evenodd" clip-rule="evenodd" fill="#f04c47" class="fill" d="M114.699,53.331c-0.247,0.103-0.494,0.207-0.742,0.31
	c-0.052-0.096-0.104-0.192-0.156-0.289c0.216-0.149,0.434-0.297,0.65-0.446C114.534,53.047,114.617,53.188,114.699,53.331z"/>
</svg>
