<svg version="1.1" id="svg" xmlns="http://www.w3.org/2000/svg" xmlns:xlink="http://www.w3.org/1999/xlink" x="0px" y="0px"
	 width="200px" height="200px" viewBox="0 0 200 200" enable-background="new 0 0 200 200" xml:space="preserve">
<path class="stroke" fill="#51050f"  d="M164.677,23.188c-0.473-0.323-1.152-0.417-1.512-0.817c-1.071-1.193-2.461-1.482-3.982-1.609
	c-0.965-1.624-2.462-1.777-4.057-1.375c-1.146-0.494-2.215-0.954-3.349-1.443c-0.324,0.09-0.71,0.194-0.785,0.216
	c-1.217-0.32-2.149-0.564-2.976-0.782c-3.863,2.63-5.125,6.165-4.551,10.442c0.309,2.306,1.41,4.297,2.724,6.184
	c0.389,0.557,0.69,1.172,0.874,1.485c-1.602,3.916-3.121,7.512-4.537,11.147c-0.762,1.953-1.26,4.01-2.049,5.95
	c-0.379,0.935-1.035,1.834-1.775,2.525c-1.228,1.146-2.625,2.11-3.957,3.155c-0.461-0.269-0.854-0.499-1.268-0.743
	c-2.053,0.554-3.973,1.591-6.312,1.54c0.196-0.336,0.275-0.563,0.428-0.719c2.083-2.11,4.203-4.185,6.256-6.324
	c1.07-1.116,1.746-2.417,1.217-4.144c-1.869,0.11-3.615,0.211-5.301-0.699c0.217-0.439,0.363-0.812,0.572-1.143
	c1.76-2.776,3.037-5.77,3.988-8.907c0.27-0.884,0.357-1.78,0.063-2.78c-1.485,0.747-2.843,1.429-4.259,2.142
	c0.306-1.712,0.683-3.215,0.816-4.74c0.131-1.486,0.855-3.046-0.257-4.746c-1.987,1.738-4.005,3.16-6.685,3.602
	c0-0.551-0.074-1.018,0.012-1.453c0.698-3.585,0.217-7.079-0.721-10.551c-0.25-0.926-0.574-1.76-1.631-2.284
	c-0.534,0.388-1.119,0.755-1.635,1.203c-2.021,1.761-4.006,3.565-6.039,5.313c-0.786,0.673-1.644,1.29-2.885,1.34
	c-0.324-0.542-0.648-1.081-0.967-1.622c-1.256-2.128-1.977-4.465-2.715-6.801c-0.215-0.684-0.617-1.309-1.085-2.271
	c-3.302,3.524-5.282,7.629-8.233,11.342c-1.041-1.711-1.973-3.107-2.762-4.58c-0.804-1.502-1.156-3.26-2.606-4.61
	c-2.353,3.219-2.811,6.927-3.512,10.654c-2.261-0.776-3.763-2.377-5.509-3.59c-1.723-1.197-2.907-3.123-5.06-3.921
	c-0.9,1.802-0.667,3.593-0.417,5.264c0.254,1.707,0.996,3.342,1.624,5.333c-0.991-0.394-1.861-0.579-2.542-1.039
	c-1.781-1.204-3.479-2.532-5.216-3.802c-0.737-0.539-1.433-1.215-2.468-0.988c-1.037,1.765-0.307,3.516,0.159,5.107
	c1.431,4.874,4.153,8.928,8.477,11.69c-0.671,3.74-0.515,7.251,0.532,10.72c0.131,0.431,0.02,0.937,0.02,1.536
	c-2.822-2.348-5.473-4.531-8.096-6.752c-0.479-0.408-0.923-0.916-1.229-1.464c-2.348-4.201-5.596-7.742-8.544-11.489
	c-1.678-2.133-3.064-4.119-2.949-7.006c0.093-2.316-0.878-4.37-2.997-5.579c-1.557-0.889-3.151-1.854-4.855-2.301
	c-1.888-0.496-3.965-0.642-5.554,1.245c0.243,1.987-1.63,3.053-1.948,4.099c-1.873,2.275-3.326,4.041-4.777,5.809
	c-0.037,0.043-0.052,0.104-0.067,0.161c-0.312,1.062-0.722,2.109-0.896,3.194c-0.116,0.713-0.068,1.559,0.222,2.205
	c0.471,1.049,1.164,2.005,1.825,2.958c0.632,0.908,1.549,1.511,2.653,1.474c1.121-0.038,2.232-0.326,3.557-0.538
	c0.572,0.331,1.33,0.931,2.192,1.232c1.825,0.642,2.681,2.055,3.507,3.66c2.482,4.805,4.073,10.073,7.467,14.407
	c1.434,1.832,2.729,3.782,4.237,5.547c1.433,1.676,3.083,3.167,4.61,4.765c1.609,1.682,3.195,3.387,4.775,5.096
	c0.502,0.539,0.957,1.12,1.465,1.723c-0.469,0.566-0.828,0.998-1.264,1.522c1.047,1.71,2.261,3.253,3.779,4.534
	c1.371,1.155,2.404,2.52,3.013,4.213c0.59,1.646,1.253,3.267,1.808,4.926c0.273,0.819,0.443,1.689,0.539,2.55
	c0.447,3.973-0.488,7.76-1.638,11.511c-0.657,2.144-1.603,4.127-3.184,5.764c-0.183,0.188-0.251,0.482-0.466,0.916
	c0.885,0.161,1.614,0.296,2.348,0.426c0.711,0.125,1.424,0.245,2.037,0.349c-1.372,5.817-1.237,11.287,2.055,16.379
	c-0.301,0.081-0.414,0.146-0.521,0.136c-1.278-0.107-2.554-0.224-3.831-0.342c-1.908-0.177-2.157-0.034-2.939,1.713
	c-0.097,0.212-0.176,0.432-0.289,0.708c-1.289,1.124-2.816,1.345-4.27,1.731c-2.598,0.692-5.137,1.538-7.492,2.854
	c-4.182,2.336-6.043,6.422-5.123,11.252c0.836,0.867,1.842,1.133,3.121,0.97c1.674-0.212,3.109-0.885,4.534-1.712
	c1.31-0.758,2.661-1.449,4.046-2.057c0.483-0.212,1.217-0.295,1.665-0.08c1.726,0.833,3.38,1.811,5.175,2.795
	c-0.043,0.575-0.039,1.15-0.136,1.709c-0.517,2.99-0.151,5.925,0.465,8.855c0.358,1.692,1.378,2.751,2.909,3.461
	c2.071,0.963,5.773-0.684,5.536-3.697c-0.142-1.783,0.149-3.604,0.284-5.404c0.029-0.365,0.232-0.718,0.366-1.113
	c0.671,0.226,1.225,0.407,1.774,0.598c3.408,1.188,6.771,2.538,10.391,2.996c2.256,0.287,4.509,0.658,6.775,0.78
	c1.553,0.082,3.211-0.092,4.445-1.188c1.081-0.961,2.072-2.068,2.918-3.244c1.422-1.976,2.699-4.056,4.083-6.163
	c2.438-0.912,5.011-1.846,7.558-2.838c2.77-1.078,4.736-2.938,5.433-5.921c0.292-1.242,0.473-2.512,0.763-3.754
	c0.617-2.639,0.023-4.957-1.742-6.992c-0.65-0.748-1.268-1.526-1.955-2.24c-2.221-2.307-4.473-4.584-6.699-6.886
	c-0.552-0.573-1.058-1.192-1.586-1.791c1.066-2.506,2.1-4.853,3.066-7.226c0.979-2.41,1.63-4.957,3.002-7.345
	c2.756,1.266,5.485,2.219,8.434,2.415c0.594-0.457,1.136-0.873,1.596-1.226c-0.406-1.04-0.666-1.686-0.914-2.336
	c-1.289-3.339-2.178-6.712-1.945-10.381c0.266-4.142,1.867-7.226,5.691-9.106c1.824-0.896,3.533-2.038,5.262-3.123
	c0.727-0.458,1.365-1.057,2.035-1.586c-0.139-0.631-0.245-1.117-0.367-1.678c2.17-1.573,4.301-3.091,6.402-4.65
	c1.449-1.076,2.86-2.205,4.287-3.313c1.541-1.2,2.481-2.733,2.67-4.712c0.176-1.855,0.373-3.708,0.604-5.556
	c0.571-4.511,1.145-9.021,1.762-13.524c0.24-1.766,0.924-3.376,2.153-4.701c1.185-1.277,2.47-2.47,3.599-3.795
	C167.546,28.961,168.315,25.685,164.677,23.188z"/>
<path fill-rule="evenodd" clip-rule="evenodd" fill="#f04c47" class="fill" d="M96.497,90.031c-0.937,0.672-1.894,1.32-2.809,2.021
	c-2.688,2.054-5.768,2.689-9.064,2.565c-0.224-0.009-0.441-0.09-0.816-0.171c-0.053-1.029-0.107-2.039-0.167-3.21
	c4.107,0.794,6.829-1.838,9.933-3.427c0.513-0.263,0.974-0.625,1.455-0.95c0.035-0.023,0.032-0.104,0.09-0.306
	c-0.857-0.301-1.527,0.189-2.188,0.53c-1.397,0.722-2.761,1.51-4.151,2.247c-1.798,0.953-3.581,0.858-5.456-0.179
	c-0.201-0.764-0.418-1.593-0.656-2.505c1.322-0.505,2.595-0.885,3.764-1.469c1.109-0.555,2.115-1.323,3.094-2.128
	c-1.396-0.179-2.347,0.811-3.509,1.188c-1.2,0.39-2.476,0.541-3.728,0.799c-2.209-3.214-4.311-6.273-6.383-9.288
	c2.26-5.168,4.548-10.403,6.922-15.834c0.49,0.46,0.967,0.852,1.379,1.303c1.467,1.6,2.657,3.282,2.98,5.577
	c0.3,2.116,1.008,4.183,1.629,6.243c0.553,1.832,1.844,2.888,3.738,3.27c1.25,0.251,2.485,0.594,3.697,0.979
	c0.533,0.168,1.058,0.478,1.484,0.84c4.846,4.103,10.861,4.395,16.151,1.531c2.392-1.293,3.687-3.733,3.989-6.736
	c2.213-3.591,4.228-6.858,6.415-10.405c2.647-0.687,5.616-1.456,8.776-2.276c1.174,2.099,2.205,4.355,3.35,6.56
	c1.111,2.141,2.713,4.028,4.248,6.243c-2.059,1.146-4.102,2.284-6.133,3.415c-0.912-1.037-1.691-1.923-2.471-2.81
	c-0.143,0.083-0.287,0.167-0.43,0.251c0.172,0.508,0.311,1.028,0.523,1.519c0.227,0.526,0.523,1.025,0.82,1.6
	c-0.487,0.676-0.949,1.312-1.42,1.965c-1.318-1.065-2.521-2.038-3.723-3.011c-0.113,0.096-0.23,0.19-0.345,0.285
	c0.433,1.679,2.17,2.583,2.849,4.412c-0.223,0.707-0.512,1.632-0.893,2.848c-1.955-2.063-3.926-3.698-6.692-4.241
	c-0.028,0.898,0.64,1.217,1.139,1.615c1.772,1.407,3.56,2.792,5.313,4.165c-0.123,1.108-0.225,2.005-0.342,3.048
	c-3.172-2.026-5.85-4.696-9.859-4.329c3.564,1.813,7.115,3.61,9.98,6.9c0.1,0.561,0.246,1.399,0.463,2.631
	c-2.104-1.382-3.926-2.494-5.65-3.74c-1.539-1.112-3.328-1.225-5.109-1.529c0.854,1.375,2.462,1.503,3.685,2.254
	c1.341,0.824,2.644,1.71,3.938,2.605c1.244,0.86,2.455,1.767,3.939,2.839c0.119,0.391,0.326,1.069,0.645,2.104
	c-0.908-0.387-1.428-0.606-1.947-0.829c-2.541-1.088-5.195-1.646-7.959-1.794c-3.43-0.184-6.521,1.023-9.654,2.145
	c-4.312,1.542-7.779,4.408-11.401,7.06c-3.798,2.781-7.831,5.086-12.703,5.356c-2.269,0.126-4.501-0.116-6.983-0.584
	c0.611-1.018,1.127-1.879,1.672-2.783c6.111,1.191,11.356-0.206,15.438-5.09c-0.701,0.439-1.447,0.822-2.098,1.327
	c-2.771,2.15-5.975,2.849-9.377,2.755c-1.129-0.031-2.249-0.39-3.51-0.624c0.225-1.224,0.408-2.226,0.592-3.228
	c1.787,0,3.434,0.235,4.98-0.064c1.627-0.313,3.207-1.034,4.717-1.766c1.453-0.705,2.789-1.654,3.582-3.286
	c-0.508,0.303-1.025,0.591-1.521,0.912c-2.369,1.543-4.82,2.903-7.758,2.834c-1.145-0.027-2.283-0.285-3.564-0.457
	c0.133-1.249,0.249-2.326,0.385-3.605c5.471,0.55,9.47-2.068,13.049-5.586C96.719,90.365,96.607,90.197,96.497,90.031z"/>
<path fill-rule="evenodd" clip-rule="evenodd" fill="#f04c47" class="fill" d="M93.583,150.102c-0.521-0.128-0.949-0.233-1.474-0.363
	c-0.509-2.66,0.526-5.178,0.698-7.809c-1.059-0.176-1.359,0.496-1.523,1.144c-0.414,1.631-0.74,3.283-1.095,4.928
	c-0.06,0.276-0.085,0.559-0.149,1.012c-0.638-0.151-1.17-0.277-1.74-0.412c-0.488-2.766,0.26-5.397,0.283-8.145
	c-1.301-0.089-1.516,0.865-1.674,1.638c-0.293,1.424-0.422,2.882-0.609,4.328c-0.055,0.397-0.08,0.796-0.14,1.422
	c-0.624-0.236-1.124-0.426-1.609-0.61c-0.573-2.694,0.056-5.194,0.558-7.923c-0.482,0.17-0.91,0.187-1.014,0.379
	c-0.463,0.856-0.955,1.729-1.202,2.659c-0.313,1.169-0.398,2.399-0.608,3.765c-0.493-0.201-0.883-0.359-1.4-0.569
	c0.138-2.757,0.271-5.456,0.404-8.154c-2.35,1.849-1.868,4.555-2.361,6.995c-0.925-0.006-1.158-0.449-1.088-1.214
	c0.157-1.733,0.135-3.485,0.87-5.134c0.269-0.606,0.312-1.314,0.472-2.042c-1.143-0.037-1.573,0.607-1.832,1.321
	c-0.453,1.255-0.814,2.545-1.197,3.826c-0.162,0.545-0.275,1.104-0.416,1.672c-0.308-0.036-0.482-0.023-0.629-0.083
	c-0.211-0.085-0.398-0.222-0.705-0.4c0.68-4.115,1.271-8.243,3.057-12.152c2.775-0.344,5.403,0.163,7.866,1.245
	c2.817,1.236,5.521,2.736,8.292,4.08c1.201,0.582,2.42,1.187,3.696,1.542c0.847,0.236,1.815,0.045,2.687,0.045
	c0.334-1.929,0.334-1.929-0.7-3.613c0.102-0.597,0.204-1.199,0.368-2.165c-0.736,0.486-1.182,0.781-1.752,1.157
	c-0.709-0.279-1.494-0.588-2.312-0.909c0.609-1.861,1.162-3.556,1.734-5.304c-1.084,0.152-1.32,0.423-2.045,2.004
	c-0.432,0.942-0.926,1.856-1.441,2.883c-0.604-0.166-1.078-0.294-1.674-0.458c0.662-2.149,1.278-4.159,1.989-6.468
	c-1.397,0.679-1.776,1.695-2.259,2.587c-0.496,0.912-0.854,1.898-1.354,3.039c-0.546-0.217-1.046-0.415-1.567-0.622
	c-0.168-2.388,0.904-4.366,1.668-6.499c-1.203,0.474-1.203,0.474-3.424,4.733c-0.225-0.168-0.449-0.306-0.637-0.483
	c-0.209-0.199-0.383-0.434-0.697-0.792c0.537-1.61,1.096-3.284,1.714-5.145c-1.489,0.397-1.531,1.865-2.489,2.542
	c-0.766-0.252-0.688-0.983-0.742-1.563c-0.266-2.951-0.648-5.926,0.963-8.91c3.264,0.371,6.192-0.988,9.276-2.202
	c3.306,1.397,6.878,2.031,10.462,2.403c3.529,0.364,7.094,0.352,10.733,0.509c2.034,3.599,5.032,6.432,8.016,9.302
	c1.376,1.325,2.528,2.891,3.733,4.386c0.271,0.337,0.465,0.835,0.482,1.267c0.09,2.468-0.26,4.863-1.402,7.323
	c-0.692-1.155-1.299-2.169-1.975-3.292c-0.9,0.896-0.355,1.739-0.258,2.522c0.1,0.802,0.285,1.593,0.467,2.548
	c-0.574,0.208-1.088,0.395-1.641,0.597c-1.248-1.547-0.908-3.807-2.645-5.004c-0.379,1.933,0.677,3.677,0.572,5.681
	c-0.369,0.098-0.783,0.208-1.242,0.33c-0.861-1.348-0.945-3.104-2.548-4.009c-0.916,1.646,0.347,2.917,0.606,4.324
	c-0.746,0.848-1.629,0.76-2.669,0.628c0.262-1.171,0.556-2.209,0.71-3.267c0.327-2.241,0.598-4.491,0.855-6.742
	c0.256-2.211-0.365-4.267-1.246-6.255c-0.16-0.361-0.428-0.705-0.724-0.968c-1.304-1.158-2.636-2.284-3.818-3.302
	c-1.009,0-1.806,0-2.645,0c-0.31,1.213-0.214,2.314,0.362,3.285c1.395,2.353,1.869,5.018,2.617,7.576
	c0.882,3.016,1.469,6.119,2.221,9.175c0.553,2.245,0.273,4.204-1.393,5.983c-1.377,1.471-2.104,3.506-4.137,4.75
	c-0.287-0.66-0.562-1.291-0.894-2.051c-1.37,0.685-0.599,2.067-1.153,2.998c-0.635,0-1.303,0-2.213,0
	c-0.09-2.062-0.174-4.017-0.256-5.94c-0.716-0.307-0.929,0.132-1.018,0.611c-0.216,1.146-0.383,2.3-0.555,3.452
	c-0.076,0.505-0.12,1.016-0.195,1.69c-0.773-0.096-1.442-0.178-2.184-0.271c-0.58-2.523,0.07-5.022-0.281-7.52
	c-1.08,0.664-1.08,0.664-2.077,7.23c-0.479-0.101-0.953-0.202-1.52-0.322c-0.573-3.107,0.407-6.117,0.358-9.509
	c-1.539,1.426-1.451,3.071-1.811,4.5C93.952,146.978,93.831,148.492,93.583,150.102z"/>
<path fill-rule="evenodd" clip-rule="evenodd" fill="#f04c47" class="fill" d="M81.274,41.532c0.865,0.057,1.512,0.027,2.126,0.153
	c1.677,0.342,3.247,0.076,4.755-0.685c2.064-1.045,4.127-2.096,6.459-3.28c3.135,1.803,6.609,1.915,10.264,0.373
	c0.3-0.433,0.6-0.865,0.82-1.186c2.211,0.537,4.234,1.028,6.486,1.576c1.276,2.937,1.323,6.406,2.525,9.66
	c1.539,0.241,3.006,0.286,4.395-0.316c0.793-2.445,0.872-2.522,2.672-2.612c2.455,3.877,2.096,7.209-2.688,9.827
	c-0.331,1.82-0.525,3.616-0.996,5.335c-1.181,4.312-3.095,8.302-5.864,11.821c-2.269,2.885-5.367,3.784-8.982,3.676
	c-3.739-0.111-6.9-2.004-10.369-2.923c-1.382-0.366-2.071-1.544-2.433-2.783c-0.475-1.611-0.82-3.279-1.036-4.946
	c-0.464-3.583-1.721-6.711-4.408-9.251C80.823,52.026,80.521,47.02,81.274,41.532z M101.188,63.581
	c2.055-2.047,2.66-5.446,1.426-7.854c-2.779,1.517-5.482,3.439-9.01,1.858c-0.486,0.283-1.006,0.586-1.493,0.87
	C93.544,62.561,96.819,64.378,101.188,63.581z M112.374,47.514c-0.066-1.853-0.828-3.001-2.43-3.462
	c-2.35-0.677-4.64-0.461-6.619,1.126c-0.756,0.608-1.389,1.374-1.275,2.438c0.706,0.523,1.066,0.111,1.562-0.27
	c1.756-1.353,3.646-2.042,5.844-0.946C110.325,46.834,111.278,47.102,112.374,47.514z M84.382,48.631
	c2.715-3.581,5.752-2.235,8.876-0.547c0.192-1.719-0.933-2.112-1.848-2.624c-2.28-1.275-4.478-1.041-6.515,0.532
	c-0.699,0.541-1.281,1.232-2.049,1.982C83.499,48.253,83.86,48.408,84.382,48.631z M95.052,55.581
	c-0.662-0.588-1.29-1.147-1.997-1.772c1.515-1.274,2.294-2.796,2.948-4.481c-1.028-0.597-1.492,0.004-1.826,0.703
	c-0.562,1.183-1.322,2.181-2.35,2.996c-0.302,0.239-0.492,0.618-0.86,1.098c1.206,0.849,2.021,2.099,3.659,2.304
	C94.795,56.091,94.92,55.844,95.052,55.581z M119.104,51.648c1.965,0.263,3.291-0.795,2.94-2.478
	c-0.189-0.223-0.478-0.563-0.713-0.84c-1.522-0.209-2.663,0.257-3.761,1.312c0.667,0.304,1.178,0.535,1.674,0.761
	C119.192,50.88,119.147,51.264,119.104,51.648z M95.417,71.614c1.285-0.036,1.285-0.036,1.963-1.48
	c-0.258-0.332-0.555-0.714-0.873-1.12C95.276,69.586,95.095,70.425,95.417,71.614z"/>
<path fill-rule="evenodd" clip-rule="evenodd" fill="#f04c47" class="fill" d="M79.829,58.426c-1.926,4.175-2.981,8.951-7.629,11.395
	c-1.711-1.653-3.363-3.19-4.948-4.797c-2.001-2.027-4.257-3.807-5.842-6.241c-2.828-4.348-5.675-8.67-7.517-13.578
	c-0.897-2.386-1.899-4.782-3.918-6.509c-1.109-3.059-0.512-5.819,1.239-8.476c0.908-1.378,2.073-2.784,1.046-4.995
	c-0.361-0.213-0.977-0.629-1.633-0.96c-1.573-0.792-2.741-1.94-3.281-3.646c-0.08-0.252-0.01-0.553-0.01-0.983
	c0.607-0.033,1.119-0.115,1.621-0.077c2.668,0.2,5.445,2.415,6.095,5.016c0.533,2.133,0.872,4.313,1.442,7.193
	c0.586,0.645,1.767,1.774,2.748,3.055c2.832,3.702,5.556,7.486,8.384,11.192c0.876,1.147,1.841,2.275,2.949,3.189
	C73.917,51.953,76.846,55.095,79.829,58.426z"/>
<path fill-rule="evenodd" clip-rule="evenodd" fill="#f04c47" class="fill" d="M149.716,35.174c-0.571-1.008-1.071-1.982-1.654-2.905
	c-2.191-3.454-2.869-7.07-1.25-10.948c0.381-0.907,0.99-1.561,2.223-1.633c-0.055,0.44-0.098,0.81-0.147,1.176
	c-0.231,1.665-0.577,3.323-0.667,4.996c-0.105,1.925,0.822,3.053,2.662,3.574c2.666,0.752,4.576,2.489,6.057,4.728
	c0.58,0.878,0.773,1.892,0.568,3.006c-0.949,5.157-1.623,10.352-1.95,15.591c-0.147,2.376-0.415,4.744-0.663,7.113
	c-0.046,0.454-0.242,0.893-0.373,1.354c-3.447,2.501-6.879,4.991-10.424,7.561c-2.699-2.612-5.881-4.685-7.39-8.478
	c0.565-0.429,1.104-0.977,1.751-1.312c2.791-1.444,4.288-3.817,5.078-6.759c0.858-3.197,1.662-6.412,2.678-9.561
	c0.512-1.588,1.443-3.039,2.17-4.561C148.806,37.228,149.196,36.322,149.716,35.174z"/>
<path fill-rule="evenodd" clip-rule="evenodd" fill="#f04c47" class="fill" d="M95.659,30.413c-0.301,0.117-0.605,0.234-1.037,0.401
	c0.158,0.772,0.3,1.489,0.479,2.379c-1.947-0.292-3.615-1.86-5.942-0.903c0.692,0.853,1.245,1.533,1.852,2.277
	c-2.14,0.618-4.333-0.723-6.741,0.254c0.633,0.651,1.086,1.117,1.537,1.582c-3.127,0.95-8.064-0.831-9.845-3.693
	c3.282,0.637,6.444,1.286,9.8,0.59c0.549-2.19-1.758-3.334-1.857-5.337c1.258,0.642,2.418,1.371,3.676,1.843
	c1.295,0.485,2.686,0.719,4.14,1.091c1.397-1.863,0.132-4.223,1.357-6.181c1.771,1.971,2.909,4.575,5.856,5.609
	c1.765-2.668,3.544-5.359,5.487-8.297c1.702,2.973,0.909,6.069,1.285,8.937c0.731,0.8,1.458,0.273,2.128,0.041
	c3.449-1.198,6.525-3.061,9.371-5.331c0.296-0.238,0.648-0.406,1.146-0.712c-0.309,3.538-2.406,6.021-4.002,8.72
	c0.456,0.891,1.238,0.652,1.873,0.575c1.966-0.236,3.92-0.569,5.881-0.842c0.717-0.099,1.441-0.135,2.245-0.208
	c-0.698,2.082-2.263,3.771-4.031,4.462c0.177-0.689,0.354-1.366,0.576-2.238c-3.199-0.015-6.223,0.898-9.087-0.212
	c-0.614-1.389,0.777-2.733-0.314-4.114c-2.51,0.885-4.775,2.582-7.643,2.843c-0.218-1.631,0.686-3.311-0.411-4.78
	c-0.927-0.304-1.217,0.4-1.618,0.966c-0.838,1.181-1.701,2.343-2.729,3.755C97.907,32.69,96.868,31.637,95.659,30.413z"/>
<path fill-rule="evenodd" clip-rule="evenodd" fill="#f04c47" class="fill" d="M115.206,111.797c-5.559,0.034-11.027,0.233-16.543-2.129
	c6.283-3.203,12.602-5.079,19.531-5.065c0.191,1.495-0.539,2.535-1.154,3.63C116.415,109.345,115.866,110.502,115.206,111.797z"/>
<path fill-rule="evenodd" clip-rule="evenodd" fill="#f04c47" class="fill" d="M104.858,78.875c4.117-0.046,7.035-2.852,10.694-4.501
	c-0.03,1.559-0.714,2.678-1.726,3.474c-0.843,0.662-1.893,1.155-2.926,1.455c-1.219,0.353-2.515,0.506-3.787,0.57
	c-0.744,0.037-1.51-0.266-2.264-0.415C104.853,79.264,104.854,79.07,104.858,78.875z"/>
<path fill-rule="evenodd" clip-rule="evenodd" fill="#f04c47" class="fill" d="M155.081,21.187c0.329-0.107,0.541-0.205,0.764-0.241
	c0.22-0.034,0.449-0.007,0.604-0.007c1.045,0.557,1.311,4.822,0.471,6.861c-1.701,0.136-2.396-1.008-2.998-2.404
	C154.288,24.061,154.67,22.681,155.081,21.187z"/>
<path fill-rule="evenodd" clip-rule="evenodd" fill="#f04c47" class="fill" d="M46.446,22.638c1.197,1.052,2.406,2.027,3.497,3.122
	c0.399,0.402,0.514,1.09,0.825,1.797c-0.773,0.506-1.415,0.927-1.986,1.302C45.957,26.94,44.371,24.337,46.446,22.638z"/>
<path fill-rule="evenodd" clip-rule="evenodd" fill="#f04c47" class="fill" d="M47.974,30.478c-0.365,0.563-0.785,1.21-1.178,1.814
	c-1.883-0.66-3.762-3.224-3.601-4.856c0.05-0.503,0.421-0.973,0.673-1.516C45.292,27.502,46.563,28.913,47.974,30.478z"/>
<path fill-rule="evenodd" clip-rule="evenodd" fill="#f04c47" class="fill" d="M159.046,22.807c0.592-0.044,1.072-0.08,1.604-0.118
	c0.855,2.208,1.115,4.335,0.8,6.597c-1.337,0.52-1.821-0.649-2.68-1.187C158.858,26.402,158.944,24.741,159.046,22.807z"/>
<path fill-rule="evenodd" clip-rule="evenodd" fill="#f04c47" class="fill" d="M150.809,26.334c-0.371-2.273-0.345-4.445,0.864-6.438
	c1.09-0.017,1.611,0.54,1.596,1.367C153.232,23.272,152.636,25.081,150.809,26.334z"/>
<path fill-rule="evenodd" clip-rule="evenodd" fill="#f04c47" class="fill" d="M41.628,28.788c1.092,1.572,2.098,3.025,3.275,4.722
	c-0.159,0.188-0.494,0.585-0.961,1.136c-0.576-0.538-1.13-0.888-1.448-1.387c-0.558-0.876-1.008-1.828-1.433-2.778
	C40.757,29.8,40.673,29.108,41.628,28.788z"/>
<path fill-rule="evenodd" clip-rule="evenodd" fill="#f04c47" class="fill" d="M43.319,36.23c-0.104,0.128-0.311,0.374-0.502,0.604
	c-2.461-1.286-3.507-3.1-2.817-4.721C41.044,33.409,42.101,34.719,43.319,36.23z"/>
<path fill-rule="evenodd" clip-rule="evenodd" fill="#f04c47" class="fill" d="M163.762,29.506c-1.043-1.702-0.56-3.287-0.911-4.87
	C164.245,25.618,164.622,27.401,163.762,29.506z"/>
<path fill-rule="evenodd" clip-rule="evenodd" fill="#f04c47" class="fill" d="M100.94,62.191c-2.617,0.805-4.668,0.042-6.469-2.424
	c1.285-0.179,2.529-0.255,3.723-0.545c1.16-0.283,2.268-0.788,3.605-1.269C101.774,59.585,101.772,60.995,100.94,62.191z"/>
</svg>
