<svg version="1.1" id="svg" xmlns="http://www.w3.org/2000/svg" xmlns:xlink="http://www.w3.org/1999/xlink" x="0px" y="0px"
	 width="200px" height="200px" viewBox="0 0 200 200" enable-background="new 0 0 200 200" xml:space="preserve">
<path class="stroke" fill="#51050f"  d="M176.605,114.94c-1.54-2.752-3.271-5.41-5.072-8.002c-1.963-2.826-4.26-5.427-6.119-8.314
	c-1.908-2.96-4.68-4.474-7.797-5.636c-0.579-0.216-1.156-0.447-1.718-0.709c-2.656-1.246-5.29-2.548-7.966-3.75
	c-4.323-1.941-8.681-3.804-13.01-5.729c-4.49-1.996-9.006-3.921-13.775-5.163c-0.756-0.196-1.559-0.264-2.342-0.284
	c-3.228-0.083-6.215,0.849-9.156,2.097c-1.687,0.716-3.483,1.177-5.131,1.72c-3.856-5.195-7.555-10.177-11.118-14.979
	c-0.641-3.712-1.242-7.271-1.871-10.826c-0.297-1.673-0.562-3.286,0.214-4.959c0.73-1.579,1.273-3.258,1.764-4.933
	c0.784-2.681,1.185-5.41,0.538-8.197c-0.241-1.04-0.451-2.086-0.686-3.168c0.567-0.649,1.146-1.264,1.671-1.922
	c2.138-2.685,3.389-5.708,3.507-9.175c0.057-1.662-0.421-3.089-1.934-3.861c-1.648-0.841-3.34-1.732-5.119-2.156
	c-7.028-1.674-14.077-3.284-21.165-4.675c-2.398-0.471-4.959-0.464-7.408-0.25c-3.908,0.343-7.017,2.666-10.156,4.784
	c-0.792,0.534-1.548,1.145-2.237,1.807c-3.487,3.356-5.752,7.517-7.634,11.898c-1.226,2.852-2.084,5.819-2.581,8.907
	c-0.378,2.343-0.369,4.671,0.394,6.848c1.777,5.074,5.692,8.252,10.274,10.919c0.374,2.225,0.523,4.567,0.038,6.906
	c-0.86,0.644-1.675,1.252-2.486,1.861c-2.309,1.727-4.611,3.457-6.434,5.736c-2.584,3.23-4.767,6.714-6.697,10.363
	c-0.235,0.446-0.463,0.916-0.583,1.402c-0.436,1.75-0.823,3.51-1.262,5.415c0.503,2.178,1.54,4.267,3.371,5.782
	c2.082,1.725,4.302,3.296,6.541,4.818c1.438,0.976,3.019,1.741,4.575,2.624c0,1.986,0,3.896,0,5.622
	c-4.195,2.622-8.087,5.124-12.051,7.505c-2.534,1.523-4.249,3.703-5.41,6.325c-0.771,1.744-1.377,3.575-1.902,5.41
	c-1.554,5.439-2.418,11.015-3.218,16.606c-0.282,1.975,0.326,3.551,1.491,5.015c1.446,1.812,3.425,2.722,5.631,3.194
	c1.038,0.222,2.092,0.371,3.181,0.56c0.534,5.514,1.06,10.948,1.59,16.431c1.68,0.79,3.183,1.563,4.743,2.194
	c0.528,0.214,1.22,0.173,1.804,0.068c0.929-0.168,1.828-0.487,2.952-0.801c0.906-4.967,0.985-10.171,2.129-15.532
	c6.518,4.48,13.56,7.062,21.119,8.423c-0.305,1.001-0.509,1.761-0.771,2.501c-0.399,1.129-0.15,2.07,0.62,2.976
	c0.967,1.136,2.03,2.112,3.398,2.744c0.502,0.231,0.958,0.563,1.248,0.737c0.834,4.887,1.63,9.549,2.41,14.127
	c2.072,1.106,3.482,2.864,5.642,3.394c0.983-0.609,1.928-1.126,2.799-1.746c2.995-2.126,2.94-2.139,2.855-5.834
	c-0.069-2.99-0.014-5.983-0.014-8.508c1.553-1.936,2.827-3.512,4.088-5.097c1.433-1.799,1.743-3.863,1.364-6.066
	c-0.141-0.826-0.354-1.639-0.553-2.535c2.109-1.799,4.46-3.139,6.838-4.428c3.873-2.099,7.822-4.062,11.633-6.268
	c4.993-2.89,10.139-5.459,15.413-7.776c2.893-1.271,5.901-2.289,8.769-3.611c5.684-2.621,11.302-5.383,16.956-8.068
	c1.301-0.618,2.639-1.156,4.133-1.807c1.575,4.894,2.324,9.645,2.41,14.488c1.781,0.801,3.463,1.59,5.173,2.312
	c0.655,0.277,1.326,0.181,1.905-0.32c1.406-1.217,2.825-2.418,4.278-3.66c0.604-3.572,0.009-7.163,0.023-10.812
	c1.561-0.306,2.544-1.345,3.573-2.43c1.284-1.353,1.991-2.99,2.808-4.6C178.492,120.117,178,117.436,176.605,114.94z"/>
<path fill-rule="evenodd" clip-rule="evenodd" fill="#f04c47" class="fill" d="M86.316,138.081c0.896,1.561,1.912,1.953,3.75,1.211
	c2.511-1.012,5.008-2.082,7.423-3.302c6.102-3.08,12.149-6.27,18.237-9.377c0.581-0.297,1.292-0.395,1.955-0.47
	c2.887-0.326,5.426-1.44,7.742-3.175c1.585-1.188,3.126-2.387,4.35-3.975c0.355-0.461,0.987-0.745,1.539-1.018
	c4.701-2.332,9.372-4.733,14.134-6.931c3.971-1.832,7.675-4.092,11.334-6.447c1.368-0.881,2.866-1.62,3.731-3.185
	c0-0.622,0-1.283,0-2.223c-0.746,0.308-1.38,0.479-1.915,0.807c-2.94,1.797-5.804,3.727-8.794,5.432
	c-3.724,2.124-7.527,4.108-11.331,6.09c-2.104,1.095-4.273,2.065-6.415,3.087c-0.243,0.116-0.501,0.203-0.947,0.382
	c-0.086-4.024-0.632-7.78-3.276-10.861c-2.647-3.083-6.044-4.632-9.849-4.914c-1.936-1.507-3.741-2.912-5.624-4.377
	c0.241-0.438,0.507-0.916,0.87-1.571c-2.295-3.149-4.607-6.325-7.079-9.716c1.15-0.408,2.136-0.757,3.122-1.11
	c2.552-0.912,5.105-1.826,7.656-2.74c1.405-0.503,2.768-0.346,4.133,0.195c4.884,1.936,9.795,3.808,14.66,5.789
	c4.396,1.79,8.73,3.724,13.118,5.533c4.725,1.948,9.068,4.576,13.298,7.395c2.602,1.734,4.154,4.421,5.836,6.968
	c0.778,1.177,1.614,2.316,2.377,3.502c1.648,2.562,3.313,5.117,4.864,7.739c0.369,0.624,0.518,1.53,0.413,2.254
	c-0.366,2.516-1.542,4.678-3.33,6.766c-3.666-4.965-4.689-10.661-5.919-16.704c-0.106-0.096-0.505-0.455-0.901-0.813
	c-0.983,0.469-1.118,1.179-1.125,2.021c-0.027,2.428,0.745,4.691,1.545,6.91c1.032,2.861,2.314,5.632,3.478,8.447
	c0.229,0.554,0.406,1.13,0.749,2.089c-0.973-0.365-1.584-0.564-2.17-0.819c-1.596-0.696-3.055-1.633-4.785-2.11
	c-1.398-0.386-2.678-0.323-3.986-0.019c-3.875,0.9-7.512,2.406-11.033,4.26c-4.549,2.395-9.121,4.752-13.775,6.931
	c-2.651,1.241-5.53,1.99-8.23,3.14c-6.754,2.879-13.566,5.636-19.988,9.245c-1.816,1.02-3.836,1.677-5.653,2.696
	c-2.306,1.294-4.5,2.785-6.737,4.199c-0.558,0.353-1.094,0.741-1.846,1.253c-0.612-1.598-1.243-2.968-1.664-4.398
	c-0.867-2.941-2.693-5.315-4.367-7.79c-0.633-0.936-1.684-1.126-2.474-1.773c-0.127,0.092-0.254,0.184-0.381,0.276
	c0.2,0.781,0.325,1.593,0.618,2.337c0.642,1.63,1.442,3.198,2.047,4.841c1.738,4.716,3.406,9.459,5.115,14.187
	c0.459,1.268,0.282,2.369-0.479,3.513c-1.27,1.908-2.79,3.54-4.598,4.934c-1.096,0.845-2.33,0.988-3.529,0.529
	c-1.945-0.742-3.868-1.578-5.717-2.532c-1.547-0.801-2.977-1.83-4.633-2.869c0.107-0.756,0.117-1.545,0.341-2.268
	c0.854-2.748,1.781-5.472,2.671-8.209c0.699-2.147,1.377-4.301,2.074-6.45c0.52-1.608,1.056-3.211,1.579-4.819
	c0.099-0.306,0.172-0.621,0.3-1.09c-0.62-0.148-1.143-0.271-1.883-0.448c-0.552,0.74-1.179,1.455-1.665,2.255
	c-2.603,4.287-5.88,8.002-9.548,11.394c-0.206,0.19-0.432,0.359-0.674,0.562c-1.763,0.176-3.304-0.667-4.875-1.208
	c-3.801-1.31-7.478-2.944-10.834-5.183c-3.772-2.516-7.919-3.412-12.389-3.294c-2.583,0.068-5.049-0.548-7.288-1.887
	c-0.625-0.374-1.186-0.862-1.75-1.33c-0.71-0.588-1.009-1.353-0.806-2.269c0.328-1.487,0.669-2.971,1.013-4.455
	c0.648-2.805,1.247-5.624,1.972-8.409c0.697-2.674,1.529-5.313,2.334-8.075c0.373-0.536,0.864-1.152,1.264-1.823
	c1.573-2.644,4.116-4.181,6.667-5.603c6.269-3.495,12.729-6.611,19.399-9.282c0.681-0.273,1.345-0.592,2.015-0.893
	c1.396-0.627,2.844-0.917,4.373-1.145c4.589-0.688,8.535-2.547,10.728-7c0.197-0.404,0.434-0.79,0.692-1.254
	c4.268-2.071,8.575-4.163,12.999-6.311c3.213,4.676,6.337,9.224,9.614,13.993c0.202,0.064,0.676,0.216,1.216,0.39
	c1.042-0.697,2.063-1.378,3.195-2.134c0.416,0.813,0.79,1.549,1.251,2.449c-3.832,3.495-3.744,7.955-2.458,12.385
	c1.327,4.571,4.409,7.683,9.492,8.717C104.223,130.183,95.053,133.55,86.316,138.081z M76.672,141.302
	c0.742-0.103,1.093-0.539,1.103-1.264c0.018-1.448-0.788-2.423-2.218-2.758c-1.48-0.348-3.008-0.587-4.415-1.134
	c-4.729-1.839-9.509-3.595-14.087-5.767c-4.01-1.903-7.801-4.277-11.635-6.536c-1.842-1.085-3.545-2.405-5.338-3.575
	c-0.684-0.446-1.296-1.163-2.484-0.811c-0.354,0.394-0.828,0.924-1.478,1.648c0.519,0.419,0.883,0.772,1.304,1.039
	c0.612,0.389,1.279,0.692,1.9,1.073c2.448,1.5,4.822,3.138,7.347,4.497c3.672,1.976,7.46,3.732,11.177,5.627
	c4.076,2.077,8.188,4.054,12.535,5.52C72.462,139.562,74.48,140.445,76.672,141.302z M162.158,103.342
	c-1.146,1.258-1.312,2.502-1.413,3.735c-0.297,3.656,0.418,7.202,1.347,10.706c0.215,0.807,0.65,1.563,1.043,2.312
	c0.358,0.684,0.914,1.118,1.85,1.042c-0.373-2.869-0.915-5.677-1.059-8.506c-0.148-2.911,0.092-5.842,0.168-8.983
	C163.447,103.544,162.771,103.438,162.158,103.342z M35.389,123.606c-1.208,0.148-1.032,0.855-0.908,1.436
	c0.286,1.32,0.582,2.644,0.983,3.932c0.987,3.167,1.96,6.344,3.093,9.46c0.671,1.844,2.133,3.198,3.546,4.585
	c-0.174-1.072-0.496-2.066-0.922-3.013c-0.76-1.69-1.728-3.3-2.338-5.038c-0.876-2.491-1.497-5.071-2.251-7.604
	C36.213,126.09,35.782,124.832,35.389,123.606z M33.226,127.49c-1.146,0.818-1.19,1.713-1.175,2.494
	c0.062,3.102,0.098,6.213,0.394,9.297c0.146,1.54,0.813,3.035,1.29,4.536c0.146,0.455,0.381,0.943,1.031,0.841
	c-0.384-2.834-0.857-5.6-1.111-8.387C33.403,133.49,33.372,130.687,33.226,127.49z M80.957,144.2c-1,0.178-0.853,0.881-0.85,1.46
	c0.013,2.766-0.041,5.537,0.111,8.296c0.082,1.5,0.507,2.982,0.826,4.463c0.057,0.261,0.356,0.47,0.625,0.803
	C81.981,157.35,81.421,145.571,80.957,144.2z"/>
<path fill-rule="evenodd" clip-rule="evenodd" fill="#f04c47" class="fill" d="M60.182,55.438c-3.481,3.605-3.636,8.067-3.082,12.723
	c-0.111,0.056-0.221,0.111-0.33,0.167c-0.903-0.626-1.806-1.251-2.74-1.9c-0.116-0.777-0.27-1.493-0.32-2.217
	c-0.156-2.253-0.297-4.508-0.39-6.764c-0.022-0.542,0.072-1.12,0.255-1.631c0.854-2.38,1.756-4.742,2.718-7.315
	c-0.85-0.497-1.528-0.94-2.246-1.303c-1.116-0.563-1.967-1.327-2.235-2.598c-0.117-0.552-0.215-1.109-0.293-1.668
	c-0.41-2.916,1.33-4.971,4.487-5.159c1.868,3.072,0.669,6.587,1.232,9.958c2.018,1.075,4.153,0.395,6.437,0.511
	c0.162-1.046,0.385-1.971,0.433-2.903c0.126-2.477,0.176-4.957,0.257-7.468c3.028,0,5.869,0.002,8.709-0.004
	c0.28-0.001,0.633,0.043,0.83-0.1c1.369-0.993,3.123-0.95,4.561-1.701c1.988-1.04,3.916-2.199,5.873-3.302
	c0.133-0.075,0.293-0.102,0.527-0.18c0,1.89-1.206,3.292-1.791,4.927c1.126,1.098,2.316,0.145,3.791,0.346
	c1.407,0.414,2.763,2.065,4.778,1.678c0.544,0.838,0.434,1.615,0.277,2.391c-0.511,2.548-1.041,5.073-2.397,7.364
	c-0.994,1.678-1.02,3.494-0.559,5.414c0.657,2.743,1.159,5.529,1.608,8.315c0.178,1.096,0.218,2.281,0.003,3.362
	c-0.559,2.824-2.611,4.304-5.218,4.966c-1.721,0.438-2.889,1.14-3.978,2.716c-2.542,3.68-6.945,3.665-10.262,1.686
	c-1.711-1.021-2.916-2.523-3.905-4.15c-1.964-3.23-3.823-6.531-5.603-9.868c-0.803-1.509-1.031-3.209-0.562-4.923
	C61.199,56.25,61.15,55.799,60.182,55.438z M65.84,44.07c2.502,1.551,6.599,0.916,8.705-0.284c0.859-0.489,1.338-1.17,1.257-2.199
	c-0.075-0.953-0.614-1.699-1.431-1.927c-2.627-0.736-5.255-0.747-7.626,0.837C65.492,41.333,65.237,42.591,65.84,44.07z
	 M81.303,41.608c1.335,3.486,5.501,5.033,8.946,3.371c0.197-0.476,0.414-0.995,0.616-1.48c-0.691-2.729-5.395-4.851-8.771-3.963
	C81.844,40.188,81.586,40.866,81.303,41.608z M71.964,54.406c-0.11-0.114-0.218-0.229-0.327-0.344
	c-0.416,0.274-1.008,0.453-1.215,0.838c-0.653,1.208-0.986,2.507-0.539,3.901c0.872,2.719,4.173,3.638,6.281,1.712
	c0.213-0.194,0.238-0.594,0.41-1.059c-2.724,0.926-3.61,0.951-4.494,0.011C70.566,57.858,71.372,56.118,71.964,54.406z
	 M81.85,49.217c-0.959-1.526-1.844-2.934-2.775-4.417c-0.333,0.139-0.609,0.254-1.092,0.454c0.762,1.438,1.458,2.753,2.181,4.118
	c-0.719,0.931-1.436,1.858-2.246,2.906C79.545,52.449,80.459,51.671,81.85,49.217z M56.416,41.582
	c-0.798-1.013-0.798-1.013-1.621-0.814c-1.609,0.389-2.111,0.975-2.386,2.785c1.003,1.528,1.366,1.663,2.782,0.984
	c-0.142-0.509-0.287-1.029-0.453-1.618C55.328,42.448,55.873,42.015,56.416,41.582z M81.71,66.286
	c-0.827-0.98-1.46-1.128-2.21-0.396c-0.029,0.337-0.071,0.813-0.127,1.441c0.616,0.144,1.125,0.26,1.601,0.37
	c0.238-0.312,0.406-0.471,0.498-0.665C81.588,66.789,81.641,66.514,81.71,66.286z"/>
<path fill-rule="evenodd" clip-rule="evenodd" fill="#f04c47" class="fill" d="M110.046,93.989c-2.118,2.851-5.907,6.138-8.471,7.408
	c-0.22-0.249-0.509-0.497-0.701-0.806c-1.281-2.06-2.522-4.145-3.813-6.197c-1.536-2.437-3.083-4.867-4.682-7.263
	c-0.875-1.312-1.864-2.548-2.806-3.816c-0.512-0.693-1.203-0.99-2.254-0.915c-1.139,1.825-0.874,4.109-1.724,6.441
	c-2.207,1.064-4.682,2.256-7.332,3.534c-0.419-2.003-1.106-3.796-1.096-5.584c0.018-2.759-0.748-4.969-3.32-6.812
	c1.059-0.187,1.788-0.369,2.531-0.441c3.17-0.309,5.694-1.741,7.517-4.344c0.616-0.878,1.401-1.379,2.387-1.771
	c2.487-0.991,4.686-2.436,6.409-4.772C98.533,77.18,104.29,85.585,110.046,93.989z"/>
<path fill-rule="evenodd" clip-rule="evenodd" fill="#f04c47" class="fill" d="M51.482,66.453c1.988,1.321,3.952,2.627,6.131,4.075
	c0.952,1.432,2.068,3.11,3.31,4.977c-1.285,0.136-2.483,0.395-3.673,0.364c-3.749-0.098-6.716,1.758-9.557,3.814
	c-0.855,0.62-1.493,1.695-1.935,2.693c-0.788,1.782-1.361,3.661-2.003,5.506c-0.648,1.859,0.138,4.321,1.548,5.706
	c3.208,3.151,7.241,3.946,11.479,4.295c1.096,0.09,2.177,0.363,3.421,0.579c-0.229,1.44-0.417,2.629-0.636,4.019
	c-1.277-0.181-2.367-0.182-3.355-0.501c-3.435-1.106-6.871-2.227-10.237-3.521c-3.87-1.49-6.668-4.394-9.143-7.594
	c-0.884-1.143-1.139-2.475-0.638-3.996c1.06-3.219,2.164-6.39,3.957-9.308C43.012,72.911,46.49,68.942,51.482,66.453z"/>
<path fill-rule="evenodd" clip-rule="evenodd" fill="#f04c47" class="fill" d="M81.357,21.346c-0.23,2.052-0.415,3.7-0.602,5.358
	c0.588,0.559,1.108,0.248,1.656-0.11c2.216-1.448,4.441-2.88,6.761-4.379c0.945,1.321,0.642,2.853,1.024,4.354
	c2.102,0.665,2.844-1.603,4.368-2.158c0.358,2.47-2.407,6.569-5.904,8.591c-0.097-1.946,0.098-3.879-0.958-5.651
	c-3.312,0.437-5.664,2.884-8.611,4.181c-0.658-1.924-1.271-3.713-1.839-5.375c-1.001-0.419-1.462,0.108-1.949,0.586
	c-1.448,1.42-2.894,2.844-4.358,4.247c-0.479,0.458-1.012,0.858-1.65,1.393c-1.072-2.655-1.892-5.253-4.041-7.072
	c-1.197,0.023-2.152,0.461-2.641,1.542c-0.787,1.743-1.487,3.525-2.217,5.293c-0.128,0.307-0.221,0.628-0.373,1.074
	c-1.189-1.207-0.564-2.896-1.449-4.262c-2.379,0.573-3.335,2.858-5.072,4.314c-0.83-1.002-0.692-2.056-0.414-3.079
	c0.258-0.942,0.382-1.841-0.095-2.934c-2.372,0.732-3.516,3.032-5.567,3.979c-0.389-3.019,7.668-11.297,11.112-12.942
	c-0.362,1.957-2.138,3.033-2.816,4.882c0.502,0.278,0.976,0.541,1.315,0.729c1.904-0.596,3.682-0.996,5.321-1.709
	c1.571-0.684,3.001-1.695,4.729-2.698c-0.262,1.191-0.483,2.206-0.75,3.424c2.761,0.539,4.812-1.125,7.426-2.276
	c-0.547,1.619-0.965,2.86-1.4,4.152c0.985,0.619,1.937,0.428,2.779,0.026c1.313-0.626,2.556-1.404,3.826-2.12
	C79.64,22.328,80.307,21.944,81.357,21.346z"/>
<path fill-rule="evenodd" clip-rule="evenodd" fill="#f04c47" class="fill" d="M114.022,104.91c-0.273-0.943-0.523-1.801-0.771-2.648
	c7.893-3.281,16.194,2.496,15.85,10.905c-0.142,3.439-1.933,5.792-4.708,7.571c-2.233,1.434-4.692,2.288-7.319,2.272
	c-4.416-0.026-8.251-1.626-10.754-5.37c-1.778-2.661-2.188-5.723-1.118-9.143c1.431,0.642,2.679,1.202,3.917,1.757
	c0,0.334,0.033,0.559-0.005,0.773c-0.551,3.146,0.89,6.338,4.988,7.25c3.117,0.694,6.129,0.292,8.636-1.789
	c3.375-2.798,2.639-8.618-1.25-10.662C119.191,104.622,116.733,104.59,114.022,104.91z"/>
<path fill-rule="evenodd" clip-rule="evenodd" fill="#f04c47" class="fill" d="M49.034,81.437c0.588-0.185,1.098-0.279,1.548-0.496
	c4.688-2.261,9.561-1.856,14.426-0.906c2.197,0.43,4.435,0.859,6.414,2.062c1.548,0.939,2.639,2.085,2.488,4.069
	c-0.097,1.263-0.59,2.212-1.839,2.549c-1.192,0.321-2.417,0.645-3.641,0.709c-6.01,0.316-11.771-0.896-17.362-3.035
	c-0.314-0.121-0.627-0.261-0.923-0.423C48.168,84.893,47.816,83.507,49.034,81.437z M54.749,84.57
	c2.381,2.142,5.216,3.159,8.452,2.925c1.041-0.075,2.16-0.27,3.063-0.75c1.464-0.778,1.546-2.369,0.347-3.534
	c-0.318-0.31-0.686-0.636-1.092-0.777c-2.695-0.938-5.459-1.325-8.298-0.805c-0.382,0.069-0.79,0.192-1.099,0.412
	C55.299,82.627,54.433,83.231,54.749,84.57z"/>
<path fill-rule="evenodd" clip-rule="evenodd" fill="#f04c47" class="fill" d="M110.805,110.484c0.772-0.045,1.442-0.086,2.076-0.125
	c1.159-0.87,1.159-0.87,1.754-4.118c2.436-0.43,4.809-0.225,6.824,1.377c2.561,2.034,2.644,6.445,0.179,8.138
	c-2.621,1.8-6.542,1.875-9.321,0.206C110.616,114.94,109.996,112.573,110.805,110.484z"/>
<path fill-rule="evenodd" clip-rule="evenodd" fill="#f04c47" class="fill" d="M64.43,101.672c-0.454-1.682-0.876-3.246-1.348-4.994
	c2.258-1.376,3.893-3.705,6.859-4.239c0.327,2.758-1.708,3.877-3.438,5.206c1.311,0.652,1.311,0.652,2.96-0.606
	c1.772-0.397,3.294-0.738,4.817-1.08C73.657,98.853,68.432,101.898,64.43,101.672z"/>
<path fill-rule="evenodd" clip-rule="evenodd" fill="#f04c47" class="fill" d="M46.924,87.512c0.127-0.41,0.253-0.821,0.396-1.283
	c6.65,3.516,13.7,4.825,21.312,4.852c-1.787,1.106-3.312,2.056-5.376,1.85c-4.451-0.442-8.833-1.128-13.022-2.774
	C48.93,89.645,47.892,88.822,46.924,87.512z"/>
<path fill-rule="evenodd" clip-rule="evenodd" fill="#f04c47" class="fill" d="M37.651,156.342c1.536,0.485,2.855,0.903,4.134,1.307
	c0.427,1.704,0.069,10.264-0.516,11.673c-0.832-0.466-1.649-0.925-2.547-1.427C38.352,164.082,37.691,160.333,37.651,156.342z"/>
<path fill-rule="evenodd" clip-rule="evenodd" fill="#f04c47" class="fill" d="M115.666,99.452c-0.552,0.155-0.963,0.279-1.379,0.386
	c-0.436,0.112-0.876,0.208-1.359,0.322c-0.396,0.526-0.795,1.061-1.238,1.651c0.066,2.12,1.734,4.006,1.243,6.29
	c-1.453-0.233-3.988-2.57-6.017-5.469c1.681-1.885,3.389-3.8,5.146-5.771C113.488,97.388,114.709,98.08,115.666,99.452z"/>
<path fill-rule="evenodd" clip-rule="evenodd" fill="#f04c47" class="fill" d="M63.29,94.765c-0.671,0.579-1.342,1.156-1.874,1.615
	c-3.967,0-7.588-0.744-11.08-2.145c-1.215-0.487-2.387-1.025-3.255-2.06c-0.593-0.707-1.062-1.446-0.816-2.595
	c5.149,3.521,11.032,4.156,16.905,4.824C63.211,94.525,63.251,94.645,63.29,94.765z"/>
<path fill-rule="evenodd" clip-rule="evenodd" fill="#f04c47" class="fill" d="M168.36,132.432c0,2.313,0,4.615,0,7.166
	c-0.547,0.459-1.262,1.058-2.176,1.825c-0.783-3.365-0.743-6.546-1.175-9.983c0.772,0.223,1.283,0.367,1.793,0.519
	C167.283,132.101,167.76,132.25,168.36,132.432z"/>
<path fill-rule="evenodd" clip-rule="evenodd" fill="#f04c47" class="fill" d="M85.999,176.573c0,3.093,0,5.774,0,8.463
	c-0.794,0.434-1.476,0.808-2.394,1.31c-0.542-2.824-0.313-5.488-0.369-8.19C84.087,177.668,84.901,177.202,85.999,176.573z"/>
<path fill-rule="evenodd" clip-rule="evenodd" fill="#f04c47" class="fill" d="M79.638,184.954c-0.346-2.697-0.657-5.124-1.006-7.856
	c1.22,0.395,2.151,0.695,3.173,1.026c0,2.663,0,5.274,0,8.211C80.949,185.79,80.278,185.362,79.638,184.954z"/>
<path fill-rule="evenodd" clip-rule="evenodd" fill="#f04c47" class="fill" d="M75.247,31.75c-0.003,1.703,0.188,3.137-0.633,4.562
	c-1.346,0-2.702,0-4.058,0c-0.047-0.104-0.094-0.209-0.139-0.313C71.958,34.643,73.501,33.286,75.247,31.75z"/>
<path fill-rule="evenodd" clip-rule="evenodd" fill="#f04c47" class="fill" d="M71.615,93.617c1.424-0.854,2.54-1.524,3.918-2.351
	c-0.19,0.931-0.34,1.651-0.477,2.316c-1.199,0.838-2.275,1.618-3.994,1.527C71.312,94.433,71.525,93.86,71.615,93.617z"/>
<path fill-rule="evenodd" clip-rule="evenodd" fill="#f04c47" class="fill" d="M65.011,31.731c1.38,1.306,0.817,2.844,0.981,4.403
	c-0.364,0.269-0.743,0.549-1.463,1.084C64.711,35.139,64.861,33.436,65.011,31.731z"/>
<path fill-rule="evenodd" clip-rule="evenodd" fill="#f04c47" class="fill" d="M71.854,91.88c-0.418-0.374-0.771-0.69-1.205-1.078
	c1.307-0.545,2.502-1.042,3.728-1.553C74.087,90.74,73.549,91.31,71.854,91.88z"/>
<path fill-rule="evenodd" clip-rule="evenodd" fill="#f04c47" class="fill" d="M91.377,38.012c-0.639-0.38-1.281-0.761-2.131-1.267
	c0.66-0.407,1.143-0.707,1.876-1.159c0.242,0.821,0.44,1.488,0.638,2.155C91.631,37.832,91.504,37.922,91.377,38.012z"/>
<path fill-rule="evenodd" clip-rule="evenodd" fill="#f04c47" class="fill" d="M67.304,43.705c-0.144-0.597-0.39-1.019-0.271-1.26
	c0.26-0.531,0.607-1.187,1.094-1.409c1.668-0.763,3.462-1.032,5.252-0.472c1.203,0.375,1.266,1.278,0.244,2.19
	C70.548,40.961,69.771,41.044,67.304,43.705z"/>
<path fill-rule="evenodd" clip-rule="evenodd" fill="#f04c47" class="fill" d="M69.732,43.275c0.514-0.549,1.042-0.787,1.654,0.263
	c-0.537,0.06-1.071,0.121-1.607,0.181C69.764,43.571,69.748,43.423,69.732,43.275z"/>
<path fill-rule="evenodd" clip-rule="evenodd" fill="#f04c47" class="fill" d="M83.812,42.974c-0.325-0.38-0.638-0.745-1.032-1.206
	c0.324-0.459,0.599-0.847,0.876-1.24c2.179,0.103,3.951,0.815,5.343,2.368c0.37,0.412,0.477,0.896-0.043,1.344
	c-0.73-0.634-1.394-1.363-2.198-1.868C85.733,41.73,84.836,42.588,83.812,42.974z"/>
<path fill-rule="evenodd" clip-rule="evenodd" fill="#f04c47" class="fill" d="M85.844,43.021c0.473,0.499,0.749,0.792,1.281,1.354
	c-0.818-0.085-1.275-0.132-1.939-0.202C85.429,43.747,85.566,43.506,85.844,43.021z"/>
<path fill-rule="evenodd" clip-rule="evenodd" fill="#f04c47" class="fill" d="M65.831,85.417c-2.702,1.443-7.349,0.599-9.478-1.697
	c0.581-0.821,1.478-1.075,2.365-1.009c1.909,0.144,3.818,0.366,5.704,0.694C65.49,83.591,65.748,84.102,65.831,85.417z"/>
</svg>
