<svg version="1.1" id="svg" xmlns="http://www.w3.org/2000/svg" xmlns:xlink="http://www.w3.org/1999/xlink" x="0px" y="0px"
	 width="200px" height="200px" viewBox="0 0 200 200" enable-background="new 0 0 200 200" xml:space="preserve">
<path class="stroke" fill="#51050f"  fill-rule="evenodd" clip-rule="evenodd" d="M123.451,161.949c1.539,0.685,2.848,1.219,4.113,1.838
	c3.068,1.501,3.613,2.566,3.148,5.995c-1.246,1.094-2.731,1.159-4.299,1.022c-2.551-0.222-5.107-0.415-7.664-0.558
	c-3.926-0.219-7.852-0.392-11.593-1.788c-0.355-0.132-0.709-0.269-1.142-0.434c-0.625-1.341-0.595-2.743-0.205-4.121
	c0.71-2.518,1.908-4.681,4.16-6.256c2.645-1.85,4.962-4.093,6.738-6.833c0.195-0.302,0.35-0.633,0.717-1.304
	c-5.98,1.159-11.576,0.885-16.911-1.227c-5.779,6.577-11.169,13.212-18.407,18.303c0.797,1.839,1.449,3.688,2.371,5.39
	c1.654,3.055,0.218,5.105-2.912,5.673c-2.425,0.439-4.657-0.283-6.721-1.514c-0.93-0.555-1.762-1.277-2.65-1.906
	c-1.512-1.07-3.024-2.142-4.556-3.185c-2.108-1.438-2.997-2.986-3.128-5.575c0.3-0.66,0.613-1.346,0.943-2.07
	c-0.445-0.408-0.837-0.767-1.338-1.227c0.169-0.38,0.27-0.806,0.514-1.122c0.77-0.992,1.607-1.929,2.388-2.912
	c1.964-2.478,3.91-4.968,5.858-7.458c0.09-0.113,0.105-0.282,0.172-0.469c-1.33-0.386-2.641-0.7-3.907-1.146
	c-6.073-2.135-9.738-6.475-11.108-12.673c-0.766-3.465-0.301-6.914,0.819-10.314c1.235-3.751,3.743-6.745,5.646-10.098
	c2.071-3.651,4.188-7.281,6.15-10.991c1.681-3.179,2.996-6.559,4.791-9.667c2.273-3.933,5.502-7.041,9.447-9.34
	c0.699-0.407,1.505-0.629,2.264-0.93c0.486-0.193,0.977-0.374,1.656-0.633c-0.572-0.731-0.934-1.352-1.441-1.808
	c-1.823-1.632-3.15-3.655-4.26-5.77c-1.336-2.548-1.823-5.382-1.637-8.255c0.23-3.538,0.479-7.085,0.979-10.591
	c0.537-3.737,1.651-7.341,3.503-10.673c1.998-3.596,5.042-5.669,9.126-6.147c2.924-0.342,5.855-0.604,8.785-0.906
	c1.193-0.123,2.388-0.238,3.578-0.39c5.097-0.651,10.128,0.012,15.155,0.75c1.888,0.277,3.782,0.522,5.658,0.871
	c2.805,0.523,4.173,2.152,4.559,5.005c0.392,2.894,0.203,5.662-1.396,8.184c-0.549,0.866-1.251,1.633-1.901,2.468
	c1.992,3.862,1.167,7.726-0.224,11.419c-0.926,2.456-1.318,4.808-0.784,7.343c0.136,0.641,0.205,1.298,0.374,1.928
	c1.145,4.214,1.619,8.455,0.516,12.827c1.803,2.167,3.065,4.648,3.748,7.37c1.164,4.643,2.526,9.243,2.681,14.098
	c0.075,2.388,0.458,4.779,0.871,7.138c0.269,1.533,0.846,3.011,1.239,4.367c1.43,0.435,2.564,0.825,3.723,1.123
	c2.874,0.741,4.312,2.697,4.91,5.491c0.6,2.795,0.836,5.612,0.754,8.458c-0.055,1.996-1.213,3.503-2.523,4.815
	c-1.885,1.887-3.93,3.613-5.887,5.43c-1.119,1.038-2.127,2.205-3.303,3.168c-3.674,3.003-7.404,5.935-11.111,8.898
	C124.208,161.264,123.939,161.521,123.451,161.949z M119.803,110.534c-0.96,1.799-1.828,3.363-2.634,4.958
	c-0.783,1.55-2.187,2.814-2.39,4.772c2.729,0.387,5.277,0.75,7.857,1.116C122.602,119.451,120.694,111.997,119.803,110.534z"/>
<path fill-rule="evenodd" clip-rule="evenodd" fill="#f04c47" class="fill" d="M97.404,81.122c-0.834,1.258-0.834,1.258-0.048,9.671
	c-3.265-0.848-5.317-3.026-7.271-5.681c2.014-1.028,3.7-2.315,5.27-4.122c-0.787-0.498-1.42-0.883-2.037-1.292
	c-2.26-1.494-3.191-4.928-2.015-7.383c0.599-1.25,1.683-1.794,2.995-2.094c1.318,0.663,1.844,1.875,2.295,3.303
	c-1.566,0.338-3.076,0.694-3.669,2.335c0.694,2.254,1.563,2.919,3.169,2.277c-0.352-0.376-0.687-0.689-0.966-1.047
	c-0.264-0.338-0.469-0.722-0.702-1.089c0.443-1.268,1.416-1.241,2.6-1.156c0.187,0.611,0.386,1.259,0.623,2.037
	c1.522,0.354,2.999-0.301,4.734-0.582c-1.994-6.795-1.317-13.185,2.658-19.067c0.53-0.784,0.91-1.748,2.084-2.116
	c0.088,1.482-0.278,2.782-0.755,4.023c-0.46,1.199-1.112,2.325-1.679,3.478c0.504,0.584,1.023,0.526,1.506,0.186
	c1.553-1.101,3.109-2.198,4.613-3.364c1.057-0.819,2.026-1.75,3.035-2.632c0.121,0.069,0.24,0.14,0.361,0.21
	c-0.357,1.834-0.715,3.669-1.125,5.779c0.561-0.052,1.11,0.068,1.379-0.153c2.855-2.344,5.668-4.743,8.559-7.183
	c0,0.319,0.068,0.774-0.014,1.201c-0.219,1.124-0.52,2.23-0.75,3.352c-0.102,0.505-0.112,1.029-0.188,1.765
	c2.408-0.198,3.693-2.143,5.742-2.812c0.834,2.113,0.626,4.178-0.012,6.227c-0.227,0.721-0.54,1.448-0.969,2.064
	c-1.701,2.447-1.691,5.086-1.097,7.853c0.628,2.93,1.194,5.875,1.745,8.821c0.385,2.056-0.035,4.022-0.896,5.893
	c-0.222,0.48-0.552,0.99-0.973,1.284c-1.424,0.993-2.852,2.014-4.393,2.795c-1.395,0.705-2.607,1.54-3.619,2.727
	c-2.443,2.86-5.614,3.684-9.17,2.917c-2.685-0.58-4.615-2.348-6.109-4.605c-2.379-3.598-3.238-7.697-3.895-11.859
	C98.308,82.341,98.424,81.521,97.404,81.122z M113.987,66.064c-0.21-1.042-0.975-1.545-1.86-1.892
	c-2.68-1.048-5.143-0.118-7.552,0.946c-1.04,0.459-1.692,1.337-1.854,2.599c0.252,0.166,0.497,0.385,0.784,0.508
	c2.344,1.006,4.807,1.076,7.22,0.522C112.072,68.438,113.405,67.743,113.987,66.064z M126.604,63.842
	c-1.97,0-3.87-0.133-5.743,0.039c-1.709,0.157-2.362,1.103-2.287,2.698c2.283,2.454,7.07,1.837,8.655-1.157
	c-0.065-0.276-0.114-0.599-0.219-0.902C126.943,64.322,126.795,64.153,126.604,63.842z M109.258,79.728
	c0.442,2.075,2.008,3.248,4.185,3.291c1.358,0.027,1.947-0.34,2.315-1.6c-2.439,0.798-4.441,0.398-5.641-2.058
	C109.791,79.5,109.56,79.6,109.258,79.728z M115.384,74.553c0.64-0.042,0.991-0.064,1.384-0.09c0.586-1.128,1.148-2.211,1.806-3.476
	c-1.198-0.736-2.269-1.417-3.37-2.039c-0.127-0.071-0.434,0.179-0.959,0.419c1.002,0.818,1.805,1.477,2.696,2.205
	C116.467,72.48,116,73.374,115.384,74.553z M117.071,87.183c-0.601,0.624-1.08,1.123-1.778,1.846
	c0.783,0.348,1.266,0.562,1.692,0.751C118.033,88.588,118.033,88.588,117.071,87.183z"/>
<path fill-rule="evenodd" clip-rule="evenodd" fill="#f04c47" class="fill" d="M76.562,135.092c-1.393,2.539-1.179,5.229-0.77,8.102
	c-0.578,0.072-1.082,0.132-1.718,0.21c-0.96-3.134-0.693-6.283-0.937-9.381c-2.002,2.915-1.131,6.059-0.793,9.275
	c-0.622,0-1.182,0-1.76,0c-1.674-2.992-1.332-6.247-1.338-9.559c-1.055,0.306-1.207,1.062-1.359,1.79
	c-0.354,1.69-0.211,3.365,0.185,5.032c0.159,0.674,0.284,1.356,0.431,2.078c-0.979,0.209-1.328-0.355-1.518-0.987
	c-0.299-0.99-0.605-1.997-0.714-3.018c-0.156-1.457-0.12-2.934-0.2-4.4c-0.027-0.518-0.157-1.03-0.299-1.908
	c-1.65,3.081-1.034,5.983-0.854,8.876c-2.624-2.351-1.825-5.532-1.978-8.486c-1.157,0.398-1.157,0.398-1.648,4.014
	c-1.344-1.778-1.739-5.142-0.141-8.477c0.079-0.071,0.151-0.187,0.244-0.208c3.187-0.711,6.171-2.165,9.465-2.512
	c1.348-0.142,2.663-0.565,3.996-0.855c6.797-1.48,13.273-0.328,19.387,2.733c2.789,1.397,5.029,3.554,6.567,6.426
	c2.059,3.848,1.434,7.335-0.907,10.753c-2.294,3.348-5.064,6.276-7.932,9.123c-3.102,3.077-6.195,6.16-9.309,9.225
	c-0.893,0.879-1.832,1.706-2.774,2.577c-3.925-0.041-7.472-0.952-10.288-3.843c-0.471-0.483-1.146-0.946-0.436-1.968
	c0.6,0.326,1.215,0.63,1.801,0.984c1.405,0.852,2.99,0.983,4.562,1.127c0.321,0.029,0.669-0.212,1.188-0.393
	c-1.089-1.003-2.363-0.892-3.414-1.339c-1.083-0.461-2.127-1.015-3.361-1.611c0.479-0.749,0.816-1.273,1.209-1.888
	c1.637,0.976,3.051,2.183,4.949,2.165c0.215-0.002,0.428-0.23,0.875-0.488c-1.591-1.202-3.629-1.432-4.74-3.138
	c0.213-0.41,0.426-0.823,0.571-1.104c1.452,0.753,2.761,1.514,4.138,2.118c0.991,0.436,1.093,0.329,2.038-0.522
	c-1.724-0.999-3.874-1.293-5.12-3.201c0.286-0.5,0.572-1.002,0.943-1.651c1.85,1.128,3.496,2.841,5.896,1.516
	c-1.67-0.903-3.763-1.061-4.891-2.987c0.254-0.343,0.533-0.724,0.883-1.197c1.712,1.133,3.465,1.959,5.469,2.037
	c0.16,0.006,0.329-0.224,0.63-0.445c-1.462-1.458-3.888-1.145-5.071-3.062c0.47-0.559,0.947-1.127,1.348-1.605
	c1.578,0.513,2.996,1.001,4.436,1.413c0.258,0.074,0.619-0.147,0.906-0.285c0.11-0.053,0.148-0.255,0.229-0.409
	c-1.348-0.576-2.661-1.138-4.272-1.828c0.633-0.655,1.022-1.06,1.311-1.357c0.939-0.098,1.705-0.177,2.473-0.257
	c0.086-0.171,0.172-0.342,0.258-0.512c-0.412-0.227-0.826-0.454-1.229-0.674c0.312-0.732,0.576-1.351,0.854-2
	c-1.188-0.276-1.188-0.276-3.271,0.618c-0.098-1.256-0.189-2.472-0.305-3.967c-1.74,1.986-1.222,4.08-1.178,6.214
	c-0.551,0.238-1.124,0.486-1.869,0.809C76.66,140.155,77.146,137.574,76.562,135.092z"/>
<path fill-rule="evenodd" clip-rule="evenodd" fill="#f04c47" class="fill" d="M88.352,87.794c2.2,3.649,5.786,4.756,9.58,5.642
	c0.288,1.179,0.57,2.33,0.871,3.566c-0.93,0.162-2.038-0.172-2.33,1.188c1.176,0.923,1.196,2.209,1.129,3.626
	c-0.192,4.027-0.229,8.062-0.371,12.094c-0.096,2.648,0.891,4.625,3.271,5.912c1.629,0.881,3.193,1.881,4.783,2.837
	c0.732,0.441,1.453,0.901,2.25,1.396c-1.701,1.621-3.268,3.113-4.881,4.65c-6.98-4.471-14.691-6.632-23.115-6.941
	c-0.145-0.822-0.348-1.605-0.412-2.399c-0.357-4.346-1.322-8.644-1.138-13.027c0.089-2.17,0.386-4.335,0.667-6.491
	c0.081-0.615,0.438-1.194,0.672-1.797c-0.6-0.52-1.119-0.169-1.387,0.275c-0.553,0.923-1.11,1.889-1.404,2.911
	c-0.744,2.563-1.436,5.15-1.969,7.763c-0.469,2.292-0.742,4.627-1.006,6.953c-0.26,2.268-0.398,4.549-0.607,7.01
	c-3.363,0.822-6.672,2.248-10.555,2.525c0.4-1.025,0.665-1.949,1.106-2.779c1.097-2.069,2.278-4.092,3.412-6.142
	c0.964-1.74,1.904-3.494,2.866-5.236c0.895-1.619,1.857-3.204,2.687-4.854c1.147-2.28,2.224-4.596,3.284-6.917
	c2.435-5.333,6.28-9.23,11.676-11.564C87.674,87.889,87.955,87.877,88.352,87.794z"/>
<path fill-rule="evenodd" clip-rule="evenodd" fill="#f04c47" class="fill" d="M133.076,138.968c-1.936,1.726-4.305,1.717-6.584,1.76
	c-2.348,0.045-4.635-0.511-6.768-1.736c-0.286,0.42-0.479,0.706-0.778,1.144c3.274,1.813,6.662,2.09,10.307,1.677
	c-0.685,1.295-1.687,1.645-2.893,1.672c-2.903,0.067-5.587-0.753-8.187-1.95c-0.342-0.158-0.693-0.34-1.057-0.399
	c-0.57-0.094-0.951,0.145-0.931,1.06c1.761,0.688,3.607,1.41,5.653,2.21c-0.348,0.146-0.557,0.313-0.752,0.302
	c-3.027-0.191-5.783-1.006-7.895-3.376c-0.418-0.469-1.005-0.789-1.527-1.158c-1.818-1.29-3.644-2.57-5.281-3.723
	c-1.605-4.462-0.543-8.021,2.812-11.148c1.041,0.678,2.123,1.38,3.201,2.091c0.273,0.18,0.532,0.38,0.786,0.586
	c1.725,1.393,3.499,1.932,5.73,1.012c1.638-0.676,3.472-0.885,5.222-1.277c2.051-0.46,3.75,0.179,5.179,1.685
	c0.979,1.034,1.831,2.134,2.272,3.57c-0.879,0.575-1.688,0.494-2.481,0.007c-0.604-0.37-1.177-0.787-1.771-1.174
	c-0.895-0.581-1.814-0.729-2.763-0.126c-0.858,0.546-1.714,1.096-2.649,1.694c0.131,1.177,0.242,2.18,0.363,3.279
	C125.945,137.509,129.574,137.799,133.076,138.968z"/>
<path fill-rule="evenodd" clip-rule="evenodd" fill="#f04c47" class="fill" d="M123.688,48.349c0.727-0.919,1.463-1.852,2.168-2.743
	c2.074,0.749,3.041,2.177,2.893,4.125c-0.168,2.191-0.434,4.357-1.818,6.19c-0.191,0.252-0.418,0.479-0.821,0.936
	c-0.128-1.339-0.134-2.454-0.366-3.52c-0.219-0.997-0.188-2.251-1.67-2.617c-2.289,2.031-4.59,4.072-7.006,6.216
	c-0.403-1.963-0.436-3.897-1.408-5.452c-0.948-0.206-1.193,0.405-1.575,0.856c-1.195,1.411-2.413,2.801-3.638,4.186
	c-0.163,0.185-0.42,0.289-0.813,0.549c-0.069-2.16-0.265-4.118-1.085-6.069c-2.604,1.223-4.885,2.599-6.147,5.098
	c-1.18,2.332-2.222,4.737-3.222,7.151c-0.36,0.87-0.42,1.865-0.688,3.123c-2.136-3.148-1.583-6.417-1.436-9.905
	c-2.995,1.452-3.493,4.157-4.52,6.535c-1.066-2.365-0.588-4.767-0.367-7.092c-0.906-0.293-1.289,0.194-1.663,0.666
	c-0.983,1.236-1.952,2.481-2.929,3.723c-0.325,0.414-0.654,0.825-0.983,1.237c-0.108-0.044-0.218-0.087-0.327-0.131
	c0.208-0.913,0.404-1.829,0.623-2.739c0.795-3.3,2.017-6.435,3.761-9.352c0.555-0.929,1.231-1.766,2.527-2.084
	c-0.603,1.576-1.208,3.151-1.8,4.699c0.774,0.53,1.359,0.211,1.983,0.006c2.491-0.82,4.473-2.471,6.565-3.946
	c0.396-0.278,0.785-0.564,1.324-0.749c-0.393,1.82-1.572,3.24-2.57,5.046c0.506,0.09,0.949,0.32,1.235,0.194
	c1.489-0.657,2.999-1.301,4.381-2.146c1.806-1.102,3.499-2.387,5.239-3.594c0.26-0.179,0.521-0.358,0.912-0.629
	c0.489,1.511-0.084,2.748-0.523,3.963c0.578,0.846,1.157,0.51,1.697,0.096c1.557-1.197,3.096-2.417,4.645-3.623
	c0.285-0.222,0.588-0.421,1.128-0.806c0.136,2.113,0.335,3.964-0.327,6.091c0.67-0.064,1.203,0.009,1.613-0.184
	c0.72-0.34,1.37-0.833,2.039-1.279C121.669,49.738,122.607,49.086,123.688,48.349z"/>
<path fill-rule="evenodd" clip-rule="evenodd" fill="#f04c47" class="fill" d="M134.555,120.99c-2.914-1.01-5.48-0.197-8.143,0.502
	c-0.113-1.353,1.574-1.115,1.521-2.28c-0.605,0-1.221,0-1.775,0c-0.535-0.661-0.246-0.948,0.316-1.155
	c0.91-0.333,1.814-0.679,2.886-1.082c-1.381-1.499-2.661,0-4.001-0.222c-0.151-0.383-0.326-0.819-0.549-1.377
	c1.328-0.988,3.006-1.03,4.328-1.885c-1.109-0.701-2.246-0.627-4.859,0.36c-0.094-0.09-0.272-0.263-0.654-0.631
	c1.059-0.626,1.826-1.09,2.603-1.538c0.743-0.43,1.802-0.535,1.83-1.876c-1.852,0.061-3.194,1.35-4.974,1.792
	c0.085-1.501,1.221-1.819,2.082-2.36c0.855-0.537,1.739-1.032,2.758-1.632c-1.314-0.997-2.272-0.259-3.182,0.167
	c-0.896,0.418-1.699,1.03-2.701,1.655c0.994-3.613,6.239-6.846,9.938-6.127C132.817,109.055,133.668,114.897,134.555,120.99z"/>
<path fill-rule="evenodd" clip-rule="evenodd" fill="#f04c47" class="fill" d="M116.262,110.254c-0.336,0.553-0.691,1.138-1.084,1.782
	c-3.205-0.373-5.851-2.154-8.865-3.141c0.656,1.511,1.188,2.117,2.49,2.646c1.463,0.594,2.959,1.109,4.439,1.666
	c0.241,0.09,0.469,0.215,0.818,0.377c-0.26,0.382-0.455,0.671-0.693,1.021c-3.111-0.657-5.646-2.565-8.721-3.769
	c0.252,1.356,0.992,2.037,1.898,2.503c1.453,0.747,2.955,1.399,4.438,2.084c0.39,0.179,0.79,0.331,1.366,0.571
	c-0.246,0.472-0.451,0.863-0.666,1.277c-3.304-0.583-5.592-3.039-8.781-4.177c0.811,1.672,1.966,2.621,3.291,3.375
	c1.309,0.746,2.658,1.421,3.94,2.427c-0.534-0.079-1.116-0.049-1.595-0.258c-1.596-0.699-3.158-1.479-4.727-2.236
	c-0.506-0.245-1-0.516-1.6-0.827c-0.366,1.484,0.564,1.832,1.342,2.298c0.74,0.444,1.463,0.919,2.424,1.527
	c-1.422,0.09-2.188-0.752-3.102-1.196c-0.929-0.452-1.832-0.962-2.915-1.537c-0.083-0.668-0.274-1.414-0.252-2.152
	c0.12-3.818,0.294-7.634,0.458-11.45c0.014-0.317,0.124-0.629,0.186-0.925c0.174-0.01,0.328-0.06,0.364-0.015
	c2.923,3.585,6.862,5.661,11.056,7.282C113.098,109.92,114.605,109.958,116.262,110.254z"/>
<path fill-rule="evenodd" clip-rule="evenodd" fill="#f04c47" class="fill" d="M123.557,134.43c0.471-0.197,0.914-0.385,1.439-0.607
	c0.835,0.34,1.676,0.722,2.545,1.028c2.051,0.724,4.205,1.028,5.785-0.752c1.355-1.527,2.841-3.147,2.883-5.455
	c-0.426-0.379-0.781-0.698-1.01-0.902c-0.2-0.868-0.363-1.567-0.498-2.155c-1.42-0.437-2.542-0.317-3.76-0.091
	c-1.793,0.332-3.66,0.266-5.536,0.372c-0.341-1.3,0.753-1.514,1.252-2.081c3.055-0.421,6.075-0.996,9.226,0.163
	c1.609,3.584,2.75,7.338,1.797,11.447c-0.338,1.456-1.574,2.004-2.659,2.739c-2.438-1.476-5.226-1.415-7.872-1.931
	c-0.8-0.156-1.623-0.193-2.434-0.312C124.005,135.79,123.459,135.5,123.557,134.43z"/>
<path fill-rule="evenodd" clip-rule="evenodd" fill="#f04c47" class="fill" d="M109.251,65c-0.277,0.969-0.52,1.813-0.812,2.833
	c-1.254,0.234-2.574-0.064-4.1-0.625C105.512,65.139,107.488,65.408,109.251,65z"/>
<path fill-rule="evenodd" clip-rule="evenodd" fill="#f04c47" class="fill" d="M111.489,65.137c0.396,0.293,0.757,0.561,1.118,0.828
	c-0.929,1.25-0.929,1.25-2.227,1.452C110.077,66.159,110.079,66.154,111.489,65.137z"/>
<path fill-rule="evenodd" clip-rule="evenodd" fill="#f04c47" class="fill" d="M122.809,64.898c-0.096,0.77-0.159,1.29-0.229,1.862
	c-1.155,0.395-1.964-0.042-2.722-0.878C120.553,64.707,121.621,65.021,122.809,64.898z"/>
<path fill-rule="evenodd" clip-rule="evenodd" fill="#f04c47" class="fill" d="M124.403,64.95c0.47,0.032,0.88,0.061,1.723,0.119
	c-0.702,0.633-1.13,1.019-1.518,1.37C123.762,66.008,124.113,65.565,124.403,64.95z"/>
</svg>
