<svg version="1.1" id="svg" xmlns="http://www.w3.org/2000/svg" xmlns:xlink="http://www.w3.org/1999/xlink" x="0px" y="0px"
	 width="200px" height="200px" viewBox="0 0 200 200" enable-background="new 0 0 200 200" xml:space="preserve">
<path class="stroke" fill="#51050f"  d="M177.27,66.867c0-1.378,0-2.755,0-4.123c-1.722-0.842-3.371-0.902-5-0.971c-1.942-0.083-3.892-0.019-5.834-0.108
	c-6.028-0.278-12.051-0.696-18.08-0.876c-6.944-0.206-13.896-0.19-20.844-0.317c-5.975-0.109-11.949-0.276-17.924-0.433
	c-4.014-0.104-8.027-0.245-12.041-0.353c-5.055-0.137-10.111-0.335-15.167-0.359c-4.328-0.021-8.657,0.199-12.985,0.254
	c-9.929,0.129-19.858,0.219-29.787,0.336c-1.828,0.021-3.655,0.071-5.481,0.155c-1.312,0.061-2.621,0.201-3.97,0.308
	c-0.153,0.665-0.333,1.127-0.356,1.597c-0.193,3.706-0.433,7.411-0.505,11.12c-0.072,3.646,0.083,7.298,0.055,10.947
	c-0.055,6.643-0.182,13.285-0.252,19.929c-0.017,1.646,0.034,3.295,0.118,4.938c0.05,0.965,0.359,1.93,0.317,2.884
	c-0.159,3.59-0.267,7.16-0.105,10.771c0.252,5.679,0.883,11.307,1.684,16.91c0.564,3.948-0.142,7.373-2.664,10.438
	c-1.623,1.974-3.231,3.958-4.767,5.838c-0.223,1.762,0.532,3.087,1.197,4.465c1.748,3.626,4.237,6.56,7.876,8.352
	c2.346,1.155,4.744,2.231,7.195,3.136c4.664,1.722,9.436,2.863,14.496,2.437c2.535-0.213,4.413-1.212,5.622-3.458
	c0.835-1.552,1.718-3.079,2.542-4.637c1.479-2.798,3.003-5.574,4.37-8.426c1.862-3.885,3.203-8.021,5.315-11.15
	c3.723-3.044,7.059-5.705,10.318-8.454c2.877-2.427,4.819-5.463,5.57-9.205c0.129-0.639,0.365-1.256,0.586-1.998
	c2.452,0,4.796,0,7.227,0c0.066,0.405,0.137,0.75,0.178,1.1c0.45,3.875,0.751,7.775,1.383,11.622
	c0.689,4.204,2.161,8.125,5.333,11.197c1.051,1.018,2.071,2.07,3.079,3.131c1.559,1.64,2.527,3.541,2.688,5.849
	c0.232,3.339,0.544,6.674,0.809,9.848c2.29,2.708,4.945,4.435,8.291,4.976c1.141,0.184,2.294,0.297,3.439,0.447
	c8.129,1.061,16.053,0.159,23.786-2.503c0.555-0.19,1.05-0.556,1.583-0.845c0-0.844,0.014-1.569-0.002-2.296
	c-0.084-3.893-0.968-7.747-0.55-11.668c0.11-1.023,0.185-2.08,0.053-3.093c-0.325-2.494,0.381-4.677,1.611-6.798
	c0.946-1.631,1.871-3.3,2.565-5.047c1.33-3.352,2.064-6.878,2.559-10.444c0.259-1.859,0.413-3.733,0.629-5.734
	c0.713-0.131,1.353-0.327,2-0.352c3.653-0.14,7.309-0.28,10.964-0.341c3.281-0.056,6.565-0.012,10.047-0.012
	c0.186-0.708,0.48-1.32,0.488-1.937c0.07-4.506,0.104-9.012,0.104-13.519c0-2.133-0.173-4.268-0.135-6.399
	c0.083-4.692,0.329-9.383,0.366-14.076C177.326,82.236,177.274,74.551,177.27,66.867z"/>
<path fill-rule="evenodd" clip-rule="evenodd" fill="#f04c47" class="fill" d="M143.783,92.037c1.68,1.955,3.848,2.056,5.943,2.307
	c0.25,1.448-0.401,5.423-1.356,8.267c-0.645-0.298-1.263-0.666-1.932-0.869c-0.588-0.178-1.301-0.499-1.901,0.561
	c1.204,0.382,2.32,0.735,3.639,1.153c-0.781,4.385-1.566,8.77-2.789,13.052c0.977,0.442,1.388-0.049,1.602-0.626
	c0.547-1.473,1.104-2.953,1.481-4.474c0.556-2.247,0.952-4.533,1.432-6.799c0.124-0.586,0.302-1.159,0.459-1.753
	c0.881,0,1.656,0,2.593,0c0.451,2.283,0.326,4.526,0.177,6.755c-0.225,3.348-0.599,6.678-1.521,9.926
	c-0.146,0.513-0.097,1.088-0.104,1.635c-0.084,6.252-0.879,12.418-2.597,18.423c-0.646,2.259-1.58,4.539-2.87,6.487
	c-1.928,2.915-2.425,6.071-2.51,9.388c-0.096,3.719-0.106,7.44-0.162,11.161c-0.007,0.42-0.068,0.841-0.113,1.373
	c-2.665,1.487-5.472,2.588-8.524,3.009c-3.921,0.539-7.795-0.01-11.647-0.623c-1.917-0.305-3.811-0.801-5.676-1.343
	c-0.783-0.228-1.866-0.336-1.945-1.686c1.961-0.154,3.956,0.869,5.896-0.256c-0.402-0.854-1.072-0.837-1.735-0.911
	c-1.21-0.137-2.424-0.284-3.617-0.521c-0.753-0.148-1.41-0.514-1.135-1.603c1.708-0.575,3.789,0.271,5.788-1.189
	c-2.219-1.117-4.308-0.176-6.363-0.878c-0.134-0.507-0.298-1.127-0.489-1.851c1.848-0.672,4.088,0.253,5.634-1.879
	c-2.144,0-4.079,0-5.99,0c-0.265-0.514-0.456-0.818-0.577-1.148c-0.104-0.275-0.124-0.581-0.195-0.953
	c1.338-0.6,3.014-0.09,4.196-1.524c-0.447-0.176-0.79-0.42-1.136-0.425c-0.913-0.014-1.826,0.081-2.74,0.124
	c-0.83,0.04-1.579-0.102-2.076-1.062c0.765-0.835,2.46-0.435,2.854-2.1c-1.508,0.131-2.924,0.254-4.367,0.379
	c-0.577-0.505-1.113-0.977-1.716-1.505c0.68-0.568,1.244-1.041,1.809-1.512c-0.038-0.108-0.078-0.216-0.116-0.323
	c-1.006,0-2.012,0-3.217,0c-0.44-0.359-0.995-0.811-1.594-1.299c0.174-0.445,0.319-0.815,0.519-1.323
	c-0.595-0.162-1.151-0.314-1.749-0.478c-2.283-3.119-3.144-6.663-3.263-10.368c0.57-0.751,1.071-1.41,1.746-2.299
	c-0.791,0-1.272,0-1.885,0c0.685-1.67,2.54-2.118,3.386-3.524c-1.221-0.464-1.221-0.464-3.543,0.846
	c-0.723-2.378-0.25-4.827-0.881-7.069c3.119-1.717,4.418-3.594,2.332-9.228c0.768-0.396,1.451-0.14,1.91,0.434
	c0.559,0.702,1.1,1.485,1.385,2.323c0.883,2.593,1.713,5.21,2.43,7.855c0.618,2.287,0.988,4.641,1.601,6.93
	c0.262,0.979,0.812,1.895,1.325,2.785c0.36,0.627,0.927,0.965,1.884,0.298c-0.237-1.343-0.572-2.749-0.718-4.175
	c-0.222-2.165-0.398-4.342-0.438-6.517c-0.06-3.415-0.056-6.835,0.042-10.248c0.156-5.515-0.409-10.95-1.504-16.346
	c-0.251-1.231-0.354-2.492-0.542-3.863c1.639-0.183,3.283,0.827,4.712-0.485c0.214-0.489,0.452-1.035,0.79-1.809
	c1.035,1.335,0.968,2.838,1.411,4.142c0.445,1.311,0.69,2.689,1.021,4.025c-1.453,0.912-3.281,0.731-4.59,2.083
	c1.807,1.138,3.178-0.87,4.92-0.322c0.27,0.738,0.646,1.568,0.875,2.438c0.637,2.414,1.17,4.857,1.834,7.264
	c0.256,0.927,0.668,1.838,1.166,2.663c0.555,0.921,1.511,1.146,2.357,0.493c0.69-0.535,1.457-1.267,1.68-2.055
	c0.576-2.044,1.045-4.15,1.235-6.261c0.296-3.277,0.286-6.58,0.493-9.866c0.067-1.075,0.404-2.132,0.572-2.962
	c1.562-1.74,3.232-1.352,5.092-0.945c0.33,2.372,0.66,4.748,1,7.186c-1.572,0.31-3.196-0.44-4.641,1.161
	c1.705,0.157,3.105,0.286,4.5,0.415c0.958,5.007,0.008,9.881,0.224,14.842c0.277,0.37,0.603,0.801,0.978,1.301
	c0.646,0,1.297,0,2.165,0c0.398-0.674,0.964-1.343,1.223-2.114c2.107-6.301,4.257-12.591,5.4-19.166
	C143.19,94.048,143.496,93.137,143.783,92.037z M126.965,121.245c3.353,0.633,4.535-1.354,3.487-5.302
	c-0.404,0.084-0.819,0.169-1.361,0.281c0,1.284,0,2.42,0,3.492C128.391,120.219,127.828,120.624,126.965,121.245z M117.611,120.775
	c-0.588,0.325-0.807,0.431-1.009,0.562c-0.24,0.154-0.466,0.33-0.737,0.523c1.156,0.752,1.706,0.703,2.556-0.147
	c1.071-1.07,0.995-3.057-0.247-4.731c-0.333,0.12-0.698,0.252-1.011,0.365C117.323,118.569,117.467,119.672,117.611,120.775z
	 M141.045,117.364c0.147,1.814-0.562,3.292-1.961,4.583c0.484,0.252,0.834,0.554,0.959,0.479c0.549-0.328,1.127-0.688,1.523-1.177
	c1.039-1.283,1.319-3.407,0.52-4.103C141.846,117.196,141.522,117.264,141.045,117.364z M146.92,121.683
	c1.418,0.357,1.769-0.302,2.005-1.106c0.182-0.619-0.097-0.907-0.93-0.958C147.693,120.199,147.354,120.852,146.92,121.683z"/>
<path fill-rule="evenodd" clip-rule="evenodd" fill="#f04c47" class="fill" d="M75.214,93.549c0,0.599,0,1.198,0,1.764
	c0.65,1.001,1.361,1.93,2.553,1.965c1.057,0.031,2.122-0.275,3.44-0.47c-0.839,1.274-1.416,2.512-2.31,3.442
	c-3.314,3.447-5.263,7.697-7.446,11.854c-2.178,4.143-3.623,8.504-4.821,12.979c-0.218,0.813-0.221,1.685-0.325,2.542
	c0.385,0.956,0.769,1.914,1.209,3.006c0.444,0.199,0.963,0.431,1.683,0.754c0-0.919,0-1.56,0-2.314
	c1.473-0.182,2.866,0.97,4.53-0.018c0.753-2.978,3.875-4.01,6.002-6.017c0.772-2.941,1.863-5.661,4.421-7.762
	c0,2.071,0,3.898,0,5.675c0.794,1.171,1.974,1.422,3.481,1.627c-0.872,2.274-1.709,4.454-2.492,6.497
	c-0.974,0.306-1.691-0.947-2.495,0.271c0.39,0.482,0.822,1.018,1.304,1.614c-0.221,0.32-0.453,0.657-0.76,1.102
	c-0.572-0.463-1.07-0.868-1.646-1.336c-0.277,0.185-0.553,0.366-0.936,0.622c0.483,0.738,0.907,1.386,1.45,2.212
	c-2.993,3.226-6.37,6.086-9.503,8.999c-1.695-0.086-2.352-1.327-3.259-2.179c-0.543-0.509-1.007-0.898-1.746-0.163
	c0.362,1.857,2.011,2.593,3.37,3.663c-0.372,0.617-0.706,1.174-1.092,1.816c-1.729-0.256-2.766-1.516-3.934-2.53
	c-0.807-0.7-0.771-0.743-1.822-0.536c0.198,1.674,0.667,2.129,4.828,4.63c-0.119,0.295-0.228,0.623-0.382,0.927
	c-0.136,0.266-0.323,0.504-0.509,0.788c-2.223,0.023-3.586-1.743-5.485-2.534c-0.29,0.268-0.575,0.53-1.06,0.976
	c0.942,0.63,1.71,1.203,2.534,1.679c0.835,0.482,1.724,0.868,2.787,1.394c-0.427,0.602-0.822,1.158-1.153,1.624
	c-2.018,0.047-3.349-1.116-4.951-2.039c-0.32,0.228-0.674,0.479-1.086,0.771c1.264,1.57,2.996,2.066,4.777,2.913
	c-0.576,0.806-1.084,1.515-1.724,2.409c-1.051-0.476-2.048-0.881-2.999-1.374c-0.654-0.337-1.213-0.601-1.697,0.318
	c0.691,1.298,2.189,1.44,3.393,2.387c-0.436,0.586-0.879,1.182-1.461,1.967c-1.328-0.508-2.611-0.998-4.062-1.552
	c-0.196,0.128-0.524,0.341-0.927,0.602c0.882,1.498,2.576,1.444,3.827,2.407c-0.477,0.54-0.943,1.069-1.556,1.76
	c-0.896-0.358-1.793-0.682-2.658-1.076c-0.736-0.335-1.387-0.499-1.924,0.468c0.672,1.193,2.261,0.988,3.266,1.951
	c-0.419,0.486-0.798,0.925-1.112,1.287c-1.543-0.06-2.815-1.538-4.722-0.228c1.238,0.577,2.175,1.014,3.272,1.526
	c-0.354,0.398-0.643,0.725-0.902,1.019c-1.354-0.054-2.508-1.332-3.918-0.387c0.36,1.164,1.654,0.848,2.206,1.697
	c-0.275,0.688-0.832,0.868-1.56,0.786c-5.65-0.636-11.035-2.184-15.776-5.354c-2.049-1.368-3.76-3.277-5.49-5.069
	c-1.01-1.049-0.805-2.397,0.138-3.878c1.733-2.72,3.43-5.463,5.135-8.2c0.868-1.395,1.227-2.918,1.029-4.55
	c-0.396-3.266-0.847-6.525-1.212-9.794c-0.365-3.264-0.678-6.535-0.964-9.807c-0.18-2.058-0.398-4.126-0.368-6.187
	c0.06-4.093,0.65-8.139,1.563-12.128c0.574-2.503,1.473-4.898,2.84-7.159c0.739-0.332,1.499-0.672,2.516-1.129
	c-0.28,1.871-0.611,3.515-0.754,5.176c-0.177,2.062-0.24,4.137-0.26,6.206c-0.005,0.554,0.331,1.111,0.541,1.76
	c0.562-0.117,0.946-0.197,1.426-0.298c-0.433-3.067-0.297-6.019,0.537-9.162c0.921-0.084,1.899-0.173,2.976-0.271
	c-0.255-1.387-1.598-0.844-2.729-1.188c0.285-2.3,0.85-4.529,1.956-6.874c1.903,1.072,3.663,0.42,5.547-0.495
	c-2.074,7.254-1.935,14.286-1.203,21.377c0.658,0.26,1.086,0.515,1.544,0.596c1.575,0.279,2.214-0.26,2.497-1.847
	c0.8-4.477,2.636-8.583,4.61-12.636c0.05-0.104,0.161-0.178,0.408-0.442c0.927,0.364,1.936,0.76,3.152,1.237
	c-0.21-1.758-1.551-2.003-2.713-2.686c1.32-2.172,2.57-4.228,3.856-6.343c0.653,0.315,1.128,0.571,1.622,0.776
	c1.57,0.65,2.836,0.311,3.841-1.099c0.882-1.236,1.69-2.523,2.546-3.811c1.217,0.17,1.696,0.943,1.219,2.222
	c-0.254,0.679-0.615,1.336-1.031,1.93c-1.557,2.217-2.534,4.71-3.547,7.189c-1.563,3.825-3.172,7.632-4.675,11.48
	c-0.41,1.05-0.509,2.222-0.78,3.482c0.695,0.316,1.316,0.598,2.05,0.931c1.923-3.386,3.74-6.589,5.569-9.812
	c1.148,0.201,2.177,0.382,3.267,0.574c0.021-1.683-1.747-1.134-2.173-2.262c0.876-0.043,1.652-0.081,2.804-0.138
	c-0.694-0.617-1.082-0.96-1.49-1.324c1.509-2.82,3.681-5.011,5.64-7.371C74.922,93.417,75.068,93.483,75.214,93.549z
	 M52.145,115.134c-0.223-0.063-0.443-0.127-0.666-0.19c-1.782,1.209-1.445,3.099-1.44,4.85c0.854,0.764,1.619,1.308,2.931,0.101
	c-0.591-0.246-1.109-0.461-1.439-0.598c0.113-1.06,0.16-1.723,0.259-2.378C51.879,116.319,52.023,115.728,52.145,115.134z
	 M62.736,117.388c-1.8-0.326-2.946,1.562-2.849,4.464c0.519,0.744,1.179,0.895,2.118,0.43c-0.213-0.537-0.403-1.016-0.621-1.561
	C61.816,119.657,62.246,118.597,62.736,117.388z M42.967,118.472c-2.007-1.012-1.279-2.943-1.383-4.583
	c-1.317,0.026-1.368,0.026-1.508,0.859c-0.26,1.553-0.01,3.009,0.955,4.374C41.735,119.227,42.452,119.51,42.967,118.472z
	 M33.109,115.38c0.221,1.038-0.12,2.219,1.105,2.854c0.761-1.171,0.605-2.812-0.338-3.26
	C33.676,115.081,33.424,115.214,33.109,115.38z"/>
<path fill-rule="evenodd" clip-rule="evenodd" fill="#f04c47" class="fill" d="M32.646,84.705c0-3.302,0-6.633,0-10.121
	c0.645-0.139,1.154-0.346,1.663-0.342c4.634,0.035,9.268,0.099,13.901,0.171c1.388,0.021,2.773,0.092,4.42,0.15
	c-0.146,3.407-0.284,6.666-0.434,10.142C45.667,84.705,39.262,84.705,32.646,84.705z"/>
<path fill-rule="evenodd" clip-rule="evenodd" fill="#f04c47" class="fill" d="M154.645,74.062c0.108-2.923,0.219-5.877,0.339-9.109
	c6.21,0.443,12.218-0.687,18.373,0.36c0.196,3.203,0.381,6.218,0.562,9.173C172.081,75.234,157.456,74.882,154.645,74.062z"/>
<path fill-rule="evenodd" clip-rule="evenodd" fill="#f04c47" class="fill" d="M98.455,63.928c0,3.527,0,6.83,0,10.268c-3.048,0-5.877,0-8.88,0
	c0-3.314,0-6.546,0-9.786c-1.199-0.128-1.187,0.623-1.216,1.279c-0.093,2.127-0.151,4.255-0.235,6.382
	C88.1,72.722,88.043,73.373,88,74.019c-2.745,0-5.324,0-7.864,0c0-3.48,0-6.731,0-10.091C86.306,63.928,92.246,63.928,98.455,63.928
	z"/>
<path fill-rule="evenodd" clip-rule="evenodd" fill="#f04c47" class="fill" d="M173.678,101.545c0,3.07,0,5.896,0,8.989
	c-6.108,0.255-12.023,0.504-18.095,0.759c-0.172-3.148-0.341-6.208-0.517-9.421C161.283,101.157,167.413,101.869,173.678,101.545z"
	/>
<path fill-rule="evenodd" clip-rule="evenodd" fill="#f04c47" class="fill" d="M160.037,76.174c4.589,0.109,9.082,0.217,13.796,0.329
	c0.539,3.673,0.176,7.3,0.354,11.184c-4.87,0.338-9.587,0.063-14.244,0.187C159.367,86.239,159.434,79.099,160.037,76.174z"/>
<path fill-rule="evenodd" clip-rule="evenodd" fill="#f04c47" class="fill" d="M144.809,85.933c0.141-3.507,0.27-6.747,0.406-10.128
	c4.437-0.292,8.646-0.058,12.81,0.237c0,3.957,0,7.741,0,11.713c-2.778-0.099-5.294,0.45-7.655-1.086
	c-0.806-0.524-1.956-0.566-2.966-0.716C146.692,85.848,145.952,85.933,144.809,85.933z"/>
<path fill-rule="evenodd" clip-rule="evenodd" fill="#f04c47" class="fill" d="M140.805,64.565c4.15,0.183,8.196,0.361,12.447,0.55
	c0.215,3.055,0.105,6.037-0.221,8.993c-4.204,0-8.25,0-12.507,0C140.561,70.86,140.215,67.813,140.805,64.565z"/>
<path fill-rule="evenodd" clip-rule="evenodd" fill="#f04c47" class="fill" d="M89.066,87.409c1.158,0,2.062-0.037,2.96,0.008
	c1.923,0.096,3.841,0.234,5.859,0.361c0.141,4.14,0.363,8.131-0.378,12.27c-2.686,0-5.379,0-8.291,0
	C88.679,95.958,88.939,91.809,89.066,87.409z"/>
<path fill-rule="evenodd" clip-rule="evenodd" fill="#f04c47" class="fill" d="M162.115,112.49c3.9-0.177,7.635-0.388,11.348-0.148
	c0.52,2.729,0.16,7.846-0.722,9.693c-3.399,0-6.905,0-10.628,0C162.06,118.971,161.838,115.853,162.115,112.49z"/>
<path fill-rule="evenodd" clip-rule="evenodd" fill="#f04c47" class="fill" d="M74.705,122.693c-0.367-3.668,0.494-7.274,0.012-11.004
	c7.541-0.705,14.827-0.523,22.412-0.492c-0.986,1.336-1.828,2.479-2.772,3.76c0.27,1.189,0.528,2.433,0.837,3.663
	c0.306,1.222,0.658,2.431,1.045,3.838c-2.068,0-3.865,0-5.947,0c0.235-0.692,0.435-1.289,0.644-1.882
	c0.263-0.743,0.536-1.482,0.799-2.226c0.774-2.191-0.053-3.917-1.592-5.429c-1.43-1.404-3.216-1.262-4.8-0.676
	c-3.423,1.265-6.249,3.29-7.254,7.106c-0.187,0.705-0.456,1.392-0.73,2.069C76.947,122.44,76.225,122.974,74.705,122.693z"/>
<path fill-rule="evenodd" clip-rule="evenodd" fill="#f04c47" class="fill" d="M174.112,89.37c-0.119,3.601-0.229,6.921-0.337,10.181
	c-2.161,0.71-7.32,0.846-9.869,0.265c-0.051-0.522-0.16-1.104-0.153-1.686c0.028-2.188,0.056-4.377,0.169-6.561
	c0.039-0.745,0.328-1.477,0.5-2.199C167.74,89.37,170.812,89.37,174.112,89.37z"/>
<path fill-rule="evenodd" clip-rule="evenodd" fill="#f04c47" class="fill" d="M124.541,86.815c0.174-3.93,0.336-7.562,0.507-11.419
	c2.788-0.082,5.493-0.159,8.377,0.053c0.349,4.032,0.169,7.936-0.021,11.753c-0.33,0.131-0.472,0.243-0.546,0.209
	c-1.673-0.78-3.383-0.733-5.168-0.438C126.765,87.127,125.775,86.892,124.541,86.815z"/>
<path fill-rule="evenodd" clip-rule="evenodd" fill="#f04c47" class="fill" d="M134.953,87.211c0-3.936,0-7.734,0-11.583c2.998,0,5.81,0,8.896,0
	c-0.151,3.798-0.293,7.351-0.443,11.134C140.559,87.535,137.769,87.21,134.953,87.211z"/>
<path fill-rule="evenodd" clip-rule="evenodd" fill="#f04c47" class="fill" d="M63.971,75.062c-0.174,3.065-0.337,5.954-0.497,8.775
	c-1.185,0.781-2.308,1.057-3.572,1.015c-2.041-0.066-4.085-0.018-6.356-0.018c0.141-3.488,0.27-6.721,0.404-10.104
	c1.763-0.339,3.395-0.116,5.003-0.083C60.518,74.679,62.079,74.897,63.971,75.062z"/>
<path fill-rule="evenodd" clip-rule="evenodd" fill="#f04c47" class="fill" d="M123.094,86.614c-2.733,0-5.215,0-7.651,0
	c-1.039-0.922-0.82-2.09-0.766-3.133c0.114-2.18,0.374-4.352,0.594-6.731c0.257-0.271,0.667-0.703,1.136-1.196
	c2.26,0,4.551,0,7.019,0C123.762,79.28,123.487,82.87,123.094,86.614z"/>
<path fill-rule="evenodd" clip-rule="evenodd" fill="#f04c47" class="fill" d="M68.592,73.709c-3.162-0.179-6.051-0.343-9.037-0.513
	c-0.899-3.248,0.135-6.281-0.152-9.491c3.194,0,6.145,0,9.189,0C68.592,66.876,68.592,70.118,68.592,73.709z"/>
<path fill-rule="evenodd" clip-rule="evenodd" fill="#f04c47" class="fill" d="M83.626,85.72c0-3.428,0-6.632,0-9.965c1.429,0,2.873,0,4.317,0
	c1.445,0,2.891,0,4.485,0c0.449,3.453,0.411,6.684,0.356,9.965C89.592,85.72,86.653,85.72,83.626,85.72z"/>
<path fill-rule="evenodd" clip-rule="evenodd" fill="#f04c47" class="fill" d="M100.037,64.01c3.012,0,5.776,0,8.686,0
	c0.171,3.4,0.334,6.628,0.15,10.073c-3.016,0-5.783,0-8.82,0C100.025,70.778,99.721,67.436,100.037,64.01z"/>
<path fill-rule="evenodd" clip-rule="evenodd" fill="#f04c47" class="fill" d="M94.205,75.91c2.802,0,5.56,0,8.585,0
	c0.31,3.417,0.087,6.825,0.151,10.483c-2.994-0.119-5.75-0.228-8.736-0.346C94.205,82.603,94.205,79.365,94.205,75.91z"/>
<path fill-rule="evenodd" clip-rule="evenodd" fill="#f04c47" class="fill" d="M113.281,83.998c-1.392,0.326-2.648,0.544-3.854,0.927
	c-0.968,0.31-1.904,0.759-2.791,1.259c-0.691,0.389-1.31,0.602-2.251-0.011c0-3.305,0-6.742,0-10.354c3.046,0,6.036,0,9.194,0
	C113.798,78.535,113.827,81.232,113.281,83.998z"/>
<path fill-rule="evenodd" clip-rule="evenodd" fill="#f04c47" class="fill" d="M78.765,63.987c0.333,3.31-0.163,6.526-0.42,9.818
	c-2.885,0-5.536,0-8.317,0c0-3.404,0-6.651,0-10.175C73.014,63.626,75.828,63.422,78.765,63.987z"/>
<path fill-rule="evenodd" clip-rule="evenodd" fill="#f04c47" class="fill" d="M119.174,74.007c-2.902,0-5.67,0-8.656,0
	c-0.268-3.266-0.461-6.541-0.246-10.068c3.032,0.103,5.857,0.198,8.902,0.302C119.174,67.481,119.174,70.595,119.174,74.007z"/>
<path fill-rule="evenodd" clip-rule="evenodd" fill="#f04c47" class="fill" d="M154.504,100.372c-0.404-3.831-0.102-7.379-0.16-11
	c2.767,0,5.278,0,7.979,0c0.193,3.579,0.171,6.952-0.3,10.547C159.614,100.064,157.218,100.208,154.504,100.372z"/>
<path fill-rule="evenodd" clip-rule="evenodd" fill="#f04c47" class="fill" d="M99.266,99.907c0-3.884,0-7.86,0-12.029
	c2.208-0.217,4.207,0.129,6.331,0.343c0.183,3.914,1.497,7.571,1.489,11.686C104.456,99.907,101.951,99.907,99.266,99.907z"/>
<path fill-rule="evenodd" clip-rule="evenodd" fill="#f04c47" class="fill" d="M129.171,64.471c-0.005,3.229,0.391,6.221-0.159,9.339
	c-2.769,0-5.42,0-8.26,0c0-3.109,0-6.222,0-9.339C123.521,64.471,126.268,64.471,129.171,64.471z"/>
<path fill-rule="evenodd" clip-rule="evenodd" fill="#f04c47" class="fill" d="M92.104,109.597c-3.466,0-6.538,0-9.691,0c0-2.607,0-5.074,0-7.728
	c3.338-0.374,6.537,0.01,9.691-0.204C92.104,104.34,92.104,106.847,92.104,109.597z"/>
<path fill-rule="evenodd" clip-rule="evenodd" fill="#f04c47" class="fill" d="M130.677,64.621c2.852,0,5.673,0,8.358,0c0,3.153,0,6.113,0,9.215
	c-2.87,0-5.519,0-8.358,0C130.677,70.752,130.677,67.748,130.677,64.621z"/>
<path fill-rule="evenodd" clip-rule="evenodd" fill="#f04c47" class="fill" d="M58.121,63.653c-0.125,3.234-0.238,6.189-0.361,9.362
	c-2.852,0.157-5.588-0.184-8.438-0.208c-0.471-3.018,0.387-5.86,0.202-8.809C52.461,63.429,55.192,63.517,58.121,63.653z"/>
<path fill-rule="evenodd" clip-rule="evenodd" fill="#f04c47" class="fill" d="M94.083,101.719c3.049,0,5.894,0,8.886,0
	c0.254,2.679,0.09,5.258-0.252,7.946c-3.017,0-5.963,0-9.129,0C93.764,106.938,93.148,104.3,94.083,101.719z"/>
<path fill-rule="evenodd" clip-rule="evenodd" fill="#f04c47" class="fill" d="M71.562,85.506c-1.809-1.912-3.948-2.446-6.661-1.657
	c0.115-2.987,0.223-5.736,0.329-8.509c2.728,0,5.368,0,8.193,0c0,3.5,0,6.796,0,10.166C72.767,85.506,72.23,85.506,71.562,85.506z"
	/>
<path fill-rule="evenodd" clip-rule="evenodd" fill="#f04c47" class="fill" d="M75.053,75.63c2.497,0,4.903,0,7.317,0
	c-0.345,3.416,0.134,6.738-0.496,10.05c-2.319,0-4.476,0-6.821,0C75.053,82.308,75.053,79.072,75.053,75.63z"/>
<path fill-rule="evenodd" clip-rule="evenodd" fill="#f04c47" class="fill" d="M87.46,87.287c0.349,4.313,0.125,8.438,0.235,12.747
	c-2.039,0-3.932,0-5.988,0c1.36-2.606,3.952-4.588,3.812-7.596c-1.504-2.699-3.666-3.659-6.361-3.665
	c-1.435-0.003-2.555,0.649-3.578,1.58c-0.559,0.507-1.188,0.933-2.058,1.604c0-1.831,0-3.24,0-4.67
	C78.205,87.287,82.742,87.287,87.46,87.287z"/>
<path fill-rule="evenodd" clip-rule="evenodd" fill="#f04c47" class="fill" d="M47.757,72.637c-2.264,0-4.357,0-6.688,0
	c-0.393-2.968-0.555-5.807,0.152-8.692c2.293,0,4.454,0,6.733,0C48.543,66.927,47.701,69.702,47.757,72.637z"/>
<path fill-rule="evenodd" clip-rule="evenodd" fill="#f04c47" class="fill" d="M52.428,98.366c-1.19,0.057-2.26,0.108-3.473,0.167
	c-0.076-4.198,1.188-8.016,1.581-12.076c1.423,0,2.784,0,4.233,0c0.463,2.242,0.684,4.544,0.184,6.688
	C54.529,94.968,53.312,96.608,52.428,98.366z"/>
<path fill-rule="evenodd" clip-rule="evenodd" fill="#f04c47" class="fill" d="M39.595,72.528c-2.377,0-4.481,0-6.854,0
	c0.126-2.592,0.254-5.227,0.386-7.957c2.207-0.646,4.28-0.73,6.469-0.622C39.595,66.803,39.595,69.507,39.595,72.528z"/>
<path fill-rule="evenodd" clip-rule="evenodd" fill="#f04c47" class="fill" d="M153.94,122.776c0.497-3.403,0.957-6.554,1.43-9.792
	c1.708-0.118,3.32-0.229,5.062-0.349c0,3.218,0,6.28,0,9.526C158.265,122.367,156.244,122.558,153.94,122.776z"/>
<path fill-rule="evenodd" clip-rule="evenodd" fill="#f04c47" class="fill" d="M120.226,88.064c1.625,0.126,3.187,0.248,4.821,0.376
	c-0.519,3.894-1.026,7.707-1.553,11.65c-1.169,0-2.291,0-3.377,0C119.35,98.438,119.39,91.035,120.226,88.064z"/>
<path fill-rule="evenodd" clip-rule="evenodd" fill="#f04c47" class="fill" d="M41.797,86.481c-1.064,1.34-1.708,2.948-3.381,3.698
	c-0.68,0.305-1.307,0.922-1.742,1.547c-1.318,1.895-2.532,3.863-3.787,5.803c-0.117,0.182-0.239,0.362-0.561,0.845
	c0-4.123,0-7.881,0-11.751C35.54,85.987,38.617,86.237,41.797,86.481z"/>
<path fill-rule="evenodd" clip-rule="evenodd" fill="#f04c47" class="fill" d="M134.529,88.841c0.921-0.052,2.042-0.115,3.317-0.188
	c0.529,3.896,0.069,7.598,0.111,11.494c-0.851-0.064-1.425-0.108-2.049-0.155C135.447,96.262,134.998,92.633,134.529,88.841z"/>
<path fill-rule="evenodd" clip-rule="evenodd" fill="#f04c47" class="fill" d="M80.639,101.912c0.354,2.632,0.689,5.134,0.018,7.812
	c-1.697,0.089-3.412,0.18-5.433,0.286C76.659,106.855,78.555,104.364,80.639,101.912z"/>
<path fill-rule="evenodd" clip-rule="evenodd" fill="#f04c47" class="fill" d="M76.579,94.409c0.519-1.304,1.046-2.632,1.526-3.84
	c2.278-0.605,3.979-0.318,5.15,1.555c-0.598,1.886-2.757,3.66-4.623,3.828C77.694,96.036,77.472,95.886,76.579,94.409z"/>
<path fill-rule="evenodd" clip-rule="evenodd" fill="#f04c47" class="fill" d="M107.812,109.676c-1.179,0-2.236,0-3.318,0
	c0-2.679,0-5.243,0-7.995c1.007-0.095,1.795-0.168,2.713-0.255C107.598,104.292,108.092,106.895,107.812,109.676z"/>
<path fill-rule="evenodd" clip-rule="evenodd" fill="#f04c47" class="fill" d="M97.168,114.671c0.862-0.34,1.412-0.557,1.926-0.76
	c2.221,2.176,2.206,5.471-0.077,6.926c-0.403-0.215-0.866-0.462-1.333-0.71c-0.134-0.975-0.285-1.864-0.369-2.758
	C97.23,116.48,97.215,115.585,97.168,114.671z"/>
<path fill-rule="evenodd" clip-rule="evenodd" fill="#f04c47" class="fill" d="M72.822,122.879c-0.931,0-1.764,0-2.797,0
	c0.138-3.327,2.002-5.906,2.816-9.121C73.61,115.263,73.519,119.913,72.822,122.879z"/>
<path fill-rule="evenodd" clip-rule="evenodd" fill="#f04c47" class="fill" d="M86.576,121.006c-1.617-1.158-1.52-3.516,0.199-7.193
	c1.281-0.101,1.907,0.695,2.368,1.773C89.07,117.778,87.734,119.333,86.576,121.006z"/>
<path fill-rule="evenodd" clip-rule="evenodd" fill="#f04c47" class="fill" d="M142.422,88.886c-0.318,3.318-1.175,6.369-2.478,9.337
	c-0.509-0.942-0.63-6.403-0.196-9.337C140.571,88.886,141.422,88.886,142.422,88.886z"/>
<path fill-rule="evenodd" clip-rule="evenodd" fill="#f04c47" class="fill" d="M109.737,91.637c-0.285-1.502-0.527-2.772-0.808-4.254
	c1.289-0.429,2.348-0.78,3.602-1.198c0.896,2.003,0.004,3.712-0.264,5.633C111.412,91.756,110.729,91.708,109.737,91.637z"/>
<path fill-rule="evenodd" clip-rule="evenodd" fill="#f04c47" class="fill" d="M145.552,91.768c-0.157-1.029-0.292-1.915-0.428-2.801
	c1.358-0.939,2.554-0.096,3.975-0.066c0.423,1.091,0.853,2.196,1.334,3.439C148.586,93.156,147.112,92.733,145.552,91.768z"/>
<path fill-rule="evenodd" clip-rule="evenodd" fill="#f04c47" class="fill" d="M122.103,109.635c-0.692-2.539-1.384-5.077-2.132-7.819
	c1.145,0,2.08,0,3.254,0c-0.016,2.59-0.013,5.205-0.679,7.766C122.398,109.6,122.25,109.617,122.103,109.635z"/>
<path fill-rule="evenodd" clip-rule="evenodd" fill="#f04c47" class="fill" d="M103.738,111.402c1.629,0,2.811,0,4.146,0
	c0.492,2.596,0.369,5.086,0.148,7.617C106.692,116.539,106.285,113.611,103.738,111.402z"/>
<path fill-rule="evenodd" clip-rule="evenodd" fill="#f04c47" class="fill" d="M136.232,109.156c-0.68-2.454-0.467-4.887-0.276-7.436
	c0.986,0,1.875,0,3.033,0C138.792,104.504,137.101,106.679,136.232,109.156z"/>
<path fill-rule="evenodd" clip-rule="evenodd" fill="#f04c47" class="fill" d="M61.241,89.438c1.207-2.853,2.538-4.42,5.222-3.326
	c-0.858,1.263-1.608,2.55-2.543,3.685C63.21,90.659,62.478,90.5,61.241,89.438z"/>
<path fill-rule="evenodd" clip-rule="evenodd" fill="#f04c47" class="fill" d="M44.902,87.578c1.188-0.521,2.188-0.979,3.32-0.165
	c0,0.609,0,1.256,0,2.084c-1.582,0.517-2.854,2.177-5.12,1.135C43.766,89.506,44.333,88.544,44.902,87.578z"/>
<path fill-rule="evenodd" clip-rule="evenodd" fill="#f04c47" class="fill" d="M48.714,106.376c-0.306-2.101-0.595-4.173,0.024-6.271
	c0.924,0,1.706,0,2.736,0C50.954,102.367,49.571,104.243,48.714,106.376z"/>
<path fill-rule="evenodd" clip-rule="evenodd" fill="#f04c47" class="fill" d="M115.869,88.053c1.008,0,1.706,0,2.441,0c0,1.827,0,3.517,0,5.207
	c-0.15,0.033-0.299,0.066-0.448,0.101C117.233,91.687,116.605,90.014,115.869,88.053z"/>
<path fill-rule="evenodd" clip-rule="evenodd" fill="#f04c47" class="fill" d="M56.578,86.362c0.932,0,1.823,0,2.959,0
	c-0.697,1.657-1.768,2.827-2.814,4.396C56.238,89.087,56.107,87.773,56.578,86.362z"/>
<path fill-rule="evenodd" clip-rule="evenodd" fill="#f04c47" class="fill" d="M153.076,101.578c-1.167-0.252-1.891-0.409-2.805-0.607
	c0.259-1.163,0.475-2.137,0.726-3.263C152.827,98.479,152.332,100.071,153.076,101.578z"/>
<path fill-rule="evenodd" clip-rule="evenodd" fill="#f04c47" class="fill" d="M37.694,94.877c0.296-1.388,1.116-2.167,2.016-2.893
	C39.331,93.066,39.434,94.478,37.694,94.877z"/>
<path fill-rule="evenodd" clip-rule="evenodd" fill="#f04c47" class="fill" d="M70.344,93.312c0.362-0.762,0.726-1.524,1.089-2.286
	c0.125,0.027,0.251,0.056,0.376,0.084c0.095,0.483,0.189,0.967,0.306,1.564c-0.499,0.334-0.96,0.644-1.421,0.953
	C70.577,93.523,70.46,93.417,70.344,93.312z"/>
</svg>
