<svg version="1.1" id="svg" xmlns="http://www.w3.org/2000/svg" xmlns:xlink="http://www.w3.org/1999/xlink" x="0px" y="0px"
	 width="200px" height="200px" viewBox="0 0 200 200" enable-background="new 0 0 200 200" xml:space="preserve">
<path class="stroke" fill="#580f12"  d="M150.32,55.134c-0.269-2.774-0.676-5.552-1.289-8.27c-0.406-1.808-1.131-3.585-1.98-5.241
	c-0.769-1.5-1.858-2.848-2.879-4.208c-1.257-1.676-2.734-3.205-3.854-4.964c-1.42-2.23-3.009-4.298-4.697-6.326
	c-2.792-3.353-5.638-6.636-8.886-9.562c-2.662-2.398-5.753-3.442-9.295-3.114c-3.488,0.321-6.725,1.554-9.943,2.844
	c-0.474,0.19-0.988,0.399-1.481,0.396c-2.744-0.023-5.367-0.706-7.882-1.745c-1.773-0.733-3.558-1.585-5.481-1.301
	c-2.15,0.316-4.326,0.789-6.349,1.564c-1.89,0.724-3.728,1.753-5.344,2.971c-2.293,1.727-4.376,3.735-6.524,5.651
	c-1.726,1.539-3.498,3.038-5.098,4.701c-2.49,2.584-4.736,5.374-6.231,8.688c-0.816,1.81-1.737,3.577-2.447,5.425
	c-0.658,1.711-1.081,3.512-1.638,5.263c-0.773,2.434-1.785,4.815-2.317,7.3c-0.758,3.536-1.082,7.152-0.64,10.785
	c0.244,2.001,0.389,4.023,0.778,5.996c0.576,2.917,1.324,5.809,2.702,8.472c0.466,0.899,1.165,1.678,1.758,2.513
	c0.09-0.014,0.179-0.026,0.269-0.038c-0.041,0.282-0.079,0.565-0.123,0.848c-0.161,1.055-0.426,2.104-0.464,3.164
	c-0.055,1.477,0.009,2.964,0.115,4.44c0.162,2.257,0.273,4.531,0.644,6.758c0.416,2.499,1.021,4.973,1.685,7.419
	c0.587,2.167,1.351,4.286,2.063,6.416c1.15,3.444,2.283,6.895,3.5,10.315c1.199,3.372,2.525,6.698,3.736,10.066
	c1.207,3.361,2.338,6.75,3.504,10.125c0.866,2.511,1.762,5.012,2.59,7.534c0.34,1.034,0.48,2.136,0.814,3.174
	c1.212,3.793,2.503,7.563,3.694,11.363c0.829,2.642,1.488,5.325,2.764,7.825c2.031,3.981,5.191,6.421,9.513,7.377
	c1.714,0.379,3.464,0.596,5.188,0.933c4.409,0.862,8.674,0.046,12.814-1.34c1.35-0.452,2.509-1.612,3.627-2.594
	c3.052-2.679,4.663-6.177,5.503-10.083c0.327-1.52,0.694-3.032,1.042-4.547c0.149-0.647,0.393-1.288,0.435-1.941
	c0.258-4.001,0.433-8.008,0.71-12.008c0.178-2.566,0.415-5.132,0.757-7.682c0.297-2.223,0.601-4.471,1.21-6.621
	c1.771-6.247,3.648-12.467,5.582-18.666c1.021-3.275,2.28-6.477,3.372-9.731c0.468-1.394,0.779-2.839,1.174-4.258
	c0.984-3.525,1.988-7.046,2.957-10.578c0.22-0.804,0.309-1.645,0.499-2.459c0.506-2.162,1.072-4.31,1.542-6.479
	c0.344-1.586,0.691-3.109,1.788-4.425c0.86-1.031,1.662-2.205,2.133-3.452c1.315-3.478,2.483-7.015,3.635-10.553
	C150.434,60.632,150.584,57.87,150.32,55.134z M62.007,55.518c-0.623-0.125-1.247-0.25-1.907-0.381
	c0.271-1.078,0.506-2.012,0.721-2.864c0.613,0.583,1.224,1.162,1.914,1.818C62.576,54.4,62.334,54.878,62.007,55.518z
	 M64.616,51.546c-1.968-0.321-1.946-2.188-2.833-3.247c0.322-0.855,0.601-1.595,0.969-2.573c0.405,1.011,0.638,1.819,1.039,2.533
	c0.4,0.713,0.969,1.33,1.555,2.11C65.182,50.635,64.916,51.062,64.616,51.546z M69.097,49.357c0.354-0.86,0.649-1.573,0.949-2.302
	c0.755,0.102,1.389,0.187,2.104,0.283C71.542,48.646,70.521,49.111,69.097,49.357z M72.518,45.826
	c0.081-1.989,1.01-3.477,2.096-4.906c1.039,0.37,2.054,0.732,3.065,1.092C76.616,44.202,75.077,45.585,72.518,45.826z
	 M78.014,39.702c-0.012-1.612,2.184-4.257,3.494-4.447c1.025,1.107,1.961,2.12,2.909,3.145
	C83.178,39.869,80.317,40.543,78.014,39.702z M99.125,35.25c-0.114,0.394-0.955,0.73-1.504,0.815
	c-2.416,0.371-4.84,0.738-7.275,0.908c-1.152,0.081-2.412-0.089-3.479-0.51c-0.797-0.314-1.362-1.214-2.212-2.025
	c5.219-2.016,10.004-4.255,15.486-4.175C99.802,32.039,99.58,33.679,99.125,35.25z M116.359,35.045
	c-0.3,0.505-1.005,0.984-1.587,1.067c-1.711,0.244-3.447,0.348-5.176,0.385c-1.602,0.035-3.211-0.025-4.807-0.157
	c-1.168-0.098-1.979-0.75-2.166-1.993c-0.193-1.296-0.381-2.592-0.566-3.848c2.148-0.698,13.669,0.917,15.098,2.108
	C116.919,33.387,116.796,34.31,116.359,35.045z M118.747,35.725c0.561-1.417,1.058-2.674,1.562-3.949
	c2.978,0.689,4.937,2.509,6.387,5.378C123.848,37.147,121.331,36.528,118.747,35.725z M126.257,40.005
	c1.194-0.477,2.328-0.931,3.587-1.435c1.129,1.565,2.258,3.148,2.324,5.24C130.184,44.15,127.455,42.345,126.257,40.005z
	 M131.875,36.539c-0.679-0.835-1.199-1.476-1.674-2.061c1.383-1.687,2.412-3.459,3.065-5.58c-1.043-0.125-1.635,0.274-1.861,1
	c-0.383,1.232-1.465,1.744-2.333,2.462c-0.613,0.507-1.217,0.001-1.761-0.286c-0.401-0.212-0.74-0.543-1.201-0.892
	c1.657-1.41,2.187-3.329,2.65-5.276c-0.079-0.084-0.157-0.168-0.236-0.25c-0.245,0.201-0.577,0.353-0.721,0.61
	c-0.869,1.555-1.934,2.898-3.651,3.706c-0.337-0.223-0.663-0.438-0.968-0.641c0.824-2.074,1.619-4.075,2.392-6.021
	c-0.208-0.378-0.344-0.627-0.594-1.083c-0.278,0.31-0.55,0.51-0.684,0.781c-0.497,1-0.819,2.117-1.454,3.015
	c-0.631,0.894-1.543,1.596-2.37,2.338c-0.158,0.143-0.491,0.088-0.954,0.153c1.74-2.658,2.169-5.385,1.97-8.276
	c-0.227-0.06-0.388-0.129-0.551-0.137c-0.139-0.006-0.278,0.063-0.543,0.132c-0.429,2.803-0.674,5.766-3.417,7.562
	c-0.923-0.09-1.833-0.179-2.737-0.267c-0.272-0.735,0.623-1.637-0.643-2.257c-0.372,0.719-0.728,1.408-1.113,2.153
	c-1.06,0-2.176,0-3.306,0c-0.043-0.887-0.083-1.719-0.132-2.741c-1.442,0.645-1.239,1.868-1.692,2.795c-0.582,0-1.174,0-1.814,0
	c-0.086-0.758-0.169-1.477-0.26-2.287c-0.423,0.046-0.688,0.074-0.981,0.106c-0.154,0.748-0.294,1.416-0.438,2.107
	c-1.167,0-2.303,0-3.473,0c0.142-2.001,0.126-3.886-1.219-5.534c-0.182,0.05-0.392,0.106-0.608,0.165
	c-0.161,1.774-0.317,3.493-0.478,5.263c-0.899,0.078-1.73,0.149-2.716,0.234c0.063-1.146,0.161-2.229,0.174-3.312
	c0.009-0.895-0.047-1.794-0.143-2.684c-0.039-0.356-0.264-0.693-0.437-1.119c-0.412,0.203-0.66,0.325-0.675,0.332
	c-0.429,2.433-0.824,4.667-1.235,7c-0.771,0.125-1.401,0.227-2.208,0.358c-0.27-2.743-0.525-5.343-0.789-8.023
	c-0.372,0-0.767,0-1.134,0c-0.686,2.935-1.211,5.766-0.468,8.75c-0.862,0.301-1.667,0.582-2.522,0.881
	c-0.263-1.121-0.508-2.175-0.799-3.424c-0.098-0.125-0.327-0.417-0.697-0.89c-0.5,0.992-0.766,1.855-0.851,2.866
	c-0.073,0.887,0.552,1.896-0.331,2.845c-1.605-1.602-1.184-3.558-1.337-5.354c-0.702-0.291-1.109-0.155-1.978,0.62
	c0,2.305,0,4.562,0,7.069c-0.412,0.332-1.052,0.85-1.785,1.443c-1.505-2.283-1.821-4.688-1.345-7.204
	c-0.902-0.312-1.691,0.092-1.726,0.901c-0.088,2.04-0.159,4.083-0.115,6.121c0.015,0.648,0.416,1.288,0.715,2.15
	c-0.088,0.09-0.32,0.331-0.594,0.615c-2.037-1.35-1.873-3.494-2.375-5.556c-0.5,0.2-0.904,0.36-1.246,0.496
	c-0.417,2.561,0.537,4.553,1.781,6.671c-0.313,0.254-0.794,0.646-1.364,1.108c-0.765-0.025-0.896-2.203-2.466-0.941
	c0.305,0.978,0.596,1.913,0.958,3.076c-0.16,0.291-0.458,0.841-0.894,1.64c-0.504-0.649-1.006-1.121-1.281-1.701
	c-0.268-0.565-0.3-1.24-0.47-2.027c-0.521,0.126-0.928,0.224-1.208,0.292c-0.184,0.708-0.32,1.229-0.479,1.842
	c0.326,1.308,0.6,2.77,2.253,3.263c-0.207,1.124-0.711,1.619-1.9,1.844c-1.231-1.015-1.797-2.428-2.09-4.049
	c-0.199-0.077-0.422-0.164-0.742-0.288c0.996-1.8,1.894-3.618,2.968-5.325c1.674-2.662,3.295-5.385,5.254-7.829
	c2.383-2.974,5.254-5.485,8.309-7.813c2.861-2.181,6.266-3.173,9.338-4.861c1.788-0.983,3.485-0.431,5.187-0.025
	c1.618,0.387,3.191,0.978,4.766,1.526c2.604,0.906,5.253,0.9,7.838,0.137c2.729-0.804,5.396-1.822,8.056-2.835
	c1.248-0.475,2.494-0.526,3.622,0.014c1.919,0.916,3.762,1.997,5.596,3.078c2.76,1.627,4.841,4.015,6.923,6.386
	c2.136,2.433,4.259,4.877,6.369,7.333c0.411,0.478,0.736,1.03,1.13,1.587c-1.075,2.053-2.316,3.892-4.702,4.749
	c-0.273-0.333-0.58-0.706-0.904-1.1c1.231-1.672,2.641-3.218,2.964-5.331c-0.089-0.08-0.18-0.16-0.269-0.24
	C134.66,33.887,133.305,35.177,131.875,36.539z M133.071,46.84c0.398-0.173,0.79-0.319,1.158-0.508
	c0.357-0.183,0.693-0.411,1.16-0.693c0.432,0.76,0.828,1.454,1.227,2.155C135.41,48.262,133.962,47.879,133.071,46.84z
	 M136.566,41.215c-0.223,0.128-0.534,0.102-0.769,0.14c1.381-1.78,2.708-3.491,4.109-5.301c0.39,0.592,0.731,1.114,1.041,1.584
	c-0.998,0.884-1.928,1.737-2.892,2.549C137.597,40.574,137.088,40.914,136.566,41.215z M138.929,46.659
	c-0.211-0.344-0.401-0.654-0.62-1.011c1.498-1.12,2.619-2.517,3.734-3.919c-0.087-0.139-0.173-0.276-0.26-0.414
	c-0.41,0.13-0.873,0.179-1.218,0.407c-0.746,0.493-1.421,1.091-2.146,1.619c-0.299,0.218-0.651,0.366-1.093,0.416
	c1.847-1.452,2.885-3.431,3.9-5.624c0.957,1.636,1.839,3.144,2.743,4.689C142.281,44.16,141.06,45.932,138.929,46.659z
	 M140.297,49.652c-0.168-0.348-0.263-0.543-0.278-0.576c1.601-1.514,3.137-2.964,4.776-4.512c0.197,0.512,0.416,1.083,0.664,1.728
	C143.714,47.428,142.037,48.519,140.297,49.652z M141.496,52.728c-0.141-0.366-0.253-0.654-0.28-0.728
	c1.658-1.341,3.224-2.607,4.876-3.943c0.126,0.456,0.244,0.878,0.338,1.214C145.02,50.842,143.574,52.136,141.496,52.728z
	 M142.528,55.364c1.599-1.154,3.122-2.253,4.688-3.385c0.074,0.338,0.169,0.771,0.277,1.263c-1.544,1.022-2.777,2.44-4.69,3.023
	C142.685,55.878,142.588,55.561,142.528,55.364z M143.974,59.384c-0.105-0.139-0.211-0.276-0.317-0.414
	c1.326-1.088,2.651-2.177,4.06-3.333c0.069,0.449,0.128,0.831,0.22,1.428C146.64,57.824,145.307,58.604,143.974,59.384z"/>
<path class="stroke" fill="#580f12"  d="M39.979,125.225c0.268,1.06,0.41,2.151,0.623,3.226c0.313,1.575,0.631,3.149,0.969,4.719
	c0.171,0.798,0.56,1.192,1.504,1.001c1.683-0.342,3.392-0.55,5.093-0.8c0.336-0.05,0.682-0.036,0.802-0.042
	c0.77,1.753,1.426,3.367,2.184,4.934c0.533,1.104,1.945,1.131,2.58,0.098c1.118-1.818,2.278-3.615,3.303-5.485
	c1.213-2.219,2.317-4.498,3.438-6.768c0.343-0.692,0.315-1.339-0.476-1.805c-0.974-0.573-1.889-1.247-2.868-1.809
	c-3.115-1.786-6.23-3.573-9.384-5.288c-1.003-0.544-1.549-0.133-1.537,1.041c0.008,0.934,0.059,1.876,0.211,2.795
	c0.134,0.809-0.143,1.098-0.911,1.271c-1.525,0.345-3.034,0.774-4.532,1.223C40.175,123.776,39.74,124.274,39.979,125.225z"/>
<path fill-rule="evenodd" clip-rule="evenodd" fill="#de4555" class="fill" d="M43.194,125.018c1.429,0.016,2.717,0.059,4.003,0.038
	c1.579-0.025,1.929-0.416,1.842-1.995c-0.028-0.507-0.15-1.01-0.22-1.515c-0.06-0.454-0.107-0.91-0.16-1.356
	c2.954,1.821,5.831,3.594,8.744,5.389c-0.854,3.359-2.703,6.187-4.697,9.201c-0.285-1.041-0.585-1.93-0.762-2.844
	c-0.244-1.258-0.691-1.694-1.978-1.531c-1.558,0.199-3.113,0.443-4.649,0.763c-0.802,0.166-1.166,0.012-1.279-0.835
	C43.826,128.742,43.541,127.164,43.194,125.018z"/>
<path fill-rule="evenodd" clip-rule="evenodd" fill="#de4555" class="fill" d="M83.623,62.979c0.845,0.325,1.691,0.651,2.567,0.99
	c-0.209,0.385-0.358,0.659-0.499,0.919c0.692,0.98,1.439,0.9,2.195-0.31c1.049,0.335,2.13,0.68,3.263,1.041
	c-0.08,0.269-0.152,0.507-0.29,0.964c0.422,0.164,0.853,0.477,1.249,0.439c0.315-0.03,0.59-0.49,1.007-0.873
	c0.401,0.115,0.999,0.287,1.325,0.381c0.585,0.566,0.98,0.947,1.39,1.343c0.416-0.246,0.705-0.417,0.992-0.585
	c0.024-0.08,0.047-0.159,0.071-0.237c0.667,0.259,1.327,0.538,2.002,0.77c0.261,0.09,0.569,0.14,0.839,0.1
	c0.835-0.126,1.664-0.304,2.318-0.428c0.579,0.417,0.965,0.695,1.414,1.017c0.405-0.317,0.756-0.591,1.032-0.807
	c1.231-0.203,2.388-0.432,3.556-0.565c0.46-0.052,0.986,0.016,1.409,0.198c0.934,0.399,1.255,0.337,1.745-0.625
	c2.389,0.042,4.48-1.772,6.75-1.268c0.722-0.366,1.217-0.7,1.764-0.879c1.915-0.625,3.845-1.197,5.818-1.804
	c0.377,0.733,1.091,0.965,1.726,0.578c0.495-0.303,0.76-0.981,0.723-1.239c0.382,0.374,0.764,0.745,1.146,1.118
	c0.19-0.064,0.38-0.13,0.57-0.194c0.395-0.55,0.789-1.1,1.183-1.648c-0.059-0.058-0.118-0.115-0.177-0.173
	c0.28-0.015,0.562-0.03,0.843-0.045c-0.029,0.062-0.059,0.124-0.089,0.188c0.493,0.311,0.986,0.622,1.529,0.964
	c0.247-0.443,0.381-0.684,0.562-1.007c0.269,0.333,0.495,0.613,0.884,1.096c-0.644,0.078-1.093,0.174-1.542,0.179
	c-0.8,0.008-1.162,0.37-1.111,1.357c0.561,0.133,1.13,0.267,1.701,0.4c0.014-0.025,0.027-0.051,0.041-0.077
	c0.636,0.029,1.271,0.058,2.018,0.09c1.245,1.571,2.714,5.687,2.945,8.415c-0.387,0.195-0.779,0.392-1.148,0.578
	c0.003,0.931,0.592,1.052,1.309,1.108c0.316,1.999-0.114,3.894-0.57,5.6c-0.507,0.346-0.866,0.589-1.284,0.875
	c0.313,0.38,0.492,0.597,0.729,0.883c-0.612,1.983-1.24,4.015-1.879,6.086c-0.321-0.14-0.649-0.282-1.033-0.448
	c-0.25,0.17-0.504,0.343-0.847,0.576c0.198,0.308,0.359,0.556,0.501,0.776c0.389,0.036,0.702,0.065,1.119,0.104
	c-0.284,1.173-0.559,2.304-0.848,3.488c-0.668-0.462-1.252-0.657-1.789,0.083c0.24,0.95,0.892,0.774,1.694,0.518
	c-0.288,1.074-0.544,2.036-0.86,3.218c-0.392-0.062-0.774-0.064-1.112-0.188c-0.655-0.237-1.052-0.116-1.494,0.74
	c0.558,0.163,1.071,0.312,1.584,0.462c0.035-0.077,0.069-0.155,0.104-0.232c0.185,0.169,0.369,0.338,0.627,0.576
	c-0.923,3.552-1.832,7.055-2.742,10.558c-0.079-0.044-0.157-0.086-0.235-0.13c-0.475,0.094-0.948,0.188-1.428,0.283
	c0,0.503,0,0.845,0,1.26c0.226,0.196,0.483,0.418,0.836,0.723c-0.263,0.815-0.54,1.676-0.82,2.544
	c-1.194-0.445-1.365-0.418-1.923,0.278c0.138,0.835,0.781,0.828,1.511,0.748c-0.354,0.887-0.671,1.684-1.006,2.524
	c-0.371,0.195-0.774,0.407-1.177,0.619c-0.01-0.049-0.021-0.098-0.031-0.148c-0.542,0.128-1.084,0.255-1.924,0.455
	c0.441,0.554,0.691,0.869,0.976,1.225c0.549-0.344,0.971-0.608,1.392-0.872c0.068,0.054,0.136,0.109,0.204,0.163
	c-0.572,2.215-1.143,4.432-1.687,6.544c-0.552,0.205-1.012,0.375-1.472,0.545c-0.025,0.104-0.05,0.207-0.076,0.311
	c0.373,0.272,0.746,0.545,1.279,0.936c-2.078,5.169-2.073,10.857-3.01,16.385c-0.25-0.035-0.501-0.07-0.943-0.132
	c-0.169,0.164-0.406,0.394-0.643,0.625c0.026,0.104,0.052,0.208,0.078,0.312c0.46,0.129,0.919,0.258,1.471,0.413
	c-0.11,2.474-0.222,5.005-0.341,7.682c-0.514-0.178-0.876-0.304-1.355-0.471c-0.183,0.086-0.462,0.22-0.808,0.384
	c0.024,0.281,0.047,0.545,0.077,0.901c0.684,0,1.271,0,2,0c-0.063,1.079-0.126,2.181-0.188,3.245
	c-0.447,0.175-0.808,0.314-1.119,0.437c-0.211,0.959,0.236,1.411,0.986,1.669c0,0.535,0,1.049,0,1.621
	c-0.408,0.175-0.795,0.342-1.398,0.602c0.435,0.396,0.78,0.713,1.222,1.117c-0.077,0.315-0.185,0.754-0.296,1.211
	c-0.688,0.238-1.339,0.462-2.23,0.772c0.481,0.551,0.802,0.916,1.247,1.425c-0.482,0.796-1.023,1.687-1.73,2.853
	c-0.325-0.57-0.497-0.873-0.74-1.299c-0.481-0.13-1.084-0.232-1.333,0.628c-0.331,1.139,0.575,1.18,1.436,1.431
	c-1.563,2.041-3.727,2.947-5.769,3.854c-0.497-0.202-0.887-0.361-1.18-0.48c-1.173,1.654-2.793,1.211-4.141,1.188
	c-0.354-0.228-0.697-0.606-1.067-0.636c-0.302-0.024-0.638,0.371-0.958,0.58c0.028,0.083,0.057,0.167,0.084,0.25
	c-0.362-0.039-0.724-0.078-1.036-0.113c-0.251-0.294-0.453-0.532-0.76-0.891c-0.44,0.168-0.895,0.342-1.352,0.516
	c0.001,0.09,0.002,0.18,0.004,0.269c-1.268-0.305-2.536-0.61-3.704-0.891c-0.106-0.769-0.192-1.394-0.278-2.019
	c-0.114-0.035-0.228-0.069-0.34-0.104c-0.434,0.477-0.868,0.954-1.4,1.538c-1.272-0.486-2.598-0.991-3.84-1.465
	c0.108-0.667,0.191-1.177,0.292-1.796c-1.042,0-1.823,0-2.847,0c-0.335-0.572-0.778-1.33-1.247-2.131
	c0.776-0.901,0.5-1.75-0.008-2.591c-0.232-0.092-0.471-0.185-0.842-0.329c-0.208-1.099-0.425-2.243-0.654-3.451
	c0.378-0.08,0.646-0.136,1.108-0.233c-0.069-0.813-0.141-1.646-0.217-2.537c-0.544-0.148-0.975-0.265-1.545-0.419
	c-0.066-0.376-0.153-0.869-0.25-1.421c0.5,0.044,0.885,0.077,1.229,0.106c0.634-0.454,1.102-0.99,0.736-1.706
	c-0.218-0.427-0.689-0.857-1.134-0.988c-0.299-0.089-0.752,0.344-1.311,0.634c-0.138-0.485-0.326-1.154-0.532-1.883
	c0.645-0.197,1.208-0.369,1.771-0.539c0.013-0.127,0.027-0.251,0.041-0.377c-0.668-0.265-1.336-0.529-2.113-0.836
	c0.088-0.403,0.212-0.982,0.352-1.623c0.488,0,0.938,0,1.442,0c0.097-0.277,0.176-0.507,0.252-0.726
	c-0.251-0.292-0.455-0.531-0.827-0.963c0.527-0.732,1.019-1.565,1.657-2.265c0.735-0.804,1.645-1.047,2.716-0.084
	c0.32-0.365,0.696-0.638,0.855-1.005c0.374-0.862,0.967-1.424,1.959-1.652c-0.008,0.084-0.016,0.169-0.025,0.252
	c0.578,0.059,1.202,0.27,1.711,0.11c0.244-0.077,0.269-0.853,0.394-1.312c-0.075-0.033-0.151-0.066-0.227-0.099
	c1.137-0.771,2.413-1.403,3.373-2.353c0.965-0.955,1.619-2.227,2.404-3.353c0.452,0.091,0.786,0.16,1.175,0.238
	c0.216-0.103,0.472-0.223,0.654-0.311c0.417,0.293,0.785,0.55,1.128,0.791c0.307-0.051,0.556-0.092,0.847-0.14
	c0.309,0.531,0.608,1.045,0.887,1.523c-0.446,0.477-0.851,0.907-1.246,1.33c1.005,1.027,1.414,1.053,2.545,0.262
	c1.864,1.287,3.852,2.384,6.009,2.282c0.742,0.263,1.263,0.447,1.788,0.634c0.235-0.341,0.392-0.567,0.617-0.894
	c0.154,0.248,0.277,0.419,0.374,0.604c0.093,0.179,0.16,0.371,0.169,0.394c0.458,0.424,0.796,0.737,1.136,1.051
	c-0.025,0.054-0.05,0.108-0.075,0.162c1.312,0.125,2.624,0.25,3.918,0.375c0.206-0.525,0.37-0.946,0.598-1.531
	c-0.467-0.29-0.954-0.592-1.509-0.937c-0.257,0.451-0.394,0.693-0.561,0.987c-0.23,0.027-0.515,0.059-0.768,0.087
	c-0.367-0.276-0.703-0.528-1.115-0.838c-0.085-0.158-0.219-0.409-0.366-0.681c0.131-0.146,0.279-0.314,0.405-0.456
	c-0.025-1.215-1.269-0.356-1.64-1.087c0.191-0.314,0.409-0.668,0.667-1.089c-0.131-0.171-0.281-0.365-0.433-0.562
	c-0.33,0.054-0.605,0.098-0.949,0.153c-0.148-0.313-0.291-0.617-0.43-0.914c0.38-0.502,0.724-0.957,1.078-1.425
	c-0.618-0.936-1.425-0.596-2.375-0.379c-0.639-0.682-1.339-1.428-2.056-2.193c0.161-0.292,0.324-0.589,0.524-0.955
	c-0.193-0.209-0.377-0.407-0.585-0.634c-0.435,0.142-0.812,0.265-1.323,0.431c-0.219-0.254-0.485-0.562-0.817-0.947
	c0.937-0.321,1.629-0.837,1.356-1.721c-0.194-0.63-0.897-0.961-1.702-0.973c-0.034,0.648-0.063,1.194-0.092,1.741
	c-0.075,0.025-0.15,0.052-0.226,0.077c-0.428-0.583-0.855-1.167-1.29-1.762c0.381-0.312,0.68-0.555,0.977-0.798
	c-0.32-0.968-0.958-0.738-1.678-0.502c-0.347-0.654-0.686-1.293-1.049-1.979c1.575-0.254,1.691-0.366,1.594-1.441
	c-0.657-0.672-1.348-0.617-2.104,0.051c-0.244-0.621-0.458-1.17-0.704-1.794c0.353-0.05,0.636-0.048,0.887-0.136
	c0.241-0.085,0.45-0.263,0.672-0.4c0.06-0.169,0.119-0.339,0.178-0.51c-0.298-0.262-0.597-0.525-0.896-0.789
	c-0.093,0.079-0.186,0.159-0.278,0.238c-0.266,0.092-0.533,0.185-0.893,0.31c-0.105-0.309-0.201-0.594-0.332-0.982
	c1.314-0.396,0.751-1.467,0.903-2.471c-0.447-0.124-0.913-0.252-1.515-0.419c-0.136-1.481-0.288-3.129-0.441-4.795
	c0.506-0.32,0.971-0.614,1.515-0.958c-0.277-0.323-0.458-0.534-0.65-0.758c-0.309,0.05-0.584,0.097-0.937,0.154
	c-0.04-0.396-0.076-0.757-0.123-1.229c0.434-0.031,0.816-0.059,1.246-0.09c0.215-1.037-0.535-1.216-1.331-1.387
	c0-1.165,0-2.313,0-3.461c1.416-0.055,1.823-0.318,1.851-1.108c-0.583-0.415-1.132-0.805-1.75-1.244
	c0.081-1.39,0.164-2.801,0.235-4.035c0.557-0.703,1.01-1.276,1.581-1.998c-0.552-0.3-0.929-0.505-1.339-0.728
	c0-0.499,0-1.09,0-1.664c0.511-0.123,0.943-0.226,1.175-0.281c0.392-0.634,0.667-1.081,0.961-1.558
	c-0.457-0.773-0.846-0.852-2.059-0.348c-0.04-0.034-0.112-0.068-0.114-0.106c-0.013-0.171-0.005-0.344-0.005-0.535
	c0.202-0.096,0.404-0.193,0.858-0.41c-0.486-0.646-0.919-1.223-1.353-1.8c-0.341-1.072-0.919-1.298-1.918-0.549
	c-0.339,0.254-0.695,0.486-1.22,0.642c-0.483,2.428-0.964,4.856-1.464,7.374c-0.593,0.238-1.304,0.523-1.973,0.792
	c0.025,0.99,0.375,1.144,1.919,0.906c-0.249,1.2-0.493,2.373-0.753,3.63c-0.278-0.119-0.498-0.213-0.79-0.337
	c-0.356,0.173-0.758,0.368-1.153,0.56c0.053,1.05,0.849,1.068,1.542,1.327c-0.288,1.7-0.507,3.432-1.611,5.064
	c-0.134-0.479-0.234-0.835-0.371-1.319c-0.538,0.207-1.002,0.385-1.415,0.543c-0.481,1.182-0.19,1.668,1.31,2.043
	c-0.524,0.731-1.008,1.406-1.569,2.193c-0.34-0.479-0.583-0.821-0.908-1.281c-0.357,0.106-0.738,0.22-1.313,0.391
	c0.319,0.678,0.569,1.205,0.833,1.765c-0.387,0.227-0.908,0.533-1.448,0.849c-0.054,0.25-0.109,0.499-0.167,0.764
	c-0.244,0.192-0.491,0.387-0.771,0.607c-0.164-0.173-0.312-0.329-0.519-0.545c-0.975,0.55-1.814-1.174-2.865-0.156
	c-0.138,0.943,0.09,1.206,1.415,1.648c-0.374,0.452-0.374,0.452-2.058-0.033c-0.229,0.094-0.494,0.202-0.76,0.312
	c-0.011-0.089-0.021-0.179-0.03-0.27c-0.658,0.074-1.314,0.146-1.971,0.22c-0.035,0.144-0.068,0.288-0.103,0.432
	c0.28,0.203,0.542,0.536,0.844,0.574c0.357,0.045,0.745-0.167,1.207-0.29c0.016,0.051,0.095,0.304,0.188,0.604
	c-0.309,0.193-0.571,0.356-0.884,0.554c-0.307-0.205-0.588-0.393-0.988-0.66c-0.328,0.123-0.735,0.274-1.187,0.442
	c0.16,0.387,0.268,0.647,0.433,1.046c-0.769,0-1.469,0-2.131,0c0.227-0.589,0.421-1.096,0.621-1.617
	c-0.631-0.176-1.12-0.311-1.733-0.481c-0.243,0.157-0.572,0.369-0.927,0.597c0.104,0.331,0.186,0.596,0.293,0.941
	c-0.228-0.063-0.404-0.112-0.501-0.139c-0.081-0.586-0.154-1.104-0.256-1.837c-0.68,0.144-1.233,0.259-1.943,0.408
	c-0.301-0.721-0.663-1.586-1.006-2.407c0.792-0.707,1.519-1.355,2.321-2.073c-1.227-0.887-1.944,0.044-2.904,0.247
	c-0.242-0.481-0.506-1.007-0.749-1.488c0.78-1.117,0.795-2.005,0.067-2.745c-0.248,0.055-0.521,0.116-0.877,0.194
	c-0.145-0.305-0.288-0.606-0.403-0.851c0.418-0.406,0.781-0.758,1.145-1.111c-0.057-0.115-0.114-0.23-0.17-0.346
	c-0.494-0.04-0.987-0.079-1.568-0.126c-0.183-0.417-0.402-0.912-0.638-1.45c0.282-0.583,0.57-1.181,0.968-2.001
	c-0.644-0.121-1.163-0.219-1.842-0.347c-0.082-0.229-0.224-0.623-0.358-0.998c1.382-1.153,1.436-1.964,0.177-2.57
	c-0.24,0.062-0.511,0.132-0.859,0.221c-0.133-0.254-0.26-0.495-0.33-0.627c0.333-0.785,0.644-1.444,0.864-2.133
	c0.032-0.099-0.379-0.34-0.563-0.495c-0.425,0.146-0.765,0.265-1.172,0.405c-0.223-0.619-0.423-1.174-0.614-1.704
	c0.431-0.28,0.78-0.508,1.074-0.7c0.167-2.088-0.169-2.584-1.705-2.339c-0.069-1.117-0.138-2.216-0.205-3.31
	c0.721-0.126,1.325-0.231,1.847-0.322c0.578,0.224,1.105,0.501,1.668,0.627c0.7,0.156,1.229-0.329,1.422-1.188
	c0.127-0.568,0.142-1.182-0.494-1.399c-0.704-0.242-1.288,0.03-1.623,0.76c-0.12,0.262-0.343,0.479-0.664,0.631
	c0.146-0.426,0.315-0.847,0.435-1.28c0.121-0.438,0.193-0.889,0.33-1.536c-0.645-0.109-1.197-0.204-1.902-0.324
	c0.221-0.964,0.461-2.013,0.692-3.024c1.458-0.396,1.475-1.609,1.863-2.706c-0.247-0.201-0.503-0.411-0.827-0.677
	c0.594-1.697,1.199-3.425,1.818-5.192c0.359,0.054,0.633,0.096,1.032,0.156c0.152-0.343,0.318-0.716,0.5-1.127
	c-0.322-0.201-0.555-0.348-0.879-0.55c0.756-1.485,1.514-2.975,2.271-4.462c0.452-0.052,0.819-0.094,1.262-0.144
	c0.119-0.198,0.262-0.431,0.415-0.684c-0.225-0.241-0.392-0.422-0.634-0.684c0.477-0.592,0.954-1.186,1.432-1.778
	c0.038,0.113,0.076,0.227,0.113,0.339c1.119,0.061,2.238,0.12,3.426,0.184c-0.171,0.801-0.301,1.502,0.616,1.794
	c0.971,0.309,1.413-0.378,2.053-1.168c0.765,0.352,1.58,0.726,2.395,1.099c-1.254-0.14-1.649,0.226-1.542,1.522
	c0.274,0.149,0.59,0.321,0.87,0.473C84.044,64.526,83.757,63.73,83.623,62.979z M112.754,131.068c0.74-0.021,1.509,0,1.678-1.117
	c-0.397-0.114-0.737-0.211-1.042-0.299c-0.306,0.262-0.542,0.465-0.752,0.646c0.056,0.306,0.101,0.551,0.146,0.796
	c-0.368,0.016-0.736,0.032-1.179,0.054c-0.068,0.281-0.128,0.533-0.2,0.833c0.369,0.149,0.649,0.264,0.938,0.382
	c0.238-0.207,0.427-0.371,0.662-0.576C112.919,131.536,112.836,131.302,112.754,131.068z M89.435,148.207
	c-0.821,0.157-1.691,0.909-1.649,1.46c0.055,0.718,0.615,1.082,1.187,1.172c0.34,0.055,0.909-0.257,1.103-0.572
	C90.494,149.592,90.152,148.716,89.435,148.207z M73.815,72.463c-0.122-0.053-0.245-0.105-0.368-0.157
	c-0.523,0.457-1.047,0.915-1.51,1.32c0.383,1.166,1.183,1.694,1.908,1.375c0.22-0.097,0.561-0.368,0.535-0.499
	C74.247,73.812,74.014,73.141,73.815,72.463z M102.373,71.794c1.122,0.851,1.746,0.669,2.267-0.669
	c-0.299-0.377-0.654-0.824-1.008-1.273c-0.457,0.17-0.771,0.286-1.162,0.432C102.435,70.808,102.404,71.309,102.373,71.794z
	 M94.391,143.026c-0.053,0.118-0.105,0.236-0.158,0.354c0.362,0.447,0.725,0.896,1.037,1.283c0.521-0.118,0.826-0.188,1.112-0.252
	c0.686-0.71,0.337-1.252-0.317-1.901C95.541,142.672,94.965,142.849,94.391,143.026z M72.735,102.924
	c0.771-0.97,0.768-1.274-0.019-2.267c-0.354,0.096-0.75,0.204-1.258,0.342c-0.028,0.574-0.053,1.088-0.082,1.699
	C71.93,102.79,72.36,102.861,72.735,102.924z M86.41,106.674c-0.743,0.082-1.166,0.129-1.568,0.174
	c-0.075,0.986-0.063,1.764,0.813,2.083c0.244,0.089,0.868-0.139,0.877-0.257C86.579,108.088,86.477,107.489,86.41,106.674z
	 M104.841,104.547c0.958,0.754,1.571,0.802,2.003,0.19c0.427-0.603,0.251-1.071-0.518-1.503c-0.445,0.09-1.016,0.204-1.608,0.324
	C104.778,104.042,104.809,104.293,104.841,104.547z M74.403,66.508c-0.167,0.881,0.127,1.363,0.891,1.514
	c0.661,0.131,1.136-0.088,1.307-0.928c-0.243-0.317-0.531-0.693-0.875-1.144C75.22,66.164,74.787,66.346,74.403,66.508z
	 M104.402,111.093c-1.021-0.593-1.871-0.241-2.104,0.852c0.833,1.029,1.06,1.092,1.922,0.55
	C104.279,112.037,104.336,111.598,104.402,111.093z M122.728,96.751c0.284,0.707,0.671,1.327,1.512,1.05
	c0.304-0.1,0.7-0.663,0.645-0.929c-0.069-0.336-0.519-0.741-0.876-0.833C123.466,95.899,122.836,95.964,122.728,96.751z
	 M75.216,106.625c0.218,0.806,0.768,1.143,1.426,1.111c0.419-0.02,0.822-0.365,1.233-0.566c-0.017-0.123-0.035-0.246-0.052-0.369
	c-0.506-0.255-1.013-0.51-1.573-0.791C75.905,106.215,75.572,106.413,75.216,106.625z M78.206,71.416
	c1.084-0.618,1.333-1.138,0.967-2.14c-0.649,0.344-1.282,0.68-1.986,1.052c0.084,0.275,0.164,0.535,0.24,0.781
	C77.721,71.225,77.958,71.318,78.206,71.416z M100.461,70.864c-0.196-0.669-0.25-1.32-0.578-1.771
	c-0.153-0.21-0.837-0.035-1.252-0.035C98.468,70.348,99.006,70.925,100.461,70.864z M102.386,79.521
	c-0.09-0.462-0.186-0.945-0.276-1.406c-0.465,0-0.8,0-1.226,0c-0.1,0.492-0.195,0.953-0.277,1.356
	C101.17,80.175,101.691,80.199,102.386,79.521z M99.335,81.796c-0.72,0.924-0.527,1.406,0.757,1.816
	c0.189-0.12,0.425-0.27,0.619-0.394C100.856,82.049,100.485,81.673,99.335,81.796z M94.279,170.013
	c0.129-0.187,0.274-0.393,0.388-0.556c-0.033-0.449-0.06-0.833-0.107-1.475c-0.693,0.287-1.267,0.524-1.804,0.746
	C92.926,169.731,93.304,170.169,94.279,170.013z M72.701,87.104c0.459,0,1.088,0.181,1.303-0.042c0.32-0.331,0.35-0.943,0.499-1.427
	C73.15,85.188,72.581,85.646,72.701,87.104z M124.102,79.977c-0.103,0.859,0.092,1.367,0.709,1.532
	c0.272,0.072,0.78-0.031,0.893-0.224c0.193-0.333,0.162-0.796,0.24-1.308C125.181,79.977,124.653,79.977,124.102,79.977z
	 M98.964,159.569c-0.55,0.192-1.056,0.37-1.499,0.525c-0.036,0.917,0.429,1.157,1.018,1.238c0.567,0.077,0.958-0.131,1.018-0.811
	C99.351,160.255,99.185,159.961,98.964,159.569z M86.355,145.946c0.693,0.518,1.29,0.531,1.729-0.091
	c0.139-0.195,0.097-0.736-0.07-0.888c-0.581-0.527-1.194-0.353-1.79,0.162C86.269,145.403,86.312,145.679,86.355,145.946z
	 M102.893,84.367c-0.197-0.377-0.365-0.703-0.603-1.161c-0.448,0.149-0.87,0.29-1.239,0.413c-0.022,1.263,0.222,1.519,1.291,1.466
	C102.495,84.886,102.667,84.661,102.893,84.367z M74.865,103.827c-0.562-0.438-1.078-0.503-1.56,0.022
	c-0.444,0.482-0.435,0.974,0.043,1.427C74.448,105.402,74.448,105.401,74.865,103.827z M100.312,170.319
	c-0.294-0.229-0.57-0.444-0.859-0.669c-0.317,0.16-0.566,0.285-1.002,0.504c0.134,0.488,0.269,0.971,0.407,1.472
	c0.499-0.054,0.8-0.086,1.117-0.12C100.083,171.119,100.176,170.796,100.312,170.319z M118.237,135.779
	c-0.244-0.616-0.399-1.01-0.635-1.603c-0.31,0.087-0.812,0.081-0.94,0.296c-0.227,0.384-0.226,0.901-0.321,1.363
	c0.092,0.087,0.182,0.174,0.272,0.262C117.135,135.996,117.656,135.894,118.237,135.779z M116.228,75.983
	c-0.004,0.814,0.292,1.31,1.004,1.341c0.612,0.026,1.014-0.313,0.96-1.104c-0.318-0.199-0.668-0.418-1.032-0.646
	C116.828,75.721,116.549,75.843,116.228,75.983z M122.957,112.165c-0.207,0.236-0.403,0.459-0.688,0.785
	c0.506,0.345,0.915,0.623,1.319,0.899c0.38-0.188,0.683-0.335,0.998-0.49c0-0.284,0-0.528,0-0.793
	c-0.39-0.128-0.738-0.252-1.092-0.354C123.359,112.175,123.212,112.186,122.957,112.165z M92.986,162.352
	c-1.268-0.21-1.935,0.111-2.218,0.997c0.638,0.619,0.741,0.625,1.823,0.091C92.711,163.108,92.836,162.765,92.986,162.352z
	 M124.499,87.156c0.07,0.906,0.667,1.576,1.231,1.458c0.326-0.068,0.591-0.42,0.883-0.645c-0.212-0.271-0.381-0.699-0.65-0.778
	C125.515,87.062,125.001,87.156,124.499,87.156z M88.061,104.317c0.575,0.1,1.197,0.358,1.33,0.201
	c0.361-0.426,0.515-1.027,0.765-1.589C88.818,102.495,88.604,103.339,88.061,104.317z M123.437,103.878
	c-0.037-0.687,0.074-1.213-0.132-1.543c-0.146-0.233-0.718-0.201-1.167-0.303c-0.143,0.553-0.239,0.927-0.392,1.513
	C122.292,103.652,122.736,103.74,123.437,103.878z M107.099,122.285c0.48,0.177,0.896,0.479,1.271,0.433
	c0.654-0.08,0.941-0.581,0.82-1.247C108.332,120.96,107.813,121.107,107.099,122.285z M78.514,66.196
	c0.033,0.253,0.069,0.526,0.104,0.791c0.635,0.341,1.219,0.537,1.637-0.145c0.136-0.224,0.141-0.771-0.012-0.887
	C79.671,65.52,79.068,65.608,78.514,66.196z M112.834,69.38c-1.403-0.267-2.156,0.039-2.439,0.937
	c0.465,0.122,0.999,0.443,1.373,0.31C112.162,70.486,112.403,69.913,112.834,69.38z M132.249,69.731
	c0.2,0.239,0.362,0.433,0.486,0.582c0.694,0.202,1.193,0.004,1.337-0.625c0.072-0.316-0.146-0.698-0.245-1.095
	c-0.588,0.186-0.935,0.296-1.288,0.407C132.445,69.236,132.362,69.443,132.249,69.731z M112.723,143.392
	c-0.792-0.2-1.393-0.291-1.724,0.325c-0.098,0.182,0.123,0.767,0.304,0.824c0.412,0.127,0.954,0.168,1.315-0.012
	C112.798,144.44,112.696,143.786,112.723,143.392z M120.655,90.427c0.568,0.084,0.991,0.247,1.354,0.159
	c0.188-0.046,0.41-0.556,0.368-0.817c-0.08-0.51-0.247-1.08-1.055-1.057C121.141,89.18,120.958,89.647,120.655,90.427z
	 M131.23,65.76c-1.024-0.905-1.132-0.919-2.138-0.236c0.214,0.345,0.431,0.697,0.626,1.011c0.452,0,0.789,0,1.185,0
	C131.014,66.274,131.119,66.024,131.23,65.76z M125.561,75.68c0.427-0.524,0.755-0.929,1.084-1.334
	c-0.056-0.105-0.111-0.209-0.167-0.314c-0.51-0.077-1.021-0.156-1.552-0.237c-0.164,0.346-0.283,0.596-0.431,0.906
	C124.799,74.979,125.062,75.222,125.561,75.68z M94.201,158.872c0.208-0.357,0.391-0.672,0.572-0.984
	c-0.293-0.333-0.516-0.585-0.806-0.916c-0.367,0.1-0.749,0.203-1.102,0.297C92.749,158.36,93.53,158.462,94.201,158.872z
	 M135.748,68.083c0.314-0.506,0.519-0.836,0.874-1.411c-0.589-0.101-1.019-0.289-1.39-0.206c-0.31,0.069-0.55,0.451-1.069,0.918
	C134.865,67.694,135.297,67.884,135.748,68.083z M77.286,90.705c-0.344,0.276-0.605,0.486-0.839,0.673
	c0.293,1.002,0.891,1.182,1.9,0.629c0-0.238,0-0.491,0-0.777C78.006,91.062,77.676,90.898,77.286,90.705z M80.013,89.07
	c0-0.348,0-0.682,0-1.035c-0.29,0-0.534,0-0.685,0c-0.431,0.484-0.796,0.891-1.16,1.297C78.926,90.009,79.324,89.931,80.013,89.07z
	 M92.755,68.427c0.229,1.217,0.969,1.496,2.088,0.649c-0.364-0.395-0.711-0.771-1.058-1.148
	C93.337,68.146,93.035,68.292,92.755,68.427z M84.132,70.909c-0.446,1.081-0.33,1.271,1.058,1.606c0.14-0.471,0.283-0.956,0.5-1.687
	C84.947,70.868,84.505,70.89,84.132,70.909z M95.415,166.042c0.518,0.447,0.899,0.774,1.331,1.145
	c0.382-0.282,0.659-0.485,0.993-0.731c-0.333-0.547-0.596-0.977-0.858-1.406c-0.134,0.112-0.268,0.226-0.402,0.339
	C96.215,165.55,95.952,165.713,95.415,166.042z M82.921,103.072c0.51,0,0.991,0,1.488,0c0.037-0.51,0.063-0.872,0.108-1.491
	c-0.612,0.108-1.085,0.194-1.597,0.284C82.921,102.305,82.921,102.606,82.921,103.072z M107.52,100.313
	c0.167,1.312,0.537,1.571,1.729,1.157c-0.19-0.513-0.38-1.023-0.598-1.609C108.149,100.062,107.847,100.182,107.52,100.313z
	 M121.118,123.083c0.31,0.189,0.576,0.35,0.856,0.522c0.325-0.18,0.617-0.341,1.159-0.641c-0.382-0.426-0.614-0.86-0.972-1.026
	c-0.245-0.114-0.663,0.146-0.984,0.235C121.154,122.535,121.14,122.762,121.118,123.083z M71.995,79.712
	c0.265-0.677,0.425-1.246-0.381-1.699c-0.405,0.432-0.805,0.858-1.257,1.34c0.42,0.266,0.657,0.417,0.905,0.574
	C71.518,79.853,71.759,79.781,71.995,79.712z M90.704,71.623c0.297,0.699,0.771,1.058,1.388,0.903
	c0.31-0.078,0.525-0.534,0.897-0.943c-0.601-0.232-0.965-0.371-1.393-0.536C91.301,71.238,91.004,71.43,90.704,71.623z
	 M77.779,100.464c-0.481,0.587-0.784,0.956-1.24,1.513c0.443,0.236,0.863,0.461,1.296,0.691c0.271-0.305,0.439-0.491,0.664-0.743
	C78.296,101.516,78.105,101.126,77.779,100.464z M82.87,67.362c0.643,0.828,1.174,1.231,1.817,0.796
	c0.24-0.162,0.194-0.745,0.279-1.135c-0.103-0.074-0.205-0.149-0.307-0.224C84.117,66.969,83.573,67.141,82.87,67.362z
	 M113.865,169.463c-0.824-1.085-1.418-1.083-2.005,0.039c0.3,0.245,0.626,0.512,1.01,0.826
	C113.264,169.985,113.567,169.721,113.865,169.463z M130.043,98.425c-0.074-0.104-0.149-0.206-0.223-0.309
	c-0.495,0.274-0.989,0.547-1.483,0.821c-0.023,0.121-0.046,0.243-0.068,0.364c0.355,0.213,0.748,0.648,1.061,0.597
	C130.169,99.762,129.976,99,130.043,98.425z M129.761,67.909c-0.058,0.463-0.1,0.801-0.149,1.208
	c0.253,0.206,0.507,0.413,0.836,0.68c0.312-0.272,0.569-0.498,0.807-0.705c-0.221-0.445-0.384-0.773-0.558-1.124
	C130.4,67.949,130.124,67.932,129.761,67.909z M130.907,77.442c-0.097-0.417-0.189-0.809-0.347-1.488
	c-0.618,0.307-1.064,0.529-1.557,0.773C129.499,77.652,129.987,77.926,130.907,77.442z M91.52,145.81
	c0.424-0.196,0.671-0.311,1.023-0.474c-0.171-0.445-0.318-0.824-0.483-1.252c-0.477,0.068-0.857,0.122-1.584,0.225
	C90.908,144.931,91.203,145.355,91.52,145.81z M105.338,98.062c0.071-0.269,0.133-0.504,0.184-0.693
	c-0.791-0.977-1.426-0.993-1.946-0.093C103.835,98.122,104.495,98.149,105.338,98.062z M70.709,88.841
	c-0.101-0.064-0.201-0.128-0.302-0.192c-0.679,0.085-1.489-0.2-1.915,0.673c0.575,0.599,1.266,0.775,1.758,0.377
	C70.482,89.512,70.561,89.133,70.709,88.841z M120.421,139.496c0.404-0.459,0.72-0.821,1.193-1.362
	c-0.795-0.107-1.302-0.177-1.897-0.258c-0.116,0.42-0.218,0.788-0.343,1.239C119.753,139.253,120.056,139.363,120.421,139.496z
	 M106.698,109.643c-0.245-0.441-0.354-0.914-0.576-0.976c-0.401-0.11-0.872,0.026-1.512,0.073c0.291,0.606,0.456,0.951,0.663,1.386
	C105.7,109.98,106.065,109.856,106.698,109.643z M89.044,154.439c0.025,0.94,0.193,1.048,1.39,0.901
	c0.124-0.243,0.27-0.53,0.429-0.843C90.215,153.833,89.655,154.033,89.044,154.439z M100.713,73.796
	c-0.015-0.192-0.029-0.385-0.042-0.577c-0.406-0.083-0.824-0.265-1.212-0.214c-0.236,0.03-0.612,0.437-0.591,0.64
	c0.027,0.26,0.417,0.704,0.604,0.682C99.9,74.273,100.301,73.987,100.713,73.796z M111.051,79.972
	c-0.655-0.094-1.142-0.165-1.629-0.234c-0.072,0.056-0.146,0.114-0.219,0.17c0.262,0.386,0.445,0.898,0.808,1.12
	c0.283,0.174,0.788-0.012,1.325-0.047C111.19,80.468,111.117,80.209,111.051,79.972z M90.541,165.58
	c0.009,0.12,0.019,0.238,0.029,0.358c0.339,0.289,0.678,0.578,1.037,0.883c0.833-0.31,0.746-0.873,0.484-1.724
	C91.535,165.271,91.038,165.426,90.541,165.58z M108.481,70.269c-0.807-0.322-1.371-0.24-1.775,0.549
	c0.402,0.695,0.929,0.814,1.669,0.47C108.411,70.945,108.442,70.643,108.481,70.269z M105.688,164.867
	c0.731,0.899,1.115,0.923,1.986,0.127C106.897,163.931,106.244,163.89,105.688,164.867z M115.288,127.962
	c0.719,0.576,1.254,0.506,1.73-0.271c-0.095-0.235-0.196-0.485-0.337-0.833c-0.507,0.116-0.956,0.218-1.393,0.317
	C115.288,127.5,115.288,127.723,115.288,127.962z M135.536,84.41c-0.968-0.879-1.593-0.818-2.079,0.172
	c0.334,0.187,0.689,0.543,1.023,0.526C134.814,85.091,135.128,84.698,135.536,84.41z M76.542,97.225
	c-0.611-0.258-1.021-0.574-1.408-0.55c-0.335,0.021-0.645,0.431-1.156,0.811c0.745,0.275,1.165,0.43,1.58,0.583
	C75.819,97.844,76.032,97.661,76.542,97.225z M117.109,157.039c1.015,0.819,1.645,0.809,2.402-0.01
	c-0.462-0.215-0.854-0.523-1.263-0.546C117.925,156.464,117.581,156.794,117.109,157.039z M94.479,149.219
	c-0.581,0.102-1.125,0.196-1.837,0.322c0.259,0.521,0.401,0.805,0.521,1.045C94.362,150.585,94.504,150.455,94.479,149.219z
	 M129.818,86.125c-0.695-1.358-0.862-1.423-2.064-0.821c0.298,0.352,0.503,0.781,0.834,0.929
	C128.883,86.363,129.316,86.182,129.818,86.125z M132.235,101.799c-0.841-1.142-1.206-1.19-2.167-0.349
	c0.242,0.245,0.465,0.664,0.719,0.684C131.214,102.168,131.66,101.948,132.235,101.799z M72.98,98.018
	c-0.233-0.264-0.438-0.71-0.716-0.762c-0.377-0.069-0.811,0.164-1.234,0.271C71.46,98.676,72.106,98.837,72.98,98.018z
	 M87.705,66.365c0.039,0.384,0.067,0.652,0.092,0.902c0.19,0.098,0.312,0.172,0.442,0.222c0.128,0.05,0.267,0.077,0.374,0.105
	c0.943-0.6,0.997-0.803,0.371-1.579C88.621,66.114,88.22,66.224,87.705,66.365z M109.704,73.046
	c-0.562,0.225-1.023,0.409-1.482,0.594c-0.019,0.11-0.037,0.221-0.055,0.332c0.248,0.201,0.482,0.544,0.747,0.569
	c0.356,0.035,0.737-0.174,1.141-0.289C109.92,73.793,109.844,73.527,109.704,73.046z M97.01,70.594
	c-0.103-0.373-0.121-0.917-0.293-0.97c-0.427-0.134-0.923-0.044-1.375-0.044C95.27,70.656,95.639,70.887,97.01,70.594z
	 M99.107,146.458c-0.344,0.509-0.499,0.745-0.662,0.979c-0.154,0.22-0.315,0.436-0.484,0.668c0.608,0.521,1.105,0.719,1.644-0.047
	C99.468,147.617,99.325,147.154,99.107,146.458z M69.436,92.597c0.083,0.652,0.521,0.858,0.996,0.706
	c0.348-0.111,0.608-0.495,0.938-0.783C70.458,91.789,70.075,91.834,69.436,92.597z M106.244,115.717
	c-0.566,0.312-0.974,0.496-1.312,0.764c-0.057,0.046,0.133,0.629,0.281,0.666c0.399,0.097,0.839,0.034,1.396,0.034
	C106.47,116.618,106.396,116.327,106.244,115.717z M73.328,82.812c-0.021,0.107-0.041,0.216-0.062,0.323
	c0.423,0.231,0.846,0.463,1.221,0.668c0.837-0.715,0.824-1.013,0.006-1.532C74.125,82.441,73.727,82.627,73.328,82.812z
	 M134.52,74.425c-0.8-0.713-1.235-0.669-1.923,0.334c0.517,0.22,0.988,0.421,1.485,0.634
	C134.291,74.935,134.396,74.702,134.52,74.425z M110.296,150.841c0.538-0.167,1.019-0.228,1.387-0.464
	c0.186-0.12,0.166-0.557,0.242-0.853C110.678,149.239,110.248,149.556,110.296,150.841z M120.152,66.406
	c-0.027,0.093-0.057,0.186-0.086,0.279c0.49,0.231,0.979,0.463,1.602,0.757c0.148-0.551,0.231-0.854,0.324-1.196
	c-0.342-0.161-0.593-0.278-0.829-0.389C120.789,66.06,120.471,66.232,120.152,66.406z M109.85,116.546
	c-0.916-0.521-1.264-0.426-1.817,0.635c0.565,0.145,1.071,0.275,1.7,0.437C109.788,117.103,109.821,116.808,109.85,116.546z
	 M79.768,113.229c-0.588-0.877-0.894-0.944-1.881-0.452C77.997,113.812,78.665,113.988,79.768,113.229z M137.37,71.16
	c0.262-1.05-0.06-1.354-1.192-1.162c-0.519,0.694-0.128,1.073,0.486,1.409C136.919,71.318,137.158,71.233,137.37,71.16z
	 M124.08,65.914c-0.061-0.463-0.092-0.699-0.133-1.015c-0.522,0-0.969,0-1.395,0c-0.141,0.386-0.235,0.646-0.416,1.145
	C122.828,65.998,123.38,65.961,124.08,65.914z M117.035,110.202c-0.781-1.093-1.357-1.069-1.913,0.03
	c0.339,0.185,0.677,0.495,1.034,0.519C116.422,110.769,116.714,110.418,117.035,110.202z M89.827,69.872
	c-0.065-1.269-0.574-1.453-1.774-0.682c0.143,0.225,0.251,0.607,0.438,0.652C88.913,69.94,89.375,69.872,89.827,69.872z
	 M109.759,109.199c-0.449-0.151-0.684-0.231-0.881-0.297c-0.394,0.283-0.729,0.526-1.269,0.913c0.671,0.33,1.044,0.515,1.553,0.766
	C109.389,110.055,109.555,109.671,109.759,109.199z M82.715,108.449c-0.034-0.11-0.068-0.22-0.103-0.33
	c-0.58,0.026-1.16,0.052-1.747,0.078c-0.117,1.034,0.503,1.008,1.127,1.167C82.222,109.073,82.468,108.761,82.715,108.449z
	 M103.795,141.549c-0.15-0.435-0.255-0.742-0.395-1.146c-0.584,0.272-1.073,0.5-1.712,0.799c0.424,0.358,0.677,0.57,0.954,0.804
	C103.017,141.856,103.354,141.724,103.795,141.549z M89.599,160.246c0-0.465,0-0.835,0-1.43c-0.629,0.169-1.068,0.287-1.667,0.447
	c0.322,0.467,0.509,0.736,0.681,0.983C88.922,160.246,89.17,160.246,89.599,160.246z M107.444,67.901
	c-1.067-0.561-1.592-0.374-1.769,0.707c0.492,0.101,0.991,0.202,1.562,0.317C107.332,68.458,107.387,68.189,107.444,67.901z
	 M94.745,152.521c-0.716-0.023-1.273-0.009-1.245,0.854c0.358,0.193,0.678,0.366,0.998,0.54c0.273-0.139,0.494-0.251,0.815-0.414
	C95.108,153.146,94.933,152.845,94.745,152.521z M77.894,75.632c-0.299,0.142-0.619,0.292-0.942,0.445
	c0.094,1.035,0.754,0.925,1.391,0.884C78.948,76.287,78.561,75.95,77.894,75.632z M108.837,140.322
	c-0.013-0.126-0.026-0.253-0.038-0.38c-0.333-0.104-0.685-0.324-0.994-0.275c-0.311,0.049-0.581,0.367-0.996,0.655
	c0.478,0.321,0.752,0.507,1.146,0.771C108.26,140.828,108.548,140.575,108.837,140.322z M125.623,68.549
	c-0.051,0.161-0.103,0.325-0.153,0.487c0.351,0.204,0.709,0.578,1.047,0.561c0.326-0.018,0.631-0.442,0.944-0.688
	c-0.051-0.118-0.104-0.239-0.156-0.359C126.744,68.549,126.184,68.549,125.623,68.549z M117.622,71.701
	c-0.645-0.036-1.108-0.062-1.693-0.093c-0.042,0.482-0.07,0.816-0.103,1.193c0.508,0,0.879,0,1.34,0
	C117.285,72.516,117.406,72.222,117.622,71.701z M115.244,116.542c-0.357-1.249-0.614-1.351-1.758-0.852
	c0.127,0.29,0.19,0.76,0.395,0.833C114.252,116.655,114.707,116.55,115.244,116.542z M120.849,135.396
	c0.276-0.52,0.478-0.9,0.68-1.282c-0.978-0.485-1.432-0.271-1.75,0.79C120.081,135.043,120.397,135.189,120.849,135.396z
	 M126.852,93.377c0.546,0.059,0.99,0.107,1.634,0.177c-0.12-0.57-0.2-0.954-0.28-1.332c-0.425-0.047-0.727-0.08-1.033-0.114
	C127.075,92.493,126.994,92.814,126.852,93.377z M112.18,165.467c0.242-1.007-0.238-1.154-0.758-1.176
	c-0.558-0.023-0.967,0.18-0.809,1.08C111.113,165.401,111.648,165.434,112.18,165.467z M123.184,129.815
	c-0.279-0.303-0.502-0.749-0.815-0.824c-0.314-0.075-0.718,0.22-1.089,0.355C121.726,130.385,122.176,130.496,123.184,129.815z
	 M104.834,76.324c-0.035,1.082,0.55,1.063,1.206,0.997c0.209-0.271,0.413-0.532,0.773-0.997
	C106.029,76.324,105.447,76.324,104.834,76.324z M115.2,145.712c0.572,0.999,1.098,1.111,1.969,0.466
	c-0.134-0.256-0.273-0.524-0.465-0.893C116.177,145.435,115.704,145.568,115.2,145.712z M103.147,145.664
	c0.704,0.273,1.21,0.47,1.814,0.704c0.113-0.502,0.172-0.766,0.229-1.023C104.522,144.839,103.963,144.831,103.147,145.664z
	 M107.729,91.794c-0.528-0.792-0.807-0.812-1.707-0.158c-0.012,0.894,0.6,0.859,1.276,0.819
	C107.429,92.256,107.565,92.046,107.729,91.794z M91.866,95.97c-0.255-0.405-0.388-0.616-0.58-0.92
	c-0.453,0.075-0.897,0.149-1.458,0.243c0.225,0.438,0.362,0.708,0.571,1.117C90.879,96.266,91.32,96.133,91.866,95.97z
	 M136.594,81.754c-0.323-0.244-0.58-0.594-0.855-0.607c-0.349-0.018-0.711,0.235-1.089,0.38
	C135.235,82.604,135.683,82.665,136.594,81.754z M99.696,154.628c0.02-0.368,0.035-0.666,0.049-0.952
	c-0.662-0.418-1.17-0.472-1.596,0.31c0.211,0.249,0.41,0.482,0.635,0.747C99.073,154.7,99.346,154.669,99.696,154.628z
	 M133.305,84.231c0-0.339,0-0.659,0-0.982c-0.344-0.118-0.61-0.209-0.919-0.315c-0.213,0.167-0.43,0.336-0.666,0.521
	C131.94,84.406,132.567,84.356,133.305,84.231z M115.007,70.129c0.496-0.079,0.978-0.068,1.358-0.26
	c0.144-0.073,0.056-0.609,0.084-1.128c-0.673,0.191-1.115,0.317-1.605,0.456C114.899,69.513,114.936,69.723,115.007,70.129z
	 M132.801,64.856c-0.102,0.061-0.204,0.121-0.308,0.181c-0.256,0.1-0.514,0.201-1.018,0.396c0.371,0.389,0.592,0.809,0.904,0.892
	c0.279,0.076,0.657-0.22,0.992-0.352c0.066-0.146,0.133-0.291,0.199-0.438C133.313,65.311,133.058,65.083,132.801,64.856z
	 M128.952,65.098c-0.223-0.283-0.42-0.533-0.657-0.834c-0.437,0.175-0.81,0.322-1.174,0.468
	C127.484,65.821,127.999,65.93,128.952,65.098z M130.309,104.285c-0.822,0.161-1.397,0.274-1.973,0.386
	c-0.005,0.148-0.011,0.296-0.017,0.445c0.537,0.157,1.074,0.312,1.701,0.494C130.121,105.145,130.174,104.904,130.309,104.285z
	 M132.907,90.043c-0.833-0.43-1.376-0.463-1.835,0.408c0.385,0.233,0.748,0.454,1.267,0.77
	C132.556,90.771,132.717,90.437,132.907,90.043z M136.934,77.294c-0.975-0.807-1.43-0.71-1.656,0.462
	c0.437,0.122,0.89,0.249,1.374,0.384C136.785,77.736,136.855,77.527,136.934,77.294z M96.174,74.713
	c-0.759-0.16-1.404-0.396-1.549,0.356c-0.05,0.264,0.545,0.65,0.846,0.982c0.115-0.043,0.231-0.086,0.347-0.129
	C95.927,75.554,96.035,75.186,96.174,74.713z M128.022,109.086c-0.097-0.152-0.194-0.304-0.291-0.456
	c-0.524,0.135-1.049,0.27-1.572,0.405c-0.005,0.162-0.009,0.324-0.014,0.486c0.378,0.113,0.781,0.364,1.125,0.299
	C127.558,109.767,127.775,109.344,128.022,109.086z M74.958,113.195c0.521-0.06,0.986,0.005,1.282-0.188
	c0.197-0.127,0.152-0.625,0.255-1.159c-0.662,0.164-1.106,0.275-1.593,0.396C74.919,112.547,74.933,112.759,74.958,113.195z
	 M103.671,168.882c-0.536,0.178-0.937,0.311-1.582,0.526c0.429,0.464,0.69,0.748,0.955,1.036c0.358-0.184,0.605-0.312,0.923-0.476
	C103.878,169.643,103.801,169.357,103.671,168.882z M70.615,82.856c0.219-0.399,0.339-0.619,0.576-1.052
	c-0.187-0.18-0.383-0.369-0.588-0.567c-0.567,0.321-0.943,0.534-1.319,0.747c0.005,0.092,0.011,0.185,0.015,0.278
	C69.711,82.448,70.12,82.633,70.615,82.856z M111.622,155.046c0.103-0.224,0.212-0.468,0.34-0.748
	c-0.299-0.24-0.535-0.43-0.775-0.622c-0.333,0.14-0.61,0.257-0.905,0.381C110.323,154.889,110.752,155.141,111.622,155.046z
	 M118.747,152.361c-0.537-0.154-0.92-0.383-1.252-0.325c-0.288,0.05-0.521,0.425-0.834,0.706
	C117.494,153.373,118.038,153.283,118.747,152.361z M69.624,75.914c0.54,0.077,1.041,0.149,1.661,0.236
	c-0.054-0.576-0.081-0.873-0.112-1.212C70.484,74.963,69.794,74.746,69.624,75.914z M99.417,164.809
	c0.401,0.842,0.949,0.95,1.68,0.374C100.863,164.195,100.29,164.053,99.417,164.809z M85.289,98.474
	c0.647,0.124,1.127,0.215,1.697,0.323c0-0.536,0-0.829,0-1.209c-0.446-0.02-0.828-0.038-1.217-0.056
	C85.641,97.784,85.542,97.977,85.289,98.474z M125.389,121.176c-0.558,0.109-0.965,0.117-1.296,0.281
	c-0.188,0.093-0.251,0.441-0.488,0.905c0.728,0,1.17,0,1.654,0C125.299,121.997,125.325,121.75,125.389,121.176z M77.905,63.701
	c-0.162-0.312-0.284-0.785-0.436-0.796c-0.439-0.029-0.891,0.129-1.437,0.231C76.505,64.069,77.013,64.178,77.905,63.701z
	 M89.259,74.918c0-0.298,0-0.569,0-0.999c-0.546,0.044-1.022,0.082-1.509,0.121C87.914,75.07,88.179,75.215,89.259,74.918z
	 M114.622,99.862c0.043-0.538,0.065-0.81,0.088-1.097c-0.723-0.513-1.186-0.285-1.739,0.596
	C113.56,99.54,114.021,99.681,114.622,99.862z M127.098,105.916c0.25-0.537,0.417-0.896,0.585-1.255
	c-0.068-0.101-0.134-0.201-0.2-0.302c-0.488,0.106-0.975,0.213-1.461,0.319c-0.029,0.113-0.058,0.226-0.087,0.338
	C126.267,105.274,126.6,105.531,127.098,105.916z M119.483,81.275c-0.053,0.119-0.105,0.237-0.156,0.356
	c0.23,0.271,0.463,0.54,0.709,0.827c0.352-0.131,0.61-0.228,0.882-0.33c0-0.287,0-0.533,0-0.969
	C120.401,81.201,119.942,81.238,119.483,81.275z M86.057,77.468c-0.168,0.759,0.338,0.956,0.769,0.93
	c0.299-0.018,0.574-0.414,1.011-0.761c-0.532-0.286-0.795-0.427-1.036-0.556C86.516,77.228,86.291,77.345,86.057,77.468z
	 M120.149,130.342c-0.33-0.551-0.478-0.797-0.651-1.087c-0.412,0.109-0.752,0.199-1.304,0.346c0.232,0.384,0.342,0.799,0.549,0.854
	C119.089,130.548,119.496,130.411,120.149,130.342z M121.631,116.721c-0.351-1.074-0.562-1.121-1.812-0.548
	c0.179,0.27,0.315,0.691,0.512,0.723C120.719,116.957,121.142,116.8,121.631,116.721z M133.84,71.064
	c0.351,0.377,0.618,0.665,1.04,1.118c0.326-0.481,0.551-0.812,0.821-1.211c-0.46-0.187-0.694-0.283-0.947-0.385
	C134.497,70.72,134.252,70.848,133.84,71.064z M114.065,66.393c-0.051,0.16-0.102,0.32-0.153,0.479
	c0.28,0.184,0.542,0.468,0.845,0.521c0.236,0.041,0.578-0.153,0.765-0.347c0.085-0.088-0.062-0.607-0.153-0.623
	C114.944,66.355,114.501,66.393,114.065,66.393z M119.364,107.409c-0.701-0.853-1.116-0.827-1.771,0.143
	c0.419,0.143,0.784,0.352,1.153,0.359C118.951,107.917,119.162,107.585,119.364,107.409z M120.103,110.468
	c0.606,0.874,1.118,0.85,1.669-0.035C121.121,109.695,120.836,109.694,120.103,110.468z M76.498,78.696
	c-0.086-0.118-0.172-0.235-0.258-0.353c-0.501,0.096-1.004,0.191-1.507,0.287c-0.013,0.103-0.026,0.207-0.04,0.311
	c0.346,0.248,0.691,0.495,1.161,0.833C76.12,79.329,76.308,79.012,76.498,78.696z M100.479,137.605
	c-0.761-0.459-1.268-0.394-1.699,0.513c0.502,0.182,0.933,0.338,1.429,0.517C100.327,138.18,100.397,137.912,100.479,137.605z
	 M83.429,94.617c-0.588,0.192-0.994,0.324-1.438,0.469c0.171,0.983,0.729,0.93,1.438,0.772
	C83.429,95.51,83.429,95.167,83.429,94.617z M111.858,120.971c-0.236,0.257-0.44,0.479-0.839,0.913
	c0.646,0.165,1.084,0.276,1.632,0.417c0.078-0.455,0.123-0.715,0.178-1.04C112.463,121.151,112.176,121.065,111.858,120.971z
	 M82.642,111.017c-0.589,0.09-1.043,0.16-1.496,0.23c-0.034,0.113-0.068,0.227-0.102,0.341c0.258,0.185,0.496,0.44,0.785,0.535
	c0.231,0.076,0.525-0.041,0.813-0.074C82.642,111.72,82.642,111.503,82.642,111.017z M96.587,140.347
	c-0.073,0.104-0.146,0.208-0.218,0.313c0.299,0.261,0.599,0.521,1.005,0.875c0.306-0.405,0.502-0.665,0.697-0.925
	c-0.04-0.088-0.079-0.176-0.119-0.263C97.498,140.347,97.042,140.347,96.587,140.347z M117.77,162.599
	c-0.708-0.499-1.225-0.58-1.716,0.316c0.397,0.208,0.764,0.397,1.189,0.619C117.451,163.164,117.587,162.925,117.77,162.599z
	 M115.268,123.094c0.469,0.186,0.824,0.327,1.294,0.512c0.113-0.418,0.195-0.724,0.279-1.034
	C116.105,122.116,115.653,122.267,115.268,123.094z M119.291,68.803c-0.005,0.127-0.011,0.255-0.016,0.381
	c0.207,0.188,0.414,0.375,0.603,0.547c0.315-0.029,0.57-0.052,1.062-0.097c-0.155-0.364-0.224-0.831-0.399-0.875
	C120.152,68.659,119.711,68.775,119.291,68.803z M78.368,110.676c0.582,0.781,1.031,0.806,1.536,0.085
	C79.421,109.986,78.969,109.962,78.368,110.676z M119.052,87.167c-0.547,0.449-0.795,0.65-1.025,0.841
	c0.482,0.878,0.863,0.903,1.757-0.136C119.566,87.662,119.326,87.432,119.052,87.167z M108.846,169.848
	c-0.111-0.132-0.223-0.263-0.333-0.394c-0.424,0.182-0.847,0.362-1.471,0.629c0.495,0.343,0.745,0.517,1.15,0.798
	C108.442,170.486,108.644,170.167,108.846,169.848z M120.292,144.622c-0.451-0.303-0.711-0.477-0.999-0.669
	c-0.288,0.244-0.512,0.434-0.854,0.724c0.458,0.235,0.769,0.394,1.192,0.612C119.826,145.093,119.98,144.936,120.292,144.622z"/>
<path fill-rule="evenodd" clip-rule="evenodd" fill="#de4555" class="fill" d="M102.477,133.322c-1.269-0.127-1.61-0.677-1.06-1.669
	C101.765,132.2,102.088,132.71,102.477,133.322z"/>
</svg>
