<svg version="1.1" xmlns="http://www.w3.org/2000/svg" xmlns:xlink="http://www.w3.org/1999/xlink" x="0px" y="0px" width="200px"
	 height="200px" viewBox="0 0 200 200" enable-background="new 0 0 200 200" xml:space="preserve">
<g id="svg">
	<path class="stroke" fill="#6e3411"  fill-rule="evenodd" clip-rule="evenodd" d="M146.035,108.086c1.573-1.011,2.955-1.959,4.394-2.81
		c2.545-1.507,5.334-2.194,8.277-2.103c2.664,0.082,4.868,1.358,6.496,3.343c3.411,4.16,4.263,8.935,2.646,14.058
		c-1.152,3.647-2.229,7.354-3.822,10.813c-1.616,3.512-3.85,6.721-6.71,9.435c-2.365,2.245-4.774,4.403-7.567,6.133
		c-2.905,1.799-6.043,2.559-9.419,2.617c-4.363,0.076-7.395-3.19-8.137-6.711c-0.42-2.002-0.786-3.986-0.54-6.071
		c0.208-1.767-0.548-3.403-1.284-4.959c-1.482-3.135-3.286-6.083-5.204-8.981c-1.657-2.504-3.42-4.897-5.405-7.14
		c-2.626-2.964-5.726-5.379-8.929-7.671c-0.155-0.111-0.369-0.136-0.479-0.174c-0.374,1.566-0.696,3.081-1.101,4.573
		c-1.142,4.219-3.767,7.36-7.418,9.595c-2.183,1.338-4.654,1.128-6.994,0.33c-5.142-1.751-9.858-4.373-14.435-7.264
		c-0.92-0.582-1.873-1.111-2.96-1.751c-0.907,1.596-1.727,3.038-2.591,4.559c-1.296,0.444-2.615,0.095-3.982-0.192
		c-1.083-0.936-2.176-1.881-3.615-3.126c-1.658-0.263-3.436-1.267-4.916-2.883c-0.392-0.427-1.099-0.57-1.667-0.832
		c-1.38-0.638-2.79-1.226-3.833-2.506c-0.171-0.641-0.356-1.34-0.582-2.192c0.736-1.826,1.513-3.756,2.3-5.711
		c-0.378-0.297-0.637-0.563-0.947-0.736c-4.569-2.551-7.558-6.56-10.108-10.965c-1.023-1.769-1.861-3.611-2.227-5.657
		c-0.723-4.035-0.028-7.823,1.862-11.417c0.705-1.338,1.472-2.644,2.246-4.027c-0.884-0.734-1.635-1.464-2.49-2.045
		c-2.164-1.477-4.318-2.984-6.593-4.273c-1.006-0.57-2.285-0.681-3.454-0.925c-1.844-0.385-3.428-1.248-4.876-2.421
		c-1.393-1.126-1.849-2.519-1.228-4.2c0.834-2.255,2.103-4.179,4.054-5.682c1.519-1.171,3.036-1.149,4.532-0.268
		c1.573,0.928,3.133,1.971,3.874,3.772c0.391,0.95,0.678,1.944,1.012,2.918c-0.1,0.073-0.198,0.146-0.298,0.22
		c4.007,2.755,8.012,5.509,11.761,8.087c3.536-0.124,6.683-0.001,9.637,1.117c2.927,1.106,5.743,2.502,8.797,3.855
		c0.251-0.675,0.53-1.423,0.807-2.168c-0.574-0.88-1.759-1.291-1.621-2.479c0.056-0.484,0.274-0.95,0.433-1.466
		c2.976-0.185,5.174,0.916,7.052,3.143c-0.407,0.623-0.766,1.172-1.153,1.763c-0.897,0.048-1.722,0.091-2.711,0.144
		c-0.201,0.509-0.443,1.119-0.706,1.786c1.353,1.462,2.66,2.857,4.846,3.208c0.272-0.573,0.535-1.128,0.816-1.721
		c-0.42-0.565-0.817-1.101-1.259-1.695c0.227-0.615,0.441-1.196,0.645-1.747c2.04-0.567,4.815,0.621,6.145,2.651
		c-0.532,0.586-1.082,1.19-1.584,1.743c-0.74-0.06-1.307-0.105-1.98-0.16c-0.335,0.565-0.674,1.135-1.029,1.734
		c1.385,1.891,3.038,3.071,5.586,2.839c0.126-0.263,0.32-0.667,0.521-1.086c-0.361-0.422-0.663-0.773-1.104-1.289
		c0.07-0.873,0.153-1.885,0.228-2.81c2.185-0.573,3.844-0.021,6.53,2.033c0.509,0.981-0.058,1.797-0.41,2.588
		c-0.872,1.002-1.956,0.693-3.063,0.597c-0.219,0.337-0.435,0.67-0.582,0.899c0.462,1.083,0.867,2.031,1.272,2.979
		c-0.087,0.071-0.174,0.142-0.26,0.213c1.489,1.146,2.929,2.365,4.479,3.42c3.424,2.332,6.912,4.569,10.358,6.87
		c2.096,1.397,4.146,2.861,6.245,4.253c1.352,0.897,2.735,1.753,4.139,2.566c4.127,2.39,8.201,4.888,12.431,7.081
		c4.316,2.239,8.69,4.498,13.75,4.547C143.98,108.264,145.024,108.144,146.035,108.086z M82.343,100.775
		c5.466,3.857,10.83,7.641,16.132,11.383c0.228-0.098,0.344-0.116,0.412-0.181c2.153-2.073,2.528-5.897,0.802-8.305
		c-0.427-0.595-0.892-1.167-1.374-1.716c-2.867-3.262-6.385-5.717-10.014-8.029c-0.694-0.443-1.396-0.873-2.211-1.379
		C84.841,95.291,83.653,97.898,82.343,100.775z M59.596,74.548c-2.492,1.093-3.3,3.119-3.659,5.425
		c-0.231,1.488,0.2,2.822,1.242,3.894c1.803,1.854,3.861,3.313,6.55,3.951c1.059-2.737,2.104-5.441,3.196-8.267
		C64.422,77.843,62.059,76.23,59.596,74.548z"/>
</g>
<g id="Layer_2">
	<path fill-rule="evenodd" clip-rule="evenodd" fill="#ffd624" class="fill" d="M65.534,99.855c0.567,0.395,1.035,0.705,1.487,1.039
		c3.966,2.925,7.81,6.037,11.925,8.732c4.025,2.636,8.022,5.371,12.452,7.345c3.143,1.4,5.985,1.119,8.415-1.566
		c1.139-1.258,2.026-2.642,2.824-4.135c1.348-2.522,1.138-4.989-0.167-7.356c-0.645-1.17-1.605-2.211-2.58-3.148
		c-3.449-3.317-7.328-6.079-11.356-8.656c-3.002-1.92-5.903-3.999-8.85-6.008c-2.511-1.713-5.023-3.424-7.531-5.14
		c-2.465-1.688-4.927-3.382-7.389-5.074c-3.806-2.615-7.635-5.194-11.408-7.856c-2.309-1.63-4.518-3.4-6.792-5.08
		c-1.138-0.841-2.325-1.613-3.48-2.429c-1.327-0.937-2.564-1.971-3.537-3.187c0.224-1.407,0.224-1.407,1.281-2.224
		c0.582,0.355,1.218,0.71,1.819,1.115c2.784,1.872,5.561,3.754,8.335,5.641c3.899,2.651,7.773,5.339,11.697,7.955
		c3.269,2.178,6.652,4.189,9.877,6.431c3.013,2.092,5.866,4.416,8.826,6.587c3.082,2.262,6.256,4.403,9.3,6.712
		c2.381,1.806,4.577,3.857,6.95,5.673c2.094,1.602,3.989,3.4,5.764,5.325c1.098,1.189,2.147,2.449,3.039,3.796
		c1.069,1.616,1.449,3.503,1.219,5.418c-0.101,0.838-0.552,1.679-1.004,2.421c-1.006,1.652-2.072,3.272-3.188,4.854
		c-1.628,2.309-4.095,2.946-6.722,3.22c-2.23,0.232-4.26-0.455-6.187-1.439c-3.081-1.573-6.222-3.068-9.144-4.904
		c-3.231-2.031-6.248-4.401-9.35-6.635c-0.936-0.672-1.875-1.348-2.763-2.08c-1.491-1.225-2.943-2.497-4.562-3.878
		C64.946,100.938,65.203,100.464,65.534,99.855z"/>
	<path fill-rule="evenodd" clip-rule="evenodd" fill="#ffd624" class="fill" d="M89.29,84.599c0.488-1.009,0.913-1.903,1.357-2.789
		c0.064-0.128,0.219-0.21,0.409-0.384c0.296,0.162,0.624,0.298,0.901,0.503c3.119,2.307,6.19,4.681,9.354,6.925
		c5.132,3.64,10.24,7.324,15.515,10.75c4.527,2.939,9.23,5.62,13.94,8.264c2.336,1.312,4.932,2.028,7.627,2.337
		c1.444,0.166,2.868,0.51,4.511,0.812c-0.798,1.038-1.538,2.002-2.302,2.995c-0.435-0.087-0.808-0.1-1.129-0.237
		c-4.868-2.092-9.659-4.316-14.075-7.305c-5.381-3.643-10.833-7.185-16.288-10.718c-2.279-1.478-4.644-2.823-7.006-4.249
		c-0.321,0.25-0.548,0.427-0.781,0.609c0.089,0.216,0.108,0.405,0.213,0.49c0.938,0.749,1.856,1.534,2.85,2.205
		c3.344,2.262,6.757,4.425,10.069,6.73c5.294,3.687,10.55,7.43,15.783,11.206c2.158,1.557,4.223,3.245,6.307,4.903
		c0.399,0.318,0.689,0.773,0.968,1.094c-1.384,3.412-2.72,6.704-4.103,10.109c-1.271-0.998-1.708-2.39-2.316-3.614
		c-2.676-5.383-6.312-10.012-10.785-13.99c-3.725-3.312-7.501-6.565-11.261-9.838c-0.434-0.379-0.902-0.72-1.354-1.081
		c-1.924-1.534-3.851-3.041-5.599-4.812c-2.053-2.082-4.457-3.815-6.7-5.711C93.363,88.084,91.342,86.35,89.29,84.599z"/>
	<path fill-rule="evenodd" clip-rule="evenodd" fill="#ffd624" class="fill" d="M133.764,138.426c-0.071-4.224,1.172-8.168,2.676-12.033
		c1.776-4.566,4.176-8.803,7.229-12.642c2.378-2.99,5.192-5.479,8.735-7.026c1.434-0.625,2.866-1.348,4.375-1.685
		c2.48-0.554,4.888,0.023,6.661,1.849c1.018,1.047,1.697,2.531,2.217,3.935c1.265,3.408,1.035,6.89,0.122,10.36
		c-0.97,3.681-2.55,7.11-4.496,10.346c-1.425,2.371-2.997,4.702-4.82,6.771c-1.612,1.829-3.708,3.225-5.508,4.9
		c-2.189,2.038-4.877,3.032-7.665,3.785c-3.825,1.034-7.476-0.883-8.822-3.5c-0.599-1.165-0.793-2.375-0.784-3.646
		C133.688,139.369,133.736,138.897,133.764,138.426z M164.102,116.103c-0.02-0.418-0.063-0.837-0.058-1.254
		c0.04-2.583-0.956-4.748-2.939-6.32c-0.893-0.708-2.133-1.306-3.233-1.338c-1.299-0.038-2.667,0.467-3.916,0.96
		c-1.876,0.741-3.452,2.004-4.812,3.479c-2.636,2.857-4.783,6.066-6.76,9.413c-2.872,4.863-4.651,10.073-5.201,15.679
		c-0.22,2.239-0.227,4.493,1.44,6.357c1.408,1.573,3.202,2.304,5.209,1.999c2.724-0.415,5.174-1.539,7.154-3.575
		c4.228-4.348,8.034-8.968,10.348-14.68C162.736,123.362,164.289,119.967,164.102,116.103z"/>
	<path fill-rule="evenodd" clip-rule="evenodd" fill="#ffd624" class="fill" d="M53.192,70.223c1.121,0.743,2.311,1.53,3.443,2.281
		c-0.936,1.422-1.911,2.597-2.547,3.933c-1.342,2.827-1.721,5.696,0.375,8.416c0.911,1.183,1.801,2.381,2.728,3.606
		c-1.344,0.542-1.988,1.937-2.768,3.422c-0.687-0.633-1.318-1.153-1.876-1.742c-1.439-1.526-2.904-3.07-3.463-5.158
		c-0.293-1.094-0.468-2.27-0.422-3.396c0.157-3.842,1.29-7.391,3.518-10.558c0.119-0.169,0.269-0.322,0.426-0.457
		C52.722,70.471,52.872,70.411,53.192,70.223z"/>
	<path fill-rule="evenodd" clip-rule="evenodd" fill="#ffd624" class="fill" d="M96.161,114.541c-2.037,0.189-4.021-0.076-5.793-1.198
		c-4.64-2.938-9.299-5.85-13.844-8.932c-3.144-2.131-6.108-4.527-9.14-6.795c0.394-0.858,0.756-1.647,1.174-2.562
		c0.269,0.108,0.62,0.178,0.887,0.367c3.163,2.241,6.323,4.485,9.465,6.756c3.444,2.489,6.825,5.067,10.317,7.486
		c1.89,1.309,3.959,2.359,5.937,3.546c0.427,0.256,0.806,0.594,1.207,0.894C96.301,114.249,96.231,114.395,96.161,114.541z"/>
	<path fill-rule="evenodd" clip-rule="evenodd" fill="#ffd624" class="fill" d="M62.964,98.363c-2.577,0.276-5.168-1.299-6.392-3.616
		c0.371-1.394,0.988-2.692,2.267-3.803c0.425,0.086,0.956,0.104,1.408,0.304c1.483,0.655,2.968,1.321,4.393,2.09
		c1.042,0.562,1.124,1.102,0.525,2.18c-0.535-0.415-1.042-0.848-1.59-1.223c-0.986-0.672-1.731-0.625-2.376,0.1
		c-0.648,0.73-0.602,1.746,0.167,2.551C61.773,97.372,62.249,97.734,62.964,98.363z"/>
	<path fill-rule="evenodd" clip-rule="evenodd" fill="#ffd624" class="fill" d="M35.114,58.395c-0.214-0.018-0.274-0.005-0.312-0.03
		c-2.397-1.478-2.709-2.419-1.383-4.887c0.784-1.459,1.379-3.085,2.833-4.078c1.392-0.333,2.469,0.057,3.412,1.323
		C36.422,52.313,35.54,55.205,35.114,58.395z"/>
	<path fill-rule="evenodd" clip-rule="evenodd" fill="#ffd624" class="fill" d="M60.66,64.991c3.969,0.336,7.237,2.023,10.728,3.743
		c-0.348,0.752-0.678,1.468-1.082,2.339c-1.025-0.376-1.974-0.563-2.743-1.039c-2.268-1.399-4.466-2.913-6.684-4.39
		C60.812,65.602,60.812,65.461,60.66,64.991z"/>
	<path fill-rule="evenodd" clip-rule="evenodd" fill="#ffd624" class="fill" d="M77.322,88.804c-0.305,0.538-0.496,0.875-0.699,1.234
		c-1.194-0.882-2.307-1.704-3.497-2.583c0.085-0.306,0.172-0.62,0.336-1.216C74.839,87.154,76.051,87.958,77.322,88.804z"/>
	<path fill-rule="evenodd" clip-rule="evenodd" fill="#ffd624" class="fill" d="M73.844,114.373c-0.288,0.383-0.481,0.641-0.691,0.922
		c-1.282-0.555-2.444-1.122-3.166-2.27c-0.11-0.175,0.063-0.527,0.141-1.021C71.446,112.845,72.594,113.577,73.844,114.373z"/>
	<path fill-rule="evenodd" clip-rule="evenodd" fill="#ffd624" class="fill" d="M80.725,97.49c-1.271-0.868-2.211-1.512-3.223-2.203
		c0.145-0.383,0.26-0.689,0.472-1.249c1.041,0.77,1.97,1.409,2.823,2.136C80.945,96.299,80.775,96.798,80.725,97.49z"/>
	<path fill-rule="evenodd" clip-rule="evenodd" fill="#ffd624" class="fill" d="M78.401,93.081c0.201-0.371,0.319-0.588,0.513-0.947
		c1.091,0.716,2.104,1.382,3.199,2.102c-0.242,0.37-0.42,0.644-0.691,1.059C80.392,94.54,79.45,93.849,78.401,93.081z"/>
	<path fill-rule="evenodd" clip-rule="evenodd" fill="#ffd624" class="fill" d="M71.385,91.213c0.148-0.216,0.234-0.341,0.316-0.461
		c1.919,0.508,3.206,1.608,3.227,2.996C73.569,93.001,72.423,92.204,71.385,91.213z"/>
	<path fill-rule="evenodd" clip-rule="evenodd" fill="#ffd624" class="fill" d="M75.709,91.82c-1.17-0.768-2.245-1.474-3.387-2.225
		c0.031-0.265,0.064-0.547,0.109-0.925c1.541,0.258,2.434,1.452,3.781,2.075C76.04,91.114,75.884,91.446,75.709,91.82z"/>
	<path fill-rule="evenodd" clip-rule="evenodd" fill="#ffd624" class="fill" d="M79.828,90.124c1.159,0.729,2.161,1.359,3.226,2.029
		c-0.164,0.44-0.277,0.746-0.444,1.195c-1.174-0.803-2.229-1.527-3.355-2.298C79.458,90.721,79.586,90.513,79.828,90.124z"/>
	<path fill-rule="evenodd" clip-rule="evenodd" fill="#ffd624" class="fill" d="M79.241,74.474c0.608,0.343,1.205,0.708,1.826,1.023
		c0.601,0.304,1.229,0.557,1.885,0.852c0,0.15,0.048,0.321-0.011,0.441c-0.108,0.221-0.279,0.412-0.533,0.77
		c-1.124-1.021-2.711-1.287-3.5-2.612C79.02,74.791,79.13,74.632,79.241,74.474z"/>
	<path fill-rule="evenodd" clip-rule="evenodd" fill="#ffd624" class="fill" d="M63.029,107.049c-0.189,0.323-0.336,0.577-0.528,0.906
		c-1.133-0.798-2.438-1.243-3.134-2.553C60.36,105.24,61.882,105.925,63.029,107.049z"/>
	<path fill-rule="evenodd" clip-rule="evenodd" fill="#ffd624" class="fill" d="M82.105,78.167c-0.201,0.396-0.309,0.609-0.394,0.777
		c-0.207,0.015-0.333,0.067-0.404,0.025c-2.514-1.463-2.716-1.639-3.054-2.757C79.682,76.631,80.769,77.438,82.105,78.167z"/>
	<path fill-rule="evenodd" clip-rule="evenodd" fill="#ffd624" class="fill" d="M74.458,84.816c1.352,0.823,2.549,1.699,3.618,2.768
		c-1.749-0.008-2.652-1.568-4.318-1.98C74.055,85.269,74.234,85.067,74.458,84.816z"/>
	<path fill-rule="evenodd" clip-rule="evenodd" fill="#ffd624" class="fill" d="M60.006,103.905c0.266-0.413,0.398-0.617,0.63-0.975
		c0.996,0.669,1.946,1.27,2.842,1.941c0.184,0.137,0.162,0.546,0.236,0.829c-0.095,0.061-0.19,0.123-0.285,0.185
		C62.345,105.256,61.259,104.629,60.006,103.905z"/>
	<path fill-rule="evenodd" clip-rule="evenodd" fill="#ffd624" class="fill" d="M87.807,82.33c-0.196,0.235-0.321,0.387-0.588,0.706
		c-0.935-0.662-1.855-1.288-2.737-1.964c-0.132-0.1-0.086-0.433-0.181-1.023C85.671,80.869,86.975,81.164,87.807,82.33z"/>
	<path fill-rule="evenodd" clip-rule="evenodd" fill="#ffd624" class="fill" d="M68.772,90.133c-0.269,0.418-0.376,0.584-0.465,0.722
		c-0.151,0.012-0.272,0.06-0.338,0.019c-2.314-1.41-2.313-1.411-2.434-2.494C66.9,88.461,67.64,89.507,68.772,90.133z"/>
	<path fill-rule="evenodd" clip-rule="evenodd" fill="#ffd624" class="fill" d="M69.132,81.197c1.036,0.714,1.989,1.371,3.151,2.17
		c-0.462,0.174-0.683,0.344-0.801,0.289c-0.979-0.449-2.056-0.758-2.795-1.763C68.814,81.691,68.94,81.496,69.132,81.197z"/>
	<path fill-rule="evenodd" clip-rule="evenodd" fill="#ffd624" class="fill" d="M65.13,106.367c1.372,0.504,2.474,1.388,3.824,2.464
		C67.466,108.778,65.508,107.52,65.13,106.367z"/>
	<path fill-rule="evenodd" clip-rule="evenodd" fill="#ffd624" class="fill" d="M70.272,86.528c-0.051,0.167-0.108,0.355-0.198,0.65
		c-1.284-0.319-2.207-1.041-3.056-2.005C68.014,84.886,68.719,85.193,70.272,86.528z"/>
	<path fill-rule="evenodd" clip-rule="evenodd" fill="#ffd624" class="fill" d="M71.246,84.731c-0.184,0.365-0.273,0.542-0.373,0.741
		c-0.178-0.021-0.359,0.012-0.456-0.063c-0.871-0.664-2.092-0.952-2.569-2.04c0.089-0.123,0.178-0.246,0.267-0.369
		C69.111,83.55,70.108,84.101,71.246,84.731z"/>
	<path fill-rule="evenodd" clip-rule="evenodd" fill="#ffd624" class="fill" d="M74.38,113.001c-1.607-0.001-2.607-1.042-3.565-2.162
		C72.271,111.077,73.36,111.964,74.38,113.001z"/>
	<path fill-rule="evenodd" clip-rule="evenodd" fill="#ffd624" class="fill" d="M88.708,80.784c-1.288,0.167-2.942-0.787-3.71-2.006
		C85.747,78.756,87.255,79.552,88.708,80.784z"/>
	<path fill-rule="evenodd" clip-rule="evenodd" fill="#ffd624" class="fill" d="M89.721,71.18c1.308,0.207,2.507,0.653,3.812,1.748
		C91.655,73.135,90.777,71.946,89.721,71.18z"/>
	<path fill-rule="evenodd" clip-rule="evenodd" fill="#ffd624" class="fill" d="M67.765,110.249c-1.33-0.358-2.461-1.082-3.481-1.994
		C65.675,108.429,66.615,108.944,67.765,110.249z"/>
	<path fill-rule="evenodd" clip-rule="evenodd" fill="#ffd624" class="fill" d="M66.299,86.45c1.378,0.486,2.372,1.027,3.068,2.125
		C68.129,88.667,66.833,87.829,66.299,86.45z"/>
	<path fill-rule="evenodd" clip-rule="evenodd" fill="#ffd624" class="fill" d="M76.963,96.688c1.388,0.194,2.425,0.981,2.886,2.052
		C78.539,98.396,77.648,97.677,76.963,96.688z"/>
	<path fill-rule="evenodd" clip-rule="evenodd" fill="#ffd624" class="fill" d="M78.03,64.316c-1.042-0.383-2.083-0.766-3.286-1.208
		c1.198-0.536,1.813-0.35,3.384,0.865C78.096,64.086,78.063,64.202,78.03,64.316z"/>
	<path fill-rule="evenodd" clip-rule="evenodd" fill="#ffd624" class="fill" d="M76.167,72.848c-0.013,0.264,0.001,0.422-0.034,0.567
		c-0.023,0.088-0.125,0.157-0.192,0.234c-1.124-0.301-1.709-0.742-2.705-2.118c0.396,0.163,0.618,0.246,0.834,0.346
		C74.776,72.2,75.479,72.53,76.167,72.848z"/>
	<path fill-rule="evenodd" clip-rule="evenodd" fill="#ffd624" class="fill" d="M63.887,109.56c1.367,0.257,2.191,1.18,3.445,1.806
		C65.82,111.66,64.934,111.161,63.887,109.56z"/>
	<path fill-rule="evenodd" clip-rule="evenodd" fill="#ffd624" class="fill" d="M71.114,92.763c1.219,0.465,2.504,0.835,3.091,2.161
		C72.893,94.611,71.974,93.72,71.114,92.763z"/>
	<path fill-rule="evenodd" clip-rule="evenodd" fill="#ffd624" class="fill" d="M75.099,74.938c-1.13-0.731-2.26-1.463-3.389-2.193
		C72.709,72.593,74.269,73.607,75.099,74.938z"/>
	<path fill-rule="evenodd" clip-rule="evenodd" fill="#ffd624" class="fill" d="M83.308,91.311c-0.944-0.662-1.889-1.325-2.94-2.061
		c1.078-0.031,2.26,0.667,3.163,1.768C83.458,91.115,83.383,91.213,83.308,91.311z"/>
	<path fill-rule="evenodd" clip-rule="evenodd" fill="#ffd624" class="fill" d="M61.438,101.707c1.054,0.658,2.107,1.317,3.16,1.976
		c-0.069,0.113-0.139,0.226-0.208,0.34c-1.348-0.169-1.977-1.546-3.218-1.896C61.261,101.986,61.349,101.846,61.438,101.707z"/>
	<path fill-rule="evenodd" clip-rule="evenodd" fill="#ffd624" class="fill" d="M73.142,110.757c-0.487-0.348-0.974-0.697-1.461-1.044
		c0.078-0.112,0.156-0.224,0.234-0.335c0.496,0.333,0.991,0.665,1.488,0.998C73.315,110.503,73.228,110.63,73.142,110.757z"/>
	<path fill-rule="evenodd" clip-rule="evenodd" fill="#ffd624" class="fill" d="M84.447,68.393c-0.468-0.167-0.936-0.334-1.403-0.501
		c0.031-0.092,0.062-0.184,0.093-0.276c0.46,0.15,0.92,0.3,1.38,0.45C84.494,68.175,84.471,68.283,84.447,68.393z"/>
	<path fill-rule="evenodd" clip-rule="evenodd" fill="#ffd624" class="fill" d="M138.967,135.616c0.049-0.019,0.099-0.054,0.148-0.053
		c4.246,0.068,6.884-2.565,9.352-5.522c1.718-2.06,3.353-4.174,4.418-6.654c1.428-3.319,1.7-6.683,0.164-10.058
		c-0.235-0.517-0.536-1.003-0.842-1.566c1.169-1.387,2.798-1.949,4.429-2.495c0.237-0.079,0.541-0.092,0.777-0.018
		c1.976,0.62,4.476,1.939,4.889,4.568c0.456,2.906,0.263,5.778-0.702,8.531c-2.498,7.13-6.675,13.144-12.411,18.064
		c-1.516,1.3-3.101,2.459-5.096,3.011c-2.343,0.647-4.174-0.094-5.168-2.299C138.364,139.88,138.387,136.981,138.967,135.616z
		 M157.641,114.77c0.101,0.833,0.253,1.688,0.3,2.55c0.261,4.828-1.105,9.248-3.76,13.203c-1.268,1.891-3.015,3.461-4.558,5.166
		c-0.399,0.441-0.954,0.788-0.768,1.691c1.626-0.362,2.869-1.189,4.011-2.174c2.56-2.208,4.127-5.096,5.502-8.117
		c1.285-2.824,1.87-5.778,1.623-8.864c-0.073-0.916-0.372-1.837-0.708-2.7C159.057,114.945,158.587,114.453,157.641,114.77z"/>
</g>
</svg>
