<svg version="1.1" id="svg" xmlns="http://www.w3.org/2000/svg" xmlns:xlink="http://www.w3.org/1999/xlink" x="0px" y="0px"
	 width="200px" height="200px" viewBox="0 0 200 200" enable-background="new 0 0 200 200" xml:space="preserve">
<path class="stroke" fill="#2d4809"  fill-rule="evenodd" clip-rule="evenodd" d="M89.211,122.021c-0.812-0.669-1.634-1.249-2.339-1.947
	c-2.359-2.338-4.715-4.681-7.001-7.09c-3.348-3.528-6.609-7.138-9.954-10.669c-1.686-1.781-3.41-3.56-5.672-4.627
	c-2.515-1.186-5.207-1.708-7.961-1.48c-1.379,0.114-2.714,0.723-4.078,1.069c-2.939,0.747-5.457-0.271-7.772-1.971
	c-0.379-0.277-0.669-0.747-0.866-1.188c-1.474-3.311-1.536-6.712-0.451-10.127c1.294-4.071,3.684-7.484,7.118-9.938
	c4.127-2.948,8.74-3.947,13.705-2.113c2.819,1.042,4.431,3.08,4.418,6.073c-0.019,4.82,1.812,8.845,4.969,12.357
	c2.739,3.047,5.491,6.082,8.237,9.121c1.951,2.159,3.9,4.32,5.859,6.473c0.232,0.255,0.518,0.462,1.012,0.896
	c0.023-1.461,0.041-2.661,0.062-3.861c0.028-1.593,0.069-3.185,0.089-4.778c0.038-3.005-0.002-6.013,0.108-9.015
	c0.164-4.449,0.225-8.914,1.038-13.306c0.175-0.943,0.655-1.92,1.255-2.677c1.666-2.104,3.748-3.762,6.303-4.646
	c6.164-2.135,12.479-3.292,19.048-2.812c3.684,0.27,7.321,0.817,10.954,1.436c1.385,0.236,2.723-0.01,3.997-0.511
	c0.843-0.331,1.599-0.876,2.427-1.248c1.158-0.519,2.328-1.024,3.528-1.434c2.819-0.963,5.706-1.444,8.711-1.311
	c1.956,0.086,3.917,0.462,5.509,1.396c1.871,1.098,3.826,2.31,5.048,4.261c0.839,1.339,1.962,2.53,2.255,4.167
	c0.296,1.654,0.561,3.279,0.239,4.998c-0.573,3.06-1.319,6.045-2.84,8.783c-0.685,1.228-1.387,2.458-2.213,3.59
	c-2.306,3.162-4.729,6.206-7.807,8.711c-2.816,2.292-5.432,4.831-8.229,7.345c-0.039,1.578-0.114,3.208-0.115,4.84
	c-0.005,5.143-0.1,10.28-0.75,15.39c-0.189,1.487-0.379,2.982-0.703,4.444c-0.508,2.301-1.659,4.088-3.784,5.402
	c-3.259,2.014-6.761,3.325-10.386,4.42c-3.255,0.983-6.592,0.926-9.896,0.618c-5.277-0.492-10.434-1.613-15.326-3.74
	c-0.875-0.38-1.75-0.78-2.572-1.261c-1.637-0.957-2.792-2.393-3.339-4.173c-0.84-2.732-1.717-5.476-1.642-8.4
	C89.415,122.995,89.276,122.499,89.211,122.021z M153.968,73.415c-1.949-1.959-4.402-2.562-7.006-2.178
	c-3.198,0.473-5.845,2.251-8.191,4.375c-1.13,1.022-2.082,2.297-1.689,4.083c0.242,1.106,0.309,2.25,0.463,3.376
	c0.462,3.337,0.923,6.672,0.781,10.059c-0.03,0.738,0.07,1.48,0.124,2.465c0.83-0.596,1.442-0.98,1.994-1.438
	c2.693-2.24,5.277-4.579,7.63-7.2c2.582-2.875,4.365-6.135,5.642-9.728C154.136,76.043,154.222,74.832,153.968,73.415z"/>
<path fill-rule="evenodd" clip-rule="evenodd" fill="#e1fe85" class="fill" d="M93.5,130.672c2.177,0.505,4.338,0.593,6.516,0.379
	c0.146-0.014,0.275-0.2,0.669-0.502c-1.012-0.107-1.758-0.167-2.499-0.269c-1.669-0.23-3.345-0.437-4.864-1.252
	c-0.484-0.26-0.988-0.501-0.88-1.326c1.325,0.37,2.597,0.825,3.907,1.059c1.23,0.219,2.557,0.857,3.971-0.449
	c-3.006-0.502-5.805-0.991-8.346-2.376c-0.055-0.25-0.12-0.467-0.141-0.687c-0.011-0.124,0.055-0.253,0.131-0.561
	c0.446,0.174,0.837,0.344,1.24,0.479c1.641,0.549,3.287,1.073,5.054,0.973c0.604-0.035,1.173-0.116,1.456-0.965
	c-1.962-0.217-3.896-0.329-5.635-1.225c1-0.56,1.995-1.001,2.855-1.628c1.156-0.844,1.33-1.635,0.902-3
	c-0.188-0.6-0.395-1.192-0.598-1.804c0.635-0.095,1.17-0.175,1.706-0.254c0.021-0.113,0.042-0.226,0.063-0.338
	c-1.55-0.529-3.368-0.647-4.181-2.552c1.823,0.094,3.618,0.747,5.304-0.304c-3.299-0.193-6.229-1.175-8.672-3.399
	c0-0.478,0-0.878,0-1.441c2.774,1.213,5.557,2.111,8.524,1.128c0.02-0.111,0.038-0.222,0.056-0.333
	c-0.355-0.047-0.71-0.12-1.067-0.138c-2.967-0.151-5.748-0.849-8.245-2.772c0.033-0.658,0.07-1.365,0.11-2.164
	c2.812,0.942,5.31,2.59,8.317,2.09c0.077-0.195,0.147-0.315,0.168-0.443c0.021-0.127-0.006-0.262-0.021-0.538
	c-3.015-0.253-5.812-1.199-8.406-2.824c0-0.552,0-1.036,0-1.719c2.764,1.301,5.421,2.7,8.595,1.208
	c-0.98-0.538-1.932-0.517-2.847-0.6c-2.159-0.196-3.99-1.131-5.72-2.346c0-0.513,0-0.957,0-1.607
	c0.462,0.208,0.826,0.332,1.148,0.525c1.619,0.971,3.361,1.62,5.219,1.902c0.586,0.089,1.37,0.445,1.811-0.621
	c-0.986-0.589-2.037-0.969-3.135-1.184c-1.57-0.307-3.2-1.104-4.985-2.571c0-0.43,0-0.912,0-1.55c0.942,0.466,1.75,0.936,2.61,1.27
	c0.845,0.327,1.735,0.543,2.619,0.754c0.898,0.214,1.822,0.412,2.723-0.494c-1.315-0.35-2.515-0.567-3.633-0.993
	c-1.264-0.482-2.47-1.126-3.671-1.756c-0.589-0.308-0.782-0.851-0.461-1.654c1.165,0.481,2.329,0.929,3.465,1.441
	c1.445,0.652,2.923,0.904,4.479,0.531c0.117-0.028,0.215-0.133,0.568-0.365c-1.145-0.262-2.086-0.421-2.991-0.699
	c-0.956-0.293-1.891-0.664-2.808-1.065c-0.912-0.4-1.791-0.879-2.771-1.367c-0.033-0.441-0.062-0.85-0.109-1.49
	c0.896,0.378,1.542,0.707,2.223,0.924c1.471,0.47,2.945,0.958,4.45,1.288c0.786,0.173,1.711,0.26,2.329-0.607
	c-1.539-0.395-3.042-0.703-4.493-1.174c-1.465-0.476-2.877-1.114-4.353-1.698c0-0.563,0-1.036,0-1.547
	c1.464,0.558,2.855,1.095,4.253,1.619c1.401,0.526,2.823,0.681,4.266,0.164c0.126-0.045,0.246-0.121,0.353-0.204
	c0.062-0.048,0.093-0.138,0.23-0.354c-3.35-0.095-6.358-1.027-9.072-2.958c0.084-0.537,0.152-0.976,0.244-1.569
	c7.706,4.366,15.984,6.267,24.748,6.476c0.07,0.729,0.141,1.353,0.189,1.979c0.316,4.124,0.663,8.247,0.929,12.375
	c0.195,3.04,0.292,6.087,0.417,9.132c0.238,5.767,0.482,11.534,0.688,17.303c0.067,1.914,1.271,2.902,2.738,3.766
	c0.432-0.084,0.83-0.163,1.352-0.265c0.109-0.453,0.281-0.919,0.329-1.398c0.391-3.955,0.298-7.911,0.089-11.874
	c-0.135-2.546-0.047-5.103-0.137-7.651c-0.12-3.322-0.396-6.64-0.461-9.961c-0.08-4.142-0.014-8.286-0.004-12.429
	c0-0.361,0.045-0.723,0.08-1.245c1.281-0.308,2.581-0.619,3.979-0.956c0.07,0.452,0.136,0.796,0.175,1.143
	c0.467,4.12,0.604,8.256,0.654,12.397c0.033,2.542,0.055,5.084,0.095,7.626c0.038,2.452,0.196,4.906,0.122,7.354
	c-0.131,4.27-0.398,8.536-0.61,12.804c-0.027,0.546-0.079,1.091-0.109,1.636c-0.137,2.477-1.268,4.514-2.789,6.391
	c-1.233,1.522-2.902,1.921-4.744,1.982c-2.837,0.094-5.612-0.314-8.414-0.728c-4.166-0.615-8.164-1.8-12.151-3.053
	c-1.16-0.365-2.129-1.137-2.943-2.143c0.803,0.161,1.606,0.447,2.409,0.448c0.832,0.001,1.665-0.276,2.507-0.611
	C98.05,132.707,95.507,132.458,93.5,130.672z"/>
<path fill-rule="evenodd" clip-rule="evenodd" fill="#e1fe85" class="fill" d="M155.81,71.178c-1.646-0.764-3.042-1.396-4.422-2.058
	c-1.365-0.654-2.748-0.795-4.246-0.495c-2.948,0.592-5.636,1.683-8.041,3.528c-1.521,1.166-2.533,2.696-3.486,4.283
	c-0.65,1.087-1.184,2.246-1.751,3.382c-1.256,2.507-3.375,4.077-5.897,4.996c-5.261,1.917-10.725,2.252-16.278,1.793
	c-3.781-0.314-7.503-0.911-11.075-2.177c-2.18-0.773-4.381-1.61-6.371-2.766c-2.624-1.525-3.309-3.27-2.037-6.222
	c1.132-2.631,3.289-4.232,5.936-5.05c5.871-1.815,11.882-2.553,18.049-2.337c3.607,0.126,7.16,0.489,10.711,1.067
	c1.113,0.182,2.288,0.23,3.402,0.088c0.864-0.11,1.798-0.452,2.49-0.972c1.566-1.173,3.369-1.761,5.135-2.485
	c3.606-1.478,7.3-1.164,11.01-0.667c0.443,0.06,0.949,0.152,1.289,0.41c1.804,1.37,3.719,2.629,5.026,4.547
	C155.444,70.325,155.558,70.66,155.81,71.178z M119.401,70.089c-3.572-0.177-6.858,0.648-9.838,2.664
	c-1.067,0.723-1.803,1.699-2.231,2.855c-0.532,1.433-0.512,2.897,0.616,4.093c1.193,1.266,2.531,2.375,4.215,2.937
	c3.984,1.327,7.962,1.766,11.914-0.162c1.553-0.757,3.04-1.563,4.276-2.823c3-3.057,1.241-7.266-1.862-8.502
	C124.189,70.232,121.805,70.129,119.401,70.089z"/>
<path fill-rule="evenodd" clip-rule="evenodd" fill="#e1fe85" class="fill" d="M51.215,95.308c-3.87,0.076-5.378-1.02-6.472-3.796
	c-0.889-2.256-0.746-4.463,0.02-6.673c1.023-2.959,2.648-5.596,4.581-8.036c0.522-0.661,1.259-1.198,1.987-1.645
	c1.951-1.195,3.997-2.245,6.354-2.235c1.936,0.008,3.801,0.448,5.445,1.545c1.175,0.784,1.72,2.003,1.986,3.315
	c0.541,2.668,0.202,5.242-0.995,7.707c-1.494,3.075-3.8,5.4-6.544,7.374C55.397,94.433,52.946,95.094,51.215,95.308z M60.618,81.302
	c-0.781,1.237-0.781,1.237-0.527,2.229c1.224,0.643,1.874,0.542,2.559-0.397c0.487-0.669,0.376-1.044-0.621-1.948
	C61.6,81.221,61.114,81.261,60.618,81.302z M46.631,86.729c0.488-0.192,0.88-0.307,1.233-0.494c0.736-0.392,0.98-1.091,0.625-1.678
	c-0.351-0.578-1.129-0.744-1.801-0.38c-0.684,0.37-0.85,1.002-0.895,1.798C46.024,86.184,46.279,86.413,46.631,86.729z
	 M51.015,80.979c-0.768-0.006-1.469,0.628-1.461,1.318c0.009,0.667,0.656,1.234,1.378,1.207s1.327-0.632,1.297-1.297
	C52.198,81.545,51.643,80.983,51.015,80.979z M47.205,89.826c0.407,0.266,0.798,0.522,1.097,0.717
	c1.019-0.169,1.528-0.646,1.646-1.565c-0.106-0.215-0.206-0.468-0.352-0.69c-0.094-0.145-0.254-0.246-0.361-0.346
	C47.819,87.953,47.583,88.155,47.205,89.826z M55.441,82.501c-0.573,0.368-1.046,0.671-1.477,0.947
	c-0.04,0.985,0.204,1.626,1.166,1.737c1.344-0.559,1.344-0.559,1.545-1.703C56.347,83.221,55.971,82.922,55.441,82.501z
	 M51.065,93.519c1.824,0.124,1.982,0.024,2.229-1.452c-0.481-0.279-1.029-0.597-1.613-0.937c-0.488,0.422-0.847,0.732-1.256,1.086
	C50.673,92.723,50.866,93.115,51.065,93.519z M58.256,88.085c0.65-0.302,1.159-0.539,1.61-0.749c-0.01-1.423-0.09-1.519-1.38-1.807
	c-0.784,0.25-1.196,0.758-1.122,1.753C57.578,87.476,57.864,87.732,58.256,88.085z M55.686,89.897
	c0.165-0.363,0.374-0.822,0.56-1.231c-0.492-0.726-0.952-1.258-1.741-0.944c-0.69,0.274-1.034,0.838-0.878,1.621
	C54.096,90.086,54.757,90.167,55.686,89.897z M55.69,80.693c0.677,0.279,1.119,0.461,1.484,0.612
	c1.117-0.701,1.336-1.075,1.098-1.739c-0.247-0.688-0.652-0.815-1.987-0.527C56.131,79.469,55.943,79.991,55.69,80.693z
	 M62.639,77.925c-0.19-0.673-0.669-1.066-1.382-0.934c-0.812,0.15-1.142,0.787-1.225,1.541
	C61.097,79.674,61.968,79.472,62.639,77.925z M51.236,78.718c0.755,0.673,1.466,0.856,2.281,0.227
	c0.066-0.207,0.148-0.416,0.2-0.633c0.062-0.257,0.096-0.52,0.135-0.744C52.661,76.589,51.663,77.029,51.236,78.718z M55.568,76.744
	c1.354,0.926,2.075,0.678,2.526-0.836c-0.096-0.166-0.194-0.37-0.326-0.548c-0.105-0.14-0.254-0.247-0.356-0.343
	C55.959,75.197,55.688,75.448,55.568,76.744z M51.087,86.856c1.449,0.281,1.664,0.205,2.301-0.818
	c-0.326-0.86-0.924-1.262-1.862-1.101C50.885,85.509,50.648,86.116,51.087,86.856z"/>
<path fill-rule="evenodd" clip-rule="evenodd" fill="#e1fe85" class="fill" d="M67.52,85.463c0.292,0.361,0.508,0.542,0.613,0.771
	c1.304,2.862,3.42,5.125,5.457,7.446c1.35,1.539,2.668,3.11,4.088,4.582c3.212,3.333,6.243,6.831,9.565,10.072
	c3.051,2.976,5.88,6.211,8.136,9.597c0.238,1.005,0.426,1.793,0.622,2.617c-0.526,0.858-1.354,0.812-2.151,0.592
	c-1.03-0.283-1.892-0.888-2.59-1.704c-1.806-2.109-3.656-4.181-5.399-6.34c-2.231-2.765-4.441-5.557-7.083-7.937
	c-2.904-2.616-5.575-5.498-8.812-7.747c-1.189-0.826-2.245-1.855-3.3-2.858c-1.682-1.597-2.313-4.083-0.658-6.287
	C66.597,87.482,66.957,86.526,67.52,85.463z"/>
</svg>
