<svg version="1.1" id="svg" xmlns="http://www.w3.org/2000/svg" xmlns:xlink="http://www.w3.org/1999/xlink" x="0px" y="0px"
	 width="200px" height="200px" viewBox="0 0 200 200" enable-background="new 0 0 200 200" xml:space="preserve">
<path class="stroke" fill="#273f03"  fill-rule="evenodd" clip-rule="evenodd" d="M175.388,49.334c0.094,1.471,0.179,2.815,0.267,4.159
	c0.16,2.471,0.398,4.939,0.463,7.413c0.073,2.719-0.032,5.443-0.022,8.165c0.007,1.742,0.131,3.484,0.113,5.225
	c-0.024,2.231-0.13,4.461-0.215,6.691c-0.154,4.002-0.313,8.004-0.483,12.006c-0.159,3.757-0.334,7.513-0.504,11.27
	c-0.132,2.902-0.394,5.805-0.368,8.705c0.031,3.475,0.356,6.946,0.458,10.421c0.082,2.825,0.069,5.655,0.007,8.481
	c-0.052,2.401-0.213,4.801-0.382,7.197c-0.028,0.404-0.339,0.788-0.469,1.072c-12.452,0.163-24.625,0.322-36.923,0.483
	c-0.079,1.361-0.139,2.723-0.244,4.082c-0.116,1.51-0.182,3.032-0.437,4.521c-0.288,1.673-0.79,2.029-2.499,1.987
	c-2.387-0.06-4.771-0.214-7.157-0.274c-4.485-0.113-8.972-0.203-13.458-0.273c-3.633-0.057-7.266-0.084-10.899-0.097
	c-3.208-0.01-6.415,0.029-9.623,0.025c-2.681-0.002-5.361-0.077-8.041-0.035c-1.832,0.028-3.659,0.221-5.49,0.304
	c-2.618,0.119-5.237,0.228-7.856,0.297c-3.418,0.089-6.837,0.127-10.254,0.204c-1.126,0.025-1.738-0.667-1.714-1.819
	c0.015-0.696-0.261-1.396-0.27-2.096c-0.025-1.888,0.021-3.777,0.04-5.78c-1.609-0.016-3.31-0.043-5.011-0.044
	c-3.118-0.003-6.235-0.002-9.353,0.019c-4.458,0.029-8.916,0.067-13.373,0.123c-1.518,0.019-3.035,0.133-4.553,0.144
	c-1.065,0.008-1.581-0.684-1.56-1.778c0.054-2.802,0.062-5.605,0.087-8.298c-0.539-0.339-0.845-0.532-1.261-0.795
	c-0.101-0.727-0.285-1.537-0.311-2.35c-0.04-1.312,0.076-2.63,0.027-3.942c-0.037-0.992,0.286-1.653,1.399-1.958
	c0.539-16.57-0.374-33.121-0.664-49.679c-0.048-6.831-0.096-13.66-0.144-20.512c1.085-0.474,1.87-1.265,3.112-0.979
	c1.421,0.327,2.871,0.554,4.319,0.725c1.274,0.15,2.563,0.183,3.847,0.234c4.54,0.177,8.952,0.962,13.296,2.342
	c2.639,0.838,5.22,1.747,7.553,3.222c2.294,1.451,4.378,3.188,6.377,5.318c0.361-0.306,0.844-0.61,1.192-1.027
	c2.382-2.842,5.237-5.143,8.292-7.189c2.331-1.56,4.678-3.148,7.188-4.375c4.293-2.099,8.817-3.471,13.629-4.007
	c4.09-0.456,8.174-0.656,12.271-0.626c2.372,0.017,4.723,0.221,7.014,1.107c2.357,0.912,4.847,1.477,7.261,2.247
	c4.653,1.483,8.879,3.74,12.598,6.945c1.567,1.35,3.259,2.557,4.978,3.893c1.774-1.345,3.71-2.812,5.646-4.279
	c0.057,0.09,0.114,0.182,0.171,0.272c1.048-0.459,2.109-0.894,3.144-1.384c2.911-1.38,5.943-2.352,9.118-2.919
	c1.581-0.282,3.121-0.801,4.704-1.065c2.256-0.377,4.532-0.635,6.803-0.914c2.359-0.29,4.723-0.548,7.085-0.81
	C174.605,49.295,174.905,49.329,175.388,49.334z M104.381,135.063c3.269,0.664,19.265,0.594,21.705-0.217
	c0.567-10.501-0.48-21.03-0.416-31.784c-7.083-0.03-14.123,0.404-21.38,0.675c-0.014,1.511-0.015,2.937-0.044,4.361
	c-0.062,3.087-0.201,6.173-0.187,9.259c0.012,2.435,0.231,4.866,0.31,7.302c0.059,1.804,0.053,3.611,0.055,5.416
	C104.426,131.705,104.397,133.333,104.381,135.063z M73.546,135.269c0.989-0.083,1.741-0.031,2.423-0.225
	c2.676-0.762,5.404-0.476,8.106-0.417c2.067,0.044,4.126,0.441,6.196,0.594c1.365,0.1,2.741,0.042,4.206,0.055
	c0.424-10.836-0.533-21.486-0.778-32.169c-6.523,0.161-12.976,0.319-19.554,0.481C73.919,114.12,73.498,124.569,73.546,135.269z
	 M73.852,95.681c0.291,0.078,0.407,0.136,0.523,0.138c2.589,0.042,5.179,0.124,7.769,0.102c3.579-0.03,7.157-0.138,10.736-0.218
	c0.605-0.013,1.21-0.05,1.984-0.083c0.602-10.937-0.193-21.794-0.044-32.77c-9.396,0.758-16.264,5.359-21.861,12.495
	C73.258,82.126,73.556,88.92,73.852,95.681z M104.583,94.407c0.204,0.032,0.352,0.071,0.5,0.077
	c3.272,0.108,6.546,0.191,9.817,0.328c1.524,0.063,3.042,0.282,4.565,0.332c2.18,0.073,4.364,0.055,6.516,0.076
	c0.155-1.281,0.371-2.306,0.389-3.334c0.092-5.196,0.557-10.403-0.469-15.567c-0.303-1.521-0.784-2.919-1.946-4.06
	c-2.52-2.475-5.57-4.203-8.561-5.963c-2.821-1.659-5.962-2.68-9.173-3.387c-0.803-0.177-1.634-0.229-2.277-0.314
	C104.159,73.296,104.37,83.808,104.583,94.407z"/>
<path fill-rule="evenodd" clip-rule="evenodd" fill="#d1402e" class="fill" d="M156.89,91.886c0.291-0.432,0.56-0.882,0.878-1.292
	c0.578-0.745,1.18-1.47,1.781-2.198c1.263-1.532,2.542-3.053,3.798-4.591c1.779-2.177,3.543-4.365,5.315-6.55
	c1.574-0.062,3.117-0.122,4.784-0.188c0.036,0.898,0.066,1.642,0.083,2.061c-2.254,2.663-4.325,5.102-6.385,7.549
	c-0.984,1.169-1.969,2.338-2.917,3.536c-1.269,1.604-2.481,3.252-3.753,4.854c-2.469,3.107-4.96,6.196-7.448,9.289
	c-1.341,1.668-2.632,3.381-4.056,4.977c-1.686,1.887-3.464,3.693-5.25,5.488c-1.892,1.904-3.814,3.779-5.775,5.61
	c-0.834,0.779-1.731,1.549-2.73,2.073c-0.75,0.393-1.71,0.388-2.795,0.604c0.077-1.211,0.259-2.124,0.165-3.006
	c-0.192-1.803,0.797-2.976,1.912-4.141c2.283-2.384,4.541-4.794,6.834-7.169c0.595-0.617,1.285-1.142,1.889-1.673
	c4.513-5.129,9.001-10.232,13.491-15.334C156.771,91.817,156.83,91.851,156.89,91.886z"/>
<path fill-rule="evenodd" clip-rule="evenodd" fill="#d1402e" class="fill" d="M29.506,83.654c2.837-0.117,5.364-0.221,7.99-0.329
	c1.302,1.704,2.571,3.502,3.981,5.184c2.432,2.901,4.925,5.753,7.442,8.582c2.392,2.687,4.884,5.285,7.265,7.981
	c2.813,3.186,5.552,6.436,8.33,9.652c0.713,0.826,1.454,1.628,2.058,2.58c0.283,0.098,0.567,0.197,0.827,0.287
	c-0.016,1.562-0.03,3.091-0.046,4.76c-1.422-0.013-2.689-0.025-3.913-0.037C51.668,109.934,41.155,96.481,29.506,83.654z"/>
<path fill-rule="evenodd" clip-rule="evenodd" fill="#d1402e" class="fill" d="M173.918,68.023c-0.019,1.949-0.036,3.764-0.054,5.705
	c-0.997,0.152-1.951,0.392-2.912,0.427c-3.055,0.112-6.115,0.115-9.17,0.222c-3.938,0.138-7.873,0.372-11.811,0.497
	c-4.148,0.132-8.301,0.158-12.45,0.286c-1.394,0.042-2.783,0.261-4.304,0.411c0.017-1.786,0.033-3.563,0.052-5.519
	c1.228-0.12,2.349-0.23,3.47-0.34c0.002,0.042,0.004,0.083,0.007,0.124c1.496-0.258,2.984-0.579,4.489-0.762
	c1.993-0.24,3.996-0.478,5.999-0.527c2.839-0.073,5.683,0.067,8.525,0.039c2.012-0.021,4.023-0.177,6.034-0.257
	c3.662-0.145,7.324-0.283,10.985-0.411C173.135,67.905,173.495,67.981,173.918,68.023z"/>
<path fill-rule="evenodd" clip-rule="evenodd" fill="#d1402e" class="fill" d="M65.244,77.629c-3.842,0.315-7.447,0.713-11.062,0.883
	c-4.398,0.207-8.807,0.219-13.21,0.323c-3.174,0.075-6.35,0.124-9.521,0.262c-1.207,0.052-2.405,0.319-3.752,0.507
	c0.019-1.973,0.037-3.898,0.056-5.862c3.724-0.273,7.462-0.823,11.275-0.437c2.142,0.217,4.332-0.016,6.498-0.099
	c4.23-0.162,8.458-0.404,12.69-0.526c2.409-0.07,4.824,0.029,7.34,0.053C65.451,74.403,65.35,75.983,65.244,77.629z"/>
<path fill-rule="evenodd" clip-rule="evenodd" fill="#d1402e" class="fill" d="M66.633,123.765c0.358,1.623,0.621,3.174-0.324,4.828
	c-1.785,0.176-3.66,0.435-5.543,0.528c-2.774,0.136-5.555,0.181-8.332,0.216c-3.586,0.046-7.174,0.023-10.76,0.071
	c-3.999,0.052-7.997,0.162-11.995,0.214c-0.904,0.012-1.81-0.114-2.869-0.187c0.114-1.767,0.221-3.42,0.336-5.21
	c1.716,0.016,3.324,0.045,4.934,0.044c4.867-0.003,9.736,0.049,14.602-0.047c4.398-0.087,8.791-0.376,13.188-0.506
	C62.091,123.65,64.318,123.743,66.633,123.765z"/>
<path fill-rule="evenodd" clip-rule="evenodd" fill="#d1402e" class="fill" d="M131.746,129.67c-0.122-1.627-0.23-3.078-0.357-4.753
	c0.68-0.174,1.323-0.447,1.98-0.491c4.665-0.309,9.328-0.671,13.998-0.817c4.154-0.129,8.316,0.006,12.474,0.007
	c3.691,0,7.382-0.024,11.072-0.036c0.301-0.001,0.603,0.005,1.058,0.009c-0.015,1.552-0.029,3.042-0.045,4.695
	C158.594,128.745,145.219,129.205,131.746,129.67z"/>
<path fill-rule="evenodd" clip-rule="evenodd" fill="#d1402e" class="fill" d="M33.247,92.035c2.105,2.023,4.146,3.985,6.145,5.904
	c-0.079,8.36-0.157,16.606-0.237,24.996c-1.789-0.018-3.529-0.033-5.406-0.051c-0.106-2.093-0.279-4.154-0.302-6.217
	c-0.043-3.753,0.005-7.508,0.012-11.261c0.005-2.414,0.036-4.828,0-7.24C33.428,96.108,33.319,94.051,33.247,92.035z"/>
<path fill-rule="evenodd" clip-rule="evenodd" fill="#d1402e" class="fill" d="M32.194,122.991c-1.472-0.014-2.764-0.026-4.092-0.039
	c0.035-3.729,0.132-7.345,0.084-10.959c-0.04-3.046-0.253-6.09-0.375-9.136c-0.054-1.338-0.066-2.679-0.104-4.018
	c-0.11-4.001-0.224-8.001-0.335-12.002c-0.008-0.325,0.005-0.649,0.01-1.168c0.36,0.282,0.577,0.425,0.761,0.601
	c0.883,0.846,1.745,1.712,2.634,2.549c0.92,0.866,1.318,1.845,1.213,3.167c-0.118,1.476,0.077,2.975,0.115,4.464
	c0.046,1.766,0.051,3.531,0.104,5.296c0.057,1.867,0.173,3.73,0.213,5.597c0.022,1.024-0.047,2.051-0.089,3.077
	c-0.104,2.549-0.254,5.098-0.307,7.648c-0.027,1.308,0.117,2.619,0.177,3.93C32.215,122.292,32.199,122.585,32.194,122.991z"/>
<path fill-rule="evenodd" clip-rule="evenodd" fill="#d1402e" class="fill" d="M62.126,82.371c1.607,0.214,3.012,0.402,4.693,0.625
	c0.262,10.791,0.524,21.582,0.785,32.373c-0.079,0.045-0.159,0.089-0.239,0.133c-0.546-0.53-1.13-1.025-1.627-1.597
	c-1.022-1.177-2.012-2.385-2.98-3.606c-0.188-0.239-0.307-0.601-0.311-0.909c-0.056-4.003-0.067-8.007-0.127-12.01
	c-0.054-3.606-0.165-7.211-0.227-10.816C62.068,85.208,62.112,83.854,62.126,82.371z"/>
<path fill-rule="evenodd" clip-rule="evenodd" fill="#d1402e" class="fill" d="M137.309,111.352c-0.124-10.401-0.242-20.412-0.363-30.528
	c0.943-0.151,1.713-0.279,2.484-0.396c0.781-0.119,1.563-0.228,2.382-0.347c0.252,8.659,0.501,17.252,0.749,25.764
	C140.792,107.7,139.125,109.447,137.309,111.352z"/>
<path fill-rule="evenodd" clip-rule="evenodd" fill="#d1402e" class="fill" d="M54.997,101.863c-0.144-6.619-0.284-13.164-0.427-19.766
	c2.171,0.02,4.104,0.039,6.253,0.059c0.121,8.66,0.24,17.21,0.359,25.761c-0.137,0.043-0.274,0.086-0.412,0.129
	C58.87,106.01,56.969,103.975,54.997,101.863z"/>
<path fill-rule="evenodd" clip-rule="evenodd" fill="#d1402e" class="fill" d="M169.182,89.107c-0.004,0.453,0.007,0.905-0.015,1.357
	c-0.14,2.84-0.379,5.679-0.41,8.52c-0.042,3.758,0.106,7.518,0.113,11.278c0.003,1.617-0.16,3.233-0.216,4.851
	c-0.064,1.833-0.085,3.667-0.14,5.5c-0.017,0.543-0.084,1.085-0.14,1.755c-1.339-0.013-2.6-0.024-4.149-0.039
	c0.016-1.72,0.028-3.481,0.052-5.242c0.016-1.313,0.039-2.626,0.073-3.939c0.093-3.668,0.177-7.336,0.298-11.004
	c0.071-2.136,0.284-4.269,0.288-6.404c0.003-1.62,0.656-2.875,1.674-4.037c0.795-0.906,1.552-1.846,2.326-2.771
	C169.017,88.992,169.099,89.049,169.182,89.107z"/>
<path fill-rule="evenodd" clip-rule="evenodd" fill="#d1402e" class="fill" d="M40.764,99.59c0.331,0.309,0.596,0.513,0.809,0.762
	c1.583,1.852,3.187,3.69,4.712,5.59c0.345,0.43,0.574,1.091,0.569,1.642c-0.034,3.401-0.153,6.802-0.236,10.204
	c-0.038,1.545-0.053,3.091-0.086,4.637c-0.003,0.114-0.074,0.227-0.18,0.536c-1.836-0.018-3.719-0.035-5.85-0.056
	C40.462,115.195,40.07,107.478,40.764,99.59z"/>
<path fill-rule="evenodd" clip-rule="evenodd" fill="#d1402e" class="fill" d="M163.093,122.41c-1.77-0.132-3.487-0.259-5.306-0.393
	c0.011-1.172-0.012-2.287,0.038-3.399c0.226-4.98,0.609-9.958,0.641-14.938c0.012-1.841,0.769-3.022,1.848-4.246
	c1.144-1.297,2.232-2.642,3.429-4.065C163.525,104.432,163.311,113.323,163.093,122.41z"/>
<path fill-rule="evenodd" clip-rule="evenodd" fill="#d1402e" class="fill" d="M143.531,104.75c0.227-8.394-0.938-16.596-0.46-24.958
	c1.916-0.228,3.716-0.442,5.606-0.667c0.033,0.446,0.075,0.712,0.07,0.977c-0.063,3.943-0.155,7.886-0.191,11.83
	c-0.021,2.163,0.062,4.325,0.064,6.487c0,0.344-0.089,0.766-0.299,1.019c-1.404,1.696-2.85,3.356-4.288,5.024
	C143.966,104.54,143.844,104.574,143.531,104.75z"/>
<path fill-rule="evenodd" clip-rule="evenodd" fill="#d1402e" class="fill" d="M40.134,71.897c-0.131-5.916-0.261-11.787-0.397-17.896
	c2.192,0.412,4.086,0.768,6.234,1.172c0.303,5.558,0.605,11.103,0.916,16.786C44.641,71.939,42.526,71.92,40.134,71.897z"/>
<path fill-rule="evenodd" clip-rule="evenodd" fill="#d1402e" class="fill" d="M32.976,71.964c-0.199-6.041-0.401-12.126-0.604-18.236
	c1.949,0.019,3.965,0.038,6.016,0.057c0.215,6.158,0.425,12.124,0.638,18.237C36.964,72.002,35.051,71.984,32.976,71.964z"/>
<path fill-rule="evenodd" clip-rule="evenodd" fill="#d1402e" class="fill" d="M173.514,84.189c-0.015,1.541,0.004,2.925-0.048,4.309
	c-0.093,2.471-0.231,4.941-0.348,7.413c-0.196,4.123-0.374,8.245-0.59,12.366c-0.124,2.382-0.379,4.76-0.443,7.144
	c-0.051,1.907,0.095,3.819,0.155,5.73c0.01,0.297,0.031,0.594,0.051,0.973c-0.904,0.053-1.739,0.101-2.672,0.154
	c-0.049-1.32-0.167-2.532-0.128-3.74c0.152-4.671,0.363-9.333,0.28-14.019c-0.094-5.287,0.275-10.584,0.506-15.873
	c0.026-0.584,0.361-1.232,0.734-1.708C171.743,86.005,172.604,85.172,173.514,84.189z"/>
<path fill-rule="evenodd" clip-rule="evenodd" fill="#d1402e" class="fill" d="M132.765,115.821c0.389-11.482-0.599-22.808,0.689-34.167
	c0.777-0.253,1.566-0.512,2.615-0.853c-0.017,1.84-0.047,3.474-0.045,5.106c0.003,2.993,0.031,5.986,0.038,8.979
	c0.013,5.224-0.108,10.453,0.088,15.671c0.082,2.162-0.993,3.32-2.439,4.459C133.448,115.222,133.201,115.449,132.765,115.821z"/>
<path fill-rule="evenodd" clip-rule="evenodd" fill="#d1402e" class="fill" d="M149.774,97.41c-0.116-6.061-0.212-12.121,0.108-18.323
	c2.209-0.082,4.273-0.158,6.52-0.241c-0.008,0.847-0.03,1.596-0.02,2.345c0.035,2.442,0.033,4.886,0.142,7.326
	c0.06,1.341-0.473,2.297-1.363,3.239c-1.612,1.707-3.114,3.518-4.666,5.281c-0.135,0.153-0.298,0.28-0.448,0.42
	C149.957,97.441,149.866,97.426,149.774,97.41z"/>
<path fill-rule="evenodd" clip-rule="evenodd" fill="#d1402e" class="fill" d="M157.427,103.356c-0.251,6.228-0.503,12.457-0.757,18.747
	c-2.189-0.021-4.156-0.039-6.089-0.058c-0.557-1.299-0.365-6.965,0.322-10.969c2.111-2.676,4.161-5.275,6.212-7.874
	C157.221,103.253,157.324,103.305,157.427,103.356z"/>
<path fill-rule="evenodd" clip-rule="evenodd" fill="#d1402e" class="fill" d="M53.352,82.001c0.144,6.147,0.284,12.123,0.43,18.379
	c-2.127-2.243-4.06-4.282-6.067-6.399c0.037-3.949,0.075-7.956,0.113-12.032C49.766,81.967,51.489,81.983,53.352,82.001z"/>
<path fill-rule="evenodd" clip-rule="evenodd" fill="#d1402e" class="fill" d="M162.786,67.209c-1.779-0.016-3.538-0.033-5.332-0.05
	c-0.779-4.785-0.706-9.563-0.025-14.515c1.756-0.292,3.532-0.589,5.504-0.917C162.884,56.878,162.836,61.949,162.786,67.209z"/>
<path fill-rule="evenodd" clip-rule="evenodd" fill="#d1402e" class="fill" d="M27.017,52.746c1.369,0.176,2.476,0.319,3.81,0.49
	c0.235,6.364,0.468,12.655,0.703,19.026c-1.573,0.158-2.919,0.292-4.367,0.438C27.52,65.992,26.5,59.444,27.017,52.746z"/>
<path fill-rule="evenodd" clip-rule="evenodd" fill="#d1402e" class="fill" d="M48.125,71.905c-0.267-5.387-0.527-10.666-0.793-16.031
	c0.293,0.003,0.567-0.052,0.806,0.017c1.262,0.37,2.512,0.777,3.77,1.157c0.741,0.224,1.098,0.681,1.087,1.479
	c-0.041,2.838-0.05,5.675-0.073,8.514c-0.013,1.462-0.027,2.925-0.043,4.603C51.354,71.727,49.861,71.81,48.125,71.905z"/>
<path fill-rule="evenodd" clip-rule="evenodd" fill="#d1402e" class="fill" d="M150.489,54.462c1.858-0.453,3.591-0.877,5.327-1.292
	c0.137-0.032,0.292,0.015,0.298,0.015c-0.045,4.698-0.089,9.345-0.134,14.132c-1.749-0.017-3.592-0.035-5.613-0.054
	C150.407,63.096,150.447,58.836,150.489,54.462z"/>
<path fill-rule="evenodd" clip-rule="evenodd" fill="#d1402e" class="fill" d="M168.93,67.154c-1.607-0.016-3.141-0.03-4.851-0.046
	c-0.069-5.104-0.138-10.162-0.21-15.351c1.623-0.146,3.097-0.28,4.671-0.423C168.672,56.624,168.799,61.809,168.93,67.154z"/>
<path fill-rule="evenodd" clip-rule="evenodd" fill="#d1402e" class="fill" d="M54.027,122.644c-2.012,0.076-3.982,0.151-6.095,0.23
	c0.044-4.728,0.089-9.424,0.133-14.119c0.078-0.03,0.156-0.061,0.234-0.09c0.42,0.5,0.833,1.007,1.261,1.501
	c1.139,1.316,2.235,2.675,3.443,3.926c0.925,0.958,1.477,2.049,1.436,3.338C54.387,119.156,54.175,120.877,54.027,122.644z"/>
<path fill-rule="evenodd" clip-rule="evenodd" fill="#d1402e" class="fill" d="M60.094,71.405c-1.882-0.018-3.703-0.035-5.666-0.054
	c-0.531-4.293-0.055-8.558-0.128-12.821c0.13-0.073,0.26-0.146,0.39-0.219c1.851,1.413,3.703,2.826,5.488,4.189
	C60.15,65.542,60.123,68.449,60.094,71.405z"/>
<path fill-rule="evenodd" clip-rule="evenodd" fill="#d1402e" class="fill" d="M174.134,66.618c-1.327,0.149-2.555,0.287-4.049,0.454
	c-0.18-5.304-0.354-10.454-0.533-15.74c1.513-0.185,2.825-0.345,4.064-0.496C173.791,56.141,173.959,61.295,174.134,66.618z"/>
<path fill-rule="evenodd" clip-rule="evenodd" fill="#d1402e" class="fill" d="M149.282,55.008c-0.04,4.213-0.078,8.196-0.116,12.199
	c-1.919,0.117-3.751,0.228-5.854,0.356c0.022-2.299,0.217-4.59,0.013-6.846c-0.18-2,0.612-3.163,2.281-3.959
	C146.776,56.201,147.945,55.645,149.282,55.008z"/>
<path fill-rule="evenodd" clip-rule="evenodd" fill="#d1402e" class="fill" d="M40.441,84.996c0.08-1.228,0.141-2.162,0.208-3.18
	c1.986,0.019,3.944,0.038,5.948,0.056c-0.033,3.523-0.065,6.927-0.098,10.332c-0.119,0.05-0.238,0.1-0.356,0.151
	C44.191,89.834,42.238,87.314,40.441,84.996z"/>
<path fill-rule="evenodd" clip-rule="evenodd" fill="#d1402e" class="fill" d="M40.738,139.115c0.02-2.112,0.042-4.343,0.063-6.711
	c2.034,0.019,3.937,0.037,5.976,0.057c-0.021,2.133-0.041,4.318-0.064,6.712C44.67,139.152,42.805,139.134,40.738,139.115z"/>
<path fill-rule="evenodd" clip-rule="evenodd" fill="#d1402e" class="fill" d="M54.386,132.47c-0.02,2.105-0.039,4.103-0.059,6.262
	c-2.022,0.084-4.038,0.168-6.172,0.258c0.021-2.222,0.042-4.368,0.062-6.578C50.25,132.431,52.214,132.449,54.386,132.47z"/>
<path fill-rule="evenodd" clip-rule="evenodd" fill="#d1402e" class="fill" d="M157.561,88.235c0.029-3.098,0.059-6.195,0.089-9.367
	c1.756,0.017,3.594,0.034,5.564,0.053c-0.011,1.171-0.021,2.216-0.031,3.215c-1.761,2.13-3.48,4.208-5.2,6.288
	C157.843,88.36,157.702,88.298,157.561,88.235z"/>
<path fill-rule="evenodd" clip-rule="evenodd" fill="#d1402e" class="fill" d="M39.273,139.239c-1.861-0.018-3.493-0.033-5.299-0.05
	c0.021-2.294,0.042-4.456,0.063-6.741c1.812,0.018,3.539,0.033,5.3,0.05C39.316,134.728,39.295,136.953,39.273,139.239z"/>
<path fill-rule="evenodd" clip-rule="evenodd" fill="#d1402e" class="fill" d="M149.062,122.088c-1.66,0.126-3.231,0.246-4.926,0.375
	c-0.048-2.004-0.431-3.957,1.211-5.575c1.278-1.261,2.44-2.638,3.66-3.958c0.115-0.125,0.275-0.207,0.552-0.411
	C149.388,115.792,149.226,118.917,149.062,122.088z"/>
<path fill-rule="evenodd" clip-rule="evenodd" fill="#d1402e" class="fill" d="M32.407,139.291c-1.618-0.016-3.189-0.03-4.905-0.047
	c0.019-1.991,0.038-4.023,0.06-6.345c1.532-0.161,3.135-0.328,4.91-0.514C32.449,134.806,32.429,136.981,32.407,139.291z"/>
<path fill-rule="evenodd" clip-rule="evenodd" fill="#d1402e" class="fill" d="M55.538,132.427c2.123,0.322,4.062,0.616,6.039,0.916
	c-0.017,1.757-0.032,3.412-0.048,5.133c-1.899-0.018-3.684-0.035-5.581-0.053C55.812,136.442,55.685,134.576,55.538,132.427z"/>
<path fill-rule="evenodd" clip-rule="evenodd" fill="#d1402e" class="fill" d="M137.415,68.25c0.109-1.595,0.066-3.112,0.372-4.556
	c0.152-0.715,0.885-1.354,1.461-1.92c0.902-0.887,1.895-1.683,2.849-2.517c0.084,0.035,0.169,0.07,0.254,0.105
	c-0.026,2.783-0.053,5.565-0.08,8.426C140.727,67.935,139.155,68.084,137.415,68.25z"/>
<path fill-rule="evenodd" clip-rule="evenodd" fill="#d1402e" class="fill" d="M157.384,131.498c1.78,0.017,3.561,0.034,5.404,0.051
	c-0.016,1.724-0.033,3.463-0.051,5.321c-1.797-0.017-3.511-0.033-5.404-0.051C157.35,135.078,157.366,133.362,157.384,131.498z"/>
<path fill-rule="evenodd" clip-rule="evenodd" fill="#d1402e" class="fill" d="M150.459,132.227c1.917-0.193,3.688-0.372,5.645-0.569
	c-0.017,1.842-0.034,3.529-0.051,5.412c-1.715,0.072-3.494,0.147-5.311,0.224C150.645,135.562,150.555,133.946,150.459,132.227z"/>
<path fill-rule="evenodd" clip-rule="evenodd" fill="#d1402e" class="fill" d="M144.353,137.546c0.016-1.676,0.03-3.212,0.046-4.918
	c1.687-0.124,3.297-0.24,5.055-0.369c-0.016,1.741-0.031,3.337-0.048,5.052C147.762,137.388,146.136,137.463,144.353,137.546z"/>
<path fill-rule="evenodd" clip-rule="evenodd" fill="#d1402e" class="fill" d="M168.362,131.493c-0.016,1.699-0.032,3.377-0.049,5.159
	c-1.53,0.055-2.887,0.105-4.408,0.16c-0.063-1.796-0.124-3.507-0.19-5.363C165.377,131.465,166.853,131.479,168.362,131.493z"/>
<path fill-rule="evenodd" clip-rule="evenodd" fill="#d1402e" class="fill" d="M137.578,137.562c0.011-1.138,0.022-2.334,0.034-3.591
	c1.9-0.335,3.745-0.659,5.616-0.99c-0.015,1.488-0.029,2.984-0.044,4.634C141.273,137.597,139.48,137.58,137.578,137.562z"/>
<path fill-rule="evenodd" clip-rule="evenodd" fill="#d1402e" class="fill" d="M67.202,138.204c-1.511,0.097-2.805,0.179-4.262,0.273
	c0.016-1.702,0.03-3.229,0.047-4.923c1.455,0.365,2.911,0.73,4.249,1.065C67.224,135.908,67.213,137.019,67.202,138.204z"/>
<path fill-rule="evenodd" clip-rule="evenodd" fill="#d1402e" class="fill" d="M65.748,71.445c-1.541-0.015-2.809-0.026-4.261-0.04
	c0.022-2.402,0.045-4.75,0.069-7.317C63.241,66.379,64.798,68.598,65.748,71.445z"/>
<path fill-rule="evenodd" clip-rule="evenodd" fill="#d1402e" class="fill" d="M136.412,137.844c-1.117-0.01-2.073-0.02-3.225-0.03
	c0.076-1.111,0.146-2.118,0.226-3.285c0.994-0.224,1.978-0.445,3.037-0.684C136.437,135.239,136.425,136.468,136.412,137.844z"/>
<path fill-rule="evenodd" clip-rule="evenodd" fill="#d1402e" class="fill" d="M171.669,136.429c-0.631,0.033-1.278,0.068-2.101,0.111
	c0.016-1.713,0.031-3.328,0.048-5.048c0.605,0.005,1.279,0.012,2.1,0.02C171.7,133.131,171.685,134.673,171.669,136.429z"/>
<path fill-rule="evenodd" clip-rule="evenodd" fill="#d1402e" class="fill" d="M55.779,117.579c1.249,1.575,2.498,3.151,3.847,4.852
	c-1.388,0.067-2.702,0.13-4.159,0.201c0.017-1.761,0.032-3.356,0.047-4.951C55.603,117.646,55.69,117.612,55.779,117.579z"/>
<path fill-rule="evenodd" clip-rule="evenodd" fill="#d1402e" class="fill" d="M143.087,119.76c-0.05,0.862-0.1,1.724-0.154,2.651
	c-0.82-0.008-1.56-0.015-2.563-0.024c0.934-1.016,1.726-1.876,2.517-2.736C142.954,119.686,143.021,119.723,143.087,119.76z"/>
<path fill-rule="evenodd" clip-rule="evenodd" fill="#d1402e" class="fill" d="M136.417,68.259c-0.46,0.061-0.812,0.107-1.402,0.186
	c0.474-1.077,0.879-1.997,1.284-2.917c0.109,0.021,0.219,0.042,0.328,0.062C136.559,66.452,136.491,67.312,136.417,68.259z"/>
<path fill-rule="evenodd" clip-rule="evenodd" fill="#d1402e" class="fill" d="M164.242,78.853c0.466,0.24,0.69,0.355,1.002,0.516
	c-0.255,0.383-0.434,0.654-0.612,0.924c-0.096-0.004-0.192-0.007-0.289-0.01C164.316,79.891,164.289,79.5,164.242,78.853z"/>
<path class="stroke" fill="#273f03"  d="M184.1,153.789c-0.192-0.692-0.593-0.803-0.953-0.887c-2.474-0.581-4.943-1.188-7.433-1.689
	c-2.911-0.586-5.852-1.009-8.677-1.986c-0.721-0.249-1.564-0.698-2.312,0.203c0.03,1.078-0.535,2.065-0.856,3.116
	c-0.899,2.943-1.291,6.003-2.137,8.957c-0.374,1.301-0.555,2.625-0.455,3.983c0.034,0.453,0.098,0.876,0.666,0.953
	c2.161-1.015,4.511-1.548,6.643-2.793c0.659,0.738,1.197,1.387,1.545,2.191c0.939,2.174,2.195,4.159,3.639,6.029
	c0.379,0.491,0.739,1.025,1.606,1.147c2.792-1.541,5.632-3.256,8.539-5.283c-2.158-3.401-4.181-6.74-5.812-10.305
	C180.336,156.398,182.528,155.494,184.1,153.789z"/>
<path fill-rule="evenodd" clip-rule="evenodd" fill="#d1402e" class="fill" d="M166.863,151.268c4.128,1.099,8.158,1.908,12.324,2.853
	c-1.244,1.183-2.778,1.6-3.951,2.477c-0.055,1.111,0.412,1.966,0.967,2.744c1.679,2.354,2.891,4.977,4.369,7.445
	c0.146,0.242,0.263,0.502,0.474,0.908c-1.785,1.001-3.618,1.716-5.521,2.255c-2.501-2.744-3.911-6.137-6.161-8.934
	c-2.241,0.09-3.775,1.691-5.961,2.492C164.61,159.355,165.811,155.488,166.863,151.268z"/>
<path class="stroke" fill="#273f03"  d="M35.917,167.176c0.522-0.492,0.433-0.898,0.338-1.256c-0.643-2.457-1.261-4.922-1.981-7.357
	c-0.842-2.846-1.844-5.642-2.301-8.595c-0.116-0.753-0.113-1.708-1.26-1.948c-0.939,0.53-2.076,0.493-3.154,0.699
	c-3.022,0.58-5.911,1.663-8.917,2.294c-1.326,0.277-2.581,0.736-3.733,1.459c-0.385,0.241-0.729,0.495-0.531,1.034
	c1.908,1.435,3.478,3.263,5.575,4.564c-0.345,0.928-0.667,1.706-1.215,2.389c-1.482,1.846-2.65,3.882-3.628,6.031
	c-0.257,0.564-0.561,1.132-0.264,1.955c2.667,1.748,5.511,3.457,8.662,5.078c1.998-3.496,4.004-6.842,6.393-9.949
	C31.85,165.069,33.674,166.584,35.917,167.176z"/>
<path fill-rule="evenodd" clip-rule="evenodd" fill="#d1402e" class="fill" d="M30.087,150.768c0.959,4.161,2.127,8.1,3.239,12.222
	c-1.626-0.547-2.712-1.708-4.035-2.335c-1.008,0.47-1.546,1.283-1.975,2.137c-1.296,2.583-3.047,4.878-4.539,7.337
	c-0.146,0.242-0.32,0.467-0.581,0.843c-1.719-1.111-3.209-2.396-4.573-3.826c1.256-3.492,3.597-6.322,5.017-9.616
	c-1.127-1.939-3.26-2.546-4.989-4.104C21.884,152.555,25.864,151.809,30.087,150.768z"/>
</svg>
