<svg version="1.1" id="svg" xmlns="http://www.w3.org/2000/svg" xmlns:xlink="http://www.w3.org/1999/xlink" x="0px" y="0px"
	 width="200px" height="200px" viewBox="0 0 200 200" enable-background="new 0 0 200 200" xml:space="preserve">
<path class="stroke" fill="#672a19"  fill-rule="evenodd" clip-rule="evenodd" d="M144.873,140.646c-1.49-2.285-2.979-4.57-4.477-6.851
	c-1.498-2.278-3.008-4.548-4.502-6.83c-0.174-0.268-0.371-0.578-0.393-0.88c-0.119-1.685-0.311-3.377-0.245-5.058
	c0.082-2.095,0.43-4.179,0.591-6.273c0.182-2.367,0.318-4.74,0.41-7.113c0.155-4.016,0.278-8.034,0.375-12.053
	c0.034-1.414-0.069-2.83-0.073-4.245c-0.007-2.01,0.04-10.505,0.028-12.514c-0.024-4.566-0.053-9.132-0.119-13.698
	c-0.024-1.66-0.1-3.326-0.262-4.978c-0.35-3.556-1.425-6.951-2.47-10.343c-0.906-2.944-2.332-5.662-4.191-8.093
	c-1.514-1.982-3.275-3.781-4.979-5.61c-1.588-1.705-3.29-3.314-5.519-4.143c-1.576-0.585-3.227-0.965-4.83-1.483
	c-4.142-1.339-8.384-2.042-12.734-1.92c-2.972,0.083-5.938,0.337-8.908,0.525c-1.854,0.118-3.732,0.104-5.555,0.415
	c-3.783,0.644-7.578,1.243-11.103,2.957c-2.304,1.12-4.376,2.501-6.021,4.437C67.257,40,65.5,43.621,63.97,47.376
	c-1.183,2.905-1.721,5.97-2.4,8.993c-0.5,2.224-0.708,4.516-0.994,6.784c-0.375,2.971-0.739,5.935-0.684,8.949
	c0.062,3.301-0.099,6.607-0.157,9.911c-0.059,3.41-0.112,13.306-0.163,16.716c-0.046,3.03-0.077,6.06-0.13,9.09
	c-0.034,1.936-0.083,3.873-0.149,5.809c-0.105,3.079-0.289,6.155-0.326,9.234c-0.025,2.088-0.274,3.892-1.984,5.479
	c-3.881,3.603-7.562,7.421-11.404,11.23c0.238,2.758,0.441,5.366,0.705,7.968c0.07,0.697,0.511,1.259,1.261,1.313
	c0.749,0.055,1.508-0.058,2.262-0.064c1.309-0.01,2.618,0.01,3.926,0.01c2.322,0,4.643-0.006,6.964-0.011
	c2.866-0.007,5.733-0.017,8.6-0.022c1.749-0.003,3.498-0.029,5.245,0.004c3.217,0.061,6.434,0.181,9.65,0.233
	c2.647,0.044,5.296,0.006,7.944,0.046c1.169,0.018,2.336,0.152,3.506,0.208c0.808,0.039,1.619,0.03,2.429,0.05
	c0.62,0.015,1.242,0.089,1.859,0.055c2.249-0.124,4.495-0.36,6.745-0.402c1.787-0.033,3.574,0.197,5.365,0.235
	c1.956,0.042,3.916-0.068,5.872,0.001c3.222,0.114,6.438,0.367,9.662,0.472c2.373,0.077,4.751,0.007,7.127,0.012
	c1.666,0.004,3.33,0.023,4.995,0.042c0.464,0.005,0.93,0.018,1.393,0.047c0.934,0.058,1.874,0.231,2.795,0.16
	c0.594-0.045,1.199-0.385,1.223-1.195c0.037-1.297,0.104-2.594,0.157-3.89c0.02-0.487-0.094-1.029,0.082-1.45
	C145.788,142.338,145.424,141.49,144.873,140.646z M129.883,72.723c0.13,0.513,0.268,10.141,0.357,20.999
	c-4.469-0.463-19.928-0.392-24.92-0.355c0.102-7.066,0.204-14.479,0.298-17.026c0.021-0.57,0.145-1.987,0.274-4.039
	C113.968,72.444,121.912,72.583,129.883,72.723z M111.889,36.81c3.281,1.326,6.39,2.989,9.256,5.03
	c1.699,1.211,3.051,2.84,4.177,4.67c1.079,1.752,3.804,8.504,3.82,15.628c-8.209-0.144-15.212-0.285-23.452-0.43
	c-0.201-11.203-1.08-15.254-1.228-26.405C107.141,35.478,109.559,35.869,111.889,36.81z M67.6,56.394
	c0.468-3.476,1.574-6.733,3.143-9.852c1.773-3.524,4.438-6.075,8.131-7.534c1.261-0.498,2.451-1.236,3.748-1.567
	c2.692-0.687,5.435-1.176,8.157-1.741c0.641-0.133,1.283-0.255,1.928-0.364c0.284-0.047,0.574-0.052,1.062-0.091
	c-0.025,1.452-0.071,2.804-0.068,4.156c0.006,2.405,0.002,4.812,0.072,7.216c0.11,3.768,0.366,14.501,0.383,15.054
	c-9.228,1.073-17.954,0.947-27.283,0.443C66.95,61.275,67.141,59.802,67.6,56.394z M93.858,72.376
	c0.009,5.477,0.12,13.268,0.201,21.429c-6.248,1.026-24.884,0.504-29.425,0.358c0.12-8.204,0.352-16.041,0.707-21.526
	C74.834,72.55,84.246,72.464,93.858,72.376z M93.87,124.852c-9.794,0.625-19.426,0.339-29.109,0.255
	c-0.177-5.487-0.251-13.399-0.214-21.69c1.142,0.058,2.849,0.083,5.203-0.037c3.048-0.156,14.894-0.166,24.383-0.121
	C94.172,111.504,94.13,119.371,93.87,124.852z M130.222,124.988c-4.235-0.074-8.412-0.147-12.587-0.221
	c-4.179-0.073-8.358-0.146-12.696-0.224c-0.028-0.112-0.189-0.447-0.182-0.778c0.047-1.909,0.161-3.816,0.197-5.726
	c0.02-1.033-0.118-2.069-0.101-3.104c0.042-2.458,0.118-4.917,0.209-7.373c0.033-0.886,0.067-2.363,0.102-4.208
	c0.447,0.008,0.815,0.016,1.086,0.024c3.673,0.108,19.753-0.064,24.054-0.112C130.361,114.252,130.353,124.175,130.222,124.988z"/>
<path fill-rule="evenodd" clip-rule="evenodd" fill="#ffc524" class="fill" d="M49.04,140.865c0.876-1.812,2.285-2.962,3.468-4.304
	c2.509-2.844,5.57-5.06,8.389-7.55c0.223-0.197,0.398-0.46,0.645-0.613c0.375-0.231,0.794-0.555,1.194-0.556
	c3.005-0.001,6.011,0.117,9.015,0.097c2.071-0.015,4.14-0.233,6.211-0.285c1.913-0.048,3.834,0.108,5.739-0.009
	c4.63-0.285,9.287-0.009,13.9-0.771c1.292-0.213,2.665,0.099,4,0.098c4.399-0.003,8.797-0.051,13.196-0.061
	c3.227-0.006,6.453-0.046,9.674,0.06c1.96,0.065,3.913,0.388,5.869,0.581c0.809,0.08,1.621,0.12,2.45,0.18
	c3.052,4.344,6.088,8.666,9.23,13.138c-1.648-0.029-3-0.076-4.351-0.072c-2.839,0.01-5.677,0.077-8.517,0.069
	c-4.214-0.01-8.429-0.092-12.643-0.089c-2.458,0.001-4.918,0.143-7.377,0.162c-3.088,0.022-6.179,0.031-9.267-0.042
	c-4.187-0.1-8.369-0.339-12.555-0.413c-3.083-0.055-6.168,0.07-9.254,0.092c-3.903,0.026-7.809,0.001-11.712,0.052
	c-3.664,0.048-7.326,0.173-10.99,0.251c-1.802,0.04-3.605,0.056-5.407,0.073C49.688,140.954,49.428,140.903,49.04,140.865z"/>
<path class="stroke" fill="#672a19"  d="M112.601,169.277c0.199-0.73-0.104-1.046-0.386-1.316c-1.931-1.858-3.843-3.737-5.832-5.532
	c-2.324-2.098-4.764-4.064-6.8-6.47c-0.519-0.614-1.042-1.475-2.207-1.06c-0.554,0.993-1.598,1.585-2.454,2.365
	c-2.401,2.185-4.405,4.75-6.764,6.972c-1.04,0.979-1.918,2.083-2.558,3.368c-0.214,0.429-0.384,0.847,0.091,1.223
	c2.506,0.242,4.925,1.023,7.53,1.041c0.2,1.025,0.338,1.903,0.22,2.819c-0.319,2.477-0.249,4.953,0.053,7.425
	c0.08,0.649,0.118,1.327,0.838,1.905c3.362,0.105,6.862,0.079,10.591-0.196c-0.125-4.246-0.161-8.361,0.279-12.473
	C107.782,169.619,110.257,169.978,112.601,169.277z"/>
<path fill-rule="evenodd" clip-rule="evenodd" fill="#ffc524" class="fill" d="M98.326,157.715c3.152,3.218,6.371,6.121,9.641,9.219
	c-1.766,0.402-3.381-0.045-4.917,0.119c-0.648,0.978-0.686,2.005-0.602,3.01c0.255,3.038-0.059,6.068-0.048,9.102
	c0.002,0.297-0.031,0.597-0.059,1.079c-2.159-0.053-4.207-0.391-6.222-0.927c-0.79-3.834-0.241-7.669-0.775-11.417
	c-2.081-1.125-4.335-0.499-6.749-0.948C91.925,163.838,95.098,160.977,98.326,157.715z"/>
</svg>
